<svg width="24" height="24" viewBox="0 0 24 24" fill="none" xmlns="http://www.w3.org/2000/svg">
<g id="icons/Character/ad">
<path id="Union" d="M12 1C18.0751 1 23 5.92487 23 12C23 18.0751 18.0751 23 12 23C5.92487 23 1 18.0751 1 12C1 5.92487 5.92487 1 12 1ZM12 3C9.87498 3 7.92249 3.73712 6.38281 4.96875L7.20703 5.79297C7.59756 6.18349 7.59756 6.81651 7.20703 7.20703C6.81651 7.59756 6.18349 7.59756 5.79297 7.20703L4.96875 6.38281C3.73712 7.92249 3 9.87498 3 12C3 16.9706 7.02944 21 12 21C14.125 21 16.0766 20.2619 17.6162 19.0303L16.793 18.207C16.4024 17.8165 16.4024 17.1835 16.793 16.793C17.1835 16.4024 17.8165 16.4024 18.207 16.793L19.0303 17.6162C20.2619 16.0766 21 14.125 21 12C21 7.02944 16.9706 3 12 3ZM9 7.5C9.44648 7.5 9.83926 7.79629 9.96191 8.22559L11.5332 13.7256L11.9619 15.2256C12.1134 15.7565 11.8053 16.3102 11.2744 16.4619C10.7435 16.6134 10.1898 16.3053 10.0381 15.7744L9.81738 15H8.18262L7.96191 15.7744C7.81023 16.3053 7.25651 16.6134 6.72559 16.4619C6.19467 16.3102 5.88662 15.7565 6.03809 15.2256L6.4668 13.7256L8.03809 8.22559C8.16074 7.79629 8.55352 7.5 9 7.5ZM13.5 7.5C14.7356 7.5 15.9825 7.77657 16.9424 8.52246C17.9424 9.29958 18.5 10.4848 18.5 12C18.5 13.5152 17.9424 14.7004 16.9424 15.4775C15.9825 16.2234 14.7356 16.5 13.5 16.5C12.9477 16.5 12.5 16.0523 12.5 15.5V8.5C12.5 7.94772 12.9477 7.5 13.5 7.5ZM14.5 14.4092C15.0013 14.3105 15.4099 14.1344 15.7148 13.8975C16.1624 13.5496 16.5 12.9846 16.5 12C16.5 11.0154 16.1624 10.4504 15.7148 10.1025C15.4099 9.8656 15.0013 9.68948 14.5 9.59082V14.4092Z" fill="#9E9E9E"/>
</g>
</svg>
