<svg width="24" height="24" viewBox="0 0 24 24" fill="none" xmlns="http://www.w3.org/2000/svg">
<g id="icons/Character/at-sign">
<path id="Union" d="M12 1C18.0751 1 23 5.92487 23 12C23 14.2091 21.2091 16 19 16C17.8808 16 16.8696 15.5397 16.1436 14.7988C15.2447 16.1269 13.7244 17 12 17C9.23857 17 7 14.7614 7 12C7 9.23857 9.23857 7 12 7C13.1254 7 14.1634 7.37252 14.999 8C14.999 7.44772 15.4477 7 16 7C16.5523 7 17 7.44772 17 8V12C17 13.1046 17.8954 14 19 14C20.1046 14 21 13.1046 21 12C21 7.02943 16.9706 3 12 3C7.02943 3 3 7.02943 3 12C3 16.9706 7.02943 21 12 21C14.2456 21 16.2971 20.179 17.874 18.8193C18.2923 18.4587 18.9235 18.5056 19.2842 18.9238C19.6447 19.3421 19.5979 19.9734 19.1797 20.334C17.2535 21.9947 14.7429 23 12 23C5.92487 23 1 18.0751 1 12C1 5.92487 5.92487 1 12 1ZM12 9C10.3431 9 9 10.3431 9 12C9 13.6569 10.3431 15 12 15C13.6569 15 15 13.6569 15 12C15 10.3431 13.6569 9 12 9Z" fill="#9E9E9E"/>
</g>
</svg>
