<svg width="24" height="24" viewBox="0 0 24 24" fill="none" xmlns="http://www.w3.org/2000/svg">
<g id="icons/Character/attention">
<path id="Union" d="M12 1C15.0373 1 17.7888 2.23217 19.7783 4.22168C21.7678 6.21121 23 8.96273 23 12C23 15.0373 21.7678 17.7888 19.7783 19.7783C17.7888 21.7678 15.0373 23 12 23C8.96273 23 6.21121 21.7678 4.22168 19.7783C2.23217 17.7888 1 15.0373 1 12C1 8.96273 2.23218 6.21121 4.22168 4.22168C6.21121 2.23218 8.96273 1 12 1ZM12 3C9.51447 3 7.26555 4.00597 5.63574 5.63574C4.00597 7.26555 3 9.51447 3 12C3 14.4855 4.00597 16.7345 5.63574 18.3643C7.26555 19.994 9.51448 21 12 21C14.4855 21 16.7345 19.994 18.3643 18.3643C19.994 16.7345 21 14.4855 21 12C21 9.51448 19.994 7.26555 18.3643 5.63574C16.7345 4.00597 14.4855 3 12 3ZM12 16C12.6903 16 13.25 16.5597 13.25 17.25C13.25 17.9403 12.6903 18.5 12 18.5C11.3097 18.5 10.75 17.9403 10.75 17.25C10.75 16.5597 11.3097 16 12 16ZM12 5C12.5523 5 13 5.44772 13 6V14C13 14.5523 12.5523 15 12 15C11.4477 15 11 14.5523 11 14V6C11 5.44772 11.4477 5 12 5Z" fill="#9E9E9E"/>
</g>
</svg>
