<svg width="24" height="24" viewBox="0 0 24 24" fill="none" xmlns="http://www.w3.org/2000/svg">
<g id="icons/Character/big-x">
<path id="Union" d="M7.6123 2.00684C7.87249 2.03624 8.11218 2.16681 8.27832 2.37305L12 6.99219L15.7217 2.37305L15.7969 2.28906C15.983 2.10498 16.2352 2 16.5 2H22C22.385 2 22.7361 2.22107 22.9023 2.56836C23.0685 2.91562 23.0198 3.32716 22.7783 3.62695L16.0332 12L22.7783 20.373C23.0198 20.6728 23.0685 21.0844 22.9023 21.4316C22.7361 21.7789 22.385 22 22 22H16.5C16.1974 22 15.9115 21.8626 15.7217 21.627L12 17.0068L8.27832 21.627C8.08849 21.8626 7.8026 22 7.5 22H2C1.61499 22 1.26385 21.7789 1.09766 21.4316C0.931547 21.0844 0.980199 20.6728 1.22168 20.373L7.96582 12L1.22168 3.62695C0.980199 3.32717 0.931547 2.91562 1.09766 2.56836C1.26385 2.22107 1.61499 2.00001 2 2H7.5L7.6123 2.00684ZM4.08887 20H7.02246L10.7158 15.4131L9.24902 13.5928L4.08887 20ZM13.2832 15.4131L16.9775 20H19.9111L14.75 13.5928L13.2832 15.4131ZM10.5332 12L12 13.8203L13.4668 12L12 10.1787L10.5332 12ZM9.24902 10.4062L10.7158 8.58594L7.02246 4H4.08887L9.24902 10.4062ZM13.2832 8.58594L14.75 10.4062L19.9111 4H16.9775L13.2832 8.58594Z" fill="#9E9E9E"/>
</g>
</svg>
