<svg width="24" height="24" viewBox="0 0 24 24" fill="none" xmlns="http://www.w3.org/2000/svg">
<g id="icons/Character/bitcoin">
<path id="Union" d="M12 1C18.0751 1 23 5.92487 23 12C23 18.0751 18.0751 23 12 23C5.92487 23 1 18.0751 1 12C1 5.92487 5.92487 1 12 1ZM12 3C7.02944 3 3 7.02944 3 12C3 16.9706 7.02944 21 12 21C16.9706 21 21 16.9706 21 12C21 7.02944 16.9706 3 12 3ZM12.5 5C13.0523 5 13.5 5.44772 13.5 6V7C15.1568 7 16.5 8.34317 16.5 10C16.5 10.5354 16.3571 11.0365 16.1113 11.4717C16.9456 12.0045 17.5 12.9367 17.5 14C17.5 15.6568 16.1568 17 14.5 17H13.5V18C13.5 18.5523 13.0523 19 12.5 19C11.9477 19 11.5 18.5523 11.5 18V17H11V18C11 18.5523 10.5523 19 10 19C9.44771 19 9 18.5523 9 18V17H8C7.44772 17 7 16.5523 7 16C7 15.4477 7.44772 15 8 15H9V9H8C7.44772 9 7 8.55228 7 8C7 7.44772 7.44772 7 8 7H9V6C9 5.44772 9.44771 5 10 5C10.5523 5 11 5.44772 11 6V7H11.5V6C11.5 5.44772 11.9477 5 12.5 5Z" fill="#9E9E9E"/>
</g>
</svg>
