<svg width="24" height="24" viewBox="0 0 24 24" fill="none" xmlns="http://www.w3.org/2000/svg">
<g id="icons/Character/ce-marking">
<path id="Union" d="M11 2C11.5523 2 12 2.44772 12 3C12 3.55228 11.5523 4 11 4C6.58173 4 3 7.58173 3 12C3 16.4183 6.58173 20 11 20C11.5523 20 12 20.4477 12 21C12 21.5523 11.5523 22 11 22C5.47717 22 1 17.5228 1 12C1 6.47717 5.47717 2 11 2ZM22 2C22.5523 2 23 2.44772 23 3C23 3.55228 22.5523 4 22 4C17.9205 4 14.5567 7.05385 14.0645 11H18.5C19.0523 11 19.5 11.4477 19.5 12C19.5 12.5523 19.0523 13 18.5 13H14.0645C14.5567 16.9461 17.9205 20 22 20C22.5523 20 23 20.4477 23 21C23 21.5523 22.5523 22 22 22C16.4772 22 12 17.5228 12 12C12 6.47717 16.4772 2 22 2Z" fill="#9E9E9E"/>
</g>
</svg>
