<svg width="24" height="24" viewBox="0 0 24 24" fill="none" xmlns="http://www.w3.org/2000/svg">
<g id="icons/Character/check-one">
<path id="Union" d="M12 1C15.0373 1 17.7888 2.23217 19.7783 4.22168C21.7678 6.21121 23 8.96273 23 12C23 15.0373 21.7678 17.7888 19.7783 19.7783C17.7888 21.7678 15.0373 23 12 23C8.96273 23 6.21121 21.7678 4.22168 19.7783C2.23217 17.7888 1 15.0373 1 12C1 8.96273 2.23218 6.21121 4.22168 4.22168C6.21121 2.23218 8.96273 1 12 1ZM12 3C9.51447 3 7.26555 4.00597 5.63574 5.63574C4.00597 7.26555 3 9.51447 3 12C3 14.4855 4.00597 16.7345 5.63574 18.3643C7.26555 19.994 9.51448 21 12 21C14.4855 21 16.7345 19.994 18.3643 18.3643C19.994 16.7345 21 14.4855 21 12C21 9.51448 19.994 7.26555 18.3643 5.63574C16.7345 4.00597 14.4855 3 12 3ZM16.293 8.29297C16.6835 7.90244 17.3165 7.90244 17.707 8.29297C18.0976 8.68349 18.0976 9.31651 17.707 9.70703L11.707 15.707C11.3165 16.0976 10.6835 16.0976 10.293 15.707L7.29297 12.707C6.90244 12.3165 6.90244 11.6835 7.29297 11.293C7.68349 10.9024 8.31651 10.9024 8.70703 11.293L11 13.5859L16.293 8.29297Z" fill="#9E9E9E"/>
</g>
</svg>
