<svg width="24" height="24" viewBox="0 0 24 24" fill="none" xmlns="http://www.w3.org/2000/svg">
<g id="icons/Character/close-small">
<path id="Union" d="M16.2931 6.29297C16.6836 5.90244 17.3166 5.90244 17.7072 6.29297C18.0976 6.6835 18.0977 7.31653 17.7072 7.70703L13.4142 12L17.7072 16.293C18.0976 16.6835 18.0977 17.3165 17.7072 17.707C17.3167 18.0975 16.6836 18.0975 16.2931 17.707L12.0001 13.4141L7.70715 17.707C7.31665 18.0975 6.68362 18.0975 6.29309 17.707C5.90257 17.3165 5.90257 16.6835 6.29309 16.293L10.5861 12L6.29309 7.70703C5.90257 7.31651 5.90257 6.68349 6.29309 6.29297C6.68362 5.90244 7.31663 5.90244 7.70715 6.29297L12.0001 10.5859L16.2931 6.29297Z" fill="#9E9E9E"/>
</g>
</svg>
