<svg width="24" height="24" viewBox="0 0 24 24" fill="none" xmlns="http://www.w3.org/2000/svg">
<g id="icons/Character/close-one">
<path id="Union" d="M12 1C18.0751 1 23 5.92487 23 12C23 18.0751 18.0751 23 12 23C5.92487 23 1 18.0751 1 12C1 5.92487 5.92487 1 12 1ZM12 3C7.02943 3 3 7.02943 3 12C3 16.9706 7.02943 21 12 21C16.9706 21 21 16.9706 21 12C21 7.02943 16.9706 3 12 3ZM14.1221 8.46484C14.5126 8.07451 15.1457 8.07438 15.5361 8.46484C15.9264 8.85532 15.9264 9.48843 15.5361 9.87891L13.4141 12L15.5361 14.1221C15.9263 14.5126 15.9265 15.1457 15.5361 15.5361C15.1457 15.9265 14.5126 15.9263 14.1221 15.5361L12 13.4141L9.87891 15.5361C9.48843 15.9264 8.85532 15.9264 8.46484 15.5361C8.07438 15.1457 8.07451 14.5126 8.46484 14.1221L10.5859 12L8.46484 9.87891C8.07432 9.48838 8.07432 8.85537 8.46484 8.46484C8.85537 8.07432 9.48838 8.07432 9.87891 8.46484L12 10.5859L14.1221 8.46484Z" fill="#9E9E9E"/>
</g>
</svg>
