<svg width="24" height="24" viewBox="0 0 24 24" fill="none" xmlns="http://www.w3.org/2000/svg">
<g id="icons/Character/close">
<path id="Union" d="M19.2931 3.29297C19.6836 2.90244 20.3166 2.90244 20.7072 3.29297C21.0976 3.6835 21.0977 4.31653 20.7072 4.70703L13.4142 12L20.7072 19.293C21.0976 19.6835 21.0977 20.3165 20.7072 20.707C20.3167 21.0975 19.6836 21.0975 19.2931 20.707L12.0001 13.4141L4.70715 20.707C4.31665 21.0975 3.68362 21.0975 3.29309 20.707C2.90257 20.3165 2.90257 19.6835 3.29309 19.293L10.5861 12L3.29309 4.70703C2.90257 4.31651 2.90257 3.68349 3.29309 3.29297C3.68362 2.90244 4.31663 2.90244 4.70715 3.29297L12.0001 10.5859L19.2931 3.29297Z" fill="#9E9E9E"/>
</g>
</svg>
