<svg width="24" height="24" viewBox="0 0 24 24" fill="none" xmlns="http://www.w3.org/2000/svg">
<g id="icons/Character/copyright">
<path id="Union" d="M12 1C18.0751 1 23 5.92487 23 12C23 18.0751 18.0751 23 12 23C5.92487 23 1 18.0751 1 12C1 5.92487 5.92487 1 12 1ZM12 3C7.02944 3 3 7.02944 3 12C3 16.9706 7.02944 21 12 21C16.9706 21 21 16.9706 21 12C21 7.02944 16.9706 3 12 3ZM12 7.5C12.9894 7.5 13.774 7.83925 14.3027 8.4209C14.8099 8.97883 15 9.6702 15 10.25C15 10.8298 14.8099 11.5212 14.3027 12.0791C14.0287 12.3805 13.6854 12.6156 13.2812 12.7734L14.8135 14.9189C15.1345 15.3684 15.0305 15.9925 14.5811 16.3135C14.1316 16.6345 13.5075 16.5305 13.1865 16.0811L11 13.0195V15.5C11 16.0523 10.5523 16.5 10 16.5C9.44771 16.5 9 16.0523 9 15.5V8.5C9 7.94772 9.44771 7.5 10 7.5H12Z" fill="#9E9E9E"/>
</g>
</svg>
