<svg width="24" height="24" viewBox="0 0 24 24" fill="none" xmlns="http://www.w3.org/2000/svg">
<g id="icons/Character/correct">
<path id="Union" d="M18.8693 3.72461C19.262 3.40426 19.841 3.42685 20.2072 3.79297L22.7072 6.29297C23.0975 6.68351 23.0976 7.31656 22.7072 7.70703L10.2072 20.207C9.81667 20.5974 9.1836 20.5974 8.79309 20.207L1.29309 12.707C0.902593 12.3165 0.902646 11.6835 1.29309 11.293L3.79309 8.79297L3.86926 8.72461C4.26204 8.40426 4.84104 8.42685 5.20715 8.79297L9.50012 13.0859L18.7931 3.79297L18.8693 3.72461ZM10.2072 15.207C9.81667 15.5974 9.1836 15.5974 8.79309 15.207L4.50012 10.9141L3.41418 12L9.50012 18.0859L20.5861 7L19.5001 5.91406L10.2072 15.207Z" fill="#9E9E9E"/>
</g>
</svg>
