<svg width="24" height="24" viewBox="0 0 24 24" fill="none" xmlns="http://www.w3.org/2000/svg">
<g id="icons/Character/division">
<path id="Union" d="M12 15C13.933 15 15.5 16.567 15.5 18.5C15.5 20.433 13.933 22 12 22C10.067 22 8.5 20.433 8.5 18.5C8.5 16.567 10.067 15 12 15ZM12 17C11.1716 17 10.5 17.6716 10.5 18.5C10.5 19.3284 11.1716 20 12 20C12.8284 20 13.5 19.3284 13.5 18.5C13.5 17.6716 12.8284 17 12 17ZM22 11C22.5523 11 23 11.4477 23 12C23 12.5523 22.5523 13 22 13H2C1.44772 13 1 12.5523 1 12C1 11.4477 1.44772 11 2 11H22ZM12 2C13.933 2 15.5 3.567 15.5 5.5C15.5 7.433 13.933 9 12 9C10.067 9 8.5 7.433 8.5 5.5C8.5 3.567 10.067 2 12 2ZM12 4C11.1716 4 10.5 4.67157 10.5 5.5C10.5 6.32843 11.1716 7 12 7C12.8284 7 13.5 6.32843 13.5 5.5C13.5 4.67157 12.8284 4 12 4Z" fill="#9E9E9E"/>
</g>
</svg>
