<svg width="24" height="24" viewBox="0 0 24 24" fill="none" xmlns="http://www.w3.org/2000/svg">
<g id="icons/Character/error">
<path id="Union" d="M4.86914 2.22461C5.26191 1.90426 5.84092 1.92685 6.20703 2.29297L12 8.08594L17.793 2.29297L17.8691 2.22461C18.2619 1.90426 18.8409 1.92685 19.207 2.29297L21.707 4.79297C22.0974 5.18351 22.0975 5.81656 21.707 6.20703L15.9141 12L21.707 17.793C22.0974 18.1835 22.0975 18.8166 21.707 19.207L19.207 21.707C18.8166 22.0974 18.1835 22.0974 17.793 21.707L12 15.9141L6.20703 21.707C5.81655 22.0974 5.18348 22.0974 4.79297 21.707L2.29297 19.207C1.90247 18.8165 1.90252 18.1835 2.29297 17.793L8.08594 12L2.29297 6.20703C1.90247 5.81653 1.90252 5.1835 2.29297 4.79297L4.79297 2.29297L4.86914 2.22461ZM12.707 10.207C12.3166 10.5974 11.6835 10.5974 11.293 10.207L5.5 4.41406L4.41406 5.5L10.207 11.293C10.5974 11.6835 10.5975 12.3166 10.207 12.707L4.41406 18.5L5.5 19.5859L11.293 13.793L11.3691 13.7246C11.7619 13.4043 12.3409 13.4269 12.707 13.793L18.5 19.5859L19.5859 18.5L13.793 12.707C13.4025 12.3165 13.4025 11.6835 13.793 11.293L19.5859 5.5L18.5 4.41406L12.707 10.207Z" fill="#9E9E9E"/>
</g>
</svg>
