<svg width="24" height="24" viewBox="0 0 24 24" fill="none" xmlns="http://www.w3.org/2000/svg">
<g id="icons/Character/help">
<path id="Union" d="M12 1C15.0373 1 17.7888 2.23217 19.7783 4.22168C21.7678 6.21121 23 8.96273 23 12C23 15.0373 21.7678 17.7888 19.7783 19.7783C17.7888 21.7678 15.0373 23 12 23C8.96273 23 6.21121 21.7678 4.22168 19.7783C2.23217 17.7888 1 15.0373 1 12C1 8.96273 2.23218 6.21121 4.22168 4.22168C6.21121 2.23218 8.96273 1 12 1ZM12 3C9.51447 3 7.26555 4.00597 5.63574 5.63574C4.00597 7.26555 3 9.51447 3 12C3 14.4855 4.00597 16.7345 5.63574 18.3643C7.26555 19.994 9.51448 21 12 21C14.4855 21 16.7345 19.994 18.3643 18.3643C19.994 16.7345 21 14.4855 21 12C21 9.51448 19.994 7.26555 18.3643 5.63574C16.7345 4.00597 14.4855 3 12 3ZM12 16.3125C12.6903 16.3125 13.25 16.8722 13.25 17.5625C13.25 18.2528 12.6903 18.8125 12 18.8125C11.3097 18.8125 10.75 18.2528 10.75 17.5625C10.75 16.8722 11.3097 16.3125 12 16.3125ZM12 5.3125C14.2091 5.3125 16 7.10337 16 9.3125C16 11.1763 14.7252 12.7425 13 13.1865V14.3125C13 14.8648 12.5523 15.3125 12 15.3125C11.4477 15.3125 11 14.8648 11 14.3125V12.3125L11.0049 12.21C11.0562 11.7058 11.4823 11.3125 12 11.3125C13.1046 11.3125 14 10.4171 14 9.3125C14 8.20793 13.1046 7.3125 12 7.3125C10.8954 7.3125 10 8.20793 10 9.3125C10 9.86479 9.55229 10.3125 9 10.3125C8.44772 10.3125 8 9.86479 8 9.3125C8 7.10337 9.79086 5.3125 12 5.3125Z" fill="#9E9E9E"/>
</g>
</svg>
