<svg width="24" height="24" viewBox="0 0 24 24" fill="none" xmlns="http://www.w3.org/2000/svg">
<g id="icons/Character/info">
<path id="Union" d="M12 1C15.0373 1 17.7888 2.23217 19.7783 4.22168C21.7678 6.21121 23 8.96273 23 12C23 15.0373 21.7678 17.7888 19.7783 19.7783C17.7888 21.7678 15.0373 23 12 23C8.96273 23 6.21121 21.7678 4.22168 19.7783C2.23217 17.7888 1 15.0373 1 12C1 8.96273 2.23218 6.21121 4.22168 4.22168C6.21121 2.23218 8.96273 1 12 1ZM12 3C9.51447 3 7.26555 4.00597 5.63574 5.63574C4.00597 7.26555 3 9.51447 3 12C3 14.4855 4.00597 16.7345 5.63574 18.3643C7.26555 19.994 9.51448 21 12 21C14.4855 21 16.7345 19.994 18.3643 18.3643C19.994 16.7345 21 14.4855 21 12C21 9.51448 19.994 7.26555 18.3643 5.63574C16.7345 4.00597 14.4855 3 12 3ZM12.3525 9.00488C12.8567 9.05621 13.25 9.48232 13.25 10V16H14C14.5523 16 15 16.4477 15 17C15 17.5523 14.5523 18 14 18H10.5C9.94771 18 9.5 17.5523 9.5 17C9.5 16.4477 9.94771 16 10.5 16H11.25V11C10.6977 11 10.25 10.5523 10.25 10C10.25 9.44771 10.6977 9 11.25 9H12.25L12.3525 9.00488ZM12 5.5C12.6903 5.5 13.25 6.05965 13.25 6.75C13.25 7.44035 12.6903 8 12 8C11.3097 8 10.75 7.44035 10.75 6.75C10.75 6.05965 11.3097 5.5 12 5.5Z" fill="#9E9E9E"/>
</g>
</svg>
