<svg width="24" height="24" viewBox="0 0 24 24" fill="none" xmlns="http://www.w3.org/2000/svg">
<g id="icons/Character/percentage">
<path id="Union" d="M20.293 2.29297C20.6835 1.90244 21.3165 1.90244 21.707 2.29297C22.0976 2.68349 22.0976 3.31651 21.707 3.70703L3.70703 21.707C3.31651 22.0976 2.68349 22.0976 2.29297 21.707C1.90244 21.3165 1.90244 20.6835 2.29297 20.293L20.293 2.29297ZM18.5 15C20.433 15 22 16.567 22 18.5C22 20.433 20.433 22 18.5 22C16.567 22 15 20.433 15 18.5C15 16.567 16.567 15 18.5 15ZM18.5 17C17.6716 17 17 17.6716 17 18.5C17 19.3284 17.6716 20 18.5 20C19.3284 20 20 19.3284 20 18.5C20 17.6716 19.3284 17 18.5 17ZM5.5 2C7.433 2 9 3.567 9 5.5C9 7.433 7.433 9 5.5 9C3.567 9 2 7.433 2 5.5C2 3.567 3.567 2 5.5 2ZM5.5 4C4.67157 4 4 4.67157 4 5.5C4 6.32843 4.67157 7 5.5 7C6.32843 7 7 6.32843 7 5.5C7 4.67157 6.32843 4 5.5 4Z" fill="#9E9E9E"/>
</g>
</svg>
