<svg width="24" height="24" viewBox="0 0 24 24" fill="none" xmlns="http://www.w3.org/2000/svg">
<g id="icons/Character/plus-cross">
<path id="Union" d="M15 1C15.5523 1 16 1.44772 16 2V8H22C22.5523 8 23 8.44772 23 9V15C23 15.5523 22.5523 16 22 16H16V22C16 22.5523 15.5523 23 15 23H9C8.44772 23 8 22.5523 8 22V16H2C1.44772 16 1 15.5523 1 15V9C1 8.44772 1.44772 8 2 8H8V2C8 1.44772 8.44772 1 9 1H15ZM10 9C10 9.55229 9.55229 10 9 10H3V14H9C9.55229 14 10 14.4477 10 15V21H14V15C14 14.4477 14.4477 14 15 14H21V10H15C14.4477 10 14 9.55229 14 9V3H10V9Z" fill="#9E9E9E"/>
</g>
</svg>
