<svg width="24" height="24" viewBox="0 0 24 24" fill="none" xmlns="http://www.w3.org/2000/svg">
<g id="icons/Character/plus">
<path id="Union" d="M12.0312 4C12.5834 4.00072 13.0308 4.44884 13.0303 5.00098L13.0225 11H19C19.5523 11 20 11.4477 20 12C20 12.5523 19.5523 13 19 13H13.0195L13.0117 19.001C13.011 19.5532 12.5629 20.0005 12.0107 20C11.4587 19.9991 11.0112 19.5511 11.0117 18.999L11.0195 13H5C4.44772 13 4 12.5523 4 12C4 11.4477 4.44772 11 5 11H11.0225L11.0303 4.99902C11.031 4.44685 11.4791 3.99945 12.0312 4Z" fill="#9E9E9E"/>
</g>
</svg>
