<svg width="24" height="24" viewBox="0 0 24 24" fill="none" xmlns="http://www.w3.org/2000/svg">
<g id="icons/Character/success">
<path id="Union" d="M11.4104 1.19238C11.7615 0.936257 12.238 0.936281 12.5891 1.19238L14.9514 2.91504L17.8762 2.91016L18.0364 2.92285C18.403 2.98163 18.7125 3.2408 18.8293 3.60254L19.7278 6.38477L22.0969 8.09961C22.4489 8.35444 22.5962 8.80769 22.4612 9.2207L21.552 12L22.4612 14.7793C22.5961 15.1923 22.4489 15.6457 22.0969 15.9004L19.7278 17.6143L18.8293 20.3975C18.6957 20.8107 18.3106 21.0905 17.8762 21.0898L14.9514 21.084L12.5891 22.8076C12.2381 23.0636 11.7615 23.0636 11.4104 22.8076L9.0481 21.084L6.12427 21.0898C5.68976 21.0907 5.30378 20.8109 5.17017 20.3975L4.27173 17.6143L1.90356 15.9004C1.55153 15.6456 1.40436 15.1923 1.53931 14.7793L2.44849 12L1.53931 9.2207C1.40422 8.80763 1.55152 8.35442 1.90356 8.09961L4.27173 6.38477L5.17017 3.60254C5.30369 3.18893 5.68964 2.90933 6.12427 2.91016L9.0481 2.91504L11.4104 1.19238ZM9.96313 4.72363C9.79152 4.84879 9.58375 4.9164 9.37134 4.91602L6.84888 4.91113L6.07544 7.31152C6.01011 7.51349 5.8812 7.69001 5.70923 7.81445L3.66626 9.29199L4.45044 11.6895C4.51628 11.8912 4.51635 12.1088 4.45044 12.3105L3.66626 14.707L5.70923 16.1855C5.88117 16.31 6.01016 16.4865 6.07544 16.6885L6.84888 19.0879L9.37134 19.084C9.58377 19.0836 9.7915 19.1512 9.96313 19.2764L11.9993 20.7617L14.0374 19.2764L14.1721 19.1934C14.3127 19.1216 14.4689 19.0838 14.6282 19.084L17.1497 19.0879L17.925 16.6885C17.9904 16.4865 18.1183 16.31 18.2903 16.1855L20.3323 14.707L19.55 12.3105C19.4841 12.1088 19.4841 11.8913 19.55 11.6895L20.3323 9.29199L18.2903 7.81445C18.1184 7.69004 17.9904 7.51342 17.925 7.31152L17.1497 4.91113L14.6282 4.91602C14.4159 4.91632 14.2089 4.84866 14.0374 4.72363L11.9993 3.2373L9.96313 4.72363ZM15.2932 8.79297C15.6837 8.40244 16.3168 8.40244 16.7073 8.79297C17.0975 9.18352 17.0977 9.8166 16.7073 10.207L11.7073 15.207C11.3168 15.5974 10.6837 15.5973 10.2932 15.207L7.79321 12.707C7.40271 12.3165 7.40274 11.6835 7.79321 11.293C8.18374 10.9024 8.81675 10.9024 9.20728 11.293L11.0002 13.0859L15.2932 8.79297Z" fill="#9E9E9E"/>
</g>
</svg>
