<svg width="24" height="24" viewBox="0 0 24 24" fill="none" xmlns="http://www.w3.org/2000/svg">
<g id="icons/Character/symbol">
<path id="Union" d="M12.0039 3C17.0524 3 21 6.9482 21 12C21 14.6233 19.8743 16.9551 17.7861 19.002H22C22.5523 19.002 23 19.4497 23 20.002C22.9999 20.5541 22.5522 21.002 22 21.002H15.0029C14.5668 21.0018 14.1811 20.7187 14.0498 20.3027C13.9185 19.8866 14.0724 19.4331 14.4297 19.1826C17.5973 16.9625 19 14.5647 19 12C19 8.0521 15.9471 5 12.0039 5C8.04064 5.00012 5 7.84593 5 12C5.00004 14.7233 6.41266 17.1105 9.5498 19.165C9.91961 19.4072 10.0862 19.8635 9.95996 20.2871C9.83356 20.7108 9.44413 21.002 9.00195 21.002H2C1.44779 21.002 1.00013 20.5541 1 20.002C1 19.4497 1.44772 19.002 2 19.002H6.12988C4.08765 17.0258 3.00004 14.6914 3 12C3 6.70204 6.97581 3.00012 12.0039 3Z" fill="#9E9E9E"/>
</g>
</svg>
