<svg width="24" height="24" viewBox="0 0 24 24" fill="none" xmlns="http://www.w3.org/2000/svg">
<g id="icons/Character/trademark">
<path id="Union" d="M12 1C18.0751 1 23 5.92487 23 12C23 18.0751 18.0751 23 12 23C5.92487 23 1 18.0751 1 12C1 5.92487 5.92487 1 12 1ZM12 3C7.02944 3 3 7.02944 3 12C3 16.9706 7.02944 21 12 21C16.9706 21 21 16.9706 21 12C21 7.02944 16.9706 3 12 3ZM10 8.5C10.5523 8.5 11 8.94772 11 9.5C11 10.0523 10.5523 10.5 10 10.5H9V14.5C9 15.0523 8.55228 15.5 8 15.5C7.44772 15.5 7 15.0523 7 14.5V10.5H6C5.44772 10.5 5 10.0523 5 9.5C5 8.94772 5.44772 8.5 6 8.5H10ZM17.2314 8.85938C17.501 8.53601 17.945 8.41626 18.3408 8.55957C18.7365 8.70298 19 9.07909 19 9.5V14.5C19 15.0523 18.5523 15.5 18 15.5C17.4477 15.5 17 15.0523 17 14.5V12.2627L16.2686 13.1406C16.0786 13.3686 15.7967 13.5 15.5 13.5C15.2033 13.5 14.9214 13.3686 14.7314 13.1406L14 12.2627V14.5C14 15.0523 13.5523 15.5 13 15.5C12.4477 15.5 12 15.0523 12 14.5V9.5L12.0117 9.34473C12.0675 8.98878 12.3129 8.68507 12.6592 8.55957C13.055 8.41626 13.499 8.53601 13.7686 8.85938L15.5 10.9365L17.2314 8.85938Z" fill="#9E9E9E"/>
</g>
</svg>
