<svg width="24" height="24" viewBox="0 0 24 24" fill="none" xmlns="http://www.w3.org/2000/svg">
<g id="icons/Character/vip">
<path id="Union" d="M6.00037 1C6.4501 1.00015 6.84463 1.30088 6.96423 1.73438L11.7924 19.291L21.1146 1.53516C21.3715 1.04656 21.9764 0.857724 22.4652 1.11426C22.9539 1.3709 23.1423 1.97599 22.8861 2.46484L12.3861 22.4648C12.3799 22.4766 12.3712 22.4876 12.3646 22.499C12.3603 22.5065 12.3564 22.5141 12.3519 22.5215C12.3375 22.5451 12.3221 22.5678 12.306 22.5898C12.3022 22.5952 12.2993 22.6012 12.2953 22.6064C12.2927 22.6098 12.2891 22.6129 12.2865 22.6162C12.2192 22.7023 12.1404 22.7757 12.0521 22.834C12.0424 22.8404 12.0318 22.8455 12.0219 22.8516C11.9981 22.8661 11.9743 22.8801 11.9496 22.8926C11.9444 22.8952 11.9392 22.8979 11.934 22.9004C11.9065 22.9136 11.8784 22.9249 11.85 22.9355C11.8409 22.9389 11.8318 22.9422 11.8226 22.9453C11.7975 22.9539 11.7722 22.9612 11.7465 22.9678C11.738 22.9699 11.7296 22.9727 11.7211 22.9746C11.6451 22.9919 11.5673 23.0008 11.4886 23H7.50037C7.05038 23 6.65604 22.6994 6.5365 22.2656L1.0365 2.26562C0.953883 1.96484 1.01636 1.64166 1.20544 1.39355C1.39461 1.14587 1.68867 1 2.00037 1H6.00037ZM8.26208 21H10.1888L5.23865 3H3.31189L8.26208 21Z" fill="#9E9E9E"/>
</g>
</svg>
