<svg width="24" height="24" viewBox="0 0 24 24" fill="none" xmlns="http://www.w3.org/2000/svg">
<g id="icons/Arrows/afferent-four">
<path id="Union" d="M10.5 1.5C11.0523 1.5 11.5 1.94772 11.5 2.5C11.5 3.05228 11.0523 3.5 10.5 3.5H5V20.5H19V12.375C19 11.8227 19.4477 11.375 20 11.375C20.5523 11.375 21 11.8227 21 12.375V20.5C21 21.6046 20.1046 22.5 19 22.5H5C3.89544 22.5 3 21.6046 3 20.5V3.5C3 2.39543 3.89543 1.5 5 1.5H10.5ZM18.793 2.29297C19.1835 1.90248 19.8165 1.90248 20.207 2.29297C20.5975 2.68349 20.5975 3.31651 20.207 3.70703L12.9141 11H16.5C17.0523 11 17.5 11.4477 17.5 12C17.5 12.5523 17.0523 13 16.5 13H10.5C10.441 13 10.3834 12.9932 10.3271 12.9834C10.32 12.9822 10.3128 12.9819 10.3057 12.9805C10.2868 12.9768 10.2684 12.9716 10.25 12.9668C10.237 12.9635 10.2238 12.9609 10.2109 12.957C10.1609 12.9419 10.1128 12.9228 10.0664 12.9004C10.0266 12.8812 9.98768 12.8597 9.9502 12.835C9.81255 12.7441 9.69887 12.6203 9.62012 12.4746C9.61269 12.4609 9.60634 12.4466 9.59961 12.4326C9.5778 12.3873 9.55783 12.3408 9.54297 12.292C9.5303 12.2503 9.52176 12.2077 9.51465 12.165C9.50571 12.1113 9.5 12.0563 9.5 12V6C9.5 5.44772 9.94772 5 10.5 5C11.0523 5 11.5 5.44772 11.5 6V9.58594L18.793 2.29297Z" fill="#9E9E9E"/>
</g>
</svg>
