<svg width="24" height="24" viewBox="0 0 24 24" fill="none" xmlns="http://www.w3.org/2000/svg">
<g id="icons/Arrows/afferent-three">
<path id="Union" d="M9.5 2C10.0523 2 10.5 2.44772 10.5 3C10.5 3.55228 10.0523 4 9.5 4H4.5C4.22386 4 4 4.22386 4 4.5V19.5C4 19.7762 4.22385 20 4.5 20H19.5C19.7762 20 20 19.7762 20 19.5V14.5C20 13.9477 20.4477 13.5 21 13.5C21.5523 13.5 22 13.9477 22 14.5V19.5C22 20.8807 20.8807 22 19.5 22H4.5C3.1193 22 2 20.8807 2 19.5V4.5C2 3.11929 3.11929 2 4.5 2H9.5ZM19.6289 2.57129C20.1416 2.36642 20.7236 2.61623 20.9287 3.12891C21.1336 3.64161 20.8838 4.22364 20.3711 4.42871C17.9091 5.41353 16.4764 6.21409 15.3281 7.58105C14.3666 8.72585 13.5552 10.3248 12.6113 12.9082L16.6836 11.5518C17.2074 11.3771 17.7735 11.6598 17.9482 12.1836C18.1229 12.7074 17.8402 13.2735 17.3164 13.4482L11.3164 15.4482C11.3072 15.4513 11.2973 15.4523 11.2881 15.4551C11.2735 15.4595 11.259 15.464 11.2441 15.4678C11.2269 15.4721 11.2097 15.4761 11.1924 15.4795C11.1794 15.4821 11.1664 15.4843 11.1533 15.4863C11.1331 15.4895 11.113 15.4922 11.0928 15.4941C11.0791 15.4954 11.0655 15.4964 11.0518 15.4971C11.0344 15.498 11.0172 15.499 11 15.499C10.9824 15.499 10.9649 15.498 10.9473 15.4971C10.9335 15.4963 10.9199 15.4954 10.9062 15.4941C10.8861 15.4922 10.8659 15.4895 10.8457 15.4863C10.8326 15.4843 10.8196 15.4821 10.8066 15.4795C10.7894 15.4761 10.7721 15.4722 10.7549 15.4678C10.7401 15.464 10.7255 15.4595 10.7109 15.4551C10.702 15.4524 10.6925 15.4512 10.6836 15.4482C10.675 15.4454 10.6667 15.4416 10.6582 15.4385C10.6443 15.4334 10.6308 15.4275 10.6172 15.4219C10.6017 15.4155 10.5863 15.4094 10.5713 15.4023C10.5538 15.394 10.5365 15.3853 10.5195 15.376C10.5082 15.3698 10.4973 15.363 10.4863 15.3564C10.47 15.3466 10.4543 15.3359 10.4385 15.3252C10.4274 15.3177 10.416 15.3107 10.4053 15.3027C10.3933 15.2939 10.3817 15.2848 10.3701 15.2754C10.3538 15.2621 10.3377 15.2486 10.3223 15.2344C10.3207 15.233 10.3189 15.2319 10.3174 15.2305L10.2695 15.1826C10.2678 15.1808 10.2664 15.1786 10.2646 15.1768C10.2504 15.1613 10.2369 15.1453 10.2236 15.1289C10.2143 15.1173 10.2051 15.1057 10.1963 15.0938C10.1884 15.083 10.1813 15.0716 10.1738 15.0605C10.1631 15.0447 10.1524 15.0291 10.1426 15.0127C10.1402 15.0087 10.1371 15.005 10.1348 15.001L10.1055 14.9473C10.1023 14.9409 10.0997 14.9342 10.0967 14.9277C10.0896 14.9128 10.0835 14.8973 10.0771 14.8818C10.0715 14.8682 10.0656 14.8547 10.0605 14.8408C10.0576 14.8327 10.0545 14.8246 10.0518 14.8164L8.05176 8.81641C7.87714 8.29256 8.15984 7.72652 8.68359 7.55176C9.20744 7.37714 9.77348 7.65984 9.94824 8.18359L11.0303 11.4316C11.8966 9.18071 12.74 7.55215 13.7969 6.29395C15.2735 4.53613 17.0912 3.58636 19.6289 2.57129Z" fill="#9E9E9E"/>
</g>
</svg>
