<svg width="24" height="24" viewBox="0 0 24 24" fill="none" xmlns="http://www.w3.org/2000/svg">
<g id="icons/Arrows/arrow-left-down">
<path id="Union" d="M17.5205 5.06445C17.911 4.674 18.544 4.67413 18.9346 5.06445C19.325 5.45498 19.3251 6.08802 18.9346 6.47852L7.91309 17.5H14.5C15.0523 17.5 15.5 17.9477 15.5 18.5C15.4999 19.0522 15.0522 19.5 14.5 19.5H5.5C5.11728 19.5 4.78529 19.2846 4.61719 18.9688C4.61225 18.9595 4.60814 18.9498 4.60352 18.9404C4.53801 18.8074 4.50003 18.6583 4.5 18.5V9.5C4.5 8.94772 4.94772 8.5 5.5 8.5C6.05228 8.5 6.5 8.94772 6.5 9.5V16.085L17.5205 5.06445Z" fill="#9E9E9E"/>
</g>
</svg>
