<svg width="24" height="24" viewBox="0 0 24 24" fill="none" xmlns="http://www.w3.org/2000/svg">
<g id="icons/Arrows/arrow-circle-down">
<path id="Union" d="M12 1C18.0751 1 23 5.92487 23 12C23 18.0751 18.0751 23 12 23C5.92487 23 1 18.0751 1 12C1 5.92487 5.92487 1 12 1ZM12 3C7.02943 3 3 7.02943 3 12C3 16.9706 7.02943 21 12 21C16.9706 21 21 16.9706 21 12C21 7.02943 16.9706 3 12 3ZM12 6.5C12.5523 6.5 13 6.94772 13 7.5V14.0859L15.793 11.293C16.1835 10.9024 16.8165 10.9024 17.207 11.293C17.5976 11.6835 17.5976 12.3165 17.207 12.707L12.707 17.207C12.6592 17.2548 12.6065 17.2976 12.5498 17.335C12.5121 17.3599 12.4727 17.3811 12.4326 17.4004C12.3874 17.4222 12.3407 17.4412 12.292 17.4561C12.2717 17.4622 12.251 17.4668 12.2305 17.4717C12.2191 17.4744 12.2078 17.4772 12.1963 17.4795C12.1859 17.4816 12.1754 17.4826 12.165 17.4844C12.1112 17.4933 12.0563 17.5 12 17.5C11.9433 17.5 11.8881 17.4934 11.834 17.4844C11.8236 17.4826 11.8131 17.4816 11.8027 17.4795C11.7912 17.4772 11.7799 17.4744 11.7686 17.4717C11.748 17.4668 11.7273 17.4623 11.707 17.4561C11.6584 17.4412 11.6116 17.4222 11.5664 17.4004C11.5266 17.3812 11.4877 17.3597 11.4502 17.335C11.3935 17.2976 11.3408 17.2548 11.293 17.207L6.79297 12.707C6.40244 12.3165 6.40244 11.6835 6.79297 11.293C7.18349 10.9024 7.81651 10.9024 8.20703 11.293L11 14.0859V7.5C11 6.94772 11.4477 6.5 12 6.5Z" fill="#9E9E9E"/>
</g>
</svg>
