<svg width="24" height="24" viewBox="0 0 24 24" fill="none" xmlns="http://www.w3.org/2000/svg">
<g id="icons/Arrows/arrow-up">
<path id="Union" d="M12.0206 2.00098C12.0382 2.00133 12.0558 2.00165 12.0734 2.00293C12.1223 2.00648 12.1702 2.01407 12.2169 2.02441C12.228 2.02687 12.2391 2.02939 12.2501 2.03223C12.3174 2.04956 12.3815 2.07429 12.4425 2.10449C12.5378 2.15158 12.6278 2.21362 12.7072 2.29297L18.7072 8.29297C19.0976 8.68348 19.0976 9.31652 18.7072 9.70703C18.3166 10.0975 17.6836 10.0975 17.2931 9.70703L13.0001 5.41406V21C13.0001 21.5523 12.5524 22 12.0001 22C11.4478 22 11.0001 21.5523 11.0001 21V5.41406L6.70715 9.70703C6.31664 10.0975 5.68362 10.0975 5.29309 9.70703C4.90257 9.31651 4.90257 8.68349 5.29309 8.29297L11.2931 2.29297C11.3503 2.2358 11.4149 2.18656 11.4845 2.14453C11.5044 2.13248 11.5245 2.12088 11.545 2.11035C11.6074 2.07841 11.6732 2.05256 11.7423 2.03418C11.7589 2.02977 11.7754 2.02503 11.7921 2.02148C11.8031 2.01917 11.8142 2.01758 11.8253 2.01562C11.8428 2.01252 11.8604 2.00998 11.8781 2.00781C11.8958 2.00565 11.9137 2.00415 11.9318 2.00293C11.9477 2.00184 11.9636 2.00131 11.9796 2.00098C11.9864 2.00084 11.9933 2 12.0001 2C12.007 2 12.0138 2.00084 12.0206 2.00098Z" fill="#9E9E9E"/>
</g>
</svg>
