<svg width="24" height="24" viewBox="0 0 24 24" fill="none" xmlns="http://www.w3.org/2000/svg">
<g id="icons/Arrows/arrow-left">
<path id="Union" d="M8.19238 5.29297C8.58291 4.90245 9.21592 4.90245 9.60645 5.29297C9.99692 5.68349 9.99695 6.31652 9.60645 6.70703L5.31348 11H20.8994L21.002 11.0049C21.5061 11.0562 21.8994 11.4823 21.8994 12C21.8994 12.5176 21.5061 12.9438 21.002 12.9951L20.8994 13H5.31348L9.60645 17.293C9.99692 17.6835 9.99695 18.3165 9.60645 18.707C9.21593 19.0975 8.5829 19.0975 8.19238 18.707L2.19238 12.707C2.14572 12.6604 2.10413 12.6088 2.06738 12.5537C2.04137 12.5147 2.01897 12.4741 1.99902 12.4326C1.97708 12.387 1.9573 12.3401 1.94238 12.291C1.93731 12.2743 1.93386 12.2572 1.92969 12.2402C1.91066 12.1632 1.89942 12.0829 1.89941 12C1.89941 11.903 1.91371 11.8094 1.93945 11.7207C1.94075 11.7162 1.94103 11.7115 1.94238 11.707C1.95728 11.6583 1.97719 11.6117 1.99902 11.5664C2.01819 11.5266 2.03971 11.4877 2.06445 11.4502C2.10183 11.3935 2.14458 11.3408 2.19238 11.293L8.19238 5.29297Z" fill="#9E9E9E"/>
</g>
</svg>
