<svg width="24" height="24" viewBox="0 0 24 24" fill="none" xmlns="http://www.w3.org/2000/svg">
<g id="icons/Arrows/arrow-right">
<path id="Union" d="M14.293 5.29297C14.6835 4.90244 15.3165 4.90244 15.707 5.29297L21.707 11.293C21.7548 11.3408 21.7976 11.3935 21.835 11.4502C21.8597 11.4877 21.8812 11.5266 21.9004 11.5664C21.9222 11.6116 21.9412 11.6584 21.9561 11.707C21.9623 11.7273 21.9668 11.748 21.9717 11.7686C21.9893 11.8429 22 11.9202 22 12C22 12.083 21.9878 12.1631 21.9688 12.2402C21.9646 12.2572 21.9611 12.2743 21.9561 12.291C21.9412 12.34 21.9223 12.3871 21.9004 12.4326C21.8804 12.4743 21.8572 12.5146 21.8311 12.5537C21.8185 12.5726 21.8048 12.5905 21.791 12.6084C21.7649 12.6422 21.738 12.676 21.707 12.707L15.707 18.707C15.3165 19.0975 14.6835 19.0975 14.293 18.707C13.9025 18.3165 13.9025 17.6835 14.293 17.293L18.5859 13H3C2.44774 13 2.00004 12.5522 2 12C2 11.4477 2.44772 11 3 11H18.5859L14.293 6.70703C13.9025 6.31652 13.9025 5.6835 14.293 5.29297Z" fill="#9E9E9E"/>
</g>
</svg>
