<svg width="24" height="24" viewBox="0 0 24 24" fill="none" xmlns="http://www.w3.org/2000/svg">
<g id="icons/Arrows/arrow-left-up">
<path id="Union" d="M14.5 4.5C15.0523 4.5 15.5 4.94772 15.5 5.5C15.5 6.05228 15.0523 6.5 14.5 6.5H7.91406L18.9346 17.5205C19.3251 17.911 19.3251 18.544 18.9346 18.9346C18.544 19.3251 17.911 19.3251 17.5205 18.9346L6.5 7.91406V14.5C6.5 15.0523 6.05228 15.5 5.5 15.5C4.94772 15.5 4.5 15.0523 4.5 14.5V5.5C4.5 5.4203 4.50973 5.34287 4.52734 5.26855C4.53221 5.248 4.53678 5.2273 4.54297 5.20703C4.55787 5.15828 4.57777 5.11167 4.59961 5.06641C4.61877 5.02662 4.6403 4.98768 4.66504 4.9502C4.7557 4.81279 4.87904 4.69886 5.02441 4.62012C5.03816 4.61268 5.0524 4.60635 5.06641 4.59961C5.11167 4.57777 5.15828 4.55787 5.20703 4.54297C5.2273 4.53678 5.248 4.53221 5.26855 4.52734C5.2799 4.52465 5.29124 4.52183 5.30273 4.51953C5.30468 4.51914 5.30665 4.51893 5.30859 4.51855L5.39746 4.50488C5.43116 4.50145 5.46539 4.5 5.5 4.5H14.5Z" fill="#9E9E9E"/>
</g>
</svg>
