<svg width="24" height="24" viewBox="0 0 24 24" fill="none" xmlns="http://www.w3.org/2000/svg">
<g id="icons/Arrows/arrow-down">
<path id="Union" d="M12.0001 2C12.5524 2.00004 13.0001 2.44774 13.0001 3V18.5859L17.2931 14.293C17.6836 13.9025 18.3166 13.9025 18.7072 14.293C19.0976 14.6835 19.0976 15.3165 18.7072 15.707L12.7072 21.707C12.6606 21.7536 12.6088 21.7944 12.5538 21.8311C12.5147 21.8572 12.4744 21.8804 12.4327 21.9004C12.3872 21.9223 12.3401 21.9412 12.2911 21.9561C12.2744 21.9611 12.2573 21.9646 12.2404 21.9688C12.2248 21.9726 12.2094 21.9774 12.1935 21.9805C12.1864 21.9819 12.1791 21.9822 12.172 21.9834C12.1161 21.9931 12.0588 22 12.0001 22C11.9435 22 11.8882 21.9934 11.8341 21.9844C11.8237 21.9826 11.8132 21.9816 11.8029 21.9795C11.7914 21.9772 11.78 21.9744 11.7687 21.9717C11.7481 21.9668 11.7274 21.9623 11.7072 21.9561C11.6585 21.9412 11.6117 21.9222 11.5665 21.9004C11.5267 21.8812 11.4878 21.8597 11.4503 21.835C11.3937 21.7976 11.3409 21.7548 11.2931 21.707L5.29309 15.707C4.90257 15.3165 4.90257 14.6835 5.29309 14.293C5.68362 13.9025 6.31664 13.9025 6.70715 14.293L11.0001 18.5859V3C11.0001 2.44772 11.4478 2 12.0001 2Z" fill="#9E9E9E"/>
</g>
</svg>
