<svg width="24" height="24" viewBox="0 0 24 24" fill="none" xmlns="http://www.w3.org/2000/svg">
<g id="icons/Arrows/arrow-right-up">
<path id="Union" d="M18.5001 4.5C18.5622 4.50001 18.6229 4.50578 18.6818 4.5166C18.6847 4.51715 18.6876 4.51798 18.6906 4.51855C18.7787 4.53558 18.8623 4.56497 18.9406 4.60352C18.9499 4.60814 18.9596 4.61225 18.9689 4.61719C19.2847 4.78529 19.5001 5.11728 19.5001 5.5V14.5C19.5001 15.0522 19.0523 15.4999 18.5001 15.5C17.9478 15.5 17.5001 15.0523 17.5001 14.5V7.91309L6.47864 18.9346C6.08814 19.3251 5.45511 19.325 5.06458 18.9346C4.67426 18.544 4.67412 17.911 5.06458 17.5205L16.0851 6.5H9.50012C8.94784 6.5 8.50012 6.05228 8.50012 5.5C8.50012 4.94772 8.94784 4.5 9.50012 4.5H18.5001Z" fill="#9E9E9E"/>
</g>
</svg>
