<svg width="24" height="24" viewBox="0 0 24 24" fill="none" xmlns="http://www.w3.org/2000/svg">
<g id="icons/Arrows/arrow-circle-left">
<path id="Union" d="M12 1C18.0751 1 23 5.92487 23 12C23 18.0751 18.0751 23 12 23C5.92487 23 1 18.0751 1 12C1 5.92487 5.92487 1 12 1ZM12 3C7.02943 3 3 7.02943 3 12C3 16.9706 7.02943 21 12 21C16.9706 21 21 16.9706 21 12C21 7.02943 16.9706 3 12 3ZM11.0391 7.04297C11.4296 6.65257 12.0626 6.65249 12.4531 7.04297C12.8435 7.43346 12.8435 8.06654 12.4531 8.45703L9.66016 11.25H16.2461C16.7983 11.2501 17.2461 11.6978 17.2461 12.25C17.2461 12.8022 16.7983 13.2499 16.2461 13.25H9.66016L12.4531 16.043C12.8435 16.4335 12.8435 17.0665 12.4531 17.457C12.0626 17.8475 11.4296 17.8474 11.0391 17.457L6.53906 12.957C6.50373 12.9217 6.4723 12.8837 6.44336 12.8447C6.3761 12.7541 6.32274 12.6525 6.28906 12.542C6.27638 12.5003 6.26786 12.4577 6.26074 12.415C6.2518 12.3613 6.24609 12.3063 6.24609 12.25C6.24609 12.1703 6.25581 12.0929 6.27344 12.0186C6.27831 11.998 6.28287 11.9773 6.28906 11.957C6.32283 11.8466 6.37605 11.7448 6.44336 11.6543C6.47218 11.6156 6.50392 11.5781 6.53906 11.543L11.0391 7.04297Z" fill="#9E9E9E"/>
</g>
</svg>
