<svg width="24" height="24" viewBox="0 0 24 24" fill="none" xmlns="http://www.w3.org/2000/svg">
<g id="icons/Arrows/arrow-circle-up">
<path id="Union" d="M12 1C18.0751 1 23 5.92487 23 12C23 18.0751 18.0751 23 12 23C5.92487 23 1 18.0751 1 12C1 5.92487 5.92487 1 12 1ZM12 3C7.02943 3 3 7.02943 3 12C3 16.9706 7.02943 21 12 21C16.9706 21 21 16.9706 21 12C21 7.02943 16.9706 3 12 3ZM12.0205 6.75098C12.0381 6.75133 12.0557 6.75165 12.0732 6.75293C12.1225 6.7565 12.1707 6.76396 12.2178 6.77441C12.2269 6.77645 12.236 6.77895 12.2451 6.78125C12.3141 6.79866 12.3799 6.82357 12.4424 6.85449C12.4746 6.87042 12.5064 6.88761 12.5371 6.90723C12.5714 6.92913 12.6045 6.95271 12.6357 6.97852C12.6602 6.99873 12.6841 7.02007 12.707 7.04297L17.207 11.543C17.5976 11.9335 17.5976 12.5665 17.207 12.957C16.8165 13.3476 16.1835 13.3476 15.793 12.957L13 10.1641V16.75C13 17.3023 12.5523 17.75 12 17.75C11.4477 17.75 11 17.3023 11 16.75V10.1641L8.20703 12.957C7.81651 13.3476 7.18349 13.3476 6.79297 12.957C6.40244 12.5665 6.40244 11.9335 6.79297 11.543L11.293 7.04297C11.3548 6.98117 11.4248 6.92778 11.501 6.88379C11.5154 6.87546 11.5302 6.8679 11.5449 6.86035C11.6073 6.8284 11.6731 6.80257 11.7422 6.78418C11.7588 6.77976 11.7753 6.77503 11.792 6.77148C11.803 6.76916 11.8141 6.76758 11.8252 6.76562C11.8427 6.76252 11.8603 6.75998 11.8779 6.75781C11.8957 6.75565 11.9136 6.75415 11.9316 6.75293C11.9476 6.75184 11.9635 6.75131 11.9795 6.75098C11.9863 6.75084 11.9931 6.75 12 6.75C12.0069 6.75 12.0137 6.75084 12.0205 6.75098Z" fill="#9E9E9E"/>
</g>
</svg>
