<svg width="24" height="24" viewBox="0 0 24 24" fill="none" xmlns="http://www.w3.org/2000/svg">
<g id="icons/Arrows/arrow-circle-right">
<path id="Union" d="M12 1C18.0751 1 23 5.92487 23 12C23 18.0751 18.0751 23 12 23C5.92487 23 1 18.0751 1 12C1 5.92487 5.92487 1 12 1ZM12 3C7.02943 3 3 7.02943 3 12C3 16.9706 7.02943 21 12 21C16.9706 21 21 16.9706 21 12C21 7.02943 16.9706 3 12 3ZM11.0391 7.04297C11.4296 6.65244 12.0626 6.65244 12.4531 7.04297L16.9531 11.543C17.0009 11.5908 17.0437 11.6435 17.0811 11.7002C17.1262 11.7686 17.1609 11.8417 17.1875 11.917C17.1922 11.9304 17.198 11.9434 17.2021 11.957C17.2603 12.1474 17.2601 12.3516 17.2021 12.542C17.1997 12.5502 17.197 12.5583 17.1943 12.5664C17.1762 12.6208 17.1527 12.6734 17.125 12.7246C17.0971 12.7762 17.0645 12.8245 17.0283 12.8701C17.0047 12.8998 16.9806 12.9296 16.9531 12.957L12.4531 17.457C12.0626 17.8476 11.4296 17.8476 11.0391 17.457C10.6485 17.0665 10.6485 16.4335 11.0391 16.043L13.832 13.25H7.24609C6.69381 13.25 6.24609 12.8023 6.24609 12.25C6.24609 11.6977 6.69381 11.25 7.24609 11.25H13.832L11.0391 8.45703C10.6485 8.06651 10.6485 7.43349 11.0391 7.04297Z" fill="#9E9E9E"/>
</g>
</svg>
