<svg width="24" height="24" viewBox="0 0 24 24" fill="none" xmlns="http://www.w3.org/2000/svg">
<g id="icons/Arrows/back-one">
<path id="Union" d="M13.5002 6.5C18.7999 6.50016 23.0002 11.0319 23.0002 16.5C23.0002 17.0522 22.5524 17.4998 22.0002 17.5C21.448 17.5 21.0002 17.0523 21.0002 16.5C21.0002 12.0272 17.5892 8.50016 13.5002 8.5C12.4067 8.5 11.3684 8.74964 10.4319 9.19824C8.37145 10.1855 6.78758 12.1476 6.22388 14.5547L8.46997 13.1523C8.93817 12.8599 9.55514 13.0017 9.8479 13.4697C10.1404 13.9379 9.99837 14.5548 9.53052 14.8477L5.53052 17.3477C5.52155 17.3533 5.51127 17.357 5.5022 17.3623C5.48758 17.3708 5.47333 17.3799 5.45825 17.3877C5.4489 17.3925 5.43937 17.3969 5.42993 17.4014C5.38291 17.4238 5.33419 17.443 5.28345 17.458C5.26695 17.4629 5.25028 17.4667 5.23364 17.4707C5.21809 17.4744 5.2026 17.4785 5.18677 17.4814C5.1738 17.4839 5.16072 17.4854 5.14771 17.4873C5.12956 17.49 5.11147 17.4934 5.09302 17.4951C5.06731 17.4975 5.04159 17.4986 5.01587 17.499C5.01067 17.4991 5.00547 17.5 5.00024 17.5L4.99927 17.499C4.99373 17.499 4.9882 17.4991 4.98267 17.499C4.86659 17.4971 4.75581 17.4748 4.65259 17.4365C4.64708 17.4345 4.64146 17.4328 4.63599 17.4307C4.61363 17.4219 4.5921 17.4116 4.57056 17.4014C4.56201 17.3973 4.55361 17.393 4.54517 17.3887C4.52995 17.3809 4.515 17.3728 4.50024 17.3643C4.4871 17.3567 4.47401 17.349 4.46118 17.3408C4.44771 17.3322 4.43417 17.3237 4.42114 17.3145C4.40716 17.3045 4.39365 17.2939 4.38013 17.2832C4.36959 17.2749 4.35906 17.2666 4.34888 17.2578C4.33494 17.2458 4.32121 17.2335 4.30786 17.2207C4.29706 17.2103 4.28694 17.1993 4.27661 17.1885C4.26695 17.1783 4.25758 17.1679 4.24829 17.1572C4.23549 17.1426 4.22313 17.1277 4.21118 17.1123C4.20779 17.1079 4.20377 17.104 4.20044 17.0996L1.20044 13.0996C0.869207 12.6578 0.958859 12.0315 1.40063 11.7002C1.84244 11.3691 2.46876 11.4587 2.80005 11.9004L4.31763 13.9248C5.05044 11.0231 6.9944 8.62768 9.5686 7.39453C10.7666 6.82072 12.0986 6.5 13.5002 6.5Z" fill="#9E9E9E"/>
</g>
</svg>
