<svg width="24" height="24" viewBox="0 0 24 24" fill="none" xmlns="http://www.w3.org/2000/svg">
<g id="icons/Arrows/change">
<path id="Union" d="M15.0001 9.5C15.5524 9.50004 16.0001 9.94774 16.0001 10.5C16.0001 11.0523 15.5524 11.5 15.0001 11.5H6.00012V19.0859L7.29309 17.793C7.68362 17.4025 8.31664 17.4025 8.70715 17.793C9.09763 18.1835 9.09763 18.8165 8.70715 19.207L5.70715 22.207C5.66062 22.2536 5.60876 22.2944 5.55383 22.3311C5.5147 22.3572 5.4744 22.3804 5.43274 22.4004C5.38725 22.4223 5.34014 22.4412 5.29114 22.4561C5.2744 22.4611 5.25729 22.4646 5.24036 22.4688C5.22476 22.4726 5.20936 22.4774 5.19348 22.4805C5.18639 22.4819 5.17912 22.4822 5.172 22.4834C5.11606 22.4931 5.05884 22.5 5.00012 22.5C4.94348 22.5 4.88818 22.4934 4.83411 22.4844C4.8237 22.4826 4.81321 22.4816 4.80286 22.4795C4.79135 22.4772 4.78003 22.4744 4.76868 22.4717C4.74811 22.4668 4.72744 22.4623 4.70715 22.4561C4.6585 22.4412 4.61172 22.4222 4.56653 22.4004C4.52674 22.3812 4.48781 22.3597 4.45032 22.335C4.39366 22.2976 4.3409 22.2548 4.29309 22.207L1.29309 19.207C0.902567 18.8165 0.902567 18.1835 1.29309 17.793C1.68362 17.4025 2.31664 17.4025 2.70715 17.793L4.00012 19.0859V10.5C4.00012 9.94771 4.44784 9.5 5.00012 9.5H15.0001ZM19.0206 1.50098C19.0382 1.50133 19.0558 1.50165 19.0734 1.50293C19.1223 1.50648 19.1702 1.51407 19.2169 1.52441C19.228 1.52687 19.2391 1.52939 19.2501 1.53223C19.3174 1.54956 19.3815 1.57429 19.4425 1.60449C19.5378 1.65158 19.6278 1.71362 19.7072 1.79297L22.7072 4.79297C23.0976 5.18348 23.0976 5.81652 22.7072 6.20703C22.3166 6.59754 21.6836 6.59752 21.2931 6.20703L20.0001 4.91406V15.5C20.0001 16.0523 19.5524 16.5 19.0001 16.5H9.00012C8.44784 16.5 8.00012 16.0523 8.00012 15.5C8.00012 14.9477 8.44784 14.5 9.00012 14.5H18.0001V4.91406L16.7072 6.20703C16.3166 6.59754 15.6836 6.59752 15.2931 6.20703C14.9026 5.81651 14.9026 5.18349 15.2931 4.79297L18.2931 1.79297C18.3503 1.7358 18.4149 1.68656 18.4845 1.64453C18.5044 1.63248 18.5245 1.62088 18.545 1.61035C18.6074 1.57841 18.6732 1.55256 18.7423 1.53418C18.7589 1.52977 18.7754 1.52503 18.7921 1.52148C18.8031 1.51917 18.8142 1.51758 18.8253 1.51562C18.8428 1.51252 18.8604 1.50998 18.8781 1.50781C18.8958 1.50565 18.9137 1.50415 18.9318 1.50293C18.9477 1.50184 18.9636 1.50131 18.9796 1.50098C18.9864 1.50084 18.9933 1.5 19.0001 1.5C19.007 1.5 19.0138 1.50084 19.0206 1.50098Z" fill="#9E9E9E"/>
</g>
</svg>
