<svg width="24" height="24" viewBox="0 0 24 24" fill="none" xmlns="http://www.w3.org/2000/svg">
<g id="icons/Arrows/circle-right-down">
<path id="Union" d="M12 1C18.0751 1 23 5.92487 23 12C23 18.0751 18.0751 23 12 23C5.92487 23 1 18.0751 1 12C1 5.92487 5.92487 1 12 1ZM12 3C7.02943 3 3 7.02943 3 12C3 16.9706 7.02943 21 12 21C16.9706 21 21 16.9706 21 12C21 7.02943 16.9706 3 12 3ZM7.79297 7.79297C8.18349 7.40244 8.81651 7.40244 9.20703 7.79297L14.5 13.0859V9.5C14.5 8.94772 14.9477 8.5 15.5 8.5C16.0523 8.5 16.5 8.94772 16.5 9.5V15.5C16.5 15.5563 16.4933 15.6112 16.4844 15.665C16.4772 15.7078 16.4688 15.7503 16.4561 15.792C16.4412 15.8407 16.4222 15.8874 16.4004 15.9326C16.3936 15.9468 16.3864 15.9607 16.3789 15.9746C16.3002 16.1201 16.1873 16.2442 16.0498 16.335C16.0121 16.3599 15.9727 16.3811 15.9326 16.4004C15.8874 16.4222 15.8407 16.4412 15.792 16.4561C15.7717 16.4622 15.751 16.4668 15.7305 16.4717C15.7191 16.4744 15.7078 16.4772 15.6963 16.4795C15.6859 16.4816 15.6754 16.4826 15.665 16.4844C15.6112 16.4933 15.5563 16.5 15.5 16.5H9.5C8.94772 16.5 8.5 16.0523 8.5 15.5C8.5 14.9477 8.94772 14.5 9.5 14.5H13.0859L7.79297 9.20703C7.40244 8.81651 7.40244 8.18349 7.79297 7.79297Z" fill="#9E9E9E"/>
</g>
</svg>
