<svg width="24" height="24" viewBox="0 0 24 24" fill="none" xmlns="http://www.w3.org/2000/svg">
<g id="icons/Arrows/circle-double-up">
<path id="Union" d="M12 1C18.0751 1 23 5.92487 23 12C23 18.0751 18.0751 23 12 23C5.92487 23 1 18.0751 1 12C1 5.92487 5.92487 1 12 1ZM12 3C7.02943 3 3 7.02943 3 12C3 16.9706 7.02943 21 12 21C16.9706 21 21 16.9706 21 12C21 7.02943 16.9706 3 12 3ZM11.3691 11.2246C11.7619 10.9043 12.3409 10.9269 12.707 11.293L16.207 14.793C16.5976 15.1835 16.5976 15.8165 16.207 16.207C15.8165 16.5976 15.1835 16.5976 14.793 16.207L12 13.4141L9.20703 16.207C8.81651 16.5976 8.18349 16.5976 7.79297 16.207C7.40244 15.8165 7.40244 15.1835 7.79297 14.793L11.293 11.293L11.3691 11.2246ZM11.3691 6.72461C11.7619 6.40426 12.3409 6.42685 12.707 6.79297L16.207 10.293C16.5976 10.6835 16.5976 11.3165 16.207 11.707C15.8165 12.0976 15.1835 12.0976 14.793 11.707L12 8.91406L9.20703 11.707C8.81651 12.0976 8.18349 12.0976 7.79297 11.707C7.40244 11.3165 7.40244 10.6835 7.79297 10.293L11.293 6.79297L11.3691 6.72461Z" fill="#9E9E9E"/>
</g>
</svg>
