<svg width="24" height="24" viewBox="0 0 24 24" fill="none" xmlns="http://www.w3.org/2000/svg">
<g id="icons/Arrows/circle-right-up">
<path id="Union" d="M12 1C18.0751 1 23 5.92487 23 12C23 18.0751 18.0751 23 12 23C5.92487 23 1 18.0751 1 12C1 5.92487 5.92487 1 12 1ZM12 3C7.02943 3 3 7.02943 3 12C3 16.9706 7.02943 21 12 21C16.9706 21 21 16.9706 21 12C21 7.02943 16.9706 3 12 3ZM15.5 7.5C15.5563 7.5 15.6113 7.50571 15.665 7.51465C15.6738 7.51611 15.6827 7.51686 15.6914 7.51855L15.7012 7.52051C15.711 7.52252 15.7207 7.52504 15.7305 7.52734C15.751 7.5322 15.7717 7.5368 15.792 7.54297C15.8408 7.55783 15.8873 7.5778 15.9326 7.59961C15.9466 7.60635 15.9609 7.61269 15.9746 7.62012C16.1203 7.69887 16.2441 7.81255 16.335 7.9502C16.3597 7.98768 16.3812 8.02662 16.4004 8.06641C16.4222 8.11159 16.4412 8.15838 16.4561 8.20703C16.4623 8.22732 16.4668 8.24799 16.4717 8.26855C16.4893 8.34294 16.5 8.42022 16.5 8.5V14.5C16.5 15.0523 16.0523 15.5 15.5 15.5C14.9477 15.5 14.5 15.0523 14.5 14.5V10.9141L9.20703 16.207C8.81651 16.5976 8.18349 16.5976 7.79297 16.207C7.40244 15.8165 7.40244 15.1835 7.79297 14.793L13.0859 9.5H9.5C8.94772 9.5 8.5 9.05229 8.5 8.5C8.5 7.94772 8.94772 7.5 9.5 7.5H15.5Z" fill="#9E9E9E"/>
</g>
</svg>
