<svg width="24" height="24" viewBox="0 0 24 24" fill="none" xmlns="http://www.w3.org/2000/svg">
<g id="icons/Arrows/circle-double-left">
<path id="Union" d="M12 1C18.0751 1 23 5.92487 23 12C23 18.0751 18.0751 23 12 23C5.92487 23 1 18.0751 1 12C1 5.92487 5.92487 1 12 1ZM12 3C7.02943 3 3 7.02943 3 12C3 16.9706 7.02943 21 12 21C16.9706 21 21 16.9706 21 12C21 7.02943 16.9706 3 12 3ZM10.293 7.79297C10.6835 7.40244 11.3165 7.40244 11.707 7.79297C12.0976 8.18349 12.0976 8.81651 11.707 9.20703L8.91406 12L11.707 14.793C12.0976 15.1835 12.0976 15.8165 11.707 16.207C11.3165 16.5976 10.6835 16.5976 10.293 16.207L6.79297 12.707C6.40244 12.3165 6.40244 11.6835 6.79297 11.293L10.293 7.79297ZM14.793 7.79297C15.1835 7.40244 15.8165 7.40244 16.207 7.79297C16.5976 8.18349 16.5976 8.81651 16.207 9.20703L13.4141 12L16.207 14.793C16.5976 15.1835 16.5976 15.8165 16.207 16.207C15.8165 16.5976 15.1835 16.5976 14.793 16.207L11.293 12.707C10.9024 12.3165 10.9024 11.6835 11.293 11.293L14.793 7.79297Z" fill="#9E9E9E"/>
</g>
</svg>
