<svg width="24" height="24" viewBox="0 0 24 24" fill="none" xmlns="http://www.w3.org/2000/svg">
<g id="icons/Arrows/circle-left-up">
<path id="Union" d="M12 1C18.0751 1 23 5.92487 23 12C23 18.0751 18.0751 23 12 23C5.92487 23 1 18.0751 1 12C1 5.92487 5.92487 1 12 1ZM12 3C7.02943 3 3 7.02943 3 12C3 16.9706 7.02943 21 12 21C16.9706 21 21 16.9706 21 12C21 7.02943 16.9706 3 12 3ZM14.5 7.5C15.0523 7.5 15.5 7.94772 15.5 8.5C15.5 9.05229 15.0523 9.5 14.5 9.5H10.9141L16.207 14.793C16.5976 15.1835 16.5976 15.8165 16.207 16.207C15.8165 16.5976 15.1835 16.5976 14.793 16.207L9.5 10.9141V14.5C9.5 15.0523 9.05229 15.5 8.5 15.5C7.94772 15.5 7.5 15.0523 7.5 14.5V8.5C7.5 8.4203 7.50973 8.34287 7.52734 8.26855C7.53221 8.248 7.53678 8.2273 7.54297 8.20703C7.55787 8.15828 7.57777 8.11167 7.59961 8.06641C7.61877 8.02662 7.6403 7.98768 7.66504 7.9502C7.7557 7.81279 7.87904 7.69886 8.02441 7.62012C8.03816 7.61268 8.0524 7.60635 8.06641 7.59961C8.11167 7.57777 8.15828 7.55787 8.20703 7.54297C8.2273 7.53678 8.248 7.53221 8.26855 7.52734C8.2799 7.52465 8.29124 7.52183 8.30273 7.51953C8.30468 7.51914 8.30665 7.51893 8.30859 7.51855L8.39746 7.50488C8.43116 7.50145 8.46539 7.5 8.5 7.5H14.5Z" fill="#9E9E9E"/>
</g>
</svg>
