<svg width="24" height="24" viewBox="0 0 24 24" fill="none" xmlns="http://www.w3.org/2000/svg">
<g id="icons/Arrows/circle-double-down">
<path id="Union" d="M12 1C18.0751 1 23 5.92487 23 12C23 18.0751 18.0751 23 12 23C5.92487 23 1 18.0751 1 12C1 5.92487 5.92487 1 12 1ZM12 3C7.02943 3 3 7.02943 3 12C3 16.9706 7.02943 21 12 21C16.9706 21 21 16.9706 21 12C21 7.02943 16.9706 3 12 3ZM14.793 12.293C15.1835 11.9024 15.8165 11.9024 16.207 12.293C16.5976 12.6835 16.5976 13.3165 16.207 13.707L12.707 17.207C12.3165 17.5976 11.6835 17.5976 11.293 17.207L7.79297 13.707C7.40244 13.3165 7.40244 12.6835 7.79297 12.293C8.18349 11.9024 8.81651 11.9024 9.20703 12.293L12 15.0859L14.793 12.293ZM14.793 7.79297C15.1835 7.40244 15.8165 7.40244 16.207 7.79297C16.5976 8.18349 16.5976 8.81651 16.207 9.20703L12.707 12.707C12.3165 13.0976 11.6835 13.0976 11.293 12.707L7.79297 9.20703C7.40244 8.81651 7.40244 8.18349 7.79297 7.79297C8.18349 7.40244 8.81651 7.40244 9.20703 7.79297L12 10.5859L14.793 7.79297Z" fill="#9E9E9E"/>
</g>
</svg>
