<svg width="24" height="24" viewBox="0 0 24 24" fill="none" xmlns="http://www.w3.org/2000/svg">
<g id="icons/Arrows/circle-double-right">
<path id="Union" d="M12 1C18.0751 1 23 5.92487 23 12C23 18.0751 18.0751 23 12 23C5.92487 23 1 18.0751 1 12C1 5.92487 5.92487 1 12 1ZM12 3C7.02943 3 3 7.02943 3 12C3 16.9706 7.02943 21 12 21C16.9706 21 21 16.9706 21 12C21 7.02943 16.9706 3 12 3ZM7.79297 7.79297C8.18349 7.40244 8.81651 7.40244 9.20703 7.79297L12.707 11.293C13.0976 11.6835 13.0976 12.3165 12.707 12.707L9.20703 16.207C8.81651 16.5976 8.18349 16.5976 7.79297 16.207C7.40244 15.8165 7.40244 15.1835 7.79297 14.793L10.5859 12L7.79297 9.20703C7.40244 8.81651 7.40244 8.18349 7.79297 7.79297ZM12.293 7.79297C12.6835 7.40244 13.3165 7.40244 13.707 7.79297L17.207 11.293C17.5976 11.6835 17.5976 12.3165 17.207 12.707L13.707 16.207C13.3165 16.5976 12.6835 16.5976 12.293 16.207C11.9024 15.8165 11.9024 15.1835 12.293 14.793L15.0859 12L12.293 9.20703C11.9024 8.81651 11.9024 8.18349 12.293 7.79297Z" fill="#9E9E9E"/>
</g>
</svg>
