<svg width="24" height="24" viewBox="0 0 24 24" fill="none" xmlns="http://www.w3.org/2000/svg">
<g id="icons/Arrows/circle-left-down">
<path id="Union" d="M12 1C18.0751 1 23 5.92487 23 12C23 18.0751 18.0751 23 12 23C5.92487 23 1 18.0751 1 12C1 5.92487 5.92487 1 12 1ZM12 3C7.02943 3 3 7.02943 3 12C3 16.9706 7.02943 21 12 21C16.9706 21 21 16.9706 21 12C21 7.02943 16.9706 3 12 3ZM14.793 7.79297C15.1835 7.40244 15.8165 7.40244 16.207 7.79297C16.5976 8.18349 16.5976 8.81651 16.207 9.20703L10.9141 14.5H14.5C15.0523 14.5 15.5 14.9477 15.5 15.5C15.5 16.0523 15.0523 16.5 14.5 16.5H8.5C8.44333 16.5 8.38808 16.4934 8.33398 16.4844C8.32358 16.4826 8.31309 16.4816 8.30273 16.4795C8.29123 16.4772 8.27991 16.4744 8.26855 16.4717C8.24799 16.4668 8.22732 16.4623 8.20703 16.4561C8.15838 16.4412 8.11159 16.4222 8.06641 16.4004C8.02662 16.3812 7.98768 16.3597 7.9502 16.335C7.81255 16.2441 7.69887 16.1203 7.62012 15.9746C7.61269 15.9609 7.60635 15.9466 7.59961 15.9326C7.5778 15.8873 7.55783 15.8408 7.54297 15.792C7.5303 15.7503 7.52176 15.7077 7.51465 15.665C7.50571 15.6113 7.5 15.5563 7.5 15.5V9.5C7.5 8.94772 7.94772 8.5 8.5 8.5C9.05229 8.5 9.5 8.94772 9.5 9.5V13.0859L14.793 7.79297Z" fill="#9E9E9E"/>
</g>
</svg>
