<svg width="24" height="24" viewBox="0 0 24 24" fill="none" xmlns="http://www.w3.org/2000/svg">
<g id="icons/Arrows/connection-arrow">
<path id="Union" d="M18.3223 1.26172C18.7171 0.875559 19.3501 0.88258 19.7363 1.27734L21.7256 3.31055C22.11 3.70359 22.1054 4.33378 21.7148 4.7207L19.7256 6.69043C19.3332 7.07905 18.7002 7.07588 18.3115 6.68359C17.9229 6.29125 17.9251 5.65821 18.3174 5.26953L18.5752 5.01367H6.09082C5.55645 5.01369 4.74824 5.17044 4.10449 5.61719C3.51482 6.02649 3 6.71594 3 7.98438C3.0001 9.25392 3.51618 9.95768 4.11133 10.3789C4.75827 10.8367 5.56635 11 6.09082 11H17.9971C18.8331 11 20.0534 11.2334 21.0938 11.9814C22.1857 12.7667 23 14.0676 23 15.9932C22.9999 17.9179 22.1864 19.2216 21.0967 20.0107C20.0576 20.7632 18.8368 21.0019 17.9971 21.002H4.43652L4.72656 21.2891C5.1188 21.6777 5.12103 22.3108 4.73242 22.7031C4.34375 23.0954 3.71072 23.0986 3.31836 22.71L1.3291 20.7402C0.938491 20.3533 0.933911 19.7231 1.31836 19.3301L3.30762 17.2969C3.69384 16.9021 4.3269 16.895 4.72168 17.2812C5.11639 17.6674 5.1234 18.3005 4.7373 18.6953L4.43652 19.002H17.9971C18.5208 19.0019 19.3015 18.8404 19.9229 18.3906C20.4935 17.9774 20.9999 17.2761 21 15.9932C21 14.7104 20.4944 14.0144 19.9258 13.6055C19.3056 13.1596 18.5246 13 17.9971 13H6.09082C5.25168 13 4.01358 12.76 2.95605 12.0117C1.84705 11.2269 1.00011 9.92236 1 7.98438C1 6.04462 1.84911 4.74844 2.96387 3.97461C4.02457 3.23838 5.26161 3.01369 6.09082 3.01367H18.6377L18.3066 2.67578C17.9205 2.281 17.9275 1.64792 18.3223 1.26172Z" fill="#9E9E9E"/>
</g>
</svg>
