<svg width="24" height="24" viewBox="0 0 24 24" fill="none" xmlns="http://www.w3.org/2000/svg">
<g id="icons/Arrows/corner-right-up">
<path id="Union" d="M14.0205 3.00098C14.0381 3.00133 14.0557 3.00165 14.0732 3.00293C14.0909 3.00421 14.1085 3.00562 14.126 3.00781C14.1378 3.0093 14.1494 3.01177 14.1611 3.01367C14.1802 3.01676 14.1991 3.02026 14.2178 3.02441C14.2269 3.02645 14.236 3.02895 14.2451 3.03125C14.3141 3.04866 14.3799 3.07357 14.4424 3.10449C14.4746 3.12042 14.5064 3.13761 14.5371 3.15723C14.5449 3.16219 14.5529 3.16671 14.5605 3.17188C14.6122 3.2069 14.6613 3.24722 14.707 3.29297L18.707 7.29297C19.0976 7.68349 19.0976 8.31651 18.707 8.70703C18.3165 9.09756 17.6835 9.09756 17.293 8.70703L15 6.41406V18.5C15 19.8807 13.8807 21 12.5 21H6C5.44772 21 5 20.5523 5 20C5 19.4477 5.44772 19 6 19H12.5C12.7762 19 13 18.7762 13 18.5V6.41406L10.707 8.70703C10.3165 9.09756 9.68349 9.09756 9.29297 8.70703C8.90244 8.31651 8.90244 7.68349 9.29297 7.29297L13.293 3.29297C13.3548 3.23117 13.4248 3.17778 13.501 3.13379C13.5154 3.12546 13.5302 3.1179 13.5449 3.11035C13.6073 3.0784 13.6731 3.05257 13.7422 3.03418C13.7588 3.02976 13.7753 3.02503 13.792 3.02148C13.803 3.01916 13.8141 3.01758 13.8252 3.01562C13.8427 3.01252 13.8603 3.00998 13.8779 3.00781C13.8957 3.00565 13.9136 3.00415 13.9316 3.00293C13.9476 3.00184 13.9635 3.00131 13.9795 3.00098C13.9863 3.00084 13.9931 3 14 3C14.0069 3 14.0137 3.00084 14.0205 3.00098Z" fill="#9E9E9E"/>
</g>
</svg>
