<svg width="24" height="24" viewBox="0 0 24 24" fill="none" xmlns="http://www.w3.org/2000/svg">
<g id="icons/Arrows/corner-right-down">
<path id="Union" d="M12.5 4C13.8807 4 15 5.11927 15 6.5V18.5859L17.293 16.293C17.6835 15.9024 18.3165 15.9024 18.707 16.293C19.0976 16.6835 19.0976 17.3165 18.707 17.707L14.707 21.707C14.6592 21.7548 14.6065 21.7976 14.5498 21.835C14.5121 21.8599 14.4727 21.8811 14.4326 21.9004C14.3874 21.9222 14.3407 21.9412 14.292 21.9561C14.2717 21.9622 14.251 21.9668 14.2305 21.9717C14.2191 21.9744 14.2078 21.9772 14.1963 21.9795C14.1859 21.9816 14.1754 21.9826 14.165 21.9844C14.1112 21.9933 14.0563 22 14 22C13.9433 22 13.8881 21.9934 13.834 21.9844C13.8236 21.9826 13.8131 21.9816 13.8027 21.9795C13.7912 21.9772 13.7799 21.9744 13.7686 21.9717C13.748 21.9668 13.7273 21.9623 13.707 21.9561C13.6584 21.9412 13.6116 21.9222 13.5664 21.9004C13.5266 21.8812 13.4877 21.8597 13.4502 21.835C13.3935 21.7976 13.3408 21.7548 13.293 21.707L9.29297 17.707C8.90244 17.3165 8.90244 16.6835 9.29297 16.293C9.68349 15.9024 10.3165 15.9024 10.707 16.293L13 18.5859V6.5C13 6.22383 12.7762 6 12.5 6H6C5.44772 6 5 5.55228 5 5C5 4.44772 5.44772 4 6 4H12.5Z" fill="#9E9E9E"/>
</g>
</svg>
