<svg width="24" height="24" viewBox="0 0 24 24" fill="none" xmlns="http://www.w3.org/2000/svg">
<g id="icons/Arrows/corner-down-left">
<path id="Union" d="M20 4C20.5523 4 21 4.44772 21 5V11.5C21 12.8807 19.8807 14 18.5 14H6.41406L8.70703 16.293C9.09756 16.6835 9.09756 17.3165 8.70703 17.707C8.31651 18.0976 7.68349 18.0976 7.29297 17.707L3.29297 13.707C3.26536 13.6794 3.2405 13.65 3.2168 13.6201C3.18065 13.5745 3.14798 13.5261 3.12012 13.4746C3.11199 13.4596 3.10495 13.4441 3.09766 13.4287C3.07667 13.3846 3.0574 13.3394 3.04297 13.292C3.0303 13.2503 3.02176 13.2077 3.01465 13.165C3.00571 13.1113 3 13.0563 3 13C3 12.9203 3.00973 12.8429 3.02734 12.7686C3.03221 12.748 3.03678 12.7273 3.04297 12.707C3.05787 12.6583 3.07777 12.6117 3.09961 12.5664C3.11877 12.5266 3.1403 12.4877 3.16504 12.4502C3.20242 12.3935 3.24516 12.3408 3.29297 12.293L7.29297 8.29297C7.68349 7.90244 8.31651 7.90244 8.70703 8.29297C9.09756 8.68349 9.09756 9.31651 8.70703 9.70703L6.41406 12H18.5C18.7762 12 19 11.7762 19 11.5V5C19 4.44772 19.4477 4 20 4Z" fill="#9E9E9E"/>
</g>
</svg>
