<svg width="24" height="24" viewBox="0 0 24 24" fill="none" xmlns="http://www.w3.org/2000/svg">
<g id="icons/Arrows/corner-left-down">
<path id="Union" d="M18.0001 4C18.5524 4.00004 19.0001 4.44774 19.0001 5C19.0001 5.55226 18.5524 5.99996 18.0001 6H11.5001C11.224 6 11.0001 6.22383 11.0001 6.5V18.5859L13.2931 16.293C13.6836 15.9025 14.3166 15.9025 14.7072 16.293C15.0976 16.6835 15.0976 17.3165 14.7072 17.707L10.7072 21.707C10.6606 21.7536 10.6088 21.7944 10.5538 21.8311C10.5147 21.8572 10.4744 21.8804 10.4327 21.9004C10.3872 21.9223 10.3401 21.9412 10.2911 21.9561C10.2744 21.9611 10.2573 21.9646 10.2404 21.9688C10.2248 21.9726 10.2094 21.9774 10.1935 21.9805C10.1864 21.9819 10.1791 21.9822 10.172 21.9834C10.1161 21.9931 10.0588 22 10.0001 22L9.89758 21.9951C9.8761 21.9929 9.85516 21.9879 9.83411 21.9844C9.8237 21.9826 9.81321 21.9816 9.80286 21.9795C9.79135 21.9772 9.78003 21.9744 9.76868 21.9717C9.74811 21.9668 9.72744 21.9623 9.70715 21.9561C9.6585 21.9412 9.61171 21.9222 9.56653 21.9004C9.52674 21.8812 9.48781 21.8597 9.45032 21.835C9.39366 21.7976 9.3409 21.7548 9.29309 21.707L5.29309 17.707C4.90257 17.3165 4.90257 16.6835 5.29309 16.293C5.68362 15.9025 6.31664 15.9025 6.70715 16.293L9.00012 18.5859V6.5C9.00012 5.11927 10.1194 4 11.5001 4H18.0001Z" fill="#9E9E9E"/>
</g>
</svg>
