<svg width="24" height="24" viewBox="0 0 24 24" fill="none" xmlns="http://www.w3.org/2000/svg">
<g id="icons/Arrows/corner-up-left">
<path id="Union" d="M7.29297 6.29297C7.68349 5.90244 8.31651 5.90244 8.70703 6.29297C9.09752 6.6835 9.09754 7.31652 8.70703 7.70703L6.41406 10H18.5C19.8807 10 21 11.1193 21 12.5V19C21 19.5522 20.5523 20 20 20C19.4477 20 19 19.5522 19 19V12.5C19 12.2238 18.7762 12 18.5 12H6.41406L8.70703 14.293C9.09752 14.6835 9.09754 15.3165 8.70703 15.707C8.31652 16.0975 7.68348 16.0975 7.29297 15.707L3.29297 11.707C3.26183 11.6759 3.23418 11.6424 3.20801 11.6084C3.19423 11.5905 3.18053 11.5725 3.16797 11.5537C3.14195 11.5147 3.11956 11.4741 3.09961 11.4326C3.07767 11.387 3.05788 11.3401 3.04297 11.291C3.0379 11.2743 3.03445 11.2572 3.03027 11.2402C3.01125 11.1632 3.00001 11.0829 3 11C3 10.9073 3.01349 10.8176 3.03711 10.7324C3.03942 10.7241 3.04044 10.7153 3.04297 10.707C3.05787 10.6583 3.07777 10.6117 3.09961 10.5664C3.11877 10.5266 3.1403 10.4877 3.16504 10.4502C3.20242 10.3935 3.24516 10.3408 3.29297 10.293L7.29297 6.29297Z" fill="#9E9E9E"/>
</g>
</svg>
