<svg width="24" height="24" viewBox="0 0 24 24" fill="none" xmlns="http://www.w3.org/2000/svg">
<g id="icons/Arrows/corner-up-right">
<path id="Union" d="M15.293 6.29297C15.6835 5.90244 16.3165 5.90244 16.707 6.29297L20.707 10.293C20.7548 10.3408 20.7976 10.3935 20.835 10.4502C20.8597 10.4877 20.8812 10.5266 20.9004 10.5664C20.9222 10.6116 20.9412 10.6584 20.9561 10.707C20.9586 10.7154 20.9606 10.724 20.9629 10.7324C20.9865 10.8176 21 10.9073 21 11C21 11.083 20.9878 11.1631 20.9688 11.2402C20.9646 11.2572 20.9611 11.2743 20.9561 11.291C20.9412 11.34 20.9223 11.3871 20.9004 11.4326C20.8804 11.4743 20.8572 11.5146 20.8311 11.5537C20.8185 11.5726 20.8048 11.5905 20.791 11.6084C20.7649 11.6422 20.738 11.676 20.707 11.707L16.707 15.707C16.3165 16.0975 15.6835 16.0975 15.293 15.707C14.9025 15.3165 14.9025 14.6835 15.293 14.293L17.5859 12H5.5C5.22385 12 5 12.2238 5 12.5V19C4.99996 19.5522 4.55226 20 4 20C3.44774 20 3.00004 19.5522 3 19V12.5C3 11.1193 4.1193 10 5.5 10H17.5859L15.293 7.70703C14.9025 7.31652 14.9025 6.6835 15.293 6.29297Z" fill="#9E9E9E"/>
</g>
</svg>
