<svg width="24" height="24" viewBox="0 0 24 24" fill="none" xmlns="http://www.w3.org/2000/svg">
<g id="icons/Arrows/corner-left-up">
<path id="Union" d="M10.0206 3.00098C10.0382 3.00133 10.0558 3.00165 10.0734 3.00293C10.0911 3.00421 10.1087 3.00562 10.1261 3.00781C10.1379 3.0093 10.1495 3.01177 10.1613 3.01367C10.18 3.01671 10.1985 3.02034 10.2169 3.02441C10.228 3.02687 10.2391 3.02939 10.2501 3.03223C10.3174 3.04956 10.3815 3.07429 10.4425 3.10449C10.5378 3.15158 10.6278 3.21362 10.7072 3.29297L14.7072 7.29297C15.0976 7.68348 15.0976 8.31652 14.7072 8.70703C14.3166 9.09754 13.6836 9.09752 13.2931 8.70703L11.0001 6.41406V18.5C11.0001 18.7762 11.224 19 11.5001 19H18.0001C18.5524 19 19.0001 19.4477 19.0001 20C19.0001 20.5523 18.5524 21 18.0001 21H11.5001C10.1194 21 9.00012 19.8807 9.00012 18.5V6.41406L6.70715 8.70703C6.31664 9.09754 5.68362 9.09752 5.29309 8.70703C4.90257 8.31651 4.90257 7.68349 5.29309 7.29297L9.29309 3.29297C9.35026 3.2358 9.4149 3.18656 9.4845 3.14453C9.50444 3.13248 9.52448 3.12088 9.54504 3.11035C9.60738 3.07841 9.67324 3.05256 9.74231 3.03418C9.75888 3.02977 9.77538 3.02503 9.79211 3.02148C9.80308 3.01917 9.81422 3.01758 9.82532 3.01562C9.84283 3.01252 9.86042 3.00998 9.87805 3.00781C9.89582 3.00565 9.91372 3.00415 9.93176 3.00293C9.9477 3.00184 9.96365 3.00131 9.97961 3.00098C9.98641 3.00084 9.99329 3 10.0001 3C10.007 3 10.0138 3.00084 10.0206 3.00098Z" fill="#9E9E9E"/>
</g>
</svg>
