<svg width="24" height="24" viewBox="0 0 24 24" fill="none" xmlns="http://www.w3.org/2000/svg">
<g id="icons/Arrows/corner-down-right">
<path id="Union" d="M4 4C4.55228 4 5 4.44772 5 5V11.5C5 11.7762 5.22385 12 5.5 12H17.5859L15.293 9.70703C14.9024 9.31651 14.9024 8.68349 15.293 8.29297C15.6835 7.90244 16.3165 7.90244 16.707 8.29297L20.707 12.293C20.7548 12.3408 20.7976 12.3935 20.835 12.4502C20.8597 12.4877 20.8812 12.5266 20.9004 12.5664C20.9222 12.6116 20.9412 12.6584 20.9561 12.707C20.9623 12.7273 20.9668 12.748 20.9717 12.7686C20.9893 12.8429 21 12.9202 21 13C21 13.0563 20.9933 13.1112 20.9844 13.165C20.9772 13.2078 20.9688 13.2503 20.9561 13.292C20.9416 13.3393 20.9233 13.3847 20.9023 13.4287C20.895 13.4442 20.8871 13.4594 20.8789 13.4746C20.851 13.5262 20.8184 13.5745 20.7822 13.6201C20.7586 13.6498 20.7345 13.6796 20.707 13.707L16.707 17.707C16.3165 18.0976 15.6835 18.0976 15.293 17.707C14.9024 17.3165 14.9024 16.6835 15.293 16.293L17.5859 14H5.5C4.1193 14 3 12.8807 3 11.5V5C3 4.44772 3.44772 4 4 4Z" fill="#9E9E9E"/>
</g>
</svg>
