<svg width="24" height="24" viewBox="0 0 24 24" fill="none" xmlns="http://www.w3.org/2000/svg">
<g id="icons/Arrows/cycle">
<path id="Union" d="M6.5 16.5C7.05228 16.5 7.5 16.9477 7.5 17.5C7.5 18.0523 7.05228 18.5 6.5 18.5H5.77734C7.39436 20.0488 9.58588 20.9999 12 21C12.4598 21 12.9114 20.9656 13.3516 20.8994C13.8976 20.8173 14.407 21.1933 14.4893 21.7393C14.5714 22.2853 14.1954 22.7947 13.6494 22.877C13.111 22.9579 12.5598 23 12 23C9.1006 22.9999 6.46426 21.8768 4.5 20.0449V20.5C4.5 21.0523 4.05228 21.5 3.5 21.5C2.94772 21.5 2.5 21.0523 2.5 20.5V17.5C2.5 16.9477 2.94772 16.5 3.5 16.5H6.5ZM21.7393 9.51074C22.2854 9.42859 22.7948 9.80542 22.877 10.3516C22.9579 10.8898 23 11.4403 23 12C23 14.8993 21.8775 17.5358 20.0459 19.5H20.5C21.0523 19.5 21.5 19.9477 21.5 20.5C21.5 21.0523 21.0523 21.5 20.5 21.5H17.5C16.9477 21.5 16.5 21.0523 16.5 20.5V17.5C16.5 16.9477 16.9477 16.5 17.5 16.5C18.0523 16.5 18.5 16.9477 18.5 17.5V18.2227C20.0487 16.6054 21 14.4141 21 12C21 11.5402 20.9656 11.0887 20.8994 10.6484C20.8175 10.1025 21.1933 9.59296 21.7393 9.51074ZM6.5 2.5C7.05228 2.5 7.5 2.94772 7.5 3.5V6.5C7.5 7.05228 7.05228 7.5 6.5 7.5C5.94772 7.5 5.5 7.05228 5.5 6.5V5.77734C3.95118 7.39435 3.00011 9.58588 3 12C3 12.4598 3.03438 12.9114 3.10059 13.3516C3.18272 13.8976 2.80675 14.407 2.26074 14.4893C1.71469 14.5714 1.20532 14.1954 1.12305 13.6494C1.04207 13.111 1 12.5598 1 12C1.00011 9.10084 2.12254 6.46421 3.9541 4.5H3.5C2.94772 4.5 2.5 4.05228 2.5 3.5C2.5 2.94772 2.94772 2.5 3.5 2.5H6.5ZM12 1C14.8993 1 17.5358 2.12248 19.5 3.9541V3.5C19.5 2.94772 19.9477 2.5 20.5 2.5C21.0523 2.5 21.5 2.94772 21.5 3.5V6.5C21.5 7.05228 21.0523 7.5 20.5 7.5H17.5C16.9477 7.5 16.5 7.05228 16.5 6.5C16.5 5.94772 16.9477 5.5 17.5 5.5H18.2236C16.6064 3.95105 14.4143 3 12 3C11.5402 3 11.0887 3.03437 10.6484 3.10059C10.1025 3.18255 9.59296 2.80668 9.51074 2.26074C9.42859 1.7146 9.80542 1.2052 10.3516 1.12305C10.8898 1.04209 11.4403 1 12 1Z" fill="#9E9E9E"/>
</g>
</svg>
