<svg width="24" height="24" viewBox="0 0 24 24" fill="none" xmlns="http://www.w3.org/2000/svg">
<g id="icons/Arrows/cycle-movement">
<path id="Union" d="M12.0205 13.501C12.0381 13.5013 12.0557 13.5017 12.0732 13.5029C12.0909 13.5042 12.1085 13.5056 12.126 13.5078C12.1378 13.5093 12.1494 13.5118 12.1611 13.5137C12.1802 13.5168 12.1991 13.5203 12.2178 13.5244C12.2269 13.5264 12.236 13.529 12.2451 13.5312C12.3141 13.5487 12.3799 13.5736 12.4424 13.6045C12.4746 13.6204 12.5064 13.6376 12.5371 13.6572C12.5449 13.6622 12.5529 13.6667 12.5605 13.6719C12.6122 13.7069 12.6613 13.7472 12.707 13.793L14.707 15.793C15.0976 16.1835 15.0976 16.8165 14.707 17.207C14.3165 17.5976 13.6835 17.5976 13.293 17.207L13 16.9141V20C13 21.6568 11.6568 23 10 23H4C2.34314 23 1 21.6568 1 20V14.5C1 13.9477 1.44772 13.5 2 13.5C2.55228 13.5 3 13.9477 3 14.5V20C3 20.5523 3.44772 21 4 21H10C10.5523 21 11 20.5523 11 20V16.9141L10.707 17.207C10.3165 17.5976 9.68349 17.5976 9.29297 17.207C8.90244 16.8165 8.90244 16.1835 9.29297 15.793L11.293 13.793C11.3548 13.7312 11.4248 13.6778 11.501 13.6338C11.5154 13.6255 11.5302 13.6179 11.5449 13.6104C11.6073 13.5784 11.6731 13.5526 11.7422 13.5342C11.7588 13.5298 11.7753 13.525 11.792 13.5215C11.803 13.5192 11.8141 13.5176 11.8252 13.5156C11.8427 13.5125 11.8603 13.51 11.8779 13.5078C11.8957 13.5056 11.9136 13.5041 11.9316 13.5029C11.9476 13.5018 11.9635 13.5013 11.9795 13.501C11.9863 13.5008 11.9931 13.5 12 13.5C12.0069 13.5 12.0137 13.5008 12.0205 13.501ZM15.793 9.29297C16.1835 8.90244 16.8165 8.90244 17.207 9.29297C17.5976 9.68349 17.5976 10.3165 17.207 10.707L16.9141 11H20C21.6568 11 23 12.3432 23 14V20C23 21.6568 21.6568 23 20 23H14.5C13.9477 23 13.5 22.5523 13.5 22C13.5 21.4477 13.9477 21 14.5 21H20C20.5523 21 21 20.5523 21 20V14C21 13.4477 20.5523 13 20 13H16.9141L17.207 13.293C17.5976 13.6835 17.5976 14.3165 17.207 14.707C16.8165 15.0976 16.1835 15.0976 15.793 14.707L13.793 12.707C13.7654 12.6794 13.7405 12.65 13.7168 12.6201C13.6807 12.5745 13.648 12.5261 13.6201 12.4746C13.6127 12.4609 13.6063 12.4466 13.5996 12.4326C13.5778 12.3873 13.5578 12.3408 13.543 12.292C13.5303 12.2503 13.5218 12.2077 13.5146 12.165C13.5057 12.1113 13.5 12.0563 13.5 12C13.5 11.9203 13.5097 11.8429 13.5273 11.7686C13.5322 11.748 13.5368 11.7273 13.543 11.707C13.5579 11.6583 13.5778 11.6117 13.5996 11.5664C13.6188 11.5266 13.6403 11.4877 13.665 11.4502C13.7024 11.3935 13.7452 11.3408 13.793 11.293L15.793 9.29297ZM9.5 1C10.0523 1 10.5 1.44772 10.5 2C10.5 2.55228 10.0523 3 9.5 3H4C3.44771 3 3 3.44771 3 4V10C3 10.5523 3.44772 11 4 11H7.08594L6.79297 10.707C6.40244 10.3165 6.40244 9.68349 6.79297 9.29297C7.18349 8.90244 7.81651 8.90244 8.20703 9.29297L10.207 11.293C10.2548 11.3408 10.2976 11.3935 10.335 11.4502C10.3597 11.4877 10.3812 11.5266 10.4004 11.5664C10.4222 11.6116 10.4412 11.6584 10.4561 11.707C10.4623 11.7273 10.4668 11.748 10.4717 11.7686C10.4893 11.8429 10.5 11.9202 10.5 12C10.5 12.0563 10.4933 12.1112 10.4844 12.165C10.4772 12.2078 10.4688 12.2503 10.4561 12.292C10.4412 12.3407 10.4222 12.3874 10.4004 12.4326C10.3936 12.4468 10.3864 12.4607 10.3789 12.4746C10.351 12.5262 10.3184 12.5745 10.2822 12.6201C10.2586 12.6498 10.2345 12.6796 10.207 12.707L8.20703 14.707C7.81651 15.0976 7.18349 15.0976 6.79297 14.707C6.40244 14.3165 6.40244 13.6835 6.79297 13.293L7.08594 13H4C2.34314 13 1 11.6568 1 10V4C1 2.34315 2.34315 1 4 1H9.5ZM20 1C21.6568 1 23 2.34314 23 4V9.5C23 10.0523 22.5523 10.5 22 10.5C21.4477 10.5 21 10.0523 21 9.5V4C21 3.44772 20.5523 3 20 3H14C13.4477 3 13 3.44772 13 4V7.08594L13.293 6.79297C13.6835 6.40244 14.3165 6.40244 14.707 6.79297C15.0976 7.18349 15.0976 7.81651 14.707 8.20703L12.707 10.207C12.6592 10.2548 12.6065 10.2976 12.5498 10.335C12.5121 10.3599 12.4727 10.3811 12.4326 10.4004C12.3874 10.4222 12.3407 10.4412 12.292 10.4561C12.2717 10.4622 12.251 10.4668 12.2305 10.4717C12.2191 10.4744 12.2078 10.4772 12.1963 10.4795C12.1859 10.4816 12.1754 10.4826 12.165 10.4844C12.1112 10.4933 12.0563 10.5 12 10.5C11.9433 10.5 11.8881 10.4934 11.834 10.4844C11.8236 10.4826 11.8131 10.4816 11.8027 10.4795C11.7912 10.4772 11.7799 10.4744 11.7686 10.4717C11.748 10.4668 11.7273 10.4623 11.707 10.4561C11.6584 10.4412 11.6116 10.4222 11.5664 10.4004C11.5266 10.3812 11.4877 10.3597 11.4502 10.335C11.3935 10.2976 11.3408 10.2548 11.293 10.207L9.29297 8.20703C8.90244 7.81651 8.90244 7.18349 9.29297 6.79297C9.68349 6.40244 10.3165 6.40244 10.707 6.79297L11 7.08594V4C11 2.34314 12.3432 1 14 1H20Z" fill="#9E9E9E"/>
</g>
</svg>
