<svg width="24" height="24" viewBox="0 0 24 24" fill="none" xmlns="http://www.w3.org/2000/svg">
<g id="icons/Arrows/double-down">
<path id="Union" d="M17.293 11.293C17.6835 10.9024 18.3165 10.9024 18.707 11.293C19.0975 11.6835 19.0975 12.3165 18.707 12.707L12.707 18.707C12.3165 19.0975 11.6835 19.0975 11.293 18.707L5.29297 12.707C4.90244 12.3165 4.90244 11.6835 5.29297 11.293C5.68349 10.9024 6.31651 10.9024 6.70703 11.293L12 16.5859L17.293 11.293ZM17.293 5.29297C17.6835 4.90244 18.3165 4.90244 18.707 5.29297C19.0975 5.6835 19.0975 6.31653 18.707 6.70703L12.707 12.707C12.3165 13.0975 11.6835 13.0975 11.293 12.707L5.29297 6.70703C4.90244 6.31651 4.90244 5.68349 5.29297 5.29297C5.68349 4.90244 6.31651 4.90244 6.70703 5.29297L12 10.5859L17.293 5.29297Z" fill="#9E9E9E"/>
</g>
</svg>
