<svg width="24" height="24" viewBox="0 0 24 24" fill="none" xmlns="http://www.w3.org/2000/svg">
<g id="icons/Arrows/double-left">
<path id="Union" d="M11.293 5.29297C11.6835 4.90244 12.3165 4.90244 12.707 5.29297C13.0975 5.6835 13.0975 6.31653 12.707 6.70703L7.41406 12L12.707 17.293C13.0975 17.6835 13.0975 18.3165 12.707 18.707C12.3165 19.0975 11.6835 19.0975 11.293 18.707L5.29297 12.707C4.90244 12.3165 4.90244 11.6835 5.29297 11.293L11.293 5.29297ZM17.293 5.29297C17.6835 4.90244 18.3165 4.90244 18.707 5.29297C19.0975 5.6835 19.0975 6.31653 18.707 6.70703L13.4141 12L18.707 17.293C19.0975 17.6835 19.0975 18.3165 18.707 18.707C18.3165 19.0975 17.6835 19.0975 17.293 18.707L11.293 12.707C10.9024 12.3165 10.9024 11.6835 11.293 11.293L17.293 5.29297Z" fill="#9E9E9E"/>
</g>
</svg>
