<svg width="24" height="24" viewBox="0 0 24 24" fill="none" xmlns="http://www.w3.org/2000/svg">
<g id="icons/Arrows/double-up">
<path id="Union" d="M11.3692 11.2246C11.762 10.9043 12.341 10.9269 12.7071 11.293L18.7071 17.293C19.0975 17.6835 19.0976 18.3166 18.7071 18.707C18.3166 19.0974 17.6835 19.0974 17.293 18.707L12.0001 13.4141L6.70709 18.707C6.31661 19.0974 5.68354 19.0974 5.29303 18.707C4.90253 18.3165 4.90259 17.6835 5.29303 17.293L11.293 11.293L11.3692 11.2246ZM11.3692 5.22461C11.762 4.90426 12.341 4.92685 12.7071 5.29297L18.7071 11.293C19.0975 11.6835 19.0976 12.3166 18.7071 12.707C18.3166 13.0974 17.6835 13.0974 17.293 12.707L12.0001 7.41406L6.70709 12.707C6.31661 13.0974 5.68354 13.0974 5.29303 12.707C4.90253 12.3165 4.90258 11.6835 5.29303 11.293L11.293 5.29297L11.3692 5.22461Z" fill="#9E9E9E"/>
</g>
</svg>
