<svg width="24" height="24" viewBox="0 0 24 24" fill="none" xmlns="http://www.w3.org/2000/svg">
<g id="icons/Arrows/double-right">
<path id="Union" d="M5.29303 5.29297C5.68355 4.90244 6.31657 4.90244 6.70709 5.29297L12.7071 11.293C13.0975 11.6835 13.0976 12.3165 12.7071 12.707L6.70709 18.707C6.31659 19.0975 5.68356 19.0975 5.29303 18.707C4.90251 18.3165 4.90251 17.6835 5.29303 17.293L10.586 12L5.29303 6.70703C4.90251 6.31651 4.90251 5.68349 5.29303 5.29297ZM11.293 5.29297C11.6836 4.90244 12.3166 4.90244 12.7071 5.29297L18.7071 11.293C19.0975 11.6835 19.0976 12.3165 18.7071 12.707L12.7071 18.707C12.3166 19.0975 11.6836 19.0975 11.293 18.707C10.9025 18.3165 10.9025 17.6835 11.293 17.293L16.586 12L11.293 6.70703C10.9025 6.31651 10.9025 5.68349 11.293 5.29297Z" fill="#9E9E9E"/>
</g>
</svg>
