<svg width="24" height="24" viewBox="0 0 24 24" fill="none" xmlns="http://www.w3.org/2000/svg">
<g id="icons/Arrows/download">
<path id="Union" d="M21 11C21.5523 11 22 11.4477 22 12V21C22 21.5523 21.5523 22 21 22H3C2.44772 22 2 21.5523 2 21V12.0039C2.00013 11.4517 2.4478 11.0039 3 11.0039C3.5522 11.0039 3.99987 11.4517 4 12.0039V20H20V12C20 11.4477 20.4477 11 21 11ZM11.9961 2C12.5484 2 12.9961 2.44772 12.9961 3V13.5898L15.793 10.793C16.1835 10.4024 16.8165 10.4024 17.207 10.793C17.5976 11.1835 17.5976 11.8165 17.207 12.207L12.707 16.707C12.5437 16.8704 12.3377 16.9635 12.125 16.9902C12.1018 16.9932 12.0784 16.9957 12.0547 16.9971C12.0358 16.9981 12.017 16.9991 11.998 16.999L11.9961 17C11.7 17 11.4351 16.8705 11.252 16.666L6.79297 12.207C6.40244 11.8165 6.40244 11.1835 6.79297 10.793C7.18349 10.4024 7.81651 10.4024 8.20703 10.793L10.9961 13.582V3C10.9961 2.44772 11.4438 2 11.9961 2Z" fill="#9E9E9E"/>
</g>
</svg>
