<svg width="24" height="24" viewBox="0 0 24 24" fill="none" xmlns="http://www.w3.org/2000/svg">
<g id="icons/Arrows/down-square">
<path id="Union" d="M19.5 2C20.8807 2 22 3.11929 22 4.5V19.5C22 20.8807 20.8807 22 19.5 22H4.5C3.11929 22 2 20.8807 2 19.5V4.5C2 3.11929 3.11929 2 4.5 2H19.5ZM4.5 4C4.22386 4 4 4.22386 4 4.5V19.5C4 19.7761 4.22386 20 4.5 20H19.5C19.7761 20 20 19.7761 20 19.5V4.5C20 4.22386 19.7761 4 19.5 4H4.5ZM16.293 8.79297C16.6835 8.40244 17.3165 8.40244 17.707 8.79297C18.0976 9.18349 18.0976 9.81651 17.707 10.207L12.707 15.207C12.3165 15.5976 11.6835 15.5976 11.293 15.207L6.29297 10.207C5.90244 9.81651 5.90244 9.18349 6.29297 8.79297C6.68349 8.40244 7.31651 8.40244 7.70703 8.79297L12 13.0859L16.293 8.79297Z" fill="#9E9E9E"/>
</g>
</svg>
