<svg width="24" height="24" viewBox="0 0 24 24" fill="none" xmlns="http://www.w3.org/2000/svg">
<g id="icons/Arrows/download-two">
<path id="Union" d="M12.0004 10.5C12.5523 10.5002 13.0001 10.948 13.0004 11.5L13.0023 18.083L14.476 16.6113C14.8665 16.2209 15.4995 16.2208 15.89 16.6113C16.28 17.0019 16.2802 17.635 15.89 18.0254L12.7426 21.1709C12.5799 21.3498 12.3546 21.4699 12.1 21.4941C12.0915 21.495 12.083 21.4945 12.0746 21.4951C12.0516 21.4967 12.0286 21.5 12.0052 21.5C11.9893 21.5 11.9732 21.4978 11.9574 21.4971C11.7161 21.4868 11.4777 21.3912 11.2933 21.207L8.11169 18.0254C7.72119 17.6349 7.72124 17.0019 8.11169 16.6113C8.50222 16.2208 9.13523 16.2208 9.52576 16.6113L11.0023 18.0879L11.0004 11.5C11.0004 10.9479 11.4482 10.5003 12.0004 10.5ZM1.80798 7C3.41047 3.92632 6.74229 2.1582 10.1859 2.55469C13.3673 2.92113 16.0344 5.06546 17.1019 8.03711H17.5258C19.8553 8.0355 22.1823 9.26706 22.9525 11.6982C23.6908 14.0291 22.8334 16.5692 20.8334 17.9756C20.3818 18.2927 19.7584 18.1847 19.4408 17.7334C19.1233 17.2818 19.2317 16.6577 19.683 16.3398C20.9693 15.4353 21.5211 13.8009 21.0463 12.3018C20.603 10.9031 19.2147 10.0358 17.5267 10.0371H16.3656C15.9094 10.0369 15.5105 9.72788 15.3969 9.28613C14.7412 6.73093 12.578 4.84401 9.9574 4.54199C7.33673 4.24029 4.80088 5.58563 3.58142 7.9248C2.36229 10.2641 2.71116 13.1133 4.45935 15.0889C4.82525 15.5025 4.786 16.135 4.37244 16.501C3.95885 16.8661 3.32705 16.8273 2.9613 16.4141C0.664239 13.8181 0.205931 10.0739 1.80798 7Z" fill="#9E9E9E"/>
</g>
</svg>
