<svg width="24" height="24" viewBox="0 0 24 24" fill="none" xmlns="http://www.w3.org/2000/svg">
<g id="icons/Arrows/down-two">
<path id="Union" d="M15.5002 2C16.0524 2.00012 16.5002 2.44779 16.5002 3V11H21.5002C21.9095 11.0001 22.2774 11.2497 22.429 11.6299C22.5804 12.0101 22.4848 12.444 22.1877 12.7256L12.6877 21.7256C12.3021 22.0909 11.6984 22.0909 11.3127 21.7256L1.81274 12.7256C1.51559 12.444 1.42 12.0102 1.57153 11.6299C1.7231 11.2496 2.0909 11 2.50024 11H7.50024V3C7.50024 2.44772 7.94796 2 8.50024 2H15.5002ZM9.50024 12C9.50024 12.5522 9.05242 12.9999 8.50024 13H5.00903L12.0002 19.623L18.9915 13H15.5002C14.948 13 14.5002 12.5523 14.5002 12V4H9.50024V12Z" fill="#9E9E9E"/>
</g>
</svg>
