<svg width="24" height="24" viewBox="0 0 24 24" fill="none" xmlns="http://www.w3.org/2000/svg">
<g id="icons/Arrows/efferent-four">
<path id="Union" d="M10 1.5C10.5523 1.5 11 1.94772 11 2.5C11 3.05228 10.5523 3.5 10 3.5H5V20.5H19V12.375C19 11.8227 19.4477 11.375 20 11.375C20.5523 11.375 21 11.8227 21 12.375V20.5C21 21.6046 20.1046 22.5 19 22.5H5C3.89544 22.5 3 21.6046 3 20.5V3.5C3 2.39543 3.89543 1.5 5 1.5H10ZM20 1.5C20.5523 1.5 21 1.94772 21 2.5V8.5C21 9.05228 20.5523 9.5 20 9.5C19.4477 9.5 19 9.05228 19 8.5V4.91406L11.207 12.707C10.8165 13.0975 10.1835 13.0975 9.79297 12.707C9.40246 12.3165 9.4025 11.6835 9.79297 11.293L17.5859 3.5H14C13.4477 3.5 13 3.05228 13 2.5C13 1.94772 13.4477 1.5 14 1.5H20Z" fill="#9E9E9E"/>
</g>
</svg>
