<svg width="24" height="24" viewBox="0 0 24 24" fill="none" xmlns="http://www.w3.org/2000/svg">
<g id="icons/Arrows/efferent-three">
<path id="Union" d="M9.5 2C10.0523 2 10.5 2.44772 10.5 3C10.5 3.55228 10.0523 4 9.5 4H4.5C4.22386 4 4 4.22386 4 4.5V19.5C4 19.7762 4.22385 20 4.5 20H19.5C19.7762 20 20 19.7762 20 19.5V14.5C20 13.9477 20.4477 13.5 21 13.5C21.5523 13.5 22 13.9477 22 14.5V19.5C22 20.8807 20.8807 22 19.5 22H4.5C3.1193 22 2 20.8807 2 19.5V4.5C2 3.11929 3.11929 2 4.5 2H9.5ZM19.0518 2.50195C19.0655 2.50267 19.0791 2.50361 19.0928 2.50488C19.113 2.50678 19.1331 2.50953 19.1533 2.5127C19.1664 2.51474 19.1794 2.51698 19.1924 2.51953C19.2097 2.52294 19.2269 2.52689 19.2441 2.53125C19.259 2.535 19.2735 2.53953 19.2881 2.54395C19.2974 2.54676 19.3071 2.54865 19.3164 2.55176C19.3246 2.5545 19.3327 2.55761 19.3408 2.56055C19.3547 2.56559 19.3682 2.5715 19.3818 2.57715C19.3973 2.58352 19.4128 2.58961 19.4277 2.59668C19.4342 2.59973 19.4409 2.60228 19.4473 2.60547L19.501 2.63477C19.505 2.63711 19.5087 2.64018 19.5127 2.64258C19.5291 2.65235 19.5447 2.66313 19.5605 2.67383C19.5716 2.68135 19.583 2.68836 19.5938 2.69629C19.6057 2.7051 19.6173 2.71429 19.6289 2.72363C19.6453 2.73691 19.6613 2.75044 19.6768 2.76465C19.6786 2.76637 19.6808 2.7678 19.6826 2.76953L19.7305 2.81738C19.7319 2.8189 19.733 2.82074 19.7344 2.82227C19.7486 2.83767 19.7621 2.85375 19.7754 2.87012C19.7848 2.88167 19.7939 2.89334 19.8027 2.90527C19.8107 2.916 19.8177 2.92739 19.8252 2.93848C19.8359 2.95427 19.8466 2.96997 19.8564 2.98633C19.863 2.99733 19.8698 3.00822 19.876 3.01953C19.8853 3.03652 19.894 3.05379 19.9023 3.07129C19.9094 3.08626 19.9155 3.10173 19.9219 3.11719C19.9275 3.13082 19.9334 3.14433 19.9385 3.1582C19.9416 3.1667 19.9454 3.17497 19.9482 3.18359L21.9482 9.18359C22.1229 9.70744 21.8402 10.2735 21.3164 10.4482C20.7926 10.6229 20.2265 10.3402 20.0518 9.81641L18.9688 6.56836C18.1024 8.81912 17.26 10.4479 16.2031 11.7061C14.7265 13.4639 12.9088 14.4136 10.3711 15.4287C9.85839 15.6336 9.27636 15.3838 9.07129 14.8711C8.86642 14.3584 9.11623 13.7764 9.62891 13.5713C12.0909 12.5865 13.5236 11.7859 14.6719 10.4189C15.6336 9.27394 16.4436 7.67408 17.3877 5.08984L13.3164 6.44824C12.7926 6.62286 12.2265 6.34016 12.0518 5.81641C11.8771 5.29256 12.1598 4.72652 12.6836 4.55176L18.6836 2.55176C18.6926 2.54875 18.7019 2.54668 18.7109 2.54395C18.7255 2.53952 18.7401 2.53501 18.7549 2.53125C18.764 2.52893 18.7731 2.52647 18.7822 2.52441L18.8262 2.51562C18.8327 2.51448 18.8392 2.51372 18.8457 2.5127C18.8659 2.50951 18.8861 2.5068 18.9062 2.50488C18.9199 2.50359 18.9335 2.50268 18.9473 2.50195C18.958 2.50138 18.9688 2.50022 18.9795 2.5H19.0205C19.0309 2.50022 19.0413 2.50141 19.0518 2.50195Z" fill="#9E9E9E"/>
</g>
</svg>
