<svg width="24" height="24" viewBox="0 0 24 24" fill="none" xmlns="http://www.w3.org/2000/svg">
<g id="icons/Arrows/expand-down-one">
<path id="Union" d="M20.3857 12.2109C20.8216 11.872 21.4499 11.9501 21.7891 12.3857C22.128 12.8216 22.0499 13.4499 21.6143 13.7891L12.6143 20.7891C12.2531 21.0699 11.7469 21.0699 11.3857 20.7891L2.38574 13.7891C1.95009 13.4499 1.87196 12.8216 2.21094 12.3857C2.55007 11.9501 3.17842 11.872 3.61426 12.2109L12 18.7324L20.3857 12.2109ZM21 8.5C21.5523 8.5 22 8.94772 22 9.5C22 10.0523 21.5523 10.5 21 10.5H3C2.44772 10.5 2 10.0523 2 9.5C2 8.94772 2.44772 8.5 3 8.5H21ZM21 3.5C21.5523 3.5 22 3.94772 22 4.5C22 5.05228 21.5523 5.5 21 5.5H3C2.44772 5.5 2 5.05228 2 4.5C2 3.94772 2.44772 3.5 3 3.5H21Z" fill="#9E9E9E"/>
</g>
</svg>
