<svg width="24" height="24" viewBox="0 0 24 24" fill="none" xmlns="http://www.w3.org/2000/svg">
<g id="icons/Arrows/figma-flatten-selection">
<path id="Union" d="M18 20C18.5523 20 19 20.4477 19 21C19 21.5523 18.5523 22 18 22H6C5.44772 22 5 21.5523 5 21C5 20.4477 5.44772 20 6 20H18ZM21 16C21.5523 16 22 16.4477 22 17C22 17.5523 21.5523 18 21 18H3C2.44772 18 2 17.5523 2 17C2 16.4477 2.44772 16 3 16H21ZM12 2C12.5523 2 13 2.44772 13 3V10.5859L15.293 8.29297C15.6835 7.90244 16.3165 7.90244 16.707 8.29297C17.0976 8.68349 17.0976 9.31651 16.707 9.70703L12.707 13.707C12.6592 13.7548 12.6065 13.7976 12.5498 13.835C12.5121 13.8599 12.4727 13.8811 12.4326 13.9004C12.3874 13.9222 12.3407 13.9412 12.292 13.9561C12.2717 13.9622 12.251 13.9668 12.2305 13.9717C12.2191 13.9744 12.2078 13.9772 12.1963 13.9795C12.1859 13.9816 12.1754 13.9826 12.165 13.9844C12.1112 13.9933 12.0563 14 12 14C11.9433 14 11.8881 13.9934 11.834 13.9844C11.8236 13.9826 11.8131 13.9816 11.8027 13.9795C11.7912 13.9772 11.7799 13.9744 11.7686 13.9717C11.748 13.9668 11.7273 13.9623 11.707 13.9561C11.6584 13.9412 11.6116 13.9222 11.5664 13.9004C11.5266 13.8812 11.4877 13.8597 11.4502 13.835C11.3935 13.7976 11.3408 13.7548 11.293 13.707L7.29297 9.70703C6.90244 9.31651 6.90244 8.68349 7.29297 8.29297C7.68349 7.90244 8.31651 7.90244 8.70703 8.29297L11 10.5859V3C11 2.44772 11.4477 2 12 2Z" fill="#9E9E9E"/>
</g>
</svg>
