<svg width="24" height="24" viewBox="0 0 24 24" fill="none" xmlns="http://www.w3.org/2000/svg">
<g id="icons/Arrows/full-screen-two">
<path id="Union" d="M8.79297 13.793C9.18349 13.4024 9.81651 13.4024 10.207 13.793C10.5976 14.1835 10.5976 14.8165 10.207 15.207L5.41406 20H9C9.55228 20 10 20.4477 10 21C10 21.5523 9.55228 22 9 22H3C2.94333 22 2.88808 21.9934 2.83398 21.9844C2.82358 21.9826 2.81309 21.9816 2.80273 21.9795C2.79123 21.9772 2.77991 21.9744 2.76855 21.9717C2.74799 21.9668 2.72732 21.9623 2.70703 21.9561C2.65838 21.9412 2.61159 21.9222 2.56641 21.9004C2.52662 21.8812 2.48768 21.8597 2.4502 21.835C2.31255 21.7441 2.19887 21.6203 2.12012 21.4746C2.11269 21.4609 2.10634 21.4466 2.09961 21.4326C2.0778 21.3873 2.05783 21.3408 2.04297 21.292C2.0303 21.2503 2.02176 21.2077 2.01465 21.165C2.00571 21.1113 2 21.0563 2 21V15C2 14.4477 2.44772 14 3 14C3.55228 14 4 14.4477 4 15V18.5859L8.79297 13.793ZM21 14C21.5523 14 22 14.4477 22 15V21C22 21.5523 21.5523 22 21 22H15C14.4477 22 14 21.5523 14 21C14 20.4477 14.4477 20 15 20H20V15C20 14.4477 20.4477 14 21 14ZM21 2C21.0563 2 21.1113 2.00571 21.165 2.01465C21.1738 2.01611 21.1827 2.01686 21.1914 2.01855L21.2012 2.02051C21.211 2.02252 21.2207 2.02504 21.2305 2.02734C21.251 2.0322 21.2717 2.0368 21.292 2.04297C21.3408 2.05783 21.3873 2.0778 21.4326 2.09961C21.4466 2.10634 21.4609 2.11269 21.4746 2.12012C21.6203 2.19887 21.7441 2.31255 21.835 2.4502C21.8597 2.48768 21.8812 2.52662 21.9004 2.56641C21.9222 2.61159 21.9412 2.65838 21.9561 2.70703C21.9623 2.72732 21.9668 2.74799 21.9717 2.76855C21.9893 2.84294 22 2.92022 22 3V9C22 9.55228 21.5523 10 21 10C20.4477 10 20 9.55228 20 9V5.41406L15.207 10.207C14.8165 10.5976 14.1835 10.5976 13.793 10.207C13.4024 9.81651 13.4024 9.18349 13.793 8.79297L18.5859 4H15C14.4477 4 14 3.55228 14 3C14 2.44772 14.4477 2 15 2H21ZM9 2C9.55228 2 10 2.44772 10 3C10 3.55228 9.55228 4 9 4H4V9C4 9.55228 3.55228 10 3 10C2.44772 10 2 9.55228 2 9V3C2 2.44772 2.44772 2 3 2H9Z" fill="#9E9E9E"/>
</g>
</svg>
