<svg width="24" height="24" viewBox="0 0 24 24" fill="none" xmlns="http://www.w3.org/2000/svg">
<g id="icons/Arrows/full-screen-one">
<path id="Union" d="M7.29688 15.2891C7.68939 14.9009 8.3225 14.9045 8.71094 15.2969C9.09915 15.6894 9.0955 16.3225 8.70312 16.7109L5.37988 20H7.5C8.05228 20 8.5 20.4477 8.5 21C8.5 21.5523 8.05228 22 7.5 22H3C2.44772 22 2 21.5523 2 21V16.5C2 15.9477 2.44772 15.5 3 15.5C3.55228 15.5 4 15.9477 4 16.5V18.5527L7.29688 15.2891ZM15.3438 15.293C15.7343 14.9024 16.3673 14.9024 16.7578 15.293L20 18.5342V16.5C20 15.9477 20.4477 15.5 21 15.5C21.5523 15.5 22 15.9477 22 16.5V20.9297C22.0003 20.9424 22.0002 20.9551 22 20.9678V21C22 21.5523 21.5523 22 21 22H16.5C15.9477 22 15.5 21.5523 15.5 21C15.5 20.4477 15.9477 20 16.5 20H18.6357L15.3438 16.707C14.9532 16.3165 14.9532 15.6835 15.3438 15.293ZM21 2C21.5523 2 22 2.44772 22 3V7.5C22 8.05228 21.5523 8.5 21 8.5C20.4477 8.5 20 8.05228 20 7.5V5.36426L16.707 8.65723C16.3166 9.04745 15.6834 9.04745 15.293 8.65723C14.9024 8.2667 14.9024 7.63271 15.293 7.24219L18.5352 4H16.5C15.9477 4 15.5 3.55228 15.5 3C15.5 2.44772 15.9477 2 16.5 2H21ZM7.5 2C8.05228 2 8.5 2.44772 8.5 3C8.5 3.55228 8.05228 4 7.5 4H5.43164L8.70312 7.23926C9.09558 7.62777 9.09937 8.26082 8.71094 8.65332C8.32241 9.04579 7.68937 9.04863 7.29688 8.66016L4 5.39648V7.5C4 8.05228 3.55228 8.5 3 8.5C2.44772 8.5 2 8.05228 2 7.5V3C2 2.84108 2.03755 2.69105 2.10352 2.55762C2.10757 2.5494 2.11192 2.54133 2.11621 2.5332C2.12538 2.51588 2.13537 2.49912 2.14551 2.48242C2.15215 2.47147 2.15794 2.45996 2.16504 2.44922C2.17457 2.43481 2.18507 2.4211 2.19531 2.40723C2.22362 2.36888 2.25456 2.33176 2.28906 2.29688C2.32691 2.25865 2.36714 2.2242 2.40918 2.19336C2.44581 2.16648 2.48423 2.14189 2.52441 2.12012C2.53404 2.11491 2.54396 2.11033 2.55371 2.10547C2.631 2.06683 2.71369 2.03713 2.80078 2.01953C2.81952 2.01574 2.83853 2.01345 2.85742 2.01074C2.87553 2.00816 2.89371 2.00551 2.91211 2.00391C2.93939 2.00151 2.96677 2.00016 2.99414 2H7.5Z" fill="#9E9E9E"/>
</g>
</svg>
