<svg width="24" height="24" viewBox="0 0 24 24" fill="none" xmlns="http://www.w3.org/2000/svg">
<g id="icons/Arrows/go-ahead">
<path id="Union" d="M10.5 6.5C11.9017 6.5 13.2336 6.82065 14.4316 7.39453C17.0057 8.62762 18.9478 11.0233 19.6807 13.9248L21.2002 11.9004C21.5315 11.4586 22.1578 11.369 22.5996 11.7002C23.0414 12.0315 23.131 12.6578 22.7998 13.0996L19.7998 17.0996C19.7964 17.1042 19.7916 17.1078 19.7881 17.1123C19.7761 17.1277 19.7638 17.1426 19.751 17.1572C19.7423 17.1672 19.7336 17.177 19.7246 17.1865C19.7122 17.1996 19.6996 17.2122 19.6865 17.2246C19.6751 17.2355 19.6632 17.2456 19.6514 17.2559C19.6398 17.2658 19.6282 17.2757 19.6162 17.2852C19.6049 17.2941 19.5937 17.3031 19.582 17.3115C19.5674 17.3221 19.5524 17.332 19.5371 17.3418C19.5246 17.3497 19.5118 17.3569 19.499 17.3643C19.4843 17.3728 19.4693 17.3809 19.4541 17.3887C19.4457 17.393 19.4373 17.3973 19.4287 17.4014C19.4072 17.4116 19.3856 17.4219 19.3633 17.4307C19.3578 17.4328 19.3522 17.4345 19.3467 17.4365C19.3226 17.4454 19.2983 17.4539 19.2734 17.4609C19.2699 17.4619 19.2662 17.4619 19.2627 17.4629C19.1839 17.4843 19.1018 17.4976 19.0166 17.499C19.0111 17.4991 19.0055 17.499 19 17.499V17.5C18.9945 17.5 18.9889 17.4991 18.9834 17.499C18.9574 17.4986 18.9313 17.4976 18.9053 17.4951C18.8882 17.4935 18.8713 17.4907 18.8545 17.4883C18.8395 17.4861 18.8245 17.4834 18.8096 17.4805C18.7951 17.4777 18.7809 17.4741 18.7666 17.4707C18.7507 17.4669 18.7346 17.4636 18.7188 17.459C18.6631 17.4427 18.6097 17.4217 18.5586 17.3965C18.5534 17.3939 18.5482 17.3913 18.543 17.3887C18.5257 17.3798 18.5089 17.3702 18.4922 17.3604C18.4848 17.356 18.477 17.3522 18.4697 17.3477L14.4697 14.8477C14.0017 14.5549 13.8597 13.9379 14.1523 13.4697C14.4451 13.0017 15.0621 12.8597 15.5303 13.1523L17.7754 14.5547C17.2117 12.1477 15.6287 10.1854 13.5684 9.19824C12.6317 8.74957 11.5937 8.5 10.5 8.5C6.41097 8.5 3 12.0271 3 16.5C3 17.0523 2.55228 17.5 2 17.5C1.44772 17.5 1 17.0523 1 16.5C1 11.0318 5.20023 6.5 10.5 6.5Z" fill="#9E9E9E"/>
</g>
</svg>
