<svg width="24" height="24" viewBox="0 0 24 24" fill="none" xmlns="http://www.w3.org/2000/svg">
<g id="icons/Arrows/go-end">
<path id="Union" d="M6.29303 5.29297C6.68356 4.90248 7.31658 4.90246 7.70709 5.29297L13.7071 11.293C14.0976 11.6835 14.0976 12.3165 13.7071 12.707L7.70709 18.707C7.31658 19.0975 6.68356 19.0975 6.29303 18.707C5.90251 18.3165 5.90251 17.6835 6.29303 17.293L11.586 12L6.29303 6.70703C5.90251 6.31651 5.90251 5.68349 6.29303 5.29297ZM17.0001 5C17.5523 5.00004 18.0001 5.44774 18.0001 6V18C18.0001 18.5523 17.5523 19 17.0001 19C16.4478 19 16.0001 18.5523 16.0001 18V6C16.0001 5.44772 16.4478 5 17.0001 5Z" fill="#9E9E9E"/>
</g>
</svg>
