<svg width="24" height="24" viewBox="0 0 24 24" fill="none" xmlns="http://www.w3.org/2000/svg">
<g id="icons/Arrows/incoming">
<path id="Union" d="M4.29297 13.793C4.68349 13.4024 5.31651 13.4024 5.70703 13.793C6.09756 14.1835 6.09756 14.8165 5.70703 15.207L4.41406 16.5H22C22.5523 16.5 23 16.9477 23 17.5C23 18.0523 22.5523 18.5 22 18.5H4.41406L5.70703 19.793C6.09756 20.1835 6.09756 20.8165 5.70703 21.207C5.31651 21.5976 4.68349 21.5976 4.29297 21.207L1.29297 18.207C1.26536 18.1794 1.2405 18.15 1.2168 18.1201C1.18065 18.0745 1.14798 18.0261 1.12012 17.9746C1.11269 17.9609 1.10634 17.9466 1.09961 17.9326C1.0778 17.8873 1.05783 17.8408 1.04297 17.792C1.0303 17.7503 1.02176 17.7077 1.01465 17.665C1.00571 17.6113 1 17.5563 1 17.5C1 17.4203 1.00973 17.3429 1.02734 17.2686C1.03221 17.248 1.03678 17.2273 1.04297 17.207C1.05787 17.1583 1.07777 17.1117 1.09961 17.0664C1.11877 17.0266 1.1403 16.9877 1.16504 16.9502C1.20242 16.8935 1.24516 16.8408 1.29297 16.793L4.29297 13.793ZM16.5 3.5C17.8058 3.5 18.9141 4.33533 19.3262 5.5H22C22.5523 5.5 23 5.94772 23 6.5C23 7.05228 22.5523 7.5 22 7.5H19.3262C18.9141 8.66467 17.8058 9.5 16.5 9.5C15.1942 9.5 14.0859 8.66467 13.6738 7.5H9.82617C9.41405 8.66467 8.30583 9.5 7 9.5C5.69417 9.5 4.58595 8.66467 4.17383 7.5H2C1.44772 7.5 1 7.05228 1 6.5C1 5.94772 1.44772 5.5 2 5.5H4.17383C4.58595 4.33533 5.69417 3.5 7 3.5C8.30583 3.5 9.41405 4.33533 9.82617 5.5H13.6738C14.0859 4.33533 15.1942 3.5 16.5 3.5ZM7 5.5C6.44773 5.5 6 5.94773 6 6.5C6 7.05227 6.44773 7.5 7 7.5C7.55227 7.5 8 7.05227 8 6.5C8 5.94773 7.55227 5.5 7 5.5ZM16.5 5.5C15.9477 5.5 15.5 5.94773 15.5 6.5C15.5 7.05227 15.9477 7.5 16.5 7.5C17.0523 7.5 17.5 7.05227 17.5 6.5C17.5 5.94773 17.0523 5.5 16.5 5.5Z" fill="#9E9E9E"/>
</g>
</svg>
