<svg width="24" height="24" viewBox="0 0 24 24" fill="none" xmlns="http://www.w3.org/2000/svg">
<g id="icons/Arrows/install">
<path id="Union" d="M18.2812 1.50684C18.5472 1.53752 18.7922 1.67341 18.958 1.8877L21.4912 5.16406C21.4983 5.17317 21.5041 5.18311 21.5107 5.19238C21.8146 5.54317 22 5.99946 22 6.5V20C22 21.3807 20.8807 22.5 19.5 22.5H4.5C3.1193 22.5 2 21.3807 2 20V6.5C2 6.02333 2.16697 5.5858 2.44531 5.24219C2.46259 5.2148 2.4817 5.18822 2.50195 5.16211L5.04297 1.88672L5.11914 1.7998C5.30599 1.6092 5.56291 1.50008 5.83301 1.5H18.167L18.2812 1.50684ZM4 20C4 20.2762 4.22385 20.5 4.5 20.5H19.5C19.7762 20.5 20 20.2762 20 20V6.5H4V20ZM11.9961 8.5C12.5484 8.5 12.9961 8.94772 12.9961 9.5V15.0898L15.293 12.793C15.6835 12.4024 16.3165 12.4024 16.707 12.793C17.0976 13.1835 17.0976 13.8165 16.707 14.207L12.707 18.207C12.5437 18.3704 12.3377 18.4635 12.125 18.4902C12.1018 18.4932 12.0784 18.4957 12.0547 18.4971C12.0358 18.4981 12.017 18.4991 11.998 18.499L11.9961 18.5C11.7 18.5 11.4351 18.3705 11.252 18.166L7.29297 14.207C6.90244 13.8165 6.90244 13.1835 7.29297 12.793C7.68349 12.4024 8.31651 12.4024 8.70703 12.793L10.9961 15.082V9.5C10.9961 8.94772 11.4438 8.5 11.9961 8.5ZM5.54785 4.5H18.4492L17.6758 3.5H6.32324L5.54785 4.5Z" fill="#9E9E9E"/>
</g>
</svg>
