<svg width="24" height="24" viewBox="0 0 24 24" fill="none" xmlns="http://www.w3.org/2000/svg">
<g id="icons/Arrows/invert-right">
<path id="Union" d="M19.0166 6.5C19.1017 6.50139 19.184 6.51474 19.2627 6.53613C19.2662 6.53708 19.27 6.5371 19.2734 6.53809C19.3249 6.55269 19.3741 6.57245 19.4219 6.59473C19.434 6.60037 19.4461 6.60616 19.458 6.6123C19.4719 6.61948 19.4855 6.62697 19.499 6.63477C19.5112 6.64175 19.5233 6.64873 19.5352 6.65625C19.5809 6.6853 19.6238 6.71805 19.6641 6.75391C19.6684 6.75774 19.6725 6.76171 19.6768 6.76562C19.6939 6.7814 19.7106 6.79753 19.7266 6.81445C19.7349 6.82332 19.7429 6.83257 19.751 6.8418C19.763 6.85553 19.7748 6.8694 19.7861 6.88379C19.7905 6.88942 19.7955 6.89465 19.7998 6.90039L22.7998 10.9004C23.131 11.3422 23.0413 11.9685 22.5996 12.2998C22.1578 12.631 21.5315 12.5414 21.2002 12.0996L19.6807 10.0742C18.948 12.9762 17.006 15.3722 14.4316 16.6055C13.2336 17.1794 11.9017 17.5 10.5 17.5C5.20023 17.5 1 12.9682 1 7.5C1.0001 6.9478 1.44778 6.5 2 6.5C2.55222 6.5 2.9999 6.9478 3 7.5C3 11.9729 6.41097 15.5 10.5 15.5C11.5937 15.5 12.6317 15.2504 13.5684 14.8018C15.6293 13.8143 17.2121 11.8513 17.7754 9.44336L15.5303 10.8477C15.0621 11.1403 14.4451 10.9983 14.1523 10.5303C13.8598 10.0621 14.0017 9.44512 14.4697 9.15234L18.4697 6.65234C18.4772 6.64769 18.4847 6.64311 18.4922 6.63867C18.5078 6.62942 18.5238 6.62071 18.54 6.6123C18.5516 6.60632 18.5635 6.6012 18.5752 6.5957C18.5944 6.58665 18.6139 6.57815 18.6338 6.57031C18.6406 6.56762 18.6474 6.56503 18.6543 6.5625C18.6756 6.55465 18.6968 6.54645 18.7188 6.54004C18.7345 6.53541 18.7507 6.53214 18.7666 6.52832C18.7808 6.52491 18.7951 6.52135 18.8096 6.51855C18.8245 6.51566 18.8395 6.51294 18.8545 6.51074C18.8713 6.50829 18.8882 6.50551 18.9053 6.50391C18.9423 6.50042 18.9796 6.49935 19.0166 6.5Z" fill="#9E9E9E"/>
</g>
</svg>
