<svg width="24" height="24" viewBox="0 0 24 24" fill="none" xmlns="http://www.w3.org/2000/svg">
<g id="icons/Arrows/invert-left">
<path id="Union" d="M22.0002 6.5C22.5524 6.50015 23.0002 6.94781 23.0002 7.5C23.0002 12.9681 18.7999 17.4998 13.5002 17.5C12.0986 17.5 10.7666 17.1793 9.5686 16.6055C6.99413 15.3722 5.05026 12.9763 4.31763 10.0742L2.80005 12.0996C2.46876 12.5413 1.84244 12.6309 1.40063 12.2998C0.958859 11.9685 0.869207 11.3422 1.20044 10.9004L4.20044 6.90039L4.21118 6.88672C4.22313 6.87137 4.23548 6.85641 4.24829 6.8418L4.26196 6.82617C4.26678 6.82088 4.2717 6.81571 4.27661 6.81055C4.28679 6.79988 4.29723 6.78951 4.30786 6.7793C4.31919 6.7684 4.3303 6.75735 4.34204 6.74707C4.38238 6.71179 4.42626 6.68085 4.47192 6.65234C4.49753 6.6364 4.52328 6.6209 4.55005 6.60742C4.64271 6.56062 4.74342 6.52775 4.84985 6.51172C4.85604 6.51078 4.8622 6.50962 4.86841 6.50879C4.91147 6.50313 4.95564 6.5 5.00024 6.5C5.00907 6.5 5.01784 6.50075 5.02661 6.50098C5.03118 6.50109 5.03572 6.50177 5.04028 6.50195C5.09321 6.50405 5.14505 6.50951 5.19556 6.51953C5.22763 6.52591 5.25967 6.53335 5.29126 6.54297C5.33639 6.55669 5.37994 6.57407 5.42212 6.59375C5.43723 6.6008 5.45217 6.60834 5.46704 6.61621C5.47658 6.62126 5.486 6.62649 5.49536 6.63184C5.50703 6.6385 5.51903 6.64516 5.53052 6.65234L9.53052 9.15234C9.99837 9.44517 10.1404 10.0621 9.8479 10.5303C9.55514 10.9983 8.93817 11.1401 8.46997 10.8477L6.2229 9.44336C6.78618 11.8514 8.37086 13.8143 10.4319 14.8018C11.3684 15.2504 12.4067 15.5 13.5002 15.5C17.5892 15.4998 21.0002 11.9728 21.0002 7.5C21.0002 6.94772 21.448 6.5 22.0002 6.5Z" fill="#9E9E9E"/>
</g>
</svg>
