<svg width="24" height="24" viewBox="0 0 24 24" fill="none" xmlns="http://www.w3.org/2000/svg">
<g id="icons/Arrows/left-small">
<path id="Union" d="M11.293 5.29297C11.6835 4.90244 12.3165 4.90244 12.707 5.29297C13.0975 5.6835 13.0975 6.31652 12.707 6.70703L8.41797 10.9961H18C18.5523 10.9961 19 11.4438 19 11.9961C19 12.5483 18.5523 12.9961 18 12.9961H8.41016L12.707 17.293C13.0975 17.6835 13.0975 18.3165 12.707 18.707C12.3165 19.0975 11.6835 19.0975 11.293 18.707L5.29297 12.707C5.09673 12.5108 4.99902 12.2533 5 11.9961C5 11.7003 5.12891 11.435 5.33301 11.252L11.293 5.29297Z" fill="#9E9E9E"/>
</g>
</svg>
