<svg width="24" height="24" viewBox="0 0 24 24" fill="none" xmlns="http://www.w3.org/2000/svg">
<g id="icons/Arrows/left-square">
<path id="Union" d="M19.5 2C20.8807 2 22 3.11929 22 4.5V19.5C22 20.8807 20.8807 22 19.5 22H4.5C3.11929 22 2 20.8807 2 19.5V4.5C2 3.11929 3.11929 2 4.5 2H19.5ZM4.5 4C4.22386 4 4 4.22386 4 4.5V19.5C4 19.7761 4.22386 20 4.5 20H19.5C19.7761 20 20 19.7761 20 19.5V4.5C20 4.22386 19.7761 4 19.5 4H4.5ZM13.793 6.29297C14.1835 5.90244 14.8165 5.90244 15.207 6.29297C15.5976 6.68349 15.5976 7.31651 15.207 7.70703L10.9141 12L15.207 16.293C15.5976 16.6835 15.5976 17.3165 15.207 17.707C14.8165 18.0976 14.1835 18.0976 13.793 17.707L8.79297 12.707C8.40244 12.3165 8.40244 11.6835 8.79297 11.293L13.793 6.29297Z" fill="#9E9E9E"/>
</g>
</svg>
