<svg width="24" height="24" viewBox="0 0 24 24" fill="none" xmlns="http://www.w3.org/2000/svg">
<g id="icons/Arrows/left-small-up">
<path id="Union" d="M16.5 6.5C17.0523 6.5 17.5 6.94772 17.5 7.5C17.5 8.05228 17.0523 8.5 16.5 8.5H9.91406L16.707 15.293C17.0976 15.6835 17.0976 16.3165 16.707 16.707C16.3165 17.0976 15.6835 17.0976 15.293 16.707L8.5 9.91406V16.5C8.5 17.0523 8.05228 17.5 7.5 17.5C6.94772 17.5 6.5 17.0523 6.5 16.5V7.5C6.5 7.4203 6.50973 7.34287 6.52734 7.26855C6.53221 7.248 6.53678 7.2273 6.54297 7.20703C6.55787 7.15828 6.57777 7.11167 6.59961 7.06641C6.61877 7.02662 6.6403 6.98768 6.66504 6.9502C6.7557 6.81279 6.87904 6.69886 7.02441 6.62012C7.03816 6.61268 7.0524 6.60635 7.06641 6.59961C7.11167 6.57777 7.15828 6.55787 7.20703 6.54297C7.2273 6.53678 7.248 6.53221 7.26855 6.52734C7.2799 6.52465 7.29124 6.52183 7.30273 6.51953C7.30468 6.51914 7.30665 6.51893 7.30859 6.51855L7.39746 6.50488C7.43116 6.50145 7.46539 6.5 7.5 6.5H16.5Z" fill="#9E9E9E"/>
</g>
</svg>
