<svg width="24" height="24" viewBox="0 0 24 24" fill="none" xmlns="http://www.w3.org/2000/svg">
<g id="icons/Arrows/left-small-down">
<path id="Union" d="M7.5 6.5C8.05228 6.5 8.5 6.94772 8.5 7.5V14.0859L15.293 7.29297C15.6835 6.90244 16.3165 6.90244 16.707 7.29297C17.0976 7.68349 17.0976 8.31651 16.707 8.70703L9.91406 15.5H16.5C17.0523 15.5 17.5 15.9477 17.5 16.5C17.5 17.0523 17.0523 17.5 16.5 17.5H7.5C7.44333 17.5 7.38808 17.4934 7.33398 17.4844C7.32358 17.4826 7.31309 17.4816 7.30273 17.4795C7.29123 17.4772 7.27991 17.4744 7.26855 17.4717C7.24799 17.4668 7.22732 17.4623 7.20703 17.4561C7.15838 17.4412 7.11159 17.4222 7.06641 17.4004C7.02662 17.3812 6.98768 17.3597 6.9502 17.335C6.81255 17.2441 6.69887 17.1203 6.62012 16.9746C6.61269 16.9609 6.60634 16.9466 6.59961 16.9326C6.5778 16.8873 6.55783 16.8408 6.54297 16.792C6.5303 16.7503 6.52176 16.7077 6.51465 16.665C6.50571 16.6113 6.5 16.5563 6.5 16.5V7.5C6.5 6.94772 6.94772 6.5 7.5 6.5Z" fill="#9E9E9E"/>
</g>
</svg>
