<svg width="24" height="24" viewBox="0 0 24 24" fill="none" xmlns="http://www.w3.org/2000/svg">
<g id="icons/Arrows/left-two">
<path id="Union" d="M11.2748 1.8125C11.5563 1.5154 11.9902 1.41977 12.3705 1.57129C12.7505 1.72294 13.0004 2.09077 13.0004 2.5V7.5H21.0004C21.5525 7.5002 22.0004 7.94784 22.0004 8.5V15.5C22.0002 16.0521 21.5524 16.4998 21.0004 16.5H13.0004V21.5C13.0003 21.9092 12.7506 22.2771 12.3705 22.4287C11.9903 22.5802 11.5563 22.4844 11.2748 22.1875L2.27478 12.6875C1.90938 12.3018 1.90938 11.6982 2.27478 11.3125L11.2748 1.8125ZM4.37634 12L11.0004 18.9902V15.5C11.0004 14.9477 11.4481 14.5 12.0004 14.5H20.0004V9.5H12.0004C11.4482 9.5 11.0005 9.05218 11.0004 8.5V5.00879L4.37634 12Z" fill="#9E9E9E"/>
</g>
</svg>
