<svg width="24" height="24" viewBox="0 0 24 24" fill="none" xmlns="http://www.w3.org/2000/svg">
<g id="icons/Arrows/left-c">
<path id="Union" d="M12 1C18.0751 1 23 5.92487 23 12C23 18.0751 18.0751 23 12 23C5.92487 23 1 18.0751 1 12C1 5.92487 5.92487 1 12 1ZM12 3C7.02943 3 3 7.02943 3 12C3 16.9706 7.02943 21 12 21C16.9706 21 21 16.9706 21 12C21 7.02943 16.9706 3 12 3ZM12.793 6.79297C13.1835 6.40244 13.8165 6.40244 14.207 6.79297C14.5976 7.18349 14.5976 7.81651 14.207 8.20703L10.4141 12L14.207 15.793C14.5976 16.1835 14.5976 16.8165 14.207 17.207C13.8165 17.5976 13.1835 17.5976 12.793 17.207L8.29297 12.707C7.90244 12.3165 7.90244 11.6835 8.29297 11.293L12.793 6.79297Z" fill="#9E9E9E"/>
</g>
</svg>
