<svg width="24" height="24" viewBox="0 0 24 24" fill="none" xmlns="http://www.w3.org/2000/svg">
<g id="icons/Arrows/login">
<path id="Union" d="M11.9961 2C12.5483 2.00013 12.9961 2.4478 12.9961 3C12.9961 3.5522 12.5483 3.99987 11.9961 4H4V20H12C12.5523 20 13 20.4477 13 21C13 21.5523 12.5523 22 12 22H3C2.44772 22 2 21.5523 2 21V3C2 2.44772 2.44772 2 3 2H11.9961ZM11.793 6.79297C12.1835 6.40244 12.8165 6.40244 13.207 6.79297C13.5976 7.18349 13.5976 7.81651 13.207 8.20703L10.418 10.9961H21C21.5523 10.9961 22 11.4438 22 11.9961C22 12.5484 21.5523 12.9961 21 12.9961H10.4102L13.207 15.793C13.5976 16.1835 13.5976 16.8165 13.207 17.207C12.8165 17.5976 12.1835 17.5976 11.793 17.207L7.29297 12.707C7.09671 12.5108 6.999 12.2533 7 11.9961C7 11.7003 7.12888 11.435 7.33301 11.252L11.793 6.79297Z" fill="#9E9E9E"/>
</g>
</svg>
