<svg width="24" height="24" viewBox="0 0 24 24" fill="none" xmlns="http://www.w3.org/2000/svg">
<g id="icons/Arrows/logout">
<path id="Union" d="M11.9961 2C12.5483 2.00013 12.9961 2.4478 12.9961 3C12.9961 3.5522 12.5483 3.99987 11.9961 4H4V20H12C12.5523 20 13 20.4477 13 21C13 21.5523 12.5523 22 12 22H3C2.44772 22 2 21.5523 2 21V3C2 2.44772 2.44772 2 3 2H11.9961ZM15.793 6.79297C16.1835 6.40244 16.8165 6.40244 17.207 6.79297L21.666 11.252C21.8705 11.4351 22 11.7 22 11.9961C22.001 12.2533 21.9033 12.5108 21.707 12.707L17.207 17.207C16.8165 17.5976 16.1835 17.5976 15.793 17.207C15.4024 16.8165 15.4024 16.1835 15.793 15.793L18.5898 12.9961H8C7.44772 12.9961 7 12.5484 7 11.9961C7 11.4438 7.44772 10.9961 8 10.9961H18.582L15.793 8.20703C15.4024 7.81651 15.4024 7.18349 15.793 6.79297Z" fill="#9E9E9E"/>
</g>
</svg>
