<svg width="24" height="24" viewBox="0 0 24 24" fill="none" xmlns="http://www.w3.org/2000/svg">
<g id="icons/Arrows/menu-unfold">
<path id="Union" d="M20 17.5C20.5523 17.5 21 17.9477 21 18.5C21 19.0523 20.5523 19.5 20 19.5H4C3.44772 19.5 3 19.0523 3 18.5C3 17.9477 3.44772 17.5 4 17.5H20ZM17.4648 8.46484C17.8554 8.07433 18.4884 8.07432 18.8789 8.46484L21.707 11.293C21.7548 11.3408 21.7976 11.3935 21.835 11.4502C21.8597 11.4877 21.8812 11.5266 21.9004 11.5664C21.9222 11.6116 21.9412 11.6584 21.9561 11.707C21.9623 11.7273 21.9668 11.748 21.9717 11.7686C21.9893 11.8429 22 11.9202 22 12C22 12.0563 21.9933 12.1112 21.9844 12.165C21.9772 12.2078 21.9688 12.2503 21.9561 12.292C21.9412 12.3407 21.9222 12.3874 21.9004 12.4326C21.8936 12.4468 21.8864 12.4607 21.8789 12.4746C21.851 12.5262 21.8184 12.5745 21.7822 12.6201C21.7586 12.6498 21.7345 12.6796 21.707 12.707L18.8789 15.5361C18.4884 15.9264 17.8553 15.9264 17.4648 15.5361C17.0744 15.1457 17.0745 14.5126 17.4648 14.1221L18.5859 13H4C3.44772 13 3 12.5523 3 12C3 11.4477 3.44772 11 4 11H18.5859L17.4648 9.87891C17.0743 9.48838 17.0743 8.85537 17.4648 8.46484ZM20 4.5C20.5523 4.5 21 4.94772 21 5.5C21 6.05228 20.5523 6.5 20 6.5H4C3.44772 6.5 3 6.05228 3 5.5C3 4.94772 3.44772 4.5 4 4.5H20Z" fill="#9E9E9E"/>
</g>
</svg>
