<svg width="24" height="24" viewBox="0 0 24 24" fill="none" xmlns="http://www.w3.org/2000/svg">
<g id="icons/Arrows/menu-unfold-one">
<path id="Union" d="M20 17.75C20.5523 17.75 21 18.1977 21 18.75C21 19.3023 20.5523 19.75 20 19.75H4C3.44772 19.75 3 19.3023 3 18.75C3 18.1977 3.44772 17.75 4 17.75H20ZM7.46973 8.65234C7.77785 8.45977 8.1665 8.44903 8.48438 8.625C8.80233 8.80123 9 9.13647 9 9.5V14.5C9 14.8635 8.80233 15.1988 8.48438 15.375C8.1665 15.551 7.77785 15.5402 7.46973 15.3477L3.46973 12.8477C3.17755 12.6649 3 12.3447 3 12C3 11.6553 3.17755 11.3351 3.46973 11.1523L7.46973 8.65234ZM20 13.25C20.5523 13.25 21 13.6977 21 14.25C21 14.8023 20.5523 15.25 20 15.25H12C11.4477 15.25 11 14.8023 11 14.25C11 13.6977 11.4477 13.25 12 13.25H20ZM5.88574 12L7 12.6953V11.3037L5.88574 12ZM20 8.75C20.5523 8.75 21 9.19772 21 9.75C21 10.3023 20.5523 10.75 20 10.75H12C11.4477 10.75 11 10.3023 11 9.75C11 9.19772 11.4477 8.75 12 8.75H20ZM20 4.25C20.5523 4.25 21 4.69772 21 5.25C21 5.80228 20.5523 6.25 20 6.25H4C3.44772 6.25 3 5.80228 3 5.25C3 4.69772 3.44772 4.25 4 4.25H20Z" fill="#9E9E9E"/>
</g>
</svg>
