<svg width="24" height="24" viewBox="0 0 24 24" fill="none" xmlns="http://www.w3.org/2000/svg">
<g id="icons/Arrows/move-in">
<path id="Union" d="M12.0205 15.001C12.0381 15.0013 12.0557 15.0017 12.0732 15.0029C12.0909 15.0042 12.1085 15.0056 12.126 15.0078C12.1378 15.0093 12.1494 15.0118 12.1611 15.0137C12.1802 15.0168 12.1991 15.0203 12.2178 15.0244C12.2269 15.0264 12.236 15.029 12.2451 15.0312C12.3141 15.0487 12.3799 15.0736 12.4424 15.1045C12.4746 15.1204 12.5064 15.1376 12.5371 15.1572C12.5449 15.1622 12.5529 15.1667 12.5605 15.1719C12.6122 15.2069 12.6613 15.2472 12.707 15.293L14.707 17.293C15.0976 17.6835 15.0976 18.3165 14.707 18.707C14.3165 19.0976 13.6835 19.0976 13.293 18.707L13 18.4141V22C13 22.5523 12.5523 23 12 23C11.4477 23 11 22.5523 11 22V18.4141L10.707 18.707C10.3165 19.0976 9.68349 19.0976 9.29297 18.707C8.90244 18.3165 8.90244 17.6835 9.29297 17.293L11.293 15.293C11.3548 15.2312 11.4248 15.1778 11.501 15.1338C11.5154 15.1255 11.5302 15.1179 11.5449 15.1104C11.6073 15.0784 11.6731 15.0526 11.7422 15.0342C11.7588 15.0298 11.7753 15.025 11.792 15.0215C11.803 15.0192 11.8141 15.0176 11.8252 15.0156C11.8427 15.0125 11.8603 15.01 11.8779 15.0078C11.8957 15.0056 11.9136 15.0041 11.9316 15.0029C11.9476 15.0018 11.9635 15.0013 11.9795 15.001C11.9863 15.0008 11.9931 15 12 15C12.0069 15 12.0137 15.0008 12.0205 15.001ZM5.29297 9.29297C5.68349 8.90244 6.31651 8.90244 6.70703 9.29297L8.70703 11.293C8.75484 11.3408 8.79758 11.3935 8.83496 11.4502C8.8597 11.4877 8.88123 11.5266 8.90039 11.5664C8.92219 11.6116 8.94116 11.6584 8.95605 11.707C8.96225 11.7273 8.9668 11.748 8.97168 11.7686C8.98933 11.8429 9 11.9202 9 12C9 12.0563 8.99333 12.1112 8.98438 12.165C8.97725 12.2078 8.96875 12.2503 8.95605 12.292C8.9412 12.3407 8.92216 12.3874 8.90039 12.4326C8.89359 12.4468 8.88641 12.4607 8.87891 12.4746C8.851 12.5262 8.81843 12.5745 8.78223 12.6201C8.75863 12.6498 8.73449 12.6796 8.70703 12.707L6.70703 14.707C6.31651 15.0976 5.68349 15.0976 5.29297 14.707C4.90244 14.3165 4.90244 13.6835 5.29297 13.293L5.58594 13H2C1.44772 13 1 12.5523 1 12C1 11.4477 1.44772 11 2 11H5.58594L5.29297 10.707C4.90244 10.3165 4.90244 9.68349 5.29297 9.29297ZM17.293 9.29297C17.6835 8.90244 18.3165 8.90244 18.707 9.29297C19.0976 9.68349 19.0976 10.3165 18.707 10.707L18.4141 11H22C22.5523 11 23 11.4477 23 12C23 12.5523 22.5523 13 22 13H18.4141L18.707 13.293C19.0976 13.6835 19.0976 14.3165 18.707 14.707C18.3165 15.0976 17.6835 15.0976 17.293 14.707L15.293 12.707C15.2654 12.6794 15.2405 12.65 15.2168 12.6201C15.1807 12.5745 15.148 12.5261 15.1201 12.4746C15.1127 12.4609 15.1063 12.4466 15.0996 12.4326C15.0778 12.3873 15.0578 12.3408 15.043 12.292C15.0303 12.2503 15.0218 12.2077 15.0146 12.165C15.0057 12.1113 15 12.0563 15 12C15 11.9203 15.0097 11.8429 15.0273 11.7686C15.0322 11.748 15.0368 11.7273 15.043 11.707C15.0579 11.6583 15.0778 11.6117 15.0996 11.5664C15.1188 11.5266 15.1403 11.4877 15.165 11.4502C15.2024 11.3935 15.2452 11.3408 15.293 11.293L17.293 9.29297ZM12 10C13.1046 10 14 10.8954 14 12C14 13.1046 13.1046 14 12 14C10.8954 14 10 13.1046 10 12C10 10.8954 10.8954 10 12 10ZM12 1C12.5523 1 13 1.44772 13 2V5.58594L13.293 5.29297C13.6835 4.90244 14.3165 4.90244 14.707 5.29297C15.0976 5.68349 15.0976 6.31651 14.707 6.70703L12.707 8.70703C12.6592 8.75484 12.6065 8.79758 12.5498 8.83496C12.5121 8.85987 12.4727 8.88114 12.4326 8.90039C12.3874 8.92216 12.3407 8.9412 12.292 8.95605C12.2717 8.96224 12.251 8.96682 12.2305 8.97168C12.2191 8.97436 12.2078 8.9772 12.1963 8.97949C12.1859 8.98156 12.1754 8.98264 12.165 8.98438C12.1112 8.99333 12.0563 9 12 9C11.9433 9 11.8881 8.99343 11.834 8.98438C11.8236 8.98263 11.8131 8.98157 11.8027 8.97949C11.7912 8.97719 11.7799 8.97437 11.7686 8.97168C11.748 8.9668 11.7273 8.96225 11.707 8.95605C11.6584 8.94116 11.6116 8.92219 11.5664 8.90039C11.5266 8.88123 11.4877 8.8597 11.4502 8.83496C11.3935 8.79758 11.3408 8.75484 11.293 8.70703L9.29297 6.70703C8.90244 6.31651 8.90244 5.68349 9.29297 5.29297C9.68349 4.90244 10.3165 4.90244 10.707 5.29297L11 5.58594V2C11 1.44772 11.4477 1 12 1Z" fill="#9E9E9E"/>
</g>
</svg>
