<svg width="24" height="24" viewBox="0 0 24 24" fill="none" xmlns="http://www.w3.org/2000/svg">
<g id="icons/Arrows/new-efferent">
<path id="Union" d="M19.5 2C20.8807 2 22 3.1193 22 4.5V9.5C22 10.0523 21.5523 10.5 21 10.5C20.4477 10.5 20 10.0523 20 9.5V4.5C20 4.22385 19.7762 4 19.5 4H4.5C4.22386 4 4 4.22386 4 4.5V19.5C4 19.7762 4.22385 20 4.5 20H9.5C10.0523 20 10.5 20.4477 10.5 21C10.5 21.5523 10.0523 22 9.5 22H4.5C3.1193 22 2 20.8807 2 19.5V4.5C2 3.11929 3.11929 2 4.5 2H19.5ZM16.293 11.293C16.6835 10.9024 17.3165 10.9024 17.707 11.293L21.707 15.293C21.7548 15.3408 21.7976 15.3935 21.835 15.4502C21.8597 15.4877 21.8812 15.5266 21.9004 15.5664C21.9222 15.6116 21.9412 15.6584 21.9561 15.707C21.9623 15.7273 21.9668 15.748 21.9717 15.7686C21.9893 15.8429 22 15.9202 22 16C22 16.0563 21.9933 16.1112 21.9844 16.165C21.9772 16.2078 21.9688 16.2503 21.9561 16.292C21.9412 16.3407 21.9222 16.3874 21.9004 16.4326C21.8936 16.4468 21.8864 16.4607 21.8789 16.4746C21.851 16.5262 21.8184 16.5745 21.7822 16.6201C21.7586 16.6498 21.7345 16.6796 21.707 16.707L17.707 20.707C17.3165 21.0976 16.6835 21.0976 16.293 20.707C15.9024 20.3165 15.9024 19.6835 16.293 19.293L18.5859 17H12C11.4477 17 11 16.5523 11 16C11 15.4477 11.4477 15 12 15H18.5859L16.293 12.707C15.9024 12.3165 15.9024 11.6835 16.293 11.293Z" fill="#9E9E9E"/>
</g>
</svg>
