<svg width="24" height="24" viewBox="0 0 24 24" fill="none" xmlns="http://www.w3.org/2000/svg">
<g id="icons/Arrows/new-afferent">
<path id="Union" d="M19.5 2C20.8807 2 22 3.1193 22 4.5V9.5C22 10.0523 21.5523 10.5 21 10.5C20.4477 10.5 20 10.0523 20 9.5V4.5C20 4.22385 19.7762 4 19.5 4H4.5C4.22386 4 4 4.22386 4 4.5V19.5C4 19.7762 4.22385 20 4.5 20H9.5C10.0523 20 10.5 20.4477 10.5 21C10.5 21.5523 10.0523 22 9.5 22H4.5C3.1193 22 2 20.8807 2 19.5V4.5C2 3.11929 3.11929 2 4.5 2H19.5ZM15.293 11.293C15.6835 10.9024 16.3165 10.9024 16.707 11.293C17.0976 11.6835 17.0976 12.3165 16.707 12.707L14.4141 15H21C21.5523 15 22 15.4477 22 16C22 16.5523 21.5523 17 21 17H14.4141L16.707 19.293C17.0976 19.6835 17.0976 20.3165 16.707 20.707C16.3165 21.0976 15.6835 21.0976 15.293 20.707L11.293 16.707C11.2654 16.6794 11.2405 16.65 11.2168 16.6201C11.1807 16.5745 11.148 16.5261 11.1201 16.4746C11.1127 16.4609 11.1063 16.4466 11.0996 16.4326C11.0778 16.3873 11.0578 16.3408 11.043 16.292C11.0303 16.2503 11.0218 16.2077 11.0146 16.165C11.0057 16.1113 11 16.0563 11 16C11 15.9203 11.0097 15.8429 11.0273 15.7686C11.0322 15.748 11.0368 15.7273 11.043 15.707C11.0579 15.6583 11.0778 15.6117 11.0996 15.5664C11.1188 15.5266 11.1403 15.4877 11.165 15.4502C11.2024 15.3935 11.2452 15.3408 11.293 15.293L15.293 11.293Z" fill="#9E9E9E"/>
</g>
</svg>
