<svg width="24" height="24" viewBox="0 0 24 24" fill="none" xmlns="http://www.w3.org/2000/svg">
<g id="icons/Arrows/off-screen-one">
<path id="Union" d="M20.4503 15C21.0023 15.0003 21.4503 15.4479 21.4503 16C21.4503 16.5521 21.0023 16.9997 20.4503 17H18.465L21.7081 20.2422C22.0985 20.6327 22.0986 21.2667 21.7081 21.6572C21.3176 22.0477 20.6836 22.0477 20.2931 21.6572L17.0001 18.3633V20.5C17.0001 21.0522 16.5523 21.4999 16.0001 21.5C15.4479 21.5 15.0002 21.0522 15.0001 20.5V16C15.0001 15.4477 15.4478 15 16.0001 15H20.4503ZM8.08508 15.0039C8.10415 15.0055 8.12298 15.0081 8.14172 15.0107C8.16062 15.0134 8.17962 15.0158 8.19836 15.0195C8.21554 15.023 8.2323 15.0279 8.24915 15.0322C8.26343 15.0359 8.27798 15.0387 8.29211 15.043C8.3416 15.0581 8.38879 15.0784 8.43469 15.1006C8.50152 15.1329 8.5654 15.1727 8.62512 15.2207C8.65196 15.2423 8.67781 15.2649 8.70227 15.2891C8.70502 15.2918 8.70833 15.2941 8.71106 15.2969C8.74541 15.3316 8.77562 15.3691 8.80383 15.4072C8.81409 15.4211 8.82457 15.4348 8.83411 15.4492C8.84131 15.4601 8.84788 15.4713 8.85461 15.4824C8.86437 15.4985 8.87408 15.5146 8.88293 15.5312C8.89054 15.5456 8.89658 15.5606 8.90344 15.5752C8.9102 15.5895 8.91787 15.6035 8.92395 15.6182C8.92922 15.6309 8.9329 15.6443 8.93762 15.6572C8.97677 15.7643 9.00012 15.8794 9.00012 16V20.5C9.00008 21.0522 8.55233 21.4999 8.00012 21.5C7.44786 21.5 7.00016 21.0522 7.00012 20.5V18.3965L3.70325 21.6602C3.31078 22.0486 2.67772 22.0457 2.28918 21.6533C1.90075 21.2608 1.90454 20.6278 2.297 20.2393L5.56848 17H3.50012C2.94786 17 2.50016 16.5522 2.50012 16C2.50012 15.4477 2.94784 15 3.50012 15H8.005C8.03173 15.0001 8.05844 15.0016 8.08508 15.0039ZM2.28918 2.29688C2.67762 1.90452 3.31074 1.90086 3.70325 2.28906L7.00012 5.55273V3.5C7.00012 2.94772 7.44784 2.5 8.00012 2.5C8.55235 2.50006 9.00012 2.94776 9.00012 3.5V8C9.00008 8.55221 8.55233 8.99994 8.00012 9H3.50012C2.94786 9 2.50016 8.55225 2.50012 8C2.50012 7.44772 2.94784 7 3.50012 7H5.62024L2.297 3.71094C1.90462 3.3225 1.90097 2.68939 2.28918 2.29688ZM20.2423 2.29297C20.6328 1.90247 21.2668 1.90245 21.6573 2.29297C22.0475 2.68344 22.0475 3.31659 21.6573 3.70703L18.3644 7H20.5001C21.0524 7.00006 21.5001 7.44775 21.5001 8C21.5001 8.55221 21.0523 8.99994 20.5001 9H16.0001C15.4479 9 15.0002 8.55225 15.0001 8V3.5C15.0001 2.94772 15.4478 2.5 16.0001 2.5C16.5524 2.50006 17.0001 2.94775 17.0001 3.5V5.53516L20.2423 2.29297Z" fill="#9E9E9E"/>
</g>
</svg>
