<svg width="24" height="24" viewBox="0 0 24 24" fill="none" xmlns="http://www.w3.org/2000/svg">
<g id="icons/Arrows/off-screen-two">
<path id="Union" d="M9.5 13.5C9.55628 13.5 9.61129 13.5057 9.66504 13.5146C9.6738 13.5161 9.68268 13.5169 9.69141 13.5186L9.70117 13.5205C9.71102 13.5225 9.72073 13.525 9.73047 13.5273C9.75103 13.5322 9.77171 13.5368 9.79199 13.543C9.84077 13.5578 9.88731 13.5778 9.93262 13.5996C9.94663 13.6063 9.96086 13.6127 9.97461 13.6201C10.139 13.709 10.2745 13.8429 10.3672 14.0049C10.3788 14.0252 10.3903 14.0455 10.4004 14.0664C10.4222 14.1116 10.4412 14.1584 10.4561 14.207C10.4582 14.2141 10.4599 14.2214 10.4619 14.2285C10.4862 14.3149 10.5 14.4058 10.5 14.5V20.5C10.5 21.0523 10.0523 21.5 9.5 21.5C8.94772 21.5 8.5 21.0523 8.5 20.5V16.9141L3.70703 21.707C3.31651 22.0976 2.68349 22.0976 2.29297 21.707C1.90244 21.3165 1.90244 20.6835 2.29297 20.293L7.08594 15.5H3.5C2.94772 15.5 2.5 15.0523 2.5 14.5C2.5 13.9477 2.94772 13.5 3.5 13.5H9.5ZM21 14C21.5523 14 22 14.4477 22 15V21C22 21.5523 21.5523 22 21 22H15C14.4477 22 14 21.5523 14 21C14 20.4477 14.4477 20 15 20H20V15C20 14.4477 20.4477 14 21 14ZM20.293 2.29297C20.6835 1.90244 21.3165 1.90244 21.707 2.29297C22.0976 2.68349 22.0976 3.31651 21.707 3.70703L16.9141 8.5H20.5C21.0523 8.5 21.5 8.94772 21.5 9.5C21.5 10.0523 21.0523 10.5 20.5 10.5H14.5C14.4433 10.5 14.3881 10.4934 14.334 10.4844C14.3236 10.4826 14.3131 10.4816 14.3027 10.4795C14.2912 10.4772 14.2799 10.4744 14.2686 10.4717C14.248 10.4668 14.2273 10.4623 14.207 10.4561C14.1584 10.4412 14.1116 10.4222 14.0664 10.4004C14.0266 10.3812 13.9877 10.3597 13.9502 10.335C13.8125 10.2441 13.6989 10.1203 13.6201 9.97461C13.6127 9.96086 13.6063 9.94663 13.5996 9.93262C13.5778 9.88731 13.5578 9.84077 13.543 9.79199C13.5303 9.75034 13.5218 9.70773 13.5146 9.66504C13.5057 9.61129 13.5 9.55628 13.5 9.5V3.5C13.5 2.94772 13.9477 2.5 14.5 2.5C15.0523 2.5 15.5 2.94772 15.5 3.5V7.08594L20.293 2.29297ZM9 2C9.55228 2 10 2.44772 10 3C10 3.55228 9.55228 4 9 4H4V9C4 9.55228 3.55228 10 3 10C2.44772 10 2 9.55228 2 9V3C2 2.44772 2.44772 2 3 2H9Z" fill="#9E9E9E"/>
</g>
</svg>
