<svg width="24" height="24" viewBox="0 0 24 24" fill="none" xmlns="http://www.w3.org/2000/svg">
<g id="icons/Arrows/outgoing">
<path id="Union" d="M16.5 14.5C17.8059 14.5 18.9141 15.3353 19.3262 16.5H22C22.5523 16.5 23 16.9477 23 17.5C23 18.0522 22.5523 18.5 22 18.5H19.3262C18.914 19.6646 17.8058 20.5 16.5 20.5C15.1942 20.5 14.086 19.6646 13.6738 18.5H9.82617C9.41403 19.6646 8.30581 20.5 7 20.5C5.69419 20.5 4.58597 19.6646 4.17383 18.5H2C1.44774 18.5 1.00004 18.0522 1 17.5C1 16.9477 1.44772 16.5 2 16.5H4.17383C4.58593 15.3353 5.69414 14.5 7 14.5C8.30586 14.5 9.41407 15.3353 9.82617 16.5H13.6738C14.0859 15.3353 15.1941 14.5 16.5 14.5ZM7 16.5C6.44773 16.5 6 16.9477 6 17.5C6.00004 18.0522 6.44776 18.5 7 18.5C7.55224 18.5 7.99996 18.0522 8 17.5C8 16.9477 7.55227 16.5 7 16.5ZM16.5 16.5C15.9477 16.5 15.5 16.9477 15.5 17.5C15.5 18.0522 15.9478 18.5 16.5 18.5C17.0522 18.5 17.5 18.0522 17.5 17.5C17.5 16.9477 17.0523 16.5 16.5 16.5ZM18.293 2.79297C18.6835 2.40244 19.3165 2.40244 19.707 2.79297L22.707 5.79297C22.7548 5.84078 22.7976 5.89354 22.835 5.9502C22.8597 5.98768 22.8812 6.02661 22.9004 6.06641C22.9222 6.11159 22.9412 6.15838 22.9561 6.20703C22.9623 6.22732 22.9668 6.24798 22.9717 6.26855C22.9893 6.34291 23 6.42025 23 6.5C23 6.583 22.9878 6.66313 22.9688 6.74023C22.9646 6.75717 22.9611 6.77428 22.9561 6.79102C22.9412 6.84001 22.9223 6.88712 22.9004 6.93262C22.8804 6.97428 22.8572 7.01458 22.8311 7.05371C22.8185 7.07256 22.8048 7.09048 22.791 7.1084C22.7649 7.1422 22.738 7.17604 22.707 7.20703L19.707 10.207C19.3165 10.5975 18.6835 10.5975 18.293 10.207C17.9025 9.81652 17.9025 9.1835 18.293 8.79297L19.5859 7.5H2C1.44774 7.5 1.00004 7.05225 1 6.5C1 5.94772 1.44772 5.5 2 5.5H19.5859L18.293 4.20703C17.9025 3.81652 17.9025 3.1835 18.293 2.79297Z" fill="#9E9E9E"/>
</g>
</svg>
