<svg width="24" height="24" viewBox="0 0 24 24" fill="none" xmlns="http://www.w3.org/2000/svg">
<g id="icons/Arrows/play-cycle">
<path id="Union" d="M22 10.5C22.5523 10.5 23 10.9477 23 11.5C23 15.3796 19.8517 18.5 16 18.5H4.41406L5.70703 19.793C6.09752 20.1835 6.09754 20.8165 5.70703 21.207C5.31652 21.5975 4.68348 21.5975 4.29297 21.207L1.29297 18.207C1.26183 18.1759 1.23418 18.1424 1.20801 18.1084C1.19423 18.0905 1.18053 18.0725 1.16797 18.0537C1.14195 18.0147 1.11956 17.9741 1.09961 17.9326C1.07767 17.887 1.05788 17.8401 1.04297 17.791C1.0379 17.7743 1.03445 17.7572 1.03027 17.7402C1.01125 17.6632 1.00001 17.5829 1 17.5C1 17.4342 1.00738 17.3699 1.01953 17.3076C1.02612 17.2739 1.03289 17.2401 1.04297 17.207C1.05787 17.1583 1.07777 17.1117 1.09961 17.0664C1.11877 17.0266 1.1403 16.9877 1.16504 16.9502C1.20242 16.8935 1.24516 16.8408 1.29297 16.793L4.29297 13.793C4.68349 13.4024 5.31651 13.4024 5.70703 13.793C6.09752 14.1835 6.09754 14.8165 5.70703 15.207L4.41406 16.5H16C18.7521 16.5 21 14.2701 21 11.5C21 10.9477 21.4477 10.5 22 10.5ZM18.293 2.79297C18.6835 2.40244 19.3165 2.40244 19.707 2.79297L22.707 5.79297C22.7548 5.84078 22.7976 5.89354 22.835 5.9502C22.8597 5.98768 22.8812 6.02661 22.9004 6.06641C22.9222 6.11159 22.9412 6.15838 22.9561 6.20703C22.9623 6.22732 22.9668 6.24798 22.9717 6.26855C22.9893 6.34291 23 6.42025 23 6.5C23 6.583 22.9878 6.66313 22.9688 6.74023C22.9646 6.75717 22.9611 6.77428 22.9561 6.79102C22.9412 6.84001 22.9223 6.88712 22.9004 6.93262C22.8804 6.97428 22.8572 7.01458 22.8311 7.05371C22.822 7.06734 22.8125 7.0806 22.8027 7.09375C22.7737 7.13295 22.7426 7.17149 22.707 7.20703L19.707 10.207C19.3165 10.5975 18.6835 10.5975 18.293 10.207C17.9025 9.81652 17.9025 9.1835 18.293 8.79297L19.5859 7.5H8C5.2479 7.5 3 9.72988 3 12.5C2.99996 13.0522 2.55226 13.5 2 13.5C1.44774 13.5 1.00004 13.0522 1 12.5C1 8.62032 4.14834 5.5 8 5.5H19.5859L18.293 4.20703C17.9025 3.81652 17.9025 3.1835 18.293 2.79297Z" fill="#9E9E9E"/>
</g>
</svg>
