<svg width="24" height="24" viewBox="0 0 24 24" fill="none" xmlns="http://www.w3.org/2000/svg">
<g id="icons/Arrows/play-once">
<path id="Union" d="M18.293 2.79297C18.6835 2.40244 19.3165 2.40244 19.707 2.79297L22.707 5.79297C22.7548 5.84078 22.7976 5.89354 22.835 5.9502C22.8597 5.98768 22.8812 6.02661 22.9004 6.06641C22.9222 6.11159 22.9412 6.15838 22.9561 6.20703C22.9623 6.22732 22.9668 6.24798 22.9717 6.26855C22.9893 6.34291 23 6.42025 23 6.5C23 6.583 22.9878 6.66313 22.9688 6.74023C22.9646 6.75717 22.9611 6.77428 22.9561 6.79102C22.9412 6.84001 22.9223 6.88712 22.9004 6.93262C22.8804 6.97428 22.8572 7.01458 22.8311 7.05371C22.822 7.06734 22.8125 7.0806 22.8027 7.09375C22.7737 7.13295 22.7426 7.17149 22.707 7.20703L19.707 10.207C19.3165 10.5975 18.6835 10.5975 18.293 10.207C17.9025 9.81652 17.9025 9.1835 18.293 8.79297L19.5859 7.5H8C5.2479 7.5 3 9.72988 3 12.5C3.00004 15.2828 5.24669 17.5 8 17.5H15C16.9083 17.5 18.6084 16.6101 19.709 15.2188C20.1352 14.6799 20.4706 14.0663 20.6924 13.4023C20.7942 13.0976 20.8719 12.7816 20.9238 12.457C21.0111 11.9119 21.5242 11.5409 22.0693 11.6279C22.6147 11.7152 22.9867 12.2281 22.8994 12.7734C22.83 13.207 22.7251 13.6296 22.5889 14.0371C22.2923 14.9247 21.8447 15.7427 21.2773 16.46C19.8138 18.31 17.5455 19.5 15 19.5H8C4.15033 19.5 1.00004 16.3956 1 12.5C1 8.62032 4.14834 5.5 8 5.5H19.5859L18.293 4.20703C17.9025 3.81652 17.9025 3.1835 18.293 2.79297ZM12 8.5L12.1025 8.50488C12.1236 8.50703 12.1443 8.51121 12.165 8.51465C12.1738 8.51611 12.1827 8.51686 12.1914 8.51855L12.2012 8.52051C12.211 8.52252 12.2207 8.52504 12.2305 8.52734C12.251 8.5322 12.2717 8.5368 12.292 8.54297C12.3408 8.55784 12.3873 8.5778 12.4326 8.59961C12.4466 8.60635 12.4609 8.61269 12.4746 8.62012C12.6203 8.69888 12.7441 8.81253 12.835 8.9502C12.8597 8.98768 12.8812 9.02661 12.9004 9.06641C12.9222 9.11159 12.9412 9.15838 12.9561 9.20703C12.9623 9.22732 12.9668 9.24798 12.9717 9.26855C12.9893 9.34291 13 9.42025 13 9.5V15.5C13 16.0522 12.5523 16.5 12 16.5C11.4477 16.5 11 16.0522 11 15.5V11.9141L10.457 12.457C10.0665 12.8475 9.43348 12.8475 9.04297 12.457C8.65246 12.0665 8.65248 11.4335 9.04297 11.043L11.293 8.79297C11.3611 8.72481 11.439 8.6664 11.5244 8.62012C11.5382 8.61268 11.5524 8.60636 11.5664 8.59961C11.6117 8.57777 11.6583 8.55788 11.707 8.54297C11.7273 8.53678 11.748 8.53222 11.7686 8.52734C11.7799 8.52465 11.7912 8.52183 11.8027 8.51953C11.8047 8.51914 11.8067 8.51893 11.8086 8.51855L11.8975 8.50488C11.9312 8.50145 11.9654 8.5 12 8.5Z" fill="#9E9E9E"/>
</g>
</svg>
