<svg width="24" height="24" viewBox="0 0 24 24" fill="none" xmlns="http://www.w3.org/2000/svg">
<g id="icons/Arrows/recycling-pool">
<path id="Union" d="M22 17C22.5523 17 23 17.4477 23 18V20C23 21.6568 21.6568 23 20 23H4C2.34314 23 1 21.6568 1 20V18C1 17.4477 1.44772 17 2 17C2.55228 17 3 17.4477 3 18V20C3 20.5523 3.44772 21 4 21H20C20.5523 21 21 20.5523 21 20V18C21 17.4477 21.4477 17 22 17ZM4 6.81836C5.65682 6.81836 7 8.16146 7 9.81836V14.0859L7.29297 13.793C7.68349 13.4024 8.31651 13.4024 8.70703 13.793C9.09756 14.1835 9.09756 14.8165 8.70703 15.207L6.70703 17.207C6.31651 17.5976 5.68349 17.5976 5.29297 17.207L3.29297 15.207C2.90244 14.8165 2.90244 14.1835 3.29297 13.793C3.68349 13.4024 4.31651 13.4024 4.70703 13.793L5 14.0859V9.81836C5 9.26606 4.55228 8.81836 4 8.81836H2C1.44772 8.81836 1 8.37064 1 7.81836C1 7.26607 1.44772 6.81836 2 6.81836H4ZM22 6.81836C22.5523 6.81836 23 7.26607 23 7.81836C23 8.37064 22.5523 8.81836 22 8.81836H20C19.4477 8.81836 19 9.26606 19 9.81836V14.0859L19.293 13.793C19.6835 13.4024 20.3165 13.4024 20.707 13.793C21.0976 14.1835 21.0976 14.8165 20.707 15.207L18.707 17.207C18.3165 17.5976 17.6835 17.5976 17.293 17.207L15.293 15.207C14.9024 14.8165 14.9024 14.1835 15.293 13.793C15.6835 13.4024 16.3165 13.4024 16.707 13.793L17 14.0859V9.81836C17 8.16146 18.3432 6.81836 20 6.81836H22ZM12 1C12.5523 1 13 1.44772 13 2V7.58594L13.293 7.29297C13.6835 6.90244 14.3165 6.90244 14.707 7.29297C15.0976 7.68349 15.0976 8.31651 14.707 8.70703L12.707 10.707C12.6592 10.7548 12.6065 10.7976 12.5498 10.835C12.5121 10.8599 12.4727 10.8811 12.4326 10.9004C12.3874 10.9222 12.3407 10.9412 12.292 10.9561C12.2717 10.9622 12.251 10.9668 12.2305 10.9717C12.2191 10.9744 12.2078 10.9772 12.1963 10.9795C12.1859 10.9816 12.1754 10.9826 12.165 10.9844C12.1112 10.9933 12.0563 11 12 11C11.9433 11 11.8881 10.9934 11.834 10.9844C11.8236 10.9826 11.8131 10.9816 11.8027 10.9795C11.7912 10.9772 11.7799 10.9744 11.7686 10.9717C11.748 10.9668 11.7273 10.9623 11.707 10.9561C11.6584 10.9412 11.6116 10.9222 11.5664 10.9004C11.5266 10.8812 11.4877 10.8597 11.4502 10.835C11.3935 10.7976 11.3408 10.7548 11.293 10.707L9.29297 8.70703C8.90244 8.31651 8.90244 7.68349 9.29297 7.29297C9.68349 6.90244 10.3165 6.90244 10.707 7.29297L11 7.58594V2C11 1.44772 11.4477 1 12 1Z" fill="#9E9E9E"/>
</g>
</svg>
