<svg width="24" height="24" viewBox="0 0 24 24" fill="none" xmlns="http://www.w3.org/2000/svg">
<g id="icons/Arrows/recycling">
<path id="Union" d="M17.9761 12.6484C18.4463 12.3593 19.0626 12.5055 19.3521 12.9756L22.4146 17.9521C23.2337 19.2843 22.2753 20.9993 20.7114 21H14.9146L15.2075 21.293C15.5977 21.6834 15.5978 22.3166 15.2075 22.707C14.8171 23.0975 14.184 23.0973 13.7935 22.707L11.8022 20.7158C11.7519 20.6667 11.7066 20.6125 11.6675 20.5537C11.6611 20.5442 11.6559 20.5341 11.6499 20.5244C11.605 20.4518 11.5687 20.3734 11.5435 20.29C11.5394 20.2765 11.5362 20.2627 11.5327 20.249C11.5203 20.2008 11.5104 20.1514 11.5054 20.1006C11.4921 19.9691 11.5047 19.8354 11.5435 19.708C11.5932 19.5449 11.6831 19.3992 11.8022 19.2832L13.7935 17.293C14.184 16.9026 14.8171 16.9025 15.2075 17.293C15.5977 17.6834 15.5978 18.3166 15.2075 18.707L14.9146 19H20.7104L17.6489 14.0244C17.3595 13.5541 17.5059 12.938 17.9761 12.6484ZM6.53467 10.5C6.69585 10.5053 6.85847 10.5502 7.00732 10.6377C7.29859 10.8092 7.46976 11.1057 7.49561 11.4189L8.18018 13.9736C8.32278 14.5068 8.00622 15.0552 7.47314 15.1982C6.93993 15.3409 6.39164 15.0243 6.24854 14.4912L6.13916 14.0859L3.24951 19H8.50049C9.05257 19.0002 9.50049 19.4479 9.50049 20C9.50046 20.5521 9.05256 20.9998 8.50049 21H3.24951C1.70287 21 0.741024 19.3195 1.5249 17.9863L4.40381 13.0918L4.00928 13.1982C3.47601 13.3411 2.92781 13.0243 2.78467 12.4912C2.64173 11.9578 2.95829 11.4096 3.4917 11.2666L6.22412 10.5342L6.32373 10.5127C6.38629 10.5026 6.44868 10.4983 6.51025 10.5H6.53467ZM10.3433 2.47949C11.1344 1.22549 13.0046 1.23882 13.7632 2.55273L16.4155 7.14844L16.4985 6.8418C16.6415 6.30844 17.1898 5.99197 17.7231 6.13477C18.2563 6.27787 18.573 6.82607 18.4302 7.35938L17.7524 9.88965C17.7403 9.97539 17.7167 10.0588 17.6831 10.1387C17.6073 10.3739 17.4479 10.5739 17.2329 10.6982C17.0035 10.8307 16.7301 10.8672 16.4741 10.7988L13.7417 10.0664C13.2082 9.92346 12.8917 9.37525 13.0347 8.8418C13.1776 8.30837 13.7258 7.99183 14.2593 8.13477L14.7524 8.2666L12.0308 3.55273L9.38135 8.47363C9.11967 8.95961 8.51298 9.142 8.02686 8.88086C7.54076 8.61911 7.35821 8.01255 7.61963 7.52637L10.27 2.60449L10.3433 2.47949Z" fill="#9E9E9E"/>
</g>
</svg>
