<svg width="24" height="24" viewBox="0 0 24 24" fill="none" xmlns="http://www.w3.org/2000/svg">
<g id="icons/Arrows/redo">
<path id="Union" d="M12 2C14.7612 2 17.2628 3.12015 19.0713 4.92871C19.3237 5.18112 19.6563 5.53555 20 5.90723V4C20 3.44772 20.4477 3 21 3C21.5523 3 22 3.44772 22 4V8.5C22 8.51047 21.9984 8.52086 21.998 8.53125C21.9976 8.54593 21.9972 8.56055 21.9961 8.5752C21.9948 8.59295 21.9925 8.61045 21.9902 8.62793C21.9878 8.64722 21.985 8.66641 21.9814 8.68555C21.9794 8.69638 21.977 8.70706 21.9746 8.71777C21.9705 8.73613 21.9661 8.75433 21.9609 8.77246C21.9561 8.78958 21.951 8.80651 21.9453 8.82324C21.9414 8.83475 21.937 8.84604 21.9326 8.85742C21.9259 8.87494 21.9188 8.89216 21.9111 8.90918C21.9029 8.92763 21.8942 8.94586 21.8848 8.96387C21.8806 8.97175 21.8764 8.97955 21.8721 8.9873C21.8628 9.00385 21.853 9.02004 21.8428 9.03613C21.8342 9.04964 21.8256 9.06312 21.8164 9.07617C21.8057 9.09129 21.7938 9.1055 21.7822 9.12012C21.7757 9.1283 21.7694 9.13656 21.7627 9.14453C21.7467 9.16343 21.7305 9.18229 21.7129 9.2002C21.7072 9.20595 21.7011 9.21118 21.6953 9.2168C21.6848 9.227 21.6751 9.23822 21.6641 9.24805C21.6569 9.25438 21.6489 9.25954 21.6416 9.26562C21.6352 9.27099 21.6286 9.27604 21.6221 9.28125C21.6041 9.29558 21.586 9.30936 21.5674 9.32227C21.5565 9.32977 21.5453 9.33667 21.5342 9.34375C21.5171 9.35462 21.5 9.36528 21.4824 9.375C21.475 9.37909 21.4675 9.38282 21.46 9.38672C21.4399 9.39711 21.4199 9.40708 21.3994 9.41602C21.3792 9.42483 21.3587 9.43294 21.3379 9.44043C21.3304 9.44311 21.323 9.44574 21.3154 9.44824C21.3003 9.45327 21.285 9.4576 21.2695 9.46191C21.2478 9.46798 21.2261 9.47395 21.2041 9.47852C21.198 9.47979 21.1917 9.48029 21.1855 9.48145C21.1641 9.48547 21.1427 9.4886 21.1211 9.49121C21.1007 9.49367 21.0803 9.49585 21.0596 9.49707C21.0472 9.4978 21.0348 9.49778 21.0225 9.49805C21.015 9.49821 21.0075 9.5 21 9.5H16.5C15.9477 9.5 15.5 9.05228 15.5 8.5C15.5 7.94772 15.9477 7.5 16.5 7.5H18.7471C18.3379 7.05417 17.9363 6.6218 17.6572 6.34277C16.2085 4.89396 14.2094 4 12 4C7.58173 4 4 7.58173 4 12C4 16.4183 7.58173 20 12 20C14.2094 20 16.2085 19.106 17.6572 17.6572C18.0477 17.2667 18.6808 17.2667 19.0713 17.6572C19.4615 18.0478 19.4617 18.6809 19.0713 19.0713C17.2628 20.8799 14.7612 22 12 22C6.47717 22 2 17.5228 2 12C2 6.47717 6.47717 2 12 2Z" fill="#9E9E9E"/>
</g>
</svg>
