<svg width="24" height="24" viewBox="0 0 24 24" fill="none" xmlns="http://www.w3.org/2000/svg">
<g id="icons/Arrows/reject">
<path id="Union" d="M19.5 2C20.8807 2 22 3.1193 22 4.5V9.51562C21.9998 10.0677 21.5521 10.5156 21 10.5156C20.4479 10.5156 20.0002 10.0677 20 9.51562V4.5C20 4.22385 19.7762 4 19.5 4H4.5C4.22386 4 4 4.22386 4 4.5V19.5C4 19.7762 4.22385 20 4.5 20H9.50488C10.0572 20 10.5049 20.4477 10.5049 21C10.5049 21.5523 10.0572 22 9.50488 22H4.5C3.1193 22 2 20.8807 2 19.5V4.5C2 3.11929 3.11929 2 4.5 2H19.5ZM10.793 10.793C11.1835 10.4024 11.8165 10.4024 12.207 10.793C12.5976 11.1835 12.5976 11.8165 12.207 12.207L10.8965 13.5176H21C21.5523 13.5176 22 13.9653 22 14.5176V20.5C22 21.3284 21.3284 22 20.5 22H14.5186C13.9663 22 13.5186 21.5523 13.5186 21C13.5187 20.4478 13.9664 20 14.5186 20H20V15.5176H10.9316L12.207 16.793C12.5976 17.1835 12.5976 17.8165 12.207 18.207C11.8165 18.5976 11.1835 18.5976 10.793 18.207L7.79297 15.207C7.40244 14.8165 7.40244 14.1835 7.79297 13.793L10.793 10.793Z" fill="#9E9E9E"/>
</g>
</svg>
