<svg width="24" height="24" viewBox="0 0 24 24" fill="none" xmlns="http://www.w3.org/2000/svg">
<g id="icons/Arrows/right-two">
<path id="Union" d="M11.6299 1.57129C12.0102 1.41976 12.444 1.51535 12.7256 1.8125L21.7256 11.3125C22.0909 11.6982 22.0909 12.3018 21.7256 12.6875L12.7256 22.1875C12.444 22.4845 12.0101 22.5802 11.6299 22.4287C11.2497 22.2772 11.0001 21.9093 11 21.5V16.5H3C2.44779 16.5 2.00012 16.0522 2 15.5V8.5C2 7.94772 2.44772 7.5 3 7.5H11V2.5C11 2.09066 11.2496 1.72286 11.6299 1.57129ZM13 8.5C12.9999 9.05218 12.5522 9.5 12 9.5H4V14.5H12C12.5523 14.5 13 14.9477 13 15.5V18.9902L19.623 12L13 5.00879V8.5Z" fill="#9E9E9E"/>
</g>
</svg>
