<svg width="24" height="24" viewBox="0 0 24 24" fill="none" xmlns="http://www.w3.org/2000/svg">
<g id="icons/Arrows/right-small">
<path id="Union" d="M11.293 5.29297C11.6835 4.90244 12.3165 4.90244 12.707 5.29297L18.707 11.293C18.8701 11.4561 18.9634 11.6617 18.9902 11.874C18.9958 11.9166 19 11.9599 19 12.0039C19 12.2997 18.8702 12.564 18.666 12.7471L12.707 18.707C12.3165 19.0975 11.6835 19.0975 11.293 18.707C10.9025 18.3165 10.9025 17.6835 11.293 17.293L15.582 13.0039H6C5.44774 13.0039 5.00004 12.5562 5 12.0039C5 11.4516 5.44772 11.0039 6 11.0039H15.5898L11.293 6.70703C10.9025 6.31652 10.9025 5.6835 11.293 5.29297Z" fill="#9E9E9E"/>
</g>
</svg>
