<svg width="24" height="24" viewBox="0 0 24 24" fill="none" xmlns="http://www.w3.org/2000/svg">
<g id="icons/Arrows/right-c">
<path id="Union" d="M12 1C18.0751 1 23 5.92487 23 12C23 18.0751 18.0751 23 12 23C5.92487 23 1 18.0751 1 12C1 5.92487 5.92487 1 12 1ZM12 3C7.02943 3 3 7.02943 3 12C3 16.9706 7.02943 21 12 21C16.9706 21 21 16.9706 21 12C21 7.02943 16.9706 3 12 3ZM9.79297 6.79297C10.1835 6.40244 10.8165 6.40244 11.207 6.79297L15.707 11.293C16.0976 11.6835 16.0976 12.3165 15.707 12.707L11.207 17.207C10.8165 17.5976 10.1835 17.5976 9.79297 17.207C9.40244 16.8165 9.40244 16.1835 9.79297 15.793L13.5859 12L9.79297 8.20703C9.40244 7.81651 9.40244 7.18349 9.79297 6.79297Z" fill="#9E9E9E"/>
</g>
</svg>
