<svg width="24" height="24" viewBox="0 0 24 24" fill="none" xmlns="http://www.w3.org/2000/svg">
<g id="icons/Arrows/right-small-down">
<path id="Union" d="M16.1768 6.17676C16.729 6.17676 17.1768 6.62447 17.1768 7.17676V16.1768C17.1768 16.2331 17.1701 16.288 17.1611 16.3418C17.154 16.3845 17.1455 16.4271 17.1328 16.4688C17.118 16.5174 17.0989 16.5642 17.0771 16.6094C17.0703 16.6235 17.0632 16.6375 17.0557 16.6514C16.9769 16.7969 16.8641 16.921 16.7266 17.0117C16.6888 17.0366 16.6494 17.0579 16.6094 17.0771C16.5642 17.0989 16.5174 17.118 16.4688 17.1328C16.4485 17.139 16.4278 17.1436 16.4072 17.1484C16.3959 17.1511 16.3846 17.154 16.373 17.1562C16.3627 17.1583 16.3522 17.1594 16.3418 17.1611C16.288 17.1701 16.2331 17.1768 16.1768 17.1768H7.17676C6.62447 17.1768 6.17676 16.729 6.17676 16.1768C6.17676 15.6245 6.62447 15.1768 7.17676 15.1768H13.7627L6.96973 8.38379C6.5792 7.99326 6.5792 7.36025 6.96973 6.96973C7.36025 6.5792 7.99326 6.5792 8.38379 6.96973L15.1768 13.7627V7.17676C15.1768 6.62447 15.6245 6.17676 16.1768 6.17676Z" fill="#9E9E9E"/>
</g>
</svg>
