<svg width="24" height="24" viewBox="0 0 24 24" fill="none" xmlns="http://www.w3.org/2000/svg">
<g id="icons/Arrows/right-small-up">
<path id="Union" d="M16.5 6.5C16.5563 6.5 16.6113 6.50571 16.665 6.51465C16.6738 6.51611 16.6827 6.51686 16.6914 6.51855L16.7012 6.52051C16.711 6.52252 16.7207 6.52504 16.7305 6.52734C16.751 6.5322 16.7717 6.5368 16.792 6.54297C16.8408 6.55783 16.8873 6.5778 16.9326 6.59961C16.9466 6.60634 16.9609 6.61269 16.9746 6.62012C17.1203 6.69887 17.2441 6.81255 17.335 6.9502C17.3597 6.98768 17.3812 7.02662 17.4004 7.06641C17.4222 7.11159 17.4412 7.15838 17.4561 7.20703C17.4623 7.22732 17.4668 7.24799 17.4717 7.26855C17.4893 7.34294 17.5 7.42022 17.5 7.5V16.5C17.5 17.0523 17.0523 17.5 16.5 17.5C15.9477 17.5 15.5 17.0523 15.5 16.5V9.91406L8.70703 16.707C8.31651 17.0976 7.68349 17.0976 7.29297 16.707C6.90244 16.3165 6.90244 15.6835 7.29297 15.293L14.0859 8.5H7.5C6.94772 8.5 6.5 8.05228 6.5 7.5C6.5 6.94772 6.94772 6.5 7.5 6.5H16.5Z" fill="#9E9E9E"/>
</g>
</svg>
