<svg width="24" height="24" viewBox="0 0 24 24" fill="none" xmlns="http://www.w3.org/2000/svg">
<g id="icons/Arrows/rotate">
<path id="Union" d="M21 11C21.5523 11 22 11.4477 22 12V21C22 21.5523 21.5523 22 21 22H6C5.44772 22 5 21.5523 5 21V12C5 11.4477 5.44772 11 6 11H21ZM7 20H20V13H7V20ZM12 2C15.2967 2 18.221 3.59614 20.041 6.05371C20.3697 6.49755 20.2759 7.12445 19.832 7.45312C19.3882 7.78145 18.7622 7.68784 18.4336 7.24414C16.9745 5.27396 14.6361 4 12 4C9.41338 4 7.11339 5.22651 5.64941 7.13379C5.62918 7.16014 5.60771 7.18576 5.58496 7.20996L5.3125 7.5H7.5C8.05228 7.5 8.5 7.94772 8.5 8.5C8.5 9.05228 8.05228 9.5 7.5 9.5H3C2.98822 9.5 2.97653 9.49845 2.96484 9.49805C2.94921 9.4975 2.93357 9.49737 2.91797 9.49609C2.90121 9.49473 2.88468 9.49241 2.86816 9.49023C2.85081 9.48794 2.83365 9.48465 2.81641 9.48145C2.80032 9.47845 2.78436 9.47543 2.76855 9.47168C2.7558 9.46865 2.74312 9.46545 2.73047 9.46191C2.70704 9.45536 2.68383 9.44861 2.66113 9.44043C2.65551 9.4384 2.65013 9.43572 2.64453 9.43359C2.62234 9.42514 2.6005 9.41621 2.5791 9.40625C2.56697 9.40061 2.55491 9.39482 2.54297 9.38867C2.52634 9.3801 2.51021 9.37079 2.49414 9.36133C2.48496 9.35593 2.47584 9.35045 2.4668 9.34473C2.44752 9.33253 2.42851 9.32009 2.41016 9.30664C2.39989 9.29912 2.38992 9.29117 2.37988 9.2832C2.36502 9.27142 2.35107 9.25868 2.33691 9.24609C2.33003 9.23997 2.32219 9.23487 2.31543 9.22852C2.31224 9.22552 2.30978 9.22178 2.30664 9.21875C2.2917 9.20434 2.27769 9.18914 2.26367 9.17383C2.25443 9.16375 2.24508 9.15392 2.23633 9.14355C2.22498 9.1301 2.21376 9.11659 2.20312 9.10254C2.19468 9.0914 2.18565 9.08075 2.17773 9.06934C2.16508 9.05109 2.15402 9.0318 2.14258 9.0127C2.13732 9.00391 2.13192 8.99524 2.12695 8.98633C2.07152 8.88703 2.03255 8.7776 2.01367 8.66113C2.01119 8.64585 2.00861 8.6306 2.00684 8.61523C2.00447 8.59459 2.00305 8.57375 2.00195 8.55273C2.0014 8.54232 2.0012 8.53191 2.00098 8.52148C2.00083 8.51434 2 8.50718 2 8.5V4C2 3.44772 2.44772 3 3 3C3.55228 3 4 3.44772 4 4V5.97461L4.09961 5.86914C5.9275 3.51675 8.78678 2 12 2Z" fill="#9E9E9E"/>
</g>
</svg>
