<svg width="24" height="24" viewBox="0 0 24 24" fill="none" xmlns="http://www.w3.org/2000/svg">
<g id="icons/Arrows/rotation-horizontal">
<path id="Union" d="M12 6.5C14.883 6.5 17.5428 7.08243 19.5186 8.07031C21.4344 9.0283 23 10.5366 23 12.5C23 13.9594 22.1204 15.1746 20.9238 16.0713C19.7189 16.9743 18.0744 17.654 16.2139 18.0605C15.6745 18.1784 15.1415 17.8371 15.0234 17.2979C14.9056 16.7585 15.2469 16.2255 15.7861 16.1074C17.457 15.7424 18.8126 15.155 19.7246 14.4717C20.6451 13.7819 21 13.0909 21 12.5C21 11.7022 20.3271 10.711 18.624 9.85938C16.9805 9.03761 14.6398 8.5 12 8.5C9.36016 8.5 7.0195 9.03761 5.37598 9.85938C3.67287 10.711 3 11.7022 3 12.5C3 13.2978 3.67287 14.289 5.37598 15.1406C6.45549 15.6804 7.83604 16.0956 9.4043 16.3184L9.29297 16.207C8.90244 15.8165 8.90244 15.1835 9.29297 14.793C9.68349 14.4024 10.3165 14.4024 10.707 14.793L12.707 16.793C12.7548 16.8408 12.7976 16.8935 12.835 16.9502C12.8597 16.9877 12.8812 17.0266 12.9004 17.0664C12.9222 17.1116 12.9412 17.1584 12.9561 17.207C12.9606 17.2219 12.9639 17.237 12.9678 17.252C12.9881 17.3314 13 17.4143 13 17.5C13 17.5549 12.9939 17.6086 12.9854 17.6611C12.9782 17.7052 12.9691 17.749 12.9561 17.792C12.9412 17.8407 12.9222 17.8874 12.9004 17.9326C12.8936 17.9468 12.8864 17.9607 12.8789 17.9746C12.8581 18.013 12.835 18.0498 12.8096 18.085C12.7788 18.1274 12.7453 18.1688 12.707 18.207L10.707 20.207C10.3165 20.5976 9.68349 20.5976 9.29297 20.207C8.90244 19.8165 8.90244 19.1835 9.29297 18.793L9.71191 18.373C7.72416 18.1522 5.92111 17.6495 4.48145 16.9297C2.56565 15.9717 1 14.4634 1 12.5C1 10.5366 2.56565 9.0283 4.48145 8.07031C6.45721 7.08243 9.11699 6.5 12 6.5Z" fill="#9E9E9E"/>
</g>
</svg>
