<svg width="24" height="24" viewBox="0 0 24 24" fill="none" xmlns="http://www.w3.org/2000/svg">
<g id="icons/Arrows/rotation-vertical">
<path id="Union" d="M12 1C13.4594 1 14.6746 1.87965 15.5713 3.07617C16.4743 4.28113 17.154 5.92558 17.5605 7.78613C17.6784 8.32551 17.3371 8.85845 16.7979 8.97656C16.2585 9.0944 15.7255 8.75313 15.6074 8.21387C15.2424 6.54299 14.655 5.18737 13.9717 4.27539C13.2819 3.35488 12.5909 3 12 3C11.2022 3 10.211 3.67287 9.35938 5.37598C8.53761 7.0195 8 9.36016 8 12C8 14.6398 8.53761 16.9805 9.35938 18.624C10.211 20.3271 11.2022 21 12 21C12.7978 21 13.789 20.3271 14.6406 18.624C15.1805 17.5443 15.5956 16.1634 15.8184 14.5947L15.707 14.707C15.3165 15.0976 14.6835 15.0976 14.293 14.707C13.9024 14.3165 13.9024 13.6835 14.293 13.293L16.293 11.293C16.3548 11.2312 16.4248 11.1778 16.501 11.1338C16.5154 11.1255 16.5302 11.1179 16.5449 11.1104C16.6073 11.0784 16.6731 11.0526 16.7422 11.0342C16.7588 11.0298 16.7753 11.025 16.792 11.0215C16.803 11.0192 16.8141 11.0176 16.8252 11.0156C16.8427 11.0125 16.8603 11.01 16.8779 11.0078C16.8957 11.0056 16.9136 11.0041 16.9316 11.0029C16.9476 11.0018 16.9635 11.0013 16.9795 11.001C16.9863 11.0008 16.9931 11 17 11C17.0069 11 17.0137 11.0008 17.0205 11.001C17.0381 11.0013 17.0557 11.0017 17.0732 11.0029C17.0909 11.0042 17.1085 11.0056 17.126 11.0078C17.1378 11.0093 17.1494 11.0118 17.1611 11.0137C17.1802 11.0168 17.1991 11.0203 17.2178 11.0244C17.2269 11.0264 17.236 11.029 17.2451 11.0312C17.3141 11.0487 17.3799 11.0736 17.4424 11.1045C17.4746 11.1204 17.5064 11.1376 17.5371 11.1572C17.5449 11.1622 17.5529 11.1667 17.5605 11.1719C17.6122 11.2069 17.6613 11.2472 17.707 11.293L19.707 13.293C20.0976 13.6835 20.0976 14.3165 19.707 14.707C19.3165 15.0976 18.6835 15.0976 18.293 14.707L17.873 14.2871C17.6523 16.2752 17.1496 18.0787 16.4297 19.5186C15.4717 21.4344 13.9634 23 12 23C10.0366 23 8.5283 21.4344 7.57031 19.5186C6.58243 17.5428 6 14.883 6 12C6 9.11699 6.58243 6.45721 7.57031 4.48145C8.5283 2.56565 10.0366 1 12 1Z" fill="#9E9E9E"/>
</g>
</svg>
