<svg width="24" height="24" viewBox="0 0 24 24" fill="none" xmlns="http://www.w3.org/2000/svg">
<g id="icons/Arrows/send-one">
<path id="Union" d="M20.6509 2.0625C21.0127 1.92796 21.42 2.01421 21.6968 2.2832C21.9735 2.55266 22.0706 2.95774 21.9458 3.32324L15.4487 22.3232C15.3054 22.7424 14.903 23.0175 14.4604 22.999C14.018 22.9802 13.6394 22.6727 13.5317 22.2432L11.1841 12.8652L1.80908 11.0508C1.36952 10.9653 1.03936 10.5977 1.00244 10.1514C0.965733 9.705 1.23117 9.28817 1.65088 9.13184L20.6509 2.0625ZM5.68799 9.76367L11.6704 10.9219L14.1245 8.46875C14.5149 8.07838 15.148 8.07869 15.5386 8.46875C15.9291 8.85927 15.9291 9.49229 15.5386 9.88281L13.1069 12.3135L14.6499 18.4756L19.3696 4.67285L5.68799 9.76367Z" fill="#9E9E9E"/>
</g>
</svg>
