<svg width="24" height="24" viewBox="0 0 24 24" fill="none" xmlns="http://www.w3.org/2000/svg">
<g id="icons/Arrows/send">
<path id="Union" d="M21.5636 1.50293C21.5727 1.50352 21.5819 1.50307 21.5909 1.50391C21.6306 1.5075 21.67 1.51414 21.7091 1.52246C21.7216 1.52514 21.7338 1.52907 21.7462 1.53223C21.7723 1.53882 21.7978 1.54694 21.8234 1.55566C21.834 1.5593 21.8451 1.56144 21.8556 1.56543L21.8761 1.57422C21.9093 1.58768 21.9419 1.60294 21.9738 1.62012C21.9817 1.6244 21.9893 1.62928 21.9972 1.63379C22.0266 1.6507 22.0552 1.66931 22.0831 1.68945C22.0922 1.69599 22.1016 1.70212 22.1105 1.70898C22.1438 1.73479 22.1765 1.76236 22.2072 1.79297C22.2391 1.82491 22.2674 1.85961 22.2941 1.89453C22.2978 1.89935 22.3012 1.9043 22.3048 1.90918C22.3855 2.01871 22.4405 2.14054 22.4708 2.26758C22.4723 2.2738 22.4743 2.27988 22.4757 2.28613C22.4932 2.36619 22.5005 2.44774 22.4982 2.5293C22.4977 2.54493 22.4974 2.56053 22.4962 2.57617C22.4901 2.65733 22.4732 2.73743 22.4474 2.81543C22.4458 2.82011 22.4461 2.82541 22.4445 2.83008L15.7941 21.8301C15.6586 22.217 15.3004 22.4822 14.8907 22.499C14.4812 22.5157 14.1032 22.2808 13.9366 21.9062L10.2921 13.707L2.09387 10.0635C1.71938 9.89691 1.48444 9.51891 1.5011 9.10938C1.51798 8.69988 1.78318 8.34146 2.17004 8.20605L21.17 1.55566C21.1787 1.55264 21.1877 1.55063 21.1964 1.54785C21.229 1.53751 21.2618 1.52841 21.295 1.52148C21.3012 1.52019 21.3074 1.51875 21.3136 1.51758C21.3524 1.51026 21.3915 1.50564 21.4308 1.50293C21.4432 1.50208 21.4555 1.50234 21.4679 1.50195C21.4998 1.50093 21.5317 1.50091 21.5636 1.50293ZM12.2423 13.1709L14.7394 18.7891L19.1066 6.30664L12.2423 13.1709ZM5.21008 9.25977L10.8282 11.7568L17.6954 4.88965L5.21008 9.25977Z" fill="#9E9E9E"/>
</g>
</svg>
