<svg width="24" height="24" viewBox="0 0 24 24" fill="none" xmlns="http://www.w3.org/2000/svg">
<g id="icons/Arrows/shuffle-one">
<path id="Union" d="M19.293 2.79297C19.6835 2.40244 20.3165 2.40244 20.707 2.79297L22.707 4.79297C22.7548 4.84078 22.7976 4.89354 22.835 4.9502C22.8597 4.98768 22.8812 5.02661 22.9004 5.06641C22.9222 5.11159 22.9412 5.15838 22.9561 5.20703C22.9593 5.21769 22.962 5.22851 22.9648 5.23926C22.9873 5.32243 23 5.40975 23 5.5C23 5.583 22.9878 5.66312 22.9688 5.74023C22.9646 5.75717 22.9611 5.77428 22.9561 5.79102C22.9412 5.84001 22.9223 5.88712 22.9004 5.93262C22.8804 5.97428 22.8572 6.01458 22.8311 6.05371C22.8185 6.07256 22.8048 6.09048 22.791 6.1084C22.7649 6.1422 22.738 6.17604 22.707 6.20703L20.707 8.20703C20.3165 8.59751 19.6835 8.59751 19.293 8.20703C18.9025 7.81652 18.9025 7.1835 19.293 6.79297L19.5859 6.5H18.5C15.4624 6.5 13 8.96243 13 12C13 15.0375 15.4625 17.5 18.5 17.5H19.5859L19.293 17.207C18.9025 16.8165 18.9025 16.1835 19.293 15.793C19.6835 15.4024 20.3165 15.4024 20.707 15.793L22.707 17.793C22.7711 17.857 22.8253 17.9303 22.8701 18.0098C22.8807 18.0285 22.8911 18.0472 22.9004 18.0664C22.9222 18.1116 22.9412 18.1584 22.9561 18.207C22.9623 18.2273 22.9668 18.248 22.9717 18.2686C22.9893 18.3429 23 18.4202 23 18.5C23 18.583 22.9878 18.6631 22.9688 18.7402C22.9646 18.7572 22.9611 18.7743 22.9561 18.791C22.9412 18.84 22.9223 18.8871 22.9004 18.9326C22.8804 18.9743 22.8572 19.0146 22.8311 19.0537C22.7944 19.1086 22.7536 19.1605 22.707 19.207L20.707 21.207C20.3165 21.5975 19.6835 21.5975 19.293 21.207C18.9025 20.8165 18.9025 20.1835 19.293 19.793L19.5859 19.5H18.5C15.72 19.5 13.2954 17.9862 12 15.7393C10.7046 17.9862 8.27996 19.5 5.5 19.5H2C1.44774 19.5 1.00004 19.0522 1 18.5C1 17.9477 1.44772 17.5 2 17.5H5.5C8.53754 17.5 11 15.0375 11 12C11 8.96243 8.53757 6.5 5.5 6.5H2C1.44774 6.5 1.00004 6.05225 1 5.5C1 4.94772 1.44772 4.5 2 4.5H5.5C8.27971 4.5 10.7045 6.01314 12 8.25977C13.2955 6.01314 15.7203 4.5 18.5 4.5H19.5859L19.293 4.20703C18.9025 3.81652 18.9025 3.1835 19.293 2.79297Z" fill="#9E9E9E"/>
</g>
</svg>
