<svg width="24" height="24" viewBox="0 0 24 24" fill="none" xmlns="http://www.w3.org/2000/svg">
<g id="icons/Arrows/shuffle">
<path id="Union" d="M21.0001 2C21.0588 2 21.1161 2.00593 21.172 2.01562C21.1791 2.01686 21.1864 2.01716 21.1935 2.01855C21.2093 2.02166 21.2248 2.02642 21.2404 2.03027C21.2573 2.03445 21.2744 2.0379 21.2911 2.04297C21.3402 2.05788 21.3872 2.07767 21.4327 2.09961C21.4742 2.11956 21.5148 2.14195 21.5538 2.16797C21.6654 2.24237 21.7612 2.33825 21.8351 2.4502C21.8802 2.51862 21.915 2.5917 21.9415 2.66699C21.9463 2.68037 21.952 2.6934 21.9562 2.70703C21.9624 2.72732 21.9669 2.74799 21.9718 2.76855C21.9895 2.84293 22.0001 2.92023 22.0001 3V9C22.0001 9.55226 21.5524 9.99996 21.0001 10C20.4478 10 20.0001 9.55228 20.0001 9V5.41406L3.70715 21.707C3.31664 22.0975 2.68362 22.0975 2.29309 21.707C1.90257 21.3165 1.90257 20.6835 2.29309 20.293L10.5861 12L2.29309 3.70703C1.90257 3.31651 1.90257 2.68349 2.29309 2.29297C2.68362 1.90248 3.31664 1.90246 3.70715 2.29297L12.0001 10.5859L18.5861 4H15.0001C14.4478 4 14.0001 3.55228 14.0001 3C14.0001 2.44772 14.4478 2 15.0001 2H21.0001ZM21.0001 14C21.5524 14 22.0001 14.4477 22.0001 15V21C22.0001 21.0563 21.9934 21.1112 21.9845 21.165C21.9774 21.2078 21.9689 21.2503 21.9562 21.292C21.952 21.3056 21.9462 21.3186 21.9415 21.332C21.9244 21.3808 21.904 21.4285 21.879 21.4746C21.8012 21.6185 21.6893 21.7406 21.5538 21.8311C21.5147 21.8572 21.4744 21.8804 21.4327 21.9004C21.3872 21.9223 21.3401 21.9412 21.2911 21.9561C21.2744 21.9611 21.2573 21.9646 21.2404 21.9688C21.2248 21.9726 21.2094 21.9774 21.1935 21.9805C21.1864 21.9819 21.1791 21.9822 21.172 21.9834C21.149 21.9874 21.1261 21.9927 21.1027 21.9951L21.0001 22H15.0001C14.4478 22 14.0001 21.5523 14.0001 21C14.0001 20.4477 14.4478 20 15.0001 20H18.5861L15.0431 16.457C14.6526 16.0665 14.6526 15.4335 15.0431 15.043C15.4336 14.6525 16.0666 14.6525 16.4572 15.043L20.0001 18.5859V15C20.0001 14.4477 20.4478 14 21.0001 14Z" fill="#9E9E9E"/>
</g>
</svg>
