<svg width="24" height="24" viewBox="0 0 24 24" fill="none" xmlns="http://www.w3.org/2000/svg">
<g id="icons/Arrows/sliding-horizontal">
<path id="Union" d="M12 1C18.0751 1 23 5.92487 23 12C23 18.0751 18.0751 23 12 23C5.92487 23 1 18.0751 1 12C1 5.92487 5.92487 1 12 1ZM12 3C7.02943 3 3 7.02943 3 12C3 16.9706 7.02943 21 12 21C16.9706 21 21 16.9706 21 12C21 7.02943 16.9706 3 12 3ZM9.29297 9.29297C9.68349 8.90244 10.3165 8.90244 10.707 9.29297C11.0976 9.68349 11.0976 10.3165 10.707 10.707L9.41406 12L10.707 13.293C11.0976 13.6835 11.0976 14.3165 10.707 14.707C10.3165 15.0976 9.68349 15.0976 9.29297 14.707L7.29297 12.707C6.90244 12.3165 6.90244 11.6835 7.29297 11.293L9.29297 9.29297ZM13.293 9.29297C13.6835 8.90244 14.3165 8.90244 14.707 9.29297L16.707 11.293C17.0976 11.6835 17.0976 12.3165 16.707 12.707L14.707 14.707C14.3165 15.0976 13.6835 15.0976 13.293 14.707C12.9024 14.3165 12.9024 13.6835 13.293 13.293L14.5859 12L13.293 10.707C12.9024 10.3165 12.9024 9.68349 13.293 9.29297Z" fill="#9E9E9E"/>
</g>
</svg>
