<svg width="24" height="24" viewBox="0 0 24 24" fill="none" xmlns="http://www.w3.org/2000/svg">
<g id="icons/Arrows/sliding-vertical">
<path id="Union" d="M12 1C18.0751 1 23 5.92487 23 12C23 18.0751 18.0751 23 12 23C5.92487 23 1 18.0751 1 12C1 5.92487 5.92487 1 12 1ZM12 3C7.02943 3 3 7.02943 3 12C3 16.9706 7.02943 21 12 21C16.9706 21 21 16.9706 21 12C21 7.02943 16.9706 3 12 3ZM13.293 13.293C13.6835 12.9024 14.3165 12.9024 14.707 13.293C15.0976 13.6835 15.0976 14.3165 14.707 14.707L12.707 16.707C12.3165 17.0976 11.6835 17.0976 11.293 16.707L9.29297 14.707C8.90244 14.3165 8.90244 13.6835 9.29297 13.293C9.68349 12.9024 10.3165 12.9024 10.707 13.293L12 14.5859L13.293 13.293ZM11.3691 7.22461C11.7619 6.90426 12.3409 6.92685 12.707 7.29297L14.707 9.29297C15.0976 9.68349 15.0976 10.3165 14.707 10.707C14.3165 11.0976 13.6835 11.0976 13.293 10.707L12 9.41406L10.707 10.707C10.3165 11.0976 9.68349 11.0976 9.29297 10.707C8.90244 10.3165 8.90244 9.68349 9.29297 9.29297L11.293 7.29297L11.3691 7.22461Z" fill="#9E9E9E"/>
</g>
</svg>
