<svg width="24" height="24" viewBox="0 0 24 24" fill="none" xmlns="http://www.w3.org/2000/svg">
<g id="icons/Arrows/sort-two">
<path id="Union" d="M14.5001 2.05078C15.0524 2.05082 15.5001 2.49852 15.5001 3.05078V18.6367L19.7931 14.3438C20.1836 13.9532 20.8166 13.9532 21.2072 14.3438C21.5976 14.7343 21.5977 15.3673 21.2072 15.7578L15.2072 21.7578C15.2021 21.7629 15.1957 21.7666 15.1906 21.7715C15.1744 21.787 15.1579 21.802 15.1407 21.8164C15.136 21.8204 15.1319 21.8252 15.1271 21.8291C15.1067 21.8455 15.0852 21.8602 15.0636 21.875C15.0552 21.8807 15.0467 21.8861 15.0382 21.8916C15.0228 21.9015 15.0073 21.9109 14.9913 21.9199C14.9805 21.926 14.9701 21.9328 14.9591 21.9385C14.9387 21.949 14.9178 21.9586 14.8966 21.9678C14.8882 21.9714 14.8797 21.9751 14.8712 21.9785C14.8584 21.9836 14.8452 21.9876 14.8322 21.9922C14.8085 22.0005 14.7849 22.0082 14.7609 22.0146C14.6776 22.0371 14.5905 22.0508 14.5001 22.0508C14.4179 22.0508 14.3383 22.0392 14.2618 22.0205C14.2306 22.0129 14.1996 22.0039 14.1691 21.9932C14.1244 21.9775 14.0807 21.9601 14.0392 21.9385C14.0289 21.9331 14.0191 21.9267 14.0089 21.9209C13.9903 21.9104 13.9721 21.8994 13.9542 21.8877C13.9497 21.8847 13.945 21.882 13.9406 21.8789C13.8909 21.8453 13.8446 21.8074 13.8019 21.7656C13.7991 21.7629 13.7959 21.7606 13.7931 21.7578C13.79 21.7547 13.7873 21.7512 13.7843 21.748C13.723 21.6852 13.6702 21.6143 13.6271 21.5371C13.616 21.5172 13.6055 21.4971 13.5958 21.4766C13.5486 21.3766 13.5167 21.2681 13.505 21.1533L13.5001 21.0508V3.05078C13.5001 2.4985 13.9478 2.05078 14.5001 2.05078ZM8.79309 2.24219C9.18362 1.85166 9.81663 1.85166 10.2072 2.24219C10.4086 2.44368 10.5046 2.70967 10.4982 2.97363C10.4984 2.98238 10.5001 2.9912 10.5001 3V21C10.5001 21.5522 10.0523 22 9.50012 22C8.94786 22 8.50016 21.5522 8.50012 21V5.36328L4.20715 9.65625C3.81666 10.0467 3.18362 10.0467 2.79309 9.65625C2.40257 9.26573 2.40257 8.63271 2.79309 8.24219L8.79309 2.24219Z" fill="#9E9E9E"/>
</g>
</svg>
