<svg width="24" height="24" viewBox="0 0 24 24" fill="none" xmlns="http://www.w3.org/2000/svg">
<g id="icons/Arrows/sort">
<path id="Union" d="M16.6377 13.5098C16.9545 13.5538 17.2347 13.7479 17.3857 14.0361C17.5583 14.3656 17.5339 14.7636 17.3223 15.0693L12.8223 21.5693C12.6355 21.8391 12.3281 22 12 22C11.6719 22 11.3645 21.8391 11.1777 21.5693L6.67773 15.0693C6.46606 14.7636 6.44173 14.3656 6.61426 14.0361C6.78688 13.7067 7.12806 13.5 7.5 13.5H16.5L16.6377 13.5098ZM12 19.2422L14.5908 15.5H9.40918L12 19.2422ZM12 2C12.3281 2.00001 12.6355 2.16091 12.8223 2.43066L17.3223 8.93066C17.5339 9.23641 17.5583 9.63445 17.3857 9.96387C17.2131 10.2933 16.8719 10.5 16.5 10.5H7.5C7.12806 10.5 6.78688 10.2933 6.61426 9.96387C6.44173 9.63444 6.46606 9.23642 6.67773 8.93066L11.1777 2.43066L11.2529 2.33496C11.4414 2.12325 11.7128 2 12 2ZM9.40918 8.5H14.5908L12 4.75684L9.40918 8.5Z" fill="#9E9E9E"/>
</g>
</svg>
