<svg width="24" height="24" viewBox="0 0 24 24" fill="none" xmlns="http://www.w3.org/2000/svg">
<g id="icons/Arrows/sort-four">
<path id="Union" d="M12.0001 1C12.2909 1.00003 12.5518 1.12505 12.7345 1.32324L16.7072 5.29297C17.0975 5.68335 17.0974 6.31646 16.7072 6.70703C16.3168 7.09742 15.6837 7.09726 15.2931 6.70703L13.0001 4.41602V19.5889L15.2931 17.2988C15.6838 16.9085 16.3168 16.9091 16.7072 17.2998C17.0974 17.6905 17.0978 18.3235 16.7072 18.7139L12.7101 22.707C12.5503 22.8667 12.3495 22.9593 12.1417 22.9883C12.1096 22.9928 12.0771 22.9956 12.0441 22.9971C12.0297 22.9977 12.0154 22.9991 12.0011 22.999L12.0001 23C11.7088 23 11.4475 22.8745 11.2648 22.6758L7.29309 18.707C6.90269 18.3166 6.90281 17.6836 7.29309 17.293C7.68349 16.9026 8.31659 16.9027 8.70715 17.293L11.0001 19.583V4.4082L8.70715 6.70117C8.31649 7.09153 7.68347 7.09082 7.29309 6.7002C6.90276 6.30952 6.90243 5.67649 7.29309 5.28613L11.2902 1.29297C11.4508 1.13248 11.6525 1.0382 11.8615 1.00977C11.8926 1.00545 11.9242 1.00333 11.9562 1.00195C11.9699 1.0014 11.9835 0.999999 11.9972 1H12.0001Z" fill="#9E9E9E"/>
</g>
</svg>
