<svg width="24" height="24" viewBox="0 0 24 24" fill="none" xmlns="http://www.w3.org/2000/svg">
<g id="icons/Arrows/sort-three">
<path id="Union" d="M16.4962 7.5C17.0485 7.50004 17.4962 7.94774 17.4962 8.5V19.0898L20.2931 16.293C20.6836 15.9025 21.3166 15.9025 21.7072 16.293C22.0976 16.6835 22.0976 17.3165 21.7072 17.707L17.2072 22.207C17.0446 22.3696 16.8397 22.463 16.6281 22.4902C16.6039 22.4934 16.5795 22.4956 16.5548 22.4971C16.5359 22.4981 16.5171 22.4991 16.4982 22.499L16.4962 22.5C16.2002 22.5 15.9352 22.3704 15.7521 22.166L11.2931 17.707C10.9026 17.3165 10.9026 16.6835 11.2931 16.293C11.6836 15.9025 12.3166 15.9025 12.7072 16.293L15.4962 19.082V8.5C15.4962 7.94772 15.9439 7.5 16.4962 7.5ZM8.01672 1.50098C8.03726 1.50131 8.05775 1.50232 8.07825 1.50391C8.09001 1.50487 8.10176 1.50547 8.1134 1.50684C8.13695 1.5095 8.16037 1.51324 8.18372 1.51758C8.1883 1.51845 8.19283 1.51957 8.19739 1.52051L8.22668 1.52637C8.40269 1.56711 8.56994 1.65576 8.70715 1.79297L13.2072 6.29297C13.5976 6.68348 13.5976 7.31652 13.2072 7.70703C12.8166 8.09754 12.1836 8.09752 11.7931 7.70703L8.99622 4.91016V15.5C8.99622 16.0522 8.54835 16.4998 7.99622 16.5C7.44393 16.5 6.99622 16.0523 6.99622 15.5V4.91797L4.20715 7.70703C3.81664 8.09754 3.18362 8.09752 2.79309 7.70703C2.40257 7.31651 2.40257 6.68349 2.79309 6.29297L7.25208 1.83301C7.42284 1.6427 7.66482 1.51784 7.93665 1.50195C7.94965 1.50113 7.96269 1.5013 7.97571 1.50098C7.98243 1.50084 7.98947 1.5 7.99622 1.5C8.00307 1.5 8.0099 1.50084 8.01672 1.50098Z" fill="#9E9E9E"/>
</g>
</svg>
