<svg width="24" height="24" viewBox="0 0 24 24" fill="none" xmlns="http://www.w3.org/2000/svg">
<g id="icons/Arrows/switch">
<path id="Union" d="M21.3994 13.5C21.9517 13.5 22.3994 13.9477 22.3994 14.5C22.3994 15.0522 21.9517 15.5 21.3994 15.5H5.81348L10.1064 19.793C10.4969 20.1835 10.497 20.8165 10.1064 21.207C9.71593 21.5975 9.08289 21.5975 8.69238 21.207L2.69238 15.207C2.66125 15.1759 2.63359 15.1424 2.60742 15.1084C2.59365 15.0905 2.57994 15.0725 2.56738 15.0537C2.51988 14.9825 2.48236 14.9068 2.45508 14.8281C2.4508 14.8158 2.44619 14.8036 2.44238 14.791C2.43731 14.7743 2.43386 14.7572 2.42969 14.7402C2.41066 14.6632 2.39942 14.5829 2.39941 14.5C2.39941 14.4203 2.40916 14.3428 2.42676 14.2686C2.43163 14.248 2.4362 14.2273 2.44238 14.207C2.44654 14.1934 2.45231 14.1804 2.45703 14.167C2.48362 14.0916 2.51923 14.0187 2.56445 13.9502C2.63815 13.8385 2.73346 13.7423 2.84473 13.668C2.88651 13.64 2.92995 13.6157 2.97461 13.5947C2.98975 13.5876 3.00497 13.5806 3.02051 13.5742C3.03532 13.5682 3.0504 13.5629 3.06543 13.5576C3.0784 13.553 3.09128 13.548 3.10449 13.5439C3.12703 13.537 3.14997 13.5317 3.17285 13.5264C3.1826 13.5241 3.19229 13.5215 3.20215 13.5195C3.20409 13.5191 3.20606 13.5189 3.20801 13.5186L3.29688 13.5049C3.33058 13.5014 3.3648 13.5 3.39941 13.5H21.3994ZM14.293 2.79297C14.6835 2.40244 15.3165 2.40244 15.707 2.79297L21.707 8.79297C21.7548 8.84078 21.7976 8.89354 21.835 8.9502C21.8597 8.98768 21.8812 9.02661 21.9004 9.06641C21.9222 9.11159 21.9412 9.15838 21.9561 9.20703C21.9623 9.22732 21.9668 9.24798 21.9717 9.26855C21.9893 9.34291 22 9.42025 22 9.5C22 9.583 21.9878 9.66313 21.9688 9.74023C21.9646 9.75717 21.9611 9.77428 21.9561 9.79102C21.9412 9.84001 21.9223 9.88712 21.9004 9.93262C21.8804 9.97428 21.8572 10.0146 21.8311 10.0537C21.7567 10.1651 21.6616 10.2612 21.5498 10.335C21.5051 10.3644 21.458 10.3886 21.4102 10.4102C21.4014 10.4141 21.3927 10.4182 21.3838 10.4219C21.3667 10.429 21.3494 10.4353 21.332 10.4414C21.3186 10.4461 21.3056 10.4519 21.292 10.4561C21.2717 10.4622 21.251 10.4668 21.2305 10.4717C21.2191 10.4744 21.2078 10.4772 21.1963 10.4795C21.1859 10.4816 21.1754 10.4826 21.165 10.4844C21.1443 10.4878 21.1237 10.493 21.1025 10.4951L21 10.5H3C2.44774 10.5 2.00004 10.0522 2 9.5C2 8.94772 2.44772 8.5 3 8.5H18.5859L14.293 4.20703C13.9025 3.81652 13.9025 3.1835 14.293 2.79297Z" fill="#9E9E9E"/>
</g>
</svg>
