<svg width="24" height="24" viewBox="0 0 24 24" fill="none" xmlns="http://www.w3.org/2000/svg">
<g id="icons/Arrows/to-bottom-one">
<path id="Union" d="M18 16C18.5523 16 19 16.4477 19 17C19 17.5522 18.5523 18 18 18H6C5.44774 18 5.00004 17.5522 5 17C5 16.4477 5.44772 16 6 16H18ZM17.293 6.29297C17.6835 5.90244 18.3165 5.90244 18.707 6.29297C19.0975 6.6835 19.0975 7.31652 18.707 7.70703L12.707 13.707C12.3165 14.0975 11.6835 14.0975 11.293 13.707L5.29297 7.70703C4.90246 7.31652 4.90248 6.6835 5.29297 6.29297C5.68349 5.90244 6.31651 5.90244 6.70703 6.29297L12 11.5859L17.293 6.29297Z" fill="#9E9E9E"/>
</g>
</svg>
