<svg width="24" height="24" viewBox="0 0 24 24" fill="none" xmlns="http://www.w3.org/2000/svg">
<g id="icons/Arrows/to-bottom">
<path id="Union" d="M18 20C18.5523 20 19 20.4477 19 21C19 21.5523 18.5523 22 18 22H6C5.44772 22 5 21.5523 5 21C5 20.4477 5.44772 20 6 20H18ZM12.0039 2C12.5562 2 13.0039 2.44772 13.0039 3V14.582L17.293 10.293C17.6835 9.90244 18.3165 9.90244 18.707 10.293C19.0976 10.6835 19.0976 11.3165 18.707 11.707L12.707 17.707C12.3165 18.0976 11.6835 18.0976 11.293 17.707L5.29297 11.707C4.90244 11.3165 4.90244 10.6835 5.29297 10.293C5.68349 9.90244 6.31651 9.90244 6.70703 10.293L11.0039 14.5898V3C11.0039 2.44772 11.4516 2 12.0039 2Z" fill="#9E9E9E"/>
</g>
</svg>
