<svg width="24" height="24" viewBox="0 0 24 24" fill="none" xmlns="http://www.w3.org/2000/svg">
<g id="icons/Arrows/to-left">
<path id="Union" d="M2.5 5C3.05228 5 3.5 5.44772 3.5 6V18C3.5 18.5523 3.05228 19 2.5 19C1.94772 19 1.5 18.5523 1.5 18V6C1.5 5.44772 1.94772 5 2.5 5ZM12.293 5.29297C12.6835 4.90244 13.3165 4.90244 13.707 5.29297C14.0976 5.68349 14.0976 6.31651 13.707 6.70703L9.41797 10.9961H21C21.5523 10.9961 22 11.4438 22 11.9961C22 12.5484 21.5523 12.9961 21 12.9961H9.41016L13.707 17.293C14.0976 17.6835 14.0976 18.3165 13.707 18.707C13.3165 19.0976 12.6835 19.0976 12.293 18.707L6.29297 12.707C6.09671 12.5108 5.999 12.2533 6 11.9961C6 11.7003 6.12888 11.435 6.33301 11.252L12.293 5.29297Z" fill="#9E9E9E"/>
</g>
</svg>
