<svg width="24" height="24" viewBox="0 0 24 24" fill="none" xmlns="http://www.w3.org/2000/svg">
<g id="icons/Arrows/to-right">
<path id="Union" d="M10.293 5.29297C10.6835 4.90244 11.3165 4.90244 11.707 5.29297L17.707 11.293C17.8701 11.4561 17.9634 11.6617 17.9902 11.874C17.9958 11.9166 18 11.9598 18 12.0039C18 12.2997 17.8702 12.564 17.666 12.7471L11.707 18.707C11.3165 19.0976 10.6835 19.0976 10.293 18.707C9.90244 18.3165 9.90244 17.6835 10.293 17.293L14.582 13.0039H3C2.44772 13.0039 2 12.5562 2 12.0039C2 11.4516 2.44772 11.0039 3 11.0039H14.5898L10.293 6.70703C9.90244 6.31651 9.90244 5.68349 10.293 5.29297ZM21 5C21.5523 5 22 5.44772 22 6V18C22 18.5523 21.5523 19 21 19C20.4477 19 20 18.5523 20 18V6C20 5.44772 20.4477 5 21 5Z" fill="#9E9E9E"/>
</g>
</svg>
