<svg width="24" height="24" viewBox="0 0 24 24" fill="none" xmlns="http://www.w3.org/2000/svg">
<g id="icons/Arrows/to-top-one">
<path id="Union" d="M11.3691 9.72461C11.7619 9.40426 12.3409 9.42685 12.707 9.79297L18.707 15.793C19.0976 16.1835 19.0976 16.8165 18.707 17.207C18.3165 17.5976 17.6835 17.5976 17.293 17.207L12 11.9141L6.70703 17.207C6.31651 17.5976 5.68349 17.5976 5.29297 17.207C4.90244 16.8165 4.90244 16.1835 5.29297 15.793L11.293 9.79297L11.3691 9.72461ZM18 5.5C18.5523 5.5 19 5.94772 19 6.5C19 7.05228 18.5523 7.5 18 7.5H6C5.44772 7.5 5 7.05228 5 6.5C5 5.94772 5.44772 5.5 6 5.5H18Z" fill="#9E9E9E"/>
</g>
</svg>
