<svg width="24" height="24" viewBox="0 0 24 24" fill="none" xmlns="http://www.w3.org/2000/svg">
<g id="icons/Arrows/to-top">
<path id="Union" d="M11.3691 6.22461C11.7619 5.90426 12.3409 5.92685 12.707 6.29297L18.707 12.293C19.0976 12.6835 19.0976 13.3165 18.707 13.707C18.3165 14.0976 17.6835 14.0976 17.293 13.707L13.0039 9.41797V21.001C13.0037 21.5531 12.556 22.001 12.0039 22.001C11.4518 22.001 11.0041 21.5531 11.0039 21.001V9.41016L6.70703 13.707C6.31651 14.0976 5.68349 14.0976 5.29297 13.707C4.90244 13.3165 4.90244 12.6835 5.29297 12.293L11.293 6.29297L11.3691 6.22461ZM18 2C18.5523 2 19 2.44772 19 3C19 3.55228 18.5523 4 18 4H6C5.44772 4 5 3.55228 5 3C5 2.44772 5.44772 2 6 2H18Z" fill="#9E9E9E"/>
</g>
</svg>
