<svg width="24" height="24" viewBox="0 0 24 24" fill="none" xmlns="http://www.w3.org/2000/svg">
<g id="icons/Arrows/transfer-data">
<path id="Union" d="M18.293 13.293C18.6835 12.9024 19.3165 12.9024 19.707 13.293L22.707 16.293C22.7548 16.3408 22.7976 16.3935 22.835 16.4502C22.8597 16.4877 22.8812 16.5266 22.9004 16.5664C22.9222 16.6116 22.9412 16.6584 22.9561 16.707C22.9623 16.7273 22.9668 16.748 22.9717 16.7686C22.9893 16.8429 23 16.9202 23 17C23 17.083 22.9878 17.1631 22.9688 17.2402C22.9646 17.2572 22.9611 17.2743 22.9561 17.291C22.9412 17.34 22.9223 17.3871 22.9004 17.4326C22.8804 17.4743 22.8572 17.5146 22.8311 17.5537C22.8185 17.5726 22.8048 17.5905 22.791 17.6084C22.7649 17.6422 22.738 17.676 22.707 17.707L19.707 20.707C19.3165 21.0975 18.6835 21.0975 18.293 20.707C17.9025 20.3165 17.9025 19.6835 18.293 19.293L19.5859 18H2C1.44774 18 1.00004 17.5522 1 17C1 16.4477 1.44772 16 2 16H19.5859L18.293 14.707C17.9025 14.3165 17.9025 13.6835 18.293 13.293ZM4.29297 3.29297C4.68349 2.90244 5.31651 2.90244 5.70703 3.29297C6.09752 3.6835 6.09754 4.31652 5.70703 4.70703L4.41406 6H22C22.5523 6 23 6.44772 23 7C23 7.55225 22.5523 8 22 8H4.41406L5.70703 9.29297C6.09752 9.6835 6.09754 10.3165 5.70703 10.707C5.31652 11.0975 4.68348 11.0975 4.29297 10.707L1.29297 7.70703C1.26183 7.6759 1.23418 7.64237 1.20801 7.6084C1.19423 7.59049 1.18053 7.57255 1.16797 7.55371C1.14195 7.51472 1.11956 7.47412 1.09961 7.43262C1.07767 7.38704 1.05788 7.34011 1.04297 7.29102C1.0379 7.27429 1.03445 7.25715 1.03027 7.24023C1.01125 7.16319 1.00001 7.08292 1 7C1 6.92032 1.00974 6.84285 1.02734 6.76855C1.03221 6.748 1.03678 6.7273 1.04297 6.70703C1.05787 6.65828 1.07777 6.61168 1.09961 6.56641C1.11877 6.52661 1.1403 6.48768 1.16504 6.4502C1.20242 6.39354 1.24516 6.34078 1.29297 6.29297L4.29297 3.29297Z" fill="#9E9E9E"/>
</g>
</svg>
