<svg width="24" height="24" viewBox="0 0 24 24" fill="none" xmlns="http://www.w3.org/2000/svg">
<g id="icons/Arrows/trending-up">
<path id="Union" d="M20.5391 6.50098C20.5534 6.50153 20.5677 6.50274 20.582 6.50391C20.6038 6.50567 20.6252 6.50859 20.6465 6.51172C20.6582 6.51344 20.67 6.51446 20.6816 6.5166C20.6985 6.51969 20.7149 6.52439 20.7314 6.52832C20.747 6.53201 20.7629 6.53461 20.7783 6.53906C20.8009 6.54558 20.8229 6.55349 20.8447 6.56152C20.8497 6.56333 20.8545 6.56549 20.8594 6.56738C20.8819 6.57608 20.9041 6.58546 20.9258 6.5957C20.9383 6.60158 20.9506 6.60783 20.9629 6.61426C20.9735 6.61981 20.9838 6.62591 20.9941 6.63184C21.0121 6.64205 21.0304 6.65167 21.0479 6.66309C21.0578 6.66963 21.0674 6.67671 21.0771 6.68359C21.1168 6.7117 21.1552 6.74274 21.1914 6.77734L21.207 6.79297C21.2119 6.79786 21.2159 6.8036 21.2207 6.80859C21.2837 6.87419 21.3363 6.94587 21.3779 7.02246C21.4135 7.08774 21.4415 7.1574 21.4619 7.23047C21.4763 7.28219 21.4872 7.33461 21.4932 7.3877C21.4948 7.40256 21.4951 7.41756 21.4961 7.43262C21.4974 7.45216 21.4989 7.47163 21.499 7.49121C21.499 7.49414 21.5 7.49706 21.5 7.5V13.5C21.5 14.0523 21.0523 14.5 20.5 14.5C19.9477 14.5 19.5 14.0523 19.5 13.5V9.99316L13.8154 15.9414C13.4908 16.2809 12.9735 16.348 12.5723 16.1035L8.3877 13.5537L3.77051 19.1377C3.41847 19.563 2.7878 19.6224 2.3623 19.2705C1.93697 18.9185 1.87759 18.2878 2.22949 17.8623L7.39844 11.6123C7.71517 11.2295 8.26513 11.1379 8.68945 11.3965L12.9238 13.9766L18.1602 8.5H14.5C13.9477 8.49999 13.5 8.05228 13.5 7.5C13.5 6.94772 13.9477 6.50001 14.5 6.5H20.5C20.5131 6.5 20.5261 6.50048 20.5391 6.50098Z" fill="#9E9E9E"/>
</g>
</svg>
