<svg width="24" height="24" viewBox="0 0 24 24" fill="none" xmlns="http://www.w3.org/2000/svg">
<g id="icons/Arrows/trending-down">
<path id="Union" d="M2.3623 5.72949C2.78779 5.37758 3.41847 5.43697 3.77051 5.8623L8.3877 11.4453L12.5723 8.89648L12.6484 8.85352C13.037 8.66085 13.5111 8.74031 13.8154 9.05859L19.5 15.0059V11.5C19.5 10.9477 19.9477 10.5 20.5 10.5C21.0523 10.5 21.5 10.9477 21.5 11.5V17.5C21.5 17.5026 21.499 17.5052 21.499 17.5078C21.4989 17.5277 21.4974 17.5475 21.4961 17.5674C21.4951 17.5821 21.4948 17.5968 21.4932 17.6113C21.4876 17.6615 21.477 17.7108 21.4639 17.7598C21.4434 17.8359 21.4157 17.9088 21.3789 17.9766C21.3379 18.0522 21.2855 18.1225 21.2236 18.1875C21.216 18.1955 21.2091 18.2041 21.2012 18.2119C21.1977 18.2153 21.1949 18.2193 21.1914 18.2227C21.1553 18.2571 21.1167 18.2874 21.0771 18.3154C21.0674 18.3223 21.0578 18.3294 21.0479 18.3359C21.0304 18.3474 21.0121 18.357 20.9941 18.3672C20.9838 18.3731 20.9735 18.3792 20.9629 18.3848C20.9506 18.3912 20.9383 18.3974 20.9258 18.4033C20.904 18.4136 20.8819 18.4229 20.8594 18.4316C20.8545 18.4335 20.8497 18.4357 20.8447 18.4375C20.8228 18.4455 20.8009 18.4534 20.7783 18.46C20.7629 18.4644 20.747 18.467 20.7314 18.4707C20.7149 18.4746 20.6985 18.4793 20.6816 18.4824C20.67 18.4846 20.6582 18.4856 20.6465 18.4873C20.6252 18.4904 20.6038 18.4933 20.582 18.4951C20.5677 18.4963 20.5534 18.4975 20.5391 18.498C20.5261 18.4985 20.5131 18.5 20.5 18.5H14.5C13.9477 18.5 13.5 18.0523 13.5 17.5C13.5 16.9477 13.9477 16.5 14.5 16.5H18.1602L12.9238 11.0225L8.68945 13.6035C8.26513 13.8621 7.71517 13.7705 7.39844 13.3877L2.22949 7.1377C1.8776 6.7122 1.93696 6.08152 2.3623 5.72949Z" fill="#9E9E9E"/>
</g>
</svg>
