<svg width="24" height="24" viewBox="0 0 24 24" fill="none" xmlns="http://www.w3.org/2000/svg">
<g id="icons/Arrows/undo">
<path id="Union" d="M12 2C17.5228 2 22 6.47717 22 12C22 17.5228 17.5228 22 12 22C9.23884 22 6.73724 20.8799 4.92871 19.0713C4.5383 18.6809 4.5385 18.0478 4.92871 17.6572C5.31924 17.2667 5.95225 17.2667 6.34277 17.6572C7.79155 19.106 9.79056 20 12 20C16.4183 20 20 16.4183 20 12C20 7.58173 16.4183 4 12 4C9.79056 4 7.79155 4.89396 6.34277 6.34277C6.06374 6.6218 5.66212 7.05417 5.25293 7.5H7C7.55228 7.5 8 7.94772 8 8.5C8 9.05228 7.55228 9.5 7 9.5H3C2.99215 9.5 2.98437 9.49823 2.97656 9.49805C2.96418 9.49776 2.95183 9.49781 2.93945 9.49707C2.91873 9.49583 2.89829 9.49369 2.87793 9.49121C2.85635 9.48858 2.83489 9.48549 2.81348 9.48145C2.80731 9.48028 2.80104 9.47979 2.79492 9.47852C2.77291 9.47393 2.75123 9.468 2.72949 9.46191C2.71406 9.45758 2.69871 9.45328 2.68359 9.44824C2.67636 9.44584 2.6693 9.44301 2.66211 9.44043C2.64097 9.43283 2.62006 9.42497 2.59961 9.41602C2.57912 9.40706 2.55906 9.39713 2.53906 9.38672C2.53182 9.38294 2.52472 9.37895 2.51758 9.375C2.49975 9.36515 2.48219 9.35478 2.46484 9.34375C2.4537 9.33667 2.44248 9.32977 2.43164 9.32227C2.41301 9.30936 2.3949 9.29558 2.37695 9.28125C2.37043 9.27604 2.36381 9.27099 2.35742 9.26562C2.35036 9.25969 2.34288 9.25421 2.33594 9.24805C2.32469 9.23806 2.3144 9.22717 2.30371 9.2168C2.30024 9.21343 2.29639 9.21045 2.29297 9.20703L2.2627 9.17676C2.25327 9.16651 2.24526 9.15509 2.23633 9.14453C2.2296 9.13657 2.22328 9.12829 2.2168 9.12012C2.20532 9.10565 2.19416 9.09113 2.18359 9.07617C2.17426 9.06298 2.16494 9.04979 2.15625 9.03613C2.14611 9.02018 2.13709 9.0037 2.12793 8.9873C2.12351 8.97942 2.11847 8.97189 2.11426 8.96387C2.10484 8.94587 2.09615 8.92762 2.08789 8.90918C2.08025 8.89217 2.07311 8.87492 2.06641 8.85742C2.06207 8.84605 2.05763 8.83474 2.05371 8.82324C2.048 8.80652 2.04292 8.78957 2.03809 8.77246C2.03298 8.75434 2.02849 8.73611 2.02441 8.71777C2.02204 8.70707 2.01961 8.69637 2.01758 8.68555C2.01398 8.66643 2.01127 8.6472 2.00879 8.62793C2.00656 8.61046 2.00425 8.59293 2.00293 8.5752C2.00183 8.56058 2.00242 8.5459 2.00195 8.53125C2.00163 8.52086 2 8.51047 2 8.5V4.5C2 3.94772 2.44772 3.5 3 3.5C3.55228 3.5 4 3.94772 4 4.5V5.90723C4.34371 5.53555 4.6763 5.18112 4.92871 4.92871C6.73724 3.12015 9.23884 2 12 2Z" fill="#9E9E9E"/>
</g>
</svg>
