<svg width="24" height="24" viewBox="0 0 24 24" fill="none" xmlns="http://www.w3.org/2000/svg">
<g id="icons/Arrows/up-c">
<path id="Union" d="M12 1C18.0751 1 23 5.92487 23 12C23 18.0751 18.0751 23 12 23C5.92487 23 1 18.0751 1 12C1 5.92487 5.92487 1 12 1ZM12 3C7.02943 3 3 7.02943 3 12C3 16.9706 7.02943 21 12 21C16.9706 21 21 16.9706 21 12C21 7.02943 16.9706 3 12 3ZM11.3691 8.22461C11.7619 7.90426 12.3409 7.92685 12.707 8.29297L17.207 12.793C17.5976 13.1835 17.5976 13.8165 17.207 14.207C16.8165 14.5976 16.1835 14.5976 15.793 14.207L12 10.4141L8.20703 14.207C7.81651 14.5976 7.18349 14.5976 6.79297 14.207C6.40244 13.8165 6.40244 13.1835 6.79297 12.793L11.293 8.29297L11.3691 8.22461Z" fill="#9E9E9E"/>
</g>
</svg>
