<svg width="24" height="24" viewBox="0 0 24 24" fill="none" xmlns="http://www.w3.org/2000/svg">
<g id="icons/Arrows/up-square">
<path id="Union" d="M19.5 2C20.8807 2 22 3.11929 22 4.5V19.5C22 20.8807 20.8807 22 19.5 22H4.5C3.11929 22 2 20.8807 2 19.5V4.5C2 3.11929 3.11929 2 4.5 2H19.5ZM4.5 4C4.22386 4 4 4.22386 4 4.5V19.5C4 19.7761 4.22386 20 4.5 20H19.5C19.7761 20 20 19.7761 20 19.5V4.5C20 4.22386 19.7761 4 19.5 4H4.5ZM11.3691 8.72461C11.7619 8.40426 12.3409 8.42685 12.707 8.79297L17.707 13.793C18.0976 14.1835 18.0976 14.8165 17.707 15.207C17.3165 15.5976 16.6835 15.5976 16.293 15.207L12 10.9141L7.70703 15.207C7.31651 15.5976 6.68349 15.5976 6.29297 15.207C5.90244 14.8165 5.90244 14.1835 6.29297 13.793L11.293 8.79297L11.3691 8.72461Z" fill="#9E9E9E"/>
</g>
</svg>
