<svg width="24" height="24" viewBox="0 0 24 24" fill="none" xmlns="http://www.w3.org/2000/svg">
<g id="icons/Arrows/up-two">
<path id="Union" d="M11.387 2.20996C11.7726 1.91007 12.3261 1.9318 12.6877 2.27441L22.1877 11.2744C22.4847 11.556 22.5805 11.9899 22.429 12.3701C22.2774 12.7503 21.9095 12.9999 21.5002 13H16.5002V21C16.5002 21.5521 16.0524 21.9999 15.5002 22H8.50024C7.948 22 7.50032 21.5522 7.50024 21V13H2.50024C2.09094 13 1.72313 12.7503 1.57153 12.3701C1.42 11.9898 1.51559 11.556 1.81274 11.2744L11.3127 2.27441L11.387 2.20996ZM5.00903 11H8.50024C9.05242 11.0001 9.50024 11.4478 9.50024 12V20H14.5002V12C14.5002 11.4477 14.948 11 15.5002 11H18.9915L12.0002 4.37598L5.00903 11Z" fill="#9E9E9E"/>
</g>
</svg>
