<svg width="24" height="24" viewBox="0 0 24 24" fill="none" xmlns="http://www.w3.org/2000/svg">
<g id="icons/Arrows/upload-two">
<path id="Union" d="M11.2933 9.92871C11.6838 9.53825 12.3169 9.53837 12.7074 9.92871L15.89 13.1104C16.28 13.5008 16.2801 14.134 15.89 14.5244C15.4996 14.9147 14.8665 14.9145 14.476 14.5244L13.0004 13.0488L13.0043 20.5C13.004 21.0517 12.557 21.4994 12.0052 21.5C11.4531 21.5003 11.0048 21.0521 11.0043 20.5L11.0004 13.0479L9.52576 14.5244C9.13536 14.9147 8.50222 14.9145 8.11169 14.5244C7.72135 14.1339 7.72129 13.5008 8.11169 13.1104L11.2933 9.92871ZM1.80798 7C3.41047 3.92632 6.74229 2.1582 10.1859 2.55469C13.3673 2.92113 16.0344 5.06546 17.1019 8.03711H17.5258C19.8553 8.0355 22.1823 9.26706 22.9525 11.6982C23.6908 14.0291 22.8334 16.5692 20.8334 17.9756C20.3818 18.2927 19.7584 18.1847 19.4408 17.7334C19.1233 17.2818 19.2317 16.6577 19.683 16.3398C20.9693 15.4353 21.5211 13.8009 21.0463 12.3018C20.603 10.9031 19.2147 10.0358 17.5267 10.0371H16.3656C15.9094 10.0369 15.5105 9.72788 15.3969 9.28613C14.7412 6.73093 12.578 4.84401 9.9574 4.54199C7.33673 4.24029 4.80088 5.58563 3.58142 7.9248C2.36229 10.2641 2.71116 13.1133 4.45935 15.0889C4.82525 15.5025 4.786 16.135 4.37244 16.501C3.95885 16.8661 3.32705 16.8273 2.9613 16.4141C0.664239 13.8181 0.205931 10.0739 1.80798 7Z" fill="#9E9E9E"/>
</g>
</svg>
