<svg width="24" height="24" viewBox="0 0 24 24" fill="none" xmlns="http://www.w3.org/2000/svg">
<g id="icons/Arrows/upload-one">
<path id="Union" d="M12 3C15.6569 3 18.6568 5.80445 18.9707 9.37988C21.246 10.2323 22.8661 12.426 22.8662 15C22.8662 18.3137 20.18 21 16.8662 21C16.2995 21 15.7496 20.9214 15.2275 20.7734C14.6962 20.6228 14.3875 20.0694 14.5381 19.5381C14.6889 19.0071 15.2413 18.6991 15.7725 18.8496C16.1188 18.9478 16.4856 19 16.8662 19C19.0754 19 20.8662 17.2091 20.8662 15C20.8661 13.112 19.557 11.5272 17.7959 11.1084C17.3803 11.0095 17.0882 10.6645 17.0361 10.2646C17.013 10.1803 17 10.0917 17 10C17 7.23858 14.7614 5 12 5C9.23858 5 7 7.23858 7 10C7 10.3471 6.82313 10.6527 6.55469 10.832C6.42682 10.9637 6.26215 11.0627 6.07031 11.1084C4.30923 11.5272 3.00011 13.112 3 15C3 17.2091 4.79086 19 7 19C7.38062 19 7.7474 18.9478 8.09375 18.8496C8.6249 18.6991 9.17731 19.0071 9.32812 19.5381C9.47875 20.0694 9.17002 20.6228 8.63867 20.7734C8.11661 20.9214 7.56667 21 7 21C3.68629 21 1 18.3137 1 15C1.0001 12.3748 2.68547 10.1456 5.03223 9.33105C5.36903 5.77889 8.35967 3 12 3ZM11.3672 9.6875C11.7588 9.36699 12.3372 9.38787 12.7041 9.75195L16.2695 13.29C16.6615 13.679 16.6642 14.312 16.2754 14.7041C15.8864 15.0961 15.2534 15.0988 14.8613 14.71L13 12.8623V19C12.9998 19.5521 12.5521 20 12 20C11.4479 20 11.0002 19.5521 11 19V12.8799L9.24023 14.6465C8.85035 15.0376 8.21731 15.0383 7.82617 14.6484C7.43529 14.2585 7.43443 13.6254 7.82422 13.2344L11.291 9.75586L11.3672 9.6875Z" fill="#9E9E9E"/>
</g>
</svg>
