<svg width="24" height="24" viewBox="0 0 24 24" fill="none" xmlns="http://www.w3.org/2000/svg">
<g id="icons/Arrows/upload-three">
<path id="Union" d="M19.5 2C20.8807 2 22 3.1193 22 4.5V19.5C22 20.8807 20.8807 22 19.5 22H4.5C3.1193 22 2 20.8807 2 19.5V4.5C2 3.11929 3.11929 2 4.5 2H19.5ZM4.5 4C4.22386 4 4 4.22386 4 4.5V19.5C4 19.7762 4.22385 20 4.5 20H19.5C19.7762 20 20 19.7762 20 19.5V4.5C20 4.22385 19.7762 4 19.5 4H4.5ZM11.3691 9.22461C11.7619 8.90426 12.3409 8.92685 12.707 9.29297L16.707 13.293C17.0976 13.6835 17.0976 14.3165 16.707 14.707C16.3165 15.0976 15.6835 15.0976 15.293 14.707L13 12.4141V18C13 18.5523 12.5523 19 12 19C11.4477 19 11 18.5523 11 18V12.4141L8.70703 14.707C8.31651 15.0976 7.68349 15.0976 7.29297 14.707C6.90244 14.3165 6.90244 13.6835 7.29297 13.293L11.293 9.29297L11.3691 9.22461ZM16 6C16.5523 6 17 6.44772 17 7C17 7.55228 16.5523 8 16 8H8C7.44772 8 7 7.55228 7 7C7 6.44772 7.44772 6 8 6H16Z" fill="#9E9E9E"/>
</g>
</svg>
