<svg width="24" height="24" viewBox="0 0 24 24" fill="none" xmlns="http://www.w3.org/2000/svg">
<g id="icons/Arrows/zoom-internal">
<path id="Union" d="M22 1C22.5523 1 23 1.44772 23 2V22C23 22.5523 22.5523 23 22 23H2C1.44772 23 1 22.5523 1 22V2C1 1.44772 1.44772 1 2 1H22ZM9 8C9 8.55228 8.55228 9 8 9H3V21H21V3H9V8ZM18 11C18.5523 11 19 11.4477 19 12V18C19 18.0563 18.9933 18.1112 18.9844 18.165C18.9772 18.2078 18.9688 18.2503 18.9561 18.292C18.9412 18.3407 18.9222 18.3874 18.9004 18.4326C18.8936 18.4468 18.8864 18.4607 18.8789 18.4746C18.8002 18.6201 18.6873 18.7442 18.5498 18.835C18.5121 18.8599 18.4727 18.8811 18.4326 18.9004C18.3874 18.9222 18.3407 18.9412 18.292 18.9561C18.2717 18.9622 18.251 18.9668 18.2305 18.9717C18.2191 18.9744 18.2078 18.9772 18.1963 18.9795C18.1859 18.9816 18.1754 18.9826 18.165 18.9844C18.1112 18.9933 18.0563 19 18 19H12C11.4477 19 11 18.5523 11 18C11 17.4477 11.4477 17 12 17H15.5859L11.293 12.707C10.9024 12.3165 10.9024 11.6835 11.293 11.293C11.6835 10.9024 12.3165 10.9024 12.707 11.293L17 15.5859V12C17 11.4477 17.4477 11 18 11ZM3 7H7V3H3V7Z" fill="#9E9E9E"/>
</g>
</svg>
