<svg width="24" height="24" viewBox="0 0 24 24" fill="none" xmlns="http://www.w3.org/2000/svg">
<g id="icons/Peoples/address-book">
<path id="Union" d="M20 1C20.5523 1 21 1.44772 21 2V22C21 22.5523 20.5523 23 20 23H4C3.44772 23 3 22.5523 3 22V18C3 17.4477 3.44772 17 4 17C4.55228 17 5 17.4477 5 18V21H19V3H5V6C5 6.55228 4.55228 7 4 7C3.44772 7 3 6.55228 3 6V2C3 1.44772 3.44772 1 4 1H20ZM12 12.5C14.7614 12.5 17 14.7386 17 17.5C17 18.0523 16.5523 18.5 16 18.5C15.4477 18.5 15 18.0523 15 17.5C15 15.8431 13.6569 14.5 12 14.5C10.3431 14.5 9 15.8431 9 17.5C9 18.0523 8.55228 18.5 8 18.5C7.44772 18.5 7 18.0523 7 17.5C7 14.7386 9.23856 12.5 12 12.5ZM5 14C5.55228 14 6 14.4477 6 15C6 15.5523 5.55228 16 5 16H3C2.44772 16 2 15.5523 2 15C2 14.4477 2.44772 14 3 14H5ZM5 11C5.55228 11 6 11.4477 6 12C6 12.5523 5.55228 13 5 13H3C2.44772 13 2 12.5523 2 12C2 11.4477 2.44772 11 3 11H5ZM12 5.5C13.6569 5.5 15 6.84315 15 8.5C15 10.1569 13.6569 11.5 12 11.5C10.3431 11.5 9 10.1569 9 8.5C9 6.84315 10.3431 5.5 12 5.5ZM5 8C5.55228 8 6 8.44772 6 9C6 9.55229 5.55228 10 5 10H3C2.44772 10 2 9.55229 2 9C2 8.44772 2.44772 8 3 8H5ZM12 7.5C11.4477 7.5 11 7.94772 11 8.5C11 9.05229 11.4477 9.5 12 9.5C12.5523 9.5 13 9.05229 13 8.5C13 7.94772 12.5523 7.5 12 7.5Z" fill="#9E9E9E"/>
</g>
</svg>
