<svg width="24" height="24" viewBox="0 0 24 24" fill="none" xmlns="http://www.w3.org/2000/svg">
<g id="icons/Peoples/appointment">
<path id="Union" d="M17 11.5C20.0376 11.5 22.5 13.9624 22.5 17C22.5 20.0376 20.0376 22.5 17 22.5C13.9624 22.5 11.5 20.0376 11.5 17C11.5 13.9624 13.9624 11.5 17 11.5ZM11 11.5C11.5523 11.5 12 11.9477 12 12.5C12 13.0523 11.5523 13.5 11 13.5C6.46775 13.5 3 16.7415 3 20.5C3 21.0523 2.55228 21.5 2 21.5C1.44772 21.5 1 21.0523 1 20.5C1 15.4219 5.59115 11.5 11 11.5ZM17 13.5C15.067 13.5 13.5 15.067 13.5 17C13.5 18.933 15.067 20.5 17 20.5C18.933 20.5 20.5 18.933 20.5 17C20.5 15.067 18.933 13.5 17 13.5ZM16.5 14.5C17.0523 14.5 17.5 14.9477 17.5 15.5V16.5H18.5C19.0523 16.5 19.5 16.9477 19.5 17.5C19.5 18.0523 19.0523 18.5 18.5 18.5H16.5C15.9477 18.5 15.5 18.0523 15.5 17.5V15.5C15.5 14.9477 15.9477 14.5 16.5 14.5ZM12 1C14.4853 1 16.5 3.01472 16.5 5.5C16.5 7.98528 14.4853 10 12 10C9.51472 10 7.5 7.98528 7.5 5.5C7.5 3.01472 9.51472 1 12 1ZM12 3C10.6193 3 9.5 4.11929 9.5 5.5C9.5 6.88071 10.6193 8 12 8C13.3807 8 14.5 6.88071 14.5 5.5C14.5 4.11929 13.3807 3 12 3Z" fill="#9E9E9E"/>
</g>
</svg>
