<svg width="24" height="24" viewBox="0 0 24 24" fill="none" xmlns="http://www.w3.org/2000/svg">
<g id="icons/Peoples/avatar">
<path id="Union" d="M9.42371 1.53027C9.92174 1.50482 10.4832 1.48027 11.0634 1.52344C15.006 1.81702 16.5197 3.26838 16.7499 3.51855C16.7573 3.52658 16.7652 3.53567 16.7723 3.54395C17.1859 4.02488 17.4691 4.59207 17.6395 5.21875L17.7069 5.49512C17.7258 5.58592 17.7412 5.67595 17.7528 5.7666H17.7518C17.8928 6.59795 17.8667 7.4202 17.8387 7.92773C17.8269 8.14172 17.8045 8.35895 17.7753 8.5918C17.8599 8.71534 17.9475 8.87228 18.0087 9.0625H18.0077C18.076 9.27467 18.1004 9.48113 18.1005 9.68164C18.1005 9.69577 18.1001 9.71049 18.0995 9.72461C18.0942 9.84794 18.0252 11.0515 17.2499 12.1396H17.2489C17.0674 12.3942 16.8418 12.6415 16.6591 12.8428C16.0886 13.4712 15.5749 14.0579 15.4335 15.0029L15.411 15.1973C15.4019 15.2979 15.3964 15.3831 15.3925 15.4541C15.5422 15.5147 15.7722 15.5953 16.1141 15.6826C16.7953 15.8566 17.4705 15.9479 17.495 15.9512C17.5111 15.9533 17.5278 15.9561 17.5438 15.959C18.6289 16.1539 19.5824 16.4878 20.3661 16.9844C21.0158 17.3961 21.5515 17.9203 21.9286 18.5527C22.4893 19.4934 22.5101 20.3606 22.4969 20.6699V21.1152C22.4969 21.8576 21.9231 22.4252 21.2391 22.4932L21.1014 22.5H2.89734C2.15422 22.4998 1.50183 21.9069 1.50183 21.1152V20.6533H1.50281C1.49412 20.352 1.52177 19.4761 2.08777 18.5303H2.08875C2.46837 17.8961 3.00253 17.3703 3.65222 16.96C4.4365 16.4647 5.38819 16.1382 6.45007 15.959L6.47351 15.9561C6.50005 15.9522 7.19398 15.859 7.8905 15.6807C8.22878 15.594 8.45644 15.5143 8.60535 15.4541C8.6014 15.3831 8.5969 15.2979 8.58777 15.1973C8.49129 14.1361 7.9473 13.5132 7.33875 12.8428V12.8418C7.15627 12.6407 6.93016 12.394 6.7489 12.1396C5.97437 11.0526 5.90528 9.84993 5.90027 9.75293C5.89941 9.73625 5.89931 9.71885 5.89929 9.70215C5.89889 9.32016 5.99664 8.98978 6.17078 8.70996C6.18943 8.68 6.21078 8.65264 6.23035 8.625C6.10507 7.70967 6.11066 6.57324 6.24597 5.7666C6.30762 5.01383 6.65182 4.39968 6.93933 4.00391C7.168 3.68918 7.39875 3.46328 7.52234 3.34863C7.50885 3.20375 7.51013 3.04066 7.5448 2.86523C7.5825 2.67447 7.67367 2.40914 7.88757 2.1582C8.10874 1.89889 8.41417 1.7106 8.78601 1.61426L8.98425 1.57324C9.17504 1.54122 9.34274 1.53523 9.42371 1.53125V1.53027ZM9.61707 3.52344C9.63144 3.69736 9.60208 3.84566 9.57019 3.95215C9.54317 4.04229 9.50305 4.12796 9.45203 4.20703C9.2776 4.47716 9.03684 4.67918 8.90027 4.79199L8.90125 4.79297C8.91179 4.784 8.7355 4.9338 8.5575 5.17871C8.37068 5.43583 8.24648 5.70961 8.23425 5.95801C8.23226 5.9988 8.22754 6.03984 8.22058 6.08008C8.10425 6.75229 8.11196 7.86893 8.25281 8.61035H8.25183C8.25776 8.63965 8.27521 8.72282 8.28113 8.81641C8.28695 8.90919 8.29411 9.14204 8.17371 9.39355C8.11696 9.51193 8.03704 9.61839 7.93933 9.70605C7.92686 9.71723 7.91598 9.72633 7.9071 9.73438C7.93408 9.94262 8.03439 10.4976 8.37781 10.9795L8.55945 11.207C8.63202 11.2912 8.71846 11.386 8.82019 11.498L9.06628 11.7715C9.66934 12.4533 10.4383 13.4581 10.58 15.0166C10.634 15.6123 10.616 15.93 10.579 16.1211C10.5649 16.1939 10.5394 16.2633 10.5096 16.3311C10.4845 16.4059 10.4597 16.4593 10.4569 16.4648C10.4393 16.5002 10.4201 16.5347 10.3993 16.5674C10.3575 16.6329 10.3086 16.6945 10.2548 16.752C10.148 16.8659 10.0157 16.9688 9.85925 17.0635C9.55187 17.2493 9.09289 17.4373 8.3866 17.6182C7.97507 17.7235 7.57277 17.8025 7.27429 17.8545C7.12403 17.8807 6.99713 17.9004 6.90613 17.9141C6.8476 17.9229 6.79827 17.9293 6.77429 17.9326C5.90665 18.08 5.22546 18.3325 4.72058 18.6514C4.30517 18.9138 4.00552 19.2219 3.80457 19.5576C3.56461 19.9586 3.51312 20.3276 3.50281 20.5H20.4989C20.492 20.3363 20.4479 19.9738 20.2108 19.5762C20.014 19.2462 19.7149 18.9384 19.2958 18.6729C18.7864 18.3502 18.0945 18.0902 17.1903 17.9277V17.9268C17.0043 17.9006 16.3226 17.7998 15.619 17.6201C14.9096 17.4389 14.4488 17.2506 14.1405 17.0645C13.9835 16.9697 13.851 16.8661 13.744 16.752C13.6902 16.6945 13.6414 16.633 13.5995 16.5674C13.5786 16.5347 13.5586 16.5004 13.5409 16.4648C13.5321 16.4472 13.5232 16.4276 13.5145 16.4072C13.5103 16.3973 13.5051 16.3848 13.4999 16.3711C13.4973 16.3644 13.494 16.3549 13.4901 16.3438C13.4895 16.3418 13.4867 16.3321 13.4823 16.3184C13.4555 16.2547 13.433 16.1891 13.4198 16.1211C13.3828 15.93 13.3647 15.6124 13.4188 15.0166C13.5807 13.2354 14.562 12.1773 15.1786 11.498C15.382 11.2739 15.5214 11.1191 15.621 10.9795C15.9885 10.4638 16.0757 9.86412 16.0946 9.68945C16.0919 9.68663 16.0891 9.6831 16.0858 9.67969H16.0848C16.0684 9.66279 16.0277 9.62094 15.9891 9.57617L15.9872 9.57422C15.9705 9.55478 15.905 9.47837 15.8475 9.36426C15.7937 9.25713 15.7642 9.15246 15.7489 9.06152C15.7209 8.89528 15.7359 8.74791 15.7509 8.65039L15.8104 8.20117C15.8254 8.06452 15.835 7.93815 15.8417 7.81738C15.8684 7.33277 15.8844 6.67881 15.7762 6.06836C15.7735 6.05266 15.7705 6.03632 15.7684 6.02051C15.7597 5.9529 15.7435 5.86789 15.7098 5.74414V5.74316C15.6095 5.37426 15.4571 5.08843 15.2675 4.86328C15.1044 4.71369 13.9337 3.74335 10.9149 3.51855C10.4998 3.48766 10.0782 3.50073 9.61707 3.52344ZM13.4901 16.3398L13.5214 16.4062L13.4852 16.3252C13.487 16.33 13.4883 16.3351 13.4901 16.3398ZM15.3846 15.71C15.3897 15.7266 15.3968 15.7429 15.4012 15.7598L15.4032 15.7646C15.397 15.7409 15.3892 15.7201 15.3846 15.7061C15.3847 15.7073 15.3846 15.7087 15.3846 15.71ZM8.60339 15.7402C8.60625 15.73 8.61008 15.7201 8.61316 15.71C8.61318 15.7084 8.61313 15.7067 8.61316 15.7051C8.61005 15.7146 8.60721 15.7269 8.60339 15.7402Z" fill="#9E9E9E"/>
</g>
</svg>
