<svg width="24" height="24" viewBox="0 0 24 24" fill="none" xmlns="http://www.w3.org/2000/svg">
<g id="icons/Peoples/baby">
<path id="Union" d="M12 1C16.6929 1 20.5371 4.64948 21.8506 8.7168C21.8314 8.65742 21.8093 8.68118 21.9717 8.80957C22.0481 8.86999 22.1384 8.93312 22.2617 9.01855C22.3772 9.09855 22.522 9.19866 22.666 9.30859C22.957 9.53071 23.3016 9.83548 23.5674 10.2725C23.8413 10.7228 24 11.2604 24 11.9004C23.9999 12.538 23.8434 13.0739 23.5645 13.5205C23.2936 13.9541 22.9428 14.2458 22.6504 14.4531C22.5059 14.5555 22.3611 14.6469 22.248 14.7188C22.1258 14.7964 22.0406 14.8513 21.9697 14.9033C21.9244 14.9366 21.8984 14.9609 21.8838 14.9746C20.6012 19.1055 16.7309 22.7998 12 22.7998C7.28469 22.7998 3.42428 19.1258 2.12891 15.0186C2.11454 15.0045 2.08679 14.9776 2.03516 14.9395C1.96293 14.886 1.87703 14.83 1.75391 14.751C1.63982 14.6777 1.49488 14.5847 1.34961 14.4805C1.05508 14.2692 0.703981 13.973 0.433594 13.5342C0.155822 13.0833 6.30747e-05 12.5433 0 11.9004C0 11.2558 0.156996 10.7142 0.431641 10.2607C0.698674 9.81998 1.04546 9.51576 1.33887 9.29492C1.48391 9.18576 1.62936 9.08739 1.74512 9.00879C1.86913 8.92458 1.95828 8.86262 2.03418 8.80371C2.11144 8.74373 2.14441 8.70707 2.15625 8.69336C3.47694 4.63455 7.31615 1 12 1ZM12 3C8.37 3 5.16186 5.88803 4.05078 9.33691C3.8844 9.85341 3.52108 10.1817 3.26074 10.3838C3.12642 10.488 2.9841 10.5844 2.86816 10.6631C2.74373 10.7476 2.64006 10.818 2.54102 10.8926C2.34663 11.0389 2.22342 11.1636 2.14258 11.2969C2.06924 11.4179 2 11.5972 2 11.9004C2.00006 12.2048 2.06932 12.3759 2.13672 12.4854C2.21157 12.6067 2.32654 12.7205 2.51465 12.8555C2.61066 12.9243 2.71134 12.9886 2.83398 13.0674C2.94773 13.1404 3.09034 13.2318 3.22461 13.3311C3.48431 13.5231 3.85881 13.847 4.02246 14.375C5.10508 17.8687 8.33688 20.7998 12 20.7998C15.6785 20.7998 18.9211 17.8487 19.9902 14.334L20.0596 14.1445C20.2433 13.7249 20.5605 13.4567 20.7861 13.291C20.9198 13.1929 21.0616 13.1032 21.1748 13.0312C21.2971 12.9535 21.3975 12.89 21.4932 12.8223C21.6811 12.6891 21.7951 12.5778 21.8682 12.4609C21.9332 12.3569 21.9999 12.1937 22 11.9004C22 11.609 21.9326 11.4335 21.8584 11.3115C21.7762 11.1765 21.6503 11.0489 21.4531 10.8984C21.3529 10.8219 21.248 10.7496 21.123 10.6631C21.0064 10.5823 20.8645 10.4839 20.7305 10.3779C20.4889 10.1869 20.1626 9.88604 19.9854 9.43066C19.9711 9.3985 19.9583 9.36529 19.9473 9.33105C19.3603 7.51377 18.1908 5.85291 16.6846 4.68848C16.6779 4.7055 16.6731 4.7233 16.666 4.74023C16.4291 5.3079 16.0233 5.75111 15.5039 6.07129C14.5262 6.67376 13.1064 6.87543 11.4346 6.84668C10.8826 6.83698 10.4428 6.38202 10.4521 5.83008C10.4616 5.27787 10.9175 4.83718 11.4697 4.84668C13.0534 4.87388 13.9854 4.65766 14.4551 4.36816C14.6589 4.24245 14.7624 4.10921 14.8203 3.9707C14.8566 3.88384 14.8826 3.76908 14.8906 3.61816C13.9836 3.22255 13.008 3 12 3ZM8.41895 15.3164C8.72731 14.8583 9.34945 14.7366 9.80762 15.0449C10.6623 15.6201 11.3887 15.8496 12.0049 15.8496C12.6108 15.8496 13.2678 15.6281 13.9912 15.0801C14.4314 14.7467 15.0581 14.8333 15.3916 15.2734C15.7251 15.7137 15.6385 16.3403 15.1982 16.6738C14.21 17.4225 13.1403 17.8496 12.0049 17.8496C10.8777 17.8496 9.76666 17.4294 8.69043 16.7051C8.23228 16.3967 8.11062 15.7746 8.41895 15.3164ZM8.7002 9.15039C9.0032 9.15039 9.27892 9.33437 9.47852 9.63379C9.67751 9.93235 9.80078 10.3452 9.80078 10.8008C9.80071 11.2561 9.6774 11.6683 9.47852 11.9668C9.27893 12.2662 9.0032 12.4502 8.7002 12.4502C8.39734 12.45 8.12236 12.2661 7.92285 11.9668C7.72393 11.6683 7.60066 11.2562 7.60059 10.8008C7.60059 10.3452 7.72382 9.93236 7.92285 9.63379C8.12236 9.3345 8.39734 9.15055 8.7002 9.15039ZM15.2998 9.15039C15.6028 9.15039 15.8785 9.33437 16.0781 9.63379C16.2771 9.93235 16.4004 10.3452 16.4004 10.8008C16.4003 11.2561 16.277 11.6683 16.0781 11.9668C15.8785 12.2662 15.6028 12.4502 15.2998 12.4502C14.997 12.45 14.722 12.2661 14.5225 11.9668C14.3235 11.6683 14.2003 11.2562 14.2002 10.8008C14.2002 10.3452 14.3234 9.93236 14.5225 9.63379C14.722 9.3345 14.997 9.15055 15.2998 9.15039Z" fill="#9E9E9E"/>
</g>
</svg>
