<svg width="24" height="24" viewBox="0 0 24 24" fill="none" xmlns="http://www.w3.org/2000/svg">
<g id="icons/Peoples/classroom">
<path id="Union" d="M15.9307 12.0088C16.7371 12.115 17.5362 12.5844 18.2314 13.1621C18.9486 13.7581 19.6547 14.5519 20.2764 15.458C21.3363 17.0029 22.2145 18.973 22.4414 21H23C23.5523 21 24 21.4477 24 22C24 22.5523 23.5523 23 23 23H1C0.447715 23 0 22.5523 0 22C0 21.4477 0.447715 21 1 21H1.55273C1.7534 19.024 2.5252 17.1714 3.54297 15.6729C4.71743 13.9437 6.3043 12.5619 7.89258 12.0488C8.26074 11.9299 8.66497 12.0333 8.92969 12.3154V12.3164L8.93164 12.3174C8.93283 12.3187 8.93425 12.3208 8.93652 12.3232C8.94118 12.3282 8.94803 12.3361 8.95703 12.3457C8.97501 12.3649 9.00117 12.3933 9.03516 12.4297C9.10344 12.5028 9.20303 12.6086 9.32617 12.7412C9.5724 13.0063 9.9157 13.3776 10.3037 13.8018C10.8317 14.3789 11.4463 15.0599 12.0146 15.707L15.0566 12.3311C15.277 12.0864 15.6042 11.9658 15.9307 12.0088ZM12.7432 17.8877C12.5499 18.1023 12.2731 18.2233 11.9844 18.2188C11.6957 18.2141 11.4227 18.0848 11.2363 17.8643C10.5373 17.0365 9.59838 15.9933 8.82812 15.1514C8.4857 14.7771 8.17766 14.445 7.94238 14.1914C7.04266 14.6567 6.03814 15.5579 5.19727 16.7959C4.36884 18.0156 3.757 19.4792 3.56445 21H20.4258C20.2068 19.4554 19.5156 17.8841 18.627 16.5889C18.0909 15.8077 17.505 15.1599 16.9531 14.7012C16.6312 14.4336 16.3483 14.2549 16.1162 14.1426L12.7432 17.8877ZM12 1C15.0376 1 17.5 3.46243 17.5 6.5C17.5 9.53757 15.0376 12 12 12C8.96243 12 6.5 9.53757 6.5 6.5C6.5 3.46243 8.96243 1 12 1ZM12 3C10.067 3 8.5 4.567 8.5 6.5C8.5 8.433 10.067 10 12 10C13.933 10 15.5 8.433 15.5 6.5C15.5 4.567 13.933 3 12 3Z" fill="#9E9E9E"/>
</g>
</svg>
