<svg width="24" height="24" viewBox="0 0 24 24" fill="none" xmlns="http://www.w3.org/2000/svg">
<g id="icons/Peoples/edit-name">
<path id="Union" d="M17.8691 13.2246C18.2619 12.9043 18.8409 12.9269 19.207 13.293L21.207 15.293C21.5976 15.6835 21.5976 16.3165 21.207 16.707L16.207 21.707C16.0195 21.8946 15.7652 22 15.5 22H13.5C12.9477 22 12.5 21.5523 12.5 21V19L12.5049 18.9014C12.5276 18.6724 12.6288 18.4571 12.793 18.293L17.793 13.293L17.8691 13.2246ZM11 11.5C11.5523 11.5 12 11.9477 12 12.5C12 13.0523 11.5523 13.5 11 13.5C6.46775 13.5 3 16.7415 3 20.5C3 21.0523 2.55228 21.5 2 21.5C1.44772 21.5 1 21.0523 1 20.5C1 15.4219 5.59115 11.5 11 11.5ZM14.5 19.4141V20H15.0859L19.0859 16L18.5 15.4141L14.5 19.4141ZM12 1C14.4853 1 16.5 3.01472 16.5 5.5C16.5 7.98528 14.4853 10 12 10C9.51472 10 7.5 7.98528 7.5 5.5C7.5 3.01472 9.51472 1 12 1ZM12 3C10.6193 3 9.5 4.11929 9.5 5.5C9.5 6.88071 10.6193 8 12 8C13.3807 8 14.5 6.88071 14.5 5.5C14.5 4.11929 13.3807 3 12 3Z" fill="#9E9E9E"/>
</g>
</svg>
