<svg width="24" height="24" viewBox="0 0 24 24" fill="none" xmlns="http://www.w3.org/2000/svg">
<g id="icons/Peoples/every-user">
<path id="Union" d="M12 1C13.933 1 15.5 2.567 15.5 4.5C15.5 5.31837 15.2177 6.06999 14.7471 6.66602C16.4321 7.53559 17.6515 9.1789 17.9355 11.127C19.4142 11.5362 20.5 12.8911 20.5 14.5C20.5 15.3184 20.2177 16.07 19.7471 16.666C21.6787 17.6628 23 19.6766 23 22C23 22.5523 22.5523 23 22 23C21.4477 23 21 22.5523 21 22C21 19.7909 19.2091 18 17 18C14.7909 18 13 19.7909 13 22C13 22.5523 12.5523 23 12 23C11.4477 23 11 22.5523 11 22C11 19.7909 9.20912 18 7 18C4.79086 18 3 19.7909 3 22C3 22.5523 2.55228 23 2 23C1.44772 23 1 22.5523 1 22C1 19.6769 2.32077 17.663 4.25195 16.666C3.78158 16.0701 3.5 15.3182 3.5 14.5C3.5 12.8914 4.58525 11.5365 6.06348 11.127C6.34745 9.17914 7.56729 7.53571 9.25195 6.66602C8.78158 6.07006 8.5 5.31815 8.5 4.5C8.5 2.567 10.067 1 12 1ZM12 8C10.0748 8 8.46736 9.36014 8.08594 11.1719C9.48731 11.6288 10.5 12.9461 10.5 14.5C10.5 15.3184 10.2177 16.07 9.74707 16.666C10.6589 17.1366 11.4351 17.8329 12 18.6826C12.5647 17.8331 13.3404 17.1366 14.252 16.666C13.7816 16.0701 13.5 15.3182 13.5 14.5C13.5 12.9464 14.5122 11.6291 15.9131 11.1719C15.5316 9.36024 13.9251 8 12 8ZM7 13C6.17157 13 5.5 13.6716 5.5 14.5C5.5 15.3284 6.17157 16 7 16C7.82843 16 8.5 15.3284 8.5 14.5C8.5 13.6716 7.82843 13 7 13ZM17 13C16.1716 13 15.5 13.6716 15.5 14.5C15.5 15.3284 16.1716 16 17 16C17.8284 16 18.5 15.3284 18.5 14.5C18.5 13.6716 17.8284 13 17 13ZM12 3C11.1716 3 10.5 3.67157 10.5 4.5C10.5 5.32843 11.1716 6 12 6C12.8284 6 13.5 5.32843 13.5 4.5C13.5 3.67157 12.8284 3 12 3Z" fill="#9E9E9E"/>
</g>
</svg>
