<svg width="24" height="24" viewBox="0 0 24 24" fill="none" xmlns="http://www.w3.org/2000/svg">
<g id="icons/Peoples/hands">
<path id="Union" d="M20.125 1C21.7128 1 23 2.28719 23 3.875V21C23.5523 21 24 21.4477 24 22C24 22.5523 23.5523 23 23 23H1C0.447715 23 0 22.5523 0 22C0 21.4477 0.447715 21 1 21H1.3457C1.63882 19.3922 2.60153 17.6128 4.08105 16.1611C5.90771 14.369 8.59086 13 12 13H12.0283C12.0432 13.0002 12.0639 13.0003 12.0889 13.001C12.1387 13.0023 12.2083 13.0049 12.2949 13.0098C12.4684 13.0194 12.7124 13.0387 13.0059 13.0762C13.5894 13.1507 14.3874 13.3002 15.2305 13.6045C15.981 13.8754 16.6638 14.0679 17.1162 14.0635C17.1714 14.0629 17.2132 14.0589 17.2441 14.0547C17.2451 14.0393 17.25 14.0214 17.25 14V8.14355C16.5511 10.3783 14.465 12 12 12C8.96243 12 6.5 9.53757 6.5 6.5C6.5 3.46243 8.96243 1 12 1C14.4647 1 16.5509 2.62122 17.25 4.85547V3.875C17.25 2.28719 18.5372 1 20.125 1ZM20.125 3C19.6417 3 19.25 3.39174 19.25 3.875V14C19.25 14.5994 19.0625 15.184 18.5752 15.5918C18.1238 15.9695 17.5728 16.0592 17.1357 16.0635C16.279 16.0719 15.282 15.7499 14.5518 15.4863C13.8835 15.2451 13.236 15.1224 12.752 15.0605C12.5117 15.0298 12.316 15.0142 12.1836 15.0068C12.1176 15.0032 12.0676 15.0018 12.0361 15.001C12.0204 15.0006 12.009 15.0001 12.0029 15C12.0018 15 12.0008 15 12 15L11.4746 15.0127C8.88782 15.1424 6.87436 16.2222 5.48145 17.5889C4.35366 18.6954 3.67047 19.9503 3.39355 21H21V3.875C21 3.39174 20.6083 3 20.125 3ZM12 3C10.067 3 8.5 4.567 8.5 6.5C8.5 8.433 10.067 10 12 10C13.933 10 15.5 8.433 15.5 6.5C15.5 4.567 13.933 3 12 3Z" fill="#9E9E9E"/>
</g>
</svg>
