<svg width="24" height="24" viewBox="0 0 24 24" fill="none" xmlns="http://www.w3.org/2000/svg">
<g id="icons/Peoples/id-card-h">
<path id="Union" d="M21 3C22.1046 3 23 3.89543 23 5V19C23 20.1046 22.1046 21 21 21H3C1.89543 21 1 20.1046 1 19V5C1 3.89543 1.89543 3 3 3H21ZM3 19H21V5H3V19ZM8.5 7.5C10.1568 7.5 11.5 8.84317 11.5 10.5C11.5 11.1753 11.273 11.7955 10.8965 12.2969C11.8701 13.0265 12.5 14.1897 12.5 15.5C12.5 16.0523 12.0523 16.5 11.5 16.5C10.9477 16.5 10.5 16.0523 10.5 15.5C10.5 14.3954 9.60457 13.5 8.5 13.5C7.39543 13.5 6.5 14.3954 6.5 15.5C6.5 16.0523 6.05228 16.5 5.5 16.5C4.94772 16.5 4.5 16.0523 4.5 15.5C4.5 14.19 5.12928 13.0265 6.10254 12.2969C5.72623 11.7956 5.5 11.1751 5.5 10.5C5.5 8.84317 6.84317 7.5 8.5 7.5ZM18 13C18.5523 13 19 13.4477 19 14C19 14.5523 18.5523 15 18 15H15C14.4477 15 14 14.5523 14 14C14 13.4477 14.4477 13 15 13H18ZM8.5 9.5C7.94773 9.5 7.5 9.94773 7.5 10.5C7.5 11.0523 7.94773 11.5 8.5 11.5C9.05227 11.5 9.5 11.0523 9.5 10.5C9.5 9.94773 9.05227 9.5 8.5 9.5ZM18 9C18.5523 9 19 9.44772 19 10C19 10.5523 18.5523 11 18 11H14C13.4477 11 13 10.5523 13 10C13 9.44772 13.4477 9 14 9H18Z" fill="#9E9E9E"/>
</g>
</svg>
