<svg width="24" height="24" viewBox="0 0 24 24" fill="none" xmlns="http://www.w3.org/2000/svg">
<g id="icons/Peoples/id-card-v">
<path id="Union" d="M19 1C20.1046 1 21 1.89543 21 3V21C21 22.1046 20.1046 23 19 23H5C3.89543 23 3 22.1046 3 21V3C3 1.89543 3.89543 1 5 1H19ZM5 21H19V3H5V21ZM12.5 17.5C13.0523 17.5 13.5 17.9477 13.5 18.5C13.5 19.0523 13.0523 19.5 12.5 19.5H9C8.44772 19.5 8 19.0523 8 18.5C8 17.9477 8.44772 17.5 9 17.5H12.5ZM15 14.5C15.5523 14.5 16 14.9477 16 15.5C16 16.0523 15.5523 16.5 15 16.5H9C8.44772 16.5 8 16.0523 8 15.5C8 14.9477 8.44772 14.5 9 14.5H15ZM12 4.5C13.6568 4.5 15 5.84317 15 7.5C15 8.17526 14.773 8.79551 14.3965 9.29688C15.3701 10.0265 16 11.1897 16 12.5C16 13.0523 15.5523 13.5 15 13.5C14.4477 13.5 14 13.0523 14 12.5C14 11.3954 13.1046 10.5 12 10.5C10.8954 10.5 10 11.3954 10 12.5C10 13.0523 9.55228 13.5 9 13.5C8.44772 13.5 8 13.0523 8 12.5C8 11.19 8.62928 10.0265 9.60254 9.29688C9.22623 8.79559 9 8.17505 9 7.5C9 5.84317 10.3432 4.5 12 4.5ZM12 6.5C11.4477 6.5 11 6.94773 11 7.5C11 8.05227 11.4477 8.5 12 8.5C12.5523 8.5 13 8.05227 13 7.5C13 6.94773 12.5523 6.5 12 6.5Z" fill="#9E9E9E"/>
</g>
</svg>
