<svg width="24" height="24" viewBox="0 0 24 24" fill="none" xmlns="http://www.w3.org/2000/svg">
<g id="icons/Peoples/me">
<path id="Union" d="M12 1C18.0751 1 23 5.92487 23 12C23 15.0559 21.7531 17.8201 19.7412 19.8135C19.7038 19.8564 19.6615 19.8946 19.6172 19.9307C17.6403 21.8299 14.9578 23 12 23C9.07026 23 6.40985 21.8527 4.43848 19.9854C4.35552 19.9273 4.2824 19.857 4.2207 19.7773C2.23067 17.7868 1 15.0371 1 12C1 5.92487 5.92487 1 12 1ZM10 15.5C8.04182 15.5 6.41194 16.9076 6.06738 18.7656C7.65152 20.1558 9.72674 21 12 21C14.2727 21 16.3467 20.1552 17.9307 18.7656C17.586 16.9079 15.9579 15.5001 14 15.5H10ZM12 3C7.02943 3 3 7.02943 3 12C3 13.8615 3.56511 15.5911 4.5332 17.0264C5.47583 14.9468 7.56839 13.5 10 13.5H14C16.4319 13.5001 18.5237 14.9474 19.4658 17.0273C20.4344 15.5918 21 13.862 21 12C21 7.02943 16.9706 3 12 3ZM12 5.5C13.933 5.5 15.5 7.06702 15.5 9C15.5 10.933 13.933 12.5 12 12.5C10.067 12.5 8.5 10.933 8.5 9C8.5 7.06702 10.067 5.5 12 5.5ZM12 7.5C11.1716 7.5 10.5 8.17158 10.5 9C10.5 9.82841 11.1716 10.5 12 10.5C12.8284 10.5 13.5 9.82841 13.5 9C13.5 8.17158 12.8284 7.5 12 7.5Z" fill="#9E9E9E"/>
</g>
</svg>
