<svg width="24" height="24" viewBox="0 0 24 24" fill="none" xmlns="http://www.w3.org/2000/svg">
<g id="icons/Peoples/passport">
<path id="Union" d="M15.7373 1.03516C16.0379 0.953324 16.3599 1.01599 16.6074 1.20508C16.855 1.39426 17 1.68841 17 2V4H19C19.5523 4 20 4.44773 20 5V22C20 22.5523 19.5523 23 19 23H5C4.44772 23 4 22.5523 4 22V4.96387C4.0005 4.95014 4.00187 4.93649 4.00293 4.92285C4.004 4.90878 4.00519 4.89476 4.00684 4.88086C4.00901 4.8628 4.01248 4.84498 4.01562 4.82715C4.01796 4.81377 4.0196 4.8003 4.02246 4.78711C4.0265 4.76864 4.03204 4.75057 4.03711 4.73242C4.041 4.71838 4.04434 4.70422 4.04883 4.69043C4.05248 4.67927 4.05651 4.66824 4.06055 4.65723C4.07872 4.60744 4.10048 4.5594 4.12598 4.51367C4.12782 4.51036 4.12995 4.5072 4.13184 4.50391L4.1709 4.44043C4.17378 4.43617 4.17674 4.43195 4.17969 4.42773C4.18646 4.41802 4.19406 4.40889 4.20117 4.39941C4.21207 4.38494 4.22272 4.37029 4.23438 4.35645C4.24399 4.34498 4.25451 4.33428 4.26465 4.32324C4.27776 4.30901 4.29078 4.2947 4.30469 4.28125C4.31429 4.27195 4.32497 4.26382 4.33496 4.25488C4.34647 4.2446 4.35716 4.23338 4.36914 4.22363C4.383 4.21236 4.3976 4.20197 4.41211 4.19141C4.4259 4.18136 4.43979 4.17145 4.4541 4.16211C4.46898 4.15241 4.48452 4.1437 4.5 4.13477C4.50946 4.12929 4.51866 4.12334 4.52832 4.11816C4.54367 4.10996 4.55931 4.10217 4.5752 4.09473C4.62338 4.07207 4.67356 4.0529 4.72559 4.03809C4.72945 4.03698 4.73342 4.03622 4.7373 4.03516L15.7373 1.03516ZM6 21H18V6H6V21ZM14 16C14.5523 16 15 16.4477 15 17C15 17.5523 14.5523 18 14 18H10C9.44772 18 9 17.5523 9 17C9.00001 16.4477 9.44772 16 10 16H14ZM12 9C13.6568 9 15 10.3432 15 12C15 13.6569 13.6569 15 12 15C10.3431 15 9 13.6569 9 12C9.00001 10.3432 10.3432 9 12 9ZM12 11C11.4477 11 11 11.4477 11 12C11 12.5523 11.4477 13 12 13C12.5523 13 13 12.5523 13 12C13 11.4477 12.5523 11 12 11ZM12.4658 4H15V3.30859L12.4658 4Z" fill="#9E9E9E"/>
</g>
</svg>
