<svg width="24" height="24" viewBox="0 0 24 24" fill="none" xmlns="http://www.w3.org/2000/svg">
<g id="icons/Peoples/people-safe">
<path id="Union" d="M11.8633 1.00977C12.0037 0.989769 12.1479 0.999964 12.2852 1.04004L21.2803 3.66797C21.7067 3.79253 21.9999 4.18372 22 4.62793V10.0166C22 16.1567 18.0548 21.0375 12.3174 22.9492C12.1123 23.0175 11.8906 23.0174 11.6855 22.9492C5.9467 21.0376 2.00013 16.156 2 10.0146V4.62793C2.00008 4.18367 2.29327 3.79249 2.71973 3.66797L11.7246 1.04004L11.8633 1.00977ZM4 5.37695V10.0146C4.00012 15.094 7.16773 19.2019 12.001 20.9395C16.8332 19.202 20 15.0949 20 10.0166V5.37695L12.0029 3.04102L4 5.37695ZM12 5.5C13.9329 5.5 15.4999 7.06709 15.5 9C15.5 9.86597 15.1841 10.6575 14.6631 11.2686C16.0669 12.1539 16.9999 13.7177 17 15.5C17 16.0523 16.5523 16.5 16 16.5C15.4477 16.5 15 16.0523 15 15.5C14.9999 13.8432 13.6568 12.5 12 12.5C10.3432 12.5 9.0001 13.8432 9 15.5C9 16.0523 8.55228 16.5 8 16.5C7.44772 16.5 7 16.0523 7 15.5C7.00006 13.718 7.9325 12.154 9.33594 11.2686C8.81517 10.6575 8.5 9.86575 8.5 9C8.5001 7.06709 10.0671 5.5 12 5.5ZM12 7.5C11.1716 7.5 10.5001 8.17166 10.5 9C10.5 9.82843 11.1716 10.5 12 10.5C12.8284 10.5 13.5 9.82843 13.5 9C13.4999 8.17166 12.8284 7.5 12 7.5Z" fill="#9E9E9E"/>
</g>
</svg>
