<svg width="24" height="24" viewBox="0 0 24 24" fill="none" xmlns="http://www.w3.org/2000/svg">
<g id="icons/Peoples/people-speak">
<path id="Union" d="M10.5996 13C11.7032 13 12.5914 12.999 13.3086 13.0576C14.0373 13.1172 14.6773 13.2433 15.2695 13.5449C16.2103 14.0243 16.9757 14.7897 17.4551 15.7305C17.7567 16.3227 17.8828 16.9627 17.9424 17.6914C18.001 18.4086 18 19.2968 18 20.4004V21C18 21.5523 17.5523 22 17 22H2C1.44774 22 1.00003 21.5523 1 21V20.4004C1 19.2968 0.999029 18.4086 1.05762 17.6914C1.11715 16.9627 1.24328 16.3227 1.54492 15.7305C2.02428 14.7897 2.78966 14.0243 3.73047 13.5449C4.32267 13.2433 4.96269 13.1172 5.69141 13.0576C6.40857 12.999 7.29681 13 8.40039 13H10.5996ZM8.40039 15C7.26396 15 6.4713 15.0004 5.85449 15.0508C5.24933 15.1002 4.90106 15.193 4.6377 15.3271C4.0735 15.6147 3.61472 16.0735 3.32715 16.6377C3.19297 16.901 3.10022 17.2494 3.05078 17.8545C3.00654 18.3962 3.00275 19.0733 3.00195 20H15.998C15.9972 19.0733 15.9935 18.3962 15.9492 17.8545C15.8998 17.2494 15.807 16.9011 15.6729 16.6377C15.3853 16.0735 14.9265 15.6147 14.3623 15.3271C14.0989 15.193 13.7507 15.1002 13.1455 15.0508C12.5287 15.0004 11.736 15 10.5996 15H8.40039ZM19.5146 1.12598C19.9974 0.857895 20.6058 1.03192 20.874 1.51465L20 2C20.8742 1.51436 20.8748 1.51519 20.875 1.51562V1.5166L20.876 1.51855C20.8768 1.51999 20.8779 1.52158 20.8789 1.52344C20.8812 1.52755 20.8845 1.53302 20.8877 1.53906C20.8943 1.55132 20.9028 1.56788 20.9131 1.58789C20.9339 1.62823 20.9626 1.68424 20.9961 1.75488C21.0631 1.89615 21.1523 2.09752 21.25 2.35156C21.4451 2.85892 21.6756 3.58334 21.8291 4.47363C22.1369 6.259 22.1347 8.71997 20.9102 11.4141C20.6815 11.9166 20.0886 12.1386 19.5859 11.9102C19.0834 11.6815 18.8614 11.0886 19.0898 10.5859C20.1151 8.33021 20.1131 6.29054 19.8584 4.81348C19.7307 4.07305 19.5392 3.47595 19.3828 3.06934C19.3048 2.86641 19.2357 2.71186 19.1885 2.6123C19.1649 2.56269 19.1468 2.52627 19.1357 2.50488C19.1306 2.495 19.1278 2.48784 19.126 2.48438C18.8585 2.00175 19.0322 1.39403 19.5146 1.12598ZM9.5 2C11.9853 2 14 4.01472 14 6.5C14 8.98526 11.9853 11 9.5 11C7.01474 11 5.00003 8.98526 5 6.5C5 4.01472 7.01471 2 9.5 2ZM16.0527 3.10547C16.5467 2.85848 17.1475 3.05876 17.3945 3.55273L16.5664 3.9668C17.3354 3.58233 17.3904 3.5553 17.3945 3.55371L17.3955 3.55469L17.4043 3.57227C17.4084 3.5808 17.413 3.59174 17.4189 3.60449C17.4311 3.63064 17.4474 3.66577 17.4658 3.70898C17.5028 3.79569 17.5513 3.91657 17.6035 4.06738C17.7077 4.36844 17.8293 4.79423 17.9102 5.31543C18.0721 6.3594 18.0716 7.80021 17.4258 9.37891C17.2166 9.88993 16.6322 10.1349 16.1211 9.92578C15.61 9.71662 15.3652 9.1322 15.5742 8.62109C16.0533 7.44992 16.0528 6.39056 15.9336 5.62207C15.8739 5.23713 15.7845 4.92842 15.7129 4.72168C15.6774 4.61903 15.6471 4.54224 15.627 4.49512C15.617 4.47178 15.6093 4.45541 15.6055 4.44727V4.44629C15.3591 3.95247 15.559 3.35234 16.0527 3.10547ZM9.5 4C8.11929 4 7 5.11929 7 6.5C7.00003 7.88069 8.11931 9 9.5 9C10.8807 9 12 7.88069 12 6.5C12 5.11929 10.8807 4 9.5 4ZM15.6035 4.44238L15.6045 4.44434V4.44531C15.6035 4.4433 15.6028 4.44198 15.6025 4.44141L15.6035 4.44238ZM19.125 2.48438H19.126L19.125 2.48535V2.48438L19.124 2.4834V2.48242L19.125 2.48438Z" fill="#9E9E9E"/>
</g>
</svg>
