<svg width="24" height="24" viewBox="0 0 24 24" fill="none" xmlns="http://www.w3.org/2000/svg">
<g id="icons/Peoples/people-search-one">
<path id="Union" d="M11 11.5C11.5523 11.5 12 11.9477 12 12.5C12 13.0523 11.5523 13.5 11 13.5C6.46775 13.5 3 16.7415 3 20.5C3 21.0523 2.55228 21.5 2 21.5C1.44772 21.5 1 21.0523 1 20.5C1 15.4219 5.59115 11.5 11 11.5ZM17.5 13C19.7091 13 21.5 14.7909 21.5 17C21.5 17.5762 21.3765 18.1232 21.1572 18.6182L22.5996 19.7002C23.0414 20.0315 23.131 20.6578 22.7998 21.0996C22.4685 21.5414 21.8422 21.631 21.4004 21.2998L19.916 20.1865C19.2446 20.6964 18.4081 21 17.5 21C15.2909 21 13.5 19.2091 13.5 17C13.5 14.7909 15.2909 13 17.5 13ZM17.5 15C16.3954 15 15.5 15.8954 15.5 17C15.5 18.1046 16.3954 19 17.5 19C18.6046 19 19.5 18.1046 19.5 17C19.5 15.8954 18.6046 15 17.5 15ZM12 1C14.4853 1 16.5 3.01472 16.5 5.5C16.5 7.98528 14.4853 10 12 10C9.51472 10 7.5 7.98528 7.5 5.5C7.5 3.01472 9.51472 1 12 1ZM12 3C10.6193 3 9.5 4.11929 9.5 5.5C9.5 6.88071 10.6193 8 12 8C13.3807 8 14.5 6.88071 14.5 5.5C14.5 4.11929 13.3807 3 12 3Z" fill="#9E9E9E"/>
</g>
</svg>
