<svg width="24" height="24" viewBox="0 0 24 24" fill="none" xmlns="http://www.w3.org/2000/svg">
<g id="icons/Peoples/people-left">
<path id="Union" d="M10.5996 13C11.7032 13 12.5914 12.999 13.3086 13.0576C14.0373 13.1172 14.6773 13.2433 15.2695 13.5449C16.2103 14.0243 16.9757 14.7897 17.4551 15.7305C17.7567 16.3227 17.8828 16.9627 17.9424 17.6914C18.001 18.4086 18 19.2968 18 20.4004V21C18 21.5523 17.5523 22 17 22H2C1.44772 22 1 21.5523 1 21V20.4004C1 19.2968 0.999024 18.4086 1.05762 17.6914C1.11716 16.9627 1.24326 16.3227 1.54492 15.7305C2.02428 14.7897 2.78965 14.0243 3.73047 13.5449C4.32267 13.2433 4.96269 13.1172 5.69141 13.0576C6.40857 12.999 7.29681 13 8.40039 13H10.5996ZM8.40039 15C7.26396 15 6.4713 15.0004 5.85449 15.0508C5.24932 15.1002 4.90107 15.193 4.6377 15.3271C4.07349 15.6147 3.61472 16.0735 3.32715 16.6377C3.19296 16.9011 3.10023 17.2493 3.05078 17.8545C3.00654 18.3962 3.00275 19.0733 3.00195 20H15.998C15.9972 19.0733 15.9935 18.3962 15.9492 17.8545C15.8998 17.2493 15.807 16.9011 15.6729 16.6377C15.3853 16.0735 14.9265 15.6147 14.3623 15.3271C14.0989 15.193 13.7507 15.1002 13.1455 15.0508C12.5287 15.0004 11.736 15 10.5996 15H8.40039ZM21.293 4.79297C21.6835 4.40244 22.3165 4.40245 22.707 4.79297C23.0976 5.18349 23.0976 5.81651 22.707 6.20703L20.4141 8.5L22.707 10.793C23.0976 11.1835 23.0976 11.8165 22.707 12.207C22.3165 12.5976 21.6835 12.5976 21.293 12.207L18.293 9.20703C17.9024 8.81651 17.9024 8.18349 18.293 7.79297L21.293 4.79297ZM9.5 2C11.9853 2 14 4.01472 14 6.5C14 8.98528 11.9853 11 9.5 11C7.01472 11 5 8.98528 5 6.5C5 4.01472 7.01471 2 9.5 2ZM9.5 4C8.11929 4 7 5.11929 7 6.5C7 7.88071 8.11929 9 9.5 9C10.8807 9 12 7.88072 12 6.5C12 5.11929 10.8807 4 9.5 4Z" fill="#9E9E9E"/>
</g>
</svg>
