<svg width="24" height="24" viewBox="0 0 24 24" fill="none" xmlns="http://www.w3.org/2000/svg">
<g id="icons/Peoples/people-top-card">
<path id="Union" d="M22 3C22.5523 3 23 3.44772 23 4V19C23 19.5523 22.5523 20 22 20H14.9141L12.707 22.207C12.3165 22.5976 11.6835 22.5976 11.293 22.207L9.08594 20H2C1.44772 20 1 19.5523 1 19V4C1 3.44772 1.44772 3 2 3H22ZM3 18H9.5C9.76522 18 10.0195 18.1054 10.207 18.293L12 20.0859L13.793 18.293L13.8662 18.2266C14.0442 18.0807 14.2679 18 14.5 18H21V5H3V18ZM12 6C13.933 6 15.5 7.567 15.5 9.5C15.5 10.3201 15.2166 11.0733 14.7441 11.6699C16.3635 12.5164 17.5 14.095 17.5 16C17.5 16.5523 17.0523 17 16.5 17C15.9477 17 15.5 16.5523 15.5 16C15.5 14.4506 14.047 13 12 13C9.953 13 8.5 14.4506 8.5 16C8.5 16.5523 8.05228 17 7.5 17C6.94772 17 6.5 16.5523 6.5 16C6.5 14.0953 7.63598 12.5165 9.25488 11.6699C8.78268 11.0734 8.5 10.3199 8.5 9.5C8.5 7.567 10.067 6 12 6ZM12 8C11.1716 8 10.5 8.67157 10.5 9.5C10.5 10.3284 11.1716 11 12 11C12.8284 11 13.5 10.3284 13.5 9.5C13.5 8.67157 12.8284 8 12 8Z" fill="#9E9E9E"/>
</g>
</svg>
