<svg width="24" height="24" viewBox="0 0 24 24" fill="none" xmlns="http://www.w3.org/2000/svg">
<g id="icons/Peoples/peoples-two">
<path id="Union" d="M3.73047 13.5459C4.22251 13.2953 4.82449 13.4904 5.0752 13.9824C5.32593 14.4745 5.12978 15.0764 4.6377 15.3271C4.07325 15.6148 3.61474 16.0742 3.32715 16.6387C3.19298 16.902 3.10023 17.2495 3.05078 17.8545C3.00039 18.4713 3 19.2639 3 20.4004V21.001C2.99975 21.5531 2.55213 22.001 2 22.001C1.44787 22.001 1.00025 21.5531 1 21.001V20.4004C1 19.2971 0.999064 18.4094 1.05762 17.6924C1.11717 16.9635 1.24313 16.3228 1.54492 15.7305C2.0243 14.7897 2.78971 14.0253 3.73047 13.5459ZM12 13C12.9182 13 13.6571 12.9991 14.2568 13.04C14.8654 13.0816 15.4035 13.1698 15.9131 13.3809C17.1382 13.8883 18.1117 14.8618 18.6191 16.0869C18.8302 16.5965 18.9184 17.1346 18.96 17.7432C19.0009 18.3429 19 19.0818 19 20V21C19 21.5523 18.5523 22 18 22H6C5.44772 22 5 21.5523 5 21V20C5 19.0818 4.99912 18.3429 5.04004 17.7432C5.08157 17.1346 5.1698 16.5965 5.38086 16.0869C5.8883 14.8618 6.86177 13.8883 8.08691 13.3809C8.59652 13.1698 9.13455 13.0816 9.74316 13.04C10.3429 12.9991 11.0818 13 12 13ZM18.9248 13.9814C19.1756 13.4895 19.7775 13.2942 20.2695 13.5449C21.2101 14.0242 21.9747 14.7889 22.4541 15.7295C22.7559 16.3218 22.8819 16.9626 22.9414 17.6914C23 18.4085 22.999 19.2961 22.999 20.3994V21C22.9988 21.5521 22.5512 22 21.999 22C21.4471 21.9998 20.9993 21.5519 20.999 21V20.3994C20.999 19.2629 20.9986 18.4703 20.9482 17.8535C20.8988 17.2487 20.8069 16.901 20.6729 16.6377C20.3852 16.0732 19.9258 15.6138 19.3613 15.3262C18.8694 15.0754 18.6741 14.4735 18.9248 13.9814ZM12 15C11.0547 15 10.3957 15.001 9.87988 15.0361C9.37297 15.0707 9.07695 15.1352 8.85156 15.2285C8.11678 15.533 7.53296 16.1168 7.22852 16.8516C7.13515 17.077 7.07072 17.373 7.03613 17.8799C7.00096 18.3957 7 19.0547 7 20H17C17 19.0547 16.999 18.3957 16.9639 17.8799C16.9293 17.373 16.8648 17.077 16.7715 16.8516C16.467 16.1168 15.8832 15.533 15.1484 15.2285C14.923 15.1352 14.627 15.0707 14.1201 15.0361C13.6043 15.001 12.9453 15 12 15ZM12 2C14.4853 2 16.5 4.01472 16.5 6.5C16.5 8.98528 14.4853 11 12 11C9.51472 11 7.5 8.98528 7.5 6.5C7.5 4.01472 9.51472 2 12 2ZM5.42773 2.80664C5.88069 2.49069 6.50434 2.60176 6.82031 3.05469C7.13626 3.50765 7.0252 4.13129 6.57227 4.44727C5.92214 4.90074 5.5 5.65127 5.5 6.5C5.50014 7.40801 5.98345 8.20457 6.71191 8.64355C7.18493 8.92858 7.33771 9.54259 7.05273 10.0156C6.76769 10.4887 6.15273 10.6415 5.67969 10.3564C4.37569 9.57063 3.50014 8.13787 3.5 6.5C3.5 4.96995 4.26439 3.61812 5.42773 2.80664ZM17.1797 3.05469C17.4957 2.60176 18.1193 2.49069 18.5723 2.80664C19.7356 3.61812 20.5 4.96995 20.5 6.5C20.4999 8.02978 19.7355 9.38097 18.5723 10.1924C18.1193 10.5083 17.4956 10.3973 17.1797 9.94434C16.8638 9.49136 16.9748 8.8677 17.4277 8.55176C18.0777 8.09839 18.4999 7.34853 18.5 6.5C18.5 5.65127 18.0779 4.90074 17.4277 4.44727C16.9748 4.13129 16.8637 3.50765 17.1797 3.05469ZM12 4C10.6193 4 9.5 5.11929 9.5 6.5C9.5 7.88071 10.6193 9 12 9C13.3807 9 14.5 7.88072 14.5 6.5C14.5 5.11929 13.3807 4 12 4Z" fill="#9E9E9E"/>
</g>
</svg>
