<svg width="24" height="24" viewBox="0 0 24 24" fill="none" xmlns="http://www.w3.org/2000/svg">
<g id="icons/Peoples/people">
<path id="Union" d="M14.5996 14C15.7032 14 16.5914 13.999 17.3086 14.0576C18.0373 14.1172 18.6773 14.2433 19.2695 14.5449C20.2103 15.0243 20.9757 15.7897 21.4551 16.7305C21.7567 17.3227 21.8828 17.9627 21.9424 18.6914C22.001 19.4086 22 20.2968 22 21.4004V22C22 22.5523 21.5523 23 21 23H3C2.44772 23 2 22.5523 2 22V21.4004C2 20.2968 1.99902 19.4086 2.05762 18.6914C2.11716 17.9627 2.24326 17.3227 2.54492 16.7305C3.02428 15.7897 3.78964 15.0243 4.73047 14.5449C5.32267 14.2433 5.96269 14.1172 6.69141 14.0576C7.40857 13.999 8.29681 14 9.40039 14H14.5996ZM9.40039 16C8.26396 16 7.47129 16.0004 6.85449 16.0508C6.24932 16.1002 5.90106 16.193 5.6377 16.3271C5.07348 16.6147 4.61472 17.0735 4.32715 17.6377C4.19296 17.9011 4.10023 18.2493 4.05078 18.8545C4.00654 19.3962 4.00275 20.0733 4.00195 21H19.998C19.9972 20.0733 19.9935 19.3962 19.9492 18.8545C19.8998 18.2493 19.807 17.9011 19.6729 17.6377C19.3853 17.0735 18.9265 16.6147 18.3623 16.3271C18.0989 16.193 17.7507 16.1002 17.1455 16.0508C16.5287 16.0004 15.736 16 14.5996 16H9.40039ZM12 2C14.4853 2 16.5 4.01472 16.5 6.5C16.5 8.98528 14.4853 11 12 11C9.51472 11 7.5 8.98528 7.5 6.5C7.5 4.01472 9.51471 2 12 2ZM12 4C10.6193 4 9.5 5.11929 9.5 6.5C9.5 7.88072 10.6193 9 12 9C13.3807 9 14.5 7.88072 14.5 6.5C14.5 5.11929 13.3807 4 12 4Z" fill="#9E9E9E"/>
</g>
</svg>
