<svg width="24" height="24" viewBox="0 0 24 24" fill="none" xmlns="http://www.w3.org/2000/svg">
<g id="icons/Peoples/people-download">
<path id="Union" d="M13.5 13C14.0523 13 14.5 13.4477 14.5 14C14.5 14.5523 14.0523 15 13.5 15H9.40039C8.26396 15 7.47129 15.0004 6.85449 15.0508C6.24932 15.1002 5.90106 15.193 5.6377 15.3271C5.07348 15.6147 4.61472 16.0735 4.32715 16.6377C4.19296 16.9011 4.10023 17.2493 4.05078 17.8545C4.00654 18.3962 4.00275 19.0733 4.00195 20H13.5C14.0523 20 14.5 20.4477 14.5 21C14.5 21.5523 14.0523 22 13.5 22H3C2.44772 22 2 21.5523 2 21V20.4004C2 19.2968 1.99902 18.4086 2.05762 17.6914C2.11716 16.9627 2.24326 16.3227 2.54492 15.7305C3.02428 14.7897 3.78964 14.0243 4.73047 13.5449C5.32267 13.2433 5.96269 13.1172 6.69141 13.0576C7.40857 12.999 8.29681 13 9.40039 13H13.5ZM18.5 14C19.0523 14 19.5 14.4477 19.5 15V17.5859L19.793 17.293C20.1835 16.9024 20.8165 16.9024 21.207 17.293C21.5976 17.6835 21.5976 18.3165 21.207 18.707L19.207 20.707C19.1592 20.7548 19.1065 20.7976 19.0498 20.835C19.0121 20.8599 18.9727 20.8811 18.9326 20.9004C18.8874 20.9222 18.8407 20.9412 18.792 20.9561C18.7717 20.9622 18.751 20.9668 18.7305 20.9717C18.7191 20.9744 18.7078 20.9772 18.6963 20.9795C18.6859 20.9816 18.6754 20.9826 18.665 20.9844C18.6112 20.9933 18.5563 21 18.5 21C18.4433 21 18.3881 20.9934 18.334 20.9844C18.3236 20.9826 18.3131 20.9816 18.3027 20.9795C18.2912 20.9772 18.2799 20.9744 18.2686 20.9717C18.248 20.9668 18.2273 20.9623 18.207 20.9561C18.1584 20.9412 18.1116 20.9222 18.0664 20.9004C18.0266 20.8812 17.9877 20.8597 17.9502 20.835C17.8935 20.7976 17.8408 20.7548 17.793 20.707L15.793 18.707C15.4024 18.3165 15.4024 17.6835 15.793 17.293C16.1835 16.9024 16.8165 16.9024 17.207 17.293L17.5 17.5859V15C17.5 14.4477 17.9477 14 18.5 14ZM9.5 2C11.9853 2 14 4.01472 14 6.5C14 8.98528 11.9853 11 9.5 11C7.01472 11 5 8.98528 5 6.5C5 4.01472 7.01471 2 9.5 2ZM9.5 4C8.11929 4 7 5.11929 7 6.5C7 7.88071 8.11929 9 9.5 9C10.8807 9 12 7.88072 12 6.5C12 5.11929 10.8807 4 9.5 4Z" fill="#9E9E9E"/>
</g>
</svg>
