<svg width="24" height="24" viewBox="0 0 24 24" fill="none" xmlns="http://www.w3.org/2000/svg">
<g id="icons/Peoples/people-plus">
<path id="Union" d="M13.5 13C14.0523 13 14.5 13.4477 14.5 14C14.5 14.5523 14.0523 15 13.5 15H9.40039C8.26396 15 7.47129 15.0004 6.85449 15.0508C6.24932 15.1002 5.90106 15.193 5.6377 15.3271C5.07348 15.6147 4.61472 16.0735 4.32715 16.6377C4.19296 16.9011 4.10023 17.2493 4.05078 17.8545C4.00654 18.3962 4.00275 19.0733 4.00195 20H13.5C14.0523 20 14.5 20.4477 14.5 21C14.5 21.5523 14.0523 22 13.5 22H3C2.44772 22 2 21.5523 2 21V20.4004C2 19.2968 1.99902 18.4086 2.05762 17.6914C2.11716 16.9627 2.24326 16.3227 2.54492 15.7305C3.02428 14.7897 3.78964 14.0243 4.73047 13.5449C5.32267 13.2433 5.96269 13.1172 6.69141 13.0576C7.40857 12.999 8.29681 13 9.40039 13H13.5ZM18 13.5C18.5523 13.5 19 13.9477 19 14.5V16.5H21C21.5523 16.5 22 16.9477 22 17.5C22 18.0523 21.5523 18.5 21 18.5H19V20.5C19 21.0523 18.5523 21.5 18 21.5C17.4477 21.5 17 21.0523 17 20.5V18.5H15C14.4477 18.5 14 18.0523 14 17.5C14 16.9477 14.4477 16.5 15 16.5H17V14.5C17 13.9477 17.4477 13.5 18 13.5ZM9.5 2C11.9853 2 14 4.01472 14 6.5C14 8.98528 11.9853 11 9.5 11C7.01472 11 5 8.98528 5 6.5C5 4.01472 7.01471 2 9.5 2ZM9.5 4C8.11929 4 7 5.11929 7 6.5C7 7.88071 8.11929 9 9.5 9C10.8807 9 12 7.88072 12 6.5C12 5.11929 10.8807 4 9.5 4Z" fill="#9E9E9E"/>
</g>
</svg>
