<svg width="24" height="24" viewBox="0 0 24 24" fill="none" xmlns="http://www.w3.org/2000/svg">
<g id="icons/Peoples/people-upload">
<path id="Union" d="M13.5 13C14.0523 13 14.5 13.4477 14.5 14C14.5 14.5523 14.0523 15 13.5 15H9.40039C8.26396 15 7.47129 15.0004 6.85449 15.0508C6.24932 15.1002 5.90106 15.193 5.6377 15.3271C5.07348 15.6147 4.61472 16.0735 4.32715 16.6377C4.19296 16.9011 4.10023 17.2493 4.05078 17.8545C4.00654 18.3962 4.00275 19.0733 4.00195 20H13.5C14.0523 20 14.5 20.4477 14.5 21C14.5 21.5523 14.0523 22 13.5 22H3C2.44772 22 2 21.5523 2 21V20.4004C2 19.2968 1.99902 18.4086 2.05762 17.6914C2.11716 16.9627 2.24326 16.3227 2.54492 15.7305C3.02428 14.7897 3.78964 14.0243 4.73047 13.5449C5.32267 13.2433 5.96269 13.1172 6.69141 13.0576C7.40857 12.999 8.29681 13 9.40039 13H13.5ZM18.5205 14.001C18.5381 14.0013 18.5557 14.0017 18.5732 14.0029C18.6225 14.0065 18.6707 14.014 18.7178 14.0244C18.7269 14.0264 18.736 14.029 18.7451 14.0312C18.8141 14.0487 18.8799 14.0736 18.9424 14.1045C18.9746 14.1204 19.0064 14.1376 19.0371 14.1572C19.0714 14.1791 19.1045 14.2027 19.1357 14.2285C19.1602 14.2487 19.1841 14.2701 19.207 14.293L21.207 16.293C21.5976 16.6835 21.5976 17.3165 21.207 17.707C20.8165 18.0976 20.1835 18.0976 19.793 17.707L19.5 17.4141V20C19.5 20.5523 19.0523 21 18.5 21C17.9477 21 17.5 20.5523 17.5 20V17.4141L17.207 17.707C16.8165 18.0976 16.1835 18.0976 15.793 17.707C15.4024 17.3165 15.4024 16.6835 15.793 16.293L17.793 14.293C17.8548 14.2312 17.9248 14.1778 18.001 14.1338C18.0154 14.1255 18.0302 14.1179 18.0449 14.1104C18.1073 14.0784 18.1731 14.0526 18.2422 14.0342C18.2588 14.0298 18.2753 14.025 18.292 14.0215C18.303 14.0192 18.3141 14.0176 18.3252 14.0156C18.3427 14.0125 18.3603 14.01 18.3779 14.0078C18.3957 14.0056 18.4136 14.0041 18.4316 14.0029C18.4476 14.0018 18.4635 14.0013 18.4795 14.001C18.4863 14.0008 18.4931 14 18.5 14C18.5069 14 18.5137 14.0008 18.5205 14.001ZM9.5 2C11.9853 2 14 4.01472 14 6.5C14 8.98528 11.9853 11 9.5 11C7.01472 11 5 8.98528 5 6.5C5 4.01472 7.01471 2 9.5 2ZM9.5 4C8.11929 4 7 5.11929 7 6.5C7 7.88071 8.11929 9 9.5 9C10.8807 9 12 7.88072 12 6.5C12 5.11929 10.8807 4 9.5 4Z" fill="#9E9E9E"/>
</g>
</svg>
