<svg width="24" height="24" viewBox="0 0 24 24" fill="none" xmlns="http://www.w3.org/2000/svg">
<g id="icons/Peoples/people-safe-one">
<path id="Union" d="M17.208 12.043C17.398 11.9851 17.602 11.9851 17.792 12.043V12.0439H17.793L17.7949 12.0449C17.7969 12.0455 17.8001 12.0458 17.8037 12.0469C17.811 12.0491 17.8215 12.0525 17.835 12.0566C17.8621 12.0651 17.9017 12.0772 17.9512 12.0928C18.0504 12.1241 18.1915 12.1698 18.3604 12.2256C18.6967 12.3366 19.15 12.4912 19.6064 12.665C20.0552 12.836 20.5394 13.0372 20.9238 13.2422C21.1113 13.3422 21.3185 13.4657 21.4922 13.6113C21.579 13.6841 21.6884 13.7886 21.7832 13.9258C21.8753 14.0591 21.9999 14.2917 22 14.5996C22 17.0247 21.0014 18.8419 20.0234 20.0342C19.5351 20.6295 19.0468 21.076 18.6777 21.376C18.4927 21.5264 18.3356 21.6414 18.2217 21.7207C18.1648 21.7603 18.1181 21.7913 18.084 21.8135L18.0293 21.8486C18.0276 21.8497 18.0258 21.8507 18.0244 21.8516L18.0225 21.8525L18.0215 21.8535C18.0211 21.8538 18.0205 21.8539 17.5 21L18.0205 21.8535C17.7009 22.0483 17.2991 22.0483 16.9795 21.8535L17.5 21C16.9795 21.8539 16.9789 21.8538 16.9785 21.8535L16.9775 21.8525L16.9756 21.8516C16.9742 21.8507 16.9724 21.8497 16.9707 21.8486L16.916 21.8135C16.8819 21.7913 16.8352 21.7603 16.7783 21.7207C16.6644 21.6414 16.5073 21.5264 16.3223 21.376C15.9532 21.076 15.4649 20.6295 14.9766 20.0342C13.9986 18.8419 13 17.0247 13 14.5996C13.0001 14.2917 13.1247 14.0591 13.2168 13.9258C13.3116 13.7886 13.421 13.6841 13.5078 13.6113C13.6815 13.4657 13.8887 13.3422 14.0762 13.2422C14.4606 13.0372 14.9448 12.836 15.3936 12.665C15.85 12.4912 16.3033 12.3366 16.6396 12.2256C16.8085 12.1698 16.9496 12.1241 17.0488 12.0928C17.0983 12.0772 17.1379 12.0651 17.165 12.0566C17.1785 12.0525 17.189 12.0491 17.1963 12.0469C17.1999 12.0458 17.2031 12.0455 17.2051 12.0449L17.207 12.0439H17.208V12.043ZM11 11.5C11.5523 11.5 12 11.9477 12 12.5C12 13.0523 11.5523 13.5 11 13.5C6.46775 13.5 3 16.7415 3 20.5C3 21.0523 2.55228 21.5 2 21.5C1.44772 21.5 1 21.0523 1 20.5C1 15.4219 5.59115 11.5 11 11.5ZM17.2666 14.125C16.9469 14.2306 16.5248 14.3748 16.1064 14.5342C15.6803 14.6965 15.2893 14.8629 15.0176 15.0078C15.0164 15.0084 15.0148 15.0082 15.0137 15.0088C15.1146 16.6475 15.8097 17.8955 16.5234 18.7656C16.873 19.1918 17.2239 19.5201 17.5 19.752C17.7761 19.5201 18.127 19.1918 18.4766 18.7656C19.1903 17.8955 19.8844 16.6475 19.9854 15.0088C19.9845 15.0083 19.9833 15.0083 19.9824 15.0078C19.7107 14.8629 19.3197 14.6965 18.8936 14.5342C18.4752 14.3748 18.0531 14.2306 17.7334 14.125C17.647 14.0965 17.5684 14.0708 17.5 14.0488C17.4316 14.0708 17.353 14.0965 17.2666 14.125ZM12 1C14.4853 1 16.5 3.01472 16.5 5.5C16.5 7.98528 14.4853 10 12 10C9.51472 10 7.5 7.98528 7.5 5.5C7.5 3.01472 9.51472 1 12 1ZM12 3C10.6193 3 9.5 4.11929 9.5 5.5C9.5 6.88071 10.6193 8 12 8C13.3807 8 14.5 6.88071 14.5 5.5C14.5 4.11929 13.3807 3 12 3Z" fill="#9E9E9E"/>
</g>
</svg>
