<svg width="24" height="24" viewBox="0 0 24 24" fill="none" xmlns="http://www.w3.org/2000/svg">
<g id="icons/Peoples/people-bottom-card">
<path id="Union" d="M11.3691 1.22461C11.7619 0.904259 12.3409 0.926853 12.707 1.29297L14.9141 3.5H22L22.1025 3.50488C22.6067 3.55623 23 3.98233 23 4.5V19.5C22.9999 20.0522 22.5522 20.5 22 20.5H2C1.44779 20.5 1.00013 20.0522 1 19.5V4.5C1 3.94772 1.44772 3.5 2 3.5H9.08594L11.293 1.29297L11.3691 1.22461ZM10.207 5.20703C10.0195 5.39449 9.76516 5.5 9.5 5.5H3V18.5H21V5.5H14.5C14.2348 5.5 13.9805 5.39449 13.793 5.20703L12 3.41406L10.207 5.20703ZM12 6.5C13.933 6.5 15.5 8.067 15.5 10C15.4999 10.8196 15.2171 11.5725 14.7451 12.1689C16.3642 13.0155 17.5 14.5952 17.5 16.5C17.4999 17.0522 17.0522 17.5 16.5 17.5C15.9478 17.5 15.5001 17.0522 15.5 16.5C15.5 14.9506 14.047 13.5 12 13.5C9.953 13.5 8.5 14.9506 8.5 16.5C8.49987 17.0522 8.05221 17.5 7.5 17.5C6.94779 17.5 6.50013 17.0522 6.5 16.5C6.5 14.5955 7.63525 13.0156 9.25391 12.1689C8.7822 11.5726 8.50005 10.8194 8.5 10C8.5 8.067 10.067 6.5 12 6.5ZM12 8.5C11.1716 8.5 10.5 9.17157 10.5 10C10.5001 10.8283 11.1717 11.5 12 11.5C12.8283 11.5 13.4999 10.8283 13.5 10C13.5 9.17157 12.8284 8.5 12 8.5Z" fill="#9E9E9E"/>
</g>
</svg>
