<svg width="24" height="24" viewBox="0 0 24 24" fill="none" xmlns="http://www.w3.org/2000/svg">
<g id="icons/Peoples/people-delete">
<path id="Union" d="M13.5 13C14.0523 13 14.5 13.4477 14.5 14C14.5 14.5523 14.0523 15 13.5 15H9.40039C8.26396 15 7.47129 15.0004 6.85449 15.0508C6.24932 15.1002 5.90106 15.193 5.6377 15.3271C5.07348 15.6147 4.61472 16.0735 4.32715 16.6377C4.19296 16.9011 4.10023 17.2493 4.05078 17.8545C4.00654 18.3962 4.00275 19.0733 4.00195 20H13.5C14.0523 20 14.5 20.4477 14.5 21C14.5 21.5523 14.0523 22 13.5 22H3C2.44772 22 2 21.5523 2 21V20.4004C2 19.2968 1.99902 18.4086 2.05762 17.6914C2.11716 16.9627 2.24326 16.3227 2.54492 15.7305C3.02428 14.7897 3.78964 14.0243 4.73047 13.5449C5.32267 13.2433 5.96269 13.1172 6.69141 13.0576C7.40857 12.999 8.29681 13 9.40039 13H13.5ZM19.793 14.793C20.1835 14.4024 20.8165 14.4024 21.207 14.793C21.5976 15.1835 21.5976 15.8165 21.207 16.207L19.9141 17.5L21.207 18.793C21.5976 19.1835 21.5976 19.8165 21.207 20.207C20.8165 20.5976 20.1835 20.5976 19.793 20.207L18.5 18.9141L17.207 20.207C16.8165 20.5976 16.1835 20.5976 15.793 20.207C15.4024 19.8165 15.4024 19.1835 15.793 18.793L17.0859 17.5L15.793 16.207C15.4024 15.8165 15.4024 15.1835 15.793 14.793C16.1835 14.4024 16.8165 14.4024 17.207 14.793L18.5 16.0859L19.793 14.793ZM9.5 2C11.9853 2 14 4.01472 14 6.5C14 8.98528 11.9853 11 9.5 11C7.01472 11 5 8.98528 5 6.5C5 4.01472 7.01471 2 9.5 2ZM9.5 4C8.11929 4 7 5.11929 7 6.5C7 7.88071 8.11929 9 9.5 9C10.8807 9 12 7.88072 12 6.5C12 5.11929 10.8807 4 9.5 4Z" fill="#9E9E9E"/>
</g>
</svg>
