<svg width="24" height="24" viewBox="0 0 24 24" fill="none" xmlns="http://www.w3.org/2000/svg">
<g id="icons/Peoples/personal-privacy">
<path id="Union" d="M11 11.5C11.5523 11.5 12 11.9477 12 12.5C12 13.0523 11.5523 13.5 11 13.5C6.46775 13.5 3 16.7415 3 20.5C3 21.0523 2.55228 21.5 2 21.5C1.44772 21.5 1 21.0523 1 20.5C1 15.4219 5.59115 11.5 11 11.5ZM17 11.5C18.3807 11.5 19.5 12.6193 19.5 14V14.5H20.5C21.0523 14.5 21.5 14.9477 21.5 15.5V20.5C21.5 21.0523 21.0523 21.5 20.5 21.5H13.5C12.9477 21.5 12.5 21.0523 12.5 20.5V15.5C12.5 14.9477 12.9477 14.5 13.5 14.5H14.5V14C14.5 12.6193 15.6193 11.5 17 11.5ZM14.5 19.5H19.5V16.5H14.5V19.5ZM17 13.5C16.7238 13.5 16.5 13.7238 16.5 14V14.5H17.5V14C17.5 13.7238 17.2762 13.5 17 13.5ZM12 1C14.4853 1 16.5 3.01472 16.5 5.5C16.5 7.98528 14.4853 10 12 10C9.51472 10 7.5 7.98528 7.5 5.5C7.5 3.01472 9.51472 1 12 1ZM12 3C10.6193 3 9.5 4.11929 9.5 5.5C9.5 6.88071 10.6193 8 12 8C13.3807 8 14.5 6.88071 14.5 5.5C14.5 4.11929 13.3807 3 12 3Z" fill="#9E9E9E"/>
</g>
</svg>
