<svg width="24" height="24" viewBox="0 0 24 24" fill="none" xmlns="http://www.w3.org/2000/svg">
<g id="icons/Peoples/personal-collection">
<path id="Union" d="M19.0752 13C20.8286 13.0001 22 14.6011 22 16.2432C22 17.6947 21.274 18.9884 20.4717 19.9326C19.6721 20.8735 18.6673 21.6205 17.8613 21.9326C17.629 22.0226 17.371 22.0226 17.1387 21.9326C16.3327 21.6205 15.3279 20.8735 14.5283 19.9326C13.726 18.9884 13 17.6947 13 16.2432C13 14.6011 14.1714 13.0001 15.9248 13C16.5199 13 17.0561 13.1938 17.5 13.5088C17.9439 13.1938 18.4801 13 19.0752 13ZM11 11.5C11.5523 11.5 12 11.9477 12 12.5C12 13.0523 11.5523 13.5 11 13.5C6.46775 13.5 3 16.7415 3 20.5C3 21.0523 2.55228 21.5 2 21.5C1.44772 21.5 1 21.0523 1 20.5C1 15.4219 5.59115 11.5 11 11.5ZM19.0752 15C18.8336 15 18.5557 15.1394 18.3555 15.4707C18.1743 15.7701 17.85 15.9531 17.5 15.9531C17.15 15.9531 16.8257 15.7701 16.6445 15.4707C16.4443 15.1394 16.1664 15 15.9248 15C15.552 15.0001 15 15.4077 15 16.2432C15 17.0348 15.4113 17.8829 16.0527 18.6377C16.5386 19.2094 17.0825 19.6391 17.5 19.8857C17.9175 19.6391 18.4614 19.2094 18.9473 18.6377C19.5887 17.8829 20 17.0348 20 16.2432C20 15.4077 19.448 15.0001 19.0752 15ZM12 1C14.4853 1 16.5 3.01472 16.5 5.5C16.5 7.98528 14.4853 10 12 10C9.51472 10 7.5 7.98528 7.5 5.5C7.5 3.01472 9.51472 1 12 1ZM12 3C10.6193 3 9.5 4.11929 9.5 5.5C9.5 6.88071 10.6193 8 12 8C13.3807 8 14.5 6.88071 14.5 5.5C14.5 4.11929 13.3807 3 12 3Z" fill="#9E9E9E"/>
</g>
</svg>
