<svg width="24" height="24" viewBox="0 0 24 24" fill="none" xmlns="http://www.w3.org/2000/svg">
<g id="icons/Peoples/turn-around">
<path id="Union" d="M19.6592 12.8506C19.9581 12.3863 20.5767 12.252 21.041 12.5508C22.0969 13.2305 23 14.2161 23 15.5C22.9999 16.4157 22.5319 17.1869 21.9014 17.7832C21.2729 18.3776 20.4169 18.867 19.4424 19.2568C17.5835 20.0004 15.1122 20.4525 12.418 20.4951L10.207 22.707C9.81651 23.0976 9.18349 23.0976 8.79297 22.707C8.40244 22.3165 8.40244 21.6835 8.79297 21.293L9.68945 20.3955C7.73894 20.2186 5.97116 19.8222 4.55762 19.2568C3.58307 18.867 2.72712 18.3776 2.09863 17.7832C1.46814 17.1869 1.00008 16.4157 1 15.5C1 14.2161 1.9031 13.2305 2.95898 12.5508C3.42335 12.252 4.04192 12.3863 4.34082 12.8506C4.63961 13.315 4.50534 13.9335 4.04102 14.2324C3.19532 14.7769 3 15.2366 3 15.5C3.00008 15.6887 3.09154 15.9696 3.47266 16.3301C3.85623 16.6928 4.46569 17.0654 5.30078 17.3994C6.41035 17.8432 7.83255 18.1832 9.44727 18.3613L8.79297 17.707C8.40244 17.3165 8.40244 16.6835 8.79297 16.293C9.18349 15.9024 9.81651 15.9024 10.207 16.293L12.4092 18.4951C14.9084 18.4532 17.1202 18.0309 18.6992 17.3994C19.5343 17.0654 20.1438 16.6928 20.5273 16.3301C20.9085 15.9696 20.9999 15.6887 21 15.5C21 15.2366 20.8047 14.7769 19.959 14.2324C19.4947 13.9335 19.3604 13.3149 19.6592 12.8506ZM13.5 9C13.9406 9 14.2335 8.99914 14.4902 9.02441C16.864 9.2583 18.7417 11.136 18.9756 13.5098C19.0009 13.7665 19 14.0594 19 14.5C19 15.0523 18.5523 15.5 18 15.5H6C5.44772 15.5 5 15.0523 5 14.5C5 14.0594 4.99914 13.7665 5.02441 13.5098C5.2583 11.136 7.136 9.2583 9.50977 9.02441C9.7665 8.99914 10.0594 9 10.5 9H13.5ZM10.5 11C10.012 11 9.8404 11.0014 9.70605 11.0146C8.35119 11.1481 7.26741 12.1743 7.04395 13.5H16.9561C16.7326 12.1743 15.6488 11.1481 14.2939 11.0146C14.1596 11.0014 13.988 11 13.5 11H10.5ZM12 1C13.933 1 15.5 2.567 15.5 4.5C15.5 6.43298 13.933 8 12 8C10.067 8 8.5 6.43298 8.5 4.5C8.5 2.567 10.067 1 12 1ZM12 3C11.1716 3 10.5 3.67158 10.5 4.5C10.5 5.32842 11.1716 6 12 6C12.8284 6 13.5 5.32842 13.5 4.5C13.5 3.67158 12.8284 3 12 3Z" fill="#9E9E9E"/>
</g>
</svg>
