<svg width="24" height="24" viewBox="0 0 24 24" fill="none" xmlns="http://www.w3.org/2000/svg">
<g id="icons/Peoples/user-positioning">
<path id="Union" d="M2 17C2.55228 17 3 17.4477 3 18V21H6C6.55228 21 7 21.4477 7 22C7 22.5523 6.55228 23 6 23H2C1.44772 23 1 22.5523 1 22V18C1 17.4477 1.44772 17 2 17ZM22 17C22.5523 17 23 17.4477 23 18V22C23 22.5523 22.5523 23 22 23H18C17.4477 23 17 22.5523 17 22C17 21.4477 17.4477 21 18 21H21V18C21 17.4477 21.4477 17 22 17ZM12 4C14.2091 4 16 5.79086 16 8C16 9.4025 15.277 10.6345 14.1846 11.3486C16.9806 12.2664 19 14.897 19 18C19 18.5523 18.5523 19 18 19C17.4477 19 17 18.5523 17 18C17 15.2386 14.7614 13 12 13C9.23858 13 7 15.2386 7 18C7 18.5523 6.55228 19 6 19C5.44772 19 5 18.5523 5 18C5 14.8973 7.01886 12.2667 9.81445 11.3486C8.72244 10.6345 8 9.4022 8 8C8 5.79086 9.79086 4 12 4ZM12 6C10.8954 6 10 6.89543 10 8C10 9.10457 10.8954 10 12 10C13.1046 10 14 9.10457 14 8C14 6.89543 13.1046 6 12 6ZM6 1C6.55228 1 7 1.44772 7 2C7 2.55228 6.55228 3 6 3H3V6C3 6.55228 2.55228 7 2 7C1.44772 7 1 6.55228 1 6V2C1 1.44772 1.44772 1 2 1H6ZM22 1C22.5523 1 23 1.44772 23 2V6C23 6.55228 22.5523 7 22 7C21.4477 7 21 6.55228 21 6V3H18C17.4477 3 17 2.55228 17 2C17 1.44772 17.4477 1 18 1H22Z" fill="#9E9E9E"/>
</g>
</svg>
