<svg width="24" height="24" viewBox="0 0 24 24" fill="none" xmlns="http://www.w3.org/2000/svg">
<g id="icons/Peoples/user-business">
<path id="Union" d="M12 12C17.5228 12 22 16.4772 22 22C22 22.5523 21.5523 23 21 23C20.4477 23 20 22.5523 20 22C20 18.0565 17.1464 14.7808 13.3916 14.1221L14.9561 19.2061C15.0533 19.5223 14.988 19.8666 14.7812 20.125L12.7812 22.625C12.5915 22.8622 12.3038 23 12 23C11.6962 23 11.4085 22.8622 11.2188 22.625L9.21875 20.125C9.01204 19.8666 8.9467 19.5223 9.04395 19.2061L10.6074 14.1221C6.85311 14.7812 4 18.0568 4 22C4 22.5523 3.55228 23 3 23C2.44772 23 2 22.5523 2 22C2 16.4772 6.47717 12 12 12ZM11.1113 19.2871L12 20.3984L12.8877 19.2871L12 16.4004L11.1113 19.2871ZM12 1C14.7614 1 17 3.23858 17 6C17 8.76142 14.7614 11 12 11C9.23858 11 7 8.76142 7 6C7 3.23858 9.23858 1 12 1ZM12 3C10.3431 3 9 4.34315 9 6C9 7.65685 10.3431 9 12 9C13.6569 9 15 7.65685 15 6C15 4.34315 13.6569 3 12 3Z" fill="#9E9E9E"/>
</g>
</svg>
