<svg width="24" height="24" viewBox="0 0 24 24" fill="none" xmlns="http://www.w3.org/2000/svg">
<g id="icons/Peoples/user-to-user-transmission">
<path id="Union" d="M8.7373 11.5C10.0997 11.5001 11.1442 12.1713 11.8027 12.7627C11.8693 12.8225 11.9318 12.8833 11.9922 12.9424C12.0493 12.8855 12.1082 12.8271 12.1709 12.7695C12.8135 12.18 13.8418 11.5001 15.1826 11.5H17.7393C20.7887 11.5 23 14.3424 23 17.5V22C23 22.5523 22.5523 23 22 23C21.4477 23 21 22.5523 21 22V17.5C21 15.1348 19.3959 13.5 17.7393 13.5H15.1826C14.5433 13.5001 13.9779 13.8263 13.5234 14.2432C13.3029 14.4455 13.1301 14.6506 13.0137 14.8037C12.956 14.8796 12.9132 14.9411 12.8877 14.9795C12.875 14.9986 12.8673 15.0117 12.8643 15.0166C12.7893 15.1454 12.6835 15.2574 12.5518 15.3447C12.5472 15.3477 12.5426 15.3506 12.5381 15.3535C12.5313 15.3579 12.5255 15.3639 12.5186 15.3682C12.4509 15.4092 12.3798 15.4395 12.3076 15.4629C12.2937 15.4674 12.2798 15.4717 12.2656 15.4756C12.2339 15.4844 12.2021 15.4915 12.1699 15.4971C12.1572 15.4993 12.1447 15.5022 12.1318 15.5039C12.0967 15.5086 12.0615 15.5108 12.0264 15.5117C12.0176 15.5119 12.0088 15.5137 12 15.5137C11.9983 15.5132 11.9968 15.5122 11.9951 15.5117C11.6589 15.5097 11.3315 15.3397 11.1445 15.0312L11.1436 15.0303C11.1387 15.0227 11.1296 15.008 11.1162 14.9883C11.0894 14.9487 11.0461 14.8874 10.9873 14.8115C10.8684 14.6582 10.6915 14.4537 10.4658 14.251C10.0036 13.8359 9.41692 13.5001 8.7373 13.5H6.21094C4.59193 13.5 3 15.123 3 17.5V22C3 22.5523 2.55228 23 2 23C1.44772 23 1 22.5523 1 22V17.5C1 14.3542 3.17907 11.5 6.21094 11.5H8.7373ZM6.45898 17.4072C6.8504 17.0179 7.4835 17.0198 7.87305 17.4111C8.26237 17.8025 8.26136 18.4356 7.87012 18.8252L7.69434 19H16.6035L16.4385 18.834C16.0492 18.4423 16.0509 17.8093 16.4424 17.4199C16.834 17.0307 17.4671 17.0323 17.8564 17.4238L18.4766 18.0479L19.7158 19.2949C20.0998 19.6813 20.1044 20.3039 19.7256 20.6953L18.4854 21.9756L17.8662 22.6162C17.4822 23.013 16.849 23.0235 16.4521 22.6396C16.0554 22.2556 16.0448 21.6225 16.4287 21.2256L16.6475 21H7.67285L7.87598 21.2051C8.26394 21.5979 8.25978 22.231 7.86719 22.6191C7.47443 23.0072 6.84133 23.0039 6.45312 22.6113L5.82324 21.9736L4.56445 20.6992C4.17729 20.3074 4.17994 19.6767 4.57031 19.2881L5.8291 18.0342L6.45898 17.4072ZM12.8662 15.0127C12.867 15.0113 12.8725 15.003 12.8789 14.9912C12.8809 14.9876 12.8901 14.9697 12.9014 14.9463C12.9016 14.9457 12.9019 14.9447 12.9023 14.9434C12.8912 14.9669 12.8793 14.9901 12.8662 15.0127ZM7 1C9.48529 1 11.5 3.01472 11.5 5.5C11.5 7.98528 9.48528 10 7 10C4.51472 10 2.5 7.98528 2.5 5.5C2.5 3.01472 4.51471 1 7 1ZM17 1C19.4853 1 21.5 3.01472 21.5 5.5C21.5 7.98528 19.4853 10 17 10C14.5147 10 12.5 7.98528 12.5 5.5C12.5 3.01472 14.5147 1 17 1ZM7 3C5.61929 3 4.5 4.11929 4.5 5.5C4.5 6.88072 5.61928 8 7 8C8.38072 8 9.5 6.88072 9.5 5.5C9.5 4.11929 8.38071 3 7 3ZM17 3C15.6193 3 14.5 4.11929 14.5 5.5C14.5 6.88072 15.6193 8 17 8C18.3807 8 19.5 6.88072 19.5 5.5C19.5 4.11929 18.3807 3 17 3Z" fill="#9E9E9E"/>
</g>
</svg>
