<svg width="24" height="24" viewBox="0 0 24 24" fill="none" xmlns="http://www.w3.org/2000/svg">
<g id="icons/Peoples/weixin-people-nearby">
<path id="Union" d="M10.1042 9.00586C10.3462 9.03128 10.5723 9.14388 10.738 9.3252C10.9275 9.53266 11.0213 9.81101 10.9958 10.0908L9.99585 21.0908C9.94889 21.6058 9.51686 22 8.99976 22H5.99976C5.48273 21.9999 5.05061 21.6057 5.00366 21.0908L4.00366 10.0908C3.97823 9.81106 4.07207 9.53265 4.26147 9.3252C4.45088 9.11798 4.71901 9.00005 4.99976 9H9.99976L10.1042 9.00586ZM19.1042 9.00586C19.3462 9.03128 19.5723 9.14388 19.738 9.3252C19.9275 9.53266 20.0213 9.81101 19.9958 10.0908L18.9958 21.0908C18.9489 21.6058 18.5169 22 17.9998 22H14.9998C14.4827 21.9999 14.0506 21.6057 14.0037 21.0908L13.0037 10.0908C12.9782 9.81106 13.0721 9.53265 13.2615 9.3252C13.4509 9.11798 13.719 9.00005 13.9998 9H18.9998L19.1042 9.00586ZM6.91284 20H8.08667L8.90405 11H6.09546L6.91284 20ZM15.9128 20H17.0867L17.9041 11H15.0955L15.9128 20ZM7.49976 2C9.15661 2 10.4998 3.34315 10.4998 5C10.4998 6.65685 9.15661 8 7.49976 8C5.84299 7.9999 4.49976 6.65679 4.49976 5C4.49976 3.34321 5.84299 2.0001 7.49976 2ZM16.4998 2C18.1566 2 19.4998 3.34315 19.4998 5C19.4998 6.65685 18.1566 8 16.4998 8C14.843 7.9999 13.4998 6.65679 13.4998 5C13.4998 3.34321 14.843 2.0001 16.4998 2ZM7.49976 4C6.94756 4.0001 6.49976 4.44778 6.49976 5C6.49976 5.55222 6.94756 5.9999 7.49976 6C8.05204 6 8.49976 5.55228 8.49976 5C8.49976 4.44772 8.05204 4 7.49976 4ZM16.4998 4C15.9476 4.0001 15.4998 4.44778 15.4998 5C15.4998 5.55222 15.9476 5.9999 16.4998 6C17.052 6 17.4998 5.55228 17.4998 5C17.4998 4.44772 17.052 4 16.4998 4Z" fill="#9E9E9E"/>
</g>
</svg>
