<svg width="24" height="24" viewBox="0 0 24 24" fill="none" xmlns="http://www.w3.org/2000/svg">
<g id="icons/Peoples/woman">
<path id="Union" d="M14.3602 14.7314C14.7087 14.441 15.2147 14.4202 15.5878 14.6914L21.0878 18.6914L21.161 18.75C21.3245 18.8941 21.4372 19.0883 21.4803 19.3037L21.9803 21.8037C22.0886 22.3452 21.7376 22.8721 21.1962 22.9805C20.6547 23.0887 20.1278 22.7377 20.0194 22.1963L19.5956 20.0781L15.1024 16.8105L12.7069 19.207C12.3164 19.5975 11.6834 19.5975 11.2928 19.207L8.89636 16.8105L4.4032 20.0781L3.98035 22.1963C3.87194 22.7377 3.34508 23.0888 2.80359 22.9805C2.26219 22.872 1.91113 22.3452 2.01941 21.8037L2.51941 19.3037C2.56868 19.0576 2.70899 18.8391 2.91199 18.6914L8.41199 14.6914L8.48816 14.6406C8.87765 14.4083 9.38077 14.4669 9.70691 14.793L11.9999 17.0859L14.2928 14.793L14.3602 14.7314ZM11.9999 1C15.8659 1 18.9999 4.134 18.9999 8C18.9999 9.93271 18.2157 11.6845 16.9501 12.9502C16.5596 13.3407 15.9255 13.3407 15.535 12.9502C15.1446 12.5597 15.1446 11.9257 15.535 11.5352C15.7832 11.287 16.0035 11.012 16.1952 10.7168C16.282 10.3803 16.185 10.0947 15.8583 9.74805C15.492 9.35946 15.0226 9.08769 14.577 8.78809C14.5402 8.76333 14.4042 8.69923 14.1044 8.62305C13.8251 8.55211 13.4922 8.4908 13.119 8.42676C12.7613 8.36536 12.3581 8.30016 11.9979 8.22363C11.6502 8.14972 11.2517 8.04839 10.9218 7.88672C10.1745 7.52043 9.75471 6.76309 9.53015 6.3584C9.38743 6.10119 9.30657 5.94484 9.2196 5.81152C9.21253 5.80069 9.20498 5.79174 9.1991 5.7832C9.14392 5.76812 9.12584 5.77654 9.10632 5.7832C9.03112 5.80892 8.76026 5.94281 8.31921 6.57324C7.86094 7.22866 7.54018 8.37986 7.50085 10.1826C7.74579 10.6862 8.07248 11.1429 8.46472 11.5352C8.85525 11.9257 8.85525 12.5597 8.46472 12.9502C8.07419 13.3407 7.44018 13.3407 7.04968 12.9502C5.78403 11.6845 4.99988 9.93269 4.99988 8C4.99988 4.13403 8.13393 1.00005 11.9999 1ZM11.9999 3C11.0106 3.00002 10.0885 3.28748 9.31238 3.7832C9.63019 3.80817 9.89875 3.89924 10.1014 3.9873C10.5214 4.1698 10.7728 4.53086 10.8954 4.71875C11.0343 4.93171 11.1772 5.20483 11.2792 5.38867C11.5438 5.86546 11.6986 6.04011 11.8016 6.09082C11.8969 6.13749 12.0904 6.199 12.413 6.26758C12.7233 6.33353 13.0712 6.38986 13.4569 6.45605C13.8272 6.5196 14.2316 6.59189 14.5966 6.68457C14.9405 6.77193 15.3564 6.90224 15.6923 7.12793C15.939 7.29384 16.4933 7.62639 16.9979 8.07324C16.9983 8.04886 16.9999 8.02446 16.9999 8C16.9999 5.23858 14.7613 3 11.9999 3Z" fill="#9E9E9E"/>
</g>
</svg>
