<svg width="24" height="24" viewBox="0 0 24 24" fill="none" xmlns="http://www.w3.org/2000/svg">
<g id="icons/Peoples/women">
<path id="Union" d="M12.4396 1.00391C13.562 0.958283 14.537 1.35422 15.3097 2.02832C16.7966 3.32586 17.5014 5.59952 17.5079 7.82715H17.5089C17.5515 9.18711 17.8683 10.1041 18.2198 10.7383C18.5747 11.3781 18.9894 11.7794 19.3341 12.1094L19.3419 12.1172C19.5511 12.3178 19.663 12.5992 19.6486 12.8887C19.634 13.178 19.4948 13.4473 19.2667 13.626C17.9691 14.6414 16.6931 15.3612 15.4562 15.8379C15.4991 16.0301 15.5438 16.2104 15.5822 16.3506C15.6245 16.505 15.6746 16.5833 15.7101 16.623C15.74 16.6563 15.7896 16.6965 15.8976 16.7285C16.3417 16.8601 16.8128 16.9687 17.3341 17.0879H17.3351C17.4667 17.118 17.6017 17.1491 17.7374 17.1807C18.3819 17.3307 19.1043 17.5104 19.7638 17.7764C20.4243 18.0428 21.1354 18.439 21.674 19.0898C22.2402 19.7743 22.5179 20.6217 22.4991 21.5938V21.5947C22.4827 22.4188 21.7922 22.9998 21.045 23H2.9552C2.20787 22.9998 1.51711 22.4183 1.5011 21.5938C1.48249 20.6216 1.76091 19.7743 2.32727 19.0898C2.86593 18.4391 3.57697 18.0427 4.23743 17.7764C4.89681 17.5105 5.61841 17.3307 6.26282 17.1807C6.39878 17.149 6.53382 17.1181 6.66614 17.0879L7.41321 16.9131C7.65174 16.8547 7.88053 16.7943 8.10266 16.7285C8.21078 16.6965 8.26029 16.6564 8.29016 16.623C8.32561 16.5833 8.37576 16.505 8.41809 16.3506C8.43549 16.287 8.4505 16.2131 8.46985 16.1348C6.93274 15.6614 5.65759 14.8878 4.71594 14.1152C4.47582 13.9182 4.34081 13.62 4.35071 13.3096C4.36077 12.9991 4.51441 12.7105 4.76672 12.5293C5.32708 12.1269 5.49984 11.7423 5.56067 11.4277C5.6315 11.0611 5.57334 10.6903 5.49329 10.2471C5.47602 10.1515 5.45599 10.0427 5.44055 9.93945C4.99973 6.98535 5.36894 5.00977 6.30481 3.75684C7.16106 2.61086 8.34442 2.26045 9.2804 2.19727C10.3599 1.4505 11.4193 1.04548 12.4396 1.00391ZM12.5216 3.00195C11.9332 3.02588 11.1605 3.28244 10.2081 3.98828C10.0359 4.1158 9.8267 4.18455 9.61243 4.18457C8.9942 4.18463 8.35174 4.35866 7.90735 4.95312C7.43775 5.58176 7.01129 6.91048 7.41907 9.64355C7.42918 9.71118 7.44254 9.78904 7.46106 9.8916C7.53558 10.3041 7.67458 11.0246 7.52356 11.8066C7.43004 12.2905 7.23191 12.7702 6.89563 13.2227C7.71395 13.7396 8.71246 14.1943 9.84973 14.4277C10.3777 14.5364 10.7245 15.0438 10.6339 15.5752C10.5561 16.0309 10.4404 16.5393 10.3478 16.8779C10.1291 17.677 9.61025 18.3683 8.67102 18.6465C8.1557 18.7991 7.62171 18.9216 7.11243 19.0381H7.11145C6.97922 19.0683 6.84742 19.0983 6.71594 19.1289C6.07463 19.2782 5.48745 19.4294 4.98547 19.6318C4.48251 19.8347 4.11023 20.0717 3.86731 20.3652C3.72601 20.5361 3.61722 20.7412 3.55579 21H20.4445C20.3831 20.7413 20.2742 20.5361 20.1329 20.3652C19.8901 20.0718 19.5184 19.8346 19.0157 19.6318C18.5137 19.4294 17.9257 19.2782 17.2843 19.1289C17.153 19.0983 17.0214 19.0684 16.8888 19.0381C16.3795 18.9216 15.8447 18.7992 15.3292 18.6465C14.3901 18.3683 13.8712 17.6771 13.6525 16.8779C13.5437 16.4804 13.3984 15.8347 13.3243 15.3154C13.2546 14.8261 13.5532 14.3583 14.0265 14.2158C15.003 13.9219 16.0449 13.4352 17.1417 12.6963C16.9185 12.4223 16.6857 12.0965 16.4708 11.709C15.9566 10.7816 15.5619 9.55039 15.5099 7.88965C15.5096 7.87943 15.5089 7.86863 15.5089 7.8584C15.5089 5.93524 14.8882 4.31462 13.9952 3.53516C13.5744 3.16799 13.0898 2.97897 12.5216 3.00195Z" fill="#9E9E9E"/>
</g>
</svg>
