<svg width="24" height="24" viewBox="0 0 24 24" fill="none" xmlns="http://www.w3.org/2000/svg">
<g id="icons/Peoples/wrong-user">
<path id="Union" d="M12 12C17.5228 12 22 16.4772 22 22C22 22.5523 21.5523 23 21 23C20.4477 23 20 22.5523 20 22C20 17.5817 16.4183 14 12 14C7.58173 14 4 17.5817 4 22C4 22.5523 3.55228 23 3 23C2.44772 23 2 22.5523 2 22C2 16.4772 6.47717 12 12 12ZM13.293 17.293C13.6835 16.9024 14.3165 16.9024 14.707 17.293C15.0976 17.6835 15.0976 18.3165 14.707 18.707L13.4141 20L14.707 21.293C15.0976 21.6835 15.0976 22.3165 14.707 22.707C14.3165 23.0976 13.6835 23.0976 13.293 22.707L12 21.4141L10.707 22.707C10.3165 23.0976 9.68349 23.0976 9.29297 22.707C8.90244 22.3165 8.90244 21.6835 9.29297 21.293L10.5859 20L9.29297 18.707C8.90244 18.3165 8.90244 17.6835 9.29297 17.293C9.68349 16.9024 10.3165 16.9024 10.707 17.293L12 18.5859L13.293 17.293ZM12 1C14.7614 1 17 3.23858 17 6C17 8.76142 14.7614 11 12 11C9.23858 11 7 8.76142 7 6C7 3.23858 9.23858 1 12 1ZM12 3C10.3431 3 9 4.34315 9 6C9 7.65685 10.3431 9 12 9C13.6569 9 15 7.65685 15 6C15 4.34315 13.6569 3 12 3Z" fill="#9E9E9E"/>
</g>
</svg>
