<svg width="24" height="24" viewBox="0 0 24 24" fill="none" xmlns="http://www.w3.org/2000/svg">
<g id="icons/Hands/bad-two">
<path id="Union" d="M18.4929 1.5C19.388 1.5 20.1743 2.09474 20.4177 2.95605L23.1033 12.4639C23.4638 13.7401 22.5046 15.0076 21.1785 15.0078H17.0935L17.1482 15.1885C17.3479 15.8547 17.5967 16.6618 17.6492 17.5156C17.6938 18.2412 17.6595 19.3551 17.1072 20.2764C16.6441 21.0485 15.8535 21.7539 15.1355 22.1436C14.7957 22.3279 14.3235 22.5242 13.8357 22.4971C13.5669 22.482 13.2393 22.3949 12.9617 22.1426C12.6822 21.8884 12.558 21.5623 12.5173 21.2695C12.5047 21.1783 12.5004 21.0971 12.4988 21.0449C12.4964 20.9679 12.4985 20.9777 12.4968 20.9404L12.4812 20.666C12.4582 20.3186 12.4091 19.7683 12.3083 19.168C12.1695 18.3409 11.9505 17.5386 11.6423 17.0244C11.4278 16.6666 11.0449 16.3019 10.5642 15.9629C10.0942 15.6315 9.59169 15.3671 9.21069 15.1875C8.51698 14.8603 7.99976 14.1538 7.99976 13.3125V3.5C7.99976 2.39551 8.89525 1.50011 9.99976 1.5H18.4929ZM9.99976 13.3125C9.99976 13.3128 10 13.314 10.0007 13.3164C10.0016 13.3192 10.0038 13.3249 10.0085 13.332C10.019 13.3477 10.0383 13.3657 10.0642 13.3779C10.5074 13.5868 11.12 13.9075 11.7166 14.3281C12.3023 14.7412 12.9382 15.2966 13.3572 15.9951C13.8653 16.8426 14.1325 17.9518 14.281 18.8359C14.3682 19.3552 14.4191 19.839 14.4509 20.2148C14.8143 19.9597 15.1848 19.5941 15.3923 19.248C15.6245 18.8609 15.6909 18.2552 15.6531 17.6387C15.6173 17.0563 15.4456 16.4748 15.2322 15.7627L14.7917 14.2949C14.701 13.9922 14.7594 13.6647 14.948 13.4111C15.1367 13.1576 15.4338 13.0079 15.7498 13.0078H21.1785L18.4929 3.5H9.99976V13.3125ZM4.99976 1.5C6.10435 1.5 6.99976 2.39544 6.99976 3.5V13.5C6.99976 14.6046 6.10434 15.5 4.99976 15.5H3.08667C1.91668 15.4999 0.996401 14.4999 1.09351 13.334L1.92651 3.33398C2.01289 2.29757 2.87971 1.50024 3.91968 1.5H4.99976ZM3.08667 13.5H4.99976V3.5H3.91968L3.08667 13.5Z" fill="#9E9E9E"/>
</g>
</svg>
