<svg width="24" height="24" viewBox="0 0 24 24" fill="none" xmlns="http://www.w3.org/2000/svg">
<g id="icons/Hands/bad-one">
<path id="Union" d="M16.9932 1.5C17.8882 1.5 18.6745 2.09471 18.918 2.95605L21.6025 12.4561C21.9632 13.7325 21.0041 15 19.6777 15H14.5068L14.6289 15.5273C14.8812 16.6208 14.9624 17.7469 14.8691 18.8652L14.8232 19.417C14.7542 20.2443 14.3937 21.0204 13.8066 21.6074C13.2351 22.1789 12.4596 22.5 11.6514 22.5H11.5322C10.8406 22.5 10.2031 22.1251 9.86719 21.5205L8.53809 19.1279C8.03412 18.2209 7.28301 17.4755 6.37207 16.9785L3.04199 15.1621C2.39954 14.8116 2 14.138 2 13.4062V3.5C2 2.39543 2.89543 1.5 4 1.5H16.9932ZM4 13.4062L7.3291 15.2227C8.57283 15.9011 9.59908 16.9187 10.2871 18.1572L11.5879 20.5H11.6514C11.9292 20.5 12.1961 20.3898 12.3926 20.1934C12.6451 19.9408 12.8003 19.6068 12.8301 19.251L12.876 18.6992C12.952 17.7872 12.8855 16.8684 12.6797 15.9766L12.4297 14.8945C12.2062 13.9254 12.9428 13 13.9375 13H19.6787L16.9932 3.5H4V13.4062Z" fill="#9E9E9E"/>
</g>
</svg>
