<svg width="24" height="24" viewBox="0 0 24 24" fill="none" xmlns="http://www.w3.org/2000/svg">
<g id="icons/Hands/bad">
<path id="Union" d="M15.4388 1.01465C16.8261 1.15566 17.9065 2.32708 17.9066 3.75C17.9066 4.11767 17.8334 4.46847 17.7025 4.78906C18.6083 5.23903 19.2328 6.17095 19.2328 7.25098C19.2328 7.55903 19.1788 7.85433 19.0853 8.13086C20.1956 8.48459 21.0004 9.52436 21.0004 10.752C21.0002 11.6877 20.5309 12.5121 19.8168 13.0088C20.0067 13.3824 20.1166 13.8041 20.1166 14.252C20.1166 15.7707 18.8852 17.0015 17.3666 17.002H15.5092C15.7128 17.4118 15.9219 17.8698 16.0814 18.3213C16.4086 19.2471 16.4649 20.4382 16.2289 21.3613C16.1137 21.8115 15.8892 22.3553 15.4349 22.7217C15.1917 22.9178 14.8883 23.0564 14.5385 23.0879C14.1949 23.1187 13.8691 23.0408 13.5804 22.9072C10.5996 21.5268 6.19509 19.6394 4.05994 14.8076C2.62965 11.5707 2.65563 7.64112 4.09119 4.93359C5.57607 2.13337 7.88896 1.00013 9.83533 1H15.1576L15.4388 1.01465ZM9.83533 3C8.68838 3.00013 7.0244 3.67025 5.85779 5.87012C4.75149 7.95664 4.66777 11.235 5.88904 13.999C7.64153 17.9649 11.1969 19.6004 14.2455 21.0107C14.2597 20.9713 14.2766 20.924 14.2914 20.8662C14.4269 20.336 14.3939 19.5484 14.1957 18.9873C14.0007 18.4359 13.6983 17.8265 13.432 17.3379C13.3011 17.0978 13.1837 16.8943 13.099 16.752C13.0568 16.681 13.0222 16.625 12.9994 16.5879C12.9882 16.5697 12.9795 16.5557 12.974 16.5469C12.9714 16.5427 12.9693 16.539 12.9681 16.5371L12.9672 16.5352C12.7732 16.2271 12.762 15.8383 12.9379 15.5195C13.1138 15.2008 13.4488 15.0021 13.8129 15.002H17.3666C17.7806 15.0015 18.1166 14.6661 18.1166 14.252C18.1165 13.8379 17.7806 13.5024 17.3666 13.502C16.8144 13.502 16.3667 13.0541 16.3666 12.502C16.3666 11.9841 16.7597 11.558 17.264 11.5068L17.3666 11.502H18.2504C18.6643 11.5016 19.0001 11.1658 19.0004 10.752C19.0004 10.3378 18.6644 10.0014 18.2504 10.001H16.4828C15.9305 10.001 15.4828 9.55326 15.4828 9.00098C15.4829 8.4488 15.9306 8.00098 16.4828 8.00098C16.8967 8.00051 17.2328 7.66506 17.2328 7.25098C17.2328 6.83683 16.8967 6.50145 16.4828 6.50098H15.1566C14.6045 6.50098 14.1568 6.05309 14.1566 5.50098C14.1566 4.94869 14.6043 4.50098 15.1566 4.50098C15.5707 4.50068 15.9066 4.1642 15.9066 3.75C15.9065 3.36104 15.6118 3.0426 15.2347 3.00391L15.1576 3H9.83533Z" fill="#9E9E9E"/>
</g>
</svg>
