<svg width="24" height="24" viewBox="0 0 24 24" fill="none" xmlns="http://www.w3.org/2000/svg">
<g id="icons/Hands/bless">
<path id="Union" d="M9.73376 1.00977C10.7257 1.11082 11.5004 1.94918 11.5004 2.96777V12.3564C11.5004 12.5469 11.4727 12.7365 11.4193 12.9189L11.2094 13.6328L9.65271 20.4453C9.44485 21.3546 8.63519 21.9998 7.70251 22H3.66052C2.15371 21.9997 1.1882 20.3963 1.89294 19.0645L5.55115 12.1543L7.60876 2.55566L7.65173 2.38867C7.90336 1.56985 8.66271 1 9.53259 1L9.73376 1.00977ZM14.64 1.00781C15.4365 1.07739 16.1142 1.62432 16.349 2.38867L16.392 2.55566L18.4486 12.1543H18.4496L22.1068 19.0645C22.8116 20.3962 21.8461 21.9997 20.3392 22H16.2972C15.3646 21.9999 14.5559 21.3546 14.348 20.4453L12.7953 13.6475L12.5814 12.9189C12.528 12.7365 12.5004 12.5469 12.5004 12.3564V2.96777C12.5004 1.88105 13.3814 1 14.4681 1L14.64 1.00781ZM3.66052 20H7.70251L8.93005 14.6289L6.95251 13.7812L3.66052 20ZM15.0687 14.6289L16.2972 20H20.3392L17.0472 13.7812L15.0687 14.6289ZM14.5004 12.3564L14.5892 12.6592L16.35 11.9053L14.5004 3.27051V12.3564ZM7.64978 11.9053L9.41052 12.6592L9.50037 12.3564V3.27051L7.64978 11.9053Z" fill="#9E9E9E"/>
</g>
</svg>
