<svg width="24" height="24" viewBox="0 0 24 24" fill="none" xmlns="http://www.w3.org/2000/svg">
<g id="icons/Hands/bye">
<path id="Union" d="M4.78577 2.98828C5.73419 2.01272 7.29442 1.99122 8.27014 2.93945L16.9791 11.4053L17.8092 8.35156C18.1967 6.92637 19.6406 6.06254 21.0797 6.39355L21.0807 6.39258C21.1006 6.39716 21.1201 6.40189 21.1373 6.40625H21.1383C22.5581 6.76686 23.4167 8.2111 23.0563 9.63086C22.5036 11.8079 22.0391 13.5536 21.6637 14.8643C21.2953 16.1503 20.995 17.0803 20.7682 17.5791C20.027 19.2087 18.5223 20.7619 16.9196 21.832C15.884 22.5234 14.5073 22.6318 13.2985 22.4609C12.0725 22.2875 10.8043 21.7987 9.90295 21.0439C8.95959 20.2539 6.53098 17.9669 1.9176 13.2002L1.91858 13.1992C1.91474 13.1953 1.90772 13.1897 1.901 13.1826L1.90198 13.1816C0.908098 12.1355 0.947996 10.4823 1.9928 9.48633C2.16932 9.31811 2.36398 9.18038 2.56897 9.07031L1.9176 8.40625C1.88062 8.36858 1.84391 8.32924 1.8092 8.28906C0.90125 7.23816 1.01666 5.65004 2.06702 4.74121C2.66169 4.2268 3.41879 4.01234 4.14905 4.08887C4.25285 3.73393 4.4302 3.39476 4.68616 3.09766C4.71818 3.06049 4.75131 3.02374 4.78577 2.98828ZM2.08459 16.0283C2.55882 15.7459 3.17289 15.902 3.45569 16.376C3.74951 16.8688 4.09059 17.3317 4.47327 17.7568H4.47424C4.8573 18.1822 5.28202 18.571 5.74182 18.915C5.9704 19.086 6.20834 19.246 6.45374 19.3945C6.69768 19.5421 6.94958 19.679 7.20862 19.8027C7.70699 20.0407 7.9182 20.6374 7.6803 21.1357C7.44233 21.6341 6.84566 21.8453 6.34729 21.6074C6.02863 21.4553 5.71848 21.2879 5.41858 21.1064C5.11694 20.9239 4.82448 20.7268 4.54358 20.5166C3.97898 20.0942 3.45783 19.6176 2.98792 19.0957C2.518 18.5737 2.09803 18.0051 1.73694 17.3994C1.45477 16.9252 1.61055 16.311 2.08459 16.0283ZM6.87561 4.37305C6.69191 4.19522 6.39871 4.19941 6.22034 4.38281C6.21406 4.38927 6.20792 4.3962 6.20178 4.40332H6.20081C5.98025 4.6596 5.98965 5.0375 6.21448 5.28516L10.3893 9.4248L11.2496 10.2773C11.3233 10.3504 11.3832 10.4325 11.4293 10.5195C11.6294 10.8961 11.5715 11.3737 11.2555 11.6924C11.0612 11.8883 10.8061 11.9871 10.5504 11.9883C10.5182 11.9885 10.4859 11.9873 10.4537 11.9844C10.2946 11.9697 10.1384 11.9169 9.99963 11.8262C9.94385 11.7898 9.8906 11.747 9.84143 11.6982L4.82971 6.7334C4.81577 6.71959 4.80324 6.70447 4.78967 6.69043L4.3844 6.28809C4.10872 6.01501 3.66921 5.99924 3.37561 6.25293C3.18723 6.41593 3.14533 6.68625 3.26233 6.89551L3.32288 6.98145C3.32954 6.98916 3.33706 6.99743 3.34436 7.00488L8.84143 12.6064C9.19306 12.9648 9.21857 13.5195 8.92444 13.9082C8.91759 13.9173 8.91113 13.9267 8.90393 13.9355C8.88021 13.9648 8.85526 13.9935 8.82776 14.0205C8.76492 14.0822 8.69569 14.1331 8.62268 14.1748C8.61418 14.1797 8.6059 14.1849 8.59729 14.1895C8.57532 14.2012 8.55251 14.2107 8.52991 14.2207C8.52325 14.2236 8.51709 14.2277 8.51038 14.2305C8.49176 14.2382 8.47269 14.2444 8.45374 14.251C8.43979 14.2558 8.42585 14.2605 8.41174 14.2646C8.39648 14.2692 8.38126 14.2736 8.36584 14.2773C8.35025 14.2812 8.3347 14.285 8.31897 14.2881C8.30149 14.2915 8.28384 14.2934 8.26624 14.2959C8.25222 14.2979 8.23832 14.3004 8.22424 14.3018C8.20864 14.3033 8.19302 14.3039 8.17737 14.3047C8.16076 14.3055 8.14419 14.3066 8.12756 14.3066C8.11061 14.3066 8.09372 14.3055 8.07678 14.3047C8.0621 14.304 8.04748 14.3031 8.03284 14.3018C8.01747 14.3003 8.00224 14.2981 7.98694 14.2959C7.96933 14.2934 7.95168 14.2915 7.9342 14.2881C7.92273 14.2858 7.91142 14.2829 7.90002 14.2803C7.88042 14.2757 7.86078 14.2714 7.84143 14.2656C7.82792 14.2616 7.81475 14.2566 7.80139 14.252C7.78339 14.2458 7.76537 14.2397 7.74768 14.2324C7.74001 14.2293 7.73283 14.225 7.72522 14.2217C7.70062 14.2109 7.67582 14.2004 7.65198 14.1875C7.65031 14.1866 7.64876 14.1855 7.64709 14.1846C7.56879 14.1417 7.49434 14.0879 7.42737 14.0225L4.30042 10.9658L4.28479 10.9502C4.03631 10.6966 3.62975 10.6896 3.37268 10.9346L3.3717 10.9336C3.15627 11.1391 3.12303 11.4642 3.27502 11.707L3.3512 11.8057L3.35413 11.8086H3.3551C7.96986 16.5768 10.3319 18.7953 11.1862 19.5107C11.739 19.9738 12.6325 20.3467 13.5778 20.4805C14.5405 20.6166 15.3472 20.4774 15.8092 20.1689C17.2017 19.2392 18.404 17.9469 18.9479 16.751C19.1036 16.4085 19.3664 15.6207 19.7408 14.3135C20.1083 13.0308 20.5673 11.3071 21.1178 9.13867C21.2064 8.78948 20.9953 8.4335 20.6461 8.34473V8.3457C20.6408 8.34432 20.6363 8.34246 20.6334 8.3418H20.6324C20.2398 8.25122 19.8448 8.48708 19.7389 8.87598L18.4733 13.5371C18.4443 13.6604 18.3906 13.7784 18.3141 13.8857C18.2848 13.927 18.2532 13.966 18.2184 14.002L18.2174 14.0039C18.1539 14.0692 18.0832 14.1228 18.0084 14.167C18.0029 14.1703 17.9974 14.1736 17.9918 14.1768C17.9689 14.1897 17.9452 14.2009 17.9215 14.2119C17.9168 14.2141 17.9126 14.2176 17.9078 14.2197C17.8838 14.2304 17.8592 14.2393 17.8346 14.248C17.8284 14.2503 17.8223 14.2528 17.816 14.2549C17.8005 14.26 17.7849 14.2652 17.7692 14.2695C17.7505 14.2748 17.7316 14.279 17.7125 14.2832C17.7034 14.2852 17.6943 14.2874 17.6852 14.2891C17.5409 14.3165 17.3882 14.3135 17.2369 14.2725C17.0583 14.2239 16.9053 14.1286 16.7848 14.0049L6.87561 4.37305ZM10.5582 2.35742C10.7697 1.8475 11.3549 1.60529 11.8649 1.81641C12.1912 1.95174 12.5099 2.10305 12.819 2.26855C13.1298 2.43504 13.4318 2.61644 13.7233 2.81152C14.3092 3.2038 14.8545 3.65281 15.3512 4.14941C15.8478 4.64603 16.2968 5.19136 16.6891 5.77734C16.996 6.2361 16.8731 6.85678 16.4147 7.16406C15.9557 7.4712 15.3342 7.34855 15.027 6.88965C14.7075 6.41252 14.3419 5.96828 13.9371 5.56348C13.5324 5.15876 13.0881 4.79307 12.611 4.47363C12.3735 4.31471 12.1275 4.16669 11.8746 4.03125C11.6233 3.89665 11.3643 3.77398 11.0992 3.66406C10.5894 3.45243 10.3469 2.86742 10.5582 2.35742Z" fill="#9E9E9E"/>
</g>
</svg>
