<svg width="24" height="24" viewBox="0 0 24 24" fill="none" xmlns="http://www.w3.org/2000/svg">
<g id="icons/Hands/clap">
<path id="Union" d="M18.3623 5.54785C18.8637 4.85233 19.7901 4.60373 20.5723 4.95508L20.7383 5.04004L20.874 5.12598C21.4842 5.5542 21.7701 6.31605 21.5928 7.04004L21.5469 7.19434L18.9951 14.6826L18.7617 21.082C18.7225 22.1575 17.839 23.0098 16.7627 23.0098H14.2803C12.9796 23.0095 12.0257 21.7864 12.3408 20.5244L14.0264 13.7725L14.1875 12.9707C14.2303 12.7576 14.3074 12.5524 14.416 12.3643L18.2617 5.70312L18.3623 5.54785ZM3.19434 4.95117C3.97208 4.60156 4.89368 4.84861 5.39258 5.54004L5.49316 5.69531L9.42578 12.5068L9.47363 12.6016L9.91406 13.5947L9.91895 13.6064C9.92698 13.6252 9.93351 13.6446 9.94043 13.6641L9.95117 13.6895C9.95347 13.6965 9.9549 13.7038 9.95703 13.7109C9.96138 13.7254 9.96503 13.7401 9.96875 13.7549C9.97147 13.7657 9.97517 13.7763 9.97754 13.7871L11.4619 20.582C11.7345 21.8291 10.7851 23.0085 9.50879 23.0088H7.0293C5.92853 23.0086 5.03454 22.1192 5.0293 21.0186V21.0176L5.00098 14.6816L2.24121 7.22266C1.93637 6.39879 2.26954 5.47441 3.03027 5.03516L3.19434 4.95117ZM14.2812 21.0098H16.7627L16.9688 15.3418L15.7461 15.1377L14.2812 21.0098ZM7.00391 15.3457L7.0293 21.0088H9.50879L8.22559 15.1426L7.00391 15.3457ZM6.65137 13.377L7.5332 13.2305L4.9248 8.71191L6.65137 13.377ZM16.2461 13.1934L17.3271 13.374L19.0352 8.3623L16.2461 13.1934ZM6.8418 2.74707C7.25743 2.38374 7.88935 2.4263 8.25293 2.8418L10.0029 4.8418C10.3663 5.25743 10.3237 5.88935 9.9082 6.25293C9.49256 6.61629 8.86065 6.57372 8.49707 6.1582L6.74707 4.1582C6.38373 3.74256 6.42628 3.11065 6.8418 2.74707ZM11.3359 1.01367C11.8806 0.923079 12.3955 1.29129 12.4863 1.83594L12.9863 4.83594C13.0769 5.38059 12.7087 5.89555 12.1641 5.98633C11.6194 6.07693 11.1044 5.70873 11.0137 5.16406L10.5137 2.16406C10.4231 1.61942 10.7913 1.10445 11.3359 1.01367ZM15.7002 2.40039C16.0315 1.95864 16.6578 1.86898 17.0996 2.2002C17.5414 2.53152 17.631 3.15779 17.2998 3.59961L15.7998 5.59961C15.4685 6.04139 14.8422 6.13104 14.4004 5.7998C13.9586 5.46847 13.869 4.84221 14.2002 4.40039L15.7002 2.40039Z" fill="#9E9E9E"/>
</g>
</svg>
