<svg width="24" height="24" viewBox="0 0 24 24" fill="none" xmlns="http://www.w3.org/2000/svg">
<g id="icons/Hands/click-tap-two">
<path id="Union" d="M7.5 1C11.0898 1 14 3.91015 14 7.5C14 10.0088 12.5784 12.1831 10.5 13.2666V16.6934L21.2129 19.0225C21.6724 19.1225 22 19.5297 22 20V22C22 22.5523 21.5523 23 21 23C20.4477 23 20 22.5523 20 22V20.8057L9.28711 18.4775C8.82761 18.3775 8.5 17.9703 8.5 17.5V7.5C8.5 6.94773 8.05227 6.5 7.5 6.5C6.94773 6.5 6.5 6.94773 6.5 7.5V22C6.5 22.5523 6.05228 23 5.5 23C4.94772 23 4.5 22.5523 4.5 22V13.2666C2.42165 12.1831 1 10.0088 1 7.5C1 3.91015 3.91015 1 7.5 1ZM7.5 3C5.01472 3 3 5.01472 3 7.5C3 8.83129 3.5797 10.0271 4.5 10.8516V7.5C4.5 5.84317 5.84317 4.5 7.5 4.5C9.15683 4.5 10.5 5.84317 10.5 7.5V10.8516C11.4203 10.0271 12 8.8313 12 7.5C12 5.01472 9.98527 3 7.5 3Z" fill="#9E9E9E"/>
</g>
</svg>
