<svg width="24" height="24" viewBox="0 0 24 24" fill="none" xmlns="http://www.w3.org/2000/svg">
<g id="icons/Hands/click-tap">
<path id="Union" d="M9 5C10.3807 5 11.5 6.11927 11.5 7.5V9.5498C11.6615 9.51702 11.8288 9.5 12 9.5C12.5635 9.5 13.0819 9.68841 13.5 10.0029C13.9181 9.68841 14.4365 9.5 15 9.5C15.5635 9.5 16.0819 9.68841 16.5 10.0029C16.9181 9.68841 17.4365 9.5 18 9.5C19.3807 9.5 20.5 10.6193 20.5 12V15.75C20.5 19.4779 17.4779 22.5 13.75 22.5H13.25C9.52207 22.5 6.5 19.4779 6.5 15.75V7.5C6.5 6.11927 7.61927 5 9 5ZM9 7C8.72383 7 8.5 7.22383 8.5 7.5V15.75C8.5 18.3734 10.6266 20.5 13.25 20.5H13.75C16.3734 20.5 18.5 18.3734 18.5 15.75V12C18.5 11.7238 18.2762 11.5 18 11.5C17.7238 11.5 17.5 11.7238 17.5 12V14.5C17.5 15.0523 17.0523 15.5 16.5 15.5C15.9477 15.5 15.5 15.0523 15.5 14.5V12C15.5 11.7238 15.2762 11.5 15 11.5C14.7238 11.5 14.5 11.7238 14.5 12V14.5C14.5 15.0523 14.0523 15.5 13.5 15.5C12.9477 15.5 12.5 15.0523 12.5 14.5V12C12.5 11.7238 12.2762 11.5 12 11.5C11.7238 11.5 11.5 11.7238 11.5 12V14.5C11.5 15.0523 11.0523 15.5 10.5 15.5C9.94772 15.5 9.5 15.0523 9.5 14.5V7.5C9.5 7.22383 9.27617 7 9 7ZM9 1.5C10.9783 1.5 12.7329 2.45892 13.8242 3.93262C14.2137 4.45861 14.5196 5.05105 14.7217 5.69043C14.9024 6.26261 15 6.87103 15 7.5C15 8.05228 14.5523 8.5 14 8.5C13.4477 8.5 13 8.05228 13 7.5C13 7.07787 12.9354 6.67259 12.8154 6.29297C12.6812 5.86821 12.4769 5.47328 12.2168 5.12207C11.4864 4.13603 10.3176 3.5 9 3.5C7.68244 3.5 6.51361 4.13603 5.7832 5.12207C5.52308 5.47333 5.31878 5.86825 5.18457 6.29297C5.06465 6.67258 5 7.07785 5 7.5C5 8.05228 4.55228 8.5 4 8.5C3.44772 8.5 3 8.05228 3 7.5C3 6.87105 3.09755 6.26262 3.27832 5.69043C3.48039 5.051 3.78632 4.45856 4.17578 3.93262C5.26712 2.45892 7.02165 1.5 9 1.5Z" fill="#9E9E9E"/>
</g>
</svg>
