<svg width="24" height="24" viewBox="0 0 24 24" fill="none" xmlns="http://www.w3.org/2000/svg">
<g id="icons/Hands/come">
<path id="Union" d="M13.2502 2C14.554 2.00013 15.6431 2.90827 15.926 4.12598C16.1862 4.04434 16.4632 4.00003 16.7502 4C17.8885 4.00011 18.8656 4.69182 19.2834 5.67773C19.5844 5.56456 19.9097 5.50004 20.2502 5.5C21.7683 5.50015 23.0001 6.72988 23.0002 8.24902V14.5C23.0002 16.6177 21.8017 19.1853 19.0149 20.8574C16.2829 22.4964 12.3127 22.5237 9.05396 20.8945C6.60954 19.6723 4.98496 17.7547 3.79321 15.7783C2.62256 13.8368 1.8052 11.7118 1.09302 10.1689C0.809403 9.55453 0.79396 8.87379 1.18579 8.29395C1.52953 7.78551 2.07646 7.52543 2.53931 7.39258C3.47387 7.12449 4.68236 7.19592 5.62134 7.57129C6.08523 7.75682 6.56814 8.00056 7.00024 8.23633V5.75C7.00024 4.23132 8.23161 3.00018 9.75024 3C10.1743 3.00004 10.5752 3.09903 10.9338 3.27051C11.4224 2.5071 12.2766 2.00011 13.2502 2ZM13.2502 4C12.8362 4.00018 12.5002 4.33589 12.5002 4.75V5.75C12.5002 6.3022 12.0524 6.74985 11.5002 6.75C10.9481 6.74982 10.5002 6.30218 10.5002 5.75C10.5002 5.33587 10.1643 5.00015 9.75024 5C9.33618 5.00018 9.00024 5.33589 9.00024 5.75V10C9.00024 10.3687 8.79697 10.7078 8.47192 10.8818C8.18761 11.0338 7.85001 11.0385 7.5647 10.9004L7.44556 10.832L7.4436 10.8301C7.44144 10.8286 7.43758 10.8263 7.43286 10.8232C7.42309 10.8168 7.40781 10.8069 7.38794 10.7939C7.3477 10.7677 7.28729 10.7289 7.21118 10.6807C7.05845 10.5838 6.84119 10.4492 6.58716 10.2998C6.07011 9.99566 5.43381 9.65056 4.87915 9.42871C4.33173 9.2098 3.57824 9.17573 3.09106 9.31543C3.02001 9.33583 2.96691 9.35718 2.92798 9.375C3.70798 11.0705 4.42031 12.9443 5.5061 14.7451C6.58021 16.5264 7.95588 18.1095 9.94751 19.1055C12.6885 20.4759 15.9254 20.3792 17.9866 19.1426C20.1995 17.8147 21.0002 15.8822 21.0002 14.5V8.24902C21.0001 7.83556 20.6648 7.50014 20.2502 7.5C19.8362 7.50018 19.5002 7.83589 19.5002 8.25C19.5002 8.8022 19.0524 9.24985 18.5002 9.25C17.9481 9.24982 17.5002 8.80218 17.5002 8.25V6.75C17.5002 6.33587 17.1643 6.00015 16.7502 6C16.3362 6.00018 16.0002 6.33589 16.0002 6.75C16.0002 7.3022 15.5524 7.74985 15.0002 7.75C14.4481 7.74982 14.0002 7.30218 14.0002 6.75V4.75C14.0002 4.33587 13.6643 4.00015 13.2502 4Z" fill="#9E9E9E"/>
</g>
</svg>
