<svg width="24" height="24" viewBox="0 0 24 24" fill="none" xmlns="http://www.w3.org/2000/svg">
<g id="icons/Hands/concept-sharing">
<path id="Union" d="M7.15515 14.5811C7.42714 14.481 7.72947 14.5037 7.98328 14.6436L12.2587 17H14.1835C14.7358 17 15.1835 17.4477 15.1835 18C15.1833 18.5521 14.7356 19 14.1835 19H12.0009C11.8321 19 11.6653 18.9574 11.5175 18.876L7.41687 16.6152L3.4032 18.0918L3.97839 19.2305L6.6571 18.1133L6.76843 18.0742C7.03181 17.9993 7.31649 18.0356 7.55457 18.1777C9.19913 19.1598 10.5027 19.885 11.4735 20.3613C11.9595 20.5997 12.3463 20.7676 12.6405 20.874C12.9514 20.9864 13.0781 20.9993 13.0829 21C13.0636 20.9999 13.227 20.9822 13.705 20.8096C14.1326 20.6551 14.7093 20.4157 15.4423 20.0869C16.9057 19.4305 18.9382 18.4399 21.5458 17.1094C22.0377 16.8584 22.6404 17.053 22.8915 17.5449C23.1425 18.0369 22.9469 18.6396 22.455 18.8906C19.8368 20.2266 17.7696 21.2353 16.2606 21.9121C15.5076 22.2499 14.8798 22.5116 14.3846 22.6904C13.9412 22.8506 13.4626 23 13.0829 23C12.7208 23 12.3234 22.886 11.9608 22.7549C11.572 22.6143 11.1131 22.4116 10.5927 22.1562C9.64243 21.6901 8.43202 21.0183 6.9657 20.1514L3.8905 21.4355C3.40695 21.6371 2.84955 21.4314 2.61316 20.9639L1.11218 17.9912C0.983686 17.7367 0.969592 17.4391 1.0741 17.1738C1.17866 16.9085 1.3924 16.701 1.66003 16.6025L7.15515 14.5811ZM12.9999 1.5C16.0375 1.5 18.4999 3.96244 18.4999 7C18.4999 8.5185 17.8827 9.89449 16.8885 10.8887C16.5022 11.2749 15.9668 11.5812 15.496 11.8076V13.4941C15.4958 14.0463 15.0482 14.4941 14.496 14.4941H11.4999C11.2344 14.4941 10.9794 14.3881 10.7919 14.2002C10.6045 14.0123 10.4994 13.7575 10.4999 13.4922C10.5014 12.7559 10.4999 12.195 10.4999 11.8066C10.03 11.58 9.49704 11.2745 9.11121 10.8887C8.11709 9.89449 7.4999 8.51848 7.49988 7C7.49988 3.96248 9.96234 1.50006 12.9999 1.5ZM12.9999 3.5C11.0669 3.50006 9.49988 5.06704 9.49988 7C9.4999 7.96672 9.89085 8.84013 10.5253 9.47461C10.7805 9.72981 11.3168 9.99972 11.8827 10.2344C12.2505 10.3869 12.4931 10.7435 12.4999 11.1416C12.5021 11.2723 12.5008 11.7263 12.4999 12.4941H13.496V11.1582C13.4961 10.7541 13.7398 10.3892 14.1132 10.2344C14.6815 9.99872 15.2199 9.7291 15.4745 9.47461C16.1089 8.84013 16.4999 7.96673 16.4999 7C16.4999 5.067 14.9329 3.5 12.9999 3.5ZM5.79285 9.29297C6.18336 8.90245 6.81638 8.90246 7.20691 9.29297C7.59743 9.68349 7.59743 10.3165 7.20691 10.707L6.70691 11.207C6.31638 11.5975 5.68334 11.5975 5.29285 11.207C4.90237 10.8165 4.90242 10.1835 5.29285 9.79297L5.79285 9.29297ZM18.7928 9.29297C19.1834 8.90245 19.8164 8.90246 20.2069 9.29297L20.7069 9.79297C21.0974 10.1835 21.0974 10.8165 20.7069 11.207C20.3164 11.5975 19.6833 11.5975 19.2928 11.207L18.7928 10.707C18.4024 10.3165 18.4024 9.68349 18.7928 9.29297ZM5.99988 5C6.55216 5 6.99988 5.44772 6.99988 6C6.99984 6.55225 6.55214 7 5.99988 7H5.49988C4.94767 6.99994 4.49992 6.55221 4.49988 6C4.49988 5.44775 4.94765 5.00006 5.49988 5H5.99988ZM20.4999 5C21.0522 5 21.4999 5.44772 21.4999 6C21.4998 6.55225 21.0521 7 20.4999 7H19.9999C19.4477 6.99994 18.9999 6.55221 18.9999 6C18.9999 5.44775 19.4476 5.00006 19.9999 5H20.4999ZM6.29285 1.29297C6.68336 0.902451 7.31638 0.902464 7.70691 1.29297L8.20691 1.79297C8.59743 2.18349 8.59743 2.81651 8.20691 3.20703C7.81638 3.59746 7.18334 3.59752 6.79285 3.20703L6.29285 2.70703C5.90237 2.31654 5.90242 1.68349 6.29285 1.29297ZM18.2928 1.29297C18.6834 0.902451 19.3164 0.902465 19.7069 1.29297C20.0974 1.68349 20.0974 2.31651 19.7069 2.70703L19.2069 3.20703C18.8164 3.59746 18.1833 3.59752 17.7928 3.20703C17.4024 2.81654 17.4024 2.18349 17.7928 1.79297L18.2928 1.29297Z" fill="#9E9E9E"/>
</g>
</svg>
