<svg width="24" height="24" viewBox="0 0 24 24" fill="none" xmlns="http://www.w3.org/2000/svg">
<g id="icons/Hands/cool">
<path id="Union" d="M9.75098 1C11.2696 1.00017 12.501 2.23132 12.501 3.75V5.85547C12.7395 5.78799 12.9909 5.75 13.251 5.75C14.1424 5.7501 14.9321 6.17639 15.4346 6.83398C15.8254 6.62064 16.2743 6.5 16.751 6.5C17.0136 6.50003 17.2672 6.53862 17.5078 6.60742C17.5821 5.15499 18.7801 4 20.251 4C21.7696 4.00017 23.001 5.23132 23.001 6.75V15.0576C23.001 16.1412 22.761 17.3276 22.0088 18.3125C21.3065 19.2318 20.1484 20.4676 18.4795 21.3779C15.4053 23.0547 12.0567 22.8959 9.05371 21.3945C7.50899 20.6222 6.03269 19.2602 4.78027 17.8311C3.516 16.3883 2.41908 14.8069 1.64355 13.5146C0.609489 11.7916 1.19097 10.0382 2.37109 9.09082C3.52403 8.16559 5.35983 7.94468 6.70801 9.29297C6.81082 9.39579 6.9084 9.49335 7.00098 9.58594V3.75C7.00098 2.23122 8.23219 1 9.75098 1ZM9.75098 3C9.33677 3 9.00098 3.33578 9.00098 3.75V12C9.00098 12.4043 8.75725 12.769 8.38379 12.9238C8.01024 13.0787 7.58002 12.9928 7.29395 12.707H7.29297L7.29199 12.7051C7.29038 12.7035 7.28713 12.7012 7.2832 12.6973C7.2753 12.6894 7.26194 12.676 7.24023 12.6543C7.19675 12.6108 7.12004 12.5331 6.98535 12.3984C6.71579 12.1289 6.21564 11.6288 5.29395 10.707C4.7987 10.2117 4.13427 10.241 3.62305 10.6514C3.13909 11.0399 2.89215 11.7084 3.3584 12.4854C4.08319 13.6931 5.11126 15.1742 6.28418 16.5127C7.46884 17.8646 8.74219 19.0028 9.94727 19.6055C12.4441 20.8539 15.0957 20.9451 17.5215 19.6221C18.8704 18.8863 19.8271 17.8733 20.4189 17.0986C20.8182 16.576 21.001 15.8711 21.001 15.0576V6.75C21.001 6.33589 20.6651 6.00017 20.251 6C19.8368 6 19.501 6.33578 19.501 6.75V9.25L19.4951 9.35254C19.4438 9.85654 19.0185 10.2498 18.501 10.25C17.9833 10.25 17.5572 9.85665 17.5059 9.35254L17.501 9.25L17.4971 9.17285C17.4585 8.79497 17.139 8.50016 16.751 8.5C16.3368 8.5 16.001 8.83578 16.001 9.25L15.9951 9.35254C15.9438 9.85654 15.5185 10.2498 15.001 10.25C14.4833 10.25 14.0572 9.85665 14.0059 9.35254L14.001 9.25V8.5C14.001 8.08589 13.6651 7.75017 13.251 7.75C12.8368 7.75 12.501 8.08578 12.501 8.5L12.4951 8.60254C12.4438 9.10654 12.0185 9.49984 11.501 9.5C10.9833 9.5 10.5572 9.10665 10.5059 8.60254L10.501 8.5V3.75C10.501 3.33589 10.165 3.00017 9.75098 3Z" fill="#9E9E9E"/>
</g>
</svg>
