<svg width="24" height="24" viewBox="0 0 24 24" fill="none" xmlns="http://www.w3.org/2000/svg">
<g id="icons/Hands/easy">
<path id="Union" d="M18.75 1C20.2688 1 21.5 2.23122 21.5 3.75V14.1162C21.5 15.5039 21.1677 16.9532 20.292 18.168C19.5411 19.2095 18.3656 20.618 16.9805 21.377C15.5023 22.1869 14.1059 22.6155 12.6465 22.6865C11.1973 22.757 9.7517 22.4709 8.18359 21.9482C6.40191 21.3542 4.98734 20.0565 4.02734 18.6104C3.07158 17.1704 2.5 15.4846 2.5 14C2.5 12.785 3.39734 11.9772 4.05957 11.5322C4.55658 11.1984 5.09172 10.954 5.5 10.792V7.5C5.5 5.98122 6.73122 4.75 8.25 4.75C8.62917 4.75 8.9907 4.82605 9.31934 4.96484C9.78081 4.09384 10.6956 3.5 11.75 3.5C12.8042 3.5 13.7181 4.09406 14.1797 4.96484C14.5085 4.82583 14.8705 4.75 15.25 4.75C15.5103 4.75 15.7614 4.78887 16 4.85645V3.75C16 2.23122 17.2312 1 18.75 1ZM18.75 3C18.3358 3 18 3.33579 18 3.75V7.5C18 8.05228 17.5523 8.5 17 8.5C16.4477 8.5 16 8.05228 16 7.5C16 7.08578 15.6642 6.75 15.25 6.75C14.8358 6.75 14.5 7.08578 14.5 7.5C14.5 8.05228 14.0523 8.5 13.5 8.5C12.9477 8.5 12.5 8.05228 12.5 7.5V6.25C12.5 5.83578 12.1642 5.5 11.75 5.5C11.3358 5.5 11 5.83578 11 6.25V7.5C11 8.05228 10.5523 8.5 10 8.5C9.44772 8.5 9 8.05228 9 7.5C9 7.08578 8.66422 6.75 8.25 6.75C7.83578 6.75 7.5 7.08578 7.5 7.5V11.251C7.5 11.8069 7.16072 12.2798 6.68262 12.4844L6.58496 12.5215C6.26239 12.6306 5.6687 12.8606 5.1748 13.1924C4.63178 13.5572 4.5 13.8431 4.5 14C4.5 15.0152 4.90885 16.3231 5.69336 17.5049C6.47376 18.6805 7.56002 19.633 8.81641 20.0518C10.2481 20.529 11.4331 20.7437 12.5488 20.6895C13.6543 20.6357 14.758 20.3143 16.0195 19.623C16.9916 19.0904 17.9507 17.9957 18.6699 16.998C19.2398 16.2075 19.5 15.2005 19.5 14.1162V3.75C19.5 3.33579 19.1642 3 18.75 3Z" fill="#9E9E9E"/>
</g>
</svg>
