<svg width="24" height="24" viewBox="0 0 24 24" fill="none" xmlns="http://www.w3.org/2000/svg">
<g id="icons/Hands/empty">
<path id="Union" d="M9.0918 2.97168C10.3391 2.97168 11.2828 4.1009 11.0605 5.32812L9.3584 14.7217L9.3457 17.4844C9.34517 17.605 9.32237 17.7253 9.2793 17.8379L8.17969 20.7148C7.88353 21.489 7.14027 22 6.31152 22H4.71875C3.44531 21.9997 2.49629 20.8251 2.76367 19.5801L3.14062 17.8291C2.63525 17.2076 2.54613 16.342 2.9248 15.6299L3.68652 14.1973L3.43262 5.02734C3.40146 3.90153 4.30542 2.97171 5.43164 2.97168H9.0918ZM18.6279 2.97168C19.7542 2.97168 20.6581 3.90162 20.627 5.02734L20.373 14.1992L21.1348 15.6309C21.5156 16.3472 21.4237 17.2186 20.9102 17.8408L21.2539 19.6221C21.4912 20.8554 20.5459 21.9997 19.29 22H17.6992C16.8596 21.9998 16.1096 21.4751 15.8213 20.6865L14.7744 17.8242C14.7348 17.7158 14.7144 17.6008 14.7139 17.4854L14.7012 14.7217L12.999 5.32812C12.7768 4.10098 13.7197 2.97189 14.9668 2.97168H18.6279ZM4.69043 16.5693L4.97168 16.8867C5.18251 17.1247 5.26795 17.4489 5.20117 17.7598L4.71875 20H6.31152L7.3457 17.2939L7.35352 15.5781L5.27539 15.4678L4.69043 16.5693ZM16.7051 15.5781L16.7129 17.2998L17.6992 20H19.29L18.8545 17.7383C18.796 17.4336 18.8821 17.119 19.0879 16.8867L19.3691 16.5693L18.7832 15.4678L16.7051 15.5781ZM16.5273 13.584L18.3926 13.4854L18.6279 4.97168H14.9668L16.5273 13.584ZM5.66602 13.4854L7.53027 13.584L9.0918 4.97168H5.43164L5.66602 13.4854Z" fill="#9E9E9E"/>
</g>
</svg>
