<svg width="24" height="24" viewBox="0 0 24 24" fill="none" xmlns="http://www.w3.org/2000/svg">
<g id="icons/Hands/fingerprint">
<path id="Union" d="M12 14.5C12.5523 14.5 13 14.9477 13 15.5V22C13 22.5523 12.5523 23 12 23C11.4477 23 11 22.5523 11 22V15.5C11 14.9477 11.4477 14.5 12 14.5ZM12 7C14.2091 7 16 8.79087 16 11V21.5C16 22.0523 15.5523 22.5 15 22.5C14.4477 22.5 14 22.0523 14 21.5V11C14 9.89543 13.1046 9 12 9C10.8954 9 10 9.89543 10 11V21.5C10 22.0523 9.55228 22.5 9 22.5C8.44772 22.5 8 22.0523 8 21.5V11C8 8.79087 9.79087 7 12 7ZM12 4C15.866 4 19 7.13402 19 11V20C19 20.5523 18.5523 21 18 21C17.4477 21 17 20.5523 17 20V11C17 8.23858 14.7614 6 12 6C9.23858 6 7 8.23858 7 11V20C7 20.5523 6.55228 21 6 21C5.44772 21 5 20.5523 5 20V11C5 7.13402 8.13402 4 12 4ZM12 1C17.5228 1 22 5.47717 22 11V17.5C22 18.0523 21.5523 18.5 21 18.5C20.4477 18.5 20 18.0523 20 17.5V11C20 6.58173 16.4183 3 12 3C7.58173 3 4 6.58173 4 11V17.5C4 18.0523 3.55228 18.5 3 18.5C2.44772 18.5 2 18.0523 2 17.5V11C2 5.47717 6.47717 1 12 1ZM12 9.9375C12.5523 9.9375 13 10.3852 13 10.9375V12.3125C13 12.8648 12.5523 13.3125 12 13.3125C11.4477 13.3125 11 12.8648 11 12.3125V10.9375C11 10.3852 11.4477 9.9375 12 9.9375Z" fill="#9E9E9E"/>
</g>
</svg>
