<svg width="24" height="24" viewBox="0 0 24 24" fill="none" xmlns="http://www.w3.org/2000/svg">
<g id="icons/Hands/fingerprint-two">
<path id="Union" d="M12.5 1C18.0228 1 22.5 5.47717 22.5 11V22C22.5 22.5523 22.0523 23 21.5 23C20.9477 23 20.5 22.5523 20.5 22V11C20.5 6.58173 16.9183 3 12.5 3C8.08173 3 4.5 6.58173 4.5 11V22C4.5 22.5523 4.05228 23 3.5 23C2.94772 23 2.5 22.5523 2.5 22V11C2.5 5.47717 6.97717 1 12.5 1ZM12.5 4C16.366 4 19.5 7.13402 19.5 11V22C19.5 22.5523 19.0523 23 18.5 23C17.9477 23 17.5 22.5523 17.5 22V11C17.5 8.23858 15.2614 6 12.5 6C9.73858 6 7.5 8.23858 7.5 11V22C7.5 22.5523 7.05228 23 6.5 23C5.94772 23 5.5 22.5523 5.5 22V11C5.5 7.13402 8.63402 4 12.5 4ZM12.5 7C14.7091 7 16.5 8.79087 16.5 11V22C16.5 22.5523 16.0523 23 15.5 23C14.9477 23 14.5 22.5523 14.5 22V11C14.5 9.89543 13.6046 9 12.5 9C11.3954 9 10.5 9.89543 10.5 11V22C10.5 22.5523 10.0523 23 9.5 23C8.94772 23 8.5 22.5523 8.5 22V11C8.5 8.79087 10.2909 7 12.5 7ZM12.5 10C13.0523 10 13.5 10.4477 13.5 11V22C13.5 22.5523 13.0523 23 12.5 23C11.9477 23 11.5 22.5523 11.5 22V11C11.5 10.4477 11.9477 10 12.5 10Z" fill="#9E9E9E"/>
</g>
</svg>
