<svg width="24" height="24" viewBox="0 0 24 24" fill="none" xmlns="http://www.w3.org/2000/svg">
<g id="icons/Hands/fingerprint-three">
<path id="Union" d="M12.0001 12.625C13.4496 12.6253 14.6251 13.8004 14.6251 15.25V19.5977C14.6251 20.1498 14.1772 20.5974 13.6251 20.5977C13.0728 20.5977 12.6251 20.1499 12.6251 19.5977V15.25C12.6251 14.905 12.3451 14.6253 12.0001 14.625C11.655 14.625 11.3751 14.9048 11.3751 15.25V19.5977C11.3751 20.8429 10.5114 22.348 9.00208 22.7207C8.46602 22.8528 7.92447 22.5253 7.79211 21.9893C7.65998 21.4532 7.9875 20.9116 8.52356 20.7793C8.97685 20.6671 9.37512 20.1018 9.37512 19.5977V15.25C9.37512 13.8003 10.5504 12.625 12.0001 12.625ZM12.0001 8.83301C15.2448 8.83307 17.8751 11.4634 17.8751 14.708V18.5C17.8749 19.0521 17.4272 19.4999 16.8751 19.5C16.323 19.5 15.8753 19.0521 15.8751 18.5V14.708C15.8751 12.5679 14.1402 10.8331 12.0001 10.833C9.86001 10.833 8.12512 12.5679 8.12512 14.708V18.5C8.12494 19.0521 7.67724 19.4999 7.12512 19.5C6.57295 19.5 6.12531 19.0521 6.12512 18.5V14.708C6.12512 11.4633 8.75544 8.83301 12.0001 8.83301ZM12.0001 5.04199C12.5522 5.04218 13.0001 5.48982 13.0001 6.04199C13.0001 6.59416 12.5522 7.04181 12.0001 7.04199C7.76602 7.04206 4.33313 10.4749 4.33313 14.709V14.7373C4.33313 15.2896 3.88541 15.7373 3.33313 15.7373C2.7809 15.7372 2.33313 15.2895 2.33313 14.7373V14.709C2.33313 9.37029 6.66145 5.04206 12.0001 5.04199ZM14.6749 6.40137C14.9036 5.89871 15.4965 5.6766 15.9991 5.90527C19.3404 7.42526 21.667 10.7939 21.6671 14.708V14.7148C21.6671 15.267 21.2193 15.7147 20.6671 15.7148C20.1149 15.7148 19.6671 15.2671 19.6671 14.7148V14.708C19.667 11.6065 17.825 8.93288 15.171 7.72559C14.6683 7.49689 14.4463 6.90407 14.6749 6.40137ZM11.9591 1.25C15.8466 1.2501 19.3712 2.79976 21.9171 5.30664C22.3104 5.69411 22.3151 6.32821 21.9279 6.72168C21.5404 7.11469 20.9072 7.11957 20.5138 6.73242C18.3312 4.58311 15.3066 3.2501 11.9591 3.25C8.63134 3.25012 5.62302 4.56738 3.44348 6.69434C3.04828 7.07986 2.41512 7.07178 2.02942 6.67676C1.64387 6.28149 1.65181 5.64837 2.047 5.2627C4.58927 2.78183 8.09452 1.25012 11.9591 1.25Z" fill="#9E9E9E"/>
</g>
</svg>
