<svg width="24" height="24" viewBox="0 0 24 24" fill="none" xmlns="http://www.w3.org/2000/svg">
<g id="icons/Hands/first">
<path id="Union" d="M13.5137 0.719727C14.2765 0.606473 14.8877 1.12949 15.0811 1.7373L15.1162 1.86914L17.418 12.6201C17.4417 12.6574 17.4643 12.6961 17.4834 12.7373C18.5457 15.0358 18.5535 17.8338 16.9082 19.9248C15.3589 21.8937 12.6242 23.2268 9.9248 22.8535C8.49907 22.6562 7.29987 21.8715 6.44141 21.1104C5.57986 20.3464 4.96285 19.5192 4.70312 19.0693C4.5143 18.7422 4.37209 18.4203 4.26953 18.1484L4.2207 17.999C4.034 17.3339 4.25583 16.6384 4.76465 16.1973C4.34953 15.8181 4.10927 15.2482 4.23438 14.5811L4.28613 14.3291C4.57623 13.0439 5.33079 11.353 7.02832 10.2158C8.4305 9.27663 9.64302 8.91681 10.6309 8.83984C10.8967 8.81916 11.1418 8.81987 11.3633 8.83301L11.3057 6.95215C11.2563 5.13194 11.2339 3.58372 11.252 3.11719C11.3137 1.52346 12.6614 0.935375 13.3477 0.753906L13.5137 0.719727ZM13.2881 3.02539C13.2719 3.05743 13.2533 3.10896 13.25 3.19434C13.2294 3.72653 13.2728 6.18996 13.3623 8.76367C13.4067 10.0404 13.4618 11.3272 13.5244 12.3916C13.5886 13.4831 13.6571 14.2713 13.7188 14.5986C13.7526 14.778 13.7353 14.9547 13.6787 15.1152C13.6842 15.3908 13.6534 15.6673 13.5811 15.9375C13.4411 16.4596 13.1954 17.0277 12.7334 17.5127C12.2631 18.0064 11.63 18.35 10.8252 18.5146C9.93295 18.6972 9.27916 18.5271 8.68066 18.209C8.42496 18.073 8.16255 17.901 7.94531 17.7637C7.71249 17.6165 7.47448 17.471 7.19141 17.3311C7.16624 17.3186 7.05849 17.2841 6.7998 17.3604C6.60849 17.4167 6.40538 17.5136 6.2168 17.623C6.27795 17.7661 6.34898 17.9193 6.43555 18.0693L6.60645 18.3311C6.8365 18.6546 7.23849 19.1432 7.76855 19.6133C8.47838 20.2427 9.32162 20.7516 10.1992 20.873C12.1069 21.1368 14.1693 20.1722 15.3369 18.6885C16.3421 17.4111 16.4806 15.6084 15.8105 13.9111C15.6816 13.7802 15.5863 13.6128 15.5449 13.4199L13.3105 2.99023C13.302 3.00245 13.2939 3.01387 13.2881 3.02539ZM10.9805 14.1553C10.2829 13.768 9.64179 14.0508 9.49414 14.2744C9.41523 14.394 9.35573 14.5153 9.29199 14.6631C9.2401 14.7834 9.14719 15.0184 9.04785 15.209C8.94565 15.4051 8.80473 15.6178 8.59766 15.8193C8.75069 15.9084 8.88938 15.994 9.01465 16.0732C9.2839 16.2435 9.45025 16.3536 9.61914 16.4434C9.87007 16.5767 10.0526 16.6306 10.4238 16.5547C10.8826 16.4608 11.1333 16.2942 11.2861 16.1338C11.4473 15.9646 11.5654 15.7335 11.6494 15.4199C11.7493 15.0464 11.6364 14.5194 10.9805 14.1553ZM10.7861 10.834C10.173 10.8818 9.28637 11.1102 8.1416 11.877C7.04034 12.6146 6.49673 13.7254 6.26562 14.6562C6.54765 14.6148 6.80128 14.5625 6.98047 14.502C7.12666 14.4525 7.18137 14.4103 7.19824 14.3955C7.21346 14.3821 7.23603 14.3587 7.27441 14.2852C7.32866 14.1811 7.36009 14.0937 7.45605 13.8711C7.51907 13.725 7.59781 13.5515 7.70605 13.3643L7.8252 13.1719C8.59524 12.006 10.1938 11.7006 11.5127 12.2051C11.4889 11.7764 11.4647 11.3193 11.4434 10.8467C11.2559 10.8236 11.0386 10.8143 10.7861 10.834Z" fill="#9E9E9E"/>
</g>
</svg>
