<svg width="24" height="24" viewBox="0 0 24 24" fill="none" xmlns="http://www.w3.org/2000/svg">
<g id="icons/Hands/fist">
<path id="Union" d="M12.25 2C13.3042 2 14.2181 2.59406 14.6797 3.46484C15.0085 3.32583 15.3705 3.25 15.75 3.25C17.1373 3.25 18.2805 4.27789 18.4688 5.61328C18.7165 5.54 18.9785 5.5 19.25 5.5C20.7673 5.5 22 6.72781 22 8.24805V15C22 16.3007 21.3846 17.6041 20.5732 18.6807C19.7507 19.7721 18.6434 20.7436 17.4785 21.3779C14.2533 23.134 10.5924 22.77 8.60645 21.9189C7.65382 21.5107 6.03878 20.6376 4.64551 19.2783C3.24798 17.9149 2 15.9854 2 13.5C2 11.936 3.0664 10.8828 3.99316 10.2588C4.70106 9.78214 5.46263 9.45936 6 9.2666V6C6 4.48122 7.23122 3.25 8.75 3.25C9.12917 3.25 9.4907 3.32605 9.81934 3.46484C10.2808 2.59384 11.1957 2 12.25 2ZM12.25 4C11.8358 4 11.5 4.33579 11.5 4.75V6C11.5 6.55228 11.0523 7 10.5 7C9.94772 7 9.5 6.55228 9.5 6C9.5 5.58578 9.16422 5.25 8.75 5.25C8.33578 5.25 8 5.58578 8 6V9.74414C7.99989 10.3516 7.59461 10.8591 7.04688 11.0264C6.64812 11.1482 5.81943 11.4405 5.11035 11.918C4.37698 12.4118 4 12.9407 4 13.5C4 15.2645 4.87705 16.7101 6.04199 17.8467C7.21109 18.9873 8.59616 19.7393 9.39355 20.0811C10.9076 20.7299 13.9162 21.0404 16.5215 19.6221C17.4214 19.1321 18.3145 18.3538 18.9756 17.4766C19.648 16.5842 20 15.6993 20 15V8.24805C20 7.83529 19.6657 7.5 19.25 7.5C18.8364 7.5 18.501 7.83478 18.5 8.24805C18.4989 8.79996 18.0509 9.24662 17.499 9.24609C16.9471 9.24555 16.5 8.798 16.5 8.24609V6C16.5 5.58578 16.1642 5.25 15.75 5.25C15.3358 5.25 15 5.58578 15 6C15 6.55228 14.5523 7 14 7C13.4477 7 13 6.55228 13 6V4.75C13 4.33579 12.6642 4 12.25 4Z" fill="#9E9E9E"/>
</g>
</svg>
