<svg width="24" height="24" viewBox="0 0 24 24" fill="none" xmlns="http://www.w3.org/2000/svg">
<g id="icons/Hands/five-five">
<path id="Union" d="M12.8753 0.5C13.6418 0.500181 14.3291 0.831392 14.8089 1.35547C15.196 1.13057 15.6454 1 16.1253 1C17.392 1.0003 18.4493 1.89793 18.6956 3.0918C18.9124 3.03382 19.1402 3 19.3753 3C20.8247 3.00034 22.0003 4.17545 22.0003 5.625V15.1543C22.0002 16.7227 21.5187 18.2621 20.6351 19.5537C19.1686 21.6971 16.7257 22.9999 14.1224 23H13.5452C10.684 23 7.9937 21.6353 6.30402 19.3262L2.46808 14.083C1.43855 12.6759 1.71995 10.7046 3.10187 9.6416V9.64062C4.26368 8.74749 5.86219 8.76562 7.00031 9.63184V3.625C7.00031 2.17524 8.17558 1 9.62531 1C10.1047 1.00011 10.553 1.13095 10.9398 1.35547C11.4197 0.830951 12.1083 0.5 12.8753 0.5ZM12.8753 2.5C12.5301 2.5 12.2503 2.77983 12.2503 3.125V3.625L12.2444 3.72754C12.1931 4.23143 11.7677 4.62468 11.2503 4.625C10.7326 4.625 10.3065 4.23164 10.2552 3.72754L10.2503 3.625L10.2376 3.49902C10.1794 3.2144 9.92706 3.0003 9.62531 3C9.28013 3 9.00031 3.27983 9.00031 3.625V12C9.00031 12.4042 8.75642 12.7689 8.38312 12.9238C8.00958 13.0786 7.57927 12.9928 7.29327 12.707L5.91534 11.3301C5.48523 10.9001 4.80279 10.8558 4.32062 11.2266C3.7997 11.6275 3.69345 12.3707 4.08136 12.9014L7.91827 18.1445C9.23131 19.9389 11.3218 21 13.5452 21H14.1224C16.0592 20.9999 17.8874 20.0285 18.9847 18.4248L19.1048 18.2422C19.6862 17.3195 20.0002 16.2436 20.0003 15.1543V5.625C20.0003 5.28004 19.7202 5.00034 19.3753 5C19.0301 5 18.7503 5.27983 18.7503 5.625L18.7444 5.72754C18.6931 6.23143 18.2677 6.62468 17.7503 6.625C17.2326 6.625 16.8065 6.23164 16.7552 5.72754L16.7503 5.625V3.625C16.7503 3.28004 16.4702 3.00034 16.1253 3C15.7801 3 15.5003 3.27983 15.5003 3.625L15.4944 3.72754C15.4431 4.23143 15.0177 4.62468 14.5003 4.625C13.9826 4.625 13.5565 4.23164 13.5052 3.72754L13.5003 3.625V3.125C13.5003 2.78004 13.2202 2.50034 12.8753 2.5Z" fill="#9E9E9E"/>
</g>
</svg>
