<svg width="24" height="24" viewBox="0 0 24 24" fill="none" xmlns="http://www.w3.org/2000/svg">
<g id="icons/Hands/five">
<path id="Union" d="M8.72461 1.86133C9.36598 1.22041 10.363 1.12744 11.1074 1.61621L11.2529 1.72168L11.4229 1.85742C11.9073 2.24501 12.2303 2.79947 12.3291 3.41211L12.5635 4.86914L12.6934 3.53516V3.53418C12.7585 2.86228 13.0928 2.24508 13.6201 1.82324L13.7236 1.74121L13.8711 1.63379C14.6291 1.13585 15.6449 1.22987 16.2979 1.88281C16.7477 2.33269 17 2.94382 17 3.58008V12.418L18.4648 11.4766C18.9486 11.1655 19.5118 11.0001 20.0869 11H21.1221C22.2846 11.0003 23.0046 12.2659 22.4111 13.2656L18.1094 20.5107C18.0783 20.563 18.0429 20.6125 18.0029 20.6582L17.25 20C17.9614 20.6225 18.0002 20.6569 18.002 20.6592L17.999 20.6621C17.9978 20.6635 17.9965 20.6654 17.9951 20.667C17.9923 20.6701 17.989 20.6737 17.9854 20.6777C17.9778 20.686 17.9682 20.6961 17.957 20.708C17.9346 20.7318 17.9055 20.7632 17.8682 20.7998C17.7935 20.8732 17.6882 20.9701 17.5518 21.083C17.2789 21.3088 16.8797 21.598 16.3457 21.8828C15.2727 22.4551 13.6744 23 11.5 23C9.39168 23 7.83464 22.6487 6.72656 22.167C5.65229 21.6999 4.91706 21.0704 4.60547 20.4473C4.58588 20.4081 4.56897 20.3676 4.55469 20.3262L2.05469 13.0762C2.04006 13.0337 2.02834 12.9903 2.01953 12.9463L1.04004 8.0498C1.01339 7.91638 1.00002 7.78062 1 7.64453V7.56348C1.00023 5.8848 3.18341 5.2343 4.10254 6.63867C4.15711 6.72209 4.20542 6.81017 4.24707 6.90039L4.34863 7.12207L4.07422 5.10742C3.99729 4.54428 4.14542 3.97319 4.48633 3.51855L4.60156 3.37891C5.21077 2.718 6.23418 2.61323 6.96875 3.16406L7.03516 3.21387C7.39974 3.48733 7.67413 3.86414 7.82324 4.29492L8.13965 5.20996L8.04102 3.67285C7.99765 2.99904 8.24727 2.33872 8.72461 1.86133ZM14.8701 3.38477H14.8691C14.7638 3.46909 14.6976 3.59306 14.6846 3.72754L14.0205 10.5898C13.9567 11.2479 13.4035 11.7499 12.7422 11.75C12.1124 11.75 11.5752 11.2932 11.4746 10.6709L10.3545 3.73047C10.3348 3.60815 10.2706 3.49744 10.1738 3.41992L10.084 3.34766C10.0498 3.40661 10.0327 3.47464 10.0371 3.54395L10.4785 10.3867C10.5261 11.1252 9.94006 11.75 9.2002 11.75C8.65425 11.75 8.16797 11.4043 7.98926 10.8887V10.8877L6.16016 5.60547L6.99121 11.6768C7.05451 12.1396 6.78806 12.5851 6.35059 12.749L6.28613 12.7734C5.55074 13.0492 4.72685 12.711 4.39746 11.998V11.9971L3.46484 9.97656L3.9668 12.4863L6.41113 19.5752C6.42011 19.588 6.432 19.6073 6.45117 19.6299C6.49405 19.6803 6.55902 19.7462 6.65137 19.8223C6.83645 19.9747 7.11898 20.1571 7.52344 20.333C8.33201 20.6846 9.60842 21 11.5 21C13.3254 21 14.6023 20.5459 15.4043 20.1182C15.8078 19.9029 16.0961 19.6912 16.2764 19.542C16.3564 19.4757 16.4144 19.4212 16.4521 19.3848L20.2432 13H20.0869C19.8953 13.0001 19.708 13.0556 19.5469 13.1592L17.3115 14.5957C16.3133 15.2373 15 14.5209 15 13.334V3.58008C15 3.49417 14.9704 3.41201 14.9199 3.34375L14.8701 3.38477Z" fill="#9E9E9E"/>
</g>
</svg>
