<svg width="24" height="24" viewBox="0 0 24 24" fill="none" xmlns="http://www.w3.org/2000/svg">
<g id="icons/Hands/flirt">
<path id="Union" d="M9.97754 1.6748C10.5674 1.00873 11.5353 1.12223 12.0605 1.64746L16.707 6.29297L16.7969 6.39648C16.879 6.50484 16.9381 6.62973 16.9707 6.7627L18.4004 12.5928C18.4311 12.6378 18.4597 12.6852 18.4834 12.7363C19.5457 15.0348 19.5534 17.8328 17.9082 19.9238C16.3589 21.8926 13.6243 23.2269 10.9248 22.8535C9.49897 22.6562 8.29989 21.8706 7.44141 21.1094C6.57991 20.3454 5.96282 19.5182 5.70312 19.0684C5.51421 18.7411 5.37205 18.4193 5.26953 18.1475C5.00259 17.4393 5.21795 16.6715 5.76465 16.1973C5.34932 15.818 5.10914 15.2475 5.23438 14.5801L5.28613 14.3291C5.57619 13.0437 6.33042 11.3522 8.02832 10.2148C9.20163 9.42895 10.2489 9.16336 11.1855 9.16699C11.3878 9.16779 11.5841 9.18252 11.7715 9.20508C11.739 9.01097 11.7084 8.829 11.6807 8.66309C11.6301 8.36083 11.5886 8.11136 11.5596 7.9375C11.5591 7.93465 11.5581 7.93151 11.5576 7.92871C11.5249 7.88878 11.4882 7.84378 11.4482 7.79492C11.2791 7.58836 11.0506 7.30882 10.8145 7.01758C10.3652 6.46347 9.82318 5.78761 9.66797 5.55469C8.61469 3.9741 9.43633 2.43626 9.86426 1.81934L9.97754 1.6748ZM11.1758 3.69531C11.1312 3.93281 11.1527 4.17714 11.332 4.44629L11.6992 4.9248C11.886 5.16064 12.1231 5.45551 12.3682 5.75781C12.6016 6.04574 12.8282 6.32231 12.9961 6.52734C13.08 6.62978 13.149 6.71469 13.1973 6.77344C13.2213 6.80274 13.2401 6.82623 13.2529 6.8418C13.2592 6.84941 13.2643 6.85544 13.2676 6.85938L13.2725 6.86426V6.86523L13.3486 6.97168C13.4177 7.08255 13.4647 7.20625 13.4863 7.33594L13.4873 7.33691C13.4874 7.33765 13.4871 7.33934 13.4873 7.34082C13.4878 7.34381 13.4883 7.34873 13.4893 7.35449C13.4912 7.36638 13.4942 7.38439 13.498 7.40723C13.5057 7.45337 13.5178 7.52103 13.5322 7.60742C13.5612 7.78109 13.6028 8.03087 13.6533 8.33301C13.7545 8.93775 13.8915 9.75487 14.0342 10.6025C14.3207 12.3052 14.6271 14.1123 14.7188 14.5986C14.7524 14.7772 14.7348 14.9532 14.6787 15.1133C14.6844 15.3895 14.6536 15.6666 14.5811 15.9375C14.4411 16.4596 14.1953 17.0278 13.7334 17.5127C13.2631 18.0062 12.6298 18.349 11.8252 18.5137C10.933 18.6962 10.2791 18.5271 9.68066 18.209C9.42497 18.073 9.16255 17.9 8.94531 17.7627C8.71264 17.6156 8.47427 17.4709 8.19141 17.3311C8.16604 17.3186 8.05816 17.2842 7.7998 17.3604C7.60843 17.4168 7.40542 17.5136 7.2168 17.623C7.27788 17.7658 7.34916 17.9187 7.43555 18.0684C7.58373 18.325 8.06178 18.9865 8.76855 19.6133C9.4783 20.2426 10.3218 20.7507 11.1992 20.8721C13.107 21.1359 15.1693 20.1713 16.3369 18.6875C17.3414 17.4109 17.4812 15.6094 16.8125 13.9131C16.6893 13.7886 16.5965 13.6307 16.5518 13.4482L15.0947 7.50977L11.1973 3.6123C11.1902 3.63997 11.181 3.6675 11.1758 3.69531ZM11.9805 14.1543C11.3262 13.7912 10.7217 14.0175 10.5273 14.2314L10.4941 14.2734C10.4152 14.3931 10.3558 14.5152 10.292 14.6631C10.2401 14.7835 10.1471 15.0185 10.0479 15.209C9.94569 15.4049 9.80451 15.617 9.59766 15.8184C9.75069 15.9074 9.88937 15.9931 10.0146 16.0723C10.2839 16.2425 10.4503 16.3526 10.6191 16.4424C10.8701 16.5758 11.0527 16.6306 11.4238 16.5547C11.8827 16.4608 12.1333 16.2933 12.2861 16.1328C12.4472 15.9637 12.5654 15.7333 12.6494 15.4199C12.7432 15.0699 12.65 14.5841 12.0977 14.2246L11.9805 14.1543ZM11.1777 11.167C10.6666 11.165 10.0061 11.2979 9.1416 11.877C8.0407 12.6144 7.49783 13.7245 7.2666 14.6553C7.54812 14.6139 7.8015 14.5624 7.98047 14.502C8.12731 14.4523 8.18162 14.4091 8.19824 14.3945C8.2135 14.3811 8.23595 14.358 8.27441 14.2842C8.32865 14.1801 8.36012 14.0936 8.45605 13.8711C8.54015 13.6761 8.65294 13.4328 8.8252 13.1719C9.54681 12.0789 10.9966 11.7422 12.2617 12.1191C12.2163 11.851 12.1699 11.5779 12.124 11.3057C11.8144 11.2275 11.5234 11.1684 11.1777 11.167Z" fill="#9E9E9E"/>
</g>
</svg>
