<svg width="24" height="24" viewBox="0 0 24 24" fill="none" xmlns="http://www.w3.org/2000/svg">
<g id="icons/Hands/four-four">
<path id="Union" d="M11.625 0.5C12.3918 0.500007 13.0796 0.831129 13.5596 1.35547C13.9466 1.13064 14.3952 1.00004 14.875 1C16.142 1.00001 17.1999 1.89769 17.4463 3.0918C17.663 3.03386 17.89 3.00002 18.125 3C19.5747 3.00001 20.75 4.17525 20.75 5.625V15.1543C20.7499 16.7227 20.2693 18.2621 19.3857 19.5537C17.9192 21.6972 15.4756 23 12.8721 23H12.4248C9.48254 22.9999 6.73843 21.5167 5.12598 19.0557L4.02832 17.3809C2.97245 15.7693 3.28405 13.6225 4.75488 12.3779L5.75 11.5361V3.625C5.75 2.17533 6.92538 1.00013 8.375 1C8.85471 1 9.30346 1.13073 9.69043 1.35547C10.1703 0.831043 10.8581 0.500071 11.625 0.5ZM11.625 2.5C11.2799 2.50013 11 2.77991 11 3.125V3.625C11 4.17728 10.5523 4.62499 10 4.625C9.44783 4.62487 9 4.1772 9 3.625C9 3.27984 8.72016 3.00001 8.375 3C8.02994 3.00013 7.75 3.27991 7.75 3.625V11.7305C7.75 12.1954 7.54545 12.637 7.19043 12.9375L6.04688 13.9053C5.34734 14.4972 5.1991 15.5176 5.70117 16.2842L6.79883 17.96C8.04171 19.857 10.1569 20.9999 12.4248 21H12.8721C14.809 21 16.637 20.0286 17.7344 18.4248L17.8545 18.2422C18.4361 17.3194 18.7499 16.2437 18.75 15.1543V5.625C18.75 5.27983 18.4702 5.00001 18.125 5C17.7799 5.00013 17.5 5.27991 17.5 5.625C17.5 6.17728 17.0523 6.62499 16.5 6.625C15.9478 6.62487 15.5 6.1772 15.5 5.625V3.625C15.5 3.27984 15.2202 3.00001 14.875 3C14.5299 3.00013 14.25 3.27991 14.25 3.625C14.25 4.17728 13.8023 4.62499 13.25 4.625C12.6978 4.62487 12.25 4.1772 12.25 3.625V3.125C12.25 2.77984 11.9702 2.50001 11.625 2.5Z" fill="#9E9E9E"/>
</g>
</svg>
