<svg width="24" height="24" viewBox="0 0 24 24" fill="none" xmlns="http://www.w3.org/2000/svg">
<g id="icons/Hands/four">
<path id="Union" d="M9.72461 1.86133C10.366 1.22041 11.363 1.12744 12.1074 1.61621L12.2529 1.72168L12.4229 1.85742C12.9073 2.24501 13.2303 2.79947 13.3291 3.41211L13.5635 4.86914L13.6934 3.53516V3.53418C13.7585 2.86228 14.0928 2.24508 14.6201 1.82324L14.7236 1.74121L14.8711 1.63379C15.6291 1.13585 16.6449 1.22987 17.2979 1.88281C17.7477 2.33269 18 2.94382 18 3.58008V9.87891C18.0294 9.9968 18.1001 10.2466 18.2383 10.4951C18.4032 10.7917 18.5981 10.979 18.8164 11.0518C19.1882 11.1758 19.465 11.4507 19.623 11.624C19.8104 11.8295 19.9908 12.0761 20.1553 12.3223C20.4862 12.8174 20.814 13.4063 21.0723 13.8994V13.9004C21.6095 14.9266 21.5463 16.1251 21.0078 17.0947V17.0957L19.124 20.4854C19.0898 20.5469 19.0493 20.6052 19.0029 20.6582L18.25 20C18.9614 20.6225 19.0002 20.6569 19.002 20.6592L18.999 20.6621C18.9978 20.6635 18.9965 20.6654 18.9951 20.667C18.9923 20.6701 18.989 20.6737 18.9854 20.6777C18.9778 20.686 18.9682 20.6961 18.957 20.708C18.9346 20.7318 18.9055 20.7632 18.8682 20.7998C18.7935 20.8732 18.6882 20.9701 18.5518 21.083C18.2789 21.3088 17.8797 21.598 17.3457 21.8828C16.2727 22.4551 14.6744 23 12.5 23C10.3917 23 8.83464 22.6487 7.72656 22.167C6.65229 21.6999 5.91706 21.0704 5.60547 20.4473C5.58588 20.4081 5.56897 20.3676 5.55469 20.3262L3.05469 13.0762C3.04006 13.0337 3.02834 12.9903 3.01953 12.9463L2.04004 8.0498C2.01339 7.91638 2.00002 7.78062 2 7.64453V7.56348C2.00023 5.8848 4.18341 5.2343 5.10254 6.63867C5.15712 6.72209 5.20542 6.81018 5.24707 6.90039L5.34863 7.12207L5.07422 5.10742C4.99729 4.54428 5.14542 3.97319 5.48633 3.51855L5.60156 3.37891C6.21077 2.718 7.23418 2.61323 7.96875 3.16406L8.03516 3.21387C8.39974 3.48733 8.67413 3.86414 8.82324 4.29492L9.13965 5.20996L9.04102 3.67285C8.99765 2.99904 9.24727 2.33872 9.72461 1.86133ZM15.8701 3.38477H15.8691C15.7638 3.46909 15.6976 3.59306 15.6846 3.72754L15.0205 10.5898C14.9567 11.2479 14.4035 11.7499 13.7422 11.75C13.1124 11.75 12.5752 11.2932 12.4746 10.6709L11.3545 3.73047C11.3348 3.60815 11.2706 3.49744 11.1738 3.41992L11.084 3.34766C11.0498 3.40661 11.0327 3.47464 11.0371 3.54395L11.4785 10.3867C11.5261 11.1252 10.9401 11.75 10.2002 11.75C9.65425 11.75 9.16797 11.4043 8.98926 10.8887V10.8877L7.16016 5.60547L7.99121 11.6768C8.05451 12.1396 7.78806 12.5851 7.35059 12.749L7.28613 12.7734C6.55074 13.0492 5.72685 12.711 5.39746 11.998V11.9971L4.46484 9.97656L4.9668 12.4863L7.41113 19.5752C7.42011 19.588 7.432 19.6073 7.45117 19.6299C7.49405 19.6803 7.55902 19.7462 7.65137 19.8223C7.83645 19.9747 8.11898 20.1571 8.52344 20.333C9.33201 20.6846 10.6084 21 12.5 21C14.3254 21 15.6023 20.5459 16.4043 20.1182C16.8078 19.9029 17.0961 19.6912 17.2764 19.542C17.3507 19.4805 17.4055 19.4287 17.4434 19.3926L19.2598 16.124C19.4956 15.6994 19.5031 15.2148 19.3008 14.8281C19.0547 14.3582 18.7657 13.8414 18.4932 13.4336C18.3559 13.2283 18.2379 13.073 18.1455 12.9717C18.1199 12.9436 18.0995 12.9248 18.0859 12.9121C17.2671 12.6042 16.7718 11.973 16.4902 11.4668C16.1947 10.9353 16.0695 10.4312 16.0312 10.2549C16.0071 10.1436 16 10.042 16 9.95605V3.58008C16 3.49417 15.9704 3.41201 15.9199 3.34375L15.8701 3.38477Z" fill="#9E9E9E"/>
</g>
</svg>
