<svg width="24" height="24" viewBox="0 0 24 24" fill="none" xmlns="http://www.w3.org/2000/svg">
<g id="icons/Hands/good-two">
<path id="Union" d="M5.2052 9.01074C6.21334 9.11353 7.00012 9.96472 7.00012 11V20.5C6.99991 21.6043 6.10444 22.4998 5.00012 22.5H3.91711C2.87987 22.5 2.015 21.7062 1.92493 20.6729L1.09875 11.1729C0.997396 10.0045 1.91816 9.00004 3.09094 9H5.00012L5.2052 9.01074ZM13.8361 1.50293C14.3239 1.47582 14.7961 1.67212 15.1359 1.85645C15.8538 2.24612 16.6446 2.9516 17.1075 3.72363C17.6597 4.64482 17.6941 5.75886 17.6495 6.48438C17.597 7.33806 17.3482 8.14537 17.1486 8.81152L17.0939 8.99219H21.1788C22.5049 8.99247 23.4641 10.26 23.1036 11.5361L20.4181 21.0439C20.1746 21.9051 19.3882 22.4999 18.4933 22.5H10.0001C8.89567 22.5 8.00034 21.6044 8.00012 20.5V10.6875C8.00012 9.84614 8.51727 9.13962 9.21106 8.8125C9.59207 8.63289 10.0946 8.36853 10.5646 8.03711C11.0452 7.69815 11.4281 7.33335 11.6427 6.97559C11.9509 6.46142 12.1698 5.65903 12.3087 4.83203C12.443 4.0321 12.4856 3.32006 12.4972 3.05957C12.4988 3.02237 12.4968 3.03169 12.4991 2.95508C12.5008 2.90293 12.5051 2.82159 12.5177 2.73047L12.5363 2.62012C12.5911 2.3579 12.7172 2.08004 12.962 1.85742C13.2398 1.60501 13.5673 1.51792 13.8361 1.50293ZM3.91711 20.5H5.00012V11H3.09094L3.91711 20.5ZM14.4513 3.78418C14.4195 4.16006 14.3686 4.64455 14.2814 5.16406C14.1329 6.04818 13.8656 7.15754 13.3575 8.00488C12.9386 8.70336 12.3026 9.25887 11.7169 9.67188C11.1204 10.0925 10.5077 10.4131 10.0646 10.6221C10.0386 10.6343 10.0194 10.6522 10.0089 10.668C10.0042 10.6751 10.002 10.6808 10.0011 10.6836C10.0004 10.6858 10.0001 10.6872 10.0001 10.6875V20.5H18.4933L21.1788 10.9922H15.7501C15.4342 10.9922 15.1371 10.8422 14.9484 10.5889C14.7598 10.3354 14.7015 10.0077 14.7921 9.70508L15.2325 8.2373C15.4459 7.52531 15.6176 6.94357 15.6534 6.36133C15.6913 5.745 15.6247 5.13915 15.3927 4.75195C15.1852 4.40586 14.8148 4.03936 14.4513 3.78418Z" fill="#9E9E9E"/>
</g>
</svg>
