<svg width="24" height="24" viewBox="0 0 24 24" fill="none" xmlns="http://www.w3.org/2000/svg">
<g id="icons/Hands/good-one">
<path id="Union" d="M11.6514 1.5C12.4597 1.5 13.2351 1.82112 13.8066 2.39258C14.3937 2.97962 14.7542 3.75576 14.8232 4.58301L14.8691 5.13477C14.9624 6.25311 14.8812 7.37917 14.6289 8.47266L14.5068 9H19.6777C21.0041 9 21.9632 10.2675 21.6025 11.5439L18.918 21.0439C18.6745 21.9053 17.8882 22.5 16.9932 22.5H4C2.89544 22.5 2 21.6046 2 20.5V10.5938C2 9.86203 2.39954 9.1884 3.04199 8.83789L6.37207 7.02148C7.28301 6.52446 8.03412 5.77914 8.53809 4.87207L9.86719 2.47949C10.2031 1.87484 10.8406 1.5 11.5322 1.5H11.6514ZM10.2871 5.84277C9.59908 7.0813 8.57283 8.09892 7.3291 8.77734L4 10.5938V20.5H16.9932L19.6787 11H13.9375C12.9428 11 12.2062 10.0746 12.4297 9.10547L12.6797 8.02344C12.8855 7.13161 12.952 6.21284 12.876 5.30078L12.8301 4.74902C12.8003 4.39315 12.6451 4.05911 12.3926 3.80664C12.1961 3.61024 11.9292 3.5 11.6514 3.5H11.5879L10.2871 5.84277Z" fill="#9E9E9E"/>
</g>
</svg>
