<svg width="24" height="24" viewBox="0 0 24 24" fill="none" xmlns="http://www.w3.org/2000/svg">
<g id="icons/Hands/good">
<path id="Union" d="M13.8572 1.17969C14.4751 0.913522 15.1483 0.913582 15.7185 1.30176C16.224 1.64602 16.4842 2.18825 16.6169 2.65234C16.8839 3.58606 16.8052 4.78494 16.4314 5.71973C16.2562 6.15776 16.0292 6.60066 15.8064 7H18.2527C19.7714 7 21.0026 8.23125 21.0027 9.75C21.0027 10.1745 20.9029 10.5747 20.7312 10.9336C21.4952 11.4221 22.0027 12.2759 22.0027 13.25C22.0027 14.554 21.0946 15.643 19.8767 15.9258C19.9584 16.186 20.0027 16.4628 20.0027 16.75C20.0027 17.8888 19.3106 18.8655 18.324 19.2832C18.4373 19.5843 18.5027 19.9093 18.5027 20.25C18.5027 21.7682 17.273 23 15.7537 23H9.50269C7.41444 22.9998 4.83237 21.9252 3.14526 19.1133C1.5062 16.3812 1.47881 12.4102 3.10815 9.15137C5.52577 4.31613 10.7362 2.52418 13.8572 1.17969ZM14.6267 3.02539C11.244 4.48123 6.91158 6.01717 4.89722 10.0459C3.52684 12.7868 3.62367 16.0228 4.86011 18.084C6.17267 20.2718 8.0911 20.9998 9.50269 21H15.7537C16.1673 21 16.5027 20.6648 16.5027 20.25C16.5026 19.8358 16.1669 19.5 15.7527 19.5C15.2006 19.4997 14.7527 19.0521 14.7527 18.5C14.7527 17.9479 15.2007 17.5003 15.7527 17.5H17.2527C17.6669 17.5 18.0027 17.1642 18.0027 16.75C18.0026 16.3358 17.6669 16 17.2527 16C16.7006 15.9997 16.2527 15.5521 16.2527 15C16.2527 14.4479 16.7007 14.0003 17.2527 14H19.2527C19.6669 14 20.0027 13.6642 20.0027 13.25C20.0026 12.8358 19.6669 12.5 19.2527 12.5H18.2527C17.7006 12.4997 17.2527 12.0521 17.2527 11.5C17.2527 10.9479 17.7007 10.5003 18.2527 10.5C18.6669 10.5 19.0027 10.1642 19.0027 9.75C19.0026 9.33582 18.6669 9 18.2527 9H14.0027C13.6284 8.99982 13.2854 8.79071 13.114 8.45801C12.9427 8.12511 12.9718 7.72375 13.1892 7.41895L13.1902 7.41797C13.1915 7.41611 13.1939 7.41259 13.197 7.4082C13.2032 7.39942 13.2127 7.38545 13.2253 7.36719C13.2511 7.33015 13.2899 7.27408 13.3376 7.20312C13.4334 7.0609 13.5667 6.85794 13.7146 6.61816C14.0161 6.12939 14.3556 5.52268 14.574 4.97656C14.7946 4.42476 14.8309 3.68083 14.6941 3.20215C14.6711 3.12168 14.6461 3.06495 14.6267 3.02539Z" fill="#9E9E9E"/>
</g>
</svg>
