<svg width="24" height="24" viewBox="0 0 24 24" fill="none" xmlns="http://www.w3.org/2000/svg">
<g id="icons/Hands/hand-down">
<path id="Union" d="M14.5264 1C15.0786 1.00001 15.5264 1.44772 15.5264 2V4.6123C18.6165 7.9898 20.4163 9.97608 20.8994 10.5449C21.3856 11.1174 21.7841 12.0531 21.2451 12.9365C20.7507 13.7468 19.7475 14.0019 18.75 14.002C17.3694 14.0019 16.3741 12.9946 15.7686 12.3867C15.6803 12.2981 15.597 12.2155 15.5195 12.1377C15.5194 12.367 15.5196 12.6186 15.5195 12.8926C15.5193 14.5817 15.5209 17.1168 15.5244 20.4971C15.5258 21.8778 14.408 22.9983 13.0273 23H13.0244C11.6427 22.9999 10.5225 21.8798 10.5225 20.498V17.3516C7.08614 16.8299 5.18292 16.5384 4.84375 16.4775C4.41127 16.3999 3.8381 16.1679 3.3623 15.6807C2.86309 15.1694 2.52637 14.4315 2.52637 13.4658V2C2.52637 1.4478 2.97419 1.00013 3.52637 1H14.5264ZM4.52637 13.4658C4.52637 13.9343 4.67582 14.1631 4.79297 14.2832C4.93349 14.4271 5.10747 14.4926 5.19727 14.5088C5.52859 14.5682 7.67429 14.8988 11.6719 15.5049C12.1607 15.579 12.5224 15.9988 12.5225 16.4932V20.498C12.5225 20.7405 12.6942 20.9433 12.9229 20.9902L13.0244 21C13.3008 20.9997 13.5247 20.7754 13.5244 20.499C13.5209 17.1186 13.5193 14.583 13.5195 12.8926C13.5197 12.0475 13.5204 11.4127 13.5215 10.9893C13.522 10.7779 13.5226 10.6177 13.5234 10.5098C13.5238 10.4566 13.5249 10.4132 13.5254 10.3818C13.5256 10.3673 13.5258 10.3488 13.5264 10.332C13.5266 10.3257 13.5276 10.3071 13.5293 10.2852C13.5298 10.2782 13.5316 10.2451 13.5381 10.2041C13.54 10.192 13.55 10.1263 13.5762 10.0469C13.5939 9.99747 13.6586 9.86212 13.7109 9.78027C13.8236 9.65215 14.193 9.45929 14.5264 9.39941V9.35938C15.1979 9.35938 15.7387 9.68198 16.126 9.98242C16.5097 10.2802 16.8849 10.6728 17.1855 10.9746C17.8962 11.688 18.3249 12.0019 18.75 12.002C19.0848 12.0019 19.3035 11.959 19.4346 11.916C19.4187 11.8932 19.399 11.8671 19.375 11.8389C18.9233 11.307 17.1686 9.36943 14.0859 6H4.52637V13.4658ZM4.52637 4H13.5264V3H4.52637V4Z" fill="#9E9E9E"/>
</g>
</svg>
