<svg width="24" height="24" viewBox="0 0 24 24" fill="none" xmlns="http://www.w3.org/2000/svg">
<g id="icons/Hands/hand-up">
<path id="Union" d="M11.0017 1C12.3835 1.00003 13.5036 2.12016 13.5037 3.50195V6.64746C16.936 7.16851 18.8389 7.46106 19.1814 7.52246C19.6139 7.60009 20.188 7.83207 20.6638 8.31934C21.163 8.83065 21.4998 9.56849 21.4998 10.5342V22C21.4998 22.5523 21.052 23 20.4998 23H9.49976C8.94759 22.9999 8.49976 22.5522 8.49976 22V19.3877C5.40959 16.0101 3.60973 14.0238 3.12671 13.4551C2.64061 12.8826 2.24209 11.9468 2.78101 11.0635C3.27545 10.2533 4.27867 9.99809 5.27612 9.99805C6.65677 9.99805 7.65199 11.0054 8.25757 11.6133C8.34548 11.7015 8.42845 11.7838 8.50562 11.8613C8.50576 11.6323 8.50655 11.381 8.50659 11.1074C8.50687 9.41827 8.50428 6.88326 8.50073 3.50293C8.49938 2.12224 9.61808 1.00174 10.9988 1H11.0017ZM10.4998 21H19.4998V20H10.4998V21ZM10.9001 3.01074C10.6724 3.05784 10.5005 3.2593 10.5007 3.50098L10.5066 11.1074C10.5065 11.9525 10.5057 12.5873 10.5046 13.0107C10.5041 13.2221 10.5035 13.3823 10.5027 13.4902C10.5023 13.5434 10.5013 13.5868 10.5007 13.6182C10.5005 13.6327 10.5004 13.6512 10.4998 13.668C10.4995 13.6743 10.4985 13.6929 10.4968 13.7148C10.4963 13.7218 10.4935 13.7548 10.4871 13.7959C10.4851 13.8082 10.476 13.8738 10.45 13.9531C10.4322 14.0026 10.3675 14.1379 10.3152 14.2197C10.2025 14.3478 9.83307 14.5397 9.49976 14.5996V14.6406C8.8283 14.6405 8.28737 14.318 7.90015 14.0176C7.51645 13.7198 7.14122 13.3272 6.84058 13.0254C6.12994 12.312 5.70123 11.9981 5.27612 11.998C4.94089 11.9981 4.72162 12.04 4.59058 12.083C4.60658 12.1061 4.62681 12.1325 4.65112 12.1611C5.10297 12.6931 6.85772 14.6307 9.94019 18H19.4998V10.5342C19.4998 10.0658 19.3503 9.8369 19.2332 9.7168C19.1276 9.60876 19.0032 9.54443 18.9099 9.5127L18.8289 9.49121C18.4975 9.43171 16.3518 9.10121 12.3542 8.49512C11.8656 8.4209 11.5037 8.00113 11.5037 7.50684V3.50195C11.5036 3.22474 11.279 3.00003 11.0017 3H11.0007L10.9001 3.01074Z" fill="#9E9E9E"/>
</g>
</svg>
