<svg width="24" height="24" viewBox="0 0 24 24" fill="none" xmlns="http://www.w3.org/2000/svg">
<g id="icons/Hands/hand-right">
<path id="Union" d="M10.5586 3.11426C11.131 2.62816 12.0668 2.22964 12.9502 2.76855C13.7604 3.263 14.0156 4.26623 14.0156 5.26367C14.0156 6.64431 13.0083 7.63953 12.4004 8.24512C12.312 8.33321 12.229 8.41586 12.1514 8.49316C12.3807 8.49331 12.6323 8.4941 12.9062 8.49414C14.5954 8.49442 17.1304 8.49281 20.5107 8.48926C21.8915 8.48787 23.0119 9.60569 23.0137 10.9863V10.9893C23.0136 12.3711 21.8935 13.4911 20.5117 13.4912H17.3662C16.8446 16.9272 16.5521 18.8304 16.4912 19.1699H16.4902C16.4126 19.6023 16.1816 20.1756 15.6943 20.6514C15.183 21.1506 14.4452 21.4873 13.4795 21.4873H5.01367C5.00681 21.4873 4.99999 21.4865 4.99316 21.4863H2.01367C1.46139 21.4863 1.01367 21.0386 1.01367 20.4863V9.48633C1.01381 8.93416 1.46147 8.48633 2.01367 8.48633H4.62695C8.00391 5.39669 9.98991 3.59724 10.5586 3.11426ZM11.8525 4.63867C11.3206 5.09053 9.38294 6.84525 6.01367 9.92773V19.4873H13.4795C13.9479 19.4873 14.1768 19.3378 14.2969 19.2207C14.4408 19.0801 14.5063 18.9062 14.5225 18.8164L14.8154 16.9541C14.9812 15.8766 15.2155 14.3406 15.5186 12.3418L15.5361 12.251C15.6454 11.8088 16.0436 11.4912 16.5068 11.4912H20.5117C20.7889 11.4911 21.0136 11.2665 21.0137 10.9893C21.0133 10.7474 20.8414 10.5453 20.6133 10.499L20.5127 10.4893C17.1323 10.4928 14.5967 10.4944 12.9062 10.4941C12.0612 10.494 11.4264 10.4933 11.0029 10.4922C10.7916 10.4916 10.6314 10.491 10.5234 10.4902C10.4703 10.4898 10.4268 10.4888 10.3955 10.4883C10.3809 10.488 10.3624 10.4879 10.3457 10.4873C10.3394 10.4871 10.3208 10.4861 10.2988 10.4844C10.2919 10.4838 10.2589 10.4811 10.2178 10.4746C10.2055 10.4727 10.1399 10.4636 10.0605 10.4375C10.0111 10.4197 9.87574 10.355 9.79395 10.3027C9.66584 10.1901 9.47398 9.82063 9.41406 9.4873H9.37305C9.37313 8.81584 9.69567 8.27491 9.99609 7.8877C10.2938 7.504 10.6865 7.12876 10.9883 6.82812C11.7016 6.1175 12.0156 5.6888 12.0156 5.26367C12.0156 4.92819 11.9728 4.70913 11.9297 4.57812C11.9068 4.59405 11.8809 4.61459 11.8525 4.63867ZM3.01367 19.4863H4.01367V10.4863H3.01367V19.4863Z" fill="#9E9E9E"/>
</g>
</svg>
