<svg width="24" height="24" viewBox="0 0 24 24" fill="none" xmlns="http://www.w3.org/2000/svg">
<g id="icons/Hands/hand-left">
<path id="Union" d="M11.0762 2.74121C11.9603 2.20096 12.8975 2.60111 13.4697 3.08789C14.041 3.5739 16.0239 5.38803 19.3906 8.5H22C22.5523 8.5 23 8.94772 23 9.5V20.5C22.9998 21.0521 22.5522 21.5 22 21.5H10.0342C9.06808 21.5 8.32956 21.162 7.81836 20.6621C7.33153 20.1859 7.10003 19.6121 7.02246 19.1797C6.96152 18.8399 6.67011 16.9375 6.14941 13.5039H3.50195C2.12034 13.5038 1.00032 12.3835 1 11.002V10.999L1.0127 10.7432C1.14216 9.48257 2.2084 8.49966 3.50293 8.50098C6.88408 8.50453 9.41981 8.50613 11.1094 8.50586C11.3903 8.50581 11.6478 8.50503 11.8818 8.50488C11.7988 8.42074 11.7106 8.33006 11.6152 8.2334C11.0092 7.61927 10.012 6.61577 10.0117 5.23926C10.0117 4.24089 10.2662 3.23629 11.0762 2.74121ZM12.0967 4.55176C12.0536 4.68344 12.0117 4.90349 12.0117 5.23926C12.012 5.6711 12.3296 6.10917 13.0391 6.82812C13.3402 7.13328 13.7307 7.51273 14.0264 7.89941C14.3243 8.28908 14.6436 8.83116 14.6436 9.5H14.6025C14.5425 9.83338 14.3497 10.203 14.2217 10.3154C14.14 10.3676 14.0056 10.4314 13.9561 10.4492C13.8769 10.4753 13.8115 10.4853 13.7988 10.4873C13.7572 10.4939 13.7233 10.4966 13.7168 10.4971C13.6948 10.4987 13.676 10.4998 13.6699 10.5C13.6533 10.5006 13.6356 10.5007 13.6211 10.501C13.5898 10.5015 13.5464 10.5016 13.4932 10.502C13.3852 10.5028 13.2242 10.5034 13.0127 10.5039C12.5891 10.505 11.9545 10.5057 11.1094 10.5059C9.41855 10.5061 6.8823 10.5045 3.50098 10.501C3.22469 10.5007 3.0004 10.7246 3 11.001V11.002C3.00032 11.279 3.22492 11.5038 3.50195 11.5039H7.00781L7.09961 11.5078C7.55365 11.5491 7.92763 11.896 7.99707 12.3545C8.60232 16.3507 8.93182 18.4961 8.99121 18.8271C9.00758 18.9177 9.07308 19.0918 9.2168 19.2324C9.33697 19.3499 9.56608 19.5 10.0342 19.5H18V9.9375C14.6365 6.82868 12.7041 5.06251 12.1738 4.61133C12.1456 4.58736 12.1195 4.56766 12.0967 4.55176ZM20 19.5H21V10.5H20V19.5Z" fill="#9E9E9E"/>
</g>
</svg>
