<svg width="24" height="24" viewBox="0 0 24 24" fill="none" xmlns="http://www.w3.org/2000/svg">
<g id="icons/Hands/hand-drag">
<path id="Union" d="M17.2568 1.08105C17.6263 0.670599 18.2585 0.637399 18.6689 1.00684L19.502 1.75684L21.1689 3.25684C21.1758 3.263 21.1818 3.27003 21.1885 3.27637C21.1987 3.28606 21.209 3.29555 21.2188 3.30566C21.2343 3.3218 21.2493 3.33841 21.2637 3.35547C21.2717 3.36503 21.2794 3.3749 21.2871 3.38477C21.2972 3.39762 21.307 3.41054 21.3164 3.42383C21.3277 3.43975 21.3383 3.45606 21.3486 3.47266C21.357 3.48619 21.3653 3.49977 21.373 3.51367C21.4534 3.6577 21.5 3.82334 21.5 4C21.5 4.10533 21.4823 4.20642 21.4521 4.30176C21.4491 4.31129 21.4457 4.32065 21.4424 4.33008C21.4229 4.38566 21.3986 4.43865 21.3701 4.48926C21.3636 4.50085 21.3566 4.5121 21.3496 4.52344C21.3398 4.53931 21.33 4.55504 21.3193 4.57031C21.3091 4.58501 21.2982 4.59911 21.2871 4.61328C21.2777 4.62537 21.2688 4.63778 21.2588 4.64941C21.2479 4.66218 21.2362 4.67428 21.2246 4.68652C21.2122 4.69958 21.1996 4.71224 21.1865 4.72461C21.1804 4.73044 21.1753 4.73748 21.1689 4.74316L19.502 6.24316L18.6689 6.99316C18.2585 7.36254 17.6263 7.32933 17.2568 6.91895C16.8874 6.50847 16.9206 5.87631 17.3311 5.50684L17.8936 5H9.70703V7.53809C9.8383 7.51587 9.97277 7.50195 10.1104 7.50195C10.9669 7.50204 11.7162 7.95206 12.1416 8.62695C12.3809 8.54705 12.6362 8.50195 12.9023 8.50195C13.8408 8.50205 14.6515 9.04147 15.0469 9.82617C15.323 9.72811 15.6199 9.67296 15.9297 9.67383C17.3771 9.67822 18.5488 10.8533 18.5488 12.3008V18.5303C18.5488 20.5299 16.8549 22.9999 14.0078 23H8.25098C6.65861 23 5.21455 21.8272 4.25586 20.6396C3.28125 19.4323 2.50492 17.8387 2.50488 16.5C2.50496 14.9277 3.01643 13.5928 4.22754 12.7656C4.31066 12.7089 4.39896 12.6655 4.49023 12.6367V3.83105C4.49033 2.39051 5.65812 1.22277 7.09863 1.22266C8.24846 1.22266 9.22213 1.96724 9.56934 3H17.8936L17.3311 2.49316C16.9206 2.12372 16.8875 1.49155 17.2568 1.08105ZM6.49023 14.7227C6.49018 15.2749 6.04248 15.7227 5.49023 15.7227C5.15722 15.7227 4.86339 15.5589 4.68164 15.3086C4.56844 15.6219 4.50491 16.0121 4.50488 16.5C4.50493 17.1912 4.97594 18.3487 5.81152 19.3838C6.66306 20.4386 7.59321 21 8.25098 21H14.0078C15.5654 20.9999 16.5488 19.6198 16.5488 18.5303V12.3008C16.5488 11.9556 16.269 11.675 15.9238 11.6738C15.5828 11.6729 15.3056 11.949 15.3047 12.29V12.502C15.3046 13.054 14.8567 13.5017 14.3047 13.502C13.7524 13.502 13.3047 13.0542 13.3047 12.502V10.9043C13.3047 10.6823 13.1243 10.5021 12.9023 10.502C12.714 10.502 12.5564 10.6317 12.5127 10.8066V12.2139C12.5127 12.2709 12.5062 12.3265 12.4971 12.3809C12.47 12.909 12.0349 13.3291 11.5 13.3291C10.9477 13.3291 10.5001 12.8813 10.5 12.3291V10.9043C10.5 10.8212 10.5045 10.7391 10.5127 10.6582V9.9043C10.5127 9.68231 10.3323 9.50208 10.1104 9.50195C9.88829 9.50195 9.70801 9.68223 9.70801 9.9043V12C9.70795 12.5522 9.26026 13 8.70801 13C8.15576 13 7.70806 12.5522 7.70801 12V11.8447C7.70787 11.8379 7.70703 11.8311 7.70703 11.8242V5H6.49023V14.7227Z" fill="#9E9E9E"/>
</g>
</svg>
