<svg width="24" height="24" viewBox="0 0 24 24" fill="none" xmlns="http://www.w3.org/2000/svg">
<g id="icons/Hands/hi">
<path id="Union" d="M7.66602 4.28711C7.66626 2.73287 9.06999 1.55523 10.6006 1.8252L18.9346 3.2959C20.1288 3.50691 20.9999 4.545 21 5.75781V20C20.9996 21.3802 19.8803 22.4998 18.5 22.5H8.7373C8.34686 22.4999 7.98481 22.2972 7.7793 21.9668V21.9658L3.08008 14.3906C2.28461 13.1082 2.54746 11.4362 3.69824 10.46C4.87979 9.45799 6.56739 9.52706 7.66602 10.4805V4.28711ZM10.2529 3.79492C9.94699 3.7411 9.66626 3.97652 9.66602 4.28711V13.8457C9.66568 14.2966 9.36389 14.6922 8.92871 14.8105C8.49337 14.9288 8.0322 14.7405 7.80371 14.3516L6.57227 12.2539C6.243 11.6933 5.48807 11.5649 4.99219 11.9854C4.59675 12.3208 4.50611 12.8952 4.7793 13.3359L9.22266 20.5H18.5C18.7757 20.4998 18.9996 20.2757 19 20V5.75781C18.9999 5.5155 18.8255 5.30797 18.5869 5.26562L10.2529 3.79492Z" fill="#9E9E9E"/>
</g>
</svg>
