<svg width="24" height="24" viewBox="0 0 24 24" fill="none" xmlns="http://www.w3.org/2000/svg">
<g id="icons/Hands/hold">
<path id="Union" d="M7 6.5C7.63497 6.5 8.40976 6.6535 9.17578 6.86426C9.95882 7.07972 10.8014 7.37461 11.5967 7.69922C12.3911 8.02348 13.1573 8.38485 13.7842 8.73828C14.0972 8.91477 14.3878 9.09663 14.6348 9.27734C14.8689 9.44865 15.1181 9.65814 15.2998 9.90039C15.6965 10.4295 15.708 11.0088 15.5771 11.4805C15.9359 11.4119 16.3107 11.3388 16.6904 11.2676C17.6928 11.0796 18.7323 10.8903 19.5859 10.748C20.3917 10.6138 21.1468 10.5 21.5 10.5C21.9056 10.5 22.3575 10.6013 22.7207 10.9189C23.1015 11.2521 23.25 11.705 23.25 12.125C23.25 12.8889 22.7838 13.6302 22.207 14.207C21.665 14.749 20.4841 15.7979 19.0371 16.7188C17.618 17.6218 15.7924 18.5 14 18.5C12.3307 18.5 10.9528 18.0796 9.80859 17.6982C8.60713 17.2978 7.79655 17 7 17H2C1.44772 17 1 16.5523 1 16C1 15.4477 1.44772 15 2 15H7C8.20339 15 9.39303 15.4523 10.4414 15.8018C11.5471 16.1703 12.6695 16.5 14 16.5C15.2076 16.5 16.6321 15.8781 17.9629 15.0312C19.2659 14.2021 20.335 13.2509 20.793 12.793C20.8775 12.7085 20.9467 12.6266 21.0059 12.5518C20.7357 12.5886 20.3677 12.6451 19.9141 12.7207C19.0803 12.8597 18.057 13.0454 17.0596 13.2324C16.0632 13.4193 15.097 13.6068 14.3799 13.7471C14.0214 13.8172 13.7249 13.8751 13.5186 13.916C13.4154 13.9365 13.3342 13.9529 13.2793 13.9639C13.2521 13.9693 13.2308 13.9738 13.2168 13.9766C13.21 13.9779 13.2046 13.9788 13.2012 13.9795C13.1995 13.9798 13.1981 13.9803 13.1973 13.9805H13.1943C13.1554 13.9882 13.1163 13.9931 13.0771 13.9961C13.0658 13.997 13.0544 13.9976 13.043 13.998C13.0139 13.9993 12.985 13.9993 12.9561 13.998C12.9456 13.9976 12.9352 13.9969 12.9248 13.9961C12.846 13.9901 12.7686 13.9744 12.6934 13.9502C12.6902 13.9492 12.6867 13.9493 12.6836 13.9482L9.68359 12.9482C9.15984 12.7735 8.87714 12.2074 9.05176 11.6836C9.22652 11.1598 9.79256 10.8771 10.3164 11.0518L12.8154 11.8848C12.9707 11.7583 13.1469 11.6066 13.3018 11.4414C13.4649 11.2674 13.5652 11.1227 13.6172 11.0215C13.5755 10.9852 13.5223 10.9405 13.4541 10.8906C13.29 10.7706 13.0706 10.632 12.8018 10.4805C12.2646 10.1777 11.5776 9.8515 10.8408 9.55078C10.105 9.25046 9.33793 8.98277 8.64453 8.79199C7.93418 8.59657 7.36496 8.5 7 8.5C6.23923 8.5 5.41402 8.79006 4.62109 9.24316C3.83641 9.69155 3.15587 10.2582 2.70703 10.707C2.31651 11.0976 1.68349 11.0976 1.29297 10.707C0.902444 10.3165 0.902444 9.68349 1.29297 9.29297C1.84413 8.74181 2.66359 8.05845 3.62891 7.50684C4.58598 6.95994 5.76077 6.5 7 6.5Z" fill="#9E9E9E"/>
</g>
</svg>
