<svg width="24" height="24" viewBox="0 0 24 24" fill="none" xmlns="http://www.w3.org/2000/svg">
<g id="icons/Hands/hold-interface">
<path id="Union" d="M7 11C7.63497 11 8.40976 11.1535 9.17578 11.3643C9.95882 11.5797 10.8014 11.8746 11.5967 12.1992C12.3911 12.5235 13.1573 12.8849 13.7842 13.2383C14.0972 13.4148 14.3878 13.5966 14.6348 13.7773C14.8689 13.9487 15.1181 14.1581 15.2998 14.4004C15.6965 14.9295 15.708 15.5088 15.5771 15.9805C15.9359 15.9119 16.3107 15.8388 16.6904 15.7676C17.6928 15.5796 18.7323 15.3903 19.5859 15.248C20.3917 15.1138 21.1468 15 21.5 15C21.9056 15 22.3575 15.1013 22.7207 15.4189C23.1015 15.7521 23.25 16.205 23.25 16.625C23.25 17.3889 22.7838 18.1302 22.207 18.707C21.665 19.249 20.4841 20.2979 19.0371 21.2188C17.618 22.1218 15.7924 23 14 23C12.3307 23 10.9528 22.5796 9.80859 22.1982C8.60713 21.7978 7.79655 21.5 7 21.5H2C1.44772 21.5 1 21.0523 1 20.5C1 19.9477 1.44772 19.5 2 19.5H7C8.20339 19.5 9.39303 19.9523 10.4414 20.3018C11.5471 20.6703 12.6695 21 14 21C15.2076 21 16.6321 20.3781 17.9629 19.5312C19.2659 18.7021 20.335 17.7509 20.793 17.293C20.8775 17.2085 20.9467 17.1266 21.0059 17.0518C20.7357 17.0886 20.3677 17.1451 19.9141 17.2207C19.0803 17.3597 18.057 17.5454 17.0596 17.7324C16.0632 17.9193 15.097 18.1068 14.3799 18.2471C14.0214 18.3172 13.7249 18.3751 13.5186 18.416C13.4154 18.4365 13.3342 18.4529 13.2793 18.4639C13.2521 18.4693 13.2308 18.4738 13.2168 18.4766C13.21 18.4779 13.2046 18.4788 13.2012 18.4795C13.1995 18.4798 13.1981 18.4803 13.1973 18.4805H13.1943C13.1554 18.4882 13.1163 18.4931 13.0771 18.4961C13.0658 18.497 13.0544 18.4976 13.043 18.498C13.0139 18.4993 12.985 18.4993 12.9561 18.498C12.9456 18.4976 12.9352 18.4969 12.9248 18.4961C12.846 18.4901 12.7686 18.4744 12.6934 18.4502C12.6902 18.4492 12.6867 18.4493 12.6836 18.4482L9.68359 17.4482C9.15984 17.2735 8.87714 16.7074 9.05176 16.1836C9.22652 15.6598 9.79256 15.3771 10.3164 15.5518L12.8154 16.3848C12.9707 16.2583 13.1469 16.1066 13.3018 15.9414C13.4649 15.7674 13.5652 15.6227 13.6172 15.5215C13.5755 15.4852 13.5223 15.4405 13.4541 15.3906C13.29 15.2706 13.0706 15.132 12.8018 14.9805C12.2646 14.6777 11.5776 14.3515 10.8408 14.0508C10.105 13.7505 9.33793 13.4828 8.64453 13.292C7.93418 13.0966 7.36496 13 7 13C6.23923 13 5.41402 13.2901 4.62109 13.7432C3.83641 14.1916 3.15587 14.7582 2.70703 15.207C2.31651 15.5976 1.68349 15.5976 1.29297 15.207C0.902444 14.8165 0.902444 14.1835 1.29297 13.793C1.84413 13.2418 2.66359 12.5584 3.62891 12.0068C4.58598 11.4599 5.76077 11 7 11ZM19.5 6.5C20.8807 6.5 22 7.61929 22 9C22 10.3807 20.8807 11.5 19.5 11.5H14.5C13.1193 11.5 12 10.3807 12 9C12 7.61929 13.1193 6.5 14.5 6.5H19.5ZM14.5 8.5C14.2239 8.5 14 8.72386 14 9C14 9.27614 14.2239 9.5 14.5 9.5H19.5C19.7761 9.5 20 9.27614 20 9C20 8.72386 19.7761 8.5 19.5 8.5H14.5ZM21 3.5C21.5523 3.5 22 3.94772 22 4.5C22 5.05228 21.5523 5.5 21 5.5H13C12.4477 5.5 12 5.05228 12 4.5C12 3.94772 12.4477 3.5 13 3.5H21Z" fill="#9E9E9E"/>
</g>
</svg>
