<svg width="24" height="24" viewBox="0 0 24 24" fill="none" xmlns="http://www.w3.org/2000/svg">
<g id="icons/Hands/index-finger">
<path id="Union" d="M8.49609 1.50488C9.87779 1.50881 10.9959 2.62898 10.9961 4.01074V7.05078C11.16 7.01707 11.33 7 11.5039 7C12.2247 7.00002 12.8726 7.30601 13.3301 7.79297C13.6792 7.60766 14.0772 7.50195 14.5 7.50195C15.5614 7.50195 16.4654 8.16452 16.8281 9.09766C17.0406 9.03876 17.2639 9.00491 17.4951 9.00488H17.5C18.8807 9.00488 20 10.1242 20 11.5049V18.0303C20 20.0269 18.3138 22.5 15.4707 22.5H9.73047C8.14037 22.4998 6.70035 21.3257 5.74512 20.1387C4.77334 18.9311 4 17.3378 4 16C4.00007 14.4289 4.50961 13.0943 5.71777 12.2666C5.80377 12.2077 5.89559 12.1637 5.99023 12.1348V4.00293C5.99024 2.62292 7.1092 1.50391 8.48926 1.50391C8.49053 1.50391 8.49381 1.50389 8.49707 1.50391L8.49609 1.50488ZM8.48926 3.50391C8.21382 3.50391 7.99024 3.72743 7.99023 4.00293V14.2227C7.99007 14.7748 7.54242 15.2227 6.99023 15.2227C6.655 15.2227 6.35917 15.057 6.17773 14.8037C6.06397 15.1179 6.00003 15.5096 6 16C6 16.6923 6.47085 17.8498 7.30371 18.8848C8.15278 19.9397 9.07759 20.4998 9.73047 20.5H15.4707C17.0189 20.5 18 19.1229 18 18.0303V11.5049C18 11.2287 17.7762 11.0049 17.5 11.0049H17.4951C17.2218 11.0051 17.0002 11.2267 17 11.5V11.502C17 12.0542 16.5523 12.502 16 12.502C15.4477 12.502 15 12.0542 15 11.502V10.002C15 9.72582 14.7761 9.50195 14.5 9.50195C14.2607 9.50195 14.0609 9.67004 14.0117 9.89453V11.5039C14.0117 12.0561 13.5639 12.5038 13.0117 12.5039C12.4594 12.5039 12.0117 12.0562 12.0117 11.5039V11.502C12.0049 11.455 12 11.4072 12 11.3584V10.002C12 9.92223 12.0044 9.84344 12.0117 9.76562V9.50781C12.0117 9.22738 11.7842 9.00003 11.5039 9C11.2235 9 10.9961 9.2274 10.9961 9.50781V11.7959C10.996 12.3481 10.5483 12.7959 9.99609 12.7959C9.44386 12.7959 8.99617 12.3481 8.99609 11.7959V4.01074C8.99595 3.73138 8.76967 3.50468 8.49023 3.50391H8.48926Z" fill="#9E9E9E"/>
</g>
</svg>
