<svg width="24" height="24" viewBox="0 0 24 24" fill="none" xmlns="http://www.w3.org/2000/svg">
<g id="icons/Hands/mayura-gesture">
<path id="Union" d="M11.5078 1.00098C12.8859 1.00484 14.0001 2.12377 13.9971 3.50195L13.9883 7.06348C14.1547 7.02857 14.3271 7.00977 14.5039 7.00977C14.7361 7.00977 14.9605 7.04329 15.1738 7.10254C15.5336 6.16674 16.4394 5.50195 17.502 5.50195H17.5059C18.884 5.50437 19.9995 6.62377 19.9971 8.00195C19.9906 11.753 19.9891 14.5849 19.9932 16.498C20.0003 19.9175 17.8404 22.9998 14.4775 23H10.001C8.2262 23 6.94008 22.4492 6.0293 21.709C5.13586 20.9829 4.663 20.1229 4.41602 19.5889C3.95056 18.5825 3.50007 17.4448 3.5 15.5215C3.5 14.3218 4.11225 13.2016 4.90625 12.4072C5.22508 12.0883 5.5963 11.7993 6.00293 11.5674V5C6.00293 3.62047 7.12137 2.50195 8.50098 2.50195H8.50488L8.50391 2.50293C8.73519 2.50325 8.95835 2.53769 9.1709 2.59668C9.53322 1.66273 10.439 1 11.501 1C11.502 1 11.5053 0.999985 11.5088 1L11.5078 1.00098ZM17.502 7.50195C17.2285 7.50195 17.0069 7.72358 17.0068 7.99707V8C17.012 10.5684 17.0146 12.0775 17.0146 12.5254C17.0146 13.3393 16.8356 14.2461 16.1084 14.7871C15.6751 15.1093 15.1798 15.204 14.6895 15.1758C14.2283 16.1064 13.2843 16.7509 12.1826 16.7812L12.1836 16.7832L11.0703 16.874L11.4014 17.5713C11.638 18.0703 11.4248 18.6667 10.9258 18.9033C10.4268 19.1399 9.83041 18.9276 9.59375 18.4287L8.64355 16.4238C8.50286 16.1272 8.5167 15.7805 8.68066 15.4961C8.84466 15.2118 9.13772 15.0259 9.46484 14.999L12.0205 14.79L12.1016 14.7861C12.5929 14.7861 12.9921 14.3879 12.9922 13.8955C12.9922 13.403 12.5929 13.0039 12.1016 13.0039H7.99902C7.48859 13.0039 6.85398 13.2884 6.32129 13.8213C5.78968 14.3531 5.5 14.9922 5.5 15.5215C5.50006 17.0557 5.83771 17.8987 6.23145 18.75C6.41413 19.1449 6.72812 19.7005 7.29004 20.1572C7.83496 20.6001 8.67341 21 10.001 21H14.4775C16.3627 20.9998 17.9989 19.2276 17.9932 16.502C17.9891 14.5848 17.9906 11.7497 17.9971 7.99805C17.9974 7.75871 17.8282 7.55829 17.6025 7.51172L17.5029 7.50195H17.502ZM14.5039 9.00977C14.2278 9.00977 14.0039 9.23365 14.0039 9.50977V10.0098C14.0039 10.0819 13.995 10.1519 13.9805 10.2197L13.9775 11.6982C14.4224 12.0786 14.7476 12.5913 14.8975 13.1758C14.9036 13.175 14.9086 13.1737 14.9131 13.1729C14.9204 13.1594 14.9324 13.1393 14.9434 13.1074C14.9796 13.0021 15.0146 12.8177 15.0146 12.5254C15.0146 12.2209 15.0122 11.4203 15.0098 10.123C15.0056 10.0859 15.0039 10.048 15.0039 10.0098V9.50977C15.0039 9.23363 14.78 9.00977 14.5039 9.00977ZM8.40039 4.51172C8.17351 4.55815 8.00293 4.75938 8.00293 5V11.0039H9.00098V4.9834C8.99012 4.7161 8.77183 4.50254 8.50195 4.50195H8.50098L8.40039 4.51172ZM11.4004 3.00977C11.1723 3.05622 11.001 3.25822 11.001 3.5V4.96387C11.0012 4.9772 11.0029 4.99053 11.0029 5.00391V11.0039H11.9795L11.9971 3.49805C11.9977 3.22386 11.7762 3.00064 11.502 3H11.501L11.4004 3.00977Z" fill="#9E9E9E"/>
</g>
</svg>
