<svg width="24" height="24" viewBox="0 0 24 24" fill="none" xmlns="http://www.w3.org/2000/svg">
<g id="icons/Hands/middle-finger">
<path id="Union" d="M12 1C13.3849 1.00003 14.5078 2.12284 14.5078 3.50781V8.0498C14.6654 8.01864 14.8283 8.00197 14.9951 8.00195C16.0565 8.00195 16.9605 8.66456 17.3232 9.59766C17.5357 9.53874 17.759 9.50493 17.9902 9.50488H17.9951C19.3758 9.50489 20.4951 10.6242 20.4951 12.0049V18.5303C20.4951 20.5613 18.7299 23 15.8398 23H9.89453C8.33662 22.9997 6.86111 22.0451 5.8252 20.877C4.7781 19.696 3.99512 18.0943 3.99512 16.5C3.99517 15.4851 4.24246 14.5562 4.84668 13.8252C5.2777 13.3038 5.84031 12.9463 6.48633 12.7188V10.5059C6.48653 9.12465 7.60619 8.00508 8.9873 8.00488H8.99023L9.24609 8.01758C9.32943 8.02612 9.41148 8.03915 9.49219 8.05566V3.50781C9.49219 2.12282 10.615 1 12 1ZM12 3C11.7196 3 11.4922 3.2274 11.4922 3.50781V12.5107C11.4922 13.063 11.0445 13.5107 10.4922 13.5107C9.9399 13.5107 9.49219 13.063 9.49219 12.5107V10.5098C9.49219 10.2662 9.31949 10.0629 9.08984 10.0156L8.98828 10.0049H8.9873C8.71071 10.0051 8.48653 10.2293 8.48633 10.5059V15.0195C8.48633 15.5718 8.03861 16.0195 7.48633 16.0195C6.93404 16.0195 6.48633 15.5718 6.48633 15.0195V14.9941C6.45093 15.0286 6.41829 15.0638 6.38867 15.0996C6.16294 15.3728 5.99517 15.8026 5.99512 16.5C5.99512 17.4744 6.50059 18.6231 7.32227 19.5498C8.15504 20.4889 9.12947 20.9997 9.89453 21H15.8398C17.4979 21 18.4951 19.5886 18.4951 18.5303V12.0049C18.4951 11.7287 18.2713 11.5049 17.9951 11.5049H17.9902C17.717 11.5052 17.4953 11.7267 17.4951 12V12.002C17.4951 12.5542 17.0474 13.002 16.4951 13.002C15.9429 13.0018 15.4951 12.5542 15.4951 12.002V10.502C15.4951 10.2258 15.2713 10.002 14.9951 10.002C14.7561 10.0021 14.557 10.1702 14.5078 10.3945V12.0039C14.5078 12.5561 14.06 13.0038 13.5078 13.0039C12.9555 13.0039 12.5078 12.5562 12.5078 12.0039C12.5009 11.9563 12.4951 11.9079 12.4951 11.8584V10.502C12.4951 10.4156 12.4993 10.3302 12.5078 10.2461V3.50781C12.5078 3.22742 12.2804 3.00003 12 3Z" fill="#9E9E9E"/>
</g>
</svg>
