<svg width="24" height="24" viewBox="0 0 24 24" fill="none" xmlns="http://www.w3.org/2000/svg">
<g id="icons/Hands/move">
<path id="Union" d="M10.75 6.5C11.9926 6.5 13 7.50737 13 8.75V9.51465C13.0821 9.50555 13.1655 9.50002 13.25 9.5C14.0626 9.5 14.7725 9.93243 15.168 10.5781C15.3538 10.5284 15.5485 10.5 15.75 10.5C16.5626 10.5 17.2725 10.9324 17.668 11.5781C17.8538 11.5284 18.0485 11.5 18.25 11.5C19.4926 11.5 20.5 12.5074 20.5 13.75V17.6836C20.5 18.2912 20.3687 18.9358 20.0332 19.5166L19.877 19.7617C19.3483 20.5112 18.2935 21.8193 16.8945 22.4189C15.9251 22.8344 14.9648 23.078 13.9229 23.0879C12.8861 23.0977 11.8246 22.8756 10.6504 22.4365C9.22893 21.9049 8.01 20.7725 7.05762 19.6357C6.09059 18.4815 5.31643 17.223 4.80664 16.3076C4.12343 15.0806 4.50587 13.6154 5.53711 12.79H5.53809C6.39808 12.1021 7.53913 11.9752 8.5 12.3838V8.75C8.5 7.50753 9.50759 6.50026 10.75 6.5ZM10.75 8.5C10.6122 8.50026 10.5 8.6121 10.5 8.75V14.5C10.5 14.9044 10.2565 15.2691 9.88281 15.4238C9.50923 15.5784 9.07889 15.4929 8.79297 15.207L8.00488 14.4189C7.6753 14.0895 7.15104 14.0605 6.78711 14.3516C6.45184 14.6198 6.38547 15.0329 6.55371 15.335C7.03032 16.1907 7.73515 17.3302 8.59082 18.3516C9.4611 19.3903 10.4093 20.2114 11.3506 20.5635C12.3612 20.9414 13.175 21.0948 13.9043 21.0879C14.6284 21.081 15.326 20.9155 16.1064 20.5811C16.9621 20.2143 17.7473 19.311 18.2422 18.6094C18.4072 18.3754 18.5 18.0594 18.5 17.6836V13.75C18.5 13.6119 18.3881 13.5 18.25 13.5C18.1122 13.5003 18 13.6121 18 13.75C18 14.3022 17.5523 14.75 17 14.75C16.448 14.7497 16 14.3021 16 13.75V12.75C16 12.6119 15.8881 12.5 15.75 12.5C15.6122 12.5003 15.5 12.6121 15.5 12.75C15.5 13.3022 15.0523 13.75 14.5 13.75C13.948 13.7497 13.5 13.3021 13.5 12.75V11.75C13.5 11.6119 13.3881 11.5 13.25 11.5C13.1122 11.5003 13 11.6121 13 11.75C13 12.3022 12.5523 12.75 12 12.75C11.448 12.7497 11 12.3021 11 11.75V8.75C11 8.61193 10.8881 8.5 10.75 8.5ZM13.293 1.29297C13.6835 0.902444 14.3165 0.902444 14.707 1.29297L16.707 3.29297C16.7548 3.34078 16.7976 3.39354 16.835 3.4502C16.8597 3.48768 16.8812 3.52661 16.9004 3.56641C16.9222 3.61159 16.9412 3.65838 16.9561 3.70703C16.9623 3.72732 16.9668 3.74798 16.9717 3.76855C16.9893 3.84291 17 3.92025 17 4C17 4.083 16.9878 4.16312 16.9688 4.24023C16.9646 4.25717 16.9611 4.27428 16.9561 4.29102C16.9412 4.34001 16.9223 4.38712 16.9004 4.43262C16.8804 4.47428 16.8572 4.51458 16.8311 4.55371C16.8185 4.57256 16.8048 4.59048 16.791 4.6084C16.7649 4.6422 16.738 4.67604 16.707 4.70703L14.707 6.70703C14.3165 7.09751 13.6835 7.09751 13.293 6.70703C12.9025 6.31652 12.9025 5.6835 13.293 5.29297L13.5859 5H7.41406L7.70703 5.29297C8.09753 5.68348 8.09753 6.3165 7.70703 6.70703C7.31652 7.09742 6.68346 7.09746 6.29297 6.70703L4.29297 4.70703C4.23497 4.64903 4.18614 4.58377 4.14453 4.51465C4.05376 4.3641 4.00001 4.18861 4 4C4 3.72388 4.11203 3.47393 4.29297 3.29297L6.29297 1.29297C6.68349 0.902444 7.31651 0.902444 7.70703 1.29297C8.09752 1.6835 8.09754 2.31652 7.70703 2.70703L7.41406 3H13.5859L13.293 2.70703C12.9025 2.31652 12.9025 1.6835 13.293 1.29297Z" fill="#9E9E9E"/>
</g>
</svg>
