<svg width="24" height="24" viewBox="0 0 24 24" fill="none" xmlns="http://www.w3.org/2000/svg">
<g id="icons/Hands/okay">
<path id="Union" d="M10.621 0.958984C11.3148 0.659568 12.0292 0.986792 12.3798 1.50684L12.4492 1.62109L14.332 5.08301C14.3788 4.81526 14.4282 4.56302 14.4824 4.33105C14.8473 2.76736 16.298 2.45243 17.0038 2.40723C17.8501 2.35316 18.4168 3.00138 18.5117 3.66602L18.5244 3.79883V3.7998L18.999 13.9531C19.0015 14.0068 18.9979 14.0595 18.9921 14.1113C19.4735 15.5625 19.4989 17.1465 18.8603 18.6367C17.8733 20.9393 15.5768 22.9354 12.873 23.2734C11.4449 23.4518 10.0837 23.0033 9.05756 22.4902C8.02778 21.9753 7.2179 21.3361 6.85052 20.9688C6.58306 20.7013 6.36169 20.4273 6.19232 20.1914C5.75114 19.5766 5.76085 18.7792 6.16595 18.1797C5.66669 17.9209 5.28709 17.4319 5.23529 16.7549C5.13385 15.4271 5.36953 13.4559 6.80463 11.8154C7.36365 11.1766 7.92689 10.6912 8.46967 10.3232C7.99335 9.90707 7.46648 9.44046 6.96088 8.97754C6.06768 8.15974 5.15019 7.27809 4.73724 6.72754C3.77426 5.44332 4.46481 4.12945 4.88373 3.55957L4.9892 3.43164C5.50082 2.87496 6.28707 2.88351 6.81927 3.21582L6.92865 3.29102L9.52045 5.27246C9.31524 4.76635 9.14088 4.27962 9.04681 3.86523C8.69166 2.29955 9.8575 1.38147 10.4726 1.03223L10.621 0.958984ZM12.1728 11.166C11.7373 11.166 10.0597 11.1317 8.30951 13.1318C7.43712 14.129 7.20023 15.3421 7.21771 16.3008C7.47893 16.188 7.71089 16.0735 7.8681 15.9688C7.99677 15.883 8.03833 15.8271 8.05072 15.8086C8.06197 15.7917 8.0776 15.7628 8.09564 15.6816C8.12104 15.5672 8.12798 15.4749 8.16302 15.2354C8.19378 15.0253 8.24099 14.7613 8.33978 14.4648C8.5915 13.7099 9.21425 13.1423 9.87396 12.8135C10.5498 12.4767 11.3995 12.3194 12.2431 12.5303C13.9646 12.9607 14.6152 14.4622 14.6152 15.6465C14.6151 16.7699 14.1261 18.2169 12.5605 18.876C11.7581 19.2137 11.1151 19.2202 10.4736 19.084C10.1941 19.0246 9.90423 18.9352 9.65521 18.8623C9.39186 18.7852 9.12076 18.7099 8.80365 18.6465C8.77613 18.641 8.66377 18.6358 8.43353 18.7764C8.26316 18.8804 8.09141 19.026 7.93744 19.1807C8.03352 19.303 8.14231 19.4324 8.26459 19.5547C8.47434 19.7644 9.1066 20.2788 9.95111 20.7012C10.7995 21.1254 11.746 21.3988 12.6249 21.2891C14.5359 21.0502 16.2786 19.5841 17.0224 17.8486C17.7049 16.256 17.2829 14.3413 16.0195 12.8252C15.8331 12.6015 15.6155 12.4075 15.3808 12.2354C15.3088 12.2038 15.239 12.1641 15.1738 12.1143L15.0087 11.9883C14.6414 11.7723 14.2451 11.6048 13.8505 11.4785C13.0485 11.2219 12.3585 11.1661 12.1728 11.166ZM11.7578 14.4707C11.4476 14.3932 11.0854 14.4441 10.7656 14.6035C10.43 14.7708 10.273 14.9874 10.2363 15.0977C10.1911 15.2334 10.1658 15.3662 10.1425 15.5254C10.1235 15.6551 10.0944 15.9064 10.0478 16.1162C10 16.331 9.91888 16.5714 9.7724 16.8184C9.93458 16.8608 10.0827 16.9039 10.2177 16.9434C10.5128 17.0297 10.7038 17.0887 10.8886 17.1279C11.1755 17.1889 11.398 17.1947 11.7841 17.0322C12.3741 16.7839 12.6151 16.2536 12.6152 15.6465C12.6152 15.1002 12.3437 14.6172 11.7578 14.4707ZM16.4999 4.62695C16.4779 4.65534 16.4501 4.70182 16.4306 4.78516V4.78613C16.2307 5.64286 16.0723 6.88805 16.0195 8.18652L16.7929 9.60645L16.5576 4.57031C16.533 4.58938 16.5144 4.60842 16.4999 4.62695ZM6.26068 5.37207C6.26828 5.40726 6.28626 5.45858 6.33783 5.52734C6.6172 5.89979 7.38282 6.65269 8.31146 7.50293C9.05597 8.18457 9.85165 8.87635 10.4531 9.3916C10.7961 9.2959 11.1073 9.24092 11.3749 9.20898L6.25482 5.29297C6.25376 5.32345 6.25582 5.34946 6.26068 5.37207ZM10.9902 3.24902C10.9827 3.28426 10.978 3.33901 10.997 3.42285C11.0998 3.87542 11.3769 4.57475 11.7519 5.40332C12.1195 6.21552 12.5396 7.06389 12.9013 7.81641C12.911 7.83668 12.9194 7.85736 12.9277 7.87793L14.0048 8.70215C14.005 8.69108 14.0056 8.68002 14.0058 8.66895L11.0165 3.17383C11.003 3.20134 10.995 3.22632 10.9902 3.24902Z" fill="#9E9E9E"/>
</g>
</svg>
