<svg width="24" height="24" viewBox="0 0 24 24" fill="none" xmlns="http://www.w3.org/2000/svg">
<g id="icons/Hands/one-one">
<path id="Union" d="M8.375 1C9.82472 1.00001 11 2.17525 11 3.625V5.57812C11.2005 5.52907 11.4094 5.50002 11.625 5.5C12.4727 5.50001 13.2242 5.90381 13.7041 6.52734C14.0568 6.35105 14.4539 6.25004 14.875 6.25C16.142 6.25001 17.1999 7.1477 17.4463 8.3418C17.663 8.28386 17.89 8.25002 18.125 8.25C19.5747 8.25001 20.75 9.42527 20.75 10.875V15.9844C20.75 17.0103 20.4407 18.0126 19.8613 18.8594L19.374 19.5703C17.9057 21.7164 15.4724 23 12.8721 23H12.4248C9.48254 22.9999 6.73843 21.5167 5.12598 19.0557L4.02832 17.3809C2.97245 15.7693 3.28405 13.6225 4.75488 12.3779L5.75 11.5361V3.625C5.75 2.17533 6.92538 1.00013 8.375 1ZM8.375 3C8.02994 3.00013 7.75 3.27991 7.75 3.625V11.7305C7.75 12.1954 7.54545 12.637 7.19043 12.9375L6.04688 13.9053C5.34734 14.4972 5.1991 15.5176 5.70117 16.2842L6.79883 17.96C8.04171 19.857 10.1569 20.9999 12.4248 21H12.8721C14.8122 21 16.6281 20.0426 17.7236 18.4414L18.21 17.7295C18.5617 17.2155 18.75 16.6073 18.75 15.9844V10.875C18.75 10.5298 18.4702 10.25 18.125 10.25C17.7799 10.2501 17.5 10.5299 17.5 10.875C17.5 11.4273 17.0523 11.875 16.5 11.875C15.9478 11.8749 15.5 11.4272 15.5 10.875V8.875C15.5 8.52984 15.2202 8.25001 14.875 8.25C14.5299 8.25013 14.25 8.52992 14.25 8.875C14.25 9.42728 13.8023 9.87499 13.25 9.875C12.6978 9.87487 12.25 9.4272 12.25 8.875V8.125C12.25 7.77984 11.9702 7.50001 11.625 7.5C11.2799 7.50013 11 7.77992 11 8.125C11 8.67728 10.5523 9.12499 10 9.125C9.44783 9.12487 9 8.6772 9 8.125V3.625C9 3.27983 8.72016 3.00001 8.375 3Z" fill="#9E9E9E"/>
</g>
</svg>
