<svg width="24" height="24" viewBox="0 0 24 24" fill="none" xmlns="http://www.w3.org/2000/svg">
<g id="icons/Hands/one">
<path id="Union" d="M13.8707 1.63379C14.5782 1.16907 15.5098 1.22092 16.1617 1.76074L16.2975 1.88379L16.4567 2.05957C16.8063 2.4864 16.9996 3.02346 16.9996 3.58008V13.6689L17.8746 12.9697C18.5724 12.4116 19.3735 12.3431 20.0367 12.459C20.6819 12.5719 21.2611 12.8654 21.6754 13.1367C22.4425 13.6396 22.4742 14.6137 22.027 15.2188L18.0543 20.5947L18.0289 20.6279L18.0026 20.6592L17.2496 20C17.9455 20.6089 17.998 20.6553 18.0016 20.6592L17.9987 20.6621C17.9975 20.6634 17.9961 20.6655 17.9948 20.667C17.992 20.6701 17.9886 20.6738 17.985 20.6777C17.9775 20.686 17.9677 20.6962 17.9567 20.708C17.9343 20.7318 17.905 20.7633 17.8678 20.7998C17.7931 20.8731 17.6876 20.9703 17.5514 21.083C17.2785 21.3088 16.8791 21.5981 16.3453 21.8828C15.2723 22.455 13.6738 23 11.4996 23C9.39147 23 7.83421 22.6487 6.7262 22.167C5.65206 21.6999 4.91667 21.0704 4.6051 20.4473L4.59827 20.4336L4.59143 20.4189L2.56116 16.0205C1.79513 14.3606 2.43616 12.39 4.03186 11.498L9.66077 8.35352C10.4544 7.91006 11.4191 7.93595 12.1842 8.4043L12.6901 3.52246C12.7589 2.85677 13.0926 2.24638 13.6149 1.82812L13.7233 1.74121L13.8707 1.63379ZM14.8649 3.38867C14.7605 3.47231 14.6931 3.59464 14.6793 3.72754L14.0856 9.47461C13.9656 10.6345 12.6256 11.2199 11.693 10.5205L11.1803 10.1357C11.0223 10.0173 10.8088 10.0025 10.6364 10.0986L5.00745 13.2441C4.3237 13.6265 4.04928 14.4713 4.37756 15.1826L6.39514 19.5547C6.39914 19.5616 6.41495 19.5877 6.45081 19.6299C6.49366 19.6802 6.55867 19.7462 6.651 19.8223C6.83603 19.9746 7.11873 20.1571 7.52307 20.333C8.33159 20.6845 9.60827 21 11.4996 21C13.3248 21 14.6019 20.5458 15.4039 20.1182C15.8073 19.9031 16.0957 19.6911 16.276 19.542C16.3656 19.4678 16.4288 19.4091 16.4655 19.373C16.4736 19.3651 16.4804 19.3572 16.486 19.3516L20.0455 14.5342C19.9256 14.4874 19.8066 14.4488 19.692 14.4287C19.4211 14.3814 19.2531 14.4286 19.1246 14.5312L17.4362 15.8818C16.4533 16.6672 14.9997 15.9664 14.9996 14.71V3.58008C14.9996 3.49412 14.9701 3.41203 14.9196 3.34375L14.8649 3.38867Z" fill="#9E9E9E"/>
</g>
</svg>
