<svg width="24" height="24" viewBox="0 0 24 24" fill="none" xmlns="http://www.w3.org/2000/svg">
<g id="icons/Hands/open">
<path id="Union" d="M1.49316 3.79004C2.03534 2.96473 3.12844 2.69189 3.99512 3.16504L4.17773 3.27832L10.541 7.73145C11.1882 8.18433 11.5077 8.97575 11.3574 9.75098L10.9863 11.6611C10.9847 11.6709 10.9833 11.6807 10.9814 11.6904L9.63086 19.3477C9.46206 20.3031 8.63143 20.9999 7.66113 21H3.58008C2.11193 20.9999 1.1441 19.4704 1.77246 18.1436L5.33105 10.6318L2.73242 7.33691L1.64844 6.09277C1.13748 5.50675 1.03328 4.66857 1.38574 3.97559L1.49316 3.79004ZM19.9834 2.9375C20.8595 2.45249 21.9701 2.72977 22.5146 3.57031L22.6221 3.75879L22.6816 3.88965C22.9525 4.5509 22.8333 5.31366 22.3633 5.8623L21.2812 7.12305L18.6621 10.6172L22.2266 18.1436C22.855 19.4703 21.8878 20.9996 20.4199 21H16.3174C15.3656 20.9998 14.5459 20.3283 14.3574 19.3955L12.7793 11.585C12.7727 11.5521 12.768 11.5187 12.7646 11.4854L12.5615 9.42578C12.4911 8.71144 12.8091 8.01412 13.3945 7.59863L19.7988 3.05273L19.9834 2.9375ZM3.58008 19H7.66113L8.85742 12.2139L7.04004 11.6943L3.58008 19ZM14.9561 12.2666L16.3174 19H20.4199L16.959 11.6943L14.9561 12.2666ZM14.5518 9.22949L14.6543 10.2725L16.9268 9.62305C16.9673 9.55232 17.0118 9.48323 17.0615 9.41699L19.6992 5.89941C19.7122 5.88209 19.7261 5.86507 19.7402 5.84863L20.4004 5.07812L14.5518 9.22949ZM4.25391 6.03711L4.28516 6.0752L6.90137 9.39355C6.95777 9.46509 7.00826 9.54005 7.05371 9.61719L9.22559 10.2383L9.39453 9.37012L3.66016 5.35742L4.25391 6.03711Z" fill="#9E9E9E"/>
</g>
</svg>
