<svg width="24" height="24" viewBox="0 0 24 24" fill="none" xmlns="http://www.w3.org/2000/svg">
<g id="icons/Hands/palm">
<path id="Union" d="M12.5004 1C13.3602 1.00012 14.1189 1.43463 14.5687 2.0957C14.8567 1.9799 15.171 1.91509 15.5004 1.91504C16.6153 1.91519 17.5591 2.64522 17.8812 3.65332C18.0793 3.60278 18.2865 3.57327 18.5004 3.57324C19.8809 3.57343 21.0004 4.69268 21.0004 6.07324V12.9141C21.0003 14.1957 20.5947 15.4448 19.8412 16.4814L18.4906 18.3369C18.4964 18.3905 18.5004 18.4449 18.5004 18.5V21.5C18.5004 22.3283 17.8286 22.9998 17.0004 23H10.0004C9.17194 23 8.50037 22.3284 8.50037 21.5V18.6514L8.42126 18.5723L3.56482 13.1328C2.47218 11.909 2.61111 10.023 3.87146 8.97266C4.77838 8.21726 6.00678 8.1121 7.00037 8.59668V4.49707C7.00037 3.11841 8.11682 1.99997 9.49548 1.99707C9.8108 1.99648 10.112 2.05709 10.39 2.16309C10.8333 1.46476 11.612 1.00013 12.5004 1ZM10.5004 21H16.5004V19H10.5004V21ZM12.5004 3C12.2244 3.0002 12.0004 3.22398 12.0004 3.5V4.49707L11.9955 4.59961C11.9441 5.10355 11.5178 5.49689 11.0004 5.49707C10.4829 5.49688 10.0576 5.10352 10.0062 4.59961L10.0004 4.49707L9.9906 4.39648C9.94404 4.16826 9.74135 3.99675 9.49939 3.99707C9.22379 3.99782 9.00037 4.22143 9.00037 4.49707V11C9.00037 11.4246 8.73199 11.8027 8.33142 11.9434C7.93091 12.0838 7.48539 11.9562 7.22009 11.625L6.43103 10.6387C6.11603 10.2449 5.53915 10.1871 5.15173 10.5098C4.76059 10.8358 4.71697 11.4208 5.05603 11.8008L9.69861 17H16.9916L18.223 15.3057C18.7281 14.6108 19.0003 13.7732 19.0004 12.9141V6.07324C19.0004 5.79724 18.7764 5.57343 18.5004 5.57324C18.2244 5.57345 18.0004 5.79725 18.0004 6.07324L17.9955 6.17578C17.9441 6.67973 17.5178 7.07306 17.0004 7.07324C16.4829 7.07305 16.0576 6.6797 16.0062 6.17578L16.0004 6.07324V4.41504C16.0004 4.139 15.7764 3.91523 15.5004 3.91504C15.2244 3.91524 15.0004 4.13901 15.0004 4.41504L14.9955 4.5166C14.9444 5.02087 14.5181 5.41486 14.0004 5.41504C13.4827 5.41485 13.0573 5.02083 13.0062 4.5166L13.0004 4.41504V3.5C13.0004 3.22397 12.7764 3.00019 12.5004 3Z" fill="#9E9E9E"/>
</g>
</svg>
