<svg width="24" height="24" viewBox="0 0 24 24" fill="none" xmlns="http://www.w3.org/2000/svg">
<g id="icons/Hands/point-out">
<path id="Union" d="M10.6377 1C12.2783 1.00021 13.6082 2.33014 13.6084 3.9707V8.19336L18.9775 8.37305C20.1051 8.41093 21 9.33568 21 10.4639V20.5C21 21.8806 19.8806 22.9998 18.5 23H8.7373C8.39549 22.9999 8.07555 22.8452 7.86328 22.585L7.7793 22.4668L3.08008 14.8906C2.28454 13.608 2.54718 11.9361 3.69824 10.96C4.87973 9.95805 6.56739 10.0272 7.66602 10.9805V3.9707C7.66618 2.33 8.99693 1.00001 10.6377 1ZM10.6377 3C10.1015 3.00001 9.66618 3.43459 9.66602 3.9707V14.3457C9.66601 14.7969 9.36408 15.1921 8.92871 15.3105C8.49324 15.4289 8.03214 15.2407 7.80371 14.8516L6.57227 12.7539C6.24296 12.1936 5.48799 12.0651 4.99219 12.4854C4.59654 12.8209 4.50589 13.3961 4.7793 13.8369L9.22266 21H18.5C18.776 20.9998 19 20.776 19 20.5V10.4639C19 10.414 18.9599 10.3737 18.9102 10.3721L13.0996 10.1777C12.2681 10.1499 11.6086 9.46756 11.6084 8.63574V3.9707C11.6082 3.43469 11.1737 3.00021 10.6377 3Z" fill="#9E9E9E"/>
</g>
</svg>
