<svg width="24" height="24" viewBox="0 0 24 24" fill="none" xmlns="http://www.w3.org/2000/svg">
<g id="icons/Hands/point">
<path id="Union" d="M9.75098 1C11.2696 1.00017 12.501 2.23132 12.501 3.75V5.35547C12.7395 5.28799 12.9909 5.25 13.251 5.25C14.1424 5.2501 14.9321 5.67639 15.4346 6.33398C15.8254 6.12064 16.2743 6 16.751 6C18.2215 6.00016 19.4193 7.15429 19.4932 8.60742C19.7339 8.53853 19.9881 8.5 20.251 8.5C21.7696 8.50017 23.001 9.73132 23.001 11.25V15.6221C23.001 16.3442 22.8367 17.1283 22.3701 17.8125C21.7348 18.744 20.4692 20.2926 18.4795 21.3779C15.4053 23.0547 12.0567 22.8959 9.05371 21.3945C7.47937 20.6074 5.99349 19.0917 4.75293 17.5488C3.49387 15.9829 2.40476 14.283 1.64355 13.0146C0.609489 11.2916 1.19097 9.5382 2.37109 8.59082C3.52403 7.66559 5.35983 7.44468 6.70801 8.79297C6.81082 8.89579 6.9084 8.99335 7.00098 9.08594V3.75C7.00098 2.23122 8.23219 1 9.75098 1ZM9.75098 3C9.33677 3 9.00098 3.33578 9.00098 3.75V11.5C9.00098 11.9043 8.75725 12.269 8.38379 12.4238C8.01024 12.5787 7.58002 12.4928 7.29395 12.207H7.29297L7.29199 12.2051C7.29038 12.2035 7.28713 12.2012 7.2832 12.1973C7.2753 12.1894 7.26194 12.176 7.24023 12.1543C7.19675 12.1108 7.12004 12.0331 6.98535 11.8984C6.71579 11.6289 6.21564 11.1288 5.29395 10.207C4.7987 9.71174 4.13427 9.74097 3.62305 10.1514C3.13909 10.5399 2.89215 11.2084 3.3584 11.9854C4.09749 13.2169 5.13342 14.8297 6.31152 16.2949C7.50804 17.783 8.77183 19.0176 9.94727 19.6055C12.4441 20.8539 15.0957 20.9451 17.5215 19.6221C19.1341 18.7425 20.1841 17.4681 20.7178 16.6855C20.9018 16.4157 21.001 16.0547 21.001 15.6221V11.25C21.001 10.8359 20.6651 10.5002 20.251 10.5C19.8369 10.5 19.501 10.8358 19.501 11.25L19.4951 11.3525C19.4438 11.8566 19.0185 12.2498 18.501 12.25C17.9833 12.25 17.5572 11.8567 17.5059 11.3525L17.501 11.25V8.74902C17.5009 8.33557 17.1655 8.00017 16.751 8C16.3368 8 16.001 8.33578 16.001 8.75L15.9951 8.85254C15.9438 9.35654 15.5185 9.74984 15.001 9.75C14.4833 9.75 14.0572 9.35665 14.0059 8.85254L14.001 8.75V8C14.001 7.58589 13.6651 7.25017 13.251 7.25C12.8368 7.25 12.501 7.58578 12.501 8L12.4951 8.10254C12.4438 8.60654 12.0185 8.99984 11.501 9C10.9833 9 10.5572 8.60665 10.5059 8.10254L10.501 8V3.75C10.501 3.33589 10.165 3.00017 9.75098 3Z" fill="#9E9E9E"/>
</g>
</svg>
