<svg width="24" height="24" viewBox="0 0 24 24" fill="none" xmlns="http://www.w3.org/2000/svg">
<g id="icons/Hands/reload">
<path id="Union" d="M10.75 6.5C11.9926 6.50001 13 7.50737 13 8.75V9.51465C13.0821 9.50555 13.1655 9.50002 13.25 9.5C14.0626 9.5 14.7725 9.93243 15.168 10.5781C15.3538 10.5284 15.5485 10.5 15.75 10.5C16.5626 10.5 17.2725 10.9324 17.668 11.5781C17.8538 11.5284 18.0485 11.5 18.25 11.5C19.4926 11.5 20.5 12.5074 20.5 13.75V17.6836C20.5 18.2912 20.3687 18.9358 20.0332 19.5166L19.877 19.7617C19.3483 20.5112 18.2935 21.8193 16.8945 22.4189C15.9251 22.8344 14.9648 23.078 13.9229 23.0879C12.8861 23.0977 11.8246 22.8757 10.6504 22.4365C9.22891 21.9049 8.01 20.7725 7.05762 19.6357C6.09057 18.4815 5.31643 17.223 4.80664 16.3076C4.12343 15.0806 4.50585 13.6154 5.53711 12.79H5.53809C6.39808 12.1022 7.53913 11.9752 8.5 12.3838V8.75C8.5 7.50753 9.50759 6.50026 10.75 6.5ZM10.75 8.5C10.6122 8.50026 10.5 8.6121 10.5 8.75V14.5C10.5 14.9045 10.2565 15.269 9.88281 15.4238C9.50921 15.5784 9.07889 15.493 8.79297 15.207L8.00488 14.4189C7.6753 14.0895 7.15104 14.0605 6.78711 14.3516C6.45181 14.6198 6.38546 15.0329 6.55371 15.335C7.03032 16.1907 7.73513 17.3302 8.59082 18.3516C9.4611 19.3903 10.4093 20.2114 11.3506 20.5635C12.3612 20.9414 13.175 21.0948 13.9043 21.0879C14.6285 21.081 15.326 20.9155 16.1064 20.5811C16.9621 20.2143 17.7473 19.311 18.2422 18.6094C18.4072 18.3754 18.5 18.0594 18.5 17.6836V13.75C18.5 13.6119 18.3881 13.5 18.25 13.5C18.1122 13.5003 18 13.6121 18 13.75C18 14.3023 17.5523 14.75 17 14.75C16.4479 14.7497 16 14.3021 16 13.75V12.75C16 12.6119 15.8881 12.5 15.75 12.5C15.6122 12.5003 15.5 12.6121 15.5 12.75C15.5 13.3023 15.0523 13.75 14.5 13.75C13.9479 13.7497 13.5 13.3021 13.5 12.75V11.75C13.5 11.6119 13.3881 11.5 13.25 11.5C13.1122 11.5003 13 11.6121 13 11.75C13 12.3023 12.5523 12.75 12 12.75C11.4479 12.7497 11 12.3021 11 11.75V8.75C11 8.61194 10.8881 8.50001 10.75 8.5ZM11.5 1C14.2486 1.00001 16.5261 3.01626 16.9346 5.65039L17.293 5.29297C17.6835 4.90245 18.3165 4.90245 18.707 5.29297C19.0975 5.68349 19.0975 6.31651 18.707 6.70703L16.707 8.70703C16.3165 9.09755 15.6835 9.09755 15.293 8.70703L13.293 6.70703C12.9024 6.31651 12.9024 5.68349 13.293 5.29297C13.6835 4.90245 14.3165 4.90245 14.707 5.29297L14.8271 5.41309C14.3698 4.01232 13.0535 3.00001 11.5 3C9.56699 3 8 4.567 8 6.5C8 7.05228 7.55228 7.49999 7 7.5C6.44772 7.5 6 7.05228 6 6.5C6 3.46244 8.46241 1 11.5 1Z" fill="#9E9E9E"/>
</g>
</svg>
