<svg width="24" height="24" viewBox="0 0 24 24" fill="none" xmlns="http://www.w3.org/2000/svg">
<g id="icons/Hands/respect">
<path id="Union" d="M9.5061 2.34375C10.0879 1.76796 10.9681 1.60921 11.7141 1.94629L11.8713 2.02637L16.4915 4.62793L16.5764 4.68164C16.7673 4.81604 16.9063 5.01464 16.967 5.24219L18.9407 12.6436L22.8948 20.5527C23.0496 20.8625 23.0327 21.2307 22.8508 21.5254C22.6687 21.8201 22.3466 21.9999 22.0002 22H15.5002C15.0288 21.9999 14.6215 21.67 14.5227 21.209L13.0452 14.3125C13.0418 14.2967 13.0404 14.2805 13.0374 14.2646C13.0353 14.2572 13.0324 14.2497 13.0305 14.2422C13.0052 14.1405 12.9962 14.0387 13.0022 13.9395C13.0018 13.9243 13.0002 13.9088 13.0002 13.8936V11.2305C13.0002 11.4111 12.9513 11.5891 12.8586 11.7441L12.0793 13.0469C11.4707 14.0641 10.1259 14.3226 9.18481 13.6328L8.98071 14.6006V21C8.98071 21.552 8.53267 21.9996 7.98071 22H2.00024C1.68101 22 1.3809 21.8476 1.19263 21.5898C1.00452 21.332 0.950814 20.9993 1.0481 20.6953L3.89282 11.8164C3.92597 11.7131 3.96816 11.6116 4.01782 11.5146L6.09009 7.4668L6.15259 7.3623C6.3114 7.12807 6.56361 6.96959 6.8479 6.93164L10.0286 6.50879L10.1262 6.50098C10.3536 6.49329 10.5786 6.56321 10.762 6.70117L12.6018 8.08594C12.8525 8.27479 13.0001 8.57086 13.0002 8.88477V7.97852L9.65942 5.29785C8.79088 4.60068 8.66712 3.32424 9.38599 2.47363L9.5061 2.34375ZM3.37036 20H6.98071V14.6084L5.35767 13.7969L3.37036 20ZM15.1799 14.7344L16.3088 20H20.3821L17.4641 14.1641L15.1799 14.7344ZM14.6262 6.71973C14.8626 6.90945 15.0001 7.19694 15.0002 7.5V12.7197L16.7727 12.2764L15.1428 6.16406L11.092 3.88281L14.6262 6.71973ZM7.6311 8.84473L6.05981 11.9111L7.36743 12.5654L7.52173 11.8369L7.52759 11.8105L7.77759 10.7666C7.88562 10.3172 8.28797 10 8.75024 10H9.50024C9.79759 10.0001 10.0798 10.1325 10.2698 10.3613C10.4597 10.5902 10.5374 10.8923 10.4827 11.1846L10.3313 11.9932L10.3625 12.0195H10.3635L11.0002 10.9541V9.38281L9.88599 8.54492L7.6311 8.84473Z" fill="#9E9E9E"/>
</g>
</svg>
