<svg width="24" height="24" viewBox="0 0 24 24" fill="none" xmlns="http://www.w3.org/2000/svg">
<g id="icons/Hands/rock">
<path id="Union" d="M10.455 1.04297C11.2138 0.606949 12.0257 0.972173 12.3915 1.55469L12.4589 1.67383L14.288 5.33496C14.346 4.9724 14.4115 4.63461 14.4823 4.33105C14.8476 2.76621 16.3002 2.45208 17.0057 2.40723L17.1708 2.40527C17.9775 2.44188 18.4917 3.13329 18.5243 3.7959L18.9989 13.4512C19.0029 13.5346 18.9949 13.6159 18.9794 13.6943C19.6029 15.3181 19.4917 17.1632 18.8602 18.6367C17.8732 20.9392 15.5767 22.9355 12.8729 23.2734C11.4449 23.4518 10.0836 23.0032 9.0575 22.4902C8.02781 21.9754 7.21788 21.3361 6.85046 20.9688C6.64992 20.7683 6.47503 20.5641 6.32898 20.375L6.19226 20.1914C5.75115 19.5767 5.7609 18.7791 6.16589 18.1797C5.66669 17.9209 5.28708 17.4318 5.23523 16.7549C5.13379 15.4271 5.36956 13.4559 6.80457 11.8154C7.90714 10.5554 8.94591 9.89207 9.84851 9.55859C10.1163 9.45969 10.3667 9.39353 10.5936 9.34766C9.86203 6.88719 9.18131 4.4579 9.04675 3.86523C8.69472 2.31335 9.83886 1.39706 10.455 1.04297ZM10.9891 3.25C10.9819 3.2851 10.9781 3.33987 10.9969 3.42285C11.1162 3.94801 11.7973 6.38333 12.5487 8.90527C12.922 10.1582 13.3085 11.4181 13.6444 12.4531C13.9893 13.516 14.2589 14.2712 14.4012 14.5674C14.4707 14.7122 14.5014 14.8653 14.4989 15.0156C14.5432 15.1762 14.5779 15.3352 14.6024 15.4893C14.8163 16.8365 14.0251 18.2594 12.5604 18.876C11.758 19.2137 11.115 19.2202 10.4735 19.084C10.1941 19.0246 9.90416 18.9352 9.65515 18.8623C9.39181 18.7852 9.12069 18.7099 8.80359 18.6465C8.7761 18.641 8.66376 18.6357 8.43347 18.7764C8.26315 18.8804 8.09131 19.0261 7.93738 19.1807C8.03344 19.3029 8.14229 19.4325 8.26453 19.5547C8.47438 19.7644 9.10668 20.2789 9.95105 20.7012C10.7994 21.1253 11.746 21.3987 12.6249 21.2891C14.5358 21.0502 16.2784 19.584 17.0223 17.8486C17.7538 16.1419 17.4419 13.9573 15.9003 12.8008C15.8907 12.7936 15.8822 12.7848 15.8729 12.7773C15.8598 12.7668 15.8465 12.7564 15.8339 12.7451C15.8225 12.7349 15.8115 12.7245 15.8007 12.7139C15.789 12.7025 15.7776 12.6908 15.7665 12.6787C15.7535 12.6648 15.7414 12.6503 15.7294 12.6357C15.7191 12.6233 15.7088 12.6107 15.6991 12.5977C15.6961 12.5936 15.6923 12.59 15.6893 12.5859L15.6561 12.5361C15.6545 12.5335 15.6529 12.5309 15.6512 12.5283C15.6391 12.5088 15.6278 12.4889 15.6171 12.4688C15.6133 12.4616 15.609 12.4546 15.6053 12.4473L10.9969 3.22363C10.9941 3.23265 10.9909 3.24157 10.9891 3.25ZM11.6415 14.5977C10.8674 14.4041 10.3209 14.8435 10.2362 15.0977C10.191 15.2334 10.1657 15.3663 10.1425 15.5254C10.1235 15.6552 10.0943 15.9066 10.0477 16.1162C9.99995 16.3309 9.91875 16.5715 9.77234 16.8184C9.93451 16.8608 10.0827 16.9039 10.2177 16.9434C10.5128 17.0297 10.7038 17.0887 10.8885 17.1279C11.1754 17.1889 11.3981 17.1946 11.7841 17.0322C12.4746 16.7415 12.6838 16.164 12.6268 15.8037C12.5275 15.1789 12.2657 14.7537 11.6415 14.5977ZM11.1766 11.2754C10.9927 11.2994 10.7823 11.3454 10.5409 11.4346C9.99603 11.6359 9.22571 12.0847 8.30945 13.1318C7.43717 14.129 7.20018 15.3421 7.21765 16.3008C7.4788 16.188 7.71084 16.0735 7.86804 15.9688C7.99624 15.8833 8.03811 15.8273 8.05066 15.8086C8.0619 15.7917 8.07758 15.7625 8.09558 15.6816C8.12094 15.5674 8.12802 15.4752 8.16296 15.2363C8.19371 15.0263 8.24093 14.7613 8.33972 14.4648C8.77455 13.1609 10.1995 12.4512 11.5829 12.5674C11.4522 12.1573 11.3145 11.7232 11.1766 11.2754ZM16.4999 4.62695C16.4778 4.65543 16.45 4.70262 16.4305 4.78613C16.2009 5.77061 16.0264 7.26786 16.0038 8.76953L16.8485 10.4609L16.5594 4.56836C16.5339 4.58795 16.5147 4.60793 16.4999 4.62695Z" fill="#9E9E9E"/>
</g>
</svg>
