<svg width="24" height="24" viewBox="0 0 24 24" fill="none" xmlns="http://www.w3.org/2000/svg">
<g id="icons/Hands/rock-gesture">
<path id="Union" d="M13.5 1C14.4865 1 15.178 1.47005 15.5713 2.1123C15.9231 2.68711 16 3.33192 16 3.75V12.5859L16.0625 12.5234C16.0656 12.5203 16.0682 12.5168 16.0713 12.5137C16.0744 12.5106 16.078 12.508 16.0811 12.5049L16.0908 12.4951C16.0939 12.492 16.0965 12.4884 16.0996 12.4854C16.1027 12.4823 16.1063 12.4797 16.1094 12.4766L16.1191 12.4668C16.1222 12.4637 16.1249 12.4601 16.1279 12.457C16.131 12.4539 16.1346 12.4513 16.1377 12.4482L16.2227 12.3633C16.2257 12.3602 16.2284 12.3566 16.2314 12.3535C16.2345 12.3504 16.2381 12.3478 16.2412 12.3447L16.2979 12.2881C16.3009 12.285 16.3036 12.2814 16.3066 12.2783C16.3097 12.2752 16.3133 12.2726 16.3164 12.2695L16.3633 12.2227C16.3664 12.2196 16.369 12.216 16.3721 12.2129C16.3751 12.2098 16.3788 12.2072 16.3818 12.2041L16.5117 12.0742C16.5148 12.0712 16.5174 12.0675 16.5205 12.0645C16.5236 12.0614 16.5272 12.0587 16.5303 12.0557L16.5576 12.0283C16.5607 12.0253 16.5634 12.0216 16.5664 12.0186C16.5695 12.0155 16.5731 12.0128 16.5762 12.0098L16.6123 11.9736C16.6153 11.9706 16.6181 11.9669 16.6211 11.9639C16.6241 11.9608 16.6278 11.9581 16.6309 11.9551L16.6846 11.9014C16.6876 11.8984 16.6904 11.8946 16.6934 11.8916C16.6964 11.8886 16.7001 11.8858 16.7031 11.8828L16.7471 11.8389C16.75 11.8359 16.7529 11.8321 16.7559 11.8291L16.7646 11.8203C16.7676 11.8174 16.7715 11.8145 16.7744 11.8115L16.8271 11.7588C16.8299 11.756 16.8322 11.7528 16.835 11.75L16.8438 11.7412C16.8465 11.7384 16.8498 11.7362 16.8525 11.7334L16.8877 11.6982C16.8905 11.6955 16.8927 11.6922 16.8955 11.6895C16.8983 11.6867 16.9016 11.6844 16.9043 11.6816L16.9219 11.6641C16.9246 11.6613 16.9269 11.658 16.9297 11.6553C16.9324 11.6525 16.9357 11.6502 16.9385 11.6475L16.9727 11.6133C16.9754 11.6105 16.9777 11.6072 16.9805 11.6045C16.9832 11.6017 16.9865 11.5994 16.9893 11.5967L17.0225 11.5635C17.0252 11.5607 17.0275 11.5574 17.0303 11.5547C17.033 11.5519 17.0363 11.5496 17.0391 11.5469L17.0635 11.5225C17.0662 11.5197 17.0686 11.5164 17.0713 11.5137C17.074 11.511 17.0774 11.5086 17.0801 11.5059L17.0957 11.4902C17.0984 11.4876 17.1009 11.4841 17.1035 11.4814C17.1062 11.4788 17.1096 11.4763 17.1123 11.4736L17.1436 11.4424C17.1462 11.4397 17.1487 11.4362 17.1514 11.4336L17.1826 11.4023C17.1851 11.3999 17.188 11.3979 17.1904 11.3955L17.2295 11.3564C17.2319 11.354 17.2339 11.3511 17.2363 11.3486C17.2388 11.3462 17.2417 11.3442 17.2441 11.3418L17.252 11.334C17.2544 11.3315 17.2564 11.3286 17.2588 11.3262C17.2612 11.3237 17.2642 11.3218 17.2666 11.3193L17.2891 11.2969C17.2915 11.2944 17.2935 11.2915 17.2959 11.2891C17.2983 11.2866 17.3013 11.2847 17.3037 11.2822C17.3061 11.2798 17.3081 11.2768 17.3105 11.2744C17.313 11.272 17.316 11.27 17.3184 11.2676L17.3467 11.2393C17.349 11.2369 17.3512 11.2338 17.3535 11.2314C17.3559 11.2291 17.359 11.227 17.3613 11.2246L17.3955 11.1904C17.3978 11.1881 17.4001 11.1849 17.4023 11.1826C17.4045 11.1805 17.4071 11.1789 17.4092 11.1768L17.4824 11.1035C17.4845 11.1014 17.4862 11.0988 17.4883 11.0967C17.4904 11.0946 17.493 11.0929 17.4951 11.0908C17.4972 11.0887 17.4989 11.0861 17.501 11.084C17.5031 11.0819 17.5057 11.0802 17.5078 11.0781L17.5322 11.0537C17.5343 11.0517 17.5361 11.0489 17.5381 11.0469C17.5401 11.0448 17.5429 11.043 17.5449 11.041L17.5977 10.9883C17.5995 10.9865 17.6008 10.9842 17.6025 10.9824C17.6043 10.9806 17.6066 10.9793 17.6084 10.9775L17.7305 10.8555C17.7319 10.854 17.7329 10.852 17.7344 10.8506C17.7358 10.8491 17.7378 10.8481 17.7393 10.8467L17.748 10.8379C17.7495 10.8365 17.7505 10.8344 17.752 10.833C17.7534 10.8316 17.7554 10.8305 17.7568 10.8291L17.7607 10.8252C17.7621 10.8238 17.7633 10.8217 17.7646 10.8203C17.766 10.8189 17.7682 10.8178 17.7695 10.8164L17.793 10.793C18.2074 10.3786 18.7672 9.99877 19.4248 9.88086C20.138 9.75312 20.8691 9.95508 21.457 10.543C21.908 10.9939 22.2945 11.5862 22.3154 12.3145C22.3366 13.0576 21.9714 13.6927 21.457 14.207L18.6025 17.0615C18.4814 17.1826 18.383 17.282 18.3145 17.3506C18.3092 17.3558 18.3037 17.3604 18.2988 17.3652C18.2802 17.3975 18.2587 17.4361 18.2334 17.4795C18.1467 17.6281 18.0217 17.8391 17.8672 18.0918C17.5589 18.5959 17.1288 19.2732 16.6455 19.9541C16.1669 20.6284 15.6149 21.3378 15.0615 21.8887C14.7854 22.1636 14.4837 22.4235 14.1689 22.6211C13.8673 22.8104 13.4624 23 13 23H6.5C6.49996 22.9997 6.5 22.9818 6.5 22L6.49902 23H6.46094C6.44229 22.9996 6.41805 22.9984 6.38867 22.9971C6.32933 22.9944 6.24812 22.9893 6.15039 22.9795C5.95599 22.96 5.68852 22.9211 5.38281 22.8447C4.78256 22.6947 3.96683 22.3809 3.29297 21.707C2.64314 21.0572 2.32171 20.3296 2.16309 19.7744C2.08364 19.4963 2.04331 19.2552 2.02246 19.0781C2.012 18.9892 2.0069 18.9148 2.00391 18.8594C2.00241 18.8317 2.00145 18.8084 2.00098 18.79C2.00074 18.781 2.00009 18.7732 2 18.7666V18.751C2 18.7506 2.00001 18.75 3 18.75C2.02322 18.75 2.00053 18.7501 2 18.75V6.39062C2.00001 6.04295 2.10615 5.47912 2.4707 4.97461C2.87586 4.41399 3.55133 4 4.5 4C5.43648 4 6.11406 4.39624 6.52539 4.95801C6.89676 5.46532 7 6.03403 7 6.39062V8.5498C7.16154 8.51702 7.32878 8.5 7.5 8.5C8.06347 8.5 8.58191 8.68841 9 9.00293C9.41809 8.68841 9.93653 8.5 10.5 8.5C10.6712 8.5 10.8385 8.51702 11 8.5498V3.75C11 3.33192 11.0769 2.68711 11.4287 2.1123C11.822 1.47005 12.5135 1 13.5 1ZM13.5 3C13.3411 3 13.266 3.03333 13.2354 3.05078C13.2034 3.06907 13.1692 3.0994 13.1338 3.15723C13.0483 3.29731 13 3.52772 13 3.75V14C13 15.3807 11.8807 16.5 10.5 16.5C9.93631 16.5 9.41817 16.3108 9 15.9961C8.58183 16.3108 8.06369 16.5 7.5 16.5C6.11929 16.5 5 15.3807 5 14V6.39062C5 6.39298 5.00016 6.38193 4.99707 6.36035C4.99408 6.33955 4.98851 6.31397 4.98047 6.28613C4.96377 6.22838 4.93997 6.17777 4.91211 6.13965C4.88716 6.10557 4.85713 6.07852 4.81348 6.05664C4.76954 6.03462 4.67611 6 4.5 6C4.32884 6 4.23834 6.03456 4.19531 6.05664C4.15172 6.07903 4.11955 6.10807 4.0918 6.14648C4.0613 6.18874 4.03576 6.24288 4.01855 6.30176C4.00017 6.36474 4 6.40241 4 6.39062V18.7383L4.00098 18.752C4.00189 18.7688 4.00368 18.8003 4.00879 18.8438C4.01919 18.9322 4.04148 19.0666 4.08691 19.2256C4.17833 19.5453 4.35701 19.9429 4.70703 20.293C5.03309 20.619 5.4675 20.8053 5.86719 20.9053C6.06133 20.9538 6.23156 20.9775 6.34961 20.9893C6.40773 20.9951 6.45189 20.9978 6.47852 20.999C6.49177 20.9996 6.5012 20.9999 6.50488 21H12.9658C12.9821 20.9941 13.0282 20.9768 13.1064 20.9277C13.2491 20.8382 13.4323 20.6878 13.6504 20.4707C14.0857 20.0373 14.5618 19.4339 15.0146 18.7959C15.4628 18.1645 15.8674 17.529 16.1611 17.0488C16.3076 16.8094 16.426 16.6102 16.5068 16.4717C16.5471 16.4026 16.5779 16.3487 16.5986 16.3125C16.609 16.2944 16.617 16.2803 16.6221 16.2715L16.6279 16.2598H16.6289C16.6736 16.1804 16.7286 16.1074 16.793 16.043V16.042L16.7949 16.041L16.8203 16.0156C16.8385 15.9975 16.8651 15.9698 16.8994 15.9355C16.968 15.867 17.0674 15.7686 17.1885 15.6475L20.043 12.793C20.3254 12.5106 20.3156 12.3758 20.3154 12.3711C20.3147 12.3499 20.3012 12.2152 20.043 11.957C19.968 11.882 19.9159 11.8602 19.8916 11.8525C19.867 11.8449 19.8327 11.8399 19.7783 11.8496C19.651 11.8724 19.441 11.9731 19.207 12.207L19.1836 12.2305C19.1822 12.2318 19.1811 12.234 19.1797 12.2354C19.1783 12.2367 19.1762 12.2379 19.1748 12.2393L19.1709 12.2432C19.1695 12.2446 19.1684 12.2466 19.167 12.248C19.1656 12.2495 19.1635 12.2505 19.1621 12.252L19.1533 12.2607C19.1519 12.2622 19.1509 12.2642 19.1494 12.2656C19.148 12.2671 19.146 12.2681 19.1445 12.2695L19.0225 12.3916C19.0207 12.3934 19.0194 12.3957 19.0176 12.3975C19.0158 12.3992 19.0135 12.4005 19.0117 12.4023L18.959 12.4551C18.957 12.4571 18.9552 12.4599 18.9531 12.4619C18.9511 12.4639 18.9483 12.4657 18.9463 12.4678L18.9219 12.4922C18.9198 12.4943 18.9181 12.4969 18.916 12.499C18.9139 12.5011 18.9113 12.5028 18.9092 12.5049C18.9071 12.507 18.9054 12.5096 18.9033 12.5117C18.9012 12.5138 18.8986 12.5155 18.8965 12.5176L18.8232 12.5908C18.8211 12.5929 18.8195 12.5955 18.8174 12.5977C18.8151 12.5999 18.8119 12.6022 18.8096 12.6045L18.7754 12.6387C18.773 12.641 18.7709 12.6441 18.7686 12.6465C18.7662 12.6488 18.7631 12.651 18.7607 12.6533L18.7324 12.6816C18.73 12.684 18.728 12.687 18.7256 12.6895C18.7232 12.6919 18.7202 12.6939 18.7178 12.6963C18.7153 12.6987 18.7134 12.7017 18.7109 12.7041C18.7085 12.7065 18.7056 12.7085 18.7031 12.7109L18.6807 12.7334C18.6782 12.7358 18.6763 12.7388 18.6738 12.7412C18.6714 12.7436 18.6685 12.7456 18.666 12.748L18.6582 12.7559C18.6558 12.7583 18.6538 12.7612 18.6514 12.7637C18.6489 12.7661 18.646 12.7681 18.6436 12.7705L18.6045 12.8096C18.6021 12.812 18.6001 12.8149 18.5977 12.8174L18.5664 12.8486C18.5638 12.8513 18.5603 12.8538 18.5576 12.8564L18.5264 12.8877C18.5237 12.8904 18.5212 12.8938 18.5186 12.8965C18.5159 12.8991 18.5124 12.9016 18.5098 12.9043L18.4941 12.9199C18.4914 12.9226 18.489 12.926 18.4863 12.9287C18.4836 12.9314 18.4803 12.9338 18.4775 12.9365L18.4531 12.9609C18.4504 12.9637 18.4481 12.967 18.4453 12.9697C18.4426 12.9725 18.4393 12.9748 18.4365 12.9775L18.4033 13.0107C18.4006 13.0135 18.3983 13.0168 18.3955 13.0195C18.3928 13.0223 18.3895 13.0246 18.3867 13.0273L18.3525 13.0615C18.3498 13.0643 18.3475 13.0676 18.3447 13.0703C18.342 13.0731 18.3387 13.0754 18.3359 13.0781L18.3184 13.0957C18.3156 13.0984 18.3133 13.1017 18.3105 13.1045C18.3078 13.1073 18.3045 13.1095 18.3018 13.1123L18.2666 13.1475C18.2638 13.1502 18.2616 13.1535 18.2588 13.1562L18.25 13.165C18.2472 13.1678 18.244 13.1701 18.2412 13.1729L18.1885 13.2256C18.1855 13.2285 18.1826 13.2324 18.1797 13.2354L18.1709 13.2441C18.1679 13.2471 18.1641 13.25 18.1611 13.2529L18.1172 13.2969C18.1142 13.2999 18.1114 13.3036 18.1084 13.3066C18.1054 13.3096 18.1016 13.3124 18.0986 13.3154L18.0449 13.3691C18.0419 13.3722 18.0392 13.3759 18.0361 13.3789C18.0331 13.3819 18.0294 13.3847 18.0264 13.3877L17.9902 13.4238C17.9872 13.4269 17.9845 13.4305 17.9814 13.4336C17.9784 13.4366 17.9747 13.4393 17.9717 13.4424L17.9443 13.4697C17.9413 13.4728 17.9386 13.4764 17.9355 13.4795C17.9325 13.4826 17.9288 13.4852 17.9258 13.4883L17.7959 13.6182C17.7928 13.6212 17.7902 13.6249 17.7871 13.6279C17.784 13.631 17.7804 13.6336 17.7773 13.6367L17.7305 13.6836C17.7274 13.6867 17.7248 13.6903 17.7217 13.6934C17.7186 13.6964 17.715 13.6991 17.7119 13.7021L17.6553 13.7588C17.6522 13.7619 17.6496 13.7655 17.6465 13.7686C17.6434 13.7716 17.6398 13.7743 17.6367 13.7773L17.5518 13.8623C17.5487 13.8654 17.5461 13.869 17.543 13.8721C17.5399 13.8751 17.5363 13.8778 17.5332 13.8809L17.5234 13.8906C17.5203 13.8937 17.5177 13.8973 17.5146 13.9004C17.5116 13.9035 17.508 13.9061 17.5049 13.9092L17.4951 13.9189C17.492 13.922 17.4894 13.9256 17.4863 13.9287C17.4832 13.9318 17.4797 13.9344 17.4766 13.9375L17.3916 14.0225C17.3885 14.0256 17.3859 14.0291 17.3828 14.0322C17.3797 14.0353 17.3761 14.0379 17.373 14.041L17.2979 14.1162C17.2948 14.1193 17.2922 14.1229 17.2891 14.126C17.286 14.129 17.2824 14.1317 17.2793 14.1348L17.2324 14.1816C17.2293 14.1847 17.2267 14.1883 17.2236 14.1914C17.2205 14.1945 17.217 14.1971 17.2139 14.2002C17.2108 14.2033 17.2082 14.2069 17.2051 14.21C17.202 14.213 17.1984 14.2157 17.1953 14.2188C17.1922 14.2218 17.1896 14.2254 17.1865 14.2285C17.1834 14.2316 17.1798 14.2342 17.1768 14.2373C17.1737 14.2404 17.171 14.244 17.168 14.2471C17.1649 14.2502 17.1613 14.2528 17.1582 14.2559C17.1551 14.2589 17.1525 14.2625 17.1494 14.2656C17.1463 14.2687 17.1427 14.2713 17.1396 14.2744L17.0938 14.3203C17.0907 14.3234 17.088 14.327 17.085 14.3301C17.0819 14.3331 17.0783 14.3358 17.0752 14.3389L16.9844 14.4297C16.9814 14.4327 16.9786 14.4364 16.9756 14.4395C16.9726 14.4425 16.9688 14.4452 16.9658 14.4482L16.9395 14.4746C16.9365 14.4776 16.9336 14.4814 16.9307 14.4844C16.9277 14.4874 16.9239 14.4902 16.9209 14.4932L16.877 14.5371C16.874 14.5401 16.8711 14.5439 16.8682 14.5469L16.8506 14.5645C16.8476 14.5674 16.8438 14.5703 16.8408 14.5732L16.8232 14.5908C16.8205 14.5936 16.8182 14.5968 16.8154 14.5996L16.7979 14.6172C16.7951 14.62 16.7918 14.6222 16.7891 14.625L16.7451 14.6689C16.7423 14.6717 16.7401 14.675 16.7373 14.6777C16.7345 14.6805 16.7313 14.6828 16.7285 14.6855L16.7109 14.7031C16.7082 14.7059 16.7059 14.7092 16.7031 14.7119C16.7004 14.7147 16.6971 14.717 16.6943 14.7197L16.6602 14.7539C16.6574 14.7567 16.6551 14.7599 16.6523 14.7627C16.6496 14.7655 16.6463 14.7677 16.6436 14.7705L16.5938 14.8203C16.591 14.8231 16.5887 14.8264 16.5859 14.8291C16.5832 14.8318 16.5799 14.8342 16.5771 14.8369L16.5449 14.8691C16.5422 14.8718 16.5398 14.8752 16.5371 14.8779C16.5344 14.8806 16.531 14.8831 16.5283 14.8857L16.5049 14.9092C16.5022 14.9118 16.4997 14.9153 16.4971 14.918L16.4893 14.9258C16.4866 14.9284 16.4831 14.931 16.4805 14.9336L16.4414 14.9727C16.439 14.9751 16.437 14.978 16.4346 14.9805L16.4268 14.9883C16.4243 14.9907 16.4214 14.9927 16.4189 14.9951L16.3955 15.0186C16.3931 15.021 16.3911 15.0239 16.3887 15.0264C16.3862 15.0288 16.3833 15.0308 16.3809 15.0332L16.373 15.041C16.3706 15.0435 16.3686 15.0464 16.3662 15.0488C16.3638 15.0513 16.3608 15.0532 16.3584 15.0557L16.2715 15.1426C16.2691 15.1449 16.267 15.148 16.2646 15.1504C16.2623 15.1527 16.2591 15.1549 16.2568 15.1572L16.1953 15.2188C16.1932 15.2209 16.1915 15.2235 16.1895 15.2256C16.1873 15.2277 16.1847 15.2293 16.1826 15.2314L16.1182 15.2959C16.1161 15.298 16.1144 15.3007 16.1123 15.3027C16.1103 15.3048 16.1075 15.3066 16.1055 15.3086L16.0938 15.3203C16.0917 15.3223 16.0899 15.3251 16.0879 15.3271C16.0859 15.3292 16.0831 15.331 16.0811 15.333L16.0342 15.3799C16.0324 15.3817 16.0311 15.384 16.0293 15.3857C16.0275 15.3875 16.0252 15.3888 16.0234 15.3906L15.9746 15.4395C15.9729 15.4412 15.9715 15.4436 15.9697 15.4453C15.968 15.447 15.9656 15.4485 15.9639 15.4502L15.9492 15.4648C15.9476 15.4665 15.946 15.4691 15.9443 15.4707L15.9297 15.4854C15.9282 15.4868 15.9263 15.4878 15.9248 15.4893L15.9102 15.5039C15.9087 15.5054 15.9077 15.5073 15.9062 15.5088C15.9048 15.5102 15.9028 15.5113 15.9014 15.5127L15.8965 15.5176C15.895 15.519 15.894 15.521 15.8926 15.5225C15.8911 15.5239 15.8892 15.5249 15.8877 15.5264C15.8862 15.5278 15.8852 15.5298 15.8838 15.5312C15.8823 15.5327 15.8803 15.5337 15.8789 15.5352L15.8584 15.5557C15.857 15.557 15.8558 15.5592 15.8545 15.5605L15.8506 15.5645C15.8493 15.5658 15.847 15.5671 15.8457 15.5684L15.8418 15.5723C15.8407 15.5734 15.84 15.575 15.8389 15.5762C15.8377 15.5773 15.8361 15.578 15.835 15.5791L15.8096 15.6045C15.8085 15.6056 15.8077 15.6073 15.8066 15.6084C15.8055 15.6095 15.8038 15.6102 15.8027 15.6113L15.7617 15.6523C15.7609 15.6532 15.7606 15.6545 15.7598 15.6553C15.7589 15.6561 15.7576 15.6564 15.7568 15.6572C15.756 15.658 15.7557 15.6594 15.7549 15.6602C15.7541 15.6609 15.7527 15.6613 15.752 15.6621L15.75 15.6641C15.7492 15.6648 15.7488 15.6663 15.748 15.667C15.7473 15.6677 15.7458 15.6682 15.7451 15.6689L15.7178 15.6963L15.7168 15.6982L15.7148 15.6992L15.7139 15.7002V15.7012L15.7129 15.7021H15.7119L15.707 15.707C15.421 15.993 14.9909 16.0786 14.6172 15.9238C14.2436 15.769 14 15.4044 14 15V3.75C14 3.52772 13.9517 3.29731 13.8662 3.15723C13.8308 3.0994 13.7966 3.06907 13.7646 3.05078C13.734 3.03333 13.6589 3 13.5 3ZM7.5 10.5C7.22386 10.5 7 10.7239 7 11V14C7 14.2761 7.22386 14.5 7.5 14.5C7.77614 14.5 8 14.2761 8 14V11C8 10.7239 7.77614 10.5 7.5 10.5ZM10.5 10.5C10.2239 10.5 10 10.7239 10 11V14C10 14.2761 10.2239 14.5 10.5 14.5C10.7761 14.5 11 14.2761 11 14V11C11 10.7239 10.7761 10.5 10.5 10.5Z" fill="#9E9E9E"/>
</g>
</svg>
