<svg width="24" height="24" viewBox="0 0 24 24" fill="none" xmlns="http://www.w3.org/2000/svg">
<g id="icons/Hands/six">
<path id="Union" d="M20.2501 1C21.7688 1.00016 23.0001 2.23131 23.0001 3.75V14.4834C23.0001 15.5958 22.7956 16.8105 22.1124 17.8701C21.4253 18.9357 20.2392 20.4176 18.4786 21.3779C15.4045 23.0547 12.0558 22.8959 9.05286 21.3945C7.47855 20.6073 5.99261 19.0916 4.75208 17.5488C3.49303 15.9829 2.4039 14.283 1.6427 13.0146C0.608708 11.2916 1.19019 9.53821 2.37024 8.59082C3.52315 7.66559 5.35898 7.44475 6.70715 8.79297C6.80994 8.89576 6.90756 8.99337 7.00012 9.08594V8.75C7.00012 7.23126 8.2314 6.00007 9.75012 6C10.2262 6.00005 10.6741 6.12107 11.0646 6.33398C11.567 5.67597 12.3583 5.25004 13.2501 5.25C14.1415 5.25009 14.9313 5.67642 15.4337 6.33398C15.8245 6.12065 16.2735 6.00002 16.7501 6C17.0104 6.00003 17.2615 6.03887 17.5001 6.10645V3.75C17.5001 2.23126 18.7314 1.00007 20.2501 1ZM20.2501 3C19.836 3.00007 19.5001 3.33583 19.5001 3.75V8.75L19.4943 8.85254C19.4429 9.35653 19.0176 9.74985 18.5001 9.75C17.9825 9.74993 17.5563 9.35661 17.505 8.85254L17.5001 8.75L17.4962 8.67285C17.4576 8.29497 17.1382 8.00015 16.7501 8C16.336 8.00007 16.0001 8.33583 16.0001 8.75L15.9943 8.85254C15.9429 9.35653 15.5176 9.74985 15.0001 9.75C14.4825 9.74993 14.0563 9.35661 14.005 8.85254L14.0001 8.75V8C14.0001 7.58588 13.6642 7.25016 13.2501 7.25C12.836 7.25007 12.5001 7.58583 12.5001 8V8.75L12.4943 8.85254C12.4429 9.35653 12.0176 9.74985 11.5001 9.75C10.9825 9.74993 10.5563 9.35661 10.505 8.85254L10.5001 8.75L10.4962 8.67285C10.4576 8.29497 10.1382 8.00015 9.75012 8C9.33597 8.00007 9.00012 8.33583 9.00012 8.75V11.5C9.00012 11.9043 8.7564 12.269 8.38293 12.4238C8.0094 12.5786 7.57913 12.4928 7.29309 12.207H7.29211L7.29114 12.2051C7.2895 12.2035 7.28623 12.2011 7.28235 12.1973C7.27444 12.1894 7.26103 12.1759 7.23938 12.1543C7.19588 12.1108 7.11912 12.0331 6.9845 11.8984C6.71492 11.6289 6.21471 11.1287 5.29309 10.207C4.79785 9.71181 4.13339 9.74098 3.62219 10.1514C3.1383 10.5399 2.89137 11.2085 3.35754 11.9854C4.09663 13.2169 5.13259 14.8297 6.31067 16.2949C7.50715 17.783 8.77101 19.0176 9.94641 19.6055C12.4432 20.8539 15.0949 20.9451 17.5206 19.6221C18.8714 18.8853 19.837 17.7094 20.4318 16.7871C20.8336 16.164 21.0001 15.3734 21.0001 14.4834V3.75C21.0001 3.33588 20.6642 3.00016 20.2501 3Z" fill="#9E9E9E"/>
</g>
</svg>
