<svg width="24" height="24" viewBox="0 0 24 24" fill="none" xmlns="http://www.w3.org/2000/svg">
<g id="icons/Hands/spider-man">
<path id="Union" d="M10.455 1.04297C11.2137 0.60703 12.0256 0.972025 12.3915 1.55469L12.4589 1.67383L17.3075 11.3799C19.2761 13.1968 19.8654 16.2904 18.8602 18.6357C17.8732 20.9382 15.5767 22.9345 12.8729 23.2725C11.4449 23.4508 10.0836 23.0023 9.0575 22.4893C8.02778 21.9744 7.21787 21.3351 6.85046 20.9678C6.58313 20.7005 6.36165 20.4264 6.19226 20.1904C5.75125 19.5757 5.76082 18.7782 6.16589 18.1787C5.66669 17.9199 5.28707 17.4308 5.23523 16.7539C5.13379 15.4262 5.36952 13.4548 6.80457 11.8145C7.20905 11.3521 7.60604 10.9699 7.99109 10.6543C7.14931 9.56524 6.3399 8.37954 5.9364 7.6875C5.12631 6.29779 5.96895 5.07036 6.45105 4.55371L6.57019 4.43945C7.13856 3.9499 7.91185 4.0434 8.40222 4.42773L8.50281 4.51465L9.45691 5.41992C9.26313 4.7285 9.11537 4.16755 9.04675 3.86523C8.69471 2.31333 9.83898 1.39703 10.455 1.04297ZM10.9891 3.25C10.9819 3.28509 10.9781 3.33988 10.9969 3.42285C11.1162 3.94803 11.5486 5.51312 12.0468 7.14941C12.5518 8.80825 13.0863 10.4122 13.4012 11.0674C13.64 11.565 13.43 12.1622 12.9325 12.4014C12.435 12.6402 11.8378 12.4309 11.5985 11.9336C11.329 11.373 10.976 10.3714 10.621 9.27734C10.6005 9.26077 10.5799 9.24402 10.5604 9.22559L7.61121 6.42676C7.60505 6.46125 7.60291 6.49108 7.60535 6.5166C7.60886 6.55244 7.62091 6.60578 7.66394 6.67969C8.21451 7.62403 9.67027 9.68595 10.7294 10.8164C11.1068 11.2194 11.0863 11.8519 10.6835 12.2295C10.2815 12.6058 9.65116 12.5863 9.27332 12.1865C8.97596 12.4287 8.65329 12.7379 8.30945 13.1309C7.43718 14.1279 7.20019 15.3411 7.21765 16.2998C7.4788 16.187 7.71084 16.0725 7.86804 15.9678C7.99622 15.8823 8.03811 15.8264 8.05066 15.8076C8.06187 15.7908 8.07763 15.7621 8.09558 15.6816C8.12102 15.5672 8.12796 15.4746 8.16296 15.2354C8.19371 15.0253 8.24093 14.7604 8.33972 14.4639C8.83206 12.9876 10.5935 12.2729 12.1268 12.6562C13.706 13.0512 14.615 14.3016 14.6151 15.6455C14.615 16.7689 14.1259 18.216 12.5604 18.875C11.758 19.2127 11.115 19.2192 10.4735 19.083C10.1941 19.0237 9.90416 18.9342 9.65515 18.8613C9.39181 18.7843 9.12069 18.7089 8.80359 18.6455C8.7761 18.64 8.66374 18.6348 8.43347 18.7754C8.26316 18.8795 8.0913 19.0251 7.93738 19.1797C8.03343 19.3019 8.14225 19.4315 8.26453 19.5537L8.49792 19.7617C8.80382 20.0146 9.31773 20.3835 9.95105 20.7002C10.7994 21.1244 11.746 21.3978 12.6249 21.2881C14.5358 21.0492 16.2784 19.583 17.0223 17.8477C17.7203 16.219 17.2574 13.9728 15.8573 12.7656C15.7555 12.6803 15.6685 12.5736 15.6053 12.4473L10.9969 3.22363C10.9941 3.23265 10.9909 3.24157 10.9891 3.25ZM11.6415 14.5967C10.8674 14.4032 10.3209 14.8425 10.2362 15.0967C10.191 15.2324 10.1657 15.3654 10.1425 15.5244C10.1235 15.6542 10.0943 15.9056 10.0477 16.1152C9.99996 16.33 9.91875 16.5705 9.77234 16.8174C9.93452 16.8598 10.0827 16.9029 10.2177 16.9424C10.5128 17.0288 10.7038 17.0877 10.8885 17.127C11.1754 17.1879 11.398 17.1937 11.7841 17.0312C12.374 16.7829 12.615 16.2525 12.6151 15.6455C12.615 15.2589 12.3695 14.7787 11.6415 14.5967Z" fill="#9E9E9E"/>
</g>
</svg>
