<svg width="24" height="24" viewBox="0 0 24 24" fill="none" xmlns="http://www.w3.org/2000/svg">
<g id="icons/Hands/swing">
<path id="Union" d="M10.2889 5.00684C10.9131 3.92597 12.2959 3.5558 13.3768 4.17969C13.6803 4.35488 13.9251 4.59206 14.1102 4.86328C14.6497 4.73724 15.2361 4.80565 15.7538 5.10449C16.271 5.40318 16.6224 5.87649 16.7831 6.40625C17.1108 6.43087 17.4384 6.52496 17.7421 6.7002C18.6187 7.20633 19.0276 8.21112 18.8182 9.14941C18.9311 9.19219 19.0433 9.24239 19.1512 9.30469C20.231 9.9283 20.6023 11.3084 19.9813 12.3896L15.3964 20.3701V20.3711C15.371 20.4152 15.3374 20.4733 15.2958 20.5381L15.1464 20.7461C14.7284 21.2622 13.4543 22.5 10.9999 22.5C8.32029 22.5 5.55323 20.9848 4.13171 18.4961C3.51614 17.4183 3.25497 15.9792 3.12781 14.3594C2.99896 12.7181 2.99969 10.7365 2.99988 8.5C3.00003 7.22714 3.88335 6.35368 4.92859 6.14453C5.96993 5.93624 7.11816 6.37463 7.83191 7.44531C8.03127 7.74441 8.18226 8.11455 8.29871 8.45312L10.2889 5.00684ZM12.3768 5.91211C12.2524 5.84035 12.0932 5.88272 12.0214 6.00684L8.77429 11.6318C8.5621 11.9994 8.14062 12.1935 7.72351 12.1152C7.35873 12.0468 7.0667 11.7831 6.95593 11.4375L6.9198 11.2842C6.91966 11.2835 6.91908 11.2819 6.91882 11.2803C6.9183 11.2768 6.91804 11.271 6.91687 11.2637C6.91447 11.2487 6.9101 11.2259 6.90515 11.1963C6.89514 11.1363 6.8801 11.048 6.86023 10.9395C6.82032 10.7215 6.76176 10.4236 6.68738 10.1035C6.61254 9.78153 6.52417 9.44921 6.42664 9.15723C6.32378 8.84939 6.2315 8.65024 6.16785 8.55469C5.88178 8.1256 5.52969 8.06383 5.32117 8.10547C5.2085 8.12801 5.13034 8.1798 5.08386 8.2334C5.04319 8.28041 4.99991 8.35832 4.99988 8.5C4.99969 10.7633 5.00058 12.657 5.12195 14.2031C5.24501 15.7705 5.48421 16.8317 5.86804 17.5039C6.92487 19.3542 9.02051 20.5 10.9999 20.5C12.6888 20.5 13.438 19.677 13.5917 19.4873C13.5992 19.478 13.6155 19.4549 13.662 19.374L18.2469 11.3936C18.3187 11.2685 18.276 11.1082 18.1512 11.0361C18.0262 10.964 17.8661 11.0077 17.7938 11.1328C17.5176 11.6109 16.9058 11.7742 16.4276 11.498C15.9494 11.2219 15.7853 10.6101 16.0614 10.1318L16.8378 8.78809C16.9096 8.66361 16.8665 8.50445 16.7421 8.43262C16.6177 8.36101 16.4585 8.40307 16.3866 8.52734C16.1105 9.00552 15.4996 9.16948 15.0214 8.89355C14.5431 8.61739 14.379 8.00561 14.6552 7.52734L14.8485 7.19141C14.92 7.06717 14.8779 6.90884 14.7538 6.83691C14.6294 6.76513 14.4702 6.80734 14.3983 6.93164L14.204 7.26758C13.9278 7.74574 13.316 7.90991 12.8378 7.63379C12.3596 7.35758 12.1964 6.7458 12.4725 6.26758C12.5443 6.14313 12.5012 5.98393 12.3768 5.91211ZM17.6171 2.03027C17.8764 1.54284 18.4821 1.35799 18.9696 1.61719C19.6222 1.96427 20.9227 2.58163 21.8319 3.94531C22.4667 4.89747 22.7382 6.09219 22.8885 7.38477C22.9522 7.93323 22.5591 8.42936 22.0106 8.49316C21.4622 8.55679 20.966 8.16372 20.9022 7.61523C20.7618 6.40807 20.533 5.60245 20.1678 5.05469C19.5826 4.17694 18.7563 3.76904 18.0302 3.38281C17.5428 3.12338 17.3578 2.51778 17.6171 2.03027Z" fill="#9E9E9E"/>
</g>
</svg>
