<svg width="24" height="24" viewBox="0 0 24 24" fill="none" xmlns="http://www.w3.org/2000/svg">
<g id="icons/Hands/three">
<path id="Union" d="M8.8573 1.74121C9.49761 1.21098 10.4123 1.16003 11.1073 1.61621L11.2528 1.72168L11.4227 1.85742C11.9072 2.24501 12.2312 2.79948 12.33 3.41211L12.5643 4.86914L12.6942 3.53516V3.53418C12.7594 2.86245 13.0929 2.24506 13.62 1.82324L13.7235 1.74121C14.4443 1.16459 15.4636 1.18182 16.162 1.75977L16.2977 1.88281L16.4569 2.05957C16.8065 2.4864 16.9999 3.02347 16.9999 3.58008V9.87891C17.0293 9.99684 17.1 10.2466 17.2382 10.4951C17.4031 10.7916 17.598 10.979 17.8163 11.0518C18.1882 11.1757 18.4648 11.4507 18.6229 11.624C18.8103 11.8295 18.9916 12.0761 19.1561 12.3223C19.4869 12.8173 19.814 13.4065 20.0721 13.8994V13.9004C20.6094 14.9266 20.5462 16.1251 20.0077 17.0947V17.0957L18.1239 20.4854C18.0897 20.5469 18.0492 20.6052 18.0028 20.6582L17.2499 20C17.9507 20.6132 17.9989 20.6559 18.0018 20.6592L18.0009 20.6602L17.9999 20.6621C17.9987 20.6634 17.9973 20.6655 17.996 20.667C17.9931 20.6701 17.9889 20.6737 17.9852 20.6777C17.9778 20.6859 17.9688 20.6964 17.9579 20.708C17.9355 20.7318 17.9053 20.7632 17.868 20.7998C17.7934 20.8732 17.6879 20.9702 17.5516 21.083C17.2788 21.3088 16.8794 21.5981 16.3456 21.8828C15.2726 22.455 13.674 23 11.4999 23C9.39165 23 7.83446 22.6487 6.72644 22.167C5.65228 21.6999 4.91696 21.0704 4.60535 20.4473C4.60075 20.4381 4.59696 20.4283 4.59265 20.4189L2.48816 15.8604C1.76619 14.2955 2.29067 12.4375 3.72449 11.4814L4.67664 10.8467C4.7311 10.8104 4.7879 10.7785 4.84558 10.75L4.0741 5.10742C3.99719 4.54437 4.1454 3.97315 4.48621 3.51855L4.60242 3.37891C5.21162 2.71836 6.2342 2.61347 6.96863 3.16406L7.03601 3.21387C7.40051 3.48732 7.67501 3.86421 7.8241 4.29492L8.1405 5.20996L8.04187 3.67285C7.9985 2.9991 8.24724 2.33872 8.72449 1.86133L8.8573 1.74121ZM14.87 3.38477C14.791 3.44798 14.7332 3.53358 14.704 3.62891L14.6844 3.72754L14.0204 10.5898C13.9565 11.2478 13.4033 11.75 12.7421 11.75C12.1124 11.7499 11.5751 11.293 11.4745 10.6709L10.3553 3.73047C10.3356 3.60809 10.2705 3.49745 10.1737 3.41992L10.0839 3.34766C10.0498 3.40654 10.0326 3.47477 10.037 3.54395L10.4784 10.3867C10.5258 11.1251 9.9399 11.75 9.20007 11.75C8.6544 11.7499 8.16888 11.404 7.99011 10.8887V10.8877L6.16003 5.60449L6.99109 11.6768C7.04358 12.0611 6.86858 12.4417 6.54285 12.6523C6.23339 12.8523 5.84183 12.863 5.52136 12.6875L4.83386 13.1455C4.21936 13.5553 3.99508 14.3518 4.30457 15.0225L6.39539 19.5547C6.39949 19.5617 6.41531 19.5879 6.45105 19.6299C6.49393 19.6803 6.55885 19.7462 6.65125 19.8223C6.83637 19.9747 7.11961 20.1571 7.52429 20.333C8.33283 20.6845 9.60877 21 11.4999 21C13.325 21 14.6021 20.5458 15.4042 20.1182C15.8075 19.903 16.096 19.6911 16.2762 19.542C16.3497 19.4812 16.4045 19.4296 16.4423 19.3936L18.2596 16.124C18.4956 15.6993 18.503 15.2149 18.3007 14.8281C18.0545 14.3582 17.7656 13.8414 17.493 13.4336C17.3558 13.2282 17.2378 13.073 17.1454 12.9717C17.1197 12.9435 17.0994 12.9248 17.0858 12.9121C16.2672 12.6042 15.7716 11.973 15.4901 11.4668C15.1947 10.9355 15.0704 10.4313 15.0321 10.2549C15.008 10.1436 14.9999 10.042 14.9999 9.95605V3.58008C14.9999 3.49434 14.9711 3.41194 14.9208 3.34375L14.87 3.38477ZM16.5018 19.3359C16.5012 19.3366 16.4996 19.3381 16.4989 19.3389C16.4996 19.3381 16.5011 19.3375 16.5018 19.3369C16.5032 19.3354 16.5044 19.3344 16.5048 19.334C16.5042 19.3343 16.5028 19.3349 16.5018 19.3359Z" fill="#9E9E9E"/>
</g>
</svg>
