<svg width="24" height="24" viewBox="0 0 24 24" fill="none" xmlns="http://www.w3.org/2000/svg">
<g id="icons/Hands/three-three">
<path id="Union" d="M11.625 0.5C12.3918 0.500007 13.0796 0.831129 13.5596 1.35547C13.9466 1.13064 14.3952 1.00004 14.875 1C16.3247 1.00001 17.5 2.17526 17.5 3.625V8.32812C17.7005 8.27907 17.9094 8.25002 18.125 8.25C19.5747 8.25001 20.75 9.42527 20.75 10.875V15.9844C20.75 17.0103 20.4407 18.0126 19.8613 18.8594L19.374 19.5703C17.9057 21.7164 15.4724 23 12.8721 23H12.4248C9.48254 22.9999 6.73843 21.5167 5.12598 19.0557L4.02832 17.3809C2.97245 15.7693 3.28405 13.6225 4.75488 12.3779L5.75 11.5361V3.625C5.75 2.17533 6.92538 1.00013 8.375 1C8.85471 1 9.30346 1.13073 9.69043 1.35547C10.1703 0.831043 10.8581 0.500071 11.625 0.5ZM11.625 2.5C11.2799 2.50013 11 2.77991 11 3.125V3.625C11 4.17728 10.5523 4.62499 10 4.625C9.44783 4.62487 9 4.1772 9 3.625C9 3.27984 8.72016 3.00001 8.375 3C8.02994 3.00013 7.75 3.27991 7.75 3.625V11.7305C7.75 12.1954 7.54545 12.637 7.19043 12.9375L6.04688 13.9053C5.34734 14.4972 5.1991 15.5176 5.70117 16.2842L6.79883 17.96C8.04171 19.857 10.1569 20.9999 12.4248 21H12.8721C14.8122 21 16.6281 20.0426 17.7236 18.4414L18.21 17.7295C18.5617 17.2155 18.75 16.6073 18.75 15.9844V10.875C18.75 10.5298 18.4702 10.25 18.125 10.25C17.7799 10.2501 17.5 10.5299 17.5 10.875C17.5 11.4273 17.0523 11.875 16.5 11.875C15.9478 11.8749 15.5 11.4272 15.5 10.875V3.625C15.5 3.27984 15.2202 3.00001 14.875 3C14.5299 3.00013 14.25 3.27991 14.25 3.625C14.25 4.17728 13.8023 4.62499 13.25 4.625C12.6978 4.62487 12.25 4.1772 12.25 3.625V3.125C12.25 2.77984 11.9702 2.50001 11.625 2.5Z" fill="#9E9E9E"/>
</g>
</svg>
