<svg width="24" height="24" viewBox="0 0 24 24" fill="none" xmlns="http://www.w3.org/2000/svg">
<g id="icons/Hands/thumbs-down">
<path id="Union" d="M18.8933 2V2.00098C20.447 1.98244 21.7725 3.12448 21.9812 4.66602C21.9872 4.71044 21.99 4.75595 21.99 4.80078V11.1006C21.99 11.1453 21.9872 11.19 21.9812 11.2344C21.7817 12.7094 20.5111 14.0178 18.8933 13.999V14H17.0955L13.8035 21.4062C13.643 21.7671 13.2853 21.9998 12.8904 22C10.8471 21.9998 9.19019 20.3432 9.19019 18.2998V15.7002H4.78979V15.6992C3.9726 15.7051 3.19344 15.3542 2.65698 14.7373C2.11813 14.1175 1.87766 13.2924 2.00073 12.4805L2.00171 12.4785L3.24292 4.37988C3.45181 3.0033 4.64085 1.99091 6.03198 2.00098V2H18.8933ZM6.02026 4C5.62175 3.99582 5.28038 4.28567 5.22046 4.67969V4.68164L3.97827 12.7812C3.94347 13.0128 4.01227 13.2481 4.16577 13.4248C4.31964 13.6017 4.54371 13.7026 4.77808 13.7002H10.1902C10.7423 13.7004 11.1902 14.148 11.1902 14.7002V18.2998C11.1902 19.0267 11.6471 19.6456 12.2888 19.8887L15.49 12.6875V4H6.02026ZM17.49 12H18.8933L18.9109 12.001C19.3804 12.0092 19.8875 11.5978 19.99 11.0137V4.88379C19.8952 4.36744 19.4408 3.99074 18.9109 4H17.49V12Z" fill="#9E9E9E"/>
</g>
</svg>
