<svg width="24" height="24" viewBox="0 0 24 24" fill="none" xmlns="http://www.w3.org/2000/svg">
<g id="icons/Hands/thumbs-up">
<path id="Union" d="M11.0996 2C13.1431 2 14.7998 3.65674 14.7998 5.7002V8.2998H19.2002C20.0175 8.29389 20.7965 8.64579 21.333 9.2627C21.872 9.88259 22.1116 10.7083 21.9883 11.5205V11.5215L20.7461 19.6191C20.5373 20.996 19.3493 22.0092 17.958 21.999V22H5.09668V21.999C3.54295 22.0176 2.21732 20.8757 2.00879 19.334C2.00279 19.2896 2.00001 19.2449 2 19.2002V12.9004L2.00879 12.7656C2.20845 11.2905 3.47914 9.98218 5.09668 10.001L6.89355 10L10.1865 2.59375L10.2549 2.46484C10.4363 2.17828 10.7538 2.00013 11.0996 2ZM5.0791 12C4.60968 11.9918 4.10297 12.4021 4 12.9854V19.1152C4.09428 19.6322 4.54879 20.0093 5.0791 20H6.5V12H5.0791ZM8.5 11.3115V20H17.9697C18.3684 20.0043 18.7097 19.7145 18.7695 19.3203V19.3184L20.0117 11.2188C20.0465 10.9872 19.9778 10.752 19.8242 10.5752C19.6702 10.398 19.4456 10.2971 19.2109 10.2998H13.7998C13.2476 10.2997 12.7998 9.85202 12.7998 9.2998V5.7002C12.7998 4.97274 12.3427 4.35304 11.7002 4.11035L8.5 11.3115Z" fill="#9E9E9E"/>
</g>
</svg>
