<svg width="24" height="24" viewBox="0 0 24 24" fill="none" xmlns="http://www.w3.org/2000/svg">
<g id="icons/Hands/turn-on">
<path id="Union" d="M10.25 6.5C11.4926 6.50001 12.5 7.50739 12.5 8.75V9.51465C12.5821 9.50555 12.6655 9.50002 12.75 9.5C13.5626 9.50001 14.2725 9.93244 14.668 10.5781C14.8538 10.5284 15.0486 10.5 15.25 10.5C16.0626 10.5 16.7725 10.9324 17.168 11.5781C17.3538 11.5284 17.5486 11.5 17.75 11.5C18.9926 11.5 20 12.5074 20 13.75V17.6836C20 18.2912 19.8687 18.9358 19.5332 19.5166L19.377 19.7617C18.8483 20.5112 17.7935 21.8193 16.3945 22.4189C15.4251 22.8344 14.4648 23.078 13.4229 23.0879C12.3861 23.0977 11.3246 22.8756 10.1504 22.4365C8.72891 21.9049 7.51 20.7725 6.55762 19.6357C5.59057 18.4815 4.81643 17.223 4.30664 16.3076C3.62345 15.0806 4.00586 13.6154 5.03711 12.79C5.89712 12.1021 7.03909 11.9752 8 12.3838V8.75C8.00002 7.50754 9.00759 6.50025 10.25 6.5ZM10.25 8.5C10.1122 8.50025 10 8.61211 10 8.75V14.5C10 14.9045 9.75647 15.269 9.38281 15.4238C9.0092 15.5785 8.5789 15.493 8.29297 15.207L7.50488 14.4189C7.17531 14.0895 6.65104 14.0605 6.28711 14.3516C5.95183 14.6198 5.88548 15.0329 6.05371 15.335C6.53032 16.1907 7.23513 17.3302 8.09082 18.3516C8.96111 19.3903 9.90926 20.2114 10.8506 20.5635C11.8612 20.9414 12.675 21.0948 13.4043 21.0879C14.1284 21.081 14.826 20.9155 15.6064 20.5811C16.4621 20.2143 17.2473 19.311 17.7422 18.6094C17.9072 18.3754 18 18.0594 18 17.6836V13.75C18 13.612 17.888 13.5 17.75 13.5C17.6122 13.5003 17.5 13.6121 17.5 13.75C17.5 14.3023 17.0523 14.75 16.5 14.75C15.9479 14.7497 15.5 14.3021 15.5 13.75V12.75C15.5 12.612 15.388 12.5 15.25 12.5C15.1122 12.5003 15 12.6121 15 12.75C15 13.3023 14.5523 13.75 14 13.75C13.4479 13.7497 13 13.3021 13 12.75V11.75C13 11.612 12.888 11.5 12.75 11.5C12.6122 11.5003 12.5 11.6121 12.5 11.75C12.5 12.3023 12.0523 12.75 11.5 12.75C10.9479 12.7497 10.5 12.3021 10.5 11.75V8.75C10.5 8.61196 10.388 8.50001 10.25 8.5ZM5.29297 3.79297C5.68349 3.40247 6.31652 3.40246 6.70703 3.79297L8.20703 5.29297C8.59755 5.68348 8.59753 6.3165 8.20703 6.70703C7.81651 7.09756 7.18349 7.09756 6.79297 6.70703L5.29297 5.20703C4.90245 4.81651 4.90245 4.18349 5.29297 3.79297ZM12.668 3.44531C12.9743 2.98581 13.5952 2.86162 14.0547 3.16797C14.5142 3.47431 14.6384 4.09516 14.332 4.55469L13.332 6.05469C13.0257 6.51422 12.4048 6.63838 11.9453 6.33203C11.4858 6.02568 11.3616 5.40484 11.668 4.94531L12.668 3.44531ZM9.33594 1.01367C9.88057 0.923091 10.3955 1.2913 10.4863 1.83594L10.9863 4.83594C11.0769 5.38058 10.7087 5.89554 10.1641 5.98633C9.61941 6.07693 9.10445 5.70873 9.01367 5.16406L8.51367 2.16406C8.42309 1.61942 8.79128 1.10445 9.33594 1.01367Z" fill="#9E9E9E"/>
</g>
</svg>
