<svg width="24" height="24" viewBox="0 0 24 24" fill="none" xmlns="http://www.w3.org/2000/svg">
<g id="icons/Hands/two-hands">
<path id="Union" d="M2.00586 2.01465C2.55814 2.01465 3.00586 2.46236 3.00586 3.01465V12.4902C3.0058 12.4728 3.00213 12.5622 3.15234 12.7842C3.29944 13.0015 3.5501 13.2808 3.93848 13.6211C4.71491 14.3013 5.92326 15.1236 7.59961 16.0879C7.91752 16.2708 8.10978 16.6128 8.10059 16.9795L8.02344 20.0186L9.34766 20.0439L9.21387 15.7129L5.40723 12.7939C5.23093 12.6587 5.10507 12.4679 5.04883 12.2529L4.53223 10.2783C4.39267 9.74426 4.71216 9.19854 5.24609 9.05859C5.78038 8.91881 6.327 9.23818 6.4668 9.77246L6.89648 11.415L10.8086 14.4141L10.8936 14.4873C11.0807 14.6674 11.1912 14.9152 11.1992 15.1777L11.3789 21.0332C11.3873 21.3067 11.2831 21.5719 11.0908 21.7666C10.8984 21.9613 10.6341 22.0686 10.3604 22.0635L6.98047 22C6.71432 21.9949 6.46141 21.8837 6.27734 21.6914C6.09334 21.4991 5.99345 21.2416 6 20.9756L6.08594 17.5186C4.61247 16.6472 3.44851 15.8499 2.62109 15.125C2.16038 14.7214 1.77359 14.3153 1.49609 13.9053C1.22285 13.5015 1.00586 13.0204 1.00586 12.4902V3.01465C1.00586 2.46236 1.45357 2.01465 2.00586 2.01465ZM22.0039 2.0293C22.5562 2.0293 23.0039 2.47701 23.0039 3.0293V12C23.0039 12.5302 22.782 13.0139 22.5117 13.4189C22.2345 13.8343 21.847 14.2553 21.3818 14.6816C20.5402 15.453 19.35 16.3226 17.8369 17.291L17.998 20.9561C18.0101 21.2296 17.9096 21.4961 17.7197 21.6934C17.5297 21.8906 17.2671 22.0017 16.9932 22L13.6738 21.9785C13.1259 21.975 12.6832 21.5313 12.6807 20.9834L12.6553 15.124C12.654 14.8022 12.8078 14.4995 13.0684 14.3105L17.126 11.3711L17.5293 9.74707C17.6624 9.2111 18.2043 8.88457 18.7402 9.01758C19.2762 9.15065 19.6027 9.69255 19.4697 10.2285L18.9785 12.208C18.9216 12.4368 18.7856 12.6381 18.5947 12.7764L14.6572 15.6279L14.6758 19.9844L15.9531 19.9932L15.8145 16.8008C15.7988 16.4409 15.9778 16.1002 16.2832 15.9092C17.9935 14.8395 19.2322 13.9393 20.0312 13.207C20.431 12.8407 20.6923 12.5414 20.8477 12.3086C21.0099 12.0655 21.0039 11.9734 21.0039 12V3.0293C21.0039 2.47712 21.4518 2.02947 22.0039 2.0293Z" fill="#9E9E9E"/>
</g>
</svg>
