<svg width="24" height="24" viewBox="0 0 24 24" fill="none" xmlns="http://www.w3.org/2000/svg">
<g id="icons/Hands/two-fingers">
<path id="Union" d="M11.5039 1C12.8889 1.00003 14.0117 2.12288 14.0117 3.50781V8.0498C14.1696 8.01853 14.3329 8.00195 14.5 8.00195C15.5614 8.00195 16.4654 8.66452 16.8281 9.59766C17.0406 9.53876 17.2639 9.50491 17.4951 9.50488H17.5C18.8807 9.50488 20 10.6241 20 12.0049V18.5303C20 20.5269 18.3138 23 15.4707 23H9.73047C8.14037 22.9998 6.70035 21.8257 5.74512 20.6387C4.77334 19.4311 4 17.8378 4 16.5C4.00007 14.9289 4.50961 13.5943 5.71777 12.7666C5.80377 12.7077 5.89559 12.6637 5.99023 12.6348V5.50293C5.99023 4.12291 7.10919 3.00391 8.48926 3.00391C8.49063 3.00391 8.49384 3.00389 8.49707 3.00391L8.49609 3.00488C8.6816 3.00541 8.8622 3.02673 9.03613 3.06543C9.24518 1.89151 10.2699 1 11.5039 1ZM11.5039 3C11.2235 3 10.9961 3.2274 10.9961 3.50781V12.2959C10.996 12.8481 10.5483 13.2959 9.99609 13.2959C9.44386 13.2959 8.99617 12.8481 8.99609 12.2959V5.51074C8.99595 5.23137 8.76967 5.00468 8.49023 5.00391H8.48926C8.21383 5.00391 7.99023 5.22741 7.99023 5.50293V14.7227C7.99007 15.2748 7.54242 15.7227 6.99023 15.7227C6.655 15.7227 6.35917 15.557 6.17773 15.3037C6.06397 15.6179 6.00003 16.0096 6 16.5C6 17.1923 6.47085 18.3498 7.30371 19.3848C8.15278 20.4397 9.07759 20.9998 9.73047 21H15.4707C17.0189 21 18 19.6229 18 18.5303V12.0049C18 11.7287 17.7762 11.5049 17.5 11.5049H17.4951C17.2218 11.5051 17.0002 11.7266 17 12V12.002C17 12.5542 16.5523 13.002 16 13.002C15.4477 13.002 15 12.5542 15 12.002V10.502C15 10.2258 14.7761 10.002 14.5 10.002C14.2607 10.002 14.0609 10.17 14.0117 10.3945V12.0039C14.0117 12.5561 13.5639 13.0038 13.0117 13.0039C12.4594 13.0039 12.0117 12.5562 12.0117 12.0039V12.002C12.0049 11.955 12 11.9072 12 11.8584V10.502C12 10.4222 12.0044 10.3434 12.0117 10.2656V3.50781C12.0117 3.22738 11.7843 3.00003 11.5039 3Z" fill="#9E9E9E"/>
</g>
</svg>
