<svg width="24" height="24" viewBox="0 0 24 24" fill="none" xmlns="http://www.w3.org/2000/svg">
<g id="icons/Hands/two-two">
<path id="Union" d="M12.125 0.5C13.5747 0.50002 14.75 1.67526 14.75 3.125V6.32812C14.9505 6.27907 15.1594 6.25002 15.375 6.25C16.642 6.25002 17.6999 7.14771 17.9463 8.3418C18.163 8.28386 18.39 8.25002 18.625 8.25C20.0747 8.25002 21.25 9.42528 21.25 10.875V15.9844C21.25 17.0103 20.9407 18.0126 20.3613 18.8594L19.874 19.5703C18.4057 21.7164 15.9724 23 13.3721 23H12.9248C9.98254 22.9999 7.23843 21.5167 5.62598 19.0557L4.52832 17.3809C3.47248 15.7693 3.78405 13.6225 5.25488 12.3779L6.25 11.5361V3.625C6.25 2.17533 7.42539 1.00014 8.875 1C9.35471 1.00001 9.80346 1.13074 10.1904 1.35547C10.6703 0.831046 11.3581 0.500072 12.125 0.5ZM12.125 2.5C11.7799 2.50014 11.5 2.77991 11.5 3.125V3.625C11.5 4.17727 11.0523 4.62498 10.5 4.625C9.94783 4.62486 9.5 4.1772 9.5 3.625C9.5 3.27984 9.22015 3.00002 8.875 3C8.52994 3.00014 8.25 3.27991 8.25 3.625V11.7305C8.25 12.1954 8.04544 12.637 7.69043 12.9375L6.54688 13.9053C5.84734 14.4972 5.69911 15.5176 6.20117 16.2842L7.29883 17.96L7.54199 18.3066C8.80678 19.9953 10.7987 20.9999 12.9248 21H13.3721C15.3122 21 17.1281 20.0426 18.2236 18.4414L18.71 17.7295C19.0617 17.2155 19.25 16.6073 19.25 15.9844V10.875C19.25 10.5298 18.9701 10.25 18.625 10.25C18.28 10.2501 18 10.5299 18 10.875C18 11.4273 17.5523 11.875 17 11.875C16.4478 11.8749 16 11.4272 16 10.875V8.875C16 8.52985 15.7201 8.25002 15.375 8.25C15.03 8.25014 14.75 8.52992 14.75 8.875C14.75 9.42727 14.3023 9.87498 13.75 9.875C13.1978 9.87486 12.75 9.4272 12.75 8.875V3.125C12.75 2.77984 12.4702 2.50002 12.125 2.5Z" fill="#9E9E9E"/>
</g>
</svg>
