<svg width="24" height="24" viewBox="0 0 24 24" fill="none" xmlns="http://www.w3.org/2000/svg">
<g id="icons/Hands/two">
<path id="Union" d="M8.8717 1.72559C9.50292 1.20322 10.4054 1.15304 11.0905 1.60254L11.233 1.70703L11.4225 1.8584C11.9067 2.24585 12.2299 2.79978 12.3287 3.41211L12.5631 4.86914L12.693 3.53516C12.7581 2.86318 13.0924 2.24512 13.6198 1.82324L13.7223 1.74121H13.7233C14.4921 1.12628 15.6002 1.18782 16.2965 1.88379C16.7463 2.33359 16.9996 2.94393 16.9996 3.58008V13.6699L17.8746 12.9697C18.5724 12.4115 19.3735 12.343 20.0367 12.459C20.6818 12.5719 21.2602 12.8654 21.6744 13.1367C22.4419 13.6394 22.4742 14.6135 22.027 15.2188L18.0533 20.5947C18.037 20.6168 18.0196 20.6385 18.0016 20.6592L17.2496 20L18.0016 20.6602L17.9948 20.667C17.992 20.6701 17.9886 20.6737 17.985 20.6777C17.9775 20.686 17.9678 20.6962 17.9567 20.708C17.9343 20.7318 17.9042 20.7631 17.8668 20.7998C17.7922 20.8731 17.6875 20.9704 17.5514 21.083C17.2786 21.3088 16.8791 21.5981 16.3453 21.8828C15.2724 22.455 13.6738 23 11.4996 23C9.39139 23 7.83325 22.6497 6.72522 22.168C5.65127 21.7009 4.91664 21.0703 4.6051 20.4473C4.6006 20.4383 4.59564 20.429 4.59143 20.4199L2.53772 15.9707C1.78541 14.3402 2.38922 12.4038 3.93518 11.4902L6.70569 9.85352L6.85901 9.77051C7.45838 9.4704 8.14796 9.42692 8.77307 9.63672L8.08069 3.74707C7.99832 3.04574 8.24158 2.34407 8.74084 1.84473L8.8717 1.72559ZM14.8688 3.38477V3.38574C14.7637 3.46999 14.6963 3.5933 14.6832 3.72754L14.0192 10.5898C13.9555 11.2478 13.403 11.7498 12.7418 11.75C12.112 11.7498 11.5737 11.2933 11.4733 10.6709L10.3541 3.73047C10.3343 3.60838 10.2701 3.49733 10.1735 3.41992L10.0914 3.35449C10.07 3.40371 10.0607 3.45804 10.067 3.5127L10.8707 10.3496C11.0174 11.5991 9.65336 12.463 8.58655 11.7969L8.58557 11.7959L8.2428 11.582C8.10422 11.4956 7.93287 11.4821 7.78479 11.5439L7.72327 11.5752L4.95276 13.2119C4.29041 13.6034 4.03203 14.4332 4.35413 15.1318L6.39417 19.5527L6.45081 19.6299C6.49363 19.6802 6.55882 19.7463 6.651 19.8223C6.83604 19.9746 7.11878 20.1572 7.52307 20.333C8.33159 20.6845 9.60825 21 11.4996 21C13.325 21 14.602 20.5459 15.4039 20.1182C15.8073 19.903 16.0958 19.6921 16.276 19.543C16.366 19.4685 16.4288 19.409 16.4655 19.373C16.472 19.3666 16.4772 19.3604 16.4821 19.3555L20.0455 14.5342C19.9257 14.4875 19.8065 14.4497 19.692 14.4297C19.4209 14.3823 19.2521 14.4285 19.1237 14.5312L17.4362 15.8818C16.4532 16.6679 14.9996 15.9667 14.9996 14.71V3.58008C14.9996 3.49425 14.97 3.41195 14.9196 3.34375L14.8688 3.38477Z" fill="#9E9E9E"/>
</g>
</svg>
