<svg width="24" height="24" viewBox="0 0 24 24" fill="none" xmlns="http://www.w3.org/2000/svg">
<g id="icons/Hands/yep">
<path id="Union" d="M12.1172 0.5C13.7169 0.500165 14.9668 1.88178 14.8076 3.47363L14.5039 6.5C15.6898 6.51175 16.7084 7.20764 17.1943 8.20996C17.5194 8.07471 17.876 8 18.25 8C19.7688 8 21 9.23122 21 10.75V16.0742C21 16.4108 20.97 16.8318 20.8086 17.2588C20.4399 18.2345 19.3675 20.2274 16.4961 21.8682C13.7908 23.4141 10.3 23.2682 7.55273 21.8945C6.14505 21.1907 4.89963 20.0788 4.00195 18.8359C3.11224 17.604 2.5 16.1519 2.5 14.75C2.5 14.1321 2.75864 13.6151 3.06738 13.2207C3.37347 12.8298 3.76624 12.5094 4.14453 12.2539C4.73938 11.8522 5.39865 11.5459 5.88965 11.3447L4.80469 4.10254C4.5599 2.469 5.82463 1 7.47656 1C8.3622 1.00002 9.15475 1.4298 9.64941 2.09961C10.0732 1.15364 11.0218 0.5 12.1172 0.5ZM12.1172 2.5C11.7427 2.5 11.4338 2.79313 11.4141 3.16699L10.999 11.0527C10.9716 11.5725 10.5496 11.9848 10.0293 12C9.50884 12.0151 9.06336 11.6278 9.00586 11.1104L8.1748 3.625C8.13528 3.2694 7.83432 3.00003 7.47656 3C7.04731 3 6.71855 3.38208 6.78223 3.80664L7.92578 11.4287C8.02899 12.1161 7.651 12.7494 7.06738 13.0264L6.94824 13.0771C6.515 13.2393 5.82637 13.5311 5.26367 13.9111C4.98255 14.101 4.7736 14.2867 4.64258 14.4541C4.51419 14.6181 4.5 14.7121 4.5 14.75C4.5 15.598 4.88792 16.6461 5.62305 17.6641C6.35035 18.6711 7.35508 19.5594 8.44727 20.1055C10.7 21.2318 13.4731 21.2923 15.5039 20.1318C17.9193 18.7517 18.7114 17.1529 18.9385 16.5518C18.9772 16.4493 19 16.3037 19 16.0742V10.75C19 10.3358 18.6642 10 18.25 10C17.8358 10 17.5 10.3358 17.5 10.75C17.5 11.3023 17.0523 11.75 16.5 11.75C15.9477 11.75 15.5 11.3023 15.5 10.75V9.52637C15.4998 8.95962 15.0404 8.50018 14.4736 8.5C14.3782 8.5 14.2978 8.57216 14.2881 8.66699C14.2327 9.21634 13.7427 9.61765 13.1934 9.5625C12.6441 9.50735 12.2431 9.01706 12.2979 8.46777L12.8174 3.27441C12.8588 2.85998 12.5336 2.50017 12.1172 2.5Z" fill="#9E9E9E"/>
</g>
</svg>
