<svg width="24" height="24" viewBox="0 0 24 24" fill="none" xmlns="http://www.w3.org/2000/svg">
<g id="icons/Hands/zoom">
<path id="Union" d="M12.25 6C13.4926 6.00001 14.5 7.00737 14.5 8.25V10.0146C14.5821 10.0056 14.6655 10 14.75 10C15.7413 10 16.581 10.642 16.8809 11.5322C17.0011 11.5123 17.1242 11.5 17.25 11.5C18.4926 11.5 19.5 12.5074 19.5 13.75V17.6836C19.5 18.2912 19.3687 18.9358 19.0332 19.5166L18.877 19.7617C18.3483 20.5112 17.2935 21.8193 15.8945 22.4189C14.9251 22.8344 13.9648 23.078 12.9229 23.0879C11.8861 23.0977 10.8246 22.8756 9.65039 22.4365C8.22893 21.9049 7.01 20.7725 6.05762 19.6357C5.09059 18.4815 4.31643 17.223 3.80664 16.3076C3.12344 15.0806 3.50587 13.6154 4.53711 12.79C5.39712 12.1021 6.53908 11.9752 7.5 12.3838V10.25C7.5 9.00752 8.50758 8.00025 9.75 8C9.83838 8 9.92599 8.00571 10.0117 8.01562C10.1289 6.88324 11.0867 6.00024 12.25 6ZM12.25 8C12.1122 8.00025 12 8.11209 12 8.25V10.25C12 10.8022 11.5522 11.25 11 11.25C10.448 11.2497 10 10.8021 10 10.25C10 10.1119 9.88806 10 9.75 10C9.61215 10.0003 9.5 10.1121 9.5 10.25V14.5C9.49997 14.9044 9.25646 15.2691 8.88281 15.4238C8.50922 15.5784 8.0789 15.4929 7.79297 15.207L7.00488 14.4189C6.6753 14.0895 6.15104 14.0605 5.78711 14.3516C5.45184 14.6198 5.38547 15.0329 5.55371 15.335C6.03031 16.1907 6.73515 17.3302 7.59082 18.3516C8.4611 19.3903 9.40928 20.2114 10.3506 20.5635C11.3612 20.9414 12.175 21.0948 12.9043 21.0879C13.6284 21.081 14.326 20.9155 15.1064 20.5811C15.9621 20.2143 16.7473 19.311 17.2422 18.6094C17.4072 18.3754 17.5 18.0594 17.5 17.6836V13.75C17.5 13.6119 17.3881 13.5 17.25 13.5C17.1122 13.5003 17 13.6121 17 13.75C17 14.3022 16.5522 14.75 16 14.75C15.448 14.7497 15 14.3021 15 13.75V12.25C15 12.1119 14.8881 12 14.75 12C14.6122 12.0003 14.5 12.1121 14.5 12.25C14.5 12.8022 14.0522 13.25 13.5 13.25C12.948 13.2497 12.5 12.8021 12.5 12.25V8.25C12.5 8.11194 12.3881 8.00001 12.25 8ZM14.793 1.29297C15.1835 0.902444 15.8165 0.902444 16.207 1.29297L18.207 3.29297C18.2548 3.34078 18.2976 3.39354 18.335 3.4502C18.3597 3.48768 18.3812 3.52661 18.4004 3.56641C18.4222 3.61159 18.4412 3.65838 18.4561 3.70703C18.4623 3.72732 18.4668 3.74799 18.4717 3.76855C18.4893 3.84291 18.5 3.92025 18.5 4C18.5 4.083 18.4878 4.16313 18.4688 4.24023C18.4646 4.25717 18.4611 4.27428 18.4561 4.29102C18.4412 4.34001 18.4223 4.38713 18.4004 4.43262C18.3804 4.47428 18.3572 4.51458 18.3311 4.55371C18.3185 4.57256 18.3048 4.59048 18.291 4.6084C18.2649 4.64221 18.238 4.67604 18.207 4.70703L16.207 6.70703C15.8165 7.09751 15.1835 7.0975 14.793 6.70703C14.4025 6.31652 14.4025 5.6835 14.793 5.29297L15.0859 5H8.91406L9.20703 5.29297C9.59752 5.68348 9.59752 6.31651 9.20703 6.70703C8.81653 7.09743 8.18347 7.09745 7.79297 6.70703L5.79297 4.70703C5.73497 4.64903 5.68613 4.58377 5.64453 4.51465C5.55375 4.3641 5.50001 4.18861 5.5 4C5.5 3.72387 5.61202 3.47393 5.79297 3.29297L7.79297 1.29297C8.18349 0.902444 8.81651 0.902444 9.20703 1.29297C9.59751 1.6835 9.59754 2.31652 9.20703 2.70703L8.91406 3H15.0859L14.793 2.70703C14.4025 2.31652 14.4025 1.6835 14.793 1.29297Z" fill="#9E9E9E"/>
</g>
</svg>
