<svg width="24" height="24" viewBox="0 0 24 24" fill="none" xmlns="http://www.w3.org/2000/svg">
<g id="icons/Weather/cloudy">
<path id="Union" d="M13 14C15.2091 14 17 15.7909 17 18C17 20.2091 15.2091 22 13 22C10.7909 22 9 20.2091 9 18C9 15.7909 10.7909 14 13 14ZM13 16C11.8954 16 11 16.8954 11 18C11 19.1046 11.8954 20 13 20C14.1046 20 15 19.1046 15 18C15 16.8954 14.1046 16 13 16ZM8.81836 2C12.0559 2.00007 14.8174 3.99613 16.0078 6.82422C16.4695 6.69782 16.9541 6.62797 17.4541 6.62793C20.5338 6.62793 23 9.16548 23 12.2568C23 14.556 21.6401 16.5418 19.6797 17.4141C19.1751 17.6386 18.5839 17.4109 18.3594 16.9062C18.1349 16.4017 18.3616 15.8104 18.8662 15.5859C20.1163 15.0297 21 13.7534 21 12.2568C21 10.2358 19.3952 8.62793 17.4541 8.62793C16.8792 8.628 16.3381 8.76733 15.8594 9.01465C15.5901 9.15372 15.2722 9.16383 14.9951 9.04102C14.7182 8.91815 14.5123 8.67567 14.4346 8.38281C13.7611 5.84589 11.491 4.00007 8.81836 4C5.62206 4 3.00009 6.64338 3 9.94238C3 11.8933 3.91906 13.6202 5.33496 14.7031C5.7734 15.0387 5.85691 15.6659 5.52148 16.1045C5.18597 16.5432 4.5588 16.6265 4.12012 16.291C2.22389 14.8407 1 12.5342 1 9.94238C1.00009 5.57304 4.48357 2 8.81836 2ZM9 6C10.1043 6 11.1054 6.44909 11.8281 7.17188C12.2186 7.56242 12.2187 8.19543 11.8281 8.58594C11.4376 8.97626 10.8045 8.97639 10.4141 8.58594C10.0511 8.22294 9.55258 8 9 8C7.89543 8 7 8.89543 7 10C7 10.5526 7.22294 11.0511 7.58594 11.4141C7.97639 11.8045 7.97626 12.4376 7.58594 12.8281C7.19543 13.2187 6.56242 13.2186 6.17188 12.8281C5.44909 12.1054 5 11.1043 5 10C5 7.79087 6.79087 6 9 6Z" fill="#9E9E9E"/>
</g>
</svg>
