<svg width="24" height="24" viewBox="0 0 24 24" fill="none" xmlns="http://www.w3.org/2000/svg">
<g id="icons/Weather/fog">
<path id="Union" d="M10 20C10.5523 20 11 20.4477 11 21C11 21.5523 10.5523 22 10 22H5C4.44772 22 4 21.5523 4 21C4 20.4477 4.44772 20 5 20H10ZM19 20C19.5523 20 20 20.4477 20 21C20 21.5523 19.5523 22 19 22H14C13.4477 22 13 21.5523 13 21C13 20.4477 13.4477 20 14 20H19ZM14 16C14.5523 16 15 16.4477 15 17C15 17.5523 14.5523 18 14 18H10C9.44771 18 9 17.5523 9 17C9 16.4477 9.44771 16 10 16H14ZM8.81836 2C12.0559 2.00007 14.8174 3.99613 16.0078 6.82422C16.4695 6.69782 16.9541 6.62797 17.4541 6.62793C20.5338 6.62793 23 9.16548 23 12.2568C23 14.556 21.6401 16.5418 19.6797 17.4141C19.1751 17.6386 18.5839 17.4109 18.3594 16.9062C18.1349 16.4017 18.3616 15.8104 18.8662 15.5859C20.1163 15.0297 21 13.7534 21 12.2568C21 10.2358 19.3952 8.62793 17.4541 8.62793C16.8792 8.628 16.3381 8.76733 15.8594 9.01465C15.5901 9.15372 15.2722 9.16383 14.9951 9.04102C14.7182 8.91815 14.5123 8.67567 14.4346 8.38281C13.7611 5.84589 11.491 4.00007 8.81836 4C5.62206 4 3.00009 6.64338 3 9.94238C3 11.8933 3.91906 13.6202 5.33496 14.7031C5.7734 15.0387 5.85691 15.6659 5.52148 16.1045C5.18597 16.5432 4.5588 16.6265 4.12012 16.291C2.22389 14.8407 1 12.5342 1 9.94238C1.00009 5.57304 4.48357 2 8.81836 2ZM17 12C17.5523 12 18 12.4477 18 13C18 13.5523 17.5523 14 17 14H13C12.4477 14 12 13.5523 12 13C12 12.4477 12.4477 12 13 12H17ZM9 6C10.1043 6 11.1054 6.44909 11.8281 7.17188C12.2186 7.56242 12.2187 8.19543 11.8281 8.58594C11.4376 8.97626 10.8045 8.97639 10.4141 8.58594C10.0511 8.22294 9.55258 8 9 8C7.89543 8 7 8.89543 7 10C7 10.5526 7.22294 11.0511 7.58594 11.4141C7.97639 11.8045 7.97626 12.4376 7.58594 12.8281C7.19543 13.2187 6.56242 13.2186 6.17188 12.8281C5.44909 12.1054 5 11.1043 5 10C5 7.79087 6.79087 6 9 6Z" fill="#9E9E9E"/>
</g>
</svg>
