<svg width="24" height="24" viewBox="0 0 24 24" fill="none" xmlns="http://www.w3.org/2000/svg">
<g id="icons/Weather/heavy-wind">
<path id="Union" d="M8.81836 2C12.0559 2.00007 14.8174 3.99613 16.0078 6.82422C16.4695 6.69782 16.9541 6.62797 17.4541 6.62793C20.5338 6.62793 23 9.16548 23 12.2568C23 14.4634 21.7472 16.3809 19.9141 17.3027C19.6289 17.4461 19.3315 17.5 19.0605 17.5H6C5.44772 17.5 5 17.9477 5 18.5C5 19.0523 5.44772 19.5 6 19.5H7.5C8.05228 19.5 8.5 19.9477 8.5 20.5C8.5 21.0523 8.05228 21.5 7.5 21.5H6C4.34314 21.5 3 20.1568 3 18.5C3 16.8432 4.34314 15.5 6 15.5H19.0439C20.1995 14.9054 21 13.6809 21 12.2568C21 10.2358 19.3952 8.62793 17.4541 8.62793C16.8792 8.628 16.3381 8.76733 15.8594 9.01465C15.5901 9.15372 15.2722 9.16383 14.9951 9.04102C14.7182 8.91815 14.5123 8.67567 14.4346 8.38281C13.7611 5.84589 11.491 4.00007 8.81836 4C5.62206 4 3.00009 6.64338 3 9.94238C3 10.4947 2.55228 10.9424 2 10.9424C1.44772 10.9424 1 10.4947 1 9.94238C1.00009 5.57304 4.48357 2 8.81836 2ZM11 8C11.5523 8 12 8.44772 12 9C12 9.55228 11.5523 10 11 10H9.5C8.94773 10 8.5 10.4477 8.5 11C8.5 11.5523 8.94773 12 9.5 12H16C16.5523 12 17 12.4477 17 13C17 13.5523 16.5523 14 16 14H9.5C7.84317 14 6.5 12.6568 6.5 11C6.5 9.34317 7.84317 8 9.5 8H11Z" fill="#9E9E9E"/>
</g>
</svg>
