<svg width="24" height="24" viewBox="0 0 24 24" fill="none" xmlns="http://www.w3.org/2000/svg">
<g id="icons/Weather/light-rain">
<path id="Union" d="M12 18C12.5523 18 13 18.4477 13 19V21C13 21.5523 12.5523 22 12 22C11.4477 22 11 21.5523 11 21V19C11 18.4477 11.4477 18 12 18ZM8 16C8.55228 16 9 16.4477 9 17V19C9 19.5523 8.55228 20 8 20C7.44772 20 7 19.5523 7 19V17C7 16.4477 7.44772 16 8 16ZM16 16C16.5523 16 17 16.4477 17 17V19C17 19.5523 16.5523 20 16 20C15.4477 20 15 19.5523 15 19V17C15 16.4477 15.4477 16 16 16ZM8.81836 2C12.0559 2.00007 14.8174 3.99613 16.0078 6.82422C16.4695 6.69782 16.9541 6.62797 17.4541 6.62793C20.5338 6.62793 23 9.16548 23 12.2568C23 14.556 21.6401 16.5418 19.6797 17.4141C19.1751 17.6386 18.5839 17.4109 18.3594 16.9062C18.1349 16.4017 18.3616 15.8104 18.8662 15.5859C20.1163 15.0297 21 13.7534 21 12.2568C21 10.2358 19.3952 8.62793 17.4541 8.62793C16.8792 8.628 16.3381 8.76733 15.8594 9.01465C15.5901 9.15372 15.2722 9.16383 14.9951 9.04102C14.7182 8.91815 14.5123 8.67567 14.4346 8.38281C13.7611 5.84589 11.491 4.00007 8.81836 4C5.62206 4 3.00009 6.64338 3 9.94238C3 11.8933 3.91906 13.6202 5.33496 14.7031C5.7734 15.0387 5.85691 15.6659 5.52148 16.1045C5.18597 16.5432 4.5588 16.6265 4.12012 16.291C2.22389 14.8407 1 12.5342 1 9.94238C1.00009 5.57304 4.48357 2 8.81836 2ZM12 12.5C12.5523 12.5 13 12.9477 13 13.5V15.5C13 16.0523 12.5523 16.5 12 16.5C11.4477 16.5 11 16.0523 11 15.5V13.5C11 12.9477 11.4477 12.5 12 12.5ZM8 10.5C8.55228 10.5 9 10.9477 9 11.5V13.5C9 14.0523 8.55228 14.5 8 14.5C7.44772 14.5 7 14.0523 7 13.5V11.5C7 10.9477 7.44772 10.5 8 10.5ZM16 10.5C16.5523 10.5 17 10.9477 17 11.5V13.5C17 14.0523 16.5523 14.5 16 14.5C15.4477 14.5 15 14.0523 15 13.5V11.5C15 10.9477 15.4477 10.5 16 10.5Z" fill="#9E9E9E"/>
</g>
</svg>
