<svg width="24" height="24" viewBox="0 0 24 24" fill="none" xmlns="http://www.w3.org/2000/svg">
<g id="icons/Weather/moon">
<path id="Union" d="M12 1C12.7622 1 13.5074 1.07739 14.2275 1.22559C14.6828 1.31929 15.0143 1.71502 15.0264 2.17969C15.0383 2.64424 14.728 3.05561 14.2783 3.17285C11.9731 3.77397 10.2726 5.87144 10.2725 8.36328C10.2725 11.3255 12.6745 13.7275 15.6367 13.7275C18.1286 13.7274 20.2261 12.0269 20.8271 9.72168L20.8838 9.55957C21.0474 9.19915 21.4138 8.96316 21.8203 8.97363C22.285 8.98572 22.6807 9.31718 22.7744 9.77246C22.9226 10.4926 23 11.2378 23 12C23 18.0751 18.0751 23 12 23C5.92487 23 1 18.0751 1 12C1 5.92487 5.92487 1 12 1ZM10.4521 3.13477C6.21932 3.86865 3 7.55736 3 12C3 16.9706 7.02943 21 12 21C16.4429 21 20.1307 17.7801 20.8643 13.5469C19.5304 14.8924 17.6819 15.7274 15.6367 15.7275C11.5699 15.7275 8.27246 12.4301 8.27246 8.36328C8.27256 6.31807 9.1066 4.46865 10.4521 3.13477Z" fill="#9E9E9E"/>
</g>
</svg>
