<svg width="24" height="24" viewBox="0 0 24 24" fill="none" xmlns="http://www.w3.org/2000/svg">
<g id="icons/Weather/sandstorm">
<path id="Union" d="M8 20C8.55228 20 9 20.4477 9 21C9 21.5523 8.55228 22 8 22H2C1.44772 22 1 21.5523 1 21C1 20.4477 1.44772 20 2 20H8ZM22 20C22.5523 20 23 20.4477 23 21C23 21.5523 22.5523 22 22 22H16C15.4477 22 15 21.5523 15 21C15 20.4477 15.4477 20 16 20H22ZM5 16.5C5.55228 16.5 6 16.9477 6 17.5C6 18.0523 5.55228 18.5 5 18.5H2C1.44772 18.5 1 18.0523 1 17.5C1 16.9477 1.44772 16.5 2 16.5H5ZM13.5 16.5C14.0523 16.5 14.5 16.9477 14.5 17.5C14.5 18.0523 14.0523 18.5 13.5 18.5H10.5C9.94771 18.5 9.5 18.0523 9.5 17.5C9.5 16.9477 9.94771 16.5 10.5 16.5H13.5ZM22 16.5C22.5523 16.5 23 16.9477 23 17.5C23 18.0523 22.5523 18.5 22 18.5H19C18.4477 18.5 18 18.0523 18 17.5C18 16.9477 18.4477 16.5 19 16.5H22ZM5 13.5C5.55228 13.5 6 13.9477 6 14.5C6 15.0523 5.55228 15.5 5 15.5H2C1.44772 15.5 1 15.0523 1 14.5C1 13.9477 1.44772 13.5 2 13.5H5ZM13.5 13.5C14.0523 13.5 14.5 13.9477 14.5 14.5C14.5 15.0523 14.0523 15.5 13.5 15.5H10.5C9.94771 15.5 9.5 15.0523 9.5 14.5C9.5 13.9477 9.94771 13.5 10.5 13.5H13.5ZM22 13.5C22.5523 13.5 23 13.9477 23 14.5C23 15.0523 22.5523 15.5 22 15.5H19C18.4477 15.5 18 15.0523 18 14.5C18 13.9477 18.4477 13.5 19 13.5H22ZM18 2C20.7614 2 23 4.23858 23 7C23 9.76144 20.7614 12 18 12H2C1.44772 12 1 11.5523 1 11C1 10.4477 1.44772 10 2 10H18C19.6569 10 21 8.65687 21 7C21 5.34314 19.6569 4 18 4C16.3431 4 15 5.34314 15 7C15 7.55228 14.5523 8 14 8C13.4477 8 13 7.55228 13 7C13 4.23858 15.2386 2 18 2Z" fill="#9E9E9E"/>
</g>
</svg>
