<svg width="24" height="24" viewBox="0 0 24 24" fill="none" xmlns="http://www.w3.org/2000/svg">
<g id="icons/Weather/snowflake">
<path id="Union" d="M12.0005 1C12.5526 1.00025 13.0005 1.44787 13.0005 2V4.08594L14.2935 2.79297C14.684 2.40267 15.3171 2.40252 15.7075 2.79297C16.0977 3.18344 16.0977 3.81656 15.7075 4.20703L13.0005 6.91406V10.2676L15.7124 8.70117L17.0522 4.68359C17.2271 4.15993 17.7931 3.87716 18.3169 4.05176C18.8403 4.22666 19.1232 4.79274 18.9487 5.31641L18.3218 7.19531L20.1411 6.14551C20.6194 5.86966 21.2313 6.03355 21.5073 6.51172C21.7832 6.98991 21.6192 7.60178 21.1411 7.87793L19.104 9.05371L21.2173 9.52344C21.7561 9.64341 22.0966 10.1779 21.9771 10.7168C21.8573 11.2557 21.3226 11.596 20.7837 11.4766L16.5405 10.5332L14.0122 11.9932L16.5571 13.4619L20.7837 12.5234C21.3226 12.404 21.8573 12.7443 21.9771 13.2832C22.0966 13.8221 21.7561 14.3566 21.2173 14.4766L19.1187 14.9414L21.1831 16.1338C21.6611 16.41 21.8252 17.0219 21.5493 17.5C21.2732 17.9782 20.6613 18.1421 20.1831 17.8662L18.3169 16.7881L18.9487 18.6836C19.1232 19.2073 18.8403 19.7733 18.3169 19.9482C17.7931 20.1228 17.2271 19.8401 17.0522 19.3164L15.7065 15.2812L13.0005 13.7188V17.0859L15.7075 19.793C16.0977 20.1834 16.0977 20.8166 15.7075 21.207C15.3171 21.5975 14.684 21.5973 14.2935 21.207L13.0005 19.9141V22C13.0005 22.5521 12.5526 22.9998 12.0005 23C11.4482 23 11.0005 22.5523 11.0005 22V19.9141L9.70752 21.207C9.31707 21.5975 8.684 21.5973 8.29346 21.207C7.90293 20.8165 7.90293 20.1835 8.29346 19.793L11.0005 17.0859V13.7324L8.2876 15.2979L6.94873 19.3164C6.77401 19.84 6.20781 20.1226 5.68408 19.9482C5.16033 19.7735 4.87763 19.2074 5.05225 18.6836L5.67725 16.8057L3.85986 17.8555C3.38168 18.1314 2.76982 17.9673 2.49365 17.4893C2.21752 17.011 2.38161 16.3992 2.85986 16.123L4.89697 14.9453L2.78369 14.4766C2.24463 14.3568 1.90425 13.8223 2.02393 13.2832C2.14376 12.7442 2.67825 12.4038 3.21729 12.5234L7.45947 13.4658L10.0112 11.9932L7.47607 10.5293L3.21729 11.4766C2.67825 11.5962 2.14376 11.2558 2.02393 10.7168C1.90425 10.1777 2.24463 9.64323 2.78369 9.52344L4.9126 9.0498L2.86279 7.86621C2.38453 7.59008 2.2205 6.97828 2.49658 6.5C2.77276 6.02189 3.38458 5.85775 3.86279 6.13379L5.67236 7.17773L5.05225 5.31641C4.87763 4.79256 5.16033 4.22652 5.68408 4.05176C6.20781 3.87743 6.77401 4.15997 6.94873 4.68359L8.28174 8.68457L11.0005 10.2539V6.91406L8.29346 4.20703C7.90293 3.81651 7.90293 3.18349 8.29346 2.79297C8.684 2.40267 9.31707 2.40252 9.70752 2.79297L11.0005 4.08594V2C11.0005 1.44772 11.4482 1 12.0005 1Z" fill="#9E9E9E"/>
</g>
</svg>
