<svg width="24" height="24" viewBox="0 0 24 24" fill="none" xmlns="http://www.w3.org/2000/svg">
<g id="icons/Weather/snow">
<path id="Union" d="M12 17C12.5523 17 13 17.4477 13 18V18.5H13.5C14.0523 18.5 14.5 18.9477 14.5 19.5C14.5 20.0523 14.0523 20.5 13.5 20.5H13V21C13 21.5523 12.5523 22 12 22C11.4477 22 11 21.5523 11 21V20.5H10.5C9.94771 20.5 9.5 20.0523 9.5 19.5C9.5 18.9477 9.94771 18.5 10.5 18.5H11V18C11 17.4477 11.4477 17 12 17ZM8.81836 2C12.0559 2.00007 14.8174 3.99613 16.0078 6.82422C16.4695 6.69782 16.9541 6.62797 17.4541 6.62793C20.5338 6.62793 23 9.16548 23 12.2568C23 14.556 21.6401 16.5418 19.6797 17.4141C19.1751 17.6386 18.5839 17.4109 18.3594 16.9062C18.1349 16.4017 18.3616 15.8104 18.8662 15.5859C20.1163 15.0297 21 13.7534 21 12.2568C21 10.2358 19.3952 8.62793 17.4541 8.62793C16.8792 8.628 16.3381 8.76733 15.8594 9.01465C15.5901 9.15372 15.2722 9.16383 14.9951 9.04102C14.7182 8.91815 14.5123 8.67567 14.4346 8.38281C13.7611 5.84589 11.491 4.00007 8.81836 4C5.62206 4 3.00009 6.64338 3 9.94238C3 11.8933 3.91906 13.6202 5.33496 14.7031C5.7734 15.0387 5.85691 15.6659 5.52148 16.1045C5.18597 16.5432 4.5588 16.6265 4.12012 16.291C2.22389 14.8407 1 12.5342 1 9.94238C1.00009 5.57304 4.48357 2 8.81836 2ZM15.5 12C16.0523 12 16.5 12.4477 16.5 13V13.5H17C17.5523 13.5 18 13.9477 18 14.5C18 15.0523 17.5523 15.5 17 15.5H16.5V16C16.5 16.5523 16.0523 17 15.5 17C14.9477 17 14.5 16.5523 14.5 16V15.5H14C13.4477 15.5 13 15.0523 13 14.5C13 13.9477 13.4477 13.5 14 13.5H14.5V13C14.5 12.4477 14.9477 12 15.5 12ZM9 10.5C9.55229 10.5 10 10.9477 10 11.5V12H10.5C11.0523 12 11.5 12.4477 11.5 13C11.5 13.5523 11.0523 14 10.5 14H10V14.5C10 15.0523 9.55229 15.5 9 15.5C8.44772 15.5 8 15.0523 8 14.5V14H7.5C6.94772 14 6.5 13.5523 6.5 13C6.5 12.4477 6.94772 12 7.5 12H8V11.5C8 10.9477 8.44772 10.5 9 10.5Z" fill="#9E9E9E"/>
</g>
</svg>
