<svg width="24" height="24" viewBox="0 0 24 24" fill="none" xmlns="http://www.w3.org/2000/svg">
<g id="icons/Weather/sun" clip-path="url(#clip0_56_4568)">
<path id="Union" d="M12 19.9248C12.5523 19.9248 13 20.3725 13 20.9248V22.5C12.9999 23.0522 12.5522 23.5 12 23.5C11.4478 23.5 11.0001 23.0522 11 22.5V20.9248C11 20.3725 11.4477 19.9248 12 19.9248ZM4.98145 17.6045C5.37197 17.214 6.00596 17.214 6.39648 17.6045C6.78664 17.9949 6.78664 18.6281 6.39648 19.0186L5.28223 20.1328C4.89177 20.523 4.25862 20.523 3.86816 20.1328C3.47764 19.7423 3.47764 19.1083 3.86816 18.7178L4.98145 17.6045ZM17.6045 17.6035C17.995 17.213 18.628 17.213 19.0186 17.6035L20.1328 18.7168C20.5233 19.1073 20.5233 19.7413 20.1328 20.1318C19.7423 20.5223 19.1083 20.5223 18.7178 20.1318L17.6045 19.0176C17.214 18.6271 17.214 17.994 17.6045 17.6035ZM12 5C15.866 5 19 8.13402 19 12C19 15.866 15.866 19 12 19C8.13402 19 5 15.866 5 12C5 8.13402 8.13402 5 12 5ZM3.0752 11C3.62739 11.0001 4.0752 11.4478 4.0752 12C4.0752 12.5522 3.62739 12.9999 3.0752 13H1.5C0.947715 13 0.5 12.5523 0.5 12C0.5 11.4477 0.947715 11 1.5 11H3.0752ZM22.5 11C23.0522 11.0001 23.5 11.4478 23.5 12C23.5 12.5522 23.0522 12.9999 22.5 13H20.9248C20.3725 13 19.9248 12.5523 19.9248 12C19.9248 11.4477 20.3725 11 20.9248 11H22.5ZM3.86816 3.86816C4.25869 3.47764 4.8917 3.47764 5.28223 3.86816L6.39648 4.98145C6.78695 5.37197 6.78699 6.00598 6.39648 6.39648C6.00598 6.78699 5.37197 6.78695 4.98145 6.39648L3.86816 5.28223C3.47764 4.8917 3.47764 4.25869 3.86816 3.86816ZM18.7178 3.86816C19.1083 3.47764 19.7423 3.47764 20.1328 3.86816C20.523 4.25862 20.523 4.89177 20.1328 5.28223L19.0186 6.39648C18.6281 6.78664 17.9949 6.78664 17.6045 6.39648C17.214 6.00596 17.214 5.37197 17.6045 4.98145L18.7178 3.86816ZM12 0.5C12.5523 0.5 13 0.947715 13 1.5V3.0752C12.9999 3.62739 12.5522 4.0752 12 4.0752C11.4478 4.0752 11.0001 3.62739 11 3.0752V1.5C11 0.947715 11.4477 0.5 12 0.5Z" fill="#9E9E9E"/>
</g>
<defs>
<clipPath id="clip0_56_4568">
<rect width="24" height="24" fill="white"/>
</clipPath>
</defs>
</svg>
