<svg width="24" height="24" viewBox="0 0 24 24" fill="none" xmlns="http://www.w3.org/2000/svg">
<g id="icons/Weather/sunny">
<path id="Union" d="M15.3916 4.5C17.8167 4.50016 19.7822 6.46647 19.7822 8.8916C19.7822 9.80602 19.5017 10.6544 19.0234 11.3574C21.3303 12.0463 23 14.2135 23 16.7568C23 19.056 21.6401 21.0418 19.6797 21.9141C19.1751 22.1386 18.5839 21.9109 18.3594 21.4062C18.1349 20.9017 18.3616 20.3104 18.8662 20.0859C20.1163 19.5297 21 18.2534 21 16.7568C21 14.7358 19.3952 13.1279 17.4541 13.1279C16.8792 13.128 16.3381 13.2673 15.8594 13.5146C15.5901 13.6537 15.2722 13.6638 14.9951 13.541C14.7182 13.4181 14.5123 13.1757 14.4346 12.8828C13.7611 10.3459 11.491 8.50007 8.81836 8.5C5.62206 8.5 3.00009 11.1434 3 14.4424C3 16.3933 3.91906 18.1202 5.33496 19.2031C5.7734 19.5387 5.85691 20.1659 5.52148 20.6045C5.18597 21.0432 4.5588 21.1265 4.12012 20.791C2.22389 19.3407 1 17.0342 1 14.4424C1.00009 10.073 4.48357 6.5 8.81836 6.5C9.74195 6.50002 10.6266 6.66306 11.4473 6.96094C12.1619 5.50365 13.6587 4.5 15.3916 4.5ZM9 10.5C10.1043 10.5 11.1054 10.9491 11.8281 11.6719C12.2186 12.0624 12.2187 12.6954 11.8281 13.0859C11.4376 13.4763 10.8045 13.4764 10.4141 13.0859C10.0511 12.7229 9.55258 12.5 9 12.5C7.89543 12.5 7 13.3954 7 14.5C7 15.0526 7.22294 15.5511 7.58594 15.9141C7.97639 16.3045 7.97626 16.9376 7.58594 17.3281C7.19543 17.7187 6.56242 17.7186 6.17188 17.3281C5.44909 16.6054 5 15.6043 5 14.5C5 12.2909 6.79087 10.5 9 10.5ZM15.3916 6.5C14.4323 6.5 13.6025 7.06498 13.2217 7.88086C14.4128 8.70852 15.3652 9.86154 15.958 11.2109C17.0045 10.9562 17.7821 10.0166 17.7822 8.8916C17.7822 7.57104 16.7121 6.50016 15.3916 6.5ZM22 8.5C22.5523 8.5 23 8.9477 23 9.5C23 10.0523 22.5523 10.5 22 10.5C21.4477 10.5 21 10.0523 21 9.5C21 8.9477 21.4477 8.5 22 8.5ZM21 4C21.5523 4 22 4.44772 22 5C22 5.5523 21.5523 6 21 6C20.4477 6 20 5.5523 20 5C20 4.44772 20.4477 4 21 4ZM11 3C11.5523 3 12 3.44772 12 4C12 4.55228 11.5523 5 11 5C10.4477 5 10 4.55228 10 4C10 3.44772 10.4477 3 11 3ZM16.5 1.5C17.0523 1.5 17.5 1.94771 17.5 2.5C17.5 3.05228 17.0523 3.5 16.5 3.5C15.9477 3.5 15.5 3.05228 15.5 2.5C15.5 1.94771 15.9477 1.5 16.5 1.5Z" fill="#9E9E9E"/>
</g>
</svg>
