<svg width="24" height="24" viewBox="0 0 24 24" fill="none" xmlns="http://www.w3.org/2000/svg">
<g id="icons/Weather/thunderstorm-one">
<path id="Union" d="M15.2539 9.00977C15.5681 9.05294 15.8466 9.24314 15.999 9.52734C16.1731 9.85221 16.1543 10.2468 15.9502 10.5537L14.0869 13.3545L16.2432 13.8955C16.5799 13.9799 16.8485 14.2334 16.9531 14.5645C17.0576 14.8954 16.9838 15.257 16.7568 15.5195L11.0215 22.1543C10.7188 22.5044 10.2146 22.6009 9.80371 22.3877C9.39306 22.1744 9.18198 21.7068 9.29395 21.2578L10.3496 17.0254L8.3584 16.7402C8.06913 16.6988 7.81186 16.5329 7.65527 16.2861C7.49877 16.0395 7.45836 15.7363 7.54395 15.457L9.30859 9.70703C9.43747 9.28711 9.8254 9.00002 10.2646 9H15.1172L15.2539 9.00977ZM9.79883 14.9248L11.7305 15.2021C12.0103 15.2423 12.2601 15.3993 12.418 15.6338C12.5759 15.8686 12.6271 16.16 12.5586 16.4346L12.249 17.6738L14.1807 15.4395L12.2275 14.9512C11.9125 14.8722 11.6554 14.6447 11.5381 14.3418C11.4208 14.0388 11.4578 13.6973 11.6377 13.4268L13.252 11H11.0039L9.79883 14.9248ZM8.81836 1.5C12.0559 1.50007 14.8174 3.49612 16.0078 6.32422C16.4695 6.19782 16.9541 6.12797 17.4541 6.12793C20.5338 6.12793 23 8.66548 23 11.7568C23 14.056 21.6401 16.0418 19.6797 16.9141C19.1751 17.1386 18.5839 16.9109 18.3594 16.4062C18.1349 15.9017 18.3616 15.3104 18.8662 15.0859C20.1163 14.5297 21 13.2534 21 11.7568C21 9.73579 19.3952 8.12793 17.4541 8.12793C16.8792 8.128 16.3381 8.26733 15.8594 8.51465C15.5901 8.65372 15.2722 8.66383 14.9951 8.54102C14.7182 8.41815 14.5123 8.17568 14.4346 7.88281C13.7611 5.34588 11.491 3.50007 8.81836 3.5C5.62206 3.5 3.00009 6.14338 3 9.44238C3 11.3933 3.91906 13.1202 5.33496 14.2031C5.7734 14.5387 5.85691 15.1659 5.52148 15.6045C5.18597 16.0432 4.5588 16.1265 4.12012 15.791C2.22389 14.3407 1 12.0342 1 9.44238C1.00009 5.07304 4.48357 1.5 8.81836 1.5Z" fill="#9E9E9E"/>
</g>
</svg>
