<svg width="24" height="24" viewBox="0 0 24 24" fill="none" xmlns="http://www.w3.org/2000/svg">
<g id="icons/Weather/thunderstorm">
<path id="Union" d="M16 18.5859C16.3905 18.1955 17.0236 18.1955 17.4141 18.5859C17.8045 18.9764 17.8045 19.6095 17.4141 20L16 21.4141C15.6095 21.8046 14.9765 21.8045 14.5859 21.4141C14.1955 21.0235 14.1954 20.3905 14.5859 20L16 18.5859ZM12.793 11.293C13.1835 10.9026 13.8165 10.9025 14.207 11.293C14.5974 11.6835 14.5974 12.3165 14.207 12.707L11.9141 15.001H14.502C14.9065 15.001 15.271 15.2444 15.4258 15.6182C15.5805 15.9919 15.495 16.4221 15.209 16.708L11.207 20.708C10.8165 21.0984 10.1834 21.0985 9.79297 20.708C9.4026 20.3175 9.40262 19.6844 9.79297 19.2939L12.0869 17.001H9.5C9.0957 17.001 8.73106 16.7572 8.57617 16.3838C8.4214 16.0102 8.50711 15.58 8.79297 15.2939L12.793 11.293ZM8.81836 2C12.0559 2.00007 14.8174 3.99613 16.0078 6.82422C16.4695 6.69782 16.9541 6.62797 17.4541 6.62793C20.5338 6.62793 23 9.16548 23 12.2568C23 14.556 21.6401 16.5418 19.6797 17.4141C19.1751 17.6386 18.5839 17.4109 18.3594 16.9062C18.1349 16.4017 18.3616 15.8104 18.8662 15.5859C20.1163 15.0297 21 13.7534 21 12.2568C21 10.2358 19.3952 8.62793 17.4541 8.62793C16.8792 8.628 16.3381 8.76733 15.8594 9.01465C15.5901 9.15372 15.2722 9.16383 14.9951 9.04102C14.7182 8.91815 14.5123 8.67567 14.4346 8.38281C13.7611 5.84589 11.491 4.00007 8.81836 4C5.62206 4 3.00009 6.64338 3 9.94238C3 11.8933 3.91906 13.6202 5.33496 14.7031C5.7734 15.0387 5.85691 15.6659 5.52148 16.1045C5.18597 16.5432 4.5588 16.6265 4.12012 16.291C2.22389 14.8407 1 12.5342 1 9.94238C1.00009 5.57304 4.48357 2 8.81836 2ZM8 10.5859C8.3905 10.1955 9.02355 10.1955 9.41406 10.5859C9.80451 10.9764 9.80451 11.6095 9.41406 12L8 13.4141C7.6095 13.8046 6.97647 13.8045 6.58594 13.4141C6.19551 13.0235 6.19544 12.3905 6.58594 12L8 10.5859Z" fill="#9E9E9E"/>
</g>
</svg>
