<svg width="24" height="24" viewBox="0 0 24 24" fill="none" xmlns="http://www.w3.org/2000/svg">
<g id="icons/Weather/wind">
<path id="Union" d="M17 15.5C17.5523 15.5 18 15.9477 18 16.5C18 17.0523 17.5523 17.5 17 17.5H9.5C8.94773 17.5 8.5 17.9477 8.5 18.5C8.5 19.0523 8.94773 19.5 9.5 19.5H11C11.5523 19.5 12 19.9477 12 20.5C12 21.0523 11.5523 21.5 11 21.5H9.5C7.84317 21.5 6.5 20.1568 6.5 18.5C6.5 16.8432 7.84317 15.5 9.5 15.5H17ZM6 7.5C6.55228 7.5 7 7.94772 7 8.5C7 9.05228 6.55228 9.5 6 9.5H5C4.44772 9.5 4 9.94773 4 10.5C4 11.0523 4.44772 11.5 5 11.5H21C21.5523 11.5 22 11.9477 22 12.5C22 13.0523 21.5523 13.5 21 13.5H5C3.34314 13.5 2 12.1568 2 10.5C2 8.84317 3.34314 7.5 5 7.5H6ZM13.5 2.5C14.0523 2.5 14.5 2.94772 14.5 3.5C14.5 4.05228 14.0523 4.5 13.5 4.5H12C11.4477 4.5 11 4.94772 11 5.5C11 6.05227 11.4477 6.5 12 6.5H20C20.5523 6.5 21 6.94772 21 7.5C21 8.05228 20.5523 8.5 20 8.5H12C10.3432 8.5 9 7.15683 9 5.5C9 3.84314 10.3432 2.5 12 2.5H13.5Z" fill="#9E9E9E"/>
</g>
</svg>
