<svg width="24" height="24" viewBox="0 0 24 24" fill="none" xmlns="http://www.w3.org/2000/svg">
<g id="icons/Time/alarm-clock">
<path id="Union" d="M12.0002 2.83301C17.615 2.83319 22.1662 7.38523 22.1662 13C22.1659 18.6146 17.6148 23.1658 12.0002 23.166C6.3855 23.166 1.83345 18.6146 1.83319 13C1.83319 7.38515 6.38534 2.83306 12.0002 2.83301ZM12.0002 4.83301C7.48991 4.83306 3.83319 8.48971 3.83319 13C3.83345 17.5101 7.49007 21.166 12.0002 21.166C16.5102 21.1658 20.1659 17.51 20.1662 13C20.1662 8.4898 16.5104 4.83319 12.0002 4.83301ZM11.8801 6.67676C12.4322 6.67696 12.8801 7.12461 12.8801 7.67676L12.8791 12.7666L16.4719 16.3604C16.8623 16.7509 16.8624 17.3839 16.4719 17.7744C16.0813 18.1646 15.4482 18.1648 15.0578 17.7744L11.1721 13.8887C10.9845 13.7011 10.8791 13.4459 10.8791 13.1807L10.8801 7.67676C10.8801 7.12448 11.3278 6.67671 11.8801 6.67676ZM4.91913 1.18652C5.36854 0.86554 5.99266 0.969542 6.31366 1.41895C6.63451 1.86834 6.53057 2.4925 6.08124 2.81348L2.58124 5.31348C2.13188 5.63444 1.50775 5.53032 1.18671 5.08105C0.865698 4.63164 0.969716 4.00753 1.41913 3.68652L4.91913 1.18652ZM17.6867 1.41895C18.0077 0.969533 18.6318 0.865514 19.0812 1.18652L22.5812 3.68652C23.0305 4.00757 23.1346 4.6317 22.8137 5.08105C22.4927 5.53038 21.8685 5.63433 21.4191 5.31348L17.9191 2.81348C17.4697 2.49247 17.3657 1.86836 17.6867 1.41895Z" fill="#9E9E9E"/>
</g>
</svg>
