<svg width="24" height="24" viewBox="0 0 24 24" fill="none" xmlns="http://www.w3.org/2000/svg">
<g id="icons/Time/big-clock">
<path id="Union" d="M12 1C18.0656 1 23 5.87106 23 11.9004V22C23 22.5523 22.5523 23 22 23H2C1.44772 23 1 22.5523 1 22V11.9004C1 5.87106 5.93436 1 12 1ZM12 3C7.01994 3 3 6.99453 3 11.9004V21H21V11.9004C21 6.99453 16.9801 3 12 3ZM12 5C15.866 5 19 8.13401 19 12C19 15.866 15.866 19 12 19C8.13401 19 5 15.866 5 12C5 8.13401 8.13401 5 12 5ZM12 7C9.23858 7 7 9.23858 7 12C7 14.7614 9.23858 17 12 17C14.7614 17 17 14.7614 17 12C17 9.23858 14.7614 7 12 7ZM12 8C12.5523 8 13 8.44772 13 9V11.5859L14.707 13.293C15.0976 13.6835 15.0976 14.3165 14.707 14.707C14.3165 15.0976 13.6835 15.0976 13.293 14.707L11.293 12.707C11.1054 12.5195 11 12.2652 11 12V9C11 8.44772 11.4477 8 12 8Z" fill="#9E9E9E"/>
</g>
</svg>
