<svg width="24" height="24" viewBox="0 0 24 24" fill="none" xmlns="http://www.w3.org/2000/svg">
<g id="icons/Time/calendar-three">
<path id="Union" d="M15.5 1C16.0523 1 16.5 1.44772 16.5 2V3H21C22.1046 3 23 3.89543 23 5V21C23 22.1046 22.1046 23 21 23H3C1.89543 23 1 22.1046 1 21V5C1 3.89543 1.89543 3 3 3H7.5V2C7.5 1.44772 7.94772 1 8.5 1C9.05229 1 9.5 1.44772 9.5 2V3H14.5V2C14.5 1.44772 14.9477 1 15.5 1ZM3 21H7.5V17H3V21ZM9.5 21H14.5V17H9.5V21ZM16.5 21H21V17H16.5V21ZM3 15H7.5V11H3V15ZM9.5 15H14.5V11H9.5V15ZM16.5 15H21V11H16.5V15ZM3 9H21V5H16.5V6C16.5 6.55228 16.0523 7 15.5 7C14.9477 7 14.5 6.55228 14.5 6V5H9.5V6C9.5 6.55228 9.05229 7 8.5 7C7.94772 7 7.5 6.55228 7.5 6V5H3V9Z" fill="#9E9E9E"/>
</g>
</svg>
