<svg width="24" height="24" viewBox="0 0 24 24" fill="none" xmlns="http://www.w3.org/2000/svg">
<g id="icons/Time/calendar-dot">
<path id="Union" d="M21 1C22.1046 1 23 1.89543 23 3V21C23 22.1046 22.1046 23 21 23H3C1.89543 23 1 22.1046 1 21V3C1 1.89543 1.89543 1 3 1H21ZM3 21H21V8H3V21ZM8 17C8.55228 17 9 17.4477 9 18C9 18.5523 8.55228 19 8 19H6C5.44772 19 5 18.5523 5 18C5 17.4477 5.44772 17 6 17H8ZM13 17C13.5523 17 14 17.4477 14 18C14 18.5523 13.5523 19 13 19H11C10.4477 19 10 18.5523 10 18C10 17.4477 10.4477 17 11 17H13ZM18 17C18.5523 17 19 17.4477 19 18C19 18.5523 18.5523 19 18 19H16C15.4477 19 15 18.5523 15 18C15 17.4477 15.4477 17 16 17H18ZM8 13.5C8.55228 13.5 9 13.9477 9 14.5C9 15.0523 8.55228 15.5 8 15.5H6C5.44772 15.5 5 15.0523 5 14.5C5 13.9477 5.44772 13.5 6 13.5H8ZM13 13.5C13.5523 13.5 14 13.9477 14 14.5C14 15.0523 13.5523 15.5 13 15.5H11C10.4477 15.5 10 15.0523 10 14.5C10 13.9477 10.4477 13.5 11 13.5H13ZM18 13.5C18.5523 13.5 19 13.9477 19 14.5C19 15.0523 18.5523 15.5 18 15.5H16C15.4477 15.5 15 15.0523 15 14.5C15 13.9477 15.4477 13.5 16 13.5H18ZM8 10C8.55228 10 9 10.4477 9 11C9 11.5523 8.55228 12 8 12H6C5.44772 12 5 11.5523 5 11C5 10.4477 5.44772 10 6 10H8ZM13 10C13.5523 10 14 10.4477 14 11C14 11.5523 13.5523 12 13 12H11C10.4477 12 10 11.5523 10 11C10 10.4477 10.4477 10 11 10H13ZM18 10C18.5523 10 19 10.4477 19 11C19 11.5523 18.5523 12 18 12H16C15.4477 12 15 11.5523 15 11C15 10.4477 15.4477 10 16 10H18ZM3 6H21V3H3V6Z" fill="#9E9E9E"/>
</g>
</svg>
