<svg width="24" height="24" viewBox="0 0 24 24" fill="none" xmlns="http://www.w3.org/2000/svg">
<g id="icons/Time/calendar-thirty">
<path id="Union" d="M21 1C22.1046 1 23 1.89543 23 3V21C23 22.1046 22.1046 23 21 23H3C1.89543 23 1 22.1046 1 21V3C1 1.89543 1.89543 1 3 1H21ZM3 21H21V8H3V21ZM10 10C10.5523 10 11 10.4477 11 11V18C11 18.5523 10.5523 19 10 19H6C5.44772 19 5 18.5523 5 18C5 17.4477 5.44772 17 6 17H9V15.5H7C6.44772 15.5 6 15.0523 6 14.5C6 13.9477 6.44772 13.5 7 13.5H9V12H6C5.44772 12 5 11.5523 5 11C5 10.4477 5.44772 10 6 10H10ZM18 10C18.5523 10 19 10.4477 19 11V18C19 18.5523 18.5523 19 18 19H14C13.4477 19 13 18.5523 13 18V11C13 10.4477 13.4477 10 14 10H18ZM15 17H17V12H15V17ZM3 6H21V3H3V6Z" fill="#9E9E9E"/>
</g>
</svg>
