<svg width="24" height="24" viewBox="0 0 24 24" fill="none" xmlns="http://www.w3.org/2000/svg">
<g id="icons/Time/calendar-thirty-two">
<path id="Union" d="M15.5 1C16.0523 1 16.5 1.44772 16.5 2V3H22C22.5523 3 23 3.44772 23 4V22C23 22.5523 22.5523 23 22 23H2C1.44772 23 1 22.5523 1 22V4C1 3.44772 1.44772 3 2 3H7.5V2C7.5 1.44772 7.94772 1 8.5 1C9.05229 1 9.5 1.44772 9.5 2V3H14.5V2C14.5 1.44772 14.9477 1 15.5 1ZM3 21H21V5H16.5V6C16.5 6.55228 16.0523 7 15.5 7C14.9477 7 14.5 6.55228 14.5 6V5H9.5V6C9.5 6.55228 9.05229 7 8.5 7C7.94772 7 7.5 6.55228 7.5 6V5H3V21ZM10 9C10.5523 9 11 9.44771 11 10V17C11 17.5523 10.5523 18 10 18H6C5.44772 18 5 17.5523 5 17C5 16.4477 5.44772 16 6 16H9V14.5H7C6.44772 14.5 6 14.0523 6 13.5C6 12.9477 6.44772 12.5 7 12.5H9V11H6C5.44772 11 5 10.5523 5 10C5 9.44771 5.44772 9 6 9H10ZM18 9C18.5523 9 19 9.44771 19 10V17C19 17.5523 18.5523 18 18 18H14C13.4477 18 13 17.5523 13 17V10C13 9.44771 13.4477 9 14 9H18ZM15 16H17V11H15V16Z" fill="#9E9E9E"/>
</g>
</svg>
