<svg width="24" height="24" viewBox="0 0 24 24" fill="none" xmlns="http://www.w3.org/2000/svg">
<g id="icons/Time/dashboard">
<path id="Union" d="M12 1C18.6274 1 24 6.37257 24 13C24 16.3134 22.6558 19.3148 20.4854 21.4854C20.0949 21.8758 19.4618 21.8758 19.0713 21.4854C18.6808 21.0948 18.6808 20.4618 19.0713 20.0713C20.882 18.2605 22 15.7617 22 13C22 7.47713 17.5229 3 12 3C6.47713 3 2 7.47713 2 13C2 15.7617 3.11797 18.2605 4.92871 20.0713C5.31923 20.4618 5.31924 21.0948 4.92871 21.4854C4.53817 21.8757 3.90513 21.8758 3.51465 21.4854C1.34418 19.3148 0 16.3134 0 13C0 6.37257 5.37257 1 12 1ZM12 5C12.5523 5 13 5.44772 13 6C13 6.55228 12.5523 7 12 7C8.68629 7 6 9.68629 6 13C6 14.6571 6.67093 16.1553 7.75781 17.2422C8.14832 17.6327 8.14829 18.2667 7.75781 18.6572C7.36729 19.0478 6.7333 19.0478 6.34277 18.6572C4.89615 17.2106 4 15.2089 4 13C4 8.58172 7.58172 5 12 5ZM12 8C12.5523 8 13 8.44772 13 9V13C13 13.5523 12.5523 14 12 14C11.4477 14 11 13.5523 11 13V9C11 8.44772 11.4477 8 12 8Z" fill="#9E9E9E"/>
</g>
</svg>
