<svg width="24" height="24" viewBox="0 0 24 24" fill="none" xmlns="http://www.w3.org/2000/svg">
<g id="icons/Time/history">
<path id="Union" d="M12 1C18.0751 1 23 5.92487 23 12C23 18.0751 18.0751 23 12 23C5.92487 23 1 18.0751 1 12C1 11.4477 1.44772 11 2 11C2.55228 11 3 11.4477 3 12C3 16.9706 7.02943 21 12 21C16.9706 21 21 16.9706 21 12C21 7.02943 16.9706 3 12 3C9.33569 3 6.9417 4.15807 5.29297 6H6.5459C7.09802 6.00019 7.5459 6.44783 7.5459 7C7.5457 7.552 7.0979 7.99981 6.5459 8H2.90918C2.35702 8 1.90938 7.55212 1.90918 7V3.36328C1.90918 2.811 2.35689 2.36328 2.90918 2.36328C3.46146 2.36328 3.90918 2.811 3.90918 3.36328V4.54785C5.91852 2.36761 8.79916 1 12 1ZM12.0029 5C12.5551 5.0002 13.0029 5.44785 13.0029 6L13.002 11.5898L16.9492 15.5371C17.3394 15.9276 17.3394 16.5607 16.9492 16.9512C16.5587 17.3417 15.9247 17.3417 15.5342 16.9512L11.2949 12.7119C11.1074 12.5244 11.0019 12.2692 11.002 12.0039L11.0029 6C11.003 5.44772 11.4506 4.99994 12.0029 5Z" fill="#9E9E9E"/>
</g>
</svg>
