<svg width="24" height="24" viewBox="0 0 24 24" fill="none" xmlns="http://www.w3.org/2000/svg">
<g id="icons/Time/iwatch">
<path id="Union" d="M14.1914 1C14.8355 1 15.4299 1.40833 15.6348 2.03906L15.6709 2.16797L16.3213 5H18C18.5523 5 19 5.44772 19 6V7.13477C19.1472 7.04953 19.3177 7 19.5 7C20.0523 7 20.5 7.44772 20.5 8V10C20.5 10.5523 20.0523 11 19.5 11C19.3175 11 19.1473 10.9496 19 10.8643V18C19 18.5523 18.5523 19 18 19H16.3213L15.6709 21.832C15.5093 22.5355 14.8783 23 14.1914 23H8.82031C8.1335 22.9999 7.50338 22.5354 7.3418 21.832L6.69141 19H5C4.44772 19 4 18.5523 4 18V6C4 5.44772 4.44772 5 5 5H6.69141L7.3418 2.16797L7.37695 2.03906C7.58172 1.40827 8.1762 1.00006 8.82031 1H14.1914ZM9.20312 21H13.8096L14.2695 19H8.74316L9.20312 21ZM6 17H17V7H6V17ZM11.5 9C13.1568 9 14.5 10.3432 14.5 12C14.5 13.6569 13.1568 15 11.5 15C9.84318 15 8.5 13.6569 8.5 12C8.5 10.3432 9.84317 9 11.5 9ZM11.5 11C10.9477 11 10.5 11.4477 10.5 12C10.5 12.5523 10.9477 13 11.5 13C12.0523 13 12.5 12.5523 12.5 12C12.5 11.4477 12.0523 11 11.5 11ZM8.74316 5H14.2695L13.8096 3H9.20312L8.74316 5Z" fill="#9E9E9E"/>
</g>
</svg>
