<svg width="24" height="24" viewBox="0 0 24 24" fill="none" xmlns="http://www.w3.org/2000/svg">
<g id="icons/Time/loading-three">
<path id="Union" d="M12 1C18.0751 1 23 5.92487 23 12C23 18.0751 18.0751 23 12 23C5.92487 23 1 18.0751 1 12C1 5.92487 5.92487 1 12 1ZM12 3C7.02943 3 3 7.02943 3 12C3 16.9706 7.02943 21 12 21C16.9706 21 21 16.9706 21 12C21 7.02943 16.9706 3 12 3ZM12 15.5C12.5523 15.5 13 15.9477 13 16.5V18C13 18.5523 12.5523 19 12 19C11.4477 19 11 18.5523 11 18V16.5C11 15.9477 11.4477 15.5 12 15.5ZM8.11133 14.4746C8.50184 14.0841 9.13486 14.0841 9.52539 14.4746C9.91591 14.8651 9.91592 15.4981 9.52539 15.8887L8.46484 16.9492C8.07432 17.3397 7.44131 17.3397 7.05078 16.9492C6.66031 16.5587 6.66027 15.9257 7.05078 15.5352L8.11133 14.4746ZM14.4746 14.4746C14.8651 14.0841 15.4981 14.0841 15.8887 14.4746L16.9492 15.5352C17.3397 15.9257 17.3397 16.5587 16.9492 16.9492C16.5587 17.3397 15.9257 17.3397 15.5352 16.9492L14.4746 15.8887C14.0841 15.4981 14.0841 14.8651 14.4746 14.4746ZM7.5 11C8.05228 11 8.5 11.4477 8.5 12C8.5 12.5523 8.05228 13 7.5 13H6C5.44772 13 5 12.5523 5 12C5 11.4477 5.44772 11 6 11H7.5ZM18 11C18.5523 11 19 11.4477 19 12C19 12.5523 18.5523 13 18 13H16.5C15.9477 13 15.5 12.5523 15.5 12C15.5 11.4477 15.9477 11 16.5 11H18ZM7.05078 7.05078C7.44131 6.66026 8.07432 6.66026 8.46484 7.05078L9.52539 8.11133C9.91591 8.50185 9.91591 9.13487 9.52539 9.52539C9.13487 9.91591 8.50185 9.91591 8.11133 9.52539L7.05078 8.46484C6.66026 8.07432 6.66026 7.44131 7.05078 7.05078ZM15.5352 7.05078C15.9257 6.66027 16.5587 6.66031 16.9492 7.05078C17.3397 7.44131 17.3397 8.07432 16.9492 8.46484L15.8887 9.52539C15.4981 9.91591 14.8651 9.91591 14.4746 9.52539C14.0841 9.13486 14.0841 8.50184 14.4746 8.11133L15.5352 7.05078ZM12 5C12.5523 5 13 5.44772 13 6V7.5C13 8.05228 12.5523 8.5 12 8.5C11.4477 8.5 11 8.05228 11 7.5V6C11 5.44772 11.4477 5 12 5Z" fill="#9E9E9E"/>
</g>
</svg>
