<svg width="24" height="24" viewBox="0 0 24 24" fill="none" xmlns="http://www.w3.org/2000/svg">
<g id="icons/Time/radar-two">
<path id="Union" d="M12 1C12.5523 1 13 1.44772 13 2V9.17383C14.1647 9.58595 15 10.6942 15 12C15 13.6568 13.6568 15 12 15C10.3432 15 9 13.6568 9 12C9 10.6942 9.83533 9.58595 11 9.17383V3.05664C6.50014 3.55417 3 7.36751 3 12C3 16.9706 7.02943 21 12 21C16.9706 21 21 16.9706 21 12C21 11.4477 21.4477 11 22 11C22.5523 11 23 11.4477 23 12C23 18.0751 18.0751 23 12 23C5.92487 23 1 18.0751 1 12C1 5.92487 5.92487 1 12 1ZM12 11C11.4477 11 11 11.4477 11 12C11 12.5523 11.4477 13 12 13C12.5523 13 13 12.5523 13 12C13 11.4477 12.5523 11 12 11Z" fill="#9E9E9E"/>
</g>
</svg>
