<svg width="24" height="24" viewBox="0 0 24 24" fill="none" xmlns="http://www.w3.org/2000/svg">
<g id="icons/Time/speed">
<path id="Union" d="M12 1C14.0072 1 15.8918 1.53836 17.5137 2.47949C17.9914 2.75668 18.1541 3.369 17.877 3.84668C17.5998 4.32431 16.9874 4.48702 16.5098 4.20996C15.1846 3.44101 13.6453 3 12 3C7.02943 3 3 7.02943 3 12C3 16.9706 7.02943 21 12 21C16.9706 21 21 16.9706 21 12C21 10.3661 20.5658 8.83647 19.8066 7.51758C19.5312 7.03904 19.6954 6.42795 20.1738 6.15234C20.6524 5.87688 21.2645 6.04104 21.54 6.51953C22.4692 8.13384 23 10.0067 23 12C23 18.0751 18.0751 23 12 23C5.92487 23 1 18.0751 1 12C1 5.92487 5.92487 1 12 1ZM15.624 7.08887C15.9911 6.95143 16.4055 7.0412 16.6826 7.31836C16.9595 7.59553 17.0485 8.00905 16.9111 8.37598V8.37695C16.9109 8.37756 16.9106 8.37882 16.9102 8.37988C16.9093 8.38229 16.9079 8.38612 16.9062 8.39062C16.9029 8.3996 16.898 8.41276 16.8916 8.42969C16.8786 8.464 16.8593 8.51445 16.835 8.57812C16.7862 8.7056 16.7156 8.8883 16.6289 9.10938C16.4558 9.55088 16.2163 10.1495 15.9512 10.7744C15.687 11.3971 15.392 12.0584 15.1094 12.6201C14.9683 12.9005 14.8249 13.1675 14.6846 13.3975C14.5528 13.6135 14.3908 13.8523 14.207 14.0361C13.0355 15.2073 11.1363 15.2073 9.96484 14.0361C8.79327 12.8646 8.79327 10.9645 9.96484 9.79297C10.1485 9.60941 10.3867 9.44813 10.6025 9.31641C10.8324 9.17613 11.0995 9.03172 11.3799 8.89062C11.9415 8.60802 12.603 8.31395 13.2256 8.0498C13.8507 7.78458 14.45 7.54422 14.8916 7.37109C15.1122 7.2846 15.2945 7.21469 15.4219 7.16602C15.4855 7.14169 15.536 7.12235 15.5703 7.10938C15.5871 7.10303 15.6003 7.09813 15.6094 7.09473C15.6137 7.0931 15.6177 7.09171 15.6201 7.09082C15.6212 7.09043 15.6224 7.09008 15.623 7.08984L15.624 7.08887ZM14.0068 9.89062C13.4014 10.1475 12.7852 10.4232 12.2793 10.6777C12.0262 10.8051 11.8113 10.9217 11.6445 11.0234C11.5617 11.074 11.4967 11.1171 11.4482 11.1523C11.4014 11.1864 11.3814 11.2047 11.3789 11.207C10.9884 11.5976 10.9884 12.2315 11.3789 12.6221C11.7694 13.0122 12.4025 13.0122 12.793 12.6221C12.7941 12.6208 12.8122 12.6004 12.8477 12.5518C12.8829 12.5033 12.9269 12.4384 12.9775 12.3555C13.0793 12.1887 13.1959 11.9738 13.3232 11.7207C13.5778 11.2149 13.8535 10.5985 14.1104 9.99316C14.1352 9.93456 14.1582 9.87544 14.1826 9.81738C14.1245 9.8418 14.0655 9.86573 14.0068 9.89062Z" fill="#9E9E9E"/>
</g>
</svg>
