<svg width="24" height="24" viewBox="0 0 24 24" fill="none" xmlns="http://www.w3.org/2000/svg">
<g id="icons/Time/speed-one">
<path id="Union" d="M12 0.5C18.3513 0.5 23.5 5.64872 23.5 12C23.5 15.1754 22.2119 18.0519 20.1318 20.1318C19.7414 20.5223 19.1083 20.5222 18.7178 20.1318C18.3273 19.7413 18.3273 19.1083 18.7178 18.7178C19.8451 17.5905 20.6865 16.1815 21.1348 14.6064C21.102 14.6022 21.069 14.5974 21.0361 14.5898L19.0879 14.1406C18.5499 14.0164 18.2139 13.4794 18.3379 12.9414C18.4621 12.4034 18.9991 12.0674 19.5371 12.1914L21.4756 12.6387C21.4896 12.4275 21.5 12.2147 21.5 12C21.5 9.9766 20.8653 8.10245 19.7871 6.56152L18.4971 7.60742C18.0679 7.95446 17.4382 7.88801 17.0908 7.45898C16.7436 7.02983 16.8103 6.40022 17.2393 6.05273L18.4746 5.05078C17.0068 3.68261 15.1065 2.77212 13 2.55176V4C13 4.55228 12.5523 5 12 5C11.4477 5 11 4.55228 11 4V2.55176C8.89297 2.77217 6.9914 3.68207 5.52344 5.05078L6.76074 6.05273C7.18995 6.4003 7.25577 7.02978 6.9082 7.45898C6.56064 7.8881 5.93113 7.9549 5.50195 7.60742L4.21191 6.56152C3.13393 8.10236 2.5 9.9768 2.5 12C2.5 12.2147 2.50944 12.4275 2.52344 12.6387L4.46191 12.1914C5.00004 12.0672 5.5369 12.4033 5.66113 12.9414C5.78519 13.4794 5.4501 14.0164 4.91211 14.1406L2.96289 14.5898C2.93002 14.5974 2.89702 14.6022 2.86426 14.6064C3.31256 16.1816 4.15485 17.5904 5.28223 18.7178C5.67274 19.1083 5.67274 19.7413 5.28223 20.1318C4.89169 20.5222 4.25863 20.5223 3.86816 20.1318C1.78816 18.0519 0.5 15.1754 0.5 12C0.5 5.64872 5.64872 0.5 12 0.5ZM15.1484 9.38965L16.0908 9.72461V9.72559L16.0898 9.72754C16.089 9.72993 16.0875 9.73382 16.0859 9.73828C16.0827 9.74739 16.0784 9.7611 16.0723 9.77832C16.0599 9.81288 16.0408 9.86358 16.0176 9.92773C15.9711 10.056 15.904 10.2396 15.8213 10.4619C15.6559 10.9064 15.4271 11.5092 15.1729 12.1387C14.9196 12.7659 14.6361 13.4325 14.3633 13.999C14.2271 14.2817 14.0883 14.5509 13.9521 14.7832C13.8242 15.0014 13.6668 15.2427 13.4863 15.4297C12.3354 16.6215 10.436 16.6548 9.24414 15.5039C8.05234 14.3529 8.01904 12.4536 9.16992 11.2617C9.35047 11.0748 9.58613 10.909 9.7998 10.7734C10.0273 10.6291 10.2924 10.481 10.5703 10.335C11.1269 10.0426 11.7826 9.73685 12.4004 9.46191C13.0208 9.18583 13.6152 8.93569 14.0537 8.75488C14.2732 8.6644 14.4545 8.59097 14.5811 8.54004C14.6443 8.51458 14.6944 8.49405 14.7285 8.48047L14.7773 8.46094C14.7784 8.46054 14.7797 8.46021 14.7803 8.45996H14.7812L15.1484 9.38965ZM13.2139 11.2891C12.613 11.5564 12.0013 11.8421 11.5 12.1055C11.249 12.2373 11.0361 12.3582 10.8711 12.4629C10.7895 12.5147 10.7255 12.5587 10.6777 12.5947C10.6297 12.6309 10.6097 12.6502 10.6084 12.6514C10.2249 13.0487 10.2366 13.6819 10.6338 14.0654C11.0311 14.4488 11.6643 14.4382 12.0479 14.041C12.049 14.0397 12.0672 14.0198 12.1016 13.9707C12.136 13.9216 12.1774 13.8553 12.2266 13.7715C12.3254 13.6029 12.4385 13.3863 12.5615 13.1309C12.8072 12.6206 13.0721 11.9995 13.3184 11.3896C13.3422 11.3307 13.3644 11.2713 13.3877 11.2129C13.3302 11.2382 13.2719 11.2632 13.2139 11.2891ZM14.7812 8.45898C15.1459 8.31516 15.5618 8.39765 15.8438 8.66992C16.1256 8.94217 16.2217 9.35429 16.0908 9.72363L15.1484 9.38965L14.7812 8.45898Z" fill="#9E9E9E"/>
</g>
</svg>
