<svg width="24" height="24" viewBox="0 0 24 24" fill="none" xmlns="http://www.w3.org/2000/svg">
<g id="icons/Time/stopwatch-start">
<path id="Union" d="M15 1C15.5523 1 16 1.44772 16 2C16 2.55228 15.5523 3 15 3H13V4C13 4.01739 12.9979 4.03459 12.9971 4.05176C17.7751 4.55012 21.5 8.59005 21.5 13.5C21.5 18.7467 17.2467 23 12 23C6.75332 23 2.5 18.7467 2.5 13.5C2.5 8.59038 6.22436 4.55056 11.002 4.05176C11.0011 4.03461 11 4.01737 11 4V3H9C8.44772 3 8 2.55228 8 2C8 1.44772 8.44772 1 9 1H15ZM12 6C7.85788 6 4.5 9.35789 4.5 13.5C4.5 17.6421 7.85788 21 12 21C16.1421 21 19.5 17.6421 19.5 13.5C19.5 9.35789 16.1421 6 12 6ZM12 8.5C12.5523 8.5 13 8.94772 13 9.5V12.5H16C16.5523 12.5 17 12.9477 17 13.5C17 14.0523 16.5523 14.5 16 14.5H12C11.4477 14.5 11 14.0523 11 13.5V9.5C11 8.94772 11.4477 8.5 12 8.5Z" fill="#9E9E9E"/>
</g>
</svg>
