<svg width="24" height="24" viewBox="0 0 24 24" fill="none" xmlns="http://www.w3.org/2000/svg">
<g id="icons/Time/time">
<path id="Union" d="M12 1C18.0751 1 23 5.92487 23 12C23 18.0751 18.0751 23 12 23C5.92487 23 1 18.0751 1 12C1 5.92487 5.92487 1 12 1ZM12 3C7.02943 3 3 7.02943 3 12C3 16.9706 7.02943 21 12 21C16.9706 21 21 16.9706 21 12C21 7.02943 16.9706 3 12 3ZM12.0049 5C12.557 5.0002 13.0049 5.44785 13.0049 6L13.0039 11.5898L16.9512 15.5371C17.3413 15.9276 17.3414 16.5607 16.9512 16.9512C16.5606 17.3417 15.9267 17.3417 15.5361 16.9512L11.2969 12.7119C11.1093 12.5244 11.0039 12.2692 11.0039 12.0039L11.0049 6C11.0049 5.44772 11.4526 4.99994 12.0049 5Z" fill="#9E9E9E"/>
</g>
</svg>
