<svg width="24" height="24" viewBox="0 0 24 24" fill="none" xmlns="http://www.w3.org/2000/svg">
<g id="icons/Time/watch">
<path id="Union" d="M15.6621 1.01367C16.0329 1.07461 16.344 1.34066 16.4561 1.70898L18.3965 8.08496C19.0957 9.22532 19.5 10.5666 19.5 12C19.5 13.4331 19.0955 14.7739 18.3965 15.9141L16.4561 22.291C16.3279 22.712 15.94 22.9998 15.5 23H8.5C8.05986 23 7.67111 22.7121 7.54297 22.291L5.60059 15.9111C4.9029 14.7717 4.5 13.4316 4.5 12C4.5 10.5681 4.90264 9.22751 5.60059 8.08789L7.54297 1.70898L7.60254 1.55762C7.76871 1.22034 8.1148 1 8.5 1H15.5L15.6621 1.01367ZM15.4756 18.6426C14.4363 19.1875 13.2553 19.5 12 19.5C10.7441 19.5 9.56208 19.188 8.52246 18.6426L9.24023 21H14.7588L15.4756 18.6426ZM12 6.5C10.054 6.5 8.34333 7.51001 7.36426 9.03906C6.81742 9.89322 6.5 10.9081 6.5 12C6.5 13.0919 6.81742 14.1068 7.36426 14.9609C8.34333 16.49 10.054 17.5 12 17.5C13.946 17.5 15.6567 16.49 16.6357 14.9609C17.1826 14.1068 17.5 13.0919 17.5 12C17.5 10.9081 17.1826 9.89322 16.6357 9.03906C15.6567 7.51001 13.946 6.5 12 6.5ZM12 7.5C12.5523 7.5 13 7.94772 13 8.5V11.5859L14.707 13.293C15.0976 13.6835 15.0976 14.3165 14.707 14.707C14.3165 15.0976 13.6835 15.0976 13.293 14.707L11.293 12.707C11.1054 12.5195 11 12.2652 11 12V8.5C11 7.94772 11.4477 7.5 12 7.5ZM8.52246 5.35645C9.56199 4.81113 10.7442 4.5 12 4.5C13.2551 4.5 14.4364 4.81163 15.4756 5.35645L14.7588 3H9.24023L8.52246 5.35645Z" fill="#9E9E9E"/>
</g>
</svg>
