<svg width="24" height="24" viewBox="0 0 24 24" fill="none" xmlns="http://www.w3.org/2000/svg">
<g id="icons/Operate/beauty">
<path id="Union" d="M12 1C17.5228 1 22 5.47717 22 11V22C22 22.5523 21.5523 23 21 23C20.4477 23 20 22.5523 20 22V11C20 6.58173 16.4183 3 12 3C7.58173 3 4 6.58173 4 11V22C4 22.5523 3.55228 23 3 23C2.44772 23 2 22.5523 2 22V11C2 5.47717 6.47717 1 12 1ZM17 10.5C17.5523 10.5 18 10.9477 18 11.5C18 14.383 17.4176 17.0428 16.4297 19.0186C15.4717 20.9344 13.9634 22.5 12 22.5C10.0366 22.5 8.5283 20.9344 7.57031 19.0186C6.58243 17.0428 6 14.383 6 11.5C6 10.9477 6.44772 10.5 7 10.5H17ZM8.02637 12.5C8.14285 14.7287 8.643 16.6913 9.35938 18.124C10.211 19.8271 11.2022 20.5 12 20.5C12.7978 20.5 13.789 19.8271 14.6406 18.124C15.357 16.6913 15.8572 14.7287 15.9736 12.5H8.02637Z" fill="#9E9E9E"/>
</g>
</svg>
