<svg width="24" height="24" viewBox="0 0 24 24" fill="none" xmlns="http://www.w3.org/2000/svg">
<g id="icons/Operate/click">
<path id="Union" d="M10.293 10.293C10.5294 10.0565 10.8684 9.95396 11.1963 10.0195L21.1963 12.0195C21.5927 12.0989 21.9029 12.409 21.9814 12.8057C22.0599 13.2024 21.8912 13.6077 21.5547 13.832L19.5693 15.1553L21.707 17.293C22.0976 17.6835 22.0976 18.3165 21.707 18.707L18.707 21.707C18.3165 22.0976 17.6835 22.0976 17.293 21.707L15.1553 19.5693L13.832 21.5547C13.6077 21.8912 13.2024 22.0599 12.8057 21.9814C12.409 21.9029 12.0989 21.5927 12.0195 21.1963L10.0195 11.1963C9.95396 10.8684 10.0565 10.5294 10.293 10.293ZM7.0498 15.5352C7.44028 15.1447 8.07333 15.1448 8.46387 15.5352C8.85439 15.9257 8.85439 16.5587 8.46387 16.9492L5.63574 19.7773C5.24522 20.1679 4.6122 20.1679 4.22168 19.7773C3.83129 19.3868 3.8312 18.7538 4.22168 18.3633L7.0498 15.5352ZM13.5068 18.4365L14.168 17.4453L14.2354 17.3564C14.4023 17.1581 14.6405 17.0307 14.9014 17.0049C15.1995 16.9754 15.4952 17.0811 15.707 17.293L18 19.5859L19.5859 18L17.293 15.707C17.0811 15.4952 16.9754 15.1995 17.0049 14.9014C17.0344 14.6033 17.1961 14.3341 17.4453 14.168L18.4365 13.5068L12.2744 12.2744L13.5068 18.4365ZM6 11C6.55228 11 7 11.4477 7 12C7 12.5523 6.55228 13 6 13H2C1.44772 13 1 12.5523 1 12C1 11.4477 1.44772 11 2 11H6ZM4.22168 4.22266C4.6122 3.83213 5.24522 3.83213 5.63574 4.22266L8.46387 7.05078C8.85439 7.4413 8.85439 8.07432 8.46387 8.46484C8.07334 8.85536 7.44033 8.85537 7.0498 8.46484L4.22168 5.63672C3.83116 5.24619 3.83116 4.61318 4.22168 4.22266ZM18.3633 4.22266C18.7538 3.83218 19.3868 3.83227 19.7773 4.22266C20.1679 4.61318 20.1679 5.24619 19.7773 5.63672L16.9492 8.46484C16.5587 8.85537 15.9257 8.85537 15.5352 8.46484C15.1448 8.07431 15.1447 7.44126 15.5352 7.05078L18.3633 4.22266ZM12 1C12.5523 1 13 1.44772 13 2V6C13 6.55228 12.5523 7 12 7C11.4477 7 11 6.55228 11 6V2C11 1.44772 11.4477 1 12 1Z" fill="#9E9E9E"/>
</g>
</svg>
