<svg width="24" height="24" viewBox="0 0 24 24" fill="none" xmlns="http://www.w3.org/2000/svg">
<g id="icons/Operate/color-filter">
<path id="Union" d="M12 1C15.866 1 19 4.134 19 8C19 8.54712 18.9342 9.07886 18.8154 9.58984C21.2789 10.6735 22.9998 13.1349 23 16C23 19.866 19.866 23 16 23C14.5127 23 13.1331 22.5344 11.999 21.7432C10.8651 22.5342 9.4874 23 8 23C4.134 23 1 19.866 1 16C1.00016 13.1352 2.72059 10.6737 5.18359 9.58984C5.0649 9.07892 5 8.54704 5 8C5 4.134 8.13402 1 12 1ZM5.91309 11.4551C4.19345 12.2459 3.00016 13.9845 3 16C3 18.7614 5.23858 21 8 21C10.7614 21 13 18.7614 13 16C13 15.6361 12.9602 15.2821 12.8867 14.9414C12.5962 14.9781 12.3005 15 12 15C9.39094 15 7.11705 13.5716 5.91309 11.4551ZM18.0859 11.4551C17.3444 12.7584 16.1983 13.8 14.8164 14.4082C14.9356 14.9203 15 15.4531 15 16C15 17.635 14.4375 19.1376 13.498 20.3291C14.234 20.7554 15.0876 21 16 21C18.7614 21 21 18.7614 21 16C20.9998 13.9842 19.806 12.2457 18.0859 11.4551ZM12 3C9.23858 3 7 5.23858 7 8C7 10.7614 9.23858 13 12 13C14.7614 13 17 10.7614 17 8C17 5.23858 14.7614 3 12 3Z" fill="#9E9E9E"/>
</g>
</svg>
