<svg width="24" height="24" viewBox="0 0 24 24" fill="none" xmlns="http://www.w3.org/2000/svg">
<g id="icons/Operate/contrast-view-circle">
<path id="Union" d="M12 1C18.0751 1 23 5.92487 23 12C23 18.0751 18.0751 23 12 23C5.92487 23 1 18.0751 1 12C1 5.92487 5.92487 1 12 1ZM6.34863 19C7.64979 20.051 9.24846 20.7487 11 20.9424V19H6.34863ZM13 20.9424C17.4998 20.4448 21 16.6325 21 12C21 7.36751 17.4999 3.55417 13 3.05664V20.9424ZM3.51465 15C3.76657 15.7123 4.10512 16.383 4.51855 17H11V15H3.51465ZM3.05664 11C3.02033 11.3284 3 11.6619 3 12C3 12.3381 3.02033 12.6716 3.05664 13H11V11H3.05664ZM4.51758 7C4.10434 7.61695 3.76648 8.2879 3.51465 9H11V7H4.51758ZM11 3.05664C9.24829 3.25032 7.64984 3.94865 6.34863 5H11V3.05664Z" fill="#9E9E9E"/>
</g>
</svg>
