<svg width="24" height="24" viewBox="0 0 24 24" fill="none" xmlns="http://www.w3.org/2000/svg">
<g id="icons/Operate/contrast-view">
<path id="Union" d="M12 1C12.5523 1 13 1.44772 13 2V2.5H14C14.5523 2.5 15 2.94772 15 3.5C15 4.05228 14.5523 4.5 14 4.5H13V19.5H13.5C14.0523 19.5 14.5 19.9477 14.5 20.5C14.5 21.0523 14.0523 21.5 13.5 21.5H13V22C13 22.5523 12.5523 23 12 23C11.4477 23 11 22.5523 11 22V21.5H3.5C2.94772 21.5 2.5 21.0523 2.5 20.5V3.5C2.5 2.94772 2.94772 2.5 3.5 2.5H11V2C11 1.44772 11.4477 1 12 1ZM17.5 19.5C18.0523 19.5 18.5 19.9477 18.5 20.5C18.5 21.0523 18.0523 21.5 17.5 21.5H16.5C15.9477 21.5 15.5 21.0523 15.5 20.5C15.5 19.9477 15.9477 19.5 16.5 19.5H17.5ZM20.5 18.5C21.0523 18.5 21.5 18.9477 21.5 19.5V20.5C21.5 21.0523 21.0523 21.5 20.5 21.5C19.9477 21.5 19.5 21.0523 19.5 20.5V19.5C19.5 18.9477 19.9477 18.5 20.5 18.5ZM4.5 19.5H11V4.5H4.5V19.5ZM20.5 14.5C21.0523 14.5 21.5 14.9477 21.5 15.5V16.5C21.5 17.0523 21.0523 17.5 20.5 17.5C19.9477 17.5 19.5 17.0523 19.5 16.5V15.5C19.5 14.9477 19.9477 14.5 20.5 14.5ZM20.5 10.5C21.0523 10.5 21.5 10.9477 21.5 11.5V12.5C21.5 13.0523 21.0523 13.5 20.5 13.5C19.9477 13.5 19.5 13.0523 19.5 12.5V11.5C19.5 10.9477 19.9477 10.5 20.5 10.5ZM20.5 6.5C21.0523 6.5 21.5 6.94772 21.5 7.5V8.5C21.5 9.05229 21.0523 9.5 20.5 9.5C19.9477 9.5 19.5 9.05229 19.5 8.5V7.5C19.5 6.94772 19.9477 6.5 20.5 6.5ZM20.5 2.5C21.0523 2.5 21.5 2.94772 21.5 3.5V4.5C21.5 5.05228 21.0523 5.5 20.5 5.5C19.9477 5.5 19.5 5.05228 19.5 4.5V3.5C19.5 2.94772 19.9477 2.5 20.5 2.5ZM17.5 2.5C18.0523 2.5 18.5 2.94772 18.5 3.5C18.5 4.05228 18.0523 4.5 17.5 4.5H16.5C15.9477 4.5 15.5 4.05228 15.5 3.5C15.5 2.94772 15.9477 2.5 16.5 2.5H17.5Z" fill="#9E9E9E"/>
</g>
</svg>
