<svg width="24" height="24" viewBox="0 0 24 24" fill="none" xmlns="http://www.w3.org/2000/svg">
<g id="icons/Operate/effects">
<path id="Union" d="M17.3799 17.3223C17.7694 16.931 18.4025 16.9291 18.7939 17.3184L22.7939 21.3008C23.1851 21.6904 23.1872 22.3235 22.7979 22.7148C22.4083 23.106 21.7752 23.1072 21.3838 22.7178L17.3838 18.7363C16.9926 18.3469 16.9907 17.7137 17.3799 17.3223ZM16.3604 1.43262C16.6743 1.25513 17.0602 1.26023 17.3691 1.44629C17.6778 1.63241 17.8626 1.97073 17.8525 2.33105L17.6816 8.45312L22.2246 12.584C22.4921 12.8272 22.6075 13.1965 22.5264 13.5488C22.445 13.9009 22.1798 14.1825 21.833 14.2842L15.9277 16.0146L13.3848 21.5938C13.2353 21.9214 12.9213 22.1443 12.5625 22.1758C12.2038 22.2072 11.8556 22.0427 11.6514 21.7461L8.17188 16.6904L2.05469 16.0068C1.69567 15.9666 1.38608 15.735 1.24512 15.4023C1.10431 15.0697 1.15408 14.6862 1.375 14.4004L5.12695 9.54688L3.89258 3.54785C3.81983 3.19458 3.943 2.82981 4.21484 2.59277C4.48679 2.35583 4.86506 2.28304 5.20508 2.40332L11.0068 4.45898L16.3604 1.43262ZM11.5938 6.4248C11.3421 6.56682 11.041 6.59341 10.7686 6.49707L6.20801 4.88086L7.17969 9.59375C7.23845 9.87934 7.16958 10.1766 6.99121 10.4072L4.04492 14.2158L8.84961 14.7539L8.95605 14.7715C9.20114 14.8262 9.41867 14.9716 9.5625 15.1807L12.2979 19.1572L14.2979 14.7695L14.3486 14.6729C14.477 14.4569 14.6831 14.2961 14.9268 14.2246L19.5605 12.8652L15.9961 9.62402C15.7807 9.42811 15.661 9.14752 15.6689 8.85645L15.8037 4.04395L11.5938 6.4248Z" fill="#9E9E9E"/>
</g>
</svg>
