<svg width="24" height="24" viewBox="0 0 24 24" fill="none" xmlns="http://www.w3.org/2000/svg">
<g id="icons/Operate/erase">
<path id="Union" d="M22 20C22.5523 20 23 20.4477 23 21C22.9999 21.5522 22.5522 22 22 22H2C1.44779 22 1.00013 21.5522 1 21C1 20.4477 1.44772 20 2 20H22ZM14.8691 1.22461C15.2619 0.904259 15.8409 0.926853 16.207 1.29297L21.207 6.29297C21.5974 6.6835 21.5975 7.31655 21.207 7.70703L11.207 17.707C11.0195 17.8945 10.7652 18 10.5 18H6.5C6.23484 18 5.98049 17.8945 5.79297 17.707L2.79297 14.707C2.40248 14.3165 2.40256 13.6835 2.79297 13.293L14.793 1.29297L14.8691 1.22461ZM4.91406 14L6.91406 16H10.0859L19.0859 7L15.5 3.41406L4.91406 14Z" fill="#9E9E9E"/>
</g>
</svg>
