<svg width="24" height="24" viewBox="0 0 24 24" fill="none" xmlns="http://www.w3.org/2000/svg">
<g id="icons/Operate/face-recognition">
<path id="Union" d="M2.5 15.5C3.05228 15.5 3.49999 15.9477 3.5 16.5V20.5H7.5C8.05228 20.5 8.49999 20.9477 8.5 21.5C8.5 22.0523 8.05228 22.5 7.5 22.5H3.5C2.39541 22.5 1.5 21.6045 1.5 20.5V16.5C1.50001 15.9477 1.94772 15.5 2.5 15.5ZM21.5 15.5C22.0523 15.5 22.5 15.9477 22.5 16.5V20.5C22.5 21.6045 21.6046 22.5 20.5 22.5H16.5C15.9477 22.5 15.5 22.0523 15.5 21.5C15.5 20.9477 15.9477 20.5 16.5 20.5H20.5V16.5C20.5 15.9477 20.9477 15.5 21.5 15.5ZM12 4C15.6886 4 18.5189 7.16558 18.9434 11H21C21.5523 11 22 11.4477 22 12C22 12.5523 21.5523 13 21 13H18.9434C18.5189 16.8344 15.6886 20 12 20C8.31143 20 5.48114 16.8344 5.05664 13H3C2.44772 13 2 12.5523 2 12C2 11.4477 2.44772 11 3 11H5.05664C5.48114 7.16558 8.31143 4 12 4ZM7.06836 13C7.47374 15.9412 9.6373 18 12 18C14.3627 18 16.5263 15.9412 16.9316 13H7.06836ZM13.4453 14.2334C13.8979 13.9168 14.5213 14.027 14.8379 14.4795C15.1544 14.932 15.0442 15.5555 14.5918 15.8721C13.7896 16.4332 12.9199 16.7559 11.999 16.7559C11.0749 16.7558 10.2158 16.4303 9.43945 15.8564C8.99569 15.5281 8.90229 14.902 9.23047 14.458C9.55884 14.0142 10.1849 13.9208 10.6289 14.249C11.1201 14.612 11.5711 14.7558 11.999 14.7559C12.4304 14.7559 12.9077 14.6095 13.4453 14.2334ZM12 6C9.6373 6 7.47374 8.05882 7.06836 11H16.9316C16.5263 8.05882 14.3627 6 12 6ZM7.5 1.5C8.05228 1.5 8.5 1.94772 8.5 2.5C8.5 3.05228 8.05228 3.5 7.5 3.5H3.5V7.5C3.5 8.05228 3.05228 8.5 2.5 8.5C1.94772 8.5 1.5 8.05228 1.5 7.5V3.5C1.5 2.39543 2.39543 1.5 3.5 1.5H7.5ZM20.5 1.5C21.6046 1.5 22.5 2.39544 22.5 3.5V7.5C22.5 8.05228 22.0523 8.5 21.5 8.5C20.9477 8.5 20.5 8.05228 20.5 7.5V3.5H16.5C15.9477 3.5 15.5 3.05228 15.5 2.5C15.5 1.94772 15.9477 1.5 16.5 1.5H20.5Z" fill="#9E9E9E"/>
</g>
</svg>
