<svg width="24" height="24" viewBox="0 0 24 24" fill="none" xmlns="http://www.w3.org/2000/svg">
<g id="icons/Operate/figma-mask">
<path id="Union" d="M12 1C18.0751 1 23 5.92487 23 12C23 18.0751 18.0751 23 12 23C10.0174 23 8.15911 22.4725 6.55273 21.5547C6.53496 21.5458 6.51637 21.5384 6.49902 21.5283C6.43922 21.4937 6.38038 21.4576 6.32129 21.4219C6.30752 21.4136 6.294 21.4049 6.28027 21.3965C6.04956 21.2558 5.82364 21.108 5.60449 20.9512L5.41895 20.8145C5.41467 20.8113 5.41052 20.8079 5.40625 20.8047C5.27374 20.7053 5.14341 20.6032 5.01562 20.498C4.99815 20.4837 4.98125 20.4686 4.96387 20.4541C4.8585 20.3663 4.75433 20.2772 4.65234 20.1855C4.62543 20.1614 4.59894 20.1367 4.57227 20.1123C4.4568 20.0065 4.34328 19.8987 4.23242 19.7881C4.21824 19.7739 4.20453 19.7593 4.19043 19.7451C4.09088 19.6447 3.99311 19.5426 3.89746 19.4385C3.87533 19.4144 3.85297 19.3905 3.83105 19.3662C3.72349 19.247 3.61796 19.1258 3.51562 19.002C3.50028 18.9834 3.48593 18.964 3.4707 18.9453C3.38486 18.84 3.3017 18.7325 3.21973 18.624C3.19983 18.5977 3.17982 18.5714 3.16016 18.5449C3.06804 18.4207 2.97755 18.2952 2.89062 18.167C2.88682 18.1614 2.8827 18.156 2.87891 18.1504L2.70312 17.8818C2.67629 17.8395 2.65029 17.7966 2.62402 17.7539C2.60627 17.725 2.58878 17.696 2.57129 17.667C2.40518 17.3912 2.25129 17.1073 2.10938 16.8164C2.09476 16.7865 2.07978 16.7567 2.06543 16.7266C1.99684 16.5826 1.9306 16.4373 1.86816 16.29C1.85991 16.2706 1.8519 16.251 1.84375 16.2314C1.79106 16.1051 1.74143 15.9773 1.69336 15.8486C1.6778 15.807 1.66156 15.7655 1.64648 15.7236C1.59475 15.5798 1.54584 15.4346 1.5 15.2881C1.48967 15.2551 1.48073 15.2216 1.4707 15.1885C1.43114 15.0577 1.39415 14.9258 1.35938 14.793C1.35196 14.7646 1.34411 14.7364 1.33691 14.708C1.25633 14.3897 1.18985 14.066 1.1377 13.7373C1.1314 13.6976 1.12501 13.658 1.11914 13.6182C1.0707 13.2896 1.03727 12.9565 1.01855 12.6191C1.0165 12.5821 1.01438 12.545 1.0127 12.5078C1.00504 12.3395 1 12.1702 1 12C1 11.8294 1.00501 11.6599 1.0127 11.4912C1.01439 11.454 1.01649 11.417 1.01855 11.3799C1.03731 11.0426 1.07066 10.7094 1.11914 10.3809C1.12501 10.3411 1.1314 10.3014 1.1377 10.2617C1.18957 9.93512 1.25501 9.61321 1.33496 9.29688C1.34388 9.26156 1.35402 9.22659 1.36328 9.19141C1.39696 9.06354 1.43258 8.93654 1.4707 8.81055C1.48342 8.76853 1.49559 8.72638 1.50879 8.68457C1.55191 8.54802 1.59726 8.41251 1.64551 8.27832C1.66196 8.23254 1.67924 8.1871 1.69629 8.1416C1.73933 8.02673 1.78432 7.91281 1.83105 7.7998C1.84573 7.76431 1.85997 7.72866 1.875 7.69336C1.93477 7.55305 1.99812 7.41459 2.06348 7.27734C2.08026 7.2421 2.09711 7.20691 2.11426 7.17188C2.2537 6.88693 2.40567 6.60931 2.56836 6.33887C2.58877 6.30494 2.60912 6.271 2.62988 6.2373C2.69945 6.12443 2.77027 6.01246 2.84375 5.90234C2.85939 5.87891 2.87481 5.85534 2.89062 5.83203C2.97757 5.70388 3.06803 5.5783 3.16016 5.4541C3.18549 5.41995 3.21159 5.38639 3.2373 5.35254C3.31452 5.25092 3.39204 5.14959 3.47266 5.05078C3.49036 5.02908 3.50752 5.00692 3.52539 4.98535C3.6198 4.87143 3.71757 4.76037 3.81641 4.65039C3.85107 4.61182 3.8857 4.57323 3.9209 4.53516C3.99593 4.45399 4.07298 4.37476 4.15039 4.2959C4.18248 4.26321 4.2136 4.22956 4.24609 4.19727C4.34653 4.09745 4.4495 4.00019 4.55371 3.9043C4.59594 3.86543 4.6388 3.82727 4.68164 3.78906C4.75947 3.71964 4.83818 3.6512 4.91797 3.58398C4.95577 3.55214 4.99302 3.51962 5.03125 3.48828C5.14689 3.39349 5.26527 3.302 5.38477 3.21191C5.41393 3.18993 5.44327 3.16819 5.47266 3.14648C5.5845 3.06389 5.69747 2.98269 5.8125 2.9043C5.82876 2.89321 5.845 2.88209 5.86133 2.87109C5.99116 2.78362 6.12316 2.69917 6.25684 2.61719C6.29104 2.5962 6.3259 2.57628 6.36035 2.55566C6.40657 2.52801 6.45237 2.49964 6.49902 2.47266C6.51268 2.46476 6.52709 2.45838 6.54102 2.45117C8.14998 1.52936 10.0128 1 12 1ZM12 3C10.9473 3 9.93701 3.18152 8.99805 3.51367C11.4407 5.53025 13 8.58245 13 12C13 15.4173 11.4403 18.4686 8.99805 20.4854C9.9371 20.8176 10.9471 21 12 21C16.9706 21 21 16.9706 21 12C21 7.02944 16.9706 3 12 3ZM7.00098 4.51465C4.58839 6.12907 3 8.87911 3 12C3 14.6324 4.13012 17.0007 5.93164 18.6465C5.949 18.6623 5.96689 18.6776 5.98438 18.6934C6.30315 18.98 6.64253 19.2441 7 19.4834C9.41341 17.8675 11 15.1188 11 12C11 8.88105 9.41454 6.13051 7.00098 4.51465Z" fill="#9E9E9E"/>
</g>
</svg>
