<svg width="24" height="24" viewBox="0 0 24 24" fill="none" xmlns="http://www.w3.org/2000/svg">
<g id="icons/Operate/fill">
<path id="Union" d="M19.5 2C20.8807 2 22 3.11929 22 4.5V19.5C22 20.8807 20.8807 22 19.5 22H4.5C3.11929 22 2 20.8807 2 19.5V4.5C2 3.11929 3.11929 2 4.5 2H19.5ZM4.5 4C4.22386 4 4 4.22386 4 4.5V19.5C4 19.7761 4.22386 20 4.5 20H19.5C19.7761 20 20 19.7761 20 19.5V4.5C20 4.22386 19.7761 4 19.5 4H4.5ZM17 6C17.0563 6 17.1113 6.00571 17.165 6.01465C17.1738 6.01611 17.1827 6.01686 17.1914 6.01855L17.2012 6.02051C17.211 6.02252 17.2207 6.02504 17.2305 6.02734C17.251 6.0322 17.2717 6.0368 17.292 6.04297C17.3408 6.05783 17.3873 6.0778 17.4326 6.09961C17.4466 6.10635 17.4609 6.11269 17.4746 6.12012C17.6203 6.19887 17.7441 6.31255 17.835 6.4502C17.8597 6.48768 17.8812 6.52662 17.9004 6.56641C17.9222 6.61159 17.9412 6.65838 17.9561 6.70703C17.9623 6.72732 17.9668 6.74799 17.9717 6.76855C17.9893 6.84294 18 6.92022 18 7V17C18 17.5523 17.5523 18 17 18H7C6.93757 18 6.87664 17.9934 6.81738 17.9824C6.81349 17.9817 6.80955 17.9812 6.80566 17.9805C6.78948 17.9773 6.77371 17.9727 6.75781 17.9688C6.7415 17.9647 6.72512 17.961 6.70898 17.9561C6.6597 17.9411 6.61214 17.9225 6.56641 17.9004C6.52662 17.8812 6.48768 17.8597 6.4502 17.835C6.31255 17.7441 6.19887 17.6203 6.12012 17.4746C6.11269 17.4609 6.10635 17.4466 6.09961 17.4326C6.0778 17.3873 6.05783 17.3408 6.04297 17.292C6.0303 17.2503 6.02176 17.2077 6.01465 17.165C6.00571 17.1113 6 17.0563 6 17V7C6 6.44772 6.44772 6 7 6H17ZM9.41406 16H11.0859L16 11.0859V9.41406L9.41406 16ZM13.9141 16H16V13.9141L13.9141 16ZM8 12.9141V14.5859L14.5859 8H12.9141L8 12.9141ZM8 10.0859L10.0859 8H8V10.0859Z" fill="#9E9E9E"/>
</g>
</svg>
