<svg width="24" height="24" viewBox="0 0 24 24" fill="none" xmlns="http://www.w3.org/2000/svg">
<g id="icons/Operate/flip-camera">
<path id="Union" d="M2.0791 11.3418C2.44253 10.926 3.0744 10.8837 3.49023 11.2471C3.906 11.6105 3.94834 12.2424 3.58496 12.6582C3.16956 13.1336 3 13.585 3 14C3 14.7978 3.67287 15.789 5.37598 16.6406C6.45573 17.1805 7.83664 17.5968 9.40527 17.8193L9.29297 17.707C8.90244 17.3165 8.90244 16.6835 9.29297 16.293C9.68349 15.9024 10.3165 15.9024 10.707 16.293L12.707 18.293C13.0976 18.6835 13.0976 19.3165 12.707 19.707L10.707 21.707C10.3165 22.0976 9.68349 22.0976 9.29297 21.707C8.90244 21.3165 8.90244 20.6835 9.29297 20.293L9.71191 19.873C7.72426 19.6523 5.9211 19.1495 4.48145 18.4297C2.56565 17.4717 1 15.9634 1 14C1 12.9929 1.42423 12.0912 2.0791 11.3418ZM20.5098 11.2471C20.9256 10.8837 21.5575 10.926 21.9209 11.3418C22.5758 12.0912 23 12.9929 23 14C23 15.4594 22.1204 16.6746 20.9238 17.5713C19.7189 18.4743 18.0744 19.154 16.2139 19.5605C15.6745 19.6784 15.1415 19.3371 15.0234 18.7979C14.9056 18.2585 15.2469 17.7255 15.7861 17.6074C17.457 17.2424 18.8126 16.655 19.7246 15.9717C20.6451 15.2819 21 14.5909 21 14C21 13.585 20.8305 13.1336 20.415 12.6582C20.0517 12.2424 20.094 11.6105 20.5098 11.2471ZM14.6406 2.50977C14.9628 2.55546 15.2464 2.75641 15.3945 3.05273L16.1182 4.5H18L18.1025 4.50488C18.6067 4.55621 19 4.98232 19 5.5V13.5C19 14.0523 18.5523 14.5 18 14.5H6C5.44772 14.5 5 14.0523 5 13.5V5.5C5 4.94772 5.44772 4.5 6 4.5H7.88184L8.60547 3.05273L8.67676 2.93164C8.86169 2.66367 9.16854 2.5 9.5 2.5H14.5L14.6406 2.50977ZM9.39453 5.94727C9.22514 6.28605 8.87877 6.5 8.5 6.5H7V12.5H17V6.5H15.5C15.1212 6.5 14.7749 6.28605 14.6055 5.94727L13.8818 4.5H10.1182L9.39453 5.94727ZM12 6C13.6569 6 15 7.34315 15 9C15 10.6569 13.6569 12 12 12C10.3431 12 9 10.6569 9 9C9 7.34315 10.3431 6 12 6ZM12 8C11.4477 8 11 8.44772 11 9C11 9.55228 11.4477 10 12 10C12.5523 10 13 9.55228 13 9C13 8.44772 12.5523 8 12 8Z" fill="#9E9E9E"/>
</g>
</svg>
