<svg width="24" height="24" viewBox="0 0 24 24" fill="none" xmlns="http://www.w3.org/2000/svg">
<g id="icons/Operate/game-two">
<path id="Union" d="M11.3691 13.7246C11.7619 13.4043 12.3409 13.4269 12.707 13.793L14.707 15.793C14.8946 15.9805 15 16.2348 15 16.5V22C15 22.5523 14.5523 23 14 23H10C9.44771 23 9 22.5523 9 22V16.5L9.00488 16.4014C9.02757 16.1724 9.12883 15.9571 9.29297 15.793L11.293 13.793L11.3691 13.7246ZM11 16.9141V21H13V16.9141L12 15.9141L11 16.9141ZM7.59863 9.00488C7.82763 9.02757 8.04289 9.12883 8.20703 9.29297L10.207 11.293C10.5976 11.6835 10.5976 12.3165 10.207 12.707L8.20703 14.707C8.0195 14.8946 7.76522 15 7.5 15H2C1.44772 15 1 14.5523 1 14V10C1 9.44771 1.44772 9 2 9H7.5L7.59863 9.00488ZM22 9C22.5523 9 23 9.44771 23 10V14C23 14.5523 22.5523 15 22 15H16.5C16.2348 15 15.9805 14.8946 15.793 14.707L13.793 12.707C13.4024 12.3165 13.4024 11.6835 13.793 11.293L15.793 9.29297L15.8662 9.22656C16.0442 9.08073 16.2679 9 16.5 9H22ZM3 13H7.08594L8.08594 12L7.08594 11H3V13ZM15.9141 12L16.9141 13H21V11H16.9141L15.9141 12ZM14 1C14.5523 1 15 1.44772 15 2V7.5C15 7.76522 14.8946 8.0195 14.707 8.20703L12.707 10.207C12.3165 10.5976 11.6835 10.5976 11.293 10.207L9.29297 8.20703C9.10543 8.0195 9 7.76522 9 7.5V2C9 1.44772 9.44771 1 10 1H14ZM11 7.08594L12 8.08594L13 7.08594V3H11V7.08594Z" fill="#9E9E9E"/>
</g>
</svg>
