<svg width="24" height="24" viewBox="0 0 24 24" fill="none" xmlns="http://www.w3.org/2000/svg">
<g id="icons/Operate/lattice-pattern">
<path id="Union" d="M8 18C8.55228 18 9 18.4477 9 19V21C9 21.5523 8.55228 22 8 22C7.44772 22 7 21.5523 7 21V19C7 18.4477 7.44772 18 8 18ZM16 18C16.5523 18 17 18.4477 17 19V21C17 21.5523 16.5523 22 16 22C15.4477 22 15 21.5523 15 21V19C15 18.4477 15.4477 18 16 18ZM5 19C5.55228 19 6 19.4477 6 20C6 20.5523 5.55228 21 5 21H3C2.44772 21 2 20.5523 2 20C2 19.4477 2.44772 19 3 19H5ZM13 19C13.5523 19 14 19.4477 14 20C14 20.5523 13.5523 21 13 21H11C10.4477 21 10 20.5523 10 20C10 19.4477 10.4477 19 11 19H13ZM21 19C21.5523 19 22 19.4477 22 20C22 20.5523 21.5523 21 21 21H19C18.4477 21 18 20.5523 18 20C18 19.4477 18.4477 19 19 19H21ZM4 14C4.55228 14 5 14.4477 5 15V17C5 17.5523 4.55228 18 4 18C3.44772 18 3 17.5523 3 17V15C3 14.4477 3.44772 14 4 14ZM12 14C12.5523 14 13 14.4477 13 15V17C13 17.5523 12.5523 18 12 18C11.4477 18 11 17.5523 11 17V15C11 14.4477 11.4477 14 12 14ZM20 14C20.5523 14 21 14.4477 21 15V17C21 17.5523 20.5523 18 20 18C19.4477 18 19 17.5523 19 17V15C19 14.4477 19.4477 14 20 14ZM9 15C9.55228 15 10 15.4477 10 16C10 16.5523 9.55228 17 9 17H7C6.44772 17 6 16.5523 6 16C6 15.4477 6.44772 15 7 15H9ZM17 15C17.5523 15 18 15.4477 18 16C18 16.5523 17.5523 17 17 17H15C14.4477 17 14 16.5523 14 16C14 15.4477 14.4477 15 15 15H17ZM8 10C8.55228 10 9 10.4477 9 11V13C9 13.5523 8.55228 14 8 14C7.44772 14 7 13.5523 7 13V11C7 10.4477 7.44772 10 8 10ZM16 10C16.5523 10 17 10.4477 17 11V13C17 13.5523 16.5523 14 16 14C15.4477 14 15 13.5523 15 13V11C15 10.4477 15.4477 10 16 10ZM5 11C5.55228 11 6 11.4477 6 12C6 12.5523 5.55228 13 5 13H3C2.44772 13 2 12.5523 2 12C2 11.4477 2.44772 11 3 11H5ZM13 11C13.5523 11 14 11.4477 14 12C14 12.5523 13.5523 13 13 13H11C10.4477 13 10 12.5523 10 12C10 11.4477 10.4477 11 11 11H13ZM21 11C21.5523 11 22 11.4477 22 12C22 12.5523 21.5523 13 21 13H19C18.4477 13 18 12.5523 18 12C18 11.4477 18.4477 11 19 11H21ZM4 6C4.55228 6 5 6.44772 5 7V9C5 9.55228 4.55228 10 4 10C3.44772 10 3 9.55228 3 9V7C3 6.44772 3.44772 6 4 6ZM12 6C12.5523 6 13 6.44772 13 7V9C13 9.55228 12.5523 10 12 10C11.4477 10 11 9.55228 11 9V7C11 6.44772 11.4477 6 12 6ZM20 6C20.5523 6 21 6.44772 21 7V9C21 9.55228 20.5523 10 20 10C19.4477 10 19 9.55228 19 9V7C19 6.44772 19.4477 6 20 6ZM9 7C9.55228 7 10 7.44772 10 8C10 8.55228 9.55228 9 9 9H7C6.44772 9 6 8.55228 6 8C6 7.44772 6.44772 7 7 7H9ZM17 7C17.5523 7 18 7.44772 18 8C18 8.55228 17.5523 9 17 9H15C14.4477 9 14 8.55228 14 8C14 7.44772 14.4477 7 15 7H17ZM8 2C8.55228 2 9 2.44772 9 3V5C9 5.55228 8.55228 6 8 6C7.44772 6 7 5.55228 7 5V3C7 2.44772 7.44772 2 8 2ZM16 2C16.5523 2 17 2.44772 17 3V5C17 5.55228 16.5523 6 16 6C15.4477 6 15 5.55228 15 5V3C15 2.44772 15.4477 2 16 2ZM5 3C5.55228 3 6 3.44772 6 4C6 4.55228 5.55228 5 5 5H3C2.44772 5 2 4.55228 2 4C2 3.44772 2.44772 3 3 3H5ZM13 3C13.5523 3 14 3.44772 14 4C14 4.55228 13.5523 5 13 5H11C10.4477 5 10 4.55228 10 4C10 3.44772 10.4477 3 11 3H13ZM21 3C21.5523 3 22 3.44772 22 4C22 4.55228 21.5523 5 21 5H19C18.4477 5 18 4.55228 18 4C18 3.44772 18.4477 3 19 3H21Z" fill="#9E9E9E"/>
</g>
</svg>
