<svg width="24" height="24" viewBox="0 0 24 24" fill="none" xmlns="http://www.w3.org/2000/svg">
<g id="icons/Operate/loading-one">
<path id="Union" d="M12 19C12.5523 19 13 19.4477 13 20V22C13 22.5523 12.5523 23 12 23C11.4477 23 11 22.5523 11 22V20C11 19.4477 11.4477 19 12 19ZM7.13379 18.4277C7.40992 17.9495 8.02172 17.7854 8.5 18.0615C8.97827 18.3377 9.14229 18.9495 8.86621 19.4277L7.86621 21.1602C7.59001 21.6383 6.97823 21.8015 6.5 21.5254C6.02197 21.2493 5.85797 20.6383 6.13379 20.1602L7.13379 18.4277ZM15.5 18.0615C15.9783 17.7854 16.5901 17.9495 16.8662 18.4277L17.8662 20.1602C18.142 20.6383 17.978 21.2493 17.5 21.5254C17.0218 21.8015 16.41 21.6383 16.1338 21.1602L15.1338 19.4277C14.8577 18.9495 15.0217 18.3377 15.5 18.0615ZM4.57227 15.1338C5.05044 14.858 5.66138 15.022 5.9375 15.5C6.2136 15.9782 6.05041 16.59 5.57227 16.8662L3.83984 17.8662C3.36156 18.1423 2.74976 17.9783 2.47363 17.5C2.19755 17.0217 2.36158 16.4099 2.83984 16.1338L4.57227 15.1338ZM18.0615 15.5C18.3377 15.0217 18.9495 14.8577 19.4277 15.1338L21.1602 16.1338C21.6383 16.41 21.8015 17.0218 21.5254 17.5C21.2493 17.978 20.6383 18.142 20.1602 17.8662L18.4277 16.8662C17.9495 16.5901 17.7854 15.9783 18.0615 15.5ZM4 11C4.55228 11 5 11.4477 5 12C5 12.5523 4.55228 13 4 13H2C1.44772 13 1 12.5523 1 12C1 11.4477 1.44772 11 2 11H4ZM22 11C22.5523 11 23 11.4477 23 12C23 12.5523 22.5523 13 22 13H20C19.4477 13 19 12.5523 19 12C19 11.4477 19.4477 11 20 11H22ZM2.47363 6.5C2.74976 6.02173 3.36156 5.85771 3.83984 6.13379L5.57227 7.13379C6.05041 7.40998 6.2136 8.02177 5.9375 8.5C5.66138 8.97803 5.05044 9.14203 4.57227 8.86621L2.83984 7.86621C2.36158 7.59008 2.19755 6.97828 2.47363 6.5ZM20.1602 6.13379C20.6383 5.85797 21.2493 6.02197 21.5254 6.5C21.8015 6.97823 21.6383 7.59001 21.1602 7.86621L19.4277 8.86621C18.9495 9.14229 18.3377 8.97827 18.0615 8.5C17.7854 8.02172 17.9495 7.40992 18.4277 7.13379L20.1602 6.13379ZM6.5 2.47363C6.97828 2.19756 7.59008 2.36158 7.86621 2.83984L8.86621 4.57227C9.14203 5.05044 8.97803 5.66138 8.5 5.9375C8.02177 6.2136 7.40999 6.05041 7.13379 5.57227L6.13379 3.83984C5.85771 3.36156 6.02173 2.74976 6.5 2.47363ZM16.1338 2.83984C16.4099 2.36158 17.0217 2.19756 17.5 2.47363C17.9783 2.74976 18.1423 3.36156 17.8662 3.83984L16.8662 5.57227C16.59 6.05041 15.9782 6.2136 15.5 5.9375C15.022 5.66138 14.858 5.05044 15.1338 4.57227L16.1338 2.83984ZM12 1C12.5523 1 13 1.44772 13 2V4C13 4.55228 12.5523 5 12 5C11.4477 5 11 4.55228 11 4V2C11 1.44772 11.4477 1 12 1Z" fill="#9E9E9E"/>
</g>
</svg>
