<svg width="24" height="24" viewBox="0 0 24 24" fill="none" xmlns="http://www.w3.org/2000/svg">
<g id="icons/Operate/loading-two">
<path id="Union" d="M12 17C12.5523 17 13 17.4477 13 18V22C13 22.5523 12.5523 23 12 23C11.4477 23 11 22.5523 11 22V18C11 17.4477 11.4477 17 12 17ZM8.01562 19.0078C8.22705 18.4977 8.8121 18.2555 9.32227 18.4668C9.83226 18.6783 10.0746 19.2633 9.86328 19.7734L9.09766 21.6211C8.88629 22.1313 8.30124 22.3734 7.79102 22.1621C7.28088 21.9507 7.03868 21.3657 7.25 20.8555L8.01562 19.0078ZM14.6787 18.4668C15.1889 18.2555 15.774 18.4976 15.9854 19.0078L16.751 20.8555C16.9623 21.3656 16.72 21.9506 16.21 22.1621C15.6998 22.3735 15.1147 22.1313 14.9033 21.6211L14.1377 19.7734C13.9264 19.2632 14.1685 18.6782 14.6787 18.4668ZM7.0498 15.5352C7.44028 15.1447 8.07333 15.1448 8.46387 15.5352C8.85439 15.9257 8.85439 16.5587 8.46387 16.9492L5.63574 19.7773C5.24522 20.1679 4.6122 20.1679 4.22168 19.7773C3.83132 19.3868 3.83121 18.7538 4.22168 18.3633L7.0498 15.5352ZM15.5352 15.5352C15.9257 15.1446 16.5587 15.1446 16.9492 15.5352L19.7773 18.3633C20.1679 18.7538 20.1679 19.3868 19.7773 19.7773C19.3868 20.1679 18.7538 20.1679 18.3633 19.7773L15.5352 16.9492C15.1446 16.5587 15.1446 15.9257 15.5352 15.5352ZM4.22559 14.1387C4.73577 13.9273 5.32082 14.1696 5.53223 14.6797C5.74357 15.1899 5.50143 15.775 4.99121 15.9863L3.14355 16.752C2.63343 16.9632 2.04839 16.7209 1.83691 16.2109C1.6256 15.7008 1.86784 15.1157 2.37793 14.9043L4.22559 14.1387ZM18.4668 14.6797C18.6782 14.1695 19.2632 13.9273 19.7734 14.1387L21.6211 14.9043C22.1312 15.1157 22.3734 15.7007 22.1621 16.2109C21.9506 16.7209 21.3656 16.9632 20.8555 16.752L19.0078 15.9863C18.4977 15.7749 18.2555 15.1899 18.4668 14.6797ZM6 11C6.55228 11 7 11.4477 7 12C7 12.5523 6.55228 13 6 13H2C1.44772 13 1 12.5523 1 12C1 11.4477 1.44772 11 2 11H6ZM22 11C22.5523 11 23 11.4477 23 12C23 12.5523 22.5523 13 22 13H18C17.4477 13 17 12.5523 17 12C17 11.4477 17.4477 11 18 11H22ZM1.83691 7.78906C2.04831 7.2789 2.63335 7.0367 3.14355 7.24805L4.99121 8.01367C5.50138 8.22507 5.74357 8.81011 5.53223 9.32031C5.32075 9.83032 4.73571 10.0726 4.22559 9.86133L2.37793 9.0957C1.86777 8.88431 1.62557 8.29927 1.83691 7.78906ZM20.8555 7.24805C21.3657 7.03671 21.9507 7.27892 22.1621 7.78906C22.3735 8.29929 22.1313 8.88433 21.6211 9.0957L19.7734 9.86133C19.2633 10.0726 18.6783 9.83035 18.4668 9.32031C18.2555 8.81014 18.4977 8.2251 19.0078 8.01367L20.8555 7.24805ZM4.22168 4.22266C4.6122 3.83213 5.24522 3.83214 5.63574 4.22266L8.46387 7.05078C8.85439 7.4413 8.85439 8.07432 8.46387 8.46484C8.07334 8.85535 7.44032 8.85536 7.0498 8.46484L4.22168 5.63672C3.83116 5.2462 3.83116 4.61318 4.22168 4.22266ZM18.3633 4.22266C18.7538 3.83219 19.3868 3.8323 19.7773 4.22266C20.1679 4.61318 20.1679 5.2462 19.7773 5.63672L16.9492 8.46484C16.5587 8.85536 15.9257 8.85537 15.5352 8.46484C15.1448 8.07431 15.1447 7.44126 15.5352 7.05078L18.3633 4.22266ZM12 1C12.5523 1 13 1.44772 13 2V6C13 6.55228 12.5523 7 12 7C11.4477 7 11 6.55228 11 6V2C11 1.44772 11.4477 1 12 1ZM7.79102 1.83789C8.30122 1.62656 8.88626 1.86875 9.09766 2.37891L9.86328 4.22656C10.0746 4.73667 9.83223 5.32171 9.32227 5.5332C8.81207 5.74453 8.22702 5.50234 8.01562 4.99219L7.25 3.14453C7.03867 2.63433 7.28086 2.04928 7.79102 1.83789ZM14.9033 2.37891C15.1147 1.8688 15.6998 1.62656 16.21 1.83789C16.72 2.04936 16.9623 2.63439 16.751 3.14453L15.9854 4.99219C15.774 5.50241 15.1889 5.74456 14.6787 5.5332C14.1686 5.32179 13.9264 4.73675 14.1377 4.22656L14.9033 2.37891Z" fill="#9E9E9E"/>
</g>
</svg>
