<svg width="24" height="24" viewBox="0 0 24 24" fill="none" xmlns="http://www.w3.org/2000/svg">
<g id="icons/Operate/magnet">
<path id="Union" d="M7 1C7.55228 1 8 1.44772 8 2V13C8 15.2091 9.79088 17 12 17C14.2091 17 16 15.2091 16 13V2C16 1.44772 16.4477 1 17 1H21C21.5523 1 22 1.44772 22 2V13C22 18.5228 17.5228 23 12 23C6.47717 23 2 18.5228 2 13V2C2 1.44772 2.44772 1 3 1H7ZM18 6V13C18 16.3137 15.3137 19 12 19C8.68632 19 6 16.3137 6 13V6H4V13C4 17.4183 7.58173 21 12 21C16.4183 21 20 17.4183 20 13V6H18ZM4 4H6V3H4V4ZM18 4H20V3H18V4Z" fill="#9E9E9E"/>
</g>
</svg>
