<svg width="24" height="24" viewBox="0 0 24 24" fill="none" xmlns="http://www.w3.org/2000/svg">
<g id="icons/Operate/mask-one">
<path id="Union" d="M17.6211 18.4023C17.9906 17.9919 18.6227 17.9587 19.0332 18.3281C19.4434 18.6976 19.4768 19.3298 19.1074 19.7402C18.1926 20.7567 17.0934 21.5826 15.8633 22.1494C14.6756 22.6966 13.3697 23 12 23C10.6303 23 9.32441 22.6966 8.13672 22.1494C6.9066 21.5826 5.80742 20.7567 4.89258 19.7402C4.52322 19.3298 4.5566 18.6976 4.9668 18.3281C5.37728 17.9587 6.00943 17.9919 6.37891 18.4023C7.12206 19.2281 8.00366 19.8861 8.97363 20.333C9.9082 20.7636 10.9293 21 12 21C13.0707 21 14.0918 20.7636 15.0264 20.333C15.9963 19.8861 16.8779 19.2281 17.6211 18.4023ZM12 13.5C12.8404 13.5 13.6497 13.7025 14.2822 14.082C14.8948 14.4496 15.5 15.0965 15.5 16C15.5 16.9034 14.8948 17.5504 14.2822 17.918C13.6497 18.2975 12.8404 18.5 12 18.5C11.1596 18.5 10.3503 18.2975 9.71777 17.918C9.10517 17.5504 8.5 16.9034 8.5 16C8.5 15.0965 9.10516 14.4496 9.71777 14.082C10.3503 13.7025 11.1596 13.5 12 13.5ZM2.74609 7.82227C2.93929 7.30516 3.51498 7.04248 4.03223 7.23535C4.54949 7.42839 4.81287 8.00418 4.62012 8.52148C4.22172 9.58902 4 10.7639 4 12C4 13.2361 4.22172 14.411 4.62012 15.4785C4.81286 15.9958 4.54949 16.5716 4.03223 16.7646C3.51499 16.9575 2.9393 16.6948 2.74609 16.1777C2.26447 14.8872 2 13.4756 2 12C2 10.5244 2.26447 9.11282 2.74609 7.82227ZM19.9678 7.23535C20.485 7.04247 21.0607 7.30516 21.2539 7.82227C21.7355 9.11282 22 10.5244 22 12C22 13.4756 21.7355 14.8872 21.2539 16.1777C21.0607 16.6948 20.485 16.9575 19.9678 16.7646C19.4505 16.5716 19.1871 15.9958 19.3799 15.4785C19.7783 14.411 20 13.2361 20 12C20 10.7639 19.7783 9.58902 19.3799 8.52148C19.1871 8.00418 19.4505 7.42839 19.9678 7.23535ZM12 15.5C11.4599 15.5 11.0194 15.6336 10.7471 15.7969C10.5905 15.8908 10.5304 15.9639 10.5088 16C10.5304 16.0361 10.5905 16.1092 10.7471 16.2031C11.0194 16.3664 11.4599 16.5 12 16.5C12.5401 16.5 12.9806 16.3664 13.2529 16.2031C13.4089 16.1095 13.4684 16.0363 13.4902 16C13.4684 15.9637 13.4089 15.8905 13.2529 15.7969C12.9806 15.6336 12.5401 15.5 12 15.5ZM9 7.5C10.3807 7.5 11.5 8.61927 11.5 10C11.5 11.3807 10.3808 12.5 9 12.5C7.61924 12.5 6.5 11.3807 6.5 10C6.5 8.61927 7.61927 7.5 9 7.5ZM15 7.5C16.3807 7.5 17.5 8.61927 17.5 10C17.5 11.3807 16.3808 12.5 15 12.5C13.6192 12.5 12.5 11.3807 12.5 10C12.5 8.61927 13.6193 7.5 15 7.5ZM9 9.5C8.72383 9.5 8.5 9.72383 8.5 10C8.5 10.2761 8.72386 10.5 9 10.5C9.27614 10.5 9.5 10.2761 9.5 10C9.5 9.72383 9.27617 9.5 9 9.5ZM15 9.5C14.7238 9.5 14.5 9.72383 14.5 10C14.5 10.2761 14.7239 10.5 15 10.5C15.2761 10.5 15.5 10.2761 15.5 10C15.5 9.72383 15.2762 9.5 15 9.5ZM12 1C13.3697 1 14.6756 1.30339 15.8633 1.85059C17.0934 2.41735 18.1926 3.24328 19.1074 4.25977C19.4768 4.67017 19.4434 5.30237 19.0332 5.67188C18.6227 6.04131 17.9906 6.00808 17.6211 5.59766C16.8779 4.77193 15.9963 4.11388 15.0264 3.66699C14.0918 3.23643 13.0707 3 12 3C9.82719 3 7.83822 3.97617 6.37891 5.59766C6.00944 6.00808 5.37728 6.0413 4.9668 5.67188C4.55661 5.30238 4.52323 4.67017 4.89258 4.25977C6.69056 2.26198 9.20223 1 12 1Z" fill="#9E9E9E"/>
</g>
</svg>
