<svg width="24" height="24" viewBox="0 0 24 24" fill="none" xmlns="http://www.w3.org/2000/svg">
<g id="icons/Operate/material-two">
<path id="Union" d="M12 1C18.0751 1 23 5.92487 23 12C23 18.0751 18.0751 23 12 23C5.92487 23 1 18.0751 1 12C1 5.92487 5.92487 1 12 1ZM12 3C7.02943 3 3 7.02943 3 12C3 16.9706 7.02943 21 12 21C16.9706 21 21 16.9706 21 12C21 7.02943 16.9706 3 12 3ZM18 11C18.5523 11 19 11.4477 19 12C19 15.866 15.866 19 12 19C11.4477 19 11 18.5523 11 18C11 17.4477 11.4477 17 12 17C14.7614 17 17 14.7614 17 12C17 11.4477 17.4477 11 18 11Z" fill="#9E9E9E"/>
</g>
</svg>
