<svg width="24" height="24" viewBox="0 0 24 24" fill="none" xmlns="http://www.w3.org/2000/svg">
<g id="icons/Operate/mirror-one">
<path id="Union" d="M12 1C16.9706 1 21 5.02944 21 10C21 14.6325 17.4998 18.4448 13 18.9424V21H17C17.5523 21 18 21.4477 18 22C18 22.5523 17.5523 23 17 23H7C6.44772 23 6 22.5523 6 22C6 21.4477 6.44772 21 7 21H11V18.9424C6.50019 18.4448 3 14.6325 3 10C3 5.02944 7.02944 1 12 1ZM12 3C8.13401 3 5 6.13401 5 10C5 13.866 8.13401 17 12 17C15.866 17 19 13.866 19 10C19 6.13401 15.866 3 12 3Z" fill="#9E9E9E"/>
</g>
</svg>
