<svg width="24" height="24" viewBox="0 0 24 24" fill="none" xmlns="http://www.w3.org/2000/svg">
<g id="icons/Operate/pic-one">
<path id="Union" d="M12 1C18.0751 1 23 5.92487 23 12C23 18.0751 18.0751 23 12 23C5.92487 23 1 18.0751 1 12C1 5.92487 5.92487 1 12 1ZM5.80957 18.5303C7.42287 20.0601 9.60118 21 12 21C13.0249 21 14.009 20.8263 14.9268 20.5107L8.61035 15.3789L5.80957 18.5303ZM13.2344 16.5576L16.9072 19.542C18.2431 18.671 19.3327 17.4563 20.0508 16.0215L16.1562 12.9062L13.2344 16.5576ZM12 3C7.02944 3 3 7.02944 3 12C3 13.8445 3.55586 15.5588 4.50781 16.9863L7.75293 13.3359L7.82227 13.2646C8.18341 12.9311 8.74161 12.9074 9.13086 13.2236L11.6816 15.2959L15.2188 10.875L15.2871 10.7988C15.6421 10.437 16.2207 10.3953 16.625 10.7188L20.7666 14.0322C20.9174 13.3789 21 12.6991 21 12C21 7.02944 16.9706 3 12 3ZM9 5.5C10.6569 5.5 12 6.84315 12 8.5C12 10.1569 10.6569 11.5 9 11.5C7.34315 11.5 6 10.1569 6 8.5C6 6.84315 7.34315 5.5 9 5.5ZM9 7.5C8.44772 7.5 8 7.94772 8 8.5C8 9.05229 8.44772 9.5 9 9.5C9.55229 9.5 10 9.05229 10 8.5C10 7.94772 9.55229 7.5 9 7.5Z" fill="#9E9E9E"/>
</g>
</svg>
