<svg width="24" height="24" viewBox="0 0 24 24" fill="none" xmlns="http://www.w3.org/2000/svg">
<g id="icons/Operate/recycle-bin" clip-path="url(#clip0_56_13066)">
<path id="Union" d="M18.4901 13.3896C18.9652 13.1081 19.5787 13.2652 19.8602 13.7402L23.8602 20.4902C24.0434 20.7993 24.0468 21.183 23.869 21.4951C23.6911 21.8073 23.3591 22 22.9999 22H14.9999C14.4477 21.9999 13.9999 21.5522 13.9999 21C13.9999 20.4478 14.4477 20.0001 14.9999 20H21.245L18.1395 14.7598C17.8581 14.2847 18.0151 13.6712 18.4901 13.3896ZM4.13367 13.5C4.40977 13.0218 5.02162 12.8578 5.49988 13.1338C5.97815 13.4099 6.14217 14.0217 5.86609 14.5L2.74304 19.9082L8.83386 19.8389C9.38611 19.8326 9.83931 20.2759 9.84558 20.8281C9.85164 21.3801 9.40924 21.8324 8.8573 21.8389L1.0116 21.9277C0.652502 21.9318 0.318025 21.7435 0.136597 21.4336C-0.0447645 21.1235 -0.0459319 20.7389 0.133667 20.4277L4.13367 13.5ZM15.411 13.5C15.9632 13.5002 16.411 13.9478 16.411 14.5C16.411 15.0522 15.9632 15.4998 15.411 15.5H8.49988C7.94766 15.4999 7.49988 15.0522 7.49988 14.5C7.49988 13.9478 7.94766 13.5001 8.49988 13.5H15.411ZM11.9999 1.25C12.3531 1.25 12.6802 1.43641 12.8602 1.74023L16.8602 8.49023C17.1417 8.96535 16.9848 9.57881 16.5096 9.86035C16.0345 10.1418 15.4211 9.98484 15.1395 9.50977L11.9999 4.21094L8.86023 9.50977C8.57867 9.98482 7.96521 10.1419 7.49011 9.86035C7.01511 9.57879 6.85809 8.96531 7.13953 8.49023L11.1395 1.74023C11.3196 1.43641 11.6467 1.25005 11.9999 1.25Z" fill="#9E9E9E"/>
</g>
<defs>
<clipPath id="clip0_56_13066">
<rect width="24" height="24" fill="white"/>
</clipPath>
</defs>
</svg>
