<svg width="24" height="24" viewBox="0 0 24 24" fill="none" xmlns="http://www.w3.org/2000/svg">
<g id="icons/Operate/reverse-rotation">
<path id="Union" d="M20.6621 16C21.2144 16 21.6621 16.4477 21.6621 17V20.6621C21.6621 21.2144 21.2144 21.6621 20.6621 21.6621C20.1099 21.6621 19.6621 21.2144 19.6621 20.6621V19.8896C17.6819 21.813 14.9804 23 12 23C11.4477 23 11 22.5523 11 22C11 21.4477 11.4477 21 12 21C14.6643 21 17.0582 19.8419 18.707 18H17C16.4477 18 16 17.5523 16 17C16 16.4477 16.4477 16 17 16H20.6621ZM2 11C2.55228 11 3 11.4477 3 12C3 14.6641 4.1584 17.0573 6 18.7061V17C6 16.4477 6.44772 16 7 16C7.55228 16 8 16.4477 8 17V20.6621C8 21.2144 7.55228 21.6621 7 21.6621H3.33789C2.78561 21.6621 2.33789 21.2144 2.33789 20.6621C2.33794 20.1099 2.78564 19.6621 3.33789 19.6621H4.10938C2.18627 17.6819 1 14.9801 1 12C1 11.4477 1.44772 11 2 11ZM20.6621 2.33789C21.2144 2.33789 21.6621 2.78561 21.6621 3.33789C21.6621 3.89014 21.2144 4.33789 20.6621 4.33789H19.8906C21.8137 6.31808 23 9.01987 23 12C23 12.5523 22.5523 13 22 13C21.4477 13 21 12.5523 21 12C21 9.3357 19.8419 6.94174 18 5.29297V7L17.9951 7.10254C17.9852 7.20021 17.9608 7.29357 17.9248 7.38086C17.9196 7.39354 17.913 7.40556 17.9072 7.41797C17.8863 7.46328 17.8622 7.50651 17.835 7.54785C17.8283 7.55806 17.8215 7.56818 17.8145 7.57812C17.8022 7.5954 17.7897 7.61247 17.7764 7.62891C17.772 7.63429 17.7672 7.63924 17.7627 7.64453C17.7476 7.66233 17.7321 7.67959 17.7158 7.69629C17.7094 7.7029 17.7029 7.70939 17.6963 7.71582C17.6784 7.7332 17.6598 7.74961 17.6406 7.76562C17.6369 7.76873 17.6336 7.77234 17.6299 7.77539C17.6122 7.78977 17.5939 7.80324 17.5752 7.81641C17.5652 7.82344 17.5552 7.83024 17.5449 7.83691C17.5258 7.84936 17.5063 7.86092 17.4863 7.87207C17.4814 7.87485 17.4767 7.87816 17.4717 7.88086C17.4545 7.89008 17.4367 7.89803 17.4189 7.90625C17.4024 7.9139 17.3861 7.92195 17.3691 7.92871C17.364 7.93077 17.3587 7.9326 17.3535 7.93457C17.3298 7.94355 17.3058 7.9518 17.2812 7.95898C17.2362 7.97215 17.19 7.98151 17.1426 7.98828C17.0959 7.99495 17.0485 8 17 8C16.9512 8 16.9034 7.99504 16.8564 7.98828C16.8091 7.98146 16.7628 7.97219 16.7178 7.95898C16.6933 7.95178 16.6692 7.94356 16.6455 7.93457C16.6403 7.93259 16.635 7.93077 16.6299 7.92871C16.6129 7.92194 16.5966 7.91391 16.5801 7.90625C16.5623 7.89801 16.5445 7.89009 16.5273 7.88086C16.5223 7.87816 16.5177 7.87485 16.5127 7.87207C16.4928 7.86091 16.4732 7.84937 16.4541 7.83691C16.4439 7.83024 16.4338 7.82344 16.4238 7.81641C16.4052 7.80323 16.3868 7.78978 16.3691 7.77539C16.3654 7.77234 16.3621 7.76873 16.3584 7.76562C16.3393 7.7496 16.3206 7.7332 16.3027 7.71582C16.2961 7.70939 16.2896 7.7029 16.2832 7.69629C16.267 7.67959 16.2514 7.66233 16.2363 7.64453C16.2319 7.63925 16.227 7.63429 16.2227 7.62891C16.2093 7.61247 16.1968 7.5954 16.1846 7.57812C16.1775 7.56819 16.1708 7.55805 16.1641 7.54785C16.1369 7.50653 16.1127 7.46325 16.0918 7.41797C16.0861 7.40557 16.0794 7.39353 16.0742 7.38086C16.0383 7.29366 16.0148 7.20008 16.0049 7.10254L16 7V3.33789C16 2.78561 16.4477 2.33789 17 2.33789H20.6621ZM12 1C12.5523 1 13 1.44772 13 2C13 2.55228 12.5523 3 12 3C9.33569 3 6.94174 4.15812 5.29297 6H7C7.55228 6 8 6.44772 8 7C8 7.55228 7.55228 8 7 8H3.33789C2.78561 8 2.33789 7.55228 2.33789 7V3.33789C2.33789 2.78561 2.78561 2.33789 3.33789 2.33789C3.78643 2.33792 4.16621 2.63321 4.29297 3.04004C4.3028 3.07159 4.31068 3.10391 4.31738 3.13672C4.33066 3.20172 4.33789 3.26897 4.33789 3.33789V4.10938C6.31808 2.18627 9.01987 1 12 1Z" fill="#9E9E9E"/>
</g>
</svg>
