<svg width="24" height="24" viewBox="0 0 24 24" fill="none" xmlns="http://www.w3.org/2000/svg">
<g id="icons/Operate/rotation">
<path id="Union" d="M12 1C18.0751 1 23 5.92487 23 12C23 18.0751 18.0751 23 12 23C11.8193 23 11.6396 22.9959 11.4609 22.9873C10.9093 22.9606 10.4841 22.4911 10.5107 21.9395C10.5376 21.388 11.0061 20.9626 11.5576 20.9893C11.7041 20.9963 11.8516 21 12 21C16.9706 21 21 16.9706 21 12C21 7.02943 16.9706 3 12 3C11.8516 3 11.7041 3.00366 11.5576 3.01074C11.0061 3.0374 10.5376 2.61197 10.5107 2.06055C10.4841 1.50891 10.9093 1.03936 11.4609 1.0127C11.6396 1.00406 11.8193 1 12 1ZM6.81934 20.6143C7.05579 20.1152 7.65229 19.9023 8.15137 20.1387C8.4163 20.2642 8.68851 20.377 8.9668 20.4766C9.48679 20.6626 9.75737 21.2349 9.57129 21.7549C9.38517 22.2748 8.81293 22.5455 8.29297 22.3594C7.9523 22.2375 7.61903 22.0989 7.29492 21.9453C6.79633 21.7088 6.58331 21.1131 6.81934 20.6143ZM3.91895 17.9746C4.32806 17.6039 4.96013 17.6349 5.33105 18.0439C5.52908 18.2623 5.7377 18.4709 5.95605 18.6689C6.36506 19.0399 6.39612 19.6719 6.02539 20.0811C5.65438 20.4902 5.02141 20.5214 4.6123 20.1504C4.34584 19.9087 4.09127 19.6542 3.84961 19.3877C3.4786 18.9786 3.50984 18.3456 3.91895 17.9746ZM2.24512 14.4287C2.76511 14.2426 3.33735 14.5132 3.52344 15.0332C3.62303 15.3115 3.73581 15.5837 3.86133 15.8486C4.09773 16.3477 3.88481 16.9442 3.38574 17.1807C2.8869 17.4167 2.29123 17.2037 2.05469 16.7051C1.90112 16.381 1.76254 16.0477 1.64062 15.707C1.45455 15.1871 1.72518 14.6148 2.24512 14.4287ZM2.06055 10.5107C2.61197 10.5376 3.0374 11.0061 3.01074 11.5576C3.00366 11.7041 3 11.8516 3 12C3 12.1484 3.00366 12.2959 3.01074 12.4424C3.0374 12.9939 2.61197 13.4624 2.06055 13.4893C1.50891 13.5159 1.03936 13.0907 1.0127 12.5391C1.00406 12.3604 1 12.1807 1 12C1 11.8193 1.00406 11.6396 1.0127 11.4609C1.03936 10.9093 1.50891 10.4841 2.06055 10.5107ZM2.05469 7.29492C2.29123 6.79633 2.8869 6.58331 3.38574 6.81934C3.88481 7.05579 4.09773 7.65229 3.86133 8.15137C3.73581 8.4163 3.62303 8.68851 3.52344 8.9668C3.33735 9.48679 2.76511 9.75737 2.24512 9.57129C1.72518 9.38517 1.45455 8.81293 1.64062 8.29297C1.76254 7.9523 1.90112 7.61903 2.05469 7.29492ZM4.6123 3.84961C5.02141 3.4786 5.65438 3.50984 6.02539 3.91895C6.39612 4.32806 6.36506 4.96013 5.95605 5.33105C5.7377 5.52908 5.52908 5.7377 5.33105 5.95605C4.96013 6.36506 4.32806 6.39612 3.91895 6.02539C3.50984 5.65438 3.4786 5.02141 3.84961 4.6123C4.09127 4.34584 4.34584 4.09127 4.6123 3.84961ZM8.29297 1.64062C8.81293 1.45455 9.38517 1.72518 9.57129 2.24512C9.75737 2.76511 9.48679 3.33735 8.9668 3.52344C8.68851 3.62303 8.4163 3.73581 8.15137 3.86133C7.65229 4.09773 7.05579 3.88481 6.81934 3.38574C6.58331 2.8869 6.79633 2.29123 7.29492 2.05469C7.61903 1.90112 7.9523 1.76254 8.29297 1.64062Z" fill="#9E9E9E"/>
</g>
</svg>
