<svg width="24" height="24" viewBox="0 0 24 24" fill="none" xmlns="http://www.w3.org/2000/svg">
<g id="icons/Operate/rotating-add">
<path id="Union" d="M20.6621 16C21.2144 16 21.6621 16.4477 21.6621 17V20.6621C21.6621 21.2144 21.2144 21.6621 20.6621 21.6621C20.1099 21.6621 19.6621 21.2144 19.6621 20.6621V19.8896C17.6819 21.813 14.9804 23 12 23C11.4477 23 11 22.5523 11 22C11 21.4477 11.4477 21 12 21C14.6643 21 17.0582 19.8419 18.707 18H17C16.4477 18 16 17.5523 16 17C16 16.4477 16.4477 16 17 16H20.6621ZM2 11C2.55228 11 3 11.4477 3 12C3 14.6641 4.1584 17.0573 6 18.7061V17C6 16.4477 6.44772 16 7 16C7.55228 16 8 16.4477 8 17V20.6621C8 21.2144 7.55228 21.6621 7 21.6621H3.33789C2.78561 21.6621 2.33789 21.2144 2.33789 20.6621C2.33794 20.1099 2.78564 19.6621 3.33789 19.6621H4.10938C2.18627 17.6819 1 14.9801 1 12C1 11.4477 1.44772 11 2 11ZM12 8C12.5523 8 13 8.44772 13 9V11H15C15.5523 11 16 11.4477 16 12C16 12.5523 15.5523 13 15 13H13V15C13 15.5523 12.5523 16 12 16C11.4477 16 11 15.5523 11 15V13H9C8.44772 13 8 12.5523 8 12C8 11.4477 8.44772 11 9 11H11V9C11 8.44772 11.4477 8 12 8ZM20.6621 2.33789C21.2144 2.33789 21.6621 2.78561 21.6621 3.33789C21.6621 3.89018 21.2144 4.33789 20.6621 4.33789H19.8906C21.8137 6.31807 23 9.01987 23 12C23 12.5523 22.5523 13 22 13C21.4477 13 21 12.5523 21 12C21 9.3357 19.8419 6.94174 18 5.29297V7L17.9951 7.10254C17.9438 7.60669 17.5177 8 17 8C16.4823 8 16.0562 7.60669 16.0049 7.10254L16 7V3.33789C16 2.78561 16.4477 2.33789 17 2.33789H20.6621ZM12 1C12.5523 1 13 1.44772 13 2C13 2.55228 12.5523 3 12 3C9.3357 3.00001 6.94174 4.1581 5.29297 6H7C7.55228 6 8 6.44772 8 7C8 7.55228 7.55228 8 7 8H3.33789C2.78561 8 2.33789 7.55228 2.33789 7V3.33789C2.33789 2.78561 2.78561 2.33789 3.33789 2.33789C3.89018 2.33789 4.33789 2.78561 4.33789 3.33789V4.10938C6.31807 2.18626 9.01987 1.00001 12 1Z" fill="#9E9E9E"/>
</g>
</svg>
