<svg width="24" height="24" viewBox="0 0 24 24" fill="none" xmlns="http://www.w3.org/2000/svg">
<g id="icons/Operate/rotating-forward">
<path id="Union" d="M7.10254 16.0049C7.60664 16.0562 8 16.4823 8 17C8 17.5177 7.60664 17.9438 7.10254 17.9951L7 18H5.29297C6.94173 19.8419 9.33574 21 12 21C12.5522 21.0001 13 21.4478 13 22C13 22.5522 12.5522 22.9999 12 23C9.01967 23 6.3181 21.813 4.33789 19.8896V20.6621C4.33789 21.2144 3.89012 21.662 3.33789 21.6621C2.78561 21.6621 2.33789 21.2144 2.33789 20.6621V17C2.33789 16.4477 2.78561 16 3.33789 16H7L7.10254 16.0049ZM22 11C22.5523 11 23 11.4477 23 12C23 14.9801 21.8137 17.6819 19.8906 19.6621H20.6621C21.2144 19.6621 21.6621 20.1099 21.6621 20.6621C21.6621 21.2144 21.2144 21.6621 20.6621 21.6621H17C16.4477 21.6621 16 21.2144 16 20.6621V17C16 16.4477 16.4477 16 17 16C17.5523 16 18 16.4477 18 17V18.7061C19.8416 17.0573 21 14.6641 21 12C21 11.4477 21.4477 11 22 11ZM7.10254 2.34277C7.60667 2.39411 8 2.82021 8 3.33789V7C8 7.55228 7.55228 8 7 8C6.44772 8 6 7.55228 6 7V5.29297C4.1581 6.94174 3.00001 9.3357 3 12C3 12.5523 2.55228 13 2 13C1.44772 13 1 12.5523 1 12C1.00001 9.01987 2.18626 6.31807 4.10938 4.33789H3.33789C2.78561 4.33789 2.33789 3.89018 2.33789 3.33789C2.33789 2.78561 2.78561 2.33789 3.33789 2.33789H7L7.10254 2.34277ZM12 1C14.9801 1 17.6819 2.18626 19.6621 4.10938V3.33789C19.6621 2.78562 20.1098 2.33791 20.6621 2.33789C21.2144 2.33789 21.6621 2.78561 21.6621 3.33789V7C21.6621 7.55228 21.2144 8 20.6621 8H17C16.4477 8 16 7.55228 16 7C16 6.44772 16.4477 6 17 6H18.707C17.0583 4.1581 14.6643 3 12 3C11.4477 3 11 2.55228 11 2C11 1.44772 11.4477 1 12 1Z" fill="#9E9E9E"/>
</g>
</svg>
