<svg width="24" height="24" viewBox="0 0 24 24" fill="none" xmlns="http://www.w3.org/2000/svg">
<g id="icons/Operate/scan-setting">
<path id="Union" d="M20 1.5C21.3807 1.5 22.5 2.61929 22.5 4V20C22.5 21.3807 21.3807 22.5 20 22.5H4C2.61929 22.5 1.5 21.3807 1.5 20V4C1.5 2.61929 2.61929 1.5 4 1.5H20ZM4 3.5C3.72386 3.5 3.5 3.72386 3.5 4V20C3.5 20.2761 3.72386 20.5 4 20.5H20C20.2761 20.5 20.5 20.2761 20.5 20V4C20.5 3.72386 20.2761 3.5 20 3.5H4ZM12.793 16.293C13.1835 15.9024 13.8165 15.9024 14.207 16.293C14.5976 16.6835 14.5976 17.3165 14.207 17.707L12.707 19.207C12.3165 19.5976 11.6835 19.5976 11.293 19.207L9.79297 17.707C9.40244 17.3165 9.40244 16.6835 9.79297 16.293C10.1835 15.9024 10.8165 15.9024 11.207 16.293L12 17.0859L12.793 16.293ZM6.29297 9.79297C6.68349 9.40244 7.31651 9.40244 7.70703 9.79297C8.09756 10.1835 8.09756 10.8165 7.70703 11.207L6.91406 12L7.70703 12.793C8.09756 13.1835 8.09756 13.8165 7.70703 14.207C7.31651 14.5976 6.68349 14.5976 6.29297 14.207L4.79297 12.707C4.40244 12.3165 4.40244 11.6835 4.79297 11.293L6.29297 9.79297ZM16.293 9.79297C16.6835 9.40244 17.3165 9.40244 17.707 9.79297L19.207 11.293C19.5976 11.6835 19.5976 12.3165 19.207 12.707L17.707 14.207C17.3165 14.5976 16.6835 14.5976 16.293 14.207C15.9024 13.8165 15.9024 13.1835 16.293 12.793L17.0859 12L16.293 11.207C15.9024 10.8165 15.9024 10.1835 16.293 9.79297ZM11.3691 4.72461C11.7619 4.40426 12.3409 4.42685 12.707 4.79297L14.207 6.29297C14.5976 6.68349 14.5976 7.31651 14.207 7.70703C13.8165 8.09756 13.1835 8.09756 12.793 7.70703L12 6.91406L11.207 7.70703C10.8165 8.09756 10.1835 8.09756 9.79297 7.70703C9.40244 7.31651 9.40244 6.68349 9.79297 6.29297L11.293 4.79297L11.3691 4.72461Z" fill="#9E9E9E"/>
</g>
</svg>
