<svg width="24" height="24" viewBox="0 0 24 24" fill="none" xmlns="http://www.w3.org/2000/svg">
<g id="icons/Operate/screen-rotation">
<path id="Union" d="M2 11C2.55228 11 3 11.4477 3 12C3 15.9587 5.55678 19.3178 9.1084 20.5225L8.79297 20.207C8.40244 19.8165 8.40244 19.1835 8.79297 18.793C9.18349 18.4024 9.81651 18.4024 10.207 18.793L12.707 21.293C12.993 21.579 13.0786 22.0091 12.9238 22.3828C12.769 22.7564 12.4044 23 12 23C5.92487 23 1 18.0751 1 12C1 11.4477 1.44772 11 2 11ZM8.36914 2.72461C8.76191 2.40426 9.34092 2.42685 9.70703 2.79297L21.207 14.293C21.5976 14.6835 21.5976 15.3165 21.207 15.707L15.707 21.207C15.3165 21.5976 14.6835 21.5976 14.293 21.207L2.79297 9.70703C2.40244 9.31651 2.40244 8.68349 2.79297 8.29297L8.29297 2.79297L8.36914 2.72461ZM4.91406 9L15 19.0859L19.0859 15L9 4.91406L4.91406 9ZM12 1C18.0751 1 23 5.92487 23 12C23 12.5523 22.5523 13 22 13C21.4477 13 21 12.5523 21 12C21 8.04085 18.4429 4.68087 14.8906 3.47656L15.207 3.79297C15.5976 4.18349 15.5976 4.81651 15.207 5.20703C14.8165 5.59756 14.1835 5.59756 13.793 5.20703L11.293 2.70703C11.007 2.42103 10.9214 1.99086 11.0762 1.61719C11.231 1.24359 11.5956 1 12 1Z" fill="#9E9E9E"/>
</g>
</svg>
