<svg width="24" height="24" viewBox="0 0 24 24" fill="none" xmlns="http://www.w3.org/2000/svg">
<g id="icons/Operate/stickers">
<path id="Union" d="M12 1C12.0369 1 12.0737 1.00278 12.1104 1.00684L12.123 1.00781C12.1322 1.00895 12.1413 1.0113 12.1504 1.0127C12.1716 1.01591 12.1929 1.01886 12.2139 1.02344C12.2241 1.02567 12.234 1.02871 12.2441 1.03125C12.2578 1.03467 12.2717 1.03702 12.2852 1.04102L12.3291 1.05566C12.3347 1.05763 12.3401 1.06043 12.3457 1.0625C12.3665 1.07015 12.3869 1.07881 12.4072 1.08789C12.4176 1.09253 12.4283 1.09658 12.4385 1.10156C12.4604 1.11226 12.4817 1.12432 12.5029 1.13672C12.5111 1.1415 12.5193 1.14635 12.5273 1.15137C12.548 1.1642 12.5681 1.17791 12.5879 1.19238C12.5964 1.19855 12.605 1.2045 12.6133 1.21094C12.6312 1.22491 12.6479 1.2405 12.665 1.25586C12.6743 1.26416 12.6844 1.27161 12.6934 1.28027C12.6978 1.28458 12.7026 1.28856 12.707 1.29297L22.707 11.293C22.7085 11.2944 22.7095 11.2964 22.7109 11.2979C22.7732 11.361 22.826 11.4315 22.8691 11.5078C22.8756 11.5193 22.8827 11.5303 22.8887 11.542C22.8962 11.5566 22.9024 11.5719 22.9092 11.5869C22.9174 11.605 22.9255 11.6231 22.9326 11.6416C22.9372 11.6535 22.9412 11.6656 22.9453 11.6777C22.9543 11.7042 22.962 11.7308 22.9688 11.7578C22.9705 11.7646 22.9721 11.7715 22.9736 11.7783C22.9795 11.8042 22.9845 11.8302 22.9883 11.8564C22.9901 11.8691 22.9918 11.8818 22.9932 11.8945C22.9945 11.9072 22.9952 11.9199 22.9961 11.9326C22.9976 11.955 23 11.9774 23 12C23 18.0751 18.0751 23 12 23C5.92487 23 1 18.0751 1 12C1 5.92487 5.92487 1 12 1ZM10.6885 3.0957C6.3396 3.7307 3 7.47495 3 12C3 16.9706 7.02943 21 12 21C16.5574 21 20.3204 17.6122 20.915 13.2178C20.3701 13.287 19.6887 13.339 18.9326 13.3115C17.066 13.2436 14.6398 12.6967 12.7676 10.6807C10.917 8.68771 10.4966 6.40685 10.5312 4.66797C10.5431 4.07696 10.6091 3.54317 10.6885 3.0957ZM12.5801 3.99414C12.5558 4.21686 12.5363 4.45557 12.5312 4.70703C12.5035 6.093 12.8334 7.81254 14.2324 9.31934C15.6101 10.803 17.4341 11.2563 19.0049 11.3135C19.3155 11.3248 19.6119 11.3162 19.8877 11.3018L12.5801 3.99414Z" fill="#9E9E9E"/>
</g>
</svg>
