<svg width="24" height="24" viewBox="0 0 24 24" fill="none" xmlns="http://www.w3.org/2000/svg">
<g id="icons/Operate/switch-track">
<path id="Union" d="M20 1C20.5523 1 21 1.44772 21 2V9C21 9.41673 20.7417 9.79008 20.3516 9.93652L5 15.6934V22C5 22.5523 4.55228 23 4 23C3.44772 23 3 22.5523 3 22V15C3 14.5833 3.25831 14.2099 3.64844 14.0635L19 8.30664V2C19 1.44772 19.4477 1 20 1ZM20 18.5C20.5523 18.5 21 18.9477 21 19.5V22C21 22.5523 20.5523 23 20 23C19.4477 23 19 22.5523 19 22V19.5C19 18.9477 19.4477 18.5 20 18.5ZM20 12C20.5523 12 21 12.4477 21 13V15.5C21 16.0523 20.5523 16.5 20 16.5C19.4477 16.5 19 16.0523 19 15.5V13C19 12.4477 19.4477 12 20 12ZM4 7.5C4.55228 7.5 5 7.94772 5 8.5V11C5 11.5523 4.55228 12 4 12C3.44772 12 3 11.5523 3 11V8.5C3 7.94772 3.44772 7.5 4 7.5ZM4 1C4.55228 1 5 1.44772 5 2V4.5C5 5.05228 4.55228 5.5 4 5.5C3.44772 5.5 3 5.05228 3 4.5V2C3 1.44772 3.44772 1 4 1Z" fill="#9E9E9E"/>
</g>
</svg>
