<svg width="24" height="24" viewBox="0 0 24 24" fill="none" xmlns="http://www.w3.org/2000/svg">
<g id="icons/Charts/activity-source">
<path id="Union" d="M21 16.5C21.5523 16.5 22 16.9477 22 17.5V21.5C22 22.0523 21.5523 22.5 21 22.5H3C2.44772 22.5 2 22.0523 2 21.5V17.5C2 16.9477 2.44772 16.5 3 16.5H21ZM4 20.5H20V18.5H4V20.5ZM21 9C21.5523 9 22 9.44772 22 10V14C22 14.5523 21.5523 15 21 15H3C2.44772 15 2 14.5523 2 14V10C2 9.44772 2.44772 9 3 9H21ZM4 13H20V11H4V13ZM21 1.5C21.5523 1.5 22 1.94772 22 2.5V6.5C22 7.05228 21.5523 7.5 21 7.5H3C2.44772 7.5 2 7.05228 2 6.5V2.5C2 1.94772 2.44772 1.5 3 1.5H21ZM4 5.5H20V3.5H4V5.5Z" fill="#9E9E9E"/>
</g>
</svg>
