<svg width="24" height="24" viewBox="0 0 24 24" fill="none" xmlns="http://www.w3.org/2000/svg">
<g id="icons/Charts/analysis">
<path id="Union" d="M22 1.5C22.5523 1.5 23 1.94772 23 2.5V21.0859C23 21.157 22.9916 21.2261 22.9775 21.293C22.9916 21.3598 23 21.429 23 21.5C23 22.0523 22.5523 22.5 22 22.5H6.50781C5.95553 22.5 5.50781 22.0523 5.50781 21.5C5.50781 20.9477 5.95553 20.5 6.50781 20.5H21V9.5H3V15.0859C3 15.6382 2.55228 16.0859 2 16.0859C1.44772 16.0859 1 15.6382 1 15.0859V2.5C1 1.94772 1.44772 1.5 2 1.5H22ZM14.7676 12.7246C15.1567 12.4069 15.7304 12.4261 16.0977 12.7842L18.3369 14.9678C18.7323 15.3532 18.7408 15.9864 18.3555 16.3818C17.97 16.7772 17.3369 16.7857 16.9414 16.4004L15.4072 14.9043L12.084 18.2227C11.6993 18.6067 11.0781 18.6132 10.6855 18.2373L8.10645 15.7666L2.71094 21.2188C2.32245 21.6112 1.6894 21.614 1.29688 21.2256C0.904388 20.8371 0.900629 20.204 1.28906 19.8115L7.37695 13.6611C7.76095 13.2732 8.38507 13.265 8.7793 13.6426L11.3623 16.1162L14.6924 12.792L14.7676 12.7246ZM3 7.5H21V3.5H3V7.5ZM19 4.5C19.5523 4.5 20 4.94772 20 5.5C20 6.05228 19.5523 6.5 19 6.5H8.5C7.94772 6.5 7.5 6.05228 7.5 5.5C7.5 4.94772 7.94772 4.5 8.5 4.5H19ZM5.5 4.49805C6.05228 4.49805 6.5 4.94576 6.5 5.49805C6.5 6.05033 6.05228 6.49805 5.5 6.49805H5C4.44772 6.49805 4 6.05033 4 5.49805C4 4.94576 4.44772 4.49805 5 4.49805H5.5Z" fill="#9E9E9E"/>
</g>
</svg>
