<svg width="24" height="24" viewBox="0 0 24 24" fill="none" xmlns="http://www.w3.org/2000/svg">
<g id="icons/Charts/area-map">
<path id="Union" d="M21.293 2.29297C21.579 2.00697 22.0091 1.92139 22.3828 2.07617C22.7564 2.23099 23 2.59559 23 3V21C23 21.5523 22.5523 22 22 22H2C1.44772 22 1.00002 21.5523 1 21V8.5C1 8.10955 1.22736 7.75503 1.58203 7.5918C1.93683 7.42861 2.35388 7.48706 2.65039 7.74121L5.30566 10.0166L7.42578 6.93359L7.48145 6.85938C7.77554 6.506 8.2789 6.39628 8.69727 6.60547L11.0332 7.77344L14.7734 3.81348L14.8428 3.74609C15.2062 3.42865 15.752 3.41439 16.1328 3.72559L18.1826 5.40234L21.293 2.29297ZM19.2529 12.1582C18.8954 12.5668 18.2764 12.6161 17.8594 12.2686L15.6094 10.3936L12.7529 13.6582C12.4876 13.9614 12.0658 14.0756 11.6836 13.9482L9.4082 13.1895L6.83203 17.0547C6.54193 17.4898 5.96558 17.6275 5.50977 17.3711L3 15.959V20H21V10.1611L19.2529 12.1582ZM18.957 7.45703C18.5939 7.82015 18.0148 7.84931 17.6172 7.52441L15.5869 5.86328L11.9766 9.68652C11.6738 10.007 11.1971 10.0917 10.8027 9.89453L8.58105 8.7832L6.32422 12.0664C6.16357 12.3001 5.91103 12.4544 5.62988 12.4912C5.34859 12.528 5.065 12.4434 4.84961 12.2588L3 10.6729V13.665L5.68164 15.1738L8.16797 11.4453L8.27148 11.3145C8.53494 11.0343 8.94214 10.927 9.31641 11.0518L11.6846 11.8408L14.7471 8.3418L14.8174 8.26953C15.1814 7.92861 15.7495 7.90555 16.1406 8.23145L18.3896 10.1055L21 7.12305V5.41406L18.957 7.45703Z" fill="#9E9E9E"/>
</g>
</svg>
