<svg width="24" height="24" viewBox="0 0 24 24" fill="none" xmlns="http://www.w3.org/2000/svg">
<g id="icons/Charts/arithmetic-one">
<path id="Union" d="M8.62207 13.9648C9.01261 13.5745 9.64567 13.5744 10.0361 13.9648C10.4264 14.3553 10.4264 14.9884 10.0361 15.3789L7.91406 17.5L10.0361 19.6221C10.4263 20.0126 10.4265 20.6457 10.0361 21.0361C9.64573 21.4265 9.01262 21.4263 8.62207 21.0361L6.5 18.9141L4.37891 21.0361C3.98843 21.4264 3.35532 21.4264 2.96484 21.0361C2.57438 20.6457 2.57451 20.0126 2.96484 19.6221L5.08594 17.5L2.96484 15.3789C2.57432 14.9884 2.57432 14.3554 2.96484 13.9648C3.35537 13.5743 3.98838 13.5743 4.37891 13.9648L6.5 16.0859L8.62207 13.9648ZM21 18.75C21.5523 18.75 22 19.1977 22 19.75C22 20.3023 21.5523 20.75 21 20.75H14C13.4477 20.75 13 20.3023 13 19.75C13 19.1977 13.4477 18.75 14 18.75H21ZM21 14.75C21.5523 14.75 22 15.1977 22 15.75C22 16.3023 21.5523 16.75 21 16.75H14C13.4477 16.75 13 16.3023 13 15.75C13 15.1977 13.4477 14.75 14 14.75H21ZM6.5 1.75C7.05228 1.75 7.5 2.19772 7.5 2.75V5.25H10C10.5523 5.25 11 5.69772 11 6.25C11 6.80228 10.5523 7.25 10 7.25H7.5V9.75C7.5 10.3023 7.05228 10.75 6.5 10.75C5.94772 10.75 5.5 10.3023 5.5 9.75V7.25H3C2.44772 7.25 2 6.80228 2 6.25C2 5.69772 2.44772 5.25 3 5.25H5.5V2.75C5.5 2.19772 5.94772 1.75 6.5 1.75ZM21 5.25C21.5523 5.25 22 5.69772 22 6.25C22 6.80228 21.5523 7.25 21 7.25H14C13.4477 7.25 13 6.80228 13 6.25C13 5.69772 13.4477 5.25 14 5.25H21Z" fill="#9E9E9E"/>
</g>
</svg>
