<svg width="24" height="24" viewBox="0 0 24 24" fill="none" xmlns="http://www.w3.org/2000/svg">
<g id="icons/Charts/arithmetic">
<path id="Union" d="M21 19.75C21.5523 19.75 22 20.1977 22 20.75C22 21.3023 21.5523 21.75 21 21.75H14C13.4477 21.75 13 21.3023 13 20.75C13 20.1977 13.4477 19.75 14 19.75H21ZM20.293 1.79297C20.6835 1.40244 21.3165 1.40244 21.707 1.79297C22.0976 2.18349 22.0976 2.81651 21.707 3.20703L3.70703 21.207C3.31651 21.5976 2.68349 21.5976 2.29297 21.207C1.90244 20.8165 1.90244 20.1835 2.29297 19.793L20.293 1.79297ZM21 15.25C21.5523 15.25 22 15.6977 22 16.25C22 16.8023 21.5523 17.25 21 17.25H14C13.4477 17.25 13 16.8023 13 16.25C13 15.6977 13.4477 15.25 14 15.25H21ZM7 1.5C7.55228 1.5 8 1.94772 8 2.5V5.5H11C11.5523 5.5 12 5.94772 12 6.5C12 7.05228 11.5523 7.5 11 7.5H8V10.5C8 11.0523 7.55228 11.5 7 11.5C6.44772 11.5 6 11.0523 6 10.5V7.5H3C2.44772 7.5 2 7.05228 2 6.5C2 5.94772 2.44772 5.5 3 5.5H6V2.5C6 1.94772 6.44772 1.5 7 1.5Z" fill="#9E9E9E"/>
</g>
</svg>
