<svg width="24" height="24" viewBox="0 0 24 24" fill="none" xmlns="http://www.w3.org/2000/svg">
<g id="icons/Charts/average">
<path id="Union" d="M2 1C2.55228 1 3 1.44772 3 2V21H22C22.5523 21 23 21.4477 23 22C23 22.5523 22.5523 23 22 23H2C1.44772 23 1 22.5523 1 22V2C1 1.44772 1.44772 1 2 1ZM13.5 1C15.4821 1 17.0045 2.43382 18.123 4.09863C19.2693 5.80471 20.1837 8.03093 20.8916 10.1885C20.9856 10.4751 21.0756 10.7618 21.1631 11.0469C21.2594 11.016 21.3622 11 21.4688 11H22C22.5523 11 23 11.4477 23 12C23 12.5523 22.5523 13 22 13H21.7207C22.0279 14.1537 22.2785 15.2301 22.4717 16.1348C22.6444 16.9434 22.7728 17.6182 22.8584 18.0918C22.9012 18.3285 22.9335 18.5152 22.9551 18.6436C22.9658 18.7078 22.974 18.758 22.9795 18.792C22.9822 18.8088 22.9839 18.8221 22.9854 18.8311C22.986 18.8352 22.9869 18.8384 22.9873 18.8408V18.8438L22.9883 18.8447V18.8457C23.0735 19.3913 22.6999 19.903 22.1543 19.9883C21.6429 20.0681 21.1618 19.745 21.0332 19.2549L21.0117 19.1543V19.1523C21.0115 19.1507 21.0113 19.148 21.0107 19.1445C21.0096 19.1373 21.0073 19.1262 21.0049 19.1113C21 19.081 20.9925 19.0349 20.9824 18.9746C20.9622 18.854 20.9318 18.6752 20.8906 18.4473C20.8082 17.9912 20.6833 17.3377 20.5156 16.5527C20.1797 14.9796 19.6736 12.8913 18.9912 10.8115C18.3047 8.71923 17.4591 6.69522 16.4639 5.21387C15.4409 3.69125 14.4397 3 13.5 3C12.5603 3 11.5591 3.69125 10.5361 5.21387C9.54089 6.69522 8.69534 8.71923 8.00879 10.8115C7.32636 12.8913 6.82031 14.9796 6.48438 16.5527C6.31675 17.3377 6.19183 17.9912 6.10938 18.4473C6.06816 18.6752 6.03781 18.854 6.01758 18.9746C6.00747 19.0349 6.00002 19.081 5.99512 19.1113C5.9927 19.1262 5.99041 19.1373 5.98926 19.1445C5.98871 19.148 5.98854 19.1507 5.98828 19.1523V19.1543C5.90303 19.6999 5.39132 20.0735 4.8457 19.9883C4.30008 19.903 3.92653 19.3913 4.01172 18.8457V18.8447L4.0127 18.8438V18.8408C4.01307 18.8384 4.01399 18.8352 4.01465 18.8311C4.01608 18.8221 4.0178 18.8088 4.02051 18.792C4.02601 18.758 4.03415 18.7078 4.04492 18.6436C4.06645 18.5152 4.0988 18.3285 4.1416 18.0918C4.22723 17.6182 4.35565 16.9434 4.52832 16.1348C4.72151 15.2301 4.97214 14.1537 5.2793 13H5C4.44772 13 4 12.5523 4 12C4 11.4477 4.44772 11 5 11H5.53125C5.63745 11 5.73991 11.0162 5.83594 11.0469C5.92344 10.7617 6.01433 10.4752 6.1084 10.1885C6.81634 8.03093 7.73068 5.80471 8.87695 4.09863C9.99554 2.43382 11.5179 1 13.5 1ZM9.78125 11C10.3335 11 10.7812 11.4477 10.7812 12C10.7812 12.5523 10.3335 13 9.78125 13H8.71875C8.16647 13 7.71875 12.5523 7.71875 12C7.71875 11.4477 8.16647 11 8.71875 11H9.78125ZM14.0312 11C14.5835 11 15.0312 11.4477 15.0312 12C15.0312 12.5523 14.5835 13 14.0312 13H12.9688C12.4165 13 11.9688 12.5523 11.9688 12C11.9688 11.4477 12.4165 11 12.9688 11H14.0312ZM18.2812 11C18.8335 11 19.2812 11.4477 19.2812 12C19.2812 12.5523 18.8335 13 18.2812 13H17.2188C16.6665 13 16.2188 12.5523 16.2188 12C16.2188 11.4477 16.6665 11 17.2188 11H18.2812Z" fill="#9E9E9E"/>
</g>
</svg>
