<svg width="24" height="24" viewBox="0 0 24 24" fill="none" xmlns="http://www.w3.org/2000/svg">
<g id="icons/Charts/bubble-chart">
<path id="Union" d="M14.5 15C16.433 15 18 16.567 18 18.5C18 20.433 16.433 22 14.5 22C12.567 22 11 20.433 11 18.5C11 16.567 12.567 15 14.5 15ZM14.5 17C13.6716 17 13 17.6716 13 18.5C13 19.3284 13.6716 20 14.5 20C15.3284 20 16 19.3284 16 18.5C16 17.6716 15.3284 17 14.5 17ZM6 8C8.48528 8 10.5 10.0147 10.5 12.5C10.5 14.9853 8.48528 17 6 17C3.51472 17 1.5 14.9853 1.5 12.5C1.5 10.0147 3.51472 8 6 8ZM6 10C4.61929 10 3.5 11.1193 3.5 12.5C3.5 13.8807 4.61929 15 6 15C7.38071 15 8.5 13.8807 8.5 12.5C8.5 11.1193 7.38071 10 6 10ZM17 1.5C20.0376 1.5 22.5 3.96243 22.5 7C22.5 10.0376 20.0376 12.5 17 12.5C13.9624 12.5 11.5 10.0376 11.5 7C11.5 3.96243 13.9624 1.5 17 1.5ZM17 3.5C15.067 3.5 13.5 5.067 13.5 7C13.5 8.933 15.067 10.5 17 10.5C18.933 10.5 20.5 8.933 20.5 7C20.5 5.067 18.933 3.5 17 3.5Z" fill="#9E9E9E"/>
</g>
</svg>
