<svg width="24" height="24" viewBox="0 0 24 24" fill="none" xmlns="http://www.w3.org/2000/svg">
<g id="icons/Charts/bullet-map">
<path id="Union" d="M3 2C3.55228 2 4 2.44772 4 3V20H7V4.5C7 3.24923 8.13325 2.5 9.17676 2.5H16.8232C17.8667 2.5 19 3.24923 19 4.5V20H21C21.5523 20 22 20.4477 22 21C22 21.5523 21.5523 22 21 22H3C2.44772 22 2 21.5523 2 21V3C2 2.44772 2.44772 2 3 2ZM9 20H17V17.0547H9V20ZM9.17676 4.5C9.0875 4.5 9.02829 4.52905 9 4.5498V15.0547H12V10.5H11C10.4477 10.5 10 10.0523 10 9.5C10 8.94772 10.4477 8.5 11 8.5H12V7C12 6.44772 12.4477 6 13 6C13.5523 6 14 6.44772 14 7V8.5H15C15.5523 8.5 16 8.94772 16 9.5C16 10.0523 15.5523 10.5 15 10.5H14V15.0547H17V4.5498C16.9717 4.52905 16.9125 4.5 16.8232 4.5H9.17676Z" fill="#9E9E9E"/>
</g>
</svg>
