<svg width="24" height="24" viewBox="0 0 24 24" fill="none" xmlns="http://www.w3.org/2000/svg">
<g id="icons/Charts/chart-ring">
<path id="Union" d="M10.3379 1.125C10.8839 1.04218 11.3937 1.41783 11.4766 1.96387C11.5589 2.50963 11.1835 3.01975 10.6377 3.10254C6.31392 3.7585 3 7.49307 3 12C3.00026 16.5085 6.31652 20.2446 10.6426 20.8984L10.9766 20.9424C11.3121 20.9803 11.6536 21 12 21C12.4602 21 12.9119 20.9657 13.3525 20.8994L13.7148 20.8369C17.4295 20.1206 20.3327 17.117 20.8994 13.3516C20.9816 12.8054 21.491 12.4296 22.0371 12.5117C22.583 12.594 22.9588 13.1026 22.877 13.6484C22.1614 18.4035 18.4052 22.1608 13.6504 22.877C13.1116 22.958 12.5603 23 12 23C11.5784 23 11.1619 22.976 10.752 22.9297L10.3438 22.876C5.05435 22.0766 1.00026 17.5124 1 12C1 6.48944 5.05122 1.92694 10.3379 1.125ZM12 7C14.7614 7 17 9.23857 17 12C16.9998 14.7612 14.7613 17 12 17C9.23871 17 7.00023 14.7612 7 12C7 9.23857 9.23857 7 12 7ZM12 9C10.3431 9 9 10.3431 9 12C9.00023 13.6567 10.3433 15 12 15C13.6567 15 14.9998 13.6567 15 12C15 10.3431 13.6569 9 12 9ZM13.6533 1.12305C18.406 1.84005 22.1605 5.59479 22.877 10.3477C22.959 10.8935 22.5829 11.4029 22.0371 11.4854C21.4912 11.5676 20.9819 11.1914 20.8994 10.6455C20.3136 6.76052 17.2403 3.68786 13.3555 3.10156C12.8095 3.0192 12.4335 2.50884 12.5156 1.96289C12.5981 1.41697 13.1073 1.04075 13.6533 1.12305Z" fill="#9E9E9E"/>
</g>
</svg>
