<svg width="24" height="24" viewBox="0 0 24 24" fill="none" xmlns="http://www.w3.org/2000/svg">
<g id="icons/Charts/chart-pie">
<path id="Union" d="M12 1C12.5523 1 13 1.44772 13 2V11H22C22.5523 11 23 11.4477 23 12C23 18.0751 18.0751 23 12 23C5.92487 23 1 18.0751 1 12C1 5.92487 5.92487 1 12 1ZM11 3.05664C6.50014 3.55417 3 7.36751 3 12C3 16.9706 7.02943 21 12 21C16.6325 21 20.4458 17.4999 20.9434 13H12C11.4477 13 11 12.5523 11 12V3.05664ZM14.4082 1.65234C14.6648 1.46395 14.9961 1.40851 15.2998 1.50391C18.7217 2.57871 21.4212 5.27831 22.4961 8.7002C22.5915 9.00383 22.5369 9.33519 22.3486 9.5918C22.1602 9.84844 21.8604 10 21.542 10H15C14.4477 10 14 9.55229 14 9V2.45801C14 2.13974 14.1517 1.84075 14.4082 1.65234ZM16 8H20.0635C19.1895 6.24209 17.758 4.80937 16 3.93555V8Z" fill="#9E9E9E"/>
</g>
</svg>
