<svg width="24" height="24" viewBox="0 0 24 24" fill="none" xmlns="http://www.w3.org/2000/svg">
<g id="icons/Charts/chart-proportion">
<path id="Union" d="M7.78906 1.83496C8.29923 1.62342 8.88416 1.86581 9.0957 2.37598C9.30716 2.88604 9.06563 3.471 8.55566 3.68262C7.45639 4.13843 6.46549 4.806 5.63574 5.63574C4.00598 7.26553 3.00001 9.51449 3 12C3 16.9706 7.02943 21 12 21C14.4855 21 16.7345 19.994 18.3643 18.3643C19.194 17.5345 19.8616 16.5436 20.3174 15.4443C20.529 14.9344 21.114 14.6929 21.624 14.9043C22.1342 15.1158 22.3766 15.7008 22.165 16.2109C21.6072 17.5562 20.7908 18.7659 19.7783 19.7783C17.7888 21.7678 15.0373 23 12 23C5.92487 23 1 18.0751 1 12C1.00001 8.96275 2.23219 6.2112 4.22168 4.22168C5.23412 3.20925 6.44382 2.39279 7.78906 1.83496ZM12 1C18.0751 1 23 5.92487 23 12C23 12.5523 22.5523 13 22 13H12C11.4477 13 11 12.5523 11 12V2C11 1.44772 11.4477 1 12 1ZM13 11H20.9434C20.4821 6.82853 17.1715 3.51786 13 3.05664V11Z" fill="#9E9E9E"/>
</g>
</svg>
