<svg width="24" height="24" viewBox="0 0 24 24" fill="none" xmlns="http://www.w3.org/2000/svg">
<g id="icons/Charts/chart-stock">
<path id="Union" d="M5 2C5.55228 2 6 2.44772 6 3V7H7C7.55228 7 8 7.44772 8 8V16C8 16.5523 7.55228 17 7 17H6V21C6 21.5523 5.55228 22 5 22C4.44772 22 4 21.5523 4 21V17H3C2.44772 17 2 16.5523 2 16V8C2 7.44772 2.44772 7 3 7H4V3C4 2.44772 4.44772 2 5 2ZM19 2C19.5523 2 20 2.44772 20 3V7H21C21.5523 7 22 7.44772 22 8V16C22 16.5523 21.5523 17 21 17H20V21C20 21.5523 19.5523 22 19 22C18.4477 22 18 21.5523 18 21V17H17C16.4477 17 16 16.5523 16 16V8C16 7.44772 16.4477 7 17 7H18V3C18 2.44772 18.4477 2 19 2ZM12 1C12.5523 1 13 1.44772 13 2V6H14C14.5523 6 15 6.44772 15 7V15C15 15.5523 14.5523 16 14 16H13V20C13 20.5523 12.5523 21 12 21C11.4477 21 11 20.5523 11 20V16H10C9.44772 16 9 15.5523 9 15V7C9 6.44772 9.44772 6 10 6H11V2C11 1.44772 11.4477 1 12 1ZM4 15H6V9H4V15ZM18 15H20V9H18V15ZM11 14H13V8H11V14Z" fill="#9E9E9E"/>
</g>
</svg>
