<svg width="24" height="24" viewBox="0 0 24 24" fill="none" xmlns="http://www.w3.org/2000/svg">
<g id="icons/Charts/chart-histogram-one">
<path id="Union" d="M3 2C3.55228 2 4 2.44772 4 3V20H21C21.5523 20 22 20.4477 22 21C22 21.5523 21.5523 22 21 22H3C2.44772 22 2 21.5523 2 21V3C2 2.44772 2.44772 2 3 2ZM9 16C9.55228 16 10 16.4477 10 17C10 17.5523 9.55228 18 9 18H7C6.44772 18 6 17.5523 6 17C6 16.4477 6.44772 16 7 16H9ZM13 12C13.5523 12 14 12.4477 14 13C14 13.5523 13.5523 14 13 14H7C6.44772 14 6 13.5523 6 13C6 12.4477 6.44772 12 7 12H13ZM21 8C21.5523 8 22 8.44772 22 9C22 9.55228 21.5523 10 21 10H7C6.44772 10 6 9.55228 6 9C6 8.44772 6.44772 8 7 8H21ZM17 4C17.5523 4 18 4.44772 18 5C18 5.55228 17.5523 6 17 6H7C6.44772 6 6 5.55228 6 5C6 4.44772 6.44772 4 7 4H17Z" fill="#9E9E9E"/>
</g>
</svg>
