<svg width="24" height="24" viewBox="0 0 24 24" fill="none" xmlns="http://www.w3.org/2000/svg">
<g id="icons/Charts/chart-scatter">
<path id="Union" d="M3 2C3.55228 2 4 2.44772 4 3V20H21C21.5523 20 22 20.4477 22 21C22 21.5523 21.5523 22 21 22H3C2.44772 22 2 21.5523 2 21V3C2 2.44772 2.44772 2 3 2ZM7.5 15C8.32845 15 9 15.6715 9 16.5C9 17.3285 8.32845 18 7.5 18C6.67155 18 6 17.3285 6 16.5C6 15.6715 6.67155 15 7.5 15ZM16.5 13C17.3285 13 18 13.6715 18 14.5C18 15.3285 17.3285 16 16.5 16C15.6715 16 15 15.3285 15 14.5C15 13.6715 15.6715 13 16.5 13ZM10 8C11.1046 8 12 8.89545 12 10C12 11.1046 11.1046 12 10 12C8.89545 12 8 11.1046 8 10C8 8.89545 8.89545 8 10 8ZM18.5 3C19.8807 3 21 4.11929 21 5.5C21 6.8807 19.8807 8 18.5 8C17.1193 8 16 6.8807 16 5.5C16 4.11929 17.1193 3 18.5 3Z" fill="#9E9E9E"/>
</g>
</svg>
