<svg width="24" height="24" viewBox="0 0 24 24" fill="none" xmlns="http://www.w3.org/2000/svg">
<g id="icons/Charts/chart-line-area">
<path id="Union" d="M3 2C3.5522 2 3.99987 2.44783 4 3V20H21C21.5522 20 21.9999 20.4478 22 21C22 21.5523 21.5523 22 21 22H3C2.44772 22 2 21.5523 2 21V3C2.00013 2.44783 2.4478 2 3 2ZM21.2207 2.02441C21.6764 2.1275 21.9999 2.53282 22 3V17C22 17.5523 21.5523 18 21 18H7C6.65342 18 6.33162 17.8202 6.14941 17.5254C5.96744 17.2306 5.95054 16.8626 6.10547 16.5527L10.1055 8.55273C10.245 8.27375 10.507 8.07576 10.8135 8.01758C11.1201 7.95952 11.4369 8.04808 11.6689 8.25684L15.6729 11.8604L20.0967 2.57031C20.2977 2.14848 20.7649 1.92146 21.2207 2.02441ZM16.9033 13.9297C16.7677 14.2146 16.5048 14.4188 16.1953 14.4805C15.8859 14.5421 15.5656 14.4542 15.3311 14.2432L11.3066 10.6211L8.61816 16H20V7.42578L16.9033 13.9297Z" fill="#9E9E9E"/>
</g>
</svg>
