<svg width="24" height="24" viewBox="0 0 24 24" fill="none" xmlns="http://www.w3.org/2000/svg">
<g id="icons/Charts/chart-line">
<path id="Union" d="M3 2C3.55215 2 3.99978 2.44791 4 3V20H21C21.5521 20 21.9998 20.4479 22 21C22 21.5523 21.5523 22 21 22H3C2.44772 22 2 21.5523 2 21V3C2.00022 2.44791 2.44785 2 3 2ZM20.0967 2.57031C20.3341 2.0721 20.9313 1.8597 21.4297 2.09668C21.9281 2.33401 22.1402 2.9312 21.9033 3.42969L16.9033 13.9297C16.7677 14.2146 16.5048 14.4188 16.1953 14.4805C15.8859 14.5421 15.5656 14.4542 15.3311 14.2432L11.3066 10.6211L7.89453 17.4473C7.64754 17.9412 7.04671 18.1415 6.55273 17.8945C6.05888 17.6475 5.85851 17.0467 6.10547 16.5527L10.1055 8.55273C10.2451 8.27382 10.5071 8.07575 10.8135 8.01758C11.1201 7.95953 11.4369 8.04815 11.6689 8.25684L15.6729 11.8604L20.0967 2.57031Z" fill="#9E9E9E"/>
</g>
</svg>
