<svg width="24" height="24" viewBox="0 0 24 24" fill="none" xmlns="http://www.w3.org/2000/svg">
<g id="icons/Charts/chart-histogram-two">
<path id="Union" d="M20 2C20.5523 2 21 2.44772 21 3V20H22C22.5523 20 23 20.4477 23 21C23 21.5523 22.5523 22 22 22H2C1.44772 22 1 21.5523 1 21C1 20.4477 1.44772 20 2 20H3V14C3 13.4477 3.44772 13 4 13H7C7.55228 13 8 13.4477 8 14V20H9.5V9C9.5 8.44772 9.94771 8 10.5 8H13.5C14.0523 8 14.5 8.44772 14.5 9V20H16V3C16 2.44772 16.4477 2 17 2H20ZM5 20H6V15H5V20ZM11.5 20H12.5V10H11.5V20ZM18 20H19V4H18V20Z" fill="#9E9E9E"/>
</g>
</svg>
