<svg width="24" height="24" viewBox="0 0 24 24" fill="none" xmlns="http://www.w3.org/2000/svg">
<g id="icons/Charts/data-three">
<path id="Union" d="M12 1.5C14.8307 1.5 17.432 1.84299 19.3584 2.4209C20.3152 2.70794 21.1627 3.06956 21.793 3.5166C22.3972 3.94523 23 4.60107 23 5.5C23 6.39893 22.3972 7.05477 21.793 7.4834C21.6619 7.57639 21.52 7.66333 21.3711 7.74902C21.4609 7.80068 21.5477 7.85312 21.6309 7.90723C22.3018 8.34374 23 9.02998 23 10C23 10.8989 22.3972 11.5548 21.793 11.9834C21.6619 12.0764 21.52 12.1633 21.3711 12.249C21.4609 12.3007 21.5477 12.3531 21.6309 12.4072C22.3018 12.8437 23 13.53 23 14.5C23 15.3989 22.3972 16.0548 21.793 16.4834C21.7142 16.5393 21.6322 16.5942 21.5469 16.6475C21.4904 16.6827 21.4312 16.715 21.3721 16.749C21.4616 16.8005 21.5479 16.8533 21.6309 16.9072C22.3018 17.3437 23 18.03 23 19C23 19.8989 22.3972 20.5548 21.793 20.9834C21.1627 21.4304 20.3152 21.7921 19.3584 22.0791C17.432 22.657 14.8307 23 12 23C9.1693 23 6.56798 22.657 4.6416 22.0791C3.68478 21.7921 2.83731 21.4304 2.20703 20.9834C1.60279 20.5548 1 19.8989 1 19C1 18.03 1.69816 17.3437 2.36914 16.9072C2.45186 16.8534 2.53771 16.8004 2.62695 16.749C2.56804 16.7151 2.50934 16.6825 2.45312 16.6475C2.36776 16.5942 2.28582 16.5393 2.20703 16.4834C1.60279 16.0548 1 15.3989 1 14.5C1 13.53 1.69816 12.8437 2.36914 12.4072C2.45209 12.3533 2.53842 12.3005 2.62793 12.249C2.47928 12.1635 2.33792 12.0762 2.20703 11.9834C1.60279 11.5548 1 10.8989 1 10C1 9.02998 1.69816 8.34375 2.36914 7.90723C2.45209 7.85326 2.53842 7.80054 2.62793 7.74902C2.47928 7.66346 2.33792 7.57623 2.20703 7.4834C1.60279 7.05477 1 6.39893 1 5.5C1 4.60107 1.60279 3.94523 2.20703 3.5166C2.83731 3.06956 3.68478 2.70794 4.6416 2.4209C6.56798 1.84299 9.1693 1.5 12 1.5ZM18.207 17.8789C16.4489 18.2738 14.3001 18.5 12 18.5C9.69988 18.5 7.55114 18.2738 5.79297 17.8789C5.65808 17.8486 5.52569 17.8164 5.39551 17.7842C4.5323 18.0296 3.88275 18.3081 3.45996 18.583C3.12249 18.8026 3.03148 18.9492 3.00781 18.999C3.02825 19.0431 3.10157 19.1662 3.36426 19.3525C3.74596 19.6232 4.36338 19.9073 5.21582 20.1631C6.90873 20.671 9.30786 21 12 21C14.6921 21 17.0913 20.671 18.7842 20.1631C19.6366 19.9073 20.254 19.6232 20.6357 19.3525C20.8977 19.1667 20.9705 19.0435 20.9912 18.999C20.9673 18.9489 20.8766 18.802 20.54 18.583C20.1171 18.308 19.4672 18.0297 18.6035 17.7842C18.4736 17.8164 18.3416 17.8487 18.207 17.8789ZM18.6016 13.2842C18.1542 13.395 17.6785 13.4941 17.1787 13.5811C17.1567 13.5849 17.1344 13.588 17.1123 13.5918C16.8706 13.6331 16.6234 13.6716 16.3711 13.707C16.3646 13.7079 16.3581 13.709 16.3516 13.71C15.8359 13.7819 15.2995 13.8419 14.7461 13.8877C14.7178 13.89 14.6895 13.8923 14.6611 13.8945C14.3876 13.9164 14.1102 13.9351 13.8291 13.9502C13.8239 13.9505 13.8187 13.9509 13.8135 13.9512C13.5199 13.9668 13.2225 13.9783 12.9219 13.9863C12.9202 13.9864 12.9186 13.9873 12.917 13.9873C12.6144 13.9953 12.3086 14 12 14C11.6911 14 11.3849 13.9953 11.082 13.9873C11.0801 13.9873 11.0781 13.9864 11.0762 13.9863C10.7982 13.9789 10.523 13.9681 10.251 13.9541C10.2011 13.9515 10.1513 13.9491 10.1016 13.9463C9.8462 13.932 9.5938 13.9154 9.34473 13.8955C9.31144 13.8928 9.27828 13.8895 9.24512 13.8867C8.69837 13.8413 8.1681 13.7829 7.6582 13.7119C7.64547 13.7101 7.63282 13.7078 7.62012 13.7061C7.37361 13.6714 7.13192 13.6341 6.89551 13.5938C6.86743 13.589 6.83945 13.584 6.81152 13.5791C6.31464 13.4925 5.84146 13.3944 5.39648 13.2842C4.53283 13.5297 3.8829 13.808 3.45996 14.083C3.12249 14.3026 3.03148 14.4492 3.00781 14.499C3.02825 14.5431 3.10157 14.6662 3.36426 14.8525C3.74596 15.1232 4.36338 15.4073 5.21582 15.6631C6.90873 16.171 9.30786 16.5 12 16.5C14.6921 16.5 17.0913 16.171 18.7842 15.6631C19.6366 15.4073 20.254 15.1232 20.6357 14.8525C20.8977 14.6667 20.9705 14.5435 20.9912 14.499C20.9673 14.4489 20.8766 14.302 20.54 14.083C20.1664 13.84 19.6153 13.5953 18.8965 13.3721C18.8011 13.3425 18.7028 13.313 18.6016 13.2842ZM18.6025 8.78418C16.7758 9.23661 14.4758 9.5 12 9.5C9.52382 9.5 7.22337 9.23675 5.39648 8.78418C4.53283 9.02969 3.8829 9.30797 3.45996 9.58301C3.12249 9.80255 3.03148 9.94922 3.00781 9.99902C3.02825 10.0431 3.10157 10.1662 3.36426 10.3525C3.74596 10.6232 4.36338 10.9073 5.21582 11.1631C6.90873 11.671 9.30786 12 12 12C14.6921 12 17.0913 11.671 18.7842 11.1631C19.6366 10.9073 20.254 10.6232 20.6357 10.3525C20.8977 10.1667 20.9705 10.0435 20.9912 9.99902C20.9673 9.94886 20.8766 9.80199 20.54 9.58301C20.117 9.30787 19.4666 9.02976 18.6025 8.78418ZM12 3.5C9.30786 3.5 6.90873 3.82904 5.21582 4.33691C4.36338 4.59269 3.74596 4.87676 3.36426 5.14746C3.10316 5.33265 3.0288 5.45522 3.00781 5.5C3.0288 5.54478 3.10316 5.66735 3.36426 5.85254C3.74596 6.12324 4.36338 6.40731 5.21582 6.66309C6.90873 7.17096 9.30786 7.5 12 7.5C14.6921 7.5 17.0913 7.17096 18.7842 6.66309C19.6366 6.40731 20.254 6.12324 20.6357 5.85254C20.8961 5.66787 20.97 5.54509 20.9912 5.5C20.97 5.45491 20.8961 5.33213 20.6357 5.14746C20.254 4.87676 19.6366 4.59269 18.7842 4.33691C17.0913 3.82904 14.6921 3.5 12 3.5Z" fill="#9E9E9E"/>
</g>
</svg>
