<svg width="24" height="24" viewBox="0 0 24 24" fill="none" xmlns="http://www.w3.org/2000/svg">
<g id="icons/Charts/data-sheet">
<path id="Union" d="M21 3C22.1046 3 23 3.89543 23 5V19C23 20.1046 22.1046 21 21 21H3C1.89543 21 1 20.1046 1 19V5C1 3.89543 1.89543 3 3 3H21ZM3 19H21V5H3V19ZM8 9C8.55228 9 9 9.44772 9 10V16C9 16.5523 8.55228 17 8 17C7.44772 17 7 16.5523 7 16V10C7 9.44772 7.44772 9 8 9ZM12 7C12.5523 7 13 7.44772 13 8V16C13 16.5523 12.5523 17 12 17C11.4477 17 11 16.5523 11 16V8C11 7.44772 11.4477 7 12 7ZM16 11.5C16.5523 11.5 17 11.9477 17 12.5V16C17 16.5523 16.5523 17 16 17C15.4477 17 15 16.5523 15 16V12.5C15 11.9477 15.4477 11.5 16 11.5Z" fill="#9E9E9E"/>
</g>
</svg>
