<svg width="24" height="24" viewBox="0 0 24 24" fill="none" xmlns="http://www.w3.org/2000/svg">
<g id="icons/Charts/data">
<path id="Union" d="M12 1C14.8307 1 17.432 1.34299 19.3584 1.9209C20.3152 2.20794 21.1627 2.56956 21.793 3.0166C22.3972 3.44523 23 4.10107 23 5C23 5.09977 22.9906 5.19624 22.9766 5.29004C22.9911 5.35783 23 5.42788 23 5.5V19C23 19.8989 22.3972 20.5548 21.793 20.9834C21.1627 21.4304 20.3152 21.7921 19.3584 22.0791C17.432 22.657 14.8307 23 12 23C9.16929 23 6.56797 22.657 4.6416 22.0791C3.68478 21.7921 2.83731 21.4304 2.20703 20.9834C1.60279 20.5548 1 19.8989 1 19V5.5C1 5.42795 1.00798 5.35776 1.02246 5.29004C1.00845 5.19628 1 5.09971 1 5C1 4.10107 1.60279 3.44523 2.20703 3.0166C2.83731 2.56956 3.68478 2.20794 4.6416 1.9209C6.56798 1.34299 9.1693 1 12 1ZM21 16.9492C20.5132 17.19 19.9573 17.3994 19.3584 17.5791C17.432 18.157 14.8307 18.5 12 18.5C9.1693 18.5 6.56798 18.157 4.6416 17.5791C4.04265 17.3994 3.4868 17.19 3 16.9492V18.9844C3.00685 19.0055 3.0582 19.1355 3.36426 19.3525C3.74596 19.6232 4.36337 19.9073 5.21582 20.1631C6.90873 20.671 9.30786 21 12 21C14.6921 21 17.0913 20.671 18.7842 20.1631C19.6366 19.9073 20.254 19.6232 20.6357 19.3525C20.9418 19.1355 20.9931 19.0055 21 18.9844V16.9492ZM21 12.4492C20.5132 12.69 19.9573 12.8994 19.3584 13.0791C17.432 13.657 14.8307 14 12 14C9.1693 14 6.56798 13.657 4.6416 13.0791C4.04265 12.8994 3.4868 12.69 3 12.4492V14.4844C3.00674 14.5055 3.05793 14.6353 3.36426 14.8525C3.74596 15.1232 4.36338 15.4073 5.21582 15.6631C6.90873 16.171 9.30786 16.5 12 16.5C14.6921 16.5 17.0913 16.171 18.7842 15.6631C19.6366 15.4073 20.254 15.1232 20.6357 14.8525C20.9421 14.6353 20.9933 14.5055 21 14.4844V12.4492ZM21 7.44922C20.5132 7.69001 19.9573 7.89942 19.3584 8.0791C17.432 8.65701 14.8307 9 12 9C9.1693 9 6.56798 8.65701 4.6416 8.0791C4.04265 7.89942 3.4868 7.69001 3 7.44922V9.98438C3.00674 10.0055 3.05793 10.1353 3.36426 10.3525C3.74596 10.6232 4.36338 10.9073 5.21582 11.1631C6.90873 11.671 9.30786 12 12 12C14.6921 12 17.0913 11.671 18.7842 11.1631C19.6366 10.9073 20.254 10.6232 20.6357 10.3525C20.9421 10.1353 20.9933 10.0055 21 9.98438V7.44922ZM12 3C9.30786 3 6.90873 3.32904 5.21582 3.83691C4.36338 4.09269 3.74596 4.37676 3.36426 4.64746C3.10316 4.83265 3.0288 4.95522 3.00781 5C3.0288 5.04478 3.10316 5.16735 3.36426 5.35254C3.74596 5.62324 4.36338 5.90731 5.21582 6.16309C6.90873 6.67096 9.30786 7 12 7C14.6921 7 17.0913 6.67096 18.7842 6.16309C19.6366 5.90731 20.254 5.62324 20.6357 5.35254C20.8961 5.16787 20.97 5.04509 20.9912 5C20.97 4.95491 20.8961 4.83213 20.6357 4.64746C20.254 4.37676 19.6366 4.09269 18.7842 3.83691C17.0913 3.32904 14.6921 3 12 3Z" fill="#9E9E9E"/>
</g>
</svg>
