<svg width="24" height="24" viewBox="0 0 24 24" fill="none" xmlns="http://www.w3.org/2000/svg">
<g id="icons/Charts/data-screen">
<path id="Union" d="M20.5 2C21.8807 2 23 3.11929 23 4.5V16.5C23 17.8807 21.8807 19 20.5 19H13V20.5H19C19.5523 20.5 20 20.9477 20 21.5C20 22.0523 19.5523 22.5 19 22.5H5C4.44772 22.5 4 22.0523 4 21.5C4 20.9477 4.44772 20.5 5 20.5H11V19H3.5C2.11929 19 1 17.8807 1 16.5V4.5C1 3.11929 2.11929 2 3.5 2H20.5ZM3.5 4C3.22386 4 3 4.22386 3 4.5V16.5C3 16.7761 3.22386 17 3.5 17H20.5C20.7761 17 21 16.7761 21 16.5V4.5C21 4.22386 20.7761 4 20.5 4H3.5ZM16.5 10C17.8807 10 19 11.1193 19 12.5C19 13.8807 17.8807 15 16.5 15C15.1193 15 14 13.8807 14 12.5C14 11.1193 15.1193 10 16.5 10ZM15.3418 6.24707C15.7574 5.88371 16.3893 5.92628 16.7529 6.3418C17.1163 6.75744 17.0737 7.38935 16.6582 7.75293L8.6582 14.7529C8.24256 15.1163 7.61065 15.0737 7.24707 14.6582C6.88371 14.2426 6.92628 13.6107 7.3418 13.2471L15.3418 6.24707ZM16.5 12C16.2239 12 16 12.2239 16 12.5C16 12.7761 16.2239 13 16.5 13C16.7761 13 17 12.7761 17 12.5C17 12.2239 16.7761 12 16.5 12ZM7.5 6C8.88071 6 10 7.11929 10 8.5C10 9.88071 8.88071 11 7.5 11C6.11929 11 5 9.88071 5 8.5C5 7.11929 6.11929 6 7.5 6ZM7.5 8C7.22386 8 7 8.22386 7 8.5C7 8.77614 7.22386 9 7.5 9C7.77614 9 8 8.77614 8 8.5C8 8.22386 7.77614 8 7.5 8Z" fill="#9E9E9E"/>
</g>
</svg>
