<svg width="24" height="24" viewBox="0 0 24 24" fill="none" xmlns="http://www.w3.org/2000/svg">
<g id="icons/Charts/data-arrival">
<path id="Union" d="M9.14844 2.01074C9.49022 2.06194 9.78546 2.2881 9.92188 2.61328C10.2091 3.29833 10.5371 3.73228 10.8662 3.99219C11.1804 4.24026 11.5439 4.36914 12 4.36914C12.4561 4.36914 12.8196 4.24026 13.1338 3.99219C13.4629 3.73228 13.7909 3.29833 14.0781 2.61328L14.1455 2.48047C14.3249 2.18518 14.6474 2 15 2H21C21.5523 2 22 2.44772 22 3V21C22 21.5523 21.5523 22 21 22H3C2.44772 22 2 21.5523 2 21V3C2 2.44772 2.44772 2 3 2H9L9.14844 2.01074ZM4 20H20V4H15.6309C15.297 4.62572 14.884 5.15804 14.373 5.56152C13.6873 6.10299 12.8817 6.36914 12 6.36914C11.1183 6.36914 10.3127 6.10299 9.62695 5.56152C9.11598 5.15804 8.70301 4.62572 8.36914 4H4V20ZM15.793 8.29297C16.1835 7.90244 16.8165 7.90244 17.207 8.29297C17.5976 8.68349 17.5976 9.31651 17.207 9.70703L11.207 15.707C10.8165 16.0976 10.1835 16.0976 9.79297 15.707L6.79297 12.707C6.40244 12.3165 6.40244 11.6835 6.79297 11.293C7.18349 10.9024 7.81651 10.9024 8.20703 11.293L10.5 13.5859L15.793 8.29297Z" fill="#9E9E9E"/>
</g>
</svg>
