<svg width="24" height="24" viewBox="0 0 24 24" fill="none" xmlns="http://www.w3.org/2000/svg">
<g id="icons/Charts/deadline-sort">
<path id="Union" d="M21 1.5C21.5523 1.5 22 1.94772 22 2.5V15.002C21.9999 15.5542 21.5522 16.002 21 16.002H13V19.0859L14.293 17.793C14.6835 17.4024 15.3165 17.4024 15.707 17.793C16.0976 18.1835 16.0976 18.8165 15.707 19.207L12.707 22.207C12.6592 22.2548 12.6065 22.2976 12.5498 22.335C12.5121 22.3599 12.4727 22.3811 12.4326 22.4004C12.3874 22.4222 12.3407 22.4412 12.292 22.4561C12.2717 22.4622 12.251 22.4668 12.2305 22.4717C12.2191 22.4744 12.2078 22.4772 12.1963 22.4795C12.1859 22.4816 12.1754 22.4826 12.165 22.4844C12.1112 22.4933 12.0563 22.5 12 22.5C11.9433 22.5 11.8881 22.4934 11.834 22.4844C11.8236 22.4826 11.8131 22.4816 11.8027 22.4795C11.7912 22.4772 11.7799 22.4744 11.7686 22.4717C11.748 22.4668 11.7273 22.4623 11.707 22.4561C11.6584 22.4412 11.6116 22.4222 11.5664 22.4004C11.5266 22.3812 11.4877 22.3597 11.4502 22.335C11.3935 22.2976 11.3408 22.2548 11.293 22.207L8.29297 19.207C7.90244 18.8165 7.90244 18.1835 8.29297 17.793C8.68349 17.4024 9.31651 17.4024 9.70703 17.793L11 19.0859V16.002H3C2.44777 16.002 2.00008 15.5542 2 15.002V2.5C2 1.94772 2.44772 1.5 3 1.5C3.55228 1.5 4 1.94772 4 2.5V14.002H11.959C11.9726 14.0014 11.9862 14 12 14C12.0138 14 12.0274 14.0014 12.041 14.002H20V2.5C20 1.94772 20.4477 1.5 21 1.5ZM14.1221 3.96484C14.5126 3.57455 15.1457 3.5745 15.5361 3.96484C15.9264 4.35532 15.9264 4.98843 15.5361 5.37891L13.4141 7.5L15.5361 9.62207C15.9263 10.0126 15.9265 10.6457 15.5361 11.0361C15.1457 11.4265 14.5126 11.4263 14.1221 11.0361L12 8.91406L9.87891 11.0361C9.48842 11.4263 8.85528 11.4264 8.46484 11.0361C8.07455 10.6457 8.07467 10.0126 8.46484 9.62207L10.5859 7.5L8.46484 5.37891C8.07432 4.98838 8.07432 4.35537 8.46484 3.96484C8.85537 3.57432 9.48838 3.57432 9.87891 3.96484L12 6.08594L14.1221 3.96484Z" fill="#9E9E9E"/>
</g>
</svg>
