<svg width="24" height="24" viewBox="0 0 24 24" fill="none" xmlns="http://www.w3.org/2000/svg">
<g id="icons/Charts/electrocardiogram">
<path id="Union" d="M12 1C18.0751 1 23 5.92487 23 12C23 18.0751 18.0751 23 12 23C5.92487 23 1 18.0751 1 12C1 5.92487 5.92487 1 12 1ZM12 3C7.02943 3 3 7.02943 3 12C3 16.9706 7.02943 21 12 21C16.9706 21 21 16.9706 21 12C21 7.02943 16.9706 3 12 3ZM10.6748 5.50195C11.1387 5.53129 11.5209 5.87652 11.5977 6.33496L12.8799 14.0225L13.8086 11.9072L13.8652 11.7979C14.0116 11.5518 14.2576 11.3779 14.543 11.3252C14.869 11.2651 15.2038 11.3704 15.4365 11.6064L16.875 13.0664H18.5C19.0523 13.0664 19.5 13.5141 19.5 14.0664C19.4998 14.6185 19.0522 15.0664 18.5 15.0664H16.4561C16.1885 15.0663 15.932 14.9582 15.7441 14.7676L15.0469 14.0605L13.3633 17.9014C13.1856 18.3065 12.7632 18.5468 12.3242 18.4922C11.8853 18.4375 11.5339 18.1012 11.4609 17.665L10.333 10.9082L9.2998 14.3535C9.17285 14.7764 8.78334 15.0664 8.3418 15.0664H5.5C4.94783 15.0664 4.50019 14.6185 4.5 14.0664C4.5 13.5141 4.94772 13.0664 5.5 13.0664H7.59863L9.6543 6.21289L9.7168 6.05273C9.89366 5.69843 10.2687 5.47633 10.6748 5.50195Z" fill="#9E9E9E"/>
</g>
</svg>
