<svg width="24" height="24" viewBox="0 0 24 24" fill="none" xmlns="http://www.w3.org/2000/svg">
<g id="icons/Charts/end-time-sort">
<path id="Union" d="M21 1.5C21.5523 1.5 22 1.94772 22 2.5V15.002C21.9999 15.5542 21.5522 16.002 21 16.002H13V19.0859L14.293 17.793C14.6835 17.4024 15.3165 17.4024 15.707 17.793C16.0976 18.1835 16.0976 18.8165 15.707 19.207L12.707 22.207C12.6592 22.2548 12.6065 22.2976 12.5498 22.335C12.5121 22.3599 12.4727 22.3811 12.4326 22.4004C12.3874 22.4222 12.3407 22.4412 12.292 22.4561C12.2717 22.4622 12.251 22.4668 12.2305 22.4717C12.2191 22.4744 12.2078 22.4772 12.1963 22.4795C12.1859 22.4816 12.1754 22.4826 12.165 22.4844C12.1112 22.4933 12.0563 22.5 12 22.5C11.9433 22.5 11.8881 22.4934 11.834 22.4844C11.8236 22.4826 11.8131 22.4816 11.8027 22.4795C11.7912 22.4772 11.7799 22.4744 11.7686 22.4717C11.748 22.4668 11.7273 22.4623 11.707 22.4561C11.6584 22.4412 11.6116 22.4222 11.5664 22.4004C11.5266 22.3812 11.4877 22.3597 11.4502 22.335C11.3935 22.2976 11.3408 22.2548 11.293 22.207L8.29297 19.207C7.90244 18.8165 7.90244 18.1835 8.29297 17.793C8.68349 17.4024 9.31651 17.4024 9.70703 17.793L11 19.0859V16.002H3C2.44777 16.002 2.00008 15.5542 2 15.002V2.5C2 1.94772 2.44772 1.5 3 1.5C3.55228 1.5 4 1.94772 4 2.5V14.002H11.959C11.9726 14.0014 11.9862 14 12 14C12.0138 14 12.0274 14.0014 12.041 14.002H20V2.5C20 1.94772 20.4477 1.5 21 1.5ZM14.5 4.00098C15.0523 4.00098 15.5 4.44869 15.5 5.00098V11L15.4951 11.1025C15.4438 11.6067 15.0177 12 14.5 12C13.9823 12 13.5562 11.6067 13.5049 11.1025L13.5 11V5.00098C13.5 4.44869 13.9477 4.00098 14.5 4.00098ZM8.77148 4.78418C9.16101 4.3929 9.79412 4.39099 10.1855 4.78027L12.7041 7.28809C13.0944 7.67671 13.0971 8.30742 12.71 8.69922L10.1914 11.248C9.80323 11.6406 9.17013 11.6449 8.77734 11.2568C8.38449 10.8687 8.38135 10.2347 8.76953 9.8418L10.5869 8.00195L8.77539 6.19824C8.38411 5.80872 8.3822 5.17561 8.77148 4.78418Z" fill="#9E9E9E"/>
</g>
</svg>
