<svg width="24" height="24" viewBox="0 0 24 24" fill="none" xmlns="http://www.w3.org/2000/svg">
<g id="icons/Charts/follow-up-date-sort">
<path id="Union" d="M21 1.5C21.5523 1.5 22 1.94772 22 2.5V15.002C21.9999 15.5542 21.5522 16.002 21 16.002H13V19.0859L14.293 17.793C14.6835 17.4024 15.3165 17.4024 15.707 17.793C16.0976 18.1835 16.0976 18.8165 15.707 19.207L12.707 22.207C12.6592 22.2548 12.6065 22.2976 12.5498 22.335C12.5121 22.3599 12.4727 22.3811 12.4326 22.4004C12.3874 22.4222 12.3407 22.4412 12.292 22.4561C12.2717 22.4622 12.251 22.4668 12.2305 22.4717C12.2191 22.4744 12.2078 22.4772 12.1963 22.4795C12.1859 22.4816 12.1754 22.4826 12.165 22.4844C12.1112 22.4933 12.0563 22.5 12 22.5C11.9433 22.5 11.8881 22.4934 11.834 22.4844C11.8236 22.4826 11.8131 22.4816 11.8027 22.4795C11.7912 22.4772 11.7799 22.4744 11.7686 22.4717C11.748 22.4668 11.7273 22.4623 11.707 22.4561C11.6584 22.4412 11.6116 22.4222 11.5664 22.4004C11.5266 22.3812 11.4877 22.3597 11.4502 22.335C11.3935 22.2976 11.3408 22.2548 11.293 22.207L8.29297 19.207C7.90244 18.8165 7.90244 18.1835 8.29297 17.793C8.68349 17.4024 9.31651 17.4024 9.70703 17.793L11 19.0859V16.002H3C2.44777 16.002 2.00008 15.5542 2 15.002V2.5C2 1.94772 2.44772 1.5 3 1.5C3.55228 1.5 4 1.94772 4 2.5V14.002H11.959C11.9726 14.0014 11.9862 14 12 14C12.0138 14 12.0274 14.0014 12.041 14.002H20V2.5C20 1.94772 20.4477 1.5 21 1.5ZM13.2881 4.78125C13.679 4.39142 14.3121 4.39249 14.7021 4.7832L17.208 7.29395C17.2474 7.33342 17.2821 7.37601 17.3135 7.41992C17.3195 7.4283 17.3253 7.43675 17.3311 7.44531C17.3796 7.5179 17.4168 7.59542 17.4443 7.67578C17.4484 7.68755 17.4534 7.69898 17.457 7.71094C17.4715 7.75901 17.4812 7.80804 17.4883 7.85742C17.495 7.90406 17.5 7.95151 17.5 8C17.5 8.05495 17.4939 8.10859 17.4854 8.16113C17.4836 8.17185 17.4826 8.18269 17.4805 8.19336C17.4775 8.20854 17.4734 8.22336 17.4697 8.23828C17.4657 8.25461 17.4619 8.27096 17.457 8.28711C17.4531 8.30037 17.4479 8.31315 17.4434 8.32617C17.4367 8.34553 17.4298 8.36479 17.4219 8.38379C17.4025 8.43013 17.3793 8.4741 17.3535 8.5166C17.3466 8.52794 17.3404 8.53966 17.333 8.55078C17.3234 8.5652 17.313 8.57889 17.3027 8.59277C17.2936 8.60508 17.2851 8.61791 17.2754 8.62988C17.2513 8.65944 17.2255 8.68725 17.1982 8.71387L14.707 11.2471C14.3196 11.6404 13.6865 11.645 13.293 11.2578C12.8997 10.8705 12.8942 10.2373 13.2812 9.84375L14.1113 9H7.5C6.94772 9 6.5 8.55228 6.5 8C6.5 7.44772 6.94772 7 7.5 7H14.0898L13.2861 6.19531C12.8964 5.8044 12.8974 5.17126 13.2881 4.78125Z" fill="#9E9E9E"/>
</g>
</svg>
