<svg width="24" height="24" viewBox="0 0 24 24" fill="none" xmlns="http://www.w3.org/2000/svg">
<g id="icons/Charts/form">
<path id="Union" d="M21 3C22.1046 3 23 3.89543 23 5V19C23 19.036 22.9978 19.0715 22.9941 19.1064C22.9387 20.1615 22.0688 21 21 21H3C1.93118 21 1.06027 20.1615 1.00488 19.1064C1.00119 19.0715 1 19.0359 1 19V5C1 3.89543 1.89543 3 3 3H21ZM3 19H7.5V15.5H3V19ZM9.5 19H14.5V15.5H9.5V19ZM16.5 19H21V15.5H16.5V19ZM3 13.5H7.5V10.5H3V13.5ZM9.5 13.5H14.5V10.5H9.5V13.5ZM16.5 13.5H21V10.5H16.5V13.5ZM3 8.5H21V5H3V8.5Z" fill="#9E9E9E"/>
</g>
</svg>
