<svg width="24" height="24" viewBox="0 0 24 24" fill="none" xmlns="http://www.w3.org/2000/svg">
<g id="icons/Charts/histogram">
<path id="Union" d="M2 1C2.55228 1 3 1.44772 3 2V19.2725C3.00959 19.2271 3.01844 19.181 3.02832 19.1348C3.37304 17.5205 3.89635 15.3586 4.6084 13.1885C5.31634 11.0309 6.23068 8.80471 7.37695 7.09863C8.49554 5.43382 10.0179 4 12 4C13.9821 4 15.5045 5.43382 16.623 7.09863C17.7693 8.80471 18.6837 11.0309 19.3916 13.1885C20.1036 15.3586 20.627 17.5205 20.9717 19.1348C21.1335 19.8924 21.2555 20.5327 21.3408 21H22C22.5523 21 23 21.4477 23 22C23 22.5523 22.5523 23 22 23H2C1.44772 23 1 22.5523 1 22V2C1 1.44772 1.44772 1 2 1ZM12 6C11.0603 6 10.0591 6.69125 9.03613 8.21387C8.04089 9.69522 7.19534 11.7192 6.50879 13.8115C5.82636 15.8913 5.32031 17.9796 4.98438 19.5527C4.8656 20.1089 4.76933 20.5993 4.69336 21H19.3066C19.2307 20.5993 19.1344 20.1089 19.0156 19.5527C18.6797 17.9796 18.1736 15.8913 17.4912 13.8115C16.8047 11.7192 15.9591 9.69522 14.9639 8.21387C13.9409 6.69125 12.9397 6 12 6Z" fill="#9E9E9E"/>
</g>
</svg>
