<svg width="24" height="24" viewBox="0 0 24 24" fill="none" xmlns="http://www.w3.org/2000/svg">
<g id="icons/Charts/kagi-map">
<path id="Union" d="M13.9893 2C14.5415 2 14.9893 2.44772 14.9893 3V15.5332H16.0098V8.0625C16.0098 7.51034 16.4577 7.06271 17.0098 7.0625H20.0342C20.5865 7.0625 21.0342 7.51022 21.0342 8.0625V20H22C22.5523 20 23 20.4477 23 21C23 21.5523 22.5523 22 22 22H20.0342C19.482 21.9999 19.0342 21.5522 19.0342 21V9.0625H18.0098V16.5332C18.0096 17.0854 17.562 17.5332 17.0098 17.5332H13.9893C13.4372 17.533 12.9894 17.0853 12.9893 16.5332V4H10.9707V21C10.9707 21.5522 10.5228 21.9998 9.9707 22H7.5C6.94772 22 6.5 21.5523 6.5 21V13H5V21C5 21.5523 4.55228 22 4 22H2C1.44772 22 1 21.5523 1 21C1 20.4477 1.44772 20 2 20H3V12L3.00488 11.8975C3.05621 11.3933 3.48232 11 4 11H7.5C8.05228 11 8.5 11.4477 8.5 12V20H8.9707V3C8.9707 2.44772 9.41842 2 9.9707 2H13.9893Z" fill="#9E9E9E"/>
</g>
</svg>
