<svg width="24" height="24" viewBox="0 0 24 24" fill="none" xmlns="http://www.w3.org/2000/svg">
<g id="icons/Charts/material-three">
<path id="Union" d="M18.2979 2.5C18.7409 2.5 19.0627 2.5443 19.3799 2.69434L19.5156 2.76465L19.6367 2.83984C19.8703 2.99748 20.0606 3.20274 20.2021 3.44141L20.2686 3.56348L20.3301 3.69824C20.4606 4.01119 20.5 4.3272 20.5 4.78223V6.5H21.5C22.0523 6.5 22.5 6.94772 22.5 7.5V20.5C22.5 21.0523 22.0523 21.5 21.5 21.5H2.5C1.94772 21.5 1.5 21.0523 1.5 20.5V7.5C1.5 6.94772 1.94772 6.5 2.5 6.5H3.5V4.78223C3.5 4.26205 3.55097 3.92343 3.73145 3.56348L3.79785 3.44141C3.96296 3.16295 4.19503 2.92971 4.48438 2.76465L4.62012 2.69434C4.9373 2.5443 5.25909 2.5 5.70215 2.5H18.2979ZM10.7598 17.6504C10.409 18.0596 9.79694 18.1179 9.37598 17.7812L7.6084 16.3672L4.76562 19.5H18.7656L13.124 14.8916L10.7598 17.6504ZM3.5 17.9189L6.75977 14.3281L6.8291 14.2588C7.18862 13.9324 7.7383 13.9097 8.125 14.2188L9.87012 15.6152L12.2412 12.8496C12.5945 12.4374 13.2122 12.3823 13.6328 12.7256L20.5 18.334V8.5H3.5V17.9189ZM6.5 10C7.32845 10 8 10.6715 8 11.5C8 12.3285 7.32845 13 6.5 13C5.67155 13 5 12.3285 5 11.5C5 10.6715 5.67155 10 6.5 10ZM5.51172 4.50488C5.50648 4.55131 5.5 4.63555 5.5 4.78223V6.5H18.5V4.78223C18.5 4.63545 18.4925 4.5513 18.4873 4.50488C18.4468 4.50193 18.3858 4.5 18.2979 4.5H5.70215C5.61349 4.5 5.55224 4.5019 5.51172 4.50488Z" fill="#9E9E9E"/>
</g>
</svg>
