<svg width="24" height="24" viewBox="0 0 24 24" fill="none" xmlns="http://www.w3.org/2000/svg">
<g id="icons/Charts/maximum">
<path id="Union" d="M2 1C2.55228 1 3 1.44772 3 2V21H22C22.5523 21 23 21.4477 23 22C23 22.5523 22.5523 23 22 23H2C1.44772 23 1 22.5523 1 22V2C1 1.44772 1.44772 1 2 1ZM9.78125 1C10.3303 1 10.775 1.44245 10.7803 1.99023C11.2938 1.59716 11.8557 1.29564 12.4697 1.13379C12.6166 1.04896 12.7869 1 12.9688 1H14.0312C14.2128 1 14.3825 1.04923 14.5293 1.13379C15.1434 1.29552 15.7051 1.59719 16.2188 1.99023C16.224 1.44245 16.6697 1 17.2188 1H18.2812C18.8335 1 19.2812 1.44772 19.2812 2C19.2812 2.55228 18.8335 3 18.2812 3H17.2842C17.5855 3.34434 17.8653 3.71505 18.123 4.09863C19.2693 5.80471 20.1837 8.03093 20.8916 10.1885C21.6036 12.3586 22.127 14.5205 22.4717 16.1348C22.6444 16.9434 22.7728 17.6182 22.8584 18.0918C22.9012 18.3285 22.9335 18.5152 22.9551 18.6436C22.9658 18.7078 22.974 18.758 22.9795 18.792C22.9822 18.8088 22.9839 18.8221 22.9854 18.8311C22.986 18.8352 22.9869 18.8384 22.9873 18.8408V18.8438L22.9883 18.8447V18.8457C23.0735 19.3913 22.6999 19.903 22.1543 19.9883C21.6429 20.0681 21.1618 19.745 21.0332 19.2549L21.0117 19.1543V19.1523C21.0115 19.1507 21.0113 19.148 21.0107 19.1445C21.0096 19.1373 21.0073 19.1262 21.0049 19.1113C21 19.081 20.9925 19.0349 20.9824 18.9746C20.9622 18.854 20.9318 18.6752 20.8906 18.4473C20.8082 17.9912 20.6833 17.3377 20.5156 16.5527C20.1797 14.9796 19.6736 12.8913 18.9912 10.8115C18.3047 8.71923 17.4591 6.69522 16.4639 5.21387C15.4409 3.69125 14.4397 3 13.5 3C12.5603 3 11.5591 3.69125 10.5361 5.21387C9.54089 6.69522 8.69534 8.71923 8.00879 10.8115C7.32636 12.8913 6.82031 14.9796 6.48438 16.5527C6.31675 17.3377 6.19183 17.9912 6.10938 18.4473C6.06816 18.6752 6.03781 18.854 6.01758 18.9746C6.00747 19.0349 6.00002 19.081 5.99512 19.1113C5.9927 19.1262 5.99041 19.1373 5.98926 19.1445C5.98871 19.148 5.98854 19.1507 5.98828 19.1523V19.1543C5.90303 19.6999 5.39132 20.0735 4.8457 19.9883C4.30008 19.903 3.92653 19.3913 4.01172 18.8457V18.8447L4.0127 18.8438V18.8408C4.01307 18.8384 4.01399 18.8352 4.01465 18.8311C4.01608 18.8221 4.0178 18.8088 4.02051 18.792C4.02601 18.758 4.03415 18.7078 4.04492 18.6436C4.06645 18.5152 4.0988 18.3285 4.1416 18.0918C4.22723 17.6182 4.35565 16.9434 4.52832 16.1348C4.87304 14.5205 5.39635 12.3586 6.1084 10.1885C6.81634 8.03093 7.73068 5.80471 8.87695 4.09863C9.13468 3.71505 9.41454 3.34434 9.71582 3H8.71875C8.16647 3 7.71875 2.55228 7.71875 2C7.71875 1.44772 8.16647 1 8.71875 1H9.78125ZM5.53125 1C6.08353 1 6.53125 1.44772 6.53125 2C6.53125 2.55228 6.08353 3 5.53125 3H5C4.44772 3 4 2.55228 4 2C4 1.44772 4.44772 1 5 1H5.53125ZM22 1C22.5523 1 23 1.44772 23 2C23 2.55228 22.5523 3 22 3H21.4688C20.9165 3 20.4688 2.55228 20.4688 2C20.4688 1.44772 20.9165 1 21.4688 1H22Z" fill="#9E9E9E"/>
</g>
</svg>
