<svg width="24" height="24" viewBox="0 0 24 24" fill="none" xmlns="http://www.w3.org/2000/svg">
<g id="icons/Charts/min">
<path id="Union" d="M2 1C2.55216 1 2.99979 1.44789 3 2V21H22C22.5522 21 22.9998 21.4479 23 22C23 22.5523 22.5523 23 22 23H2C1.44772 23 1 22.5523 1 22V2C1.00021 1.44789 1.44784 1 2 1ZM5.53125 18C6.08341 18 6.53104 18.4479 6.53125 19C6.53125 19.5523 6.08353 20 5.53125 20H5C4.44772 20 4 19.5523 4 19C4.00021 18.4479 4.44784 18 5 18H5.53125ZM4.8457 1.01172C5.39117 0.926587 5.90285 1.3003 5.98828 1.8457V1.84766C5.98853 1.84923 5.98875 1.85218 5.98926 1.85547C5.9904 1.86264 5.99273 1.87394 5.99512 1.88867C6.00001 1.91892 6.00751 1.96533 6.01758 2.02539C6.0378 2.14594 6.06819 2.32493 6.10938 2.55273C6.19182 3.00872 6.31679 3.66243 6.48438 4.44727C6.82029 6.02033 7.32642 8.10882 8.00879 10.1885C8.6953 12.2806 9.54096 14.3048 10.5361 15.7861C11.5591 17.3087 12.5603 18 13.5 18C14.4397 18 15.4409 17.3087 16.4639 15.7861C17.459 14.3048 18.3047 12.2806 18.9912 10.1885C19.6736 8.10882 20.1797 6.02033 20.5156 4.44727C20.6832 3.66243 20.8082 3.00872 20.8906 2.55273C20.9318 2.32493 20.9622 2.14594 20.9824 2.02539C20.9925 1.96533 21 1.91892 21.0049 1.88867C21.0073 1.87394 21.0096 1.86264 21.0107 1.85547C21.0112 1.85218 21.0115 1.84923 21.0117 1.84766V1.8457C21.0971 1.3003 21.6088 0.926587 22.1543 1.01172C22.6998 1.09695 23.0732 1.60882 22.9883 2.1543V2.15527L22.9873 2.15625V2.15918C22.9869 2.16151 22.986 2.16498 22.9854 2.16895C22.9839 2.17785 22.9822 2.19142 22.9795 2.20801C22.974 2.24194 22.9658 2.29242 22.9551 2.35645C22.9336 2.48475 22.9012 2.67166 22.8584 2.9082C22.7728 3.38173 22.6443 4.05679 22.4717 4.86523C22.127 6.47943 21.6036 8.64155 20.8916 10.8115C20.1837 12.969 19.2692 15.1953 18.123 16.9014C17.8654 17.2849 17.5854 17.6557 17.2842 18H18.2812C18.8334 18 19.281 18.4479 19.2812 19C19.2812 19.5523 18.8335 20 18.2812 20H17.2188C16.6693 20 16.2233 19.5572 16.2188 19.0088C15.705 19.4021 15.1436 19.7044 14.5293 19.8662C14.3825 19.9508 14.2129 20 14.0312 20H12.9688C12.7868 20 12.6167 19.9511 12.4697 19.8662C11.8555 19.7043 11.294 19.4021 10.7803 19.0088C10.7758 19.5572 10.3307 20 9.78125 20H8.71875C8.16647 20 7.71875 19.5523 7.71875 19C7.71896 18.4479 8.16659 18 8.71875 18H9.71582C9.41461 17.6557 9.13463 17.2849 8.87695 16.9014C7.73077 15.1953 6.81631 12.969 6.1084 10.8115C5.39641 8.64155 4.87302 6.47943 4.52832 4.86523C4.35569 4.05679 4.22722 3.38173 4.1416 2.9082C4.09884 2.67166 4.06644 2.48475 4.04492 2.35645C4.03418 2.29242 4.026 2.24194 4.02051 2.20801C4.01783 2.19142 4.01606 2.17785 4.01465 2.16895C4.014 2.16498 4.01306 2.16151 4.0127 2.15918V2.15625L4.01172 2.15527V2.1543C3.92676 1.60882 4.3002 1.09695 4.8457 1.01172ZM22 18C22.5522 18 22.9998 18.4479 23 19C23 19.5523 22.5523 20 22 20H21.4688C20.9165 20 20.4688 19.5523 20.4688 19C20.469 18.4479 20.9166 18 21.4688 18H22Z" fill="#9E9E9E"/>
</g>
</svg>
