<svg width="24" height="24" viewBox="0 0 24 24" fill="none" xmlns="http://www.w3.org/2000/svg">
<g id="icons/Charts/multicast">
<path id="Union" d="M3.5 19.5C4.05228 19.5 4.5 19.9477 4.5 20.5V21C4.5 21.5523 4.05228 22 3.5 22C2.94772 22 2.5 21.5523 2.5 21V20.5C2.5 19.9477 2.94772 19.5 3.5 19.5ZM9 19.5C9.55228 19.5 10 19.9477 10 20.5V21C10 21.5523 9.55228 22 9 22C8.44772 22 8 21.5523 8 21V20.5C8 19.9477 8.44772 19.5 9 19.5ZM15 19.5C15.5523 19.5 16 19.9477 16 20.5V21C16 21.5523 15.5523 22 15 22C14.4477 22 14 21.5523 14 21V20.5C14 19.9477 14.4477 19.5 15 19.5ZM20.5 19.5C21.0523 19.5 21.5 19.9477 21.5 20.5V21C21.5 21.5523 21.0523 22 20.5 22C19.9477 22 19.5 21.5523 19.5 21V20.5C19.5 19.9477 19.9477 19.5 20.5 19.5ZM12 1.5C13.933 1.5 15.5 3.067 15.5 5C15.5 6.58534 14.4455 7.9231 13 8.35352V10.502L20.501 10.5068C21.0529 10.5074 21.5 10.9549 21.5 11.5068V16.5C21.5 17.0523 21.0523 17.5 20.5 17.5C19.9477 17.5 19.5 17.0523 19.5 16.5V12.5059L10 12.5V16.5C10 17.0523 9.55228 17.5 9 17.5C8.44772 17.5 8 17.0523 8 16.5V11.5C8 11.2348 8.10543 10.9805 8.29297 10.793C8.48063 10.6054 8.73566 10.4999 9.00098 10.5L11 10.501V8.35352C9.55448 7.9231 8.5 6.58534 8.5 5C8.5 3.067 10.067 1.5 12 1.5ZM12 3.5C11.1716 3.5 10.5 4.17158 10.5 5C10.5 5.82842 11.1716 6.5 12 6.5C12.8284 6.5 13.5 5.82842 13.5 5C13.5 4.17158 12.8284 3.5 12 3.5Z" fill="#9E9E9E"/>
</g>
</svg>
