<svg width="24" height="24" viewBox="0 0 24 24" fill="none" xmlns="http://www.w3.org/2000/svg">
<g id="icons/Charts/negative-dynamics">
<path id="Union" d="M8.5 15.9756C9.05228 15.9756 9.5 16.4233 9.5 16.9756V21.0557C9.49992 21.6079 9.05223 22.0557 8.5 22.0557C7.94777 22.0557 7.50008 21.6079 7.5 21.0557V16.9756C7.5 16.4233 7.94772 15.9756 8.5 15.9756ZM16.5 8.48047C17.0523 8.48047 17.5 8.92818 17.5 9.48047V21.0439C17.4998 21.5961 17.0522 22.0439 16.5 22.0439C15.9478 22.0439 15.5002 21.5961 15.5 21.0439V9.48047C15.5 8.92818 15.9477 8.48047 16.5 8.48047ZM20.5 4.48535C21.0523 4.48535 21.5 4.93307 21.5 5.48535V21.042C21.4998 21.5941 21.0521 22.042 20.5 22.042C19.9479 22.042 19.5002 21.5941 19.5 21.042V5.48535C19.5 4.93307 19.9477 4.48535 20.5 4.48535ZM12.5 12.5C13.0523 12.5 13.5 12.9477 13.5 13.5V21.0361C13.4997 21.5882 13.0521 22.0361 12.5 22.0361C11.9479 22.0361 11.5003 21.5882 11.5 21.0361V13.5C11.5 12.9477 11.9477 12.5 12.5 12.5ZM4.5 19C5.05228 19 5.5 19.4477 5.5 20V21.0273C5.49996 21.5796 5.05226 22.0273 4.5 22.0273C3.94774 22.0273 3.50004 21.5796 3.5 21.0273V20C3.5 19.4477 3.94772 19 4.5 19ZM16.293 2.29297C16.6835 1.90244 17.3165 1.90244 17.707 2.29297C18.0975 2.6835 18.0975 3.31652 17.707 3.70703L4.20703 17.207C4.15922 17.2548 4.10646 17.2976 4.0498 17.335C4.00512 17.3644 3.95803 17.3886 3.91016 17.4102C3.90138 17.4141 3.89269 17.4182 3.88379 17.4219C3.86669 17.429 3.84942 17.4353 3.83203 17.4414C3.81865 17.4461 3.80563 17.4519 3.79199 17.4561C3.7717 17.4622 3.75105 17.4668 3.73047 17.4717C3.71911 17.4744 3.7078 17.4772 3.69629 17.4795C3.68593 17.4816 3.67544 17.4826 3.66504 17.4844C3.61125 17.4933 3.55633 17.5 3.5 17.5L3.39746 17.4951C3.37598 17.4929 3.35504 17.4879 3.33398 17.4844C3.32358 17.4826 3.31309 17.4816 3.30273 17.4795C3.29123 17.4772 3.27991 17.4744 3.26855 17.4717C3.24799 17.4668 3.22732 17.4623 3.20703 17.4561C3.1934 17.4519 3.18037 17.4461 3.16699 17.4414C3.14962 17.4353 3.13232 17.429 3.11523 17.4219C3.10634 17.4182 3.09763 17.4141 3.08887 17.4102C3.04128 17.3887 2.99462 17.3643 2.9502 17.335C2.83825 17.2611 2.74237 17.1653 2.66797 17.0537C2.64195 17.0147 2.61956 16.9741 2.59961 16.9326C2.57767 16.887 2.55788 16.8401 2.54297 16.791C2.5379 16.7743 2.53445 16.7572 2.53027 16.7402C2.51125 16.6632 2.50001 16.5829 2.5 16.5V11C2.5 10.4477 2.94772 10 3.5 10C4.05228 10 4.5 10.4477 4.5 11V14.0859L16.293 2.29297Z" fill="#9E9E9E"/>
</g>
</svg>
