<svg width="24" height="24" viewBox="0 0 24 24" fill="none" xmlns="http://www.w3.org/2000/svg">
<g id="icons/Charts/parabola">
<path id="Union" d="M22 15.5C22.5523 15.5 23 15.9477 23 16.5V19.5C23 20.0523 22.5523 20.5 22 20.5C21.4477 20.5 21 20.0523 21 19.5V19H13V19.5C13 20.0523 12.5523 20.5 12 20.5C11.4477 20.5 11 20.0523 11 19.5V19H3V19.5C3 20.0523 2.55228 20.5 2 20.5C1.44772 20.5 1 20.0523 1 19.5V16.5C1 15.9477 1.44772 15.5 2 15.5C2.55228 15.5 3 15.9477 3 16.5V17H11V16.5C11 15.9477 11.4477 15.5 12 15.5C12.5523 15.5 13 15.9477 13 16.5V17H21V16.5C21 15.9477 21.4477 15.5 22 15.5ZM12 3.5C13.3587 3.5 14.4679 4.18435 15.3574 5.02148C16.242 5.85403 17.015 6.93836 17.6992 7.93359C18.4115 8.96959 19.0191 9.89461 19.6357 10.583C20.2738 11.2952 20.7051 11.5 21 11.5H22C22.5523 11.5 23 11.9477 23 12.5C23 13.0523 22.5523 13.5 22 13.5H21C19.7949 13.5 18.8511 12.7046 18.1455 11.917C17.4186 11.1055 16.7134 10.0302 16.0508 9.06641C15.3601 8.06174 14.6954 7.14593 13.9863 6.47852C13.2821 5.81568 12.6413 5.5 12 5.5C11.3587 5.5 10.7179 5.81568 10.0137 6.47852C9.30456 7.14593 8.63993 8.06174 7.94922 9.06641C7.28659 10.0302 6.58143 11.1055 5.85449 11.917C5.14891 12.7046 4.20505 13.5 3 13.5H2C1.44772 13.5 1 13.0523 1 12.5C1 11.9477 1.44772 11.5 2 11.5H3C3.29491 11.5 3.72622 11.2952 4.36426 10.583C4.98094 9.89461 5.58853 8.96959 6.30078 7.93359C6.98501 6.93836 7.758 5.85403 8.64258 5.02148C9.53205 4.18435 10.6413 3.5 12 3.5Z" fill="#9E9E9E"/>
</g>
</svg>
