<svg width="24" height="24" viewBox="0 0 24 24" fill="none" xmlns="http://www.w3.org/2000/svg">
<g id="icons/Charts/pie-six">
<path id="Union" d="M12 1C12.1667 1 12.333 1.00516 12.499 1.0127C12.5545 1.01517 12.6098 1.01819 12.665 1.02148C12.773 1.02802 12.8807 1.0362 12.9883 1.0459C13.0552 1.05185 13.1219 1.05731 13.1885 1.06445C13.293 1.0758 13.397 1.09017 13.501 1.10449C13.6306 1.12219 13.7595 1.14189 13.8877 1.16406C13.9506 1.17502 14.0135 1.1862 14.0762 1.19824C14.1707 1.2163 14.2648 1.2354 14.3584 1.25586C14.4113 1.26747 14.4639 1.28058 14.5166 1.29297C15.3667 1.492 16.178 1.78936 16.9395 2.17285C17.0043 2.20546 17.0695 2.23756 17.1338 2.27148C17.2049 2.3091 17.2755 2.34759 17.3457 2.38672C17.413 2.42412 17.4794 2.4631 17.5459 2.50195C17.6181 2.54422 17.6905 2.58602 17.7617 2.62988C17.8794 2.70226 17.9961 2.77655 18.1113 2.85352C18.1133 2.85482 18.1152 2.85612 18.1172 2.85742C18.1657 2.88997 18.2127 2.92471 18.2607 2.95801C18.3484 3.0187 18.4358 3.07949 18.5215 3.14258C18.5641 3.17404 18.6062 3.20622 18.6484 3.23828C18.7394 3.30732 18.8293 3.37751 18.918 3.44922C18.9574 3.48113 18.9972 3.51248 19.0361 3.54492C19.1496 3.63933 19.2607 3.73623 19.3701 3.83496C19.3894 3.85241 19.4085 3.87011 19.4277 3.8877C19.5338 3.98479 19.6382 4.08351 19.7402 4.18457C19.7752 4.21924 19.8092 4.25491 19.8438 4.29004C19.9213 4.3689 19.9972 4.44916 20.0723 4.53027C20.1101 4.57119 20.1483 4.61183 20.1855 4.65332C20.2656 4.74248 20.3438 4.8331 20.4209 4.9248C20.4475 4.95645 20.4747 4.98759 20.501 5.01953C20.6021 5.14263 20.7002 5.2681 20.7959 5.39551C20.8155 5.42158 20.8341 5.44836 20.8535 5.47461C20.9258 5.57269 20.9964 5.67198 21.0654 5.77246C21.1007 5.82377 21.1364 5.87482 21.1709 5.92676C21.2242 6.00729 21.2759 6.08892 21.3271 6.1709C21.3601 6.22355 21.3937 6.27585 21.4258 6.3291C21.4825 6.4234 21.5369 6.51916 21.5908 6.61523C21.6497 6.71989 21.7062 6.82588 21.7617 6.93262C21.7889 6.98493 21.8164 7.03705 21.8428 7.08984C21.8891 7.18251 21.9338 7.27599 21.9775 7.37012C21.9938 7.40513 22.0095 7.44038 22.0254 7.47559C22.2337 7.93634 22.4117 8.41332 22.5557 8.90527C22.5649 8.93673 22.5731 8.96847 22.582 9C22.6717 9.31679 22.7473 9.63908 22.8086 9.9668C22.8224 10.04 22.8364 10.1131 22.8486 10.1865C22.8621 10.2676 22.8741 10.349 22.8857 10.4307C22.9005 10.5334 22.9139 10.6362 22.9258 10.7393C22.9322 10.7958 22.9397 10.8523 22.9453 10.9092C22.9616 11.0723 22.9735 11.2357 22.9824 11.3994C22.9833 11.4154 22.9846 11.4313 22.9854 11.4473C22.9937 11.6141 22.9973 11.7811 22.998 11.9482C22.9981 11.9655 23 11.9827 23 12C23 12.0094 22.999 12.0189 22.999 12.0283C22.9982 12.3523 22.9827 12.6764 22.9531 13C22.9458 13.0814 22.9368 13.1623 22.9277 13.2432C22.9171 13.3364 22.9046 13.4294 22.8916 13.5225C22.8822 13.5906 22.874 13.6588 22.8633 13.7266C22.8457 13.8371 22.8257 13.9474 22.8047 14.0576C22.7807 14.1841 22.7538 14.3096 22.7256 14.4346C22.7134 14.4884 22.7015 14.5422 22.6885 14.5957C22.5679 15.094 22.4134 15.5786 22.2275 16.0479C22.2189 16.0697 22.21 16.0915 22.2012 16.1133C22.1581 16.2199 22.1136 16.3257 22.0674 16.4307C22.0539 16.4613 22.0401 16.4919 22.0264 16.5225C21.8879 16.829 21.7363 17.1281 21.5713 17.4189C21.5388 17.4763 21.5052 17.533 21.4717 17.5898C21.4269 17.6656 21.3815 17.7409 21.335 17.8154C21.2926 17.8834 21.2489 17.9505 21.2051 18.0176C21.1671 18.0756 21.1299 18.1341 21.0908 18.1914C21.0068 18.3148 20.9202 18.4366 20.8311 18.5566C20.8047 18.5921 20.7777 18.627 20.751 18.6621C20.6812 18.7537 20.6098 18.8441 20.5371 18.9336C20.4968 18.9831 20.4562 19.0322 20.415 19.0811C20.3516 19.1564 20.2872 19.2309 20.2217 19.3047C20.1815 19.3498 20.1415 19.395 20.1006 19.4395C19.9953 19.5541 19.8887 19.6679 19.7783 19.7783C19.6679 19.8887 19.5541 19.9953 19.4395 20.1006C19.395 20.1415 19.3498 20.1815 19.3047 20.2217C19.2309 20.2872 19.1564 20.3516 19.0811 20.415C19.0322 20.4562 18.9831 20.4968 18.9336 20.5371C18.8585 20.5981 18.7826 20.6579 18.7061 20.7168C18.6564 20.7551 18.607 20.7936 18.5566 20.8311C18.4366 20.9202 18.3148 21.0068 18.1914 21.0908C18.1341 21.1299 18.0756 21.1671 18.0176 21.2051C17.9505 21.2489 17.8834 21.2926 17.8154 21.335C17.7409 21.3815 17.6656 21.4269 17.5898 21.4717C17.5348 21.5042 17.4794 21.5359 17.4238 21.5674C17.1313 21.7336 16.8309 21.887 16.5225 22.0264C16.4919 22.0401 16.4613 22.0539 16.4307 22.0674C16.3257 22.1136 16.2199 22.1581 16.1133 22.2012C16.0915 22.21 16.0697 22.2189 16.0479 22.2275C15.6969 22.3666 15.3374 22.4879 14.9697 22.5908C14.9525 22.5957 14.9353 22.6007 14.918 22.6055C14.8112 22.6348 14.7038 22.6623 14.5957 22.6885C14.5422 22.7015 14.4884 22.7134 14.4346 22.7256C14.3382 22.7474 14.2418 22.7698 14.1445 22.7891H14.1455C14.0062 22.8168 13.8665 22.841 13.7266 22.8633C13.6588 22.874 13.5906 22.8822 13.5225 22.8916C13.4294 22.9046 13.3364 22.9171 13.2432 22.9277C13.1714 22.9358 13.0995 22.9435 13.0273 22.9502C12.8809 22.9639 12.7345 22.9755 12.5879 22.9834C12.5791 22.9839 12.5703 22.9849 12.5615 22.9854C12.3838 22.9944 12.206 22.9986 12.0283 22.999C12.0189 22.999 12.0094 23 12 23C11.9827 23 11.9655 22.9981 11.9482 22.998C11.7961 22.9973 11.6441 22.9933 11.4922 22.9863C11.4612 22.9849 11.4303 22.9841 11.3994 22.9824C11.2357 22.9735 11.0723 22.9616 10.9092 22.9453C10.8523 22.9397 10.7958 22.9322 10.7393 22.9258C10.6362 22.9139 10.5334 22.9005 10.4307 22.8857C10.3559 22.8751 10.2813 22.8637 10.207 22.8516C10.1268 22.8383 10.0468 22.8236 9.9668 22.8086C9.63908 22.7473 9.31679 22.6717 9 22.582C8.97105 22.5738 8.94198 22.5661 8.91309 22.5576C8.4184 22.4132 7.93876 22.2347 7.47559 22.0254C7.44463 22.0114 7.41362 21.9976 7.38281 21.9834C7.28929 21.9401 7.19657 21.8955 7.10449 21.8496C7.04683 21.8209 6.98971 21.7914 6.93262 21.7617C6.85491 21.7213 6.7768 21.6819 6.7002 21.6396C6.57498 21.5708 6.45135 21.4993 6.3291 21.4258C6.27585 21.3937 6.22355 21.3601 6.1709 21.3271C6.08892 21.2759 6.00729 21.2242 5.92676 21.1709C5.87482 21.1364 5.82377 21.1007 5.77246 21.0654C5.66446 20.9912 5.55737 20.9159 5.45215 20.8379C5.43327 20.8239 5.41429 20.81 5.39551 20.7959C5.2681 20.7002 5.14263 20.6021 5.01953 20.501C4.98759 20.4747 4.95645 20.4475 4.9248 20.4209C4.8331 20.3438 4.74248 20.2656 4.65332 20.1855C4.61183 20.1483 4.57119 20.1101 4.53027 20.0723C4.44916 19.9972 4.3689 19.9213 4.29004 19.8438C4.25491 19.8092 4.21924 19.7752 4.18457 19.7402C4.08189 19.6366 3.9814 19.5307 3.88281 19.4229C3.86679 19.4053 3.85087 19.3877 3.83496 19.3701C3.73436 19.2587 3.63615 19.145 3.54004 19.0293C3.50941 18.9925 3.47937 18.9552 3.44922 18.918C3.3778 18.8297 3.30803 18.74 3.23926 18.6494C3.20648 18.6063 3.17376 18.5631 3.1416 18.5195C3.06902 18.4209 2.99811 18.3209 2.92871 18.2197C2.77643 17.9981 2.63312 17.7701 2.49707 17.5371C2.45997 17.4734 2.42249 17.41 2.38672 17.3457C2.34759 17.2755 2.3091 17.2049 2.27148 17.1338C2.23756 17.0695 2.20546 17.0043 2.17285 16.9395C1.79009 16.1794 1.49297 15.3698 1.29395 14.5215C1.28115 14.4671 1.26783 14.4129 1.25586 14.3584C1.2354 14.2648 1.2163 14.1707 1.19824 14.0762C1.1862 14.0135 1.17502 13.9506 1.16406 13.8877C1.14189 13.7595 1.12219 13.6306 1.10449 13.501C1.09017 13.397 1.0758 13.293 1.06445 13.1885C1.05699 13.1191 1.05206 13.0493 1.0459 12.9795C1.03654 12.8748 1.02784 12.7701 1.02148 12.665C1.01819 12.6098 1.01517 12.5545 1.0127 12.499C1.00516 12.333 1 12.1667 1 12C1 5.92487 5.92487 1 12 1ZM13 12C13 12.5523 12.5523 13 12 13H3.05664C3.0758 13.1714 3.09905 13.3421 3.12793 13.5117C3.1318 13.5346 3.13658 13.5573 3.14062 13.5801C3.32006 14.5871 3.6707 15.5582 4.17871 16.4512C4.26886 16.6092 4.36363 16.7641 4.46289 16.916C4.48104 16.9438 4.49813 16.9724 4.5166 17C4.5521 17.0531 4.58941 17.1049 4.62598 17.1572C4.83508 17.4557 5.06082 17.7414 5.30371 18.0117C5.33374 18.0452 5.36402 18.0784 5.39453 18.1113C5.9116 18.6699 6.4995 19.161 7.14258 19.5742C7.49169 19.7981 7.85624 19.9992 8.23535 20.1738C8.24805 20.1797 8.26071 20.1856 8.27344 20.1914C8.36675 20.2339 8.46073 20.2751 8.55566 20.3145C9.1672 20.5677 9.80183 20.7501 10.4473 20.8633C10.9251 20.9464 11.4154 20.9925 11.916 20.9971C11.9609 20.9975 12.0058 20.9983 12.0508 20.998C12.4445 20.9959 12.8317 20.9672 13.2119 20.916C13.3937 20.8913 13.5752 20.8631 13.7559 20.8271C13.857 20.807 13.9575 20.7843 14.0576 20.7607C14.0687 20.7582 14.0798 20.7556 14.0908 20.7529C14.618 20.627 15.1305 20.4539 15.623 20.2373C15.6521 20.2245 15.681 20.2114 15.71 20.1982C15.9679 20.0815 16.2201 19.9529 16.4658 19.8125C16.6187 19.7249 16.7689 19.6333 16.916 19.5371C16.9893 19.4893 17.0619 19.4406 17.1338 19.3906C18.2314 18.6268 19.15 17.6253 19.8164 16.46C19.9555 16.2162 20.0825 15.9658 20.1982 15.71C20.2114 15.681 20.2245 15.6521 20.2373 15.623C20.4995 15.0267 20.6988 14.4012 20.8271 13.7559C20.8631 13.5752 20.8913 13.3937 20.916 13.2119C20.9672 12.8317 20.9959 12.4445 20.998 12.0508C20.9983 12.0058 20.9975 11.9609 20.9971 11.916C20.9934 11.52 20.9643 11.1303 20.9111 10.748C20.8058 9.99894 20.607 9.26199 20.3145 8.55566C20.1096 8.06112 19.8605 7.58911 19.5742 7.14258C19.1633 6.5032 18.6757 5.91821 18.1211 5.40332C18.085 5.36978 18.0484 5.33667 18.0117 5.30371C17.7414 5.06082 17.4557 4.83508 17.1572 4.62598C17.1049 4.58941 17.0531 4.5521 17 4.5166C16.9724 4.49813 16.9438 4.48104 16.916 4.46289C16.7641 4.36363 16.6092 4.26886 16.4512 4.17871C16.3419 4.11653 16.2316 4.05646 16.1201 3.99902C16.0909 3.98394 16.0616 3.96887 16.0322 3.9541C15.4137 3.64413 14.7626 3.4064 14.0918 3.24609C14.058 3.23805 14.0242 3.23032 13.9902 3.22266C13.8865 3.19914 13.7823 3.17804 13.6777 3.1582C13.4546 3.11611 13.2287 3.08192 13 3.05664V12ZM11 3.05664C6.82853 3.51786 3.51786 6.82853 3.05664 11H11V3.05664Z" fill="#9E9E9E"/>
</g>
</svg>
