<svg width="24" height="24" viewBox="0 0 24 24" fill="none" xmlns="http://www.w3.org/2000/svg">
<g id="icons/Charts/pie-four">
<path id="Union" d="M12 1C12.1829 1 12.3656 1.00459 12.5479 1.01367C12.6666 1.0195 12.7846 1.0295 12.9023 1.03906C12.9642 1.04415 13.0262 1.04758 13.0879 1.05371C13.2485 1.06948 13.4079 1.0897 13.5664 1.1123C13.5839 1.11483 13.6016 1.11654 13.6191 1.11914C13.7868 1.14388 13.953 1.17383 14.1182 1.20605C14.1285 1.20808 14.1391 1.20888 14.1494 1.21094C15.2166 1.42235 16.2273 1.78925 17.1592 2.28516C17.1697 2.29075 17.1809 2.29515 17.1914 2.30078C17.4926 2.46233 17.7848 2.63822 18.0684 2.82617C18.0841 2.83658 18.1005 2.84595 18.1162 2.85645C18.2112 2.9201 18.3036 2.98721 18.3965 3.05371C18.4548 3.09538 18.5138 3.1359 18.5713 3.17871C19.281 3.70827 19.9253 4.32071 20.4883 5.00293L20.5039 5.02246C20.5126 5.03303 20.5207 5.04409 20.5293 5.05469C20.6289 5.17689 20.7259 5.30126 20.8203 5.42773C20.8631 5.48518 20.9036 5.54428 20.9453 5.60254C22.1374 7.26642 22.8784 9.27472 22.9854 11.4512C22.9945 11.6338 23 11.8168 23 12C23 14.3724 22.2461 16.5674 20.9688 18.3643C20.9196 18.4335 20.8711 18.5032 20.8203 18.5713C20.1831 19.4252 19.4252 20.1831 18.5713 20.8203C18.5154 20.862 18.4581 20.9018 18.4014 20.9424C18.307 21.01 18.2128 21.0779 18.1162 21.1426C18.1005 21.1531 18.0841 21.1624 18.0684 21.1729C17.7848 21.3608 17.4926 21.5367 17.1914 21.6982C17.1809 21.7039 17.1697 21.7083 17.1592 21.7139C16.2273 22.2099 15.2167 22.5766 14.1494 22.7881C14.1391 22.7901 14.1285 22.7909 14.1182 22.793C13.953 22.8252 13.7869 22.8551 13.6191 22.8799C13.6016 22.8825 13.584 22.8842 13.5664 22.8867C13.4079 22.9093 13.2485 22.9295 13.0879 22.9453C13.0262 22.9514 12.9642 22.9549 12.9023 22.96C12.7846 22.9695 12.6666 22.9795 12.5479 22.9854C12.3655 22.9944 12.1829 23 12 23C5.92487 23 1 18.0751 1 12C1 5.92487 5.92487 1 12 1ZM11 3.05664C6.50014 3.55417 3 7.36751 3 12C3 16.6325 6.50019 20.4448 11 20.9424V3.05664ZM13 20.9424C13.8385 20.8486 14.6617 20.6386 15.4443 20.3145C16.09 20.047 16.6993 19.7037 17.2637 19.2969C17.4169 19.1862 17.5681 19.073 17.7139 18.9531C17.9396 18.7677 18.157 18.5716 18.3643 18.3643C18.5747 18.1539 18.7741 17.9335 18.9619 17.7041C19.0843 17.5549 19.1998 17.4001 19.3125 17.2432C19.7127 16.6847 20.0503 16.0821 20.3145 15.4443C20.7667 14.3524 21 13.1819 21 12C21 10.8181 20.7667 9.64758 20.3145 8.55566C20.0469 7.90971 19.7039 7.29986 19.2969 6.73535C19.1861 6.58215 19.073 6.43089 18.9531 6.28516C18.7679 6.05963 18.5714 5.84286 18.3643 5.63574C18.1568 5.42829 17.9398 5.23142 17.7139 5.0459C17.5681 4.926 17.4169 4.81285 17.2637 4.70215C16.6995 4.29549 16.0899 3.95296 15.4443 3.68555C14.8661 3.44601 14.2657 3.26763 13.6533 3.15332C13.6306 3.1491 13.6077 3.14565 13.585 3.1416C13.4088 3.11012 13.2316 3.08444 13.0537 3.06348C13.0358 3.06139 13.018 3.05863 13 3.05664V20.9424Z" fill="#9E9E9E"/>
</g>
</svg>
