<svg width="24" height="24" viewBox="0 0 24 24" fill="none" xmlns="http://www.w3.org/2000/svg">
<g id="icons/Charts/pie-five">
<path id="Union" d="M12 1C12.1732 1 12.346 1.00455 12.5186 1.0127C12.5459 1.01397 12.5733 1.01513 12.6006 1.0166C12.7536 1.02497 12.9063 1.03607 13.0586 1.05078C13.1197 1.05661 13.1804 1.06446 13.2412 1.07129C13.3561 1.08433 13.4707 1.0986 13.585 1.11523C13.6598 1.12604 13.7343 1.13809 13.8086 1.15039C13.8905 1.16404 13.9722 1.17884 14.0537 1.19434C14.3612 1.25243 14.664 1.32314 14.9619 1.40625C14.9707 1.40872 14.9795 1.41157 14.9883 1.41406C15.4999 1.55819 15.9962 1.7378 16.4746 1.95117C16.5177 1.97036 16.5606 1.99001 16.6035 2.00977C16.7247 2.06568 16.8442 2.12442 16.9629 2.18457C17.0244 2.21569 17.0864 2.24601 17.1475 2.27832C17.1543 2.28193 17.1612 2.28544 17.168 2.28906C17.2317 2.32303 17.2945 2.35838 17.3574 2.39355C17.4368 2.43784 17.5156 2.48311 17.5938 2.5293C17.6396 2.55644 17.686 2.58257 17.7314 2.61035C17.8542 2.68533 17.9751 2.76316 18.0947 2.84277C18.1312 2.86708 18.167 2.89227 18.2031 2.91699C18.4543 3.0886 18.6979 3.27044 18.9336 3.46191C18.9675 3.4895 19.0016 3.51694 19.0352 3.54492C19.143 3.63471 19.2492 3.72648 19.3535 3.82031C19.396 3.85853 19.4376 3.89766 19.4795 3.93652C19.5554 4.007 19.6302 4.07875 19.7041 4.15137C19.7376 4.18427 19.7716 4.21668 19.8047 4.25C19.9034 4.34949 20.0008 4.45045 20.0957 4.55371C20.1318 4.5929 20.1667 4.63314 20.2021 4.67285C20.2742 4.75355 20.3453 4.83511 20.415 4.91797C20.4609 4.97245 20.5059 5.02764 20.5508 5.08301C20.6187 5.16697 20.6855 5.25186 20.751 5.33789C20.7872 5.38542 20.8229 5.43331 20.8584 5.48145C20.9278 5.57574 20.996 5.67095 21.0625 5.76758C21.1155 5.84451 21.1667 5.92265 21.2178 6.00098C21.2517 6.05315 21.2853 6.10551 21.3184 6.1582C21.4713 6.40173 21.6151 6.65136 21.749 6.90723C21.7726 6.95227 21.7955 6.99762 21.8184 7.04297C22.1985 7.79436 22.4948 8.59443 22.6953 9.43262C22.7041 9.46901 22.7123 9.5055 22.7207 9.54199C22.7502 9.6711 22.7778 9.80085 22.8027 9.93164C22.819 10.0164 22.8344 10.1013 22.8486 10.1865C22.8611 10.2615 22.8729 10.3366 22.8838 10.4121C22.9023 10.5387 22.9195 10.6656 22.9336 10.793C22.9344 10.8004 22.9347 10.808 22.9355 10.8154C22.9408 10.8648 22.9446 10.9143 22.9492 10.9639C22.98 11.2892 22.9963 11.6149 22.998 11.9404C22.9982 11.9603 23 11.9801 23 12C23 12.0156 22.9981 12.0313 22.998 12.0469C22.9974 12.2098 22.9942 12.3726 22.9863 12.5352C22.9851 12.5609 22.9829 12.5866 22.9814 12.6123C22.9738 12.7502 22.9631 12.8879 22.9502 13.0254C22.9449 13.0831 22.9398 13.1408 22.9336 13.1982C22.92 13.3226 22.9036 13.4465 22.8857 13.5703C22.8766 13.634 22.8676 13.6975 22.8574 13.7607C22.8442 13.8423 22.8295 13.9236 22.8145 14.0049C22.791 14.132 22.7651 14.2582 22.7373 14.3838C22.7261 14.4343 22.715 14.4848 22.7031 14.5352C22.5065 15.3684 22.2149 16.1641 21.8408 16.9121C21.8208 16.9522 21.8008 16.9924 21.7803 17.0322C21.7191 17.151 21.6562 17.2686 21.5908 17.3848C21.5517 17.4544 21.5113 17.5231 21.4707 17.5918C21.4306 17.6596 21.3902 17.7271 21.3486 17.7939C21.2949 17.8805 21.2406 17.9667 21.1846 18.0518C21.1409 18.1179 21.0958 18.1829 21.0508 18.248C20.9982 18.3242 20.9451 18.3998 20.8906 18.4746C20.8529 18.5263 20.815 18.5779 20.7764 18.6289C20.6957 18.7357 20.6138 18.8415 20.5293 18.9453C20.4945 18.9879 20.4582 19.0292 20.4229 19.0713C20.3522 19.1554 20.2812 19.2393 20.208 19.3213C20.1801 19.3526 20.1523 19.3841 20.124 19.415C20.0261 19.5223 19.9255 19.627 19.8232 19.7305C19.7896 19.7645 19.7558 19.7984 19.7217 19.832C19.6466 19.906 19.5704 19.9789 19.4932 20.0508C19.4412 20.0991 19.3888 20.147 19.3359 20.1943C19.2722 20.2514 19.2087 20.3086 19.1436 20.3643C19.1177 20.3864 19.0905 20.4069 19.0645 20.4287C19.0246 20.4621 18.9847 20.4954 18.9443 20.5283C18.8378 20.6151 18.7306 20.7007 18.6211 20.7832C18.5819 20.8128 18.5416 20.841 18.502 20.8701C18.4166 20.9327 18.3302 20.9937 18.2432 21.0537C18.1892 21.091 18.1357 21.1287 18.0811 21.165C18.0355 21.1953 17.9893 21.2244 17.9434 21.2539C17.8216 21.3322 17.6982 21.4078 17.5732 21.4814C17.5118 21.5176 17.4499 21.5529 17.3877 21.5879C17.2857 21.6453 17.1831 21.7016 17.0791 21.7559C17.0211 21.7861 16.9628 21.8156 16.9043 21.8447C16.6218 21.9857 16.3327 22.1147 16.0371 22.2314C16.0175 22.2392 15.9981 22.2473 15.9785 22.2549C15.6864 22.3683 15.3885 22.4691 15.085 22.5576C15.0437 22.5697 15.0023 22.5812 14.9609 22.5928C14.8319 22.6288 14.7022 22.663 14.5713 22.6943C14.514 22.7081 14.4569 22.7225 14.3994 22.7354C14.3823 22.7392 14.3648 22.7414 14.3477 22.7451C14.2691 22.7622 14.1905 22.7795 14.1113 22.7949C13.9918 22.8183 13.872 22.839 13.752 22.8584C13.6899 22.8683 13.6278 22.8778 13.5654 22.8867C13.452 22.903 13.3384 22.9169 13.2246 22.9297C13.1761 22.9351 13.1278 22.9416 13.0791 22.9463C12.9218 22.9618 12.7641 22.9727 12.6064 22.9814C12.5785 22.983 12.5505 22.985 12.5225 22.9863C12.3545 22.9943 12.1866 22.9987 12.0186 22.999C12.0124 22.999 12.0062 23 12 23C11.987 23 11.974 22.9981 11.9609 22.998C11.6284 22.9969 11.2961 22.9805 10.9648 22.9492C10.9078 22.9439 10.8508 22.9388 10.7939 22.9326C10.656 22.9174 10.5183 22.9003 10.3809 22.8799C10.3204 22.871 10.2603 22.8605 10.2002 22.8506C10.1157 22.8366 10.0314 22.8216 9.94727 22.8057C9.83265 22.784 9.71879 22.7605 9.60547 22.7354C9.52559 22.7175 9.44577 22.6993 9.36621 22.6797C9.28379 22.6594 9.20179 22.6383 9.12012 22.6162C9.11235 22.6141 9.10445 22.6125 9.09668 22.6104C9.07145 22.6034 9.04666 22.595 9.02148 22.5879C8.51861 22.4467 8.03052 22.2716 7.55957 22.0635C7.51598 22.0442 7.47301 22.0237 7.42969 22.0039C7.29944 21.9443 7.17043 21.8828 7.04297 21.8184C6.98942 21.7913 6.93591 21.7642 6.88281 21.7363C6.81006 21.698 6.73779 21.659 6.66602 21.6191C6.58045 21.5717 6.4954 21.5234 6.41113 21.4736C6.33788 21.4303 6.26551 21.3858 6.19336 21.3408C6.10349 21.2849 6.01404 21.2284 5.92578 21.1699C5.88567 21.1433 5.8454 21.117 5.80566 21.0898C5.68651 21.0086 5.56911 20.9248 5.45312 20.8389C5.41991 20.8142 5.38742 20.7887 5.35449 20.7637C5.25626 20.6892 5.15927 20.613 5.06348 20.5352C5.03761 20.5141 5.01103 20.4939 4.98535 20.4727C4.86849 20.3759 4.75362 20.2765 4.64062 20.1748C4.61306 20.15 4.5859 20.1247 4.55859 20.0996C4.52908 20.0725 4.49896 20.046 4.46973 20.0186C4.45485 20.0046 4.44156 19.9893 4.42773 19.9746C2.31769 17.9704 1 15.1399 1 12C1 5.92487 5.92487 1 12 1ZM13 12C13 12.2543 12.9026 12.4992 12.7285 12.6846L6.60547 19.2041C7.50791 19.8798 8.53184 20.3816 9.625 20.6807C9.87453 20.7489 10.1265 20.8052 10.3799 20.8516C10.7424 20.9175 11.112 20.9633 11.4883 20.9844C11.5299 20.9867 11.5716 20.9875 11.6133 20.9893C11.7267 20.9941 11.8406 20.9975 11.9551 20.998C11.9759 20.9982 11.9967 20.9991 12.0176 20.999C12.4355 20.9982 12.8463 20.9671 13.249 20.9111C13.4835 20.8783 13.7171 20.8367 13.9492 20.7852C13.9646 20.7818 13.9798 20.7779 13.9951 20.7744C14.1549 20.7381 14.3136 20.6982 14.4707 20.6533C14.4837 20.6496 14.4968 20.6463 14.5098 20.6426C14.7648 20.5685 15.0159 20.4827 15.2627 20.3867C15.2714 20.3833 15.2803 20.3804 15.2891 20.377C15.6916 20.2189 16.0816 20.0314 16.457 19.8174C16.485 19.8014 16.5132 19.7858 16.541 19.7695C16.7406 19.6529 16.9356 19.5284 17.126 19.3965C17.186 19.3548 17.2448 19.3116 17.3037 19.2686C17.3427 19.2401 17.3824 19.2127 17.4209 19.1836C18.1843 18.6066 18.8513 17.9102 19.3975 17.123C19.4431 17.0571 19.4883 16.9909 19.5322 16.9238C19.6375 16.7631 19.737 16.5984 19.832 16.4307C19.888 16.3317 19.9428 16.232 19.9951 16.1309C20.0129 16.0965 20.0305 16.062 20.0479 16.0273C20.1644 15.7945 20.2719 15.5566 20.3682 15.3135C20.5269 14.9126 20.6547 14.5018 20.7539 14.085C20.7653 14.0369 20.7765 13.9888 20.7871 13.9404C20.8365 13.7167 20.8771 13.4913 20.9092 13.2646C20.9652 12.8664 20.9959 12.4601 20.998 12.0469C20.9982 12.0101 20.9983 11.9733 20.998 11.9365C20.9952 11.5233 20.964 11.117 20.9072 10.7188C20.7285 9.4762 20.2914 8.28519 19.625 7.22168C19.5966 7.17653 19.5682 7.13152 19.5391 7.08691C19.5074 7.0383 19.476 6.98945 19.4434 6.94141C19.4202 6.9074 19.3956 6.87448 19.3721 6.84082C18.8375 6.07843 18.1889 5.4026 17.4492 4.83887C17.4104 4.80929 17.3714 4.77992 17.332 4.75098C17.1549 4.62046 16.9729 4.49642 16.7861 4.37891C16.689 4.3179 16.5908 4.25852 16.4912 4.20117C16.4718 4.18995 16.4522 4.17905 16.4326 4.16797C16.3593 4.12644 16.2856 4.08541 16.2109 4.0459C15.2488 3.5365 14.2048 3.20932 13.1309 3.07324C13.0873 3.06778 13.0438 3.06148 13 3.05664V12ZM11 3.05664C6.50014 3.55417 3 7.36751 3 12C3 14.2265 3.81004 16.2627 5.14941 17.834L11 11.6035V3.05664Z" fill="#9E9E9E"/>
</g>
</svg>
