<svg width="24" height="24" viewBox="0 0 24 24" fill="none" xmlns="http://www.w3.org/2000/svg">
<g id="icons/Charts/pie-two">
<path id="Union" d="M12 1C12.1829 1 12.3656 1.00459 12.5479 1.01367C12.6666 1.0195 12.7846 1.0295 12.9023 1.03906C12.9642 1.04415 13.0262 1.04758 13.0879 1.05371C13.2485 1.06948 13.4079 1.0897 13.5664 1.1123C13.5839 1.11483 13.6016 1.11654 13.6191 1.11914C13.7868 1.14388 13.953 1.17383 14.1182 1.20605C14.1285 1.20808 14.1391 1.20888 14.1494 1.21094C15.2166 1.42235 16.2273 1.78925 17.1592 2.28516C17.1697 2.29075 17.1809 2.29515 17.1914 2.30078C17.4926 2.46233 17.7848 2.63822 18.0684 2.82617C18.0841 2.83658 18.1005 2.84595 18.1162 2.85645C18.2112 2.9201 18.3036 2.98721 18.3965 3.05371C18.4548 3.09538 18.5138 3.1359 18.5713 3.17871C19.281 3.70827 19.9253 4.32071 20.4883 5.00293L20.5039 5.02246C20.5126 5.03303 20.5207 5.04409 20.5293 5.05469C20.6289 5.17689 20.7259 5.30126 20.8203 5.42773C20.8631 5.48518 20.9036 5.54428 20.9453 5.60254C22.237 7.40543 23 9.61297 23 12C23 18.0751 18.0751 23 12 23C5.92487 23 1 18.0751 1 12C1 5.92487 5.92487 1 12 1ZM11 3.05664C6.50014 3.55417 3 7.36751 3 12C3 16.9706 7.02944 21 12 21C16.6325 21 20.4458 17.4999 20.9434 13H12C11.4477 13 11 12.5523 11 12V3.05664ZM13 11H20.9424C20.8486 10.1615 20.6386 9.33823 20.3145 8.55566C20.0469 7.90971 19.7039 7.29986 19.2969 6.73535C19.1861 6.58215 19.073 6.43089 18.9531 6.28516C18.7679 6.05963 18.5714 5.84286 18.3643 5.63574C18.1568 5.42829 17.9398 5.23142 17.7139 5.0459C17.5681 4.926 17.4169 4.81285 17.2637 4.70215C16.6995 4.29549 16.0899 3.95296 15.4443 3.68555C14.8661 3.44601 14.2657 3.26763 13.6533 3.15332C13.6306 3.1491 13.6077 3.14565 13.585 3.1416C13.4088 3.11012 13.2316 3.08444 13.0537 3.06348C13.0358 3.06139 13.018 3.05863 13 3.05664V11Z" fill="#9E9E9E"/>
</g>
</svg>
