<svg width="24" height="24" viewBox="0 0 24 24" fill="none" xmlns="http://www.w3.org/2000/svg">
<g id="icons/Charts/pie-one">
<path id="Union" d="M12 1C13.7452 1 15.3945 1.40848 16.8604 2.13184C16.8846 2.1438 16.9084 2.1568 16.9326 2.16895C17.0743 2.24016 17.2145 2.31355 17.3525 2.39062C17.379 2.40538 17.4053 2.42057 17.4316 2.43555C17.5598 2.50849 17.6866 2.58326 17.8115 2.66113C17.8585 2.69038 17.9046 2.72102 17.9512 2.75098C18.0527 2.81645 18.1537 2.88249 18.2529 2.95117C18.3151 2.99416 18.3762 3.03874 18.4375 3.08301C18.5197 3.14249 18.6011 3.20297 18.6816 3.26465C18.7417 3.31058 18.8012 3.35712 18.8604 3.4043C18.946 3.47277 19.0307 3.54233 19.1143 3.61328C19.173 3.66314 19.2313 3.71354 19.2891 3.76465C19.3669 3.83358 19.4437 3.90353 19.5195 3.97461C19.5783 4.0297 19.6367 4.08519 19.6943 4.1416C19.7679 4.21361 19.8396 4.2873 19.9111 4.36133C19.9465 4.39791 19.9837 4.43263 20.0186 4.46973C20.0297 4.48155 20.0393 4.49455 20.0498 4.50684C21.8791 6.47117 23 9.10406 23 12C23 18.0751 18.0751 23 12 23C5.92487 23 1 18.0751 1 12C1 5.92487 5.92487 1 12 1ZM11 3.05664C6.50014 3.55417 3 7.36751 3 12C3 16.9706 7.02944 21 12 21C16.9706 21 21 16.9706 21 12C21 9.97622 20.3316 8.10877 19.2041 6.60547L12.6846 12.7285C12.3939 13.0015 11.9685 13.0763 11.6025 12.918C11.2367 12.7596 11 12.3987 11 12V3.05664ZM13 9.68945L17.834 5.14941C17.7556 5.08267 17.6762 5.01714 17.5957 4.95312C17.5786 4.93955 17.5611 4.92654 17.5439 4.91309C17.2087 4.65058 16.8554 4.41195 16.4863 4.19922C16.4761 4.19331 16.4663 4.18653 16.4561 4.18066C16.1711 4.01793 15.8766 3.8711 15.5742 3.74023C14.774 3.39396 13.9294 3.16739 13.0674 3.06445C13.0449 3.0618 13.0225 3.05913 13 3.05664V9.68945Z" fill="#9E9E9E"/>
</g>
</svg>
