<svg width="24" height="24" viewBox="0 0 24 24" fill="none" xmlns="http://www.w3.org/2000/svg">
<g id="icons/Charts/pie-seven">
<path id="Union" d="M12 1C12.1785 1 12.3566 1.00504 12.5342 1.01367C12.5933 1.0165 12.6521 1.02164 12.7109 1.02539C12.8104 1.03183 12.9097 1.03873 13.0088 1.04785C13.1039 1.0565 13.1986 1.06707 13.293 1.07812C13.3689 1.08712 13.4448 1.09588 13.5205 1.10645C13.6167 1.11974 13.7123 1.13463 13.8076 1.15039C13.8677 1.1604 13.9275 1.17162 13.9873 1.18262C14.1002 1.20321 14.2126 1.22403 14.3242 1.24805C14.3438 1.25228 14.3632 1.25737 14.3828 1.26172C15.1246 1.42558 15.8375 1.66445 16.5146 1.96973C16.5368 1.97971 16.5589 1.98987 16.5811 2C16.7017 2.05535 16.8212 2.11234 16.9395 2.17188C16.9675 2.18599 16.9955 2.20048 17.0234 2.21484C17.1378 2.27368 17.2513 2.3338 17.3633 2.39648C17.3945 2.4139 17.425 2.43247 17.4561 2.4502C17.5608 2.51015 17.6651 2.57052 17.7676 2.63379C17.8208 2.66654 17.8731 2.70069 17.9258 2.73438C18.1627 2.88623 18.3941 3.04577 18.6182 3.21484C18.7284 3.2979 18.8379 3.3823 18.9453 3.46973C18.9523 3.47541 18.9589 3.48161 18.9658 3.4873C19.0239 3.53489 19.0806 3.58407 19.1377 3.63281C19.2073 3.69218 19.2768 3.75153 19.3447 3.8125C19.4008 3.86283 19.4557 3.91436 19.5107 3.96582C19.5776 4.0283 19.6438 4.09125 19.709 4.15527C19.7584 4.20385 19.807 4.25324 19.8555 4.30273C19.93 4.37878 20.004 4.45514 20.0762 4.5332C20.1211 4.58177 20.1649 4.63129 20.209 4.68066C20.2738 4.75341 20.3376 4.82701 20.4004 4.90137C20.4485 4.9582 20.496 5.01543 20.543 5.07324C20.596 5.13864 20.6478 5.20494 20.6992 5.27148C20.7494 5.33628 20.7999 5.40086 20.8486 5.4668C20.8972 5.53258 20.9432 5.60017 20.9902 5.66699C21.3019 6.1086 21.5822 6.57332 21.8271 7.05957C21.8375 7.08012 21.8482 7.10048 21.8584 7.12109C21.9208 7.24699 21.9804 7.37436 22.0381 7.50293C22.0446 7.51756 22.0511 7.53222 22.0576 7.54688C22.4698 8.47643 22.7567 9.47284 22.8975 10.5166C22.9081 10.5947 22.9188 10.6728 22.9277 10.751C22.9373 10.8353 22.9455 10.92 22.9531 11.0049C22.9626 11.109 22.9701 11.2132 22.9766 11.3174C22.9798 11.3697 22.9839 11.4221 22.9863 11.4746C23.0027 11.8178 23.002 12.1608 22.9863 12.5029C22.9836 12.5633 22.9793 12.6235 22.9756 12.6836C22.9693 12.7843 22.9631 12.8849 22.9541 12.9854C22.9463 13.0736 22.9367 13.1614 22.9268 13.249C22.9198 13.31 22.9113 13.3708 22.9033 13.4316C22.7378 14.7044 22.355 15.9073 21.793 17.0049C21.782 17.0264 21.7729 17.0489 21.7617 17.0703C21.7555 17.0823 21.7475 17.0935 21.7412 17.1055C21.6834 17.2156 21.6239 17.3247 21.5625 17.4326C21.5442 17.4648 21.5264 17.4973 21.5078 17.5293C21.4464 17.6347 21.3831 17.7387 21.3184 17.8418C21.2995 17.8718 21.2808 17.9018 21.2617 17.9316C21.1966 18.0331 21.1298 18.1333 21.0615 18.2324C21.0151 18.3 20.9669 18.3662 20.9189 18.4326C20.8735 18.4956 20.829 18.5592 20.7822 18.6211C20.7265 18.695 20.6689 18.7674 20.6113 18.8398C20.5639 18.8995 20.5174 18.9599 20.4688 19.0186C20.4145 19.084 20.3584 19.1478 20.3027 19.2119C20.2292 19.2965 20.1552 19.3806 20.0791 19.4629C19.9913 19.558 19.9016 19.6513 19.8105 19.7432C19.7593 19.7948 19.7065 19.8449 19.6543 19.8955C19.5858 19.9619 19.5174 20.0282 19.4473 20.0928C19.3938 20.142 19.3396 20.1901 19.2852 20.2383C19.216 20.2994 19.1468 20.3605 19.0762 20.4199C19.0195 20.4676 18.9619 20.514 18.9043 20.5605C18.8256 20.624 18.7464 20.6867 18.666 20.748C18.6168 20.7856 18.5674 20.8227 18.5176 20.8594C18.4341 20.9208 18.3489 20.98 18.2637 21.0391C18.2017 21.0821 18.14 21.1252 18.0771 21.167C18.0163 21.2074 17.9543 21.246 17.8926 21.2852C17.8099 21.3377 17.7277 21.391 17.6436 21.4414C17.5971 21.4692 17.5498 21.4954 17.5029 21.5225C16.8744 21.8865 16.2071 22.1896 15.5078 22.4248C15.495 22.4291 15.4825 22.4342 15.4697 22.4385C15.3409 22.4813 15.211 22.5214 15.0801 22.5596C15.0425 22.5705 15.0045 22.5803 14.9668 22.5908C14.8557 22.6219 14.7443 22.6521 14.6318 22.6797C14.5754 22.6936 14.5185 22.7058 14.4619 22.7188C14.3517 22.744 14.2413 22.7691 14.1299 22.791C14.1078 22.7954 14.0856 22.7995 14.0635 22.8037C13.8814 22.8383 13.6978 22.8681 13.5127 22.8936C13.4015 22.909 13.2903 22.9235 13.1787 22.9355C13.1047 22.9434 13.0304 22.9487 12.9561 22.9551C12.8493 22.9644 12.7427 22.9733 12.6357 22.9795C12.5789 22.9827 12.5219 22.9849 12.4648 22.9873C12.3431 22.9924 12.2215 22.996 12.0996 22.9971C12.0664 22.9974 12.0332 23 12 23C11.9716 23 11.9433 22.9973 11.915 22.9971C11.7985 22.9962 11.682 22.9929 11.5654 22.9883C11.5041 22.9859 11.4429 22.9848 11.3818 22.9814C11.2701 22.9751 11.1585 22.9658 11.0469 22.9561C10.8929 22.9428 10.74 22.9258 10.5879 22.9062C10.5215 22.8977 10.4549 22.8907 10.3887 22.8809C10.2506 22.8606 10.1139 22.8359 9.97754 22.8105C9.95965 22.8072 9.9417 22.8042 9.92383 22.8008C9.79734 22.7766 9.67178 22.7501 9.54688 22.7217C9.50486 22.7121 9.46283 22.7025 9.4209 22.6924C9.28871 22.6606 9.15762 22.6263 9.02734 22.5898C9.02317 22.5887 9.01882 22.5881 9.01465 22.5869C9.01039 22.5857 9.00621 22.5842 9.00195 22.583C8.11737 22.3329 7.27889 21.9752 6.5 21.5244C6.46552 21.5045 6.43074 21.4851 6.39648 21.4648C6.303 21.4094 6.21081 21.3521 6.11914 21.2939C6.06739 21.2612 6.01603 21.2279 5.96484 21.1943C5.88467 21.1416 5.80525 21.088 5.72656 21.0332C5.66134 20.9879 5.59646 20.9422 5.53223 20.8955C5.46562 20.847 5.39945 20.798 5.33398 20.748C5.26207 20.6933 5.19165 20.6366 5.12109 20.5801C5.06402 20.5343 5.00632 20.4893 4.9502 20.4424C4.86995 20.3754 4.79125 20.3066 4.71289 20.2373C4.66799 20.1976 4.62237 20.1586 4.57812 20.1182C4.33191 19.8931 4.09567 19.6566 3.87012 19.4092C3.81121 19.3446 3.75464 19.2779 3.69727 19.2119C3.64431 19.151 3.59073 19.0905 3.53906 19.0283C3.49687 18.9776 3.45633 18.9255 3.41504 18.874C3.34814 18.7905 3.28136 18.7067 3.2168 18.6211C3.18114 18.5739 3.14722 18.5254 3.1123 18.4775C3.07517 18.4266 3.0363 18.3769 3 18.3252C2.98136 18.2987 2.96468 18.2708 2.94629 18.2441C2.89323 18.1674 2.84118 18.0899 2.79004 18.0117C2.75551 17.9588 2.72107 17.906 2.6875 17.8525C2.63224 17.7648 2.57821 17.6763 2.52539 17.5869C2.49471 17.5349 2.46533 17.4822 2.43555 17.4297C2.38075 17.3334 2.32636 17.2368 2.27441 17.1387C2.25577 17.1034 2.23797 17.0677 2.21973 17.0322C1.82099 16.2588 1.51087 15.433 1.30371 14.5664C1.29078 14.5125 1.27872 14.4584 1.2666 14.4043C1.24255 14.2965 1.22008 14.1881 1.19922 14.0791C1.18821 14.0219 1.17807 13.9646 1.16797 13.9072C1.1505 13.8073 1.13292 13.7073 1.11816 13.6064C1.10245 13.5 1.08974 13.3931 1.07715 13.2861C1.0648 13.1801 1.05423 13.0737 1.04492 12.9668C1.03411 12.8443 1.02331 12.7217 1.0166 12.5986C1.01348 12.5405 1.01295 12.4822 1.01074 12.4238C1.0061 12.3035 1.00166 12.1831 1.00098 12.0625C1.00086 12.0417 1 12.0208 1 12C1 11.9655 1.00164 11.931 1.00195 11.8965C1.00311 11.7735 1.00642 11.6505 1.01172 11.5273C1.01428 11.4667 1.01696 11.4061 1.02051 11.3457C1.02295 11.3047 1.02444 11.2637 1.02734 11.2227C1.03164 11.162 1.03865 11.1015 1.04395 11.041C1.05133 10.9555 1.05805 10.8701 1.06738 10.7852C1.07591 10.7084 1.08753 10.6321 1.09766 10.5557C1.31269 8.91664 1.88688 7.39197 2.74121 6.0625C2.77108 6.01592 2.80047 5.96901 2.83105 5.92285C2.88274 5.84502 2.93664 5.7688 2.99023 5.69238C3.03787 5.62434 3.08554 5.55628 3.13477 5.48926C3.17556 5.4338 3.21698 5.37887 3.25879 5.32422C3.32095 5.24282 3.38371 5.1618 3.44824 5.08203C3.49277 5.02705 3.53842 4.97304 3.58398 4.91895C3.64381 4.84784 3.70487 4.77771 3.7666 4.70801C3.81768 4.65038 3.86864 4.59267 3.9209 4.53613C3.94122 4.51414 3.96093 4.49157 3.98145 4.46973L4.02734 4.42578C6.03146 2.31691 8.86106 1 12 1ZM13 12C13 12.3987 12.7633 12.7596 12.3975 12.918C12.0315 13.0763 11.6061 13.0015 11.3154 12.7285L4.7959 6.60742C3.97367 7.70582 3.41373 8.97766 3.1582 10.3252C3.06283 10.8318 3.00858 11.353 3.00195 11.8857C3.00121 11.9441 3.00058 12.0023 3.00098 12.0605C3.00246 12.2853 3.01455 12.5079 3.03223 12.7285C3.05523 13.0115 3.09022 13.2927 3.13965 13.5713C3.16994 13.7433 3.20423 13.9136 3.24414 14.082C3.47248 15.0421 3.85911 15.9627 4.3916 16.8057C5.1039 17.931 6.05844 18.8866 7.18262 19.6006C7.90786 20.0604 8.69955 20.4179 9.53711 20.6562C10.2938 20.8711 11.0904 20.9894 11.9141 20.9971C11.9772 20.9977 12.0404 20.9978 12.1035 20.9971C12.4515 20.9931 12.7944 20.9681 13.1318 20.9258C13.584 20.8684 14.0323 20.7782 14.4727 20.6523C14.4791 20.6505 14.4857 20.6493 14.4922 20.6475C14.8591 20.5417 15.2206 20.4128 15.5742 20.2598C16.0227 20.0657 16.4514 19.8353 16.8584 19.5742C17.4699 19.1812 18.0302 18.7165 18.5283 18.1914C18.7414 17.9667 18.9435 17.7315 19.1328 17.4854C19.2265 17.3638 19.3168 17.2397 19.4043 17.1133C19.5391 16.918 19.6666 16.7171 19.7861 16.5107C19.7954 16.4947 19.8052 16.479 19.8145 16.4629C19.8736 16.3593 19.9312 16.2546 19.9863 16.1484C20.3387 15.4701 20.6001 14.7544 20.7695 14.0195C20.9164 13.3793 20.9968 12.7136 20.999 12.0293C20.9992 11.9896 20.9975 11.9499 20.9971 11.9102C20.9934 11.5313 20.9661 11.1583 20.917 10.792C20.8891 10.5858 20.8559 10.3797 20.8135 10.1748C20.7104 9.67698 20.5649 9.19199 20.3818 8.72363C20.3277 8.58522 20.2707 8.44845 20.21 8.31348C20.0186 7.88731 19.7937 7.47764 19.5391 7.08691C18.8336 6.00653 17.9027 5.08798 16.8125 4.39648C15.6733 3.67584 14.3869 3.21946 13.0479 3.0625C13.0319 3.06065 13.016 3.05841 13 3.05664V12ZM11 3.05664C9.16543 3.25948 7.4978 4.01315 6.16504 5.14941L11 9.68945V3.05664Z" fill="#9E9E9E"/>
</g>
</svg>
