<svg width="24" height="24" viewBox="0 0 24 24" fill="none" xmlns="http://www.w3.org/2000/svg">
<g id="icons/Charts/pie">
<path id="Union" d="M12 1C12.179 1 12.3577 1.00497 12.5361 1.01367C12.6309 1.01822 12.7252 1.02627 12.8193 1.0332C12.9004 1.03926 12.9816 1.04391 13.0625 1.05176C13.1698 1.06204 13.2764 1.07552 13.3828 1.08887C13.4528 1.09774 13.5229 1.10599 13.5928 1.11621C13.7291 1.13599 13.8643 1.15983 13.999 1.18457C14.0253 1.18943 14.0518 1.19319 14.0781 1.19824C14.2228 1.22592 14.3661 1.25773 14.5088 1.29102C14.5377 1.29779 14.5668 1.30354 14.5957 1.31055C14.7488 1.34758 14.9003 1.38828 15.0508 1.43164C15.0592 1.43407 15.0678 1.43603 15.0762 1.43848C15.4034 1.53364 15.7242 1.6436 16.0381 1.76758C16.042 1.76913 16.0459 1.7709 16.0498 1.77246C16.0514 1.77311 16.0531 1.77376 16.0547 1.77441C20.1226 3.38881 23 7.3572 23 12C23 18.0751 18.0751 23 12 23C5.92487 23 1 18.0751 1 12C1 5.92487 5.92487 1 12 1ZM11 3.05664C6.50014 3.55417 3 7.36751 3 12C3 16.9706 7.02944 21 12 21C16.9706 21 21 16.9706 21 12C21 8.55561 19.0648 5.56369 16.2227 4.05078L12.9297 12.3682C12.753 12.8144 12.284 13.0724 11.8125 12.9824C11.341 12.8924 11 12.48 11 12V3.05664ZM13 6.75781L14.3623 3.31738C13.9155 3.19582 13.4602 3.10908 13 3.05762V6.75781Z" fill="#9E9E9E"/>
</g>
</svg>
