<svg width="24" height="24" viewBox="0 0 24 24" fill="none" xmlns="http://www.w3.org/2000/svg">
<g id="icons/Charts/pivot-table">
<path id="Union" d="M21 1C22.1046 1 23 1.89544 23 3V21C23 22.1046 22.1046 23 21 23H3.00098C1.89645 23 1.00101 22.1045 1.00098 21L1 3C0.999998 1.89543 1.89543 1 3 1H21ZM3 8.01758L3.00098 21H6V8.01465L3 8.01758ZM8 8.0127V21H21V8L8 8.0127ZM16.1191 9.22461C16.5119 8.90426 17.0909 8.92685 17.457 9.29297L19.707 11.543C20.0976 11.9335 20.0976 12.5665 19.707 12.957C19.3165 13.3476 18.6835 13.3476 18.293 12.957L17.751 12.415V17.0039C17.751 17.5561 17.3031 18.0038 16.751 18.0039H12.418L12.957 18.543C13.3476 18.9335 13.3476 19.5665 12.957 19.957C12.5665 20.3476 11.9335 20.3476 11.543 19.957L9.29297 17.707C8.90244 17.3165 8.90244 16.6835 9.29297 16.293L11.543 14.043C11.9335 13.6524 12.5665 13.6524 12.957 14.043C13.3476 14.4335 13.3476 15.0665 12.957 15.457L12.4102 16.0039H15.751V12.4131L15.207 12.957C14.8165 13.3476 14.1835 13.3476 13.793 12.957C13.4024 12.5665 13.4024 11.9335 13.793 11.543L16.043 9.29297L16.1191 9.22461ZM3 6.01758L6 6.01465V3H3V6.01758ZM8 6.0127L21 6V3H8V6.0127Z" fill="#9E9E9E"/>
</g>
</svg>
