<svg width="24" height="24" viewBox="0 0 24 24" fill="none" xmlns="http://www.w3.org/2000/svg">
<g id="icons/Charts/positive-dynamics">
<path id="Union" d="M8.50012 15.9756C9.05237 15.9756 9.50012 16.4233 9.50012 16.9756V21.0557C9.50008 21.6079 9.05235 22.0556 8.50012 22.0557C7.94786 22.0557 7.50016 21.6079 7.50012 21.0557V16.9756C7.50012 16.4233 7.94784 15.9756 8.50012 15.9756ZM16.5001 8.48047C17.0524 8.48051 17.5001 8.92821 17.5001 9.48047V21.0439C17.5 21.5961 17.0523 22.0439 16.5001 22.0439C15.9479 22.0439 15.5003 21.5961 15.5001 21.0439V9.48047C15.5001 8.92818 15.9478 8.48047 16.5001 8.48047ZM20.5001 4.48535C21.0524 4.48539 21.5001 4.93309 21.5001 5.48535V21.042C21.4999 21.5941 21.0523 22.042 20.5001 22.042C19.948 22.042 19.5003 21.5941 19.5001 21.042V5.48535C19.5001 4.93307 19.9478 4.48535 20.5001 4.48535ZM12.5001 12.5C13.0524 12.5 13.5001 12.9477 13.5001 13.5V21.0361C13.4999 21.5882 13.0522 22.0361 12.5001 22.0361C11.948 22.0361 11.5004 21.5882 11.5001 21.0361V13.5C11.5001 12.9477 11.9478 12.5 12.5001 12.5ZM4.50012 19C5.05237 19 5.50012 19.4477 5.50012 20V21.0273C5.50012 21.5796 5.05237 22.0273 4.50012 22.0273C3.94784 22.0273 3.50012 21.5796 3.50012 21.0273V20C3.50012 19.4477 3.94784 19 4.50012 19ZM17.0001 2C17.0588 2 17.1161 2.00593 17.172 2.01562C17.2121 2.02259 17.252 2.0311 17.2911 2.04297C17.3402 2.05788 17.3872 2.07767 17.4327 2.09961C17.4742 2.11956 17.5148 2.14195 17.5538 2.16797C17.6654 2.24237 17.7612 2.33825 17.8351 2.4502C17.8802 2.51862 17.915 2.5917 17.9415 2.66699C17.9463 2.68037 17.952 2.6934 17.9562 2.70703C17.9624 2.72732 17.9669 2.74799 17.9718 2.76855C17.9894 2.84293 18.0001 2.92023 18.0001 3C18.0001 3.05633 17.9934 3.11125 17.9845 3.16504C17.9774 3.20777 17.9689 3.2503 17.9562 3.29199C17.952 3.30563 17.9462 3.31865 17.9415 3.33203C17.9244 3.38077 17.904 3.42847 17.879 3.47461C17.8511 3.52618 17.8185 3.57451 17.7823 3.62012C17.7588 3.64981 17.7346 3.67957 17.7072 3.70703L4.20715 17.207C3.81664 17.5975 3.18362 17.5975 2.79309 17.207C2.40257 16.8165 2.40257 16.1835 2.79309 15.793L14.5861 4H11.7501C11.1978 4 10.7501 3.55228 10.7501 3C10.7501 2.44772 11.1978 2 11.7501 2H17.0001Z" fill="#9E9E9E"/>
</g>
</svg>
