<svg width="24" height="24" viewBox="0 0 24 24" fill="none" xmlns="http://www.w3.org/2000/svg">
<g id="icons/Charts/radar-chart" clip-path="url(#clip0_56_6813)">
<path id="Union" d="M11.9998 0.5C12.0193 0.5 12.039 0.500842 12.0583 0.501953C12.0668 0.502452 12.0753 0.503192 12.0837 0.503906C12.1058 0.505734 12.1276 0.508485 12.1492 0.511719C12.1521 0.512157 12.1551 0.512231 12.158 0.512695C12.174 0.515248 12.19 0.518174 12.2058 0.521484C12.2127 0.52293 12.2195 0.524776 12.2263 0.526367C12.2626 0.534777 12.2981 0.545368 12.3328 0.557617C12.3383 0.55957 12.3439 0.561424 12.3494 0.563477C12.3794 0.574701 12.4086 0.587604 12.4373 0.601562C12.4447 0.605189 12.4523 0.608482 12.4597 0.612305C12.5024 0.634433 12.543 0.659686 12.5818 0.6875C12.5837 0.688865 12.5857 0.690027 12.5876 0.691406L20.7898 6.65039H20.7908L23.5251 8.63672C23.5545 8.65807 23.5807 8.68304 23.6072 8.70703C23.7688 8.83053 23.8949 9.00328 23.9578 9.21289C24.0564 9.54205 23.9755 9.88061 23.7742 10.1289L22.9099 12.998L19.9568 22.7891C19.9559 22.7921 19.9538 22.7948 19.9529 22.7979C19.9238 22.8913 19.8807 22.9806 19.824 23.0635C19.8197 23.0697 19.8157 23.0759 19.8113 23.082C19.8094 23.0847 19.8073 23.0872 19.8054 23.0898C19.7797 23.125 19.7523 23.1593 19.7214 23.1914C19.7146 23.1986 19.707 23.205 19.7 23.2119C19.6861 23.2255 19.6727 23.24 19.658 23.2529C19.6463 23.2631 19.6328 23.2707 19.6208 23.2803C19.6096 23.2892 19.5992 23.2992 19.5876 23.3076C19.551 23.3344 19.5124 23.3568 19.4734 23.3779C19.4716 23.3789 19.4703 23.3809 19.4685 23.3818C19.4663 23.383 19.4649 23.3856 19.4626 23.3867C19.4584 23.3889 19.4533 23.3894 19.449 23.3916C19.3624 23.4352 19.2715 23.4646 19.1785 23.4814C19.168 23.4833 19.1577 23.4857 19.1472 23.4873C19.1044 23.4936 19.0615 23.4973 19.0183 23.498C19.0122 23.4982 19.0059 23.5 18.9998 23.5H4.99976C4.99322 23.5 4.98673 23.4982 4.98022 23.498C4.93644 23.4972 4.89283 23.4939 4.84937 23.4873C4.84549 23.4867 4.84151 23.487 4.83765 23.4863C4.83198 23.4854 4.82668 23.4825 4.82104 23.4814C4.7287 23.4647 4.63845 23.4357 4.55249 23.3926C4.54376 23.3882 4.53472 23.3845 4.52612 23.3799C4.48721 23.3589 4.4494 23.3352 4.41284 23.3086C4.40345 23.3018 4.39465 23.2942 4.3855 23.2871C4.37101 23.2758 4.35557 23.2652 4.34155 23.2529C4.32655 23.2398 4.31261 23.2257 4.29858 23.2119C4.29169 23.2051 4.28478 23.1984 4.27808 23.1914C4.2463 23.1583 4.21754 23.1232 4.19116 23.0869C4.18415 23.0773 4.17733 23.0675 4.17065 23.0576C4.14766 23.0234 4.12652 22.9884 4.10815 22.9521C4.10467 22.9453 4.10075 22.9386 4.09741 22.9316C4.07862 22.8923 4.06295 22.8517 4.04956 22.8105C4.04721 22.8033 4.04395 22.7963 4.04175 22.7891L0.224365 10.1309C0.0227988 9.88255 -0.0569258 9.54222 0.041748 9.21289C0.106168 8.99816 0.236747 8.82127 0.404053 8.69727C0.427147 8.67696 0.449131 8.65507 0.474365 8.63672L11.4119 0.691406L11.4412 0.670898C11.4722 0.649939 11.5045 0.630716 11.5378 0.613281C11.5415 0.611396 11.5449 0.60926 11.5486 0.607422C11.5546 0.604366 11.561 0.601558 11.5671 0.598633C11.5964 0.584577 11.6263 0.571762 11.657 0.560547C11.6668 0.556982 11.6764 0.553054 11.6863 0.549805C11.7237 0.537445 11.7622 0.527437 11.8015 0.519531C11.809 0.518031 11.8165 0.516954 11.824 0.515625C11.8589 0.509428 11.8944 0.505409 11.9304 0.50293C11.9392 0.502324 11.948 0.502327 11.9568 0.501953C11.971 0.501346 11.9853 0.500004 11.9998 0.5ZM7.20386 21.5H16.7957L15.0457 19.5H8.95386L7.20386 21.5ZM3.00366 12.4199H3.00269L4.97144 18.9473H4.97241L5.4353 20.4834L7.36987 18.2715L5.21558 11.8086L2.57983 11.0176L3.00366 12.4199ZM18.783 11.8086L16.6287 18.2715L18.5632 20.4824L21.4158 11.0186L18.783 11.8086ZM9.60132 9.58105L9.59058 9.58984L7.17749 11.3721L9.22046 17.5H14.7791L16.821 11.3721L14.4089 9.58984L14.3982 9.58105L11.9998 7.75586L9.60132 9.58105ZM9.85327 4.2959L9.85132 4.29395L4.38354 8.2666L4.38452 8.26758L3.21167 9.11914L5.80737 9.89746L8.39038 7.98926L10.9998 6.00391V3.46191L9.85327 4.2959ZM12.9998 6.00391L15.6091 7.98926H15.6082L18.1912 9.89746L20.7859 9.11914L14.1462 4.29492V4.2959L12.9998 3.46191V6.00391Z" fill="#9E9E9E"/>
</g>
<defs>
<clipPath id="clip0_56_6813">
<rect width="24" height="24" fill="white"/>
</clipPath>
</defs>
</svg>
