<svg width="24" height="24" viewBox="0 0 24 24" fill="none" xmlns="http://www.w3.org/2000/svg">
<g id="icons/Charts/ranking-list">
<path id="Union" d="M21 3C22.1046 3 23 3.89544 23 5V19C23 20.1046 22.1046 21 21 21H3C1.89544 21 1 20.1046 1 19V5C1 3.89543 1.89543 3 3 3H21ZM3 19H21V5H3V19ZM8 10C8.55228 10 9 10.4477 9 11V15.5C9 16.0523 8.55228 16.5 8 16.5C7.44772 16.5 7 16.0523 7 15.5V11C7 10.4477 7.44772 10 8 10ZM12 7.5C12.5523 7.5 13 7.94772 13 8.5V15.5C13 16.0523 12.5523 16.5 12 16.5C11.4477 16.5 11 16.0523 11 15.5V8.5C11 7.94772 11.4477 7.5 12 7.5ZM16 11C16.5523 11 17 11.4477 17 12V15.5C17 16.0523 16.5523 16.5 16 16.5C15.4477 16.5 15 16.0523 15 15.5V12C15 11.4477 15.4477 11 16 11Z" fill="#9E9E9E"/>
</g>
</svg>
