<svg width="24" height="24" viewBox="0 0 24 24" fill="none" xmlns="http://www.w3.org/2000/svg">
<g id="icons/Charts/recent-views-sort">
<path id="Union" d="M21 1.5C21.5523 1.5 22 1.94772 22 2.5V15C22 15.5523 21.5523 16 21 16H13V19.0859L14.293 17.793C14.6835 17.4024 15.3165 17.4024 15.707 17.793C16.0976 18.1835 16.0976 18.8165 15.707 19.207L12.707 22.207C12.6592 22.2548 12.6065 22.2976 12.5498 22.335C12.5121 22.3599 12.4727 22.3811 12.4326 22.4004C12.3874 22.4222 12.3407 22.4412 12.292 22.4561C12.2717 22.4622 12.251 22.4668 12.2305 22.4717C12.2191 22.4744 12.2078 22.4772 12.1963 22.4795C12.1859 22.4816 12.1754 22.4826 12.165 22.4844C12.1112 22.4933 12.0563 22.5 12 22.5C11.9433 22.5 11.8881 22.4934 11.834 22.4844C11.8236 22.4826 11.8131 22.4816 11.8027 22.4795C11.7912 22.4772 11.7799 22.4744 11.7686 22.4717C11.748 22.4668 11.7273 22.4623 11.707 22.4561C11.6584 22.4412 11.6116 22.4222 11.5664 22.4004C11.5266 22.3812 11.4877 22.3597 11.4502 22.335C11.3935 22.2976 11.3408 22.2548 11.293 22.207L8.29297 19.207C7.90244 18.8165 7.90244 18.1835 8.29297 17.793C8.68349 17.4024 9.31651 17.4024 9.70703 17.793L11 19.0859V16H3C2.44772 16 2 15.5523 2 15V2.5C2 1.94772 2.44772 1.5 3 1.5C3.55228 1.5 4 1.94772 4 2.5V14H20V2.5C20 1.94772 20.4477 1.5 21 1.5ZM12 3.5C14.4042 3.5 16.499 4.70344 18.2734 6.86523C18.5761 7.23402 18.5761 7.76598 18.2734 8.13477C16.499 10.2966 14.4042 11.5 12 11.5C9.59584 11.5 7.50096 10.2966 5.72656 8.13477C5.4239 7.76598 5.4239 7.23402 5.72656 6.86523C7.50096 4.70344 9.59584 3.5 12 3.5ZM12 5.5C10.5575 5.5 9.17121 6.11135 7.83496 7.5C9.17121 8.88865 10.5575 9.5 12 9.5C13.4424 9.5 14.828 8.88831 16.1641 7.5C14.828 6.11169 13.4424 5.5 12 5.5ZM12 6C12.8285 6 13.5 6.67155 13.5 7.5C13.5 8.32845 12.8285 9 12 9C11.1715 9 10.5 8.32845 10.5 7.5C10.5 6.67155 11.1715 6 12 6Z" fill="#9E9E9E"/>
</g>
</svg>
