<svg width="24" height="24" viewBox="0 0 24 24" fill="none" xmlns="http://www.w3.org/2000/svg">
<g id="icons/Charts/sinusoid">
<path id="Union" d="M6.99982 1C8.36308 1 9.40658 1.65726 10.1668 2.57129C10.9047 3.45857 11.4062 4.61667 11.7664 5.7627C12.4722 8.00846 12.7613 10.7085 12.9803 11.8037C13.2319 13.062 13.7174 15.476 14.5535 17.5664C14.9728 18.6144 15.4545 19.5141 15.991 20.1357C16.5236 20.7528 17.0211 20.9999 17.4998 21C17.8437 21 18.3012 20.7562 18.8318 19.9072C19.3416 19.0915 19.7641 17.9501 20.0984 16.7344C20.4289 15.5326 20.6566 14.3221 20.8016 13.4062C20.8738 12.9498 20.9248 12.57 20.9578 12.3057C20.9743 12.1736 20.9862 12.0702 20.994 12.001C20.9978 11.9667 21.001 11.9408 21.0027 11.9238C21.0036 11.9155 21.0043 11.9092 21.0047 11.9053V11.9004L21.0203 11.7988C21.1216 11.3025 21.5845 10.9535 22.0994 11.0049C22.6145 11.0564 22.9989 11.4903 22.9998 11.9971L22.9949 12.0996V12.1025C22.9948 12.1042 22.9942 12.1066 22.994 12.1094C22.9934 12.1151 22.9921 12.1234 22.991 12.1338C22.9888 12.1546 22.9856 12.185 22.9813 12.2236C22.9726 12.3009 22.9598 12.4126 22.9422 12.5537C22.9069 12.8363 22.8523 13.2377 22.7762 13.7188C22.6243 14.6778 22.3831 15.9676 22.0262 17.2656C21.6731 18.5495 21.1891 19.9087 20.5272 20.9678C19.8859 21.9936 18.9057 23 17.4998 23C16.2286 22.9999 15.2259 22.3096 14.4774 21.4424C13.7328 20.5797 13.1518 19.4478 12.6961 18.3086C11.7824 16.0242 11.2677 13.438 11.0193 12.1963C10.7384 10.7913 10.5273 8.49136 9.85822 6.3623C9.53096 5.32107 9.12608 4.44764 8.6297 3.85059C8.1556 3.28049 7.63633 3 6.99982 3C6.47139 3.00006 5.92195 3.31932 5.3504 4.13574C4.78376 4.94526 4.32067 6.0777 3.95782 7.28711C3.59907 8.48298 3.35704 9.68873 3.2049 10.6016C3.12911 11.0563 3.0766 11.4352 3.04279 11.6982C3.02594 11.8293 3.01345 11.9315 3.00568 12C3.00179 12.0343 2.99867 12.0604 2.99689 12.0771C2.996 12.0855 2.99532 12.092 2.99493 12.0957C2.99476 12.0974 2.995 12.099 2.99493 12.0996C2.93992 12.6491 2.44971 13.0501 1.90021 12.9951C1.3508 12.94 0.949763 12.4498 1.0047 11.9004V11.8975C1.00488 11.8957 1.00537 11.8926 1.00568 11.8896C1.00628 11.8838 1.00751 11.8755 1.00861 11.8652C1.01085 11.8442 1.01399 11.814 1.01837 11.7754C1.0272 11.6975 1.04015 11.5844 1.05841 11.4424C1.0949 11.1586 1.15184 10.7558 1.23224 10.2734C1.39258 9.3114 1.65067 8.01677 2.04181 6.71289C2.42891 5.42254 2.96604 4.05463 3.71173 2.98926C4.45255 1.93094 5.52841 1.00006 6.99982 1ZM8.49982 11C9.0521 11 9.49982 11.4477 9.49982 12C9.49982 12.5523 9.0521 13 8.49982 13H5.49982C4.9476 12.9999 4.49982 12.5522 4.49982 12C4.49982 11.4478 4.9476 11.0001 5.49982 11H8.49982ZM18.4998 11C19.0521 11 19.4998 11.4477 19.4998 12C19.4998 12.5523 19.0521 13 18.4998 13H15.4998C14.9476 12.9999 14.4998 12.5522 14.4998 12C14.4998 11.4478 14.9476 11.0001 15.4998 11H18.4998Z" fill="#9E9E9E"/>
</g>
</svg>
