<svg width="24" height="24" viewBox="0 0 24 24" fill="none" xmlns="http://www.w3.org/2000/svg">
<g id="icons/Charts/slide-two">
<path id="Union" d="M22 3C22.5523 3 23 3.44772 23 4C23 4.55228 22.5523 5 22 5H21V17C21 17.5523 20.5523 18 20 18H14.4141L16.707 20.293C17.0976 20.6835 17.0976 21.3165 16.707 21.707C16.3165 22.0976 15.6835 22.0976 15.293 21.707L12 18.4141L8.70703 21.707C8.31651 22.0976 7.68349 22.0976 7.29297 21.707C6.90244 21.3165 6.90244 20.6835 7.29297 20.293L9.58594 18H4C3.44772 18 3 17.5523 3 17V5H2C1.44772 5 1 4.55228 1 4C1 3.44772 1.44772 3 2 3H22ZM5 16H19V5H5V16ZM7.79297 8.29297C8.18349 7.90244 8.81651 7.90244 9.20703 8.29297C9.59756 8.68349 9.59756 9.31651 9.20703 9.70703L8.41406 10.5L9.20703 11.293C9.59756 11.6835 9.59756 12.3165 9.20703 12.707C8.81651 13.0976 8.18349 13.0976 7.79297 12.707L6.29297 11.207C5.90244 10.8165 5.90244 10.1835 6.29297 9.79297L7.79297 8.29297ZM14.793 8.29297C15.1835 7.90244 15.8165 7.90244 16.207 8.29297L17.707 9.79297C18.0976 10.1835 18.0976 10.8165 17.707 11.207L16.207 12.707C15.8165 13.0976 15.1835 13.0976 14.793 12.707C14.4024 12.3165 14.4024 11.6835 14.793 11.293L15.5859 10.5L14.793 9.70703C14.4024 9.31651 14.4024 8.68349 14.793 8.29297Z" fill="#9E9E9E"/>
</g>
</svg>
