<svg width="24" height="24" viewBox="0 0 24 24" fill="none" xmlns="http://www.w3.org/2000/svg">
<g id="icons/Charts/slide">
<path id="Union" d="M22 1.75C22.5523 1.75 23 2.19772 23 2.75C23 3.30228 22.5523 3.75 22 3.75H21.5V16.75C21.5 17.3023 21.0523 17.75 20.5 17.75H14.4141L16.707 20.043C17.0976 20.4335 17.0976 21.0665 16.707 21.457C16.3165 21.8476 15.6835 21.8476 15.293 21.457L12 18.1641L8.70703 21.457C8.31651 21.8476 7.68349 21.8476 7.29297 21.457C6.90244 21.0665 6.90244 20.4335 7.29297 20.043L9.58594 17.75H3.5C2.94772 17.75 2.5 17.3023 2.5 16.75V3.75H2C1.44772 3.75 1 3.30228 1 2.75C1 2.19772 1.44772 1.75 2 1.75H22ZM4.5 15.75H19.5V3.75H4.5V15.75ZM16.2754 6.05469C16.6654 5.66386 17.2985 5.6629 17.6895 6.05273C18.0803 6.44278 18.0813 7.07585 17.6914 7.4668L12.7119 12.457C12.3245 12.845 11.6966 12.8482 11.3047 12.4648L9.78125 10.9756L7.66016 13.0469C7.26494 13.4326 6.63186 13.4255 6.24609 13.0303C5.86046 12.6351 5.86853 12.0019 6.26367 11.6162L9.08496 8.8623L9.16016 8.7959C9.55009 8.48451 10.1183 8.50711 10.4824 8.86328L11.9951 10.3428L16.2754 6.05469Z" fill="#9E9E9E"/>
</g>
</svg>
