<svg width="24" height="24" viewBox="0 0 24 24" fill="none" xmlns="http://www.w3.org/2000/svg">
<g id="icons/Charts/timeline">
<path id="Union" d="M2 1C2.55228 1 3 1.44772 3 2V5H5.67383C6.08595 3.83532 7.19417 3 8.5 3C9.80583 3 10.9141 3.83532 11.3262 5H22C22.5523 5 23 5.44772 23 6C23 6.55228 22.5523 7 22 7H11.3262C10.9141 8.16467 9.80583 9 8.5 9C7.19417 9 6.08595 8.16467 5.67383 7H3V11H14.6738C15.0859 9.83533 16.1942 9 17.5 9C18.8058 9 19.9141 9.83533 20.3262 11H22C22.5523 11 23 11.4477 23 12C23 12.5523 22.5523 13 22 13H20.3262C19.9141 14.1647 18.8058 15 17.5 15C16.1942 15 15.0859 14.1647 14.6738 13H3V17H5.67383C6.08595 15.8353 7.19417 15 8.5 15C9.80583 15 10.9141 15.8353 11.3262 17H22C22.5523 17 23 17.4477 23 18C23 18.5523 22.5523 19 22 19H11.3262C10.9141 20.1647 9.80583 21 8.5 21C7.19417 21 6.08595 20.1647 5.67383 19H3V22C3 22.5523 2.55228 23 2 23C1.44772 23 1 22.5523 1 22V2C1 1.44772 1.44772 1 2 1ZM8.5 17C7.94773 17 7.5 17.4477 7.5 18C7.5 18.5523 7.94773 19 8.5 19C9.05227 19 9.5 18.5523 9.5 18C9.5 17.4477 9.05227 17 8.5 17ZM17.5 11C16.9477 11 16.5 11.4477 16.5 12C16.5 12.5523 16.9477 13 17.5 13C18.0523 13 18.5 12.5523 18.5 12C18.5 11.4477 18.0523 11 17.5 11ZM8.5 5C7.94773 5 7.5 5.44772 7.5 6C7.5 6.55227 7.94773 7 8.5 7C9.05227 7 9.5 6.55227 9.5 6C9.5 5.44772 9.05227 5 8.5 5Z" fill="#9E9E9E"/>
</g>
</svg>
