<svg width="24" height="24" viewBox="0 0 24 24" fill="none" xmlns="http://www.w3.org/2000/svg">
<g id="icons/Charts/vertical-timeline">
<path id="Union" d="M22 5C22.5523 5 23 5.44772 23 6V10C23 10.5523 22.5523 11 22 11H21V20.5H22C22.5523 20.5 23 20.9477 23 21.5C23 22.0523 22.5523 22.5 22 22.5H2C1.44772 22.5 1 22.0523 1 21.5C1 20.9477 1.44772 20.5 2 20.5H3V19H2C1.44772 19 1 18.5523 1 18V14C1 13.4477 1.44772 13 2 13H6C6.55228 13 7 13.4477 7 14V18C7 18.5523 6.55228 19 6 19H5V20.5H11V15H10C9.44771 15 9 14.5523 9 14V10C9 9.44772 9.44771 9 10 9H14C14.5523 9 15 9.44772 15 10V14C15 14.5523 14.5523 15 14 15H13V20.5H19V11H18C17.4477 11 17 10.5523 17 10V6C17 5.44772 17.4477 5 18 5H22ZM3 17H5V15H3V17ZM11 13H13V11H11V13ZM4 9C4.55228 9 5 9.44772 5 10V10.5C5 11.0523 4.55228 11.5 4 11.5C3.44772 11.5 3 11.0523 3 10.5V10C3 9.44772 3.44772 9 4 9ZM19 9H21V7H19V9ZM4 5C4.55228 5 5 5.44772 5 6V6.5C5 7.05228 4.55228 7.5 4 7.5C3.44772 7.5 3 7.05228 3 6.5V6C3 5.44772 3.44772 5 4 5ZM11.5 5C12.0523 5 12.5 5.44772 12.5 6V6.5C12.5 7.05228 12.0523 7.5 11.5 7.5C10.9477 7.5 10.5 7.05228 10.5 6.5V6C10.5 5.44772 10.9477 5 11.5 5ZM22 1.5C22.5523 1.5 23 1.94772 23 2.5C23 3.05228 22.5523 3.5 22 3.5H2C1.44772 3.5 1 3.05228 1 2.5C1 1.94772 1.44772 1.5 2 1.5H22Z" fill="#9E9E9E"/>
</g>
</svg>
