<svg width="24" height="24" viewBox="0 0 24 24" fill="none" xmlns="http://www.w3.org/2000/svg">
<g id="icons/Charts/viencharts">
<path id="Union" d="M12 1.5C15.866 1.5 19 4.63401 19 8.5C19 8.72235 18.9881 8.94213 18.9678 9.15918C21.3499 10.2761 23 12.6951 23 15.5C23 19.366 19.866 22.5 16 22.5C14.5123 22.5 13.134 22.0345 12 21.2432C10.866 22.0345 9.48769 22.5 8 22.5C4.13401 22.5 1 19.366 1 15.5C1 12.6954 2.64953 10.2762 5.03125 9.15918C5.01098 8.94216 5 8.72232 5 8.5C5 4.63401 8.13401 1.5 12 1.5ZM5.52246 11.1572C4.01587 12.0186 3 13.6403 3 15.5C3 18.2614 5.23858 20.5 8 20.5C8.91155 20.5 9.76509 20.2543 10.501 19.8281C9.56204 18.6368 9 17.1345 9 15.5C9 15.2774 9.01092 15.0572 9.03125 14.8398C7.44853 14.0974 6.18917 12.7807 5.52246 11.1572ZM18.4766 11.1572C17.8097 12.7809 16.5508 14.0975 14.9678 14.8398C14.9881 15.0572 15 15.2773 15 15.5C15 17.1348 14.4372 18.6367 13.498 19.8281C14.2341 20.2545 15.0881 20.5 16 20.5C18.7614 20.5 21 18.2614 21 15.5C21 13.64 19.9836 12.0185 18.4766 11.1572ZM12.998 15.4268C12.6719 15.4733 12.339 15.5 12 15.5C11.6607 15.5 11.3274 15.4734 11.001 15.4268C11.0006 15.4511 11 15.4755 11 15.5C11 16.6254 11.3725 17.6634 12 18.499C12.6275 17.6634 13 16.6254 13 15.5C13 15.4755 12.9984 15.4511 12.998 15.4268ZM12 12.5C11.7761 12.7981 11.5852 13.1223 11.4316 13.4668C11.6182 13.4879 11.8078 13.5 12 13.5C12.1919 13.5 12.3811 13.4878 12.5674 13.4668C12.4138 13.1224 12.2239 12.798 12 12.5ZM8 10.5C7.80781 10.5 7.61819 10.5111 7.43164 10.5322C7.86582 11.5068 8.60242 12.3157 9.52246 12.8418C9.77073 12.2375 10.1024 11.6765 10.501 11.1709C9.76518 10.7449 8.91138 10.5 8 10.5ZM16 10.5C15.0883 10.5 14.234 10.7446 13.498 11.1709C13.8968 11.6766 14.2282 12.2374 14.4766 12.8418C15.3968 12.3157 16.1331 11.5069 16.5674 10.5322C16.3811 10.5112 16.1919 10.5 16 10.5ZM12 3.5C9.23858 3.5 7 5.73858 7 8.5C7 8.52413 7.00064 8.54822 7.00098 8.57227C7.32734 8.52562 7.66074 8.5 8 8.5C9.48749 8.5 10.8661 8.96475 12 9.75586C13.1339 8.96475 14.5125 8.5 16 8.5C16.3389 8.5 16.672 8.52571 16.998 8.57227C16.9984 8.54821 17 8.52414 17 8.5C17 5.73858 14.7614 3.5 12 3.5Z" fill="#9E9E9E"/>
</g>
</svg>
