<svg width="24" height="24" viewBox="0 0 24 24" fill="none" xmlns="http://www.w3.org/2000/svg">
<g id="icons/Money/add-subtract">
<path id="Union" d="M19.5 2C20.8807 2 22 3.11929 22 4.5V19.5C22 20.8807 20.8807 22 19.5 22H4.5C3.11929 22 2 20.8807 2 19.5V4.5C2 3.11929 3.11929 2 4.5 2H19.5ZM4.5 4C4.22386 4 4 4.22386 4 4.5V19.5C4 19.7761 4.22386 20 4.5 20H19.5C19.7761 20 20 19.7761 20 19.5V4.5C20 4.22386 19.7761 4 19.5 4H4.5ZM16.293 6.29297C16.6835 5.90244 17.3165 5.90244 17.707 6.29297C18.0976 6.68349 18.0976 7.31651 17.707 7.70703L7.70703 17.707C7.31651 18.0976 6.68349 18.0976 6.29297 17.707C5.90244 17.3165 5.90244 16.6835 6.29297 16.293L16.293 6.29297ZM17.5 14.5C18.0523 14.5 18.5 14.9477 18.5 15.5C18.5 16.0523 18.0523 16.5 17.5 16.5H13.5C12.9477 16.5 12.5 16.0523 12.5 15.5C12.5 14.9477 12.9477 14.5 13.5 14.5H17.5ZM8.5 5.5C9.05228 5.5 9.5 5.94772 9.5 6.5V7.5H10.5C11.0523 7.5 11.5 7.94772 11.5 8.5C11.5 9.05228 11.0523 9.5 10.5 9.5H9.5V10.5C9.5 11.0523 9.05228 11.5 8.5 11.5C7.94772 11.5 7.5 11.0523 7.5 10.5V9.5H6.5C5.94772 9.5 5.5 9.05228 5.5 8.5C5.5 7.94772 5.94772 7.5 6.5 7.5H7.5V6.5C7.5 5.94772 7.94772 5.5 8.5 5.5Z" fill="#9E9E9E"/>
</g>
</svg>
