<svg width="24" height="24" viewBox="0 0 24 24" fill="none" xmlns="http://www.w3.org/2000/svg">
<g id="icons/Money/bank-card-two">
<path id="Union" d="M22 3C22.5523 3 23 3.44772 23 4V20C23 20.5523 22.5523 21 22 21H2C1.44772 21 1 20.5523 1 20V4C1 3.44772 1.44772 3 2 3H22ZM3 19H21V10H3V19ZM7 13.5C7.55228 13.5 8 13.9477 8 14.5C8 15.0523 7.55228 15.5 7 15.5H6C5.44772 15.5 5 15.0523 5 14.5C5 13.9477 5.44772 13.5 6 13.5H7ZM11 13.5C11.5523 13.5 12 13.9477 12 14.5C12 15.0523 11.5523 15.5 11 15.5H10C9.44771 15.5 9 15.0523 9 14.5C9 13.9477 9.44771 13.5 10 13.5H11ZM15 13.5C15.5523 13.5 16 13.9477 16 14.5C16 15.0523 15.5523 15.5 15 15.5H14C13.4477 15.5 13 15.0523 13 14.5C13 13.9477 13.4477 13.5 14 13.5H15ZM3 8H21V5H3V8Z" fill="#9E9E9E"/>
</g>
</svg>
