<svg width="24" height="24" viewBox="0 0 24 24" fill="none" xmlns="http://www.w3.org/2000/svg">
<g id="icons/Money/bank-card-one">
<path id="Union" d="M16 8.5C17.1046 8.5 18 9.39543 18 10.5V19.5C18 20.6046 17.1046 21.5 16 21.5H3C1.89543 21.5 1 20.6046 1 19.5V10.5C1 9.39543 1.89543 8.5 3 8.5H16ZM3 19.5H16V15H3V19.5ZM9.5 16C10.0523 16 10.5 16.4477 10.5 17C10.5 17.5523 10.0523 18 9.5 18H5.5C4.94772 18 4.5 17.5523 4.5 17C4.5 16.4477 4.94772 16 5.5 16H9.5ZM13.5 16C14.0523 16 14.5 16.4477 14.5 17C14.5 17.5523 14.0523 18 13.5 18H12.5C11.9477 18 11.5 17.5523 11.5 17C11.5 16.4477 11.9477 16 12.5 16H13.5ZM21 2.5C22.1046 2.5 23 3.39544 23 4.5V13.5C23 14.6046 22.1046 15.5 21 15.5H20C19.4477 15.5 19 15.0523 19 14.5C19 13.9477 19.4477 13.5 20 13.5H21V4.5H8V6.5C8 7.05228 7.55228 7.5 7 7.5C6.44772 7.5 6 7.05228 6 6.5V4.5C6 3.39544 6.89541 2.5 8 2.5H21ZM3 13H16V10.5H3V13Z" fill="#9E9E9E"/>
</g>
</svg>
