<svg width="24" height="24" viewBox="0 0 24 24" fill="none" xmlns="http://www.w3.org/2000/svg">
<g id="icons/Money/bank">
<path id="Union" d="M11.3195 1.26758C11.7031 0.911303 12.2971 0.911303 12.6808 1.26758L19.6808 7.76758L19.7072 7.79297L22.2072 10.293C22.5975 10.6835 22.5976 11.3166 22.2072 11.707C21.8167 12.0973 21.1836 12.0973 20.7931 11.707L20.0001 10.9141V22C19.9999 22.5521 19.5522 23 19.0001 23H5.00012C4.44796 23 4.00032 22.5521 4.00012 22V10.9141L3.20715 11.707C2.81669 12.0973 2.18358 12.0973 1.79309 11.707C1.40262 11.3166 1.40271 10.6835 1.79309 10.293L4.29309 7.79297L4.31946 7.76758L11.3195 1.26758ZM6.00012 8.93555V21H18.0001V8.93555L12.0001 3.36426L6.00012 8.93555ZM13.7316 8.85938C14.0851 8.43519 14.7165 8.37791 15.1407 8.73145C15.5647 9.08506 15.6222 9.71646 15.2687 10.1406L14.1359 11.5H15.0001C15.5524 11.5 16.0001 11.9477 16.0001 12.5C15.9999 13.0521 15.5522 13.5 15.0001 13.5H13.0001V14.5H15.0001C15.5524 14.5 16.0001 14.9477 16.0001 15.5C15.9999 16.0521 15.5522 16.5 15.0001 16.5H13.0001V18.5C12.9999 19.0521 12.5522 19.5 12.0001 19.5C11.448 19.5 11.0003 19.0521 11.0001 18.5V16.5H9.00012C8.44796 16.5 8.00032 16.0521 8.00012 15.5C8.00012 14.9477 8.44784 14.5 9.00012 14.5H11.0001V13.5H9.00012C8.44796 13.5 8.00032 13.0521 8.00012 12.5C8.00012 11.9477 8.44784 11.5 9.00012 11.5H9.86438L8.73157 10.1406C8.37807 9.71643 8.43543 9.08505 8.8595 8.73145C9.28374 8.37791 9.9151 8.43519 10.2687 8.85938L12.0001 10.9365L13.7316 8.85938Z" fill="#9E9E9E"/>
</g>
</svg>
