<svg width="24" height="24" viewBox="0 0 24 24" fill="none" xmlns="http://www.w3.org/2000/svg">
<g id="icons/Money/bank-card">
<path id="Union" d="M21 3C22.0685 3 22.9382 3.83804 22.9941 4.89258C22.9979 4.92787 23 4.9637 23 5V19C23 20.1046 22.1046 21 21 21H3C1.89544 21 1 20.1046 1 19V5C1 4.96374 1.00112 4.92784 1.00488 4.89258C1.06075 3.83801 1.9315 3 3 3H21ZM3 19H21V9H3V19ZM18 15C18.5523 15 19 15.4477 19 16C19 16.5523 18.5523 17 18 17H13.5C12.9477 17 12.5 16.5523 12.5 16C12.5 15.4477 12.9477 15 13.5 15H18ZM3 7H21V5H3V7Z" fill="#9E9E9E"/>
</g>
</svg>
