<svg width="24" height="24" viewBox="0 0 24 24" fill="none" xmlns="http://www.w3.org/2000/svg">
<g id="icons/Money/bar-code">
<path id="Union" d="M10.2002 12C10.7524 12.0001 11.2002 12.4478 11.2002 13V21C11.2002 21.5522 10.7524 21.9999 10.2002 22C9.64791 22 9.2002 21.5523 9.2002 21V13C9.2002 12.4477 9.64791 12 10.2002 12ZM3 11.998C3.55228 11.998 4 12.4458 4 12.998V19C3.99992 19.5522 3.55223 20 3 20C2.44777 20 2.00008 19.5522 2 19V12.998C2 12.4458 2.44772 11.998 3 11.998ZM21 12C21.5523 12 22 12.4477 22 13V19C22 19.5523 21.5523 20 21 20C20.4477 20 20 19.5523 20 19V13C20 12.4477 20.4477 12 21 12ZM6.59961 12C7.15189 12 7.59961 12.4477 7.59961 13V17C7.59961 17.5523 7.15189 18 6.59961 18C6.04732 18 5.59961 17.5523 5.59961 17V13C5.59961 12.4477 6.04732 12 6.59961 12ZM13.7998 12C14.3521 12 14.7998 12.4477 14.7998 13V17C14.7998 17.5523 14.3521 18 13.7998 18C13.2476 17.9999 12.7998 17.5522 12.7998 17V13C12.7998 12.4478 13.2476 12.0001 13.7998 12ZM17.4004 12C17.9527 12 18.4004 12.4477 18.4004 13V17C18.4004 17.5523 17.9527 18 17.4004 18C16.8481 18 16.4004 17.5523 16.4004 17V13C16.4004 12.4477 16.8481 12 17.4004 12ZM22 9C22.5523 9 23 9.44772 23 10C23 10.5523 22.5523 11 22 11H2C1.44772 11 1 10.5523 1 10C1 9.44772 1.44772 9 2 9H22ZM3 2C3.55228 2 4 2.44772 4 3V7C4 7.55228 3.55228 8 3 8C2.44772 8 2 7.55228 2 7V3C2 2.44772 2.44772 2 3 2ZM6.59961 2C7.15189 2 7.59961 2.44772 7.59961 3V7C7.59961 7.55228 7.15189 8 6.59961 8C6.04732 8 5.59961 7.55228 5.59961 7V3C5.59961 2.44772 6.04732 2 6.59961 2ZM10.2002 2C10.7524 2.00013 11.2002 2.4478 11.2002 3V7C11.2002 7.5522 10.7524 7.99987 10.2002 8C9.64791 8 9.2002 7.55228 9.2002 7V3C9.2002 2.44772 9.64791 2 10.2002 2ZM13.7998 2C14.3521 2 14.7998 2.44772 14.7998 3V7C14.7998 7.55228 14.3521 8 13.7998 8C13.2476 7.99987 12.7998 7.5522 12.7998 7V3C12.7998 2.4478 13.2476 2.00013 13.7998 2ZM17.4004 2C17.9527 2 18.4004 2.44772 18.4004 3V7C18.4004 7.55228 17.9527 8 17.4004 8C16.8481 8 16.4004 7.55228 16.4004 7V3C16.4004 2.44772 16.8481 2 17.4004 2ZM21 2C21.5523 2 22 2.44772 22 3V7C22 7.55228 21.5523 8 21 8C20.4477 8 20 7.55228 20 7V3C20 2.44772 20.4477 2 21 2Z" fill="#9E9E9E"/>
</g>
</svg>
