<svg width="24" height="24" viewBox="0 0 24 24" fill="none" xmlns="http://www.w3.org/2000/svg">
<g id="icons/Money/blockchain">
<path id="Union" d="M12 1C13.297 1 14.3628 1.98771 14.4873 3.25195L20.4902 6.62891C20.805 6.80605 21 7.1388 21 7.5V14.209C21.8828 14.5948 22.5 15.475 22.5 16.5C22.5 17.8807 21.3807 19 20 19C19.4341 19 18.9141 18.8092 18.4951 18.4922L12.4902 21.8711C12.1858 22.0423 11.8142 22.0423 11.5098 21.8711L5.50391 18.4922C5.085 18.8089 4.56565 19 4 19C2.61929 19 1.5 17.8807 1.5 16.5C1.5 15.475 2.11724 14.5948 3 14.209V7.5C3 7.1388 3.195 6.80605 3.50977 6.62891L9.51172 3.25195C9.63622 1.98767 10.703 1 12 1ZM12.5039 16.3643C12.1926 16.5457 11.8074 16.5457 11.4961 16.3643L8.77734 14.7783L6.46484 16.0996C6.48588 16.2301 6.5 16.3635 6.5 16.5C6.5 16.585 6.4956 16.6691 6.4873 16.752L12 19.8525L15.5098 17.8789L17.5117 16.752C17.5034 16.6691 17.5 16.585 17.5 16.5C17.5 16.3636 17.5132 16.2301 17.5342 16.0996L15.2217 14.7783L12.5039 16.3643ZM4 16C3.72386 16 3.5 16.2239 3.5 16.5C3.5 16.7761 3.72386 17 4 17C4.27614 17 4.5 16.7761 4.5 16.5C4.5 16.2239 4.27614 16 4 16ZM20 16C19.7239 16 19.5 16.2239 19.5 16.5C19.5 16.7761 19.7239 17 20 17C20.2761 17 20.5 16.7761 20.5 16.5C20.5 16.2239 20.2761 16 20 16ZM13.8428 5.18359C13.6082 5.44022 13.323 5.64879 13 5.79004V7.9248L15.5039 9.38574C15.8111 9.56495 16 9.89433 16 10.25V12.9189L18.6191 14.416C18.7392 14.3363 18.8666 14.2673 19 14.209V8.08398L13.8428 5.18359ZM5 8.08398V14.209C5.13312 14.2672 5.26006 14.3365 5.37988 14.416L8 12.9189V10.25C8 9.89433 8.18888 9.56495 8.49609 9.38574L11 7.9248V5.79004C10.6768 5.6487 10.3909 5.44044 10.1562 5.18359L5 8.08398ZM11.0039 10.2393L10 10.8242V13.1748L11.0039 13.7607L12 14.3418L12.9961 13.7607L14 13.1748V10.8242L12.9961 10.2393L12 9.6582L11.0039 10.2393ZM12 3C11.7239 3 11.5 3.22386 11.5 3.5C11.5 3.77614 11.7239 4 12 4C12.2761 4 12.5 3.77614 12.5 3.5C12.5 3.22386 12.2761 3 12 3Z" fill="#9E9E9E"/>
</g>
</svg>
