<svg width="24" height="24" viewBox="0 0 24 24" fill="none" xmlns="http://www.w3.org/2000/svg">
<g id="icons/Money/buy">
<path id="Union" d="M16.0002 2C16.5524 2.00011 17.0002 2.44778 17.0002 3V6.5H21.0002C21.2781 6.50005 21.5435 6.6158 21.7327 6.81934C21.9218 7.02307 22.0178 7.29698 21.9973 7.57422L20.9973 21.0742C20.9585 21.5962 20.5237 21.9999 20.0002 22H4.00024C3.47674 22 3.04204 21.5962 3.00317 21.0742L2.00317 7.57422C1.98263 7.29693 2.07861 7.02308 2.26782 6.81934C2.45701 6.61582 2.72236 6.5 3.00024 6.5H7.00024V3C7.00024 2.44772 7.44796 2 8.00024 2H16.0002ZM4.92896 20H19.0715L19.9241 8.5H17.0002V9.5C17.0002 10.0522 16.5524 10.4999 16.0002 10.5C15.448 10.5 15.0002 10.0523 15.0002 9.5V8.5H9.00024V9.5C9.00024 10.0522 8.55244 10.4999 8.00024 10.5C7.44796 10.5 7.00024 10.0523 7.00024 9.5V8.5H4.07642L4.92896 20ZM16.0002 16C16.5524 16.0001 17.0002 16.4478 17.0002 17C17.0002 17.5522 16.5524 17.9999 16.0002 18H8.00024C7.44796 18 7.00024 17.5523 7.00024 17C7.00024 16.4477 7.44796 16 8.00024 16H16.0002ZM9.00024 6.5H15.0002V4H9.00024V6.5Z" fill="#9E9E9E"/>
</g>
</svg>
