<svg width="24" height="24" viewBox="0 0 24 24" fill="none" xmlns="http://www.w3.org/2000/svg">
<g id="icons/Money/commodity">
<path id="Union" d="M18.1171 3C19.1257 3.00001 19.9763 3.75109 20.1014 4.75195L21.8514 18.752C22.0006 19.9456 21.0701 21 19.8671 21H4.13269C2.92975 20.9999 1.99913 19.9456 2.14832 18.752L3.89832 4.75195C4.02342 3.75115 4.87409 3.00008 5.88269 3H18.1171ZM4.13269 19H19.8671L18.1171 5H5.88269L4.13269 19ZM15.6063 8.55078C15.8539 8.05826 16.4538 7.85887 16.9471 8.10547C17.4411 8.35246 17.6414 8.95329 17.3944 9.44727L16.4999 9C17.3284 9.41424 17.3892 9.44541 17.3934 9.44824V9.4502L17.3915 9.45215C17.3905 9.45403 17.3896 9.45687 17.3885 9.45898C17.3864 9.46314 17.3834 9.46758 17.3807 9.47266C17.3752 9.48307 17.3691 9.49569 17.3612 9.50977C17.3453 9.5382 17.3239 9.57438 17.2977 9.61621C17.2455 9.69981 17.1719 9.80885 17.0731 9.93359C16.8752 10.1836 16.576 10.499 16.1503 10.8086C15.2866 11.4367 13.9544 12 11.9999 12C10.0453 12 8.71318 11.4367 7.84949 10.8086C7.42381 10.499 7.12456 10.1836 6.92664 9.93359C6.82789 9.80885 6.75429 9.69981 6.70203 9.61621C6.67588 9.57438 6.65442 9.5382 6.63855 9.50977C6.6307 9.49569 6.62452 9.48307 6.61902 9.47266C6.61633 9.46758 6.61335 9.46315 6.61121 9.45898C6.61012 9.45685 6.60923 9.45402 6.60828 9.45215L6.60632 9.4502V9.44824C6.60986 9.44575 6.66612 9.41688 7.49988 9L6.60535 9.44727C6.35841 8.95332 6.55871 8.35248 7.05261 8.10547C7.54593 7.85881 8.14582 8.05826 8.39343 8.55078L8.39246 8.54785L8.39734 8.55566C8.41339 8.58135 8.44557 8.62896 8.495 8.69141C8.59391 8.81636 8.76369 9.00114 9.02527 9.19141C9.53655 9.56325 10.4547 9.99998 11.9999 10C13.5451 10 14.4632 9.56325 14.9745 9.19141C15.2361 9.00115 15.4058 8.81637 15.5048 8.69141C15.5542 8.62897 15.5863 8.58137 15.6024 8.55566L15.6073 8.54785L15.6063 8.55078ZM8.3905 8.54395C8.39108 8.54507 8.39178 8.54652 8.39246 8.54785L8.3866 8.53906C8.38734 8.54047 8.38936 8.54176 8.3905 8.54395ZM15.6073 8.54785C15.608 8.54652 15.6087 8.54507 15.6093 8.54395C15.6104 8.54175 15.6124 8.54046 15.6132 8.53906L15.6073 8.54785Z" fill="#9E9E9E"/>
</g>
</svg>
