<svg width="24" height="24" viewBox="0 0 24 24" fill="none" xmlns="http://www.w3.org/2000/svg">
<g id="icons/Money/consume">
<path id="Union" d="M21 5C22.1046 5 23 5.89542 23 7V20C23 21.1046 22.1046 22 21 22H3C1.89544 22 1 21.1046 1 20V7C1 5.89541 1.89544 5 3 5H21ZM3 20H21V7H3V20ZM13.793 8.79297C14.1835 8.40244 14.8165 8.40244 15.207 8.79297C15.5976 9.18349 15.5976 9.81651 15.207 10.207L13.9141 11.5H15C15.5523 11.5 16 11.9477 16 12.5C16 13.0523 15.5523 13.5 15 13.5H13V14.5H15C15.5523 14.5 16 14.9477 16 15.5C16 16.0523 15.5523 16.5 15 16.5H13V17.5C13 18.0523 12.5523 18.5 12 18.5C11.4477 18.5 11 18.0523 11 17.5V16.5H9C8.44772 16.5 8 16.0523 8 15.5C8 14.9477 8.44772 14.5 9 14.5H11V13.5H9C8.44772 13.5 8 13.0523 8 12.5C8 11.9477 8.44772 11.5 9 11.5H10.0859L8.79297 10.207C8.40244 9.81651 8.40244 9.18349 8.79297 8.79297C9.18349 8.40244 9.81651 8.40244 10.207 8.79297L12 10.5859L13.793 8.79297ZM20 2C20.5523 2 21 2.44772 21 3C21 3.55228 20.5523 4 20 4H4C3.44772 4 3 3.55228 3 3C3 2.44772 3.44772 2 4 2H20Z" fill="#9E9E9E"/>
</g>
</svg>
