<svg width="24" height="24" viewBox="0 0 24 24" fill="none" xmlns="http://www.w3.org/2000/svg">
<g id="icons/Money/coupon">
<path id="Union" d="M22 3.5C22.5523 3.5 23 3.94772 23 4.5V9.65625C23 10.0791 22.7342 10.4566 22.3359 10.5986C21.6665 10.8372 21.1816 11.4844 21.1816 12.25C21.1816 13.0156 21.6665 13.6628 22.3359 13.9014C22.7342 14.0434 23 14.4209 23 14.8438V20C23 20.5523 22.5523 21 22 21H2C1.44772 21 1 20.5523 1 20V14.8438L1.01172 14.6875C1.06803 14.3301 1.31557 14.0256 1.66406 13.9014C2.33345 13.6628 2.81836 13.0156 2.81836 12.25C2.81836 11.4844 2.33345 10.8372 1.66406 10.5986C1.26583 10.4566 1 10.0791 1 9.65625V4.5C1 3.94772 1.44772 3.5 2 3.5H22ZM3 9.03125C4.08987 9.68678 4.81836 10.8833 4.81836 12.25C4.81836 13.6165 4.08963 14.8122 3 15.4678V19H21V15.4678C19.9104 14.8122 19.1816 13.6165 19.1816 12.25C19.1816 10.8833 19.9101 9.68677 21 9.03125V5.5H3V9.03125ZM13.793 7.29297C14.1835 6.90244 14.8165 6.90244 15.207 7.29297C15.5976 7.68349 15.5976 8.31651 15.207 8.70703L13.9141 10H15C15.5523 10 16 10.4477 16 11C16 11.5523 15.5523 12 15 12H13V13.083H15C15.5523 13.083 16 13.5307 16 14.083C16 14.6353 15.5523 15.083 15 15.083H13V17C13 17.5523 12.5523 18 12 18C11.4477 18 11 17.5523 11 17V15.083H9C8.44772 15.083 8 14.6353 8 14.083C8 13.5307 8.44772 13.083 9 13.083H11V12H9C8.44772 12 8 11.5523 8 11C8 10.4477 8.44772 10 9 10H10.0859L8.79297 8.70703C8.40244 8.31651 8.40244 7.68349 8.79297 7.29297C9.18349 6.90244 9.81651 6.90244 10.207 7.29297L12 9.08594L13.793 7.29297Z" fill="#9E9E9E"/>
</g>
</svg>
