<svg width="24" height="24" viewBox="0 0 24 24" fill="none" xmlns="http://www.w3.org/2000/svg">
<g id="icons/Money/credit">
<path id="Union" d="M19 2.5C19.5523 2.5 20 2.94772 20 3.5V6.5H21.5C22.0523 6.5 22.5 6.94772 22.5 7.5V13.5C22.5 14.0523 22.0523 14.5 21.5 14.5C20.9477 14.5 20.5 14.0523 20.5 13.5V8.5H3.5V19.5H21.5C22.0523 19.5 22.5 19.9477 22.5 20.5C22.5 21.0523 22.0523 21.5 21.5 21.5H2.5C1.94772 21.5 1.5 21.0523 1.5 20.5V7.5C1.5 6.94772 1.94772 6.5 2.5 6.5H4V3.5C4 2.94772 4.44772 2.5 5 2.5H19ZM13.6865 12.9189C14.0075 12.4695 14.6316 12.3655 15.0811 12.6865C15.5305 13.0075 15.6345 13.6316 15.3135 14.0811L13.9424 16H21.5C22.0523 16 22.5 16.4477 22.5 17C22.5 17.5523 22.0523 18 21.5 18H12C11.6255 18 11.2818 17.791 11.1104 17.458C10.9389 17.1249 10.9688 16.7238 11.1865 16.4189L13.6865 12.9189ZM8 9.5C8.55228 9.5 9 9.94772 9 10.5C9 11.0523 8.55228 11.5 8 11.5H6C5.44772 11.5 5 11.0523 5 10.5C5 9.94772 5.44772 9.5 6 9.5H8ZM13 9.5C13.5523 9.5 14 9.94772 14 10.5C14 11.0523 13.5523 11.5 13 11.5H11C10.4477 11.5 10 11.0523 10 10.5C10 9.94772 10.4477 9.5 11 9.5H13ZM6 6.5H18V4.5H6V6.5Z" fill="#9E9E9E"/>
</g>
</svg>
