<svg width="24" height="24" viewBox="0 0 24 24" fill="none" xmlns="http://www.w3.org/2000/svg">
<g id="icons/Money/currency">
<path id="Union" d="M3 11C3.12531 11 3.24493 11.0243 3.35547 11.0664C3.6467 11.1773 3.87243 11.4197 3.95996 11.7217C3.96731 11.747 3.97414 11.7727 3.97949 11.7988C3.98669 11.834 3.99171 11.8698 3.99512 11.9062C3.99792 11.9362 3.9999 11.9664 4 11.9971V12.0049C4.00012 12.0128 4.00036 12.0272 4.00098 12.0469C4.00226 12.0872 4.00504 12.1519 4.01074 12.2363C4.02224 12.4062 4.04592 12.6587 4.09375 12.9688C4.18991 13.5919 4.38205 14.4369 4.7627 15.3252C5.51549 17.0816 6.99432 19.0027 10.001 19.7822C13.0472 20.572 15.1821 19.7281 16.5693 18.7217C17.2756 18.2092 17.7974 17.6456 18.1416 17.2109C18.3128 16.9947 18.4385 16.813 18.5186 16.6895C18.5584 16.628 18.5873 16.5808 18.6045 16.5518C18.613 16.5374 18.6191 16.5266 18.6221 16.5215C18.6233 16.5193 18.624 16.5177 18.624 16.5176C18.8895 16.0358 19.4951 15.8587 19.9785 16.1221C20.4632 16.3864 20.6419 16.9938 20.3779 17.4785L19.5 17C20.2974 17.435 20.3705 17.4754 20.377 17.4795V17.4814L20.375 17.4834C20.374 17.4852 20.3725 17.4878 20.3711 17.4902C20.3683 17.4953 20.3646 17.5022 20.3604 17.5098C20.3516 17.5252 20.34 17.5462 20.3252 17.5713C20.2953 17.6218 20.2523 17.6914 20.1973 17.7764C20.087 17.9466 19.9251 18.1814 19.71 18.4531C19.2809 18.9949 18.6303 19.6972 17.7432 20.3408C15.9429 21.6468 13.2025 22.6779 9.49902 21.7178C6.83752 21.0277 5.11233 19.5861 4 18.0273V20C4 20.5523 3.55228 21 3 21C2.44772 21 2 20.5523 2 20V12C2.00025 11.4479 2.44787 11 3 11ZM13.7314 7.35938C14.085 6.93551 14.7165 6.8782 15.1406 7.23145C15.5647 7.58495 15.6218 8.21638 15.2686 8.64062L14.1357 10H15C15.5521 10 15.9997 10.4479 16 11C16 11.5523 15.5523 12 15 12H13V13H15C15.5521 13 15.9997 13.4479 16 14C16 14.5523 15.5523 15 15 15H13V17C13 17.5523 12.5523 18 12 18C11.4477 18 11 17.5523 11 17V15H9C8.44772 15 8 14.5523 8 14C8.00025 13.4479 8.44787 13 9 13H11V12H9C8.44772 12 8 11.5523 8 11C8.00025 10.4479 8.44787 10 9 10H9.86426L8.73145 8.64062C8.37816 8.21638 8.43528 7.58495 8.85938 7.23145C9.28353 6.8782 9.915 6.93551 10.2686 7.35938L12 9.43652L13.7314 7.35938ZM6.63672 3.57129C8.58276 2.28573 11.4684 1.30555 15.0771 2.55469C17.4127 3.36315 18.9677 4.68453 20 6.09277V4C20.0003 3.44793 20.4479 3 21 3C21.5521 3 21.9997 3.44793 22 4V12C22 12.0097 21.9983 12.0197 21.998 12.0293C21.9993 12.0902 22.0012 12.1413 22.001 12.1816C22.0008 12.211 22.0004 12.2352 22 12.2529C21.9998 12.2616 22.0001 12.2696 22 12.2754C21.9999 12.2781 21.9992 12.2811 21.999 12.2832V12.2871L21.958 12.2852L21.957 12.2861L21.999 12.2881C21.9778 12.8398 21.5136 13.2701 20.9619 13.249C20.41 13.2278 19.9798 12.7628 20.001 12.2109V12.1709C20.0012 12.1344 20.0015 12.0756 19.999 11.998C19.994 11.8419 19.9794 11.6087 19.9443 11.3193C19.8738 10.7378 19.7186 9.94103 19.3818 9.08496C18.7162 7.39342 17.3433 5.45528 14.4229 4.44434C11.5324 3.44388 9.29215 4.21363 7.73828 5.24023C6.9516 5.76006 6.34252 6.3467 5.93066 6.80469C5.72578 7.03254 5.57275 7.22664 5.47266 7.35938C5.42285 7.42543 5.38588 7.47647 5.36328 7.50879C5.35225 7.52458 5.34418 7.53654 5.33984 7.54297C5.33922 7.5439 5.33758 7.54435 5.33691 7.54492L5.33789 7.5459C5.03621 8.00847 4.41669 8.13855 3.9541 7.83691C3.49168 7.53517 3.36046 6.91565 3.66211 6.45312L4.37598 6.91895C3.66257 6.45363 3.66281 6.45257 3.66309 6.45215L3.66406 6.45117L3.66504 6.44922C3.66613 6.44747 3.66741 6.44469 3.66895 6.44238C3.67217 6.43754 3.67667 6.4312 3.68164 6.42383C3.6919 6.40861 3.70599 6.38755 3.72363 6.3623C3.7591 6.31158 3.81005 6.24142 3.875 6.15527C4.00538 5.98237 4.19639 5.7435 4.44434 5.46777C4.93866 4.9181 5.67397 4.20739 6.63672 3.57129Z" fill="#9E9E9E"/>
</g>
</svg>
