<svg width="24" height="24" viewBox="0 0 24 24" fill="none" xmlns="http://www.w3.org/2000/svg">
<g id="icons/Money/deposit">
<path id="Union" d="M21 1C21.5523 1 22 1.44772 22 2V9C22 9.55229 21.5523 10 21 10H19V22C19 22.5523 18.5523 23 18 23H6C5.44772 23 5 22.5523 5 22V10H3C2.44772 10 2 9.55229 2 9V2C2 1.44772 2.44772 1 3 1H21ZM4 8H5C5 7.44772 5.44772 7 6 7C6.55228 7 7 7.44772 7 8V21H17V8C17 7.44772 17.4477 7 18 7C18.5523 7 19 7.44772 19 8H20V3H4V8ZM13.7314 9.35938C14.085 8.93519 14.7164 8.87791 15.1406 9.23145C15.5648 9.58502 15.6221 10.2164 15.2686 10.6406L14.1357 12H15C15.5523 12 16 12.4477 16 13C16 13.5523 15.5523 14 15 14H13V15H15C15.5523 15 16 15.4477 16 16C16 16.5523 15.5523 17 15 17H13V19C13 19.5523 12.5523 20 12 20C11.4477 20 11 19.5523 11 19V17H9C8.44772 17 8 16.5523 8 16C8 15.4477 8.44772 15 9 15H11V14H9C8.44772 14 8 13.5523 8 13C8 12.4477 8.44772 12 9 12H9.86426L8.73145 10.6406C8.37791 10.2164 8.43519 9.58502 8.85938 9.23145C9.28362 8.87791 9.91498 8.93519 10.2686 9.35938L12 11.4365L13.7314 9.35938ZM17 4C17.5523 4 18 4.44772 18 5C18 5.55228 17.5523 6 17 6H7C6.44772 6 6 5.55228 6 5C6 4.44772 6.44772 4 7 4H17Z" fill="#9E9E9E"/>
</g>
</svg>
