<svg width="24" height="24" viewBox="0 0 24 24" fill="none" xmlns="http://www.w3.org/2000/svg">
<g id="icons/Money/dollar">
<path id="Union" d="M12 0C12.5523 0 13 0.447715 13 1V2H17.5C18.0523 2 18.5 2.44772 18.5 3C18.5 3.55228 18.0523 4 17.5 4H13V11H14C17.0376 11 19.5 13.4624 19.5 16.5C19.5 19.5376 17.0376 22 14 22H13V23C13 23.5523 12.5523 24 12 24C11.4477 24 11 23.5523 11 23V22H6.5C5.94772 22 5.5 21.5523 5.5 21C5.5 20.4477 5.94772 20 6.5 20H11V13H10C6.96242 13 4.5 10.5376 4.5 7.5C4.5 4.46242 6.96242 2 10 2H11V1C11 0.447715 11.4477 0 12 0ZM13 20H14C15.933 20 17.5 18.433 17.5 16.5C17.5 14.567 15.933 13 14 13H13V20ZM10 4C8.06698 4 6.5 5.56698 6.5 7.5C6.5 9.43301 8.06698 11 10 11H11V4H10Z" fill="#9E9E9E"/>
</g>
</svg>
