<svg width="24" height="24" viewBox="0 0 24 24" fill="none" xmlns="http://www.w3.org/2000/svg">
<g id="icons/Money/exchange-four">
<path id="Union" d="M19.5 2C20.8807 2 22 3.1193 22 4.5V19.5C22 20.8807 20.8807 22 19.5 22H4.5C3.1193 22 2 20.8807 2 19.5V4.5C2 3.11929 3.11929 2 4.5 2H19.5ZM4.5 4C4.22386 4 4 4.22386 4 4.5V19.5C4 19.7762 4.22385 20 4.5 20H19.5C19.7762 20 20 19.7762 20 19.5V4.5C20 4.22385 19.7762 4 19.5 4H4.5ZM16.5 12.5C17.0523 12.5 17.5 12.9477 17.5 13.5C17.5 14.0523 17.0523 14.5 16.5 14.5H9.91406L11.707 16.293C12.0976 16.6835 12.0976 17.3165 11.707 17.707C11.3165 18.0976 10.6835 18.0976 10.293 17.707L6.79297 14.207C6.76536 14.1794 6.7405 14.15 6.7168 14.1201C6.68065 14.0745 6.64798 14.0261 6.62012 13.9746C6.61269 13.9609 6.60635 13.9466 6.59961 13.9326C6.5778 13.8873 6.55783 13.8408 6.54297 13.792C6.5303 13.7503 6.52176 13.7077 6.51465 13.665C6.50571 13.6113 6.5 13.5563 6.5 13.5C6.5 13.4203 6.50973 13.3429 6.52734 13.2686C6.53221 13.248 6.53678 13.2273 6.54297 13.207C6.55787 13.1583 6.57777 13.1117 6.59961 13.0664C6.61877 13.0266 6.6403 12.9877 6.66504 12.9502C6.7557 12.8128 6.87904 12.6989 7.02441 12.6201C7.03816 12.6127 7.0524 12.6064 7.06641 12.5996C7.11167 12.5778 7.15828 12.5579 7.20703 12.543C7.2273 12.5368 7.248 12.5322 7.26855 12.5273C7.2799 12.5247 7.29124 12.5218 7.30273 12.5195C7.30468 12.5191 7.30665 12.5189 7.30859 12.5186L7.39746 12.5049C7.43116 12.5015 7.46539 12.5 7.5 12.5H16.5ZM12.293 6.29297C12.6835 5.90244 13.3165 5.90244 13.707 6.29297L17.207 9.79297C17.2548 9.84078 17.2976 9.89354 17.335 9.9502C17.3597 9.98768 17.3812 10.0266 17.4004 10.0664C17.4222 10.1116 17.4412 10.1584 17.4561 10.207C17.4623 10.2273 17.4668 10.248 17.4717 10.2686C17.4893 10.3429 17.5 10.4202 17.5 10.5C17.5 10.5563 17.4933 10.6112 17.4844 10.665C17.4772 10.7078 17.4688 10.7503 17.4561 10.792C17.4412 10.8407 17.4222 10.8874 17.4004 10.9326C17.3936 10.9468 17.3864 10.9607 17.3789 10.9746C17.3002 11.1201 17.1873 11.2442 17.0498 11.335C17.0121 11.3599 16.9727 11.3811 16.9326 11.4004C16.8874 11.4222 16.8407 11.4412 16.792 11.4561C16.7717 11.4622 16.751 11.4668 16.7305 11.4717C16.7191 11.4744 16.7078 11.4772 16.6963 11.4795C16.6859 11.4816 16.6754 11.4826 16.665 11.4844C16.6112 11.4933 16.5563 11.5 16.5 11.5H7.5C6.94772 11.5 6.5 11.0523 6.5 10.5C6.5 9.94772 6.94772 9.5 7.5 9.5H14.0859L12.293 7.70703C11.9024 7.31651 11.9024 6.68349 12.293 6.29297Z" fill="#9E9E9E"/>
</g>
</svg>
