<svg width="24" height="24" viewBox="0 0 24 24" fill="none" xmlns="http://www.w3.org/2000/svg">
<g id="icons/Money/exchange-one">
<path id="Union" d="M11.5186 2.12305C11.8675 1.93133 12.3054 1.96321 12.625 2.21875L20.125 8.21875C20.3621 8.40845 20.4999 8.69634 20.5 9V21C20.5 21.5523 20.0523 22 19.5 22H4.5C3.94772 22 3.5 21.5523 3.5 21V9C3.5001 8.69634 3.63787 8.40845 3.875 8.21875L11.375 2.21875L11.5186 2.12305ZM5.5 9.48047V20H18.5V9.48047L12 4.28125L5.5 9.48047ZM15.5 14C16.0522 14 16.4998 14.4479 16.5 15C16.5 15.5523 16.0523 16 15.5 16H10.9141L11.707 16.793C12.0975 17.1834 12.0974 17.8165 11.707 18.207C11.3165 18.5976 10.6835 18.5976 10.293 18.207L7.79297 15.707C7.7465 15.6605 7.7046 15.6096 7.66797 15.5547C7.64054 15.5136 7.61738 15.4706 7.59668 15.4268C7.57611 15.3833 7.55717 15.3387 7.54297 15.292C7.53789 15.2753 7.53446 15.2581 7.53027 15.2412C7.51115 15.164 7.5 15.0831 7.5 15C7.50005 14.8481 7.53407 14.7041 7.59473 14.5752C7.61569 14.5306 7.64004 14.4871 7.66797 14.4453C7.77706 14.2821 7.93278 14.1524 8.11621 14.0762C8.12745 14.0715 8.13902 14.0677 8.15039 14.0635C8.19951 14.0451 8.2503 14.03 8.30273 14.0195C8.36777 14.0065 8.43392 14 8.5 14H15.5ZM12.293 8.79297C12.6835 8.40266 13.3165 8.40266 13.707 8.79297L16.207 11.293C16.2534 11.3393 16.2945 11.3907 16.3311 11.4453C16.359 11.4871 16.3833 11.5305 16.4043 11.5752C16.4244 11.618 16.4421 11.6622 16.4561 11.708C16.4612 11.7247 16.4645 11.7419 16.4688 11.7588C16.488 11.8362 16.5 11.9167 16.5 12C16.5 12.0832 16.4879 12.1639 16.4688 12.2412C16.4646 12.2581 16.4611 12.2753 16.4561 12.292C16.4418 12.3387 16.423 12.3832 16.4023 12.4268C16.3816 12.4706 16.3585 12.5136 16.3311 12.5547C16.2757 12.6375 16.2087 12.7116 16.1318 12.7744C16.0948 12.8047 16.0557 12.8313 16.0156 12.8555C15.9457 12.8977 15.8707 12.9318 15.791 12.9561C15.7739 12.9613 15.7566 12.9655 15.7393 12.9697C15.725 12.9732 15.7108 12.9776 15.6963 12.9805C15.6315 12.9934 15.5658 13 15.5 13H8.5C7.94772 13 7.5 12.5523 7.5 12C7.50018 11.4479 7.94783 11 8.5 11H13.0859L12.293 10.207C11.9026 9.81649 11.9025 9.18344 12.293 8.79297Z" fill="#9E9E9E"/>
</g>
</svg>
