<svg width="24" height="24" viewBox="0 0 24 24" fill="none" xmlns="http://www.w3.org/2000/svg">
<g id="icons/Money/exchange">
<path id="Union" d="M14.1169 1.07617C14.4906 0.921406 14.9208 1.00704 15.2068 1.29297L22.7068 8.79297C23.0973 9.18349 23.0973 9.81651 22.7068 10.207L15.2068 17.707C14.9208 17.9929 14.4906 18.0786 14.1169 17.9238C13.7434 17.769 13.4998 17.4043 13.4998 17V13H8.99976C8.44757 12.9999 7.99977 12.5522 7.99976 12V9.03711L3.34741 14.0215L7.99976 19.3379V16C7.99976 15.4478 8.44756 15.0001 8.99976 15H11.4998C12.052 15 12.4998 15.4477 12.4998 16C12.4997 16.5523 12.052 17 11.4998 17H9.99976V22C9.99974 22.4166 9.7413 22.79 9.35132 22.9365C8.96145 23.0828 8.52106 22.9716 8.24683 22.6582L1.24683 14.6582C0.90929 14.272 0.918393 13.6924 1.26831 13.3174L8.26831 5.81738C8.54853 5.51715 8.98485 5.41881 9.36694 5.56934C9.7489 5.72003 9.99976 6.08937 9.99976 6.5V11H14.4998C15.052 11 15.4998 11.4477 15.4998 12V14.5859L20.5857 9.5L15.4998 4.41406V8C15.4997 8.55227 15.052 9 14.4998 9H11.9998C11.4476 8.99989 10.9998 8.55221 10.9998 8C10.9998 7.44778 11.4476 7.00011 11.9998 7H13.4998V2C13.4998 1.59565 13.7434 1.23103 14.1169 1.07617Z" fill="#9E9E9E"/>
</g>
</svg>
