<svg width="24" height="24" viewBox="0 0 24 24" fill="none" xmlns="http://www.w3.org/2000/svg">
<g id="icons/Money/exchange-three">
<path id="Union" d="M11.8633 0.509766C12.0037 0.489769 12.1479 0.499964 12.2852 0.540039L21.2803 3.16797C21.7067 3.29253 21.9999 3.68372 22 4.12793V9.5166C22 15.6113 18.0995 21.0226 12.3174 22.9492C12.1123 23.0175 11.8906 23.0174 11.6855 22.9492C5.90198 21.0227 2.00013 15.6107 2 9.51465V4.12793C2.00008 3.68367 2.29327 3.29249 2.71973 3.16797L11.7246 0.540039L11.8633 0.509766ZM4 4.87695V9.51465C4.00012 14.6374 7.20941 19.195 12.001 20.9385C16.7915 19.1951 20 14.6383 20 9.5166V4.87695L12.0029 2.54102L4 4.87695ZM15.5 11.5C16.0522 11.5 16.4999 11.9478 16.5 12.5C16.5 13.0523 16.0523 13.5 15.5 13.5H10.9141L11.707 14.293C12.0975 14.6835 12.0975 15.3165 11.707 15.707C11.3165 16.0976 10.6835 16.0976 10.293 15.707L7.79297 13.207C7.7465 13.1605 7.70461 13.1096 7.66797 13.0547C7.64177 13.0155 7.61967 12.9744 7.59961 12.9326C7.57768 12.887 7.55787 12.8401 7.54297 12.791C7.53799 12.7746 7.53439 12.7578 7.53027 12.7412C7.51113 12.6639 7.5 12.5832 7.5 12.5C7.50003 12.3481 7.53409 12.2041 7.59473 12.0752C7.61569 12.0305 7.64004 11.9871 7.66797 11.9453C7.75835 11.8101 7.88073 11.6979 8.02441 11.6201C8.0455 11.6087 8.06718 11.5986 8.08887 11.5889C8.09762 11.5849 8.10634 11.5809 8.11523 11.5771C8.1323 11.57 8.14963 11.5637 8.16699 11.5576C8.18035 11.5529 8.19342 11.5471 8.20703 11.543C8.2273 11.5368 8.24801 11.5322 8.26855 11.5273C8.2799 11.5247 8.29124 11.5218 8.30273 11.5195C8.30468 11.5191 8.30665 11.5189 8.30859 11.5186L8.39746 11.5049C8.43116 11.5015 8.4654 11.5 8.5 11.5H15.5ZM12.293 6.29297C12.6835 5.90257 13.3165 5.90257 13.707 6.29297L16.207 8.79297C16.2534 8.8393 16.2945 8.89065 16.3311 8.94531C16.359 8.98711 16.3833 9.03052 16.4043 9.0752C16.4244 9.11799 16.4421 9.16216 16.4561 9.20801C16.4612 9.22474 16.4645 9.24186 16.4688 9.25879C16.488 9.33617 16.5 9.41667 16.5 9.5C16.5 9.58327 16.4879 9.66387 16.4688 9.74121C16.4646 9.75784 16.461 9.77458 16.4561 9.79102C16.4412 9.84002 16.4223 9.88712 16.4004 9.93262C16.3803 9.97453 16.3574 10.0153 16.3311 10.0547C16.2043 10.2443 16.015 10.388 15.792 10.4561C15.7775 10.4605 15.7627 10.464 15.748 10.4678C15.7309 10.4721 15.7137 10.476 15.6963 10.4795C15.6859 10.4816 15.6754 10.4826 15.665 10.4844C15.6112 10.4933 15.5563 10.5 15.5 10.5H8.5C7.94772 10.5 7.5 10.0523 7.5 9.5C7.5001 8.9478 7.94778 8.5 8.5 8.5H13.0859L12.293 7.70703C11.9025 7.3165 11.9025 6.68346 12.293 6.29297Z" fill="#9E9E9E"/>
</g>
</svg>
