<svg width="24" height="24" viewBox="0 0 24 24" fill="none" xmlns="http://www.w3.org/2000/svg">
<g id="icons/Money/exchange-two">
<path id="Union" d="M11.5186 2.12305C11.8675 1.93133 12.3054 1.96321 12.625 2.21875L20.125 8.21875C20.3621 8.40845 20.4999 8.69634 20.5 9V21C20.5 21.5523 20.0523 22 19.5 22H4.5C3.94772 22 3.5 21.5523 3.5 21V9C3.5001 8.69634 3.63787 8.40845 3.875 8.21875L11.375 2.21875L11.5186 2.12305ZM5.5 9.48047V20H18.5V9.48047L12 4.28125L5.5 9.48047ZM8.5 15C9.05217 15 9.49982 15.4479 9.5 16V18C9.5 18.5523 9.05228 19 8.5 19C7.94772 19 7.5 18.5523 7.5 18V16C7.50018 15.4479 7.94783 15 8.5 15ZM12 14C12.5522 14 12.9998 14.4479 13 15V18C13 18.5523 12.5523 19 12 19C11.4477 19 11 18.5523 11 18V15C11.0002 14.4479 11.4478 14 12 14ZM15.5 12C16.0522 12 16.4998 12.4479 16.5 13V18C16.5 18.5523 16.0523 19 15.5 19C14.9477 19 14.5 18.5523 14.5 18V13C14.5002 12.4479 14.9478 12 15.5 12ZM14.8594 8.73145C15.2836 8.37811 15.915 8.43542 16.2686 8.85938C16.622 9.28357 16.5647 9.91495 16.1406 10.2686L13.1406 12.7686C12.7433 13.0997 12.1587 13.0727 11.793 12.707L10.9258 11.8398L9.125 13.2812C8.69374 13.6263 8.06376 13.5563 7.71875 13.125C7.37392 12.6937 7.44381 12.0637 7.875 11.7188L10.375 9.71875C10.7728 9.40062 11.3468 9.43287 11.707 9.79297L12.5605 10.6465L14.8594 8.73145Z" fill="#9E9E9E"/>
</g>
</svg>
