<svg width="24" height="24" viewBox="0 0 24 24" fill="none" xmlns="http://www.w3.org/2000/svg">
<g id="icons/Money/expenses">
<path id="Union" d="M20 2.5C21.3807 2.5 22.5 3.6193 22.5 5V13C22.5 13.5523 22.0523 14 21.5 14C20.9477 14 20.5 13.5523 20.5 13V5C20.5 4.72385 20.2762 4.5 20 4.5H4C3.72386 4.5 3.5 4.72386 3.5 5V19C3.5 19.2762 3.72385 19.5 4 19.5H14.2354C14.7876 19.5 15.2354 19.9477 15.2354 20.5C15.2354 21.0523 14.7876 21.5 14.2354 21.5H4C2.6193 21.5 1.5 20.3807 1.5 19V5C1.5 3.61929 2.61929 2.5 4 2.5H20ZM18.293 13.793C18.6835 13.4025 19.3165 13.4026 19.707 13.793L22.207 16.293C22.2548 16.3408 22.2976 16.3935 22.335 16.4502C22.3597 16.4877 22.3812 16.5266 22.4004 16.5664C22.4222 16.6116 22.4412 16.6584 22.4561 16.707C22.4623 16.7273 22.4668 16.748 22.4717 16.7686C22.4893 16.8429 22.5 16.9202 22.5 17C22.5 17.0563 22.4933 17.1112 22.4844 17.165C22.4772 17.2078 22.4688 17.2503 22.4561 17.292C22.4412 17.3407 22.4222 17.3874 22.4004 17.4326C22.3936 17.4468 22.3864 17.4607 22.3789 17.4746C22.351 17.5262 22.3184 17.5745 22.2822 17.6201C22.2586 17.6498 22.2345 17.6796 22.207 17.707L19.707 20.207C19.3165 20.5976 18.6835 20.5976 18.293 20.207C17.9024 19.8165 17.9024 19.1835 18.293 18.793L19.0859 18H15.5C14.9477 18 14.5 17.5523 14.5 17C14.5 16.4477 14.9477 16 15.5 16H19.0859L18.293 15.207C17.9026 14.8165 17.9026 14.1835 18.293 13.793ZM11.7314 6.85938C12.085 6.43519 12.7164 6.37791 13.1406 6.73145C13.5648 7.08502 13.6221 7.71638 13.2686 8.14062L12.1357 9.5H13C13.5523 9.5 14 9.94772 14 10.5C14 11.0523 13.5523 11.5 13 11.5H11V12.5H13C13.5523 12.5 14 12.9477 14 13.5C14 14.0523 13.5523 14.5 13 14.5H11V16.5C11 17.0523 10.5523 17.5 10 17.5C9.44772 17.5 9 17.0523 9 16.5V14.5H7C6.44772 14.5 6 14.0523 6 13.5C6 12.9477 6.44772 12.5 7 12.5H9V11.5H7C6.44772 11.5 6 11.0523 6 10.5C6 9.94772 6.44772 9.5 7 9.5H7.86426L6.73145 8.14062C6.37791 7.71638 6.43519 7.08502 6.85938 6.73145C7.28362 6.37791 7.91498 6.43519 8.26855 6.85938L10 8.93652L11.7314 6.85938Z" fill="#9E9E9E"/>
</g>
</svg>
