<svg width="24" height="24" viewBox="0 0 24 24" fill="none" xmlns="http://www.w3.org/2000/svg">
<g id="icons/Money/expenses-one">
<path id="Union" d="M20.5 2.5C21.6046 2.5 22.5 3.39544 22.5 4.5V11C22.5 11.5523 22.0523 12 21.5 12C20.9477 12 20.5 11.5523 20.5 11V4.5H3.5V19.5H14.2354C14.7876 19.5 15.2354 19.9477 15.2354 20.5C15.2354 21.0523 14.7876 21.5 14.2354 21.5H3.5C2.39544 21.5 1.5 20.6046 1.5 19.5V4.5C1.5 3.39543 2.39543 2.5 3.5 2.5H20.5ZM14.293 12.293C14.6835 11.9025 15.3165 11.9026 15.707 12.293L18.207 14.793C18.5975 15.1835 18.5975 15.8165 18.207 16.207L15.707 18.707C15.3165 19.0976 14.6835 19.0976 14.293 18.707C13.9024 18.3165 13.9024 17.6835 14.293 17.293L16.0859 15.5L14.293 13.707C13.9026 13.3165 13.9026 12.6835 14.293 12.293ZM18.293 12.293C18.6835 11.9025 19.3165 11.9026 19.707 12.293L22.207 14.793C22.5975 15.1835 22.5975 15.8165 22.207 16.207L19.707 18.707C19.3165 19.0976 18.6835 19.0976 18.293 18.707C17.9024 18.3165 17.9024 17.6835 18.293 17.293L20.0859 15.5L18.293 13.707C17.9026 13.3165 17.9026 12.6835 18.293 12.293ZM10.7314 6.85938C11.085 6.43519 11.7164 6.37791 12.1406 6.73145C12.5648 7.08502 12.6221 7.71638 12.2686 8.14062L11.1357 9.5H12C12.5523 9.5 13 9.94772 13 10.5C13 11.0523 12.5523 11.5 12 11.5H10V12.5H12C12.5523 12.5 13 12.9477 13 13.5C13 14.0523 12.5523 14.5 12 14.5H10V16.5C10 17.0523 9.55229 17.5 9 17.5C8.44772 17.5 8 17.0523 8 16.5V14.5H6C5.44772 14.5 5 14.0523 5 13.5C5 12.9477 5.44772 12.5 6 12.5H8V11.5H6C5.44772 11.5 5 11.0523 5 10.5C5 9.94772 5.44772 9.5 6 9.5H6.86426L5.73145 8.14062C5.37791 7.71638 5.43519 7.08502 5.85938 6.73145C6.28362 6.37791 6.91498 6.43519 7.26855 6.85938L9 8.93652L10.7314 6.85938Z" fill="#9E9E9E"/>
</g>
</svg>
