<svg width="24" height="24" viewBox="0 0 24 24" fill="none" xmlns="http://www.w3.org/2000/svg">
<g id="icons/Money/financing-one">
<path id="Union" d="M12.0002 1C13.9061 1.00003 15.6808 1.35452 17.0159 1.9707C18.2659 2.54774 19.5002 3.5466 19.5002 5C19.5002 6.06074 18.8414 6.87759 18.0002 7.4668C19.9708 10.0766 21.3687 13.2219 22.3079 15.8643C23.6228 19.5647 20.6849 22.9998 16.967 23H7.01001C3.30207 22.9997 0.365267 19.5793 1.67505 15.8838C2.61119 13.2425 4.00984 10.0934 5.99829 7.46582C5.15782 6.87669 4.50024 6.06014 4.50024 5C4.50024 3.54652 5.73455 2.54773 6.98462 1.9707C8.31972 1.35456 10.0944 1 12.0002 1ZM16.1682 8.36426C14.9921 8.76341 13.5833 8.98928 12.0901 8.99805C12.0716 8.99847 12.0559 8.99986 12.0432 9H12.0051V8.99902H12.0042V9H11.9661C11.9558 8.99989 11.9432 8.99934 11.929 8.99902C10.4281 8.99208 9.01167 8.76538 7.83032 8.36426C5.89882 10.8061 4.50699 13.883 3.56079 16.5527C2.78244 18.7493 4.46699 20.9997 7.01001 21H16.967C19.5158 20.9998 21.2063 18.7385 20.4231 16.5342C19.4724 13.8594 18.0803 10.7861 16.1682 8.36426ZM14.2932 10.293C14.6837 9.90258 15.3168 9.90249 15.7073 10.293C16.0976 10.6835 16.0976 11.3165 15.7073 11.707L14.4143 13H15.0002C15.5524 13.0001 16.0002 13.4478 16.0002 14C16.0002 14.5522 15.5524 14.9999 15.0002 15H13.0051V16H15.0002C15.5524 16.0001 16.0002 16.4478 16.0002 17C16.0002 17.5522 15.5524 17.9999 15.0002 18H13.0051V19C13.0051 19.5522 12.5573 19.9999 12.0051 20C11.4528 20 11.0051 19.5523 11.0051 19V18H9.00024C8.44796 18 8.00024 17.5523 8.00024 17C8.00024 16.4477 8.44796 16 9.00024 16H11.0051V15H9.00024C8.44796 15 8.00024 14.5523 8.00024 14C8.00024 13.4477 8.44796 13 9.00024 13H9.58618L8.29321 11.707C7.90269 11.3165 7.90269 10.6835 8.29321 10.293C8.68375 9.90258 9.3168 9.90249 9.70728 10.293L12.0002 12.5859L14.2932 10.293ZM12.0002 3C10.3165 3 8.84089 3.31762 7.82349 3.78711C6.72112 4.29589 6.50024 4.79674 6.50024 5C6.50024 5.20326 6.72112 5.70411 7.82349 6.21289C8.04486 6.31504 8.28886 6.4071 8.55103 6.49316C9.27381 6.70633 10.0167 6.83355 10.6418 6.90625C11.0493 6.95363 11.3962 6.97654 11.6389 6.98828C11.7241 6.9924 11.7965 6.99422 11.8538 6.99609C11.9023 6.99663 11.9513 7 12.0002 7C12.0565 7 12.1124 6.99582 12.1682 6.99512C12.223 6.99324 12.2909 6.99208 12.3694 6.98828C12.6116 6.97654 12.9577 6.95365 13.3645 6.90625C13.9771 6.83486 14.7031 6.71186 15.4124 6.50586C15.6887 6.41663 15.9452 6.31985 16.177 6.21289C17.2792 5.70414 17.5002 5.20324 17.5002 5C17.5002 4.79676 17.2792 4.29586 16.177 3.78711C15.1596 3.31759 13.6839 3.00003 12.0002 3Z" fill="#9E9E9E"/>
</g>
</svg>
