<svg width="24" height="24" viewBox="0 0 24 24" fill="none" xmlns="http://www.w3.org/2000/svg">
<g id="icons/Money/finance">
<path id="Union" d="M12 1C18.0751 1 23 5.92487 23 12C23 18.0751 18.0751 23 12 23C5.92487 23 1 18.0751 1 12C1 5.92487 5.92487 1 12 1ZM12 3C7.02943 3 3 7.02943 3 12C3 16.9706 7.02943 21 12 21C16.9706 21 21 16.9706 21 12C21 7.02943 16.9706 3 12 3ZM14.293 6.79297C14.6835 6.40244 15.3165 6.40244 15.707 6.79297C16.0976 7.18349 16.0976 7.81651 15.707 8.20703L13.9141 10H15C15.5523 10 16 10.4477 16 11C16 11.5523 15.5523 12 15 12H13.0039V13H15C15.5523 13 16 13.4477 16 14C16 14.5523 15.5523 15 15 15H13.0039V17C13.0039 17.5523 12.5562 18 12.0039 18C11.4516 18 11.0039 17.5523 11.0039 17V15H9C8.44772 15 8 14.5523 8 14C8 13.4477 8.44772 13 9 13H11.0039V12H9C8.44772 12 8 11.5523 8 11C8 10.4477 8.44772 10 9 10H10.0859L8.29297 8.20703C7.90244 7.81651 7.90244 7.18349 8.29297 6.79297C8.68349 6.40244 9.31651 6.40244 9.70703 6.79297L12 9.08594L14.293 6.79297Z" fill="#9E9E9E"/>
</g>
</svg>
