<svg width="24" height="24" viewBox="0 0 24 24" fill="none" xmlns="http://www.w3.org/2000/svg">
<g id="icons/Money/financing-two">
<path id="Union" d="M20.5 1C21.8807 1 23 2.1193 23 3.5V16.5C23 17.8807 21.8807 19 20.5 19H20V20.5C20 21.8807 18.8807 23 17.5 23H3.5C2.11929 23 1 21.8807 1 20.5V6.5C1 5.11929 2.11929 4 3.5 4H5V3.5C5 2.1193 6.11925 1 7.5 1H20.5ZM3.5 6C3.22386 6 3 6.22386 3 6.5V20.5C3 20.7761 3.22386 21 3.5 21H17.5C17.7761 21 18 20.7761 18 20.5V6.5C18 6.22386 17.7761 6 17.5 6H3.5ZM12.793 7.79297C13.1835 7.40244 13.8165 7.40244 14.207 7.79297C14.5976 8.18349 14.5976 8.81651 14.207 9.20703L11.9141 11.5H14C14.5523 11.5 15 11.9477 15 12.5C15 13.0523 14.5523 13.5 14 13.5H11.5V14.5H14C14.5523 14.5 15 14.9477 15 15.5C15 16.0523 14.5523 16.5 14 16.5H11.5V18C11.5 18.5523 11.0523 19 10.5 19C9.94771 19 9.5 18.5523 9.5 18V16.5H7C6.44772 16.5 6 16.0523 6 15.5C6 14.9477 6.44772 14.5 7 14.5H9.5V13.5H7C6.44772 13.5 6 13.0523 6 12.5C6 11.9477 6.44772 11.5 7 11.5H9.08594L6.79297 9.20703C6.40244 8.81651 6.40244 8.18349 6.79297 7.79297C7.18349 7.40244 7.81651 7.40244 8.20703 7.79297L10.5 10.0859L12.793 7.79297ZM7.5 3C7.22385 3 7 3.22385 7 3.5V4H17.5C18.8807 4 20 5.11929 20 6.5V17H20.5C20.7762 17 21 16.7762 21 16.5V3.5C21 3.22385 20.7762 3 20.5 3H7.5Z" fill="#9E9E9E"/>
</g>
</svg>
