<svg width="24" height="24" viewBox="0 0 24 24" fill="none" xmlns="http://www.w3.org/2000/svg">
<g id="icons/Money/financing">
<path id="Union" d="M12 1C18.0751 1 23 5.92487 23 12C23 18.0751 18.0751 23 12 23C5.92487 23 1 18.0751 1 12C1 5.92487 5.92487 1 12 1ZM12 3C7.02943 3 3 7.02943 3 12C3 16.9706 7.02943 21 12 21C16.9706 21 21 16.9706 21 12C21 7.02943 16.9706 3 12 3ZM10.5859 8.46387C11.367 7.68292 12.633 7.68292 13.4141 8.46387L15.5352 10.585C16.3162 11.366 16.3162 12.633 15.5352 13.4141L13.4141 15.5352C12.6331 16.316 11.3669 16.316 10.5859 15.5352L8.46484 13.4141C7.68379 12.633 7.68379 11.366 8.46484 10.585L10.5859 8.46387ZM9.87891 11.999L12 14.1211L14.1211 11.999L12 9.87793L9.87891 11.999Z" fill="#9E9E9E"/>
</g>
</svg>
