<svg width="24" height="24" viewBox="0 0 24 24" fill="none" xmlns="http://www.w3.org/2000/svg">
<g id="icons/Money/flash-payment">
<path id="Union" d="M15.5 1C15.8079 1.00001 16.0986 1.14206 16.2881 1.38477C16.4775 1.62741 16.5443 1.94354 16.4697 2.24219L15.2803 7H20C20.3977 7.00001 20.758 7.23602 20.917 7.60059C21.0757 7.96507 21.003 8.38931 20.7324 8.68066L7.73242 22.6807C7.42363 23.0129 6.92961 23.0962 6.5293 22.8828C6.12892 22.6693 5.92244 22.2122 6.02637 21.7705L7.7373 14.5H5C4.69033 14.5 4.39835 14.3563 4.20898 14.1113C4.01972 13.8664 3.95424 13.5476 4.03223 13.248L7.03223 1.74805C7.1471 1.30772 7.54494 1 8 1H15.5ZM6.29395 12.5H9C9.30549 12.5 9.59451 12.6394 9.78418 12.8789C9.97385 13.1184 10.0436 13.4321 9.97363 13.7295L8.83887 18.5488L17.707 9H14C13.6921 9 13.4014 8.85794 13.2119 8.61523C13.0225 8.37259 12.9557 8.05646 13.0303 7.75781L14.2197 3H8.77246L6.29395 12.5ZM9.53027 5.25781C9.66421 4.7221 10.2065 4.39648 10.7422 4.53027C11.2779 4.66421 11.6035 5.20648 11.4697 5.74219L10.4697 9.74219C10.3358 10.2779 9.79353 10.6035 9.25781 10.4697C8.72209 10.3358 8.39648 9.79353 8.53027 9.25781L9.53027 5.25781Z" fill="#9E9E9E"/>
</g>
</svg>
