<svg width="24" height="24" viewBox="0 0 24 24" fill="none" xmlns="http://www.w3.org/2000/svg">
<g id="icons/Money/funds">
<path id="Union" d="M7 1.5C8.50219 1.5 9.91151 1.80249 10.9824 2.33789C11.9653 2.82935 12.9403 3.67799 12.9941 4.89453C12.9978 4.9292 13 4.96437 13 5V9.34668C13.0059 9.34373 13.0117 9.34082 13.0176 9.33789C14.0885 8.80249 15.4978 8.5 17 8.5C18.5022 8.5 19.9115 8.80249 20.9824 9.33789C21.9653 9.82935 22.9403 10.678 22.9941 11.8945C22.9978 11.9292 23 11.9644 23 12V19C23 20.2732 21.9935 21.1565 20.9824 21.6621C19.9115 22.1975 18.5022 22.5 17 22.5C15.4978 22.5 14.0885 22.1975 13.0176 21.6621C12.6631 21.4849 12.3102 21.2599 12 20.9893C11.6898 21.2599 11.3369 21.4849 10.9824 21.6621C9.91151 22.1975 8.50218 22.5 7 22.5C5.49781 22.5 4.08849 22.1975 3.01758 21.6621C2.00645 21.1565 1 20.2732 1 19V5C1 4.9644 1.00125 4.92917 1.00488 4.89453C1.05868 3.67797 2.03464 2.82936 3.01758 2.33789C4.08849 1.80249 5.49781 1.5 7 1.5ZM10.9824 18.1621C9.91151 18.6975 8.50218 19 7 19C5.49781 19 4.08849 18.6975 3.01758 18.1621C3.01159 18.1591 3.00598 18.1554 3 18.1523V19C3 19.1075 3.11359 19.4738 3.91211 19.873C4.65081 20.2423 5.741 20.5 7 20.5C8.25899 20.5 9.34919 20.2423 10.0879 19.873C10.8864 19.4738 11 19.1075 11 19V18.1523C10.994 18.1554 10.9884 18.1591 10.9824 18.1621ZM13 19C13 19.1075 13.1136 19.4738 13.9121 19.873C14.6508 20.2423 15.741 20.5 17 20.5C18.259 20.5 19.3492 20.2423 20.0879 19.873C20.8864 19.4738 21 19.1075 21 19V18.1523C20.994 18.1554 20.9884 18.1591 20.9824 18.1621C19.9115 18.6975 18.5022 19 17 19C15.4978 19 14.0885 18.6975 13.0176 18.1621C13.0116 18.1591 13.006 18.1554 13 18.1523V19ZM10.9824 14.6621C9.91151 15.1975 8.50218 15.5 7 15.5C5.49781 15.5 4.08849 15.1975 3.01758 14.6621C3.01159 14.6591 3.00598 14.6554 3 14.6523V15.5C3 15.6075 3.11359 15.9738 3.91211 16.373C4.65081 16.7423 5.741 17 7 17C8.25899 17 9.34919 16.7423 10.0879 16.373C10.8864 15.9738 11 15.6075 11 15.5V14.6523C10.994 14.6554 10.9884 14.6591 10.9824 14.6621ZM20.9824 14.6621C19.9115 15.1975 18.5022 15.5 17 15.5C15.4978 15.5 14.0885 15.1975 13.0176 14.6621C13.0116 14.6591 13.006 14.6554 13 14.6523V15.5C13 15.6075 13.1136 15.9738 13.9121 16.373C14.6508 16.7423 15.741 17 17 17C18.259 17 19.3492 16.7423 20.0879 16.373C20.8864 15.9738 21 15.6075 21 15.5V14.6523C20.994 14.6554 20.9884 14.6591 20.9824 14.6621ZM10.9824 11.1621C9.91151 11.6975 8.50218 12 7 12C5.49781 12 4.08849 11.6975 3.01758 11.1621C3.01159 11.1591 3.00598 11.1554 3 11.1523V12C3 12.1075 3.11359 12.4738 3.91211 12.873C4.65081 13.2423 5.741 13.5 7 13.5C8.25899 13.5 9.34919 13.2423 10.0879 12.873C10.8864 12.4738 11 12.1075 11 12V11.1523C10.994 11.1554 10.9884 11.1591 10.9824 11.1621ZM17 10.5C15.741 10.5 14.6508 10.7577 13.9121 11.127C13.1136 11.5262 13 11.8925 13 12C13 12.1075 13.1136 12.4738 13.9121 12.873C14.6508 13.2423 15.741 13.5 17 13.5C18.259 13.5 19.3492 13.2423 20.0879 12.873C20.8864 12.4738 21 12.1075 21 12C21 11.8925 20.8864 11.5262 20.0879 11.127C19.3492 10.7577 18.259 10.5 17 10.5ZM10.9824 7.66211C9.91151 8.19751 8.50219 8.5 7 8.5C5.49781 8.5 4.08849 8.19751 3.01758 7.66211C3.01159 7.65912 3.00598 7.65536 3 7.65234V8.5C3 8.60752 3.11359 8.97379 3.91211 9.37305C4.65081 9.74234 5.741 10 7 10C8.25899 10 9.34919 9.74234 10.0879 9.37305C10.8864 8.97378 11 8.60752 11 8.5V7.65234C10.994 7.65536 10.9884 7.65912 10.9824 7.66211ZM7 3.5C5.741 3.5 4.65081 3.75766 3.91211 4.12695C3.11359 4.52621 3 4.89247 3 5C3 5.10753 3.11359 5.47379 3.91211 5.87305C4.65081 6.24234 5.741 6.5 7 6.5C8.259 6.5 9.34919 6.24234 10.0879 5.87305C10.8864 5.47379 11 5.10753 11 5C11 4.89247 10.8864 4.52621 10.0879 4.12695C9.34919 3.75766 8.259 3.5 7 3.5Z" fill="#9E9E9E"/>
</g>
</svg>
