<svg width="24" height="24" viewBox="0 0 24 24" fill="none" xmlns="http://www.w3.org/2000/svg">
<g id="icons/Money/gift">
<path id="Union" d="M15.293 1.29297C15.6835 0.902444 16.3165 0.902444 16.707 1.29297C17.0975 1.6835 17.0975 2.31652 16.707 2.70703L14.4141 5H22C22.5523 5 23 5.44772 23 6V10C23 10.5522 22.5523 11 22 11H21.5V22L21.4951 22.1025C21.4746 22.3041 21.3937 22.4877 21.2715 22.6357C21.2307 22.6852 21.1852 22.7307 21.1357 22.7715C20.9629 22.9141 20.7415 23 20.5 23H3.5C3.25845 23 3.03709 22.9141 2.86426 22.7715C2.81478 22.7307 2.76934 22.6852 2.72852 22.6357C2.60635 22.4877 2.52542 22.3041 2.50488 22.1025L2.5 22V11H2C1.44774 11 1.00004 10.5522 1 10V6C1 5.44772 1.44772 5 2 5H9.58594L7.29297 2.70703C6.90246 2.31652 6.90248 1.6835 7.29297 1.29297C7.68349 0.902444 8.31651 0.902444 8.70703 1.29297L12 4.58594L15.293 1.29297ZM4.5 21H11V11H4.5V21ZM13 21H19.5V11H13V21ZM3 9H21V7H3V9Z" fill="#9E9E9E"/>
</g>
</svg>
