<svg width="24" height="24" viewBox="0 0 24 24" fill="none" xmlns="http://www.w3.org/2000/svg">
<g id="icons/Money/gift-box">
<path id="Union" d="M12 1C12.5523 1 13 1.44772 13 2H19.5C20.8807 2 22 3.1193 22 4.5V11C22.5523 11 23 11.4477 23 12C23 12.5523 22.5523 13 22 13V19.5C22 20.8807 20.8807 22 19.5 22H13C13 22.5523 12.5523 23 12 23C11.4477 23 11 22.5523 11 22H4.5C3.1193 22 2 20.8807 2 19.5V13C1.44772 13 1 12.5523 1 12C1 11.4477 1.44772 11 2 11V4.5C2 3.11929 3.11929 2 4.5 2H11C11 1.44772 11.4477 1 12 1ZM4 19.5C4 19.7762 4.22385 20 4.5 20H11V16.291C10.912 16.4453 10.8262 16.591 10.7432 16.7207C10.6314 16.8952 10.4892 17.1007 10.333 17.2568C9.34165 18.2478 7.73436 18.248 6.74316 17.2568C5.75196 16.2656 5.7522 14.6583 6.74316 13.667C6.89932 13.5108 7.10476 13.3686 7.2793 13.2568C7.40901 13.1738 7.55474 13.088 7.70898 13H4V19.5ZM16.291 13C16.4453 13.088 16.591 13.1738 16.7207 13.2568C16.8952 13.3686 17.1007 13.5108 17.2568 13.667C17.6469 14.0575 17.6471 14.6907 17.2568 15.0811C16.8663 15.4716 16.2323 15.4716 15.8418 15.0811C15.8352 15.0759 15.7801 15.0301 15.6416 14.9414C15.5017 14.8518 15.3195 14.7446 15.1025 14.625C14.8062 14.4616 14.4624 14.2853 14.1074 14.1074C14.2853 14.4624 14.4616 14.8062 14.625 15.1025C14.7447 15.3196 14.8518 15.5026 14.9414 15.6426C15.03 15.7808 15.076 15.8353 15.0811 15.8418C15.4716 16.2323 15.4716 16.8663 15.0811 17.2568C14.6907 17.6472 14.0576 17.647 13.667 17.2568C13.5108 17.1007 13.3686 16.8952 13.2568 16.7207C13.1738 16.591 13.0883 16.4451 13 16.291V20H19.5C19.7762 20 20 19.7762 20 19.5V13H16.291ZM9.8916 14.1074C9.5369 14.2852 9.19357 14.4617 8.89746 14.625C8.68051 14.7446 8.4983 14.8518 8.3584 14.9414C8.20611 15.0389 8.15432 15.0842 8.15723 15.0811C7.94731 15.2914 7.94707 15.6326 8.15723 15.8428C8.36737 16.0529 8.70864 16.0527 8.91895 15.8428C8.91606 15.8454 8.96152 15.7941 9.05859 15.6426C9.14822 15.5026 9.25529 15.3196 9.375 15.1025C9.53833 14.8063 9.71374 14.4623 9.8916 14.1074ZM13 7.70801C13.0879 7.55404 13.1739 7.40881 13.2568 7.2793C13.3686 7.10476 13.5108 6.89932 13.667 6.74316C14.6583 5.75223 16.2656 5.75197 17.2568 6.74316C18.248 7.73437 18.2478 9.34165 17.2568 10.333C17.1007 10.4892 16.8952 10.6314 16.7207 10.7432C16.591 10.8262 16.4453 10.912 16.291 11H20V4.5C20 4.22385 19.7762 4 19.5 4H13V7.70801ZM4.5 4C4.22386 4 4 4.22386 4 4.5V11H7.70898C7.55475 10.912 7.40902 10.8262 7.2793 10.7432C7.10475 10.6314 6.89933 10.4892 6.74316 10.333C6.35297 9.94247 6.35277 9.30937 6.74316 8.91895C7.13358 8.52854 7.76668 8.52873 8.15723 8.91895C8.15351 8.91504 8.20425 8.96048 8.35742 9.05859C8.49738 9.14823 8.68032 9.25527 8.89746 9.375C9.19349 9.53822 9.537 9.71387 9.8916 9.8916C9.71386 9.53703 9.53822 9.19347 9.375 8.89746C9.25537 8.68051 9.14818 8.4983 9.05859 8.3584C8.96081 8.20572 8.91552 8.15404 8.91895 8.15723C8.52876 7.76667 8.52853 7.13358 8.91895 6.74316C9.30936 6.35282 9.94248 6.353 10.333 6.74316C10.4892 6.89932 10.6314 7.10476 10.7432 7.2793C10.8261 7.40881 10.9121 7.55404 11 7.70801V4H4.5ZM15.8428 8.15723C15.6326 7.94708 15.2914 7.94734 15.0811 8.15723C15.0839 8.15464 15.0385 8.20589 14.9414 8.35742C14.8518 8.49736 14.7447 8.68036 14.625 8.89746C14.4617 9.19358 14.2852 9.53689 14.1074 9.8916C14.4623 9.71374 14.8063 9.53833 15.1025 9.375C15.3196 9.25529 15.5026 9.14822 15.6426 9.05859C15.7946 8.96123 15.8457 8.91577 15.8428 8.91895C16.0527 8.70864 16.0529 8.36738 15.8428 8.15723Z" fill="#9E9E9E"/>
</g>
</svg>
