<svg width="24" height="24" viewBox="0 0 24 24" fill="none" xmlns="http://www.w3.org/2000/svg">
<g id="icons/Money/gift-bag">
<path id="Union" d="M9.5 1C10.6835 1 11.7289 1.58811 12.3623 2.4873C12.8333 2.1797 13.3955 2 14 2C15.6569 2 17 3.34315 17 5C17 5.351 16.9369 5.68694 16.8262 6H19.5C20.8807 6 22 7.11929 22 8.5V19.5C22 20.8807 20.8807 22 19.5 22H4.5C3.11929 22 2 20.8807 2 19.5V8.5C2 7.11929 3.11929 6 4.5 6H6.33691C6.12093 5.54536 6 5.03681 6 4.5C6 2.567 7.567 1 9.5 1ZM4 19.5C4 19.7761 4.22386 20 4.5 20H19.5C19.7761 20 20 19.7761 20 19.5V17H4V19.5ZM4.5 8C4.22386 8 4 8.22386 4 8.5V15H20V8.5C20 8.22386 19.7761 8 19.5 8H14.7021L16.1504 9.24121C16.5697 9.60063 16.6182 10.2311 16.2588 10.6504C15.8994 11.0697 15.2689 11.1182 14.8496 10.7588L12 8.31543L9.15039 10.7588C8.73106 11.1182 8.10063 11.0697 7.74121 10.6504C7.38179 10.2311 7.43028 9.60063 7.84961 9.24121L9.29785 8H4.5ZM9.5 3C8.67157 3 8 3.67157 8 4.5C8 5.32843 8.67157 6 9.5 6C10.3284 6 11 5.32843 11 4.5C11 3.67157 10.3284 3 9.5 3ZM14 4C13.4477 4 13 4.44772 13 5C13 5.55228 13.4477 6 14 6C14.5523 6 15 5.55228 15 5C15 4.44772 14.5523 4 14 4Z" fill="#9E9E9E"/>
</g>
</svg>
