<svg width="24" height="24" viewBox="0 0 24 24" fill="none" xmlns="http://www.w3.org/2000/svg">
<g id="icons/Money/heavy-metal">
<path id="Union" d="M5.78699 9.70312C6.32486 9.57779 6.86283 9.91232 6.98816 10.4502C7.11323 10.9879 6.77878 11.5251 6.24109 11.6504L5.32312 11.8633L8.703 15.0605L12.2206 14.5508C12.7371 14.4021 13.2818 14.6889 13.4481 15.2041L14.5907 18.7441C14.6786 19.0163 14.6461 19.3132 14.5009 19.5596C14.3555 19.8058 14.1116 19.9785 13.8309 20.0332L7.99207 21.1709C7.66923 21.2338 7.33542 21.1335 7.10046 20.9033L1.29968 15.2217C1.01082 14.9386 0.921238 14.509 1.07214 14.1338L2.3573 10.9395L2.36414 10.9238C2.37635 10.8948 2.38909 10.8659 2.40417 10.8379L2.40906 10.8301C2.41066 10.8272 2.41231 10.8242 2.41394 10.8213C2.42793 10.7965 2.44257 10.7718 2.45886 10.748C2.46254 10.7427 2.46681 10.7377 2.47058 10.7324C2.48531 10.7118 2.50096 10.6916 2.51746 10.6719C2.52412 10.6639 2.53106 10.6562 2.53796 10.6484C2.54484 10.6407 2.55131 10.6326 2.55847 10.625C2.56766 10.6153 2.57731 10.6059 2.58679 10.5967C2.59537 10.5883 2.60429 10.5803 2.61316 10.5723C2.63315 10.5541 2.65361 10.5368 2.67468 10.5205C2.67726 10.5185 2.6799 10.5166 2.6825 10.5146C2.80255 10.4238 2.93836 10.3625 3.07996 10.333L5.78699 9.70312ZM20.5204 13.1006C21.0028 13.0417 21.4647 13.342 21.6014 13.8184L22.579 17.2236C22.6562 17.493 22.6169 17.7825 22.4706 18.0215C22.3242 18.2604 22.0844 18.4268 21.8094 18.4805L17.1913 19.3818C16.877 19.4431 16.5525 19.3492 16.3182 19.1309C16.0841 18.9124 15.9685 18.5952 16.0077 18.2773L16.451 14.6816L16.4823 14.5283C16.582 14.1801 16.8649 13.9085 17.2264 13.8281L20.4237 13.1172L20.5204 13.1006ZM9.55457 16.958L9.07605 18.9219L12.3407 18.2852L11.8065 16.6309L9.55457 16.958ZM3.17664 14.2598L7.19421 18.1953L7.55261 16.7246L3.66394 13.0479L3.17664 14.2598ZM18.3485 15.627L18.16 17.1543L20.3553 16.7256L19.9384 15.2734L18.3485 15.627ZM10.8817 2.71582C11.1786 2.64636 11.4913 2.71607 11.7303 2.90527L17.5565 7.52051C17.597 7.55181 17.6345 7.58675 17.6698 7.62402L17.6747 7.62891C17.6772 7.6316 17.679 7.63497 17.6815 7.6377C17.7002 7.65814 17.7182 7.67913 17.7352 7.70117C17.7408 7.70835 17.7465 7.71533 17.7518 7.72266C17.8186 7.81426 17.8702 7.91817 17.9032 8.03223L19.0438 11.7031C19.1282 11.975 19.0935 12.2705 18.9471 12.5146C18.8007 12.7587 18.5567 12.9289 18.2772 12.9824L12.8192 14.0254C12.8089 14.0274 12.7983 14.0277 12.788 14.0293C12.7796 14.0306 12.771 14.0311 12.7626 14.0322C12.6035 14.0533 12.444 14.0363 12.2958 13.9834C12.2893 13.9811 12.2827 13.979 12.2762 13.9766C12.2524 13.9675 12.2291 13.9572 12.2059 13.9463C12.1971 13.9421 12.1883 13.938 12.1796 13.9336C12.1586 13.923 12.1382 13.9115 12.118 13.8994C12.1077 13.8932 12.0978 13.8864 12.0878 13.8799C12.0693 13.8679 12.0508 13.856 12.0331 13.8428C12.024 13.836 12.0155 13.8284 12.0067 13.8213C11.9905 13.8083 11.9733 13.7963 11.9579 13.7822L5.62097 8.00488C5.2933 7.70609 5.20137 7.22687 5.39539 6.82812L6.74207 4.06348L6.74402 4.05859C6.78014 3.98549 6.82529 3.91536 6.88074 3.85059C6.88917 3.84075 6.89838 3.8317 6.9071 3.82227C6.9132 3.81567 6.91939 3.80916 6.92566 3.80273C6.94186 3.78613 6.95838 3.77014 6.97546 3.75488C6.98252 3.74858 6.98972 3.74243 6.99695 3.73633C7.00706 3.72781 7.01685 3.719 7.02722 3.71094L7.0614 3.68652C7.06427 3.68448 7.0673 3.68268 7.07019 3.68066C7.09257 3.6651 7.11519 3.65027 7.13855 3.63672C7.14207 3.63467 7.14574 3.63287 7.14929 3.63086C7.17057 3.61886 7.19179 3.60702 7.21375 3.59668C7.22625 3.59076 7.23906 3.58548 7.25183 3.58008C7.26954 3.57262 7.28749 3.56597 7.30554 3.55957C7.31746 3.55532 7.32956 3.55166 7.34167 3.54785C7.3605 3.54197 7.37922 3.536 7.39832 3.53125C7.40321 3.53002 7.40804 3.5285 7.41296 3.52734L10.8817 2.71582ZM14.1259 9.90625L13.8348 11.7939L16.8026 11.2275L16.2567 9.4707L14.1259 9.90625ZM7.52136 7.03027L11.9266 11.0459L12.1385 9.67188L7.97253 6.10254L7.52136 7.03027ZM9.78796 5.02441L13.2997 8.0332L14.6385 7.75977L10.8671 4.77246L9.78796 5.02441Z" fill="#9E9E9E"/>
</g>
</svg>
