<svg width="24" height="24" viewBox="0 0 24 24" fill="none" xmlns="http://www.w3.org/2000/svg">
<g id="icons/Money/history-query">
<path id="Union" d="M19.5 2C20.8807 2 22 3.1193 22 4.5V12C22 12.5523 21.5523 13 21 13C20.4477 13 20 12.5523 20 12V4.5C20 4.22385 19.7762 4 19.5 4H4.5C4.22386 4 4 4.22386 4 4.5V19.5C4 19.7762 4.22385 20 4.5 20H12C12.5523 20 13 20.4477 13 21C13 21.5523 12.5523 22 12 22H4.5C3.1193 22 2 20.8807 2 19.5V4.5C2 3.11929 3.11929 2 4.5 2H19.5ZM16 12C18.2091 12 20 13.7909 20 16C20 16.5838 19.8732 17.1376 19.6484 17.6377L21.625 19.2188C22.0563 19.5638 22.1263 20.1937 21.7812 20.625C21.4362 21.0563 20.8063 21.1263 20.375 20.7812L18.3984 19.2002C17.7301 19.7019 16.9001 20 16 20C13.7909 20 12 18.2091 12 16C12 13.7909 13.7909 12 16 12ZM16 14C14.8954 14 14 14.8954 14 16C14 17.1046 14.8954 18 16 18C17.1046 18 18 17.1046 18 16C18 14.8954 17.1046 14 16 14ZM11 11C11.5523 11 12 11.4477 12 12C12 12.5523 11.5523 13 11 13H7C6.44772 13 6 12.5523 6 12C6 11.4477 6.44772 11 7 11H11ZM17 7C17.5523 7 18 7.44772 18 8C18 8.55228 17.5523 9 17 9H7C6.44772 9 6 8.55228 6 8C6 7.44772 6.44772 7 7 7H17Z" fill="#9E9E9E"/>
</g>
</svg>
