<svg width="24" height="24" viewBox="0 0 24 24" fill="none" xmlns="http://www.w3.org/2000/svg">
<g id="icons/Money/income-one">
<path id="Union" d="M20.5 2.5C21.6046 2.5 22.5 3.39544 22.5 4.5V11C22.5 11.5523 22.0523 12 21.5 12C20.9477 12 20.5 11.5523 20.5 11V4.5H3.5V19.5H14.2354C14.7876 19.5 15.2354 19.9477 15.2354 20.5C15.2354 21.0523 14.7876 21.5 14.2354 21.5H3.5C2.39544 21.5 1.5 20.6046 1.5 19.5V4.5C1.5 3.39543 2.39543 2.5 3.5 2.5H20.5ZM16.793 13.293C17.1835 12.9026 17.8165 12.9025 18.207 13.293C18.5974 13.6835 18.5974 14.3165 18.207 14.707L16.4141 16.5L18.207 18.293C18.5976 18.6835 18.5976 19.3165 18.207 19.707C17.8165 20.0976 17.1835 20.0976 16.793 19.707L14.293 17.207C13.9025 16.8165 13.9025 16.1835 14.293 15.793L16.793 13.293ZM20.793 13.293C21.1835 12.9026 21.8165 12.9025 22.207 13.293C22.5974 13.6835 22.5974 14.3165 22.207 14.707L20.4141 16.5L22.207 18.293C22.5976 18.6835 22.5976 19.3165 22.207 19.707C21.8165 20.0976 21.1835 20.0976 20.793 19.707L18.293 17.207C17.9025 16.8165 17.9025 16.1835 18.293 15.793L20.793 13.293ZM10.7314 6.85938C11.085 6.43519 11.7164 6.37791 12.1406 6.73145C12.5648 7.08502 12.6221 7.71638 12.2686 8.14062L11.1357 9.5H12C12.5523 9.5 13 9.94772 13 10.5C13 11.0523 12.5523 11.5 12 11.5H10V12.5H12C12.5523 12.5 13 12.9477 13 13.5C13 14.0523 12.5523 14.5 12 14.5H10V16.5C10 17.0523 9.55229 17.5 9 17.5C8.44772 17.5 8 17.0523 8 16.5V14.5H6C5.44772 14.5 5 14.0523 5 13.5C5 12.9477 5.44772 12.5 6 12.5H8V11.5H6C5.44772 11.5 5 11.0523 5 10.5C5 9.94772 5.44772 9.5 6 9.5H6.86426L5.73145 8.14062C5.37791 7.71638 5.43519 7.08502 5.85938 6.73145C6.28362 6.37791 6.91498 6.43519 7.26855 6.85938L9 8.93652L10.7314 6.85938Z" fill="#9E9E9E"/>
</g>
</svg>
