<svg width="24" height="24" viewBox="0 0 24 24" fill="none" xmlns="http://www.w3.org/2000/svg">
<g id="icons/Money/income">
<path id="Union" d="M20 2.5C21.3807 2.5 22.5 3.6193 22.5 5V13C22.5 13.5523 22.0523 14 21.5 14C20.9477 14 20.5 13.5523 20.5 13V5C20.5 4.72385 20.2762 4.5 20 4.5H4C3.72386 4.5 3.5 4.72386 3.5 5V19C3.5 19.2762 3.72385 19.5 4 19.5H14.2354C14.7876 19.5 15.2354 19.9477 15.2354 20.5C15.2354 21.0523 14.7876 21.5 14.2354 21.5H4C2.6193 21.5 1.5 20.3807 1.5 19V5C1.5 3.61929 2.61929 2.5 4 2.5H20ZM17.293 13.793C17.6835 13.4026 18.3165 13.4025 18.707 13.793C19.0974 14.1835 19.0974 14.8165 18.707 15.207L17.9141 16H21.5C22.0523 16 22.5 16.4477 22.5 17C22.5 17.5523 22.0523 18 21.5 18H17.9141L18.707 18.793C19.0976 19.1835 19.0976 19.8165 18.707 20.207C18.3165 20.5976 17.6835 20.5976 17.293 20.207L14.793 17.707C14.7654 17.6794 14.7405 17.65 14.7168 17.6201C14.6807 17.5745 14.648 17.5261 14.6201 17.4746C14.6127 17.4609 14.6063 17.4466 14.5996 17.4326C14.5778 17.3873 14.5578 17.3408 14.543 17.292C14.5303 17.2503 14.5218 17.2077 14.5146 17.165C14.5057 17.1113 14.5 17.0563 14.5 17C14.5 16.9203 14.5097 16.8429 14.5273 16.7686C14.5322 16.748 14.5368 16.7273 14.543 16.707C14.5579 16.6583 14.5778 16.6117 14.5996 16.5664C14.6188 16.5266 14.6403 16.4877 14.665 16.4502C14.7024 16.3935 14.7452 16.3408 14.793 16.293L17.293 13.793ZM11.7314 6.85938C12.085 6.43519 12.7164 6.37791 13.1406 6.73145C13.5648 7.08502 13.6221 7.71638 13.2686 8.14062L12.1357 9.5H13C13.5523 9.5 14 9.94772 14 10.5C14 11.0523 13.5523 11.5 13 11.5H11V12.5H13C13.5523 12.5 14 12.9477 14 13.5C14 14.0523 13.5523 14.5 13 14.5H11V16.5C11 17.0523 10.5523 17.5 10 17.5C9.44772 17.5 9 17.0523 9 16.5V14.5H7C6.44772 14.5 6 14.0523 6 13.5C6 12.9477 6.44772 12.5 7 12.5H9V11.5H7C6.44772 11.5 6 11.0523 6 10.5C6 9.94772 6.44772 9.5 7 9.5H7.86426L6.73145 8.14062C6.37791 7.71638 6.43519 7.08502 6.85938 6.73145C7.28362 6.37791 7.91498 6.43519 8.26855 6.85938L10 8.93652L11.7314 6.85938Z" fill="#9E9E9E"/>
</g>
</svg>
