<svg width="24" height="24" viewBox="0 0 24 24" fill="none" xmlns="http://www.w3.org/2000/svg">
<g id="icons/Money/insert-card">
<path id="Union" d="M22 2C22.5523 2 23 2.44772 23 3V9C23 9.55228 22.5523 10 22 10H20.1406L22.9639 20.2344C23.0467 20.5351 22.9848 20.8572 22.7959 21.1055C22.6068 21.3538 22.3122 21.5 22 21.5H2C1.68782 21.5 1.39323 21.3538 1.2041 21.1055C1.01525 20.8572 0.95326 20.5351 1.03613 20.2344L3.85938 10H2C1.44772 10 1 9.55228 1 9V3C1 2.44772 1.44772 2 2 2H22ZM3.31348 19.5H20.6865L17.2383 7H6.76172L3.31348 19.5ZM3 8H4.41113L5.03613 5.73438L5.09375 5.57812C5.25557 5.23014 5.60639 5 6 5H18C18.4499 5 18.8442 5.30071 18.9639 5.73438L19.5889 8H21V4H3V8Z" fill="#9E9E9E"/>
</g>
</svg>
