<svg width="24" height="24" viewBox="0 0 24 24" fill="none" xmlns="http://www.w3.org/2000/svg">
<g id="icons/Money/ios-face-recognition">
<path id="Union" d="M2 16C2.55228 16 3 16.4477 3 17V21H7C7.55228 21 8 21.4477 8 22C8 22.5523 7.55228 23 7 23H2C1.44772 23 1 22.5523 1 22V17C1 16.4477 1.44772 16 2 16ZM22 16C22.5523 16 23 16.4477 23 17V22C23 22.5523 22.5523 23 22 23H17C16.4477 23 16 22.5523 16 22C16 21.4477 16.4477 21 17 21H21V17C21 16.4477 21.4477 16 22 16ZM15.293 16.293C15.6835 15.9024 16.3165 15.9024 16.707 16.293C17.0976 16.6835 17.0976 17.3165 16.707 17.707L16 17L16.7061 17.708L16.6934 17.7207C16.6872 17.7267 16.6791 17.7345 16.6699 17.7432C16.6516 17.7605 16.6269 17.7835 16.5967 17.8105C16.5359 17.8649 16.4507 17.937 16.3428 18.0215C16.1267 18.1906 15.8151 18.4102 15.416 18.6279C14.6182 19.0631 13.4543 19.5 12 19.5C10.5457 19.5 9.38185 19.0631 8.58398 18.6279C8.18489 18.4102 7.87327 18.1906 7.65723 18.0215C7.54927 17.937 7.46412 17.8649 7.40332 17.8105C7.37308 17.7835 7.34841 17.7605 7.33008 17.7432C7.32089 17.7345 7.31278 17.7267 7.30664 17.7207L7.29395 17.708C7.29365 17.7077 7.29289 17.7071 8 17L7.29297 17.707C6.90244 17.3165 6.90244 16.6835 7.29297 16.293C7.68333 15.9026 8.31549 15.9029 8.70605 16.293C8.71128 16.2979 8.72155 16.306 8.73535 16.3184C8.76629 16.346 8.81821 16.3914 8.88965 16.4473C9.03293 16.5594 9.25284 16.7149 9.54102 16.8721C10.1181 17.1869 10.9545 17.5 12 17.5C13.0455 17.5 13.8819 17.1869 14.459 16.8721C14.7472 16.7149 14.9671 16.5594 15.1104 16.4473C15.1818 16.3914 15.2337 16.346 15.2646 16.3184C15.278 16.3064 15.2876 16.298 15.293 16.293ZM12 6C12.5523 6 13 6.44772 13 7V11.5C13 12.3252 12.5974 13.0667 12.082 13.582C11.5667 14.0974 10.8252 14.5 10 14.5H9.5C8.94772 14.5 8.5 14.0523 8.5 13.5C8.5 12.9477 8.94772 12.5 9.5 12.5H10C10.1748 12.5 10.4333 12.4026 10.668 12.168C10.9026 11.9333 11 11.6748 11 11.5V7C11 6.44772 11.4477 6 12 6ZM7 6C7.55228 6 8 6.44772 8 7V8C8 8.55228 7.55228 9 7 9C6.44772 9 6 8.55228 6 8V7C6 6.44772 6.44772 6 7 6ZM17 6C17.5523 6 18 6.44772 18 7V8C18 8.55228 17.5523 9 17 9C16.4477 9 16 8.55228 16 8V7C16 6.44772 16.4477 6 17 6ZM7 1C7.55228 1 8 1.44772 8 2C8 2.55228 7.55228 3 7 3H3V7C3 7.55228 2.55228 8 2 8C1.44772 8 1 7.55228 1 7V2C1 1.44772 1.44772 1 2 1H7ZM22 1C22.5523 1 23 1.44772 23 2V7C23 7.55228 22.5523 8 22 8C21.4477 8 21 7.55228 21 7V3H17C16.4477 3 16 2.55228 16 2C16 1.44772 16.4477 1 17 1H22Z" fill="#9E9E9E"/>
</g>
</svg>
