<svg width="24" height="24" viewBox="0 0 24 24" fill="none" xmlns="http://www.w3.org/2000/svg">
<g id="icons/Money/ipo">
<path id="Union" d="M22 2.5C22.5523 2.5 23 2.94772 23 3.5V9.15625C23 9.57906 22.7342 9.95663 22.3359 10.0986C21.6665 10.3372 21.1816 10.9844 21.1816 11.75C21.1816 12.5156 21.6665 13.1628 22.3359 13.4014C22.7342 13.5434 23 13.9209 23 14.3438V20C23 20.5523 22.5523 21 22 21H2C1.44772 21 1 20.5523 1 20V14.3438L1.01172 14.1875C1.06803 13.8301 1.31557 13.5256 1.66406 13.4014C2.33345 13.1628 2.81836 12.5156 2.81836 11.75C2.81836 10.9844 2.33345 10.3372 1.66406 10.0986C1.26583 9.95663 1 9.57906 1 9.15625V3.5C1 2.94772 1.44772 2.5 2 2.5H22ZM3 8.53125C4.08987 9.18678 4.81836 10.3833 4.81836 11.75C4.81836 13.1165 4.08963 14.3122 3 14.9678V19H21V14.9678C19.9104 14.3122 19.1816 13.1165 19.1816 11.75C19.1816 10.3833 19.9101 9.18677 21 8.53125V4.5H3V8.53125ZM6.5 8C7.05228 8 7.5 8.44772 7.5 9V14.5C7.5 15.0523 7.05228 15.5 6.5 15.5C5.94772 15.5 5.5 15.0523 5.5 14.5V9C5.5 8.44772 5.94772 8 6.5 8ZM10.5 8C11.8807 8 13 9.11927 13 10.5C13 11.8807 11.8807 13 10.5 13H10V14.5C10 15.0523 9.55229 15.5 9 15.5C8.44772 15.5 8 15.0523 8 14.5V9C8 8.44772 8.44772 8 9 8H10.5ZM16 8.5C16.9034 8.5 17.5504 9.10516 17.918 9.71777C18.2975 10.3503 18.5 11.1596 18.5 12C18.5 12.8404 18.2975 13.6497 17.918 14.2822C17.5504 14.8948 16.9034 15.5 16 15.5C15.0966 15.5 14.4496 14.8948 14.082 14.2822C13.7025 13.6497 13.5 12.8404 13.5 12C13.5 11.1596 13.7025 10.3503 14.082 9.71777C14.4496 9.10516 15.0966 8.5 16 8.5ZM16 10.5088C15.9639 10.5304 15.8908 10.5905 15.7969 10.7471C15.6336 11.0194 15.5 11.4599 15.5 12C15.5 12.5401 15.6336 12.9806 15.7969 13.2529C15.8905 13.4089 15.9637 13.4684 16 13.4902C16.0363 13.4684 16.1095 13.4089 16.2031 13.2529C16.3664 12.9806 16.5 12.5401 16.5 12C16.5 11.4599 16.3664 11.0194 16.2031 10.7471C16.1092 10.5905 16.0361 10.5304 16 10.5088ZM10 11H10.5C10.7762 11 11 10.7762 11 10.5C11 10.2238 10.7762 10 10.5 10H10V11Z" fill="#9E9E9E"/>
</g>
</svg>
