<svg width="24" height="24" viewBox="0 0 24 24" fill="none" xmlns="http://www.w3.org/2000/svg">
<g id="icons/Money/mall-bag">
<path id="Union" d="M18.2842 1.50684C18.5551 1.53888 18.8036 1.6809 18.9688 1.90234L21.8018 5.70215C21.8055 5.70723 21.8088 5.71265 21.8125 5.71777C21.8246 5.73457 21.8357 5.75198 21.8467 5.76953C21.8542 5.78146 21.8612 5.79353 21.8682 5.80566C21.8759 5.8192 21.8835 5.83276 21.8906 5.84668C21.8979 5.86088 21.9046 5.87522 21.9111 5.88965C21.9204 5.91012 21.9287 5.93097 21.9365 5.95215C21.9398 5.96096 21.9433 5.96965 21.9463 5.97852C21.952 5.99525 21.9571 6.01217 21.9619 6.0293C21.9675 6.04906 21.9723 6.0689 21.9766 6.08887C21.9782 6.09666 21.98 6.10444 21.9814 6.1123C21.9857 6.13472 21.9895 6.15713 21.9922 6.17969C21.9939 6.19424 21.995 6.20889 21.9961 6.22363C21.9975 6.2422 21.9987 6.26072 21.999 6.2793C21.9992 6.28612 22 6.29295 22 6.2998V20.5C21.9999 21.6045 21.1045 22.5 20 22.5H4C2.89551 22.5 2.00011 21.6045 2 20.5V6.2998C2 6.29295 2.00084 6.28612 2.00098 6.2793C2.00134 6.26074 2.00153 6.24218 2.00293 6.22363C2.00404 6.20891 2.0051 6.19423 2.00684 6.17969C2.00954 6.15715 2.01332 6.1347 2.01758 6.1123C2.01907 6.10445 2.02079 6.09666 2.02246 6.08887C2.02675 6.06892 2.03157 6.04904 2.03711 6.0293C2.04191 6.01219 2.04706 5.99524 2.05273 5.97852C2.05574 5.96965 2.05923 5.96095 2.0625 5.95215C2.07035 5.93099 2.07868 5.9101 2.08789 5.88965C2.09439 5.87523 2.10116 5.86087 2.1084 5.84668C2.11548 5.83277 2.12315 5.81919 2.13086 5.80566C2.13786 5.79339 2.14574 5.7816 2.15332 5.76953C2.16423 5.75214 2.17459 5.73442 2.18652 5.71777C2.19031 5.71249 2.19434 5.70738 2.19824 5.70215L5.03125 1.90234C5.21992 1.64931 5.51739 1.50011 5.83301 1.5H18.167L18.2842 1.50684ZM4 20.5H20V7.2998H4V20.5ZM15.7773 8.59961C16.3296 8.59967 16.7773 9.04736 16.7773 9.59961C16.7773 12.2451 14.6432 14.3994 11.999 14.3994C9.35504 14.3992 7.22168 12.2449 7.22168 9.59961C7.22168 9.04732 7.66939 8.59961 8.22168 8.59961C8.77396 8.59961 9.22168 9.04732 9.22168 9.59961C9.22168 11.1514 10.4706 12.3992 11.999 12.3994C13.5276 12.3994 14.7773 11.1516 14.7773 9.59961C14.7773 9.04732 15.2251 8.59961 15.7773 8.59961ZM4.99316 5.2998H19.0068L17.665 3.5H6.33496L4.99316 5.2998Z" fill="#9E9E9E"/>
</g>
</svg>
