<svg width="24" height="24" viewBox="0 0 24 24" fill="none" xmlns="http://www.w3.org/2000/svg">
<g id="icons/Money/medication-time">
<path id="Union" d="M14.5 1.5C16.1569 1.5 17.5 2.84315 17.5 4.5V5.5C17.5 5.86137 17.4325 6.2065 17.3154 6.52734C18.2699 6.67876 19 7.50288 19 8.5V12.208C21.3084 12.861 23 14.9825 23 17.5C23 20.5376 20.5376 23 17.5 23C15.7922 23 14.2666 22.2213 13.2578 21H4C2.89544 21 2 20.1046 2 19V8.5C2 7.50321 2.72957 6.67916 3.68359 6.52734C3.56656 6.20659 3.5 5.86125 3.5 5.5V4.5C3.5 2.84315 4.84315 1.5 6.5 1.5H14.5ZM17.5 14C15.567 14 14 15.567 14 17.5C14 19.433 15.567 21 17.5 21C19.433 21 21 19.433 21 17.5C21 15.567 19.433 14 17.5 14ZM4 19H12.208C12.0731 18.5231 12 18.0201 12 17.5C12 14.631 14.1968 12.2761 17 12.0234V8.5H4V19ZM17 15C17.5523 15 18 15.4477 18 16V17H19C19.5523 17 20 17.4477 20 18C20 18.5523 19.5523 19 19 19H17C16.4477 19 16 18.5523 16 18V16C16 15.4477 16.4477 15 17 15ZM6.5 3.5C5.94772 3.5 5.5 3.94772 5.5 4.5V5.5C5.5 6.05228 5.94772 6.5 6.5 6.5V3.5ZM8.5 6.5H9.5V3.5H8.5V6.5ZM11.5 6.5H12.5V3.5H11.5V6.5ZM14.5 6.5C15.0523 6.5 15.5 6.05228 15.5 5.5V4.5C15.5 3.94772 15.0523 3.5 14.5 3.5V6.5Z" fill="#9E9E9E"/>
</g>
</svg>
