<svg width="24" height="24" viewBox="0 0 24 24" fill="none" xmlns="http://www.w3.org/2000/svg">
<g id="icons/Money/open-an-account">
<path id="Union" d="M19.5254 15.5C20.0777 15.5 20.5254 15.9477 20.5254 16.5V17.9746H22C22.5523 17.9746 23 18.4223 23 18.9746C23 19.5269 22.5523 19.9746 22 19.9746H20.5254V21.5C20.5254 22.0523 20.0777 22.5 19.5254 22.5C18.9731 22.5 18.5254 22.0523 18.5254 21.5V19.9746H17C16.4477 19.9746 16 19.5269 16 18.9746C16 18.4223 16.4477 17.9746 17 17.9746H18.5254V16.5C18.5254 15.9477 18.9731 15.5 19.5254 15.5ZM19.5 2C20.8807 2 22 3.1193 22 4.5V12C22 12.5523 21.5523 13 21 13C20.4477 13 20 12.5523 20 12V4.5C20 4.22385 19.7762 4 19.5 4H4.5C4.22386 4 4 4.22386 4 4.5V19.5C4 19.7762 4.22385 20 4.5 20H12C12.5523 20 13 20.4477 13 21C13 21.5523 12.5523 22 12 22H4.5C3.1193 22 2 20.8807 2 19.5V4.5C2 3.11929 3.11929 2 4.5 2H19.5ZM12 5.5C13.933 5.5 15.5 7.067 15.5 9C15.5 9.82012 15.2166 10.5733 14.7441 11.1699C16.3635 12.0164 17.5 13.595 17.5 15.5C17.5 16.0523 17.0523 16.5 16.5 16.5C15.9477 16.5 15.5 16.0523 15.5 15.5C15.5 13.9506 14.047 12.5 12 12.5C9.953 12.5 8.5 13.9506 8.5 15.5C8.5 16.0523 8.05228 16.5 7.5 16.5C6.94772 16.5 6.5 16.0523 6.5 15.5C6.5 13.5953 7.63598 12.0165 9.25488 11.1699C8.78268 10.5734 8.5 9.81991 8.5 9C8.5 7.067 10.067 5.5 12 5.5ZM12 7.5C11.1716 7.5 10.5 8.17157 10.5 9C10.5 9.82843 11.1716 10.5 12 10.5C12.8284 10.5 13.5 9.82843 13.5 9C13.5 8.17157 12.8284 7.5 12 7.5Z" fill="#9E9E9E"/>
</g>
</svg>
