<svg width="24" height="24" viewBox="0 0 24 24" fill="none" xmlns="http://www.w3.org/2000/svg">
<g id="icons/Money/optional">
<path id="Union" d="M19.5 2C20.8807 2 22 3.1193 22 4.5V19.5C22 20.8807 20.8807 22 19.5 22H4.5C3.1193 22 2 20.8807 2 19.5V4.5C2 3.11929 3.11929 2 4.5 2H19.5ZM4.5 4C4.22386 4 4 4.22386 4 4.5V19.5C4 19.7762 4.22385 20 4.5 20H19.5C19.7762 20 20 19.7762 20 19.5V4.5C20 4.22385 19.7762 4 19.5 4H4.5ZM16.293 8.79297C16.6835 8.40244 17.3165 8.40244 17.707 8.79297C18.0976 9.18349 18.0976 9.81651 17.707 10.207L13.707 14.207C13.4866 14.4274 13.1761 14.5326 12.8672 14.4912C12.5583 14.4498 12.2865 14.2667 12.1318 13.9961L10.7812 11.6318L7.70703 14.707C7.31651 15.0976 6.68349 15.0976 6.29297 14.707C5.90244 14.3165 5.90244 13.6835 6.29297 13.293L10.293 9.29297L10.3799 9.21582C10.5912 9.04872 10.8626 8.9726 11.1328 9.00879C11.4417 9.05018 11.7135 9.23332 11.8682 9.50391L13.2178 11.8672L16.293 8.79297Z" fill="#9E9E9E"/>
</g>
</svg>
