<svg width="24" height="24" viewBox="0 0 24 24" fill="none" xmlns="http://www.w3.org/2000/svg">
<g id="icons/Money/paper-money">
<path id="Union" d="M19.5 2.5C21.433 2.5 23 4.067 23 6V18C23 19.933 21.433 21.5 19.5 21.5H4.5C2.567 21.5 1 19.933 1 18V6C1 4.06701 2.56701 2.5 4.5 2.5H19.5ZM4.5 4.5C3.67157 4.5 3 5.17157 3 6V18C3 18.8284 3.67158 19.5 4.5 19.5H19.5C20.3284 19.5 21 18.8284 21 18V6C21 5.17158 20.3284 4.5 19.5 4.5H4.5ZM14.293 6.79297C14.6835 6.40244 15.3165 6.40244 15.707 6.79297C16.0976 7.18349 16.0976 7.81651 15.707 8.20703L13.4141 10.5H15.5C16.0523 10.5 16.5 10.9477 16.5 11.5C16.5 12.0523 16.0523 12.5 15.5 12.5H13V13.5H15.5C16.0523 13.5 16.5 13.9477 16.5 14.5C16.5 15.0523 16.0523 15.5 15.5 15.5H13V17C13 17.5523 12.5523 18 12 18C11.4477 18 11 17.5523 11 17V15.5H8.5C7.94772 15.5 7.5 15.0523 7.5 14.5C7.5 13.9477 7.94772 13.5 8.5 13.5H11V12.5H8.5C7.94772 12.5 7.5 12.0523 7.5 11.5C7.5 10.9477 7.94772 10.5 8.5 10.5H10.5859L8.29297 8.20703C7.90244 7.81651 7.90244 7.18349 8.29297 6.79297C8.68349 6.40244 9.31651 6.40244 9.70703 6.79297L12 9.08594L14.293 6.79297Z" fill="#9E9E9E"/>
</g>
</svg>
