<svg width="24" height="24" viewBox="0 0 24 24" fill="none" xmlns="http://www.w3.org/2000/svg">
<g id="icons/Money/paper-money-two">
<path id="Union" d="M22 5.5C22.5523 5.5 23 5.94772 23 6.5V18.5C23 19.0523 22.5523 19.5 22 19.5H2C1.44772 19.5 1 19.0523 1 18.5V6.5C1 5.94772 1.44772 5.5 2 5.5H22ZM3 17.5H4.82617C4.52483 16.6484 3.85162 15.9752 3 15.6738V17.5ZM6.89941 7.5C6.5017 9.45905 4.95904 11.0017 3 11.3994V13.5996C4.95913 13.9973 6.50169 15.5409 6.89941 17.5H17.1006C17.4983 15.5409 19.0409 13.9973 21 13.5996V11.3994C19.041 11.0017 17.4983 9.45905 17.1006 7.5H6.89941ZM21 15.6738C20.1484 15.9752 19.4752 16.6484 19.1738 17.5H21V15.6738ZM12 8.5C14.096 8.5 15.5 10.4693 15.5 12.5C15.5 14.5307 14.096 16.5 12 16.5C9.90405 16.5 8.5 14.5307 8.5 12.5C8.5 10.4693 9.90405 8.5 12 8.5ZM12 10.5C11.3346 10.5 10.5 11.217 10.5 12.5C10.5 13.783 11.3346 14.5 12 14.5C12.6654 14.5 13.5 13.783 13.5 12.5C13.5 11.217 12.6654 10.5 12 10.5ZM3 9.3252C3.85148 9.0238 4.52487 8.35152 4.82617 7.5H3V9.3252ZM19.1738 7.5C19.4751 8.35153 20.1485 9.0238 21 9.3252V7.5H19.1738Z" fill="#9E9E9E"/>
</g>
</svg>
