<svg width="24" height="24" viewBox="0 0 24 24" fill="none" xmlns="http://www.w3.org/2000/svg">
<g id="icons/Money/pay-code-two">
<path id="Union" d="M3 15C3.55228 15 4 15.4477 4 16V20H8C8.55228 20 9 20.4477 9 21C9 21.5523 8.55228 22 8 22H4C2.89544 22 2 21.1046 2 20V16C2 15.4477 2.44772 15 3 15ZM21 15C21.5523 15 22 15.4477 22 16V20C22 21.1046 21.1046 22 20 22H16C15.4477 22 15 21.5523 15 21C15 20.4477 15.4477 20 16 20H20V16C20 15.4477 20.4477 15 21 15ZM8 7C8.55228 7 9 7.44772 9 8V16C9 16.5523 8.55228 17 8 17C7.44772 17 7 16.5523 7 16V8C7 7.44772 7.44772 7 8 7ZM12 7C12.5523 7 13 7.44772 13 8V16C13 16.5523 12.5523 17 12 17C11.4477 17 11 16.5523 11 16V8C11 7.44772 11.4477 7 12 7ZM16 7C16.5523 7 17 7.44772 17 8V16C17 16.5523 16.5523 17 16 17C15.4477 17 15 16.5523 15 16V8C15 7.44772 15.4477 7 16 7ZM8 2C8.55228 2 9 2.44772 9 3C9 3.55228 8.55228 4 8 4H4V8C4 8.55228 3.55228 9 3 9C2.44772 9 2 8.55228 2 8V4C2 2.89543 2.89543 2 4 2H8ZM20 2C21.1046 2 22 2.89544 22 4V8C22 8.55228 21.5523 9 21 9C20.4477 9 20 8.55228 20 8V4H16C15.4477 4 15 3.55228 15 3C15 2.44772 15.4477 2 16 2H20Z" fill="#9E9E9E"/>
</g>
</svg>
