<svg width="24" height="24" viewBox="0 0 24 24" fill="none" xmlns="http://www.w3.org/2000/svg">
<g id="icons/Money/payment-method">
<path id="Union" d="M21 12C21.5523 12 22 12.4477 22 13V21C21.9998 21.5522 21.5522 22 21 22H11C10.4478 22 10.0002 21.5522 10 21V18.0752C10 17.5229 10.4477 17.0752 11 17.0752C11.5523 17.0752 12 17.5229 12 18.0752V20H20V14H16.4229C15.8708 13.9999 15.423 13.5521 15.4229 13C15.4229 12.4478 15.8707 12.0001 16.4229 12H21ZM18.293 4.29297C18.6835 3.90244 19.3165 3.90244 19.707 4.29297C20.0974 4.6835 20.0975 5.31655 19.707 5.70703L5.70703 19.707C5.31654 20.0974 4.68346 20.0974 4.29297 19.707C3.90249 19.3166 3.90259 18.6835 4.29297 18.293L18.293 4.29297ZM2.40039 2.2002C2.84221 1.86896 3.46847 1.95861 3.7998 2.40039L6 5.33398L8.2002 2.40039C8.53153 1.95861 9.15779 1.86896 9.59961 2.2002C10.0413 2.53155 10.131 3.15784 9.7998 3.59961L7.99902 6H9.5C10.0523 6 10.5 6.44772 10.5 7C10.4998 7.55216 10.0522 8 9.5 8H7V9H9.5C10.0523 9 10.5 9.44772 10.5 10C10.4998 10.5522 10.0522 11 9.5 11H7V13C6.99985 13.5522 6.55219 14 6 14C5.44781 14 5.00015 13.5522 5 13V11H2.5C1.94781 11 1.50015 10.5522 1.5 10C1.5 9.44772 1.94772 9 2.5 9H5V8H2.5C1.94781 8 1.50015 7.55216 1.5 7C1.5 6.44772 1.94772 6 2.5 6H4.00098L2.2002 3.59961C1.869 3.15784 1.95873 2.53155 2.40039 2.2002Z" fill="#9E9E9E"/>
</g>
</svg>
