<svg width="24" height="24" viewBox="0 0 24 24" fill="none" xmlns="http://www.w3.org/2000/svg">
<g id="icons/Money/red-envelopes">
<path id="Union" d="M20 1C20.5523 1 21 1.44772 21 2V22C21 22.5523 20.5523 23 20 23H4C3.44772 23 3 22.5523 3 22V2C3 1.44772 3.44772 1 4 1H20ZM5 21H19V7.93945C17.7906 9.33695 16.5629 10.382 15.2432 11.0508C15.2472 11.1167 15.25 11.1831 15.25 11.25C15.25 13.0449 13.7949 14.5 12 14.5C10.2051 14.5 8.75 13.0449 8.75 11.25C8.75 11.1606 8.75366 11.072 8.76074 10.9844C7.44798 10.3227 6.21535 9.30318 5 7.91992V21ZM12 10C11.3096 10 10.75 10.5596 10.75 11.25C10.75 11.9404 11.3096 12.5 12 12.5C12.6904 12.5 13.25 11.9404 13.25 11.25C13.25 10.5596 12.6904 10 12 10ZM5 4.55957L9.74219 8.91504C10.327 8.34944 11.1222 8 12 8C13.0086 8 13.9097 8.45962 14.5059 9.18066C15.9363 8.40569 17.3792 6.97291 19 4.68164V3H5V4.55957Z" fill="#9E9E9E"/>
</g>
</svg>
