<svg width="24" height="24" viewBox="0 0 24 24" fill="none" xmlns="http://www.w3.org/2000/svg">
<g id="icons/Money/red-envelope">
<path id="Union" d="M19.5 7.5C20.0523 7.5 20.5 7.94772 20.5 8.5V22C20.5 22.5523 20.0523 23 19.5 23H4.5C3.94772 23 3.5 22.5523 3.5 22V8.5C3.5 7.94772 3.94772 7.5 4.5 7.5C5.05228 7.5 5.5 7.94772 5.5 8.5V21H18.5V8.5C18.5 7.94772 18.9477 7.5 19.5 7.5ZM13.7314 8.85938C14.085 8.43519 14.7164 8.37791 15.1406 8.73145C15.5648 9.08502 15.6221 9.71638 15.2686 10.1406L14.1357 11.5H15C15.5523 11.5 16 11.9477 16 12.5C16 13.0523 15.5523 13.5 15 13.5H13V14.5H15C15.5523 14.5 16 14.9477 16 15.5C16 16.0523 15.5523 16.5 15 16.5H13V18.5C13 19.0523 12.5523 19.5 12 19.5C11.4477 19.5 11 19.0523 11 18.5V16.5H9C8.44772 16.5 8 16.0523 8 15.5C8 14.9477 8.44772 14.5 9 14.5H11V13.5H9C8.44772 13.5 8 13.0523 8 12.5C8 11.9477 8.44772 11.5 9 11.5H9.86426L8.73145 10.1406C8.37791 9.71638 8.43519 9.08502 8.85938 8.73145C9.28362 8.37791 9.91498 8.43519 10.2686 8.85938L12 10.9365L13.7314 8.85938ZM19.5 1C20.0523 1 20.5 1.44772 20.5 2V5C20.5 5.45297 20.1954 5.849 19.7578 5.96582L12.2578 7.96582C12.089 8.01084 11.911 8.01084 11.7422 7.96582L4.24219 5.96582C3.80456 5.849 3.5 5.45297 3.5 5V2C3.5 1.44772 3.94772 1 4.5 1H19.5ZM5.5 4.23145L12 5.96484L18.5 4.23145V3H5.5V4.23145Z" fill="#9E9E9E"/>
</g>
</svg>
