<svg width="24" height="24" viewBox="0 0 24 24" fill="none" xmlns="http://www.w3.org/2000/svg">
<g id="icons/Money/scan-code">
<path id="Union" d="M3 15.5C3.55228 15.5 4 15.9477 4 16.5V20H7.5C8.05228 20 8.5 20.4477 8.5 21C8.5 21.5523 8.05228 22 7.5 22H3C2.44772 22 2 21.5523 2 21V16.5C2 15.9477 2.44772 15.5 3 15.5ZM21 15.5C21.5523 15.5 22 15.9477 22 16.5V21C22 21.5523 21.5523 22 21 22H16.5C15.9477 22 15.5 21.5523 15.5 21C15.5 20.4477 15.9477 20 16.5 20H20V16.5C20 15.9477 20.4477 15.5 21 15.5ZM19 11C19.5523 11 20 11.4477 20 12C20 12.5523 19.5523 13 19 13H5C4.44772 13 4 12.5523 4 12C4 11.4477 4.44772 11 5 11H19ZM7.5 2C8.05228 2 8.5 2.44772 8.5 3C8.5 3.55228 8.05228 4 7.5 4H4V7.5C4 8.05228 3.55228 8.5 3 8.5C2.44772 8.5 2 8.05228 2 7.5V3C2 2.44772 2.44772 2 3 2H7.5ZM21 2C21.5523 2 22 2.44772 22 3V7.5C22 8.05228 21.5523 8.5 21 8.5C20.4477 8.5 20 8.05228 20 7.5V4H16.5C15.9477 4 15.5 3.55228 15.5 3C15.5 2.44772 15.9477 2 16.5 2H21Z" fill="#9E9E9E"/>
</g>
</svg>
