<svg width="24" height="24" viewBox="0 0 24 24" fill="none" xmlns="http://www.w3.org/2000/svg">
<g id="icons/Money/shopping-cart-two">
<path id="Union" d="M9.5 17C10.8807 17 12 18.1193 12 19.5C12 20.8807 10.8807 22 9.5 22C8.11929 22 7 20.8807 7 19.5C7 18.1193 8.11929 17 9.5 17ZM17.5 17C18.8807 17 20 18.1193 20 19.5C20 20.8807 18.8807 22 17.5 22C16.1193 22 15 20.8807 15 19.5C15 18.1193 16.1193 17 17.5 17ZM9.5 19C9.22386 19 9 19.2239 9 19.5C9 19.7761 9.22386 20 9.5 20C9.77614 20 10 19.7761 10 19.5C10 19.2239 9.77614 19 9.5 19ZM17.5 19C17.2239 19 17 19.2239 17 19.5C17 19.7761 17.2239 20 17.5 20C17.7761 20 18 19.7761 18 19.5C18 19.2239 17.7761 19 17.5 19ZM5.64941 2.51172C5.99298 2.56357 6.28976 2.79122 6.4248 3.11914L9.66992 11H17.1504L20.6182 4.52734C20.879 4.04066 21.4859 3.8574 21.9727 4.11816C22.4593 4.37902 22.6426 4.98589 22.3818 5.47266L18.6318 12.4727C18.4577 12.7975 18.1186 13 17.75 13H9.53516L8.86816 14H20C20.5523 14 21 14.4477 21 15C21 15.5523 20.5523 16 20 16H7C6.6312 16 6.29218 15.7968 6.11816 15.4717C5.94426 15.1466 5.96344 14.7521 6.16797 14.4453L7.87207 11.8877L4.83008 4.5H2.5C1.94772 4.5 1.5 4.05228 1.5 3.5C1.5 2.94772 1.94772 2.5 2.5 2.5H5.5L5.64941 2.51172ZM13.5 2C14.0523 2 14.5 2.44772 14.5 3V5H16.5C17.0523 5 17.5 5.44772 17.5 6C17.5 6.55228 17.0523 7 16.5 7H14.5V9C14.5 9.55228 14.0523 10 13.5 10C12.9477 10 12.5 9.55228 12.5 9V7H10.5C9.94771 7 9.5 6.55228 9.5 6C9.5 5.44772 9.94771 5 10.5 5H12.5V3C12.5 2.44772 12.9477 2 13.5 2Z" fill="#9E9E9E"/>
</g>
</svg>
