<svg width="24" height="24" viewBox="0 0 24 24" fill="none" xmlns="http://www.w3.org/2000/svg">
<g id="icons/Money/shopping-bag">
<path id="Union" d="M11.9999 1.5C15.3414 1.5 17.9858 4.1676 18.4325 7.5H21.4999C21.7929 7.5 22.0716 7.62843 22.2616 7.85156C22.4515 8.07463 22.5338 8.36997 22.4872 8.65918L20.3866 21.6592C20.3084 22.1435 19.8908 22.4998 19.4003 22.5H4.59949C4.10896 22.4998 3.69139 22.1435 3.61316 21.6592L1.51257 8.65918C1.46595 8.36999 1.54829 8.07462 1.73816 7.85156C1.92814 7.62843 2.20683 7.50002 2.49988 7.5H5.56726C6.01399 4.16762 8.65842 1.50004 11.9999 1.5ZM5.45105 20.5H18.5487L20.3251 9.5H3.67468L5.45105 20.5ZM14.1708 15.9404C14.4782 15.4848 15.0966 15.3627 15.5546 15.668C16.0141 15.9743 16.1383 16.5952 15.8319 17.0547L14.9999 16.5C15.7768 17.018 15.8278 17.053 15.8309 17.0557V17.0566L15.83 17.0576C15.8292 17.0588 15.8279 17.0602 15.827 17.0615C15.8252 17.0642 15.8235 17.0679 15.8212 17.0713C15.8164 17.0783 15.8105 17.0869 15.8036 17.0967C15.7897 17.1162 15.7715 17.1413 15.7489 17.1709C15.7038 17.2301 15.6402 17.3076 15.5594 17.3984C15.3987 17.5793 15.1625 17.815 14.8495 18.0498C14.2203 18.5216 13.2652 19 11.9999 19C10.7345 19 9.77943 18.5216 9.15027 18.0498C8.83721 17.815 8.60109 17.5793 8.44031 17.3984C8.3596 17.3076 8.29593 17.2301 8.25085 17.1709C8.2283 17.1413 8.21005 17.1162 8.19617 17.0967C8.18924 17.0869 8.18338 17.0782 8.17859 17.0713C8.17624 17.0679 8.17456 17.0642 8.17273 17.0615C8.17184 17.0602 8.17056 17.0587 8.1698 17.0576L8.16882 17.0566V17.0557C8.17151 17.0533 8.21884 17.0207 8.99988 16.5L8.16785 17.0547C7.86154 16.5952 7.98572 15.9743 8.44519 15.668C8.90456 15.3617 9.52447 15.4862 9.83093 15.9453V15.9443L9.82898 15.9404L9.84265 15.958C9.86007 15.9809 9.89021 16.0205 9.93445 16.0703C10.0236 16.1706 10.1627 16.3101 10.3495 16.4502C10.7203 16.7283 11.2654 17 11.9999 17C12.7343 17 13.2794 16.7283 13.6503 16.4502C13.8371 16.3101 13.9761 16.1706 14.0653 16.0703C14.1095 16.0205 14.1397 15.9809 14.1571 15.958L14.1708 15.9404ZM8.49988 12C9.05216 12 9.49988 12.4477 9.49988 13C9.49988 13.5523 9.05216 14 8.49988 14C7.94763 14 7.49988 13.5523 7.49988 13C7.49988 12.4477 7.94763 12 8.49988 12ZM15.4999 12C16.0522 12 16.4999 12.4477 16.4999 13C16.4999 13.5523 16.0522 14 15.4999 14C14.9476 14 14.4999 13.5523 14.4999 13C14.4999 12.4477 14.9476 12 15.4999 12ZM11.9999 3.5C9.88588 3.50004 8.01247 5.16501 7.58972 7.5H16.41C15.9873 5.16499 14.1139 3.5 11.9999 3.5Z" fill="#9E9E9E"/>
</g>
</svg>
