<svg width="24" height="24" viewBox="0 0 24 24" fill="none" xmlns="http://www.w3.org/2000/svg">
<g id="icons/Money/shopping-bag-one">
<path id="Union" d="M12 1C14.2091 1 16 2.79086 16 5H17.5C18.8807 5 20 6.11929 20 7.5V19.5C20 20.8807 18.8807 22 17.5 22H6.5C5.11929 22 4 20.8807 4 19.5V7.5C4 6.11929 5.11929 5 6.5 5H8C8 2.79086 9.79087 1 12 1ZM6.5 7C6.22386 7 6 7.22386 6 7.5V19.5C6 19.7761 6.22386 20 6.5 20H17.5C17.7761 20 18 19.7761 18 19.5V7.5C18 7.22386 17.7761 7 17.5 7H16V9C16 9.55229 15.5523 10 15 10C14.4477 10 14 9.55229 14 9V7H10V9C10 9.55229 9.55228 10 9 10C8.44772 10 8 9.55229 8 9V7H6.5ZM12 3C10.8954 3 10 3.89543 10 5H14C14 3.89543 13.1046 3 12 3Z" fill="#9E9E9E"/>
</g>
</svg>
