<svg width="24" height="24" viewBox="0 0 24 24" fill="none" xmlns="http://www.w3.org/2000/svg">
<g id="icons/Money/shopping-cart-one">
<path id="Union" d="M10.25 19C11.2165 19 12 19.7835 12 20.75C12 21.7165 11.2165 22.5 10.25 22.5C9.28354 22.5 8.5 21.7165 8.5 20.75C8.50005 19.7836 9.28357 19 10.25 19ZM18.75 19C19.7165 19 20.5 19.7835 20.5 20.75C20.5 21.7165 19.7165 22.5 18.75 22.5C17.7835 22.5 17 21.7165 17 20.75C17 19.7836 17.7836 19 18.75 19ZM1.66797 2.44531C1.9743 1.98583 2.59518 1.86171 3.05469 2.16797L7.55469 5.16797L7.63184 5.22461C7.80416 5.36502 7.9259 5.55979 7.97559 5.77832L10.2988 16H18.752L19.3398 14H12.5C11.9478 14 11.5 13.5523 11.5 13C11.5 12.4478 11.9478 12 12.5 12H19.9287L20.6641 9.5H12.5C11.9478 9.49995 11.5 9.05226 11.5 8.5C11.5 7.94779 11.9478 7.50005 12.5 7.5H22C22.3151 7.5 22.612 7.64909 22.8008 7.90137C22.9894 8.15364 23.0478 8.48003 22.959 8.78223L20.459 17.2822C20.3338 17.7077 19.9436 18 19.5 18H9.5C9.03314 18 8.62788 17.6769 8.52441 17.2217L6.1123 6.60938L1.94531 3.83203C1.48587 3.52565 1.36164 2.90481 1.66797 2.44531Z" fill="#9E9E9E"/>
</g>
</svg>
