<svg width="24" height="24" viewBox="0 0 24 24" fill="none" xmlns="http://www.w3.org/2000/svg">
<g id="icons/Money/shopping-cart-del">
<path id="Union" d="M6.5 17C7.88071 17 9 18.1193 9 19.5C9 20.8807 7.88071 22 6.5 22C5.11929 22 4 20.8807 4 19.5C4 18.1193 5.11929 17 6.5 17ZM19.5 17C20.8807 17 22 18.1193 22 19.5C22 20.8807 20.8807 22 19.5 22C18.1193 22 17 20.8807 17 19.5C17 18.1193 18.1193 17 19.5 17ZM6.5 19C6.22386 19 6 19.2239 6 19.5C6 19.7761 6.22386 20 6.5 20C6.77614 20 7 19.7761 7 19.5C7 19.2239 6.77614 19 6.5 19ZM19.5 19C19.2239 19 19 19.2239 19 19.5C19 19.7761 19.2239 20 19.5 20C19.7761 20 20 19.7761 20 19.5C20 19.2239 19.7761 19 19.5 19ZM3.41895 2.01465C3.80437 2.08055 4.12236 2.36834 4.21973 2.75781L4.78027 5H22L22.1143 5.00684C22.3789 5.03726 22.6222 5.17233 22.7881 5.38477C22.9775 5.62741 23.0443 5.94354 22.9697 6.24219L20.4697 16.2422C20.3584 16.6874 19.9589 17 19.5 17H6.5C6.04113 17 5.64157 16.6874 5.53027 16.2422L2.46973 4H1.5C0.947715 4 0.5 3.55228 0.5 3C0.5 2.44772 0.947715 2 1.5 2H3.25L3.41895 2.01465Z" fill="#9E9E9E"/>
</g>
</svg>
