<svg width="24" height="24" viewBox="0 0 24 24" fill="none" xmlns="http://www.w3.org/2000/svg">
<g id="icons/Money/shoulder-bag">
<path id="Union" d="M11.9996 2C12.3397 2 12.6564 2.17307 12.8405 2.45898L17.0455 9H20.1852C21.7542 9.00012 22.9351 10.4287 22.6403 11.9697L21.109 19.9697C20.8835 21.1478 19.8534 22 18.6539 22H5.34436C4.14516 21.9997 3.11472 21.1476 2.88928 19.9697L1.35803 11.9697C1.06332 10.4289 2.24449 9.00052 3.81311 9H6.95374L11.1588 2.45898L11.233 2.35742C11.4215 2.13249 11.7019 2.00012 11.9996 2ZM3.81311 11C3.49977 11.0005 3.26409 11.2859 3.32288 11.5938L4.85315 19.5938C4.89821 19.8292 5.10477 19.9997 5.34436 20H18.6539C18.8938 20 19.1 19.8294 19.1451 19.5938L20.6764 11.5938C20.7352 11.2857 20.4988 11.0001 20.1852 11H3.81311ZM11.9996 13C13.3803 13 14.4996 14.1193 14.4996 15.5C14.4996 16.8807 13.3803 18 11.9996 18C10.6191 17.9998 9.49963 16.8806 9.49963 15.5C9.49963 14.1194 10.6191 13.0002 11.9996 13ZM11.9996 15C11.7237 15.0002 11.4996 15.224 11.4996 15.5C11.4996 15.776 11.7237 15.9998 11.9996 16C12.2758 16 12.4996 15.7761 12.4996 15.5C12.4996 15.2239 12.2758 15 11.9996 15ZM9.33069 9H14.6686L11.9996 4.84863L9.33069 9Z" fill="#9E9E9E"/>
</g>
</svg>
