<svg width="24" height="24" viewBox="0 0 24 24" fill="none" xmlns="http://www.w3.org/2000/svg">
<g id="icons/Money/stock-market">
<path id="Union" d="M14 6C14.5523 6 15 6.44772 15 7V20C15 20.5523 14.5523 21 14 21H13V22C13 22.5523 12.5523 23 12 23C11.4477 23 11 22.5523 11 22V21H10C9.44772 21 9 20.5523 9 20V7C9 6.44772 9.44772 6 10 6H14ZM11 19H13V8H11V19ZM5 4C5.55228 4 6 4.44772 6 5V9H7C7.55228 9 8 9.44771 8 10V17C8 17.5523 7.55228 18 7 18H3C2.44772 18 2 17.5523 2 17V10C2 9.44771 2.44772 9 3 9H4V5C4 4.44772 4.44772 4 5 4ZM19 1C19.5523 1 20 1.44772 20 2V5H21C21.5523 5 22 5.44772 22 6V10.5C22 11.0523 21.5523 11.5 21 11.5H20V17C20 17.5523 19.5523 18 19 18C18.4477 18 18 17.5523 18 17V11.5H17C16.4477 11.5 16 11.0523 16 10.5V6C16 5.44772 16.4477 5 17 5H18V2C18 1.44772 18.4477 1 19 1ZM4 16H6V11H4V16ZM18 9.5H20V7H18V9.5Z" fill="#9E9E9E"/>
</g>
</svg>
