<svg width="24" height="24" viewBox="0 0 24 24" fill="none" xmlns="http://www.w3.org/2000/svg">
<g id="icons/Money/swipe">
<path id="Union" d="M13.5 3C13.7487 3 13.9888 3.09246 14.1729 3.25977L19.3867 8H22C22.5523 8 23 8.44772 23 9V20C23 20.5523 22.5523 21 22 21H4.5C3.94772 21 3.5 20.5523 3.5 20V9.16699L2.38086 8.28516C1.94729 7.94327 1.87306 7.31456 2.21484 6.88086C2.55673 6.44729 3.18544 6.37306 3.61914 6.71484L10.3047 11.9834L10.335 12.0078C10.5734 12.2111 10.8632 12.4013 11.1367 12.4688C11.2607 12.4993 11.3638 12.5006 11.4551 12.4795C11.5426 12.4592 11.6668 12.4077 11.8223 12.2646C11.9863 12.1136 12.0366 11.9981 12.0547 11.9326C12.0741 11.8624 12.0746 11.7822 12.0508 11.6836C12.0257 11.5802 11.977 11.4718 11.916 11.373C11.8866 11.3254 11.8574 11.2849 11.833 11.2539C11.829 11.2488 11.8248 11.2445 11.8213 11.2402L7.90039 8.2998C7.45861 7.96847 7.36896 7.34221 7.7002 6.90039C8.03153 6.45861 8.65779 6.36896 9.09961 6.7002L10.8486 8.01172C10.898 8.00421 10.9485 8.00001 11 8H16.4131L13.1133 5H2C1.44772 5 1 4.55228 1 4C1 3.44772 1.44772 3 2 3H13.5ZM5.5 19H21V17.5088L5.5 17.5V19ZM13.3896 10C13.6026 10.2663 13.8682 10.689 13.9951 11.2129C14.1834 11.9905 14.0442 12.9373 13.1777 13.7354C12.3628 14.4858 11.4462 14.6053 10.6582 14.4111C9.95814 14.2385 9.39666 13.8314 9.06641 13.5537L5.5 10.7432V15.5L21 15.5088V10H13.3896Z" fill="#9E9E9E"/>
</g>
</svg>
