<svg width="24" height="24" viewBox="0 0 24 24" fill="none" xmlns="http://www.w3.org/2000/svg">
<g id="icons/Money/transaction">
<path id="Union" d="M19.5 2C20.8807 2 22 3.1193 22 4.5V19.5C22 20.8807 20.8807 22 19.5 22H4.5C3.1193 22 2 20.8807 2 19.5V4.5C2 3.11929 3.11929 2 4.5 2H19.5ZM4.5 4C4.22386 4 4 4.22386 4 4.5V19.5C4 19.7762 4.22385 20 4.5 20H19.5C19.7762 20 20 19.7762 20 19.5V4.5C20 4.22385 19.7762 4 19.5 4H4.5ZM16.2188 11.875C16.5638 11.4437 17.1937 11.3737 17.625 11.7188C18.0563 12.0638 18.1263 12.6937 17.7812 13.125L13.7812 18.125C13.4362 18.5563 12.8063 18.6263 12.375 18.2812L9.875 16.2812C9.44374 15.9362 9.37374 15.3063 9.71875 14.875C10.0638 14.4437 10.6937 14.3737 11.125 14.7188L12.8438 16.0938L16.2188 11.875ZM11 10.5C11.5523 10.5 12 10.9477 12 11.5C12 12.0523 11.5523 12.5 11 12.5H7C6.44772 12.5 6 12.0523 6 11.5C6 10.9477 6.44772 10.5 7 10.5H11ZM17 6.5C17.5523 6.5 18 6.94772 18 7.5C18 8.05228 17.5523 8.5 17 8.5H7C6.44772 8.5 6 8.05228 6 7.5C6 6.94772 6.44772 6.5 7 6.5H17Z" fill="#9E9E9E"/>
</g>
</svg>
