<svg width="24" height="24" viewBox="0 0 24 24" fill="none" xmlns="http://www.w3.org/2000/svg">
<g id="icons/Money/transaction-order">
<path id="Union" d="M15 1C15.5523 1 16 1.44772 16 2V3H18.5C19.6046 3 20.5 3.89543 20.5 5V21C20.5 22.1046 19.6046 23 18.5 23H5.5C4.39543 23 3.5 22.1046 3.5 21V5C3.5 3.89543 4.39543 3 5.5 3H8V2C8 1.44772 8.44772 1 9 1C9.55228 1 10 1.44772 10 2V3H14V2C14 1.44772 14.4477 1 15 1ZM5.5 21H18.5V5H16C16 5.55228 15.5523 6 15 6C14.4477 6 14 5.55228 14 5H10C10 5.55228 9.55228 6 9 6C8.44772 6 8 5.55228 8 5H5.5V21ZM12 16.5C12.5523 16.5 13 16.9477 13 17.5C13 18.0523 12.5523 18.5 12 18.5H8C7.44772 18.5 7 18.0523 7 17.5C7 16.9477 7.44772 16.5 8 16.5H12ZM14 12.5C14.5523 12.5 15 12.9477 15 13.5C15 14.0523 14.5523 14.5 14 14.5H8C7.44772 14.5 7 14.0523 7 13.5C7 12.9477 7.44772 12.5 8 12.5H14ZM16 8.5C16.5523 8.5 17 8.94772 17 9.5C17 10.0523 16.5523 10.5 16 10.5H8C7.44772 10.5 7 10.0523 7 9.5C7 8.94772 7.44772 8.5 8 8.5H16Z" fill="#9E9E9E"/>
</g>
</svg>
