<svg width="24" height="24" viewBox="0 0 24 24" fill="none" xmlns="http://www.w3.org/2000/svg">
<g id="icons/Money/trend">
<path id="Union" d="M19.5 2C20.8807 2 22 3.1193 22 4.5V19.5C22 20.8807 20.8807 22 19.5 22H4.5C3.1193 22 2 20.8807 2 19.5V4.5C2 3.11929 3.11929 2 4.5 2H19.5ZM4.5 4C4.22386 4 4 4.22386 4 4.5V19.5C4 19.7762 4.22385 20 4.5 20H19.5C19.7762 20 20 19.7762 20 19.5V4.5C20 4.22385 19.7762 4 19.5 4H4.5ZM17 8C17.0624 8 17.1234 8.00663 17.1826 8.01758C17.1852 8.01806 17.1879 8.01806 17.1904 8.01855C17.2163 8.02354 17.2415 8.03018 17.2666 8.03711C17.2727 8.03879 17.2791 8.03922 17.2852 8.04102C17.3412 8.05765 17.3948 8.07975 17.4463 8.10547C17.4541 8.10936 17.462 8.11308 17.4697 8.11719C17.4872 8.12648 17.5037 8.13718 17.5205 8.14746C17.5306 8.15362 17.5409 8.15947 17.5508 8.16602C17.5706 8.17916 17.5896 8.19351 17.6084 8.20801C17.6163 8.2141 17.625 8.21922 17.6328 8.22559C17.7098 8.28859 17.7767 8.36327 17.832 8.44629C17.8552 8.48097 17.8752 8.51701 17.8936 8.55371C17.9174 8.60137 17.939 8.65052 17.9551 8.70215L17.9814 8.80762C17.984 8.8205 17.9843 8.83372 17.9863 8.84668C17.994 8.89676 18 8.94776 18 9V13C18 13.5523 17.5523 14 17 14C16.4477 14 16 13.5523 16 13V11.4199L12.4502 14.9834C12.2631 15.1711 12.0092 15.2768 11.7441 15.2773C11.4788 15.2777 11.2239 15.1727 11.0361 14.9854L9.54785 13.502L7.42676 15.624C7.03623 16.0145 6.4032 16.0145 6.0127 15.624C5.62241 15.2335 5.6223 14.6004 6.0127 14.21L8.84082 11.3818L8.91699 11.3135C9.30941 10.9932 9.88859 11.0155 10.2549 11.3809L11.7402 12.8623L14.5918 10H13C12.4477 10 12 9.55228 12 9C12 8.44772 12.4477 8 13 8H17Z" fill="#9E9E9E"/>
</g>
</svg>
