<svg width="24" height="24" viewBox="0 0 24 24" fill="none" xmlns="http://www.w3.org/2000/svg">
<g id="icons/Money/trend-two">
<path id="Union" d="M22 21C22.5523 21 23 21.4477 23 22C23 22.5523 22.5523 23 22 23H2C1.44772 23 1 22.5523 1 22C1 21.4477 1.44772 21 2 21H22ZM1.38477 12.2119C1.62741 12.0225 1.94354 11.9557 2.24219 12.0303L6.24219 13.0303C6.68735 13.1416 7 13.5411 7 14V19C7 19.5523 6.55228 20 6 20H2C1.44772 20 1 19.5523 1 19V13C1 12.6921 1.14205 12.4014 1.38477 12.2119ZM13.5527 9.10547C13.8626 8.95051 14.2306 8.96733 14.5254 9.14941C14.8202 9.33162 15 9.65342 15 10V19C15 19.5523 14.5523 20 14 20H10C9.44771 20 9 19.5523 9 19V12L9.00977 11.8594C9.05546 11.5372 9.25641 11.2536 9.55273 11.1055L13.5527 9.10547ZM21.5527 5.10547C21.8626 4.95051 22.2306 4.96733 22.5254 5.14941C22.8202 5.33162 23 5.65342 23 6V19C23 19.5523 22.5523 20 22 20H18C17.4477 20 17 19.5523 17 19V8L17.0098 7.85938C17.0555 7.53719 17.2564 7.25363 17.5527 7.10547L21.5527 5.10547ZM3 18H5V14.7803L3 14.2803V18ZM11 12.6182V18H13V11.6182L11 12.6182ZM19 8.61816V18H21V7.61816L19 8.61816ZM22.1709 1.01465C22.56 1.08195 22.8804 1.37566 22.9736 1.77051C23.08 2.22177 22.862 2.68717 22.4473 2.89453L6.44727 10.8945C6.23383 11.0013 5.98933 11.0275 5.75781 10.9697L1.75781 9.96973C1.22209 9.8358 0.896475 9.29353 1.03027 8.75781C1.1642 8.22209 1.70647 7.89648 2.24219 8.03027L5.88281 8.94043L17.7637 3H17C16.4477 3 16 2.55228 16 2C16 1.44772 16.4477 1 17 1H22L22.1709 1.01465Z" fill="#9E9E9E"/>
</g>
</svg>
