<svg width="24" height="24" viewBox="0 0 24 24" fill="none" xmlns="http://www.w3.org/2000/svg">
<g id="icons/Money/two-dimensional-code-two">
<path id="Union" d="M9 14C9.55228 14 10 14.4477 10 15V21C10 21.5523 9.55228 22 9 22H3C2.44772 22 2 21.5523 2 21V15C2 14.4477 2.44772 14 3 14H9ZM13 14C13.5523 14 14 14.4477 14 15V21C14 21.5523 13.5523 22 13 22C12.4477 22 12 21.5523 12 21V15C12 14.4477 12.4477 14 13 14ZM17 14C17.5523 14 18 14.4477 18 15V21C18 21.5523 17.5523 22 17 22C16.4477 22 16 21.5523 16 21V15C16 14.4477 16.4477 14 17 14ZM21 14C21.5523 14 22 14.4477 22 15V21C22 21.5523 21.5523 22 21 22C20.4477 22 20 21.5523 20 21V15C20 14.4477 20.4477 14 21 14ZM4 20H8V16H4V20ZM21 11C21.5523 11 22 11.4477 22 12C22 12.5523 21.5523 13 21 13H3C2.44772 13 2 12.5523 2 12C2 11.4477 2.44772 11 3 11H21ZM9 2C9.55228 2 10 2.44772 10 3V9C10 9.55228 9.55228 10 9 10H3C2.44772 10 2 9.55228 2 9V3C2 2.44772 2.44772 2 3 2H9ZM12 2C12.5523 2 13 2.44772 13 3V9C13 9.55228 12.5523 10 12 10C11.4477 10 11 9.55228 11 9V3C11 2.44772 11.4477 2 12 2ZM21 2C21.5523 2 22 2.44772 22 3V9C22 9.55228 21.5523 10 21 10H15C14.4477 10 14 9.55228 14 9V3C14 2.44772 14.4477 2 15 2H21ZM4 8H8V4H4V8ZM16 8H20V4H16V8Z" fill="#9E9E9E"/>
</g>
</svg>
