<svg width="24" height="24" viewBox="0 0 24 24" fill="none" xmlns="http://www.w3.org/2000/svg">
<g id="icons/Money/two-dimensional-code">
<path id="Union" d="M10 13C10.5523 13 11 13.4477 11 14V21C11 21.5523 10.5523 22 10 22H3C2.44772 22 2 21.5523 2 21V14C2 13.4477 2.44772 13 3 13H10ZM14.5 13C15.0523 13 15.5 13.4477 15.5 14V21C15.5 21.5523 15.0523 22 14.5 22C13.9477 22 13.5 21.5523 13.5 21V14C13.5 13.4477 13.9477 13 14.5 13ZM20.5 13C21.0523 13 21.5 13.4477 21.5 14V21C21.5 21.5523 21.0523 22 20.5 22C19.9477 22 19.5 21.5523 19.5 21V14C19.5 13.4477 19.9477 13 20.5 13ZM4 20H9V15H4V20ZM10 2C10.5523 2 11 2.44772 11 3V10C11 10.5523 10.5523 11 10 11H3C2.44772 11 2 10.5523 2 10V3C2 2.44772 2.44772 2 3 2H10ZM21 2C21.5523 2 22 2.44772 22 3V10C22 10.5523 21.5523 11 21 11H14C13.4477 11 13 10.5523 13 10V3C13 2.44772 13.4477 2 14 2H21ZM4 9H9V4H4V9ZM15 9H20V4H15V9Z" fill="#9E9E9E"/>
</g>
</svg>
