<svg width="24" height="24" viewBox="0 0 24 24" fill="none" xmlns="http://www.w3.org/2000/svg">
<g id="icons/Money/wallet-two">
<path id="Union" d="M22 3C22.5523 3 23 3.44772 23 4V8C23 8.44683 22.7043 8.83507 22.2822 8.95898L22.1963 8.98047H22.1973C22.1964 8.98065 22.1936 8.98078 22.1904 8.98145C22.1841 8.98277 22.1736 8.98511 22.1592 8.98828C22.1292 8.99487 22.0822 9.00576 22.0215 9.02051C21.8995 9.05013 21.721 9.0966 21.5059 9.16113C21.0721 9.29126 20.505 9.49067 19.9473 9.76953C18.7408 10.3728 18 11.123 18 12C18 12.877 18.7408 13.6272 19.9473 14.2305C20.505 14.5093 21.0721 14.7087 21.5059 14.8389C21.721 14.9034 21.8995 14.9499 22.0215 14.9795C22.0822 14.9942 22.1292 15.0051 22.1592 15.0117C22.1736 15.0149 22.1841 15.0172 22.1904 15.0186C22.1936 15.0192 22.1964 15.0193 22.1973 15.0195H22.1963L22.2822 15.041C22.7043 15.1649 23 15.5532 23 16V20C23 20.5523 22.5523 21 22 21H2C1.44772 21 1 20.5523 1 20V4C1 3.44772 1.44772 3 2 3H22ZM3 19H21V16.7734C20.9777 16.7669 20.9546 16.7618 20.9316 16.7549C20.4279 16.6038 19.7449 16.3656 19.0527 16.0195C17.7592 15.3728 16 14.123 16 12C16 9.877 17.7592 8.62725 19.0527 7.98047C19.7449 7.63438 20.4279 7.39624 20.9316 7.24512C20.9547 7.2382 20.9776 7.23216 21 7.22559V5H3V19ZM22 11C22.5523 11 23 11.4477 23 12C23 12.5523 22.5523 13 22 13H21C20.4477 13 20 12.5523 20 12C20 11.4477 20.4477 11 21 11H22Z" fill="#9E9E9E"/>
</g>
</svg>
