<svg width="24" height="24" viewBox="0 0 24 24" fill="none" xmlns="http://www.w3.org/2000/svg">
<g id="icons/Money/wallet-three">
<path id="Union" d="M18 2C19.3807 2 20.5 3.1193 20.5 4.5V7.20898C21.3828 7.59484 22 8.47498 22 9.5V14.5C22 15.5249 21.3826 16.4041 20.5 16.79V19.5C20.5 20.8807 19.3807 22 18 22H4.5C3.11929 22 2 20.8807 2 19.5V4.5C2 3.11929 3.11929 2 4.5 2H18ZM4.5 4C4.22386 4 4 4.22386 4 4.5V19.5C4 19.7762 4.22385 20 4.5 20H18C18.2762 20 18.5 19.7762 18.5 19.5V17H12.5C11.1193 17 10 15.8807 10 14.5V9.5C10 8.11929 11.1193 7 12.5 7H18.5V4.5C18.5 4.22385 18.2762 4 18 4H4.5ZM12.5 9C12.2239 9 12 9.22386 12 9.5V14.5C12 14.7761 12.2239 15 12.5 15H19.5C19.7761 15 20 14.7761 20 14.5V9.5C20 9.22386 19.7761 9 19.5 9H12.5ZM15 11C15.5523 11 16 11.4477 16 12C16 12.5523 15.5523 13 15 13C14.4477 13 14 12.5523 14 12C14 11.4477 14.4477 11 15 11Z" fill="#9E9E9E"/>
</g>
</svg>
