<svg width="24" height="24" viewBox="0 0 24 24" fill="none" xmlns="http://www.w3.org/2000/svg">
<g id="icons/Money/wallet">
<path id="Union" d="M15.4834 1.08691C15.9456 0.879394 16.4999 1.05187 16.7588 1.5L18.7793 5H21C22.1044 5 22.9998 5.89562 23 7V21C23 22.1046 22.1046 23 21 23H3C1.89544 23 1 22.1046 1 21V7C1.00024 5.89561 1.89559 5 3 5H8.69629L15.3926 1.13379L15.4834 1.08691ZM3 21H21V17.5H17.625C15.6695 17.5 14 15.9784 14 14C14.0002 12.0218 15.6696 10.5 17.625 10.5H21V7H3V21ZM17.625 12.5C16.6812 12.5 16.0003 13.2172 16 14C16 14.783 16.681 15.5 17.625 15.5H21V12.5H17.625ZM12.7168 4.98828L16.4648 4.99219L15.5264 3.36523L12.7168 4.98828Z" fill="#9E9E9E"/>
</g>
</svg>
