<svg width="24" height="24" viewBox="0 0 24 24" fill="none" xmlns="http://www.w3.org/2000/svg">
<g id="icons/Money/water-level">
<path id="Union" d="M11.4082 1.19336C11.7601 0.935343 12.2399 0.935343 12.5918 1.19336L12 2C12.5504 1.2494 12.5889 1.19771 12.5918 1.19434H12.5928L12.5947 1.19629C12.5962 1.19737 12.5983 1.19855 12.6006 1.2002C12.6055 1.20381 12.6127 1.20955 12.6211 1.21582C12.6378 1.22835 12.6617 1.24581 12.6914 1.26855C12.7519 1.31476 12.8387 1.38194 12.9473 1.46875C13.1643 1.64238 13.4701 1.8965 13.8359 2.22168C14.5664 2.87094 15.5417 3.81222 16.5186 4.98438C18.4504 7.30264 20.4999 10.6535 20.5 14.5C20.5 19.1944 16.6944 23 12 23C7.30557 23 3.5 19.1944 3.5 14.5C3.50008 10.6535 5.54956 7.30264 7.48145 4.98438C8.45827 3.81222 9.43365 2.87094 10.1641 2.22168C10.5299 1.8965 10.8357 1.64238 11.0527 1.46875C11.1613 1.38194 11.2481 1.31476 11.3086 1.26855C11.3383 1.24581 11.3622 1.22835 11.3789 1.21582C11.3873 1.20955 11.3945 1.20381 11.3994 1.2002C11.4017 1.19855 11.4038 1.19737 11.4053 1.19629L11.4072 1.19434H11.4082C11.4108 1.19736 11.4421 1.23913 11.8447 1.78809L11.4082 1.19336ZM11.5527 15.3945C10.3216 14.779 8.68958 14.7496 7.24902 14.9297C6.5747 15.014 5.97887 15.1378 5.54297 15.2451C5.55676 15.366 5.5744 15.4857 5.59473 15.6045C5.62325 15.7711 5.6573 15.9357 5.69824 16.0977C5.70403 16.1206 5.71077 16.1432 5.7168 16.166C5.78258 16.4148 5.86343 16.6574 5.95703 16.8936C6.26561 17.672 6.7193 18.3765 7.28613 18.9736C7.40154 19.0952 7.52108 19.2128 7.64551 19.3252C8.79803 20.366 10.3248 21 12 21C12.7615 21 13.4918 20.8676 14.1709 20.627C14.2342 20.6045 14.297 20.581 14.3594 20.5566C14.8516 20.3648 15.3138 20.1144 15.7393 19.8145C15.921 19.6863 16.0954 19.549 16.2627 19.4033C16.5763 19.1304 16.8637 18.8287 17.1201 18.501C17.4387 18.0937 17.7096 17.6478 17.9248 17.1709C17.9712 17.068 18.0155 16.964 18.0566 16.8584C18.0867 16.7812 18.1164 16.7036 18.1436 16.625C18.1451 16.6206 18.145 16.6157 18.1465 16.6113C18.2345 16.3551 18.3085 16.0919 18.3643 15.8223C17.9659 15.906 17.5031 15.9917 16.999 16.0547C15.4397 16.2496 13.3215 16.2789 11.5527 15.3945ZM11.4922 3.71582C10.8164 4.31649 9.91663 5.18795 9.01855 6.26562C7.4567 8.13988 5.98139 10.544 5.59668 13.1836C6.0036 13.0973 6.48052 13.0104 7.00098 12.9453C8.56034 12.7504 10.6784 12.7211 12.4473 13.6055C13.6784 14.221 15.3104 14.2504 16.751 14.0703C17.4305 13.9854 18.03 13.8569 18.4668 13.749C18.2259 10.8879 16.6541 8.27285 14.9814 6.26562C14.0834 5.18795 13.1836 4.31649 12.5078 3.71582C12.3191 3.54807 12.1476 3.40262 12 3.2793C11.8524 3.40262 11.6809 3.54807 11.4922 3.71582Z" fill="#9E9E9E"/>
</g>
</svg>
