<svg width="24" height="24" viewBox="0 0 24 24" fill="none" xmlns="http://www.w3.org/2000/svg">
<g id="icons/Money/water-rate-two">
<path id="Union" d="M11.4336 1.17578C11.7748 0.941349 12.2252 0.941349 12.5664 1.17578L12 2L12.5674 1.17676L12.5693 1.17773L12.5967 1.19727C12.6143 1.20958 12.6391 1.2273 12.6709 1.25C12.7347 1.29556 12.8264 1.36151 12.9414 1.44727C13.1714 1.61875 13.497 1.8686 13.8857 2.18848C14.6617 2.82701 15.6984 3.75036 16.7383 4.8877C18.7823 7.1234 21 10.3628 21 14C21 18.9704 16.9706 23 12 23C7.02942 23 3 18.9706 3 14C3.00003 10.3628 5.21767 7.1234 7.26172 4.8877C8.30157 3.75036 9.33832 2.82701 10.1143 2.18848C10.503 1.8686 10.8286 1.61875 11.0586 1.44727C11.1736 1.36151 11.2653 1.29556 11.3291 1.25C11.3609 1.2273 11.3857 1.20958 11.4033 1.19727L11.4307 1.17773L11.4326 1.17676L11.4336 1.17578ZM11.3857 3.7334C10.6617 4.3292 9.69836 5.18724 8.73828 6.2373C6.78238 8.37657 5.00003 11.1373 5 14C5 17.866 8.13398 21 12 21C15.866 21 19 17.8659 19 14C19 11.1373 17.2176 8.37657 15.2617 6.2373C14.3016 5.18724 13.3383 4.3292 12.6143 3.7334C12.3812 3.54163 12.1736 3.37787 12 3.24414C11.8264 3.37787 11.6188 3.54163 11.3857 3.7334ZM11.1055 9.55273C11.3525 9.0588 11.9533 8.85851 12.4473 9.10547C12.9412 9.35245 13.1415 9.9533 12.8945 10.4473L11.6182 13H14C14.3466 13 14.6684 13.1798 14.8506 13.4746C15.0327 13.7694 15.0495 14.1374 14.8945 14.4473L12.8945 18.4473C12.6475 18.9412 12.0467 19.1415 11.5527 18.8945C11.0588 18.6475 10.8585 18.0467 11.1055 17.5527L12.3818 15H10C9.65342 15 9.33162 14.8202 9.14941 14.5254C8.96736 14.2306 8.95052 13.8626 9.10547 13.5527L11.1055 9.55273Z" fill="#9E9E9E"/>
</g>
</svg>
