<svg width="24" height="24" viewBox="0 0 24 24" fill="none" xmlns="http://www.w3.org/2000/svg">
<g id="icons/Money/water-rate">
<path id="Union" d="M11.4238 1.18262C11.7935 0.921618 12.2982 0.94073 12.6484 1.23926C18.0412 5.83538 21 10.3332 21 14.7275C20.9997 19.3837 16.8786 23 12 23C7.12139 23 3.00026 19.3838 3 14.7275C3 10.3332 5.95879 5.83538 11.3516 1.23926L11.4238 1.18262ZM12 3.3252C7.18005 7.59032 5 11.3896 5 14.7275C5.00027 18.1042 8.04234 21 12 21C15.9577 21 18.9997 18.1041 19 14.7275C19 11.3896 16.8199 7.59032 12 3.3252ZM13.8496 8.80859C14.2317 8.40978 14.8649 8.39626 15.2637 8.77832C15.6619 9.16033 15.6755 9.79275 15.2939 10.1914L13.4863 12.0791H15C15.5523 12.0791 16 12.5268 16 13.0791C15.9999 13.6313 15.5522 14.0791 15 14.0791H13V14.7637H15C15.5523 14.7637 16 15.2114 16 15.7637C15.9999 16.3159 15.5522 16.7637 15 16.7637H13V18C12.9999 18.5522 12.5522 19 12 19C11.4478 19 11.0001 18.5522 11 18V16.7637H9C8.44777 16.7637 8.00008 16.3159 8 15.7637C8 15.2114 8.44772 14.7637 9 14.7637H11V14.0791H9C8.44777 14.0791 8.00008 13.6313 8 13.0791C8 12.5268 8.44772 12.0791 9 12.0791H10.5146L8.70703 10.1914C8.32499 9.79261 8.33853 9.16038 8.7373 8.77832C9.13611 8.39628 9.76833 8.40981 10.1504 8.80859L12 10.7383L13.8496 8.80859Z" fill="#9E9E9E"/>
</g>
</svg>
