<svg width="24" height="24" viewBox="0 0 24 24" fill="none" xmlns="http://www.w3.org/2000/svg">
<g id="icons/Money/waves">
<path id="Union" d="M8.98145 1.00098C9.41741 1.01712 9.79229 1.31382 9.9082 1.73438L14.6113 18.8389L17.5693 11.3115L17.6357 11.1748C17.8127 10.8702 18.1402 10.6777 18.5 10.6777H23C23.5523 10.6777 24 11.1254 24 11.6777C23.9997 12.2297 23.5521 12.6777 23 12.6777H19.1816L15.375 22.3652C15.2175 22.7658 14.8214 23.0218 14.3916 22.999C13.9619 22.9762 13.5949 22.6804 13.4805 22.2656L8.82129 5.32617L6.44238 12.0127C6.30047 12.4111 5.92292 12.6777 5.5 12.6777H1C0.447925 12.6777 0.00033998 12.2297 0 11.6777C0 11.1254 0.447715 10.6777 1 10.6777H4.79395L8.00195 1.66504C8.14834 1.25377 8.54519 0.98492 8.98145 1.00098Z" fill="#9E9E9E"/>
</g>
</svg>
