<svg width="24" height="24" viewBox="0 0 24 24" fill="none" xmlns="http://www.w3.org/2000/svg">
<g id="icons/Money/weixin-market">
<path id="Union" d="M12 1C14.4853 1 16.5 3.01472 16.5 5.5V6H19C20.1046 6 21 6.89542 21 8V21C21 22.1046 20.1046 23 19 23H5C3.89544 23 3 22.1046 3 21V8C3 6.89541 3.89544 6 5 6H7.5V5.5C7.5 3.01472 9.51471 1 12 1ZM5 21H19V8H16.5V9C16.5 9.55229 16.0523 10 15.5 10C14.9477 10 14.5 9.55229 14.5 9V8H9.5V9C9.5 9.55229 9.05228 10 8.5 10C7.94772 10 7.5 9.55229 7.5 9V8H5V21ZM12 3C10.6193 3 9.5 4.11929 9.5 5.5V6H14.5V5.5C14.5 4.11929 13.3807 3 12 3Z" fill="#9E9E9E"/>
</g>
</svg>
