<svg width="24" height="24" viewBox="0 0 24 24" fill="none" xmlns="http://www.w3.org/2000/svg">
<g id="icons/Money/workbench">
<path id="Union" d="M22 2.5C22.5523 2.5 23 2.94772 23 3.5V16.5C23 17.0523 22.5523 17.5 22 17.5H13V19.5H18C18.5523 19.5 19 19.9477 19 20.5C19 21.0523 18.5523 21.5 18 21.5H6C5.44772 21.5 5 21.0523 5 20.5C5 19.9477 5.44772 19.5 6 19.5H11V17.5H2C1.44772 17.5 1 17.0523 1 16.5V3.5C1 2.94772 1.44772 2.5 2 2.5H22ZM3 15.5H21V4.5H3V15.5ZM8 10C8.55228 10 9 10.4477 9 11V13C9 13.5523 8.55228 14 8 14C7.44772 14 7 13.5523 7 13V11C7 10.4477 7.44772 10 8 10ZM12 8C12.5523 8 13 8.44772 13 9V13C13 13.5523 12.5523 14 12 14C11.4477 14 11 13.5523 11 13V9C11 8.44772 11.4477 8 12 8ZM16 6C16.5523 6 17 6.44772 17 7V13C17 13.5523 16.5523 14 16 14C15.4477 14 15 13.5523 15 13V7C15 6.44772 15.4477 6 16 6Z" fill="#9E9E9E"/>
</g>
</svg>
