<svg width="24" height="24" viewBox="0 0 24 24" fill="none" xmlns="http://www.w3.org/2000/svg">
<g id="icons/Edit/add-mode">
<path id="Union" d="M11.371 1.22363C11.7637 0.903841 12.343 0.927128 12.7089 1.29297L15.0507 3.63477H19.3651C19.9171 3.635 20.3649 4.08282 20.3651 4.63477V8.94922L22.7069 11.291C23.0972 11.6813 23.0978 12.3145 22.7079 12.7051L20.3651 15.0498V19.3652C20.3649 19.9172 19.9171 20.365 19.3651 20.3652H15.0507L12.7089 22.707C12.3186 23.0973 11.6854 23.0979 11.2948 22.708L8.9491 20.3652H4.63464C4.08274 20.365 3.63488 19.9172 3.63464 19.3652V15.0498L1.29187 12.7051C0.902024 12.3145 0.902623 11.6813 1.29285 11.291L3.63464 8.94922V4.63477C3.63488 4.08285 4.08273 3.63504 4.63464 3.63477H8.9491L11.2948 1.29199L11.371 1.22363ZM10.0702 5.34277C9.88271 5.53 9.62811 5.63474 9.36316 5.63477H5.63464V9.36328C5.63461 9.62835 5.53002 9.88283 5.34265 10.0703L3.41296 11.998L5.34265 13.9307C5.52972 14.1181 5.63461 14.3719 5.63464 14.6367V18.3652H9.36316L9.46179 18.3701C9.69051 18.3928 9.90613 18.4934 10.0702 18.6572L12.0009 20.5859L13.9296 18.6572C14.117 18.4699 14.3716 18.3653 14.6366 18.3652H18.3651V14.6367C18.3651 14.3719 18.4701 14.1181 18.6571 13.9307L20.5858 11.998L18.6571 10.0703C18.4698 9.88283 18.3651 9.62833 18.3651 9.36328V5.63477H14.6366C14.3716 5.63471 14.117 5.53013 13.9296 5.34277L12.0009 3.41309L10.0702 5.34277ZM12.0018 7.5C12.5541 7.5 13.0018 7.94772 13.0018 8.5V10.998H15.4999C16.0522 10.998 16.4999 11.4458 16.4999 11.998C16.4999 12.5503 16.0522 12.998 15.4999 12.998H13.0018V15.5C13.0018 16.0523 12.5541 16.5 12.0018 16.5C11.4496 16.5 11.0018 16.0523 11.0018 15.5V12.998H8.49988C7.94764 12.998 7.49988 12.5503 7.49988 11.998C7.49988 11.4458 7.94764 10.9981 8.49988 10.998H11.0018V8.5C11.0018 7.94775 11.4496 7.50005 12.0018 7.5Z" fill="#9E9E9E"/>
</g>
</svg>
