<svg width="24" height="24" viewBox="0 0 24 24" fill="none" xmlns="http://www.w3.org/2000/svg">
<g id="icons/Edit/add-three">
<path id="Union" d="M3 16C3.55228 16 4 16.4477 4 17V20H7C7.55228 20 8 20.4477 8 21C8 21.5523 7.55228 22 7 22H4C2.89544 22 2 21.1046 2 20V17C2 16.4477 2.44772 16 3 16ZM13.5 20C14.0523 20 14.5 20.4477 14.5 21C14.5 21.5523 14.0523 22 13.5 22H10.5C9.94772 22 9.5 21.5523 9.5 21C9.5 20.4477 9.94772 20 10.5 20H13.5ZM21 16C21.5523 16 22 16.4477 22 17V20C22 21.1046 21.1046 22 20 22H17C16.4477 22 16 21.5523 16 21C16 20.4477 16.4477 20 17 20H20V17C20 16.4477 20.4477 16 21 16ZM12 7C12.5523 7 13 7.44772 13 8V11H16C16.5523 11 17 11.4477 17 12C17 12.5523 16.5523 13 16 13H13V16C13 16.5523 12.5523 17 12 17C11.4477 17 11 16.5523 11 16V13H8C7.44772 13 7 12.5523 7 12C7 11.4477 7.44772 11 8 11H11V8C11 7.44772 11.4477 7 12 7ZM3 9.5C3.55228 9.5 4 9.94772 4 10.5V13.5C4 14.0523 3.55228 14.5 3 14.5C2.44772 14.5 2 14.0523 2 13.5V10.5C2 9.94772 2.44772 9.5 3 9.5ZM21 9.5C21.5523 9.5 22 9.94772 22 10.5V13.5C22 14.0523 21.5523 14.5 21 14.5C20.4477 14.5 20 14.0523 20 13.5V10.5C20 9.94772 20.4477 9.5 21 9.5ZM7 2C7.55228 2 8 2.44772 8 3C8 3.55228 7.55228 4 7 4H4V7C4 7.55228 3.55228 8 3 8C2.44772 8 2 7.55228 2 7V4C2 2.89543 2.89543 2 4 2H7ZM20 2C21.1046 2 22 2.89544 22 4V7C22 7.55228 21.5523 8 21 8C20.4477 8 20 7.55228 20 7V4H17C16.4477 4 16 3.55228 16 3C16 2.44772 16.4477 2 17 2H20ZM13.5 2C14.0523 2 14.5 2.44772 14.5 3C14.5 3.55228 14.0523 4 13.5 4H10.5C9.94772 4 9.5 3.55228 9.5 3C9.5 2.44772 9.94772 2 10.5 2H13.5Z" fill="#9E9E9E"/>
</g>
</svg>
