<svg width="24" height="24" viewBox="0 0 24 24" fill="none" xmlns="http://www.w3.org/2000/svg">
<g id="icons/Edit/add-subset">
<path id="Union" d="M21 13C21.5523 13 22 13.4477 22 14V21C22 21.5523 21.5523 22 21 22H9C8.44772 22 8 21.5523 8 21V18.5H5C4.44772 18.5 4 18.0523 4 17.5V14C4 13.4477 4.44772 13 5 13C5.55228 13 6 13.4477 6 14V16.5H8V14C8 13.4477 8.44772 13 9 13H21ZM10 20H20V15H10V20ZM3 8.5C3.40532 8.5 3.7541 8.74124 3.91113 9.08789C4.25841 9.24467 4.5 9.59422 4.5 10C4.5 10.5523 4.05228 11 3.5 11H3C2.44772 11 2 10.5523 2 10V9.5C2 8.94772 2.44772 8.5 3 8.5ZM6.5 9C7.05228 9 7.5 9.44772 7.5 10C7.5 10.5523 7.05228 11 6.5 11H6C5.44772 11 5 10.5523 5 10C5 9.44772 5.44772 9 6 9H6.5ZM9.75 9C10.3023 9 10.75 9.44772 10.75 10C10.75 10.5523 10.3023 11 9.75 11H9.25C8.69772 11 8.25 10.5523 8.25 10C8.25 9.44772 8.69772 9 9.25 9H9.75ZM13 9C13.5523 9 14 9.44772 14 10C14 10.5523 13.5523 11 13 11H12.5C11.9477 11 11.5 10.5523 11.5 10C11.5 9.44772 11.9477 9 12.5 9H13ZM16 8.5C16.5523 8.5 17 8.94772 17 9.5V10C17 10.5523 16.5523 11 16 11H15.5C14.9477 11 14.5 10.5523 14.5 10C14.5 9.59454 14.741 9.24485 15.0879 9.08789C15.2448 8.74105 15.5945 8.5 16 8.5ZM3 5.25C3.55228 5.25 4 5.69772 4 6.25V6.75C4 7.30228 3.55228 7.75 3 7.75C2.44772 7.75 2 7.30228 2 6.75V6.25C2 5.69772 2.44772 5.25 3 5.25ZM16 5.25C16.5523 5.25 17 5.69772 17 6.25V6.75C17 7.30228 16.5523 7.75 16 7.75C15.4477 7.75 15 7.30228 15 6.75V6.25C15 5.69772 15.4477 5.25 16 5.25ZM3.5 2C4.05228 2 4.5 2.44772 4.5 3C4.5 3.40564 4.25821 3.75427 3.91113 3.91113C3.75427 4.25821 3.40564 4.5 3 4.5C2.44772 4.5 2 4.05228 2 3.5V3C2 2.44772 2.44772 2 3 2H3.5ZM16 2C16.5523 2 17 2.44772 17 3V3.5C17 4.05228 16.5523 4.5 16 4.5C15.5942 4.5 15.2447 4.25841 15.0879 3.91113C14.7412 3.7541 14.5 3.40532 14.5 3C14.5 2.44772 14.9477 2 15.5 2H16ZM6.5 2C7.05228 2 7.5 2.44772 7.5 3C7.5 3.55228 7.05228 4 6.5 4H6C5.44772 4 5 3.55228 5 3C5 2.44772 5.44772 2 6 2H6.5ZM9.75 2C10.3023 2 10.75 2.44772 10.75 3C10.75 3.55228 10.3023 4 9.75 4H9.25C8.69772 4 8.25 3.55228 8.25 3C8.25 2.44772 8.69772 2 9.25 2H9.75ZM13 2C13.5523 2 14 2.44772 14 3C14 3.55228 13.5523 4 13 4H12.5C11.9477 4 11.5 3.55228 11.5 3C11.5 2.44772 11.9477 2 12.5 2H13Z" fill="#9E9E9E"/>
</g>
</svg>
