<svg width="24" height="24" viewBox="0 0 24 24" fill="none" xmlns="http://www.w3.org/2000/svg">
<g id="icons/Edit/add-item">
<path id="Union" d="M12 11C12.5523 11 13 11.4477 13 12V14H21C21.5523 14 22 14.4477 22 15V21C22 21.5523 21.5523 22 21 22H3C2.44772 22 2 21.5523 2 21V15C2 14.4477 2.44772 14 3 14H11V12C11 11.4477 11.4477 11 12 11ZM4 20H20V16H4V20ZM3 7.5C3.40532 7.5 3.7541 7.74124 3.91113 8.08789C4.25841 8.24467 4.5 8.59422 4.5 9C4.5 9.55228 4.05228 10 3.5 10H3C2.44772 10 2 9.55228 2 9V8.5C2 7.94772 2.44772 7.5 3 7.5ZM7 8C7.55228 8 8 8.44772 8 9C8 9.55228 7.55228 10 7 10H6.5C5.94772 10 5.5 9.55228 5.5 9C5.5 8.44772 5.94772 8 6.5 8H7ZM10.5 8C11.0523 8 11.5 8.44772 11.5 9C11.5 9.55228 11.0523 10 10.5 10H10C9.44772 10 9 9.55228 9 9C9 8.44772 9.44772 8 10 8H10.5ZM14 8C14.5523 8 15 8.44772 15 9C15 9.55228 14.5523 10 14 10H13.5C12.9477 10 12.5 9.55228 12.5 9C12.5 8.44772 12.9477 8 13.5 8H14ZM17.5 8C18.0523 8 18.5 8.44772 18.5 9C18.5 9.55228 18.0523 10 17.5 10H17C16.4477 10 16 9.55228 16 9C16 8.44772 16.4477 8 17 8H17.5ZM21 7.5C21.5523 7.5 22 7.94772 22 8.5V9C22 9.55228 21.5523 10 21 10H20.5C19.9477 10 19.5 9.55228 19.5 9C19.5 8.59454 19.741 8.24485 20.0879 8.08789C20.2448 7.74105 20.5945 7.5 21 7.5ZM3 4.75C3.55228 4.75 4 5.19772 4 5.75V6.25C4 6.80228 3.55228 7.25 3 7.25C2.44772 7.25 2 6.80228 2 6.25V5.75C2 5.19772 2.44772 4.75 3 4.75ZM21 4.75C21.5523 4.75 22 5.19772 22 5.75V6.25C22 6.80228 21.5523 7.25 21 7.25C20.4477 7.25 20 6.80228 20 6.25V5.75C20 5.19772 20.4477 4.75 21 4.75ZM3.5 2C4.05228 2 4.5 2.44772 4.5 3C4.5 3.40564 4.25821 3.75427 3.91113 3.91113C3.75427 4.25821 3.40564 4.5 3 4.5C2.44772 4.5 2 4.05228 2 3.5V3C2 2.44772 2.44772 2 3 2H3.5ZM21 2C21.5523 2 22 2.44772 22 3V3.5C22 4.05228 21.5523 4.5 21 4.5C20.5942 4.5 20.2447 4.25841 20.0879 3.91113C19.7412 3.7541 19.5 3.40532 19.5 3C19.5 2.44772 19.9477 2 20.5 2H21ZM7 2C7.55228 2 8 2.44772 8 3C8 3.55228 7.55228 4 7 4H6.5C5.94772 4 5.5 3.55228 5.5 3C5.5 2.44772 5.94772 2 6.5 2H7ZM10.5 2C11.0523 2 11.5 2.44772 11.5 3C11.5 3.55228 11.0523 4 10.5 4H10C9.44772 4 9 3.55228 9 3C9 2.44772 9.44772 2 10 2H10.5ZM14 2C14.5523 2 15 2.44772 15 3C15 3.55228 14.5523 4 14 4H13.5C12.9477 4 12.5 3.55228 12.5 3C12.5 2.44772 12.9477 2 13.5 2H14ZM17.5 2C18.0523 2 18.5 2.44772 18.5 3C18.5 3.55228 18.0523 4 17.5 4H17C16.4477 4 16 3.55228 16 3C16 2.44772 16.4477 2 17 2H17.5Z" fill="#9E9E9E"/>
</g>
</svg>
