<svg width="24" height="24" viewBox="0 0 24 24" fill="none" xmlns="http://www.w3.org/2000/svg">
<g id="icons/Edit/add-pic">
<path id="Union" d="M13.1816 4.00098C13.7339 4.00098 14.1816 4.44869 14.1816 5.00098C14.1816 5.55326 13.7339 6.00098 13.1816 6.00098H4V20.001H18V10.501C18 9.94869 18.4477 9.50098 19 9.50098C19.5523 9.50098 20 9.94869 20 10.501V20.001C20 21.1056 19.1046 22.001 18 22.001H4C2.89544 22.001 2 21.1056 2 20.001V6.00098C2 4.89638 2.89544 4.00098 4 4.00098H13.1816ZM12.2236 9.25098C12.5562 9.24231 12.8715 9.39995 13.0645 9.6709L16.8145 14.9365C17.0315 15.2414 17.0602 15.6419 16.8887 15.9746C16.7171 16.3073 16.3743 16.5166 16 16.5166H6C5.62176 16.5166 5.2761 16.3029 5.10645 15.9648C4.93689 15.6265 4.97271 15.2211 5.19922 14.918L8.19922 10.9023L8.26855 10.8193C8.43969 10.6357 8.67473 10.5222 8.92773 10.5039C9.2172 10.4831 9.50182 10.5887 9.70703 10.7939L10.3252 11.4121L11.4062 9.71387L11.4795 9.61426C11.6623 9.39302 11.9328 9.25865 12.2236 9.25098ZM11.3438 13.5381C11.1809 13.7938 10.9107 13.962 10.6094 13.9951C10.3079 14.0282 10.0074 13.9225 9.79297 13.708L9.10938 13.0244L7.99512 14.5166H14.0605L12.2959 12.04L11.3438 13.5381ZM18.9971 1.89844C19.5494 1.89844 19.9971 2.34615 19.9971 2.89844V4.00098H21C21.5523 4.00098 22 4.44869 22 5.00098C22 5.55326 21.5523 6.00098 21 6.00098H19.9971V6.89844C19.9971 7.45072 19.5494 7.89844 18.9971 7.89844C18.4448 7.89844 17.9971 7.45072 17.9971 6.89844V6.00098H17C16.4477 6.00098 16 5.55326 16 5.00098C16 4.44869 16.4477 4.00098 17 4.00098H17.9971V2.89844C17.9971 2.34615 18.4448 1.89844 18.9971 1.89844Z" fill="#9E9E9E"/>
</g>
</svg>
