<svg width="24" height="24" viewBox="0 0 24 24" fill="none" xmlns="http://www.w3.org/2000/svg">
<g id="icons/Edit/add-text">
<path id="Union" d="M16 3C16.5523 3 17 3.44772 17 4C17 4.55228 16.5523 5 16 5H10V21C10 21.5523 9.55229 22 9 22C8.44772 22 8 21.5523 8 21V5H2C1.44772 5 1 4.55228 1 4C1 3.44772 1.44772 3 2 3H16ZM22 9.5C22.5523 9.5 23 9.94772 23 10.5C23 11.0523 22.5523 11.5 22 11.5H19V21C19 21.5523 18.5523 22 18 22C17.4477 22 17 21.5523 17 21V11.5H14C13.4477 11.5 13 11.0523 13 10.5C13 9.94772 13.4477 9.5 14 9.5H22Z" fill="#9E9E9E"/>
</g>
</svg>
