<svg width="24" height="24" viewBox="0 0 24 24" fill="none" xmlns="http://www.w3.org/2000/svg">
<g id="icons/Edit/adjacent-item">
<path id="Union" d="M21 2.5C21.5523 2.5 22 2.94772 22 3.5V9.5C22 10.0523 21.5523 10.5 21 10.5H7C6.44772 10.5 6 10.0523 6 9.5V7.5H4V16.5H6V14.5C6 13.9477 6.44772 13.5 7 13.5H21C21.5523 13.5 22 13.9477 22 14.5V20.5C22 21.0523 21.5523 21.5 21 21.5H7C6.44772 21.5 6 21.0523 6 20.5V18.5H3C2.44772 18.5 2 18.0523 2 17.5V6.5C2 5.94772 2.44772 5.5 3 5.5H6V3.5C6 2.94772 6.44772 2.5 7 2.5H21Z" fill="#9E9E9E"/>
</g>
</svg>
