<svg width="24" height="24" viewBox="0 0 24 24" fill="none" xmlns="http://www.w3.org/2000/svg">
<g id="icons/Edit/adjustment">
<path id="Union" d="M20 1.5C21.3807 1.5 22.5 2.6193 22.5 4V20C22.5 21.3807 21.3807 22.5 20 22.5H4C2.6193 22.5 1.5 21.3807 1.5 20V4C1.5 2.61929 2.61929 1.5 4 1.5H20ZM4 3.5C3.72386 3.5 3.5 3.72386 3.5 4V20C3.5 20.2762 3.72385 20.5 4 20.5H20C20.2762 20.5 20.5 20.2762 20.5 20V4C20.5 3.72385 20.2762 3.5 20 3.5H4ZM17.293 5.29297C17.6835 4.90244 18.3165 4.90244 18.707 5.29297C19.0976 5.68349 19.0976 6.31651 18.707 6.70703L6.70703 18.707C6.31651 19.0976 5.68349 19.0976 5.29297 18.707C4.90244 18.3165 4.90244 17.6835 5.29297 17.293L17.293 5.29297ZM17.5 15.5C18.0523 15.5 18.5 15.9477 18.5 16.5C18.5 17.0523 18.0523 17.5 17.5 17.5H13.5C12.9477 17.5 12.5 17.0523 12.5 16.5C12.5 15.9477 12.9477 15.5 13.5 15.5H17.5ZM8 5C8.55228 5 9 5.44772 9 6V7H10C10.5523 7 11 7.44772 11 8C11 8.55228 10.5523 9 10 9H9V10C9 10.5523 8.55228 11 8 11C7.44772 11 7 10.5523 7 10V9H6C5.44772 9 5 8.55228 5 8C5 7.44772 5.44772 7 6 7H7V6C7 5.44772 7.44772 5 8 5Z" fill="#9E9E9E"/>
</g>
</svg>
