<svg width="24" height="24" viewBox="0 0 24 24" fill="none" xmlns="http://www.w3.org/2000/svg">
<g id="icons/Edit/afferent-two">
<path id="Union" d="M19.5 2C20.8807 2 22 3.1193 22 4.5V13.125C22 13.6773 21.5523 14.125 21 14.125C20.4477 14.125 20 13.6773 20 13.125V4.5C20 4.22385 19.7762 4 19.5 4H4.5C4.22386 4 4 4.22386 4 4.5V19.5C4 19.7762 4.22385 20 4.5 20H10.875C11.4273 20 11.875 20.4477 11.875 21C11.875 21.5523 11.4273 22 10.875 22H4.5C3.1193 22 2 20.8807 2 19.5V4.5C2 3.11929 3.11929 2 4.5 2H19.5ZM14.293 13.293C14.6835 12.9024 15.3165 12.9024 15.707 13.293C16.0976 13.6835 16.0976 14.3165 15.707 14.707L14.4141 16H21C21.5523 16 22 16.4477 22 17C22 17.5523 21.5523 18 21 18H14.4141L15.707 19.293C16.0976 19.6835 16.0976 20.3165 15.707 20.707C15.3165 21.0976 14.6835 21.0976 14.293 20.707L11.293 17.707C11.2654 17.6794 11.2405 17.65 11.2168 17.6201C11.1807 17.5745 11.148 17.5261 11.1201 17.4746C11.1127 17.4609 11.1063 17.4466 11.0996 17.4326C11.0778 17.3873 11.0578 17.3408 11.043 17.292C11.0303 17.2503 11.0218 17.2077 11.0146 17.165C11.0057 17.1113 11 17.0563 11 17C11 16.9203 11.0097 16.8429 11.0273 16.7686C11.0322 16.748 11.0368 16.7273 11.043 16.707C11.0579 16.6583 11.0778 16.6117 11.0996 16.5664C11.1188 16.5266 11.1403 16.4877 11.165 16.4502C11.2024 16.3935 11.2452 16.3408 11.293 16.293L14.293 13.293Z" fill="#9E9E9E"/>
</g>
</svg>
