<svg width="24" height="24" viewBox="0 0 24 24" fill="none" xmlns="http://www.w3.org/2000/svg">
<g id="icons/Edit/afferent">
<path id="Union" d="M19.5 2C20.8807 2 22 3.1193 22 4.5V6.9375C22 7.48978 21.5523 7.9375 21 7.9375C20.4477 7.9375 20 7.48978 20 6.9375V4.5C20 4.22385 19.7762 4 19.5 4H4.5C4.22386 4 4 4.22386 4 4.5V19.5C4 19.7762 4.22385 20 4.5 20H19.5C19.7762 20 20 19.7762 20 19.5V17.3438C20 16.7915 20.4477 16.3438 21 16.3438C21.5523 16.3438 22 16.7915 22 17.3438V19.5C22 20.8807 20.8807 22 19.5 22H4.5C3.1193 22 2 20.8807 2 19.5V4.5C2 3.11929 3.11929 2 4.5 2H19.5ZM14.293 8.29297C14.6835 7.90244 15.3165 7.90244 15.707 8.29297C16.0976 8.68349 16.0976 9.31651 15.707 9.70703L14.4141 11H21C21.5523 11 22 11.4477 22 12C22 12.5523 21.5523 13 21 13H14.4141L15.707 14.293C16.0976 14.6835 16.0976 15.3165 15.707 15.707C15.3165 16.0976 14.6835 16.0976 14.293 15.707L11.293 12.707C11.2654 12.6794 11.2405 12.65 11.2168 12.6201C11.1807 12.5745 11.148 12.5261 11.1201 12.4746C11.1127 12.4609 11.1063 12.4466 11.0996 12.4326C11.0778 12.3873 11.0578 12.3408 11.043 12.292C11.0303 12.2503 11.0218 12.2077 11.0146 12.165C11.0057 12.1113 11 12.0563 11 12C11 11.9203 11.0097 11.8429 11.0273 11.7686C11.0322 11.748 11.0368 11.7273 11.043 11.707C11.0579 11.6583 11.0778 11.6117 11.0996 11.5664C11.1188 11.5266 11.1403 11.4877 11.165 11.4502C11.2024 11.3935 11.2452 11.3408 11.293 11.293L14.293 8.29297Z" fill="#9E9E9E"/>
</g>
</svg>
