<svg width="24" height="24" viewBox="0 0 21.668 21.668" fill="none" xmlns="http://www.w3.org/2000/svg">
<g id="icons/Edit/ai-intract">
<path id="Union" d="M18.332 0C18.6018 2.6194e-05 18.8691 0.053423 19.1182 0.157227C19.3661 0.260658 19.5919 0.412061 19.7812 0.602539L21.0615 1.88281H21.0605C21.2514 2.07062 21.4036 2.29426 21.5078 2.54102C21.6135 2.79124 21.6679 3.06042 21.668 3.33203C21.6679 3.60361 21.6134 3.87285 21.5078 4.12305C21.4036 4.36964 21.2513 4.59255 21.0605 4.78027L16.4346 9.40625C16.4298 9.41124 16.4258 9.41697 16.4209 9.42188C16.416 9.42678 16.4103 9.43079 16.4053 9.43555L4.78125 21.0615L4.78027 21.0605C4.59255 21.2513 4.36964 21.4036 4.12305 21.5078C3.87285 21.6134 3.60361 21.6679 3.33203 21.668C3.06042 21.6679 2.79124 21.6135 2.54102 21.5078C2.29426 21.4036 2.07062 21.2514 1.88281 21.0605V21.0615L0.602539 19.7812L0.603516 19.7803C0.413035 19.5909 0.260658 19.3661 0.157227 19.1182C0.053423 18.8691 2.6194e-05 18.6018 0 18.332C2.61713e-05 18.062 0.0532435 17.7941 0.157227 17.5449C0.261188 17.2958 0.413651 17.0698 0.605469 16.8799L16.8828 0.602539C17.0721 0.412106 17.2971 0.260656 17.5449 0.157227C17.7941 0.0532435 18.062 2.61713e-05 18.332 0ZM1.77832 18.0645C1.74302 18.0994 1.71448 18.1407 1.69531 18.1865C1.67616 18.2324 1.66604 18.2823 1.66602 18.332C1.66604 18.3816 1.67631 18.4308 1.69531 18.4766C1.70482 18.4993 1.71678 18.5216 1.73047 18.542L1.77832 18.5996L3.06934 19.8906L3.125 19.9375C3.14509 19.9512 3.16693 19.9631 3.18945 19.9727C3.23447 19.9916 3.28317 20.0019 3.33203 20.002C3.38092 20.0019 3.42956 19.9917 3.47461 19.9727C3.51968 19.9536 3.5606 19.9257 3.59473 19.8906L14.6533 8.83203L12.832 7.01074L1.77832 18.0645ZM17.832 12C18.2923 12 18.665 12.3728 18.665 12.833V14H19.832C20.2923 14 20.665 14.3728 20.665 14.833C20.665 15.2932 20.2923 15.666 19.832 15.666H18.665V16.833C18.665 17.2932 18.2923 17.666 17.832 17.666C17.3718 17.666 16.999 17.2932 16.999 16.833V15.666H15.832C15.3718 15.666 14.999 15.2932 14.999 14.833C14.999 14.3728 15.3718 14 15.832 14H16.999V12.833C16.999 12.3728 17.3718 12 17.832 12ZM3.83203 4C4.29227 4 4.66504 4.37277 4.66504 4.83301V6H5.83203C6.29227 6 6.66504 6.37277 6.66504 6.83301C6.66504 7.29325 6.29227 7.66602 5.83203 7.66602H4.66504V8.83301C4.66504 9.29325 4.29227 9.66602 3.83203 9.66602C3.37179 9.66602 2.99902 9.29325 2.99902 8.83301V7.66602H1.83203C1.37179 7.66602 0.999023 7.29325 0.999023 6.83301C0.999023 6.37277 1.37179 6 1.83203 6H2.99902V4.83301C2.99902 4.37277 3.37179 4 3.83203 4ZM18.332 1.66602C18.2823 1.66604 18.2324 1.67616 18.1865 1.69531C18.1407 1.71448 18.0994 1.74302 18.0645 1.77832L14.0098 5.83301L15.8311 7.6543L19.8906 3.59473L19.9375 3.53906C19.9513 3.51888 19.9631 3.49724 19.9727 3.47461C19.9917 3.42956 20.0019 3.38092 20.002 3.33203C20.0019 3.28317 19.9916 3.23447 19.9727 3.18945C19.9536 3.14447 19.9256 3.10342 19.8906 3.06934L18.5996 1.77832C18.5646 1.74303 18.5224 1.71445 18.4766 1.69531C18.4308 1.67631 18.3816 1.66604 18.332 1.66602ZM8.83203 0C9.29227 0 9.66504 0.372771 9.66504 0.833008V1H9.83203C10.2923 1 10.665 1.37277 10.665 1.83301C10.665 2.29325 10.2923 2.66602 9.83203 2.66602H9.66504V2.83301C9.66504 3.29325 9.29227 3.66602 8.83203 3.66602C8.37179 3.66602 7.99902 3.29325 7.99902 2.83301V2.66602H7.83203C7.37179 2.66602 6.99902 2.29325 6.99902 1.83301C6.99902 1.37277 7.37179 1 7.83203 1H7.99902V0.833008C7.99902 0.372771 8.37179 0 8.83203 0Z" fill="#9E9E9E"/>
</g>
</svg>
