<svg width="24" height="24" viewBox="0 0 24 24" fill="none" xmlns="http://www.w3.org/2000/svg">
<g id="icons/Edit/align-left-one">
<path id="Union" d="M3 2C3.55228 2 4 2.44772 4 3V21C4 21.5523 3.55228 22 3 22C2.44772 22 2 21.5523 2 21V3C2 2.44772 2.44772 2 3 2ZM21 17C21.5523 17 22 17.4477 22 18V21C22 21.5523 21.5523 22 21 22H8C7.44772 22 7 21.5523 7 21V18C7 17.4477 7.44772 17 8 17H21ZM9 20H20V19H9V20ZM18 9.5C18.5523 9.5 19 9.94772 19 10.5V13.5C19 14.0523 18.5523 14.5 18 14.5H8C7.44772 14.5 7 14.0523 7 13.5V10.5C7 9.94772 7.44772 9.5 8 9.5H18ZM9 12.5H17V11.5H9V12.5ZM16 2C16.5523 2 17 2.44772 17 3V6C17 6.55228 16.5523 7 16 7H8C7.44772 7 7 6.55228 7 6V3C7 2.44772 7.44772 2 8 2H16ZM9 5H15V4H9V5Z" fill="#9E9E9E"/>
</g>
</svg>
