<svg width="24" height="24" viewBox="0 0 24 24" fill="none" xmlns="http://www.w3.org/2000/svg">
<g id="icons/Edit/align-left-two">
<path id="Union" d="M13 16.5C13.5523 16.5 14 16.9477 14 17.5V20.5C14 21.0523 13.5523 21.5 13 21.5H4C3.44772 21.5 3 21.0523 3 20.5V17.5C3 16.9477 3.44772 16.5 4 16.5H13ZM5 19.5H12V18.5H5V19.5ZM20 9.5C20.5523 9.5 21 9.94772 21 10.5V13.5C21 14.0523 20.5523 14.5 20 14.5H4C3.44772 14.5 3 14.0523 3 13.5V10.5C3 9.94772 3.44772 9.5 4 9.5H20ZM5 12.5H19V11.5H5V12.5ZM16 2.5C16.5523 2.5 17 2.94772 17 3.5V6.5C17 7.05228 16.5523 7.5 16 7.5H4C3.44772 7.5 3 7.05228 3 6.5V3.5C3 2.94772 3.44772 2.5 4 2.5H16ZM5 5.5H15V4.5H5V5.5Z" fill="#9E9E9E"/>
</g>
</svg>
