<svg width="24" height="24" viewBox="0 0 24 24" fill="none" xmlns="http://www.w3.org/2000/svg">
<g id="icons/Edit/alignment-vertical-center">
<path id="Union" d="M19.5 2C20.8807 2 22 3.11929 22 4.5V19.5C22 20.8807 20.8807 22 19.5 22H4.5C3.11929 22 2 20.8807 2 19.5V4.5C2 3.11929 3.11929 2 4.5 2H19.5ZM4.5 4C4.22386 4 4 4.22386 4 4.5V19.5C4 19.7761 4.22386 20 4.5 20H19.5C19.7761 20 20 19.7761 20 19.5V4.5C20 4.22386 19.7761 4 19.5 4H4.5ZM12 8C12.5523 8 13 8.44772 13 9V15C13 15.5523 12.5523 16 12 16C11.4477 16 11 15.5523 11 15V9C11 8.44772 11.4477 8 12 8ZM15 9C15.5523 9 16 9.44772 16 10V14C16 14.5523 15.5523 15 15 15C14.4477 15 14 14.5523 14 14V10C14 9.44772 14.4477 9 15 9ZM9 10C9.55228 10 10 10.4477 10 11V13C10 13.5523 9.55228 14 9 14C8.44772 14 8 13.5523 8 13V11C8 10.4477 8.44772 10 9 10Z" fill="#9E9E9E"/>
</g>
</svg>
