<svg width="24" height="24" viewBox="0 0 24 24" fill="none" xmlns="http://www.w3.org/2000/svg">
<g id="icons/Edit/align-left">
<path id="Union" d="M3.25 2C3.80228 2 4.25 2.44772 4.25 3V21C4.25 21.5523 3.80228 22 3.25 22C2.69772 22 2.25 21.5523 2.25 21V3C2.25 2.44772 2.69772 2 3.25 2ZM21.25 7.5C21.8023 7.5 22.25 7.94772 22.25 8.5V15.5C22.25 16.0523 21.8023 16.5 21.25 16.5H7.25C6.69772 16.5 6.25 16.0523 6.25 15.5V8.5C6.25 7.94772 6.69772 7.5 7.25 7.5H21.25ZM8.25 14.5H20.25V9.5H8.25V14.5Z" fill="#9E9E9E"/>
</g>
</svg>
