<svg width="24" height="24" viewBox="0 0 24 24" fill="none" xmlns="http://www.w3.org/2000/svg">
<g id="icons/Edit/alignment-bottom-left">
<path id="Union" d="M19.5 2C20.8807 2 22 3.11929 22 4.5V19.5C22 20.8807 20.8807 22 19.5 22H4.5C3.11929 22 2 20.8807 2 19.5V4.5C2 3.11929 3.11929 2 4.5 2H19.5ZM4.5 4C4.22386 4 4 4.22386 4 4.5V19.5C4 19.7761 4.22386 20 4.5 20H19.5C19.7761 20 20 19.7761 20 19.5V4.5C20 4.22386 19.7761 4 19.5 4H4.5ZM6 15C6.55228 15 7 15.4477 7 16V18C7 18.5523 6.55228 19 6 19C5.44772 19 5 18.5523 5 18V16C5 15.4477 5.44772 15 6 15ZM9 11C9.55228 11 10 11.4477 10 12V18C10 18.5523 9.55228 19 9 19C8.44772 19 8 18.5523 8 18V12C8 11.4477 8.44772 11 9 11ZM12 13C12.5523 13 13 13.4477 13 14V18C13 18.5523 12.5523 19 12 19C11.4477 19 11 18.5523 11 18V14C11 13.4477 11.4477 13 12 13Z" fill="#9E9E9E"/>
</g>
</svg>
