<svg width="24" height="24" viewBox="0 0 24 24" fill="none" xmlns="http://www.w3.org/2000/svg">
<g id="icons/Edit/alignment-left-center">
<path id="Union" d="M19.5 2C20.8807 2 22 3.11929 22 4.5V19.5C22 20.8807 20.8807 22 19.5 22H4.5C3.11929 22 2 20.8807 2 19.5V4.5C2 3.11929 3.11929 2 4.5 2H19.5ZM4.5 4C4.22386 4 4 4.22386 4 4.5V19.5C4 19.7761 4.22386 20 4.5 20H19.5C19.7761 20 20 19.7761 20 19.5V4.5C20 4.22386 19.7761 4 19.5 4H4.5ZM8 14C8.55228 14 9 14.4477 9 15C9 15.5523 8.55228 16 8 16H6C5.44772 16 5 15.5523 5 15C5 14.4477 5.44772 14 6 14H8ZM12 11C12.5523 11 13 11.4477 13 12C13 12.5523 12.5523 13 12 13H6C5.44772 13 5 12.5523 5 12C5 11.4477 5.44772 11 6 11H12ZM10 8C10.5523 8 11 8.44772 11 9C11 9.55228 10.5523 10 10 10H6C5.44772 10 5 9.55228 5 9C5 8.44772 5.44772 8 6 8H10Z" fill="#9E9E9E"/>
</g>
</svg>
