<svg width="24" height="24" viewBox="0 0 24 24" fill="none" xmlns="http://www.w3.org/2000/svg">
<g id="icons/Edit/alignment-top-center">
<path id="Union" d="M19.5 2C20.8807 2 22 3.11929 22 4.5V19.5C22 20.8807 20.8807 22 19.5 22H4.5C3.11929 22 2 20.8807 2 19.5V4.5C2 3.11929 3.11929 2 4.5 2H19.5ZM4.5 4C4.22386 4 4 4.22386 4 4.5V19.5C4 19.7761 4.22386 20 4.5 20H19.5C19.7761 20 20 19.7761 20 19.5V4.5C20 4.22386 19.7761 4 19.5 4H4.5ZM12 5C12.5523 5 13 5.44772 13 6V12C13 12.5523 12.5523 13 12 13C11.4477 13 11 12.5523 11 12V6C11 5.44772 11.4477 5 12 5ZM15 5C15.5523 5 16 5.44772 16 6V10C16 10.5523 15.5523 11 15 11C14.4477 11 14 10.5523 14 10V6C14 5.44772 14.4477 5 15 5ZM9 5C9.55228 5 10 5.44772 10 6V8C10 8.55228 9.55228 9 9 9C8.44772 9 8 8.55228 8 8V6C8 5.44772 8.44772 5 9 5Z" fill="#9E9E9E"/>
</g>
</svg>
