<svg width="24" height="24" viewBox="0 0 24 24" fill="none" xmlns="http://www.w3.org/2000/svg">
<g id="icons/Edit/align-top">
<path id="Union" d="M15.5 6.25C16.0523 6.25 16.5 6.69772 16.5 7.25V21.25C16.5 21.8023 16.0523 22.25 15.5 22.25H8.5C7.94772 22.25 7.5 21.8023 7.5 21.25V7.25C7.5 6.69772 7.94772 6.25 8.5 6.25H15.5ZM9.5 20.25H14.5V8.25H9.5V20.25ZM21 2.25C21.5523 2.25 22 2.69772 22 3.25C22 3.80228 21.5523 4.25 21 4.25H3C2.44772 4.25 2 3.80228 2 3.25C2 2.69772 2.44772 2.25 3 2.25H21Z" fill="#9E9E9E"/>
</g>
</svg>
