<svg width="24" height="24" viewBox="0 0 24 24" fill="none" xmlns="http://www.w3.org/2000/svg">
<g id="icons/Edit/alignment-top-right">
<path id="Union" d="M19.5 2C20.8807 2 22 3.11929 22 4.5V19.5C22 20.8807 20.8807 22 19.5 22H4.5C3.11929 22 2 20.8807 2 19.5V4.5C2 3.11929 3.11929 2 4.5 2H19.5ZM4.5 4C4.22386 4 4 4.22386 4 4.5V19.5C4 19.7761 4.22386 20 4.5 20H19.5C19.7761 20 20 19.7761 20 19.5V4.5C20 4.22386 19.7761 4 19.5 4H4.5ZM15 5C15.5523 5 16 5.44772 16 6V12C16 12.5523 15.5523 13 15 13C14.4477 13 14 12.5523 14 12V6C14 5.44772 14.4477 5 15 5ZM18 5C18.5523 5 19 5.44772 19 6V10C19 10.5523 18.5523 11 18 11C17.4477 11 17 10.5523 17 10V6C17 5.44772 17.4477 5 18 5ZM12 5C12.5523 5 13 5.44772 13 6V8C13 8.55228 12.5523 9 12 9C11.4477 9 11 8.55228 11 8V6C11 5.44772 11.4477 5 12 5Z" fill="#9E9E9E"/>
</g>
</svg>
