<svg width="24" height="24" viewBox="0 0 24 24" fill="none" xmlns="http://www.w3.org/2000/svg">
<g id="icons/Edit/align-horizontally">
<path id="Union" d="M12 2C12.5523 2 13 2.44772 13 3V7.5H20.5C21.0523 7.5 21.5 7.94772 21.5 8.5V15.5C21.5 16.0523 21.0523 16.5 20.5 16.5H13V21C13 21.5523 12.5523 22 12 22C11.4477 22 11 21.5523 11 21V16.5H3.5C2.94772 16.5 2.5 16.0523 2.5 15.5V8.5C2.5 7.94772 2.94772 7.5 3.5 7.5H11V3C11 2.44772 11.4477 2 12 2ZM13 14.5H19.5V9.5H13V14.5ZM4.5 14.5H11V9.5H4.5V14.5Z" fill="#9E9E9E"/>
</g>
</svg>
