<svg width="24" height="24" viewBox="0 0 24 24" fill="none" xmlns="http://www.w3.org/2000/svg">
<g id="icons/Edit/align-vertical-center-two">
<path id="Union" d="M16.5 16.5C17.0523 16.5 17.5 16.9477 17.5 17.5V20.5C17.5 21.0523 17.0523 21.5 16.5 21.5H7.5C6.94772 21.5 6.5 21.0523 6.5 20.5V17.5C6.5 16.9477 6.94772 16.5 7.5 16.5H16.5ZM8.5 19.5H15.5V18.5H8.5V19.5ZM20 9.5C20.5523 9.5 21 9.94772 21 10.5V13.5C21 14.0523 20.5523 14.5 20 14.5H4C3.44772 14.5 3 14.0523 3 13.5V10.5C3 9.94772 3.44772 9.5 4 9.5H20ZM5 12.5H19V11.5H5V12.5ZM18 2.5C18.5523 2.5 19 2.94772 19 3.5V6.5C19 7.05228 18.5523 7.5 18 7.5H6C5.44772 7.5 5 7.05228 5 6.5V3.5C5 2.94772 5.44772 2.5 6 2.5H18ZM7 5.5H17V4.5H7V5.5Z" fill="#9E9E9E"/>
</g>
</svg>
