<svg width="24" height="24" viewBox="0 0 24 24" fill="none" xmlns="http://www.w3.org/2000/svg">
<g id="icons/Edit/alignment-vertical-right">
<path id="Union" d="M19.5 2C20.8807 2 22 3.11929 22 4.5V19.5C22 20.8807 20.8807 22 19.5 22H4.5C3.11929 22 2 20.8807 2 19.5V4.5C2 3.11929 3.11929 2 4.5 2H19.5ZM4.5 4C4.22386 4 4 4.22386 4 4.5V19.5C4 19.7761 4.22386 20 4.5 20H19.5C19.7761 20 20 19.7761 20 19.5V4.5C20 4.22386 19.7761 4 19.5 4H4.5ZM15 8C15.5523 8 16 8.44772 16 9V15C16 15.5523 15.5523 16 15 16C14.4477 16 14 15.5523 14 15V9C14 8.44772 14.4477 8 15 8ZM18 9C18.5523 9 19 9.44772 19 10V14C19 14.5523 18.5523 15 18 15C17.4477 15 17 14.5523 17 14V10C17 9.44772 17.4477 9 18 9ZM12 10C12.5523 10 13 10.4477 13 11V13C13 13.5523 12.5523 14 12 14C11.4477 14 11 13.5523 11 13V11C11 10.4477 11.4477 10 12 10Z" fill="#9E9E9E"/>
</g>
</svg>
