<svg width="24" height="24" viewBox="0 0 24 24" fill="none" xmlns="http://www.w3.org/2000/svg">
<g id="icons/Edit/align-right-two">
<path id="Union" d="M20 16.5C20.5523 16.5 21 16.9477 21 17.5V20.5C21 21.0523 20.5523 21.5 20 21.5H11C10.4477 21.5 10 21.0523 10 20.5V17.5C10 16.9477 10.4477 16.5 11 16.5H20ZM12 19.5H19V18.5H12V19.5ZM20 9.5C20.5523 9.5 21 9.94772 21 10.5V13.5C21 14.0523 20.5523 14.5 20 14.5H4C3.44772 14.5 3 14.0523 3 13.5V10.5C3 9.94772 3.44772 9.5 4 9.5H20ZM5 12.5H19V11.5H5V12.5ZM20 2.5C20.5523 2.5 21 2.94772 21 3.5V6.5C21 7.05228 20.5523 7.5 20 7.5H8C7.44772 7.5 7 7.05228 7 6.5V3.5C7 2.94772 7.44772 2.5 8 2.5H20ZM9 5.5H19V4.5H9V5.5Z" fill="#9E9E9E"/>
</g>
</svg>
