<svg width="24" height="24" viewBox="0 0 24 24" fill="none" xmlns="http://www.w3.org/2000/svg">
<g id="icons/Edit/alignment-bottom-right">
<path id="Union" d="M19.5 2C20.8807 2 22 3.11929 22 4.5V19.5C22 20.8807 20.8807 22 19.5 22H4.5C3.11929 22 2 20.8807 2 19.5V4.5C2 3.11929 3.11929 2 4.5 2H19.5ZM4.5 4C4.22386 4 4 4.22386 4 4.5V19.5C4 19.7761 4.22386 20 4.5 20H19.5C19.7761 20 20 19.7761 20 19.5V4.5C20 4.22386 19.7761 4 19.5 4H4.5ZM12 15C12.5523 15 13 15.4477 13 16V18C13 18.5523 12.5523 19 12 19C11.4477 19 11 18.5523 11 18V16C11 15.4477 11.4477 15 12 15ZM15 11C15.5523 11 16 11.4477 16 12V18C16 18.5523 15.5523 19 15 19C14.4477 19 14 18.5523 14 18V12C14 11.4477 14.4477 11 15 11ZM18 13C18.5523 13 19 13.4477 19 14V18C19 18.5523 18.5523 19 18 19C17.4477 19 17 18.5523 17 18V14C17 13.4477 17.4477 13 18 13Z" fill="#9E9E9E"/>
</g>
</svg>
