<svg width="24" height="24" viewBox="0 0 24 24" fill="none" xmlns="http://www.w3.org/2000/svg">
<g id="icons/Edit/alignment-right-bottom">
<path id="Union" d="M19.5 2C20.8807 2 22 3.11929 22 4.5V19.5C22 20.8807 20.8807 22 19.5 22H4.5C3.11929 22 2 20.8807 2 19.5V4.5C2 3.11929 3.11929 2 4.5 2H19.5ZM4.5 4C4.22386 4 4 4.22386 4 4.5V19.5C4 19.7761 4.22386 20 4.5 20H19.5C19.7761 20 20 19.7761 20 19.5V4.5C20 4.22386 19.7761 4 19.5 4H4.5ZM18 17C18.5523 17 19 17.4477 19 18C19 18.5523 18.5523 19 18 19H16C15.4477 19 15 18.5523 15 18C15 17.4477 15.4477 17 16 17H18ZM18 14C18.5523 14 19 14.4477 19 15C19 15.5523 18.5523 16 18 16H12C11.4477 16 11 15.5523 11 15C11 14.4477 11.4477 14 12 14H18ZM18 11C18.5523 11 19 11.4477 19 12C19 12.5523 18.5523 13 18 13H14C13.4477 13 13 12.5523 13 12C13 11.4477 13.4477 11 14 11H18Z" fill="#9E9E9E"/>
</g>
</svg>
