<svg width="24" height="24" viewBox="0 0 24 24" fill="none" xmlns="http://www.w3.org/2000/svg">
<g id="icons/Edit/alignment-vertical-left">
<path id="Union" d="M19.5 2C20.8807 2 22 3.11929 22 4.5V19.5C22 20.8807 20.8807 22 19.5 22H4.5C3.11929 22 2 20.8807 2 19.5V4.5C2 3.11929 3.11929 2 4.5 2H19.5ZM4.5 4C4.22386 4 4 4.22386 4 4.5V19.5C4 19.7761 4.22386 20 4.5 20H19.5C19.7761 20 20 19.7761 20 19.5V4.5C20 4.22386 19.7761 4 19.5 4H4.5ZM9 8C9.55228 8 10 8.44772 10 9V15C10 15.5523 9.55228 16 9 16C8.44772 16 8 15.5523 8 15V9C8 8.44772 8.44772 8 9 8ZM12 9C12.5523 9 13 9.44772 13 10V14C13 14.5523 12.5523 15 12 15C11.4477 15 11 14.5523 11 14V10C11 9.44772 11.4477 9 12 9ZM6 10C6.55228 10 7 10.4477 7 11V13C7 13.5523 6.55228 14 6 14C5.44772 14 5 13.5523 5 13V11C5 10.4477 5.44772 10 6 10Z" fill="#9E9E9E"/>
</g>
</svg>
