<svg width="24" height="24" viewBox="0 0 24 24" fill="none" xmlns="http://www.w3.org/2000/svg">
<g id="icons/Edit/align-right-one">
<path id="Union" d="M16 17C16.5523 17 17 17.4477 17 18V21C17 21.5523 16.5523 22 16 22H3C2.44772 22 2 21.5523 2 21V18C2 17.4477 2.44772 17 3 17H16ZM21 2C21.5523 2 22 2.44772 22 3V21C22 21.5523 21.5523 22 21 22C20.4477 22 20 21.5523 20 21V3C20 2.44772 20.4477 2 21 2ZM4 20H15V19H4V20ZM16 9.5C16.5523 9.5 17 9.94772 17 10.5V13.5C17 14.0523 16.5523 14.5 16 14.5H6C5.44772 14.5 5 14.0523 5 13.5V10.5C5 9.94772 5.44772 9.5 6 9.5H16ZM7 12.5H15V11.5H7V12.5ZM16 2C16.5523 2 17 2.44772 17 3V6C17 6.55228 16.5523 7 16 7H8C7.44772 7 7 6.55228 7 6V3C7 2.44772 7.44772 2 8 2H16ZM9 5H15V4H9V5Z" fill="#9E9E9E"/>
</g>
</svg>
