<svg width="24" height="24" viewBox="0 0 24 24" fill="none" xmlns="http://www.w3.org/2000/svg">
<g id="icons/Edit/align-vertically">
<path id="Union" d="M15.5 2.5C16.0523 2.5 16.5 2.94772 16.5 3.5V11H21C21.5523 11 22 11.4477 22 12C22 12.5523 21.5523 13 21 13H16.5V20.5C16.5 21.0523 16.0523 21.5 15.5 21.5H8.5C7.94772 21.5 7.5 21.0523 7.5 20.5V13H3C2.44772 13 2 12.5523 2 12C2 11.4477 2.44772 11 3 11H7.5V3.5C7.5 2.94772 7.94772 2.5 8.5 2.5H15.5ZM9.5 13V19.5H14.5V13H9.5ZM9.5 11H14.5V4.5H9.5V11Z" fill="#9E9E9E"/>
</g>
</svg>
