<svg width="24" height="24" viewBox="0 0 24 24" fill="none" xmlns="http://www.w3.org/2000/svg">
<g id="icons/Edit/align-horizontal-center-two">
<path id="Union" d="M13.5 3C14.0523 3 14.5 3.44772 14.5 4V20C14.5 20.5523 14.0523 21 13.5 21H10.5C9.94772 21 9.5 20.5523 9.5 20V4C9.5 3.44772 9.94772 3 10.5 3H13.5ZM6.5 5C7.05228 5 7.5 5.44772 7.5 6V18C7.5 18.5523 7.05228 19 6.5 19H3.5C2.94772 19 2.5 18.5523 2.5 18V6C2.5 5.44772 2.94772 5 3.5 5H6.5ZM11.5 19H12.5V5H11.5V19ZM20.5 6.5C21.0523 6.5 21.5 6.94772 21.5 7.5V16.5C21.5 17.0523 21.0523 17.5 20.5 17.5H17.5C16.9477 17.5 16.5 17.0523 16.5 16.5V7.5C16.5 6.94772 16.9477 6.5 17.5 6.5H20.5ZM4.5 17H5.5V7H4.5V17ZM18.5 15.5H19.5V8.5H18.5V15.5Z" fill="#9E9E9E"/>
</g>
</svg>
