<svg width="24" height="24" viewBox="0 0 24 24" fill="none" xmlns="http://www.w3.org/2000/svg">
<g id="icons/Edit/alignment-top-left">
<path id="Union" d="M19.5 2C20.8807 2 22 3.11929 22 4.5V19.5C22 20.8807 20.8807 22 19.5 22H4.5C3.11929 22 2 20.8807 2 19.5V4.5C2 3.11929 3.11929 2 4.5 2H19.5ZM4.5 4C4.22386 4 4 4.22386 4 4.5V19.5C4 19.7761 4.22386 20 4.5 20H19.5C19.7761 20 20 19.7761 20 19.5V4.5C20 4.22386 19.7761 4 19.5 4H4.5ZM9 5C9.55228 5 10 5.44772 10 6V12C10 12.5523 9.55228 13 9 13C8.44772 13 8 12.5523 8 12V6C8 5.44772 8.44772 5 9 5ZM12 5C12.5523 5 13 5.44772 13 6V10C13 10.5523 12.5523 11 12 11C11.4477 11 11 10.5523 11 10V6C11 5.44772 11.4477 5 12 5ZM6 5C6.55228 5 7 5.44772 7 6V8C7 8.55228 6.55228 9 6 9C5.44772 9 5 8.55228 5 8V6C5 5.44772 5.44772 5 6 5Z" fill="#9E9E9E"/>
</g>
</svg>
