<svg width="24" height="24" viewBox="0 0 24 24" fill="none" xmlns="http://www.w3.org/2000/svg">
<g id="icons/Edit/alignment-right-top">
<path id="Union" d="M19.5 2C20.8807 2 22 3.11929 22 4.5V19.5C22 20.8807 20.8807 22 19.5 22H4.5C3.11929 22 2 20.8807 2 19.5V4.5C2 3.11929 3.11929 2 4.5 2H19.5ZM4.5 4C4.22386 4 4 4.22386 4 4.5V19.5C4 19.7761 4.22386 20 4.5 20H19.5C19.7761 20 20 19.7761 20 19.5V4.5C20 4.22386 19.7761 4 19.5 4H4.5ZM18 11C18.5523 11 19 11.4477 19 12C19 12.5523 18.5523 13 18 13H16C15.4477 13 15 12.5523 15 12C15 11.4477 15.4477 11 16 11H18ZM18 8C18.5523 8 19 8.44772 19 9C19 9.55228 18.5523 10 18 10H12C11.4477 10 11 9.55228 11 9C11 8.44772 11.4477 8 12 8H18ZM18 5C18.5523 5 19 5.44772 19 6C19 6.55228 18.5523 7 18 7H14C13.4477 7 13 6.55228 13 6C13 5.44772 13.4477 5 14 5H18Z" fill="#9E9E9E"/>
</g>
</svg>
