<svg width="24" height="24" viewBox="0 0 24 24" fill="none" xmlns="http://www.w3.org/2000/svg">
<g id="icons/Edit/alignment-horizontal-center">
<path id="Union" d="M19.5 2C20.8807 2 22 3.11929 22 4.5V19.5C22 20.8807 20.8807 22 19.5 22H4.5C3.11929 22 2 20.8807 2 19.5V4.5C2 3.11929 3.11929 2 4.5 2H19.5ZM4.5 4C4.22386 4 4 4.22386 4 4.5V19.5C4 19.7761 4.22386 20 4.5 20H19.5C19.7761 20 20 19.7761 20 19.5V4.5C20 4.22386 19.7761 4 19.5 4H4.5ZM13 14C13.5523 14 14 14.4477 14 15C14 15.5523 13.5523 16 13 16H11C10.4477 16 10 15.5523 10 15C10 14.4477 10.4477 14 11 14H13ZM15 11C15.5523 11 16 11.4477 16 12C16 12.5523 15.5523 13 15 13H9C8.44772 13 8 12.5523 8 12C8 11.4477 8.44772 11 9 11H15ZM14 8C14.5523 8 15 8.44772 15 9C15 9.55228 14.5523 10 14 10H10C9.44772 10 9 9.55228 9 9C9 8.44772 9.44772 8 10 8H14Z" fill="#9E9E9E"/>
</g>
</svg>
