<svg width="24" height="24" viewBox="0 0 24 24" fill="none" xmlns="http://www.w3.org/2000/svg">
<g id="icons/Edit/alignment-right-center">
<path id="Union" d="M19.5 2C20.8807 2 22 3.11929 22 4.5V19.5C22 20.8807 20.8807 22 19.5 22H4.5C3.11929 22 2 20.8807 2 19.5V4.5C2 3.11929 3.11929 2 4.5 2H19.5ZM4.5 4C4.22386 4 4 4.22386 4 4.5V19.5C4 19.7761 4.22386 20 4.5 20H19.5C19.7761 20 20 19.7761 20 19.5V4.5C20 4.22386 19.7761 4 19.5 4H4.5ZM18 14C18.5523 14 19 14.4477 19 15C19 15.5523 18.5523 16 18 16H16C15.4477 16 15 15.5523 15 15C15 14.4477 15.4477 14 16 14H18ZM18 11C18.5523 11 19 11.4477 19 12C19 12.5523 18.5523 13 18 13H12C11.4477 13 11 12.5523 11 12C11 11.4477 11.4477 11 12 11H18ZM18 8C18.5523 8 19 8.44772 19 9C19 9.55228 18.5523 10 18 10H14C13.4477 10 13 9.55228 13 9C13 8.44772 13.4477 8 14 8H18Z" fill="#9E9E9E"/>
</g>
</svg>
