<svg width="24" height="24" viewBox="0 0 24 24" fill="none" xmlns="http://www.w3.org/2000/svg">
<g id="icons/Edit/alignment-left-bottom">
<path id="Union" d="M19.5 2C20.8807 2 22 3.11929 22 4.5V19.5C22 20.8807 20.8807 22 19.5 22H4.5C3.11929 22 2 20.8807 2 19.5V4.5C2 3.11929 3.11929 2 4.5 2H19.5ZM4.5 4C4.22386 4 4 4.22386 4 4.5V19.5C4 19.7761 4.22386 20 4.5 20H19.5C19.7761 20 20 19.7761 20 19.5V4.5C20 4.22386 19.7761 4 19.5 4H4.5ZM8 17C8.55228 17 9 17.4477 9 18C9 18.5523 8.55228 19 8 19H6C5.44772 19 5 18.5523 5 18C5 17.4477 5.44772 17 6 17H8ZM12 14C12.5523 14 13 14.4477 13 15C13 15.5523 12.5523 16 12 16H6C5.44772 16 5 15.5523 5 15C5 14.4477 5.44772 14 6 14H12ZM10 11C10.5523 11 11 11.4477 11 12C11 12.5523 10.5523 13 10 13H6C5.44772 13 5 12.5523 5 12C5 11.4477 5.44772 11 6 11H10Z" fill="#9E9E9E"/>
</g>
</svg>
