<svg width="24" height="24" viewBox="0 0 24 24" fill="none" xmlns="http://www.w3.org/2000/svg">
<g id="icons/Edit/align-text-center">
<path id="Union" d="M18 18.5C18.5523 18.5 19 18.9477 19 19.5C19 20.0523 18.5523 20.5 18 20.5H6C5.44772 20.5 5 20.0523 5 19.5C5 18.9477 5.44772 18.5 6 18.5H18ZM21 13.5C21.5523 13.5 22 13.9477 22 14.5C22 15.0523 21.5523 15.5 21 15.5H3C2.44772 15.5 2 15.0523 2 14.5C2 13.9477 2.44772 13.5 3 13.5H21ZM18 8.5C18.5523 8.5 19 8.94772 19 9.5C19 10.0523 18.5523 10.5 18 10.5H6C5.44772 10.5 5 10.0523 5 9.5C5 8.94772 5.44772 8.5 6 8.5H18ZM21 3.5C21.5523 3.5 22 3.94772 22 4.5C22 5.05228 21.5523 5.5 21 5.5H3C2.44772 5.5 2 5.05228 2 4.5C2 3.94772 2.44772 3.5 3 3.5H21Z" fill="#9E9E9E"/>
</g>
</svg>
