<svg width="24" height="24" viewBox="0 0 24 24" fill="none" xmlns="http://www.w3.org/2000/svg">
<g id="icons/Edit/alignment-horizontal-bottom">
<path id="Union" d="M19.5 2C20.8807 2 22 3.11929 22 4.5V19.5C22 20.8807 20.8807 22 19.5 22H4.5C3.11929 22 2 20.8807 2 19.5V4.5C2 3.11929 3.11929 2 4.5 2H19.5ZM4.5 4C4.22386 4 4 4.22386 4 4.5V19.5C4 19.7761 4.22386 20 4.5 20H19.5C19.7761 20 20 19.7761 20 19.5V4.5C20 4.22386 19.7761 4 19.5 4H4.5ZM13 17C13.5523 17 14 17.4477 14 18C14 18.5523 13.5523 19 13 19H11C10.4477 19 10 18.5523 10 18C10 17.4477 10.4477 17 11 17H13ZM15 14C15.5523 14 16 14.4477 16 15C16 15.5523 15.5523 16 15 16H9C8.44772 16 8 15.5523 8 15C8 14.4477 8.44772 14 9 14H15ZM14 11C14.5523 11 15 11.4477 15 12C15 12.5523 14.5523 13 14 13H10C9.44772 13 9 12.5523 9 12C9 11.4477 9.44772 11 10 11H14Z" fill="#9E9E9E"/>
</g>
</svg>
