<svg width="24" height="24" viewBox="0 0 24 24" fill="none" xmlns="http://www.w3.org/2000/svg">
<g id="icons/Edit/alphabetical-sorting-two">
<path id="Union" d="M7.65112 13C8.02985 13.0052 8.37313 13.2244 8.53784 13.5654L12.4001 21.5654C12.6402 22.0628 12.4317 22.6603 11.9343 22.9004C11.437 23.1403 10.8394 22.9318 10.5994 22.4346L7.6062 16.2354L4.38843 22.459C4.13475 22.9493 3.53119 23.142 3.04077 22.8887C2.55058 22.635 2.35788 22.0314 2.61108 21.541L6.74976 13.541L6.823 13.4209C7.01148 13.1556 7.3199 12.9956 7.65112 13ZM17.9998 1C18.552 1 18.9998 1.44772 18.9998 2V19.5859L21.2927 17.293C21.6832 16.9025 22.3163 16.9026 22.7068 17.293C23.0973 17.6835 23.0973 18.3165 22.7068 18.707L18.7068 22.707C18.3163 23.0974 17.6832 23.0975 17.2927 22.707L13.2927 18.707C12.9024 18.3165 12.9024 17.6835 13.2927 17.293C13.6832 16.9025 14.3163 16.9026 14.7068 17.293L16.9998 19.5859V2C16.9998 1.4478 17.4476 1.00014 17.9998 1ZM11.4998 1C11.9041 1 12.2688 1.24364 12.4236 1.61719C12.5784 1.99086 12.4928 2.42103 12.2068 2.70703L5.91382 9H11.4998C12.052 9 12.4998 9.44771 12.4998 10C12.4998 10.5523 12.052 11 11.4998 11H3.49976C3.09544 10.9999 2.73071 10.7563 2.57593 10.3828C2.42122 10.0092 2.50685 9.57894 2.79272 9.29297L9.08569 3H3.49976C2.94759 2.99986 2.49976 2.5522 2.49976 2C2.49976 1.4478 2.94759 1.00014 3.49976 1H11.4998Z" fill="#9E9E9E"/>
</g>
</svg>
