<svg width="24" height="24" viewBox="0 0 24 24" fill="none" xmlns="http://www.w3.org/2000/svg">
<g id="icons/Edit/alphabetical-sorting">
<path id="Union" d="M11.4998 13C11.9041 13 12.2687 13.2437 12.4236 13.6172C12.5784 13.9909 12.4928 14.421 12.2068 14.707L5.91382 21H11.4998C12.052 21 12.4997 21.4478 12.4998 22C12.4998 22.5523 12.052 23 11.4998 23H3.49976C3.09544 22.9999 2.73071 22.7563 2.57593 22.3828C2.42126 22.0092 2.50683 21.5789 2.79272 21.293L9.08569 15H3.49976C2.94759 14.9999 2.49976 14.5522 2.49976 14C2.4998 13.4478 2.94762 13.0001 3.49976 13H11.4998ZM17.9998 1C18.552 1 18.9997 1.44776 18.9998 2V19.5859L21.2927 17.293C21.6832 16.9025 22.3162 16.9026 22.7068 17.293C23.0973 17.6835 23.0973 18.3165 22.7068 18.707L18.7068 22.707C18.3163 23.0975 17.6832 23.0975 17.2927 22.707L13.2927 18.707C12.9024 18.3165 12.9023 17.6834 13.2927 17.293C13.6832 16.9025 14.3162 16.9026 14.7068 17.293L16.9998 19.5859V2C16.9998 1.44784 17.4476 1.00014 17.9998 1ZM7.65112 1C8.02982 1.00522 8.37312 1.2244 8.53784 1.56543L12.4001 9.56543C12.6402 10.0628 12.4317 10.6603 11.9343 10.9004C11.437 11.1403 10.8394 10.9318 10.5994 10.4346L7.6062 4.23535L4.38843 10.459C4.13478 10.9493 3.53121 11.142 3.04077 10.8887C2.55059 10.635 2.35783 10.0314 2.61108 9.54102L6.74976 1.54102L6.823 1.4209C7.01148 1.15563 7.3199 0.99564 7.65112 1Z" fill="#9E9E9E"/>
</g>
</svg>
