<svg width="24" height="24" viewBox="0 0 24 24" fill="none" xmlns="http://www.w3.org/2000/svg">
<g id="icons/Edit/aperture-priority">
<path id="Union" d="M15.1406 2.00977C15.4628 2.05546 15.7464 2.25641 15.8945 2.55273L17.1182 5H20.5C21.8146 5 23 6.01105 23 7.40039V19.5996C23 20.9889 21.8146 22 20.5 22H3.5C2.26742 22 1.14851 21.1115 1.01367 19.8555L1 19.5996V7.40039C1 6.01104 2.18539 5 3.5 5H6.88184L8.10547 2.55273L8.17676 2.43164C8.36169 2.16367 8.66854 2 9 2H15L15.1406 2.00977ZM3.5 7C3.15776 7 3 7.24334 3 7.40039V19.5996L3.00781 19.6621C3.04265 19.8138 3.20048 20 3.5 20H20.5C20.8423 20 21 19.7567 21 19.5996V7.40039C21 7.24333 20.8423 7 20.5 7H3.5ZM12 9C12.3788 9 12.7251 9.21395 12.8945 9.55273L16.3945 16.5527C16.6415 17.0467 16.4412 17.6475 15.9473 17.8945C15.4533 18.1415 14.8525 17.9412 14.6055 17.4473L13.8916 16.0195H10.1084L9.39453 17.4473C9.14754 17.9412 8.54671 18.1415 8.05273 17.8945C7.55876 17.6475 7.35848 17.0467 7.60547 16.5527L11.1055 9.55273L11.1768 9.43164C11.3617 9.16367 11.6685 9 12 9ZM11.1084 14.0195H12.8916L12 12.2363L11.1084 14.0195ZM9.11816 5H14.8818L14.3818 4H9.61816L9.11816 5Z" fill="#9E9E9E"/>
</g>
</svg>
