<svg width="24" height="24" viewBox="0 0 24 24" fill="none" xmlns="http://www.w3.org/2000/svg">
<g id="icons/Edit/application-two">
<path id="Union" d="M6.75 13C9.09721 13 11 14.9028 11 17.25C11 19.5972 9.09721 21.5 6.75 21.5C4.40279 21.5 2.5 19.5972 2.5 17.25C2.5 14.9028 4.40279 13 6.75 13ZM17.25 13C19.5972 13 21.5 14.9028 21.5 17.25C21.5 19.5972 19.5972 21.5 17.25 21.5C14.9028 21.5 13 19.5972 13 17.25C13 14.9028 14.9028 13 17.25 13ZM6.75 15C5.50736 15 4.5 16.0074 4.5 17.25C4.5 18.4926 5.50736 19.5 6.75 19.5C7.99264 19.5 9 18.4926 9 17.25C9 16.0074 7.99264 15 6.75 15ZM17.25 15C16.0074 15 15 16.0074 15 17.25C15 18.4926 16.0074 19.5 17.25 19.5C18.4926 19.5 19.5 18.4926 19.5 17.25C19.5 16.0074 18.4926 15 17.25 15ZM6.75 2.5C9.09721 2.5 11 4.40279 11 6.75C11 9.09721 9.09721 11 6.75 11C4.40279 11 2.5 9.09721 2.5 6.75C2.5 4.40279 4.40279 2.5 6.75 2.5ZM17.25 2.5C19.5972 2.5 21.5 4.40279 21.5 6.75C21.5 9.09721 19.5972 11 17.25 11C14.9028 11 13 9.09721 13 6.75C13 4.40279 14.9028 2.5 17.25 2.5ZM6.75 4.5C5.50736 4.5 4.5 5.50736 4.5 6.75C4.5 7.99264 5.50736 9 6.75 9C7.99264 9 9 7.99264 9 6.75C9 5.50736 7.99264 4.5 6.75 4.5ZM17.25 4.5C16.0074 4.5 15 5.50736 15 6.75C15 7.99264 16.0074 9 17.25 9C18.4926 9 19.5 7.99264 19.5 6.75C19.5 5.50736 18.4926 4.5 17.25 4.5Z" fill="#9E9E9E"/>
</g>
</svg>
