<svg width="24" height="24" viewBox="0 0 24 24" fill="none" xmlns="http://www.w3.org/2000/svg">
<g id="icons/Edit/auto-width">
<path id="Union" d="M17.2998 7.29297C17.6905 6.90264 18.3235 6.9023 18.7139 7.29297L22.707 11.29C22.8675 11.4506 22.9608 11.6524 22.9893 11.8613C22.9956 11.9067 23 11.9529 23 12C23 12.2911 22.8743 12.5516 22.6758 12.7344L18.707 16.707C18.3166 17.0974 17.6835 17.0973 17.293 16.707C16.9026 16.3166 16.9027 15.6836 17.293 15.293L19.583 13H4.40918L6.70117 15.293C7.0915 15.6836 7.09086 16.3167 6.7002 16.707C6.30953 17.0973 5.67648 17.0976 5.28613 16.707L1.29297 12.71C1.13327 12.5501 1.03971 12.3495 1.01074 12.1416C1.00417 12.0953 1 12.0481 1 12C1 11.709 1.1248 11.4474 1.32324 11.2646L5.29297 7.29297C5.68336 6.90257 6.31645 6.90269 6.70703 7.29297C7.09739 7.68337 7.0973 8.31646 6.70703 8.70703L4.41504 11H19.5908L17.2988 8.70703C16.9085 8.31637 16.9092 7.68334 17.2998 7.29297Z" fill="#9E9E9E"/>
</g>
</svg>
