<svg width="24" height="24" viewBox="0 0 24 24" fill="none" xmlns="http://www.w3.org/2000/svg">
<g id="icons/Edit/auto-width-one">
<path id="Union" d="M21 19.5C21.5523 19.5 22 19.9477 22 20.5C22 21.0523 21.5523 21.5 21 21.5H3C2.44772 21.5 2 21.0523 2 20.5C2 19.9477 2.44772 19.5 3 19.5H21ZM16.2979 8.29297C16.6885 7.90265 17.3215 7.90245 17.7119 8.29297L20.707 11.291C20.7968 11.3809 20.8646 11.4842 20.9131 11.5938C20.9163 11.6009 20.9198 11.608 20.9229 11.6152C20.9287 11.6294 20.9333 11.6439 20.9385 11.6582C20.9447 11.6754 20.9517 11.6924 20.957 11.71C20.9715 11.7584 20.9813 11.8077 20.9883 11.8574C20.995 11.9041 21 11.9515 21 12C21 12.2908 20.8749 12.5516 20.6768 12.7344L17.707 15.707C17.3166 16.0974 16.6836 16.0973 16.293 15.707C15.9026 15.3166 15.9027 14.6836 16.293 14.293L17.584 13H6.41113L7.70312 14.293C8.09335 14.6836 8.09263 15.3167 7.70215 15.707C7.31152 16.0973 6.67847 16.0975 6.28809 15.707L3.29297 12.709C3.20284 12.6188 3.13442 12.5153 3.08594 12.4053C3.08275 12.3981 3.0792 12.3911 3.07617 12.3838C3.07034 12.3697 3.0657 12.3551 3.06055 12.3408C3.04414 12.2956 3.03031 12.2491 3.02051 12.2012C3.01652 12.1814 3.01353 12.1615 3.01074 12.1416C3.00418 12.0953 3 12.0481 3 12C3 11.7092 3.12411 11.4474 3.32227 11.2646L6.29297 8.29297C6.68337 7.90257 7.31645 7.90268 7.70703 8.29297C8.09743 8.68337 8.09732 9.31645 7.70703 9.70703L6.41504 11H17.5889L16.2969 9.70703C15.9067 9.3164 15.9074 8.68332 16.2979 8.29297ZM21 2.5C21.5523 2.5 22 2.94772 22 3.5C22 4.05228 21.5523 4.5 21 4.5H3C2.44772 4.5 2 4.05228 2 3.5C2 2.94772 2.44772 2.5 3 2.5H21Z" fill="#9E9E9E"/>
</g>
</svg>
