<svg width="24" height="24" viewBox="0 0 24 24" fill="none" xmlns="http://www.w3.org/2000/svg">
<g id="icons/Edit/auto-line-height">
<path id="Union" d="M21 19.5C21.5523 19.5 22 19.9477 22 20.5C22 21.0523 21.5523 21.5 21 21.5H3C2.44772 21.5 2 21.0523 2 20.5C2 19.9477 2.44772 19.5 3 19.5H21ZM12.0449 5.50098C12.0642 5.50186 12.0834 5.50387 12.1025 5.50586C12.1149 5.50713 12.1273 5.50802 12.1396 5.50977C12.1616 5.51289 12.1834 5.51693 12.2051 5.52148C12.2149 5.52354 12.2246 5.52595 12.2344 5.52832C12.2517 5.53252 12.269 5.53688 12.2861 5.54199C12.3041 5.54737 12.322 5.55312 12.3398 5.55957C12.3525 5.56413 12.3645 5.57013 12.377 5.5752C12.3892 5.5802 12.4019 5.58432 12.4141 5.58984C12.4187 5.59196 12.4231 5.5945 12.4277 5.59668C12.4437 5.60421 12.4591 5.61273 12.4746 5.62109C12.4867 5.62762 12.499 5.63367 12.5107 5.64062C12.5263 5.64988 12.5415 5.65981 12.5566 5.66992C12.5976 5.69733 12.6361 5.72729 12.6719 5.75977C12.6738 5.76147 12.6759 5.76293 12.6777 5.76465L12.7354 5.82227C12.7368 5.8238 12.7379 5.82561 12.7393 5.82715C12.7718 5.86289 12.8016 5.90144 12.8291 5.94238C12.8392 5.95748 12.8491 5.97268 12.8584 5.98828C12.8654 6.00001 12.8714 6.01231 12.8779 6.02441C12.8863 6.03994 12.8948 6.05536 12.9023 6.07129C12.9047 6.07627 12.9079 6.0809 12.9102 6.08594L17.9102 17.0859C18.1386 17.5886 17.9166 18.1815 17.4141 18.4102C16.9114 18.6386 16.3185 18.4166 16.0898 17.9141L14.7656 15H9.23438L7.91016 17.9141C7.68152 18.4166 7.08862 18.6386 6.58594 18.4102C6.08336 18.1815 5.86135 17.5886 6.08984 17.0859L11.0898 6.08594C11.0921 6.08102 11.0944 6.07615 11.0967 6.07129C11.1042 6.05537 11.1127 6.03993 11.1211 6.02441C11.1276 6.01232 11.1337 6.00001 11.1406 5.98828C11.1499 5.97269 11.1598 5.95748 11.1699 5.94238C11.1974 5.90145 11.2273 5.86289 11.2598 5.82715C11.2704 5.81541 11.2817 5.80423 11.293 5.79297C11.3042 5.78171 11.3154 5.77042 11.3271 5.75977C11.3629 5.72729 11.4015 5.69735 11.4424 5.66992C11.4575 5.65981 11.4727 5.64989 11.4883 5.64062C11.5 5.63366 11.5123 5.62762 11.5244 5.62109C11.5399 5.61272 11.5554 5.60422 11.5713 5.59668C11.5761 5.59438 11.581 5.59208 11.5859 5.58984C11.5978 5.58444 11.6101 5.5801 11.6221 5.5752C11.6345 5.57012 11.6466 5.56414 11.6592 5.55957C11.677 5.5531 11.6949 5.54739 11.7129 5.54199C11.73 5.53687 11.7473 5.53253 11.7646 5.52832C11.7744 5.52595 11.7842 5.52355 11.7939 5.52148C11.8156 5.51691 11.8374 5.51291 11.8594 5.50977C11.8717 5.50801 11.8841 5.50714 11.8965 5.50586C11.9156 5.50385 11.9348 5.50188 11.9541 5.50098C11.9603 5.50069 11.9665 5.50017 11.9727 5.5H12.0273C12.0332 5.50016 12.0391 5.50072 12.0449 5.50098ZM10.1436 13H13.8564L11.999 8.91602L10.1436 13ZM21 2.5C21.5523 2.5 22 2.94772 22 3.5C22 4.05228 21.5523 4.5 21 4.5H3C2.44772 4.5 2 4.05228 2 3.5C2 2.94772 2.44772 2.5 3 2.5H21Z" fill="#9E9E9E"/>
</g>
</svg>
