<svg width="24" height="24" viewBox="0 0 24 24" fill="none" xmlns="http://www.w3.org/2000/svg">
<g id="icons/Edit/auto-focus">
<path id="Union" d="M3 10.999C3.12531 10.999 3.24493 11.0233 3.35547 11.0654C3.64545 11.1758 3.87065 11.4167 3.95898 11.7168C3.97002 11.7543 3.97776 11.7928 3.98438 11.832C3.99261 11.8808 3.99812 11.9305 3.99902 11.9814C3.99911 11.9863 3.99998 11.9912 4 11.9961V12.0039C4.00012 12.0118 4.00036 12.0263 4.00098 12.0459C4.00226 12.0863 4.00504 12.1509 4.01074 12.2354C4.02224 12.4052 4.04592 12.6577 4.09375 12.9678C4.18991 13.591 4.38205 14.4359 4.7627 15.3242C5.51549 17.0806 6.99432 19.0017 10.001 19.7812C13.0472 20.571 15.1821 19.7272 16.5693 18.7207C17.2756 18.2082 17.7974 17.6446 18.1416 17.21C18.3128 16.9937 18.4385 16.812 18.5186 16.6885C18.5584 16.627 18.5873 16.5798 18.6045 16.5508C18.613 16.5364 18.6191 16.5257 18.6221 16.5205C18.6233 16.5183 18.624 16.5167 18.624 16.5166C18.8895 16.0349 19.4951 15.8577 19.9785 16.1211C20.4632 16.3854 20.6419 16.9928 20.3779 17.4775L19.5 16.999C20.2974 17.434 20.3705 17.4744 20.377 17.4785V17.4805L20.375 17.4824C20.374 17.4842 20.3725 17.4868 20.3711 17.4893C20.3683 17.4943 20.3646 17.5012 20.3604 17.5088C20.3516 17.5242 20.34 17.5452 20.3252 17.5703C20.2953 17.6208 20.2523 17.6904 20.1973 17.7754C20.087 17.9457 19.9251 18.1805 19.71 18.4521C19.2809 18.9939 18.6303 19.6962 17.7432 20.3398C15.9429 21.6458 13.2025 22.677 9.49902 21.7168C6.83752 21.0267 5.11233 19.5851 4 18.0264V19.999C4 20.5513 3.55228 20.999 3 20.999C2.44772 20.999 2 20.5513 2 19.999V11.999C2.00025 11.447 2.44787 10.999 3 10.999ZM12 6.49902C15.0374 6.49902 17.4997 8.96167 17.5 11.999C17.5 15.0366 15.0376 17.499 12 17.499C8.96243 17.499 6.5 15.0366 6.5 11.999C6.50025 8.96167 8.96259 6.49902 12 6.49902ZM12 8.49902C10.0672 8.49902 8.50025 10.0662 8.5 11.999C8.5 13.932 10.067 15.499 12 15.499C13.933 15.499 15.5 13.932 15.5 11.999C15.4997 10.0662 13.9328 8.49902 12 8.49902ZM12 10.499C12.8283 10.499 13.4997 11.1708 13.5 11.999C13.5 12.8275 12.8284 13.499 12 13.499C11.1716 13.499 10.5 12.8275 10.5 11.999C10.5003 11.1708 11.1717 10.499 12 10.499ZM6.63672 3.57031C8.58276 2.28475 11.4684 1.30457 15.0771 2.55371C17.4127 3.36217 18.9677 4.68355 20 6.0918V3.99902C20.0003 3.44695 20.4479 2.99902 21 2.99902C21.5521 2.99902 21.9997 3.44695 22 3.99902V11.999C22 12.0087 21.9983 12.0187 21.998 12.0283C21.9993 12.0892 22.0012 12.1404 22.001 12.1807C22.0008 12.21 22.0004 12.2342 22 12.252C21.9998 12.2607 22.0001 12.2686 22 12.2744C21.9999 12.2771 21.9992 12.2802 21.999 12.2822V12.2861L21.958 12.2842L21.957 12.2852L21.999 12.2871C21.9778 12.8389 21.5136 13.2691 20.9619 13.248C20.41 13.2268 19.9798 12.7618 20.001 12.21V12.1699C20.0012 12.1334 20.0015 12.0746 19.999 11.9971C19.994 11.8409 19.9794 11.6077 19.9443 11.3184C19.8738 10.7368 19.7186 9.94005 19.3818 9.08398C18.7162 7.39244 17.3433 5.4543 14.4229 4.44336C11.5324 3.44291 9.29215 4.21266 7.73828 5.23926C6.9516 5.75908 6.34252 6.34573 5.93066 6.80371C5.72578 7.03156 5.57275 7.22567 5.47266 7.3584C5.42285 7.42445 5.38588 7.4755 5.36328 7.50781C5.35225 7.5236 5.34418 7.53557 5.33984 7.54199C5.33922 7.54292 5.33758 7.54338 5.33691 7.54395L5.33789 7.54492C5.03621 8.0075 4.41669 8.13757 3.9541 7.83594C3.49168 7.53419 3.36046 6.91468 3.66211 6.45215L4.37598 6.91797C3.66257 6.45265 3.66281 6.45159 3.66309 6.45117L3.66406 6.4502L3.66504 6.44824C3.66613 6.44649 3.66741 6.44372 3.66895 6.44141C3.67217 6.43656 3.67667 6.43022 3.68164 6.42285C3.6919 6.40764 3.70599 6.38657 3.72363 6.36133C3.7591 6.31061 3.81005 6.24044 3.875 6.1543C4.00538 5.9814 4.19639 5.74253 4.44434 5.4668C4.93866 4.91713 5.67397 4.20641 6.63672 3.57031Z" fill="#9E9E9E"/>
</g>
</svg>
