<svg width="24" height="24" viewBox="0 0 24 24" fill="none" xmlns="http://www.w3.org/2000/svg">
<g id="icons/Edit/auto-height-one">
<path id="Union" d="M3.5 2C4.05228 2 4.5 2.44772 4.5 3V21C4.5 21.5523 4.05228 22 3.5 22C2.94772 22 2.5 21.5523 2.5 21V3C2.5 2.44772 2.94772 2 3.5 2ZM20.5 2C21.0523 2 21.5 2.44772 21.5 3V21C21.5 21.5523 21.0523 22 20.5 22C19.9477 22 19.5 21.5523 19.5 21V3C19.5 2.44772 19.9477 2 20.5 2ZM12.0205 3.00098C12.0368 3.00136 12.0531 3.00176 12.0693 3.00293C12.09 3.00435 12.1105 3.00613 12.1309 3.00879C12.1348 3.00932 12.1387 3.01017 12.1426 3.01074C12.3755 3.04401 12.5821 3.15738 12.7344 3.32227L15.707 6.29297C16.0974 6.68337 16.0973 7.31645 15.707 7.70703C15.3166 8.09743 14.6836 8.09732 14.293 7.70703L13 6.41504V17.5879L14.293 16.2969C14.6836 15.9067 15.3167 15.9074 15.707 16.2979C16.0973 16.6885 16.0975 17.3215 15.707 17.7119L12.709 20.707C12.6189 20.7971 12.5152 20.8646 12.4053 20.9131C12.3981 20.9163 12.3911 20.9198 12.3838 20.9229C12.3697 20.9287 12.3552 20.9333 12.3408 20.9385C12.3236 20.9447 12.3067 20.9517 12.2891 20.957C12.2406 20.9715 12.1913 20.9813 12.1416 20.9883C12.1095 20.9928 12.077 20.9956 12.0439 20.9971C12.0296 20.9977 12.0153 20.999 12.001 20.999L12 21C11.7089 21 11.4474 20.8752 11.2646 20.6768L8.29297 17.707C7.90257 17.3166 7.90268 16.6836 8.29297 16.293C8.68337 15.9026 9.31645 15.9027 9.70703 16.293L11 17.584V6.41016L9.70703 7.70312C9.3164 8.09335 8.68332 8.09263 8.29297 7.70215C7.90265 7.31152 7.90245 6.67847 8.29297 6.28809L11.291 3.29297L11.3672 3.22363C11.4953 3.11937 11.6431 3.05181 11.7969 3.02051C11.7998 3.0199 11.8027 3.01913 11.8057 3.01855C11.8303 3.01377 11.855 3.00975 11.8799 3.00684C11.8857 3.00614 11.8916 3.00548 11.8975 3.00488L11.9561 3.00098C11.9639 3.00066 11.9717 3.00111 11.9795 3.00098C11.9863 3.00084 11.9931 3 12 3C12.0069 3 12.0137 3.00084 12.0205 3.00098Z" fill="#9E9E9E"/>
</g>
</svg>
