<svg width="24" height="24" viewBox="0 0 24 24" fill="none" xmlns="http://www.w3.org/2000/svg">
<g id="icons/Edit/back">
<path id="Union" d="M9.34314 2.80176C9.62697 2.51085 10.0593 2.42028 10.4359 2.57324C10.8126 2.72649 11.0598 3.09336 11.0599 3.5V7.62891C14.0762 7.86788 16.6924 9.09456 18.8666 11.2979C21.2608 13.7241 22.6334 16.7475 22.9955 20.3174C23.0399 20.756 22.7912 21.1725 22.3842 21.3418C21.9768 21.511 21.5065 21.393 21.2269 21.0518C18.8042 18.0944 16.8178 16.64 15.2748 16.3125C13.7971 15.999 12.3935 15.9081 11.0599 16.0312V20.5C11.0599 20.9116 10.8064 21.2816 10.4232 21.4316C10.0399 21.5813 9.60378 21.481 9.32458 21.1787L1.26599 12.4512C0.90524 12.0605 0.913489 11.4561 1.28455 11.0752L9.34314 2.80176ZM3.3783 11.79L9.05994 17.9424V15.1514C9.06014 14.6617 9.41455 14.2442 9.89783 14.165C11.7502 13.8618 13.684 13.9299 15.6898 14.3555C17.1512 14.6656 18.6561 15.5896 20.2074 17.0215C19.5985 15.3903 18.6782 13.9532 17.4437 12.7021C15.4076 10.6388 12.9614 9.60611 10.0511 9.58301C9.50232 9.57844 9.0602 9.13282 9.05994 8.58398V5.95898L3.3783 11.79Z" fill="#9E9E9E"/>
</g>
</svg>
