<svg width="24" height="24" viewBox="0 0 24 24" fill="none" xmlns="http://www.w3.org/2000/svg">
<g id="icons/Edit/background-color">
<path id="Union" d="M22 20.5C22.5523 20.5 23 20.9477 23 21.5C23 22.0522 22.5523 22.5 22 22.5H2C1.44774 22.5 1.00004 22.0522 1 21.5C1 20.9477 1.44772 20.5 2 20.5H22ZM9.71973 2.04492C10.1103 1.6544 10.7433 1.6544 11.1338 2.04492L18.2051 9.11621C18.5951 9.50675 18.5954 10.1399 18.2051 10.5303L10.4268 18.3086C10.2393 18.496 9.98476 18.6005 9.71973 18.6006C9.45473 18.6006 9.20019 18.4958 9.0127 18.3086L3.35547 12.6514C2.96498 12.2609 2.96505 11.6278 3.35547 11.2373L10.4268 4.16602L9.71973 3.45898C9.32922 3.06847 9.32924 2.43545 9.71973 2.04492ZM18.5 13.5C19.8333 14.7636 20.5 15.7636 20.5 16.5C20.5 17.6045 19.6045 18.5 18.5 18.5C17.3955 18.5 16.5 17.6045 16.5 16.5C16.5 15.7636 17.1667 14.7636 18.5 13.5ZM5.47656 11.9434L9.71875 16.1865L12.6348 13.2695L6.24805 11.1709L5.47656 11.9434ZM7.83301 9.58594L14.2188 11.6855L16.083 9.82227L11.8398 5.58008L7.83301 9.58594Z" fill="#9E9E9E"/>
</g>
</svg>
