<svg width="24" height="24" viewBox="0 0 24 24" fill="none" xmlns="http://www.w3.org/2000/svg">
<g id="icons/Edit/block">
<path id="Union" d="M3 1.5C3.55228 1.5 4 1.94772 4 2.5V21.5C4 22.0523 3.55228 22.5 3 22.5C2.44772 22.5 2 22.0523 2 21.5V2.5C2 1.94772 2.44772 1.5 3 1.5ZM21 1.5C21.5523 1.5 22 1.94772 22 2.5V21.5C22 22.0523 21.5523 22.5 21 22.5C20.4477 22.5 20 22.0523 20 21.5V2.5C20 1.94772 20.4477 1.5 21 1.5ZM16.5986 3.00488C16.8276 3.02757 17.0429 3.12883 17.207 3.29297L18.707 4.79297C19.0976 5.18349 19.0976 5.81651 18.707 6.20703C18.3165 6.59756 17.6835 6.59756 17.293 6.20703L16.0859 5H8.41406L14.707 11.293C15.0976 11.6835 15.0976 12.3165 14.707 12.707L8.41406 19H16.0859L17.293 17.793C17.6835 17.4024 18.3165 17.4024 18.707 17.793C19.0976 18.1835 19.0976 18.8165 18.707 19.207L17.207 20.707C17.0195 20.8946 16.7652 21 16.5 21H6C5.59558 21 5.23098 20.7564 5.07617 20.3828C4.92139 20.0091 5.00697 19.579 5.29297 19.293L12.5859 12L5.29297 4.70703C5.00697 4.42103 4.92139 3.99086 5.07617 3.61719C5.23098 3.24359 5.59558 3 6 3H16.5L16.5986 3.00488Z" fill="#9E9E9E"/>
</g>
</svg>
