<svg width="24" height="24" viewBox="0 0 24 24" fill="none" xmlns="http://www.w3.org/2000/svg">
<g id="icons/Edit/brightness">
<path id="Union" d="M12 19.6758C12.5523 19.6758 13 20.1235 13 20.6758V22.1758C13 22.7281 12.5523 23.1758 12 23.1758C11.4477 23.1758 11 22.7281 11 22.1758V20.6758C11 20.1235 11.4477 19.6758 12 19.6758ZM4.8252 17.666C5.21461 17.2744 5.84764 17.2727 6.23926 17.6621C6.63083 18.0515 6.63255 18.6846 6.24316 19.0762L5.21973 20.1055C4.83031 20.497 4.19728 20.4988 3.80566 20.1094C3.41409 19.72 3.41237 19.0869 3.80176 18.6953L4.8252 17.666ZM18.0596 17.46C18.4501 17.0694 19.0831 17.0694 19.4736 17.46L20.707 18.6934C21.0976 19.0839 21.0976 19.7169 20.707 20.1074C20.3165 20.4979 19.6835 20.4979 19.293 20.1074L18.0596 18.874C17.669 18.4835 17.669 17.8505 18.0596 17.46ZM12.0098 5.67578C15.5996 5.67578 18.5098 8.58595 18.5098 12.1758C18.5098 15.7656 15.5996 18.6758 12.0098 18.6758C8.41993 18.6758 5.50977 15.7656 5.50977 12.1758C5.50977 8.58595 8.41993 5.67578 12.0098 5.67578ZM12.0098 7.67578C9.5245 7.67578 7.50977 9.69052 7.50977 12.1758C7.50977 14.661 9.5245 16.6758 12.0098 16.6758C14.495 16.6758 16.5098 14.661 16.5098 12.1758C16.5098 9.69052 14.495 7.67578 12.0098 7.67578ZM12.0098 15.6758C10.0768 15.6758 8.50977 14.1088 8.50977 12.1758C8.50977 10.3031 9.98059 8.7742 11.8301 8.68066L12.0098 15.6758ZM4 11.1758C4.55228 11.1758 5 11.6235 5 12.1758C5 12.7281 4.55228 13.1758 4 13.1758H2C1.44777 13.1757 1 12.728 1 12.1758C1 11.6235 1.44777 11.1758 2 11.1758H4ZM22 10.6758C22.5522 10.6758 23 11.1235 23 11.6758C23 12.228 22.5522 12.6757 22 12.6758H20C19.4477 12.6758 19 12.2281 19 11.6758C19 11.1235 19.4477 10.6758 20 10.6758H22ZM18.7715 3.79883C19.1609 3.40742 19.794 3.40559 20.1855 3.79492C20.5769 4.18432 20.5787 4.81741 20.1895 5.20898L18.959 6.44629C18.5696 6.83781 17.9365 6.83956 17.5449 6.4502C17.1533 6.06079 17.1516 5.42776 17.541 5.03613L18.7715 3.79883ZM4.31543 3.79688C4.70595 3.40635 5.33897 3.40636 5.72949 3.79688L6.75586 4.82324C7.14639 5.21376 7.14638 5.84678 6.75586 6.2373C6.36534 6.62782 5.73232 6.62782 5.3418 6.2373L4.31543 5.21094C3.92491 4.82042 3.92491 4.1874 4.31543 3.79688ZM12 0.675781C12.5523 0.675781 13 1.1235 13 1.67578V3.67578C13 4.22807 12.5523 4.67578 12 4.67578C11.4477 4.67578 11 4.22807 11 3.67578V1.67578C11 1.1235 11.4477 0.675781 12 0.675781Z" fill="#9E9E9E"/>
</g>
</svg>
