<svg width="24" height="24" viewBox="0 0 24 24" fill="none" xmlns="http://www.w3.org/2000/svg">
<g id="icons/Edit/bring-forward">
<path id="Union" d="M12.0205 2.00098C12.0381 2.00133 12.0557 2.00165 12.0732 2.00293C12.0909 2.00421 12.1085 2.00562 12.126 2.00781C12.1378 2.0093 12.1494 2.01177 12.1611 2.01367C12.1802 2.01676 12.1991 2.02026 12.2178 2.02441C12.2269 2.02645 12.236 2.02895 12.2451 2.03125C12.3141 2.04866 12.3799 2.07357 12.4424 2.10449C12.4746 2.12042 12.5064 2.13761 12.5371 2.15723C12.5449 2.16219 12.5529 2.16671 12.5605 2.17188C12.6122 2.2069 12.6613 2.24722 12.707 2.29297L15.707 5.29297C16.0976 5.68349 16.0976 6.31651 15.707 6.70703C15.3165 7.09756 14.6835 7.09756 14.293 6.70703L13 5.41406V9H21C21.5523 9 22 9.44772 22 10V14C22 14.5523 21.5523 15 21 15H13V16H21C21.5523 16 22 16.4477 22 17V21C22 21.5523 21.5523 22 21 22H3C2.44772 22 2 21.5523 2 21V17C2 16.4477 2.44772 16 3 16H11V15H3C2.44772 15 2 14.5523 2 14V10C2 9.44772 2.44772 9 3 9H11V5.41406L9.70703 6.70703C9.31651 7.09756 8.68349 7.09756 8.29297 6.70703C7.90244 6.31651 7.90244 5.68349 8.29297 5.29297L11.293 2.29297C11.3548 2.23117 11.4248 2.17778 11.501 2.13379C11.5154 2.12546 11.5302 2.1179 11.5449 2.11035C11.6073 2.0784 11.6731 2.05257 11.7422 2.03418C11.7588 2.02976 11.7753 2.02503 11.792 2.02148C11.803 2.01916 11.8141 2.01758 11.8252 2.01562C11.8427 2.01252 11.8603 2.00998 11.8779 2.00781C11.8957 2.00565 11.9136 2.00415 11.9316 2.00293C11.9476 2.00184 11.9635 2.00131 11.9795 2.00098C11.9863 2.00084 11.9931 2 12 2C12.0069 2 12.0137 2.00084 12.0205 2.00098ZM4 20H20V18H4V20ZM4 13H20V11H4V13Z" fill="#9E9E9E"/>
</g>
</svg>
