<svg width="24" height="24" viewBox="0 0 24 24" fill="none" xmlns="http://www.w3.org/2000/svg">
<g id="icons/Edit/bring-to-front">
<path id="Union" d="M15 7C15.5523 7 16 7.44772 16 8H20.5C21.3284 8 22 8.67157 22 9.5V20.5C22 21.3284 21.3284 22 20.5 22H9.5C8.67157 22 8 21.3284 8 20.5V16H7.99609C7.44381 16 6.99609 15.5523 6.99609 15C6.99609 14.4477 7.44381 14 7.99609 14H8V9.5C8 8.67157 8.67157 8 9.5 8H14C14 7.44772 14.4477 7 15 7ZM10 20H20V10H10V20ZM3 12.0059C3.55228 12.0059 4 12.4536 4 13.0059V14H4.99805C5.55033 14 5.99805 14.4477 5.99805 15C5.99797 15.5522 5.55028 16 4.99805 16H3C2.44776 16 2.00008 15.5522 2 15V13.0059C2 12.4536 2.44772 12.0059 3 12.0059ZM3 7C3.55228 7 4 7.44772 4 8V10C4 10.5523 3.55228 11 3 11C2.44772 11 2 10.5523 2 10V8C2 7.44772 2.44772 7 3 7ZM4.98438 2C5.53666 2 5.98438 2.44772 5.98438 3C5.98438 3.55228 5.53666 4 4.98438 4H4V5.0166C4 5.56889 3.55228 6.0166 3 6.0166C2.44772 6.0166 2 5.56889 2 5.0166V3C2 2.44772 2.44772 2 3 2H4.98438ZM15.1025 2.00488C15.6066 2.05629 16 2.48238 16 3V5.00781C15.9999 5.55994 15.5521 6.00772 15 6.00781C14.4478 6.00775 14.0001 5.55996 14 5.00781V4H13.001C12.4487 3.99993 12.001 3.55224 12.001 3C12.001 2.44776 12.4487 2.00007 13.001 2H15L15.1025 2.00488ZM10.0039 2C10.5561 2.00013 11.0039 2.44779 11.0039 3C11.0039 3.55221 10.5561 3.99987 10.0039 4H8.01367C7.46139 4 7.01367 3.55228 7.01367 3C7.01367 2.44772 7.46139 2 8.01367 2H10.0039Z" fill="#9E9E9E"/>
</g>
</svg>
