<svg width="24" height="24" viewBox="0 0 24 24" fill="none" xmlns="http://www.w3.org/2000/svg">
<g id="icons/Edit/bytedance-applets">
<path id="Union" d="M11.9998 14.5C12.552 14.5 12.9998 14.9477 12.9998 15.5V21.5C12.9998 22.0523 12.552 22.5 11.9998 22.5C11.4476 22.4999 10.9998 22.0522 10.9998 21.5V15.5C10.9998 14.9478 11.4476 14.5001 11.9998 14.5ZM11.9998 1C12.552 1 12.9998 1.44772 12.9998 2V11.0234L20.6306 17.2236C21.0592 17.5719 21.1244 18.2022 20.7761 18.6309C20.4278 19.0593 19.7975 19.1246 19.3689 18.7764L11.9998 12.7881L4.63062 18.7764C4.20199 19.1245 3.57162 19.0594 3.22339 18.6309C2.8753 18.2023 2.94049 17.5719 3.3689 17.2236L10.9998 11.0234V2C10.9998 1.44781 11.4476 1.00015 11.9998 1ZM3.16772 6.44531C3.47403 5.98585 4.09493 5.86178 4.55444 6.16797L9.05444 9.16797C9.51397 9.47432 9.63814 10.0952 9.33179 10.5547C9.0254 11.0141 8.40455 11.1384 7.94507 10.832L3.44507 7.83203C2.98574 7.52566 2.86152 6.90476 3.16772 6.44531ZM19.4451 6.16797C19.9046 5.86164 20.5254 5.98589 20.8318 6.44531C21.1381 6.90484 21.014 7.52568 20.5544 7.83203L16.0544 10.832C15.5949 11.1382 14.974 11.0142 14.6677 10.5547C14.3615 10.0952 14.4857 9.47434 14.9451 9.16797L19.4451 6.16797Z" fill="#9E9E9E"/>
</g>
</svg>
