<svg width="24" height="24" viewBox="0 0 24 24" fill="none" xmlns="http://www.w3.org/2000/svg">
<g id="icons/Edit/calendar">
<path id="Union" d="M16 1C16.5523 1 17 1.44772 17 2V2.5H20.5C21.6046 2.5 22.5 3.39544 22.5 4.5V20C22.5 21.1046 21.6046 22 20.5 22H3.5C2.39544 22 1.5 21.1046 1.5 20V4.5C1.5 3.39543 2.39543 2.5 3.5 2.5H7V2C7 1.44772 7.44772 1 8 1C8.55228 1 9 1.44772 9 2V2.5H15V2C15 1.44772 15.4477 1 16 1ZM3.5 20H20.5V10.5H3.5V20ZM10 16C10.5523 16 11 16.4477 11 17C11 17.5523 10.5523 18 10 18H7C6.44772 18 6 17.5523 6 17C6 16.4477 6.44772 16 7 16H10ZM17 16C17.5523 16 18 16.4477 18 17C18 17.5523 17.5523 18 17 18H14C13.4477 18 13 17.5523 13 17C13 16.4477 13.4477 16 14 16H17ZM10 12C10.5523 12 11 12.4477 11 13C11 13.5523 10.5523 14 10 14H7C6.44772 14 6 13.5523 6 13C6 12.4477 6.44772 12 7 12H10ZM17 12C17.5523 12 18 12.4477 18 13C18 13.5523 17.5523 14 17 14H14C13.4477 14 13 13.5523 13 13C13 12.4477 13.4477 12 14 12H17ZM3.5 8.5H20.5V4.5H17V6C17 6.55228 16.5523 7 16 7C15.4477 7 15 6.55228 15 6V4.5H9V6C9 6.55228 8.55228 7 8 7C7.44772 7 7 6.55228 7 6V4.5H3.5V8.5Z" fill="#9E9E9E"/>
</g>
</svg>
