<svg width="24" height="24" viewBox="0 0 24 24" fill="none" xmlns="http://www.w3.org/2000/svg">
<g id="icons/Edit/chart-pie-one">
<path id="Union" d="M12 1.5C17.799 1.5 22.5 6.20102 22.5 12C22.5 12.5523 22.0523 13 21.5 13H13V21.5C13 22.0523 12.5523 22.5 12 22.5C6.20102 22.5 1.5 17.799 1.5 12C1.5 6.20102 6.20102 1.5 12 1.5ZM21 14C21.5523 14 22 14.4477 22 15V21C22 21.5523 21.5523 22 21 22H15C14.4477 22 14 21.5523 14 21V15C14 14.4477 14.4477 14 15 14H21ZM12 3.5C7.30558 3.5 3.5 7.30558 3.5 12C3.5 16.356 6.77696 19.9444 11 20.4395V13C11 11.8954 11.8954 11 13 11H20.4395C19.9444 6.77696 16.356 3.5 12 3.5ZM16 20H20V16H16V20Z" fill="#9E9E9E"/>
</g>
</svg>
