<svg width="24" height="24" viewBox="0 0 24 24" fill="none" xmlns="http://www.w3.org/2000/svg">
<g id="icons/Edit/clear">
<path id="Union" d="M14 1.95703C14.5523 1.95703 15 2.40475 15 2.95703V5.95703H21.5C22.0523 5.95703 22.5 6.40476 22.5 6.95703V10.957C22.5 11.5093 22.0523 11.957 21.5 11.957H21V20C21 20.5523 20.5523 21 20 21H4C3.44772 21 3 20.5523 3 20V11.957H2.5C1.94772 11.957 1.5 11.5093 1.5 10.957V6.95703C1.50001 6.40476 1.94772 5.95703 2.5 5.95703H9V2.95703C9 2.40475 9.44772 1.95703 10 1.95703H14ZM5 19H7V16.957C7 16.4047 7.44772 15.957 8 15.957C8.55228 15.957 9 16.4047 9 16.957V19H11V16.9492C11 16.3969 11.4477 15.9492 12 15.9492C12.5523 15.9492 13 16.3969 13 16.9492V19H15V16.957C15 16.4047 15.4477 15.957 16 15.957C16.5523 15.957 17 16.4047 17 16.957V19H19V12H5V19ZM11 6.95703C11 7.50932 10.5523 7.95703 10 7.95703H3.5V9.95703H20.5V7.95703H14C13.4477 7.95703 13 7.50932 13 6.95703V3.95703H11V6.95703Z" fill="#9E9E9E"/>
</g>
</svg>
