<svg width="24" height="24" viewBox="0 0 24 24" fill="none" xmlns="http://www.w3.org/2000/svg">
<g id="icons/Edit/code-brackets">
<path id="Union" d="M8 1C8.55228 1 9 1.44772 9 2C9 2.55228 8.55228 3 8 3C7.63956 3 7.24877 3.09419 6.97461 3.2998C6.74895 3.46911 6.5 3.78571 6.5 4.5V9C6.5 9.66373 6.22237 10.2167 5.90234 10.6328C5.63576 10.9794 5.31006 11.2674 5.00098 11.5C5.31006 11.7326 5.63576 12.0206 5.90234 12.3672C6.22237 12.7833 6.5 13.3363 6.5 14V19.5C6.5 20.2143 6.74895 20.5309 6.97461 20.7002C7.24877 20.9058 7.63956 21 8 21C8.55228 21 9 21.4477 9 22C9 22.5523 8.55228 23 8 23C7.36049 23 6.5012 22.8441 5.77539 22.2998C5.0011 21.7191 4.5 20.7855 4.5 19.5V14C4.5 13.9139 4.46501 13.7791 4.31641 13.5859C4.16637 13.391 3.94224 13.1927 3.67676 13.0068C3.41615 12.8244 3.14883 12.677 2.94336 12.5742C2.84189 12.5235 2.7582 12.4848 2.70215 12.46C2.67439 12.4477 2.65332 12.4389 2.64062 12.4336C2.63438 12.431 2.63001 12.4296 2.62793 12.4287C2.24856 12.2767 2 11.9087 2 11.5C2 11.0917 2.24824 10.7245 2.62695 10.5723L2.62793 10.5713C2.63001 10.5704 2.63438 10.569 2.64062 10.5664C2.65332 10.5611 2.67439 10.5523 2.70215 10.54C2.7582 10.5152 2.84189 10.4765 2.94336 10.4258C3.14883 10.323 3.41615 10.1756 3.67676 9.99316C3.94224 9.80731 4.16637 9.60899 4.31641 9.41406C4.46501 9.22088 4.5 9.08607 4.5 9V4.5C4.5 3.21446 5.0011 2.28092 5.77539 1.7002C6.5012 1.15591 7.36049 1 8 1ZM16 1C16.6395 1 17.4988 1.15591 18.2246 1.7002C18.9989 2.28092 19.5 3.21446 19.5 4.5V9C19.5 9.08607 19.535 9.22088 19.6836 9.41406C19.8336 9.60899 20.0578 9.80731 20.3232 9.99316C20.5839 10.1756 20.8512 10.323 21.0566 10.4258C21.1581 10.4765 21.2418 10.5152 21.2979 10.54C21.3256 10.5523 21.3467 10.5611 21.3594 10.5664C21.3656 10.569 21.37 10.5704 21.3721 10.5713C21.7514 10.7233 22 11.0913 22 11.5C22 11.9087 21.7514 12.2767 21.3721 12.4287C21.37 12.4296 21.3656 12.431 21.3594 12.4336C21.3467 12.4389 21.3256 12.4477 21.2979 12.46C21.2418 12.4848 21.1581 12.5235 21.0566 12.5742C20.8512 12.677 20.5839 12.8244 20.3232 13.0068C20.0578 13.1927 19.8336 13.391 19.6836 13.5859C19.535 13.7791 19.5 13.9139 19.5 14V19.5C19.5 20.7855 18.9989 21.7191 18.2246 22.2998C17.4988 22.8441 16.6395 23 16 23C15.4477 23 15 22.5523 15 22C15 21.4477 15.4477 21 16 21C16.3604 21 16.7512 20.9058 17.0254 20.7002C17.2511 20.5309 17.5 20.2143 17.5 19.5V14C17.5 13.3363 17.7776 12.7833 18.0977 12.3672C18.3641 12.0209 18.6891 11.7325 18.998 11.5C18.6891 11.2675 18.3641 10.9791 18.0977 10.6328C17.7776 10.2167 17.5 9.66373 17.5 9V4.5C17.5 3.78571 17.2511 3.46911 17.0254 3.2998C16.7512 3.09419 16.3604 3 16 3C15.4477 3 15 2.55228 15 2C15 1.44772 15.4477 1 16 1Z" fill="#9E9E9E"/>
</g>
</svg>
