<svg width="24" height="24" viewBox="0 0 24 24" fill="none" xmlns="http://www.w3.org/2000/svg">
<g id="icons/Edit/code">
<path id="Union" d="M13.0145 1.82715C13.1101 1.28368 13.6291 0.919642 14.1727 1.01465C14.7164 1.11001 15.0801 1.62913 14.9852 2.17285L11.4852 22.1729C11.3898 22.7166 10.8709 23.0805 10.327 22.9854C9.78336 22.8899 9.41936 22.371 9.51453 21.8271L13.0145 1.82715ZM7.28015 5.80566C7.66356 5.40863 8.29687 5.39728 8.69421 5.78027C9.09146 6.16371 9.10281 6.79694 8.7196 7.19434L3.41394 12.6895L8.69421 17.7803C9.09151 18.1635 9.10265 18.7968 8.7196 19.1943C8.33628 19.5917 7.70307 19.6029 7.30554 19.2197L1.30554 13.4365C1.11478 13.2525 1.00472 12.9994 0.999878 12.7344C0.99523 12.4693 1.09602 12.2123 1.28015 12.0215L7.28015 5.80566ZM15.3055 5.78027C15.7028 5.39716 16.3361 5.40873 16.7196 5.80566L22.7196 12.0215C22.9037 12.2123 23.0045 12.4693 22.9999 12.7344C22.995 12.9995 22.8851 13.2525 22.6942 13.4365L16.6942 19.2197C16.2967 19.6029 15.6635 19.5917 15.2802 19.1943C14.8973 18.7968 14.9083 18.1635 15.3055 17.7803L20.5848 12.6895L15.2802 7.19434C14.8971 6.79693 14.9083 6.16366 15.3055 5.78027Z" fill="#9E9E9E"/>
</g>
</svg>
