<svg width="24" height="24" viewBox="0 0 24 24" fill="none" xmlns="http://www.w3.org/2000/svg">
<g id="icons/Edit/code-download">
<path id="Union" d="M7.28015 5.30566C7.66363 4.90838 8.29683 4.89696 8.69421 5.28027C9.09152 5.66377 9.10297 6.29695 8.7196 6.69434L3.41394 12.1895L8.69421 17.2803C9.09156 17.6636 9.10281 18.2968 8.7196 18.6943C8.33627 19.0916 7.70303 19.1029 7.30554 18.7197L1.30554 12.9365C1.11463 12.7525 1.00474 12.4995 0.999878 12.2344C0.9951 11.9692 1.09598 11.7124 1.28015 11.5215L7.28015 5.30566ZM15.3055 5.28027C15.7029 4.89692 16.3361 4.90841 16.7196 5.30566L22.7196 11.5215C22.9038 11.7124 23.0047 11.9691 22.9999 12.2344C22.995 12.4995 22.8852 12.7525 22.6942 12.9365L16.6942 18.7197C16.2967 19.1028 15.6634 19.0916 15.2802 18.6943C14.897 18.2968 14.9083 17.6636 15.3055 17.2803L20.5848 12.1895L15.2802 6.69434C14.8969 6.29699 14.9084 5.66376 15.3055 5.28027ZM11.9999 7.5C12.5522 7.5 12.9999 7.94772 12.9999 8.5V13.0859L14.2928 11.793C14.6834 11.4025 15.3164 11.4025 15.7069 11.793C16.0974 12.1835 16.0974 12.8165 15.7069 13.207L12.7069 16.207C12.6606 16.2534 12.6093 16.2945 12.5546 16.3311C12.5083 16.362 12.4598 16.3878 12.41 16.4102C12.4013 16.4141 12.3926 16.4182 12.3837 16.4219C12.3666 16.429 12.3493 16.4353 12.3319 16.4414C12.3182 16.4462 12.3048 16.4518 12.2909 16.4561C12.2745 16.461 12.2577 16.4646 12.2411 16.4688C12.2255 16.4726 12.2101 16.4773 12.1942 16.4805C12.1868 16.4819 12.1792 16.4821 12.1718 16.4834C12.1159 16.4931 12.0585 16.5 11.9999 16.5C11.9408 16.5 11.8833 16.4932 11.827 16.4834C11.8199 16.4822 11.8126 16.4819 11.8055 16.4805C11.7897 16.4773 11.7743 16.4726 11.7587 16.4688C11.7417 16.4645 11.7246 16.4612 11.7079 16.4561C11.6973 16.4528 11.687 16.4489 11.6766 16.4453C11.5959 16.4178 11.5181 16.3799 11.4452 16.3311C11.3905 16.2945 11.3392 16.2534 11.2928 16.207L8.29285 13.207C7.90241 12.8165 7.90245 12.1835 8.29285 11.793C8.68335 11.4025 9.31638 11.4025 9.70691 11.793L10.9999 13.0859V8.5C10.9999 7.94777 11.4477 7.50009 11.9999 7.5Z" fill="#9E9E9E"/>
</g>
</svg>
