<svg width="24" height="24" viewBox="0 0 24 24" fill="none" xmlns="http://www.w3.org/2000/svg">
<g id="icons/Edit/components">
<path id="Union" d="M11.3693 14.2246C11.762 13.9043 12.341 13.9269 12.7072 14.293L16.2072 17.793C16.5975 18.1835 16.5976 18.8166 16.2072 19.207L12.7072 22.707C12.3167 23.0974 11.6836 23.0974 11.2931 22.707L7.79309 19.207C7.40259 18.8165 7.40265 18.1835 7.79309 17.793L11.2931 14.293L11.3693 14.2246ZM9.91418 18.5L12.0001 20.5859L14.0861 18.5L12.0001 16.4141L9.91418 18.5ZM17.8693 8.22461C18.262 7.90426 18.841 7.92685 19.2072 8.29297L22.7072 11.793C23.0975 12.1835 23.0976 12.8166 22.7072 13.207L19.2072 16.707C18.8167 17.0974 18.1836 17.0974 17.7931 16.707L14.2931 13.207C13.9026 12.8165 13.9026 12.1835 14.2931 11.793L17.7931 8.29297L17.8693 8.22461ZM4.86926 7.72461C5.26204 7.40426 5.84104 7.42685 6.20715 7.79297L9.70715 11.293C10.0975 11.6835 10.0976 12.3166 9.70715 12.707L6.20715 16.207C5.81667 16.5974 5.1836 16.5974 4.79309 16.207L1.29309 12.707C0.902593 12.3165 0.902646 11.6835 1.29309 11.293L4.79309 7.79297L4.86926 7.72461ZM16.4142 12.5L18.5001 14.5859L20.5861 12.5L18.5001 10.4141L16.4142 12.5ZM3.41418 12L5.50012 14.0859L7.58606 12L5.50012 9.91406L3.41418 12ZM11.3693 1.22461C11.762 0.904259 12.341 0.926853 12.7072 1.29297L16.2072 4.79297C16.5975 5.18351 16.5976 5.81656 16.2072 6.20703L12.7072 9.70703C12.3167 10.0974 11.6836 10.0974 11.2931 9.70703L7.79309 6.20703C7.40259 5.81653 7.40265 5.1835 7.79309 4.79297L11.2931 1.29297L11.3693 1.22461ZM9.91418 5.5L12.0001 7.58594L14.0861 5.5L12.0001 3.41406L9.91418 5.5Z" fill="#9E9E9E"/>
</g>
</svg>
