<svg width="24" height="24" viewBox="0 0 24 24" fill="none" xmlns="http://www.w3.org/2000/svg">
<g id="icons/Edit/copy-link">
<path id="Union" d="M20.5 1C21.8807 1 23 2.1193 23 3.5V16.5C23 17.8807 21.8807 19 20.5 19H20V20.5C20 21.8807 18.8807 23 17.5 23H3.5C2.11929 23 1 21.8807 1 20.5V6.5C1 5.11929 2.11929 4 3.5 4H5V3.5C5 2.1193 6.11925 1 7.5 1H20.5ZM3.5 6C3.22386 6 3 6.22386 3 6.5V20.5C3 20.7761 3.22386 21 3.5 21H17.5C17.7761 21 18 20.7761 18 20.5V6.5C18 6.22386 17.7761 6 17.5 6H3.5ZM10.4541 12.2236C10.8446 11.8331 11.4776 11.8331 11.8682 12.2236C12.9713 13.3268 13.0351 15.1179 11.9473 16.2549C11.9388 16.2645 11.9298 16.2738 11.9209 16.2832C11.9151 16.2891 11.9102 16.2959 11.9043 16.3018C11.9014 16.3047 11.8975 16.3067 11.8945 16.3096C11.8858 16.3181 11.8782 16.3277 11.8691 16.3359L9.28613 18.6797C8.1498 19.7786 6.35 19.7172 5.24316 18.6104C4.10089 17.4678 4.13335 15.5414 5.24316 14.4316L5.25684 14.418C5.25781 14.417 5.25979 14.4159 5.26172 14.4141C5.26557 14.4103 5.27098 14.4046 5.27832 14.3975C5.29304 14.3832 5.3144 14.3625 5.34082 14.3369C5.3939 14.2855 5.46756 14.2138 5.54883 14.1348C5.71277 13.9754 5.90438 13.789 6.02637 13.667C6.41691 13.2767 7.04997 13.2765 7.44043 13.667C7.83068 14.0575 7.83068 14.6906 7.44043 15.0811C7.30731 15.2142 7.10697 15.4102 6.94336 15.5693C6.8609 15.6495 6.78622 15.7213 6.73242 15.7734C6.70572 15.7993 6.68401 15.8204 6.66895 15.835C6.66472 15.839 6.66037 15.8427 6.65723 15.8457C6.31553 16.1874 6.30887 16.8476 6.65723 17.1963C7.03017 17.5692 7.5896 17.5499 7.90723 17.2324L7.94238 17.1992L10.5 14.876C10.807 14.5567 10.8228 14.0064 10.4541 13.6377C10.0636 13.2472 10.0636 12.6142 10.4541 12.2236ZM7.5 3C7.22385 3 7 3.22385 7 3.5V4H17.5C18.8807 4 20 5.11929 20 6.5V17H20.5C20.7762 17 21 16.7762 21 16.5V3.5C21 3.22385 20.7762 3 20.5 3H7.5ZM11.1592 8.09375C12.2932 6.95973 14.1193 7.01102 15.2373 8.12891C16.3488 9.24035 16.4055 11.051 15.292 12.1865L14.3379 13.1982C13.9587 13.5998 13.3254 13.6184 12.9238 13.2393C12.5224 12.8601 12.5046 12.2267 12.8838 11.8252L13.8389 10.8145L13.8584 10.793C14.1758 10.4755 14.1959 9.91696 13.8232 9.54395C13.4502 9.17093 12.8908 9.19033 12.5732 9.50781L10.1299 12.0498C10.0933 12.1051 10.0516 12.1583 10.0029 12.207C9.83039 12.3796 9.74708 12.615 9.76367 12.8604C9.77812 13.0727 9.86825 13.2862 10.0391 13.457C10.4291 13.8474 10.429 14.4806 10.0391 14.8711C9.64858 15.2616 9.01456 15.2615 8.62402 14.8711C8.10262 14.3496 7.81477 13.6778 7.76855 12.9951C7.72314 12.3235 7.9122 11.6348 8.34473 11.0713C8.38591 10.9969 8.43732 10.9265 8.49902 10.8623L11.1445 8.1084C11.1492 8.10358 11.1545 8.09848 11.1592 8.09375Z" fill="#9E9E9E"/>
</g>
</svg>
