<svg width="24" height="24" viewBox="0 0 24 24" fill="none" xmlns="http://www.w3.org/2000/svg">
<g id="icons/Edit/curve-adjustment">
<path id="Union" d="M22 1C22.5523 1 23 1.44772 23 2V22C23 22.5523 22.5523 23 22 23H2C1.44772 23 1 22.5523 1 22V2C1 1.44772 1.44772 1 2 1H22ZM3 21H21V3H3V21ZM19 4C19.5523 4 20 4.44772 20 5C20 5.55228 19.5523 6 19 6C17.7463 6 16.6199 6.40809 15.625 7.35059C14.6073 8.31473 13.6781 9.88685 12.958 12.2871C12.1781 14.8867 11.1072 16.8148 9.75 18.1006C8.3699 19.4081 6.74626 20 5 20C4.44772 20 4 19.5523 4 19C4 18.4477 4.44772 18 5 18C6.25371 18 7.38012 17.5919 8.375 16.6494C9.3927 15.6853 10.3219 14.1132 11.042 11.7129C11.8219 9.11334 12.8928 7.18524 14.25 5.89941C15.6301 4.59195 17.2537 4 19 4Z" fill="#9E9E9E"/>
</g>
</svg>
