<svg width="24" height="24" viewBox="0 0 24 24" fill="none" xmlns="http://www.w3.org/2000/svg">
<g id="icons/Edit/cutting">
<path id="Union" d="M20.4854 2.10156C20.8758 1.7111 21.5089 1.71123 21.8994 2.10156C22.2899 2.49209 22.2899 3.12513 21.8994 3.51562L20 5.41504V18.001H21C21.5523 18.001 22 18.4487 22 19.001C21.9999 19.5532 21.5522 20.001 21 20.001H20V21.001C19.9999 21.5532 19.5522 22.001 19 22.001C18.4478 22.001 18.0001 21.5532 18 21.001V20.001H5C4.44777 20.001 4.00009 19.5532 4 19.001V6.00098H3C2.44777 6.00098 2.00009 5.55318 2 5.00098C2 4.44869 2.44772 4.00098 3 4.00098H4V3.00098C4 2.44869 4.44772 2.00098 5 2.00098C5.55228 2.00098 6 2.44869 6 3.00098V4.00098H18.5859L20.4854 2.10156ZM7.41406 18.001H18V7.41504L7.41406 18.001ZM6 16.5869L16.5859 6.00098H6V16.5869Z" fill="#9E9E9E"/>
</g>
</svg>
