<svg width="24" height="24" viewBox="0 0 24 24" fill="none" xmlns="http://www.w3.org/2000/svg">
<g id="icons/Edit/damage-map">
<path id="Union" d="M15 3C15.3601 3 15.6926 3.19356 15.8701 3.50684C16.0476 3.82034 16.0428 4.20572 15.8574 4.51465L14.6826 6.47168L15.332 7.44531C15.4911 7.68397 15.5404 7.97961 15.4668 8.25684C15.3932 8.53402 15.2038 8.76627 14.9473 8.89453L11.5918 10.5713L11.9902 13.3584C12.0609 13.8531 11.7549 14.3246 11.2744 14.4619L8.72461 15.1895L9.96484 19.7373C10.0467 20.0379 9.98402 20.3598 9.79492 20.6074C9.60573 20.855 9.3116 21 9 21H3.5C2.39544 21 1.5 20.1046 1.5 19V5C1.5 3.89543 2.39543 3 3.5 3H15ZM20.5 3C21.6046 3 22.5 3.89544 22.5 5V19C22.5 20.1046 21.6046 21 20.5 21H12C11.5535 21 11.1607 20.7037 11.0381 20.2744L10.0381 16.7744C9.88662 16.2435 10.1947 15.6898 10.7256 15.5381L13.4014 14.7734L13.0078 11.624C12.9531 11.1867 13.191 10.7649 13.5938 10.5859L17.0605 9.04492L16.1426 7.51465C15.9438 7.18327 15.9536 6.76686 16.168 6.44531L18.168 3.44531L18.2432 3.34668C18.4318 3.12817 18.7073 3 19 3H20.5ZM3.5 19H7.69043L6.53516 14.7627C6.39135 14.2345 6.69921 13.6885 7.22559 13.5381L9.88574 12.7773L9.50977 10.1416C9.44889 9.7155 9.66775 9.29796 10.0527 9.10547L13.0391 7.61133L12.668 7.05469C12.4536 6.73314 12.4438 6.31673 12.6426 5.98535L13.2334 5H3.5V19ZM18.1826 7.02734L19.3574 8.98535C19.5048 9.23098 19.5394 9.52862 19.4531 9.80176C19.3667 10.0747 19.1679 10.2978 18.9062 10.4141L15.084 12.1123L15.4922 15.376C15.5533 15.8652 15.2485 16.3265 14.7744 16.4619L12.2363 17.1865L12.7549 19H20.5V5H19.5352L18.1826 7.02734ZM7.25 6.5C8.21648 6.5 9 7.28352 9 8.25C9 9.21648 8.21648 10 7.25 10C6.28352 10 5.5 9.21648 5.5 8.25C5.5 7.28352 6.28352 6.5 7.25 6.5ZM7.25 8C7.11192 8 7 8.11192 7 8.25C7 8.38808 7.11192 8.5 7.25 8.5C7.38808 8.5 7.5 8.38808 7.5 8.25C7.5 8.11192 7.38808 8 7.25 8Z" fill="#9E9E9E"/>
</g>
</svg>
