<svg width="24" height="24" viewBox="0 0 24 24" fill="none" xmlns="http://www.w3.org/2000/svg">
<g id="icons/Edit/dark-mode">
<path id="Union" d="M11.371 1.22363C11.7637 0.903841 12.343 0.927128 12.7089 1.29297L15.0507 3.63477H19.3651C19.9171 3.635 20.3649 4.08282 20.3651 4.63477V8.94922L22.7069 11.291C23.0972 11.6813 23.0978 12.3145 22.7079 12.7051L20.3651 15.0498V19.3652C20.3649 19.9172 19.9171 20.365 19.3651 20.3652H15.0507L12.7089 22.707C12.3186 23.0973 11.6854 23.0979 11.2948 22.708L8.9491 20.3652H4.63464C4.08274 20.365 3.63488 19.9172 3.63464 19.3652V15.0498L1.29187 12.7051C0.902024 12.3145 0.902623 11.6813 1.29285 11.291L3.63464 8.94922V4.63477C3.63488 4.08285 4.08273 3.63504 4.63464 3.63477H8.9491L11.2948 1.29199L11.371 1.22363ZM10.0702 5.34277C9.88271 5.53 9.62811 5.63474 9.36316 5.63477H5.63464V9.36328C5.63461 9.62835 5.53002 9.88283 5.34265 10.0703L3.41296 11.998L5.34265 13.9307C5.52972 14.1181 5.63461 14.3719 5.63464 14.6367V18.3652H9.36316L9.46179 18.3701C9.69051 18.3928 9.90613 18.4934 10.0702 18.6572L12.0009 20.5859L13.9296 18.6572C14.117 18.4699 14.3716 18.3653 14.6366 18.3652H18.3651V14.6367C18.3651 14.3719 18.4701 14.1181 18.6571 13.9307L20.5858 11.998L18.6571 10.0703C18.4698 9.88283 18.3651 9.62833 18.3651 9.36328V5.63477H14.6366C14.3716 5.63471 14.117 5.53013 13.9296 5.34277L12.0009 3.41309L10.0702 5.34277ZM13.4999 7.5C14.386 7.5 15.1213 7.99216 15.6346 8.57031C16.1575 9.15922 16.5452 9.93515 16.7509 10.7578C17.1592 12.3915 16.8933 14.4955 15.0878 15.8086C13.4024 17.0342 11.5239 17.0456 10.0721 16.418C8.69071 15.8206 7.49988 14.5326 7.49988 13C7.49988 12.4477 7.94764 12 8.49988 12C9.73213 12 10.7132 11.8643 11.3827 11.418C11.9602 11.033 12.4999 10.2777 12.4999 8.5C12.4999 7.94775 12.9476 7.50005 13.4999 7.5ZM14.3407 10.1611C14.0652 11.4921 13.4348 12.4535 12.4921 13.082C11.7172 13.5986 10.8125 13.8281 9.92859 13.9277C10.1506 14.1738 10.461 14.4072 10.8651 14.582C11.7257 14.9542 12.8476 14.9655 13.912 14.1914C14.8563 13.5046 15.0905 12.3585 14.8114 11.2422C14.7074 10.8264 14.538 10.4549 14.3407 10.1611Z" fill="#9E9E9E"/>
</g>
</svg>
