<svg width="24" height="24" viewBox="0 0 24 24" fill="none" xmlns="http://www.w3.org/2000/svg">
<g id="icons/Edit/deeplink">
<path id="Union" d="M10.0273 2C10.9191 2 11.5 2.76043 11.5 3.51465V6.50391C11.4998 7.05603 11.0522 7.50391 10.5 7.50391C9.94783 7.50391 9.50019 7.05603 9.5 6.50391V4H3V20H9.5V17.4961C9.50019 16.944 9.94783 16.4961 10.5 16.4961C11.0522 16.4961 11.4998 16.944 11.5 17.4961V20.4854C11.5 21.2396 10.9191 22 10.0273 22H2.47266C1.58094 22 1 21.2396 1 20.4854V3.51465C1 2.76038 1.58095 2 2.47266 2H10.0273ZM21.6914 2.00879C22.4899 2.09511 23 2.80761 23 3.51465V20.4854C23 21.2396 22.4191 22 21.5273 22H13.9727C13.0809 22 12.5 21.2396 12.5 20.4854V17.4961C12.5002 16.944 12.9478 16.4961 13.5 16.4961C14.0522 16.4961 14.4998 16.944 14.5 17.4961V20H21V4H14.5V6.50391C14.4998 7.05603 14.0522 7.50391 13.5 7.50391C12.9478 7.50391 12.5002 7.05603 12.5 6.50391V3.51465C12.5 2.76043 13.0809 2 13.9727 2H21.5273L21.6914 2.00879ZM6.25 17C6.8023 17 7.25 17.4477 7.25 18C7.25 18.5523 6.8023 19 6.25 19C5.6977 19 5.25 18.5523 5.25 18C5.25 17.4477 5.6977 17 6.25 17ZM17.75 17C18.3023 17 18.75 17.4477 18.75 18C18.75 18.5523 18.3023 19 17.75 19C17.1977 19 16.75 18.5523 16.75 18C16.75 17.4477 17.1977 17 17.75 17ZM12.9043 8.65625C13.2948 8.26577 13.9278 8.26585 14.3184 8.65625L16.6865 11.0244C16.8791 11.2067 17 11.4639 17 11.75C17 12.0358 16.8788 12.2924 16.6865 12.4746L14.3184 14.8438C13.9279 15.2338 13.2947 15.2339 12.9043 14.8438C12.5139 14.4532 12.5139 13.8192 12.9043 13.4287L13.584 12.75H8C7.44772 12.75 7 12.3023 7 11.75C7 11.1977 7.44772 10.75 8 10.75H13.584L12.9043 10.0703C12.5139 9.67982 12.5139 9.04674 12.9043 8.65625Z" fill="#9E9E9E"/>
</g>
</svg>
