<svg width="24" height="24" viewBox="0 0 24 24" fill="none" xmlns="http://www.w3.org/2000/svg">
<g id="icons/Edit/delete-themes">
<path id="Union" d="M13.569 0.694336C13.7915 0.530722 14.0728 0.466271 14.3444 0.516602C14.6161 0.567142 14.8555 0.728196 15.0045 0.960938L18.5475 6.5H19.9996C20.2825 6.5 20.5522 6.62019 20.7418 6.83008C20.9313 7.04019 21.0237 7.3211 20.9948 7.60254L19.4948 22.1025C19.442 22.6123 19.0121 23 18.4996 23H5.49963C4.98735 22.9998 4.55723 22.6121 4.50452 22.1025L3.00452 7.60254C2.97558 7.32116 3.06801 7.04016 3.25745 6.83008C3.44697 6.62011 3.71678 6.5001 3.99963 6.5H5.67151L13.569 0.694336ZM6.40198 21H17.5973L18.8903 8.5H5.10901L6.40198 21ZM10.0006 11.501C10.5528 11.501 11.0005 11.9488 11.0006 12.501V17.501C11.0006 18.0533 10.5529 18.501 10.0006 18.501C9.44849 18.5008 9.00061 18.0531 9.00061 17.501V12.501C9.00071 11.9489 9.44855 11.5012 10.0006 11.501ZM14.0006 11.5C14.5528 11.5 15.0005 11.9478 15.0006 12.5V17.499C15.0005 18.0512 14.5528 18.499 14.0006 18.499C13.4485 18.4988 13.0007 18.0511 13.0006 17.499V12.5C13.0007 11.9479 13.4485 11.5002 14.0006 11.5ZM9.04846 6.5H16.1725L13.8932 2.9375L9.04846 6.5Z" fill="#9E9E9E"/>
</g>
</svg>
