<svg width="24" height="24" viewBox="0 0 24 24" fill="none" xmlns="http://www.w3.org/2000/svg">
<g id="icons/Edit/delete-three">
<path id="Union" d="M12 1C18.0751 1 23 5.92487 23 12C23 18.0751 18.0751 23 12 23C5.92487 23 1 18.0751 1 12C1 5.92487 5.92487 1 12 1ZM12 3C7.02944 3 3 7.02944 3 12C3 16.9706 7.02944 21 12 21C16.9706 21 21 16.9706 21 12C21 7.02944 16.9706 3 12 3ZM14.793 7.79297C15.1835 7.40244 15.8165 7.40244 16.207 7.79297C16.5976 8.18349 16.5976 8.81651 16.207 9.20703L9.20703 16.207C8.81651 16.5976 8.18349 16.5976 7.79297 16.207C7.40244 15.8165 7.40244 15.1835 7.79297 14.793L14.793 7.79297ZM13.793 13.793C14.1835 13.4024 14.8165 13.4024 15.207 13.793L16.207 14.793C16.5976 15.1835 16.5976 15.8165 16.207 16.207C15.8165 16.5976 15.1835 16.5976 14.793 16.207L13.793 15.207C13.4024 14.8165 13.4024 14.1835 13.793 13.793ZM7.79297 7.79297C8.18349 7.40244 8.81651 7.40244 9.20703 7.79297L10.207 8.79297C10.5976 9.18349 10.5976 9.81651 10.207 10.207C9.81651 10.5976 9.18349 10.5976 8.79297 10.207L7.79297 9.20703C7.40244 8.81651 7.40244 8.18349 7.79297 7.79297Z" fill="#9E9E9E"/>
</g>
</svg>
