<svg width="24" height="24" viewBox="0 0 24 24" fill="none" xmlns="http://www.w3.org/2000/svg">
<g id="icons/Edit/delete">
<path id="Union" d="M14.5254 1.00977C14.8389 1.05305 15.1171 1.24283 15.2695 1.52637L16.5977 4H22C22.5523 4 23 4.44772 23 5C23 5.55228 22.5523 6 22 6H20.5V22C20.5 22.5523 20.0523 23 19.5 23H4.5C3.94772 23 3.5 22.5523 3.5 22V6H2C1.44772 6 1 5.55228 1 5C1 4.44772 1.44772 4 2 4H7.4082L8.76758 1.51953C8.94312 1.19929 9.27934 1 9.64453 1H14.3887L14.5254 1.00977ZM5.5 21H18.5V6H5.5V21ZM10 9C10.5523 9 11 9.44771 11 10V16.5C11 17.0523 10.5523 17.5 10 17.5C9.44771 17.5 9 17.0523 9 16.5V10C9 9.44771 9.44771 9 10 9ZM14 9C14.5523 9 15 9.44771 15 10V16.5C15 17.0523 14.5523 17.5 14 17.5C13.4477 17.5 13 17.0523 13 16.5V10C13 9.44771 13.4477 9 14 9ZM9.68848 4H14.3281L13.791 3H10.2363L9.68848 4Z" fill="#9E9E9E"/>
</g>
</svg>
