<svg width="24" height="24" viewBox="0 0 24 24" fill="none" xmlns="http://www.w3.org/2000/svg">
<g id="icons/Edit/delete-four">
<path id="Union" d="M18 7.5C18.5523 7.5 19 7.94772 19 8.5V20C19 21.3807 17.8807 22.5 16.5 22.5H7.5C6.11927 22.5 5 21.3807 5 20V8.5C5 7.94772 5.44772 7.5 6 7.5H18ZM7 20C7 20.2762 7.22383 20.5 7.5 20.5H16.5C16.7762 20.5 17 20.2762 17 20V9.5H7V20ZM20 4.5C20.5523 4.5 21 4.94772 21 5.5C21 6.05228 20.5523 6.5 20 6.5H4C3.44772 6.5 3 6.05228 3 5.5C3 4.94772 3.44772 4.5 4 4.5H20ZM15 1.5C15.5523 1.5 16 1.94772 16 2.5C16 3.05228 15.5523 3.5 15 3.5H9C8.44772 3.5 8 3.05228 8 2.5C8 1.94772 8.44772 1.5 9 1.5H15Z" fill="#9E9E9E"/>
</g>
</svg>
