<svg width="24" height="24" viewBox="0 0 24 24" fill="none" xmlns="http://www.w3.org/2000/svg">
<g id="icons/Edit/direction-adjustment-three">
<path id="Union" d="M11.3693 1.22461C11.762 0.904259 12.341 0.926853 12.7072 1.29297L15.7072 4.29297C16.0975 4.68351 16.0976 5.31656 15.7072 5.70703C15.3167 6.09742 14.6836 6.09737 14.2931 5.70703L13.0001 4.41406V11H19.5861L18.2931 9.70703C17.9026 9.31653 17.9026 8.6835 18.2931 8.29297C18.6836 7.90244 19.3166 7.90244 19.7072 8.29297L22.7072 11.293C23.0975 11.6835 23.0976 12.3166 22.7072 12.707L19.7072 15.707C19.3167 16.0974 18.6836 16.0974 18.2931 15.707C17.9026 15.3165 17.9026 14.6835 18.2931 14.293L19.5861 13H13.0001V19.5859L14.2931 18.293C14.6836 17.9024 15.3166 17.9024 15.7072 18.293C16.0975 18.6835 16.0976 19.3166 15.7072 19.707L12.7072 22.707C12.3167 23.0974 11.6836 23.0974 11.2931 22.707L8.29309 19.707C7.90259 19.3165 7.90265 18.6835 8.29309 18.293C8.68362 17.9024 9.31663 17.9024 9.70715 18.293L11.0001 19.5859V13H4.41418L5.70715 14.293C6.09752 14.6835 6.09763 15.3166 5.70715 15.707C5.31667 16.0974 4.6836 16.0974 4.29309 15.707L1.29309 12.707C0.902593 12.3165 0.902646 11.6835 1.29309 11.293L4.29309 8.29297C4.68362 7.90244 5.31663 7.90244 5.70715 8.29297C6.09752 8.68351 6.09763 9.31656 5.70715 9.70703L4.41418 11H11.0001V4.41406L9.70715 5.70703C9.31667 6.09742 8.6836 6.09737 8.29309 5.70703C7.90259 5.31653 7.90265 4.6835 8.29309 4.29297L11.2931 1.29297L11.3693 1.22461Z" fill="#9E9E9E"/>
</g>
</svg>
