<svg width="24" height="24" viewBox="0 0 24 24" fill="none" xmlns="http://www.w3.org/2000/svg">
<g id="icons/Edit/direction-adjustment-two">
<path id="Union" d="M12.0001 16C12.5524 16 13.0001 16.4477 13.0001 17V19.5859L14.2931 18.293C14.6836 17.9024 15.3166 17.9024 15.7072 18.293C16.0975 18.6835 16.0976 19.3166 15.7072 19.707L12.7072 22.707C12.3167 23.0974 11.6836 23.0974 11.2931 22.707L8.29309 19.707C7.90259 19.3165 7.90265 18.6835 8.29309 18.293C8.68362 17.9024 9.31663 17.9024 9.70715 18.293L11.0001 19.5859V17C11.0001 16.4477 11.4478 16 12.0001 16ZM4.29309 8.29297C4.68362 7.90244 5.31663 7.90244 5.70715 8.29297C6.09752 8.68351 6.09763 9.31656 5.70715 9.70703L4.41418 11H7.00012C7.55237 11 8.00012 11.4477 8.00012 12C8 12.5522 7.55229 13 7.00012 13H4.41418L5.70715 14.293C6.09752 14.6835 6.09763 15.3166 5.70715 15.707C5.31667 16.0974 4.6836 16.0974 4.29309 15.707L1.29309 12.707C0.902593 12.3165 0.902646 11.6835 1.29309 11.293L4.29309 8.29297ZM18.2931 8.29297C18.6836 7.90244 19.3166 7.90244 19.7072 8.29297L22.7072 11.293C23.0975 11.6835 23.0976 12.3166 22.7072 12.707L19.7072 15.707C19.3167 16.0974 18.6836 16.0974 18.2931 15.707C17.9026 15.3165 17.9026 14.6835 18.2931 14.293L19.5861 13H17.0001C16.4479 13 16.0002 12.5522 16.0001 12C16.0001 11.4477 16.4478 11 17.0001 11H19.5861L18.2931 9.70703C17.9026 9.31653 17.9026 8.6835 18.2931 8.29297ZM12.0001 9C13.6569 9.00004 15.0001 10.3432 15.0001 12C15 13.6567 13.6569 15 12.0001 15C10.3433 15 9.00025 13.6567 9.00012 12C9.00012 10.3431 10.3433 9 12.0001 9ZM12.0001 11C11.4478 11 11.0001 11.4477 11.0001 12C11.0002 12.5522 11.4479 13 12.0001 13C12.5523 13 13 12.5522 13.0001 12C13.0001 11.4477 12.5524 11 12.0001 11ZM11.3693 1.22461C11.762 0.904259 12.341 0.926853 12.7072 1.29297L15.7072 4.29297C16.0975 4.68351 16.0976 5.31656 15.7072 5.70703C15.3167 6.09742 14.6836 6.09737 14.2931 5.70703L13.0001 4.41406V7C13 7.55215 12.5523 7.99996 12.0001 8C11.4479 8 11.0002 7.55218 11.0001 7V4.41406L9.70715 5.70703C9.31667 6.09742 8.6836 6.09737 8.29309 5.70703C7.90259 5.31653 7.90265 4.6835 8.29309 4.29297L11.2931 1.29297L11.3693 1.22461Z" fill="#9E9E9E"/>
</g>
</svg>
