<svg width="24" height="24" viewBox="0 0 24 24" fill="none" xmlns="http://www.w3.org/2000/svg">
<g id="icons/Edit/direction-adjustment">
<path id="Union" d="M12.0001 15C12.5524 15 13.0001 15.4477 13.0001 16V19.5859L13.2931 19.293C13.6836 18.9024 14.3166 18.9024 14.7072 19.293C15.0975 19.6835 15.0976 20.3166 14.7072 20.707L12.7072 22.707C12.3167 23.0974 11.6836 23.0974 11.2931 22.707L9.29309 20.707C8.90259 20.3165 8.90265 19.6835 9.29309 19.293C9.68361 18.9024 10.3166 18.9024 10.7072 19.293L11.0001 19.5859V16C11.0001 15.4477 11.4478 15 12.0001 15ZM3.29309 9.29297C3.68362 8.90244 4.31663 8.90244 4.70715 9.29297C5.09752 9.68351 5.09763 10.3166 4.70715 10.707L4.41418 11H8.00012C8.55237 11 9.00012 11.4477 9.00012 12C9 12.5522 8.55229 13 8.00012 13H4.41418L4.70715 13.293C5.09752 13.6835 5.09763 14.3166 4.70715 14.707C4.31667 15.0974 3.6836 15.0974 3.29309 14.707L1.29309 12.707C0.902593 12.3165 0.902646 11.6835 1.29309 11.293L3.29309 9.29297ZM19.2931 9.29297C19.6836 8.90244 20.3166 8.90244 20.7072 9.29297L22.7072 11.293C23.0975 11.6835 23.0976 12.3166 22.7072 12.707L20.7072 14.707C20.3167 15.0974 19.6836 15.0974 19.2931 14.707C18.9026 14.3165 18.9026 13.6835 19.2931 13.293L19.5861 13H16.0001C15.4479 13 15.0002 12.5522 15.0001 12C15.0001 11.4477 15.4478 11 16.0001 11H19.5861L19.2931 10.707C18.9026 10.3165 18.9026 9.6835 19.2931 9.29297ZM12.0001 10C13.1047 10 14.0001 10.8955 14.0001 12C14 13.1044 13.1046 14 12.0001 14C10.8956 14 10.0002 13.1045 10.0001 12C10.0001 10.8954 10.8956 10 12.0001 10ZM11.3693 1.22461C11.762 0.904259 12.341 0.926853 12.7072 1.29297L14.7072 3.29297C15.0975 3.68351 15.0976 4.31656 14.7072 4.70703C14.3167 5.09742 13.6836 5.09737 13.2931 4.70703L13.0001 4.41406V8C13 8.55215 12.5523 8.99996 12.0001 9C11.4479 9 11.0002 8.55218 11.0001 8V4.41406L10.7072 4.70703C10.3167 5.09742 9.6836 5.09737 9.29309 4.70703C8.90259 4.31653 8.90265 3.6835 9.29309 3.29297L11.2931 1.29297L11.3693 1.22461Z" fill="#9E9E9E"/>
</g>
</svg>
