<svg width="24" height="24" viewBox="0 0 24 24" fill="none" xmlns="http://www.w3.org/2000/svg">
<g id="icons/Edit/distribute-horizontal-spacing">
<path id="Union" d="M4 1.5C4.55228 1.5 5 1.94772 5 2.5V21.5C5 22.0523 4.55228 22.5 4 22.5C3.44772 22.5 3 22.0523 3 21.5V2.5C3 1.94772 3.44772 1.5 4 1.5ZM20 1.5C20.5523 1.5 21 1.94772 21 2.5V21.5C21 22.0523 20.5523 22.5 20 22.5C19.4477 22.5 19 22.0523 19 21.5V2.5C19 1.94772 19.4477 1.5 20 1.5ZM14 6C14.5523 6 15 6.44772 15 7V17C15 17.5523 14.5523 18 14 18H10C9.44772 18 9 17.5523 9 17V7C9 6.44772 9.44772 6 10 6H14ZM11 16H13V8H11V16Z" fill="#9E9E9E"/>
</g>
</svg>
