<svg width="24" height="24" viewBox="0 0 24 24" fill="none" xmlns="http://www.w3.org/2000/svg">
<g id="icons/Edit/distortion">
<path id="Union" d="M22 3C22.5523 3 23 3.44772 23 4V20C23 20.5523 22.5523 21 22 21H2C1.44772 21 1 20.5523 1 20V4C1 3.44772 1.44772 3 2 3H22ZM6.36523 14.1885C5.9264 14.218 5.51594 14.2766 5.13965 14.3545C4.32182 14.5237 3.66036 14.7775 3.20801 14.9863C3.13246 15.0212 3.06326 15.0554 3 15.0869V19H6.8252C6.67144 18.6323 6.52209 18.2095 6.40527 17.7422C6.15157 16.7272 6.05084 15.4988 6.36523 14.1885ZM8.41309 14.2852C8.06094 15.3777 8.13113 16.4034 8.34473 17.2578C8.50751 17.9088 8.75414 18.4556 8.95996 18.8398C8.99077 18.8974 9.02154 18.9506 9.0498 19H13.8252C13.6714 18.6323 13.5221 18.2095 13.4053 17.7422C13.2824 17.2506 13.1957 16.7088 13.1738 16.1318C12.6339 15.9322 12.0819 15.6836 11.5215 15.3779C10.4264 14.7806 9.37982 14.4449 8.41309 14.2852ZM21 16.0938C20.5178 16.2792 19.9336 16.4661 19.2646 16.6045C18.1301 16.8392 16.7549 16.9367 15.2305 16.6807C15.2605 16.8802 15.2986 17.0732 15.3447 17.2578C15.5075 17.9088 15.7541 18.4556 15.96 18.8398C15.9908 18.8974 16.0215 18.9506 16.0498 19H21V16.0938ZM21 11.0938C20.5178 11.2792 19.9336 11.4661 19.2646 11.6045C18.5383 11.7547 17.7132 11.8475 16.8135 11.8291C16.6622 12.0856 16.4922 12.343 16.2998 12.5996C15.7746 13.2999 15.4671 13.9954 15.3076 14.6602C16.6661 14.9288 17.8777 14.8488 18.8604 14.6455C19.6782 14.4763 20.3396 14.2225 20.792 14.0137C20.8677 13.9787 20.9366 13.9437 21 13.9121V11.0938ZM10.6045 9.93164C10.3925 10.7511 10.0173 11.6004 9.41016 12.4473C10.3871 12.6712 11.4176 13.0434 12.4785 13.6221C12.7878 13.7908 13.0937 13.9386 13.3945 14.0674C13.6065 13.2481 13.9818 12.3985 14.5889 11.5518C13.6123 11.3278 12.5819 10.9563 11.5215 10.3779C11.2117 10.209 10.9057 10.0606 10.6045 9.93164ZM8.69141 9.33887C7.33333 9.07051 6.12207 9.15123 5.13965 9.35449C4.32182 9.52374 3.66036 9.77755 3.20801 9.98633C3.13246 10.0212 3.06326 10.0554 3 10.0869V12.9053C3.48218 12.7199 4.0665 12.5339 4.73535 12.3955C5.46143 12.2453 6.2862 12.1516 7.18555 12.1699C7.33677 11.9136 7.50785 11.6569 7.7002 11.4004C8.22556 10.6999 8.53198 10.0038 8.69141 9.33887ZM17.1748 5C17.3286 5.36773 17.4779 5.79054 17.5947 6.25781C17.8484 7.27258 17.948 8.50052 17.6338 9.81055C18.073 9.78101 18.4838 9.72342 18.8604 9.64551C19.6782 9.47626 20.3396 9.22245 20.792 9.01367C20.8677 8.97873 20.9366 8.94373 21 8.91211V5H17.1748ZM10.1748 5C10.3286 5.36773 10.4779 5.79054 10.5947 6.25781C10.7175 6.7491 10.8032 7.29058 10.8252 7.86719C11.3655 8.0669 11.9176 8.31616 12.4785 8.62207C13.5732 9.21915 14.6195 9.55405 15.5859 9.71387C15.9379 8.62153 15.8688 7.59641 15.6553 6.74219C15.4925 6.09117 15.2459 5.54439 15.04 5.16016C15.0092 5.10265 14.9785 5.04942 14.9502 5H10.1748ZM3 7.90527C3.48218 7.71989 4.0665 7.53389 4.73535 7.39551C5.8696 7.16089 7.24453 7.06257 8.76855 7.31836C8.7385 7.11924 8.70133 6.92641 8.65527 6.74219C8.49249 6.09117 8.24586 5.54439 8.04004 5.16016C8.00923 5.10265 7.97846 5.04942 7.9502 5H3V7.90527Z" fill="#9E9E9E"/>
</g>
</svg>
