<svg width="24" height="24" viewBox="0 0 24 24" fill="none" xmlns="http://www.w3.org/2000/svg">
<g id="icons/Edit/distribute-vertical-spacing">
<path id="Union" d="M21.5 19C22.0523 19 22.5 19.4477 22.5 20C22.5 20.5523 22.0523 21 21.5 21H2.5C1.94772 21 1.5 20.5523 1.5 20C1.5 19.4477 1.94772 19 2.5 19H21.5ZM17 9C17.5523 9 18 9.44772 18 10V14C18 14.5523 17.5523 15 17 15H7C6.44772 15 6 14.5523 6 14V10C6 9.44772 6.44772 9 7 9H17ZM8 13H16V11H8V13ZM21.5 3C22.0523 3 22.5 3.44772 22.5 4C22.5 4.55228 22.0523 5 21.5 5H2.5C1.94772 5 1.5 4.55228 1.5 4C1.5 3.44772 1.94772 3 2.5 3H21.5Z" fill="#9E9E9E"/>
</g>
</svg>
