<svg width="24" height="24" viewBox="0 0 24 24" fill="none" xmlns="http://www.w3.org/2000/svg">
<g id="icons/Edit/distribute-vertically">
<path id="Union" d="M21 19C21.5523 19 22 19.4477 22 20C22 20.5523 21.5523 21 21 21H3C2.44772 21 2 20.5523 2 20C2 19.4477 2.44772 19 3 19H21ZM19 8C19.5523 8 20 8.44772 20 9V15C20 15.5523 19.5523 16 19 16H5C4.44772 16 4 15.5523 4 15V9C4 8.44772 4.44772 8 5 8H19ZM6 14H18V10H6V14ZM21 3C21.5523 3 22 3.44772 22 4C22 4.55228 21.5523 5 21 5H3C2.44772 5 2 4.55228 2 4C2 3.44772 2.44772 3 3 3H21Z" fill="#9E9E9E"/>
</g>
</svg>
