<svg width="24" height="24" viewBox="0 0 24 24" fill="none" xmlns="http://www.w3.org/2000/svg">
<g id="icons/Edit/distribute-horizontally">
<path id="Union" d="M4 2C4.55228 2 5 2.44772 5 3V21C5 21.5523 4.55228 22 4 22C3.44772 22 3 21.5523 3 21V3C3 2.44772 3.44772 2 4 2ZM20 2C20.5523 2 21 2.44772 21 3V21C21 21.5523 20.5523 22 20 22C19.4477 22 19 21.5523 19 21V3C19 2.44772 19.4477 2 20 2ZM15 4C15.5523 4 16 4.44772 16 5V19C16 19.5523 15.5523 20 15 20H9C8.44772 20 8 19.5523 8 19V5C8 4.44772 8.44772 4 9 4H15ZM10 18H14V6H10V18Z" fill="#9E9E9E"/>
</g>
</svg>
