<svg width="24" height="24" viewBox="0 0 24 24" fill="none" xmlns="http://www.w3.org/2000/svg">
<g id="icons/Edit/dividing-line">
<path id="Union" d="M5.5 18C6.05228 18 6.5 18.4477 6.5 19C6.5 19.5523 6.05228 20 5.5 20H2.5C1.94772 20 1.5 19.5523 1.5 19C1.5 18.4477 1.94772 18 2.5 18H5.5ZM13.5 18C14.0523 18 14.5 18.4477 14.5 19C14.5 19.5523 14.0523 20 13.5 20H10.5C9.94771 20 9.5 19.5523 9.5 19C9.5 18.4477 9.94771 18 10.5 18H13.5ZM21.5 18C22.0523 18 22.5 18.4477 22.5 19C22.5 19.5523 22.0523 20 21.5 20H18.5C17.9477 20 17.5 19.5523 17.5 19C17.5 18.4477 17.9477 18 18.5 18H21.5ZM21.5 11C22.0523 11 22.5 11.4477 22.5 12C22.5 12.5523 22.0523 13 21.5 13H2.5C1.94772 13 1.5 12.5523 1.5 12C1.5 11.4477 1.94772 11 2.5 11H21.5ZM5.5 4C6.05228 4 6.5 4.44772 6.5 5C6.5 5.55228 6.05228 6 5.5 6H2.5C1.94772 6 1.5 5.55228 1.5 5C1.5 4.44772 1.94772 4 2.5 4H5.5ZM13.5 4C14.0523 4 14.5 4.44772 14.5 5C14.5 5.55228 14.0523 6 13.5 6H10.5C9.94771 6 9.5 5.55228 9.5 5C9.5 4.44772 9.94771 4 10.5 4H13.5ZM21.5 4C22.0523 4 22.5 4.44772 22.5 5C22.5 5.55228 22.0523 6 21.5 6H18.5C17.9477 6 17.5 5.55228 17.5 5C17.5 4.44772 17.9477 4 18.5 4H21.5Z" fill="#9E9E9E"/>
</g>
</svg>
