<svg width="24" height="24" viewBox="0 0 24 24" fill="none" xmlns="http://www.w3.org/2000/svg">
<g id="icons/Edit/dividing-line-one">
<path id="Union" d="M6 18C6.55228 18 7 18.4477 7 19C7 19.5523 6.55228 20 6 20H4C3.44772 20 3 19.5523 3 19C3 18.4477 3.44772 18 4 18H6ZM14 18C14.5523 18 15 18.4477 15 19C15 19.5523 14.5523 20 14 20H10C9.44771 20 9 19.5523 9 19C9 18.4477 9.44771 18 10 18H14ZM20 18C20.5523 18 21 18.4477 21 19C21 19.5523 20.5523 20 20 20H18C17.4477 20 17 19.5523 17 19C17 18.4477 17.4477 18 18 18H20ZM22 11C22.5523 11 23 11.4477 23 12C23 12.5523 22.5523 13 22 13H2C1.44772 13 1 12.5523 1 12C1 11.4477 1.44772 11 2 11H22ZM6 4C6.55228 4 7 4.44772 7 5C7 5.55228 6.55228 6 6 6H4C3.44772 6 3 5.55228 3 5C3 4.44772 3.44772 4 4 4H6ZM14 4C14.5523 4 15 4.44772 15 5C15 5.55228 14.5523 6 14 6H10C9.44771 6 9 5.55228 9 5C9 4.44772 9.44771 4 10 4H14ZM20 4C20.5523 4 21 4.44772 21 5C21 5.55228 20.5523 6 20 6H18C17.4477 6 17 5.55228 17 5C17 4.44772 17.4477 4 18 4H20Z" fill="#9E9E9E"/>
</g>
</svg>
