<svg width="24" height="24" viewBox="0 0 24 24" fill="none" xmlns="http://www.w3.org/2000/svg">
<g id="icons/Edit/done-all">
<path id="Union" d="M16.293 6.29297C16.6835 5.90244 17.3165 5.90244 17.707 6.29297C18.0975 6.6835 18.0975 7.31653 17.707 7.70703L7.70703 17.707C7.31653 18.0975 6.6835 18.0975 6.29297 17.707L1.29297 12.707C0.902444 12.3165 0.902444 11.6835 1.29297 11.293C1.68349 10.9024 2.31651 10.9024 2.70703 11.293L7 15.5859L16.293 6.29297ZM21.293 6.29297C21.6835 5.90244 22.3165 5.90244 22.707 6.29297C23.0975 6.6835 23.0975 7.31653 22.707 7.70703L12.707 17.707C12.3165 18.0975 11.6835 18.0975 11.293 17.707L10.668 17.082C10.2774 16.6915 10.2774 16.0585 10.668 15.668C11.0306 15.3054 11.6016 15.2801 11.9941 15.5908L21.293 6.29297ZM6.29297 11.293C6.68349 10.9024 7.31651 10.9024 7.70703 11.293L8.33203 11.918C8.72248 12.3085 8.72253 12.9415 8.33203 13.332C7.94153 13.7225 7.3085 13.7225 6.91797 13.332L6.29297 12.707C5.90244 12.3165 5.90244 11.6835 6.29297 11.293Z" fill="#9E9E9E"/>
</g>
</svg>
