<svg width="24" height="24" viewBox="0 0 24 24" fill="none" xmlns="http://www.w3.org/2000/svg">
<g id="icons/Edit/download-four">
<path id="Union" d="M17 21C17.5523 21 18 21.4477 18 22C18 22.5523 17.5523 23 17 23H7C6.44772 23 6 22.5523 6 22C6 21.4477 6.44772 21 7 21H17ZM21 17.5C21.5523 17.5 22 17.9477 22 18.5C22 19.0523 21.5523 19.5 21 19.5H3C2.44772 19.5 2 19.0523 2 18.5C2 17.9477 2.44772 17.5 3 17.5H21ZM14 2C14.5523 2.00003 15 2.44773 15 3V7.5H18C18.4044 7.50002 18.769 7.74359 18.9238 8.11719C19.0786 8.49085 18.993 8.92103 18.707 9.20703L12.707 15.207C12.5195 15.3946 12.2652 15.5 12 15.5C11.7348 15.5 11.4805 15.3945 11.293 15.207L5.29297 9.20703C5.00697 8.92103 4.92139 8.49086 5.07617 8.11719C5.23098 7.74358 5.59558 7.5 6 7.5H9V3C9 2.44772 9.44772 2 10 2H14ZM11 8.5C11 9.05227 10.5523 9.49997 10 9.5H8.41406L12 13.0859L15.5859 9.5H14C13.4477 9.5 13 9.05228 13 8.5V4H11V8.5Z" fill="#9E9E9E"/>
</g>
</svg>
