<svg width="24" height="24" viewBox="0 0 24 24" fill="none" xmlns="http://www.w3.org/2000/svg">
<g id="icons/Edit/drop-shadow-left">
<path id="Union" d="M13.5 3C15.985 3 18.2366 4.00817 19.8643 5.63574C21.4918 7.2633 22.5 9.51498 22.5 12C22.5 14.485 21.4918 16.7367 19.8643 18.3643C18.2367 19.9918 15.985 21 13.5 21C11.015 21 8.7633 19.9918 7.13574 18.3643C5.5082 16.7366 4.5 14.485 4.5 12C4.5 9.51498 5.50818 7.26331 7.13574 5.63574C8.76331 4.00815 11.015 3 13.5 3ZM5.01465 3.51465C5.40515 3.12416 6.03818 3.12421 6.42871 3.51465C6.81923 3.90518 6.81924 4.53819 6.42871 4.92871C4.618 6.73943 3.5 9.23831 3.5 12C3.50003 14.7616 4.61797 17.2605 6.42871 19.0713C6.8192 19.4618 6.81923 20.0948 6.42871 20.4854C6.03818 20.8757 5.40511 20.8758 5.01465 20.4854C2.84418 18.3149 1.50003 15.3134 1.5 12C1.5 8.68658 2.8442 5.68511 5.01465 3.51465ZM13.5 5C11.5667 5 9.81763 5.78196 8.5498 7.0498C7.28197 8.31764 6.5 10.0667 6.5 12C6.5 13.9333 7.28198 15.6823 8.5498 16.9502C9.81764 18.218 11.5667 19 13.5 19C15.4333 19 17.1823 18.218 18.4502 16.9502C19.718 15.6823 20.5 13.9333 20.5 12C20.5 10.0667 19.718 8.31764 18.4502 7.0498C17.1823 5.78197 15.4333 5 13.5 5Z" fill="#9E9E9E"/>
</g>
</svg>
