<svg width="24" height="24" viewBox="0 0 24 24" fill="none" xmlns="http://www.w3.org/2000/svg">
<g id="icons/Edit/drop-shadow-up">
<path id="Union" d="M12 4.5C14.485 4.5 16.7366 5.5082 18.3643 7.13574C19.9918 8.7633 21 11.015 21 13.5C21 15.985 19.9918 18.2367 18.3643 19.8643C16.7367 21.4918 14.485 22.5 12 22.5C9.51498 22.5 7.2633 21.4918 5.63574 19.8643C4.00817 18.2366 3 15.985 3 13.5C3 11.015 4.00815 8.76331 5.63574 7.13574C7.26331 5.50818 9.51498 4.5 12 4.5ZM12 6.5C10.0667 6.5 8.31764 7.28197 7.0498 8.5498C5.78196 9.81763 5 11.5667 5 13.5C5 15.4333 5.78197 17.1823 7.0498 18.4502C8.31764 19.718 10.0667 20.5 12 20.5C13.9333 20.5 15.6823 19.718 16.9502 18.4502C18.218 17.1823 19 15.4333 19 13.5C19 11.5667 18.218 9.81764 16.9502 8.5498C15.6823 7.28198 13.9333 6.5 12 6.5ZM12 1.5C15.3134 1.50004 18.3149 2.84417 20.4854 5.01465C20.8758 5.4051 20.8756 6.03819 20.4854 6.42871C20.0948 6.81921 19.4618 6.81918 19.0713 6.42871C17.2606 4.61799 14.7617 3.50004 12 3.5C9.23836 3.5 6.73946 4.618 4.92871 6.42871C4.53819 6.81924 3.90517 6.81923 3.51465 6.42871C3.12421 6.03818 3.12415 5.40514 3.51465 5.01465C5.68513 2.8442 8.68663 1.5 12 1.5Z" fill="#9E9E9E"/>
</g>
</svg>
