<svg width="24" height="24" viewBox="0 0 24 24" fill="none" xmlns="http://www.w3.org/2000/svg">
<g id="icons/Edit/drop-shadow-right">
<path id="Union" d="M10.5 3C12.985 3 15.2366 4.00817 16.8643 5.63574C18.4918 7.2633 19.5 9.51498 19.5 12C19.5 14.485 18.4918 16.7367 16.8643 18.3643C15.2367 19.9918 12.985 21 10.5 21C8.01498 21 5.76331 19.9918 4.13574 18.3643C2.50817 16.7366 1.5 14.485 1.5 12C1.5 9.51499 2.50815 7.26331 4.13574 5.63574C5.76332 4.00815 8.01499 3 10.5 3ZM17.5713 3.51465C17.9618 3.12413 18.5948 3.12413 18.9854 3.51465C21.1558 5.68511 22.5 8.68653 22.5 12C22.5 15.3134 21.1557 18.3149 18.9854 20.4854C18.5949 20.8757 17.9618 20.8757 17.5713 20.4854C17.1808 20.0949 17.1809 19.4618 17.5713 19.0713C19.382 17.2605 20.5 14.7616 20.5 12C20.5 9.23827 19.382 6.73945 17.5713 4.92871C17.1808 4.53818 17.1808 3.90517 17.5713 3.51465ZM10.5 5C8.56671 5 6.81764 5.78196 5.5498 7.0498C4.28196 8.31763 3.5 10.0667 3.5 12C3.5 13.9333 4.28197 15.6823 5.5498 16.9502C6.81765 18.218 8.56672 19 10.5 19C12.4333 19 14.1823 18.218 15.4502 16.9502C16.718 15.6823 17.5 13.9333 17.5 12C17.5 10.0667 16.718 8.31764 15.4502 7.0498C14.1823 5.78197 12.4333 5 10.5 5Z" fill="#9E9E9E"/>
</g>
</svg>
