<svg width="24" height="24" viewBox="0 0 24 24" fill="none" xmlns="http://www.w3.org/2000/svg">
<g id="icons/Edit/drop-down-list">
<path id="Union" d="M19.4004 13.2002C19.8422 12.869 20.4685 12.9586 20.7998 13.4004C21.131 13.8422 21.0414 14.4685 20.5996 14.7998L12.5996 20.7998C12.2441 21.0663 11.7559 21.0663 11.4004 20.7998L3.40039 14.7998C2.95861 14.4685 2.86896 13.8422 3.2002 13.4004C3.53153 12.9586 4.15779 12.869 4.59961 13.2002L12 18.75L19.4004 13.2002ZM20 8C20.5523 8 21 8.44772 21 9C21 9.55228 20.5523 10 20 10H4C3.44772 10 3 9.55228 3 9C3 8.44772 3.44772 8 4 8H20ZM20 4C20.5523 4 21 4.44772 21 5C21 5.55228 20.5523 6 20 6H4C3.44772 6 3 5.55228 3 5C3 4.44772 3.44772 4 4 4H20Z" fill="#9E9E9E"/>
</g>
</svg>
