<svg width="24" height="24" viewBox="0 0 24 24" fill="none" xmlns="http://www.w3.org/2000/svg">
<g id="icons/Edit/drop-shadow-down">
<path id="Union" d="M19.0713 17.5713C19.4618 17.1809 20.0949 17.1808 20.4854 17.5713C20.8757 17.9618 20.8757 18.5949 20.4854 18.9854C18.3149 21.1557 15.3134 22.5 12 22.5C8.68657 22.5 5.68512 21.1557 3.51465 18.9854C3.12413 18.5948 3.12414 17.9618 3.51465 17.5713C3.90516 17.1808 4.53818 17.1808 4.92871 17.5713C6.73948 19.3819 9.23834 20.5 12 20.5C14.7617 20.5 17.2605 19.3819 19.0713 17.5713ZM12 1.5C14.485 1.5 16.7366 2.50817 18.3643 4.13574C19.9918 5.76331 21 8.01498 21 10.5C21 12.985 19.9918 15.2367 18.3643 16.8643C16.7367 18.4918 14.485 19.5 12 19.5C9.51498 19.5 7.2633 18.4918 5.63574 16.8643C4.00817 15.2366 3 12.985 3 10.5C3 8.01499 4.00815 5.76332 5.63574 4.13574C7.26331 2.50815 9.51499 1.5 12 1.5ZM12 3.5C10.0667 3.5 8.31763 4.28196 7.0498 5.5498C5.78196 6.81764 5 8.56671 5 10.5C5 12.4333 5.78197 14.1823 7.0498 15.4502C8.31764 16.718 10.0667 17.5 12 17.5C13.9333 17.5 15.6823 16.718 16.9502 15.4502C18.218 14.1823 19 12.4333 19 10.5C19 8.56672 18.218 6.81765 16.9502 5.5498C15.6823 4.28197 13.9333 3.5 12 3.5Z" fill="#9E9E9E"/>
</g>
</svg>
