<svg width="24" height="24" viewBox="0 0 24 24" fill="none" xmlns="http://www.w3.org/2000/svg">
<g id="icons/Edit/edit-one">
<path id="Union" d="M14.5 1C15.0523 1 15.5 1.44772 15.5 2C15.5 2.55228 15.0523 3 14.5 3H4.5V21H18.5V10.002C18.5002 9.44983 18.9478 9.00195 19.5 9.00195C20.0522 9.00195 20.4998 9.44983 20.5 10.002V21C20.5 22.1046 19.6046 23 18.5 23H4.5C3.39544 23 2.5 22.1046 2.5 21V3C2.5 1.89543 3.39543 1 4.5 1H14.5ZM12.5 13C13.0523 13 13.5 13.4477 13.5 14C13.5 14.5523 13.0523 15 12.5 15H6.5C5.94772 15 5.5 14.5523 5.5 14C5.5 13.4477 5.94772 13 6.5 13H12.5ZM10.5 8C11.0523 8 11.5 8.44772 11.5 9C11.5 9.55229 11.0523 10 10.5 10H6.5C5.94772 10 5.5 9.55229 5.5 9C5.5 8.44772 5.94772 8 6.5 8H10.5ZM19.792 2.29395C20.1825 1.90346 20.8155 1.90356 21.2061 2.29395C21.5966 2.68447 21.5966 3.31748 21.2061 3.70801L15.209 9.70508C14.8185 10.0956 14.1854 10.0956 13.7949 9.70508C13.4046 9.31454 13.4045 8.68148 13.7949 8.29102L19.792 2.29395Z" fill="#9E9E9E"/>
</g>
</svg>
