<svg width="24" height="24" viewBox="0 0 24 24" fill="none" xmlns="http://www.w3.org/2000/svg">
<g id="icons/Edit/editing">
<path id="Union" d="M3.2627 2.32422C3.63587 1.91718 4.26868 1.8896 4.67578 2.2627L12 8.97559L19.3242 2.2627C19.7313 1.8896 20.3641 1.91718 20.7373 2.32422C21.1104 2.73132 21.0828 3.36412 20.6758 3.7373L13.4795 10.333L16.5098 13.1104C16.8284 13.0388 17.1597 13 17.5 13C19.9853 13 22 15.0148 22 17.5C22 19.9853 19.9853 22 17.5 22C15.0147 22 13 19.9853 13 17.5C13 16.1236 13.6182 14.8918 14.5918 14.0664L11.999 11.6895L9.40723 14.0664C10.3812 14.8918 11 16.1234 11 17.5C11 19.9853 8.98528 22 6.5 22C4.01472 22 2 19.9853 2 17.5C2.00005 15.0148 4.01475 13 6.5 13C6.83996 13 7.17086 13.0389 7.48926 13.1104L10.5195 10.333L3.32422 3.7373C2.91716 3.36412 2.88956 2.73132 3.2627 2.32422ZM6.5 15C5.11932 15 4.00005 16.1193 4 17.5C4 18.8807 5.11929 20 6.5 20C7.88071 20 9 18.8807 9 17.5C8.99995 16.1193 7.88068 15 6.5 15ZM17.5 15C16.1193 15 15 16.1193 15 17.5C15 18.8807 16.1193 20 17.5 20C18.8807 20 20 18.8807 20 17.5C20 16.1193 18.8807 15 17.5 15Z" fill="#9E9E9E"/>
</g>
</svg>
