<svg width="24" height="24" viewBox="0 0 24 24" fill="none" xmlns="http://www.w3.org/2000/svg">
<g id="icons/Edit/edit-two">
<path id="Union" d="M11 2C11.5523 2 12 2.44772 12 3C12 3.55228 11.5523 4 11 4H4V20H20V13C20 12.4477 20.4477 12 21 12C21.5523 12 22 12.4477 22 13V20C22 21.1046 21.1046 22 20 22H4C2.89544 22 2 21.1046 2 20V4C2 2.89543 2.89543 2 4 2H11ZM17.3477 2C17.6129 2.00003 17.8672 2.10542 18.0547 2.29297L21.707 5.94727C22.0973 6.33775 22.0973 6.97084 21.707 7.36133L11.3662 17.707C11.1787 17.8947 10.9235 18 10.6582 18H7C6.44772 18 6 17.5523 6 17V13.3604C6 13.0955 6.10488 12.8408 6.29199 12.6533L16.6396 2.29297L16.7129 2.22656C16.8909 2.0805 17.1154 2.00004 17.3477 2ZM8 13.7734V16H10.2441L19.5859 6.65332L17.3477 4.41406L8 13.7734Z" fill="#9E9E9E"/>
</g>
</svg>
