<svg width="24" height="24" viewBox="0 0 24 24" fill="none" xmlns="http://www.w3.org/2000/svg">
<g id="icons/Edit/edit-movie">
<path id="Union" d="M12 17.5C12.5523 17.5 13 17.9477 13 18.5V20.5C13 21.0523 12.5523 21.5 12 21.5C11.4477 21.5 11 21.0523 11 20.5V18.5C11 17.9477 11.4477 17.5 12 17.5ZM9 3.5C9.55229 3.5 10 3.94772 10 4.5C10 5.05228 9.55229 5.5 9 5.5H8V7.5H9C9.55229 7.5 10 7.94772 10 8.5C10 9.05228 9.55229 9.5 9 9.5H3.5V14.5H9C9.55229 14.5 10 14.9477 10 15.5C10 16.0523 9.55229 16.5 9 16.5H8V18.5H9C9.55229 18.5 10 18.9477 10 19.5C10 20.0523 9.55229 20.5 9 20.5H2.5C1.94772 20.5 1.5 20.0523 1.5 19.5V4.5C1.5 3.94772 1.94772 3.5 2.5 3.5H9ZM21.5 3.5C22.0523 3.5 22.5 3.94772 22.5 4.5V19.5C22.5 20.0523 22.0523 20.5 21.5 20.5H15C14.4477 20.5 14 20.0523 14 19.5C14 18.9477 14.4477 18.5 15 18.5H16V16.5H15C14.4477 16.5 14 16.0523 14 15.5C14 14.9477 14.4477 14.5 15 14.5H20.5V9.5H15C14.4477 9.5 14 9.05228 14 8.5C14 7.94772 14.4477 7.5 15 7.5H16V5.5H15C14.4477 5.5 14 5.05228 14 4.5C14 3.94772 14.4477 3.5 15 3.5H21.5ZM12 12.5C12.5523 12.5 13 12.9477 13 13.5V15.5C13 16.0523 12.5523 16.5 12 16.5C11.4477 16.5 11 16.0523 11 15.5V13.5C11 12.9477 11.4477 12.5 12 12.5ZM12 7.5C12.5523 7.5 13 7.94772 13 8.5V10.5C13 11.0523 12.5523 11.5 12 11.5C11.4477 11.5 11 11.0523 11 10.5V8.5C11 7.94772 11.4477 7.5 12 7.5ZM12 2.5C12.5523 2.5 13 2.94772 13 3.5V5.5C13 6.05228 12.5523 6.5 12 6.5C11.4477 6.5 11 6.05228 11 5.5V3.5C11 2.94772 11.4477 2.5 12 2.5Z" fill="#9E9E9E"/>
</g>
</svg>
