<svg width="24" height="24" viewBox="0 0 24 24" fill="none" xmlns="http://www.w3.org/2000/svg">
<g id="icons/Edit/electric-wave">
<path id="Union" d="M19.5 2C20.8807 2 22 3.11929 22 4.5V19.5C22 20.8807 20.8807 22 19.5 22H4.5C3.11929 22 2 20.8807 2 19.5V4.5C2 3.11929 3.11929 2 4.5 2H19.5ZM4.5 4C4.22386 4 4 4.22386 4 4.5V19.5C4 19.7761 4.22386 20 4.5 20H19.5C19.7761 20 20 19.7761 20 19.5V4.5C20 4.22386 19.7761 4 19.5 4H4.5ZM9.60645 6.00586C10.0637 6.05482 10.4291 6.40954 10.4912 6.86523L11.4639 14.0039L12.5664 11.1406C12.7006 10.792 13.0183 10.5471 13.3896 10.5059C13.7611 10.4647 14.1247 10.6343 14.332 10.9453L15.5479 12.7695L16.2002 11.9004L16.2754 11.8105C16.463 11.6134 16.7245 11.5 17 11.5H18.5C19.0523 11.5 19.5 11.9477 19.5 12.5C19.5 13.0523 19.0523 13.5 18.5 13.5H17.499L16.2998 15.0996C16.1052 15.3591 15.7969 15.5089 15.4727 15.5C15.1482 15.491 14.848 15.3247 14.668 15.0547L13.7393 13.6621L11.9336 18.3594C11.7697 18.7852 11.338 19.0458 10.8848 18.9932C10.4313 18.9404 10.0705 18.5871 10.0088 18.1348L9.05566 11.1465L8.43945 12.8418C8.29571 13.2369 7.92045 13.5 7.5 13.5H6C5.44772 13.5 5 13.0523 5 12.5C5 11.9477 5.44772 11.5 6 11.5H6.7998L8.56055 6.6582L8.63184 6.50391C8.82607 6.16364 9.20641 5.96304 9.60645 6.00586Z" fill="#9E9E9E"/>
</g>
</svg>
