<svg width="24" height="24" viewBox="0 0 24 24" fill="none" xmlns="http://www.w3.org/2000/svg">
<g id="icons/Edit/endpoint-round">
<path id="Union" d="M21 3C21.5523 3 22 3.44772 22 4C22 4.55228 21.5523 5 21 5H11C7.13398 5 4 8.13398 4 12C4 15.866 7.13398 19 11 19H21C21.5523 19 22 19.4477 22 20C22 20.5523 21.5523 21 21 21H11C6.02942 21 2 16.9706 2 12C2 7.02942 6.02942 3 11 3H21ZM11 9.5C12.0249 9.5 12.9041 10.1174 13.29 11H21C21.5523 11 22 11.4477 22 12C22 12.5523 21.5523 13 21 13H13.29C12.9041 13.8826 12.0249 14.5 11 14.5C9.61929 14.5 8.5 13.3807 8.5 12C8.5 10.6193 9.61929 9.5 11 9.5ZM11 11.5C10.7239 11.5 10.5 11.7239 10.5 12C10.5 12.2761 10.7239 12.5 11 12.5C11.2761 12.5 11.5 12.2761 11.5 12C11.5 11.7239 11.2761 11.5 11 11.5Z" fill="#9E9E9E"/>
</g>
</svg>
