<svg width="24" height="24" viewBox="0 0 24 24" fill="none" xmlns="http://www.w3.org/2000/svg">
<g id="icons/Edit/endpoint-square">
<path id="Union" d="M21 3C21.5523 3 22 3.44772 22 4C22 4.55228 21.5523 5 21 5H4V19H21C21.5523 19 22 19.4477 22 20C22 20.5523 21.5523 21 21 21H3C2.44772 21 2 20.5523 2 20V4C2 3.44772 2.44772 3 3 3H21ZM12 9.5C13.0249 9.5 13.9041 10.1174 14.29 11H21C21.5523 11 22 11.4477 22 12C22 12.5523 21.5523 13 21 13H14.29C13.9041 13.8826 13.0249 14.5 12 14.5C10.6193 14.5 9.5 13.3807 9.5 12C9.5 10.6193 10.6193 9.5 12 9.5ZM12 11.5C11.7239 11.5 11.5 11.7239 11.5 12C11.5 12.2761 11.7239 12.5 12 12.5C12.2761 12.5 12.5 12.2761 12.5 12C12.5 11.7239 12.2761 11.5 12 11.5Z" fill="#9E9E9E"/>
</g>
</svg>
