<svg width="24" height="24" viewBox="0 0 24 24" fill="none" xmlns="http://www.w3.org/2000/svg">
<g id="icons/Edit/endpoint-displacement">
<path id="Union" d="M18.5 15.5C20.433 15.5 22 17.067 22 19C22 20.933 20.433 22.5 18.5 22.5C16.9146 22.5 15.5758 21.4457 15.1455 20H12.9141L13.207 20.293C13.5976 20.6835 13.5976 21.3165 13.207 21.707C12.8165 22.0976 12.1835 22.0976 11.793 21.707L9.79297 19.707C9.40244 19.3165 9.40244 18.6835 9.79297 18.293L11.793 16.293C12.1835 15.9024 12.8165 15.9024 13.207 16.293C13.5976 16.6835 13.5976 17.3165 13.207 17.707L12.9141 18H15.1455C15.5758 16.5543 16.9146 15.5 18.5 15.5ZM4.36914 9.72461C4.76191 9.40426 5.34092 9.42685 5.70703 9.79297L7.70703 11.793C8.09756 12.1835 8.09756 12.8165 7.70703 13.207C7.31651 13.5976 6.68349 13.5976 6.29297 13.207L6 12.9141V15.1455C7.44566 15.5758 8.5 16.9146 8.5 18.5C8.5 20.433 6.93298 22 5 22C3.067 22 1.5 20.433 1.5 18.5C1.5 16.9146 2.55433 15.5758 4 15.1455V12.9141L3.70703 13.207C3.31651 13.5976 2.68349 13.5976 2.29297 13.207C1.90244 12.8165 1.90244 12.1835 2.29297 11.793L4.29297 9.79297L4.36914 9.72461ZM19 2C20.933 2 22.5 3.567 22.5 5.5C22.5 7.08534 21.4455 8.4231 20 8.85352V11.0859L20.293 10.793C20.6835 10.4024 21.3165 10.4024 21.707 10.793C22.0976 11.1835 22.0976 11.8165 21.707 12.207L19.707 14.207C19.3165 14.5976 18.6835 14.5976 18.293 14.207L16.293 12.207C15.9024 11.8165 15.9024 11.1835 16.293 10.793C16.6835 10.4024 17.3165 10.4024 17.707 10.793L18 11.0859V8.85352C16.5545 8.4231 15.5 7.08534 15.5 5.5C15.5 3.567 17.067 2 19 2ZM5.5 1.5C7.08544 1.5 8.42416 2.55433 8.85449 4H11.0859L10.793 3.70703C10.4024 3.31651 10.4024 2.68349 10.793 2.29297C11.1835 1.90244 11.8165 1.90244 12.207 2.29297L14.207 4.29297C14.5976 4.68349 14.5976 5.31651 14.207 5.70703L12.207 7.70703C11.8165 8.09756 11.1835 8.09756 10.793 7.70703C10.4024 7.31651 10.4024 6.68349 10.793 6.29297L11.0859 6H8.85449C8.42416 7.44566 7.08544 8.5 5.5 8.5C3.567 8.5 2 6.93298 2 5C2 3.06701 3.56701 1.5 5.5 1.5Z" fill="#9E9E9E"/>
</g>
</svg>
