<svg width="24" height="24" viewBox="0 0 24 24" fill="none" xmlns="http://www.w3.org/2000/svg">
<g id="icons/Edit/endpoint-flat">
<path id="Union" d="M21.5 3C22.0523 3 22.5 3.44772 22.5 4C22.5 4.55228 22.0523 5 21.5 5H4.5V9.70898C5.07632 9.9609 5.53804 10.4237 5.79004 11H21.5C22.0523 11 22.5 11.4477 22.5 12C22.5 12.5523 22.0523 13 21.5 13H5.79004C5.53809 13.5762 5.07615 14.0381 4.5 14.29V19H21.5C22.0523 19 22.5 19.4477 22.5 20C22.5 20.5523 22.0523 21 21.5 21H3.5C2.94772 21 2.5 20.5523 2.5 20V14.29C1.61743 13.9041 1 13.0249 1 12C1 10.975 1.61724 10.0948 2.5 9.70898V4C2.5 3.44772 2.94772 3 3.5 3H21.5ZM3.5 11.5C3.22386 11.5 3 11.7239 3 12C3 12.2761 3.22386 12.5 3.5 12.5C3.77614 12.5 4 12.2761 4 12C4 11.7239 3.77614 11.5 3.5 11.5Z" fill="#9E9E9E"/>
</g>
</svg>
