<svg width="24" height="24" viewBox="0 0 24 24" fill="none" xmlns="http://www.w3.org/2000/svg">
<g id="icons/Edit/enter-the-keyboard">
<path id="Union" d="M21 2.5C22.1046 2.5 23 3.39544 23 4.5V18.5C23 19.6046 22.1046 20.5 21 20.5H3C1.89544 20.5 1 19.6046 1 18.5V4.5C1 3.39543 1.89543 2.5 3 2.5H21ZM3 18.5H21V4.5H3V18.5ZM18 13C18.5523 13 19 13.4477 19 14C19 14.5523 18.5523 15 18 15H6C5.44772 15 5 14.5523 5 14C5 13.4477 5.44772 13 6 13H18ZM7 8.5C7.55228 8.5 8 8.94772 8 9.5C8 10.0523 7.55228 10.5 7 10.5H6C5.44772 10.5 5 10.0523 5 9.5C5 8.94772 5.44772 8.5 6 8.5H7ZM11.5 8.5C12.0523 8.5 12.5 8.94772 12.5 9.5C12.5 10.0523 12.0523 10.5 11.5 10.5H10.5C9.94771 10.5 9.5 10.0523 9.5 9.5C9.5 8.94772 9.94771 8.5 10.5 8.5H11.5ZM18 8.5C18.5523 8.5 19 8.94772 19 9.5C19 10.0523 18.5523 10.5 18 10.5H14.5C13.9477 10.5 13.5 10.0523 13.5 9.5C13.5 8.94772 13.9477 8.5 14.5 8.5H18Z" fill="#9E9E9E"/>
</g>
</svg>
