<svg width="24" height="24" viewBox="0 0 24 24" fill="none" xmlns="http://www.w3.org/2000/svg">
<g id="icons/Edit/equal-ratio">
<path id="Union" d="M19.5 2C20.8807 2 22 3.11929 22 4.5V19.5C22 20.8807 20.8807 22 19.5 22H4.5C3.11929 22 2 20.8807 2 19.5V4.5C2 3.11929 3.11929 2 4.5 2H19.5ZM4.5 4C4.22386 4 4 4.22386 4 4.5V19.5C4 19.7761 4.22386 20 4.5 20H19.5C19.7761 20 20 19.7761 20 19.5V4.5C20 4.22386 19.7761 4 19.5 4H4.5ZM7.75 7.5C8.30228 7.5 8.75 7.94772 8.75 8.5V15.5C8.75 16.0523 8.30228 16.5 7.75 16.5C7.19772 16.5 6.75 16.0523 6.75 15.5V8.5C6.75 7.94772 7.19772 7.5 7.75 7.5ZM16.25 7.5C16.8023 7.5 17.25 7.94772 17.25 8.5V15.5C17.25 16.0523 16.8023 16.5 16.25 16.5C15.6977 16.5 15.25 16.0523 15.25 15.5V8.5C15.25 7.94772 15.6977 7.5 16.25 7.5ZM12 12.75C12.6903 12.75 13.25 13.3097 13.25 14C13.25 14.6903 12.6903 15.25 12 15.25C11.3097 15.25 10.75 14.6903 10.75 14C10.75 13.3097 11.3097 12.75 12 12.75ZM12 8.75C12.6903 8.75 13.25 9.30965 13.25 10C13.25 10.6903 12.6903 11.25 12 11.25C11.3097 11.25 10.75 10.6903 10.75 10C10.75 9.30965 11.3097 8.75 12 8.75Z" fill="#9E9E9E"/>
</g>
</svg>
