<svg width="24" height="24" viewBox="0 0 24 24" fill="none" xmlns="http://www.w3.org/2000/svg">
<g id="icons/Edit/exclude-selection">
<path id="Union" d="M15 1.5C16.1046 1.5 17 2.39543 17 3.5V7H20.5C20.5323 7 20.5645 7.00178 20.5967 7.00488C21.6563 7.05538 22.5 7.92788 22.5 9V20.5C22.5 21.6046 21.6046 22.5 20.5 22.5H9C7.89543 22.5 7 21.6046 7 20.5V17H3.5C3.46737 17 3.43485 16.9973 3.40234 16.9941C2.34321 16.9431 1.5 16.0718 1.5 15V3.5C1.5 2.39543 2.39543 1.5 3.5 1.5H15ZM15 17H12.9141L9.41406 20.5H11.5859L15.0898 16.9951C15.06 16.9964 15.0302 17 15 17ZM14.4141 20.5H16.5859L20.5 16.5859V14.4141L14.4141 20.5ZM19.4141 20.5H20.5V19.4141L19.4141 20.5ZM9 18.0859L10.0859 17H9V18.0859ZM17 12.9141V15C17 15.0302 16.9964 15.06 16.9951 15.0898L20.5 11.5859V9.41406L17 12.9141ZM5.91406 15H7V13.9141L5.91406 15ZM9 15H15V9H9V15ZM3.5 12.4141V14.5859L7 11.0859V9C7 8.96953 7.00256 8.93931 7.00391 8.90918L3.5 12.4141ZM17 10.0859L18.0859 9H17V10.0859ZM3.5 7.41406V9.58594L9.58594 3.5H7.41406L3.5 7.41406ZM8.90918 7.00391C8.93931 7.00256 8.96953 7 9 7H11.0859L14.5859 3.5H12.4141L8.90918 7.00391ZM13.9141 7H15V5.91406L13.9141 7ZM3.5 4.58594L4.58594 3.5H3.5V4.58594Z" fill="#9E9E9E"/>
</g>
</svg>
