<svg width="24" height="24" viewBox="0 0 24 24" fill="none" xmlns="http://www.w3.org/2000/svg">
<g id="icons/Edit/expand-down">
<path id="Union" d="M19 2C20.6568 2 22 3.34314 22 5V19C22 20.6568 20.6568 22 19 22H5C3.34314 22 2 20.6568 2 19V5C2 3.34315 3.34315 2 5 2H19ZM4 19C4 19.5523 4.44772 20 5 20H19C19.5523 20 20 19.5523 20 19V17H4V19ZM5 4C4.44771 4 4 4.44771 4 5V15H20V5C20 4.44772 19.5523 4 19 4H5ZM13.293 7.29297C13.6835 6.90244 14.3165 6.90244 14.707 7.29297C15.0976 7.68349 15.0976 8.31651 14.707 8.70703L12.707 10.707C12.3165 11.0976 11.6835 11.0976 11.293 10.707L9.29297 8.70703C8.90244 8.31651 8.90244 7.68349 9.29297 7.29297C9.68349 6.90244 10.3165 6.90244 10.707 7.29297L12 8.58594L13.293 7.29297Z" fill="#9E9E9E"/>
</g>
</svg>
