<svg width="24" height="24" viewBox="0 0 24 24" fill="none" xmlns="http://www.w3.org/2000/svg">
<g id="icons/Edit/expand-left-and-right">
<path id="Union" d="M3 2C3.55228 2 4 2.44772 4 3V21C4 21.5523 3.55228 22 3 22C2.44772 22 2 21.5523 2 21V3C2 2.44772 2.44772 2 3 2ZM12 2C12.5523 2 13 2.44772 13 3V21C13 21.5523 12.5523 22 12 22C11.4477 22 11 21.5523 11 21V3C11 2.44772 11.4477 2 12 2ZM21 2C21.5523 2 22 2.44772 22 3V21C22 21.5523 21.5523 22 21 22C20.4477 22 20 21.5523 20 21V3C20 2.44772 20.4477 2 21 2ZM7.29297 9.29297C7.68349 8.90244 8.31651 8.90244 8.70703 9.29297C9.09756 9.68349 9.09756 10.3165 8.70703 10.707L7.41406 12L8.70703 13.293C9.09756 13.6835 9.09756 14.3165 8.70703 14.707C8.31651 15.0976 7.68349 15.0976 7.29297 14.707L5.29297 12.707C4.90244 12.3165 4.90244 11.6835 5.29297 11.293L7.29297 9.29297ZM15.293 9.29297C15.6835 8.90244 16.3165 8.90244 16.707 9.29297L18.707 11.293C19.0976 11.6835 19.0976 12.3165 18.707 12.707L16.707 14.707C16.3165 15.0976 15.6835 15.0976 15.293 14.707C14.9024 14.3165 14.9024 13.6835 15.293 13.293L16.5859 12L15.293 10.707C14.9024 10.3165 14.9024 9.68349 15.293 9.29297Z" fill="#9E9E9E"/>
</g>
</svg>
