<svg width="24" height="24" viewBox="0 0 24 24" fill="none" xmlns="http://www.w3.org/2000/svg">
<g id="icons/Edit/expand-left">
<path id="Union" d="M19.5 2C20.8807 2 22 3.1193 22 4.5V19.5C22 20.8807 20.8807 22 19.5 22H4.5C3.1193 22 2 20.8807 2 19.5V4.5C2 3.11929 3.11929 2 4.5 2H19.5ZM4.5 4C4.22386 4 4 4.22386 4 4.5V19.5C4 19.7762 4.22385 20 4.5 20H15V4H4.5ZM17 20H19.5C19.7762 20 20 19.7762 20 19.5V4.5C20 4.22385 19.7762 4 19.5 4H17V20ZM7.29297 9.29297C7.68349 8.90244 8.31651 8.90244 8.70703 9.29297L10.707 11.293C11.0976 11.6835 11.0976 12.3165 10.707 12.707L8.70703 14.707C8.31651 15.0976 7.68349 15.0976 7.29297 14.707C6.90244 14.3165 6.90244 13.6835 7.29297 13.293L8.58594 12L7.29297 10.707C6.90244 10.3165 6.90244 9.68349 7.29297 9.29297Z" fill="#9E9E9E"/>
</g>
</svg>
