<svg width="24" height="24" viewBox="0 0 24 24" fill="none" xmlns="http://www.w3.org/2000/svg">
<g id="icons/Edit/expand-up">
<path id="Union" d="M19.5 2C20.8807 2 22 3.11929 22 4.5V19.5C22 20.8807 20.8807 22 19.5 22H4.5C3.11929 22 2 20.8807 2 19.5V4.5C2 3.11929 3.11929 2 4.5 2H19.5ZM4 19.5C4 19.7761 4.22386 20 4.5 20H19.5C19.7761 20 20 19.7761 20 19.5V9H4V19.5ZM11.3691 13.2246C11.7619 12.9043 12.3409 12.9269 12.707 13.293L14.707 15.293C15.0976 15.6835 15.0976 16.3165 14.707 16.707C14.3165 17.0976 13.6835 17.0976 13.293 16.707L12 15.4141L10.707 16.707C10.3165 17.0976 9.68349 17.0976 9.29297 16.707C8.90244 16.3165 8.90244 15.6835 9.29297 15.293L11.293 13.293L11.3691 13.2246ZM4.5 4C4.22386 4 4 4.22386 4 4.5V7H20V4.5C20 4.22386 19.7761 4 19.5 4H4.5Z" fill="#9E9E9E"/>
</g>
</svg>
