<svg width="24" height="24" viewBox="0 0 24 24" fill="none" xmlns="http://www.w3.org/2000/svg">
<g id="icons/Edit/expand-right">
<path id="Union" d="M19.5 2C20.8807 2 22 3.11929 22 4.5V19.5C22 20.8807 20.8807 22 19.5 22H4.5C3.11929 22 2 20.8807 2 19.5V4.5C2 3.11929 3.11929 2 4.5 2H19.5ZM4.5 4C4.22386 4 4 4.22386 4 4.5V19.5C4 19.7761 4.22386 20 4.5 20H8V4H4.5ZM10 20H19.5C19.7761 20 20 19.7761 20 19.5V4.5C20 4.22386 19.7761 4 19.5 4H10V20ZM15.293 9.29297C15.6835 8.90244 16.3165 8.90244 16.707 9.29297C17.0976 9.68349 17.0976 10.3165 16.707 10.707L15.4141 12L16.707 13.293C17.0976 13.6835 17.0976 14.3165 16.707 14.707C16.3165 15.0976 15.6835 15.0976 15.293 14.707L13.293 12.707C12.9024 12.3165 12.9024 11.6835 13.293 11.293L15.293 9.29297Z" fill="#9E9E9E"/>
</g>
</svg>
