<svg width="24" height="24" viewBox="0 0 24 24" fill="none" xmlns="http://www.w3.org/2000/svg">
<g id="icons/Edit/extend">
<path id="Union" d="M19.5 2C20.8807 2 22 3.11929 22 4.5V19.5C22 20.8807 20.8807 22 19.5 22H4.5C3.11929 22 2 20.8807 2 19.5V4.5C2 3.11929 3.11929 2 4.5 2H19.5ZM4.5 4C4.22386 4 4 4.22386 4 4.5V19.5C4 19.7761 4.22386 20 4.5 20H19.5C19.7761 20 20 19.7761 20 19.5V4.5C20 4.22386 19.7761 4 19.5 4H4.5ZM6 15.207C6.00002 14.7616 6.53852 14.5385 6.85352 14.8535L9.14648 17.1465C9.46139 17.4615 9.23835 17.9999 8.79297 18H6.5C6.22386 18 6.00002 17.7761 6 17.5V15.207ZM17.1465 14.8535C17.4615 14.5386 18 14.7616 18 15.207V17.5C18 17.7761 17.7761 18 17.5 18H15.207C14.7616 18 14.5386 17.4615 14.8535 17.1465L17.1465 14.8535ZM8.79297 6C9.23836 6.00006 9.46142 6.53853 9.14648 6.85352L6.85352 9.14648C6.53853 9.46142 6.00006 9.23836 6 8.79297V6.5C6 6.22385 6.22385 6 6.5 6H8.79297ZM17.5 6C17.7761 6.00002 18 6.22386 18 6.5V8.79297C17.9999 9.23835 17.4615 9.46139 17.1465 9.14648L14.8535 6.85352C14.5385 6.53852 14.7616 6.00002 15.207 6H17.5Z" fill="#9E9E9E"/>
</g>
</svg>
