<svg width="24" height="24" viewBox="0 0 24 24" fill="none" xmlns="http://www.w3.org/2000/svg">
<g id="icons/Edit/filter-one">
<path id="Union" d="M10.7501 12C11.4404 12 12.0001 12.5597 12.0001 13.25V20.7402C11.9997 22.0959 10.0273 22.2494 9.8136 20.9131L8.88684 15.1123L3.08704 14.1865C1.751 13.9729 1.90394 12.0004 3.25989 12H10.7501ZM15.2501 7.5C15.9404 7.50004 16.5001 8.05969 16.5001 8.75V16.2402C16.4997 17.5959 14.5273 17.7494 14.3136 16.4131L13.3878 10.6123L7.58704 9.68652C6.25076 9.47285 6.40413 7.50042 7.75989 7.5H15.2501ZM19.7501 3C20.4404 3.00004 21.0001 3.55962 21.0001 4.25V11.7402C20.9997 13.096 19.0273 13.2494 18.8136 11.9131L17.8868 6.1123L12.087 5.18652C10.749 4.97285 10.9056 3.00042 12.2599 3H19.7501Z" fill="#9E9E9E"/>
</g>
</svg>
