<svg width="24" height="24" viewBox="0 0 24 24" fill="none" xmlns="http://www.w3.org/2000/svg">
<g id="icons/Edit/filter">
<path id="Union" d="M21.0001 3.5C21.3905 3.50004 21.7451 3.72739 21.9083 4.08203C22.0715 4.43664 22.0137 4.85384 21.7599 5.15039L14.7999 13.2783V21C14.7999 21.3456 14.6218 21.6671 14.3282 21.8496C14.0347 22.032 13.6675 22.0495 13.3575 21.8965L9.75696 20.1191C9.41598 19.9507 9.20049 19.603 9.20032 19.2227V13.2783L2.24036 5.15039C1.98649 4.85383 1.92871 4.43666 2.09192 4.08203C2.25517 3.72738 2.6097 3.5 3.00012 3.5H21.0001ZM10.9601 12.2588C11.115 12.4399 11.2003 12.6708 11.2003 12.9092V18.6006L12.7999 19.3906V12.9092C12.7999 12.6708 12.8852 12.4399 13.0402 12.2588L18.8273 5.5H5.17297L10.9601 12.2588Z" fill="#9E9E9E"/>
</g>
</svg>
