<svg width="24" height="24" viewBox="0 0 24 24" fill="none" xmlns="http://www.w3.org/2000/svg">
<g id="icons/Edit/find">
<path id="Union" d="M15.75 7.5C18.6495 7.5 21 9.85052 21 12.75C21 13.968 20.5837 15.0878 19.8877 15.9785L22.71 18.8203C23.0991 19.2122 23.096 19.8462 22.7041 20.2354C22.3121 20.624 21.679 20.6213 21.29 20.2295L18.376 17.2949C17.6033 17.7423 16.707 18 15.75 18C12.8505 18 10.5 15.6495 10.5 12.75C10.5 9.85052 12.8505 7.5 15.75 7.5ZM7.5 18.5C8.05228 18.5 8.5 18.9477 8.5 19.5C8.5 20.0523 8.05228 20.5 7.5 20.5H2C1.44772 20.5 1 20.0523 1 19.5C1 18.9477 1.44772 18.5 2 18.5H7.5ZM15.75 9.5C13.9551 9.5 12.5 10.9551 12.5 12.75C12.5 14.5449 13.9551 16 15.75 16C17.5449 16 19 14.5449 19 12.75C19 10.9551 17.5449 9.5 15.75 9.5ZM7.5 10.5C8.05228 10.5 8.5 10.9477 8.5 11.5C8.5 12.0523 8.05228 12.5 7.5 12.5H2C1.44772 12.5 1 12.0523 1 11.5C1 10.9477 1.44772 10.5 2 10.5H7.5ZM22 2.5C22.5523 2.5 23 2.94772 23 3.5C23 4.05228 22.5523 4.5 22 4.5H2C1.44772 4.5 1 4.05228 1 3.5C1 2.94772 1.44772 2.5 2 2.5H22Z" fill="#9E9E9E"/>
</g>
</svg>
