<svg width="24" height="24" viewBox="0 0 24 24" fill="none" xmlns="http://www.w3.org/2000/svg">
<g id="icons/Edit/flashlamp">
<path id="Union" d="M12 1C18.0751 1 23 5.92487 23 12C23 18.0751 18.0751 23 12 23C5.92487 23 1 18.0751 1 12C1 5.92487 5.92487 1 12 1ZM12 3C7.02944 3 3 7.02944 3 12C3 16.9706 7.02944 21 12 21C16.9706 21 21 16.9706 21 12C21 7.02944 16.9706 3 12 3ZM10.6055 6.55273C10.8525 6.05876 11.4533 5.85848 11.9473 6.10547C12.4412 6.35246 12.6415 6.95329 12.3945 7.44727L10.6182 11H15C15.3466 11 15.6684 11.1798 15.8506 11.4746C16.0327 11.7694 16.0495 12.1374 15.8945 12.4473L13.3945 17.4473C13.1475 17.9412 12.5467 18.1415 12.0527 17.8945C11.5588 17.6475 11.3585 17.0467 11.6055 16.5527L13.3818 13H9C8.65342 13 8.33162 12.8202 8.14941 12.5254C7.96733 12.2306 7.95051 11.8626 8.10547 11.5527L10.6055 6.55273Z" fill="#9E9E9E"/>
</g>
</svg>
