<svg width="24" height="24" viewBox="0 0 24 24" fill="none" xmlns="http://www.w3.org/2000/svg">
<g id="icons/Edit/flip-vertically">
<path id="Union" d="M18 15C18.4571 15 18.8557 15.3101 18.9688 15.7529C19.0817 16.1959 18.8798 16.659 18.4785 16.8779L7.47852 22.8779C7.16873 23.0468 6.79266 23.0405 6.48926 22.8604C6.18581 22.6802 6 22.3529 6 22V16C6.00008 15.4478 6.44777 15 7 15H18ZM8 20.3154L14.0781 17H8V20.3154ZM21 11C21.5522 11 21.9999 11.4478 22 12C22 12.5523 21.5523 13 21 13H3C2.44772 13 2 12.5523 2 12C2.00008 11.4478 2.44777 11 3 11H21ZM6.48926 1.13965C6.79263 0.959591 7.16876 0.953268 7.47852 1.12207L18.4785 7.12207C18.8798 7.34094 19.0816 7.80417 18.9688 8.24707C18.8558 8.68999 18.4571 9 18 9H7C6.44772 9 6 8.55228 6 8V2C6.00005 1.64712 6.18582 1.31978 6.48926 1.13965ZM8 7H14.0781L8 3.68359V7Z" fill="#9E9E9E"/>
</g>
</svg>
