<svg width="24" height="24" viewBox="0 0 24 24" fill="none" xmlns="http://www.w3.org/2000/svg">
<g id="icons/Edit/flip-horizontally">
<path id="Union" d="M11.9999 2C12.5522 2 12.9999 2.44772 12.9999 3V21C12.9999 21.5523 12.5522 22 11.9999 22C11.4477 21.9999 10.9999 21.5522 10.9999 21V3C10.9999 2.44777 11.4477 2.00008 11.9999 2ZM8.24695 5.03125C8.68987 5.14421 8.99988 5.5429 8.99988 6V17C8.99988 17.5523 8.55216 18 7.99988 18H1.99988C1.647 17.9999 1.31966 17.8142 1.13953 17.5107C0.959469 17.2074 0.953146 16.8312 1.12195 16.5215L7.12195 5.52148C7.34082 5.12023 7.80405 4.91838 8.24695 5.03125ZM15.7528 5.03125C16.1957 4.91831 16.6589 5.12023 16.8778 5.52148L22.8778 16.5215C23.0467 16.8313 23.0403 17.2073 22.8602 17.5107C22.6801 17.8142 22.3528 18 21.9999 18H15.9999C15.4477 17.9999 14.9999 17.5522 14.9999 17V6C14.9999 5.54295 15.31 5.14426 15.7528 5.03125ZM3.68445 16H6.99988V9.9209L3.68445 16ZM16.9999 16H20.3153L16.9999 9.9209V16Z" fill="#9E9E9E"/>
</g>
</svg>
