<svg width="24" height="24" viewBox="0 0 24 24" fill="none" xmlns="http://www.w3.org/2000/svg">
<g id="icons/Edit/focus-one">
<path id="Union" d="M3 15C3.55228 15 4 15.4477 4 16V20H8C8.55228 20 9 20.4477 9 21C9 21.5523 8.55228 22 8 22H4C2.89544 22 2 21.1046 2 20V16C2 15.4477 2.44772 15 3 15ZM21 15C21.5523 15 22 15.4477 22 16V20C22 21.1046 21.1046 22 20 22H16C15.4477 22 15 21.5523 15 21C15 20.4477 15.4477 20 16 20H20V16C20 15.4477 20.4477 15 21 15ZM12 5.5C12.5523 5.5 13 5.94772 13 6.5V7.6123C14.6822 7.99408 16.0049 9.31786 16.3867 11H17.5C18.0523 11 18.5 11.4477 18.5 12C18.5 12.5523 18.0523 13 17.5 13H16.3867C16.0049 14.6821 14.6821 16.0049 13 16.3867V17.5C13 18.0523 12.5523 18.5 12 18.5C11.4477 18.5 11 18.0523 11 17.5V16.3867C9.31793 16.0049 7.99512 14.6821 7.61328 13H6.5C5.94772 13 5.5 12.5523 5.5 12C5.5 11.4477 5.94772 11 6.5 11H7.61328C7.99513 9.31786 9.31783 7.99408 11 7.6123V6.5C11 5.94772 11.4477 5.5 12 5.5ZM12 9.5C10.6193 9.5 9.5 10.6193 9.5 12C9.5 13.3807 10.6193 14.5 12 14.5C13.3807 14.5 14.5 13.3807 14.5 12C14.5 10.6193 13.3807 9.5 12 9.5ZM12 11C12.5523 11 13 11.4477 13 12C13 12.5523 12.5523 13 12 13C11.4477 13 11 12.5523 11 12C11 11.4477 11.4477 11 12 11ZM8 2C8.55228 2 9 2.44772 9 3C9 3.55228 8.55228 4 8 4H4V8C4 8.55228 3.55228 9 3 9C2.44772 9 2 8.55228 2 8V4C2 2.89543 2.89543 2 4 2H8ZM20 2C21.1046 2 22 2.89544 22 4V8C22 8.55228 21.5523 9 21 9C20.4477 9 20 8.55228 20 8V4H16C15.4477 4 15 3.55228 15 3C15 2.44772 15.4477 2 16 2H20Z" fill="#9E9E9E"/>
</g>
</svg>
