<svg width="24" height="24" viewBox="0 0 24 24" fill="none" xmlns="http://www.w3.org/2000/svg">
<g id="icons/Edit/focus">
<path id="Union" d="M3 15C3.55228 15 4 15.4477 4 16V20H8C8.55228 20 9 20.4477 9 21C9 21.5523 8.55228 22 8 22H4C2.89544 22 2 21.1046 2 20V16C2 15.4477 2.44772 15 3 15ZM21 15C21.5523 15 22 15.4477 22 16V20C22 21.1046 21.1046 22 20 22H16C15.4477 22 15 21.5523 15 21C15 20.4477 15.4477 20 16 20H20V16C20 15.4477 20.4477 15 21 15ZM12 6C15.3137 6 18 8.68629 18 12C18 15.3137 15.3137 18 12 18C8.68629 18 6 15.3137 6 12C6 8.68629 8.68629 6 12 6ZM12 8C9.79086 8 8 9.79086 8 12C8 14.2091 9.79086 16 12 16C14.2091 16 16 14.2091 16 12C16 9.79086 14.2091 8 12 8ZM12 10.5C12.8284 10.5 13.5 11.1716 13.5 12C13.5 12.8284 12.8284 13.5 12 13.5C11.1716 13.5 10.5 12.8284 10.5 12C10.5 11.1716 11.1716 10.5 12 10.5ZM8 2C8.55228 2 9 2.44772 9 3C9 3.55228 8.55228 4 8 4H4V8C4 8.55228 3.55228 9 3 9C2.44772 9 2 8.55228 2 8V4C2 2.89543 2.89543 2 4 2H8ZM20 2C21.1046 2 22 2.89544 22 4V8C22 8.55228 21.5523 9 21 9C20.4477 9 20 8.55228 20 8V4H16C15.4477 4 15 3.55228 15 3C15 2.44772 15.4477 2 16 2H20Z" fill="#9E9E9E"/>
</g>
</svg>
