<svg width="24" height="24" viewBox="0 0 24 24" fill="none" xmlns="http://www.w3.org/2000/svg">
<g id="icons/Edit/font-size">
<path id="Union" d="M20 2C20.5523 2 21 2.44772 21 3V5.4668C20.9999 6.01901 20.5522 6.4668 20 6.4668C19.4478 6.4668 19.0001 6.01901 19 5.4668V4H13V20H16C16.5523 20 17 20.4477 17 21C17 21.5523 16.5523 22 16 22H8C7.44772 22 7 21.5523 7 21C7 20.4477 7.44772 20 8 20H11V4H5V5.4668L4.99512 5.56934C4.94372 6.0734 4.51763 6.4668 4 6.4668C3.48237 6.4668 3.05628 6.0734 3.00488 5.56934L3 5.4668V3L3.00488 2.89746C3.05621 2.39333 3.48232 2 4 2H20Z" fill="#9E9E9E"/>
</g>
</svg>
