<svg width="24" height="24" viewBox="0 0 24 24" fill="none" xmlns="http://www.w3.org/2000/svg">
<g id="icons/Edit/format-brush">
<path id="Union" d="M17 1.5C17.5523 1.5 18 1.94772 18 2.5V5H21.5L21.6025 5.00488C22.1067 5.05621 22.5 5.48232 22.5 6V14.0508C22.5 14.5535 22.1265 14.9776 21.6279 15.042L10.5 16.4785V21.5C10.5 22.0523 10.0523 22.5 9.5 22.5C8.94772 22.5 8.5 22.0523 8.5 21.5V15.6006C8.5 15.0978 8.87343 14.6728 9.37207 14.6084L20.5 13.1709V7H18V10C18 10.5523 17.5523 11 17 11H3C2.44772 11 2 10.5523 2 10V2.5C2 1.94772 2.44772 1.5 3 1.5H17ZM4 9H16V3.5H4V9Z" fill="#9E9E9E"/>
</g>
</svg>
