<svg width="24" height="24" viewBox="0 0 24 24" fill="none" xmlns="http://www.w3.org/2000/svg">
<g id="icons/Edit/formula">
<path id="Union" d="M18.5986 2.00488C18.8276 2.02758 19.0429 2.12883 19.207 2.29297L20.707 3.79297C21.0975 4.18349 21.0975 4.81651 20.707 5.20703C20.3165 5.59755 19.6835 5.59754 19.293 5.20703L18.0859 4H6.41406L13.707 11.293C14.0975 11.6835 14.0975 12.3165 13.707 12.707L6.41406 20H18.0859L19.293 18.793C19.6835 18.4025 20.3165 18.4024 20.707 18.793C21.0975 19.1835 21.0975 19.8165 20.707 20.207L19.207 21.707C19.0195 21.8946 18.7652 22 18.5 22H4C3.59559 22 3.23099 21.7564 3.07617 21.3828C2.92139 21.0091 3.00697 20.579 3.29297 20.293L11.5859 12L3.29297 3.70703C3.00697 3.42103 2.92139 2.99086 3.07617 2.61719C3.23099 2.24359 3.59559 2 4 2H18.5L18.5986 2.00488Z" fill="#9E9E9E"/>
</g>
</svg>
