<svg width="24" height="24" viewBox="0 0 24 24" fill="none" xmlns="http://www.w3.org/2000/svg">
<g id="icons/Edit/freeze-column">
<path id="Union" d="M20 2C21.1046 2 22 2.89544 22 4V20C22 21.1046 21.1046 22 20 22H4C3.79432 22 3.59593 21.9688 3.40918 21.9111C3.02792 22.0822 2.56477 22.0024 2.26562 21.6787C1.98519 21.3749 1.92834 20.9436 2.08789 20.5889C2.03063 20.4027 2 20.2049 2 20V4C2 2.89543 2.89543 2 4 2H20ZM10.5 20H20V4H10.5V20ZM5.55762 20H8.5V17.2832L5.55762 20ZM4 16.9375V18.7158L8.5 14.5615V12.7832L4 16.9375ZM4 12.4375V14.2158L8.5 10.0615V8.2832L4 12.4375ZM4 7.94824V9.71582L8.5 5.56152V4H8.44141L4 7.94824ZM4 5.27344L5.43262 4H4V5.27344Z" fill="#9E9E9E"/>
</g>
</svg>
