<svg width="24" height="24" viewBox="0 0 24 24" fill="none" xmlns="http://www.w3.org/2000/svg">
<g id="icons/Edit/freezing-line-column">
<path id="Union" d="M20 2C21.1046 2 22 2.89544 22 4V20C22 21.1046 21.1046 22 20 22H4C3.79432 22 3.59593 21.9688 3.40918 21.9111C3.02792 22.0822 2.56477 22.0024 2.26562 21.6787C1.98519 21.3749 1.92834 20.9436 2.08789 20.5889C2.03063 20.4027 2 20.2049 2 20V4C2 2.89543 2.89543 2 4 2H20ZM5.55762 20H8.5V17.2832L5.55762 20ZM10.5 11.5V20H20V11.5H10.5ZM4 16.9346V18.7158L8.5 14.5615V12.7451L4 16.9346ZM4 12.4443V14.2021L14.959 4H13.3848L4 12.4443ZM4 7.94824V9.75488L10.3945 4H8.44141L4 7.94824ZM11.9854 9.5H14.1504L19.8223 4.26562C19.8776 4.2145 19.9374 4.17106 20 4.13477V4H17.8936L11.9854 9.5ZM17.0996 9.5H20V6.82227L17.0996 9.5ZM4 5.27344L5.43262 4H4V5.27344Z" fill="#9E9E9E"/>
</g>
</svg>
