<svg width="24" height="24" viewBox="0 0 24 24" fill="none" xmlns="http://www.w3.org/2000/svg">
<g id="icons/Edit/freeze-line">
<path id="Union" d="M20 2C21.1046 2 22 2.89544 22 4V20C22 21.1046 21.1046 22 20 22H4C2.89544 22 2 21.1046 2 20V4C2 2.89543 2.89543 2 4 2H20ZM4 20H20V10.5293H4V20ZM4 7.94824V8.5293H5.33691L10.4326 4H8.44141L4 7.94824ZM13.3477 8.5293H15.583L20 4.55664V4H18.4424L13.3477 8.5293ZM18.5742 8.5293H20V7.24707L18.5742 8.5293ZM8.34766 8.5293H10.3369L15.4326 4H13.4424L8.34766 8.5293ZM4 5.27344L5.43262 4H4V5.27344Z" fill="#9E9E9E"/>
</g>
</svg>
