<svg width="24" height="24" viewBox="0 0 24 24" fill="none" xmlns="http://www.w3.org/2000/svg">
<g id="icons/Edit/fullwidth">
<path id="Union" d="M3 2C3.55228 2 4 2.44772 4 3V21C4 21.5523 3.55228 22 3 22C2.44772 22 2 21.5523 2 21V3C2 2.44772 2.44772 2 3 2ZM21 2C21.5523 2 22 2.44772 22 3V21C22 21.5523 21.5523 22 21 22C20.4477 22 20 21.5523 20 21V3C20 2.44772 20.4477 2 21 2ZM14.793 8.79297C15.1835 8.40244 15.8165 8.40244 16.207 8.79297L18.707 11.293C19.0976 11.6835 19.0976 12.3165 18.707 12.707L16.207 15.207C15.8165 15.5976 15.1835 15.5976 14.793 15.207C14.4024 14.8165 14.4024 14.1835 14.793 13.793L15.5859 13H8.41406L9.20703 13.793C9.59756 14.1835 9.59756 14.8165 9.20703 15.207C8.81651 15.5976 8.18349 15.5976 7.79297 15.207L5.29297 12.707C4.90244 12.3165 4.90244 11.6835 5.29297 11.293L7.79297 8.79297C8.18349 8.40244 8.81651 8.40244 9.20703 8.79297C9.59756 9.18349 9.59756 9.81651 9.20703 10.207L8.41406 11H15.5859L14.793 10.207C14.4024 9.81651 14.4024 9.18349 14.793 8.79297Z" fill="#9E9E9E"/>
</g>
</svg>
