<svg width="24" height="24" viewBox="0 0 24 24" fill="none" xmlns="http://www.w3.org/2000/svg">
<g id="icons/Edit/go-on">
<path id="Union" d="M17.2659 2.82129C17.6405 2.4159 18.2733 2.39116 18.679 2.76562L22.179 5.99609C22.3739 6.17629 22.489 6.42711 22.4993 6.69238C22.5094 6.95779 22.4134 7.2165 22.2327 7.41113L18.7327 11.1807C18.3569 11.585 17.7242 11.6079 17.3196 11.2324C16.9152 10.8566 16.8921 10.2239 17.2678 9.81934L18.9563 8H8.50317C5.59881 8.00009 3.11733 10.3861 3.00415 13.2891C2.88476 16.3551 5.43289 18.9999 8.50317 19H17.0012C17.5533 19.0002 18.0012 19.4479 18.0012 20C18.0011 20.552 17.5532 20.9998 17.0012 21H8.50317C4.3005 20.9999 0.842304 17.4141 1.0061 13.2109C1.1612 9.23447 4.52472 6.00009 8.50317 6H19.2336L17.3215 4.23438C16.9161 3.85972 16.8914 3.22696 17.2659 2.82129Z" fill="#9E9E9E"/>
</g>
</svg>
