<svg width="24" height="24" viewBox="0 0 24 24" fill="none" xmlns="http://www.w3.org/2000/svg">
<g id="icons/Edit/grid-two">
<path id="Union" d="M19.8906 2.01172C21.0754 2.13219 21.9998 3.13314 22 4.34961V19.6504C21.9998 20.948 20.948 21.9998 19.6504 22H4.34961C3.13314 21.9998 2.13219 21.0754 2.01172 19.8906L2 19.6504V4.34961C2.00021 3.05205 3.05205 2.00021 4.34961 2H19.6504L19.8906 2.01172ZM4 13V19.6504L4.00684 19.7207C4.03949 19.88 4.18068 19.9998 4.34961 20H11V13H4ZM13 13V20H19.6504C19.8434 19.9998 19.9998 19.8434 20 19.6504V13H13ZM4.34961 4C4.15662 4.00021 4.00021 4.15662 4 4.34961V11H11V4H4.34961ZM13 11H20V4.34961C19.9998 4.18068 19.88 4.03949 19.7207 4.00684L19.6504 4H13V11Z" fill="#9E9E9E"/>
</g>
</svg>
