<svg width="24" height="24" viewBox="0 0 24 24" fill="none" xmlns="http://www.w3.org/2000/svg">
<g id="icons/Edit/grid-sixteen">
<path id="Union" d="M21 1C22.1046 1 23 1.89543 23 3V21C23 22.1046 22.1046 23 21 23H3C1.89543 23 1 22.1046 1 21V3C1 1.89543 1.89543 1 3 1H21ZM3 21H6V18H3V21ZM8 21H11V18H8V21ZM13 21H16V18H13V21ZM18 21H21V18H18V21ZM3 13V16H6V13H3ZM8 13V16H11V13H8ZM13 13V16H16V13H13ZM18 13V16H21V13H18ZM3 11H6V8H3V11ZM8 11H11V8H8V11ZM13 11H16V8H13V11ZM18 11H21V8H18V11ZM3 6H6V3H3V6ZM8 6H11V3H8V6ZM13 6H16V3H13V6ZM18 6H21V3H18V6Z" fill="#9E9E9E"/>
</g>
</svg>
