<svg width="24" height="24" viewBox="0 0 24 24" fill="none" xmlns="http://www.w3.org/2000/svg">
<g id="icons/Edit/grid-nine">
<path id="Union" d="M20.5 1.5C21.6046 1.5 22.5 2.39543 22.5 3.5V20.5C22.5 21.6046 21.6046 22.5 20.5 22.5H3.5C2.39543 22.5 1.5 21.6046 1.5 20.5V3.5C1.5 2.39543 2.39543 1.5 3.5 1.5H20.5ZM3.5 20.5H7.5V16H3.5V20.5ZM16 20.5H20.5V16H16V20.5ZM9.5 20.5H14V16H9.5V20.5ZM3.5 14H7.5V10H3.5V14ZM16 14H20.5V10H16V14ZM9.5 14H14V10H9.5V14ZM3.5 8H7.5V3.5H3.5V8ZM16 8H20.5V3.5H16V8ZM9.5 8H14V3.5H9.5V8Z" fill="#9E9E9E"/>
</g>
</svg>
