<svg width="24" height="24" viewBox="0 0 24 24" fill="none" xmlns="http://www.w3.org/2000/svg">
<g id="icons/Edit/grid-three">
<path id="Union" d="M19.8906 2.01172C21.0754 2.13219 21.9998 3.13314 22 4.34961V19.6504C21.9998 20.948 20.948 21.9998 19.6504 22H4.34961C3.13314 21.9998 2.13219 21.0754 2.01172 19.8906L2 19.6504V4.34961C2.00021 3.05205 3.05205 2.00021 4.34961 2H19.6504L19.8906 2.01172ZM4 9.5V19.6504L4.00684 19.7207C4.03949 19.88 4.18068 19.9998 4.34961 20H6.5V9.5H4ZM8.5 9.5V20H19.6504C19.8434 19.9998 19.9998 19.8434 20 19.6504V9.5H8.5ZM4.34961 4C4.15662 4.00021 4.00021 4.15662 4 4.34961V7.5H6.5V4H4.34961ZM8.5 7.5H20V4.34961C19.9998 4.18068 19.88 4.03949 19.7207 4.00684L19.6504 4H8.5V7.5Z" fill="#9E9E9E"/>
</g>
</svg>
