<svg width="24" height="24" viewBox="0 0 24 24" fill="none" xmlns="http://www.w3.org/2000/svg">
<g id="icons/Edit/group">
<path id="Union" d="M6 1C6.55228 1 7 1.44772 7 2V3H17V2C17 1.44772 17.4477 1 18 1H22C22.5523 1 23 1.44772 23 2V6C23 6.55228 22.5523 7 22 7H21V17H22C22.5523 17 23 17.4477 23 18V22C23 22.5523 22.5523 23 22 23H18C17.4477 23 17 22.5523 17 22V21H7V22C7 22.5523 6.55228 23 6 23H2C1.44772 23 1 22.5523 1 22V18C1 17.4477 1.44772 17 2 17H3V7H2C1.44772 7 1 6.55228 1 6V2C1 1.44772 1.44772 1 2 1H6ZM3 21H5V19H3V21ZM19 21H21V19H19V21ZM7 6C7 6.55228 6.55228 7 6 7H5V17H6C6.55228 17 7 17.4477 7 18V19H17V18C17 17.4477 17.4477 17 18 17H19V7H18C17.4477 7 17 6.55228 17 6V5H7V6ZM12.7998 7C13.3521 7 13.7998 7.44772 13.7998 8V10.2002H16C16.5523 10.2002 17 10.6479 17 11.2002V16C17 16.5523 16.5523 17 16 17H11.2002C10.6479 17 10.2002 16.5523 10.2002 16V13.7998H8C7.44772 13.7998 7 13.3521 7 12.7998V8C7 7.44772 7.44772 7 8 7H12.7998ZM9 11.7998H11.2002C11.7523 11.7999 12.2001 12.2477 12.2002 12.7998V15H15V12.2002H12.7998C12.2477 12.2001 11.7999 11.7523 11.7998 11.2002V9H9V11.7998ZM3 5H5V3H3V5ZM19 5H21V3H19V5Z" fill="#9E9E9E"/>
</g>
</svg>
