<svg width="24" height="24" viewBox="0 0 24 24" fill="none" xmlns="http://www.w3.org/2000/svg">
<g id="icons/Edit/h1">
<path id="Union" d="M12.5 3C13.0523 3 13.5 3.44772 13.5 4V20C13.5 20.5523 13.0523 21 12.5 21C11.9477 21 11.5 20.5523 11.5 20V13H4V20C4 20.5523 3.55228 21 3 21C2.44772 21 2 20.5523 2 20V4C2 3.44772 2.44772 3 3 3C3.55228 3 4 3.44772 4 4V11H11.5V4C11.5 3.44772 11.9477 3 12.5 3ZM18.7783 8.81641C19.0608 8.52152 19.4941 8.42786 19.873 8.58008C20.2519 8.73232 20.5 9.09947 20.5 9.50781V20C20.4997 20.5521 20.0521 21 19.5 21C18.948 20.9998 18.5003 20.552 18.5 20V11.9971L17.835 12.6914C17.4529 13.0899 16.8206 13.1034 16.4219 12.7217C16.0231 12.3396 16.0095 11.7064 16.3916 11.3076L18.7783 8.81641Z" fill="#9E9E9E"/>
</g>
</svg>
