<svg width="24" height="24" viewBox="0 0 24 24" fill="none" xmlns="http://www.w3.org/2000/svg">
<g id="icons/Edit/h2">
<path id="Union" d="M12 3C12.5523 3 13 3.44772 13 4V20C13 20.5523 12.5523 21 12 21C11.4477 21 11 20.5523 11 20V13H4V20C4 20.5523 3.55228 21 3 21C2.44772 21 2 20.5523 2 20V4C2 3.44772 2.44772 3 3 3C3.55228 3 4 3.44772 4 4V11H11V4C11 3.44772 11.4477 3 12 3ZM18.5 9C20.1077 9 22 10.2593 22 12.5C22 13.5132 21.5553 14.3871 21.0254 15.1094C20.4976 15.8286 19.8095 16.4973 19.1934 17.0898C18.5487 17.7098 17.9845 18.2457 17.5693 18.7764C17.5088 18.8538 17.454 18.9285 17.4043 19H21C21.5523 19 22 19.4477 22 20C22 20.5523 21.5523 21 21 21H16C15.4477 21 15 20.5523 15 20C15 19.0349 15.4734 18.2084 15.9932 17.5439C16.5154 16.8764 17.2015 16.2304 17.8066 15.6484C18.4403 15.039 19.0024 14.485 19.4121 13.9268C19.8196 13.3715 20 12.9117 20 12.5C20 11.5741 19.2257 11 18.5 11C17.7743 11 17 11.5741 17 12.5C17 13.0523 16.5523 13.5 16 13.5C15.4477 13.5 15 13.0523 15 12.5C15 10.2593 16.8924 9 18.5 9Z" fill="#9E9E9E"/>
</g>
</svg>
