<svg width="24" height="24" viewBox="0 0 24 24" fill="none" xmlns="http://www.w3.org/2000/svg">
<g id="icons/Edit/h3">
<path id="Union" d="M12 3C12.5523 3 13 3.44772 13 4V20C13 20.5523 12.5523 21 12 21C11.4477 21 11 20.5523 11 20V13H4V20C4 20.5523 3.55228 21 3 21C2.44772 21 2 20.5523 2 20V4C2 3.44772 2.44772 3 3 3C3.55228 3 4 3.44772 4 4V11H11V4C11 3.44772 11.4477 3 12 3ZM21 9C21.3819 9 21.7306 9.21747 21.8984 9.56055C22.0662 9.90364 22.0235 10.3128 21.7891 10.6143L19.3281 13.7773C19.8003 13.9342 20.24 14.1607 20.625 14.4688C21.5079 15.1751 22 16.2237 22 17.5C22 18.7855 21.4989 19.7191 20.7246 20.2998C19.9988 20.8441 19.1395 21 18.5 21C16.9972 21 15.9277 20.3577 15.2598 19.623C14.8883 19.2144 14.9185 18.5815 15.3271 18.21C15.7358 17.8385 16.3687 17.8687 16.7402 18.2773C17.0723 18.6426 17.622 19 18.5 19C18.8604 19 19.2512 18.9058 19.5254 18.7002C19.7511 18.5309 20 18.2143 20 17.5C20 16.7763 19.7421 16.3249 19.375 16.0312C18.9779 15.7136 18.3475 15.5 17.5 15.5C17.1181 15.5 16.7694 15.2825 16.6016 14.9395C16.4338 14.5964 16.4765 14.1872 16.7109 13.8857L18.9551 11H16C15.4477 11 15 10.5523 15 10C15 9.44772 15.4477 9 16 9H21Z" fill="#9E9E9E"/>
</g>
</svg>
