<svg width="24" height="24" viewBox="0 0 24 24" fill="none" xmlns="http://www.w3.org/2000/svg">
<g id="icons/Edit/helpcenter">
<path id="Union" d="M19.5 2C20.8807 2 22 3.1193 22 4.5V19.5C22 20.8807 20.8807 22 19.5 22H4.5C3.1193 22 2 20.8807 2 19.5V4.5C2 3.11929 3.11929 2 4.5 2H19.5ZM4.5 4C4.22386 4 4 4.22386 4 4.5V19.5C4 19.7762 4.22385 20 4.5 20H19.5C19.7762 20 20 19.7762 20 19.5V4.5C20 4.22385 19.7762 4 19.5 4H4.5ZM12 16.3125C12.6903 16.3125 13.25 16.8722 13.25 17.5625C13.25 18.2528 12.6903 18.8125 12 18.8125C11.3097 18.8125 10.75 18.2528 10.75 17.5625C10.75 16.8722 11.3097 16.3125 12 16.3125ZM12 5.3125C14.2091 5.3125 16 7.10337 16 9.3125C16 11.1763 14.7252 12.7425 13 13.1865V14.3125C13 14.8648 12.5523 15.3125 12 15.3125C11.4477 15.3125 11 14.8648 11 14.3125V12.3125L11.0049 12.21C11.0562 11.7058 11.4823 11.3125 12 11.3125C13.1046 11.3125 14 10.4171 14 9.3125C14 8.20793 13.1046 7.3125 12 7.3125C10.8954 7.3125 10 8.20793 10 9.3125C10 9.86478 9.55228 10.3125 9 10.3125C8.44772 10.3125 8 9.86478 8 9.3125C8 7.10337 9.79087 5.3125 12 5.3125Z" fill="#9E9E9E"/>
</g>
</svg>
