<svg width="24" height="24" viewBox="0 0 24 24" fill="none" xmlns="http://www.w3.org/2000/svg">
<g id="icons/Edit/high-light">
<path id="Union" d="M15.2256 1.03809C15.5271 0.952099 15.8522 1.01241 16.1025 1.20117C16.353 1.39007 16.4999 1.68633 16.5 2V7.5H18C18.5522 7.5 18.9998 7.94787 19 8.5V11.5H21C21.5522 11.5 21.9998 11.9479 22 12.5V22C22 22.5523 21.5523 23 21 23H3C2.44772 23 2 22.5523 2 22V12.5C2.00018 11.9479 2.44783 11.5 3 11.5H5V8.5L5.00488 8.39746C5.05637 7.89349 5.48243 7.5 6 7.5H7.5V4C7.50015 3.55366 7.79639 3.16071 8.22559 3.03809L15.2256 1.03809ZM7 12.5C7 13.0523 6.55228 13.5 6 13.5H4V21H20V13.5H18C17.4477 13.5 17 13.0523 17 12.5V9.5H7V12.5ZM9.5 4.75391V7.5H14.5V3.3252L9.5 4.75391Z" fill="#9E9E9E"/>
</g>
</svg>
