<svg width="24" height="24" viewBox="0 0 24 24" fill="none" xmlns="http://www.w3.org/2000/svg">
<g id="icons/Edit/horizontal-tidy-up">
<path id="Union" d="M6.5 3C7.05228 3 7.5 3.44772 7.5 4V20C7.5 20.5523 7.05228 21 6.5 21H3.5C2.94772 21 2.5 20.5523 2.5 20V4C2.5 3.44772 2.94772 3 3.5 3H6.5ZM13.5 3C14.0523 3 14.5 3.44772 14.5 4V20C14.5 20.5523 14.0523 21 13.5 21H10.5C9.94772 21 9.5 20.5523 9.5 20V4C9.5 3.44772 9.94772 3 10.5 3H13.5ZM20.5 3C21.0523 3 21.5 3.44772 21.5 4V20C21.5 20.5523 21.0523 21 20.5 21H17.5C16.9477 21 16.5 20.5523 16.5 20V4C16.5 3.44772 16.9477 3 17.5 3H20.5ZM4.5 19H5.5V5H4.5V19ZM11.5 19H12.5V5H11.5V19ZM18.5 19H19.5V5H18.5V19Z" fill="#9E9E9E"/>
</g>
</svg>
