<svg width="24" height="24" viewBox="0 0 24 24" fill="none" xmlns="http://www.w3.org/2000/svg">
<g id="icons/Edit/horizontal-spacing-between-items">
<path id="Union" d="M6 3C6.55228 3 7 3.44772 7 4V20C7 20.5523 6.55228 21 6 21H3C2.44772 21 2 20.5523 2 20C2 19.4477 2.44772 19 3 19H5V5H3C2.44772 5 2 4.55228 2 4C2 3.44772 2.44772 3 3 3H6ZM21 3C21.5523 3 22 3.44772 22 4C22 4.55228 21.5523 5 21 5H19V19H21C21.5523 19 22 19.4477 22 20C22 20.5523 21.5523 21 21 21H18C17.4477 21 17 20.5523 17 20V4C17 3.44772 17.4477 3 18 3H21ZM12 6C12.5523 6 13 6.44772 13 7V17C13 17.5523 12.5523 18 12 18C11.4477 18 11 17.5523 11 17V7C11 6.44772 11.4477 6 12 6Z" fill="#9E9E9E"/>
</g>
</svg>
