<svg width="24" height="24" viewBox="0 0 24 24" fill="none" xmlns="http://www.w3.org/2000/svg">
<g id="icons/Edit/horizontally-centered">
<path id="Union" d="M2.5 3C3.05228 3 3.5 3.44772 3.5 4V20C3.5 20.5523 3.05228 21 2.5 21C1.94772 21 1.5 20.5523 1.5 20V4C1.5 3.44772 1.94772 3 2.5 3ZM21.5 3C22.0523 3 22.5 3.44772 22.5 4V20C22.5 20.5523 22.0523 21 21.5 21C20.9477 21 20.5 20.5523 20.5 20V4C20.5 3.44772 20.9477 3 21.5 3ZM16 7C16.5523 7 17 7.44772 17 8V16C17 16.5523 16.5523 17 16 17H8C7.44772 17 7 16.5523 7 16V8C7 7.44772 7.44772 7 8 7H16ZM9 15H15V9H9V15Z" fill="#9E9E9E"/>
</g>
</svg>
