<svg width="24" height="24" viewBox="0 0 24 24" fill="none" xmlns="http://www.w3.org/2000/svg">
<g id="icons/Edit/import-and-export">
<path id="Union" d="M6.29297 12.293C6.68349 11.9024 7.31651 11.9024 7.70703 12.293C8.09756 12.6835 8.09756 13.3165 7.70703 13.707L4.91016 16.5039H11.25C11.8023 16.5039 12.25 16.9516 12.25 17.5039C12.25 18.0562 11.8023 18.5039 11.25 18.5039H4.91797L7.70703 21.293C8.09756 21.6835 8.09756 22.3165 7.70703 22.707C7.31651 23.0976 6.68349 23.0976 6.29297 22.707L1.83301 18.2471C1.62917 18.064 1.5 17.7995 1.5 17.5039C1.5 17.4599 1.50327 17.4166 1.50879 17.374C1.53564 17.1616 1.62984 16.9561 1.79297 16.793L6.29297 12.293ZM16.293 8.29297C16.6835 7.90244 17.3165 7.90244 17.707 8.29297L22.207 12.793C22.3701 12.9561 22.4634 13.1617 22.4902 13.374C22.4958 13.4166 22.5 13.4598 22.5 13.5039C22.5 13.7997 22.3702 14.064 22.166 14.2471L17.707 18.707C17.3165 19.0976 16.6835 19.0976 16.293 18.707C15.9024 18.3165 15.9024 17.6835 16.293 17.293L19.082 14.5039H12.75C12.1977 14.5039 11.75 14.0562 11.75 13.5039C11.75 12.9516 12.1977 12.5039 12.75 12.5039H19.0898L16.293 9.70703C15.9024 9.31651 15.9024 8.68349 16.293 8.29297ZM21.75 2.75C22.3023 2.75 22.75 3.19772 22.75 3.75V7.5C22.75 8.05228 22.3023 8.5 21.75 8.5C21.1977 8.5 20.75 8.05228 20.75 7.5V4.75H3.25V12C3.25 12.5523 2.80228 13 2.25 13C1.69772 13 1.25 12.5523 1.25 12V3.75C1.25 3.19772 1.69772 2.75 2.25 2.75H21.75Z" fill="#9E9E9E"/>
</g>
</svg>
