<svg width="24" height="24" viewBox="0 0 24 24" fill="none" xmlns="http://www.w3.org/2000/svg">
<g id="icons/Edit/increase-the-scale">
<path id="Union" d="M17.293 15.293C17.6835 14.9024 18.3165 14.9024 18.707 15.293L21.707 18.293C21.7548 18.3408 21.7976 18.3935 21.835 18.4502C21.8597 18.4877 21.8812 18.5266 21.9004 18.5664C21.9222 18.6116 21.9412 18.6584 21.9561 18.707C21.9623 18.7273 21.9668 18.748 21.9717 18.7686C21.9893 18.8429 22 18.9202 22 19C22 19.0563 21.9933 19.1112 21.9844 19.165C21.9772 19.2078 21.9688 19.2503 21.9561 19.292C21.9412 19.3407 21.9222 19.3874 21.9004 19.4326C21.8936 19.4468 21.8864 19.4607 21.8789 19.4746C21.851 19.5262 21.8184 19.5745 21.7822 19.6201C21.7586 19.6498 21.7345 19.6796 21.707 19.707L18.707 22.707C18.3165 23.0976 17.6835 23.0976 17.293 22.707C16.9024 22.3165 16.9024 21.6835 17.293 21.293L18.5859 20H9.5C8.94772 20 8.5 19.5523 8.5 19C8.5 18.4477 8.94772 18 9.5 18H18.5859L17.293 16.707C16.9024 16.3165 16.9024 15.6835 17.293 15.293ZM3.5 11C4.05228 11 4.5 11.4477 4.5 12C4.5 12.5523 4.05228 13 3.5 13H3C2.44772 13 2 12.5523 2 12C2 11.4477 2.44772 11 3 11H3.5ZM9.5 1C11.433 1 13 2.567 13 4.5V9.5C13 11.433 11.433 13 9.5 13C7.56702 13 6 11.433 6 9.5V4.5C6 2.567 7.56702 1 9.5 1ZM18.5 1C20.433 1 22 2.567 22 4.5V9.5C22 11.433 20.433 13 18.5 13C16.567 13 15 11.433 15 9.5V4.5C15 2.567 16.567 1 18.5 1ZM9.5 3C8.67158 3 8 3.67158 8 4.5V9.5C8 10.3284 8.67158 11 9.5 11C10.3284 11 11 10.3284 11 9.5V4.5C11 3.67158 10.3284 3 9.5 3ZM18.5 3C17.6716 3 17 3.67158 17 4.5V9.5C17 10.3284 17.6716 11 18.5 11C19.3284 11 20 10.3284 20 9.5V4.5C20 3.67158 19.3284 3 18.5 3Z" fill="#9E9E9E"/>
</g>
</svg>
