<svg width="24" height="24" viewBox="0 0 24 24" fill="none" xmlns="http://www.w3.org/2000/svg">
<g id="icons/Edit/indent-left">
<path id="Union" d="M21 18.5C21.5523 18.5 22 18.9477 22 19.5C22 20.0523 21.5523 20.5 21 20.5H3C2.44772 20.5 2 20.0523 2 19.5C2 18.9477 2.44772 18.5 3 18.5H21ZM4.79297 8.79297C5.18349 8.40244 5.81651 8.40244 6.20703 8.79297C6.59756 9.18349 6.59756 9.81651 6.20703 10.207L4.41406 12L6.20703 13.793C6.59756 14.1835 6.59756 14.8165 6.20703 15.207C5.81651 15.5976 5.18349 15.5976 4.79297 15.207L2.29297 12.707C1.90244 12.3165 1.90244 11.6835 2.29297 11.293L4.79297 8.79297ZM21 13.5C21.5523 13.5 22 13.9477 22 14.5C22 15.0523 21.5523 15.5 21 15.5H9.5C8.94772 15.5 8.5 15.0523 8.5 14.5C8.5 13.9477 8.94772 13.5 9.5 13.5H21ZM21 8.5C21.5523 8.5 22 8.94772 22 9.5C22 10.0523 21.5523 10.5 21 10.5H9.5C8.94772 10.5 8.5 10.0523 8.5 9.5C8.5 8.94772 8.94772 8.5 9.5 8.5H21ZM21 3.5C21.5523 3.5 22 3.94772 22 4.5C22 5.05228 21.5523 5.5 21 5.5H3C2.44772 5.5 2 5.05228 2 4.5C2 3.94772 2.44772 3.5 3 3.5H21Z" fill="#9E9E9E"/>
</g>
</svg>
