<svg width="24" height="24" viewBox="0 0 24 24" fill="none" xmlns="http://www.w3.org/2000/svg">
<g id="icons/Edit/indent-right">
<path id="Union" d="M21 18.5C21.5523 18.5 22 18.9477 22 19.5C22 20.0523 21.5523 20.5 21 20.5H3C2.44772 20.5 2 20.0523 2 19.5C2 18.9477 2.44772 18.5 3 18.5H21ZM14.5 13.5C15.0523 13.5 15.5 13.9477 15.5 14.5C15.5 15.0523 15.0523 15.5 14.5 15.5H3C2.44772 15.5 2 15.0523 2 14.5C2 13.9477 2.44772 13.5 3 13.5H14.5ZM17.793 8.79297C18.1835 8.40244 18.8165 8.40244 19.207 8.79297L21.707 11.293C22.0976 11.6835 22.0976 12.3165 21.707 12.707L19.207 15.207C18.8165 15.5976 18.1835 15.5976 17.793 15.207C17.4024 14.8165 17.4024 14.1835 17.793 13.793L19.5859 12L17.793 10.207C17.4024 9.81651 17.4024 9.18349 17.793 8.79297ZM14.5 8.5C15.0523 8.5 15.5 8.94772 15.5 9.5C15.5 10.0523 15.0523 10.5 14.5 10.5H3C2.44772 10.5 2 10.0523 2 9.5C2 8.94772 2.44772 8.5 3 8.5H14.5ZM21 3.5C21.5523 3.5 22 3.94772 22 4.5C22 5.05228 21.5523 5.5 21 5.5H3C2.44772 5.5 2 5.05228 2 4.5C2 3.94772 2.44772 3.5 3 3.5H21Z" fill="#9E9E9E"/>
</g>
</svg>
