<svg width="24" height="24" viewBox="0 0 24 24" fill="none" xmlns="http://www.w3.org/2000/svg">
<g id="icons/Edit/inline">
<path id="Union" d="M17.0986 2.00488C17.3276 2.02757 17.5429 2.12883 17.707 2.29297L19.207 3.79297C19.5976 4.18349 19.5976 4.81651 19.207 5.20703C18.8165 5.59756 18.1835 5.59756 17.793 5.20703L16.5859 4H6.31934L13.2266 11.3135C13.5905 11.6989 13.5905 12.3011 13.2266 12.6865L6.31934 20H16.5859L17.793 18.793C18.1835 18.4024 18.8165 18.4024 19.207 18.793C19.5976 19.1835 19.5976 19.8165 19.207 20.207L17.707 21.707C17.5195 21.8946 17.2652 22 17 22H4C3.60073 22 3.24008 21.7622 3.08203 21.3955C2.92407 21.0289 2.99933 20.6037 3.27344 20.3135L11.125 12L3.27344 3.68652C2.99933 3.39629 2.92407 2.97111 3.08203 2.60449C3.24008 2.23784 3.60073 2 4 2H17L17.0986 2.00488ZM7.5 11C8.05228 11 8.5 11.4477 8.5 12C8.5 12.5523 8.05228 13 7.5 13H2.5C1.94772 13 1.5 12.5523 1.5 12C1.5 11.4477 1.94772 11 2.5 11H7.5ZM21.5 11C22.0523 11 22.5 11.4477 22.5 12C22.5 12.5523 22.0523 13 21.5 13H16.5C15.9477 13 15.5 12.5523 15.5 12C15.5 11.4477 15.9477 11 16.5 11H21.5Z" fill="#9E9E9E"/>
</g>
</svg>
