<svg width="24" height="24" viewBox="0 0 24 24" fill="none" xmlns="http://www.w3.org/2000/svg">
<g id="icons/Edit/inner-shadow-down">
<path id="Union" d="M12 1C15.0373 1 17.7888 2.23218 19.7783 4.22168C21.7677 6.21119 23 8.96272 23 12C23 15.0373 21.7677 17.7888 19.7783 19.7783C17.7888 21.7677 15.0373 23 12 23C8.96272 23 6.21119 21.7677 4.22168 19.7783C2.23218 17.7888 1 15.0373 1 12C1 8.96273 2.23217 6.21121 4.22168 4.22168C6.21121 2.23217 8.96273 1 12 1ZM12 3C9.51447 3 7.26554 4.00596 5.63574 5.63574C4.00596 7.26554 3 9.51447 3 12C3 14.4856 4.00598 16.7345 5.63574 18.3643C7.26556 19.994 9.51448 21 12 21C14.4856 21 16.7345 19.994 18.3643 18.3643C19.994 16.7345 21 14.4856 21 12C21 9.51448 19.994 7.26556 18.3643 5.63574C16.7345 4.00598 14.4856 3 12 3ZM16.2432 16.2422C16.6337 15.8517 17.2667 15.8517 17.6572 16.2422C18.0477 16.6327 18.0478 17.2657 17.6572 17.6562C16.2107 19.1027 14.2097 19.9989 12.001 19.999C9.7921 19.999 7.79035 19.1028 6.34375 17.6562C5.95323 17.2657 5.95324 16.6327 6.34375 16.2422C6.73427 15.8517 7.36729 15.8517 7.75781 16.2422C8.84471 17.329 10.3439 17.999 12.001 17.999C13.6579 17.9989 15.1564 17.3289 16.2432 16.2422Z" fill="#9E9E9E"/>
</g>
</svg>
