<svg width="24" height="24" viewBox="0 0 24 24" fill="none" xmlns="http://www.w3.org/2000/svg">
<g id="icons/Edit/inner-shadow-up">
<path id="Union" d="M12 1C15.0373 1 17.7888 2.23218 19.7783 4.22168C21.7677 6.21119 23 8.96272 23 12C23 15.0373 21.7677 17.7888 19.7783 19.7783C17.7888 21.7677 15.0373 23 12 23C8.96272 23 6.21119 21.7677 4.22168 19.7783C2.23218 17.7888 1 15.0373 1 12C1 8.96273 2.23217 6.21121 4.22168 4.22168C6.21121 2.23217 8.96273 1 12 1ZM12 3C9.51447 3 7.26554 4.00596 5.63574 5.63574C4.00596 7.26554 3 9.51447 3 12C3 14.4856 4.00598 16.7345 5.63574 18.3643C7.26556 19.994 9.51448 21 12 21C14.4856 21 16.7345 19.994 18.3643 18.3643C19.994 16.7345 21 14.4856 21 12C21 9.51448 19.994 7.26556 18.3643 5.63574C16.7345 4.00598 14.4856 3 12 3ZM12.001 4C14.2095 4.00012 16.2107 4.89641 17.6572 6.34277C18.0478 6.7333 18.0478 7.36729 17.6572 7.75781C17.2668 8.14795 16.6336 8.14801 16.2432 7.75781C15.1564 6.67103 13.6579 6.00012 12.001 6C10.3438 6 8.84469 6.67093 7.75781 7.75781C7.36736 8.14798 6.73421 8.14798 6.34375 7.75781C5.95323 7.36729 5.95323 6.7333 6.34375 6.34277C7.79035 4.89628 9.79222 4 12.001 4Z" fill="#9E9E9E"/>
</g>
</svg>
