<svg width="24" height="24" viewBox="0 0 24 24" fill="none" xmlns="http://www.w3.org/2000/svg">
<g id="icons/Edit/inner-shadow-bottom-right">
<path id="Union" d="M12 1C15.0373 1 17.7888 2.23218 19.7783 4.22168C21.7677 6.21119 23 8.96272 23 12C23 15.0373 21.7677 17.7888 19.7783 19.7783C17.7888 21.7677 15.0373 23 12 23C8.96272 23 6.21119 21.7677 4.22168 19.7783C2.23218 17.7888 1 15.0373 1 12C1 8.96273 2.23217 6.21121 4.22168 4.22168C6.21121 2.23217 8.96273 1 12 1ZM12 3C9.51447 3 7.26554 4.00596 5.63574 5.63574C4.00596 7.26554 3 9.51447 3 12C3 14.4856 4.00598 16.7345 5.63574 18.3643C7.26556 19.994 9.51448 21 12 21C14.4856 21 16.7345 19.994 18.3643 18.3643C19.994 16.7345 21 14.4856 21 12C21 9.51448 19.994 7.26556 18.3643 5.63574C16.7345 4.00598 14.4856 3 12 3ZM19 11C19.5523 11 20 11.4477 20 12C20 14.2089 19.1037 16.2106 17.6572 17.6572C16.2106 19.1037 14.2089 20 12 20C11.4477 20 11 19.5523 11 19C11 18.4477 11.4477 18 12 18C13.6571 18 15.1562 17.329 16.2432 16.2422C17.3297 15.1553 18 13.6568 18 12C18 11.4477 18.4477 11 19 11Z" fill="#9E9E9E"/>
</g>
</svg>
