<svg width="24" height="24" viewBox="0 0 24 24" fill="none" xmlns="http://www.w3.org/2000/svg">
<g id="icons/Edit/insert-table">
<path id="Union" d="M19.8906 2.01172C21.0754 2.13219 21.9998 3.13314 22 4.34961V19.6504C21.9998 20.948 20.948 21.9998 19.6504 22H4.34961C3.13314 21.9998 2.13219 21.0754 2.01172 19.8906L2 19.6504V4.34961C2.00021 3.05205 3.05205 2.00021 4.34961 2H19.6504L19.8906 2.01172ZM4 16V19.6504L4.00684 19.7207C4.03949 19.88 4.18068 19.9998 4.34961 20H8V16H4ZM10 16V20H14V16H10ZM16 16V20H19.6504C19.8434 19.9998 19.9998 19.8434 20 19.6504V16H16ZM4 14H8V10H4V14ZM10 14H14V10H10V14ZM16 14H20V10H16V14ZM4.34961 4C4.15662 4.00021 4.00021 4.15662 4 4.34961V8H8V4H4.34961ZM10 8H14V4H10V8ZM16 8H20V4.34961C19.9998 4.18068 19.88 4.03949 19.7207 4.00684L19.6504 4H16V8Z" fill="#9E9E9E"/>
</g>
</svg>
