<svg width="24" height="24" viewBox="0 0 24 24" fill="none" xmlns="http://www.w3.org/2000/svg">
<g id="icons/Edit/intersection">
<path id="Union" d="M20 2C21.1046 2 22 2.89544 22 4V14.5C22 15.6046 21.1046 16.5 20 16.5H16.5V20C16.5 21.1046 15.6046 22 14.5 22H4C2.89544 22 2 21.1046 2 20V9.5C2 8.39541 2.89544 7.5 4 7.5H7.5V4C7.5 2.89544 8.39541 2 9.5 2H20ZM4 9.5V20H14.5V16.5H9.5C8.39543 16.5 7.5 15.6046 7.5 14.5V9.5H4ZM9.5 7.5H14.5C15.6046 7.5 16.5 8.39543 16.5 9.5V14.5H20V4H9.5V7.5ZM9.5 14.5H14.5V9.5H9.5V14.5Z" fill="#9E9E9E"/>
</g>
</svg>
