<svg width="24" height="24" viewBox="0 0 24 24" fill="none" xmlns="http://www.w3.org/2000/svg">
<g id="icons/Edit/internal-expansion">
<path id="Union" d="M20 2C21.1046 2 22 2.89544 22 4V20C22 21.1046 21.1046 22 20 22H4C2.89544 22 2 21.1046 2 20V4C2 2.89543 2.89543 2 4 2H20ZM4 20H20V11H14C13.4477 11 13 10.5523 13 10V4H4V20ZM11.5 11.5C12.0523 11.5 12.5 11.9477 12.5 12.5V16C12.5 16.5523 12.0523 17 11.5 17C10.9477 17 10.5 16.5523 10.5 16V14.9141L7.20703 18.207C6.81651 18.5976 6.18349 18.5976 5.79297 18.207C5.40244 17.8165 5.40244 17.1835 5.79297 16.793L9.08594 13.5H8C7.44772 13.5 7 13.0523 7 12.5C7 11.9477 7.44772 11.5 8 11.5H11.5ZM15 9H20V4H15V9Z" fill="#9E9E9E"/>
</g>
</svg>
