<svg width="24" height="24" viewBox="0 0 24 24" fill="none" xmlns="http://www.w3.org/2000/svg">
<g id="icons/Edit/intersect-selection">
<path id="Union" d="M15 1.5C16.1046 1.5 17 2.39543 17 3.5V7H20.5C21.6046 7 22.5 7.89543 22.5 9V20.5C22.5 21.6046 21.6046 22.5 20.5 22.5H9C7.89543 22.5 7 21.6046 7 20.5V17H3.5C2.39543 17 1.5 16.1046 1.5 15V3.5C1.5 2.39543 2.39543 1.5 3.5 1.5H15ZM17 15C17 16.1046 16.1046 17 15 17H9V20.5H20.5V9H17V15ZM3.5 15H7V9C7 7.89543 7.89543 7 9 7H15V3.5H3.5V15ZM12.9141 15H15V12.9141L12.9141 15ZM9 13.9141V15H10.0859L15 10.0859V9H13.9141L9 13.9141ZM9 11.0859L11.0859 9H9V11.0859Z" fill="#9E9E9E"/>
</g>
</svg>
