<svg width="24" height="24" viewBox="0 0 24 24" fill="none" xmlns="http://www.w3.org/2000/svg">
<g id="icons/Edit/intermediate-mode">
<path id="Union" d="M11.371 1.22363C11.7637 0.903841 12.343 0.927128 12.7089 1.29297L15.0507 3.63477H19.3651C19.9171 3.635 20.3649 4.08282 20.3651 4.63477V8.94922L22.7069 11.291C23.0972 11.6813 23.0978 12.3145 22.7079 12.7051L20.3651 15.0498V19.3652C20.3649 19.9172 19.9171 20.365 19.3651 20.3652H15.0507L12.7089 22.707C12.3186 23.0973 11.6854 23.0979 11.2948 22.708L8.9491 20.3652H4.63464C4.08274 20.365 3.63488 19.9172 3.63464 19.3652V15.0498L1.29187 12.7051C0.902024 12.3145 0.902623 11.6813 1.29285 11.291L3.63464 8.94922V4.63477C3.63488 4.08285 4.08273 3.63504 4.63464 3.63477H8.9491L11.2948 1.29199L11.371 1.22363ZM10.0702 5.34277C9.88271 5.53 9.62811 5.63474 9.36316 5.63477H5.63464V9.36328C5.63461 9.62835 5.53002 9.88283 5.34265 10.0703L3.41296 11.998L5.34265 13.9307C5.52972 14.1181 5.63461 14.3719 5.63464 14.6367V18.3652H9.36316L9.46179 18.3701C9.69051 18.3928 9.90613 18.4934 10.0702 18.6572L12.0009 20.5859L13.9296 18.6572C14.117 18.4699 14.3716 18.3653 14.6366 18.3652H18.3651V14.6367C18.3651 14.3719 18.4701 14.1181 18.6571 13.9307L20.5858 11.998L18.6571 10.0703C18.4698 9.88283 18.3651 9.62833 18.3651 9.36328V5.63477H14.6366C14.3716 5.63471 14.117 5.53013 13.9296 5.34277L12.0009 3.41309L10.0702 5.34277ZM12.1239 7.00781C14.6332 7.32201 16.4999 9.50832 16.4999 12C16.4999 14.4885 14.6379 16.6834 12.1132 16.9707C11.5646 17.033 11.0693 16.6393 11.0067 16.0908C10.9443 15.5422 11.338 15.046 11.8866 14.9834C13.3617 14.8156 14.4999 13.5114 14.4999 12C14.4999 10.4918 13.3596 9.17809 11.8759 8.99219C11.328 8.92354 10.9392 8.42387 11.0077 7.87598C11.0763 7.32807 11.576 6.93937 12.1239 7.00781Z" fill="#9E9E9E"/>
</g>
</svg>
