<svg width="24" height="24" viewBox="0 0 24 24" fill="none" xmlns="http://www.w3.org/2000/svg">
<g id="icons/Edit/internal-reduction">
<path id="Union" d="M20 2C21.1046 2 22 2.89544 22 4V20C22 21.1046 21.1046 22 20 22H4C2.89544 22 2 21.1046 2 20V4C2 2.89543 2.89543 2 4 2H20ZM4 20H20V11H14C13.4477 11 13 10.5523 13 10V4H4V20ZM10.793 11.793C11.1835 11.4024 11.8165 11.4024 12.207 11.793C12.5976 12.1835 12.5976 12.8165 12.207 13.207L8.91406 16.5H10C10.5523 16.5 11 16.9477 11 17.5C11 18.0523 10.5523 18.5 10 18.5H6.5C5.94772 18.5 5.5 18.0523 5.5 17.5V14C5.5 13.4477 5.94772 13 6.5 13C7.05228 13 7.5 13.4477 7.5 14V15.0859L10.793 11.793ZM15 9H20V4H15V9Z" fill="#9E9E9E"/>
</g>
</svg>
