<svg width="24" height="24" viewBox="0 0 24 24" fill="none" xmlns="http://www.w3.org/2000/svg">
<g id="icons/Edit/invert-camera">
<path id="Union" d="M3 11C3.12531 11 3.24493 11.0243 3.35547 11.0664C3.65502 11.1805 3.88399 11.4341 3.96582 11.748C3.97023 11.765 3.97596 11.7816 3.97949 11.7988C3.99167 11.8583 3.99791 11.9196 3.99902 11.9824C3.99911 11.9873 3.99998 11.9922 4 11.9971V12.0049C4.00012 12.0128 4.00036 12.0272 4.00098 12.0469C4.00226 12.0872 4.00504 12.1519 4.01074 12.2363C4.02224 12.4062 4.04592 12.6587 4.09375 12.9688C4.18991 13.5919 4.38205 14.4369 4.7627 15.3252C5.51549 17.0816 6.99432 19.0027 10.001 19.7822C13.0472 20.572 15.1821 19.7281 16.5693 18.7217C17.2756 18.2092 17.7974 17.6456 18.1416 17.2109C18.3128 16.9947 18.4385 16.813 18.5186 16.6895C18.5584 16.628 18.5873 16.5808 18.6045 16.5518C18.613 16.5374 18.6191 16.5266 18.6221 16.5215C18.6233 16.5193 18.624 16.5177 18.624 16.5176C18.8895 16.0358 19.4951 15.8587 19.9785 16.1221C20.4632 16.3864 20.6419 16.9938 20.3779 17.4785L19.5 17C20.2974 17.435 20.3705 17.4754 20.377 17.4795V17.4814L20.375 17.4834C20.374 17.4852 20.3725 17.4878 20.3711 17.4902C20.3683 17.4953 20.3646 17.5022 20.3604 17.5098C20.3516 17.5252 20.34 17.5462 20.3252 17.5713C20.2953 17.6218 20.2523 17.6914 20.1973 17.7764C20.087 17.9466 19.9251 18.1814 19.71 18.4531C19.2809 18.9949 18.6303 19.6972 17.7432 20.3408C15.9429 21.6468 13.2025 22.6779 9.49902 21.7178C6.83752 21.0277 5.11233 19.5861 4 18.0273V20C4 20.5523 3.55228 21 3 21C2.44772 21 2 20.5523 2 20V12C2.00025 11.4479 2.44787 11 3 11ZM13 9C13.5521 9 13.9997 9.44793 14 10V14C14 14.5523 13.5523 15 13 15H7C6.44772 15 6 14.5523 6 14V10C6.00025 9.44793 6.44787 9 7 9H13ZM16.4453 9.16797C16.752 8.96362 17.1467 8.94442 17.4717 9.11816C17.7967 9.29211 17.9998 9.63139 18 10V14C18 14.3687 17.7967 14.7078 17.4717 14.8818C17.1466 15.0557 16.7521 15.0366 16.4453 14.832L15.4453 14.165C15.1673 13.9795 15 13.6672 15 13.333V10.667C15.0002 10.3329 15.1673 10.0204 15.4453 9.83496L16.4453 9.16797ZM6.63672 3.57227C8.58276 2.2867 11.4684 1.30653 15.0771 2.55566C17.4127 3.36413 18.9677 4.6855 20 6.09375V4C20.0003 3.44793 20.4479 3 21 3C21.5521 3 21.9997 3.44793 22 4V12C22 12.0097 21.9983 12.0197 21.998 12.0293C21.9993 12.0906 22.0012 12.1421 22.001 12.1826C22.0008 12.212 22.0004 12.2361 22 12.2539C21.9998 12.2626 22.0001 12.2706 22 12.2764C21.9999 12.2791 21.9992 12.2821 21.999 12.2842V12.2881L21.957 12.2861V12.2871L21.999 12.2891C21.9778 12.8408 21.5136 13.271 20.9619 13.25C20.41 13.2288 19.9798 12.7638 20.001 12.2119V12.1719C20.0012 12.1354 20.0015 12.0765 19.999 11.999C19.994 11.8429 19.9794 11.6096 19.9443 11.3203C19.8738 10.7388 19.7186 9.942 19.3818 9.08594C18.7162 7.39439 17.3433 5.45626 14.4229 4.44531C11.5324 3.44486 9.29215 4.21461 7.73828 5.24121C6.9516 5.76103 6.34252 6.34768 5.93066 6.80566C5.72578 7.03351 5.57275 7.22762 5.47266 7.36035C5.42285 7.42641 5.38588 7.47745 5.36328 7.50977C5.35225 7.52555 5.34418 7.53752 5.33984 7.54395C5.33922 7.54488 5.33758 7.54533 5.33691 7.5459L5.33789 7.54688C5.03621 8.00945 4.41669 8.13952 3.9541 7.83789C3.49168 7.53614 3.36046 6.91663 3.66211 6.4541L4.37598 6.91992C3.66257 6.4546 3.66281 6.45354 3.66309 6.45312L3.66406 6.45215L3.66504 6.4502C3.66613 6.44844 3.66741 6.44567 3.66895 6.44336C3.67217 6.43852 3.67667 6.43218 3.68164 6.4248C3.6919 6.40959 3.70599 6.38852 3.72363 6.36328C3.7591 6.31256 3.81005 6.24239 3.875 6.15625C4.00538 5.98335 4.19639 5.74448 4.44434 5.46875C4.93866 4.91908 5.67397 4.20837 6.63672 3.57227ZM8 13H12V11H8V13Z" fill="#9E9E9E"/>
</g>
</svg>
