<svg width="24" height="24" viewBox="0 0 24 24" fill="none" xmlns="http://www.w3.org/2000/svg">
<g id="icons/Edit/layers">
<path id="Union" d="M21.6704 17.0557C22.1915 16.8738 22.7625 17.1489 22.9448 17.6699C23.1269 18.1909 22.8514 18.7618 22.3306 18.9443L12.3306 22.4443C12.1171 22.519 11.8839 22.5189 11.6704 22.4443L1.67041 18.9443C1.14926 18.7619 0.873979 18.1911 1.05615 17.6699C1.23863 17.1489 1.80946 16.8735 2.33057 17.0557L12.0005 20.4395L21.6704 17.0557ZM21.6704 13.0557C22.1915 12.8738 22.7625 13.1489 22.9448 13.6699C23.1269 14.1909 22.8514 14.7618 22.3306 14.9443L12.3306 18.4443C12.1171 18.519 11.8839 18.5189 11.6704 18.4443L1.67041 14.9443C1.14926 14.7619 0.873979 14.1911 1.05615 13.6699C1.23863 13.1489 1.80946 12.8735 2.33057 13.0557L12.0005 16.4395L21.6704 13.0557ZM21.6704 9.05566C22.1915 8.87378 22.7625 9.14891 22.9448 9.66992C23.1269 10.1909 22.8514 10.7618 22.3306 10.9443L12.3306 14.4443C12.1171 14.519 11.8839 14.5189 11.6704 14.4443L1.67041 10.9443C1.14926 10.7619 0.873979 10.1911 1.05615 9.66992C1.23863 9.14891 1.80946 8.87352 2.33057 9.05566L12.0005 12.4395L21.6704 9.05566ZM11.8354 1.51367C11.9992 1.48634 12.169 1.49986 12.3276 1.55469L22.3276 5.01172C22.7288 5.15071 22.9987 5.52852 23.0005 5.95312C23.0021 6.37787 22.7347 6.75735 22.3345 6.89941L12.3345 10.4424C12.1185 10.5189 11.8825 10.5188 11.6665 10.4424L1.6665 6.89941C1.26603 6.75747 0.998866 6.37802 1.00049 5.95312C1.00223 5.52839 1.27196 5.15061 1.67334 5.01172L11.6733 1.55469L11.8354 1.51367ZM5.02686 5.96875L12.0005 8.43848L18.9731 5.96875L12.0005 3.55762L5.02686 5.96875Z" fill="#9E9E9E"/>
</g>
</svg>
