<svg width="24" height="24" viewBox="0 0 24 24" fill="none" xmlns="http://www.w3.org/2000/svg">
<g id="icons/Edit/layout-four">
<path id="Union" d="M19.5 2C20.8807 2 22 3.11929 22 4.5V19.5C22 20.8807 20.8807 22 19.5 22H4.5C3.11929 22 2 20.8807 2 19.5V4.5C2 3.11929 3.11929 2 4.5 2H19.5ZM4 19.5C4 19.7761 4.22386 20 4.5 20H11V15H4V19.5ZM13 20H19.5C19.7761 20 20 19.7761 20 19.5V11H13V20ZM4.5 4C4.22386 4 4 4.22386 4 4.5V13H11V4H4.5ZM13 9H20V4.5C20 4.22386 19.7761 4 19.5 4H13V9Z" fill="#9E9E9E"/>
</g>
</svg>
