<svg width="24" height="24" viewBox="0 0 24 24" fill="none" xmlns="http://www.w3.org/2000/svg">
<g id="icons/Edit/lens-alignment">
<path id="Union" d="M5 13C5.55228 13 6 13.4477 6 14V16.1738C6.85161 16.4752 7.52483 17.1484 7.82617 18H10C10.5523 18 11 18.4477 11 19C11 19.5523 10.5523 20 10 20H7.82617C7.41405 21.1647 6.30583 22 5 22C3.34314 22 2 20.6568 2 19C2 17.6942 2.83532 16.5859 4 16.1738V14C4 13.4477 4.44772 13 5 13ZM19 13C19.5523 13 20 13.4477 20 14V16.1738C21.1647 16.5859 22 17.6942 22 19C22 20.6568 20.6568 22 19 22C17.6942 22 16.5859 21.1647 16.1738 20H14C13.4477 20 13 19.5523 13 19C13 18.4477 13.4477 18 14 18H16.1738C16.4752 17.1484 17.1484 16.4752 18 16.1738V14C18 13.4477 18.4477 13 19 13ZM12 7.5C12.5523 7.5 13 7.94772 13 8.5V11H15.5C16.0523 11 16.5 11.4477 16.5 12C16.5 12.5523 16.0523 13 15.5 13H13V15.5C13 16.0523 12.5523 16.5 12 16.5C11.4477 16.5 11 16.0523 11 15.5V13H8.5C7.94772 13 7.5 12.5523 7.5 12C7.5 11.4477 7.94772 11 8.5 11H11V8.5C11 7.94772 11.4477 7.5 12 7.5ZM5 2C6.30583 2 7.41405 2.83532 7.82617 4H10C10.5523 4 11 4.44772 11 5C11 5.55228 10.5523 6 10 6H7.82617C7.52486 6.85151 6.85147 7.5238 6 7.8252V10C6 10.5523 5.55228 11 5 11C4.44772 11 4 10.5523 4 10V7.8252C2.83548 7.41299 2 6.30572 2 5C2 3.34315 3.34315 2 5 2ZM19 2C20.6568 2 22 3.34314 22 5C22 6.30572 21.1645 7.41299 20 7.8252V10C20 10.5523 19.5523 11 19 11C18.4477 11 18 10.5523 18 10V7.8252C17.1485 7.5238 16.4751 6.85151 16.1738 6H14C13.4477 6 13 5.55228 13 5C13 4.44772 13.4477 4 14 4H16.1738C16.5859 2.83532 17.6942 2 19 2Z" fill="#9E9E9E"/>
</g>
</svg>
