<svg width="24" height="24" viewBox="0 0 24 24" fill="none" xmlns="http://www.w3.org/2000/svg">
<g id="icons/Edit/level-seven-title">
<path id="Union" d="M12 3C12.5523 3 13 3.44772 13 4V20C13 20.5523 12.5523 21 12 21C11.4477 21 11 20.5523 11 20V13H4V20C4 20.5523 3.55228 21 3 21C2.44772 21 2 20.5523 2 20V4C2 3.44772 2.44772 3 3 3C3.55228 3 4 3.44772 4 4V11H11V4C11 3.44772 11.4477 3 12 3ZM21.126 10.0078C21.4155 10.0446 21.6776 10.2068 21.8389 10.4551C22.0233 10.739 22.0507 11.0969 21.9131 11.4062L17.9102 20.4062C17.6858 20.9107 17.0953 21.1382 16.5908 20.9141C16.0863 20.6896 15.8587 20.0983 16.083 19.5938L19.4609 12H15.999C15.4467 12 14.999 11.5523 14.999 11C14.999 10.4477 15.4467 10 15.999 10H21L21.126 10.0078Z" fill="#9E9E9E"/>
</g>
</svg>
