<svg width="24" height="24" viewBox="0 0 24 24" fill="none" xmlns="http://www.w3.org/2000/svg">
<g id="icons/Edit/level-adjustment">
<path id="Union" d="M17.4775 14.7402C17.6205 14.2068 18.1687 13.8903 18.7021 14.0332C19.2356 14.1762 19.5521 14.7244 19.4092 15.2578L17.5283 22.2793C17.4597 22.5353 17.292 22.7541 17.0625 22.8867C16.8328 23.0193 16.5589 23.055 16.3027 22.9863L2.78027 19.3633C2.52413 19.2946 2.30547 19.1271 2.17285 18.8975C2.04028 18.6678 2.00468 18.3948 2.07324 18.1387L2.9834 14.7402C3.12634 14.2068 3.67552 13.8903 4.20898 14.0332C4.74212 14.1764 5.05891 14.7245 4.91602 15.2578L4.26367 17.6904L15.8545 20.7949L17.4775 14.7402ZM2.5 11C3.05228 11 3.5 11.4477 3.5 12C3.49995 12.5522 3.05225 13 2.5 13H2C1.44775 13 1.00005 12.5522 1 12C1 11.4477 1.44772 11 2 11H2.5ZM6.5 11C7.05228 11 7.5 11.4477 7.5 12C7.49995 12.5522 7.05225 13 6.5 13H5.5C4.94775 13 4.50005 12.5522 4.5 12C4.5 11.4477 4.94772 11 5.5 11H6.5ZM10.5 11C11.0523 11 11.5 11.4477 11.5 12C11.5 12.5522 11.0523 13 10.5 13H9.5C8.94775 13 8.50005 12.5522 8.5 12C8.5 11.4477 8.94772 11 9.5 11H10.5ZM14.5 11C15.0523 11 15.5 11.4477 15.5 12C15.5 12.5522 15.0523 13 14.5 13H13.5C12.9477 13 12.5 12.5522 12.5 12C12.5 11.4477 12.9477 11 13.5 11H14.5ZM18.5 11C19.0523 11 19.5 11.4477 19.5 12C19.5 12.5522 19.0523 13 18.5 13H17.5C16.9477 13 16.5 12.5522 16.5 12C16.5 11.4477 16.9477 11 17.5 11H18.5ZM22 11C22.5523 11 23 11.4477 23 12C23 12.5522 22.5523 13 22 13H21.5C20.9477 13 20.5 12.5522 20.5 12C20.5 11.4477 20.9477 11 21.5 11H22ZM6.93945 1.11035C7.16905 0.977947 7.44222 0.942142 7.69824 1.01074L21.2207 4.63379C21.754 4.77671 22.0704 5.32505 21.9277 5.8584L21.0176 9.25781C20.8745 9.79108 20.3253 10.1077 19.792 9.96484C19.2589 9.82179 18.9424 9.2734 19.085 8.74023L19.7363 6.30664L8.14551 3.20117L6.52344 9.25781C6.38036 9.79095 5.83208 10.1076 5.29883 9.96484C4.76549 9.82194 4.44911 9.27358 4.5918 8.74023L6.47266 1.71777C6.5413 1.46161 6.70979 1.24296 6.93945 1.11035Z" fill="#9E9E9E"/>
</g>
</svg>
