<svg width="24" height="24" viewBox="0 0 24 24" fill="none" xmlns="http://www.w3.org/2000/svg">
<g id="icons/Edit/level-six-title">
<path id="Union" d="M12 3C12.5523 3 13 3.44772 13 4V20C13 20.5523 12.5523 21 12 21C11.4477 21 11 20.5523 11 20V13H4V20C4 20.5523 3.55228 21 3 21C2.44772 21 2 20.5523 2 20V4C2 3.44772 2.44772 3 3 3C3.55228 3 4 3.44772 4 4V11H11V4C11 3.44772 11.4477 3 12 3ZM18.25 9.5C19.8751 9.5 21.2006 10.5868 21.7354 12.0195C21.9284 12.537 21.6649 13.1136 21.1475 13.3066C20.6301 13.4995 20.0544 13.2361 19.8613 12.7188C19.5775 11.9587 18.9291 11.5 18.25 11.5C17.3636 11.5 16.5 12.3117 16.5 13.5V13.9326C17.0224 13.6565 17.6179 13.5 18.25 13.5C20.3211 13.5 22 15.1789 22 17.25C22 19.3211 20.3211 21 18.25 21C16.1789 21 14.5 19.3211 14.5 17.25C14.5 17.195 14.5016 17.1403 14.5039 17.0859C14.5015 17.0576 14.5 17.029 14.5 17V13.5C14.5 11.3746 16.0988 9.5 18.25 9.5ZM18.25 15.5C17.2835 15.5 16.5 16.2835 16.5 17.25C16.5 18.2165 17.2835 19 18.25 19C19.2165 19 20 18.2165 20 17.25C20 16.2835 19.2165 15.5 18.25 15.5Z" fill="#9E9E9E"/>
</g>
</svg>
