<svg width="24" height="24" viewBox="0 0 24 24" fill="none" xmlns="http://www.w3.org/2000/svg">
<g id="icons/Edit/level-four-title">
<path id="Union" d="M12 3C12.5523 3 13 3.44772 13 4V20C13 20.5523 12.5523 21 12 21C11.4477 21 11 20.5523 11 20V13H4V20C4 20.5523 3.55228 21 3 21C2.44772 21 2 20.5523 2 20V4C2 3.44772 2.44772 3 3 3C3.55228 3 4 3.44772 4 4V11H11V4C11 3.44772 11.4477 3 12 3ZM19.166 9.43164C19.4148 9.07174 19.8684 8.91469 20.2861 9.04492C20.7039 9.17518 20.9883 9.56238 20.9883 10V16.5098H21.5C22.0522 16.5098 22.4999 16.9576 22.5 17.5098C22.5 18.0621 22.0523 18.5098 21.5 18.5098H20.9883V20C20.9883 20.5523 20.5406 21 19.9883 21C19.436 21 18.9883 20.5523 18.9883 20V18.5098H15.5C14.9477 18.5098 14.5 18.0621 14.5 17.5098V16.498C14.5001 16.2951 14.5614 16.0967 14.6768 15.9297L19.166 9.43164ZM16.708 16.5098H18.9883V13.208L16.708 16.5098Z" fill="#9E9E9E"/>
</g>
</svg>
