<svg width="24" height="24" viewBox="0 0 24 24" fill="none" xmlns="http://www.w3.org/2000/svg">
<g id="icons/Edit/level-eight-title">
<path id="Union" d="M12 3C12.5523 3 13 3.44772 13 4V20C13 20.5523 12.5523 21 12 21C11.4477 21 11 20.5523 11 20V13H4V20C4 20.5523 3.55228 21 3 21C2.44772 21 2 20.5523 2 20V4C2 3.44772 2.44772 3 3 3C3.55228 3 4 3.44772 4 4V11H11V4C11 3.44772 11.4477 3 12 3ZM18.5 9.5C20.1568 9.5 21.5 10.8432 21.5 12.5C21.5 13.3565 21.1382 14.1262 20.5625 14.6729C21.4337 15.3095 22 16.3384 22 17.5C22 19.433 20.433 21 18.5 21C16.567 21 15 19.433 15 17.5C15 16.3387 15.5657 15.3095 16.4365 14.6729C15.8611 14.1262 15.5 13.3563 15.5 12.5C15.5 10.8432 16.8432 9.5 18.5 9.5ZM18.5 16C17.6716 16 17 16.6716 17 17.5C17 18.3284 17.6716 19 18.5 19C19.3284 19 20 18.3284 20 17.5C20 16.6716 19.3284 16 18.5 16ZM18.5 11.5C17.9477 11.5 17.5 11.9477 17.5 12.5C17.5 13.0523 17.9477 13.5 18.5 13.5C19.0523 13.5 19.5 13.0523 19.5 12.5C19.5 11.9477 19.0523 11.5 18.5 11.5Z" fill="#9E9E9E"/>
</g>
</svg>
