<svg width="24" height="24" viewBox="0 0 24 24" fill="none" xmlns="http://www.w3.org/2000/svg">
<g id="icons/Edit/level-five-title">
<path id="Union" d="M12 3C12.5523 3 13 3.44772 13 4V20C13 20.5523 12.5523 21 12 21C11.4477 21 11 20.5523 11 20V13H4V20C4 20.5523 3.55228 21 3 21C2.44772 21 2 20.5523 2 20V4C2 3.44772 2.44772 3 3 3C3.55228 3 4 3.44772 4 4V11H11V4C11 3.44772 11.4477 3 12 3ZM20 9.50391C20.5523 9.50391 21 9.95162 21 10.5039C21 11.0562 20.5523 11.5039 20 11.5039H17V12.6475C17.426 12.5623 17.9323 12.499 18.5 12.499C19.0184 12.499 19.5108 12.6098 19.9473 12.8633C20.3851 13.1176 20.708 13.4819 20.9375 13.8965C21.3759 14.6887 21.5 15.7113 21.5 16.749C21.5 17.7768 21.3805 18.8464 20.833 19.6709C20.2223 20.5904 19.2323 20.999 18 20.999C17.0097 20.999 16.2057 20.6575 15.6699 20.0156C15.1608 19.4055 15 18.6503 15 18.0029C15.0001 17.4507 15.4478 17.0029 16 17.0029C16.5522 17.0029 16.9999 17.4507 17 18.0029C17 18.3517 17.0892 18.5955 17.2051 18.7344C17.2944 18.8414 17.4906 18.999 18 18.999C18.7677 18.999 19.0277 18.7741 19.167 18.5645C19.3693 18.2597 19.5 17.7041 19.5 16.749C19.5 15.8042 19.3739 15.2022 19.1875 14.8652C19.1046 14.7154 19.0211 14.638 18.9434 14.5928C18.8643 14.5468 18.7315 14.499 18.5 14.499C17.8601 14.499 17.3299 14.6064 16.9668 14.7119C16.7854 14.7646 16.6496 14.816 16.5674 14.8506C16.5372 14.8633 16.5169 14.8727 16.5059 14.8779C16.3573 14.9653 16.1848 15.0166 16 15.0166C15.4821 15.0166 15.0559 14.6226 15.0049 14.1182L15 14.0166V10.5039C15 9.95162 15.4477 9.50391 16 9.50391H20ZM16.7119 14.7168C16.7132 14.7155 16.7155 14.7152 16.7168 14.7139C16.7292 14.7012 16.747 14.6811 16.7686 14.6553C16.7507 14.6767 16.7315 14.6969 16.7119 14.7168Z" fill="#9E9E9E"/>
</g>
</svg>
