<svg width="24" height="24" viewBox="0 0 24 24" fill="none" xmlns="http://www.w3.org/2000/svg">
<g id="icons/Edit/level-nine-title">
<path id="Union" d="M12 3C12.5523 3 13 3.44772 13 4V20C13 20.5523 12.5523 21 12 21C11.4477 21 11 20.5523 11 20V13H4V20C4 20.5523 3.55228 21 3 21C2.44772 21 2 20.5523 2 20V4C2 3.44772 2.44772 3 3 3C3.55228 3 4 3.44772 4 4V11H11V4C11 3.44772 11.4477 3 12 3ZM18.25 9.5C20.3211 9.5 22 11.1789 22 13.25C22 13.3047 21.9974 13.359 21.9951 13.4131C21.9976 13.4418 22 13.4707 22 13.5V17C22 19.1254 20.4012 21 18.25 21C16.2488 21 15.077 19.7257 14.5635 18.3496C14.3704 17.8322 14.633 17.2566 15.1504 17.0635C15.6678 16.8704 16.2434 17.133 16.4365 17.6504C16.7414 18.4674 17.2989 19 18.25 19C19.1364 19 20 18.1883 20 17V16.5664C19.4775 16.8427 18.8822 17 18.25 17C16.1789 17 14.5 15.3211 14.5 13.25C14.5 11.1789 16.1789 9.5 18.25 9.5ZM18.25 11.5C17.2835 11.5 16.5 12.2835 16.5 13.25C16.5 14.2165 17.2835 15 18.25 15C19.2165 15 20 14.2165 20 13.25C20 12.2835 19.2165 11.5 18.25 11.5Z" fill="#9E9E9E"/>
</g>
</svg>
