<svg width="24" height="24" viewBox="0 0 24 24" fill="none" xmlns="http://www.w3.org/2000/svg">
<g id="icons/Edit/link-out">
<path id="Union" d="M16 17C16.5523 17 17 17.4477 17 18V22C17 22.5523 16.5523 23 16 23H8C7.44772 23 7 22.5523 7 22V18C7 17.4477 7.44772 17 8 17C8.55228 17 9 17.4477 9 18V21H15V18C15 17.4477 15.4477 17 16 17ZM12 6C12.5523 6 13 6.44772 13 7V17C13 17.5523 12.5523 18 12 18C11.4477 18 11 17.5523 11 17V7C11 6.44772 11.4477 6 12 6ZM3.79297 8.79297C4.18349 8.40244 4.81651 8.40244 5.20703 8.79297C5.59756 9.18349 5.59756 9.81651 5.20703 10.207L4.41406 11H9C9.55229 11 10 11.4477 10 12C10 12.5523 9.55229 13 9 13H4.41406L5.20703 13.793C5.59756 14.1835 5.59756 14.8165 5.20703 15.207C4.81651 15.5976 4.18349 15.5976 3.79297 15.207L1.29297 12.707C1.26536 12.6794 1.2405 12.65 1.2168 12.6201C1.18065 12.5745 1.14798 12.5261 1.12012 12.4746C1.11269 12.4609 1.10634 12.4466 1.09961 12.4326C1.0778 12.3873 1.05783 12.3408 1.04297 12.292C1.0303 12.2503 1.02176 12.2077 1.01465 12.165C1.00571 12.1113 1 12.0563 1 12C1 11.9203 1.00973 11.8429 1.02734 11.7686C1.03221 11.748 1.03678 11.7273 1.04297 11.707C1.05787 11.6583 1.07777 11.6117 1.09961 11.5664C1.11877 11.5266 1.1403 11.4877 1.16504 11.4502C1.20242 11.3935 1.24516 11.3408 1.29297 11.293L3.79297 8.79297ZM18.793 8.79297C19.1835 8.40244 19.8165 8.40244 20.207 8.79297L22.707 11.293C22.7548 11.3408 22.7976 11.3935 22.835 11.4502C22.8597 11.4877 22.8812 11.5266 22.9004 11.5664C22.9222 11.6116 22.9412 11.6584 22.9561 11.707C22.9623 11.7273 22.9668 11.748 22.9717 11.7686C22.9893 11.8429 23 11.9202 23 12C23 12.0563 22.9933 12.1112 22.9844 12.165C22.9772 12.2078 22.9688 12.2503 22.9561 12.292C22.9412 12.3407 22.9222 12.3874 22.9004 12.4326C22.8936 12.4468 22.8864 12.4607 22.8789 12.4746C22.851 12.5262 22.8184 12.5745 22.7822 12.6201C22.7586 12.6498 22.7345 12.6796 22.707 12.707L20.207 15.207C19.8165 15.5976 19.1835 15.5976 18.793 15.207C18.4024 14.8165 18.4024 14.1835 18.793 13.793L19.5859 13H15C14.4477 13 14 12.5523 14 12C14 11.4477 14.4477 11 15 11H19.5859L18.793 10.207C18.4024 9.81651 18.4024 9.18349 18.793 8.79297ZM16 1C16.5523 1 17 1.44772 17 2V6C17 6.55228 16.5523 7 16 7C15.4477 7 15 6.55228 15 6V3H9V6C9 6.55228 8.55228 7 8 7C7.44772 7 7 6.55228 7 6V2C7 1.44772 7.44772 1 8 1H16Z" fill="#9E9E9E"/>
</g>
</svg>
