<svg width="24" height="24" viewBox="0 0 24 24" fill="none" xmlns="http://www.w3.org/2000/svg">
<g id="icons/Edit/link-one">
<path id="Union" d="M10.1927 10.1914C10.5833 9.80103 11.2163 9.80093 11.6068 10.1914C11.9968 10.5819 11.997 11.2151 11.6068 11.6055C10.6125 12.5998 10.6191 14.1528 11.5414 15.0752C11.5558 15.0896 11.569 15.105 11.5824 15.1201C11.5903 15.1275 11.5991 15.1348 11.6068 15.1426L16.1771 19.7119C17.0996 20.634 18.6527 20.6407 19.6469 19.6465C20.6409 18.6523 20.6343 17.0992 19.7123 16.1768L15.7445 12.209C15.3542 11.8185 15.3542 11.1854 15.7445 10.7949C16.135 10.4045 16.768 10.4046 17.1586 10.7949L21.1263 14.7627C22.8649 16.5017 22.8 19.3213 21.0609 21.0605C19.3216 22.7998 16.5021 22.8646 14.7631 21.126L10.1927 16.5566C10.1797 16.5436 10.1678 16.5292 10.1556 16.5156C10.1464 16.507 10.1363 16.4992 10.1273 16.4902C8.38839 14.7513 8.45337 11.9308 10.1927 10.1914ZM2.95935 2.97461C4.69874 1.23526 7.51827 1.17021 9.2572 2.90918L13.8275 7.47852L13.9847 7.64453C15.5601 9.39258 15.4471 12.0923 13.7621 13.7773C13.3717 14.1674 12.7385 14.1672 12.348 13.7773C11.9575 13.3868 11.9575 12.7528 12.348 12.3623C13.2799 11.4302 13.3324 10.0065 12.5756 9.07227L12.4135 8.89258L7.84314 4.32324C6.92077 3.40086 5.36775 3.39436 4.37341 4.38867C3.37912 5.38295 3.38559 6.93603 4.30798 7.8584L8.27576 11.8262C8.66562 12.2167 8.66582 12.8499 8.27576 13.2402C7.88535 13.6306 7.25127 13.6304 6.86072 13.2402L2.89392 9.27246C1.15496 7.53354 1.21998 4.71396 2.95935 2.97461Z" fill="#9E9E9E"/>
</g>
</svg>
