<svg width="24" height="24" viewBox="0 0 24 24" fill="none" xmlns="http://www.w3.org/2000/svg">
<g id="icons/Edit/link-two">
<path id="Union" d="M15 8.5C15.5523 8.5 16 8.94772 16 9.5C16 10.0523 15.5523 10.5 15 10.5H10C8.34313 10.5 7 11.8431 7 13.5C7 15.1569 8.34313 16.5 10 16.5H18C19.6569 16.5 21 15.1569 21 13.5C21 12.7385 20.7173 12.045 20.25 11.5156C19.8849 11.1016 19.9241 10.4699 20.3379 10.1045C20.752 9.73902 21.3845 9.77832 21.75 10.1924C22.5274 11.0732 23 12.2327 23 13.5C23 16.2614 20.7614 18.5 18 18.5H10C7.23856 18.5 5 16.2614 5 13.5C5 10.7386 7.23856 8.5 10 8.5H15ZM14 4.5C16.7614 4.5 19 6.73857 19 9.5C19 12.2614 16.7614 14.5 14 14.5H9C8.44772 14.5 8 14.0523 8 13.5C8 12.9477 8.44772 12.5 9 12.5H14C15.6569 12.5 17 11.1569 17 9.5C17 7.84313 15.6569 6.5 14 6.5H6C4.34314 6.5 3 7.84314 3 9.5C3 10.2615 3.28271 10.955 3.75 11.4844C4.11511 11.8984 4.07587 12.5301 3.66211 12.8955C3.24805 13.261 2.61548 13.2217 2.25 12.8076C1.47261 11.9268 1 10.7673 1 9.5C1 6.73856 3.23858 4.5 6 4.5H14Z" fill="#9E9E9E"/>
</g>
</svg>
