<svg width="24" height="24" viewBox="0 0 24 24" fill="none" xmlns="http://www.w3.org/2000/svg">
<g id="icons/Edit/link-in">
<path id="Union" d="M16 17C16.5523 17 17 17.4477 17 18V22C17 22.5523 16.5523 23 16 23H8C7.44772 23 7 22.5523 7 22V18C7 17.4477 7.44772 17 8 17C8.55228 17 9 17.4477 9 18V21H15V18C15 17.4477 15.4477 17 16 17ZM12 6C12.5523 6 13 6.44772 13 7V17C13 17.5523 12.5523 18 12 18C11.4477 18 11 17.5523 11 17V7C11 6.44772 11.4477 6 12 6ZM5.79297 8.79297C6.18349 8.40244 6.81651 8.40244 7.20703 8.79297L9.70703 11.293C9.75484 11.3408 9.79758 11.3935 9.83496 11.4502C9.8597 11.4877 9.88123 11.5266 9.90039 11.5664C9.92219 11.6116 9.94116 11.6584 9.95605 11.707C9.96225 11.7273 9.9668 11.748 9.97168 11.7686C9.98933 11.8429 10 11.9202 10 12C10 12.0563 9.99333 12.1112 9.98438 12.165C9.97725 12.2078 9.96875 12.2503 9.95605 12.292C9.94121 12.3407 9.92216 12.3874 9.90039 12.4326C9.89359 12.4468 9.88641 12.4607 9.87891 12.4746C9.851 12.5262 9.81843 12.5745 9.78223 12.6201C9.75863 12.6498 9.73449 12.6796 9.70703 12.707L7.20703 15.207C6.81651 15.5976 6.18349 15.5976 5.79297 15.207C5.40244 14.8165 5.40244 14.1835 5.79297 13.793L6.58594 13H2C1.44772 13 1 12.5523 1 12C1 11.4477 1.44772 11 2 11H6.58594L5.79297 10.207C5.40244 9.81651 5.40244 9.18349 5.79297 8.79297ZM16.793 8.79297C17.1835 8.40244 17.8165 8.40244 18.207 8.79297C18.5976 9.18349 18.5976 9.81651 18.207 10.207L17.4141 11H22C22.5523 11 23 11.4477 23 12C23 12.5523 22.5523 13 22 13H17.4141L18.207 13.793C18.5976 14.1835 18.5976 14.8165 18.207 15.207C17.8165 15.5976 17.1835 15.5976 16.793 15.207L14.293 12.707C14.2654 12.6794 14.2405 12.65 14.2168 12.6201C14.1807 12.5745 14.148 12.5261 14.1201 12.4746C14.1127 12.4609 14.1063 12.4466 14.0996 12.4326C14.0778 12.3873 14.0578 12.3408 14.043 12.292C14.0303 12.2503 14.0218 12.2077 14.0146 12.165C14.0057 12.1113 14 12.0563 14 12C14 11.9203 14.0097 11.8429 14.0273 11.7686C14.0322 11.748 14.0368 11.7273 14.043 11.707C14.0579 11.6583 14.0778 11.6117 14.0996 11.5664C14.1188 11.5266 14.1403 11.4877 14.165 11.4502C14.2024 11.3935 14.2452 11.3408 14.293 11.293L16.793 8.79297ZM16 1C16.5523 1 17 1.44772 17 2V6C17 6.55228 16.5523 7 16 7C15.4477 7 15 6.55228 15 6V3H9V6C9 6.55228 8.55228 7 8 7C7.44772 7 7 6.55228 7 6V2C7 1.44772 7.44772 1 8 1H16Z" fill="#9E9E9E"/>
</g>
</svg>
