<svg width="24" height="24" viewBox="0 0 24 24" fill="none" xmlns="http://www.w3.org/2000/svg">
<g id="icons/Edit/link-right">
<path id="Union" d="M12 17C12.5523 17 13 17.4477 13 18V22C13 22.5523 12.5523 23 12 23H4C3.44772 23 3 22.5523 3 22V18C3 17.4477 3.44772 17 4 17C4.55228 17 5 17.4477 5 18V21H11V18C11 17.4477 11.4477 17 12 17ZM8 6C8.55228 6 9 6.44772 9 7V17C9 17.5523 8.55228 18 8 18C7.44772 18 7 17.5523 7 17V7C7 6.44772 7.44772 6 8 6ZM17.293 7.29297C17.6835 6.90244 18.3165 6.90244 18.707 7.29297L22.707 11.293C22.7548 11.3408 22.7976 11.3935 22.835 11.4502C22.8597 11.4877 22.8812 11.5266 22.9004 11.5664C22.9222 11.6116 22.9412 11.6584 22.9561 11.707C22.9623 11.7273 22.9668 11.748 22.9717 11.7686C22.9893 11.8429 23 11.9202 23 12C23 12.0563 22.9933 12.1112 22.9844 12.165C22.9772 12.2078 22.9688 12.2503 22.9561 12.292C22.9412 12.3407 22.9222 12.3874 22.9004 12.4326C22.8936 12.4468 22.8864 12.4607 22.8789 12.4746C22.851 12.5262 22.8184 12.5745 22.7822 12.6201C22.7586 12.6498 22.7345 12.6796 22.707 12.707L18.707 16.707C18.3165 17.0976 17.6835 17.0976 17.293 16.707C16.9024 16.3165 16.9024 15.6835 17.293 15.293L19.5859 13H12C11.4477 13 11 12.5523 11 12C11 11.4477 11.4477 11 12 11H19.5859L17.293 8.70703C16.9024 8.31651 16.9024 7.68349 17.293 7.29297ZM12 1C12.5523 1 13 1.44772 13 2V6C13 6.55228 12.5523 7 12 7C11.4477 7 11 6.55228 11 6V3H5V6C5 6.55228 4.55228 7 4 7C3.44772 7 3 6.55228 3 6V2C3 1.44772 3.44772 1 4 1H12Z" fill="#9E9E9E"/>
</g>
</svg>
