<svg width="24" height="24" viewBox="0 0 24 24" fill="none" xmlns="http://www.w3.org/2000/svg">
<g id="icons/Edit/link-left">
<path id="Union" d="M20 17C20.5523 17 21 17.4477 21 18V22C21 22.5523 20.5523 23 20 23H12C11.4477 23 11 22.5523 11 22V18C11 17.4477 11.4477 17 12 17C12.5523 17 13 17.4477 13 18V21H19V18C19 17.4477 19.4477 17 20 17ZM16 6C16.5523 6 17 6.44772 17 7V17C17 17.5523 16.5523 18 16 18C15.4477 18 15 17.5523 15 17V7C15 6.44772 15.4477 6 16 6ZM5.29297 7.29297C5.68349 6.90244 6.31651 6.90244 6.70703 7.29297C7.09756 7.68349 7.09756 8.31651 6.70703 8.70703L4.41406 11H12C12.5523 11 13 11.4477 13 12C13 12.5523 12.5523 13 12 13H4.41406L6.70703 15.293C7.09756 15.6835 7.09756 16.3165 6.70703 16.707C6.31651 17.0976 5.68349 17.0976 5.29297 16.707L1.29297 12.707C1.26536 12.6794 1.2405 12.65 1.2168 12.6201C1.18065 12.5745 1.14798 12.5261 1.12012 12.4746C1.11269 12.4609 1.10634 12.4466 1.09961 12.4326C1.0778 12.3873 1.05783 12.3408 1.04297 12.292C1.0303 12.2503 1.02176 12.2077 1.01465 12.165C1.00571 12.1113 1 12.0563 1 12C1 11.9203 1.00973 11.8429 1.02734 11.7686C1.03221 11.748 1.03678 11.7273 1.04297 11.707C1.05787 11.6583 1.07777 11.6117 1.09961 11.5664C1.11877 11.5266 1.1403 11.4877 1.16504 11.4502C1.20242 11.3935 1.24516 11.3408 1.29297 11.293L5.29297 7.29297ZM20 1C20.5523 1 21 1.44772 21 2V6C21 6.55228 20.5523 7 20 7C19.4477 7 19 6.55228 19 6V3H13V6C13 6.55228 12.5523 7 12 7C11.4477 7 11 6.55228 11 6V2C11 1.44772 11.4477 1 12 1H20Z" fill="#9E9E9E"/>
</g>
</svg>
