<svg width="24" height="24" viewBox="0 0 24 24" fill="none" xmlns="http://www.w3.org/2000/svg">
<g id="icons/Edit/list-one">
<path id="Union" d="M22 17C22.5523 17 23 17.4477 23 18V21C23 21.5523 22.5523 22 22 22H9C8.44772 22 8 21.5523 8 21V18C8 17.4477 8.44772 17 9 17H22ZM4 17.5C5.10457 17.5 6 18.3954 6 19.5C6 20.6046 5.10457 21.5 4 21.5C2.89543 21.5 2 20.6046 2 19.5C2 18.3954 2.89543 17.5 4 17.5ZM10 20H21V19H10V20ZM19 9.5C19.5523 9.5 20 9.94772 20 10.5V13.5C20 14.0523 19.5523 14.5 19 14.5H9C8.44772 14.5 8 14.0523 8 13.5V10.5C8 9.94772 8.44772 9.5 9 9.5H19ZM4 10C5.10457 10 6 10.8954 6 12C6 13.1046 5.10457 14 4 14C2.89543 14 2 13.1046 2 12C2 10.8954 2.89543 10 4 10ZM10 12.5H18V11.5H10V12.5ZM17 2C17.5523 2 18 2.44772 18 3V6C18 6.55228 17.5523 7 17 7H9C8.44772 7 8 6.55228 8 6V3C8 2.44772 8.44772 2 9 2H17ZM4 2.5C5.10457 2.5 6 3.39543 6 4.5C6 5.60457 5.10457 6.5 4 6.5C2.89543 6.5 2 5.60457 2 4.5C2 3.39543 2.89543 2.5 4 2.5ZM10 5H16V4H10V5Z" fill="#9E9E9E"/>
</g>
</svg>
