<svg width="24" height="24" viewBox="0 0 24 24" fill="none" xmlns="http://www.w3.org/2000/svg">
<g id="icons/Edit/list-two">
<path id="Union" d="M4.5 16C6.15683 16 7.5 17.3432 7.5 19C7.5 20.6568 6.15683 22 4.5 22C2.84314 22 1.5 20.6568 1.5 19C1.5 17.3432 2.84314 16 4.5 16ZM4.5 18C3.94772 18 3.5 18.4477 3.5 19C3.5 19.5523 3.94772 20 4.5 20C5.05227 20 5.5 19.5523 5.5 19C5.5 18.4477 5.05227 18 4.5 18ZM21.5 18C22.0523 18 22.5 18.4477 22.5 19C22.5 19.5523 22.0523 20 21.5 20H10.5C9.94771 20 9.5 19.5523 9.5 19C9.5 18.4477 9.94771 18 10.5 18H21.5ZM4.5 9C6.15682 9 7.5 10.3431 7.5 12C7.5 13.6569 6.15682 15 4.5 15C2.84315 15 1.5 13.6569 1.5 12C1.5 10.3431 2.84315 9 4.5 9ZM4.5 11C3.94771 11 3.5 11.4477 3.5 12C3.5 12.5523 3.94771 13 4.5 13C5.05228 13 5.5 12.5523 5.5 12C5.5 11.4477 5.05228 11 4.5 11ZM21.5 11C22.0523 11 22.5 11.4477 22.5 12C22.5 12.5523 22.0523 13 21.5 13H10.5C9.94771 13 9.5 12.5523 9.5 12C9.5 11.4477 9.94771 11 10.5 11H21.5ZM4.5 2C6.15683 2 7.5 3.34314 7.5 5C7.5 6.6569 6.15682 8 4.5 8C2.84315 8 1.5 6.65689 1.5 5C1.5 3.34315 2.84315 2 4.5 2ZM4.5 4C3.94771 4 3.5 4.44771 3.5 5C3.5 5.55231 3.94771 6 4.5 6C5.05228 6 5.5 5.5523 5.5 5C5.5 4.44772 5.05227 4 4.5 4ZM21.5 4C22.0523 4 22.5 4.44772 22.5 5C22.5 5.55228 22.0523 6 21.5 6H10.5C9.94771 6 9.5 5.55228 9.5 5C9.5 4.44772 9.94771 4 10.5 4H21.5Z" fill="#9E9E9E"/>
</g>
</svg>
