<svg width="24" height="24" viewBox="0 0 24 24" fill="none" xmlns="http://www.w3.org/2000/svg">
<g id="icons/Edit/list-top">
<path id="Union" d="M4 17C5.10456 17 6 17.8954 6 19C6 20.1046 5.10456 21 4 21C2.89544 21 2 20.1046 2 19C2 17.8954 2.89544 17 4 17ZM22 18C22.5523 18 23 18.4477 23 19C23 19.5523 22.5523 20 22 20H10C9.44771 20 9 19.5523 9 19C9 18.4477 9.44771 18 10 18H22ZM4 10C5.10456 10 6 10.8954 6 12C6 13.1046 5.10456 14 4 14C2.89544 14 2 13.1046 2 12C2 10.8954 2.89544 10 4 10ZM22 11C22.5523 11 23 11.4477 23 12C23 12.5523 22.5523 13 22 13H10C9.44771 13 9 12.5523 9 12C9 11.4477 9.44771 11 10 11H22ZM4 2C5.65683 2 7 3.34314 7 5C7 6.65683 5.65683 8 4 8C2.34314 8 1 6.65683 1 5C1 3.34315 2.34315 2 4 2ZM4 4C3.44771 4 3 4.44771 3 5C3 5.55227 3.44772 6 4 6C4.55227 6 5 5.55227 5 5C5 4.44772 4.55227 4 4 4ZM22 4C22.5523 4 23 4.44772 23 5C23 5.55228 22.5523 6 22 6H10C9.44771 6 9 5.55228 9 5C9 4.44772 9.44771 4 10 4H22Z" fill="#9E9E9E"/>
</g>
</svg>
