<svg width="24" height="24" viewBox="0 0 24 24" fill="none" xmlns="http://www.w3.org/2000/svg">
<g id="icons/Edit/list-numbers">
<path id="Union" d="M6 13.5C6.55228 13.5 7 13.9477 7 14.5V16C7 16.2652 6.89457 16.5195 6.70703 16.707L4.91406 18.5H6C6.55228 18.5 7 18.9477 7 19.5C7 20.0523 6.55228 20.5 6 20.5H3C2.44772 20.5 2 20.0523 2 19.5V19C2 18.7348 2.10543 18.4805 2.29297 18.293L5 15.5859V15.5H3C2.44772 15.5 2 15.0523 2 14.5C2 13.9477 2.44772 13.5 3 13.5H6ZM21 18.5C21.5523 18.5 22 18.9477 22 19.5C22 20.0523 21.5523 20.5 21 20.5H10C9.44772 20.5 9 20.0523 9 19.5C9 18.9477 9.44772 18.5 10 18.5H21ZM21 13.5C21.5523 13.5 22 13.9477 22 14.5C22 15.0523 21.5523 15.5 21 15.5H10C9.44772 15.5 9 15.0523 9 14.5C9 13.9477 9.44772 13.5 10 13.5H21ZM3.79297 3.79297C4.07897 3.50697 4.50914 3.42139 4.88281 3.57617C5.25641 3.73098 5.5 4.09558 5.5 4.5V8.5C6.05228 8.5 6.5 8.94772 6.5 9.5C6.5 10.0523 6.05228 10.5 5.5 10.5H3.5C2.94772 10.5 2.5 10.0523 2.5 9.5C2.5 8.94772 2.94772 8.5 3.5 8.5V6.5C3.24408 6.5 2.98823 6.40229 2.79297 6.20703C2.40244 5.81651 2.40244 5.18349 2.79297 4.79297L3.79297 3.79297ZM21 8.5C21.5523 8.5 22 8.94772 22 9.5C22 10.0523 21.5523 10.5 21 10.5H10C9.44772 10.5 9 10.0523 9 9.5C9 8.94772 9.44772 8.5 10 8.5H21ZM21 3.5C21.5523 3.5 22 3.94772 22 4.5C22 5.05228 21.5523 5.5 21 5.5H10C9.44772 5.5 9 5.05228 9 4.5C9 3.94772 9.44772 3.5 10 3.5H21Z" fill="#9E9E9E"/>
</g>
</svg>
