<svg width="24" height="24" viewBox="0 0 24 24" fill="none" xmlns="http://www.w3.org/2000/svg">
<g id="icons/Edit/list-checkbox">
<path id="Union" d="M6 16C6.55228 16 7 16.4477 7 17V21C7 21.5523 6.55228 22 6 22H2C1.44772 22 1 21.5523 1 21V17C1 16.4477 1.44772 16 2 16H6ZM3 20H5V18H3V20ZM22 18C22.5523 18 23 18.4477 23 19C23 19.5523 22.5523 20 22 20H10C9.44771 20 9 19.5523 9 19C9 18.4477 9.44771 18 10 18H22ZM6 9C6.55228 9 7 9.44772 7 10V14C7 14.5523 6.55228 15 6 15H2C1.44772 15 1 14.5523 1 14V10C1 9.44772 1.44772 9 2 9H6ZM3 13H5V11H3V13ZM22 11C22.5523 11 23 11.4477 23 12C23 12.5523 22.5523 13 22 13H10C9.44771 13 9 12.5523 9 12C9 11.4477 9.44771 11 10 11H22ZM6 2C6.55228 2 7 2.44772 7 3V7C7 7.55228 6.55228 8 6 8H2C1.44772 8 1 7.55228 1 7V3C1 2.44772 1.44772 2 2 2H6ZM3 6H5V4H3V6ZM22 4C22.5523 4 23 4.44772 23 5C23 5.55228 22.5523 6 22 6H10C9.44771 6 9 5.55228 9 5C9 4.44772 9.44771 4 10 4H22Z" fill="#9E9E9E"/>
</g>
</svg>
