<svg width="24" height="24" viewBox="0 0 24 24" fill="none" xmlns="http://www.w3.org/2000/svg">
<g id="icons/Edit/list-alphabet">
<path id="Union" d="M5.99988 13.5C6.35998 13.5 6.69243 13.6936 6.87 14.0068C7.0475 14.3203 7.04266 14.7057 6.8573 15.0146L4.76648 18.5H5.99988C6.55216 18.5 6.99988 18.9477 6.99988 19.5C6.99988 20.0523 6.55216 20.5 5.99988 20.5H2.99988C2.63981 20.4999 2.3073 20.3064 2.12976 19.9932C1.95231 19.6797 1.95715 19.2942 2.14246 18.9854L4.23328 15.5H2.99988C2.44766 15.4999 1.99988 15.0522 1.99988 14.5C1.99988 13.9478 2.44766 13.5001 2.99988 13.5H5.99988ZM20.9999 18.5C21.5522 18.5 21.9999 18.9477 21.9999 19.5C21.9999 20.0523 21.5522 20.5 20.9999 20.5H9.99988C9.44766 20.4999 8.99988 20.0522 8.99988 19.5C8.99988 18.9478 9.44766 18.5001 9.99988 18.5H20.9999ZM20.9999 13.5C21.5522 13.5 21.9999 13.9477 21.9999 14.5C21.9999 15.0523 21.5522 15.5 20.9999 15.5H9.99988C9.44766 15.4999 8.99988 15.0522 8.99988 14.5C8.99988 13.9478 9.44766 13.5001 9.99988 13.5H20.9999ZM5.59558 3.50488C6.0661 3.54972 6.44704 3.92135 6.495 4.40039L6.8446 7.90039L6.995 9.40039C7.04995 9.9499 6.64898 10.4401 6.09949 10.4951C5.55002 10.55 5.05973 10.1491 5.00476 9.59961L4.94421 9H4.05554L3.995 9.59961C3.94001 10.1491 3.44979 10.5501 2.90027 10.4951C2.35086 10.44 1.94982 9.94984 2.00476 9.40039L2.15515 7.90039L2.50476 4.40039L2.51843 4.30664C2.60949 3.84246 3.01814 3.50009 3.49988 3.5H5.49988L5.59558 3.50488ZM20.9999 8.5C21.5522 8.5 21.9999 8.94772 21.9999 9.5C21.9999 10.0523 21.5522 10.5 20.9999 10.5H9.99988C9.44766 10.4999 8.99988 10.0522 8.99988 9.5C8.99988 8.94777 9.44766 8.50008 9.99988 8.5H20.9999ZM20.9999 3.5C21.5522 3.5 21.9999 3.94772 21.9999 4.5C21.9999 5.05228 21.5522 5.5 20.9999 5.5H9.99988C9.44766 5.49992 8.99988 5.05223 8.99988 4.5C8.99988 3.94777 9.44766 3.50008 9.99988 3.5H20.9999Z" fill="#9E9E9E"/>
</g>
</svg>
