<svg width="24" height="24" viewBox="0 0 24 24" fill="none" xmlns="http://www.w3.org/2000/svg">
<g id="icons/Edit/list-success">
<path id="Union" d="M4 16C5.65685 16 7 17.3431 7 19C6.99996 20.6568 5.65683 22 4 22C2.34317 22 1.00004 20.6568 1 19C1 17.3431 2.34315 16 4 16ZM4 18C3.44772 18 3 18.4477 3 19C3.00004 19.5522 3.44774 20 4 20C4.55226 20 4.99996 19.5522 5 19C5 18.4477 4.55228 18 4 18ZM22 18C22.5523 18 23 18.4477 23 19C23 19.5522 22.5523 20 22 20H10C9.44774 20 9.00004 19.5522 9 19C9 18.4477 9.44771 18 10 18H22ZM4 9C5.65685 9 7 10.3431 7 12C6.99996 13.6568 5.65683 15 4 15C2.34317 15 1.00004 13.6568 1 12C1 10.3431 2.34315 9 4 9ZM4 11C3.44772 11 3 11.4477 3 12C3.00004 12.5522 3.44774 13 4 13C4.55226 13 4.99996 12.5522 5 12C5 11.4477 4.55228 11 4 11ZM22 11C22.5523 11 23 11.4477 23 12C23 12.5522 22.5523 13 22 13H10C9.44774 13 9.00004 12.5522 9 12C9 11.4477 9.44771 11 10 11H22ZM5.79297 2.79297C6.18349 2.40244 6.81651 2.40244 7.20703 2.79297C7.59752 3.1835 7.59754 3.81652 7.20703 4.20703L4.20703 7.20703C3.81652 7.59751 3.18348 7.59751 2.79297 7.20703L1.29297 5.70703C0.902457 5.31652 0.902482 4.6835 1.29297 4.29297C1.68349 3.90244 2.31651 3.90244 2.70703 4.29297L3.5 5.08594L5.79297 2.79297ZM22 4C22.5523 4 23 4.44772 23 5C23 5.55225 22.5523 6 22 6H10C9.44774 6 9.00004 5.55225 9 5C9 4.44772 9.44771 4 10 4H22Z" fill="#9E9E9E"/>
</g>
</svg>
