<svg width="24" height="24" viewBox="0 0 24 24" fill="none" xmlns="http://www.w3.org/2000/svg">
<g id="icons/Edit/list">
<path id="Union" d="M6.29309 16.793C6.68362 16.4024 7.31663 16.4024 7.70715 16.793C8.0976 17.1835 8.09765 17.8165 7.70715 18.207L4.70715 21.207C4.31665 21.5975 3.68362 21.5975 3.29309 21.207L1.79309 19.707C1.40257 19.3165 1.40257 18.6835 1.79309 18.293C2.18362 17.9024 2.81663 17.9024 3.20715 18.293L4.00012 19.0859L6.29309 16.793ZM21.5001 18C22.0524 18 22.5001 18.4477 22.5001 19C22.5001 19.5522 22.0523 20 21.5001 20H10.5001C9.94786 20 9.50016 19.5522 9.50012 19C9.50012 18.4477 9.94784 18 10.5001 18H21.5001ZM6.29309 9.79297C6.68362 9.40244 7.31663 9.40244 7.70715 9.79297C8.0976 10.1835 8.09765 10.8165 7.70715 11.207L4.70715 14.207C4.31665 14.5975 3.68362 14.5975 3.29309 14.207L1.79309 12.707C1.40257 12.3165 1.40257 11.6835 1.79309 11.293C2.18362 10.9024 2.81663 10.9024 3.20715 11.293L4.00012 12.0859L6.29309 9.79297ZM21.5001 11C22.0524 11 22.5001 11.4477 22.5001 12C22.5001 12.5522 22.0523 13 21.5001 13H10.5001C9.94786 13 9.50016 12.5522 9.50012 12C9.50012 11.4477 9.94784 11 10.5001 11H21.5001ZM6.29309 2.79297C6.68362 2.40244 7.31663 2.40244 7.70715 2.79297C8.0976 3.1835 8.09765 3.81653 7.70715 4.20703L4.70715 7.20703C4.31665 7.59753 3.68362 7.59748 3.29309 7.20703L1.79309 5.70703C1.40257 5.31651 1.40257 4.68349 1.79309 4.29297C2.18362 3.90244 2.81663 3.90244 3.20715 4.29297L4.00012 5.08594L6.29309 2.79297ZM21.5001 4C22.0524 4.00004 22.5001 4.44774 22.5001 5C22.5001 5.55222 22.0523 5.99996 21.5001 6H10.5001C9.94786 6 9.50016 5.55225 9.50012 5C9.50012 4.44772 9.94784 4 10.5001 4H21.5001Z" fill="#9E9E9E"/>
</g>
</svg>
