<svg width="24" height="24" viewBox="0 0 24 24" fill="none" xmlns="http://www.w3.org/2000/svg">
<g id="icons/Edit/list-middle">
<path id="Union" d="M4 17C5.10456 17 6 17.8954 6 19C6 20.1046 5.10456 21 4 21C2.89544 21 2 20.1046 2 19C2 17.8954 2.89544 17 4 17ZM22 18C22.5523 18 23 18.4477 23 19C23 19.5523 22.5523 20 22 20H10C9.44771 20 9 19.5523 9 19C9 18.4477 9.44771 18 10 18H22ZM4 9C5.65683 9 7 10.3432 7 12C7 13.6568 5.65683 15 4 15C2.34314 15 1 13.6568 1 12C1 10.3432 2.34314 9 4 9ZM4 11C3.44772 11 3 11.4477 3 12C3 12.5523 3.44772 13 4 13C4.55227 13 5 12.5523 5 12C5 11.4477 4.55227 11 4 11ZM22 11C22.5523 11 23 11.4477 23 12C23 12.5523 22.5523 13 22 13H10C9.44771 13 9 12.5523 9 12C9 11.4477 9.44771 11 10 11H22ZM4 3C5.10457 3 6 3.89543 6 5C6 6.10459 5.10456 7 4 7C2.89544 7 2 6.10459 2 5C2 3.89543 2.89543 3 4 3ZM22 4C22.5523 4 23 4.44772 23 5C23 5.55228 22.5523 6 22 6H10C9.44771 6 9 5.55228 9 5C9 4.44772 9.44771 4 10 4H22Z" fill="#9E9E9E"/>
</g>
</svg>
