<svg width="24" height="24" viewBox="0 0 24 24" fill="none" xmlns="http://www.w3.org/2000/svg">
<g id="icons/Edit/list-bottom">
<path id="Union" d="M4 16C5.65683 16 7 17.3432 7 19C7 20.6568 5.65683 22 4 22C2.34314 22 1 20.6568 1 19C1 17.3432 2.34314 16 4 16ZM4 18C3.44772 18 3 18.4477 3 19C3 19.5523 3.44772 20 4 20C4.55227 20 5 19.5523 5 19C5 18.4477 4.55227 18 4 18ZM22 18C22.5523 18 23 18.4477 23 19C23 19.5523 22.5523 20 22 20H10C9.44771 20 9 19.5523 9 19C9 18.4477 9.44771 18 10 18H22ZM4 10C5.10456 10 6 10.8954 6 12C6 13.1046 5.10456 14 4 14C2.89544 14 2 13.1046 2 12C2 10.8954 2.89544 10 4 10ZM22 11C22.5523 11 23 11.4477 23 12C23 12.5523 22.5523 13 22 13H10C9.44771 13 9 12.5523 9 12C9 11.4477 9.44771 11 10 11H22ZM4 3C5.10457 3 6 3.89543 6 5C6 6.10459 5.10456 7 4 7C2.89544 7 2 6.10459 2 5C2 3.89543 2.89543 3 4 3ZM22 4C22.5523 4 23 4.44772 23 5C23 5.55228 22.5523 6 22 6H10C9.44771 6 9 5.55228 9 5C9 4.44772 9.44771 4 10 4H22Z" fill="#9E9E9E"/>
</g>
</svg>
