<svg width="24" height="24" viewBox="0 0 24 24" fill="none" xmlns="http://www.w3.org/2000/svg">
<g id="icons/Edit/lock">
<path id="Union" d="M12 1C15.3137 1 18 3.68629 18 7V10H20C21.1046 10 22 10.8954 22 12V21C22 22.1046 21.1046 23 20 23H4C2.89543 23 2 22.1046 2 21V12C2 10.8954 2.89543 10 4 10H6V7C6 3.68629 8.68632 1 12 1ZM4 21H20V12H4V21ZM12 14C12.5523 14 13 14.4477 13 15V18C13 18.5523 12.5523 19 12 19C11.4477 19 11 18.5523 11 18V15C11 14.4477 11.4477 14 12 14ZM12 3C9.79088 3 8 4.79086 8 7V10H16V7C16 4.79086 14.2091 3 12 3Z" fill="#9E9E9E"/>
</g>
</svg>
