<svg width="24" height="24" viewBox="0 0 24 24" fill="none" xmlns="http://www.w3.org/2000/svg">
<g id="icons/Edit/magic-wand">
<path id="Union" d="M12 1C18.0751 1 23 5.92487 23 12C23 18.0751 18.0751 23 12 23C9.66618 23 7.49911 22.2725 5.71777 21.0312C4.64692 20.285 3.71495 19.3531 2.96875 18.2822C1.72755 16.5009 1 14.3338 1 12C1 5.92487 5.92487 1 12 1ZM12 3C7.02943 3 3 7.02943 3 12C3 13.4775 3.35639 14.8697 3.98633 16.0986L7.29297 12.793L9.29297 10.793L9.36914 10.7246C9.76191 10.4043 10.3409 10.4269 10.707 10.793L13.207 13.293C13.5976 13.6835 13.5976 14.3165 13.207 14.707L11.207 16.707L7.90039 20.0127C9.12959 20.643 10.522 21 12 21C16.9706 21 21 16.9706 21 12C21 7.02943 16.9706 3 12 3ZM5.11621 17.7969C5.44674 18.1889 5.81014 18.5522 6.20215 18.8828L9.08594 16L8 14.9141L5.11621 17.7969ZM17 12.5C17.5523 12.5 18 12.9477 18 13.5C18.5523 13.5 19 13.9477 19 14.5C19 15.0523 18.5523 15.5 18 15.5C18 16.0523 17.5523 16.5 17 16.5C16.4477 16.5 16 16.0523 16 15.5C15.4477 15.5 15 15.0523 15 14.5C15 13.9477 15.4477 13.5 16 13.5C16 12.9477 16.4477 12.5 17 12.5ZM9.41406 13.5L10.5 14.5859L11.0859 14L10 12.9141L9.41406 13.5ZM15.5 6C16.0523 6 16.5 6.44772 16.5 7V7.5H17C17.5523 7.5 18 7.94772 18 8.5C18 9.05229 17.5523 9.5 17 9.5H16.5V10C16.5 10.5523 16.0523 11 15.5 11C14.9477 11 14.5 10.5523 14.5 10V9.5H14C13.4477 9.5 13 9.05229 13 8.5C13 7.94772 13.4477 7.5 14 7.5H14.5V7C14.5 6.44772 14.9477 6 15.5 6ZM9.5 5C10.0523 5 10.5 5.44772 10.5 6C11.0523 6 11.5 6.44772 11.5 7C11.5 7.55228 11.0523 8 10.5 8C10.5 8.55228 10.0523 9 9.5 9C8.94772 9 8.5 8.55228 8.5 8C7.94772 8 7.5 7.55228 7.5 7C7.5 6.44772 7.94772 6 8.5 6C8.5 5.44772 8.94772 5 9.5 5Z" fill="#9E9E9E"/>
</g>
</svg>
