<svg width="24" height="24" viewBox="0 0 24 24" fill="none" xmlns="http://www.w3.org/2000/svg">
<g id="icons/Edit/many-to-many">
<path id="Union" d="M21 2.5C22.1046 2.5 23 3.39544 23 4.5V19.5C23 20.6046 22.1046 21.5 21 21.5H3C1.89544 21.5 1 20.6046 1 19.5V4.5C1 3.39543 1.89543 2.5 3 2.5H21ZM3 19.5H21V4.5H3V19.5ZM9 8C9.55229 8 10 8.44772 10 9V15C10 15.4406 9.71166 15.8293 9.29004 15.957C8.86828 16.0847 8.41241 15.9213 8.16797 15.5547L6 12.3027V15C6 15.5523 5.55228 16 5 16C4.44772 16 4 15.5523 4 15V9C4 8.55942 4.28834 8.17074 4.70996 8.04297C5.13172 7.91527 5.58759 8.07866 5.83203 8.44531L8 11.6973V9C8 8.44772 8.44772 8 9 8ZM19 8C19.5523 8 20 8.44772 20 9V15C20 15.4406 19.7117 15.8293 19.29 15.957C18.8683 16.0847 18.4124 15.9213 18.168 15.5547L16 12.3027V15C16 15.5523 15.5523 16 15 16C14.4477 16 14 15.5523 14 15V9C14 8.55942 14.2883 8.17074 14.71 8.04297C15.1317 7.91527 15.5876 8.07866 15.832 8.44531L18 11.6973V9C18 8.44772 18.4477 8 19 8ZM12 12.5C12.5523 12.5 13 12.9477 13 13.5V14C13 14.5523 12.5523 15 12 15C11.4477 15 11 14.5523 11 14V13.5C11 12.9477 11.4477 12.5 12 12.5ZM12 9C12.5523 9 13 9.44772 13 10V10.5C13 11.0523 12.5523 11.5 12 11.5C11.4477 11.5 11 11.0523 11 10.5V10C11 9.44772 11.4477 9 12 9Z" fill="#9E9E9E"/>
</g>
</svg>
