<svg width="24" height="24" viewBox="0 0 24 24" fill="none" xmlns="http://www.w3.org/2000/svg">
<g id="icons/Edit/mask-two">
<path id="Union" d="M12 1C13.3425 1 14.6289 1.24039 15.8184 1.68066C15.844 1.68929 15.8687 1.70029 15.8936 1.71094C20.0466 3.28337 23 7.296 23 12C23 18.0751 18.0751 23 12 23C5.92487 23 1 18.0751 1 12C1 5.92487 5.92487 1 12 1ZM12 3C7.02944 3 3 7.02944 3 12C3 16.9706 7.02944 21 12 21C12.2155 21 12.4289 20.9885 12.6406 20.9736C12.5762 20.9279 12.5126 20.8811 12.4492 20.834C12.4175 20.8131 12.3869 20.7904 12.3574 20.7656C9.7111 18.7572 8 15.579 8 11.999C8.00001 11.7406 8.00981 11.4844 8.02734 11.2305C7.97589 11.0132 7.99939 10.7857 8.09082 10.585C8.49105 7.46737 10.1958 4.7593 12.6396 3.02441C12.4283 3.00957 12.2151 3 12 3ZM14.7949 19.957C15.0247 20.0787 15.26 20.1912 15.501 20.293C17.3537 19.5099 18.8881 18.1236 19.8613 16.3809L14.7949 19.957ZM12.1885 17.8789C12.4538 18.186 12.7389 18.4754 13.043 18.7441L20.9189 13.1846C20.97 12.7968 21 12.4017 21 12C21 11.8635 20.9953 11.7278 20.9893 11.5928L12.1885 17.8789ZM10.5186 15.0146C10.6681 15.4354 10.8489 15.8412 11.0566 16.2305L20.6172 9.40137C20.5124 9.05332 20.3866 8.71461 20.2422 8.38574L10.5186 15.0146ZM10.0137 11.5166C10.0052 11.6764 10 11.8372 10 11.999C10 12.3086 10.0164 12.6145 10.0469 12.916L19.2363 6.65039C18.9982 6.32878 18.7389 6.02404 18.4609 5.7373L10.0137 11.5166ZM15.499 3.70508C13.2869 4.64003 11.5282 6.43417 10.6377 8.66797L16.8477 4.41797C16.421 4.1446 15.9708 3.90435 15.499 3.70508Z" fill="#9E9E9E"/>
</g>
</svg>
