<svg width="24" height="24" viewBox="0 0 24 24" fill="none" xmlns="http://www.w3.org/2000/svg">
<g id="icons/Edit/merge-cells">
<path id="Union" d="M9.5 1C10.3284 1 11 1.67159 11 2.5V7C11 7.55228 10.5523 8 10 8C9.44771 8 9 7.55228 9 7V3H3V11H7.63672L6.98047 10.3438C6.58994 9.95323 6.58994 9.32021 6.98047 8.92969C7.37099 8.53916 8.00401 8.53916 8.39453 8.92969L10.7812 11.3164C10.9686 11.5039 11.0742 11.7583 11.0742 12.0234C11.0742 12.2886 10.9687 12.543 10.7812 12.7305L8.39453 15.1172C8.00406 15.5074 7.37094 15.5074 6.98047 15.1172C6.58994 14.7267 6.58994 14.0927 6.98047 13.7021L7.68359 13H3V21H9V17C9 16.4477 9.44771 16 10 16C10.5523 16 11 16.4477 11 17V21.5C11 22.3284 10.3284 23 9.5 23H2.5C1.67159 23 1 22.3284 1 21.5V2.5C1 1.67158 1.67158 1 2.5 1H9.5ZM21.5 1C22.3284 1 23 1.67159 23 2.5V21.5C23 22.3284 22.3284 23 21.5 23H14.5C13.6716 23 13 22.3284 13 21.5V17C13 16.4477 13.4477 16 14 16C14.5523 16 15 16.4477 15 17V21H21V13H16.3789L17.082 13.7021C17.4726 14.0927 17.4726 14.7267 17.082 15.1172C16.6916 15.5075 16.0585 15.5073 15.668 15.1172L13.2812 12.7305C12.9796 12.4288 12.9118 11.9828 13.0762 11.6152C13.0792 11.608 13.0827 11.6009 13.0859 11.5938C13.0934 11.5782 13.1001 11.5622 13.1084 11.5469C13.1749 11.4163 13.2694 11.3025 13.3838 11.2129L15.668 8.92969C16.0585 8.5393 16.6916 8.53921 17.082 8.92969C17.4724 9.32018 17.4724 9.95326 17.082 10.3438L16.4258 11H21V3H15V7C15 7.55228 14.5523 8 14 8C13.4477 8 13 7.55228 13 7V2.5C13 1.67159 13.6716 1 14.5 1H21.5Z" fill="#9E9E9E"/>
</g>
</svg>
