<svg width="24" height="24" viewBox="0 0 24 24" fill="none" xmlns="http://www.w3.org/2000/svg">
<g id="icons/Edit/merge">
<path id="Union" d="M13.6565 4.92969C14.4375 4.14864 15.7045 4.14864 16.4856 4.92969L22.1418 10.5869C22.9228 11.368 22.9229 12.634 22.1418 13.415L16.4856 19.0713C15.7045 19.8523 14.4375 19.8523 13.6565 19.0713L12.7776 18.1924L11.1926 19.7793C10.4116 20.5602 9.14453 20.5603 8.36353 19.7793L2.00024 13.415C1.21924 12.634 1.21933 11.368 2.00024 10.5869L7.65649 4.92969C8.43754 4.14864 9.70455 4.14864 10.4856 4.92969L12.0706 6.51465L13.6565 4.92969ZM3.41431 12.001L9.77856 18.3643L11.3635 16.7783L8.00024 13.415C7.21924 12.634 7.21933 11.368 8.00024 10.5869L10.6565 7.92871L9.07153 6.34375L3.41431 12.001ZM13.4846 7.92969L16.8489 11.2939C17.6299 12.075 17.6299 13.341 16.8489 14.1221L14.1926 16.7783L15.0715 17.6572L20.7278 12.001L15.0715 6.34375L13.4846 7.92969ZM9.41431 12.001L12.7776 15.3643L15.4348 12.708L12.0706 9.34375L9.41431 12.001Z" fill="#9E9E9E"/>
</g>
</svg>
