<svg width="24" height="24" viewBox="0 0 24 24" fill="none" xmlns="http://www.w3.org/2000/svg">
<g id="icons/Edit/mindmap-map">
<path id="Union" d="M8.68359 4.05176C9.20744 3.87714 9.77348 4.15984 9.94824 4.68359C10.1229 5.20744 9.84016 5.77348 9.31641 5.94824C8.93863 6.07417 8.67457 6.35037 8.45996 6.88672C8.23002 7.46158 8.11858 8.1804 7.98828 9.02734C7.89453 9.63675 7.78419 10.3576 7.56348 11H9C9.55228 11 10 11.4477 10 12C10 12.5523 9.55228 13 9 13H7.56348C7.78419 13.6424 7.89453 14.3632 7.98828 14.9727C8.11858 15.8196 8.23002 16.5384 8.45996 17.1133C8.67457 17.6496 8.93863 17.9258 9.31641 18.0518C9.84016 18.2265 10.1229 18.7926 9.94824 19.3164C9.77348 19.8402 9.20744 20.1229 8.68359 19.9482C7.56164 19.5741 6.95038 18.7251 6.60254 17.8555C6.27012 17.0243 6.13139 16.0552 6.01172 15.2773C5.87996 14.4209 5.77099 13.8051 5.56934 13.3906C5.47934 13.2057 5.39779 13.1212 5.33887 13.0801C5.28981 13.0459 5.19845 13 5 13H3C2.44772 13 2 12.5523 2 12C2 11.4477 2.44772 11 3 11H5C5.19845 11 5.28981 10.9541 5.33887 10.9199C5.39779 10.8788 5.47934 10.7943 5.56934 10.6094C5.77099 10.1949 5.87996 9.57909 6.01172 8.72266C6.13139 7.94475 6.27012 6.97574 6.60254 6.14453C6.95038 5.27493 7.56164 4.42586 8.68359 4.05176ZM21 18C21.5523 18 22 18.4477 22 19C22 19.5523 21.5523 20 21 20H13C12.4477 20 12 19.5523 12 19C12 18.4477 12.4477 18 13 18H21ZM21 11C21.5523 11 22 11.4477 22 12C22 12.5523 21.5523 13 21 13H13C12.4477 13 12 12.5523 12 12C12 11.4477 12.4477 11 13 11H21ZM21 4C21.5523 4 22 4.44772 22 5C22 5.55228 21.5523 6 21 6H13C12.4477 6 12 5.55228 12 5C12 4.44772 12.4477 4 13 4H21Z" fill="#9E9E9E"/>
</g>
</svg>
