<svg width="24" height="24" viewBox="0 0 24 24" fill="none" xmlns="http://www.w3.org/2000/svg">
<g id="icons/Edit/mind-mapping">
<path id="Union" d="M21 19C22.1046 19 23 19.8954 23 21C23 22.1046 22.1046 23 21 23C19.8954 23 19 22.1046 19 21C19 19.8954 19.8954 19 21 19ZM16 2C16.5523 2 17 2.44772 17 3C17 3.55228 16.5523 4 16 4H11V11H16C16.5523 11 17 11.4477 17 12C17 12.5523 16.5523 13 16 13H11V20H16C16.5523 20 17 20.4477 17 21C17 21.5523 16.5523 22 16 22H10C9.44771 22 9 21.5523 9 21V13H6.82617C6.41405 14.1647 5.30583 15 4 15C2.34314 15 1 13.6568 1 12C1 10.3432 2.34314 9 4 9C5.30583 9 6.41405 9.83533 6.82617 11H9V3C9 2.44772 9.44771 2 10 2H16ZM21 10C22.1046 10 23 10.8954 23 12C23 13.1046 22.1046 14 21 14C19.8954 14 19 13.1046 19 12C19 10.8954 19.8954 10 21 10ZM4 11C3.44772 11 3 11.4477 3 12C3 12.5523 3.44772 13 4 13C4.55227 13 5 12.5523 5 12C5 11.4477 4.55227 11 4 11ZM21 1C22.1046 1 23 1.89544 23 3C23 4.10456 22.1046 5 21 5C19.8954 5 19 4.10456 19 3C19 1.89544 19.8954 1 21 1Z" fill="#9E9E9E"/>
</g>
</svg>
