<svg width="24" height="24" viewBox="0 0 24 24" fill="none" xmlns="http://www.w3.org/2000/svg">
<g id="icons/Edit/modify-two">
<path id="Union" d="M21 3.5C22.1046 3.5 23 4.39543 23 5.5V18.5C23 19.6046 22.1046 20.5 21 20.5H3C1.89543 20.5 1 19.6046 1 18.5V5.5C1 4.39543 1.89543 3.5 3 3.5H21ZM3 18.5H7V5.5H3V18.5ZM9 18.5H21V5.5H9V18.5ZM17.793 7.79297C18.1835 7.40244 18.8165 7.40244 19.207 7.79297C19.5976 8.18349 19.5976 8.81651 19.207 9.20703L12.207 16.207C11.8165 16.5976 11.1835 16.5976 10.793 16.207C10.4024 15.8165 10.4024 15.1835 10.793 14.793L17.793 7.79297ZM16.793 13.793C17.1835 13.4024 17.8165 13.4024 18.207 13.793L19.207 14.793C19.5976 15.1835 19.5976 15.8165 19.207 16.207C18.8165 16.5976 18.1835 16.5976 17.793 16.207L16.793 15.207C16.4024 14.8165 16.4024 14.1835 16.793 13.793ZM10.793 7.79297C11.1835 7.40244 11.8165 7.40244 12.207 7.79297L13.207 8.79297C13.5976 9.18349 13.5976 9.81651 13.207 10.207C12.8165 10.5976 12.1835 10.5976 11.793 10.207L10.793 9.20703C10.4024 8.81651 10.4024 8.18349 10.793 7.79297Z" fill="#9E9E9E"/>
</g>
</svg>
