<svg width="24" height="24" viewBox="0 0 24 24" fill="none" xmlns="http://www.w3.org/2000/svg">
<g id="icons/Edit/modify">
<path id="Union" d="M15.8889 2.45312C16.67 1.67214 17.936 1.6721 18.717 2.45312L21.5452 5.28125C22.3262 6.06228 22.3262 7.32832 21.5452 8.10938L8.1106 21.5449C7.32955 22.326 6.06254 22.326 5.28149 21.5449L2.45337 18.7168C1.67232 17.9357 1.67232 16.6687 2.45337 15.8877L15.8889 2.45312ZM17.9993 13.7578C18.3898 13.3673 19.0238 13.3673 19.4143 13.7578L21.5354 15.8789C22.3162 16.6599 22.316 17.926 21.5354 18.707L18.7063 21.5361C17.9253 22.3167 16.6591 22.3169 15.8782 21.5361L13.7571 19.415C13.3666 19.0245 13.3666 18.3905 13.7571 18C14.1475 17.6098 14.7807 17.6098 15.1711 18L17.2922 20.1221L20.1213 17.293L17.9993 15.1719C17.6091 14.7814 17.6091 14.1483 17.9993 13.7578ZM3.86743 17.3018L6.69653 20.1309L20.1311 6.69531L17.303 3.86719L3.86743 17.3018ZM10.0002 13C10.5524 13.0001 11.0002 13.4478 11.0002 14C11.0001 14.5521 10.5524 14.9999 10.0002 15C9.44803 15 9.00036 14.5522 9.00024 14C9.00024 13.4477 9.44796 13 10.0002 13ZM12.0002 11C12.5524 11.0001 13.0002 11.4478 13.0002 12C13.0001 12.5521 12.5524 12.9999 12.0002 13C11.448 13 11.0004 12.5522 11.0002 12C11.0002 11.4477 11.448 11 12.0002 11ZM14.0002 9C14.5524 9.0001 15.0002 9.44778 15.0002 10C15.0001 10.5521 14.5524 10.9999 14.0002 11C13.448 11 13.0004 10.5522 13.0002 10C13.0002 9.44771 13.448 9 14.0002 9ZM5.79321 1.96484C6.57418 1.18382 7.84029 1.18394 8.62134 1.96484L10.7434 4.08594C11.1335 4.4764 11.1336 5.10956 10.7434 5.5C10.353 5.8904 9.71989 5.89019 9.32935 5.5L7.20728 3.37891L4.37915 6.20703L6.50024 8.3291C6.89048 8.71965 6.89067 9.35274 6.50024 9.74316C6.1098 10.1333 5.47664 10.1333 5.08618 9.74316L2.96509 7.62109C2.18419 6.84006 2.18409 5.57394 2.96509 4.79297L5.79321 1.96484Z" fill="#9E9E9E"/>
</g>
</svg>
