<svg width="24" height="24" viewBox="0 0 24 24" fill="none" xmlns="http://www.w3.org/2000/svg">
<g id="icons/Edit/more-four">
<path id="Union" d="M11.3282 14.2568C11.7186 13.8666 12.3518 13.8668 12.7423 14.2568L16.2784 17.793C16.6687 18.1835 16.6688 18.8166 16.2784 19.207L12.7423 22.7422C12.3518 23.1327 11.7188 23.1326 11.3282 22.7422L7.79309 19.207C7.40257 18.8165 7.40257 18.1835 7.79309 17.793L11.3282 14.2568ZM9.91418 18.5L12.0353 20.6211L14.1573 18.5L12.0353 16.3789L9.91418 18.5ZM4.82825 7.75684C5.21864 7.36656 5.85179 7.36676 6.24231 7.75684L9.77844 11.293C10.1687 11.6835 10.1688 12.3166 9.77844 12.707L6.24231 16.2422C5.85181 16.6327 5.21878 16.6326 4.82825 16.2422L1.29309 12.707C0.902567 12.3165 0.902567 11.6835 1.29309 11.293L4.82825 7.75684ZM17.8282 7.75684C18.2186 7.36656 18.8518 7.36676 19.2423 7.75684L22.7784 11.293C23.1687 11.6835 23.1688 12.3166 22.7784 12.707L19.2423 16.2422C18.8518 16.6327 18.2188 16.6326 17.8282 16.2422L14.2931 12.707C13.9026 12.3165 13.9026 11.6835 14.2931 11.293L17.8282 7.75684ZM3.41418 12L5.53528 14.1211L7.65735 12L5.53528 9.87891L3.41418 12ZM16.4142 12L18.5353 14.1211L20.6573 12L18.5353 9.87891L16.4142 12ZM11.3282 1.25684C11.7186 0.86656 12.3518 0.866761 12.7423 1.25684L16.2784 4.79297C16.6687 5.18348 16.6688 5.81659 16.2784 6.20703L12.7423 9.74219C12.3518 10.1327 11.7188 10.1326 11.3282 9.74219L7.79309 6.20703C7.40257 5.81651 7.40257 5.18349 7.79309 4.79297L11.3282 1.25684ZM9.91418 5.5L12.0353 7.62109L14.1573 5.5L12.0353 3.37891L9.91418 5.5Z" fill="#9E9E9E"/>
</g>
</svg>
