<svg width="24" height="24" viewBox="0 0 24 24" fill="none" xmlns="http://www.w3.org/2000/svg">
<g id="icons/Edit/move-in-one">
<path id="Union" d="M20 2C21.1046 2 22 2.89544 22 4V11C22 11.5523 21.5523 12 21 12C20.4477 12 20 11.5523 20 11V4H4V20H10.5C11.0523 20 11.5 20.4477 11.5 21C11.5 21.5523 11.0523 22 10.5 22H4C2.89544 22 2 21.1046 2 20V4C2 2.89543 2.89543 2 4 2H20ZM13.293 13.293C13.5294 13.0565 13.8684 12.954 14.1963 13.0195L21.1963 14.4189C21.5929 14.4983 21.903 14.8093 21.9814 15.2061C22.0598 15.6028 21.8912 16.0081 21.5547 16.2324L20.4697 16.9551L21.707 18.1934C22.0974 18.5839 22.0975 19.217 21.707 19.6074L19.6074 21.707C19.217 22.0975 18.5839 22.0974 18.1934 21.707L16.9551 20.4697L16.2324 21.5547C16.0081 21.8912 15.6028 22.0598 15.2061 21.9814C14.8093 21.903 14.4983 21.5929 14.4189 21.1963L13.0195 14.1963C12.954 13.8684 13.0565 13.5294 13.293 13.293ZM15.9072 18.4355L15.9678 18.3457L16.0352 18.2559C16.202 18.0577 16.4405 17.9312 16.7012 17.9053C16.9993 17.8758 17.295 17.9815 17.5068 18.1934L18.8994 19.5859L19.5859 18.8994L18.1934 17.5068C17.9815 17.295 17.8758 16.9993 17.9053 16.7012C17.9349 16.4032 18.0965 16.1339 18.3457 15.9678L18.4355 15.9072L15.2744 15.2744L15.9072 18.4355Z" fill="#9E9E9E"/>
</g>
</svg>
