<svg width="24" height="24" viewBox="0 0 24 24" fill="none" xmlns="http://www.w3.org/2000/svg">
<g id="icons/Edit/move-one">
<path id="Union" d="M3.42334 2.18359C3.73421 1.96415 4.14359 1.93954 4.47803 2.12109L21.978 11.6211C22.3625 11.8302 22.5663 12.2659 22.481 12.6953C22.3954 13.1246 22.0403 13.4481 21.605 13.4941L12.6069 14.4404L7.85986 22.5068C7.6458 22.8705 7.22565 23.061 6.81104 22.9824C6.39658 22.9036 6.07625 22.5729 6.01025 22.1562L3.01318 3.15625C2.95389 2.7804 3.11266 2.40322 3.42334 2.18359ZM7.55029 19.0879L11.1382 12.9932L11.2046 12.8945C11.3704 12.6766 11.6202 12.5349 11.896 12.5059L18.1929 11.8428L5.30322 4.84473L7.55029 19.0879Z" fill="#9E9E9E"/>
</g>
</svg>
