<svg width="24" height="24" viewBox="0 0 24 24" fill="none" xmlns="http://www.w3.org/2000/svg">
<g id="icons/Edit/multi-picture-carousel">
<path id="Union" d="M3 20C3.55228 20 4 20.4477 4 21C4 21.5523 3.55228 22 3 22H2C1.44772 22 1 21.5523 1 21C1 20.4477 1.44772 20 2 20H3ZM7 20C7.55228 20 8 20.4477 8 21C8 21.5523 7.55228 22 7 22H6C5.44772 22 5 21.5523 5 21C5 20.4477 5.44772 20 6 20H7ZM14 20C14.5523 20 15 20.4477 15 21C15 21.5523 14.5523 22 14 22H10C9.44771 22 9 21.5523 9 21C9 20.4477 9.44771 20 10 20H14ZM18 20C18.5523 20 19 20.4477 19 21C19 21.5523 18.5523 22 18 22H17C16.4477 22 16 21.5523 16 21C16 20.4477 16.4477 20 17 20H18ZM22 20C22.5523 20 23 20.4477 23 21C23 21.5523 22.5523 22 22 22H21C20.4477 22 20 21.5523 20 21C20 20.4477 20.4477 20 21 20H22ZM21 2C22.1046 2 23 2.89543 23 4V17C23 18.1046 22.1046 19 21 19H3C1.89543 19 1 18.1046 1 17V4C1 2.89543 1.89543 2 3 2H21ZM3 17H21V4H3V17Z" fill="#9E9E9E"/>
</g>
</svg>
