<svg width="24" height="24" viewBox="0 0 24 24" fill="none" xmlns="http://www.w3.org/2000/svg">
<g id="icons/Edit/natural-mode">
<path id="Union" d="M18.6288 13.1416C19.0833 13.1289 19.5932 13.2247 20.0165 13.5518L20.1923 13.707L20.3466 13.8828C20.6738 14.3062 20.7694 14.816 20.7567 15.2705C20.7422 15.787 20.5905 16.327 20.369 16.8438C19.9237 17.8828 19.1141 19.0273 18.0712 20.0703C17.028 21.1135 15.8828 21.9237 14.8436 22.3691C14.3269 22.5906 13.7868 22.7424 13.2704 22.7568C12.9323 22.7663 12.5645 22.7138 12.2235 22.5527C11.8102 22.8503 11.3237 22.9409 10.8866 22.9287C10.3702 22.9142 9.83006 22.7624 9.31335 22.541C8.27422 22.0956 7.12892 21.2862 6.08582 20.2432C5.04274 19.2 4.23336 18.0548 3.78796 17.0156C3.56652 16.4989 3.41376 15.9588 3.39929 15.4424C3.3848 14.923 3.51254 14.3312 3.96472 13.8789C4.41697 13.4267 5.00881 13.299 5.5282 13.3135C6.04459 13.3279 6.58474 13.4807 7.10144 13.7021C8.14059 14.1475 9.28585 14.9569 10.329 16C11.0052 16.6762 11.582 17.3963 12.0262 18.1016C12.4828 17.3418 13.0968 16.5593 13.828 15.8281C14.8712 14.7849 16.0163 13.9757 17.0555 13.5303C17.5724 13.3088 18.1123 13.156 18.6288 13.1416ZM5.40027 15.3145C5.39899 15.3335 5.3975 15.3576 5.39832 15.3867C5.40341 15.5663 5.46465 15.8491 5.62683 16.2275C5.94917 16.9796 6.59085 17.919 7.49988 18.8281C8.40916 19.7374 9.3493 20.3797 10.1014 20.7021C10.4799 20.8643 10.7627 20.9246 10.9423 20.9297C10.9704 20.9305 10.9938 20.928 11.0126 20.9268C11.0138 20.908 11.0163 20.8848 11.0155 20.8564C11.0105 20.6769 10.9502 20.3943 10.788 20.0156C10.4656 19.2635 9.82327 18.3234 8.91394 17.4141C8.00479 16.505 7.06537 15.8634 6.31335 15.541C5.93497 15.3789 5.65214 15.3176 5.47253 15.3125C5.4436 15.3117 5.41924 15.3132 5.40027 15.3145ZM18.6844 15.1406C18.5048 15.1457 18.2223 15.2069 17.8436 15.3691C17.0915 15.6915 16.1514 16.3328 15.2421 17.2422C14.3327 18.1515 13.6914 19.0916 13.369 19.8438C13.2067 20.2225 13.1455 20.505 13.1405 20.6846C13.1397 20.7129 13.1412 20.7361 13.1425 20.7549C13.1615 20.7562 13.1856 20.7586 13.2147 20.7578C13.3943 20.7527 13.6771 20.6925 14.0555 20.5303C14.8077 20.2079 15.7468 19.5656 16.6561 18.6562C17.5655 17.7469 18.2078 16.8078 18.5302 16.0557C18.6924 15.6771 18.7526 15.3945 18.7577 15.2148C18.7585 15.1857 18.756 15.1616 18.7548 15.1426C18.736 15.1414 18.7127 15.1398 18.6844 15.1406ZM11.9999 1.5C12.2965 1.5 12.5784 1.63155 12.7684 1.85938L14.6405 4.10645L16.3759 2.71875C16.676 2.47894 17.0872 2.43224 17.4335 2.59863C17.7799 2.76517 17.9999 3.11563 17.9999 3.5V8.5C17.9999 11.881 15.3809 14.5 11.9999 14.5C8.61287 14.4998 6.03559 11.8759 6.0321 8.50684L5.99988 3.50684C5.99737 3.12149 6.21673 2.76886 6.56335 2.60059C6.9103 2.43244 7.32379 2.47795 7.62488 2.71875L9.35925 4.10645L11.2323 1.85938L11.3075 1.7793C11.4926 1.60135 11.7403 1.50009 11.9999 1.5ZM10.2684 6.14062C9.91994 6.55852 9.30093 6.62092 8.87585 6.28125L8.01257 5.59082L8.0321 8.49316V8.5L8.03699 8.71289C8.139 10.8906 9.80313 12.4998 11.9999 12.5C14.2763 12.5 15.9999 10.7765 15.9999 8.5V5.58105L15.1249 6.28125C14.6999 6.62107 14.0809 6.55843 13.7323 6.14062L11.9999 4.06152L10.2684 6.14062Z" fill="#9E9E9E"/>
</g>
</svg>
