<svg width="24" height="24" viewBox="0 0 24 24" fill="none" xmlns="http://www.w3.org/2000/svg">
<g id="icons/Edit/next">
<path id="Union" d="M13.5642 2.57324C13.9408 2.42026 14.3732 2.51079 14.657 2.80176L22.7156 11.0752C23.0866 11.4561 23.0948 12.0605 22.7341 12.4512L14.6755 21.1787C14.3963 21.481 13.9602 21.5813 13.5769 21.4316C13.1936 21.2816 12.9402 20.9116 12.9402 20.5V16.0312C11.6066 15.9081 10.2031 15.999 8.72534 16.3125C7.1823 16.64 5.19598 18.0943 2.77319 21.0518C2.49361 21.393 2.02336 21.511 1.61597 21.3418C1.20884 21.1725 0.960258 20.7561 1.00464 20.3174C1.36666 16.7474 2.73936 13.724 5.13354 11.2979C7.30778 9.09455 9.9239 7.86784 12.9402 7.62891V3.5C12.9403 3.09331 13.1875 2.72646 13.5642 2.57324ZM14.9402 8.58398C14.9399 9.13282 14.4978 9.57844 13.949 9.58301C11.0387 9.60607 8.59256 10.6387 6.5564 12.7021C5.32181 13.9533 4.4007 15.3901 3.79175 17.0215C5.34324 15.5893 6.84877 14.6656 8.3103 14.3555C10.3162 13.9299 12.2499 13.8618 14.1023 14.165C14.5856 14.2442 14.94 14.6617 14.9402 15.1514V17.9424L20.6208 11.79L14.9402 5.95898V8.58398Z" fill="#9E9E9E"/>
</g>
</svg>
