<svg width="24" height="24" viewBox="0 0 24 24" fill="none" xmlns="http://www.w3.org/2000/svg">
<g id="icons/Edit/no-shooting">
<path id="Union" d="M15.1406 2.00977C15.4628 2.05546 15.7464 2.25641 15.8945 2.55273L17.1182 5H20.5C21.8146 5 23 6.01105 23 7.40039V19.5996C23 20.9889 21.8146 22 20.5 22H3.5C2.26742 22 1.14851 21.1115 1.01367 19.8555L1 19.5996V7.40039C1 6.01104 2.18539 5 3.5 5H6.88184L8.10547 2.55273L8.17676 2.43164C8.36169 2.16367 8.66854 2 9 2H15L15.1406 2.00977ZM3.5 7C3.15776 7 3 7.24334 3 7.40039V19.5996L3.00781 19.6621C3.04265 19.8138 3.20048 20 3.5 20H20.5C20.8423 20 21 19.7567 21 19.5996V7.40039C21 7.24333 20.8423 7 20.5 7H3.5ZM12 8.5C12.8052 8.5 13.5655 8.69117 14.2393 9.0293C14.3271 9.05101 14.4136 9.0847 14.4961 9.13184C14.5789 9.17918 14.6523 9.23672 14.7158 9.30176C16.0903 10.1928 17 11.74 17 13.5C17 16.2614 14.7614 18.5 12 18.5C11.1943 18.5 10.4338 18.3082 9.75977 17.9697C9.67229 17.948 9.58604 17.9151 9.50391 17.8682C9.42063 17.8206 9.34693 17.7627 9.2832 17.6973C7.90931 16.8061 7 15.2595 7 13.5C7 10.7386 9.23858 8.5 12 8.5ZM11.4648 16.4512C11.6386 16.4825 11.8173 16.5 12 16.5C13.6569 16.5 15 15.1569 15 13.5C15 12.7509 14.7235 12.0677 14.2695 11.542L11.4648 16.4512ZM12 10.5C10.3431 10.5 9 11.8431 9 13.5C9 14.2486 9.27608 14.9315 9.72949 15.457L12.5342 10.5479C12.3608 10.5167 12.1823 10.5 12 10.5ZM9.11816 5H14.8818L14.3818 4H9.61816L9.11816 5Z" fill="#9E9E9E"/>
</g>
</svg>
