<svg width="24" height="24" viewBox="0 0 24 24" fill="none" xmlns="http://www.w3.org/2000/svg">
<g id="icons/Edit/node-square">
<path id="Union" d="M21 2C21.5523 2 22 2.44772 22 3C22 3.55228 21.5523 4 21 4H12.4141L4 12.4141V21C4 21.5523 3.55228 22 3 22C2.44772 22 2 21.5523 2 21V12L2.00488 11.9014C2.02757 11.6724 2.12883 11.4571 2.29297 11.293L11.293 2.29297L11.3662 2.22656C11.5442 2.08073 11.7679 2 12 2H21ZM12 9.5C13.0249 9.5 13.9041 10.1174 14.29 11H21C21.5523 11 22 11.4477 22 12C22 12.5523 21.5523 13 21 13H14.29C14.0381 13.5762 13.5762 14.0381 13 14.29V21C13 21.5523 12.5523 22 12 22C11.4477 22 11 21.5523 11 21V14.29C10.1174 13.9041 9.5 13.0249 9.5 12C9.5 10.6193 10.6193 9.5 12 9.5ZM12 11.5C11.7239 11.5 11.5 11.7239 11.5 12C11.5 12.2761 11.7239 12.5 12 12.5C12.2761 12.5 12.5 12.2761 12.5 12C12.5 11.7239 12.2761 11.5 12 11.5Z" fill="#9E9E9E"/>
</g>
</svg>
