<svg width="24" height="24" viewBox="0 0 24 24" fill="none" xmlns="http://www.w3.org/2000/svg">
<g id="icons/Edit/one-to-one">
<path id="Union" d="M21 2.5C22.1046 2.5 23 3.39544 23 4.5V19.5C23 20.6046 22.1046 21.5 21 21.5H3C1.89544 21.5 1 20.6046 1 19.5V4.5C1 3.39543 1.89543 2.5 3 2.5H21ZM3 19.5H21V4.5H3V19.5ZM7.45801 8.15918C7.76561 7.9609 8.15715 7.94693 8.47852 8.12207C8.79993 8.29726 9 8.63394 9 9V15C9 15.5523 8.55228 16 8 16C7.44772 16 7 15.5523 7 15V10.834L6.54199 11.1299C6.07787 11.4292 5.45853 11.2962 5.15918 10.832C4.85997 10.3679 4.99394 9.74853 5.45801 9.44922L7.45801 8.15918ZM16.958 8.15918C17.2656 7.9609 17.6572 7.94693 17.9785 8.12207C18.2999 8.29726 18.5 8.63394 18.5 9V15C18.5 15.5523 18.0523 16 17.5 16C16.9477 16 16.5 15.5523 16.5 15V10.834L16.042 11.1299C15.5779 11.4292 14.9585 11.2962 14.6592 10.832C14.36 10.3679 14.4939 9.74853 14.958 9.44922L16.958 8.15918ZM12 12.5C12.5523 12.5 13 12.9477 13 13.5V14C13 14.5523 12.5523 15 12 15C11.4477 15 11 14.5523 11 14V13.5C11 12.9477 11.4477 12.5 12 12.5ZM12 9C12.5523 9 13 9.44772 13 10V10.5C13 11.0523 12.5523 11.5 12 11.5C11.4477 11.5 11 11.0523 11 10.5V10C11 9.44772 11.4477 9 12 9Z" fill="#9E9E9E"/>
</g>
</svg>
