<svg width="24" height="24" viewBox="0 0 24 24" fill="none" xmlns="http://www.w3.org/2000/svg">
<g id="icons/Edit/one-to-many">
<path id="Union" d="M21 2.5C22.1046 2.5 23 3.39544 23 4.5V19.5C23 20.6046 22.1046 21.5 21 21.5H3C1.89544 21.5 1 20.6046 1 19.5V4.5C1 3.39543 1.89543 2.5 3 2.5H21ZM3 19.5H21V4.5H3V19.5ZM6.95801 8.15918C7.26561 7.9609 7.65715 7.94693 7.97852 8.12207C8.29993 8.29726 8.5 8.63394 8.5 9V15C8.5 15.5523 8.05228 16 7.5 16C6.94772 16 6.5 15.5523 6.5 15V10.834L6.04199 11.1299C5.57787 11.4292 4.95853 11.2962 4.65918 10.832C4.35997 10.3679 4.49394 9.74853 4.95801 9.44922L6.95801 8.15918ZM18.5 8C19.0523 8 19.5 8.44772 19.5 9V15C19.5 15.4406 19.2117 15.8293 18.79 15.957C18.3683 16.0847 17.9124 15.9213 17.668 15.5547L15.5 12.3027V15C15.5 15.5523 15.0523 16 14.5 16C13.9477 16 13.5 15.5523 13.5 15V9C13.5 8.55942 13.7883 8.17074 14.21 8.04297C14.6317 7.91527 15.0876 8.07866 15.332 8.44531L17.5 11.6973V9C17.5 8.44772 17.9477 8 18.5 8ZM11 12.5C11.5523 12.5 12 12.9477 12 13.5V14C12 14.5523 11.5523 15 11 15C10.4477 15 10 14.5523 10 14V13.5C10 12.9477 10.4477 12.5 11 12.5ZM11 9C11.5523 9 12 9.44772 12 10V10.5C12 11.0523 11.5523 11.5 11 11.5C10.4477 11.5 10 11.0523 10 10.5V10C10 9.44772 10.4477 9 11 9Z" fill="#9E9E9E"/>
</g>
</svg>
