<svg width="24" height="24" viewBox="0 0 24 24" fill="none" xmlns="http://www.w3.org/2000/svg">
<g id="icons/Edit/ordered-list">
<path id="Union" d="M4.47644 15.4062C4.99981 15.4062 5.53401 15.571 6.05457 15.918C6.57557 16.2653 6.94825 16.7134 7.09753 17.2607C7.24434 17.7995 7.13408 18.287 6.98132 18.6436C6.92568 18.7734 6.85862 18.8917 6.79187 19C6.85861 19.1083 6.92568 19.2266 6.98132 19.3564C7.13408 19.713 7.24435 20.2005 7.09753 20.7393C6.94825 21.2866 6.57557 21.7347 6.05457 22.082C5.53402 22.429 4.99981 22.5938 4.47644 22.5938C3.96064 22.5937 3.52515 22.4339 3.19128 22.2432C2.86126 22.0546 2.61265 21.8258 2.45007 21.6523C2.36726 21.564 2.30229 21.4849 2.25574 21.4248C2.23237 21.3946 2.21266 21.3689 2.19812 21.3486C2.19091 21.3386 2.18461 21.3296 2.17957 21.3223C2.17709 21.3187 2.17468 21.3154 2.17273 21.3125C2.17177 21.3111 2.17062 21.3098 2.1698 21.3086L2.16882 21.3066V21.3057L2.99988 20.75L2.16785 21.3047C1.86161 20.8452 1.98582 20.2243 2.44519 19.918C2.90273 19.6129 3.52028 19.7348 3.828 20.1895L3.83582 20.2002C3.84975 20.2182 3.87486 20.2487 3.90906 20.2852C3.98078 20.3616 4.07622 20.4455 4.18347 20.5068C4.28698 20.566 4.38303 20.5937 4.47644 20.5938C4.56238 20.5938 4.71588 20.5708 4.94519 20.418C5.10012 20.3147 5.15068 20.2425 5.16492 20.2168C5.16366 20.2061 5.16014 20.1825 5.14343 20.1436C5.12379 20.0978 5.09456 20.0492 5.06042 20H4.49988C3.94763 20 3.49988 19.5523 3.49988 19C3.49988 18.4477 3.94763 18 4.49988 18H5.06042C5.09468 17.9509 5.12376 17.9023 5.14343 17.8564C5.16066 17.8162 5.16384 17.7925 5.16492 17.7822C5.15012 17.7559 5.09866 17.6843 4.94519 17.582C4.71588 17.4292 4.56238 17.4062 4.47644 17.4062C4.38304 17.4063 4.28698 17.434 4.18347 17.4932C4.07622 17.5545 3.98078 17.6384 3.90906 17.7148C3.87486 17.7513 3.84975 17.7818 3.83582 17.7998C3.82947 17.808 3.82623 17.8138 3.82507 17.8154L3.77136 17.8867C3.44908 18.2781 2.87609 18.3693 2.44519 18.082C1.98584 17.7757 1.86162 17.1548 2.16785 16.6953L2.99988 17.25C2.18171 16.7046 2.16876 16.6949 2.16882 16.6943V16.6934L2.1698 16.6914C2.17062 16.6902 2.17177 16.6889 2.17273 16.6875C2.17469 16.6846 2.17708 16.6813 2.17957 16.6777C2.18461 16.6704 2.1909 16.6615 2.19812 16.6514C2.21266 16.6311 2.23237 16.6054 2.25574 16.5752C2.30229 16.5151 2.36726 16.436 2.45007 16.3477C2.61264 16.1742 2.86126 15.9455 3.19128 15.7568C3.52514 15.5661 3.96064 15.4063 4.47644 15.4062ZM21.4999 18C22.0522 18 22.4999 18.4477 22.4999 19C22.4999 19.5523 22.0522 20 21.4999 20H10.4999C9.94763 20 9.49988 19.5523 9.49988 19C9.49988 18.4477 9.94763 18 10.4999 18H21.4999ZM3.52332 8.50195C3.89273 8.36342 4.38967 8.26262 4.92957 8.39746C5.49163 8.53798 5.9683 8.90089 6.33191 9.44629C6.83481 10.2008 6.72164 11.0003 6.4364 11.6064C6.28319 11.932 6.06898 12.2319 5.83777 12.5H5.99988C6.55216 12.5 6.99988 12.9477 6.99988 13.5C6.99988 14.0523 6.55216 14.5 5.99988 14.5H3.03601C2.99185 14.5015 2.94789 14.4994 2.90417 14.4951C2.89632 14.4944 2.88854 14.4931 2.88074 14.4922C2.85416 14.489 2.82783 14.4848 2.80164 14.4795C2.79838 14.4788 2.79512 14.4782 2.79187 14.4775C2.76417 14.4716 2.73693 14.4643 2.70984 14.4561C2.70194 14.4537 2.69422 14.4508 2.6864 14.4482C2.66633 14.4416 2.64646 14.4347 2.62683 14.4268C2.61462 14.4218 2.60266 14.4165 2.5907 14.4111C2.57023 14.4019 2.55001 14.3924 2.53015 14.3818C2.52423 14.3787 2.51842 14.3753 2.51257 14.3721C2.49064 14.3598 2.46916 14.3469 2.44812 14.333C2.44285 14.3295 2.4377 14.3259 2.4325 14.3223C2.39278 14.2949 2.354 14.2658 2.31824 14.2324L2.29285 14.207C2.28943 14.2036 2.28645 14.1998 2.28308 14.1963C2.26582 14.1785 2.24933 14.1599 2.23328 14.1406C2.22658 14.1326 2.22019 14.1244 2.21375 14.1162C2.20248 14.1018 2.1911 14.0874 2.18054 14.0723C2.17071 14.0582 2.16134 14.0439 2.15222 14.0293C2.14553 14.0185 2.13805 14.0082 2.13171 13.9971C2.09619 13.9349 2.06872 13.8703 2.04773 13.8047C2.0431 13.7902 2.03902 13.7755 2.03503 13.7607C2.02159 13.7109 2.01127 13.6608 2.00574 13.6104C2.00432 13.5974 2.00373 13.5844 2.00281 13.5713C2.00169 13.5553 2.00023 13.5394 1.99988 13.5234V13.5C1.99988 13.4862 2.00128 13.4726 2.00183 13.459C2.0024 13.4456 2.00171 13.4322 2.00281 13.4189C2.00471 13.3952 2.00807 13.3718 2.0116 13.3486C2.01301 13.3395 2.01481 13.3304 2.01648 13.3213C2.0204 13.2996 2.02485 13.2781 2.03015 13.2568C2.03254 13.2473 2.0353 13.2379 2.03796 13.2285C2.04363 13.2084 2.04965 13.1885 2.05652 13.1689C2.06156 13.1546 2.06645 13.1401 2.07214 13.126C2.07711 13.1137 2.08331 13.1019 2.08875 13.0898C2.09668 13.0722 2.1042 13.0543 2.11316 13.0371C2.12026 13.0235 2.12792 13.0103 2.13562 12.9971C2.14251 12.9852 2.14971 12.9735 2.1571 12.9619C2.16734 12.9459 2.17823 12.9304 2.18933 12.915C2.19857 12.9022 2.20778 12.8894 2.21765 12.877C2.22644 12.8659 2.23576 12.8554 2.245 12.8447C2.2563 12.8317 2.26812 12.8191 2.28015 12.8066C2.29214 12.7942 2.30465 12.7823 2.31726 12.7705C2.32784 12.7606 2.33841 12.7507 2.34949 12.7412C2.3662 12.7269 2.3836 12.7134 2.40125 12.7002C2.40848 12.6948 2.41532 12.6888 2.42273 12.6836C2.44268 12.6695 2.46326 12.6562 2.48425 12.6436C2.49036 12.6399 2.49659 12.6364 2.50281 12.6328C2.50344 12.6324 2.50549 12.6312 2.50769 12.6299C2.51216 12.6273 2.51998 12.6232 2.53015 12.6172C2.55099 12.6049 2.58327 12.5851 2.62488 12.5596C2.70841 12.5082 2.82905 12.4321 2.97156 12.3359C3.26058 12.1409 3.6234 11.8747 3.9491 11.5762C4.2879 11.2656 4.52008 10.9794 4.62585 10.7549C4.6744 10.6517 4.6795 10.5968 4.67957 10.582C4.67957 10.5801 4.68253 10.5777 4.66785 10.5557C4.53597 10.3579 4.45103 10.339 4.44519 10.3379C4.42272 10.3323 4.3564 10.3254 4.22644 10.374C4.09626 10.4229 3.96141 10.5059 3.84949 10.5898C3.79672 10.6294 3.75532 10.6645 3.72937 10.6875C3.71662 10.6988 3.70797 10.7072 3.70398 10.7109C3.70304 10.7118 3.70238 10.7125 3.70203 10.7129V10.7119C3.3112 11.0978 2.68185 11.0968 2.29285 10.708C1.90244 10.3175 1.90254 9.68447 2.29285 9.29395L2.87292 9.87402C2.33415 9.33519 2.29632 9.29598 2.29382 9.29297V9.29199L2.29578 9.29102L2.30652 9.28027C2.31269 9.27427 2.32077 9.2665 2.32996 9.25781C2.3484 9.24037 2.37311 9.2171 2.4032 9.19043C2.46309 9.13736 2.54716 9.06659 2.65027 8.98926C2.85074 8.83895 3.15404 8.64051 3.52332 8.50195ZM21.4999 11C22.0522 11 22.4999 11.4477 22.4999 12C22.4999 12.5523 22.0522 13 21.4999 13H10.4999C9.94763 13 9.49988 12.5523 9.49988 12C9.49988 11.4477 9.94763 11 10.4999 11H21.4999ZM4.58484 1.00391C4.6039 1.00551 4.62273 1.00808 4.64148 1.01074C4.6604 1.01346 4.67939 1.01575 4.69812 1.01953C4.76447 1.03287 4.82864 1.05236 4.88953 1.07812L4.96765 1.11523C4.99753 1.13099 5.02624 1.14911 5.05457 1.16797C5.06269 1.1734 5.07005 1.17989 5.078 1.18555C5.16145 1.24475 5.23669 1.31732 5.30066 1.40332C5.36863 1.49439 5.42199 1.59674 5.45593 1.70801C5.47099 1.75722 5.48095 1.80721 5.48816 1.85742C5.49483 1.90407 5.49988 1.95151 5.49988 2V5.5H5.99988C6.55216 5.5 6.99988 5.94772 6.99988 6.5C6.99988 7.05228 6.55216 7.5 5.99988 7.5H2.99988C2.44763 7.49995 1.99988 7.05226 1.99988 6.5C1.99988 5.94774 2.44763 5.50005 2.99988 5.5H3.49988V3.86426C3.04681 4.12691 2.46236 3.99645 2.16785 3.55469C1.86154 3.09518 1.98573 2.47433 2.44519 2.16797L3.94519 1.16797C3.98659 1.14037 4.02945 1.11638 4.07312 1.0957C4.0889 1.08824 4.10475 1.08086 4.12097 1.07422C4.13445 1.06869 4.14837 1.06448 4.16199 1.05957C4.17562 1.05467 4.1891 1.04924 4.203 1.04492L4.21765 1.04004C4.23863 1.03386 4.25993 1.02916 4.28113 1.02441C4.28829 1.02282 4.2954 1.02098 4.30261 1.01953C4.32076 1.01588 4.33905 1.01336 4.3573 1.01074C4.37286 1.00852 4.38839 1.00541 4.40417 1.00391C4.42627 1.0018 4.44847 1.00161 4.47058 1.00098C4.48032 1.0007 4.49007 1 4.49988 1H4.50476C4.53153 1.00015 4.55823 1.00162 4.58484 1.00391ZM21.4999 4C22.0522 4 22.4999 4.44772 22.4999 5C22.4999 5.55228 22.0522 6 21.4999 6H10.4999C9.94763 5.99995 9.49988 5.55225 9.49988 5C9.49988 4.44775 9.94763 4.00005 10.4999 4H21.4999Z" fill="#9E9E9E"/>
</g>
</svg>
