<svg width="24" height="24" viewBox="0 0 24 24" fill="none" xmlns="http://www.w3.org/2000/svg">
<g id="icons/Edit/overall-reduction">
<path id="Union" d="M5.5 17.5C6.05228 17.5 6.5 17.9477 6.5 18.5V21.5C6.5 22.0523 6.05228 22.5 5.5 22.5C4.94772 22.5 4.5 22.0523 4.5 21.5V19.5H2.5C1.94772 19.5 1.5 19.0523 1.5 18.5C1.5 17.9477 1.94772 17.5 2.5 17.5H5.5ZM21.5 17.5C22.0523 17.5 22.5 17.9477 22.5 18.5C22.5 19.0523 22.0523 19.5 21.5 19.5H19.5V21.5C19.5 22.0523 19.0523 22.5 18.5 22.5C17.9477 22.5 17.5 22.0523 17.5 21.5V18.5C17.5 17.9477 17.9477 17.5 18.5 17.5H21.5ZM16.5 6.5C17.0523 6.5 17.5 6.94772 17.5 7.5V16.5C17.5 17.0523 17.0523 17.5 16.5 17.5H7.5C6.94772 17.5 6.5 17.0523 6.5 16.5V7.5C6.5 6.94772 6.94772 6.5 7.5 6.5H16.5ZM8.5 15.5H15.5V8.5H8.5V15.5ZM5.5 1.5C6.05228 1.5 6.5 1.94772 6.5 2.5V5.5C6.5 6.05228 6.05228 6.5 5.5 6.5H2.5C1.94772 6.5 1.5 6.05228 1.5 5.5C1.5 4.94772 1.94772 4.5 2.5 4.5H4.5V2.5C4.5 1.94772 4.94772 1.5 5.5 1.5ZM18.5 1.5C19.0523 1.5 19.5 1.94772 19.5 2.5V4.5H21.5C22.0523 4.5 22.5 4.94772 22.5 5.5C22.5 6.05228 22.0523 6.5 21.5 6.5H18.5C17.9477 6.5 17.5 6.05228 17.5 5.5V2.5C17.5 1.94772 17.9477 1.5 18.5 1.5Z" fill="#9E9E9E"/>
</g>
</svg>
