<svg width="24" height="24" viewBox="0 0 24 24" fill="none" xmlns="http://www.w3.org/2000/svg">
<g id="icons/Edit/paragraph-break-two">
<path id="Union" d="M18.5 13.5C20.433 13.5 22 15.067 22 17C22 18.933 20.433 20.5 18.5 20.5H14.4141L14.707 20.793C15.0976 21.1835 15.0976 21.8165 14.707 22.207C14.3165 22.5976 13.6835 22.5976 13.293 22.207L11.293 20.207C10.9024 19.8165 10.9024 19.1835 11.293 18.793L13.293 16.793C13.6835 16.4024 14.3165 16.4024 14.707 16.793C15.0976 17.1835 15.0976 17.8165 14.707 18.207L14.4141 18.5H18.5C19.3284 18.5 20 17.8284 20 17C20 16.1716 19.3284 15.5 18.5 15.5H16C15.4477 15.5 15 15.0523 15 14.5C15 13.9477 15.4477 13.5 16 13.5H18.5ZM8 18.5C8.55228 18.5 9 18.9477 9 19.5C9 20.0523 8.55228 20.5 8 20.5H3C2.44772 20.5 2 20.0523 2 19.5C2 18.9477 2.44772 18.5 3 18.5H8ZM12 13.5C12.5523 13.5 13 13.9477 13 14.5C13 15.0523 12.5523 15.5 12 15.5H3C2.44772 15.5 2 15.0523 2 14.5C2 13.9477 2.44772 13.5 3 13.5H12ZM21 8.5C21.5523 8.5 22 8.94772 22 9.5C22 10.0523 21.5523 10.5 21 10.5H3C2.44772 10.5 2 10.0523 2 9.5C2 8.94772 2.44772 8.5 3 8.5H21ZM21 3.5C21.5523 3.5 22 3.94772 22 4.5C22 5.05228 21.5523 5.5 21 5.5H3C2.44772 5.5 2 5.05228 2 4.5C2 3.94772 2.44772 3.5 3 3.5H21Z" fill="#9E9E9E"/>
</g>
</svg>
