<svg width="24" height="24" viewBox="0 0 24 24" fill="none" xmlns="http://www.w3.org/2000/svg">
<g id="icons/Edit/paragraph-triangle">
<path id="Union" d="M21 18.499C21.5522 18.499 21.9999 18.9469 22 19.499C22 20.0513 21.5523 20.499 21 20.499H3C2.44772 20.499 2 20.0513 2 19.499C2.00013 18.9469 2.4478 18.499 3 18.499H21ZM21 13.499C21.5522 13.499 21.9999 13.9469 22 14.499C22 15.0513 21.5523 15.499 21 15.499H3C2.44772 15.499 2 15.0513 2 14.499C2.00013 13.9469 2.4478 13.499 3 13.499H21ZM2 4.88281C2.00018 3.71709 3.27179 2.99702 4.27148 3.59668L7.7998 5.71289C8.77086 6.29546 8.77079 7.7035 7.7998 8.28613L4.27148 10.4023C3.27173 11.0021 2 10.2822 2 9.11621V4.88281ZM21 8.49902C21.5522 8.49902 21.9999 8.94685 22 9.49902C22 10.0513 21.5523 10.499 21 10.499H12C11.4477 10.499 11 10.0513 11 9.49902C11.0001 8.94685 11.4478 8.49902 12 8.49902H21ZM4 8.23242L6.05469 6.99902L4 5.76562V8.23242ZM21 3.49902C21.5522 3.49902 21.9999 3.94685 22 4.49902C22 5.05131 21.5523 5.49902 21 5.49902H12C11.4477 5.49902 11 5.05131 11 4.49902C11.0001 3.94685 11.4478 3.49902 12 3.49902H21Z" fill="#9E9E9E"/>
</g>
</svg>
