<svg width="24" height="24" viewBox="0 0 24 24" fill="none" xmlns="http://www.w3.org/2000/svg">
<g id="icons/Edit/paragraph-unfold">
<path id="Union" d="M3 1C3.55228 1 4 1.44772 4 2V22C4 22.5523 3.55228 23 3 23C2.44772 23 2 22.5523 2 22V2C2 1.44772 2.44772 1 3 1ZM19 19C19.5523 19 20 19.4477 20 20V22C20 22.5523 19.5523 23 19 23C18.4477 23 18 22.5523 18 22V20C18 19.4477 18.4477 19 19 19ZM21 15.5C21.5523 15.5 22 15.9477 22 16.5C22 17.0523 21.5523 17.5 21 17.5H7C6.44772 17.5 6 17.0523 6 16.5C6 15.9477 6.44772 15.5 7 15.5H21ZM19 10C19.5523 10 20 10.4477 20 11V13C20 13.5523 19.5523 14 19 14C18.4477 14 18 13.5523 18 13V11C18 10.4477 18.4477 10 19 10ZM21 6.5C21.5523 6.5 22 6.94772 22 7.5C22 8.05228 21.5523 8.5 21 8.5H7C6.44772 8.5 6 8.05228 6 7.5C6 6.94772 6.44772 6.5 7 6.5H21ZM19 1C19.5523 1 20 1.44772 20 2V4C20 4.55228 19.5523 5 19 5C18.4477 5 18 4.55228 18 4V2C18 1.44772 18.4477 1 19 1Z" fill="#9E9E9E"/>
</g>
</svg>
