<svg width="24" height="24" viewBox="0 0 24 24" fill="none" xmlns="http://www.w3.org/2000/svg">
<g id="icons/Edit/paragraph-alphabet">
<path id="Union" d="M20.9996 18.5C21.5519 18.5 21.9996 18.9477 21.9996 19.5C21.9996 20.0523 21.5519 20.5 20.9996 20.5H2.99963C2.44749 20.4998 1.99963 20.0522 1.99963 19.5C1.99963 18.9478 2.44749 18.5002 2.99963 18.5H20.9996ZM20.9996 13.5C21.5519 13.5 21.9996 13.9477 21.9996 14.5C21.9996 15.0523 21.5519 15.5 20.9996 15.5H2.99963C2.44749 15.4998 1.99963 15.0522 1.99963 14.5C1.99963 13.9478 2.44749 13.5002 2.99963 13.5H20.9996ZM5.49963 3.5C5.87836 3.5 6.22475 3.71402 6.39417 4.05273L8.89417 9.05273C9.14115 9.54671 8.94088 10.1475 8.4469 10.3945C7.95297 10.6413 7.35205 10.4412 7.1051 9.94727L6.88147 9.5H4.1178L3.89417 9.94727C3.64714 10.4412 3.0463 10.6415 2.55237 10.3945C2.05861 10.1475 1.85825 9.54661 2.1051 9.05273L4.6051 4.05273L4.67639 3.93164C4.86126 3.66376 5.1683 3.5001 5.49963 3.5ZM20.9996 8.5C21.5519 8.5 21.9996 8.94772 21.9996 9.5C21.9996 10.0523 21.5519 10.5 20.9996 10.5H11.9996C11.4475 10.4998 10.9996 10.0522 10.9996 9.5C10.9996 8.94782 11.4475 8.50017 11.9996 8.5H20.9996ZM20.9996 3.5C21.5519 3.5 21.9996 3.94772 21.9996 4.5C21.9996 5.05228 21.5519 5.5 20.9996 5.5H11.9996C11.4475 5.49983 10.9996 5.05218 10.9996 4.5C10.9996 3.94782 11.4475 3.50017 11.9996 3.5H20.9996Z" fill="#9E9E9E"/>
</g>
</svg>
