<svg width="24" height="24" viewBox="0 0 24 24" fill="none" xmlns="http://www.w3.org/2000/svg">
<g id="icons/Edit/paragraph-cut">
<path id="Union" d="M3 1C3.55228 1 4 1.44772 4 2V22C4 22.5523 3.55228 23 3 23C2.44772 23 2 22.5523 2 22V2C2 1.44772 2.44772 1 3 1ZM21 1C21.5523 1 22 1.44772 22 2V22C22 22.5523 21.5523 23 21 23C20.4477 23 20 22.5523 20 22V17.5H7C6.44772 17.5 6 17.0523 6 16.5C6 15.9477 6.44772 15.5 7 15.5H20V2C20 1.44772 20.4477 1 21 1ZM17 6.5C17.5523 6.5 18 6.94772 18 7.5C18 8.05228 17.5523 8.5 17 8.5H7C6.44772 8.5 6 8.05228 6 7.5C6 6.94772 6.44772 6.5 7 6.5H17Z" fill="#9E9E9E"/>
</g>
</svg>
