<svg width="24" height="24" viewBox="0 0 24 24" fill="none" xmlns="http://www.w3.org/2000/svg">
<g id="icons/Edit/paragraph-break">
<path id="Union" d="M3 1C3.55228 1 4 1.44772 4 2V22C4 22.5523 3.55228 23 3 23C2.44772 23 2 22.5523 2 22V2C2 1.44772 2.44772 1 3 1ZM21 1C21.5523 1 22 1.44772 22 2V22C22 22.5523 21.5523 23 21 23C20.4477 23 20 22.5523 20 22V2C20 1.44772 20.4477 1 21 1ZM14 8C16.2091 8 18 9.79086 18 12C18 14.2091 16.2091 16 14 16H9.41406L9.70703 16.293C10.0976 16.6835 10.0976 17.3165 9.70703 17.707C9.31651 18.0976 8.68349 18.0976 8.29297 17.707L6.29297 15.707C5.90244 15.3165 5.90244 14.6835 6.29297 14.293L8.29297 12.293C8.68349 11.9024 9.31651 11.9024 9.70703 12.293C10.0976 12.6835 10.0976 13.3165 9.70703 13.707L9.41406 14H14C15.1046 14 16 13.1046 16 12C16 10.8954 15.1046 10 14 10H7C6.44772 10 6 9.55229 6 9C6 8.44772 6.44772 8 7 8H14Z" fill="#9E9E9E"/>
</g>
</svg>
