<svg width="24" height="24" viewBox="0 0 24 24" fill="none" xmlns="http://www.w3.org/2000/svg">
<g id="icons/Edit/paragraph-rectangle">
<path id="Union" d="M21 18.5C21.5523 18.5 22 18.9477 22 19.5C22 20.0523 21.5523 20.5 21 20.5H3C2.44772 20.5 2 20.0523 2 19.5C2 18.9477 2.44772 18.5 3 18.5H21ZM21 13.5C21.5523 13.5 22 13.9477 22 14.5C22 15.0523 21.5523 15.5 21 15.5H3C2.44772 15.5 2 15.0523 2 14.5C2 13.9477 2.44772 13.5 3 13.5H21ZM8 3.5C8.55228 3.5 9 3.94772 9 4.5V9.5C9 10.0523 8.55228 10.5 8 10.5H3C2.44772 10.5 2 10.0523 2 9.5V4.5C2 3.94772 2.44772 3.5 3 3.5H8ZM21 8.5C21.5523 8.5 22 8.94772 22 9.5C22 10.0523 21.5523 10.5 21 10.5H12C11.4477 10.5 11 10.0523 11 9.5C11 8.94772 11.4477 8.5 12 8.5H21ZM4 8.5H7V5.5H4V8.5ZM21 3.5C21.5523 3.5 22 3.94772 22 4.5C22 5.05228 21.5523 5.5 21 5.5H12C11.4477 5.5 11 5.05228 11 4.5C11 3.94772 11.4477 3.5 12 3.5H21Z" fill="#9E9E9E"/>
</g>
</svg>
