<svg width="24" height="24" viewBox="0 0 24 24" fill="none" xmlns="http://www.w3.org/2000/svg">
<g id="icons/Edit/perspective">
<path id="Union" d="M1.36621 1.22656C1.59788 1.03672 1.90258 0.96079 2.19629 1.01953L8.69629 2.31934L15.6963 3.71973L22.1963 5.01953C22.6636 5.1131 23 5.52339 23 6V18C23 18.4766 22.6636 18.8869 22.1963 18.9805L15.6963 20.2803L8.69629 21.6807L2.19629 22.9805C1.90261 23.0392 1.59787 22.9632 1.36621 22.7734C1.13455 22.5835 1.00003 22.2996 1 22V2C1 1.70043 1.13455 1.4165 1.36621 1.22656ZM3 16.9043V20.7803L7.5 19.8799V16.4551L3 16.9043ZM9.5 16.2549V19.4795L14.5 18.4795V15.7549L9.5 16.2549ZM16.5 15.5547V18.0801L21 17.1797V15.1045L16.5 15.5547ZM3 14.8945L7.5 14.4443V9.55469L3 9.10449V14.8945ZM9.5 14.2441L14.5 13.7441V10.2549L9.5 9.75488V14.2441ZM16.5 13.5449L21 13.0947V10.9043L16.5 10.4551V13.5449ZM16.5 8.44434L21 8.89453V6.81934L16.5 5.91895V8.44434ZM9.5 7.74414L14.5 8.24414V5.51953L9.5 4.51953V7.74414ZM3 7.09473L7.5 7.54492V4.11914L3 3.21875V7.09473Z" fill="#9E9E9E"/>
</g>
</svg>
