<svg width="24" height="24" viewBox="0 0 24 24" fill="none" xmlns="http://www.w3.org/2000/svg">
<g id="icons/Edit/plan">
<path id="Union" d="M16 1.5C16.5523 1.5 17 1.94772 17 2.5V3H20.5C21.6046 3 22.5 3.89544 22.5 5V20.5C22.5 21.6046 21.6046 22.5 20.5 22.5H3.5C2.39544 22.5 1.5 21.6046 1.5 20.5V5C1.5 3.89543 2.39543 3 3.5 3H7V2.5C7 1.94772 7.44772 1.5 8 1.5C8.55228 1.5 9 1.94772 9 2.5V3H15V2.5C15 1.94772 15.4477 1.5 16 1.5ZM3.5 20.5H20.5V10.5H3.5V20.5ZM16.293 11.793C16.6835 11.4024 17.3165 11.4024 17.707 11.793C18.0976 12.1835 18.0976 12.8165 17.707 13.207L11.707 19.207C11.3165 19.5976 10.6835 19.5976 10.293 19.207L7.29297 16.207C6.90244 15.8165 6.90244 15.1835 7.29297 14.793C7.68349 14.4024 8.31651 14.4024 8.70703 14.793L11 17.0859L16.293 11.793ZM3.5 8.5H20.5V5H17V6.5C17 7.05228 16.5523 7.5 16 7.5C15.4477 7.5 15 7.05228 15 6.5V5H9V6.5C9 7.05228 8.55228 7.5 8 7.5C7.44772 7.5 7 7.05228 7 6.5V5H3.5V8.5Z" fill="#9E9E9E"/>
</g>
</svg>
