<svg width="24" height="24" viewBox="0 0 24 24" fill="none" xmlns="http://www.w3.org/2000/svg">
<g id="icons/Edit/pound-sign">
<path id="Union" d="M15.5 5C16.0523 5 16.5 5.44772 16.5 6V7.5H18C18.5523 7.5 19 7.94772 19 8.5C19 9.05228 18.5523 9.5 18 9.5H16.5V14.5H18C18.5523 14.5 19 14.9477 19 15.5C19 16.0523 18.5523 16.5 18 16.5H16.5V18C16.5 18.5523 16.0523 19 15.5 19C14.9477 19 14.5 18.5523 14.5 18V16.5H9.5V18C9.5 18.5523 9.05228 19 8.5 19C7.94772 19 7.5 18.5523 7.5 18V16.5H6C5.44772 16.5 5 16.0523 5 15.5C5 14.9477 5.44772 14.5 6 14.5H7.5V9.5H6C5.44772 9.5 5 9.05228 5 8.5C5 7.94772 5.44772 7.5 6 7.5H7.5V6C7.5 5.44772 7.94772 5 8.5 5C9.05228 5 9.5 5.44772 9.5 6V7.5H14.5V6C14.5 5.44772 14.9477 5 15.5 5ZM9.5 9.5V14.5H14.5V9.5H9.5Z" fill="#9E9E9E"/>
</g>
</svg>
