<svg width="24" height="24" viewBox="0 0 24 24" fill="none" xmlns="http://www.w3.org/2000/svg">
<g id="icons/Edit/pound">
<path id="Union" d="M16 2C16.5523 2 17 2.44772 17 3V7H21C21.5523 7 22 7.44772 22 8C22 8.55228 21.5523 9 21 9H17V15H21C21.5523 15 22 15.4477 22 16C22 16.5523 21.5523 17 21 17H17V21C17 21.5523 16.5523 22 16 22C15.4477 22 15 21.5523 15 21V17H9V21C9 21.5523 8.55228 22 8 22C7.44772 22 7 21.5523 7 21V17H3C2.44772 17 2 16.5523 2 16C2 15.4477 2.44772 15 3 15H7V9H3C2.44772 9 2 8.55228 2 8C2 7.44772 2.44772 7 3 7H7V3C7 2.44772 7.44772 2 8 2C8.55228 2 9 2.44772 9 3V7H15V3C15 2.44772 15.4477 2 16 2ZM9 15H15V9H9V15Z" fill="#9E9E9E"/>
</g>
</svg>
