<svg width="24" height="24" viewBox="0 0 24 24" fill="none" xmlns="http://www.w3.org/2000/svg">
<g id="icons/Edit/powerpoint">
<path id="Union" d="M19.5 2C20.8807 2 22 3.11929 22 4.5V19.5C22 20.8807 20.8807 22 19.5 22H4.5C3.11929 22 2 20.8807 2 19.5V4.5C2 3.11929 3.11929 2 4.5 2H19.5ZM4.5 4C4.22386 4 4 4.22386 4 4.5V19.5C4 19.7761 4.22386 20 4.5 20H19.5C19.7761 20 20 19.7761 20 19.5V4.5C20 4.22386 19.7761 4 19.5 4H4.5ZM14.5 6.5C15.0523 6.5 15.5 6.94772 15.5 7.5V12.5C15.5 13.0523 15.0523 13.5 14.5 13.5H10.5V16.5C10.5 17.0523 10.0523 17.5 9.5 17.5C8.94772 17.5 8.5 17.0523 8.5 16.5V7.5C8.5 6.94772 8.94772 6.5 9.5 6.5H14.5ZM10.5 11.5H13.5V8.5H10.5V11.5Z" fill="#9E9E9E"/>
</g>
</svg>
