<svg width="24" height="24" viewBox="0 0 24 24" fill="none" xmlns="http://www.w3.org/2000/svg">
<g id="icons/Edit/pushpin">
<path id="Union" d="M16 1C16.4303 1 16.812 1.27541 16.9482 1.68359C17.0844 2.09194 16.944 2.54155 16.5996 2.7998L15.1621 3.87695L16.8457 9.34668C17.3649 9.67681 18.0282 10.1605 18.6094 10.79C19.3254 11.5657 20 12.6518 20 14C20 14.5523 19.5523 15 19 15H14.7803L12.9697 22.2422C12.8584 22.6874 12.4589 23 12 23C11.5411 23 11.1416 22.6874 11.0303 22.2422L9.21973 15H5C4.44772 15 4 14.5523 4 14C4 13.2541 4.27691 12.574 4.61133 12.0166C4.94894 11.4539 5.38387 10.9521 5.79297 10.543C6.20513 10.1308 6.61338 9.79085 6.91699 9.55469C6.9992 9.49075 7.07545 9.43477 7.1416 9.38574L8.83691 3.87695L7.40039 2.7998C7.05605 2.54155 6.91564 2.09194 7.05176 1.68359C7.18796 1.27541 7.56967 1 8 1H16ZM10.8633 3C10.9999 3.23598 11.0396 3.52221 10.9561 3.79395L8.95605 10.2939C8.88844 10.5137 8.74676 10.7033 8.55566 10.8311C8.55525 10.8313 8.55355 10.8328 8.55176 10.834C8.54812 10.8365 8.54162 10.8409 8.5332 10.8467C8.51562 10.8588 8.48803 10.8777 8.45215 10.9033C8.37984 10.955 8.27396 11.0329 8.14551 11.1328C7.88665 11.3341 7.54472 11.6193 7.20703 11.957C6.88035 12.2837 6.57905 12.641 6.35645 13H10C10.4589 13 10.8584 13.3126 10.9697 13.7578L12 17.8789L13.0303 13.7578L13.085 13.5967C13.2425 13.2389 13.5987 13 14 13H17.7461C17.5991 12.7072 17.394 12.422 17.1406 12.1475C16.61 11.5727 15.9533 11.131 15.4961 10.8643C15.2793 10.7378 15.1178 10.5338 15.0439 10.2939L13.0439 3.79395C12.9604 3.52221 13.0001 3.23598 13.1367 3H10.8633Z" fill="#9E9E9E"/>
</g>
</svg>
