<svg width="24" height="24" viewBox="0 0 24 24" fill="none" xmlns="http://www.w3.org/2000/svg">
<g id="icons/Edit/quote">
<path id="Union" d="M9.42615 4.55664C9.71085 4.37379 9.92182 4.36328 10.142 4.64941C10.3935 4.97631 10.5626 5.19558 10.6488 5.30762C10.7798 5.47787 10.7282 5.70271 10.5922 5.81836C8.54229 7.13444 6.20949 9.96031 6.03455 10.9795C5.85964 11.9987 6.8623 11.7334 8.50232 12.4961C10.1422 13.259 11.4996 16.0489 9.23474 18.2471C6.96974 20.4451 2.4996 17.9984 3.15076 13C3.56904 9.78922 5.661 6.97472 9.42615 4.55664ZM19.3392 4.55664C19.624 4.37379 19.8349 4.36328 20.0551 4.64941C20.3066 4.97633 20.4757 5.19558 20.5619 5.30762C20.6929 5.47787 20.6412 5.70271 20.5052 5.81836C18.4554 7.13445 16.1226 9.96032 15.9476 10.9795C15.7727 11.9987 16.7754 11.7334 18.4154 12.4961C20.0553 13.259 21.4127 16.0489 19.1478 18.2471C16.8828 20.4451 12.4127 17.9984 13.0638 13C13.4821 9.78922 15.5741 6.97472 19.3392 4.55664Z" fill="#9E9E9E"/>
</g>
</svg>
