<svg width="24" height="24" viewBox="0 0 24 24" fill="none" xmlns="http://www.w3.org/2000/svg">
<g id="icons/Edit/reduce-two">
<path id="Union" d="M19.5 2C20.8807 2 22 3.11929 22 4.5V19.5C22 20.8807 20.8807 22 19.5 22H4.5C3.11929 22 2 20.8807 2 19.5V4.5C2 3.11929 3.11929 2 4.5 2H19.5ZM4.5 4C4.22386 4 4 4.22386 4 4.5V19.5C4 19.7761 4.22386 20 4.5 20H19.5C19.7761 20 20 19.7761 20 19.5V4.5C20 4.22386 19.7761 4 19.5 4H4.5ZM8.5 15C8.77613 15 9 15.2239 9 15.5V17.793C8.99994 18.2383 8.46148 18.4614 8.14648 18.1465L5.85352 15.8535C5.53855 15.5385 5.76161 15 6.20703 15H8.5ZM17.793 15C18.2384 15.0001 18.4614 15.5385 18.1465 15.8535L15.8535 18.1465C15.5385 18.4614 15.0001 18.2384 15 17.793V15.5C15 15.2239 15.2239 15 15.5 15H17.793ZM8.14648 5.85449C8.46148 5.53955 8.99998 5.76259 9 6.20801V8.50098C8.99998 8.7771 8.77612 9.00096 8.5 9.00098H6.20703C5.76162 9.00095 5.53857 8.46246 5.85352 8.14746L8.14648 5.85449ZM15 6.20801C15 5.76259 15.5385 5.53952 15.8535 5.85449L18.1465 8.14746C18.4614 8.46245 18.2383 9.00092 17.793 9.00098H15.5C15.2239 9.00098 15 8.77711 15 8.50098V6.20801Z" fill="#9E9E9E"/>
</g>
</svg>
