<svg width="24" height="24" viewBox="0 0 24 24" fill="none" xmlns="http://www.w3.org/2000/svg">
<g id="icons/Edit/reduce-decimal-places">
<path id="Union" d="M11.793 15.293C12.1835 14.9024 12.8165 14.9024 13.207 15.293C13.5976 15.6835 13.5976 16.3165 13.207 16.707L11.9141 18H20C20.5523 18 21 18.4477 21 19C21 19.5523 20.5523 20 20 20H11.9141L13.207 21.293C13.5976 21.6835 13.5976 22.3165 13.207 22.707C12.8165 23.0976 12.1835 23.0976 11.793 22.707L8.79297 19.707C8.76536 19.6794 8.7405 19.65 8.7168 19.6201C8.68065 19.5745 8.64798 19.5261 8.62012 19.4746C8.61269 19.4609 8.60635 19.4466 8.59961 19.4326C8.5778 19.3873 8.55783 19.3408 8.54297 19.292C8.5303 19.2503 8.52176 19.2077 8.51465 19.165C8.50571 19.1113 8.5 19.0563 8.5 19C8.5 18.9203 8.50973 18.8429 8.52734 18.7686C8.53221 18.748 8.53678 18.7273 8.54297 18.707C8.55787 18.6583 8.57777 18.6117 8.59961 18.5664C8.61877 18.5266 8.6403 18.4877 8.66504 18.4502C8.70242 18.3935 8.74516 18.3408 8.79297 18.293L11.793 15.293ZM4.5 11C5.05228 11 5.5 11.4477 5.5 12C5.5 12.5523 5.05228 13 4.5 13H4C3.44772 13 3 12.5523 3 12C3 11.4477 3.44772 11 4 11H4.5ZM11 1C12.933 1 14.5 2.567 14.5 4.5V9.5C14.5 11.433 12.933 13 11 13C9.06702 13 7.5 11.433 7.5 9.5V4.5C7.5 2.567 9.06702 1 11 1ZM11 3C10.1716 3 9.5 3.67158 9.5 4.5V9.5C9.5 10.3284 10.1716 11 11 11C11.8284 11 12.5 10.3284 12.5 9.5V4.5C12.5 3.67158 11.8284 3 11 3Z" fill="#9E9E9E"/>
</g>
</svg>
