<svg width="24" height="24" viewBox="0 0 24 24" fill="none" xmlns="http://www.w3.org/2000/svg">
<g id="icons/Edit/refresh-one">
<path id="Union" d="M20.0593 15C20.0677 15 20.0763 15.0008 20.0847 15.001C20.102 15.0014 20.1192 15.0016 20.1365 15.0029C20.1562 15.0044 20.1757 15.0071 20.1951 15.0098C20.2091 15.0117 20.2231 15.0141 20.2371 15.0166C20.2554 15.0199 20.2737 15.0231 20.2917 15.0273C20.3048 15.0305 20.3178 15.0344 20.3308 15.0381C20.3512 15.0438 20.3715 15.0497 20.3914 15.0566C20.4015 15.0602 20.4115 15.0644 20.4216 15.0684C20.4428 15.0766 20.4637 15.0851 20.4841 15.0947C20.491 15.0979 20.4978 15.1011 20.5046 15.1045C20.5109 15.1076 20.5171 15.1111 20.5232 15.1143C20.5328 15.1193 20.5421 15.1246 20.5515 15.1299C20.5725 15.1417 20.5932 15.1538 20.613 15.167C20.6191 15.171 20.6247 15.1756 20.6306 15.1797C20.6514 15.1941 20.6718 15.2088 20.6912 15.2246C20.6976 15.2299 20.7034 15.2358 20.7097 15.2412C20.7236 15.2531 20.7376 15.2648 20.7507 15.2773L20.7664 15.293C20.7701 15.2967 20.7734 15.3009 20.7771 15.3047C20.8151 15.3439 20.8499 15.3854 20.8806 15.4297C20.8888 15.4415 20.8964 15.4537 20.9041 15.4658C20.9126 15.4794 20.9215 15.4928 20.9294 15.5068C20.9326 15.5124 20.9361 15.5178 20.9392 15.5234C20.9545 15.5516 20.9686 15.5806 20.9812 15.6104C20.9882 15.6269 20.9936 15.6441 20.9998 15.6611C21.003 15.6702 21.0065 15.6793 21.0095 15.6885C21.0144 15.7032 21.0181 15.7183 21.0222 15.7334C21.0358 15.7823 21.0455 15.8322 21.0515 15.8828C21.0533 15.8977 21.0543 15.9127 21.0554 15.9277C21.0568 15.9466 21.058 15.9654 21.0583 15.9844C21.0584 15.9896 21.0593 15.9948 21.0593 16V20C21.0593 20.5523 20.6116 21 20.0593 21C19.5071 20.9999 19.0593 20.5522 19.0593 20V19.0898C17.2747 20.8845 14.8203 22 12.0642 22C8.13657 21.9999 4.73938 19.7354 3.10425 16.4453C2.8586 15.9509 3.06019 15.3504 3.55444 15.1045C4.04892 14.8588 4.64938 15.0603 4.89526 15.5547C6.2055 18.1912 8.92467 19.9999 12.0642 20C14.5835 20 16.7935 18.8333 18.2458 17H16.6697C16.1175 16.9999 15.6697 16.5522 15.6697 16C15.6697 15.4478 16.1175 15.0001 16.6697 15H20.0593ZM10.6208 8.5C11.4019 7.71895 12.6689 7.71895 13.45 8.5L15.571 10.6211C16.352 11.4021 16.352 12.6682 15.571 13.4492L13.45 15.5703C12.6689 16.3514 11.4019 16.3514 10.6208 15.5703L8.49976 13.4492C7.71896 12.6682 7.71896 11.4021 8.49976 10.6211L10.6208 8.5ZM9.91382 12.0352L12.0359 14.1562L14.157 12.0352L12.0359 9.91406L9.91382 12.0352ZM11.9949 2C15.9225 2 19.3196 4.26467 20.9548 7.55469C21.2006 8.04927 20.9992 8.64972 20.5046 8.89551C20.0101 9.14103 19.4096 8.93975 19.1638 8.44531C17.8535 5.80876 15.1344 4 11.9949 4C9.4757 4.00022 7.26553 5.16669 5.81323 7H7.3894C7.94169 7 8.3894 7.44772 8.3894 8C8.3894 8.55228 7.94169 9 7.3894 9H3.99976C3.986 9 3.97236 8.9986 3.95874 8.99805C3.94701 8.99757 3.93532 8.99699 3.92358 8.99609C3.90053 8.99435 3.87781 8.99156 3.85522 8.98828C3.84347 8.98656 3.8318 8.98457 3.82007 8.98242C3.80295 8.97931 3.78609 8.97565 3.76929 8.97168C3.75525 8.96834 3.74126 8.96491 3.72729 8.96094C3.70678 8.95513 3.6867 8.94847 3.66675 8.94141C3.65668 8.93783 3.64649 8.93459 3.63647 8.93066C3.6152 8.92235 3.59451 8.91302 3.57397 8.90332C3.56772 8.90037 3.56067 8.8986 3.55444 8.89551C3.54909 8.89284 3.54411 8.88947 3.53882 8.88672C3.52248 8.87821 3.50676 8.86875 3.49097 8.85938C3.47845 8.85198 3.46594 8.84478 3.45386 8.83691C3.44053 8.8282 3.42767 8.81889 3.41479 8.80957C3.40173 8.80015 3.38921 8.79024 3.37671 8.78027C3.36422 8.77029 3.35159 8.76056 3.3396 8.75C3.32553 8.73762 3.31185 8.72498 3.29858 8.71191C3.28989 8.70334 3.28157 8.69443 3.27319 8.68555C3.2385 8.64875 3.2059 8.61047 3.17749 8.56934C3.15688 8.53962 3.1382 8.5085 3.12085 8.47656L3.08667 8.4082C3.08495 8.40434 3.08346 8.40037 3.08179 8.39648C3.05061 8.32437 3.02888 8.24769 3.01538 8.16797C3.0121 8.14882 3.00876 8.1297 3.00659 8.11035C3.00542 8.09966 3.0045 8.08892 3.00366 8.07812C3.00211 8.05864 3.00113 8.03913 3.00073 8.01953C3.00061 8.01303 2.99976 8.00653 2.99976 8V4C2.99976 3.44779 3.44757 3.00012 3.99976 3C4.55204 3 4.99976 3.44772 4.99976 4V4.90918C6.78429 3.11477 9.23907 2.00019 11.9949 2Z" fill="#9E9E9E"/>
</g>
</svg>
