<svg width="24" height="24" viewBox="0 0 24 24" fill="none" xmlns="http://www.w3.org/2000/svg">
<g id="icons/Edit/repair">
<path id="Union" d="M20 1.5C21.1046 1.5 22 2.39544 22 3.5V8.3584C22 8.91066 21.5523 9.3584 21 9.3584C20.4477 9.3584 20 8.91066 20 8.3584V3.5H4V20H10.0713C10.6236 20 11.0713 20.4477 11.0713 21C11.0713 21.5523 10.6236 22 10.0713 22H4C2.89544 22 2 21.1046 2 20V3.5C2 2.39543 2.89543 1.5 4 1.5H20ZM18.6094 10.7598C18.8777 10.7217 19.1503 10.7945 19.3643 10.9609L21.6143 12.7109C22.0412 13.0433 22.1266 13.6554 21.8066 14.0918L16.3066 21.5918C16.1183 21.8486 15.8185 22 15.5 22H13.5C12.9477 22 12.5 21.5523 12.5 21V19L12.5127 18.8438C12.5372 18.6891 12.5977 18.5411 12.6904 18.4131L17.9404 11.1631L18.0039 11.085C18.1603 10.9095 18.3745 10.7932 18.6094 10.7598ZM14.5 19.3232V20H14.9932L19.6182 13.6914L18.9521 13.1738L14.5 19.3232ZM14.5 6C15.0523 6 15.5 6.44772 15.5 7C15.5 7.55228 15.0523 8 14.5 8H12.5V14C12.5 14.5523 12.0523 15 11.5 15C10.9477 15 10.5 14.5523 10.5 14V8H8.5C7.94772 8 7.5 7.55228 7.5 7C7.5 6.44772 7.94772 6 8.5 6H14.5Z" fill="#9E9E9E"/>
</g>
</svg>
