<svg width="24" height="24" viewBox="0 0 24 24" fill="none" xmlns="http://www.w3.org/2000/svg">
<g id="icons/Edit/return">
<path id="Union" d="M5.84863 3.24121C6.26795 2.88178 6.89936 2.93029 7.25879 3.34961C7.61792 3.76892 7.56957 4.39944 7.15039 4.75879L5.70215 6H14.4971C18.4755 6.00009 21.839 9.23448 21.9941 13.2109C22.1578 17.414 18.6997 20.9999 14.4971 21H5.99902C5.44696 20.9999 4.99925 20.552 4.99902 20C4.99902 19.4478 5.44682 19.0001 5.99902 19H14.4971C17.5673 18.9999 20.1154 16.3551 19.9961 13.2891C19.8829 10.3861 17.4014 8.00009 14.4971 8H5.41406L7.20703 9.79297C7.59728 10.1835 7.59742 10.8166 7.20703 11.207C6.81657 11.5972 6.18344 11.5972 5.79297 11.207L2.29297 7.70703C2.26246 7.67652 2.23502 7.64315 2.20898 7.60938C2.17393 7.56396 2.14218 7.51597 2.11523 7.46484C2.11103 7.45685 2.1075 7.44853 2.10352 7.44043C2.06298 7.35816 2.03327 7.26988 2.0166 7.17676C2.01485 7.16702 2.01318 7.15727 2.01172 7.14746C2.00846 7.1255 2.00474 7.10346 2.00293 7.08105C2.00166 7.0655 2.00152 7.04983 2.00098 7.03418C2.00059 7.02283 2 7.01144 2 7C2 6.9923 2.0008 6.98422 2.00098 6.97656C2.00109 6.97169 2.00079 6.9668 2.00098 6.96191C2.00121 6.95586 2.00161 6.9494 2.00195 6.94336C2.00529 6.88318 2.01383 6.82446 2.02734 6.76758C2.02931 6.75936 2.03201 6.75132 2.03418 6.74316C2.04948 6.68537 2.06886 6.62936 2.09375 6.57617C2.09776 6.56761 2.1022 6.55923 2.10645 6.55078C2.13223 6.49955 2.16242 6.451 2.19629 6.40527C2.20236 6.39706 2.20851 6.38889 2.21484 6.38086C2.26205 6.32104 2.31555 6.2664 2.375 6.21875L5.84863 3.24121Z" fill="#9E9E9E"/>
</g>
</svg>
