<svg width="24" height="24" viewBox="0 0 24 24" fill="none" xmlns="http://www.w3.org/2000/svg">
<g id="icons/Edit/reverse-lens-one">
<path id="Union" d="M15.1406 2.00977C15.4628 2.05546 15.7464 2.25641 15.8945 2.55273L17.1182 5H20.5C21.8146 5 23 6.01105 23 7.40039V19.5996C23 20.9889 21.8146 22 20.5 22H3.5C2.26742 22 1.14851 21.1115 1.01367 19.8555L1 19.5996V7.40039C1 6.01104 2.18539 5 3.5 5H6.88184L8.10547 2.55273L8.17676 2.43164C8.36169 2.16367 8.66854 2 9 2H15L15.1406 2.00977ZM3.5 7C3.15776 7 3 7.24334 3 7.40039V19.5996L3.00781 19.6621C3.04265 19.8138 3.20048 20 3.5 20H20.5C20.8423 20 21 19.7567 21 19.5996V7.40039C21 7.24333 20.8423 7 20.5 7H3.5ZM8 12.5C8.55228 12.5 9 12.9477 9 13.5C9 15.1569 10.3431 16.5 12 16.5C12.3997 16.5 12.779 16.4223 13.125 16.2822C13.6368 16.0752 14.2195 16.3222 14.4268 16.834C14.634 17.3459 14.3869 17.9285 13.875 18.1357C13.2946 18.3707 12.6612 18.5 12 18.5C10.8741 18.5 9.83577 18.127 9 17.499V17.5C9 18.0523 8.55228 18.5 8 18.5C7.44772 18.5 7 18.0523 7 17.5V13.5C7 12.9477 7.44772 12.5 8 12.5ZM16 8.5C16.5523 8.5 17 8.94772 17 9.5V13.5C17 14.0523 16.5523 14.5 16 14.5C15.4477 14.5 15 14.0523 15 13.5C15 11.8431 13.6569 10.5 12 10.5C11.6003 10.5 11.221 10.5777 10.875 10.7178C10.3632 10.9248 9.78048 10.6778 9.57324 10.166C9.36602 9.65408 9.61307 9.07148 10.125 8.86426C10.7054 8.62933 11.3388 8.5 12 8.5C13.1254 8.5 14.1634 8.87252 14.999 9.5C14.999 8.94772 15.4477 8.5 16 8.5ZM9.11816 5H14.8818L14.3818 4H9.61816L9.11816 5Z" fill="#9E9E9E"/>
</g>
</svg>
