<svg width="24" height="24" viewBox="0 0 24 24" fill="none" xmlns="http://www.w3.org/2000/svg">
<g id="icons/Edit/reverse-lens">
<path id="Union" d="M2.94629 10.668C3.40606 10.362 4.02605 10.4865 4.33203 10.9463C4.63801 11.4061 4.51348 12.0261 4.05371 12.332C2.93166 13.0788 2.5 13.8527 2.5 14.501C2.50014 14.8715 2.66411 15.2974 3.09863 15.7676C3.53731 16.2422 4.21146 16.7131 5.10254 17.1299C6.28439 17.6826 7.77281 18.1042 9.41211 18.3262L9.29297 18.207C8.90244 17.8165 8.90244 17.1835 9.29297 16.793C9.68349 16.4024 10.3165 16.4024 10.707 16.793L12.707 18.793C12.7446 18.8306 12.7773 18.8714 12.8076 18.9131C12.8154 18.9238 12.8237 18.9343 12.8311 18.9453C12.8602 18.9889 12.8847 19.0344 12.9062 19.0811C12.9123 19.0941 12.9193 19.1068 12.9248 19.1201C12.9545 19.1924 12.9743 19.2676 12.9863 19.3438C12.9944 19.395 13 19.4474 13 19.501C13 19.5723 12.9918 19.6418 12.9775 19.709C12.9717 19.7366 12.9643 19.7639 12.9561 19.791C12.9544 19.7965 12.9529 19.8021 12.9512 19.8076C12.9331 19.8635 12.91 19.918 12.8818 19.9707C12.8329 20.0623 12.7701 20.145 12.6963 20.2168L10.707 22.207C10.3165 22.5976 9.68349 22.5976 9.29297 22.207C8.90244 21.8165 8.90244 21.1835 9.29297 20.793L9.70898 20.376C7.67505 20.1568 5.78166 19.6555 4.25488 18.9414C3.2116 18.4534 2.29688 17.8466 1.62988 17.125C0.958989 16.3991 0.500144 15.5108 0.5 14.501C0.5 12.8976 1.55671 11.5927 2.94629 10.668ZM19.668 10.9463C19.974 10.4865 20.5939 10.362 21.0537 10.668C22.4433 11.5927 23.5 12.8976 23.5 14.501C23.4998 16.0329 22.4065 17.2475 21.1309 18.1025C19.8149 18.9845 18.0638 19.6573 16.2139 20.0615C15.6743 20.1794 15.1413 19.8374 15.0234 19.2979C14.9056 18.7584 15.2468 18.2255 15.7861 18.1074C17.4677 17.7401 18.9666 17.1458 20.0176 16.4414C21.1085 15.7102 21.4998 15.019 21.5 14.501C21.5 13.8527 21.0683 13.0788 19.9463 12.332C19.4865 12.026 19.362 11.4061 19.668 10.9463ZM13.5 2.5C13.8344 2.5 14.1466 2.66711 14.332 2.94531L15.0352 4H17.5L17.6025 4.00488C18.1067 4.05621 18.5 4.48232 18.5 5V12.5C18.5 13.0523 18.0523 13.5 17.5 13.5H6.5C5.94772 13.5 5.5 13.0523 5.5 12.5V5C5.5 4.44772 5.94772 4 6.5 4H8.96484L9.66797 2.94531L9.74316 2.84668C9.93175 2.62817 10.2073 2.5 10.5 2.5H13.5ZM10.332 5.55469C10.1466 5.83289 9.83435 6 9.5 6H7.5V11.5H16.5V6H14.5C14.1656 6 13.8534 5.83289 13.668 5.55469L12.9648 4.5H11.0352L10.332 5.55469ZM12 6C13.3807 6 14.5 7.11927 14.5 8.5C14.5 9.88073 13.3807 11 12 11C10.6193 11 9.5 9.88073 9.5 8.5C9.5 7.11927 10.6193 6 12 6ZM12 8C11.7238 8 11.5 8.22383 11.5 8.5C11.5 8.77617 11.7238 9 12 9C12.2762 9 12.5 8.77617 12.5 8.5C12.5 8.22383 12.2762 8 12 8Z" fill="#9E9E9E"/>
</g>
</svg>
