<svg width="24" height="24" viewBox="0 0 24 24" fill="none" xmlns="http://www.w3.org/2000/svg">
<g id="icons/Edit/rotate-one">
<path id="Union" d="M12 1C18.0751 1 23 5.92487 23 12C23 12.5523 22.5523 13 22 13H15.874C15.43 14.7252 13.8638 16 12 16C9.79086 16 8 14.2091 8 12C8 9.79086 9.79086 8 12 8C13.8638 8 15.43 9.27477 15.874 11H20.9434C20.4458 6.50014 16.6325 3 12 3C7.02943 3 3 7.02943 3 12C3 16.9706 7.02943 21 12 21C15.1295 21 17.8869 19.4032 19.501 16.9756C19.8069 16.5161 20.427 16.3916 20.8867 16.6973C21.3466 17.003 21.4716 17.6231 21.166 18.083C19.197 21.0444 15.8271 23 12 23C5.92487 23 1 18.0751 1 12C1 5.92487 5.92487 1 12 1ZM12 10C10.8954 10 10 10.8954 10 12C10 13.1046 10.8954 14 12 14C13.1046 14 14 13.1046 14 12C14 10.8954 13.1046 10 12 10Z" fill="#9E9E9E"/>
</g>
</svg>
