<svg width="24" height="24" viewBox="0 0 24 24" fill="none" xmlns="http://www.w3.org/2000/svg">
<g id="icons/Edit/row-height">
<path id="Union" d="M5.02051 2.50098C5.0381 2.50133 5.05569 2.50165 5.07324 2.50293C5.09094 2.50421 5.10854 2.50562 5.12598 2.50781C5.13776 2.5093 5.1494 2.51177 5.16113 2.51367C5.17989 2.51671 5.19841 2.52034 5.2168 2.52441C5.2279 2.52687 5.23897 2.52939 5.25 2.53223C5.31728 2.54956 5.38137 2.57429 5.44238 2.60449C5.53767 2.65158 5.62768 2.71362 5.70703 2.79297L8.70703 5.79297C9.09751 6.18348 9.09751 6.81652 8.70703 7.20703C8.31652 7.59754 7.6835 7.59752 7.29297 7.20703L6 5.91406V18.0859L7.29297 16.793C7.6835 16.4025 8.31652 16.4025 8.70703 16.793C9.09751 17.1835 9.09751 17.8165 8.70703 18.207L5.70703 21.207C5.6605 21.2536 5.60864 21.2944 5.55371 21.3311C5.51458 21.3572 5.47428 21.3804 5.43262 21.4004C5.38712 21.4223 5.34001 21.4412 5.29102 21.4561C5.27428 21.4611 5.25717 21.4646 5.24023 21.4688C5.22463 21.4726 5.20924 21.4774 5.19336 21.4805C5.18626 21.4819 5.17899 21.4822 5.17188 21.4834C5.11594 21.4931 5.05872 21.5 5 21.5L4.89746 21.4951C4.87598 21.4929 4.85504 21.4879 4.83398 21.4844C4.82358 21.4826 4.81309 21.4816 4.80273 21.4795C4.79123 21.4772 4.77991 21.4744 4.76855 21.4717C4.74798 21.4668 4.72732 21.4623 4.70703 21.4561C4.65838 21.4412 4.61159 21.4222 4.56641 21.4004C4.52661 21.3812 4.48768 21.3597 4.4502 21.335C4.39354 21.2976 4.34078 21.2548 4.29297 21.207L1.29297 18.207C0.902444 17.8165 0.902444 17.1835 1.29297 16.793C1.6835 16.4025 2.31652 16.4025 2.70703 16.793L4 18.0859V5.91406L2.70703 7.20703C2.31652 7.59754 1.6835 7.59752 1.29297 7.20703C0.902444 6.81651 0.902444 6.18349 1.29297 5.79297L4.29297 2.79297C4.35014 2.7358 4.41478 2.68656 4.48438 2.64453C4.50432 2.63248 4.52436 2.62088 4.54492 2.61035C4.60726 2.57841 4.67312 2.55256 4.74219 2.53418C4.75876 2.52977 4.77525 2.52503 4.79199 2.52148C4.80296 2.51917 4.8141 2.51758 4.8252 2.51562C4.84271 2.51252 4.8603 2.50998 4.87793 2.50781C4.8957 2.50565 4.9136 2.50415 4.93164 2.50293C4.94758 2.50184 4.96353 2.50131 4.97949 2.50098C4.98629 2.50084 4.99317 2.5 5 2.5C5.00686 2.5 5.01368 2.50084 5.02051 2.50098ZM18 18.5C18.5522 18.5 19 18.9477 19 19.5C19 20.0523 18.5522 20.5 18 20.5H11C10.4477 20.5 10 20.0523 10 19.5C10 18.9477 10.4477 18.5 11 18.5H18ZM22 13.5C22.5522 13.5 23 13.9477 23 14.5C23 15.0523 22.5522 15.5 22 15.5H11C10.4477 15.5 10 15.0523 10 14.5C10 13.9477 10.4477 13.5 11 13.5H22ZM18 8.5C18.5522 8.50004 19 8.94774 19 9.5C19 10.0523 18.5522 10.5 18 10.5H11C10.4477 10.5 10 10.0523 10 9.5C10 8.94772 10.4477 8.5 11 8.5H18ZM22 3.5C22.5522 3.50004 23 3.94774 23 4.5C23 5.05226 22.5522 5.49996 22 5.5H11C10.4477 5.5 10 5.05228 10 4.5C10 3.94772 10.4477 3.5 11 3.5H22Z" fill="#9E9E9E"/>
</g>
</svg>
