<svg width="24" height="24" viewBox="0 0 24 24" fill="none" xmlns="http://www.w3.org/2000/svg">
<g id="icons/Edit/scale">
<path id="Union" d="M11 2C11.5523 2 12 2.44772 12 3C12 3.55228 11.5523 4 11 4H4V20H20V13C20 12.4477 20.4477 12 21 12C21.5523 12 22 12.4477 22 13V20C22 21.1046 21.1046 22 20 22H4C2.89544 22 2 21.1046 2 20V4C2 2.89543 2.89543 2 4 2H11ZM21 2C21.0563 2 21.1113 2.00571 21.165 2.01465C21.1738 2.01611 21.1827 2.01686 21.1914 2.01855L21.2012 2.02051C21.211 2.02252 21.2207 2.02504 21.2305 2.02734C21.251 2.0322 21.2717 2.0368 21.292 2.04297C21.3408 2.05783 21.3873 2.0778 21.4326 2.09961C21.4466 2.10634 21.4609 2.11269 21.4746 2.12012C21.6203 2.19887 21.7441 2.31255 21.835 2.4502C21.8597 2.48768 21.8812 2.52662 21.9004 2.56641C21.9222 2.61159 21.9412 2.65838 21.9561 2.70703C21.9623 2.72732 21.9668 2.74799 21.9717 2.76855C21.9893 2.84294 22 2.92022 22 3V9C22 9.55228 21.5523 10 21 10C20.4477 10 20 9.55228 20 9V5.41406L11.9141 13.5H15.5C16.0523 13.5 16.5 13.9477 16.5 14.5C16.5 15.0523 16.0523 15.5 15.5 15.5H9.5C9.44333 15.5 9.38808 15.4934 9.33398 15.4844C9.32358 15.4826 9.31309 15.4816 9.30273 15.4795C9.29123 15.4772 9.27991 15.4744 9.26855 15.4717C9.24799 15.4668 9.22732 15.4623 9.20703 15.4561C9.15838 15.4412 9.11159 15.4222 9.06641 15.4004C9.02662 15.3812 8.98768 15.3597 8.9502 15.335C8.81255 15.2441 8.69887 15.1203 8.62012 14.9746C8.61269 14.9609 8.60635 14.9466 8.59961 14.9326C8.5778 14.8873 8.55783 14.8408 8.54297 14.792C8.5303 14.7503 8.52176 14.7077 8.51465 14.665C8.50571 14.6113 8.5 14.5563 8.5 14.5V8.5C8.5 7.94772 8.94772 7.5 9.5 7.5C10.0523 7.5 10.5 7.94772 10.5 8.5V12.0859L18.5859 4H15C14.4477 4 14 3.55228 14 3C14 2.44772 14.4477 2 15 2H21Z" fill="#9E9E9E"/>
</g>
</svg>
