<svg width="24" height="24" viewBox="0 0 24 24" fill="none" xmlns="http://www.w3.org/2000/svg">
<g id="icons/Edit/scanning">
<path id="Union" d="M3 15C3.55228 15 4 15.4477 4 16V20H8C8.55228 20 9 20.4477 9 21C9 21.5523 8.55228 22 8 22H4C2.89544 22 2 21.1046 2 20V16C2 15.4477 2.44772 15 3 15ZM21 15C21.5523 15 22 15.4477 22 16V20C22 21.1046 21.1046 22 20 22H16C15.4477 22 15 21.5523 15 21C15 20.4477 15.4477 20 16 20H20V16C20 15.4477 20.4477 15 21 15ZM13.5 15C14.0523 15 14.5 15.4477 14.5 16C14.5 16.5523 14.0523 17 13.5 17H10.5C9.94772 17 9.5 16.5523 9.5 16C9.5 15.4477 9.94772 15 10.5 15H13.5ZM17 11C17.5523 11 18 11.4477 18 12C18 12.5523 17.5523 13 17 13H7C6.44772 13 6 12.5523 6 12C6 11.4477 6.44772 11 7 11H17ZM8 2C8.55228 2 9 2.44772 9 3C9 3.55228 8.55228 4 8 4H4V8C4 8.55228 3.55228 9 3 9C2.44772 9 2 8.55228 2 8V4C2 2.89543 2.89543 2 4 2H8ZM13.5 7C14.0523 7 14.5 7.44772 14.5 8C14.5 8.55228 14.0523 9 13.5 9H10.5C9.94772 9 9.5 8.55228 9.5 8C9.5 7.44772 9.94772 7 10.5 7H13.5ZM20 2C21.1046 2 22 2.89544 22 4V8C22 8.55228 21.5523 9 21 9C20.4477 9 20 8.55228 20 8V4H16C15.4477 4 15 3.55228 15 3C15 2.44772 15.4477 2 16 2H20Z" fill="#9E9E9E"/>
</g>
</svg>
