<svg width="24" height="24" viewBox="0 0 24 24" fill="none" xmlns="http://www.w3.org/2000/svg">
<g id="icons/Edit/scan">
<path id="Union" d="M4.5 21.5H2.5V19.5H4.5V21.5ZM9 21.5H7V19.5H9V21.5ZM12 2.5C12.5523 2.5 13 2.94772 13 3.5V11H20.5C21.0523 11 21.5 11.4477 21.5 12C21.5 12.5523 21.0523 13 20.5 13H13V20.5C13 21.0523 12.5523 21.5 12 21.5C11.4477 21.5 11 21.0523 11 20.5V13H3.5C2.94772 13 2.5 12.5523 2.5 12C2.5 11.4477 2.94772 11 3.5 11H11V3.5C11 2.94772 11.4477 2.5 12 2.5ZM17 21.5H15V19.5H17V21.5ZM21.5 21.5H19.5V19.5H21.5V21.5ZM4.5 15V17H2.5V15H4.5ZM21.5 17H19.5V15H21.5V17ZM4.5 9H2.5V7H4.5V9ZM21.5 9H19.5V7H21.5V9ZM4.5 4.5H2.5V2.5H4.5V4.5ZM9 4.5H7V2.5H9V4.5ZM17 4.5H15V2.5H17V4.5ZM21.5 4.5H19.5V2.5H21.5V4.5Z" fill="#9E9E9E"/>
</g>
</svg>
