<svg width="24" height="24" viewBox="0 0 24 24" fill="none" xmlns="http://www.w3.org/2000/svg">
<g id="icons/Edit/scatter-alignment">
<path id="Union" d="M17 16C17.5523 16 18 16.4477 18 17C18 17.5523 17.5523 18 17 18H3C2.44772 18 2 17.5523 2 17C2 16.4477 2.44772 16 3 16H17ZM19 11C19.5523 11 20 11.4477 20 12C20 12.5523 19.5523 13 19 13H5C4.44772 13 4 12.5523 4 12C4 11.4477 4.44772 11 5 11H19ZM21 6C21.5523 6 22 6.44772 22 7C22 7.55228 21.5523 8 21 8H7C6.44772 8 6 7.55228 6 7C6 6.44772 6.44772 6 7 6H21Z" fill="#9E9E9E"/>
</g>
</svg>
