<svg width="24" height="24" viewBox="0 0 24 24" fill="none" xmlns="http://www.w3.org/2000/svg">
<g id="icons/Edit/screenshot">
<path id="Union" d="M19.2451 3.38184C19.5865 2.94787 20.2153 2.87263 20.6494 3.21387C21.0833 3.55523 21.1586 4.18407 20.8174 4.61816C17.7407 8.53227 15.2389 11.6995 13.2803 14.1631C13.5051 14.4454 13.7203 14.717 13.9277 14.9766C14.4169 15.5885 14.8563 16.1338 15.2461 16.6162C15.8092 15.0891 17.2773 14 19 14C21.2091 14 23 15.7909 23 18C23 19.3151 22.3645 20.4809 21.3848 21.21C21.3484 21.2371 21.3115 21.2633 21.2744 21.2891C21.2575 21.3008 21.2407 21.3127 21.2236 21.3242C21.1934 21.3445 21.1625 21.3635 21.1318 21.3828C21.1061 21.3991 21.0808 21.416 21.0547 21.4316C21.0286 21.4473 21.0019 21.4616 20.9756 21.4766C20.9403 21.4967 20.9051 21.5171 20.8691 21.5361C20.8572 21.5425 20.845 21.5485 20.833 21.5547C20.7879 21.578 20.7424 21.6005 20.6963 21.6221C20.6782 21.6305 20.6598 21.6383 20.6416 21.6465C20.6047 21.6631 20.5678 21.6798 20.5303 21.6953C20.4977 21.7088 20.4645 21.7208 20.4316 21.7334C20.4037 21.7441 20.3759 21.7555 20.3477 21.7656C20.3249 21.7737 20.3021 21.7814 20.2793 21.7891C20.2347 21.8041 20.1898 21.8185 20.1445 21.832C20.1351 21.8349 20.1257 21.8381 20.1162 21.8408C20.0671 21.8551 20.0177 21.8685 19.9678 21.8809C19.9464 21.8862 19.9248 21.8906 19.9033 21.8955C19.8592 21.9057 19.8151 21.9161 19.7705 21.9248C19.7572 21.9274 19.7438 21.9292 19.7305 21.9316C19.6819 21.9406 19.6332 21.9498 19.584 21.957C19.5658 21.9597 19.5475 21.9614 19.5293 21.9639C19.3561 21.9868 19.1795 22 19 22C18.8245 22 18.6519 21.9868 18.4824 21.9648C18.459 21.9618 18.4355 21.9595 18.4121 21.9561C18.3702 21.9499 18.3286 21.943 18.2871 21.9355C18.2656 21.9317 18.2441 21.9281 18.2227 21.9238C18.1853 21.9165 18.1483 21.9078 18.1113 21.8994C18.0824 21.8929 18.0532 21.8871 18.0244 21.8799C17.985 21.87 17.9461 21.8587 17.9072 21.8477C17.887 21.8419 17.8668 21.8361 17.8467 21.8301C17.8096 21.8189 17.7729 21.8071 17.7363 21.7949C17.7043 21.7843 17.6724 21.7732 17.6406 21.7617C17.6237 21.7556 17.6067 21.7495 17.5898 21.7432C17.546 21.7267 17.5024 21.7095 17.459 21.6914C17.4357 21.6817 17.4127 21.6713 17.3896 21.6611C17.357 21.6468 17.3243 21.6324 17.292 21.6172C17.2594 21.6018 17.2274 21.5856 17.1953 21.5693C17.1692 21.5561 17.143 21.5431 17.1172 21.5293C17.0939 21.5169 17.0708 21.5041 17.0479 21.4912C17.0092 21.4696 16.9707 21.4478 16.9326 21.4248C16.9227 21.4188 16.9132 21.4123 16.9033 21.4062C16.6976 21.2794 16.5003 21.1333 16.3154 20.9658C16.2977 20.9497 16.2811 20.9324 16.2637 20.916C16.2327 20.887 16.2011 20.8584 16.1709 20.8281C16.153 20.8102 16.1349 20.7892 16.1143 20.7676C16.0838 20.7358 16.0528 20.7046 16.0234 20.6719C15.4825 20.0846 14.2656 18.6031 12.3652 16.2256C12.2464 16.0769 12.1255 15.9237 12.001 15.7676C11.8769 15.9229 11.7571 16.0757 11.6387 16.2236C9.73497 18.6017 8.51636 20.0847 7.97559 20.6719C7.94618 20.7046 7.91523 20.7358 7.88477 20.7676C7.86427 20.789 7.84691 20.8103 7.8291 20.8281C7.7987 20.8585 7.76648 20.8868 7.73535 20.916C7.71789 20.9324 7.70134 20.9497 7.68359 20.9658C7.49872 21.1333 7.30146 21.2795 7.0957 21.4062C7.08586 21.4123 7.0763 21.4188 7.06641 21.4248C7.02836 21.4478 6.9898 21.4696 6.95117 21.4912C6.92817 21.5041 6.90511 21.5169 6.88184 21.5293C6.85597 21.5431 6.82981 21.5561 6.80371 21.5693C6.77165 21.5856 6.73958 21.6018 6.70703 21.6172C6.67469 21.6324 6.64203 21.6468 6.60938 21.6611C6.5863 21.6713 6.56334 21.6817 6.54004 21.6914C6.49666 21.7095 6.45305 21.7267 6.40918 21.7432C6.39232 21.7495 6.37537 21.7556 6.3584 21.7617C6.32659 21.7732 6.29473 21.7843 6.2627 21.7949C6.22611 21.8071 6.18939 21.8189 6.15234 21.8301C6.1322 21.8361 6.11202 21.8419 6.0918 21.8477C6.05288 21.8587 6.014 21.87 5.97461 21.8799C5.94578 21.8871 5.91664 21.8929 5.8877 21.8994C5.85071 21.9078 5.81374 21.9165 5.77637 21.9238C5.75493 21.928 5.7334 21.9317 5.71191 21.9355C5.67045 21.943 5.62881 21.9499 5.58691 21.9561C5.56354 21.9595 5.54003 21.9618 5.5166 21.9648C5.3474 21.9867 5.17515 22 5 22C4.82017 22 4.64327 21.9869 4.46973 21.9639C4.45152 21.9614 4.43322 21.9597 4.41504 21.957C4.36584 21.9498 4.31715 21.9406 4.26855 21.9316C4.25524 21.9292 4.2418 21.9274 4.22852 21.9248C4.18389 21.9161 4.13978 21.9057 4.0957 21.8955C4.07424 21.8905 4.05264 21.8862 4.03125 21.8809C3.98138 21.8685 3.93192 21.8551 3.88281 21.8408C3.87332 21.8381 3.86397 21.8349 3.85449 21.832C3.8092 21.8185 3.76433 21.8041 3.71973 21.7891C3.69691 21.7814 3.67407 21.7737 3.65137 21.7656C3.6231 21.7555 3.59536 21.7441 3.56738 21.7334C3.5345 21.7208 3.50136 21.7088 3.46875 21.6953C3.43126 21.6798 3.39433 21.6631 3.35742 21.6465C3.33923 21.6383 3.32083 21.6305 3.30273 21.6221C3.25667 21.6004 3.2111 21.578 3.16602 21.5547C3.15399 21.5485 3.14186 21.5425 3.12988 21.5361C3.09391 21.5171 3.05874 21.4967 3.02344 21.4766C2.99712 21.4616 2.97038 21.4473 2.94434 21.4316C2.91822 21.416 2.89291 21.3991 2.86719 21.3828C2.83655 21.3635 2.8056 21.3445 2.77539 21.3242C2.75828 21.3127 2.74153 21.3008 2.72461 21.2891C2.68751 21.2633 2.65066 21.2371 2.61426 21.21C1.63486 20.4809 1.00001 19.3148 1 18C1 15.7909 2.79086 14 5 14C6.72301 14 8.19101 15.0896 8.75391 16.6172C9.14493 16.1338 9.586 15.5872 10.0771 14.9736C10.2844 14.7147 10.499 14.4436 10.7236 14.1621C8.76972 11.6989 6.27658 8.5314 3.21289 4.61621C2.87259 4.18133 2.94901 3.55328 3.38379 3.21289C3.81868 2.87258 4.44672 2.949 4.78711 3.38379C7.70145 7.10811 10.0976 10.1528 12.0029 12.5566C13.9134 10.1517 16.3177 7.10599 19.2451 3.38184ZM5 16C3.89543 16 3 16.8954 3 18C3.00001 19.1046 3.89544 20 5 20C5.0649 20 5.12969 19.9955 5.19434 19.9893C6.20764 19.8915 6.99999 19.0389 7 18C7 16.8954 6.10457 16 5 16ZM19 16C17.8954 16 17 16.8954 17 18C17 19.1046 17.8954 20 19 20C19.0649 20 19.1297 19.9955 19.1943 19.9893C20.2076 19.8915 21 19.0389 21 18C21 16.8954 20.1046 16 19 16Z" fill="#9E9E9E"/>
</g>
</svg>
