<svg width="24" height="24" viewBox="0 0 24 24" fill="none" xmlns="http://www.w3.org/2000/svg">
<g id="icons/Edit/screenshot-two">
<path id="Union" d="M17.1943 5.4082C17.5212 4.96312 18.1466 4.86758 18.5918 5.19434C19.0369 5.52114 19.1333 6.14662 18.8066 6.5918C16.4972 9.73819 14.6721 12.2774 13.2256 14.3125C13.8627 15.2139 14.4151 15.9991 14.8926 16.6816C15.0561 16.9154 15.2122 17.1355 15.3584 17.3447C15.988 15.9618 17.3814 15 19 15C21.2091 15 23 16.7909 23 19C23 20.3151 22.3645 21.4809 21.3848 22.21C21.3484 22.2371 21.3115 22.2633 21.2744 22.2891C21.2575 22.3008 21.2407 22.3127 21.2236 22.3242C21.1934 22.3445 21.1625 22.3635 21.1318 22.3828C21.1061 22.3991 21.0808 22.416 21.0547 22.4316C21.0291 22.447 21.0034 22.4618 20.9775 22.4766C20.9455 22.4948 20.9134 22.5129 20.8809 22.5303C20.858 22.5425 20.8346 22.5537 20.8115 22.5654C20.7734 22.5848 20.7351 22.6039 20.6963 22.6221C20.6782 22.6305 20.6598 22.6383 20.6416 22.6465C20.6047 22.6631 20.5678 22.6798 20.5303 22.6953C20.4977 22.7088 20.4645 22.7208 20.4316 22.7334C20.4037 22.7441 20.3759 22.7555 20.3477 22.7656C20.3249 22.7737 20.3021 22.7814 20.2793 22.7891C20.2347 22.8041 20.1898 22.8185 20.1445 22.832C20.1351 22.8349 20.1257 22.8381 20.1162 22.8408C20.0671 22.8551 20.0177 22.8685 19.9678 22.8809C19.9464 22.8862 19.9248 22.8906 19.9033 22.8955C19.8592 22.9057 19.8151 22.9161 19.7705 22.9248C19.7572 22.9274 19.7438 22.9292 19.7305 22.9316C19.6819 22.9406 19.6332 22.9498 19.584 22.957C19.5648 22.9598 19.5455 22.9613 19.5264 22.9639C19.354 22.9865 19.1785 23 19 23C18.8212 23 18.6453 22.9866 18.4727 22.9639C18.4535 22.9613 18.4342 22.9598 18.415 22.957C18.3658 22.9498 18.3172 22.9406 18.2686 22.9316C18.2552 22.9292 18.2418 22.9274 18.2285 22.9248C18.1839 22.9161 18.1398 22.9057 18.0957 22.8955C18.0742 22.8905 18.0526 22.8862 18.0312 22.8809C17.9814 22.8685 17.9319 22.8551 17.8828 22.8408C17.8733 22.8381 17.864 22.8349 17.8545 22.832C17.8092 22.8185 17.7643 22.8041 17.7197 22.7891C17.6969 22.7814 17.6741 22.7737 17.6514 22.7656C17.6231 22.7555 17.5954 22.7441 17.5674 22.7334C17.5345 22.7208 17.5014 22.7088 17.4688 22.6953C17.4313 22.6798 17.3943 22.6631 17.3574 22.6465C17.3392 22.6383 17.3208 22.6305 17.3027 22.6221C17.2639 22.6039 17.2256 22.5848 17.1875 22.5654C17.1644 22.5537 17.1411 22.5425 17.1182 22.5303C17.0859 22.513 17.0542 22.4947 17.0225 22.4766C16.9964 22.4617 16.9701 22.4471 16.9443 22.4316C16.9182 22.416 16.8929 22.3991 16.8672 22.3828C16.8366 22.3635 16.8056 22.3445 16.7754 22.3242C16.7583 22.3127 16.7415 22.3008 16.7246 22.2891C16.6875 22.2633 16.6507 22.2371 16.6143 22.21C16.3009 21.9767 16.0223 21.6992 15.7891 21.3857C15.5996 21.1472 15.3819 20.8531 15.1338 20.5068C14.6827 19.8772 14.0734 18.9996 13.2539 17.8281C12.8826 17.2974 12.4665 16.704 12 16.042C11.5334 16.704 11.1174 17.2974 10.7461 17.8281C9.92651 18.9997 9.31732 19.8772 8.86621 20.5068C8.61797 20.8533 8.39932 21.147 8.20996 21.3857C8.09915 21.5346 7.97766 21.6747 7.84766 21.8066C7.84097 21.8135 7.8357 21.8215 7.8291 21.8281C7.7987 21.8585 7.76648 21.8868 7.73535 21.916C7.71789 21.9324 7.70134 21.9497 7.68359 21.9658C7.49872 22.1333 7.30146 22.2795 7.0957 22.4062C7.08586 22.4123 7.0763 22.4188 7.06641 22.4248C7.02836 22.4478 6.9898 22.4696 6.95117 22.4912C6.92817 22.5041 6.90511 22.5169 6.88184 22.5293C6.85597 22.5431 6.82981 22.5561 6.80371 22.5693C6.77165 22.5856 6.73958 22.6018 6.70703 22.6172C6.67469 22.6324 6.64203 22.6468 6.60938 22.6611C6.5863 22.6713 6.56334 22.6817 6.54004 22.6914C6.49666 22.7095 6.45305 22.7267 6.40918 22.7432C6.39232 22.7495 6.37537 22.7556 6.3584 22.7617C6.32659 22.7732 6.29473 22.7843 6.2627 22.7949C6.22611 22.8071 6.18939 22.8189 6.15234 22.8301C6.1322 22.8361 6.11202 22.8419 6.0918 22.8477C6.05288 22.8587 6.014 22.87 5.97461 22.8799C5.94578 22.8871 5.91664 22.8929 5.8877 22.8994C5.85071 22.9078 5.81374 22.9165 5.77637 22.9238C5.75493 22.928 5.7334 22.9317 5.71191 22.9355C5.67045 22.943 5.62881 22.9499 5.58691 22.9561C5.56354 22.9595 5.54003 22.9618 5.5166 22.9648C5.34771 22.9866 5.17579 23 5.00098 23L5 22.999V23C4.82017 23 4.64328 22.9869 4.46973 22.9639C4.45152 22.9614 4.43322 22.9597 4.41504 22.957C4.36584 22.9498 4.31715 22.9406 4.26855 22.9316C4.25524 22.9292 4.2418 22.9274 4.22852 22.9248C4.18389 22.9161 4.13978 22.9057 4.0957 22.8955C4.07424 22.8905 4.05264 22.8862 4.03125 22.8809C3.98138 22.8685 3.93192 22.8551 3.88281 22.8408C3.87332 22.8381 3.86397 22.8349 3.85449 22.832C3.8092 22.8185 3.76433 22.8041 3.71973 22.7891C3.69691 22.7814 3.67407 22.7737 3.65137 22.7656C3.6231 22.7555 3.59536 22.7441 3.56738 22.7334C3.5345 22.7208 3.50136 22.7088 3.46875 22.6953C3.43126 22.6798 3.39433 22.6631 3.35742 22.6465C3.33923 22.6383 3.32083 22.6305 3.30273 22.6221C3.25667 22.6004 3.2111 22.578 3.16602 22.5547C3.15399 22.5485 3.14186 22.5425 3.12988 22.5361C3.09391 22.5171 3.05874 22.4967 3.02344 22.4766C2.99712 22.4616 2.97038 22.4473 2.94434 22.4316C2.91822 22.416 2.89291 22.3991 2.86719 22.3828C2.83655 22.3635 2.80561 22.3445 2.77539 22.3242C2.75828 22.3127 2.74153 22.3008 2.72461 22.2891C2.68751 22.2633 2.65066 22.2371 2.61426 22.21C1.63486 21.4809 1 20.3148 1 19C1 16.7909 2.79086 15 5 15C6.6185 15 8.01092 15.962 8.64062 17.3447C8.7869 17.1354 8.94378 16.9156 9.10742 16.6816C9.58495 15.999 10.1363 15.213 10.7734 14.3115C9.32726 12.2766 7.50323 9.73742 5.19434 6.5918C4.86761 6.14667 4.96322 5.52119 5.4082 5.19434C5.85333 4.86761 6.47881 4.96322 6.80566 5.4082C8.9117 8.27745 10.6166 10.644 12 12.585C13.3834 10.6441 15.0883 8.27749 17.1943 5.4082ZM5 17C3.89543 17 3 17.8954 3 19C3 19.5523 3.22401 20.0521 3.58594 20.4141C3.63324 20.4614 3.68275 20.5053 3.7334 20.5469C4.07837 20.8297 4.51912 21 5 21C5.55228 21 6.05213 20.776 6.41406 20.4141C6.45477 20.3734 6.50612 20.3128 6.57422 20.2295C6.8397 19.8901 7 19.4643 7 19C7 17.8954 6.10457 17 5 17ZM19 17C17.8954 17 17 17.8954 17 19C17 19.4641 17.1595 19.8901 17.4248 20.2295C17.4931 20.313 17.5451 20.3733 17.5859 20.4141C17.6332 20.4614 17.6827 20.5053 17.7334 20.5469C18.0784 20.8297 18.5191 21 19 21C20.1046 21 21 20.1046 21 19C21 17.8954 20.1046 17 19 17ZM22 1C22.5523 1 23 1.44772 23 2V12C23 12.5523 22.5523 13 22 13C21.4477 13 21 12.5523 21 12V3H3V12C3 12.5523 2.55228 13 2 13C1.44772 13 1 12.5523 1 12V2C1 1.44772 1.44772 1 2 1H22Z" fill="#9E9E9E"/>
</g>
</svg>
