<svg width="24" height="24" viewBox="0 0 24 24" fill="none" xmlns="http://www.w3.org/2000/svg">
<g id="icons/Edit/selected-focus">
<path id="Union" d="M4 16.75C4.253 16.75 4.48306 16.8451 4.65918 17H6C6.55228 17 7 17.4477 7 18V19.3398C7.15521 19.516 7.25 19.7467 7.25 20C7.25 20.253 7.15492 20.4831 7 20.6592V22C7 22.5523 6.55228 23 6 23H2C1.44772 23 1 22.5523 1 22V18C1 17.4477 1.44772 17 2 17H3.34082C3.51694 16.8451 3.747 16.75 4 16.75ZM20 16.75C20.253 16.75 20.4831 16.8451 20.6592 17H22C22.5523 17 23 17.4477 23 18V22C23 22.5523 22.5523 23 22 23H18C17.4477 23 17 22.5523 17 22V20.6592C16.8451 20.4831 16.75 20.253 16.75 20C16.75 19.7467 16.8448 19.516 17 19.3398V18C17 17.4477 17.4477 17 18 17H19.3408C19.5169 16.8451 19.747 16.75 20 16.75ZM3 21H5V19H3V21ZM9.25 19C9.80229 19 10.25 19.4477 10.25 20C10.25 20.5523 9.80229 21 9.25 21H8.75C8.19772 21 7.75 20.5523 7.75 20C7.75 19.4477 8.19772 19 8.75 19H9.25ZM12.25 19C12.8023 19 13.25 19.4477 13.25 20C13.25 20.5523 12.8023 21 12.25 21H11.75C11.1977 21 10.75 20.5523 10.75 20C10.75 19.4477 11.1977 19 11.75 19H12.25ZM15.25 19C15.8023 19 16.25 19.4477 16.25 20C16.25 20.5523 15.8023 21 15.25 21H14.75C14.1977 21 13.75 20.5523 13.75 20C13.75 19.4477 14.1977 19 14.75 19H15.25ZM19 21H21V19H19V21ZM4 13.75C4.55228 13.75 5 14.1977 5 14.75V15.25C5 15.8023 4.55228 16.25 4 16.25C3.44772 16.25 3 15.8023 3 15.25V14.75C3 14.1977 3.44772 13.75 4 13.75ZM20 13.75C20.5523 13.75 21 14.1977 21 14.75V15.25C21 15.8023 20.5523 16.25 20 16.25C19.4477 16.25 19 15.8023 19 15.25V14.75C19 14.1977 19.4477 13.75 20 13.75ZM4 10.75C4.55228 10.75 5 11.1977 5 11.75V12.25C5 12.8023 4.55228 13.25 4 13.25C3.44772 13.25 3 12.8023 3 12.25V11.75C3 11.1977 3.44772 10.75 4 10.75ZM20 10.75C20.5523 10.75 21 11.1977 21 11.75V12.25C21 12.8023 20.5523 13.25 20 13.25C19.4477 13.25 19 12.8023 19 12.25V11.75C19 11.1977 19.4477 10.75 20 10.75ZM4 7.75C4.55228 7.75 5 8.19772 5 8.75V9.25C5 9.80229 4.55228 10.25 4 10.25C3.44772 10.25 3 9.80229 3 9.25V8.75C3 8.19772 3.44772 7.75 4 7.75ZM20 7.75C20.5523 7.75 21 8.19772 21 8.75V9.25C21 9.80229 20.5523 10.25 20 10.25C19.4477 10.25 19 9.80229 19 9.25V8.75C19 8.19772 19.4477 7.75 20 7.75ZM6 1C6.55228 1 7 1.44772 7 2V3.33984C7.15521 3.51604 7.25 3.74674 7.25 4C7.25 4.253 7.15492 4.48306 7 4.65918V6C7 6.55228 6.55228 7 6 7H4.65918C4.48306 7.15492 4.253 7.25 4 7.25C3.747 7.25 3.51694 7.15492 3.34082 7H2C1.44772 7 1 6.55228 1 6V2C1 1.44772 1.44772 1 2 1H6ZM22 1C22.5523 1 23 1.44772 23 2V6C23 6.55228 22.5523 7 22 7H20.6592C20.4831 7.15492 20.253 7.25 20 7.25C19.747 7.25 19.5169 7.15492 19.3408 7H18C17.4477 7 17 6.55228 17 6V4.65918C16.8451 4.48306 16.75 4.253 16.75 4C16.75 3.74674 16.8448 3.51604 17 3.33984V2C17 1.44772 17.4477 1 18 1H22ZM3 5H5V3H3V5ZM9.25 3C9.80229 3 10.25 3.44772 10.25 4C10.25 4.55228 9.80229 5 9.25 5H8.75C8.19772 5 7.75 4.55228 7.75 4C7.75 3.44772 8.19772 3 8.75 3H9.25ZM12.25 3C12.8023 3 13.25 3.44772 13.25 4C13.25 4.55228 12.8023 5 12.25 5H11.75C11.1977 5 10.75 4.55228 10.75 4C10.75 3.44772 11.1977 3 11.75 3H12.25ZM15.25 3C15.8023 3 16.25 3.44772 16.25 4C16.25 4.55228 15.8023 5 15.25 5H14.75C14.1977 5 13.75 4.55228 13.75 4C13.75 3.44772 14.1977 3 14.75 3H15.25ZM19 5H21V3H19V5Z" fill="#9E9E9E"/>
</g>
</svg>
