<svg width="24" height="24" viewBox="0 0 24 24" fill="none" xmlns="http://www.w3.org/2000/svg">
<g id="icons/Edit/send-to-back">
<path id="Union" d="M10.5 1.5C11.0523 1.5 11.5 1.94772 11.5 2.5V6H16C16.5523 6 17 6.44772 17 7V12.5H21.5C22.0523 12.5 22.5 12.9477 22.5 13.5V21.5C22.5 22.0523 22.0523 22.5 21.5 22.5H13.5C12.9477 22.5 12.5 22.0523 12.5 21.5V17H7C6.44772 17 6 16.5523 6 16V11.5H2.5C1.94772 11.5 1.5 11.0523 1.5 10.5V2.5C1.5 1.94772 1.94772 1.5 2.5 1.5H10.5ZM17 16C17 16.5523 16.5523 17 16 17H14.5V20.5H20.5V14.5H17V16ZM8 15H15V8H8V15ZM3.5 9.5H6V7C6 6.44772 6.44772 6 7 6H9.5V3.5H3.5V9.5Z" fill="#9E9E9E"/>
</g>
</svg>
