<svg width="24" height="24" viewBox="0 0 24 24" fill="none" xmlns="http://www.w3.org/2000/svg">
<g id="icons/Edit/send-backward">
<path id="Union" d="M21 2C21.5523 2 22 2.44772 22 3V7C22 7.55228 21.5523 8 21 8H13V9H21C21.5523 9 22 9.44772 22 10V14C22 14.5523 21.5523 15 21 15H13V18.5859L14.293 17.293C14.6835 16.9024 15.3165 16.9024 15.707 17.293C16.0976 17.6835 16.0976 18.3165 15.707 18.707L12.707 21.707C12.6592 21.7548 12.6065 21.7976 12.5498 21.835C12.5121 21.8599 12.4727 21.8811 12.4326 21.9004C12.3874 21.9222 12.3407 21.9412 12.292 21.9561C12.2717 21.9622 12.251 21.9668 12.2305 21.9717C12.2191 21.9744 12.2078 21.9772 12.1963 21.9795C12.1859 21.9816 12.1754 21.9826 12.165 21.9844C12.1112 21.9933 12.0563 22 12 22C11.9433 22 11.8881 21.9934 11.834 21.9844C11.8236 21.9826 11.8131 21.9816 11.8027 21.9795C11.7912 21.9772 11.7799 21.9744 11.7686 21.9717C11.748 21.9668 11.7273 21.9623 11.707 21.9561C11.6584 21.9412 11.6116 21.9222 11.5664 21.9004C11.5266 21.8812 11.4877 21.8597 11.4502 21.835C11.3935 21.7976 11.3408 21.7548 11.293 21.707L8.29297 18.707C7.90244 18.3165 7.90244 17.6835 8.29297 17.293C8.68349 16.9024 9.31651 16.9024 9.70703 17.293L11 18.5859V15H3C2.44772 15 2 14.5523 2 14V10C2 9.44772 2.44772 9 3 9H11V8H3C2.44772 8 2 7.55228 2 7V3C2 2.44772 2.44772 2 3 2H21ZM4 13H20V11H4V13ZM4 6H20V4H4V6Z" fill="#9E9E9E"/>
</g>
</svg>
