<svg width="24" height="24" viewBox="0 0 24 24" fill="none" xmlns="http://www.w3.org/2000/svg">
<g id="icons/Edit/sent-to-back">
<path id="Union" d="M15 7C15.5523 7 16 7.44772 16 8H20.5C21.3284 8 22 8.67157 22 9.5V20.5C22 21.3284 21.3284 22 20.5 22H9.5C8.67157 22 8 21.3284 8 20.5V16H7.99609C7.44381 16 6.99609 15.5523 6.99609 15C6.99609 14.4477 7.44381 14 7.99609 14H10C10.5522 14.0001 11 14.4478 11 15C11 15.5522 10.5522 15.9999 10 16V20H20V10H16V10.0078C15.9998 10.5599 15.5521 11.0078 15 11.0078C14.4479 11.0078 14.0002 10.5599 14 10.0078V8C14 7.44772 14.4477 7 15 7ZM3 12.0059C3.55228 12.0059 4 12.4536 4 13.0059V14H4.99805C5.55033 14 5.99805 14.4477 5.99805 15C5.99797 15.5522 5.55028 16 4.99805 16H3C2.44776 16 2.00008 15.5522 2 15V13.0059C2 12.4536 2.44772 12.0059 3 12.0059ZM14.999 12.0059C15.5511 12.0061 15.999 12.4537 15.999 13.0059V15C15.9989 15.5521 15.551 15.9997 14.999 16H13C12.4478 16 12.0001 15.5522 12 15C12 14.4477 12.4477 14 13 14H13.999V13.0059C13.999 12.4536 14.4467 12.0059 14.999 12.0059ZM3 7C3.55228 7 4 7.44772 4 8V10.0078C3.99978 10.5599 3.55215 11.0078 3 11.0078C2.44785 11.0078 2.00022 10.5599 2 10.0078V8C2 7.44772 2.44772 7 3 7ZM4.98438 2C5.53666 2 5.98438 2.44772 5.98438 3C5.98438 3.55228 5.53666 4 4.98438 4H4V5.0166C4 5.56889 3.55228 6.0166 3 6.0166C2.44772 6.0166 2 5.56889 2 5.0166V3C2 2.44772 2.44772 2 3 2H4.98438ZM15.1025 2.00488C15.6066 2.05629 16 2.48238 16 3V4.99902C15.9999 5.55121 15.5522 5.99893 15 5.99902C14.4478 5.99896 14.0001 5.55122 14 4.99902V4H13.001C12.4487 3.99993 12.001 3.55224 12.001 3C12.001 2.44776 12.4487 2.00007 13.001 2H15L15.1025 2.00488ZM10.0039 2C10.5561 2.00013 11.0039 2.44779 11.0039 3C11.0039 3.55221 10.5561 3.99987 10.0039 4H8.01367C7.46139 4 7.01367 3.55228 7.01367 3C7.01367 2.44772 7.46139 2 8.01367 2H10.0039Z" fill="#9E9E9E"/>
</g>
</svg>
