<svg width="24" height="24" viewBox="0 0 24 24" fill="none" xmlns="http://www.w3.org/2000/svg">
<g id="icons/Edit/share-two">
<path id="Union" d="M12.6172 1.07617C12.9909 0.921391 13.421 1.00697 13.707 1.29297L22.707 10.293C22.8981 10.484 23.0039 10.7445 23 11.0146C22.996 11.2846 22.8827 11.5412 22.6865 11.7266L13.6865 20.2266C13.3963 20.5007 12.9711 20.5759 12.6045 20.418C12.2378 20.2599 12 19.8993 12 19.5V15.0596C9.40661 15.3684 7.47994 16.8486 6.13086 18.4053C5.37473 19.2778 4.81852 20.154 4.45215 20.8135C4.26958 21.1421 4.1358 21.4142 4.04883 21.6006C4.00546 21.6935 3.9741 21.7651 3.9541 21.8115C3.94411 21.8347 3.93681 21.8522 3.93262 21.8623C3.9306 21.8672 3.92935 21.8705 3.92871 21.8721C3.75052 22.3168 3.28108 22.573 2.81055 22.4824C2.33997 22.3917 2.00001 21.9793 2 21.5C2 17.1891 2.62696 13.4537 4.3457 10.7725C5.96914 8.2401 8.48921 6.76407 12 6.53223V2C12 1.59559 12.2436 1.23099 12.6172 1.07617ZM14 7.5C14 8.05227 13.5523 8.5 13 8.5C9.53696 8.5 7.38067 9.7444 6.0293 11.8525C5.09844 13.3048 4.5126 15.2267 4.22168 17.5752C4.34852 17.4162 4.48027 17.255 4.61914 17.0947C6.35206 15.0952 9.1047 13 13 13C13.5523 13 14 13.4477 14 14V17.1797L20.5654 10.9795L14 4.41406V7.5Z" fill="#9E9E9E"/>
</g>
</svg>
