<svg width="24" height="24" viewBox="0 0 24 24" fill="none" xmlns="http://www.w3.org/2000/svg">
<g id="icons/Edit/shutter-priority">
<path id="Union" d="M15.1406 2.00977C15.4628 2.05546 15.7464 2.25641 15.8945 2.55273L17.1182 5H20.5C21.8146 5 23 6.01105 23 7.40039V19.5996C23 20.9889 21.8146 22 20.5 22H3.5C2.26742 22 1.14851 21.1115 1.01367 19.8555L1 19.5996V7.40039C1 6.01104 2.18539 5 3.5 5H6.88184L8.10547 2.55273L8.17676 2.43164C8.36169 2.16367 8.66854 2 9 2H15L15.1406 2.00977ZM3.5 7C3.15776 7 3 7.24334 3 7.40039V19.5996L3.00781 19.6621C3.04265 19.8138 3.20048 20 3.5 20H20.5C20.8423 20 21 19.7567 21 19.5996V7.40039C21 7.24333 20.8423 7 20.5 7H3.5ZM13.957 9.00098C14.5087 8.97725 14.9752 9.40532 14.999 9.95703C15.0228 10.5087 14.5947 10.9752 14.043 10.999C13.3465 11.0291 12.3181 11.1569 11.4951 11.4229C11.079 11.5573 10.7856 11.705 10.6152 11.8408C10.5789 11.8697 10.5533 11.8939 10.5352 11.9131C10.5744 11.942 10.6362 11.9816 10.7324 12.0303C11.0913 12.2117 11.606 12.3564 12.2627 12.5352C12.8559 12.6966 13.5913 12.8921 14.1699 13.1846C14.7325 13.469 15.5 14.0299 15.5 15.0557C15.5 15.8579 15.009 16.4147 14.5361 16.7539C14.0644 17.0922 13.4714 17.3233 12.9043 17.4883C11.7576 17.8218 10.4201 17.9648 9.53906 17.999C8.98727 18.0205 8.52255 17.5908 8.50098 17.0391C8.47952 16.4873 8.90918 16.0225 9.46094 16.001C10.2465 15.9704 11.4091 15.8408 12.3457 15.5684C12.8202 15.4303 13.1648 15.2752 13.3701 15.1279C13.3997 15.1067 13.4215 15.0856 13.4404 15.0693C13.4013 15.0427 13.3457 15.0092 13.2676 14.9697C12.9087 14.7883 12.394 14.6436 11.7373 14.4648C11.1441 14.3034 10.4087 14.1079 9.83008 13.8154C9.26748 13.531 8.5 12.9701 8.5 11.9443C8.50004 11.1884 8.91919 10.636 9.36914 10.2773C9.80815 9.92744 10.3585 9.68806 10.8799 9.51953C11.9318 9.17955 13.1535 9.03569 13.957 9.00098ZM9.11816 5H14.8818L14.3818 4H9.61816L9.11816 5Z" fill="#9E9E9E"/>
</g>
</svg>
