<svg width="24" height="24" viewBox="0 0 24 24" fill="none" xmlns="http://www.w3.org/2000/svg">
<g id="icons/Edit/sort-amount-down">
<path id="Union" d="M7.00012 2.5C7.55237 2.50004 8.00012 2.94774 8.00012 3.5V20.5C8.00012 20.5563 7.99345 20.6112 7.9845 20.665C7.97737 20.7078 7.96887 20.7503 7.95618 20.792C7.95202 20.8056 7.94625 20.8186 7.94153 20.832C7.92437 20.8808 7.90397 20.9285 7.87903 20.9746C7.80115 21.1185 7.68931 21.2406 7.55383 21.3311C7.5147 21.3572 7.4744 21.3804 7.43274 21.4004C7.38725 21.4223 7.34014 21.4412 7.29114 21.4561C7.2744 21.4611 7.25729 21.4646 7.24036 21.4688C7.22476 21.4726 7.20936 21.4774 7.19348 21.4805C7.18639 21.4819 7.17912 21.4822 7.172 21.4834C7.11606 21.4931 7.05884 21.5 7.00012 21.5L6.89758 21.4951C6.8761 21.4929 6.85516 21.4879 6.83411 21.4844C6.8237 21.4826 6.81321 21.4816 6.80286 21.4795C6.79135 21.4772 6.78003 21.4744 6.76868 21.4717C6.74811 21.4668 6.72744 21.4623 6.70715 21.4561C6.6585 21.4412 6.61171 21.4222 6.56653 21.4004C6.52674 21.3812 6.48781 21.3597 6.45032 21.335C6.39366 21.2976 6.3409 21.2548 6.29309 21.207L2.29309 17.207C1.90257 16.8165 1.90257 16.1835 2.29309 15.793C2.68362 15.4025 3.31664 15.4025 3.70715 15.793L6.00012 18.0859V3.5C6.00012 2.94772 6.44784 2.5 7.00012 2.5ZM15.5001 18C16.0524 18 16.5001 18.4477 16.5001 19C16.5001 19.5523 16.0524 20 15.5001 20H11.5001C10.9478 20 10.5001 19.5523 10.5001 19C10.5001 18.4477 10.9478 18 11.5001 18H15.5001ZM17.5001 13C18.0524 13 18.5001 13.4477 18.5001 14C18.5001 14.5523 18.0524 15 17.5001 15H11.5001C10.9478 15 10.5001 14.5523 10.5001 14C10.5001 13.4477 10.9478 13 11.5001 13H17.5001ZM19.5001 8C20.0524 8.00004 20.5001 8.44774 20.5001 9C20.5001 9.55226 20.0524 9.99996 19.5001 10H11.5001C10.9478 10 10.5001 9.55228 10.5001 9C10.5001 8.44772 10.9478 8 11.5001 8H19.5001ZM21.5001 3C22.0524 3.00004 22.5001 3.44774 22.5001 4C22.5001 4.55226 22.0524 4.99996 21.5001 5H11.5001C10.9478 5 10.5001 4.55228 10.5001 4C10.5001 3.44772 10.9478 3 11.5001 3H21.5001Z" fill="#9E9E9E"/>
</g>
</svg>
