<svg width="24" height="24" viewBox="0 0 24 24" fill="none" xmlns="http://www.w3.org/2000/svg">
<g id="icons/Edit/sort-amount-up">
<path id="Union" d="M6.60266 3.00488C6.62608 3.00727 6.64908 3.01165 6.672 3.01562C6.71207 3.02259 6.75199 3.0311 6.79114 3.04297C6.84023 3.05788 6.88716 3.07767 6.93274 3.09961C6.97424 3.11956 7.01484 3.14195 7.05383 3.16797C7.18298 3.2541 7.28998 3.36972 7.36731 3.50488C7.39718 3.55712 7.42185 3.61124 7.44153 3.66699C7.44626 3.68037 7.45201 3.6934 7.45618 3.70703C7.45835 3.71414 7.46003 3.72137 7.46204 3.72852C7.48637 3.8149 7.50012 3.90584 7.50012 4V21C7.50012 21.5523 7.05237 22 6.50012 22C5.94784 22 5.50012 21.5523 5.50012 21V6.41406L3.20715 8.70703C2.81664 9.09754 2.18362 9.09752 1.79309 8.70703C1.40257 8.31651 1.40257 7.68349 1.79309 7.29297L5.79309 3.29297C5.86124 3.22482 5.93909 3.16639 6.02454 3.12012C6.03828 3.11268 6.05252 3.10635 6.06653 3.09961C6.1118 3.07777 6.1584 3.05787 6.20715 3.04297C6.22742 3.03678 6.24813 3.03221 6.26868 3.02734C6.28002 3.02465 6.29136 3.02183 6.30286 3.01953C6.3048 3.01914 6.30677 3.01893 6.30872 3.01855L6.39758 3.00488C6.43126 3.00146 6.46554 3 6.50012 3L6.60266 3.00488ZM15.5001 18.5C16.0524 18.5 16.5001 18.9477 16.5001 19.5C16.5001 20.0523 16.0524 20.5 15.5001 20.5H11.5001C10.9478 20.5 10.5001 20.0523 10.5001 19.5C10.5001 18.9477 10.9478 18.5 11.5001 18.5H15.5001ZM17.5001 13.5C18.0524 13.5 18.5001 13.9477 18.5001 14.5C18.5001 15.0523 18.0524 15.5 17.5001 15.5H11.5001C10.9478 15.5 10.5001 15.0523 10.5001 14.5C10.5001 13.9477 10.9478 13.5 11.5001 13.5H17.5001ZM19.5001 8.5C20.0524 8.50004 20.5001 8.94774 20.5001 9.5C20.5001 10.0523 20.0524 10.5 19.5001 10.5H11.5001C10.9478 10.5 10.5001 10.0523 10.5001 9.5C10.5001 8.94772 10.9478 8.5 11.5001 8.5H19.5001ZM21.5001 3.5C22.0524 3.50004 22.5001 3.94774 22.5001 4.5C22.5001 5.05226 22.0524 5.49996 21.5001 5.5H11.5001C10.9478 5.5 10.5001 5.05228 10.5001 4.5C10.5001 3.94772 10.9478 3.5 11.5001 3.5H21.5001Z" fill="#9E9E9E"/>
</g>
</svg>
