<svg width="24" height="24" viewBox="0 0 24 24" fill="none" xmlns="http://www.w3.org/2000/svg">
<g id="icons/Edit/split-cells">
<path id="Union" d="M9.5 1C10.3284 1 11 1.67159 11 2.5V21.5C11 22.3284 10.3284 23 9.5 23H2.5C1.67159 23 1 22.3284 1 21.5V17C1 16.4477 1.44772 16 2 16C2.55228 16 3 16.4477 3 17V21H9V13L4.40332 13.0039L5.08496 13.6846C5.47548 14.0751 5.47549 14.7091 5.08496 15.0996C4.69455 15.4899 4.06141 15.4897 3.6709 15.0996L1.28418 12.7129C1.09669 12.5254 0.991269 12.271 0.991211 12.0059C0.991209 11.7407 1.09671 11.4864 1.28418 11.2988L3.6709 8.91211C4.06143 8.5217 4.69448 8.52163 5.08496 8.91211C5.47533 9.3026 5.47533 9.93568 5.08496 10.3262L4.40625 11.0039L9 11V3H3V7C3 7.55228 2.55228 8 2 8C1.44772 8 1 7.55228 1 7V2.5C1 1.67158 1.67158 1 2.5 1H9.5ZM21.5 1C22.3284 1 23 1.67159 23 2.5V7C23 7.55228 22.5523 8 22 8C21.4477 8 21 7.55228 21 7V3H15V11L19.5859 11.0039L18.9062 10.3242C18.5157 9.93369 18.5157 9.30068 18.9062 8.91016C19.2968 8.51963 19.9298 8.51963 20.3203 8.91016L22.707 11.2969C22.871 11.461 22.9724 11.6763 22.9951 11.9053C22.9985 11.939 23 11.9732 23 12.0078C22.9996 12.2989 22.8736 12.5596 22.6748 12.7422L20.3203 15.0977C19.9298 15.4879 19.2967 15.4879 18.9062 15.0977C18.5157 14.7071 18.5157 14.0731 18.9062 13.6826L19.585 13.0039L15 13V21H21V17C21 16.4477 21.4477 16 22 16C22.5523 16 23 16.4477 23 17V21.5C23 22.3284 22.3284 23 21.5 23H14.5C13.6716 23 13 22.3284 13 21.5V2.5C13 1.67159 13.6716 1 14.5 1H21.5Z" fill="#9E9E9E"/>
</g>
</svg>
