<svg width="24" height="24" viewBox="0 0 24 24" fill="none" xmlns="http://www.w3.org/2000/svg">
<g id="icons/Edit/split">
<path id="Union" d="M13.5 8C14.6046 8 15.5 8.89543 15.5 10V20C15.5 21.1046 14.6046 22 13.5 22H3.5C2.39543 22 1.5 21.1046 1.5 20V10C1.5 8.89543 2.39543 8 3.5 8H13.5ZM3.5 20H13.5V10H3.5V20ZM20.5 1.5C21.6046 1.5 22.5 2.39544 22.5 3.5V14.5C22.5 15.6046 21.6046 16.5 20.5 16.5H18.5C17.9477 16.5 17.5 16.0523 17.5 15.5C17.5 14.9477 17.9477 14.5 18.5 14.5H20.5V3.5H10.5V5C10.5 5.55228 10.0523 6 9.5 6C8.94772 6 8.5 5.55228 8.5 5V3.5C8.5 2.39544 9.39541 1.5 10.5 1.5H20.5Z" fill="#9E9E9E"/>
</g>
</svg>
