<svg width="24" height="24" viewBox="0 0 24 24" fill="none" xmlns="http://www.w3.org/2000/svg">
<g id="icons/Edit/stamp">
<path id="Union" d="M19.0002 1.7002C19.3983 1.40179 19.955 1.44131 20.3069 1.79297L22.2073 3.69336C22.5589 4.04522 22.5984 4.60199 22.3 5L21.3245 6.2998L22.3 7.59961C22.5666 7.9551 22.5666 8.44428 22.3 8.7998L21.3245 10.0996L22.3 11.4004C22.5665 11.7558 22.5664 12.2442 22.3 12.5996L21.3245 13.8994L22.3 15.2002C22.5666 15.5557 22.5666 16.0449 22.3 16.4004L21.3245 17.6992L22.3 19C22.5985 19.398 22.5588 19.9547 22.2073 20.3066L20.3069 22.207C19.955 22.5587 19.3983 22.5983 19.0002 22.2998L17.6995 21.3242L16.4006 22.2998C16.0451 22.5664 15.556 22.5664 15.2004 22.2998L13.8997 21.3242L12.5999 22.2998C12.2444 22.5663 11.7561 22.5662 11.4006 22.2998L10.0999 21.3242L8.80005 22.2998C8.44453 22.5664 7.95539 22.5664 7.59985 22.2998L6.30005 21.3242L5.00024 22.2998C4.60222 22.5983 4.04551 22.5587 3.6936 22.207L1.79321 20.3066C1.4415 19.9547 1.4019 19.398 1.70044 19L2.67505 17.6992L1.70044 16.4004C1.43378 16.0448 1.4338 15.5557 1.70044 15.2002L2.67505 13.8994L1.70044 12.5996C1.43393 12.2441 1.43393 11.7559 1.70044 11.4004L2.67505 10.0996L1.70044 8.7998C1.4338 8.44425 1.43378 7.95515 1.70044 7.59961L2.67505 6.2998L1.70044 5C1.4019 4.60195 1.4415 4.04526 1.79321 3.69336L3.6936 1.79297L3.76099 1.73047C4.1136 1.43722 4.62699 1.42025 5.00024 1.7002L6.30005 2.6748L7.59985 1.7002C7.95539 1.43366 8.44455 1.43359 8.80005 1.7002L10.0999 2.6748L11.4006 1.7002L11.5393 1.6123C11.8758 1.43749 12.2888 1.46703 12.5999 1.7002L13.8997 2.6748L15.2004 1.7002L15.3391 1.6123C15.6757 1.43737 16.0896 1.46689 16.4006 1.7002L17.6995 2.6748L19.0002 1.7002ZM14.5002 4.72461C14.1447 4.99125 13.6556 4.9912 13.3 4.72461L12.0002 3.74902L10.7004 4.72461C10.3449 4.99125 9.85579 4.9912 9.50024 4.72461L8.19946 3.74902L6.90063 4.72461C6.54511 4.99125 6.05599 4.9912 5.70044 4.72461L4.49341 3.82031L3.82056 4.49316L4.72485 5.7002C4.99144 6.0557 4.9914 6.54487 4.72485 6.90039L3.74927 8.19922L4.72485 9.5C4.99144 9.8555 4.9914 10.3447 4.72485 10.7002L3.74927 12L4.72485 13.2998C4.99144 13.6553 4.9914 14.1445 4.72485 14.5L3.74927 15.7998L4.72485 17.0996C4.99144 17.4551 4.9914 17.9443 4.72485 18.2998L3.82056 19.5059L4.49341 20.1787L5.70044 19.2754L5.83911 19.1875C6.17574 19.0125 6.58953 19.0421 6.90063 19.2754L8.19946 20.25L9.50024 19.2754L9.63892 19.1875C9.97557 19.0124 10.3893 19.042 10.7004 19.2754L12.0002 20.25L13.3 19.2754L13.4397 19.1875C13.7762 19.0128 14.1893 19.0422 14.5002 19.2754L15.8 20.25L17.0999 19.2754L17.2395 19.1875C17.5761 19.0127 17.989 19.0421 18.3 19.2754L19.5061 20.1787L20.179 19.5059L19.2756 18.2998C19.009 17.9443 19.009 17.4552 19.2756 17.0996L20.2502 15.7998L19.2756 14.5C19.009 14.1444 19.009 13.6554 19.2756 13.2998L20.2502 12L19.2756 10.7002C19.009 10.3446 19.009 9.85556 19.2756 9.5L20.2502 8.19922L19.2756 6.90039C19.009 6.54484 19.009 6.05575 19.2756 5.7002L20.179 4.49316L19.5061 3.82031L18.3 4.72461C17.9445 4.99125 17.4554 4.9912 17.0999 4.72461L15.8 3.74902L14.5002 4.72461ZM12.0002 6.5C15.0377 6.50011 17.5002 8.96253 17.5002 12C17.5002 15.0375 15.0377 17.4999 12.0002 17.5C8.96268 17.5 6.50024 15.0376 6.50024 12C6.50028 8.96246 8.9627 6.5 12.0002 6.5ZM12.0002 8.5C10.0673 8.5 8.50028 10.067 8.50024 12C8.50024 13.933 10.0672 15.5 12.0002 15.5C13.9331 15.4999 15.5002 13.9329 15.5002 12C15.5002 10.0671 13.9331 8.50011 12.0002 8.5Z" fill="#9E9E9E"/>
</g>
</svg>
