<svg width="24" height="24" viewBox="0 0 24 24" fill="none" xmlns="http://www.w3.org/2000/svg">
<g id="icons/Edit/star">
<path id="Union" d="M11.9967 1.5C12.3773 1.49915 12.7259 1.71478 12.8951 2.05566L15.7574 7.82422L22.1442 8.75586C22.5202 8.81077 22.833 9.07426 22.9508 9.43555C23.0686 9.79696 22.9704 10.194 22.6989 10.46L18.0543 15.0078L19.1578 21.3281C19.2235 21.7044 19.0686 22.0853 18.7594 22.3096C18.4499 22.5336 18.039 22.5625 17.7018 22.3828L11.9987 19.3418L6.29749 22.3828C5.96012 22.5625 5.54934 22.5339 5.23987 22.3096C4.93054 22.0851 4.77633 21.7036 4.84241 21.3271L5.95276 15.0088L1.30042 10.4609C1.02856 10.195 0.930664 9.79714 1.04846 9.43555C1.1663 9.07398 1.47977 8.81058 1.85608 8.75586L8.276 7.82422L11.1012 2.05957L11.1715 1.9375C11.3553 1.667 11.6637 1.50098 11.9967 1.5ZM9.84045 9.17871C9.69513 9.47522 9.41236 9.68113 9.08557 9.72852L4.14514 10.4443L7.72815 13.9473C7.96418 14.178 8.07145 14.5108 8.01428 14.8359L7.16663 19.6514L11.5289 17.3271L11.6412 17.2754C11.9096 17.1726 12.2122 17.1902 12.4694 17.3271L16.8346 19.6533L15.9938 14.835C15.9372 14.5107 16.0439 14.1786 16.2789 13.9482L19.8571 10.4434L14.9508 9.72852C14.6264 9.68104 14.3457 9.47723 14.1998 9.18359L12.0045 4.76074L9.84045 9.17871Z" fill="#9E9E9E"/>
</g>
</svg>
