<svg width="24" height="24" viewBox="0 0 24 24" fill="none" xmlns="http://www.w3.org/2000/svg">
<g id="icons/Edit/strikethrough">
<path id="Union" d="M21.5 11C22.0523 11 22.5 11.4477 22.5 12C22.5 12.5523 22.0523 13 21.5 13H15.7422C16.3845 13.5565 16.8815 14.1609 17.2393 14.7939C17.2479 14.8092 17.2562 14.8246 17.2646 14.8398C17.3187 14.9376 17.3695 15.0358 17.417 15.1348C17.4292 15.1598 17.4414 15.1848 17.4531 15.21C17.477 15.2618 17.4994 15.3141 17.5215 15.3662C18.2449 17.0346 18.0886 18.7954 17.2373 20.2148C16.2834 21.8049 14.5097 22.8878 12.335 22.9893C12.2241 22.9952 12.1125 23 12 23C9.19163 23 7.42339 21.8597 6.37207 20.6582C5.8581 20.0707 5.52797 19.4844 5.3252 19.042C5.22343 18.8199 5.15229 18.6312 5.10547 18.4932C5.0821 18.4243 5.06508 18.3675 5.05273 18.3252L5.03809 18.2744C5.01674 18.1999 5.00462 18.1242 5.00098 18.0488C5.00016 18.0325 5.00099 18.0162 5.00098 18C5.00102 17.9498 5.00422 17.8999 5.01172 17.8506C5.0133 17.8401 5.01469 17.8297 5.0166 17.8193C5.03225 17.7345 5.05904 17.6522 5.0957 17.5742C5.10416 17.5563 5.11356 17.5389 5.12305 17.5215C5.12764 17.513 5.13187 17.5044 5.13672 17.4961C5.14351 17.4845 5.15095 17.4733 5.1582 17.4619C5.22076 17.3638 5.30039 17.2757 5.39648 17.2031C5.40447 17.1971 5.41271 17.1914 5.4209 17.1855C5.43666 17.1744 5.45219 17.1627 5.46875 17.1523C5.48512 17.1421 5.50247 17.1334 5.51953 17.124C5.53061 17.118 5.54134 17.1112 5.55273 17.1055C5.55599 17.1038 5.55923 17.1022 5.5625 17.1006C5.56918 17.0973 5.57624 17.0949 5.58301 17.0918C5.78215 17.0002 5.99637 16.9799 6.19727 17.0205C6.20534 17.0221 6.21366 17.0226 6.22168 17.0244C6.27306 17.0361 6.32318 17.0527 6.37207 17.0723C6.38021 17.0755 6.38844 17.0786 6.39648 17.082C6.41306 17.0892 6.42912 17.0974 6.44531 17.1055C6.45614 17.1109 6.46692 17.1163 6.47754 17.1221C6.49407 17.131 6.51033 17.1405 6.52637 17.1504C6.53421 17.1552 6.5421 17.16 6.5498 17.165L6.57324 17.1807C6.58391 17.1881 6.5941 17.1962 6.60449 17.2041C6.61264 17.2103 6.62094 17.2162 6.62891 17.2227C6.64432 17.2351 6.65912 17.2483 6.67383 17.2617C6.68234 17.2695 6.69096 17.2771 6.69922 17.2852C6.71153 17.2972 6.72362 17.3095 6.73535 17.3223C6.77333 17.3634 6.80699 17.4085 6.83789 17.4561C6.84068 17.4604 6.84394 17.4644 6.84668 17.4688C6.85743 17.4859 6.8672 17.5036 6.87695 17.5215C6.88265 17.5319 6.88916 17.542 6.89453 17.5527C6.89643 17.5564 6.90061 17.5636 6.90625 17.5742C6.91755 17.5954 6.93578 17.6301 6.96191 17.6758C7.01433 17.7675 7.09615 17.904 7.20703 18.0703C7.42992 18.4047 7.76425 18.8502 8.20703 19.293C9.09802 20.184 10.3587 21 12 21C14.0364 21 15.6037 19.5773 15.8906 17.9512C16.15 16.481 15.3895 14.3949 11.8105 13H2.5C1.94772 13 1.5 12.5523 1.5 12C1.5 11.4477 1.94772 11 2.5 11H21.5ZM12 1C14.5853 1.00001 16.3349 2.16216 17.417 3.31641C17.9524 3.88756 18.3256 4.45675 18.5664 4.88477C18.6873 5.09966 18.7767 5.28181 18.8369 5.41406C18.867 5.48012 18.8899 5.53447 18.9062 5.57422C18.9144 5.59399 18.9209 5.61052 18.9258 5.62305C18.9282 5.62926 18.931 5.63434 18.9326 5.63867C18.9334 5.64083 18.9339 5.64285 18.9346 5.64453L18.9355 5.64648V5.64746C18.9357 5.64794 18.9363 5.6489 18 6L18.9365 5.64844C19.1304 6.16556 18.8677 6.74261 18.3506 6.93652C17.8344 7.12979 17.2592 6.8689 17.0645 6.35352C17.0633 6.35058 17.0611 6.34435 17.0576 6.33594C17.0498 6.3171 17.0361 6.28507 17.0166 6.24219C16.9772 6.15568 16.9132 6.02516 16.8232 5.86523C16.6422 5.54334 16.3598 5.11221 15.958 4.68359C15.1651 3.8379 13.9146 3.00001 12 3C10.0403 3 8.84573 3.81201 8.30762 4.78418C7.76412 5.76619 7.77231 7.11951 8.64258 8.4541C8.94401 8.91669 8.81311 9.53628 8.35059 9.83789C7.88801 10.1392 7.26837 10.0084 6.9668 9.5459C5.75046 7.68033 5.6069 5.53323 6.55762 3.81543C7.51388 2.08788 9.45988 1 12 1Z" fill="#9E9E9E"/>
</g>
</svg>
