<svg width="24" height="24" viewBox="0 0 24 24" fill="none" xmlns="http://www.w3.org/2000/svg">
<g id="icons/Edit/subtract-selection">
<path id="Union" d="M15 1.5C16.1046 1.5 17 2.39544 17 3.5V7H20.5C21.6046 7 22.5 7.89543 22.5 9V20.5C22.5 21.6046 21.6046 22.5 20.5 22.5H9C7.89543 22.5 7 21.6046 7 20.5V17H3.5C2.39544 17 1.5 16.1046 1.5 15V3.5C1.5 2.39543 2.39543 1.5 3.5 1.5H15ZM9 20.3887V20.5H11.0576L20.5 10.1123V9H19.4404L9 20.3887ZM18.7607 20.5H20.5V18.5869L18.7607 20.5ZM13.7607 20.5H16.0576L20.5 15.6123V13.0869L13.7607 20.5ZM9 15.3916V17.4287L16.7266 9H14.9355L9 15.3916ZM3.5 15H7V9C7 7.89543 7.89543 7 9 7H15V3.5H3.5V15ZM9 12.4531L12.207 9H9V12.4531Z" fill="#9E9E9E"/>
</g>
</svg>
