<svg width="24" height="24" viewBox="0 0 24 24" fill="none" xmlns="http://www.w3.org/2000/svg">
<g id="icons/Edit/subtract-selection-one">
<path id="Union" d="M15 1.5C16.1046 1.5 17 2.39543 17 3.5V7H20.5C21.6046 7 22.5 7.89542 22.5 9V20.5C22.5 21.6046 21.6046 22.5 20.5 22.5H9C7.89542 22.5 7 21.6046 7 20.5V17H3.5C2.39543 17 1.5 16.1046 1.5 15V3.5C1.5 2.39543 2.39543 1.5 3.5 1.5H15ZM17 15C17 16.1046 16.1046 17 15 17H9V20.5H20.5V9H17V15ZM3.5 14.8887V15H5.55762L15 4.6123V3.5H13.9404L3.5 14.8887ZM13.2607 15H15V13.0869L13.2607 15ZM8.26074 15H10.5576L15 10.1123V7.58691L8.26074 15ZM3.5 9.8916V11.9287L11.2266 3.5H9.43555L3.5 9.8916ZM3.5 6.95312L6.70703 3.5H3.5V6.95312Z" fill="#9E9E9E"/>
</g>
</svg>
