<svg width="24" height="24" viewBox="0 0 24 24" fill="none" xmlns="http://www.w3.org/2000/svg">
<g id="icons/Edit/sum">
<path id="Union" d="M20.5 1.5C21.6046 1.5 22.5 2.39544 22.5 3.5V13.5C22.5 14.6046 21.6046 15.5 20.5 15.5H15.5V20.5C15.5 21.6046 14.6046 22.5 13.5 22.5H3.5C2.39544 22.5 1.5 21.6046 1.5 20.5V10.5C1.5 9.39541 2.39544 8.5 3.5 8.5H8.5V3.5C8.5 2.39544 9.39541 1.5 10.5 1.5H20.5ZM10.5 9.5C10.5 10.0523 10.0523 10.5 9.5 10.5H3.5V20.5H13.5V14.5C13.5 13.9477 13.9477 13.5 14.5 13.5H20.5V3.5H10.5V9.5Z" fill="#9E9E9E"/>
</g>
</svg>
