<svg width="24" height="24" viewBox="0 0 24 24" fill="none" xmlns="http://www.w3.org/2000/svg">
<g id="icons/Edit/switch-themes">
<path id="Union" d="M6.00305 11.5C6.06509 11.5 6.12578 11.5058 6.18469 11.5166C6.18764 11.5171 6.19054 11.518 6.19348 11.5186C6.28166 11.5356 6.3652 11.565 6.44348 11.6035C6.45287 11.6081 6.46253 11.6123 6.4718 11.6172C6.56368 11.6661 6.64687 11.7288 6.71887 11.8027L10.714 15.793C11.1043 16.1832 11.105 16.8164 10.715 17.207C10.3247 17.5977 9.69067 17.5982 9.29993 17.208L7.00305 14.9131V18C7.00305 19.132 7.27239 19.8047 7.57336 20.2051C8.00954 20.7849 8.67924 20.9999 9.32922 21H15.5031C16.0552 21.0001 16.503 21.4478 16.5031 22C16.5031 22.5522 16.0553 22.9999 15.5031 23H9.32922C8.2772 22.9999 6.90679 22.6463 5.97473 21.4072C5.35143 20.5782 5.00305 19.4502 5.00305 18V14.9111L2.70715 17.207C2.31658 17.5974 1.68352 17.5975 1.29309 17.207C0.90271 16.8164 0.902576 16.1834 1.29309 15.793L5.29504 11.793C5.38095 11.7071 5.47889 11.6408 5.58313 11.5928C5.59645 11.5866 5.60954 11.5798 5.62317 11.5742C5.63798 11.5682 5.65306 11.5629 5.66809 11.5576C5.68106 11.553 5.69395 11.548 5.70715 11.5439C5.72969 11.537 5.75263 11.5317 5.77551 11.5264C5.84859 11.5094 5.9248 11.5 6.00305 11.5ZM22.0001 1C22.2653 1.00004 22.5196 1.10547 22.7072 1.29297C22.8946 1.48049 23.0001 1.73487 23.0001 2L22.9972 13.5C22.997 14.052 22.5491 14.4997 21.9972 14.5H11.5001C10.9478 14.5 10.5001 14.0523 10.5001 13.5V2C10.5001 1.44772 10.9478 1 11.5001 1H22.0001ZM12.5001 12.5H20.9972L21.0001 3H12.5001V12.5ZM18.5001 8.5C19.0523 8.50007 19.5001 8.94776 19.5001 9.5C19.5001 10.0522 19.0523 10.4999 18.5001 10.5H15.0001C14.4478 10.5 14.0001 10.0523 14.0001 9.5C14.0001 8.94772 14.4478 8.5 15.0001 8.5H18.5001ZM18.5001 5C19.0523 5.00007 19.5001 5.44776 19.5001 6C19.5001 6.55224 19.0523 6.99993 18.5001 7H15.0001C14.4478 7 14.0001 6.55228 14.0001 6C14.0001 5.44772 14.4478 5 15.0001 5H18.5001Z" fill="#9E9E9E"/>
</g>
</svg>
