<svg width="24" height="24" viewBox="0 0 24 24" fill="none" xmlns="http://www.w3.org/2000/svg">
<g id="icons/Edit/switching-done">
<path id="Union" d="M5.50305 11.5C5.56509 11.5 5.62578 11.5058 5.68469 11.5166C5.68764 11.5171 5.69054 11.518 5.69348 11.5186C5.78166 11.5356 5.8652 11.565 5.94348 11.6035C5.95287 11.6081 5.96253 11.6123 5.9718 11.6172C6.06368 11.6661 6.14687 11.7288 6.21887 11.8027L10.214 15.793C10.6043 16.1832 10.605 16.8164 10.215 17.207C9.82468 17.5977 9.19067 17.5982 8.79993 17.208L6.50305 14.9131V18C6.50305 19.132 6.77239 19.8047 7.07336 20.2051C7.50954 20.7849 8.17924 20.9999 8.82922 21H15.0031C15.5552 21.0001 16.003 21.4478 16.0031 22C16.0031 22.5522 15.5553 22.9999 15.0031 23H8.82922C7.7772 22.9999 6.40679 22.6463 5.47473 21.4072C4.85143 20.5782 4.50305 19.4502 4.50305 18V14.9111L2.20715 17.207C1.81658 17.5974 1.18352 17.5975 0.793091 17.207C0.40271 16.8164 0.402576 16.1834 0.793091 15.793L4.79504 11.793C4.88095 11.7071 4.97889 11.6408 5.08313 11.5928C5.09645 11.5866 5.10954 11.5798 5.12317 11.5742C5.13798 11.5682 5.15306 11.5629 5.16809 11.5576C5.18106 11.553 5.19395 11.548 5.20715 11.5439C5.22969 11.537 5.25263 11.5317 5.27551 11.5264C5.34859 11.5094 5.4248 11.5 5.50305 11.5ZM14.8165 1C15.3688 1.00007 15.8165 1.44776 15.8165 2C15.8165 2.55224 15.3688 2.99993 14.8165 3H11.9972V12.5H20.9972V10.4814C20.9972 9.92921 21.4449 9.48145 21.9972 9.48145C22.5494 9.48152 22.9971 9.92925 22.9972 10.4814V13.5C22.9972 14.0522 22.5494 14.4999 21.9972 14.5H10.9972C10.4449 14.5 9.99719 14.0523 9.99719 13.5V2C9.99719 1.44772 10.4449 1 10.9972 1H14.8165ZM21.7931 2.29297C22.1835 1.90262 22.8166 1.90272 23.2072 2.29297C23.5974 2.68328 23.5981 3.31644 23.2081 3.70703L17.4904 9.42871C17.1037 9.81571 16.4772 9.81992 16.0851 9.43848L13.8038 7.21777C13.4081 6.83256 13.3991 6.19946 13.7843 5.80371C14.1695 5.40819 14.8027 5.40004 15.1984 5.78516L16.7726 7.31641L21.7931 2.29297Z" fill="#9E9E9E"/>
</g>
</svg>
