<svg width="24" height="24" viewBox="0 0 24 24" fill="none" xmlns="http://www.w3.org/2000/svg">
<g id="icons/Edit/tailoring-two">
<path id="Union" d="M7 1C7.55228 1 8 1.44772 8 2V16H22C22.5523 16 23 16.4477 23 17C23 17.5523 22.5523 18 22 18H19V21C19 21.5523 18.5523 22 18 22C17.4477 22 17 21.5523 17 21V18H8C6.89542 18 6 17.1046 6 16V7.5H3C2.44772 7.5 2 7.05228 2 6.5C2 5.94772 2.44772 5.5 3 5.5H6V2C6 1.44772 6.44772 1 7 1ZM3.5 18.708C3.50002 18.2626 4.03854 18.0395 4.35352 18.3545L6.64648 20.6475C6.96139 20.9625 6.73835 21.5009 6.29297 21.501H4C3.72387 21.501 3.50002 21.2771 3.5 21.001V18.708ZM17.5 5.5C18.0523 5.5 18.5 5.94772 18.5 6.5V13.5C18.5 14.0523 18.0523 14.5 17.5 14.5C16.9477 14.5 16.5 14.0523 16.5 13.5V7.5H10.5C9.94772 7.5 9.5 7.05228 9.5 6.5C9.5 5.94772 9.94772 5.5 10.5 5.5H17.5ZM21 2.5C21.2761 2.50002 21.5 2.72387 21.5 3V5.29297C21.4999 5.73835 20.9615 5.96139 20.6465 5.64648L18.3535 3.35352C18.0385 3.03854 18.2616 2.50002 18.707 2.5H21Z" fill="#9E9E9E"/>
</g>
</svg>
