<svg width="24" height="24" viewBox="0 0 24 24" fill="none" xmlns="http://www.w3.org/2000/svg">
<g id="icons/Edit/tailoring">
<path id="Union" d="M6 1C6.55228 1 7 1.44772 7 2V17H22C22.5523 17 23 17.4477 23 18C23 18.5523 22.5523 19 22 19H19V22C19 22.5523 18.5523 23 18 23C17.4477 23 17 22.5523 17 22V19H6C5.44772 19 5 18.5523 5 18V7H2C1.44772 7 1 6.55228 1 6C1 5.44772 1.44772 5 2 5H5V2C5 1.44772 5.44772 1 6 1ZM18 5C18.5523 5 19 5.44772 19 6V14C19 14.5523 18.5523 15 18 15C17.4477 15 17 14.5523 17 14V7H10C9.44771 7 9 6.55228 9 6C9 5.44772 9.44771 5 10 5H18Z" fill="#9E9E9E"/>
</g>
</svg>
