<svg width="24" height="24" viewBox="0 0 24 24" fill="none" xmlns="http://www.w3.org/2000/svg">
<g id="icons/Edit/text-wrap-truncation">
<path id="Union" d="M4 3C4.55228 3 5 3.44772 5 4V20C5 20.5523 4.55228 21 4 21C3.44772 21 3 20.5523 3 20V4C3 3.44772 3.44772 3 4 3ZM20 3C20.5523 3 21 3.44772 21 4V20C21 20.5523 20.5523 21 20 21C19.4477 21 19 20.5523 19 20V13.0039H10.0264C9.47408 13.0039 9.02637 12.5562 9.02637 12.0039C9.02637 11.4516 9.47408 11.0039 10.0264 11.0039H19V4C19 3.44772 19.4477 3 20 3Z" fill="#9E9E9E"/>
</g>
</svg>
