<svg width="24" height="24" viewBox="0 0 24 24" fill="none" xmlns="http://www.w3.org/2000/svg">
<g id="icons/Edit/text-style">
<path id="Union" d="M3 15C3.55228 15 4 15.4477 4 16V20H8C8.55228 20 9 20.4477 9 21C9 21.5523 8.55228 22 8 22H3C2.44772 22 2 21.5523 2 21V16C2 15.4477 2.44772 15 3 15ZM21 15C21.5523 15 22 15.4477 22 16V21C22 21.5523 21.5523 22 21 22H16C15.4477 22 15 21.5523 15 21C15 20.4477 15.4477 20 16 20H20V16C20 15.4477 20.4477 15 21 15ZM12 7C12.3973 7 12.7568 7.23562 12.916 7.59961L16.416 15.5996C16.6372 16.1055 16.4063 16.6947 15.9004 16.916C15.3945 17.1372 14.8053 16.9063 14.584 16.4004L13.7529 14.5H10.2471L9.41602 16.4004C9.19469 16.9063 8.60552 17.1372 8.09961 16.916C7.59373 16.6947 7.36285 16.1055 7.58398 15.5996L11.084 7.59961L11.1523 7.46875C11.3333 7.17989 11.6524 7 12 7ZM11.1221 12.5H12.8779L12 10.4941L11.1221 12.5ZM8 2C8.55228 2 9 2.44772 9 3C9 3.55228 8.55228 4 8 4H4V8C4 8.55228 3.55228 9 3 9C2.44772 9 2 8.55228 2 8V3C2 2.44772 2.44772 2 3 2H8ZM21 2C21.5523 2 22 2.44772 22 3V8C22 8.55228 21.5523 9 21 9C20.4477 9 20 8.55228 20 8V4H16C15.4477 4 15 3.55228 15 3C15 2.44772 15.4477 2 16 2H21Z" fill="#9E9E9E"/>
</g>
</svg>
