<svg width="24" height="24" viewBox="0 0 24 24" fill="none" xmlns="http://www.w3.org/2000/svg">
<g id="icons/Edit/text-rotation-down">
<path id="Union" d="M18.5 2C19.0523 2 19.5 2.44772 19.5 3V18.5859L20.793 17.293C21.1835 16.9024 21.8165 16.9024 22.207 17.293C22.5976 17.6835 22.5976 18.3165 22.207 18.707L19.207 21.707C18.921 21.993 18.4909 22.0786 18.1172 21.9238C17.7436 21.769 17.5 21.4044 17.5 21V3C17.5 2.44772 17.9477 2 18.5 2ZM14.083 5.59082C14.585 5.36074 15.179 5.58111 15.4092 6.08301C15.6393 6.58499 15.4189 7.17899 14.917 7.40918L11.5 8.97461V15.0244L14.917 16.5908C15.4189 16.821 15.6393 17.415 15.4092 17.917C15.179 18.4189 14.585 18.6393 14.083 18.4092L10.083 16.5762L8.08301 15.6592L2.08301 12.9092C1.72769 12.7462 1.5 12.3909 1.5 12C1.5 11.6091 1.72769 11.2538 2.08301 11.0908L8.08301 8.34082L10.083 7.42383L14.083 5.59082ZM8.91699 10.1592L4.90039 12L8.91699 13.8408L9.5 14.1074V9.8916L8.91699 10.1592Z" fill="#9E9E9E"/>
</g>
</svg>
