<svg width="24" height="24" viewBox="0 0 24 24" fill="none" xmlns="http://www.w3.org/2000/svg">
<g id="icons/Edit/text-bold">
<path id="Union" d="M12 1C15.308 1 17.9844 3.68924 17.9844 7C17.9844 8.72347 17.2578 10.2771 16.0957 11.3721C18.3766 12.2197 20 14.4215 20 17C20 20.3107 17.3236 23 14.0156 23H5.5C4.94772 23 4.5 22.5523 4.5 22V2C4.5 1.44772 4.94772 1 5.5 1H12ZM6.5 21H14.0156C16.2132 21 18 19.2121 18 17C18 14.7879 16.2132 13 14.0156 13H6.5V21ZM6.5 11H12C14.1976 11 15.9844 9.21207 15.9844 7C15.9844 4.78791 14.1976 3 12 3H6.5V11Z" fill="#9E9E9E"/>
</g>
</svg>
