<svg width="24" height="24" viewBox="0 0 24 24" fill="none" xmlns="http://www.w3.org/2000/svg">
<g id="icons/Edit/textarea">
<path id="Union" d="M16 1C16.5523 1 17 1.44772 17 2C17 2.55228 16.5523 3 16 3C14.8904 3 14.1687 3.53373 13.6885 4.20605C13.175 4.92494 13 5.7244 13 6V11H15.5C16.0523 11 16.5 11.4477 16.5 12C16.5 12.5523 16.0523 13 15.5 13H13V18C13 18.3826 13.1037 19.1732 13.5283 19.834C13.9098 20.4275 14.5958 21 16 21C16.5523 21 17 21.4477 17 22C17 22.5523 16.5523 23 16 23C14.041 23 12.7654 22.189 12 21.1387C11.2346 22.189 9.95898 23 8 23C7.44772 23 7 22.5523 7 22C7 21.4477 7.44772 21 8 21C9.40418 21 10.0902 20.4275 10.4717 19.834C10.8963 19.1732 11 18.3826 11 18V13H8.5C7.94772 13 7.5 12.5523 7.5 12C7.5 11.4477 7.94772 11 8.5 11H11V6C11 5.61739 10.8963 4.82676 10.4717 4.16602C10.0902 3.57253 9.40418 3 8 3C7.44772 3 7 2.55228 7 2C7 1.44772 7.44772 1 8 1C10.0433 1 11.3419 1.88311 12.0947 2.99902C12.8678 1.93972 14.1362 1 16 1Z" fill="#9E9E9E"/>
</g>
</svg>
