<svg width="24" height="24" viewBox="0 0 24 24" fill="none" xmlns="http://www.w3.org/2000/svg">
<g id="icons/Edit/text">
<path id="Union" d="M19.5 2C20.8807 2 22 3.11929 22 4.5V19.5C22 20.8807 20.8807 22 19.5 22H4.5C3.11929 22 2 20.8807 2 19.5V4.5C2 3.11929 3.11929 2 4.5 2H19.5ZM4.5 4C4.22386 4 4 4.22386 4 4.5V19.5C4 19.7761 4.22386 20 4.5 20H19.5C19.7761 20 20 19.7761 20 19.5V4.5C20 4.22386 19.7761 4 19.5 4H4.5ZM16 7C16.5523 7 17 7.44772 17 8V9.5C17 10.0523 16.5523 10.5 16 10.5C15.4477 10.5 15 10.0523 15 9.5V9H13V16C13.5523 16 14 16.4477 14 17C14 17.5523 13.5523 18 13 18H11C10.4477 18 10 17.5523 10 17C10 16.4477 10.4477 16 11 16V9H9V9.5C9 10.0523 8.55228 10.5 8 10.5C7.44772 10.5 7 10.0523 7 9.5V8C7 7.44772 7.44772 7 8 7H16Z" fill="#9E9E9E"/>
</g>
</svg>
