<svg width="24" height="24" viewBox="0 0 24 24" fill="none" xmlns="http://www.w3.org/2000/svg">
<g id="icons/Edit/text-rotation-none">
<path id="Union" d="M21 17.5C21.4044 17.5 21.769 17.7436 21.9238 18.1172C22.0786 18.4909 21.993 18.921 21.707 19.207L18.707 22.207C18.3165 22.5976 17.6835 22.5976 17.293 22.207C16.9024 21.8165 16.9024 21.1835 17.293 20.793L18.5859 19.5H3C2.44772 19.5 2 19.0523 2 18.5C2 17.9477 2.44772 17.5 3 17.5H21ZM12 1.5C12.3909 1.5 12.7462 1.72769 12.9092 2.08301L15.6592 8.08301L16.5762 10.083L18.4092 14.083C18.6393 14.585 18.4189 15.179 17.917 15.4092C17.415 15.6393 16.821 15.4189 16.5908 14.917L15.0254 11.5H8.97461L7.40918 14.917C7.17899 15.4189 6.58499 15.6393 6.08301 15.4092C5.58111 15.179 5.36074 14.585 5.59082 14.083L7.42383 10.083L8.34082 8.08301L11.0908 2.08301L11.1611 1.95605C11.3436 1.67449 11.658 1.5 12 1.5ZM10.1592 8.91699L9.8916 9.5H14.1084L13.8408 8.91699L12 4.90039L10.1592 8.91699Z" fill="#9E9E9E"/>
</g>
</svg>
