<svg width="24" height="24" viewBox="0 0 24 24" fill="none" xmlns="http://www.w3.org/2000/svg">
<g id="icons/Edit/text-italic">
<path id="Union" d="M14.2871 1.99902C14.4227 1.96933 14.5658 1.96829 14.709 1.99902H18C18.5521 1.99902 18.9998 2.44693 19 2.99902C19 3.55131 18.5523 3.99902 18 3.99902H15.2539L10.8154 19.999H14C14.5521 19.999 14.9998 20.4469 15 20.999C15 21.5513 14.5523 21.999 14 21.999H6C5.44772 21.999 5 21.5513 5 20.999C5.00023 20.4469 5.44786 19.999 6 19.999H8.73926L13.1777 3.99902H10C9.44772 3.99902 9 3.55131 9 2.99902C9.00023 2.44693 9.44786 1.99902 10 1.99902H14.2871Z" fill="#9E9E9E"/>
</g>
</svg>
