<svg width="24" height="24" viewBox="0 0 24 24" fill="none" xmlns="http://www.w3.org/2000/svg">
<g id="icons/Edit/text-style-one">
<path id="Union" d="M8.99951 3C9.40467 3 9.76998 3.24454 9.92432 3.61914L13.4243 12.1191L14.4536 14.6191L16.9243 20.6191C17.1346 21.1298 16.891 21.7145 16.3804 21.9248C15.8698 22.1348 15.285 21.8914 15.0747 21.3809L12.8589 16H5.14014L2.92432 21.3809C2.71397 21.8914 2.12928 22.1351 1.61865 21.9248C1.10827 21.7144 0.864573 21.1297 1.07471 20.6191L3.54541 14.6191L4.57471 12.1191L8.07471 3.61914L8.14209 3.48535C8.32079 3.18747 8.64498 3.00013 8.99951 3ZM21.9995 19C22.5518 19 22.9995 19.4477 22.9995 20C22.9995 20.5523 22.5518 21 21.9995 21H19.9995C19.4474 20.9998 18.9995 20.5522 18.9995 20C18.9995 19.4478 19.4474 19.0002 19.9995 19H21.9995ZM21.9995 14C22.5518 14 22.9995 14.4477 22.9995 15C22.9995 15.5523 22.5518 16 21.9995 16H17.9995C17.4474 15.9998 16.9995 15.5522 16.9995 15C16.9995 14.4478 17.4474 14.0002 17.9995 14H21.9995ZM6.42432 12.8809L5.96338 14H12.0356L11.5747 12.8809L8.99951 6.62598L6.42432 12.8809ZM21.9995 9C22.5518 9 22.9995 9.44772 22.9995 10C22.9995 10.5523 22.5518 11 21.9995 11H15.9995C15.4474 10.9998 14.9995 10.5522 14.9995 10C14.9995 9.44784 15.4474 9.00021 15.9995 9H21.9995ZM21.9995 4C22.5518 4 22.9995 4.44772 22.9995 5C22.9995 5.55228 22.5518 6 21.9995 6H13.9995C13.4474 5.99979 12.9995 5.55216 12.9995 5C12.9995 4.44784 13.4474 4.00021 13.9995 4H21.9995Z" fill="#9E9E9E"/>
</g>
</svg>
