<svg width="24" height="24" viewBox="0 0 24 24" fill="none" xmlns="http://www.w3.org/2000/svg">
<g id="icons/Edit/text-rotation-left">
<path id="Union" d="M21 17.5C21.5523 17.5 22 17.9477 22 18.5C22 19.0523 21.5523 19.5 21 19.5H5.41406L6.70703 20.793C7.09754 21.1835 7.09754 21.8165 6.70703 22.207C6.31651 22.5976 5.68349 22.5975 5.29297 22.207L2.29297 19.207C2.00697 18.921 1.92139 18.4909 2.07617 18.1172C2.23099 17.7436 2.59559 17.5 3 17.5H21ZM12 1.5C12.3909 1.50001 12.7462 1.7277 12.9092 2.08301L15.6592 8.08301L16.5762 10.083L18.4092 14.083C18.6392 14.585 18.4189 15.179 17.917 15.4092C17.415 15.6393 16.821 15.4189 16.5908 14.917L15.0254 11.5H8.97461L7.40918 14.917C7.17899 15.4189 6.58499 15.6392 6.08301 15.4092C5.58111 15.179 5.36074 14.585 5.59082 14.083L7.42383 10.083L8.34082 8.08301L11.0908 2.08301L11.1611 1.95605C11.3436 1.67449 11.658 1.5 12 1.5ZM10.1592 8.91699L9.8916 9.5H14.1084L13.8408 8.91699L12 4.90039L10.1592 8.91699Z" fill="#9E9E9E"/>
</g>
</svg>
