<svg width="24" height="24" viewBox="0 0 24 24" fill="none" xmlns="http://www.w3.org/2000/svg">
<g id="icons/Edit/text-wrap-overflow">
<path id="Union" d="M12 15C12.5523 15 13 15.4477 13 16V22C13 22.5523 12.5523 23 12 23C11.4477 23 11 22.5523 11 22V16C11 15.4477 11.4477 15 12 15ZM4 4C4.55228 4 5 4.44772 5 5V19C5 19.5523 4.55228 20 4 20C3.44772 20 3 19.5523 3 19V5C3 4.44772 3.44772 4 4 4ZM17.8193 8.80078C18.2089 8.4095 18.842 8.40759 19.2334 8.79688L21.752 11.3047C22.1423 11.6933 22.1449 12.324 21.7578 12.7158L19.2393 15.2646C18.8511 15.6572 18.218 15.6615 17.8252 15.2734C17.4323 14.8853 17.4292 14.2513 17.8174 13.8584L18.665 13H8C7.44772 13 7 12.5523 7 12C7 11.4477 7.44772 11 8 11H18.6113L17.8232 10.2148C17.432 9.82532 17.4301 9.19221 17.8193 8.80078ZM12 1C12.5523 1 13 1.44772 13 2V8C13 8.55228 12.5523 9 12 9C11.4477 9 11 8.55228 11 8V2C11 1.44772 11.4477 1 12 1Z" fill="#9E9E9E"/>
</g>
</svg>
