<svg width="24" height="24" viewBox="0 0 24 24" fill="none" xmlns="http://www.w3.org/2000/svg">
<g id="icons/Edit/text-underline">
<path id="Union" d="M20 21C20.5523 21 21 21.4477 21 22C21 22.5523 20.5523 23 20 23H4C3.44772 23 3 22.5523 3 22C3 21.4477 3.44772 21 4 21H20ZM18.5 2.04883C19.0523 2.04883 19.5 2.49654 19.5 3.04883V11C19.5 15.1421 16.1421 18.5 12 18.5C7.85787 18.5 4.5 15.1421 4.5 11V3.04883C4.5 2.49654 4.94772 2.04883 5.5 2.04883C6.05228 2.04883 6.5 2.49654 6.5 3.04883V11C6.5 14.0376 8.96243 16.5 12 16.5C15.0376 16.5 17.5 14.0376 17.5 11V3.04883C17.5 2.49654 17.9477 2.04883 18.5 2.04883Z" fill="#9E9E9E"/>
</g>
</svg>
