<svg width="24" height="24" viewBox="0 0 24 24" fill="none" xmlns="http://www.w3.org/2000/svg">
<g id="icons/Edit/text-rotation-up">
<path id="Union" d="M18.1172 2.07617C18.4909 1.92139 18.921 2.00697 19.207 2.29297L22.207 5.29297C22.5975 5.68349 22.5976 6.31651 22.207 6.70703C21.8165 7.09754 21.1835 7.09754 20.793 6.70703L19.5 5.41406V21C19.5 21.5523 19.0523 22 18.5 22C17.9477 22 17.5 21.5523 17.5 21V3C17.5 2.59559 17.7436 2.23099 18.1172 2.07617ZM14.083 5.59082C14.585 5.36074 15.179 5.58111 15.4092 6.08301C15.6392 6.58499 15.4189 7.17899 14.917 7.40918L11.5 8.97461V15.0244L14.917 16.5908C15.4189 16.821 15.6393 17.415 15.4092 17.917C15.179 18.4189 14.585 18.6392 14.083 18.4092L10.083 16.5762L8.08301 15.6592L2.08301 12.9092C1.7277 12.7462 1.50001 12.3909 1.5 12C1.5 11.6091 1.7277 11.2538 2.08301 11.0908L8.08301 8.34082L10.083 7.42383L14.083 5.59082ZM8.91699 10.1592L4.90039 12L8.91699 13.8408L9.5 14.1074V9.8916L8.91699 10.1592Z" fill="#9E9E9E"/>
</g>
</svg>
