<svg width="24" height="24" viewBox="0 0 24 24" fill="none" xmlns="http://www.w3.org/2000/svg">
<g id="icons/Edit/title-level">
<path id="Union" d="M16 11C16.5523 11 17 11.4477 17 12V12.3281C17.4421 12.1198 17.946 12 18.5 12C20.6016 12 22 13.6774 22 15.5117V20.0068C21.9999 20.5591 21.5522 21.0068 21 21.0068C20.4478 21.0068 20.0001 20.5591 20 20.0068V15.5117C20 14.6807 19.3984 14 18.5 14C17.6141 14 17 14.7181 17 15.5117V20C17 20.5523 16.5523 21 16 21C15.4477 21 15 20.5523 15 20V12C15 11.4477 15.4477 11 16 11ZM12 3C12.5523 3 13 3.44772 13 4V20C13 20.5523 12.5523 21 12 21C11.4477 21 11 20.5523 11 20V13H4V20C4 20.5523 3.55228 21 3 21C2.44772 21 2 20.5523 2 20V4C2 3.44772 2.44772 3 3 3C3.55228 3 4 3.44772 4 4V11H11V4C11 3.44772 11.4477 3 12 3Z" fill="#9E9E9E"/>
</g>
</svg>
