<svg width="24" height="24" viewBox="0 0 24 24" fill="none" xmlns="http://www.w3.org/2000/svg">
<g id="icons/Edit/translation">
<path id="Union" d="M1.80115 13.0195C2.34222 12.9099 2.87091 13.2598 2.98083 13.8008C3.81465 17.9083 7.44731 20.9999 11.8002 21C15.4585 20.9999 18.608 18.8159 20.015 15.6807L19.3597 15.9336C18.8444 16.1318 18.2652 15.8746 18.0668 15.3594C17.8685 14.844 18.1257 14.2648 18.641 14.0664L21.2416 13.0664C21.5822 12.9356 21.9678 13.0007 22.2465 13.2363C22.525 13.4721 22.653 13.8416 22.5804 14.1992C21.5611 19.2204 17.1228 22.9998 11.8002 23C6.47747 22.9999 2.03927 19.2204 1.0199 14.1992C0.910043 13.658 1.26001 13.1295 1.80115 13.0195ZM12.0004 7C12.3975 7.00013 12.7572 7.23573 12.9164 7.59961L16.4164 15.5996C16.6374 16.1054 16.4064 16.6946 15.9008 16.916C15.3949 17.1371 14.8057 16.9062 14.5844 16.4004L13.7533 14.5H10.2474L9.41638 16.4004C9.1951 16.9062 8.60582 17.1369 8.09998 16.916C7.5941 16.6947 7.36321 16.1055 7.58435 15.5996L11.0844 7.59961L11.1527 7.46875C11.3337 7.17998 11.6528 7 12.0004 7ZM11.1224 12.5H12.8783L12.0004 10.4941L11.1224 12.5ZM11.8002 1C17.1228 1.00016 21.5611 4.77964 22.5804 9.80078C22.6902 10.3419 22.3402 10.8705 21.7992 10.9805C21.2581 11.0902 20.7305 10.7402 20.6205 10.1992C19.7867 6.0917 16.153 3.00016 11.8002 3C8.09756 3.00006 4.91671 5.23731 3.53552 8.43359L4.68396 8.05176C5.20772 7.87736 5.77388 8.15994 5.94861 8.68359C6.12312 9.20731 5.8403 9.77337 5.31677 9.94824L2.31677 10.9482C1.9782 11.0611 1.60455 10.9855 1.33728 10.749C1.07 10.5124 0.948882 10.1506 1.0199 9.80078C2.03927 4.77958 6.47747 1.00007 11.8002 1Z" fill="#9E9E9E"/>
</g>
</svg>
