<svg width="24" height="24" viewBox="0 0 24 24" fill="none" xmlns="http://www.w3.org/2000/svg">
<g id="icons/Edit/ungroup">
<path id="Union" d="M5.63672 1C6.18883 1.0002 6.63672 1.44784 6.63672 2V2.81836H11V2C11 1.44772 11.4477 1 12 1H15.6367L15.7383 1.00488C16.2427 1.05594 16.6367 1.48212 16.6367 2V5.63672C16.6365 6.18871 16.1887 6.63652 15.6367 6.63672H14.8184V9.18164H17.3633V8.36328L17.3682 8.26074C17.4195 7.75661 17.8456 7.36328 18.3633 7.36328H22C22.5521 7.36348 23 7.81112 23 8.36328V12C22.9998 12.552 22.552 12.9998 22 13H21.1816V17.3633H22C22.5521 17.3635 23 17.8111 23 18.3633V22C22.9998 22.552 22.552 22.9998 22 23H18.3633C17.8111 23 17.3635 22.5521 17.3633 22V21.1816H13V22C12.9998 22.552 12.552 22.9998 12 23H8.36328C7.81112 23 7.36348 22.5521 7.36328 22V18.3633C7.36328 17.811 7.811 17.3633 8.36328 17.3633H9.18164V14.8184H6.63672V15.6367C6.63652 16.1887 6.18871 16.6365 5.63672 16.6367H2C1.44784 16.6367 1.0002 16.1888 1 15.6367V12L1.00488 11.8975C1.05621 11.3933 1.48232 11 2 11H2.81836V6.63672H2C1.44784 6.63672 1.0002 6.18883 1 5.63672V2C1 1.44772 1.44772 1 2 1H5.63672ZM9.36328 21H11V19.3633H9.36328V21ZM19.3633 21H21V19.3633H19.3633V21ZM14.8184 13.8184C14.8184 14.3706 14.3706 14.8184 13.8184 14.8184H11.1816V17.3633H12L12.1016 17.3682C12.606 17.4192 13 17.8454 13 18.3633V19.1816H17.3633V18.3633C17.3633 17.811 17.811 17.3633 18.3633 17.3633H19.1816V13H18.3633C17.8111 13 17.3635 12.5521 17.3633 12V11.1816H14.8184V13.8184ZM3 14.6367H4.63672V13H3V14.6367ZM6.63672 5.63672C6.63652 6.18871 6.18871 6.63652 5.63672 6.63672H4.81836V11H5.63672C6.18883 11.0002 6.63672 11.4478 6.63672 12V12.8184H10.0996C10.1267 12.8162 10.154 12.8145 10.1816 12.8145C10.2093 12.8145 10.2366 12.8162 10.2637 12.8184H12.8184V6.63672H12C11.4478 6.63672 11.0002 6.18883 11 5.63672V4.81836H6.63672V5.63672ZM19.3633 11H21V9.36328H19.3633V11ZM3 4.63672H4.63672V3H3V4.63672ZM13 4.63672H14.6367V3H13V4.63672Z" fill="#9E9E9E"/>
</g>
</svg>
