<svg width="24" height="24" viewBox="0 0 24 24" fill="none" xmlns="http://www.w3.org/2000/svg">
<g id="icons/Edit/unlink">
<path id="Union" d="M15.2506 10.3281C15.641 9.93779 16.2741 9.938 16.6647 10.3281L20.5543 14.2168C22.3116 15.974 22.6306 18.831 20.6442 20.7266C18.715 22.5674 15.958 22.3939 14.1676 20.6035L10.2789 16.7139C9.88879 16.3233 9.88853 15.6902 10.2789 15.2998C10.6693 14.9096 11.3025 14.9097 11.693 15.2998L15.5826 19.1895C16.656 20.2624 18.1715 20.3211 19.2633 19.2793C20.2978 18.2921 20.2463 16.7383 19.1403 15.6318L15.2506 11.7422C14.8605 11.3517 14.8603 10.7185 15.2506 10.3281ZM12.5045 12.4238C12.8949 12.0334 13.528 12.0337 13.9186 12.4238L15.8629 14.3682C16.2534 14.7587 16.2534 15.3917 15.8629 15.7822C15.4724 16.1727 14.8394 16.1727 14.4489 15.7822L12.5045 13.8379C12.1144 13.4474 12.1142 12.8142 12.5045 12.4238ZM3.27112 3.31152C5.06217 1.52049 7.9701 1.62435 9.76428 3.41797L13.653 7.30762C14.0435 7.69814 14.0435 8.33116 13.653 8.72168C13.2624 9.11212 12.6294 9.11218 12.2389 8.72168L8.35022 4.83301C7.28045 3.76363 5.63976 3.77102 4.68518 4.72559C3.73061 5.68016 3.72323 7.32086 4.7926 8.39062L8.68127 12.2793C9.07177 12.6698 9.07171 13.3028 8.68127 13.6934C8.29075 14.0839 7.65774 14.0839 7.26721 13.6934L3.37756 9.80469C1.58394 8.01051 1.48008 5.10257 3.27112 3.31152ZM7.96741 7.88672C8.35781 7.49631 8.99092 7.49655 9.38147 7.88672L11.3258 9.83105C11.7163 10.2216 11.7163 10.8546 11.3258 11.2451C10.9353 11.6356 10.3023 11.6356 9.91174 11.2451L7.96741 9.30078C7.57724 8.91023 7.577 8.27712 7.96741 7.88672Z" fill="#9E9E9E"/>
</g>
</svg>
