<svg width="24" height="24" viewBox="0 0 24 24" fill="none" xmlns="http://www.w3.org/2000/svg">
<g id="icons/Edit/unlock">
<path id="Union" d="M11.4434 1.03027C14.5266 0.722142 17.3583 2.77602 17.9795 5.80176C18.0905 6.3427 17.7421 6.8713 17.2012 6.98242C16.6602 7.09345 16.1316 6.74504 16.0205 6.2041C15.6087 4.19848 13.7221 2.81279 11.6426 3.02051C9.56425 3.22822 7.99826 4.95674 8 7.00098V10.0234H19.5C20.6045 10.0234 21.4998 10.919 21.5 12.0234V21.0234C21.5 22.128 20.6046 23.0234 19.5 23.0234H4.5C3.39543 23.0234 2.5 22.128 2.5 21.0234V12.0234C2.50015 10.919 3.39552 10.0234 4.5 10.0234H6V7.00195C5.99773 3.91278 8.35933 1.33855 11.4434 1.03027ZM4.5 21.0234H19.5V12.0234H4.5V21.0234ZM12 14C12.5522 14 12.9999 14.4478 13 15V18C13 18.5523 12.5523 19 12 19C11.4477 19 11 18.5523 11 18V15C11.0001 14.4478 11.4478 14 12 14Z" fill="#9E9E9E"/>
</g>
</svg>
