<svg width="24" height="24" viewBox="0 0 24 24" fill="none" xmlns="http://www.w3.org/2000/svg">
<g id="icons/Edit/unlock-one">
<path id="Union" d="M12 1C14.4853 1 16.5 3.01472 16.5 5.5V6C16.5 6.55228 16.0523 7 15.5 7C14.9477 7 14.5 6.55228 14.5 6V5.5C14.5 4.11929 13.3807 3 12 3C10.6193 3 9.5 4.11929 9.5 5.5V7.39941C10.2866 7.14082 11.1268 7 12 7C16.4183 7 20 10.5817 20 15C20 19.4183 16.4183 23 12 23C7.58172 23 4 19.4183 4 15C4 12.2503 5.38725 9.82475 7.5 8.38477V5.5C7.5 3.01472 9.51471 1 12 1ZM12 9C8.68629 9 6 11.6863 6 15C6 18.3137 8.68629 21 12 21C15.3137 21 18 18.3137 18 15C18 11.6863 15.3137 9 12 9ZM12 12C12.5523 12 13 12.4477 13 13V17C13 17.5523 12.5523 18 12 18C11.4477 18 11 17.5523 11 17V13C11 12.4477 11.4477 12 12 12Z" fill="#9E9E9E"/>
</g>
</svg>
