<svg width="24" height="24" viewBox="0 0 24 24" fill="none" xmlns="http://www.w3.org/2000/svg">
<g id="icons/Edit/unordered-list">
<path id="Union" d="M3.97644 15.4062C4.4998 15.4062 5.03402 15.571 5.55457 15.918C6.07552 16.2653 6.44823 16.7135 6.59753 17.2607C6.74432 17.7994 6.63405 18.287 6.48132 18.6436C6.42568 18.7734 6.35862 18.8917 6.29187 19C6.3586 19.1083 6.42569 19.2267 6.48132 19.3564C6.63406 19.713 6.74428 20.2006 6.59753 20.7393C6.44826 21.2866 6.07557 21.7347 5.55457 22.082C5.03398 22.4291 4.49986 22.5937 3.97644 22.5938C3.46059 22.5937 3.02517 22.434 2.69128 22.2432C2.36125 22.0545 2.11265 21.8258 1.95007 21.6523C1.86727 21.564 1.80228 21.4849 1.75574 21.4248C1.73238 21.3947 1.71266 21.3689 1.69812 21.3486C1.69093 21.3386 1.6846 21.3296 1.67957 21.3223C1.6771 21.3187 1.67467 21.3154 1.67273 21.3125C1.67178 21.3111 1.67061 21.3098 1.6698 21.3086L1.66882 21.3066V21.3057C1.67196 21.303 1.72283 21.268 2.49988 20.75L1.66785 21.3047C1.36164 20.8452 1.48572 20.2243 1.94519 19.918C2.40271 19.613 3.02026 19.7349 3.328 20.1895L3.33582 20.2002C3.34975 20.2182 3.37488 20.2487 3.40906 20.2852C3.48079 20.3616 3.57621 20.4455 3.68347 20.5068C3.78703 20.566 3.88299 20.5937 3.97644 20.5938C4.06239 20.5937 4.2158 20.5709 4.44519 20.418C4.60034 20.3145 4.65077 20.2424 4.66492 20.2168C4.66365 20.206 4.66008 20.1824 4.64343 20.1436C4.62379 20.0978 4.59455 20.0492 4.56042 20H3.99988C3.44763 20 2.99988 19.5523 2.99988 19C2.99997 18.4478 3.44769 18 3.99988 18H4.56042C4.59465 17.9509 4.62378 17.9022 4.64343 17.8564C4.66064 17.8163 4.66385 17.7925 4.66492 17.7822C4.65008 17.7559 4.59855 17.6843 4.44519 17.582C4.21588 17.4292 4.06238 17.4062 3.97644 17.4062C3.883 17.4063 3.78703 17.434 3.68347 17.4932C3.57618 17.5545 3.48081 17.6383 3.40906 17.7148C3.37485 17.7513 3.34977 17.7818 3.33582 17.7998C3.32951 17.8079 3.32627 17.8137 3.32507 17.8154L3.27136 17.8867C2.94909 18.2782 2.37612 18.3693 1.94519 18.082C1.48579 17.7756 1.36153 17.1548 1.66785 16.6953L2.49988 17.25C1.66798 16.6954 1.66854 16.6948 1.66882 16.6943V16.6934L1.6698 16.6914C1.67064 16.6902 1.67177 16.6889 1.67273 16.6875C1.67469 16.6846 1.67708 16.6813 1.67957 16.6777C1.68462 16.6704 1.6909 16.6614 1.69812 16.6514C1.71267 16.631 1.73236 16.6054 1.75574 16.5752C1.80231 16.5151 1.86724 16.436 1.95007 16.3477C2.11267 16.1742 2.36121 15.9455 2.69128 15.7568C3.02516 15.566 3.4606 15.4063 3.97644 15.4062ZM20.9999 18C21.5521 18 21.9998 18.4478 21.9999 19C21.9999 19.5523 21.5522 20 20.9999 20H9.99988C9.44763 20 8.99988 19.5523 8.99988 19C8.99997 18.4478 9.44769 18 9.99988 18H20.9999ZM4.08484 8.00391C4.1039 8.00551 4.12274 8.00809 4.14148 8.01074C4.1604 8.01345 4.17939 8.01575 4.19812 8.01953C4.25549 8.03106 4.31077 8.04844 4.36414 8.06934C4.36999 8.07162 4.3759 8.07377 4.38171 8.07617C4.38428 8.07723 4.38697 8.07802 4.38953 8.0791L4.46765 8.11621C4.49739 8.13191 4.52637 8.1492 4.55457 8.16797C4.56269 8.17339 4.57005 8.17989 4.578 8.18555C4.67496 8.25432 4.76202 8.34052 4.83191 8.44531C4.83756 8.45379 4.84218 8.4631 4.84753 8.47168C4.87716 8.51909 4.90322 8.5688 4.92468 8.62109C4.95629 8.69797 4.97665 8.77733 4.98816 8.85742C4.99484 8.90407 4.99987 8.95151 4.99988 9V12.5H5.49988C6.05211 12.5 6.49979 12.9478 6.49988 13.5C6.49988 14.0523 6.05216 14.5 5.49988 14.5H2.49988C1.94763 14.5 1.49988 14.0523 1.49988 13.5C1.49997 12.9478 1.94769 12.5 2.49988 12.5H2.99988V10.8643C2.5468 11.127 1.96237 10.9965 1.66785 10.5547C1.36163 10.0952 1.48571 9.47429 1.94519 9.16797L3.44519 8.16797C3.5145 8.12176 3.58795 8.08651 3.66296 8.05957C3.68046 8.0533 3.69777 8.04632 3.7157 8.04102C3.72343 8.03872 3.73137 8.03726 3.73914 8.03516C3.7604 8.02942 3.78179 8.02387 3.80359 8.01953C3.82143 8.01597 3.83937 8.01331 3.8573 8.01074C3.87286 8.00852 3.88839 8.0054 3.90417 8.00391C3.92627 8.0018 3.94847 8.00161 3.97058 8.00098C3.98032 8.0007 3.99007 8 3.99988 8H4.00476C4.03153 8.00015 4.05823 8.00162 4.08484 8.00391ZM20.9999 11C21.5521 11 21.9998 11.4478 21.9999 12C21.9999 12.5523 21.5522 13 20.9999 13H9.99988C9.44763 13 8.99988 12.5523 8.99988 12C8.99997 11.4478 9.44769 11 9.99988 11H20.9999ZM3.02332 1C3.39272 0.861472 3.88968 0.760676 4.42957 0.895508C4.99159 1.03602 5.46831 1.399 5.83191 1.94434C6.33479 2.69885 6.2216 3.49837 5.9364 4.10449C5.78281 4.43085 5.5677 4.73142 5.33582 5H5.49988C6.05211 5 6.49979 5.44779 6.49988 6C6.49988 6.55228 6.05216 7 5.49988 7H2.49988C2.27535 6.99998 2.06912 6.92477 1.90222 6.7998C1.89679 6.79576 1.89097 6.79224 1.88562 6.78809C1.8692 6.77526 1.85335 6.76185 1.83777 6.74805C1.82743 6.73892 1.81749 6.72932 1.8075 6.71973C1.65283 6.57085 1.54531 6.37358 1.5116 6.15137C1.50959 6.13833 1.50722 6.12536 1.50574 6.1123C1.50401 6.09682 1.50382 6.08112 1.50281 6.06543C1.50184 6.05076 1.5002 6.03614 1.49988 6.02148V6C1.49988 5.98692 1.50035 5.9739 1.50085 5.96094C1.50143 5.94625 1.50257 5.93162 1.50378 5.91699C1.50552 5.89597 1.50761 5.87512 1.51062 5.85449C1.51182 5.84633 1.51313 5.8382 1.51453 5.83008L1.52039 5.79883C1.52227 5.7896 1.52508 5.78062 1.52722 5.77148C1.5315 5.75317 1.53559 5.73484 1.54089 5.7168C1.54419 5.70561 1.54796 5.69461 1.55164 5.68359C1.62644 5.45819 1.78061 5.25811 2.00281 5.13086C2.00345 5.13049 2.00547 5.12922 2.00769 5.12793C2.01218 5.12532 2.01996 5.12126 2.03015 5.11523C2.051 5.1029 2.08326 5.0832 2.12488 5.05762C2.20843 5.00627 2.32903 4.93019 2.47156 4.83398C2.7606 4.63888 3.12339 4.37277 3.4491 4.07422C3.7879 3.76364 4.02009 3.47742 4.12585 3.25293C4.17436 3.14983 4.1795 3.09478 4.17957 3.08008C4.17971 3.07815 4.18214 3.0752 4.16785 3.05371C4.03606 2.85609 3.95108 2.83704 3.94519 2.83594C3.92268 2.83035 3.85632 2.82345 3.72644 2.87207C3.59625 2.92089 3.46142 3.00394 3.34949 3.08789C3.29672 3.12748 3.25533 3.16253 3.22937 3.18555C3.21663 3.19685 3.20799 3.20519 3.20398 3.20898C3.20304 3.20987 3.20239 3.21058 3.20203 3.21094V3.20996C2.8112 3.59588 2.18186 3.5949 1.79285 3.20605C1.4025 2.81557 1.40253 2.18249 1.79285 1.79199L2.37292 2.37207C1.83415 1.83324 1.79631 1.79402 1.79382 1.79102V1.79004L1.79578 1.78906L1.80652 1.77832C1.8127 1.77231 1.82077 1.76455 1.82996 1.75586C1.8484 1.73841 1.87311 1.71515 1.9032 1.68848C1.9631 1.6354 2.04715 1.56464 2.15027 1.4873C2.35075 1.33699 2.65403 1.13855 3.02332 1ZM20.9999 4C21.5521 4 21.9998 4.44779 21.9999 5C21.9999 5.55228 21.5522 6 20.9999 6H9.99988C9.44763 5.99995 8.99988 5.55225 8.99988 5C8.99997 4.44782 9.44769 4.00005 9.99988 4H20.9999Z" fill="#9E9E9E"/>
</g>
</svg>
