<svg width="24" height="24" viewBox="0 0 24 24" fill="none" xmlns="http://www.w3.org/2000/svg">
<g id="icons/Edit/upload-logs">
<path id="Union" d="M19 1C20.1046 1 21 1.89544 21 3V12C21 12.5523 20.5523 13 20 13C19.4477 13 19 12.5523 19 12V3H5V21H12C12.5523 21 13 21.4477 13 22C13 22.5523 12.5523 23 12 23H5C3.89541 23 3 22.1045 3 21V3C3 1.89543 3.89543 1 5 1H19ZM17.75 14C18.0152 14 18.2695 14.1054 18.457 14.293L20.707 16.543C21.0976 16.9335 21.0976 17.5665 20.707 17.957C20.3165 18.3476 19.6835 18.3476 19.293 17.957L18.75 17.4141V22C18.75 22.5523 18.3023 23 17.75 23C17.1977 23 16.75 22.5523 16.75 22V17.4141L16.207 17.957C15.8165 18.3476 15.1835 18.3476 14.793 17.957C14.4024 17.5665 14.4024 16.9335 14.793 16.543L17.043 14.293L17.1162 14.2266C17.2942 14.0807 17.5179 14 17.75 14ZM12 11C12.5523 11 13 11.4477 13 12C13 12.5523 12.5523 13 12 13H8C7.44772 13 7 12.5523 7 12C7 11.4477 7.44772 11 8 11H12ZM16 7C16.5523 7 17 7.44772 17 8C17 8.55228 16.5523 9 16 9H8C7.44772 9 7 8.55228 7 8C7 7.44772 7.44772 7 8 7H16Z" fill="#9E9E9E"/>
</g>
</svg>
