<svg width="24" height="24" viewBox="0 0 24 24" fill="none" xmlns="http://www.w3.org/2000/svg">
<g id="icons/Edit/vertical-tidy-up">
<path id="Union" d="M20 16.5C20.5523 16.5 21 16.9477 21 17.5V20.5C21 21.0523 20.5523 21.5 20 21.5H4C3.44772 21.5 3 21.0523 3 20.5V17.5C3 16.9477 3.44772 16.5 4 16.5H20ZM5 19.5H19V18.5H5V19.5ZM20 9.5C20.5523 9.5 21 9.94772 21 10.5V13.5C21 14.0523 20.5523 14.5 20 14.5H4C3.44772 14.5 3 14.0523 3 13.5V10.5C3 9.94772 3.44772 9.5 4 9.5H20ZM5 12.5H19V11.5H5V12.5ZM20 2.5C20.5523 2.5 21 2.94772 21 3.5V6.5C21 7.05228 20.5523 7.5 20 7.5H4C3.44772 7.5 3 7.05228 3 6.5V3.5C3 2.94772 3.44772 2.5 4 2.5H20ZM5 5.5H19V4.5H5V5.5Z" fill="#9E9E9E"/>
</g>
</svg>
