<svg width="24" height="24" viewBox="0 0 24 24" fill="none" xmlns="http://www.w3.org/2000/svg">
<g id="icons/Edit/vertical-spacing-between-items">
<path id="Union" d="M20 17C20.5523 17 21 17.4477 21 18V21C21 21.5523 20.5523 22 20 22C19.4477 22 19 21.5523 19 21V19H5V21C5 21.5523 4.55228 22 4 22C3.44772 22 3 21.5523 3 21V18C3 17.4477 3.44772 17 4 17H20ZM17 11C17.5523 11 18 11.4477 18 12C18 12.5523 17.5523 13 17 13H7C6.44772 13 6 12.5523 6 12C6 11.4477 6.44772 11 7 11H17ZM20 2C20.5523 2 21 2.44772 21 3V6C21 6.55228 20.5523 7 20 7H4C3.44772 7 3 6.55228 3 6V3C3 2.44772 3.44772 2 4 2C4.55228 2 5 2.44772 5 3V5H19V3C19 2.44772 19.4477 2 20 2Z" fill="#9E9E9E"/>
</g>
</svg>
