<svg width="24" height="24" viewBox="0 0 24 24" fill="none" xmlns="http://www.w3.org/2000/svg">
<g id="icons/Edit/vertically-centered">
<path id="Union" d="M21 19.5C21.5523 19.5 22 19.9477 22 20.5C22 21.0523 21.5523 21.5 21 21.5H3C2.44772 21.5 2 21.0523 2 20.5C2 19.9477 2.44772 19.5 3 19.5H21ZM16 7C16.5523 7 17 7.44772 17 8V16C17 16.5523 16.5523 17 16 17H8C7.44772 17 7 16.5523 7 16V8C7 7.44772 7.44772 7 8 7H16ZM9 15H15V9H9V15ZM21 2.5C21.5523 2.5 22 2.94772 22 3.5C22 4.05228 21.5523 4.5 21 4.5H3C2.44772 4.5 2 4.05228 2 3.5C2 2.94772 2.44772 2.5 3 2.5H21Z" fill="#9E9E9E"/>
</g>
</svg>
