<svg width="24" height="24" viewBox="0 0 24 24" fill="none" xmlns="http://www.w3.org/2000/svg">
<g id="icons/Edit/video-two">
<path id="Union" d="M19.5 2C20.8807 2 22 3.1193 22 4.5V19.5C22 20.8807 20.8807 22 19.5 22H4.5C3.1193 22 2 20.8807 2 19.5V4.5C2 3.11929 3.11929 2 4.5 2H19.5ZM4 19.5C4 19.7762 4.22385 20 4.5 20H19.5C19.7762 20 20 19.7762 20 19.5V8.5H4V19.5ZM9.75 10.1025C10.0594 9.92397 10.4406 9.92397 10.75 10.1025L16 13.1338C16.3094 13.3124 16.5 13.6427 16.5 14C16.4999 14.3572 16.3094 14.6876 16 14.8662L10.75 17.8975C10.4407 18.0759 10.0593 18.0759 9.75 17.8975C9.44069 17.7189 9.25011 17.3884 9.25 17.0312V10.9688L9.25879 10.8359C9.29959 10.5311 9.47938 10.2588 9.75 10.1025ZM11.25 15.2988L12.375 14.6494L13.499 14L12.375 13.3506L11.25 12.7002V15.2988ZM9.36816 6.5H12.9648L14.6318 4H11.0352L9.36816 6.5ZM15.3682 6.5H20V4.5C20 4.22385 19.7762 4 19.5 4H17.0352L15.3682 6.5ZM4.5 4C4.22386 4 4 4.22386 4 4.5V6.5H6.96484L8.63184 4H4.5Z" fill="#9E9E9E"/>
</g>
</svg>
