<svg width="24" height="24" viewBox="0 0 24 24" fill="none" xmlns="http://www.w3.org/2000/svg">
<g id="icons/Edit/viewfinder">
<path id="Union" d="M3 15C3.55228 15 4 15.4477 4 16V20H8C8.55228 20 9 20.4477 9 21C9 21.5523 8.55228 22 8 22H4C2.89544 22 2 21.1046 2 20V16C2 15.4477 2.44772 15 3 15ZM21 15C21.5523 15 22 15.4477 22 16V20C22 21.1046 21.1046 22 20 22H16C15.4477 22 15 21.5523 15 21C15 20.4477 15.4477 20 16 20H20V16C20 15.4477 20.4477 15 21 15ZM13.5 6.5C13.8344 6.5 14.1466 6.66711 14.332 6.94531L15.0352 8H17.5L17.6025 8.00488C18.1067 8.05621 18.5 8.48232 18.5 9V16.5C18.5 17.0523 18.0523 17.5 17.5 17.5H6.5C5.94772 17.5 5.5 17.0523 5.5 16.5V9C5.5 8.44772 5.94772 8 6.5 8H8.96484L9.66797 6.94531L9.74316 6.84668C9.93175 6.62817 10.2073 6.5 10.5 6.5H13.5ZM10.332 9.55469C10.1466 9.83289 9.83435 10 9.5 10H7.5V15.5H16.5V10H14.5C14.1656 10 13.8534 9.83289 13.668 9.55469L12.9648 8.5H11.0352L10.332 9.55469ZM12 10C13.3807 10 14.5 11.1193 14.5 12.5C14.5 13.8807 13.3807 15 12 15C10.6193 15 9.5 13.8807 9.5 12.5C9.5 11.1193 10.6193 10 12 10ZM12 12C11.7238 12 11.5 12.2238 11.5 12.5C11.5 12.7762 11.7238 13 12 13C12.2762 13 12.5 12.7762 12.5 12.5C12.5 12.2238 12.2762 12 12 12ZM8 2C8.55228 2 9 2.44772 9 3C9 3.55228 8.55228 4 8 4H4V8C4 8.55228 3.55228 9 3 9C2.44772 9 2 8.55228 2 8V4C2 2.89543 2.89543 2 4 2H8ZM20 2C21.1046 2 22 2.89544 22 4V8C22 8.55228 21.5523 9 21 9C20.4477 9 20 8.55228 20 8V4H16C15.4477 4 15 3.55228 15 3C15 2.44772 15.4477 2 16 2H20Z" fill="#9E9E9E"/>
</g>
</svg>
