<svg width="24" height="24" viewBox="0 0 24 24" fill="none" xmlns="http://www.w3.org/2000/svg">
<g id="icons/Edit/view-grid-list">
<path id="Union" d="M19.5 2C20.8807 2 22 3.11929 22 4.5V19.5C22 20.8807 20.8807 22 19.5 22H4.5C3.11929 22 2 20.8807 2 19.5V4.5C2 3.11929 3.11929 2 4.5 2H19.5ZM4.5 4C4.22386 4 4 4.22386 4 4.5V19.5C4 19.7761 4.22386 20 4.5 20H19.5C19.7761 20 20 19.7761 20 19.5V4.5C20 4.22386 19.7761 4 19.5 4H4.5ZM10.5 12.5C11.0523 12.5 11.5 12.9477 11.5 13.5V17.5C11.5 18.0523 11.0523 18.5 10.5 18.5H6.5C5.94772 18.5 5.5 18.0523 5.5 17.5V13.5C5.5 12.9477 5.94772 12.5 6.5 12.5H10.5ZM17.5 16.5C18.0523 16.5 18.5 16.9477 18.5 17.5C18.5 18.0523 18.0523 18.5 17.5 18.5H13.5C12.9477 18.5 12.5 18.0523 12.5 17.5C12.5 16.9477 12.9477 16.5 13.5 16.5H17.5ZM7.5 16.5H9.5V14.5H7.5V16.5ZM17.5 13C18.0523 13 18.5 13.4477 18.5 14C18.5 14.5523 18.0523 15 17.5 15H13.5C12.9477 15 12.5 14.5523 12.5 14C12.5 13.4477 12.9477 13 13.5 13H17.5ZM10.5 5.5C11.0523 5.5 11.5 5.94772 11.5 6.5V10.5C11.5 11.0523 11.0523 11.5 10.5 11.5H6.5C5.94772 11.5 5.5 11.0523 5.5 10.5V6.5C5.5 5.94772 5.94772 5.5 6.5 5.5H10.5ZM17.5 9C18.0523 9 18.5 9.44772 18.5 10C18.5 10.5523 18.0523 11 17.5 11H13.5C12.9477 11 12.5 10.5523 12.5 10C12.5 9.44772 12.9477 9 13.5 9H17.5ZM7.5 9.5H9.5V7.5H7.5V9.5ZM17.5 5.5C18.0523 5.5 18.5 5.94772 18.5 6.5C18.5 7.05228 18.0523 7.5 17.5 7.5H13.5C12.9477 7.5 12.5 7.05228 12.5 6.5C12.5 5.94772 12.9477 5.5 13.5 5.5H17.5Z" fill="#9E9E9E"/>
</g>
</svg>
