<svg width="24" height="24" viewBox="0 0 24 24" fill="none" xmlns="http://www.w3.org/2000/svg">
<g id="icons/Edit/word">
<path id="Union" d="M19.5 2C20.8807 2 22 3.11929 22 4.5V19.5C22 20.8807 20.8807 22 19.5 22H4.5C3.11929 22 2 20.8807 2 19.5V4.5C2 3.11929 3.11929 2 4.5 2H19.5ZM4.5 4C4.22386 4 4 4.22386 4 4.5V19.5C4 19.7761 4.22386 20 4.5 20H19.5C19.7761 20 20 19.7761 20 19.5V4.5C20 4.22386 19.7761 4 19.5 4H4.5ZM16.0303 7.75781C16.1642 7.22209 16.7065 6.89648 17.2422 7.03027C17.7779 7.1642 18.1035 7.70647 17.9697 8.24219L15.9697 16.2422C15.8669 16.6537 15.516 16.9563 15.0938 16.9961C14.6714 17.0358 14.2696 16.8041 14.0918 16.4189L12 11.8867L9.9082 16.4189C9.73044 16.8041 9.32859 17.0358 8.90625 16.9961C8.48396 16.9563 8.13315 16.6537 8.03027 16.2422L6.03027 8.24219C5.89648 7.70647 6.22209 7.1642 6.75781 7.03027C7.29353 6.89648 7.8358 7.22209 7.96973 7.75781L9.28125 13.0039L11.0918 9.08105L11.1621 8.9541C11.3448 8.67355 11.6588 8.5 12 8.5C12.3901 8.5 12.7447 8.7269 12.9082 9.08105L14.7188 13.0039L16.0303 7.75781Z" fill="#9E9E9E"/>
</g>
</svg>
