<svg width="24" height="24" viewBox="0 0 24 24" fill="none" xmlns="http://www.w3.org/2000/svg">
<g id="icons/Edit/writing-fluently">
<path id="Union" d="M8 11C8.55228 11 9 11.4477 9 12C8.99987 12.5522 8.55221 13 8 13H4.5C3.67158 13 3 13.6716 3 14.5C3.00013 15.3283 3.67166 16 4.5 16H19.5C21.433 16 23 17.567 23 19.5C22.9999 21.4329 21.4329 23 19.5 23H9C8.44779 23 8.00013 22.5522 8 22C8 21.4477 8.44772 21 9 21H19.5C20.3283 21 20.9999 20.3283 21 19.5C21 18.6716 20.3284 18 19.5 18H4.5C2.56708 18 1.00013 16.4329 1 14.5C1 12.567 2.567 11 4.5 11H8ZM18.8691 1.22461C19.2619 0.904259 19.8409 0.926853 20.207 1.29297L22.707 3.79297C23.0974 4.1835 23.0975 4.81655 22.707 5.20703L15.207 12.707C15.0195 12.8945 14.7652 13 14.5 13H12C11.4478 13 11.0001 12.5522 11 12V9.5L11.0049 9.40137C11.0276 9.17242 11.1289 8.9571 11.293 8.79297L18.793 1.29297L18.8691 1.22461ZM13 9.91406V11H14.0859L20.5859 4.5L19.5 3.41406L13 9.91406Z" fill="#9E9E9E"/>
</g>
</svg>
