<svg width="24" height="24" viewBox="0 0 24 24" fill="none" xmlns="http://www.w3.org/2000/svg">
<g id="icons/Edit/write">
<path id="Union" d="M17.5869 1.17578C17.9797 0.855082 18.5595 0.8779 18.9258 1.24414L23.168 5.48633C23.3554 5.67376 23.4608 5.92831 23.4609 6.19336C23.4609 6.45856 23.3555 6.71384 23.168 6.90137L7.6123 22.457C7.42477 22.6446 7.16951 22.75 6.9043 22.75H2.66211C2.10991 22.7499 1.66215 22.3022 1.66211 21.75V17.5078C1.6621 17.2427 1.76764 16.9883 1.95508 16.8008L17.5117 1.24414L17.5869 1.17578ZM3.66211 17.9219V20.75H6.49023L16.8027 10.4355L13.9756 7.60742L3.66211 17.9219ZM15.3896 6.19336L18.2178 9.02051L21.0459 6.19336L18.2178 3.36523L15.3896 6.19336Z" fill="#9E9E9E"/>
</g>
</svg>
