<svg width="24" height="24" viewBox="0 0 24 24" fill="none" xmlns="http://www.w3.org/2000/svg">
<g id="icons/Edit/zip">
<path id="Union" d="M11.7188 1.54004C11.9326 1.4774 12.1625 1.48796 12.3711 1.57129L22.0566 5.44531C22.6261 5.67302 22.9999 6.22556 23 6.83887V21C23 21.8284 22.3284 22.5 21.5 22.5H2.5C1.67159 22.5 1 21.8284 1 21V6.83887C1.00009 6.22562 1.3738 5.67304 1.94336 5.44531L11.6289 1.57129L11.7188 1.54004ZM3 7.17676V20.5H21V7.17676L12 3.57617L3 7.17676ZM9.00195 10C9.36223 10 9.69554 10.1943 9.87305 10.5078C10.0502 10.8213 10.0447 11.2059 9.85938 11.5146L7.7666 15H9.00195C9.55416 15 10.0018 15.4478 10.002 16C10.0018 16.5521 9.55412 17 9.00195 17H6C5.63969 17 5.30737 16.8057 5.12988 16.4922C4.9525 16.1786 4.9571 15.7932 5.14258 15.4844L7.23535 12H6C5.44772 12 5 11.5523 5 11C5.00012 10.4478 5.44779 10 6 10H9.00195ZM12 10C12.5522 10 12.9999 10.4478 13 11V16C13 16.5523 12.5523 17 12 17C11.4477 17 11 16.5523 11 16V11C11.0001 10.4478 11.4478 10 12 10ZM16.5 10C17.7022 10 18.9999 10.8445 19 12.25C19 13.6556 17.7023 14.5 16.5 14.5C16.3338 14.5 16.1662 14.4817 16 14.4502V16C16 16.5523 15.5523 17 15 17C14.4477 17 14 16.5523 14 16V11C14.0001 10.4478 14.4478 10 15 10C15.0233 10 15.0464 10.0023 15.0693 10.0039C15.0961 10.002 15.1231 10 15.1504 10H16.5ZM16 12.25C16 12.2534 15.9992 12.2985 16.0791 12.3652C16.1617 12.4341 16.3075 12.5 16.5 12.5C16.6925 12.5 16.8383 12.4341 16.9209 12.3652C17.0008 12.2985 17 12.2534 17 12.25C17 12.2452 16.9995 12.2004 16.9209 12.1348C16.8383 12.066 16.6924 12 16.5 12H16V12.25Z" fill="#9E9E9E"/>
</g>
</svg>
