<svg width="24" height="24" viewBox="0 0 24 24" fill="none" xmlns="http://www.w3.org/2000/svg">
<g id="icons/Office/add-picture">
<path id="Union" d="M12 2C12.5523 2 13 2.44771 13 3C13 3.55228 12.5523 4 12 4H4.5C4.22386 4 4 4.22386 4 4.5V15.2256L7.6709 11.8613C8.41673 11.1778 9.55607 11.1589 10.3242 11.8174L13.5244 14.5605L15.6797 12.4062C16.3835 11.7025 17.4977 11.6236 18.2939 12.2207L20 13.5V12C20 11.4477 20.4477 11 21 11C21.5523 11 22 11.4477 22 12V19.5C22 20.8807 20.8807 22 19.5 22H4.5C3.11928 22 2 20.8807 2 19.5V4.5C2 3.11928 3.11929 2 4.5 2H12ZM4 17.9395V19.5C4 19.7761 4.22386 20 4.5 20H19.5C19.7761 20 20 19.7761 20 19.5V15.999L17.0938 13.8203L15.0469 15.8662L16.6504 17.2402C17.0697 17.5997 17.1182 18.2311 16.7588 18.6504C16.3994 19.0696 15.7689 19.1181 15.3496 18.7588L9.02246 13.3359L4 17.9395ZM18 2C18.5523 2 19 2.44772 19 3V5H21C21.5523 5 22 5.44772 22 6C22 6.55228 21.5523 7 21 7H19V9C19 9.55228 18.5523 10 18 10C17.4477 10 17 9.55228 17 9V7H15C14.4477 7 14 6.55228 14 6C14 5.44772 14.4477 5 15 5H17V3C17 2.44772 17.4477 2 18 2Z" fill="#9E9E9E"/>
</g>
</svg>
