<svg width="24" height="24" viewBox="0 0 24 24" fill="none" xmlns="http://www.w3.org/2000/svg">
<g id="icons/Office/add-print">
<path id="Union" d="M21 2C21.5523 2 22 2.44772 22 3V9.5C22 10.0523 21.5523 10.5 21 10.5H19V22C19 22.3777 18.7875 22.7236 18.4502 22.8936C18.1129 23.0635 17.7078 23.0285 17.4043 22.8037L15 21.0215L12.5957 22.8037C12.2421 23.0656 11.7579 23.0656 11.4043 22.8037L9 21.0215L6.5957 22.8037C6.2922 23.0285 5.88712 23.0635 5.5498 22.8936C5.21252 22.7236 5 22.3777 5 22V10.5H3C2.44772 10.5 2 10.0523 2 9.5V3C2 2.44772 2.44772 2 3 2H21ZM7 20.0137L8.4043 18.9746L8.54297 18.8887C8.87721 18.7167 9.28627 18.7454 9.5957 18.9746L12 20.7549L14.4043 18.9746L14.543 18.8887C14.8772 18.7167 15.2863 18.7454 15.5957 18.9746L17 20.0137V7H7V20.0137ZM12 10C12.5523 10 13 10.4477 13 11V12H14C14.5523 12 15 12.4477 15 13C15 13.5523 14.5523 14 14 14H13V15C13 15.5523 12.5523 16 12 16C11.4477 16 11 15.5523 11 15V14H10C9.44772 14 9 13.5523 9 13C9 12.4477 9.44772 12 10 12H11V11C11 10.4477 11.4477 10 12 10ZM4 8.5H5V6C5 5.44772 5.44772 5 6 5H18C18.5523 5 19 5.44772 19 6V8.5H20V4H4V8.5Z" fill="#9E9E9E"/>
</g>
</svg>
