<svg width="24" height="24" viewBox="0 0 24 24" fill="none" xmlns="http://www.w3.org/2000/svg">
<g id="icons/Office/add-web">
<path id="Union" d="M19 13.5C19.5523 13.5 20 13.9477 20 14.5V16.5H22C22.5523 16.5 23 16.9477 23 17.5C23 18.0523 22.5523 18.5 22 18.5H20V20.5C20 21.0523 19.5523 21.5 19 21.5C18.4477 21.5 18 21.0523 18 20.5V18.5H16C15.4477 18.5 15 18.0523 15 17.5C15 16.9477 15.4477 16.5 16 16.5H18V14.5C18 13.9477 18.4477 13.5 19 13.5ZM20.5 3C21.8807 3 23 4.1193 23 5.5V12.4707C22.9999 13.0229 22.5522 13.4707 22 13.4707C21.4478 13.4707 21.0001 13.0229 21 12.4707V11H3V18.5C3 18.7762 3.22385 19 3.5 19H12.5C13.0523 19 13.5 19.4477 13.5 20C13.5 20.5523 13.0523 21 12.5 21H3.5C2.1193 21 1 19.8807 1 18.5V5.5C1 4.11929 2.11929 3 3.5 3H20.5ZM3.5 5C3.22386 5 3 5.22386 3 5.5V9H21V5.5C21 5.22385 20.7762 5 20.5 5H3.5ZM5 6C5.55228 6 6 6.44772 6 7C6 7.55228 5.55228 8 5 8C4.44772 8 4 7.55228 4 7C4 6.44772 4.44772 6 5 6ZM8 6C8.55228 6 9 6.44772 9 7C9 7.55228 8.55228 8 8 8C7.44772 8 7 7.55228 7 7C7 6.44772 7.44772 6 8 6Z" fill="#9E9E9E"/>
</g>
</svg>
