<svg width="24" height="24" viewBox="0 0 24 24" fill="none" xmlns="http://www.w3.org/2000/svg">
<g id="icons/Office/agreement">
<path id="Union" d="M19 1C20.1046 1 21 1.89543 21 3V21C21 22.1046 20.1046 23 19 23H5C3.89543 23 3 22.1046 3 21V3C3 1.89543 3.89543 1 5 1H19ZM5 21H19V3H13.5V10C13.5 10.3938 13.2684 10.7508 12.9092 10.9121C12.55 11.0732 12.1302 11.0086 11.8359 10.7471L10.25 9.33691L8.66406 10.7471C8.36983 11.0086 7.94998 11.0732 7.59082 10.9121C7.23159 10.7508 7 10.3938 7 10V3H5V21ZM16 16C16.5523 16 17 16.4477 17 17C17 17.5523 16.5523 18 16 18H8C7.44772 18 7 17.5523 7 17C7 16.4477 7.44772 16 8 16H16ZM13 13C13.5523 13 14 13.4477 14 14C14 14.5523 13.5523 15 13 15H8C7.44772 15 7 14.5523 7 14C7 13.4477 7.44772 13 8 13H13ZM9 7.77344L9.58594 7.25293L9.65918 7.19336C10.0355 6.91727 10.5589 6.93726 10.9141 7.25293L11.5 7.77344V3H9V7.77344Z" fill="#9E9E9E"/>
</g>
</svg>
