<svg width="24" height="24" viewBox="0 0 24 24" fill="none" xmlns="http://www.w3.org/2000/svg">
<g id="icons/Office/announcement">
<path id="Union" d="M11.3691 2.72461C11.7619 2.40426 12.3409 2.42685 12.707 2.79297L16.4141 6.5H21C22.1046 6.5 23 7.39543 23 8.5V19.5C22.9999 20.6045 22.1045 21.5 21 21.5H3C1.89551 21.5 1.00013 20.6045 1 19.5V8.5C1 7.39543 1.89543 6.5 3 6.5H7.58594L11.293 2.79297L11.3691 2.72461ZM3 19.5H21V8.5H3V19.5ZM10 15C10.5523 15 11 15.4477 11 16C10.9999 16.5522 10.5522 17 10 17H6C5.44779 17 5.00013 16.5522 5 16C5 15.4477 5.44772 15 6 15H10ZM15 11C15.5523 11 16 11.4477 16 12C15.9999 12.5522 15.5522 13 15 13H6C5.44779 13 5.00013 12.5522 5 12C5 11.4477 5.44772 11 6 11H15ZM10.4141 6.5H13.5859L12 4.91406L10.4141 6.5Z" fill="#9E9E9E"/>
</g>
</svg>
