<svg width="24" height="24" viewBox="0 0 24 24" fill="none" xmlns="http://www.w3.org/2000/svg">
<g id="icons/Office/application-effect">
<path id="Union" d="M12 0.944336C15.866 0.944336 19 4.07833 19 7.94434C19 8.49145 18.9342 9.02319 18.8154 9.53418C21.2783 10.6176 22.9999 13.0788 23 15.9443C23 19.8103 19.866 22.9443 16 22.9443C14.5127 22.9443 13.1331 22.4787 11.999 21.6875C10.8651 22.4787 9.48748 22.9453 8 22.9453C4.13427 22.9453 1.00042 19.8109 1 15.9453C1 13.0802 2.72132 10.6189 5.18359 9.53516C5.06476 9.02395 5 8.49171 5 7.94434C5.00001 4.07833 8.13402 0.944336 12 0.944336ZM5.91309 11.3994C4.19287 12.1905 3 13.93 3 15.9453C3.00042 18.7064 5.23884 20.9453 8 20.9453C10.7612 20.9453 12.9996 18.7064 13 15.9453C13 15.5813 12.9602 15.2267 12.8867 14.8857C12.5962 14.9225 12.3005 14.9443 12 14.9443C9.39094 14.9443 7.11705 13.5159 5.91309 11.3994ZM18.0859 11.3994C17.3444 12.7027 16.1983 13.7443 14.8164 14.3525C14.9356 14.8648 15 15.3983 15 15.9453C14.9998 17.58 14.4373 19.0821 13.498 20.2734C14.234 20.6998 15.0876 20.9443 16 20.9443C18.7614 20.9443 21 18.7058 21 15.9443C20.9999 13.9288 19.8066 12.1903 18.0859 11.3994ZM12 2.94434C9.23859 2.94434 7.00001 5.1829 7 7.94434C7 10.7058 9.23858 12.9443 12 12.9443C14.7614 12.9443 17 10.7058 17 7.94434C17 5.1829 14.7614 2.94434 12 2.94434Z" fill="#9E9E9E"/>
</g>
</svg>
