<svg width="24" height="24" viewBox="0 0 24 24" fill="none" xmlns="http://www.w3.org/2000/svg">
<g id="icons/Office/audio-file">
<path id="Union" d="M15.5 1C15.7919 1 16.0688 1.12796 16.2588 1.34961L20.7588 6.59961C20.9141 6.78085 21 7.01129 21 7.25V22C21 22.5523 20.5523 23 20 23H4C3.44772 23 3 22.5523 3 22V2C3 1.44772 3.44772 1 4 1H15.5ZM5 21H19V7.61816L15.041 3H5V21ZM15.5566 6.10352C16.0516 5.85872 16.6516 6.0617 16.8965 6.55664C17.1413 7.05161 16.9383 7.65159 16.4434 7.89648L14 9.10449V15.75C14 17.8211 12.3211 19.5 10.25 19.5C8.17893 19.5 6.5 17.8211 6.5 15.75C6.5 13.6789 8.17893 12 10.25 12C10.8821 12 11.4776 12.1564 12 12.4326V8.48438C12 8.10411 12.2158 7.75653 12.5566 7.58789L15.5566 6.10352ZM10.25 14C9.2835 14 8.5 14.7835 8.5 15.75C8.5 16.7165 9.2835 17.5 10.25 17.5C11.2165 17.5 12 16.7165 12 15.75C12 14.7835 11.2165 14 10.25 14Z" fill="#9E9E9E"/>
</g>
</svg>
