<svg width="24" height="24" viewBox="0 0 24 24" fill="none" xmlns="http://www.w3.org/2000/svg">
<g id="icons/Office/book-open">
<path id="Union" d="M8 2.5C9.63575 2.5 11.0878 3.28565 12 4.5C12.9122 3.28565 14.3643 2.5 16 2.5H21.5C22.0523 2.5 22.5 2.94772 22.5 3.5V18C22.5 18.5523 22.0523 19 21.5 19H15C13.8954 19 13 19.8954 13 21C13 21.5523 12.5523 22 12 22C11.4477 22 11 21.5523 11 21C11 19.8954 10.1046 19 9 19H2.5C1.94772 19 1.5 18.5523 1.5 18V3.5C1.5 2.94772 1.94772 2.5 2.5 2.5H8ZM3.5 17H9C9.72875 17 10.4116 17.1956 11 17.5361V7.5C11 5.84313 9.65687 4.5 8 4.5H3.5V17ZM16 4.5C14.3431 4.5 13 5.84313 13 7.5V17.5361C13.5884 17.1956 14.2712 17 15 17H20.5V4.5H16Z" fill="#9E9E9E"/>
</g>
</svg>
