<svg width="24" height="24" viewBox="0 0 24 24" fill="none" xmlns="http://www.w3.org/2000/svg">
<g id="icons/Office/bookshelf">
<path id="Union" d="M21.6705 13.0146C22.0596 13.0819 22.38 13.3757 22.4733 13.7705C22.5793 14.2205 22.3623 14.6834 21.9498 14.8916H21.9528C21.9538 14.891 21.9551 14.89 21.9557 14.8896C21.9559 14.8895 21.9555 14.8906 21.9537 14.8916C21.949 14.8942 21.9375 14.8997 21.9215 14.9092C21.8884 14.9287 21.8338 14.9632 21.7653 15.0117C21.6267 15.1099 21.4364 15.2632 21.2467 15.4766C20.8746 15.8953 20.4996 16.5429 20.4996 17.5C20.4996 18.4571 20.8746 19.1047 21.2467 19.5234C21.4364 19.7368 21.6267 19.8901 21.7653 19.9883C21.8338 20.0368 21.8884 20.0713 21.9215 20.0908C21.9375 20.1003 21.949 20.1058 21.9537 20.1084C21.9555 20.1094 21.9559 20.1105 21.9557 20.1104C21.9551 20.11 21.9538 20.109 21.9528 20.1084L21.9508 20.1074C22.363 20.3157 22.5793 20.7796 22.4733 21.2295C22.3667 21.6808 21.9634 22 21.4996 22H4.49963C4.34452 21.9999 4.19111 21.9639 4.05237 21.8945L4.49963 21C4.08145 21.8364 4.05357 21.8903 4.05139 21.8936H4.05042L4.04846 21.8926C4.0471 21.8918 4.04512 21.8904 4.04358 21.8896C4.04047 21.888 4.03677 21.8858 4.03284 21.8838C4.02425 21.8793 4.01282 21.8738 4.00061 21.8672C3.97599 21.8538 3.94377 21.8358 3.90588 21.8135C3.82967 21.7685 3.72749 21.705 3.60901 21.6211C3.3726 21.4536 3.06262 21.2004 2.75256 20.8516C2.12481 20.1453 1.49963 19.0427 1.49963 17.5C1.49963 15.9573 2.12481 14.8547 2.75256 14.1484C3.06262 13.7996 3.3726 13.5464 3.60901 13.3789C3.72749 13.295 3.82967 13.2315 3.90588 13.1865C3.94377 13.1642 3.97599 13.1462 4.00061 13.1328C4.01282 13.1262 4.02425 13.1207 4.03284 13.1162C4.03677 13.1142 4.04047 13.112 4.04358 13.1104C4.04512 13.1096 4.0471 13.1082 4.04846 13.1074L4.05042 13.1064H4.05139C4.05335 13.1094 4.07579 13.1535 4.3844 13.7705L4.05237 13.1055C4.19111 13.0361 4.34452 13.0001 4.49963 13H21.4996L21.6705 13.0146ZM4.76526 15.0117C4.62674 15.1099 4.43637 15.2632 4.2467 15.4766C3.87457 15.8953 3.49963 16.5429 3.49963 17.5C3.49963 18.4571 3.87457 19.1047 4.2467 19.5234C4.43637 19.7368 4.62674 19.8901 4.76526 19.9883C4.771 19.9923 4.77729 19.9962 4.78284 20H19.1422C18.7744 19.3514 18.4996 18.5223 18.4996 17.5C18.4996 16.4777 18.7744 15.6486 19.1422 15H4.78284C4.77729 15.0038 4.771 15.0077 4.76526 15.0117ZM19.6158 2.00684C19.7307 2.02027 19.843 2.05354 19.9469 2.10547L19.4996 3C19.9121 2.17514 19.945 2.11122 19.9479 2.10645H19.9489L19.9508 2.10742C19.9521 2.10809 19.9541 2.1095 19.9557 2.11035C19.9588 2.11194 19.9625 2.11415 19.9664 2.11621C19.975 2.12066 19.9864 2.12619 19.9987 2.13281C20.0233 2.14614 20.0555 2.16419 20.0934 2.18652C20.1696 2.23143 20.2717 2.29497 20.3903 2.37891C20.6267 2.54636 20.9366 2.7996 21.2467 3.14844C21.8745 3.85473 22.4996 4.95721 22.4996 6.5C22.4996 8.04279 21.8745 9.14527 21.2467 9.85156C20.9366 10.2004 20.6267 10.4536 20.3903 10.6211C20.2717 10.705 20.1696 10.7686 20.0934 10.8135C20.0555 10.8358 20.0233 10.8539 19.9987 10.8672C19.9864 10.8738 19.975 10.8793 19.9664 10.8838C19.9625 10.8858 19.9588 10.8881 19.9557 10.8896C19.9541 10.8905 19.9521 10.8919 19.9508 10.8926L19.9489 10.8936H19.9479C19.945 10.8888 19.9121 10.8249 19.4996 10L19.9469 10.8945C19.8081 10.9639 19.6548 11 19.4996 11H2.49963C2.03602 10.9998 1.63253 10.6807 1.526 10.2295C1.42004 9.77978 1.63651 9.3158 2.04846 9.10742L2.04651 9.1084C2.04535 9.10905 2.04404 9.11011 2.04358 9.11035C2.04356 9.11017 2.04425 9.10917 2.04553 9.1084C2.05008 9.10593 2.06153 9.10037 2.07776 9.09082C2.1108 9.07135 2.1654 9.03687 2.23401 8.98828C2.37251 8.89016 2.56284 8.73684 2.75256 8.52344C3.12475 8.10473 3.49963 7.45721 3.49963 6.5C3.49963 5.54279 3.12475 4.89527 2.75256 4.47656C2.56284 4.26316 2.37251 4.10984 2.23401 4.01172C2.1654 3.96313 2.1108 3.92865 2.07776 3.90918C2.06153 3.89963 2.05008 3.89407 2.04553 3.8916C2.04425 3.89083 2.04356 3.88983 2.04358 3.88965C2.04404 3.88989 2.04535 3.89095 2.04651 3.8916H2.04944C1.63724 3.68332 1.42001 3.22036 1.526 2.77051C1.63253 2.31926 2.03602 2.00018 2.49963 2H19.4996L19.6158 2.00684ZM4.85706 4C5.22488 4.6486 5.49963 5.47757 5.49963 6.5C5.49963 7.52243 5.22488 8.3514 4.85706 9H19.2164C19.222 8.99614 19.2283 8.99234 19.234 8.98828C19.3725 8.89016 19.5628 8.73684 19.7526 8.52344C20.1247 8.10473 20.4996 7.45721 20.4996 6.5C20.4996 5.54279 20.1247 4.89527 19.7526 4.47656C19.5628 4.26316 19.3725 4.10984 19.234 4.01172C19.2283 4.00766 19.222 4.00386 19.2164 4H4.85706Z" fill="#9E9E9E"/>
</g>
</svg>
