<svg width="24" height="24" viewBox="0 0 24 24" fill="none" xmlns="http://www.w3.org/2000/svg">
<g id="icons/Office/book">
<path id="Union" d="M20 1C20.5523 1 21 1.44772 21 2V22C21 22.5523 20.5523 23 20 23H6C4.34314 23 3 21.6568 3 20V5C3 2.73104 4.94239 1 7.2002 1H20ZM7.2002 19C6.58505 19 6.12392 19.0218 5.77441 19.0703C5.68764 19.0824 5.61194 19.0957 5.5459 19.1094C5.22199 19.2749 5 19.6113 5 20C5 20.5523 5.44772 21 6 21H19V19H7.2002ZM7.2002 3C5.9234 3 5 3.95525 5 5V17.1738C5.31306 17.0631 5.649 17 6 17H19V3H7.2002Z" fill="#9E9E9E"/>
</g>
</svg>
