<svg width="24" height="24" viewBox="0 0 24 24" fill="none" xmlns="http://www.w3.org/2000/svg">
<g id="icons/Office/book-one">
<path id="Union" d="M17.5 1.5C18.0523 1.5 18.5 1.94772 18.5 2.5V15.5C18.5 16.0523 18.0523 16.5 17.5 16.5H6.5C5.40057 16.5 4.5 17.3961 4.5 18.5C4.5 19.6046 5.39543 20.5 6.5 20.5H19.5V3.5C19.5 2.94772 19.9477 2.5 20.5 2.5C21.0523 2.5 21.5 2.94772 21.5 3.5V21.5C21.5 22.0523 21.0523 22.5 20.5 22.5H6.5C4.29086 22.5 2.5 20.7091 2.5 18.5V5.5C2.5 3.29086 4.29086 1.5 6.5 1.5H17.5ZM17 17.5C17.5523 17.5 18 17.9477 18 18.5C18 19.0523 17.5523 19.5 17 19.5H7C6.44772 19.5 6 19.0523 6 18.5C6 17.9477 6.44772 17.5 7 17.5H17ZM6.5 3.5C5.39543 3.5 4.5 4.39543 4.5 5.5V15.0361C4.71631 14.911 4.94509 14.805 5.18457 14.7217C5.19554 14.7178 5.20676 14.7147 5.21777 14.7109C5.45358 14.6312 5.69893 14.5718 5.95215 14.5371C5.96254 14.5357 5.97298 14.5346 5.9834 14.5332C6.05123 14.5245 6.11963 14.518 6.18848 14.5127C6.20993 14.511 6.23139 14.5091 6.25293 14.5078C6.33465 14.5028 6.41702 14.5 6.5 14.5H16.5V3.5H6.5Z" fill="#9E9E9E"/>
</g>
</svg>
