<svg width="24" height="24" viewBox="0 0 24 24" fill="none" xmlns="http://www.w3.org/2000/svg">
<g id="icons/Office/box">
<path id="Union" d="M17.5 1.5C17.7884 1.5 18.063 1.62478 18.2529 1.8418L21.7529 5.8418C21.9689 6.08884 22.0395 6.41187 21.9756 6.70996C21.9894 6.80481 22 6.90132 22 7V20C22 21.1046 21.1046 22 20 22H4C2.89543 22 2 21.1046 2 20V7C2 6.90137 2.00965 6.80477 2.02344 6.70996C1.9596 6.41192 2.03115 6.08879 2.24707 5.8418L5.74707 1.8418C5.93696 1.62478 6.21164 1.5 6.5 1.5H17.5ZM4 20H20V7H4V20ZM14.9746 11.0039C15.5269 11.0039 15.9746 11.4516 15.9746 12.0039C15.9746 12.5562 15.5269 13.0039 14.9746 13.0039H8.97461C8.42244 13.0038 7.97461 12.5561 7.97461 12.0039C7.97461 11.4517 8.42244 11.004 8.97461 11.0039H14.9746ZM5.6416 5H18.3584L17.0459 3.5H6.9541L5.6416 5Z" fill="#9E9E9E"/>
</g>
</svg>
