<svg width="24" height="24" viewBox="0 0 24 24" fill="none" xmlns="http://www.w3.org/2000/svg">
<g id="icons/Office/chinese">
<path id="Union" d="M19.5 2C20.8807 2 22 3.11929 22 4.5V19.5C22 20.8807 20.8807 22 19.5 22H4.5C3.11929 22 2 20.8807 2 19.5V4.5C2 3.11929 3.11929 2 4.5 2H19.5ZM4.5 4C4.22386 4 4 4.22386 4 4.5V19.5C4 19.7761 4.22386 20 4.5 20H19.5C19.7761 20 20 19.7761 20 19.5V4.5C20 4.22386 19.7761 4 19.5 4H4.5ZM12 6C12.5523 6 13 6.44772 13 7V8H17C17.5523 8 18 8.44772 18 9V14C18 14.5523 17.5523 15 17 15H13V17.5C13 18.0523 12.5523 18.5 12 18.5C11.4477 18.5 11 18.0523 11 17.5V15H7C6.44772 15 6 14.5523 6 14V9C6 8.44772 6.44772 8 7 8H11V7C11 6.44772 11.4477 6 12 6ZM13 13H16V10H13V13ZM8 13H11V10H8V13Z" fill="#9E9E9E"/>
</g>
</svg>
