<svg width="24" height="24" viewBox="0 0 24 24" fill="none" xmlns="http://www.w3.org/2000/svg">
<g id="icons/Office/chinese-one">
<path id="Union" d="M19.5 2C20.8807 2 22 3.11929 22 4.5V19.5C22 20.8807 20.8807 22 19.5 22H4.5C3.11929 22 2 20.8807 2 19.5V4.5C2 3.11929 3.11929 2 4.5 2H19.5ZM4.5 4C4.22386 4 4 4.22386 4 4.5V19.5C4 19.7761 4.22386 20 4.5 20H19.5C19.7761 20 20 19.7761 20 19.5V4.5C20 4.22386 19.7761 4 19.5 4H4.5ZM8.38281 7.52148C9.32602 7.40686 10.0628 7.76496 10.5664 8.24512C11.0419 8.69853 11.3129 9.25641 11.4463 9.64551C11.6251 10.1678 11.3465 10.736 10.8242 10.915C10.3018 11.0942 9.73284 10.8164 9.55371 10.2939C9.48754 10.1009 9.35967 9.8575 9.18652 9.69238C9.04136 9.55399 8.87852 9.47591 8.62402 9.50684C8.45669 9.52738 8.1676 9.67101 7.89941 10.1699C7.63772 10.6568 7.46419 11.3799 7.50684 12.249C7.54873 13.1027 7.79617 13.7009 8.06738 14.0605C8.34711 14.4314 8.60191 14.4999 8.70312 14.5C8.883 14.5 9.08032 14.3973 9.29199 14.1504C9.38998 14.036 9.467 13.9171 9.51953 13.8252C9.54519 13.7803 9.56369 13.7442 9.57422 13.7227C9.57701 13.717 9.57943 13.7124 9.58105 13.709C9.79857 13.2015 10.386 12.9663 10.8936 13.1836C11.3693 13.3875 11.6064 13.9169 11.4551 14.4004L11.4189 14.4971V14.498L11.418 14.5C11.4176 14.501 11.4165 14.5018 11.416 14.5029C11.415 14.5054 11.4145 14.5086 11.4131 14.5117C11.4103 14.518 11.4064 14.5253 11.4023 14.5342C11.3942 14.552 11.3836 14.5751 11.3701 14.6025C11.3432 14.6575 11.3051 14.7313 11.2559 14.8174C11.1588 14.9873 11.0117 15.2175 10.8105 15.4521C10.4234 15.9038 9.721 16.5 8.70312 16.5C7.8063 16.4999 7.01404 15.9858 6.4707 15.2656C5.91857 14.5337 5.56689 13.5305 5.50879 12.3467C5.45153 11.1784 5.67677 10.0819 6.13867 9.22266C6.5939 8.3761 7.35276 7.64684 8.38281 7.52148ZM13 8.5C13.47 8.5 13.8627 8.82468 13.9697 9.26172C14.3626 9.09318 14.7954 9 15.25 9C17.0449 9 18.5 10.4551 18.5 12.25V15.5C18.5 16.0523 18.0523 16.5 17.5 16.5C16.9477 16.5 16.5 16.0523 16.5 15.5V12.25C16.5 11.5596 15.9404 11 15.25 11C14.5596 11 14 11.5596 14 12.25V15.5C14 16.0523 13.5523 16.5 13 16.5C12.4477 16.5 12 16.0523 12 15.5V9.5C12 8.94772 12.4477 8.5 13 8.5Z" fill="#9E9E9E"/>
</g>
</svg>
