<svg width="24" height="24" viewBox="0 0 24 24" fill="none" xmlns="http://www.w3.org/2000/svg">
<g id="icons/Office/collect-picture">
<path id="Union" d="M11.5 2C12.0523 2 12.5 2.44771 12.5 3C12.5 3.55228 12.0523 4 11.5 4H4.5C4.22386 4 4 4.22386 4 4.5V15.2256L7.6709 11.8613C8.41673 11.1778 9.55607 11.1589 10.3242 11.8174L13.5244 14.5605L15.6797 12.4062C16.3835 11.7025 17.4977 11.6236 18.2939 12.2207L20 13.5V10.5C20 9.9477 20.4477 9.5 21 9.5C21.5523 9.5 22 9.9477 22 10.5V19.5C22 20.8807 20.8807 22 19.5 22H4.5C3.11928 22 2 20.8807 2 19.5V4.5C2 3.11928 3.11929 2 4.5 2H11.5ZM4 17.9395V19.5C4 19.7761 4.22386 20 4.5 20H19.5C19.7761 20 20 19.7761 20 19.5V15.999L17.0938 13.8203L15.0469 15.8662L16.6504 17.2402C17.0697 17.5997 17.1182 18.2311 16.7588 18.6504C16.3994 19.0696 15.7689 19.1181 15.3496 18.7588L9.02246 13.3359L4 17.9395ZM19.3496 2C20.7853 2 22 3.13787 22 4.60254C21.9999 5.79883 21.2894 6.80702 20.5938 7.48926C19.8852 8.18401 19.0049 8.72682 18.3066 8.95215C18.1073 9.01634 17.8927 9.01634 17.6934 8.95215C16.9951 8.72682 16.1148 8.18401 15.4062 7.48926C14.7106 6.80702 14.0001 5.79883 14 4.60254C14 3.13787 15.2147 2 16.6504 2C17.1412 2.00007 17.6032 2.13223 18 2.36328C18.3968 2.13223 18.8588 2.00007 19.3496 2ZM19.3496 4C19.1183 4.00012 18.9236 4.11041 18.8096 4.26758C18.6215 4.52698 18.3204 4.68066 18 4.68066C17.6796 4.68066 17.3785 4.52698 17.1904 4.26758C17.0764 4.11041 16.8817 4.00012 16.6504 4C16.2635 4 16 4.29738 16 4.60254C16.0001 5.00834 16.2651 5.5294 16.8066 6.06055C17.2034 6.44966 17.6514 6.74687 17.999 6.91895H18.001C18.3486 6.74687 18.7966 6.44966 19.1934 6.06055C19.7349 5.5294 19.9999 5.00834 20 4.60254C20 4.29738 19.7365 4 19.3496 4Z" fill="#9E9E9E"/>
</g>
</svg>
