<svg width="24" height="24" viewBox="0 0 24 24" fill="none" xmlns="http://www.w3.org/2000/svg">
<g id="icons/Office/collection-files">
<path id="Union" d="M15.5 1C15.7919 1 16.0688 1.12796 16.2588 1.34961L20.7588 6.59961C20.9141 6.78085 21 7.01129 21 7.25V22C21 22.5523 20.5523 23 20 23H4C3.44772 23 3 22.5523 3 22V2C3 1.44772 3.44772 1 4 1H15.5ZM5 21H19V7.61816L15.041 3H5V21ZM12 6.5C12.3915 6.5 12.7475 6.72879 12.9102 7.08496L14.2168 9.94727L17.3447 10.3066C17.7337 10.3512 18.0616 10.6188 18.1826 10.9912C18.3036 11.3636 18.1957 11.7724 17.9072 12.0371L15.5869 14.166L16.2129 17.251C16.2907 17.6346 16.1379 18.0286 15.8213 18.2588C15.5045 18.4889 15.0821 18.5129 14.7412 18.3203L12 16.7715L9.25977 18.3203C8.91887 18.5129 8.49645 18.4889 8.17969 18.2588C7.86296 18.0287 7.70938 17.6347 7.78711 17.251L8.41211 14.165L6.09375 12.0371C5.80526 11.7724 5.69737 11.3636 5.81836 10.9912C5.93935 10.619 6.26647 10.3513 6.65527 10.3066L9.7832 9.94727L11.0908 7.08496L11.1602 6.95703C11.3424 6.67483 11.6576 6.50011 12 6.5ZM11.3682 11.293C11.2226 11.6118 10.9205 11.8311 10.5723 11.8711L9.05859 12.0439L10.1816 13.0742C10.4397 13.3112 10.555 13.6664 10.4854 14.0098L10.1826 15.501L11.5088 14.7529L11.626 14.6963C11.906 14.5832 12.2251 14.6021 12.4922 14.7529L13.8174 15.501L13.5156 14.0098C13.446 13.6663 13.5612 13.3112 13.8193 13.0742L14.9404 12.0439L13.4287 11.8711C13.0805 11.8312 12.7784 11.6118 12.6328 11.293L12 9.90723L11.3682 11.293Z" fill="#9E9E9E"/>
</g>
</svg>
