<svg width="24" height="24" viewBox="0 0 24 24" fill="none" xmlns="http://www.w3.org/2000/svg">
<g id="icons/Office/compression">
<path id="Union" d="M18.5677 2C19.9643 2.00049 20.9049 3.37768 20.4935 4.66211C19.9006 6.51206 19.0003 9.71986 19.0003 12C19.0003 14.2801 19.9006 17.4879 20.4935 19.3379C20.9049 20.6223 19.9643 21.9995 18.5677 22H5.4339C4.03685 21.9999 3.09649 20.6226 3.50812 19.3379C4.10098 17.4879 5.00031 14.2801 5.00031 12C5.00031 9.71989 4.10098 6.51207 3.50812 4.66211C3.09649 3.37742 4.03685 2.00008 5.4339 2H18.5677ZM5.4212 4.01074C5.4157 4.01846 5.41261 4.02687 5.41144 4.0332C5.41064 4.03788 5.40977 4.04344 5.41241 4.05176C6.00063 5.88723 7.00031 9.36958 7.00031 12C7.00031 14.6304 6.00063 18.1128 5.41241 19.9482C5.40977 19.9566 5.41064 19.9621 5.41144 19.9668C5.41261 19.9731 5.4157 19.9815 5.4212 19.9893C5.42647 19.9965 5.43104 19.9995 5.43195 20H18.5696C18.5712 19.999 18.5756 19.9959 18.5804 19.9893C18.5859 19.9815 18.589 19.9731 18.5901 19.9668C18.5909 19.9621 18.5909 19.9566 18.5882 19.9482C18 18.1128 17.0003 14.6305 17.0003 12C17.0003 9.36955 18 5.88721 18.5882 4.05176C18.5909 4.04341 18.5909 4.03789 18.5901 4.0332C18.589 4.02689 18.5859 4.01847 18.5804 4.01074C18.5756 4.00414 18.5712 4.00099 18.5696 4H5.43195C5.43105 4.00051 5.42647 4.0035 5.4212 4.01074ZM21.2005 6.90039C21.5319 6.4587 22.1581 6.36896 22.5999 6.7002C23.0415 7.03152 23.1312 7.65784 22.8001 8.09961C22.5622 8.41676 22.3483 8.9877 22.2015 9.75098C22.0597 10.4884 22.0003 11.2988 22.0003 12C22.0003 13.383 22.2296 14.7222 22.8948 16.0527C23.1417 16.5466 22.9414 17.1475 22.4476 17.3945C21.9536 17.6415 21.3528 17.4412 21.1058 16.9473C20.2711 15.2778 20.0003 13.617 20.0003 12C20.0003 11.2013 20.066 10.2614 20.2366 9.37402C20.4023 8.5126 20.6885 7.58315 21.2005 6.90039ZM1.4007 6.7002C1.84251 6.36912 2.46882 6.45867 2.80011 6.90039C3.31206 7.58315 3.59835 8.51265 3.76398 9.37402C3.93457 10.2614 4.00031 11.2013 4.00031 12C4.00031 12.7987 3.93457 13.7386 3.76398 14.626C3.59835 15.4873 3.31206 16.4168 2.80011 17.0996C2.46882 17.5413 1.84251 17.6309 1.4007 17.2998C0.95892 16.9685 0.869268 16.3422 1.2005 15.9004C1.43833 15.5832 1.65234 15.0122 1.79913 14.249C1.94093 13.5116 2.00031 12.7011 2.00031 12C2.00031 11.2989 1.94093 10.4884 1.79913 9.75098C1.65234 8.98778 1.43833 8.41679 1.2005 8.09961C0.869268 7.65779 0.95892 7.03153 1.4007 6.7002ZM11.0003 15C11.5525 15.0002 12.0003 15.4478 12.0003 16C12.0003 16.5522 11.5525 16.9998 11.0003 17H9.00031C8.44802 17 8.00031 16.5523 8.00031 16C8.00031 15.4477 8.44802 15 9.00031 15H11.0003ZM15.0003 11C15.5525 11.0002 16.0003 11.4478 16.0003 12C16.0003 12.5522 15.5525 12.9998 15.0003 13H9.00031C8.44802 13 8.00031 12.5523 8.00031 12C8.00031 11.4477 8.44802 11 9.00031 11H15.0003ZM15.0003 6.75C15.5525 6.75015 16.0003 7.19781 16.0003 7.75C16.0003 8.30219 15.5525 8.74985 15.0003 8.75H9.00031C8.44802 8.75 8.00031 8.30228 8.00031 7.75C8.00031 7.19772 8.44802 6.75 9.00031 6.75H15.0003Z" fill="#9E9E9E"/>
</g>
</svg>
