<svg width="24" height="24" viewBox="0 0 24 24" fill="none" xmlns="http://www.w3.org/2000/svg">
<g id="icons/Office/copy-one">
<path id="Union" d="M3.5 9C4.05228 9 4.5 9.44771 4.5 10V21H14C14.5523 21 15 21.4477 15 22C15 22.5523 14.5523 23 14 23H3.5C2.94772 23 2.5 22.5523 2.5 22V10C2.5 9.44771 2.94772 9 3.5 9ZM15.0205 1.00098C15.0365 1.00131 15.0524 1.00184 15.0684 1.00293C15.0874 1.00421 15.1063 1.00548 15.125 1.00781C15.1397 1.00966 15.1543 1.01215 15.1689 1.01465C15.184 1.01722 15.199 1.0202 15.2139 1.02344C15.2306 1.02709 15.2471 1.03162 15.2637 1.03613C15.282 1.04114 15.3004 1.04574 15.3184 1.05176C15.3233 1.05342 15.328 1.05587 15.333 1.05762C15.3599 1.06711 15.3864 1.0772 15.4121 1.08887C15.4185 1.09174 15.4244 1.09562 15.4307 1.09863C15.4502 1.10797 15.4695 1.1174 15.4883 1.12793C15.5015 1.13534 15.5144 1.14332 15.5273 1.15137C15.5426 1.16084 15.5576 1.17042 15.5723 1.18066C15.5876 1.19142 15.6023 1.20313 15.6172 1.21484C15.6256 1.22145 15.6344 1.2275 15.6426 1.23438C15.6587 1.24796 15.674 1.26259 15.6895 1.27734C15.6991 1.28657 15.7085 1.29606 15.7178 1.30566C15.724 1.3121 15.7312 1.31758 15.7373 1.32422L21.2373 7.32422C21.2448 7.33242 21.2516 7.34123 21.2588 7.34961C21.2669 7.35911 21.2744 7.36911 21.2822 7.37891C21.2937 7.39337 21.3048 7.40793 21.3154 7.42285C21.3243 7.4353 21.3326 7.44807 21.3408 7.46094C21.3518 7.478 21.3623 7.49516 21.3721 7.5127C21.3773 7.5221 21.3827 7.53142 21.3877 7.54102C21.3959 7.55686 21.4038 7.57271 21.4111 7.58887C21.4191 7.60652 21.4266 7.6244 21.4336 7.64258C21.4386 7.65579 21.4428 7.66925 21.4473 7.68262C21.4516 7.69558 21.4561 7.70848 21.46 7.72168C21.4663 7.74367 21.4718 7.7658 21.4766 7.78809C21.4784 7.7965 21.4798 7.80498 21.4814 7.81348C21.4854 7.83425 21.4886 7.85505 21.4912 7.87598C21.493 7.89024 21.4949 7.9045 21.4961 7.91895C21.4977 7.93912 21.4986 7.95928 21.499 7.97949C21.4992 7.98632 21.5 7.99314 21.5 8V19C21.5 19.5523 21.0523 20 20.5 20H6.5C5.94772 20 5.5 19.5523 5.5 19V2C5.5 1.44772 5.94772 1 6.5 1H15C15.0069 1 15.0137 1.00084 15.0205 1.00098ZM7.5 18H19.5V9H15C14.4477 9 14 8.55228 14 8V3H7.5V18ZM15.5 13C16.0523 13 16.5 13.4477 16.5 14C16.5 14.5523 16.0523 15 15.5 15H9.5C8.94772 15 8.5 14.5523 8.5 14C8.5 13.4477 8.94772 13 9.5 13H15.5ZM11.5 9C12.0523 9 12.5 9.44771 12.5 10C12.5 10.5523 12.0523 11 11.5 11H9.5C8.94772 11 8.5 10.5523 8.5 10C8.5 9.44771 8.94772 9 9.5 9H11.5ZM16 7H18.2266L16 4.57031V7Z" fill="#9E9E9E"/>
</g>
</svg>
