<svg width="24" height="24" viewBox="0 0 24 24" fill="none" xmlns="http://www.w3.org/2000/svg">
<g id="icons/Office/data-file">
<path id="Union" d="M15.5 1C15.7919 1 16.0688 1.12796 16.2588 1.34961L20.7588 6.59961C20.9141 6.78085 21 7.01129 21 7.25V22C21 22.5523 20.5523 23 20 23H4C3.44772 23 3 22.5523 3 22V2C3 1.44772 3.44772 1 4 1H15.5ZM5 21H19V7.61816L15.041 3H5V21ZM16.5 8C17.0523 8 17.5 8.44772 17.5 9V16.6348C17.7987 16.8077 18 17.13 18 17.5C18 18.0523 17.5523 18.5 17 18.5H7C6.44772 18.5 6 18.0523 6 17.5C6 17.13 6.20133 16.8077 6.5 16.6348V14C6.5 13.4477 6.94772 13 7.5 13H9.5V11.5C9.5 10.9477 9.94772 10.5 10.5 10.5H12.5V9C12.5 8.44772 12.9477 8 13.5 8H16.5ZM8.5 16.5H9.5V15H8.5V16.5ZM11.5 16.5H12.5V12.5H11.5V16.5ZM14.5 16.5H15.5V10H14.5V16.5Z" fill="#9E9E9E"/>
</g>
</svg>
