<svg width="24" height="24" viewBox="0 0 24 24" fill="none" xmlns="http://www.w3.org/2000/svg">
<g id="icons/Office/date-comes-back">
<path id="Union" d="M15.4141 1.29297C15.8046 0.902447 16.4376 0.902446 16.8281 1.29297L18.9492 3.41406C19.3397 3.80459 19.3397 4.43761 18.9492 4.82812L16.8281 6.9502C16.4377 7.34033 15.8045 7.34034 15.4141 6.9502C15.0235 6.55969 15.0236 5.92569 15.4141 5.53516L15.9492 5H4.5C4.22386 5 4 5.22386 4 5.5V19.5C4.00004 19.7761 4.22387 20 4.5 20H19.5C19.7761 20 20 19.7761 20 19.5V9C20 8.44772 20.4477 8 21 8C21.5523 8 22 8.44772 22 9V19.5C22 20.8807 20.8807 22 19.5 22H4.5C3.11933 22 2.00004 20.8807 2 19.5V5.5C2 4.11929 3.11929 3 4.5 3H15.707L15.4141 2.70703C15.0236 2.31652 15.0236 1.68349 15.4141 1.29297ZM8 11C8.55228 11 9 11.4477 9 12V17C8.99996 17.5522 8.55226 18 8 18C7.44774 18 7.00004 17.5522 7 17V12C7 11.4477 7.44772 11 8 11ZM12 7.5C12.5523 7.5 13 7.94772 13 8.5V17C13 17.5522 12.5523 18 12 18C11.4477 18 11 17.5522 11 17V8.5C11 7.94772 11.4477 7.5 12 7.5ZM16 11C16.5523 11 17 11.4477 17 12V17C17 17.5522 16.5523 18 16 18C15.4477 18 15 17.5522 15 17V12C15 11.4477 15.4477 11 16 11Z" fill="#9E9E9E"/>
</g>
</svg>
