<svg width="24" height="24" viewBox="0 0 24 24" fill="none" xmlns="http://www.w3.org/2000/svg">
<g id="icons/Office/disabled-picture">
<path id="Union" d="M12 1.99902C12.5523 1.99902 13 2.44771 13 3C12.9997 3.55206 12.5521 4 12 4H4.5C4.22402 4 4.00026 4.22311 4 4.49902V15.2256L7.6709 11.8613C8.41673 11.1778 9.55607 11.1589 10.3242 11.8174L13.5244 14.5605L15.6797 12.4062C16.3835 11.7025 17.4977 11.6236 18.2939 12.2207L20 13.5V11.999C20.0003 11.447 20.4479 10.999 21 10.999C21.5521 10.999 21.9997 11.447 22 11.999V19.499C22 20.8797 20.8807 21.999 19.5 21.999H4.5C3.11928 21.999 2 20.8797 2 19.499V4.49902C2.00026 3.11854 3.11945 1.99902 4.5 1.99902H12ZM4 17.9395V19.499C4 19.7752 4.22386 19.999 4.5 19.999H19.5C19.7761 19.999 20 19.7752 20 19.499V15.999L17.0938 13.8203L15.0469 15.8662L16.6504 17.2402C17.0697 17.5997 17.1182 18.2311 16.7588 18.6504C16.3994 19.0696 15.7689 19.1181 15.3496 18.7588L9.02246 13.3359L4 17.9395ZM18 2C20.2091 2 22 3.79086 22 6C22 8.20914 20.2091 10 18 10C15.7909 10 14 8.20914 14 6C14 3.79086 15.7909 2 18 2ZM16.0693 5.4834C16.0253 5.64834 16 5.82118 16 6C16 7.10457 16.8954 8 18 8C18.1786 8 18.3509 7.9736 18.5156 7.92969L16.0693 5.4834ZM18 4C17.8212 4 17.6483 4.02531 17.4834 4.06934L19.9297 6.51562C19.9736 6.35088 20 6.17857 20 6C20 4.89543 19.1046 4 18 4Z" fill="#9E9E9E"/>
</g>
</svg>
