<svg width="24" height="24" viewBox="0 0 24 24" fill="none" xmlns="http://www.w3.org/2000/svg">
<g id="icons/Office/disabaled-web">
<path id="Union" d="M19 13.5C21.2091 13.5 23 15.2909 23 17.5C23 19.7091 21.2091 21.5 19 21.5C16.7909 21.5 15 19.7091 15 17.5C15 15.2909 16.7909 13.5 19 13.5ZM20.5 3C21.8807 3 23 4.1193 23 5.5V11.5293C23 12.0816 22.5523 12.5293 22 12.5293C21.4477 12.5293 21 12.0816 21 11.5293V11H3V18.5C3 18.7762 3.22385 19 3.5 19H12.5C13.0523 19 13.5 19.4477 13.5 20C13.5 20.5523 13.0523 21 12.5 21H3.5C2.1193 21 1 19.8807 1 18.5V5.5C1 4.11929 2.11929 3 3.5 3H20.5ZM17.0693 16.9834C17.0253 17.1483 17 17.3212 17 17.5C17 18.6046 17.8954 19.5 19 19.5C19.1786 19.5 19.3509 19.4736 19.5156 19.4297L17.0693 16.9834ZM19 15.5C18.8212 15.5 18.6483 15.5253 18.4834 15.5693L20.9297 18.0156C20.9736 17.8509 21 17.6786 21 17.5C21 16.3954 20.1046 15.5 19 15.5ZM3.5 5C3.22386 5 3 5.22386 3 5.5V9H21V5.5C21 5.22385 20.7762 5 20.5 5H3.5ZM5 6C5.55228 6 6 6.44772 6 7C6 7.55228 5.55228 8 5 8C4.44772 8 4 7.55228 4 7C4 6.44772 4.44772 6 5 6ZM8 6C8.55228 6 9 6.44772 9 7C9 7.55228 8.55228 8 8 8C7.44772 8 7 7.55228 7 7C7 6.44772 7.44772 6 8 6Z" fill="#9E9E9E"/>
</g>
</svg>
