<svg width="24" height="24" viewBox="0 0 24 24" fill="none" xmlns="http://www.w3.org/2000/svg">
<g id="icons/Office/doc-search-two">
<path id="Union" d="M19 1C20.1046 1 21 1.89544 21 3V13.5C21 14.0523 20.5523 14.5 20 14.5C19.4477 14.5 19 14.0523 19 13.5V3H5V21H10.5C11.0523 21 11.5 21.4477 11.5 22C11.5 22.5523 11.0523 23 10.5 23H5C3.89544 23 3 22.1046 3 21V3C3 1.89543 3.89543 1 5 1H19ZM16 15C17.933 15 19.5 16.567 19.5 18.5C19.5 19.1024 19.3473 19.6699 19.0791 20.165L20.207 21.293C20.5976 21.6835 20.5976 22.3165 20.207 22.707C19.8165 23.0976 19.1835 23.0976 18.793 22.707L17.665 21.5791C17.1699 21.8473 16.6024 22 16 22C14.067 22 12.5 20.433 12.5 18.5C12.5 16.567 14.067 15 16 15ZM11.5 13C12.0523 13 12.5 13.4477 12.5 14C12.5 14.5523 12.0523 15 11.5 15H8.5C7.94772 15 7.5 14.5523 7.5 14C7.5 13.4477 7.94772 13 8.5 13H11.5ZM15.5 9C16.0523 9 16.5 9.44771 16.5 10C16.5 10.5523 16.0523 11 15.5 11H8.5C7.94772 11 7.5 10.5523 7.5 10C7.5 9.44771 7.94772 9 8.5 9H15.5ZM15.5 5C16.0523 5 16.5 5.44772 16.5 6C16.5 6.55228 16.0523 7 15.5 7H8.5C7.94772 7 7.5 6.55228 7.5 6C7.5 5.44772 7.94772 5 8.5 5H15.5Z" fill="#9E9E9E"/>
</g>
</svg>
