<svg width="24" height="24" viewBox="0 0 24 24" fill="none" xmlns="http://www.w3.org/2000/svg">
<g id="icons/Office/doc-add">
<path id="Union" d="M19 1C20.1046 1 21 1.89544 21 3V21C21 22.1046 20.1046 23 19 23H5C3.89544 23 3 22.1046 3 21V3C3 1.89543 3.89543 1 5 1H19ZM5 21H19V3H5V21ZM12 17C12.5523 17 13 17.4477 13 18C13 18.5523 12.5523 19 12 19H8.5C7.94772 19 7.5 18.5523 7.5 18C7.5 17.4477 7.94772 17 8.5 17H12ZM15.5 14C16.0523 14 16.5 14.4477 16.5 15C16.5 15.5523 16.0523 16 15.5 16H8.5C7.94772 16 7.5 15.5523 7.5 15C7.5 14.4477 7.94772 14 8.5 14H15.5ZM12 5C12.5523 5 13 5.44772 13 6V7.5H14.5C15.0523 7.5 15.5 7.94772 15.5 8.5C15.5 9.05229 15.0523 9.5 14.5 9.5H13V11C13 11.5523 12.5523 12 12 12C11.4477 12 11 11.5523 11 11V9.5H9.5C8.94772 9.5 8.5 9.05229 8.5 8.5C8.5 7.94772 8.94772 7.5 9.5 7.5H11V6C11 5.44772 11.4477 5 12 5Z" fill="#9E9E9E"/>
</g>
</svg>
