<svg width="24" height="24" viewBox="0 0 24 24" fill="none" xmlns="http://www.w3.org/2000/svg">
<g id="icons/Office/doc-fail">
<path id="Union" d="M19 1C20.1046 1 21 1.89544 21 3V21C21 22.1046 20.1046 23 19 23H5C3.89544 23 3 22.1046 3 21V3C3 1.89543 3.89543 1 5 1H19ZM5 21H19V3H5V21ZM12 17C12.5523 17 13 17.4477 13 18C13 18.5523 12.5523 19 12 19H8.5C7.94772 19 7.5 18.5523 7.5 18C7.5 17.4477 7.94772 17 8.5 17H12ZM15.5 14C16.0523 14 16.5 14.4477 16.5 15C16.5 15.5523 16.0523 16 15.5 16H8.5C7.94772 16 7.5 15.5523 7.5 15C7.5 14.4477 7.94772 14 8.5 14H15.5ZM13.293 5.79297C13.6835 5.40244 14.3165 5.40244 14.707 5.79297C15.0976 6.18349 15.0976 6.81651 14.707 7.20703L13.4141 8.5L14.707 9.79297C15.0976 10.1835 15.0976 10.8165 14.707 11.207C14.3165 11.5976 13.6835 11.5976 13.293 11.207L12 9.91406L10.707 11.207C10.3165 11.5976 9.68349 11.5976 9.29297 11.207C8.90244 10.8165 8.90244 10.1835 9.29297 9.79297L10.5859 8.5L9.29297 7.20703C8.90244 6.81651 8.90244 6.18349 9.29297 5.79297C9.68349 5.40244 10.3165 5.40244 10.707 5.79297L12 7.08594L13.293 5.79297Z" fill="#9E9E9E"/>
</g>
</svg>
