<svg width="24" height="24" viewBox="0 0 24 24" fill="none" xmlns="http://www.w3.org/2000/svg">
<g id="icons/Office/doc-search">
<path id="Union" d="M19 1C20.1046 1 21 1.89544 21 3V21C21 22.1046 20.1046 23 19 23H5C3.89544 23 3 22.1046 3 21V3C3 1.89543 3.89543 1 5 1H19ZM5 21H19V3H5V21ZM12 17C12.5523 17 13 17.4477 13 18C13 18.5523 12.5523 19 12 19H8.5C7.94772 19 7.5 18.5523 7.5 18C7.5 17.4477 7.94772 17 8.5 17H12ZM15.5 14C16.0523 14 16.5 14.4477 16.5 15C16.5 15.5523 16.0523 16 15.5 16H8.5C7.94772 16 7.5 15.5523 7.5 15C7.5 14.4477 7.94772 14 8.5 14H15.5ZM11.5 4.5C13.433 4.5 15 6.06702 15 8C15 8.60238 14.8473 9.16986 14.5791 9.66504L15.707 10.793C16.0976 11.1835 16.0976 11.8165 15.707 12.207C15.3165 12.5976 14.6835 12.5976 14.293 12.207L13.165 11.0791C12.6699 11.3473 12.1024 11.5 11.5 11.5C9.56702 11.5 8 9.93298 8 8C8 6.06702 9.56702 4.5 11.5 4.5Z" fill="#9E9E9E"/>
</g>
</svg>
