<svg width="24" height="24" viewBox="0 0 24 24" fill="none" xmlns="http://www.w3.org/2000/svg">
<g id="icons/Office/doc-detail">
<path id="Union" d="M19.5 1C20.6046 1 21.5 1.89544 21.5 3V21C21.5 22.1046 20.6046 23 19.5 23H5.5C4.39544 23 3.5 22.1046 3.5 21V3C3.5 1.89543 4.39543 1 5.5 1H19.5ZM5.5 21H19.5V3H5.5V21ZM12 17C12.5523 17 13 17.4477 13 18C13 18.5523 12.5523 19 12 19H8.5C7.94772 19 7.5 18.5523 7.5 18C7.5 17.4477 7.94772 17 8.5 17H12ZM15.5 14C16.0523 14 16.5 14.4477 16.5 15C16.5 15.5523 16.0523 16 15.5 16H8.5C7.94772 16 7.5 15.5523 7.5 15C7.5 14.4477 7.94772 14 8.5 14H15.5ZM15.5 5C16.0523 5 16.5 5.44772 16.5 6V11C16.5 11.5523 16.0523 12 15.5 12H8.5C7.94772 12 7.5 11.5523 7.5 11V6C7.5 5.44772 7.94772 5 8.5 5H15.5ZM9.5 10H14.5V7H9.5V10Z" fill="#9E9E9E"/>
</g>
</svg>
