<svg width="24" height="24" viewBox="0 0 24 24" fill="none" xmlns="http://www.w3.org/2000/svg">
<g id="icons/Office/doc-success">
<path id="Union" d="M19 1C20.1046 1 21 1.89544 21 3V21C21 22.1046 20.1046 23 19 23H5C3.89544 23 3 22.1046 3 21V3C3 1.89543 3.89543 1 5 1H19ZM5 21H19V3H5V21ZM12 17C12.5523 17 13 17.4477 13 18C13 18.5523 12.5523 19 12 19H8.5C7.94772 19 7.5 18.5523 7.5 18C7.5 17.4477 7.94772 17 8.5 17H12ZM15.5 14C16.0523 14 16.5 14.4477 16.5 15C16.5 15.5523 16.0523 16 15.5 16H8.5C7.94772 16 7.5 15.5523 7.5 15C7.5 14.4477 7.94772 14 8.5 14H15.5ZM14.293 5.79297C14.6835 5.40244 15.3165 5.40244 15.707 5.79297C16.0976 6.18349 16.0976 6.81651 15.707 7.20703L11.707 11.207C11.3165 11.5976 10.6835 11.5976 10.293 11.207L8.29297 9.20703C7.90244 8.81651 7.90244 8.18349 8.29297 7.79297C8.68349 7.40244 9.31651 7.40244 9.70703 7.79297L11 9.08594L14.293 5.79297Z" fill="#9E9E9E"/>
</g>
</svg>
