<svg width="24" height="24" viewBox="0 0 24 24" fill="none" xmlns="http://www.w3.org/2000/svg">
<g id="icons/Office/document-folder">
<path id="Union" d="M5.12427 2.00781L9.12427 2.50781C9.66258 2.57526 10.0493 3.05974 9.99536 3.59961L8.24536 21.0996C8.21867 21.3662 8.08593 21.6113 7.8772 21.7793C7.66819 21.9473 7.39936 22.0244 7.13306 21.9932L2.88306 21.4932C2.33609 21.4286 1.94466 20.9339 2.00708 20.3867L4.00708 2.88672L4.02271 2.78809C4.07177 2.56177 4.19843 2.35828 4.38208 2.21387C4.59198 2.04891 4.85936 1.9747 5.12427 2.00781ZM21.0002 2C21.5524 2.00016 22.0002 2.44781 22.0002 3V21C22.0002 21.5522 21.5524 21.9998 21.0002 22H11.0002C10.448 22 10.0002 21.5523 10.0002 21V3C10.0002 2.44772 10.448 2 11.0002 2H21.0002ZM12.0002 20H15.0002V4H12.0002V20ZM17.0002 20H20.0002V4H17.0002V20ZM4.10571 19.623L6.35571 19.8877L7.90747 4.37109L5.87817 4.11719L4.10571 19.623ZM13.5002 6.5C14.0524 6.50016 14.5002 6.94781 14.5002 7.5V9C14.5002 9.55219 14.0524 9.99984 13.5002 10C12.948 10 12.5002 9.55228 12.5002 9V7.5C12.5002 6.94772 12.948 6.5 13.5002 6.5ZM18.5002 6.5C19.0524 6.50016 19.5002 6.94781 19.5002 7.5V9C19.5002 9.55219 19.0524 9.99984 18.5002 10C17.948 10 17.5002 9.55228 17.5002 9V7.5C17.5002 6.94772 17.948 6.5 18.5002 6.5Z" fill="#9E9E9E"/>
</g>
</svg>
