<svg width="24" height="24" viewBox="0 0 24 24" fill="none" xmlns="http://www.w3.org/2000/svg">
<g id="icons/Office/down-picture">
<path id="Union" d="M12 2C12.5523 2 13 2.44771 13 3C13 3.55228 12.5523 4 12 4H4.5C4.22386 4 4 4.22386 4 4.5V15.2256L7.6709 11.8613C8.41673 11.1778 9.55607 11.1589 10.3242 11.8174L13.5244 14.5605L15.6797 12.4062C16.3835 11.7025 17.4977 11.6236 18.2939 12.2207L20 13.5V12C20 11.4477 20.4477 11 21 11C21.5523 11 22 11.4477 22 12V19.5C22 20.8807 20.8807 22 19.5 22H4.5C3.11928 22 2 20.8807 2 19.5V4.5C2 3.11928 3.11929 2 4.5 2H12ZM4 17.9395V19.5C4 19.7761 4.22386 20 4.5 20H19.5C19.7761 20 20 19.7761 20 19.5V15.999L17.0938 13.8203L15.0469 15.8662L16.6504 17.2402C17.0697 17.5997 17.1182 18.2311 16.7588 18.6504C16.3994 19.0696 15.7689 19.1181 15.3496 18.7588L9.02246 13.3359L4 17.9395ZM18.5 2C19.0523 2 19.5 2.44772 19.5 3V6.58594L20.293 5.79297C20.6835 5.40244 21.3165 5.40244 21.707 5.79297C22.0976 6.18349 22.0976 6.81651 21.707 7.20703L19.207 9.70703C19.1592 9.75484 19.1065 9.79758 19.0498 9.83496C19.0121 9.85987 18.9727 9.88114 18.9326 9.90039C18.8874 9.92216 18.8407 9.9412 18.792 9.95605C18.7717 9.96224 18.751 9.96682 18.7305 9.97168C18.7191 9.97436 18.7078 9.9772 18.6963 9.97949C18.6859 9.98156 18.6754 9.98264 18.665 9.98438C18.6112 9.99333 18.5563 10 18.5 10C18.4433 10 18.3881 9.99343 18.334 9.98438C18.3236 9.98263 18.3131 9.98157 18.3027 9.97949C18.2912 9.97719 18.2799 9.97437 18.2686 9.97168C18.248 9.9668 18.2273 9.96225 18.207 9.95605C18.1584 9.94116 18.1116 9.92219 18.0664 9.90039C18.0266 9.88123 17.9877 9.8597 17.9502 9.83496C17.8935 9.79758 17.8408 9.75484 17.793 9.70703L15.293 7.20703C14.9024 6.81651 14.9024 6.18349 15.293 5.79297C15.6835 5.40244 16.3165 5.40244 16.707 5.79297L17.5 6.58594V3C17.5 2.44772 17.9477 2 18.5 2Z" fill="#9E9E9E"/>
</g>
</svg>
