<svg width="24" height="24" viewBox="0 0 24 24" fill="none" xmlns="http://www.w3.org/2000/svg">
<g id="icons/Office/download-web">
<path id="Union" d="M19.5 13.5C20.0523 13.5 20.5 13.9477 20.5 14.5V18.0859L21.293 17.293C21.6835 16.9024 22.3165 16.9024 22.707 17.293C23.0976 17.6835 23.0976 18.3165 22.707 18.707L20.207 21.207C20.1592 21.2548 20.1065 21.2976 20.0498 21.335C20.0121 21.3599 19.9727 21.3811 19.9326 21.4004C19.8874 21.4222 19.8407 21.4412 19.792 21.4561C19.7717 21.4622 19.751 21.4668 19.7305 21.4717C19.7191 21.4744 19.7078 21.4772 19.6963 21.4795C19.6859 21.4816 19.6754 21.4826 19.665 21.4844C19.6112 21.4933 19.5563 21.5 19.5 21.5C19.4433 21.5 19.3881 21.4934 19.334 21.4844C19.3236 21.4826 19.3131 21.4816 19.3027 21.4795C19.2912 21.4772 19.2799 21.4744 19.2686 21.4717C19.248 21.4668 19.2273 21.4623 19.207 21.4561C19.1584 21.4412 19.1116 21.4222 19.0664 21.4004C19.0266 21.3812 18.9877 21.3597 18.9502 21.335C18.8935 21.2976 18.8408 21.2548 18.793 21.207L16.293 18.707C15.9024 18.3165 15.9024 17.6835 16.293 17.293C16.6835 16.9024 17.3165 16.9024 17.707 17.293L18.5 18.0859V14.5C18.5 13.9477 18.9477 13.5 19.5 13.5ZM20.5 3C21.8807 3 23 4.1193 23 5.5V12C23 12.5523 22.5523 13 22 13C21.4477 13 21 12.5523 21 12V11H3V18.5C3 18.7762 3.22385 19 3.5 19H13.5C14.0523 19 14.5 19.4477 14.5 20C14.5 20.5523 14.0523 21 13.5 21H3.5C2.1193 21 1 19.8807 1 18.5V5.5C1 4.11929 2.11929 3 3.5 3H20.5ZM3.5 5C3.22386 5 3 5.22386 3 5.5V9H21V5.5C21 5.22385 20.7762 5 20.5 5H3.5ZM5 6C5.55228 6 6 6.44772 6 7C6 7.55228 5.55228 8 5 8C4.44772 8 4 7.55228 4 7C4 6.44772 4.44772 6 5 6ZM8 6C8.55228 6 9 6.44772 9 7C9 7.55228 8.55228 8 8 8C7.44772 8 7 7.55228 7 7C7 6.44772 7.44772 6 8 6Z" fill="#9E9E9E"/>
</g>
</svg>
