<svg width="24" height="24" viewBox="0 0 24 24" fill="none" xmlns="http://www.w3.org/2000/svg">
<g id="icons/Office/editor">
<path id="Union" d="M19 1C20.1046 1 21 1.89544 21 3V8C21 8.55228 20.5523 9 20 9C19.4477 9 19 8.55228 19 8V3H5V21H8C8.55228 21 9 21.4477 9 22C9 22.5523 8.55228 23 8 23H5C3.89544 23 3 22.1046 3 21V3C3 1.89543 3.89543 1 5 1H19ZM19.2227 10.8711C19.5701 10.4419 20.1996 10.3754 20.6289 10.7227C21.0581 11.0701 21.1246 11.6997 20.7773 12.1289L12.2773 22.6289C11.9299 23.0581 11.3003 23.1246 10.8711 22.7773C10.4419 22.4299 10.3754 21.8004 10.7227 21.3711L19.2227 10.8711ZM20 15.5C20.5523 15.5 21 15.9477 21 16.5V21C21 22.1046 20.1046 23 19 23H15.75C15.1977 23 14.75 22.5523 14.75 22C14.75 21.4477 15.1977 21 15.75 21H19V16.5C19 15.9477 19.4477 15.5 20 15.5ZM12 11C12.5523 11 13 11.4477 13 12C13 12.5523 12.5523 13 12 13H8C7.44772 13 7 12.5523 7 12C7 11.4477 7.44772 11 8 11H12ZM15 7C15.5523 7 16 7.44772 16 8C16 8.55228 15.5523 9 15 9H8C7.44772 9 7 8.55228 7 8C7 7.44772 7.44772 7 8 7H15Z" fill="#9E9E9E"/>
</g>
</svg>
