<svg width="24" height="24" viewBox="0 0 24 24" fill="none" xmlns="http://www.w3.org/2000/svg">
<g id="icons/Office/email-block">
<path id="Union" d="M22.0166 3.5C22.0368 3.50036 22.057 3.50135 22.0771 3.50293C22.0866 3.50365 22.0961 3.5039 22.1055 3.50488C22.1641 3.51114 22.2218 3.52367 22.2783 3.54004C22.3324 3.5557 22.3847 3.57548 22.4346 3.59961C22.4664 3.61494 22.4971 3.63262 22.5273 3.65137C22.5384 3.65825 22.5498 3.66458 22.5605 3.67188C22.6572 3.73722 22.7433 3.82075 22.8145 3.9209C22.8204 3.92928 22.8263 3.93771 22.832 3.94629C22.8341 3.94937 22.8368 3.95197 22.8389 3.95508C22.8652 3.99555 22.8875 4.03753 22.9072 4.08008C22.914 4.0946 22.9207 4.10914 22.9268 4.12402C22.9325 4.1382 22.9373 4.15266 22.9424 4.16699C22.9479 4.18249 22.9533 4.19803 22.958 4.21387C22.9737 4.26634 22.9844 4.31954 22.9912 4.37305C22.9927 4.38504 22.994 4.39706 22.9951 4.40918C22.9969 4.42937 22.9975 4.44953 22.998 4.46973C22.9983 4.4798 23 4.48986 23 4.5V17.5C23 20.5376 20.5376 23 17.5 23C15.1683 23 13.1772 21.5483 12.377 19.5H2C1.44772 19.5 1 19.0523 1 18.5V4.5C1 4.48987 1.00068 4.47979 1.00098 4.46973C1.00145 4.45346 1.00166 4.43717 1.00293 4.4209L1.00488 4.39746C1.00571 4.38929 1.00678 4.38116 1.00781 4.37305C1.01459 4.31959 1.02537 4.26629 1.04102 4.21387C1.05474 4.16779 1.07187 4.12311 1.0918 4.08008C1.11158 4.0374 1.13477 3.99567 1.16113 3.95508L1.1709 3.94043C1.17535 3.93384 1.17997 3.92737 1.18457 3.9209C1.25578 3.82054 1.34261 3.73732 1.43945 3.67188C1.45021 3.66458 1.4616 3.65825 1.47266 3.65137C1.50289 3.63262 1.53357 3.61494 1.56543 3.59961C1.61506 3.57561 1.66692 3.55566 1.7207 3.54004C1.77725 3.52362 1.83499 3.51119 1.89355 3.50488C1.90293 3.50389 1.91242 3.50366 1.92188 3.50293C1.94233 3.50131 1.96285 3.50037 1.9834 3.5H22.0166ZM17.5 14C15.567 14 14 15.567 14 17.5C14 19.433 15.567 21 17.5 21C19.433 21 21 19.433 21 17.5C21 15.567 19.433 14 17.5 14ZM17.793 15.793C18.1835 15.4024 18.8165 15.4024 19.207 15.793C19.5976 16.1835 19.5976 16.8165 19.207 17.207L17.207 19.207C16.8165 19.5976 16.1835 19.5976 15.793 19.207C15.4024 18.8165 15.4024 18.1835 15.793 17.793L17.793 15.793ZM12.5449 11.8389C12.2136 12.0541 11.7864 12.0541 11.4551 11.8389L3 6.34277V17.5H12C12 14.4624 14.4624 12 17.5 12C18.8296 12 20.0491 12.4716 21 13.2568V6.34277L12.5449 11.8389ZM12 9.80664L18.626 5.5H5.37402L12 9.80664Z" fill="#9E9E9E"/>
</g>
</svg>
