<svg width="24" height="24" viewBox="0 0 24 24" fill="none" xmlns="http://www.w3.org/2000/svg">
<g id="icons/Office/email-delect">
<path id="Union" d="M18.1055 13.0527C18.3525 12.5588 18.9533 12.3585 19.4473 12.6055C19.9412 12.8525 20.1415 13.4533 19.8945 13.9473L19.6182 14.5H21C21.2996 14.5 21.5835 14.6345 21.7734 14.8662C21.9633 15.0979 22.0392 15.4026 21.9805 15.6963L20.9805 20.6963C20.8869 21.1636 20.4766 21.5 20 21.5H17C16.5234 21.5 16.1131 21.1636 16.0195 20.6963L15.0195 15.6963C14.9608 15.4026 15.0367 15.0979 15.2266 14.8662C15.4165 14.6345 15.7004 14.5 16 14.5H17.3818L18.1055 13.0527ZM22.0244 3.50098C22.0388 3.50134 22.0531 3.50196 22.0674 3.50293C22.0904 3.50446 22.1132 3.5067 22.1357 3.50977C22.1413 3.51053 22.1468 3.51184 22.1523 3.5127C22.176 3.51632 22.1995 3.52013 22.2227 3.52539C22.2331 3.52778 22.2435 3.53048 22.2539 3.5332C22.3353 3.55453 22.4124 3.58603 22.4844 3.62598C22.5016 3.63551 22.5185 3.64566 22.5352 3.65625C22.5475 3.66411 22.5603 3.67131 22.5723 3.67969C22.5884 3.69094 22.6036 3.70354 22.6191 3.71582C22.6266 3.72172 22.6343 3.72729 22.6416 3.7334C22.6583 3.7474 22.6745 3.76211 22.6904 3.77734C22.6998 3.78626 22.7088 3.79542 22.7178 3.80469C22.7299 3.81723 22.7414 3.83046 22.7529 3.84375C22.7649 3.85752 22.7768 3.87133 22.7881 3.88574C22.7919 3.89066 22.796 3.89538 22.7998 3.90039C22.8026 3.90415 22.8049 3.90832 22.8076 3.91211C22.8208 3.93014 22.8328 3.94886 22.8447 3.96777C22.8523 3.97982 22.8602 3.99164 22.8672 4.00391C22.8943 4.05113 22.9173 4.10068 22.9365 4.15234C22.9395 4.16047 22.9425 4.16858 22.9453 4.17676C22.9515 4.19475 22.9568 4.213 22.9619 4.23145C22.9665 4.24801 22.9709 4.26455 22.9746 4.28125C22.9777 4.29518 22.9809 4.3091 22.9834 4.32324C22.9861 4.3385 22.9882 4.35381 22.9902 4.36914C22.9958 4.41202 23 4.45559 23 4.5V12C23 12.5523 22.5523 13 22 13C21.4477 13 21 12.5523 21 12V6.49902L12.5996 12.7998C12.2441 13.0663 11.7559 13.0663 11.4004 12.7998L3 6.49902V18.5H12C12.5523 18.5 13 18.9477 13 19.5C13 20.0523 12.5523 20.5 12 20.5H2C1.44772 20.5 1 20.0523 1 19.5V4.5C1 4.45563 1.00319 4.41198 1.00879 4.36914C1.0108 4.35383 1.0129 4.33849 1.01562 4.32324C1.01815 4.30911 1.02131 4.29517 1.02441 4.28125C1.02815 4.26456 1.0325 4.24799 1.03711 4.23145C1.04224 4.21302 1.04757 4.19474 1.05371 4.17676C1.05651 4.16859 1.05948 4.16046 1.0625 4.15234C1.08165 4.10072 1.10481 4.0511 1.13184 4.00391C1.13886 3.99165 1.1467 3.97982 1.1543 3.96777C1.16622 3.94887 1.17828 3.93013 1.19141 3.91211C1.19427 3.90817 1.19726 3.9043 1.2002 3.90039C1.20383 3.89554 1.20723 3.89051 1.21094 3.88574C1.22217 3.87133 1.2341 3.85751 1.24609 3.84375C1.25764 3.83046 1.26914 3.81723 1.28125 3.80469C1.29021 3.79542 1.29928 3.78626 1.30859 3.77734C1.32447 3.76211 1.34074 3.74741 1.35742 3.7334C1.3647 3.72729 1.37243 3.72172 1.37988 3.71582C1.39561 3.70337 1.4114 3.69109 1.42773 3.67969C1.43949 3.67147 1.45175 3.66397 1.46387 3.65625C1.48055 3.64565 1.49745 3.63552 1.51465 3.62598C1.56318 3.59897 1.61393 3.57537 1.66699 3.55664C1.66951 3.55575 1.67228 3.55555 1.6748 3.55469C1.73008 3.53568 1.7875 3.52181 1.84668 3.5127C1.85223 3.51183 1.85772 3.51053 1.86328 3.50977C1.88584 3.50668 1.90862 3.50448 1.93164 3.50293C1.94594 3.50194 1.96027 3.50135 1.97461 3.50098C1.98305 3.50077 1.99151 3.5 2 3.5H22C22.0082 3.5 22.0163 3.50078 22.0244 3.50098ZM17.8193 19.5H19.1807L19.7803 16.5H17.2197L17.8193 19.5ZM12 10.75L19 5.5H5L12 10.75Z" fill="#9E9E9E"/>
</g>
</svg>
