<svg width="24" height="24" viewBox="0 0 24 24" fill="none" xmlns="http://www.w3.org/2000/svg">
<g id="icons/Office/email-security">
<path id="Union" d="M17.1279 12.5713C17.3662 12.476 17.6328 12.4761 17.8711 12.5713H17.8721V12.5723L17.874 12.5732C17.8756 12.5739 17.8782 12.5741 17.8809 12.5752C17.8864 12.5774 17.8944 12.5809 17.9043 12.585C17.9245 12.5932 17.9539 12.6051 17.9902 12.6201C18.0627 12.6502 18.1654 12.6929 18.2881 12.7461C18.5323 12.8519 18.8629 13.0008 19.1973 13.168C19.5239 13.3313 19.8879 13.5291 20.1826 13.7354C20.3271 13.8365 20.4931 13.9654 20.6328 14.1191C20.7411 14.2382 21 14.5486 21 15C21 17.2277 20.2972 18.7062 19.5186 19.6406C19.1359 20.0998 18.7477 20.4117 18.4453 20.6133C18.2941 20.7141 18.1633 20.788 18.0645 20.8389C18.0154 20.8641 17.9739 20.8837 17.9414 20.8984C17.9253 20.9057 17.911 20.9121 17.8994 20.917C17.8936 20.9195 17.8874 20.9219 17.8828 20.9238C17.8808 20.9247 17.8787 20.9251 17.877 20.9258C17.876 20.9262 17.8749 20.9274 17.874 20.9277H17.873C17.8724 20.928 17.8714 20.9285 17.5 20L17.8711 20.9287C17.6329 21.0239 17.3671 21.0239 17.1289 20.9287L17.5 20C17.1286 20.9285 17.1276 20.928 17.127 20.9277H17.126C17.1251 20.9274 17.124 20.9262 17.123 20.9258C17.1213 20.9251 17.1192 20.9247 17.1172 20.9238C17.1126 20.9219 17.1064 20.9195 17.1006 20.917C17.089 20.9121 17.0747 20.9057 17.0586 20.8984C17.0261 20.8837 16.9846 20.8641 16.9355 20.8389C16.8367 20.788 16.7059 20.7141 16.5547 20.6133C16.2523 20.4117 15.8641 20.0998 15.4814 19.6406C14.7028 18.7062 14 17.2277 14 15C14 14.5486 14.2589 14.2382 14.3672 14.1191C14.5069 13.9654 14.6729 13.8365 14.8174 13.7354C15.1121 13.5291 15.4761 13.3313 15.8027 13.168C16.1371 13.0008 16.4677 12.8519 16.7119 12.7461C16.8346 12.6929 16.9373 12.6502 17.0098 12.6201C17.0461 12.6051 17.0755 12.5932 17.0957 12.585C17.1056 12.5809 17.1136 12.5774 17.1191 12.5752C17.1218 12.5741 17.1244 12.5739 17.126 12.5732L17.1279 12.5723V12.5713ZM22.0244 3.50098C22.0388 3.50134 22.0531 3.50196 22.0674 3.50293C22.0904 3.50446 22.1132 3.5067 22.1357 3.50977C22.1413 3.51053 22.1468 3.51184 22.1523 3.5127C22.176 3.51632 22.1995 3.52013 22.2227 3.52539C22.2331 3.52778 22.2435 3.53048 22.2539 3.5332C22.3353 3.55453 22.4124 3.58603 22.4844 3.62598C22.5016 3.63551 22.5185 3.64566 22.5352 3.65625C22.5475 3.66411 22.5603 3.67131 22.5723 3.67969C22.5884 3.69094 22.6036 3.70354 22.6191 3.71582C22.6266 3.72172 22.6343 3.72729 22.6416 3.7334C22.6583 3.7474 22.6745 3.76211 22.6904 3.77734C22.6998 3.78626 22.7088 3.79542 22.7178 3.80469C22.7299 3.81723 22.7414 3.83046 22.7529 3.84375C22.7649 3.85752 22.7768 3.87133 22.7881 3.88574C22.7919 3.89066 22.796 3.89538 22.7998 3.90039C22.8026 3.90415 22.8049 3.90832 22.8076 3.91211C22.8208 3.93014 22.8328 3.94886 22.8447 3.96777C22.8523 3.97982 22.8602 3.99164 22.8672 4.00391C22.8943 4.05113 22.9173 4.10068 22.9365 4.15234C22.9395 4.16047 22.9425 4.16858 22.9453 4.17676C22.9515 4.19475 22.9568 4.213 22.9619 4.23145C22.9665 4.24801 22.9709 4.26455 22.9746 4.28125C22.9777 4.29518 22.9809 4.3091 22.9834 4.32324C22.9861 4.3385 22.9882 4.35381 22.9902 4.36914C22.9958 4.41202 23 4.45559 23 4.5V12C23 12.5523 22.5523 13 22 13C21.4477 13 21 12.5523 21 12V6.49902L12.5996 12.7998C12.2441 13.0663 11.7559 13.0663 11.4004 12.7998L3 6.49902V18.5H12C12.5523 18.5 13 18.9477 13 19.5C13 20.0523 12.5523 20.5 12 20.5H2C1.44772 20.5 1 20.0523 1 19.5V4.5C1 4.45563 1.00319 4.41198 1.00879 4.36914C1.0108 4.35383 1.0129 4.33849 1.01562 4.32324C1.01815 4.30911 1.02131 4.29517 1.02441 4.28125C1.02815 4.26456 1.0325 4.24799 1.03711 4.23145C1.04224 4.21302 1.04757 4.19474 1.05371 4.17676C1.05651 4.16859 1.05948 4.16046 1.0625 4.15234C1.08165 4.10072 1.10481 4.0511 1.13184 4.00391C1.13886 3.99165 1.1467 3.97982 1.1543 3.96777C1.16622 3.94887 1.17828 3.93013 1.19141 3.91211C1.19427 3.90817 1.19726 3.9043 1.2002 3.90039C1.20383 3.89554 1.20723 3.89051 1.21094 3.88574C1.22217 3.87133 1.2341 3.85751 1.24609 3.84375C1.25764 3.83046 1.26914 3.81723 1.28125 3.80469C1.29021 3.79542 1.29928 3.78626 1.30859 3.77734C1.32447 3.76211 1.34074 3.74741 1.35742 3.7334C1.3647 3.72729 1.37243 3.72172 1.37988 3.71582C1.39561 3.70337 1.4114 3.69109 1.42773 3.67969C1.43949 3.67147 1.45175 3.66397 1.46387 3.65625C1.48055 3.64565 1.49745 3.63552 1.51465 3.62598C1.56318 3.59897 1.61393 3.57537 1.66699 3.55664C1.66951 3.55575 1.67228 3.55555 1.6748 3.55469C1.73008 3.53568 1.7875 3.52181 1.84668 3.5127C1.85223 3.51183 1.85772 3.51053 1.86328 3.50977C1.88584 3.50668 1.90862 3.50448 1.93164 3.50293C1.94594 3.50194 1.96027 3.50135 1.97461 3.50098C1.98305 3.50077 1.99151 3.5 2 3.5H22C22.0082 3.5 22.0163 3.50078 22.0244 3.50098ZM17.5 14.585C17.2764 14.682 16.9848 14.8132 16.6973 14.957C16.4225 15.0944 16.1794 15.2291 16.0068 15.3447C16.0723 16.9065 16.5787 17.8315 17.0186 18.3594C17.1891 18.5641 17.3574 18.7174 17.5 18.8291C17.6426 18.7174 17.8109 18.5641 17.9814 18.3594C18.4213 17.8315 18.9267 16.9065 18.9922 15.3447C18.8196 15.2292 18.5772 15.0942 18.3027 14.957C18.0152 14.8132 17.7236 14.682 17.5 14.585ZM12 10.75L19 5.5H5L12 10.75Z" fill="#9E9E9E"/>
</g>
</svg>
