<svg width="24" height="24" viewBox="0 0 24 24" fill="none" xmlns="http://www.w3.org/2000/svg">
<g id="icons/Office/email-push">
<path id="Union" d="M6 6.5C6.55228 6.5 7 6.94772 7 7.5C7 8.05228 6.55228 8.5 6 8.5H5L12 13.75L19 8.5H18C17.4477 8.5 17 8.05228 17 7.5C17 6.94772 17.4477 6.5 18 6.5H22C22.0082 6.5 22.0163 6.50078 22.0244 6.50098C22.0388 6.50134 22.0531 6.50196 22.0674 6.50293C22.0904 6.50446 22.1132 6.5067 22.1357 6.50977C22.1413 6.51053 22.1468 6.51184 22.1523 6.5127C22.176 6.51632 22.1995 6.52013 22.2227 6.52539C22.2331 6.52778 22.2435 6.53048 22.2539 6.5332C22.3353 6.55453 22.4124 6.58603 22.4844 6.62598C22.5016 6.63551 22.5185 6.64566 22.5352 6.65625C22.5475 6.66411 22.5603 6.67131 22.5723 6.67969C22.5884 6.69094 22.6036 6.70354 22.6191 6.71582C22.6266 6.72172 22.6343 6.72729 22.6416 6.7334C22.6583 6.74741 22.6745 6.76211 22.6904 6.77734C22.6998 6.78626 22.7088 6.79542 22.7178 6.80469C22.7299 6.81723 22.7414 6.83046 22.7529 6.84375C22.7649 6.85752 22.7768 6.87133 22.7881 6.88574C22.7919 6.89066 22.796 6.89538 22.7998 6.90039C22.8026 6.90415 22.8049 6.90832 22.8076 6.91211C22.8208 6.93014 22.8328 6.94886 22.8447 6.96777C22.8523 6.97982 22.8602 6.99164 22.8672 7.00391C22.8943 7.05113 22.9173 7.10068 22.9365 7.15234C22.9395 7.16047 22.9425 7.16858 22.9453 7.17676C22.9515 7.19475 22.9568 7.213 22.9619 7.23145C22.9665 7.24801 22.9709 7.26455 22.9746 7.28125C22.9777 7.29518 22.9809 7.3091 22.9834 7.32324C22.9861 7.3385 22.9882 7.35381 22.9902 7.36914C22.9958 7.41202 23 7.45559 23 7.5V20.5C23 21.0523 22.5523 21.5 22 21.5H2C1.44772 21.5 1 21.0523 1 20.5V7.5C1 7.45563 1.00319 7.41198 1.00879 7.36914C1.0108 7.35383 1.0129 7.33849 1.01562 7.32324C1.01815 7.30911 1.02131 7.29517 1.02441 7.28125C1.02815 7.26456 1.0325 7.24799 1.03711 7.23145C1.04224 7.21302 1.04757 7.19474 1.05371 7.17676C1.05651 7.16859 1.05948 7.16046 1.0625 7.15234C1.08165 7.10072 1.10481 7.0511 1.13184 7.00391C1.13886 6.99165 1.1467 6.97982 1.1543 6.96777C1.16622 6.94887 1.17828 6.93013 1.19141 6.91211C1.19427 6.90817 1.19726 6.9043 1.2002 6.90039C1.20383 6.89554 1.20723 6.89051 1.21094 6.88574C1.22217 6.87133 1.2341 6.85751 1.24609 6.84375C1.25764 6.83046 1.26914 6.81723 1.28125 6.80469C1.29021 6.79542 1.29928 6.78626 1.30859 6.77734C1.32447 6.76211 1.34074 6.74741 1.35742 6.7334C1.3647 6.72729 1.37243 6.72172 1.37988 6.71582C1.39561 6.70337 1.4114 6.69109 1.42773 6.67969C1.43949 6.67147 1.45175 6.66397 1.46387 6.65625C1.48055 6.64565 1.49745 6.63552 1.51465 6.62598C1.56318 6.59897 1.61393 6.57537 1.66699 6.55664C1.66951 6.55575 1.67228 6.55555 1.6748 6.55469C1.73008 6.53568 1.7875 6.52181 1.84668 6.5127C1.85223 6.51183 1.85772 6.51053 1.86328 6.50977C1.88584 6.50668 1.90862 6.50448 1.93164 6.50293C1.94594 6.50194 1.96027 6.50135 1.97461 6.50098C1.98305 6.50077 1.99151 6.5 2 6.5H6ZM12.5996 15.7998C12.2441 16.0663 11.7559 16.0663 11.4004 15.7998L3 9.49902V19.5H21V9.49902L12.5996 15.7998ZM12.0205 1.50098C12.0381 1.50133 12.0557 1.50165 12.0732 1.50293C12.1225 1.5065 12.1707 1.51396 12.2178 1.52441C12.2269 1.52645 12.236 1.52895 12.2451 1.53125C12.3141 1.54866 12.3799 1.57357 12.4424 1.60449C12.4746 1.62042 12.5064 1.63761 12.5371 1.65723C12.5714 1.67913 12.6045 1.70271 12.6357 1.72852C12.6602 1.74873 12.6841 1.77007 12.707 1.79297L15.707 4.79297C16.0976 5.18349 16.0976 5.81651 15.707 6.20703C15.3165 6.59756 14.6835 6.59756 14.293 6.20703L13 4.91406V9.5C13 10.0523 12.5523 10.5 12 10.5C11.4477 10.5 11 10.0523 11 9.5V4.91406L9.70703 6.20703C9.31651 6.59756 8.68349 6.59756 8.29297 6.20703C7.90244 5.81651 7.90244 5.18349 8.29297 4.79297L11.293 1.79297C11.3548 1.73117 11.4248 1.67778 11.501 1.63379C11.5154 1.62546 11.5302 1.6179 11.5449 1.61035C11.6073 1.5784 11.6731 1.55257 11.7422 1.53418C11.7588 1.52976 11.7753 1.52503 11.792 1.52148C11.803 1.51916 11.8141 1.51758 11.8252 1.51562C11.8427 1.51252 11.8603 1.50998 11.8779 1.50781C11.8957 1.50565 11.9136 1.50415 11.9316 1.50293C11.9476 1.50184 11.9635 1.50131 11.9795 1.50098C11.9863 1.50084 11.9931 1.5 12 1.5C12.0069 1.5 12.0137 1.50084 12.0205 1.50098Z" fill="#9E9E9E"/>
</g>
</svg>
