<svg width="24" height="24" viewBox="0 0 24 24" fill="none" xmlns="http://www.w3.org/2000/svg">
<g id="icons/Office/email-down">
<path id="Union" d="M6 6.5C6.55228 6.5 7 6.94772 7 7.5C7 8.05228 6.55228 8.5 6 8.5H5L12 13.75L19 8.5H18C17.4477 8.5 17 8.05228 17 7.5C17 6.94772 17.4477 6.5 18 6.5H22C22.0082 6.5 22.0163 6.50078 22.0244 6.50098C22.0388 6.50134 22.0531 6.50196 22.0674 6.50293C22.0904 6.50446 22.1132 6.5067 22.1357 6.50977C22.1413 6.51053 22.1468 6.51184 22.1523 6.5127C22.176 6.51632 22.1995 6.52013 22.2227 6.52539C22.2331 6.52778 22.2435 6.53048 22.2539 6.5332C22.3353 6.55453 22.4124 6.58603 22.4844 6.62598C22.5016 6.63551 22.5185 6.64566 22.5352 6.65625C22.5475 6.66411 22.5603 6.67131 22.5723 6.67969C22.5884 6.69094 22.6036 6.70354 22.6191 6.71582C22.6266 6.72172 22.6343 6.72729 22.6416 6.7334C22.6583 6.74741 22.6745 6.76211 22.6904 6.77734C22.6998 6.78626 22.7088 6.79542 22.7178 6.80469C22.7299 6.81723 22.7414 6.83046 22.7529 6.84375C22.7649 6.85752 22.7768 6.87133 22.7881 6.88574C22.7919 6.89066 22.796 6.89538 22.7998 6.90039C22.8026 6.90415 22.8049 6.90832 22.8076 6.91211C22.8202 6.92933 22.8323 6.94682 22.8438 6.96484C22.8519 6.97772 22.8597 6.99078 22.8672 7.00391C22.8943 7.05113 22.9173 7.10068 22.9365 7.15234C22.9395 7.16047 22.9425 7.16858 22.9453 7.17676C22.9515 7.19475 22.9568 7.213 22.9619 7.23145C22.9665 7.24801 22.9709 7.26455 22.9746 7.28125C22.9777 7.29518 22.9809 7.3091 22.9834 7.32324C22.9861 7.3385 22.9882 7.35381 22.9902 7.36914C22.9958 7.41202 23 7.45559 23 7.5V20.5C23 21.0523 22.5523 21.5 22 21.5H2C1.44772 21.5 1 21.0523 1 20.5V7.5C1 7.45563 1.00319 7.41198 1.00879 7.36914C1.0108 7.35383 1.0129 7.33849 1.01562 7.32324C1.01815 7.30911 1.02131 7.29517 1.02441 7.28125C1.02815 7.26456 1.0325 7.24799 1.03711 7.23145C1.04224 7.21302 1.04757 7.19474 1.05371 7.17676C1.05651 7.16859 1.05948 7.16046 1.0625 7.15234C1.08165 7.10072 1.10481 7.0511 1.13184 7.00391C1.13944 6.99064 1.14797 6.97786 1.15625 6.96484C1.16761 6.94698 1.17897 6.92918 1.19141 6.91211C1.19427 6.90817 1.19726 6.9043 1.2002 6.90039C1.20383 6.89554 1.20723 6.89051 1.21094 6.88574C1.22217 6.87133 1.2341 6.85751 1.24609 6.84375C1.25764 6.83046 1.26914 6.81723 1.28125 6.80469C1.29021 6.79542 1.29928 6.78626 1.30859 6.77734C1.32447 6.76211 1.34074 6.74741 1.35742 6.7334C1.3647 6.72729 1.37243 6.72172 1.37988 6.71582C1.39561 6.70337 1.4114 6.69109 1.42773 6.67969C1.43949 6.67147 1.45175 6.66397 1.46387 6.65625C1.48055 6.64565 1.49745 6.63552 1.51465 6.62598C1.56318 6.59897 1.61393 6.57537 1.66699 6.55664C1.66951 6.55575 1.67228 6.55555 1.6748 6.55469C1.73008 6.53568 1.7875 6.52181 1.84668 6.5127C1.85223 6.51183 1.85772 6.51053 1.86328 6.50977C1.88584 6.50668 1.90862 6.50448 1.93164 6.50293C1.94594 6.50194 1.96027 6.50135 1.97461 6.50098C1.98305 6.50077 1.99151 6.5 2 6.5H6ZM12.5996 15.7998C12.2441 16.0663 11.7559 16.0663 11.4004 15.7998L3 9.49902V19.5H21V9.49902L12.5996 15.7998ZM12 1.5C12.5523 1.5 13 1.94772 13 2.5V7.08594L14.293 5.79297C14.6835 5.40244 15.3165 5.40244 15.707 5.79297C16.0976 6.18349 16.0976 6.81651 15.707 7.20703L12.707 10.207C12.6592 10.2548 12.6065 10.2976 12.5498 10.335C12.5121 10.3599 12.4727 10.3811 12.4326 10.4004C12.3874 10.4222 12.3407 10.4412 12.292 10.4561C12.2717 10.4622 12.251 10.4668 12.2305 10.4717C12.2191 10.4744 12.2078 10.4772 12.1963 10.4795C12.1859 10.4816 12.1754 10.4826 12.165 10.4844C12.1112 10.4933 12.0563 10.5 12 10.5C11.9433 10.5 11.8881 10.4934 11.834 10.4844C11.8236 10.4826 11.8131 10.4816 11.8027 10.4795C11.7912 10.4772 11.7799 10.4744 11.7686 10.4717C11.748 10.4668 11.7273 10.4623 11.707 10.4561C11.6584 10.4412 11.6116 10.4222 11.5664 10.4004C11.5266 10.3812 11.4877 10.3597 11.4502 10.335C11.3935 10.2976 11.3408 10.2548 11.293 10.207L8.29297 7.20703C7.90244 6.81651 7.90244 6.18349 8.29297 5.79297C8.68349 5.40244 9.31651 5.40244 9.70703 5.79297L11 7.08594V2.5C11 1.94772 11.4477 1.5 12 1.5Z" fill="#9E9E9E"/>
</g>
</svg>
