<svg width="24" height="24" viewBox="0 0 24 24" fill="none" xmlns="http://www.w3.org/2000/svg">
<g id="icons/Office/english">
<path id="Union" d="M19.5 2C20.8807 2 22 3.11929 22 4.5V19.5C22 20.8807 20.8807 22 19.5 22H4.5C3.11929 22 2 20.8807 2 19.5V4.5C2 3.11929 3.11929 2 4.5 2H19.5ZM4.5 4C4.22386 4 4 4.22386 4 4.5V19.5C4 19.7761 4.22386 20 4.5 20H19.5C19.7761 20 20 19.7761 20 19.5V4.5C20 4.22386 19.7761 4 19.5 4H4.5ZM10.5 7.5C11.0523 7.5 11.5 7.94772 11.5 8.5C11.5 9.05228 11.0523 9.5 10.5 9.5H7.5V11H10.25C10.8023 11 11.25 11.4477 11.25 12C11.25 12.5523 10.8023 13 10.25 13H7.5V14.5H10.25C10.8023 14.5 11.25 14.9477 11.25 15.5C11.25 16.0523 10.8023 16.5 10.25 16.5H6.5C5.94772 16.5 5.5 16.0523 5.5 15.5V8.5C5.5 7.94772 5.94772 7.5 6.5 7.5H10.5ZM13 8.5C13.47 8.5 13.8627 8.82468 13.9697 9.26172C14.3626 9.09318 14.7954 9 15.25 9C17.0449 9 18.5 10.4551 18.5 12.25V15.5C18.5 16.0523 18.0523 16.5 17.5 16.5C16.9477 16.5 16.5 16.0523 16.5 15.5V12.25C16.5 11.5596 15.9404 11 15.25 11C14.5596 11 14 11.5596 14 12.25V15.5C14 16.0523 13.5523 16.5 13 16.5C12.4477 16.5 12 16.0523 12 15.5V9.5C12 8.94772 12.4477 8.5 13 8.5Z" fill="#9E9E9E"/>
</g>
</svg>
