<svg width="24" height="24" viewBox="0 0 24 24" fill="none" xmlns="http://www.w3.org/2000/svg">
<g id="icons/Office/envelope">
<path id="Union" d="M20.0381 1.00098C20.0449 1.00123 20.0518 1.00156 20.0586 1.00195C20.0826 1.00334 20.1064 1.00574 20.1299 1.00879C20.1452 1.01078 20.1605 1.01291 20.1758 1.01562C20.1899 1.01813 20.2039 1.02132 20.2178 1.02441C20.2345 1.02813 20.251 1.03251 20.2676 1.03711C20.286 1.04222 20.3043 1.04759 20.3223 1.05371C20.3304 1.0565 20.3386 1.05949 20.3467 1.0625C20.3983 1.08161 20.4479 1.10484 20.4951 1.13184C20.5074 1.13885 20.5192 1.1467 20.5312 1.1543C20.5492 1.16558 20.5668 1.17709 20.584 1.18945C20.5891 1.19314 20.5945 1.1964 20.5996 1.2002C20.6043 1.20368 20.6087 1.20739 20.6133 1.21094C20.6277 1.22217 20.6415 1.23411 20.6553 1.24609C20.6686 1.25764 20.6818 1.26915 20.6943 1.28125C20.7036 1.29021 20.7128 1.29928 20.7217 1.30859C20.7369 1.32448 20.7516 1.34074 20.7656 1.35742C20.7717 1.3647 20.7773 1.37243 20.7832 1.37988C20.7957 1.39561 20.8079 1.4114 20.8193 1.42773C20.8276 1.4395 20.835 1.45174 20.8428 1.46387C20.8534 1.48056 20.8635 1.49744 20.873 1.51465C20.9131 1.58657 20.9444 1.66367 20.9658 1.74512C20.9686 1.75551 20.9712 1.7659 20.9736 1.77637C20.9852 1.82683 20.9925 1.87859 20.9961 1.93164C20.9971 1.94596 20.9977 1.96025 20.998 1.97461C20.9983 1.98306 21 1.9915 21 2V22C21 22.5523 20.5523 23 20 23H4C3.44772 23 3 22.5523 3 22V2C3 1.99151 3.00077 1.98305 3.00098 1.97461C3.00135 1.96027 3.00194 1.94594 3.00293 1.93164C3.01311 1.78099 3.0564 1.63967 3.12598 1.51465C3.13552 1.49745 3.14565 1.48055 3.15625 1.46387C3.16397 1.45175 3.17147 1.43949 3.17969 1.42773C3.19109 1.4114 3.20337 1.39561 3.21582 1.37988C3.22172 1.37243 3.22729 1.3647 3.2334 1.35742C3.24741 1.34074 3.26211 1.32447 3.27734 1.30859C3.28626 1.29928 3.29542 1.29021 3.30469 1.28125C3.31723 1.26914 3.33046 1.25764 3.34375 1.24609C3.35751 1.2341 3.37133 1.22217 3.38574 1.21094C3.39051 1.20723 3.39554 1.20383 3.40039 1.2002C3.40546 1.1964 3.4109 1.19314 3.41602 1.18945C3.43293 1.17725 3.45009 1.16545 3.46777 1.1543C3.47982 1.1467 3.49165 1.13886 3.50391 1.13184C3.52397 1.12035 3.54453 1.10972 3.56543 1.09961C3.56936 1.0977 3.5732 1.0956 3.57715 1.09375C3.60167 1.08229 3.62679 1.07198 3.65234 1.0625C3.66046 1.05948 3.66859 1.05651 3.67676 1.05371C3.69474 1.04757 3.71302 1.04224 3.73145 1.03711C3.74799 1.0325 3.76456 1.02815 3.78125 1.02441C3.79517 1.02131 3.80911 1.01815 3.82324 1.01562C3.83849 1.0129 3.85383 1.0108 3.86914 1.00879C3.89267 1.00571 3.91642 1.00336 3.94043 1.00195C3.94726 1.00155 3.9541 1.00124 3.96094 1.00098C3.9739 1.00048 3.98692 1 4 1H20C20.0128 1 20.0254 1.0005 20.0381 1.00098ZM5 21H19V19H5V21ZM5 17H11V7H7C6.68524 7 6.38905 6.85142 6.2002 6.59961L5 4.99902V17ZM17.7998 6.59961C17.611 6.85142 17.3148 7 17 7H13V17H19V4.99902L17.7998 6.59961ZM7.49902 5H16.501L18.001 3H5.99902L7.49902 5Z" fill="#9E9E9E"/>
</g>
</svg>
