<svg width="24" height="24" viewBox="0 0 24 24" fill="none" xmlns="http://www.w3.org/2000/svg">
<g id="icons/Office/envelope-one">
<path id="Union" d="M18 3C18.5523 3 19 3.44772 19 4V7H22C22.0082 7 22.0163 7.00078 22.0244 7.00098C22.0388 7.00134 22.0531 7.00196 22.0674 7.00293C22.0904 7.00446 22.1132 7.0067 22.1357 7.00977C22.1413 7.01053 22.1468 7.01184 22.1523 7.0127C22.176 7.01632 22.1995 7.02013 22.2227 7.02539C22.2331 7.02778 22.2435 7.03048 22.2539 7.0332C22.3353 7.05453 22.4124 7.08603 22.4844 7.12598C22.5016 7.13551 22.5185 7.14566 22.5352 7.15625C22.5475 7.16411 22.5603 7.17131 22.5723 7.17969C22.5884 7.19094 22.6036 7.20354 22.6191 7.21582C22.6266 7.22172 22.6343 7.22729 22.6416 7.2334C22.6583 7.24741 22.6745 7.26211 22.6904 7.27734C22.6998 7.28626 22.7088 7.29542 22.7178 7.30469C22.7299 7.31723 22.7414 7.33046 22.7529 7.34375C22.7649 7.35752 22.7768 7.37133 22.7881 7.38574C22.7919 7.39066 22.796 7.39538 22.7998 7.40039C22.8023 7.40378 22.8041 7.40772 22.8066 7.41113C22.8215 7.4314 22.8353 7.45225 22.8486 7.47363C22.8549 7.48373 22.8613 7.49367 22.8672 7.50391C22.8951 7.55264 22.919 7.60379 22.9385 7.65723C22.9401 7.66178 22.9418 7.66633 22.9434 7.6709C22.9512 7.69331 22.9576 7.71615 22.9639 7.73926C22.9676 7.75325 22.9715 7.76716 22.9746 7.78125C22.9777 7.79518 22.9809 7.8091 22.9834 7.82324C22.9861 7.8385 22.9882 7.85381 22.9902 7.86914C22.9958 7.91202 23 7.95559 23 8V20C23 20.5523 22.5523 21 22 21H6C5.44772 21 5 20.5523 5 20V17H2C1.44772 17 1 16.5523 1 16V4C1 3.44772 1.44772 3 2 3H18ZM14.5996 14.7998C14.2441 15.0663 13.7559 15.0663 13.4004 14.7998L7 9.99902V19H21V9.99902L14.5996 14.7998ZM3 15H5V8C5 7.96539 5.00145 7.93116 5.00488 7.89746C5.00585 7.88796 5.00756 7.87856 5.00879 7.86914C5.0108 7.85383 5.0129 7.83849 5.01562 7.82324C5.01815 7.80911 5.02131 7.79517 5.02441 7.78125C5.02815 7.76456 5.0325 7.74799 5.03711 7.73145C5.04224 7.71302 5.04757 7.69474 5.05371 7.67676C5.05651 7.66859 5.05948 7.66046 5.0625 7.65234C5.0677 7.63832 5.07232 7.62407 5.07812 7.61035C5.09077 7.58047 5.10571 7.55175 5.12109 7.52344C5.12464 7.5169 5.12814 7.51035 5.13184 7.50391C5.13886 7.49165 5.1467 7.47982 5.1543 7.46777C5.16622 7.44887 5.17828 7.43013 5.19141 7.41211C5.19427 7.40817 5.19726 7.4043 5.2002 7.40039C5.20383 7.39554 5.20723 7.39051 5.21094 7.38574C5.22217 7.37133 5.2341 7.35751 5.24609 7.34375C5.25764 7.33046 5.26915 7.31723 5.28125 7.30469C5.29021 7.29542 5.29928 7.28626 5.30859 7.27734C5.32447 7.26211 5.34074 7.24741 5.35742 7.2334C5.3647 7.22729 5.37243 7.22172 5.37988 7.21582C5.39561 7.20337 5.4114 7.19109 5.42773 7.17969C5.43949 7.17147 5.45175 7.16397 5.46387 7.15625C5.48055 7.14565 5.49745 7.13552 5.51465 7.12598C5.51758 7.12435 5.52049 7.12269 5.52344 7.12109C5.55175 7.10571 5.58047 7.09077 5.61035 7.07812C5.62889 7.07028 5.6479 7.06338 5.66699 7.05664C5.66951 7.05575 5.67228 7.05555 5.6748 7.05469C5.73008 7.03568 5.7875 7.02181 5.84668 7.0127C5.85223 7.01183 5.85772 7.01053 5.86328 7.00977C5.88584 7.00668 5.90862 7.00448 5.93164 7.00293C5.94594 7.00194 5.96027 7.00135 5.97461 7.00098C5.98305 7.00077 5.99151 7 6 7H17V5H3V15ZM14 12.75L19 9H9L14 12.75Z" fill="#9E9E9E"/>
</g>
</svg>
