<svg width="24" height="24" viewBox="0 0 24 24" fill="none" xmlns="http://www.w3.org/2000/svg">
<g id="icons/Office/error-picture">
<path id="Union" d="M12 1.99707C12.5523 1.99707 13 2.44479 13 2.99707C13 3.54936 12.5523 3.99707 12 3.99707H4.5C4.22386 3.99707 4 4.22093 4 4.49707V15.2256L7.6709 11.8613C8.41673 11.1778 9.55607 11.1589 10.3242 11.8174L13.5244 14.5605L15.6797 12.4062C16.3835 11.7025 17.4977 11.6236 18.2939 12.2207L20 13.5V11.9971C20 11.4448 20.4477 10.9971 21 10.9971C21.5523 10.9971 22 11.4448 22 11.9971V19.4971C22 20.8778 20.8807 21.9971 19.5 21.9971H4.5C3.11929 21.9971 2.00001 20.8778 2 19.4971V4.49707C2 3.11636 3.11929 1.99707 4.5 1.99707H12ZM4 17.9395V19.4971C4.00001 19.7732 4.22387 19.9971 4.5 19.9971H19.5C19.7761 19.9971 20 19.7732 20 19.4971V15.999L17.0938 13.8203L15.0469 15.8662L16.6504 17.2402C17.0697 17.5997 17.1182 18.2311 16.7588 18.6504C16.3994 19.0696 15.7689 19.1181 15.3496 18.7588L9.02246 13.3359L4 17.9395ZM19.793 2.79297C20.1835 2.40244 20.8165 2.40244 21.207 2.79297C21.5976 3.18349 21.5976 3.81651 21.207 4.20703L19.9141 5.5L21.207 6.79297C21.5976 7.18349 21.5976 7.81651 21.207 8.20703C20.8165 8.59756 20.1835 8.59756 19.793 8.20703L18.5 6.91406L17.207 8.20703C16.8165 8.59756 16.1835 8.59756 15.793 8.20703C15.4024 7.81651 15.4024 7.18349 15.793 6.79297L17.0859 5.5L15.793 4.20703C15.4024 3.81651 15.4024 3.18349 15.793 2.79297C16.1835 2.40244 16.8165 2.40244 17.207 2.79297L18.5 4.08594L19.793 2.79297Z" fill="#9E9E9E"/>
</g>
</svg>
