<svg width="24" height="24" viewBox="0 0 24 24" fill="none" xmlns="http://www.w3.org/2000/svg">
<g id="icons/Office/excel">
<path id="Union" d="M19 1C20.1046 1 21 1.89544 21 3V21C21 22.1046 20.1046 23 19 23H5C3.89544 23 3 22.1046 3 21V17.5H2C1.44772 17.5 1 17.0523 1 16.5V7.5C1 6.94772 1.44772 6.5 2 6.5H3V3C3 1.89543 3.89543 1 5 1H19ZM5 6.5H11C11.5523 6.5 12 6.94772 12 7.5V16.5C12 17.0523 11.5523 17.5 11 17.5H5V21H19V3H5V6.5ZM17 14.5C17.5523 14.5 18 14.9477 18 15.5C18 16.0523 17.5523 16.5 17 16.5H14C13.4477 16.5 13 16.0523 13 15.5C13 14.9477 13.4477 14.5 14 14.5H17ZM3 15.5H10V8.5H3V15.5ZM7.29297 9.79297C7.68349 9.40244 8.31651 9.40244 8.70703 9.79297C9.09756 10.1835 9.09756 10.8165 8.70703 11.207L7.91406 12L8.70703 12.793C9.09756 13.1835 9.09756 13.8165 8.70703 14.207C8.31651 14.5976 7.68349 14.5976 7.29297 14.207L6.5 13.4141L5.70703 14.207C5.31651 14.5976 4.68349 14.5976 4.29297 14.207C3.90244 13.8165 3.90244 13.1835 4.29297 12.793L5.08594 12L4.29297 11.207C3.90244 10.8165 3.90244 10.1835 4.29297 9.79297C4.68349 9.40244 5.31651 9.40244 5.70703 9.79297L6.5 10.5859L7.29297 9.79297ZM17 10.5C17.5523 10.5 18 10.9477 18 11.5C18 12.0523 17.5523 12.5 17 12.5H14C13.4477 12.5 13 12.0523 13 11.5C13 10.9477 13.4477 10.5 14 10.5H17ZM17 6.5C17.5523 6.5 18 6.94772 18 7.5C18 8.05228 17.5523 8.5 17 8.5H15.5C14.9477 8.5 14.5 8.05228 14.5 7.5C14.5 6.94772 14.9477 6.5 15.5 6.5H17Z" fill="#9E9E9E"/>
</g>
</svg>
