<svg width="24" height="24" viewBox="0 0 24 24" fill="none" xmlns="http://www.w3.org/2000/svg">
<g id="icons/Office/fail-picture">
<path id="Union" d="M2.29309 2.29297C2.68362 1.90244 3.31663 1.90244 3.70715 2.29297L4.08801 2.67383C4.37079 2.56287 4.67799 2.5 5.00012 2.5H19.0001C20.3808 2.50004 21.5001 3.61931 21.5001 5V19C21.5001 19.3219 21.4362 19.6285 21.3253 19.9111L21.7072 20.293C22.0976 20.6835 22.0977 21.3165 21.7072 21.707C21.3167 22.0975 20.6836 22.0975 20.2931 21.707L19.9113 21.3252C19.6286 21.436 19.3221 21.5 19.0001 21.5H5.00012C3.61944 21.5 2.50016 20.3807 2.50012 19V5C2.50012 4.67786 2.56299 4.37067 2.67395 4.08789L2.29309 3.70703C1.90257 3.31651 1.90257 2.68349 2.29309 2.29297ZM4.50012 14.4424V19C4.50016 19.2761 4.724 19.5 5.00012 19.5H18.0861L8.96692 10.3809L4.50012 14.4424ZM14.6642 13.25L19.5001 18.0859V13.499L16.5939 11.3203L14.6642 13.25ZM13.2501 11.8359L15.1798 9.90625C15.8836 9.20248 16.9978 9.12356 17.7941 9.7207L19.5001 11V5C19.5001 4.72388 19.2762 4.50004 19.0001 4.5H5.91418L13.2501 11.8359ZM4.50012 11.7383L7.5509 8.96484L4.50012 5.91406V11.7383Z" fill="#9E9E9E"/>
</g>
</svg>
