<svg width="24" height="24" viewBox="0 0 24 24" fill="none" xmlns="http://www.w3.org/2000/svg">
<g id="icons/Office/file-quality-one">
<path id="Union" d="M15.6055 1.00586C15.8497 1.03176 16.0772 1.1467 16.2432 1.33105L20.7432 6.33105C20.7491 6.3376 20.7541 6.34488 20.7598 6.35156C20.7677 6.36089 20.7756 6.37027 20.7832 6.37988C20.7932 6.39247 20.8032 6.40496 20.8125 6.41797C20.8246 6.43476 20.8357 6.45218 20.8467 6.46973C20.8515 6.4774 20.8558 6.48537 20.8604 6.49316C20.8695 6.5086 20.8784 6.52408 20.8867 6.54004C20.8932 6.55259 20.8993 6.56532 20.9053 6.57812C20.9388 6.64991 20.9647 6.72583 20.9805 6.80566C20.9846 6.82665 20.9874 6.84786 20.9902 6.86914C20.9917 6.8802 20.994 6.89117 20.9951 6.90234C20.9983 6.93467 21 6.96726 21 7V11.5C21 12.0523 20.5523 12.5 20 12.5C19.4477 12.5 19 12.0523 19 11.5V8H15C14.4477 8 14 7.55228 14 7V3H5V21H11C11.5523 21 12 21.4477 12 22C12 22.5523 11.5523 23 11 23H5C3.89544 23 3 22.1046 3 21V3C3 1.89543 3.89543 1 5 1H15.5L15.6055 1.00586ZM19.0146 14.0068C19.2799 14.0374 19.5237 14.1734 19.6895 14.3867L21.29 16.4453C21.5749 16.8121 21.5696 17.3275 21.2773 17.6885L17.2773 22.6289C17.0875 22.8634 16.8018 23 16.5 23C16.1982 23 15.9125 22.8634 15.7227 22.6289L11.7227 17.6885C11.4304 17.3275 11.4251 16.8121 11.71 16.4453L13.3105 14.3867L13.3857 14.2998C13.5726 14.1092 13.8295 14.0001 14.0996 14H18.9004L19.0146 14.0068ZM13.7764 17.0459L16.5 20.4102L19.2227 17.0459L18.4111 16H14.5889L13.7764 17.0459ZM16 6H17.7549L16 4.0498V6Z" fill="#9E9E9E"/>
</g>
</svg>
