<svg width="24" height="24" viewBox="0 0 24 24" fill="none" xmlns="http://www.w3.org/2000/svg">
<g id="icons/Office/file-hash">
<path id="Union" d="M15 1C15.0563 1 15.1113 1.00571 15.165 1.01465C15.1738 1.01611 15.1827 1.01686 15.1914 1.01855L15.2012 1.02051C15.211 1.02252 15.2207 1.02504 15.2305 1.02734C15.251 1.0322 15.2717 1.0368 15.292 1.04297C15.3408 1.05783 15.3873 1.0778 15.4326 1.09961C15.4466 1.10634 15.4609 1.11269 15.4746 1.12012C15.5374 1.15407 15.5956 1.19511 15.6494 1.24121C15.6689 1.2579 15.6886 1.27454 15.707 1.29297L20.707 6.29297C20.7548 6.34078 20.7976 6.39354 20.835 6.4502C20.8597 6.48768 20.8812 6.52662 20.9004 6.56641C20.9222 6.61159 20.9412 6.65838 20.9561 6.70703C20.9623 6.72732 20.9668 6.74799 20.9717 6.76855C20.9893 6.84294 21 6.92022 21 7V21C21 22.1046 20.1046 23 19 23H5C3.89544 23 3 22.1046 3 21V3C3 1.89543 3.89543 1 5 1H15ZM5 21H19V8H15C14.4477 8 14 7.55228 14 7V3H5V21ZM13.5 9.5C14.0523 9.5 14.5 9.94771 14.5 10.5V11.5H15.5C16.0523 11.5 16.5 11.9477 16.5 12.5C16.5 13.0523 16.0523 13.5 15.5 13.5H14.5V14.5H15.5C16.0523 14.5 16.5 14.9477 16.5 15.5C16.5 16.0523 16.0523 16.5 15.5 16.5H14.5V17.5C14.5 18.0523 14.0523 18.5 13.5 18.5C12.9477 18.5 12.5 18.0523 12.5 17.5V16.5H11.5V17.5C11.5 18.0523 11.0523 18.5 10.5 18.5C9.94772 18.5 9.5 18.0523 9.5 17.5V16.5H8.5C7.94772 16.5 7.5 16.0523 7.5 15.5C7.5 14.9477 7.94772 14.5 8.5 14.5H9.5V13.5H8.5C7.94772 13.5 7.5 13.0523 7.5 12.5C7.5 11.9477 7.94772 11.5 8.5 11.5H9.5V10.5C9.5 9.94771 9.94772 9.5 10.5 9.5C11.0523 9.5 11.5 9.94771 11.5 10.5V11.5H12.5V10.5C12.5 9.94771 12.9477 9.5 13.5 9.5ZM11.5 13.5V14.5H12.5V13.5H11.5ZM16 6H17.5859L16 4.41406V6Z" fill="#9E9E9E"/>
</g>
</svg>
