<svg width="24" height="24" viewBox="0 0 24 24" fill="none" xmlns="http://www.w3.org/2000/svg">
<g id="icons/Office/file-txt-one">
<path id="Union" d="M15 1C15.3038 1 15.5915 1.13778 15.7812 1.375L19.7812 6.375C19.7856 6.38049 19.7887 6.387 19.793 6.39258C19.8201 6.42795 19.8449 6.46503 19.8672 6.50391C19.8704 6.50949 19.8739 6.51487 19.877 6.52051C19.9279 6.61349 19.9641 6.71528 19.9834 6.82324C19.9844 6.82904 19.9844 6.835 19.9854 6.84082C19.9937 6.89276 20 6.94571 20 7V9H21C22.1046 9 23 9.89543 23 11V18C23 19.1046 22.1046 20 21 20H20V22C20 22.5523 19.5523 23 19 23H5C4.44772 23 4 22.5523 4 22V20H3C1.89543 20 1 19.1046 1 18V11C1 9.89543 1.89543 9 3 9H4V2C4 1.44772 4.44772 1 5 1H15ZM6 21H18V20H6V21ZM3 18H21V11H3V18ZM8 11.5C8.55228 11.5 9 11.9477 9 12.5C9 13.0523 8.55228 13.5 8 13.5H7.5V16.5C7.5 17.0523 7.05228 17.5 6.5 17.5C5.94772 17.5 5.5 17.0523 5.5 16.5V13.5H5C4.44772 13.5 4 13.0523 4 12.5C4 11.9477 4.44772 11.5 5 11.5H8ZM19 11.5C19.5523 11.5 20 11.9477 20 12.5C20 13.0523 19.5523 13.5 19 13.5H18.5V16.5C18.5 17.0523 18.0523 17.5 17.5 17.5C16.9477 17.5 16.5 17.0523 16.5 16.5V13.5H16C15.4477 13.5 15 13.0523 15 12.5C15 11.9477 15.4477 11.5 16 11.5H19ZM12.7002 11.9004C13.0315 11.4586 13.6578 11.369 14.0996 11.7002C14.5414 12.0315 14.631 12.6578 14.2998 13.0996L13.249 14.5L14.2998 15.9004C14.631 16.3422 14.5414 16.9685 14.0996 17.2998C13.6578 17.631 13.0315 17.5414 12.7002 17.0996L12 16.166L11.2998 17.0996C10.9685 17.5414 10.3422 17.631 9.90039 17.2998C9.45862 16.9685 9.36896 16.3422 9.7002 15.9004L10.75 14.5L9.7002 13.0996C9.36896 12.6578 9.45862 12.0315 9.90039 11.7002C10.3422 11.369 10.9685 11.4586 11.2998 11.9004L12 12.834L12.7002 11.9004ZM6 9H18V8H14C13.4477 8 13 7.55228 13 7V3H6V9ZM10 5C10.5523 5 11 5.44772 11 6C11 6.55228 10.5523 7 10 7H8C7.44772 7 7 6.55228 7 6C7 5.44772 7.44772 5 8 5H10ZM15 6H16.9189L15 3.60156V6Z" fill="#9E9E9E"/>
</g>
</svg>
