<svg width="24" height="24" viewBox="0 0 24 24" fill="none" xmlns="http://www.w3.org/2000/svg">
<g id="icons/Office/file-search">
<path id="Union" d="M19 1C20.1046 1 21 1.89544 21 3V10.4209C21 10.9732 20.5523 11.4209 20 11.4209C19.4477 11.4209 19 10.9732 19 10.4209V3H5V21H13C13.5523 21 14 21.4477 14 22C14 22.5523 13.5523 23 13 23H5C3.89544 23 3 22.1046 3 21V3C3 1.89543 3.89543 1 5 1H19ZM13.915 13.9141C15.4771 12.3523 18.0092 12.3523 19.5713 13.9141C20.8894 15.2321 21.0957 17.2414 20.1895 18.7754L21.6924 20.2783C22.0829 20.6688 22.0829 21.3019 21.6924 21.6924C21.3019 22.0829 20.6688 22.0829 20.2783 21.6924L18.7744 20.1885C17.2407 21.094 15.2328 20.8889 13.915 19.5713C12.3529 18.0092 12.3529 15.4762 13.915 13.9141ZM18.1572 15.3281C17.3762 14.5474 16.1101 14.5474 15.3291 15.3281C14.5481 16.1092 14.5481 17.3762 15.3291 18.1572C16.1101 18.9379 17.3762 18.9379 18.1572 18.1572C18.9383 17.3762 18.9383 16.1092 18.1572 15.3281ZM10 16C10.5523 16 11 16.4477 11 17C11 17.5523 10.5523 18 10 18H7C6.44772 18 6 17.5523 6 17C6 16.4477 6.44772 16 7 16H10ZM10 13C10.5523 13 11 13.4477 11 14C11 14.5523 10.5523 15 10 15H7C6.44772 15 6 14.5523 6 14C6 13.4477 6.44772 13 7 13H10ZM8.5 6C9.05228 6 9.5 6.44772 9.5 7V7.5H10C10.5523 7.5 11 7.94772 11 8.5C11 9.05229 10.5523 9.5 10 9.5H9.5V10C9.5 10.5523 9.05228 11 8.5 11C7.94772 11 7.5 10.5523 7.5 10V9.5H7C6.44772 9.5 6 9.05229 6 8.5C6 7.94772 6.44772 7.5 7 7.5H7.5V7C7.5 6.44772 7.94772 6 8.5 6ZM17 7.5C17.5523 7.5 18 7.94772 18 8.5C18 9.05229 17.5523 9.5 17 9.5H14C13.4477 9.5 13 9.05229 13 8.5C13 7.94772 13.4477 7.5 14 7.5H17Z" fill="#9E9E9E"/>
</g>
</svg>
