<svg width="24" height="24" viewBox="0 0 24 24" fill="none" xmlns="http://www.w3.org/2000/svg">
<g id="icons/Office/file-music">
<path id="Union" d="M15 1C15.0563 1 15.1113 1.00571 15.165 1.01465C15.1738 1.01611 15.1827 1.01686 15.1914 1.01855L15.2012 1.02051C15.211 1.02252 15.2207 1.02504 15.2305 1.02734C15.251 1.0322 15.2717 1.0368 15.292 1.04297C15.3408 1.05783 15.3873 1.0778 15.4326 1.09961C15.4466 1.10634 15.4609 1.11269 15.4746 1.12012C15.5374 1.15407 15.5956 1.19511 15.6494 1.24121C15.6689 1.2579 15.6886 1.27454 15.707 1.29297L20.707 6.29297C20.7548 6.34078 20.7976 6.39354 20.835 6.4502C20.8597 6.48768 20.8812 6.52662 20.9004 6.56641C20.9222 6.61159 20.9412 6.65838 20.9561 6.70703C20.9623 6.72732 20.9668 6.74799 20.9717 6.76855C20.9893 6.84294 21 6.92022 21 7V21C21 22.1046 20.1046 23 19 23H5C3.89544 23 3 22.1046 3 21V3C3 1.89543 3.89543 1 5 1H15ZM5 21H19V8H15C14.4477 8 14 7.55228 14 7V3H5V21ZM15.0566 9.10352C15.5516 8.85872 16.1516 9.0617 16.3965 9.55664C16.6413 10.0516 16.4383 10.6516 15.9434 10.8965L13.5 12.1045V16.75C13.5 16.8648 13.479 16.9745 13.4434 17.0771C13.1742 18.4578 11.9594 19.5 10.5 19.5C8.84315 19.5 7.5 18.1569 7.5 16.5C7.5 14.8431 8.84315 13.5 10.5 13.5C10.851 13.5 11.1869 13.5631 11.5 13.6738V11.4844C11.5 11.1041 11.7158 10.7565 12.0566 10.5879L15.0566 9.10352ZM10.5 15.5C9.94772 15.5 9.5 15.9477 9.5 16.5C9.5 17.0523 9.94772 17.5 10.5 17.5C11.0523 17.5 11.5 17.0523 11.5 16.5C11.5 15.9477 11.0523 15.5 10.5 15.5ZM16 6H17.5859L16 4.41406V6Z" fill="#9E9E9E"/>
</g>
</svg>
