<svg width="24" height="24" viewBox="0 0 24 24" fill="none" xmlns="http://www.w3.org/2000/svg">
<g id="icons/Office/file-conversion">
<path id="Union" d="M15 1C15.0563 1 15.1113 1.00571 15.165 1.01465C15.1738 1.01611 15.1827 1.01686 15.1914 1.01855L15.2012 1.02051C15.211 1.02252 15.2207 1.02504 15.2305 1.02734C15.251 1.0322 15.2717 1.0368 15.292 1.04297C15.3408 1.05783 15.3873 1.0778 15.4326 1.09961C15.4466 1.10634 15.4609 1.11269 15.4746 1.12012C15.5374 1.15407 15.5956 1.19511 15.6494 1.24121C15.6689 1.2579 15.6886 1.27454 15.707 1.29297L20.707 6.29297C20.7548 6.34078 20.7976 6.39354 20.835 6.4502C20.8597 6.48768 20.8812 6.52662 20.9004 6.56641C20.9222 6.61159 20.9412 6.65838 20.9561 6.70703C20.9623 6.72732 20.9668 6.74799 20.9717 6.76855C20.9893 6.84294 21 6.92022 21 7V21C21 22.1046 20.1046 23 19 23H5C3.89544 23 3 22.1046 3 21V3C3 1.89543 3.89543 1 5 1H15ZM5 21H19V8H15C14.4477 8 14 7.55228 14 7V3H5V21ZM15.5 14.5C16.0523 14.5 16.5 14.9477 16.5 15.5C16.5 16.0523 16.0523 16.5 15.5 16.5H10.9141L11.707 17.293C12.0976 17.6835 12.0976 18.3165 11.707 18.707C11.3165 19.0976 10.6835 19.0976 10.293 18.707L7.79297 16.207C7.76536 16.1794 7.7405 16.15 7.7168 16.1201C7.68065 16.0745 7.64798 16.0261 7.62012 15.9746C7.61269 15.9609 7.60635 15.9466 7.59961 15.9326C7.5778 15.8873 7.55783 15.8408 7.54297 15.792C7.5303 15.7503 7.52176 15.7077 7.51465 15.665C7.50571 15.6113 7.5 15.5563 7.5 15.5C7.5 15.4203 7.50973 15.3429 7.52734 15.2686C7.53221 15.248 7.53678 15.2273 7.54297 15.207C7.55787 15.1583 7.57777 15.1117 7.59961 15.0664C7.61877 15.0266 7.6403 14.9877 7.66504 14.9502C7.7557 14.8128 7.87904 14.6989 8.02441 14.6201C8.03816 14.6127 8.0524 14.6064 8.06641 14.5996C8.11167 14.5778 8.15828 14.5579 8.20703 14.543C8.2273 14.5368 8.248 14.5322 8.26855 14.5273C8.2799 14.5247 8.29124 14.5218 8.30273 14.5195C8.30468 14.5191 8.30665 14.5189 8.30859 14.5186L8.39746 14.5049C8.43116 14.5015 8.46539 14.5 8.5 14.5H15.5ZM12.293 9.29297C12.6835 8.90244 13.3165 8.90244 13.707 9.29297L16.207 11.793C16.2548 11.8408 16.2976 11.8935 16.335 11.9502C16.3597 11.9877 16.3812 12.0266 16.4004 12.0664C16.4222 12.1116 16.4412 12.1584 16.4561 12.207C16.4623 12.2273 16.4668 12.248 16.4717 12.2686C16.4893 12.3429 16.5 12.4202 16.5 12.5C16.5 12.5563 16.4933 12.6112 16.4844 12.665C16.4772 12.7078 16.4688 12.7503 16.4561 12.792C16.4412 12.8407 16.4222 12.8874 16.4004 12.9326C16.3936 12.9468 16.3864 12.9607 16.3789 12.9746C16.3002 13.1201 16.1873 13.2442 16.0498 13.335C16.0121 13.3599 15.9727 13.3811 15.9326 13.4004C15.8874 13.4222 15.8407 13.4412 15.792 13.4561C15.7717 13.4622 15.751 13.4668 15.7305 13.4717C15.7191 13.4744 15.7078 13.4772 15.6963 13.4795C15.6859 13.4816 15.6754 13.4826 15.665 13.4844C15.6112 13.4933 15.5563 13.5 15.5 13.5H8.5C7.94772 13.5 7.5 13.0523 7.5 12.5C7.5 11.9477 7.94772 11.5 8.5 11.5H13.0859L12.293 10.707C11.9024 10.3165 11.9024 9.68349 12.293 9.29297ZM16 6H17.5859L16 4.41406V6Z" fill="#9E9E9E"/>
</g>
</svg>
