<svg width="24" height="24" viewBox="0 0 24 24" fill="none" xmlns="http://www.w3.org/2000/svg">
<g id="icons/Office/file-settings">
<path id="Union" d="M15 1C15.0563 1 15.1113 1.00571 15.165 1.01465C15.1738 1.01611 15.1827 1.01686 15.1914 1.01855L15.2012 1.02051C15.211 1.02252 15.2207 1.02504 15.2305 1.02734C15.251 1.0322 15.2717 1.0368 15.292 1.04297C15.3408 1.05783 15.3873 1.0778 15.4326 1.09961C15.4466 1.10634 15.4609 1.11269 15.4746 1.12012C15.5374 1.15407 15.5956 1.19511 15.6494 1.24121C15.6689 1.2579 15.6886 1.27454 15.707 1.29297L20.707 6.29297C20.7548 6.34078 20.7976 6.39354 20.835 6.4502C20.8597 6.48768 20.8812 6.52662 20.9004 6.56641C20.9222 6.61159 20.9412 6.65838 20.9561 6.70703C20.9623 6.72732 20.9668 6.74799 20.9717 6.76855C20.9893 6.84294 21 6.92022 21 7V21C21 22.1046 20.1046 23 19 23H5C3.89544 23 3 22.1046 3 21V3C3 1.89543 3.89543 1 5 1H15ZM5 21H19V8H15C14.4477 8 14 7.55228 14 7V3H5V21ZM12 8.5C12.5523 8.5 13 8.94772 13 9.5V10.1455C13.2117 10.2085 13.4146 10.2917 13.6074 10.3916L14.207 9.79297C14.5975 9.40252 15.2306 9.40252 15.6211 9.79297C16.0115 10.1835 16.0115 10.8165 15.6211 11.207L15.0469 11.7803C15.1746 12.006 15.2791 12.2466 15.3545 12.5H16C16.5523 12.5 17 12.9477 17 13.5C17 14.0523 16.5523 14.5 16 14.5H15.3545C15.2853 14.7326 15.1917 14.9545 15.0781 15.1641L15.7676 15.8535C16.1581 16.244 16.1581 16.8771 15.7676 17.2676C15.3771 17.6581 14.744 17.6581 14.3535 17.2676L13.6641 16.5781C13.4546 16.6916 13.2325 16.7843 13 16.8535V17.5C13 18.0523 12.5523 18.5 12 18.5C11.4477 18.5 11 18.0523 11 17.5V16.8535C10.7467 16.7781 10.506 16.6745 10.2803 16.5469L9.56055 17.2676C9.17004 17.6581 8.53701 17.658 8.14648 17.2676C7.75601 16.877 7.75598 16.244 8.14648 15.8535L8.8916 15.1074C8.79168 14.9146 8.70853 14.7117 8.64551 14.5H8C7.44772 14.5 7 14.0523 7 13.5C7 12.9477 7.44772 12.5 8 12.5H8.64551C8.71478 12.2673 8.80728 12.0446 8.9209 11.835L8.29297 11.207C7.90244 10.8165 7.90244 10.1835 8.29297 9.79297C8.68349 9.40244 9.31651 9.40244 9.70703 9.79297L10.335 10.4209C10.5446 10.3073 10.7673 10.2148 11 10.1455V9.5C11 8.94772 11.4477 8.5 12 8.5ZM12 12C11.1716 12 10.5 12.6716 10.5 13.5C10.5 14.3284 11.1716 15 12 15C12.8284 15 13.5 14.3284 13.5 13.5C13.5 12.6716 12.8284 12 12 12ZM16 6H17.5859L16 4.41406V6Z" fill="#9E9E9E"/>
</g>
</svg>
