<svg width="24" height="24" viewBox="0 0 24 24" fill="none" xmlns="http://www.w3.org/2000/svg">
<g id="icons/Office/file-txt">
<path id="Union" d="M15.0986 1.00488C15.3276 1.02757 15.5429 1.12883 15.707 1.29297L20.707 6.29297C20.8946 6.4805 21 6.73478 21 7V21C21 22.1046 20.1046 23 19 23H5C3.89544 23 3 22.1046 3 21V3C3 1.89543 3.89543 1 5 1H15L15.0986 1.00488ZM5 21H19V7.41406L14.5859 3H5V21ZM15 8.00391C15.5523 8.00391 16 8.45162 16 9.00391C16 9.55619 15.5523 10.0039 15 10.0039H13.0039V17L12.999 17.1016C12.948 17.606 12.5218 18 12.0039 18C11.486 18 11.0598 17.606 11.0088 17.1016L11.0039 17V10.0039H9C8.44772 10.0039 8 9.55619 8 9.00391C8 8.45162 8.44772 8.00391 9 8.00391H15Z" fill="#9E9E9E"/>
</g>
</svg>
