<svg width="24" height="24" viewBox="0 0 24 24" fill="none" xmlns="http://www.w3.org/2000/svg">
<g id="icons/Office/file-display">
<path id="Union" d="M15 1C15.0563 1 15.1113 1.00571 15.165 1.01465C15.1738 1.01611 15.1827 1.01686 15.1914 1.01855L15.2012 1.02051C15.211 1.02252 15.2207 1.02504 15.2305 1.02734C15.251 1.0322 15.2717 1.0368 15.292 1.04297C15.3408 1.05783 15.3873 1.0778 15.4326 1.09961C15.4466 1.10634 15.4609 1.11269 15.4746 1.12012C15.5374 1.15407 15.5956 1.19511 15.6494 1.24121C15.6689 1.2579 15.6886 1.27454 15.707 1.29297L20.707 6.29297C20.7548 6.34078 20.7976 6.39354 20.835 6.4502C20.8597 6.48768 20.8812 6.52662 20.9004 6.56641C20.9222 6.61159 20.9412 6.65838 20.9561 6.70703C20.9623 6.72732 20.9668 6.74799 20.9717 6.76855C20.9893 6.84294 21 6.92022 21 7V21C21 22.1046 20.1046 23 19 23H5C3.89544 23 3 22.1046 3 21V3C3 1.89543 3.89543 1 5 1H15ZM5 21H19V8H15C14.4477 8 14 7.55228 14 7V3H5V21ZM12 10C13.6279 10 14.9913 10.9652 15.8594 11.7646C16.3112 12.1808 16.6742 12.5941 16.9238 12.9023C17.0491 13.0571 17.1473 13.1875 17.2158 13.2812C17.2501 13.3282 17.2768 13.3662 17.2959 13.3936C17.3055 13.4072 17.3137 13.4185 17.3193 13.4268C17.322 13.4307 17.3244 13.4339 17.3262 13.4365C17.3271 13.4379 17.3275 13.4394 17.3281 13.4404L17.3301 13.4424L17.4043 13.5732C17.5318 13.8432 17.5318 14.1568 17.4043 14.4268L17.3301 14.5576L17.3281 14.5596C17.3275 14.5606 17.3271 14.5621 17.3262 14.5635C17.3244 14.5661 17.322 14.5693 17.3193 14.5732C17.3137 14.5815 17.3055 14.5928 17.2959 14.6064C17.2768 14.6338 17.2501 14.6718 17.2158 14.7188C17.1473 14.8125 17.0491 14.9429 16.9238 15.0977C16.6742 15.4059 16.3112 15.8192 15.8594 16.2354C14.9913 17.0348 13.6279 18 12 18C10.3721 18 9.0087 17.0348 8.14062 16.2354C7.68876 15.8192 7.32575 15.4059 7.07617 15.0977C6.95089 14.9429 6.85265 14.8125 6.78418 14.7188C6.7499 14.6718 6.72323 14.6338 6.7041 14.6064C6.69453 14.5928 6.68632 14.5815 6.68066 14.5732C6.67796 14.5693 6.6756 14.5661 6.67383 14.5635C6.67291 14.5621 6.67254 14.5606 6.67188 14.5596L6.66992 14.5576C6.44348 14.2204 6.44348 13.7796 6.66992 13.4424L6.67188 13.4404C6.67254 13.4394 6.67291 13.4379 6.67383 13.4365C6.6756 13.4339 6.67796 13.4307 6.68066 13.4268C6.68632 13.4185 6.69453 13.4072 6.7041 13.3936C6.72323 13.3662 6.7499 13.3282 6.78418 13.2812C6.85265 13.1875 6.95089 13.0571 7.07617 12.9023C7.32575 12.5941 7.68876 12.1808 8.14062 11.7646C9.0087 10.9652 10.3721 10 12 10ZM12 12C11.1426 12 10.2557 12.5348 9.49512 13.2354C9.20481 13.5027 8.95759 13.7727 8.76465 14C8.95759 14.2273 9.20481 14.4973 9.49512 14.7646C10.2557 15.4652 11.1426 16 12 16C12.8574 16 13.7443 15.4652 14.5049 14.7646C14.795 14.4975 15.0415 14.2272 15.2344 14C15.0415 13.7728 14.795 13.5025 14.5049 13.2354C13.7443 12.5348 12.8574 12 12 12ZM12 13C12.5523 13 13 13.4477 13 14C13 14.5523 12.5523 15 12 15C11.4477 15 11 14.5523 11 14C11 13.4477 11.4477 13 12 13ZM16 6H17.5859L16 4.41406V6Z" fill="#9E9E9E"/>
</g>
</svg>
