<svg width="24" height="24" viewBox="0 0 24 24" fill="none" xmlns="http://www.w3.org/2000/svg">
<g id="icons/Office/file-hiding-one">
<path id="Union" d="M15.6055 1.00586C15.8497 1.03176 16.0772 1.1467 16.2432 1.33105L20.7432 6.33105C20.7491 6.3376 20.7541 6.34488 20.7598 6.35156C20.7677 6.36089 20.7756 6.37027 20.7832 6.37988C20.7932 6.39247 20.8032 6.40496 20.8125 6.41797C20.8246 6.43476 20.8357 6.45218 20.8467 6.46973C20.8515 6.4774 20.8558 6.48537 20.8604 6.49316C20.8695 6.5086 20.8784 6.52408 20.8867 6.54004C20.8932 6.55259 20.8993 6.56532 20.9053 6.57812C20.9388 6.64991 20.9647 6.72583 20.9805 6.80566C20.9846 6.82665 20.9874 6.84786 20.9902 6.86914C20.9917 6.8802 20.994 6.89117 20.9951 6.90234C20.9983 6.93467 21 6.96726 21 7V11.5C21 12.0523 20.5523 12.5 20 12.5C19.4477 12.5 19 12.0523 19 11.5V8H15C14.4477 8 14 7.55228 14 7V3H5V21H11C11.5523 21 12 21.4477 12 22C12 22.5523 11.5523 23 11 23H5C3.89544 23 3 22.1046 3 21V3C3 1.89543 3.89543 1 5 1H15.5L15.6055 1.00586ZM19.5439 14.7051C19.7067 14.1773 20.2672 13.8811 20.7949 14.0439C21.3227 14.2067 21.6189 14.7672 21.4561 15.2949C21.288 15.8397 21.0335 16.3457 20.7129 16.7988L21.7979 17.8838C22.1884 18.2743 22.1884 18.9073 21.7979 19.2979C21.4073 19.6884 20.7743 19.6884 20.3838 19.2979L19.2686 18.1826C19.142 18.2641 19.0127 18.3417 18.8789 18.4121L19.2266 19.707C19.3695 20.2405 19.053 20.7887 18.5195 20.9316C17.9861 21.0746 17.4379 20.7581 17.2949 20.2246L16.96 18.9766C16.8084 18.9901 16.6551 19 16.5 19C16.3459 19 16.1936 18.9909 16.043 18.9775L15.709 20.2246C15.566 20.758 15.0178 21.0745 14.4844 20.9316C13.9509 20.7887 13.6344 20.2405 13.7773 19.707L14.124 18.4121C13.9904 18.3418 13.8608 18.265 13.7344 18.1836L12.707 19.2119C12.3165 19.6024 11.6835 19.6024 11.293 19.2119C10.9025 18.8214 10.9025 18.1884 11.293 17.7979L12.2881 16.8018C11.9666 16.348 11.7123 15.8407 11.5439 15.2949C11.3811 14.7672 11.6773 14.2067 12.2051 14.0439C12.7328 13.8811 13.2933 14.1773 13.4561 14.7051C13.5645 15.0567 13.7284 15.3826 13.9375 15.6719V15.6729C14.5252 16.4855 15.458 17 16.5 17C17.5421 17 18.4748 16.4847 19.0625 15.6719C19.2716 15.3826 19.4355 15.0567 19.5439 14.7051ZM16 6H17.7549L16 4.0498V6Z" fill="#9E9E9E"/>
</g>
</svg>
