<svg width="24" height="24" viewBox="0 0 24 24" fill="none" xmlns="http://www.w3.org/2000/svg">
<g id="icons/Office/file-protection">
<path id="Union" d="M15 1C15.0563 1 15.1113 1.00571 15.165 1.01465C15.1738 1.01611 15.1827 1.01686 15.1914 1.01855L15.2012 1.02051C15.211 1.02252 15.2207 1.02504 15.2305 1.02734C15.251 1.0322 15.2717 1.0368 15.292 1.04297C15.3408 1.05783 15.3873 1.0778 15.4326 1.09961C15.4466 1.10634 15.4609 1.11269 15.4746 1.12012C15.5374 1.15407 15.5956 1.19511 15.6494 1.24121C15.6689 1.2579 15.6886 1.27454 15.707 1.29297L20.707 6.29297C20.7548 6.34078 20.7976 6.39354 20.835 6.4502C20.8597 6.48768 20.8812 6.52662 20.9004 6.56641C20.9222 6.61159 20.9412 6.65838 20.9561 6.70703C20.9623 6.72732 20.9668 6.74799 20.9717 6.76855C20.9893 6.84294 21 6.92022 21 7V21C21 22.1046 20.1046 23 19 23H5C3.89544 23 3 22.1046 3 21V3C3 1.89543 3.89543 1 5 1H15ZM5 21H19V8H15C14.4477 8 14 7.55228 14 7V3H5V21ZM11.708 9.04297C11.898 8.98505 12.102 8.98505 12.292 9.04297V9.04395H12.293L12.2949 9.04492C12.2969 9.04554 12.3001 9.04576 12.3037 9.04688C12.311 9.04912 12.3215 9.05248 12.335 9.05664C12.3621 9.06505 12.4017 9.07716 12.4512 9.09277C12.5504 9.12409 12.6915 9.16985 12.8604 9.22559C13.1967 9.33664 13.65 9.49117 14.1064 9.66504C14.5552 9.83598 15.0394 10.0372 15.4238 10.2422C15.6113 10.3422 15.8185 10.4657 15.9922 10.6113C16.079 10.6841 16.1884 10.7886 16.2832 10.9258C16.3753 11.0591 16.4999 11.2917 16.5 11.5996C16.5 14.0247 15.5014 15.8419 14.5234 17.0342C14.0351 17.6295 13.5468 18.076 13.1777 18.376C12.9927 18.5264 12.8356 18.6414 12.7217 18.7207C12.6648 18.7603 12.6181 18.7913 12.584 18.8135L12.5293 18.8486C12.5276 18.8497 12.5258 18.8507 12.5244 18.8516L12.5225 18.8525L12.5215 18.8535C12.5211 18.8538 12.5205 18.8539 12 18L12.5205 18.8535C12.2009 19.0483 11.7991 19.0483 11.4795 18.8535L12 18C11.4795 18.8539 11.4789 18.8538 11.4785 18.8535L11.4775 18.8525L11.4756 18.8516C11.4742 18.8507 11.4724 18.8497 11.4707 18.8486L11.416 18.8135C11.3819 18.7913 11.3352 18.7603 11.2783 18.7207C11.1644 18.6414 11.0073 18.5264 10.8223 18.376C10.4532 18.076 9.96488 17.6295 9.47656 17.0342C8.4986 15.8419 7.5 14.0247 7.5 11.5996C7.50011 11.2917 7.62469 11.0591 7.7168 10.9258C7.81155 10.7886 7.92098 10.6841 8.00781 10.6113C8.18152 10.4657 8.38865 10.3422 8.57617 10.2422C8.96063 10.0372 9.44484 9.83598 9.89355 9.66504C10.35 9.49117 10.8033 9.33664 11.1396 9.22559C11.3085 9.16985 11.4496 9.12409 11.5488 9.09277C11.5983 9.07716 11.6379 9.06505 11.665 9.05664C11.6785 9.05248 11.689 9.04912 11.6963 9.04688C11.6999 9.04576 11.7031 9.04554 11.7051 9.04492L11.707 9.04395H11.708V9.04297ZM11.7666 11.125C11.4469 11.2306 11.0248 11.3748 10.6064 11.5342C10.1803 11.6965 9.78929 11.8629 9.51758 12.0078C9.51642 12.0084 9.51482 12.0082 9.51367 12.0088C9.6146 13.6475 10.3097 14.8955 11.0234 15.7656C11.373 16.1918 11.7239 16.5201 12 16.752C12.2761 16.5201 12.627 16.1918 12.9766 15.7656C13.6903 14.8955 14.3844 13.6475 14.4854 12.0088C14.4845 12.0083 14.4833 12.0083 14.4824 12.0078C14.2107 11.8629 13.8197 11.6965 13.3936 11.5342C12.9752 11.3748 12.5531 11.2306 12.2334 11.125C12.147 11.0965 12.0684 11.0708 12 11.0488C11.9316 11.0708 11.853 11.0965 11.7666 11.125ZM16 6H17.5859L16 4.41406V6Z" fill="#9E9E9E"/>
</g>
</svg>
