<svg width="24" height="24" viewBox="0 0 24 24" fill="none" xmlns="http://www.w3.org/2000/svg">
<g id="icons/Office/file-code">
<path id="Union" d="M15 1C15.0563 1 15.1113 1.00571 15.165 1.01465C15.1738 1.01611 15.1827 1.01686 15.1914 1.01855L15.2012 1.02051C15.211 1.02252 15.2207 1.02504 15.2305 1.02734C15.251 1.0322 15.2717 1.0368 15.292 1.04297C15.3408 1.05783 15.3873 1.0778 15.4326 1.09961C15.4466 1.10634 15.4609 1.11269 15.4746 1.12012C15.5374 1.15407 15.5956 1.19511 15.6494 1.24121C15.6689 1.2579 15.6886 1.27454 15.707 1.29297L20.707 6.29297C20.7548 6.34078 20.7976 6.39354 20.835 6.4502C20.8597 6.48768 20.8812 6.52662 20.9004 6.56641C20.9222 6.61159 20.9412 6.65838 20.9561 6.70703C20.9623 6.72732 20.9668 6.74799 20.9717 6.76855C20.9893 6.84294 21 6.92022 21 7V21C21 22.1046 20.1046 23 19 23H5C3.89544 23 3 22.1046 3 21V3C3 1.89543 3.89543 1 5 1H15ZM5 21H19V8H15C14.4477 8 14 7.55228 14 7V3H5V21ZM9.79297 11.293C10.1835 10.9024 10.8165 10.9024 11.207 11.293C11.5976 11.6835 11.5976 12.3165 11.207 12.707L9.41406 14.5L11.207 16.293C11.5976 16.6835 11.5976 17.3165 11.207 17.707C10.8165 18.0976 10.1835 18.0976 9.79297 17.707L7.29297 15.207C6.90244 14.8165 6.90244 14.1835 7.29297 13.793L9.79297 11.293ZM12.793 11.293C13.1835 10.9024 13.8165 10.9024 14.207 11.293L16.707 13.793C17.0976 14.1835 17.0976 14.8165 16.707 15.207L14.207 17.707C13.8165 18.0976 13.1835 18.0976 12.793 17.707C12.4024 17.3165 12.4024 16.6835 12.793 16.293L14.5859 14.5L12.793 12.707C12.4024 12.3165 12.4024 11.6835 12.793 11.293ZM16 6H17.5859L16 4.41406V6Z" fill="#9E9E9E"/>
</g>
</svg>
