<svg width="24" height="24" viewBox="0 0 24 24" fill="none" xmlns="http://www.w3.org/2000/svg">
<g id="icons/Office/file-jpg">
<path id="Union" d="M15.0986 1.00488C15.3276 1.02757 15.5429 1.12883 15.707 1.29297L20.707 6.29297C20.8946 6.4805 21 6.73478 21 7V21C21 22.1046 20.1046 23 19 23H5C3.89544 23 3 22.1046 3 21V3C3 1.89543 3.89543 1 5 1H15L15.0986 1.00488ZM5 21H19V7.41406L14.5859 3H5V21ZM15.5 8C16.0523 8 16.5 8.44772 16.5 9C16.5 9.55229 16.0523 10 15.5 10H14V15C14 16.6568 12.6568 18 11 18C9.34317 18 8 16.6568 8 15C8 14.4477 8.44772 14 9 14C9.51768 14 9.94379 14.3933 9.99512 14.8975L10.0049 15.1025C10.0562 15.6067 10.4823 16 11 16C11.5177 16 11.9438 15.6067 11.9951 15.1025L12 15V10H10.5C9.94772 10 9.5 9.55229 9.5 9C9.5 8.44772 9.94772 8 10.5 8H15.5Z" fill="#9E9E9E"/>
</g>
</svg>
