<svg width="24" height="24" viewBox="0 0 24 24" fill="none" xmlns="http://www.w3.org/2000/svg">
<g id="icons/Office/file-pdf">
<path id="Union" d="M15.0986 1.00488C15.3276 1.02757 15.5429 1.12883 15.707 1.29297L20.707 6.29297C20.8946 6.4805 21 6.73478 21 7V21C21 22.1046 20.1046 23 19 23H5C3.89544 23 3 22.1046 3 21V3C3 1.89543 3.89543 1 5 1H15L15.0986 1.00488ZM5 21H19V7.41406L14.5859 3H5V21ZM15 8C15.5523 8 16 8.44772 16 9V12.9961C15.9999 13.5479 15.5528 13.9956 15.001 13.9961L10 13.999V17C10 17.5523 9.55228 18 9 18C8.44772 18 8 17.5523 8 17V9C8 8.68982 8.14065 8.41194 8.3623 8.22852C8.37325 8.21947 8.3852 8.21168 8.39648 8.20312C8.48866 8.1332 8.59282 8.07771 8.70605 8.04297C8.72143 8.03824 8.73733 8.03523 8.75293 8.03125C8.76879 8.02722 8.78463 8.0228 8.80078 8.01953C8.80948 8.01776 8.8184 8.01716 8.82715 8.01562C8.88334 8.00583 8.94101 8 9 8H15ZM10.0029 11.999L14 11.9961V10H10.001L10.0029 11.999Z" fill="#9E9E9E"/>
</g>
</svg>
