<svg width="24" height="24" viewBox="0 0 24 24" fill="none" xmlns="http://www.w3.org/2000/svg">
<g id="icons/Office/file-display-one">
<path id="Union" d="M15.6055 1.00586C15.8497 1.03176 16.0772 1.1467 16.2432 1.33105L20.7432 6.33105C20.7491 6.3376 20.7541 6.34488 20.7598 6.35156C20.7677 6.36089 20.7756 6.37027 20.7832 6.37988C20.7932 6.39247 20.8032 6.40496 20.8125 6.41797C20.8246 6.43476 20.8357 6.45218 20.8467 6.46973C20.8515 6.4774 20.8558 6.48537 20.8604 6.49316C20.8695 6.5086 20.8784 6.52408 20.8867 6.54004C20.8932 6.55259 20.8993 6.56532 20.9053 6.57812C20.9388 6.64991 20.9647 6.72583 20.9805 6.80566C20.9846 6.82665 20.9874 6.84786 20.9902 6.86914C20.9917 6.8802 20.994 6.89117 20.9951 6.90234C20.9983 6.93467 21 6.96726 21 7V11.5C21 12.0523 20.5523 12.5 20 12.5C19.4477 12.5 19 12.0523 19 11.5V8H15C14.4477 8 14 7.55228 14 7V3H5V21H11C11.5523 21 12 21.4477 12 22C12 22.5523 11.5523 23 11 23H5C3.89544 23 3 22.1046 3 21V3C3 1.89543 3.89543 1 5 1H15.5L15.6055 1.00586ZM16.5 13.5C18.1279 13.5 19.4913 14.4652 20.3594 15.2646C20.8112 15.6808 21.1742 16.0941 21.4238 16.4023C21.5491 16.5571 21.6473 16.6875 21.7158 16.7812C21.7501 16.8282 21.7768 16.8662 21.7959 16.8936C21.8055 16.9072 21.8137 16.9185 21.8193 16.9268C21.822 16.9307 21.8244 16.9339 21.8262 16.9365C21.8271 16.9379 21.8275 16.9394 21.8281 16.9404L21.8301 16.9424L21.9043 17.0732C22.0318 17.3432 22.0318 17.6568 21.9043 17.9268L21.8301 18.0576L21.8281 18.0596C21.8275 18.0606 21.8271 18.0621 21.8262 18.0635C21.8244 18.0661 21.822 18.0693 21.8193 18.0732C21.8137 18.0815 21.8055 18.0928 21.7959 18.1064C21.7768 18.1338 21.7501 18.1718 21.7158 18.2188C21.6473 18.3125 21.5491 18.4429 21.4238 18.5977C21.1742 18.9059 20.8112 19.3192 20.3594 19.7354C19.4913 20.5348 18.1279 21.5 16.5 21.5C14.8721 21.5 13.5087 20.5348 12.6406 19.7354C12.1888 19.3192 11.8258 18.9059 11.5762 18.5977C11.4509 18.4429 11.3527 18.3125 11.2842 18.2188C11.2499 18.1718 11.2232 18.1338 11.2041 18.1064C11.1945 18.0928 11.1863 18.0815 11.1807 18.0732C11.178 18.0693 11.1756 18.0661 11.1738 18.0635C11.1729 18.0621 11.1725 18.0606 11.1719 18.0596L11.1699 18.0576C10.9435 17.7204 10.9435 17.2796 11.1699 16.9424L11.1719 16.9404C11.1725 16.9394 11.1729 16.9379 11.1738 16.9365C11.1756 16.9339 11.178 16.9307 11.1807 16.9268C11.1863 16.9185 11.1945 16.9072 11.2041 16.8936C11.2232 16.8662 11.2499 16.8282 11.2842 16.7812C11.3527 16.6875 11.4509 16.5571 11.5762 16.4023C11.8258 16.0941 12.1888 15.6808 12.6406 15.2646C13.5087 14.4652 14.8721 13.5 16.5 13.5ZM16.5 15.5C15.6426 15.5 14.7557 16.0348 13.9951 16.7354C13.7048 17.0027 13.4576 17.2727 13.2646 17.5C13.4576 17.7273 13.7048 17.9973 13.9951 18.2646C14.7557 18.9652 15.6426 19.5 16.5 19.5C17.3574 19.5 18.2443 18.9652 19.0049 18.2646C19.295 17.9975 19.5415 17.7272 19.7344 17.5C19.5415 17.2728 19.295 17.0025 19.0049 16.7354C18.2443 16.0348 17.3574 15.5 16.5 15.5ZM16.5 16.5C17.0523 16.5 17.5 16.9477 17.5 17.5C17.5 18.0523 17.0523 18.5 16.5 18.5C15.9477 18.5 15.5 18.0523 15.5 17.5C15.5 16.9477 15.9477 16.5 16.5 16.5ZM16 6H17.7549L16 4.0498V6Z" fill="#9E9E9E"/>
</g>
</svg>
