<svg width="24" height="24" viewBox="0 0 24 24" fill="none" xmlns="http://www.w3.org/2000/svg">
<g id="icons/Office/file-focus-one">
<path id="Union" d="M15.6055 1.00586C15.8497 1.03176 16.0772 1.1467 16.2432 1.33105L20.7432 6.33105C20.7491 6.3376 20.7541 6.34488 20.7598 6.35156C20.7677 6.36089 20.7756 6.37027 20.7832 6.37988C20.7932 6.39247 20.8032 6.40496 20.8125 6.41797C20.8246 6.43476 20.8357 6.45218 20.8467 6.46973C20.8515 6.4774 20.8558 6.48537 20.8604 6.49316C20.8695 6.5086 20.8784 6.52408 20.8867 6.54004C20.8932 6.55259 20.8993 6.56532 20.9053 6.57812C20.9388 6.64991 20.9647 6.72583 20.9805 6.80566C20.9846 6.82665 20.9874 6.84786 20.9902 6.86914C20.9917 6.8802 20.994 6.89117 20.9951 6.90234C20.9983 6.93467 21 6.96726 21 7V11.5C21 12.0523 20.5523 12.5 20 12.5C19.4477 12.5 19 12.0523 19 11.5V8H15C14.4477 8 14 7.55228 14 7V3H5V21H11C11.5523 21 12 21.4477 12 22C12 22.5523 11.5523 23 11 23H5C3.89544 23 3 22.1046 3 21V3C3 1.89543 3.89543 1 5 1H15.5L15.6055 1.00586ZM17 12.5C17.3915 12.5 17.7475 12.7288 17.9102 13.085L18.9365 15.334L21.3945 15.6162C21.7833 15.661 22.1105 15.9286 22.2314 16.3008C22.3522 16.673 22.2444 17.0821 21.9561 17.3467L20.1338 19.0186L20.626 21.4424C20.7035 21.8258 20.5498 22.2192 20.2334 22.4492C19.9166 22.6794 19.4942 22.7043 19.1533 22.5117L17 21.2949L14.8477 22.5117C14.5067 22.7043 14.0843 22.6794 13.7676 22.4492C13.4511 22.2192 13.2975 21.8259 13.375 21.4424L13.8662 19.0176L12.0449 17.3467C11.7565 17.0821 11.6487 16.673 11.7695 16.3008C11.8905 15.9285 12.2176 15.6609 12.6064 15.6162L15.0635 15.334L16.0908 13.085L16.1602 12.957C16.3424 12.6748 16.6576 12.5002 17 12.5ZM16.6484 16.6787C16.5028 16.9976 16.2008 17.2169 15.8525 17.2568L15.0098 17.3525L15.6348 17.9268C15.893 18.1638 16.0091 18.5188 15.9395 18.8623L15.7705 19.6914L16.5088 19.2754L16.626 19.2188C16.9059 19.1057 17.2252 19.1247 17.4922 19.2754L18.2295 19.6914L18.0615 18.8623C17.9919 18.5188 18.1079 18.1638 18.3662 17.9268L18.9902 17.3525L18.1484 17.2568C17.8002 17.2169 17.4981 16.9976 17.3525 16.6787L17 15.9072L16.6484 16.6787ZM16 6H17.7549L16 4.0498V6Z" fill="#9E9E9E"/>
</g>
</svg>
