<svg width="24" height="24" viewBox="0 0 24 24" fill="none" xmlns="http://www.w3.org/2000/svg">
<g id="icons/Office/file-focus">
<path id="Union" d="M15 1C15.0563 1 15.1113 1.00571 15.165 1.01465C15.1738 1.01611 15.1827 1.01686 15.1914 1.01855L15.2012 1.02051C15.211 1.02252 15.2207 1.02504 15.2305 1.02734C15.251 1.0322 15.2717 1.0368 15.292 1.04297C15.3408 1.05783 15.3873 1.0778 15.4326 1.09961C15.4466 1.10634 15.4609 1.11269 15.4746 1.12012C15.5374 1.15407 15.5956 1.19511 15.6494 1.24121C15.6689 1.2579 15.6886 1.27454 15.707 1.29297L20.707 6.29297C20.7548 6.34078 20.7976 6.39354 20.835 6.4502C20.8597 6.48768 20.8812 6.52662 20.9004 6.56641C20.9222 6.61159 20.9412 6.65838 20.9561 6.70703C20.9623 6.72732 20.9668 6.74799 20.9717 6.76855C20.9893 6.84294 21 6.92022 21 7V21C21 22.1046 20.1046 23 19 23H5C3.89544 23 3 22.1046 3 21V3C3 1.89543 3.89543 1 5 1H15ZM5 21H19V8H15C14.4477 8 14 7.55228 14 7V3H5V21ZM12 8.5C12.3915 8.5 12.7475 8.72879 12.9102 9.08496L13.9365 11.334L16.3945 11.6162C16.7833 11.661 17.1105 11.9286 17.2314 12.3008C17.3522 12.673 17.2444 13.0821 16.9561 13.3467L15.1338 15.0186L15.626 17.4424C15.7035 17.8258 15.5498 18.2192 15.2334 18.4492C14.9166 18.6794 14.4942 18.7043 14.1533 18.5117L12 17.2949L9.84766 18.5117C9.50674 18.7043 9.08434 18.6794 8.76758 18.4492C8.45111 18.2192 8.29747 17.8259 8.375 17.4424L8.86621 15.0176L7.04492 13.3467C6.75654 13.0821 6.64874 12.673 6.76953 12.3008C6.89048 11.9285 7.21763 11.6609 7.60645 11.6162L10.0635 11.334L11.0908 9.08496L11.1602 8.95703C11.3424 8.67483 11.6576 8.50015 12 8.5ZM11.6484 12.6787C11.5028 12.9976 11.2008 13.2169 10.8525 13.2568L10.0098 13.3525L10.6348 13.9268C10.893 14.1638 11.0091 14.5188 10.9395 14.8623L10.7705 15.6914L11.5088 15.2754L11.626 15.2188C11.9059 15.1057 12.2252 15.1247 12.4922 15.2754L13.2295 15.6914L13.0615 14.8623C12.9919 14.5188 13.1079 14.1638 13.3662 13.9268L13.9902 13.3525L13.1484 13.2568C12.8002 13.2169 12.4981 12.9976 12.3525 12.6787L12 11.9072L11.6484 12.6787ZM16 6H17.5859L16 4.41406V6Z" fill="#9E9E9E"/>
</g>
</svg>
