<svg width="24" height="24" viewBox="0 0 24 24" fill="none" xmlns="http://www.w3.org/2000/svg">
<g id="icons/Office/file-pdf-one">
<path id="Union" d="M15 1C15.3038 1 15.5915 1.13778 15.7812 1.375L19.7812 6.375C19.7856 6.38049 19.7887 6.387 19.793 6.39258C19.8201 6.42795 19.8449 6.46503 19.8672 6.50391C19.8704 6.50949 19.8739 6.51487 19.877 6.52051C19.9279 6.61349 19.9641 6.71528 19.9834 6.82324C19.9844 6.82904 19.9844 6.835 19.9854 6.84082C19.9937 6.89276 20 6.94571 20 7V9H21C22.1046 9 23 9.89543 23 11V18C23 19.1046 22.1046 20 21 20H20V22C20 22.5523 19.5523 23 19 23H5C4.44772 23 4 22.5523 4 22V20H3C1.89543 20 1 19.1046 1 18V11C1 9.89543 1.89543 9 3 9H4V2C4 1.44772 4.44772 1 5 1H15ZM6 21H18V20H6V21ZM3 18H21V11H3V18ZM6.75 11.5C7.99263 11.5 9 12.5074 9 13.75C9 14.9926 7.99263 16 6.75 16H6V16.5C6 17.0523 5.55228 17.5 5 17.5C4.44772 17.5 4 17.0523 4 16.5V12.5C4 11.9477 4.44772 11.5 5 11.5H6.75ZM11.5 11.5C13.1568 11.5 14.5 12.8432 14.5 14.5C14.5 16.1568 13.1568 17.5 11.5 17.5H10.5C9.94771 17.5 9.5 17.0523 9.5 16.5V12.5C9.5 11.9477 9.94771 11.5 10.5 11.5H11.5ZM18.5 11.5C19.0523 11.5 19.5 11.9477 19.5 12.5C19.5 13.0523 19.0523 13.5 18.5 13.5H17V14H18.5C19.0523 14 19.5 14.4477 19.5 15C19.5 15.5523 19.0523 16 18.5 16H17V16.5C17 17.0523 16.5523 17.5 16 17.5C15.4477 17.5 15 17.0523 15 16.5V12.5C15 11.9477 15.4477 11.5 16 11.5H18.5ZM11.5 15.5C12.0523 15.5 12.5 15.0523 12.5 14.5C12.5 13.9477 12.0523 13.5 11.5 13.5V15.5ZM6 14H6.75C6.88807 14 7 13.8881 7 13.75C7 13.6119 6.88807 13.5 6.75 13.5H6V14ZM6 9H18V8H14C13.4477 8 13 7.55228 13 7V3H6V9ZM10 5C10.5523 5 11 5.44772 11 6C11 6.55228 10.5523 7 10 7H8C7.44772 7 7 6.55228 7 6C7 5.44772 7.44772 5 8 5H10ZM15 6H16.9189L15 3.60156V6Z" fill="#9E9E9E"/>
</g>
</svg>
