<svg width="24" height="24" viewBox="0 0 24 24" fill="none" xmlns="http://www.w3.org/2000/svg">
<g id="icons/Office/file-settings-one">
<path id="Union" d="M15.6055 1.00586C15.8497 1.03176 16.0772 1.1467 16.2432 1.33105L20.7432 6.33105C20.7491 6.3376 20.7541 6.34488 20.7598 6.35156C20.7677 6.36089 20.7756 6.37027 20.7832 6.37988C20.7932 6.39247 20.8032 6.40496 20.8125 6.41797C20.8246 6.43476 20.8357 6.45218 20.8467 6.46973C20.8515 6.4774 20.8558 6.48537 20.8604 6.49316C20.8695 6.5086 20.8784 6.52408 20.8867 6.54004C20.8932 6.55259 20.8993 6.56532 20.9053 6.57812C20.9388 6.64991 20.9647 6.72583 20.9805 6.80566C20.9846 6.82665 20.9874 6.84786 20.9902 6.86914C20.9917 6.8802 20.994 6.89117 20.9951 6.90234C20.9983 6.93467 21 6.96726 21 7V11.5C21 12.0523 20.5523 12.5 20 12.5C19.4477 12.5 19 12.0523 19 11.5V8H15C14.4477 8 14 7.55228 14 7V3H5V21H11C11.5523 21 12 21.4477 12 22C12 22.5523 11.5523 23 11 23H5C3.89544 23 3 22.1046 3 21V3C3 1.89543 3.89543 1 5 1H15.5L15.6055 1.00586ZM17 13C17.5523 13 18 13.4477 18 14V14.6455C18.2117 14.7085 18.4146 14.7917 18.6074 14.8916L19.207 14.293C19.5975 13.9025 20.2306 13.9025 20.6211 14.293C21.0115 14.6835 21.0115 15.3165 20.6211 15.707L20.0469 16.2803C20.1746 16.506 20.2791 16.7466 20.3545 17H21C21.5523 17 22 17.4477 22 18C22 18.5523 21.5523 19 21 19H20.3545C20.2853 19.2326 20.1917 19.4545 20.0781 19.6641L20.7676 20.3535C21.1581 20.744 21.1581 21.3771 20.7676 21.7676C20.3771 22.1581 19.744 22.1581 19.3535 21.7676L18.6641 21.0781C18.4546 21.1916 18.2325 21.2843 18 21.3535V22C18 22.5523 17.5523 23 17 23C16.4477 23 16 22.5523 16 22V21.3535C15.7467 21.2781 15.506 21.1745 15.2803 21.0469L14.5605 21.7676C14.17 22.1581 13.537 22.158 13.1465 21.7676C12.756 21.3771 12.756 20.744 13.1465 20.3535L13.8916 19.6074C13.7917 19.4146 13.7085 19.2117 13.6455 19H13C12.4477 19 12 18.5523 12 18C12 17.4477 12.4477 17 13 17H13.6455C13.7148 16.7673 13.8073 16.5446 13.9209 16.335L13.293 15.707C12.9024 15.3165 12.9024 14.6835 13.293 14.293C13.6835 13.9024 14.3165 13.9024 14.707 14.293L15.335 14.9209C15.5446 14.8073 15.7673 14.7148 16 14.6455V14C16 13.4477 16.4477 13 17 13ZM17 16.5C16.1716 16.5 15.5 17.1716 15.5 18C15.5 18.8284 16.1716 19.5 17 19.5C17.8284 19.5 18.5 18.8284 18.5 18C18.5 17.1716 17.8284 16.5 17 16.5ZM16 6H17.7549L16 4.0498V6Z" fill="#9E9E9E"/>
</g>
</svg>
