<svg width="24" height="24" viewBox="0 0 24 24" fill="none" xmlns="http://www.w3.org/2000/svg">
<g id="icons/Office/file-ppt">
<path id="Union" d="M12.1621 1.05859C12.4684 0.948697 12.809 0.995332 13.0752 1.18262C13.3413 1.3699 13.5 1.67457 13.5 2V2.5H19C19.5523 2.5 20 2.94772 20 3.5V6H21C22.1046 6 23 6.89543 23 8V16C23 17.1046 22.1046 18 21 18H20V20.5C20 21.0523 19.5523 21.5 19 21.5H13.5V22C13.5 22.3254 13.3413 22.6301 13.0752 22.8174C12.809 23.0047 12.4684 23.0513 12.1621 22.9414L4.66211 20.251C4.26493 20.1085 4.0001 19.7315 4 19.3096V18H3C1.89544 18 1.00001 17.1046 1 16V8C1 6.89543 1.89543 6 3 6H4V4.69043C4.00008 4.26845 4.26492 3.89156 4.66211 3.74902L12.1621 1.05859ZM6 18.6055L11.5 20.5781V18H6V18.6055ZM13.5 19.5H18V18H13.5V19.5ZM3 16H21V8H3V16ZM6.5 8.5C7.88073 8.5 9 9.61927 9 11C8.99999 12.3807 7.88073 13.5 6.5 13.5H6V14.5C5.99999 15.0523 5.55228 15.5 5 15.5C4.44772 15.5 4.00001 15.0523 4 14.5V9.5C4 8.94772 4.44772 8.5 5 8.5H6.5ZM12 8.5C13.3807 8.5 14.5 9.61927 14.5 11C14.5 12.3807 13.3807 13.5 12 13.5H11.5V14.5C11.5 15.0523 11.0523 15.5 10.5 15.5C9.94772 15.5 9.50001 15.0523 9.5 14.5V9.5C9.5 8.94772 9.94771 8.5 10.5 8.5H12ZM19 9C19.5523 9 20 9.44771 20 10C20 10.5523 19.5523 11 19 11H18.5V14C18.5 14.5523 18.0523 15 17.5 15C16.9477 15 16.5 14.5523 16.5 14V11H16C15.4477 11 15 10.5523 15 10C15 9.44771 15.4477 9 16 9H19ZM11.5 11.5H12C12.2762 11.5 12.5 11.2762 12.5 11C12.5 10.7238 12.2762 10.5 12 10.5H11.5V11.5ZM6 11.5H6.5C6.77616 11.5 6.99999 11.2762 7 11C7 10.7238 6.77617 10.5 6.5 10.5H6V11.5ZM6 5.39355V6H11.5V3.4209L6 5.39355ZM13.5 6H18V4.5H13.5V6Z" fill="#9E9E9E"/>
</g>
</svg>
