<svg width="24" height="24" viewBox="0 0 24 24" fill="none" xmlns="http://www.w3.org/2000/svg">
<g id="icons/Office/file-collection">
<path id="Union" d="M15 1C15.0563 1 15.1113 1.00571 15.165 1.01465C15.1738 1.01611 15.1827 1.01686 15.1914 1.01855L15.2012 1.02051C15.211 1.02252 15.2207 1.02504 15.2305 1.02734C15.251 1.0322 15.2717 1.0368 15.292 1.04297C15.3408 1.05783 15.3873 1.0778 15.4326 1.09961C15.4466 1.10634 15.4609 1.11269 15.4746 1.12012C15.5374 1.15407 15.5956 1.19511 15.6494 1.24121C15.6689 1.2579 15.6886 1.27454 15.707 1.29297L20.707 6.29297C20.7548 6.34078 20.7976 6.39354 20.835 6.4502C20.8597 6.48768 20.8812 6.52662 20.9004 6.56641C20.9222 6.61159 20.9412 6.65838 20.9561 6.70703C20.9623 6.72732 20.9668 6.74799 20.9717 6.76855C20.9893 6.84294 21 6.92022 21 7V21C21 22.1046 20.1046 23 19 23H5C3.89544 23 3 22.1046 3 21V3C3 1.89543 3.89543 1 5 1H15ZM5 21H19V8H15C14.4477 8 14 7.55228 14 7V3H5V21ZM13.5752 9.5C15.3286 9.50012 16.5 11.1011 16.5 12.7432C16.5 14.1947 15.774 15.4884 14.9717 16.4326C14.1721 17.3735 13.1673 18.1205 12.3613 18.4326C12.129 18.5226 11.871 18.5226 11.6387 18.4326C10.8327 18.1205 9.82788 17.3735 9.02832 16.4326C8.226 15.4884 7.5 14.1947 7.5 12.7432C7.50002 11.1011 8.67143 9.50012 10.4248 9.5C11.0199 9.5 11.5561 9.69383 12 10.0088C12.4439 9.69383 12.9801 9.5 13.5752 9.5ZM13.5752 11.5C13.3336 11.5 13.0557 11.6394 12.8555 11.9707C12.6743 12.2701 12.35 12.4531 12 12.4531C11.65 12.4531 11.3257 12.2701 11.1445 11.9707C10.9443 11.6394 10.6664 11.5 10.4248 11.5C10.052 11.5001 9.50002 11.9077 9.5 12.7432C9.5 13.5348 9.91132 14.3829 10.5527 15.1377C11.0386 15.7094 11.5825 16.1391 12 16.3857C12.4175 16.1391 12.9614 15.7094 13.4473 15.1377C14.0887 14.3829 14.5 13.5348 14.5 12.7432C14.5 11.9077 13.948 11.5001 13.5752 11.5ZM16 6H17.5859L16 4.41406V6Z" fill="#9E9E9E"/>
</g>
</svg>
