<svg width="24" height="24" viewBox="0 0 24 24" fill="none" xmlns="http://www.w3.org/2000/svg">
<g id="icons/Office/file-hiding">
<path id="Union" d="M15 1C15.0563 1 15.1113 1.00571 15.165 1.01465C15.1738 1.01611 15.1827 1.01686 15.1914 1.01855L15.2012 1.02051C15.211 1.02252 15.2207 1.02504 15.2305 1.02734C15.251 1.0322 15.2717 1.0368 15.292 1.04297C15.3408 1.05783 15.3873 1.0778 15.4326 1.09961C15.4466 1.10634 15.4609 1.11269 15.4746 1.12012C15.5374 1.15407 15.5956 1.19511 15.6494 1.24121C15.6689 1.2579 15.6886 1.27454 15.707 1.29297L20.707 6.29297C20.7548 6.34078 20.7976 6.39354 20.835 6.4502C20.8597 6.48768 20.8812 6.52662 20.9004 6.56641C20.9222 6.61159 20.9412 6.65838 20.9561 6.70703C20.9623 6.72732 20.9668 6.74799 20.9717 6.76855C20.9893 6.84294 21 6.92022 21 7V21C21 22.1046 20.1046 23 19 23H5C3.89544 23 3 22.1046 3 21V3C3 1.89543 3.89543 1 5 1H15ZM5 21H19V8H15C14.4477 8 14 7.55228 14 7V3H5V21ZM15.0439 11.2051C15.2067 10.6773 15.7672 10.3811 16.2949 10.5439C16.8227 10.7067 17.1189 11.2672 16.9561 11.7949C16.788 12.3397 16.5335 12.8457 16.2129 13.2988L17.2979 14.3838C17.6884 14.7743 17.6884 15.4073 17.2979 15.7979C16.9073 16.1884 16.2743 16.1884 15.8838 15.7979L14.7686 14.6826C14.642 14.7641 14.5127 14.8417 14.3789 14.9121L14.7266 16.207C14.8695 16.7405 14.553 17.2887 14.0195 17.4316C13.4861 17.5746 12.9379 17.2581 12.7949 16.7246L12.46 15.4766C12.3084 15.4901 12.1551 15.5 12 15.5C11.8459 15.5 11.6936 15.4909 11.543 15.4775L11.209 16.7246C11.066 17.258 10.5178 17.5745 9.98438 17.4316C9.45094 17.2887 9.1344 16.7405 9.27734 16.207L9.62402 14.9121C9.4904 14.8418 9.36084 14.765 9.23438 14.6836L8.20703 15.7119C7.8165 16.1024 7.18349 16.1024 6.79297 15.7119C6.40251 15.3214 6.40246 14.6883 6.79297 14.2979L7.78809 13.3018C7.46664 12.848 7.21229 12.3407 7.04395 11.7949C6.88115 11.2672 7.17733 10.7067 7.70508 10.5439C8.23282 10.3811 8.79326 10.6773 8.95605 11.2051C9.06452 11.5567 9.22835 11.8826 9.4375 12.1719V12.1729C10.0252 12.9855 10.958 13.5 12 13.5C13.0421 13.5 13.9748 12.9847 14.5625 12.1719C14.7716 11.8826 14.9355 11.5567 15.0439 11.2051ZM16 6H17.5859L16 4.41406V6Z" fill="#9E9E9E"/>
</g>
</svg>
