<svg width="24" height="24" viewBox="0 0 24 24" fill="none" xmlns="http://www.w3.org/2000/svg">
<g id="icons/Office/file-removal">
<path id="Union" d="M15 1C15.0563 1 15.1113 1.00571 15.165 1.01465C15.1738 1.01611 15.1827 1.01686 15.1914 1.01855L15.2012 1.02051C15.211 1.02252 15.2207 1.02504 15.2305 1.02734C15.251 1.0322 15.2717 1.0368 15.292 1.04297C15.3408 1.05783 15.3873 1.0778 15.4326 1.09961C15.4466 1.10634 15.4609 1.11269 15.4746 1.12012C15.5374 1.15407 15.5956 1.19511 15.6494 1.24121C15.6689 1.2579 15.6886 1.27454 15.707 1.29297L20.707 6.29297C20.7548 6.34078 20.7976 6.39354 20.835 6.4502C20.8597 6.48768 20.8812 6.52662 20.9004 6.56641C20.9222 6.61159 20.9412 6.65838 20.9561 6.70703C20.9623 6.72732 20.9668 6.74799 20.9717 6.76855C20.9893 6.84294 21 6.92022 21 7V21C21 22.1046 20.1046 23 19 23H5C3.89544 23 3 22.1046 3 21V3C3 1.89543 3.89543 1 5 1H15ZM5 21H19V8H15C14.4477 8 14 7.55228 14 7V3H5V21ZM15.5 13C16.0523 13 16.5 13.4477 16.5 14C16.5 14.5523 16.0523 15 15.5 15H8.5C7.94772 15 7.5 14.5523 7.5 14C7.5 13.4477 7.94772 13 8.5 13H15.5ZM16 6H17.5859L16 4.41406V6Z" fill="#9E9E9E"/>
</g>
</svg>
