<svg width="24" height="24" viewBox="0 0 24 24" fill="none" xmlns="http://www.w3.org/2000/svg">
<g id="icons/Office/file-collection-one">
<path id="Union" d="M15.6055 1.00586C15.8497 1.03176 16.0772 1.1467 16.2432 1.33105L20.7432 6.33105C20.7491 6.3376 20.7541 6.34488 20.7598 6.35156C20.7677 6.36089 20.7756 6.37027 20.7832 6.37988C20.7932 6.39247 20.8032 6.40496 20.8125 6.41797C20.8246 6.43476 20.8357 6.45218 20.8467 6.46973C20.8515 6.4774 20.8558 6.48537 20.8604 6.49316C20.8695 6.5086 20.8784 6.52408 20.8867 6.54004C20.8932 6.55259 20.8993 6.56532 20.9053 6.57812C20.9388 6.64991 20.9647 6.72583 20.9805 6.80566C20.9846 6.82665 20.9874 6.84786 20.9902 6.86914C20.9917 6.8802 20.994 6.89117 20.9951 6.90234C20.9983 6.93467 21 6.96726 21 7V11.5C21 12.0523 20.5523 12.5 20 12.5C19.4477 12.5 19 12.0523 19 11.5V8H15C14.4477 8 14 7.55228 14 7V3H5V21H11C11.5523 21 12 21.4477 12 22C12 22.5523 11.5523 23 11 23H5C3.89544 23 3 22.1046 3 21V3C3 1.89543 3.89543 1 5 1H15.5L15.6055 1.00586ZM18.5752 14C20.3286 14.0001 21.5 15.6011 21.5 17.2432C21.5 18.6947 20.774 19.9884 19.9717 20.9326C19.1721 21.8735 18.1673 22.6205 17.3613 22.9326C17.129 23.0226 16.871 23.0226 16.6387 22.9326C15.8327 22.6205 14.8279 21.8735 14.0283 20.9326C13.226 19.9884 12.5 18.6947 12.5 17.2432C12.5 15.6011 13.6714 14.0001 15.4248 14C16.0199 14 16.5561 14.1938 17 14.5088C17.4439 14.1938 17.9801 14 18.5752 14ZM18.5752 16C18.3336 16 18.0557 16.1394 17.8555 16.4707C17.6743 16.7701 17.35 16.9531 17 16.9531C16.65 16.9531 16.3257 16.7701 16.1445 16.4707C15.9443 16.1394 15.6664 16 15.4248 16C15.052 16.0001 14.5 16.4077 14.5 17.2432C14.5 18.0348 14.9113 18.8829 15.5527 19.6377C16.0386 20.2094 16.5825 20.6391 17 20.8857C17.4175 20.6391 17.9614 20.2094 18.4473 19.6377C19.0887 18.8829 19.5 18.0348 19.5 17.2432C19.5 16.4077 18.948 16.0001 18.5752 16ZM16 6H17.7549L16 4.0498V6Z" fill="#9E9E9E"/>
</g>
</svg>
