<svg width="24" height="24" viewBox="0 0 24 24" fill="none" xmlns="http://www.w3.org/2000/svg">
<g id="icons/Office/file-gif">
<path id="Union" d="M15.0986 1.00488C15.3276 1.02757 15.5429 1.12883 15.707 1.29297L20.707 6.29297C20.8946 6.4805 21 6.73478 21 7V21C21 22.1046 20.1046 23 19 23H5C3.89544 23 3 22.1046 3 21V3C3 1.89543 3.89543 1 5 1H15L15.0986 1.00488ZM5 21H19V7.41406L14.5859 3H5V21ZM15.6064 8.00488C16.1107 8.0561 16.5039 8.48224 16.5039 9C16.5039 9.51776 16.1107 9.9439 15.6064 9.99512L15.5039 10H9.5V16H14.5039V14.5039H13C12.4477 14.5039 12 14.0562 12 13.5039C12.0001 12.9517 12.4478 12.5039 13 12.5039H15.5039C16.0561 12.5039 16.5038 12.9517 16.5039 13.5039V17C16.5039 17.5523 16.0562 18 15.5039 18H8.5C7.94772 18 7.5 17.5523 7.5 17V9C7.5 8.44772 7.94772 8 8.5 8H15.5039L15.6064 8.00488Z" fill="#9E9E9E"/>
</g>
</svg>
