<svg width="24" height="24" viewBox="0 0 24 24" fill="none" xmlns="http://www.w3.org/2000/svg">
<g id="icons/Office/file-word">
<path id="Union" d="M15.0986 1.00488C15.3276 1.02757 15.5429 1.12883 15.707 1.29297L20.707 6.29297C20.8946 6.4805 21 6.73478 21 7V21C21 22.1046 20.1046 23 19 23H5C3.89544 23 3 22.1046 3 21V3C3 1.89543 3.89543 1 5 1H15L15.0986 1.00488ZM5 21H19V7.41406L14.5859 3H5V21ZM15.0264 9.79004C15.1423 9.25028 15.674 8.90677 16.2139 9.02246C16.7536 9.13839 17.0971 9.67009 16.9814 10.21L15.4814 17.21C15.3923 17.625 15.051 17.9387 14.6299 17.9922C14.2086 18.0457 13.7993 17.8271 13.6094 17.4473L12.0039 14.2363L10.3984 17.4473C10.2085 17.8271 9.79924 18.0457 9.37793 17.9922C8.95679 17.9387 8.61551 17.625 8.52637 17.21L7.02637 10.21C6.91068 9.67009 7.25419 9.13839 7.79395 9.02246C8.33382 8.90677 8.86552 9.25028 8.98145 9.79004L9.88379 14.0029L11.1094 11.5527C11.2788 11.214 11.6251 11 12.0039 11C12.3827 11 12.729 11.214 12.8984 11.5527L14.123 14.0029L15.0264 9.79004Z" fill="#9E9E9E"/>
</g>
</svg>
