<svg width="24" height="24" viewBox="0 0 24 24" fill="none" xmlns="http://www.w3.org/2000/svg">
<g id="icons/Office/file-withdrawal">
<path id="Union" d="M15 1C15.0563 1 15.1113 1.00571 15.165 1.01465C15.1738 1.01611 15.1827 1.01686 15.1914 1.01855L15.2012 1.02051C15.211 1.02252 15.2207 1.02504 15.2305 1.02734C15.251 1.0322 15.2717 1.0368 15.292 1.04297C15.3408 1.05783 15.3873 1.0778 15.4326 1.09961C15.4466 1.10634 15.4609 1.11269 15.4746 1.12012C15.5374 1.15407 15.5956 1.19511 15.6494 1.24121C15.6689 1.2579 15.6886 1.27454 15.707 1.29297L20.707 6.29297C20.7548 6.34078 20.7976 6.39354 20.835 6.4502C20.8597 6.48768 20.8812 6.52662 20.9004 6.56641C20.9222 6.61159 20.9412 6.65838 20.9561 6.70703C20.9623 6.72732 20.9668 6.74799 20.9717 6.76855C20.9893 6.84294 21 6.92022 21 7V21C21 22.1046 20.1046 23 19 23H5C3.89544 23 3 22.1046 3 21V3C3 1.89543 3.89543 1 5 1H15ZM5 21H19V8H15C14.4477 8 14 7.55228 14 7V3H5V21ZM16 10C16.5523 10 17 10.4477 17 11V15C17 15.5523 16.5523 16 16 16H10.4141L11.207 16.793C11.5976 17.1835 11.5976 17.8165 11.207 18.207C10.8165 18.5976 10.1835 18.5976 9.79297 18.207L7.29297 15.707C7.26536 15.6794 7.2405 15.65 7.2168 15.6201C7.18065 15.5745 7.14798 15.5261 7.12012 15.4746C7.11269 15.4609 7.10635 15.4466 7.09961 15.4326C7.0778 15.3873 7.05783 15.3408 7.04297 15.292C7.0303 15.2503 7.02176 15.2077 7.01465 15.165C7.00571 15.1113 7 15.0563 7 15C7 14.9203 7.00973 14.8429 7.02734 14.7686C7.03221 14.748 7.03678 14.7273 7.04297 14.707C7.05787 14.6583 7.07777 14.6117 7.09961 14.5664C7.11877 14.5266 7.1403 14.4877 7.16504 14.4502C7.20242 14.3935 7.24516 14.3408 7.29297 14.293L9.79297 11.793C10.1835 11.4024 10.8165 11.4024 11.207 11.793C11.5976 12.1835 11.5976 12.8165 11.207 13.207L10.4141 14H15V11C15 10.4477 15.4477 10 16 10ZM16 6H17.5859L16 4.41406V6Z" fill="#9E9E9E"/>
</g>
</svg>
