<svg width="24" height="24" viewBox="0 0 24 24" fill="none" xmlns="http://www.w3.org/2000/svg">
<g id="icons/Office/file-doc">
<path id="Union" d="M15 1C15.3038 1 15.5915 1.13778 15.7812 1.375L19.7812 6.375C19.7856 6.38049 19.7887 6.387 19.793 6.39258C19.8201 6.42795 19.8449 6.46503 19.8672 6.50391C19.8704 6.50949 19.8739 6.51487 19.877 6.52051C19.9279 6.61349 19.9641 6.71528 19.9834 6.82324C19.9844 6.82904 19.9844 6.835 19.9854 6.84082C19.9937 6.89276 20 6.94571 20 7V9H21C22.1046 9 23 9.89543 23 11V18C23 19.1046 22.1046 20 21 20H20V22C20 22.5523 19.5523 23 19 23H5C4.44772 23 4 22.5523 4 22V20H3C1.89543 20 1 19.1046 1 18V11C1 9.89543 1.89543 9 3 9H4V2C4 1.44772 4.44772 1 5 1H15ZM6 21H18V20H6V21ZM3 18H21V11H3V18ZM6 11.5C7.65683 11.5 9 12.8432 9 14.5C9 16.1568 7.65683 17.5 6 17.5H5C4.44772 17.5 4 17.0523 4 16.5V12.5C4 11.9477 4.44772 11.5 5 11.5H6ZM12 11.5C12.7993 11.5 13.4468 11.9342 13.8604 12.4854C14.2736 13.0364 14.5 13.7523 14.5 14.5C14.5 15.2477 14.2736 15.9636 13.8604 16.5146C13.4468 17.0658 12.7993 17.5 12 17.5C11.2007 17.5 10.5532 17.0658 10.1396 16.5146C9.72636 15.9636 9.5 15.2477 9.5 14.5C9.5 13.7523 9.72636 13.0364 10.1396 12.4854C10.5532 11.9342 11.2007 11.5 12 11.5ZM19 11.5C19.5523 11.5 20 11.9477 20 12.5C20 13.0523 19.5523 13.5 19 13.5H18C17.4477 13.5 17 13.9477 17 14.5C17 15.0523 17.4477 15.5 18 15.5H19C19.5523 15.5 20 15.9477 20 16.5C20 17.0523 19.5523 17.5 19 17.5H18C16.3432 17.5 15 16.1568 15 14.5C15 12.8432 16.3432 11.5 18 11.5H19ZM6 15.5C6.55227 15.5 7 15.0523 7 14.5C7 13.9477 6.55227 13.5 6 13.5V15.5ZM12 13.5C11.9711 13.5 11.8686 13.5132 11.7393 13.6855C11.6096 13.8584 11.5 14.1432 11.5 14.5C11.5 14.8568 11.6096 15.1416 11.7393 15.3145C11.8686 15.4868 11.9711 15.5 12 15.5C12.0289 15.5 12.1314 15.4868 12.2607 15.3145C12.3904 15.1416 12.5 14.8568 12.5 14.5C12.5 14.1432 12.3904 13.8584 12.2607 13.6855C12.1314 13.5132 12.0289 13.5 12 13.5ZM6 9H18V8H14C13.4477 8 13 7.55228 13 7V3H6V9ZM10 5C10.5523 5 11 5.44772 11 6C11 6.55228 10.5523 7 10 7H8C7.44772 7 7 6.55228 7 6C7 5.44772 7.44772 5 8 5H10ZM15 6H16.9189L15 3.60156V6Z" fill="#9E9E9E"/>
</g>
</svg>
