<svg width="24" height="24" viewBox="0 0 24 24" fill="none" xmlns="http://www.w3.org/2000/svg">
<g id="icons/Office/file-zip">
<path id="Union" d="M15 1C15.3038 1 15.5915 1.13778 15.7812 1.375L19.7812 6.375C19.7856 6.38049 19.7887 6.387 19.793 6.39258C19.8201 6.42795 19.8449 6.46503 19.8672 6.50391C19.8704 6.50949 19.8739 6.51487 19.877 6.52051C19.9279 6.61349 19.9641 6.71528 19.9834 6.82324C19.9844 6.82904 19.9844 6.835 19.9854 6.84082C19.9937 6.89276 20 6.94571 20 7V9H21C22.1046 9 23 9.89543 23 11V18C23 19.1046 22.1046 20 21 20H20V22C20 22.5523 19.5523 23 19 23H5C4.44772 23 4 22.5523 4 22V20H3C1.89543 20 1 19.1046 1 18V11C1 9.89543 1.89543 9 3 9H4V2C4 1.44772 4.44772 1 5 1H15ZM6 21H18V20H6V21ZM3 18H21V11H3V18ZM8.5 11.5C8.87877 11.5 9.22514 11.714 9.39453 12.0527C9.56389 12.3915 9.52696 12.7966 9.2998 13.0996L7.49902 15.5H8.5C9.05229 15.5 9.5 15.9477 9.5 16.5C9.5 17.0523 9.05229 17.5 8.5 17.5H5.5C5.12123 17.5 4.77486 17.286 4.60547 16.9473C4.43611 16.6085 4.47304 16.2034 4.7002 15.9004L6.50098 13.5H5.5C4.94772 13.5 4.5 13.0523 4.5 12.5C4.5 11.9477 4.94772 11.5 5.5 11.5H8.5ZM12 11.5C12.5523 11.5 13 11.9477 13 12.5V16.5C13 17.0523 12.5523 17.5 12 17.5C11.4477 17.5 11 17.0523 11 16.5V12.5C11 11.9477 11.4477 11.5 12 11.5ZM17.25 11.5C18.4926 11.5 19.5 12.5074 19.5 13.75C19.5 14.9926 18.4926 16 17.25 16H16.5V16.5C16.5 17.0523 16.0523 17.5 15.5 17.5C14.9477 17.5 14.5 17.0523 14.5 16.5V12.5C14.5 11.9477 14.9477 11.5 15.5 11.5H17.25ZM16.5 14H17.25C17.3881 14 17.5 13.8881 17.5 13.75C17.5 13.6119 17.3881 13.5 17.25 13.5H16.5V14ZM6 9H18V8H14C13.4477 8 13 7.55228 13 7V3H6V9ZM10 5C10.5523 5 11 5.44772 11 6C11 6.55228 10.5523 7 10 7H8C7.44772 7 7 6.55228 7 6C7 5.44772 7.44772 5 8 5H10ZM15 6H16.9189L15 3.60156V6Z" fill="#9E9E9E"/>
</g>
</svg>
