<svg width="24" height="24" viewBox="0 0 24 24" fill="none" xmlns="http://www.w3.org/2000/svg">
<g id="icons/Office/file-withdrawal-one">
<path id="Union" d="M15.6055 1.00586C15.8497 1.03176 16.0772 1.1467 16.2432 1.33105L20.7432 6.33105C20.7491 6.3376 20.7541 6.34488 20.7598 6.35156C20.7677 6.36089 20.7756 6.37027 20.7832 6.37988C20.7932 6.39247 20.8032 6.40496 20.8125 6.41797C20.8246 6.43476 20.8357 6.45218 20.8467 6.46973C20.8515 6.4774 20.8558 6.48537 20.8604 6.49316C20.8695 6.5086 20.8784 6.52408 20.8867 6.54004C20.8932 6.55259 20.8993 6.56532 20.9053 6.57812C20.9388 6.64991 20.9647 6.72583 20.9805 6.80566C20.9846 6.82665 20.9874 6.84786 20.9902 6.86914C20.9917 6.8802 20.994 6.89117 20.9951 6.90234C20.9983 6.93467 21 6.96726 21 7V11.5C21 12.0523 20.5523 12.5 20 12.5C19.4477 12.5 19 12.0523 19 11.5V8H15C14.4477 8 14 7.55228 14 7V3H5V21H11C11.5523 21 12 21.4477 12 22C12 22.5523 11.5523 23 11 23H5C3.89544 23 3 22.1046 3 21V3C3 1.89543 3.89543 1 5 1H15.5L15.6055 1.00586ZM21 14C21.5523 14 22 14.4477 22 15V19C22 19.5523 21.5523 20 21 20H15.4141L16.207 20.793C16.5976 21.1835 16.5976 21.8165 16.207 22.207C15.8165 22.5976 15.1835 22.5976 14.793 22.207L12.293 19.707C12.2654 19.6794 12.2405 19.65 12.2168 19.6201C12.1807 19.5745 12.148 19.5261 12.1201 19.4746C12.1127 19.4609 12.1063 19.4466 12.0996 19.4326C12.0778 19.3873 12.0578 19.3408 12.043 19.292C12.0303 19.2503 12.0218 19.2077 12.0146 19.165C12.0057 19.1113 12 19.0563 12 19C12 18.9203 12.0097 18.8429 12.0273 18.7686C12.0322 18.748 12.0368 18.7273 12.043 18.707C12.0579 18.6583 12.0778 18.6117 12.0996 18.5664C12.1188 18.5266 12.1403 18.4877 12.165 18.4502C12.2024 18.3935 12.2452 18.3408 12.293 18.293L14.793 15.793C15.1835 15.4024 15.8165 15.4024 16.207 15.793C16.5976 16.1835 16.5976 16.8165 16.207 17.207L15.4141 18H20V15C20 14.4477 20.4477 14 21 14ZM16 6H17.7549L16 4.0498V6Z" fill="#9E9E9E"/>
</g>
</svg>
