<svg width="24" height="24" viewBox="0 0 24 24" fill="none" xmlns="http://www.w3.org/2000/svg">
<g id="icons/Office/file-failed-one">
<path id="Union" d="M15.6055 1.00586C15.8497 1.03176 16.0772 1.1467 16.2432 1.33105L20.7432 6.33105C20.7491 6.3376 20.7541 6.34488 20.7598 6.35156C20.7677 6.36089 20.7756 6.37027 20.7832 6.37988C20.7932 6.39247 20.8032 6.40496 20.8125 6.41797C20.8246 6.43476 20.8357 6.45218 20.8467 6.46973C20.8515 6.4774 20.8558 6.48537 20.8604 6.49316C20.8695 6.5086 20.8784 6.52408 20.8867 6.54004C20.8932 6.55259 20.8993 6.56532 20.9053 6.57812C20.9388 6.64991 20.9647 6.72583 20.9805 6.80566C20.9846 6.82665 20.9874 6.84786 20.9902 6.86914C20.9917 6.8802 20.994 6.89117 20.9951 6.90234C20.9983 6.93467 21 6.96726 21 7V11.5C21 12.0523 20.5523 12.5 20 12.5C19.4477 12.5 19 12.0523 19 11.5V8H15C14.4477 8 14 7.55228 14 7V3H5V21H11C11.5523 21 12 21.4477 12 22C12 22.5523 11.5523 23 11 23H5C3.89544 23 3 22.1046 3 21V3C3 1.89543 3.89543 1 5 1H15.5L15.6055 1.00586ZM19.793 14.293C20.1835 13.9024 20.8165 13.9024 21.207 14.293C21.5976 14.6835 21.5976 15.3165 21.207 15.707L18.9141 18L21.207 20.293C21.5976 20.6835 21.5976 21.3165 21.207 21.707C20.8165 22.0976 20.1835 22.0976 19.793 21.707L17.5 19.4141L15.207 21.707C14.8165 22.0976 14.1835 22.0976 13.793 21.707C13.4024 21.3165 13.4024 20.6835 13.793 20.293L16.0859 18L13.793 15.707C13.4024 15.3165 13.4024 14.6835 13.793 14.293C14.1835 13.9024 14.8165 13.9024 15.207 14.293L17.5 16.5859L19.793 14.293ZM16 6H17.7549L16 4.0498V6Z" fill="#9E9E9E"/>
</g>
</svg>
