<svg width="24" height="24" viewBox="0 0 24 24" fill="none" xmlns="http://www.w3.org/2000/svg">
<g id="icons/Office/file-cabinet">
<path id="Union" d="M21 16C21.5523 16 22 16.4477 22 17V22C22 22.5523 21.5523 23 21 23H3C2.44772 23 2 22.5523 2 22V17C2 16.4477 2.44772 16 3 16H21ZM4 21H20V18H4V21ZM13.5 18.5C14.0523 18.5 14.5 18.9477 14.5 19.5C14.5 20.0523 14.0523 20.5 13.5 20.5H10.5C9.94772 20.5 9.5 20.0523 9.5 19.5C9.5 18.9477 9.94772 18.5 10.5 18.5H13.5ZM21 8.5C21.5523 8.5 22 8.94772 22 9.5V14.5C22 15.0523 21.5523 15.5 21 15.5H3C2.44772 15.5 2 15.0523 2 14.5V9.5C2 8.94772 2.44772 8.5 3 8.5H21ZM4 13.5H20V10.5H4V13.5ZM13.5 11C14.0523 11 14.5 11.4477 14.5 12C14.5 12.5523 14.0523 13 13.5 13H10.5C9.94772 13 9.5 12.5523 9.5 12C9.5 11.4477 9.94772 11 10.5 11H13.5ZM21 1C21.5523 1 22 1.44772 22 2V7C22 7.55228 21.5523 8 21 8H3C2.44772 8 2 7.55228 2 7V2C2 1.44772 2.44772 1 3 1H21ZM4 6H20V3H4V6ZM13.5 3.5C14.0523 3.5 14.5 3.94772 14.5 4.5C14.5 5.05228 14.0523 5.5 13.5 5.5H10.5C9.94772 5.5 9.5 5.05228 9.5 4.5C9.5 3.94772 9.94772 3.5 10.5 3.5H13.5Z" fill="#9E9E9E"/>
</g>
</svg>
