<svg width="24" height="24" viewBox="0 0 24 24" fill="none" xmlns="http://www.w3.org/2000/svg">
<g id="icons/Office/file-protection-one">
<path id="Union" d="M15.6055 1.00586C15.8497 1.03176 16.0772 1.1467 16.2432 1.33105L20.7432 6.33105C20.7491 6.3376 20.7541 6.34488 20.7598 6.35156C20.7677 6.36089 20.7756 6.37027 20.7832 6.37988C20.7932 6.39247 20.8032 6.40496 20.8125 6.41797C20.8246 6.43476 20.8357 6.45218 20.8467 6.46973C20.8515 6.4774 20.8558 6.48537 20.8604 6.49316C20.8695 6.5086 20.8784 6.52408 20.8867 6.54004C20.8932 6.55259 20.8993 6.56532 20.9053 6.57812C20.9388 6.64991 20.9647 6.72583 20.9805 6.80566C20.9846 6.82665 20.9874 6.84786 20.9902 6.86914C20.9917 6.8802 20.994 6.89117 20.9951 6.90234C20.9983 6.93467 21 6.96726 21 7V11.5C21 12.0523 20.5523 12.5 20 12.5C19.4477 12.5 19 12.0523 19 11.5V8H15C14.4477 8 14 7.55228 14 7V3H5V21H11C11.5523 21 12 21.4477 12 22C12 22.5523 11.5523 23 11 23H5C3.89544 23 3 22.1046 3 21V3C3 1.89543 3.89543 1 5 1H15.5L15.6055 1.00586ZM16.708 13.043C16.898 12.9851 17.102 12.9851 17.292 13.043V13.0439H17.293L17.2949 13.0449C17.2969 13.0455 17.3001 13.0458 17.3037 13.0469C17.311 13.0491 17.3215 13.0525 17.335 13.0566C17.3621 13.0651 17.4017 13.0772 17.4512 13.0928C17.5504 13.1241 17.6915 13.1698 17.8604 13.2256C18.1967 13.3366 18.65 13.4912 19.1064 13.665C19.5552 13.836 20.0394 14.0372 20.4238 14.2422C20.6113 14.3422 20.8185 14.4657 20.9922 14.6113C21.079 14.6841 21.1884 14.7886 21.2832 14.9258C21.3753 15.0591 21.4999 15.2917 21.5 15.5996C21.5 18.0247 20.5014 19.8419 19.5234 21.0342C19.0351 21.6295 18.5468 22.076 18.1777 22.376C17.9927 22.5264 17.8356 22.6414 17.7217 22.7207C17.6648 22.7603 17.6181 22.7913 17.584 22.8135L17.5293 22.8486C17.5276 22.8497 17.5258 22.8507 17.5244 22.8516L17.5225 22.8525L17.5215 22.8535C17.5211 22.8538 17.5205 22.8539 17 22L17.5205 22.8535C17.2009 23.0483 16.7991 23.0483 16.4795 22.8535L17 22C16.4795 22.8539 16.4789 22.8538 16.4785 22.8535L16.4775 22.8525L16.4756 22.8516C16.4742 22.8507 16.4724 22.8497 16.4707 22.8486L16.416 22.8135C16.3819 22.7913 16.3352 22.7603 16.2783 22.7207C16.1644 22.6414 16.0073 22.5264 15.8223 22.376C15.4532 22.076 14.9649 21.6295 14.4766 21.0342C13.4986 19.8419 12.5 18.0247 12.5 15.5996C12.5001 15.2917 12.6247 15.0591 12.7168 14.9258C12.8116 14.7886 12.921 14.6841 13.0078 14.6113C13.1815 14.4657 13.3887 14.3422 13.5762 14.2422C13.9606 14.0372 14.4448 13.836 14.8936 13.665C15.35 13.4912 15.8033 13.3366 16.1396 13.2256C16.3085 13.1698 16.4496 13.1241 16.5488 13.0928C16.5983 13.0772 16.6379 13.0651 16.665 13.0566C16.6785 13.0525 16.689 13.0491 16.6963 13.0469C16.6999 13.0458 16.7031 13.0455 16.7051 13.0449L16.707 13.0439H16.708V13.043ZM16.7666 15.125C16.4469 15.2306 16.0248 15.3748 15.6064 15.5342C15.1803 15.6965 14.7893 15.8629 14.5176 16.0078C14.5164 16.0084 14.5148 16.0082 14.5137 16.0088C14.6146 17.6475 15.3097 18.8955 16.0234 19.7656C16.373 20.1918 16.7239 20.5201 17 20.752C17.2761 20.5201 17.627 20.1918 17.9766 19.7656C18.6903 18.8955 19.3844 17.6475 19.4854 16.0088C19.4845 16.0083 19.4833 16.0083 19.4824 16.0078C19.2107 15.8629 18.8197 15.6965 18.3936 15.5342C17.9752 15.3748 17.5531 15.2306 17.2334 15.125C17.147 15.0965 17.0684 15.0708 17 15.0488C16.9316 15.0708 16.853 15.0965 16.7666 15.125ZM16 6H17.7549L16 4.0498V6Z" fill="#9E9E9E"/>
</g>
</svg>
