<svg width="24" height="24" viewBox="0 0 24 24" fill="none" xmlns="http://www.w3.org/2000/svg">
<g id="icons/Office/file-conversion-one">
<path id="Union" d="M15.6055 1.00586C15.8497 1.03176 16.0772 1.1467 16.2432 1.33105L20.7432 6.33105C20.7491 6.3376 20.7541 6.34488 20.7598 6.35156C20.7677 6.36089 20.7756 6.37027 20.7832 6.37988C20.7932 6.39247 20.8032 6.40496 20.8125 6.41797C20.8246 6.43476 20.8357 6.45218 20.8467 6.46973C20.8515 6.4774 20.8558 6.48537 20.8604 6.49316C20.8695 6.5086 20.8784 6.52408 20.8867 6.54004C20.8932 6.55259 20.8993 6.56532 20.9053 6.57812C20.9388 6.64991 20.9647 6.72583 20.9805 6.80566C20.9846 6.82665 20.9874 6.84786 20.9902 6.86914C20.9917 6.8802 20.994 6.89117 20.9951 6.90234C20.9983 6.93467 21 6.96726 21 7V11.5C21 12.0523 20.5523 12.5 20 12.5C19.4477 12.5 19 12.0523 19 11.5V8H15C14.4477 8 14 7.55228 14 7V3H5V21H11C11.5523 21 12 21.4477 12 22C12 22.5523 11.5523 23 11 23H5C3.89544 23 3 22.1046 3 21V3C3 1.89543 3.89543 1 5 1H15.5L15.6055 1.00586ZM20.5 18.5C21.0523 18.5 21.5 18.9477 21.5 19.5C21.5 20.0523 21.0523 20.5 20.5 20.5H15.9141L16.707 21.293C17.0976 21.6835 17.0976 22.3165 16.707 22.707C16.3165 23.0976 15.6835 23.0976 15.293 22.707L12.793 20.207C12.7654 20.1794 12.7405 20.15 12.7168 20.1201C12.6807 20.0745 12.648 20.0261 12.6201 19.9746C12.6127 19.9609 12.6063 19.9466 12.5996 19.9326C12.5778 19.8873 12.5578 19.8408 12.543 19.792C12.5303 19.7503 12.5218 19.7077 12.5146 19.665C12.5057 19.6113 12.5 19.5563 12.5 19.5C12.5 19.4203 12.5097 19.3429 12.5273 19.2686C12.5322 19.248 12.5368 19.2273 12.543 19.207C12.5579 19.1583 12.5778 19.1117 12.5996 19.0664C12.6188 19.0266 12.6403 18.9877 12.665 18.9502C12.7557 18.8128 12.879 18.6989 13.0244 18.6201C13.0382 18.6127 13.0524 18.6064 13.0664 18.5996C13.1117 18.5778 13.1583 18.5579 13.207 18.543C13.2273 18.5368 13.248 18.5322 13.2686 18.5273C13.2799 18.5247 13.2912 18.5218 13.3027 18.5195C13.3047 18.5191 13.3067 18.5189 13.3086 18.5186L13.3975 18.5049C13.4312 18.5015 13.4654 18.5 13.5 18.5H20.5ZM17.293 13.293C17.6835 12.9024 18.3165 12.9024 18.707 13.293L21.207 15.793C21.2548 15.8408 21.2976 15.8935 21.335 15.9502C21.3597 15.9877 21.3812 16.0266 21.4004 16.0664C21.4222 16.1116 21.4412 16.1584 21.4561 16.207C21.4623 16.2273 21.4668 16.248 21.4717 16.2686C21.4893 16.3429 21.5 16.4202 21.5 16.5C21.5 16.5563 21.4933 16.6112 21.4844 16.665C21.4772 16.7078 21.4688 16.7503 21.4561 16.792C21.4412 16.8407 21.4222 16.8874 21.4004 16.9326C21.3936 16.9468 21.3864 16.9607 21.3789 16.9746C21.3002 17.1201 21.1873 17.2442 21.0498 17.335C21.0121 17.3599 20.9727 17.3811 20.9326 17.4004C20.8874 17.4222 20.8407 17.4412 20.792 17.4561C20.7717 17.4622 20.751 17.4668 20.7305 17.4717C20.7191 17.4744 20.7078 17.4772 20.6963 17.4795C20.6859 17.4816 20.6754 17.4826 20.665 17.4844C20.6112 17.4933 20.5563 17.5 20.5 17.5H13.5C12.9477 17.5 12.5 17.0523 12.5 16.5C12.5 15.9477 12.9477 15.5 13.5 15.5H18.0859L17.293 14.707C16.9024 14.3165 16.9024 13.6835 17.293 13.293ZM16 6H17.7549L16 4.0498V6Z" fill="#9E9E9E"/>
</g>
</svg>
