<svg width="24" height="24" viewBox="0 0 24 24" fill="none" xmlns="http://www.w3.org/2000/svg">
<g id="icons/Office/find-one">
<path id="Union" d="M12 1C18.0751 1 23 5.92487 23 12C23 18.0751 18.0751 23 12 23C9.02271 23 6.31942 21.8164 4.33984 19.8955C2.28117 17.8976 1 15.097 1 12C1 9.04835 2.16388 6.36643 4.05566 4.3916C4.12094 4.32346 4.19397 4.26727 4.27148 4.22168C4.36958 4.16409 4.47509 4.1239 4.58398 4.10254C4.78034 4.06393 4.98603 4.08474 5.17285 4.16504C5.20216 4.17764 5.23054 4.19246 5.25879 4.20801C5.33364 4.24918 5.40511 4.29943 5.46973 4.36133C5.47289 4.36436 5.4754 4.36803 5.47852 4.37109L12.6914 11.2783C12.8836 11.4625 12.9941 11.7163 12.999 11.9824C13.0037 12.2485 12.9021 12.5063 12.7168 12.6973L9.96875 15.5283C10.5436 15.8284 11.2004 16 11.9004 16C14.1833 15.9998 16 14.1904 16 12C16 9.80958 14.1833 8.00021 11.9004 8C11.3481 8 10.9004 7.55228 10.9004 7C10.9004 6.44772 11.3481 6 11.9004 6C15.2504 6.00021 18 8.66787 18 12C18 15.3321 15.2504 17.9998 11.9004 18C10.6594 18 9.50255 17.6335 8.53711 17.0049L6.49023 19.1143C8.01339 20.2958 9.92339 21 12 21C16.9706 21 21 16.9706 21 12C21 7.02943 16.9706 3 12 3C11.4477 3 11 2.55228 11 2C11 1.44772 11.4477 1 12 1ZM4.84863 6.53711C3.68904 8.05236 3 9.94467 3 12C3 14.174 3.77114 16.1657 5.05469 17.7217L10.5811 12.0264L4.84863 6.53711Z" fill="#9E9E9E"/>
</g>
</svg>
