<svg width="24" height="24" viewBox="0 0 24 24" fill="none" xmlns="http://www.w3.org/2000/svg">
<g id="icons/Office/folder-code">
<path id="Union" d="M9.61035 2.00586C9.86564 2.03418 10.1023 2.15991 10.2686 2.35938L12.4688 5H20.5C21.6046 5 22.5 5.89542 22.5 7V20C22.5 21.1046 21.6046 22 20.5 22H3.5C2.39544 22 1.5 21.1046 1.5 20V4C1.5 2.89543 2.39543 2 3.5 2H9.5L9.61035 2.00586ZM3.5 20H20.5V7H12C11.7033 7 11.4214 6.86856 11.2314 6.64062L9.03125 4H3.5V20ZM9.29297 10.293C9.68349 9.90244 10.3165 9.90244 10.707 10.293C11.0976 10.6835 11.0976 11.3165 10.707 11.707L8.91406 13.5L10.707 15.293C11.0976 15.6835 11.0976 16.3165 10.707 16.707C10.3165 17.0976 9.68349 17.0976 9.29297 16.707L6.79297 14.207C6.40244 13.8165 6.40244 13.1835 6.79297 12.793L9.29297 10.293ZM13.293 10.293C13.6835 9.90244 14.3165 9.90244 14.707 10.293L17.207 12.793C17.5976 13.1835 17.5976 13.8165 17.207 14.207L14.707 16.707C14.3165 17.0976 13.6835 17.0976 13.293 16.707C12.9024 16.3165 12.9024 15.6835 13.293 15.293L15.0859 13.5L13.293 11.707C12.9024 11.3165 12.9024 10.6835 13.293 10.293Z" fill="#9E9E9E"/>
</g>
</svg>
