<svg width="24" height="24" viewBox="0 0 24 24" fill="none" xmlns="http://www.w3.org/2000/svg">
<g id="icons/Office/folder-code-one">
<path id="Union" d="M9.61035 2.00586C9.86564 2.03418 10.1023 2.15991 10.2686 2.35938L12.4688 5H20.5C21.6046 5 22.5 5.89542 22.5 7V11.5C22.5 12.0523 22.0523 12.5 21.5 12.5C20.9477 12.5 20.5 12.0523 20.5 11.5V7H12C11.7033 7 11.4214 6.86856 11.2314 6.64062L9.03125 4H3.5V20H11C11.5523 20 12 20.4477 12 21C12 21.5523 11.5523 22 11 22H3.5C2.39544 22 1.5 21.1046 1.5 20V4C1.5 2.89543 2.39543 2 3.5 2H9.5L9.61035 2.00586ZM14.293 13.793C14.6835 13.4024 15.3165 13.4024 15.707 13.793C16.0976 14.1835 16.0976 14.8165 15.707 15.207L13.9141 17L15.707 18.793C16.0976 19.1835 16.0976 19.8165 15.707 20.207C15.3165 20.5976 14.6835 20.5976 14.293 20.207L11.793 17.707C11.4024 17.3165 11.4024 16.6835 11.793 16.293L14.293 13.793ZM18.293 13.793C18.6835 13.4024 19.3165 13.4024 19.707 13.793L22.207 16.293C22.5976 16.6835 22.5976 17.3165 22.207 17.707L19.707 20.207C19.3165 20.5976 18.6835 20.5976 18.293 20.207C17.9024 19.8165 17.9024 19.1835 18.293 18.793L20.0859 17L18.293 15.207C17.9024 14.8165 17.9024 14.1835 18.293 13.793Z" fill="#9E9E9E"/>
</g>
</svg>
