<svg width="24" height="24" viewBox="0 0 24 24" fill="none" xmlns="http://www.w3.org/2000/svg">
<g id="icons/Office/folder-lock-one">
<path id="Union" d="M9.61035 2.00586C9.86564 2.03418 10.1023 2.15991 10.2686 2.35938L12.4688 5H20.5C21.6046 5 22.5 5.89542 22.5 7V11.5C22.5 12.0523 22.0523 12.5 21.5 12.5C20.9477 12.5 20.5 12.0523 20.5 11.5V7H12C11.7033 7 11.4214 6.86856 11.2314 6.64062L9.03125 4H3.5V20H11C11.5523 20 12 20.4477 12 21C12 21.5523 11.5523 22 11 22H3.5C2.39544 22 1.5 21.1046 1.5 20V4C1.5 2.89543 2.39543 2 3.5 2H9.5L9.61035 2.00586ZM18 13C19.3807 13 20.5 14.1193 20.5 15.5V16H21.5C22.0523 16 22.5 16.4477 22.5 17V21C22.5 21.5523 22.0523 22 21.5 22H14.5C13.9477 22 13.5 21.5523 13.5 21V17C13.5 16.4477 13.9477 16 14.5 16H15.5V15.5C15.5 14.1193 16.6193 13 18 13ZM15.5 20H20.5V18H15.5V20ZM18 15C17.7238 15 17.5 15.2238 17.5 15.5V16H18.5V15.5C18.5 15.2238 18.2762 15 18 15Z" fill="#9E9E9E"/>
</g>
</svg>
