<svg width="24" height="24" viewBox="0 0 24 24" fill="none" xmlns="http://www.w3.org/2000/svg">
<g id="icons/Office/folder-minus">
<path id="Union" d="M9.61035 2.50586C9.86564 2.53418 10.1023 2.65991 10.2686 2.85938L12.4688 5.5H20.5C21.6046 5.5 22.5 6.39542 22.5 7.5V20.5C22.5 21.6046 21.6046 22.5 20.5 22.5H3.5C2.39544 22.5 1.5 21.6046 1.5 20.5V4.5C1.5 3.39543 2.39543 2.5 3.5 2.5H9.5L9.61035 2.50586ZM3.5 20.5H20.5V7.5H12C11.7033 7.5 11.4214 7.36856 11.2314 7.14062L9.03125 4.5H3.5V20.5ZM14.9746 13C15.5269 13 15.9746 13.4477 15.9746 14C15.9746 14.5523 15.5269 15 14.9746 15H8.97461C8.42244 14.9999 7.97461 14.5522 7.97461 14C7.97461 13.4478 8.42244 13.0001 8.97461 13H14.9746Z" fill="#9E9E9E"/>
</g>
</svg>
