<svg width="24" height="24" viewBox="0 0 24 24" fill="none" xmlns="http://www.w3.org/2000/svg">
<g id="icons/Office/folder-settings">
<path id="Union" d="M9.61035 2.00586C9.86564 2.03418 10.1023 2.15991 10.2686 2.35938L12.4688 5H20.5C21.6046 5 22.5 5.89542 22.5 7V20C22.5 21.1046 21.6046 22 20.5 22H3.5C2.39544 22 1.5 21.1046 1.5 20V4C1.5 2.89543 2.39543 2 3.5 2H9.5L9.61035 2.00586ZM3.5 20H20.5V7H12C11.7033 7 11.4214 6.86856 11.2314 6.64062L9.03125 4H3.5V20ZM12 9.5C12.5523 9.5 13 9.94772 13 10.5V11.1738C13.079 11.2018 13.1566 11.2324 13.2324 11.2666L13.707 10.793C14.0975 10.4025 14.7306 10.4025 15.1211 10.793C15.5116 11.1835 15.5116 11.8165 15.1211 12.207L14.6768 12.6504C14.7337 12.7631 14.7836 12.8796 14.8262 13H15.5C16.0523 13 16.5 13.4477 16.5 14C16.5 14.5523 16.0523 15 15.5 15H14.8262C14.791 15.0995 14.7492 15.1956 14.7041 15.29L15.2676 15.8535C15.6581 16.244 15.6581 16.8771 15.2676 17.2676C14.8771 17.6581 14.244 17.6581 13.8535 17.2676L13.29 16.7041C13.1957 16.7492 13.0994 16.79 13 16.8252V17.5C13 18.0523 12.5523 18.5 12 18.5C11.4477 18.5 11 18.0523 11 17.5V16.8252C10.8798 16.7826 10.763 16.7337 10.6504 16.6768L10.0605 17.2676C9.67002 17.6581 9.03701 17.6581 8.64648 17.2676C8.25601 16.877 8.25598 16.244 8.64648 15.8535L9.2666 15.2324C9.23235 15.1566 9.2018 15.079 9.17383 15H8.5C7.94772 15 7.5 14.5523 7.5 14C7.5 13.4477 7.94772 13 8.5 13H9.17383C9.2091 12.9003 9.24973 12.8035 9.29492 12.709L8.79297 12.207C8.40244 11.8165 8.40244 11.1835 8.79297 10.793C9.18349 10.4024 9.81651 10.4024 10.207 10.793L10.709 11.2949C10.8035 11.2497 10.9003 11.2091 11 11.1738V10.5C11 9.94772 11.4477 9.5 12 9.5ZM12 13C11.4477 13 11 13.4477 11 14C11 14.5523 11.4477 15 12 15C12.5523 15 13 14.5523 13 14C13 13.7659 12.9189 13.5512 12.7842 13.3809C12.7361 13.3474 12.6894 13.3105 12.6465 13.2676C12.6177 13.2388 12.5919 13.208 12.5674 13.1768C12.4061 13.0654 12.2108 13 12 13Z" fill="#9E9E9E"/>
</g>
</svg>
