<svg width="24" height="24" viewBox="0 0 24 24" fill="none" xmlns="http://www.w3.org/2000/svg">
<g id="icons/Office/folder-music">
<path id="Union" d="M9.61035 2.00586C9.86564 2.03418 10.1023 2.15991 10.2686 2.35938L12.4688 5H20.5C21.6046 5 22.5 5.89542 22.5 7V20C22.5 21.1046 21.6046 22 20.5 22H3.5C2.39544 22 1.5 21.1046 1.5 20V4C1.5 2.89543 2.39543 2 3.5 2H9.5L9.61035 2.00586ZM3.5 20H20.5V7H12C11.7033 7 11.4214 6.86856 11.2314 6.64062L9.03125 4H3.5V20ZM14.7646 9.02832C15.3014 8.89832 15.8417 9.22789 15.9717 9.76465C16.1017 10.3014 15.7721 10.8417 15.2354 10.9717L14 11.2705V15.25C14 15.3648 13.979 15.4745 13.9434 15.5771C13.6742 16.9578 12.4594 18 11 18C9.34315 18 8 16.6569 8 15C8 13.3431 9.34315 12 11 12C11.351 12 11.6869 12.0631 12 12.1738V10.4844L12.0146 10.3145C12.0813 9.92691 12.3721 9.60776 12.7646 9.5127L14.7646 9.02832ZM11 14C10.4477 14 10 14.4477 10 15C10 15.5523 10.4477 16 11 16C11.5523 16 12 15.5523 12 15C12 14.4477 11.5523 14 11 14Z" fill="#9E9E9E"/>
</g>
</svg>
