<svg width="24" height="24" viewBox="0 0 24 24" fill="none" xmlns="http://www.w3.org/2000/svg">
<g id="icons/Office/folder-failed">
<path id="Union" d="M9.61035 2.00586C9.86564 2.03418 10.1023 2.15991 10.2686 2.35938L12.4688 5H20.5C21.6046 5 22.5 5.89542 22.5 7V20C22.5 21.1046 21.6046 22 20.5 22H3.5C2.39544 22 1.5 21.1046 1.5 20V4C1.5 2.89543 2.39543 2 3.5 2H9.5L9.61035 2.00586ZM3.5 20H20.5V7H12C11.7033 7 11.4214 6.86856 11.2314 6.64062L9.03125 4H3.5V20ZM13.793 10.293C14.1835 9.90244 14.8165 9.90244 15.207 10.293C15.5976 10.6835 15.5976 11.3165 15.207 11.707L13.4141 13.5L15.207 15.293C15.5976 15.6835 15.5976 16.3165 15.207 16.707C14.8165 17.0976 14.1835 17.0976 13.793 16.707L12 14.9141L10.207 16.707C9.81651 17.0976 9.18349 17.0976 8.79297 16.707C8.40244 16.3165 8.40244 15.6835 8.79297 15.293L10.5859 13.5L8.79297 11.707C8.40244 11.3165 8.40244 10.6835 8.79297 10.293C9.18349 9.90244 9.81651 9.90244 10.207 10.293L12 12.0859L13.793 10.293Z" fill="#9E9E9E"/>
</g>
</svg>
