<svg width="24" height="24" viewBox="0 0 24 24" fill="none" xmlns="http://www.w3.org/2000/svg">
<g id="icons/Office/folder-quality-one">
<path id="Union" d="M9.61035 2.00586C9.86564 2.03418 10.1023 2.15991 10.2686 2.35938L12.4688 5H20.5C21.6046 5 22.5 5.89542 22.5 7V11.5C22.5 12.0523 22.0523 12.5 21.5 12.5C20.9477 12.5 20.5 12.0523 20.5 11.5V7H12C11.7033 7 11.4214 6.86856 11.2314 6.64062L9.03125 4H3.5V20H11C11.5523 20 12 20.4477 12 21C12 21.5523 11.5523 22 11 22H3.5C2.39544 22 1.5 21.1046 1.5 20V4C1.5 2.89543 2.39543 2 3.5 2H9.5L9.61035 2.00586ZM19.0996 13.5C19.4048 13.5 19.6941 13.6398 19.8838 13.8789L21.2832 15.6436C21.5765 16.0134 21.5712 16.5375 21.2705 16.9014L17.7705 21.1367C17.5805 21.3666 17.2982 21.5 17 21.5C16.7018 21.5 16.4195 21.3666 16.2295 21.1367L12.7295 16.9014C12.4288 16.5375 12.4235 16.0134 12.7168 15.6436L14.1162 13.8789C14.3059 13.6398 14.5952 13.5 14.9004 13.5H19.0996ZM14.7861 16.251L17 18.9307L19.2129 16.251L18.6172 15.5H15.3828L14.7861 16.251Z" fill="#9E9E9E"/>
</g>
</svg>
