<svg width="24" height="24" viewBox="0 0 24 24" fill="none" xmlns="http://www.w3.org/2000/svg">
<g id="icons/Office/folder">
<path id="Union" d="M19.5 1C20.6046 1 21.5 1.89544 21.5 3V21C21.5 22.1046 20.6046 23 19.5 23H4.5C3.39544 23 2.5 22.1046 2.5 21V3C2.5 1.89543 3.39543 1 4.5 1H19.5ZM19.5 5.77734C19.3726 5.96804 19.2369 6.16205 19.0898 6.35547C18.166 7.57062 16.8199 8.82013 14.959 9.49414C14.7233 10.9158 13.4885 12 12 12C10.5114 12 9.27563 10.9159 9.04004 9.49414C7.17962 8.82006 5.83382 7.57043 4.91016 6.35547C4.76313 6.16205 4.62737 5.96804 4.5 5.77734V21H19.5V5.77734ZM13 16.5C13.5523 16.5 14 16.9477 14 17.5C14 18.0523 13.5523 18.5 13 18.5H8C7.44772 18.5 7 18.0523 7 17.5C7 16.9477 7.44772 16.5 8 16.5H13ZM10 13.5C10.5523 13.5 11 13.9477 11 14.5C11 15.0523 10.5523 15.5 10 15.5H8C7.44772 15.5 7 15.0523 7 14.5C7 13.9477 7.44772 13.5 8 13.5H10ZM5.30273 3.1084C5.55247 3.66772 5.94264 4.40873 6.50195 5.14453C7.20216 6.06564 8.14766 6.95524 9.41016 7.49023C9.93044 6.59967 10.8942 6 12 6C13.1056 6 14.0685 6.59991 14.5889 7.49023C15.8518 6.95528 16.7977 6.06584 17.498 5.14453C18.0574 4.40873 18.4475 3.66772 18.6973 3.1084C18.7137 3.07162 18.728 3.03505 18.7432 3H5.25684C5.27199 3.03505 5.28631 3.07162 5.30273 3.1084Z" fill="#9E9E9E"/>
</g>
</svg>
