<svg width="24" height="24" viewBox="0 0 24 24" fill="none" xmlns="http://www.w3.org/2000/svg">
<g id="icons/Office/folder-protection-one">
<path id="Union" d="M9.61035 2.00586C9.86564 2.03418 10.1023 2.15991 10.2686 2.35938L12.4688 5H20.5C21.6046 5 22.5 5.89542 22.5 7V11.5C22.5 12.0523 22.0523 12.5 21.5 12.5C20.9477 12.5 20.5 12.0523 20.5 11.5V7H12C11.7033 7 11.4214 6.86856 11.2314 6.64062L9.03125 4H3.5V20H11C11.5523 20 12 20.4477 12 21C12 21.5523 11.5523 22 11 22H3.5C2.39544 22 1.5 21.1046 1.5 20V4C1.5 2.89543 2.39543 2 3.5 2H9.5L9.61035 2.00586ZM16.7021 13.0449C16.8955 12.9848 17.1035 12.9848 17.2969 13.0449H17.2979V13.0459H17.3008C17.3025 13.0464 17.3047 13.0479 17.3076 13.0488C17.314 13.0508 17.3232 13.0539 17.335 13.0576C17.3585 13.0651 17.3928 13.0751 17.4355 13.0889C17.5211 13.1164 17.6427 13.1561 17.7881 13.2051C18.0777 13.3027 18.4682 13.4395 18.8623 13.5928C19.2488 13.7431 19.6717 13.9224 20.0098 14.1064C20.1741 14.1959 20.3618 14.3097 20.5215 14.4463C20.6015 14.5148 20.7052 14.6146 20.7949 14.7471C20.8824 14.8764 21 15.1023 21 15.4004C20.9999 17.5525 20.131 19.1667 19.2793 20.2266C18.8543 20.7555 18.4295 21.1528 18.1074 21.4199C17.9459 21.5539 17.8082 21.6563 17.708 21.7275C17.658 21.7631 17.6173 21.7913 17.5869 21.8115C17.5717 21.8216 17.5586 21.8297 17.5488 21.8359C17.544 21.839 17.5396 21.8416 17.5361 21.8438C17.5346 21.8447 17.5335 21.8459 17.5322 21.8467L17.5303 21.8477L17.5293 21.8486C17.5289 21.8489 17.5283 21.8491 17 21L17.5283 21.8486C17.2049 22.0499 16.7951 22.0499 16.4717 21.8486L17 21C16.4717 21.8491 16.4711 21.8489 16.4707 21.8486L16.4697 21.8477L16.4678 21.8467C16.4665 21.8459 16.4654 21.8447 16.4639 21.8438C16.4604 21.8416 16.456 21.839 16.4512 21.8359C16.4414 21.8297 16.4283 21.8216 16.4131 21.8115C16.3827 21.7913 16.342 21.7631 16.292 21.7275C16.1918 21.6563 16.0541 21.5539 15.8926 21.4199C15.5705 21.1528 15.1457 20.7555 14.7207 20.2266C13.869 19.1667 13.0001 17.5525 13 15.4004C13 15.1023 13.1176 14.8764 13.2051 14.7471C13.2948 14.6146 13.3985 14.5148 13.4785 14.4463C13.6382 14.3097 13.8259 14.1959 13.9902 14.1064C14.3283 13.9224 14.7512 13.7431 15.1377 13.5928C15.5318 13.4395 15.9223 13.3027 16.2119 13.2051C16.3573 13.1561 16.4789 13.1164 16.5645 13.0889C16.6072 13.0751 16.6415 13.0651 16.665 13.0576C16.6768 13.0539 16.686 13.0508 16.6924 13.0488C16.6953 13.0479 16.6975 13.0464 16.6992 13.0459H16.7021V13.0449ZM16.8506 15.1006C16.5777 15.1926 16.2181 15.3187 15.8623 15.457C15.5348 15.5844 15.2366 15.7127 15.0166 15.8262C15.1173 17.1959 15.6907 18.2411 16.2793 18.9736C16.5325 19.2888 16.7868 19.5414 17 19.7324C17.2132 19.5414 17.4675 19.2888 17.7207 18.9736C18.3093 18.2411 18.8817 17.1958 18.9824 15.8262C18.7625 15.7128 18.4648 15.5842 18.1377 15.457C17.7819 15.3187 17.4223 15.1926 17.1494 15.1006C17.0958 15.0825 17.0458 15.0659 17 15.0508C16.9542 15.0659 16.9042 15.0825 16.8506 15.1006Z" fill="#9E9E9E"/>
</g>
</svg>
