<svg width="24" height="24" viewBox="0 0 24 24" fill="none" xmlns="http://www.w3.org/2000/svg">
<g id="icons/Office/folder-search">
<path id="Union" d="M9.61035 2.00586C9.86564 2.03418 10.1023 2.15991 10.2686 2.35938L12.4688 5H20.5C21.6046 5 22.5 5.89542 22.5 7V20C22.5 21.1046 21.6046 22 20.5 22H3.5C2.39544 22 1.5 21.1046 1.5 20V4C1.5 2.89543 2.39543 2 3.5 2H9.5L9.61035 2.00586ZM3.5 20H20.5V7H12C11.7033 7 11.4214 6.86856 11.2314 6.64062L9.03125 4H3.5V20ZM11 9C13.2091 9 15 10.7909 15 13C15 13.5838 14.8732 14.1376 14.6484 14.6377L16.625 16.2188C17.0563 16.5638 17.1263 17.1937 16.7812 17.625C16.4362 18.0563 15.8063 18.1263 15.375 17.7812L13.3984 16.2002C12.7301 16.7019 11.9001 17 11 17C8.79086 17 7 15.2091 7 13C7 10.7909 8.79086 9 11 9ZM11 11C9.89543 11 9 11.8954 9 13C9 14.1046 9.89543 15 11 15C12.1046 15 13 14.1046 13 13C13 11.8954 12.1046 11 11 11Z" fill="#9E9E9E"/>
</g>
</svg>
