<svg width="24" height="24" viewBox="0 0 24 24" fill="none" xmlns="http://www.w3.org/2000/svg">
<g id="icons/Office/folder-open">
<path id="Union" d="M9.61035 2.50586C9.86564 2.53418 10.1023 2.65991 10.2686 2.85938L12.4688 5.5H18.75C19.8546 5.5 20.75 6.39542 20.75 7.5V9.5H22C22.2996 9.5 22.5835 9.63452 22.7734 9.86621C22.9633 10.0979 23.0392 10.4026 22.9805 10.6963L20.9805 20.6963C20.8869 21.1636 20.4766 21.5 20 21.5H2C1.9938 21.5 1.98763 21.4982 1.98145 21.498C1.95969 21.4976 1.93796 21.496 1.91602 21.4941C1.9043 21.4932 1.8925 21.4936 1.88086 21.4922H1.87793C1.8458 21.4882 1.81425 21.4825 1.7832 21.4756C1.75908 21.4702 1.73549 21.4632 1.71191 21.4561C1.70539 21.4541 1.69885 21.4523 1.69238 21.4502C1.67324 21.444 1.65445 21.437 1.63574 21.4297C1.61759 21.4226 1.59963 21.4153 1.58203 21.4072C1.57012 21.4017 1.55856 21.3956 1.54688 21.3896C1.52798 21.38 1.50937 21.3701 1.49121 21.3594C1.48055 21.3531 1.46942 21.3475 1.45898 21.3408C1.43164 21.3232 1.40527 21.3043 1.37988 21.2842C1.37047 21.2767 1.36169 21.2685 1.35254 21.2607C1.33917 21.2494 1.32524 21.2386 1.3125 21.2266L1.29004 21.2041C1.28517 21.1992 1.28114 21.1935 1.27637 21.1885C1.25981 21.1711 1.24378 21.1533 1.22852 21.1348C1.22413 21.1294 1.21913 21.1246 1.21484 21.1191C1.2121 21.1157 1.20972 21.1119 1.20703 21.1084C1.12198 20.9977 1.06021 20.869 1.02734 20.7295C1.02474 20.7185 1.02274 20.7074 1.02051 20.6963C1.00779 20.6326 1 20.5671 1 20.5V4.5C1 3.39543 1.89543 2.5 3 2.5H9.5L9.61035 2.50586ZM3.28027 19.5H19.1807L20.7803 11.5H5.28027L3.28027 19.5ZM3 12.0674L3.43359 10.2656L3.48828 10.1045C3.64394 9.74276 4.0018 9.5 4.40625 9.5H18.75V7.5H12C11.7033 7.5 11.4214 7.36856 11.2314 7.14062L9.03125 4.5H3V12.0674Z" fill="#9E9E9E"/>
</g>
</svg>
