<svg width="24" height="24" viewBox="0 0 24 24" fill="none" xmlns="http://www.w3.org/2000/svg">
<g id="icons/Office/folder-failed-one">
<path id="Union" d="M9.61035 2.00586C9.86564 2.03418 10.1023 2.15991 10.2686 2.35938L12.4688 5H20.5C21.6046 5 22.5 5.89542 22.5 7V11.5C22.5 12.0523 22.0523 12.5 21.5 12.5C20.9477 12.5 20.5 12.0523 20.5 11.5V7H12C11.7033 7 11.4214 6.86856 11.2314 6.64062L9.03125 4H3.5V20H11C11.5523 20 12 20.4477 12 21C12 21.5523 11.5523 22 11 22H3.5C2.39544 22 1.5 21.1046 1.5 20V4C1.5 2.89543 2.39543 2 3.5 2H9.5L9.61035 2.00586ZM19.293 14.293C19.6835 13.9024 20.3165 13.9024 20.707 14.293C21.0976 14.6835 21.0976 15.3165 20.707 15.707L18.9141 17.5L20.707 19.293C21.0976 19.6835 21.0976 20.3165 20.707 20.707C20.3165 21.0976 19.6835 21.0976 19.293 20.707L17.5 18.9141L15.707 20.707C15.3165 21.0976 14.6835 21.0976 14.293 20.707C13.9024 20.3165 13.9024 19.6835 14.293 19.293L16.0859 17.5L14.293 15.707C13.9024 15.3165 13.9024 14.6835 14.293 14.293C14.6835 13.9024 15.3165 13.9024 15.707 14.293L17.5 16.0859L19.293 14.293Z" fill="#9E9E9E"/>
</g>
</svg>
