<svg width="24" height="24" viewBox="0 0 24 24" fill="none" xmlns="http://www.w3.org/2000/svg">
<g id="icons/Office/folder-block">
<path id="Union" d="M9.61035 2.00586C9.86564 2.03418 10.1023 2.15991 10.2686 2.35938L12.4688 5H20.5C21.6046 5 22.5 5.89542 22.5 7V20C22.5 21.1046 21.6046 22 20.5 22H3.5C2.39544 22 1.5 21.1046 1.5 20V4C1.5 2.89543 2.39543 2 3.5 2H9.5L9.61035 2.00586ZM3.5 20H20.5V7H12C11.7033 7 11.4214 6.86856 11.2314 6.64062L9.03125 4H3.5V20ZM12.5 9C14.9853 9 17 11.0147 17 13.5C17 15.9853 14.9853 18 12.5 18C10.0147 18 8 15.9853 8 13.5C8 11.0147 10.0147 9 12.5 9ZM12.5 11C11.1193 11 10 12.1193 10 13.5C10 14.8807 11.1193 16 12.5 16C13.8807 16 15 14.8807 15 13.5C15 12.1193 13.8807 11 12.5 11ZM12.793 11.793C13.1835 11.4024 13.8165 11.4024 14.207 11.793C14.5976 12.1835 14.5976 12.8165 14.207 13.207L12.207 15.207C11.8165 15.5976 11.1835 15.5976 10.793 15.207C10.4024 14.8165 10.4024 14.1835 10.793 13.793L12.793 11.793Z" fill="#9E9E9E"/>
</g>
</svg>
