<svg width="24" height="24" viewBox="0 0 24 24" fill="none" xmlns="http://www.w3.org/2000/svg">
<g id="icons/Office/folder-focus">
<path id="Union" d="M9.61035 2.00586C9.86564 2.03418 10.1023 2.15991 10.2686 2.35938L12.4688 5H20.5C21.6046 5 22.5 5.89542 22.5 7V20C22.5 21.1046 21.6046 22 20.5 22H3.5C2.39544 22 1.5 21.1046 1.5 20V4C1.5 2.89543 2.39543 2 3.5 2H9.5L9.61035 2.00586ZM3.5 20H20.5V7H12C11.7033 7 11.4214 6.86856 11.2314 6.64062L9.03125 4H3.5V20ZM12 9C12.3914 9.00017 12.7466 9.22892 12.9092 9.58496L13.7949 11.5264L15.918 11.7705C16.3068 11.8152 16.6339 12.0828 16.7549 12.4551C16.8758 12.8274 16.768 13.2363 16.4795 13.501L14.9062 14.9443L15.3311 17.0371C15.4088 17.4208 15.2552 17.8148 14.9385 18.0449C14.6218 18.275 14.2002 18.2989 13.8594 18.1064L11.999 17.0557L10.1406 18.1064C9.79971 18.299 9.37731 18.2751 9.06055 18.0449C8.74386 17.8148 8.59018 17.4208 8.66797 17.0371L9.0918 14.9443L7.51953 13.501C7.23108 13.2363 7.12323 12.8274 7.24414 12.4551C7.36509 12.0828 7.69222 11.8152 8.08105 11.7705L10.2031 11.5264L11.0898 9.58496C11.2525 9.22879 11.6085 9 12 9ZM11.7881 12.8721C11.6425 13.1908 11.3403 13.4102 10.9922 13.4502L10.4854 13.5078L10.8613 13.8525C11.1195 14.0895 11.2346 14.4446 11.165 14.7881L11.0635 15.2871L11.5078 15.0371L11.625 14.9805C11.905 14.8674 12.2242 14.8864 12.4912 15.0371L12.9346 15.2871L12.834 14.7881C12.7644 14.4446 12.8795 14.0895 13.1377 13.8525L13.5127 13.5078L13.0068 13.4502C12.6587 13.4102 12.3565 13.1908 12.2109 12.8721L11.999 12.4082L11.7881 12.8721Z" fill="#9E9E9E"/>
</g>
</svg>
