<svg width="24" height="24" viewBox="0 0 24 24" fill="none" xmlns="http://www.w3.org/2000/svg">
<g id="icons/Office/folder-settings-one">
<path id="Union" d="M9.61035 2.00586C9.86564 2.03418 10.1023 2.15991 10.2686 2.35938L12.4688 5H20.5C21.6046 5 22.5 5.89542 22.5 7V11.5C22.5 12.0523 22.0523 12.5 21.5 12.5C20.9477 12.5 20.5 12.0523 20.5 11.5V7H12C11.7033 7 11.4214 6.86856 11.2314 6.64062L9.03125 4H3.5V20H11C11.5523 20 12 20.4477 12 21C12 21.5523 11.5523 22 11 22H3.5C2.39544 22 1.5 21.1046 1.5 20V4C1.5 2.89543 2.39543 2 3.5 2H9.5L9.61035 2.00586ZM17.5 13C18.0523 13 18.5 13.4477 18.5 14V14.6738C18.579 14.7018 18.6566 14.7324 18.7324 14.7666L19.207 14.293C19.5975 13.9025 20.2306 13.9025 20.6211 14.293C21.0116 14.6835 21.0116 15.3165 20.6211 15.707L20.1768 16.1504C20.2337 16.2631 20.2836 16.3796 20.3262 16.5H21C21.5523 16.5 22 16.9477 22 17.5C22 18.0523 21.5523 18.5 21 18.5H20.3262C20.291 18.5995 20.2492 18.6956 20.2041 18.79L20.7676 19.3535C21.1581 19.744 21.1581 20.3771 20.7676 20.7676C20.3771 21.1581 19.744 21.1581 19.3535 20.7676L18.79 20.2041C18.6957 20.2492 18.5994 20.29 18.5 20.3252V21C18.5 21.5523 18.0523 22 17.5 22C16.9477 22 16.5 21.5523 16.5 21V20.3252C16.3798 20.2826 16.263 20.2337 16.1504 20.1768L15.5605 20.7676C15.17 21.1581 14.537 21.1581 14.1465 20.7676C13.756 20.3771 13.756 19.744 14.1465 19.3535L14.7666 18.7324C14.7324 18.6566 14.7018 18.579 14.6738 18.5H14C13.4477 18.5 13 18.0523 13 17.5C13 16.9477 13.4477 16.5 14 16.5H14.6738C14.7091 16.4003 14.7497 16.3035 14.7949 16.209L14.293 15.707C13.9024 15.3165 13.9024 14.6835 14.293 14.293C14.6835 13.9024 15.3165 13.9024 15.707 14.293L16.209 14.7949C16.3035 14.7497 16.4003 14.7091 16.5 14.6738V14C16.5 13.4477 16.9477 13 17.5 13ZM17.5 16.5C16.9477 16.5 16.5 16.9477 16.5 17.5C16.5 18.0523 16.9477 18.5 17.5 18.5C18.0523 18.5 18.5 18.0523 18.5 17.5C18.5 17.2659 18.4189 17.0512 18.2842 16.8809C18.2361 16.8474 18.1894 16.8105 18.1465 16.7676C18.1177 16.7388 18.0919 16.708 18.0674 16.6768C17.9061 16.5654 17.7108 16.5 17.5 16.5Z" fill="#9E9E9E"/>
</g>
</svg>
