<svg width="24" height="24" viewBox="0 0 24 24" fill="none" xmlns="http://www.w3.org/2000/svg">
<g id="icons/Office/folder-focus-one">
<path id="Union" d="M9.61035 2.00586C9.86564 2.03418 10.1023 2.15991 10.2686 2.35938L12.4688 5H20.5C21.6046 5 22.5 5.89542 22.5 7V11.5C22.5 12.0523 22.0523 12.5 21.5 12.5C20.9477 12.5 20.5 12.0523 20.5 11.5V7H12C11.7033 7 11.4214 6.86856 11.2314 6.64062L9.03125 4H3.5V20H11C11.5523 20 12 20.4477 12 21C12 21.5523 11.5523 22 11 22H3.5C2.39544 22 1.5 21.1046 1.5 20V4C1.5 2.89543 2.39543 2 3.5 2H9.5L9.61035 2.00586ZM17.5 12.5C17.8914 12.5002 18.2466 12.7289 18.4092 13.085L19.2949 15.0264L21.418 15.2705C21.8068 15.3152 22.1339 15.5828 22.2549 15.9551C22.3758 16.3274 22.268 16.7363 21.9795 17.001L20.4062 18.4443L20.8311 20.5371C20.9088 20.9208 20.7552 21.3148 20.4385 21.5449C20.1218 21.775 19.7002 21.7989 19.3594 21.6064L17.499 20.5557L15.6406 21.6064C15.2997 21.799 14.8773 21.7751 14.5605 21.5449C14.2439 21.3148 14.0902 20.9208 14.168 20.5371L14.5918 18.4443L13.0195 17.001C12.7311 16.7363 12.6232 16.3274 12.7441 15.9551C12.8651 15.5828 13.1922 15.3152 13.5811 15.2705L15.7031 15.0264L16.5898 13.085C16.7525 12.7288 17.1085 12.5 17.5 12.5ZM17.2881 16.3721C17.1425 16.6908 16.8403 16.9102 16.4922 16.9502L15.9854 17.0078L16.3613 17.3525C16.6195 17.5895 16.7346 17.9446 16.665 18.2881L16.5635 18.7871L17.0078 18.5371L17.125 18.4805C17.405 18.3674 17.7242 18.3864 17.9912 18.5371L18.4346 18.7871L18.334 18.2881C18.2644 17.9446 18.3795 17.5895 18.6377 17.3525L19.0127 17.0078L18.5068 16.9502C18.1587 16.9102 17.8565 16.6908 17.7109 16.3721L17.499 15.9082L17.2881 16.3721Z" fill="#9E9E9E"/>
</g>
</svg>
