<svg width="24" height="24" viewBox="0 0 24 24" fill="none" xmlns="http://www.w3.org/2000/svg">
<g id="icons/Office/folder-conversion-one">
<path id="Union" d="M9.61035 2.00586C9.86564 2.03418 10.1023 2.15991 10.2686 2.35938L12.4688 5H20.5C21.6046 5 22.5 5.89542 22.5 7V11.5C22.5 12.0523 22.0523 12.5 21.5 12.5C20.9477 12.5 20.5 12.0523 20.5 11.5V7H12C11.7033 7 11.4214 6.86856 11.2314 6.64062L9.03125 4H3.5V20H11C11.5523 20 12 20.4477 12 21C12 21.5523 11.5523 22 11 22H3.5C2.39544 22 1.5 21.1046 1.5 20V4C1.5 2.89543 2.39543 2 3.5 2H9.5L9.61035 2.00586ZM20.5 17.5C21.0523 17.5 21.5 17.9477 21.5 18.5C21.5 19.0523 21.0523 19.5 20.5 19.5H15.9141L16.707 20.293C17.0976 20.6835 17.0976 21.3165 16.707 21.707C16.3165 22.0976 15.6835 22.0976 15.293 21.707L12.793 19.207C12.7654 19.1794 12.7405 19.15 12.7168 19.1201C12.6807 19.0745 12.648 19.0261 12.6201 18.9746C12.6127 18.9609 12.6063 18.9466 12.5996 18.9326C12.5778 18.8873 12.5578 18.8408 12.543 18.792C12.5303 18.7503 12.5218 18.7077 12.5146 18.665C12.5057 18.6113 12.5 18.5563 12.5 18.5C12.5 18.4203 12.5097 18.3429 12.5273 18.2686C12.5322 18.248 12.5368 18.2273 12.543 18.207C12.5579 18.1583 12.5778 18.1117 12.5996 18.0664C12.6188 18.0266 12.6403 17.9877 12.665 17.9502C12.7557 17.8128 12.879 17.6989 13.0244 17.6201C13.0382 17.6127 13.0524 17.6064 13.0664 17.5996C13.1117 17.5778 13.1583 17.5579 13.207 17.543C13.2273 17.5368 13.248 17.5322 13.2686 17.5273C13.2799 17.5247 13.2912 17.5218 13.3027 17.5195C13.3047 17.5191 13.3067 17.5189 13.3086 17.5186L13.3975 17.5049C13.4312 17.5015 13.4654 17.5 13.5 17.5H20.5ZM17.293 12.293C17.6835 11.9024 18.3165 11.9024 18.707 12.293L21.207 14.793C21.2548 14.8408 21.2976 14.8935 21.335 14.9502C21.3597 14.9877 21.3812 15.0266 21.4004 15.0664C21.4222 15.1116 21.4412 15.1584 21.4561 15.207C21.4623 15.2273 21.4668 15.248 21.4717 15.2686C21.4893 15.3429 21.5 15.4202 21.5 15.5C21.5 15.5563 21.4933 15.6112 21.4844 15.665C21.4772 15.7078 21.4688 15.7503 21.4561 15.792C21.4412 15.8407 21.4222 15.8874 21.4004 15.9326C21.3936 15.9468 21.3864 15.9607 21.3789 15.9746C21.3002 16.1201 21.1873 16.2442 21.0498 16.335C21.0121 16.3599 20.9727 16.3811 20.9326 16.4004C20.8874 16.4222 20.8407 16.4412 20.792 16.4561C20.7717 16.4622 20.751 16.4668 20.7305 16.4717C20.7191 16.4744 20.7078 16.4772 20.6963 16.4795C20.6859 16.4816 20.6754 16.4826 20.665 16.4844C20.6112 16.4933 20.5563 16.5 20.5 16.5H13.5C12.9477 16.5 12.5 16.0523 12.5 15.5C12.5 14.9477 12.9477 14.5 13.5 14.5H18.0859L17.293 13.707C16.9024 13.3165 16.9024 12.6835 17.293 12.293Z" fill="#9E9E9E"/>
</g>
</svg>
