<svg width="24" height="24" viewBox="0 0 24 24" fill="none" xmlns="http://www.w3.org/2000/svg">
<g id="icons/Office/folder-withdrawal">
<path id="Union" d="M9.61035 2.00586C9.86564 2.03418 10.1023 2.15991 10.2686 2.35938L12.4688 5H20.5C21.6046 5 22.5 5.89542 22.5 7V20C22.5 21.1046 21.6046 22 20.5 22H3.5C2.39544 22 1.5 21.1046 1.5 20V4C1.5 2.89543 2.39543 2 3.5 2H9.5L9.61035 2.00586ZM3.5 20H20.5V7H12C11.7033 7 11.4214 6.86856 11.2314 6.64062L9.03125 4H3.5V20ZM16 10C16.5523 10 17 10.4477 17 11V14C17 14.5523 16.5523 15 16 15H10.4141L11.207 15.793C11.5976 16.1835 11.5976 16.8165 11.207 17.207C10.8165 17.5976 10.1835 17.5976 9.79297 17.207L7.29297 14.707C7.26536 14.6794 7.2405 14.65 7.2168 14.6201C7.18065 14.5745 7.14798 14.5261 7.12012 14.4746C7.11269 14.4609 7.10635 14.4466 7.09961 14.4326C7.0778 14.3873 7.05783 14.3408 7.04297 14.292C7.0303 14.2503 7.02176 14.2077 7.01465 14.165C7.00571 14.1113 7 14.0563 7 14C7 13.9203 7.00973 13.8429 7.02734 13.7686C7.03221 13.748 7.03678 13.7273 7.04297 13.707C7.05787 13.6583 7.07777 13.6117 7.09961 13.5664C7.11877 13.5266 7.1403 13.4877 7.16504 13.4502C7.20242 13.3935 7.24516 13.3408 7.29297 13.293L9.79297 10.793C10.1835 10.4024 10.8165 10.4024 11.207 10.793C11.5976 11.1835 11.5976 11.8165 11.207 12.207L10.4141 13H15V11C15 10.4477 15.4477 10 16 10Z" fill="#9E9E9E"/>
</g>
</svg>
