<svg width="24" height="24" viewBox="0 0 24 24" fill="none" xmlns="http://www.w3.org/2000/svg">
<g id="icons/Office/folder-withdrawal-one">
<path id="Union" d="M21.5 14C22.0523 14 22.5 14.4477 22.5 15V19C22.5 19.5523 22.0523 20 21.5 20H15.9141L16.707 20.793C17.0976 21.1835 17.0976 21.8165 16.707 22.207C16.3165 22.5976 15.6835 22.5976 15.293 22.207L12.793 19.707C12.7654 19.6794 12.7405 19.65 12.7168 19.6201C12.6807 19.5745 12.648 19.5261 12.6201 19.4746C12.6127 19.4609 12.6063 19.4466 12.5996 19.4326C12.5778 19.3873 12.5578 19.3408 12.543 19.292C12.5303 19.2503 12.5218 19.2077 12.5146 19.165C12.5057 19.1113 12.5 19.0563 12.5 19C12.5 18.9203 12.5097 18.8429 12.5273 18.7686C12.5322 18.748 12.5368 18.7273 12.543 18.707C12.5579 18.6583 12.5778 18.6117 12.5996 18.5664C12.6188 18.5266 12.6403 18.4877 12.665 18.4502C12.7024 18.3935 12.7452 18.3408 12.793 18.293L15.293 15.793C15.6835 15.4024 16.3165 15.4024 16.707 15.793C17.0976 16.1835 17.0976 16.8165 16.707 17.207L15.9141 18H20.5V15C20.5 14.4477 20.9477 14 21.5 14ZM9.61035 2.00586C9.86564 2.03418 10.1023 2.15991 10.2686 2.35938L12.4688 5H20.5C21.6046 5 22.5 5.89542 22.5 7V11.5C22.5 12.0523 22.0523 12.5 21.5 12.5C20.9477 12.5 20.5 12.0523 20.5 11.5V7H12C11.7033 7 11.4214 6.86856 11.2314 6.64062L9.03125 4H3.5V20H11C11.5523 20 12 20.4477 12 21C12 21.5523 11.5523 22 11 22H3.5C2.39544 22 1.5 21.1046 1.5 20V4C1.5 2.89543 2.39543 2 3.5 2H9.5L9.61035 2.00586Z" fill="#9E9E9E"/>
</g>
</svg>
