<svg width="24" height="24" viewBox="0 0 24 24" fill="none" xmlns="http://www.w3.org/2000/svg">
<g id="icons/Office/folder-lock">
<path id="Union" d="M9.61035 2.00586C9.86564 2.03418 10.1023 2.15991 10.2686 2.35938L12.4688 5H20.5C21.6046 5 22.5 5.89542 22.5 7V20C22.5 21.1046 21.6046 22 20.5 22H3.5C2.39544 22 1.5 21.1046 1.5 20V4C1.5 2.89543 2.39543 2 3.5 2H9.5L9.61035 2.00586ZM3.5 20H20.5V7H12C11.7033 7 11.4214 6.86856 11.2314 6.64062L9.03125 4H3.5V20ZM12 9C13.3807 9 14.5 10.1193 14.5 11.5V12H15.5C16.0523 12 16.5 12.4477 16.5 13V17C16.5 17.5523 16.0523 18 15.5 18H8.5C7.94772 18 7.5 17.5523 7.5 17V13C7.5 12.4477 7.94772 12 8.5 12H9.5V11.5C9.5 10.1193 10.6193 9 12 9ZM9.5 16H14.5V14H9.5V16ZM12 11C11.7238 11 11.5 11.2238 11.5 11.5V12H12.5V11.5C12.5 11.2238 12.2762 11 12 11Z" fill="#9E9E9E"/>
</g>
</svg>
