<svg width="24" height="24" viewBox="0 0 24 24" fill="none" xmlns="http://www.w3.org/2000/svg">
<g id="icons/Office/folder-protection">
<path id="Union" d="M9.61035 2.00586C9.86564 2.03418 10.1023 2.15991 10.2686 2.35938L12.4688 5H20.5C21.6046 5 22.5 5.89542 22.5 7V20C22.5 21.1046 21.6046 22 20.5 22H3.5C2.39544 22 1.5 21.1046 1.5 20V4C1.5 2.89543 2.39543 2 3.5 2H9.5L9.61035 2.00586ZM3.5 20H20.5V7H12C11.7033 7 11.4214 6.86856 11.2314 6.64062L9.03125 4H3.5V20ZM11.7021 9.04492C11.8955 8.98475 12.1035 8.9848 12.2969 9.04492H12.2979V9.0459H12.3008C12.3025 9.04645 12.3047 9.0479 12.3076 9.04883C12.314 9.05084 12.3232 9.05391 12.335 9.05762C12.3585 9.06506 12.3928 9.07509 12.4355 9.08887C12.5211 9.11644 12.6427 9.15608 12.7881 9.20508C13.0777 9.30268 13.4682 9.43951 13.8623 9.59277C14.2488 9.74309 14.6717 9.92236 15.0098 10.1064C15.1741 10.1959 15.3618 10.3097 15.5215 10.4463C15.6015 10.5148 15.7052 10.6146 15.7949 10.7471C15.8824 10.8764 16 11.1023 16 11.4004C15.9999 13.5525 15.131 15.1667 14.2793 16.2266C13.8543 16.7555 13.4295 17.1528 13.1074 17.4199C12.9459 17.5539 12.8082 17.6563 12.708 17.7275C12.658 17.7631 12.6173 17.7913 12.5869 17.8115C12.5717 17.8216 12.5586 17.8296 12.5488 17.8359C12.544 17.839 12.5396 17.8416 12.5361 17.8438C12.5346 17.8447 12.5335 17.8459 12.5322 17.8467L12.5303 17.8477L12.5293 17.8486C12.5289 17.8489 12.5283 17.8491 12 17L12.5283 17.8486C12.2049 18.0499 11.7951 18.0499 11.4717 17.8486L12 17C11.4717 17.8491 11.4711 17.8489 11.4707 17.8486L11.4697 17.8477L11.4678 17.8467C11.4665 17.8459 11.4654 17.8447 11.4639 17.8438C11.4604 17.8416 11.456 17.839 11.4512 17.8359C11.4414 17.8296 11.4283 17.8216 11.4131 17.8115C11.3827 17.7913 11.342 17.7631 11.292 17.7275C11.1918 17.6563 11.0541 17.5539 10.8926 17.4199C10.5705 17.1528 10.1457 16.7555 9.7207 16.2266C8.86902 15.1667 8.00011 13.5525 8 11.4004C8 11.1023 8.1176 10.8764 8.20508 10.7471C8.29475 10.6146 8.39852 10.5148 8.47852 10.4463C8.6382 10.3097 8.82589 10.1959 8.99023 10.1064C9.32835 9.92236 9.75117 9.74309 10.1377 9.59277C10.5318 9.43951 10.9223 9.30268 11.2119 9.20508C11.3573 9.15608 11.4789 9.11644 11.5645 9.08887C11.6072 9.07509 11.6415 9.06506 11.665 9.05762C11.6768 9.05391 11.686 9.05084 11.6924 9.04883C11.6953 9.0479 11.6975 9.04645 11.6992 9.0459H11.7021V9.04492ZM11.8506 11.1006C11.5777 11.1926 11.2181 11.3187 10.8623 11.457C10.5348 11.5844 10.2366 11.7127 10.0166 11.8262C10.1173 13.1959 10.6907 14.2411 11.2793 14.9736C11.5325 15.2888 11.7868 15.5414 12 15.7324C12.2132 15.5414 12.4675 15.2888 12.7207 14.9736C13.3093 14.2411 13.8817 13.1958 13.9824 11.8262C13.7625 11.7128 13.4648 11.5842 13.1377 11.457C12.7819 11.3187 12.4223 11.1926 12.1494 11.1006C12.0958 11.0825 12.0458 11.0659 12 11.0508C11.9542 11.0659 11.9042 11.0825 11.8506 11.1006Z" fill="#9E9E9E"/>
</g>
</svg>
