<svg width="24" height="24" viewBox="0 0 24 24" fill="none" xmlns="http://www.w3.org/2000/svg">
<g id="icons/Office/folder-quality">
<path id="Union" d="M9.61035 2.00586C9.86564 2.03418 10.1023 2.15991 10.2686 2.35938L12.4688 5H20.5C21.6046 5 22.5 5.89542 22.5 7V20C22.5 21.1046 21.6046 22 20.5 22H3.5C2.39544 22 1.5 21.1046 1.5 20V4C1.5 2.89543 2.39543 2 3.5 2H9.5L9.61035 2.00586ZM3.5 20H20.5V7H12C11.7033 7 11.4214 6.86856 11.2314 6.64062L9.03125 4H3.5V20ZM14.0996 9.5C14.4048 9.5 14.6941 9.6398 14.8838 9.87891L16.2832 11.6436C16.5765 12.0134 16.5712 12.5375 16.2705 12.9014L12.7705 17.1367C12.5805 17.3666 12.2982 17.5 12 17.5C11.7018 17.5 11.4195 17.3666 11.2295 17.1367L7.72949 12.9014C7.4288 12.5375 7.42347 12.0134 7.7168 11.6436L9.11621 9.87891C9.3059 9.6398 9.59518 9.5 9.90039 9.5H14.0996ZM9.78613 12.251L12 14.9307L14.2129 12.251L13.6172 11.5H10.3828L9.78613 12.251Z" fill="#9E9E9E"/>
</g>
</svg>
