<svg width="24" height="24" viewBox="0 0 24 24" fill="none" xmlns="http://www.w3.org/2000/svg">
<g id="icons/Office/folder-search-one">
<path id="Union" d="M9.61035 2.00586C9.86564 2.03418 10.1023 2.15991 10.2686 2.35938L12.4688 5H20.5C21.6046 5 22.5 5.89542 22.5 7V11.5C22.5 12.0523 22.0523 12.5 21.5 12.5C20.9477 12.5 20.5 12.0523 20.5 11.5V7H12C11.7033 7 11.4214 6.86856 11.2314 6.64062L9.03125 4H3.5V20H11C11.5523 20 12 20.4477 12 21C12 21.5523 11.5523 22 11 22H3.5C2.39544 22 1.5 21.1046 1.5 20V4C1.5 2.89543 2.39543 2 3.5 2H9.5L9.61035 2.00586ZM16 12C18.2091 12 20 13.7909 20 16C20 16.5838 19.8732 17.1376 19.6484 17.6377L21.625 19.2188C22.0563 19.5638 22.1263 20.1937 21.7812 20.625C21.4362 21.0563 20.8063 21.1263 20.375 20.7812L18.3984 19.2002C17.7301 19.7019 16.9001 20 16 20C13.7909 20 12 18.2091 12 16C12 13.7909 13.7909 12 16 12ZM16 14C14.8954 14 14 14.8954 14 16C14 17.1046 14.8954 18 16 18C17.1046 18 18 17.1046 18 16C18 14.8954 17.1046 14 16 14Z" fill="#9E9E9E"/>
</g>
</svg>
