<svg width="24" height="24" viewBox="0 0 24 24" fill="none" xmlns="http://www.w3.org/2000/svg">
<g id="icons/Office/folder-download">
<path id="Union" d="M9.61035 2.00586C9.86564 2.03418 10.1023 2.15991 10.2686 2.35938L12.4688 5H20.5C21.6046 5 22.5 5.89542 22.5 7V20C22.5 21.1046 21.6046 22 20.5 22H3.5C2.39544 22 1.5 21.1046 1.5 20V4C1.5 2.89543 2.39543 2 3.5 2H9.5L9.61035 2.00586ZM3.5 20H20.5V7H12C11.7033 7 11.4214 6.86856 11.2314 6.64062L9.03125 4H3.5V20ZM12 9C12.5523 9 13 9.44772 13 10V14.584L14.293 13.293C14.6836 12.9028 15.3167 12.9026 15.707 13.293C16.0972 13.6836 16.0974 14.3167 15.707 14.707L12.7432 17.666C12.5601 17.8702 12.2958 18 12 18L11.998 17.999C11.9814 17.999 11.9649 17.9979 11.9482 17.9971C11.9209 17.9957 11.8939 17.9938 11.8672 17.9902C11.8128 17.9832 11.7589 17.9721 11.7061 17.9561C11.6961 17.953 11.6866 17.9487 11.6768 17.9453C11.5357 17.8977 11.4025 17.8194 11.29 17.707L8.29297 14.7139C7.90255 14.3235 7.90277 13.6904 8.29297 13.2998C8.68329 12.9094 9.3164 12.9087 9.70703 13.2988L11 14.5908V10C11 9.44772 11.4477 9 12 9Z" fill="#9E9E9E"/>
</g>
</svg>
