<svg width="24" height="24" viewBox="0 0 24 24" fill="none" xmlns="http://www.w3.org/2000/svg">
<g id="icons/Office/folder-block-one">
<path id="Union" d="M17.5 12.5C20.2614 12.5 22.5 14.7386 22.5 17.5C22.5 20.2614 20.2614 22.5 17.5 22.5C14.7386 22.5 12.5 20.2614 12.5 17.5C12.5 14.7386 14.7386 12.5 17.5 12.5ZM9.61035 2.00586C9.86564 2.03418 10.1023 2.15991 10.2686 2.35938L12.4688 5H20.5C21.6046 5 22.5 5.89542 22.5 7V11.5C22.5 12.0523 22.0523 12.5 21.5 12.5C20.9477 12.5 20.5 12.0523 20.5 11.5V7H12C11.7033 7 11.4214 6.86856 11.2314 6.64062L9.03125 4H3.5V20H11C11.5523 20 12 20.4477 12 21C12 21.5523 11.5523 22 11 22H3.5C2.39544 22 1.5 21.1046 1.5 20V4C1.5 2.89543 2.39543 2 3.5 2H9.5L9.61035 2.00586ZM17.5 14.5C15.8431 14.5 14.5 15.8431 14.5 17.5C14.5 19.1569 15.8431 20.5 17.5 20.5C19.1569 20.5 20.5 19.1569 20.5 17.5C20.5 15.8431 19.1569 14.5 17.5 14.5ZM17.793 15.793C18.1835 15.4024 18.8165 15.4024 19.207 15.793C19.5976 16.1835 19.5976 16.8165 19.207 17.207L17.207 19.207C16.8165 19.5976 16.1835 19.5976 15.793 19.207C15.4024 18.8165 15.4024 18.1835 15.793 17.793L17.793 15.793Z" fill="#9E9E9E"/>
</g>
</svg>
