<svg width="24" height="24" viewBox="0 0 24 24" fill="none" xmlns="http://www.w3.org/2000/svg">
<g id="icons/Office/folder-upload">
<path id="Union" d="M9.61035 2.00586C9.86564 2.03418 10.1023 2.15991 10.2686 2.35938L12.4688 5H20.5C21.6046 5 22.5 5.89542 22.5 7V20C22.5 21.1046 21.6046 22 20.5 22H3.5C2.39544 22 1.5 21.1046 1.5 20V4C1.5 2.89543 2.39543 2 3.5 2H9.5L9.61035 2.00586ZM3.5 20H20.5V7H12C11.7033 7 11.4214 6.86856 11.2314 6.64062L9.03125 4H3.5V20ZM12.0205 9.00098C12.0381 9.00133 12.0557 9.00165 12.0732 9.00293C12.0913 9.00424 12.1092 9.00653 12.127 9.00879C12.1403 9.01049 12.1537 9.01241 12.167 9.01465C12.1807 9.01696 12.1945 9.01862 12.208 9.02148C12.2291 9.02594 12.2497 9.03226 12.2705 9.03809C12.2796 9.04063 12.2889 9.04213 12.2979 9.04492L12.3125 9.0498C12.3204 9.0524 12.3281 9.05579 12.3359 9.05859C12.3567 9.066 12.3774 9.07332 12.3975 9.08203C12.5095 9.13048 12.6144 9.20057 12.7061 9.29199L15.7061 12.2852C16.0969 12.6752 16.0978 13.3082 15.708 13.6992C15.318 14.0901 14.6849 14.0912 14.2939 13.7012L13 12.4102V17C13 17.5523 12.5523 18 12 18C11.4477 18 11 17.5523 11 17V12.4131L9.70703 13.707C9.31651 14.0976 8.68349 14.0976 8.29297 13.707C7.90244 13.3165 7.90244 12.6835 8.29297 12.293L11.2939 9.29199C11.4163 9.16998 11.5702 9.07998 11.7422 9.03418C11.7588 9.02976 11.7753 9.02503 11.792 9.02148C11.803 9.01916 11.8141 9.01758 11.8252 9.01562C11.8427 9.01252 11.8603 9.00998 11.8779 9.00781C11.8957 9.00565 11.9136 9.00415 11.9316 9.00293C11.9476 9.00184 11.9635 9.00131 11.9795 9.00098C11.9863 9.00084 11.9931 9 12 9C12.0069 9 12.0137 9.00084 12.0205 9.00098Z" fill="#9E9E9E"/>
</g>
</svg>
