<svg width="24" height="24" viewBox="0 0 24 24" fill="none" xmlns="http://www.w3.org/2000/svg">
<g id="icons/Office/folder-close">
<path id="Union" d="M9.61035 2.00586C9.86564 2.03418 10.1023 2.15991 10.2686 2.35938L12.4688 5H20.5C21.6046 5 22.5 5.89542 22.5 7V20C22.5 21.1046 21.6046 22 20.5 22H3.5C2.39544 22 1.5 21.1046 1.5 20V4C1.5 2.89543 2.39543 2 3.5 2H9.5L9.61035 2.00586ZM3.5 20H20.5V12H3.5V20ZM3.5 10H20.5V7H12C11.7033 7 11.4214 6.86856 11.2314 6.64062L9.03125 4H3.5V10Z" fill="#9E9E9E"/>
</g>
</svg>
