<svg width="24" height="24" viewBox="0 0 24 24" fill="none" xmlns="http://www.w3.org/2000/svg">
<g id="icons/Office/folder-music-one">
<path id="Union" d="M9.61035 2.00586C9.86564 2.03418 10.1023 2.15991 10.2686 2.35938L12.4688 5H20.5C21.6046 5 22.5 5.89542 22.5 7V11.5C22.5 12.0523 22.0523 12.5 21.5 12.5C20.9477 12.5 20.5 12.0523 20.5 11.5V7H12C11.7033 7 11.4214 6.86856 11.2314 6.64062L9.03125 4H3.5V20H11C11.5523 20 12 20.4477 12 21C12 21.5523 11.5523 22 11 22H3.5C2.39544 22 1.5 21.1046 1.5 20V4C1.5 2.89543 2.39543 2 3.5 2H9.5L9.61035 2.00586ZM19.7646 13.0283C20.3014 12.8983 20.8417 13.2279 20.9717 13.7646C21.1017 14.3014 20.7721 14.8417 20.2354 14.9717L19 15.2705V19.25C19 19.3648 18.979 19.4745 18.9434 19.5771C18.6742 20.9578 17.4594 22 16 22C14.3431 22 13 20.6569 13 19C13 17.3431 14.3431 16 16 16C16.351 16 16.6869 16.0631 17 16.1738V14.4844L17.0146 14.3145C17.0813 13.9269 17.3721 13.6078 17.7646 13.5127L19.7646 13.0283ZM16 18C15.4477 18 15 18.4477 15 19C15 19.5523 15.4477 20 16 20C16.5523 20 17 19.5523 17 19C17 18.4477 16.5523 18 16 18Z" fill="#9E9E9E"/>
</g>
</svg>
