<svg width="24" height="24" viewBox="0 0 24 24" fill="none" xmlns="http://www.w3.org/2000/svg">
<g id="icons/Office/folder-conversion">
<path id="Union" d="M9.61035 2.00586C9.86564 2.03418 10.1023 2.15991 10.2686 2.35938L12.4688 5H20.5C21.6046 5 22.5 5.89542 22.5 7V20C22.5 21.1046 21.6046 22 20.5 22H3.5C2.39544 22 1.5 21.1046 1.5 20V4C1.5 2.89543 2.39543 2 3.5 2H9.5L9.61035 2.00586ZM3.5 20H20.5V7H12C11.7033 7 11.4214 6.86856 11.2314 6.64062L9.03125 4H3.5V20ZM15.5 14C16.0523 14 16.5 14.4477 16.5 15C16.5 15.5523 16.0523 16 15.5 16H10.9141L11.707 16.793C12.0976 17.1835 12.0976 17.8165 11.707 18.207C11.3165 18.5976 10.6835 18.5976 10.293 18.207L7.79297 15.707C7.76536 15.6794 7.7405 15.65 7.7168 15.6201C7.68065 15.5745 7.64798 15.5261 7.62012 15.4746C7.61269 15.4609 7.60635 15.4466 7.59961 15.4326C7.5778 15.3873 7.55783 15.3408 7.54297 15.292C7.5303 15.2503 7.52176 15.2077 7.51465 15.165C7.50571 15.1113 7.5 15.0563 7.5 15C7.5 14.9203 7.50973 14.8429 7.52734 14.7686C7.53221 14.748 7.53678 14.7273 7.54297 14.707C7.55787 14.6583 7.57777 14.6117 7.59961 14.5664C7.61877 14.5266 7.6403 14.4877 7.66504 14.4502C7.7557 14.3128 7.87904 14.1989 8.02441 14.1201C8.03816 14.1127 8.0524 14.1064 8.06641 14.0996C8.11167 14.0778 8.15828 14.0579 8.20703 14.043C8.2273 14.0368 8.248 14.0322 8.26855 14.0273C8.2799 14.0247 8.29124 14.0218 8.30273 14.0195C8.30468 14.0191 8.30665 14.0189 8.30859 14.0186L8.39746 14.0049C8.43116 14.0015 8.46539 14 8.5 14H15.5ZM12.293 8.79297C12.6835 8.40244 13.3165 8.40244 13.707 8.79297L16.207 11.293C16.2548 11.3408 16.2976 11.3935 16.335 11.4502C16.3597 11.4877 16.3812 11.5266 16.4004 11.5664C16.4222 11.6116 16.4412 11.6584 16.4561 11.707C16.4623 11.7273 16.4668 11.748 16.4717 11.7686C16.4893 11.8429 16.5 11.9202 16.5 12C16.5 12.0563 16.4933 12.1112 16.4844 12.165C16.4772 12.2078 16.4688 12.2503 16.4561 12.292C16.4412 12.3407 16.4222 12.3874 16.4004 12.4326C16.3936 12.4468 16.3864 12.4607 16.3789 12.4746C16.3002 12.6201 16.1873 12.7442 16.0498 12.835C16.0121 12.8599 15.9727 12.8811 15.9326 12.9004C15.8874 12.9222 15.8407 12.9412 15.792 12.9561C15.7717 12.9622 15.751 12.9668 15.7305 12.9717C15.7191 12.9744 15.7078 12.9772 15.6963 12.9795C15.6859 12.9816 15.6754 12.9826 15.665 12.9844C15.6112 12.9933 15.5563 13 15.5 13H8.5C7.94772 13 7.5 12.5523 7.5 12C7.5 11.4477 7.94772 11 8.5 11H13.0859L12.293 10.207C11.9024 9.81651 11.9024 9.18349 12.293 8.79297Z" fill="#9E9E9E"/>
</g>
</svg>
