<svg width="24" height="24" viewBox="0 0 24 24" fill="none" xmlns="http://www.w3.org/2000/svg">
<g id="icons/Office/folder-success-one">
<path id="Union" d="M9.61035 2.00586C9.86564 2.03418 10.1023 2.15991 10.2686 2.35938L12.4688 5H20.5C21.6046 5 22.5 5.89542 22.5 7V11.5C22.5 12.0523 22.0523 12.5 21.5 12.5C20.9477 12.5 20.5 12.0523 20.5 11.5V7H12C11.7033 7 11.4214 6.86856 11.2314 6.64062L9.03125 4H3.5V20H11C11.5523 20 12 20.4477 12 21C12 21.5523 11.5523 22 11 22H3.5C2.39544 22 1.5 21.1046 1.5 20V4C1.5 2.89543 2.39543 2 3.5 2H9.5L9.61035 2.00586ZM20.7256 14.8672C21.0752 14.4399 21.7054 14.3763 22.1328 14.7256C22.5601 15.0752 22.6237 15.7054 22.2744 16.1328L17.7744 21.6328C17.4274 22.0569 16.8029 22.1236 16.375 21.7812L13.875 19.7812C13.4437 19.4362 13.3737 18.8063 13.7188 18.375C14.0638 17.9437 14.6937 17.8737 15.125 18.2188L16.8525 19.6006L20.7256 14.8672Z" fill="#9E9E9E"/>
</g>
</svg>
