<svg width="24" height="24" viewBox="0 0 24 24" fill="none" xmlns="http://www.w3.org/2000/svg">
<g id="icons/Office/font-search">
<path id="Union" d="M11.417 1.91699C16.6637 1.91699 20.917 6.17126 20.917 11.418C20.9169 13.6807 20.1235 15.757 18.8027 17.3887L21.207 19.793C21.5976 20.1835 21.5976 20.8165 21.207 21.207C20.8165 21.5976 20.1835 21.5976 19.793 21.207L17.3887 18.8027C15.7568 20.1239 13.6802 20.918 11.417 20.918C6.17045 20.918 1.91726 16.6644 1.91699 11.418C1.91699 6.17126 6.17029 1.91699 11.417 1.91699ZM11.417 3.91797C7.27486 3.91797 3.91699 7.27583 3.91699 11.418C3.91726 15.5599 7.27502 18.918 11.417 18.918C15.559 18.918 18.9167 15.5599 18.917 11.418C18.917 7.27583 15.5591 3.91797 11.417 3.91797ZM14 7.5C14.5523 7.5 15 7.94772 15 8.5C15 9.05228 14.5523 9.5 14 9.5H12.5V15.5C12.5 16.0523 12.0523 16.5 11.5 16.5C10.9477 16.5 10.5 16.0523 10.5 15.5V9.5H9C8.44772 9.5 8 9.05228 8 8.5C8 7.94772 8.44772 7.5 9 7.5H14Z" fill="#9E9E9E"/>
</g>
</svg>
