<svg width="24" height="24" viewBox="0 0 24 24" fill="none" xmlns="http://www.w3.org/2000/svg">
<g id="icons/Office/format">
<path id="Union" d="M15 2C15.5523 2 16 2.44772 16 3V5.5H22C22.5523 5.5 23 5.94772 23 6.5V12C23 12.5523 22.5523 13 22 13H21V21C21 21.5523 20.5523 22 20 22H4C3.44772 22 3 21.5523 3 21V13H2C1.44772 13 1 12.5523 1 12V6.5C1 5.94772 1.44772 5.5 2 5.5H8V3C8 2.44772 8.44772 2 9 2H15ZM5 20H7V16C7 15.4477 7.44772 15 8 15C8.55228 15 9 15.4477 9 16V20H19V13H5V20ZM10 6.5C10 7.05228 9.55229 7.5 9 7.5H3V11H21V7.5H15C14.4477 7.5 14 7.05228 14 6.5V4H10V6.5Z" fill="#9E9E9E"/>
</g>
</svg>
