<svg width="24" height="24" viewBox="0 0 24 24" fill="none" xmlns="http://www.w3.org/2000/svg">
<g id="icons/Office/form-one">
<path id="Union" d="M19.5 2C20.8807 2 22 3.11929 22 4.5V19.5C22 20.8807 20.8807 22 19.5 22H4.5C3.11929 22 2 20.8807 2 19.5V4.5C2 3.11929 3.11929 2 4.5 2H19.5ZM8 20H19.5C19.7761 20 20 19.7761 20 19.5V16H15C14.4477 16 14 15.5523 14 15C14 14.4477 14.4477 14 15 14H20V12H15C14.4477 12 14 11.5523 14 11C14 10.4477 14.4477 10 15 10H20V8H8V20ZM4 19.5C4 19.7761 4.22386 20 4.5 20H6V8H4V19.5ZM12 14C12.5523 14 13 14.4477 13 15C13 15.5523 12.5523 16 12 16H11.5C10.9477 16 10.5 15.5523 10.5 15C10.5 14.4477 10.9477 14 11.5 14H12ZM12 10C12.5523 10 13 10.4477 13 11C13 11.5523 12.5523 12 12 12H11.5C10.9477 12 10.5 11.5523 10.5 11C10.5 10.4477 10.9477 10 11.5 10H12ZM8 6H20V4.5C20 4.22386 19.7761 4 19.5 4H8V6ZM4.5 4C4.22386 4 4 4.22386 4 4.5V6H6V4H4.5Z" fill="#9E9E9E"/>
</g>
</svg>
