<svg width="24" height="24" viewBox="0 0 24 24" fill="none" xmlns="http://www.w3.org/2000/svg">
<g id="icons/Office/healthy-recognition">
<path id="Union" d="M3 15.5C3.55228 15.5 4 15.9477 4 16.5V19.5C4 19.7762 4.22385 20 4.5 20H7.5C8.05228 20 8.5 20.4477 8.5 21C8.5 21.5523 8.05228 22 7.5 22H4.5C3.1193 22 2 20.8807 2 19.5V16.5C2 15.9477 2.44772 15.5 3 15.5ZM21 15.5C21.5523 15.5 22 15.9477 22 16.5V19.5C22 20.8807 20.8807 22 19.5 22H16.5C15.9477 22 15.5 21.5523 15.5 21C15.5 20.4477 15.9477 20 16.5 20H19.5C19.7762 20 20 19.7762 20 19.5V16.5C20 15.9477 20.4477 15.5 21 15.5ZM15.6104 7.69434C16.3816 7.78007 17.2234 8.13182 17.7998 8.90039C18.8485 10.2989 18.5581 11.8557 17.707 12.707L12.707 17.707C12.5196 17.8944 12.265 17.9999 12 18C11.7349 18 11.4805 17.8944 11.293 17.707H11.292L11.2422 17.6572C11.2092 17.6242 11.1605 17.5746 11.0986 17.5127L6.29297 12.707C5.4414 11.8555 5.1516 10.2988 6.2002 8.90039C6.77664 8.1319 7.61844 7.78004 8.38965 7.69434C9.1424 7.61076 9.95042 7.76512 10.5547 8.16797C10.7838 8.32069 10.9711 8.47158 11.1182 8.59082C11.2758 8.7186 11.368 8.7935 11.4609 8.85547C11.5868 8.93934 11.7081 9 12 9C12.2917 8.99997 12.4132 8.93932 12.5391 8.85547C12.632 8.79352 12.7243 8.71857 12.8818 8.59082C13.0289 8.47159 13.2163 8.32069 13.4453 8.16797C14.0496 7.76522 14.8576 7.61071 15.6104 7.69434ZM15.3896 9.68164C15.0177 9.64031 14.7005 9.73501 14.5547 9.83203C14.409 9.92919 14.2835 10.0295 14.1416 10.1445C14.0105 10.2508 13.8364 10.3942 13.6484 10.5195C13.212 10.8105 12.7076 11 12 11C11.2922 11 10.7881 10.8105 10.3516 10.5195C10.1636 10.3942 9.98953 10.2509 9.8584 10.1445C9.71653 10.0295 9.59104 9.92919 9.44531 9.83203C9.29968 9.73494 8.98244 9.64034 8.61035 9.68164C8.25665 9.72095 7.97333 9.86922 7.7998 10.1006C7.34917 10.7018 7.55857 11.1445 7.70703 11.293L12 15.5859L16.293 11.293C16.4416 11.1441 16.6502 10.7011 16.2002 10.1006C16.0267 9.86929 15.7433 9.721 15.3896 9.68164ZM7.5 2C8.05228 2 8.5 2.44772 8.5 3C8.5 3.55228 8.05228 4 7.5 4H4.5C4.22386 4 4 4.22386 4 4.5V7.5C4 8.05228 3.55228 8.5 3 8.5C2.44772 8.5 2 8.05228 2 7.5V4.5C2 3.11929 3.11929 2 4.5 2H7.5ZM19.5 2C20.8807 2 22 3.1193 22 4.5V7.5C22 8.05228 21.5523 8.5 21 8.5C20.4477 8.5 20 8.05228 20 7.5V4.5C20 4.22385 19.7762 4 19.5 4H16.5C15.9477 4 15.5 3.55228 15.5 3C15.5 2.44772 15.9477 2 16.5 2H19.5Z" fill="#9E9E9E"/>
</g>
</svg>
