<svg width="24" height="24" viewBox="0 0 24 24" fill="none" xmlns="http://www.w3.org/2000/svg">
<g id="icons/Office/hourglass">
<path id="Union" d="M20 1C20.5523 1 21 1.44772 21 2C21 2.55228 20.5523 3 20 3H19V8C19 8.24059 18.9134 8.47346 18.7559 8.65527L16.166 11.6426L18.6865 14.0234C18.8864 14.2123 19 14.4749 19 14.75V21H20C20.5523 21 21 21.4477 21 22C21 22.5523 20.5523 23 20 23H4C3.44772 23 3 22.5523 3 22C3 21.4477 3.44772 21 4 21H5V15L5.00488 14.9014C5.02757 14.6724 5.12883 14.4571 5.29297 14.293L7.9375 11.6475L5.25684 8.66895C5.09157 8.48532 5 8.24704 5 8V3H4C3.44772 3 3 2.55228 3 2C3 1.44772 3.44772 1 4 1H20ZM7 7.61621L11.2432 12.3311C11.6126 12.7415 11.5794 13.3737 11.1689 13.7432C10.7585 14.1126 10.1263 14.0794 9.75684 13.6689L9.27734 13.1357L7 15.4141V21H17V15.1797L14.3271 12.6553C14.2452 12.617 14.1665 12.568 14.0947 12.5059C14.0005 12.4242 13.926 12.3283 13.8701 12.2246L12.8135 11.2266C12.4121 10.8473 12.3943 10.2149 12.7734 9.81348C13.1527 9.41213 13.7851 9.39428 14.1865 9.77344L14.71 10.2676L17 7.62598V3H7V7.61621ZM12.5 18C13.0523 18 13.5 18.4477 13.5 19C13.5 19.5523 13.0523 20 12.5 20H12C11.4477 20 11 19.5523 11 19C11 18.4477 11.4477 18 12 18H12.5ZM13.8662 15.6162C14.2567 15.2257 14.8897 15.2257 15.2803 15.6162L15.6338 15.9697C16.0243 16.3603 16.0243 16.9933 15.6338 17.3838C15.2433 17.7743 14.6103 17.7743 14.2197 17.3838L13.8662 17.0303C13.4757 16.6397 13.4757 16.0067 13.8662 15.6162ZM9.5 15.5C10.0523 15.5 10.5 15.9477 10.5 16.5C10.5 17.0523 10.0523 17.5 9.5 17.5H9C8.44772 17.5 8 17.0523 8 16.5C8 15.9477 8.44772 15.5 9 15.5H9.5Z" fill="#9E9E9E"/>
</g>
</svg>
