<svg width="24" height="24" viewBox="0 0 24 24" fill="none" xmlns="http://www.w3.org/2000/svg">
<g id="icons/Office/image-files">
<path id="Union" d="M15 1C15.0563 1 15.1113 1.00571 15.165 1.01465C15.1738 1.01611 15.1827 1.01686 15.1914 1.01855L15.2012 1.02051C15.211 1.02252 15.2207 1.02504 15.2305 1.02734C15.251 1.0322 15.2717 1.0368 15.292 1.04297C15.3408 1.05783 15.3873 1.0778 15.4326 1.09961C15.4466 1.10634 15.4609 1.11269 15.4746 1.12012C15.5374 1.15407 15.5956 1.19511 15.6494 1.24121C15.6689 1.2579 15.6886 1.27454 15.707 1.29297L20.707 6.29297C20.7548 6.34078 20.7976 6.39354 20.835 6.4502C20.8597 6.48768 20.8812 6.52662 20.9004 6.56641C20.9222 6.61159 20.9412 6.65838 20.9561 6.70703C20.9623 6.72732 20.9668 6.74799 20.9717 6.76855C20.9893 6.84294 21 6.92022 21 7V21C21 22.1046 20.1046 23 19 23H5C3.89544 23 3 22.1046 3 21V3C3 1.89543 3.89543 1 5 1H15ZM5 21H19V8H15C14.4477 8 14 7.55228 14 7V3H5V21ZM15.7588 9.8291C16.0363 9.5227 16.4736 9.41874 16.8594 9.56738C17.2452 9.71613 17.5 10.0865 17.5 10.5V18.5C17.5 19.0523 17.0523 19.5 16.5 19.5H7.5C6.94772 19.5 6.5 19.0523 6.5 18.5V14C6.5 13.6664 6.66621 13.3546 6.94336 13.1689C7.22055 12.9834 7.57245 12.9482 7.88086 13.0752L11.4756 14.5566L15.7588 9.8291ZM12.4863 16.4209C12.2031 16.7336 11.7533 16.8356 11.3633 16.6748L8.5 15.4941V17.5H15.5V13.0928L12.4863 16.4209ZM9 5.5C10.6569 5.5 12 6.84315 12 8.5C12 10.1569 10.6569 11.5 9 11.5C7.34315 11.5 6 10.1569 6 8.5C6 6.84315 7.34315 5.5 9 5.5ZM9 7.5C8.44772 7.5 8 7.94772 8 8.5C8 9.05229 8.44772 9.5 9 9.5C9.55228 9.5 10 9.05229 10 8.5C10 7.94772 9.55228 7.5 9 7.5ZM16 6H17.5859L16 4.41406V6Z" fill="#9E9E9E"/>
</g>
</svg>
