<svg width="24" height="24" viewBox="0 0 24 24" fill="none" xmlns="http://www.w3.org/2000/svg">
<g id="icons/Office/inbox-out">
<path id="Union" d="M19.5879 2.00391C20.0234 2.04207 20.3879 2.36125 20.4785 2.7959L22.9766 14.79C22.9911 14.8578 23 14.9279 23 15V21.5C23 22.0523 22.5523 22.5 22 22.5H2C1.44772 22.5 1 22.0523 1 21.5V15C1 14.928 1.00798 14.8578 1.02246 14.79L3.52148 2.7959L3.54297 2.71094C3.66916 2.29225 4.05587 2 4.5 2H19.5L19.5879 2.00391ZM3 20.5H21V16H17.2881L16.5938 18.29C16.466 18.7116 16.0771 18.9998 15.6367 19H8.36328C7.92285 18.9998 7.53399 18.7116 7.40625 18.29L6.71191 16H3V20.5ZM3.22949 14H7.4541C7.89463 14 8.28331 14.2884 8.41113 14.71L9.10547 17H14.8945L15.5889 14.71L15.6484 14.5586C15.8144 14.2209 16.1604 14 16.5459 14H20.7705L18.6875 4H5.3125L3.22949 14ZM12.0205 6.00098C12.0381 6.00133 12.0557 6.00165 12.0732 6.00293C12.0909 6.00421 12.1085 6.00562 12.126 6.00781C12.1378 6.0093 12.1494 6.01177 12.1611 6.01367C12.1802 6.01676 12.1991 6.02026 12.2178 6.02441C12.2269 6.02645 12.236 6.02895 12.2451 6.03125C12.3141 6.04866 12.3799 6.07357 12.4424 6.10449C12.4746 6.12042 12.5064 6.13761 12.5371 6.15723C12.5449 6.16219 12.5529 6.16671 12.5605 6.17188C12.6122 6.2069 12.6613 6.24722 12.707 6.29297L15.707 9.29297C16.0976 9.68349 16.0976 10.3165 15.707 10.707C15.3165 11.0976 14.6835 11.0976 14.293 10.707L13 9.41406V13C13 13.5523 12.5523 14 12 14C11.4477 14 11 13.5523 11 13V9.41406L9.70703 10.707C9.31651 11.0976 8.68349 11.0976 8.29297 10.707C7.90244 10.3165 7.90244 9.68349 8.29297 9.29297L11.293 6.29297C11.3548 6.23117 11.4248 6.17778 11.501 6.13379C11.5154 6.12546 11.5302 6.1179 11.5449 6.11035C11.6073 6.0784 11.6731 6.05257 11.7422 6.03418C11.7588 6.02976 11.7753 6.02503 11.792 6.02148C11.803 6.01916 11.8141 6.01758 11.8252 6.01562C11.8427 6.01252 11.8603 6.00998 11.8779 6.00781C11.8957 6.00565 11.9136 6.00415 11.9316 6.00293C11.9476 6.00184 11.9635 6.00131 11.9795 6.00098C11.9863 6.00084 11.9931 6 12 6C12.0069 6 12.0137 6.00084 12.0205 6.00098Z" fill="#9E9E9E"/>
</g>
</svg>
