<svg width="24" height="24" viewBox="0 0 24 24" fill="none" xmlns="http://www.w3.org/2000/svg">
<g id="icons/Office/inbox-success">
<path id="Union" d="M19.5879 2.00391C20.0234 2.04207 20.3879 2.36125 20.4785 2.7959L22.9766 14.79C22.9911 14.8578 23 14.9279 23 15V21.5C23 22.0523 22.5523 22.5 22 22.5H2C1.44772 22.5 1 22.0523 1 21.5V15C1 14.928 1.00798 14.8578 1.02246 14.79L3.52148 2.7959L3.54297 2.71094C3.66916 2.29225 4.05587 2 4.5 2H19.5L19.5879 2.00391ZM3 20.5H21V16H17.2881L16.5938 18.29C16.466 18.7116 16.0771 18.9998 15.6367 19H8.36328C7.92285 18.9998 7.53399 18.7116 7.40625 18.29L6.71191 16H3V20.5ZM3.22949 14H7.4541C7.89463 14 8.28331 14.2884 8.41113 14.71L9.10547 17H14.8945L15.5889 14.71L15.6484 14.5586C15.8144 14.2209 16.1604 14 16.5459 14H20.7705L18.6875 4H5.3125L3.22949 14ZM14.793 7.29297C15.1835 6.90244 15.8165 6.90244 16.207 7.29297C16.5976 7.68349 16.5976 8.31651 16.207 8.70703L12.207 12.707C12.0085 12.9055 11.7355 13.0115 11.4551 12.999C11.1748 12.9864 10.9124 12.8569 10.7324 12.6416L8.73242 10.248C8.37864 9.82435 8.43492 9.19395 8.8584 8.83984C9.28216 8.48566 9.91339 8.54206 10.2676 8.96582L11.5654 10.5195L14.793 7.29297Z" fill="#9E9E9E"/>
</g>
</svg>
