<svg width="24" height="24" viewBox="0 0 24 24" fill="none" xmlns="http://www.w3.org/2000/svg">
<g id="icons/Office/inbox">
<path id="Union" d="M19.5879 2.00391C20.0234 2.04207 20.3879 2.36125 20.4785 2.7959L22.9766 14.79C22.9911 14.8578 23 14.9279 23 15V21.5C23 22.0523 22.5523 22.5 22 22.5H2C1.44772 22.5 1 22.0523 1 21.5V15C1 14.928 1.00798 14.8578 1.02246 14.79L3.52148 2.7959L3.54297 2.71094C3.66916 2.29225 4.05587 2 4.5 2H19.5L19.5879 2.00391ZM3 20.5H21V16H17.2881L16.5938 18.29C16.466 18.7116 16.0771 18.9998 15.6367 19H8.36328C7.92285 18.9998 7.53399 18.7116 7.40625 18.29L6.71191 16H3V20.5ZM3.22949 14H7.4541C7.89463 14 8.28331 14.2884 8.41113 14.71L9.10547 17H14.8945L15.5889 14.71L15.6484 14.5586C15.8144 14.2209 16.1604 14 16.5459 14H20.7705L18.6875 4H5.3125L3.22949 14ZM16 10C16.5523 10 17 10.4477 17 11C17 11.5523 16.5523 12 16 12H8C7.44772 12 7 11.5523 7 11C7 10.4477 7.44772 10 8 10H16ZM14.5 6C15.0523 6 15.5 6.44772 15.5 7C15.5 7.55228 15.0523 8 14.5 8H9.5C8.94772 8 8.5 7.55228 8.5 7C8.5 6.44772 8.94772 6 9.5 6H14.5Z" fill="#9E9E9E"/>
</g>
</svg>
