<svg width="24" height="24" viewBox="0 0 24 24" fill="none" xmlns="http://www.w3.org/2000/svg">
<g id="icons/Office/inbox-download-r">
<path id="Union" d="M19.5 2C20.8807 2 22 3.11929 22 4.5V14.5C22.5523 14.5 23 14.9477 23 15.5C23 16.0523 22.5523 16.5 22 16.5V19.5C22 20.8807 20.8807 22 19.5 22H4.5C3.11929 22 2 20.8807 2 19.5V16.5C1.44772 16.5 1 16.0523 1 15.5C1 14.9477 1.44772 14.5 2 14.5V4.5C2 3.11929 3.11929 2 4.5 2H19.5ZM4 19.5C4 19.7761 4.22386 20 4.5 20H19.5C19.7761 20 20 19.7761 20 19.5V16.5H17.1182L16.3945 17.9473C16.2251 18.286 15.8788 18.5 15.5 18.5H8.5C8.12123 18.5 7.77486 18.286 7.60547 17.9473L6.88184 16.5H4V19.5ZM4.5 4C4.22386 4 4 4.22386 4 4.5V14.5H7.5L7.64062 14.5098C7.96281 14.5555 8.24637 14.7564 8.39453 15.0527L9.11816 16.5H14.8818L15.6055 15.0527L15.6768 14.9316C15.8617 14.6637 16.1685 14.5 16.5 14.5H20V4.5C20 4.22386 19.7761 4 19.5 4H4.5ZM12 5C12.5523 5 13 5.44772 13 6V11.5859L14.293 10.293C14.6835 9.90244 15.3165 9.90244 15.707 10.293C16.0976 10.6835 16.0976 11.3165 15.707 11.707L12.707 14.707C12.6592 14.7548 12.6065 14.7976 12.5498 14.835C12.5121 14.8599 12.4727 14.8811 12.4326 14.9004C12.3874 14.9222 12.3407 14.9412 12.292 14.9561C12.2717 14.9622 12.251 14.9668 12.2305 14.9717C12.2191 14.9744 12.2078 14.9772 12.1963 14.9795C12.1859 14.9816 12.1754 14.9826 12.165 14.9844C12.1112 14.9933 12.0563 15 12 15C11.9433 15 11.8881 14.9934 11.834 14.9844C11.8236 14.9826 11.8131 14.9816 11.8027 14.9795C11.7912 14.9772 11.7799 14.9744 11.7686 14.9717C11.748 14.9668 11.7273 14.9623 11.707 14.9561C11.6584 14.9412 11.6116 14.9222 11.5664 14.9004C11.5266 14.8812 11.4877 14.8597 11.4502 14.835C11.3935 14.7976 11.3408 14.7548 11.293 14.707L8.29297 11.707C7.90244 11.3165 7.90244 10.6835 8.29297 10.293C8.68349 9.90244 9.31651 9.90244 9.70703 10.293L11 11.5859V6C11 5.44772 11.4477 5 12 5Z" fill="#9E9E9E"/>
</g>
</svg>
