<svg width="24" height="24" viewBox="0 0 24 24" fill="none" xmlns="http://www.w3.org/2000/svg">
<g id="icons/Office/inbox-in">
<path id="Union" d="M19.0879 2.00391C19.5234 2.04207 19.8879 2.36125 19.9785 2.7959L22.4766 14.79C22.4911 14.8578 22.5 14.9279 22.5 15V21.5C22.5 22.0523 22.0523 22.5 21.5 22.5H2.5C1.94772 22.5 1.5 22.0523 1.5 21.5V15C1.5 14.928 1.50798 14.8578 1.52246 14.79L4.02148 2.7959L4.04297 2.71094C4.16916 2.29225 4.55587 2 5 2H19L19.0879 2.00391ZM3.5 20.5H20.5V16H17.2881L16.5938 18.29C16.466 18.7116 16.0771 18.9998 15.6367 19H8.36328C7.92285 18.9998 7.53399 18.7116 7.40625 18.29L6.71191 16H3.5V20.5ZM3.72949 14H7.4541C7.89463 14 8.28331 14.2884 8.41113 14.71L9.10547 17H14.8945L15.5889 14.71L15.6484 14.5586C15.8144 14.2209 16.1604 14 16.5459 14H20.2705L18.1875 4H5.8125L3.72949 14ZM12 6C12.5523 6 13 6.44772 13 7V10.5859L14.293 9.29297C14.6835 8.90244 15.3165 8.90244 15.707 9.29297C16.0976 9.68349 16.0976 10.3165 15.707 10.707L12.707 13.707C12.6592 13.7548 12.6065 13.7976 12.5498 13.835C12.5121 13.8599 12.4727 13.8811 12.4326 13.9004C12.3874 13.9222 12.3407 13.9412 12.292 13.9561C12.2717 13.9622 12.251 13.9668 12.2305 13.9717C12.2191 13.9744 12.2078 13.9772 12.1963 13.9795C12.1859 13.9816 12.1754 13.9826 12.165 13.9844C12.1112 13.9933 12.0563 14 12 14C11.9433 14 11.8881 13.9934 11.834 13.9844C11.8236 13.9826 11.8131 13.9816 11.8027 13.9795C11.7912 13.9772 11.7799 13.9744 11.7686 13.9717C11.748 13.9668 11.7273 13.9623 11.707 13.9561C11.6584 13.9412 11.6116 13.9222 11.5664 13.9004C11.5266 13.8812 11.4877 13.8597 11.4502 13.835C11.3935 13.7976 11.3408 13.7548 11.293 13.707L8.29297 10.707C7.90244 10.3165 7.90244 9.68349 8.29297 9.29297C8.68349 8.90244 9.31651 8.90244 9.70703 9.29297L11 10.5859V7C11 6.44772 11.4477 6 12 6Z" fill="#9E9E9E"/>
</g>
</svg>
