<svg width="24" height="24" viewBox="0 0 24 24" fill="none" xmlns="http://www.w3.org/2000/svg">
<g id="icons/Office/inbox-upload-r">
<path id="Union" d="M19.5 2C20.8807 2 22 3.11929 22 4.5V14.5C22.5523 14.5 23 14.9477 23 15.5C23 16.0523 22.5523 16.5 22 16.5V19.5C22 20.8807 20.8807 22 19.5 22H4.5C3.11929 22 2 20.8807 2 19.5V16.5C1.44772 16.5 1 16.0523 1 15.5C1 14.9477 1.44772 14.5 2 14.5V4.5C2 3.11929 3.11929 2 4.5 2H19.5ZM4 19.5C4 19.7761 4.22386 20 4.5 20H19.5C19.7761 20 20 19.7761 20 19.5V16.5H17.1182L16.3945 17.9473C16.2251 18.286 15.8788 18.5 15.5 18.5H8.5C8.12123 18.5 7.77486 18.286 7.60547 17.9473L6.88184 16.5H4V19.5ZM4.5 4C4.22386 4 4 4.22386 4 4.5V14.5H7.5L7.64062 14.5098C7.96281 14.5555 8.24637 14.7564 8.39453 15.0527L9.11816 16.5H14.8818L15.6055 15.0527L15.6768 14.9316C15.8617 14.6637 16.1685 14.5 16.5 14.5H20V4.5C20 4.22386 19.7761 4 19.5 4H4.5ZM12.0205 5.00098C12.0381 5.00133 12.0557 5.00165 12.0732 5.00293C12.0909 5.00421 12.1085 5.00562 12.126 5.00781C12.1378 5.0093 12.1494 5.01177 12.1611 5.01367C12.1802 5.01676 12.1991 5.02026 12.2178 5.02441C12.2269 5.02645 12.236 5.02895 12.2451 5.03125C12.3141 5.04866 12.3799 5.07357 12.4424 5.10449C12.4746 5.12042 12.5064 5.13761 12.5371 5.15723C12.5449 5.16219 12.5529 5.16671 12.5605 5.17188C12.6122 5.2069 12.6613 5.24722 12.707 5.29297L15.707 8.29297C16.0976 8.68349 16.0976 9.31651 15.707 9.70703C15.3165 10.0976 14.6835 10.0976 14.293 9.70703L13 8.41406V14C13 14.5523 12.5523 15 12 15C11.4477 15 11 14.5523 11 14V8.41406L9.70703 9.70703C9.31651 10.0976 8.68349 10.0976 8.29297 9.70703C7.90244 9.31651 7.90244 8.68349 8.29297 8.29297L11.293 5.29297C11.3548 5.23117 11.4248 5.17778 11.501 5.13379C11.5154 5.12546 11.5302 5.1179 11.5449 5.11035C11.6073 5.0784 11.6731 5.05257 11.7422 5.03418C11.7588 5.02976 11.7753 5.02503 11.792 5.02148C11.803 5.01916 11.8141 5.01758 11.8252 5.01562C11.8427 5.01252 11.8603 5.00998 11.8779 5.00781C11.8957 5.00565 11.9136 5.00415 11.9316 5.00293C11.9476 5.00184 11.9635 5.00131 11.9795 5.00098C11.9863 5.00084 11.9931 5 12 5C12.0069 5 12.0137 5.00084 12.0205 5.00098Z" fill="#9E9E9E"/>
</g>
</svg>
