<svg width="24" height="24" viewBox="0 0 24 24" fill="none" xmlns="http://www.w3.org/2000/svg">
<g id="icons/Office/inbox-r">
<path id="Union" d="M19.5 2C20.8807 2 22 3.11929 22 4.5V14.5C22.5523 14.5 23 14.9477 23 15.5C23 16.0523 22.5523 16.5 22 16.5V19.5C22 20.8807 20.8807 22 19.5 22H4.5C3.11929 22 2 20.8807 2 19.5V16.5C1.44772 16.5 1 16.0523 1 15.5C1 14.9477 1.44772 14.5 2 14.5V4.5C2 3.11929 3.11929 2 4.5 2H19.5ZM4 19.5C4 19.7761 4.22386 20 4.5 20H19.5C19.7761 20 20 19.7761 20 19.5V16.5H17.1182L16.3945 17.9473C16.2251 18.286 15.8788 18.5 15.5 18.5H8.5C8.12123 18.5 7.77486 18.286 7.60547 17.9473L6.88184 16.5H4V19.5ZM4.5 4C4.22386 4 4 4.22386 4 4.5V14.5H7.5L7.64062 14.5098C7.96281 14.5555 8.24637 14.7564 8.39453 15.0527L9.11816 16.5H14.8818L15.6055 15.0527L15.6768 14.9316C15.8617 14.6637 16.1685 14.5 16.5 14.5H20V4.5C20 4.22386 19.7761 4 19.5 4H4.5ZM15.5 10.5C16.0523 10.5 16.5 10.9477 16.5 11.5C16.5 12.0523 16.0523 12.5 15.5 12.5H8.5C7.94772 12.5 7.5 12.0523 7.5 11.5C7.5 10.9477 7.94772 10.5 8.5 10.5H15.5ZM15.5 6.5C16.0523 6.5 16.5 6.94772 16.5 7.5C16.5 8.05228 16.0523 8.5 15.5 8.5H8.5C7.94772 8.5 7.5 8.05228 7.5 7.5C7.5 6.94772 7.94772 6.5 8.5 6.5H15.5Z" fill="#9E9E9E"/>
</g>
</svg>
