<svg width="24" height="24" viewBox="0 0 24 24" fill="none" xmlns="http://www.w3.org/2000/svg">
<g id="icons/Office/increase">
<path id="Union" d="M11.5 2.5C12.0523 2.5 12.5 2.94772 12.5 3.5C12.5 4.05228 12.0523 4.5 11.5 4.5C7.08173 4.5 3.5 8.08173 3.5 12.5C3.5 16.9183 7.08173 20.5 11.5 20.5C15.9183 20.5 19.5 16.9183 19.5 12.5C19.5 11.9477 19.9477 11.5 20.5 11.5C21.0523 11.5 21.5 11.9477 21.5 12.5C21.5 18.0228 17.0228 22.5 11.5 22.5C5.97717 22.5 1.5 18.0228 1.5 12.5C1.5 6.97717 5.97717 2.5 11.5 2.5ZM15.5332 8.50098C15.5505 8.50154 15.5677 8.50245 15.585 8.50391C15.5908 8.5044 15.5967 8.50429 15.6025 8.50488L15.6641 8.51367C15.6693 8.51454 15.6745 8.51565 15.6797 8.5166C15.6981 8.51995 15.7163 8.52398 15.7344 8.52832C15.7471 8.53138 15.7598 8.53451 15.7725 8.53809C15.7926 8.54377 15.8125 8.54976 15.832 8.55664C15.8421 8.56019 15.8523 8.5635 15.8623 8.56738C15.8851 8.57623 15.9068 8.58723 15.9287 8.59766C15.9355 8.60091 15.9424 8.604 15.9492 8.60742C15.9692 8.61749 15.9886 8.62831 16.0078 8.63965C16.0186 8.64603 16.0294 8.65235 16.04 8.65918C16.0574 8.67035 16.0742 8.68215 16.0908 8.69434C16.0985 8.69998 16.1067 8.70504 16.1143 8.71094C16.1186 8.71435 16.1226 8.71821 16.127 8.72168C16.134 8.72734 16.1406 8.73342 16.1475 8.73926C16.1623 8.75189 16.1775 8.76403 16.1914 8.77734L16.207 8.79297C16.2119 8.79786 16.2159 8.8036 16.2207 8.80859C16.2596 8.84901 16.2953 8.89127 16.3262 8.93652C16.3318 8.94472 16.3364 8.95354 16.3418 8.96191C16.3545 8.98181 16.3667 9.00185 16.3779 9.02246C16.4553 9.16445 16.5 9.3269 16.5 9.5V13.5C16.5 14.0523 16.0523 14.5 15.5 14.5C14.9477 14.5 14.5 14.0523 14.5 13.5V12.207C13.4644 13.2792 12.4929 14.0075 11.4375 14.4766C9.81186 15.1991 8.1071 15.25 6 15.25C5.44772 15.25 5 14.8023 5 14.25C5 13.6977 5.44772 13.25 6 13.25C8.1429 13.25 9.43814 13.1759 10.625 12.6484C11.4674 12.274 12.3148 11.64 13.3594 10.5H11.5C10.9477 10.5 10.5 10.0523 10.5 9.5C10.5 8.94772 10.9477 8.5 11.5 8.5H15.5C15.5111 8.5 15.5222 8.50062 15.5332 8.50098ZM21.75 7.5C22.3023 7.5 22.75 7.94772 22.75 8.5C22.75 9.05228 22.3023 9.5 21.75 9.5H19.5C18.9477 9.5 18.5 9.05228 18.5 8.5C18.5 7.94772 18.9477 7.5 19.5 7.5H21.75ZM19.7373 2.79297C20.1278 2.40248 20.7608 2.40255 21.1514 2.79297C21.5419 3.18349 21.5419 3.81651 21.1514 4.20703L19.207 6.15137C18.8165 6.54189 18.1835 6.54189 17.793 6.15137C17.4026 5.76083 17.4025 5.12779 17.793 4.7373L19.7373 2.79297ZM15.5 1.5C16.0523 1.5 16.5 1.94772 16.5 2.5V4.75C16.5 5.30228 16.0523 5.75 15.5 5.75C14.9477 5.75 14.5 5.30228 14.5 4.75V2.5C14.5 1.94772 14.9477 1.5 15.5 1.5Z" fill="#9E9E9E"/>
</g>
</svg>
