<svg width="24" height="24" viewBox="0 0 24 24" fill="none" xmlns="http://www.w3.org/2000/svg">
<g id="icons/Office/inspection">
<path id="Union" d="M16 1.5C16.5523 1.5 17 1.94772 17 2.5V3H20.5C21.6046 3 22.5 3.89544 22.5 5V16.5C22.5 17.0523 22.0523 17.5 21.5 17.5C20.9477 17.5 20.5 17.0523 20.5 16.5V10.5H3.5V20.5H12C12.5523 20.5 13 20.9477 13 21.5C13 22.0523 12.5523 22.5 12 22.5H3.5C2.39544 22.5 1.5 21.6046 1.5 20.5V5C1.5 3.89543 2.39543 3 3.5 3H7V2.5C7 1.94772 7.44772 1.5 8 1.5C8.55228 1.5 9 1.94772 9 2.5V3H15V2.5C15 1.94772 15.4477 1.5 16 1.5ZM15 11.5C17.4853 11.5 19.5 13.5147 19.5 16C19.5 16.7343 19.3227 17.4268 19.0107 18.0391L21.6406 20.2314C22.0648 20.585 22.1221 21.2164 21.7686 21.6406C21.415 22.0648 20.7836 22.1221 20.3594 21.7686L17.7295 19.5762C16.9723 20.155 16.0267 20.5 15 20.5C12.5147 20.5 10.5 18.4853 10.5 16C10.5 13.5147 12.5147 11.5 15 11.5ZM15 13.5C13.6193 13.5 12.5 14.6193 12.5 16C12.5 17.3807 13.6193 18.5 15 18.5C16.3807 18.5 17.5 17.3807 17.5 16C17.5 14.6193 16.3807 13.5 15 13.5ZM3.5 8.5H20.5V5H17V6.5C17 7.05228 16.5523 7.5 16 7.5C15.4477 7.5 15 7.05228 15 6.5V5H9V6.5C9 7.05228 8.55228 7.5 8 7.5C7.44772 7.5 7 7.05228 7 6.5V5H3.5V8.5Z" fill="#9E9E9E"/>
</g>
</svg>
