<svg width="24" height="24" viewBox="0 0 24 24" fill="none" xmlns="http://www.w3.org/2000/svg">
<g id="icons/Office/instruction">
<path id="Union" d="M21 3C22.1046 3 23 3.89543 23 5V19C23 20.1046 22.1046 21 21 21H3C1.89543 21 1 20.1046 1 19V5C1 3.89543 1.89543 3 3 3H21ZM3 19H21V9H3V19ZM7.85938 10.7314C8.28362 10.3779 8.91498 10.4352 9.26855 10.8594C9.62209 11.2836 9.56481 11.915 9.14062 12.2686L6.98145 14.0674L9.20703 16.293C9.59756 16.6835 9.59756 17.3165 9.20703 17.707C8.81651 18.0976 8.18349 18.0976 7.79297 17.707L4.79297 14.707C4.59439 14.5085 4.48836 14.2356 4.50098 13.9551C4.51371 13.6744 4.64359 13.4113 4.85938 13.2314L7.85938 10.7314ZM14.7314 10.8594C15.085 10.4352 15.7164 10.3779 16.1406 10.7314L19.1406 13.2314C19.3564 13.4113 19.4863 13.6744 19.499 13.9551C19.5116 14.2356 19.4056 14.5085 19.207 14.707L16.207 17.707C15.8165 18.0976 15.1835 18.0976 14.793 17.707C14.4024 17.3165 14.4024 16.6835 14.793 16.293L17.0176 14.0674L14.8594 12.2686C14.4352 11.915 14.3779 11.2836 14.7314 10.8594ZM11.5166 11.3213C11.6154 10.7779 12.1354 10.4179 12.6787 10.5166C13.2221 10.6154 13.5821 11.1354 13.4834 11.6787L12.4834 17.1787C12.3846 17.7221 11.8646 18.0821 11.3213 17.9834C10.7779 17.8846 10.4179 17.3646 10.5166 16.8213L11.5166 11.3213ZM3 7H21V5H3V7Z" fill="#9E9E9E"/>
</g>
</svg>
