<svg width="24" height="24" viewBox="0 0 24 24" fill="none" xmlns="http://www.w3.org/2000/svg">
<g id="icons/Office/invalid-files">
<path id="Union" d="M15.5 1C15.7919 1 16.0688 1.12796 16.2588 1.34961L20.7588 6.59961C20.9141 6.78085 21 7.01129 21 7.25V22C21 22.5523 20.5523 23 20 23H4C3.44772 23 3 22.5523 3 22V2C3 1.44772 3.44772 1 4 1H15.5ZM5 21H19V7.61816L15.041 3H5V21ZM12 6.5C13.5945 6.5 15.0454 7.12345 16.1191 8.1377C17.2759 9.23028 18 10.7813 18 12.5C18 15.8137 15.3137 18.5 12 18.5C8.68632 18.5 6 15.8137 6 12.5C6 9.18632 8.68632 6.5 12 6.5ZM8.55371 10.4678C8.49656 10.5645 8.44355 10.6639 8.39453 10.7656C8.14168 11.2903 8 11.8786 8 12.5C8 14.7091 9.79088 16.5 12 16.5C12.6902 16.5 13.3396 16.3253 13.9062 16.0176C13.9486 15.9946 13.9898 15.9698 14.0312 15.9453L8.55371 10.4678ZM12 8.5C11.3098 8.5 10.6604 8.67468 10.0938 8.98242C10.0513 9.00547 10.0093 9.02919 9.96777 9.05371L15.4453 14.5312C15.4698 14.4898 15.4946 14.4486 15.5176 14.4062C15.8253 13.8396 16 13.1902 16 12.5C16 11.3542 15.5194 10.3223 14.7461 9.5918C14.0288 8.91425 13.0637 8.5 12 8.5Z" fill="#9E9E9E"/>
</g>
</svg>
