<svg width="24" height="24" viewBox="0 0 24 24" fill="none" xmlns="http://www.w3.org/2000/svg">
<g id="icons/Office/label">
<path id="Union" d="M19.5 1C20.0523 1 20.5 1.44772 20.5 2V22C20.5 22.3734 20.2915 22.7158 19.96 22.8877C19.6285 23.0594 19.229 23.0324 18.9238 22.8174L12 17.9365L5.07617 22.8174C4.77102 23.0324 4.37149 23.0594 4.04004 22.8877C3.70852 22.7158 3.5 22.3734 3.5 22V2C3.5 1.44772 3.94772 1 4.5 1H19.5ZM5.5 9V20.0713L11.4238 15.8965C11.7692 15.6531 12.2308 15.6531 12.5762 15.8965L18.5 20.0713V9H5.5ZM5.5 7H18.5V3H5.5V7Z" fill="#9E9E9E"/>
</g>
</svg>
