<svg width="24" height="24" viewBox="0 0 24 24" fill="none" xmlns="http://www.w3.org/2000/svg">
<g id="icons/Office/level">
<path id="Union" d="M19.1522 2C19.5439 2 19.8998 2.22865 20.0624 2.58496L22.91 8.83496C23.0709 9.18801 23.013 9.60299 22.7616 9.89844L12.7616 21.6484C12.5716 21.8716 12.293 22 11.9999 22C11.7068 22 11.4281 21.8716 11.2382 21.6484L1.23816 9.89844C0.986792 9.60301 0.92893 9.18796 1.08972 8.83496L3.93738 2.58496L4.00671 2.45801C4.18894 2.17526 4.50466 2.00006 4.84753 2H19.1522ZM3.17371 9.08594L11.9999 19.4561L20.8251 9.08594L18.5087 4H5.49109L3.17371 9.08594ZM15.2528 8.33594C15.6197 7.92319 16.2512 7.8861 16.6639 8.25293C17.0767 8.61985 17.1139 9.25128 16.7469 9.66406L12.7469 14.1641C12.5572 14.3775 12.2855 14.5 11.9999 14.5C11.7143 14.5 11.4425 14.3775 11.2528 14.1641L7.25281 9.66406C6.886 9.25131 6.92315 8.61983 7.33582 8.25293C7.74857 7.88604 8.38002 7.92323 8.74695 8.33594L11.9999 11.9951L15.2528 8.33594Z" fill="#9E9E9E"/>
</g>
</svg>
