<svg width="24" height="24" viewBox="0 0 24 24" fill="none" xmlns="http://www.w3.org/2000/svg">
<g id="icons/Office/link">
<path id="Union" d="M15.1821 4.78271C16.7441 3.22077 19.2763 3.22095 20.8384 4.78271C22.4004 6.34483 22.4005 8.87688 20.8384 10.439L11.9995 19.2778C9.85164 21.4255 6.36998 21.4256 4.22217 19.2778C2.07463 17.13 2.07452 13.6473 4.22217 11.4995L11.646 4.07568C12.0364 3.68526 12.6705 3.68546 13.061 4.07568C13.4511 4.46621 13.4513 5.09935 13.061 5.48975L5.63623 12.9146C4.2697 14.2813 4.26976 16.497 5.63623 17.8638C7.00299 19.2305 9.21863 19.2304 10.5854 17.8638L19.4243 9.0249C20.2053 8.24389 20.2054 6.97786 19.4243 6.19678C18.6433 5.41608 17.3772 5.41583 16.5962 6.19678L7.75732 15.0356C7.56236 15.2309 7.56248 15.5475 7.75732 15.7427L7.83545 15.8071C8.02939 15.9352 8.29347 15.9133 8.46436 15.7427L15.8892 8.31787C16.2796 7.92758 16.9127 7.92772 17.3032 8.31787C17.6937 8.70835 17.6936 9.3414 17.3032 9.73193L9.87842 17.1567C8.96311 18.0718 7.51456 18.1295 6.53271 17.3286L6.34326 17.1567C5.36725 16.1805 5.36728 14.5978 6.34326 13.6216L15.1821 4.78271Z" fill="#9E9E9E"/>
</g>
</svg>
