<svg width="24" height="24" viewBox="0 0 24 24" fill="none" xmlns="http://www.w3.org/2000/svg">
<g id="icons/Office/list-view">
<path id="Union" d="M20.5 2C21.8807 2 23 3.11929 23 4.5V19.5C23 20.8807 21.8807 22 20.5 22H3.5C2.11929 22 1 20.8807 1 19.5V4.5C1 3.11929 2.11929 2 3.5 2H20.5ZM3 19.5C3 19.7761 3.22386 20 3.5 20H20.5C20.7761 20 21 19.7761 21 19.5V8H3V19.5ZM7 15C7.55228 15 8 15.4477 8 16C8 16.5523 7.55228 17 7 17H6C5.44772 17 5 16.5523 5 16C5 15.4477 5.44772 15 6 15H7ZM18 15C18.5523 15 19 15.4477 19 16C19 16.5523 18.5523 17 18 17H10C9.44771 17 9 16.5523 9 16C9 15.4477 9.44771 15 10 15H18ZM7 11C7.55228 11 8 11.4477 8 12C8 12.5523 7.55228 13 7 13H6C5.44772 13 5 12.5523 5 12C5 11.4477 5.44772 11 6 11H7ZM18 11C18.5523 11 19 11.4477 19 12C19 12.5523 18.5523 13 18 13H10C9.44771 13 9 12.5523 9 12C9 11.4477 9.44771 11 10 11H18ZM3.5 4C3.22386 4 3 4.22386 3 4.5V6H21V4.5C21 4.22386 20.7761 4 20.5 4H3.5Z" fill="#9E9E9E"/>
</g>
</svg>
