<svg width="24" height="24" viewBox="0 0 24 24" fill="none" xmlns="http://www.w3.org/2000/svg">
<g id="icons/Office/locking-web">
<path id="Union" d="M19 12.5C20.3807 12.5 21.5 13.6193 21.5 15V15.709C22.3828 16.0948 23 16.975 23 18V19C23 20.3807 21.8807 21.5 20.5 21.5H17.5C16.1193 21.5 15 20.3807 15 19V18C15 16.975 15.6172 16.0948 16.5 15.709V15C16.5 13.6193 17.6193 12.5 19 12.5ZM20.5 3C21.8807 3 23 4.1193 23 5.5V11.5293C23 12.0816 22.5523 12.5293 22 12.5293C21.4477 12.5293 21 12.0816 21 11.5293V11H3V18.5C3 18.7762 3.22385 19 3.5 19H12C12.5523 19 13 19.4477 13 20C13 20.5523 12.5523 21 12 21H3.5C2.1193 21 1 19.8807 1 18.5V5.5C1 4.11929 2.11929 3 3.5 3H20.5ZM17.5 17.5C17.2239 17.5 17 17.7239 17 18V19C17 19.2761 17.2239 19.5 17.5 19.5H20.5C20.7761 19.5 21 19.2761 21 19V18C21 17.7239 20.7761 17.5 20.5 17.5H17.5ZM19 14.5C18.7238 14.5 18.5 14.7238 18.5 15V15.5H19.5V15C19.5 14.7238 19.2762 14.5 19 14.5ZM3.5 5C3.22386 5 3 5.22386 3 5.5V9H21V5.5C21 5.22385 20.7762 5 20.5 5H3.5ZM5 6C5.55228 6 6 6.44772 6 7C6 7.55228 5.55228 8 5 8C4.44772 8 4 7.55228 4 7C4 6.44772 4.44772 6 5 6ZM8 6C8.55228 6 9 6.44772 9 7C9 7.55228 8.55228 8 8 8C7.44772 8 7 7.55228 7 7C7 6.44772 7.44772 6 8 6Z" fill="#9E9E9E"/>
</g>
</svg>
