<svg width="24" height="24" viewBox="0 0 24 24" fill="none" xmlns="http://www.w3.org/2000/svg">
<g id="icons/Office/locking-picture">
<path id="Union" d="M12 2C12.5523 2 13 2.44771 13 3C13 3.55228 12.5523 4 12 4H4.5C4.22386 4 4 4.22386 4 4.5V15.2256L7.6709 11.8613C8.41673 11.1778 9.55607 11.1589 10.3242 11.8174L13.5244 14.5605L15.6797 12.4062C16.3835 11.7025 17.4977 11.6236 18.2939 12.2207L20 13.5V13C20 12.4477 20.4477 12 21 12C21.5523 12 22 12.4477 22 13V19.5C22 20.8807 20.8807 22 19.5 22H4.5C3.11928 22 2 20.8807 2 19.5V4.5C2 3.11928 3.11929 2 4.5 2H12ZM4 17.9395V19.5C4 19.7761 4.22386 20 4.5 20H19.5C19.7761 20 20 19.7761 20 19.5V15.999L17.0938 13.8203L15.0469 15.8662L16.6504 17.2402C17.0697 17.5997 17.1182 18.2311 16.7588 18.6504C16.3994 19.0696 15.7689 19.1181 15.3496 18.7588L9.02246 13.3359L4 17.9395ZM18 2C19.3807 2 20.5 3.11929 20.5 4.5V5.20898C21.3828 5.59484 22 6.47498 22 7.5V8.5C22 9.88071 20.8807 11 19.5 11H16.5C15.1193 11 14 9.88071 14 8.5V7.5C14 6.47498 14.6172 5.59484 15.5 5.20898V4.5C15.5 3.11929 16.6193 2 18 2ZM16.5 7C16.2239 7 16 7.22386 16 7.5V8.5C16 8.77614 16.2239 9 16.5 9H19.5C19.7761 9 20 8.77614 20 8.5V7.5C20 7.22386 19.7761 7 19.5 7H16.5Z" fill="#9E9E9E"/>
</g>
</svg>
