<svg width="24" height="24" viewBox="0 0 24 24" fill="none" xmlns="http://www.w3.org/2000/svg">
<g id="icons/Office/log">
<path id="Union" d="M17.5 1C18.0523 1 18.5 1.44772 18.5 2V4H20.5C21.0523 4 21.5 4.44772 21.5 5V22C21.5 22.5523 21.0523 23 20.5 23H6.5C5.94772 23 5.5 22.5523 5.5 22V20H3.5C2.94772 20 2.5 19.5523 2.5 19V2.5C2.5 1.67158 3.17158 1 4 1H17.5ZM7.5 21H19.5V6H7.5V21ZM4.5 18H5.5V5C5.5 4.44772 5.94772 4 6.5 4H16.5V3H4.5V18ZM16.5 14C17.0523 14 17.5 14.4477 17.5 15C17.5 15.5523 17.0523 16 16.5 16H10.5C9.94772 16 9.5 15.5523 9.5 15C9.5 14.4477 9.94772 14 10.5 14H16.5ZM16.5 10C17.0523 10 17.5 10.4477 17.5 11C17.5 11.5523 17.0523 12 16.5 12H10.5C9.94772 12 9.5 11.5523 9.5 11C9.5 10.4477 9.94772 10 10.5 10H16.5Z" fill="#9E9E9E"/>
</g>
</svg>
