<svg width="24" height="24" viewBox="0 0 24 24" fill="none" xmlns="http://www.w3.org/2000/svg">
<g id="icons/Office/mail-unpacking">
<path id="Union" d="M11.5654 1.09961C11.8854 0.945043 12.2684 0.9707 12.5674 1.17676L22.5674 8.06836C22.8667 8.27472 23.0167 8.61486 22.9961 8.95312C22.9968 8.96866 23 8.98434 23 9V19.9092C22.9999 20.9802 22.1846 22 21 22H3C1.88955 22 1.1039 21.1038 1.00977 20.1094L1 19.9092V9C1 8.98435 1.00221 8.96865 1.00293 8.95312C0.982302 8.61488 1.13329 8.27471 1.43262 8.06836L11.4326 1.17676L11.5654 1.09961ZM17.626 13.7793L17.625 13.7812L12.625 17.7812C12.2598 18.0733 11.7402 18.0733 11.375 17.7812L6.375 13.7812L6.37305 13.7793L3 11.0811V19.9092L3.01074 19.9727C3.01563 19.9851 3.02251 19.9938 3.02734 20H20.9727C20.9836 19.9859 20.9999 19.9564 21 19.9092V11.0811L17.626 13.7793ZM8 12.5176L12 15.7188L16 12.5176V10H8V12.5176ZM3.60352 9.00098L6 10.918V9C6 8.44772 6.44772 8 7 8H17C17.5523 8 18 8.44772 18 9V10.917L20.3955 9.00098L12 3.21387L3.60352 9.00098Z" fill="#9E9E9E"/>
</g>
</svg>
