<svg width="24" height="24" viewBox="0 0 24 24" fill="none" xmlns="http://www.w3.org/2000/svg">
<g id="icons/Office/mail-open">
<path id="Union" d="M11.5654 1.09961C11.8854 0.945043 12.2684 0.9707 12.5674 1.17676L22.5674 8.06836C22.8664 8.27452 23.0164 8.61421 22.9961 8.95215C22.9969 8.96801 23 8.98401 23 9V19.9092C22.9999 20.9802 22.1846 22 21 22H3C1.88955 22 1.1039 21.1038 1.00977 20.1094L1 19.9092V9C1 8.98403 1.00217 8.968 1.00293 8.95215C0.982653 8.61423 1.13357 8.27451 1.43262 8.06836L11.4326 1.17676L11.5654 1.09961ZM12.5449 16.3389C12.2137 16.554 11.7863 16.554 11.4551 16.3389L3 10.8428V19.9092L3.01074 19.9727C3.01563 19.9851 3.02251 19.9938 3.02734 20H20.9727C20.9836 19.9859 20.9999 19.9564 21 19.9092V10.8428L12.5449 16.3389ZM3.7168 8.92285L12 14.3066L20.2822 8.92285L12 3.21387L3.7168 8.92285Z" fill="#9E9E9E"/>
</g>
</svg>
