<svg width="24" height="24" viewBox="0 0 24 24" fill="none" xmlns="http://www.w3.org/2000/svg">
<g id="icons/Office/mail-download">
<path id="Union" d="M19 2C19.5523 2 20 2.44772 20 3V8H22C22.0082 8 22.0163 8.00078 22.0244 8.00098C22.0388 8.00134 22.0531 8.00196 22.0674 8.00293C22.0904 8.00446 22.1132 8.0067 22.1357 8.00977C22.1413 8.01053 22.1468 8.01184 22.1523 8.0127C22.176 8.01632 22.1995 8.02013 22.2227 8.02539C22.2331 8.02778 22.2435 8.03048 22.2539 8.0332C22.3353 8.05453 22.4124 8.08603 22.4844 8.12598C22.5016 8.13551 22.5185 8.14566 22.5352 8.15625C22.5475 8.16411 22.5603 8.17131 22.5723 8.17969C22.5884 8.19094 22.6036 8.20354 22.6191 8.21582C22.6266 8.22172 22.6343 8.22729 22.6416 8.2334C22.6583 8.24741 22.6745 8.26211 22.6904 8.27734C22.6998 8.28626 22.7088 8.29542 22.7178 8.30469C22.7299 8.31723 22.7414 8.33046 22.7529 8.34375C22.7649 8.35752 22.7768 8.37133 22.7881 8.38574C22.7919 8.39066 22.796 8.39538 22.7998 8.40039C22.8026 8.40415 22.8049 8.40832 22.8076 8.41211C22.8208 8.43014 22.8328 8.44886 22.8447 8.46777C22.8523 8.47982 22.8602 8.49164 22.8672 8.50391C22.8943 8.55113 22.9173 8.60068 22.9365 8.65234C22.9395 8.66047 22.9425 8.66858 22.9453 8.67676C22.9515 8.69475 22.9568 8.713 22.9619 8.73145C22.9665 8.74801 22.9709 8.76455 22.9746 8.78125C22.9777 8.79518 22.9809 8.8091 22.9834 8.82324C22.9861 8.8385 22.9882 8.85381 22.9902 8.86914C22.9958 8.91202 23 8.95559 23 9V21C23 21.5523 22.5523 22 22 22H2C1.44772 22 1 21.5523 1 21V9C1 8.95563 1.00319 8.91198 1.00879 8.86914C1.0108 8.85383 1.0129 8.83849 1.01562 8.82324C1.01815 8.80911 1.02131 8.79517 1.02441 8.78125C1.02815 8.76456 1.0325 8.74799 1.03711 8.73145C1.04224 8.71302 1.04757 8.69474 1.05371 8.67676C1.05651 8.66859 1.05948 8.66046 1.0625 8.65234C1.08165 8.60072 1.10481 8.5511 1.13184 8.50391C1.13886 8.49165 1.1467 8.47982 1.1543 8.46777C1.16622 8.44887 1.17828 8.43013 1.19141 8.41211C1.19427 8.40817 1.19726 8.4043 1.2002 8.40039C1.20383 8.39554 1.20723 8.39051 1.21094 8.38574C1.22217 8.37133 1.2341 8.35751 1.24609 8.34375C1.25764 8.33046 1.26914 8.31723 1.28125 8.30469C1.29021 8.29542 1.29928 8.28626 1.30859 8.27734C1.32447 8.26211 1.34074 8.24741 1.35742 8.2334C1.3647 8.22729 1.37243 8.22172 1.37988 8.21582C1.39561 8.20337 1.4114 8.19109 1.42773 8.17969C1.43949 8.17147 1.45175 8.16397 1.46387 8.15625C1.48055 8.14565 1.49745 8.13552 1.51465 8.12598C1.56318 8.09897 1.61393 8.07537 1.66699 8.05664C1.66951 8.05575 1.67228 8.05555 1.6748 8.05469C1.73008 8.03568 1.7875 8.02181 1.84668 8.0127C1.85223 8.01183 1.85772 8.01053 1.86328 8.00977C1.88584 8.00668 1.90862 8.00448 1.93164 8.00293C1.94594 8.00194 1.96027 8.00135 1.97461 8.00098C1.98305 8.00077 1.99151 8 2 8H4V3L4.00488 2.89746C4.05621 2.39333 4.48232 2 5 2H19ZM12.5996 17.2998C12.2441 17.5663 11.7559 17.5663 11.4004 17.2998L3 10.999V20H21V10.999L12.5996 17.2998Z" fill="#9E9E9E"/>
</g>
</svg>
