<svg width="24" height="24" viewBox="0 0 24 24" fill="none" xmlns="http://www.w3.org/2000/svg">
<g id="icons/Office/mail-review">
<path id="Union" d="M17 1.5C17.5523 1.5 18 1.94772 18 2.5V7.9209L22.5674 11.0693C22.8661 11.2753 23.0159 11.6146 22.9961 11.9521C22.9969 11.9681 23 11.9839 23 12V20.4092C23 21.4803 22.1847 22.5 21 22.5H3C1.81535 22.5 1.00004 21.4803 1 20.4092V12C1 11.984 1.00217 11.9681 1.00293 11.9521C0.9831 11.6146 1.13391 11.2753 1.43262 11.0693L6 7.9209V2.5C6 1.94772 6.44772 1.5 7 1.5H17ZM12.5449 19.3389C12.2136 19.5541 11.7864 19.5541 11.4551 19.3389L3 13.8428V20.4092C3.00002 20.4565 3.01634 20.4859 3.02734 20.5H20.9727C20.9837 20.4859 21 20.4565 21 20.4092V13.8428L12.5449 19.3389ZM8 14.7061L12 17.3066L16 14.7061V3.5H8V14.7061ZM3.7168 11.9229L6 13.4062V10.3486L3.7168 11.9229ZM18 13.4062L20.2822 11.9229L18 10.3496V13.4062ZM14 8.5C14.5523 8.5 15 8.94772 15 9.5C15 10.0523 14.5523 10.5 14 10.5H10C9.44771 10.5 9 10.0523 9 9.5C9 8.94772 9.44771 8.5 10 8.5H14ZM12 5.5C12.5523 5.5 13 5.94772 13 6.5C13 7.05228 12.5523 7.5 12 7.5H10C9.44771 7.5 9 7.05228 9 6.5C9 5.94772 9.44771 5.5 10 5.5H12Z" fill="#9E9E9E"/>
</g>
</svg>
