<svg width="24" height="24" viewBox="0 0 24 24" fill="none" xmlns="http://www.w3.org/2000/svg">
<g id="icons/Office/mail-package">
<path id="Union" d="M22.0244 8.00098C22.0388 8.00134 22.0531 8.00196 22.0674 8.00293C22.0904 8.00446 22.1132 8.0067 22.1357 8.00977C22.1413 8.01053 22.1468 8.01184 22.1523 8.0127C22.176 8.01632 22.1995 8.02013 22.2227 8.02539C22.2331 8.02778 22.2435 8.03048 22.2539 8.0332C22.3004 8.04539 22.346 8.05967 22.3896 8.07812C22.4195 8.09077 22.4482 8.10571 22.4766 8.12109C22.4793 8.12256 22.4817 8.12449 22.4844 8.12598C22.5016 8.13551 22.5185 8.14566 22.5352 8.15625C22.5475 8.16411 22.5603 8.17131 22.5723 8.17969C22.5884 8.19094 22.6036 8.20354 22.6191 8.21582C22.6266 8.22172 22.6343 8.22729 22.6416 8.2334C22.6583 8.24741 22.6745 8.26211 22.6904 8.27734C22.6998 8.28626 22.7088 8.29542 22.7178 8.30469C22.7299 8.31723 22.7414 8.33046 22.7529 8.34375C22.7649 8.35752 22.7768 8.37133 22.7881 8.38574C22.7919 8.39066 22.796 8.39538 22.7998 8.40039C22.8023 8.40378 22.8041 8.40772 22.8066 8.41113C22.8215 8.4314 22.8353 8.45225 22.8486 8.47363C22.8549 8.48373 22.8613 8.49367 22.8672 8.50391C22.871 8.51049 22.8753 8.51676 22.8789 8.52344C22.8943 8.55175 22.9092 8.58047 22.9219 8.61035C22.9283 8.62558 22.9328 8.64162 22.9385 8.65723C22.9401 8.66178 22.9418 8.66633 22.9434 8.6709C22.9512 8.69331 22.9576 8.71615 22.9639 8.73926C22.9676 8.75325 22.9715 8.76716 22.9746 8.78125C22.9777 8.79518 22.9809 8.8091 22.9834 8.82324C22.9861 8.8385 22.9882 8.85381 22.9902 8.86914C22.9915 8.8786 22.9941 8.88792 22.9951 8.89746C22.9985 8.93116 23 8.96539 23 9V21C23 21.5523 22.5523 22 22 22H2C1.44772 22 1 21.5523 1 21V9C1 8.96539 1.00145 8.93116 1.00488 8.89746C1.00585 8.88796 1.00756 8.87856 1.00879 8.86914C1.0108 8.85383 1.0129 8.83849 1.01562 8.82324C1.01815 8.80911 1.02131 8.79517 1.02441 8.78125C1.02815 8.76456 1.0325 8.74799 1.03711 8.73145C1.04224 8.71302 1.04757 8.69474 1.05371 8.67676C1.05651 8.66859 1.05948 8.66046 1.0625 8.65234C1.0677 8.63832 1.07232 8.62407 1.07812 8.61035C1.09077 8.58047 1.10571 8.55175 1.12109 8.52344C1.12464 8.5169 1.12814 8.51035 1.13184 8.50391C1.13886 8.49165 1.1467 8.47982 1.1543 8.46777C1.16622 8.44887 1.17828 8.43013 1.19141 8.41211C1.19427 8.40817 1.19726 8.4043 1.2002 8.40039C1.20383 8.39554 1.20723 8.39051 1.21094 8.38574C1.22217 8.37133 1.2341 8.35751 1.24609 8.34375C1.25764 8.33046 1.26914 8.31723 1.28125 8.30469C1.29021 8.29542 1.29928 8.28626 1.30859 8.27734C1.32447 8.26211 1.34074 8.24741 1.35742 8.2334C1.3647 8.22729 1.37243 8.22172 1.37988 8.21582C1.39561 8.20337 1.4114 8.19109 1.42773 8.17969C1.43949 8.17147 1.45175 8.16397 1.46387 8.15625C1.48055 8.14565 1.49745 8.13552 1.51465 8.12598C1.51758 8.12435 1.52049 8.12269 1.52344 8.12109C1.55175 8.10571 1.58047 8.09077 1.61035 8.07812C1.62889 8.07028 1.6479 8.06338 1.66699 8.05664C1.66951 8.05575 1.67228 8.05555 1.6748 8.05469C1.73008 8.03568 1.7875 8.02181 1.84668 8.0127C1.85223 8.01183 1.85772 8.01053 1.86328 8.00977C1.88584 8.00668 1.90862 8.00448 1.93164 8.00293C1.94594 8.00194 1.96027 8.00135 1.97461 8.00098C1.98305 8.00077 1.99151 8 2 8H22C22.0082 8 22.0163 8.00078 22.0244 8.00098ZM12.5996 17.2998C12.2441 17.5663 11.7559 17.5663 11.4004 17.2998L3 10.999V20H21V10.999L12.5996 17.2998ZM12 15.25L19 10H5L12 15.25ZM18 5C18.5523 5 19 5.44772 19 6C19 6.55228 18.5523 7 18 7H6C5.44772 7 5 6.55228 5 6C5 5.44772 5.44772 5 6 5H18ZM16 2C16.5523 2 17 2.44772 17 3C17 3.55228 16.5523 4 16 4H8C7.44772 4 7 3.55228 7 3C7 2.44772 7.44772 2 8 2H16Z" fill="#9E9E9E"/>
</g>
</svg>
