<svg width="24" height="24" viewBox="0 0 24 24" fill="none" xmlns="http://www.w3.org/2000/svg">
<g id="icons/Office/market-analysis">
<path id="Union" d="M20.5 3C21.8807 3 23 4.1193 23 5.5V18.5C23 19.8807 21.8807 21 20.5 21H6C5.44772 21 5 20.5523 5 20C5 19.4477 5.44772 19 6 19H20.5C20.7762 19 21 18.7762 21 18.5V11H3V13.5C3 14.0523 2.55228 14.5 2 14.5C1.44772 14.5 1 14.0523 1 13.5V5.5C1 4.11929 2.11929 3 3.5 3H20.5ZM14.8721 12.1865C15.2617 11.9069 15.8023 11.9431 16.1523 12.2842L18.3936 14.4678C18.7888 14.8533 18.7965 15.4864 18.4111 15.8818C18.0257 16.2772 17.3925 16.2857 16.9971 15.9004L15.417 14.3604L12.0908 17.2676C11.7008 17.6084 11.1153 17.5955 10.7412 17.2373L8.16211 14.7666L2.7666 20.2188C2.37811 20.6112 1.74506 20.614 1.35254 20.2256C0.960052 19.8371 0.956292 19.204 1.34473 18.8115L7.43262 12.6611L7.50781 12.5928C7.89422 12.2738 8.46546 12.2887 8.83496 12.6426L11.4639 15.1592L14.7969 12.2471L14.8721 12.1865ZM3.5 5C3.22386 5 3 5.22386 3 5.5V9H21V5.5C21 5.22385 20.7762 5 20.5 5H3.5ZM6.55566 6C7.10795 6 7.55566 6.44772 7.55566 7C7.55566 7.55228 7.10795 8 6.55566 8H5.55566C5.00338 8 4.55566 7.55228 4.55566 7C4.55566 6.44772 5.00338 6 5.55566 6H6.55566ZM18.5557 6C19.1079 6 19.5557 6.44772 19.5557 7C19.5557 7.55228 19.1079 8 18.5557 8H9.55566C9.00349 7.99987 8.55566 7.5522 8.55566 7C8.55566 6.4478 9.00349 6.00013 9.55566 6H18.5557Z" fill="#9E9E9E"/>
</g>
</svg>
