<svg width="24" height="24" viewBox="0 0 24 24" fill="none" xmlns="http://www.w3.org/2000/svg">
<g id="icons/Office/new-picture">
<path id="Union" d="M19.5 2C20.8807 2 22 3.11929 22 4.5V19.5C22 20.8807 20.8807 22 19.5 22H4.5C3.11929 22 2 20.8807 2 19.5V4.5C2 3.11929 3.11929 2 4.5 2H19.5ZM4 14.4395V19.5C4 19.7761 4.22386 20 4.5 20H19.5C19.7761 20 20 19.7761 20 19.5V12.499L17.0938 10.3203L15.0469 12.3662L16.6504 13.7402C17.0697 14.0997 17.1182 14.7311 16.7588 15.1504C16.3994 15.5696 15.7689 15.6181 15.3496 15.2588L9.02246 9.83594L4 14.4395ZM4.5 4C4.22386 4 4 4.22386 4 4.5V11.7256L7.6709 8.36133C8.41673 7.6778 9.55607 7.65893 10.3242 8.31738L13.5244 11.0605L15.6797 8.90625C16.3835 8.20248 17.4977 8.12356 18.2939 8.7207L20 10V4.5C20 4.22386 19.7761 4 19.5 4H4.5Z" fill="#9E9E9E"/>
</g>
</svg>
