<svg width="24" height="24" viewBox="0 0 24 24" fill="none" xmlns="http://www.w3.org/2000/svg">
<g id="icons/Office/newspaper-folding">
<path id="Union" d="M12.5 1C13.0043 1 13.4296 1.37555 13.4922 1.87598L13.8828 5H21C21.5523 5 22 5.44772 22 6V22C22 22.5523 21.5523 23 21 23H11C10.9951 23 10.9902 22.9981 10.9854 22.998C10.9464 22.9975 10.9081 22.9952 10.8701 22.9902C10.8613 22.9891 10.8525 22.9877 10.8438 22.9863C10.8017 22.9797 10.7601 22.9718 10.7197 22.96C10.7127 22.9579 10.7062 22.9543 10.6992 22.9521C10.6615 22.9402 10.6247 22.9264 10.5889 22.9102C10.585 22.9084 10.581 22.9071 10.5771 22.9053C10.4978 22.8681 10.4242 22.8207 10.3574 22.7646C10.3498 22.7583 10.3424 22.7517 10.335 22.7451C10.2801 22.6962 10.2297 22.6422 10.1865 22.582L10.1592 22.541C10.1578 22.5388 10.1567 22.5364 10.1553 22.5342C10.1073 22.4585 10.0694 22.3757 10.043 22.2871C10.0405 22.279 10.0384 22.2708 10.0361 22.2627C10.0239 22.2177 10.0138 22.1716 10.0078 22.124L9.61719 19H3C2.44772 19 2 18.5523 2 18V2C2 1.44772 2.44772 1 3 1H12.5ZM14.3828 9H16.5C17.0523 9 17.5 9.44771 17.5 10C17.5 10.5523 17.0523 11 16.5 11H14.6328L14.8828 13H16.5C17.0523 13 17.5 13.4477 17.5 14C17.5 14.5523 17.0523 15 16.5 15H15.1328L15.4922 17.876C15.5119 18.0337 15.492 18.1915 15.4395 18.3379C15.4266 18.3736 15.4114 18.4083 15.3945 18.4424C15.3607 18.5109 15.3199 18.5759 15.2705 18.6357C15.2645 18.6431 15.2592 18.651 15.2529 18.6582L13.2041 21H20V7H14.1328L14.3828 9ZM11.7148 19.6631L12.2949 19H11.6318L11.7148 19.6631ZM4 17H13.3672L12.0078 6.12402L11.6172 3H4V17ZM10.5 13C11.0523 13 11.5 13.4477 11.5 14C11.5 14.5523 11.0523 15 10.5 15H6C5.44772 15 5 14.5523 5 14C5 13.4477 5.44772 13 6 13H10.5ZM10 9C10.5523 9 11 9.44771 11 10C11 10.5523 10.5523 11 10 11H6C5.44772 11 5 10.5523 5 10C5 9.44771 5.44772 9 6 9H10ZM9.5 5C10.0523 5 10.5 5.44772 10.5 6C10.5 6.55228 10.0523 7 9.5 7H6C5.44772 7 5 6.55228 5 6C5 5.44772 5.44772 5 6 5H9.5Z" fill="#9E9E9E"/>
</g>
</svg>
