<svg width="24" height="24" viewBox="0 0 24 24" fill="none" xmlns="http://www.w3.org/2000/svg">
<g id="icons/Office/notes">
<path id="Union" d="M15.0986 1.00488C15.3276 1.02757 15.5429 1.12883 15.707 1.29297L20.707 6.29297C20.8946 6.4805 21 6.73478 21 7V21C21 22.1046 20.1046 23 19 23H5C3.89544 23 3 22.1046 3 21V3C3 1.89543 3.89543 1 5 1H15L15.0986 1.00488ZM5 21H19V7.41406L14.5859 3H5V21ZM16 13C16.5523 13 17 13.4477 17 14C17 14.5523 16.5523 15 16 15H8C7.44772 15 7 14.5523 7 14C7 13.4477 7.44772 13 8 13H16ZM16 9C16.5523 9 17 9.44771 17 10C17 10.5523 16.5523 11 16 11H8C7.44772 11 7 10.5523 7 10C7 9.44771 7.44772 9 8 9H16Z" fill="#9E9E9E"/>
</g>
</svg>
