<svg width="24" height="24" viewBox="0 0 24 24" fill="none" xmlns="http://www.w3.org/2000/svg">
<g id="icons/Office/notebook-one">
<path id="Union" d="M19 1C20.1046 1 21 1.89544 21 3V21C21 22.1046 20.1046 23 19 23H5C4.9637 23 4.92787 22.9979 4.89258 22.9941C3.83804 22.9382 3 22.0685 3 21V3C3 1.9315 3.83801 1.06075 4.89258 1.00488C4.92784 1.00112 4.96374 1 5 1H19ZM5 21H7V3H5V21ZM9 21H19V3H9V21ZM16 9C16.5523 9 17 9.44771 17 10C17 10.5523 16.5523 11 16 11H12C11.4477 11 11 10.5523 11 10C11 9.44771 11.4477 9 12 9H16ZM16 5C16.5523 5 17 5.44772 17 6C17 6.55228 16.5523 7 16 7H12C11.4477 7 11 6.55228 11 6C11 5.44772 11.4477 5 12 5H16Z" fill="#9E9E9E"/>
</g>
</svg>
