<svg width="24" height="24" viewBox="0 0 24 24" fill="none" xmlns="http://www.w3.org/2000/svg">
<g id="icons/Office/notepad">
<path id="Union" d="M12.5 0.5C13.8807 0.5 15 1.6193 15 3H19.5C20.3284 3 21 3.67159 21 4.5V21.5C21 22.3284 20.3284 23 19.5 23H5.5C4.67157 23 4 22.3284 4 21.5V4.5C4 3.67159 4.67155 3 5.5 3H10C10 1.6193 11.1193 0.5 12.5 0.5ZM6 5V21H19V5H17V6.5C17 7.32843 16.3284 8 15.5 8H9.5C8.67157 8 8 7.32843 8 6.5V5H6ZM12.5 2.5C12.2238 2.5 12 2.72385 12 3V3.97559C11.9998 4.54179 11.5407 4.99982 10.9756 5H10V6H15V5H14.0244C13.4593 4.99982 13.0002 4.54179 13 3.97559V3C13 2.72385 12.7762 2.5 12.5 2.5Z" fill="#9E9E9E"/>
</g>
</svg>
