<svg width="24" height="24" viewBox="0 0 24 24" fill="none" xmlns="http://www.w3.org/2000/svg">
<g id="icons/Office/notebook">
<path id="Union" d="M20 1C21.1046 1 22 1.89544 22 3V21C22 22.1046 21.1046 23 20 23H6C4.89542 23 4 22.1046 4 21V18H3C2.44772 18 2 17.5523 2 17C2 16.4477 2.44772 16 3 16H4V13H3C2.44772 13 2 12.5523 2 12C2 11.4477 2.44772 11 3 11H4V8H3C2.44772 8 2 7.55228 2 7C2 6.44772 2.44772 6 3 6H4V3C4 1.89544 4.89541 1 6 1H20ZM6 6H7C7.55228 6 8 6.44772 8 7C8 7.55228 7.55228 8 7 8H6V11H7C7.55228 11 8 11.4477 8 12C8 12.5523 7.55228 13 7 13H6V16H7C7.55228 16 8 16.4477 8 17C8 17.5523 7.55228 18 7 18H6V21H16V3H6V6ZM18 21H20V3H18V21Z" fill="#9E9E9E"/>
</g>
</svg>
