<svg width="24" height="24" viewBox="0 0 24 24" fill="none" xmlns="http://www.w3.org/2000/svg">
<g id="icons/Office/notebook-and-pen">
<path id="Union" d="M15 2C15.5523 2 16 2.44772 16 3V21C16 21.5523 15.5523 22 15 22H2C1.44772 22 1 21.5523 1 21V3C1 2.44772 1.44772 2 2 2H15ZM22 2C22.5523 2 23 2.44772 23 3V19C23 19.2652 22.8946 19.5195 22.707 19.707L20.707 21.707C20.3165 22.0976 19.6835 22.0976 19.293 21.707L17.293 19.707C17.1054 19.5195 17 19.2652 17 19V3C17 2.44772 17.4477 2 18 2H22ZM3 20H5V4H3V20ZM7 20H14V4H7V20ZM19 18.5859L20 19.5859L21 18.5859V7H19V18.5859ZM19 5H21V4H19V5Z" fill="#9E9E9E"/>
</g>
</svg>
