<svg width="24" height="24" viewBox="0 0 24 24" fill="none" xmlns="http://www.w3.org/2000/svg">
<g id="icons/Office/optimize">
<path id="Union" d="M8.99597 3.13721C9.36957 2.91926 9.84066 2.96606 10.1639 3.25342L14.12 6.77002L18.5096 4.19287C18.8866 3.97165 19.3635 4.02139 19.6874 4.31494C20.0111 4.60855 20.107 5.07835 19.9237 5.4751L17.7177 10.2456L21.6639 13.7534C21.9855 14.0393 22.0882 14.4985 21.9188 14.894C21.7492 15.2893 21.3455 15.5322 20.9169 15.4966L15.621 15.0552L13.662 19.4106C13.4855 19.8023 13.0778 20.0383 12.6503 19.9956C12.2228 19.9527 11.8697 19.6411 11.7743 19.2222L10.9257 15.4907L4.70789 21.7173C4.31765 22.1077 3.68354 22.1083 3.29285 21.7183C2.90248 21.3282 2.90226 20.695 3.29187 20.3042L9.26941 14.3169L5.41687 13.9966C4.98524 13.9605 4.62536 13.6506 4.52625 13.229C4.4274 12.8073 4.61191 12.3694 4.9823 12.145L9.62585 9.3374L8.52234 4.21143C8.43135 3.7888 8.62275 3.35527 8.99597 3.13721ZM11.7313 9.61475C11.8209 10.0318 11.6363 10.4604 11.2714 10.6812L8.6571 12.2603L11.5634 12.5024C11.6205 12.506 11.6773 12.5145 11.7333 12.5278L11.7421 12.5298C11.7446 12.5304 11.7474 12.5311 11.7499 12.5317C11.7886 12.5417 11.8266 12.5542 11.8641 12.5688C11.868 12.5703 11.872 12.5712 11.8759 12.5728C11.9143 12.5883 11.9515 12.6069 11.9882 12.6274C11.9953 12.6314 12.0026 12.635 12.0096 12.6392C12.0381 12.656 12.0656 12.6749 12.0927 12.6948C12.1015 12.7013 12.1104 12.7076 12.119 12.7144C12.1494 12.7384 12.1788 12.7645 12.2069 12.7925C12.2397 12.8253 12.2694 12.86 12.2968 12.896C12.3001 12.9005 12.3032 12.9051 12.3065 12.9097C12.3588 12.981 12.4005 13.0573 12.4315 13.1372C12.4336 13.1427 12.4353 13.1483 12.4374 13.1538C12.4576 13.2088 12.474 13.2647 12.4843 13.3218L13.0624 15.8677L14.0878 13.5903L14.163 13.4526C14.3615 13.1492 14.7134 12.9737 15.0829 13.0044L18.0927 13.2544L15.8348 11.2476C15.5059 10.9548 15.4072 10.4804 15.5917 10.0806L16.7684 7.53369L14.5057 8.86279C14.132 9.08186 13.6587 9.03543 13.3348 8.74756L11.121 6.77881L11.7313 9.61475Z" fill="#9E9E9E"/>
</g>
</svg>
