<svg width="24" height="24" viewBox="0 0 24 24" fill="none" xmlns="http://www.w3.org/2000/svg">
<g id="icons/Office/order">
<path id="Union" d="M15.5 1C16.0523 1 16.5 1.44772 16.5 2V2.5H19C20.1046 2.5 21 3.39544 21 4.5V21C21 22.1046 20.1046 23 19 23H5C3.89544 23 3 22.1046 3 21V4.5C3 3.39543 3.89543 2.5 5 2.5H7.5V2C7.5 1.44772 7.94772 1 8.5 1H15.5ZM5 21H19V4.5H16.5V5L16.4951 5.10254C16.4852 5.2002 16.4608 5.29357 16.4248 5.38086C16.4196 5.39354 16.413 5.40556 16.4072 5.41797C16.3863 5.46328 16.3622 5.50651 16.335 5.54785C16.3283 5.55806 16.3215 5.56818 16.3145 5.57812C16.3022 5.5954 16.2897 5.61247 16.2764 5.62891C16.272 5.63429 16.2672 5.63924 16.2627 5.64453C16.2476 5.66233 16.2321 5.67959 16.2158 5.69629C16.2094 5.7029 16.2029 5.70939 16.1963 5.71582C16.1784 5.7332 16.1598 5.74961 16.1406 5.76562C16.1369 5.76873 16.1336 5.77234 16.1299 5.77539C16.1122 5.78977 16.0939 5.80324 16.0752 5.81641C16.0652 5.82344 16.0552 5.83024 16.0449 5.83691C16.0258 5.84936 16.0063 5.86092 15.9863 5.87207C15.9814 5.87485 15.9767 5.87816 15.9717 5.88086C15.9545 5.89008 15.9367 5.89803 15.9189 5.90625C15.9024 5.9139 15.8861 5.92195 15.8691 5.92871C15.864 5.93077 15.8587 5.9326 15.8535 5.93457C15.8298 5.94355 15.8058 5.9518 15.7812 5.95898C15.7362 5.97216 15.69 5.98151 15.6426 5.98828C15.5959 5.99495 15.5485 6 15.5 6H8.5C7.94772 6 7.5 5.55228 7.5 5V4.5H5V21ZM12.793 8.79297C13.1835 8.40258 13.8165 8.40254 14.207 8.79297C14.5974 9.18346 14.5974 9.81652 14.207 10.207L11.9141 12.501H14.502C14.9065 12.501 15.271 12.7444 15.4258 13.1182C15.5805 13.4919 15.495 13.9221 15.209 14.208L11.207 18.208C10.8165 18.5984 10.1834 18.5985 9.79297 18.208C9.4026 17.8175 9.40262 17.1844 9.79297 16.7939L12.0869 14.501H9.5C9.0957 14.501 8.73106 14.2572 8.57617 13.8838C8.4214 13.5102 8.50711 13.08 8.79297 12.7939L12.793 8.79297ZM9.5 4H14.5V3H9.5V4Z" fill="#9E9E9E"/>
</g>
</svg>
