<svg width="24" height="24" viewBox="0 0 24 24" fill="none" xmlns="http://www.w3.org/2000/svg">
<g id="icons/Office/paperclip">
<path id="Union" d="M15.6355 1.5874C17.2487 1.53537 19.0301 2.05948 20.4851 3.51416C21.9401 4.96912 22.4648 6.75051 22.4128 8.36377C22.3619 9.94308 21.7546 11.437 20.8386 12.353C20.1315 13.0602 18.3641 14.8285 16.7732 16.4194C15.9778 17.2148 15.226 17.9657 14.6736 18.5181L14.0134 19.1782C13.9347 19.2569 13.8735 19.3191 13.8318 19.3608C13.8111 19.3815 13.7947 19.397 13.7839 19.4077C13.7787 19.413 13.7749 19.4177 13.7722 19.4204L13.7683 19.4243H13.7673C13.3768 19.8146 12.7437 19.8148 12.3533 19.4243C11.9632 19.0338 11.9631 18.4007 12.3533 18.0103H12.3542V18.0093C12.3549 18.0086 12.3568 18.0077 12.3582 18.0063C12.3609 18.0036 12.3646 17.9989 12.3699 17.9937C12.3806 17.9829 12.397 17.9675 12.4177 17.9468C12.4595 17.905 12.5207 17.8428 12.5994 17.7642L13.2595 17.104C13.8119 16.5516 14.5637 15.8008 15.3591 15.0054C16.9501 13.4144 18.7174 11.6461 19.4246 10.939C19.9227 10.4407 20.3764 9.45997 20.4138 8.29932C20.4501 7.17273 20.0907 5.94892 19.071 4.9292C18.0512 3.90948 16.8266 3.55008 15.7 3.58643C14.5396 3.62402 13.5584 4.07756 13.0603 4.57568C11.6449 5.99114 4.22143 13.4146 3.5144 14.1216C3.33742 14.299 2.98842 14.8707 2.91968 15.6255C2.85635 16.3221 3.0312 17.1733 3.86792 18.0103C4.70485 18.8472 5.55604 19.0218 6.25269 18.9585C7.00819 18.8898 7.5806 18.5407 7.75757 18.3638L16.95 9.17139L17.0066 9.10596C17.1433 8.92903 17.2943 8.59207 17.322 8.17725C17.3519 7.72862 17.2293 7.3298 16.95 7.05029C16.6705 6.77091 16.2717 6.64831 15.823 6.67822C15.3494 6.70987 14.9772 6.90201 14.8289 7.05029L8.37085 13.5083C8.28807 13.5911 8.22264 13.6555 8.17847 13.6997C8.15651 13.7217 8.14004 13.7391 8.12866 13.7505C8.123 13.7561 8.11787 13.7603 8.11499 13.7632L8.11108 13.7671V13.7681C7.72066 14.1582 7.08749 14.1582 6.69702 13.7681C6.30669 13.3776 6.30664 12.7435 6.69702 12.353L6.7644 12.2856C6.80858 12.2415 6.87401 12.177 6.95679 12.0942C7.1225 11.9285 7.35999 11.6901 7.64722 11.4028C8.22168 10.8284 8.99547 10.0556 9.79077 9.26025C11.3811 7.66995 13.0593 5.99079 13.4138 5.63623C13.9725 5.07751 14.8383 4.73897 15.6902 4.68213C16.5671 4.62371 17.5829 4.85526 18.364 5.63623C19.145 6.41736 19.3756 7.43309 19.3171 8.31006C19.2603 9.1619 18.9227 10.0267 18.364 10.5854L9.17163 19.7778C8.64138 20.308 7.62218 20.8426 6.43335 20.9507C5.18562 21.064 3.73794 20.7084 2.45386 19.4243C1.16987 18.1401 0.814064 16.6926 0.92749 15.4448C1.03558 14.256 1.57015 13.2368 2.10034 12.7065C2.80809 11.9988 10.2319 4.575 11.6462 3.16064C12.5621 2.24482 14.0564 1.6385 15.6355 1.5874Z" fill="#9E9E9E"/>
</g>
</svg>
