<svg width="24" height="24" viewBox="0 0 24 24" fill="none" xmlns="http://www.w3.org/2000/svg">
<g id="icons/Office/permissions">
<path id="Union" d="M10 4C10.5523 4 11 4.44772 11 5C11 5.55228 10.5523 6 10 6H3V19H21V17.75C21 17.1977 21.4477 16.75 22 16.75C22.5523 16.75 23 17.1977 23 17.75V19C23 20.1046 22.1046 21 21 21H3C1.89544 21 1 20.1046 1 19V6C1 4.89541 1.89544 4 3 4H10ZM17 14.5C17.5523 14.5 18 14.9477 18 15.5C18 16.0523 17.5523 16.5 17 16.5H5C4.44772 16.5 4 16.0523 4 15.5C4 14.9477 4.44772 14.5 5 14.5H17ZM17 4C19.2091 4 21 5.79086 21 8C21 9.06382 20.5836 10.0295 19.9062 10.7461C21.1611 11.4078 22.2322 12.4674 22.8906 13.7539C23.1422 14.2455 22.9477 14.848 22.4561 15.0996C21.9645 15.3512 21.362 15.1566 21.1104 14.665C20.2888 13.0599 18.5909 12 17 12C16.0967 12 15.4828 12.1271 15.0039 12.3242C14.5245 12.5215 14.1164 12.8145 13.6475 13.2402C13.2385 13.6114 12.6065 13.5808 12.2354 13.1719C11.8642 12.7629 11.8948 12.131 12.3037 11.7598C12.7937 11.315 13.318 10.909 13.9619 10.6006C13.3627 9.90121 13 8.99319 13 8C13 5.79086 14.7909 4 17 4ZM9 10.5C9.55229 10.5 10 10.9477 10 11.5C10 12.0523 9.55229 12.5 9 12.5H5C4.44772 12.5 4 12.0523 4 11.5C4 10.9477 4.44772 10.5 5 10.5H9ZM17 6C15.8954 6 15 6.89543 15 8C15 9.10457 15.8954 10 17 10C18.1046 10 19 9.10457 19 8C19 6.89543 18.1046 6 17 6Z" fill="#9E9E9E"/>
</g>
</svg>
