<svg width="24" height="24" viewBox="0 0 24 24" fill="none" xmlns="http://www.w3.org/2000/svg">
<g id="icons/Office/picture">
<path id="Union" d="M19.5 2C20.8807 2 22 3.1193 22 4.5V19.5C22 20.8807 20.8807 22 19.5 22H4.5C3.1193 22 2 20.8807 2 19.5V4.5C2 3.11929 3.11929 2 4.5 2H19.5ZM9.99512 20H19.084L14.6963 13.708L9.99512 20ZM4.5 4C4.22386 4 4 4.22386 4 4.5V19.5C4 19.7762 4.22385 20 4.5 20H7.49902L13.0938 12.5107C13.91 11.4183 15.5568 11.4457 16.3369 12.5645L20 17.8174V4.5C20 4.22385 19.7762 4 19.5 4H4.5ZM9 5.5C10.933 5.5 12.5 7.06702 12.5 9C12.5 10.933 10.933 12.5 9 12.5C7.06702 12.5 5.5 10.933 5.5 9C5.5 7.06702 7.06702 5.5 9 5.5ZM9 7.5C8.17158 7.5 7.5 8.17158 7.5 9C7.5 9.82842 8.17158 10.5 9 10.5C9.82842 10.5 10.5 9.82842 10.5 9C10.5 8.17158 9.82842 7.5 9 7.5Z" fill="#9E9E9E"/>
</g>
</svg>
