<svg width="24" height="24" viewBox="0 0 24 24" fill="none" xmlns="http://www.w3.org/2000/svg">
<g id="icons/Office/picture-album">
<path id="Union" d="M21 5C21.5523 5 22 5.44772 22 6V19.5C22 20.8807 20.8807 22 19.5 22H6C5.44772 22 5 21.5523 5 21C5 20.4477 5.44772 20 6 20H19.5C19.7762 20 20 19.7762 20 19.5V6C20 5.44772 20.4477 5 21 5ZM17 2C18.1046 2 19 2.89543 19 4V17C19 18.1046 18.1046 19 17 19H4C2.89543 19 2 18.1046 2 17V4C2 2.89543 2.89543 2 4 2H17ZM4 12.9482V17H17V12.499L14.0322 10.2744L12.418 11.6191L13.6729 12.7598C14.0815 13.1312 14.1116 13.7642 13.7402 14.1729C13.3687 14.5815 12.7358 14.6117 12.3271 14.2402L7.49219 9.84473L4 12.9482ZM4 10.2734L6.16406 8.34961C6.92818 7.67073 8.08142 7.67746 8.83789 8.36523L10.9238 10.2607L12.752 8.73828C13.4641 8.14493 14.4908 8.1186 15.2324 8.6748L17 10V4H4V10.2734Z" fill="#9E9E9E"/>
</g>
</svg>
