<svg width="24" height="24" viewBox="0 0 24 24" fill="none" xmlns="http://www.w3.org/2000/svg">
<g id="icons/Office/play-two">
<path id="Union" d="M19.5 2C20.8807 2 22 3.11929 22 4.5V19.5C22 20.8807 20.8807 22 19.5 22H4.5C3.11929 22 2 20.8807 2 19.5V4.5C2 3.11929 3.11929 2 4.5 2H19.5ZM4.5 4C4.22386 4 4 4.22386 4 4.5V19.5C4 19.7761 4.22386 20 4.5 20H19.5C19.7761 20 20 19.7761 20 19.5V4.5C20 4.22386 19.7761 4 19.5 4H4.5ZM8.75 7.2373C9.05936 7.05873 9.44064 7.05873 9.75 7.2373L13.125 9.18652L16.5 11.1348C16.8092 11.3134 17 11.6438 17 12.001C16.9997 12.3578 16.809 12.6877 16.5 12.8662L13.125 14.8154L9.75 16.7637C9.44071 16.9421 9.05929 16.9421 8.75 16.7637C8.44076 16.5851 8.25017 16.2545 8.25 15.8975V8.10352L8.25879 7.9707C8.29958 7.66595 8.47949 7.39357 8.75 7.2373ZM10.25 14.165L12.125 13.083L14 12L12.125 10.918L10.25 9.83496V14.165Z" fill="#9E9E9E"/>
</g>
</svg>
