<svg width="24" height="24" viewBox="0 0 24 24" fill="none" xmlns="http://www.w3.org/2000/svg">
<g id="icons/Office/receive">
<path id="Union" d="M9.49951 2.5C10.0518 2.5 10.4995 2.94772 10.4995 3.5V5.40625L11.939 3.41406L12.0024 3.33496C12.3386 2.95638 12.9137 2.88661 13.3335 3.18848L19.3218 7.5H20.731C22.0242 7.50013 22.9771 8.70926 22.6753 9.9668L20.1558 20.4668C19.9399 21.366 19.1352 22 18.2104 22H5.7876C4.86307 21.9998 4.05911 21.3658 3.84326 20.4668L1.32275 9.9668C1.02106 8.70949 1.97427 7.50059 3.26709 7.5H4.49951V3.5C4.49951 2.94788 4.94745 2.50026 5.49951 2.5H9.49951ZM5.7876 20H18.2104L20.731 9.5H3.26709L5.7876 20ZM11.4995 11.5C12.0518 11.5 12.4995 11.9477 12.4995 12.5C12.4995 13.0523 12.0518 13.5 11.4995 13.5H7.49951C6.94745 13.4997 6.49951 13.0521 6.49951 12.5C6.49951 11.9479 6.94745 11.5003 7.49951 11.5H11.4995ZM6.49951 7.5H8.49951V4.5H6.49951V7.5ZM11.4546 7.5H15.8999L12.9751 5.39453L11.4546 7.5Z" fill="#9E9E9E"/>
</g>
</svg>
