<svg width="24" height="24" viewBox="0 0 24 24" fill="none" xmlns="http://www.w3.org/2000/svg">
<g id="icons/Office/schedule">
<path id="Union" d="M17 2C17.5523 2 18 2.44772 18 3V4H21C22.1046 4 23 4.89543 23 6V19C23 20.1046 22.1046 21 21 21H3C1.89543 21 1 20.1046 1 19V6C1 4.89543 1.89543 4 3 4H6V3C6 2.44772 6.44772 2 7 2C7.55228 2 8 2.44772 8 3V4H16V3C16 2.44772 16.4477 2 17 2ZM3 19H21V6H18V7C18 7.55228 17.5523 8 17 8C16.4477 8 16 7.55228 16 7V6H8V7C8 7.55228 7.55228 8 7 8C6.44772 8 6 7.55228 6 7V6H3V19ZM17 14.5C17.5523 14.5 18 14.9477 18 15.5C18 16.0523 17.5523 16.5 17 16.5H7C6.44772 16.5 6 16.0523 6 15.5C6 14.9477 6.44772 14.5 7 14.5H17ZM12.5 10.5C13.0523 10.5 13.5 10.9477 13.5 11.5C13.5 12.0523 13.0523 12.5 12.5 12.5H7C6.44772 12.5 6 12.0523 6 11.5C6 10.9477 6.44772 10.5 7 10.5H12.5Z" fill="#9E9E9E"/>
</g>
</svg>
