<svg width="24" height="24" viewBox="0 0 24 24" fill="none" xmlns="http://www.w3.org/2000/svg">
<g id="icons/Office/security">
<path id="Union" d="M12 1C17.5228 1 22 5.47717 22 11V13C22 13.5523 21.5523 14 21 14C20.4477 14 20 13.5523 20 13H17V13.5C17 14.0523 16.5523 14.5 16 14.5C15.4477 14.5 15 14.0523 15 13.5V13H13V19C13 20.1046 13.8954 21 15 21C16.1046 21 17 20.1046 17 19V17.5557C17 17.0034 17.4477 16.5557 18 16.5557C18.5523 16.5557 19 17.0034 19 17.5557V19C19 21.2091 17.2091 23 15 23C12.7909 23 11 21.2091 11 19V13H9V13.5C9 14.0523 8.55228 14.5 8 14.5C7.44772 14.5 7 14.0523 7 13.5V13H6C5.44772 13 5 12.5523 5 12C5 11.4477 5.44772 11 6 11H7V6C7 5.51383 7.06981 5.044 7.19922 4.59961C5.25644 6.05917 4 8.38297 4 11V13C4 13.5523 3.55228 14 3 14C2.44772 14 2 13.5523 2 13V11C2 5.47717 6.47717 1 12 1ZM11.8428 3.00391C10.259 3.08568 9 4.39588 9 6V11H15V6C15 4.39555 13.7405 3.08519 12.1562 3.00391C12.1043 3.00291 12.0522 3 12 3C11.9475 3 11.8951 3.0029 11.8428 3.00391ZM16.7998 4.59961C16.9293 5.04408 17 5.51374 17 6V11H20C20 8.38269 18.7429 6.05914 16.7998 4.59961Z" fill="#9E9E9E"/>
</g>
</svg>
