<svg width="24" height="24" viewBox="0 0 24 24" fill="none" xmlns="http://www.w3.org/2000/svg">
<g id="icons/Office/seo-folder">
<path id="Union" d="M9.61035 2.00586C9.86564 2.03418 10.1023 2.15991 10.2686 2.35938L12.4688 5H20.5C21.6046 5 22.5 5.89542 22.5 7V20C22.5 21.1046 21.6046 22 20.5 22H3.5C2.39544 22 1.5 21.1046 1.5 20V4C1.5 2.89543 2.39543 2 3.5 2H9.5L9.61035 2.00586ZM3.5 20H20.5V7H12C11.7033 7 11.4214 6.86856 11.2314 6.64062L9.03125 4H3.5V20ZM6.29297 10.293C6.68349 9.90244 7.31651 9.90244 7.70703 10.293L10.207 12.793C10.5976 13.1835 10.5976 13.8165 10.207 14.207L7.70703 16.707C7.31651 17.0976 6.68349 17.0976 6.29297 16.707C5.90244 16.3165 5.90244 15.6835 6.29297 15.293L8.08594 13.5L6.29297 11.707C5.90244 11.3165 5.90244 10.6835 6.29297 10.293ZM17 15C17.5523 15 18 15.4477 18 16C18 16.5523 17.5523 17 17 17H13C12.4477 17 12 16.5523 12 16C12 15.4477 12.4477 15 13 15H17Z" fill="#9E9E9E"/>
</g>
</svg>
