<svg width="24" height="24" viewBox="0 0 24 24" fill="none" xmlns="http://www.w3.org/2000/svg">
<g id="icons/Office/setting-web">
<path id="Union" d="M18.5 12.5C19.0523 12.5 19.5 12.9477 19.5 13.5V14.709C19.6716 14.784 19.8316 14.8794 19.9805 14.9893L21.0312 14.3838C21.5094 14.108 22.1204 14.272 22.3965 14.75C22.6726 15.2282 22.5094 15.84 22.0312 16.1162L20.9834 16.7207C20.9936 16.8124 21 16.9055 21 17C21 17.0941 20.9935 17.1869 20.9834 17.2783L22.0312 17.8838C22.5094 18.16 22.6726 18.7718 22.3965 19.25C22.1204 19.728 21.5094 19.892 21.0312 19.6162L19.9805 19.0098C19.8315 19.1197 19.6716 19.215 19.5 19.29V20.5C19.5 21.0523 19.0523 21.5 18.5 21.5C17.9477 21.5 17.5 21.0523 17.5 20.5V19.29C17.3281 19.2149 17.1677 19.1199 17.0186 19.0098L15.9688 19.6162C15.4905 19.8921 14.8786 19.7282 14.6025 19.25C14.3266 18.7718 14.4907 18.1599 14.9688 17.8838L16.0156 17.2783C16.0055 17.1869 16 17.0941 16 17C16 16.9056 16.0054 16.8124 16.0156 16.7207L14.9688 16.1162C14.4907 15.8401 14.3266 15.2282 14.6025 14.75C14.8786 14.2718 15.4905 14.1079 15.9688 14.3838L17.0186 14.9893C17.1676 14.8792 17.3282 14.7841 17.5 14.709V13.5C17.5 12.9477 17.9477 12.5 18.5 12.5ZM20.5 3C21.8807 3 23 4.1193 23 5.5V11.5293C23 12.0816 22.5523 12.5293 22 12.5293C21.4477 12.5293 21 12.0816 21 11.5293V11H3V18.5C3 18.7762 3.22385 19 3.5 19H12C12.5523 19 13 19.4477 13 20C13 20.5523 12.5523 21 12 21H3.5C2.1193 21 1 19.8807 1 18.5V5.5C1 4.11929 2.11929 3 3.5 3H20.5ZM18.5 16.5C18.2239 16.5 18 16.7239 18 17C18 17.2761 18.2239 17.5 18.5 17.5C18.7761 17.5 19 17.2761 19 17C19 16.7239 18.7761 16.5 18.5 16.5ZM3.5 5C3.22386 5 3 5.22386 3 5.5V9H21V5.5C21 5.22385 20.7762 5 20.5 5H3.5ZM5 6C5.55228 6 6 6.44772 6 7C6 7.55228 5.55228 8 5 8C4.44772 8 4 7.55228 4 7C4 6.44772 4.44772 6 5 6ZM8 6C8.55228 6 9 6.44772 9 7C9 7.55228 8.55228 8 8 8C7.44772 8 7 7.55228 7 7C7 6.44772 7.44772 6 8 6Z" fill="#9E9E9E"/>
</g>
</svg>
