<svg width="24" height="24" viewBox="0 0 24 24" fill="none" xmlns="http://www.w3.org/2000/svg">
<g id="icons/Office/source-code">
<path id="Union" d="M16.293 15.793C16.6835 15.4024 17.3165 15.4024 17.707 15.793C18.0976 16.1835 18.0976 16.8165 17.707 17.207L16.4141 18.5L17.707 19.793C18.0976 20.1835 18.0976 20.8165 17.707 21.207C17.3165 21.5976 16.6835 21.5976 16.293 21.207L14.293 19.207C13.9024 18.8165 13.9024 18.1835 14.293 17.793L16.293 15.793ZM19.293 15.793C19.6835 15.4024 20.3165 15.4024 20.707 15.793L22.707 17.793C23.0976 18.1835 23.0976 18.8165 22.707 19.207L20.707 21.207C20.3165 21.5976 19.6835 21.5976 19.293 21.207C18.9024 20.8165 18.9024 20.1835 19.293 19.793L20.5859 18.5L19.293 17.207C18.9024 16.8165 18.9024 16.1835 19.293 15.793ZM20.5 3C21.8807 3 23 4.1193 23 5.5V12.9414C22.9999 13.4936 22.5522 13.9414 22 13.9414C21.4478 13.9414 21.0001 13.4936 21 12.9414V11H3V18.5C3 18.7762 3.22385 19 3.5 19H11.5C12.0523 19 12.5 19.4477 12.5 20C12.5 20.5523 12.0523 21 11.5 21H3.5C2.1193 21 1 19.8807 1 18.5V5.5C1 4.11929 2.11929 3 3.5 3H20.5ZM3.5 5C3.22386 5 3 5.22386 3 5.5V9H21V5.5C21 5.22385 20.7762 5 20.5 5H3.5ZM5 6C5.55228 6 6 6.44772 6 7C6 7.55228 5.55228 8 5 8C4.44772 8 4 7.55228 4 7C4 6.44772 4.44772 6 5 6ZM8 6C8.55228 6 9 6.44772 9 7C9 7.55228 8.55228 8 8 8C7.44772 8 7 7.55228 7 7C7 6.44772 7.44772 6 8 6Z" fill="#9E9E9E"/>
</g>
</svg>
