<svg width="24" height="24" viewBox="0 0 24 24" fill="none" xmlns="http://www.w3.org/2000/svg">
<g id="icons/Office/termination-file">
<path id="Union" d="M19 1C20.1046 1 21 1.89544 21 3V8.19922C20.9998 8.75133 20.5522 9.19922 20 9.19922C19.4478 9.19922 19.0002 8.75133 19 8.19922V3H5V21H10C10.5523 21 11 21.4477 11 22C11 22.5523 10.5523 23 10 23H5C3.89544 23 3 22.1046 3 21V3C3 1.89543 3.89543 1 5 1H19ZM17 11C20.3137 11 23 13.6863 23 17C23 20.3137 20.3137 23 17 23C13.6863 23 11 20.3137 11 17C11 13.6863 13.6863 11 17 11ZM13.5537 14.9678C13.4966 15.0645 13.4435 15.1639 13.3945 15.2656C13.1417 15.7903 13 16.3786 13 17C13 19.2091 14.7909 21 17 21C17.7417 21 18.4358 20.7972 19.0312 20.4453L13.5537 14.9678ZM17 13C16.3098 13 15.6604 13.1747 15.0938 13.4824C15.0513 13.5055 15.0093 13.5292 14.9678 13.5537L20.4453 19.0312C20.7972 18.4358 21 17.7417 21 17C21 14.7909 19.2091 13 17 13ZM10.5 9.5C11.0523 9.5 11.5 9.94771 11.5 10.5C11.5 11.0523 11.0523 11.5 10.5 11.5H8C7.44772 11.5 7 11.0523 7 10.5C7 9.94771 7.44772 9.5 8 9.5H10.5ZM14.5 6C15.0523 6 15.5 6.44772 15.5 7C15.5 7.55228 15.0523 8 14.5 8H8C7.44772 8 7 7.55228 7 7C7 6.44772 7.44772 6 8 6H14.5Z" fill="#9E9E9E"/>
</g>
</svg>
