<svg width="24" height="24" viewBox="0 0 24 24" fill="none" xmlns="http://www.w3.org/2000/svg">
<g id="icons/Office/text-message">
<path id="Union" d="M22 2.5C22.5523 2.5 23 2.94772 23 3.5V18.5C23 19.0523 22.5523 19.5 22 19.5H14.9141L12.707 21.707C12.3165 22.0976 11.6835 22.0976 11.293 21.707L9.08594 19.5H2C1.44772 19.5 1 19.0523 1 18.5V3.5C1 2.94772 1.44772 2.5 2 2.5H22ZM3 17.5H9.5C9.76522 17.5 10.0195 17.6054 10.207 17.793L12 19.5859L13.793 17.793L13.8662 17.7266C14.0442 17.5807 14.2679 17.5 14.5 17.5H21V4.5H3V17.5ZM14.5332 6C14.5712 6.0013 14.609 6.00516 14.6465 6.01074C14.6651 6.0135 14.6836 6.01667 14.7021 6.02051C14.7123 6.02261 14.7224 6.02493 14.7324 6.02734C14.7504 6.03166 14.7683 6.03663 14.7861 6.04199C14.8039 6.0473 14.8214 6.05329 14.8389 6.05957C14.8516 6.06418 14.8643 6.06905 14.877 6.07422C14.8928 6.08065 14.9084 6.0875 14.9238 6.09473C14.9316 6.09835 14.9396 6.10163 14.9473 6.10547C14.9543 6.109 14.9608 6.11351 14.9678 6.11719C14.9851 6.12633 15.0018 6.13633 15.0186 6.14648C15.0291 6.15288 15.0396 6.15928 15.0498 6.16602C15.0674 6.17757 15.0847 6.18945 15.1016 6.20215C15.1101 6.20859 15.1186 6.215 15.127 6.22168C15.1433 6.23483 15.1592 6.24846 15.1748 6.2627C15.185 6.27205 15.1953 6.28129 15.2051 6.29102C15.2183 6.30414 15.2306 6.31809 15.2432 6.33203C15.2526 6.34255 15.2616 6.35339 15.2705 6.36426C15.2808 6.37675 15.291 6.38927 15.3008 6.40234C15.3121 6.4176 15.3226 6.4334 15.333 6.44922C15.3398 6.45946 15.3461 6.46992 15.3525 6.48047C15.3629 6.49759 15.3735 6.51455 15.3828 6.53223C15.3865 6.53916 15.391 6.54568 15.3945 6.55273L18.8945 13.5527C19.1415 14.0467 18.9412 14.6475 18.4473 14.8945C17.9533 15.1415 17.3525 14.9412 17.1055 14.4473L16.3818 13H12.6182L11.8945 14.4473C11.6476 14.9412 11.0467 15.1414 10.5527 14.8945C10.0588 14.6475 9.85848 14.0467 10.1055 13.5527L13.6055 6.55273C13.6096 6.5445 13.6139 6.53639 13.6182 6.52832C13.6248 6.51586 13.6315 6.5034 13.6387 6.49121C13.6491 6.47344 13.6605 6.45635 13.6719 6.43945C13.6806 6.42651 13.6899 6.41392 13.6992 6.40137C13.7066 6.39147 13.714 6.38163 13.7217 6.37207C13.7348 6.35575 13.7485 6.33976 13.7627 6.32422C13.7725 6.31349 13.7818 6.30223 13.792 6.29199C13.8022 6.28176 13.8135 6.27252 13.8242 6.2627C13.8398 6.24846 13.8557 6.23483 13.8721 6.22168C13.8804 6.215 13.8889 6.20859 13.8975 6.20215C13.9153 6.18874 13.9336 6.17621 13.9521 6.16406C13.9594 6.15933 13.9662 6.15398 13.9736 6.14941C13.9949 6.1363 14.017 6.12474 14.0391 6.11328C14.0437 6.11087 14.048 6.10782 14.0527 6.10547C14.0578 6.10292 14.0632 6.10108 14.0684 6.09863C14.088 6.08926 14.1078 6.08034 14.1279 6.07227C14.1384 6.06806 14.1486 6.0634 14.1592 6.05957C14.1673 6.05663 14.1754 6.05351 14.1836 6.05078L14.2422 6.0332C14.2503 6.03104 14.2585 6.0293 14.2666 6.02734C14.2767 6.02493 14.2867 6.02261 14.2969 6.02051C14.3154 6.01666 14.334 6.01351 14.3525 6.01074C14.3742 6.00749 14.3961 6.00573 14.418 6.00391C14.4268 6.00318 14.4355 6.00146 14.4443 6.00098C14.4518 6.00055 14.4593 6.00025 14.4668 6H14.5332ZM8 11C8.55228 11 9 11.4477 9 12C9 12.5523 8.55228 13 8 13H7C6.44772 13 6 12.5523 6 12C6 11.4477 6.44772 11 7 11H8ZM13.6182 11H15.3818L14.5 9.23633L13.6182 11ZM10 7C10.5523 7 11 7.44772 11 8C11 8.55228 10.5523 9 10 9H7C6.44772 9 6 8.55228 6 8C6 7.44772 6.44772 7 7 7H10Z" fill="#9E9E9E"/>
</g>
</svg>
