<svg width="24" height="24" viewBox="0 0 24 24" fill="none" xmlns="http://www.w3.org/2000/svg">
<g id="icons/Office/text-recognition">
<path id="Union" d="M3 15.5C3.55228 15.5 4 15.9477 4 16.5V19.5C4 19.7762 4.22385 20 4.5 20H7.5C8.05228 20 8.5 20.4477 8.5 21C8.5 21.5523 8.05228 22 7.5 22H4.5C3.1193 22 2 20.8807 2 19.5V16.5C2 15.9477 2.44772 15.5 3 15.5ZM21 15.5C21.5523 15.5 22 15.9477 22 16.5V19.5C22 20.8807 20.8807 22 19.5 22H16.5C15.9477 22 15.5 21.5523 15.5 21C15.5 20.4477 15.9477 20 16.5 20H19.5C19.7762 20 20 19.7762 20 19.5V16.5C20 15.9477 20.4477 15.5 21 15.5ZM15.5 6.5C16.0523 6.5 16.5 6.94772 16.5 7.5C16.5 8.05228 16.0523 8.5 15.5 8.5H13V17.5C13 18.0523 12.5523 18.5 12 18.5C11.4477 18.5 11 18.0523 11 17.5V8.5H8.5C7.94772 8.5 7.5 8.05228 7.5 7.5C7.5 6.94772 7.94772 6.5 8.5 6.5H15.5ZM7.5 2C8.05228 2 8.5 2.44772 8.5 3C8.5 3.55228 8.05228 4 7.5 4H4.5C4.22386 4 4 4.22386 4 4.5V7.5C4 8.05228 3.55228 8.5 3 8.5C2.44772 8.5 2 8.05228 2 7.5V4.5C2 3.11929 3.11929 2 4.5 2H7.5ZM19.5 2C20.8807 2 22 3.1193 22 4.5V7.5C22 8.05228 21.5523 8.5 21 8.5C20.4477 8.5 20 8.05228 20 7.5V4.5C20 4.22385 19.7762 4 19.5 4H16.5C15.9477 4 15.5 3.55228 15.5 3C15.5 2.44772 15.9477 2 16.5 2H19.5Z" fill="#9E9E9E"/>
</g>
</svg>
