<svg width="24" height="24" viewBox="0 0 24 24" fill="none" xmlns="http://www.w3.org/2000/svg">
<g id="icons/Office/ticket-one">
<path id="Union" d="M5.5 3C5.97496 3 6.38406 3.33404 6.47949 3.79883V3.79785L6.48047 3.80078C6.4822 3.80818 6.48525 3.82375 6.49121 3.8457C6.50319 3.88981 6.52398 3.95943 6.55566 4.0459C6.62042 4.2225 6.72526 4.45308 6.88184 4.67676C7.17896 5.10114 7.65025 5.5 8.5 5.5C9.34975 5.5 9.82104 5.10114 10.1182 4.67676C10.2747 4.45308 10.3796 4.2225 10.4443 4.0459C10.476 3.95943 10.4968 3.88981 10.5088 3.8457C10.5147 3.82375 10.5178 3.80818 10.5195 3.80078L10.5205 3.79785V3.79883C10.6159 3.33404 11.025 3 11.5 3H22C22.5523 3 23 3.44772 23 4V20C23 20.5523 22.5523 21 22 21H11.5C11.025 21 10.6159 20.666 10.5205 20.2012L10.5195 20.1992C10.5178 20.1918 10.5147 20.1762 10.5088 20.1543C10.4968 20.1102 10.476 20.0406 10.4443 19.9541C10.3796 19.7775 10.2747 19.5469 10.1182 19.3232C9.82104 18.8989 9.34975 18.5 8.5 18.5C7.65025 18.5 7.17896 18.8989 6.88184 19.3232C6.72526 19.5469 6.62042 19.7775 6.55566 19.9541C6.52398 20.0406 6.50319 20.1102 6.49121 20.1543C6.48525 20.1762 6.4822 20.1918 6.48047 20.1992L6.47949 20.2012V20.1992L6.48047 20.1982V20.1973C6.48048 20.1972 6.48051 20.1965 6.47949 20.1963C6.38586 20.6635 5.97655 21 5.5 21H2C1.44772 21 1 20.5523 1 20V4C1 3.44772 1.44772 3 2 3H5.5ZM3 19H4.78516C4.8924 18.7532 5.04039 18.4665 5.24316 18.1768C5.82104 17.3512 6.84988 16.5 8.5 16.5C10.1501 16.5 11.179 17.3512 11.7568 18.1768C11.9596 18.4665 12.1076 18.7532 12.2148 19H21V5H12.2148C12.1076 5.24682 11.9596 5.53353 11.7568 5.82324C11.179 6.64878 10.1501 7.5 8.5 7.5C6.84988 7.5 5.82104 6.64878 5.24316 5.82324C5.04039 5.53353 4.8924 5.24682 4.78516 5H3V19ZM8.5 12.5C9.05229 12.5 9.5 12.9477 9.5 13.5V14.5C9.5 15.0523 9.05229 15.5 8.5 15.5C7.94772 15.5 7.5 15.0523 7.5 14.5V13.5C7.5 12.9477 7.94772 12.5 8.5 12.5ZM18 12.5C18.5523 12.5 19 12.9477 19 13.5C19 14.0523 18.5523 14.5 18 14.5H12.5C11.9477 14.5 11.5 14.0523 11.5 13.5C11.5 12.9477 11.9477 12.5 12.5 12.5H18ZM8.5 8.5C9.05229 8.5 9.5 8.94772 9.5 9.5V10.5C9.5 11.0523 9.05229 11.5 8.5 11.5C7.94772 11.5 7.5 11.0523 7.5 10.5V9.5C7.5 8.94772 7.94772 8.5 8.5 8.5ZM18 9.5C18.5523 9.5 19 9.94772 19 10.5C19 11.0523 18.5523 11.5 18 11.5H12.5C11.9477 11.5 11.5 11.0523 11.5 10.5C11.5 9.94772 11.9477 9.5 12.5 9.5H18Z" fill="#9E9E9E"/>
</g>
</svg>
