<svg width="24" height="24" viewBox="0 0 24 24" fill="none" xmlns="http://www.w3.org/2000/svg">
<g id="icons/Office/ticket">
<path id="Union" d="M16.7256 2.0376C17.2126 1.89806 17.7363 2.14804 17.9287 2.62842L19.6768 6.99951H22C22.5522 6.99951 22.9998 7.44741 23 7.99951V10.9995C23 11.5518 22.5523 11.9995 22 11.9995C20.874 11.9995 20.0002 12.715 20 13.7495C20 14.3378 20.2543 14.9117 20.6631 15.3433C21.078 15.7812 21.5793 15.9995 22 15.9995C22.5522 15.9995 22.9998 16.4474 23 16.9995V19.9995C23 20.5518 22.5523 20.9995 22 20.9995H2C1.44772 20.9995 1 20.5518 1 19.9995V16.9995C1.00022 16.4474 1.44785 15.9995 2 15.9995C2.53697 15.9995 3.04149 15.8197 3.39844 15.5024C3.73689 15.2015 4 14.728 4 13.9995C3.9999 13.2711 3.73694 12.7975 3.39844 12.4966C3.04148 12.1794 2.53683 11.9995 2 11.9995C1.44772 11.9995 1 11.5518 1 10.9995V7.99951C1.00022 7.44741 1.44785 6.99951 2 6.99951H4.30664L16.6289 2.0708L16.7256 2.0376ZM3 10.1167C3.62434 10.2648 4.22419 10.5559 4.72656 11.0024C5.51291 11.7014 5.9999 12.7283 6 13.9995C6 15.2707 5.51288 16.2975 4.72656 16.9966C4.22423 17.4431 3.62432 17.7332 3 17.8813V18.9995H21V17.8472C20.3138 17.6381 19.6958 17.229 19.2119 16.7183C18.4959 15.9624 18 14.911 18 13.7495C18.0002 11.7186 19.4437 10.4897 21 10.1196V8.99951H4.5127C4.49736 8.9997 4.48206 9.00003 4.4668 8.99951H3V10.1167ZM15.5 14.6919C16.0522 14.6919 16.4998 15.1398 16.5 15.6919C16.5 16.2442 16.0523 16.6919 15.5 16.6919H8.5C7.94772 16.6919 7.5 16.2442 7.5 15.6919C7.50022 15.1398 7.94785 14.6919 8.5 14.6919H15.5ZM11.5 11.6919C12.0522 11.6919 12.4998 12.1398 12.5 12.6919C12.5 13.2442 12.0523 13.6919 11.5 13.6919H8.5C7.94772 13.6919 7.5 13.2442 7.5 12.6919C7.50022 12.1398 7.94785 11.6919 8.5 11.6919H11.5ZM9.69238 6.99951H17.5225L16.4424 4.29932L9.69238 6.99951Z" fill="#9E9E9E"/>
</g>
</svg>
