<svg width="24" height="24" viewBox="0 0 24 24" fill="none" xmlns="http://www.w3.org/2000/svg">
<g id="icons/Office/transform">
<path id="Union" d="M1.47559 11.1494C1.77037 10.9673 2.13833 10.9505 2.44824 11.1055L5.78125 12.7725C6.27523 13.0194 6.4755 13.6203 6.22852 14.1143C5.9814 14.6079 5.38057 14.8084 4.88672 14.5615L3.16309 13.6992C3.95774 17.8572 7.61144 21 12.001 21C12.5533 21 13.001 21.4477 13.001 22C13.001 22.5523 12.5533 23 12.001 23C5.92585 23 1.00098 18.0751 1.00098 12L1.00879 11.8711C1.04723 11.5749 1.2177 11.3088 1.47559 11.1494ZM17.1436 12.7148C19.5893 12.7149 21.5723 14.6978 21.5723 17.1436C21.5719 19.5891 19.5891 21.5722 17.1436 21.5723C14.6979 21.5723 12.7152 19.5891 12.7148 17.1436C12.7148 14.6977 14.6977 12.7148 17.1436 12.7148ZM17.1436 14.7148C15.8023 14.7148 14.7148 15.8023 14.7148 17.1436C14.7152 18.4845 15.8025 19.5723 17.1436 19.5723C18.4845 19.5722 19.5719 18.4845 19.5723 17.1436C19.5723 15.8023 18.4848 14.7149 17.1436 14.7148ZM12.001 1C18.0761 1 23.001 5.92487 23.001 12C23.001 12.3466 22.8212 12.6684 22.5264 12.8506C22.2316 13.0327 21.8636 13.0495 21.5537 12.8945L18.2207 11.2275C17.7267 10.9806 17.5265 10.3797 17.7734 9.88574C18.0206 9.39207 18.6214 9.19156 19.1152 9.43848L20.8379 10.2998C20.0428 6.1424 16.3901 3 12.001 3C11.4487 3 11.001 2.55228 11.001 2C11.001 1.44772 11.4487 1 12.001 1ZM6.85742 2.42871C9.30319 2.42879 11.2861 4.41164 11.2861 6.85742C11.2861 9.30314 9.30314 11.2861 6.85742 11.2861C4.41164 11.2861 2.42879 9.30319 2.42871 6.85742C2.42871 4.41159 4.41159 2.42871 6.85742 2.42871ZM6.85742 4.42871C5.51616 4.42871 4.42871 5.51616 4.42871 6.85742C4.42879 8.19862 5.51621 9.28613 6.85742 9.28613C8.19857 9.28606 9.28606 8.19857 9.28613 6.85742C9.28613 5.51621 8.19862 4.42879 6.85742 4.42871Z" fill="#9E9E9E"/>
</g>
</svg>
