<svg width="24" height="24" viewBox="0 0 24 24" fill="none" xmlns="http://www.w3.org/2000/svg">
<g id="icons/Office/upload-web">
<path id="Union" d="M19.5205 13.501C19.5381 13.5013 19.5557 13.5017 19.5732 13.5029C19.6225 13.5065 19.6707 13.514 19.7178 13.5244C19.7269 13.5264 19.736 13.529 19.7451 13.5312C19.8141 13.5487 19.8799 13.5736 19.9424 13.6045C19.9746 13.6204 20.0064 13.6376 20.0371 13.6572C20.0714 13.6791 20.1045 13.7027 20.1357 13.7285C20.1602 13.7487 20.1841 13.7701 20.207 13.793L22.707 16.293C23.0976 16.6835 23.0976 17.3165 22.707 17.707C22.3165 18.0976 21.6835 18.0976 21.293 17.707L20.5 16.9141V20.5C20.5 21.0523 20.0523 21.5 19.5 21.5C18.9477 21.5 18.5 21.0523 18.5 20.5V16.9141L17.707 17.707C17.3165 18.0976 16.6835 18.0976 16.293 17.707C15.9024 17.3165 15.9024 16.6835 16.293 16.293L18.793 13.793C18.8548 13.7312 18.9248 13.6778 19.001 13.6338C19.0154 13.6255 19.0302 13.6179 19.0449 13.6104C19.1073 13.5784 19.1731 13.5526 19.2422 13.5342C19.2588 13.5298 19.2753 13.525 19.292 13.5215C19.303 13.5192 19.3141 13.5176 19.3252 13.5156C19.3427 13.5125 19.3603 13.51 19.3779 13.5078C19.3957 13.5056 19.4136 13.5041 19.4316 13.5029C19.4476 13.5018 19.4635 13.5013 19.4795 13.501C19.4863 13.5008 19.4931 13.5 19.5 13.5C19.5069 13.5 19.5137 13.5008 19.5205 13.501ZM20.5 3C21.8807 3 23 4.1193 23 5.5V11.5293C23 12.0816 22.5523 12.5293 22 12.5293C21.4477 12.5293 21 12.0816 21 11.5293V11H3V18.5C3 18.7762 3.22385 19 3.5 19H14C14.5523 19 15 19.4477 15 20C15 20.5523 14.5523 21 14 21H3.5C2.1193 21 1 19.8807 1 18.5V5.5C1 4.11929 2.11929 3 3.5 3H20.5ZM3.5 5C3.22386 5 3 5.22386 3 5.5V9H21V5.5C21 5.22385 20.7762 5 20.5 5H3.5ZM5 6C5.55228 6 6 6.44772 6 7C6 7.55228 5.55228 8 5 8C4.44772 8 4 7.55228 4 7C4 6.44772 4.44772 6 5 6ZM8 6C8.55228 6 9 6.44772 9 7C9 7.55228 8.55228 8 8 8C7.44772 8 7 7.55228 7 7C7 6.44772 7.44772 6 8 6Z" fill="#9E9E9E"/>
</g>
</svg>
