<svg width="24" height="24" viewBox="0 0 24 24" fill="none" xmlns="http://www.w3.org/2000/svg">
<g id="icons/Office/upload-picture">
<path id="Union" d="M12 2C12.5523 2 13 2.44771 13 3C13 3.55228 12.5523 4 12 4H4.5C4.22386 4 4 4.22386 4 4.5V15.2256L7.6709 11.8613C8.41673 11.1778 9.55607 11.1589 10.3242 11.8174L13.5244 14.5605L15.6797 12.4062C16.3835 11.7025 17.4977 11.6236 18.2939 12.2207L20 13.5V12C20 11.4477 20.4477 11 21 11C21.5523 11 22 11.4477 22 12V19.5C22 20.8807 20.8807 22 19.5 22H4.5C3.11928 22 2 20.8807 2 19.5V4.5C2 3.11928 3.11929 2 4.5 2H12ZM4 17.9395V19.5C4 19.7761 4.22386 20 4.5 20H19.5C19.7761 20 20 19.7761 20 19.5V15.999L17.0938 13.8203L15.0469 15.8662L16.6504 17.2402C17.0697 17.5997 17.1182 18.2311 16.7588 18.6504C16.3994 19.0696 15.7689 19.1181 15.3496 18.7588L9.02246 13.3359L4 17.9395ZM18.5205 2.00098C18.5381 2.00133 18.5557 2.00165 18.5732 2.00293C18.6225 2.0065 18.6707 2.01396 18.7178 2.02441C18.7269 2.02645 18.736 2.02895 18.7451 2.03125C18.8141 2.04866 18.8799 2.07357 18.9424 2.10449C18.9746 2.12042 19.0064 2.13761 19.0371 2.15723C19.0714 2.17913 19.1045 2.20271 19.1357 2.22852C19.1602 2.24873 19.1841 2.27007 19.207 2.29297L21.707 4.79297C22.0976 5.18349 22.0976 5.81651 21.707 6.20703C21.3165 6.59756 20.6835 6.59756 20.293 6.20703L19.5 5.41406V9C19.5 9.55228 19.0523 10 18.5 10C17.9477 10 17.5 9.55228 17.5 9V5.41406L16.707 6.20703C16.3165 6.59756 15.6835 6.59756 15.293 6.20703C14.9024 5.81651 14.9024 5.18349 15.293 4.79297L17.793 2.29297C17.8548 2.23117 17.9248 2.17778 18.001 2.13379C18.0154 2.12546 18.0302 2.1179 18.0449 2.11035C18.1073 2.0784 18.1731 2.05257 18.2422 2.03418C18.2588 2.02976 18.2753 2.02503 18.292 2.02148C18.303 2.01916 18.3141 2.01758 18.3252 2.01562C18.3427 2.01252 18.3603 2.00998 18.3779 2.00781C18.3957 2.00565 18.4136 2.00415 18.4316 2.00293C18.4476 2.00184 18.4635 2.00131 18.4795 2.00098C18.4863 2.00084 18.4931 2 18.5 2C18.5069 2 18.5137 2.00084 18.5205 2.00098Z" fill="#9E9E9E"/>
</g>
</svg>
