<svg width="24" height="24" viewBox="0 0 24 24" fill="none" xmlns="http://www.w3.org/2000/svg">
<g id="icons/Office/video-file">
<path id="Union" d="M15 1C15.0563 1 15.1113 1.00571 15.165 1.01465C15.1738 1.01611 15.1827 1.01686 15.1914 1.01855L15.2012 1.02051C15.211 1.02252 15.2207 1.02504 15.2305 1.02734C15.251 1.0322 15.2717 1.0368 15.292 1.04297C15.3408 1.05783 15.3873 1.0778 15.4326 1.09961C15.4466 1.10634 15.4609 1.11269 15.4746 1.12012C15.5374 1.15407 15.5956 1.19511 15.6494 1.24121C15.6689 1.2579 15.6886 1.27454 15.707 1.29297L20.707 6.29297C20.7548 6.34078 20.7976 6.39354 20.835 6.4502C20.8597 6.48768 20.8812 6.52662 20.9004 6.56641C20.9222 6.61159 20.9412 6.65838 20.9561 6.70703C20.9623 6.72732 20.9668 6.74799 20.9717 6.76855C20.9893 6.84294 21 6.92022 21 7V21C21 22.1046 20.1046 23 19 23H5C3.89544 23 3 22.1046 3 21V3C3 1.89543 3.89543 1 5 1H15ZM5 21H19V8H15C14.4477 8 14 7.55228 14 7V3H5V21ZM13.7461 9.5C14.2984 9.5 14.7461 9.94771 14.7461 10.5V10.7939L16.6416 10.0664C16.949 9.94839 17.295 9.9893 17.5664 10.1758C17.8379 10.3623 18 10.6706 18 11V16.5C18 16.8294 17.8379 17.1377 17.5664 17.3242C17.295 17.5107 16.949 17.5516 16.6416 17.4336L14.7461 16.7051V17C14.7461 17.5523 14.2984 18 13.7461 18H7C6.44772 18 6 17.5523 6 17V10.5C6 9.94771 6.44772 9.5 7 9.5H13.7461ZM8 16H12.7461V15.25C12.7461 14.9207 12.9084 14.6123 13.1797 14.4258C13.4512 14.2392 13.798 14.1983 14.1055 14.3164L16 15.0439V12.4551L14.1055 13.1836C13.798 13.3017 13.4512 13.2608 13.1797 13.0742C12.9084 12.8877 12.7461 12.5793 12.7461 12.25V11.5H8V16ZM16 6H17.5859L16 4.41406V6Z" fill="#9E9E9E"/>
</g>
</svg>
