<svg width="24" height="24" viewBox="0 0 24 24" fill="none" xmlns="http://www.w3.org/2000/svg">
<g id="icons/Office/video-conference">
<path id="Union" d="M17 3C18.1046 3 19 3.89544 19 5V7.5L21.4004 5.7002C21.7034 5.47304 22.1085 5.43611 22.4473 5.60547C22.786 5.77486 23 6.12123 23 6.5V18C23 18.3788 22.786 18.7251 22.4473 18.8945C22.1085 19.0639 21.7034 19.027 21.4004 18.7998L19 16.999V19C19 20.1046 18.1046 21 17 21H3C1.89544 21 1 20.1046 1 19V5C1 3.89543 1.89543 3 3 3H17ZM3 19H17V15C17 14.6212 17.214 14.2749 17.5527 14.1055C17.8915 13.9361 18.2966 13.973 18.5996 14.2002L21 16V8.49902L18.5996 10.2998C18.2966 10.527 17.8915 10.5639 17.5527 10.3945C17.214 10.2251 17 9.87877 17 9.5V5H3V19ZM7.5 6C8.05228 6 8.5 6.44772 8.5 7V11C8.5 11.5523 8.05228 12 7.5 12C6.94772 12 6.5 11.5523 6.5 11V7C6.5 6.44772 6.94772 6 7.5 6ZM5 7C5.55228 7 6 7.44772 6 8V10C6 10.5523 5.55228 11 5 11C4.44772 11 4 10.5523 4 10V8C4 7.44772 4.44772 7 5 7ZM10 7C10.5523 7 11 7.44772 11 8V10C11 10.5523 10.5523 11 10 11C9.44771 11 9 10.5523 9 10V8C9 7.44772 9.44771 7 10 7Z" fill="#9E9E9E"/>
</g>
</svg>
