<svg width="24" height="24" viewBox="0 0 24 24" fill="none" xmlns="http://www.w3.org/2000/svg">
<g id="icons/Health/abdominal">
<path id="Union" d="M18.8996 1.81543C19.2778 1.413 19.9112 1.39324 20.3137 1.77148C20.7156 2.14966 20.7354 2.78225 20.3576 3.18457C19.1415 4.47851 18.5003 6.18001 18.5002 8.38184C18.5002 9.90967 19.1502 11.3123 19.9611 12.666C20.1618 13.001 20.3681 13.3262 20.5734 13.6484C20.7762 13.9667 20.9826 14.2879 21.1701 14.5967C21.5352 15.1981 21.8932 15.8502 22.0617 16.498C22.4337 17.9284 22.5992 19.6052 22.5783 21.5107C22.5721 22.0628 22.1196 22.5059 21.5676 22.5C21.0155 22.4939 20.5725 22.0413 20.5783 21.4893C20.5979 19.703 20.441 18.2126 20.1262 17.002C20.1146 16.9577 20.1001 16.9118 20.0842 16.8643C17.3338 18.5991 14.639 19.5155 12.0109 19.5156C9.35985 19.5156 6.51975 18.5823 3.508 16.8213C3.48567 16.8843 3.46726 16.9446 3.45233 17.002C3.13748 18.2126 2.98051 19.703 3.00018 21.4893C3.006 22.0412 2.56293 22.4938 2.01093 22.5C1.45876 22.5061 1.00638 22.0629 1.00018 21.5107C0.979215 19.6052 1.14475 17.9284 1.51678 16.498C1.68535 15.8501 2.04325 15.1981 2.40839 14.5967C2.5959 14.2878 2.80223 13.9668 3.00507 13.6484C3.21036 13.3262 3.41574 13.001 3.61639 12.666C4.4274 11.3122 5.07825 9.90975 5.07831 8.38184C5.07823 6.1801 4.43692 4.47848 3.22089 3.18457C2.84297 2.78217 2.86264 2.14965 3.26483 1.77148C3.66726 1.39324 4.30065 1.413 4.67889 1.81543C6.30004 3.54055 7.07823 5.76067 7.07831 8.38184C7.07825 10.4715 6.18908 12.264 5.33221 13.6943C5.11615 14.055 4.89709 14.4001 4.69159 14.7227C4.61599 14.8413 4.54397 14.9572 4.47284 15.0693C7.30662 16.7337 9.81268 17.5156 12.0109 17.5156C14.1941 17.5155 16.5602 16.7425 19.1262 15.1025C19.0485 14.98 18.9699 14.853 18.8869 14.7227C18.6814 14.4002 18.4623 14.0549 18.2463 13.6943C17.3894 12.264 16.5002 10.4715 16.5002 8.38184C16.5003 5.76053 17.2783 3.54058 18.8996 1.81543ZM12.0002 13C12.6904 13.0001 13.2502 13.5597 13.2502 14.25C13.2501 14.9402 12.6904 15.4999 12.0002 15.5C11.3099 15.5 10.7503 14.9403 10.7502 14.25C10.7502 13.5597 11.3098 13 12.0002 13Z" fill="#9E9E9E"/>
</g>
</svg>
