<svg width="24" height="24" viewBox="0 0 24 24" fill="none" xmlns="http://www.w3.org/2000/svg">
<g id="icons/Health/ambulance">
<path id="Union" d="M15.5 3.5C16.6046 3.5 17.5 4.39544 17.5 5.5V8.94922C17.5 9.15944 17.6316 9.34707 17.8291 9.41895L21.3545 10.7012C22.3424 11.0605 23 11.9996 23 13.0508V16.5C23 17.6046 22.1046 18.5 21 18.5H19.8262C19.4141 19.6647 18.3059 20.5 17 20.5C15.6941 20.5 14.5859 19.6647 14.1738 18.5H9.82617C9.41406 19.6647 8.30585 20.5 7 20.5C5.69415 20.5 4.58594 19.6647 4.17383 18.5H3C1.89544 18.5 1 17.6046 1 16.5V5.5C1 4.39543 1.89543 3.5 3 3.5H15.5ZM7 16.5C6.44772 16.5 6 16.9477 6 17.5C6 18.0523 6.44772 18.5 7 18.5C7.55228 18.5 8 18.0523 8 17.5C8 16.9477 7.55228 16.5 7 16.5ZM17 16.5C16.4477 16.5 16 16.9477 16 17.5C16 18.0523 16.4477 18.5 17 18.5C17.5523 18.5 18 18.0523 18 17.5C18 16.9477 17.5523 16.5 17 16.5ZM3 16.5H4.17383C4.58594 15.3353 5.69415 14.5 7 14.5C8.30585 14.5 9.41406 15.3353 9.82617 16.5H14.1738C14.5859 15.3353 15.6941 14.5 17 14.5C18.3059 14.5 19.4141 15.3353 19.8262 16.5H21V13.0508C21 12.8406 20.8684 12.6529 20.6709 12.5811L17.1455 11.2988C16.1576 10.9395 15.5 10.0004 15.5 8.94922V5.5H3V16.5ZM8 6.5C8.55228 6.5 9 6.94772 9 7.5V8.5H10C10.5523 8.5 11 8.94772 11 9.5C11 10.0523 10.5523 10.5 10 10.5H9V11.5C9 12.0523 8.55228 12.5 8 12.5C7.44772 12.5 7 12.0523 7 11.5V10.5H6C5.44772 10.5 5 10.0523 5 9.5C5 8.94772 5.44772 8.5 6 8.5H7V7.5C7 6.94772 7.44772 6.5 8 6.5Z" fill="#9E9E9E"/>
</g>
</svg>
