<svg width="24" height="24" viewBox="0 0 24 24" fill="none" xmlns="http://www.w3.org/2000/svg">
<g id="icons/Health/anti-corrosion">
<path id="Union" d="M12 8.00195C12.5474 8.00195 13.1015 8.24924 13.5557 8.50586C14.045 8.78238 14.577 9.16377 15.1201 9.60059C16.2094 10.4768 17.4258 11.6466 18.5576 12.8555C19.6903 14.0653 20.7619 15.3383 21.5566 16.4307C21.9527 16.9751 22.2938 17.4936 22.54 17.9473C22.663 18.1737 22.7709 18.4012 22.8506 18.6191C22.9258 18.8247 23 19.0857 23 19.3613C22.9998 20.2253 22.351 20.7336 21.8271 20.999C21.2734 21.2795 20.5278 21.4724 19.6611 21.6143C17.9077 21.9013 15.3385 22.0248 11.9922 21.999H11.9902C8.64535 21.9649 6.0831 21.8109 4.33887 21.5254C3.47684 21.3843 2.74242 21.2 2.19922 20.9443C1.72313 20.7202 1.00027 20.2459 1 19.3613C1 19.0825 1.08155 18.8215 1.15527 18.6309C1.23559 18.4233 1.34471 18.2054 1.4668 17.9873C1.71178 17.5498 2.05057 17.0422 2.44531 16.5039C3.23785 15.4233 4.30765 14.1461 5.43945 12.9258C6.56973 11.7072 7.78478 10.5209 8.87305 9.63086C9.41563 9.18715 9.94819 8.79933 10.4375 8.51758C10.8905 8.25676 11.4473 8.00195 12 8.00195ZM12 10.002C11.9958 10.0026 11.8252 10.0267 11.4355 10.251C11.0765 10.4578 10.6376 10.7715 10.1396 11.1787C9.14626 11.9911 7.99877 13.1072 6.90527 14.2861C5.81322 15.4636 4.79605 16.681 4.05859 17.6865C3.68869 18.1909 3.40158 18.6252 3.21191 18.9639C3.17176 19.0356 3.13796 19.1009 3.10938 19.1582C3.40807 19.2874 3.90765 19.4284 4.66113 19.5518C6.25016 19.8119 8.68862 19.9651 12.0098 19.999H12.0088C15.3282 20.0246 17.7591 19.8993 19.3389 19.6406C20.138 19.5098 20.6433 19.3564 20.9229 19.2148C20.9258 19.2133 20.9288 19.2105 20.9316 19.209C20.8957 19.1256 20.8479 19.0224 20.7822 18.9014C20.5938 18.5542 20.3082 18.1143 19.9395 17.6074C19.2043 16.597 18.1886 15.388 17.0977 14.2227C16.0056 13.0563 14.8596 11.9575 13.8672 11.1592C13.3696 10.7589 12.9304 10.45 12.5713 10.2471C12.3926 10.1461 12.2489 10.0801 12.1396 10.041C12.0563 10.0112 12.0119 10.0036 12 10.002ZM9.76172 14.1904C10.1155 13.7664 10.7458 13.7097 11.1699 14.0635C11.5937 14.4173 11.6514 15.0477 11.2979 15.4717L9.4873 17.6406C9.13355 18.0643 8.50309 18.122 8.0791 17.7686C7.65515 17.4149 7.59873 16.7844 7.95215 16.3604L9.76172 14.1904ZM6 8.5C6.5523 8.5 7 8.94775 7 9.5C7 10.0523 6.5523 10.5 6 10.5C5.4477 10.5 5 10.0523 5 9.5C5 8.94775 5.4477 8.5 6 8.5ZM17 6C17.5523 6 18 6.44775 18 7C18 7.5523 17.5523 8 17 8C16.4477 8 16 7.5523 16 7C16 6.44775 16.4477 6 17 6ZM8.75 6C9.1642 6 9.5 6.3358 9.5 6.75C9.5 7.16425 9.1642 7.5 8.75 7.5C8.3358 7.5 8 7.16425 8 6.75C8 6.3358 8.3358 6 8.75 6ZM12.25 3C12.9403 3 13.5 3.55965 13.5 4.25C13.5 4.94036 12.9403 5.5 12.25 5.5C11.5597 5.5 11 4.94036 11 4.25C11 3.55965 11.5597 3 12.25 3Z" fill="#9E9E9E"/>
</g>
</svg>
