<svg width="24" height="24" viewBox="0 0 24 24" fill="none" xmlns="http://www.w3.org/2000/svg">
<g id="icons/Health/bottle">
<path id="Union" d="M12 1C13.3807 1 14.5 2.1193 14.5 3.5V4.53418C15.6064 4.70062 16.5445 5.47512 16.9023 6.56152L17.376 8H18C18.5523 8 19 8.44772 19 9V22C19 22.5523 18.5523 23 18 23H6C5.44772 23 5 22.5523 5 22V9C5 8.44772 5.44772 8 6 8H6.62402L7.09766 6.56152C7.45545 5.47513 8.39355 4.70062 9.5 4.53418V3.5C9.5 2.1193 10.6193 1 12 1ZM7 21H17V10H7V21ZM9.25 12C9.80228 12 10.25 12.4477 10.25 13V18C10.25 18.5523 9.80228 19 9.25 19C8.69772 19 8.25 18.5523 8.25 18V13C8.25 12.4477 8.69772 12 9.25 12ZM9.94727 6.5C9.51545 6.5 9.13209 6.77739 8.99707 7.1875L8.72949 8H15.2705L15.0029 7.1875C14.8679 6.77735 14.4845 6.5 14.0527 6.5H9.94727ZM12 3C11.7238 3 11.5 3.22385 11.5 3.5V4.5H12.5V3.5C12.5 3.22385 12.2762 3 12 3Z" fill="#9E9E9E"/>
</g>
</svg>
