<svg width="24" height="24" viewBox="0 0 24 24" fill="none" xmlns="http://www.w3.org/2000/svg">
<g id="icons/Health/brain">
<path id="Union" d="M13.1987 1C16.7071 1.00003 19.1908 2.50395 20.7739 4.51172C22.3291 6.48421 22.9995 8.91795 22.9995 10.8398C22.9993 14.5499 20.0767 18.3733 15.8979 19.5586C16.1101 19.9739 16.5355 20.5593 17.2329 21.3281C17.6038 21.7372 17.5725 22.3692 17.1636 22.7402C16.7545 23.111 16.1225 23.0807 15.7515 22.6719C15.0037 21.8475 14.4329 21.0986 14.1021 20.4404C13.8029 19.8452 13.5272 18.9677 14.0474 18.21L14.1069 18.1318C14.2541 17.9572 14.4578 17.8372 14.6841 17.7939C18.4381 17.0784 20.9993 13.7587 20.9995 10.8398C20.9995 9.32529 20.4557 7.33811 19.2036 5.75C17.9796 4.19761 16.0627 3.00003 13.1987 3C11.2154 3.00007 9.77955 3.44296 8.78076 4.21387C7.79459 4.97529 7.11332 6.14994 6.81299 7.8623C6.75863 8.17219 6.56123 8.4385 6.28076 8.58105C5.2044 9.12788 4.36593 9.57042 3.76025 9.90918C4.00016 10.0823 4.26434 10.3103 4.46338 10.6064C4.78481 11.0849 4.91359 11.7047 4.65088 12.3711C4.50436 12.7427 4.2933 13.1725 4.10498 13.5654C3.90698 13.9786 3.71746 14.3838 3.57178 14.7744C3.4244 15.1697 3.34256 15.4979 3.32666 15.7568C3.31141 16.0064 3.36096 16.1233 3.40479 16.1846C3.45808 16.2589 3.5558 16.343 3.79834 16.4229C4.06076 16.5092 4.39001 16.5592 4.84619 16.6191C5.65885 16.7259 6.9228 16.8512 7.92139 17.6436C9.11223 18.5888 9.94285 19.9777 10.4731 21.707C10.635 22.2349 10.3388 22.794 9.81104 22.9561C9.28314 23.1177 8.72291 22.8209 8.56104 22.293C8.11144 20.827 7.46398 19.8337 6.67822 19.21C6.19442 18.8261 5.53923 18.7277 4.58643 18.6025C4.16011 18.5465 3.64333 18.4778 3.17334 18.3232C2.68385 18.1621 2.16037 17.8818 1.77881 17.3496C1.38808 16.8042 1.296 16.1866 1.32959 15.6357C1.36271 15.0939 1.52029 14.5537 1.69873 14.0752C1.87907 13.5917 2.10304 13.1148 2.30127 12.7012C2.49822 12.2903 2.65844 11.96 2.771 11.6826C2.71775 11.6248 2.61334 11.5363 2.42822 11.4209C2.32052 11.3538 2.20637 11.2905 2.08252 11.2217C1.96981 11.159 1.82764 11.08 1.70654 11.0039C1.6098 10.9431 1.40029 10.8099 1.24268 10.6064C1.15552 10.4939 1.02852 10.29 1.00342 10.0078C0.975595 9.69484 1.08484 9.42445 1.23584 9.23145L1.37256 9.08203C1.52016 8.94028 1.69361 8.82215 1.81885 8.73926C2.02906 8.60014 2.30191 8.4366 2.62744 8.25195C3.19866 7.92796 3.97315 7.51829 4.94287 7.02148C5.35516 5.17079 6.20661 3.67434 7.55811 2.63086C9.01605 1.50537 10.934 1.00007 13.1987 1ZM11.2808 5.01855C11.6833 4.94048 12.0506 4.90772 12.3833 4.96387C12.7795 5.03082 13.0389 5.20823 13.2192 5.375C13.2389 5.39322 13.2543 5.40992 13.2681 5.42285C13.2814 5.42345 13.2982 5.42478 13.3169 5.4248C13.9157 5.42485 14.5768 5.50847 15.1226 5.69141C15.3911 5.78147 15.6945 5.91665 15.9497 6.12598C16.1274 6.27181 16.3231 6.49469 16.4302 6.79297C16.4792 6.80078 16.5341 6.80748 16.5923 6.8125C16.7015 6.82189 16.805 6.82421 16.8813 6.82422C17.2106 6.82426 17.4635 6.96308 17.6011 7.05469C17.7553 7.15747 17.8867 7.28323 17.9937 7.4043C18.2094 7.64854 18.4051 7.96232 18.5649 8.31152C18.8863 9.01389 19.1127 9.97108 18.9937 11.0361C18.9024 11.8516 18.5164 12.6113 17.6792 12.9746C17.2136 13.1764 16.695 13.2094 16.1646 13.1494C16.0863 13.3291 15.9559 13.4884 15.7769 13.5996C15.5551 13.7373 15.2865 13.9233 15.0464 14.1172C14.7917 14.3229 14.6289 14.4898 14.562 14.583C14.3699 14.851 14.1874 15.0917 14.0269 15.3037C13.8629 15.5203 13.727 15.6999 13.6108 15.8652C13.3696 16.2088 13.2915 16.3862 13.269 16.499C13.1613 17.0406 12.6349 17.3929 12.0933 17.2852C11.5521 17.1772 11.2007 16.6507 11.3081 16.1094C11.416 15.567 11.7015 15.104 11.9741 14.7158C12.1149 14.5154 12.274 14.3055 12.4321 14.0967C12.4681 14.0491 12.503 13.9997 12.5396 13.9512C12.2181 13.7503 11.9882 13.462 11.8413 13.1377C11.6563 12.7288 11.5968 12.2513 11.6118 11.748C10.6941 11.5373 9.90543 11.1885 9.34033 10.6328C8.41292 9.72089 8.43684 8.33936 8.78174 7.00098L8.7915 6.96289C9.13643 5.81268 10.1416 5.23968 11.2808 5.01855ZM11.9604 6.93848C11.899 6.9432 11.8023 6.95513 11.6616 6.98242C10.9243 7.12559 10.7635 7.37185 10.7134 7.52051C10.4131 8.69995 10.6288 9.09507 10.7427 9.20703C11.0291 9.48852 11.651 9.78431 12.8306 9.93262C13.1016 9.96676 13.3468 10.1105 13.5093 10.3301C13.6718 10.5499 13.7378 10.8273 13.6909 11.0967C13.6272 11.4624 13.6043 11.7478 13.6099 11.9619C13.6131 12.0865 13.6276 12.1734 13.6401 12.2305C13.6414 12.2303 13.6436 12.2305 13.645 12.2305C14.0262 12.1911 14.2405 12.0998 14.354 12.0215C14.4482 11.9563 14.5098 11.8759 14.5483 11.7373L14.5796 11.6436C14.6628 11.4287 14.8186 11.248 15.021 11.1338C15.2525 11.0033 15.5269 10.9702 15.7827 11.042C16.4755 11.2367 16.788 11.1807 16.8833 11.1396C16.9088 11.1286 16.9163 11.1206 16.9272 11.1035C16.9452 11.0752 16.9863 10.9924 17.0063 10.8135C17.08 10.1541 16.9372 9.56023 16.7466 9.14355C16.6799 8.9979 16.6096 8.88934 16.5552 8.8125C16.3361 8.79951 16.0627 8.77143 15.7993 8.70215C15.591 8.64731 15.3032 8.54693 15.0493 8.34473C14.8403 8.17822 14.6491 7.93346 14.562 7.61816C14.5402 7.60954 14.5157 7.59759 14.4868 7.58789C14.1955 7.49025 13.759 7.42485 13.3169 7.4248C12.9445 7.42475 12.6052 7.36162 12.3022 7.19238C12.1567 7.11101 12.0492 7.02146 11.9741 6.95215C11.9694 6.94778 11.965 6.94277 11.9604 6.93848Z" fill="#9E9E9E"/>
</g>
</svg>
