<svg width="24" height="24" viewBox="0 0 24 24" fill="none" xmlns="http://www.w3.org/2000/svg">
<g id="icons/Health/cardioelectric">
<path id="Union" d="M16.5459 2C20.1009 2.00024 23 4.85645 23 8.40039C22.9999 10.6509 21.95 12.6604 20.7588 14.2744C19.5652 15.8916 18.1332 17.235 17.249 18.1104C15.9795 19.3672 14.4096 20.6082 12.5508 21.835C12.2168 22.0553 11.7832 22.0553 11.4492 21.835C9.59044 20.6082 8.02054 19.3672 6.75098 18.1104C6.56853 17.9297 6.37357 17.7393 6.1543 17.5234C5.76088 17.136 5.75527 16.5029 6.14258 16.1094C6.53001 15.7158 7.16403 15.7112 7.55762 16.0986C7.76688 16.3046 7.97468 16.5078 8.1582 16.6895C9.19103 17.712 10.4697 18.7461 12 19.793C13.5303 18.7461 14.809 17.712 15.8418 16.6895C16.7758 15.7648 18.0713 14.549 19.1504 13.0869C20.2317 11.6218 20.9999 10.0318 21 8.40039C21 5.97993 19.0154 4.00024 16.5459 4C14.993 4 13.6278 4.78381 12.8301 5.97168C12.6443 6.24816 12.3331 6.41406 12 6.41406C11.6669 6.41406 11.3557 6.24816 11.1699 5.97168C10.3722 4.78381 9.00704 4 7.4541 4C4.98463 4.00024 3 5.97993 3 8.40039C3.00006 9.1556 3.16453 9.90311 3.45215 10.6387C3.52168 10.8165 3.59854 10.9932 3.68164 11.1689C3.91776 11.6682 3.70424 12.2648 3.20508 12.501C2.70582 12.7371 2.10919 12.5237 1.87305 12.0244C1.77138 11.8095 1.67612 11.5903 1.58887 11.3672C1.22814 10.4447 1.00006 9.44911 1 8.40039C1 4.85645 3.89906 2.00024 7.4541 2C9.22671 2 10.833 2.71091 12 3.85938C13.167 2.71091 14.7733 2 16.5459 2ZM16.917 7.20898C17.3035 6.81489 17.9366 6.80806 18.3311 7.19434C18.7256 7.58078 18.7321 8.21482 18.3457 8.60938L13.5039 13.5527C13.3152 13.7454 13.0558 13.8532 12.7861 13.8525C12.5166 13.8518 12.2589 13.7423 12.0713 13.5488L9.53906 10.9385L4.70117 15.6992C4.30747 16.0865 3.67443 16.0812 3.28711 15.6875C2.89995 15.2938 2.90518 14.6607 3.29883 14.2734L8.85547 8.80664C9.04535 8.61984 9.30202 8.51648 9.56836 8.51953C9.83467 8.52267 10.0889 8.63213 10.2744 8.82324L12.792 11.4189L16.917 7.20898Z" fill="#9E9E9E"/>
</g>
</svg>
