<svg width="24" height="24" viewBox="0 0 24 24" fill="none" xmlns="http://www.w3.org/2000/svg">
<g id="icons/Health/cell">
<path id="Union" d="M10.8533 1.59863C14.3866 0.0735678 16.7589 0.249182 18.1853 1.43457C18.7677 1.91875 19.2925 2.76764 19.5134 3.82324C19.9143 3.86875 20.3089 3.97376 20.6941 4.13574C21.3438 4.40927 22.2456 5.19411 22.6814 6.43359C23.1391 7.73642 23.0486 9.42761 21.8796 11.4277C20.1239 14.4315 17.7987 15.3272 16.0417 15.0352C16.0177 15.1069 16.0015 15.1772 15.9958 15.248C15.9798 15.4523 16.0244 15.7355 16.2078 16.1172C16.3879 16.4916 16.6914 16.6785 17.3425 16.9482C17.9127 17.1844 18.9104 17.5233 19.5681 18.4141C20.3039 19.4106 20.6464 20.5129 20.4412 21.6738C20.3449 22.2175 19.8267 22.5804 19.283 22.4844C18.7394 22.3882 18.3766 21.8698 18.4724 21.3262C18.5627 20.8157 18.4432 20.2564 17.9597 19.6016C17.703 19.2539 17.3286 19.1073 16.5769 18.7959C15.9067 18.5182 14.9392 18.0947 14.405 16.9834C14.1123 16.374 13.9518 15.7354 14.0027 15.0908C14.0292 14.7555 14.1116 14.4386 14.2429 14.1426C13.7811 13.6865 13.4928 13.1139 13.3396 12.4697C12.754 12.7702 12.1754 13.0315 11.6072 13.249C9.92847 13.8916 8.31228 14.1857 6.91577 14.0859C6.30913 14.0426 5.72464 13.9217 5.19214 13.7119C4.07871 14.8639 3.43236 15.8147 3.15601 16.5674C3.00362 16.9827 2.97748 17.3017 3.01538 17.5459C3.05194 17.7809 3.15684 18.0077 3.36987 18.2383C3.73585 18.6343 4.0137 18.7277 4.22632 18.7471C4.48401 18.7704 4.80766 18.7 5.28589 18.5059C5.52043 18.4106 5.76235 18.2985 6.03882 18.1709C6.30729 18.047 6.60577 17.9104 6.91577 17.7861C7.53606 17.5376 8.26635 17.3136 9.08276 17.3135C11.3238 17.3135 12.9104 18.7729 13.9177 21.1035C14.1366 21.6104 13.9031 22.1989 13.3962 22.418C12.8894 22.6367 12.3009 22.4032 12.0818 21.8965C11.2527 19.9785 10.2275 19.3135 9.08276 19.3135C8.63004 19.3136 8.17147 19.4376 7.65991 19.6426C7.4039 19.7452 7.14888 19.8617 6.87671 19.9873C6.61279 20.1091 6.32525 20.2431 6.03882 20.3594C5.47473 20.5884 4.78776 20.8059 4.04468 20.7383C3.25638 20.6665 2.54201 20.2892 1.90112 19.5957C1.4431 19.1 1.14175 18.5153 1.03882 17.8525C0.937344 17.1988 1.03808 16.533 1.27808 15.8789C1.66551 14.8233 2.45082 13.7104 3.54956 12.541C3.51659 12.5007 3.48241 12.461 3.45093 12.4189C2.6743 11.3805 2.54131 10.1143 2.87866 8.87207C3.21089 7.64929 3.99959 6.42058 5.1228 5.29395C5.53084 4.88469 5.98909 4.48608 6.49194 4.09961C7.17477 3.57453 7.94126 3.07287 8.78882 2.61133C9.34008 2.31116 9.86451 2.04733 10.363 1.81738L10.8533 1.59863ZM19.5388 5.85352C19.3866 6.71379 19.0202 7.62927 18.3552 8.54688L18.1208 8.85547C17.5469 9.57434 16.7921 10.2816 15.8279 10.9609C15.6207 11.1069 15.4122 11.246 15.2048 11.3818C15.2352 12.2193 15.4938 12.6237 15.782 12.833C16.2342 13.1608 18.2556 13.6644 20.1531 10.418C21.0823 8.828 21.0234 7.7478 20.7947 7.09668C20.5438 6.38338 20.041 6.03037 19.9177 5.97852C19.789 5.92443 19.6629 5.88303 19.5388 5.85352ZM7.44116 5.89648C7.35754 5.96433 7.27493 6.03134 7.19507 6.09961C6.96007 6.30048 6.74114 6.50313 6.53882 6.70605C5.58122 7.66659 5.02372 8.60369 4.80835 9.39648C4.59838 10.1697 4.71592 10.7705 5.05249 11.2207C5.38727 11.6683 6.02638 12.0171 7.05835 12.0908C8.08643 12.1642 9.40444 11.9514 10.8923 11.3818C11.2242 11.2548 11.5622 11.1087 11.906 10.9473C10.8619 10.4228 10.0004 9.80038 9.23315 8.96387C8.40069 8.05611 7.80248 7.03041 7.44116 5.89648ZM16.907 2.97266C16.3571 2.51574 14.9346 2.01528 11.6462 3.43457L11.2019 3.63281C10.7468 3.8428 10.2614 4.08692 9.74487 4.36816C9.57939 4.45828 9.41806 4.55002 9.2605 4.64258C9.2355 4.65726 9.21107 4.67276 9.18628 4.6875C9.42162 5.78985 9.92544 6.75916 10.7068 7.61133C11.5316 8.51063 12.5239 9.12482 14.0974 9.7168C14.2896 9.59112 14.4835 9.46215 14.6765 9.32617C15.6273 8.65628 16.2871 7.9925 16.7361 7.37305C18.3189 5.18878 17.4053 3.38733 16.907 2.97266Z" fill="#9E9E9E"/>
</g>
</svg>
