<svg width="24" height="24" viewBox="0 0 24 24" fill="none" xmlns="http://www.w3.org/2000/svg">
<g id="icons/Health/chest">
<path id="Union" d="M6.6123 9.75879C7.16252 9.80464 7.57202 10.2876 7.52637 10.8379C7.42091 12.1104 7.63993 13.1593 8.13379 14.0303C8.55189 14.7674 9.31567 15.296 10.6504 15.498C11.1963 15.5807 11.5726 16.0899 11.4902 16.6357C11.4074 17.1815 10.8974 17.5581 10.3516 17.4756C9.67593 17.3733 9.0547 17.1944 8.5 16.9346V19.2197C8.49999 20.401 8.06066 21.472 7.25879 22.4072C6.89925 22.8261 6.26777 22.874 5.84863 22.5146C5.42983 22.1551 5.38193 21.5246 5.74121 21.1055C6.27262 20.4857 6.49999 19.865 6.5 19.2197V15.1904C6.46416 15.1332 6.42729 15.0761 6.39355 15.0166C5.66967 13.7398 5.40022 12.2756 5.5332 10.6719C5.57905 10.1217 6.06203 9.71313 6.6123 9.75879ZM17.3887 9.75781C17.9389 9.71264 18.4214 10.1226 18.4668 10.6729C18.5991 12.2758 18.3308 13.7392 17.6104 15.0156C17.5754 15.0775 17.5372 15.1368 17.5 15.1963V19.2197C17.5 19.865 17.7274 20.4857 18.2588 21.1055C18.6181 21.5246 18.5702 22.1551 18.1514 22.5146C17.7322 22.874 17.1007 22.8261 16.7412 22.4072C15.9393 21.472 15.5 20.401 15.5 19.2197V16.9414C14.9539 17.1967 14.3433 17.3732 13.6797 17.4746C13.134 17.558 12.6238 17.1832 12.54 16.6377C12.4566 16.0919 12.8312 15.5817 13.377 15.498C14.6936 15.2968 15.451 14.7709 15.8682 14.0322C16.3601 13.1607 16.5787 12.1104 16.4736 10.8369C16.4283 10.2866 16.8384 9.80328 17.3887 9.75781ZM8.49805 0.75C9.05033 0.75 9.49805 1.19772 9.49805 1.75V4.32422C9.49805 4.63105 9.45713 4.97005 9.30566 5.30371C9.14947 5.64778 8.90845 5.91527 8.61816 6.12598C8.09601 6.50483 7.34121 6.74272 6.4502 6.97168C5.53516 7.20678 5.06228 7.3671 4.77246 7.52637C4.55224 7.64741 4.44192 7.76252 4.30859 8.01562C4.14157 8.3327 4 8.96216 4 10.0361V18.75C4 19.3023 3.55228 19.75 3 19.75C2.44772 19.75 2 19.3023 2 18.75V10.0361C2 8.86909 2.14079 7.84028 2.53906 7.08398C2.82977 6.53208 3.20128 6.10771 3.80957 5.77344C4.34832 5.4774 5.05189 5.26646 5.95215 5.03516C6.87641 4.79766 7.27076 4.633 7.44336 4.50781C7.46795 4.48997 7.47961 4.47689 7.48535 4.4707C7.48955 4.45468 7.49805 4.41166 7.49805 4.32422V1.75C7.49805 1.19783 7.94592 0.750191 8.49805 0.75ZM15.5 0.75C16.0523 0.75 16.5 1.19772 16.5 1.75V4.32422C16.5 4.41315 16.5086 4.45632 16.5127 4.47168C16.5186 4.47794 16.5307 4.49039 16.5547 4.50781C16.7272 4.633 17.1216 4.79766 18.0459 5.03516C18.9463 5.26649 19.6506 5.47737 20.1895 5.77344C20.7975 6.10767 21.1683 6.53219 21.459 7.08398C21.8574 7.84031 21.998 8.86905 21.998 10.0361V18.75C21.998 19.3023 21.5503 19.75 20.998 19.75C20.446 19.7497 19.998 19.3021 19.998 18.75V10.0361C19.998 8.96214 19.8565 8.33267 19.6895 8.01562C19.5562 7.76259 19.4459 7.64743 19.2256 7.52637C18.9358 7.36715 18.4634 7.20668 17.5488 6.97168C16.6578 6.74272 15.903 6.50484 15.3809 6.12598C15.0905 5.91528 14.8496 5.64781 14.6934 5.30371C14.5419 4.97005 14.5 4.63104 14.5 4.32422V1.75C14.5 1.19776 14.9478 0.750066 15.5 0.75Z" fill="#9E9E9E"/>
</g>
</svg>
