<svg width="24" height="24" viewBox="0 0 24 24" fill="none" xmlns="http://www.w3.org/2000/svg">
<g id="icons/Health/composition">
<path id="Union" d="M11.0754 2.05371C11.466 1.66355 12.0991 1.66338 12.4895 2.05371L22.3889 11.9531C22.7793 12.3435 22.7791 12.9766 22.3889 13.3672C21.9984 13.7577 21.3654 13.7577 20.9749 13.3672L19.9143 12.3066L11.6917 20.5293C9.57483 22.6461 6.13254 22.5668 4.00415 20.4385C2.02757 18.4618 1.81856 15.3526 3.49438 13.2236C3.55678 13.1125 3.63983 13.0144 3.73853 12.9346C3.79498 12.8725 3.85335 12.811 3.91333 12.751L12.136 4.52832L11.0754 3.46777C10.685 3.07724 10.6849 2.44421 11.0754 2.05371ZM11.8743 14.5137L11.2688 18.123L14.9583 14.4326L11.8743 14.5137ZM13.2649 6.22656L12.2112 12.5039L17.0139 12.377L18.4993 10.8916L13.5491 5.94141L13.2649 6.22656ZM13.2825 9.03906C13.673 8.64856 14.306 8.64853 14.6965 9.03906C15.087 9.42956 15.087 10.0626 14.6965 10.4531C14.3061 10.8436 13.673 10.8435 13.2825 10.4531C12.892 10.0626 12.892 9.42956 13.2825 9.03906Z" fill="#9E9E9E"/>
</g>
</svg>
