<svg width="24" height="24" viewBox="0 0 24 24" fill="none" xmlns="http://www.w3.org/2000/svg">
<g id="icons/Health/cross-society">
<path id="Union" d="M14 1.5C15.1046 1.5 16 2.39544 16 3.5V8H20.5C21.6046 8 22.5 8.89542 22.5 10V14C22.5 15.1046 21.6046 16 20.5 16H16V20.5C16 21.6046 15.1046 22.5 14 22.5H10C8.89542 22.5 8 21.6046 8 20.5V16H3.5C2.39544 16 1.5 15.1046 1.5 14V10C1.5 8.89541 2.39544 8 3.5 8H8V3.5C8 2.39544 8.89541 1.5 10 1.5H14ZM10 9C10 9.55229 9.55229 10 9 10H3.5V14H9C9.55229 14 10 14.4477 10 15V20.5H14V15C14 14.4477 14.4477 14 15 14H20.5V10H15C14.4477 10 14 9.55229 14 9V3.5H10V9Z" fill="#9E9E9E"/>
</g>
</svg>
