<svg width="24" height="24" viewBox="0 0 24 24" fill="none" xmlns="http://www.w3.org/2000/svg">
<g id="icons/Health/detection">
<path id="Union" d="M14.8086 3.68066C16.774 2.0315 19.7042 2.2878 21.3535 4.25293C23.0025 6.21846 22.7467 9.1496 20.7812 10.7988L19.1855 12.1377L19.1523 12.165L19.8691 13.0186C20.2238 13.4416 20.1689 14.0718 19.7461 14.4268C19.3231 14.7815 18.6919 14.7265 18.3369 14.3037L17.6201 13.4502L14.7969 15.8203L10.8066 19.168C10.6037 19.3382 10.3411 19.4213 10.0771 19.3984L7.55566 19.1787L5.87988 20.5859C4.79502 21.4961 3.17699 21.3541 2.2666 20.2695C1.35694 19.1855 1.49817 17.5689 2.58203 16.6592L4.25879 15.251L4.48047 12.7295L4.49414 12.6318C4.53664 12.4057 4.65624 12.2 4.83398 12.0508L8.82422 8.70215L11.6484 6.33203L10.9521 5.50195C10.5972 5.07898 10.6524 4.4488 11.0752 4.09375C11.4982 3.73877 12.1284 3.7938 12.4834 4.2168L13.1797 5.04688L13.2129 5.01953L14.8086 3.68066ZM10.1094 10.2344L6.43555 13.3164L6.21582 15.8389C6.19255 16.1027 6.06614 16.3473 5.86328 16.5176L3.86816 18.1914C3.63029 18.3911 3.59918 18.7465 3.79883 18.9844C3.99922 19.2225 4.35516 19.2536 4.59375 19.0537L6.58691 17.3809L6.66602 17.3213C6.8558 17.1916 7.08541 17.1304 7.31641 17.1504L9.83691 17.3701L13.5107 14.2881L16.335 11.918L12.9336 7.86328L10.1094 10.2344ZM11.4932 11.2471C11.909 10.884 12.541 10.9262 12.9043 11.3418C13.2675 11.7578 13.2246 12.3897 12.8086 12.7529L9.94629 15.2529C9.53042 15.6161 8.89847 15.5738 8.53516 15.1582C8.17209 14.7423 8.2143 14.1104 8.62988 13.7471L11.4932 11.2471ZM19.8213 5.53906C18.882 4.41982 17.2131 4.27367 16.0938 5.21289L14.498 6.55176L14.4648 6.57812L17.8662 10.6318L17.8994 10.6055L19.4951 9.2666H19.4961C20.6152 8.32736 20.7602 6.6584 19.8213 5.53906Z" fill="#9E9E9E"/>
</g>
</svg>
