<svg width="24" height="24" viewBox="0 0 24 24" fill="none" xmlns="http://www.w3.org/2000/svg">
<g id="icons/Health/ecg">
<path id="Union" d="M6.0791 4.50293C6.5274 4.5386 6.8974 4.86993 6.98242 5.31152L8.78516 14.6855L10.5566 9.66699C10.6902 9.28885 11.0372 9.02702 11.4375 9.00195C11.8379 8.97703 12.215 9.19394 12.3945 9.55273L13.5322 11.8291L16.1191 7.02637L16.2012 6.89844C16.4107 6.62015 16.7538 6.46766 17.1074 6.50586C17.5118 6.54963 17.8501 6.83449 17.9619 7.22559L19 10.8584L19.0381 10.7256L19.0967 10.5713C19.26 10.2269 19.6093 10 20 10H22C22.5522 10 22.9999 10.4478 23 11C23 11.5523 22.5523 12 22 12H20.7549L19.9619 14.7744C19.8393 15.2037 19.4465 15.5 19 15.5C18.5535 15.5 18.1607 15.2037 18.0381 14.7744L16.7139 10.1396L14.3809 14.4736C14.2039 14.8023 13.8577 15.0057 13.4844 15C13.1113 14.9942 12.7724 14.781 12.6055 14.4473L11.6592 12.5547L9.44336 18.833C9.2931 19.2587 8.87592 19.5306 8.42578 19.4971C7.9755 19.4634 7.60285 19.1319 7.51758 18.6885L5.70117 9.24512L4.93945 11.3418C4.79571 11.7369 4.42045 12 4 12H2C1.44772 12 1 11.5523 1 11C1.00012 10.4478 1.44779 10 2 10H3.2998L5.06055 5.1582L5.12988 5.00684C5.31887 4.67324 5.68709 4.47184 6.0791 4.50293Z" fill="#9E9E9E"/>
</g>
</svg>
