<svg width="24" height="24" viewBox="0 0 24 24" fill="none" xmlns="http://www.w3.org/2000/svg">
<g id="icons/Health/eeg">
<path id="Union" d="M21 15C21.5523 15 22 15.4477 22 16V19.5C22 20.8807 20.8807 22 19.5 22H4.5C3.1193 22 2 20.8807 2 19.5V16C2 15.4477 2.44772 15 3 15C3.55228 15 4 15.4477 4 16V19.5C4 19.7762 4.22385 20 4.5 20H19.5C19.7762 20 20 19.7762 20 19.5V16C20 15.4477 20.4477 15 21 15ZM10.1504 7.01172C10.4895 7.06333 10.7785 7.28529 10.916 7.59961L13.7832 14.1523L16.2334 11.3428C16.4233 11.125 16.6984 11.0001 16.9873 11H21.5C22.0523 11 22.5 11.4477 22.5 12C22.5 12.5523 22.0523 13 21.5 13H17.4424L14.2539 16.6572C14.0288 16.9154 13.6872 17.0401 13.3486 16.9883C13.01 16.9363 12.7213 16.7143 12.584 16.4004L9.71875 9.85156L7.29395 12.6543C7.104 12.8737 6.82733 13 6.53711 13H2.5C1.94772 13 1.5 12.5523 1.5 12C1.5 11.4477 1.94772 11 2.5 11H6.08008L9.24414 7.3457L9.33301 7.25488C9.55365 7.05733 9.85327 6.96665 10.1504 7.01172ZM19.5 2C20.8807 2 22 3.1193 22 4.5V8C22 8.55228 21.5523 9 21 9C20.4477 9 20 8.55228 20 8V4.5C20 4.22385 19.7762 4 19.5 4H4.5C4.22386 4 4 4.22386 4 4.5V8C4 8.55228 3.55228 9 3 9C2.44772 9 2 8.55228 2 8V4.5C2 3.11929 3.11929 2 4.5 2H19.5Z" fill="#9E9E9E"/>
</g>
</svg>
