<svg width="24" height="24" viewBox="0 0 24 24" fill="none" xmlns="http://www.w3.org/2000/svg">
<g id="icons/Health/endocrine">
<path id="Union" d="M8.77063 1.19531C9.06125 0.980899 9.44514 0.939839 9.77454 1.08789C11.9077 2.04777 13.4881 3.40288 14.3927 5.19531C15.0924 6.58208 15.1215 8.14512 15.1407 9.16992C15.1431 9.29382 15.1472 9.40691 15.1495 9.50977C15.1639 9.49392 15.1797 9.47863 15.1945 9.46191C15.6501 8.94705 16.22 8.13364 16.9044 6.9873L16.9738 6.88574C17.1497 6.65969 17.4163 6.51852 17.7062 6.50195C18.0372 6.48315 18.3564 6.62912 18.5577 6.89258C20.2142 9.06063 21.0001 11.8215 21.0001 15.0898C21.0001 18.5549 19.7989 20.6673 17.8156 21.8164C15.9586 22.8922 13.5952 23 11.5734 23C9.37978 23 7.3618 22.4559 5.81458 21.2031C4.25127 19.9372 3.28268 18.0396 3.0343 15.5674C2.76497 12.8865 4.13804 10.8267 5.47375 9.34766C6.14004 8.60991 6.85116 7.95912 7.37219 7.45605C7.64224 7.19532 7.85681 6.97893 8.0177 6.79199C8.18729 6.59493 8.24393 6.49148 8.25598 6.46094C8.55194 5.71049 8.64456 4.31827 8.37219 2.12305C8.32775 1.76456 8.47999 1.40983 8.77063 1.19531ZM10.5197 3.7832C10.5758 5.1653 10.4608 6.32079 10.1163 7.19434C9.98047 7.53879 9.74957 7.84542 9.53333 8.09668C9.30842 8.35799 9.03816 8.62872 8.76184 8.89551C8.18973 9.44789 7.56369 10.018 6.95813 10.6885C5.75008 12.0261 4.83971 13.5358 5.02356 15.3672C5.22853 17.4074 5.99614 18.7762 7.07336 19.6484C8.16663 20.5337 9.6938 21 11.5734 21C13.6245 21 15.4747 20.8609 16.8126 20.0859C18.0242 19.3839 19.0001 18.0399 19.0001 15.0898C19.0001 12.8054 18.574 10.9115 17.7657 9.36621C17.3851 9.93167 17.0283 10.4087 16.6925 10.7881C16.4046 11.1133 16.1076 11.3972 15.8019 11.6064C15.5057 11.8092 15.1162 12 14.6652 12C14.2412 12 13.86 11.8187 13.5968 11.4941C13.3761 11.2219 13.2863 10.9082 13.2413 10.6875C13.153 10.2532 13.1507 9.68411 13.1417 9.20801C13.1216 8.13327 13.0721 7.01928 12.6066 6.09668C12.1661 5.22397 11.483 4.44825 10.5197 3.7832ZM10.2892 11.1787C10.553 10.9981 10.8908 10.9531 11.1964 11.0645C11.5454 11.1917 11.7951 11.5019 11.8448 11.8701C12.0144 13.1257 12.3439 13.8608 12.7032 14.249C13.4064 15.0085 13.9698 15.8106 14.1749 16.6309C14.2821 17.0595 14.2971 17.5139 14.1622 17.9629C14.0269 18.4134 13.761 18.7916 13.4152 19.0996C12.3454 20.0523 11.1573 20.0667 10.3868 19.9209L10.0841 19.8506C9.11044 19.5836 7.77317 18.7408 7.43958 16.9922C7.05736 14.988 8.20882 13.0569 10.1818 11.2637L10.2892 11.1787ZM10.3097 14.0312C9.4863 15.0838 9.27359 15.9375 9.40344 16.6182C9.55332 17.4032 10.1389 17.7918 10.6134 17.9219C11.0044 18.029 11.5708 18.0644 12.0851 17.6064C12.1988 17.5052 12.2332 17.431 12.2462 17.3877C12.2597 17.3429 12.2717 17.2612 12.2355 17.1162C12.1537 16.7893 11.8661 16.2886 11.2355 15.6074C10.8382 15.1782 10.5359 14.6446 10.3097 14.0312Z" fill="#9E9E9E"/>
</g>
</svg>
