<svg width="24" height="24" viewBox="0 0 24 24" fill="none" xmlns="http://www.w3.org/2000/svg">
<g id="icons/Health/eyes">
<path id="Union" d="M12.0049 2.5C12.5572 2.5 13.0049 2.94772 13.0049 3.5V5.55078C14.1377 5.66532 15.2091 5.96978 16.1904 6.40137L17 5.27246C17.3218 4.82378 17.9467 4.72131 18.3955 5.04297C18.8443 5.36473 18.9477 5.98963 18.626 6.43848L17.9561 7.37109C18.3313 7.62319 18.6849 7.89328 19.0146 8.17578C20.7524 9.6643 22 11.667 22 13.5C22 15.333 20.7524 17.3357 19.0146 18.8242C17.2377 20.3463 14.7639 21.5 12 21.5C9.23593 21.5 6.76217 20.3456 4.98535 18.8232C3.24786 17.3345 2 15.3316 2 13.5C2 11.6684 3.24786 9.66547 4.98535 8.17676C5.43401 7.79235 5.92702 7.43127 6.45801 7.10645L5.81934 6.21582C5.49773 5.76707 5.60032 5.14213 6.04883 4.82031C6.49758 4.49871 7.12252 4.6013 7.44434 5.0498L8.27539 6.20898C9.12978 5.87872 10.0454 5.64593 11.0049 5.5498V3.5C11.0049 2.94772 11.4526 2.5 12.0049 2.5ZM12 7.5C9.7936 7.5 7.76764 8.42774 6.28711 9.69629C4.76723 10.9985 4 12.4955 4 13.5C4 14.5045 4.76723 16.0015 6.28711 17.3037C7.76764 18.5723 9.7936 19.5 12 19.5C14.2066 19.5 16.2335 18.5728 17.7139 17.3047C19.2332 16.0031 20 14.5059 20 13.5C20 12.4941 19.2332 10.9969 17.7139 9.69531C16.2335 8.42719 14.2066 7.5 12 7.5ZM12 9.5C14.2091 9.5 16 11.2909 16 13.5C16 15.7091 14.2091 17.5 12 17.5C9.79087 17.5 8 15.7091 8 13.5C8 11.2909 9.79087 9.5 12 9.5ZM12 11.5C10.8954 11.5 10 12.3954 10 13.5C10 14.6046 10.8954 15.5 12 15.5C13.1046 15.5 14 14.6046 14 13.5C14 12.3954 13.1046 11.5 12 11.5Z" fill="#9E9E9E"/>
</g>
</svg>
