<svg width="24" height="24" viewBox="0 0 24 24" fill="none" xmlns="http://www.w3.org/2000/svg">
<g id="icons/Health/facial-mask">
<path id="Union" d="M11.1592 3.23828C11.7029 3.04413 12.2971 3.04413 12.8408 3.23828L18.3408 5.20312C19.1785 5.50239 19.7795 6.21813 19.9492 7.06738C20.5712 7.15894 21.1843 7.3561 21.7061 7.73242C22.5538 8.34416 23 9.30487 23 10.5264C23 12.5067 21.7997 14.3533 20 14.8613V15.8018C20 16.536 19.6755 17.2575 19.0635 17.7275C18.4331 18.2116 17.3284 19.0116 16.082 19.6953C14.8703 20.36 13.3742 21 12 21C10.6258 21 9.12971 20.36 7.91797 19.6953C6.67155 19.0116 5.56691 18.2116 4.93652 17.7275C4.32449 17.2575 4 16.536 4 15.8018V14.8613C2.20033 14.3533 1.00003 12.5067 1 10.5264C1.00003 9.30487 1.44622 8.34416 2.29395 7.73242C2.8154 7.35629 3.42819 7.159 4.0498 7.06738C4.21947 6.21805 4.8214 5.50241 5.65918 5.20312L11.1592 3.23828ZM12.168 5.12207C12.0593 5.08331 11.9407 5.08331 11.832 5.12207L6.33203 7.08594C6.13313 7.15698 6.00023 7.34555 6 7.55664V15.8018C6 15.9525 6.0655 16.0717 6.15527 16.1406C6.7453 16.5937 7.75896 17.3265 8.87988 17.9414C10.0358 18.5754 11.157 19 12 19C12.843 19 13.9642 18.5754 15.1201 17.9414C16.241 17.3265 17.2547 16.5937 17.8447 16.1406C17.9345 16.0717 18 15.9525 18 15.8018V7.55664C17.9998 7.34555 17.8669 7.15698 17.668 7.08594L12.168 5.12207ZM11.7188 13.54C11.9326 13.4774 12.1625 13.4879 12.3711 13.5713L14.8711 14.5713C15.3837 14.7763 15.6335 15.3584 15.4287 15.8711C15.2236 16.3838 14.6416 16.6336 14.1289 16.4287L12 15.5771L9.87109 16.4287C9.35839 16.6336 8.77636 16.3838 8.57129 15.8711C8.36649 15.3584 8.61627 14.7763 9.12891 14.5713L11.6289 13.5713L11.7188 13.54ZM11.6602 9.55957C11.9161 9.46707 12.2008 9.48227 12.4473 9.60547L16.4473 11.6055C16.9412 11.8524 17.1414 12.4533 16.8945 12.9473C16.6475 13.4412 16.0467 13.6415 15.5527 13.3945L12 11.6182L8.44727 13.3945C7.95329 13.6415 7.35246 13.4412 7.10547 12.9473C6.85855 12.4533 7.05879 11.8524 7.55273 11.6055L11.5527 9.60547L11.6602 9.55957ZM4 9.11523C3.7772 9.17578 3.59909 9.25694 3.46387 9.35449C3.22584 9.52626 3.00003 9.82955 3 10.5264C3.00002 11.5031 3.43249 12.2496 4 12.6562V9.11523ZM20 12.6562C20.5675 12.2496 21 11.5031 21 10.5264C21 9.82955 20.7742 9.52626 20.5361 9.35449C20.4009 9.25694 20.2228 9.17578 20 9.11523V12.6562Z" fill="#9E9E9E"/>
</g>
</svg>
