<svg width="24" height="24" viewBox="0 0 24 24" fill="none" xmlns="http://www.w3.org/2000/svg">
<g id="icons/Health/first-aid-kit">
<path id="Union" d="M15.5 3C16.0523 3 16.5 3.44772 16.5 4V6H21.5C22.0523 6 22.5 6.44772 22.5 7V10C22.5 10.5523 22.0523 11 21.5 11H21V19C21 20.1046 20.1046 21 19 21H5C3.89544 21 3 20.1046 3 19V11H2.5C1.94772 11 1.5 10.5523 1.5 10V7C1.5 6.44772 1.94772 6 2.5 6H7.5V4C7.5 3.44772 7.94772 3 8.5 3H15.5ZM5 19H19V11H5V19ZM12 12C12.5523 12 13 12.4477 13 13V14H14C14.5523 14 15 14.4477 15 15C15 15.5523 14.5523 16 14 16H13V17C13 17.5523 12.5523 18 12 18C11.4477 18 11 17.5523 11 17V16H10C9.44772 16 9 15.5523 9 15C9 14.4477 9.44772 14 10 14H11V13C11 12.4477 11.4477 12 12 12ZM3.5 9H20.5V8H3.5V9ZM9.5 6H14.5V5H9.5V6Z" fill="#9E9E9E"/>
</g>
</svg>
