<svg width="24" height="24" viewBox="0 0 24 24" fill="none" xmlns="http://www.w3.org/2000/svg">
<g id="icons/Health/gastrointestinal">
<path id="Union" d="M10.5312 2.25098C10.6689 1.71654 11.2135 1.39412 11.748 1.53125C12.2828 1.66868 12.605 2.21423 12.4678 2.74902C11.9086 4.92491 11.993 6.26437 12.3828 7.00098C12.5493 7.31542 12.7751 7.6036 13.0586 7.9707C13.313 8.30012 13.6506 8.73639 13.8525 9.23145C14.0764 9.78052 14.1416 10.4134 13.876 11.0996C13.6294 11.736 13.1316 12.3285 12.4316 12.9199C10.8633 14.2449 9.24944 14.3431 7.88965 14.1299C7.23871 14.0278 6.62028 13.8496 6.13574 13.7197C5.60673 13.5779 5.26869 13.5039 5.02051 13.5039C4.62196 13.504 4.1473 13.7268 3.7334 14.3174C3.31972 14.9078 3.01081 15.8221 3.01074 17C3.01074 18.6744 3.31898 19.9984 3.87695 21.0205C4.14161 21.5052 3.96313 22.1132 3.47852 22.3779C2.99393 22.6424 2.3868 22.4639 2.12207 21.9795C1.36207 20.5875 1.01074 18.9109 1.01074 17C1.0108 15.489 1.40471 14.1549 2.09473 13.1699C2.78455 12.1855 3.81509 11.504 5.02051 11.5039C5.57444 11.5039 6.16387 11.6569 6.65332 11.7881C7.18725 11.9312 7.67975 12.0728 8.19922 12.1543C9.18028 12.3082 10.1473 12.2318 11.1416 11.3916C11.7224 10.9007 11.9376 10.5684 12.0117 10.377C12.0665 10.2354 12.0616 10.1351 12.001 9.98633C11.9182 9.78356 11.7558 9.5553 11.4756 9.19238C11.2243 8.867 10.8784 8.43353 10.6152 7.93652C9.85936 6.50833 9.94441 4.53457 10.5312 2.25098ZM14.0273 2.23926C14.1717 1.70636 14.7209 1.39105 15.2539 1.53516C15.7866 1.67943 16.1017 2.22795 15.958 2.76074C15.612 4.03982 15.505 4.99577 15.5703 5.66895C15.634 6.32431 15.8454 6.60439 16.0488 6.74316C16.177 6.83055 16.2512 6.8579 16.2812 6.86621C16.3039 6.87246 16.3119 6.87155 16.3223 6.87012C16.4181 6.85686 16.4739 6.81909 16.8809 6.63965C17.2303 6.48558 17.7079 6.30622 18.3428 6.29785C18.9697 6.2896 19.6677 6.44842 20.4893 6.82715C22.4532 7.73269 23.0548 9.72781 23.0166 11.5449C22.978 13.3714 22.3108 15.3228 21.3682 16.6787C20.4463 18.0046 19.0277 19.3072 17.3916 20.2285C15.758 21.1484 13.8208 21.7355 11.8799 21.4922C9.80619 21.2321 8.44899 19.8393 7.61035 18.6875C7.1903 18.1105 6.86694 17.5477 6.64551 17.1709C6.59297 17.2785 6.52754 17.476 6.49219 17.8125C6.4033 18.6598 6.64697 19.7139 7.375 21.0107C7.64512 21.4922 7.47356 22.1017 6.99219 22.3721C6.51064 22.6423 5.90119 22.4708 5.63086 21.9893C4.78315 20.4791 4.35611 19.0046 4.50293 17.6045C4.60901 16.5936 4.96225 15.8493 5.58105 15.4111C6.16571 14.9973 6.79448 15.0098 7.00879 15.0098L7.1543 15.0195C7.47846 15.0637 7.69197 15.2446 7.76562 15.3105C7.8771 15.4104 7.96335 15.5212 8.01953 15.5986C8.13421 15.7567 8.25556 15.9616 8.36426 16.1465C8.59924 16.5461 8.87267 17.0223 9.22754 17.5098C9.94735 18.4984 10.8736 19.3504 12.1289 19.5078C13.5175 19.6819 15.0206 19.2687 16.4102 18.4863C17.797 17.7054 18.9853 16.6032 19.7266 15.5371C20.4469 14.5008 20.9874 12.9313 21.0176 11.5029C21.0478 10.0656 20.5793 9.0711 19.6523 8.64355C19.0284 8.35592 18.6271 8.29446 18.3691 8.29785C18.1194 8.30114 17.9262 8.36447 17.6875 8.46973C17.5063 8.54964 17.0554 8.78807 16.5957 8.85156C16.0204 8.93097 15.4724 8.77081 14.9219 8.39551C14.0764 7.81892 13.6806 6.8965 13.5801 5.8623C13.4814 4.84581 13.6528 3.624 14.0273 2.23926ZM16.875 13.8252C17.0518 13.3022 17.6194 13.0216 18.1426 13.1982C18.6656 13.3751 18.9462 13.9427 18.7695 14.4658C18.4178 15.5072 17.8066 16.3572 16.9307 16.9697C16.064 17.5757 15.0088 17.9005 13.8203 17.9971C13.27 18.0418 12.7872 17.6322 12.7422 17.082C12.6975 16.5316 13.1078 16.0487 13.6582 16.0039C14.5852 15.9286 15.2758 15.6864 15.7842 15.3311C16.2831 14.9822 16.6487 14.4953 16.875 13.8252Z" fill="#9E9E9E"/>
</g>
</svg>
