<svg width="24" height="24" viewBox="0 0 24 24" fill="none" xmlns="http://www.w3.org/2000/svg">
<g id="icons/Health/gauze">
<path id="Union" d="M13 2.5C18.2467 2.5 22.5 6.75329 22.5 12C22.5 17.2467 18.2467 21.5 13 21.5H2.5C1.94772 21.5 1.5 21.0523 1.5 20.5C1.5 19.9477 1.94772 19.5 2.5 19.5H7.17285C4.93884 17.7618 3.5 15.0498 3.5 12C3.5 6.75329 7.75329 2.5 13 2.5ZM13 4.5C8.85786 4.5 5.5 7.85786 5.5 12C5.5 16.1421 8.85786 19.5 13 19.5C17.1421 19.5 20.5 16.1421 20.5 12C20.5 7.85786 17.1421 4.5 13 4.5ZM13 7.5C15.4853 7.5 17.5 9.51472 17.5 12C17.5 14.4853 15.4853 16.5 13 16.5C10.5147 16.5 8.5 14.4853 8.5 12C8.5 9.51472 10.5147 7.5 13 7.5ZM13 9.5C11.6193 9.5 10.5 10.6193 10.5 12C10.5 13.3807 11.6193 14.5 13 14.5C14.3807 14.5 15.5 13.3807 15.5 12C15.5 10.6193 14.3807 9.5 13 9.5Z" fill="#9E9E9E"/>
</g>
</svg>
