<svg width="24" height="24" viewBox="0 0 24 24" fill="none" xmlns="http://www.w3.org/2000/svg">
<g id="icons/Health/general-branch">
<path id="Union" d="M16.5 1.5C17.0523 1.5 17.5 1.94772 17.5 2.5V3.5H20C21.0685 3.5 21.9382 4.33804 21.9941 5.39258C21.9979 5.42787 22 5.4637 22 5.5V20.5C22 21.6046 21.1046 22.5 20 22.5H4C2.89545 22.5 2 21.6046 2 20.5V5.5C2 5.46374 2.00112 5.42784 2.00488 5.39258C2.06075 4.33801 2.9315 3.5 4 3.5H6.5V2.5C6.5 1.94772 6.94772 1.5 7.5 1.5C8.05228 1.5 8.5 1.94772 8.5 2.5V3.5H15.5V2.5C15.5 1.94772 15.9477 1.5 16.5 1.5ZM4 20.5H20V9.5H4V20.5ZM12 11C12.5523 11 13 11.4477 13 12V14H15C15.5523 14 16 14.4477 16 15C16 15.5523 15.5523 16 15 16H13V18C13 18.5523 12.5523 19 12 19C11.4477 19 11 18.5523 11 18V16H9C8.44772 16 8 15.5523 8 15C8 14.4477 8.44772 14 9 14H11V12C11 11.4477 11.4477 11 12 11ZM4 7.5H20V5.5H4V7.5Z" fill="#9E9E9E"/>
</g>
</svg>
