<svg width="24" height="24" viewBox="0 0 24 24" fill="none" xmlns="http://www.w3.org/2000/svg">
<g id="icons/Health/germs">
<path id="Union" d="M12 1C12.6401 1 13.037 1.41681 13.2236 1.66211C13.4173 1.91678 13.5658 2.22617 13.6641 2.42969C13.708 2.52073 13.7462 2.59828 13.7793 2.66504C13.8673 2.60361 13.9691 2.52997 14.0908 2.44043C14.2899 2.29401 14.5695 2.08815 14.8535 1.94531C15.0873 1.8278 15.5699 1.62413 16.1035 1.7959L16.2109 1.83496L16.3203 1.88574C16.8463 2.15854 17.021 2.67773 17.0859 2.94629C17.1616 3.25911 17.1772 3.60996 17.1885 3.8457C17.1934 3.94861 17.1976 4.03744 17.2021 4.11523C17.2986 4.08941 17.4096 4.05898 17.54 4.02148C17.7815 3.95208 18.1222 3.85404 18.4434 3.81934C18.7047 3.79112 19.2481 3.76769 19.6914 4.1416L19.7783 4.22168L19.8643 4.31641C20.2629 4.79666 20.1868 5.38268 20.1387 5.63574C20.0772 5.95854 19.9457 6.29972 19.8545 6.53906C19.8181 6.63467 19.786 6.71973 19.7578 6.7959C19.845 6.80061 19.9428 6.80669 20.0537 6.81152C20.3145 6.82288 20.6817 6.83842 21.0049 6.91016C21.2574 6.96621 21.8227 7.12644 22.1113 7.6748L22.165 7.78906L22.209 7.90918C22.3944 8.50151 22.1086 8.99312 21.9336 9.22656C21.7439 9.47949 21.4819 9.70467 21.3242 9.84277C21.2908 9.87205 21.26 9.89961 21.2314 9.9248C21.3373 9.99909 21.4595 10.0832 21.6045 10.1807C21.8367 10.3367 22.1413 10.5427 22.3857 10.7695C22.589 10.9582 23 11.3809 23 12C23 12.7686 22.3822 13.1558 22.1484 13.2861C21.8507 13.4521 21.4862 13.5752 21.2285 13.6631C21.1616 13.6859 21.0997 13.7076 21.042 13.7275C21.1044 13.7942 21.1732 13.8676 21.249 13.9473C21.4492 14.1575 21.718 14.4389 21.9121 14.7197C22.0109 14.8626 22.1269 15.0561 22.1973 15.2842C22.2701 15.5204 22.3119 15.8567 22.165 16.2109C21.8992 16.8519 21.2741 17.0301 21.0049 17.0898C20.6817 17.1616 20.3145 17.1771 20.0537 17.1885C19.9428 17.1933 19.845 17.1984 19.7578 17.2031C19.786 17.2795 19.8179 17.365 19.8545 17.4609C19.9457 17.7003 20.0772 18.0415 20.1387 18.3643C20.19 18.6342 20.2734 19.2832 19.7783 19.7783C19.3702 20.1865 18.8539 20.2242 18.5547 20.2139C18.2472 20.2032 17.9289 20.1311 17.7168 20.083C17.5718 20.0501 17.4594 20.0249 17.3662 20.0068C17.3451 20.1044 17.3231 20.2238 17.2949 20.3779C17.2549 20.5963 17.1963 20.9185 17.085 21.207C16.9772 21.4862 16.7411 21.9451 16.2109 22.165C15.5734 22.4294 15.0263 22.125 14.7832 21.957C14.5213 21.776 14.2797 21.5234 14.123 21.3623C14.0717 21.3096 14.0248 21.2636 13.9834 21.2217C13.9232 21.3181 13.8563 21.4301 13.7773 21.5615C13.6391 21.7917 13.4515 22.1028 13.2363 22.3545C13.0539 22.5678 12.638 23 12 23C11.3265 23 10.9237 22.5277 10.7529 22.293C10.5597 22.0273 10.4054 21.7026 10.2979 21.4766C10.2507 21.3775 10.2088 21.2915 10.1719 21.2158C10.1039 21.2737 10.0282 21.3411 9.94043 21.418C9.75154 21.5834 9.48182 21.82 9.20508 21.9883C8.97 22.1312 8.41319 22.4239 7.78906 22.165C7.16201 21.9049 6.97631 21.3059 6.91211 21.0283C6.8386 20.7104 6.82282 20.3519 6.81152 20.1035C6.80662 19.9956 6.8006 19.9015 6.7959 19.8184C6.70995 19.8459 6.61284 19.8785 6.50098 19.916C6.26074 19.9965 5.91988 20.1118 5.59766 20.1602C5.32271 20.2013 4.69781 20.2544 4.22168 19.7783C3.73393 19.2906 3.80508 18.6509 3.85254 18.3789C3.90887 18.0562 4.03409 17.7153 4.12109 17.4756C4.15811 17.3736 4.18875 17.2832 4.2168 17.2031C4.13162 17.1985 4.03581 17.1933 3.92676 17.1885C3.67089 17.1772 3.30736 17.1612 2.98633 17.0889C2.71382 17.0274 2.09861 16.8466 1.83496 16.2109C1.55655 15.5395 1.92383 14.9587 2.0752 14.7432C2.26516 14.4727 2.528 14.21 2.71289 14.0244C2.77923 13.9578 2.83787 13.8967 2.8916 13.8418C2.81395 13.8063 2.72743 13.7669 2.63086 13.7236C2.38333 13.6128 2.03999 13.4588 1.76074 13.2695C1.54754 13.125 1.0654 12.7599 1.00586 12.1299L1 12L1.00488 11.8809C1.05458 11.2997 1.45864 10.9272 1.66504 10.7598C1.92124 10.552 2.23696 10.3757 2.46582 10.248C2.58725 10.1803 2.69137 10.1222 2.78125 10.0703C2.73314 10.0197 2.67932 9.96247 2.61719 9.89844C2.45445 9.73073 2.2075 9.47892 2.03125 9.21191C1.87283 8.97189 1.57255 8.4219 1.83496 7.78906L1.88965 7.67188C2.18546 7.11416 2.77257 6.96052 3.01758 6.9082C3.34617 6.83806 3.72213 6.82293 3.99512 6.81152C4.1079 6.80681 4.20844 6.80153 4.29883 6.79688C4.27102 6.73035 4.24143 6.65679 4.20703 6.57617C4.10525 6.33766 3.95824 5.99665 3.88379 5.67383C3.82313 5.41078 3.70684 4.73651 4.22168 4.22168C4.64467 3.79871 5.19867 3.77736 5.48047 3.78613C5.79788 3.79605 6.13585 3.86327 6.37988 3.91211C6.54606 3.94537 6.68151 3.97067 6.79688 3.99023C6.80121 3.9224 6.80763 3.84323 6.8125 3.75C6.8236 3.53753 6.83979 3.20243 6.91992 2.89844C6.99965 2.59605 7.20802 2.07597 7.78906 1.83496L7.89746 1.79492C8.43241 1.62298 8.91141 1.82835 9.14746 1.95117C9.42783 2.09707 9.70004 2.30755 9.88965 2.45312C10.0005 2.53825 10.093 2.60857 10.1729 2.66699C10.2131 2.59266 10.2598 2.50585 10.3145 2.40137C10.4218 2.19623 10.5809 1.89139 10.7812 1.6416C10.9709 1.4052 11.3702 1 12 1ZM11.9775 3.5332C11.8889 3.70011 11.7828 3.89422 11.6641 4.0625C11.5111 4.2794 11.1812 4.69422 10.623 4.80469C10.082 4.9117 9.61952 4.67802 9.38477 4.54199C9.17338 4.41949 8.96303 4.26011 8.79297 4.12988C8.78163 4.29868 8.76419 4.49171 8.72754 4.67188C8.67224 4.9437 8.52979 5.44285 8.05664 5.75977C7.61847 6.05311 7.11507 6.03646 6.85059 6.01465C6.59036 5.99315 6.31045 5.9372 6.08887 5.89258C6.18421 6.11579 6.30445 6.40079 6.37793 6.66992C6.44623 6.92011 6.58678 7.52148 6.22852 8.05664C6.0428 8.33397 5.78981 8.48775 5.59375 8.57422C5.39725 8.66087 5.19709 8.70686 5.03223 8.73438C4.8044 8.77239 4.55201 8.78642 4.33008 8.79688C4.43547 8.91208 4.54474 9.03871 4.6377 9.16797C4.79791 9.39078 5.09911 9.86872 4.98145 10.4639C4.86928 11.0309 4.42828 11.3735 4.2207 11.5234C4.00396 11.6799 3.74371 11.8236 3.53711 11.9385C3.76548 12.0404 4.05612 12.1705 4.29883 12.3174C4.44081 12.4033 4.61035 12.5204 4.76074 12.6748C4.91116 12.8293 5.08873 13.0693 5.1543 13.4004C5.27799 14.0257 4.92778 14.528 4.76953 14.7373C4.64523 14.9017 4.49318 15.063 4.35352 15.207C4.53943 15.218 4.74254 15.2347 4.92969 15.2676C5.16954 15.3097 5.68652 15.4206 6.03027 15.8525L6.09668 15.9434L6.15527 16.0391C6.42389 16.5209 6.33116 17.0404 6.27832 17.2812C6.22842 17.5086 6.14604 17.7476 6.07324 17.9512C6.27637 17.8842 6.51511 17.8099 6.74121 17.7656C6.98417 17.7181 7.49251 17.6407 7.96289 17.9043L8.05664 17.9609V17.9619C8.55859 18.2982 8.68492 18.8568 8.73145 19.1152C8.76968 19.3276 8.78524 19.5603 8.7959 19.7627C8.95559 19.6246 9.14381 19.4675 9.33301 19.3418C9.54231 19.2028 9.98059 18.9394 10.5146 19.002L10.623 19.0186L10.7314 19.0449C11.2568 19.1941 11.5564 19.62 11.6875 19.8232C11.8347 20.0515 11.9637 20.3236 12.0625 20.5322H12.0635C12.1948 20.3135 12.3731 20.0073 12.5625 19.7588C12.7174 19.5557 13.0649 19.1282 13.6191 19.0186L13.7305 19.002C14.2796 18.9382 14.7099 19.2179 14.9189 19.375C15.0823 19.4978 15.2385 19.6484 15.3711 19.7812C15.4042 19.6081 15.4467 19.408 15.5049 19.2246C15.5862 18.9683 15.7604 18.5262 16.1875 18.2402L16.3496 18.1455C16.7319 17.9548 17.1256 17.9646 17.3633 17.9863C17.5658 18.0049 17.7769 18.0478 17.9541 18.0869C17.868 17.8617 17.7578 17.5695 17.6934 17.2949C17.6335 17.0397 17.5215 16.4583 17.8662 15.9434L17.9326 15.8525C18.279 15.4178 18.8025 15.3079 19.041 15.2666C19.2507 15.2303 19.4809 15.2148 19.6855 15.2041C19.507 15.0162 19.297 14.792 19.1328 14.5703C19.0299 14.4314 18.9151 14.2544 18.832 14.0518C18.7499 13.8514 18.6698 13.5534 18.7373 13.2119L18.7695 13.084C18.8575 12.7958 19.0302 12.5885 19.1787 12.4531C19.3459 12.3008 19.5318 12.1941 19.6826 12.1191C19.928 11.9972 20.2177 11.8953 20.4521 11.8154C20.236 11.6706 19.9554 11.4857 19.7266 11.2959C19.5302 11.133 19.1243 10.7766 19.0186 10.2422C18.8973 9.62832 19.2167 9.15825 19.3984 8.93457C19.4392 8.88441 19.4836 8.83586 19.5283 8.78809C19.3674 8.77706 19.1984 8.76065 19.041 8.7334C18.7867 8.68935 18.2083 8.56736 17.8662 8.05664C17.5214 7.5417 17.6335 6.96028 17.6934 6.70508C17.7506 6.4609 17.8443 6.2028 17.9248 5.99023C17.7139 6.05044 17.46 6.1209 17.2207 6.1582C16.9587 6.19904 16.4179 6.25809 15.9434 5.94043C15.451 5.6107 15.3189 5.07273 15.2695 4.80957C15.2255 4.57492 15.2096 4.31616 15.1992 4.10645C15.0145 4.2426 14.7779 4.41715 14.543 4.54883C14.3083 4.68035 13.8424 4.91087 13.3057 4.80469C12.7358 4.69185 12.4106 4.26396 12.2617 4.04102C12.1536 3.8791 12.0575 3.69479 11.9775 3.5332ZM14.5 9.5C16.1568 9.5 17.5 10.8432 17.5 12.5C17.5 14.1569 16.1568 15.5 14.5 15.5C12.8432 15.5 11.5 14.1569 11.5 12.5C11.5 10.8432 12.8432 9.5 14.5 9.5ZM14.5 11.5C13.9477 11.5 13.5 11.9477 13.5 12.5C13.5 13.0523 13.9477 13.5 14.5 13.5C15.0523 13.5 15.5 13.0523 15.5 12.5C15.5 11.9477 15.0523 11.5 14.5 11.5ZM8.25 10.5C8.94035 10.5 9.5 11.0597 9.5 11.75C9.5 12.4404 8.94035 13 8.25 13C7.55965 13 7 12.4404 7 11.75C7 11.0597 7.55965 10.5 8.25 10.5Z" fill="#9E9E9E"/>
</g>
</svg>
