<svg width="24" height="24" viewBox="0 0 24 24" fill="none" xmlns="http://www.w3.org/2000/svg">
<g id="icons/Health/heart-rate">
<path id="Union" d="M16.5 2.5C20.0898 2.5 23 5.41017 23 9C23 9.99938 22.8124 10.971 22.4912 11.8965C22.3101 12.4181 21.7404 12.6946 21.2188 12.5137C20.697 12.3326 20.4205 11.762 20.6016 11.2402C20.8597 10.4964 21 9.747 21 9C21 6.51473 18.9853 4.5 16.5 4.5C14.9789 4.5 13.6335 5.25421 12.8174 6.41309C12.6301 6.67884 12.3252 6.83691 12 6.83691C11.6748 6.83691 11.3699 6.67884 11.1826 6.41309C10.3665 5.25421 9.02112 4.5 7.5 4.5C5.01472 4.5 3 6.51473 3 9C3 11.3659 4.4144 13.7503 6.39844 15.7539C8.24402 17.6177 10.435 19.0002 11.998 19.5996C12.9421 19.2379 14.1321 18.5855 15.3477 17.6934C15.7928 17.3669 16.4184 17.4632 16.7451 17.9082C17.0719 18.3534 16.9765 18.9799 16.5312 19.3066C15.0603 20.3862 13.5528 21.2011 12.3154 21.6123C12.1107 21.6803 11.8893 21.6803 11.6846 21.6123C9.75781 20.972 7.12725 19.3331 4.97656 17.1611C2.83576 14.9991 1 12.1339 1 9C1 5.41017 3.91015 2.5 7.5 2.5C9.24772 2.5 10.8327 3.19184 12 4.3125C13.1673 3.19184 14.7523 2.5 16.5 2.5ZM17.1416 11.5098C17.5031 11.5616 17.8082 11.8066 17.9365 12.1484L18.791 14.4268L19.1777 13.9053L19.2529 13.8145C19.4407 13.615 19.7041 13.5 19.9814 13.5H22C22.5523 13.5 23 13.9477 23 14.5C23 15.0523 22.5523 15.5 22 15.5H20.4854L19.3037 17.0947C19.0857 17.3891 18.7241 17.541 18.3613 17.4902C17.9986 17.4394 17.6922 17.1944 17.5635 16.8516L16.7041 14.5596L16.2998 15.0996C16.111 15.3514 15.8148 15.5 15.5 15.5H13.5C12.9477 15.5 12.5 15.0523 12.5 14.5C12.5 13.9477 12.9477 13.5 13.5 13.5H15.001L16.2002 11.9004L16.2881 11.7969C16.5089 11.5732 16.8253 11.4645 17.1416 11.5098Z" fill="#9E9E9E"/>
</g>
</svg>
