<svg width="24" height="24" viewBox="0 0 24 24" fill="none" xmlns="http://www.w3.org/2000/svg">
<g id="icons/Health/heart">
<path id="Union" d="M8.0249 1.24512C8.15551 0.708774 8.69656 0.379598 9.23291 0.509766C9.76943 0.64042 10.0988 1.18125 9.96826 1.71777L9.60693 3.2002C9.89755 3.50455 10.1956 3.84262 10.5034 4.21094V2C10.5035 1.44796 10.9514 1.00025 11.5034 1C12.0556 1 12.5033 1.4478 12.5034 2V4.00195C13.5877 4.00254 14.5626 4.39286 15.4165 5.0918C16.4859 4.61611 17.5941 4.24747 18.5356 4.15234L18.5562 4.15039L18.5776 4.14941C18.9812 4.12586 19.5522 4.1692 20.1021 4.42676C20.6858 4.70025 21.2245 5.21013 21.4604 6.03027C21.6687 6.75472 21.6312 7.56881 21.1548 8.25781C20.6893 8.93061 19.924 9.31147 19.0249 9.44824C19.0181 9.4495 19.0112 9.45006 19.0044 9.45117C18.9973 9.45222 18.99 9.45504 18.9829 9.45605C18.7389 9.49102 18.5061 9.54368 18.2837 9.61035C18.797 10.8788 18.9108 12.0842 18.7173 13.2549C18.4922 14.6165 17.8627 15.8606 17.1187 17.0352C16.7944 17.5471 16.5001 18.1498 16.1558 18.8389C15.823 19.5047 15.4491 20.2398 14.9946 20.9102C14.0644 22.2821 12.7098 23.5009 10.5005 23.501C8.33685 23.5008 6.7608 22.3375 5.65674 20.9141C4.56627 19.508 3.86482 17.7671 3.40576 16.3662C2.91616 14.8718 2.75707 13.2796 2.87549 11.9209C2.93481 11.2408 3.06626 10.5917 3.27783 10.0293C3.45879 9.54835 3.72008 9.07222 4.09717 8.70898C3.51186 7.82054 3.03725 7.10304 2.67041 6.55859C2.30275 6.01255 2.26261 5.40189 2.43213 4.87305C2.59238 4.37318 2.92741 3.96732 3.29834 3.6875C3.93419 3.20802 5.12989 2.83835 6.05225 3.62988L6.23291 3.80469L6.72412 4.35254C7.05302 4.72926 7.42191 5.17028 7.83057 5.67285C8.06593 5.43926 8.32217 5.23591 8.59229 5.05762C8.34153 4.77368 8.10728 4.51931 7.8833 4.29883C7.83228 4.25854 7.78552 4.2139 7.74365 4.16504C7.64344 4.06983 7.54625 3.98072 7.45166 3.89844C6.89107 3.41081 6.5015 3.21243 6.27002 3.15723C5.73341 3.02879 5.40199 2.48897 5.52979 1.95215C5.65806 1.41531 6.19791 1.08408 6.73486 1.21191C7.12958 1.30611 7.52011 1.49104 7.90479 1.7373L8.0249 1.24512ZM12.5005 6.00195C10.9782 6.00211 9.60764 6.48266 8.92334 7.46777C8.75117 7.71596 8.56507 8.23456 8.47217 9.16504C8.38185 10.07 8.38877 11.2564 8.50732 12.7402C8.55116 13.2907 8.14078 13.7734 7.59033 13.8174C7.04016 13.861 6.55826 13.4496 6.51416 12.8994C6.44574 12.043 6.41233 11.2571 6.4126 10.5449C6.09122 10.1724 5.87228 10.0557 5.77197 10.0273C5.73141 10.016 5.70976 10.0182 5.69189 10.0225C5.66838 10.0282 5.60985 10.048 5.51709 10.1221H5.51611C5.43093 10.1903 5.28712 10.3687 5.1499 10.7334C5.0172 11.0862 4.91626 11.5483 4.86865 12.0938C4.77332 13.187 4.90162 14.5084 5.30615 15.7432C5.74135 17.0713 6.35701 18.554 7.23682 19.6885C8.10338 20.8057 9.15384 21.5008 10.5005 21.501C11.8016 21.5009 12.6177 20.8501 13.3384 19.7871C13.7094 19.2399 14.0312 18.6156 14.3667 17.9443C14.6905 17.2964 15.0375 16.5833 15.4292 15.9648C16.1172 14.8787 16.5828 13.9018 16.7437 12.9287C16.8666 12.1849 16.8178 11.4012 16.4927 10.5244C16.3516 10.6248 16.215 10.7258 16.0854 10.8271C15.7961 11.0537 15.3049 11.5949 14.8315 12.2402C14.3484 12.899 14.0141 13.4892 13.9263 13.7852V13.7861C13.7493 14.3822 13.3055 14.7582 12.7729 14.8818C12.3278 14.9849 11.8889 14.8988 11.5776 14.8057C10.9455 14.6164 10.3095 14.2317 9.98877 13.9502C9.64493 13.6483 9.27236 13.1458 9.17627 12.4893C9.07214 11.7762 9.31824 11.0473 9.93604 10.4209C10.1305 10.2238 10.2317 10.0991 10.2856 10.0195C10.3101 9.98346 10.3213 9.9617 10.3257 9.95215C10.3286 9.94583 10.3301 9.94243 10.3306 9.94141C10.3319 9.93558 10.3377 9.90428 10.3345 9.77832C10.3319 9.67941 10.3189 9.43352 10.3188 9.20312C10.3188 8.71996 10.6004 8.34003 10.7485 8.15723C10.9383 7.92313 11.1855 7.68911 11.4507 7.46777C11.9549 7.04699 12.6211 6.5925 13.3491 6.16211C13.0671 6.05327 12.7852 6.00195 12.5005 6.00195ZM16.729 6.70605C15.9953 7.00128 15.2173 7.38777 14.4907 7.80957C13.7734 8.22604 13.1558 8.64915 12.7319 9.00293C12.5359 9.16662 12.4034 9.29936 12.3237 9.39258C12.3271 9.49822 12.33 9.59107 12.3335 9.72656C12.3381 9.90307 12.3384 10.1367 12.2788 10.3936C12.1522 10.9391 11.8129 11.366 11.3599 11.8252C11.2321 11.9548 11.185 12.0491 11.1675 12.0977C11.1513 12.1431 11.1511 12.175 11.1548 12.2002C11.1651 12.2695 11.2209 12.3706 11.3081 12.4473C11.3465 12.4809 11.4638 12.5677 11.6401 12.666C11.804 12.7573 11.978 12.8349 12.1304 12.8828C12.3735 12.2965 12.8025 11.6235 13.2183 11.0566C13.7258 10.3647 14.3462 9.64854 14.853 9.25195C15.4209 8.80771 16.1847 8.26742 17.1528 7.88672C17.0324 7.67096 16.9313 7.45258 16.8569 7.22949L16.7808 6.96484C16.7598 6.87901 16.743 6.79251 16.729 6.70605ZM4.76611 5.1709C4.71419 5.1736 4.61123 5.20215 4.50244 5.28418C4.40881 5.35485 4.36351 5.42739 4.34521 5.4668C4.77416 6.10376 5.34421 6.96393 6.05518 8.04492C6.14041 8.05846 6.2264 8.07724 6.31299 8.10156C6.40642 8.12783 6.49814 8.16015 6.5874 8.19727C6.62998 7.9601 6.68137 7.73179 6.74365 7.51465C5.92404 6.4867 5.26862 5.70717 4.771 5.16992C4.76962 5.17008 4.76771 5.17082 4.76611 5.1709ZM18.688 6.14746C18.6868 6.2716 18.6982 6.38701 18.7251 6.49512L18.7544 6.59668L18.7974 6.70996C18.8733 6.88956 19.0024 7.10002 19.1948 7.3457C19.3845 7.26497 19.4724 7.17465 19.5103 7.12012C19.5678 7.03676 19.6229 6.8763 19.5386 6.58301C19.4817 6.38522 19.3818 6.29843 19.2534 6.23828C19.0972 6.16518 18.8921 6.13695 18.7144 6.14453C18.7056 6.14547 18.6968 6.14645 18.688 6.14746Z" fill="#9E9E9E"/>
</g>
</svg>
