<svg width="24" height="24" viewBox="0 0 24 24" fill="none" xmlns="http://www.w3.org/2000/svg">
<g id="icons/Health/hospital-bed">
<path id="Union" d="M3 7.5C3.55228 7.5 4 7.94772 4 8.5V13H20V12.5C20 11.9477 20.4477 11.5 21 11.5C21.5523 11.5 22 11.9477 22 12.5V19.5C22 20.0523 21.5523 20.5 21 20.5C20.4477 20.5 20 20.0523 20 19.5V18H4V19.5C4 20.0523 3.55228 20.5 3 20.5C2.44772 20.5 2 20.0523 2 19.5V8.5C2 7.94772 2.44772 7.5 3 7.5ZM4 16H20V15H4V16ZM8.5 10C9.05228 10 9.5 10.4477 9.5 11C9.5 11.5523 9.05228 12 8.5 12H5.5C4.94772 12 4.5 11.5523 4.5 11C4.5 10.4477 4.94772 10 5.5 10H8.5ZM16 3.5C16.5523 3.5 17 3.94772 17 4.5V6.5H19C19.5523 6.5 20 6.94772 20 7.5C20 8.05228 19.5523 8.5 19 8.5H17V10.5C17 11.0523 16.5523 11.5 16 11.5C15.4477 11.5 15 11.0523 15 10.5V8.5H13C12.4477 8.5 12 8.05228 12 7.5C12 6.94772 12.4477 6.5 13 6.5H15V4.5C15 3.94772 15.4477 3.5 16 3.5Z" fill="#9E9E9E"/>
</g>
</svg>
