<svg width="24" height="24" viewBox="0 0 24 24" fill="none" xmlns="http://www.w3.org/2000/svg">
<g id="icons/Health/hospital">
<path id="Union" d="M16.5 1.5C17.0523 1.5 17.5 1.94772 17.5 2.5V9.5H21.5C22.0523 9.5 22.5 9.94771 22.5 10.5V21.5C22.5 22.0523 22.0523 22.5 21.5 22.5H2.5C1.94772 22.5 1.5 22.0523 1.5 21.5V2.5C1.5 1.94772 1.94772 1.5 2.5 1.5H16.5ZM3.5 20.5H15.5V3.5H3.5V20.5ZM17.5 20.5H20.5V11.5H17.5V20.5ZM9.5 6.5C10.0523 6.5 10.5 6.94772 10.5 7.5V9.5H12.5C13.0523 9.5 13.5 9.94771 13.5 10.5C13.5 11.0523 13.0523 11.5 12.5 11.5H10.5V13.5C10.5 14.0523 10.0523 14.5 9.5 14.5C8.94772 14.5 8.5 14.0523 8.5 13.5V11.5H6.5C5.94772 11.5 5.5 11.0523 5.5 10.5C5.5 9.94771 5.94772 9.5 6.5 9.5H8.5V7.5C8.5 6.94772 8.94772 6.5 9.5 6.5Z" fill="#9E9E9E"/>
</g>
</svg>
