<svg width="24" height="24" viewBox="0 0 24 24" fill="none" xmlns="http://www.w3.org/2000/svg">
<g id="icons/Health/hospital-three">
<path id="Union" d="M11.3693 5.72461C11.762 5.4043 12.3411 5.42687 12.7072 5.79297L19.2072 12.293C19.3947 12.4805 19.5001 12.7348 19.5001 13V22C19.5001 22.5523 19.0524 23 18.5001 23H5.50012C4.94784 23 4.50012 22.5523 4.50012 22V13L4.505 12.9014C4.5277 12.6724 4.62895 12.4571 4.79309 12.293L11.2931 5.79297L11.3693 5.72461ZM6.50012 13.4141V21H17.5001V13.4141L12.0001 7.91406L6.50012 13.4141ZM12.0001 12C12.5524 12 13.0001 12.4477 13.0001 13V14.5H14.5001C15.0524 14.5 15.5001 14.9477 15.5001 15.5C15.5001 16.0523 15.0524 16.5 14.5001 16.5H13.0001V18C13.0001 18.5523 12.5524 19 12.0001 19C11.4478 19 11.0001 18.5523 11.0001 18V16.5H9.50012C8.94784 16.5 8.50012 16.0523 8.50012 15.5C8.50012 14.9477 8.94784 14.5 9.50012 14.5H11.0001V13C11.0001 12.4477 11.4478 12 12.0001 12ZM12.0001 1C12.2653 1.00002 12.5196 1.10545 12.7072 1.29297L22.2072 10.793C22.5977 11.1835 22.5977 11.8165 22.2072 12.207C21.8167 12.5976 21.1836 12.5975 20.7931 12.207L12.0001 3.41406L3.20715 12.207C2.81664 12.5976 2.18361 12.5975 1.79309 12.207C1.40257 11.8165 1.40257 11.1835 1.79309 10.793L11.2931 1.29297L11.3663 1.22656C11.5443 1.08075 11.7681 1 12.0001 1Z" fill="#9E9E9E"/>
</g>
</svg>
