<svg width="24" height="24" viewBox="0 0 24 24" fill="none" xmlns="http://www.w3.org/2000/svg">
<g id="icons/Health/hospital-four">
<path id="Union" d="M13 2C14.1046 2 15 2.89544 15 4V11H21C22.1046 11 23 11.8954 23 13V20C23 21.1046 22.1046 22 21 22H3C1.89544 22 1 21.1046 1 20V4C1 2.89543 1.89543 2 3 2H13ZM3 20H4.5V16.5C4.5 15.1193 5.61927 14 7 14H9C10.3807 14 11.5 15.1193 11.5 16.5V20H13V4H3V20ZM7 16C6.72383 16 6.5 16.2238 6.5 16.5V20H9.5V16.5C9.5 16.2238 9.27617 16 9 16H7ZM15 20H21V13H15V20ZM19 17C19.5523 17 20 17.4477 20 18C20 18.5523 19.5523 19 19 19H17C16.4477 19 16 18.5523 16 18C16 17.4477 16.4477 17 17 17H19ZM19 14C19.5523 14 20 14.4477 20 15C20 15.5523 19.5523 16 19 16H17C16.4477 16 16 15.5523 16 15C16 14.4477 16.4477 14 17 14H19ZM8 6C8.55228 6 9 6.44772 9 7V8H10C10.5523 8 11 8.44772 11 9C11 9.55228 10.5523 10 10 10H9V11C9 11.5523 8.55228 12 8 12C7.44772 12 7 11.5523 7 11V10H6C5.44772 10 5 9.55228 5 9C5 8.44772 5.44772 8 6 8H7V7C7 6.44772 7.44772 6 8 6Z" fill="#9E9E9E"/>
</g>
</svg>
