<svg width="24" height="24" viewBox="0 0 24 24" fill="none" xmlns="http://www.w3.org/2000/svg">
<g id="icons/Health/infusion">
<path id="Union" d="M12 1C12.3111 1 12.6047 1.14467 12.7939 1.3916V1.39258L12.7959 1.39355C12.7969 1.39485 12.798 1.39706 12.7998 1.39941C12.8035 1.40425 12.8085 1.41176 12.8154 1.4209C12.8294 1.43919 12.8496 1.46611 12.876 1.50098C12.9287 1.57069 13.0063 1.672 13.1035 1.80273C13.2981 2.06428 13.5751 2.44134 13.9072 2.90527C14.5707 3.83215 15.4566 5.11148 16.3447 6.51562C17.2307 7.91635 18.1303 9.45994 18.8115 10.9131C19.4751 12.3286 20 13.7969 20 15C20 19.4183 16.4183 23 12 23C7.58172 23 4 19.4183 4 15C4 13.7969 4.52492 12.3286 5.18848 10.9131C5.86967 9.45994 6.7693 7.91635 7.65527 6.51562C8.54342 5.11148 9.42925 3.83215 10.0928 2.90527C10.4249 2.44134 10.7019 2.06428 10.8965 1.80273C10.9937 1.672 11.0713 1.57069 11.124 1.50098C11.1504 1.46611 11.1706 1.43919 11.1846 1.4209C11.1915 1.41176 11.1965 1.40425 11.2002 1.39941C11.202 1.39706 11.2031 1.39485 11.2041 1.39355L11.2061 1.39258V1.3916L11.2822 1.30371C11.4694 1.11075 11.7279 1 12 1ZM11.7197 4.06934C11.0708 4.97585 10.2065 6.22246 9.34473 7.58496C8.48082 8.95081 7.63026 10.4161 6.99902 11.7627C6.35022 13.1469 6 14.2702 6 15C6 18.3137 8.68629 21 12 21C15.3137 21 18 18.3137 18 15C18 14.2702 17.6498 13.1469 17.001 11.7627C16.3697 10.4161 15.5192 8.95081 14.6553 7.58496C13.7935 6.22246 12.9292 4.97585 12.2803 4.06934C12.1823 3.93249 12.0873 3.80496 12 3.68457C11.9127 3.80496 11.8177 3.93249 11.7197 4.06934ZM12 11C12.5523 11 13 11.4477 13 12V14H15C15.5523 14 16 14.4477 16 15C16 15.5523 15.5523 16 15 16H13V18C13 18.5523 12.5523 19 12 19C11.4477 19 11 18.5523 11 18V16H9C8.44772 16 8 15.5523 8 15C8 14.4477 8.44772 14 9 14H11V12C11 11.4477 11.4477 11 12 11Z" fill="#9E9E9E"/>
</g>
</svg>
