<svg width="24" height="24" viewBox="0 0 24 24" fill="none" xmlns="http://www.w3.org/2000/svg">
<g id="icons/Health/injection">
<path id="Union" d="M10.2461 2.29199C10.6366 1.90147 11.2696 1.90147 11.6602 2.29199L15.9023 6.53418L16.9629 5.47461C17.3534 5.0842 17.9865 5.08412 18.377 5.47461C18.7673 5.86511 18.7673 6.49819 18.377 6.88867L17.3164 7.94824L21.5596 12.1914C21.9501 12.5819 21.9501 13.215 21.5596 13.6055C21.1691 13.9959 20.536 13.9959 20.1455 13.6055L19.084 12.5439L10.2451 21.3838C9.85468 21.7742 9.2216 21.7741 8.83105 21.3838L6.35645 18.9092L3.88184 21.3838C3.49133 21.7742 2.85828 21.7742 2.46777 21.3838C2.07727 20.9933 2.07731 20.3603 2.46777 19.9697L4.94238 17.4951L2.4668 15.0195C2.27941 14.832 2.17383 14.5776 2.17383 14.3125C2.17395 14.0475 2.27937 13.7929 2.4668 13.6055L11.3057 4.76562L10.2461 3.70605C9.85558 3.31554 9.85561 2.68252 10.2461 2.29199ZM12.3662 6.5332L10.4619 16.0518C10.6117 16.414 10.5395 16.8461 10.2451 17.1406H10.2441L9.89062 18.9092L17.6699 11.1299L15.2041 8.66406C15.2013 8.66133 15.1981 8.65902 15.1953 8.65625C15.1922 8.65316 15.1896 8.6496 15.1865 8.64648L12.7197 6.17969L12.3662 6.5332Z" fill="#9E9E9E"/>
</g>
</svg>
