<svg width="24" height="24" viewBox="0 0 24 24" fill="none" xmlns="http://www.w3.org/2000/svg">
<g id="icons/Health/love-and-help">
<path id="Union" d="M16.5 2.5C20.0898 2.5 23 5.41017 23 9C23 12.1339 21.1642 14.9991 19.0234 17.1611C16.8727 19.3331 14.2422 20.972 12.3154 21.6123C12.1107 21.6803 11.8893 21.6803 11.6846 21.6123C9.75781 20.972 7.12725 19.3331 4.97656 17.1611C2.83576 14.9991 1 12.1339 1 9C1 5.41017 3.91015 2.5 7.5 2.5C9.24772 2.5 10.8327 3.19184 12 4.3125C13.1673 3.19184 14.7523 2.5 16.5 2.5ZM16.5 4.5C14.9789 4.5 13.6335 5.25421 12.8174 6.41309C12.6301 6.67884 12.3252 6.83691 12 6.83691C11.6748 6.83691 11.3699 6.67884 11.1826 6.41309C10.3665 5.25421 9.02112 4.5 7.5 4.5C5.01472 4.5 3 6.51473 3 9C3 11.3659 4.4144 13.7503 6.39844 15.7539C8.24482 17.6185 10.4368 19.0016 12 19.6006C13.5632 19.0016 15.7552 17.6185 17.6016 15.7539C19.5856 13.7503 21 11.3659 21 9C21 6.51473 18.9853 4.5 16.5 4.5ZM12 8C12.5523 8 13 8.44772 13 9V11H15C15.5523 11 16 11.4477 16 12C16 12.5523 15.5523 13 15 13H13V15C13 15.5523 12.5523 16 12 16C11.4477 16 11 15.5523 11 15V13H9C8.44772 13 8 12.5523 8 12C8 11.4477 8.44772 11 9 11H11V9C11 8.44772 11.4477 8 12 8Z" fill="#9E9E9E"/>
</g>
</svg>
