<svg width="24" height="24" viewBox="0 0 24 24" fill="none" xmlns="http://www.w3.org/2000/svg">
<g id="icons/Health/lung">
<path id="Union" d="M13.6467 1.5C14.1989 1.50016 14.6467 1.94781 14.6467 2.5V7.53125C15.0416 6.8689 15.6403 6.35908 16.4915 6.28613C17.1909 6.22628 17.8748 6.47052 18.4651 6.8291C19.0655 7.194 19.6455 7.72165 20.1682 8.35547C21.2143 9.62395 22.1093 11.4094 22.5178 13.4746C22.9076 15.4449 23.0175 17.1859 22.8821 18.4971C22.815 19.1464 22.682 19.7499 22.4524 20.2344C22.2329 20.6973 21.8228 21.2494 21.1145 21.3818C20.6627 21.4662 20.2245 21.3977 19.8713 21.3047C19.5119 21.21 19.1616 21.0678 18.8674 20.9404C18.5413 20.7992 18.3224 20.6944 18.092 20.6025C17.8487 20.5056 17.7892 20.5088 17.8284 20.5088C17.7278 20.5089 17.5313 20.5309 17.1741 20.5693C16.8574 20.6034 16.4588 20.6433 16.0725 20.6504C15.7099 20.657 15.2399 20.6388 14.8284 20.4902C14.6132 20.4124 14.3497 20.2768 14.136 20.0303C13.9052 19.7639 13.7894 19.4334 13.7893 19.0869V15.6895C13.1336 15.5029 12.5345 15.239 12.0012 14.8867C11.4509 15.2518 10.8294 15.5216 10.1477 15.709V19.0869C10.1476 19.4334 10.0318 19.7639 9.80103 20.0303C9.58726 20.2769 9.32389 20.4124 9.10864 20.4902C8.6972 20.6389 8.22807 20.657 7.86548 20.6504C7.47913 20.6434 7.08073 20.6034 6.76392 20.5693C6.40595 20.5309 6.20919 20.5088 6.10864 20.5088C6.14812 20.5088 6.08928 20.5056 5.84595 20.6025C5.61541 20.6944 5.39586 20.7991 5.06958 20.9404C4.77545 21.0678 4.42602 21.21 4.06665 21.3047C3.71335 21.3978 3.27464 21.4662 2.82251 21.3818C2.11424 21.2495 1.70511 20.6972 1.4856 20.2344C1.25593 19.7499 1.12302 19.1464 1.05591 18.4971C0.920459 17.1859 1.03039 15.445 1.42017 13.4746C1.82873 11.4093 2.72362 9.62395 3.76978 8.35547C4.2925 7.72171 4.87149 7.19395 5.47192 6.8291C6.06231 6.47042 6.74691 6.22615 7.44653 6.28613C8.28773 6.35851 8.88269 6.85788 9.27759 7.50977V2.5C9.27759 1.94773 9.72532 1.50002 10.2776 1.5C10.8297 1.50016 11.2776 1.94781 11.2776 2.5V9.97461C11.2603 10.8801 10.8414 11.633 10.0579 12.1025C9.35101 12.5259 8.42403 12.6738 7.40942 12.6738C6.85714 12.6738 6.40942 12.2261 6.40942 11.6738C6.40946 11.1216 6.85716 10.6738 7.40942 10.6738C7.66409 10.6738 7.88655 10.6609 8.08032 10.6406C7.99459 9.74712 7.84506 9.12483 7.66333 8.72754C7.45909 8.28133 7.30471 8.28153 7.27563 8.2793C7.14524 8.26812 6.8881 8.30997 6.51099 8.53906C6.14388 8.76213 5.72795 9.12455 5.31274 9.62793C4.48275 10.6343 3.72804 12.1136 3.38208 13.8623C3.01744 15.7056 2.9362 17.2377 3.04517 18.292C3.10025 18.8249 3.19804 19.178 3.29224 19.377C3.2992 19.3916 3.30767 19.4044 3.31372 19.416C3.37292 19.4105 3.45303 19.3984 3.55688 19.3711C3.76508 19.3162 4.00208 19.2235 4.27466 19.1055C4.51534 19.0012 4.84515 18.8489 5.10571 18.7451C5.35262 18.6467 5.72844 18.5088 6.10864 18.5088C6.34848 18.5088 6.70249 18.5515 6.97778 18.5811C7.29439 18.6151 7.61351 18.6461 7.90161 18.6514C7.9971 18.6531 8.07903 18.6499 8.14771 18.6465V16.0186C7.93567 16.0296 7.7198 16.0352 7.50024 16.0352C6.94802 16.0352 6.50034 15.5874 6.50024 15.0352C6.50024 14.4829 6.94796 14.0352 7.50024 14.0352C9.33296 14.0351 10.5512 13.5992 11.3235 12.8896C11.705 12.5393 12.2913 12.5378 12.6741 12.8867C13.4547 13.5988 14.6802 14.0352 16.5149 14.0352C17.0669 14.0355 17.5149 14.4831 17.5149 15.0352C17.5148 15.5871 17.0668 16.0348 16.5149 16.0352C16.2684 16.0352 16.0263 16.0275 15.7893 16.0137V18.6465C15.858 18.6499 15.9398 18.6531 16.0354 18.6514C16.3236 18.6461 16.6435 18.6151 16.9602 18.5811C17.2353 18.5515 17.5887 18.5088 17.8284 18.5088C18.2086 18.5089 18.5854 18.6468 18.8323 18.7451C19.0928 18.849 19.4218 19.0013 19.6624 19.1055C19.935 19.2236 20.1719 19.3162 20.3801 19.3711C20.4833 19.3983 20.5632 19.4104 20.6223 19.416C20.6285 19.4043 20.6377 19.3919 20.6448 19.377C20.739 19.178 20.8377 18.825 20.8928 18.292C21.0018 17.2377 20.9205 15.7056 20.5559 13.8623C20.21 12.1137 19.4552 10.6343 18.6252 9.62793C18.2101 9.1246 17.7941 8.7622 17.427 8.53906C17.0501 8.31005 16.7929 8.26823 16.6624 8.2793C16.6357 8.28158 16.4778 8.27731 16.2698 8.7373C16.0895 9.13612 15.9415 9.75612 15.8567 10.6416C16.0474 10.661 16.2659 10.6738 16.5149 10.6738C17.067 10.674 17.5149 11.1217 17.5149 11.6738C17.5149 12.226 17.067 12.6737 16.5149 12.6738C15.5003 12.6738 14.5733 12.5258 13.8665 12.1025C13.0828 11.633 12.664 10.8802 12.6467 9.97461V2.5C12.6467 1.94772 13.0944 1.5 13.6467 1.5Z" fill="#9E9E9E"/>
</g>
</svg>
