<svg width="24" height="24" viewBox="0 0 24 24" fill="none" xmlns="http://www.w3.org/2000/svg">
<g id="icons/Health/mask">
<path id="Union" d="M4.08398 2.92285C4.87722 2.92285 5.64013 3.22855 6.21387 3.77637C6.92069 4.45141 7.4815 5.19321 7.88477 6H15.9932C16.3868 5.46037 16.7921 4.91992 17.2139 4.38281C17.8279 3.60111 18.7668 3.14461 19.7607 3.14453C21.5496 3.14453 23 4.59497 23 6.38379V13.5C23 17.6421 19.6421 21 15.5 21H8.5C4.35787 21 1 17.6421 1 13.5V6.00684C1.00011 4.30365 2.38079 2.92295 4.08398 2.92285ZM7 8C4.79086 8 3 9.79088 3 12V13.5C3 16.5376 5.46243 19 8.5 19H15.5C18.5376 19 21 16.5376 21 13.5V12C21 9.79088 19.2091 8 17 8H7ZM12 9.5C12.5523 9.5 13 9.94772 13 10.5V12.5H15C15.5523 12.5 16 12.9477 16 13.5C16 14.0523 15.5523 14.5 15 14.5H13V16.5C13 17.0523 12.5523 17.5 12 17.5C11.4477 17.5 11 17.0523 11 16.5V14.5H9C8.44772 14.5 8 14.0523 8 13.5C8 12.9477 8.44772 12.5 9 12.5H11V10.5C11 9.94772 11.4477 9.5 12 9.5ZM19.7607 5.14453C19.3805 5.14461 19.021 5.31908 18.7861 5.61816C18.6452 5.79767 18.5077 5.97856 18.3701 6.1582C19.3647 6.39056 20.2641 6.8696 21 7.52832V6.38379C21 5.69951 20.445 5.14453 19.7607 5.14453ZM4.08398 4.92285C3.48537 4.92295 3.00011 5.4082 3 6.00684V7.52832C3.74021 6.86573 4.64592 6.38509 5.64746 6.1543C5.41948 5.83712 5.1502 5.52558 4.83301 5.22266C4.63139 5.03012 4.36288 4.92285 4.08398 4.92285Z" fill="#9E9E9E"/>
</g>
</svg>
