<svg width="24" height="24" viewBox="0 0 24 24" fill="none" xmlns="http://www.w3.org/2000/svg">
<g id="icons/Health/medical-mark">
<path id="Union" d="M4 1C4.55228 1 5 1.44772 5 2V8.5H7V7.5C7 6.11927 8.11927 5 9.5 5H18.5C19.8807 5 21 6.11927 21 7.5V16.5C21 17.8807 19.8807 19 18.5 19H9.5C8.11927 19 7 17.8807 7 16.5V15.5H5V22C5 22.5523 4.55228 23 4 23C3.44772 23 3 22.5523 3 22V2C3 1.44772 3.44772 1 4 1ZM9.5 7C9.22383 7 9 7.22383 9 7.5V16.5C9 16.7762 9.22383 17 9.5 17H18.5C18.7762 17 19 16.7762 19 16.5V7.5C19 7.22383 18.7762 7 18.5 7H9.5ZM14 8C14.5523 8 15 8.44772 15 9V11H17C17.5523 11 18 11.4477 18 12C18 12.5523 17.5523 13 17 13H15V15C15 15.5523 14.5523 16 14 16C13.4477 16 13 15.5523 13 15V13H11C10.4477 13 10 12.5523 10 12C10 11.4477 10.4477 11 11 11H13V9C13 8.44772 13.4477 8 14 8ZM5 13.5H7V10.5H5V13.5Z" fill="#9E9E9E"/>
</g>
</svg>
