<svg width="24" height="24" viewBox="0 0 24 24" fill="none" xmlns="http://www.w3.org/2000/svg">
<g id="icons/Health/medical-box">
<path id="Union" d="M17 2.5C17.5523 2.5 18 2.94772 18 3.5V7.5H20.5C21.6046 7.5 22.5 8.39542 22.5 9.5V19.5C22.5 20.6046 21.6046 21.5 20.5 21.5H3.5C2.39545 21.5 1.5 20.6046 1.5 19.5V9.5C1.5 8.39541 2.39544 7.5 3.5 7.5H6V3.5C6 2.94772 6.44772 2.5 7 2.5H17ZM3.5 19.5H20.5V9.5H3.5V19.5ZM12 11C12.5523 11 13 11.4477 13 12V13.5H14.5C15.0523 13.5 15.5 13.9477 15.5 14.5C15.5 15.0523 15.0523 15.5 14.5 15.5H13V17C13 17.5523 12.5523 18 12 18C11.4477 18 11 17.5523 11 17V15.5H9.5C8.94772 15.5 8.5 15.0523 8.5 14.5C8.5 13.9477 8.94772 13.5 9.5 13.5H11V12C11 11.4477 11.4477 11 12 11ZM8 7.5H16V4.5H8V7.5Z" fill="#9E9E9E"/>
</g>
</svg>
