<svg width="24" height="24" viewBox="0 0 24 24" fill="none" xmlns="http://www.w3.org/2000/svg">
<g id="icons/Health/medicine-bottle">
<path id="Union" d="M16 1C16.5523 1 17 1.44772 17 2V4C18.1046 4 19 4.89542 19 6V21C19 22.1046 18.1046 23 17 23H7C5.89542 23 5 22.1046 5 21V6C5 4.89542 5.89542 4 7 4V2C7 1.44772 7.44772 1 8 1H16ZM7 21H17V10H7V21ZM12 12.5C12.5523 12.5 13 12.9477 13 13.5V14.5H14C14.5523 14.5 15 14.9477 15 15.5C15 16.0523 14.5523 16.5 14 16.5H13V17.5C13 18.0523 12.5523 18.5 12 18.5C11.4477 18.5 11 18.0523 11 17.5V16.5H10C9.44772 16.5 9 16.0523 9 15.5C9 14.9477 9.44772 14.5 10 14.5H11V13.5C11 12.9477 11.4477 12.5 12 12.5ZM7 8H17V6H7V8ZM9 4H15V3H9V4Z" fill="#9E9E9E"/>
</g>
</svg>
