<svg width="24" height="24" viewBox="0 0 24 24" fill="none" xmlns="http://www.w3.org/2000/svg">
<g id="icons/Health/medicine-chest">
<path id="Union" d="M14.5 2C15.8807 2 17 3.11929 17 4.5V7H20C21.3807 7 22.5 8.11929 22.5 9.5V19.5C22.5 20.8807 21.3807 22 20 22H4C2.61929 22 1.5 20.8807 1.5 19.5V9.5C1.5 8.11929 2.61929 7 4 7H7V4.5C7 3.11929 8.1193 2 9.5 2H14.5ZM4 9C3.72386 9 3.5 9.22386 3.5 9.5V19.5C3.5 19.7761 3.72386 20 4 20H20C20.2761 20 20.5 19.7761 20.5 19.5V9.5C20.5 9.22386 20.2761 9 20 9H4ZM12 10.5C12.5523 10.5 13 10.9477 13 11.5V13.5H15C15.5523 13.5 16 13.9477 16 14.5C16 15.0523 15.5523 15.5 15 15.5H13V17.5C13 18.0523 12.5523 18.5 12 18.5C11.4477 18.5 11 18.0523 11 17.5V15.5H9C8.44772 15.5 8 15.0523 8 14.5C8 13.9477 8.44772 13.5 9 13.5H11V11.5C11 10.9477 11.4477 10.5 12 10.5ZM9.5 4C9.22385 4 9 4.22386 9 4.5V7H15V4.5C15 4.22386 14.7761 4 14.5 4H9.5Z" fill="#9E9E9E"/>
</g>
</svg>
