<svg width="24" height="24" viewBox="0 0 24 24" fill="none" xmlns="http://www.w3.org/2000/svg">
<g id="icons/Health/medical-files">
<path id="Union" d="M18.5 2C19.6046 2 20.5 2.89544 20.5 4V9.75C20.5 10.3023 20.0523 10.75 19.5 10.75C18.9477 10.75 18.5 10.3023 18.5 9.75V4H4.5V20H11.5C12.0523 20 12.5 20.4477 12.5 21C12.5 21.5523 12.0523 22 11.5 22H4.5C3.39544 22 2.5 21.1046 2.5 20V4C2.5 2.89543 3.39543 2 4.5 2H18.5ZM18.3184 12.5C20.039 12.5001 21.4998 13.8521 21.5 15.5996C21.5 16.6727 20.9882 17.5873 20.4785 18.2588C19.9655 18.9345 19.3498 19.4949 19.0117 19.8203C18.4688 20.3429 17.8076 20.8493 17.04 21.3418C16.711 21.5529 16.289 21.5529 15.96 21.3418C15.1924 20.8493 14.5312 20.3429 13.9883 19.8203C13.6502 19.4949 13.0345 18.9345 12.5215 18.2588C12.0118 17.5873 11.5 16.6727 11.5 15.5996C11.5002 13.8521 12.961 12.5001 14.6816 12.5C15.3542 12.5 15.9821 12.7048 16.5 13.0566C17.0179 12.7048 17.6458 12.5 18.3184 12.5ZM18.3184 14.5C17.8914 14.5 17.5284 14.7084 17.3223 15.0068C17.1355 15.2771 16.8285 15.4385 16.5 15.4385C16.1715 15.4385 15.8645 15.2771 15.6777 15.0068C15.4716 14.7084 15.1086 14.5 14.6816 14.5C13.9928 14.5001 13.5002 15.028 13.5 15.5996C13.5 16.0362 13.7151 16.5229 14.1143 17.0488C14.5103 17.5705 14.9859 18.0053 15.375 18.3799C15.6832 18.6765 16.0577 18.9802 16.5 19.293C16.9423 18.9802 17.3168 18.6765 17.625 18.3799C18.0141 18.0053 18.4897 17.5705 18.8857 17.0488C19.2849 16.5229 19.5 16.0362 19.5 15.5996C19.4998 15.028 19.0072 14.5001 18.3184 14.5ZM15.5 6C16.0523 6 16.5 6.44772 16.5 7C16.5 7.55228 16.0523 8 15.5 8H7.5C6.94772 8 6.5 7.55228 6.5 7C6.5 6.44772 6.94772 6 7.5 6H15.5Z" fill="#9E9E9E"/>
</g>
</svg>
