<svg width="24" height="24" viewBox="0 0 24 24" fill="none" xmlns="http://www.w3.org/2000/svg">
<g id="icons/Health/medicine-bottle-one">
<path id="Union" d="M16.2812 7C17.0386 7.00006 17.755 7.34343 18.2295 7.93359L20.4492 10.6953C20.8058 11.1392 21 11.6922 21 12.2617V20.5C21 21.8807 19.8807 23 18.5 23H5.5C4.1193 23 3 21.8807 3 20.5V12.2617C3 11.6922 3.19415 11.1392 3.55078 10.6953L5.77051 7.93359C6.24501 7.34343 6.9614 7.00006 7.71875 7H16.2812ZM7.71875 9C7.56739 9.00006 7.42402 9.06854 7.3291 9.18652L5.11035 11.9482C5.03898 12.0371 5 12.1478 5 12.2617V20.5C5 20.7762 5.22385 21 5.5 21H18.5C18.7762 21 19 20.7762 19 20.5V12.2617C19 12.1479 18.961 12.0371 18.8896 11.9482L16.6709 9.18652C16.576 9.06854 16.4326 9.00006 16.2812 9H7.71875ZM12 11C12.5523 11 13 11.4477 13 12V14H15C15.5523 14 16 14.4477 16 15C16 15.5523 15.5523 16 15 16H13V18C13 18.5523 12.5523 19 12 19C11.4477 19 11 18.5523 11 18V16H9C8.44772 16 8 15.5523 8 15C8 14.4477 8.44772 14 9 14H11V12C11 11.4477 11.4477 11 12 11ZM16 1C17.3807 1 18.5 2.1193 18.5 3.5C18.5 4.8807 17.3807 6 16 6H8C6.61925 6 5.5 4.8807 5.5 3.5C5.5 2.1193 6.61925 1 8 1H16ZM8 3C7.72385 3 7.5 3.22385 7.5 3.5C7.5 3.77615 7.72385 4 8 4H16C16.2762 4 16.5 3.77615 16.5 3.5C16.5 3.22385 16.2762 3 16 3H8Z" fill="#9E9E9E"/>
</g>
</svg>
