<svg width="24" height="24" viewBox="0 0 24 24" fill="none" xmlns="http://www.w3.org/2000/svg">
<g id="icons/Health/microscope">
<path id="Union" d="M13.9854 1.5C14.2506 1.5 14.5048 1.60543 14.6924 1.79297L19.2891 6.38867C19.6796 6.77919 19.6796 7.41319 19.2891 7.80371L16.7168 10.374C16.9468 10.8199 17.0781 11.3251 17.0781 11.8613C17.0781 12.607 16.8237 13.2914 16.4014 13.8398C17.2714 14.8036 17.6067 16.0743 17.4707 17.5322C17.3544 18.7782 16.7328 19.9297 15.7305 21H21C21.5523 21 22 21.4477 22 22C22 22.5523 21.5523 23 21 23H3C2.44772 23 2 22.5523 2 22C2 21.4477 2.44772 21 3 21H12.6797C14.5938 19.6208 15.381 18.3899 15.4785 17.3467C15.5834 16.2219 15.2985 15.4918 14.7188 14.9854C14.4355 15.0659 14.1372 15.1113 13.8281 15.1113C13.2849 15.1113 12.7733 14.9769 12.3232 14.7412L10.1006 16.9912C9.91354 17.1805 9.6587 17.2881 9.39258 17.2891C9.12631 17.2899 8.86992 17.1844 8.68164 16.9961L4.08594 12.3994C3.69542 12.0089 3.69542 11.3759 4.08594 10.9854L13.2783 1.79297L13.3516 1.72656C13.5295 1.58073 13.7533 1.5 13.9854 1.5ZM2.56348 13.3701C2.94922 12.9752 3.5824 12.9671 3.97754 13.3525L7.90918 17.1924C8.30381 17.5783 8.31151 18.2115 7.92578 18.6064C7.53999 19.0012 6.90676 19.0085 6.51172 18.623L2.58105 14.7842C2.18618 14.3985 2.17828 13.7653 2.56348 13.3701ZM6.20703 11.6914L9.38477 14.8691L10.9209 13.3135C10.7021 12.8763 10.5781 12.3834 10.5781 11.8613C10.5781 10.0664 12.0332 8.61133 13.8281 8.61133C14.3575 8.61133 14.8572 8.73834 15.2988 8.96289L17.166 7.0957L13.9844 3.91406L6.20703 11.6914ZM13.8281 10.6113C13.1378 10.6113 12.5781 11.171 12.5781 11.8613C12.5781 12.5517 13.1378 13.1113 13.8281 13.1113C14.5185 13.1113 15.0781 12.5517 15.0781 11.8613C15.0781 11.171 14.5185 10.6113 13.8281 10.6113Z" fill="#9E9E9E"/>
</g>
</svg>
