<svg width="24" height="24" viewBox="0 0 24 24" fill="none" xmlns="http://www.w3.org/2000/svg">
<g id="icons/Health/nasal">
<path id="Union" d="M8.47461 1C9.02658 0.989435 9.48228 1.42855 9.49316 1.98047C9.55333 5.10099 9.40076 7.421 8.96191 8.80664C8.77147 9.40787 8.31116 10.1754 7.83203 10.9258C7.5808 11.3192 7.30272 11.7407 7.01855 12.1709C6.73266 12.6037 6.43951 13.0484 6.15137 13.498C5.57232 14.4017 5.03122 15.2998 4.6377 16.1211C4.23208 16.9677 4.04113 17.6164 4.04102 18.0508C4.04102 18.9541 4.56838 19.6936 5.3291 20.1318C6.12774 20.5919 6.94188 20.5908 7.38672 20.3281C7.86221 20.0474 8.47597 20.2053 8.75684 20.6807C9.03761 21.1561 8.87968 21.7699 8.4043 22.0508C7.14714 22.7932 5.53398 22.558 4.33105 21.8652C3.0902 21.1504 2.04102 19.817 2.04102 18.0508C2.04112 17.1507 2.39852 16.1658 2.83398 15.2568C3.28187 14.3221 3.87606 13.3408 4.4668 12.4189C4.76358 11.9558 5.06466 11.4997 5.34961 11.0684C5.63601 10.6348 5.90527 10.2274 6.14648 9.84961C6.65245 9.05721 6.95825 8.51041 7.05566 8.20312C7.38414 7.16592 7.55446 5.14856 7.49414 2.01953C7.4836 1.46743 7.92249 1.01064 8.47461 1ZM16.0371 1.00098C16.5889 1.02091 17.0197 1.48435 17 2.03613C16.8875 5.16569 17.0358 7.17501 17.3613 8.20312C17.4512 8.48647 17.7447 8.97957 18.2607 9.71289C18.5053 10.0605 18.7793 10.434 19.0723 10.834C19.3632 11.2312 19.6719 11.6528 19.9766 12.084C20.5828 12.9423 21.1961 13.8716 21.6602 14.79C22.1162 15.6925 22.4794 16.6833 22.4795 17.6465C22.4794 19.5098 21.4346 20.9409 20.1709 21.7363C18.9545 22.5018 17.2978 22.8096 16.0127 22.0508C15.5372 21.7699 15.3793 21.1562 15.6602 20.6807C15.941 20.2055 16.5539 20.0477 17.0293 20.3281C17.4462 20.5744 18.2693 20.5708 19.1064 20.0439C19.8959 19.5469 20.4794 18.7041 20.4795 17.6465C20.4794 17.1491 20.2809 16.4928 19.876 15.6914C19.4791 14.906 18.9323 14.0729 18.3428 13.2383C18.0496 12.8232 17.751 12.4153 17.459 12.0166C17.169 11.6206 16.8827 11.2305 16.625 10.8643C16.1367 10.1704 15.6531 9.4317 15.4551 8.80664C15.0134 7.41192 14.8898 5.08392 15.002 1.96387C15.022 1.41213 15.4853 0.981138 16.0371 1.00098ZM7.70117 16.0518C8.30984 16.0518 8.86556 16.2569 9.34277 16.624C9.70932 16.9061 9.97829 17.2684 10.1787 17.5557C10.4073 17.8832 10.5483 18.1121 10.7432 18.3545C11.0666 18.7567 11.387 18.9999 12.0039 19C12.6383 19 13.1563 18.6861 13.7129 18.166C14.0069 17.8912 14.2339 17.6376 14.5361 17.3311C14.7963 17.0671 15.1405 16.7353 15.541 16.5283L15.7188 16.4424C16.6113 16.0426 17.5477 16.0786 18.4424 16.5195C18.9375 16.7637 19.1413 17.3632 18.8975 17.8584C18.6533 18.3538 18.053 18.5577 17.5576 18.3135C17.1473 18.1113 16.8154 18.1205 16.459 18.3047C16.3714 18.3499 16.2248 18.4677 15.9609 18.7354C15.7393 18.9602 15.4074 19.3203 15.0781 19.6279C14.3874 20.2733 13.3955 21 12.0039 21C10.5951 20.9999 9.75322 20.3154 9.18457 19.6084C8.93368 19.2964 8.696 18.9251 8.53906 18.7002C8.35393 18.4349 8.23022 18.2914 8.12305 18.209C7.96842 18.09 7.83574 18.0518 7.70117 18.0518C7.55004 18.0518 7.32061 18.1011 6.99707 18.2852C6.51711 18.5581 5.90693 18.391 5.63379 17.9111C5.36085 17.4311 5.52878 16.8199 6.00879 16.5469C6.53953 16.2451 7.10926 16.0518 7.70117 16.0518ZM9.41016 10.3916C9.78602 9.98724 10.4187 9.96415 10.8232 10.3398C11.2277 10.7157 11.2507 11.3483 10.875 11.7529C10.5062 12.15 10.1944 12.5106 9.95703 13.1533C9.76403 13.676 9.73188 13.9469 9.70508 14.2891C9.66197 14.8397 9.18048 15.2511 8.62988 15.208C8.07947 15.1649 7.66805 14.6842 7.71094 14.1338C7.74842 13.6552 7.80945 13.1954 8.08105 12.46C8.45691 11.4423 8.98533 10.849 9.41016 10.3916Z" fill="#9E9E9E"/>
</g>
</svg>
