<svg width="24" height="24" viewBox="0 0 24 24" fill="none" xmlns="http://www.w3.org/2000/svg">
<g id="icons/Health/nests">
<path id="Union" d="M12.519 0.5C13.8868 0.5 14.8906 1.42482 15.4595 2.10547C15.7569 2.46144 15.9877 2.81263 16.145 3.07617C16.1475 3.07654 16.1504 3.07768 16.1528 3.07812C16.4846 3.12755 16.9826 3.20194 17.646 3.30078C18.1607 3.37753 18.5308 3.83617 18.4966 4.35547C18.4624 4.87472 18.0354 5.2814 17.5151 5.29004C16.5608 5.30568 15.8895 5.40987 15.4536 5.56152C15.0164 5.71376 14.9527 5.86131 14.9468 5.87598C14.9416 5.88853 14.9218 5.93042 14.9692 6.07812C15.026 6.25445 15.1441 6.47538 15.3433 6.80078C15.6906 7.36845 16.327 8.28228 16.4956 9.3457C16.6658 10.4199 16.4055 11.7324 15.7993 12.9375C15.1837 14.161 14.1703 15.358 12.728 16.1582C10.9846 17.1252 8.90755 17.4027 6.56494 17.0928L3.85303 21.9854C3.58517 22.4679 2.97644 22.6424 2.49365 22.375C2.01098 22.1071 1.83638 21.4975 2.104 21.0146L5.15381 15.5146L5.24072 15.3828C5.46602 15.0952 5.8356 14.9502 6.20361 15.0156C8.53594 15.4316 10.3577 15.1861 11.7583 14.4092C12.8048 13.8285 13.554 12.9518 14.0132 12.0391C14.4815 11.108 14.6091 10.2203 14.52 9.6582C14.4291 9.0854 14.0862 8.57845 13.6372 7.84473C13.4382 7.51951 13.2034 7.11842 13.0659 6.69141C12.9201 6.23838 12.8629 5.69254 13.0933 5.12402C13.3272 4.54715 13.7727 4.15352 14.2896 3.8877C14.1875 3.73235 14.0673 3.55767 13.9253 3.3877C13.4524 2.82194 12.9612 2.5 12.519 2.5C12.0506 2.50007 11.7245 2.59439 11.4946 2.72949C11.2716 2.86071 11.0763 3.06652 10.9204 3.39746C10.9094 3.42089 10.8971 3.4443 10.8843 3.4668L3.36768 16.6523C3.09408 17.1319 2.4831 17.2988 2.00342 17.0254C1.52395 16.7518 1.35607 16.1408 1.62939 15.6611L9.14697 2.47559C9.45216 1.85803 9.89318 1.35202 10.4819 1.00586C11.0862 0.65075 11.7813 0.500071 12.519 0.5ZM18.73 13.0381C20.106 12.6742 21.4131 12.9 22.5649 13.7197C22.9495 13.9935 23.0906 14.4985 22.9028 14.9316C22.3284 16.2566 21.4616 17.2486 20.2778 17.7891C20.6129 18.109 20.9451 18.4643 21.2749 18.8486C21.6236 19.2549 21.5904 19.8635 21.1997 20.2295C19.8444 21.4982 18.1223 21.7851 16.228 21.25C14.3432 20.7174 13.0203 19.592 12.5288 17.8242C12.3925 17.3327 12.6487 16.817 13.1226 16.6279C13.9754 16.288 14.8076 16.0691 15.6118 15.9893C16.265 14.4915 17.2825 13.4211 18.73 13.0381ZM16.8599 17.9951C16.2818 17.9131 15.6222 17.9574 14.8706 18.1533C15.2526 18.6711 15.8593 19.0675 16.771 19.3252H16.772C17.6634 19.577 18.3813 19.5585 18.981 19.3193C18.0886 18.4473 17.3817 18.0692 16.8599 17.9951ZM20.6167 14.959C20.1913 14.8363 19.7389 14.8389 19.2407 14.9707C18.7096 15.1113 18.2185 15.4517 17.7993 16.1104C18.2188 16.258 18.664 16.2481 19.1685 16.0811C19.7232 15.8973 20.2101 15.5441 20.6167 14.959ZM10.5151 7.55078C11.0159 7.43227 11.5833 7.46305 12.0942 7.6875C12.6241 7.92051 13.0891 8.36388 13.3042 9.01953C13.5131 9.6567 13.4494 10.3795 13.1733 11.1357C12.3731 13.3273 10.2845 14.328 7.52881 14.4873C7.16508 14.5081 6.81838 14.33 6.62451 14.0215C6.43077 13.713 6.42061 13.3235 6.59717 13.0049C7.8836 10.6856 8.7423 9.17096 9.1626 8.4873C9.48772 7.95852 10.0196 7.66817 10.5151 7.55078ZM10.9761 9.49707C10.8724 9.52168 10.8507 9.55784 10.8608 9.54395C10.582 9.9983 10.0836 10.8659 9.36084 12.1543C10.4409 11.7966 11.0226 11.1939 11.2944 10.4492C11.4697 9.96886 11.4312 9.72615 11.4038 9.64258C11.3826 9.5783 11.3506 9.54547 11.2896 9.51855C11.209 9.48328 11.0894 9.47031 10.9761 9.49707Z" fill="#9E9E9E"/>
</g>
</svg>
