<svg width="24" height="24" viewBox="0 0 24 24" fill="none" xmlns="http://www.w3.org/2000/svg">
<g id="icons/Health/neural">
<path id="Union" d="M10.25 1C10.8414 1 11.2794 1.28149 11.5742 1.58496C11.8438 1.8625 12.0376 2.20361 12.1709 2.44434C12.3286 2.72904 12.4207 2.91043 12.5322 3.07031C12.5863 3.14783 12.6223 3.18485 12.6387 3.2002C12.6654 3.20403 12.7405 3.21115 12.8926 3.19238C13.1146 3.16494 13.3467 3.10722 13.6787 3.03418C13.9681 2.97052 14.3574 2.88971 14.7402 2.89355C15.0891 2.8971 15.5329 2.97231 15.9209 3.27344L16.084 3.41602L16.2256 3.57715C16.5241 3.95979 16.6028 4.39612 16.6064 4.74707C16.6104 5.12682 16.5275 5.50958 16.4639 5.78906C16.3904 6.11197 16.3346 6.33174 16.3076 6.54395C16.2894 6.68724 16.2951 6.75794 16.2988 6.7832C16.3104 6.79725 16.3489 6.84136 16.4482 6.91406C16.6129 7.03457 16.7982 7.13608 17.082 7.30469C17.3243 7.44862 17.6592 7.65435 17.9307 7.92969C18.2232 8.22657 18.5 8.66382 18.5 9.25C18.5 10.338 17.6095 10.92 17.2383 11.1709C16.9796 11.3457 16.8197 11.4445 16.6699 11.5664C16.5331 11.6778 16.5125 11.7278 16.5146 11.7227C16.507 11.7414 16.4835 11.8251 16.4951 12.04C16.5071 12.2616 16.5445 12.4831 16.5879 12.8066C16.6259 13.0902 16.6698 13.4665 16.6357 13.8369C16.6001 14.2238 16.4714 14.6965 16.084 15.084C15.6796 15.4884 15.1888 15.6019 14.7812 15.6064C14.4073 15.6106 14.0376 15.5234 13.7803 15.46C13.4779 15.3854 13.2852 15.3322 13.0957 15.3066C12.916 15.2824 12.8704 15.3049 12.8828 15.2998C12.9015 15.2921 12.844 15.3131 12.7041 15.4863C12.5632 15.6608 12.4407 15.8541 12.248 16.1357C12.0806 16.3806 11.8527 16.7021 11.5654 16.9609C11.2641 17.2324 10.8258 17.5 10.25 17.5C9.72803 17.5 9.32376 17.2801 9.03125 17.0273C8.976 17.8033 8.99718 18.4512 9.08594 18.9795C9.23615 19.8734 9.55452 20.3188 9.90137 20.5439C10.6774 21.0475 11.2308 21.0489 11.6162 20.9463C12.0496 20.8308 12.4258 20.541 12.7354 20.2266C12.8885 20.071 13.1278 19.7827 13.5127 19.3418C13.8731 18.9289 14.3197 18.4321 14.8154 17.9541C15.3079 17.4793 15.8733 16.9983 16.4756 16.6318C17.0686 16.271 17.7774 15.9717 18.5381 15.9717C19.9255 15.9717 20.8876 16.6669 21.4307 17.5508C21.9407 18.3811 22.0894 19.3816 21.9512 20.1494C21.7823 21.0873 21.3182 21.8722 20.5195 22.3828C20.0543 22.68 19.4361 22.5433 19.1387 22.0781C18.8414 21.6129 18.9772 20.9947 19.4424 20.6973C19.7032 20.5305 19.8969 20.27 19.9824 19.7949C20.035 19.5029 19.9752 19.0024 19.7266 18.5977C19.511 18.2469 19.1637 17.9717 18.5381 17.9717C18.2923 17.9717 17.9523 18.0752 17.5156 18.3408C17.088 18.601 16.6418 18.9715 16.2041 19.3936C15.7698 19.8123 15.3667 20.2586 15.0195 20.6562C14.6969 21.0258 14.3701 21.4166 14.1611 21.6289C13.7466 22.0501 13.0668 22.6296 12.1309 22.8789C11.1464 23.141 10.0152 23.002 8.8125 22.2217C7.84067 21.5909 7.3206 20.5448 7.11328 19.3115C6.929 18.2149 6.97527 16.8887 7.21094 15.3633C7.08612 15.3906 6.94677 15.4251 6.77832 15.4639C6.50228 15.5275 6.12098 15.6104 5.74219 15.6064C5.34012 15.6021 4.83071 15.4987 4.41602 15.084C4.0005 14.6685 3.89786 14.1575 3.89355 13.7559C3.88956 13.3766 3.97253 12.9945 4.03613 12.7168C4.10967 12.3957 4.16553 12.1781 4.19238 11.9678C4.2111 11.821 4.20385 11.7511 4.2002 11.7285C4.18753 11.7132 4.14769 11.6687 4.04883 11.5957C3.88329 11.4736 3.69671 11.3708 3.41309 11.2002C3.17062 11.0544 2.83773 10.8466 2.56738 10.5703C2.31296 10.3102 2.06962 9.94286 2.0127 9.46289L2 9.25L2.01172 9.04004C2.06673 8.56652 2.30159 8.19816 2.53906 7.93457C2.79789 7.6473 3.11944 7.4194 3.36426 7.25195C3.64593 7.0593 3.83919 6.93682 4.01367 6.7959C4.18686 6.65601 4.20794 6.59852 4.2002 6.61719C4.19512 6.62947 4.21757 6.58376 4.19336 6.4043C4.16778 6.21476 4.11461 6.02214 4.04004 5.71973C3.97659 5.46236 3.88936 5.09273 3.89355 4.71875C3.89814 4.31119 4.01158 3.82045 4.41602 3.41602C4.86074 2.97128 5.41124 2.90043 5.82422 2.92969C6.20857 2.957 6.59292 3.07904 6.86328 3.16699C7.17996 3.27002 7.3922 3.34354 7.5918 3.38379C7.67378 3.4003 7.72639 3.40451 7.75586 3.40527C7.7775 3.38272 7.81685 3.33943 7.87109 3.25977C7.9959 3.07638 8.10438 2.86308 8.27344 2.55469C8.41926 2.28868 8.62269 1.92945 8.8916 1.6377C9.17513 1.33014 9.62314 1 10.25 1ZM10.2559 3.13281C10.1935 3.22489 10.1192 3.34905 10.0273 3.5166C9.90047 3.74807 9.7203 4.09694 9.52441 4.38477C9.33173 4.66785 9.01855 5.05827 8.53027 5.26074C8.03702 5.46524 7.54354 5.41446 7.19727 5.34473C6.8515 5.27508 6.48853 5.14786 6.24414 5.06836C6.11316 5.02575 6.00772 4.99459 5.92188 4.97168C5.93584 5.04376 5.95471 5.13178 5.98145 5.24023C6.03621 5.46237 6.13146 5.80835 6.17578 6.13672C6.22142 6.47496 6.23577 6.92725 6.04688 7.38281C5.86194 7.82878 5.52868 8.14302 5.27051 8.35156C5.01362 8.55905 4.69803 8.76223 4.49316 8.90234C4.28589 9.04411 4.15146 9.14726 4.06445 9.23242C4.14327 9.29657 4.26251 9.37599 4.44434 9.48535C4.64728 9.60741 4.97048 9.79016 5.23633 9.98633C5.50589 10.1853 5.85502 10.4937 6.04688 10.9561C6.23712 11.4148 6.22021 11.8799 6.17676 12.2207C6.13367 12.5584 6.04116 12.9194 5.98535 13.1631C5.942 13.3524 5.91621 13.4907 5.90332 13.5957C6.00654 13.5828 6.14281 13.5576 6.3291 13.5146C6.57102 13.4589 6.93073 13.3664 7.26758 13.3232C7.60809 13.2796 8.07174 13.263 8.53027 13.4531C8.99161 13.6445 9.30118 13.9921 9.50098 14.2607C9.6981 14.5258 9.88134 14.8487 10.0049 15.0518C10.1169 15.2359 10.1989 15.3561 10.2646 15.4355C10.3501 15.3486 10.4551 15.2153 10.5977 15.0068C10.7378 14.802 10.941 14.4864 11.1484 14.2295C11.357 13.9713 11.6712 13.6381 12.1172 13.4531C12.5727 13.2642 13.025 13.2786 13.3633 13.3242C13.6917 13.3685 14.0376 13.4638 14.2598 13.5186C14.4362 13.562 14.5583 13.586 14.6465 13.5977C14.6504 13.4782 14.6379 13.314 14.6055 13.0723C14.5731 12.8311 14.5157 12.4738 14.498 12.1475C14.4801 11.8153 14.4909 11.3806 14.667 10.9561C14.847 10.5219 15.1561 10.2198 15.4082 10.0146C15.6493 9.81851 15.944 9.63238 16.1182 9.51465C16.2838 9.40267 16.3801 9.32229 16.4365 9.27148C16.3584 9.20894 16.2404 9.1313 16.0605 9.02441C15.8578 8.90395 15.5342 8.72343 15.2676 8.52832C14.9968 8.33018 14.6457 8.02195 14.4531 7.55762C14.2628 7.09858 14.28 6.63301 14.3232 6.29199C14.3662 5.95362 14.4578 5.59131 14.5137 5.3457C14.5583 5.14971 14.5842 5.00694 14.5967 4.89941C14.4785 4.91133 14.3227 4.94016 14.1084 4.9873C13.8523 5.04364 13.4821 5.13428 13.1387 5.17676C12.796 5.2191 12.3237 5.23779 11.8633 5.04688C11.3906 4.85073 11.0859 4.49094 10.8926 4.21387C10.7032 3.94238 10.5336 3.61493 10.4219 3.41309C10.3553 3.2928 10.3009 3.20204 10.2559 3.13281ZM10 6C11.6568 6 13 7.34317 13 9C13 10.6569 11.6568 12 10 12C8.34318 12 7 10.6569 7 9C7 7.34317 8.34317 6 10 6ZM10 8C9.44773 8 9 8.44773 9 9C9 9.5523 9.44772 10 10 10C10.5523 10 11 9.5523 11 9C11 8.44773 10.5523 8 10 8Z" fill="#9E9E9E"/>
</g>
</svg>
