<svg width="24" height="24" viewBox="0 0 24 24" fill="none" xmlns="http://www.w3.org/2000/svg">
<g id="icons/Health/nmr">
<path id="Union" d="M12 1C18.0751 1 23 5.92487 23 12C23 18.0751 18.0751 23 12 23C5.92487 23 1 18.0751 1 12C1 5.92487 5.92487 1 12 1ZM9.51855 17L9.50293 20.6465C10.296 20.8751 11.1333 21 12 21C12.8688 21 13.7081 20.8743 14.5029 20.6445L14.5186 17H9.51855ZM12 3C7.02943 3 3 7.02943 3 12C3 15.3332 4.81311 18.2414 7.50586 19.7969L7.51855 17H7C6.44772 17 6 16.5523 6 16V12C6 11.4477 6.44772 11 7 11H17C17.5523 11 18 11.4477 18 12V16C18 16.5523 17.5523 17 17 17H16.5186L16.5059 19.7891C19.1919 18.2319 21 15.3282 21 12C21 7.02943 16.9706 3 12 3ZM8 15H16V13H8V15ZM11.999 5C13.9316 5 15.6836 5.78427 16.9492 7.0498C17.3397 7.44033 17.3397 8.07432 16.9492 8.46484C16.5588 8.85508 15.9256 8.85504 15.5352 8.46484C14.6292 7.55892 13.38 7 11.999 7C10.6182 7.00012 9.36969 7.55902 8.46387 8.46484C8.0734 8.85506 7.44027 8.85506 7.0498 8.46484C6.65928 8.07432 6.65928 7.44033 7.0498 7.0498C8.31536 5.78438 10.0666 5.00013 11.999 5Z" fill="#9E9E9E"/>
</g>
</svg>
