<svg width="24" height="24" viewBox="0 0 24 24" fill="none" xmlns="http://www.w3.org/2000/svg">
<g id="icons/Health/nurse-cap">
<path id="Union" d="M12.0001 4C18.0477 4.00018 21.6773 7.62233 22.5597 8.61426L22.63 8.7002C22.9635 9.13736 23.0014 9.6984 22.8077 10.1582L19.1456 18.8564C18.7903 19.7007 17.8105 19.9956 17.0587 19.6367C16.2344 19.2431 14.3603 18.5001 12.0001 18.5C9.93482 18.5 8.24121 19.0687 7.29797 19.4746L6.94055 19.6367C6.18876 19.9957 5.21004 19.7007 4.85461 18.8564L1.19153 10.1582C0.98497 9.66771 1.04222 9.06195 1.44055 8.61426C2.32334 7.62201 5.95279 4 12.0001 4ZM12.0001 6C7.22517 6 4.19782 8.62667 3.16614 9.69434L6.50989 17.6367C7.62264 17.1581 9.58873 16.5 12.0001 16.5C14.4106 16.5001 16.3755 17.1582 17.4884 17.6367L20.8322 9.69434C19.8 8.62632 16.774 6.00016 12.0001 6ZM12.0001 9C12.5523 9.00009 13.0001 9.44777 13.0001 10V11.001H14.0001C14.5523 11.0011 15.0001 11.4487 15.0001 12.001C15.0001 12.5532 14.5523 13.0009 14.0001 13.001H13.0001V14C13.0001 14.5522 12.5523 14.9999 12.0001 15C11.4478 15 11.0001 14.5523 11.0001 14V13.001H10.0001C9.44784 13.001 9.00012 12.5533 9.00012 12.001C9.00012 11.4487 9.44784 11.001 10.0001 11.001H11.0001V10C11.0001 9.44772 11.4478 9 12.0001 9Z" fill="#9E9E9E"/>
</g>
</svg>
