<svg width="24" height="24" viewBox="0 0 24 24" fill="none" xmlns="http://www.w3.org/2000/svg">
<g id="icons/Health/nutrition">
<path id="Union" d="M10.9102 2.00684C11.4588 1.94348 11.9552 2.3371 12.0186 2.88574C12.0816 3.43415 11.6881 3.92983 11.1396 3.99316C8.4431 4.30471 6.17469 6.06941 5.13086 8.5H18.8662C18.5415 7.74437 18.101 7.05126 17.5625 6.44727C17.195 6.03507 17.2314 5.40272 17.6436 5.03516C18.0558 4.66774 18.6872 4.70404 19.0547 5.11621C19.9186 6.08514 20.5889 7.23384 21.0049 8.5H22C22.5523 8.5 23 8.94772 23 9.5C22.9999 14.0694 20.1611 17.9708 16.1494 19.5908C16.1425 19.6122 16.1329 19.6372 16.125 19.667C16.054 19.9335 15.9974 20.3747 15.9775 21.0303C15.9611 21.5704 15.518 22 14.9775 22H9.02832C8.52685 22 8.10304 21.628 8.03711 21.1309C7.9473 20.4531 7.84043 19.9852 7.73438 19.6914C7.70351 19.6059 7.67584 19.5477 7.65625 19.5098C3.748 17.8438 1.00006 13.9953 1 9.5C1 8.94772 1.44772 8.5 2 8.5H2.99512C4.13495 5.03056 7.1909 2.43654 10.9102 2.00684ZM3.05664 10.5C3.42662 13.7667 5.58735 16.5052 8.55762 17.7217C8.88626 17.8564 9.11152 18.0926 9.26172 18.3057C9.41328 18.5207 9.52746 18.766 9.61621 19.0117C9.71885 19.296 9.80241 19.6285 9.87598 20H14.043C14.078 19.6858 14.1259 19.4007 14.1924 19.1514C14.2572 18.9083 14.3504 18.6544 14.4932 18.4277C14.6372 18.1991 14.8691 17.9426 15.2246 17.8076L15.5391 17.6816C18.4593 16.4461 20.5774 13.7314 20.9434 10.5H3.05664ZM6.93164 12.0547C7.46014 11.8947 8.01857 12.1933 8.17871 12.7217C8.33282 13.2307 8.52354 13.6056 8.72949 13.875L8.91309 14.0977C9.10845 14.3181 9.33997 14.5325 9.61133 14.7393C10.0505 15.0739 10.1352 15.7014 9.80078 16.1406C9.46609 16.5798 8.83868 16.6646 8.39941 16.3301C7.91276 15.9593 7.48994 15.5467 7.14062 15.0898C6.75523 14.5858 6.47005 13.9801 6.26465 13.3018C6.10465 12.7733 6.40325 12.2148 6.93164 12.0547ZM13.1074 2.95605C13.2434 2.42097 13.7871 2.09761 14.3223 2.2334C15.123 2.43671 15.8832 2.74237 16.5879 3.13574C17.07 3.40496 17.2427 4.01392 16.9736 4.49609C16.7044 4.97816 16.0954 5.15085 15.6133 4.88184C15.0579 4.57181 14.4594 4.33167 13.8301 4.17188C13.2949 4.03591 12.9716 3.49126 13.1074 2.95605Z" fill="#9E9E9E"/>
</g>
</svg>
