<svg width="24" height="24" viewBox="0 0 24 24" fill="none" xmlns="http://www.w3.org/2000/svg">
<g id="icons/Health/orthopedic">
<path id="Union" d="M15.0797 1.5957C16.0559 1.13845 17.3534 0.792567 18.6862 1.12793C20.0684 1.47601 21.2789 2.50221 22.1383 4.36426C22.8062 5.81156 22.6413 7.31116 21.7994 8.74805C21.0474 10.0314 19.7482 11.2805 18.0016 12.5186V21.5C18.0014 21.865 17.8021 22.2005 17.4821 22.376C17.1619 22.5514 16.7713 22.5391 16.4635 22.3428L11.7975 19.3672C11.0327 20.4612 10.3088 21.3047 9.61975 21.8389C9.19047 22.1716 8.70682 22.4398 8.17932 22.5225C7.61051 22.6115 7.06477 22.4713 6.60901 22.1182C6.59832 22.1099 6.58712 22.1015 6.57678 22.0928C6.32668 21.8818 6.19113 21.6052 6.11389 21.415C6.02774 21.2028 5.96085 20.9604 5.90686 20.708C5.79852 20.2012 5.7173 19.5397 5.65588 18.7451C5.53975 17.2422 5.48955 15.1551 5.49963 12.4971C4.41674 11.6806 3.68073 11.0761 3.14514 10.5283C2.51596 9.88475 2.17168 9.33383 1.84143 8.66797C1.58944 8.15963 1.49856 7.443 1.51233 6.75488C1.52687 6.03223 1.65926 5.1959 1.96838 4.3916C2.27792 3.58635 2.77984 2.77582 3.5553 2.16406C4.34357 1.54231 5.35913 1.17097 6.60022 1.1709C9.12838 1.1709 11.154 2.35636 12.694 4.50391C13.2397 3.13307 14.0038 2.09983 15.0797 1.5957ZM18.1979 3.06738C17.4813 2.88714 16.6777 3.05473 15.9274 3.40625C15.2448 3.72626 14.4903 4.78351 13.9791 7.22559C13.891 7.64649 13.543 7.96371 13.1158 8.01367C12.6891 8.0633 12.2782 7.835 12.0953 7.44629C10.682 4.43858 8.83806 3.1709 6.60022 3.1709C5.78121 3.17097 5.20899 3.40756 4.79456 3.73438C4.36755 4.07121 4.0503 4.55076 3.83557 5.10938C3.62057 5.6688 3.52288 6.27149 3.51233 6.79492C3.50117 7.35223 3.59023 7.69176 3.63342 7.7793C3.89339 8.30345 4.12454 8.66924 4.57483 9.12988C5.05511 9.62108 5.79306 10.2283 7.09729 11.1982C7.35262 11.3882 7.50259 11.6886 7.50061 12.0068C7.48187 14.8887 7.53215 17.0791 7.64905 18.5918C7.70773 19.3509 7.78176 19.9105 7.86292 20.29C7.88419 20.3895 7.90426 20.4697 7.92249 20.5322C8.01017 20.5054 8.16648 20.4351 8.39514 20.2578C8.97262 19.81 9.73366 18.9114 10.6744 17.457C10.973 16.9956 11.5889 16.862 12.0524 17.1572L16.0016 19.6758V12C16.0018 11.6689 16.1661 11.3589 16.4401 11.1729C18.3069 9.90536 19.4783 8.75278 20.0739 7.73633C20.6412 6.76777 20.672 5.96086 20.3219 5.20215C19.6544 3.75593 18.865 3.23541 18.1979 3.06738ZM13.4996 11.5C14.0518 11.5 14.4995 11.9478 14.4996 12.5V15.5C14.4996 16.0523 14.0519 16.5 13.4996 16.5C12.9475 16.4998 12.4996 16.0522 12.4996 15.5V12.5C12.4998 11.948 12.9476 11.5002 13.4996 11.5Z" fill="#9E9E9E"/>
</g>
</svg>
