<svg width="24" height="24" viewBox="0 0 24 24" fill="none" xmlns="http://www.w3.org/2000/svg">
<g id="icons/Health/other" clip-path="url(#clip0_56_3709)">
<path id="Union" d="M10.6926 1.39355C11.4737 0.6125 12.7397 0.612502 13.5208 1.39355L22.7131 10.5859C23.494 11.367 23.4941 12.6331 22.7131 13.4141L13.5208 22.6064C12.7398 23.3874 11.4736 23.3873 10.6926 22.6064L1.50024 13.4141C0.719199 12.633 0.719245 11.367 1.50024 10.5859L10.6926 1.39355ZM2.91431 12L12.1067 21.1924L21.2991 12L12.1067 2.80762L2.91431 12ZM12.0002 8C12.5524 8.00011 13.0002 8.44779 13.0002 9V11H15.0002C15.5524 11.0001 16.0002 11.4478 16.0002 12C16.0001 12.5521 15.5524 12.9999 15.0002 13H13.0002V15C13.0001 15.5521 12.5524 15.9999 12.0002 16C11.448 16 11.0003 15.5522 11.0002 15V13H9.00024C8.44802 13 8.00034 12.5522 8.00024 12C8.00024 11.4477 8.44796 11 9.00024 11H11.0002V9C11.0002 8.44772 11.448 8 12.0002 8Z" fill="#9E9E9E"/>
</g>
<defs>
<clipPath id="clip0_56_3709">
<rect width="24" height="24" fill="white"/>
</clipPath>
</defs>
</svg>
