<svg width="24" height="24" viewBox="0 0 24 24" fill="none" xmlns="http://www.w3.org/2000/svg">
<g id="icons/Health/panorama-horizontal">
<path id="Union" d="M21.5938 4.58594C21.903 4.44855 22.2612 4.47686 22.5449 4.66113C22.8287 4.84554 22.9999 5.16159 23 5.5V18.5C23 18.8385 22.8287 19.1544 22.5449 19.3389C22.2611 19.5232 21.903 19.5515 21.5938 19.4141C21.5926 19.4136 21.59 19.4125 21.5869 19.4111C21.5805 19.4083 21.57 19.4036 21.5557 19.3975C21.526 19.3848 21.4796 19.3651 21.418 19.3398C21.2941 19.2892 21.1067 19.2155 20.8643 19.126C20.3791 18.9468 19.672 18.7053 18.7969 18.4639C17.0416 17.9797 14.634 17.5 12 17.5C9.36597 17.5 6.95836 17.9797 5.20312 18.4639C4.328 18.7053 3.62093 18.9468 3.13574 19.126C2.89333 19.2155 2.70594 19.2892 2.58203 19.3398C2.52037 19.3651 2.47395 19.3848 2.44434 19.3975C2.42999 19.4036 2.41952 19.4083 2.41309 19.4111C2.40995 19.4125 2.40738 19.4136 2.40625 19.4141L2.28809 19.458C2.00857 19.5421 1.70337 19.5002 1.45508 19.3389C1.17131 19.1544 1 18.8385 1 18.5V5.5C1.00009 5.16159 1.17132 4.84554 1.45508 4.66113C1.73884 4.47686 2.09704 4.44855 2.40625 4.58594C2.40733 4.58641 2.40991 4.58748 2.41309 4.58887C2.4195 4.59166 2.42996 4.5964 2.44434 4.60254C2.47394 4.61518 2.52035 4.63494 2.58203 4.66016C2.70592 4.7108 2.89331 4.78451 3.13574 4.87402C3.62092 5.05316 4.32798 5.2947 5.20312 5.53613C6.95837 6.02034 9.36593 6.5 12 6.5C14.6341 6.5 17.0416 6.02034 18.7969 5.53613C19.672 5.2947 20.3791 5.05316 20.8643 4.87402C21.1067 4.78451 21.2941 4.7108 21.418 4.66016C21.4797 4.63494 21.5261 4.61518 21.5557 4.60254C21.57 4.5964 21.5805 4.59166 21.5869 4.58887C21.5901 4.58748 21.5927 4.58641 21.5938 4.58594ZM21 6.94727C20.5386 7.10532 19.9753 7.28532 19.3281 7.46387C17.4584 7.97964 14.8658 8.5 12 8.5C9.13419 8.5 6.54161 7.97964 4.67188 7.46387C4.02466 7.28532 3.46136 7.10532 3 6.94727V17.0518C3.4613 16.8937 4.02481 16.7146 4.67188 16.5361C6.54161 16.0204 9.13423 15.5 12 15.5C14.8658 15.5 17.4584 16.0204 19.3281 16.5361C19.9752 16.7146 20.5387 16.8937 21 17.0518V6.94727Z" fill="#9E9E9E"/>
</g>
</svg>
