<svg width="24" height="24" viewBox="0 0 24 24" fill="none" xmlns="http://www.w3.org/2000/svg">
<g id="icons/Health/period">
<path id="Union" d="M3.23145 1.35938C3.58506 0.935787 4.21562 0.87832 4.63965 1.23145C6.74019 2.98246 8.00068 4.90478 8.00098 7.00195C8.00098 8.55936 7.36333 9.68179 6.64941 10.5547C6.30347 10.9776 5.92429 11.3605 5.60742 11.6865C5.27528 12.0283 5.0106 12.3086 4.80859 12.5869C3.94842 13.7724 3.50202 15.1483 3.50195 17.002C3.50203 18.1337 3.92484 19.6361 4.8916 21.5488C5.14072 22.0417 4.94297 22.6434 4.4502 22.8926C3.95734 23.1416 3.35555 22.944 3.10645 22.4512C2.0772 20.4149 1.50203 18.5846 1.50195 17.002C1.50202 14.784 2.04998 12.9837 3.18945 11.4131C3.48733 11.0026 3.84871 10.6255 4.17285 10.292C4.51243 9.94256 4.82218 9.6306 5.10156 9.28906C5.63835 8.63276 6.00098 7.94402 6.00098 7.00195C6.00068 5.76659 5.26051 4.35346 3.35938 2.76855C2.93533 2.41489 2.87787 1.78353 3.23145 1.35938ZM13.3613 14.2656C14.4238 13.652 15.695 13.4613 17.0977 13.5957C17.6471 13.6485 18.0495 14.137 17.9971 14.6865C17.9443 15.2362 17.456 15.6396 16.9062 15.5869C15.7879 15.4798 14.9647 15.6495 14.3613 15.998C13.2225 16.656 13.0056 17.2207 13.0039 17.4834C13.0038 17.5063 13.0016 17.5293 13 17.5518V22.001C12.9993 22.5532 12.5512 23.0005 11.999 23C11.4469 22.9994 10.9996 22.5511 11 21.999C11.0028 19.516 11.0028 18.0119 11 17.4834C10.9983 17.2206 10.7814 16.656 9.64258 15.998C9.03915 15.6495 8.21604 15.4798 7.09766 15.5869C6.54793 15.6396 6.05958 15.2362 6.00684 14.6865C5.9544 14.137 6.35678 13.6485 6.90625 13.5957C8.30897 13.4613 9.58008 13.652 10.6426 14.2656C11.1604 14.5648 11.624 14.9091 12.001 15.293C12.3781 14.9086 12.8431 14.565 13.3613 14.2656ZM19.3613 1.23145C19.7855 0.878086 20.4169 0.935443 20.7705 1.35938C21.1241 1.78353 21.0666 2.4149 20.6426 2.76855C18.7411 4.35361 18.0003 5.76651 18 7.00195C18 7.94402 18.3636 8.63276 18.9004 9.28906C19.1797 9.63042 19.4887 9.94273 19.8281 10.292C20.1523 10.6255 20.5136 11.0026 20.8115 11.4131C21.9511 12.9837 22.499 14.784 22.499 17.002C22.4989 18.5847 21.9238 20.4148 20.8945 22.4512C20.6454 22.9441 20.0437 23.1417 19.5508 22.8926C19.058 22.6434 18.8603 22.0417 19.1094 21.5488C20.0762 19.6361 20.4989 18.1337 20.499 17.002C20.499 15.1483 20.0525 13.7724 19.1924 12.5869C18.9904 12.3086 18.7257 12.0283 18.3936 11.6865C18.0767 11.3605 17.6975 10.9776 17.3516 10.5547C16.6377 9.68181 16 8.55929 16 7.00195C16.0003 4.90477 17.2608 2.98244 19.3613 1.23145Z" fill="#9E9E9E"/>
</g>
</svg>
