<svg width="24" height="24" viewBox="0 0 24 24" fill="none" xmlns="http://www.w3.org/2000/svg">
<g id="icons/Health/pesticide">
<path id="Union" d="M16.5 1C17.0523 1 17.5 1.44772 17.5 2V5.27539L20.2139 8.04297C20.3971 8.22986 20.4999 8.48142 20.5 8.74316V21C20.5 22.1046 19.6046 23 18.5 23H5.5C4.39544 23 3.5 22.1046 3.5 21V8.74316C3.50006 8.48142 3.60286 8.22986 3.78613 8.04297L6.5 5.27539V2L6.50488 1.89746C6.55621 1.39333 6.98232 1 7.5 1H16.5ZM5.5 9.15137V10.5H8.5C9.05228 10.5 9.5 10.9477 9.5 11.5V17.5C9.5 18.0523 9.05228 18.5 8.5 18.5H5.5V21H18.5V9.15137L16.1445 6.75H7.85547L5.5 9.15137ZM15.5 16C16.0523 16 16.5 16.4477 16.5 17V17.5C16.5 18.0523 16.0523 18.5 15.5 18.5C14.9477 18.5 14.5 18.0523 14.5 17.5V17C14.5 16.4477 14.9477 16 15.5 16ZM5.5 16.5H7.5V12.5H5.5V16.5ZM15.5 10.5C16.0523 10.5 16.5 10.9477 16.5 11.5V14.5C16.5 15.0523 16.0523 15.5 15.5 15.5C14.9477 15.5 14.5 15.0523 14.5 14.5V11.5C14.5 10.9477 14.9477 10.5 15.5 10.5ZM8.5 4.75H15.5V3H8.5V4.75Z" fill="#9E9E9E"/>
</g>
</svg>
