<svg width="24" height="24" viewBox="0 0 24 24" fill="none" xmlns="http://www.w3.org/2000/svg">
<g id="icons/Health/pills">
<path id="Union" d="M11.621 4.1582C14.2651 1.9397 18.2079 2.28474 20.4266 4.92871C22.6454 7.57287 22.3002 11.5156 19.6561 13.7344L16.0175 16.7871L12.3788 19.8408C9.73456 22.0595 5.79188 21.7145 3.57312 19.0703C1.35477 16.4262 1.69988 12.4844 4.34363 10.2656L11.621 4.1582ZM18.8944 6.21484C17.3858 4.41702 14.7051 4.18214 12.9071 5.69043L9.26843 8.74414L5.62976 11.7969C3.83173 13.3056 3.59668 15.9871 5.10535 17.7852C6.61413 19.5831 9.29558 19.8173 11.0936 18.3086L14.7323 15.2549L18.371 12.2021C20.1686 10.6934 20.4029 8.01277 18.8944 6.21484ZM9.20203 10.165C9.625 9.81019 10.2552 9.86531 10.6102 10.2881L13.4794 13.707C13.8342 14.13 13.779 14.7602 13.3563 15.1152C12.9332 15.4702 12.3021 15.4153 11.9471 14.9922L9.07898 11.5732C8.72421 11.1502 8.7791 10.52 9.20203 10.165Z" fill="#9E9E9E"/>
</g>
</svg>
