<svg width="24" height="24" viewBox="0 0 24 24" fill="none" xmlns="http://www.w3.org/2000/svg">
<g id="icons/Health/pill">
<path id="Union" d="M8.46509 2.10059C9.44141 1.12444 11.024 1.12428 12.0002 2.10059L21.8997 12C22.8756 12.9763 22.8757 14.5589 21.8997 15.5352L15.5354 21.8994C14.5592 22.8754 12.9765 22.8754 12.0002 21.8994L2.10083 12C1.12454 11.0237 1.12456 9.44019 2.10083 8.46387L8.46509 2.10059ZM10.5862 3.51465C10.391 3.31948 10.0745 3.31951 9.87915 3.51465L3.51489 9.87891C3.31981 10.0742 3.31968 10.3907 3.51489 10.5859L13.4143 20.4854C13.6095 20.6802 13.9261 20.6803 14.1213 20.4854L20.4856 14.1211C20.6806 13.9259 20.6805 13.6093 20.4856 13.4141L10.5862 3.51465ZM13.0608 15.8896C13.4513 15.4991 14.0843 15.4991 14.4749 15.8896C14.8652 16.2802 14.8653 16.9132 14.4749 17.3037C14.0844 17.6941 13.4513 17.6941 13.0608 17.3037C12.6703 16.9132 12.6704 16.2802 13.0608 15.8896ZM10.9397 13.7676C11.3302 13.3771 11.9632 13.3771 12.3538 13.7676C12.744 14.1581 12.7442 14.7912 12.3538 15.1816C11.9633 15.5721 11.3302 15.5719 10.9397 15.1816C10.5492 14.7911 10.5492 14.1581 10.9397 13.7676ZM15.8899 13.0605C16.2804 12.67 16.9134 12.67 17.304 13.0605C17.6943 13.4511 17.6944 14.0841 17.304 14.4746C16.9135 14.865 16.2804 14.865 15.8899 14.4746C15.4994 14.0841 15.4995 13.4511 15.8899 13.0605ZM8.81763 11.6465C9.20815 11.256 9.84117 11.256 10.2317 11.6465C10.6221 12.037 10.6222 12.6701 10.2317 13.0605C9.84121 13.4509 9.20813 13.4509 8.81763 13.0605C8.42714 12.6701 8.4272 12.037 8.81763 11.6465ZM13.7678 10.9395C14.1583 10.5489 14.7914 10.5489 15.1819 10.9395C15.5724 11.33 15.5724 11.963 15.1819 12.3535C14.7914 12.7438 14.1583 12.7439 13.7678 12.3535C13.3774 11.9631 13.3775 11.33 13.7678 10.9395ZM6.69653 9.52539C7.08706 9.13487 7.72007 9.13487 8.1106 9.52539C8.50097 9.91593 8.50107 10.549 8.1106 10.9395C7.72011 11.3298 7.08704 11.3298 6.69653 10.9395C6.30604 10.549 6.30611 9.91592 6.69653 9.52539ZM11.6467 8.81836C12.0373 8.42783 12.6703 8.42783 13.0608 8.81836C13.4512 9.2089 13.4513 9.84195 13.0608 10.2324C12.6703 10.6228 12.0372 10.6228 11.6467 10.2324C11.2562 9.84193 11.2563 9.20889 11.6467 8.81836ZM9.52563 6.69629C9.91616 6.30576 10.5492 6.30576 10.9397 6.69629C11.3301 7.08683 11.3302 7.71988 10.9397 8.11035C10.5492 8.50072 9.91614 8.50069 9.52563 8.11035C9.13514 7.71986 9.13521 7.08682 9.52563 6.69629Z" fill="#9E9E9E"/>
</g>
</svg>
