<svg width="24" height="24" viewBox="0 0 24 24" fill="none" xmlns="http://www.w3.org/2000/svg">
<g id="icons/Health/plastic-surgery">
<path id="Union" d="M13.1987 1C16.7071 1.00003 19.1908 2.50395 20.7739 4.51172C22.3291 6.48421 22.9995 8.91792 22.9995 10.8398C22.9993 14.5499 20.0767 18.3732 15.8979 19.5586C16.1101 19.9739 16.5355 20.5593 17.2329 21.3281C17.6038 21.7372 17.5725 22.3692 17.1636 22.7402C16.7545 23.111 16.1225 23.0807 15.7515 22.6719C15.079 21.9305 14.5508 21.2497 14.2104 20.6416C14.0409 20.543 13.8978 20.3941 13.8081 20.2031C13.0916 18.6763 12.601 17.3767 12.3735 16.3281C12.2291 15.662 12.4091 15.1039 12.6919 14.665C12.9383 14.2827 13.2967 13.9469 13.5278 13.7188C14.0567 13.1966 14.3403 12.8494 14.3403 12.2783C14.3403 12.1682 14.3174 12.0762 14.1089 11.9189C13.8497 11.7237 13.4583 11.5515 12.8843 11.3193C12.3626 11.1084 11.6966 10.8492 11.1138 10.4873C10.5144 10.1151 9.91455 9.58337 9.58447 8.77539C9.04471 7.45375 8.94557 5.81856 9.19775 3.92773C9.05128 4.0174 8.91193 4.11263 8.78076 4.21387C7.79459 4.97528 7.11332 6.14994 6.81299 7.8623C6.75862 8.17225 6.56132 8.4395 6.28076 8.58203C5.2045 9.12881 4.36589 9.57045 3.76025 9.90918C4.00016 10.0823 4.26434 10.3103 4.46338 10.6064C4.7848 11.0849 4.91357 11.7047 4.65088 12.3711C4.50436 12.7427 4.2933 13.1725 4.10498 13.5654C3.90698 13.9786 3.71746 14.3838 3.57178 14.7744C3.4244 15.1697 3.34256 15.4979 3.32666 15.7568C3.31141 16.0064 3.36097 16.1233 3.40479 16.1846C3.45809 16.2589 3.55582 16.343 3.79834 16.4229C4.06076 16.5092 4.39002 16.5592 4.84619 16.6191C5.65884 16.7259 6.9228 16.8512 7.92139 17.6436C9.11226 18.5888 9.94285 19.9777 10.4731 21.707C10.635 22.2349 10.3388 22.794 9.81104 22.9561C9.28314 23.1177 8.72291 22.8209 8.56104 22.293C8.11143 20.827 7.46394 19.8336 6.67822 19.21C6.19442 18.8261 5.53923 18.7277 4.58643 18.6025C4.16011 18.5465 3.64334 18.4778 3.17334 18.3232C2.68384 18.1621 2.16036 17.8819 1.77881 17.3496C1.38807 16.8042 1.296 16.1866 1.32959 15.6357C1.36271 15.0939 1.52029 14.5537 1.69873 14.0752C1.87907 13.5916 2.10304 13.1148 2.30127 12.7012C2.49802 12.2907 2.65846 11.9608 2.771 11.6836C2.7179 11.6258 2.61391 11.5367 2.42822 11.4209C2.32052 11.3538 2.20637 11.2905 2.08252 11.2217C1.9698 11.159 1.82764 11.08 1.70654 11.0039C1.6098 10.9431 1.4003 10.8099 1.24268 10.6064C1.15552 10.4939 1.02853 10.29 1.00342 10.0078C0.975597 9.69484 1.08484 9.42444 1.23584 9.23145C1.39912 9.02305 1.65192 8.84975 1.81885 8.73926C2.02906 8.60013 2.30191 8.4366 2.62744 8.25195C3.19866 7.92797 3.97316 7.51829 4.94287 7.02148C5.35516 5.17079 6.20661 3.67434 7.55811 2.63086C8.28896 2.06666 9.13582 1.65858 10.0835 1.3916C10.1957 1.33834 10.3178 1.30528 10.4448 1.29688C11.2906 1.09542 12.2118 1.00003 13.1987 1ZM13.1987 3C12.5206 3.00002 11.9065 3.05238 11.3521 3.15137C10.9207 5.35852 10.9984 6.94807 11.436 8.01953C11.5514 8.30173 11.7792 8.5463 12.1685 8.78809C12.5743 9.04007 13.0603 9.2337 13.6343 9.46582C14.1559 9.67675 14.8059 9.93916 15.313 10.3213C15.8704 10.7416 16.3403 11.3712 16.3403 12.2783C16.3403 13.7418 15.475 14.6075 14.9331 15.1426C14.6291 15.4427 14.4712 15.5976 14.3735 15.749C14.3126 15.8436 14.3201 15.8649 14.3286 15.9043C14.4372 16.4046 14.6323 17.0157 14.9194 17.7432C18.5447 16.9367 20.9993 13.6973 20.9995 10.8398C20.9995 9.32526 20.4557 7.33811 19.2036 5.75C17.9796 4.19761 16.0627 3.00003 13.1987 3ZM11.2583 11.5C11.8105 11.5001 12.2583 11.9478 12.2583 12.5C12.2583 13.4953 11.8922 14.3759 11.1978 15.0947C10.6574 15.6538 10.0256 15.9445 9.53564 16.0957C9.05254 16.2447 8.65264 16.2754 8.49951 16.2754C7.94743 16.2752 7.49951 15.8275 7.49951 15.2754C7.49952 14.7233 7.94743 14.2756 8.49951 14.2754C8.46619 14.2754 8.66545 14.271 8.9458 14.1846C9.22091 14.0997 9.52063 13.9518 9.75928 13.7051L9.88037 13.5693C10.1405 13.2502 10.2583 12.9041 10.2583 12.5C10.2583 11.9479 10.7062 11.5002 11.2583 11.5Z" fill="#9E9E9E"/>
</g>
</svg>
