<svg width="24" height="24" viewBox="0 0 24 24" fill="none" xmlns="http://www.w3.org/2000/svg">
<g id="icons/Health/pregnant-women">
<path id="Union" d="M16.5 1C17.0522 1 17.4999 1.44776 17.5 2V5.19238C19.188 6.2398 20.4876 7.47399 21.3408 8.91602C22.2839 10.51 22.645 12.2952 22.4482 14.2314C22.0629 18.0219 20.2387 20.9298 17.0137 22.8584C16.5398 23.1418 15.9251 22.9875 15.6416 22.5137C15.3583 22.0398 15.5126 21.4251 15.9863 21.1416C18.6569 19.5447 20.1351 17.2058 20.458 14.0293C20.6152 12.4823 20.3278 11.1308 19.6201 9.93457C18.9052 8.72632 17.7239 7.61467 16.002 6.62695C15.6915 6.44873 15.5002 6.11774 15.5 5.75977V2C15.5001 1.44776 15.9478 1 16.5 1ZM6.71582 1.01465C7.26 0.920645 7.77703 1.28592 7.87109 1.83008C7.96495 2.37411 7.60061 2.8912 7.05664 2.98535C6.34655 3.10803 5.83999 3.49294 5.49316 4.28125C5.17899 4.99544 4.67717 6.6929 4.24316 8.38867C4.03005 9.22137 3.84017 10.0277 3.7041 10.6748C3.63597 10.9988 3.5825 11.2765 3.54688 11.4941C3.52908 11.6029 3.51664 11.6914 3.50879 11.7598C3.50068 11.8304 3.50004 11.8613 3.5 11.8633C3.49999 11.8067 3.49474 11.9267 3.70996 12.2979C3.90381 12.6321 4.21994 13.0748 4.68555 13.625C4.72231 13.6684 4.76136 13.7113 4.7998 13.7559C4.8356 13.7908 4.86812 13.829 4.89844 13.8691C5.83242 14.9349 7.23008 16.3062 9.17285 17.9551C10.1133 18.7532 10.6922 18.9757 10.9824 18.998C11.0975 19.0069 11.1511 18.984 11.1855 18.9629C11.2311 18.935 11.3139 18.8643 11.4111 18.6914C11.4976 18.5374 11.5006 18.4594 11.5 18.4355C11.4994 18.412 11.4934 18.3618 11.4346 18.2666C11.284 18.023 10.9668 17.7436 10.4082 17.3057C9.4154 16.5273 8.25833 15.5171 7.33984 14.5537C6.88234 14.0738 6.46238 13.5835 6.15039 13.123C5.87213 12.7124 5.55084 12.1451 5.55078 11.5557C5.5508 11.26 5.615 10.9016 5.7002 10.5342C5.78984 10.1477 5.92062 9.67811 6.08887 9.13184C6.42575 8.0381 6.92708 6.59132 7.58789 4.79785C7.77887 4.27972 8.35389 4.01417 8.87207 4.20508C9.39003 4.39614 9.6547 4.97117 9.46387 5.48926C8.80819 7.2688 8.32141 8.67717 8 9.7207C7.83915 10.2429 7.72337 10.6632 7.64844 10.9863C7.57514 11.3024 7.55455 11.4735 7.55176 11.541C7.55451 11.5271 7.57966 11.666 7.80664 12.001C8.03167 12.333 8.36778 12.734 8.78711 13.1738C9.62259 14.0502 10.703 14.9956 11.6416 15.7314C12.1372 16.12 12.7639 16.6133 13.1357 17.2148C13.3378 17.5418 13.4875 17.9333 13.499 18.3848C13.5104 18.8362 13.3816 19.2675 13.1543 19.6719C12.937 20.0584 12.6382 20.4192 12.2275 20.6699C11.8059 20.9273 11.3276 21.0307 10.8281 20.9922C9.88893 20.9197 8.90392 20.3504 7.87891 19.4805C6.98689 18.7234 6.19886 18.0151 5.50781 17.3604C5.75559 18.806 6.07417 20.2563 6.46582 21.7109C6.60924 22.2441 6.29296 22.7929 5.75977 22.9365C5.22657 23.0799 4.67774 22.7637 4.53418 22.2305C3.87415 19.7791 3.41063 17.3337 3.1416 14.8955C2.63971 14.3007 2.24946 13.7663 1.97949 13.3008C1.72803 12.8671 1.50012 12.3603 1.5 11.8633C1.50002 11.5175 1.6138 10.8965 1.74707 10.2627C1.89049 9.58067 2.08748 8.74611 2.30566 7.89355C2.73443 6.21823 3.27268 4.36415 3.66309 3.47656C4.25573 2.12941 5.28801 1.26133 6.71582 1.01465ZM15.667 9.41797C15.9727 8.95819 16.5938 8.83316 17.0537 9.13867C18.009 9.77341 18.6676 10.6359 18.9639 11.7129C19.2178 12.636 19.3056 13.5263 19.1885 14.3682C19.1123 14.9151 18.6075 15.2967 18.0605 15.2207C17.5135 15.1445 17.1319 14.6398 17.208 14.0928C17.2796 13.5781 17.2351 12.9667 17.0361 12.2432C16.8793 11.6733 16.5377 11.1976 15.9463 10.8047C15.4865 10.499 15.3614 9.8779 15.667 9.41797Z" fill="#9E9E9E"/>
</g>
</svg>
