<svg width="24" height="24" viewBox="0 0 24 24" fill="none" xmlns="http://www.w3.org/2000/svg">
<g id="icons/Health/prescription">
<path id="Union" d="M13.5361 2.00098C13.5456 2.00131 13.555 2.00135 13.5645 2.00195C13.8471 2.01665 14.0978 2.14896 14.2705 2.35059L20.6787 8.26562C20.6835 8.27001 20.6877 8.27484 20.6924 8.2793C20.705 8.29143 20.7165 8.3046 20.7285 8.31738C20.7395 8.32904 20.7505 8.34048 20.7607 8.35254C20.7713 8.36489 20.7811 8.37776 20.791 8.39062C20.8003 8.40264 20.8097 8.41442 20.8184 8.42676C20.8284 8.44103 20.8374 8.4559 20.8467 8.4707C20.8559 8.48539 20.8657 8.4996 20.874 8.51465C20.913 8.5847 20.9425 8.66015 20.9639 8.73926C20.9682 8.75522 20.9731 8.77098 20.9766 8.78711C20.9874 8.83696 20.994 8.88811 20.9971 8.94043C20.9978 8.95215 20.9978 8.96385 20.998 8.97559C20.9982 8.98371 21 8.99183 21 9V20C21 21.1046 20.1046 22 19 22H5C3.89544 22 3 21.1046 3 20V4C3 2.89543 3.89543 2 5 2H13.5264C13.5296 2.00008 13.5329 2.00086 13.5361 2.00098ZM5 20H19V10.041H13.5117C13.0533 10.041 12.6679 9.73222 12.5498 9.31152C12.5177 9.21346 12.5 9.10881 12.5 9V4H5V20ZM10 11C10.5523 11 11 11.4477 11 12V14H13C13.5523 14 14 14.4477 14 15C14 15.5523 13.5523 16 13 16H11V18C11 18.5523 10.5523 19 10 19C9.44772 19 9 18.5523 9 18V16H7C6.44772 16 6 15.5523 6 15C6 14.4477 6.44772 14 7 14H9V12C9 11.4477 9.44772 11 10 11ZM14.5117 8H17.4424L14.5117 5.29395V8Z" fill="#9E9E9E"/>
</g>
</svg>
