<svg width="24" height="24" viewBox="0 0 24 24" fill="none" xmlns="http://www.w3.org/2000/svg">
<g id="icons/Health/pure-natural">
<path id="Union" d="M1.85889 1.52148C4.85686 0.634372 7.59816 0.979256 9.96729 2.64648C11.5647 3.77081 12.4901 5.38958 12.8384 7.39648C13.6479 6.34694 14.6673 5.60716 15.9224 5.24414C18.0619 4.62539 20.146 4.86055 22.1196 5.91992L22.5132 6.14258L22.6206 6.2168C22.8576 6.40401 22.9992 6.69141 23.0005 6.99805C23.0057 8.36939 22.7093 9.61307 22.0718 10.6895C21.4336 11.7666 20.487 12.6188 19.2856 13.2598C17.1178 14.4161 14.8516 14.3067 12.5923 13.1162C12.3886 14.5121 12.2968 16.1536 12.3247 18.0479C14.1171 18.0938 16.2604 18.4278 18.7358 19.0283C19.2721 19.1586 19.6017 19.699 19.4722 20.2354C19.342 20.7718 18.8016 21.1014 18.2651 20.9717C15.9159 20.4017 13.9639 20.1022 12.394 20.0498C12.4257 20.6512 12.4676 21.2742 12.52 21.9189C12.5647 22.4693 12.1542 22.9521 11.604 22.9971C11.0536 23.0417 10.5716 22.6314 10.5269 22.0811C10.4726 21.4133 10.429 20.7645 10.396 20.1348C8.99246 20.3095 7.49326 20.7322 5.89502 21.4189C5.38767 21.6368 4.79955 21.4019 4.58154 20.8945C4.3639 20.3872 4.59872 19.799 5.10596 19.5811C6.90791 18.8068 8.64966 18.3177 10.3267 18.1299C10.2922 15.9551 10.405 14.0439 10.6772 12.4053C7.98343 12.9328 5.60835 12.4324 3.68408 10.7529C1.40775 8.76607 0.640932 5.87513 1.15283 2.33691L1.18408 2.19531C1.27957 1.87437 1.53163 1.61837 1.85889 1.52148ZM20.9751 7.58105C19.508 6.84828 18.0246 6.71781 16.478 7.16504C15.0878 7.56716 13.9345 8.76467 13.1714 11.1475C15.0976 12.2853 16.7788 12.3301 18.3442 11.4951C19.2752 10.9984 19.9278 10.3843 20.3511 9.66992C20.6961 9.08719 20.9091 8.39729 20.9751 7.58105ZM8.81592 4.28125C7.16571 3.12007 5.27432 2.76231 3.05518 3.27441C2.7918 6.0156 3.5005 7.93777 4.99951 9.24609C6.49128 10.5481 8.42097 10.9597 10.9644 10.2861C11.1854 7.27037 10.3742 5.37795 8.81592 4.28125Z" fill="#9E9E9E"/>
</g>
</svg>
