<svg width="24" height="24" viewBox="0 0 24 24" fill="none" xmlns="http://www.w3.org/2000/svg">
<g id="icons/Health/red-cross">
<path id="Union" d="M12 1C18.0751 1 23 5.92487 23 12C23 18.0751 18.0751 23 12 23C5.92487 23 1 18.0751 1 12C1 5.92487 5.92487 1 12 1ZM12 3C7.02944 3 3 7.02944 3 12C3 16.9706 7.02944 21 12 21C16.9706 21 21 16.9706 21 12C21 7.02944 16.9706 3 12 3ZM13.5 5C14.0523 5 14.5 5.44772 14.5 6V9.5H18C18.5523 9.5 19 9.94771 19 10.5V13.5C19 14.0523 18.5523 14.5 18 14.5H14.5V18C14.5 18.5523 14.0523 19 13.5 19H10.5C9.94771 19 9.5 18.5523 9.5 18V14.5H6C5.44772 14.5 5 14.0523 5 13.5V10.5C5 9.94771 5.44772 9.5 6 9.5H9.5V6C9.5 5.44772 9.94771 5 10.5 5H13.5ZM11.5 10.5C11.5 11.0523 11.0523 11.5 10.5 11.5H7V12.5H10.5C11.0523 12.5 11.5 12.9477 11.5 13.5V17H12.5V13.5C12.5 12.9477 12.9477 12.5 13.5 12.5H17V11.5H13.5C12.9477 11.5 12.5 11.0523 12.5 10.5V7H11.5V10.5Z" fill="#9E9E9E"/>
</g>
</svg>
