<svg width="24" height="24" viewBox="0 0 24 24" fill="none" xmlns="http://www.w3.org/2000/svg">
<g id="icons/Health/renal">
<path id="Union" d="M12.5144 0.956055C15.4364 0.956055 17.8604 2.45441 19.4685 4.87598C21.0631 7.2774 21.861 10.5787 21.6736 14.3115C21.4764 18.2388 19.5193 20.6226 17.0994 21.6553C14.772 22.6482 12.0382 22.3653 10.3386 21.0586C9.23111 20.207 8.53306 19.0818 8.28101 17.7188C8.25094 17.5562 8.22697 17.391 8.20972 17.2236C8.12018 18.4064 8.34316 19.8816 8.948 21.6807C9.12394 22.204 8.84226 22.7711 8.31909 22.9473C7.7957 23.1231 7.2285 22.8417 7.05249 22.3184C6.29349 20.0608 6.00879 18.0472 6.30737 16.3281C6.46089 15.4447 6.7865 14.6574 7.32007 14.0117C7.85601 13.3632 8.56054 12.9079 9.3894 12.627C9.74837 12.5053 10.1456 12.5964 10.4148 12.8633C10.6839 13.1302 10.7786 13.5267 10.6599 13.8867C10.1886 15.3162 10.0823 16.4589 10.2478 17.3545C10.4082 18.2221 10.8334 18.917 11.5574 19.4736C12.6051 20.2791 14.5557 20.5662 16.3152 19.8154C17.9823 19.1039 19.5149 17.4291 19.6765 14.2109C19.8478 10.7981 19.107 7.9471 17.8025 5.98242C16.5112 4.03797 14.6746 2.95605 12.5144 2.95605C10.3882 2.9563 9.36987 4.05859 9.10913 5.16797C8.83428 6.33829 9.33652 7.7177 10.7146 8.43652C11.0878 8.63116 11.2997 9.03886 11.2439 9.45605C11.188 9.87314 10.8767 10.2111 10.4656 10.3008C7.48091 10.9514 5.83594 12.2238 5.1521 13.9434C4.40136 15.8314 4.30392 18.4189 5.00366 21.7969C5.11563 22.3376 4.7679 22.8664 4.22729 22.9785C3.68658 23.0904 3.15669 22.7429 3.04468 22.2021C2.30528 18.6324 2.33997 15.6024 3.2937 13.2041C4.11027 11.1508 5.79433 9.74221 8.14917 8.88672C7.1674 7.68863 6.82685 6.1374 7.16187 4.71094C7.65681 2.60382 9.5595 0.956317 12.5144 0.956055ZM14.2556 11.9453C14.9735 11.8573 15.8443 11.9403 16.823 12.1396C17.3641 12.2499 17.7134 12.7782 17.6033 13.3193C17.493 13.8605 16.9647 14.2099 16.4236 14.0996C15.5326 13.9181 14.9053 13.8808 14.4988 13.9307C14.4205 13.9403 14.3568 13.9524 14.3054 13.9648C14.4003 14.0687 14.5357 14.1956 14.7185 14.333C15.3121 14.7792 16.0276 15.0927 16.2859 15.1436C16.8276 15.2502 17.1805 15.7765 17.074 16.3184C16.9674 16.86 16.4418 17.2127 15.9001 17.1064C15.2507 16.9787 14.2591 16.49 13.5164 15.9316C13.1392 15.6481 12.7382 15.2822 12.4744 14.8525C12.2053 14.4143 11.9848 13.7257 12.3835 13.0342L12.4646 12.9053C12.8888 12.2843 13.586 12.0275 14.2556 11.9453ZM14.7878 6.64062C15.2621 6.35817 15.8762 6.51412 16.1589 6.98828C16.4414 7.46261 16.2855 8.07665 15.8113 8.35938C15.131 8.76501 14.7905 9.08544 14.6521 9.29395C14.6221 9.33913 14.6073 9.37051 14.6003 9.38867C14.6036 9.3944 14.606 9.39905 14.6082 9.40234C14.6223 9.40596 14.652 9.41209 14.7019 9.41211C14.9187 9.41198 15.3282 9.31569 15.9822 8.98242C16.4742 8.73165 17.0771 8.92696 17.3279 9.41895C17.5785 9.91097 17.3824 10.5129 16.8904 10.7637C16.136 11.1481 15.389 11.412 14.7019 11.4121C13.9313 11.412 13.2465 11.0722 12.8503 10.3584C12.6631 10.021 12.5686 9.64015 12.6023 9.2373C12.6353 8.84354 12.785 8.49052 12.9861 8.1875C13.3727 7.60524 14.0201 7.09835 14.7878 6.64062Z" fill="#9E9E9E"/>
</g>
</svg>
