<svg width="24" height="24" viewBox="0 0 24 24" fill="none" xmlns="http://www.w3.org/2000/svg">
<g id="icons/Health/safe-retrieval">
<path id="Union" d="M11.8584 1.01074C12.0033 0.989406 12.1516 1.00032 12.293 1.04297L20.7891 3.60645C21.2111 3.7339 21.4999 4.12263 21.5 4.56348V9.82129L21.4893 10.376C21.4607 11.1124 21.3762 11.8375 21.2383 12.5459C21.2038 12.7231 21.1651 12.8992 21.124 13.0742C20.0565 17.6233 16.7915 21.4086 12.3271 22.9453C12.1163 23.0179 11.8866 23.0179 11.6758 22.9453C6.17965 21.0541 2.50006 15.7553 2.5 9.81836V4.56348C2.5001 4.12262 2.78893 3.7339 3.21094 3.60645L11.7158 1.04297L11.8584 1.01074ZM4.5 5.30664V9.81836C4.50006 14.8155 7.52289 19.2372 12.001 20.9346C13.6395 20.3134 15.081 19.3254 16.2529 18.0801L14.0459 15.5068C13.4319 15.821 12.7371 16 12 16C9.51476 16 7.50007 13.9852 7.5 11.5C7.5 9.01472 9.51472 7 12 7C14.4853 7 16.5 9.01472 16.5 11.5C16.5 12.5245 16.1566 13.4682 15.5801 14.2246L17.5156 16.4824C18.7765 14.5664 19.5 12.2631 19.5 9.82129V5.30664L12.0029 3.04395L4.5 5.30664ZM12 9C10.6193 9 9.5 10.1193 9.5 11.5C9.50007 12.8807 10.6193 14 12 14C13.3807 14 14.4999 12.8807 14.5 11.5C14.5 10.1193 13.3807 9 12 9Z" fill="#9E9E9E"/>
</g>
</svg>
