<svg width="24" height="24" viewBox="0 0 24 24" fill="none" xmlns="http://www.w3.org/2000/svg">
<g id="icons/Health/stethoscope">
<path id="Union" d="M10.9736 1C11.5259 1 11.9736 1.44772 11.9736 2V2.5H14L14.1025 2.50488C14.6067 2.55621 15 2.98232 15 3.5V10.5C15 13.2491 12.9837 16.4264 9.08691 16.9287C9.52231 19.2463 11.556 21 14 21C16.7614 21 19 18.7614 19 16V12.3252C17.8355 11.913 17 10.8057 17 9.5C17 7.84317 18.3432 6.5 20 6.5C21.6568 6.5 23 7.84317 23 9.5C23 10.8057 22.1645 11.913 21 12.3252V16C21 19.866 17.866 23 14 23C10.4554 23 7.52793 20.3651 7.06543 16.9473C3.06876 16.5093 1 13.2848 1 10.5V3.5C1 2.94772 1.44772 2.5 2 2.5H4.02637V2C4.02637 1.44772 4.47408 1 5.02637 1C5.57862 1.00004 6.02637 1.44774 6.02637 2V2.5H9.97363V2C9.97363 1.44774 10.4214 1.00004 10.9736 1ZM3 10.5C3 12.5057 4.60853 15 8 15C11.3915 15 13 12.5057 13 10.5V4.5H11.9736V5C11.9736 5.55228 11.5259 6 10.9736 6C10.4214 5.99996 9.97363 5.55226 9.97363 5V4.5H6.02637V5C6.02637 5.55226 5.57862 5.99996 5.02637 6C4.47408 6 4.02637 5.55228 4.02637 5V4.5H3V10.5ZM20 8.5C19.4477 8.5 19 8.94773 19 9.5C19 10.0523 19.4477 10.5 20 10.5C20.5523 10.5 21 10.0523 21 9.5C21 8.94773 20.5523 8.5 20 8.5Z" fill="#9E9E9E"/>
</g>
</svg>
