<svg width="24" height="24" viewBox="0 0 24 24" fill="none" xmlns="http://www.w3.org/2000/svg">
<g id="icons/Health/swallow">
<path id="Union" d="M14.519 1C15.8868 1 16.8906 1.92482 17.4595 2.60547C17.7569 2.96144 17.9877 3.31263 18.145 3.57617C18.1475 3.57654 18.1504 3.57768 18.1528 3.57812C18.4846 3.62755 18.9826 3.70194 19.646 3.80078C20.1607 3.87753 20.5308 4.33617 20.4966 4.85547C20.4624 5.37472 20.0354 5.7814 19.5151 5.79004C18.5608 5.80568 17.8895 5.90987 17.4536 6.06152C17.0164 6.21377 16.9527 6.3613 16.9468 6.37598C16.9416 6.38852 16.9216 6.43091 16.9692 6.5791C17.026 6.75536 17.1443 6.97559 17.3433 7.30078C17.6907 7.86845 18.327 8.78225 18.4956 9.8457C18.6658 10.92 18.4056 12.2333 17.7993 13.4385C17.1837 14.6619 16.1701 15.8581 14.728 16.6582C12.9846 17.6253 10.9075 17.9027 8.56494 17.5928L5.85303 22.4854C5.58517 22.9679 4.97644 23.1424 4.49365 22.875C4.01098 22.6071 3.83638 21.9975 4.104 21.5146L7.15381 16.0146L7.24072 15.8828C7.46602 15.5952 7.83561 15.4502 8.20361 15.5156C10.536 15.9315 12.3577 15.6861 13.7583 14.9092C14.8048 14.3285 15.554 13.4518 16.0132 12.5391C16.4815 11.608 16.6091 10.7203 16.52 10.1582C16.4291 9.58538 16.0862 9.07843 15.6372 8.34473C15.4382 8.01951 15.2034 7.61842 15.0659 7.19141C14.9201 6.73838 14.8629 6.19254 15.0933 5.62402C15.3272 5.04715 15.7727 4.65352 16.2896 4.3877C16.1875 4.23235 16.0673 4.05767 15.9253 3.8877C15.4524 3.32194 14.9612 3 14.519 3C14.0506 3.00007 13.7245 3.09439 13.4946 3.22949C13.2716 3.36071 13.0763 3.56652 12.9204 3.89746C12.9094 3.92089 12.8971 3.9443 12.8843 3.9668L5.36768 17.1523C5.09409 17.6319 4.48311 17.7988 4.00342 17.5254C3.52395 17.2518 3.35607 16.6408 3.62939 16.1611L11.147 2.97559C11.4522 2.35803 11.8932 1.85202 12.4819 1.50586C13.0862 1.15075 13.7813 1.00007 14.519 1ZM12.5151 8.05078C13.0159 7.93227 13.5833 7.96304 14.0942 8.1875C14.6241 8.42051 15.0891 8.86389 15.3042 9.51953C15.5131 10.1567 15.4494 10.8795 15.1733 11.6357C14.3731 13.8273 12.2845 14.8289 9.52881 14.9883C9.16511 15.0091 8.81837 14.83 8.62451 14.5215C8.43078 14.213 8.42059 13.8235 8.59717 13.5049C9.88361 11.1855 10.7423 9.67097 11.1626 8.9873C11.4877 8.45852 12.0196 8.16817 12.5151 8.05078ZM12.9761 9.99707C12.8724 10.0217 12.8507 10.0578 12.8608 10.0439C12.582 10.4983 12.0836 11.3659 11.3608 12.6543C12.4406 12.2966 13.0225 11.6946 13.2944 10.9502C13.4699 10.4696 13.4312 10.2262 13.4038 10.1426C13.3826 10.0783 13.3506 10.0455 13.2896 10.0186C13.209 9.98328 13.0894 9.97031 12.9761 9.99707Z" fill="#9E9E9E"/>
</g>
</svg>
