<svg width="24" height="24" viewBox="0 0 24 24" fill="none" xmlns="http://www.w3.org/2000/svg">
<g id="icons/Health/teeth">
<path id="Union" d="M7.14722 1.51074C8.50358 1.71128 9.38367 2.20946 10.0828 2.58105C10.759 2.9405 11.2421 3.16886 11.9998 3.16895C12.7577 3.16895 13.2412 2.94062 13.9177 2.58105C14.6167 2.2095 15.4961 1.71135 16.8523 1.51074L16.9255 1.5H17.2498C20.4254 1.5 22.9998 4.07436 22.9998 7.25V7.5625C22.9998 8.58736 22.4685 9.58481 22.0427 10.3457C21.559 11.2101 21.1466 11.8772 20.9607 12.5195C20.4826 14.1709 20.1772 15.4495 20.0876 16.7646C19.9682 18.5194 19.6036 19.8935 19.0271 20.8623C18.4422 21.8452 17.5694 22.5 16.4998 22.5C15.9168 22.4999 15.4593 22.2019 15.1462 21.9121C14.8273 21.6169 14.5536 21.2351 14.3191 20.8477C13.8486 20.0704 13.4169 19.0672 13.0369 18.1328C12.6448 17.1688 12.3108 16.2903 12.0017 15.6182C11.999 15.6236 11.9967 15.6293 11.9939 15.6348C11.6546 16.3032 11.2772 17.1975 10.8572 18.1572C10.4501 19.0873 10.0037 20.0772 9.55347 20.8389C9.32987 21.2171 9.07696 21.5887 8.79565 21.877C8.54125 22.1376 8.09983 22.5 7.49976 22.5C7.17241 22.5 6.77052 22.4511 6.35327 22.252C5.93199 22.0507 5.55734 21.7259 5.23999 21.2686C4.63051 20.3899 4.20435 18.9822 3.97827 16.7998C3.81246 15.1995 3.53913 14.2445 3.03979 12.5195C2.85522 11.882 2.4502 11.1831 1.97437 10.2568C1.54463 9.42034 1.05004 8.3805 1.00073 7.32227C0.857919 4.25315 3.23052 1.64893 6.29956 1.50586C6.38558 1.50186 6.47227 1.50002 6.55835 1.5H7.07495L7.14722 1.51074ZM6.39233 3.50391C4.42676 3.59574 2.90731 5.26383 2.99878 7.22949C3.0255 7.80098 3.3116 8.48415 3.75269 9.34277C4.14785 10.112 4.70538 11.0819 4.96069 11.9639C5.46212 13.6961 5.78172 14.8004 5.96753 16.5938C6.18325 18.6762 6.56607 19.6714 6.88257 20.1279C7.02791 20.3375 7.14605 20.4145 7.2146 20.4473C7.25487 20.4665 7.29997 20.4795 7.35327 20.4883C7.35636 20.4852 7.36069 20.4828 7.36401 20.4795C7.48222 20.3584 7.6405 20.1449 7.83179 19.8213C8.21133 19.1792 8.61303 18.297 9.02515 17.3555C9.42432 16.4434 9.83741 15.4649 10.2107 14.7295C10.3961 14.3642 10.5977 14.0067 10.8093 13.7285C10.9146 13.5902 11.0505 13.4342 11.2185 13.3047C11.3799 13.1804 11.6595 13.0128 12.031 13.0127L12.1677 13.0205C12.4765 13.0551 12.7109 13.2006 12.8552 13.3164C13.0238 13.4517 13.1556 13.6143 13.2556 13.7549C13.4565 14.0376 13.642 14.3991 13.8103 14.7637C14.1471 15.4933 14.5234 16.48 14.8894 17.3799C15.2706 18.317 15.6508 19.186 16.03 19.8125C16.2203 20.1267 16.3813 20.3301 16.5046 20.4443C16.5308 20.4685 16.554 20.482 16.5691 20.4932C16.7362 20.4688 17.0085 20.3454 17.3093 19.8398C17.6649 19.2423 17.9836 18.2143 18.0916 16.6289C18.1961 15.0926 18.5527 13.6465 19.0398 11.9639C19.3082 11.0365 19.895 10.0886 20.2976 9.36914C20.7581 8.54623 20.9998 7.98889 20.9998 7.5625V7.25C20.9998 5.17893 19.3208 3.5 17.2498 3.5H17.0847C16.1436 3.64919 15.55 3.97789 14.8562 4.34668C14.125 4.73533 13.2747 5.16895 11.9998 5.16895C10.7249 5.16885 9.87449 4.73532 9.14331 4.34668C8.44971 3.97801 7.85635 3.64916 6.91577 3.5H6.55835C6.50315 3.50001 6.44739 3.50135 6.39233 3.50391ZM15.6931 5.2793C16.2187 5.10988 16.7824 5.39923 16.9519 5.9248C17.1212 6.45038 16.832 7.01415 16.3064 7.18359L15.1287 7.5625L16.3064 7.94238C16.832 8.11185 17.1214 8.67553 16.9519 9.20117C16.7823 9.72665 16.2187 10.0151 15.6931 9.8457L11.8699 8.61328L8.04761 9.8457C7.52209 10.0149 6.95826 9.72666 6.78882 9.20117C6.61943 8.67563 6.90886 8.11193 7.43433 7.94238L8.61108 7.5625L7.43433 7.18359C6.90896 7.01408 6.61964 6.45026 6.78882 5.9248C6.95822 5.39934 7.52212 5.1102 8.04761 5.2793L11.8699 6.51172L15.6931 5.2793Z" fill="#9E9E9E"/>
</g>
</svg>
