<svg width="24" height="24" viewBox="0 0 24 24" fill="none" xmlns="http://www.w3.org/2000/svg">
<g id="icons/Health/thermometer-one">
<path id="Union" d="M12 1C12.6738 1 13.2632 1.17163 13.7422 1.51758C14.2147 1.85897 14.503 2.31458 14.6787 2.75391C15.0119 3.58721 15 4.53405 15 5V12.8926C16.5029 13.8731 17.5 15.5685 17.5 17.5C17.5 20.5376 15.0376 23 12 23C8.96242 23 6.5 20.5376 6.5 17.5C6.5 15.5685 7.4971 13.8731 9 12.8926V5C9 4.53405 8.98807 3.58721 9.32129 2.75391C9.49702 2.31458 9.78529 1.85897 10.2578 1.51758C10.7368 1.17163 11.3262 1 12 1ZM12 3C11.6742 3 11.5133 3.0784 11.4297 3.13867C11.34 3.20346 11.2529 3.31074 11.1787 3.49609C11.0121 3.91271 11 4.46602 11 5V13.4678C11 13.8473 10.7852 14.1943 10.4453 14.3633C9.29045 14.9372 8.5 16.1273 8.5 17.5C8.5 19.433 10.067 21 12 21C13.933 21 15.5 19.433 15.5 17.5C15.5 16.1273 14.7095 14.9372 13.5547 14.3633C13.2148 14.1943 13 13.8473 13 13.4678V5C13 4.46602 12.9879 3.91271 12.8213 3.49609C12.7471 3.31074 12.66 3.20346 12.5703 3.13867C12.4867 3.0784 12.3258 3 12 3Z" fill="#9E9E9E"/>
</g>
</svg>
