<svg width="24" height="24" viewBox="0 0 24 24" fill="none" xmlns="http://www.w3.org/2000/svg">
<g id="icons/Health/toxins">
<path id="Union" d="M12.5 1C18.299 1 23 5.70101 23 11.5C23 14.3992 21.8239 17.0257 19.9248 18.9248C19.4397 19.4099 18.9065 19.8482 18.334 20.2314C18.2182 20.309 18.0994 20.3821 17.9805 20.4551C17.9808 20.6575 17.9841 20.8798 17.9834 21.0869C17.9826 21.329 17.9814 21.5593 17.9805 21.7285C17.98 21.8129 17.9798 21.8823 17.9795 21.9307C17.9793 21.9549 17.9796 21.9744 17.9795 21.9873C17.9794 21.9937 17.9785 21.9986 17.9785 22.002V22.0068C17.9749 22.5219 17.5828 22.9442 17.0811 22.9951L16.9785 23H8.00195C7.44977 22.9999 7.00196 22.5522 7.00195 22V20.4492C6.88632 20.3758 6.7745 20.3031 6.66602 20.2305V20.2314C6.09346 19.8482 5.5603 19.4099 5.0752 18.9248C3.17617 17.0257 2.00001 14.3992 2 11.5C2 5.70101 6.70102 1 12.5 1ZM12.5 3C7.80558 3 4 6.80559 4 11.5C4.00001 13.8475 4.94996 15.9714 6.48926 17.5107C6.78426 17.8057 7.10107 18.0789 7.43652 18.3281L7.77832 18.5693L8.13477 18.8008C8.24848 18.8716 8.35971 18.9365 8.47461 18.998C8.79953 19.1721 9.0019 19.5113 9.00195 19.8799V21H15.9834C15.9847 20.5354 15.9846 20.0732 15.9795 19.9121C15.9674 19.5322 16.1719 19.1785 16.5068 18.999C16.7527 18.8673 16.9912 18.7237 17.2217 18.5693L17.5635 18.3281C17.8989 18.0789 18.2157 17.8057 18.5107 17.5107C20.0501 15.9714 21 13.8475 21 11.5C21 6.80559 17.1944 3 12.5 3ZM11.8291 14.7314C12.2136 14.4106 12.7848 14.4221 13.1562 14.7734L14.6875 16.2217C15.0885 16.6012 15.106 17.2346 14.7266 17.6357C14.347 18.0368 13.7137 18.0543 13.3125 17.6748L12.4951 16.9014L11.7148 17.6992C11.3286 18.0937 10.6954 18.1008 10.3008 17.7148C9.90634 17.3286 9.89916 16.6954 10.2852 16.3008L11.7549 14.8008L11.8291 14.7314ZM9.09863 8.50488C9.32763 8.52757 9.54289 8.62883 9.70703 8.79297L11.707 10.793C11.8946 10.9805 12 11.2348 12 11.5C12 13.1569 10.6568 14.5 9 14.5C7.34318 14.5 6 13.1569 6 11.5C6 9.84317 7.34317 8.5 9 8.5L9.09863 8.50488ZM16 8.5C17.6568 8.5 19 9.84317 19 11.5C19 13.1569 17.6568 14.5 16 14.5C14.3432 14.5 13 13.1569 13 11.5L13.0049 11.4014C13.0276 11.1724 13.1288 10.9571 13.293 10.793L15.293 8.79297L15.3662 8.72656C15.5442 8.58073 15.7679 8.5 16 8.5ZM8.64941 10.5635C8.27011 10.7055 8 11.0711 8 11.5C8 12.0523 8.44772 12.5 9 12.5C9.4291 12.5 9.79363 12.2292 9.93555 11.8496L8.64941 10.5635ZM15.0635 11.8496C15.2053 12.2294 15.5708 12.5 16 12.5C16.5523 12.5 17 12.0523 17 11.5C17 11.0708 16.7294 10.7053 16.3496 10.5635L15.0635 11.8496Z" fill="#9E9E9E"/>
</g>
</svg>
