<svg width="24" height="24" viewBox="0 0 24 24" fill="none" xmlns="http://www.w3.org/2000/svg">
<g id="icons/Health/traditional-chinese-medicine">
<path id="Union" d="M16.7158 1.16309C17.4388 0.92135 18.2053 0.998295 18.8838 1.28809C20.3893 1.93131 21.0229 3.75254 20.3555 5.1084C20.1454 5.53505 19.5157 6.83199 18.4629 9H22C22.5521 9 22.9998 9.44791 23 10C23 14.5694 20.161 18.4708 16.1494 20.0908C16.1426 20.1121 16.1329 20.1373 16.125 20.167C16.054 20.4334 15.9974 20.8748 15.9775 21.5303C15.9612 22.0705 15.518 22.5 14.9775 22.5H9.02832C8.5268 22.5 8.10298 22.128 8.03711 21.6309C7.9473 20.9532 7.84042 20.4851 7.73438 20.1914C7.70353 20.106 7.67581 20.0476 7.65625 20.0098C3.74804 18.3438 1 14.4953 1 10C1.00023 9.44791 1.44786 9 2 9H11.9863C13.6949 5.47313 14.7038 3.38516 15.0146 2.73047C15.382 1.95694 15.9789 1.40962 16.7158 1.16309ZM3.05664 11C3.42657 14.2667 5.58738 17.0052 8.55762 18.2217C8.88614 18.3563 9.11152 18.5927 9.26172 18.8057C9.41324 19.0206 9.52746 19.266 9.61621 19.5117C9.71884 19.7959 9.80242 20.1286 9.87598 20.5H14.043C14.078 20.1859 14.1259 19.9007 14.1924 19.6514C14.2572 19.4084 14.3505 19.1543 14.4932 18.9277C14.6373 18.6992 14.8692 18.4425 15.2246 18.3076L15.5391 18.1816C18.4593 16.946 20.5774 14.2314 20.9434 11H16.9297C16.884 11.0031 16.8381 11.0033 16.792 11H12.7686C12.6624 11.0174 12.553 11.018 12.4443 11H3.05664ZM6.93164 12.5547C7.45998 12.3948 8.01843 12.6935 8.17871 13.2217C8.33278 13.7306 8.52361 14.1056 8.72949 14.375L8.91309 14.5977C9.10842 14.8181 9.34003 15.0325 9.61133 15.2393C10.0504 15.5738 10.135 16.2014 9.80078 16.6406C9.46609 17.0799 8.83871 17.1647 8.39941 16.8301C7.91282 16.4593 7.4899 16.0467 7.14062 15.5898C6.75531 15.0858 6.47002 14.48 6.26465 13.8018C6.10491 13.2734 6.40335 12.7148 6.93164 12.5547ZM18.0977 3.12793C17.7941 2.99834 17.5367 2.99842 17.3506 3.06055C17.1783 3.11819 16.9785 3.25693 16.8213 3.58789C16.5334 4.19412 15.6617 5.99983 14.209 9H16.2393C17.5472 6.30578 18.3216 4.71187 18.5615 4.22461C18.7181 3.90554 18.5567 3.32406 18.0977 3.12793Z" fill="#9E9E9E"/>
</g>
</svg>
