<svg width="24" height="24" viewBox="0 0 24 24" fill="none" xmlns="http://www.w3.org/2000/svg">
<g id="icons/Health/uterus">
<path id="Union" d="M12.25 2C13.319 2.00005 14.2346 2.21425 14.9854 2.65137C15.744 3.09321 16.27 3.72596 16.6094 4.45117C16.6487 4.53522 16.6853 4.62062 16.7197 4.70703C16.9168 4.60933 17.1222 4.52562 17.3389 4.45801C18.0019 4.25116 18.7077 4.2057 19.4824 4.25391C20.7921 4.33543 21.7754 4.85805 22.3604 5.84766C22.8873 6.73925 23 7.87249 23 8.97852C22.9999 10.1525 22.7793 11.3781 22.2441 12.292C21.9714 12.7578 21.5866 13.1924 21.0576 13.458C20.5097 13.733 19.8953 13.7818 19.2695 13.6133C18.6875 13.4564 18.2033 13.163 17.8555 12.7422C17.5101 12.3242 17.3456 11.8376 17.3047 11.3691C17.2262 10.4686 17.5909 9.55106 18.1543 8.9502C18.8376 8.22143 19.8719 7.75851 20.917 7.74512C20.8564 7.36536 20.7643 7.07782 20.6387 6.86523C20.4602 6.56325 20.1541 6.29957 19.3584 6.25C18.7293 6.21086 18.287 6.25725 17.9346 6.36719C17.6618 6.45232 17.406 6.58737 17.1367 6.80371C17.173 7.5908 17.1049 8.39445 16.9883 9.15234C16.751 10.6949 16.3534 12.2728 15.667 13.4912C15.614 13.5852 15.5577 13.6773 15.5 13.7686V21.5C15.5 22.0523 15.0523 22.5 14.5 22.5C13.9477 22.5 13.5 22.0523 13.5 21.5V15.5205C13.1229 15.6652 12.708 15.75 12.25 15.75C11.8015 15.75 11.3848 15.6725 11 15.5273V21.5C11 22.0523 10.5523 22.5 10 22.5C9.44771 22.5 9 22.0523 9 21.5V13.6865C8.97822 13.6484 8.95559 13.6108 8.93457 13.5723C8.29595 12.4014 7.89565 10.829 7.52539 9.22461C7.31617 8.31793 7.20368 7.39191 7.25 6.5127C6.74686 6.23341 6.11116 6.18159 5.11133 6.25C4.41128 6.29797 3.91731 6.57682 3.58398 6.99316C3.42059 7.19732 3.28215 7.45366 3.18066 7.7627C3.46932 7.76514 3.75284 7.79228 4.01562 7.83789C4.80148 7.97432 5.72481 8.32118 6.29199 8.98633C6.80844 9.59206 7.12647 10.4945 7.05762 11.3623C7.02188 11.8125 6.8785 12.2893 6.56445 12.707C6.2448 13.1322 5.78977 13.4411 5.22852 13.6074C3.93476 13.9907 2.81157 13.2899 2.125 12.417C1.42747 11.5301 1.00008 10.2856 1 9.00098C1 7.75617 1.32609 6.61317 2.02246 5.74316C2.73204 4.85688 3.76074 4.33798 4.97559 4.25488C5.87149 4.1936 6.81215 4.18789 7.70312 4.52441C7.73355 4.45712 7.76408 4.38991 7.79785 4.32422C8.57445 2.81416 10.104 2 12.25 2ZM12.25 4C10.6461 4 9.9246 4.56091 9.57617 5.23828C9.1736 6.02105 9.11903 7.23877 9.47363 8.77539C9.85335 10.4208 10.2041 11.7236 10.6904 12.6152C10.9261 13.0471 11.1649 13.3252 11.4023 13.4951C11.6247 13.6542 11.8884 13.75 12.25 13.75C12.8759 13.7499 13.4225 13.3987 13.9238 12.5088C14.4344 11.6023 14.7875 10.3049 15.0117 8.84766C15.2342 7.40159 15.195 6.14758 14.7979 5.29883C14.6108 4.89926 14.3474 4.59423 13.9795 4.37988C13.6036 4.16098 13.0555 4.00005 12.25 4ZM20.957 9.74512C20.4872 9.74553 19.9651 9.94316 19.6133 10.3184C19.4076 10.5379 19.2727 10.9052 19.2979 11.1953C19.3089 11.3222 19.3475 11.4083 19.3975 11.4688C19.4452 11.5263 19.5501 11.618 19.79 11.6826C19.9863 11.7354 20.0918 11.7057 20.1611 11.6709C20.2496 11.6264 20.3794 11.5188 20.5186 11.2812C20.7282 10.923 20.8857 10.387 20.957 9.74512ZM3.07812 9.76172C3.19082 10.3261 3.4175 10.825 3.69727 11.1807C4.10873 11.7037 4.4581 11.7493 4.66016 11.6895C4.84657 11.6342 4.92589 11.558 4.96582 11.5049C5.01137 11.4443 5.05293 11.3492 5.06445 11.2041C5.09008 10.8811 4.95364 10.498 4.77051 10.2832C4.63793 10.1279 4.25074 9.90878 3.67383 9.80859C3.4533 9.77031 3.25206 9.75747 3.07812 9.76172Z" fill="#9E9E9E"/>
</g>
</svg>
