<svg width="24" height="24" viewBox="0 0 24 24" fill="none" xmlns="http://www.w3.org/2000/svg">
<g id="icons/Health/waistline">
<path id="Union" d="M18.1295 2.00781C18.4016 1.52727 19.0122 1.35794 19.4928 1.62988C19.973 1.90202 20.1416 2.51174 19.8698 2.99219C18.9753 4.57214 17.5132 7.88408 17.4996 11.0039C17.4957 11.9284 17.643 12.8336 17.942 13.6699C18.153 14.2601 18.3928 14.7954 18.6471 15.335C18.8957 15.8624 19.1732 16.4261 19.4235 17.0068C19.9407 18.2071 20.375 19.557 20.4977 21.4346C20.5337 21.9856 20.1161 22.462 19.5651 22.498C19.0142 22.5339 18.5377 22.1163 18.5016 21.5654C18.397 19.9643 18.0361 18.8387 17.5875 17.7979C17.4295 17.4312 17.2646 17.0834 17.0905 16.7188C14.9475 17.4422 12.7359 17.5835 10.8571 17.46C9.28875 17.3568 7.89005 17.0651 6.901 16.7344C6.72966 17.0932 6.56747 17.4365 6.41174 17.7979C5.96324 18.8387 5.60226 19.9644 5.49768 21.5654C5.46153 22.1164 4.98522 22.534 4.4342 22.498C3.88342 22.4617 3.46563 21.9854 3.50159 21.4346C3.62426 19.5571 4.05861 18.2071 4.57581 17.0068C4.82609 16.426 5.10447 15.8625 5.35315 15.335C5.60748 14.7955 5.84721 14.2601 6.05823 13.6699C6.35716 12.8337 6.50362 11.9283 6.49963 11.0039C6.48609 7.88399 5.02397 4.57209 4.12952 2.99219C3.85786 2.51176 4.02723 1.90198 4.50745 1.62988C4.98796 1.35807 5.59768 1.52742 5.86975 2.00781C6.83109 3.70595 8.48405 7.37385 8.49963 10.9961C8.5045 12.1359 8.32383 13.2732 7.94104 14.3438C7.87291 14.5343 7.80187 14.7184 7.7301 14.8975C8.50416 15.135 9.64433 15.3755 10.9879 15.4639C12.629 15.5717 14.4908 15.4498 16.2643 14.8848C16.1943 14.7097 16.1247 14.5298 16.0582 14.3438C15.6755 13.2732 15.4948 12.1359 15.4996 10.9961C15.5152 7.37398 17.1682 3.70603 18.1295 2.00781ZM3.55237 8.10547C4.0463 7.8585 4.64713 8.05885 4.89417 8.55273V8.55371L4.89514 8.55469L4.89612 8.55664C4.89677 8.55796 4.89724 8.55979 4.89807 8.56152C4.89996 8.56536 4.90309 8.57042 4.90588 8.57617C4.91147 8.58771 4.9186 8.60329 4.92737 8.62207C4.94512 8.66011 4.96879 8.7132 4.9967 8.77832C5.05233 8.90814 5.12515 9.09045 5.19788 9.30859C5.33951 9.73351 5.49963 10.3487 5.49963 11C5.49963 11.5634 5.33367 12.1855 5.20374 12.6006C5.13441 12.8221 5.0651 13.0147 5.01331 13.1523C4.9874 13.2212 4.96569 13.2776 4.94983 13.3174C4.94191 13.3372 4.93498 13.3538 4.9303 13.3652C4.92809 13.3707 4.92682 13.3755 4.92542 13.3789C4.92471 13.3806 4.92393 13.3827 4.92346 13.3838L4.92249 13.3848V13.3857C4.70929 13.895 4.12323 14.1358 3.61389 13.9229C3.10481 13.7096 2.86402 13.1235 3.07678 12.6143L3.07971 12.6074C3.08233 12.601 3.08676 12.5903 3.09241 12.5762C3.10385 12.5475 3.12141 12.5035 3.14221 12.4482C3.18411 12.3368 3.24002 12.1803 3.29553 12.0029C3.41554 11.6195 3.49963 11.2417 3.49963 11C3.49963 10.6514 3.40971 10.2664 3.30139 9.94141C3.24922 9.78489 3.19688 9.65426 3.15881 9.56543C3.13995 9.52143 3.12442 9.48824 3.11487 9.46777L3.1051 9.44727C3.10444 9.44586 3.10424 9.44457 3.10413 9.44434C2.8594 8.95101 3.05959 8.35208 3.55237 8.10547ZM19.1559 8.46387C19.4271 8.03584 19.9839 7.87414 20.4469 8.10547C20.94 8.352 21.14 8.95088 20.8951 9.44434C20.895 9.44475 20.8948 9.44598 20.8942 9.44727L20.8844 9.46777C20.8748 9.48828 20.8593 9.5215 20.8405 9.56543C20.8024 9.65427 20.75 9.78495 20.6979 9.94141C20.5896 10.2664 20.4996 10.6514 20.4996 11C20.4996 11.2416 20.5837 11.6195 20.7037 12.0029C20.7592 12.1803 20.8151 12.3368 20.8571 12.4482C20.8779 12.5035 20.8954 12.5475 20.9069 12.5762C20.9125 12.5903 20.9169 12.601 20.9196 12.6074C20.9208 12.6105 20.922 12.6131 20.9225 12.6143C21.1354 13.1237 20.8947 13.7097 20.3854 13.9229C19.908 14.1222 19.3636 13.9235 19.1217 13.4785L19.0768 13.3857V13.3848L19.0758 13.3838C19.0753 13.3826 19.0746 13.3806 19.0739 13.3789C19.0725 13.3755 19.0712 13.3707 19.069 13.3652C19.0643 13.3538 19.0574 13.3372 19.0494 13.3174C19.0336 13.2776 19.0119 13.2212 18.986 13.1523C18.9342 13.0146 18.8649 12.8221 18.7955 12.6006C18.6656 12.1855 18.4996 11.5633 18.4996 11C18.4996 10.3488 18.6598 9.7335 18.8014 9.30859C18.8741 9.0905 18.9469 8.90814 19.0026 8.77832C19.0305 8.71325 19.0541 8.66012 19.0719 8.62207C19.0806 8.60333 19.0878 8.58772 19.0934 8.57617C19.0961 8.57046 19.0993 8.56536 19.1012 8.56152C19.102 8.55983 19.1025 8.55797 19.1031 8.55664L19.1041 8.55469L19.1051 8.55371V8.55273L19.1559 8.46387ZM11.9996 11.7061C12.5519 11.7061 12.9996 12.1538 12.9996 12.7061C12.9996 13.2583 12.5519 13.7061 11.9996 13.7061C11.4475 13.7058 10.9997 13.2582 10.9996 12.7061C10.9996 12.1539 11.4475 11.7063 11.9996 11.7061Z" fill="#9E9E9E"/>
</g>
</svg>
