<svg width="24" height="24" viewBox="0 0 24 24" fill="none" xmlns="http://www.w3.org/2000/svg">
<g id="icons/Health/weight">
<path id="Union" d="M20.5 1C21.8807 1 23 2.1193 23 3.5V20.5C23 21.8807 21.8807 23 20.5 23H3.5C2.1193 23 1 21.8807 1 20.5V3.5C1 2.11929 2.11929 1 3.5 1H20.5ZM3.5 3C3.22386 3 3 3.22386 3 3.5V20.5C3 20.7762 3.22385 21 3.5 21H20.5C20.7762 21 21 20.7762 21 20.5V3.5C21 3.22385 20.7762 3 20.5 3H3.5ZM8.91797 9.68652C9.36713 9.36516 9.99211 9.46881 10.3135 9.91797L12.167 12.5098C12.9168 12.5928 13.5 13.228 13.5 14C13.5 14.8285 12.8285 15.5 12 15.5C11.1715 15.5 10.5 14.8285 10.5 14C10.5 13.8862 10.5131 13.7755 10.5371 13.6689L8.68652 11.082C8.36516 10.6329 8.46881 10.0079 8.91797 9.68652ZM12 5.52734C14.6704 5.52734 16.9403 6.6885 18.7686 8.8877C19.1212 9.31225 19.0638 9.94287 18.6396 10.2959C18.2152 10.6485 17.5845 10.5909 17.2314 10.167C15.7348 8.3665 14.0045 7.52734 12 7.52734C9.99549 7.52734 8.26517 8.3665 6.76855 10.167C6.41546 10.5909 5.78481 10.6485 5.36035 10.2959C4.93616 9.94287 4.87881 9.31225 5.23145 8.8877C7.05966 6.6885 9.3296 5.52734 12 5.52734Z" fill="#9E9E9E"/>
</g>
</svg>
