<svg width="24" height="24" viewBox="0 0 24 24" fill="none" xmlns="http://www.w3.org/2000/svg">
<g id="icons/Music/acoustic">
<path id="Union" d="M12 1C12.5523 1 13 1.44772 13 2V22L12.9951 22.1025C12.9438 22.6067 12.5177 23 12 23C11.4823 23 11.0562 22.6067 11.0049 22.1025L11 22V2C11 1.44772 11.4477 1 12 1ZM7 5C7.55228 5 8 5.44772 8 6V18C8 18.5523 7.55228 19 7 19C6.44772 19 6 18.5523 6 18V6C6 5.44772 6.44772 5 7 5ZM17 5C17.5523 5 18 5.44772 18 6V18C18 18.5523 17.5523 19 17 19C16.4477 19 16 18.5523 16 18V6C16 5.44772 16.4477 5 17 5ZM2 8C2.55228 8 3 8.44772 3 9V15C3 15.5523 2.55228 16 2 16C1.44772 16 1 15.5523 1 15V9C1 8.44772 1.44772 8 2 8ZM22 8C22.5523 8 23 8.44772 23 9V15C23 15.5523 22.5523 16 22 16C21.4477 16 21 15.5523 21 15V9C21 8.44772 21.4477 8 22 8Z" fill="#9E9E9E"/>
</g>
</svg>
