<svg width="24" height="24" viewBox="0 0 24 24" fill="none" xmlns="http://www.w3.org/2000/svg">
<g id="icons/Music/add-music">
<path id="Union" d="M12 1C18.0751 1 23 5.92487 23 12C23 12.5523 22.5523 13 22 13C21.4477 13 21 12.5523 21 12C21 7.02943 16.9706 3 12 3C7.02943 3 3 7.02943 3 12C3 16.9706 7.02943 21 12 21C12.5523 21 13 21.4477 13 22C13 22.5523 12.5523 23 12 23C5.92487 23 1 18.0751 1 12C1 5.92487 5.92487 1 12 1ZM18.5254 15C19.0777 15 19.5254 15.4477 19.5254 16V17.4746H21C21.5523 17.4746 22 17.9223 22 18.4746C22 19.0269 21.5523 19.4746 21 19.4746H19.5254V21C19.5254 21.5523 19.0777 22 18.5254 22C17.9731 22 17.5254 21.5523 17.5254 21V19.4746H16C15.4477 19.4746 15 19.0269 15 18.4746C15 17.9223 15.4477 17.4746 16 17.4746H17.5254V16C17.5254 15.4477 17.9731 15 18.5254 15ZM9.5 7.66992C9.80936 7.49135 10.1906 7.49135 10.5 7.66992L13.5 9.40234L16.5 11.1338C16.8093 11.3124 16.9999 11.6428 17 12C17 12.3573 16.8094 12.6876 16.5 12.8662L13.5 14.5986L10.5 16.3301C10.1906 16.5087 9.8094 16.5087 9.5 16.3301C9.19067 16.1514 9 15.8211 9 15.4639V8.53613C9 8.17887 9.1906 7.84855 9.5 7.66992ZM11 13.7324L14 12L11 10.2676V13.7324Z" fill="#9E9E9E"/>
</g>
</svg>
