<svg width="24" height="24" viewBox="0 0 24 24" fill="none" xmlns="http://www.w3.org/2000/svg">
<g id="icons/Music/airpods">
<path id="Union" d="M6 1C9.03759 1 11.5 3.46244 11.5 6.5V22C11.5 22.5523 11.0523 23 10.5 23H7.5C6.94772 23 6.5 22.5523 6.5 22V11.9766C6.33516 11.9915 6.16844 12 6 12C3.87013 12 2.0244 10.7888 1.11133 9.02246C1.03809 8.88062 1 8.72311 1 8.56348V4.43652L1.00684 4.31738C1.02101 4.19911 1.05638 4.08395 1.11133 3.97754C2.0244 2.21126 3.87012 1 6 1ZM18 1C20.1299 1 21.9756 2.21125 22.8887 3.97754C22.9619 4.11938 23 4.27689 23 4.43652V8.56348C23 8.72311 22.9619 8.88062 22.8887 9.02246C21.9756 10.7888 20.1299 12 18 12C17.8316 12 17.6648 11.9915 17.5 11.9766V22C17.5 22.5523 17.0523 23 16.5 23H13.5C12.9477 23 12.5 22.5523 12.5 22V6.5C12.5 3.46244 14.9624 1 18 1ZM6 3C4.72828 3 3.61362 3.67814 3 4.69629V8.30273C3.61353 9.32129 4.72798 10 6 10C6.41084 10 6.80334 9.9293 7.16699 9.80078C7.47296 9.69275 7.8122 9.74039 8.07715 9.92773C8.34218 10.1152 8.5 10.4195 8.5 10.7441V21H9.5V6.5C9.5 4.567 7.93301 3 6 3ZM18 3C16.067 3 14.5 4.567 14.5 6.5V21H15.5V10.7441L15.5068 10.623C15.5407 10.3449 15.691 10.0917 15.9229 9.92773C16.1878 9.74039 16.527 9.69275 16.833 9.80078C17.1967 9.9293 17.5892 10 18 10C19.272 10 20.3865 9.32128 21 8.30273V4.69629C20.3864 3.67815 19.2717 3 18 3ZM7.5 5.5C8.05228 5.5 8.5 5.94772 8.5 6.5C8.5 7.05228 8.05228 7.5 7.5 7.5H7C6.44772 7.5 6 7.05228 6 6.5C6 5.94772 6.44772 5.5 7 5.5H7.5ZM17 5.5C17.5523 5.5 18 5.94772 18 6.5C18 7.05228 17.5523 7.5 17 7.5H16.5C15.9477 7.5 15.5 7.05228 15.5 6.5C15.5 5.94772 15.9477 5.5 16.5 5.5H17Z" fill="#9E9E9E"/>
</g>
</svg>
