<svg width="24" height="24" viewBox="0 0 24 24" fill="none" xmlns="http://www.w3.org/2000/svg">
<g id="icons/Music/bell-ring">
<path id="Union" d="M10 1C14.9706 1 19 5.02944 19 10C19 13.421 17.0909 16.3954 14.2803 17.918L14.6865 18.833C17.8482 17.152 20 13.8274 20 10V9C20 8.44772 20.4477 8 21 8H22C22.5523 8 23 8.44772 23 9V10L22.9951 10.1025C22.9438 10.6067 22.5177 11 22 11H21.958C21.6099 15.2189 19.0794 18.8156 15.501 20.665L15.9141 21.5938C16.0515 21.903 16.0232 22.2611 15.8389 22.5449C15.6544 22.8288 15.3385 23 15 23H5C4.66149 23 4.34559 22.8288 4.16113 22.5449C3.97677 22.2611 3.94848 21.903 4.08594 21.5938L5.71875 17.918C2.90858 16.3953 1 13.4207 1 10C1 5.02944 5.02944 1 10 1ZM12.4238 18.667C11.6525 18.8823 10.84 19 10 19C9.15963 19 8.34684 18.8824 7.5752 18.667L6.53906 21H13.4609L12.4238 18.667ZM10 3C6.13401 3 3 6.13401 3 10C3 13.866 6.13401 17 10 17C13.866 17 17 13.866 17 10C17 6.13401 13.866 3 10 3ZM10 7C11.6569 7 13 8.34315 13 10C13 11.6569 11.6569 13 10 13C8.34315 13 7 11.6569 7 10C7 8.34315 8.34315 7 10 7ZM10 4C10.5523 4 11 4.44772 11 5C11 5.55228 10.5523 6 10 6C7.79088 6 6 7.79088 6 10C6 10.5523 5.55228 11 5 11C4.44772 11 4 10.5523 4 10C4 6.68632 6.68632 4 10 4ZM10 9C9.44771 9 9 9.44771 9 10C9 10.5523 9.44771 11 10 11C10.5523 11 11 10.5523 11 10C11 9.44771 10.5523 9 10 9Z" fill="#9E9E9E"/>
</g>
</svg>
