<svg width="24" height="24" viewBox="0 0 24 24" fill="none" xmlns="http://www.w3.org/2000/svg">
<g id="icons/Music/close-remind">
<path id="Union" d="M2.83276 2.50488C3.24426 2.1367 3.87658 2.17168 4.24487 2.58301L21.2449 21.583C21.6131 21.9945 21.5782 22.6268 21.1667 22.9951C20.7552 23.3632 20.1229 23.3284 19.7546 22.917L15.9998 18.7197V19C15.9998 21.2091 14.2089 23 11.9998 23C10.136 22.9999 8.56974 21.7252 8.12573 20H2.99976C2.57892 19.9999 2.20271 19.7365 2.05933 19.3408C1.91654 18.9463 2.03533 18.5042 2.3562 18.2344C2.35721 18.2335 2.35813 18.2323 2.35913 18.2314H2.36011C2.37008 18.2224 2.38832 18.204 2.41479 18.1777C2.46969 18.1232 2.55787 18.0308 2.6687 17.8975C2.89027 17.6308 3.20497 17.1985 3.53101 16.5732C4.18088 15.3268 4.89078 13.2874 4.98804 10.2188C5.00552 9.66693 5.46753 9.2338 6.01929 9.25098C6.57116 9.26846 7.00433 9.72942 6.98706 10.2812C6.88064 13.6412 6.09762 15.9768 5.30444 17.498C5.21131 17.6766 5.11802 17.8442 5.02612 18H15.3552L2.75464 3.91699C2.38656 3.5055 2.42148 2.87315 2.83276 2.50488ZM10.2693 20C10.6152 20.5973 11.2599 20.9999 11.9998 21C12.7396 21 13.3843 20.5973 13.7302 20H10.2693ZM11.9998 1C13.0327 1 13.8822 1.78318 13.988 2.78809C16.8854 3.64497 18.9998 6.32481 18.9998 9.5C18.9998 12.8516 19.7168 15.0727 20.3943 16.4277C20.7342 17.1076 21.0683 17.5774 21.3054 17.8672C21.4238 18.0119 21.5184 18.1124 21.5779 18.1719L21.6394 18.2314C22.0637 18.585 22.1219 19.2163 21.7683 19.6406C21.4147 20.0647 20.7833 20.1221 20.3591 19.7686L20.9998 19C20.3597 19.7681 20.3587 19.768 20.3582 19.7676L20.3552 19.7646C20.3536 19.7633 20.3513 19.7614 20.3494 19.7598C20.3453 19.7563 20.3401 19.7518 20.3347 19.7471C20.3235 19.7373 20.3092 19.724 20.2927 19.709C20.2596 19.6788 20.2159 19.6381 20.1638 19.5859C20.0593 19.4815 19.9191 19.3315 19.7566 19.1328C19.4313 18.7351 19.0151 18.142 18.6052 17.3223C17.7828 15.6773 16.9998 13.1482 16.9998 9.5C16.9998 6.73858 14.7612 4.5 11.9998 4.5C10.9402 4.50004 9.95974 4.82893 9.1521 5.38965C8.69847 5.70418 8.07535 5.59119 7.7605 5.1377C7.44599 4.68414 7.55814 4.061 8.01147 3.74609C8.61553 3.32672 9.28953 3.00057 10.0115 2.78711C10.1178 1.78271 10.9672 1.0001 11.9998 1Z" fill="#9E9E9E"/>
</g>
</svg>
