<svg width="24" height="24" viewBox="0 0 24 24" fill="none" xmlns="http://www.w3.org/2000/svg">
<g id="icons/Music/collection-records">
<path id="Union" d="M19.3496 14C20.9512 14 22 15.4577 22 16.9229C22 18.2141 21.3554 19.3549 20.6562 20.1777C19.9598 20.9973 19.0798 21.6543 18.3613 21.9326C18.129 22.0226 17.871 22.0226 17.6387 21.9326C16.9202 21.6543 16.0402 20.9973 15.3438 20.1777C14.6446 19.3549 14 18.2141 14 16.9229C14 15.4577 15.0488 14 16.6504 14C17.1568 14.0001 17.6142 14.1548 18 14.4072C18.3858 14.1548 18.8432 14.0001 19.3496 14ZM11 1C16.5228 1 21 5.47717 21 11C21 11.5523 20.5523 12 20 12C19.4477 12 19 11.5523 19 11C19 6.58173 15.4183 3 11 3C6.58173 3 3 6.58173 3 11C3 15.4183 6.58173 19 11 19C11.5523 19 12 19.4477 12 20C12 20.5523 11.5523 21 11 21C5.47717 21 1 16.5228 1 11C1 5.47717 5.47717 1 11 1ZM19.3496 16C19.2011 16.0001 19.0058 16.0852 18.8555 16.334C18.6744 16.6336 18.3501 16.8174 18 16.8174C17.6499 16.8174 17.3256 16.6336 17.1445 16.334C16.9942 16.0852 16.7989 16.0001 16.6504 16C16.4295 16 16 16.2642 16 16.9229C16 17.5542 16.3299 18.2494 16.8682 18.8828C17.2484 19.3302 17.6692 19.6686 18 19.876C18.3308 19.6686 18.7516 19.3302 19.1318 18.8828C19.6701 18.2494 20 17.5542 20 16.9229C20 16.2642 19.5705 16 19.3496 16ZM11 7.5C12.933 7.5 14.5 9.06702 14.5 11C14.5 12.933 12.933 14.5 11 14.5C9.06702 14.5 7.5 12.933 7.5 11C7.5 9.06702 9.06702 7.5 11 7.5ZM11 9.5C10.1716 9.5 9.5 10.1716 9.5 11C9.5 11.8284 10.1716 12.5 11 12.5C11.8284 12.5 12.5 11.8284 12.5 11C12.5 10.1716 11.8284 9.5 11 9.5Z" fill="#9E9E9E"/>
</g>
</svg>
