<svg width="24" height="24" viewBox="0 0 24 24" fill="none" xmlns="http://www.w3.org/2000/svg">
<g id="icons/Music/concern">
<path id="Union" d="M4.72168 4.22168C5.11217 3.8312 5.74521 3.83128 6.13574 4.22168C6.5262 4.61221 6.52625 5.24524 6.13574 5.63574C4.50607 7.26549 3.5 9.51451 3.5 12C3.50009 14.4852 4.50625 16.7336 6.13574 18.3633C6.5262 18.7538 6.52624 19.3878 6.13574 19.7783C5.74524 20.1684 5.11208 20.1685 4.72168 19.7783C2.73222 17.7889 1.50009 15.0371 1.5 12C1.5 8.96278 2.73226 6.21117 4.72168 4.22168ZM18.8643 4.22168C19.2548 3.83121 19.8878 3.83118 20.2783 4.22168C22.2677 6.21117 23.5 8.96278 23.5 12C23.4999 15.0371 22.2677 17.7889 20.2783 19.7783C19.8879 20.1685 19.2547 20.1684 18.8643 19.7783C18.4737 19.3878 18.4737 18.7538 18.8643 18.3633C20.4938 16.7336 21.4999 14.4852 21.5 12C21.5 9.51451 20.4939 7.26549 18.8643 5.63574C18.4737 5.24522 18.4737 4.6122 18.8643 4.22168ZM6.84277 6.34375C7.2333 5.95323 7.86729 5.95323 8.25781 6.34375C8.64791 6.73421 8.64796 7.36738 8.25781 7.75781C7.17097 8.84469 6.5 10.3439 6.5 12.001C6.50016 13.6579 7.17106 15.1564 8.25781 16.2432C8.64794 16.6336 8.64793 17.2668 8.25781 17.6572C7.86731 18.0477 7.23328 18.0477 6.84277 17.6572C5.39644 16.2108 4.50016 14.2095 4.5 12.001C4.5 9.79226 5.39632 7.79035 6.84277 6.34375ZM16.7422 6.34375C17.1327 5.95323 17.7657 5.95323 18.1562 6.34375C19.6028 7.79036 20.499 9.79215 20.499 12.001C20.4989 14.2096 19.6027 16.2107 18.1562 17.6572C17.7657 18.0477 17.1327 18.0477 16.7422 17.6572C16.3517 17.2667 16.3517 16.6337 16.7422 16.2432C17.8289 15.1564 18.4989 13.6579 18.499 12.001C18.499 10.3439 17.829 8.84469 16.7422 7.75781C16.3517 7.36731 16.3517 6.73428 16.7422 6.34375ZM14.0908 9C15.6411 9 16.9999 10.1989 17 11.7998C17 12.7715 16.5272 13.5883 16.0742 14.1729C15.6172 14.7625 15.0696 15.2518 14.7773 15.5273C14.2946 15.9825 13.7087 16.4215 13.0322 16.8467C12.7069 17.0511 12.2931 17.0511 11.9678 16.8467C11.2913 16.4215 10.7054 15.9825 10.2227 15.5273C9.93037 15.2518 9.38276 14.7625 8.92578 14.1729C8.4728 13.5883 8.00004 12.7715 8 11.7998C8.00011 10.1989 9.35886 9 10.9092 9C11.4913 9.00002 12.0391 9.16685 12.5 9.45703C12.9609 9.16685 13.5087 9.00002 14.0908 9ZM14.0908 11C13.7499 11 13.4709 11.1633 13.3174 11.3809C13.13 11.6465 12.8251 11.8047 12.5 11.8047C12.1749 11.8047 11.87 11.6465 11.6826 11.3809C11.5291 11.1633 11.2501 11 10.9092 11C10.351 11 10.0001 11.4127 10 11.7998C10 12.1221 10.1645 12.5054 10.5068 12.9473C10.845 13.3836 11.2507 13.7479 11.5947 14.0723C11.8438 14.3071 12.1457 14.5476 12.5 14.7969C12.8543 14.5476 13.1562 14.3071 13.4053 14.0723C13.7493 13.7479 14.155 13.3836 14.4932 12.9473C14.8355 12.5054 15 12.1221 15 11.7998C14.9999 11.4127 14.649 11 14.0908 11Z" fill="#9E9E9E"/>
</g>
</svg>
