<svg width="24" height="24" viewBox="0 0 24 24" fill="none" xmlns="http://www.w3.org/2000/svg">
<g id="icons/Music/entertainment">
<path id="Union" d="M8 1C11.3137 1 14 3.68629 14 7C14 7.08114 13.9964 7.16183 13.9932 7.24219C14.0569 7.32247 14.1351 7.4209 14.2275 7.53711C14.5228 7.90821 14.9651 8.46393 15.5537 9.2041C16.7309 10.6845 18.495 12.9033 20.8457 15.8604H20.8447C21.3259 16.4559 21.2822 17.3202 20.7393 17.8633L20.5371 18.0645C20.5609 18.0821 20.5839 18.1011 20.6064 18.1211C21.5495 18.9578 21.8291 20.1801 21.4453 21.2598C21.0617 22.3384 20.069 23.1534 18.7227 23.3848C17.9734 23.5135 17.25 23.3674 16.6143 23.1455C15.9809 22.9245 15.3566 22.5997 14.7969 22.2998C14.212 21.9864 13.7007 21.7017 13.2012 21.4863C12.7027 21.2715 12.311 21.1699 11.9951 21.1699C10.9829 21.17 10.0937 21.6086 9.29297 22.6523C8.95679 23.0903 8.3297 23.1729 7.8916 22.8369C7.45341 22.5007 7.37087 21.8728 7.70703 21.4346C8.82278 19.9804 10.2639 19.17 11.9951 19.1699C12.708 19.1699 13.3919 19.3916 13.9922 19.6504C14.5914 19.9087 15.2029 20.2477 15.7412 20.5361C16.3047 20.8381 16.8046 21.0932 17.2734 21.2568C17.7399 21.4196 18.0972 21.4633 18.3838 21.4141C19.1089 21.2895 19.4486 20.9045 19.5605 20.5898C19.672 20.2764 19.611 19.9116 19.2793 19.6172C19.2259 19.5698 19.1785 19.5181 19.1377 19.4629L18.6973 19.9043C18.1491 20.4525 17.2738 20.4928 16.6777 19.9971C16.6736 19.9936 16.6691 19.9899 16.665 19.9863L8.5127 12.9756C8.34362 12.9899 8.17278 13 8 13C4.68632 13 2 10.3137 2 7C2 3.68629 4.68632 1 8 1ZM13.3711 9.67285C12.8107 10.7967 11.9091 11.7194 10.8008 12.3057L17.6104 18.1621L19.0088 16.7637C16.7933 13.9767 15.1197 11.872 13.9883 10.4492C13.7606 10.1628 13.5548 9.90404 13.3711 9.67285ZM12.5283 11.5283C12.9188 11.1378 13.5519 11.1378 13.9424 11.5283L15.3564 12.9424C15.747 13.3329 15.7469 13.9659 15.3564 14.3564C14.9659 14.747 14.3329 14.747 13.9424 14.3564L12.5283 12.9424C12.1378 12.5519 12.1378 11.9188 12.5283 11.5283ZM8 3C5.79088 3 4 4.79086 4 7C4 9.20912 5.79088 11 8 11C10.2091 11 12 9.20912 12 7C12 4.79086 10.2091 3 8 3Z" fill="#9E9E9E"/>
</g>
</svg>
