<svg width="24" height="24" viewBox="0 0 24 24" fill="none" xmlns="http://www.w3.org/2000/svg">
<g id="icons/Music/fm">
<path id="Union" d="M12 15C12.7017 15 13.4583 15.2647 13.9883 15.8662C14.2381 16.1499 14.3402 16.5022 14.3916 16.7373C14.4499 17.004 14.4796 17.2998 14.4922 17.5928C14.5176 18.1817 14.4803 18.8706 14.4131 19.5273C14.3455 20.1871 14.2442 20.8464 14.1289 21.3818C14.0716 21.6481 14.0067 21.9008 13.9365 22.1143C13.8837 22.2749 13.7776 22.5799 13.5752 22.8096C13.1484 23.2939 12.5468 23.5 12 23.5C11.4532 23.5 10.8516 23.2939 10.4248 22.8096C10.2224 22.5799 10.1163 22.2749 10.0635 22.1143C9.99328 21.9008 9.92843 21.6481 9.87109 21.3818C9.7558 20.8464 9.6545 20.1871 9.58691 19.5273C9.51966 18.8706 9.48242 18.1817 9.50781 17.5928C9.52045 17.2998 9.55008 17.004 9.6084 16.7373C9.65981 16.5022 9.76186 16.1499 10.0117 15.8662C10.5417 15.2647 11.2983 15 12 15ZM12 17C11.8132 17 11.6651 17.0605 11.5684 17.1377C11.5664 17.1458 11.5637 17.1551 11.5615 17.165C11.5369 17.278 11.5158 17.4487 11.5059 17.6787C11.4861 18.1365 11.5145 18.7219 11.5762 19.3242C11.6375 19.9232 11.7287 20.5084 11.8262 20.9609C11.8752 21.1888 11.9227 21.3669 11.9629 21.4893C11.9633 21.4905 11.9635 21.4919 11.9639 21.4932C11.9747 21.495 11.9864 21.5 12 21.5C12.0132 21.5 12.0245 21.4949 12.0352 21.4932C12.0356 21.4918 12.0367 21.4906 12.0371 21.4893C12.0773 21.3669 12.1248 21.1888 12.1738 20.9609C12.2713 20.5084 12.3625 19.9232 12.4238 19.3242C12.4855 18.7219 12.5139 18.1365 12.4941 17.6787C12.4842 17.4487 12.4631 17.278 12.4385 17.165C12.4363 17.155 12.4327 17.1458 12.4307 17.1377C12.334 17.0607 12.1864 17 12 17ZM12 1C17.5228 1 22 5.47717 22 11C22 14.9442 19.7159 18.3533 16.4033 19.9805C15.9077 20.2236 15.3089 20.019 15.0654 19.5234C14.8221 19.0278 15.0268 18.429 15.5225 18.1855C18.1767 16.8816 20 14.1526 20 11C20 6.58173 16.4183 3 12 3C7.58173 3 4 6.58173 4 11C4 14.1526 5.82327 16.8816 8.47754 18.1855C8.97319 18.429 9.17794 19.0278 8.93457 19.5234C8.69114 20.019 8.0923 20.2236 7.59668 19.9805C4.28408 18.3533 2 14.9442 2 11C2 5.47717 6.47717 1 12 1ZM12 4.5C15.5898 4.5 18.5 7.41017 18.5 11C18.5 13.028 17.5701 14.8398 16.1172 16.0303C15.6901 16.3801 15.06 16.3176 14.71 15.8906C14.36 15.4635 14.4226 14.8335 14.8496 14.4834C15.8588 13.6565 16.5 12.4033 16.5 11C16.5 8.51473 14.4853 6.5 12 6.5C9.51473 6.5 7.5 8.51473 7.5 11C7.5 12.4033 8.14121 13.6565 9.15039 14.4834C9.5774 14.8335 9.64001 15.4635 9.29004 15.8906C8.94001 16.3176 8.30993 16.3801 7.88281 16.0303C6.42989 14.8398 5.5 13.028 5.5 11C5.5 7.41017 8.41017 4.5 12 4.5ZM12 8C13.6569 8 15 9.34315 15 11C15 12.6569 13.6569 14 12 14C10.3431 14 9 12.6569 9 11C9 9.34315 10.3431 8 12 8ZM12 10C11.4477 10 11 10.4477 11 11C11 11.5523 11.4477 12 12 12C12.5523 12 13 11.5523 13 11C13 10.4477 12.5523 10 12 10Z" fill="#9E9E9E"/>
</g>
</svg>
