<svg width="24" height="24" viewBox="0 0 24 24" fill="none" xmlns="http://www.w3.org/2000/svg">
<g id="icons/Music/headset">
<path id="Union" d="M12 2C17.5465 2 21.9999 6.60433 22 12.2305V16C22.5523 16 23 16.4477 23 17V18C23 18.5523 22.5523 19 22 19V21C22 21.5523 21.5523 22 21 22H19C17.3432 22 16 20.6568 16 19V16C16 14.3432 17.3432 13 19 13H20V12.2305C19.9999 7.66087 16.3945 4 12 4C7.60554 4 4.00015 7.66087 4 12.2305V13H5C6.65683 13 8 14.3432 8 16V19C8 20.6568 6.65683 22 5 22H3C2.44772 22 2 21.5523 2 21V19C1.44771 19 1 18.5523 1 18V17C1 16.4477 1.44771 16 2 16V12.2305C2.00015 6.60433 6.45354 2 12 2ZM4 20H5C5.55227 20 6 19.5523 6 19V16C6 15.4477 5.55227 15 5 15H4V20ZM19 15C18.4477 15 18 15.4477 18 16V19C18 19.5523 18.4477 20 19 20H20V15H19Z" fill="#9E9E9E"/>
</g>
</svg>
