<svg width="24" height="24" viewBox="0 0 24 24" fill="none" xmlns="http://www.w3.org/2000/svg">
<g id="icons/Music/headphone-sound">
<path id="Union" d="M12 4C16.4183 4 20 7.58172 20 12H21C22.1046 12 23 12.8954 23 14V18C23 19.1046 22.1046 20 21 20H19C18.4477 20 18 19.5523 18 19V12C18 8.68629 15.3137 6 12 6C8.68629 6 6 8.68629 6 12V19C6 19.5523 5.55228 20 5 20H3C1.89544 20 1 19.1046 1 18V14C1 12.8954 1.89544 12 3 12H4C4 7.58172 7.58172 4 12 4ZM11 12C11.4303 12 11.812 12.2754 11.9482 12.6836L13 15.8389L13.0518 15.6836L13.1133 15.5371C13.2835 15.2108 13.6234 15 14 15H16C16.5523 15 17 15.4477 17 16C17 16.5523 16.5523 17 16 17H14.7207L13.9482 19.3164C13.812 19.7246 13.4303 20 13 20C12.5697 20 12.188 19.7246 12.0518 19.3164L11 16.1611L10.9482 16.3164C10.812 16.7246 10.4303 17 10 17H8C7.44772 17 7 16.5523 7 16C7 15.4477 7.44772 15 8 15H9.2793L10.0518 12.6836L10.1133 12.5371C10.2835 12.2108 10.6234 12 11 12Z" fill="#9E9E9E"/>
</g>
</svg>
