<svg width="24" height="24" viewBox="0 0 24 24" fill="none" xmlns="http://www.w3.org/2000/svg">
<g id="icons/Music/headset-one">
<path id="Union" d="M12 1C15.5571 1 18.4918 3.65352 18.9385 7.08887C21.2512 7.52814 23 9.5594 23 12C23 14.4405 21.2511 16.4708 18.9385 16.9102C18.4922 20.346 15.5574 23 12 23C11.4477 23 11 22.5523 11 22C11 21.4477 11.4477 21 12 21C14.7614 21 17 18.7614 17 16V8C17 5.23858 14.7614 3 12 3C9.23858 3 7 5.23858 7 8V16C7 16.5523 6.55228 17 6 17C3.23858 17 1 14.7614 1 12C1 9.55973 2.74828 7.52851 5.06055 7.08887C5.50721 3.65346 8.44288 1 12 1Z" fill="#9E9E9E"/>
</g>
</svg>
