<svg width="24" height="24" viewBox="0 0 24 24" fill="none" xmlns="http://www.w3.org/2000/svg">
<g id="icons/Music/list-add">
<path id="Union" d="M17.5 13C18.0523 13 18.5 13.4477 18.5 14V15.5H20C20.5523 15.5 21 15.9477 21 16.5C21 17.0523 20.5523 17.5 20 17.5H18.5V19C18.5 19.5523 18.0523 20 17.5 20C16.9477 20 16.5 19.5523 16.5 19V17.5H15C14.4477 17.5 14 17.0523 14 16.5C14 15.9477 14.4477 15.5 15 15.5H16.5V14C16.5 13.4477 16.9477 13 17.5 13ZM12 17.5C12.5523 17.5 13 17.9477 13 18.5C13 19.0523 12.5523 19.5 12 19.5H4C3.44772 19.5 3 19.0523 3 18.5C3 17.9477 3.44772 17.5 4 17.5H12ZM12 13C12.5523 13 13 13.4477 13 14C13 14.5523 12.5523 15 12 15H4C3.44772 15 3 14.5523 3 14C3 13.4477 3.44772 13 4 13H12ZM20 8.5C20.5523 8.5 21 8.94772 21 9.5C21 10.0523 20.5523 10.5 20 10.5H4C3.44772 10.5 3 10.0523 3 9.5C3 8.94772 3.44772 8.5 4 8.5H20ZM20 4C20.5523 4 21 4.44772 21 5C21 5.55228 20.5523 6 20 6H4C3.44772 6 3 5.55228 3 5C3 4.44772 3.44772 4 4 4H20Z" fill="#9E9E9E"/>
</g>
</svg>
