<svg width="24" height="24" viewBox="0 0 24 24" fill="none" xmlns="http://www.w3.org/2000/svg">
<g id="icons/Music/monitor-two">
<path id="Union" d="M12 1C15.1388 1 17.9717 2.31624 19.9746 4.42383C20.902 5.39973 21.6531 6.54619 22.1748 7.8125C22.3852 8.32315 22.1415 8.9078 21.6309 9.11816C21.1202 9.32848 20.5355 9.08485 20.3252 8.57422C19.899 7.53975 19.2852 6.60133 18.5254 5.80176C16.8844 4.07492 14.5683 3 12 3C7.36751 3 3.55417 6.50014 3.05664 11H7C7.34465 11 7.66488 11.1776 7.84766 11.4697L9.40234 13.958L13.1055 6.55273C13.2631 6.23752 13.5753 6.02882 13.9268 6.00293C14.2781 5.97712 14.6173 6.13811 14.8193 6.42676L18.0205 11H22C22.5523 11 23 11.4477 23 12C23 18.0751 18.0751 23 12 23C9.00235 23 6.28291 21.7995 4.2998 19.8555C3.29948 18.8748 2.48552 17.7038 1.91602 16.4004C1.69492 15.8944 1.92568 15.3052 2.43164 15.084C2.93768 14.8629 3.52687 15.0936 3.74805 15.5996C4.21352 16.6649 4.88036 17.624 5.7002 18.4277C7.32457 20.02 9.54688 21 12 21C16.6325 21 20.4458 17.4999 20.9434 13H17.5C17.1737 13 16.8678 12.8406 16.6807 12.5732L14.1436 8.94824L10.3945 16.4473C10.2328 16.7707 9.90902 16.9817 9.54785 16.999C9.18667 17.0162 8.8441 16.8368 8.65234 16.5303L6.44629 13H2C1.44772 13 1 12.5523 1 12C1 5.92487 5.92487 1 12 1Z" fill="#9E9E9E"/>
</g>
</svg>
