<svg width="24" height="24" viewBox="0 0 24 24" fill="none" xmlns="http://www.w3.org/2000/svg">
<g id="icons/Music/monitor">
<path id="Union" d="M18 4C18.5523 4 19 4.44772 19 5V8.22266L21.3555 6.23535C21.6527 5.98481 22.0683 5.92917 22.4209 6.09277C22.7738 6.25674 23 6.61088 23 7V17C23 17.3891 22.7738 17.7433 22.4209 17.9072C22.0683 18.0708 21.6527 18.0152 21.3555 17.7646L19 15.7764V19C19 19.5523 18.5523 20 18 20H2C1.44772 20 1 19.5523 1 19V5C1 4.44772 1.44772 4 2 4H18ZM3 18H17V6H3V18ZM7.73145 8.85938C8.08502 8.43519 8.71638 8.37791 9.14062 8.73145L12.1406 11.2314C12.3686 11.4214 12.5 11.7033 12.5 12C12.5 12.2967 12.3686 12.5786 12.1406 12.7686L9.14062 15.2686C8.71638 15.6221 8.08502 15.5648 7.73145 15.1406C7.37791 14.7164 7.43519 14.085 7.85938 13.7314L9.93652 12L7.85938 10.2686C7.43519 9.91498 7.37791 9.28362 7.73145 8.85938ZM19 10.8389V13.1602L21 14.8477V9.15137L19 10.8389Z" fill="#9E9E9E"/>
</g>
</svg>
