<svg width="24" height="24" viewBox="0 0 24 24" fill="none" xmlns="http://www.w3.org/2000/svg">
<g id="icons/Music/monitor-off">
<path id="Union" d="M1.29297 1.29297C1.68349 0.902444 2.31651 0.902444 2.70703 1.29297L22.707 21.293C23.0975 21.6835 23.0975 22.3165 22.707 22.707C22.3165 23.0975 21.6835 23.0975 21.293 22.707L1.29297 2.70703C0.902457 2.31652 0.902482 1.6835 1.29297 1.29297ZM2 5C2.55228 5 3 5.44772 3 6V18H15C15.5523 18 16 18.4477 16 19C16 19.5522 15.5523 20 15 20H2C1.44774 20 1.00004 19.5522 1 19V6C1 5.44772 1.44772 5 2 5ZM18 4C18.5523 4 19 4.44772 19 5V8.22266L21.3555 6.23535C21.6527 5.98481 22.0683 5.92917 22.4209 6.09277C22.7738 6.25675 23 6.61089 23 7V17C23 17.3891 22.7738 17.7433 22.4209 17.9072C22.0683 18.0708 21.6527 18.0152 21.3555 17.7646L17.3555 14.3896C17.1303 14.1997 17 13.9196 17 13.625V6H9C8.44774 6 8.00004 5.55225 8 5C8 4.44772 8.44772 4 9 4H18ZM19 10.8389V13.1602L21 14.8477V9.15137L19 10.8389Z" fill="#9E9E9E"/>
</g>
</svg>
