<svg width="24" height="24" viewBox="0 0 24 24" fill="none" xmlns="http://www.w3.org/2000/svg">
<g id="icons/Music/movie">
<path id="Union" d="M12 1C18.0751 1 23 5.92487 23 12C23 15.722 21.1495 19.0095 18.3203 21H22C22.5523 21 23 21.4477 23 22C23 22.5523 22.5523 23 22 23H12C5.92487 23 1 18.0751 1 12C1 5.92487 5.92487 1 12 1ZM12 3C7.02943 3 3 7.02943 3 12C3 16.9706 7.02943 21 12 21C16.9706 21 21 16.9706 21 12C21 7.02943 16.9706 3 12 3ZM12 14C13.3807 14 14.5 15.1193 14.5 16.5C14.5 17.8807 13.3807 19 12 19C10.6193 19 9.5 17.8807 9.5 16.5C9.5 15.1193 10.6193 14 12 14ZM12 16C11.7238 16 11.5 16.2238 11.5 16.5C11.5 16.7762 11.7238 17 12 17C12.2762 17 12.5 16.7762 12.5 16.5C12.5 16.2238 12.2762 16 12 16ZM7.5 9.5C8.88073 9.5 10 10.6193 10 12C10 13.3807 8.88073 14.5 7.5 14.5C6.11927 14.5 5 13.3807 5 12C5 10.6193 6.11927 9.5 7.5 9.5ZM16.5 9.5C17.8807 9.5 19 10.6193 19 12C19 13.3807 17.8807 14.5 16.5 14.5C15.1193 14.5 14 13.3807 14 12C14 10.6193 15.1193 9.5 16.5 9.5ZM7.5 11.5C7.22383 11.5 7 11.7238 7 12C7 12.2762 7.22383 12.5 7.5 12.5C7.77617 12.5 8 12.2762 8 12C8 11.7238 7.77617 11.5 7.5 11.5ZM16.5 11.5C16.2238 11.5 16 11.7238 16 12C16 12.2762 16.2238 12.5 16.5 12.5C16.7762 12.5 17 12.2762 17 12C17 11.7238 16.7762 11.5 16.5 11.5ZM12 5C13.3807 5 14.5 6.11927 14.5 7.5C14.5 8.88073 13.3807 10 12 10C10.6193 10 9.5 8.88073 9.5 7.5C9.5 6.11927 10.6193 5 12 5ZM12 7C11.7238 7 11.5 7.22383 11.5 7.5C11.5 7.77617 11.7238 8 12 8C12.2762 8 12.5 7.77617 12.5 7.5C12.5 7.22383 12.2762 7 12 7Z" fill="#9E9E9E"/>
</g>
</svg>
