<svg width="24" height="24" viewBox="0 0 24 24" fill="none" xmlns="http://www.w3.org/2000/svg">
<g id="icons/Music/movie-board">
<path id="Union" d="M22 2C22.5523 2 23 2.44772 23 3V21C23 21.5523 22.5523 22 22 22H2C1.44772 22 1 21.5523 1 21V3C1 2.44772 1.44772 2 2 2H22ZM3 20H21V9H3V20ZM12 15C12.5523 15 13 15.4477 13 16C13 16.5523 12.5523 17 12 17H6C5.44772 17 5 16.5523 5 16C5 15.4477 5.44772 15 6 15H12ZM18 11C18.5523 11 19 11.4477 19 12C19 12.5523 18.5523 13 18 13H6C5.44772 13 5 12.5523 5 12C5 11.4477 5.44772 11 6 11H18ZM3 7H5.52246L4.32324 4H3V7ZM7.67676 7H9.52246L8.32324 4H6.47754L7.67676 7ZM11.6768 7H13.5225L12.3232 4H10.4775L11.6768 7ZM15.6768 7H17.5225L16.3232 4H14.4775L15.6768 7ZM19.6768 7H21V4H18.4775L19.6768 7Z" fill="#9E9E9E"/>
</g>
</svg>
