<svg width="24" height="24" viewBox="0 0 24 24" fill="none" xmlns="http://www.w3.org/2000/svg">
<g id="icons/Music/music-list">
<path id="Union" d="M20 18C20.5523 18 21 18.4477 21 19C21 19.5523 20.5523 20 20 20H4C3.44772 20 3 19.5523 3 19C3 18.4477 3.44772 18 4 18H20ZM20 13C20.5523 13 21 13.4477 21 14C21 14.5523 20.5523 15 20 15H4C3.44772 15 3 14.5523 3 14C3 13.4477 3.44772 13 4 13H20ZM3.51562 4.125C3.8335 3.94903 4.22215 3.95977 4.53027 4.15234L8.53027 6.65234C8.82245 6.83512 9 7.15535 9 7.5C9 7.84465 8.82245 8.16488 8.53027 8.34766L4.53027 10.8477C4.22215 11.0402 3.8335 11.051 3.51562 10.875C3.19767 10.6988 3 10.3635 3 10V5L3.00879 4.86523C3.0509 4.55519 3.23741 4.2792 3.51562 4.125ZM20 8.5C20.5523 8.5 21 8.94772 21 9.5C21 10.0523 20.5523 10.5 20 10.5H12C11.4477 10.5 11 10.0523 11 9.5C11 8.94772 11.4477 8.5 12 8.5H20ZM5 8.19531L6.11328 7.5L5 6.80371V8.19531ZM20 4C20.5523 4 21 4.44772 21 5C21 5.55228 20.5523 6 20 6H12C11.4477 6 11 5.55228 11 5C11 4.44772 11.4477 4 12 4H20Z" fill="#9E9E9E"/>
</g>
</svg>
