<svg width="24" height="24" viewBox="0 0 24 24" fill="none" xmlns="http://www.w3.org/2000/svg">
<g id="icons/Music/music">
<path id="Union" d="M20.2666 1.02734C20.5644 0.955909 20.8787 1.0253 21.1191 1.21484C21.3596 1.40443 21.4999 1.69383 21.5 2V17.2002C21.4999 18.7464 20.2464 19.9999 18.7002 20H16.75C15.2312 20 14 18.7688 14 17.25C14.0001 15.7313 15.2313 14.5 16.75 14.5H19.5V7.32617L9 9.8125V19.2002C8.9999 20.7464 7.74642 21.9999 6.2002 22H4.75C3.23122 22 2 20.7688 2 19.25C2.00011 17.7313 3.23128 16.5 4.75 16.5H7V5L7.01465 4.83008C7.08148 4.44189 7.3732 4.12176 7.7666 4.02734L20.2666 1.02734ZM4.75 18.5C4.33585 18.5 4.00011 18.8359 4 19.25C4 19.6642 4.33578 20 4.75 20H6.2002C6.64186 19.9999 6.9999 19.6419 7 19.2002V18.5H4.75ZM16.75 16.5C16.3359 16.5 16.0001 16.8359 16 17.25C16 17.6642 16.3358 18 16.75 18H18.7002C19.1419 17.9999 19.4999 17.6419 19.5 17.2002V16.5H16.75ZM9 5.78809V7.75684L19.5 5.27148V3.26855L9 5.78809Z" fill="#9E9E9E"/>
</g>
</svg>
