<svg width="24" height="24" viewBox="0 0 24 24" fill="none" xmlns="http://www.w3.org/2000/svg">
<g id="icons/Music/music-rhythm">
<path id="Union" d="M5 20C5.55228 20 6 20.4477 6 21C6 21.5523 5.55228 22 5 22H2.5C1.94772 22 1.5 21.5523 1.5 21C1.5 20.4477 1.94772 20 2.5 20H5ZM10.5 20C11.0523 20 11.5 20.4477 11.5 21C11.5 21.5523 11.0523 22 10.5 22H8C7.44772 22 7 21.5523 7 21C7 20.4477 7.44772 20 8 20H10.5ZM16 20C16.5523 20 17 20.4477 17 21C17 21.5523 16.5523 22 16 22H13.5C12.9477 22 12.5 21.5523 12.5 21C12.5 20.4477 12.9477 20 13.5 20H16ZM21.5 20C22.0523 20 22.5 20.4477 22.5 21C22.5 21.5523 22.0523 22 21.5 22H19C18.4477 22 18 21.5523 18 21C18 20.4477 18.4477 20 19 20H21.5ZM5 17C5.55228 17 6 17.4477 6 18C6 18.5523 5.55228 19 5 19H2.5C1.94772 19 1.5 18.5523 1.5 18C1.5 17.4477 1.94772 17 2.5 17H5ZM10.5 17C11.0523 17 11.5 17.4477 11.5 18C11.5 18.5523 11.0523 19 10.5 19H8C7.44772 19 7 18.5523 7 18C7 17.4477 7.44772 17 8 17H10.5ZM16 17C16.5523 17 17 17.4477 17 18C17 18.5523 16.5523 19 16 19H13.5C12.9477 19 12.5 18.5523 12.5 18C12.5 17.4477 12.9477 17 13.5 17H16ZM21.5 17C22.0523 17 22.5 17.4477 22.5 18C22.5 18.5523 22.0523 19 21.5 19H19C18.4477 19 18 18.5523 18 18C18 17.4477 18.4477 17 19 17H21.5ZM5 14C5.55228 14 6 14.4477 6 15C6 15.5523 5.55228 16 5 16H2.5C1.94772 16 1.5 15.5523 1.5 15C1.5 14.4477 1.94772 14 2.5 14H5ZM10.5 14C11.0523 14 11.5 14.4477 11.5 15C11.5 15.5523 11.0523 16 10.5 16H8C7.44772 16 7 15.5523 7 15C7 14.4477 7.44772 14 8 14H10.5ZM16 14C16.5523 14 17 14.4477 17 15C17 15.5523 16.5523 16 16 16H13.5C12.9477 16 12.5 15.5523 12.5 15C12.5 14.4477 12.9477 14 13.5 14H16ZM21.5 14C22.0523 14 22.5 14.4477 22.5 15C22.5 15.5523 22.0523 16 21.5 16H19C18.4477 16 18 15.5523 18 15C18 14.4477 18.4477 14 19 14H21.5ZM5 11C5.55228 11 6 11.4477 6 12C6 12.5523 5.55228 13 5 13H2.5C1.94772 13 1.5 12.5523 1.5 12C1.5 11.4477 1.94772 11 2.5 11H5ZM10.5 11C11.0523 11 11.5 11.4477 11.5 12C11.5 12.5523 11.0523 13 10.5 13H8C7.44772 13 7 12.5523 7 12C7 11.4477 7.44772 11 8 11H10.5ZM21.5 11C22.0523 11 22.5 11.4477 22.5 12C22.5 12.5523 22.0523 13 21.5 13H19C18.4477 13 18 12.5523 18 12C18 11.4477 18.4477 11 19 11H21.5ZM10.5 8C11.0523 8 11.5 8.44772 11.5 9C11.5 9.55228 11.0523 10 10.5 10H8C7.44772 10 7 9.55228 7 9C7 8.44772 7.44772 8 8 8H10.5ZM21.5 8C22.0523 8 22.5 8.44772 22.5 9C22.5 9.55228 22.0523 10 21.5 10H19C18.4477 10 18 9.55228 18 9C18 8.44772 18.4477 8 19 8H21.5ZM10.5 5C11.0523 5 11.5 5.44772 11.5 6C11.5 6.55228 11.0523 7 10.5 7H8C7.44772 7 7 6.55228 7 6C7 5.44772 7.44772 5 8 5H10.5ZM10.5 2C11.0523 2 11.5 2.44772 11.5 3C11.5 3.55228 11.0523 4 10.5 4H8C7.44772 4 7 3.55228 7 3C7 2.44772 7.44772 2 8 2H10.5Z" fill="#9E9E9E"/>
</g>
</svg>
