<svg width="24" height="24" viewBox="0 0 24 24" fill="none" xmlns="http://www.w3.org/2000/svg">
<g id="icons/Music/music-one">
<path id="Union" d="M12 2C12.0745 2 12.1469 2.00896 12.2168 2.02441C12.2203 2.0252 12.224 2.02554 12.2275 2.02637L18.6699 3.5332C19.122 3.63918 19.4414 4.04246 19.4414 4.50684V8.56055C19.4414 8.86635 19.3014 9.15507 19.0615 9.34473C18.8217 9.53437 18.5085 9.60471 18.2109 9.53418L13 8.29688V18.4805C12.9997 20.4241 11.4241 21.9997 9.48047 22H7.51953C5.57587 21.9997 4.00025 20.4241 4 18.4805V18.0195C4.00025 16.0759 5.57587 14.5003 7.51953 14.5H11V3C11 2.92696 11.0076 2.8557 11.0225 2.78711C11.0253 2.77391 11.0298 2.7611 11.0332 2.74805C11.0489 2.68783 11.0687 2.62946 11.0947 2.57422C11.098 2.56724 11.102 2.56061 11.1055 2.55371C11.1341 2.4965 11.1684 2.44289 11.207 2.39258C11.2128 2.385 11.2176 2.37656 11.2236 2.36914C11.268 2.31456 11.3182 2.26485 11.373 2.2207C11.3749 2.21924 11.3771 2.21825 11.3789 2.2168C11.3829 2.21364 11.3866 2.21012 11.3906 2.20703C11.4069 2.19453 11.4234 2.1824 11.4404 2.1709L11.4717 2.15137C11.4761 2.14859 11.4809 2.14626 11.4854 2.14355C11.5111 2.12802 11.5372 2.11281 11.5645 2.09961C11.5673 2.09821 11.5703 2.09707 11.5732 2.0957C11.6028 2.08172 11.633 2.0687 11.6641 2.05762C11.6692 2.05578 11.6745 2.05448 11.6797 2.05273C11.7068 2.04357 11.7346 2.03615 11.7627 2.0293C11.7709 2.02729 11.7789 2.02426 11.7871 2.02246C11.8557 2.00759 11.927 2 12 2ZM7.51953 16.5C6.68044 16.5003 6.00025 17.1804 6 18.0195V18.4805C6.00025 19.3196 6.68044 19.9997 7.51953 20H9.48047C10.3196 19.9997 10.9997 19.3196 11 18.4805V16.5H7.51953ZM13 6.24219L17.4414 7.2959V5.29883L13 4.26074V6.24219Z" fill="#9E9E9E"/>
</g>
</svg>
