<svg width="24" height="24" viewBox="0 0 24 24" fill="none" xmlns="http://www.w3.org/2000/svg">
<g id="icons/Music/music-menu">
<path id="Union" d="M14.5 2C14.5745 2 14.6469 2.00896 14.7168 2.02441C14.7203 2.0252 14.724 2.02554 14.7275 2.02637L21.1699 3.5332C21.622 3.63918 21.9414 4.04246 21.9414 4.50684V8.56055C21.9414 8.86635 21.8014 9.15507 21.5615 9.34473C21.3217 9.53437 21.0085 9.60471 20.7109 9.53418L15.5 8.29688V18.4805C15.4997 20.4241 13.9241 21.9997 11.9805 22H10.0195C8.07587 21.9997 6.50025 20.4241 6.5 18.4805V18.0195C6.50025 16.0759 8.07587 14.5003 10.0195 14.5H13.5V3C13.5 2.92696 13.5076 2.8557 13.5225 2.78711C13.5253 2.77391 13.5298 2.7611 13.5332 2.74805C13.5489 2.68783 13.5687 2.62946 13.5947 2.57422C13.598 2.56724 13.602 2.56061 13.6055 2.55371C13.6341 2.4965 13.6684 2.44289 13.707 2.39258C13.7128 2.385 13.7176 2.37656 13.7236 2.36914C13.768 2.31456 13.8182 2.26485 13.873 2.2207C13.8749 2.21924 13.8771 2.21825 13.8789 2.2168C13.8829 2.21364 13.8866 2.21012 13.8906 2.20703C13.9069 2.19453 13.9234 2.1824 13.9404 2.1709L13.9717 2.15137C13.9761 2.14859 13.9809 2.14626 13.9854 2.14355C14.0111 2.12802 14.0372 2.11281 14.0645 2.09961C14.0673 2.09821 14.0703 2.09707 14.0732 2.0957C14.1028 2.08172 14.133 2.0687 14.1641 2.05762C14.1692 2.05578 14.1745 2.05448 14.1797 2.05273C14.2068 2.04357 14.2346 2.03615 14.2627 2.0293C14.2709 2.02729 14.2789 2.02426 14.2871 2.02246C14.3557 2.00759 14.427 2 14.5 2ZM10.0195 16.5C9.18044 16.5003 8.50025 17.1804 8.5 18.0195V18.4805C8.50025 19.3196 9.18044 19.9997 10.0195 20H11.9805C12.8196 19.9997 13.4997 19.3196 13.5 18.4805V16.5H10.0195ZM8 11C8.55228 11 9 11.4477 9 12C9 12.5523 8.55228 13 8 13H3C2.44772 13 2 12.5523 2 12C2 11.4477 2.44772 11 3 11H8ZM10 7C10.5523 7 11 7.44772 11 8C11 8.55228 10.5523 9 10 9H3C2.44772 9 2 8.55228 2 8C2 7.44772 2.44772 7 3 7H10ZM15.5 6.24219L19.9414 7.2959V5.29883L15.5 4.26074V6.24219ZM10 3C10.5523 3 11 3.44772 11 4C11 4.55228 10.5523 5 10 5H3C2.44772 5 2 4.55228 2 4C2 3.44772 2.44772 3 3 3H10Z" fill="#9E9E9E"/>
</g>
</svg>
