<svg width="24" height="24" viewBox="0 0 24 24" fill="none" xmlns="http://www.w3.org/2000/svg">
<g id="icons/Music/mute">
<path id="Union" d="M12 1C18.0751 1 23 5.92487 23 12C23 18.0751 18.0751 23 12 23C5.92487 23 1 18.0751 1 12C1 5.92487 5.92487 1 12 1ZM12 3C7.02943 3 3 7.02943 3 12C3 16.9706 7.02943 21 12 21C16.9706 21 21 16.9706 21 12C21 7.02943 16.9706 3 12 3ZM14.5 6C15.0523 6 15.5 6.44772 15.5 7V17C15.5 17.5523 15.0523 18 14.5 18C13.1075 18 12.018 17.0999 11.3721 16.4131C11.0441 16.0644 10.783 15.7187 10.5996 15.4551H9.0498C8.23867 15.455 7.58635 14.8351 7.50781 14.0576L7.5 13.8994V10.0586C7.5 9.20897 8.18446 8.50304 9.0498 8.50293H10.6055C10.7891 8.2433 11.0501 7.90344 11.3779 7.56055C12.0262 6.88245 13.1139 6 14.5 6ZM13.5 8.36133C13.272 8.51516 13.0438 8.71165 12.8232 8.94238C12.5684 9.20896 12.3615 9.48009 12.2178 9.68555C12.1466 9.78729 12.0926 9.87093 12.0576 9.92676C12.0403 9.95446 12.027 9.97474 12.0195 9.9873C12.0159 9.9934 12.0139 9.99794 12.0127 10L12.0117 9.99902C11.8336 10.3104 11.5032 10.5029 11.1445 10.5029H9.5V13.4551H11.1445C11.5058 13.4551 11.8395 13.65 12.0166 13.9648H12.0156C12.0168 13.9669 12.0197 13.9712 12.0234 13.9775C12.031 13.9905 12.044 14.0116 12.0615 14.04C12.0967 14.0971 12.1503 14.1825 12.2217 14.2861C12.3658 14.4956 12.5738 14.7715 12.8291 15.043C13.0483 15.2761 13.2748 15.4735 13.5 15.6289V8.36133Z" fill="#9E9E9E"/>
</g>
</svg>
