<svg width="24" height="24" viewBox="0 0 24 24" fill="none" xmlns="http://www.w3.org/2000/svg">
<g id="icons/Music/performance">
<path id="Union" d="M12 1C12.5523 1 13 1.44772 13 2C13 2.55228 12.5523 3 12 3C7.02943 3 3 7.02943 3 12C3 16.9706 7.02943 21 12 21C16.9706 21 21 16.9706 21 12C21 10.778 20.7568 9.61531 20.3174 8.55566C20.2042 8.28275 20.0779 8.01638 19.9395 7.75781C19.6787 7.2711 19.8621 6.66518 20.3486 6.4043C20.8355 6.14352 21.4414 6.32664 21.7021 6.81348C21.8716 7.12978 22.0266 7.45512 22.165 7.78906C22.7034 9.08735 23 10.5104 23 12C23 18.0751 18.0751 23 12 23C5.92487 23 1 18.0751 1 12C1 5.92487 5.92487 1 12 1ZM17.5 1C18.2477 1 18.9636 1.22637 19.5146 1.63965C20.0658 2.05317 20.5 2.70066 20.5 3.5C20.5 4.29934 20.0658 4.94683 19.5146 5.36035C18.9636 5.77363 18.2477 6 17.5 6C17.1553 6 16.8182 5.94882 16.5 5.85645V12C16.5 14.4853 14.4853 16.5 12 16.5C9.51472 16.5 7.5 14.4853 7.5 12C7.5 9.51472 9.51472 7.5 12 7.5C12.9251 7.5 13.7849 7.77917 14.5 8.25781V3.25C14.5 3.06738 14.5493 2.89637 14.6348 2.74902C14.8047 2.29205 15.1193 1.91428 15.4854 1.63965C16.0364 1.22637 16.7523 1 17.5 1ZM12 9.5C10.6193 9.5 9.5 10.6193 9.5 12C9.5 13.3807 10.6193 14.5 12 14.5C13.3807 14.5 14.5 13.3807 14.5 12C14.5 10.6193 13.3807 9.5 12 9.5ZM17.5 3C17.1432 3 16.8584 3.10965 16.6855 3.23926C16.5131 3.3686 16.5 3.47113 16.5 3.5C16.5 3.52887 16.5131 3.6314 16.6855 3.76074C16.8584 3.89035 17.1432 4 17.5 4C17.8568 4 18.1416 3.89035 18.3145 3.76074C18.4869 3.6314 18.5 3.52887 18.5 3.5C18.5 3.47113 18.4869 3.3686 18.3145 3.23926C18.1416 3.10965 17.8568 3 17.5 3Z" fill="#9E9E9E"/>
</g>
</svg>
