<svg width="24" height="24" viewBox="0 0 24 24" fill="none" xmlns="http://www.w3.org/2000/svg">
<g id="icons/Music/piano">
<path id="Union" d="M22 3C22.5523 3 23 3.44772 23 4V20C23 20.5523 22.5523 21 22 21H2C1.44772 21 1 20.5523 1 20V4C1 3.44772 1.44772 3 2 3H22ZM3 19H21V13H20V16C20 16.5523 19.5523 17 19 17C18.4477 17 18 16.5523 18 16V13H17V16C17 16.5523 16.5523 17 16 17C15.4477 17 15 16.5523 15 16V13H14V16C14 16.5523 13.5523 17 13 17C12.4477 17 12 16.5523 12 16V13H9V16C9 16.5523 8.55228 17 8 17C7.44772 17 7 16.5523 7 16V13H6V16C6 16.5523 5.55228 17 5 17C4.44772 17 4 16.5523 4 16V13H3V19ZM3 11H21V5H3V11Z" fill="#9E9E9E"/>
</g>
</svg>
