<svg width="24" height="24" viewBox="0 0 24 24" fill="none" xmlns="http://www.w3.org/2000/svg">
<g id="icons/Music/playback-progress">
<path id="Union" d="M7 17.5C8.0249 17.5 8.90411 18.1174 9.29004 19H21C21.5523 19 22 19.4477 22 20C22 20.5523 21.5523 21 21 21H9.29004C8.90411 21.8826 8.0249 22.5 7 22.5C5.9751 22.5 5.09589 21.8826 4.70996 21H3C2.44772 21 2 20.5523 2 20C2 19.4477 2.44772 19 3 19H4.70996C5.09589 18.1174 5.9751 17.5 7 17.5ZM7 19.5C6.72383 19.5 6.5 19.7238 6.5 20C6.5 20.2762 6.72383 20.5 7 20.5C7.27617 20.5 7.5 20.2762 7.5 20C7.5 19.7238 7.27617 19.5 7 19.5ZM22 1.5C22.5523 1.5 23 1.94772 23 2.5V15.5C23 16.0523 22.5523 16.5 22 16.5H2C1.44772 16.5 1 16.0523 1 15.5V2.5C1 1.94772 1.44772 1.5 2 1.5H22ZM3 14.5H21V3.5H3V14.5ZM10.5283 6.11816C10.8534 5.94426 11.2479 5.96344 11.5547 6.16797L14.5547 8.16797C14.8329 8.35343 15 8.66565 15 9C15 9.33435 14.8329 9.64657 14.5547 9.83203L11.5547 11.832C11.2479 12.0366 10.8534 12.0557 10.5283 11.8818C10.2032 11.7078 10 11.3688 10 11V7L10.0098 6.86328C10.0531 6.54904 10.2438 6.27041 10.5283 6.11816ZM12 9.13086L12.1973 9L12 8.86816V9.13086Z" fill="#9E9E9E"/>
</g>
</svg>
