<svg width="24" height="24" viewBox="0 0 24 24" fill="none" xmlns="http://www.w3.org/2000/svg">
<g id="icons/Music/play-wrong">
<path id="Union" d="M12 1C18.0751 1 23 5.92487 23 12C23 12.5523 22.5523 13 22 13C21.4477 13 21 12.5523 21 12C21 7.02943 16.9706 3 12 3C7.02943 3 3 7.02943 3 12C3 16.9706 7.02943 21 12 21C12.5523 21 13 21.4477 13 22C13 22.5523 12.5523 23 12 23C5.92487 23 1 18.0751 1 12C1 5.92487 5.92487 1 12 1ZM19.793 15.793C20.1835 15.4024 20.8165 15.4024 21.207 15.793C21.5976 16.1835 21.5976 16.8165 21.207 17.207L19.9141 18.5L21.207 19.793C21.5976 20.1835 21.5976 20.8165 21.207 21.207C20.8165 21.5976 20.1835 21.5976 19.793 21.207L18.5 19.9141L17.207 21.207C16.8165 21.5976 16.1835 21.5976 15.793 21.207C15.4024 20.8165 15.4024 20.1835 15.793 19.793L17.0859 18.5L15.793 17.207C15.4024 16.8165 15.4024 16.1835 15.793 15.793C16.1835 15.4024 16.8165 15.4024 17.207 15.793L18.5 17.0859L19.793 15.793ZM9.5 7.66992C9.80936 7.49135 10.1906 7.49135 10.5 7.66992L13.5 9.40234L16.5 11.1338C16.8093 11.3124 16.9999 11.6428 17 12C17 12.3573 16.8094 12.6876 16.5 12.8662L13.5 14.5986L10.5 16.3301C10.1906 16.5087 9.8094 16.5087 9.5 16.3301C9.19067 16.1514 9 15.8211 9 15.4639V8.53613C9 8.17887 9.1906 7.84855 9.5 7.66992ZM11 13.7324L14 12L11 10.2676V13.7324Z" fill="#9E9E9E"/>
</g>
</svg>
