<svg width="24" height="24" viewBox="0 0 24 24" fill="none" xmlns="http://www.w3.org/2000/svg">
<g id="icons/Music/play">
<path id="Union" d="M12 1C18.0751 1 23 5.92487 23 12C23 18.0751 18.0751 23 12 23C5.92487 23 1 18.0751 1 12C1 5.92487 5.92487 1 12 1ZM12 3C7.02943 3 3 7.02943 3 12C3 16.9706 7.02943 21 12 21C16.9706 21 21 16.9706 21 12C21 7.02943 16.9706 3 12 3ZM9.5 7.66992C9.80936 7.49135 10.1906 7.49135 10.5 7.66992L13.5 9.40234L16.5 11.1338C16.8093 11.3124 16.9999 11.6428 17 12C17 12.3573 16.8094 12.6876 16.5 12.8662L13.5 14.5986L10.5 16.3301C10.1906 16.5087 9.8094 16.5087 9.5 16.3301C9.19067 16.1514 9 15.8211 9 15.4639V8.53613C9 8.17887 9.1906 7.84855 9.5 7.66992ZM11 13.7324L14 12L11 10.2676V13.7324Z" fill="#9E9E9E"/>
</g>
</svg>
