<svg width="24" height="24" viewBox="0 0 24 24" fill="none" xmlns="http://www.w3.org/2000/svg">
<g id="icons/Music/ppt">
<path id="Union" d="M22 3C22.5523 3 23 3.44772 23 4C23 4.55228 22.5523 5 22 5H21V17C21 17.5523 20.5523 18 20 18H14.4141L16.707 20.293C17.0976 20.6835 17.0976 21.3165 16.707 21.707C16.3165 22.0976 15.6835 22.0976 15.293 21.707L12 18.4141L8.70703 21.707C8.31651 22.0976 7.68349 22.0976 7.29297 21.707C6.90244 21.3165 6.90244 20.6835 7.29297 20.293L9.58594 18H4C3.44772 18 3 17.5523 3 17V5H2C1.44772 5 1 4.55228 1 4C1 3.44772 1.44772 3 2 3H22ZM5 16H19V5H5V16ZM10.293 7.29297C10.6835 6.90244 11.3165 6.90244 11.707 7.29297L14.207 9.79297C14.5976 10.1835 14.5976 10.8165 14.207 11.207L11.707 13.707C11.3165 14.0976 10.6835 14.0976 10.293 13.707C9.90244 13.3165 9.90244 12.6835 10.293 12.293L12.0859 10.5L10.293 8.70703C9.90244 8.31651 9.90244 7.68349 10.293 7.29297Z" fill="#9E9E9E"/>
</g>
</svg>
