<svg width="24" height="24" viewBox="0 0 24 24" fill="none" xmlns="http://www.w3.org/2000/svg">
<g id="icons/Music/record">
<path id="Union" d="M20.5 8C21.6046 8 22.5 8.89543 22.5 10V20C22.5 21.1046 21.6046 22 20.5 22H3.5C2.39543 22 1.5 21.1046 1.5 20V10C1.5 8.89543 2.39543 8 3.5 8H20.5ZM3.5 20H20.5V10H3.5V20ZM13 11C13.062 11 13.1227 11.0058 13.1816 11.0166L15.6963 11.5195C16.2377 11.6279 16.5888 12.1548 16.4805 12.6963C16.3721 13.2377 15.8452 13.5888 15.3037 13.4805L14 13.2197V16.625C14 17.9798 12.8628 19 11.5596 19H10.4404C9.13719 19 8 17.9798 8 16.625V16.375C8 15.0202 9.13719 14 10.4404 14H12V12C12 11.7587 12.0852 11.537 12.2275 11.3643C12.2811 11.2993 12.3427 11.2416 12.4102 11.1924C12.4217 11.184 12.4334 11.1759 12.4453 11.168C12.4855 11.1412 12.5276 11.1174 12.5713 11.0967C12.6135 11.0766 12.6569 11.058 12.7021 11.0439C12.7955 11.0148 12.8943 11.0004 12.9951 11H13ZM10.4404 16C10.1531 16 10 16.2115 10 16.375V16.625C10 16.7885 10.1531 17 10.4404 17H11.5596C11.8469 17 12 16.7885 12 16.625V16H10.4404ZM20 5C20.5523 5 21 5.44772 21 6C21 6.55228 20.5523 7 20 7H4C3.44772 7 3 6.55228 3 6C3 5.44772 3.44772 5 4 5H20ZM16.5 2C17.0523 2 17.5 2.44772 17.5 3C17.5 3.55228 17.0523 4 16.5 4H7.5C6.94772 4 6.5 3.55228 6.5 3C6.5 2.44772 6.94772 2 7.5 2H16.5Z" fill="#9E9E9E"/>
</g>
</svg>
