<svg width="24" height="24" viewBox="0 0 24 24" fill="none" xmlns="http://www.w3.org/2000/svg">
<g id="icons/Music/remind-disable">
<path id="Union" d="M12 1C16.4183 1 20 4.58172 20 9V18H22C22.5523 18 23 18.4477 23 19C23 19.5523 22.5523 20 22 20H15.4639C15.2212 21.6961 13.7632 23 12 23C10.2368 23 8.77879 21.6961 8.53613 20H2C1.44772 20 1 19.5523 1 19C1 18.4477 1.44772 18 2 18H4V9C4 4.58172 7.58172 1 12 1ZM10.5869 20C10.793 20.5823 11.3471 21 12 21C12.6529 21 13.207 20.5823 13.4131 20H10.5869Z" fill="#9E9E9E"/>
</g>
</svg>
