<svg width="24" height="24" viewBox="0 0 24 24" fill="none" xmlns="http://www.w3.org/2000/svg">
<g id="icons/Music/signal-strength">
<path id="Union" d="M11.9999 9C13.6567 9 14.9998 10.3432 14.9999 12C14.9999 13.3057 14.1644 14.413 12.9999 14.8252V21H13.9999C14.5521 21 14.9998 21.4478 14.9999 22C14.9999 22.5523 14.5522 23 13.9999 23H9.99988C9.44766 22.9999 8.99988 22.5522 8.99988 22C8.99995 21.4478 9.44771 21.0001 9.99988 21H10.9999V14.8252C9.83546 14.4129 8.99988 13.3057 8.99988 12C8.99996 10.3433 10.3432 9.00008 11.9999 9ZM4.22156 4.22168C8.5173 -0.0740328 15.4824 -0.0739427 19.7782 4.22168C24.074 8.51747 24.074 15.4825 19.7782 19.7783C19.3878 20.1688 18.7547 20.1686 18.3641 19.7783C17.9738 19.3878 17.9737 18.7547 18.3641 18.3643C21.8789 14.8495 21.8789 9.15049 18.3641 5.63574C14.8494 2.12117 9.15032 2.12107 5.63562 5.63574C2.12095 9.15044 2.12105 14.8495 5.63562 18.3643C6.02613 18.7548 6.02614 19.3878 5.63562 19.7783C5.24508 20.1686 4.61201 20.1688 4.22156 19.7783C-0.0740647 15.4825 -0.0741549 8.51743 4.22156 4.22168ZM7.04968 7.0498C9.78331 4.31618 14.2164 4.31627 16.9501 7.0498C19.6837 9.78348 19.6837 14.2165 16.9501 16.9502C16.5596 17.3407 15.9256 17.3407 15.535 16.9502C15.1447 16.5597 15.1446 15.9256 15.535 15.5352C17.4877 13.5825 17.4877 10.4175 15.535 8.46484C13.5824 6.51236 10.4173 6.51227 8.46472 8.46484C6.51214 10.4174 6.51224 13.5825 8.46472 15.5352C8.85525 15.9257 8.85525 16.5597 8.46472 16.9502C8.0742 17.3407 7.4402 17.3407 7.04968 16.9502C4.31615 14.2165 4.31606 9.78343 7.04968 7.0498Z" fill="#9E9E9E"/>
</g>
</svg>
