<svg width="24" height="24" viewBox="0 0 24 24" fill="none" xmlns="http://www.w3.org/2000/svg">
<g id="icons/Music/sound-wave">
<path id="Union" d="M21 16C21.5523 16 22 16.4477 22 17V18C22 20.2091 20.2091 22 18 22H6C3.79086 22 2 20.2091 2 18V17C2 16.4477 2.44772 16 3 16C3.55228 16 4 16.4477 4 17V18C4 19.1046 4.89543 20 6 20H18C19.1046 20 20 19.1046 20 18V17C20 16.4477 20.4477 16 21 16ZM12 6.5C12.5523 6.5 13 6.94772 13 7.5V16.5C13 17.0523 12.5523 17.5 12 17.5C11.4477 17.5 11 17.0523 11 16.5V7.5C11 6.94772 11.4477 6.5 12 6.5ZM8 8C8.55228 8 9 8.44772 9 9V15C9 15.5523 8.55228 16 8 16C7.44772 16 7 15.5523 7 15V9C7 8.44772 7.44772 8 8 8ZM16 8C16.5523 8 17 8.44772 17 9V15C17 15.5523 16.5523 16 16 16C15.4477 16 15 15.5523 15 15V9C15 8.44772 15.4477 8 16 8ZM4 9C4.55228 9 5 9.44772 5 10V14C5 14.5523 4.55228 15 4 15C3.44772 15 3 14.5523 3 14V10C3 9.44772 3.44772 9 4 9ZM20 9C20.5523 9 21 9.44772 21 10V14C21 14.5523 20.5523 15 20 15C19.4477 15 19 14.5523 19 14V10C19 9.44772 19.4477 9 20 9ZM18 2C20.2091 2 22 3.79086 22 6V7C22 7.55228 21.5523 8 21 8C20.4477 8 20 7.55228 20 7V6C20 4.89543 19.1046 4 18 4H6C4.89543 4 4 4.89543 4 6V7C4 7.55228 3.55228 8 3 8C2.44772 8 2 7.55228 2 7V6C2 3.79086 3.79086 2 6 2H18Z" fill="#9E9E9E"/>
</g>
</svg>
