<svg width="24" height="24" viewBox="0 0 24 24" fill="none" xmlns="http://www.w3.org/2000/svg">
<g id="icons/Music/tape">
<path id="Union" d="M21 4C21.0359 4 21.0715 4.00119 21.1064 4.00488C22.1615 4.06026 23 4.93116 23 6V18C23 19.1046 22.1046 20 21 20H3C1.89544 20 1 19.1046 1 18V6C1 4.93148 1.83801 4.06075 2.89258 4.00488C2.92784 4.00112 2.96374 4 3 4H21ZM3 18H21V6H18.8672C18.8696 6.43981 18.7263 6.89028 18.4014 7.28027L17.5674 8.28027C17.1874 8.73622 16.6247 9 16.0312 9H7.96777C7.37438 8.99992 6.8116 8.73622 6.43164 8.28027L5.59863 7.28027C5.27367 6.89028 5.13054 6.43981 5.13281 6H3V18ZM7.5 10.5C9.15683 10.5 10.5 11.8432 10.5 13.5C10.5 15.1568 9.15683 16.5 7.5 16.5C5.84317 16.5 4.5 15.1568 4.5 13.5C4.5 11.8432 5.84317 10.5 7.5 10.5ZM16.5 10.5C18.1568 10.5 19.5 11.8432 19.5 13.5C19.5 15.1568 18.1568 16.5 16.5 16.5C14.8432 16.5 13.5 15.1568 13.5 13.5C13.5 11.8432 14.8432 10.5 16.5 10.5ZM7.5 12.5C6.94773 12.5 6.5 12.9477 6.5 13.5C6.5 14.0523 6.94773 14.5 7.5 14.5C8.05227 14.5 8.5 14.0523 8.5 13.5C8.5 12.9477 8.05227 12.5 7.5 12.5ZM16.5 12.5C15.9477 12.5 15.5 12.9477 15.5 13.5C15.5 14.0523 15.9477 14.5 16.5 14.5C17.0523 14.5 17.5 14.0523 17.5 13.5C17.5 12.9477 17.0523 12.5 16.5 12.5ZM7.96777 7H16.0312L16.8643 6H7.13477L7.96777 7Z" fill="#9E9E9E"/>
</g>
</svg>
