<svg width="24" height="24" viewBox="0 0 24 24" fill="none" xmlns="http://www.w3.org/2000/svg">
<g id="icons/Music/video">
<path id="Union" d="M21 3C22.1046 3 23 3.89544 23 5V19C23 20.1046 22.1046 21 21 21H3C1.89544 21 1 20.1046 1 19V5C1 3.89543 1.89543 3 3 3H21ZM3 19H5V16H3V19ZM7 19H17V5H7V19ZM19 19H21V16H19V19ZM10.0156 8.625C10.3335 8.44903 10.7222 8.45977 11.0303 8.65234L15.0303 11.1523C15.3224 11.3351 15.5 11.6553 15.5 12C15.5 12.3447 15.3224 12.6649 15.0303 12.8477L11.0303 15.3477C10.7222 15.5402 10.3335 15.551 10.0156 15.375C9.69767 15.1988 9.5 14.8635 9.5 14.5V9.5L9.50879 9.36523C9.5509 9.05519 9.73741 8.7792 10.0156 8.625ZM3 14H5V10H3V14ZM19 14H21V10H19V14ZM11.5 12.6953L12.6133 12L11.5 11.3037V12.6953ZM3 8H5V5H3V8ZM19 8H21V5H19V8Z" fill="#9E9E9E"/>
</g>
</svg>
