<svg width="24" height="24" viewBox="0 0 24 24" fill="none" xmlns="http://www.w3.org/2000/svg">
<g id="icons/Music/voice-one">
<path id="Union" d="M12 1C18.0751 1 23 5.92487 23 12C23 18.0751 18.0751 23 12 23C5.92487 23 1 18.0751 1 12C1 5.92487 5.92487 1 12 1ZM12 3C7.02943 3 3 7.02943 3 12C3 16.9706 7.02943 21 12 21C16.9706 21 21 16.9706 21 12C21 7.02943 16.9706 3 12 3ZM12 6C12.5523 6 13 6.44772 13 7V17C13 17.5523 12.5523 18 12 18C11.4477 18 11 17.5523 11 17V7C11 6.44772 11.4477 6 12 6ZM9 8C9.55229 8 10 8.44772 10 9V15C10 15.5523 9.55229 16 9 16C8.44772 16 8 15.5523 8 15V9C8 8.44772 8.44772 8 9 8ZM15 8C15.5523 8 16 8.44772 16 9V15C16 15.5523 15.5523 16 15 16C14.4477 16 14 15.5523 14 15V9C14 8.44772 14.4477 8 15 8ZM6 10C6.55228 10 7 10.4477 7 11V13C7 13.5523 6.55228 14 6 14C5.44772 14 5 13.5523 5 13V11C5 10.4477 5.44772 10 6 10ZM18 10C18.5523 10 19 10.4477 19 11V13C19 13.5523 18.5523 14 18 14C17.4477 14 17 13.5523 17 13V11C17 10.4477 17.4477 10 18 10Z" fill="#9E9E9E"/>
</g>
</svg>
