<svg width="24" height="24" viewBox="0 0 24 24" fill="none" xmlns="http://www.w3.org/2000/svg">
<g id="icons/Music/voice">
<path id="Union" d="M19.5 10.5C20.0523 10.5 20.5 10.9477 20.5 11.5C20.5 15.856 17.2231 19.4444 13 19.9395V22C13 22.5523 12.5523 23 12 23C11.4477 23 11 22.5523 11 22V19.9395C6.77695 19.4444 3.5 15.856 3.5 11.5C3.5 10.9477 3.94772 10.5 4.5 10.5C5.05228 10.5 5.5 10.9477 5.5 11.5C5.5 15.0899 8.41013 18 12 18C15.5899 18 18.5 15.0899 18.5 11.5C18.5 10.9477 18.9477 10.5 19.5 10.5ZM12 1C14.4853 1 16.5 3.01472 16.5 5.5V12C16.5 14.4853 14.4853 16.5 12 16.5C9.51472 16.5 7.5 14.4853 7.5 12V5.5C7.5 3.01472 9.51472 1 12 1ZM12 3C10.6193 3 9.5 4.11929 9.5 5.5V12C9.5 13.3807 10.6193 14.5 12 14.5C13.3807 14.5 14.5 13.3807 14.5 12V5.5C14.5 4.11929 13.3807 3 12 3Z" fill="#9E9E9E"/>
</g>
</svg>
