<svg width="24" height="24" viewBox="0 0 24 24" fill="none" xmlns="http://www.w3.org/2000/svg">
<g id="icons/Music/voicemail">
<path id="Union" d="M18.5 7.5C20.9853 7.5 23 9.51472 23 12C23 14.4853 20.9853 16.5 18.5 16.5C18.3856 16.5 18.2724 16.4937 18.1602 16.4854C18.1079 16.4938 18.0546 16.5 18 16.5H6C5.94505 16.5 5.89141 16.4939 5.83887 16.4854C5.72695 16.4937 5.61405 16.5 5.5 16.5C3.01472 16.5 1 14.4853 1 12C1 9.51471 3.01472 7.5 5.5 7.5C7.98528 7.5 10 9.51472 10 12C10 12.9253 9.72004 13.7849 9.24121 14.5H14.7588C14.28 13.7849 14 12.9253 14 12C14 9.51472 16.0147 7.5 18.5 7.5ZM5.5 9.5C4.11929 9.5 3 10.6193 3 12C3 13.3807 4.11929 14.5 5.5 14.5C6.88072 14.5 8 13.3807 8 12C8 10.6193 6.88072 9.5 5.5 9.5ZM18.5 9.5C17.1193 9.5 16 10.6193 16 12C16 13.3807 17.1193 14.5 18.5 14.5C19.8807 14.5 21 13.3807 21 12C21 10.6193 19.8807 9.5 18.5 9.5Z" fill="#9E9E9E"/>
</g>
</svg>
