<svg width="24" height="24" viewBox="0 0 24 24" fill="none" xmlns="http://www.w3.org/2000/svg">
<g id="icons/Music/voice-off">
<path id="Union" d="M4.50012 10.5C5.05237 10.5 5.50012 10.9477 5.50012 11.5C5.50012 15.0899 8.41026 18 12.0001 18C12.7616 18 13.4907 17.8699 14.1671 17.6309C14.6878 17.4469 15.2585 17.7195 15.4425 18.2402C15.6265 18.7609 15.3538 19.3316 14.8331 19.5156C14.2483 19.7223 13.6344 19.8648 13.0001 19.9395V22C13.0001 22.5523 12.5524 23 12.0001 23C11.4478 23 11.0001 22.5523 11.0001 22V19.9395C6.77704 19.4444 3.50012 15.8561 3.50012 11.5C3.50012 10.9477 3.94784 10.5 4.50012 10.5ZM12.0001 1C14.4854 1.00004 16.5001 3.01475 16.5001 5.5V12C16.5001 12.8804 16.2457 13.7009 15.8087 14.3945L21.7072 20.293C22.0976 20.6835 22.0976 21.3165 21.7072 21.707C21.3166 22.0975 20.6836 22.0975 20.2931 21.707L14.3947 15.8086C13.701 16.2456 12.8806 16.5 12.0001 16.5C9.51484 16.5 7.50012 14.4853 7.50012 12V8.91406L2.29309 3.70703C1.90257 3.31651 1.90257 2.68349 2.29309 2.29297C2.68362 1.90248 3.31664 1.90246 3.70715 2.29297L7.50012 6.08594V5.5C7.50012 3.01472 9.51484 1 12.0001 1ZM19.5001 10.5C20.0524 10.5 20.5001 10.9477 20.5001 11.5C20.5001 12.707 20.2476 13.8578 19.7921 14.9004C19.571 15.4064 18.9817 15.6371 18.4757 15.416C17.9697 15.1949 17.739 14.6057 17.9601 14.0996C18.3073 13.3048 18.5001 12.4262 18.5001 11.5C18.5001 10.9477 18.9478 10.5 19.5001 10.5ZM9.50012 12C9.50012 13.3807 10.6194 14.5 12.0001 14.5C12.3221 14.5 12.6286 14.436 12.9113 14.3252L9.50012 10.9141V12ZM12.0001 3C10.6194 3 9.50012 4.11929 9.50012 5.5V8.08594L14.3253 12.9111C14.4362 12.6285 14.5001 12.3219 14.5001 12V5.5C14.5001 4.11931 13.3808 3.00004 12.0001 3Z" fill="#9E9E9E"/>
</g>
</svg>
