<svg width="24" height="24" viewBox="0 0 24 24" fill="none" xmlns="http://www.w3.org/2000/svg">
<g id="icons/Music/volume-small">
<path id="Union" d="M12 2C12.5523 2 13 2.44772 13 3V21C13 21.5523 12.5523 22 12 22C9.82378 22 8.04892 20.5953 6.91211 19.3984C6.32418 18.7795 5.85785 18.1646 5.53906 17.7061C5.46725 17.6027 5.40293 17.5067 5.3457 17.4199H3C1.96448 17.4199 1.11317 16.6325 1.01074 15.624L1 15.4199V8.50586C1 7.40126 1.89544 6.50586 3 6.50586H5.35059C5.40781 6.42055 5.47218 6.32615 5.54395 6.22461C5.86311 5.773 6.32959 5.16691 6.91797 4.55762C8.05717 3.37801 9.83051 2 12 2ZM11 4.1582C10.0367 4.45698 9.12951 5.14673 8.35645 5.94727C7.85713 6.46432 7.45461 6.98575 7.17676 7.37891C7.0386 7.5744 6.93321 7.73616 6.86328 7.84668C6.82833 7.90191 6.80158 7.94445 6.78516 7.97168C6.77735 7.98463 6.77195 7.99424 6.76855 8C6.76754 8.00173 6.76523 8.00291 6.76465 8.00391L6.76562 8.00488C6.58703 8.31427 6.25664 8.5058 5.89941 8.50586H3V15.4199H5.89941L6.03223 15.4287C6.33938 15.4699 6.61302 15.6519 6.76855 15.9258V15.9248C6.76903 15.9256 6.76987 15.9279 6.77148 15.9307C6.77492 15.9366 6.78082 15.947 6.78906 15.9609C6.80556 15.9887 6.83217 16.0316 6.86719 16.0879C6.93731 16.2006 7.04321 16.3653 7.18164 16.5645C7.45986 16.9647 7.86259 17.4954 8.3623 18.0215C9.13597 18.8359 10.0414 19.5343 11 19.8379V4.1582ZM15.2539 6.83398C15.6217 6.42208 16.2541 6.38617 16.666 6.75391C17.0303 7.0792 17.36 7.44361 17.6494 7.83984C18.4986 9.00253 19 10.4439 19 12C19 13.5426 18.5076 14.9725 17.6719 16.1299C17.3773 16.5378 17.0396 16.9125 16.666 17.2461C16.2541 17.6138 15.6217 17.5779 15.2539 17.166C14.8862 16.7541 14.9221 16.1217 15.334 15.7539C15.5994 15.5169 15.8395 15.2502 16.0498 14.959C16.6457 14.1338 17 13.1118 17 12C17 10.8785 16.6396 9.84842 16.0342 9.01953C15.8276 8.73671 15.5928 8.47727 15.334 8.24609C14.9221 7.87827 14.8862 7.24593 15.2539 6.83398Z" fill="#9E9E9E"/>
</g>
</svg>
