<svg width="24" height="24" viewBox="0 0 24 24" fill="none" xmlns="http://www.w3.org/2000/svg">
<g id="icons/Music/waves-left">
<path id="Union" d="M7.5 1C8.05228 1 8.5 1.44772 8.5 2V22C8.5 22.5523 8.05228 23 7.5 23C6.94772 23 6.5 22.5523 6.5 22V2C6.5 1.44772 6.94772 1 7.5 1ZM16.5 4.5C17.0523 4.5 17.5 4.94772 17.5 5.5V18.5C17.5 19.0523 17.0523 19.5 16.5 19.5C15.9477 19.5 15.5 19.0523 15.5 18.5V5.5C15.5 4.94772 15.9477 4.5 16.5 4.5ZM3 7.5C3.55228 7.5 4 7.94772 4 8.5V15.5C4 16.0523 3.55228 16.5 3 16.5C2.44772 16.5 2 16.0523 2 15.5V8.5C2 7.94772 2.44772 7.5 3 7.5ZM12 7.5C12.5523 7.5 13 7.94772 13 8.5V15.5C13 16.0523 12.5523 16.5 12 16.5C11.4477 16.5 11 16.0523 11 15.5V8.5C11 7.94772 11.4477 7.5 12 7.5ZM21 8C21.5523 8 22 8.44772 22 9V15C22 15.5523 21.5523 16 21 16C20.4477 16 20 15.5523 20 15V9C20 8.44772 20.4477 8 21 8Z" fill="#9E9E9E"/>
</g>
</svg>
