<svg width="24" height="24" viewBox="0 0 24 24" fill="none" xmlns="http://www.w3.org/2000/svg">
<g id="icons/Music/waves-right">
<path id="Union" d="M16.5 1C17.0523 1 17.5 1.44772 17.5 2V22C17.5 22.5523 17.0523 23 16.5 23C15.9477 23 15.5 22.5523 15.5 22V2C15.5 1.44772 15.9477 1 16.5 1ZM3 4.5C3.55228 4.5 4 4.94772 4 5.5V18.5C4 19.0523 3.55228 19.5 3 19.5C2.44772 19.5 2 19.0523 2 18.5V5.5C2 4.94772 2.44772 4.5 3 4.5ZM12 4.5C12.5523 4.5 13 4.94772 13 5.5V18.5C13 19.0523 12.5523 19.5 12 19.5C11.4477 19.5 11 19.0523 11 18.5V5.5C11 4.94772 11.4477 4.5 12 4.5ZM21 6.5C21.5523 6.5 22 6.94772 22 7.5V16.5C22 17.0523 21.5523 17.5 21 17.5C20.4477 17.5 20 17.0523 20 16.5V7.5C20 6.94772 20.4477 6.5 21 6.5ZM7.5 8C8.05228 8 8.5 8.44772 8.5 9V15C8.5 15.5523 8.05228 16 7.5 16C6.94772 16 6.5 15.5523 6.5 15V9C6.5 8.44772 6.94772 8 7.5 8Z" fill="#9E9E9E"/>
</g>
</svg>
