<svg width="24" height="24" viewBox="0 0 24 24" fill="none" xmlns="http://www.w3.org/2000/svg">
<g id="icons/Hardware/add-computer">
<path id="Union" d="M12.5 2C13.0523 2 13.5 2.44772 13.5 3C13.5 3.55228 13.0523 4 12.5 4H4.5C4.22386 4 4 4.22386 4 4.5V15.5C4 15.7762 4.22385 16 4.5 16H19.5C19.7762 16 20 15.7762 20 15.5V11.5C20 10.9477 20.4477 10.5 21 10.5C21.5523 10.5 22 10.9477 22 11.5V15.5C22 16.8807 20.8807 18 19.5 18H13V20H17C17.5523 20 18 20.4477 18 21C18 21.5523 17.5523 22 17 22H7C6.44772 22 6 21.5523 6 21C6 20.4477 6.44772 20 7 20H11V18H4.5C3.1193 18 2 16.8807 2 15.5V4.5C2 3.11929 3.11929 2 4.5 2H12.5ZM18 2C18.5523 2 19 2.44772 19 3V5H21C21.5523 5 22 5.44772 22 6C22 6.55228 21.5523 7 21 7H19V9C19 9.55228 18.5523 10 18 10C17.4477 10 17 9.55228 17 9V7H15C14.4477 7 14 6.55228 14 6C14 5.44772 14.4477 5 15 5H17V3C17 2.44772 17.4477 2 18 2Z" fill="#9E9E9E"/>
</g>
</svg>
