<svg width="24" height="24" viewBox="0 0 24 24" fill="none" xmlns="http://www.w3.org/2000/svg">
<g id="icons/Hardware/air-conditioning">
<path id="Union" d="M12 16C12.5523 16 13 16.4477 13 17V20C13 20.5523 12.5523 21 12 21C11.4477 21 11 20.5523 11 20V17C11 16.4477 11.4477 16 12 16ZM8 17C8.55228 17 9 17.4477 9 18V19C9 19.5523 8.55228 20 8 20C7.44772 20 7 19.5523 7 19V18C7 17.4477 7.44772 17 8 17ZM16 17C16.5523 17 17 17.4477 17 18V19C17 19.5523 16.5523 20 16 20C15.4477 20 15 19.5523 15 19V18C15 17.4477 15.4477 17 16 17ZM21 3C22.1046 3 23 3.89543 23 5V13C23 14.1046 22.1046 15 21 15H3C1.89543 15 1 14.1046 1 13V5C1 3.89543 1.89543 3 3 3H21ZM3 13H5V10C5 9.44772 5.44772 9 6 9H18C18.5523 9 19 9.44772 19 10V13H21V5H3V13ZM7 13H17V11H7V13ZM18 6C18.5523 6 19 6.44772 19 7C19 7.55228 18.5523 8 18 8H16C15.4477 8 15 7.55228 15 7C15 6.44772 15.4477 6 16 6H18Z" fill="#9E9E9E"/>
</g>
</svg>
