<svg width="24" height="24" viewBox="0 0 24 24" fill="none" xmlns="http://www.w3.org/2000/svg">
<g id="icons/Hardware/airplay">
<path id="Union" d="M11.3691 15.2246C11.7619 14.9043 12.3409 14.9269 12.707 15.293L17.707 20.293C17.993 20.579 18.0786 21.0091 17.9238 21.3828C17.769 21.7564 17.4044 22 17 22H7C6.59558 22 6.23098 21.7564 6.07617 21.3828C5.92139 21.0091 6.00697 20.579 6.29297 20.293L11.293 15.293L11.3691 15.2246ZM9.41406 20H14.5859L12 17.4141L9.41406 20ZM21 2.00684C22.1042 2.00684 23 2.90209 23 4.00684V17.5068C23 18.0591 22.5523 18.5068 22 18.5068H18C17.4477 18.5068 17 18.0591 17 17.5068C17 16.9546 17.4477 16.5068 18 16.5068H21V4.00684H3V16.5068H6C6.55228 16.5068 6.99999 16.9546 7 17.5068C7 18.0591 6.55228 18.5068 6 18.5068H2C1.44772 18.5068 1 18.0591 1 17.5068V4.00684C1 2.90208 1.89587 2.00684 3 2.00684H21Z" fill="#9E9E9E"/>
</g>
</svg>
