<svg width="24" height="24" viewBox="0 0 24 24" fill="none" xmlns="http://www.w3.org/2000/svg">
<g id="icons/Hardware/asterisk-key">
<path id="Union" d="M19.5 2C20.8807 2 22 3.11929 22 4.5V19.5C22 20.8807 20.8807 22 19.5 22H4.5C3.11929 22 2 20.8807 2 19.5V4.5C2 3.11929 3.11929 2 4.5 2H19.5ZM4.5 4C4.22386 4 4 4.22386 4 4.5V19.5C4 19.7761 4.22386 20 4.5 20H19.5C19.7761 20 20 19.7761 20 19.5V4.5C20 4.22386 19.7761 4 19.5 4H4.5ZM12 7C12.5523 7 13 7.44772 13 8V10.0791L14.7031 8.88672C15.1555 8.56994 15.7789 8.68041 16.0957 9.13281C16.4124 9.5852 16.3029 10.2086 15.8506 10.5254L13.7432 12L15.8506 13.4756C16.3029 13.7924 16.4124 14.4158 16.0957 14.8682C15.7789 15.3204 15.1555 15.4309 14.7031 15.1143L13 13.9209V16C13 16.5523 12.5523 17 12 17C11.4477 17 11 16.5523 11 16V13.9209L9.29688 15.1143C8.84451 15.4307 8.22097 15.3204 7.9043 14.8682C7.58763 14.4158 7.69803 13.7923 8.15039 13.4756L10.2568 12L8.15039 10.5254C7.69809 10.2087 7.58779 9.58519 7.9043 9.13281C8.221 8.68051 8.84449 8.57021 9.29688 8.88672L11 10.0791V8C11 7.44772 11.4477 7 12 7Z" fill="#9E9E9E"/>
</g>
</svg>
