<svg width="24" height="24" viewBox="0 0 24 24" fill="none" xmlns="http://www.w3.org/2000/svg">
<g id="icons/Hardware/battery-storage">
<path id="Union" d="M13 1C13.5523 1 14 1.44771 14 2V3H16C17.1046 3 18 3.89543 18 5V21C18 22.1046 17.1046 23 16 23H8C6.89543 23 6 22.1046 6 21V5C6 3.89543 6.89543 3 8 3H10V2C10 1.44771 10.4477 1 11 1H13ZM8 21H16V5H8V21ZM11.6055 8.55273C11.8525 8.05876 12.4533 7.85848 12.9473 8.10547C13.4412 8.35246 13.6415 8.95329 13.3945 9.44727L11.8662 12.5029L13.7578 12.0303C14.1366 11.9357 14.536 12.0695 14.7803 12.374C15.0246 12.6787 15.0692 13.098 14.8945 13.4473L12.3945 18.4473C12.1475 18.9412 11.5467 19.1415 11.0527 18.8945C10.5588 18.6475 10.3585 18.0467 10.6055 17.5527L12.1328 14.4961L10.2422 14.9697C9.8634 15.0643 9.46405 14.9305 9.21973 14.626C8.97536 14.3213 8.93082 13.902 9.10547 13.5527L11.6055 8.55273Z" fill="#9E9E9E"/>
</g>
</svg>
