<svg width="24" height="24" viewBox="0 0 24 24" fill="none" xmlns="http://www.w3.org/2000/svg">
<g id="icons/Hardware/battery-tips">
<path id="Union" d="M13 1C13.5523 1 14 1.44771 14 2V3H16C17.1046 3 18 3.89543 18 5V21C18 22.1046 17.1046 23 16 23H8C6.89543 23 6 22.1046 6 21V5C6 3.89543 6.89543 3 8 3H10V2C10 1.44771 10.4477 1 11 1H13ZM8 21H16V5H8V21ZM12 16C12.5523 16 13 16.4477 13 17C13 17.5523 12.5523 18 12 18C11.4477 18 11 17.5523 11 17C11 16.4477 11.4477 16 12 16ZM12 8C12.5523 8 13 8.44772 13 9V14C13 14.5523 12.5523 15 12 15C11.4477 15 11 14.5523 11 14V9C11 8.44772 11.4477 8 12 8Z" fill="#9E9E9E"/>
</g>
</svg>
