<svg width="24" height="24" viewBox="0 0 24 24" fill="none" xmlns="http://www.w3.org/2000/svg">
<g id="icons/Hardware/battery-failure">
<path id="Union" d="M13 1C13.5523 1 14 1.44771 14 2V3H16C17.1046 3 18 3.89543 18 5V21C18 22.1046 17.1046 23 16 23H8C6.89543 23 6 22.1046 6 21V5C6 3.89543 6.89543 3 8 3H10V2C10 1.44771 10.4477 1 11 1H13ZM8 21H16V5H8V21ZM12 16.5C12.6904 16.5 13.25 17.0596 13.25 17.75C13.25 18.4404 12.6904 19 12 19C11.3096 19 10.75 18.4404 10.75 17.75C10.75 17.0596 11.3096 16.5 12 16.5ZM12 8C13.7643 8 15 9.56904 15 11.25C15 12.5907 14.2133 13.8583 13 14.3174V15C13 15.5523 12.5523 16 12 16C11.4477 16 11 15.5523 11 15V13.5L11.0049 13.3975C11.0562 12.8933 11.4823 12.5 12 12.5C12.4448 12.5 13 12.0543 13 11.25C13 10.4457 12.4448 10 12 10C11.5552 10 11 10.4457 11 11.25C11 11.8023 10.5523 12.25 10 12.25C9.44772 12.25 9 11.8023 9 11.25C9 9.56904 10.2357 8 12 8Z" fill="#9E9E9E"/>
</g>
</svg>
