<svg width="24" height="24" viewBox="0 0 24 24" fill="none" xmlns="http://www.w3.org/2000/svg">
<g id="icons/Hardware/bike">
<path id="Union" d="M13.998 2C14.4284 2 14.8111 2.2753 14.9473 2.68359L16.2197 6.5H19.3799L20.0615 4.65332C20.2529 4.13537 20.8287 3.87032 21.3467 4.06152C21.8646 4.2529 22.1298 4.82865 21.9385 5.34668L21.0146 7.84668C20.8696 8.23914 20.4956 8.49986 20.0771 8.5H16.8857L17.7373 11.0537C17.9866 11.0191 18.2411 11 18.5 11C21.5376 11 24 13.4624 24 16.5C24 19.5376 21.5376 22 18.5 22C15.4624 22 13 19.5376 13 16.5C13 14.4274 14.1466 12.6231 15.8398 11.6855L15.3027 10.0771L9.90625 14.3252C10.2848 15.0507 10.5 15.875 10.5 16.75C10.5 19.6495 8.14948 22 5.25 22C2.3505 22 0 19.6495 0 16.75C0 13.8505 2.3505 11.5 5.25 11.5C6.1547 11.5 7.00594 11.7289 7.74902 12.1318L6.76172 8.98633H4C3.44772 8.98633 3 8.53861 3 7.98633C3 7.43404 3.44772 6.98633 4 6.98633H7.5C7.97564 6.98633 8.3723 7.31872 8.47363 7.76367L9.76855 11.8877L14.6309 8.06055L13.2773 4H9.49805C8.94576 4 8.49805 3.55228 8.49805 3C8.49805 2.44772 8.94576 2 9.49805 2H13.998ZM5.25 13.5C3.45508 13.5 2 14.9551 2 16.75C2 18.5449 3.45508 20 5.25 20C7.04492 20 8.5 18.5449 8.5 16.75C8.5 16.3445 8.42476 15.9566 8.28906 15.5986L6.14648 17.2861C5.71255 17.6275 5.08373 17.553 4.74219 17.1191C4.40056 16.6852 4.47621 16.0565 4.91016 15.7148L7.04004 14.0371C6.5267 13.6977 5.91146 13.5 5.25 13.5ZM18.3877 13.0029L19.4482 16.1836C19.6229 16.7074 19.34 17.2734 18.8164 17.4482C18.2925 17.6229 17.7255 17.3403 17.5508 16.8164L16.4893 13.6348C15.5885 14.268 15 15.3153 15 16.5C15 18.433 16.567 20 18.5 20C20.433 20 22 18.433 22 16.5C22 14.567 20.433 13 18.5 13C18.4624 13 18.425 13.0018 18.3877 13.0029Z" fill="#9E9E9E"/>
</g>
</svg>
