<svg width="24" height="24" viewBox="0 0 24 24" fill="none" xmlns="http://www.w3.org/2000/svg">
<g id="icons/Hardware/bolt-one">
<path id="Union" d="M14 1C14.5523 1 15 1.44772 15 2V5H17.8604C18.4897 5.00024 18.9998 5.51032 19 6.13965V12C19 15.5263 16.3921 18.4414 13 18.9268V20.5C13 20.7762 13.2238 21 13.5 21H19C19.5523 21 20 21.4477 20 22C20 22.5523 19.5523 23 19 23H13.5C12.1193 23 11 21.8807 11 20.5V18.9268C7.60787 18.4414 5 15.5263 5 12V6.13965C5.00024 5.51032 5.51032 5.00024 6.13965 5H9V2C9 1.44772 9.44772 1 10 1C10.5523 1 11 1.44772 11 2V5H13V2C13 1.44772 13.4477 1 14 1ZM7 12C7 14.7614 9.23858 17 12 17C14.7614 17 17 14.7614 17 12V7H7V12ZM13 12.5C13.5523 12.5 14 12.9477 14 13.5C14 14.0523 13.5523 14.5 13 14.5H11C10.4477 14.5 10 14.0523 10 13.5C10 12.9477 10.4477 12.5 11 12.5H13Z" fill="#9E9E9E"/>
</g>
</svg>
