<svg width="24" height="24" viewBox="0 0 24 24" fill="none" xmlns="http://www.w3.org/2000/svg">
<g id="icons/Hardware/broadcast-radio">
<path id="Union" d="M17.7256 1.03809C18.2565 0.886621 18.8102 1.19468 18.9619 1.72559C19.1131 2.25637 18.8052 2.81027 18.2744 2.96191L11.1416 5H22C22.5523 5 23 5.44772 23 6V20C22.9997 20.5521 22.5521 21 22 21H21V22C20.9997 22.5521 20.5521 23 20 23C19.4479 23 19.0003 22.5521 19 22V21H5V22C4.99974 22.5521 4.55212 23 4 23C3.44788 23 3.00026 22.5521 3 22V21H2C1.44788 21 1.00026 20.5521 1 20V6C1 5.44772 1.44772 5 2 5H3.8584L17.7256 1.03809ZM3 19H21V7H3V19ZM15.5 9.5C17.433 9.5 19 11.067 19 13C18.9997 14.9328 17.4328 16.5 15.5 16.5C13.5672 16.5 12.0003 14.9328 12 13C12 11.067 13.567 9.5 15.5 9.5ZM9 14C9.55229 14 10 14.4477 10 15C9.99974 15.5521 9.55212 16 9 16H6C5.44788 16 5.00026 15.5521 5 15C5 14.4477 5.44772 14 6 14H9ZM15.5 11.5C14.6716 11.5 14 12.1716 14 13C14.0003 13.8282 14.6717 14.5 15.5 14.5C16.3283 14.5 16.9997 13.8282 17 13C17 12.1716 16.3284 11.5 15.5 11.5ZM9 10C9.55229 10 10 10.4477 10 11C9.99974 11.5521 9.55212 12 9 12H6C5.44788 12 5.00026 11.5521 5 11C5 10.4477 5.44772 10 6 10H9Z" fill="#9E9E9E"/>
</g>
</svg>
