<svg width="24" height="24" viewBox="0 0 24 24" fill="none" xmlns="http://www.w3.org/2000/svg">
<g id="icons/Hardware/bus">
<path id="Union" d="M20.2041 2.02832C21.2126 2.13073 22 2.98202 22 4.01758V17.002C22 18.3825 20.8805 19.5018 19.5 19.502H19.46C19.2209 20.9196 17.9876 21.999 16.502 21.999C15.0165 21.999 13.7831 20.9197 13.5439 19.502H10.4609C10.2222 20.9193 8.99006 21.9988 7.50488 21.999C6.01947 21.999 4.78661 20.9195 4.54785 19.502H4.50586C3.21149 19.502 2.14666 18.5183 2.01855 17.2578L2.00586 17.002V11.6084C2.00202 11.5728 2 11.5366 2 11.5C2 11.463 2.00195 11.4265 2.00586 11.3906V4.01758C2.00586 2.91301 2.90129 2.01758 4.00586 2.01758H20L20.2041 2.02832ZM4.00586 17.002L4.01562 17.1025C4.06213 17.3305 4.26414 17.502 4.50586 17.502H5.50488C6.05715 17.502 6.50485 17.9497 6.50488 18.502V19C6.50488 19.5518 6.95307 19.999 7.50488 19.999C8.05652 19.9988 8.50391 19.5516 8.50391 19V18.502C8.50394 17.9497 8.95164 17.502 9.50391 17.502H14.502C15.0542 17.502 15.5019 17.9497 15.502 18.502V18.999C15.502 19.5511 15.9496 19.999 16.502 19.999C17.0543 19.999 17.502 19.5513 17.502 18.999V18.502C17.502 17.9497 17.9497 17.502 18.502 17.502H19.5C19.776 17.5018 20 17.278 20 17.002V12.5H4.00586V17.002ZM8 14C8.55228 14 9 14.4477 9 15C9 15.5523 8.55228 16 8 16H7C6.44772 16 6 15.5523 6 15C6 14.4477 6.44772 14 7 14H8ZM17 14C17.5523 14 18 14.4477 18 15C18 15.5523 17.5523 16 17 16H16C15.4477 16 15 15.5523 15 15C15 14.4477 15.4477 14 16 14H17ZM4.00586 10.5H6V6.5C6 5.94772 6.44772 5.5 7 5.5H17C17.5523 5.5 18 5.94772 18 6.5V10.5H20V4.01758H4.00586V10.5ZM8 10.5H16V7.5H8V10.5Z" fill="#9E9E9E"/>
</g>
</svg>
