<svg width="24" height="24" viewBox="0 0 24 24" fill="none" xmlns="http://www.w3.org/2000/svg">
<g id="icons/Hardware/calculator-one">
<path id="Union" d="M19 1C20.1046 1 21 1.89543 21 3V21C21 22.1046 20.1046 23 19 23H5C3.89543 23 3 22.1046 3 21V3C3 1.89543 3.89543 1 5 1H19ZM5 21H19V3H5V21ZM8.5 18C9.05228 18 9.5 18.4477 9.5 19C9.5 19.5523 9.05228 20 8.5 20C7.94772 20 7.5 19.5523 7.5 19C7.5 18.4477 7.94772 18 8.5 18ZM12 18C12.5523 18 13 18.4477 13 19C13 19.5523 12.5523 20 12 20C11.4477 20 11 19.5523 11 19C11 18.4477 11.4477 18 12 18ZM15.5 18C16.0523 18 16.5 18.4477 16.5 19C16.5 19.5523 16.0523 20 15.5 20C14.9477 20 14.5 19.5523 14.5 19C14.5 18.4477 14.9477 18 15.5 18ZM8.5 15C9.05228 15 9.5 15.4477 9.5 16C9.5 16.5523 9.05228 17 8.5 17C7.94772 17 7.5 16.5523 7.5 16C7.5 15.4477 7.94772 15 8.5 15ZM12 15C12.5523 15 13 15.4477 13 16C13 16.5523 12.5523 17 12 17C11.4477 17 11 16.5523 11 16C11 15.4477 11.4477 15 12 15ZM15.5 15C16.0523 15 16.5 15.4477 16.5 16C16.5 16.5523 16.0523 17 15.5 17C14.9477 17 14.5 16.5523 14.5 16C14.5 15.4477 14.9477 15 15.5 15ZM8.5 12C9.05228 12 9.5 12.4477 9.5 13C9.5 13.5523 9.05228 14 8.5 14C7.94772 14 7.5 13.5523 7.5 13C7.5 12.4477 7.94772 12 8.5 12ZM12 12C12.5523 12 13 12.4477 13 13C13 13.5523 12.5523 14 12 14C11.4477 14 11 13.5523 11 13C11 12.4477 11.4477 12 12 12ZM15.5 12C16.0523 12 16.5 12.4477 16.5 13C16.5 13.5523 16.0523 14 15.5 14C14.9477 14 14.5 13.5523 14.5 13C14.5 12.4477 14.9477 12 15.5 12ZM17 4.5C17.5523 4.5 18 4.94772 18 5.5V10C18 10.5523 17.5523 11 17 11H7C6.44772 11 6 10.5523 6 10V5.5C6 4.94772 6.44772 4.5 7 4.5H17ZM8 9H16V6.5H8V9Z" fill="#9E9E9E"/>
</g>
</svg>
