<svg width="24" height="24" viewBox="0 0 24 24" fill="none" xmlns="http://www.w3.org/2000/svg">
<g id="icons/Hardware/calculator">
<path id="Union" d="M20 1C21.1045 1.00013 22 1.89552 22 3V21C22 22.1045 21.1045 22.9999 20 23H4C2.89542 23 1.99999 22.1045 2 21V3C2.00002 1.89555 2.8956 1.00018 4 1H20ZM4 21H20V3H4V21ZM8.79297 13.293C9.18349 12.9024 9.81651 12.9024 10.207 13.293C10.5976 13.6835 10.5976 14.3165 10.207 14.707L9.16406 15.75L10.207 16.793C10.5976 17.1835 10.5976 17.8165 10.207 18.207C9.81651 18.5976 9.18349 18.5976 8.79297 18.207L7.75 17.1641L6.70703 18.207C6.31651 18.5976 5.68349 18.5976 5.29297 18.207C4.90244 17.8165 4.90244 17.1835 5.29297 16.793L6.33594 15.75L5.29297 14.707C4.90244 14.3165 4.90244 13.6835 5.29297 13.293C5.68349 12.9024 6.31651 12.9024 6.70703 13.293L7.75 14.3359L8.79297 13.293ZM18 16.5C18.5523 16.5 19 16.9477 19 17.5C19 18.0523 18.5523 18.5 18 18.5H14C13.4477 18.5 13 18.0523 13 17.5C13 16.9477 13.4477 16.5 14 16.5H18ZM18 13.5C18.5523 13.5 19 13.9477 19 14.5C19 15.0523 18.5523 15.5 18 15.5H14C13.4477 15.5 13 15.0523 13 14.5C13 13.9477 13.4477 13.5 14 13.5H18ZM17.5 4C18.0523 4 18.5 4.44772 18.5 5V9.5C18.5 10.0523 18.0523 10.5 17.5 10.5H6.5C5.94772 10.5 5.5 10.0523 5.5 9.5V5C5.5 4.44772 5.94772 4 6.5 4H17.5ZM7.5 8.5H16.5V6H7.5V8.5Z" fill="#9E9E9E"/>
</g>
</svg>
