<svg width="24" height="24" viewBox="0 0 24 24" fill="none" xmlns="http://www.w3.org/2000/svg">
<g id="icons/Hardware/camera-four">
<path id="Union" d="M22 4C22.5523 4 23 4.44772 23 5C23 5.55228 22.5523 6 22 6H21V12C21 16.9706 16.9706 21 12 21C7.02942 21 3 16.9706 3 12V6H2C1.44772 6 1 5.55228 1 5C1 4.44772 1.44772 4 2 4H22ZM5 12C5 15.866 8.13398 19 12 19C15.866 19 19 15.866 19 12V6H5V12ZM12 8C14.2091 8 16 9.79087 16 12C16 14.2091 14.2091 16 12 16C9.79086 16 8 14.2091 8 12C8 9.79087 9.79086 8 12 8ZM12 10C10.8954 10 10 10.8954 10 12C10 13.1046 10.8954 14 12 14C13.1046 14 14 13.1046 14 12C14 10.8954 13.1046 10 12 10Z" fill="#9E9E9E"/>
</g>
</svg>
