<svg width="24" height="24" viewBox="0 0 24 24" fill="none" xmlns="http://www.w3.org/2000/svg">
<g id="icons/Hardware/camera-one">
<path id="Union" d="M12 1.5C16.4183 1.5 20 5.08172 20 9.5C20 12.1114 18.7481 14.4295 16.8125 15.8896L19.3945 21.0527C19.5495 21.3626 19.5327 21.7306 19.3506 22.0254C19.1684 22.3202 18.8466 22.5 18.5 22.5H5.5C5.15342 22.5 4.83162 22.3202 4.64941 22.0254C4.46733 21.7306 4.45051 21.3626 4.60547 21.0527L7.18652 15.8896C5.25129 14.4295 4 12.1111 4 9.5C4 5.08172 7.58172 1.5 12 1.5ZM15.0742 16.8857C14.1275 17.2802 13.0896 17.5 12 17.5C10.9101 17.5 9.87171 17.2805 8.9248 16.8857L7.11816 20.5H16.8818L15.0742 16.8857ZM12 3.5C8.68629 3.5 6 6.18629 6 9.5C6 11.6044 7.08423 13.4544 8.72363 14.5254C8.79948 14.5429 8.87458 14.5691 8.94727 14.6055C9.0603 14.662 9.15784 14.7371 9.23828 14.8252C10.0652 15.2549 11.0037 15.5 12 15.5C12.996 15.5 13.934 15.2547 14.7607 14.8252C14.8413 14.7369 14.9395 14.6621 15.0527 14.6055C15.1251 14.5693 15.1999 14.5429 15.2754 14.5254C16.9152 13.4544 18 11.6047 18 9.5C18 6.18629 15.3137 3.5 12 3.5ZM12 5.5C14.2091 5.5 16 7.29086 16 9.5C16 11.7091 14.2091 13.5 12 13.5C9.79086 13.5 8 11.7091 8 9.5C8 7.29086 9.79086 5.5 12 5.5ZM12 7.5C10.8954 7.5 10 8.39543 10 9.5C10 10.6046 10.8954 11.5 12 11.5C13.1046 11.5 14 10.6046 14 9.5C14 8.39543 13.1046 7.5 12 7.5Z" fill="#9E9E9E"/>
</g>
</svg>
