<svg width="24" height="24" viewBox="0 0 24 24" fill="none" xmlns="http://www.w3.org/2000/svg">
<g id="icons/Hardware/camera-five">
<path id="Union" d="M12 1.5C16.9706 1.5 21 5.52944 21 10.5C21 15.1325 17.4998 18.9448 13 19.4424V20.5H16C16.5523 20.5 17 20.9477 17 21.5C17 22.0523 16.5523 22.5 16 22.5H8C7.44772 22.5 7 22.0523 7 21.5C7 20.9477 7.44772 20.5 8 20.5H11V19.4424C6.50019 18.9448 3 15.1325 3 10.5C3 5.52944 7.02944 1.5 12 1.5ZM12 3.5C8.13401 3.5 5 6.63401 5 10.5C5 14.366 8.13401 17.5 12 17.5C15.866 17.5 19 14.366 19 10.5C19 6.63401 15.866 3.5 12 3.5ZM12 6C14.4853 6 16.5 8.01472 16.5 10.5C16.5 12.9853 14.4853 15 12 15C9.51472 15 7.5 12.9853 7.5 10.5C7.5 8.01472 9.51472 6 12 6ZM12 8C10.6193 8 9.5 9.11929 9.5 10.5C9.5 11.8807 10.6193 13 12 13C13.3807 13 14.5 11.8807 14.5 10.5C14.5 9.11929 13.3807 8 12 8Z" fill="#9E9E9E"/>
</g>
</svg>
