<svg width="24" height="24" viewBox="0 0 24 24" fill="none" xmlns="http://www.w3.org/2000/svg">
<g id="icons/Hardware/camera-three">
<path id="Union" d="M10.0723 3.01172C10.4284 3.06769 10.7322 3.31348 10.8574 3.66016L11.7021 6H17V5C17 4.44772 17.4477 4 18 4C18.5523 4 19 4.44772 19 5V6H20C21.1046 6 22 6.89543 22 8V19C22 20.1046 21.1046 21 20 21H4C2.89543 21 2 20.1046 2 19V8C2 6.89543 2.89543 6 4 6H4.29785L5.14258 3.66016L5.20703 3.51855C5.38056 3.20248 5.71438 3.00013 6.08301 3H9.91699L10.0723 3.01172ZM4 19H20V8H4V19ZM14.5 9C16.9853 9 19 11.0147 19 13.5C19 15.9853 16.9853 18 14.5 18C12.0147 18 10 15.9853 10 13.5C10 11.0147 12.0147 9 14.5 9ZM14.5 11C13.1193 11 12 12.1193 12 13.5C12 14.8807 13.1193 16 14.5 16C15.8807 16 17 14.8807 17 13.5C17 12.1193 15.8807 11 14.5 11ZM6.42383 6H9.57617L9.21484 5H6.78516L6.42383 6Z" fill="#9E9E9E"/>
</g>
</svg>
