<svg width="24" height="24" viewBox="0 0 24 24" fill="none" xmlns="http://www.w3.org/2000/svg">
<g id="icons/Hardware/camera-two">
<path id="Union" d="M12 1C15.866 1 19 4.13401 19 8V12C19 15.5264 16.3921 18.4414 13 18.9268V21H16C16.5523 21 17 21.4477 17 22C17 22.5523 16.5523 23 16 23H8C7.44772 23 7 22.5523 7 22C7 21.4477 7.44772 21 8 21H11V18.9268C7.60787 18.4414 5 15.5264 5 12V8C5 4.13401 8.13401 1 12 1ZM12 3C9.23858 3 7 5.23858 7 8V12C7 14.7614 9.23858 17 12 17C14.7614 17 17 14.7614 17 12V8C17 5.23858 14.7614 3 12 3ZM12 13.5C12.5523 13.5 13 13.9477 13 14.5C13 15.0523 12.5523 15.5 12 15.5C11.4477 15.5 11 15.0523 11 14.5C11 13.9477 11.4477 13.5 12 13.5ZM12 4.5C14.2091 4.5 16 6.29086 16 8.5C16 10.7091 14.2091 12.5 12 12.5C9.79086 12.5 8 10.7091 8 8.5C8 6.29086 9.79086 4.5 12 4.5ZM12 6.5C10.8954 6.5 10 7.39543 10 8.5C10 9.60457 10.8954 10.5 12 10.5C13.1046 10.5 14 9.60457 14 8.5C14 7.39543 13.1046 6.5 12 6.5Z" fill="#9E9E9E"/>
</g>
</svg>
