<svg width="24" height="24" viewBox="0 0 24 24" fill="none" xmlns="http://www.w3.org/2000/svg">
<g id="icons/Hardware/car">
<path id="Union" d="M17.208 2.01172C18.5003 2.12379 19.5878 3.06039 19.875 4.3457L20.874 8.82227C22.1792 9.51466 23 10.8717 23 12.3545V17C23 18.3807 21.8807 19.5 20.5 19.5H20.459C20.2207 20.919 18.9869 21.9999 17.501 22C16.0149 22 14.7802 20.9191 14.542 19.5H9.45801C9.22 20.9188 7.98645 22 6.5 22C5.01368 21.9999 3.78102 20.9187 3.54297 19.5H3.5C2.1193 19.5 1 18.3807 1 17V12.3545C1.00013 10.8697 1.82339 9.51167 3.13184 8.82031L4.18164 4.31934C4.49818 2.96143 5.70823 2.00021 7.10254 2H16.9473L17.208 2.01172ZM7.10254 4C6.63793 4.00021 6.2344 4.32087 6.12891 4.77344L4.97461 9.72754C4.90705 10.0174 4.7135 10.2625 4.44727 10.3955L4.10645 10.5654C3.42868 10.904 3.00013 11.5968 3 12.3545V17C3 17.2762 3.22385 17.5 3.5 17.5H4.5C5.05228 17.5 5.5 17.9477 5.5 18.5V19C5.5 19.5521 5.94783 19.9999 6.5 20C7.05222 20 7.5 19.5522 7.5 19V18.5C7.5 17.9477 7.94772 17.5 8.5 17.5H15.5C16.0523 17.5 16.5 17.9477 16.5 18.5V19C16.5 19.5518 16.9482 20 17.501 20C18.0536 19.9999 18.502 19.5517 18.502 19V18.5C18.502 17.9477 18.9497 17.5 19.502 17.5H20.5C20.7762 17.5 21 17.2762 21 17V12.3545C21 11.6443 20.6239 10.9908 20.0186 10.6328L19.8945 10.5654L19.5547 10.3955C19.2857 10.261 19.0909 10.0123 19.0254 9.71875L17.9229 4.78223C17.8336 4.38228 17.512 4.08302 17.1191 4.01465L16.9473 4H7.10254ZM6.75 13.5C7.44035 13.5 8 14.0597 8 14.75C8 15.4403 7.44035 16 6.75 16C6.05965 16 5.5 15.4403 5.5 14.75C5.5 14.0597 6.05965 13.5 6.75 13.5ZM17.25 13.5C17.9403 13.5 18.5 14.0597 18.5 14.75C18.5 15.4403 17.9403 16 17.25 16C16.5597 16 16 15.4403 16 14.75C16 14.0597 16.5597 13.5 17.25 13.5ZM15.1982 5.5C16.1355 5.50018 16.9471 6.15148 17.1504 7.06641L17.9766 10.7832C18.0423 11.0792 17.97 11.3894 17.7803 11.626C17.5905 11.8626 17.3033 12 17 12H7C6.6967 12 6.40952 11.8626 6.21973 11.626C6.02998 11.3894 5.95772 11.0792 6.02344 10.7832L6.84961 7.06641C7.05289 6.15148 7.86451 5.50018 8.80176 5.5H15.1982ZM8.24707 10H15.7529L15.1982 7.5H8.80176L8.24707 10Z" fill="#9E9E9E"/>
</g>
</svg>
