<svg width="24" height="24" viewBox="0 0 24 24" fill="none" xmlns="http://www.w3.org/2000/svg">
<g id="icons/Hardware/cd">
<path id="Union" d="M12 2C17.5228 2 22 6.47715 22 12C22 17.5228 17.5228 22 12 22C6.47715 22 2 17.5228 2 12C2 6.47715 6.47715 2 12 2ZM12 4C7.58172 4 4 7.58172 4 12C4 16.4183 7.58172 20 12 20C16.4183 20 20 16.4183 20 12C20 7.58172 16.4183 4 12 4ZM12 8.5C13.933 8.5 15.5 10.067 15.5 12C15.5 13.933 13.933 15.5 12 15.5C10.067 15.5 8.5 13.933 8.5 12C8.5 10.067 10.067 8.5 12 8.5ZM12 10.5C11.1716 10.5 10.5 11.1716 10.5 12C10.5 12.8284 11.1716 13.5 12 13.5C12.8284 13.5 13.5 12.8284 13.5 12C13.5 11.1716 12.8284 10.5 12 10.5ZM12 5.5C12.5523 5.5 13 5.94772 13 6.5C13 7.05228 12.5523 7.5 12 7.5C9.51473 7.5 7.5 9.51473 7.5 12C7.5 12.5523 7.05228 13 6.5 13C5.94772 13 5.5 12.5523 5.5 12C5.5 8.41017 8.41017 5.5 12 5.5Z" fill="#9E9E9E"/>
</g>
</svg>
