<svg width="24" height="24" viewBox="0 0 24 24" fill="none" xmlns="http://www.w3.org/2000/svg">
<g id="icons/Hardware/charging-treasure">
<path id="Union" d="M17.9883 2C19.2549 2.00001 20.3223 2.94724 20.4717 4.20508H20.4707L22.0439 17.4551C22.0812 17.7693 22.0552 18.0747 21.9824 18.3623C21.7993 20.4016 20.087 22 18 22H6C3.79086 22 2 20.2091 2 18C2 17.9906 1.99993 17.9811 2 17.9717C1.98315 17.7793 1.98763 17.5815 2.01758 17.3809L3.99805 4.13086C4.181 2.90643 5.23275 2.00003 6.4707 2H17.9883ZM6 16C4.94044 16 4.07575 16.8241 4.00684 17.8662C4.05905 18.0831 4.25149 18.2499 4.49023 18.25H9.5332C9.51257 18.17 9.5 18.0865 9.5 18C9.5 17.4477 9.94772 17 10.5 17C11.0523 17 11.5 17.4477 11.5 18C11.5 18.0865 11.4874 18.17 11.4668 18.25H13.5332C13.5126 18.17 13.5 18.0865 13.5 18C13.5 17.4477 13.9477 17 14.5 17H17.5C18.0523 17 18.5 17.4477 18.5 18C18.5 18.0865 18.4874 18.17 18.4668 18.25H19.5615C19.7522 18.2499 19.9147 18.1432 19.999 17.9893C19.9932 16.8896 19.101 16 18 16H6ZM6.4707 4C6.22321 4.00003 6.01328 4.18113 5.97656 4.42578L4.50098 14.291C4.96398 14.1037 5.46984 14 6 14H18C18.5931 14 19.1558 14.1297 19.6621 14.3613L18.4854 4.44141C18.4555 4.18989 18.2417 4.00001 17.9883 4H6.4707ZM13 5C13.5523 5.00001 14 5.44772 14 6C14 6.55228 13.5523 6.99999 13 7H11C10.4477 7 10 6.55228 10 6C10 5.44772 10.4477 5 11 5H13Z" fill="#9E9E9E"/>
</g>
</svg>
