<svg width="24" height="24" viewBox="0 0 24 24" fill="none" xmlns="http://www.w3.org/2000/svg">
<g id="icons/Hardware/chip">
<path id="Union" d="M17 2C18.1046 2 19 2.89543 19 4V5H21C21.5523 5 22 5.44772 22 6C22 6.55228 21.5523 7 21 7H19V9H21C21.5523 9 22 9.44772 22 10C22 10.5523 21.5523 11 21 11H19V13H21C21.5523 13 22 13.4477 22 14C22 14.5523 21.5523 15 21 15H19V17H21C21.5523 17 22 17.4477 22 18C22 18.5523 21.5523 19 21 19H19V20C19 21.1046 18.1046 22 17 22H7C5.89543 22 5 21.1046 5 20V19H3C2.44772 19 2 18.5523 2 18C2 17.4477 2.44772 17 3 17H5V15H3C2.44772 15 2 14.5523 2 14C2 13.4477 2.44772 13 3 13H5V11H3C2.44772 11 2 10.5523 2 10C2 9.44772 2.44772 9 3 9H5V7H3C2.44772 7 2 6.55228 2 6C2 5.44772 2.44772 5 3 5H5V4C5 2.89543 5.89543 2 7 2H17ZM7 20H17V4H7V20Z" fill="#9E9E9E"/>
</g>
</svg>
