<svg width="24" height="24" viewBox="0 0 24 24" fill="none" xmlns="http://www.w3.org/2000/svg">
<g id="icons/Hardware/cloud-storage">
<path id="Union" d="M19.5986 1.50293C20.0343 1.54132 20.399 1.86092 20.4893 2.2959L22.9795 14.2959H22.9785C22.9922 14.3618 23 14.43 23 14.5V21C23 21.5523 22.5523 22 22 22H2C1.44772 22 1 21.5523 1 21V14.5C1 14.4293 1.00755 14.3605 1.02148 14.2939L3.54004 2.29395C3.63724 1.83093 4.04643 1.49902 4.51953 1.49902H19.5098L19.5986 1.50293ZM3 20H21V15.5H3V20ZM17.75 16.5C18.4403 16.5 19 17.0597 19 17.75C19 18.4403 18.4403 19 17.75 19C17.0597 19 16.5 18.4403 16.5 17.75C16.5 17.0597 17.0597 16.5 17.75 16.5ZM3.23145 13.5H20.7715L18.6963 3.49902H5.33105L3.23145 13.5ZM12 4.5C12.9873 4.50003 13.8809 4.83856 14.5293 5.49414C14.9708 5.9405 15.2628 6.4983 15.4043 7.11621C15.7869 7.20705 16.1645 7.36358 16.498 7.61621C17.1379 8.10086 17.4999 8.84361 17.5 9.75586C17.5 10.7123 17.0683 11.4633 16.3594 11.9297C15.7072 12.3586 14.8979 12.5 14.1436 12.5H9.84863C9.09436 12.5 8.2858 12.3588 7.63477 11.9287C6.92686 11.461 6.5 10.7094 6.5 9.75586C6.50014 8.40969 7.46574 7.47842 8.59277 7.14746C8.72944 6.51161 9.02253 5.93902 9.47461 5.4834C10.1252 4.82779 11.0194 4.5 12 4.5ZM12 6.5C11.469 6.5 11.1146 6.67084 10.8945 6.89258C10.6738 7.1151 10.503 7.47499 10.5029 8.0127C10.5029 8.56498 10.0552 9.0127 9.50293 9.0127C8.82252 9.01273 8.50021 9.45686 8.5 9.75586C8.5 10.0456 8.59643 10.1666 8.7373 10.2598C8.93526 10.3905 9.30162 10.5 9.84863 10.5H14.1436C14.6903 10.5 15.0591 10.3907 15.2598 10.2588C15.4035 10.1643 15.5 10.0428 15.5 9.75586C15.4999 9.41176 15.3872 9.28279 15.291 9.20996C15.153 9.10541 14.8922 9.0127 14.5029 9.0127C14.3846 9.01267 14.2714 8.9909 14.166 8.95312C14.1329 8.94121 14.1008 8.92732 14.0693 8.91211C13.7346 8.75042 13.5029 8.40928 13.5029 8.0127C13.5029 8.00878 13.5029 8.00488 13.5029 8.00098C13.5003 7.48714 13.3325 7.12801 13.1074 6.90039C12.882 6.67246 12.5242 6.50003 12 6.5Z" fill="#9E9E9E"/>
</g>
</svg>
