<svg width="24" height="24" viewBox="0 0 24 24" fill="none" xmlns="http://www.w3.org/2000/svg">
<g id="icons/Hardware/code-laptop">
<path id="Union" d="M11 3.5C11.5523 3.5 12 3.94772 12 4.5C12 5.05225 11.5523 5.5 11 5.5H5.5C5.22385 5.5 5 5.72385 5 6V15.5H19V11C19 10.4477 19.4477 10 20 10C20.5523 10 21 10.4477 21 11V15.5H22C22.5523 15.5 23 15.9477 23 16.5V17.5C23 19.7091 21.2091 21.5 19 21.5H5C2.79088 21.5 1.00004 19.7091 1 17.5V16.5C1 15.9477 1.44772 15.5 2 15.5H3V6C3 4.61925 4.1193 3.5 5.5 3.5H11ZM3 17.5C3.00004 18.6045 3.89546 19.5 5 19.5H19C20.1045 19.5 21 18.6045 21 17.5H3ZM15.793 2.79297C16.1835 2.40244 16.8165 2.40244 17.207 2.79297C17.5975 3.1835 17.5975 3.81652 17.207 4.20703L15.9141 5.5L17.207 6.79297C17.5975 7.1835 17.5975 7.81652 17.207 8.20703C16.8165 8.59751 16.1835 8.59751 15.793 8.20703L13.793 6.20703C13.4025 5.81652 13.4025 5.1835 13.793 4.79297L15.793 2.79297ZM18.793 2.79297C19.1835 2.40244 19.8165 2.40244 20.207 2.79297L22.207 4.79297C22.5975 5.1835 22.5975 5.81652 22.207 6.20703L20.207 8.20703C19.8165 8.59751 19.1835 8.59751 18.793 8.20703C18.4025 7.81652 18.4025 7.1835 18.793 6.79297L20.0859 5.5L18.793 4.20703C18.4025 3.81652 18.4025 3.1835 18.793 2.79297Z" fill="#9E9E9E"/>
</g>
</svg>
