<svg width="24" height="24" viewBox="0 0 24 24" fill="none" xmlns="http://www.w3.org/2000/svg">
<g id="icons/Hardware/code-computer">
<path id="Union" d="M10.5 2C11.0523 2 11.5 2.44772 11.5 3C11.5 3.55228 11.0523 4 10.5 4H4.5C4.22386 4 4 4.22386 4 4.5V15.5C4 15.7762 4.22385 16 4.5 16H19.5C19.7762 16 20 15.7762 20 15.5V10.5C20 9.94772 20.4477 9.5 21 9.5C21.5523 9.5 22 9.94772 22 10.5V15.5C22 16.8807 20.8807 18 19.5 18H13V20H17C17.5523 20 18 20.4477 18 21C18 21.5523 17.5523 22 17 22H7C6.44772 22 6 21.5523 6 21C6 20.4477 6.44772 20 7 20H11V18H4.5C3.1193 18 2 16.8807 2 15.5V4.5C2 3.11929 3.11929 2 4.5 2H10.5ZM15.293 2.29297C15.6835 1.90244 16.3165 1.90244 16.707 2.29297C17.0976 2.68349 17.0976 3.31651 16.707 3.70703L15.4141 5L16.707 6.29297C17.0976 6.68349 17.0976 7.31651 16.707 7.70703C16.3165 8.09756 15.6835 8.09756 15.293 7.70703L13.293 5.70703C12.9024 5.31651 12.9024 4.68349 13.293 4.29297L15.293 2.29297ZM18.293 2.29297C18.6835 1.90244 19.3165 1.90244 19.707 2.29297L21.707 4.29297C22.0976 4.68349 22.0976 5.31651 21.707 5.70703L19.707 7.70703C19.3165 8.09756 18.6835 8.09756 18.293 7.70703C17.9024 7.31651 17.9024 6.68349 18.293 6.29297L19.5859 5L18.293 3.70703C17.9024 3.31651 17.9024 2.68349 18.293 2.29297Z" fill="#9E9E9E"/>
</g>
</svg>
