<svg width="24" height="24" viewBox="0 0 24 24" fill="none" xmlns="http://www.w3.org/2000/svg">
<g id="icons/Hardware/collect-laptop">
<path id="Union" d="M10.5 3.5C11.0523 3.5 11.5 3.94772 11.5 4.5C11.5 5.05228 11.0523 5.5 10.5 5.5H5.5C5.22385 5.5 5 5.72385 5 6V15.5H19V11.5C19 10.9477 19.4477 10.5 20 10.5C20.5523 10.5 21 10.9477 21 11.5V15.5H22C22.5523 15.5 23 15.9477 23 16.5V17.5C23 19.7091 21.2091 21.5 19 21.5H5C2.79086 21.5 1 19.7091 1 17.5V16.5C1 15.9477 1.44772 15.5 2 15.5H3V6C3 4.61925 4.1193 3.5 5.5 3.5H10.5ZM3 17.5C3 18.6046 3.89543 19.5 5 19.5H19C20.1046 19.5 21 18.6046 21 17.5H3ZM18.8496 2.5C20.2853 2.5 21.5 3.63786 21.5 5.10254C21.4999 6.29884 20.7894 7.30702 20.0938 7.98926C19.3852 8.68401 18.5049 9.22682 17.8066 9.45215C17.6073 9.51634 17.3927 9.51634 17.1934 9.45215C16.4951 9.22682 15.6148 8.68401 14.9062 7.98926C14.2106 7.30702 13.5001 6.29884 13.5 5.10254C13.5 3.63786 14.7147 2.5 16.1504 2.5C16.6412 2.50007 17.1032 2.63223 17.5 2.86328C17.8968 2.63223 18.3588 2.50007 18.8496 2.5ZM18.8496 4.5C18.6183 4.50012 18.4236 4.61041 18.3096 4.76758C18.1215 5.02698 17.8204 5.18066 17.5 5.18066C17.1796 5.18066 16.8785 5.02698 16.6904 4.76758C16.5764 4.61041 16.3817 4.50012 16.1504 4.5C15.7636 4.5 15.5 4.79735 15.5 5.10254C15.5001 5.50833 15.765 6.02939 16.3066 6.56055C16.7034 6.94966 17.1514 7.24687 17.499 7.41895H17.501C17.8486 7.24687 18.2966 6.94966 18.6934 6.56055C19.235 6.02939 19.4999 5.50833 19.5 5.10254C19.5 4.79735 19.2364 4.5 18.8496 4.5Z" fill="#9E9E9E"/>
</g>
</svg>
