<svg width="24" height="24" viewBox="0 0 24 24" fill="none" xmlns="http://www.w3.org/2000/svg">
<g id="icons/Hardware/collect-computer">
<path id="Union" d="M11 2C11.5523 2 12 2.44772 12 3C12 3.55228 11.5523 4 11 4H4.5C4.22386 4 4 4.22386 4 4.5V15.5C4 15.7762 4.22385 16 4.5 16H19.5C19.7762 16 20 15.7762 20 15.5V11C20 10.4477 20.4477 10 21 10C21.5523 10 22 10.4477 22 11V15.5C22 16.8807 20.8807 18 19.5 18H13V20H17C17.5523 20 18 20.4477 18 21C18 21.5523 17.5523 22 17 22H7C6.44772 22 6 21.5523 6 21C6 20.4477 6.44772 20 7 20H11V18H4.5C3.1193 18 2 16.8807 2 15.5V4.5C2 3.11929 3.11929 2 4.5 2H11ZM19.3496 2C20.7853 2 22 3.13787 22 4.60254C21.9999 5.79883 21.2894 6.80702 20.5938 7.48926C19.8852 8.18401 19.0049 8.72682 18.3066 8.95215C18.1073 9.01634 17.8927 9.01634 17.6934 8.95215C16.9951 8.72682 16.1148 8.18401 15.4062 7.48926C14.7106 6.80702 14.0001 5.79883 14 4.60254C14 3.13787 15.2147 2 16.6504 2C17.1412 2.00007 17.6032 2.13223 18 2.36328C18.3968 2.13223 18.8588 2.00007 19.3496 2ZM19.3496 4C19.1183 4.00012 18.9236 4.11041 18.8096 4.26758C18.6215 4.52698 18.3204 4.68066 18 4.68066C17.6796 4.68066 17.3785 4.52698 17.1904 4.26758C17.0764 4.11041 16.8817 4.00012 16.6504 4C16.2635 4 16 4.29738 16 4.60254C16.0001 5.00834 16.2651 5.5294 16.8066 6.06055C17.2034 6.44966 17.6514 6.74687 17.999 6.91895H18.001C18.3486 6.74687 18.7966 6.44966 19.1934 6.06055C19.7349 5.5294 19.9999 5.00834 20 4.60254C20 4.29738 19.7365 4 19.3496 4Z" fill="#9E9E9E"/>
</g>
</svg>
