<svg width="24" height="24" viewBox="0 0 24 24" fill="none" xmlns="http://www.w3.org/2000/svg">
<g id="icons/Hardware/computer">
<path id="Union" d="M20.5 3C21.6046 3 22.5 3.89543 22.5 5V15C22.5 16.1046 21.6046 17 20.5 17H15.5V19.5H17C17.5523 19.5 18 19.9477 18 20.5C18 21.0523 17.5523 21.5 17 21.5H7C6.44772 21.5 6 21.0523 6 20.5C6 19.9477 6.44772 19.5 7 19.5H8.5V17H3.5C2.39543 17 1.5 16.1046 1.5 15V5C1.5 3.89543 2.39543 3 3.5 3H20.5ZM10.5 19.5H13.5V17H10.5V19.5ZM3.5 15H20.5V5H3.5V15ZM13 12.5C13.5523 12.5 14 12.9477 14 13.5C14 14.0523 13.5523 14.5 13 14.5H11C10.4477 14.5 10 14.0523 10 13.5C10 12.9477 10.4477 12.5 11 12.5H13Z" fill="#9E9E9E"/>
</g>
</svg>
