<svg width="24" height="24" viewBox="0 0 24 24" fill="none" xmlns="http://www.w3.org/2000/svg">
<g id="icons/Hardware/computer-one">
<path id="Union" d="M18 1C19.1046 1 20 1.89544 20 3V21C20 22.1046 19.1046 23 18 23H6C4.89542 23 4 22.1046 4 21V3C4 1.89544 4.89541 1 6 1H18ZM6 21H18V3H6V21ZM8.5 15.5C9.05228 15.5 9.5 15.9477 9.5 16.5C9.5 17.0523 9.05228 17.5 8.5 17.5C7.94772 17.5 7.5 17.0523 7.5 16.5C7.5 15.9477 7.94772 15.5 8.5 15.5ZM12 15.5C12.5523 15.5 13 15.9477 13 16.5C13 17.0523 12.5523 17.5 12 17.5C11.4477 17.5 11 17.0523 11 16.5C11 15.9477 11.4477 15.5 12 15.5ZM15.5 15.5C16.0523 15.5 16.5 15.9477 16.5 16.5C16.5 17.0523 16.0523 17.5 15.5 17.5C14.9477 17.5 14.5 17.0523 14.5 16.5C14.5 15.9477 14.9477 15.5 15.5 15.5ZM8.5 12.5C9.05228 12.5 9.5 12.9477 9.5 13.5C9.5 14.0523 9.05228 14.5 8.5 14.5C7.94772 14.5 7.5 14.0523 7.5 13.5C7.5 12.9477 7.94772 12.5 8.5 12.5ZM12 12.5C12.5523 12.5 13 12.9477 13 13.5C13 14.0523 12.5523 14.5 12 14.5C11.4477 14.5 11 14.0523 11 13.5C11 12.9477 11.4477 12.5 12 12.5ZM15.5 12.5C16.0523 12.5 16.5 12.9477 16.5 13.5C16.5 14.0523 16.0523 14.5 15.5 14.5C14.9477 14.5 14.5 14.0523 14.5 13.5C14.5 12.9477 14.9477 12.5 15.5 12.5ZM8.5 9.5C9.05228 9.5 9.5 9.94771 9.5 10.5C9.5 11.0523 9.05228 11.5 8.5 11.5C7.94772 11.5 7.5 11.0523 7.5 10.5C7.5 9.94771 7.94772 9.5 8.5 9.5ZM12 9.5C12.5523 9.5 13 9.94771 13 10.5C13 11.0523 12.5523 11.5 12 11.5C11.4477 11.5 11 11.0523 11 10.5C11 9.94771 11.4477 9.5 12 9.5ZM15.5 9.5C16.0523 9.5 16.5 9.94771 16.5 10.5C16.5 11.0523 16.0523 11.5 15.5 11.5C14.9477 11.5 14.5 11.0523 14.5 10.5C14.5 9.94771 14.9477 9.5 15.5 9.5ZM15.5 5C16.0523 5 16.5 5.44772 16.5 6C16.5 6.55228 16.0523 7 15.5 7H8.5C7.94772 7 7.5 6.55228 7.5 6C7.5 5.44772 7.94772 5 8.5 5H15.5Z" fill="#9E9E9E"/>
</g>
</svg>
