<svg width="24" height="24" viewBox="0 0 24 24" fill="none" xmlns="http://www.w3.org/2000/svg">
<g id="icons/Hardware/control">
<path id="Union" d="M18.5 1C19.6046 1 20.5 1.89543 20.5 3V21C20.5 22.1046 19.6046 23 18.5 23H5.5C4.39543 23 3.5 22.1046 3.5 21V3C3.5 1.89543 4.39543 1 5.5 1H18.5ZM5.5 21H18.5V3H5.5V21ZM12 11.5C14.2091 11.5 16 13.2909 16 15.5C16 17.7091 14.2091 19.5 12 19.5C9.79086 19.5 8 17.7091 8 15.5C8 13.2909 9.79086 11.5 12 11.5ZM12 13.5C10.8954 13.5 10 14.3954 10 15.5C10 16.6046 10.8954 17.5 12 17.5C13.1046 17.5 14 16.6046 14 15.5C14 14.3954 13.1046 13.5 12 13.5ZM10.5 8C11.0523 8 11.5 8.44772 11.5 9C11.5 9.55229 11.0523 10 10.5 10H9C8.44772 10 8 9.55229 8 9C8 8.44772 8.44772 8 9 8H10.5ZM15 8C15.5523 8 16 8.44772 16 9C16 9.55229 15.5523 10 15 10H13.5C12.9477 10 12.5 9.55229 12.5 9C12.5 8.44772 12.9477 8 13.5 8H15ZM10.5 5C11.0523 5 11.5 5.44772 11.5 6C11.5 6.55228 11.0523 7 10.5 7H9C8.44772 7 8 6.55228 8 6C8 5.44772 8.44772 5 9 5H10.5Z" fill="#9E9E9E"/>
</g>
</svg>
