<svg width="24" height="24" viewBox="0 0 24 24" fill="none" xmlns="http://www.w3.org/2000/svg">
<g id="icons/Hardware/cpu" clip-path="url(#clip0_56_9100)">
<path id="Union" d="M16.5449 0C17.0972 0 17.5449 0.447715 17.5449 1V3H19C20.1046 3 21 3.89544 21 5V6.45508H23C23.5523 6.45508 24 6.90279 24 7.45508C24 8.00736 23.5523 8.45508 23 8.45508H21V11H23C23.5523 11 24 11.4477 24 12C24 12.5523 23.5523 13 23 13H21V15.5449H23C23.5523 15.5449 24 15.9926 24 16.5449C24 17.0972 23.5523 17.5449 23 17.5449H21V19C21 20.1046 20.1046 21 19 21H17.5449V23C17.5449 23.5523 17.0972 24 16.5449 24C15.9926 24 15.5449 23.5523 15.5449 23V21H13V23C13 23.5523 12.5523 24 12 24C11.4477 24 11 23.5523 11 23V21H8.45508V23C8.45508 23.5523 8.00736 24 7.45508 24C6.90279 24 6.45508 23.5523 6.45508 23V21H5C3.89544 21 3 20.1046 3 19V17.5449H1C0.447715 17.5449 0 17.0972 0 16.5449C0 15.9926 0.447715 15.5449 1 15.5449H3V13H1C0.447715 13 0 12.5523 0 12C0 11.4477 0.447715 11 1 11H3V8.45508H1C0.447715 8.45508 0 8.00736 0 7.45508C0 6.90279 0.447715 6.45508 1 6.45508H3V5C3 3.89543 3.89543 3 5 3H6.45508V1C6.45508 0.447715 6.90279 0 7.45508 0C8.00736 0 8.45508 0.447715 8.45508 1V3H11V1C11 0.447715 11.4477 0 12 0C12.5523 0 13 0.447715 13 1V3H15.5449V1C15.5449 0.447715 15.9926 0 16.5449 0ZM5 19H19V5H5V19ZM15 8C15.5523 8 16 8.44771 16 9V15C16 15.5523 15.5523 16 15 16H9C8.44771 16 8 15.5523 8 15V9C8 8.44771 8.44771 8 9 8H15ZM10 14H14V10H10V14Z" fill="#9E9E9E"/>
</g>
<defs>
<clipPath id="clip0_56_9100">
<rect width="24" height="24" fill="white"/>
</clipPath>
</defs>
</svg>
