<svg width="24" height="24" viewBox="0 0 24 24" fill="none" xmlns="http://www.w3.org/2000/svg">
<g id="icons/Hardware/cup">
<path id="Union" d="M16.5391 7.10254C17.3537 7.10267 18.0137 7.76345 18.0137 8.57812V9.17188C19.9766 9.61743 21.4424 11.3719 21.4424 13.4697C21.4423 15.7102 19.7704 17.5581 17.6064 17.8389C16.6087 20.7124 13.8801 22.7764 10.667 22.7764C6.60945 22.7763 3.32031 19.4863 3.32031 15.4287V8.57812C3.32031 7.76333 3.98116 7.10254 4.7959 7.10254H16.5391ZM5.37012 16.4082C5.83089 18.9159 8.0261 20.8163 10.667 20.8164C13.3079 20.8164 15.5031 18.9159 15.9639 16.4082H5.37012ZM18.0137 15.4287C18.0137 15.5252 18.0095 15.6212 18.0059 15.7168C18.8747 15.3405 19.4833 14.4767 19.4834 13.4697C19.4834 12.4657 18.8784 11.6037 18.0137 11.2256V15.4287ZM5.2793 14.4482H16.0547V12.4893H5.2793V14.4482ZM5.2793 10.5303H16.0547V9.06152H5.2793V10.5303ZM10.667 1.22461C11.208 1.22461 11.6465 1.66309 11.6465 2.2041V5.14258C11.6465 5.68359 11.208 6.12207 10.667 6.12207C10.126 6.12207 9.6875 5.68359 9.6875 5.14258V2.2041C9.6875 1.66309 10.126 1.22461 10.667 1.22461ZM6.74805 2.2041C7.28906 2.2041 7.72754 2.64258 7.72754 3.18359V4.16309C7.72754 4.7041 7.28906 5.14258 6.74805 5.14258C6.20703 5.14258 5.76855 4.7041 5.76855 4.16309V3.18359C5.76855 2.64258 6.20703 2.2041 6.74805 2.2041ZM14.585 2.2041C15.126 2.2041 15.5645 2.64258 15.5645 3.18359V4.16309C15.5645 4.7041 15.126 5.14258 14.585 5.14258C14.044 5.14251 13.6055 4.70406 13.6055 4.16309V3.18359C13.6055 2.64262 14.044 2.20417 14.585 2.2041Z" fill="#9E9E9E"/>
</g>
</svg>
