<svg width="24" height="24" viewBox="0 0 24 24" fill="none" xmlns="http://www.w3.org/2000/svg">
<g id="icons/Hardware/dashboard-two">
<path id="Union" d="M12 1C15.0408 1 17.7951 2.23499 19.7852 4.22852C21.7706 6.21747 23 8.96626 23 12C23 14.5049 22.1609 16.8129 20.751 18.6621C20.7404 18.6775 20.7302 18.6931 20.7188 18.708C20.4376 19.0729 20.1327 19.4185 19.8086 19.7451C19.7893 19.7646 19.7704 19.7844 19.751 19.8037C19.6498 19.9041 19.5464 20.0022 19.4414 20.0986C19.4085 20.1289 19.3751 20.1586 19.3418 20.1885C19.2401 20.2797 19.1373 20.3696 19.0322 20.457C19.0061 20.4788 18.9795 20.5 18.9531 20.5215C18.7096 20.7204 18.4576 20.9091 18.1973 21.0869C18.1622 21.1109 18.1271 21.1347 18.0918 21.1582C17.9738 21.2368 17.8545 21.3136 17.7334 21.3877C17.7046 21.4053 17.6754 21.4221 17.6465 21.4395C17.519 21.5159 17.3905 21.5908 17.2598 21.6621C17.252 21.6664 17.2441 21.6706 17.2363 21.6748C17.0934 21.7523 16.9484 21.8262 16.8018 21.8975C16.7816 21.9073 16.7614 21.9171 16.7412 21.9268C16.6018 21.9934 16.4609 22.0572 16.3184 22.1182C16.2804 22.1344 16.2423 22.1502 16.2041 22.166C16.0753 22.2193 15.9456 22.2708 15.8145 22.3193C15.7859 22.3299 15.7572 22.3402 15.7285 22.3506C15.6058 22.3948 15.4821 22.4366 15.3574 22.4766C15.3152 22.4901 15.2729 22.5036 15.2305 22.5166C15.084 22.5615 14.9361 22.6027 14.7871 22.6416C14.7618 22.6482 14.7364 22.6547 14.7109 22.6611C14.5504 22.7018 14.3888 22.7399 14.2256 22.7734C14.2139 22.7758 14.2021 22.7779 14.1904 22.7803C14.0228 22.8142 13.8539 22.8449 13.6836 22.8711C13.6794 22.8717 13.6751 22.8724 13.6709 22.873C13.5083 22.8978 13.3445 22.918 13.1797 22.9355C13.1443 22.9393 13.1088 22.9428 13.0732 22.9463C12.9124 22.9619 12.7507 22.9748 12.5879 22.9834C12.5687 22.9844 12.5495 22.9844 12.5303 22.9854C12.3545 22.9937 12.1778 23 12 23C11.8219 23 11.6448 22.9937 11.4688 22.9854C11.4495 22.9844 11.4303 22.9844 11.4111 22.9834C11.2483 22.9748 11.0866 22.9619 10.9258 22.9463C10.8902 22.9428 10.8548 22.9393 10.8193 22.9355C10.6545 22.9179 10.4907 22.8979 10.3281 22.873C10.3239 22.8724 10.3197 22.8717 10.3154 22.8711C10.1451 22.8449 9.97624 22.8142 9.80859 22.7803C9.79689 22.7779 9.78513 22.7758 9.77344 22.7734C9.61225 22.7403 9.45248 22.7032 9.29395 22.6631C9.26553 22.6559 9.23731 22.648 9.20898 22.6406C9.06142 22.602 8.91461 22.5621 8.76953 22.5176C8.72334 22.5034 8.67777 22.4874 8.63184 22.4727C8.51322 22.4345 8.39514 22.3955 8.27832 22.3535C8.247 22.3423 8.21576 22.3309 8.18457 22.3193C8.05631 22.2719 7.92966 22.221 7.80371 22.1689C7.75971 22.1508 7.71559 22.133 7.67188 22.1143C7.54123 22.0583 7.41216 21.9993 7.28418 21.9385C7.24655 21.9206 7.20927 21.9021 7.17188 21.8838C7.0341 21.8163 6.89715 21.7478 6.7627 21.6748C6.75488 21.6706 6.74706 21.6664 6.73926 21.6621C6.60852 21.5908 6.47999 21.5159 6.35254 21.4395C6.32361 21.4221 6.29438 21.4053 6.26562 21.3877C6.14452 21.3136 6.02518 21.2368 5.90723 21.1582C5.87191 21.1347 5.83679 21.1109 5.80176 21.0869C5.68025 21.0039 5.56031 20.9188 5.44238 20.8311C5.4161 20.8115 5.39036 20.7913 5.36426 20.7715C5.27291 20.7023 5.18283 20.6315 5.09375 20.5596C5.0367 20.5135 4.97993 20.4671 4.92383 20.4199C4.83833 20.348 4.75414 20.2746 4.6709 20.2002C4.6324 20.1658 4.59367 20.1316 4.55566 20.0967C4.45803 20.0069 4.36189 19.9155 4.26758 19.8223C4.23107 19.7862 4.19518 19.7495 4.15918 19.7129C4.06326 19.6154 3.96822 19.517 3.87598 19.416C3.85016 19.3878 3.82533 19.3586 3.7998 19.3301C3.71949 19.2403 3.64084 19.149 3.56348 19.0566C3.53945 19.0279 3.51495 18.9996 3.49121 18.9707C3.42027 18.8842 3.35054 18.7967 3.28223 18.708C3.27438 18.6978 3.26718 18.6872 3.25977 18.6768C1.84315 16.8251 1 14.5114 1 12C1 8.96621 2.22938 6.21747 4.21484 4.22852C6.2049 2.23499 8.95925 1 12 1ZM12 17C9.73798 17.0001 7.59535 17.5012 5.67383 18.3965C7.07266 19.7803 8.91981 20.7073 10.9785 20.9404C11.1144 20.9558 11.2511 20.9673 11.3887 20.9766C11.5907 20.9902 11.7945 21 12 21C12.2052 21 12.4086 20.9901 12.6104 20.9766C12.748 20.9673 12.8847 20.9558 13.0205 20.9404C15.0792 20.7074 16.9262 19.7801 18.3252 18.3965C16.4039 17.5016 14.2616 17 12 17ZM13 4C13 4.55228 12.5523 5 12 5C11.4477 5 11 4.55228 11 4V3.05664C9.26101 3.24879 7.67237 3.93518 6.37598 4.97461L7.19434 5.79297C7.58485 6.18349 7.58485 6.81651 7.19434 7.20703C6.80381 7.59755 6.17079 7.59756 5.78027 7.20703L4.96387 6.39062C3.93086 7.6844 3.24812 9.26739 3.05664 11H4C4.55228 11 5 11.4477 5 12C5 12.5523 4.55228 13 4 13H3.05664C3.20982 14.3854 3.67761 15.675 4.38672 16.7979C6.39691 15.7893 8.63403 15.1677 11 15.0303V10C11 9.44771 11.4477 9 12 9C12.5523 9 13 9.44771 13 10V15.0303C15.3658 15.1676 17.6032 15.7886 19.6133 16.7969C20.3221 15.6742 20.7902 14.3851 20.9434 13H20C19.4477 13 19 12.5523 19 12C19 11.4477 19.4477 11 20 11H20.9434C20.7519 9.2672 20.0684 7.68449 19.0352 6.39062L18.2197 7.20703C17.8292 7.59756 17.1962 7.59755 16.8057 7.20703C16.4153 6.8165 16.4152 6.18344 16.8057 5.79297L17.623 4.97461C16.3268 3.93544 14.7387 3.24876 13 3.05664V4Z" fill="#9E9E9E"/>
</g>
</svg>
