<svg width="24" height="24" viewBox="0 0 24 24" fill="none" xmlns="http://www.w3.org/2000/svg">
<g id="icons/Hardware/dashboard-one">
<path id="Union" d="M12.1357 2.69434C18.0869 2.69434 22.9111 7.51858 22.9111 13.4697C22.9111 16.2244 22.0125 19.0292 20.2031 20.9912C20.0177 21.1923 19.756 21.3066 19.4824 21.3066H4.78906C4.5155 21.3066 4.25382 21.1923 4.06836 20.9912C2.25899 19.0292 1.36035 16.2244 1.36035 13.4697C1.36036 7.51859 6.1846 2.69434 12.1357 2.69434ZM12.1357 4.65332C7.26663 4.65332 3.31935 8.60061 3.31934 13.4697C3.31934 15.6809 3.99889 17.828 5.23633 19.3477H19.0352C20.2726 17.828 20.9521 15.6809 20.9521 13.4697C20.9521 8.60061 17.0049 4.65332 12.1357 4.65332ZM12.1357 9.06152C12.6768 9.06152 13.1152 9.5 13.1152 10.041V12.1699C14.2565 12.5735 15.0751 13.6592 15.0752 14.9385C15.0752 16.5615 13.7588 17.8779 12.1357 17.8779C10.5128 17.8778 9.19727 16.5614 9.19727 14.9385C9.19735 13.6594 10.0155 12.5736 11.1562 12.1699V10.041C11.1562 9.5 11.5947 9.06152 12.1357 9.06152ZM12.1357 13.959C11.5949 13.9592 11.1564 14.3977 11.1562 14.9385C11.1562 15.4794 11.5949 15.9178 12.1357 15.918C12.6768 15.918 13.1152 15.4795 13.1152 14.9385C13.1151 14.3976 12.6767 13.959 12.1357 13.959ZM5.76855 12.9795C6.30957 12.9795 6.74805 13.418 6.74805 13.959C6.74805 14.5 6.30957 14.9385 5.76855 14.9385H4.78906C4.24811 14.9384 3.80957 14.5 3.80957 13.959C3.80957 13.418 4.24811 12.9796 4.78906 12.9795H5.76855ZM19.4824 12.9795C20.0234 12.9795 20.4619 13.418 20.4619 13.959C20.4619 14.5 20.0234 14.9385 19.4824 14.9385H18.5029C17.9619 14.9385 17.5234 14.5 17.5234 13.959C17.5234 13.418 17.9619 12.9795 18.5029 12.9795H19.4824ZM6.05566 8.36914C6.43822 7.98659 7.05788 7.98659 7.44043 8.36914L8.13379 9.06152C8.51614 9.44409 8.51628 10.0648 8.13379 10.4473C7.7513 10.8298 7.13062 10.8296 6.74805 10.4473L6.05566 9.75391C5.67311 9.37135 5.67311 8.7517 6.05566 8.36914ZM17.0342 8.36914C17.4167 7.98657 18.0374 7.9866 18.4199 8.36914C18.802 8.7516 18.802 9.37144 18.4199 9.75391L17.7266 10.4473C17.3441 10.8294 16.7243 10.8294 16.3418 10.4473C15.9592 10.0647 15.9593 9.44409 16.3418 9.06152L17.0342 8.36914ZM12.1357 5.14258C12.6768 5.14258 13.1152 5.58106 13.1152 6.12207V7.10156C13.1152 7.64258 12.6768 8.08105 12.1357 8.08105C11.5947 8.08105 11.1562 7.64258 11.1562 7.10156V6.12207C11.1562 5.58106 11.5947 5.14258 12.1357 5.14258Z" fill="#9E9E9E"/>
</g>
</svg>
