<svg width="24" height="24" viewBox="0 0 24 24" fill="none" xmlns="http://www.w3.org/2000/svg">
<g id="icons/Hardware/data-server">
<path id="Union" d="M20.5 1C21.8807 1 23 2.1193 23 3.5V20.5C23 21.8807 21.8807 23 20.5 23H3.5C2.1193 23 1 21.8807 1 20.5V3.5C1 2.11929 2.11929 1 3.5 1H20.5ZM3 20.5C3 20.7762 3.22385 21 3.5 21H20.5C20.7762 21 21 20.7762 21 20.5V17H3V20.5ZM5.5 18C6.05228 18 6.5 18.4477 6.5 19C6.5 19.5523 6.05228 20 5.5 20H5C4.44772 20 4 19.5523 4 19C4 18.4477 4.44772 18 5 18H5.5ZM19 18C19.5523 18 20 18.4477 20 19C20 19.5523 19.5523 20 19 20H13C12.4477 20 12 19.5523 12 19C12 18.4477 12.4477 18 13 18H19ZM3.5 3C3.22386 3 3 3.22386 3 3.5V15H21V3.5C21 3.22385 20.7762 3 20.5 3H3.5Z" fill="#9E9E9E"/>
</g>
</svg>
