<svg width="24" height="24" viewBox="0 0 24 24" fill="none" xmlns="http://www.w3.org/2000/svg">
<g id="icons/Hardware/delete-key">
<path id="Union" d="M21 4C22.1046 4 23 4.89542 23 6V18C23 19.1046 22.1046 20 21 20H9.89453C9.38799 20 8.8997 19.8077 8.5293 19.4619L1.31738 12.7314C1.11475 12.5423 1 12.2772 1 12C1 11.7228 1.11475 11.4577 1.31738 11.2686L8.5293 4.53809C8.8997 4.19229 9.38799 4 9.89453 4H21ZM3.46582 12L9.89453 18H21V6H9.89453L3.46582 12ZM17.293 8.79297C17.6835 8.40244 18.3165 8.40244 18.707 8.79297C19.0976 9.18349 19.0976 9.81651 18.707 10.207L16.9141 12L18.707 13.793C19.0976 14.1835 19.0976 14.8165 18.707 15.207C18.3165 15.5976 17.6835 15.5976 17.293 15.207L15.5 13.4141L13.707 15.207C13.3165 15.5976 12.6835 15.5976 12.293 15.207C11.9024 14.8165 11.9024 14.1835 12.293 13.793L14.0859 12L12.293 10.207C11.9024 9.81651 11.9024 9.18349 12.293 8.79297C12.6835 8.40244 13.3165 8.40244 13.707 8.79297L15.5 10.5859L17.293 8.79297Z" fill="#9E9E9E"/>
</g>
</svg>
