<svg width="24" height="24" viewBox="0 0 24 24" fill="none" xmlns="http://www.w3.org/2000/svg">
<g id="icons/Hardware/desk-lamp">
<path id="Union" d="M12 1C16.9706 1 21 5.02942 21 10V12.2979C21 13.2379 20.2379 14 19.2979 14H13V20H16.5C17.0523 20 17.5 20.4477 17.5 21C17.5 21.5523 17.0523 22 16.5 22H7.5C6.94772 22 6.5 21.5523 6.5 21C6.5 20.4477 6.94772 20 7.5 20H11V14H8.5V16C8.5 16.5523 8.05228 17 7.5 17C6.94772 17 6.5 16.5523 6.5 16V14H4.70215C3.76207 14 3 13.2379 3 12.2979V10C3 5.02942 7.02942 1 12 1ZM12 3C8.13398 3 5 6.13398 5 10V12H19V10C19 6.13398 15.866 3 12 3Z" fill="#9E9E9E"/>
</g>
</svg>
