<svg width="24" height="24" viewBox="0 0 24 24" fill="none" xmlns="http://www.w3.org/2000/svg">
<g id="icons/Hardware/devices">
<path id="Union" d="M21.5 1.5C22.0523 1.5 22.5 1.94772 22.5 2.5V21.5C22.5 22.0523 22.0523 22.5 21.5 22.5H2.5C1.94772 22.5 1.5 22.0523 1.5 21.5V7.5C1.5 6.94772 1.94772 6.5 2.5 6.5H6V2.5C6 1.94772 6.44772 1.5 7 1.5H21.5ZM3.5 20.5H10.5V8.5H3.5V20.5ZM8 6.5H11.5C12.0523 6.5 12.5 6.94772 12.5 7.5V20.5H20.5V3.5H8V6.5ZM7.5 17.5C8.05228 17.5 8.5 17.9477 8.5 18.5C8.5 19.0523 8.05228 19.5 7.5 19.5H6.5C5.94772 19.5 5.5 19.0523 5.5 18.5C5.5 17.9477 5.94772 17.5 6.5 17.5H7.5ZM15 17.5C15.5523 17.5 16 17.9477 16 18.5C16 19.0523 15.5523 19.5 15 19.5H14C13.4477 19.5 13 19.0523 13 18.5C13 17.9477 13.4477 17.5 14 17.5H15Z" fill="#9E9E9E"/>
</g>
</svg>
