<svg width="24" height="24" viewBox="0 0 24 24" fill="none" xmlns="http://www.w3.org/2000/svg">
<g id="icons/Hardware/digital-watches">
<path id="Union" d="M13.5 1C14.6046 1 15.5 1.89544 15.5 3V5.5H16C17.3807 5.5 18.5 6.61929 18.5 8V9.5C19.0523 9.5 19.5 9.94771 19.5 10.5C19.5 11.0523 19.0523 11.5 18.5 11.5V16C18.5 17.3807 17.3807 18.5 16 18.5H15.5V21C15.5 22.1046 14.6046 23 13.5 23H10.5C9.39542 23 8.5 22.1046 8.5 21V18.5H8C6.61929 18.5 5.5 17.3807 5.5 16V8C5.5 6.61929 6.61929 5.5 8 5.5H8.5V3C8.5 1.89544 9.39541 1 10.5 1H13.5ZM10.5 21H13.5V18.5H10.5V21ZM8 7.5C7.72386 7.5 7.5 7.72386 7.5 8V16C7.5 16.2761 7.72386 16.5 8 16.5H16C16.2761 16.5 16.5 16.2761 16.5 16V8C16.5 7.72386 16.2761 7.5 16 7.5H8ZM10.5 11C11.0523 11 11.5 11.4477 11.5 12C11.5 12.5523 11.0523 13 10.5 13H9.5C8.94772 13 8.5 12.5523 8.5 12C8.5 11.4477 8.94772 11 9.5 11H10.5ZM14.5 11C15.0523 11 15.5 11.4477 15.5 12C15.5 12.5523 15.0523 13 14.5 13H13.5C12.9477 13 12.5 12.5523 12.5 12C12.5 11.4477 12.9477 11 13.5 11H14.5ZM10.5 5.5H13.5V3H10.5V5.5Z" fill="#9E9E9E"/>
</g>
</svg>
