<svg width="24" height="24" viewBox="0 0 24 24" fill="none" xmlns="http://www.w3.org/2000/svg">
<g id="icons/Hardware/disabled-computer">
<path id="Union" d="M11.5 1.99902C12.0523 1.99902 12.5 2.44674 12.5 2.99902C12.5 3.55131 12.0523 3.99902 11.5 3.99902H4.5C4.22386 3.99902 4 4.22288 4 4.49902V15.499C4.00001 15.7752 4.22386 15.999 4.5 15.999H19.5C19.7762 15.999 20 15.7752 20 15.499V11.999C20 11.4467 20.4477 10.999 21 10.999C21.5523 10.999 22 11.4467 22 11.999V15.499C22 16.8797 20.8807 17.999 19.5 17.999H13V19.999H17C17.5523 19.999 18 20.4467 18 20.999C18 21.5513 17.5523 21.999 17 21.999H12.0205C12.0137 21.9992 12.0069 22 12 22C11.9931 22 11.9863 21.9992 11.9795 21.999H7C6.44772 21.999 6 21.5513 6 20.999C6 20.4467 6.44772 19.999 7 19.999H11V17.999H4.5C3.11931 17.999 2.00001 16.8798 2 15.499V4.49902C2 3.11831 3.11929 1.99902 4.5 1.99902H11.5ZM18 2C20.2091 2 22 3.79086 22 6C22 8.20914 20.2091 10 18 10C15.7909 9.99993 14 8.2091 14 6C14 3.7909 15.7909 2.00007 18 2ZM16.0693 5.4834C16.0253 5.64833 16 5.82119 16 6C16 7.10453 16.8955 7.99993 18 8C18.1785 8 18.3509 7.97358 18.5156 7.92969L16.0693 5.4834ZM18 4C17.8212 4.00001 17.6483 4.0253 17.4834 4.06934L19.9297 6.51562C19.9736 6.35087 20 6.17859 20 6C20 4.89543 19.1046 4 18 4Z" fill="#9E9E9E"/>
</g>
</svg>
