<svg width="24" height="24" viewBox="0 0 24 24" fill="none" xmlns="http://www.w3.org/2000/svg">
<g id="icons/Hardware/disabled-laptop">
<path id="Union" d="M11.5 3.49902C12.0523 3.49902 12.5 3.94674 12.5 4.49902C12.5 5.05131 12.0523 5.49902 11.5 5.49902H5.5C5.22386 5.49902 5 5.72291 5 5.99902V15.499H19V12.999C19 12.4467 19.4477 11.999 20 11.999C20.5523 11.999 21 12.4467 21 12.999V15.499H22C22.5523 15.499 23 15.9467 23 16.499V17.499C23 19.7082 21.2091 21.499 19 21.499H5C2.79086 21.499 1 19.7082 1 17.499V16.499C1 15.9467 1.44772 15.499 2 15.499H3V5.99902C3 4.61834 4.11929 3.49902 5.5 3.49902H11.5ZM3 17.499C3 18.6036 3.89543 19.499 5 19.499H19C20.1046 19.499 21 18.6036 21 17.499H3ZM18 2.5C20.2091 2.5 22 4.29086 22 6.5C22 8.70914 20.2091 10.5 18 10.5C15.7909 10.4999 14 8.7091 14 6.5C14 4.2909 15.7909 2.50007 18 2.5ZM16.0693 5.9834C16.0253 6.14833 16 6.32119 16 6.5C16 7.60453 16.8955 8.49993 18 8.5C18.1785 8.5 18.3509 8.47358 18.5156 8.42969L16.0693 5.9834ZM18 4.5C17.8212 4.50001 17.6483 4.5253 17.4834 4.56934L19.9297 7.01562C19.9736 6.85087 20 6.67859 20 6.5C20 5.39543 19.1046 4.5 18 4.5Z" fill="#9E9E9E"/>
</g>
</svg>
