<svg width="24" height="24" viewBox="0 0 24 24" fill="none" xmlns="http://www.w3.org/2000/svg">
<g id="icons/Hardware/disk-one">
<path id="Union" d="M16.5439 1.22461C17.0849 1.22465 17.5234 1.66311 17.5234 2.2041V7.10254C18.3358 7.10535 18.9932 7.7651 18.9932 8.57812V15.9189C18.9931 19.7058 15.9236 22.7762 12.1367 22.7764C8.34969 22.7764 5.27939 19.7059 5.2793 15.9189V8.57812C5.2793 7.76558 5.93644 7.10622 6.74805 7.10254V2.2041C6.74805 1.66309 7.18653 1.22461 7.72754 1.22461H16.5439ZM7.33594 16.8975C7.78949 19.1335 9.76681 20.8164 12.1367 20.8164C14.5065 20.8162 16.4831 19.1334 16.9365 16.8975H7.33594ZM7.23828 14.9385H17.0342V9.06152H7.23828V14.9385ZM8.70703 7.10254H15.5645V3.18359H8.70703V7.10254ZM10.667 3.67383C11.208 3.67383 11.6465 4.11231 11.6465 4.65332V5.63281C11.6465 6.17383 11.208 6.6123 10.667 6.6123C10.126 6.6123 9.6875 6.17383 9.6875 5.63281V4.65332C9.6875 4.11231 10.126 3.67383 10.667 3.67383ZM13.6055 3.67383C14.1465 3.67383 14.585 4.11231 14.585 4.65332V5.63281C14.585 6.17383 14.1465 6.6123 13.6055 6.6123C13.0645 6.6123 12.626 6.17383 12.626 5.63281V4.65332C12.626 4.11231 13.0645 3.67383 13.6055 3.67383Z" fill="#9E9E9E"/>
</g>
</svg>
