<svg width="24" height="24" viewBox="0 0 24 24" fill="none" xmlns="http://www.w3.org/2000/svg">
<g id="icons/Hardware/disk-two">
<path id="Union" d="M17 5.5C18.1046 5.5 19 6.39543 19 7.5V8.5H22C22.5523 8.5 23 8.94772 23 9.5V14.5C23 15.0523 22.5523 15.5 22 15.5H19V16.5C19 17.6046 18.1046 18.5 17 18.5H2C1.44772 18.5 1 18.0523 1 17.5V6.5C1 5.94772 1.44772 5.5 2 5.5H17ZM3 16.5H6V7.5H3V16.5ZM8 16.5H17V7.5H8V16.5ZM15 12.5C15.5523 12.5 16 12.9477 16 13.5C16 14.0523 15.5523 14.5 15 14.5C14.4477 14.5 14 14.0523 14 13.5C14 12.9477 14.4477 12.5 15 12.5ZM19 13.5H21V10.5H19V13.5ZM15 9.5C15.5523 9.5 16 9.94772 16 10.5C16 11.0523 15.5523 11.5 15 11.5C14.4477 11.5 14 11.0523 14 10.5C14 9.94772 14.4477 9.5 15 9.5Z" fill="#9E9E9E"/>
</g>
</svg>
