<svg width="24" height="24" viewBox="0 0 24 24" fill="none" xmlns="http://www.w3.org/2000/svg">
<g id="icons/Hardware/disk">
<path id="Union" d="M20.5 1C21.8807 1 23 2.1193 23 3.5V20.5C23 21.8807 21.8807 23 20.5 23H3.5C2.1193 23 1 21.8807 1 20.5V3.5C1 2.11929 2.11929 1 3.5 1H20.5ZM3.5 3C3.22386 3 3 3.22386 3 3.5V20.5C3 20.7762 3.22385 21 3.5 21H20.5C20.7762 21 21 20.7762 21 20.5V3.5C21 3.22385 20.7762 3 20.5 3H18V11C18 11.5523 17.5523 12 17 12H7.5C6.94772 12 6.5 11.5523 6.5 11V3H3.5ZM8.5 10H16V3H8.5V10ZM14.5 4.5C15.0523 4.5 15.5 4.94772 15.5 5.5V7.5C15.5 8.05228 15.0523 8.5 14.5 8.5C13.9477 8.5 13.5 8.05228 13.5 7.5V5.5C13.5 4.94772 13.9477 4.5 14.5 4.5Z" fill="#9E9E9E"/>
</g>
</svg>
