<svg width="24" height="24" viewBox="0 0 24 24" fill="none" xmlns="http://www.w3.org/2000/svg">
<g id="icons/Hardware/dome-light">
<path id="Union" d="M15.9111 19.2109C16.3543 18.9009 16.9652 19.0091 17.2754 19.4521L17.8369 20.2539C18.1471 20.697 18.0395 21.3078 17.5967 21.6182C17.1536 21.9284 16.5428 21.821 16.2324 21.3779L15.6699 20.5752C15.3599 20.132 15.4681 19.5212 15.9111 19.2109ZM7.10059 19.376C7.48314 18.9934 8.10377 18.9934 8.48633 19.376C8.86842 19.7584 8.86842 20.3783 8.48633 20.7607L7.79297 21.4541C7.4105 21.8362 6.79067 21.8362 6.4082 21.4541C6.02565 21.0715 6.02565 20.4509 6.4082 20.0684L7.10059 19.376ZM18.415 17.0859C18.8582 16.7759 19.4691 16.8841 19.7793 17.3271L20.792 18.7734C21.1022 19.2165 20.9947 19.8273 20.5518 20.1377C20.1087 20.4479 19.4979 20.3403 19.1875 19.8975L18.1738 18.4502C17.8638 18.0071 17.972 17.3962 18.415 17.0859ZM4.7207 17.2959C5.10326 16.9133 5.72389 16.9133 6.10645 17.2959C6.48881 17.6784 6.48881 18.2981 6.10645 18.6807L4.85742 19.9297C4.4749 20.312 3.85517 20.312 3.47266 19.9297C3.0901 19.5471 3.0901 18.9265 3.47266 18.5439L4.7207 17.2959ZM12.1357 1.22461C12.6768 1.22461 13.1152 1.66309 13.1152 2.2041V3.22949C18.6073 3.72444 22.9111 8.33808 22.9111 13.959C22.9111 14.5 22.4727 14.9385 21.9316 14.9385H17.9316C17.4653 17.7181 15.0488 19.8366 12.1367 19.8369C9.22443 19.8369 6.80727 17.7183 6.34082 14.9385H2.33984C1.79883 14.9385 1.36035 14.5 1.36035 13.959C1.36036 8.33808 5.66422 3.72444 11.1562 3.22949V2.2041C11.1562 1.66309 11.5947 1.22461 12.1357 1.22461ZM8.34082 14.9385C8.77574 16.6286 10.3109 17.877 12.1367 17.877C13.9623 17.8767 15.4968 16.6284 15.9316 14.9385H8.34082ZM12.1357 5.14258C7.59777 5.14258 3.86234 8.57143 3.375 12.9795H20.8965C20.4091 8.57143 16.6737 5.14258 12.1357 5.14258Z" fill="#9E9E9E"/>
</g>
</svg>
