<svg width="24" height="24" viewBox="0 0 24 24" fill="none" xmlns="http://www.w3.org/2000/svg">
<g id="icons/Hardware/download-laptop">
<path id="Union" d="M12.5 3.5C13.0523 3.5 13.5 3.94772 13.5 4.5C13.5 5.05228 13.0523 5.5 12.5 5.5H5.5C5.22385 5.5 5 5.72385 5 6V15.5H19V12.5C19 11.9477 19.4477 11.5 20 11.5C20.5523 11.5 21 11.9477 21 12.5V15.5H22C22.5523 15.5 23 15.9477 23 16.5V17.5C23 19.7091 21.2091 21.5 19 21.5H5C2.79086 21.5 1 19.7091 1 17.5V16.5C1 15.9477 1.44772 15.5 2 15.5H3V6C3 4.61925 4.1193 3.5 5.5 3.5H12.5ZM3 17.5C3 18.6046 3.89543 19.5 5 19.5H19C20.1046 19.5 21 18.6046 21 17.5H3ZM18 2.5C18.5523 2.5 19 2.94772 19 3.5V7.08594L19.793 6.29297C20.1835 5.90244 20.8165 5.90244 21.207 6.29297C21.5976 6.68349 21.5976 7.31651 21.207 7.70703L18.707 10.207C18.6592 10.2548 18.6065 10.2976 18.5498 10.335C18.5121 10.3599 18.4727 10.3811 18.4326 10.4004C18.3874 10.4222 18.3407 10.4412 18.292 10.4561C18.2717 10.4622 18.251 10.4668 18.2305 10.4717C18.2191 10.4744 18.2078 10.4772 18.1963 10.4795C18.1859 10.4816 18.1754 10.4826 18.165 10.4844C18.1112 10.4933 18.0563 10.5 18 10.5C17.9433 10.5 17.8881 10.4934 17.834 10.4844C17.8236 10.4826 17.8131 10.4816 17.8027 10.4795C17.7912 10.4772 17.7799 10.4744 17.7686 10.4717C17.748 10.4668 17.7273 10.4623 17.707 10.4561C17.6584 10.4412 17.6116 10.4222 17.5664 10.4004C17.5266 10.3812 17.4877 10.3597 17.4502 10.335C17.3935 10.2976 17.3408 10.2548 17.293 10.207L14.793 7.70703C14.4024 7.31651 14.4024 6.68349 14.793 6.29297C15.1835 5.90244 15.8165 5.90244 16.207 6.29297L17 7.08594V3.5C17 2.94772 17.4477 2.5 18 2.5Z" fill="#9E9E9E"/>
</g>
</svg>
