<svg width="24" height="24" viewBox="0 0 24 24" fill="none" xmlns="http://www.w3.org/2000/svg">
<g id="icons/Hardware/download-computer">
<path id="Union" d="M13 2C13.5523 2 14 2.44772 14 3C14 3.55228 13.5523 4 13 4H4.5C4.22386 4 4 4.22386 4 4.5V15.5C4 15.7762 4.22385 16 4.5 16H19.5C19.7762 16 20 15.7762 20 15.5V12.5C20 11.9477 20.4477 11.5 21 11.5C21.5523 11.5 22 11.9477 22 12.5V15.5C22 16.8807 20.8807 18 19.5 18H13V20H17C17.5523 20 18 20.4477 18 21C18 21.5523 17.5523 22 17 22H7C6.44772 22 6 21.5523 6 21C6 20.4477 6.44772 20 7 20H11V18H4.5C3.1193 18 2 16.8807 2 15.5V4.5C2 3.11929 3.11929 2 4.5 2H13ZM18.5 2C19.0523 2 19.5 2.44772 19.5 3V6.58594L20.293 5.79297C20.6835 5.40244 21.3165 5.40244 21.707 5.79297C22.0976 6.18349 22.0976 6.81651 21.707 7.20703L19.207 9.70703C19.1592 9.75484 19.1065 9.79758 19.0498 9.83496C19.0121 9.85987 18.9727 9.88114 18.9326 9.90039C18.8874 9.92216 18.8407 9.9412 18.792 9.95605C18.7717 9.96224 18.751 9.96682 18.7305 9.97168C18.7191 9.97436 18.7078 9.9772 18.6963 9.97949C18.6859 9.98156 18.6754 9.98264 18.665 9.98438C18.6112 9.99333 18.5563 10 18.5 10C18.4433 10 18.3881 9.99343 18.334 9.98438C18.3236 9.98263 18.3131 9.98157 18.3027 9.97949C18.2912 9.97719 18.2799 9.97437 18.2686 9.97168C18.248 9.9668 18.2273 9.96225 18.207 9.95605C18.1584 9.94116 18.1116 9.92219 18.0664 9.90039C18.0266 9.88123 17.9877 9.8597 17.9502 9.83496C17.8935 9.79758 17.8408 9.75484 17.793 9.70703L15.293 7.20703C14.9024 6.81651 14.9024 6.18349 15.293 5.79297C15.6835 5.40244 16.3165 5.40244 16.707 5.79297L17.5 6.58594V3C17.5 2.44772 17.9477 2 18.5 2Z" fill="#9E9E9E"/>
</g>
</svg>
