<svg width="24" height="24" viewBox="0 0 24 24" fill="none" xmlns="http://www.w3.org/2000/svg">
<g id="icons/Hardware/drone-one">
<path id="Union" d="M8.13184 16.0039C8.40585 15.5244 9.01658 15.3578 9.49609 15.6318C9.97561 15.9058 10.1422 16.5166 9.86816 16.9961L7.86816 20.4961C7.59415 20.9756 6.98342 21.1422 6.50391 20.8682C6.02439 20.5942 5.85783 19.9834 6.13184 19.5039L8.13184 16.0039ZM14.5039 15.6318C14.9834 15.3578 15.5942 15.5244 15.8682 16.0039L17.8682 19.5039C18.1422 19.9834 17.9756 20.5942 17.4961 20.8682C17.0166 21.1422 16.4058 20.9756 16.1318 20.4961L14.1318 16.9961C13.8578 16.5166 14.0244 15.9058 14.5039 15.6318ZM6 10C6.55228 10 7 10.4477 7 11V14.5C7 15.0523 6.55228 15.5 6 15.5H2.5C1.94772 15.5 1.5 15.0523 1.5 14.5V11C1.5 10.4477 1.94772 10 2.5 10H6ZM21.5 10C22.0523 10 22.5 10.4477 22.5 11V14.5C22.5 15.0523 22.0523 15.5 21.5 15.5H18C17.4477 15.5 17 15.0523 17 14.5V11C17 10.4477 17.4477 10 18 10H21.5ZM3.5 13.5H5V12H3.5V13.5ZM12 4.5C13.933 4.5 15.5 6.06702 15.5 8L15.6182 8.00684C15.8904 8.0392 16.1398 8.18295 16.3047 8.40625C16.493 8.66141 16.5492 8.99084 16.4561 9.29395L15.3789 12.7939C15.2498 13.2135 14.8619 13.5 14.4229 13.5H9.57715C9.13814 13.5 8.7502 13.2135 8.62109 12.7939L7.54395 9.29395C7.45075 8.99084 7.50704 8.66141 7.69531 8.40625C7.88385 8.15098 8.18266 8 8.5 8C8.5 6.06702 10.067 4.5 12 4.5ZM19 13.5H20.5V12H19V13.5ZM10.3154 11.5H13.6846L14.1465 10H9.85352L10.3154 11.5ZM12 6.5C11.1716 6.5 10.5 7.17158 10.5 8H13.5C13.5 7.17158 12.8284 6.5 12 6.5ZM8 3C8.55228 3 9 3.44772 9 4C9 4.55228 8.55228 5 8 5H2C1.44772 5 1 4.55228 1 4C1 3.44772 1.44772 3 2 3H8ZM22 3C22.5523 3 23 3.44772 23 4C23 4.55228 22.5523 5 22 5H16C15.4477 5 15 4.55228 15 4C15 3.44772 15.4477 3 16 3H22Z" fill="#9E9E9E"/>
</g>
</svg>
