<svg width="24" height="24" viewBox="0 0 24 24" fill="none" xmlns="http://www.w3.org/2000/svg">
<g id="icons/Hardware/drone">
<path id="Union" d="M6.00037 13.5C6.55246 13.5002 7.00037 13.9479 7.00037 14.5C7.00014 15.052 6.55232 15.4998 6.00037 15.5C5.50606 15.5 5.0227 15.6464 4.61169 15.9209C4.20064 16.1956 3.88002 16.5863 3.6908 17.043C3.5017 17.4996 3.45188 18.0026 3.54822 18.4873C3.64474 18.9721 3.8833 19.4181 4.23279 19.7676C4.58235 20.117 5.02829 20.3557 5.51306 20.4521C5.9977 20.5484 6.50085 20.4987 6.9574 20.3096C7.41397 20.1203 7.80486 19.7996 8.07947 19.3887C8.35395 18.9777 8.50028 18.4942 8.50037 18C8.50037 17.4477 8.94808 17 9.50037 17C10.0525 17.0002 10.5004 17.4479 10.5004 18C10.5003 18.8899 10.236 19.7601 9.74158 20.5C9.24716 21.2398 8.54413 21.8166 7.72205 22.1572C6.89999 22.4977 5.99508 22.5866 5.12244 22.4131C4.24975 22.2395 3.44796 21.8107 2.81873 21.1816C2.18951 20.5525 1.76099 19.7506 1.58728 18.8779C1.41367 18.0052 1.5027 17.1005 1.84314 16.2783C2.18372 15.4561 2.76044 14.7533 3.50037 14.2588C4.24039 13.7643 5.11039 13.5 6.00037 13.5ZM18.0004 13.5C18.8902 13.5001 19.7604 13.7644 20.5004 14.2588C21.2401 14.7532 21.817 15.4563 22.1576 16.2783C22.4979 17.1004 22.587 18.0053 22.4135 18.8779C22.2398 19.7507 21.8113 20.5524 21.182 21.1816C20.5528 21.8109 19.751 22.2394 18.8783 22.4131C18.0057 22.5867 17.1008 22.4976 16.2787 22.1572C15.4567 21.8167 14.7536 21.2397 14.2592 20.5C13.7647 19.7601 13.5004 18.8899 13.5004 18C13.5004 17.4477 13.9481 17 14.5004 17C15.0525 17.0002 15.5004 17.4479 15.5004 18C15.5004 18.4942 15.6468 18.9777 15.9213 19.3887C16.1959 19.7995 16.5868 20.1204 17.0433 20.3096C17.4999 20.4986 18.0031 20.5485 18.4877 20.4521C18.9725 20.3556 19.4184 20.1171 19.7679 19.7676C20.1175 19.4181 20.356 18.9722 20.4525 18.4873C20.5488 18.0027 20.4989 17.4995 20.3099 17.043C20.1207 16.5865 19.7998 16.1955 19.389 15.9209C18.9781 15.6464 18.4945 15.5001 18.0004 15.5C17.4482 15.5 17.0006 15.0521 17.0004 14.5C17.0004 13.9477 17.4481 13.5 18.0004 13.5ZM17.2933 5.29297C17.6839 4.90244 18.3169 4.90244 18.7074 5.29297C19.0975 5.68353 19.0978 6.31665 18.7074 6.70703L15.5004 9.91406V14.0859L18.7074 17.293C19.0975 17.6835 19.0978 18.3166 18.7074 18.707C18.317 19.0974 17.6839 19.0971 17.2933 18.707L14.0863 15.5H9.91443L6.7074 18.707C6.31701 19.0974 5.68389 19.0971 5.29333 18.707C4.90281 18.3165 4.90281 17.6835 5.29333 17.293L8.50037 14.0859V9.91406L5.29333 6.70703C4.90281 6.31651 4.90281 5.68349 5.29333 5.29297C5.68386 4.90244 6.31687 4.90244 6.7074 5.29297L9.91443 8.5H14.0863L17.2933 5.29297ZM10.5004 13.5H13.5004V10.5H10.5004V13.5ZM5.12244 1.58691C5.99514 1.41338 6.89994 1.50231 7.72205 1.84277C8.54408 2.18338 9.24721 2.76022 9.74158 3.5C10.2359 4.23994 10.5004 5.11018 10.5004 6C10.5001 6.55196 10.0523 6.99978 9.50037 7C8.94822 7 8.50059 6.55209 8.50037 6C8.50037 5.50585 8.35381 5.02225 8.07947 4.61133C7.8049 4.20042 7.41385 3.87968 6.9574 3.69043C6.5008 3.5013 5.99774 3.45159 5.51306 3.54785C5.0281 3.64431 4.58241 3.88279 4.23279 4.23242C3.88316 4.58205 3.64468 5.02773 3.54822 5.5127C3.45195 5.99738 3.50167 6.50043 3.6908 6.95703C3.88005 7.41349 4.20079 7.80453 4.61169 8.0791C5.02262 8.35344 5.50622 8.5 6.00037 8.5C6.55246 8.50022 7.00037 8.94785 7.00037 9.5C7.00014 10.052 6.55232 10.4998 6.00037 10.5C5.11054 10.5 4.24031 10.2355 3.50037 9.74121C2.76059 9.24685 2.18375 8.54372 1.84314 7.72168C1.50267 6.89958 1.41374 5.99477 1.58728 5.12207C1.76093 4.24919 2.18942 3.44766 2.81873 2.81836C3.44803 2.18905 4.24955 1.76056 5.12244 1.58691ZM16.2787 1.84277C17.1008 1.50234 18.0056 1.41331 18.8783 1.58691C19.751 1.76062 20.5528 2.18915 21.182 2.81836C21.8111 3.4476 22.2398 4.24938 22.4135 5.12207C22.5869 5.99472 22.498 6.89962 22.1576 7.72168C21.817 8.54376 21.2402 9.24679 20.5004 9.74121C19.7604 10.2356 18.8902 10.4999 18.0004 10.5C17.4482 10.5 17.0006 10.0521 17.0004 9.5C17.0004 8.94772 17.4481 8.5 18.0004 8.5C18.4945 8.49992 18.9781 8.35358 19.389 8.0791C19.8 7.80449 20.1207 7.4136 20.3099 6.95703C20.499 6.50049 20.5487 5.99734 20.4525 5.5127C20.3561 5.02793 20.1174 4.58198 19.7679 4.23242C19.4185 3.88293 18.9725 3.64438 18.4877 3.54785C18.003 3.45152 17.5 3.50133 17.0433 3.69043C16.5867 3.87966 16.1959 4.20027 15.9213 4.61133C15.6468 5.02233 15.5004 5.50569 15.5004 6C15.5001 6.55196 15.0523 6.99978 14.5004 7C13.9482 7 13.5006 6.55209 13.5004 6C13.5004 5.11002 13.7647 4.24002 14.2592 3.5C14.7536 2.76007 15.4564 2.18335 16.2787 1.84277Z" fill="#9E9E9E"/>
</g>
</svg>
