<svg width="24" height="24" viewBox="0 0 24 24" fill="none" xmlns="http://www.w3.org/2000/svg">
<g id="icons/Hardware/dvi">
<path id="Union" d="M21 6C22.1046 6 23 6.89542 23 8V11.9014C23 11.967 22.9967 12.0325 22.9902 12.0977L22.9609 12.293L22.1416 16.3926C21.9545 17.3271 21.1338 17.9998 20.1807 18H3.81934C2.86627 17.9998 2.04545 17.3271 1.8584 16.3926L1.03906 12.293C1.0133 12.1641 1.00002 12.033 1 11.9014V8C1 6.89541 1.89544 6 3 6H21ZM3 11.9014L3.81934 16H20.1807L21 11.9014V8H3V11.9014ZM11.5 12.5C12.0523 12.5 12.5 12.9477 12.5 13.5C12.5 14.0523 12.0523 14.5 11.5 14.5H10.5C9.94771 14.5 9.5 14.0523 9.5 13.5C9.5 12.9477 9.94771 12.5 10.5 12.5H11.5ZM15 12.5C15.5523 12.5 16 12.9477 16 13.5C16 14.0523 15.5523 14.5 15 14.5H14C13.4477 14.5 13 14.0523 13 13.5C13 12.9477 13.4477 12.5 14 12.5H15ZM18.5 12.5C19.0523 12.5 19.5 12.9477 19.5 13.5C19.5 14.0523 19.0523 14.5 18.5 14.5H17.5C16.9477 14.5 16.5 14.0523 16.5 13.5C16.5 12.9477 16.9477 12.5 17.5 12.5H18.5ZM8 11C8.55228 11 9 11.4477 9 12C9 12.5523 8.55228 13 8 13H5C4.44772 13 4 12.5523 4 12C4 11.4477 4.44772 11 5 11H8ZM11.5 9.5C12.0523 9.5 12.5 9.94772 12.5 10.5C12.5 11.0523 12.0523 11.5 11.5 11.5H10.5C9.94771 11.5 9.5 11.0523 9.5 10.5C9.5 9.94772 9.94771 9.5 10.5 9.5H11.5ZM15 9.5C15.5523 9.5 16 9.94772 16 10.5C16 11.0523 15.5523 11.5 15 11.5H14C13.4477 11.5 13 11.0523 13 10.5C13 9.94772 13.4477 9.5 14 9.5H15ZM18.5 9.5C19.0523 9.5 19.5 9.94772 19.5 10.5C19.5 11.0523 19.0523 11.5 18.5 11.5H17.5C16.9477 11.5 16.5 11.0523 16.5 10.5C16.5 9.94772 16.9477 9.5 17.5 9.5H18.5Z" fill="#9E9E9E"/>
</g>
</svg>
