<svg width="24" height="24" viewBox="0 0 24 24" fill="none" xmlns="http://www.w3.org/2000/svg">
<g id="icons/Hardware/eight-key">
<path id="Union" d="M19.5 2C20.8807 2 22 3.11929 22 4.5V19.5C22 20.8807 20.8807 22 19.5 22H4.5C3.11929 22 2 20.8807 2 19.5V4.5C2 3.11929 3.11929 2 4.5 2H19.5ZM4.5 4C4.22386 4 4 4.22386 4 4.5V19.5C4 19.7761 4.22386 20 4.5 20H19.5C19.7761 20 20 19.7761 20 19.5V4.5C20 4.22386 19.7761 4 19.5 4H4.5ZM12 6C13.6568 6 15 7.34317 15 9C15 9.85652 14.6382 10.6262 14.0625 11.1729C14.9337 11.8095 15.5 12.8384 15.5 14C15.5 15.933 13.933 17.5 12 17.5C10.067 17.5 8.5 15.933 8.5 14C8.5 12.8387 9.06572 11.8095 9.93652 11.1729C9.36113 10.6262 9 9.85627 9 9C9 7.34317 10.3432 6 12 6ZM12 12.5C11.1716 12.5 10.5 13.1716 10.5 14C10.5 14.8284 11.1716 15.5 12 15.5C12.8284 15.5 13.5 14.8284 13.5 14C13.5 13.1716 12.8284 12.5 12 12.5ZM12 8C11.4477 8 11 8.44773 11 9C11 9.55227 11.4477 10 12 10C12.5523 10 13 9.55227 13 9C13 8.44773 12.5523 8 12 8Z" fill="#9E9E9E"/>
</g>
</svg>
