<svg width="24" height="24" viewBox="0 0 24 24" fill="none" xmlns="http://www.w3.org/2000/svg">
<g id="icons/Hardware/electronic-locks-open">
<path id="Union" d="M12 3C13.1863 3 14.3009 3.46667 15.0596 4.34766C15.3921 4.73385 15.6476 5.19004 15.8076 5.70117C15.9726 6.22824 15.6784 6.78913 15.1514 6.9541C14.6244 7.11887 14.0634 6.82578 13.8984 6.29883C13.8189 6.04479 13.6965 5.82954 13.5439 5.65234C13.202 5.2554 12.6628 5 12 5C10.8542 5 10 5.75171 10 7V9H17C18.1046 9 19 9.89543 19 11V18C19 19.1046 18.1046 20 17 20H7C5.89543 20 5 19.1046 5 18V11C5 9.89543 5.89543 9 7 9H8V7C8 4.56639 9.83213 3 12 3ZM7 18H17V11H7V18ZM3 8C3.55228 8 4 8.44772 4 9V15C4 15.5523 3.55228 16 3 16C2.44772 16 2 15.5523 2 15V9C2 8.44772 2.44772 8 3 8ZM12 13C12.5523 13 13 13.4477 13 14V15C13 15.5523 12.5523 16 12 16C11.4477 16 11 15.5523 11 15V14C11 13.4477 11.4477 13 12 13ZM21 8C21.5523 8 22 8.44772 22 9V15C22 15.5523 21.5523 16 21 16C20.4477 16 20 15.5523 20 15V9C20 8.44772 20.4477 8 21 8Z" fill="#9E9E9E"/>
</g>
</svg>
