<svg width="24" height="24" viewBox="0 0 24 24" fill="none" xmlns="http://www.w3.org/2000/svg">
<g id="icons/Hardware/electronic-door-lock">
<path id="Union" d="M15 1C16.1046 1 17 1.89543 17 3V14H20C21.6569 14 23 15.3431 23 17C23 18.6569 21.6569 20 20 20H17V21C17 22.1046 16.1046 23 15 23H4C2.89543 23 2 22.1046 2 21V3C2 1.89543 2.89543 1 4 1H15ZM4 21H15V20H12C10.3431 20 9 18.6569 9 17C9 15.3431 10.3431 14 12 14H15V3H4V21ZM12 16C11.4477 16 11 16.4477 11 17C11 17.5523 11.4477 18 12 18H15V16H12ZM17 18H20C20.5523 18 21 17.5523 21 17C21 16.4477 20.5523 16 20 16H17V18ZM6 11C6.55228 11 7 11.4477 7 12C7 12.5523 6.55228 13 6 13C5.44772 13 5 12.5523 5 12C5 11.4477 5.44772 11 6 11ZM9.5 11C10.0523 11 10.5 11.4477 10.5 12C10.5 12.5523 10.0523 13 9.5 13C8.94772 13 8.5 12.5523 8.5 12C8.5 11.4477 8.94772 11 9.5 11ZM13 11C13.5523 11 14 11.4477 14 12C14 12.5523 13.5523 13 13 13C12.4477 13 12 12.5523 12 12C12 11.4477 12.4477 11 13 11ZM6 8C6.55228 8 7 8.44772 7 9C7 9.55228 6.55228 10 6 10C5.44772 10 5 9.55228 5 9C5 8.44772 5.44772 8 6 8ZM9.5 8C10.0523 8 10.5 8.44772 10.5 9C10.5 9.55228 10.0523 10 9.5 10C8.94772 10 8.5 9.55228 8.5 9C8.5 8.44772 8.94772 8 9.5 8ZM13 8C13.5523 8 14 8.44772 14 9C14 9.55228 13.5523 10 13 10C12.4477 10 12 9.55228 12 9C12 8.44772 12.4477 8 13 8ZM6 5C6.55228 5 7 5.44772 7 6C7 6.55228 6.55228 7 6 7C5.44772 7 5 6.55228 5 6C5 5.44772 5.44772 5 6 5ZM9.5 5C10.0523 5 10.5 5.44772 10.5 6C10.5 6.55228 10.0523 7 9.5 7C8.94772 7 8.5 6.55228 8.5 6C8.5 5.44772 8.94772 5 9.5 5ZM13 5C13.5523 5 14 5.44772 14 6C14 6.55228 13.5523 7 13 7C12.4477 7 12 6.55228 12 6C12 5.44772 12.4477 5 13 5Z" fill="#9E9E9E"/>
</g>
</svg>
