<svg width="24" height="24" viewBox="0 0 24 24" fill="none" xmlns="http://www.w3.org/2000/svg">
<g id="icons/Hardware/electric-iron">
<path id="Union" d="M12.5 3C13.0523 3 13.5 3.44772 13.5 4C13.5 4.55228 13.0523 5 12.5 5H3.5V8H9.57617L9.90918 8.00391C11.3932 8.04146 12.8147 8.32987 14.1338 8.82715C14.5496 8.32821 15.1192 7.76146 15.7842 7.33398C16.7525 6.71148 18.1746 6.24803 19.5547 7.16797C20.9738 8.11405 20.9401 9.69882 20.6562 10.8105C20.4544 11.6009 20.0852 12.3585 19.7363 12.9404C21.4659 15.1386 22.5 17.9099 22.5 20.9238C22.5 21.5181 22.0181 22 21.4238 22H2.5C1.94772 22 1.5 21.5523 1.5 21V9.35645C1.5 9.29142 1.5058 9.22763 1.51465 9.16504C1.50571 9.11129 1.5 9.05628 1.5 9V4C1.5 3.44772 1.94772 3 2.5 3H12.5ZM3.5 20H20.458C20.4297 19.662 20.3855 19.3285 20.3271 19H3.5V20ZM3.5 17H19.7695C18.2575 13.0718 14.5436 10.2378 10.1377 10.0146L9.57617 10H3.5V17ZM7.5 10.5C9.15685 10.5 10.5 11.8431 10.5 13.5C10.5 15.1569 9.15685 16.5 7.5 16.5C5.84315 16.5 4.5 15.1569 4.5 13.5C4.5 11.8431 5.84315 10.5 7.5 10.5ZM7.5 12.5C6.94772 12.5 6.5 12.9477 6.5 13.5C6.5 14.0523 6.94772 14.5 7.5 14.5C8.05228 14.5 8.5 14.0523 8.5 13.5C8.5 12.9477 8.05228 12.5 7.5 12.5ZM18.4453 8.83203C18.0255 8.55228 17.5309 8.58937 16.8662 9.0166C16.5595 9.21378 16.2712 9.46621 16.0205 9.72168C16.843 10.1959 17.6083 10.7573 18.3037 11.3945C18.4709 11.0563 18.6246 10.684 18.7188 10.3154C18.9349 9.46886 18.7762 9.0526 18.4453 8.83203Z" fill="#9E9E9E"/>
</g>
</svg>
