<svg width="24" height="24" viewBox="0 0 24 24" fill="none" xmlns="http://www.w3.org/2000/svg">
<g id="icons/Hardware/enter-key-one">
<path id="Union" d="M21.5 1.5C22.0523 1.5 22.5 1.94772 22.5 2.5V21.5C22.5 22.0523 22.0523 22.5 21.5 22.5H2.5C1.94772 22.5 1.5 22.0523 1.5 21.5V11.5C1.5 10.9477 1.94772 10.5 2.5 10.5H10.5V2.5C10.5 1.94772 10.9477 1.5 11.5 1.5H21.5ZM12.5 11.5C12.5 12.0523 12.0523 12.5 11.5 12.5H3.5V20.5H20.5V3.5H12.5V11.5ZM16.5 5.5C17.0523 5.5 17.5 5.94772 17.5 6.5V16.5C17.5 17.0523 17.0523 17.5 16.5 17.5H8.91406L9.20703 17.793C9.59756 18.1835 9.59756 18.8165 9.20703 19.207C8.81651 19.5976 8.18349 19.5976 7.79297 19.207L5.79297 17.207C5.76536 17.1794 5.7405 17.15 5.7168 17.1201C5.68065 17.0745 5.64798 17.0261 5.62012 16.9746C5.61269 16.9609 5.60635 16.9466 5.59961 16.9326C5.5778 16.8873 5.55783 16.8408 5.54297 16.792C5.5303 16.7503 5.52176 16.7077 5.51465 16.665C5.50571 16.6113 5.5 16.5563 5.5 16.5C5.5 16.4203 5.50973 16.3429 5.52734 16.2686C5.53221 16.248 5.53678 16.2273 5.54297 16.207C5.55787 16.1583 5.57777 16.1117 5.59961 16.0664C5.61877 16.0266 5.6403 15.9877 5.66504 15.9502C5.70242 15.8935 5.74516 15.8408 5.79297 15.793L7.79297 13.793C8.18349 13.4024 8.81651 13.4024 9.20703 13.793C9.59756 14.1835 9.59756 14.8165 9.20703 15.207L8.91406 15.5H15.5V6.5C15.5 5.94772 15.9477 5.5 16.5 5.5Z" fill="#9E9E9E"/>
</g>
</svg>
