<svg width="24" height="24" viewBox="0 0 24 24" fill="none" xmlns="http://www.w3.org/2000/svg">
<g id="icons/Hardware/enter-key">
<path id="Union" d="M22 1C22.5523 1 23 1.44772 23 2V22C23 22.5523 22.5523 23 22 23H2C1.44772 23 1 22.5523 1 22V10C1 9.44771 1.44772 9 2 9H11V2C11 1.44772 11.4477 1 12 1H22ZM13 10C13 10.5523 12.5523 11 12 11H3V21H21V3H13V10ZM17 10.5C17.5523 10.5 18 10.9477 18 11.5V16C18 16.5523 17.5523 17 17 17H10.9141L11.207 17.293C11.5976 17.6835 11.5976 18.3165 11.207 18.707C10.8165 19.0976 10.1835 19.0976 9.79297 18.707L7.79297 16.707C7.76536 16.6794 7.7405 16.65 7.7168 16.6201C7.68065 16.5745 7.64798 16.5261 7.62012 16.4746C7.61269 16.4609 7.60635 16.4466 7.59961 16.4326C7.5778 16.3873 7.55783 16.3408 7.54297 16.292C7.5303 16.2503 7.52176 16.2077 7.51465 16.165C7.50571 16.1113 7.5 16.0563 7.5 16C7.5 15.9203 7.50973 15.8429 7.52734 15.7686C7.53221 15.748 7.53678 15.7273 7.54297 15.707C7.55787 15.6583 7.57777 15.6117 7.59961 15.5664C7.61877 15.5266 7.6403 15.4877 7.66504 15.4502C7.70242 15.3935 7.74516 15.3408 7.79297 15.293L9.79297 13.293C10.1835 12.9024 10.8165 12.9024 11.207 13.293C11.5976 13.6835 11.5976 14.3165 11.207 14.707L10.9141 15H16V11.5C16 10.9477 16.4477 10.5 17 10.5Z" fill="#9E9E9E"/>
</g>
</svg>
