<svg width="24" height="24" viewBox="0 0 24 24" fill="none" xmlns="http://www.w3.org/2000/svg">
<g id="icons/Hardware/error-computer">
<path id="Union" d="M13 2C13.5523 2 14 2.44772 14 3C14 3.55228 13.5523 4 13 4H4.5C4.22386 4 4 4.22386 4 4.5V15.5C4 15.7762 4.22385 16 4.5 16H19.5C19.7762 16 20 15.7762 20 15.5V11.5C20 10.9477 20.4477 10.5 21 10.5C21.5523 10.5 22 10.9477 22 11.5V15.5C22 16.8807 20.8807 18 19.5 18H13V20H17C17.5523 20 18 20.4477 18 21C18 21.5523 17.5523 22 17 22H7C6.44772 22 6 21.5523 6 21C6 20.4477 6.44772 20 7 20H11V18H4.5C3.1193 18 2 16.8807 2 15.5V4.5C2 3.11929 3.11929 2 4.5 2H13ZM20.293 2.79297C20.6835 2.40244 21.3165 2.40244 21.707 2.79297C22.0976 3.18349 22.0976 3.81651 21.707 4.20703L20.4141 5.5L21.707 6.79297C22.0976 7.18349 22.0976 7.81651 21.707 8.20703C21.3165 8.59756 20.6835 8.59756 20.293 8.20703L19 6.91406L17.707 8.20703C17.3165 8.59756 16.6835 8.59756 16.293 8.20703C15.9024 7.81651 15.9024 7.18349 16.293 6.79297L17.5859 5.5L16.293 4.20703C15.9024 3.81651 15.9024 3.18349 16.293 2.79297C16.6835 2.40244 17.3165 2.40244 17.707 2.79297L19 4.08594L20.293 2.79297Z" fill="#9E9E9E"/>
</g>
</svg>
