<svg width="24" height="24" viewBox="0 0 24 24" fill="none" xmlns="http://www.w3.org/2000/svg">
<g id="icons/Hardware/ethernet-off">
<path id="Union" d="M19.5 2C20.8807 2 22 3.11929 22 4.5V19.5C22 20.8807 20.8807 22 19.5 22H4.5C3.11929 22 2 20.8807 2 19.5V4.5C2 3.11929 3.11929 2 4.5 2H19.5ZM4.5 4C4.22386 4 4 4.22386 4 4.5V19.5C4 19.7761 4.22386 20 4.5 20H19.5C19.7761 20 20 19.7761 20 19.5V4.5C20 4.22386 19.7761 4 19.5 4H4.5ZM16.5 6.5C17.0523 6.5 17.5 6.94772 17.5 7.5V8.63477C17.7987 8.80773 18 9.13003 18 9.5V13.5C18 14.0523 17.5523 14.5 17 14.5H15.5V16.5C15.5 17.0523 15.0523 17.5 14.5 17.5H9.5C8.94772 17.5 8.5 17.0523 8.5 16.5V14.5H7C6.44772 14.5 6 14.0523 6 13.5V9.5C6 9.13003 6.20133 8.80773 6.5 8.63477V7.5C6.5 6.94772 6.94772 6.5 7.5 6.5C8.05228 6.5 8.5 6.94772 8.5 7.5V8.5H9.5V7.5C9.5 6.94772 9.94772 6.5 10.5 6.5C11.0523 6.5 11.5 6.94772 11.5 7.5V8.5H12.5V7.5C12.5 6.94772 12.9477 6.5 13.5 6.5C14.0523 6.5 14.5 6.94772 14.5 7.5V8.5H15.5V7.5C15.5 6.94772 15.9477 6.5 16.5 6.5ZM10.5 15.5H13.5V14.5H10.5V15.5ZM8 12.5H16V10.5H8V12.5Z" fill="#9E9E9E"/>
</g>
</svg>
