<svg width="24" height="24" viewBox="0 0 24 24" fill="none" xmlns="http://www.w3.org/2000/svg">
<g id="icons/Hardware/f-eight-key">
<path id="Union" d="M19.5 2C20.8807 2 22 3.11929 22 4.5V19.5C22 20.8807 20.8807 22 19.5 22H4.5C3.11929 22 2 20.8807 2 19.5V4.5C2 3.11929 3.11929 2 4.5 2H19.5ZM4.5 4C4.22386 4 4 4.22386 4 4.5V19.5C4 19.7761 4.22386 20 4.5 20H19.5C19.7761 20 20 19.7761 20 19.5V4.5C20 4.22386 19.7761 4 19.5 4H4.5ZM15 7C16.6568 7 18 8.34317 18 10C18 10.8976 17.6032 11.7002 16.9785 12.25C17.6032 12.7998 18 13.6024 18 14.5C18 16.1568 16.6568 17.5 15 17.5C13.3432 17.5 12 16.1568 12 14.5C12 13.6027 12.3961 12.7998 13.0205 12.25C12.3961 11.7002 12 10.8973 12 10C12 8.34317 13.3432 7 15 7ZM10.5 7C11.0523 7 11.5 7.44772 11.5 8C11.5 8.55228 11.0523 9 10.5 9H8V11H10.5C11.0523 11 11.5 11.4477 11.5 12C11.5 12.5523 11.0523 13 10.5 13H8V16C8 16.5523 7.55228 17 7 17C6.44772 17 6 16.5523 6 16V8C6 7.44772 6.44772 7 7 7H10.5ZM15 13.5C14.4477 13.5 14 13.9477 14 14.5C14 15.0523 14.4477 15.5 15 15.5C15.5523 15.5 16 15.0523 16 14.5C16 13.9477 15.5523 13.5 15 13.5ZM15 9C14.4477 9 14 9.44773 14 10C14 10.5523 14.4477 11 15 11C15.5523 11 16 10.5523 16 10C16 9.44773 15.5523 9 15 9Z" fill="#9E9E9E"/>
</g>
</svg>
