<svg width="24" height="24" viewBox="0 0 24 24" fill="none" xmlns="http://www.w3.org/2000/svg">
<g id="icons/Hardware/f-five-key">
<path id="Union" d="M19.5 2C20.8807 2 22 3.11929 22 4.5V19.5C22 20.8807 20.8807 22 19.5 22H4.5C3.11929 22 2 20.8807 2 19.5V4.5C2 3.11929 3.11929 2 4.5 2H19.5ZM4.5 4C4.22386 4 4 4.22386 4 4.5V19.5C4 19.7761 4.22386 20 4.5 20H19.5C19.7761 20 20 19.7761 20 19.5V4.5C20 4.22386 19.7761 4 19.5 4H4.5ZM10.5 7C11.0523 7 11.5 7.44772 11.5 8C11.5 8.55228 11.0523 9 10.5 9H8V11H10.5C11.0523 11 11.5 11.4477 11.5 12C11.5 12.5523 11.0523 13 10.5 13H8V16C8 16.5523 7.55228 17 7 17C6.44772 17 6 16.5523 6 16V8C6 7.44772 6.44772 7 7 7H10.5ZM17 7C17.5523 7 18 7.44772 18 8C18 8.55228 17.5523 9 17 9H14V9.91504C14.3661 9.81803 14.7869 9.75 15.25 9.75C15.7197 9.75 16.1721 9.84624 16.5762 10.0732C16.9831 10.302 17.2829 10.6309 17.4951 11.0059C17.8975 11.717 18 12.621 18 13.5C18 14.4646 17.7854 15.3722 17.1865 16.043C16.5686 16.7348 15.7001 17 14.7773 17C13.8885 16.9999 13.1452 16.71 12.6387 16.1348C12.1532 15.5833 12 14.8993 12 14.3184C12 13.7661 12.4477 13.3184 13 13.3184C13.5523 13.3184 14 13.7661 14 14.3184C14 14.5766 14.0696 14.7339 14.1396 14.8135C14.1888 14.8692 14.3343 14.9999 14.7773 15C15.3265 15 15.5702 14.851 15.6953 14.7109C15.8395 14.5494 16 14.2061 16 13.5C16 12.7086 15.8941 12.2375 15.7549 11.9912C15.6963 11.8877 15.6416 11.8422 15.5957 11.8164C15.5465 11.7889 15.4464 11.75 15.25 11.75C14.76 11.75 14.3385 11.8813 14.0342 12.0176C13.8835 12.0851 13.7666 12.151 13.6924 12.1973L13.6045 12.2559L13.6055 12.2549L13.4932 12.3291C13.2084 12.4906 12.8589 12.5042 12.5596 12.3574C12.2171 12.1894 12 11.8405 12 11.459V8C12 7.44772 12.4477 7 13 7H17Z" fill="#9E9E9E"/>
</g>
</svg>
