<svg width="24" height="24" viewBox="0 0 24 24" fill="none" xmlns="http://www.w3.org/2000/svg">
<g id="icons/Hardware/f-four-key">
<path id="Union" d="M19.5 2C20.8807 2 22 3.11929 22 4.5V19.5C22 20.8807 20.8807 22 19.5 22H4.5C3.11929 22 2 20.8807 2 19.5V4.5C2 3.11929 3.11929 2 4.5 2H19.5ZM4.5 4C4.22386 4 4 4.22386 4 4.5V19.5C4 19.7761 4.22386 20 4.5 20H19.5C19.7761 20 20 19.7761 20 19.5V4.5C20 4.22386 19.7761 4 19.5 4H4.5ZM10.5 7C11.0523 7 11.5 7.44772 11.5 8C11.5 8.55228 11.0523 9 10.5 9H8V11H10.5C11.0523 11 11.5 11.4477 11.5 12C11.5 12.5523 11.0523 13 10.5 13H8V16C8 16.5523 7.55228 17 7 17C6.44772 17 6 16.5523 6 16V8C6 7.44772 6.44772 7 7 7H10.5ZM15.5264 7.45605C15.7672 7.08419 16.2245 6.91555 16.6494 7.04102C17.0744 7.16659 17.3662 7.55686 17.3662 8V13.0078H17.5C18.0522 13.0078 18.4999 13.4556 18.5 14.0078C18.5 14.5601 18.0523 15.0078 17.5 15.0078H17.3662V16C17.3662 16.5523 16.9185 17 16.3662 17C15.8139 17 15.3662 16.5523 15.3662 16V15.0078H13C12.4477 15.0078 12 14.5601 12 14.0078V13.1982C12.0001 13.0056 12.0555 12.817 12.1602 12.6553L15.5264 7.45605ZM14.3154 13.0078H15.3662V11.3848L14.3154 13.0078Z" fill="#9E9E9E"/>
</g>
</svg>
