<svg width="24" height="24" viewBox="0 0 24 24" fill="none" xmlns="http://www.w3.org/2000/svg">
<g id="icons/Hardware/f-n-key">
<path id="Union" d="M19.5 2C20.8807 2 22 3.11929 22 4.5V19.5C22 20.8807 20.8807 22 19.5 22H4.5C3.11929 22 2 20.8807 2 19.5V4.5C2 3.11929 3.11929 2 4.5 2H19.5ZM4.5 4C4.22386 4 4 4.22386 4 4.5V19.5C4 19.7761 4.22386 20 4.5 20H19.5C19.7761 20 20 19.7761 20 19.5V4.5C20 4.22386 19.7761 4 19.5 4H4.5ZM10.5 7C11.0523 7 11.5 7.44772 11.5 8C11.5 8.55228 11.0523 9 10.5 9H8V11H10.5C11.0523 11 11.5 11.4477 11.5 12C11.5 12.5523 11.0523 13 10.5 13H8V16C8 16.5523 7.55228 17 7 17C6.44772 17 6 16.5523 6 16V8C6 7.44772 6.44772 7 7 7H10.5ZM13 7.5C13.5523 7.5 14 7.94772 14 8.5V8.65234C14.3153 8.55254 14.6516 8.5 15 8.5C15.8142 8.5 16.5833 8.76269 17.1523 9.32422C17.7235 9.88798 18 10.661 18 11.5V16C18 16.5523 17.5523 17 17 17C16.4477 17 16 16.5523 16 16V11.5C16 11.1027 15.8759 10.8752 15.7471 10.748C15.6161 10.6189 15.3854 10.5 15 10.5C14.6312 10.5 14.3979 10.6202 14.2588 10.7598C14.1191 10.9 14 11.1345 14 11.5V16C14 16.5523 13.5523 17 13 17C12.4477 17 12 16.5523 12 16V8.5C12 7.94772 12.4477 7.5 13 7.5Z" fill="#9E9E9E"/>
</g>
</svg>
