<svg width="24" height="24" viewBox="0 0 24 24" fill="none" xmlns="http://www.w3.org/2000/svg">
<g id="icons/Hardware/f-nine-key">
<path id="Union" d="M19.5 2C20.8807 2 22 3.11929 22 4.5V19.5C22 20.8807 20.8807 22 19.5 22H4.5C3.11929 22 2 20.8807 2 19.5V4.5C2 3.11929 3.11929 2 4.5 2H19.5ZM4.5 4C4.22386 4 4 4.22386 4 4.5V19.5C4 19.7761 4.22386 20 4.5 20H19.5C19.7761 20 20 19.7761 20 19.5V4.5C20 4.22386 19.7761 4 19.5 4H4.5ZM10.5 7C11.0523 7 11.5 7.44772 11.5 8C11.5 8.55228 11.0523 9 10.5 9H8V11H10.5C11.0523 11 11.5 11.4477 11.5 12C11.5 12.5523 11.0523 13 10.5 13H8V16C8 16.5523 7.55228 17 7 17C6.44772 17 6 16.5523 6 16V8C6 7.44772 6.44772 7 7 7H10.5ZM15 7C16.6568 7 18 8.34317 18 10V14C18 14.8967 17.6645 15.6738 17.0635 16.2188C16.4752 16.7521 15.7039 17 14.9238 17C13.5695 17 12.4902 16.0791 12.0605 14.9062C11.8706 14.3877 12.1377 13.813 12.6562 13.623C13.1748 13.4332 13.7495 13.6992 13.9395 14.2178C14.1277 14.7318 14.5385 15 14.9238 15C15.2901 15 15.5565 14.8851 15.7197 14.7373C15.8701 14.6009 16 14.3778 16 14V12.8252C15.6869 12.936 15.3511 13 15 13C13.3432 13 12 11.6568 12 10C12 8.34317 13.3432 7 15 7ZM15 9C14.4477 9 14 9.44773 14 10C14 10.5523 14.4477 11 15 11C15.5523 11 16 10.5523 16 10C16 9.44773 15.5523 9 15 9Z" fill="#9E9E9E"/>
</g>
</svg>
