<svg width="24" height="24" viewBox="0 0 24 24" fill="none" xmlns="http://www.w3.org/2000/svg">
<g id="icons/Hardware/f-one-key">
<path id="Union" d="M19.5 2C20.8807 2 22 3.11929 22 4.5V19.5C22 20.8807 20.8807 22 19.5 22H4.5C3.11929 22 2 20.8807 2 19.5V4.5C2 3.11929 3.11929 2 4.5 2H19.5ZM4.5 4C4.22386 4 4 4.22386 4 4.5V19.5C4 19.7761 4.22386 20 4.5 20H19.5C19.7761 20 20 19.7761 20 19.5V4.5C20 4.22386 19.7761 4 19.5 4H4.5ZM10.5 7C11.0523 7 11.5 7.44772 11.5 8C11.5 8.55228 11.0523 9 10.5 9H8V11H10.5C11.0523 11 11.5 11.4477 11.5 12C11.5 12.5523 11.0523 13 10.5 13H8V16C8 16.5523 7.55228 17 7 17C6.44772 17 6 16.5523 6 16V8C6 7.44772 6.44772 7 7 7H10.5ZM15.293 7.29297C15.579 7.00697 16.0091 6.92139 16.3828 7.07617C16.7564 7.23097 17 7.59557 17 8V16C17 16.5523 16.5523 17 16 17C15.4477 17 15 16.5523 15 16V10.4141L14.207 11.207C13.8165 11.5975 13.1835 11.5976 12.793 11.207C12.4025 10.8165 12.4024 10.1835 12.793 9.79297L15.293 7.29297Z" fill="#9E9E9E"/>
</g>
</svg>
