<svg width="24" height="24" viewBox="0 0 24 24" fill="none" xmlns="http://www.w3.org/2000/svg">
<g id="icons/Hardware/f-seven-key">
<path id="Union" d="M19.5 2C20.8807 2 22 3.11929 22 4.5V19.5C22 20.8807 20.8807 22 19.5 22H4.5C3.11929 22 2 20.8807 2 19.5V4.5C2 3.11929 3.11929 2 4.5 2H19.5ZM4.5 4C4.22386 4 4 4.22386 4 4.5V19.5C4 19.7761 4.22386 20 4.5 20H19.5C19.7761 20 20 19.7761 20 19.5V4.5C20 4.22386 19.7761 4 19.5 4H4.5ZM10.5 7C11.0523 7 11.5 7.44772 11.5 8C11.5 8.55228 11.0523 9 10.5 9H8V11H10.5C11.0523 11 11.5 11.4477 11.5 12C11.5 12.5523 11.0523 13 10.5 13H8V16C8 16.5523 7.55228 17 7 17C6.44772 17 6 16.5523 6 16V8C6 7.44772 6.44772 7 7 7H10.5ZM17 7C17.328 7 17.6355 7.16109 17.8223 7.43066C18.0089 7.70019 18.0516 8.04459 17.9365 8.35156L14.9365 16.3516C14.7425 16.8685 14.1655 17.1304 13.6484 16.9365C13.1315 16.7425 12.8696 16.1655 13.0635 15.6484L15.5566 9H13C12.4477 9 12 8.55228 12 8C12 7.44772 12.4477 7 13 7H17Z" fill="#9E9E9E"/>
</g>
</svg>
