<svg width="24" height="24" viewBox="0 0 24 24" fill="none" xmlns="http://www.w3.org/2000/svg">
<g id="icons/Hardware/f-six-key">
<path id="Union" d="M19.5 2C20.8807 2 22 3.11929 22 4.5V19.5C22 20.8807 20.8807 22 19.5 22H4.5C3.11929 22 2 20.8807 2 19.5V4.5C2 3.11929 3.11929 2 4.5 2H19.5ZM4.5 4C4.22386 4 4 4.22386 4 4.5V19.5C4 19.7761 4.22386 20 4.5 20H19.5C19.7761 20 20 19.7761 20 19.5V4.5C20 4.22386 19.7761 4 19.5 4H4.5ZM10.5 7C11.0523 7 11.5 7.44772 11.5 8C11.5 8.55228 11.0523 9 10.5 9H8V11H10.5C11.0523 11 11.5 11.4477 11.5 12C11.5 12.5523 11.0523 13 10.5 13H8V16C8 16.5523 7.55228 17 7 17C6.44772 17 6 16.5523 6 16V8C6 7.44772 6.44772 7 7 7H10.5ZM15.0762 7C16.4305 7 17.5098 7.92093 17.9395 9.09375C18.1294 9.61234 17.8623 10.187 17.3438 10.377C16.8252 10.5668 16.2505 10.3008 16.0605 9.78223C15.8723 9.26819 15.4615 9 15.0762 9C14.7099 9.00001 14.4435 9.1149 14.2803 9.2627C14.1299 9.39909 14 9.62222 14 10V11.1738C14.3131 11.0631 14.649 11 15 11C16.6568 11 18 12.3432 18 14C18 15.6568 16.6568 17 15 17C13.3432 17 12 15.6568 12 14V10C12 9.10328 12.3355 8.32623 12.9365 7.78125C13.5248 7.24788 14.2961 7.00001 15.0762 7ZM15 13C14.4477 13 14 13.4477 14 14C14 14.5523 14.4477 15 15 15C15.5523 15 16 14.5523 16 14C16 13.4477 15.5523 13 15 13Z" fill="#9E9E9E"/>
</g>
</svg>
