<svg width="24" height="24" viewBox="0 0 24 24" fill="none" xmlns="http://www.w3.org/2000/svg">
<g id="icons/Hardware/f-three-key">
<path id="Union" d="M19.5 2C20.8807 2 22 3.11929 22 4.5V19.5C22 20.8807 20.8807 22 19.5 22H4.5C3.11929 22 2 20.8807 2 19.5V4.5C2 3.11929 3.11929 2 4.5 2H19.5ZM4.5 4C4.22386 4 4 4.22386 4 4.5V19.5C4 19.7761 4.22386 20 4.5 20H19.5C19.7761 20 20 19.7761 20 19.5V4.5C20 4.22386 19.7761 4 19.5 4H4.5ZM10.5 7C11.0523 7 11.5 7.44772 11.5 8C11.5 8.55228 11.0523 9 10.5 9H8V11H10.5C11.0523 11 11.5 11.4477 11.5 12C11.5 12.5523 11.0523 13 10.5 13H8V16C8 16.5523 7.55228 17 7 17C6.44772 17 6 16.5523 6 16V8C6 7.44772 6.44772 7 7 7H10.5ZM17 7C17.3705 7 17.7105 7.20482 17.8838 7.53223C18.057 7.85962 18.0354 8.25623 17.8271 8.5625L16.1924 10.9629C16.4806 11.1034 16.7483 11.2853 16.9863 11.5098C17.6453 12.1312 18 13.0051 18 14C18 14.9894 17.6607 15.774 17.0791 16.3027C16.5212 16.8099 15.8298 17 15.25 17C14.0349 17 13.0235 16.2833 12.6055 15.4473C12.3585 14.9533 12.5588 14.3525 13.0527 14.1055C13.5467 13.8585 14.1475 14.0588 14.3945 14.5527C14.4263 14.6164 14.5177 14.7349 14.6836 14.8379C14.8415 14.9359 15.0357 15 15.25 15C15.4202 15 15.6038 14.94 15.7334 14.8223C15.8393 14.726 16 14.5106 16 14C16 13.4949 15.8302 13.1684 15.6143 12.9648C15.3905 12.7538 15.0363 12.5996 14.5498 12.5996C14.1794 12.5995 13.8393 12.3948 13.666 12.0674C13.4929 11.7399 13.5152 11.3433 13.7236 11.0371L15.1094 9H13.5C12.9477 9 12.5 8.55228 12.5 8C12.5 7.44772 12.9477 7 13.5 7H17Z" fill="#9E9E9E"/>
</g>
</svg>
