<svg width="24" height="24" viewBox="0 0 24 24" fill="none" xmlns="http://www.w3.org/2000/svg">
<g id="icons/Hardware/f-two-key">
<path id="Union" d="M19.5 2C20.8807 2 22 3.11929 22 4.5V19.5C22 20.8807 20.8807 22 19.5 22H4.5C3.11929 22 2 20.8807 2 19.5V4.5C2 3.11929 3.11929 2 4.5 2H19.5ZM4.5 4C4.22386 4 4 4.22386 4 4.5V19.5C4 19.7761 4.22386 20 4.5 20H19.5C19.7761 20 20 19.7761 20 19.5V4.5C20 4.22386 19.7761 4 19.5 4H4.5ZM10.5 7C11.0523 7 11.5 7.44772 11.5 8C11.5 8.55228 11.0523 9 10.5 9H8V11H10.5C11.0523 11 11.5 11.4477 11.5 12C11.5 12.5523 11.0523 13 10.5 13H8V16C8 16.5523 7.55228 17 7 17C6.44772 17 6 16.5523 6 16V8C6 7.44772 6.44772 7 7 7H10.5ZM15 7C16.3743 7 18 8.07599 18 10C18 10.8708 17.6179 11.6115 17.1816 12.2061C16.7477 12.7974 16.1844 13.3432 15.6934 13.8154C15.2353 14.2559 14.8426 14.6355 14.5352 15H17C17.5523 15 18 15.4477 18 16C18 16.5523 17.5523 17 17 17H13C12.4477 17 12 16.5523 12 16C12 15.1616 12.4109 14.4567 12.8369 13.9121C13.2655 13.3643 13.8264 12.8358 14.3066 12.374C14.8155 11.8847 15.2524 11.4531 15.5684 11.0225C15.8821 10.5949 16 10.2692 16 10C16 9.39071 15.4924 9 15 9C14.5077 9 14 9.39072 14 10C14 10.5523 13.5523 11 13 11C12.4477 11 12 10.5523 12 10C12 8.07598 13.6257 7 15 7Z" fill="#9E9E9E"/>
</g>
</svg>
