<svg width="24" height="24" viewBox="0 0 24 24" fill="none" xmlns="http://www.w3.org/2000/svg">
<g id="icons/Hardware/five-key">
<path id="Union" d="M19.5 2C20.8807 2 22 3.11929 22 4.5V19.5C22 20.8807 20.8807 22 19.5 22H4.5C3.11929 22 2 20.8807 2 19.5V4.5C2 3.11929 3.11929 2 4.5 2H19.5ZM4.5 4C4.22386 4 4 4.22386 4 4.5V19.5C4 19.7761 4.22386 20 4.5 20H19.5C19.7761 20 20 19.7761 20 19.5V4.5C20 4.22386 19.7761 4 19.5 4H4.5ZM14.5 6.00488C15.0523 6.00488 15.5 6.4526 15.5 7.00488C15.5 7.55717 15.0523 8.00488 14.5 8.00488H11V9.14844C11.426 9.06327 11.9323 9 12.5 9C13.5134 9 14.3766 9.36959 14.9111 10.2285C15.379 10.9804 15.5 11.9709 15.5 13C15.5 14.0348 15.3775 15.1385 14.8584 16.0068C14.2797 16.9746 13.3042 17.5 12 17.5C11.0097 17.5 10.2057 17.1585 9.66992 16.5166C9.1608 15.9064 9 15.1513 9 14.5039C9.00012 13.9517 9.44779 13.5039 10 13.5039C10.5522 13.5039 10.9999 13.9517 11 14.5039C11 14.8526 11.0892 15.0965 11.2051 15.2354C11.2944 15.3423 11.4906 15.5 12 15.5C12.6958 15.5 12.9703 15.2669 13.1416 14.9805C13.3723 14.5946 13.5 13.9481 13.5 13C13.5 12.0467 13.3708 11.5376 13.2139 11.2852C13.1234 11.1398 12.9866 11 12.5 11C11.8601 11 11.3299 11.1074 10.9668 11.2129C10.7854 11.2656 10.6496 11.317 10.5674 11.3516C10.5372 11.3643 10.5169 11.3737 10.5059 11.3789C10.3573 11.4663 10.1848 11.5176 10 11.5176C9.48209 11.5176 9.0559 11.1236 9.00488 10.6191L9 10.5176V7.00488C9 6.4526 9.44772 6.00488 10 6.00488H14.5ZM10.7119 11.2178C10.7132 11.2165 10.7155 11.2162 10.7168 11.2148C10.7292 11.2022 10.747 11.1821 10.7686 11.1562C10.7507 11.1777 10.7315 11.1979 10.7119 11.2178Z" fill="#9E9E9E"/>
</g>
</svg>
