<svg width="24" height="24" viewBox="0 0 24 24" fill="none" xmlns="http://www.w3.org/2000/svg">
<g id="icons/Hardware/flashlight">
<path id="Union" d="M19.5 1C20.0523 1 20.5 1.44772 20.5 2V3.09766C20.5 6.3618 19.0243 9.44273 16.5 11.4893V22C16.5 22.5523 16.0523 23 15.5 23H8.5C7.94772 23 7.5 22.5523 7.5 22V11.4893C4.97573 9.44273 3.5 6.3618 3.5 3.09766V2C3.5 1.44772 3.94772 1 4.5 1H19.5ZM6.20996 6.5C6.82144 7.94844 7.80842 9.23175 9.09961 10.2002C9.37707 10.4083 9.51445 10.7327 9.49707 11.0547C9.49759 11.069 9.5 11.0833 9.5 11.0977V21H14.5V11.0977C14.5 11.0833 14.5014 11.069 14.502 11.0547C14.4846 10.7327 14.6229 10.4083 14.9004 10.2002C16.1916 9.23175 17.1786 7.94844 17.79 6.5H6.20996ZM12 13.0039C12.5523 13.0039 13 13.4516 13 14.0039V16.0039C13 16.5562 12.5523 17.0039 12 17.0039C11.4477 17.0039 11 16.5562 11 16.0039V14.0039C11 13.4516 11.4477 13.0039 12 13.0039ZM5.5 3C5.5 3.50683 5.5429 4.00834 5.62598 4.5H18.374C18.4571 4.00834 18.5 3.50683 18.5 3H5.5Z" fill="#9E9E9E"/>
</g>
</svg>
