<svg width="24" height="24" viewBox="0 0 24 24" fill="none" xmlns="http://www.w3.org/2000/svg">
<g id="icons/Hardware/four-key">
<path id="Union" d="M19.5 2C20.8807 2 22 3.11929 22 4.5V19.5C22 20.8807 20.8807 22 19.5 22H4.5C3.11929 22 2 20.8807 2 19.5V4.5C2 3.11929 3.11929 2 4.5 2H19.5ZM4.5 4C4.22386 4 4 4.22386 4 4.5V19.5C4 19.7761 4.22386 20 4.5 20H19.5C19.7761 20 20 19.7761 20 19.5V4.5C20 4.22386 19.7761 4 19.5 4H4.5ZM12.666 6.43164C12.9148 6.07174 13.3684 5.91469 13.7861 6.04492C14.2039 6.17518 14.4883 6.56238 14.4883 7V13.5098H15C15.5522 13.5098 15.9999 13.9576 16 14.5098C16 15.0621 15.5523 15.5098 15 15.5098H14.4883V17C14.4883 17.5523 14.0406 18 13.4883 18C12.936 18 12.4883 17.5523 12.4883 17V15.5098H9C8.44772 15.5098 8 15.0621 8 14.5098V13.498C8.00006 13.2951 8.06143 13.0967 8.17676 12.9297L12.666 6.43164ZM10.208 13.5098H12.4883V10.208L10.208 13.5098Z" fill="#9E9E9E"/>
</g>
</svg>
