<svg width="24" height="24" viewBox="0 0 24 24" fill="none" xmlns="http://www.w3.org/2000/svg">
<g id="icons/Hardware/game-console-one">
<path id="Union" d="M18 1C19.1046 1 20 1.89543 20 3V21C20 22.1046 19.1046 23 18 23H6C4.89543 23 4 22.1046 4 21V3C4 1.89543 4.89543 1 6 1H18ZM6 21H18V3H6V21ZM10 13C10.5523 13 11 13.4477 11 14V15H12C12.5523 15 13 15.4477 13 16C13 16.5523 12.5523 17 12 17H11V18C11 18.5523 10.5523 19 10 19C9.44772 19 9 18.5523 9 18V17H8C7.44772 17 7 16.5523 7 16C7 15.4477 7.44772 15 8 15H9V14C9 13.4477 9.44772 13 10 13ZM14.5 16.5C15.0523 16.5 15.5 16.9477 15.5 17.5C15.5 18.0523 15.0523 18.5 14.5 18.5C13.9477 18.5 13.5 18.0523 13.5 17.5C13.5 16.9477 13.9477 16.5 14.5 16.5ZM16 13C16.5523 13 17 13.4477 17 14C17 14.5523 16.5523 15 16 15C15.4477 15 15 14.5523 15 14C15 13.4477 15.4477 13 16 13ZM16 5C16.5523 5 17 5.44772 17 6V11C17 11.5523 16.5523 12 16 12H8C7.44772 12 7 11.5523 7 11V6C7 5.44772 7.44772 5 8 5H16ZM9 10H15V7H9V10Z" fill="#9E9E9E"/>
</g>
</svg>
