<svg width="24" height="24" viewBox="0 0 24 24" fill="none" xmlns="http://www.w3.org/2000/svg">
<g id="icons/Hardware/game-three">
<path id="Union" d="M16 3C19.5899 3 22.5 5.91015 22.5 9.5V16.5C22.5 18.9853 20.4853 21 18 21C15.5147 21 13.5 18.9853 13.5 16.5V16H10.5V16.5C10.5 18.9853 8.48528 21 6 21C3.51472 21 1.5 18.9853 1.5 16.5V9.5C1.5 5.91015 4.41015 3 8 3H16ZM3.5 16.5C3.5 17.8807 4.61929 19 6 19C7.38072 19 8.5 17.8807 8.5 16.5V16H8C6.25278 16 4.66803 15.3091 3.5 14.1875V16.5ZM20.5 14.1875C19.332 15.3091 17.7472 16 16 16H15.5V16.5C15.5 17.8807 16.6193 19 18 19C19.3807 19 20.5 17.8807 20.5 16.5V14.1875ZM8 5C5.51472 5 3.5 7.01472 3.5 9.5C3.5 11.9853 5.51472 14 8 14H16C18.4853 14 20.5 11.9853 20.5 9.5C20.5 7.01472 18.4853 5 16 5H8ZM8.5 6.5C9.05228 6.5 9.5 6.94772 9.5 7.5V8.5H10.5C11.0523 8.5 11.5 8.94772 11.5 9.5C11.5 10.0523 11.0523 10.5 10.5 10.5H9.5V11.5C9.5 12.0523 9.05228 12.5 8.5 12.5C7.94772 12.5 7.5 12.0523 7.5 11.5V10.5H6.5C5.94772 10.5 5.5 10.0523 5.5 9.5C5.5 8.94772 5.94772 8.5 6.5 8.5H7.5V7.5C7.5 6.94772 7.94772 6.5 8.5 6.5ZM15 10C15.5523 10 16 10.4477 16 11C16 11.5523 15.5523 12 15 12C14.4477 12 14 11.5523 14 11C14 10.4477 14.4477 10 15 10ZM17 7.5C17.5523 7.5 18 7.94772 18 8.5C18 9.05228 17.5523 9.5 17 9.5C16.4477 9.5 16 9.05228 16 8.5C16 7.94772 16.4477 7.5 17 7.5Z" fill="#9E9E9E"/>
</g>
</svg>
