<svg width="24" height="24" viewBox="0 0 24 24" fill="none" xmlns="http://www.w3.org/2000/svg">
<g id="icons/Hardware/game-console">
<path id="Union" d="M18 1C19.1046 1 20 1.89543 20 3V21C20 22.1046 19.1046 23 18 23H6C4.89543 23 4 22.1046 4 21V3C4 1.89543 4.89543 1 6 1H18ZM6 21H18V3H6V21ZM10 14C10.5523 14 11 14.4477 11 15V16H12C12.5523 16 13 16.4477 13 17C13 17.5523 12.5523 18 12 18H11V19C11 19.5523 10.5523 20 10 20C9.44772 20 9 19.5523 9 19V18H8C7.44772 18 7 17.5523 7 17C7 16.4477 7.44772 16 8 16H9V15C9 14.4477 9.44772 14 10 14ZM15.5 18C16.0523 18 16.5 18.4477 16.5 19C16.5 19.5523 16.0523 20 15.5 20C14.9477 20 14.5 19.5523 14.5 19C14.5 18.4477 14.9477 18 15.5 18ZM15.5 14C16.0523 14 16.5 14.4477 16.5 15C16.5 15.5523 16.0523 16 15.5 16C14.9477 16 14.5 15.5523 14.5 15C14.5 14.4477 14.9477 14 15.5 14ZM16 4C16.5523 4 17 4.44772 17 5V9.5C17 10.0523 16.5523 10.5 16 10.5H8C7.44772 10.5 7 10.0523 7 9.5V5C7 4.44772 7.44772 4 8 4H16ZM9 8.5H15V6H9V8.5Z" fill="#9E9E9E"/>
</g>
</svg>
