<svg width="24" height="24" viewBox="0 0 24 24" fill="none" xmlns="http://www.w3.org/2000/svg">
<g id="icons/Hardware/gamepad">
<path id="Union" d="M12 2.5C12.5523 2.5 13 2.94772 13 3.5V5.5H15C19.4183 5.5 23 9.08172 23 13.5C23 17.9183 19.4183 21.5 15 21.5H9C4.58172 21.5 1 17.9183 1 13.5C1 9.08172 4.58172 5.5 9 5.5H11V3.5C11 2.94772 11.4477 2.5 12 2.5ZM9 7.5C5.68629 7.5 3 10.1863 3 13.5C3 16.8137 5.68629 19.5 9 19.5H15C18.3137 19.5 21 16.8137 21 13.5C21 10.1863 18.3137 7.5 15 7.5H9ZM8.5 10C9.05229 10 9.5 10.4477 9.5 11V12.5H11C11.5523 12.5 12 12.9477 12 13.5C12 14.0523 11.5523 14.5 11 14.5H9.5V16C9.5 16.5523 9.05229 17 8.5 17C7.94772 17 7.5 16.5523 7.5 16V14.5H6C5.44772 14.5 5 14.0523 5 13.5C5 12.9477 5.44772 12.5 6 12.5H7.5V11C7.5 10.4477 7.94772 10 8.5 10ZM17.5 12.5C18.0523 12.5 18.5 12.9477 18.5 13.5C18.5 14.0523 18.0523 14.5 17.5 14.5C16.9477 14.5 16.5 14.0523 16.5 13.5C16.5 12.9477 16.9477 12.5 17.5 12.5ZM15.5 10C16.0523 10 16.5 10.4477 16.5 11C16.5 11.5523 16.0523 12 15.5 12C14.9477 12 14.5 11.5523 14.5 11C14.5 10.4477 14.9477 10 15.5 10Z" fill="#9E9E9E"/>
</g>
</svg>
