<svg width="24" height="24" viewBox="0 0 24 24" fill="none" xmlns="http://www.w3.org/2000/svg">
<g id="icons/Hardware/gopro">
<path id="Union" d="M9 2.5C9.55229 2.5 10 2.94772 10 3.5V11H11V8C11 6.61929 12.1193 5.5 13.5 5.5H20C21.3807 5.5 22.5 6.61929 22.5 8V16C22.5 17.3807 21.3807 18.5 20 18.5H13.5C12.1193 18.5 11 17.3807 11 16V13H10V20.5C10 21.0523 9.55229 21.5 9 21.5H2.5C1.94772 21.5 1.5 21.0523 1.5 20.5V3.5C1.5 2.94772 1.94772 2.5 2.5 2.5H9ZM3.5 19.5H8V4.5H3.5V19.5ZM13.5 7.5C13.2239 7.5 13 7.72386 13 8V16C13 16.2761 13.2239 16.5 13.5 16.5H20C20.2761 16.5 20.5 16.2761 20.5 16V8C20.5 7.72386 20.2761 7.5 20 7.5H13.5ZM16.75 9.5C18.2688 9.5 19.5 10.7312 19.5 12.25C19.5 13.7688 18.2688 15 16.75 15C15.2312 15 14 13.7688 14 12.25C14 10.7312 15.2312 9.5 16.75 9.5ZM16.75 11.5C16.3358 11.5 16 11.8358 16 12.25C16 12.6642 16.3358 13 16.75 13C17.1642 13 17.5 12.6642 17.5 12.25C17.5 11.8358 17.1642 11.5 16.75 11.5ZM5.75 7.5C6.44036 7.5 7 8.05964 7 8.75C7 9.44036 6.44036 10 5.75 10C5.05964 10 4.5 9.44036 4.5 8.75C4.5 8.05964 5.05964 7.5 5.75 7.5Z" fill="#9E9E9E"/>
</g>
</svg>
