<svg width="24" height="24" viewBox="0 0 24 24" fill="none" xmlns="http://www.w3.org/2000/svg">
<g id="icons/Hardware/hair-dryer-one">
<path id="Union" d="M1.49805 3.13477C1.80632 2.95594 2.18665 2.95503 2.49609 3.13184L5.7041 4.96484L15.9131 3.64746C16.0815 3.62573 16.249 3.6135 16.415 3.60742C16.7658 3.53724 17.1286 3.5 17.5 3.5C20.5375 3.5 23 5.96247 23 9C23 11.3764 21.4924 13.3993 19.3818 14.168L16.5752 20.8369C16.0233 22.1475 14.7395 23 13.3174 23C10.7897 23 9.07865 20.4235 10.0596 18.0938L11.8555 13.8271L5.70508 13.0342L2.49609 14.8682C2.18663 15.045 1.80634 15.0441 1.49805 14.8652C1.18975 14.6863 1 14.3565 1 14V4L1.00879 3.86816C1.04926 3.56374 1.2282 3.29136 1.49805 3.13477ZM11.9033 18.8701C11.4775 19.8815 12.22 21 13.3174 21C13.9348 21 14.4918 20.6296 14.7314 20.0605L17.0791 14.4824C16.8486 14.465 16.6221 14.4346 16.4004 14.3896C16.2392 14.3833 16.0765 14.3727 15.9131 14.3516L13.9141 14.0928L11.9033 18.8701ZM16.6514 5.60352C15.1284 5.98279 14 7.35968 14 9C14 10.6395 15.1276 12.0144 16.6494 12.3945C18.4756 12.3732 19.9997 10.8848 20 9C20 7.11569 18.4769 5.62591 16.6514 5.60352ZM3 12.2764L4.5 11.4189V6.58008L3 5.72266V12.2764ZM6.5 6.87793V11.1201L12.8525 11.9395C12.3135 11.089 12 10.0814 12 9C12 7.91754 12.3135 6.90859 12.8535 6.05762L6.5 6.87793Z" fill="#9E9E9E"/>
</g>
</svg>
