<svg width="24" height="24" viewBox="0 0 24 24" fill="none" xmlns="http://www.w3.org/2000/svg">
<g id="icons/Hardware/hand-painted-plate">
<path id="Union" d="M21 4C22.1046 4 23 4.89542 23 6V19C23 20.1046 22.1046 21 21 21H3C1.89544 21 1 20.1046 1 19V6C1 4.89541 1.89544 4 3 4H21ZM3 19H8V6H3V19ZM10 19H21V6H10V19ZM5.5 15.5C6.05228 15.5 6.5 15.9477 6.5 16.5C6.5 17.0523 6.05228 17.5 5.5 17.5C4.94772 17.5 4.5 17.0523 4.5 16.5C4.5 15.9477 4.94772 15.5 5.5 15.5ZM17.6826 7.42285C18.0011 6.97175 18.626 6.86415 19.0771 7.18262C19.5282 7.50114 19.6358 8.12599 19.3174 8.57715L13.3174 17.0771C12.9989 17.5283 12.374 17.6358 11.9229 17.3174C11.4717 16.9989 11.3642 16.374 11.6826 15.9229L17.6826 7.42285ZM5.5 12.5C6.05228 12.5 6.5 12.9477 6.5 13.5C6.5 14.0523 6.05228 14.5 5.5 14.5C4.94772 14.5 4.5 14.0523 4.5 13.5C4.5 12.9477 4.94772 12.5 5.5 12.5ZM5.5 7.5C6.05228 7.5 6.5 7.94772 6.5 8.5V10.5C6.5 11.0523 6.05228 11.5 5.5 11.5C4.94772 11.5 4.5 11.0523 4.5 10.5V8.5C4.5 7.94772 4.94772 7.5 5.5 7.5Z" fill="#9E9E9E"/>
</g>
</svg>
