<svg width="24" height="24" viewBox="0 0 24 24" fill="none" xmlns="http://www.w3.org/2000/svg">
<g id="icons/Hardware/hard-disk-one">
<path id="Union" d="M19.5 2C20.8807 2 22 3.1193 22 4.5V19.5C22 20.8807 20.8807 22 19.5 22H4.5C3.1193 22 2 20.8807 2 19.5V4.5C2 3.11929 3.11929 2 4.5 2H19.5ZM4.5 4C4.22386 4 4 4.22386 4 4.5V19.5C4 19.7762 4.22385 20 4.5 20H19.5C19.7762 20 20 19.7762 20 19.5V4.5C20 4.22385 19.7762 4 19.5 4H17V8C17 8.55228 16.5523 9 16 9H8C7.44772 9 7 8.55228 7 8V4H4.5ZM15.5 17C16.0523 17 16.5 17.4477 16.5 18C16.5 18.5523 16.0523 19 15.5 19H8.5C7.94772 19 7.5 18.5523 7.5 18C7.5 17.4477 7.94772 17 8.5 17H15.5ZM9 7H15V4H9V7Z" fill="#9E9E9E"/>
</g>
</svg>
