<svg width="24" height="24" viewBox="0 0 24 24" fill="none" xmlns="http://www.w3.org/2000/svg">
<g id="icons/Hardware/hard-disk">
<path id="Union" d="M19.5986 1.50293C20.0343 1.54132 20.399 1.86092 20.4893 2.2959L22.9795 14.2959H22.9785C22.9922 14.3618 23 14.43 23 14.5V21C23 21.5523 22.5523 22 22 22H2C1.44772 22 1 21.5523 1 21V14.5C1 14.4293 1.00755 14.3605 1.02148 14.2939L3.54004 2.29395C3.63724 1.83093 4.04643 1.49902 4.51953 1.49902H19.5098L19.5986 1.50293ZM3 20H21V15.5H3V20ZM17.75 16.5C18.4403 16.5 19 17.0597 19 17.75C19 18.4403 18.4403 19 17.75 19C17.0597 19 16.5 18.4403 16.5 17.75C16.5 17.0597 17.0597 16.5 17.75 16.5ZM3.23145 13.5H20.7715L18.6963 3.49902H5.33105L3.23145 13.5Z" fill="#9E9E9E"/>
</g>
</svg>
