<svg width="24" height="24" viewBox="0 0 24 24" fill="none" xmlns="http://www.w3.org/2000/svg">
<g id="icons/Hardware/hashtag-key">
<path id="Union" d="M19.5 2C20.8807 2 22 3.11929 22 4.5V19.5C22 20.8807 20.8807 22 19.5 22H4.5C3.11929 22 2 20.8807 2 19.5V4.5C2 3.11929 3.11929 2 4.5 2H19.5ZM4.5 4C4.22386 4 4 4.22386 4 4.5V19.5C4 19.7761 4.22386 20 4.5 20H19.5C19.7761 20 20 19.7761 20 19.5V4.5C20 4.22386 19.7761 4 19.5 4H4.5ZM14.5 7C15.0523 7 15.5 7.44772 15.5 8V8.5H16C16.5523 8.5 17 8.94772 17 9.5C17 10.0523 16.5523 10.5 16 10.5H15.5V13.5H16C16.5523 13.5 17 13.9477 17 14.5C17 15.0523 16.5523 15.5 16 15.5H15.5V16C15.5 16.5523 15.0523 17 14.5 17C13.9477 17 13.5 16.5523 13.5 16V15.5H10.5V16C10.5 16.5523 10.0523 17 9.5 17C8.94772 17 8.5 16.5523 8.5 16V15.5H8C7.44772 15.5 7 15.0523 7 14.5C7 13.9477 7.44772 13.5 8 13.5H8.5V10.5H8C7.44772 10.5 7 10.0523 7 9.5C7 8.94772 7.44772 8.5 8 8.5H8.5V8C8.5 7.44772 8.94772 7 9.5 7C10.0523 7 10.5 7.44772 10.5 8V8.5H13.5V8C13.5 7.44772 13.9477 7 14.5 7ZM10.5 13.5H13.5V10.5H10.5V13.5Z" fill="#9E9E9E"/>
</g>
</svg>
