<svg width="24" height="24" viewBox="0 0 24 24" fill="none" xmlns="http://www.w3.org/2000/svg">
<g id="icons/Hardware/hdd">
<path id="Union" d="M18.5 1C19.6046 1 20.5 1.89543 20.5 3V21C20.5 22.1046 19.6046 23 18.5 23H5.5C4.39543 23 3.5 22.1046 3.5 21V3C3.5 1.89543 4.39543 1 5.5 1H18.5ZM5.5 21H18.5V3H5.5V21ZM8 18C8.55228 18 9 18.4477 9 19C9 19.5523 8.55228 20 8 20C7.44772 20 7 19.5523 7 19C7 18.4477 7.44772 18 8 18ZM16 18C16.5523 18 17 18.4477 17 19C17 19.5523 16.5523 20 16 20C15.4477 20 15 19.5523 15 19C15 18.4477 15.4477 18 16 18ZM12 6C14.7614 6 17 8.23856 17 11C17 13.7614 14.7614 16 12 16C11.4477 16 11 15.5523 11 15C11 14.4477 11.4477 14 12 14C13.6569 14 15 12.6569 15 11C15 9.34313 13.6569 8 12 8C10.3431 8 9 9.34313 9 11C9 11.5523 8.55228 12 8 12C7.44772 12 7 11.5523 7 11C7 8.23856 9.23856 6 12 6ZM11.293 10.293C11.6835 9.90244 12.3165 9.90244 12.707 10.293C13.0976 10.6835 13.0976 11.3165 12.707 11.707L9.70703 14.707C9.31651 15.0976 8.68349 15.0976 8.29297 14.707C7.90244 14.3165 7.90244 13.6835 8.29297 13.293L11.293 10.293ZM8 4C8.55228 4 9 4.44772 9 5C9 5.55228 8.55228 6 8 6C7.44772 6 7 5.55228 7 5C7 4.44772 7.44772 4 8 4ZM16 4C16.5523 4 17 4.44772 17 5C17 5.55228 16.5523 6 16 6C15.4477 6 15 5.55228 15 5C15 4.44772 15.4477 4 16 4Z" fill="#9E9E9E"/>
</g>
</svg>
