<svg width="24" height="24" viewBox="0 0 24 24" fill="none" xmlns="http://www.w3.org/2000/svg">
<g id="icons/Hardware/hdmi-connector">
<path id="Union" d="M12 1C18.0751 1 23 5.92487 23 12C23 16.3887 20.4291 20.1753 16.7119 21.9404C16.6998 21.9467 16.6882 21.9541 16.6758 21.96C16.5529 22.0177 16.4281 22.0717 16.3027 22.125C16.2865 22.1319 16.2702 22.1387 16.2539 22.1455C16.1089 22.2064 15.9625 22.2646 15.8145 22.3193C15.7859 22.3299 15.7572 22.3402 15.7285 22.3506C15.5861 22.4019 15.4429 22.4516 15.2979 22.4971C15.2694 22.506 15.2405 22.5137 15.2119 22.5225C14.8922 22.6199 14.5665 22.7031 14.2354 22.7715C14.2252 22.7736 14.2152 22.7763 14.2051 22.7783C14.0414 22.8116 13.8762 22.8403 13.71 22.8662C13.6885 22.8696 13.667 22.8728 13.6455 22.876C13.4848 22.9001 13.3231 22.9214 13.1602 22.9385C13.1299 22.9416 13.0996 22.9443 13.0693 22.9473C12.9075 22.9629 12.7448 22.9749 12.5811 22.9834C12.5674 22.9841 12.5537 22.9847 12.54 22.9854C12.3611 22.994 12.1811 23 12 23C11.8186 23 11.6383 22.994 11.459 22.9854C11.4453 22.9847 11.4316 22.9841 11.418 22.9834C11.2542 22.9749 11.0915 22.9629 10.9297 22.9473C10.8994 22.9443 10.8691 22.9416 10.8389 22.9385C10.676 22.9214 10.5143 22.9001 10.3535 22.876C10.332 22.8727 10.3105 22.8696 10.2891 22.8662C10.1228 22.8403 9.95766 22.8116 9.79395 22.7783C9.78381 22.7763 9.7738 22.7736 9.76367 22.7715C9.43251 22.7031 9.10679 22.6199 8.78711 22.5225C8.75882 22.5138 8.73034 22.5059 8.70215 22.4971C8.55684 22.4515 8.41317 22.402 8.27051 22.3506C8.24182 22.3402 8.21315 22.3299 8.18457 22.3193C8.0365 22.2646 7.89012 22.2064 7.74512 22.1455C7.72884 22.1387 7.71253 22.1319 7.69629 22.125C7.57125 22.0718 7.44684 22.0176 7.32422 21.96C7.31151 21.954 7.29945 21.9469 7.28711 21.9404C3.57036 20.1751 1 16.3883 1 12C1 5.92487 5.92487 1 12 1ZM12 20C11.3876 20 10.86 20.3666 10.627 20.8926C10.6986 20.9036 10.7705 20.9136 10.8428 20.9229C11.2218 20.9715 11.6077 21 12 21C12.3919 21 12.7775 20.9714 13.1562 20.9229C13.2281 20.9136 13.2998 20.9045 13.3711 20.8936C13.1381 20.3675 12.6124 20 12 20ZM12 3C7.02944 3 3 7.02944 3 12C3 15.8005 5.3566 19.0485 8.6875 20.3682C9.15805 18.9907 10.4632 18 12 18C13.5367 18 14.8409 18.9908 15.3115 20.3682C18.6429 19.0488 21 15.8008 21 12C21 7.02944 16.9706 3 12 3ZM5.5 10C6.32843 10 7 10.6716 7 11.5C7 12.3284 6.32843 13 5.5 13C4.67157 13 4 12.3284 4 11.5C4 10.6716 4.67157 10 5.5 10ZM18.5 10C19.3284 10 20 10.6716 20 11.5C20 12.3284 19.3284 13 18.5 13C17.6716 13 17 12.3284 17 11.5C17 10.6716 17.6716 10 18.5 10ZM7.5 6C8.32843 6 9 6.67157 9 7.5C9 8.32843 8.32843 9 7.5 9C6.67157 9 6 8.32843 6 7.5C6 6.67157 6.67157 6 7.5 6ZM16.5 6C17.3284 6 18 6.67157 18 7.5C18 8.32843 17.3284 9 16.5 9C15.6716 9 15 8.32843 15 7.5C15 6.67157 15.6716 6 16.5 6ZM12 4C12.8284 4 13.5 4.67157 13.5 5.5C13.5 6.32843 12.8284 7 12 7C11.1716 7 10.5 6.32843 10.5 5.5C10.5 4.67157 11.1716 4 12 4Z" fill="#9E9E9E"/>
</g>
</svg>
