<svg width="24" height="24" viewBox="0 0 24 24" fill="none" xmlns="http://www.w3.org/2000/svg">
<g id="icons/Hardware/hdmi-cable">
<path id="Union" d="M21 6C22.1046 6 23 6.89542 23 8V12.3232C22.9999 13.0465 22.6206 13.6325 22.168 14.0098L21.9707 14.1582C21.4885 14.4845 20.8046 15.1212 20.5781 16.21C20.396 17.0849 19.6468 18 18.5 18H5.5C4.35325 18 3.60403 17.0849 3.42188 16.21C3.19538 15.1212 2.51155 14.4845 2.0293 14.1582C1.49533 13.797 1.00012 13.1497 1 12.3232V8C1 6.89541 1.89544 6 3 6H21ZM3 12.3232C3.00042 12.3271 3.00363 12.3438 3.02148 12.373C3.04571 12.4126 3.08861 12.4608 3.14941 12.502H3.15039C3.8876 13.0008 5.0109 14.029 5.37988 15.8027C5.3965 15.8822 5.43598 15.9447 5.47168 15.9785C5.48786 15.9938 5.49939 15.9989 5.50195 16H18.498C18.5006 15.9989 18.5121 15.9938 18.5283 15.9785C18.564 15.9448 18.6035 15.8822 18.6201 15.8027C18.9891 14.0289 20.1125 13.0008 20.8496 12.502H20.8506C20.9114 12.4608 20.9543 12.4126 20.9785 12.373C20.9964 12.3438 20.9996 12.3271 21 12.3232V8H3V12.3232ZM17 11.5C17.5523 11.5 18 11.9477 18 12.5V14C18 14.5523 17.5523 15 17 15H7C6.44772 15 6 14.5523 6 14V12.5C6 11.9477 6.44772 11.5 7 11.5C7.55228 11.5 8 11.9477 8 12.5V13H9.5V12.5C9.5 11.9477 9.94771 11.5 10.5 11.5C11.0523 11.5 11.5 11.9477 11.5 12.5V13H12.5V12.5C12.5 11.9477 12.9477 11.5 13.5 11.5C14.0523 11.5 14.5 11.9477 14.5 12.5V13H16V12.5C16 11.9477 16.4477 11.5 17 11.5ZM6.5 9C7.05228 9 7.5 9.44772 7.5 10C7.5 10.5523 7.05228 11 6.5 11H5.5C4.94772 11 4.5 10.5523 4.5 10C4.5 9.44772 4.94772 9 5.5 9H6.5ZM10.5 9C11.0523 9 11.5 9.44772 11.5 10C11.5 10.5523 11.0523 11 10.5 11H9.5C8.94772 11 8.5 10.5523 8.5 10C8.5 9.44772 8.94772 9 9.5 9H10.5ZM14.5 9C15.0523 9 15.5 9.44772 15.5 10C15.5 10.5523 15.0523 11 14.5 11H13.5C12.9477 11 12.5 10.5523 12.5 10C12.5 9.44772 12.9477 9 13.5 9H14.5ZM18.5 9C19.0523 9 19.5 9.44772 19.5 10C19.5 10.5523 19.0523 11 18.5 11H17.5C16.9477 11 16.5 10.5523 16.5 10C16.5 9.44772 16.9477 9 17.5 9H18.5Z" fill="#9E9E9E"/>
</g>
</svg>
