<svg width="24" height="24" viewBox="0 0 24 24" fill="none" xmlns="http://www.w3.org/2000/svg">
<g id="icons/Hardware/headset-two">
<path id="Union" d="M18.75 4C20.4943 4 22.5 5.39147 22.5 8C22.5 10.7064 20.1344 12 18.5 12H17.5V15.5C17.5 16.5249 16.8826 17.4041 16 17.79V21H18C18.5523 21 19 21.4477 19 22C19 22.5523 18.5523 23 18 23H15C14.4477 23 14 22.5523 14 22V17.79C13.1174 17.4041 12.5 16.5249 12.5 15.5V5C12.5 4.44772 12.9477 4 13.5 4H18.75ZM10.5 1C11.0523 1 11.5 1.44772 11.5 2V12.5C11.5 13.5249 10.8826 14.4041 10 14.79V19C10 19.5523 9.55229 20 9 20H6C5.44772 20 5 19.5523 5 19C5 18.4477 5.44772 18 6 18H8V14.79C7.11742 14.4041 6.5 13.5249 6.5 12.5V9H5.5C3.86564 9 1.5 7.70643 1.5 5C1.5 2.39147 3.50569 1 5.25 1H10.5ZM14.5 15.5C14.5 15.7762 14.7238 16 15 16C15.2762 16 15.5 15.7762 15.5 15.5V12H14.5V15.5ZM8.5 12.5C8.5 12.7762 8.72383 13 9 13C9.27617 13 9.5 12.7762 9.5 12.5V9H8.5V12.5ZM14.5 10H18.5C19.3656 10 20.5 9.29357 20.5 8C20.5 6.60853 19.5057 6 18.75 6H14.5V10ZM5.25 3C4.49431 3 3.5 3.60853 3.5 5C3.5 6.29357 4.63436 7 5.5 7H9.5V3H5.25Z" fill="#9E9E9E"/>
</g>
</svg>
