<svg width="24" height="24" viewBox="0 0 24 24" fill="none" xmlns="http://www.w3.org/2000/svg">
<g id="icons/Hardware/hunting-gear">
<path id="Union" d="M19.5986 1.50293C20.0343 1.54132 20.399 1.86092 20.4893 2.2959L22.9795 14.2959H22.9785C22.9922 14.3618 23 14.43 23 14.5V21C23 21.5523 22.5523 22 22 22H2C1.44772 22 1 21.5523 1 21V14.5C1 14.4293 1.00755 14.3605 1.02148 14.2939L3.54004 2.29395C3.63724 1.83093 4.04643 1.49902 4.51953 1.49902H19.5098L19.5986 1.50293ZM3 20H21V15.5H3V20ZM3.23145 13.5H20.7715L18.6963 3.49902H5.33105L3.23145 13.5ZM9.5 5C10.0523 5 10.5 5.44772 10.5 6C10.5 6.55228 10.0523 7 9.5 7C8.67158 7 8 7.67158 8 8.5C8 9.32842 8.67158 10 9.5 10C10.0523 10 10.5 10.4477 10.5 11C10.5 11.5523 10.0523 12 9.5 12C7.56702 12 6 10.433 6 8.5C6 6.56702 7.56702 5 9.5 5ZM14.5 5C16.433 5 18 6.56702 18 8.5C18 10.433 16.433 12 14.5 12C13.9477 12 13.5 11.5523 13.5 11C13.5 10.4477 13.9477 10 14.5 10C15.3284 10 16 9.32842 16 8.5C16 7.67158 15.3284 7 14.5 7C13.9477 7 13.5 6.55228 13.5 6C13.5 5.44772 13.9477 5 14.5 5ZM14 7.5C14.5523 7.5 15 7.94772 15 8.5C15 9.05228 14.5523 9.5 14 9.5H10C9.44771 9.5 9 9.05228 9 8.5C9 7.94772 9.44771 7.5 10 7.5H14Z" fill="#9E9E9E"/>
</g>
</svg>
