<svg width="24" height="24" viewBox="0 0 24 24" fill="none" xmlns="http://www.w3.org/2000/svg">
<g id="icons/Hardware/i-mac">
<path id="Union" d="M22 2C22.5523 2 23 2.44772 23 3V18C23 18.5523 22.5523 19 22 19H15.6699L16.7783 20.3721C17.02 20.6716 17.0681 21.0833 16.9023 21.4307C16.7363 21.7783 16.3853 22 16 22H8C7.61475 22 7.26373 21.7783 7.09766 21.4307C6.93186 21.0833 6.98 20.6716 7.22168 20.3721L8.33008 19H2C1.44772 19 1 18.5523 1 18V3C1 2.44772 1.44772 2 2 2H22ZM10.9004 19L10.0928 20H13.9072L13.0996 19H10.9004ZM3 17H21V15H3V17ZM3 13H21V4H3V13ZM6.5459 9C6.79659 9.00024 6.99976 9.20341 7 9.4541V10.5459C6.99976 10.7966 6.79659 10.9998 6.5459 11H5.4541C5.20341 10.9998 5.00024 10.7966 5 10.5459V9.4541C5.00024 9.20341 5.20341 9.00024 5.4541 9H6.5459ZM10.5459 9C10.7966 9.00024 10.9998 9.20341 11 9.4541V10.5459C10.9998 10.7966 10.7966 10.9998 10.5459 11H9.4541C9.20341 10.9998 9.00024 10.7966 9 10.5459V9.4541C9.00024 9.20341 9.20341 9.00024 9.4541 9H10.5459ZM14.5459 9C14.7966 9.00024 14.9998 9.20341 15 9.4541V10.5459C14.9998 10.7966 14.7966 10.9998 14.5459 11H13.4541C13.2034 10.9998 13.0002 10.7966 13 10.5459V9.4541C13.0002 9.20341 13.2034 9.00024 13.4541 9H14.5459ZM6.5459 6C6.79659 6.00024 6.99976 6.20341 7 6.4541V7.5459C6.99976 7.79659 6.79659 7.99976 6.5459 8H5.4541C5.20341 7.99976 5.00024 7.79659 5 7.5459V6.4541C5.00024 6.20341 5.20341 6.00024 5.4541 6H6.5459ZM10.5459 6C10.7966 6.00024 10.9998 6.20341 11 6.4541V7.5459C10.9998 7.79659 10.7966 7.99976 10.5459 8H9.4541C9.20341 7.99976 9.00024 7.79659 9 7.5459V6.4541C9.00024 6.20341 9.20341 6.00024 9.4541 6H10.5459ZM14.5459 6C14.7966 6.00024 14.9998 6.20341 15 6.4541V7.5459C14.9998 7.79659 14.7966 7.99976 14.5459 8H13.4541C13.2034 7.99976 13.0002 7.79659 13 7.5459V6.4541C13.0002 6.20341 13.2034 6.00024 13.4541 6H14.5459ZM18.5459 6C18.7966 6.00024 18.9998 6.20341 19 6.4541V7.5459C18.9998 7.79659 18.7966 7.99976 18.5459 8H17.4541C17.2034 7.99976 17.0002 7.79659 17 7.5459V6.4541C17.0002 6.20341 17.2034 6.00024 17.4541 6H18.5459Z" fill="#9E9E9E"/>
</g>
</svg>
