<svg width="24" height="24" viewBox="0 0 24 24" fill="none" xmlns="http://www.w3.org/2000/svg">
<g id="icons/Hardware/induction-lock">
<path id="Union" d="M11.5186 2.12305C11.8675 1.93133 12.3054 1.96321 12.625 2.21875L20.125 8.21875C20.3621 8.40845 20.4999 8.69634 20.5 9V21C20.5 21.5523 20.0523 22 19.5 22H4.5C3.94772 22 3.5 21.5523 3.5 21V9C3.5001 8.69634 3.63787 8.40845 3.875 8.21875L11.375 2.21875L11.5186 2.12305ZM5.5 9.48047V20H18.5V9.48047L12 4.28125L5.5 9.48047ZM12 10C12.5522 10 12.9998 10.4479 13 11V17C13 17.5523 12.5523 18 12 18C11.4477 18 11 17.5523 11 17V11C11.0002 10.4479 11.4478 10 12 10ZM8.5 12C9.05217 12 9.49982 12.4479 9.5 13V15C9.5 15.5523 9.05228 16 8.5 16C7.94772 16 7.5 15.5523 7.5 15V13C7.50018 12.4479 7.94783 12 8.5 12ZM15.5 12C16.0522 12 16.4998 12.4479 16.5 13V15C16.5 15.5523 16.0523 16 15.5 16C14.9477 16 14.5 15.5523 14.5 15V13C14.5002 12.4479 14.9478 12 15.5 12Z" fill="#9E9E9E"/>
</g>
</svg>
