<svg width="24" height="24" viewBox="0 0 24 24" fill="none" xmlns="http://www.w3.org/2000/svg">
<g id="icons/Hardware/intercom">
<path id="Union" d="M9.5 1C10.0523 1 10.5 1.44772 10.5 2V4.5H13V3.5C13 2.94772 13.4477 2.5 14 2.5C14.5523 2.5 15 2.94772 15 3.5V4.5H16C17.3807 4.5 18.5 5.61927 18.5 7V12.6621L18.4482 12.8164L17.5 15.6611V20.5C17.5 21.8807 16.3807 23 15 23H9C7.61927 23 6.5 21.8807 6.5 20.5V15.6611L5.55176 12.8164L5.5 12.6621V7C5.5 5.61927 6.61927 4.5 8 4.5H8.5V2C8.5 1.44772 8.94772 1 9.5 1ZM8 6.5C7.72383 6.5 7.5 6.72383 7.5 7V12.3389L8.44824 15.1836L8.5 15.3379V20.5C8.5 20.7762 8.72383 21 9 21H15C15.2762 21 15.5 20.7762 15.5 20.5V15.3379L15.5518 15.1836L16.5 12.3389V7C16.5 6.72383 16.2762 6.5 16 6.5H8ZM13 12C13.5523 12 14 12.4477 14 13C14 13.5523 13.5523 14 13 14H11C10.4477 14 10 13.5523 10 13C10 12.4477 10.4477 12 11 12H13ZM14 8.5C14.5523 8.5 15 8.94772 15 9.5C15 10.0523 14.5523 10.5 14 10.5H10C9.44772 10.5 9 10.0523 9 9.5C9 8.94772 9.44772 8.5 10 8.5H14Z" fill="#9E9E9E"/>
</g>
</svg>
