<svg width="24" height="24" viewBox="0 0 24 24" fill="none" xmlns="http://www.w3.org/2000/svg">
<g id="icons/Hardware/ipad-one">
<path id="Union" d="M20.5 4C21.6046 4 22.5 4.89543 22.5 6V19C22.5 20.1046 21.6046 21 20.5 21H3.5C2.39543 21 1.5 20.1046 1.5 19V6C1.5 4.89543 2.39543 4 3.5 4H20.5ZM3.5 19H20.5V6H3.5V19ZM5.5 10.5C6.05228 10.5 6.5 10.9477 6.5 11.5V13.5C6.5 14.0523 6.05228 14.5 5.5 14.5C4.94772 14.5 4.5 14.0523 4.5 13.5V11.5C4.5 10.9477 4.94772 10.5 5.5 10.5Z" fill="#9E9E9E"/>
</g>
</svg>
