<svg width="24" height="24" viewBox="0 0 24 24" fill="none" xmlns="http://www.w3.org/2000/svg">
<g id="icons/Hardware/iwatch-two">
<path id="Union" d="M13 2C18.0779 2.00021 22 6.59127 22 12C22 17.4087 18.0779 21.9998 13 22C10.9236 22 9.02451 21.2181 7.5166 19.9297C7.35159 19.9738 7.1789 20 7 20H4C2.89543 20 2 19.1046 2 18V6C2 4.89543 2.89543 4 4 4H7C7.17849 4 7.35096 4.02547 7.51562 4.06934C9.02363 2.78103 10.9236 2 13 2ZM13 4C11.4942 4 10.0882 4.54508 8.93164 5.49219C8.97422 5.65459 9 5.82424 9 6V18C9 18.1758 8.97422 18.3454 8.93164 18.5078C10.0883 19.4547 11.4944 20 13 20C16.7584 19.9998 20 16.5321 20 12C20 7.46789 16.7584 4.00021 13 4ZM4 18H7V6H4V18ZM5.5 12.5C6.05228 12.5 6.5 12.9477 6.5 13.5C6.5 14.0523 6.05228 14.5 5.5 14.5C4.94772 14.5 4.5 14.0523 4.5 13.5C4.5 12.9477 4.94772 12.5 5.5 12.5ZM5.5 9C6.05228 9 6.5 9.44772 6.5 10C6.5 10.5523 6.05228 11 5.5 11C4.94772 11 4.5 10.5523 4.5 10C4.5 9.44772 4.94772 9 5.5 9Z" fill="#9E9E9E"/>
</g>
</svg>
