<svg width="24" height="24" viewBox="0 0 24 24" fill="none" xmlns="http://www.w3.org/2000/svg">
<g id="icons/Hardware/iwatch-one">
<path id="Union" d="M15.5 1C16.0523 1 16.5 1.44772 16.5 2V5C17.6046 5 18.5 5.89543 18.5 7V17C18.5 18.1046 17.6046 19 16.5 19V21.5C16.5 22.3284 15.8284 23 15 23H9C8.17157 23 7.5 22.3284 7.5 21.5V19C6.39543 19 5.5 18.1046 5.5 17V7C5.5 5.89543 6.39543 5 7.5 5V2C7.5 1.44772 7.94772 1 8.5 1H15.5ZM9.5 21H14.5V19H9.5V21ZM7.5 11.0215L9.48926 11C10.0413 10.9941 10.4939 11.4371 10.5 11.9893C10.5059 12.5414 10.0629 12.9939 9.51074 13L7.5 13.0215V17H11V15C11 14.4477 11.4477 14 12 14C12.5523 14 13 14.4477 13 15V17H16.5V12.9775L14.5107 13C13.9586 13.0059 13.5061 12.5629 13.5 12.0107C13.4939 11.4585 13.937 11.0061 14.4893 11L16.5 10.9775V7H13V9C13 9.55229 12.5523 10 12 10C11.4477 10 11 9.55229 11 9V7H7.5V11.0215ZM3.5 9C4.05228 9 4.5 9.44771 4.5 10V14C4.5 14.5523 4.05228 15 3.5 15C2.94772 15 2.5 14.5523 2.5 14V10C2.5 9.44771 2.94772 9 3.5 9ZM20.5 9C21.0523 9 21.5 9.44771 21.5 10V14C21.5 14.5523 21.0523 15 20.5 15C19.9477 15 19.5 14.5523 19.5 14V10C19.5 9.44771 19.9477 9 20.5 9ZM9.5 5H14.5V3H9.5V5Z" fill="#9E9E9E"/>
</g>
</svg>
