<svg width="24" height="24" viewBox="0 0 24 24" fill="none" xmlns="http://www.w3.org/2000/svg">
<g id="icons/Hardware/kettle">
<path id="Union" d="M14.0955 1.22461C14.6365 1.22463 15.075 1.6631 15.075 2.2041V4.16309H21.9315C22.4725 4.16309 22.9119 4.60156 22.9119 5.14258V12.9795C22.9118 13.5204 22.4724 13.959 21.9315 13.959H19.6736L19.9373 17.3877H20.952C21.4929 17.3878 21.9315 17.8262 21.9315 18.3672V21.7959C21.9314 22.3368 21.4929 22.7753 20.952 22.7754H3.31915C2.77828 22.7753 2.33974 22.3368 2.33966 21.7959V18.3672C2.33966 17.8262 2.77823 17.3878 3.31915 17.3877H4.33478L4.93536 9.84375C4.94581 9.71266 4.90256 9.58269 4.81622 9.4834L1.6004 5.78516C1.34876 5.49557 1.28903 5.08548 1.44806 4.73633C1.60717 4.38712 1.95592 4.16316 2.33966 4.16309H8.70782V2.2041C8.70782 1.66315 9.1464 1.22472 9.68732 1.22461H14.0955ZM4.29865 20.8164H19.9725V19.3467H4.29865V20.8164ZM6.29474 8.19727C6.72648 8.69366 6.94074 9.34313 6.88849 9.99902L6.29962 17.3877H17.9725L17.1053 6.12207H4.49005L6.29474 8.19727ZM13.116 13.959C13.6569 13.9591 14.0955 14.3975 14.0955 14.9385C14.0955 15.4794 13.6569 15.9178 13.116 15.918H10.6668C10.1259 15.9179 9.68732 15.4794 9.68732 14.9385C9.68732 14.3975 10.1259 13.9591 10.6668 13.959H13.116ZM13.116 11.0205C13.6569 11.0206 14.0955 11.4591 14.0955 12C14.0955 12.5409 13.6569 12.9794 13.116 12.9795H10.6668C10.1259 12.9794 9.68732 12.5409 9.68732 12C9.68732 11.4591 10.1259 11.0206 10.6668 11.0205H13.116ZM19.5233 12H20.952V6.12207H19.0711L19.5233 12ZM13.116 8.08203C13.6569 8.08216 14.0955 8.52059 14.0955 9.06152C14.0955 9.60246 13.6569 10.0409 13.116 10.041H10.6668C10.1259 10.0409 9.68732 9.60247 9.68732 9.06152C9.68732 8.52058 10.1259 8.08214 10.6668 8.08203H13.116ZM10.6668 4.16309H13.116V3.18359H10.6668V4.16309Z" fill="#9E9E9E"/>
</g>
</svg>
