<svg width="24" height="24" viewBox="0 0 24 24" fill="none" xmlns="http://www.w3.org/2000/svg">
<g id="icons/Hardware/keyboard">
<path id="Union" d="M12 1C18.0751 1 23 5.92487 23 12C23 18.0751 18.0751 23 12 23C5.92487 23 1 18.0751 1 12C1 5.92487 5.92487 1 12 1ZM12 3C7.02943 3 3 7.02943 3 12C3 16.9706 7.02943 21 12 21C16.9706 21 21 16.9706 21 12C21 7.02943 16.9706 3 12 3ZM15.5 15.5C16.0523 15.5 16.5 15.9477 16.5 16.5C16.5 17.0523 16.0523 17.5 15.5 17.5H8.5C7.94772 17.5 7.5 17.0523 7.5 16.5C7.5 15.9477 7.94772 15.5 8.5 15.5H15.5ZM7.5 11C8.19035 11 8.75 11.5597 8.75 12.25C8.75 12.9403 8.19035 13.5 7.5 13.5C6.80965 13.5 6.25 12.9403 6.25 12.25C6.25 11.5597 6.80965 11 7.5 11ZM12 11C12.6903 11 13.25 11.5597 13.25 12.25C13.25 12.9403 12.6903 13.5 12 13.5C11.3097 13.5 10.75 12.9403 10.75 12.25C10.75 11.5597 11.3097 11 12 11ZM16.5 11C17.1903 11 17.75 11.5597 17.75 12.25C17.75 12.9403 17.1903 13.5 16.5 13.5C15.8097 13.5 15.25 12.9403 15.25 12.25C15.25 11.5597 15.8097 11 16.5 11ZM7.5 7C8.19035 7 8.75 7.55965 8.75 8.25C8.75 8.94035 8.19035 9.5 7.5 9.5C6.80965 9.5 6.25 8.94035 6.25 8.25C6.25 7.55965 6.80965 7 7.5 7ZM12 7C12.6903 7 13.25 7.55965 13.25 8.25C13.25 8.94035 12.6903 9.5 12 9.5C11.3097 9.5 10.75 8.94035 10.75 8.25C10.75 7.55965 11.3097 7 12 7ZM16.5 7C17.1903 7 17.75 7.55965 17.75 8.25C17.75 8.94035 17.1903 9.5 16.5 9.5C15.8097 9.5 15.25 8.94035 15.25 8.25C15.25 7.55965 15.8097 7 16.5 7Z" fill="#9E9E9E"/>
</g>
</svg>
