<svg width="24" height="24" viewBox="0 0 24 24" fill="none" xmlns="http://www.w3.org/2000/svg">
<g id="icons/Hardware/keyboard-one">
<path id="Union" d="M20 2C20.5523 2 21 2.44772 21 3V5.5625C21 6.39093 20.3284 7.0625 19.5 7.0625H17.5V8H21C22.1046 8 23 8.89543 23 10V20C23 21.1046 22.1046 22 21 22H3C1.89543 22 1 21.1046 1 20V10C1 8.89543 1.89543 8 3 8H15.5V6.5625C15.5 5.73407 16.1716 5.0625 17 5.0625H19V3C19 2.44772 19.4477 2 20 2ZM3 20H21V10H3V20ZM15.5 17C16.0523 17 16.5 17.4477 16.5 18C16.5 18.5523 16.0523 19 15.5 19H8.5C7.94772 19 7.5 18.5523 7.5 18C7.5 17.4477 7.94772 17 8.5 17H15.5ZM5 14C5.55228 14 6 14.4477 6 15C6 15.5523 5.55228 16 5 16C4.44772 16 4 15.5523 4 15C4 14.4477 4.44772 14 5 14ZM8 14C8.55228 14 9 14.4477 9 15C9 15.5523 8.55228 16 8 16C7.44772 16 7 15.5523 7 15C7 14.4477 7.44772 14 8 14ZM11 14C11.5523 14 12 14.4477 12 15C12 15.5523 11.5523 16 11 16C10.4477 16 10 15.5523 10 15C10 14.4477 10.4477 14 11 14ZM14 14C14.5523 14 15 14.4477 15 15C15 15.5523 14.5523 16 14 16C13.4477 16 13 15.5523 13 15C13 14.4477 13.4477 14 14 14ZM17 14C17.5523 14 18 14.4477 18 15C18 15.5523 17.5523 16 17 16C16.4477 16 16 15.5523 16 15C16 14.4477 16.4477 14 17 14ZM7 11C7.55228 11 8 11.4477 8 12C8 12.5523 7.55228 13 7 13C6.44772 13 6 12.5523 6 12C6 11.4477 6.44772 11 7 11ZM10 11C10.5523 11 11 11.4477 11 12C11 12.5523 10.5523 13 10 13C9.44771 13 9 12.5523 9 12C9 11.4477 9.44771 11 10 11ZM13 11C13.5523 11 14 11.4477 14 12C14 12.5523 13.5523 13 13 13C12.4477 13 12 12.5523 12 12C12 11.4477 12.4477 11 13 11ZM16 11C16.5523 11 17 11.4477 17 12C17 12.5523 16.5523 13 16 13C15.4477 13 15 12.5523 15 12C15 11.4477 15.4477 11 16 11ZM19 11C19.5523 11 20 11.4477 20 12C20 12.5523 19.5523 13 19 13C18.4477 13 18 12.5523 18 12C18 11.4477 18.4477 11 19 11Z" fill="#9E9E9E"/>
</g>
</svg>
