<svg width="24" height="24" viewBox="0 0 24 24" fill="none" xmlns="http://www.w3.org/2000/svg">
<g id="icons/Hardware/lamp">
<path id="Union" d="M15.25 2C16.7688 2 18 3.23122 18 4.75V9.5H18.5C19.3284 9.5 20 10.1716 20 11V13C20 15.4189 18.2822 17.4361 16 17.8994V21C16 21.5523 15.5523 22 15 22H9C8.44772 22 8 21.5523 8 21V17.8994C5.71781 17.4361 4 15.4189 4 13V11C4 10.1716 4.67157 9.5 5.5 9.5H6V4.75C6 3.23122 7.23122 2 8.75 2C10.2688 2 11.5 3.23122 11.5 4.75V9.5H12.5V4.75C12.5 3.23122 13.7312 2 15.25 2ZM10 20H14V18H10V20ZM6 13C6 14.6569 7.34313 16 9 16H15C16.6569 16 18 14.6569 18 13V11.5H6V13ZM8.75 4C8.33578 4 8 4.33578 8 4.75V9.5H9.5V4.75C9.5 4.33578 9.16422 4 8.75 4ZM15.25 4C14.8358 4 14.5 4.33578 14.5 4.75V9.5H16V4.75C16 4.33578 15.6642 4 15.25 4Z" fill="#9E9E9E"/>
</g>
</svg>
