<svg width="24" height="24" viewBox="0 0 24 24" fill="none" xmlns="http://www.w3.org/2000/svg">
<g id="icons/Hardware/laptop-one">
<path id="Union" d="M18.5 3C19.8807 3 21 4.1193 21 5.5V15H22C22.5523 15 23 15.4477 23 16V17C23 19.2091 21.2091 21 19 21H5C2.79086 21 1 19.2091 1 17V16C1 15.4477 1.44772 15 2 15H3V5.5C3 4.11929 4.11929 3 5.5 3H18.5ZM3 17C3 18.1046 3.89543 19 5 19H19C20.1046 19 21 18.1046 21 17H3ZM5.5 5C5.22386 5 5 5.22386 5 5.5V15H19V5.5C19 5.22385 18.7762 5 18.5 5H5.5Z" fill="#9E9E9E"/>
</g>
</svg>
