<svg width="24" height="24" viewBox="0 0 24 24" fill="none" xmlns="http://www.w3.org/2000/svg">
<g id="icons/Hardware/laptop-computer">
<path id="Union" d="M22 19C22.5523 19 23 19.4477 23 20C23 20.5523 22.5523 21 22 21H2C1.44772 21 1 20.5523 1 20C1 19.4477 1.44772 19 2 19H22ZM20.5 3C21.6046 3 22.5 3.89543 22.5 5V15C22.5 16.1046 21.6046 17 20.5 17H3.5C2.39543 17 1.5 16.1046 1.5 15V5C1.5 3.89543 2.39543 3 3.5 3H20.5ZM3.5 15H20.5V5H3.5V15ZM13 6C13.5523 6 14 6.44772 14 7C14 7.55228 13.5523 8 13 8H11C10.4477 8 10 7.55228 10 7C10 6.44772 10.4477 6 11 6H13Z" fill="#9E9E9E"/>
</g>
</svg>
