<svg width="24" height="24" viewBox="0 0 24 24" fill="none" xmlns="http://www.w3.org/2000/svg">
<g id="icons/Hardware/laptop">
<path id="Union" d="M19.9999 3C20.5522 3 20.9999 3.44772 20.9999 4V13.8486L22.9559 20.2061C23.0491 20.5092 22.9928 20.8386 22.8046 21.0938C22.616 21.349 22.3172 21.5 21.9999 21.5H1.99988C1.6826 21.4999 1.38369 21.349 1.19519 21.0938C1.00698 20.8386 0.950662 20.5091 1.04382 20.2061L2.99988 13.8486V4C2.99988 3.44777 3.44767 3.00009 3.99988 3H19.9999ZM3.35437 19.5H8.26746L8.99695 17.1982C9.12855 16.7827 9.51416 16.5001 9.95007 16.5H14.0497L14.2108 16.5127C14.5784 16.5725 14.8876 16.8346 15.0028 17.1982L15.7323 19.5H20.6454L19.2606 15H4.73914L3.35437 19.5ZM10.3651 19.5H13.6346L13.3173 18.5H10.6825L10.3651 19.5ZM4.99988 13H18.9999V5H4.99988V13Z" fill="#9E9E9E"/>
</g>
</svg>
