<svg width="24" height="24" viewBox="0 0 24 24" fill="none" xmlns="http://www.w3.org/2000/svg">
<g id="icons/Hardware/locking-laptop">
<path id="Union" d="M12 3.5C12.5523 3.5 13 3.94772 13 4.5C13 5.05228 12.5523 5.5 12 5.5H5.5C5.22385 5.5 5 5.72385 5 6V15.5H19V14C19 13.4477 19.4477 13 20 13C20.5523 13 21 13.4477 21 14V15.5H22C22.5523 15.5 23 15.9477 23 16.5V17.5C23 19.7091 21.2091 21.5 19 21.5H5C2.79086 21.5 1 19.7091 1 17.5V16.5C1 15.9477 1.44772 15.5 2 15.5H3V6C3 4.61925 4.1193 3.5 5.5 3.5H12ZM3 17.5C3 18.6046 3.89543 19.5 5 19.5H19C20.1046 19.5 21 18.6046 21 17.5H3ZM18 2.5C19.3807 2.5 20.5 3.6193 20.5 5V5.70898C21.3828 6.09484 22 6.97498 22 8V9C22 10.3807 20.8807 11.5 19.5 11.5H16.5C15.1193 11.5 14 10.3807 14 9V8C14 6.97498 14.6172 6.09484 15.5 5.70898V5C15.5 3.6193 16.6193 2.5 18 2.5ZM16.5 7.5C16.2239 7.5 16 7.72386 16 8V9C16 9.27614 16.2239 9.5 16.5 9.5H19.5C19.7761 9.5 20 9.27614 20 9V8C20 7.72386 19.7761 7.5 19.5 7.5H16.5ZM18 4.5C17.7238 4.5 17.5 4.72385 17.5 5V5.5H18.5V5C18.5 4.72385 18.2762 4.5 18 4.5Z" fill="#9E9E9E"/>
</g>
</svg>
