<svg width="24" height="24" viewBox="0 0 24 24" fill="none" xmlns="http://www.w3.org/2000/svg">
<g id="icons/Hardware/locking-computer">
<path id="Union" d="M12 2C12.5523 2 13 2.44772 13 3C13 3.55228 12.5523 4 12 4H4.5C4.22386 4 4 4.22386 4 4.5V15.5C4 15.7762 4.22385 16 4.5 16H19.5C19.7762 16 20 15.7762 20 15.5V13.5C20 12.9477 20.4477 12.5 21 12.5C21.5523 12.5 22 12.9477 22 13.5V15.5C22 16.8807 20.8807 18 19.5 18H13V20H17C17.5523 20 18 20.4477 18 21C18 21.5523 17.5523 22 17 22H7C6.44772 22 6 21.5523 6 21C6 20.4477 6.44772 20 7 20H11V18H4.5C3.1193 18 2 16.8807 2 15.5V4.5C2 3.11929 3.11929 2 4.5 2H12ZM18 2C19.3807 2 20.5 3.1193 20.5 4.5V5.20898C21.3828 5.59484 22 6.47498 22 7.5V8.5C22 9.88071 20.8807 11 19.5 11H16.5C15.1193 11 14 9.88071 14 8.5V7.5C14 6.47498 14.6172 5.59484 15.5 5.20898V4.5C15.5 3.1193 16.6193 2 18 2ZM16.5 7C16.2239 7 16 7.22386 16 7.5V8.5C16 8.77614 16.2239 9 16.5 9H19.5C19.7761 9 20 8.77614 20 8.5V7.5C20 7.22386 19.7761 7 19.5 7H16.5ZM18 4C17.7238 4 17.5 4.22385 17.5 4.5V5H18.5V4.5C18.5 4.22385 18.2762 4 18 4Z" fill="#9E9E9E"/>
</g>
</svg>
