<svg width="24" height="24" viewBox="0 0 24 24" fill="none" xmlns="http://www.w3.org/2000/svg">
<g id="icons/Hardware/mac-finder">
<path id="Union" d="M21 3C22.1046 3 23 3.89544 23 5V19C23 20.1046 22.1046 21 21 21H3C1.89544 21 1 20.1046 1 19V5C1 3.89543 1.89543 3 3 3H21ZM3 19H12.9307L12.7949 16.9736C12.5378 16.9901 12.2727 17 12 17C10.1495 17 8.64909 16.5919 7.60547 16.1797C7.08376 15.9736 6.67421 15.7658 6.38965 15.6055C6.2473 15.5253 6.13568 15.4569 6.05664 15.4062L5.93359 15.3242C5.93009 15.3218 5.92737 15.3192 5.9248 15.3174L5.91895 15.3145V15.3135C5.92099 15.31 5.95609 15.2598 6.5 14.5L5.91797 15.3135C5.46898 14.992 5.36523 14.367 5.68652 13.918C6.00796 13.469 6.63298 13.3652 7.08203 13.6865L7.08105 13.6875C7.0822 13.6883 7.08426 13.6883 7.08594 13.6895C7.09509 13.6957 7.11232 13.707 7.13672 13.7227C7.18552 13.754 7.26401 13.803 7.37109 13.8633C7.58571 13.9842 7.91334 14.1515 8.34082 14.3203C9.196 14.6581 10.4459 15 12 15C12.2274 15 12.4481 14.9901 12.6621 14.9766L12.5645 13.5H10.5C10.0025 13.4999 9.58021 13.1341 9.50977 12.6416C9.22507 10.6487 9.79171 8.33581 10.3633 6.62109C10.5657 6.0139 10.7768 5.46232 10.9648 5H3V19ZM13.0342 5.2334C12.8161 5.73726 12.5306 6.44421 12.2607 7.25391C11.8078 8.61287 11.4357 10.1577 11.4336 11.5H13.5L13.5977 11.5049C14.0793 11.5518 14.4642 11.9413 14.4971 12.4336L14.6445 14.6523C15.0264 14.5496 15.3663 14.436 15.6592 14.3203C16.0867 14.1515 16.4143 13.9842 16.6289 13.8633C16.736 13.803 16.8145 13.754 16.8633 13.7227C16.8877 13.707 16.9049 13.6957 16.9141 13.6895C16.9154 13.6885 16.917 13.6882 16.918 13.6875V13.6865C17.367 13.3652 17.992 13.469 18.3135 13.918C18.6348 14.367 18.531 14.992 18.082 15.3135L17.5 14.5C18.0439 15.2598 18.079 15.31 18.0811 15.3135V15.3145L18.0752 15.3174C18.0726 15.3192 18.0699 15.3218 18.0664 15.3242L17.9434 15.4062C17.8643 15.4569 17.7527 15.5253 17.6104 15.6055C17.3258 15.7658 16.9162 15.9736 16.3945 16.1797C15.9401 16.3592 15.3982 16.5341 14.7793 16.6787L14.9346 19H21V5H13.1396C13.1074 5.07205 13.0705 5.14938 13.0342 5.2334ZM7 7C7.55228 7 8 7.44772 8 8V9C8 9.55228 7.55228 10 7 10C6.44772 10 6 9.55228 6 9V8C6 7.44772 6.44772 7 7 7ZM17 7C17.5523 7 18 7.44772 18 8V9C18 9.55228 17.5523 10 17 10C16.4477 10 16 9.55228 16 9V8C16 7.44772 16.4477 7 17 7Z" fill="#9E9E9E"/>
</g>
</svg>
