<svg width="24" height="24" viewBox="0 0 24 24" fill="none" xmlns="http://www.w3.org/2000/svg">
<g id="icons/Hardware/master">
<path id="Union" d="M18 1C19.1046 1 20 1.89544 20 3V19C20 21.2091 18.2091 23 16 23H8C5.79086 23 4 21.2091 4 19V3C4 1.89544 4.89541 1 6 1H18ZM8 17C6.89543 17 6 17.8954 6 19C6 20.1046 6.89543 21 8 21H16C17.1046 21 18 20.1046 18 19C18 17.8954 17.1046 17 16 17H8ZM16 18C16.5523 18 17 18.4477 17 19C17 19.5523 16.5523 20 16 20C15.4477 20 15 19.5523 15 19C15 18.4477 15.4477 18 16 18ZM6 15.5361C6.58845 15.1956 7.27125 15 8 15H16C16.7288 15 17.4116 15.1956 18 15.5361V3H6V15.5361ZM15.293 5.29297C15.6136 4.97238 16.1098 4.90726 16.502 5.13477C16.894 5.36228 17.0839 5.82536 16.9648 6.2627L15.4648 11.7627C15.3462 12.1978 14.951 12.5 14.5 12.5H9.5C9.04905 12.5 8.65381 12.1978 8.53516 11.7627L7.03516 6.2627C6.91608 5.82536 7.10599 5.36228 7.49805 5.13477C7.89021 4.90726 8.38644 4.97238 8.70703 5.29297L10 6.58594L11.293 5.29297L11.3691 5.22461C11.7619 4.90426 12.3409 4.92685 12.707 5.29297L14 6.58594L15.293 5.29297ZM10.707 8.70703C10.4736 8.94047 10.1538 9.03294 9.85059 8.9873L10.2637 10.5H13.7363L14.1484 8.9873C13.8455 9.0326 13.5262 8.94022 13.293 8.70703L12 7.41406L10.707 8.70703Z" fill="#9E9E9E"/>
</g>
</svg>
