<svg width="24" height="24" viewBox="0 0 24 24" fill="none" xmlns="http://www.w3.org/2000/svg">
<g id="icons/Hardware/memory-card">
<path id="Union" d="M20 3C21.1046 3 22 3.89544 22 5V19C22 20.1046 21.1046 21 20 21H4C2.89544 21 2 20.1046 2 19V9.55273C2.00001 9.15789 2.1169 8.77188 2.33594 8.44336L5.37109 3.89062L5.44336 3.78906C5.82005 3.29375 6.40822 3.00001 7.03516 3H20ZM4 9.55273V19H6.5V14C6.5 13.4477 6.94772 13 7.5 13H16.5C17.0523 13 17.5 13.4477 17.5 14V19H20V5H19V8C19 8.55228 18.5523 9 18 9C17.4477 9 17 8.55228 17 8V5H16V8C16 8.55228 15.5523 9 15 9C14.4477 9 14 8.55228 14 8V5H13V8C13 8.55228 12.5523 9 12 9C11.4477 9 11 8.55228 11 8V5H10V8C10 8.55228 9.55228 9 9 9C8.44772 9 8 8.55228 8 8V5H7.03516L4 9.55273ZM8.5 19H15.5V15H8.5V19Z" fill="#9E9E9E"/>
</g>
</svg>
