<svg width="24" height="24" viewBox="0 0 24 24" fill="none" xmlns="http://www.w3.org/2000/svg">
<g id="icons/Hardware/memory">
<path id="Union" d="M15.0938 1C15.6149 1.00007 16.1159 1.20369 16.4893 1.56738L20.3955 5.37207C20.782 5.74855 21 6.26522 21 6.80469V21C21 22.1046 20.1046 23 19 23H5C3.89544 23 3 22.1046 3 21V3C3 1.89543 3.89543 1 5 1H15.0938ZM5 17.5V21H8V17.5H5ZM10 21H14V11.5H10V21ZM16 21H19V19H16V21ZM16 17H19V15.5H16V17ZM5 15.5H8V11.5H5V15.5ZM16 13.5H19V11.5H16V13.5ZM5 9.5H19V6.80469L15.0938 3H5V9.5Z" fill="#9E9E9E"/>
</g>
</svg>
