<svg width="24" height="24" viewBox="0 0 24 24" fill="none" xmlns="http://www.w3.org/2000/svg">
<g id="icons/Hardware/memory-one">
<path id="Union" d="M21.5 13C22.0523 13 22.5 13.4477 22.5 14V21C22.5 21.5523 22.0523 22 21.5 22H2.5C1.94772 22 1.5 21.5523 1.5 21V14C1.5 13.4477 1.94772 13 2.5 13H21.5ZM3.5 20H20.5V15H3.5V20ZM6.5 16.5C7.05228 16.5 7.5 16.9477 7.5 17.5C7.5 18.0523 7.05228 18.5 6.5 18.5C5.94772 18.5 5.5 18.0523 5.5 17.5C5.5 16.9477 5.94772 16.5 6.5 16.5ZM10.5 16.5C11.0523 16.5 11.5 16.9477 11.5 17.5C11.5 18.0523 11.0523 18.5 10.5 18.5C9.94771 18.5 9.5 18.0523 9.5 17.5C9.5 16.9477 9.94771 16.5 10.5 16.5ZM17.5 16.5C18.0523 16.5 18.5 16.9477 18.5 17.5C18.5 18.0523 18.0523 18.5 17.5 18.5H15.5C14.9477 18.5 14.5 18.0523 14.5 17.5C14.5 16.9477 14.9477 16.5 15.5 16.5H17.5ZM21.5 2C22.0523 2 22.5 2.44772 22.5 3V10C22.5 10.5523 22.0523 11 21.5 11H2.5C1.94772 11 1.5 10.5523 1.5 10V3C1.5 2.44772 1.94772 2 2.5 2H21.5ZM3.5 9H20.5V4H3.5V9ZM6.5 5.5C7.05228 5.5 7.5 5.94772 7.5 6.5C7.5 7.05228 7.05228 7.5 6.5 7.5C5.94772 7.5 5.5 7.05228 5.5 6.5C5.5 5.94772 5.94772 5.5 6.5 5.5ZM10.5 5.5C11.0523 5.5 11.5 5.94772 11.5 6.5C11.5 7.05228 11.0523 7.5 10.5 7.5C9.94771 7.5 9.5 7.05228 9.5 6.5C9.5 5.94772 9.94771 5.5 10.5 5.5ZM17.5 5.5C18.0523 5.5 18.5 5.94772 18.5 6.5C18.5 7.05228 18.0523 7.5 17.5 7.5H15.5C14.9477 7.5 14.5 7.05228 14.5 6.5C14.5 5.94772 14.9477 5.5 15.5 5.5H17.5Z" fill="#9E9E9E"/>
</g>
</svg>
