<svg width="24" height="24" viewBox="0 0 24 24" fill="none" xmlns="http://www.w3.org/2000/svg">
<g id="icons/Hardware/memory-card-one">
<path id="Union" d="M15.168 2C15.831 2 16.4667 2.26364 16.9355 2.73242L18.8652 4.66113L21.2676 7.06445C21.7363 7.53326 22 8.16897 22 8.83203V19.5C22 20.8807 20.8807 22 19.5 22H4.5C3.1193 22 2 20.8807 2 19.5V4.5C2 3.11929 3.11929 2 4.5 2H15.168ZM4.5 4C4.22386 4 4 4.22386 4 4.5V19.5C4 19.7762 4.22385 20 4.5 20H6V14.5C6 13.1193 7.11927 12 8.5 12H15.5C16.8807 12 18 13.1193 18 14.5V20H19.5C19.7762 20 20 19.7762 20 19.5V8.83203C20 8.69948 19.9472 8.5723 19.8535 8.47852L17.4512 6.0752L15.5215 4.14648C15.4277 4.05276 15.3006 4 15.168 4H8V6.5C8 6.77617 8.22383 7 8.5 7H14.5C15.0523 7 15.5 7.44772 15.5 8C15.5 8.55228 15.0523 9 14.5 9H8.5C7.11927 9 6 7.88073 6 6.5V4H4.5ZM8.5 14C8.22383 14 8 14.2238 8 14.5V20H16V14.5C16 14.2238 15.7762 14 15.5 14H8.5Z" fill="#9E9E9E"/>
</g>
</svg>
