<svg width="24" height="24" viewBox="0 0 24 24" fill="none" xmlns="http://www.w3.org/2000/svg">
<g id="icons/Hardware/microphone">
<path id="Union" d="M19 9.5C19.5523 9.5 20 9.94771 20 10.5V12C20 16.0795 16.9462 19.4433 13 19.9355V21H16C16.5523 21 17 21.4477 17 22C17 22.5523 16.5523 23 16 23H8C7.44772 23 7 22.5523 7 22C7 21.4477 7.44772 21 8 21H11V19.9355C7.05384 19.4433 4 16.0795 4 12V10.5C4 9.94771 4.44772 9.5 5 9.5C5.55228 9.5 6 9.94771 6 10.5V12C6 15.3137 8.68629 18 12 18C15.3137 18 18 15.3137 18 12V10.5C18 9.94771 18.4477 9.5 19 9.5ZM12 1C14.7614 1 17 3.23858 17 6V12C17 14.7614 14.7614 17 12 17C9.23858 17 7 14.7614 7 12V6C7 3.23858 9.23858 1 12 1ZM13 5.5C13 6.05228 12.5523 6.5 12 6.5C11.4477 6.5 11 6.05228 11 5.5V3.17383C9.83532 3.58594 9 4.69415 9 6V7H10.5C11.0523 7 11.5 7.44772 11.5 8C11.5 8.55228 11.0523 9 10.5 9H9V10H10.5C11.0523 10 11.5 10.4477 11.5 11C11.5 11.5523 11.0523 12 10.5 12H9C9 13.6569 10.3431 15 12 15C13.6569 15 15 13.6569 15 12H13.5C12.9477 12 12.5 11.5523 12.5 11C12.5 10.4477 12.9477 10 13.5 10H15V9H13.5C12.9477 9 12.5 8.55228 12.5 8C12.5 7.44772 12.9477 7 13.5 7H15V6C15 4.69415 14.1647 3.58594 13 3.17383V5.5Z" fill="#9E9E9E"/>
</g>
</svg>
