<svg width="24" height="24" viewBox="0 0 24 24" fill="none" xmlns="http://www.w3.org/2000/svg">
<g id="icons/Hardware/micro-sd">
<path id="Union" d="M18.5 1.5C19.6046 1.5 20.5 2.39544 20.5 3.5V20.5C20.5 21.6046 19.6046 22.5 18.5 22.5H5C3.89544 22.5 3 21.6046 3 20.5V18C3 17.6962 3.13778 17.4085 3.375 17.2188L5.5 15.5186V15H4C3.44772 15 3 14.5523 3 14V12.5C3 12.2661 3.08168 12.0391 3.23145 11.8594L5.5 9.13672V3.5C5.5 2.39544 6.39541 1.5 7.5 1.5H18.5ZM7.5 9.5C7.5 9.73394 7.41832 9.96091 7.26855 10.1406L5 12.8623V13H6.5C7.05228 13 7.5 13.4477 7.5 14V16C7.5 16.3038 7.36222 16.5915 7.125 16.7812L5 18.4805V20.5H18.5V3.5H7.5V9.5ZM10 4.5C10.5523 4.5 11 4.94772 11 5.5V7.5C11 8.05228 10.5523 8.5 10 8.5C9.44772 8.5 9 8.05228 9 7.5V5.5C9 4.94772 9.44772 4.5 10 4.5ZM13 4.5C13.5523 4.5 14 4.94772 14 5.5V7.5C14 8.05228 13.5523 8.5 13 8.5C12.4477 8.5 12 8.05228 12 7.5V5.5C12 4.94772 12.4477 4.5 13 4.5ZM16 4.5C16.5523 4.5 17 4.94772 17 5.5V7.5C17 8.05228 16.5523 8.5 16 8.5C15.4477 8.5 15 8.05228 15 7.5V5.5C15 4.94772 15.4477 4.5 16 4.5Z" fill="#9E9E9E"/>
</g>
</svg>
