<svg width="24" height="24" viewBox="0 0 24 24" fill="none" xmlns="http://www.w3.org/2000/svg">
<g id="icons/Hardware/microphone-one">
<path id="Union" d="M7.5 1C9.07611 1 10.5212 1.56098 11.6465 2.49414L12.0205 2.12109C12.411 1.73058 13.044 1.7306 13.4346 2.12109C13.8251 2.51162 13.8251 3.14463 13.4346 3.53516L12.9727 3.99609C13.5231 4.85402 13.8778 5.84859 13.9727 6.91895L14.001 6.96289L17.877 13.0537C18.4998 14.0324 18.5782 15.2234 18.1611 16.2471L21.707 19.793C21.993 20.079 22.0786 20.5091 21.9238 20.8828C21.769 21.2564 21.4044 21.5 21 21.5H16.5C15.9477 21.5 15.5 21.0523 15.5 20.5C15.5 19.9477 15.9477 19.5 16.5 19.5H18.5859L16.8975 17.8115C15.7612 18.5883 14.2492 18.6377 13.0537 17.877L6.96289 14.001L6.91895 13.9727C5.84859 13.8778 4.85402 13.5231 3.99609 12.9727L3.53516 13.4346C3.14463 13.8251 2.51162 13.8251 2.12109 13.4346C1.73062 13.044 1.73059 12.411 2.12109 12.0205L2.49414 11.6465C1.56098 10.5212 1 9.07611 1 7.5C1 3.91015 3.91015 1 7.5 1ZM13.5059 9.98535C12.8469 11.5758 11.5758 12.8469 9.98535 13.5059C9.97077 13.5122 9.9569 13.5201 9.94238 13.5264L14.1279 16.1895C14.7184 16.565 15.4905 16.4802 15.9854 15.9854C16.4802 15.4905 16.565 14.7184 16.1895 14.1279L13.5264 9.94238C13.5201 9.9569 13.5122 9.97077 13.5059 9.98535ZM5.45898 11.5098C6.07177 11.8223 6.76493 12 7.5 12C8.11628 12 8.70341 11.8756 9.23828 11.6514C9.73484 11.4277 10.2467 11.1166 10.6816 10.6816C11.1165 10.2467 11.4277 9.73484 11.6514 9.23828C11.8756 8.70341 12 8.11628 12 7.5C12 6.76493 11.8223 6.07177 11.5098 5.45898L5.45898 11.5098ZM7.5 3C5.01472 3 3 5.01472 3 7.5C3 8.5235 3.34243 9.46662 3.91797 10.2227L10.2227 3.91797C9.46662 3.34243 8.5235 3 7.5 3Z" fill="#9E9E9E"/>
</g>
</svg>
