<svg width="24" height="24" viewBox="0 0 24 24" fill="none" xmlns="http://www.w3.org/2000/svg">
<g id="icons/Hardware/microscope-one">
<path id="Union" d="M14.2579 1.65234C15.3318 0.578419 17.0726 0.578559 18.1466 1.65234H18.1476C19.221 2.72633 19.2203 4.46725 18.1466 5.54102L17.2628 6.4248C17.2191 6.46854 17.1713 6.5061 17.1222 6.54004C17.0958 7.4009 16.7754 8.25471 16.1593 8.93652L16.0265 9.07617L15.7872 9.31543C15.9304 9.54732 16.0417 9.79306 16.1212 10.0469C18.5371 10.4102 20.5001 12.863 20.5001 16C20.5 18.2316 19.4226 19.8454 18.2736 21H21.0001C21.5524 21 22.0001 21.4477 22.0001 22C22 22.5521 21.5523 23 21.0001 23H5.00012C4.44793 23 4.00027 22.5522 4.00012 22C4.00012 21.4477 4.44784 21 5.00012 21H15.1632C16.657 19.8668 18.5 18.4646 18.5001 16C18.5001 13.7812 17.2663 12.4346 16.0909 12.0889C15.935 12.5381 15.6773 12.9596 15.3185 13.3184C14.2318 14.405 12.5685 14.5601 11.3156 13.7861L9.75793 15.3438L10.0714 15.6572C10.4615 16.0478 10.4618 16.6809 10.0714 17.0713C9.68104 17.4616 9.04788 17.4613 8.65735 17.0713L7.63684 16.0508L6.30286 17.3857C6.11539 17.573 5.86079 17.6787 5.59583 17.6787C5.33084 17.6786 5.07624 17.573 4.88879 17.3857L2.41418 14.9102C2.22678 14.7227 2.12129 14.4682 2.12122 14.2031C2.12127 13.938 2.22675 13.6836 2.41418 13.4961L3.74719 12.1611L2.29309 10.707C1.9026 10.3165 1.90267 9.6835 2.29309 9.29297C2.68362 8.90244 3.31663 8.90244 3.70715 9.29297L4.4552 10.041L10.7228 3.77344C11.4251 3.07112 12.3367 2.70545 13.257 2.67676C13.2914 2.6267 13.3306 2.57969 13.3741 2.53613L14.2579 1.65234ZM4.53528 14.2031L5.59583 15.2637L6.22278 14.6367L5.16223 13.5762L4.53528 14.2031ZM14.6017 5.17773C13.9175 4.50443 12.8179 4.50761 12.1378 5.1875L5.95032 11.375L8.42493 13.8496L9.92786 12.3467L10.0148 12.2578C9.53105 11.0812 9.76704 9.67843 10.7228 8.72266C11.6788 7.76667 13.0821 7.5305 14.2589 8.01465L14.6124 7.66211C15.2925 6.98187 15.295 5.88135 14.6212 5.19727L14.6017 5.17773ZM13.9044 10.1367C13.4163 9.64868 12.625 9.6486 12.1368 10.1367C11.6488 10.6248 11.6488 11.4161 12.1368 11.9043C12.625 12.3924 13.4163 12.3924 13.9044 11.9043C14.3926 11.4161 14.3926 10.6249 13.9044 10.1367ZM16.7325 3.06641C16.4396 2.77363 15.9648 2.77359 15.672 3.06641L15.4952 3.24316L16.006 3.75391C16.0126 3.76047 16.0199 3.76682 16.0265 3.77344C16.0338 3.78077 16.0407 3.78852 16.048 3.7959L16.5558 4.30371L16.7325 4.12695C17.0254 3.83412 17.0253 3.35932 16.7325 3.06641Z" fill="#9E9E9E"/>
</g>
</svg>
