<svg width="24" height="24" viewBox="0 0 24 24" fill="none" xmlns="http://www.w3.org/2000/svg">
<g id="icons/Hardware/micro-slr-camera">
<path id="Union" d="M8.5 3.5C9.05229 3.5 9.5 3.94772 9.5 4.5V6H11.125C12.2738 5.36289 13.5958 5 15 5C16.4042 5 17.7262 5.36289 18.875 6H21C21.5523 6 22 6.44772 22 7V9.12402C22.6374 10.273 23 11.5955 23 13C23 14.4042 22.6371 15.7262 22 16.875V19C22 19.5523 21.5523 20 21 20H18.875C17.7262 20.6371 16.4042 21 15 21C13.5958 21 12.2738 20.6371 11.125 20H2C1.44772 20 1 19.5523 1 19V7C1 6.44772 1.44772 6 2 6H3V4.5C3 3.94772 3.44772 3.5 4 3.5H8.5ZM5 6H7.5V5.5H5V6Z" fill="#9E9E9E"/>
</g>
</svg>
