<svg width="24" height="24" viewBox="0 0 24 24" fill="none" xmlns="http://www.w3.org/2000/svg">
<g id="icons/Hardware/microwaves">
<path id="Union" d="M20.5 4C21.6046 4 22.5 4.89543 22.5 6V16C22.5 17.1046 21.6046 18 20.5 18H19V19C19 19.5523 18.5523 20 18 20C17.4477 20 17 19.5523 17 19V18H15V19C15 19.5523 14.5523 20 14 20C13.4477 20 13 19.5523 13 19V18H11V19C11 19.5523 10.5523 20 10 20C9.44772 20 9 19.5523 9 19V18H7V19C7 19.5523 6.55228 20 6 20C5.44772 20 5 19.5523 5 19V18H3.5C2.39543 18 1.5 17.1046 1.5 16V6C1.5 4.89543 2.39543 4 3.5 4H20.5ZM3.5 16H20.5V6H3.5V16ZM17.5 11.5C18.0523 11.5 18.5 11.9477 18.5 12.5C18.5 13.0523 18.0523 13.5 17.5 13.5H6.5C5.94772 13.5 5.5 13.0523 5.5 12.5C5.5 11.9477 5.94772 11.5 6.5 11.5H17.5ZM6.5 8.5C7.0523 8.5 7.5 8.9477 7.5 9.5C7.5 10.0523 7.0523 10.5 6.5 10.5C5.9477 10.5 5.5 10.0523 5.5 9.5C5.5 8.9477 5.9477 8.5 6.5 8.5ZM12 8.5C12.5523 8.5 13 8.94772 13 9.5C13 10.0523 12.5523 10.5 12 10.5H10C9.44772 10.5 9 10.0523 9 9.5C9 8.94772 9.44772 8.5 10 8.5H12Z" fill="#9E9E9E"/>
</g>
</svg>
