<svg width="24" height="24" viewBox="0 0 24 24" fill="none" xmlns="http://www.w3.org/2000/svg">
<g id="icons/Hardware/microwave-oven">
<path id="Union" d="M21 2C22.1046 2 23 2.89543 23 4V17C23 18.1046 22.1046 19 21 19H19V21C19 21.5523 18.5523 22 18 22C17.4477 22 17 21.5523 17 21V19H7V21C7 21.5523 6.55228 22 6 22C5.44772 22 5 21.5523 5 21V19H3C1.89543 19 1 18.1046 1 17V4C1 2.89543 1.89543 2 3 2H21ZM3 17H21V4H3V17ZM13.5 6.5C14.0523 6.5 14.5 6.94772 14.5 7.5V13.5C14.5 14.0523 14.0523 14.5 13.5 14.5H5C4.44772 14.5 4 14.0523 4 13.5V7.5C4 6.94772 4.44772 6.5 5 6.5H13.5ZM18 12.5C18.5523 12.5 19 12.9477 19 13.5C19 14.0523 18.5523 14.5 18 14.5C17.4477 14.5 17 14.0523 17 13.5C17 12.9477 17.4477 12.5 18 12.5ZM6 12.5H12.5V8.5H6V12.5ZM19 9.5C19.5523 9.5 20 9.94772 20 10.5C20 11.0523 19.5523 11.5 19 11.5H17C16.4477 11.5 16 11.0523 16 10.5C16 9.94772 16.4477 9.5 17 9.5H19ZM19 6.5C19.5523 6.5 20 6.94772 20 7.5C20 8.05228 19.5523 8.5 19 8.5H17C16.4478 8.49993 16 8.05224 16 7.5C16 6.94776 16.4478 6.50007 17 6.5H19Z" fill="#9E9E9E"/>
</g>
</svg>
