<svg width="24" height="24" viewBox="0 0 24 24" fill="none" xmlns="http://www.w3.org/2000/svg">
<g id="icons/Hardware/mini-sd-card">
<path id="Union" d="M20 1C20.5523 1 21 1.44772 21 2V22C21 22.5523 20.5523 23 20 23H4C3.44772 23 3 22.5523 3 22V10.9609C3.00017 10.5911 3.20459 10.2515 3.53125 10.0781L5.99902 8.76758V2C5.99902 1.44772 6.44674 1 6.99902 1H20ZM7.99902 9.36914C7.99902 9.73914 7.79457 10.0794 7.46777 10.2529L5 11.5625V21H19V3H7.99902V9.36914ZM10.5 5C11.0523 5 11.5 5.44772 11.5 6V9C11.5 9.55229 11.0523 10 10.5 10C9.94772 10 9.5 9.55229 9.5 9V6C9.5 5.44772 9.94772 5 10.5 5ZM13.5 5C14.0523 5 14.5 5.44772 14.5 6V9C14.5 9.55229 14.0523 10 13.5 10C12.9477 10 12.5 9.55229 12.5 9V6C12.5 5.44772 12.9477 5 13.5 5ZM16.5 5C17.0523 5 17.5 5.44772 17.5 6V9C17.5 9.55229 17.0523 10 16.5 10C15.9477 10 15.5 9.55229 15.5 9V6C15.5 5.44772 15.9477 5 16.5 5Z" fill="#9E9E9E"/>
</g>
</svg>
