<svg width="24" height="24" viewBox="0 0 24 24" fill="none" xmlns="http://www.w3.org/2000/svg">
<g id="icons/Hardware/monitor-camera">
<path id="Union" d="M12 1C16.6944 1 20.5 4.80557 20.5 9.5C20.5 12.9661 18.4245 15.9456 15.4492 17.2686L16.7168 21H18C18.5523 21 19 21.4477 19 22C19 22.5523 18.5523 23 18 23H6C5.44772 23 5 22.5523 5 22C5 21.4477 5.44772 21 6 21H7.28223L8.53906 17.2637C5.57003 15.9381 3.5 12.9616 3.5 9.5C3.5 4.80557 7.30557 1 12 1ZM9.3916 21H14.6035L13.585 18H10.4023L9.3916 21ZM12 3C8.41013 3 5.5 5.91013 5.5 9.5C5.5 13.0899 8.41013 16 12 16C15.5899 16 18.5 13.0899 18.5 9.5C18.5 5.91013 15.5899 3 12 3ZM12 5.5C14.2091 5.5 16 7.29087 16 9.5C16 11.7091 14.2091 13.5 12 13.5C9.79087 13.5 8 11.7091 8 9.5C8 7.29087 9.79087 5.5 12 5.5ZM12 7.5C10.8954 7.5 10 8.39543 10 9.5C10 10.6046 10.8954 11.5 12 11.5C13.1046 11.5 14 10.6046 14 9.5C14 8.39543 13.1046 7.5 12 7.5Z" fill="#9E9E9E"/>
</g>
</svg>
