<svg width="24" height="24" viewBox="0 0 24 24" fill="none" xmlns="http://www.w3.org/2000/svg">
<g id="icons/Hardware/monitor-one">
<path id="Union" d="M20.5 2C21.6046 2 22.5 2.89544 22.5 4V16C22.5 17.1046 21.6046 18 20.5 18H16.9434L17.9365 20.6484C18.0516 20.9554 18.0089 21.2998 17.8223 21.5693C17.6355 21.8389 17.328 22 17 22H7C6.67202 22 6.36455 21.8389 6.17773 21.5693C5.99112 21.2998 5.94836 20.9554 6.06348 20.6484L7.05664 18H3.5C2.39544 18 1.5 17.1046 1.5 16V4C1.5 2.89543 2.39543 2 3.5 2H20.5ZM9.19336 18L8.44336 20H15.5566L14.8066 18H9.19336ZM3.5 16H20.5V13H3.5V16ZM12 13.5C12.5523 13.5 13 13.9477 13 14.5C13 15.0523 12.5523 15.5 12 15.5C11.4477 15.5 11 15.0523 11 14.5C11 13.9477 11.4477 13.5 12 13.5ZM3.5 11H20.5V4H3.5V11ZM13.2002 6.40039C13.5315 5.95861 14.1578 5.86896 14.5996 6.2002C15.0414 6.53153 15.131 7.15779 14.7998 7.59961L13.2998 9.59961C12.9685 10.0414 12.3422 10.131 11.9004 9.7998C11.4586 9.46847 11.369 8.84221 11.7002 8.40039L13.2002 6.40039ZM10.2188 5.375C10.5638 4.94374 11.1937 4.87374 11.625 5.21875C12.0563 5.56376 12.1263 6.19374 11.7812 6.625L9.78125 9.125C9.43624 9.55626 8.80626 9.62626 8.375 9.28125C7.94374 8.93624 7.87374 8.30626 8.21875 7.875L10.2188 5.375Z" fill="#9E9E9E"/>
</g>
</svg>
