<svg width="24" height="24" viewBox="0 0 24 24" fill="none" xmlns="http://www.w3.org/2000/svg">
<g id="icons/Hardware/mouse-one">
<path id="Union" d="M15.5 1C17.3236 1 18.6261 1.78166 19.4385 2.91895C20.2179 4.01009 20.5 5.35719 20.5 6.5C20.5 7.05228 20.0523 7.5 19.5 7.5C18.9477 7.5 18.5 7.05228 18.5 6.5C18.5 5.64281 18.2821 4.73991 17.8115 4.08105C17.3739 3.46834 16.6764 3 15.5 3C14.4018 3 13.853 3.37949 13.5352 3.82812C13.305 4.15298 13.1509 4.57989 13.0693 5.08105C13.1842 5.09867 13.2981 5.11945 13.4111 5.14258C16.6007 5.79547 19 8.61741 19 12V16C19 19.866 15.866 23 12 23C8.13401 23 5 19.866 5 16V12C5 8.49659 7.57376 5.59464 10.9336 5.08105C10.9735 5.07496 11.0136 5.07085 11.0537 5.06543C11.1506 4.23632 11.3946 3.38872 11.9023 2.67188C12.647 1.62055 13.8483 1 15.5 1ZM7 16C7 18.7614 9.23858 21 12 21C14.7614 21 17 18.7614 17 16V13.5H7V16ZM13 11.5H16.9756C16.9684 11.4275 16.9585 11.3557 16.9482 11.2842C16.6519 9.21768 15.0927 7.5598 13.0771 7.11719C13.0514 7.11154 13.0259 7.10486 13 7.09961V11.5ZM10.9219 7.11719C8.90678 7.56011 7.34801 9.21799 7.05176 11.2842C7.0415 11.3557 7.03161 11.4275 7.02441 11.5H11V7.09961C10.9738 7.10492 10.9479 7.11146 10.9219 7.11719Z" fill="#9E9E9E"/>
</g>
</svg>
