<svg width="24" height="24" viewBox="0 0 24 24" fill="none" xmlns="http://www.w3.org/2000/svg">
<g id="icons/Hardware/multi-function-knife">
<path id="Union" d="M12.0002 1C13.8434 1.0001 15.3941 2.24718 15.8577 3.94336L22.1575 10.2422C23.3288 11.4137 23.3288 13.3138 22.1575 14.4854C20.9859 15.6569 19.0859 15.6568 17.9143 14.4854L16.0002 12.5713V19C16.0002 21.2091 14.2093 22.9999 12.0002 23C10.0754 23 8.46797 21.6404 8.08618 19.8291L1.87915 13.6211C0.707584 12.4495 0.707584 10.5505 1.87915 9.37891C3.05073 8.20745 4.94981 8.20736 6.12134 9.37891L8.00024 11.2578V5C8.00024 2.79086 9.79111 1 12.0002 1ZM12.0002 3C10.8957 3 10.0002 3.89543 10.0002 5V13.4492C10.0226 13.5327 10.0354 13.6191 10.0354 13.707V19.3643C10.0354 19.3656 10.0344 19.3669 10.0344 19.3682C10.2073 20.2968 11.0215 21 12.0002 21C13.1047 20.9999 14.0002 20.1045 14.0002 19V5C14.0002 3.89551 13.1047 3.00013 12.0002 3ZM12.0002 17.5C12.5524 17.5001 13.0002 17.9478 13.0002 18.5V19C13.0002 19.5522 12.5524 19.9999 12.0002 20C11.448 20 11.0002 19.5523 11.0002 19V18.5C11.0002 17.9477 11.448 17.5 12.0002 17.5ZM4.70728 10.793C4.31681 10.4025 3.68375 10.4026 3.29321 10.793C2.90269 11.1835 2.90269 11.8165 3.29321 12.207L8.00024 16.9141V14.0859L4.70728 10.793ZM16.0002 9.74316L19.3284 13.0713C19.7188 13.4616 20.3519 13.4614 20.7424 13.0713C21.1328 12.6809 21.1328 12.0477 20.7424 11.6572L16.0002 6.91406V9.74316ZM12.0002 4C12.5524 4.00013 13.0002 4.44779 13.0002 5V5.5C13.0002 6.05221 12.5524 6.49987 12.0002 6.5C11.448 6.5 11.0002 6.05228 11.0002 5.5V5C11.0002 4.44772 11.448 4 12.0002 4Z" fill="#9E9E9E"/>
</g>
</svg>
