<svg width="24" height="24" viewBox="0 0 24 24" fill="none" xmlns="http://www.w3.org/2000/svg">
<g id="icons/Hardware/network-drive">
<path id="Union" d="M17.0004 16.5C17.5525 16.5002 18.0004 16.9478 18.0004 17.5V20.5C18.0001 21.0519 17.5523 21.4998 17.0004 21.5H7.00037C6.44824 21.5 6.00063 21.0521 6.00037 20.5V17.5C6.00037 16.9477 6.44808 16.5 7.00037 16.5H17.0004ZM8.00037 19.5H16.0004V18.5H8.00037V19.5ZM1.80798 8C3.41047 4.92632 6.74229 3.1582 10.1859 3.55469C13.3673 3.92113 16.0344 6.06546 17.1019 9.03711H17.5258C19.8553 9.0355 22.1823 10.2671 22.9525 12.6982C23.6908 15.0291 22.8334 17.5692 20.8334 18.9756C20.3818 19.2927 19.7584 19.1847 19.4408 18.7334C19.1233 18.2818 19.2317 17.6577 19.683 17.3398C20.9693 16.4353 21.5211 14.8009 21.0463 13.3018C20.603 11.9031 19.2147 11.0358 17.5267 11.0371H16.3656C15.9094 11.0369 15.5105 10.7279 15.3969 10.2861C14.7412 7.73093 12.578 5.84401 9.9574 5.54199C7.33673 5.24029 4.80088 6.58563 3.58142 8.9248C2.36229 11.2641 2.71116 14.1133 4.45935 16.0889C4.82525 16.5025 4.786 17.135 4.37244 17.501C3.95885 17.8661 3.32705 17.8273 2.9613 17.4141C0.66424 14.8181 0.205931 11.0739 1.80798 8ZM8.00037 13C8.55249 13.0002 9.00037 13.4478 9.00037 14C9.0001 14.5519 8.55233 14.9998 8.00037 15H7.00037C6.44824 15 6.00063 14.5521 6.00037 14C6.00037 13.4477 6.44808 13 7.00037 13H8.00037ZM17.0004 13C17.5525 13.0002 18.0004 13.4478 18.0004 14C18.0001 14.5519 17.5523 14.9998 17.0004 15H11.0004C10.4482 15 10.0006 14.5521 10.0004 14C10.0004 13.4477 10.4481 13 11.0004 13H17.0004Z" fill="#9E9E9E"/>
</g>
</svg>
