<svg width="24" height="24" viewBox="0 0 24 24" fill="none" xmlns="http://www.w3.org/2000/svg">
<g id="icons/Hardware/new-computer">
<path id="Union" d="M19.5 2C20.8807 2 22 3.11929 22 4.5V15.5C22 16.8807 20.8807 18 19.5 18H13V20H17C17.5523 20 18 20.4477 18 21C18 21.5523 17.5523 22 17 22H7C6.44772 22 6 21.5523 6 21C6 20.4477 6.44772 20 7 20H11V18H4.5C3.11929 18 2 16.8807 2 15.5V4.5C2 3.11929 3.11929 2 4.5 2H19.5ZM4.5 4C4.22386 4 4 4.22386 4 4.5V15.5C4 15.7761 4.22386 16 4.5 16H19.5C19.7761 16 20 15.7761 20 15.5V4.5C20 4.22386 19.7761 4 19.5 4H4.5Z" fill="#9E9E9E"/>
</g>
</svg>
