<svg width="24" height="24" viewBox="0 0 24 24" fill="none" xmlns="http://www.w3.org/2000/svg">
<g id="icons/Hardware/nine-key">
<path id="Union" d="M19.5 2C20.8807 2 22 3.11929 22 4.5V19.5C22 20.8807 20.8807 22 19.5 22H4.5C3.11929 22 2 20.8807 2 19.5V4.5C2 3.11929 3.11929 2 4.5 2H19.5ZM4.5 4C4.22386 4 4 4.22386 4 4.5V19.5C4 19.7761 4.22386 20 4.5 20H19.5C19.7761 20 20 19.7761 20 19.5V4.5C20 4.22386 19.7761 4 19.5 4H4.5ZM12.25 6C14.3211 6 16 7.67892 16 9.75C16 9.80466 15.9974 9.85899 15.9951 9.91309C15.9976 9.94176 16 9.97068 16 10V13.5C16 15.6254 14.4012 17.5 12.25 17.5C10.2488 17.5 9.07702 16.2257 8.56348 14.8496C8.37041 14.3322 8.63304 13.7566 9.15039 13.5635C9.66778 13.3704 10.2434 13.633 10.4365 14.1504C10.7414 14.9674 11.2989 15.5 12.25 15.5C13.1364 15.5 14 14.6883 14 13.5V13.0664C13.4775 13.3427 12.8822 13.5 12.25 13.5C10.1789 13.5 8.5 11.8211 8.5 9.75C8.5 7.67892 10.1789 6 12.25 6ZM12.25 8C11.2835 8 10.5 8.78348 10.5 9.75C10.5 10.7165 11.2835 11.5 12.25 11.5C13.2165 11.5 14 10.7165 14 9.75C14 8.78348 13.2165 8 12.25 8Z" fill="#9E9E9E"/>
</g>
</svg>
