<svg width="24" height="24" viewBox="0 0 24 24" fill="none" xmlns="http://www.w3.org/2000/svg">
<g id="icons/Hardware/one-key">
<path id="Union" d="M19.5 2C20.8807 2 22 3.11929 22 4.5V19.5C22 20.8807 20.8807 22 19.5 22H4.5C3.11929 22 2 20.8807 2 19.5V4.5C2 3.11929 3.11929 2 4.5 2H19.5ZM4.5 4C4.22386 4 4 4.22386 4 4.5V19.5C4 19.7761 4.22386 20 4.5 20H19.5C19.7761 20 20 19.7761 20 19.5V4.5C20 4.22386 19.7761 4 19.5 4H4.5ZM12.2783 5.81641C12.5608 5.52152 12.9941 5.42786 13.373 5.58008C13.7519 5.73232 14 6.09947 14 6.50781V17C13.9997 17.5521 13.5521 18 13 18C12.448 17.9998 12.0003 17.552 12 17V8.99707L11.335 9.69141C10.9529 10.0899 10.3206 10.1034 9.92188 9.72168C9.52306 9.33962 9.50955 8.70643 9.8916 8.30762L12.2783 5.81641Z" fill="#9E9E9E"/>
</g>
</svg>
