<svg width="24" height="24" viewBox="0 0 24 24" fill="none" xmlns="http://www.w3.org/2000/svg">
<g id="icons/Hardware/pad">
<path id="Union" d="M21 1C21.5523 1 22 1.44772 22 2V22C22 22.5523 21.5523 23 21 23H3C2.44772 23 2 22.5523 2 22V2C2 1.44772 2.44772 1 3 1H21ZM4 21H20V16.5H4V21ZM12 17.5C12.6903 17.5 13.25 18.0597 13.25 18.75C13.25 19.4403 12.6903 20 12 20C11.3097 20 10.75 19.4403 10.75 18.75C10.75 18.0597 11.3097 17.5 12 17.5ZM4 14.5H20V3H4V14.5ZM8 8C8.27615 8 8.5 8.22385 8.5 8.5V10C8.5 10.2761 8.27615 10.5 8 10.5H6.5C6.22385 10.5 6 10.2761 6 10V8.5C6 8.22385 6.22385 8 6.5 8H8ZM12.75 8C13.0261 8 13.25 8.22385 13.25 8.5V10C13.25 10.2761 13.0261 10.5 12.75 10.5H11.25C10.9739 10.5 10.75 10.2761 10.75 10V8.5C10.75 8.22385 10.9739 8 11.25 8H12.75ZM8 4.5C8.27615 4.5 8.5 4.72386 8.5 5V6.5C8.5 6.77615 8.27615 7 8 7H6.5C6.22385 7 6 6.77615 6 6.5V5C6 4.72386 6.22385 4.5 6.5 4.5H8ZM12.75 4.5C13.0261 4.5 13.25 4.72386 13.25 5V6.5C13.25 6.77615 13.0261 7 12.75 7H11.25C10.9739 7 10.75 6.77615 10.75 6.5V5C10.75 4.72386 10.9739 4.5 11.25 4.5H12.75ZM17.5 4.5C17.7761 4.5 18 4.72386 18 5V6.5C18 6.77615 17.7761 7 17.5 7H16C15.7239 7 15.5 6.77615 15.5 6.5V5C15.5 4.72386 15.7239 4.5 16 4.5H17.5Z" fill="#9E9E9E"/>
</g>
</svg>
