<svg width="24" height="24" viewBox="0 0 24 24" fill="none" xmlns="http://www.w3.org/2000/svg">
<g id="icons/Hardware/painted-screen">
<path id="Union" d="M20 4C21.3807 4 22.5 5.11929 22.5 6.5V17.5C22.5 18.8807 21.3807 20 20 20H4C2.61929 20 1.5 18.8807 1.5 17.5V6.5C1.5 5.11929 2.61929 4 4 4H20ZM4 6C3.72386 6 3.5 6.22386 3.5 6.5V17.5C3.5 17.7761 3.72386 18 4 18H20C20.2761 18 20.5 17.7761 20.5 17.5V6.5C20.5 6.22386 20.2761 6 20 6H4ZM6.5 14.5C7.05228 14.5 7.5 14.9477 7.5 15.5C7.5 16.0523 7.05228 16.5 6.5 16.5C5.94772 16.5 5.5 16.0523 5.5 15.5C5.5 14.9477 5.94772 14.5 6.5 14.5ZM6.5 7.5C7.05228 7.5 7.5 7.94772 7.5 8.5V12C7.5 12.5523 7.05228 13 6.5 13C5.94772 13 5.5 12.5523 5.5 12V8.5C5.5 7.94772 5.94772 7.5 6.5 7.5Z" fill="#9E9E9E"/>
</g>
</svg>
