<svg width="24" height="24" viewBox="0 0 24 24" fill="none" xmlns="http://www.w3.org/2000/svg">
<g id="icons/Hardware/phone-one">
<path id="Union" d="M20 1.5C21.3807 1.5 22.5 2.61929 22.5 4V20C22.5 21.3807 21.3807 22.5 20 22.5H4C2.61929 22.5 1.5 21.3807 1.5 20V4C1.5 2.61929 2.61929 1.5 4 1.5H20ZM4 3.5C3.72386 3.5 3.5 3.72386 3.5 4V20C3.5 20.2761 3.72386 20.5 4 20.5H20C20.2761 20.5 20.5 20.2761 20.5 20V4C20.5 3.72386 20.2761 3.5 20 3.5H4ZM9.5 5C10.0523 5 10.5 5.44772 10.5 6V18C10.5 18.5523 10.0523 19 9.5 19H5.5C4.94772 19 4.5 18.5523 4.5 18V6C4.5 5.44772 4.94772 5 5.5 5H9.5ZM12.5 17C13.0523 17 13.5 17.4477 13.5 18C13.5 18.5523 13.0523 19 12.5 19C11.9477 19 11.5 18.5523 11.5 18C11.5 17.4477 11.9477 17 12.5 17ZM15.5 17C16.0523 17 16.5 17.4477 16.5 18C16.5 18.5523 16.0523 19 15.5 19C14.9477 19 14.5 18.5523 14.5 18C14.5 17.4477 14.9477 17 15.5 17ZM18.5 17C19.0523 17 19.5 17.4477 19.5 18C19.5 18.5523 19.0523 19 18.5 19C17.9477 19 17.5 18.5523 17.5 18C17.5 17.4477 17.9477 17 18.5 17ZM6.5 17H8.5V7H6.5V17ZM12.5 14C13.0523 14 13.5 14.4477 13.5 15C13.5 15.5523 13.0523 16 12.5 16C11.9477 16 11.5 15.5523 11.5 15C11.5 14.4477 11.9477 14 12.5 14ZM15.5 14C16.0523 14 16.5 14.4477 16.5 15C16.5 15.5523 16.0523 16 15.5 16C14.9477 16 14.5 15.5523 14.5 15C14.5 14.4477 14.9477 14 15.5 14ZM18.5 14C19.0523 14 19.5 14.4477 19.5 15C19.5 15.5523 19.0523 16 18.5 16C17.9477 16 17.5 15.5523 17.5 15C17.5 14.4477 17.9477 14 18.5 14ZM12.5 11C13.0523 11 13.5 11.4477 13.5 12C13.5 12.5523 13.0523 13 12.5 13C11.9477 13 11.5 12.5523 11.5 12C11.5 11.4477 11.9477 11 12.5 11ZM15.5 11C16.0523 11 16.5 11.4477 16.5 12C16.5 12.5523 16.0523 13 15.5 13C14.9477 13 14.5 12.5523 14.5 12C14.5 11.4477 14.9477 11 15.5 11ZM18.5 11C19.0523 11 19.5 11.4477 19.5 12C19.5 12.5523 19.0523 13 18.5 13C17.9477 13 17.5 12.5523 17.5 12C17.5 11.4477 17.9477 11 18.5 11ZM18.5 5C19.0523 5 19.5 5.44772 19.5 6V9C19.5 9.55229 19.0523 10 18.5 10H12.5C11.9477 10 11.5 9.55229 11.5 9V6C11.5 5.44772 11.9477 5 12.5 5H18.5ZM13.5 8H17.5V7H13.5V8Z" fill="#9E9E9E"/>
</g>
</svg>
