<svg width="24" height="24" viewBox="0 0 24 24" fill="none" xmlns="http://www.w3.org/2000/svg">
<g id="icons/Hardware/phonograph">
<path id="Union" d="M19.5 2C20.8807 2 22 3.11929 22 4.5V19.5C22 20.8807 20.8807 22 19.5 22H4.5C3.11929 22 2 20.8807 2 19.5V4.5C2 3.11929 3.11929 2 4.5 2H19.5ZM4.5 4C4.22386 4 4 4.22386 4 4.5V19.5C4 19.7761 4.22386 20 4.5 20H19.5C19.7761 20 20 19.7761 20 19.5V4.5C20 4.22386 19.7761 4 19.5 4H4.5ZM17.293 5.29297C17.6835 4.90244 18.3165 4.90244 18.707 5.29297C19.0976 5.68349 19.0976 6.31651 18.707 6.70703L17.0293 8.38379C17.9479 9.50479 18.5 10.9376 18.5 12.5C18.5 16.0899 15.5899 19 12 19C8.41015 19 5.5 16.0899 5.5 12.5C5.5 8.91015 8.41015 6 12 6C13.3049 6 14.519 6.38597 15.5371 7.04785L17.293 5.29297ZM18 17C18.5523 17 19 17.4477 19 18C19 18.5523 18.5523 19 18 19C17.4477 19 17 18.5523 17 18C17 17.4477 17.4477 17 18 17ZM12 8C9.51472 8 7.5 10.0147 7.5 12.5C7.5 14.9853 9.51472 17 12 17C14.4853 17 16.5 14.9853 16.5 12.5C16.5 11.4905 16.1678 10.5584 15.6064 9.80762L14.707 10.707C14.3165 11.0976 13.6835 11.0976 13.293 10.707C12.9024 10.3165 12.9024 9.68349 13.293 9.29297L14.0771 8.50781C13.4557 8.18379 12.7494 8 12 8ZM12 11.5C12.5523 11.5 13 11.9477 13 12.5C13 13.0523 12.5523 13.5 12 13.5C11.4477 13.5 11 13.0523 11 12.5C11 11.9477 11.4477 11.5 12 11.5Z" fill="#9E9E9E"/>
</g>
</svg>
