<svg width="24" height="24" viewBox="0 0 24 24" fill="none" xmlns="http://www.w3.org/2000/svg">
<g id="icons/Hardware/plug">
<path id="Union" d="M16 1C16.5523 1 17 1.44772 17 2V6H21C21.5523 6 22 6.44772 22 7V12C22 12.1552 21.964 12.3084 21.8945 12.4473C20.8352 14.5659 19.4804 16.2149 17.8047 17.332C17.6877 17.41 17.5688 17.4842 17.4492 17.5566L16.9951 22.0996C16.944 22.6108 16.5137 23 16 23H8C7.48628 23 7.05605 22.6108 7.00488 22.0996L6.5498 17.5566C6.43049 17.4843 6.31208 17.4099 6.19531 17.332C4.51958 16.2149 3.16478 14.5659 2.10547 12.4473C2.03604 12.3084 2 12.1552 2 12V7C2 6.44772 2.44772 6 3 6H7V2C7 1.44772 7.44772 1 8 1C8.55228 1 9 1.44772 9 2V6H15V2C15 1.44772 15.4477 1 16 1ZM15.3438 18.5078C14.3005 18.8364 13.1842 19 12 19C10.8155 19 9.69876 18.8366 8.65527 18.5078L8.90527 21H15.0947L15.3438 18.5078ZM4 11.7568C4.92062 13.5319 6.02896 14.8175 7.30469 15.668C8.62269 16.5466 10.175 17 12 17C13.825 17 15.3773 16.5466 16.6953 15.668C17.971 14.8175 19.0794 13.5319 20 11.7568V8H4V11.7568ZM13 11C13.5523 11 14 11.4477 14 12C14 12.5523 13.5523 13 13 13H11C10.4477 13 10 12.5523 10 12C10 11.4477 10.4477 11 11 11H13Z" fill="#9E9E9E"/>
</g>
</svg>
