<svg width="24" height="24" viewBox="0 0 24 24" fill="none" xmlns="http://www.w3.org/2000/svg">
<g id="icons/Hardware/plug-one">
<path id="Union" d="M14 1C14.5523 1 15 1.44772 15 2V5H16.5C17.8807 5 19 6.11929 19 7.5V16.5C19 17.8807 17.8807 19 16.5 19H13V20.5C13 21.8807 11.8807 23 10.5 23H4C3.44772 23 3 22.5523 3 22C3 21.4477 3.44772 21 4 21H10.5C10.7762 21 11 20.7762 11 20.5V19H7.5C6.11929 19 5 17.8807 5 16.5V7.5C5 6.11929 6.11929 5 7.5 5H9V2C9 1.44772 9.44772 1 10 1C10.5523 1 11 1.44772 11 2V5H13V2C13 1.44772 13.4477 1 14 1ZM7.5 7C7.22386 7 7 7.22386 7 7.5V16.5C7 16.7761 7.22386 17 7.5 17H16.5C16.7761 17 17 16.7761 17 16.5V7.5C17 7.22386 16.7761 7 16.5 7H7.5ZM13 11C13.5523 11 14 11.4477 14 12C14 12.5523 13.5523 13 13 13H11C10.4477 13 10 12.5523 10 12C10 11.4477 10.4477 11 11 11H13Z" fill="#9E9E9E"/>
</g>
</svg>
