<svg width="24" height="24" viewBox="0 0 24 24" fill="none" xmlns="http://www.w3.org/2000/svg">
<g id="icons/Hardware/power-supply-one">
<path id="Union" d="M15.0003 1C15.5524 1.00017 16.0003 1.44782 16.0003 2V3.5H19.0003L19.1722 3.51465C19.5632 3.58279 19.884 3.87968 19.9749 4.27734L20.9749 8.65234C21.0221 8.85917 21.0022 9.07566 20.9183 9.27051L17.4183 17.3955C17.2603 17.7621 16.8995 17.9999 16.5003 18H13.0003V21H19.0003V18.3154C19.0005 17.7633 19.4481 17.3154 20.0003 17.3154C20.5523 17.3156 21.0001 17.7634 21.0003 18.3154V22C21.0003 22.5522 20.5524 22.9998 20.0003 23H12.0003C11.448 23 11.0003 22.5523 11.0003 22V18H7.50031C7.10102 18 6.74037 17.7622 6.58234 17.3955L3.08234 9.27051C2.99838 9.07561 2.97843 8.85923 3.0257 8.65234L4.0257 4.27734L4.07843 4.11328C4.23191 3.74705 4.59225 3.5 5.00031 3.5H8.00031V2C8.00031 1.44772 8.44802 1 9.00031 1C9.55244 1.00017 10.0003 1.44782 10.0003 2V3.5H14.0003V2C14.0003 1.44772 14.448 1 15.0003 1ZM5.04718 8.7793L8.15753 16H15.8431L18.9525 8.7793L18.2034 5.5H5.79718L5.04718 8.7793ZM15.0003 9.5C15.5524 9.50017 16.0003 9.94782 16.0003 10.5C16.0003 11.0522 15.5524 11.4998 15.0003 11.5H9.00031C8.44802 11.5 8.00031 11.0523 8.00031 10.5C8.00031 9.94771 8.44802 9.5 9.00031 9.5H15.0003Z" fill="#9E9E9E"/>
</g>
</svg>
