<svg width="24" height="24" viewBox="0 0 24 24" fill="none" xmlns="http://www.w3.org/2000/svg">
<g id="icons/Hardware/power-supply">
<path id="Union" d="M16.1482 2C16.7415 2.00011 17.2748 2.34941 17.5154 2.88379L17.5593 2.99316L20.8943 12.2832C20.9623 12.4726 20.9912 12.6734 20.9802 12.873L20.9568 13.0713L20.0593 17.7803C19.9246 18.4879 19.3058 19 18.5857 19H12.9998V22C12.9998 22.5523 12.552 23 11.9998 23C11.4476 22.9999 10.9998 22.5522 10.9998 22V19H5.41382C4.69376 18.9999 4.07494 18.4878 3.94019 17.7803L3.04272 13.0713C2.99256 12.808 3.01374 12.5354 3.10425 12.2832L6.43921 2.99316L6.48413 2.88379C6.72475 2.34941 7.25804 2.00011 7.85132 2H16.1482ZM5.03296 12.8301L5.82788 17H18.1716L18.9656 12.8301L15.7966 4H8.20288L5.03296 12.8301ZM7.74976 10.835C8.22801 10.5589 8.83982 10.723 9.11597 11.2012L10.616 13.7988C10.8921 14.2771 10.728 14.8889 10.2498 15.165C9.77148 15.4411 9.15966 15.2771 8.88354 14.7988L7.38354 12.2012C7.10756 11.723 7.27163 11.1111 7.74976 10.835ZM14.8835 11.2012C15.1596 10.723 15.7715 10.559 16.2498 10.835C16.728 11.1111 16.892 11.7229 16.616 12.2012L15.116 14.7988C14.8398 15.2771 14.228 15.4412 13.7498 15.165C13.2717 14.8888 13.1075 14.277 13.3835 13.7988L14.8835 11.2012ZM11.9998 5C12.552 5 12.9998 5.44772 12.9998 6V9C12.9998 9.55228 12.552 10 11.9998 10C11.4476 9.9999 10.9998 9.55222 10.9998 9V6C10.9998 5.44778 11.4476 5.0001 11.9998 5Z" fill="#9E9E9E"/>
</g>
</svg>
