<svg width="24" height="24" viewBox="0 0 24 24" fill="none" xmlns="http://www.w3.org/2000/svg">
<g id="icons/Hardware/printer-one">
<path id="Union" d="M16 1.5C16.5523 1.5 17 1.94772 17 2.5V5.5H21C22.1046 5.5 23 6.39542 23 7.5V15.5C23 16.6046 22.1046 17.5 21 17.5H17V21.5C17 22.0523 16.5523 22.5 16 22.5H8C7.44772 22.5 7 22.0523 7 21.5V17.5H3C1.89544 17.5 1 16.6046 1 15.5V7.5C1 6.39541 1.89544 5.5 3 5.5H7V2.5C7 1.94772 7.44772 1.5 8 1.5H16ZM9 14.5V20.5H15V14.5H9ZM13 16.5C13.5523 16.5 14 16.9477 14 17.5C14 18.0523 13.5523 18.5 13 18.5H11C10.4477 18.5 10 18.0523 10 17.5C10 16.9477 10.4477 16.5 11 16.5H13ZM3 15.5H7V14.5H6.5C5.94772 14.5 5.5 14.0523 5.5 13.5C5.5 12.9477 5.94772 12.5 6.5 12.5H17.5C18.0523 12.5 18.5 12.9477 18.5 13.5C18.5 14.0523 18.0523 14.5 17.5 14.5H17V15.5H21V7.5H19V9.5C19 10.0523 18.5523 10.5 18 10.5H6C5.44772 10.5 5 10.0523 5 9.5V7.5H3V15.5ZM9 6.5C9 7.05228 8.55228 7.5 8 7.5H7V8.5H17V7.5H16C15.4477 7.5 15 7.05228 15 6.5V3.5H9V6.5Z" fill="#9E9E9E"/>
</g>
</svg>
