<svg width="24" height="24" viewBox="0 0 24 24" fill="none" xmlns="http://www.w3.org/2000/svg">
<g id="icons/Hardware/printer-two">
<path id="Union" d="M18 2C19.1046 2 20 2.89544 20 4V9C21.1046 9 22 9.89543 22 11V20C22 21.1046 21.1046 22 20 22H4C2.89543 22 2 21.1046 2 20V11C2 9.89543 2.89543 9 4 9V4C4 2.89544 4.89541 2 6 2H18ZM4 20H9V17C9 16.4477 9.44772 16 10 16H17.5C18.0523 16 18.5 16.4477 18.5 17V20H20V11H4V20ZM11 20H16.5V18H11V20ZM7.5 12C8.05228 12 8.5 12.4477 8.5 13C8.5 13.5523 8.05228 14 7.5 14H6C5.44772 14 5 13.5523 5 13C5 12.4477 5.44772 12 6 12H7.5ZM6 9H18V4H6V9Z" fill="#9E9E9E"/>
</g>
</svg>
