<svg width="24" height="24" viewBox="0 0 24 24" fill="none" xmlns="http://www.w3.org/2000/svg">
<g id="icons/Hardware/printer">
<path id="Union" d="M19 1C19.5523 1 20 1.44772 20 2V9H22C22.5523 9 23 9.44771 23 10V19C23 19.5523 22.5523 20 22 20H19.5V22C19.5 22.5523 19.0523 23 18.5 23H5.5C4.94772 23 4.5 22.5523 4.5 22V20H2C1.44772 20 1 19.5523 1 19V10C1 9.44771 1.44772 9 2 9H4V2C4 1.44772 4.44772 1 5 1H19ZM6.5 21H17.5V17H6.5V21ZM3 18H4.49023V16C4.49023 15.4477 4.93796 15 5.49023 15H18.5088C19.061 15.0001 19.5088 15.4478 19.5088 16V18H21V11H3V18ZM6 9H18V3H6V9Z" fill="#9E9E9E"/>
</g>
</svg>
