<svg width="24" height="24" viewBox="0 0 24 24" fill="none" xmlns="http://www.w3.org/2000/svg">
<g id="icons/Hardware/projector-three">
<path id="Union" d="M15.5 3.5C17.6415 3.5 19.4318 4.9962 19.8867 7H22C22.5523 7 23 7.44772 23 8V16C23 16.5523 22.5523 17 22 17V19C22 19.5523 21.5523 20 21 20H18C17.4477 20 17 19.5523 17 19V17H7V19C7 19.5523 6.55228 20 6 20H3C2.44772 20 2 19.5523 2 19V17C1.44772 17 1 16.5523 1 16V8C1 7.44772 1.44772 7 2 7H11.1133C11.5682 4.9962 13.3585 3.5 15.5 3.5ZM3 15H21V9H19.8867C19.4318 11.0038 17.6415 12.5 15.5 12.5C13.3585 12.5 11.5682 11.0038 11.1133 9H3V15ZM9 11C9.55229 11 10 11.4477 10 12C10 12.5523 9.55229 13 9 13H5C4.44772 13 4 12.5523 4 12C4 11.4477 4.44772 11 5 11H9ZM15.5 5.5C14.1193 5.5 13 6.61928 13 8C13 9.38072 14.1193 10.5 15.5 10.5C16.8807 10.5 18 9.38072 18 8C18 6.61928 16.8807 5.5 15.5 5.5ZM15.5 6.5C16.3285 6.5 17 7.17155 17 8C17 8.82845 16.3285 9.5 15.5 9.5C14.6715 9.5 14 8.82845 14 8C14 7.17155 14.6715 6.5 15.5 6.5Z" fill="#9E9E9E"/>
</g>
</svg>
