<svg width="24" height="24" viewBox="0 0 24 24" fill="none" xmlns="http://www.w3.org/2000/svg">
<g id="icons/Hardware/projector-one">
<path id="Union" d="M10.5 4C11.0523 4 11.5 4.44772 11.5 5V9.5H21C22.1046 9.5 23 10.3954 23 11.5V17.5C23 18.6046 22.1046 19.5 21 19.5H3C1.89543 19.5 1 18.6046 1 17.5V11.5C1 10.3954 1.89543 9.5 3 9.5H4V5C4 4.44772 4.44772 4 5 4H10.5ZM3 17.5H21V11.5H3V17.5ZM8 13.5C8.55228 13.5 9 13.9477 9 14.5C9 15.0523 8.55228 15.5 8 15.5C7.44772 15.5 7 15.0523 7 14.5C7 13.9477 7.44772 13.5 8 13.5ZM18 13.5C18.5523 13.5 19 13.9477 19 14.5C19 15.0523 18.5523 15.5 18 15.5H14C13.4477 15.5 13 15.0523 13 14.5C13 13.9477 13.4477 13.5 14 13.5H18ZM6 9.5H9.5V6H6V9.5Z" fill="#9E9E9E"/>
</g>
</svg>
