<svg width="24" height="24" viewBox="0 0 24 24" fill="none" xmlns="http://www.w3.org/2000/svg">
<g id="icons/Hardware/projector-two">
<path id="Union" d="M21 4C22.1046 4 23 4.89542 23 6V16C23 17.1046 22.1046 18 21 18H18V20C18 20.5523 17.5523 21 17 21C16.4477 21 16 20.5523 16 20V18H8V20C8 20.5523 7.55228 21 7 21C6.44772 21 6 20.5523 6 20V18H3C1.89544 18 1 17.1046 1 16V6C1 4.89541 1.89544 4 3 4H21ZM3 16H21V6H3V16ZM15.5 7.5C17.433 7.5 19 9.067 19 11C19 12.933 17.433 14.5 15.5 14.5C13.567 14.5 12 12.933 12 11C12 9.067 13.567 7.5 15.5 7.5ZM8 11.5C8.55228 11.5 9 11.9477 9 12.5C9 13.0523 8.55228 13.5 8 13.5H6C5.44772 13.5 5 13.0523 5 12.5C5 11.9477 5.44772 11.5 6 11.5H8ZM15.5 9.5C14.6716 9.5 14 10.1716 14 11C14 11.8284 14.6716 12.5 15.5 12.5C16.3284 12.5 17 11.8284 17 11C17 10.1716 16.3284 9.5 15.5 9.5ZM9 8.5C9.55229 8.5 10 8.94772 10 9.5C10 10.0523 9.55229 10.5 9 10.5H6C5.44772 10.5 5 10.0523 5 9.5C5 8.94772 5.44772 8.5 6 8.5H9Z" fill="#9E9E9E"/>
</g>
</svg>
