<svg width="24" height="24" viewBox="0 0 24 24" fill="none" xmlns="http://www.w3.org/2000/svg">
<g id="icons/Hardware/radio">
<path id="Union" d="M12.0527 1.10547C12.5466 0.858617 13.1475 1.05898 13.3945 1.55273C13.6415 2.04667 13.4412 2.6475 12.9473 2.89453L7.73633 5.5H20.5C21.6045 5.5 22.4998 6.39557 22.5 7.5V19.5C22.5 20.6046 21.6046 21.5 20.5 21.5H3.5C2.39543 21.5 1.5 20.6046 1.5 19.5V7.5C1.50015 6.49148 2.24711 5.65972 3.21777 5.52246L12.0527 1.10547ZM3.5 19.5H20.5V7.5H3.5V19.5ZM9 10C11.209 10 12.9998 11.791 13 14C13 16.2091 11.2091 18 9 18C6.79086 18 5 16.2091 5 14C5.00017 11.791 6.79097 10 9 10ZM18 15C18.5522 15 18.9998 15.4479 19 16C19 16.5523 18.5523 17 18 17H15C14.4477 17 14 16.5523 14 16C14.0002 15.4479 14.4478 15 15 15H18ZM9 12C7.89553 12 7.00017 12.8956 7 14C7 15.1046 7.89543 16 9 16C10.1046 16 11 15.1046 11 14C10.9998 12.8956 10.1045 12 9 12ZM18 11C18.5522 11 18.9998 11.4479 19 12C19 12.5523 18.5523 13 18 13H15C14.4477 13 14 12.5523 14 12C14.0002 11.4479 14.4478 11 15 11H18Z" fill="#9E9E9E"/>
</g>
</svg>
