<svg width="24" height="24" viewBox="0 0 24 24" fill="none" xmlns="http://www.w3.org/2000/svg">
<g id="icons/Hardware/radio-one">
<path id="Union" d="M19 2C19.5523 2 20 2.44772 20 3V6H20.5C21.6046 6 22.5 6.89543 22.5 8V20C22.5 21.1046 21.6046 22 20.5 22H3.5C2.39543 22 1.5 21.1046 1.5 20V8C1.5 6.89543 2.39543 6 3.5 6H4V3C4 2.44772 4.44772 2 5 2H19ZM3.5 20H20.5V8H3.5V20ZM9 9.5C11.4853 9.5 13.5 11.5147 13.5 14C13.5 16.4853 11.4853 18.5 9 18.5C6.51472 18.5 4.5 16.4853 4.5 14C4.5 11.5147 6.51472 9.5 9 9.5ZM18 16C18.5523 16 19 16.4477 19 17C19 17.5523 18.5523 18 18 18H16C15.4477 18 15 17.5523 15 17C15 16.4477 15.4477 16 16 16H18ZM9 11.5C7.61929 11.5 6.5 12.6193 6.5 14C6.5 15.3807 7.61929 16.5 9 16.5C10.3807 16.5 11.5 15.3807 11.5 14C11.5 12.6193 10.3807 11.5 9 11.5ZM18 13C18.5523 13 19 13.4477 19 14C19 14.5523 18.5523 15 18 15H16C15.4477 15 15 14.5523 15 14C15 13.4477 15.4477 13 16 13H18ZM18 10C18.5523 10 19 10.4477 19 11C19 11.5523 18.5523 12 18 12H16C15.4477 12 15 11.5523 15 11C15 10.4477 15.4477 10 16 10H18ZM6 6H18V4H6V6Z" fill="#9E9E9E"/>
</g>
</svg>
