<svg width="24" height="24" viewBox="0 0 24 24" fill="none" xmlns="http://www.w3.org/2000/svg">
<g id="icons/Hardware/receiver">
<path id="Union" d="M19.9999 1C21.6567 1 22.9999 2.34314 22.9999 4C22.9999 5.53251 21.8507 6.79547 20.3671 6.97656L18.0516 16.6367L19.7782 18.3633C20.1687 18.7538 20.1687 19.3878 19.7782 19.7783C15.4824 24.0739 8.51731 24.0739 4.22156 19.7783C-0.07411 15.4826 -0.0740384 8.51745 4.22156 4.22168C4.40902 4.03422 4.66348 3.92879 4.92859 3.92871C5.19373 3.92871 5.4481 4.03424 5.63562 4.22168L7.36121 5.94727L17.0223 3.63086C17.2043 2.14817 18.4681 1.00004 19.9999 1ZM4.96863 6.38281C2.13873 9.91635 2.36038 15.0876 5.63562 18.3633C8.91127 21.6389 14.0824 21.8602 17.6161 19.0303L4.96863 6.38281ZM13.4139 12L16.3925 14.9785L18.2714 7.1416L13.4139 12ZM9.01941 7.60547L11.9999 10.5859L16.8573 5.72754L9.01941 7.60547ZM19.9999 3C19.4476 3.00005 18.9999 3.44775 18.9999 4C18.9999 4.07246 19.0074 4.14193 19.0214 4.20801V4.20898C19.0617 4.39966 19.1575 4.57171 19.2928 4.70703L19.4012 4.80078C19.5157 4.88664 19.6488 4.94831 19.7919 4.97852C19.8579 4.99246 19.9274 4.99999 19.9999 5C20.5521 5 20.9999 4.55227 20.9999 4C20.9999 3.44772 20.5521 3 19.9999 3Z" fill="#9E9E9E"/>
</g>
</svg>
