<svg width="24" height="24" viewBox="0 0 24 24" fill="none" xmlns="http://www.w3.org/2000/svg">
<g id="icons/Hardware/remote-control-one">
<path id="Union" d="M17.7773 1C18.7287 1.00013 19.4999 1.77131 19.5 2.72266V15.5C19.5 19.6421 16.1421 23 12 23C7.85787 23 4.5 19.6421 4.5 15.5V2.72266C4.50013 1.77131 5.27132 1.00013 6.22266 1H17.7773ZM6.5 15.5C6.5 18.5376 8.96243 21 12 21C15.0376 21 17.5 18.5376 17.5 15.5V3H6.5V15.5ZM12 11C14.4853 11 16.5 13.0147 16.5 15.5C16.5 17.9853 14.4853 20 12 20C9.51472 20 7.5 17.9853 7.5 15.5C7.5 13.0147 9.51472 11 12 11ZM12 13C10.6193 13 9.5 14.1193 9.5 15.5C9.5 16.8807 10.6193 18 12 18C13.3807 18 14.5 16.8807 14.5 15.5C14.5 14.1193 13.3807 13 12 13ZM10 7C10.5523 7 11 7.44772 11 8C11 8.55228 10.5523 9 10 9H8.5C7.94772 9 7.5 8.55228 7.5 8C7.5 7.44772 7.94772 7 8.5 7H10ZM15.5 7C16.0523 7 16.5 7.44772 16.5 8C16.5 8.55228 16.0523 9 15.5 9H14C13.4477 9 13 8.55228 13 8C13 7.44772 13.4477 7 14 7H15.5ZM8.5 4C9.05228 4 9.5 4.44772 9.5 5C9.5 5.55228 9.05228 6 8.5 6C7.94772 6 7.5 5.55228 7.5 5C7.5 4.44772 7.94772 4 8.5 4Z" fill="#9E9E9E"/>
</g>
</svg>
