<svg width="24" height="24" viewBox="0 0 24 24" fill="none" xmlns="http://www.w3.org/2000/svg">
<g id="icons/Hardware/remote-control">
<path id="Union" d="M17.5 1C18.6046 1 19.5 1.89543 19.5 3V21C19.5 22.1046 18.6046 23 17.5 23H6.5C5.39543 23 4.5 22.1046 4.5 21V3C4.5 1.89543 5.39543 1 6.5 1H17.5ZM6.5 21H17.5V3H6.5V21ZM12 14C13.6569 14 15 15.3431 15 17C15 18.6569 13.6569 20 12 20C10.3431 20 9 18.6569 9 17C9 15.3431 10.3431 14 12 14ZM12 16C11.4477 16 11 16.4477 11 17C11 17.5523 11.4477 18 12 18C12.5523 18 13 17.5523 13 17C13 16.4477 12.5523 16 12 16ZM12.5 11C13.0523 11 13.5 11.4477 13.5 12C13.5 12.5523 13.0523 13 12.5 13H11.5C10.9477 13 10.5 12.5523 10.5 12C10.5 11.4477 10.9477 11 11.5 11H12.5ZM15 4C15.5523 4 16 4.44772 16 5V9C16 9.55229 15.5523 10 15 10H9C8.44772 10 8 9.55229 8 9V5C8 4.44772 8.44772 4 9 4H15ZM10 8H14V6H10V8Z" fill="#9E9E9E"/>
</g>
</svg>
