<svg width="24" height="24" viewBox="0 0 24 24" fill="none" xmlns="http://www.w3.org/2000/svg">
<g id="icons/Hardware/robot-one">
<path id="Union" d="M12 2C13.1046 2 14 2.89543 14 4C14 4.73976 13.5971 5.3835 13 5.72949V8H18.5C19.6046 8 20.5 8.89543 20.5 10V20C20.5 21.1046 19.6046 22 18.5 22H5.5C4.39543 22 3.5 21.1046 3.5 20V10C3.5 8.89543 4.39543 8 5.5 8H11V5.72949C10.4029 5.3835 10 4.73976 10 4C10 2.89543 10.8954 2 12 2ZM5.5 20H18.5V10H5.5V20ZM2 12C2.55228 12 3 12.4477 3 13V17C3 17.5523 2.55228 18 2 18C1.44772 18 1 17.5523 1 17V13C1 12.4477 1.44772 12 2 12ZM14 16C14.5523 16 15 16.4477 15 17C15 17.5523 14.5523 18 14 18H10C9.4477 18 9 17.5523 9 17C9 16.4477 9.4477 16 10 16H14ZM22 12C22.5523 12 23 12.4477 23 13V17C23 17.5523 22.5523 18 22 18C21.4477 18 21 17.5523 21 17V13C21 12.4477 21.4477 12 22 12ZM8.5 12C9.05228 12 9.5 12.4477 9.5 13C9.5 13.5523 9.05228 14 8.5 14C7.94772 14 7.5 13.5523 7.5 13C7.5 12.4477 7.94772 12 8.5 12ZM15.5 12C16.0523 12 16.5 12.4477 16.5 13C16.5 13.5523 16.0523 14 15.5 14C14.9477 14 14.5 13.5523 14.5 13C14.5 12.4477 14.9477 12 15.5 12Z" fill="#9E9E9E"/>
</g>
</svg>
