<svg width="24" height="24" viewBox="0 0 24 24" fill="none" xmlns="http://www.w3.org/2000/svg">
<g id="icons/Hardware/robot">
<path id="Union" d="M17 1.5C18.1046 1.5 19 2.39543 19 3.5C19 4.58593 18.1345 5.46657 17.0557 5.49609L15.8037 7.5H18.5C19.6046 7.5 20.5 8.39543 20.5 9.5V11H22C22.5523 11 23 11.4477 23 12V17C23 17.5523 22.5523 18 22 18H20.5V20.5C20.5 21.6046 19.6046 22.5 18.5 22.5H5.5C4.39543 22.5 3.5 21.6046 3.5 20.5V18H2C1.44772 18 1 17.5523 1 17V12C1 11.4477 1.44772 11 2 11H3.5V9.5C3.5 8.39543 4.39543 7.5 5.5 7.5H8.19629L6.94336 5.49609C5.86502 5.46606 5 4.5856 5 3.5C5 2.39543 5.89543 1.5 7 1.5C8.10457 1.5 9 2.39543 9 3.5C9 3.88209 8.88998 4.23739 8.7041 4.54102L10.5537 7.5H13.4463L15.2949 4.54102C15.1092 4.23748 15 3.8819 15 3.5C15 2.39543 15.8954 1.5 17 1.5ZM5.5 20.5H18.5V9.5H5.5V20.5ZM14 11C15.6569 11 17 12.3431 17 14C17 15.6569 15.6569 17 14 17H10C8.34315 17 7 15.6569 7 14C7 12.3431 8.34315 11 10 11H14ZM20.5 16H21V13H20.5V16ZM3 16H3.5V13H3V16ZM10 13C9.44771 13 9 13.4477 9 14C9 14.5523 9.44771 15 10 15H14C14.5523 15 15 14.5523 15 14C15 13.4477 14.5523 13 14 13H10Z" fill="#9E9E9E"/>
</g>
</svg>
