<svg width="24" height="24" viewBox="0 0 24 24" fill="none" xmlns="http://www.w3.org/2000/svg">
<g id="icons/Hardware/rocket-one">
<path id="Union" d="M12 18C12.5523 18 13 18.4477 13 19V22C13 22.5523 12.5523 23 12 23C11.4477 23 11 22.5523 11 22V19C11 18.4477 11.4477 18 12 18ZM8 19C8.55228 19 9 19.4477 9 20V21C8.99997 21.5523 8.55227 22 8 22C7.44773 22 7.00003 21.5523 7 21V20C7 19.4477 7.44772 19 8 19ZM16 19C16.5523 19 17 19.4477 17 20V21C17 21.5523 16.5523 22 16 22C15.4477 22 15 21.5523 15 21V20C15 19.4477 15.4477 19 16 19ZM10.6133 1.72266C11.453 1.16282 12.547 1.16282 13.3867 1.72266L14.1016 2.19922C16.9425 4.09317 18.7291 7.18893 18.9707 10.5654L21.7197 13.4141C21.8995 13.6004 21.9999 13.8495 22 14.1084V16.5C22 17.0523 21.5523 17.5 21 17.5H3C2.44773 17.5 2.00003 17.0523 2 16.5V14.1084C2.00008 13.8495 2.10047 13.6004 2.28027 13.4141L5.02832 10.5654C5.26992 7.1889 7.0575 4.09318 9.89844 2.19922L10.6133 1.72266ZM4 14.5117V15.5H5V13.4756L4 14.5117ZM12.2773 3.38672C12.1094 3.27475 11.8906 3.27475 11.7227 3.38672L11.0078 3.86328C8.5041 5.53243 7.00008 8.34247 7 11.3516V15.5H17V11.3516C16.9999 8.34247 15.4959 5.53243 12.9922 3.86328L12.2773 3.38672ZM19 15.5H20V14.5117L19 13.4756V15.5ZM12 6C14.2091 6 16 7.79086 16 10C16 12.2091 14.2091 14 12 14C9.79088 14 8.00003 12.2091 8 10C8 7.79086 9.79086 6 12 6ZM12 8C10.8954 8 10 8.89543 10 10C10 11.1045 10.8954 12 12 12C13.1046 12 14 11.1045 14 10C14 8.89543 13.1046 8 12 8Z" fill="#9E9E9E"/>
</g>
</svg>
