<svg width="24" height="24" viewBox="0 0 24 24" fill="none" xmlns="http://www.w3.org/2000/svg">
<g id="icons/Hardware/round-socket">
<path id="Union" d="M12 1C18.0751 1 23 5.92487 23 12C23 18.0751 18.0751 23 12 23C5.92487 23 1 18.0751 1 12C1 5.92487 5.92487 1 12 1ZM12 3C7.02943 3 3 7.02943 3 12C3 16.9706 7.02943 21 12 21C16.9706 21 21 16.9706 21 12C21 7.02943 16.9706 3 12 3ZM7.18359 12.0518C7.70744 11.8771 8.27348 12.1598 8.44824 12.6836L9.44824 15.6836C9.62286 16.2074 9.34016 16.7735 8.81641 16.9482C8.29256 17.1229 7.72652 16.8402 7.55176 16.3164L6.55176 13.3164C6.37714 12.7926 6.65984 12.2265 7.18359 12.0518ZM15.5518 12.6836C15.7265 12.1598 16.2926 11.8771 16.8164 12.0518C17.3402 12.2265 17.6229 12.7926 17.4482 13.3164L16.4482 16.3164C16.2735 16.8402 15.7074 17.1229 15.1836 16.9482C14.6598 16.7735 14.3771 16.2074 14.5518 15.6836L15.5518 12.6836ZM12 5.5C12.5523 5.5 13 5.94772 13 6.5V9.5C13 10.0523 12.5523 10.5 12 10.5C11.4477 10.5 11 10.0523 11 9.5V6.5C11 5.94772 11.4477 5.5 12 5.5Z" fill="#9E9E9E"/>
</g>
</svg>
