<svg width="24" height="24" viewBox="0 0 24 24" fill="none" xmlns="http://www.w3.org/2000/svg">
<g id="icons/Hardware/router-one">
<path id="Union" d="M19 1C19.5523 1 20 1.44772 20 2V11.7949L22.9121 18.5908C22.9466 18.6676 22.9711 18.7494 22.9854 18.835C22.9863 18.8408 22.9864 18.8467 22.9873 18.8525C22.9923 18.8859 22.9955 18.9197 22.9971 18.9541C22.9974 18.961 22.9979 18.9678 22.998 18.9746C22.9983 18.9831 23 18.9915 23 19V22C23 22.5523 22.5523 23 22 23H2C1.44772 23 1 22.5523 1 22V19C1 18.9915 1.00077 18.9831 1.00098 18.9746C1.00116 18.9678 1.00163 18.9609 1.00195 18.9541C1.00351 18.9197 1.00678 18.8859 1.01172 18.8525C1.01259 18.8467 1.0127 18.8408 1.01367 18.835C1.02787 18.7495 1.05249 18.6675 1.08691 18.5908L4 11.7949V2C4 1.44772 4.44772 1 5 1C5.55228 1 6 1.44772 6 2V11H11V2C11 1.44772 11.4477 1 12 1C12.5523 1 13 1.44772 13 2V11H18V2C18 1.44772 18.4477 1 19 1ZM3 20V21H21V20H3ZM3.5166 18H20.4834L18.3408 13H5.65918L3.5166 18Z" fill="#9E9E9E"/>
</g>
</svg>
