<svg width="24" height="24" viewBox="0 0 24 24" fill="none" xmlns="http://www.w3.org/2000/svg">
<g id="icons/Hardware/router">
<path id="Union" d="M18 3C18.5523 3 19 3.44772 19 4V13H21C22.1046 13 23 13.8954 23 15V20C23 21.1046 22.1046 22 21 22H3C1.89543 22 1 21.1046 1 20V15C1 13.8954 1.89543 13 3 13H5V4C5 3.44772 5.44772 3 6 3C6.55228 3 7 3.44772 7 4V13H17V4C17 3.44772 17.4477 3 18 3ZM3 20H21V15H3V20ZM11 16.5C11.5523 16.5 12 16.9477 12 17.5C12 18.0523 11.5523 18.5 11 18.5H7C6.44772 18.5 6 18.0523 6 17.5C6 16.9477 6.44772 16.5 7 16.5H11ZM16 16.5C16.5523 16.5 17 16.9477 17 17.5C17 18.0523 16.5523 18.5 16 18.5C15.4477 18.5 15 18.0523 15 17.5C15 16.9477 15.4477 16.5 16 16.5Z" fill="#9E9E9E"/>
</g>
</svg>
