<svg width="24" height="24" viewBox="0 0 24 24" fill="none" xmlns="http://www.w3.org/2000/svg">
<g id="icons/Hardware/rs-male">
<path id="Union" d="M20.8544 6C22.0663 6.00002 22.9996 7.06963 22.8358 8.27051L21.6083 17.2705C21.473 18.2612 20.627 19 19.6268 19H4.37292C3.37292 19 2.52675 18.2613 2.39148 17.2705L1.16394 8.27051C1.00019 7.06975 1.93354 6.00014 3.14539 6H20.8544ZM4.37292 17H19.6268L20.8544 8H3.14539L4.37292 17ZM8.49988 13C9.05216 13 9.49988 13.4477 9.49988 14C9.49988 14.5523 9.05216 15 8.49988 15H7.49988C6.94765 14.9999 6.49988 14.5522 6.49988 14C6.49988 13.4478 6.94765 13.0001 7.49988 13H8.49988ZM12.4999 13C13.0522 13 13.4999 13.4477 13.4999 14C13.4999 14.5523 13.0522 15 12.4999 15H11.4999C10.9477 14.9999 10.4999 14.5522 10.4999 14C10.4999 13.4478 10.9477 13.0001 11.4999 13H12.4999ZM16.4999 13C17.0522 13 17.4999 13.4477 17.4999 14C17.4999 14.5523 17.0522 15 16.4999 15H15.4999C14.9477 14.9999 14.4999 14.5522 14.4999 14C14.4999 13.4478 14.9477 13.0001 15.4999 13H16.4999ZM6.49988 10C7.05216 10 7.49988 10.4477 7.49988 11C7.49988 11.5523 7.05216 12 6.49988 12H5.49988C4.94765 11.9999 4.49988 11.5522 4.49988 11C4.49988 10.4478 4.94765 10.0001 5.49988 10H6.49988ZM10.4999 10C11.0522 10 11.4999 10.4477 11.4999 11C11.4999 11.5523 11.0522 12 10.4999 12H9.49988C8.94765 11.9999 8.49988 11.5522 8.49988 11C8.49988 10.4478 8.94765 10.0001 9.49988 10H10.4999ZM14.4999 10C15.0522 10 15.4999 10.4477 15.4999 11C15.4999 11.5523 15.0522 12 14.4999 12H13.4999C12.9477 11.9999 12.4999 11.5522 12.4999 11C12.4999 10.4478 12.9477 10.0001 13.4999 10H14.4999ZM18.4999 10C19.0522 10 19.4999 10.4477 19.4999 11C19.4999 11.5523 19.0522 12 18.4999 12H17.4999C16.9477 11.9999 16.4999 11.5522 16.4999 11C16.4999 10.4478 16.9477 10.0001 17.4999 10H18.4999Z" fill="#9E9E9E"/>
</g>
</svg>
