<svg width="24" height="24" viewBox="0 0 24 24" fill="none" xmlns="http://www.w3.org/2000/svg">
<g id="icons/Hardware/sd-card">
<path id="Union" d="M20 1C20.5523 1 21 1.44772 21 2V22C21 22.5523 20.5523 23 20 23H4C3.44772 23 3 22.5523 3 22V6C3 5.78369 3.07045 5.57346 3.2002 5.40039L6.2002 1.40039L6.27539 1.31055C6.46295 1.11339 6.72451 1 7 1H20ZM5 6.33203V21H19V3H7.49902L5 6.33203ZM7.5 6.5C8.05228 6.5 8.5 6.94772 8.5 7.5V10.5C8.5 11.0523 8.05228 11.5 7.5 11.5C6.94772 11.5 6.5 11.0523 6.5 10.5V7.5C6.5 6.94772 6.94772 6.5 7.5 6.5ZM10.5 5C11.0523 5 11.5 5.44772 11.5 6V9C11.5 9.55229 11.0523 10 10.5 10C9.94772 10 9.5 9.55229 9.5 9V6C9.5 5.44772 9.94772 5 10.5 5ZM13.5 5C14.0523 5 14.5 5.44772 14.5 6V9C14.5 9.55229 14.0523 10 13.5 10C12.9477 10 12.5 9.55229 12.5 9V6C12.5 5.44772 12.9477 5 13.5 5ZM16.5 5C17.0523 5 17.5 5.44772 17.5 6V9C17.5 9.55229 17.0523 10 16.5 10C15.9477 10 15.5 9.55229 15.5 9V6C15.5 5.44772 15.9477 5 16.5 5Z" fill="#9E9E9E"/>
</g>
</svg>
