<svg width="24" height="24" viewBox="0 0 24 24" fill="none" xmlns="http://www.w3.org/2000/svg">
<g id="icons/Hardware/sd">
<path id="Union" d="M18.5 1.5C19.6046 1.5 20.5 2.39544 20.5 3.5V20.5C20.5 21.6046 19.6046 22.5 18.5 22.5H5.5C4.39544 22.5 3.5 21.6046 3.5 20.5V12C3.5 11.4477 3.94772 11 4.5 11H5.5V10H4.5C3.94772 10 3.5 9.55229 3.5 9V6.5C3.5 6.25793 3.58776 6.02404 3.74707 5.8418L6.94824 2.18262C7.328 1.74864 7.87735 1.5 8.4541 1.5H18.5ZM5.5 6.875V8H6.5L6.60254 8.00488C7.10667 8.05621 7.5 8.48232 7.5 9V12C7.5 12.5523 7.05228 13 6.5 13H5.5V20.5H18.5V3.5H8.4541L5.5 6.875ZM10.5 4.5C11.0523 4.5 11.5 4.94772 11.5 5.5V7.5C11.5 8.05228 11.0523 8.5 10.5 8.5C9.94772 8.5 9.5 8.05228 9.5 7.5V5.5C9.5 4.94772 9.94772 4.5 10.5 4.5ZM13.5 4.5C14.0523 4.5 14.5 4.94772 14.5 5.5V7.5C14.5 8.05228 14.0523 8.5 13.5 8.5C12.9477 8.5 12.5 8.05228 12.5 7.5V5.5C12.5 4.94772 12.9477 4.5 13.5 4.5ZM16.5 4.5C17.0523 4.5 17.5 4.94772 17.5 5.5V7.5C17.5 8.05228 17.0523 8.5 16.5 8.5C15.9477 8.5 15.5 8.05228 15.5 7.5V5.5C15.5 4.94772 15.9477 4.5 16.5 4.5Z" fill="#9E9E9E"/>
</g>
</svg>
