<svg width="24" height="24" viewBox="0 0 24 24" fill="none" xmlns="http://www.w3.org/2000/svg">
<g id="icons/Hardware/seal">
<path id="Union" d="M13.7998 1C15.8433 1 17.5 2.65674 17.5 4.7002C17.4999 6.05001 16.7761 7.22968 15.6963 7.87598L17.7041 13.5H20.5C21.6046 13.5 22.5 14.3954 22.5 15.5V21C22.5 22.1046 21.6046 23 20.5 23H3.5C2.39544 23 1.5 22.1046 1.5 21V15.5C1.5 14.3954 2.39544 13.5 3.5 13.5H6.2959L8.30273 7.87598C7.22334 7.22959 6.50007 6.04971 6.5 4.7002C6.5 2.65674 8.15674 1 10.2002 1H13.7998ZM3.5 21H20.5V18.5H3.5V21ZM3.5 16.5H20.5V15.5H3.5V16.5ZM8.41895 13.5H15.5811L13.7949 8.5H10.2051L8.41895 13.5ZM10.2002 3C9.26131 3 8.5 3.76131 8.5 4.7002C8.50011 5.63899 9.26138 6.40039 10.2002 6.40039H13.7998C14.7386 6.40039 15.4999 5.63899 15.5 4.7002C15.5 3.76131 14.7387 3 13.7998 3H10.2002Z" fill="#9E9E9E"/>
</g>
</svg>
