<svg width="24" height="24" viewBox="0 0 24 24" fill="none" xmlns="http://www.w3.org/2000/svg">
<g id="icons/Hardware/server">
<path id="Union" d="M22 13C22.5523 13 23 13.4477 23 14V22C23 22.5523 22.5523 23 22 23H2C1.44772 23 1 22.5523 1 22V14C1 13.4477 1.44772 13 2 13H22ZM3 21H21V15H3V21ZM6.5 17C6.77615 17 7 17.2239 7 17.5V18.5C7 18.7761 6.77615 19 6.5 19H5.5C5.22385 19 5 18.7761 5 18.5V17.5C5 17.2239 5.22385 17 5.5 17H6.5ZM10.5 17C10.7761 17 11 17.2239 11 17.5V18.5C11 18.7761 10.7761 19 10.5 19H9.5C9.22385 19 9 18.7761 9 18.5V17.5C9 17.2239 9.22385 17 9.5 17H10.5ZM22 1C22.5523 1 23 1.44772 23 2V10C23 10.5523 22.5523 11 22 11H2C1.44772 11 1 10.5523 1 10V2C1 1.44772 1.44772 1 2 1H22ZM3 9H21V3H3V9ZM6.5 5C6.77615 5 7 5.22385 7 5.5V6.5C7 6.77615 6.77615 7 6.5 7H5.5C5.22385 7 5 6.77615 5 6.5V5.5C5 5.22385 5.22385 5 5.5 5H6.5ZM10.5 5C10.7761 5 11 5.22385 11 5.5V6.5C11 6.77615 10.7761 7 10.5 7H9.5C9.22385 7 9 6.77615 9 6.5V5.5C9 5.22385 9.22385 5 9.5 5H10.5Z" fill="#9E9E9E"/>
</g>
</svg>
