<svg width="24" height="24" viewBox="0 0 24 24" fill="none" xmlns="http://www.w3.org/2000/svg">
<g id="icons/Hardware/setting-computer">
<path id="Union" d="M12 2C12.5523 2 13 2.44772 13 3C13 3.55228 12.5523 4 12 4H4.5C4.22386 4 4 4.22386 4 4.5V15.5C4 15.7762 4.22385 16 4.5 16H19.5C19.7762 16 20 15.7762 20 15.5V13C20 12.4477 20.4477 12 21 12C21.5523 12 22 12.4477 22 13V15.5C22 16.8807 20.8807 18 19.5 18H13V20H17C17.5523 20 18 20.4477 18 21C18 21.5523 17.5523 22 17 22H7C6.44772 22 6 21.5523 6 21C6 20.4477 6.44772 20 7 20H11V18H4.5C3.1193 18 2 16.8807 2 15.5V4.5C2 3.11929 3.11929 2 4.5 2H12ZM18.5 2C19.0523 2 19.5 2.44772 19.5 3V4.20898C19.6716 4.28398 19.8316 4.37944 19.9805 4.48926L21.0312 3.88379C21.5094 3.60797 22.1204 3.77197 22.3965 4.25C22.6726 4.72823 22.5094 5.34001 22.0312 5.61621L20.9834 6.2207C20.9936 6.31244 21 6.40554 21 6.5C21 6.59413 20.9935 6.6869 20.9834 6.77832L22.0312 7.38379C22.5094 7.65999 22.6726 8.27177 22.3965 8.75C22.1203 9.22799 21.5094 9.39202 21.0312 9.11621L19.9805 8.50977C19.8315 8.61966 19.6716 8.71499 19.5 8.79004V10C19.5 10.5523 19.0523 11 18.5 11C17.9477 11 17.5 10.5523 17.5 10V8.79004C17.3281 8.71489 17.1677 8.61986 17.0186 8.50977L15.9688 9.11621C15.4905 9.39221 14.8786 9.22824 14.6025 8.75C14.3265 8.27176 14.4906 7.65993 14.9688 7.38379L16.0156 6.77832C16.0055 6.68693 16 6.59409 16 6.5C16 6.40558 16.0054 6.3124 16.0156 6.2207L14.9688 5.61621C14.4905 5.34008 14.3265 4.72828 14.6025 4.25C14.8787 3.77173 15.4905 3.60771 15.9688 3.88379L17.0186 4.48926C17.1676 4.37923 17.3282 4.28409 17.5 4.20898V3C17.5 2.44772 17.9477 2 18.5 2ZM18.5 6C18.2239 6 18 6.22386 18 6.5C18 6.77614 18.2239 7 18.5 7C18.7761 7 19 6.77614 19 6.5C19 6.22386 18.7761 6 18.5 6Z" fill="#9E9E9E"/>
</g>
</svg>
