<svg width="24" height="24" viewBox="0 0 24 24" fill="none" xmlns="http://www.w3.org/2000/svg">
<g id="icons/Hardware/setting-laptop">
<path id="Union" d="M10.5 3.5C11.0523 3.5 11.5 3.94772 11.5 4.5C11.5 5.05228 11.0523 5.5 10.5 5.5H5.5C5.22385 5.5 5 5.72385 5 6V15.5H19V13C19 12.4477 19.4477 12 20 12C20.5523 12 21 12.4477 21 13V15.5H22C22.5523 15.5 23 15.9477 23 16.5V17.5C23 19.7091 21.2091 21.5 19 21.5H5C2.79086 21.5 1 19.7091 1 17.5V16.5C1 15.9477 1.44772 15.5 2 15.5H3V6C3 4.61925 4.1193 3.5 5.5 3.5H10.5ZM3 17.5C3 18.6046 3.89543 19.5 5 19.5H19C20.1046 19.5 21 18.6046 21 17.5H3ZM17.5 2.5C18.0523 2.5 18.5 2.94772 18.5 3.5V4.70898C18.6716 4.78398 18.8316 4.87944 18.9805 4.98926L20.0312 4.38379C20.5094 4.10797 21.1204 4.27197 21.3965 4.75C21.6726 5.22823 21.5094 5.84001 21.0312 6.11621L19.9834 6.7207C19.9936 6.81244 20 6.90554 20 7C20 7.09413 19.9935 7.1869 19.9834 7.27832L21.0312 7.88379C21.5094 8.15999 21.6726 8.77177 21.3965 9.25C21.1204 9.72803 20.5094 9.89203 20.0312 9.61621L18.9805 9.00977C18.8315 9.11966 18.6716 9.21499 18.5 9.29004V10.5C18.5 11.0523 18.0523 11.5 17.5 11.5C16.9477 11.5 16.5 11.0523 16.5 10.5V9.29004C16.3281 9.21489 16.1677 9.11986 16.0186 9.00977L14.9688 9.61621C14.4905 9.89221 13.8786 9.72824 13.6025 9.25C13.3265 8.77176 13.4906 8.15993 13.9688 7.88379L15.0156 7.27832C15.0055 7.18693 15 7.09409 15 7C15 6.90558 15.0054 6.8124 15.0156 6.7207L13.9688 6.11621C13.4905 5.84008 13.3265 5.22828 13.6025 4.75C13.8787 4.27173 14.4905 4.10771 14.9688 4.38379L16.0186 4.98926C16.1676 4.87923 16.3282 4.78409 16.5 4.70898V3.5C16.5 2.94772 16.9477 2.5 17.5 2.5ZM17.5 6.5C17.2239 6.5 17 6.72386 17 7C17 7.27614 17.2239 7.5 17.5 7.5C17.7761 7.5 18 7.27614 18 7C18 6.72386 17.7761 6.5 17.5 6.5Z" fill="#9E9E9E"/>
</g>
</svg>
