<svg width="24" height="24" viewBox="0 0 24 24" fill="none" xmlns="http://www.w3.org/2000/svg">
<g id="icons/Hardware/seven-key">
<path id="Union" d="M19.5 2C20.8807 2 22 3.11929 22 4.5V19.5C22 20.8807 20.8807 22 19.5 22H4.5C3.11929 22 2 20.8807 2 19.5V4.5C2 3.11929 3.11929 2 4.5 2H19.5ZM4.5 4C4.22386 4 4 4.22386 4 4.5V19.5C4 19.7761 4.22386 20 4.5 20H19.5C19.7761 20 20 19.7761 20 19.5V4.5C20 4.22386 19.7761 4 19.5 4H4.5ZM14.626 6.50781C14.9155 6.54458 15.1776 6.70681 15.3389 6.95508C15.5233 7.23897 15.5507 7.59695 15.4131 7.90625L11.4102 16.9062C11.1858 17.4107 10.5953 17.6382 10.0908 17.4141C9.58634 17.1896 9.35873 16.5983 9.58301 16.0938L12.9609 8.5H9.49902C8.94679 8.49993 8.49902 8.05224 8.49902 7.5C8.49902 6.94776 8.94679 6.50007 9.49902 6.5H14.5L14.626 6.50781Z" fill="#9E9E9E"/>
</g>
</svg>
