<svg width="24" height="24" viewBox="0 0 24 24" fill="none" xmlns="http://www.w3.org/2000/svg">
<g id="icons/Hardware/shaver">
<path id="Union" d="M12.099 2.00195C12.664 1.43708 13.5799 1.43705 14.1449 2.00195L21.9984 9.85547C22.5276 10.385 22.561 11.2229 22.098 11.791L21.9984 11.9014L21.6068 12.292C19.9233 13.9755 17.5958 14.6202 15.4174 14.2305C15.3934 14.2587 15.3698 14.2878 15.3431 14.3145L9.5863 20.0713C8.02436 21.633 5.4921 21.6328 3.93005 20.0713C2.36798 18.5092 2.36794 15.9761 3.93005 14.4141L9.68591 8.6582C9.7124 8.63173 9.7399 8.60685 9.76794 8.58301C9.37771 6.40417 10.0238 4.07621 11.7074 2.39258L12.099 2.00195ZM5.34412 15.8281C4.56309 16.6091 4.56305 17.8761 5.34412 18.6572C6.12513 19.4377 7.39136 19.4378 8.17224 18.6572L13.3275 13.501C12.7459 13.1863 12.1989 12.7844 11.7074 12.293C11.2157 11.8012 10.8132 11.2538 10.4984 10.6719L5.34412 15.8281ZM9.23181 13.3535C9.62227 12.9631 10.2553 12.9632 10.6459 13.3535C11.0364 13.7441 11.0364 14.3771 10.6459 14.7676L9.93884 15.4746C9.54828 15.8648 8.9152 15.8651 8.52478 15.4746C8.13453 15.0841 8.13457 14.451 8.52478 14.0605L9.23181 13.3535ZM13.1224 3.80762C11.7228 5.20729 11.326 7.22989 11.933 8.98242L15.016 12.0654C16.7689 12.6733 18.7926 12.2781 20.1927 10.8779L13.1224 3.80762ZM13.1215 8.0498C13.512 7.65939 14.145 7.65932 14.5355 8.0498L15.9496 9.46387C16.3398 9.85437 16.3399 10.4875 15.9496 10.8779C15.5591 11.2684 14.9261 11.2683 14.5355 10.8779L13.1215 9.46387C12.7309 9.07334 12.7309 8.44032 13.1215 8.0498Z" fill="#9E9E9E"/>
</g>
</svg>
