<svg width="24" height="24" viewBox="0 0 24 24" fill="none" xmlns="http://www.w3.org/2000/svg">
<g id="icons/Hardware/signal-tower">
<path id="Union" d="M20.0077 2C20.0377 2.00026 20.0677 2.00195 20.0975 2.00488C20.11 2.0061 20.1223 2.00809 20.1346 2.00977C20.244 2.02465 20.3505 2.05738 20.4501 2.10742C20.4531 2.10893 20.4559 2.11077 20.4589 2.1123C20.4868 2.1267 20.5143 2.14206 20.5409 2.15918C20.5505 2.16538 20.5598 2.17218 20.5692 2.17871C20.59 2.1931 20.61 2.20853 20.6298 2.22461C20.6386 2.23175 20.6476 2.23864 20.6561 2.24609C20.6733 2.26102 20.6897 2.27673 20.7059 2.29297C20.7167 2.30369 20.7279 2.31396 20.7382 2.3252C20.7621 2.35141 20.7851 2.37895 20.8065 2.4082C20.829 2.43881 20.8486 2.47077 20.8671 2.50293C20.8744 2.51573 20.8808 2.52893 20.8876 2.54199C20.8983 2.5627 20.9087 2.58331 20.9178 2.60449C20.9223 2.61484 20.9264 2.62527 20.9305 2.63574C20.941 2.66247 20.9498 2.68953 20.9579 2.7168C20.96 2.72401 20.9628 2.73102 20.9647 2.73828C20.9722 2.76578 20.9782 2.79344 20.9833 2.82129C20.9852 2.83204 20.9875 2.84271 20.9891 2.85352C21.0047 2.95936 21.0024 3.06639 20.9843 3.1709C20.9816 3.1863 20.9779 3.20147 20.9745 3.2168C20.9692 3.24041 20.9638 3.26391 20.9569 3.28711C20.9547 3.2945 20.9534 3.30221 20.951 3.30957L17.451 14.0596C17.4056 14.1992 17.3312 14.321 17.2382 14.4229C17.1706 14.6093 17.0478 14.7779 16.8729 14.9004C15.3921 15.9373 13.6751 16.3828 11.9999 16.291V20H20.9999C21.5522 20 21.9999 20.4477 21.9999 21C21.9999 21.5523 21.5522 22 20.9999 22H2.99988C2.66808 22 2.35777 21.8353 2.17175 21.5605C1.98586 21.2859 1.94812 20.9369 2.07117 20.6289L5.4989 12.0586C3.80848 8.74299 4.71356 4.62479 7.7489 2.34082C7.93216 2.13219 8.20037 2.00002 8.49988 2H20.0077ZM4.47742 20H9.99988V15.917C8.84441 15.539 7.77116 14.8882 6.88367 13.9834L4.47742 20ZM8.3446 4.46484C6.39938 6.40515 6.06803 9.51862 7.69812 11.8467C9.32827 14.1747 12.3667 14.927 14.8553 13.7627L8.3446 4.46484ZM13.8075 8.78027L16.0311 11.9561L18.0868 5.64258L13.8075 8.78027ZM12.66 7.14062L16.9442 4H10.4608L12.66 7.14062Z" fill="#9E9E9E"/>
</g>
</svg>
