<svg width="24" height="24" viewBox="0 0 24 24" fill="none" xmlns="http://www.w3.org/2000/svg">
<g id="icons/Hardware/sim-card">
<path id="Union" d="M14.1133 1C14.6108 1 15.0908 1.18577 15.459 1.52051L20.3457 5.96289C20.7624 6.34191 21 6.87909 21 7.44238V21C21 22.1046 20.1046 23 19 23H5C3.89544 23 3 22.1046 3 21V3C3 1.89543 3.89543 1 5 1H14.1133ZM5 21H19V7.44238L14.1133 3H5V21ZM16 10.5C16.5523 10.5 17 10.9477 17 11.5V18.5C17 19.0523 16.5523 19.5 16 19.5H8C7.44772 19.5 7 19.0523 7 18.5V11.5C7 10.9477 7.44772 10.5 8 10.5H16ZM9 17.5H15V12.5H9V17.5ZM8.5 5.5C9.32843 5.5 10 6.17157 10 7C10 7.82843 9.32843 8.5 8.5 8.5C7.67157 8.5 7 7.82843 7 7C7 6.17157 7.67157 5.5 8.5 5.5Z" fill="#9E9E9E"/>
</g>
</svg>
