<svg width="24" height="24" viewBox="0 0 24 24" fill="none" xmlns="http://www.w3.org/2000/svg">
<g id="icons/Hardware/sim">
<path id="Union" d="M16.5449 1.00488C16.777 1.0283 16.9946 1.13257 17.1592 1.30078L20.7148 4.9375C20.8975 5.12434 21 5.37542 21 5.63672V22C21 22.5523 20.5523 23 20 23H4C3.44772 23 3 22.5523 3 22V2C3 1.44772 3.44772 1 4 1H16.4443L16.5449 1.00488ZM5 21H19V6.04395L16.0234 3H5V21ZM16.5 12C17.0523 12 17.5 12.4477 17.5 13V18C17.5 18.5523 17.0523 19 16.5 19H7.5C6.94772 19 6.5 18.5523 6.5 18V13C6.5 12.4477 6.94772 12 7.5 12H16.5ZM8.5 17H15.5V14H8.5V17ZM7.5 5C8.05228 5 8.5 5.44772 8.5 6V9C8.5 9.55229 8.05228 10 7.5 10C6.94772 10 6.5 9.55229 6.5 9V6C6.5 5.44772 6.94772 5 7.5 5ZM10.5 5C11.0523 5 11.5 5.44772 11.5 6V9C11.5 9.55229 11.0523 10 10.5 10C9.94772 10 9.5 9.55229 9.5 9V6C9.5 5.44772 9.94772 5 10.5 5ZM13.5 5C14.0523 5 14.5 5.44772 14.5 6V9C14.5 9.55229 14.0523 10 13.5 10C12.9477 10 12.5 9.55229 12.5 9V6C12.5 5.44772 12.9477 5 13.5 5Z" fill="#9E9E9E"/>
</g>
</svg>
