<svg width="24" height="24" viewBox="0 0 24 24" fill="none" xmlns="http://www.w3.org/2000/svg">
<g id="icons/Hardware/six-key">
<path id="Union" d="M19.5 2C20.8807 2 22 3.11929 22 4.5V19.5C22 20.8807 20.8807 22 19.5 22H4.5C3.11929 22 2 20.8807 2 19.5V4.5C2 3.11929 3.11929 2 4.5 2H19.5ZM4.5 4C4.22386 4 4 4.22386 4 4.5V19.5C4 19.7761 4.22386 20 4.5 20H19.5C19.7761 20 20 19.7761 20 19.5V4.5C20 4.22386 19.7761 4 19.5 4H4.5ZM12.25 6C13.8751 6 15.2006 7.08683 15.7354 8.51953C15.9284 9.03696 15.6649 9.61355 15.1475 9.80664C14.6301 9.99953 14.0544 9.73609 13.8613 9.21875C13.5775 8.45871 12.9291 8 12.25 8C11.3636 8 10.5 8.81174 10.5 10V10.4326C11.0224 10.1565 11.6179 10 12.25 10C14.3211 10 16 11.6789 16 13.75C16 15.8211 14.3211 17.5 12.25 17.5C10.1789 17.5 8.5 15.8211 8.5 13.75C8.5 13.695 8.50156 13.6403 8.50391 13.5859C8.50149 13.5576 8.5 13.529 8.5 13.5V10C8.5 7.87456 10.0988 6 12.25 6ZM12.25 12C11.2835 12 10.5 12.7835 10.5 13.75C10.5 14.7165 11.2835 15.5 12.25 15.5C13.2165 15.5 14 14.7165 14 13.75C14 12.7835 13.2165 12 12.25 12Z" fill="#9E9E9E"/>
</g>
</svg>
