<svg width="24" height="24" viewBox="0 0 24 24" fill="none" xmlns="http://www.w3.org/2000/svg">
<g id="icons/Hardware/slave">
<path id="Union" d="M18 1C19.1046 1 20 1.89544 20 3V3.5C20 4.05228 19.5523 4.5 19 4.5C18.4477 4.5 18 4.05228 18 3.5V3H6V15.5361C6.58845 15.1956 7.27125 15 8 15H16C16.7288 15 17.4116 15.1956 18 15.5361V15.25C18 14.6977 18.4477 14.25 19 14.25C19.5523 14.25 20 14.6977 20 15.25V19C20 21.2091 18.2091 23 16 23H8C5.79087 23 4 21.2091 4 19V3C4 1.89544 4.89541 1 6 1H18ZM8 17C6.89543 17 6 17.8954 6 19C6 20.1046 6.89543 21 8 21H16C17.1046 21 18 20.1046 18 19C18 17.8954 17.1046 17 16 17H8ZM16 18C16.5523 18 17 18.4477 17 19C17 19.5523 16.5523 20 16 20C15.4477 20 15 19.5523 15 19C15 18.4477 15.4477 18 16 18ZM12.5 5.5C13.0523 5.5 13.5 5.94772 13.5 6.5C13.5 7.05228 13.0523 7.5 12.5 7.5H12C10.8954 7.5 10 8.39543 10 9.5C10 10.6046 10.8954 11.5 12 11.5H12.5C13.0523 11.5 13.5 11.9477 13.5 12.5C13.5 13.0523 13.0523 13.5 12.5 13.5H12C9.79087 13.5 8 11.7091 8 9.5C8 7.29087 9.79087 5.5 12 5.5H12.5ZM17 5.5C19.2091 5.5 21 7.29087 21 9.5C21 11.7091 19.2091 13.5 17 13.5H16.5C15.9477 13.5 15.5 13.0523 15.5 12.5C15.5 11.9477 15.9477 11.5 16.5 11.5H17C18.1046 11.5 19 10.6046 19 9.5C19 8.39543 18.1046 7.5 17 7.5H16.5C15.9477 7.5 15.5 7.05228 15.5 6.5C15.5 5.94772 15.9477 5.5 16.5 5.5H17ZM16.5 8.5C17.0523 8.5 17.5 8.94772 17.5 9.5C17.5 10.0523 17.0523 10.5 16.5 10.5H12.5C11.9477 10.5 11.5 10.0523 11.5 9.5C11.5 8.94772 11.9477 8.5 12.5 8.5H16.5Z" fill="#9E9E9E"/>
</g>
</svg>
