<svg width="24" height="24" viewBox="0 0 24 24" fill="none" xmlns="http://www.w3.org/2000/svg">
<g id="icons/Hardware/solar-energy">
<path id="Union" d="M21 3C22.1046 3 23 3.89543 23 5V15C23 16.1046 22.1046 17 21 17H13V19.5H15.5C16.0523 19.5 16.5 19.9477 16.5 20.5C16.5 21.0523 16.0523 21.5 15.5 21.5H8.5C7.94772 21.5 7.5 21.0523 7.5 20.5C7.5 19.9477 7.94772 19.5 8.5 19.5H11V17H3C1.89543 17 1 16.1046 1 15V5C1 3.89543 1.89543 3 3 3H21ZM3 15H8V11H3V15ZM10 15H14V11H10V15ZM16 15H21V11H16V15ZM3 9H8V5H3V9ZM10 9H14V5H10V9ZM16 9H21V5H16V9Z" fill="#9E9E9E"/>
</g>
</svg>
