<svg width="24" height="24" viewBox="0 0 24 24" fill="none" xmlns="http://www.w3.org/2000/svg">
<g id="icons/Hardware/sound">
<path id="Union" d="M19 1C20.1046 1 21 1.89543 21 3V21C21 22.1046 20.1046 23 19 23H5C3.89543 23 3 22.1046 3 21V3C3 1.89543 3.89543 1 5 1H19ZM5 21H19V3H5V21ZM7 18C7.55228 18 8 18.4477 8 19C8 19.5523 7.55228 20 7 20C6.44772 20 6 19.5523 6 19C6 18.4477 6.44772 18 7 18ZM12 12C14.2091 12 16 13.7909 16 16C16 18.2091 14.2091 20 12 20C9.79086 20 8 18.2091 8 16C8 13.7909 9.79086 12 12 12ZM17 18C17.5523 18 18 18.4477 18 19C18 19.5523 17.5523 20 17 20C16.4477 20 16 19.5523 16 19C16 18.4477 16.4477 18 17 18ZM12 14C10.8954 14 10 14.8954 10 16C10 17.1046 10.8954 18 12 18C13.1046 18 14 17.1046 14 16C14 14.8954 13.1046 14 12 14ZM12 4C13.933 4 15.5 5.567 15.5 7.5C15.5 9.433 13.933 11 12 11C10.067 11 8.5 9.433 8.5 7.5C8.5 5.567 10.067 4 12 4ZM12 6C11.1716 6 10.5 6.67157 10.5 7.5C10.5 8.32843 11.1716 9 12 9C12.8284 9 13.5 8.32843 13.5 7.5C13.5 6.67157 12.8284 6 12 6ZM7 4C7.55228 4 8 4.44772 8 5C8 5.55228 7.55228 6 7 6C6.44772 6 6 5.55228 6 5C6 4.44772 6.44772 4 7 4ZM17 4C17.5523 4 18 4.44772 18 5C18 5.55228 17.5523 6 17 6C16.4477 6 16 5.55228 16 5C16 4.44772 16.4477 4 17 4Z" fill="#9E9E9E"/>
</g>
</svg>
