<svg width="24" height="24" viewBox="0 0 24 24" fill="none" xmlns="http://www.w3.org/2000/svg">
<g id="icons/Hardware/sound-one">
<path id="Union" d="M18 1C19.3807 1 20.5 2.1193 20.5 3.5V20.5C20.5 21.8807 19.3807 23 18 23H6C4.61927 23 3.5 21.8807 3.5 20.5V3.5C3.5 2.1193 4.61925 1 6 1H18ZM6 3C5.72385 3 5.5 3.22385 5.5 3.5V20.5C5.5 20.7762 5.72383 21 6 21H18C18.2762 21 18.5 20.7762 18.5 20.5V3.5C18.5 3.22385 18.2762 3 18 3H6ZM10.5 17C11.0523 17 11.5 17.4477 11.5 18C11.5 18.5523 11.0523 19 10.5 19H9.5C8.94772 19 8.5 18.5523 8.5 18C8.5 17.4477 8.94772 17 9.5 17H10.5ZM14.5 17C15.0523 17 15.5 17.4477 15.5 18C15.5 18.5523 15.0523 19 14.5 19H13.5C12.9477 19 12.5 18.5523 12.5 18C12.5 17.4477 12.9477 17 13.5 17H14.5ZM12 6.5C14.4853 6.5 16.5 8.51472 16.5 11C16.5 13.4853 14.4853 15.5 12 15.5C9.51472 15.5 7.5 13.4853 7.5 11C7.5 8.51472 9.51472 6.5 12 6.5ZM12 8.5C10.6193 8.5 9.5 9.61928 9.5 11C9.5 12.3807 10.6193 13.5 12 13.5C13.3807 13.5 14.5 12.3807 14.5 11C14.5 9.61928 13.3807 8.5 12 8.5ZM16 4C16.5523 4 17 4.44772 17 5C17 5.55228 16.5523 6 16 6C15.4477 6 15 5.55228 15 5C15 4.44772 15.4477 4 16 4Z" fill="#9E9E9E"/>
</g>
</svg>
