<svg width="24" height="24" viewBox="0 0 24 24" fill="none" xmlns="http://www.w3.org/2000/svg">
<g id="icons/Hardware/speaker-one">
<path id="Union" d="M16.1377 3.06836C16.4454 2.94871 16.792 2.98843 17.0645 3.1748C17.3368 3.3612 17.5 3.66993 17.5 4V20C17.4999 20.33 17.3368 20.6389 17.0645 20.8252C16.792 21.0115 16.4453 21.0512 16.1377 20.9316L7.31348 17.5H2C1.44782 17.5 1.00016 17.0521 1 16.5V7.5C1 6.94772 1.44772 6.5 2 6.5H7.31348L16.1377 3.06836ZM8.5 8.18359V15.8154L15.5 18.5381V5.46094L8.5 8.18359ZM21 15.5C21.5523 15.5 22 15.9477 22 16.5C21.9998 17.0521 21.5522 17.5 21 17.5H20C19.4478 17.5 19.0002 17.0521 19 16.5C19 15.9477 19.4477 15.5 20 15.5H21ZM3 15.5H6.5V8.5H3V15.5ZM22 11.5C22.5523 11.5 23 11.9477 23 12.5C22.9998 13.0521 22.5522 13.5 22 13.5H19.5C18.9478 13.5 18.5002 13.0521 18.5 12.5C18.5 11.9477 18.9477 11.5 19.5 11.5H22ZM21 7.5C21.5523 7.5 22 7.94772 22 8.5C21.9998 9.05215 21.5522 9.5 21 9.5H20C19.4478 9.5 19.0002 9.05215 19 8.5C19 7.94772 19.4477 7.5 20 7.5H21Z" fill="#9E9E9E"/>
</g>
</svg>
