<svg width="24" height="24" viewBox="0 0 24 24" fill="none" xmlns="http://www.w3.org/2000/svg">
<g id="icons/Hardware/speaker">
<path id="Union" d="M19 0C20.1046 0 21 0.89544 21 2V22C21 23.1046 20.1046 24 19 24H5C3.89544 24 3 23.1046 3 22V2C3 0.89543 3.89543 0 5 0H19ZM5 22H19V2H5V22ZM12 12C14.2091 12 16 13.7909 16 16C16 18.2091 14.2091 20 12 20C9.79087 20 8 18.2091 8 16C8 13.7909 9.79087 12 12 12ZM12 14C10.8954 14 10 14.8954 10 16C10 17.1046 10.8954 18 12 18C13.1046 18 14 17.1046 14 16C14 14.8954 13.1046 14 12 14ZM12 4C13.6568 4 15 5.34317 15 7C15 8.65683 13.6568 10 12 10C10.3432 10 9 8.65683 9 7C9 5.34317 10.3432 4 12 4ZM12 6C11.4477 6 11 6.44773 11 7C11 7.55227 11.4477 8 12 8C12.5523 8 13 7.55227 13 7C13 6.44773 12.5523 6 12 6Z" fill="#9E9E9E"/>
</g>
</svg>
