<svg width="24" height="24" viewBox="0 0 24 24" fill="none" xmlns="http://www.w3.org/2000/svg">
<g id="icons/Hardware/ssd">
<path id="Union" d="M18 1C19.1046 1 20 1.89544 20 3V19C20 21.2091 18.2091 23 16 23H7.5C7.32815 23 7.16665 22.9562 7.02539 22.8799C5.28736 22.4447 4 20.8729 4 19V3C4 1.89544 4.89541 1 6 1H18ZM8 17C6.89543 17 6 17.8954 6 19C6 19.9316 6.63781 20.7113 7.5 20.9336V19.5C7.5 18.9477 7.94772 18.5 8.5 18.5C9.05228 18.5 9.5 18.9477 9.5 19.5V21H10V19.5C10 18.9477 10.4477 18.5 11 18.5C11.5523 18.5 12 18.9477 12 19.5V21H12.5V19.5C12.5 18.9477 12.9477 18.5 13.5 18.5C14.0523 18.5 14.5 18.9477 14.5 19.5V21H16C17.1046 21 18 20.1046 18 19C18 17.8954 17.1046 17 16 17H8ZM16 18C16.5523 18 17 18.4477 17 19C17 19.5523 16.5523 20 16 20C15.4477 20 15 19.5523 15 19C15 18.4477 15.4477 18 16 18ZM6 15.5361C6.58845 15.1956 7.27125 15 8 15H16C16.7288 15 17.4116 15.1956 18 15.5361V3H6V15.5361ZM12.5 10C13.0523 10 13.5 10.4477 13.5 11C13.5 11.5523 13.0523 12 12.5 12H11.5C10.9477 12 10.5 11.5523 10.5 11C10.5 10.4477 10.9477 10 11.5 10H12.5ZM12.5 6C13.0523 6 13.5 6.44772 13.5 7C13.5 7.55228 13.0523 8 12.5 8H11.5C10.9477 8 10.5 7.55228 10.5 7C10.5 6.44772 10.9477 6 11.5 6H12.5Z" fill="#9E9E9E"/>
</g>
</svg>
