<svg width="24" height="24" viewBox="0 0 24 24" fill="none" xmlns="http://www.w3.org/2000/svg">
<g id="icons/Hardware/stapler">
<path id="Union" d="M4.19727 2.49316C4.43068 2.01791 4.99096 1.78756 5.49805 1.97559L10.249 3.73633C11.8138 4.31643 12.7413 5.85791 12.6133 7.44336L19.5342 9.96289C19.9928 10.1298 20.2543 10.5977 20.1787 11.0625C21.5628 11.83 22.5 13.3053 22.5 15C22.5 15.7866 22.2971 16.5256 21.9424 17.1689C21.9788 17.2727 22 17.3838 22 17.5V21.5C22 22.0523 21.5523 22.5 21 22.5H3C2.44772 22.5 2 22.0523 2 21.5V17.5C2.00005 16.9478 2.44774 16.5 3 16.5H13.7578C13.5919 16.0307 13.5 15.5261 13.5 15C13.5 14.7195 13.5261 14.445 13.5752 14.1787L9.01855 12.5205L8.63281 13.582C8.34938 14.3602 7.48916 14.7615 6.71094 14.4785L3.42188 13.2812C2.64344 12.9979 2.24207 12.1369 2.52539 11.3584L2.91113 10.2969L2.44727 10.1289C1.92834 9.94002 1.6608 9.3666 1.84961 8.84766L3.21777 5.08887L3.25586 4.99707C3.26187 4.98457 3.26986 4.97314 3.27637 4.96094L4.15527 2.5918L4.19727 2.49316ZM4 18.5V20.5H20V19.0312C19.3974 19.3308 18.7186 19.5 18 19.5C16.9288 19.5 15.9456 19.125 15.1729 18.5H4ZM18 12.5C17.0978 12.5 16.3088 12.9789 15.8691 13.6953C15.8607 13.7739 15.8446 13.853 15.8164 13.9307C15.7691 14.0606 15.697 14.1743 15.6084 14.2695C15.5379 14.5006 15.5 14.7459 15.5 15C15.5 16.3807 16.6193 17.5 18 17.5C19.3807 17.5 20.5 16.3807 20.5 15C20.5 13.6193 19.3807 12.5 18 12.5ZM4.5752 11.5723L6.9248 12.4268L7.13867 11.8359L4.79004 10.9814L4.5752 11.5723ZM4.07031 8.5918L14.3701 12.3398C14.8365 11.7045 15.4657 11.1959 16.1963 10.876L4.75391 6.71191L4.07031 8.5918ZM5.46875 4.79883L10.5547 6.68457C10.4122 6.2068 10.0572 5.79898 9.55371 5.6123L5.69824 4.18262L5.46875 4.79883Z" fill="#9E9E9E"/>
</g>
</svg>
