<svg width="24" height="24" viewBox="0 0 24 24" fill="none" xmlns="http://www.w3.org/2000/svg">
<g id="icons/Hardware/stereo-one">
<path id="Union" d="M18.5 1.5C19.6046 1.5 20.5 2.39543 20.5 3.5V20.5C20.5 21.6046 19.6046 22.5 18.5 22.5H5.5C4.39543 22.5 3.5 21.6046 3.5 20.5V3.5C3.5 2.39543 4.39543 1.5 5.5 1.5H18.5ZM5.5 20.5H18.5V10H5.5V20.5ZM12 11C14.2091 11 16 12.7909 16 15C16 17.2091 14.2091 19 12 19C9.79086 19 8 17.2091 8 15C8 12.7909 9.79086 11 12 11ZM12 13C10.8954 13 10 13.8954 10 15C10 16.1046 10.8954 17 12 17C13.1046 17 14 16.1046 14 15C14 13.8954 13.1046 13 12 13ZM5.5 8H18.5V3.5H5.5V8Z" fill="#9E9E9E"/>
</g>
</svg>
