<svg width="24" height="24" viewBox="0 0 24 24" fill="none" xmlns="http://www.w3.org/2000/svg">
<g id="icons/Hardware/storage-card-one">
<path id="Union" d="M7.62695 1.22949C7.66002 1.22612 7.69359 1.22461 7.72754 1.22461H16.5439C16.5779 1.22461 16.6115 1.22612 16.6445 1.22949C16.6779 1.22605 16.7118 1.22462 16.7461 1.22461H18.9941C20.0759 1.22486 20.9531 2.10178 20.9531 3.18359V20.8164C20.9531 21.8983 20.0759 22.7751 18.9941 22.7754H5.2793C4.19734 22.7753 3.32034 21.8984 3.32031 20.8164V3.18359C3.32037 2.10165 4.19735 1.22466 5.2793 1.22461H7.52637C7.56032 1.22461 7.59389 1.22612 7.62695 1.22949ZM5.2793 20.8164H18.9941V3.18359H17.5234V6.12207C17.5234 6.66306 17.0849 7.1025 16.5439 7.10254H7.72754C7.18653 7.10254 6.74805 6.66308 6.74805 6.12207V3.18359H5.2793V20.8164ZM12.9131 9.34863C13.2956 8.96606 13.9153 8.96618 14.2979 9.34863C14.6803 9.73105 14.681 10.3508 14.2988 10.7334L12.0518 12.9805H14.5879C14.9838 12.9807 15.3406 13.2192 15.4922 13.585C15.6437 13.9509 15.5602 14.3722 15.2803 14.6523L11.3594 18.5713C10.9768 18.9536 10.3571 18.9537 9.97461 18.5713C9.59213 18.1887 9.59198 17.568 9.97461 17.1855L12.2217 14.9395H9.6875C9.29131 14.9395 8.93386 14.701 8.78223 14.335C8.63061 13.9689 8.715 13.5477 8.99512 13.2676L12.9131 9.34863ZM8.70703 5.14258H15.5645V3.18359H8.70703V5.14258Z" fill="#9E9E9E"/>
</g>
</svg>
