<svg width="24" height="24" viewBox="0 0 24 24" fill="none" xmlns="http://www.w3.org/2000/svg">
<g id="icons/Hardware/strongbox">
<path id="Union" d="M20.5 1C21.8807 1 23 2.1193 23 3.5V20.5C23 21.8807 21.8807 23 20.5 23H3.5C2.1193 23 1 21.8807 1 20.5V3.5C1 2.11929 2.11929 1 3.5 1H20.5ZM3.5 3C3.22386 3 3 3.22386 3 3.5V20.5C3 20.7762 3.22385 21 3.5 21H20.5C20.7762 21 21 20.7762 21 20.5V3.5C21 3.22385 20.7762 3 20.5 3H3.5ZM6 17C6.5523 17 7 17.4477 7 18C7 18.5523 6.5523 19 6 19C5.4477 19 5 18.5523 5 18C5 17.4477 5.4477 17 6 17ZM18 17C18.5523 17 19 17.4477 19 18C19 18.5523 18.5523 19 18 19C17.4477 19 17 18.5523 17 18C17 17.4477 17.4477 17 18 17ZM12 6.5C15.0376 6.5 17.5 8.96242 17.5 12C17.5 15.0376 15.0376 17.5 12 17.5C8.96242 17.5 6.5 15.0376 6.5 12C6.5 8.96242 8.96242 6.5 12 6.5ZM12 8.5C10.067 8.5 8.5 10.067 8.5 12C8.5 13.933 10.067 15.5 12 15.5C13.933 15.5 15.5 13.933 15.5 12C15.5 10.067 13.933 8.5 12 8.5ZM6 5C6.5523 5 7 5.4477 7 6C7 6.5523 6.5523 7 6 7C5.4477 7 5 6.5523 5 6C5 5.4477 5.4477 5 6 5ZM18 5C18.5523 5 19 5.4477 19 6C19 6.5523 18.5523 7 18 7C17.4477 7 17 6.5523 17 6C17 5.4477 17.4477 5 18 5Z" fill="#9E9E9E"/>
</g>
</svg>
