<svg width="24" height="24" viewBox="0 0 24 24" fill="none" xmlns="http://www.w3.org/2000/svg">
<g id="icons/Hardware/subway">
<path id="Union" d="M19 2C20.1046 2 21 2.89543 21 4V15C21 16.1046 20.1046 17 19 17H18.2266L20.7471 19.8359C21.114 20.2487 21.0768 20.8802 20.6641 21.2471C20.2513 21.614 19.6198 21.5768 19.2529 21.1641L15.5518 17H8.91406L4.70703 21.207C4.31651 21.5976 3.68349 21.5976 3.29297 21.207C2.90244 20.8165 2.90244 20.1835 3.29297 19.793L6.08594 17H5C3.89543 17 3 16.1046 3 15V4C3 2.89543 3.89543 2 5 2H19ZM5 15H19V4H5V15ZM7 12.5C7.55228 12.5 8 12.9477 8 13.5C8 14.0523 7.55228 14.5 7 14.5C6.44772 14.5 6 14.0523 6 13.5C6 12.9477 6.44772 12.5 7 12.5ZM17 12.5C17.5523 12.5 18 12.9477 18 13.5C18 14.0523 17.5523 14.5 17 14.5C16.4477 14.5 16 14.0523 16 13.5C16 12.9477 16.4477 12.5 17 12.5ZM17 5C17.5523 5 18 5.44772 18 6V11C18 11.5523 17.5523 12 17 12H7C6.44772 12 6 11.5523 6 11V6C6 5.44772 6.44772 5 7 5H17ZM8 10H16V7H8V10Z" fill="#9E9E9E"/>
</g>
</svg>
