<svg width="24" height="24" viewBox="0 0 24 24" fill="none" xmlns="http://www.w3.org/2000/svg">
<g id="icons/Hardware/surveillance-cameras">
<path id="Union" d="M21.5001 2C22.0524 2.00004 22.5001 2.44774 22.5001 3C22.5001 3.55226 22.0524 3.99996 21.5001 4H12.5001V10.9746L20.4093 13.0947C20.7196 13.178 20.9711 13.4057 21.0851 13.7061C21.199 14.0064 21.1614 14.3432 20.9845 14.6113L20.8771 14.7725L21.4698 14.9316C22.0032 15.0746 22.3206 15.6229 22.1779 16.1562L21.1417 20.0205C21.073 20.2764 20.9054 20.4944 20.6759 20.627C20.4463 20.7595 20.1732 20.7961 19.9171 20.7275L17.715 20.1367L17.2413 20.8555C17.0042 21.2146 16.5633 21.3819 16.1476 21.2705L2.14172 17.5176C1.88559 17.4489 1.66692 17.2814 1.5343 17.0518C1.40173 16.8221 1.36612 16.5491 1.43469 16.293L3.24622 9.53125C3.31485 9.27511 3.4824 9.05644 3.71204 8.92383C3.94165 8.79128 4.21472 8.75565 4.47083 8.82422L10.5001 10.4395V4H2.50012C1.94784 4 1.50012 3.55228 1.50012 3C1.50012 2.44772 1.94784 2 2.50012 2H21.5001ZM3.62415 15.8438L15.9689 19.1514L16.423 18.4629L18.4044 14.8945C18.4112 14.8823 18.4185 14.8703 18.4259 14.8584C18.4299 14.8519 18.4335 14.8452 18.4376 14.8389C18.4398 14.8355 18.4423 14.8324 18.4445 14.8291L18.5509 14.667L4.91907 11.0146L3.62415 15.8438ZM18.7726 18.3496L19.4689 18.5361L19.9865 16.6045L19.7736 16.5469L18.7726 18.3496Z" fill="#9E9E9E"/>
</g>
</svg>
