<svg width="24" height="24" viewBox="0 0 24 24" fill="none" xmlns="http://www.w3.org/2000/svg">
<g id="icons/Hardware/surveillance-cameras-two">
<path id="Union" d="M3.3457 4.24121C3.48866 3.70787 4.03695 3.39139 4.57031 3.53418L20.5088 7.80469C20.819 7.88798 21.0706 8.11568 21.1846 8.41602C21.2984 8.71638 21.2609 9.05317 21.084 9.32129L20.9766 9.48242L21.5684 9.6416C22.1017 9.78452 22.4191 10.3328 22.2764 10.8662L21.2402 14.7305C21.1715 14.9864 21.0039 15.2044 20.7744 15.3369C20.5448 15.4695 20.2718 15.5061 20.0156 15.4375L17.8145 14.8477L17.3408 15.5654C17.1037 15.9246 16.6628 16.0919 16.2471 15.9805L10.5029 14.4404V18.5C10.5028 19.0522 10.0551 19.5 9.50293 19.5H2.5C1.94778 19.5 1.50011 19.0522 1.5 18.5C1.50005 17.9478 1.94775 17.5 2.5 17.5H8.50293V13.9053L2.24121 12.2275C1.98507 12.1589 1.7664 11.9914 1.63379 11.7617C1.50125 11.5321 1.46562 11.259 1.53418 11.0029L3.3457 4.24121ZM3.72363 10.5537L16.0684 13.8613L16.5225 13.1729L18.5039 9.60449C18.5163 9.58217 18.5299 9.56037 18.5439 9.53906L18.6504 9.37695L5.01855 5.72461L3.72363 10.5537ZM18.8721 13.0596L19.5674 13.2461L20.085 11.3145L19.873 11.2578L18.8721 13.0596Z" fill="#9E9E9E"/>
</g>
</svg>
