<svg width="24" height="24" viewBox="0 0 24 24" fill="none" xmlns="http://www.w3.org/2000/svg">
<g id="icons/Hardware/surveillance-cameras-one">
<path id="Union" d="M2.66797 9.44531C2.97432 8.98579 3.59516 8.86162 4.05469 9.16797L17.0273 17.8164L21.4854 15.1426C21.9589 14.8585 22.5732 15.0119 22.8574 15.4854C23.1415 15.9589 22.9881 16.5732 22.5146 16.8574L17.7861 19.6943C17.2891 19.9926 16.6639 19.9777 16.1816 19.6562L8.85352 14.7705L7.33203 17.0547C7.14657 17.3329 6.83435 17.5 6.5 17.5H4V21C4 21.5523 3.55228 22 3 22C2.44772 22 2 21.5523 2 21V13C2 12.4477 2.44772 12 3 12C3.55228 12 4 12.4477 4 13V15.5H5.96484L7.18945 13.6611L2.94531 10.832C2.48579 10.5257 2.36162 9.90484 2.66797 9.44531ZM6.64746 1.42676C7.11526 1.07639 7.74587 1.03034 8.25977 1.30859L8.36816 1.37305L21.9004 10.2393L22.0605 10.3594C22.8068 11.0004 22.7455 12.2115 21.8838 12.7598L17.3115 15.6689C16.8416 15.9679 16.248 15.9801 15.7686 15.709L15.6748 15.6514L2.98438 7.19141C2.16658 6.64625 2.08582 5.47517 2.82031 4.82227L6.5498 1.50684L6.64746 1.42676ZM4.63281 5.88672L16.5127 13.8057L20.1562 11.4873L7.5918 3.25488L4.63281 5.88672Z" fill="#9E9E9E"/>
</g>
</svg>
