<svg width="24" height="24" viewBox="0 0 24 24" fill="none" xmlns="http://www.w3.org/2000/svg">
<g id="icons/Hardware/switch-nintendo">
<path id="Union" d="M17 2C19.7614 2 22 4.23858 22 7V18C22 20.7614 19.7614 23 17 23H14C12.8954 23 12 22.1046 12 21V4C12 2.89544 12.8954 2 14 2H17ZM9.5 1C10.6046 1 11.5 1.89544 11.5 3V20C11.5 21.1046 10.6046 22 9.5 22H7C4.23858 22 2 19.7614 2 17V6C2 3.23858 4.23858 1 7 1H9.5ZM14 21H17C18.6569 21 20 19.6569 20 18V7C20 5.34314 18.6569 4 17 4H14V21ZM7 3C5.34314 3 4 4.34314 4 6V17C4 18.6569 5.34314 20 7 20H9.5V3H7ZM17 13C17.5523 13 18 13.4477 18 14V14.5H18.5C19.0523 14.5 19.5 14.9477 19.5 15.5C19.5 16.0523 19.0523 16.5 18.5 16.5H18V17C18 17.5523 17.5523 18 17 18C16.4477 18 16 17.5523 16 17V16.5H15.5C14.9477 16.5 14.5 16.0523 14.5 15.5C14.5 14.9477 14.9477 14.5 15.5 14.5H16V14C16 13.4477 16.4477 13 17 13ZM6.75 15C7.44036 15 8 15.5596 8 16.25C8 16.9404 7.44036 17.5 6.75 17.5C6.05964 17.5 5.5 16.9404 5.5 16.25C5.5 15.5596 6.05964 15 6.75 15ZM7.5 7.5C8.05228 7.5 8.5 7.94772 8.5 8.5C8.5 9.05229 8.05228 9.5 7.5 9.5H6C5.44772 9.5 5 9.05229 5 8.5C5 7.94772 5.44772 7.5 6 7.5H7.5ZM17 7C17.6904 7 18.25 7.55964 18.25 8.25C18.25 8.94036 17.6904 9.5 17 9.5C16.3096 9.5 15.75 8.94036 15.75 8.25C15.75 7.55964 16.3096 7 17 7Z" fill="#9E9E9E"/>
</g>
</svg>
