<svg width="24" height="24" viewBox="0 0 24 24" fill="none" xmlns="http://www.w3.org/2000/svg">
<g id="icons/Hardware/switch-one">
<path id="Union" d="M12 1.5C17.799 1.5 22.5 6.20101 22.5 12C22.5 17.799 17.799 22.5 12 22.5C6.20101 22.5 1.5 17.799 1.5 12C1.5 6.20101 6.20101 1.5 12 1.5ZM12 3.5C7.30558 3.5 3.5 7.30558 3.5 12C3.5 16.6944 7.30558 20.5 12 20.5C16.6944 20.5 20.5 16.6944 20.5 12C20.5 7.30558 16.6944 3.5 12 3.5ZM15.373 8.66699C17.3152 8.66699 18.901 10.1923 18.998 12.1104L19.0029 12.2969L19.001 12.3623C19.0014 12.3834 19.0029 12.4046 19.0029 12.4258C19.0029 14.3588 17.4359 15.9258 15.5029 15.9258C15.4873 15.9258 15.4717 15.924 15.4561 15.9238C15.4285 15.9244 15.4007 15.9268 15.373 15.9268H8.62598C6.6217 15.9264 4.99715 14.3012 4.99707 12.2969C4.99707 10.2925 6.62165 8.66735 8.62598 8.66699H15.373ZM8.62598 10.667C7.72621 10.6674 6.99707 11.397 6.99707 12.2969C6.99715 13.1967 7.72627 13.9264 8.62598 13.9268H12.3398C12.1236 13.4719 12.0029 12.9629 12.0029 12.4258C12.0029 11.7844 12.1764 11.1839 12.4775 10.667H8.62598ZM15.5029 10.9258C14.6745 10.9258 14.0029 11.5974 14.0029 12.4258C14.0029 13.2352 14.6441 13.893 15.4463 13.9229C16.2904 13.8856 16.965 13.2082 16.999 12.3633C16.9662 11.5639 16.3104 10.9258 15.5029 10.9258Z" fill="#9E9E9E"/>
</g>
</svg>
