<svg width="24" height="24" viewBox="0 0 24 24" fill="none" xmlns="http://www.w3.org/2000/svg">
<g id="icons/Hardware/table-lamp">
<path id="Union" d="M9.65527 1.06152C10.0162 0.928778 10.4281 1.01403 10.707 1.29297L12.707 3.29297C13.0258 3.61184 13.0919 4.10459 12.8682 4.49609L12.1943 5.67383L21.625 13.2188C22.0342 13.5462 22.121 14.1345 21.8242 14.5664L17.4014 21H19C19.5523 21 20 21.4477 20 22C19.9999 22.5522 19.5522 23 19 23H6C5.44781 23 5.00011 22.5522 5 22C5 21.4477 5.44774 21 6 21H7.5V20C7.5 19.4477 7.94774 19 8.5 19C9.05228 19 9.5 19.4477 9.5 20V21H14.9736L19.6484 14.2002L11.1895 7.43262L8.86816 11.4961C8.71353 11.7666 8.44163 11.9498 8.13281 11.9912C7.82396 12.0325 7.51333 11.9274 7.29297 11.707L2.29297 6.70703C2.07263 6.48669 1.96749 6.17604 2.00879 5.86719C2.05017 5.55835 2.23339 5.28647 2.50391 5.13184L9.50391 1.13184L9.65527 1.06152ZM4.63184 6.21777L7.78125 9.36719L10.7529 4.16699L9.83301 3.24707L4.63184 6.21777Z" fill="#9E9E9E"/>
</g>
</svg>
