<svg width="24" height="24" viewBox="0 0 24 24" fill="none" xmlns="http://www.w3.org/2000/svg">
<g id="icons/Hardware/telescope">
<path id="Union" d="M18 1.5C20.2091 1.5 22 3.29086 22 5.5V18.5C22 20.7091 20.2091 22.5 18 22.5C15.7909 22.5 14 20.7091 14 18.5V15.5C14 14.3954 13.1046 13.5 12 13.5C10.8954 13.5 10 14.3954 10 15.5V18.5C10 20.7091 8.20914 22.5 6 22.5C3.79086 22.5 2 20.7091 2 18.5V5.5C2 3.29086 3.79086 1.5 6 1.5C8.20914 1.5 10 3.29086 10 5.5V7.03613C10.5884 6.69564 11.2712 6.5 12 6.5C12.7288 6.5 13.4116 6.69564 14 7.03613V5.5C14 3.29086 15.7909 1.5 18 1.5ZM6 16.5C4.89543 16.5 4 17.3954 4 18.5C4 19.6046 4.89543 20.5 6 20.5C7.10457 20.5 8 19.6046 8 18.5C8 17.3954 7.10457 16.5 6 16.5ZM18 16.5C16.8954 16.5 16 17.3954 16 18.5C16 19.6046 16.8954 20.5 18 20.5C19.1046 20.5 20 19.6046 20 18.5C20 17.3954 19.1046 16.5 18 16.5ZM6 3.5C4.89543 3.5 4 4.39543 4 5.5V15.0361C4.58844 14.6956 5.27125 14.5 6 14.5C6.72875 14.5 7.41155 14.6956 8 15.0361V5.5C8 4.39543 7.10457 3.5 6 3.5ZM18 3.5C16.8954 3.5 16 4.39543 16 5.5V15.0361C16.5884 14.6956 17.2712 14.5 18 14.5C18.7288 14.5 19.4116 14.6956 20 15.0361V5.5C20 4.39543 19.1046 3.5 18 3.5ZM12 8.5C10.8954 8.5 10 9.39543 10 10.5V12.0361C10.5884 11.6956 11.2712 11.5 12 11.5C12.7288 11.5 13.4116 11.6956 14 12.0361V10.5C14 9.39543 13.1046 8.5 12 8.5Z" fill="#9E9E9E"/>
</g>
</svg>
