<svg width="24" height="24" viewBox="0 0 24 24" fill="none" xmlns="http://www.w3.org/2000/svg">
<g id="icons/Hardware/three-key">
<path id="Union" d="M19.5 2C20.8807 2 22 3.11929 22 4.5V19.5C22 20.8807 20.8807 22 19.5 22H4.5C3.11929 22 2 20.8807 2 19.5V4.5C2 3.11929 3.11929 2 4.5 2H19.5ZM4.5 4C4.22386 4 4 4.22386 4 4.5V19.5C4 19.7761 4.22386 20 4.5 20H19.5C19.7761 20 20 19.7761 20 19.5V4.5C20 4.22386 19.7761 4 19.5 4H4.5ZM14.5 6C14.8819 6 15.2306 6.21747 15.3984 6.56055C15.5662 6.90364 15.5235 7.31278 15.2891 7.61426L12.8281 10.7773C13.3003 10.9342 13.74 11.1607 14.125 11.4688C15.0079 12.1751 15.5 13.2237 15.5 14.5C15.5 15.7855 14.9989 16.7191 14.2246 17.2998C13.4988 17.8441 12.6395 18 12 18C10.4972 18 9.42768 17.3577 8.75977 16.623C8.38827 16.2144 8.41854 15.5815 8.82715 15.21C9.23581 14.8385 9.86873 14.8687 10.2402 15.2773C10.5723 15.6426 11.122 16 12 16C12.3604 16 12.7512 15.9058 13.0254 15.7002C13.2511 15.5309 13.5 15.2143 13.5 14.5C13.5 13.7763 13.2421 13.3249 12.875 13.0312C12.4779 12.7136 11.8475 12.5 11 12.5C10.6181 12.5 10.2694 12.2825 10.1016 11.9395C9.93376 11.5964 9.97645 11.1872 10.2109 10.8857L12.4551 8H9.5C8.94772 8 8.5 7.55228 8.5 7C8.5 6.44772 8.94772 6 9.5 6H14.5Z" fill="#9E9E9E"/>
</g>
</svg>
