<svg width="24" height="24" viewBox="0 0 24 24" fill="none" xmlns="http://www.w3.org/2000/svg">
<g id="icons/Hardware/thunderbolt">
<path id="Union" d="M21 11C22.1046 11 23 11.8954 23 13V15.6807C22.9996 16.6485 22.3304 17.343 21.7197 17.6768C21.3035 17.9043 20.7748 18.3433 20.5791 19.2236C20.3886 20.08 19.6508 21 18.5 21H5.5C4.34926 21 3.61136 20.08 3.4209 19.2236C3.22528 18.3433 2.69648 17.9043 2.28027 17.6768C1.66951 17.343 1.00041 16.6485 1 15.6807V13C1 11.8954 1.89544 11 3 11H21ZM3 15.6807C3.00121 15.6876 3.00751 15.7105 3.03516 15.749C3.07609 15.8059 3.1469 15.8714 3.23926 15.9219C4.00994 16.3431 5.01918 17.1975 5.37305 18.79C5.39227 18.876 5.43524 18.9432 5.47266 18.9785C5.48927 18.9941 5.50066 18.999 5.50293 19H18.4971C18.4993 18.999 18.5107 18.9941 18.5273 18.9785C18.5648 18.9432 18.6077 18.876 18.627 18.79C18.9809 17.1976 19.99 16.3431 20.7607 15.9219C20.8531 15.8714 20.9239 15.8059 20.9648 15.749C20.9925 15.7106 20.9988 15.6876 21 15.6807V13H3V15.6807ZM17 14.5C17.5523 14.5 18 14.9477 18 15.5C17.9998 16.0521 17.5521 16.5 17 16.5H7C6.44786 16.5 6.00023 16.0521 6 15.5C6 14.9477 6.44772 14.5 7 14.5H17ZM11.7412 1.34961C12.1006 0.930284 12.7311 0.881789 13.1504 1.24121C13.5695 1.60066 13.6182 2.23113 13.2588 2.65039L11.6738 4.5H14.5C14.8905 4.5 15.245 4.72735 15.4082 5.08203C15.5712 5.43676 15.5129 5.85398 15.2588 6.15039L12.2588 9.65039C11.8994 10.0694 11.2689 10.1179 10.8496 9.75879C10.4304 9.39944 10.382 8.76894 10.7412 8.34961L12.3262 6.5H9.5C9.10967 6.5 8.7551 6.27245 8.5918 5.91797C8.42866 5.56326 8.48723 5.14611 8.74121 4.84961L11.7412 1.34961Z" fill="#9E9E9E"/>
</g>
</svg>
