<svg width="24" height="24" viewBox="0 0 24 24" fill="none" xmlns="http://www.w3.org/2000/svg">
<g id="icons/Hardware/timer">
<path id="Union" d="M14 1C14.5523 1 15 1.44772 15 2C15 2.55228 14.5523 3 14 3H13V5.05664C14.6112 5.23478 16.094 5.83701 17.334 6.75098L18.293 5.79297C18.6835 5.40244 19.3165 5.40244 19.707 5.79297C20.0976 6.18349 20.0976 6.81651 19.707 7.20703L18.8027 8.11035C20.1707 9.689 21 11.7472 21 14C21 18.9706 16.9706 23 12 23C7.02944 23 3 18.9706 3 14C3 9.36751 6.50014 5.55417 11 5.05664V3H10C9.44772 3 9 2.55228 9 2C9 1.44772 9.44772 1 10 1H14ZM12 7C8.13401 7 5 10.134 5 14C5 17.866 8.13401 21 12 21C15.866 21 19 17.866 19 14C19 10.134 15.866 7 12 7ZM12 10C12.5523 10 13 10.4477 13 11V14C13 14.5523 12.5523 15 12 15H9C8.44772 15 8 14.5523 8 14C8 13.4477 8.44772 13 9 13H11V11C11 10.4477 11.4477 10 12 10Z" fill="#9E9E9E"/>
</g>
</svg>
