<svg width="24" height="24" viewBox="0 0 24 24" fill="none" xmlns="http://www.w3.org/2000/svg">
<g id="icons/Hardware/toilet">
<path id="Union" d="M16.4985 1C17.327 1 17.9985 1.67159 17.9985 2.5V10H20.813C21.5485 10.0002 22.095 10.6812 21.936 11.3984L21.9351 11.3994C21.3193 14.1699 19.6481 16.8111 16.9136 17.9873L18.8726 21.5146C19.0445 21.8242 19.0403 22.2016 18.8608 22.5068C18.6811 22.8121 18.3528 23 17.9985 23H5.99854C5.44647 22.9997 4.99854 22.5521 4.99854 22C4.99854 21.8275 5.04269 21.6651 5.11963 21.5234L7.0835 17.9873C4.34986 16.8108 2.67964 14.1694 2.06396 11.3994C1.90437 10.6814 2.45085 10.0001 3.18604 10H5.99854V2.5C5.99854 1.67175 6.67031 1.00026 7.49854 1H16.4985ZM7.69873 21H16.2993L14.9673 18.6035C14.014 18.8382 13.0009 19 12.0005 19C10.999 19 9.98432 18.8375 9.02979 18.6025L7.69873 21ZM4.31104 12C5.02218 14.0545 6.41913 15.7018 8.3501 16.3311C9.53887 16.7184 10.8181 17 12.0005 17C13.1827 16.9999 14.4615 16.7183 15.6499 16.3311C17.5806 15.7017 18.9769 14.0544 19.688 12H4.31104ZM7.99854 10H8.99854V5C8.99854 4.44788 9.44647 4.00026 9.99854 4H13.9985C14.5508 4 14.9985 4.44772 14.9985 5V10H15.9985V3H7.99854V10ZM10.9985 10H12.9985V6H10.9985V10Z" fill="#9E9E9E"/>
</g>
</svg>
