<svg width="24" height="24" viewBox="0 0 24 24" fill="none" xmlns="http://www.w3.org/2000/svg">
<g id="icons/Hardware/transporter">
<path id="Union" d="M21 3C22.1046 3 23 3.89544 23 5V16C23 17.1046 22.1046 18 21 18C21 19.6568 19.6568 21 18 21C16.3432 21 15 19.6568 15 18H10C10 19.6568 8.65683 21 7 21C5.34317 21 4 19.6568 4 18H2C1.44772 18 1 17.5523 1 17V13.2305C1.00008 12.9516 1.11647 12.6853 1.32129 12.4961L4.82129 9.26562C5.00601 9.09511 5.24861 9 5.5 9H8V5C8 3.89544 8.89541 3 10 3H21ZM6.00488 18.1025C6.05622 18.6067 6.48234 19 7 19C7.51766 19 7.94378 18.6067 7.99512 18.1025L8 18H6L6.00488 18.1025ZM17 18L17.0049 18.1025C17.0562 18.6067 17.4823 19 18 19C18.5177 19 18.9438 18.6067 18.9951 18.1025L19 18H17ZM3 13.6689V16H8V11H5.89062L3 13.6689ZM10 16H21V5H10V16Z" fill="#9E9E9E"/>
</g>
</svg>
