<svg width="24" height="24" viewBox="0 0 24 24" fill="none" xmlns="http://www.w3.org/2000/svg">
<g id="icons/Hardware/truck">
<path id="Union" d="M15.5 4.5C16.0523 4.5 16.5 4.94772 16.5 5.5V8H19.7861L19.9023 8.00684C20.1712 8.03839 20.4177 8.17804 20.583 8.39648L23.7979 12.6465C23.9292 12.8202 24 13.0323 24 13.25V17.5C24 18.0523 23.5523 18.5 23 18.5H20.3262C19.9141 19.6647 18.8058 20.5 17.5 20.5C16.1942 20.5 15.0859 19.6647 14.6738 18.5H8.82617C8.41405 19.6647 7.30583 20.5 6 20.5C4.69415 20.5 3.58594 19.6647 3.17383 18.5H1C0.447715 18.5 0 18.0523 0 17.5V5.5C0 4.94772 0.447715 4.5 1 4.5H15.5ZM6 16.5C5.44772 16.5 5 16.9477 5 17.5C5 18.0523 5.44772 18.5 6 18.5C6.55227 18.5 7 18.0523 7 17.5C7 16.9477 6.55227 16.5 6 16.5ZM17.5 16.5C16.9477 16.5 16.5 16.9477 16.5 17.5C16.5 18.0523 16.9477 18.5 17.5 18.5C18.0523 18.5 18.5 18.0523 18.5 17.5C18.5 16.9477 18.0523 16.5 17.5 16.5ZM16.5 14.6738C16.8131 14.5631 17.149 14.5 17.5 14.5C18.8058 14.5 19.9141 15.3353 20.3262 16.5H22V13.5859L19.2881 10H16.5V14.6738ZM2 16.5H3.17383C3.58594 15.3353 4.69415 14.5 6 14.5C7.30583 14.5 8.41405 15.3353 8.82617 16.5H14.5V6.5H2V16.5Z" fill="#9E9E9E"/>
</g>
</svg>
