<svg width="24" height="24" viewBox="0 0 24 24" fill="none" xmlns="http://www.w3.org/2000/svg">
<g id="icons/Hardware/trumpet">
<path id="Union" d="M8.75 2C11.2396 2 13.4532 3.17545 14.8711 5H19.5C20.8807 5 22 6.11927 22 7.5V12.5C22 13.7094 21.1411 14.7175 20 14.9492V19.5C20 20.8807 18.8807 22 17.5 22C16.1193 22 15 20.8807 15 19.5V15H14.4492C13.033 16.5366 11.0044 17.5 8.75 17.5H7.09961C6.49253 17.5 6 17.0075 6 16.4004V14C3.79086 14 2 12.2091 2 10C2 7.79087 3.79086 6 6 6V3.09961C6 2.49283 6.49223 2 7.09961 2H8.75ZM17 19.5C17 19.7762 17.2238 20 17.5 20C17.7762 20 18 19.7762 18 19.5V15H17V19.5ZM8 15.5H8.75C11.9256 15.5 14.5 12.9256 14.5 9.75C14.5 6.57438 11.9256 4 8.75 4H8V15.5ZM15.9961 7C16.3207 7.85482 16.5 8.78135 16.5 9.75C16.5 10.911 16.2426 12.0113 15.7852 13H19.5C19.7762 13 20 12.7762 20 12.5V7.5C20 7.22383 19.7762 7 19.5 7H15.9961ZM6 8C4.89543 8 4 8.89543 4 10C4 11.1046 4.89543 12 6 12V8Z" fill="#9E9E9E"/>
</g>
</svg>
