<svg width="24" height="24" viewBox="0 0 24 24" fill="none" xmlns="http://www.w3.org/2000/svg">
<g id="icons/Hardware/tv-one" clip-path="url(#clip0_56_10180)">
<path id="Union" d="M16.3242 0.262695C16.7313 -0.110396 17.3641 -0.082823 17.7373 0.324219C18.1104 0.731324 18.0828 1.36412 17.6758 1.7373L14.1162 5H21C22.1046 5 23 5.89546 23 7V20C23 21.1046 22.1046 22 21 22H3C1.89544 22 1 21.1046 1 20V7C1.00005 5.89545 1.89547 5 3 5H8.76172L6.36328 3.02148C5.93744 2.66999 5.8771 2.03924 6.22852 1.61328C6.58 1.18746 7.21077 1.12715 7.63672 1.47852L11.5107 4.6748L16.3242 0.262695ZM3 20H21V7H3V20ZM15.5 8.5C16.0523 8.5 16.5 8.94776 16.5 9.5V17.5C16.5 18.0523 16.0523 18.5 15.5 18.5H5.5C4.94772 18.5 4.5 18.0523 4.5 17.5V9.5C4.50005 8.94776 4.94775 8.5 5.5 8.5H15.5ZM6.5 16.5H14.5V10.5H6.5V16.5ZM19 11.5C19.5523 11.5 20 11.9478 20 12.5V13C20 13.5523 19.5523 14 19 14C18.4477 14 18 13.5523 18 13V12.5C18 11.9478 18.4477 11.5 19 11.5ZM19 8C19.5523 8 20 8.44776 20 9V9.5C20 10.0523 19.5523 10.5 19 10.5C18.4477 10.5 18 10.0523 18 9.5V9C18 8.44776 18.4477 8 19 8Z" fill="#9E9E9E"/>
</g>
<defs>
<clipPath id="clip0_56_10180">
<rect width="24" height="24" fill="white"/>
</clipPath>
</defs>
</svg>
