<svg width="24" height="24" viewBox="0 0 24 24" fill="none" xmlns="http://www.w3.org/2000/svg">
<g id="icons/Hardware/tv">
<path id="Union" d="M18.5039 2.13184C18.9834 1.85788 19.5941 2.02446 19.8682 2.50391C20.1422 2.98341 19.9756 3.59414 19.4961 3.86816L15.7656 6H20.5C21.6045 6 22.4999 6.89548 22.5 8V20C22.5 21.1046 21.6046 22 20.5 22H3.5C2.39543 22 1.5 21.1046 1.5 20V8C1.50005 6.89548 2.39546 6 3.5 6H7.9668L4.47559 3.85156C4.00548 3.56203 3.85905 2.94584 4.14844 2.47559C4.43797 2.00552 5.05418 1.85909 5.52441 2.14844L11.7588 5.98535L18.5039 2.13184ZM3.5 20H20.5V8H3.5V20ZM17.5 16C18.0523 16 18.4999 16.4478 18.5 17C18.5 17.5523 18.0523 18 17.5 18C16.9477 18 16.5 17.5523 16.5 17C16.5001 16.4478 16.9477 16 17.5 16ZM17.5 9C18.0523 9 18.4999 9.44776 18.5 10V13C18.5 13.5523 18.0523 14 17.5 14C16.9477 14 16.5 13.5523 16.5 13V10C16.5001 9.44776 16.9477 9 17.5 9Z" fill="#9E9E9E"/>
</g>
</svg>
