<svg width="24" height="24" viewBox="0 0 24 24" fill="none" xmlns="http://www.w3.org/2000/svg">
<g id="icons/Hardware/two-key">
<path id="Union" d="M19.5 2C20.8807 2 22 3.11929 22 4.5V19.5C22 20.8807 20.8807 22 19.5 22H4.5C3.11929 22 2 20.8807 2 19.5V4.5C2 3.11929 3.11929 2 4.5 2H19.5ZM4.5 4C4.22386 4 4 4.22386 4 4.5V19.5C4 19.7761 4.22386 20 4.5 20H19.5C19.7761 20 20 19.7761 20 19.5V4.5C20 4.22386 19.7761 4 19.5 4H4.5ZM12 6C13.6077 6 15.5 7.25935 15.5 9.5C15.5 10.5132 15.0553 11.3871 14.5254 12.1094C13.9976 12.8286 13.3095 13.4973 12.6934 14.0898C12.0487 14.7098 11.4845 15.2457 11.0693 15.7764C11.0088 15.8538 10.954 15.9285 10.9043 16H14.5C15.0523 16 15.5 16.4477 15.5 17C15.5 17.5523 15.0523 18 14.5 18H9.5C8.94772 18 8.5 17.5523 8.5 17C8.5 16.0349 8.97342 15.2084 9.49316 14.5439C10.0154 13.8764 10.7015 13.2304 11.3066 12.6484C11.9403 12.039 12.5024 11.485 12.9121 10.9268C13.3196 10.3715 13.5 9.91167 13.5 9.5C13.5 8.57405 12.7257 8 12 8C11.2743 8 10.5 8.57406 10.5 9.5C10.5 10.0523 10.0523 10.5 9.5 10.5C8.94772 10.5 8.5 10.0523 8.5 9.5C8.5 7.25934 10.3924 6 12 6Z" fill="#9E9E9E"/>
</g>
</svg>
