<svg width="24" height="24" viewBox="0 0 24 24" fill="none" xmlns="http://www.w3.org/2000/svg">
<g id="icons/Hardware/type-drive">
<path id="Union" d="M21 4C22.1046 4 23 4.89542 23 6V18C23 19.1046 22.1046 20 21 20H3C1.89544 20 1 19.1046 1 18V6C1 4.89541 1.89544 4 3 4H21ZM3 18H4.58594L7 15.5859C7.37505 15.2109 7.88369 15 8.41406 15H15.1299C15.6074 15 16.0692 15.1708 16.4316 15.4814L19.3691 18H21V6H3V18ZM7.41406 18H16.2969L15.1299 17H8.41406L7.41406 18ZM16.5 7.5C18.1569 7.5 19.5 8.84315 19.5 10.5C19.5 12.1569 18.1569 13.5 16.5 13.5H7.5C5.84315 13.5 4.5 12.1569 4.5 10.5C4.5 8.84315 5.84315 7.5 7.5 7.5H16.5ZM7.5 9.5C6.94772 9.5 6.5 9.94772 6.5 10.5C6.5 11.0523 6.94772 11.5 7.5 11.5C8.05228 11.5 8.5 11.0523 8.5 10.5C8.5 9.94772 8.05228 9.5 7.5 9.5ZM10.3262 9.5C10.4369 9.81306 10.5 10.149 10.5 10.5C10.5 10.851 10.4369 11.1869 10.3262 11.5H13.6738C13.5631 11.1869 13.5 10.851 13.5 10.5C13.5 10.149 13.5631 9.81306 13.6738 9.5H10.3262ZM16.5 9.5C15.9477 9.5 15.5 9.94772 15.5 10.5C15.5 11.0523 15.9477 11.5 16.5 11.5C17.0523 11.5 17.5 11.0523 17.5 10.5C17.5 9.94772 17.0523 9.5 16.5 9.5Z" fill="#9E9E9E"/>
</g>
</svg>
