<svg width="24" height="24" viewBox="0 0 24 24" fill="none" xmlns="http://www.w3.org/2000/svg">
<g id="icons/Hardware/u-disk">
<path id="Union" d="M15 1C15.5523 1 16 1.44772 16 2V5H17.3135C17.9687 5.00012 18.4999 5.53127 18.5 6.18652V16.5C18.5 20.0898 15.5898 23 12 23C8.41017 23 5.5 20.0898 5.5 16.5V6.18652C5.50012 5.53127 6.03127 5.00012 6.68652 5H8V2C8 1.44772 8.44772 1 9 1H15ZM7.5 16.5C7.5 18.9853 9.51473 21 12 21C14.4853 21 16.5 18.9853 16.5 16.5V7H7.5V16.5ZM14 13.5C14.5523 13.5 15 13.9477 15 14.5C15 15.0523 14.5523 15.5 14 15.5H10C9.44772 15.5 9 15.0523 9 14.5C9 13.9477 9.44772 13.5 10 13.5H14ZM14 9.5C14.5523 9.5 15 9.94771 15 10.5C15 11.0523 14.5523 11.5 14 11.5H10C9.44772 11.5 9 11.0523 9 10.5C9 9.94771 9.44772 9.5 10 9.5H14ZM10 5H14V3H10V5Z" fill="#9E9E9E"/>
</g>
</svg>
