<svg width="24" height="24" viewBox="0 0 24 24" fill="none" xmlns="http://www.w3.org/2000/svg">
<g id="icons/Hardware/upload-laptop">
<path id="Union" d="M12.5 3.5C13.0523 3.5 13.5 3.94772 13.5 4.5C13.5 5.05228 13.0523 5.5 12.5 5.5H5.5C5.22385 5.5 5 5.72385 5 6V15.5H19V12C19 11.4477 19.4477 11 20 11C20.5523 11 21 11.4477 21 12V15.5H22C22.5523 15.5 23 15.9477 23 16.5V17.5C23 19.7091 21.2091 21.5 19 21.5H5C2.79086 21.5 1 19.7091 1 17.5V16.5C1 15.9477 1.44772 15.5 2 15.5H3V6C3 4.61925 4.1193 3.5 5.5 3.5H12.5ZM3 17.5C3 18.6046 3.89543 19.5 5 19.5H19C20.1046 19.5 21 18.6046 21 17.5H3ZM18.5205 2.50098C18.5381 2.50133 18.5557 2.50165 18.5732 2.50293C18.6225 2.5065 18.6707 2.51396 18.7178 2.52441C18.7269 2.52645 18.736 2.52895 18.7451 2.53125C18.8141 2.54866 18.8799 2.57357 18.9424 2.60449C18.9746 2.62042 19.0064 2.63761 19.0371 2.65723C19.0714 2.67913 19.1045 2.70271 19.1357 2.72852C19.1602 2.74873 19.1841 2.77007 19.207 2.79297L21.707 5.29297C22.0976 5.68349 22.0976 6.31651 21.707 6.70703C21.3165 7.09756 20.6835 7.09756 20.293 6.70703L19.5 5.91406V9.5C19.5 10.0523 19.0523 10.5 18.5 10.5C17.9477 10.5 17.5 10.0523 17.5 9.5V5.91406L16.707 6.70703C16.3165 7.09756 15.6835 7.09756 15.293 6.70703C14.9024 6.31651 14.9024 5.68349 15.293 5.29297L17.793 2.79297C17.8548 2.73117 17.9248 2.67778 18.001 2.63379C18.0154 2.62546 18.0302 2.6179 18.0449 2.61035C18.1073 2.5784 18.1731 2.55257 18.2422 2.53418C18.2588 2.52976 18.2753 2.52503 18.292 2.52148C18.303 2.51916 18.3141 2.51758 18.3252 2.51562C18.3427 2.51252 18.3603 2.50998 18.3779 2.50781C18.3957 2.50565 18.4136 2.50415 18.4316 2.50293C18.4476 2.50184 18.4635 2.50131 18.4795 2.50098C18.4863 2.50084 18.4931 2.5 18.5 2.5C18.5069 2.5 18.5137 2.50084 18.5205 2.50098Z" fill="#9E9E9E"/>
</g>
</svg>
