<svg width="24" height="24" viewBox="0 0 24 24" fill="none" xmlns="http://www.w3.org/2000/svg">
<g id="icons/Hardware/upload-computer">
<path id="Union" d="M12.5 2C13.0523 2 13.5 2.44772 13.5 3C13.5 3.55228 13.0523 4 12.5 4H4.5C4.22386 4 4 4.22386 4 4.5V15.5C4 15.7762 4.22385 16 4.5 16H19.5C19.7762 16 20 15.7762 20 15.5V12C20 11.4477 20.4477 11 21 11C21.5523 11 22 11.4477 22 12V15.5C22 16.8807 20.8807 18 19.5 18H13V20H17C17.5523 20 18 20.4477 18 21C18 21.5523 17.5523 22 17 22H7C6.44772 22 6 21.5523 6 21C6 20.4477 6.44772 20 7 20H11V18H4.5C3.1193 18 2 16.8807 2 15.5V4.5C2 3.11929 3.11929 2 4.5 2H12.5ZM18.5205 2.00098C18.5381 2.00133 18.5557 2.00165 18.5732 2.00293C18.6225 2.0065 18.6707 2.01396 18.7178 2.02441C18.7269 2.02645 18.736 2.02895 18.7451 2.03125C18.8141 2.04866 18.8799 2.07357 18.9424 2.10449C18.9746 2.12042 19.0064 2.13761 19.0371 2.15723C19.0714 2.17913 19.1045 2.20271 19.1357 2.22852C19.1602 2.24873 19.1841 2.27007 19.207 2.29297L21.707 4.79297C22.0976 5.18349 22.0976 5.81651 21.707 6.20703C21.3165 6.59756 20.6835 6.59756 20.293 6.20703L19.5 5.41406V9C19.5 9.55228 19.0523 10 18.5 10C17.9477 10 17.5 9.55228 17.5 9V5.41406L16.707 6.20703C16.3165 6.59756 15.6835 6.59756 15.293 6.20703C14.9024 5.81651 14.9024 5.18349 15.293 4.79297L17.793 2.29297C17.8548 2.23117 17.9248 2.17778 18.001 2.13379C18.0154 2.12546 18.0302 2.1179 18.0449 2.11035C18.1073 2.0784 18.1731 2.05257 18.2422 2.03418C18.2588 2.02976 18.2753 2.02503 18.292 2.02148C18.303 2.01916 18.3141 2.01758 18.3252 2.01562C18.3427 2.01252 18.3603 2.00998 18.3779 2.00781C18.3957 2.00565 18.4136 2.00415 18.4316 2.00293C18.4476 2.00184 18.4635 2.00131 18.4795 2.00098C18.4863 2.00084 18.4931 2 18.5 2C18.5069 2 18.5137 2.00084 18.5205 2.00098Z" fill="#9E9E9E"/>
</g>
</svg>
