<svg width="24" height="24" viewBox="0 0 24 24" fill="none" xmlns="http://www.w3.org/2000/svg">
<g id="icons/Hardware/usb-micro-two">
<path id="Union" d="M20.5 6.5C21.8807 6.5 23 7.61927 23 9V12.0693C23 12.5378 22.8683 12.9973 22.6201 13.3945L20.7891 16.3252C20.3323 17.0559 19.5308 17.4999 18.6689 17.5H5.33105C4.46918 17.4999 3.66771 17.056 3.21094 16.3252L1.37988 13.3945C1.13166 12.9973 1 12.5378 1 12.0693V9C1 7.61925 2.1193 6.5 3.5 6.5H20.5ZM3.5 8.5C3.22385 8.5 3 8.72385 3 9V12.0693C3 12.1631 3.0265 12.2555 3.07617 12.335L4.90723 15.2646C4.99856 15.4108 5.15882 15.4999 5.33105 15.5H18.6689C18.8411 15.4999 19.0014 15.4108 19.0928 15.2646L20.9238 12.335C20.9735 12.2555 21 12.1631 21 12.0693V9C21 8.72383 20.7762 8.5 20.5 8.5H19.5V11.5C19.5 12.0523 19.0523 12.5 18.5 12.5H5.5C4.94772 12.5 4.5 12.0523 4.5 11.5V8.5H3.5ZM6.5 10.5H7C7 9.94772 7.44772 9.5 8 9.5C8.55228 9.5 9 9.94772 9 10.5H9.5C9.5 9.94772 9.94771 9.5 10.5 9.5C11.0523 9.5 11.5 9.94772 11.5 10.5H12.5C12.5 9.94772 12.9477 9.5 13.5 9.5C14.0523 9.5 14.5 9.94772 14.5 10.5H15C15 9.94772 15.4477 9.5 16 9.5C16.5523 9.5 17 9.94772 17 10.5H17.5V8.5H6.5V10.5Z" fill="#9E9E9E"/>
</g>
</svg>
