<svg width="24" height="24" viewBox="0 0 24 24" fill="none" xmlns="http://www.w3.org/2000/svg">
<g id="icons/Hardware/usb-one">
<path id="Union" d="M17 2C17.5523 2 18 2.44772 18 3V9.5H21C21.5523 9.5 22 9.94772 22 10.5V21C22 21.5523 21.5523 22 21 22H3C2.44772 22 2 21.5523 2 21V10.5C2 9.94772 2.44772 9.5 3 9.5H6V3C6 2.44772 6.44772 2 7 2H17ZM4 20H20V11.5H4V20ZM8 9.5H16V4H8V9.5ZM10 5C10.5523 5 11 5.44772 11 6V7C11 7.55228 10.5523 8 10 8C9.44772 8 9 7.55228 9 7V6C9 5.44772 9.44772 5 10 5ZM14 5C14.5523 5 15 5.44772 15 6V7C15 7.55228 14.5523 8 14 8C13.4477 8 13 7.55228 13 7V6C13 5.44772 13.4477 5 14 5Z" fill="#9E9E9E"/>
</g>
</svg>
