<svg width="24" height="24" viewBox="0 0 24 24" fill="none" xmlns="http://www.w3.org/2000/svg">
<g id="icons/Hardware/usb-type-c">
<path id="Union" d="M16.5 6.5C20.7006 6.5 23.125 9.10122 23.125 12C23.125 14.8988 20.7006 17.5 16.5 17.5H7.5C3.29943 17.5 0.874999 14.8988 0.875 12C0.875001 9.10122 3.29943 6.5 7.5 6.5H16.5ZM7.5 8.5C4.20057 8.5 2.875 10.3988 2.875 12C2.875 13.6012 4.20057 15.5 7.5 15.5H16.5C19.7994 15.5 21.125 13.6012 21.125 12C21.125 10.3988 19.7994 8.5 16.5 8.5H7.5ZM16.5 9.5C17.0523 9.5 17.5 9.94772 17.5 10.5V11H18C18.5523 11 19 11.4477 19 12C19 12.5523 18.5523 13 18 13H17.5V13.5C17.5 14.0523 17.0523 14.5 16.5 14.5C15.9477 14.5 15.5 14.0523 15.5 13.5V13H14.5V13.5C14.5 14.0523 14.0523 14.5 13.5 14.5C12.9477 14.5 12.5 14.0523 12.5 13.5V13H11.5V13.5C11.5 14.0523 11.0523 14.5 10.5 14.5C9.94771 14.5 9.5 14.0523 9.5 13.5V13H8.5V13.5C8.5 14.0523 8.05228 14.5 7.5 14.5C6.94772 14.5 6.5 14.0523 6.5 13.5V13H6C5.44772 13 5 12.5523 5 12C5 11.4477 5.44772 11 6 11H6.5V10.5C6.5 9.94772 6.94772 9.5 7.5 9.5C8.05228 9.5 8.5 9.94772 8.5 10.5V11H9.5V10.5C9.5 9.94772 9.94771 9.5 10.5 9.5C11.0523 9.5 11.5 9.94772 11.5 10.5V11H12.5V10.5C12.5 9.94772 12.9477 9.5 13.5 9.5C14.0523 9.5 14.5 9.94772 14.5 10.5V11H15.5V10.5C15.5 9.94772 15.9477 9.5 16.5 9.5Z" fill="#9E9E9E"/>
</g>
</svg>
