<svg width="24" height="24" viewBox="0 0 24 24" fill="none" xmlns="http://www.w3.org/2000/svg">
<g id="icons/Hardware/usb-micro-one">
<path id="Union" d="M20.5 6.5C21.8807 6.5 23 7.61927 23 9V15C23 16.3807 21.8807 17.5 20.5 17.5H3.5C2.1193 17.5 1 16.3807 1 15V9C1 7.61925 2.1193 6.5 3.5 6.5H20.5ZM3.5 8.5C3.22385 8.5 3 8.72385 3 9V15C3 15.2762 3.22385 15.5 3.5 15.5H20.5C20.7762 15.5 21 15.2762 21 15V9C21 8.72383 20.7762 8.5 20.5 8.5H19.5V11.5C19.5 12.0523 19.0523 12.5 18.5 12.5H5.5C4.94772 12.5 4.5 12.0523 4.5 11.5V8.5H3.5ZM6.5 10.5H7C7 9.94772 7.44772 9.5 8 9.5C8.55228 9.5 9 9.94772 9 10.5H9.5C9.5 9.94772 9.94771 9.5 10.5 9.5C11.0523 9.5 11.5 9.94772 11.5 10.5H12.5C12.5 9.94772 12.9477 9.5 13.5 9.5C14.0523 9.5 14.5 9.94772 14.5 10.5H15C15 9.94772 15.4477 9.5 16 9.5C16.5523 9.5 17 9.94772 17 10.5H17.5V8.5H6.5V10.5Z" fill="#9E9E9E"/>
</g>
</svg>
