<svg width="24" height="24" viewBox="0 0 24 24" fill="none" xmlns="http://www.w3.org/2000/svg">
<g id="icons/Hardware/usb-memory-stick">
<path id="Union" d="M16.5 1C17.0523 1 17.5 1.44772 17.5 2V9H19C20.1046 9 21 9.89542 21 11V21C21 22.1046 20.1046 23 19 23H5C3.89544 23 3 22.1046 3 21V11C3 9.89541 3.89544 9 5 9H6.5V2C6.5 1.44772 6.94772 1 7.5 1H16.5ZM5 21H19V11H5V21ZM8.5 9H15.5V3H8.5V9ZM10.5 4C11.0523 4 11.5 4.44772 11.5 5V6C11.5 6.55228 11.0523 7 10.5 7C9.94772 7 9.5 6.55228 9.5 6V5C9.5 4.44772 9.94772 4 10.5 4ZM13.5 4C14.0523 4 14.5 4.44772 14.5 5V6C14.5 6.55228 14.0523 7 13.5 7C12.9477 7 12.5 6.55228 12.5 6V5C12.5 4.44772 12.9477 4 13.5 4Z" fill="#9E9E9E"/>
</g>
</svg>
