<svg width="24" height="24" viewBox="0 0 24 24" fill="none" xmlns="http://www.w3.org/2000/svg">
<g id="icons/Hardware/usb">
<path id="Union" d="M12.0205 1.00098C12.0381 1.00133 12.0557 1.00165 12.0732 1.00293C12.0909 1.00421 12.1085 1.00562 12.126 1.00781C12.1378 1.0093 12.1494 1.01177 12.1611 1.01367C12.1802 1.01676 12.1991 1.02026 12.2178 1.02441C12.2269 1.02645 12.236 1.02895 12.2451 1.03125C12.3141 1.04866 12.3799 1.07357 12.4424 1.10449C12.4746 1.12042 12.5064 1.13761 12.5371 1.15723C12.5449 1.16219 12.5529 1.16671 12.5605 1.17188C12.6122 1.2069 12.6613 1.24722 12.707 1.29297L15.207 3.79297C15.5976 4.18349 15.5976 4.81651 15.207 5.20703C14.8165 5.59756 14.1835 5.59756 13.793 5.20703L13 4.41406V18.6035L17 15.8672V14.8252C15.8355 14.413 15 13.3057 15 12C15 10.3432 16.3432 9 18 9C19.6568 9 21 10.3432 21 12C21 13.3057 20.1645 14.413 19 14.8252V16.3945C19 16.7246 18.8369 17.0333 18.5645 17.2197L13.0381 21H13.5C14.0523 21 14.5 21.4477 14.5 22C14.5 22.5523 14.0523 23 13.5 23H10.5C9.94772 23 9.5 22.5523 9.5 22C9.5 21.4477 9.94772 21 10.5 21H11V19.5576L5.36328 14.9023C5.13339 14.7124 5.00007 14.43 5 14.1318V11.8252C3.83548 11.413 3 10.3057 3 9C3 7.34317 4.34314 6 6 6C7.65683 6 9 7.34317 9 9C9 10.3057 8.16451 11.413 7 11.8252V13.6602L11 16.9639V4.41406L10.207 5.20703C9.81651 5.59756 9.18349 5.59756 8.79297 5.20703C8.40244 4.81651 8.40244 4.18349 8.79297 3.79297L11.293 1.29297C11.3548 1.23117 11.4248 1.17778 11.501 1.13379C11.5154 1.12546 11.5302 1.1179 11.5449 1.11035C11.6073 1.0784 11.6731 1.05257 11.7422 1.03418C11.7588 1.02976 11.7753 1.02503 11.792 1.02148C11.803 1.01916 11.8141 1.01758 11.8252 1.01562C11.8427 1.01252 11.8603 1.00998 11.8779 1.00781C11.8957 1.00565 11.9136 1.00415 11.9316 1.00293C11.9476 1.00184 11.9635 1.00131 11.9795 1.00098C11.9863 1.00084 11.9931 1 12 1C12.0069 1 12.0137 1.00084 12.0205 1.00098ZM18 11C17.4477 11 17 11.4477 17 12C17 12.5523 17.4477 13 18 13C18.5523 13 19 12.5523 19 12C19 11.4477 18.5523 11 18 11ZM6 8C5.44772 8 5 8.44773 5 9C5 9.55227 5.44772 10 6 10C6.55227 10 7 9.55227 7 9C7 8.44773 6.55227 8 6 8Z" fill="#9E9E9E"/>
</g>
</svg>
