<svg width="24" height="24" viewBox="0 0 24 24" fill="none" xmlns="http://www.w3.org/2000/svg">
<g id="icons/Hardware/vacuum-cleaner">
<path id="Union" d="M16 1C17.2714 1 18.298 1.487 18.9971 2.27344C19.6798 3.04147 20 4.03693 20 5V16H21.625C22.1293 16 22.5546 16.3755 22.6172 16.876L22.9922 19.876C23.0278 20.1606 22.9398 20.4471 22.75 20.6621C22.5602 20.8771 22.2868 21 22 21H16C15.7132 21 15.4398 20.8771 15.25 20.6621C15.0602 20.4471 14.9722 20.1606 15.0078 19.876L15.3828 16.876C15.4454 16.3755 15.8707 16 16.375 16H18V5C18 4.46307 17.8202 3.95853 17.5029 3.60156C17.202 3.263 16.7286 3 16 3C15.2714 3 14.798 3.263 14.4971 3.60156C14.1798 3.95853 14 4.46307 14 5V11.25H13.9902C13.9963 11.3749 14 11.5006 14 11.627V19.9434C13.9999 20.5268 13.5269 20.9999 12.9434 21H5C2.79086 21 1 19.2091 1 17C1 15.7369 1.58571 14.611 2.5 13.8779V7.87305C2.5 5.73421 4.2342 4 6.37305 4C6.52783 4.00001 6.68148 4.00555 6.83398 4.01465C6.88803 4.00561 6.94339 4 7 4C7.12383 4 7.24211 4.0233 7.35156 4.06445C9.18415 4.2993 10.8131 5.18276 12 6.47949V5C12 4.03693 12.3202 3.04147 13.0029 2.27344C13.702 1.487 14.7286 1 16 1ZM5 15C4.74098 15 4.49377 15.05 4.2666 15.1396C4.12458 15.3097 3.92822 15.432 3.70312 15.4785C3.27317 15.8454 3 16.3905 3 17C3 18.1046 3.89543 19 5 19C6.10457 19 7 18.1046 7 17C7 15.8954 6.10457 15 5 15ZM8 14.3555C8.62198 15.0605 9 15.9859 9 17C9 17.7288 8.80436 18.4116 8.46387 19H12V11.627C11.9998 9.0851 10.3143 6.93727 8 6.23926V14.3555ZM17.1328 19H20.8672L20.7422 18H17.2578L17.1328 19ZM6 6.03711C5.14438 6.2101 4.5 6.96651 4.5 7.87305V13.0312C4.66381 13.0108 4.83066 13 5 13C5.3453 13 5.68038 13.0437 6 13.126V6.03711Z" fill="#9E9E9E"/>
</g>
</svg>
