<svg width="24" height="24" viewBox="0 0 24 24" fill="none" xmlns="http://www.w3.org/2000/svg">
<g id="icons/Hardware/videocamera">
<path id="Union" d="M17 4.5C18.1046 4.5 19 5.39543 19 6.5V7.88184L21.5527 6.60547C21.8626 6.45051 22.2306 6.46733 22.5254 6.64941C22.8202 6.83162 23 7.15342 23 7.5V16.5C23 16.8466 22.8202 17.1684 22.5254 17.3506C22.2306 17.5327 21.8626 17.5495 21.5527 17.3945L19 16.1182V17.5C19 18.6046 18.1046 19.5 17 19.5H3C1.89543 19.5 1 18.6046 1 17.5V6.5C1 5.39543 1.89543 4.5 3 4.5H17ZM3 17.5H17V6.5H3V17.5ZM10 8C12.2091 8 14 9.79086 14 12C14 14.2091 12.2091 16 10 16C7.79086 16 6 14.2091 6 12C6 9.79086 7.79086 8 10 8ZM19 10.1182V13.8818L21 14.8818V9.11816L19 10.1182ZM10 10C8.89543 10 8 10.8954 8 12C8 13.1046 8.89543 14 10 14C11.1046 14 12 13.1046 12 12C12 10.8954 11.1046 10 10 10Z" fill="#9E9E9E"/>
</g>
</svg>
