<svg width="24" height="24" viewBox="0 0 24 24" fill="none" xmlns="http://www.w3.org/2000/svg">
<g id="icons/Hardware/videocamera-one">
<path id="Union" d="M13.5 3C15.433 3 17 4.567 17 6.5C17 7.77349 16.3196 8.88765 15.3027 9.5H16.5C17.6046 9.5 18.5 10.3954 18.5 11.5V11.9609L21.5938 10.5859C21.903 10.4485 22.2611 10.4768 22.5449 10.6611C22.8288 10.8456 23 11.1615 23 11.5V19.5C23 19.8385 22.8288 20.1544 22.5449 20.3389C22.2611 20.5232 21.903 20.5515 21.5938 20.4141L18.5 19.0391V19.5C18.5 20.6046 17.6046 21.5 16.5 21.5H3C1.89543 21.5 1 20.6046 1 19.5V11.5C1 10.3954 1.89543 9.5 3 9.5H4.69727C3.68042 8.88765 3 7.77349 3 6.5C3 4.567 4.567 3 6.5 3C8.433 3 10 4.567 10 6.5C10 7.77349 9.31958 8.88765 8.30273 9.5H11.6973C10.6804 8.88765 10 7.77349 10 6.5C10 4.567 11.567 3 13.5 3ZM3 19.5H16.5V11.5H3V19.5ZM14.5 12.5C15.0523 12.5 15.5 12.9477 15.5 13.5V17.5C15.5 18.0523 15.0523 18.5 14.5 18.5H10C9.44771 18.5 9 18.0523 9 17.5V13.5C9 12.9477 9.44771 12.5 10 12.5H14.5ZM18.5 14.1494V16.8496L21 17.9609V13.0391L18.5 14.1494ZM11 16.5H13.5V14.5H11V16.5ZM6.5 5C5.67157 5 5 5.67157 5 6.5C5 7.32843 5.67157 8 6.5 8C7.32843 8 8 7.32843 8 6.5C8 5.67157 7.32843 5 6.5 5ZM13.5 5C12.6716 5 12 5.67157 12 6.5C12 7.32843 12.6716 8 13.5 8C14.3284 8 15 7.32843 15 6.5C15 5.67157 14.3284 5 13.5 5Z" fill="#9E9E9E"/>
</g>
</svg>
