<svg width="24" height="24" viewBox="0 0 24 24" fill="none" xmlns="http://www.w3.org/2000/svg">
<g id="icons/Hardware/virtual-reality-glasses">
<path id="Union" d="M21.5 7C22.3284 7 23 7.67157 23 8.5V19.5C23 20.3284 22.3284 21 21.5 21H15C14.7348 21 14.4805 20.8946 14.293 20.707L12.0029 18.4141L9.70605 20.708C9.5186 20.8949 9.26475 21 9 21H2.5C1.67159 21 1 20.3284 1 19.5V8.5C1 7.67155 1.67159 7 2.5 7H21.5ZM3 19H8.58594L11.2979 16.293L11.374 16.2246C11.767 15.9047 12.3461 15.9277 12.7119 16.2939L15.4141 19H21V9H3V19ZM7 11C8.65683 11 10 12.3432 10 14C10 15.6568 8.65683 17 7 17C5.34317 17 4 15.6568 4 14C4 12.3432 5.34317 11 7 11ZM17 11C18.6568 11 20 12.3432 20 14C20 15.6568 18.6568 17 17 17C15.3432 17 14 15.6568 14 14C14 12.3432 15.3432 11 17 11ZM7 13C6.44773 13 6 13.4477 6 14C6 14.5523 6.44773 15 7 15C7.55227 15 8 14.5523 8 14C8 13.4477 7.55227 13 7 13ZM17 13C16.4477 13 16 13.4477 16 14C16 14.5523 16.4477 15 17 15C17.5523 15 18 14.5523 18 14C18 13.4477 17.5523 13 17 13ZM21 4C21.5523 4 22 4.44772 22 5C22 5.55228 21.5523 6 21 6H3C2.44772 6 2 5.55228 2 5C2 4.44772 2.44772 4 3 4H21Z" fill="#9E9E9E"/>
</g>
</svg>
