<svg width="24" height="24" viewBox="0 0 24 24" fill="none" xmlns="http://www.w3.org/2000/svg">
<g id="icons/Hardware/vr-glasses">
<path id="Union" d="M23 5C23.5523 5 24 5.44772 24 6V18C24 18.5523 23.5523 19 23 19H15C14.7348 19 14.4805 18.8946 14.293 18.707L12 16.4141L9.70703 18.707C9.5195 18.8946 9.26522 19 9 19H1C0.447715 19 0 18.5523 0 18V6C0 5.44772 0.447715 5 1 5H23ZM2 17H8.58594L11.293 14.293L11.3691 14.2246C11.7619 13.9043 12.3409 13.9269 12.707 14.293L15.4141 17H22V7H2V17ZM6.5 9C8.15683 9 9.5 10.3432 9.5 12C9.5 13.6568 8.15683 15 6.5 15C4.84317 15 3.5 13.6568 3.5 12C3.5 10.3432 4.84317 9 6.5 9ZM17.5 9C19.1568 9 20.5 10.3432 20.5 12C20.5 13.6568 19.1568 15 17.5 15C15.8432 15 14.5 13.6568 14.5 12C14.5 10.3432 15.8432 9 17.5 9ZM6.5 11C5.94773 11 5.5 11.4477 5.5 12C5.5 12.5523 5.94773 13 6.5 13C7.05227 13 7.5 12.5523 7.5 12C7.5 11.4477 7.05227 11 6.5 11ZM17.5 11C16.9477 11 16.5 11.4477 16.5 12C16.5 12.5523 16.9477 13 17.5 13C18.0523 13 18.5 12.5523 18.5 12C18.5 11.4477 18.0523 11 17.5 11Z" fill="#9E9E9E"/>
</g>
</svg>
