<svg width="24" height="24" viewBox="0 0 24 24" fill="none" xmlns="http://www.w3.org/2000/svg">
<g id="icons/Hardware/washing-machine">
<path id="Union" d="M18.9941 1.22461C20.0759 1.22486 20.9531 2.10177 20.9531 3.18359V20.8164C20.9531 21.8983 20.0759 22.7751 18.9941 22.7754H5.2793C4.19734 22.7753 3.32034 21.8984 3.32031 20.8164V3.18359C3.32037 2.10165 4.19735 1.22466 5.2793 1.22461H18.9941ZM5.2793 20.8164H18.9941V8.81641H5.2793V20.8164ZM12.1357 10.5303C14.5702 10.5303 16.5439 12.504 16.5439 14.9385C16.5439 17.3729 14.5702 19.3466 12.1357 19.3467C9.70123 19.3467 7.72761 17.373 7.72754 14.9385C7.72754 12.5039 9.70118 10.5303 12.1357 10.5303ZM12.1357 12.4893C10.7832 12.4893 9.68652 13.5859 9.68652 14.9385C9.6866 16.2909 10.7833 17.3877 12.1357 17.3877C13.4882 17.3876 14.5849 16.2909 14.585 14.9385C14.585 13.586 13.4882 12.4893 12.1357 12.4893ZM5.2793 6.85742H18.9941V3.18359H5.2793V6.85742ZM14.0947 4.16309C14.6357 4.16309 15.0742 4.60161 15.0742 5.14258C15.0742 5.68359 14.6357 6.12207 14.0947 6.12207C13.5538 6.12202 13.1152 5.68356 13.1152 5.14258C13.1153 4.60164 13.5538 4.16314 14.0947 4.16309ZM17.0342 4.16309C17.5752 4.16309 18.0136 4.60161 18.0137 5.14258C18.0137 5.68359 17.5752 6.12207 17.0342 6.12207C16.4932 6.12202 16.0547 5.68356 16.0547 5.14258C16.0547 4.60164 16.4932 4.16314 17.0342 4.16309Z" fill="#9E9E9E"/>
</g>
</svg>
