<svg width="24" height="24" viewBox="0 0 24 24" fill="none" xmlns="http://www.w3.org/2000/svg">
<g id="icons/Hardware/washing-machine-one">
<path id="Union" d="M19 1C20.1046 1 21 1.89543 21 3V21C21 22.1046 20.1046 23 19 23H5C3.89543 23 3 22.1046 3 21V3C3 1.89543 3.89543 1 5 1H19ZM5 21H19V8H5V21ZM12 10C14.4853 10 16.5 12.0147 16.5 14.5C16.5 16.9853 14.4853 19 12 19C9.51472 19 7.5 16.9853 7.5 14.5C7.5 12.0147 9.51472 10 12 10ZM12 12C10.6193 12 9.5 13.1193 9.5 14.5C9.5 15.8807 10.6193 17 12 17C13.3807 17 14.5 15.8807 14.5 14.5C14.5 13.1193 13.3807 12 12 12ZM5 6H19V3H5V6ZM7 3.5C7.55228 3.5 8 3.94772 8 4.5C8 5.05228 7.55228 5.5 7 5.5C6.44772 5.5 6 5.05228 6 4.5C6 3.94772 6.44772 3.5 7 3.5ZM10 3.5C10.5523 3.5 11 3.94772 11 4.5C11 5.05228 10.5523 5.5 10 5.5C9.44772 5.5 9 5.05228 9 4.5C9 3.94772 9.44772 3.5 10 3.5Z" fill="#9E9E9E"/>
</g>
</svg>
