<svg width="24" height="24" viewBox="0 0 24 24" fill="none" xmlns="http://www.w3.org/2000/svg">
<g id="icons/Hardware/watch-one">
<path id="Union" d="M13.5 1C14.6046 1 15.5 1.89544 15.5 3V6.52441C17.3035 7.67961 18.5 9.69929 18.5 12C18.5 14.3005 17.3033 16.3194 15.5 17.4746V21C15.5 22.1046 14.6046 23 13.5 23H10.5C9.39542 23 8.5 22.1046 8.5 21V17.4746C6.69675 16.3194 5.5 14.3005 5.5 12C5.5 9.69929 6.6965 7.67961 8.5 6.52441V3C8.5 1.89544 9.39541 1 10.5 1H13.5ZM13.5 18.3232C13.0183 18.4371 12.5165 18.5 12 18.5C11.4835 18.5 10.9817 18.4371 10.5 18.3232V21H13.5V18.3232ZM12 7.5C9.51472 7.5 7.5 9.51472 7.5 12C7.5 14.4853 9.51472 16.5 12 16.5C14.4853 16.5 16.5 14.4853 16.5 12C16.5 9.51472 14.4853 7.5 12 7.5ZM12.5 9.5C13.0523 9.5 13.5 9.94771 13.5 10.5V12.5C13.5 13.0523 13.0523 13.5 12.5 13.5H10.5C9.94772 13.5 9.5 13.0523 9.5 12.5C9.5 11.9477 9.94772 11.5 10.5 11.5H11.5V10.5C11.5 9.94771 11.9477 9.5 12.5 9.5ZM10.5 5.67578C10.9816 5.56198 11.4836 5.5 12 5.5C12.5164 5.5 13.0184 5.56198 13.5 5.67578V3H10.5V5.67578Z" fill="#9E9E9E"/>
</g>
</svg>
