<svg width="24" height="24" viewBox="0 0 24 24" fill="none" xmlns="http://www.w3.org/2000/svg">
<g id="icons/Hardware/webcam">
<path id="Union" d="M20.0186 13.8848C20.3129 13.8644 20.6015 13.9754 20.8066 14.1875C22.7832 16.233 24 18.9782 24 22C24 22.5523 23.5523 23 23 23H1C0.447715 23 0 22.5523 0 22C1.66417e-05 18.9782 1.21682 16.2329 3.19336 14.1875L3.27441 14.1133C3.47104 13.9502 3.72384 13.867 3.98145 13.8848C4.27603 13.9052 4.5468 14.0553 4.7207 14.2939C6.3589 16.5422 9.00914 18 12 18C14.9909 18 17.6411 16.5422 19.2793 14.2939L19.3486 14.209C19.521 14.02 19.7607 13.9027 20.0186 13.8848ZM20.1035 16.4375C18.0939 18.6258 15.2077 20 12 20C8.79209 20 5.90512 18.6261 3.89551 16.4375C2.89545 17.7497 2.24275 19.3095 2.05664 21H21.9434C21.7572 19.3093 21.1038 17.7498 20.1035 16.4375ZM12 1C16.1421 1 19.5 4.35787 19.5 8.5C19.5 12.6421 16.1421 16 12 16C7.85787 16 4.5 12.6421 4.5 8.5C4.5 4.35787 7.85787 1 12 1ZM12 3C8.96243 3 6.5 5.46243 6.5 8.5C6.5 11.5376 8.96243 14 12 14C15.0376 14 17.5 11.5376 17.5 8.5C17.5 5.46243 15.0376 3 12 3ZM12 5C13.933 5 15.5 6.56702 15.5 8.5C15.5 10.433 13.933 12 12 12C10.067 12 8.5 10.433 8.5 8.5C8.5 6.56702 10.067 5 12 5ZM12 7C11.1716 7 10.5 7.67158 10.5 8.5C10.5 9.32841 11.1716 10 12 10C12.8284 10 13.5 9.32841 13.5 8.5C13.5 7.67158 12.8284 7 12 7Z" fill="#9E9E9E"/>
</g>
</svg>
