<svg width="24" height="24" viewBox="0 0 24 24" fill="none" xmlns="http://www.w3.org/2000/svg">
<g id="icons/Hardware/zero-key">
<path id="Union" d="M19.5 2C20.8807 2 22 3.11929 22 4.5V19.5C22 20.8807 20.8807 22 19.5 22H4.5C3.11929 22 2 20.8807 2 19.5V4.5C2 3.11929 3.11929 2 4.5 2H19.5ZM4.5 4C4.22386 4 4 4.22386 4 4.5V19.5C4 19.7761 4.22386 20 4.5 20H19.5C19.7761 20 20 19.7761 20 19.5V4.5C20 4.22386 19.7761 4 19.5 4H4.5ZM12 6C13.933 6 15.5 7.567 15.5 9.5V14.5C15.5 16.433 13.933 18 12 18C10.067 18 8.5 16.433 8.5 14.5V9.5C8.5 7.567 10.067 6 12 6ZM12 8C11.1716 8 10.5 8.67157 10.5 9.5V14.5C10.5 15.3284 11.1716 16 12 16C12.8284 16 13.5 15.3284 13.5 14.5V9.5C13.5 8.67157 12.8284 8 12 8Z" fill="#9E9E9E"/>
</g>
</svg>
