<svg width="24" height="24" viewBox="0 0 24 24" fill="none" xmlns="http://www.w3.org/2000/svg">
<g id="icons/Makeups/barber-clippers">
<path id="Union" d="M16.5 1C17.0523 1 17.5 1.44772 17.5 2V3H19C19.5523 3 20 3.44772 20 4V8.5C20 8.54645 19.9954 8.59196 19.9893 8.63672C19.9876 8.64883 19.9855 8.66083 19.9834 8.67285C19.9669 8.76738 19.9375 8.85702 19.8965 8.94043C19.8942 8.945 19.892 8.94956 19.8896 8.9541C19.8678 8.99676 19.8429 9.03733 19.8154 9.07617C19.8144 9.07756 19.8145 9.07967 19.8135 9.08105L17.5 12.3193V18H16.5C17.4639 18 17.4987 18.0004 17.5 18.001V18.0293C17.4998 18.043 17.4988 18.0609 17.498 18.082C17.4965 18.1246 17.4939 18.1822 17.4883 18.252C17.4771 18.3912 17.4546 18.5829 17.4121 18.8096C17.3279 19.2587 17.1577 19.8696 16.8086 20.4902C16.0733 21.7973 14.62 23 12 23C9.38001 23 7.92668 21.7973 7.19141 20.4902C6.8423 19.8696 6.67213 19.2587 6.58789 18.8096C6.5454 18.5829 6.52291 18.3912 6.51172 18.252C6.50611 18.1822 6.50355 18.1246 6.50195 18.082C6.50116 18.0609 6.50025 18.043 6.5 18.0293V18.001C6.50126 18.0004 6.5361 18 7.5 18H6.5V12.3193L4.18652 9.08105C4.18542 9.07951 4.18469 9.07772 4.18359 9.07617C4.15614 9.03735 4.13116 8.99674 4.10938 8.9541C4.10706 8.94956 4.10479 8.945 4.10254 8.94043C4.06156 8.85708 4.03209 8.76729 4.01562 8.67285C4.01351 8.66084 4.01144 8.64882 4.00977 8.63672C4.00365 8.592 4 8.5464 4 8.5V4C4 3.44772 4.44772 3 5 3H6.5V2C6.5 1.44772 6.94772 1 7.5 1C8.05228 1 8.5 1.44772 8.5 2V3H9.5V2C9.5 1.44772 9.94772 1 10.5 1C11.0523 1 11.5 1.44772 11.5 2V3H12.5V2C12.5 1.44772 12.9477 1 13.5 1C14.0523 1 14.5 1.44772 14.5 2V3H15.5V2C15.5 1.44772 15.9477 1 16.5 1ZM8.31348 11.4189C8.43462 11.5885 8.5 11.7916 8.5 12V18.0078C8.50061 18.0239 8.5027 18.0525 8.50586 18.0918C8.51224 18.1712 8.52496 18.2922 8.55273 18.4404C8.60914 18.7412 8.72036 19.1306 8.93359 19.5098C9.32335 20.2027 10.1201 21 12 21C13.8799 21 14.6766 20.2027 15.0664 19.5098C15.2796 19.1306 15.3909 18.7412 15.4473 18.4404C15.475 18.2922 15.4878 18.1712 15.4941 18.0918C15.4973 18.0525 15.4994 18.0239 15.5 18.0078V12C15.5 11.7916 15.5654 11.5885 15.6865 11.4189L17.0566 9.5H6.94336L8.31348 11.4189ZM12 13C13.3807 13 14.5 14.1193 14.5 15.5V17.5C14.5 18.8807 13.3807 20 12 20C10.6193 20 9.5 18.8807 9.5 17.5V15.5C9.5 14.1193 10.6193 13 12 13ZM12 15C11.7239 15 11.5 15.2239 11.5 15.5V17.5C11.5 17.7761 11.7239 18 12 18C12.2761 18 12.5 17.7761 12.5 17.5V15.5C12.5 15.2239 12.2761 15 12 15ZM6 7.5H18V5H17.5C17.5 5.55228 17.0523 6 16.5 6C15.9477 6 15.5 5.55228 15.5 5H14.5C14.5 5.55228 14.0523 6 13.5 6C12.9477 6 12.5 5.55228 12.5 5H11.5C11.5 5.55228 11.0523 6 10.5 6C9.94772 6 9.5 5.55228 9.5 5H8.5C8.5 5.55228 8.05228 6 7.5 6C6.94772 6 6.5 5.55228 6.5 5H6V7.5Z" fill="#9E9E9E"/>
</g>
</svg>
