<svg width="24" height="24" viewBox="0 0 24 24" fill="none" xmlns="http://www.w3.org/2000/svg">
<g id="icons/Makeups/barber-brush">
<path id="Union" d="M11.4999 1C14.4438 1 16.3984 1.80652 17.6395 2.68262C18.2544 3.11665 18.6795 3.55869 18.9579 3.9043C19.0969 4.07693 19.1996 4.22574 19.2704 4.33789C19.3055 4.3936 19.333 4.44032 19.3534 4.47656C19.3636 4.49468 19.3721 4.51077 19.3788 4.52344C19.3821 4.52961 19.3851 4.53523 19.3876 4.54004C19.3888 4.54241 19.3904 4.54484 19.3915 4.54688C19.392 4.54789 19.393 4.54888 19.3934 4.5498V4.55176C19.3892 4.55464 19.3281 4.58591 18.4999 5L19.3944 4.55273C19.5352 4.83426 19.5352 5.16574 19.3944 5.44727L16.0448 12.1445C16.0628 12.1925 16.0829 12.2423 16.1014 12.2949C16.2554 12.7323 16.4295 13.3515 16.4833 14.0449C16.537 14.7376 16.4741 15.5521 16.1063 16.3359C15.7297 17.1386 15.0673 17.8344 14.0555 18.3184C14.0483 18.3218 14.0404 18.3258 14.0331 18.3291C13.9381 18.3717 13.9341 18.3979 13.9452 18.3799C13.9418 18.3916 13.9366 18.4232 13.9393 18.4834C13.95 18.7167 14.0791 19.0921 14.3475 19.5684C14.6019 20.0195 14.9227 20.4592 15.1884 20.7939C15.3194 20.9591 15.4334 21.094 15.5135 21.1865C15.5534 21.2325 15.5847 21.268 15.6053 21.291C15.6156 21.3024 15.6231 21.3113 15.6278 21.3164C15.6299 21.3187 15.6318 21.3203 15.6327 21.3213C15.9021 21.6132 15.9736 22.0375 15.8143 22.4014C15.655 22.765 15.2953 22.9999 14.8983 23H8.10144C7.69637 22.9998 7.33084 22.7554 7.17664 22.3809C7.02245 22.006 7.11039 21.5743 7.39832 21.2891L7.42371 21.2637C7.44366 21.2432 7.4744 21.2116 7.51355 21.1699C7.59222 21.0862 7.7047 20.9632 7.83386 20.8115C8.09605 20.5037 8.41072 20.0972 8.66003 19.6719C8.92149 19.2257 9.04967 18.8611 9.06042 18.6162C9.06507 18.5103 9.04631 18.4564 9.0321 18.4287C9.02027 18.4056 8.98664 18.3525 8.87683 18.2842C7.90328 17.8018 7.26156 17.1205 6.89343 16.3359C6.52567 15.5521 6.46277 14.7375 6.51648 14.0449C6.57026 13.3516 6.74436 12.7323 6.89832 12.2949C6.91669 12.2427 6.93614 12.1932 6.95398 12.1455L3.60535 5.44727C3.46461 5.16576 3.46461 4.83424 3.60535 4.55273L4.49988 5C3.66678 4.58345 3.60992 4.55433 3.60632 4.55176V4.5498C3.60679 4.54888 3.60775 4.54789 3.60828 4.54688C3.6093 4.54485 3.61096 4.54241 3.61218 4.54004C3.61466 4.53523 3.6177 4.52962 3.62097 4.52344C3.62768 4.51077 3.6362 4.49468 3.64636 4.47656C3.66671 4.44032 3.69423 4.3936 3.72937 4.33789C3.80013 4.22575 3.90281 4.07693 4.04187 3.9043C4.32027 3.5587 4.74538 3.11665 5.36023 2.68262C6.60139 1.80651 8.55595 1.00002 11.4999 1ZM8.77136 13C8.65846 13.3287 8.54528 13.7529 8.51062 14.1992C8.47447 14.6654 8.52654 15.1081 8.70398 15.4863C8.85146 15.8006 9.11008 16.1243 9.58875 16.3994L9.8075 16.5146L9.88953 16.5586C10.2908 16.7986 10.6076 17.1192 10.8114 17.5166C11.0133 17.9103 11.0753 18.3219 11.0585 18.7041C11.0263 19.4357 10.7041 20.1392 10.3856 20.6826C10.322 20.7913 10.2538 20.8964 10.1864 21H12.8768C12.7839 20.8549 12.692 20.7045 12.6053 20.5508C12.2942 19.9989 11.9736 19.287 11.9413 18.5732C11.9243 18.1978 11.9859 17.7792 12.2098 17.3867C12.4342 16.9938 12.7777 16.7052 13.1923 16.5146C13.8138 16.2174 14.1272 15.8456 14.2958 15.4863C14.4732 15.1081 14.5253 14.6654 14.4891 14.1992C14.4545 13.7529 14.3413 13.3287 14.2284 13H8.77136ZM11.4999 3C8.94404 3.00002 7.39836 3.69353 6.51453 4.31738C6.11548 4.59907 5.83998 4.8757 5.66101 5.08594L8.61804 11H9.31921L8.51355 6.16406C8.42297 5.61945 8.79121 5.1045 9.33582 5.01367C9.88046 4.92307 10.3954 5.29128 10.4862 5.83594L11.3466 11H11.6532L12.5135 5.83594C12.6043 5.29131 13.1193 4.92313 13.6639 5.01367C14.2086 5.10445 14.5768 5.61941 14.4862 6.16406L13.6805 11H14.3817L17.3378 5.08594C17.1588 4.87575 16.884 4.59885 16.4852 4.31738C15.6014 3.69354 14.0557 3 11.4999 3Z" fill="#9E9E9E"/>
</g>
</svg>
