<svg width="24" height="24" viewBox="0 0 24 24" fill="none" xmlns="http://www.w3.org/2000/svg">
<g id="icons/Makeups/beauty-instrument">
<path id="Union" d="M17.5 1C19.1569 1 20.5 2.34315 20.5 4V8C20.5 9.55028 19.324 10.8247 17.8154 10.9824L15.4785 22.2041C15.3818 22.6677 14.9736 23 14.5 23H9.5C9.0264 23 8.61818 22.6677 8.52148 22.2041L6.18359 10.9824C4.67552 10.8243 3.5 9.54995 3.5 8V4C3.5 2.34315 4.84315 1 6.5 1H17.5ZM10.3125 21H13.6875L14.3125 18H9.6875L10.3125 21ZM9.27051 16H14.7295L15.042 14.5H8.95801L9.27051 16ZM8.54199 12.5H15.458L15.7705 11H8.22949L8.54199 12.5ZM6.5 3C5.94772 3 5.5 3.44772 5.5 4V8C5.5 8.55228 5.94772 9 6.5 9H17.5C18.0523 9 18.5 8.55228 18.5 8V4C18.5 3.44772 18.0523 3 17.5 3H6.5ZM15 5C15.5523 5 16 5.44772 16 6C16 6.55228 15.5523 7 15 7H8.5C7.94772 7 7.5 6.55228 7.5 6C7.5 5.44772 7.94772 5 8.5 5H15Z" fill="#9E9E9E"/>
</g>
</svg>
