<svg width="24" height="24" viewBox="0 0 24 24" fill="none" xmlns="http://www.w3.org/2000/svg">
<g id="icons/Makeups/blade">
<path id="Union" d="M18.5 5C19.6046 5 20.5 5.89542 20.5 7V7.5H21C22.1046 7.5 23 8.39542 23 9.5V14.5C23 15.6046 22.1046 16.5 21 16.5H20.5V17C20.5 18.1046 19.6046 19 18.5 19H5C3.89544 19 3 18.1046 3 17V16.5C1.89544 16.5 1 15.6046 1 14.5V9.5C1 8.39541 1.89544 7.5 3 7.5V7C3 5.89541 3.89544 5 5 5H18.5ZM5 8.5C5 9.05228 4.55228 9.5 4 9.5H3V14.5H4L4.10254 14.5049C4.60667 14.5562 5 14.9823 5 15.5V17H18.5V15.5C18.5 14.9477 18.9477 14.5 19.5 14.5H21V9.5H19.5C18.9477 9.5 18.5 9.05228 18.5 8.5V7H5V8.5ZM16 8.5C16.5523 8.5 17 8.94772 17 9.5V11H18C18.5523 11 19 11.4477 19 12C19 12.5523 18.5523 13 18 13H17V14.5C17 15.0523 16.5523 15.5 16 15.5C15.4477 15.5 15 15.0523 15 14.5V13H13.7305C13.3845 13.5973 12.7399 14 12 14C11.2601 14 10.6155 13.5973 10.2695 13H9V14.5C9 15.0523 8.55228 15.5 8 15.5C7.44772 15.5 7 15.0523 7 14.5V13H6C5.44772 13 5 12.5523 5 12C5 11.4477 5.44772 11 6 11H7V9.5C7 8.94772 7.44772 8.5 8 8.5C8.55228 8.5 9 8.94772 9 9.5V11H10.2695C10.6155 10.4027 11.2601 10 12 10C12.7399 10 13.3845 10.4027 13.7305 11H15V9.5C15 8.94772 15.4477 8.5 16 8.5Z" fill="#9E9E9E"/>
</g>
</svg>
