<svg width="24" height="24" viewBox="0 0 24 24" fill="none" xmlns="http://www.w3.org/2000/svg">
<g id="icons/Makeups/comb">
<path id="Union" d="M14.8282 1.39355C15.2188 1.00303 15.8528 1.00303 16.2433 1.39355L20.4786 5.62988C20.4808 5.63198 20.4834 5.63362 20.4855 5.63574C20.4872 5.63748 20.4886 5.63986 20.4904 5.6416L22.6066 7.75781C22.794 7.94534 22.8995 8.19968 22.8995 8.46484C22.8994 8.72994 22.794 8.98442 22.6066 9.17188L9.172 22.6064C8.78152 22.9969 8.14847 22.9968 7.75793 22.6064L5.6427 20.4912C5.64062 20.4892 5.63793 20.4874 5.63586 20.4854C5.63342 20.4829 5.63144 20.48 5.62903 20.4775L1.39368 16.2432C1.00315 15.8526 1.00315 15.2186 1.39368 14.8281C1.78414 14.4379 2.41727 14.4379 2.80774 14.8281L6.3429 18.3633L7.40344 17.3018L3.86926 13.7676C3.47891 13.377 3.4788 12.744 3.86926 12.3535C4.25975 11.9633 4.89287 11.9632 5.28333 12.3535L8.8175 15.8877L10.2316 14.4746L6.69641 10.9395C6.30589 10.5489 6.30589 9.91591 6.69641 9.52539C7.08694 9.13487 7.71995 9.13487 8.11047 9.52539L11.6456 13.0605L13.0607 11.6455L9.52551 8.11035C9.13516 7.71981 9.13505 7.08676 9.52551 6.69629C9.916 6.30607 10.5491 6.30602 10.9396 6.69629L14.4747 10.2314L15.8888 8.81738L12.3536 5.28223C11.9633 4.89169 11.9632 4.25863 12.3536 3.86816C12.7441 3.47794 13.3772 3.47789 13.7677 3.86816L17.3029 7.40332L18.3634 6.34277L14.8282 2.80762C14.438 2.41715 14.438 1.78402 14.8282 1.39355ZM7.75696 19.7773L8.46497 20.4854L20.4855 8.46484L19.7775 7.75684L7.75696 19.7773Z" fill="#9E9E9E"/>
</g>
</svg>
