<svg width="24" height="24" viewBox="0 0 24 24" fill="none" xmlns="http://www.w3.org/2000/svg">
<g id="icons/Makeups/conditioner">
<path id="Union" d="M10 1C10.6298 1 11.3109 1.26618 11.9141 1.61426C12.5437 1.97763 13.198 2.49379 13.792 3.12793C14.811 4.21583 15.7135 5.72348 15.9424 7.5H18.5C19.0523 7.5 19.5 7.94772 19.5 8.5V11H20C20.5523 11 21 11.4477 21 12V22C21 22.5523 20.5523 23 20 23H4C3.44772 23 3 22.5523 3 22V12C3 11.4477 3.44772 11 4 11H4.5V8.5C4.5 7.94772 4.94772 7.5 5.5 7.5H8.01172C8.25497 7.12338 8.47807 6.5845 8.65039 5.83789C8.87753 4.8536 9 3.58066 9 2L9.00488 1.89746C9.05621 1.39333 9.48232 1 10 1ZM5 21H19V13H5V21ZM16 14.5C16.5523 14.5 17 14.9477 17 15.5V18.5C17 19.0523 16.5523 19.5 16 19.5H8C7.44772 19.5 7 19.0523 7 18.5V15.5C7 14.9477 7.44772 14.5 8 14.5H16ZM9 17.5H15V16.5H9V17.5ZM6.5 11H17.5V9.5H6.5V11ZM10.9658 3.37793C10.9125 4.47168 10.7942 5.44387 10.5996 6.28711C10.5005 6.7165 10.379 7.12234 10.2334 7.5H13.9189C13.7065 6.34279 13.0919 5.30538 12.333 4.49512C11.8827 4.01432 11.4007 3.63636 10.9658 3.37793Z" fill="#9E9E9E"/>
</g>
</svg>
