<svg width="24" height="24" viewBox="0 0 24 24" fill="none" xmlns="http://www.w3.org/2000/svg">
<g id="icons/Makeups/english-mustache">
<path id="Union" d="M12.3691 8.74121C13.1157 8.13344 14.1131 7.85212 15.2617 8.07715C16.7005 8.35905 17.4537 9.20075 17.9951 9.87695C18.5671 10.5914 18.804 10.9242 19.2783 11.0791C19.6379 11.1965 20.0393 11.1509 20.4443 10.9922C20.8552 10.8311 21.175 10.5881 21.2998 10.4658C21.6223 10.1499 22.1165 10.0899 22.5059 10.3184C22.8952 10.5468 23.0834 11.0078 22.9648 11.4434C22.5882 12.8267 20.8252 16 15.9355 16C14.0766 15.9999 12.7941 15.3059 12 14.3408C11.2059 15.3059 9.9234 15.9999 8.06445 16C3.17477 16 1.41179 12.8267 1.03516 11.4434C0.916599 11.0078 1.10481 10.5468 1.49414 10.3184C1.88348 10.0899 2.37775 10.1499 2.7002 10.4658C2.82496 10.5881 3.1448 10.8311 3.55566 10.9922C3.96072 11.1509 4.36209 11.1965 4.72168 11.0791C5.19602 10.9242 5.43291 10.5914 6.00488 9.87695C6.54625 9.20076 7.29953 8.35905 8.73828 8.07715C9.88685 7.85212 10.8843 8.13344 11.6309 8.74121C11.7644 8.84993 11.8875 8.96755 12.001 9.0918C12.1142 8.96789 12.2359 8.84966 12.3691 8.74121ZM10.3682 10.292C10.0966 10.0709 9.70687 9.92571 9.12305 10.04C8.39602 10.1825 8.02184 10.5581 7.56641 11.127C7.14169 11.6575 6.51183 12.5976 5.34277 12.9795C5.12176 13.0517 4.9026 13.0964 4.68848 13.1211C5.46126 13.6213 6.54924 14 8.06445 14C9.49172 13.9999 10.2024 13.4525 10.5713 12.9189C10.9869 12.3178 11.0353 11.6406 10.9824 11.3809C10.8904 10.93 10.6666 10.535 10.3682 10.292ZM14.877 10.04C14.2931 9.9257 13.9034 10.0709 13.6318 10.292C13.3334 10.535 13.1096 10.9301 13.0176 11.3809C12.9647 11.6406 13.0131 12.3178 13.4287 12.9189C13.7976 13.4525 14.5083 13.9999 15.9355 14C17.4503 14 18.5378 13.621 19.3105 13.1211C19.0967 13.0964 18.8779 13.0516 18.6572 12.9795C17.4882 12.5976 16.8583 11.6575 16.4336 11.127C15.9782 10.5581 15.604 10.1825 14.877 10.04Z" fill="#9E9E9E"/>
</g>
</svg>
