<svg width="24" height="24" viewBox="0 0 24 24" fill="none" xmlns="http://www.w3.org/2000/svg">
<g id="icons/Makeups/eyebrow">
<path id="Union" d="M12.0001 9C14.8083 9.00005 17.2738 10.4031 18.9728 11.707C19.834 12.368 20.5294 13.027 21.0099 13.5215C21.2507 13.7693 21.4396 13.9779 21.5695 14.126C21.6342 14.1999 21.6847 14.2589 21.7198 14.3008C21.7374 14.3216 21.751 14.3386 21.7609 14.3506L21.7765 14.3701L21.7784 14.3721L21.8302 14.4434C22.056 14.7798 22.056 15.2202 21.8302 15.5566L21.7784 15.6279L21.7765 15.6299L21.7609 15.6494C21.751 15.6614 21.7374 15.6784 21.7198 15.6992C21.6847 15.7411 21.6342 15.8001 21.5695 15.874C21.4396 16.0221 21.2507 16.2307 21.0099 16.4785C20.5294 16.973 19.834 17.632 18.9728 18.293C17.2738 19.5969 14.8083 21 12.0001 21C9.19196 21 6.72646 19.5969 5.02747 18.293C4.16625 17.632 3.47087 16.9731 2.99036 16.4785C2.74958 16.2307 2.56067 16.0221 2.43079 15.874C2.36601 15.8001 2.31551 15.7411 2.2804 15.6992C2.2629 15.6784 2.24923 15.6614 2.23938 15.6494L2.22375 15.6299L2.2218 15.6279C1.92664 15.2617 1.92664 14.7383 2.2218 14.3721L2.22375 14.3701L2.23938 14.3506C2.24923 14.3386 2.2629 14.3216 2.2804 14.3008C2.31551 14.2589 2.36601 14.1999 2.43079 14.126C2.56067 13.9779 2.74958 13.7693 2.99036 13.5215C3.47087 13.0269 4.16625 12.368 5.02747 11.707C6.72646 10.4031 9.19196 9 12.0001 9ZM12.0001 11C9.83797 11 7.80355 12.0971 6.24524 13.293C5.47807 13.8818 4.85524 14.4731 4.42493 14.916C4.39727 14.9445 4.37085 14.9728 4.34485 15C4.37085 15.0272 4.39727 15.0555 4.42493 15.084C4.85524 15.5269 5.47807 16.1182 6.24524 16.707C7.80355 17.9029 9.83797 19 12.0001 19C14.1623 19 16.1967 17.9029 17.755 16.707C18.5222 16.1182 19.145 15.5269 19.5753 15.084C19.6028 15.0557 19.6286 15.027 19.6544 15C19.6286 14.973 19.6028 14.9443 19.5753 14.916C19.145 14.4731 18.5222 13.8818 17.755 13.293C16.1967 12.0971 14.1623 11.0001 12.0001 11ZM12.0001 12C13.6569 12.0001 15.0001 13.3432 15.0001 15C15.0001 16.6568 13.6569 17.9999 12.0001 18C10.3433 18 9.00012 16.6568 9.00012 15C9.00012 13.3432 10.3433 12 12.0001 12ZM12.0001 14C11.4479 14 11.0001 14.4477 11.0001 15C11.0001 15.5523 11.4479 16 12.0001 16C12.5523 15.9999 13.0001 15.5522 13.0001 15C13.0001 14.4478 12.5523 14.0001 12.0001 14ZM14.0001 2C17.9547 2.00007 20.6045 4.84375 21.6515 5.74121C22.0344 6.06989 22.1122 6.63221 21.8331 7.05273C21.5538 7.47343 21.0045 7.62031 20.5529 7.39453C20.0699 7.15309 19.0114 6.77741 17.7736 6.53809C16.5273 6.2972 15.2363 6.22162 14.2433 6.46973C13.0968 6.75636 10.8896 7.49061 8.81067 8.22949C6.71284 8.9751 4.8802 9.67817 4.44739 9.89453C3.80192 10.2172 3.14669 10.0655 2.68469 9.71484C2.25925 9.39182 1.98837 8.90906 1.85168 8.43066C1.57215 7.45202 1.76254 6.14639 2.86047 5.23145C3.34728 4.8259 4.07824 4.43696 4.88293 4.08691C5.70805 3.728 6.68486 3.37837 7.71594 3.07227C9.76242 2.46474 12.1157 2.00005 14.0001 2ZM14.0001 4C12.3848 4.00005 10.2384 4.41042 8.28528 4.99023C7.31663 5.2778 6.41805 5.60021 5.68079 5.9209C4.92329 6.25041 4.40398 6.54923 4.14075 6.76855C3.73881 7.10354 3.67916 7.54802 3.77454 7.88184C3.78613 7.92237 3.79896 7.95701 3.81165 7.98633C4.58809 7.64536 6.33187 6.98862 8.14075 6.3457C10.2116 5.60968 12.5046 4.84362 13.7579 4.53027C14.4694 4.35241 15.2371 4.29803 15.9982 4.32227C15.3874 4.12234 14.7226 4.00002 14.0001 4Z" fill="#9E9E9E"/>
</g>
</svg>
