<svg width="24" height="24" viewBox="0 0 24 24" fill="none" xmlns="http://www.w3.org/2000/svg">
<g id="icons/Makeups/face-powder">
<path id="Union" d="M12 1C14.3664 1 16.5563 1.59742 18.1865 2.61621C19.8027 3.62633 21 5.15008 21 7C21 8.84992 19.8027 10.3737 18.1865 11.3838C17.9685 11.52 17.74 11.6478 17.5029 11.7686C17.6765 11.8242 17.8452 11.8814 18.0078 11.9424C18.7973 12.2384 19.5062 12.615 20.0352 13.084C20.5628 13.5519 21 14.1972 21 15V19C21 19.8028 20.5628 20.4481 20.0352 20.916C19.5062 21.385 18.7973 21.7616 18.0078 22.0576C16.4215 22.6524 14.2972 23 12 23C9.70275 23 7.57847 22.6524 5.99219 22.0576C5.20273 21.7616 4.49379 21.385 3.96484 20.916C3.43717 20.4481 3 19.8028 3 19V15C3 14.1972 3.43717 13.5519 3.96484 13.084C4.49379 12.615 5.20273 12.2384 5.99219 11.9424C6.15455 11.8815 6.32285 11.8241 6.49609 11.7686C6.25927 11.6479 6.03124 11.5199 5.81348 11.3838C4.19728 10.3737 3 8.84992 3 7C3 5.15008 4.19728 3.62633 5.81348 2.61621C7.44373 1.59742 9.63359 1 12 1ZM19 17.6143C18.6906 17.778 18.3575 17.9265 18.0078 18.0576C16.4215 18.6525 14.2972 19 12 19C9.70276 19 7.57848 18.6525 5.99219 18.0576C5.64251 17.9265 5.30944 17.778 5 17.6143V19C5 19.0255 5.01013 19.17 5.29199 19.4199C5.5727 19.6687 6.03626 19.9378 6.69434 20.1846C8.00346 20.6755 9.87902 21 12 21C14.121 21 15.9965 20.6755 17.3057 20.1846C17.9637 19.9378 18.4273 19.6687 18.708 19.4199C18.9899 19.17 19 19.0255 19 19V17.6143ZM12 13C9.87903 13 8.00346 13.3245 6.69434 13.8154C6.03626 14.0622 5.5727 14.3313 5.29199 14.5801C5.01013 14.83 5 14.9745 5 15C5 15.0255 5.01013 15.17 5.29199 15.4199C5.5727 15.6687 6.03626 15.9378 6.69434 16.1846C8.00346 16.6755 9.87903 17 12 17C14.121 17 15.9965 16.6755 17.3057 16.1846C17.9637 15.9378 18.4273 15.6687 18.708 15.4199C18.9899 15.17 19 15.0255 19 15C19 14.9745 18.9899 14.83 18.708 14.5801C18.4273 14.3313 17.9637 14.0622 17.3057 13.8154C15.9965 13.3245 14.121 13 12 13ZM12 14C13.933 14 15.5 14.4477 15.5 15C15.5 15.5523 13.933 16 12 16C10.067 16 8.5 15.5523 8.5 15C8.5 14.4477 10.067 14 12 14ZM12 3C9.9483 3 8.13819 3.52179 6.87305 4.3125C5.59387 5.11201 5 6.08851 5 7C5 7.91149 5.59387 8.88799 6.87305 9.6875C8.13819 10.4782 9.9483 11 12 11C14.0517 11 15.8618 10.4782 17.127 9.6875C18.4061 8.88799 19 7.91149 19 7C19 6.08851 18.4061 5.11201 17.127 4.3125C15.8618 3.52179 14.0517 3 12 3ZM14.4854 6.14258C14.9589 5.85846 15.5732 6.01188 15.8574 6.48535C16.1415 6.95888 15.9881 7.57324 15.5146 7.85742L13.0146 9.35742C12.5411 9.64154 11.9268 9.48812 11.6426 9.01465C11.3585 8.54112 11.5119 7.92676 11.9854 7.64258L14.4854 6.14258ZM10.9854 4.14258C11.4589 3.85846 12.0732 4.01188 12.3574 4.48535C12.6415 4.95888 12.4881 5.57324 12.0146 5.85742L9.51465 7.35742C9.04112 7.64154 8.42676 7.48812 8.14258 7.01465C7.85846 6.54112 8.01188 5.92676 8.48535 5.64258L10.9854 4.14258Z" fill="#9E9E9E"/>
</g>
</svg>
