<svg width="24" height="24" viewBox="0 0 24 24" fill="none" xmlns="http://www.w3.org/2000/svg">
<g id="icons/Makeups/facial-cleanser">
<path id="Union" d="M15.9674 1.00098C17.9391 0.996678 19.2523 1.66222 19.9508 2.76562C20.6065 3.80155 20.5667 4.98919 20.3815 5.75488C20.0682 7.04976 19.3299 9.92882 18.6725 12.4746C18.3433 13.7494 18.0327 14.9437 17.8053 15.8193C17.6916 16.2571 17.5985 16.6156 17.5338 16.8643C17.5213 16.9125 17.5089 16.9563 17.4987 16.9961C17.4987 16.9974 17.4996 16.9987 17.4996 17V22C17.4996 22.5523 17.0519 23 16.4996 23H7.49963C6.94751 22.9998 6.49963 22.5522 6.49963 22V17.1445L3.65393 5.7627L3.65491 5.76172C3.4272 4.96962 3.3819 3.7975 4.02014 2.77441C4.71176 1.66597 6.03029 1.00008 7.9928 1H15.9674V1.00098ZM8.49963 21H15.4996V18H8.49963V21ZM7.9928 3C6.48403 3.00008 5.93301 3.4859 5.71643 3.83301C5.49171 4.19345 5.45839 4.6679 5.53967 5.06543L5.58167 5.23047L5.5885 5.25391L8.27502 16H15.692C15.743 15.8038 15.8029 15.5738 15.8698 15.3164C16.097 14.4414 16.4071 13.2482 16.736 11.9746C17.3948 9.42356 18.1282 6.56193 18.4371 5.28516C18.5464 4.83359 18.5283 4.2567 18.2614 3.83496C18.0373 3.48121 17.483 2.99622 15.9694 3H7.9928ZM11.9137 5.50781C12.2543 5.46537 12.5935 5.60075 12.8112 5.86621C13.1351 6.26153 13.6276 6.92859 14.0905 7.61719C14.543 8.29045 15.0185 9.06052 15.2643 9.64355C15.7099 10.7008 15.3341 11.7664 14.7145 12.4805C14.0909 13.1989 13.1175 13.7059 12.0377 13.7061C10.8498 13.7059 9.8495 12.9722 9.32288 12.0977C8.7886 11.2103 8.61244 9.92996 9.47913 8.90137C10.2002 8.04598 10.7814 6.82373 11.1315 6.07617C11.2771 5.76522 11.573 5.5505 11.9137 5.50781ZM12.2018 8.40039C11.8732 8.99566 11.4713 9.64137 11.0084 10.1904C10.8512 10.3773 10.803 10.6771 11.0367 11.0654C11.2786 11.4671 11.6886 11.7059 12.0377 11.7061C12.4947 11.7059 12.9307 11.4834 13.2037 11.1689C13.4805 10.8499 13.4883 10.5783 13.4215 10.4199C13.2573 10.0305 12.8785 9.39926 12.4303 8.73242C12.3547 8.61998 12.2774 8.5093 12.2018 8.40039Z" fill="#9E9E9E"/>
</g>
</svg>
