<svg width="24" height="24" viewBox="0 0 24 24" fill="none" xmlns="http://www.w3.org/2000/svg">
<g id="icons/Makeups/fingernail">
<path id="Union" d="M12 1C12.5523 1 13 1.44772 13 2C13 2.55228 12.5523 3 12 3C7.02943 3 3 7.02943 3 12C3 14.4145 3.95242 16.6053 5.5 18.2217V15.5C5.5 13.5339 6.71577 12.1707 8 11.6904V9.5C8 7.29086 9.79086 5.5 12 5.5C14.2091 5.5 16 7.29086 16 9.5V11.6904C17.2842 12.1707 18.5 13.5339 18.5 15.5V18.2217C20.0476 16.6053 21 14.4145 21 12C21 11.4477 21.4477 11 22 11C22.5523 11 23 11.4477 23 12C23 18.0751 18.0751 23 12 23C9.87164 23 7.88584 22.3933 6.20215 21.3467C6.02245 21.2906 5.86544 21.1848 5.74512 21.0459C2.879 19.0603 1 15.7507 1 12C1 5.92487 5.92487 1 12 1ZM8 14.0693C7.71981 14.3936 7.5 14.8637 7.5 15.5V19.793C8.82407 20.5592 10.3602 21 12 21C13.6398 21 15.1759 20.5592 16.5 19.793V15.5C16.5 14.8637 16.2802 14.3936 16 14.0693V15.5C16 17.7091 14.2091 19.5 12 19.5C9.79086 19.5 8 17.7091 8 15.5V14.0693ZM12 7.5C10.8954 7.5 10 8.39543 10 9.5V15.5C10 16.6046 10.8954 17.5 12 17.5C13.1046 17.5 14 16.6046 14 15.5V9.5C14 8.39543 13.1046 7.5 12 7.5ZM19.8984 4.26465H22.8047L20.4531 5.97168L21.3516 8.73633L19 7.02832L16.6484 8.73633L17.5469 5.97168L15.1953 4.26465H18.1016L19 1.5L19.8984 4.26465Z" fill="#9E9E9E"/>
</g>
</svg>
