<svg width="24" height="24" viewBox="0 0 24 24" fill="none" xmlns="http://www.w3.org/2000/svg">
<g id="icons/Makeups/foundation-makeup">
<path id="Union" d="M17.5928 1.00391C18.0503 1.04616 18.4254 1.39839 18.4902 1.86133C18.5594 2.35519 18.2539 2.82491 17.7744 2.96191L17.7734 2.96094L17.7725 2.96191C17.7686 2.96306 17.7615 2.96583 17.752 2.96875C17.7322 2.97476 17.701 2.98375 17.6602 2.99707C17.5777 3.024 17.4564 3.06614 17.3096 3.12207C17.0125 3.23523 16.625 3.40162 16.2461 3.61816C15.8607 3.83839 15.5272 4.08599 15.2998 4.3457C15.078 4.59919 15 4.81235 15 5V7.5H15.5C16.6046 7.5 17.5 8.39542 17.5 9.5V19H16.5C17.4804 19 17.4996 19.0005 17.5 19.001V19.0244C17.4998 19.0356 17.4996 19.0505 17.499 19.0674C17.4979 19.1011 17.4951 19.1459 17.4912 19.2002C17.4835 19.3087 17.4687 19.4572 17.4395 19.6328C17.3817 19.9796 17.2644 20.4576 17.0195 20.9473C16.7727 21.4409 16.3867 21.9649 15.7891 22.3633C15.1852 22.7659 14.425 23 13.5 23H9.5C8.57502 23 7.81481 22.7659 7.21094 22.3633C6.61333 21.9649 6.22728 21.4409 5.98047 20.9473C5.73561 20.4576 5.61834 19.9796 5.56055 19.6328C5.5313 19.4572 5.51654 19.3087 5.50879 19.2002C5.50491 19.1459 5.50211 19.1011 5.50098 19.0674C5.50041 19.0505 5.50018 19.0356 5.5 19.0244V19.001C5.50038 19.0005 5.51963 19 6.5 19H5.5V9.5C5.5 8.39542 6.39542 7.5 7.5 7.5H8V4.5C7.99997 3.38591 8.56491 2.48838 9.32324 1.89844C10.0709 1.31692 11.0401 1 12 1H17.5L17.5928 1.00391ZM7.5 19C7.50034 19.0102 7.50097 19.0301 7.50293 19.0576C7.50689 19.1131 7.51562 19.1992 7.5332 19.3047C7.56918 19.5204 7.63945 19.7926 7.76953 20.0527C7.89772 20.3091 8.07417 20.5351 8.32031 20.6992C8.56019 20.8591 8.92498 21 9.5 21H13.5C14.075 21 14.4398 20.8591 14.6797 20.6992C14.9258 20.5351 15.1023 20.3091 15.2305 20.0527C15.3605 19.7926 15.4308 19.5204 15.4668 19.3047C15.4844 19.1992 15.4931 19.1131 15.4971 19.0576C15.499 19.0301 15.4997 19.0102 15.5 19V9.5H7.5V19ZM10 7.5H13V7H10V7.5ZM12 3C11.46 3 10.9291 3.18324 10.5518 3.47656C10.1853 3.76162 9.99999 4.11427 10 4.5C10 4.71262 10 4.87502 10 5H13C13 4.18786 13.3596 3.52576 13.7939 3.0293C13.8026 3.01936 13.8125 3.00984 13.8213 3H12Z" fill="#9E9E9E"/>
</g>
</svg>
