<svg width="24" height="24" viewBox="0 0 24 24" fill="none" xmlns="http://www.w3.org/2000/svg">
<g id="icons/Makeups/hair-brush">
<path id="Union" d="M19.7043 3.69141C20.0948 3.30098 20.7279 3.30118 21.1184 3.69141C22.3115 4.88449 22.2527 6.7229 21.7034 8.37109C21.1328 10.0828 19.9383 11.9428 18.2903 13.5908C16.6423 15.2387 14.7822 16.4334 13.0706 17.0039C12.2146 17.2891 11.3076 17.4396 10.4661 17.3535C10.3625 17.788 10.1449 18.201 9.80591 18.54L6.97778 21.3691C6.00149 22.3454 4.41797 22.3454 3.44165 21.3691C2.46534 20.3928 2.46534 18.8093 3.44165 17.833L6.27075 15.0049C7.24708 14.0288 8.82967 14.0286 9.80591 15.0049C10.175 15.3736 11.0166 15.5804 12.4387 15.1064C13.7979 14.6533 15.4002 13.6527 16.8762 12.1768C18.3522 10.7008 19.3527 9.09849 19.8059 7.73926C20.2802 6.31649 20.0733 5.47441 19.7043 5.10547C19.3142 4.71505 19.3143 4.08186 19.7043 3.69141ZM8.38794 16.416C8.19249 16.2242 7.87897 16.225 7.68481 16.4189L4.85571 19.2471C4.66045 19.4423 4.66045 19.7598 4.85571 19.9551C5.05083 20.1501 5.36747 20.1499 5.56274 19.9551L8.39185 17.126C8.58573 16.9319 8.58649 16.6183 8.39478 16.4229L8.38794 16.416ZM7.68384 11.4697C8.07437 11.0793 8.70741 11.0792 9.0979 11.4697L9.80493 12.1768C10.1952 12.5673 10.1953 13.2003 9.80493 13.5908C9.41447 13.9813 8.78141 13.9812 8.39087 13.5908L7.68384 12.8838C7.29331 12.4933 7.29331 11.8603 7.68384 11.4697ZM10.8665 10.4082C11.257 10.0181 11.8901 10.0179 12.2805 10.4082L13.6946 11.8223C14.085 12.2127 14.0847 12.8458 13.6946 13.2363C13.304 13.6268 12.671 13.6269 12.2805 13.2363L10.8665 11.8223C10.476 11.4317 10.476 10.7987 10.8665 10.4082ZM13.6946 8.28711C14.0851 7.89695 14.7182 7.89677 15.1086 8.28711L16.5227 9.70117C16.9131 10.0916 16.9129 10.7247 16.5227 11.1152C16.1322 11.5058 15.4992 11.5058 15.1086 11.1152L13.6946 9.70117C13.3041 9.31064 13.3041 8.67761 13.6946 8.28711ZM8.39185 7.93359C8.78238 7.54344 9.41549 7.54325 9.80591 7.93359L10.5129 8.64062C10.9033 9.03103 10.9031 9.66413 10.5129 10.0547C10.1224 10.4452 9.4894 10.4452 9.09888 10.0547L8.39185 9.34766C8.00139 8.95713 8.00134 8.3241 8.39185 7.93359ZM16.1692 5.8125C16.5597 5.42208 17.1928 5.42202 17.5833 5.8125L18.9973 7.22656C19.3876 7.61706 19.3877 8.25014 18.9973 8.64062C18.6069 9.03106 17.9738 9.03095 17.5833 8.64062L16.1692 7.22656C15.7787 6.83604 15.7787 6.20303 16.1692 5.8125ZM10.5129 5.10547C10.9035 4.71505 11.5365 4.71498 11.927 5.10547L12.634 5.8125C13.0243 6.203 13.0244 6.83609 12.634 7.22656C12.2436 7.61703 11.6105 7.61691 11.22 7.22656L10.5129 6.51953C10.1224 6.12901 10.1224 5.49599 10.5129 5.10547ZM12.9875 2.62988C13.3781 2.23973 14.0112 2.23954 14.4016 2.62988L15.1086 3.33691C15.499 3.72732 15.4988 4.36043 15.1086 4.75098C14.7181 5.1415 14.0851 5.1415 13.6946 4.75098L12.9875 4.04395C12.5971 3.65341 12.597 3.02038 12.9875 2.62988ZM16.8772 1.57031C17.2677 1.17989 17.9008 1.17982 18.2913 1.57031L18.9983 2.27734C19.3886 2.66785 19.3886 3.30093 18.9983 3.69141C18.6078 4.08187 17.9748 4.08175 17.5842 3.69141L16.8772 2.98438C16.4867 2.59385 16.4867 1.96084 16.8772 1.57031Z" fill="#9E9E9E"/>
</g>
</svg>
