<svg width="24" height="24" viewBox="0 0 24 24" fill="none" xmlns="http://www.w3.org/2000/svg">
<g id="icons/Makeups/handwashing-fluid">
<path id="Union" d="M15.5 1C16.0523 1 16.5 1.44772 16.5 2C16.5 2.55228 16.0523 3 15.5 3H13V4.5H14.5C15.0523 4.5 15.5 4.94772 15.5 5.5V7.5918C18.06 8.06213 20 10.304 20 13V13.4883C20 14.0406 19.5523 14.4883 19 14.4883C18.4477 14.4883 18 14.0406 18 13.4883V13C18 11.067 16.433 9.5 14.5 9.5H9.5C7.56698 9.5 6 11.067 6 13V17.5C6 19.433 7.56698 21 9.5 21H12C12.5523 21 13 21.4477 13 22C13 22.5523 12.5523 23 12 23H9.5C6.46242 23 4 20.5376 4 17.5V13C4 10.304 5.93997 8.06213 8.5 7.5918V5.5C8.5 4.94772 8.94772 4.5 9.5 4.5H11V3H9.90039C9.36685 3 9.00403 3.12314 8.80078 3.27539C8.6396 3.39621 8.5 3.58864 8.5 4C8.5 4.55228 8.05228 5 7.5 5C6.94772 5 6.5 4.55228 6.5 4C6.5 3.01157 6.89608 2.20399 7.60254 1.6748C8.26699 1.17718 9.10497 1 9.90039 1H15.5ZM17.75 15.5C18.0756 15.5 18.3526 15.6122 18.5508 15.7207C18.7564 15.8333 18.9433 15.9779 19.1055 16.126C19.4298 16.4222 19.7379 16.805 20.001 17.2012C20.2664 17.6008 20.5074 18.0474 20.6855 18.4893C20.8574 18.9156 21 19.4098 21 19.8848C20.9999 21.6625 19.4859 23 17.75 23C16.0141 23 14.5001 21.6625 14.5 19.8848C14.5 19.4098 14.6426 18.9156 14.8145 18.4893C14.9926 18.0474 15.2336 17.6008 15.499 17.2012C15.7621 16.805 16.0702 16.4222 16.3945 16.126C16.5567 15.9779 16.7436 15.8333 16.9492 15.7207C17.1474 15.6122 17.4244 15.5 17.75 15.5ZM17.7441 17.6025C17.5735 17.7583 17.3669 18.0037 17.165 18.3076C16.9657 18.6078 16.7907 18.9344 16.6689 19.2363C16.5409 19.554 16.5 19.7756 16.5 19.8848C16.5001 20.4435 17.0007 21 17.75 21C18.4993 21 18.9999 20.4435 19 19.8848C19 19.7756 18.9591 19.554 18.8311 19.2363C18.7093 18.9344 18.5343 18.6078 18.335 18.3076C18.1331 18.0037 17.9265 17.7583 17.7559 17.6025C17.754 17.6008 17.7519 17.5993 17.75 17.5977C17.7481 17.5993 17.746 17.6008 17.7441 17.6025ZM10.5 7.5H13.5V6.5H10.5V7.5Z" fill="#9E9E9E"/>
</g>
</svg>
