<svg width="24" height="24" viewBox="0 0 24 24" fill="none" xmlns="http://www.w3.org/2000/svg">
<g id="icons/Makeups/handwashing">
<path id="Union" d="M5.5 11C6.05228 11 6.5 11.4477 6.5 12V13.9541C7.39348 13.8639 7.83719 13.6515 8.19238 13.4316C8.68032 13.1296 9.41226 12.4756 10.6836 12.0518C11.9514 11.6292 13.2123 11.5809 14.1914 11.9814C14.6907 12.1858 15.1438 12.5205 15.4404 13.0078C15.7423 13.5039 15.8338 14.08 15.7363 14.665C15.6527 15.1661 15.4232 15.6145 15.165 15.9912C15.1923 15.9765 15.2203 15.9643 15.2461 15.9492C15.5282 15.7847 15.7771 15.5777 16.1182 15.2754C16.4502 14.9811 16.8603 14.6053 17.4004 14.2002C18.5545 13.3347 19.8245 12.9572 20.9141 13.1387C21.4645 13.2304 21.9921 13.4727 22.3877 13.8965C22.791 14.3288 22.9999 14.8903 23 15.5C23 16.0573 22.825 16.7427 22.5381 17.4209C22.2435 18.1171 21.8007 18.8772 21.1992 19.585C19.9883 21.0095 18.1021 22.25 15.5 22.25C13.1592 22.25 11.0892 21.9248 9.38086 21.6084C8.19557 21.3889 7.25542 21.1921 6.5 21.085V22C6.5 22.5523 6.05228 23 5.5 23H2C1.44772 23 1 22.5523 1 22V12C1 11.4477 1.44772 11 2 11H5.5ZM3 21H4.5V13H3V21ZM13.4336 13.832C13.0376 13.6701 12.2983 13.6219 11.3164 13.9492C10.3379 14.2754 10.0697 14.6214 9.24512 15.1318C8.56304 15.5541 7.77697 15.8596 6.5 15.9619V19.0703C7.45772 19.186 8.58151 19.4263 9.74414 19.6416C11.4107 19.9502 13.341 20.25 15.5 20.25C17.3979 20.25 18.7617 19.3655 19.6758 18.29C20.1366 17.7479 20.4753 17.164 20.6963 16.6416C20.9249 16.1013 21 15.6926 21 15.5C20.9999 15.3602 20.9586 15.297 20.9248 15.2607C20.8828 15.2158 20.785 15.1446 20.5859 15.1113C20.1757 15.043 19.4453 15.1655 18.5996 15.7998C18.1398 16.1447 17.7997 16.4574 17.4443 16.7725C17.098 17.0795 16.7217 17.4039 16.2539 17.6768C15.2791 18.2454 14.0693 18.5 12 18.5C11.5506 18.5 11.1562 18.2006 11.0361 17.7676C10.9162 17.3344 11.0999 16.8738 11.4854 16.6426L11.4873 16.6416C11.4902 16.6398 11.4958 16.6372 11.5029 16.6328C11.5174 16.6239 11.5403 16.609 11.5703 16.5898C11.6305 16.5514 11.719 16.4934 11.8271 16.4189C12.0455 16.2686 12.3367 16.0559 12.6309 15.8037C12.9281 15.5489 13.2082 15.2707 13.4209 14.9932C13.6408 14.7063 13.739 14.4841 13.7637 14.3359C13.7911 14.1712 13.7575 14.0907 13.7314 14.0479C13.7 13.9962 13.6217 13.909 13.4336 13.832ZM18 2C18.294 2.0001 18.5728 2.13002 18.7627 2.35449L18 3L18.7637 2.35449L18.7676 2.3584C18.7696 2.36079 18.7721 2.36422 18.7754 2.36816C18.782 2.37606 18.7913 2.38747 18.8027 2.40137C18.8256 2.42912 18.8576 2.46865 18.8975 2.51855C18.9776 2.61892 19.0896 2.76262 19.2207 2.93945C19.4816 3.29147 19.8256 3.78577 20.1475 4.34473C20.4657 4.89744 20.7841 5.54975 20.9678 6.21387C21.1467 6.86071 21.2354 7.65468 20.9189 8.39355C19.8227 10.9517 16.1762 10.9518 15.0801 8.39355C14.7636 7.65467 14.8533 6.86069 15.0322 6.21387C15.2159 5.5498 15.5334 4.89741 15.8516 4.34473C16.1734 3.78575 16.5174 3.29148 16.7783 2.93945C16.9094 2.76255 17.0214 2.61895 17.1016 2.51855C17.1416 2.46838 17.1744 2.42917 17.1973 2.40137C17.2087 2.38745 17.218 2.37606 17.2246 2.36816C17.2278 2.36435 17.2305 2.36073 17.2324 2.3584C17.2333 2.35736 17.2338 2.35618 17.2344 2.35547L17.2354 2.35449H17.2363C17.4263 2.12993 17.7058 2 18 2ZM17.999 4.67676C17.8621 4.88155 17.7207 5.10693 17.585 5.34277C17.3095 5.82125 17.081 6.30967 16.96 6.74707C16.8342 7.20169 16.8607 7.47044 16.9189 7.60645C17.3226 8.54779 18.6763 8.54778 19.0801 7.60645C19.1384 7.47045 19.1658 7.20163 19.04 6.74707C18.919 6.30962 18.6896 5.82131 18.4141 5.34277C18.2781 5.10671 18.1361 4.8817 17.999 4.67676Z" fill="#9E9E9E"/>
</g>
</svg>
