<svg width="24" height="24" viewBox="0 0 24 24" fill="none" xmlns="http://www.w3.org/2000/svg">
<g id="icons/Makeups/hand-cream">
<path id="Union" d="M12 1C18.0751 1 23 5.92487 23 12C23 18.0751 18.0751 23 12 23C5.92487 23 1 18.0751 1 12C1 5.92487 5.92487 1 12 1ZM12 3C7.02944 3 3 7.02944 3 12C3 16.9706 7.02944 21 12 21C16.9706 21 21 16.9706 21 12C21 7.02944 16.9706 3 12 3ZM13.3477 5.53027C13.7916 5.43249 14.1994 5.59049 14.4258 5.69824C14.9489 5.94725 15.5093 6.42484 15.9629 7C16.6226 7.83656 17.2192 9.11671 16.9785 10.5H17.5C18.0523 10.5 18.5 10.9477 18.5 11.5V15.5C18.5 16.0523 18.0523 16.5 17.5 16.5H6.5C5.94772 16.5 5.5 16.0523 5.5 15.5V11.5C5.5 10.9477 5.94772 10.5 6.5 10.5H7.34961C7.34968 10.2606 7.36784 10.012 7.41406 9.76367C7.56535 8.95085 8.03149 8.02892 9.11621 7.57715C9.61921 7.36766 10.1388 7.2291 10.6016 7.12109C11.1063 7.00329 11.4619 6.93676 11.834 6.83984C12.1341 6.76164 12.3056 6.69311 12.3984 6.64258C12.4138 6.453 12.4692 6.22676 12.6182 6.01367C12.8113 5.73771 13.086 5.58792 13.3477 5.53027ZM7.5 14.5H16.5V12.5H7.5V14.5ZM14.0273 7.8418C13.9047 8.00051 13.76 8.13766 13.6006 8.25C13.2122 8.52359 12.7345 8.67229 12.3389 8.77539C11.9515 8.87632 11.4405 8.97854 11.0557 9.06836C10.6288 9.16801 10.2352 9.27691 9.88477 9.42285C9.60395 9.53983 9.44822 9.76267 9.37988 10.1299C9.35709 10.2525 9.34867 10.3783 9.34863 10.5H14.9033C15.2017 9.72188 14.9292 8.91882 14.3926 8.23828C14.2699 8.08278 14.1447 7.95065 14.0273 7.8418Z" fill="#9E9E9E"/>
</g>
</svg>
