<svg width="24" height="24" viewBox="0 0 24 24" fill="none" xmlns="http://www.w3.org/2000/svg">
<g id="icons/Makeups/health-products">
<path id="Union" d="M15 1C16.3807 1 17.5 2.1193 17.5 3.5V5.62988L19.7598 8.27148C19.9147 8.45262 20 8.6835 20 8.92188V19.0459C20 19.2824 19.9165 19.5118 19.7637 19.6924L17.2637 22.6465C17.0737 22.8709 16.7941 23 16.5 23H7.5C7.20593 23 6.92633 22.8709 6.73633 22.6465L4.23633 19.6924C4.08352 19.5118 4 19.2824 4 19.0459V8.92188L4.00391 8.83203C4.0224 8.62589 4.10475 8.42987 4.24023 8.27148L6.5 5.62988V3.5C6.5 2.1193 7.61925 1 9 1H15ZM6 9.29004V18.6787L7.96484 21H16.0352L18 18.6787V9.29004L16.0391 7H7.96094L6 9.29004ZM12 12.5C13.933 12.5 15.5 14.067 15.5 16C15.5 17.933 13.933 19.5 12 19.5C10.067 19.5 8.5 17.933 8.5 16C8.5 14.067 10.067 12.5 12 12.5ZM12 14.5C11.1716 14.5 10.5 15.1716 10.5 16C10.5 16.8284 11.1716 17.5 12 17.5C12.8284 17.5 13.5 16.8284 13.5 16C13.5 15.1716 12.8284 14.5 12 14.5ZM14.5 9C15.0523 9 15.5 9.44771 15.5 10C15.5 10.5523 15.0523 11 14.5 11H9.5C8.94772 11 8.5 10.5523 8.5 10C8.5 9.44771 8.94772 9 9.5 9H14.5ZM9 3C8.72385 3 8.5 3.22385 8.5 3.5V5H15.5V3.5C15.5 3.22385 15.2762 3 15 3H9Z" fill="#9E9E9E"/>
</g>
</svg>
