<svg width="24" height="24" viewBox="0 0 24 24" fill="none" xmlns="http://www.w3.org/2000/svg">
<g id="icons/Makeups/jewelry">
<path id="Union" d="M12 1C18.0751 1 23 5.92487 23 12C23 18.0751 18.0751 23 12 23C5.92487 23 1 18.0751 1 12C1 5.92487 5.92487 1 12 1ZM12 3C7.02944 3 3 7.02944 3 12C3 16.9706 7.02944 21 12 21C16.9706 21 21 16.9706 21 12C21 7.02944 16.9706 3 12 3ZM12.1436 6.51074C13.2241 6.66744 14.3927 7.78563 14.8252 10.04C15.1153 9.98181 15.4083 9.9501 15.6826 9.93457C16.2662 9.90156 16.8417 9.93554 17.2539 9.97168L17.6064 10.0059L18.3457 10.085L18.4824 10.8164C18.671 11.8243 18.5808 13.978 17.0439 15.6191C16.2355 16.4822 15.1409 16.9399 14.2275 17.1865C13.5338 17.3738 12.8801 17.4557 12.4072 17.4854L12 17.5H11.9355L11.9268 17.499C10.5626 17.4937 9.52861 17.3399 8.64844 16.9795C7.74216 16.6084 7.08572 16.0539 6.44336 15.418C5.79555 14.7766 5.38002 13.8939 5.15527 13.0938C4.93626 12.3139 4.84625 11.4237 5.03613 10.7344L5.21875 10.0723L5.90137 10.0049C6.31928 9.96352 7.1839 9.89008 8.06055 9.93262C8.42171 9.95014 8.80695 9.98966 9.17676 10.0654C9.59929 7.9291 10.7099 6.79938 11.751 6.53125L11.9453 6.48145L12.1436 6.51074ZM12.0195 8.61426C11.8992 8.71701 11.7507 8.88093 11.6045 9.12988C11.3002 9.64808 11 10.5442 11 12C11 13.4574 11.3013 14.378 11.6084 14.9092C11.7749 15.197 11.927 15.3495 12.0264 15.4287C12.1176 15.3525 12.2426 15.2206 12.373 15.0049C12.6784 14.4997 13 13.5669 13 12C13 9.70129 12.3419 8.88544 12.0195 8.61426ZM6.9541 11.9326C6.97624 12.116 7.01719 12.3253 7.08105 12.5527C7.24761 13.1457 7.52776 13.6765 7.85059 13.9961C8.42145 14.5613 8.85676 14.9039 9.40625 15.1289C9.44417 15.1444 9.48354 15.1581 9.52344 15.1729C9.20779 14.3657 9.0091 13.3419 9.00098 12.0801C8.97343 12.0718 8.94435 12.0627 8.91309 12.0547C8.65458 11.9885 8.32793 11.9483 7.96387 11.9307C7.61852 11.9139 7.26825 11.9186 6.9541 11.9326ZM15.7949 11.9316C15.4928 11.9488 15.2304 11.987 15.0264 12.0469C15.0169 12.0496 15.0079 12.0529 14.999 12.0557C14.9942 13.2176 14.8364 14.1707 14.5811 14.9395C14.9726 14.7583 15.3206 14.5331 15.584 14.252C16.2596 13.5304 16.4987 12.6185 16.5459 11.9307C16.3057 11.9207 16.0482 11.9173 15.7949 11.9316Z" fill="#9E9E9E"/>
</g>
</svg>
