<svg width="24" height="24" viewBox="0 0 24 24" fill="none" xmlns="http://www.w3.org/2000/svg">
<g id="icons/Makeups/lip-gloss">
<path id="Union" d="M10.5 2C11.0523 2 11.5 2.44772 11.5 3V5H12C12.5523 5 13 5.44772 13 6V6.03125C12.9999 6.04964 12.9995 6.07665 12.999 6.11133C12.998 6.18065 12.9962 6.28288 12.9922 6.41992C12.9841 6.69474 12.9673 7.10999 12.9355 7.68066C12.8721 8.82193 12.7464 10.5868 12.4951 13.0996C12.2414 15.637 11.8614 17.9176 11.5449 19.5635C11.3865 20.3871 11.2432 21.0538 11.1396 21.5156C11.0879 21.7466 11.0459 21.9267 11.0166 22.0498C11.002 22.111 10.9903 22.1581 10.9824 22.1904C10.9785 22.2066 10.9758 22.2199 10.9736 22.2285C10.9726 22.2326 10.9723 22.236 10.9717 22.2383C10.9714 22.2395 10.9709 22.2405 10.9707 22.2412V22.2422H10.9697C10.8584 22.6874 10.4589 23 10 23H6C5.54113 23 5.14157 22.6874 5.03027 22.2422H5.0293V22.2412C5.02912 22.2405 5.02862 22.2395 5.02832 22.2383C5.02774 22.236 5.02738 22.2326 5.02637 22.2285C5.02423 22.2199 5.02153 22.2066 5.01758 22.1904C5.00969 22.1581 4.99795 22.111 4.9834 22.0498C4.95414 21.9267 4.91211 21.7466 4.86035 21.5156C4.75683 21.0538 4.61346 20.3871 4.45508 19.5635C4.13858 17.9176 3.75862 15.637 3.50488 13.0996C3.2536 10.5868 3.12786 8.82193 3.06445 7.68066C3.03275 7.10999 3.0159 6.69474 3.00781 6.41992C3.00378 6.28288 3.00203 6.18065 3.00098 6.11133C3.00045 6.07665 3.00014 6.04964 3 6.03125V6L3.00488 5.89746C3.05621 5.39333 3.48232 5 4 5H4.5V3C4.5 2.44772 4.94772 2 5.5 2H10.5ZM19.6191 2.50684C19.8949 2.5399 20.147 2.68679 20.3115 2.91504C20.4995 3.17581 20.5499 3.51146 20.4482 3.81641L19.4482 6.81641C19.312 7.22459 18.9303 7.5 18.5 7.5V16H21C21.5523 16 22 16.4477 22 17H21L22 17.001V17.0273C21.9998 17.0404 21.9987 17.0574 21.998 17.0781C21.9967 17.1194 21.9949 17.1758 21.9902 17.2461C21.9809 17.3868 21.9627 17.584 21.9277 17.8291C21.8577 18.3191 21.7193 19.0034 21.4482 19.8164C21.1727 20.643 20.8299 21.3287 20.5557 21.8086C20.418 22.0494 20.2964 22.2409 20.207 22.375C20.1623 22.4421 20.1254 22.4954 20.0986 22.5332C20.0853 22.5519 20.0746 22.567 20.0664 22.5781C20.0623 22.5837 20.0584 22.5881 20.0557 22.5918C20.0544 22.5935 20.0537 22.5954 20.0527 22.5967L20.0508 22.5986V22.5996H20.0498C19.861 22.8514 19.5648 23 19.25 23H15.75C15.4352 23 15.139 22.8514 14.9502 22.5996H14.9492V22.5986L14.9473 22.5967C14.9463 22.5954 14.9456 22.5935 14.9443 22.5918C14.9416 22.5881 14.9377 22.5837 14.9336 22.5781C14.9254 22.567 14.9147 22.5519 14.9014 22.5332C14.8746 22.4954 14.8377 22.4421 14.793 22.375C14.7036 22.2409 14.582 22.0494 14.4443 21.8086C14.1701 21.3287 13.8273 20.643 13.5518 19.8164C13.2807 19.0034 13.1423 18.3191 13.0723 17.8291C13.0373 17.584 13.0191 17.3868 13.0098 17.2461C13.0051 17.1758 13.0033 17.1194 13.002 17.0781C13.0013 17.0574 13.0002 17.0404 13 17.0273V17.001C13 17.0007 13 17 14 17H13C13 16.4477 13.4477 16 14 16H16.5V7.5C16.0697 7.5 15.688 7.22459 15.5518 6.81641L14.5518 3.81641C14.4501 3.51146 14.5005 3.17581 14.6885 2.91504C14.8764 2.65429 15.1786 2.5 15.5 2.5H19.5L19.6191 2.50684ZM5.06055 7.56934C5.12214 8.67807 5.24643 10.4135 5.49512 12.9004C5.74136 15.3628 6.11144 17.5824 6.41992 19.1865C6.56521 19.942 6.69691 20.5595 6.79492 21H9.20508C9.30309 20.5595 9.43479 19.942 9.58008 19.1865C9.88856 17.5824 10.2586 15.3628 10.5049 12.9004C10.7536 10.4135 10.8779 8.67807 10.9395 7.56934C10.9513 7.35682 10.9601 7.16731 10.9678 7H5.03223C5.0399 7.16731 5.04874 7.35682 5.06055 7.56934ZM15.1328 18C15.1993 18.3304 15.2974 18.7309 15.4482 19.1836C15.6727 19.8568 15.9549 20.4213 16.1807 20.8164C16.2187 20.883 16.2561 20.9439 16.29 21H18.71C18.7439 20.9439 18.7813 20.883 18.8193 20.8164C19.0451 20.4213 19.3273 19.8568 19.5518 19.1836C19.7026 18.7309 19.8007 18.3304 19.8672 18H15.1328ZM17.2207 5.5H17.7793L18.1133 4.5H16.8867L17.2207 5.5ZM6.5 5H9.5V4H6.5V5Z" fill="#9E9E9E"/>
</g>
</svg>
