<svg width="24" height="24" viewBox="0 0 24 24" fill="none" xmlns="http://www.w3.org/2000/svg">
<g id="icons/Makeups/lip-tattoo">
<path id="Union" d="M12 1C12.5523 1 13 1.44772 13 2C13 2.55228 12.5523 3 12 3C7.02943 3 3 7.02943 3 12C3 16.9706 7.02943 21 12 21C16.9706 21 21 16.9706 21 12C21 11.4477 21.4477 11 22 11C22.5523 11 23 11.4477 23 12C23 18.0751 18.0751 23 12 23C5.92487 23 1 18.0751 1 12C1 5.92487 5.92487 1 12 1ZM10.75 8C11.3491 8.00001 11.9737 8.17052 12.5029 8.52832C13.0369 8.17182 13.669 8.00488 14.2812 8.00488C15.2793 8.00488 16.3274 8.43746 17.0322 9.32129C17.441 9.83391 17.8347 10.2603 18.1875 10.6016C18.19 10.6039 18.1928 10.606 18.1953 10.6084C18.2144 10.6269 18.2341 10.6442 18.2529 10.6621C18.3312 10.7366 18.4068 10.8072 18.4805 10.873C18.5157 10.9046 18.5503 10.9347 18.584 10.9639C19.0078 11.3308 19.2959 11.5091 19.4053 11.5576C19.5462 11.6201 19.669 11.7131 19.7656 11.8281C19.8623 11.9429 19.9333 12.0793 19.9707 12.2285C19.9827 12.2763 19.9894 12.3247 19.9941 12.373C19.9975 12.4066 19.9991 12.4401 19.999 12.4736C20.0074 12.7796 19.8734 13.0622 19.6523 13.2539C19.6376 13.272 19.6236 13.2911 19.6084 13.3096C19.558 13.3705 19.5037 13.4329 19.4473 13.498C19.4212 13.5281 19.3954 13.5591 19.3682 13.5898C19.3433 13.6179 19.3179 13.6462 19.292 13.6748C19.2309 13.7425 19.1671 13.8117 19.1006 13.8818C19.0806 13.9029 19.0605 13.9241 19.04 13.9453C18.9587 14.0298 18.8731 14.1153 18.7842 14.2021C18.7683 14.2177 18.7525 14.2334 18.7363 14.249C18.6507 14.3317 18.5611 14.4143 18.4688 14.498C18.4352 14.5285 18.4016 14.5593 18.3672 14.5898C18.2829 14.6645 18.1959 14.7389 18.1064 14.8135C18.062 14.8505 18.0164 14.8869 17.9707 14.9238C17.8914 14.9879 17.8097 15.0509 17.7266 15.1143C17.6699 15.1575 17.6131 15.2014 17.5547 15.2441C17.5238 15.2667 17.4942 15.2911 17.4629 15.3135C17.4385 15.3309 17.4131 15.3464 17.3877 15.3613C16.1235 16.2493 14.4719 17 12.5 17C11.0829 17 9.69245 16.4816 8.53027 15.835C8.52464 15.832 8.51829 15.8303 8.5127 15.8271C8.50709 15.824 8.50169 15.8205 8.49609 15.8174C8.48527 15.8113 8.47465 15.8049 8.46387 15.7988C8.32026 15.7177 8.17886 15.6339 8.04004 15.5479C8.02749 15.5401 8.01443 15.5332 8.00195 15.5254C7.99598 15.5217 7.99034 15.5174 7.98438 15.5137C7.84437 15.4259 7.70736 15.3356 7.57324 15.2441C7.55442 15.2313 7.5353 15.219 7.5166 15.2061C7.43948 15.1528 7.36493 15.0971 7.29004 15.043C7.20243 14.9797 7.11566 14.9168 7.03125 14.8525C6.96515 14.8022 6.90083 14.7509 6.83691 14.7002C6.75311 14.6338 6.67071 14.5677 6.59082 14.501C6.53165 14.4515 6.47382 14.4019 6.41699 14.3525C6.33435 14.2807 6.25423 14.2091 6.17676 14.1377C6.12552 14.0905 6.07516 14.0439 6.02637 13.9971C5.96239 13.9357 5.90144 13.8739 5.8418 13.8135C5.7938 13.7648 5.74617 13.7177 5.70117 13.6699C5.64233 13.6074 5.58772 13.5442 5.53418 13.4834C5.45783 13.3966 5.38502 13.3137 5.32031 13.2314C5.11503 13.0403 4.99379 12.7676 5.00098 12.4766C5.0006 12.3861 5.01163 12.2951 5.03613 12.2061C5.11575 11.9171 5.32069 11.6791 5.59473 11.5576C5.59473 11.5576 5.59631 11.5563 5.59961 11.5547C5.60305 11.553 5.6081 11.551 5.61426 11.5479C5.62092 11.5444 5.62868 11.54 5.6377 11.5352C5.65314 11.5269 5.67086 11.5164 5.69141 11.5049C5.71489 11.4915 5.74062 11.4753 5.76953 11.458C5.84486 11.4126 5.93494 11.3563 6.03613 11.2891C6.0562 11.2757 6.07682 11.2622 6.09766 11.248C6.31787 11.0993 6.57331 10.9147 6.83203 10.7119C6.86362 10.6872 6.89424 10.6609 6.92578 10.6357C7.51033 10.1686 7.97219 9.71662 8.14062 9.43359C8.72607 8.44995 9.77319 7.99999 10.75 8ZM16.0596 13.8477C13.4346 14.0601 11.0439 14.0211 9.16016 13.8877C10.2337 14.5417 11.4219 15 12.5 15C13.8817 15 15.0884 14.4925 16.0596 13.8477ZM10.75 10C10.352 10 10.024 10.1798 9.85938 10.4561C9.60286 10.8871 9.17498 11.3308 8.73535 11.7246C8.72786 11.7317 8.72162 11.7402 8.71387 11.7471C8.68634 11.7716 8.65775 11.795 8.62988 11.8193C8.6224 11.8259 8.6149 11.8324 8.60742 11.8389C10.6124 12.0179 13.4292 12.0982 16.5566 11.7959C16.2091 11.4426 15.8399 11.035 15.4678 10.5684C15.1726 10.1985 14.7206 10.0049 14.2812 10.0049C13.8413 10.0049 13.5183 10.191 13.3584 10.458C13.1777 10.7602 12.8511 10.9457 12.499 10.9453C12.147 10.9449 11.8208 10.7594 11.6406 10.457C11.4761 10.1806 11.1482 10 10.75 10ZM20.3984 3.76465H23.3047L20.9531 5.47168L21.8516 8.23633L19.5 6.52832L17.1484 8.23633L18.0469 5.47168L15.6953 3.76465H18.6016L19.5 0.999023L20.3984 3.76465Z" fill="#9E9E9E"/>
</g>
</svg>
