<svg width="24" height="24" viewBox="0 0 24 24" fill="none" xmlns="http://www.w3.org/2000/svg">
<g id="icons/Makeups/lipstick-one">
<path id="Union" d="M19.7179 1.66113C19.9829 1.66127 20.2375 1.76668 20.4249 1.9541L21.132 2.66113C22.3032 3.83258 22.3031 5.73178 21.132 6.90332L18.3029 9.73242L18.3722 9.80859C18.6922 10.2014 18.6688 10.7805 18.3029 11.1465L13.3536 16.0947L13.3546 16.0957C13.7451 16.4862 13.7451 17.1202 13.3546 17.5107L8.40442 22.46C8.01389 22.8505 7.38088 22.8505 6.99036 22.46L2.04016 17.5107C1.64964 17.1202 1.64964 16.4862 2.04016 16.0957L6.99036 11.1465C7.38057 10.7563 8.01286 10.7559 8.40344 11.1455L13.3536 6.19629C13.7441 5.80612 14.3773 5.80607 14.7677 6.19629L19.0099 1.9541C19.1974 1.76659 19.4527 1.66113 19.7179 1.66113ZM4.16223 16.8037L7.69739 20.3389L11.2325 16.8037L7.69641 13.2676L4.16223 16.8037ZM9.8175 12.5596L11.9396 14.6807L16.1818 10.4395L14.0607 8.31836L9.8175 12.5596ZM16.1818 7.61035L16.8888 8.31738L19.7179 5.48926C20.108 5.09876 20.1081 4.46559 19.7179 4.0752L16.1818 7.61035Z" fill="#9E9E9E"/>
</g>
</svg>
