<svg width="24" height="24" viewBox="0 0 24 24" fill="none" xmlns="http://www.w3.org/2000/svg">
<g id="icons/Makeups/lipstick">
<path id="Union" d="M9 1C9.55228 1 10 1.44772 10 2V11H10.5C11.0523 11 11.5 11.4477 11.5 12V22C11.5 22.5523 11.0523 23 10.5 23H3.5C2.94772 23 2.5 22.5523 2.5 22V12C2.5 11.4477 2.94772 11 3.5 11H4V5.72754C4 5.08255 4.24261 3.9403 4.97168 2.93555C5.74086 1.87562 7.03369 1 9 1ZM20.5 11C21.0523 11 21.5 11.4477 21.5 12V22C21.5 22.5523 21.0523 23 20.5 23H14.5C13.9477 23 13.5 22.5523 13.5 22V12C13.5 11.4477 13.9477 11 14.5 11H20.5ZM4.5 17V21H9.5V17H4.5ZM15.5 21H19.5V13H15.5V21ZM4.5 15H9.5V13H4.5V15ZM8 3.12988C7.32127 3.32242 6.88468 3.70542 6.59082 4.11035C6.13255 4.74188 6 5.46352 6 5.72754V11H8V3.12988Z" fill="#9E9E9E"/>
</g>
</svg>
