<svg width="24" height="24" viewBox="0 0 24 24" fill="none" xmlns="http://www.w3.org/2000/svg">
<g id="icons/Makeups/lotion">
<path id="Union" d="M18 1C18.5523 1 19 1.44772 19 2V2.0498C18.9999 2.0815 18.9995 2.12816 18.999 2.18848C18.998 2.30955 18.9962 2.48696 18.9922 2.71289C18.9843 3.16467 18.9681 3.81289 18.9365 4.60254C18.8734 6.1804 18.7475 8.3301 18.4941 10.6104C18.2356 12.9376 17.7195 14.9999 17.2695 16.4785C17.0442 17.2188 16.8343 17.8164 16.6797 18.2314C16.6065 18.428 16.5445 18.5842 16.5 18.6953V22C16.5 22.5523 16.0523 23 15.5 23H8.5C7.94772 23 7.5 22.5523 7.5 22V18.6953C7.4555 18.5842 7.39354 18.428 7.32031 18.2314C7.16568 17.8164 6.95577 17.2188 6.73047 16.4785C6.28048 14.9999 5.76444 12.9376 5.50586 10.6104C5.2525 8.3301 5.12659 6.1804 5.06348 4.60254C5.03189 3.81289 5.01574 3.16467 5.00781 2.71289C5.00385 2.48696 5.00198 2.30955 5.00098 2.18848C5.00048 2.12816 5.00013 2.0815 5 2.0498V2L5.00488 1.89746C5.05621 1.39333 5.48232 1 6 1H18ZM9.5 21H14.5V19.5H9.5V21ZM7.13379 6C7.20695 7.2998 7.31915 8.81473 7.49414 10.3896C7.73555 12.5622 8.21955 14.5001 8.64453 15.8965C8.85052 16.5733 9.04248 17.1194 9.18359 17.5H14.8164C14.9575 17.1194 15.1495 16.5733 15.3555 15.8965C15.7805 14.5001 16.2645 12.5622 16.5059 10.3896C16.6809 8.81473 16.793 7.2998 16.8662 6H7.13379ZM11.7686 7.00684C12.1251 6.96439 12.4768 7.11672 12.6904 7.40527C12.9743 7.7888 13.4052 8.43439 13.8096 9.10059C14.2052 9.75245 14.62 10.4965 14.834 11.0586C15.2122 12.0523 14.9017 13.0626 14.3516 13.7646C13.7997 14.469 12.9092 15 11.8867 15C10.7449 14.9999 9.84078 14.2258 9.38672 13.3906C8.9245 12.5404 8.77091 11.3304 9.52539 10.3389C10.1522 9.51537 10.6594 8.33504 10.9658 7.61035L11.0264 7.49121C11.1836 7.22521 11.4568 7.04402 11.7686 7.00684ZM12.043 10.0469C11.779 10.5556 11.4689 11.0877 11.1172 11.5498C10.9774 11.7335 10.9359 12.0518 11.1445 12.4355C11.3613 12.8339 11.6869 12.9998 11.8867 13C12.2062 13 12.5465 12.8259 12.7773 12.5312C13.0099 12.2345 13.0338 11.952 12.9648 11.7705C12.821 11.3925 12.4904 10.7816 12.0996 10.1377C12.0811 10.1071 12.0616 10.0772 12.043 10.0469ZM7.0459 4H16.9541C16.9666 3.61907 16.9781 3.28292 16.9844 3H7.01562C7.02187 3.28292 7.0334 3.61907 7.0459 4Z" fill="#9E9E9E"/>
</g>
</svg>
