<svg width="24" height="24" viewBox="0 0 24 24" fill="none" xmlns="http://www.w3.org/2000/svg">
<g id="icons/Makeups/makeups">
<path id="Union" d="M12 1C12.5523 1 13 1.44772 13 2C13 2.55228 12.5523 3 12 3C7.02943 3 3 7.02943 3 12C3 16.9706 7.02943 21 12 21C16.9706 21 21 16.9706 21 12C21 11.4477 21.4477 11 22 11C22.5523 11 23 11.4477 23 12C23 18.0751 18.0751 23 12 23C5.92487 23 1 18.0751 1 12C1 5.92487 5.92487 1 12 1ZM15.1094 15.0459C15.3585 14.557 15.9556 14.3597 16.4473 14.6055C16.9412 14.8525 17.1415 15.4533 16.8945 15.9473L16 15.5C16.8354 15.9177 16.8902 15.9459 16.8936 15.9482V15.9492L16.8926 15.9521C16.8918 15.9537 16.8906 15.9552 16.8896 15.957C16.8877 15.9608 16.8853 15.965 16.8828 15.9697C16.8778 15.9792 16.8715 15.9908 16.8643 16.0039C16.8497 16.0305 16.8299 16.0645 16.8057 16.1045C16.7571 16.1845 16.6882 16.2901 16.5967 16.4121C16.4139 16.6559 16.1384 16.9705 15.75 17.2812C14.9605 17.9129 13.7429 18.5 12 18.5C10.2571 18.5 9.03953 17.9129 8.25 17.2812C7.86158 16.9705 7.58613 16.6559 7.40332 16.4121C7.31181 16.2901 7.24293 16.1845 7.19434 16.1045C7.17005 16.0645 7.15035 16.0305 7.13574 16.0039C7.12851 15.9908 7.12216 15.9792 7.11719 15.9697C7.11473 15.965 7.11226 15.9608 7.11035 15.957C7.10943 15.9552 7.10822 15.9537 7.10742 15.9521L7.10645 15.9492V15.9482C7.10984 15.9459 7.16464 15.9177 8 15.5L7.10547 15.9473C6.85848 15.4533 7.05876 14.8525 7.55273 14.6055C8.04437 14.3597 8.64148 14.557 8.89062 15.0459C8.89324 15.0505 8.89754 15.0579 8.90332 15.0674C8.92114 15.0967 8.95397 15.1476 9.00293 15.2129C9.10138 15.3441 9.26352 15.5296 9.5 15.7188C9.96047 16.0871 10.7429 16.5 12 16.5C13.2571 16.5 14.0395 16.0871 14.5 15.7188C14.7365 15.5296 14.8986 15.3441 14.9971 15.2129C15.046 15.1476 15.0789 15.0967 15.0967 15.0674C15.1025 15.0579 15.1068 15.0505 15.1094 15.0459ZM8.5 8.5C9.88071 8.5 11 9.61929 11 11C11 12.3807 9.88071 13.5 8.5 13.5C7.11929 13.5 6 12.3807 6 11C6 9.61929 7.11929 8.5 8.5 8.5ZM15.5 8.5C16.8807 8.5 18 9.61929 18 11C18 12.3807 16.8807 13.5 15.5 13.5C14.1193 13.5 13 12.3807 13 11C13 9.61929 14.1193 8.5 15.5 8.5ZM8.5 10.5C8.22386 10.5 8 10.7239 8 11C8 11.2761 8.22386 11.5 8.5 11.5C8.77614 11.5 9 11.2761 9 11C9 10.7239 8.77614 10.5 8.5 10.5ZM15.5 10.5C15.2239 10.5 15 10.7239 15 11C15 11.2761 15.2239 11.5 15.5 11.5C15.7761 11.5 16 11.2761 16 11C16 10.7239 15.7761 10.5 15.5 10.5ZM19.6592 4.12891H22.4238L20.1865 5.75391L21.041 8.38379L18.8037 6.75781L16.5684 8.38281L17.4229 5.75391L15.1855 4.12891H17.9502L18.8047 1.50098L19.6592 4.12891Z" fill="#9E9E9E"/>
</g>
</svg>
