<svg width="24" height="24" viewBox="0 0 24 24" fill="none" xmlns="http://www.w3.org/2000/svg">
<g id="icons/Makeups/mascara">
<path id="Union" d="M7 1C7.55228 1 8 1.44772 8 2V3.5H9C9.55228 3.5 10 3.94772 10 4.5C10 5.05228 9.55228 5.5 9 5.5H8V6.5H10C10.5523 6.5 11 6.94772 11 7.5C11 8.05228 10.5523 8.5 10 8.5H8V9.5H9C9.55228 9.5 10 9.94771 10 10.5C10 11.0523 9.55228 11.5 9 11.5H8V13H10C10.5523 13 11 13.4477 11 14V22C11 22.5523 10.5523 23 10 23H4C3.44772 23 3 22.5523 3 22V14C3 13.4477 3.44772 13 4 13H6V11.5H5C4.44772 11.5 4 11.0523 4 10.5C4 9.94771 4.44772 9.5 5 9.5H6V8.5H4C3.44772 8.5 3 8.05228 3 7.5C3 6.94772 3.44772 6.5 4 6.5H6V5.5H5C4.44772 5.5 4 5.05228 4 4.5C4 3.94772 4.44772 3.5 5 3.5H6V2C6 1.44772 6.44772 1 7 1ZM20 7C20.5523 7 21 7.44772 21 8V22C21 22.5523 20.5523 23 20 23H14C13.4477 23 13 22.5523 13 22V8C13 7.44772 13.4477 7 14 7H20ZM5 21H9V19H5V21ZM15 21H19V9H15V21ZM5 17H9V15H5V17Z" fill="#9E9E9E"/>
</g>
</svg>
