<svg width="24" height="24" viewBox="0 0 24 24" fill="none" xmlns="http://www.w3.org/2000/svg">
<g id="icons/Makeups/massage-chair-one">
<path id="Union" d="M14 1C14.5523 1 15 1.44772 15 2C15 2.55228 14.5523 3 14 3H13V4.05664C15.6862 4.36341 17.5 5.90074 17.5 7.82617V13H19V8C19 7.44772 19.4477 7 20 7C20.5523 7 21 7.44772 21 8V14C21 14.5523 20.5523 15 20 15H19V17C19 17.5523 18.5523 18 18 18H13V20.5H15.5C16.0523 20.5 16.5 20.9477 16.5 21.5C16.5 22.0523 16.0523 22.5 15.5 22.5H8.5C7.94772 22.5 7.5 22.0523 7.5 21.5C7.5 20.9477 7.94772 20.5 8.5 20.5H11V18H6C5.44772 18 5 17.5523 5 17V15H4C3.44772 15 3 14.5523 3 14V8C3 7.44772 3.44772 7 4 7C4.55228 7 5 7.44772 5 8V13H6.5V7.82617C6.5 5.90074 8.31383 4.36341 11 4.05664V3H10C9.44772 3 9 2.55228 9 2C9 1.44772 9.44772 1 10 1H14ZM7 16H17V15H7V16ZM12 6C9.22626 6 8.5 7.32979 8.5 7.82617V13H15.5V7.82617C15.5 7.32979 14.7737 6 12 6Z" fill="#9E9E9E"/>
</g>
</svg>
