<svg width="24" height="24" viewBox="0 0 24 24" fill="none" xmlns="http://www.w3.org/2000/svg">
<g id="icons/Makeups/massage-chair">
<path id="Union" d="M20 1.5C21.3807 1.5 22.5 2.61929 22.5 4V20C22.5 21.3807 21.3807 22.5 20 22.5H4C2.61929 22.5 1.5 21.3807 1.5 20V4C1.5 2.61929 2.61929 1.5 4 1.5H20ZM4 3.5C3.72386 3.5 3.5 3.72386 3.5 4V20C3.5 20.2761 3.72386 20.5 4 20.5H20C20.2761 20.5 20.5 20.2761 20.5 20V4C20.5 3.72386 20.2761 3.5 20 3.5H4ZM12 5C13.3659 5 14.368 5.34783 15.0459 5.9209C15.7157 6.48717 16 7.22114 16 7.82617V11H17V10C17 9.44772 17.4477 9 18 9C18.5523 9 19 9.44772 19 10V12L18.9951 12.1025C18.9438 12.6067 18.5177 13 18 13H17V15C17 15.5523 16.5523 16 16 16H13V17H15C15.5523 17 16 17.4477 16 18C16 18.5523 15.5523 19 15 19H9C8.44772 19 8 18.5523 8 18C8 17.4477 8.44772 17 9 17H11V16H8C7.44772 16 7 15.5523 7 15V13H6C5.44772 13 5 12.5523 5 12V10C5 9.44772 5.44772 9 6 9C6.55228 9 7 9.44772 7 10V11H8V7.82617C8 7.22114 8.28432 6.48717 8.9541 5.9209C9.63195 5.34783 10.6341 5 12 5ZM9 14H15V13H9V14ZM12 7C10.9665 7 10.4684 7.26046 10.2461 7.44824C10.1317 7.54497 10.0691 7.63874 10.0361 7.70898C10.001 7.784 10 7.8297 10 7.82617V11H14V7.82617C14 7.8297 13.999 7.784 13.9639 7.70898C13.9309 7.63874 13.8683 7.54497 13.7539 7.44824C13.5316 7.26046 13.0335 7 12 7Z" fill="#9E9E9E"/>
</g>
</svg>
