<svg width="24" height="24" viewBox="0 0 24 24" fill="none" xmlns="http://www.w3.org/2000/svg">
<g id="icons/Makeups/massage-table">
<path id="Union" d="M0.55188 5.68359C0.726641 5.15984 1.29268 4.87714 1.81653 5.05176L3.29211 5.54297C3.29743 5.54459 3.30246 5.54712 3.30774 5.54883L4.81653 6.05176C5.34018 6.22658 5.62296 6.79261 5.44836 7.31641C5.27359 7.84006 4.70749 8.12274 4.18372 7.94824L4.00012 7.88672V10.5H6.00012V8.5C6.00012 7.39542 6.89554 6.5 8.00012 6.5H21.0001C22.1046 6.50007 23.0001 7.39546 23.0001 8.5V20C23 20.5522 22.5523 20.9999 22.0001 21C21.4479 21 21.0002 20.5522 21.0001 20V18.8682L18.9698 16.5H10.0304L8.00012 18.8682V20C8.00005 20.5522 7.5523 20.9999 7.00012 21C6.44788 21 6.0002 20.5522 6.00012 20V12.5H3.00012C2.4825 12.5 2.0564 12.1066 2.005 11.6025L2.00012 11.5V7.21973L1.18372 6.94824C0.659987 6.77349 0.377321 6.20742 0.55188 5.68359ZM20.007 14.6387C20.1967 14.7506 20.3453 14.9231 20.4279 15.1299L21.0001 15.7969V12.5H18.174L20.007 14.6387ZM8.00012 15.7959L8.56946 15.1318C8.65184 14.9237 8.8025 14.7501 8.99329 14.6377L10.8263 12.5H8.00012V15.7959ZM11.7452 14.5H17.255L15.5411 12.5H13.4591L11.7452 14.5ZM8.00012 10.5H21.0001V8.5H8.00012V10.5Z" fill="#9E9E9E"/>
</g>
</svg>
