<svg width="24" height="24" viewBox="0 0 24 24" fill="none" xmlns="http://www.w3.org/2000/svg">
<g id="icons/Makeups/mirror-two">
<path id="Union" d="M12 1C15.803 1 18.9426 3.83079 19.4316 7.5H21C21.5523 7.5 22 7.94772 22 8.5C22 13.6853 18.0532 17.9474 13 18.4492V21H15C15.5523 21 16 21.4477 16 22C16 22.5523 15.5523 23 15 23H9C8.44772 23 8 22.5523 8 22C8 21.4477 8.44772 21 9 21H11V18.4492C5.94675 17.9474 2 13.6853 2 8.5C2 7.94772 2.44772 7.5 3 7.5H4.56836C5.05738 3.83079 8.19703 1 12 1ZM4.06445 9.5C4.55669 13.4461 7.9205 16.5 12 16.5C16.0795 16.5 19.4433 13.4461 19.9355 9.5H19.4316C18.9426 13.1692 15.803 16 12 16C8.19703 16 5.05738 13.1692 4.56836 9.5H4.06445ZM12 3C8.96243 3 6.5 5.46243 6.5 8.5C6.5 11.5376 8.96243 14 12 14C15.0376 14 17.5 11.5376 17.5 8.5C17.5 5.46243 15.0376 3 12 3Z" fill="#9E9E9E"/>
</g>
</svg>
