<svg width="24" height="24" viewBox="0 0 24 24" fill="none" xmlns="http://www.w3.org/2000/svg">
<g id="icons/Makeups/mirror">
<path id="Union" d="M12 1C17.2715 1 21.4998 5.18402 21.5 10.9268C21.5 12.9689 20.6766 14.6634 19.8516 16H20.5L20.6025 16.0049C21.1067 16.0561 21.5 16.4823 21.5 17V20C21.5 20.4818 21.4199 20.9636 21.1934 21.4033C20.9604 21.8555 20.607 22.1953 20.1729 22.4365C19.3671 22.8841 18.2616 23 17 23H7C5.73842 23 4.6329 22.8841 3.82715 22.4365C3.39299 22.1953 3.0396 21.8555 2.80664 21.4033C2.58013 20.9636 2.5 20.4818 2.5 20V17C2.5 16.7348 2.60544 16.4805 2.79297 16.293C2.9805 16.1054 3.23478 16 3.5 16H4.14844C3.32337 14.6634 2.5 12.9689 2.5 10.9268C2.50022 5.18402 6.72846 1 12 1ZM4.5 20L4.50781 20.1787C4.52234 20.3355 4.55471 20.4304 4.58398 20.4873C4.6166 20.5506 4.66978 20.6173 4.79785 20.6885C5.11702 20.8658 5.76165 21 7 21H17C18.2383 21 18.8829 20.8658 19.2021 20.6885C19.3304 20.6172 19.3834 20.5507 19.416 20.4873C19.4551 20.4114 19.5 20.2681 19.5 20V18H16.2803L15.9697 19.2422C15.8584 19.6874 15.4589 20 15 20H9.5C9.04114 20 8.64157 19.6873 8.53027 19.2422L8.21973 18H4.5V20ZM12 3C7.883 3 4.50021 6.23796 4.5 10.9268C4.5 12.9353 5.5377 14.4934 6.53906 16H9L9.16895 16.0146C9.55434 16.0806 9.87235 16.3684 9.96973 16.7578L10.2803 18H14.2197L14.5303 16.7578L14.585 16.5967C14.7425 16.2389 15.0987 16 15.5 16H17.4609C18.4623 14.4934 19.5 12.9353 19.5 10.9268C19.4998 6.23796 16.117 3 12 3Z" fill="#9E9E9E"/>
</g>
</svg>
