<svg width="24" height="24" viewBox="0 0 24 24" fill="none" xmlns="http://www.w3.org/2000/svg">
<g id="icons/Makeups/mouth">
<path id="Union" d="M17 6.5C17.8366 6.5 18.6197 6.94969 19.2246 7.40332C19.8628 7.88198 20.4758 8.49955 20.9971 9.08594C21.5227 9.67726 21.9799 10.264 22.3037 10.7012C22.4662 10.9205 22.597 11.1048 22.6875 11.2344C22.7326 11.299 22.7676 11.3509 22.792 11.3867C22.8042 11.4046 22.8137 11.4188 22.8203 11.4287C22.8235 11.4333 22.827 11.4377 22.8301 11.4424L22.832 11.4443V11.4453C22.875 11.5097 22.9102 11.5796 22.9375 11.6533C22.939 11.6575 22.9399 11.6618 22.9414 11.666C22.9714 11.7507 22.99 11.8402 22.9961 11.9336C22.9969 11.9453 22.9977 11.957 22.998 11.9688C22.9984 11.9791 23 11.9895 23 12C23 12.0791 22.989 12.1557 22.9717 12.2295C22.9695 12.2386 22.9673 12.2477 22.9648 12.2568C22.9414 12.345 22.9065 12.428 22.8613 12.5049C22.8569 12.5124 22.8523 12.5199 22.8477 12.5273C22.8234 12.5663 22.7969 12.6035 22.7676 12.6387L22.7666 12.6416L22.707 12.707L22.6865 12.7275C22.675 12.7389 22.6584 12.7544 22.6377 12.7744C22.5957 12.815 22.5359 12.8736 22.458 12.9463C22.3023 13.0916 22.0763 13.2956 21.791 13.54C21.2215 14.0282 20.4084 14.6796 19.4297 15.332C17.5049 16.6152 14.8006 18 12 18C9.19942 18 6.49512 16.6152 4.57031 15.332C3.59165 14.6796 2.77845 14.0282 2.20898 13.54C1.92375 13.2956 1.69765 13.0916 1.54199 12.9463C1.46414 12.8736 1.40426 12.815 1.3623 12.7744C1.34159 12.7544 1.32501 12.7389 1.31348 12.7275L1.29297 12.707C1.24941 12.6635 1.21074 12.6166 1.17676 12.5674C1.14855 12.5265 1.12354 12.4834 1.10156 12.4385C1.09747 12.4301 1.09369 12.4216 1.08984 12.4131C1.06983 12.3691 1.0526 12.3235 1.03906 12.2764C1.03601 12.2657 1.03395 12.2549 1.03125 12.2441C1.0116 12.1659 1 12.0843 1 12C1 11.9228 1.00882 11.8476 1.02539 11.7754C1.02758 11.7659 1.03072 11.7566 1.0332 11.7471C1.06161 11.6382 1.10712 11.5364 1.16797 11.4453V11.4443L1.16895 11.4424C1.17207 11.4377 1.17551 11.4333 1.17871 11.4287C1.18537 11.4188 1.19583 11.4046 1.20801 11.3867C1.23243 11.3509 1.26736 11.299 1.3125 11.2344C1.40302 11.1048 1.53379 10.9205 1.69629 10.7012C2.02013 10.264 2.47731 9.67726 3.00293 9.08594C3.52416 8.49955 4.13718 7.88198 4.77539 7.40332C5.38026 6.94969 6.16338 6.5 7 6.5C8.14976 6.5 9.26498 6.7854 10.1494 7.03809C10.6161 7.17143 10.9843 7.28575 11.3301 7.37598C11.6808 7.46746 11.8874 7.5 12 7.5C12.1126 7.5 12.3192 7.46746 12.6699 7.37598C13.0157 7.28575 13.3839 7.17143 13.8506 7.03809C14.735 6.7854 15.8502 6.5 17 6.5ZM4.7373 13C5.02842 13.2168 5.34293 13.4435 5.67969 13.668C7.50488 14.8848 9.80058 16 12 16C14.1994 16 16.4951 14.8848 18.3203 13.668C18.6571 13.4435 18.9716 13.2168 19.2627 13H4.7373ZM17 8.5C16.1499 8.5 15.2649 8.71463 14.3994 8.96191C13.9914 9.07849 13.5465 9.2143 13.1738 9.31152C12.8059 9.40749 12.3873 9.5 12 9.5C11.6127 9.5 11.1941 9.40749 10.8262 9.31152C10.4535 9.2143 10.0086 9.07849 9.60059 8.96191C8.73509 8.71463 7.85007 8.5 7 8.5C6.83669 8.5 6.49472 8.61285 5.97461 9.00293C5.48787 9.36801 4.97579 9.8755 4.49707 10.4141C4.32215 10.6108 4.15563 10.8089 3.99902 11H20.001C19.8445 10.8088 19.6779 10.6109 19.5029 10.4141C19.0242 9.8755 18.5121 9.36801 18.0254 9.00293C17.5053 8.61285 17.1633 8.5 17 8.5Z" fill="#9E9E9E"/>
</g>
</svg>
