<svg width="24" height="24" viewBox="0 0 24 24" fill="none" xmlns="http://www.w3.org/2000/svg">
<g id="icons/Makeups/nail-polish-one">
<path id="Union" d="M15.5 1C16.0523 1 16.5 1.44772 16.5 2V9H19C20.1046 9 21 9.89543 21 11V21C21 22.1046 20.1046 23 19 23H5C3.89543 23 3 22.1046 3 21V11C3 9.89543 3.89543 9 5 9H7.5V2C7.5 1.44772 7.94772 1 8.5 1H15.5ZM5 21H19V11H13V15C13.4766 15 13.8869 15.3364 13.9805 15.8037L14.4805 18.3037C14.5392 18.5974 14.4633 18.9021 14.2734 19.1338C14.0835 19.3655 13.7996 19.5 13.5 19.5H10.5C10.2004 19.5 9.9165 19.3655 9.72656 19.1338C9.53672 18.9021 9.46079 18.5974 9.51953 18.3037L10.0195 15.8037L10.041 15.7178C10.1649 15.2957 10.5532 15 11 15V11H5V21ZM11.7197 17.5H12.2803L12.1807 17H11.8193L11.7197 17.5ZM9.5 9H14.5V3H9.5V9Z" fill="#9E9E9E"/>
</g>
</svg>
