<svg width="24" height="24" viewBox="0 0 24 24" fill="none" xmlns="http://www.w3.org/2000/svg">
<g id="icons/Makeups/nail-polish">
<path id="Union" d="M13.5537 1C14.6149 1.00008 15.4918 1.829 15.5508 2.88867L15.9395 9.88867C15.942 9.93423 15.94 9.97948 15.9395 10.0244C17.9418 10.2433 19.5 11.9394 19.5 14V20.5C19.5 21.8807 18.3807 23 17 23H7C5.61927 23 4.5 21.8807 4.5 20.5V14C4.5 11.9401 6.05717 10.2441 8.05859 10.0244C8.05809 9.97948 8.05704 9.93423 8.05957 9.88867L8.44824 2.88867C8.50726 1.82903 9.38413 1.00013 10.4453 1H13.5537ZM8.5 12C7.39543 12 6.5 12.8954 6.5 14V20.5C6.5 20.7762 6.72383 21 7 21H17C17.2762 21 17.5 20.7762 17.5 20.5V14C17.5 12.8954 16.6046 12 15.5 12H8.5ZM12 15C12.8284 15 13.5 15.6716 13.5 16.5C13.5 17.3284 12.8284 18 12 18C11.1716 18 10.5 17.3284 10.5 16.5C10.5 15.6716 11.1716 15 12 15ZM10.0566 10H13.9424L13.5537 3H10.4453L10.0566 10Z" fill="#9E9E9E"/>
</g>
</svg>
