<svg width="24" height="24" viewBox="0 0 24 24" fill="none" xmlns="http://www.w3.org/2000/svg">
<g id="icons/Makeups/paint">
<path id="Union" d="M9.83533 3.35938C10.6154 1.55188 12.8364 0.676368 14.5765 1.96484L14.5775 1.96387C16.703 3.5383 19.5921 6.11463 21.7504 9.07812C23.0432 10.8542 22.1386 13.1614 20.2953 13.957L13.0189 17.0957L8.90955 21.2051C7.15232 22.9621 4.30362 22.9619 2.54626 21.2051C0.788916 19.4477 0.788927 16.5982 2.54626 14.8408L6.65271 10.7334L9.83533 3.35938ZM3.96033 16.2559C2.98416 17.2322 2.98406 18.8147 3.96033 19.791C4.93662 20.7668 6.5193 20.767 7.49548 19.791L11.0306 16.2549L7.49548 12.7197L3.96033 16.2559ZM6.78845 15.5479C7.17894 15.1574 7.81198 15.1574 8.20251 15.5479C8.59268 15.9384 8.59292 16.5715 8.20251 16.9619L6.08142 19.083C5.69102 19.4734 5.05791 19.4732 4.66736 19.083C4.27694 18.6925 4.27689 18.0594 4.66736 17.6689L6.78845 15.5479ZM13.3871 3.57129C12.8379 3.16469 12.0201 3.34347 11.6713 4.15137L8.68201 11.0771L12.6722 15.0674L19.5023 12.1211C20.3454 11.7572 20.562 10.8442 20.1332 10.2549C18.128 7.50168 15.4027 5.06433 13.3871 3.57129Z" fill="#9E9E9E"/>
</g>
</svg>
