<svg width="24" height="24" viewBox="0 0 24 24" fill="none" xmlns="http://www.w3.org/2000/svg">
<g id="icons/Makeups/perfumer-bottle">
<path id="Union" d="M17 2.5C17.5523 2.5 18 2.94772 18 3.5V7.5H20.5C21.6046 7.5 22.5 8.39543 22.5 9.5V19.5C22.5 20.6046 21.6046 21.5 20.5 21.5H3.5C2.39543 21.5 1.5 20.6046 1.5 19.5V9.5C1.5 8.39543 2.39543 7.5 3.5 7.5H6V3.5C6 2.94772 6.44772 2.5 7 2.5H17ZM3.5 19.5H20.5V15.5H16V16.5C16 17.0523 15.5523 17.5 15 17.5H9C8.44772 17.5 8 17.0523 8 16.5V15.5H3.5V19.5ZM10 15.5H14V13.5H10V15.5ZM3.5 13.5H8V12.5C8 11.9477 8.44772 11.5 9 11.5H15C15.5523 11.5 16 11.9477 16 12.5V13.5H20.5V9.5H3.5V13.5ZM8 7.5H16V4.5H8V7.5Z" fill="#9E9E9E"/>
</g>
</svg>
