<svg width="24" height="24" viewBox="0 0 24 24" fill="none" xmlns="http://www.w3.org/2000/svg">
<g id="icons/Makeups/razor">
<path id="Union" d="M20.5 1.5C21.6046 1.5 22.5 2.39543 22.5 3.5V11.5C22.5 12.6046 21.6046 13.5 20.5 13.5H16.8994C16.6437 14.7595 15.914 15.8456 14.9053 16.5674L14.5 18.5986V22C14.5 22.5523 14.0523 23 13.5 23C12.9477 23 12.5 22.5523 12.5 22V18.5L12.5049 18.4014C12.5081 18.3687 12.5131 18.336 12.5195 18.3037L12.6895 17.4512C12.464 17.4823 12.234 17.5 12 17.5C11.7657 17.5 11.5353 17.4824 11.3096 17.4512L11.4805 18.3037C11.4934 18.3683 11.5 18.4341 11.5 18.5V22C11.5 22.5523 11.0523 23 10.5 23C9.94771 23 9.5 22.5523 9.5 22V18.5986L9.09375 16.5674C8.08536 15.8456 7.35622 14.7592 7.10059 13.5H3.5C2.39543 13.5 1.5 12.6046 1.5 11.5V3.5C1.5 2.39543 2.39543 1.5 3.5 1.5H20.5ZM9.17383 13.5C9.58594 14.6647 10.6941 15.5 12 15.5C13.3059 15.5 14.4141 14.6647 14.8262 13.5H9.17383ZM3.5 11.5H6V10.5H3.5V11.5ZM8 11.5H16V10.5H8V11.5ZM18 11.5H20.5V10.5H18V11.5ZM3.5 8.5H6V6.5H3.5V8.5ZM8 8.5H16V6.5H8V8.5ZM18 8.5H20.5V6.5H18V8.5ZM3.5 4.5H6V3.5H3.5V4.5ZM8 4.5H16V3.5H8V4.5ZM18 4.5H20.5V3.5H18V4.5Z" fill="#9E9E9E"/>
</g>
</svg>
