<svg width="24" height="24" viewBox="0 0 24 24" fill="none" xmlns="http://www.w3.org/2000/svg">
<g id="icons/Makeups/reel">
<path id="Union" d="M19.5 1C20.0523 1 20.5 1.44772 20.5 2V5C20.5 5.55228 20.0523 6 19.5 6H18V18H19.5C20.0523 18 20.5 18.4477 20.5 19V22C20.5 22.5523 20.0523 23 19.5 23H4.5C3.94772 23 3.5 22.5523 3.5 22V19C3.5 18.4477 3.94772 18 4.5 18H6V6H4.5C3.94772 6 3.5 5.55228 3.5 5V2C3.5 1.44772 3.94772 1 4.5 1H19.5ZM5.5 21H18.5V20H5.5V21ZM10.9561 18H16V14.8145L10.9561 18ZM8 15.0654V17.501L16 12.4482V10.2656L8 15.0654ZM15.7725 6L8 10.5713V12.7334L16 7.93359V6H15.7725ZM8 8.25098L11.8271 6H8V8.25098ZM5.5 4H18.5V3H5.5V4Z" fill="#9E9E9E"/>
</g>
</svg>
