<svg width="24" height="24" viewBox="0 0 24 24" fill="none" xmlns="http://www.w3.org/2000/svg">
<g id="icons/Makeups/scissors">
<path id="Union" d="M20 1.5C21.3807 1.5 22.5 2.61929 22.5 4V20C22.5 21.3807 21.3807 22.5 20 22.5H4C2.61929 22.5 1.5 21.3807 1.5 20V4C1.5 2.61929 2.61929 1.5 4 1.5H20ZM4 3.5C3.72386 3.5 3.5 3.72386 3.5 4V20C3.5 20.2761 3.72386 20.5 4 20.5H20C20.2761 20.5 20.5 20.2761 20.5 20V4C20.5 3.72386 20.2761 3.5 20 3.5H4ZM8 5C9.65685 5 11 6.34315 11 8C11 8.52475 10.8637 9.01718 10.627 9.44629C10.7944 9.7675 10.9275 10.1023 11.0273 10.4453L17.4453 6.16797C17.9048 5.86162 18.5257 5.98578 18.832 6.44531C19.1384 6.90484 19.0142 7.52568 18.5547 7.83203L12.3027 12L18.5547 16.168C19.0142 16.4743 19.1384 17.0952 18.832 17.5547C18.5257 18.0142 17.9048 18.1384 17.4453 17.832L11.0273 13.5537C10.9276 13.8968 10.7943 14.2315 10.627 14.5527C10.864 14.982 11 15.4749 11 16C11 17.6569 9.65685 19 8 19C6.34315 19 5 17.6569 5 16C5 14.3431 6.34315 13 8 13C8.36714 13 8.71784 13.0688 9.04297 13.1895C9.31532 12.4231 9.31552 11.5759 9.04297 10.8096C8.71775 10.9303 8.36726 11 8 11C6.34315 11 5 9.65685 5 8C5 6.34315 6.34315 5 8 5ZM8 15C7.44772 15 7 15.4477 7 16C7 16.5523 7.44772 17 8 17C8.55228 17 9 16.5523 9 16C9 15.4477 8.55228 15 8 15ZM8 7C7.44772 7 7 7.44772 7 8C7 8.55228 7.44772 9 8 9C8.55228 9 9 8.55228 9 8C9 7.44772 8.55228 7 8 7Z" fill="#9E9E9E"/>
</g>
</svg>
