<svg width="24" height="24" viewBox="0 0 24 24" fill="none" xmlns="http://www.w3.org/2000/svg">
<g id="icons/Makeups/shaving">
<path id="Union" d="M18.1025 1.00488C18.6067 1.05621 19 1.48232 19 2V4.5C19 5.05228 18.5523 5.5 18 5.5H15.5V7.5H16C17.1046 7.5 18 8.39543 18 9.5V21C18 22.1046 17.1046 23 16 23H8C6.89543 23 6 22.1046 6 21V9.5C6 8.39543 6.89543 7.5 8 7.5H8.5V4.5C8.5 4.21314 8.49122 3.25538 9.25293 2.39844C10.0196 1.53595 11.3552 1 13.5 1H18L18.1025 1.00488ZM8 21H16V9.5H8V21ZM10.5 7.5H13.5V7H10.5V7.5ZM13.5 3C11.6448 3 10.9804 3.46405 10.7471 3.72656C10.5088 3.99461 10.5 4.28687 10.5 4.5C10.5 4.72123 10.5 4.84458 10.5 5H13.5V4.5C13.5 3.94772 13.9477 3.5 14.5 3.5H17V3H13.5Z" fill="#9E9E9E"/>
</g>
</svg>
