<svg width="24" height="24" viewBox="0 0 24 24" fill="none" xmlns="http://www.w3.org/2000/svg">
<g id="icons/Makeups/shaver-one">
<path id="Union" d="M7.8252 1.08887C8.09319 0.967852 8.40147 0.970338 8.66699 1.09668L10.3125 1.88086L11.5938 1.13574L11.7139 1.07617C11.9997 0.957768 12.3278 0.977684 12.5996 1.13574L13.8799 1.88086L15.5264 1.09668L15.6318 1.05371C15.8824 0.967821 16.1591 0.98477 16.3994 1.10352L18.4434 2.11426C18.7841 2.28287 18.9999 2.63054 19 3.01074V16.5C19 18.6696 18.1201 20.3585 16.7656 21.4873C15.434 22.597 13.6963 23.125 12 23.125C10.3039 23.125 8.56691 22.5967 7.23535 21.4873C5.88083 20.3585 5.00003 18.6697 5 16.5V3.01074C5.00008 2.6178 5.23075 2.26038 5.58887 2.09863L7.8252 1.08887ZM7 16.5C7.00002 18.0802 7.62025 19.204 8.51562 19.9502C9.43398 20.7155 10.6964 21.125 12 21.125C13.3036 21.125 14.566 20.7154 15.4844 19.9502C16.3797 19.204 17 18.0802 17 16.5V8H7V16.5ZM14 16.5C14.5522 16.5 14.9999 16.9478 15 17.5C15 18.0523 14.5523 18.5 14 18.5H10C9.44772 18.5 9 18.0523 9 17.5C9.0001 16.9478 9.44778 16.5 10 16.5H14ZM12 9.5C13.6568 9.5 14.9999 10.8432 15 12.5C15 14.1569 13.6569 15.5 12 15.5C10.3431 15.5 9 14.1569 9 12.5C9.0001 10.8432 10.3432 9.5 12 9.5ZM12 11.5C11.4478 11.5 11.0001 11.9478 11 12.5C11 13.0523 11.4477 13.5 12 13.5C12.5523 13.5 13 13.0523 13 12.5C12.9999 11.9478 12.5522 11.5 12 11.5ZM7 3.65527V6H17V3.63086L15.9473 3.11133L14.2627 3.91309C13.9646 4.05485 13.6154 4.04097 13.3301 3.875L12.0957 3.15625L10.8623 3.875C10.5769 4.04088 10.2277 4.05494 9.92969 3.91309L8.22461 3.10156L7 3.65527Z" fill="#9E9E9E"/>
</g>
</svg>
