<svg width="24" height="24" viewBox="0 0 24 24" fill="none" xmlns="http://www.w3.org/2000/svg">
<g id="icons/Makeups/soap-bubble">
<path id="Union" d="M11 7C15.841 7 20 10.4605 20 15C20 19.5395 15.841 23 11 23C6.15904 23 2 19.5395 2 15C2 10.4605 6.15904 7 11 7ZM11 9C7.0044 9 4 11.8075 4 15C4 18.1925 7.0044 21 11 21C14.9956 21 18 18.1925 18 15C18 11.8075 14.9956 9 11 9ZM13.124 11.0078C13.5735 11.064 14.2578 11.2331 14.918 11.7354C15.593 12.249 16.1693 13.0563 16.4697 14.2578C16.6035 14.7935 16.2779 15.3358 15.7422 15.4697C15.2065 15.6035 14.6642 15.2779 14.5303 14.7422C14.3307 13.9439 13.9903 13.5427 13.707 13.3271C13.4089 13.1003 13.0932 13.0193 12.876 12.9922C12.328 12.9237 11.9393 12.424 12.0078 11.876C12.0763 11.328 12.576 10.9393 13.124 11.0078ZM20.5 4C21.8807 4 23 5.11929 23 6.5C23 7.88071 21.8807 9 20.5 9C19.1193 9 18 7.88071 18 6.5C18 5.11929 19.1193 4 20.5 4ZM4 1C5.65685 1 7 2.34315 7 4C7 5.65685 5.65685 7 4 7C2.34315 7 1 5.65685 1 4C1 2.34315 2.34315 1 4 1ZM20.5 6C20.2239 6 20 6.22386 20 6.5C20 6.77614 20.2239 7 20.5 7C20.7761 7 21 6.77614 21 6.5C21 6.22386 20.7761 6 20.5 6ZM4 3C3.44772 3 3 3.44772 3 4C3 4.55228 3.44772 5 4 5C4.55228 5 5 4.55228 5 4C5 3.44772 4.55228 3 4 3Z" fill="#9E9E9E"/>
</g>
</svg>
