<svg width="24" height="24" viewBox="0 0 24 24" fill="none" xmlns="http://www.w3.org/2000/svg">
<g id="icons/Makeups/spa-candle">
<path id="Union" d="M11.769 1.00684C12.1254 0.964586 12.4774 1.11685 12.6909 1.40527C12.9747 1.78882 13.4058 2.43445 13.8101 3.10059C14.2057 3.75242 14.6205 4.4965 14.8345 5.05859C15.2126 6.05217 14.902 7.06257 14.3521 7.76465C14.0134 8.19679 13.5463 8.56221 13.0005 8.78125V11H19.7534C21.0326 11.0002 21.9836 12.1849 21.7065 13.4336L20.1509 20.4336C19.9476 21.3485 19.135 21.9998 18.1978 22H5.80225C4.86493 21.9999 4.05343 21.3485 3.8501 20.4336L2.29443 13.4336C2.0172 12.1848 2.96742 11.0002 4.24658 11H11.0005V8.83594C10.2807 8.5658 9.7159 7.99514 9.38721 7.39062C8.92499 6.54043 8.7714 5.33038 9.52588 4.33887C10.1525 3.51543 10.6599 2.33496 10.9663 1.61035L11.0269 1.49121C11.1841 1.22539 11.4574 1.044 11.769 1.00684ZM5.80225 20H18.1978L19.7534 13H4.24658L5.80225 20ZM12.0435 4.04688C11.7796 4.55549 11.4693 5.08775 11.1177 5.5498C10.9779 5.73346 10.9364 6.0518 11.145 6.43555C11.3618 6.83383 11.6874 6.99985 11.8872 7C12.2065 6.99983 12.5471 6.82573 12.7778 6.53125C13.0101 6.23462 13.0343 5.95193 12.9653 5.77051C12.8215 5.3925 12.4909 4.78153 12.1001 4.1377C12.0816 4.10716 12.062 4.0772 12.0435 4.04688Z" fill="#9E9E9E"/>
</g>
</svg>
