<svg width="24" height="24" viewBox="0 0 24 24" fill="none" xmlns="http://www.w3.org/2000/svg">
<g id="icons/Makeups/straight-razor">
<path id="Union" d="M4.04742 1.00195C4.05719 1.00242 4.06699 1.00218 4.07672 1.00293L4.09625 1.00488C4.16398 1.01139 4.23093 1.02561 4.29645 1.0459C4.30628 1.04896 4.31601 1.0523 4.32574 1.05566C4.35113 1.0644 4.37618 1.07412 4.40094 1.08496C4.41308 1.09029 4.42514 1.09575 4.43707 1.10156C4.45927 1.11236 4.48099 1.12418 4.5025 1.13672C4.5107 1.1415 4.51884 1.14635 4.52692 1.15137C4.55261 1.16735 4.57764 1.18459 4.60211 1.20312C4.6086 1.20803 4.61526 1.2127 4.62164 1.21777C4.65092 1.24109 4.6795 1.26589 4.7066 1.29297L17.8384 14.4248L19.358 14.1572C20.4456 13.9656 21.4826 14.6916 21.6744 15.7793L21.8482 16.7637C21.9371 17.2677 21.8267 17.7598 21.5767 18.1631L22.7066 19.293C23.0971 19.6835 23.0971 20.3165 22.7066 20.707C22.3161 21.0975 21.683 21.0975 21.2925 20.707L19.7496 19.1641L3.48395 22.0332C2.39622 22.2249 1.35934 21.4979 1.16754 20.4102L0.993713 19.4258C0.801923 18.338 1.52807 17.3012 2.61578 17.1094L15.4341 14.8486L13.192 12.6064L11.7779 14.0205C11.3874 14.411 10.7543 14.411 10.3638 14.0205L10.3629 14.0195C10.3622 14.0191 10.3608 14.0184 10.3599 14.0176L3.99957 7.65723C3.24038 6.89796 2.78631 6.25589 2.54059 5.6416C2.28694 5.00717 2.29254 4.48369 2.29254 4.12109C2.29262 3.80473 2.36741 3.47769 2.44196 3.2168C2.52087 2.94065 2.62172 2.6629 2.71735 2.42383C2.81381 2.18267 2.9097 1.96703 2.98102 1.8125C3.01678 1.73502 3.0474 1.67151 3.06891 1.62695C3.07946 1.60509 3.08817 1.58767 3.0943 1.5752L3.10504 1.55371V1.55273L3.16461 1.44922C3.20931 1.38144 3.26299 1.32097 3.32184 1.2666C3.36317 1.22835 3.40603 1.19308 3.45172 1.16309C3.49688 1.13352 3.54472 1.10794 3.5943 1.08594C3.60603 1.08073 3.61757 1.07504 3.62946 1.07031C3.65301 1.06093 3.67739 1.0535 3.70172 1.0459C3.70693 1.04427 3.71211 1.04255 3.71735 1.04102C3.73918 1.03458 3.76139 1.02937 3.78375 1.02441C3.79548 1.02183 3.80711 1.01876 3.81891 1.0166C3.82574 1.01534 3.83254 1.01381 3.83942 1.0127L3.90387 1.00488C3.91394 1.00392 3.92405 1.00359 3.93414 1.00293C3.94751 1.00205 3.96084 1.00132 3.97418 1.00098C3.99861 1.00035 4.02302 1.0008 4.04742 1.00195ZM2.96344 19.0781L3.13727 20.0635L19.4097 17.1934C19.5454 17.0938 19.7004 17.0332 19.8599 17.0107L19.7047 16.127L2.96344 19.0781ZM4.36188 3.77637C4.30652 3.97223 4.29267 4.08415 4.29254 4.12109C4.29254 4.46532 4.29847 4.65041 4.39801 4.89941C4.50588 5.16885 4.75969 5.58811 5.41364 6.24219C6.12069 6.94923 7.71239 8.54095 9.12653 9.95508C9.83338 10.6619 10.4959 11.3255 10.982 11.8115L11.0699 11.8994L11.7779 11.1924L4.36188 3.77637Z" fill="#9E9E9E"/>
</g>
</svg>
