<svg width="24" height="24" viewBox="0 0 24 24" fill="none" xmlns="http://www.w3.org/2000/svg">
<g id="icons/Measurement/color-card">
<path id="Union" d="M8 1C8.55228 1 9 1.44772 9 2V9.33984L17.0352 1.29297L17.0693 1.26172L17.0869 1.24512C17.0897 1.24271 17.0919 1.23968 17.0947 1.2373L17.1084 1.22656C17.112 1.22363 17.1155 1.22065 17.1191 1.21777C17.1584 1.18651 17.2 1.15869 17.2432 1.13379C17.2483 1.1308 17.2536 1.12789 17.2588 1.125C17.3033 1.10034 17.3497 1.07912 17.3975 1.06152C17.4035 1.05929 17.4099 1.05778 17.416 1.05566C17.4628 1.03945 17.5106 1.02573 17.5596 1.0166C17.5683 1.01498 17.5772 1.01409 17.5859 1.0127C17.6325 1.00529 17.6798 1.00072 17.7275 1H17.7422C17.7598 0.999996 17.7774 1.00103 17.7949 1.00195C17.8073 1.0026 17.8197 1.0028 17.832 1.00391C17.855 1.00598 17.8777 1.01003 17.9004 1.01367C17.9108 1.01533 17.9213 1.0156 17.9316 1.01758C17.9458 1.02032 17.9596 1.02497 17.9736 1.02832C17.9929 1.03289 18.0124 1.0363 18.0312 1.04199C18.0399 1.04461 18.048 1.04891 18.0566 1.05176C18.0787 1.05905 18.1006 1.0664 18.1221 1.0752C18.1244 1.07614 18.1266 1.07717 18.1289 1.07812C18.2478 1.1279 18.3573 1.20009 18.4502 1.29297L22.7002 5.54297C23.0904 5.93343 23.0904 6.56657 22.7002 6.95703L14.6572 15H22C22.5523 15 23 15.4477 23 16V22C23 22.5523 22.5523 23 22 23H5C4.00632 23 3.09795 22.6369 2.39844 22.0371C2.37257 22.0149 2.34574 21.9937 2.32031 21.9707L2.17188 21.8281C2.12662 21.7829 2.08212 21.7368 2.03906 21.6895C1.56552 21.1684 1.22752 20.5219 1.08105 19.8057C1.0278 19.5454 1 19.276 1 19V2C1 1.44772 1.44772 1 2 1H8ZM8.65625 21H21V17H12.6572L8.65625 21ZM9 12.1719V17.8281L20.5781 6.25L17.75 3.42188L9 12.1719Z" fill="#9E9E9E"/>
</g>
</svg>
