<svg width="24" height="24" viewBox="0 0 24 24" fill="none" xmlns="http://www.w3.org/2000/svg">
<g id="icons/Measurement/compass">
<path id="Union" d="M12.0004 1C12.5525 1.00024 13.0004 1.44786 13.0004 2V3.17383C14.1649 3.58605 15.0004 4.69429 15.0004 6C15.0004 6.92183 14.5834 7.74558 13.9291 8.2959L16.9594 16.376C17.4028 16.1636 17.8319 15.9255 18.2416 15.6602C18.705 15.3604 19.3242 15.493 19.6245 15.9561C19.9244 16.4195 19.7918 17.0396 19.3286 17.3398C18.7985 17.683 18.2422 17.9894 17.6645 18.2568L18.937 21.6484C19.1307 22.1653 18.8686 22.7424 18.352 22.9365C17.835 23.1304 17.258 22.8684 17.0639 22.3516L15.7914 18.958C14.5882 19.3095 13.3162 19.4999 12.0004 19.5C10.6845 19.5 9.41193 19.3095 8.20844 18.958L6.93695 22.3516C6.74296 22.8683 6.16578 23.1301 5.64886 22.9365C5.13196 22.7425 4.87002 22.1655 5.0639 21.6484L6.33441 18.2568C5.75683 17.9895 5.20119 17.6829 4.67133 17.3398C4.20781 17.0396 4.07526 16.4196 4.37543 15.9561C4.67568 15.4927 5.29573 15.36 5.75922 15.6602C6.16887 15.9254 6.59719 16.1636 7.04047 16.376L10.0707 8.2959C9.41652 7.74558 9.00043 6.92181 9.00043 6C9.00043 4.694 9.83554 3.58583 11.0004 3.17383V2C11.0004 1.44772 11.4481 1 12.0004 1ZM12.0004 9C11.9816 9 11.9625 8.99839 11.9438 8.99805L8.91351 17.0791C9.89547 17.3521 10.9305 17.5 12.0004 17.5C13.0702 17.5 14.1046 17.3521 15.0864 17.0791L12.0561 8.99805C12.0376 8.99839 12.019 9 12.0004 9ZM12.0004 5C11.4481 5 11.0004 5.44772 11.0004 6C11.0004 6.29914 11.1321 6.56674 11.3403 6.75C11.4583 6.74952 11.5788 6.76961 11.6957 6.81348C11.8106 6.85666 11.912 6.91993 11.9995 6.99609C12.0872 6.9196 12.1898 6.85676 12.3051 6.81348C12.4216 6.76984 12.5411 6.74965 12.6586 6.75C12.8672 6.56673 13.0004 6.29943 13.0004 6C13.0004 5.44786 12.5525 5.00024 12.0004 5Z" fill="#9E9E9E"/>
</g>
</svg>
