<svg width="24" height="24" viewBox="0 0 24 24" fill="none" xmlns="http://www.w3.org/2000/svg">
<g id="icons/Measurement/cuvette">
<path id="Union" d="M15 4C15.5523 4 16 4.44772 16 5V13.0859L22.707 19.793C22.8946 19.9805 23 20.2348 23 20.5V22C23 22.5523 22.5523 23 22 23H2C1.44772 23 1 22.5523 1 22V20.5L1.00488 20.4014C1.02757 20.1724 1.12883 19.9571 1.29297 19.793L8 13.0859V5C8 4.44772 8.44772 4 9 4H15ZM5.41406 18.5L3 20.9141V21H21V20.9141L18.5859 18.5H5.41406ZM10 13.5C10 13.7652 9.89457 14.0195 9.70703 14.207L7.41406 16.5H16.5859L14.293 14.207C14.1054 14.0195 14 13.7652 14 13.5V6H10V13.5ZM12 12.5C12.5523 12.5 13 12.9477 13 13.5V14C13 14.5523 12.5523 15 12 15C11.4477 15 11 14.5523 11 14V13.5C11 12.9477 11.4477 12.5 12 12.5ZM12 8C12.5523 8 13 8.44772 13 9V10.5C13 11.0523 12.5523 11.5 12 11.5C11.4477 11.5 11 11.0523 11 10.5V9C11 8.44772 11.4477 8 12 8ZM15 1C15.5523 1 16 1.44772 16 2C16 2.55228 15.5523 3 15 3H9C8.44772 3 8 2.55228 8 2C8 1.44772 8.44772 1 9 1H15Z" fill="#9E9E9E"/>
</g>
</svg>
