<svg width="24" height="24" viewBox="0 0 24 24" fill="none" xmlns="http://www.w3.org/2000/svg">
<g id="icons/Measurement/experiment-one">
<path id="Union" d="M15.0144 1C15.5665 1.00016 16.0144 1.44782 16.0144 2V7.29102L19.5173 14.5527C19.5195 14.557 19.5221 14.5611 19.5242 14.5654L21.7683 19.2178C21.9407 19.575 22.03 19.9666 22.03 20.3633C22.03 21.8191 20.85 22.9997 19.3943 23H4.61011C4.21237 23 3.81965 22.9096 3.46167 22.7363C2.1513 22.1019 1.60287 20.5253 2.23706 19.2148L4.48804 14.5645L8.00952 7.28906V2C8.00952 1.44772 8.45724 1 9.00952 1H15.0144ZM16.2 15.0342C15.1106 14.7684 13.817 14.7872 12.6404 15.7676C10.8175 17.2866 8.80185 17.2677 7.33179 16.9082C6.74651 16.7651 6.23437 16.5652 5.83081 16.3789L4.03687 20.0859C3.88385 20.4022 4.0166 20.7834 4.33276 20.9365C4.41914 20.9783 4.51419 21 4.61011 21H19.3943C19.7455 20.9997 20.03 20.7145 20.03 20.3633C20.03 20.2675 20.0082 20.1732 19.9666 20.0869L17.8494 15.6982C17.7716 15.6535 17.6743 15.5991 17.5593 15.541C17.2211 15.3701 16.747 15.1677 16.2 15.0342ZM10.0095 7.51953C10.0095 7.67033 9.97561 7.81934 9.90991 7.95508L6.70288 14.5791C7.00812 14.7181 7.38523 14.8628 7.8064 14.9658C8.89206 15.2313 10.1831 15.2122 11.3601 14.2314C13.1452 12.744 15.1175 12.7321 16.5808 13.0693L14.113 7.9541C14.0477 7.81865 14.0144 7.66991 14.0144 7.51953V3H10.0095V7.51953Z" fill="#9E9E9E"/>
</g>
</svg>
