<svg width="24" height="24" viewBox="0 0 24 24" fill="none" xmlns="http://www.w3.org/2000/svg">
<g id="icons/Measurement/flask">
<path id="Union" d="M15 2C15.5522 2.00008 16 2.44776 16 3V13.0918L19.6289 16.8037C19.6317 16.8065 19.635 16.8087 19.6377 16.8115L22.7148 19.959C22.8974 20.1457 22.9999 20.3961 23 20.6572V22C22.9999 22.5522 22.5522 23 22 23H2C1.44778 23 1.00011 22.5522 1 22V20.6572C1.00012 20.3961 1.10265 20.1457 1.28516 19.959L4.34473 16.8301L4.34863 16.8262L8 13.0918V3C8 2.4478 8.44783 2.00013 9 2H15ZM5.48047 18.5283L3.06348 21H20.9365L18.502 18.5107L5.48047 18.5283ZM10 13.5C10 13.7614 9.89758 14.0124 9.71484 14.1992L7.46289 16.5H16.5342L14.2852 14.1992C14.1025 14.0124 14 13.7613 14 13.5V11H12C11.4477 11 11 10.5523 11 10C11 9.44772 11.4477 9 12 9H14V8H12C11.4477 8 11 7.55228 11 7C11 6.44772 11.4477 6 12 6H14V4H10V13.5Z" fill="#9E9E9E"/>
</g>
</svg>
