<svg width="24" height="24" viewBox="0 0 24 24" fill="none" xmlns="http://www.w3.org/2000/svg">
<g id="icons/Measurement/rule-two">
<path id="Union" d="M12 5.5C15.5251 5.5 18.3109 6.84662 20.2002 9.0752C22.0723 11.2835 23 14.2792 23 17.5C23 18.0523 22.5523 18.5 22 18.5H2C1.44772 18.5 1 18.0523 1 17.5C1 14.2792 1.92773 11.2835 3.7998 9.0752C5.68906 6.84662 8.47486 5.5 12 5.5ZM12 7.5C9.02523 7.5 6.81094 8.61562 5.3252 10.3682C4.0005 11.9308 3.20531 14.062 3.03516 16.5H4V15.5C4 14.9477 4.44772 14.5 5 14.5C5.55228 14.5 6 14.9477 6 15.5V16.5H7.5V15.5C7.5 14.9477 7.94772 14.5 8.5 14.5C9.05229 14.5 9.5 14.9477 9.5 15.5V16.5H11V15.5C11 14.9477 11.4477 14.5 12 14.5C12.5523 14.5 13 14.9477 13 15.5V16.5H14.5V15.5C14.5 14.9477 14.9477 14.5 15.5 14.5C16.0523 14.5 16.5 14.9477 16.5 15.5V16.5H18V15.5C18 14.9477 18.4477 14.5 19 14.5C19.5523 14.5 20 14.9477 20 15.5V16.5H20.9648C20.7947 14.062 19.9995 11.9308 18.6748 10.3682C17.1891 8.61562 14.9748 7.5 12 7.5ZM12 9C13.2727 9 14.6882 9.29443 15.8203 9.89062C16.9314 10.4759 18 11.4937 18 13C18 13.5523 17.5523 14 17 14H7C6.44772 14 6 13.5523 6 13C6 11.4937 7.06862 10.4759 8.17969 9.89062C9.31181 9.29443 10.7273 9 12 9ZM12 11C10.9956 11 9.91088 11.2396 9.1123 11.6602C8.9026 11.7706 8.72763 11.8847 8.58301 12H15.417C15.2724 11.8847 15.0974 11.7706 14.8877 11.6602C14.0891 11.2396 13.0044 11 12 11Z" fill="#9E9E9E"/>
</g>
</svg>
