<svg width="24" height="24" viewBox="0 0 24 24" fill="none" xmlns="http://www.w3.org/2000/svg">
<g id="icons/Measurement/ruler-one">
<path id="Union" d="M19.3597 1.5C19.6983 1.50018 20.0143 1.67205 20.1986 1.95605C20.3826 2.24005 20.4106 2.59811 20.2728 2.90723L12.8724 19.5H21.5004C22.0525 19.5002 22.5004 19.9478 22.5004 20.5C22.5004 21.0522 22.0525 21.4998 21.5004 21.5H11.5004C11.4655 21.5 11.4308 21.4976 11.3969 21.4941C11.3751 21.4956 11.3534 21.5 11.3314 21.5H2.50037C2.49819 21.5 2.49571 21.499 2.49353 21.499C2.41517 21.4986 2.33636 21.4893 2.25818 21.4697C2.25097 21.4679 2.24386 21.4658 2.23669 21.4639C2.2075 21.4559 2.17861 21.4464 2.14978 21.4355C2.13963 21.4317 2.12952 21.4279 2.11951 21.4238C2.11115 21.4204 2.10243 21.4178 2.09412 21.4141C2.07436 21.4053 2.0554 21.3946 2.0365 21.3848C2.03069 21.3817 2.02467 21.3791 2.01892 21.376C1.83286 21.274 1.69004 21.1204 1.60193 20.9404C1.59627 20.9289 1.59149 20.917 1.5863 20.9053C1.57719 20.8847 1.56863 20.8639 1.56091 20.8428C1.55455 20.8253 1.5487 20.8078 1.54333 20.79C1.53776 20.7717 1.53321 20.753 1.52869 20.7344C1.52476 20.7181 1.52007 20.702 1.51697 20.6855C1.5032 20.613 1.4977 20.5387 1.50037 20.4639C1.5007 20.4547 1.50174 20.4456 1.50232 20.4365C1.50422 20.4066 1.50742 20.3766 1.51208 20.3467C1.5135 20.3375 1.51529 20.3285 1.51697 20.3193C1.52251 20.2893 1.52906 20.2593 1.53748 20.2295C1.53984 20.2211 1.54172 20.2125 1.54431 20.2041C1.55586 20.167 1.57012 20.1302 1.5863 20.0938L9.5863 2.09375C9.60585 2.04978 9.62887 2.00839 9.65369 1.96875L9.65564 1.96484C9.65791 1.96126 9.66016 1.95766 9.66248 1.9541C9.72882 1.85207 9.81127 1.76487 9.90564 1.69531C9.91188 1.6907 9.91883 1.68708 9.92517 1.68262C9.9497 1.6654 9.97448 1.64869 10.0004 1.63379C10.0103 1.62804 10.0205 1.6226 10.0306 1.61719C10.0551 1.60419 10.0804 1.59295 10.1058 1.58203C10.1154 1.5779 10.1244 1.57219 10.1342 1.56836C10.1661 1.55583 10.1988 1.54535 10.2318 1.53613L10.2474 1.53223C10.2507 1.53137 10.2539 1.53012 10.2572 1.5293C10.2893 1.52124 10.322 1.5156 10.3549 1.51074C10.3669 1.50898 10.3789 1.50718 10.391 1.50586C10.4211 1.50253 10.4514 1.50156 10.4818 1.50098C10.4879 1.50087 10.4943 1.5 10.5004 1.5H19.3597ZM9.90662 6.2998H12.4008C12.9529 6.29997 13.4008 6.74762 13.4008 7.2998C13.4008 7.85199 12.9529 8.29964 12.4008 8.2998H9.01794L8.15759 10.2354H10.6459C11.198 10.2355 11.6459 10.6832 11.6459 11.2354C11.6459 11.7875 11.198 12.2352 10.6459 12.2354H7.26794L6.51013 13.9414H8.99353C9.54567 13.9416 9.99353 14.3892 9.99353 14.9414C9.99353 15.4936 9.54567 15.9412 8.99353 15.9414H5.62146L4.03943 19.5H10.683L17.8187 3.5H11.1508L9.90662 6.2998Z" fill="#9E9E9E"/>
</g>
</svg>
