<svg width="24" height="24" viewBox="0 0 24 24" fill="none" xmlns="http://www.w3.org/2000/svg">
<g id="icons/Measurement/ruler">
<path id="Union" d="M16.3693 1.22461C16.762 0.904259 17.341 0.926853 17.7072 1.29297L22.7072 6.29297C23.0975 6.68351 23.0976 7.31656 22.7072 7.70703L7.70715 22.707C7.31667 23.0974 6.6836 23.0974 6.29309 22.707L1.29309 17.707C0.902593 17.3165 0.902646 16.6835 1.29309 16.293L16.2931 1.29297L16.3693 1.22461ZM15.9142 4.5L17.2072 5.79297C17.5975 6.18351 17.5976 6.81656 17.2072 7.20703C16.8167 7.59742 16.1836 7.59737 15.7931 7.20703L14.5001 5.91406L13.4142 7L15.7072 9.29297C16.0975 9.68351 16.0976 10.3166 15.7072 10.707C15.3167 11.0974 14.6836 11.0974 14.2931 10.707L12.0001 8.41406L10.9142 9.5L12.2072 10.793C12.5975 11.1835 12.5976 11.8166 12.2072 12.207C11.8167 12.5974 11.1836 12.5974 10.7931 12.207L9.50012 10.9141L8.41418 12L10.7072 14.293C11.0975 14.6835 11.0976 15.3166 10.7072 15.707C10.3167 16.0974 9.6836 16.0974 9.29309 15.707L7.00012 13.4141L5.91418 14.5L7.20715 15.793C7.59752 16.1835 7.59763 16.8166 7.20715 17.207C6.81667 17.5974 6.1836 17.5974 5.79309 17.207L4.50012 15.9141L3.41418 17L7.00012 20.5859L20.5861 7L17.0001 3.41406L15.9142 4.5Z" fill="#9E9E9E"/>
</g>
</svg>
