<svg width="24" height="24" viewBox="0 0 24 24" fill="none" xmlns="http://www.w3.org/2000/svg">
<g id="icons/Measurement/thermometer">
<path id="Union" d="M12 1C14.2091 1 16 2.79086 16 5V12.5303C17.2254 13.6277 18 15.223 18 17C18 20.3137 15.3137 23 12 23C8.68632 23 6 20.3137 6 17C6 15.223 6.77459 13.6277 8 12.5303V5C8 2.79086 9.79087 1 12 1ZM12 3C10.8954 3 10 3.89543 10 5V13C9.99989 13.3143 9.85184 13.61 9.60059 13.7988C8.62677 14.5303 8 15.692 8 17C8 19.2091 9.79088 21 12 21C14.2091 21 16 19.2091 16 17C16 15.692 15.3732 14.5303 14.3994 13.7988C14.1482 13.61 14.0001 13.3143 14 13V5C14 3.89543 13.1046 3 12 3ZM12 7.5C12.5523 7.5 13 7.94772 13 8.5V14.1738C14.1647 14.5859 15 15.6942 15 17C15 18.6568 13.6568 20 12 20C10.3432 20 9 18.6568 9 17C9 15.6942 9.83533 14.5859 11 14.1738V8.5C11 7.94772 11.4477 7.5 12 7.5ZM12 16C11.4477 16 11 16.4477 11 17C11 17.5523 11.4477 18 12 18C12.5523 18 13 17.5523 13 17C13 16.4477 12.5523 16 12 16Z" fill="#9E9E9E"/>
</g>
</svg>
