<svg width="24" height="24" viewBox="0 0 24 24" fill="none" xmlns="http://www.w3.org/2000/svg">
<g id="icons/Measurement/triangle-ruler">
<path id="Union" d="M1.61719 1.07617C1.99086 0.921391 2.42103 1.00697 2.70703 1.29297L22.707 21.293C22.993 21.579 23.0786 22.0091 22.9238 22.3828C22.769 22.7564 22.4044 23 22 23H2C1.44772 23 1.00002 22.5523 1 22V2C1 1.59559 1.24359 1.23099 1.61719 1.07617ZM3 8H3.5C4.05228 8 4.5 8.44772 4.5 9C4.49998 9.55227 4.05228 10 3.5 10H3V11H3.5C4.05228 11 4.5 11.4477 4.5 12C4.49998 12.5523 4.05228 13 3.5 13H3V14H3.5C4.05228 14 4.5 14.4477 4.5 15C4.49998 15.5523 4.05228 16 3.5 16H3V17H3.5C4.05228 17 4.5 17.4477 4.5 18C4.49998 18.5523 4.05228 19 3.5 19H3V21H5V20.5C5 19.9477 5.44772 19.5 6 19.5C6.55228 19.5 7 19.9477 7 20.5V21H8V20.5C8 19.9477 8.44772 19.5 9 19.5C9.55229 19.5 10 19.9477 10 20.5V21H11V20.5C11 19.9477 11.4477 19.5 12 19.5C12.5523 19.5 13 19.9477 13 20.5V21H14V20.5C14 19.9477 14.4477 19.5 15 19.5C15.5523 19.5 16 19.9477 16 20.5V21H19.5859L3 4.41406V8ZM6.11719 10.5762C6.49086 10.4214 6.92103 10.507 7.20703 10.793L13.207 16.793C13.493 17.079 13.5786 17.5091 13.4238 17.8828C13.269 18.2564 12.9044 18.5 12.5 18.5H6.5C5.94772 18.5 5.50002 18.0523 5.5 17.5V11.5C5.5 11.0956 5.74359 10.731 6.11719 10.5762Z" fill="#9E9E9E"/>
</g>
</svg>
