<svg width="24" height="24" viewBox="0 0 24 24" fill="none" xmlns="http://www.w3.org/2000/svg">
<g id="icons/Measurement/vial">
<path id="Union" d="M15 1C15.5523 1 16 1.44772 16 2V16.5C16 16.5052 15.9991 16.5104 15.999 16.5156C15.9991 16.5212 16 16.5267 16 16.5322V18.8496C15.9998 21.0951 14.2547 23 12 23C9.74535 23 8.00019 21.0951 8 18.8496V2C8 1.44772 8.44772 1 9 1H15ZM10 18.8496C10.0002 20.084 10.9412 21 12 21C13.0588 21 13.9998 20.084 14 18.8496V17.5264L10 17.5049V18.8496ZM10 15.5049L14 15.5264V11H12.5C11.9477 11 11.5 10.5523 11.5 10C11.5 9.44771 11.9477 9 12.5 9H14V8H12.5C11.9477 8 11.5 7.55228 11.5 7C11.5 6.44772 11.9477 6 12.5 6H14V3H10V15.5049Z" fill="#9E9E9E"/>
</g>
</svg>
