<svg width="24" height="24" viewBox="0 0 24 24" fill="none" xmlns="http://www.w3.org/2000/svg">
<g id="icons/Others/add-two">
<path id="Union" d="M12 1.5C13.7978 1.5 15.493 1.95264 16.9746 2.75098C17.4607 3.01302 17.6418 3.61934 17.3799 4.10547C17.1179 4.59164 16.5116 4.7737 16.0254 4.51172C14.8282 3.86665 13.4584 3.5 12 3.5C7.30558 3.5 3.5 7.30558 3.5 12C3.5 16.6944 7.30558 20.5 12 20.5C13.2803 20.5 14.4918 20.2178 15.5781 19.7129C16.0789 19.4801 16.6744 19.6974 16.9072 20.1982C17.1396 20.6989 16.9224 21.2936 16.4219 21.5264C15.0768 22.1516 13.5776 22.5 12 22.5C6.20102 22.5 1.5 17.799 1.5 12C1.5 6.20102 6.20102 1.5 12 1.5ZM18.5 11C19.0523 11 19.5 11.4477 19.5 12V14H21.5C22.0523 14 22.5 14.4477 22.5 15C22.5 15.5523 22.0523 16 21.5 16H19.5V18C19.5 18.5523 19.0523 19 18.5 19C17.9477 19 17.5 18.5523 17.5 18V16H15.5C14.9477 16 14.5 15.5523 14.5 15C14.5 14.4477 14.9477 14 15.5 14H17.5V12C17.5 11.4477 17.9477 11 18.5 11ZM19.8125 4.77441C20.2134 4.3946 20.8457 4.41162 21.2256 4.8125C21.6054 5.21341 21.5884 5.84575 21.1875 6.22559L11.6875 15.2256C11.2942 15.5982 10.6761 15.5901 10.293 15.207L6.79297 11.707C6.40244 11.3165 6.40244 10.6835 6.79297 10.293C7.18349 9.90244 7.81651 9.90244 8.20703 10.293L11.0186 13.1045L19.8125 4.77441Z" fill="#9E9E9E"/>
</g>
</svg>
