<svg width="24" height="24" viewBox="0 0 24 24" fill="none" xmlns="http://www.w3.org/2000/svg">
<g id="icons/Others/balance">
<path id="Union" d="M19.5 2C20.8807 2 22 3.1193 22 4.5V19.5C22 20.8807 20.8807 22 19.5 22H4.5C3.1193 22 2 20.8807 2 19.5V4.5C2 3.11929 3.11929 2 4.5 2H19.5ZM4.5 4C4.22386 4 4 4.22386 4 4.5V19.5C4 19.7762 4.22385 20 4.5 20H19.5C19.7762 20 20 19.7762 20 19.5V4.5C20 4.22385 19.7762 4 19.5 4H4.5ZM5.60645 6.08105C9.3579 4.47338 14.6421 4.47338 18.3936 6.08105C18.7917 6.2517 19.0353 6.6594 18.9961 7.09082L18.4961 12.5908C18.4679 12.8996 18.2978 13.1775 18.0361 13.3438C17.7745 13.51 17.4506 13.546 17.1592 13.4404C13.8246 12.2304 10.1754 12.2304 6.84082 13.4404C6.5494 13.546 6.22551 13.51 5.96387 13.3438C5.7022 13.1775 5.53206 12.8996 5.50391 12.5908L5.00391 7.09082C4.96469 6.6594 5.20827 6.2517 5.60645 6.08105ZM16.9355 7.65918C13.9626 6.6143 10.0362 6.61409 7.06348 7.65918L7.38281 11.168C8.01042 10.9922 8.64576 10.8547 9.28516 10.752C9.30481 10.7476 9.32459 10.7434 9.34473 10.7402C9.40418 10.7309 9.46391 10.7236 9.52344 10.7148C9.621 10.7006 9.71867 10.6874 9.81641 10.6748C9.92862 10.6604 10.0409 10.647 10.1533 10.6348C10.2038 10.6293 10.2542 10.6232 10.3047 10.6182L9.64258 9.51465C9.35846 9.04112 9.51188 8.42676 9.98535 8.14258C10.4589 7.85846 11.0732 8.01188 11.3574 8.48535L12.5918 10.543C12.6065 10.5435 12.6211 10.5444 12.6357 10.5449C12.7025 10.5474 12.7692 10.5524 12.8359 10.5557C12.9688 10.5622 13.1016 10.5695 13.2344 10.5791C13.3419 10.5869 13.4492 10.5966 13.5566 10.6064C13.6514 10.6151 13.7462 10.6235 13.8408 10.6338C13.9572 10.6464 14.0733 10.6608 14.1895 10.6758C14.282 10.6877 14.3744 10.7004 14.4668 10.7139C14.5296 10.723 14.5926 10.7304 14.6553 10.7402C14.6764 10.7436 14.6972 10.7483 14.7178 10.7529C15.3558 10.8556 15.9899 10.9926 16.6162 11.168L16.9355 7.65918Z" fill="#9E9E9E"/>
</g>
</svg>
