<svg width="24" height="24" viewBox="0 0 24 24" fill="none" xmlns="http://www.w3.org/2000/svg">
<g id="icons/Others/blackboard">
<path id="Union" d="M22 2.5C22.5523 2.5 23 2.94772 23 3.5C23 4.05228 22.5523 4.5 22 4.5H21V15.5C21 16.0523 20.5523 16.5 20 16.5H14.2451L17.2432 19.8311C17.6126 20.2415 17.5794 20.8737 17.1689 21.2432C16.7585 21.6126 16.1263 21.5794 15.7568 21.1689L12 16.9941L8.24316 21.1689C7.8737 21.5794 7.24155 21.6126 6.83105 21.2432C6.4206 20.8737 6.38739 20.2415 6.75684 19.8311L9.75488 16.5H4C3.44772 16.5 3 16.0523 3 15.5V4.5H2C1.44772 4.5 1 4.05228 1 3.5C1 2.94772 1.44772 2.5 2 2.5H22ZM5 14.5H19V4.5H5V14.5ZM11 11.5C11.5523 11.5 12 11.9477 12 12.5C12 13.0523 11.5523 13.5 11 13.5H8C7.44772 13.5 7 13.0523 7 12.5C7 11.9477 7.44772 11.5 8 11.5H11ZM14 8.5C14.5523 8.5 15 8.94772 15 9.5C15 10.0523 14.5523 10.5 14 10.5H8C7.44772 10.5 7 10.0523 7 9.5C7 8.94772 7.44772 8.5 8 8.5H14ZM16 5.5C16.5523 5.5 17 5.94772 17 6.5C17 7.05228 16.5523 7.5 16 7.5H8C7.44772 7.5 7 7.05228 7 6.5C7 5.94772 7.44772 5.5 8 5.5H16Z" fill="#9E9E9E"/>
</g>
</svg>
