<svg width="24" height="24" viewBox="0 0 24 24" fill="none" xmlns="http://www.w3.org/2000/svg">
<g id="icons/Others/bluetooth">
<path id="Union" d="M11.0957 1.08594C11.4577 0.925844 11.88 0.993558 12.1729 1.25977L17.6729 6.25977C17.8781 6.44643 17.9966 6.71083 18 6.98828C18.0032 7.26552 17.891 7.53218 17.6904 7.72363L13.21 12L17.6904 16.2764C17.891 16.4679 18.0033 16.7344 18 17.0117C17.9966 17.2891 17.8781 17.5536 17.6729 17.7402L12.1729 22.7402C11.88 23.0063 11.4576 23.0741 11.0957 22.9141C10.7338 22.754 10.5001 22.3957 10.5 22V14.5869L6.69043 18.2236C6.29095 18.6046 5.65762 18.5897 5.27637 18.1904C4.89523 17.791 4.91027 17.1577 5.30957 16.7764L10.3125 12L5.30957 7.22363C4.91018 6.84239 4.89533 6.20909 5.27637 5.80957C5.65765 5.41013 6.29092 5.39519 6.69043 5.77637L10.5 9.41211V2C10.5 1.60423 10.7338 1.24609 11.0957 1.08594ZM12.5 19.7383L15.5322 16.9814L12.5 14.0869V19.7383ZM12.5 9.91211L15.5322 7.01758L12.5 4.26074V9.91211Z" fill="#9E9E9E"/>
</g>
</svg>
