<svg width="24" height="24" viewBox="0 0 24 24" fill="none" xmlns="http://www.w3.org/2000/svg">
<g id="icons/Others/bookmark-three">
<path id="Union" d="M20.5 2C21.0523 2 21.5 2.44772 21.5 3V21C21.5 21.5523 21.0523 22 20.5 22H5C3.6193 22 2.5 20.8807 2.5 19.5V4.5C2.5 3.11929 3.61929 2 5 2H20.5ZM4.5 19.5C4.5 19.7762 4.72385 20 5 20H19.5V18H4.5V19.5ZM5 4C4.72386 4 4.5 4.22386 4.5 4.5V16H19.5V4H13.5V13C13.5 13.3843 13.2799 13.7348 12.9336 13.9014C12.5871 14.0679 12.1752 14.0214 11.875 13.7812L10 12.2812L8.125 13.7812C7.82483 14.0214 7.41287 14.0679 7.06641 13.9014C6.72012 13.7348 6.5 13.3843 6.5 13V4H5ZM8.5 10.918L9.375 10.2188C9.74022 9.92658 10.2598 9.92658 10.625 10.2188L11.5 10.918V4H8.5V10.918Z" fill="#9E9E9E"/>
</g>
</svg>
