<svg width="24" height="24" viewBox="0 0 24 24" fill="none" xmlns="http://www.w3.org/2000/svg">
<g id="icons/Others/broadcast">
<path id="Union" d="M4.22253 4.29199C4.61359 3.90216 5.24666 3.90305 5.6366 4.29395C6.02648 4.68507 6.02575 5.3181 5.63464 5.70801C2.12162 9.21025 2.12159 14.8874 5.63464 18.3896C6.02576 18.7796 6.0265 19.4126 5.6366 19.8037C5.2467 20.1945 4.61359 20.1963 4.22253 19.8066C-0.0745674 15.523 -0.0742923 8.57585 4.22253 4.29199ZM18.3632 4.29395C18.7531 3.90294 19.3861 3.90212 19.7772 4.29199C24.0742 8.57584 24.0744 15.5229 19.7772 19.8066C19.3861 20.1962 18.753 20.1946 18.3632 19.8037C17.9733 19.4126 17.974 18.7796 18.3651 18.3896C21.8783 14.8874 21.8782 9.21029 18.3651 5.70801C17.9741 5.3181 17.9733 4.68504 18.3632 4.29395ZM7.31824 6.76855C7.72226 6.39205 8.35479 6.41435 8.73132 6.81836C9.1078 7.22238 9.08552 7.85492 8.68152 8.23145C6.43936 10.3213 6.43924 13.6787 8.68152 15.7686C9.08551 16.1451 9.10783 16.7776 8.73132 17.1816C8.35478 17.5855 7.7222 17.6079 7.31824 17.2314C4.22737 14.3508 4.22749 9.64929 7.31824 6.76855ZM15.2684 6.81836C15.645 6.41435 16.2775 6.39204 16.6815 6.76855C19.7724 9.64928 19.7724 14.3507 16.6815 17.2314C16.2775 17.6078 15.6449 17.5856 15.2684 17.1816C14.892 16.7777 14.9144 16.1451 15.3182 15.7686C17.5606 13.6787 17.5606 10.3213 15.3182 8.23145C14.9143 7.85497 14.8921 7.22239 15.2684 6.81836ZM11.9999 8.7832C13.8043 8.78325 15.2733 10.2424 15.2733 12.0488C15.2732 13.8552 13.8043 15.3144 11.9999 15.3145C10.1956 15.3143 8.72754 13.8551 8.72742 12.0488C8.72742 10.2424 10.1955 8.78333 11.9999 8.7832ZM11.9999 10.7832C11.2942 10.7833 10.7274 11.3529 10.7274 12.0488C10.7275 12.7447 11.2943 13.3143 11.9999 13.3145C12.7056 13.3144 13.2732 12.7447 13.2733 12.0488C13.2733 11.3529 12.7057 10.7833 11.9999 10.7832Z" fill="#9E9E9E"/>
</g>
</svg>
