<svg width="24" height="24" viewBox="0 0 24 24" fill="none" xmlns="http://www.w3.org/2000/svg">
<g id="icons/Others/browser">
<path id="Union" d="M20 2C21.1046 2 22 2.89544 22 4V20C22 21.1046 21.1046 22 20 22H4C2.89544 22 2 21.1046 2 20V4C2 2.89543 2.89543 2 4 2H20ZM4 20H20V10H4V20ZM4 8H20V4H4V8ZM6 5C6.5523 5 7 5.4477 7 6C7 6.5523 6.5523 7 6 7C5.4477 7 5 6.5523 5 6C5 5.4477 5.4477 5 6 5ZM9 5C9.5523 5 10 5.4477 10 6C10 6.5523 9.5523 7 9 7C8.4477 7 8 6.5523 8 6C8 5.4477 8.4477 5 9 5ZM12 5C12.5523 5 13 5.4477 13 6C13 6.5523 12.5523 7 12 7C11.4477 7 11 6.5523 11 6C11 5.4477 11.4477 5 12 5Z" fill="#9E9E9E"/>
</g>
</svg>
