<svg width="24" height="24" viewBox="0 0 24 24" fill="none" xmlns="http://www.w3.org/2000/svg">
<g id="icons/Others/bytedance-mini-app">
<path id="Union" d="M12 1C18.0751 1 23 5.92487 23 12C23 18.0751 18.0751 23 12 23C5.92487 23 1 18.0751 1 12C1 5.92487 5.92487 1 12 1ZM12 3C7.02943 3 3 7.02943 3 12C3 16.9706 7.02943 21 12 21C16.9706 21 21 16.9706 21 12C21 7.02943 16.9706 3 12 3ZM7.05078 9.87891C7.44131 9.48842 8.07433 9.4884 8.46484 9.87891C8.85531 10.2694 8.85531 10.9025 8.46484 11.293L7.75781 12C7.36733 12.3905 7.36741 13.0235 7.75781 13.4141L10.5859 16.2432C10.9763 16.6335 11.6095 16.6333 12 16.2432L12.707 15.5361C13.0976 15.1456 13.7315 15.1456 14.1221 15.5361C14.5122 15.9267 14.5124 16.5598 14.1221 16.9502L13.415 17.6572C12.2435 18.8288 10.3435 18.8287 9.17188 17.6572L6.34375 14.8281C5.1723 13.6565 5.17222 11.7575 6.34375 10.5859L7.05078 9.87891ZM10.5859 6.34375C11.7575 5.17222 13.6565 5.1723 14.8281 6.34375L17.6572 9.17188C18.8287 10.3435 18.8288 12.2435 17.6572 13.415L16.9502 14.1221C16.5598 14.5124 15.9267 14.5122 15.5361 14.1221C15.1456 13.7316 15.1456 13.0985 15.5361 12.708L16.2432 12C16.6333 11.6095 16.6335 10.9763 16.2432 10.5859L13.4141 7.75781C13.0235 7.36741 12.3905 7.36733 12 7.75781L11.293 8.46484C10.9025 8.85534 10.2694 8.85534 9.87891 8.46484C9.48838 8.07433 9.4884 7.44132 9.87891 7.05078L10.5859 6.34375ZM12.3535 10.2324C12.744 9.84193 13.377 9.842 13.7676 10.2324C14.1581 10.6229 14.1581 11.256 13.7676 11.6465L11.6465 13.7676C11.256 14.1581 10.6229 14.1581 10.2324 13.7676C9.842 13.377 9.84193 12.744 10.2324 12.3535L12.3535 10.2324Z" fill="#9E9E9E"/>
</g>
</svg>
