<svg width="24" height="24" viewBox="0 0 24 24" fill="none" xmlns="http://www.w3.org/2000/svg">
<g id="icons/Others/card-two">
<path id="Union" d="M13.5527 1.10547C13.8626 0.950513 14.2306 0.967334 14.5254 1.14941C14.8202 1.33162 15 1.65343 15 2V4.38184L19.5527 2.10547C19.8626 1.95051 20.2306 1.96733 20.5254 2.14941C20.8202 2.33162 21 2.65343 21 3V17C21 17.3788 20.786 17.7251 20.4473 17.8945L10.4473 22.8945C10.1374 23.0495 9.76938 23.0327 9.47461 22.8506C9.1798 22.6684 9.00001 22.3466 9 22V19.6182L4.44727 21.8945C4.13736 22.0495 3.76938 22.0327 3.47461 21.8506C3.1798 21.6684 3.00001 21.3466 3 21V7L3.00977 6.85938C3.05546 6.53719 3.25642 6.25363 3.55273 6.10547L13.5527 1.10547ZM11 8.61816V20.3818L19 16.3818V4.61816L11 8.61816ZM5 7.61816V19.3818L9 17.3818V8L9.00977 7.85938C9.05546 7.53719 9.25642 7.25363 9.55273 7.10547L13 5.38184V3.61816L5 7.61816Z" fill="#9E9E9E"/>
</g>
</svg>
