<svg width="24" height="24" viewBox="0 0 24 24" fill="none" xmlns="http://www.w3.org/2000/svg">
<g id="icons/Others/cast-screen">
<path id="Union" d="M22 3C22.5523 3 23 3.44772 23 4V20C23 20.5523 22.5523 21 22 21H14.3857C13.8335 21 13.3857 20.5523 13.3857 20C13.3857 19.4477 13.8335 19 14.3857 19H21V5H3V8.02832C2.99999 8.5806 2.55228 9.02832 2 9.02832C1.44772 9.02832 1.00001 8.5806 1 8.02832V4C1 3.44772 1.44772 3 2 3H22ZM2.75 18C3.44036 18 4 18.5597 4 19.25C4 19.9403 3.44036 20.5 2.75 20.5C2.05964 20.5 1.5 19.9403 1.5 19.25C1.5 18.5597 2.05964 18 2.75 18ZM2.5 14.5C5.26142 14.5 7.5 16.7386 7.5 19.5C7.5 20.0523 7.05228 20.5 6.5 20.5C5.94772 20.5 5.5 20.0523 5.5 19.5C5.5 17.8431 4.15686 16.5 2.5 16.5C1.94772 16.5 1.5 16.0523 1.5 15.5C1.5 14.9477 1.94772 14.5 2.5 14.5ZM2.5 10.5C7.47058 10.5 11.5 14.5294 11.5 19.5C11.5 20.0523 11.0523 20.5 10.5 20.5C9.94771 20.5 9.5 20.0523 9.5 19.5C9.5 15.634 6.36602 12.5 2.5 12.5C1.94772 12.5 1.5 12.0523 1.5 11.5C1.5 10.9477 1.94772 10.5 2.5 10.5Z" fill="#9E9E9E"/>
</g>
</svg>
