<svg width="24" height="24" viewBox="0 0 24 24" fill="none" xmlns="http://www.w3.org/2000/svg">
<g id="icons/Others/certificate">
<path id="Union" d="M21 2C22.1046 2 23 2.89544 23 4V17C23 18.1046 22.1046 19 21 19H18V21C18 21.3466 17.8202 21.6684 17.5254 21.8506C17.2306 22.0327 16.8627 22.0495 16.5527 21.8945L15 21.1182L13.4473 21.8945C13.1373 22.0495 12.7694 22.0327 12.4746 21.8506C12.1798 21.6684 12 21.3466 12 21V19H3C1.89544 19 1 18.1046 1 17V4C1 2.89543 1.89543 2 3 2H21ZM16 17.3887C15.7658 17.4425 15.5087 17.4795 15.2275 17.4932C15.1522 17.4974 15.0764 17.5 15 17.5C14.9233 17.5 14.8471 17.4974 14.7715 17.4932C14.4906 17.4795 14.2339 17.4426 14 17.3896V19.3818L14.5527 19.1055C14.8342 18.9648 15.1658 18.9648 15.4473 19.1055L16 19.3818V17.3887ZM3 17H12V16.1436C11.3783 15.4386 11 14.5138 11 13.5C11 11.2909 12.7909 9.5 15 9.5C17.2091 9.5 19 11.2909 19 13.5C19 14.5138 18.6217 15.4386 18 16.1436V17H21V4H3V17ZM15 11.5C13.8954 11.5 13 12.3954 13 13.5C13 14.6046 13.8954 15.5 15 15.5C16.1046 15.5 17 14.6046 17 13.5C17 12.3954 16.1046 11.5 15 11.5ZM8 13C8.55228 13 9 13.4477 9 14C9 14.5523 8.55228 15 8 15H6C5.44772 15 5 14.5523 5 14C5 13.4477 5.44772 13 6 13H8ZM9 9.5C9.55229 9.5 10 9.94772 10 10.5C10 11.0523 9.55229 11.5 9 11.5H6C5.44772 11.5 5 11.0523 5 10.5C5 9.94772 5.44772 9.5 6 9.5H9ZM18 6C18.5523 6 19 6.44772 19 7C19 7.55228 18.5523 8 18 8H6C5.44772 8 5 7.55228 5 7C5 6.44772 5.44772 6 6 6H18Z" fill="#9E9E9E"/>
</g>
</svg>
