<svg width="24" height="24" viewBox="0 0 24 24" fill="none" xmlns="http://www.w3.org/2000/svg">
<g id="icons/Others/close-wifi">
<path id="Union" d="M3.29333 3.29297C3.68387 2.90256 4.31691 2.90248 4.7074 3.29297L20.7074 19.293C21.0977 19.6835 21.0977 20.3166 20.7074 20.707C20.3169 21.0975 19.6839 21.0974 19.2933 20.707L3.29333 4.70703C2.90281 4.31651 2.90281 3.68349 3.29333 3.29297ZM12.0004 17.5C12.6906 17.5002 13.2504 18.0598 13.2504 18.75C13.2503 19.4402 12.6905 19.9998 12.0004 20C11.31 20 10.7504 19.4403 10.7504 18.75C10.7504 18.0597 11.31 17.5 12.0004 17.5ZM10.2357 13.7363C10.7682 13.5906 11.3192 13.9041 11.4652 14.4365C11.611 14.9689 11.2973 15.5199 10.765 15.666C10.0125 15.8722 9.30076 16.27 8.7074 16.8633C8.31694 17.2537 7.68387 17.2536 7.29333 16.8633C6.90295 16.4727 6.90286 15.8397 7.29333 15.4492C8.13859 14.6041 9.15718 14.0318 10.2357 13.7363ZM6.69275 10.377C7.17498 10.108 7.78401 10.2805 8.0531 10.7627C8.32198 11.2448 8.14926 11.8539 7.66736 12.123C6.96612 12.5143 6.30525 13.0086 5.7074 13.6064C5.31694 13.9969 4.68387 13.9968 4.29333 13.6064C3.90285 13.2159 3.90282 12.5829 4.29333 12.1924C5.02299 11.4628 5.83192 10.8573 6.69275 10.377ZM13.2767 10.0312C13.4019 9.49349 13.9391 9.15922 14.4769 9.28418C16.3942 9.72976 18.2149 10.6999 19.7074 12.1924C20.0976 12.5829 20.0976 13.216 19.7074 13.6064C19.3169 13.9969 18.6839 13.9968 18.2933 13.6064C17.0727 12.3858 15.5876 11.5948 14.0238 11.2314C13.486 11.1063 13.1518 10.5691 13.2767 10.0312ZM9.59607 4.68555C14.1988 3.96887 19.0667 5.32517 22.6879 8.75684C23.0885 9.13672 23.1057 9.77009 22.726 10.1709C22.3461 10.5714 21.7136 10.5876 21.3129 10.208C18.1597 7.21978 13.9205 6.03695 9.90466 6.66211C9.35905 6.74708 8.8472 6.37368 8.76208 5.82812C8.67712 5.28253 9.05055 4.77069 9.59607 4.68555ZM3.18201 7.23926C3.63649 6.92571 4.2599 7.03975 4.57361 7.49414C4.8871 7.94856 4.77296 8.572 4.31873 8.88574C4.05253 9.06948 3.79097 9.26372 3.53552 9.46875H3.53455C3.24489 9.70119 2.96229 9.94794 2.68787 10.208C2.28706 10.5877 1.65465 10.5705 1.27478 10.1699C0.894887 9.76906 0.912014 9.13674 1.31287 8.75684C1.62715 8.459 1.95113 8.17596 2.28357 7.90918C2.57674 7.67387 2.87636 7.45023 3.18201 7.23926Z" fill="#9E9E9E"/>
</g>
</svg>
