<svg width="24" height="24" viewBox="0 0 24 24" fill="none" xmlns="http://www.w3.org/2000/svg">
<g id="icons/Others/code-one">
<path id="Union" d="M19.5001 19.5C20.0524 19.5 20.5001 19.9477 20.5001 20.5C20.5001 21.0522 20.0523 21.5 19.5001 21.5H8.50012C7.94786 21.5 7.50016 21.0522 7.50012 20.5C7.50012 19.9477 7.94784 19.5 8.50012 19.5H19.5001ZM3.79309 2.79297C4.18362 2.40244 4.81663 2.40244 5.20715 2.79297L12.2072 9.79297C12.5976 10.1835 12.5977 10.8165 12.2072 11.207L5.20715 18.207C4.81665 18.5975 4.18362 18.5975 3.79309 18.207C3.40257 17.8165 3.40257 17.1835 3.79309 16.793L10.0861 10.5L3.79309 4.20703C3.40257 3.81651 3.40257 3.18349 3.79309 2.79297Z" fill="#9E9E9E"/>
</g>
</svg>
