<svg width="24" height="24" viewBox="0 0 24 24" fill="none" xmlns="http://www.w3.org/2000/svg">
<g id="icons/Others/cooperative-handshake">
<path id="Union" d="M7.36926 3.22461C7.76204 2.90426 8.34104 2.92685 8.70715 3.29297L12.0001 6.58594L15.2931 3.29297L15.3693 3.22461C15.762 2.90426 16.341 2.92685 16.7072 3.29297L22.7072 9.29297C23.0975 9.68351 23.0976 10.3166 22.7072 10.707L12.7072 20.707C12.3167 21.0974 11.6836 21.0974 11.2931 20.707L1.29309 10.707C0.902593 10.3165 0.902646 9.6835 1.29309 9.29297L7.29309 3.29297L7.36926 3.22461ZM3.41418 10L12.0001 18.5859L12.5861 18L11.7931 17.207C11.4026 16.8165 11.4026 16.1835 11.7931 15.793C12.1836 15.4024 12.8166 15.4024 13.2072 15.793L14.0001 16.5859L14.5861 16L13.7931 15.207C13.4026 14.8165 13.4026 14.1835 13.7931 13.793C14.1836 13.4024 14.8166 13.4024 15.2072 13.793L16.0001 14.5859L16.5861 14L14.0001 11.4141L11.7072 13.707C11.3827 14.0314 10.8789 14.0934 10.4855 13.8574L7.98547 12.3574C7.72157 12.199 7.54561 11.9275 7.50793 11.6221C7.47034 11.3165 7.57542 11.0107 7.79309 10.793L10.5861 8L8.00012 5.41406L3.41418 10ZM12.7111 8.70117C12.7095 8.70278 12.7088 8.70543 12.7072 8.70703C12.7055 8.70866 12.7029 8.70932 12.7013 8.71094L10.1124 11.3008L10.8448 11.7402L13.2931 9.29297L13.3693 9.22461C13.762 8.90426 14.341 8.92685 14.7072 9.29297L18.0001 12.5859L20.5861 10L16.0001 5.41406L12.7111 8.70117Z" fill="#9E9E9E"/>
</g>
</svg>
