<svg width="24" height="24" viewBox="0 0 24 24" fill="none" xmlns="http://www.w3.org/2000/svg">
<g id="icons/Others/creative">
<path id="Union" d="M19.5 2C20.8807 2 22 3.1193 22 4.5V19.5C22 20.8807 20.8807 22 19.5 22H4.5C3.11931 22 2 20.8807 2 19.5V4.5C2 3.11928 3.11929 2 4.5 2H19.5ZM4.5 4C4.22385 4 4 4.22386 4 4.5V19.5L4.00977 19.6006C4.05628 19.8286 4.25829 20 4.5 20H19.5C19.7762 20 20 19.7762 20 19.5V4.5C20 4.25828 19.8286 4.05629 19.6006 4.00977L19.5 4H4.5ZM11.998 8.1582C12.3786 8.15739 12.7263 8.37293 12.8955 8.71387L14.1289 11.1992L16.8818 11.6006C17.2579 11.6555 17.5707 11.9189 17.6885 12.2803C17.8062 12.6416 17.7089 13.0387 17.4375 13.3047L15.4336 15.2656L15.9092 17.9863C15.9749 18.3628 15.8202 18.7435 15.5107 18.9678C15.2013 19.1919 14.7913 19.2207 14.4541 19.041L12 17.7324L9.54688 19.041C9.20944 19.2208 8.79877 19.1923 8.48926 18.9678C8.17978 18.7433 8.0257 18.3619 8.0918 17.9854L8.56934 15.2656L6.56445 13.3057C6.29243 13.0397 6.19462 12.642 6.3125 12.2803C6.43039 11.9186 6.74366 11.6552 7.12012 11.6006L9.88574 11.1992L11.1025 8.71777L11.1729 8.5957C11.3567 8.32513 11.6649 8.15906 11.998 8.1582ZM11.4502 12.5537C11.3049 12.85 11.0229 13.056 10.6963 13.1035L9.40918 13.2891L10.3447 14.2041C10.5808 14.4349 10.688 14.7677 10.6309 15.0928L10.416 16.3096L11.5293 15.7168C11.8233 15.5601 12.1767 15.5601 12.4707 15.7168L13.5869 16.3115L13.374 15.0918C13.3174 14.7674 13.424 14.4355 13.6592 14.2051L14.5947 13.2881L13.3223 13.1025C12.9977 13.0551 12.7171 12.8515 12.5713 12.5576L12.0059 11.4189L11.4502 12.5537ZM14.8428 5.31641C15.3949 5.31661 15.8428 5.76425 15.8428 6.31641C15.8428 6.86857 15.3949 7.31621 14.8428 7.31641H9.1582C8.60592 7.31641 8.1582 6.86869 8.1582 6.31641C8.1582 5.76412 8.60592 5.31641 9.1582 5.31641H14.8428Z" fill="#9E9E9E"/>
</g>
</svg>
