<svg width="24" height="24" viewBox="0 0 24 24" fill="none" xmlns="http://www.w3.org/2000/svg">
<g id="icons/Others/crown">
<path id="Union" d="M11.9996 3C12.3225 3 12.6254 3.15625 12.8131 3.41895L17.316 9.72266L21.5524 7.60547C21.8964 7.43343 22.309 7.47418 22.6129 7.70996C22.9169 7.94616 23.0589 8.33674 22.9772 8.71289L20.4772 20.2129C20.3771 20.6724 19.9699 21 19.4996 21H4.49963C4.02947 20.9998 3.62214 20.6723 3.52209 20.2129L1.02209 8.71289C0.940373 8.33684 1.08256 7.94616 1.38635 7.70996C1.69019 7.4741 2.1028 7.43355 2.4469 7.60547L6.68225 9.72266L11.1862 3.41895L11.2614 3.3252C11.4495 3.11936 11.7172 3.00009 11.9996 3ZM7.81311 11.5811C7.52707 11.9813 6.99243 12.1146 6.55237 11.8945L3.42053 10.3281L5.30627 19H18.693L20.5778 10.3281L17.4469 11.8945C17.0068 12.1144 16.4721 11.9814 16.1862 11.5811L11.9996 5.71973L7.81311 11.5811ZM11.9996 11.5C13.6565 11.5 14.9996 12.8432 14.9996 14.5C14.9996 16.1568 13.6565 17.5 11.9996 17.5C10.343 17.4998 8.99963 16.1567 8.99963 14.5C8.99963 12.8433 10.343 11.5002 11.9996 11.5ZM11.9996 13.5C11.4475 13.5002 10.9996 13.9478 10.9996 14.5C10.9996 15.0522 11.4475 15.4998 11.9996 15.5C12.5519 15.5 12.9996 15.0523 12.9996 14.5C12.9996 13.9477 12.5519 13.5 11.9996 13.5Z" fill="#9E9E9E"/>
</g>
</svg>
