<svg width="24" height="24" viewBox="0 0 24 24" fill="none" xmlns="http://www.w3.org/2000/svg">
<g id="icons/Others/dashboard-car" clip-path="url(#clip0_56_14616)">
<path id="Union" d="M11.3691 14.2246C11.7619 13.9043 12.3409 13.9269 12.707 14.293L20.707 22.293C20.993 22.579 21.0786 23.0091 20.9238 23.3828C20.769 23.7564 20.4044 24 20 24H4C3.59558 24 3.23098 23.7564 3.07617 23.3828C2.92139 23.0091 3.00697 22.579 3.29297 22.293L11.293 14.293L11.3691 14.2246ZM6.41406 22H17.5859L12 16.4141L6.41406 22ZM12 0C18.6274 0 24 5.37257 24 12C24 14.7565 23.0695 17.2988 21.5059 19.3252C21.1685 19.7622 20.5407 19.8429 20.1035 19.5059C19.6664 19.1686 19.5849 18.5407 19.9219 18.1035C21.2249 16.4148 22 14.2991 22 12C22 6.47713 17.5229 2 12 2C6.47713 2 2 6.47713 2 12C2 14.2991 2.77505 16.4148 4.07812 18.1035C4.4151 18.5407 4.33358 19.1686 3.89648 19.5059C3.45929 19.8429 2.83147 19.7622 2.49414 19.3252C0.930502 17.2987 0 14.7565 0 12C0 5.37257 5.37257 0 12 0ZM12 4C16.4183 4 20 7.58172 20 12C20 13.6229 19.5159 15.136 18.6836 16.3984C18.3796 16.8594 17.7589 16.9874 17.2979 16.6836C16.8368 16.3796 16.7097 15.7589 17.0137 15.2979C17.6373 14.352 18 13.2198 18 12C18 8.68629 15.3137 6 12 6C8.68629 6 6 8.68629 6 12C6 13.2198 6.36273 14.352 6.98633 15.2979C7.29034 15.7589 7.16323 16.3796 6.70215 16.6836C6.2411 16.9874 5.62036 16.8594 5.31641 16.3984C4.48411 15.136 4 13.6229 4 12C4 7.58172 7.58172 4 12 4Z" fill="#9E9E9E"/>
</g>
<defs>
<clipPath id="clip0_56_14616">
<rect width="24" height="24" fill="white"/>
</clipPath>
</defs>
</svg>
