<svg width="24" height="24" viewBox="0 0 24 24" fill="none" xmlns="http://www.w3.org/2000/svg">
<g id="icons/Others/degree-hat">
<path id="Union" d="M11.2305 3.54004C11.4441 3.4776 11.6735 3.48812 11.8818 3.57129L22.3936 7.77148C22.7732 7.92332 23.0224 8.29129 23.0225 8.7002C23.0225 8.7067 23.0206 8.71324 23.0205 8.71973C23.0209 8.73109 23.0225 8.74245 23.0225 8.75391V13.3652C23.0225 13.9175 22.5747 14.3652 22.0225 14.3652C21.4702 14.3652 21.0225 13.9175 21.0225 13.3652V10.1758L18.2451 11.2852V17.1348C18.2451 17.3695 18.1625 17.5956 18.0137 17.7744L17.9463 17.8477L17.9316 17.8623C17.9243 17.8694 17.9143 17.8784 17.9023 17.8896C17.8783 17.9123 17.8451 17.9435 17.8027 17.9814C17.7179 18.0574 17.5959 18.1616 17.4414 18.2852C17.1331 18.5317 16.6878 18.8576 16.1289 19.1826C15.0189 19.8282 13.4107 20.501 11.5117 20.501C9.61278 20.501 8.00457 19.8282 6.89453 19.1826C6.33568 18.8576 5.89037 18.5317 5.58203 18.2852C5.42752 18.1616 5.30558 18.0575 5.2207 17.9814C5.17834 17.9435 5.14517 17.9123 5.12109 17.8896C5.10911 17.8784 5.09913 17.8694 5.0918 17.8623L5.07715 17.8477C4.88614 17.6597 4.77832 17.4028 4.77832 17.1348V11.2861L0.628906 9.62891C0.249143 9.47715 7.93604e-05 9.10915 0 8.7002C2.85557e-05 8.29121 0.24913 7.92327 0.628906 7.77148L11.1396 3.57129L11.2305 3.54004ZM11.8818 13.8281C11.6437 13.9233 11.3778 13.9233 11.1396 13.8281L6.77832 12.085V16.6787C6.79548 16.6927 6.81251 16.7088 6.83105 16.7236C7.07765 16.9208 7.44122 17.1876 7.89941 17.4541C8.82396 17.9918 10.0826 18.501 11.5117 18.501C12.9409 18.501 14.1995 17.9918 15.124 17.4541C15.5822 17.1876 15.9458 16.9208 16.1924 16.7236C16.2109 16.7088 16.2279 16.6927 16.2451 16.6787V12.084L11.8818 13.8281ZM3.69434 8.7002L11.5107 11.8232L19.3262 8.7002L11.5107 5.57617L3.69434 8.7002Z" fill="#9E9E9E"/>
</g>
</svg>
