<svg width="24" height="24" viewBox="0 0 24 24" fill="none" xmlns="http://www.w3.org/2000/svg">
<g id="icons/Others/desk-lamp-one">
<path id="Union" d="M8.81738 4.07422C9.69372 2.5934 11.6614 2.03487 13.166 2.93164C14.4351 3.68823 14.9886 5.25455 14.624 6.63477L18.5 9.86523V9.50098C18.5 8.94869 18.9477 8.50098 19.5 8.50098C20.0523 8.50098 20.5 8.94869 20.5 9.50098V19.501H21C21.5523 19.501 22 19.9487 22 20.501C21.9999 21.0532 21.5522 21.501 21 21.501H3C2.44775 21.501 2.00006 21.0532 2 20.501C2 19.9487 2.44772 19.501 3 19.501H18.5V12.4697L14.9736 9.53125C15.0734 10.6889 14.8364 11.8866 14.2197 12.9893C14.0879 13.2248 13.8662 13.397 13.6055 13.4668C13.3448 13.5366 13.0668 13.4984 12.835 13.3604L4.48828 8.38574C4.02309 8.1085 3.86267 7.51074 4.12695 7.03809C5.14552 5.21699 6.90736 4.16693 8.81738 4.07422ZM12.1416 4.64941C11.6191 4.3382 10.8522 4.5313 10.5244 5.11621C10.4702 5.213 10.4455 5.27565 10.418 5.36719C10.2825 5.81719 9.8514 6.11234 9.38281 6.07617C8.28796 5.99176 7.22562 6.38922 6.44727 7.22559L12.8633 11.0488C13.1589 9.93832 12.9593 8.7865 12.335 7.84082C12.0846 7.46162 12.1217 6.96057 12.4248 6.62207C12.4821 6.55807 12.5346 6.48564 12.5801 6.4043C12.9163 5.80316 12.6848 4.97324 12.1416 4.64941Z" fill="#9E9E9E"/>
</g>
</svg>
