<svg width="24" height="24" viewBox="0 0 24 24" fill="none" xmlns="http://www.w3.org/2000/svg">
<g id="icons/Others/diamond">
<path id="Union" d="M18.7178 1.5C18.7905 1.50263 18.8637 1.51396 18.9365 1.5332C18.9431 1.53494 18.9495 1.5372 18.9561 1.53906C18.9752 1.54455 18.9946 1.54993 19.0137 1.55664L19.0664 1.57715C19.0714 1.57922 19.0761 1.58183 19.0811 1.58398C19.1942 1.63314 19.2937 1.70124 19.3779 1.7832C19.3852 1.79026 19.3924 1.7974 19.3994 1.80469C19.4553 1.8625 19.5037 1.92635 19.5439 1.99512C19.5454 1.99752 19.5474 1.99953 19.5488 2.00195L23.3672 8.65234C23.3688 8.65511 23.3695 8.65835 23.3711 8.66113C23.3932 8.70035 23.413 8.74093 23.4297 8.7832C23.4329 8.79126 23.4355 8.7995 23.4385 8.80762C23.4699 8.89363 23.4895 8.98487 23.4961 9.08008C23.4967 9.08822 23.4967 9.09635 23.4971 9.10449C23.4978 9.11973 23.5 9.13498 23.5 9.15039C23.5 9.22844 23.4896 9.30405 23.4727 9.37695C23.4705 9.38611 23.4682 9.3952 23.4658 9.4043C23.442 9.49521 23.4052 9.58031 23.3584 9.65918C23.3546 9.66556 23.3516 9.6724 23.3477 9.67871C23.3226 9.71882 23.295 9.75693 23.2646 9.79297C23.2634 9.7944 23.2629 9.79642 23.2617 9.79785L12.7617 22.1475C12.7499 22.1614 12.7361 22.1734 12.7236 22.1865C12.7053 22.2058 12.6867 22.2245 12.667 22.2422C12.6431 22.2636 12.6184 22.2838 12.5928 22.3027C12.5786 22.3132 12.5645 22.3233 12.5498 22.333C12.526 22.3488 12.5016 22.3633 12.4766 22.377C12.4611 22.3854 12.4456 22.3938 12.4297 22.4014C12.3929 22.4189 12.3552 22.4343 12.3164 22.4473C12.3045 22.4513 12.2924 22.4545 12.2803 22.458C12.2437 22.4687 12.2067 22.4769 12.1689 22.4834C12.1608 22.4848 12.1527 22.4861 12.1445 22.4873C12.0969 22.4943 12.0488 22.5 12 22.5C11.9509 22.5 11.9024 22.4944 11.8545 22.4873C11.8463 22.4861 11.8382 22.4848 11.8301 22.4834C11.7924 22.4769 11.7553 22.4687 11.7188 22.458C11.7067 22.4545 11.6945 22.4513 11.6826 22.4473C11.6439 22.4343 11.6061 22.419 11.5693 22.4014C11.5534 22.3938 11.5379 22.3854 11.5225 22.377C11.4974 22.3633 11.473 22.3488 11.4492 22.333C11.4347 22.3234 11.4202 22.314 11.4062 22.3037C11.3729 22.2791 11.3408 22.2525 11.3105 22.2236C11.3015 22.2151 11.2938 22.2052 11.2852 22.1963C11.2695 22.1802 11.253 22.1647 11.2383 22.1475L0.738281 9.79785C0.736931 9.79626 0.735714 9.79456 0.734375 9.79297C0.711982 9.76632 0.690453 9.73888 0.670898 9.70996L0.646484 9.6709C0.644213 9.66718 0.642844 9.66292 0.640625 9.65918C0.593857 9.58036 0.556995 9.49514 0.533203 9.4043C0.530815 9.3952 0.528496 9.3861 0.526367 9.37695C0.509486 9.30412 0.5 9.22836 0.5 9.15039C0.5 9.13499 0.501265 9.11972 0.501953 9.10449C0.502323 9.09636 0.502361 9.08821 0.50293 9.08008C0.50954 8.98496 0.529182 8.89356 0.560547 8.80762C0.563505 8.79951 0.566158 8.79126 0.569336 8.7832C0.586015 8.74096 0.605893 8.70033 0.62793 8.66113C0.629567 8.65821 0.631143 8.65525 0.632812 8.65234L4.45117 2.00195L4.45508 1.99512C4.47496 1.96108 4.49669 1.92805 4.52051 1.89648L4.52441 1.8916C4.53132 1.88259 4.53871 1.87398 4.5459 1.86523C4.55934 1.84884 4.57338 1.83294 4.58789 1.81738C4.59718 1.80744 4.60654 1.79761 4.61621 1.78809C4.63436 1.77015 4.65325 1.75291 4.67285 1.73633C4.68028 1.73006 4.68772 1.72382 4.69531 1.71777C4.7151 1.70201 4.73571 1.68718 4.75684 1.67285C4.76595 1.66667 4.77487 1.66017 4.78418 1.6543C4.80308 1.64238 4.8229 1.63182 4.84277 1.62109C4.85738 1.6132 4.87173 1.60482 4.88672 1.59766C4.9157 1.58383 4.94578 1.57174 4.97656 1.56055C4.97792 1.56005 4.97911 1.55908 4.98047 1.55859C4.9824 1.5579 4.98439 1.55732 4.98633 1.55664C5.01943 1.545 5.05254 1.53437 5.08594 1.52637C5.0917 1.52499 5.09772 1.52471 5.10352 1.52344C5.13508 1.51646 5.16664 1.51068 5.19824 1.50684C5.20277 1.50629 5.20737 1.50634 5.21191 1.50586C5.23541 1.50333 5.25882 1.50085 5.28223 1.5H18.7178ZM12 18.4854L14.9307 10.1504H9.06934L12 18.4854ZM9.26562 16.7402L6.94824 10.1504H3.66309L9.26562 16.7402ZM14.7334 16.7393L20.3359 10.1504H17.0508L14.7334 16.7393ZM3.22559 8.15039H6.24512L5.09863 4.88965L3.22559 8.15039ZM17.7539 8.15039H20.7734L18.9004 4.88965L17.7539 8.15039ZM9.54102 8.15039H14.46L12 4.34277L9.54102 8.15039ZM7.94043 6.94141L10.1641 3.5H6.73047L7.94043 6.94141ZM16.0586 6.94043L17.2695 3.5H13.8369L16.0586 6.94043Z" fill="#9E9E9E"/>
</g>
</svg>
