<svg width="24" height="24" viewBox="0 0 24 24" fill="none" xmlns="http://www.w3.org/2000/svg">
<g id="icons/Others/energy-socket">
<path id="Union" d="M12 1C18.0751 1 23 5.92487 23 12C23 18.0751 18.0751 23 12 23C5.92487 23 1 18.0751 1 12C1 5.92487 5.92487 1 12 1ZM12 3C7.02943 3 3 7.02943 3 12C3 16.6325 6.50019 20.4448 11 20.9424V16.8994C8.71781 16.4361 7 14.4189 7 12V10.5C7 9.94771 7.44772 9.5 8 9.5H9V8C9 7.44772 9.44771 7 10 7C10.5523 7 11 7.44772 11 8V9.5H13V8C13 7.44772 13.4477 7 14 7C14.5523 7 15 7.44772 15 8V9.5H16C16.5523 9.5 17 9.94771 17 10.5V12C17 14.4189 15.2822 16.4361 13 16.8994V20.9424C17.4998 20.4448 21 16.6325 21 12C21 7.02943 16.9706 3 12 3ZM9 12C9 13.6569 10.3431 15 12 15C13.6569 15 15 13.6569 15 12V11.5H9V12Z" fill="#9E9E9E"/>
</g>
</svg>
