<svg width="24" height="24" viewBox="0 0 24 24" fill="none" xmlns="http://www.w3.org/2000/svg">
<g id="icons/Others/express-delivery">
<path id="Union" d="M20 14.5C20.5523 14.5 21 14.9477 21 15.5V21C21 22.1046 20.1046 23 19 23H5C3.89544 23 3 22.1046 3 21V15.5C3 14.9477 3.44772 14.5 4 14.5C4.55228 14.5 5 14.9477 5 15.5V21H19V15.5C19 14.9477 19.4477 14.5 20 14.5ZM16 16C16.5523 16 17 16.4477 17 17C17 17.5523 16.5523 18 16 18H8C7.44772 18 7 17.5523 7 17C7 16.4477 7.44772 16 8 16H16ZM19 6C20.1046 6 21 6.89542 21 8V11C21 12.1046 20.1046 13 19 13H5C3.89544 13 3 12.1046 3 11V8C3 6.89541 3.89544 6 5 6H19ZM5 11H19V8H5V11ZM8 1C8.55228 1 9 1.44772 9 2V4C9 4.55228 8.55228 5 8 5C7.44772 5 7 4.55228 7 4V2C7 1.44772 7.44772 1 8 1ZM12 1C12.5523 1 13 1.44772 13 2V4C13 4.55228 12.5523 5 12 5C11.4477 5 11 4.55228 11 4V2C11 1.44772 11.4477 1 12 1ZM16 1C16.5523 1 17 1.44772 17 2V4C17 4.55228 16.5523 5 16 5C15.4477 5 15 4.55228 15 4V2C15 1.44772 15.4477 1 16 1Z" fill="#9E9E9E"/>
</g>
</svg>
