<svg width="24" height="24" viewBox="0 0 24 24" fill="none" xmlns="http://www.w3.org/2000/svg">
<g id="icons/Others/fireworks">
<path id="Union" d="M7.12146 7.65625C7.45946 7.58174 7.81267 7.68751 8.05408 7.93555L16.2172 16.3223C16.4587 16.5706 16.5541 16.9266 16.4701 17.2627C16.386 17.5987 16.134 17.8674 15.8041 17.9727L3.30408 21.9541C2.94291 22.0691 2.54775 21.969 2.28357 21.6973C2.01938 21.4253 1.93154 21.0277 2.05701 20.6699L6.39392 8.30176L6.44373 8.18359C6.57775 7.91698 6.82573 7.72165 7.12146 7.65625ZM4.60681 19.4385L13.6547 16.5576L7.74646 10.4863L4.60681 19.4385ZM19.5004 17C20.0525 17.0002 20.5004 17.4478 20.5004 18C20.5004 18.5522 20.0525 18.9998 19.5004 19C18.9481 19 18.5004 18.5523 18.5004 18C18.5004 17.4477 18.9481 17 19.5004 17ZM21.0004 12.5C21.5525 12.5002 22.0004 12.9478 22.0004 13.5C22.0004 14.0522 21.5525 14.4998 21.0004 14.5C20.4481 14.5 20.0004 14.0523 20.0004 13.5C20.0004 12.9477 20.4481 12.5 21.0004 12.5ZM19.5004 7.75C20.6923 7.75011 21.7652 8.35072 22.7074 9.29297C23.0977 9.68345 23.0977 10.3165 22.7074 10.707C22.3169 11.0975 21.6839 11.0974 21.2933 10.707C20.5692 9.98287 19.9749 9.7501 19.5004 9.75C19.0258 9.75 18.4316 9.98283 17.7074 10.707L15.2074 13.207C14.8169 13.5975 14.1839 13.5974 13.7933 13.207C13.4028 12.8165 13.4028 12.1835 13.7933 11.793L16.2933 9.29297C17.2356 8.35073 18.3083 7.75 19.5004 7.75ZM13.7933 2.79297C14.1839 2.4026 14.8169 2.4025 15.2074 2.79297C15.8798 3.46546 16.2526 4.3078 16.1156 5.2666C15.9882 6.15843 15.4419 6.97245 14.7074 7.70703L12.2074 10.207C11.8169 10.5975 11.1839 10.5974 10.7933 10.207C10.4028 9.81651 10.4028 9.18349 10.7933 8.79297L13.2933 6.29297C13.8919 5.69437 14.0959 5.25809 14.1351 4.9834C14.1648 4.7757 14.1206 4.53434 13.7933 4.20703C13.4028 3.81651 13.4028 3.18349 13.7933 2.79297ZM10.0004 1.5C10.5525 1.50017 11.0004 1.94782 11.0004 2.5C11.0004 3.05218 10.5525 3.49983 10.0004 3.5C9.44807 3.5 9.00037 3.05228 9.00037 2.5C9.00037 1.94771 9.44807 1.5 10.0004 1.5ZM21.0004 1C21.5525 1.00017 22.0004 1.44782 22.0004 2C22.0004 2.55218 21.5525 2.99983 21.0004 3C20.4481 3 20.0004 2.55228 20.0004 2C20.0004 1.44771 20.4481 1 21.0004 1Z" fill="#9E9E9E"/>
</g>
</svg>
