<svg width="24" height="24" viewBox="0 0 24 24" fill="none" xmlns="http://www.w3.org/2000/svg">
<g id="icons/Others/folder-one">
<path id="Union" d="M8 1.5C8.82845 1.5 9.5 2.17159 9.5 3V21C9.5 21.8284 8.82843 22.5 8 22.5H3C2.17159 22.5 1.5 21.8284 1.5 21V3C1.5 2.17158 2.17158 1.5 3 1.5H8ZM16.7764 2.65039C17.5258 2.463 18.2852 2.87541 18.5469 3.58496L18.5928 3.73047L22.3428 18.2627C22.5508 19.0693 22.0615 19.8908 21.2539 20.0928L16.2246 21.3496C15.4252 21.5494 14.6141 21.0673 14.4082 20.2695L10.6582 5.73828C10.4499 4.93165 10.9393 4.11018 11.7471 3.9082L16.7764 2.65039ZM3.5 20.5H7.5V3.5H3.5V20.5ZM12.7197 5.72461L16.2197 19.2881L20.2803 18.2744L16.7803 4.71094L12.7197 5.72461ZM5.5 16.5C6.05228 16.5 6.5 16.9477 6.5 17.5C6.5 18.0523 6.05228 18.5 5.5 18.5C4.94772 18.5 4.5 18.0523 4.5 17.5C4.5 16.9477 4.94772 16.5 5.5 16.5ZM17.5 15C18.0523 15 18.5 15.4477 18.5 16C18.5 16.5523 18.0523 17 17.5 17C16.9477 17 16.5 16.5523 16.5 16C16.5 15.4477 16.9477 15 17.5 15ZM15.2578 7.03027C15.7935 6.89648 16.3358 7.22209 16.4697 7.75781L17.7197 12.7578C17.8535 13.2935 17.5279 13.8358 16.9922 13.9697C16.4565 14.1035 15.9142 13.7779 15.7803 13.2422L14.5303 8.24219C14.3965 7.70647 14.7221 7.1642 15.2578 7.03027ZM5.5 4.5C6.05228 4.5 6.5 4.94772 6.5 5.5V12.5C6.5 13.0523 6.05228 13.5 5.5 13.5C4.94772 13.5 4.5 13.0523 4.5 12.5V5.5C4.5 4.94772 4.94772 4.5 5.5 4.5Z" fill="#9E9E9E"/>
</g>
</svg>
