<svg width="24" height="24" viewBox="0 0 24 24" fill="none" xmlns="http://www.w3.org/2000/svg">
<g id="icons/Others/full-screen-play">
<path id="Union" d="M21 3C22.1046 3 23 3.89544 23 5V8C23 8.55228 22.5523 9 22 9C21.4477 9 21 8.55228 21 8V5H3V19H8C8.55228 19 9 19.4477 9 20C9 20.5523 8.55228 21 8 21H3C1.89544 21 1 20.1046 1 19V5C1 3.89543 1.89543 3 3 3H21ZM21 11C22.1046 11 23 11.8954 23 13V19C23 20.1046 22.1046 21 21 21H13C11.8954 21 11 20.1046 11 19V13C11 11.8954 11.8954 11 13 11H21ZM13 19H21V13H13V19Z" fill="#9E9E9E"/>
</g>
</svg>
