<svg width="24" height="24" viewBox="0 0 24 24" fill="none" xmlns="http://www.w3.org/2000/svg">
<g id="icons/Others/gas">
<path id="Union" d="M3.45715 14.5049H3.46301C3.46693 14.5052 3.47298 14.5063 3.48059 14.5068C3.49603 14.508 3.51918 14.5095 3.54895 14.5117C3.60894 14.5162 3.69746 14.5227 3.80969 14.5312C4.03419 14.5483 4.356 14.5724 4.74426 14.6025C5.52067 14.6628 6.56482 14.7464 7.63489 14.8359C8.704 14.9254 9.80295 15.0222 10.6876 15.1104C11.1292 15.1544 11.5231 15.1965 11.8351 15.2354C12.0482 15.2619 12.264 15.2917 12.4347 15.3252L12.589 15.3594L12.8322 15.4385C14.0183 15.8873 14.7175 17.1641 14.379 18.4277C14.0178 19.7756 12.626 20.5463 11.2941 20.1895C11.1154 20.1415 10.8472 20.0343 10.5831 19.9238C10.2935 19.8027 9.93055 19.6438 9.52551 19.4629C8.71447 19.1007 7.71317 18.6397 6.74133 18.1875C5.76864 17.7349 4.82174 17.2894 4.11829 16.957C3.76649 16.7908 3.47481 16.6531 3.27161 16.5566C3.1701 16.5085 3.0905 16.4701 3.03625 16.4443C3.00941 16.4316 2.98873 16.4217 2.97473 16.415C2.96774 16.4117 2.9617 16.4089 2.95813 16.4072C2.95654 16.4065 2.95506 16.4057 2.95422 16.4053H2.95325C2.51872 16.1983 2.29269 15.7103 2.41614 15.2451C2.53972 14.7801 2.97731 14.4692 3.45715 14.5049ZM10.3419 17.6367C10.7408 17.8148 11.0864 17.966 11.3546 18.0781C11.4889 18.1343 11.5996 18.1794 11.6847 18.2119C11.7736 18.2459 11.8109 18.2572 11.8126 18.2578C12.1062 18.3361 12.3797 18.1623 12.4474 17.9102C12.515 17.6577 12.3643 17.3698 12.0704 17.291V17.29C12.0638 17.2886 12.0252 17.282 11.9396 17.2686C11.85 17.2545 11.7323 17.2377 11.588 17.2197C11.2997 17.1838 10.9243 17.143 10.4894 17.0996C9.98937 17.0498 9.41719 16.9972 8.81848 16.9443C9.36285 17.1947 9.88436 17.4324 10.3419 17.6367ZM19.0001 6.00195C20.933 6.002 22.5001 7.56905 22.5001 9.50195C22.5001 11.4349 20.9331 13.0019 19.0001 13.002H8.00012C7.44784 13.002 7.00012 12.5542 7.00012 12.002C7.00018 11.4497 7.44788 11.002 8.00012 11.002H19.0001C19.8285 11.0019 20.5001 10.3303 20.5001 9.50195C20.5001 8.67362 19.8285 8.002 19.0001 8.00195C18.5102 8.00195 18.0753 8.23615 17.7999 8.60254C17.4683 9.04404 16.8411 9.13323 16.3995 8.80176C15.958 8.47007 15.8686 7.84295 16.2003 7.40137C16.8372 6.55362 17.8545 6.00195 19.0001 6.00195ZM11.2657 3.92676C12.5976 3.56996 13.9894 4.34071 14.3507 5.68848C14.7118 7.03621 13.8924 8.39975 12.5607 8.75684C12.3739 8.80688 12.0797 8.8447 11.797 8.87695C11.4841 8.91265 11.0896 8.95065 10.6476 8.98926C9.76224 9.06658 8.66229 9.14862 7.5929 9.22363C6.52261 9.29871 5.47776 9.36756 4.70129 9.41699C4.31342 9.44168 3.99213 9.46173 3.7677 9.47559C3.65548 9.48251 3.56697 9.48755 3.50696 9.49121C3.47713 9.49303 3.45412 9.49418 3.4386 9.49512C3.43103 9.49558 3.42499 9.49586 3.42102 9.49609C3.4191 9.49621 3.41717 9.49697 3.41614 9.49707H3.41516C2.935 9.526 2.50204 9.20872 2.38489 8.74219C2.26785 8.27559 2.49968 7.79203 2.93665 7.59082L3.35461 8.49902L2.93665 7.58984H2.93762C2.93849 7.58943 2.93994 7.58862 2.94153 7.58789C2.94512 7.58623 2.95119 7.58327 2.95813 7.58008C2.97215 7.57363 2.9929 7.56406 3.01965 7.55176C3.07392 7.52681 3.15351 7.48994 3.255 7.44336C3.45819 7.35011 3.74996 7.21738 4.10168 7.05664C4.8051 6.73519 5.75219 6.30326 6.72473 5.86523C7.69642 5.42759 8.69744 4.98189 9.50793 4.63086C9.91265 4.45557 10.2747 4.30211 10.5636 4.18457C10.8289 4.07664 11.0927 3.97318 11.2657 3.92676ZM11.7833 5.8584C11.7802 5.85935 11.77 5.86275 11.7511 5.86914C11.7257 5.87775 11.6914 5.89025 11.6486 5.90625C11.5626 5.93833 11.452 5.98242 11.3175 6.03711C11.0486 6.14651 10.702 6.29296 10.3029 6.46582C9.84853 6.66259 9.33119 6.89037 8.79114 7.13086C9.3941 7.08562 9.97069 7.041 10.4738 6.99707C10.9084 6.95911 11.283 6.92244 11.5704 6.88965C11.7141 6.87326 11.8306 6.85889 11.9191 6.8457C12.0018 6.83335 12.038 6.82609 12.0431 6.8252C12.3366 6.74632 12.4867 6.45844 12.4191 6.20605C12.3513 5.95381 12.077 5.77976 11.7833 5.8584Z" fill="#9E9E9E"/>
</g>
</svg>
