<svg width="24" height="24" viewBox="0 0 24 24" fill="none" xmlns="http://www.w3.org/2000/svg">
<g id="icons/Others/gavel">
<path id="Union" d="M11.0166 17.5C11.1953 17.5 11.3873 17.5316 11.5762 17.6094C12.3863 17.9435 13.8798 18.8117 14.8955 20.2275C15.2471 20.7177 15.2362 21.3161 14.9736 21.7695C14.719 22.2088 14.2402 22.5 13.6934 22.5H3.07812C2.63187 22.5 2.19655 22.3008 1.91895 21.9346C1.62477 21.5463 1.54559 21.009 1.7832 20.5186C2.23374 19.589 3.25124 18.4372 5.1416 17.6211L5.28516 17.5684C5.43111 17.5227 5.58229 17.5 5.73145 17.5H11.0166ZM5.84082 19.5C5.13893 19.8142 4.63322 20.1677 4.27539 20.5H12.4463C11.8899 20.0148 11.299 19.6758 10.9043 19.5H5.84082ZM8.88379 2.79883C9.57416 1.60344 11.1032 1.19377 12.2988 1.88379L15.7627 3.88379C16.9584 4.57411 17.368 6.10312 16.6777 7.29883C16.3957 7.78736 15.9723 8.141 15.4902 8.3457L20.6914 11.3496C21.8871 12.04 22.2968 13.5689 21.6064 14.7646C20.916 15.9601 19.387 16.37 18.1914 15.6797L12.9912 12.6768C13.0545 13.196 12.9594 13.7386 12.6777 14.2266C11.9874 15.4223 10.4584 15.8329 9.2627 15.1426L5.79883 13.1426C4.6031 12.4522 4.19343 10.9223 4.88379 9.72656C5.29218 9.01942 5.99447 8.58929 6.74707 8.49707L8.75098 5.02734C8.45457 4.32941 8.47545 3.50609 8.88379 2.79883ZM13.5615 10.6973L19.1914 13.9473C19.4305 14.0853 19.7369 14.0037 19.875 13.7646C20.0131 13.5255 19.9306 13.2191 19.6914 13.0811L14.0615 9.83105L13.5615 10.6973ZM7.29883 10.5439C7.05986 10.4061 6.75437 10.4878 6.61621 10.7266C6.47816 10.9657 6.55976 11.2721 6.79883 11.4102L10.2627 13.4102C10.5018 13.5482 10.8082 13.4657 10.9463 13.2266C11.084 12.9875 11.0017 12.6819 10.7627 12.5439L7.29883 10.5439ZM8.73242 9.06152L11.3301 10.5615L12.8291 7.96387L10.2314 6.46484L8.73242 9.06152ZM11.2988 3.61621C11.0599 3.47838 10.7544 3.56009 10.6162 3.79883C10.48 4.03474 10.5583 4.33495 10.79 4.47559L14.2715 6.48633C14.5094 6.61799 14.8098 6.5353 14.9463 6.29883C15.084 6.05975 15.0017 5.7542 14.7627 5.61621L11.2988 3.61621Z" fill="#9E9E9E"/>
</g>
</svg>
