<svg width="24" height="24" viewBox="0 0 24 24" fill="none" xmlns="http://www.w3.org/2000/svg">
<g id="icons/Others/glasses-three">
<path id="Union" d="M18 12C20.4853 12 22.5 14.0147 22.5 16.5C22.5 18.9853 20.4853 21 18 21C15.5147 21 13.5 18.9853 13.5 16.5C13.5 15.803 13.3395 15.2902 13.1055 14.9775C12.9028 14.7068 12.5852 14.5 12 14.5C11.4148 14.5 11.0972 14.7068 10.8945 14.9775C10.6605 15.2902 10.5 15.803 10.5 16.5C10.5 18.9853 8.48528 21 6 21C3.51472 21 1.5 18.9853 1.5 16.5C1.5 14.0147 3.51472 12 6 12C7.3794 12 8.61301 12.6214 9.43848 13.5986C10.0468 12.8961 10.9245 12.5 12 12.5C13.0753 12.5 13.9522 12.8964 14.5605 13.5986C15.386 12.6211 16.6204 12 18 12ZM6 14C4.61929 14 3.5 15.1193 3.5 16.5C3.5 17.8807 4.61929 19 6 19C7.38071 19 8.5 17.8807 8.5 16.5C8.5 15.1193 7.38071 14 6 14ZM18 14C16.6193 14 15.5 15.1193 15.5 16.5C15.5 17.8807 16.6193 19 18 19C19.3807 19 20.5 17.8807 20.5 16.5C20.5 15.1193 19.3807 14 18 14ZM7 3C7.55228 3 8 3.44772 8 4C8 4.55228 7.55228 5 7 5H6C4.89543 5 4 5.89543 4 7V11C4 11.5523 3.55228 12 3 12C2.44772 12 2 11.5523 2 11V7C2 4.79087 3.79086 3 6 3H7ZM18 3C20.2091 3 22 4.79087 22 7V11C22 11.5523 21.5523 12 21 12C20.4477 12 20 11.5523 20 11V7C20 5.89543 19.1046 5 18 5H17C16.4477 5 16 4.55228 16 4C16 3.44772 16.4477 3 17 3H18Z" fill="#9E9E9E"/>
</g>
</svg>
