<svg width="24" height="24" viewBox="0 0 24 24" fill="none" xmlns="http://www.w3.org/2000/svg">
<g id="icons/Others/id-card">
<path id="Union" d="M21 3C22.1046 3 23 3.89544 23 5V19C23 20.1046 22.1046 21 21 21H3C1.89544 21 1 20.1046 1 19V5C1 3.89543 1.89543 3 3 3H21ZM3 19H21V5H3V19ZM18 15C18.5523 15 19 15.4477 19 16C19 16.5523 18.5523 17 18 17H6C5.44772 17 5 16.5523 5 16C5 15.4477 5.44772 15 6 15H18ZM9 11C9.55229 11 10 11.4477 10 12C10 12.5523 9.55229 13 9 13H6C5.44772 13 5 12.5523 5 12C5 11.4477 5.44772 11 6 11H9ZM18 7C18.5523 7 19 7.44772 19 8V12C19 12.5523 18.5523 13 18 13H14C13.4477 13 13 12.5523 13 12V8C13 7.44772 13.4477 7 14 7H18ZM15 11H17V9H15V11ZM9 7C9.55229 7 10 7.44772 10 8C10 8.55228 9.55229 9 9 9H6C5.44772 9 5 8.55228 5 8C5 7.44772 5.44772 7 6 7H9Z" fill="#9E9E9E"/>
</g>
</svg>
