<svg width="24" height="24" viewBox="0 0 24 24" fill="none" xmlns="http://www.w3.org/2000/svg">
<g id="icons/Others/light-member">
<path id="Union" d="M7.18848 3.60156C7.73642 2.81873 8.76184 2.53271 9.63574 2.91895L17.7363 6.5H21.5C22.3284 6.5 23 7.17157 23 8V20C23 20.8284 22.3284 21.5 21.5 21.5H2.5C1.67161 21.5 1.00004 20.8284 1 20V8C1 7.17155 1.67159 6.5 2.5 6.5H5.16016L7.18848 3.60156ZM3 19.5H21V8.5H17.5439C17.5277 8.50027 17.5114 8.50053 17.4951 8.5H5.69434C5.67904 8.50024 5.66375 8.50046 5.64844 8.5H3V19.5ZM9.0459 10.6094C9.53779 10.3586 10.1397 10.554 10.3906 11.0459L12.0322 14.2637L13.6016 11.0605C13.8444 10.5647 14.4435 10.359 14.9395 10.6016C15.4353 10.8444 15.641 11.4436 15.3984 11.9395L12.9492 16.9395C12.7826 17.2796 12.4383 17.4969 12.0596 17.5C11.6808 17.5031 11.3323 17.2915 11.1602 16.9541L8.60938 11.9541C8.35858 11.4622 8.55407 10.8604 9.0459 10.6094ZM7.60059 6.5H12.79L8.82715 4.74805L7.60059 6.5Z" fill="#9E9E9E"/>
</g>
</svg>
