<svg width="24" height="24" viewBox="0 0 24 24" fill="none" xmlns="http://www.w3.org/2000/svg">
<g id="icons/Others/light">
<path id="Union" d="M5 17C5.55228 17 6 17.4477 6 18C6 18.5523 5.55228 19 5 19H2C1.44772 19 1 18.5523 1 18C1 17.4477 1.44772 17 2 17H5ZM15 17C15.5523 17 16 17.4477 16 18C16 18.5523 15.5523 19 15 19H9C8.44772 19 8 18.5523 8 18C8 17.4477 8.44772 17 9 17H15ZM22 17C22.5523 17 23 17.4477 23 18C23 18.5523 22.5523 19 22 19H19C18.4477 19 18 18.5523 18 18C18 17.4477 18.4477 17 19 17H22ZM4.22168 10.2227C4.6122 9.83214 5.24522 9.83214 5.63574 10.2227L7.75684 12.3438C8.14736 12.7343 8.14736 13.3673 7.75684 13.7578C7.36631 14.1483 6.73329 14.1483 6.34277 13.7578L4.22168 11.6367C3.83116 11.2462 3.83116 10.6132 4.22168 10.2227ZM18.3633 10.2227C18.7538 9.83218 19.3868 9.83226 19.7773 10.2227C20.1679 10.6132 20.1679 11.2462 19.7773 11.6367L17.6562 13.7578C17.2657 14.1483 16.6327 14.1483 16.2422 13.7578C15.8518 13.3673 15.8517 12.7342 16.2422 12.3438L18.3633 10.2227ZM12 7C12.5523 7 13 7.44772 13 8V11C13 11.5523 12.5523 12 12 12C11.4477 12 11 11.5523 11 11V8C11 7.44772 11.4477 7 12 7Z" fill="#9E9E9E"/>
</g>
</svg>
