<svg width="24" height="24" viewBox="0 0 24 24" fill="none" xmlns="http://www.w3.org/2000/svg">
<g id="icons/Others/luminous">
<path id="Union" d="M7 17C7.55228 17 8 17.4477 8 18C8 18.5523 7.55228 19 7 19H2C1.44772 19 1 18.5523 1 18C1 17.4477 1.44772 17 2 17H7ZM13 17C13.5523 17 14 17.4477 14 18C14 18.5523 13.5523 19 13 19H11C10.4477 19 10 18.5523 10 18C10 17.4477 10.4477 17 11 17H13ZM22 17C22.5523 17 23 17.4477 23 18C23 18.5523 22.5523 19 22 19H17C16.4477 19 16 18.5523 16 18C16 17.4477 16.4477 17 17 17H22ZM4.22168 10.2227C4.6122 9.83213 5.24522 9.83213 5.63574 10.2227L9.13574 13.7227C9.52626 14.1132 9.52626 14.7462 9.13574 15.1367C8.74522 15.5272 8.1122 15.5272 7.72168 15.1367L4.22168 11.6367C3.83116 11.2462 3.83116 10.6132 4.22168 10.2227ZM18.3643 10.2227C18.7548 9.83225 19.3878 9.83217 19.7783 10.2227C20.1687 10.6131 20.1687 11.2462 19.7783 11.6367L16.2783 15.1367C15.8878 15.5272 15.2548 15.5271 14.8643 15.1367C14.4737 14.7462 14.4737 14.1132 14.8643 13.7227L18.3643 10.2227ZM12 7C12.5523 7 13 7.44772 13 8V13C13 13.5523 12.5523 14 12 14C11.4477 14 11 13.5523 11 13V8C11 7.44772 11.4477 7 12 7Z" fill="#9E9E9E"/>
</g>
</svg>
