<svg width="24" height="24" viewBox="0 0 24 24" fill="none" xmlns="http://www.w3.org/2000/svg">
<g id="icons/Others/magic">
<path id="Union" d="M14.0861 8.5C14.4765 8.1096 15.1096 8.10966 15.5001 8.5C15.8905 8.89051 15.8905 9.52356 15.5001 9.91406L12.879 12.5352L10.7579 14.6572C10.755 14.6601 10.7511 14.6622 10.7482 14.665L3.47961 21.9346C3.08911 22.3251 2.45608 22.325 2.06555 21.9346C1.67517 21.544 1.67508 20.911 2.06555 20.5205L9.33411 13.251C9.33697 13.248 9.33999 13.2451 9.3429 13.2422L11.465 11.1211L14.0861 8.5ZM15.0001 12C15.5523 12.0001 16.0001 12.4478 16.0001 13V16C16.0001 16.5522 15.5523 16.9999 15.0001 17C14.4478 17 14.0001 16.5523 14.0001 16V13C14.0001 12.4477 14.4478 12 15.0001 12ZM17.1212 11.1211C17.5116 10.7308 18.1448 10.7309 18.5353 11.1211L20.6573 13.2422C21.0478 13.6327 21.0478 14.2667 20.6573 14.6572C20.2668 15.0477 19.6328 15.0477 19.2423 14.6572L17.1212 12.5352C16.731 12.1446 16.7308 11.5115 17.1212 11.1211ZM11.0001 8C11.5523 8.00008 12.0001 8.44776 12.0001 9C12.0001 9.55224 11.5523 9.99992 11.0001 10H8.00012C7.44784 10 7.00012 9.55229 7.00012 9C7.00012 8.44772 7.44784 8 8.00012 8H11.0001ZM22.0001 8C22.5523 8.00008 23.0001 8.44776 23.0001 9C23.0001 9.55224 22.5523 9.99992 22.0001 10H19.0001C18.4478 10 18.0001 9.55229 18.0001 9C18.0001 8.44772 18.4478 8 19.0001 8H22.0001ZM9.3429 3.34277C9.73343 2.95232 10.3674 2.95227 10.7579 3.34277L12.879 5.46484C13.2691 5.85538 13.2693 6.48851 12.879 6.87891C12.4886 7.2693 11.8555 7.26903 11.465 6.87891L9.3429 4.75781C8.95237 4.36729 8.95237 3.7333 9.3429 3.34277ZM19.2423 3.34277C19.6328 2.95232 20.2668 2.95227 20.6573 3.34277C21.0478 3.73328 21.0478 4.36731 20.6573 4.75781L18.5353 6.87891C18.1448 7.26908 17.5116 7.26925 17.1212 6.87891C16.7308 6.48849 16.731 5.85539 17.1212 5.46484L19.2423 3.34277ZM15.0001 1C15.5523 1.00008 16.0001 1.44776 16.0001 2V5C16.0001 5.55224 15.5523 5.99992 15.0001 6C14.4478 6 14.0001 5.55228 14.0001 5V2C14.0001 1.44772 14.4478 1 15.0001 1Z" fill="#9E9E9E"/>
</g>
</svg>
