<svg width="24" height="24" viewBox="0 0 24 24" fill="none" xmlns="http://www.w3.org/2000/svg">
<g id="icons/Others/medal-one">
<path id="Union" d="M14.5768 1.61523C14.7892 1.10569 15.3747 0.865002 15.8844 1.07715C16.3941 1.28964 16.6349 1.87503 16.4225 2.38477L14.3522 7.35156C14.7978 7.48843 15.2257 7.66517 15.6344 7.87402L20.2311 2.35938C20.5846 1.93527 21.216 1.87813 21.6403 2.23145C22.0644 2.58502 22.1217 3.21638 21.7682 3.64062L17.2955 9.00684C18.9531 10.4726 19.9996 12.6133 19.9996 15C19.9996 19.4183 16.4179 23 11.9996 23C7.58152 22.9998 3.99963 19.4182 3.99963 15C3.99965 12.6138 5.0457 10.4726 6.70276 9.00684L2.23108 3.64062C1.87779 3.21644 1.93506 2.58499 2.35901 2.23145C2.78318 1.87797 3.41458 1.93538 3.76819 2.35938L8.36389 7.87402C8.7725 7.66511 9.2006 7.48851 9.64612 7.35156L7.57678 2.38477C7.36457 1.87517 7.60547 1.28971 8.11487 1.07715C8.62454 0.864785 9.20993 1.1057 9.42249 1.61523L11.6696 7.00781C11.779 7.00336 11.8891 7 11.9996 7C12.1098 7 12.2197 7.0034 12.3287 7.00781L14.5768 1.61523ZM11.9996 9C8.68611 9.0002 5.99967 11.6864 5.99963 15C5.99963 18.3136 8.68609 20.9998 11.9996 21C15.3133 21 17.9996 18.3137 17.9996 15C17.9996 11.6863 15.3133 9 11.9996 9ZM11.9996 10.5C14.4849 10.5 16.4996 12.5147 16.4996 15C16.4996 17.4853 14.4849 19.5 11.9996 19.5C9.51452 19.4998 7.49963 17.4852 7.49963 15C7.49967 12.5149 9.51454 10.5002 11.9996 10.5ZM11.9996 12.5C10.6191 12.5002 9.49967 13.6194 9.49963 15C9.49963 16.3806 10.6191 17.4998 11.9996 17.5C13.3803 17.5 14.4996 16.3807 14.4996 15C14.4996 13.6193 13.3803 12.5 11.9996 12.5Z" fill="#9E9E9E"/>
</g>
</svg>
