<svg width="24" height="24" viewBox="0 0 24 24" fill="none" xmlns="http://www.w3.org/2000/svg">
<g id="icons/Others/pay-code">
<path id="Union" d="M22 1C22.5523 1 23 1.44772 23 2V22C23 22.5523 22.5523 23 22 23H2C1.44772 23 1 22.5523 1 22V2C1 1.44772 1.44772 1 2 1H22ZM3 21H21V3H3V21ZM6 7C6.55228 7 7 7.44772 7 8V16C7 16.5523 6.55228 17 6 17C5.44772 17 5 16.5523 5 16V8C5 7.44772 5.44772 7 6 7ZM10 7C10.5523 7 11 7.44772 11 8V16C11 16.5523 10.5523 17 10 17C9.44771 17 9 16.5523 9 16V8C9 7.44772 9.44771 7 10 7ZM14 7C14.5523 7 15 7.44772 15 8V16C15 16.5523 14.5523 17 14 17C13.4477 17 13 16.5523 13 16V8C13 7.44772 13.4477 7 14 7ZM18 7C18.5523 7 19 7.44772 19 8V16C19 16.5523 18.5523 17 18 17C17.4477 17 17 16.5523 17 16V8C17 7.44772 17.4477 7 18 7Z" fill="#9E9E9E"/>
</g>
</svg>
