<svg width="24" height="24" viewBox="0 0 24 24" fill="none" xmlns="http://www.w3.org/2000/svg">
<g id="icons/Others/radar-three">
<path id="Union" d="M12 1C12.5523 1 13 1.44772 13 2V9.70898C13.8828 10.0948 14.5 10.975 14.5 12C14.5 13.3807 13.3807 14.5 12 14.5C10.6193 14.5 9.5 13.3807 9.5 12C9.5 10.975 10.1172 10.0948 11 9.70898V7.6123C8.99611 8.0671 7.5 9.85849 7.5 12C7.5 14.4853 9.51474 16.5 12 16.5C14.4853 16.5 16.5 14.4853 16.5 12C16.5 10.9582 16.147 10.0017 15.5537 9.23926C15.2146 8.8035 15.2929 8.17518 15.7285 7.83594C16.1643 7.49682 16.7926 7.57511 17.1318 8.01074C17.9887 9.11183 18.5 10.4977 18.5 12C18.5 15.5898 15.5898 18.5 12 18.5C8.41017 18.5 5.5 15.5898 5.5 12C5.5 8.75022 7.8849 6.05716 11 5.57617V3.05664C6.50014 3.55417 3 7.36751 3 12C3 16.9706 7.02943 21 12 21C16.9706 21 21 16.9706 21 12C21 9.91739 20.294 8.00225 19.1074 6.47754C18.7683 6.04169 18.8464 5.41339 19.2822 5.07422C19.718 4.73519 20.3463 4.81349 20.6855 5.24902C22.1357 7.11242 23 9.45691 23 12C23 18.0751 18.0751 23 12 23C5.92487 23 1 18.0751 1 12C1 5.92487 5.92487 1 12 1ZM12 11.5C11.7239 11.5 11.5 11.7239 11.5 12C11.5 12.2761 11.7239 12.5 12 12.5C12.2761 12.5 12.5 12.2761 12.5 12C12.5 11.7239 12.2761 11.5 12 11.5Z" fill="#9E9E9E"/>
</g>
</svg>
