<svg width="24" height="24" viewBox="0 0 24 24" fill="none" xmlns="http://www.w3.org/2000/svg">
<g id="icons/Others/read-book">
<path id="Union" d="M12 1C14.7614 1 17 3.23858 17 6C17 6.83119 16.7954 7.61405 16.4365 8.30371C17.7401 8.1217 19.2668 8 21 8C21.5523 8 22 8.44772 22 9V20C22 20.5523 21.5523 21 21 21C19.8361 21 18.0655 21.0017 16.3906 21.2402C15.5543 21.3594 14.776 21.5328 14.1299 21.7783C13.4751 22.0272 13.0304 22.3223 12.7725 22.6357C12.764 22.6461 12.753 22.6541 12.7441 22.6641C12.727 22.6833 12.7091 22.7018 12.6904 22.7197C12.6735 22.736 12.6565 22.7517 12.6387 22.7666C12.6171 22.7846 12.5945 22.8012 12.5713 22.8174C12.5505 22.8319 12.5295 22.8456 12.5078 22.8584C12.488 22.8701 12.468 22.8812 12.4473 22.8916C12.4225 22.904 12.3977 22.9155 12.3721 22.9258C12.3605 22.9304 12.3497 22.9372 12.3379 22.9414C12.3249 22.9461 12.3109 22.9471 12.2979 22.9512C12.2749 22.9584 12.252 22.9652 12.2285 22.9707C12.2021 22.9769 12.176 22.9823 12.1494 22.9863C12.1257 22.9899 12.1021 22.9923 12.0781 22.9941C12.052 22.9962 12.0261 22.9981 12 22.998C11.9736 22.9981 11.9474 22.9962 11.9209 22.9941C11.897 22.9922 11.8733 22.9899 11.8496 22.9863C11.8231 22.9823 11.7969 22.9769 11.7705 22.9707C11.7471 22.9652 11.7242 22.9584 11.7012 22.9512C11.6884 22.9472 11.6748 22.9459 11.6621 22.9414C11.6503 22.9372 11.6395 22.9304 11.6279 22.9258C11.6021 22.9154 11.5767 22.9041 11.5518 22.8916C11.5311 22.8812 11.511 22.8701 11.4912 22.8584C11.4695 22.8456 11.4485 22.8319 11.4277 22.8174C11.4046 22.8012 11.3819 22.7846 11.3604 22.7666C11.3425 22.7517 11.3255 22.736 11.3086 22.7197C11.2899 22.7018 11.272 22.6833 11.2549 22.6641C11.2462 22.6543 11.2359 22.6459 11.2275 22.6357C10.9696 22.3223 10.5249 22.0272 9.87012 21.7783C9.22397 21.5328 8.44566 21.3594 7.60938 21.2402C5.93455 21.0017 4.16393 21 3 21C2.44772 21 2 20.5523 2 20V9C2 8.44772 2.44772 8 3 8C4.73274 8 6.25909 8.12177 7.5625 8.30371C7.20379 7.61415 7 6.83102 7 6C7 3.23858 9.23858 1 12 1ZM4 19.0039C5.10617 19.0159 6.51884 19.0642 7.8916 19.2598C8.81031 19.3906 9.74605 19.5922 10.5801 19.9092C10.7212 19.9628 10.8613 20.0216 11 20.084V11.1533C9.88627 10.7331 7.50763 10.1159 4 10.0146V19.0039ZM20 10.0146C16.4924 10.1159 14.1137 10.7331 13 11.1533V20.084C13.1387 20.0216 13.2788 19.9628 13.4199 19.9092C14.254 19.5922 15.1897 19.3906 16.1084 19.2598C17.4812 19.0642 18.8938 19.0159 20 19.0039V10.0146ZM12 3C10.3431 3 9 4.34315 9 6C9 7.65685 10.3431 9 12 9C13.6569 9 15 7.65685 15 6C15 4.34315 13.6569 3 12 3Z" fill="#9E9E9E"/>
</g>
</svg>
