<svg width="24" height="24" viewBox="0 0 24 24" fill="none" xmlns="http://www.w3.org/2000/svg">
<g id="icons/Others/seat">
<path id="Union" d="M11.4336 7.67578C11.7052 7.48926 12.0519 7.44814 12.3594 7.56641C15.5128 8.77923 17.1408 9 19 9C19.5523 9 20 9.44771 20 10C20 10.5523 19.5523 11 19 11C17.1673 11 15.5324 10.7933 13 9.92676V13.5H19C19.5523 13.5 20 13.9477 20 14.5V21.5C20 22.0523 19.5523 22.5 19 22.5C18.4477 22.5 18 22.0523 18 21.5V15.5H12C11.4477 15.5 11 15.0523 11 14.5V8.5C11 8.17063 11.1621 7.86232 11.4336 7.67578ZM8.2002 9.77441C8.72706 9.60893 9.28856 9.90188 9.4541 10.4287C9.61959 10.9556 9.32664 11.5171 8.7998 11.6826C7.17605 12.1926 6 13.7105 6 15.5C6.00021 17.709 7.79101 19.5 10 19.5C11.308 19.5 12.4697 18.8732 13.2012 17.8994C13.2971 17.7717 13.3855 17.6378 13.4658 17.499C13.7424 17.021 14.354 16.8572 14.832 17.1338C15.3101 17.4104 15.4728 18.022 15.1963 18.5C15.0758 18.7083 14.9435 18.9092 14.7998 19.1006C13.7068 20.5555 11.9635 21.5 10 21.5C6.68645 21.5 4.00021 18.8136 4 15.5C4 12.812 5.76691 10.5387 8.2002 9.77441ZM12 1C13.6569 1 15 2.34315 15 4C15 5.65685 13.6569 7 12 7C10.3431 7 9 5.65685 9 4C9 2.34315 10.3431 1 12 1ZM12 3C11.4477 3 11 3.44772 11 4C11 4.55228 11.4477 5 12 5C12.5523 5 13 4.55228 13 4C13 3.44772 12.5523 3 12 3Z" fill="#9E9E9E"/>
</g>
</svg>
