<svg width="24" height="24" viewBox="0 0 24 24" fill="none" xmlns="http://www.w3.org/2000/svg">
<g id="icons/Others/shake">
<path id="Union" d="M17.0004 2C17.5525 2.00023 18.0004 2.44786 18.0004 3V21C18.0004 21.5521 17.5525 21.9998 17.0004 22H7.00043C6.44814 22 6.00043 21.5523 6.00043 21V3C6.00043 2.44772 6.44814 2 7.00043 2H17.0004ZM8.00043 20H16.0004V4H8.00043V20ZM1.35004 4.24121C1.76936 3.88202 2.39986 3.93037 2.75922 4.34961L4.75922 6.68262C5.07997 7.05704 5.07997 7.60996 4.75922 7.98438L3.31683 9.66602L4.75922 11.3496C5.07997 11.724 5.07997 12.276 4.75922 12.6504L3.31683 14.333L4.75922 16.0156C5.07997 16.39 5.07997 16.943 4.75922 17.3174L2.75922 19.6504C2.39986 20.0696 1.76936 20.118 1.35004 19.7588C0.930712 19.3994 0.882218 18.7689 1.24164 18.3496L2.68304 16.666L1.24164 14.9844C0.920644 14.6099 0.920647 14.0571 1.24164 13.6826L2.68402 12L1.24164 10.3174C0.920647 9.94289 0.920643 9.39011 1.24164 9.01562L2.68304 7.33301L1.24164 5.65039C0.882218 5.23106 0.930712 4.60063 1.35004 4.24121ZM21.2416 4.34961C21.6011 3.93048 22.2316 3.88185 22.6508 4.24121C23.0698 4.60061 23.1184 5.23114 22.7592 5.65039L21.3168 7.33301L22.7592 9.01562C23.08 9.39004 23.08 9.94296 22.7592 10.3174L21.3159 12L22.7592 13.6826C23.08 14.057 23.08 14.61 22.7592 14.9844L21.3168 16.666L22.7592 18.3496C23.1184 18.7689 23.0698 19.3994 22.6508 19.7588C22.2316 20.1181 21.6011 20.0695 21.2416 19.6504L19.2416 17.3174C18.9206 16.9429 18.9206 16.3901 19.2416 16.0156L20.683 14.333L19.2416 12.6504C18.9207 12.2759 18.9207 11.7241 19.2416 11.3496L20.683 9.66602L19.2416 7.98438C18.9206 7.60989 18.9206 7.05711 19.2416 6.68262L21.2416 4.34961ZM13.0004 16.5C13.5525 16.5002 14.0004 16.9479 14.0004 17.5C14.0004 18.0521 13.5525 18.4998 13.0004 18.5H11.0004C10.4481 18.5 10.0004 18.0523 10.0004 17.5C10.0004 16.9477 10.4481 16.5 11.0004 16.5H13.0004Z" fill="#9E9E9E"/>
</g>
</svg>
