<svg width="24" height="24" viewBox="0 0 24 24" fill="none" xmlns="http://www.w3.org/2000/svg">
<g id="icons/Others/share-sys">
<path id="Union" d="M12 2.5C18.0751 2.5 23 7.42487 23 13.5C23 16.6771 21.6516 19.5411 19.499 21.5479C19.0951 21.9242 18.4625 21.9019 18.0859 21.498C17.7093 21.0941 17.7318 20.4616 18.1357 20.085C19.8995 18.4407 21 16.0995 21 13.5C21 8.52943 16.9706 4.5 12 4.5C7.02943 4.5 3 8.52943 3 13.5C3 16.0995 4.10048 18.4407 5.86426 20.085C6.26823 20.4616 6.29066 21.0941 5.91406 21.498C5.53753 21.9019 4.90493 21.9242 4.50098 21.5479C2.34839 19.5411 1 16.6771 1 13.5C1 7.42487 5.92487 2.5 12 2.5ZM12 6C16.1421 6 19.5 9.35787 19.5 13.5C19.5 15.6662 18.5805 17.6195 17.1133 18.9873C16.7094 19.3637 16.0768 19.3412 15.7002 18.9375C15.3237 18.5337 15.3454 17.9011 15.749 17.5244C16.8274 16.5191 17.5 15.0886 17.5 13.5C17.5 10.4624 15.0376 8 12 8C8.96243 8 6.5 10.4624 6.5 13.5C6.5 15.0886 7.17257 16.5191 8.25098 17.5244C8.65457 17.9011 8.67628 18.5337 8.2998 18.9375C7.92321 19.3412 7.2906 19.3637 6.88672 18.9873C5.41952 17.6195 4.5 15.6662 4.5 13.5C4.5 9.35787 7.85787 6 12 6ZM12 9.5C14.2091 9.5 16 11.2909 16 13.5C16 14.6553 15.5094 15.6979 14.7275 16.4268C14.3236 16.8034 13.6901 16.7809 13.3135 16.377C12.937 15.9731 12.9596 15.3405 13.3633 14.9639C13.7563 14.5974 14 14.0777 14 13.5C14 12.3954 13.1046 11.5 12 11.5C10.8954 11.5 10 12.3954 10 13.5C10 14.0777 10.2437 14.5974 10.6367 14.9639C11.0404 15.3405 11.063 15.9731 10.6865 16.377C10.3099 16.7809 9.67643 16.8034 9.27246 16.4268C8.49062 15.6979 8 14.6553 8 13.5C8 11.2909 9.79086 9.5 12 9.5Z" fill="#9E9E9E"/>
</g>
</svg>
