<svg width="24" height="24" viewBox="0 0 24 24" fill="none" xmlns="http://www.w3.org/2000/svg">
<g id="icons/Others/sickbed">
<path id="Union" d="M11.087 6.08984C11.33 5.97962 11.6073 5.97046 11.8566 6.06543L21.0431 9.56543C22.2739 10.0344 22.9303 11.3779 22.5431 12.6367L20.9562 17.7939C20.9444 17.8322 20.929 17.8686 20.9132 17.9043C20.9081 17.9159 20.9021 17.9271 20.8966 17.9385C20.8877 17.9567 20.8791 17.9747 20.8693 17.9922C20.8638 18.0019 20.8575 18.011 20.8517 18.0205C20.8224 18.0684 20.7903 18.1136 20.754 18.1553C20.7474 18.1629 20.7404 18.1703 20.7335 18.1777C20.7191 18.1933 20.7039 18.2081 20.6886 18.2227C20.6787 18.2321 20.6686 18.241 20.6583 18.25C20.6447 18.2619 20.6315 18.274 20.6173 18.2852C20.6068 18.2934 20.5959 18.3008 20.5851 18.3086C20.5689 18.3203 20.553 18.3321 20.5363 18.3428C20.5272 18.3485 20.5181 18.3539 20.5089 18.3594C20.4912 18.3699 20.4735 18.3803 20.4552 18.3896C20.4462 18.3942 20.4369 18.398 20.4279 18.4023C20.3487 18.4399 20.2648 18.4666 20.1779 18.4824C20.1707 18.4837 20.1636 18.4852 20.1564 18.4863C20.1331 18.49 20.1097 18.4931 20.0861 18.4951C20.0702 18.4965 20.0542 18.4974 20.0382 18.498C20.0229 18.4986 20.0077 18.4991 19.9923 18.499C19.9777 18.4989 19.9631 18.4978 19.9484 18.4971C19.9279 18.496 19.9074 18.4955 19.8868 18.4932C19.8793 18.4923 19.8719 18.4903 19.8644 18.4893C19.8117 18.482 19.7587 18.4722 19.7062 18.4561C19.6999 18.4541 19.6938 18.4513 19.6876 18.4492C19.6864 18.4488 19.685 18.4487 19.6837 18.4482L15.5001 17.0537V18C15.5001 18.5522 15.0523 18.9999 14.5001 19H9.50012C8.94784 19 8.50012 18.5523 8.50012 18V14.7197L1.68372 12.4482C1.15996 12.2735 0.877265 11.7074 1.05188 11.1836C1.22666 10.6599 1.7927 10.3771 2.31653 10.5518L8.37024 12.5693L10.5626 6.65234L10.6017 6.56152C10.7032 6.35349 10.8744 6.18636 11.087 6.08984ZM10.5001 17H13.5001V16.459L10.5001 15.4092V17ZM10.2687 13.2021L19.3448 16.2275L20.631 12.0488C20.7084 11.797 20.5772 11.5284 20.3312 11.4346L12.087 8.29395L10.2687 13.2021ZM6.00012 5.5C7.38077 5.50007 8.50012 6.61933 8.50012 8C8.50012 9.38067 7.38077 10.4999 6.00012 10.5C4.61941 10.5 3.50012 9.38071 3.50012 8C3.50012 6.61929 4.61941 5.5 6.00012 5.5ZM6.00012 7.5C5.72398 7.5 5.50012 7.72386 5.50012 8C5.50012 8.27614 5.72398 8.5 6.00012 8.5C6.2762 8.49993 6.50012 8.2761 6.50012 8C6.50012 7.7239 6.2762 7.50007 6.00012 7.5Z" fill="#9E9E9E"/>
</g>
</svg>
