<svg width="24" height="24" viewBox="0 0 24 24" fill="none" xmlns="http://www.w3.org/2000/svg">
<g id="icons/Others/signal">
<path id="Union" d="M4 17C4.55228 17 5 17.4477 5 18V21C5 21.5523 4.55228 22 4 22C3.44772 22 3 21.5523 3 21V18C3 17.4477 3.44772 17 4 17ZM9.5 12C10.0523 12 10.5 12.4477 10.5 13V21C10.5 21.5523 10.0523 22 9.5 22C8.94772 22 8.5 21.5523 8.5 21V13C8.5 12.4477 8.94772 12 9.5 12ZM14.5 7C15.0523 7 15.5 7.44772 15.5 8V21C15.5 21.5523 15.0523 22 14.5 22C13.9477 22 13.5 21.5523 13.5 21V8C13.5 7.44772 13.9477 7 14.5 7ZM20 2C20.5523 2 21 2.44772 21 3V21C21 21.5523 20.5523 22 20 22C19.4477 22 19 21.5523 19 21V3C19 2.44772 19.4477 2 20 2Z" fill="#9E9E9E"/>
</g>
</svg>
