<svg width="24" height="24" viewBox="0 0 24 24" fill="none" xmlns="http://www.w3.org/2000/svg">
<g id="icons/Others/signal-one">
<path id="Union" d="M12 16C12.5523 16 13 16.4477 13 17V22C13 22.5523 12.5523 23 12 23C11.4477 23 11 22.5523 11 22V17C11 16.4477 11.4477 16 12 16ZM4.22168 4.22266C4.61217 3.83217 5.24521 3.83224 5.63574 4.22266C6.02627 4.61318 6.02627 5.24619 5.63574 5.63672C4.00603 7.26649 3 9.5155 3 12.001C3.00007 14.4863 4.00625 16.7346 5.63574 18.3643C6.02627 18.7548 6.02627 19.3888 5.63574 19.7793C5.24523 20.1695 4.6121 20.1696 4.22168 19.7793C2.23222 17.7898 1.00007 15.0382 1 12.001C1 8.96376 2.23224 6.21216 4.22168 4.22266ZM18.3643 4.22266C18.7548 3.83213 19.3878 3.83213 19.7783 4.22266C21.7678 6.21217 23 8.96371 23 12.001C22.9999 15.0382 21.7678 17.7898 19.7783 19.7793C19.3878 20.1695 18.7547 20.1695 18.3643 19.7793C17.9737 19.3888 17.9737 18.7548 18.3643 18.3643C19.9938 16.7346 20.9999 14.4863 21 12.001C21 9.51545 19.994 7.2665 18.3643 5.63672C17.9737 5.24619 17.9737 4.61318 18.3643 4.22266ZM6.84277 6.34375C7.2333 5.95323 7.86729 5.95323 8.25781 6.34375C8.64798 6.73421 8.64798 7.36736 8.25781 7.75781C7.17093 8.84469 6.5 10.3438 6.5 12.001C6.50012 13.6579 7.17103 15.1564 8.25781 16.2432C8.64801 16.6336 8.64795 17.2668 8.25781 17.6572C7.86729 18.0478 7.2333 18.0478 6.84277 17.6572C5.39641 16.2107 4.50012 14.2095 4.5 12.001C4.5 9.79222 5.39628 7.79035 6.84277 6.34375ZM15.7422 6.34375C16.1327 5.95323 16.7657 5.95323 17.1562 6.34375C18.6029 7.79037 19.499 9.79211 19.499 12.001C19.4989 14.2096 18.6027 16.2107 17.1562 17.6572C16.7657 18.0478 16.1327 18.0478 15.7422 17.6572C15.3517 17.2667 15.3517 16.6337 15.7422 16.2432C16.8289 15.1564 17.4989 13.6579 17.499 12.001C17.499 10.3438 16.8291 8.84469 15.7422 7.75781C15.3517 7.36729 15.3517 6.73427 15.7422 6.34375ZM12 10.5C12.8285 10.5 13.5 11.1715 13.5 12C13.5 12.8285 12.8285 13.5 12 13.5C11.1715 13.5 10.5 12.8285 10.5 12C10.5 11.1715 11.1715 10.5 12 10.5ZM12 1C12.5523 1 13 1.44772 13 2V7C13 7.55228 12.5523 8 12 8C11.4477 8 11 7.55228 11 7V2C11 1.44772 11.4477 1 12 1Z" fill="#9E9E9E"/>
</g>
</svg>
