<svg width="24" height="24" viewBox="0 0 24 24" fill="none" xmlns="http://www.w3.org/2000/svg">
<g id="icons/Others/sleep-two">
<path id="Union" d="M2 5C2.55228 5 3 5.44772 3 6V13.5H10V8C10 7.44772 10.4477 7 11 7H20.5C21.8807 7 23 8.11927 23 9.5V18C23 18.5523 22.5523 19 22 19C21.4477 19 21 18.5523 21 18V15.5H3V18C3 18.5523 2.55228 19 2 19C1.44772 19 1 18.5523 1 18V6C1 5.44772 1.44772 5 2 5ZM12 13.5H21V9.5C21 9.22383 20.7762 9 20.5 9H12V13.5ZM6.5 7.5C7.88071 7.5 9 8.61929 9 10C9 11.3807 7.88071 12.5 6.5 12.5C5.11929 12.5 4 11.3807 4 10C4 8.61929 5.11929 7.5 6.5 7.5ZM6.5 9.5C6.22386 9.5 6 9.72386 6 10C6 10.2761 6.22386 10.5 6.5 10.5C6.77614 10.5 7 10.2761 7 10C7 9.72386 6.77614 9.5 6.5 9.5Z" fill="#9E9E9E"/>
</g>
</svg>
