<svg width="24" height="24" viewBox="0 0 24 24" fill="none" xmlns="http://www.w3.org/2000/svg">
<g id="icons/Others/snowman">
<path id="Union" d="M11.9996 1C14.2088 1 15.9996 2.79086 15.9996 5C15.9996 6.02062 15.6161 6.95052 14.9869 7.65723C16.375 8.29987 17.5342 9.37668 18.3307 10.7158L18.9996 10.3818V9C18.9996 8.44782 19.4475 8.00017 19.9996 8C20.5519 8 20.9996 8.44772 20.9996 9V9.38184L21.5524 9.10547C22.0463 8.8585 22.6471 9.05885 22.8942 9.55273C23.1412 10.0467 22.9409 10.6475 22.4469 10.8945L19.1373 12.5488C19.3718 13.3246 19.4996 14.1487 19.4996 15C19.4996 19.3472 16.2103 23 11.9996 23C7.78915 22.9998 4.49963 19.3471 4.49963 15C4.49963 14.1488 4.62748 13.3246 4.86194 12.5488L1.55237 10.8945C1.05861 10.6475 0.858251 10.0466 1.1051 9.55273C1.35205 9.05884 1.95297 8.85867 2.4469 9.10547L2.99963 9.38184V9C2.99963 8.44782 3.44749 8.00017 3.99963 8C4.55192 8 4.99963 8.44772 4.99963 9V10.3818L5.66858 10.7158C6.46486 9.37698 7.62376 8.29999 9.01135 7.65723C8.38263 6.95061 7.99963 6.02024 7.99963 5C7.99963 2.79097 9.79064 1.00017 11.9996 1ZM11.9996 9C9.0307 9.00018 6.49963 11.6153 6.49963 15C6.49963 18.3847 9.0307 20.9998 11.9996 21C14.9687 21 17.4996 18.3848 17.4996 15C17.4996 11.6152 14.9687 9 11.9996 9ZM11.9996 17C12.5519 17 12.9996 17.4477 12.9996 18C12.9996 18.5523 12.5519 19 11.9996 19C11.4475 18.9998 10.9996 18.5522 10.9996 18C10.9996 17.4478 11.4475 17.0002 11.9996 17ZM11.9996 14.5C12.5519 14.5 12.9996 14.9477 12.9996 15.5C12.9996 16.0523 12.5519 16.5 11.9996 16.5C11.4475 16.4998 10.9996 16.0522 10.9996 15.5C10.9996 14.9478 11.4475 14.5002 11.9996 14.5ZM11.9996 12C12.5519 12 12.9996 12.4477 12.9996 13C12.9996 13.5523 12.5519 14 11.9996 14C11.4475 13.9998 10.9996 13.5522 10.9996 13C10.9996 12.4478 11.4475 12.0002 11.9996 12ZM11.9996 3C10.8952 3.00017 9.99963 3.89553 9.99963 5C9.99963 6.10447 10.8952 6.99983 11.9996 7C13.1042 7 13.9996 6.10457 13.9996 5C13.9996 3.89543 13.1042 3 11.9996 3Z" fill="#9E9E9E"/>
</g>
</svg>
