<svg width="24" height="24" viewBox="0 0 24 24" fill="none" xmlns="http://www.w3.org/2000/svg">
<g id="icons/Others/stand-up">
<path id="Union" d="M15 7C15.3466 7 15.6684 7.17979 15.8506 7.47461C16.0327 7.76939 16.0495 8.13735 15.8945 8.44727L13.1182 14H18.5C19.0523 14 19.5 14.4477 19.5 15V22C19.5 22.5523 19.0523 23 18.5 23C17.9477 23 17.5 22.5523 17.5 22V16H11.5C11.1534 16 10.8316 15.8202 10.6494 15.5254C10.4673 15.2306 10.4505 14.8626 10.6055 14.5527L13.3818 9H9.74902L9.2998 9.59961C8.96847 10.0414 8.34221 10.131 7.90039 9.7998C7.45861 9.46847 7.36896 8.84221 7.7002 8.40039L8.4502 7.40039C8.63905 7.14858 8.93524 7 9.25 7H15ZM8.2002 10.2744C8.72706 10.1089 9.28856 10.4019 9.4541 10.9287C9.61959 11.4556 9.32664 12.0171 8.7998 12.1826C7.17605 12.6926 6 14.2105 6 16C6.00021 18.209 7.79101 20 10 20C11.308 20 12.4697 19.3732 13.2012 18.3994C13.2971 18.2717 13.3855 18.1378 13.4658 17.999C13.7424 17.521 14.354 17.3572 14.832 17.6338C15.3101 17.9104 15.4728 18.522 15.1963 19C15.0758 19.2083 14.9435 19.4092 14.7998 19.6006C13.7068 21.0555 11.9635 22 10 22C6.68645 22 4.00021 19.3136 4 16C4 13.312 5.76691 11.0387 8.2002 10.2744ZM17 1C18.6569 1 20 2.34315 20 4C20 5.65685 18.6569 7 17 7C15.3431 7 14 5.65685 14 4C14 2.34315 15.3431 1 17 1ZM17 3C16.4477 3 16 3.44772 16 4C16 4.55228 16.4477 5 17 5C17.5523 5 18 4.55228 18 4C18 3.44772 17.5523 3 17 3Z" fill="#9E9E9E"/>
</g>
</svg>
