<svg width="24" height="24" viewBox="0 0 24 24" fill="none" xmlns="http://www.w3.org/2000/svg">
<g id="icons/Others/target">
<path id="Union" d="M12 1C13.9044 1 15.6985 1.48517 17.2627 2.33887C17.7474 2.60346 17.9257 3.21055 17.6611 3.69531C17.3965 4.17998 16.7894 4.3583 16.3047 4.09375C15.027 3.39645 13.5612 3 12 3C7.02943 3 3 7.02943 3 12C3 16.9706 7.02943 21 12 21C16.9706 21 21 16.9706 21 12C21 10.4388 20.6035 8.97304 19.9062 7.69531C19.6417 7.21058 19.82 6.60349 20.3047 6.33887C20.7894 6.07431 21.3965 6.25258 21.6611 6.7373C22.5148 8.30154 23 10.0956 23 12C23 18.0751 18.0751 23 12 23C5.92487 23 1 18.0751 1 12C1 5.92487 5.92487 1 12 1ZM12 4.5C12.8632 4.5 13.6944 4.64622 14.4688 4.91602C14.9902 5.09775 15.2657 5.66794 15.084 6.18945C14.9022 6.71094 14.3321 6.98639 13.8105 6.80469C13.2448 6.6076 12.636 6.5 12 6.5C8.96243 6.5 6.5 8.96243 6.5 12C6.5 15.0376 8.96243 17.5 12 17.5C15.0376 17.5 17.5 15.0376 17.5 12C17.5 11.364 17.3924 10.7552 17.1953 10.1895C17.0136 9.66794 17.2891 9.09775 17.8105 8.91602C18.3321 8.73432 18.9022 9.00976 19.084 9.53125C19.3538 10.3056 19.5 11.1369 19.5 12C19.5 16.1421 16.1421 19.5 12 19.5C7.85787 19.5 4.5 16.1421 4.5 12C4.5 7.85787 7.85787 4.5 12 4.5ZM10.2773 8.38867C10.7757 8.15064 11.3733 8.362 11.6113 8.86035C11.849 9.35861 11.6378 9.95538 11.1396 10.1934C10.4636 10.5162 10 11.2052 10 12C10.0002 13.1044 10.8956 14 12 14C12.7948 14 13.4837 13.5362 13.8066 12.8604C14.0447 12.362 14.6413 12.1506 15.1396 12.3887C15.6378 12.6267 15.849 13.2234 15.6113 13.7217C14.9689 15.0666 13.5942 16 12 16C9.79101 16 8.00023 14.2089 8 12C8 10.4059 8.93248 9.03113 10.2773 8.38867ZM21.293 1.29297C21.6835 0.902444 22.3165 0.902444 22.707 1.29297C23.0976 1.68349 23.0976 2.31651 22.707 2.70703L12.707 12.707C12.3165 13.0976 11.6835 13.0976 11.293 12.707C10.9024 12.3165 10.9024 11.6835 11.293 11.293L21.293 1.29297Z" fill="#9E9E9E"/>
</g>
</svg>
