<svg width="24" height="24" viewBox="0 0 24 24" fill="none" xmlns="http://www.w3.org/2000/svg">
<g id="icons/Others/terminal">
<path id="Union" d="M21 3C22.1046 3 23 3.89543 23 5V19C23 20.1046 22.1046 21 21 21H3C1.89543 21 1 20.1046 1 19V5C1 3.89543 1.89543 3 3 3H21ZM3 19H21V5H3V19ZM18 15C18.5523 15 19 15.4477 19 16C19 16.5523 18.5523 17 18 17H11.5C10.9477 17 10.5 16.5523 10.5 16C10.5 15.4477 10.9477 15 11.5 15H18ZM5.24121 8.34961C5.60063 7.93028 6.23106 7.88179 6.65039 8.24121L10.1504 11.2412C10.372 11.4312 10.5 11.7081 10.5 12C10.5 12.2919 10.372 12.5688 10.1504 12.7588L6.65039 15.7588C6.23106 16.1182 5.60063 16.0697 5.24121 15.6504C4.88179 15.2311 4.93028 14.6006 5.34961 14.2412L7.96387 12L5.34961 9.75879C4.93028 9.39937 4.88179 8.76894 5.24121 8.34961Z" fill="#9E9E9E"/>
</g>
</svg>
