<svg width="24" height="24" viewBox="0 0 24 24" fill="none" xmlns="http://www.w3.org/2000/svg">
<g id="icons/Others/thinking-problem">
<path id="Union" d="M11 1.5C15.8797 1.5 19.8486 5.38357 19.9922 10.2285L22.374 14.5146C22.529 14.7938 22.5412 15.1301 22.4072 15.4199C22.2732 15.7095 22.0092 15.9178 21.6963 15.9805L20 16.3193V18.5C20 19.0523 19.5523 19.5 19 19.5H17.5C17.445 19.5 17.3902 19.4953 17.3359 19.4863L15.3447 19.1543L14.9902 21.6416C14.9198 22.1342 14.4976 22.5 14 22.5H6.5C6.02072 22.5 5.60833 22.16 5.51758 21.6895L4.5752 16.7998C2.9842 15.1773 2 12.9534 2 10.5C2 5.52942 6.02942 1.5 11 1.5ZM11 3.5C7.13398 3.5 4 6.63398 4 10.5C4 12.5018 4.83915 14.3059 6.1875 15.583C6.3393 15.7268 6.44285 15.9148 6.48242 16.1201L7.32617 20.5H13.1328L13.5098 17.8584C13.5479 17.592 13.6921 17.3524 13.9092 17.1934C14.1264 17.0344 14.3986 16.9695 14.6641 17.0137L17.582 17.5H18V15.5C18 15.0234 18.3364 14.6131 18.8037 14.5195L19.96 14.2881L18.126 10.9854C18.0435 10.8368 18 10.6699 18 10.5C18 6.63398 14.866 3.5 11 3.5ZM11 15.5C11.5523 15.5 12 15.9477 12 16.5V17C12 17.5523 11.5523 18 11 18C10.4477 18 10 17.5523 10 17V16.5C10 15.9477 10.4477 15.5 11 15.5ZM11 6C12.933 6 14.5 7.56702 14.5 9.5C14.5 11.0853 13.4455 12.4231 12 12.8535V13.5C12 14.0523 11.5523 14.5 11 14.5C10.4477 14.5 10 14.0523 10 13.5V12L10.0049 11.8975C10.0562 11.3933 10.4823 11 11 11C11.8284 11 12.5 10.3284 12.5 9.5C12.5 8.67158 11.8284 8 11 8C10.1716 8 9.5 8.67158 9.5 9.5C9.5 10.0523 9.05228 10.5 8.5 10.5C7.94772 10.5 7.5 10.0523 7.5 9.5C7.5 7.56702 9.06702 6 11 6Z" fill="#9E9E9E"/>
</g>
</svg>
