<svg width="24" height="24" viewBox="0 0 24 24" fill="none" xmlns="http://www.w3.org/2000/svg">
<g id="icons/Others/toolkit">
<path id="Union" d="M14.5 2.5C15.6046 2.5 16.5 3.39544 16.5 4.5V5.5H20.5C21.6046 5.5 22.5 6.39542 22.5 7.5V11.5C22.5 12.4316 21.8622 13.2113 21 13.4336V19C21 20.3807 19.8807 21.5 18.5 21.5H5.5C4.1193 21.5 3 20.3807 3 19V13.4336C2.13781 13.2113 1.5 12.4316 1.5 11.5V7.5C1.5 6.39541 2.39544 5.5 3.5 5.5H7.5V4.5C7.5 3.39544 8.39541 2.5 9.5 2.5H14.5ZM5 19C5 19.2762 5.22385 19.5 5.5 19.5H18.5C18.7762 19.5 19 19.2762 19 19V13.5H17.5V14.5C17.5 15.0523 17.0523 15.5 16.5 15.5C15.9477 15.5 15.5 15.0523 15.5 14.5V13.5H8.5V14.5C8.5 15.0523 8.05228 15.5 7.5 15.5C6.94772 15.5 6.5 15.0523 6.5 14.5V13.5H5V19ZM3.5 11.5H6.5C6.5 10.9477 6.94772 10.5 7.5 10.5C8.05228 10.5 8.5 10.9477 8.5 11.5H15.5C15.5 10.9477 15.9477 10.5 16.5 10.5C17.0523 10.5 17.5 10.9477 17.5 11.5H20.5V7.5H3.5V11.5ZM9.5 5.5H14.5V4.5H9.5V5.5Z" fill="#9E9E9E"/>
</g>
</svg>
