<svg width="24" height="24" viewBox="0 0 24 24" fill="none" xmlns="http://www.w3.org/2000/svg">
<g id="icons/Others/trace">
<path id="Union" d="M12 2C12.5523 2 13 2.44772 13 3C13 3.55228 12.5523 4 12 4C7.58173 4 4 7.58173 4 12C4 16.4183 7.58173 20 12 20C16.4183 20 20 16.4183 20 12C20 11.4477 20.4477 11 21 11C21.5523 11 22 11.4477 22 12C22 17.5228 17.5228 22 12 22C6.47717 22 2 17.5228 2 12C2 6.47717 6.47717 2 12 2ZM12 6.5C12.5523 6.5 13 6.94772 13 7.5C13 8.05228 12.5523 8.5 12 8.5C10.067 8.5 8.5 10.067 8.5 12C8.5 13.933 10.067 15.5 12 15.5C13.933 15.5 15.5 13.933 15.5 12C15.5 11.4477 15.9477 11 16.5 11C17.0523 11 17.5 11.4477 17.5 12C17.5 15.0376 15.0376 17.5 12 17.5C8.96242 17.5 6.5 15.0376 6.5 12C6.5 8.96242 8.96242 6.5 12 6.5ZM17.1426 2.29395C17.4282 2.00733 17.8584 1.92177 18.2324 2.07617C18.6066 2.2307 18.8506 2.59515 18.8506 3V5.15039H20.999C21.4031 5.15039 21.7678 5.39349 21.9229 5.7666C22.0778 6.13967 21.993 6.56916 21.708 6.85547L19.0205 9.55566C18.8329 9.74408 18.5774 9.84961 18.3115 9.84961H15.5625L12.707 12.707C12.3167 13.0977 11.6837 13.0983 11.293 12.708C10.9024 12.3177 10.9027 11.6846 11.293 11.2939L14.1494 8.43359V5.71289C14.1495 5.44866 14.2541 5.19512 14.4404 5.00781L17.1426 2.29395ZM16.1494 6.12598V7.84961H17.8975L18.5928 7.15039H17.8506C17.2986 7.15013 16.8507 6.70238 16.8506 6.15039V5.42188L16.1494 6.12598Z" fill="#9E9E9E"/>
</g>
</svg>
