<svg width="24" height="24" viewBox="0 0 24 24" fill="none" xmlns="http://www.w3.org/2000/svg">
<g id="icons/Others/turn-off-bluetooth">
<path id="Union" d="M10.0243 13.8633C10.2058 13.8033 10.392 13.7992 10.5653 13.8398C10.5669 13.8402 10.5686 13.8404 10.5702 13.8408C10.6527 13.8606 10.732 13.891 10.8065 13.9307C10.8078 13.9313 10.8091 13.9319 10.8104 13.9326L16.7225 17.1064C17.0306 17.2719 17.2297 17.5863 17.2479 17.9355C17.266 18.2848 17.1007 18.618 16.8114 18.8145L10.8993 22.8271C10.5929 23.0351 10.1962 23.0572 9.86902 22.8838C9.54197 22.7104 9.33777 22.3702 9.33777 22V16.1953L4.03601 17.9482C3.51172 18.1213 2.9466 17.8368 2.77332 17.3125C2.60018 16.7882 2.88475 16.2221 3.40906 16.0488L10.0243 13.8633ZM11.3378 20.1123L14.3212 18.0869L11.3378 16.4854V20.1123ZM1.13269 5.75195C1.40791 5.27349 2.01928 5.10803 2.49792 5.38281L22.4979 16.8828C22.9765 17.158 23.1419 17.7694 22.8671 18.248C22.5919 18.7267 21.9805 18.8921 21.5018 18.6172L1.50183 7.11719C1.02333 6.84193 0.857779 6.23061 1.13269 5.75195ZM9.89246 1.10352C10.2329 0.935153 10.6401 0.973979 10.9423 1.2041L18.2343 6.75977C18.4959 6.95912 18.6425 7.27496 18.6268 7.60352C18.6109 7.93227 18.434 8.23299 18.1542 8.40625L14.5643 10.6279C14.0948 10.9184 13.479 10.7732 13.1884 10.3037C12.8981 9.83432 13.0425 9.21845 13.5116 8.92773L15.8661 7.46973L11.3358 4.01855V5.88867C11.3358 6.44096 10.8881 6.88867 10.3358 6.88867C9.78357 6.88863 9.33582 6.44093 9.33582 5.88867V2L9.34558 1.85938C9.39152 1.53599 9.59443 1.25113 9.89246 1.10352Z" fill="#9E9E9E"/>
</g>
</svg>
