<svg width="24" height="24" viewBox="0 0 24 24" fill="none" xmlns="http://www.w3.org/2000/svg">
<g id="icons/Others/vip-one">
<path id="Union" d="M16.9595 2.5C17.5278 2.50013 18.0845 2.73128 18.478 3.1582L22.4839 7.50488C23.1756 8.25559 23.1672 9.38543 22.479 10.1289L22.481 10.1309L13.1255 20.7363C12.5284 21.4132 11.4727 21.4131 10.8755 20.7363L1.52002 10.1309L1.52197 10.1289C0.833587 9.38537 0.825171 8.25566 1.51709 7.50488L5.52295 3.1582C5.91656 2.73131 6.47314 2.50001 7.0415 2.5H16.9595ZM7.00537 4.50684C6.99854 4.50977 6.99471 4.51278 6.99365 4.51367L3.02686 8.81641L12.0005 18.9873L20.9731 8.81641L17.0073 4.51367C17.0073 4.5137 17.0037 4.51035 16.9956 4.50684C16.9866 4.503 16.9738 4.50006 16.9595 4.5H7.0415C7.02714 4.5 7.01447 4.50304 7.00537 4.50684ZM15.2534 9.33594C15.6204 8.92336 16.2518 8.88608 16.6646 9.25293C17.077 9.61981 17.1142 10.2514 16.7476 10.6641L12.7476 15.1641C12.5579 15.3774 12.286 15.4999 12.0005 15.5C11.7149 15.5 11.4432 15.3774 11.2534 15.1641L7.25342 10.6641C6.8865 10.2513 6.92364 9.61985 7.33643 9.25293C7.74921 8.88624 8.38071 8.92324 8.74756 9.33594L12.0005 12.9951L15.2534 9.33594Z" fill="#9E9E9E"/>
</g>
</svg>
