<svg width="24" height="24" viewBox="0 0 24 24" fill="none" xmlns="http://www.w3.org/2000/svg">
<g id="icons/Others/voice-message">
<path id="Union" d="M12 1C18.0751 1 23 5.92487 23 12C23 18.0751 18.0751 23 12 23C5.92487 23 1 18.0751 1 12C1 5.92487 5.92487 1 12 1ZM12 3C7.02943 3 3 7.02943 3 12C3 16.9706 7.02943 21 12 21C16.9706 21 21 16.9706 21 12C21 7.02943 16.9706 3 12 3ZM12.7422 6.29297C13.1327 5.90244 13.7657 5.90244 14.1562 6.29297C15.6029 7.73959 16.499 9.74133 16.499 11.9502C16.4989 14.1589 15.6027 16.1599 14.1562 17.6064C13.7657 17.997 13.1327 17.997 12.7422 17.6064C12.3517 17.2159 12.3517 16.5829 12.7422 16.1924C13.8289 15.1056 14.4989 13.6071 14.499 11.9502C14.499 10.2931 13.8291 8.79391 12.7422 7.70703C12.3517 7.31651 12.3517 6.68349 12.7422 6.29297ZM10.2676 8.76758C10.6581 8.37709 11.2911 8.37718 11.6816 8.76758C12.4948 9.58078 12.9999 10.707 13 11.9492C13 13.1916 12.4949 14.3186 11.6816 15.1318C11.2912 15.5219 10.658 15.522 10.2676 15.1318C9.87723 14.7413 9.8772 14.1073 10.2676 13.7168C10.7209 13.2634 11 12.6397 11 11.9492C10.9999 11.2587 10.721 10.6351 10.2676 10.1816C9.87722 9.79115 9.87722 9.15807 10.2676 8.76758ZM8.5 10.9492C9.0523 10.9492 9.5 11.3969 9.5 11.9492C9.5 12.5015 9.0523 12.9492 8.5 12.9492C7.9477 12.9492 7.5 12.5015 7.5 11.9492C7.5 11.3969 7.9477 10.9492 8.5 10.9492Z" fill="#9E9E9E"/>
</g>
</svg>
