<svg width="24" height="24" viewBox="0 0 24 24" fill="none" xmlns="http://www.w3.org/2000/svg">
<g id="icons/Others/voice-input">
<path id="Union" d="M17.5166 3.5C17.9613 3.50738 18.3478 3.80823 18.4648 4.2373L22.9648 20.7373C23.1099 21.27 22.7954 21.8196 22.2627 21.9648C21.73 22.1099 21.1804 21.7954 21.0352 21.2627L19.5996 16H15.0078L14.4561 17.7939C14.4538 17.8013 14.4507 17.8091 14.4482 17.8164C13.8272 19.679 11.7902 22 8 22C4.134 22 1 18.866 1 15C1.00007 14.4478 1.44776 14 2 14C2.55224 14 2.99993 14.4478 3 15C3 17.7614 5.23858 20 8 20C10.8273 20 12.1625 18.3324 12.5469 17.1953L13.3135 14.7061L16.5439 4.20605C16.6748 3.78083 17.0717 3.49283 17.5166 3.5ZM8 3.5C10.2091 3.5 11.9999 5.29093 12 7.5V15C12 17.2091 10.2091 19 8 19C5.79087 19 4 17.2091 4 15V7.5C4.00007 5.29093 5.79091 3.5 8 3.5ZM8 5.5C6.89548 5.5 6.00007 6.39549 6 7.5V15C6 16.1046 6.89543 17 8 17C9.10457 17 10 16.1046 10 15V7.5C9.99993 6.39549 9.10452 5.5 8 5.5ZM15.623 14H19.0537L17.4414 8.08789L15.623 14Z" fill="#9E9E9E"/>
</g>
</svg>
