<svg width="24" height="24" viewBox="0 0 24 24" fill="none" xmlns="http://www.w3.org/2000/svg">
<g id="icons/Others/weixin-scan">
<path id="Union" d="M21.3035 10.5195C21.6216 10.4559 21.9515 10.5505 22.1873 10.7734C22.423 10.9965 22.5359 11.3204 22.49 11.6416L21.9998 15.0732V20C21.9998 21.6568 20.6566 23 18.9998 23H15.9412C14.65 22.9998 13.5038 22.1731 13.0955 20.9482L12.2791 18.5H6.99976C6.59097 18.4999 6.22287 18.2507 6.07104 17.8711L5.07104 15.3711C4.94805 15.0632 4.98582 14.7141 5.17163 14.4395C5.35761 14.1648 5.66804 14.0001 5.99976 14H17.6531L17.9001 12.5166L17.9314 12.3652C18.1159 11.6179 18.7164 11.0367 19.4802 10.8838L21.3035 10.5195ZM19.8728 12.8457L19.4861 15.1641C19.4057 15.6462 18.9886 16 18.4998 16H7.47729L7.67651 16.5H12.9998C13.4301 16.5 13.8118 16.7755 13.948 17.1836L14.9929 20.3164C15.1291 20.7245 15.511 20.9998 15.9412 21H18.9998C19.552 21 19.9998 20.5523 19.9998 20V15L20.0095 14.8584L20.3093 12.7578L19.8728 12.8457ZM8.05835 1C9.34959 1.00004 10.4957 1.82685 10.9041 3.05176L11.7205 5.5H16.9998C17.4086 5.5 17.7766 5.7493 17.9285 6.12891L18.9285 8.62891C19.0515 8.93688 19.0138 9.28589 18.8279 9.56055C18.6418 9.83524 18.3315 10 17.9998 10H6.34644L6.09937 11.4834C5.96277 12.3029 5.33405 12.9532 4.51929 13.1162L2.69604 13.4805C2.37789 13.544 2.04795 13.4495 1.81226 13.2266C1.57667 13.0036 1.46366 12.6795 1.50952 12.3584L1.99976 8.92676V4C1.99976 2.34324 3.34303 1.00016 4.99976 1H8.05835ZM4.99976 3C4.4476 3.00016 3.99976 3.44781 3.99976 4V9C3.99976 9.04732 3.99668 9.09476 3.98999 9.1416L3.68921 11.2412L4.12671 11.1543V11.1553L4.51343 8.83594L4.53198 8.74707C4.64567 8.31083 5.04146 8.00013 5.49976 8H16.5222L16.323 7.5H10.9998C10.5695 7.49988 10.1877 7.22449 10.0515 6.81641L9.00659 3.68359C8.87035 3.27544 8.48858 3.00004 8.05835 3H4.99976Z" fill="#9E9E9E"/>
</g>
</svg>
