<svg width="24" height="24" viewBox="0 0 24 24" fill="none" xmlns="http://www.w3.org/2000/svg">
<g id="icons/Others/weixin-mini-app">
<path id="Union" d="M12 1C18.0751 1 23 5.92487 23 12C23 18.0751 18.0751 23 12 23C5.92487 23 1 18.0751 1 12C1 5.92487 5.92487 1 12 1ZM12 3C7.02943 3 3 7.02943 3 12C3 16.9706 7.02943 21 12 21C16.9706 21 21 16.9706 21 12C21 7.02943 16.9706 3 12 3ZM13.1602 6.2666C13.7995 6.00178 14.5036 5.93234 15.1826 6.06738C15.8615 6.20241 16.4851 6.53587 16.9746 7.02539C17.4641 7.51487 17.7976 8.1384 17.9326 8.81738C18.0677 9.49635 17.9982 10.2005 17.7334 10.8398C17.5016 11.3993 17.1293 11.8879 16.6543 12.2588L16.4443 12.4102C15.8688 12.7947 15.1922 13 14.5 13C13.9477 13 13.5 12.5523 13.5 12C13.5 11.4477 13.9477 11 14.5 11C14.7966 11 15.0864 10.9118 15.333 10.7471C15.5797 10.5822 15.7722 10.3482 15.8857 10.0742C15.9993 9.80008 16.0286 9.4979 15.9707 9.20703C15.9128 8.91619 15.7702 8.64908 15.5605 8.43945C15.3509 8.22978 15.0838 8.08721 14.793 8.0293C14.502 7.97141 14.1999 8.00072 13.9258 8.11426C13.6518 8.22777 13.4177 8.42035 13.2529 8.66699C13.0882 8.91355 13 9.20333 13 9.5V14.5C13 15.1056 12.8427 15.6991 12.5459 16.2236L12.4102 16.4443C12.0257 17.0196 11.4793 17.4685 10.8398 17.7334C10.2005 17.9982 9.49635 18.0677 8.81738 17.9326C8.1384 17.7976 7.51487 17.4641 7.02539 16.9746C6.53587 16.4851 6.20241 15.8615 6.06738 15.1826C5.93234 14.5036 6.00178 13.7995 6.2666 13.1602C6.53153 12.5208 6.98021 11.9743 7.55566 11.5898C8.13124 11.2052 8.80788 11 9.5 11C10.0523 11 10.5 11.4477 10.5 12C10.5 12.5523 10.0523 13 9.5 13C9.20333 13 8.91355 13.0882 8.66699 13.2529C8.42035 13.4177 8.22777 13.6518 8.11426 13.9258C8.00072 14.1999 7.97141 14.502 8.0293 14.793C8.08721 15.0838 8.22978 15.3509 8.43945 15.5605C8.64908 15.7702 8.91619 15.9128 9.20703 15.9707C9.4979 16.0286 9.80008 15.9993 10.0742 15.8857L10.1748 15.8398C10.4056 15.7236 10.6027 15.549 10.7471 15.333C10.9118 15.0864 11 14.7966 11 14.5V9.5C11 8.80788 11.2052 8.13124 11.5898 7.55566C11.9743 6.98021 12.5208 6.53153 13.1602 6.2666Z" fill="#9E9E9E"/>
</g>
</svg>
