<svg width="24" height="24" viewBox="0 0 24 24" fill="none" xmlns="http://www.w3.org/2000/svg">
<g id="icons/Others/weixin-top-stories">
<path id="Union" d="M11.9999 1C12.2727 1 12.5339 1.11148 12.7225 1.30859L16.121 4.8623L20.8973 6.02832C21.1625 6.09306 21.3898 6.26362 21.5262 6.5C21.6627 6.73639 21.6965 7.01826 21.62 7.28027L20.2411 12L21.62 16.7197C21.6965 16.9817 21.6627 17.2636 21.5262 17.5C21.3898 17.7364 21.1625 17.9069 20.8973 17.9717L16.121 19.1367L12.7225 22.6914C12.5339 22.8885 12.2727 23 11.9999 23C11.727 23 11.4658 22.8886 11.2772 22.6914L7.87878 19.1377L3.10242 17.9717C2.8373 17.9069 2.60997 17.7364 2.47351 17.5C2.3371 17.2637 2.30328 16.9817 2.37976 16.7197L3.75769 12L2.37976 7.28027C2.30328 7.01832 2.3371 6.73635 2.47351 6.5C2.60997 6.26364 2.8373 6.09309 3.10242 6.02832L7.87878 4.86133L11.2772 1.30859L11.3514 1.23926C11.5315 1.08574 11.7611 1.00004 11.9999 1ZM9.96179 18.4209L11.9999 20.5527L14.037 18.4219L11.9989 17.3779L9.96179 18.4209ZM4.59265 16.2754L7.45593 16.9746L7.3407 14.6895L5.41882 13.4463L4.59265 16.2754ZM16.6581 14.6885L16.5428 16.9746L19.4061 16.2754L18.58 13.4453L16.6581 14.6885ZM12.455 8.63379C12.1689 8.78005 11.8298 8.78017 11.5438 8.63379L9.43152 7.55176L9.31238 9.92188C9.29618 10.243 9.1263 10.5364 8.85632 10.7109L6.86316 11.999L8.85632 13.2881L8.953 13.3584C9.16665 13.5359 9.29819 13.7961 9.31238 14.0771L9.43152 16.4463L11.5438 15.3652L11.6532 15.3174C11.9136 15.2212 12.2046 15.2372 12.455 15.3652L14.5663 16.4463L14.6864 14.0771C14.7026 13.7562 14.8726 13.4627 15.1425 13.2881L17.1346 11.999L15.1425 10.7109C14.8726 10.5364 14.7026 10.2429 14.6864 9.92188L14.5663 7.55176L12.455 8.63379ZM16.6581 9.30957L18.58 10.5527L19.4061 7.72363L16.5428 7.02441L16.6581 9.30957ZM4.59265 7.72363L5.41785 10.5518L7.3407 9.30859L7.45593 7.02441L4.59265 7.72363ZM9.96179 5.57715L11.9989 6.62012L14.036 5.57617L11.9999 3.44629L9.96179 5.57715Z" fill="#9E9E9E"/>
</g>
</svg>
