<svg width="24" height="24" viewBox="0 0 24 24" fill="none" xmlns="http://www.w3.org/2000/svg">
<g id="icons/Others/weixin-search">
<path id="Union" d="M6.05139 11.6846C6.22613 11.1609 6.79224 10.8782 7.31604 11.0527C7.8398 11.2275 8.12249 11.7935 7.94788 12.3174L4.94788 21.3174C4.7729 21.8408 4.20689 22.1238 3.68323 21.9492C3.15976 21.7745 2.87717 21.2082 3.05139 20.6846L6.05139 11.6846ZM9.81311 11.2744C10.2146 10.8953 10.847 10.9131 11.2262 11.3145L19.7262 20.3145C20.1053 20.7159 20.0875 21.3483 19.6862 21.7275C19.2847 22.1063 18.6522 22.0886 18.2731 21.6875L9.77307 12.6875C9.39405 12.2862 9.41218 11.6537 9.81311 11.2744ZM2.02502 7.77637C2.14917 7.2384 2.68627 6.90251 3.22424 7.02637L6.47424 7.77637C7.01229 7.90053 7.34825 8.43754 7.22424 8.97559C7.09984 9.51332 6.56289 9.84955 6.02502 9.72559L2.77502 8.97559C2.23729 8.85136 1.90139 8.31416 2.02502 7.77637ZM20.9225 7.00391C21.473 6.96156 21.9541 7.37339 21.9967 7.92383C22.0388 8.47415 21.6271 8.95547 21.0768 8.99805L11.3268 9.74805C10.7766 9.79016 10.2954 9.3782 10.2526 8.82812C10.2102 8.27775 10.6222 7.79669 11.1725 7.75391L20.9225 7.00391ZM9.03772 2.72656C9.18939 2.19572 9.74319 1.88773 10.274 2.03906C10.805 2.19075 11.113 2.74447 10.9615 3.27539L9.96155 6.77539C9.80964 7.30596 9.25596 7.6143 8.72522 7.46289C8.19462 7.31117 7.88664 6.75725 8.03772 6.22656L9.03772 2.72656Z" fill="#9E9E9E"/>
</g>
</svg>
