<svg width="24" height="24" viewBox="0 0 24 24" fill="none" xmlns="http://www.w3.org/2000/svg">
<g id="icons/Others/weixin-games">
<path id="Union" d="M12.0205 2.00098C12.0381 2.00133 12.0557 2.00165 12.0732 2.00293C12.0909 2.00421 12.1085 2.00562 12.126 2.00781C12.1378 2.0093 12.1494 2.01177 12.1611 2.01367C12.1802 2.01676 12.1991 2.02026 12.2178 2.02441C12.2269 2.02645 12.236 2.02895 12.2451 2.03125C12.3141 2.04866 12.3799 2.07357 12.4424 2.10449C12.4746 2.12042 12.5064 2.13761 12.5371 2.15723C12.5449 2.16219 12.5529 2.16671 12.5605 2.17188C12.6122 2.2069 12.6613 2.24722 12.707 2.29297L21.707 11.293C21.7548 11.3408 21.7976 11.3935 21.835 11.4502C21.8597 11.4877 21.8812 11.5266 21.9004 11.5664C21.9222 11.6116 21.9412 11.6584 21.9561 11.707C21.9623 11.7273 21.9668 11.748 21.9717 11.7686C21.9893 11.8429 22 11.9202 22 12C22 12.0563 21.9933 12.1112 21.9844 12.165C21.9772 12.2078 21.9688 12.2503 21.9561 12.292C21.9412 12.3407 21.9222 12.3874 21.9004 12.4326C21.8936 12.4468 21.8864 12.4607 21.8789 12.4746C21.851 12.5262 21.8184 12.5745 21.7822 12.6201C21.7586 12.6498 21.7345 12.6796 21.707 12.707L12.707 21.707C12.6592 21.7548 12.6065 21.7976 12.5498 21.835C12.5121 21.8599 12.4727 21.8811 12.4326 21.9004C12.3874 21.9222 12.3407 21.9412 12.292 21.9561C12.2717 21.9622 12.251 21.9668 12.2305 21.9717C12.2191 21.9744 12.2078 21.9772 12.1963 21.9795C12.1859 21.9816 12.1754 21.9826 12.165 21.9844C12.1112 21.9933 12.0563 22 12 22C11.9433 22 11.8881 21.9934 11.834 21.9844C11.8236 21.9826 11.8131 21.9816 11.8027 21.9795C11.7912 21.9772 11.7799 21.9744 11.7686 21.9717C11.748 21.9668 11.7273 21.9623 11.707 21.9561C11.6584 21.9412 11.6116 21.9222 11.5664 21.9004C11.5266 21.8812 11.4877 21.8597 11.4502 21.835C11.3935 21.7976 11.3408 21.7548 11.293 21.707L2.29297 12.707C2.26536 12.6794 2.2405 12.65 2.2168 12.6201C2.18065 12.5745 2.14798 12.5261 2.12012 12.4746C2.11269 12.4609 2.10634 12.4466 2.09961 12.4326C2.0778 12.3873 2.05783 12.3408 2.04297 12.292C2.0303 12.2503 2.02176 12.2077 2.01465 12.165C2.00571 12.1113 2 12.0563 2 12C2 11.9203 2.00973 11.8429 2.02734 11.7686C2.03221 11.748 2.03678 11.7273 2.04297 11.707C2.05787 11.6583 2.07777 11.6117 2.09961 11.5664C2.11877 11.5266 2.1403 11.4877 2.16504 11.4502C2.20242 11.3935 2.24516 11.3408 2.29297 11.293L11.293 2.29297C11.3548 2.23117 11.4248 2.17778 11.501 2.13379C11.5154 2.12546 11.5302 2.1179 11.5449 2.11035C11.6073 2.0784 11.6731 2.05257 11.7422 2.03418C11.7588 2.02976 11.7753 2.02503 11.792 2.02148C11.803 2.01916 11.8141 2.01758 11.8252 2.01562C11.8427 2.01252 11.8603 2.00998 11.8779 2.00781C11.8957 2.00565 11.9136 2.00415 11.9316 2.00293C11.9476 2.00184 11.9635 2.00131 11.9795 2.00098C11.9863 2.00084 11.9931 2 12 2C12.0069 2 12.0137 2.00084 12.0205 2.00098ZM5.41406 13L11 18.5859V15.3535C9.87137 15.0175 8.98148 14.1287 8.64551 13H5.41406ZM15.3545 13C15.0185 14.1287 14.1286 15.0175 13 15.3535V18.5859L18.5859 13H15.3545ZM12 10.5C11.1716 10.5 10.5 11.1716 10.5 12C10.5 12.8284 11.1716 13.5 12 13.5C12.8284 13.5 13.5 12.8284 13.5 12C13.5 11.1716 12.8284 10.5 12 10.5ZM13 8.64551C14.1288 8.9815 15.0185 9.87124 15.3545 11H18.5859L13 5.41406V8.64551ZM5.41406 11H8.64551C8.9815 9.87124 9.87124 8.9815 11 8.64551V5.41406L5.41406 11Z" fill="#9E9E9E"/>
</g>
</svg>
