<svg width="24" height="24" viewBox="0 0 24 24" fill="none" xmlns="http://www.w3.org/2000/svg">
<g id="icons/Others/weixin-favorites">
<path id="Union" d="M11.6924 2.04883C11.9257 1.97337 12.18 1.98537 12.4062 2.08594L21.4062 6.08594C21.7674 6.24645 22 6.60482 22 7V17C22 17.3952 21.7674 17.7536 21.4062 17.9141L12.4062 21.9141C12.1477 22.029 11.8523 22.029 11.5938 21.9141L2.59375 17.9141C2.23265 17.7536 2.00003 17.3952 2 17V7C2 6.60482 2.23264 6.24645 2.59375 6.08594L11.5938 2.08594L11.6924 2.04883ZM4 16.3496L11 19.4609V11.6494L4 8.53906V16.3496ZM13 11.6494V19.4609L20 16.3496V8.53906L13 11.6494ZM5.46289 7L12 9.90527L18.5371 7L12 4.09375L5.46289 7Z" fill="#9E9E9E"/>
</g>
</svg>
