<svg width="24" height="24" viewBox="0 0 24 24" fill="none" xmlns="http://www.w3.org/2000/svg">
<g id="icons/Others/weixin-shake">
<path id="Union" d="M13.8693 2.22461C14.262 1.90427 14.841 1.92686 15.2072 2.29297L21.7072 8.79297C22.0976 9.1835 22.0977 9.81653 21.7072 10.207L10.2072 21.707C9.81665 22.0975 9.18362 22.0975 8.79309 21.707L2.29309 15.207C1.90257 14.8165 1.90257 14.1835 2.29309 13.793L13.7931 2.29297L13.8693 2.22461ZM20.2931 14.293C20.6836 13.9024 21.3166 13.9024 21.7072 14.293C22.0976 14.6835 22.0977 15.3165 21.7072 15.707L15.7072 21.707C15.3167 22.0975 14.6836 22.0975 14.2931 21.707C13.9026 21.3165 13.9026 20.6835 14.2931 20.293L20.2931 14.293ZM4.41418 14.5L9.50012 19.5859L19.5861 9.5L14.5001 4.41406L4.41418 14.5ZM7.29309 13.793C7.68362 13.4024 8.31663 13.4024 8.70715 13.793L10.2072 15.293C10.5976 15.6835 10.5977 16.3165 10.2072 16.707C9.81665 17.0975 9.18362 17.0975 8.79309 16.707L7.29309 15.207C6.90257 14.8165 6.90257 14.1835 7.29309 13.793ZM8.29309 2.29297C8.68362 1.90244 9.31663 1.90244 9.70715 2.29297C10.0976 2.6835 10.0977 3.31653 9.70715 3.70703L3.70715 9.70703C3.31665 10.0975 2.68362 10.0975 2.29309 9.70703C1.90257 9.31651 1.90257 8.68349 2.29309 8.29297L8.29309 2.29297Z" fill="#9E9E9E"/>
</g>
</svg>
