<svg width="24" height="24" viewBox="0 0 24 24" fill="none" xmlns="http://www.w3.org/2000/svg">
<g id="icons/Others/weixin-cards-offers">
<path id="Union" d="M18.876 3.00781C19.1603 2.97234 19.4462 3.06047 19.6611 3.25C19.8761 3.43982 20 3.71319 20 4V6.88184L21.1104 7.00586C21.6168 7.06214 22 7.49045 22 8V20C22 20.2844 21.8789 20.5554 21.667 20.7451C21.4551 20.9348 21.1723 21.0255 20.8896 20.9941L2.88965 18.9941C2.38325 18.9379 2.00005 18.5095 2 18V6C2 5.99155 2.00076 5.98303 2.00098 5.97461C2.00156 5.95034 2.00256 5.92624 2.00488 5.90234C2.00594 5.89156 2.00739 5.88084 2.00879 5.87012C2.01191 5.84612 2.01569 5.82234 2.02051 5.79883C2.02205 5.79132 2.02368 5.78383 2.02539 5.77637C2.03884 5.71774 2.05765 5.66098 2.08105 5.60645C2.08312 5.60161 2.08477 5.5966 2.08691 5.5918L2.10742 5.54785C2.11369 5.5355 2.12116 5.52379 2.12793 5.51172C2.13262 5.50334 2.13667 5.49458 2.1416 5.48633C2.1514 5.46998 2.16215 5.45423 2.17285 5.43848C2.18294 5.42362 2.1932 5.40886 2.2041 5.39453C2.21124 5.38514 2.21909 5.37632 2.22656 5.36719C2.25906 5.32745 2.29424 5.28959 2.33301 5.25488C2.33436 5.25367 2.33556 5.25218 2.33691 5.25098C2.41221 5.1842 2.49781 5.12787 2.5918 5.08594C2.60261 5.0811 2.61403 5.07769 2.625 5.07324C2.64715 5.0643 2.66941 5.05525 2.69238 5.04785C2.69876 5.04579 2.7055 5.0449 2.71191 5.04297C2.73507 5.03603 2.75832 5.02874 2.78223 5.02344C2.80446 5.01847 2.82704 5.01516 2.84961 5.01172C2.85837 5.01039 2.86713 5.00892 2.87598 5.00781L18.876 3.00781ZM4 17.1045L20 18.8818V8.89453L18.9033 8.77246C18.8984 8.77199 18.8936 8.77105 18.8887 8.77051L4 7.11719V17.1045ZM11.5273 5.94043L18 6.66016V5.13184L11.5273 5.94043Z" fill="#9E9E9E"/>
</g>
</svg>
