<svg width="24" height="24" viewBox="0 0 24 24" fill="none" xmlns="http://www.w3.org/2000/svg">
<g id="icons/Others/wifi">
<path id="Union" d="M12.0003 17.5C12.6905 17.5002 13.2503 18.0598 13.2503 18.75C13.2501 19.4401 12.6904 19.9998 12.0003 20C11.3101 20 10.7505 19.4402 10.7503 18.75C10.7503 18.0597 11.31 17.5 12.0003 17.5ZM7.29327 15.4502C9.89295 12.8505 14.1077 12.8505 16.7073 15.4502C17.0973 15.8408 17.0977 16.4739 16.7073 16.8643C16.317 17.2544 15.6838 17.2542 15.2933 16.8643C13.4746 15.0456 10.526 15.0456 8.70734 16.8643C8.31697 17.2544 7.68377 17.2542 7.29327 16.8643C6.90282 16.4738 6.90296 15.8407 7.29327 15.4502ZM4.29327 12.1924C8.54979 7.93592 15.4508 7.93592 19.7073 12.1924C20.0975 12.5829 20.0977 13.216 19.7073 13.6064C19.3169 13.9968 18.6838 13.9966 18.2933 13.6064C14.8178 10.131 9.1828 10.131 5.70734 13.6064C5.31692 13.9968 4.68381 13.9966 4.29327 13.6064C3.9028 13.2159 3.9028 12.5829 4.29327 12.1924ZM2.28351 7.91016C8.27993 3.09745 17.013 3.3791 22.6878 8.75684C23.0883 9.13677 23.1057 9.77014 22.7259 10.1709C22.3461 10.5713 21.7136 10.5875 21.3128 10.208C16.3697 5.52359 8.75768 5.27758 3.53448 9.46973C3.24489 9.7022 2.96213 9.94803 2.68781 10.208C2.28716 10.5877 1.65468 10.5711 1.27472 10.1709C0.894828 9.77004 0.91196 9.13674 1.31281 8.75684C1.62707 8.45902 1.95116 8.17692 2.28351 7.91016Z" fill="#9E9E9E"/>
</g>
</svg>
