<svg width="24" height="24" viewBox="0 0 24 24" fill="none" xmlns="http://www.w3.org/2000/svg">
<g id="icons/Datas/database-point">
<path id="Union" d="M12 1C14.1484 1 16.135 1.28858 17.6191 1.7832C18.3558 2.02877 19.0246 2.34352 19.5293 2.74121C20.0228 3.13013 20.5 3.71709 20.5 4.5V12.5C20.5 13.2829 20.0228 13.8699 19.5293 14.2588C19.0246 14.6565 18.3558 14.9712 17.6191 15.2168C16.3684 15.6336 14.7606 15.9008 13 15.9756V17.1738C13.8516 17.4752 14.5248 18.1484 14.8262 19H21C21.5523 19 22 19.4477 22 20C22 20.5523 21.5523 21 21 21H14.8262C14.4141 22.1647 13.3058 23 12 23C10.6942 23 9.58595 22.1647 9.17383 21H3C2.44772 21 2 20.5523 2 20C2 19.4477 2.44772 19 3 19H9.17383C9.47517 18.1484 10.1484 17.4752 11 17.1738V15.9756C9.23938 15.9008 7.6316 15.6336 6.38086 15.2168C5.64416 14.9712 4.97543 14.6565 4.4707 14.2588C3.97721 13.8699 3.5 13.2829 3.5 12.5V4.5C3.5 3.71709 3.97721 3.13013 4.4707 2.74121C4.97543 2.34352 5.64416 2.02877 6.38086 1.7832C7.86496 1.28858 9.85157 1 12 1ZM12 19C11.4477 19 11 19.4477 11 20C11 20.5523 11.4477 21 12 21C12.5523 21 13 20.5523 13 20C13 19.4477 12.5523 19 12 19ZM18.5 10.8691C18.2226 10.9971 17.9273 11.1141 17.6191 11.2168C16.135 11.7114 14.1484 12 12 12C9.85157 12 7.86496 11.7114 6.38086 11.2168C6.07267 11.1141 5.77737 10.9971 5.5 10.8691V12.4707C5.51327 12.497 5.56026 12.571 5.70801 12.6875C5.96226 12.8879 6.39238 13.1126 7.0127 13.3193C8.243 13.7294 10.0065 14 12 14C13.9935 14 15.757 13.7294 16.9873 13.3193C17.6076 13.1126 18.0377 12.8879 18.292 12.6875C18.4397 12.571 18.4867 12.497 18.5 12.4707V10.8691ZM18.5 6.86914C18.2226 6.99709 17.9273 7.11407 17.6191 7.2168C16.135 7.71142 14.1484 8 12 8C9.85157 8 7.86496 7.71142 6.38086 7.2168C6.07267 7.11407 5.77737 6.99709 5.5 6.86914V8.46973C5.51268 8.49537 5.55875 8.56982 5.70801 8.6875C5.96226 8.88788 6.39238 9.11255 7.0127 9.31934C8.243 9.72944 10.0065 10 12 10C13.9935 10 15.757 9.72944 16.9873 9.31934C17.6076 9.11255 18.0377 8.88788 18.292 8.6875C18.4428 8.56857 18.4879 8.49363 18.5 8.46875V6.86914Z" fill="#9E9E9E"/>
</g>
</svg>
