<svg width="24" height="24" viewBox="0 0 24 24" fill="none" xmlns="http://www.w3.org/2000/svg">
<g id="icons/Datas/data-switching">
<path id="Union" d="M17.5 11C18.849 11 20.1183 11.241 21.0879 11.6719C21.5714 11.8868 22.0252 12.1688 22.3711 12.5322C22.6995 12.8774 22.9608 13.336 22.9932 13.8867C22.9974 13.9239 23 13.9617 23 14V20C23 20.6014 22.7218 21.0992 22.3711 21.4678C22.0252 21.8312 21.5714 22.1132 21.0879 22.3281C20.1183 22.759 18.849 23 17.5 23C16.151 23 14.8817 22.759 13.9121 22.3281C13.4286 22.1132 12.9748 21.8312 12.6289 21.4678C12.2782 21.0992 12 20.6014 12 20V14C12 13.9617 12.0017 13.9239 12.0059 13.8867C12.0382 13.336 12.3005 12.8774 12.6289 12.5322C12.9748 12.1688 13.4286 11.8868 13.9121 11.6719C14.8817 11.241 16.151 11 17.5 11ZM3 15C3.55228 15 4 15.4477 4 16V19C4 19.5523 4.44772 20 5 20H8C8.55228 20 9 20.4477 9 21C9 21.5523 8.55228 22 8 22H5C3.34314 22 2 20.6568 2 19V16C2 15.4477 2.44772 15 3 15ZM21 19.3633C20.0421 19.7705 18.8091 20 17.5 20C16.1909 20 14.9579 19.7705 14 19.3633V19.9844C14.0063 19.9989 14.0255 20.0335 14.0781 20.0889C14.1877 20.204 14.3938 20.353 14.7246 20.5C15.3837 20.7929 16.3639 21 17.5 21C18.6361 21 19.6163 20.7929 20.2754 20.5C20.6062 20.353 20.8123 20.204 20.9219 20.0889C20.9745 20.0335 20.9937 19.9989 21 19.9844V19.3633ZM21 16.3633C20.0421 16.7705 18.8091 17 17.5 17C16.1909 17 14.9579 16.7705 14 16.3633V16.9844C14.0063 16.9989 14.0255 17.0336 14.0781 17.0889C14.1877 17.204 14.3938 17.353 14.7246 17.5C15.3837 17.7929 16.3639 18 17.5 18C18.6361 18 19.6163 17.7929 20.2754 17.5C20.6062 17.353 20.8123 17.204 20.9219 17.0889C20.9745 17.0336 20.9937 16.9989 21 16.9844V16.3633ZM17.5 13C16.3639 13 15.3837 13.2071 14.7246 13.5C14.3938 13.647 14.1877 13.796 14.0781 13.9111C14.0396 13.9517 14.0196 13.9815 14.0088 14C14.0196 14.0185 14.0396 14.0483 14.0781 14.0889C14.1877 14.204 14.3938 14.353 14.7246 14.5C15.3837 14.7929 16.3639 15 17.5 15C18.6361 15 19.6163 14.7929 20.2754 14.5C20.6062 14.353 20.8123 14.204 20.9219 14.0889C20.9601 14.0487 20.9794 14.0186 20.9902 14C20.9794 13.9814 20.9601 13.9513 20.9219 13.9111C20.8123 13.796 20.6062 13.647 20.2754 13.5C19.6163 13.2071 18.6361 13 17.5 13ZM6.5 1C7.84896 1 9.1183 1.241 10.0879 1.67188C10.5714 1.88679 11.0252 2.16879 11.3711 2.53223C11.6995 2.87736 11.9608 3.336 11.9932 3.88672C11.9974 3.92392 12 3.96168 12 4V10C12 10.6014 11.7218 11.0992 11.3711 11.4678C11.0252 11.8312 10.5714 12.1132 10.0879 12.3281C9.1183 12.759 7.84897 13 6.5 13C5.15104 13 3.8817 12.759 2.91211 12.3281C2.42856 12.1132 1.97478 11.8312 1.62891 11.4678C1.27823 11.0992 1 10.6014 1 10V4C1 3.96172 1.00167 3.92388 1.00586 3.88672C1.03821 3.33598 1.30052 2.87737 1.62891 2.53223C1.97478 2.16879 2.42856 1.88679 2.91211 1.67188C3.8817 1.241 5.15104 1 6.5 1ZM10 9.36328C9.04207 9.77048 7.80907 10 6.5 10C5.19093 10 3.95793 9.77048 3 9.36328V9.98438C3.00628 9.99887 3.02548 10.0335 3.07812 10.0889C3.18768 10.204 3.39382 10.353 3.72461 10.5C4.38367 10.7929 5.36392 11 6.5 11C7.63609 11 8.61634 10.7929 9.27539 10.5C9.60618 10.353 9.81232 10.204 9.92188 10.0889C9.97452 10.0335 9.99372 9.99887 10 9.98438V9.36328ZM19 2C20.6568 2 22 3.34314 22 5V8C22 8.55228 21.5523 9 21 9C20.4477 9 20 8.55228 20 8V5C20 4.44772 19.5523 4 19 4H16C15.4477 4 15 3.55228 15 3C15 2.44772 15.4477 2 16 2H19ZM10 6.36328C9.04207 6.77048 7.80907 7 6.5 7C5.19093 7 3.95793 6.77048 3 6.36328V6.98438C3.00634 6.99886 3.02552 7.03358 3.07812 7.08887C3.18768 7.20398 3.39382 7.35298 3.72461 7.5C4.38367 7.79286 5.36392 8 6.5 8C7.63609 8 8.61634 7.79286 9.27539 7.5C9.60618 7.35298 9.81232 7.20398 9.92188 7.08887C9.97448 7.03358 9.99366 6.99885 10 6.98438V6.36328ZM6.5 3C5.36391 3 4.38367 3.20714 3.72461 3.5C3.39382 3.64702 3.18768 3.79602 3.07812 3.91113C3.03957 3.95165 3.01959 3.98145 3.00879 4C3.01959 4.01855 3.03957 4.04835 3.07812 4.08887C3.18768 4.20398 3.39382 4.35298 3.72461 4.5C4.38367 4.79286 5.36392 5 6.5 5C7.63609 5 8.61634 4.79286 9.27539 4.5C9.60618 4.35298 9.81232 4.20398 9.92188 4.08887C9.96013 4.04866 9.97937 4.01857 9.99023 4C9.97937 3.98143 9.96013 3.95134 9.92188 3.91113C9.81232 3.79602 9.60618 3.64702 9.27539 3.5C8.61634 3.20714 7.63609 3 6.5 3Z" fill="#9E9E9E"/>
</g>
</svg>
