<svg width="24" height="24" viewBox="0 0 24 24" fill="none" xmlns="http://www.w3.org/2000/svg">
<g id="icons/Datas/data-display">
<path id="Union" d="M22 12C22.5523 12 23 12.4477 23 13V19C23 19.5523 22.5523 20 22 20H18.5V21H20.5C21.0523 21 21.5 21.4477 21.5 22C21.5 22.5523 21.0523 23 20.5 23H14.5C13.9477 23 13.5 22.5523 13.5 22C13.5 21.4477 13.9477 21 14.5 21H16.5V20H13C12.4477 20 12 19.5523 12 19V13C12 12.4477 12.4477 12 13 12H22ZM3 15C3.55228 15 4 15.4477 4 16V19C4 19.5523 4.44772 20 5 20H8C8.55228 20 9 20.4477 9 21C9 21.5523 8.55228 22 8 22H5C3.34314 22 2 20.6568 2 19V16C2 15.4477 2.44772 15 3 15ZM14 18H21V14H14V18ZM6.5 1C7.84896 1 9.1183 1.241 10.0879 1.67188C10.5714 1.88679 11.0252 2.16879 11.3711 2.53223C11.6995 2.87736 11.9608 3.336 11.9932 3.88672C11.9974 3.92392 12 3.96168 12 4V10C12 10.6014 11.7218 11.0992 11.3711 11.4678C11.0252 11.8312 10.5714 12.1132 10.0879 12.3281C9.1183 12.759 7.84897 13 6.5 13C5.15104 13 3.8817 12.759 2.91211 12.3281C2.42856 12.1132 1.97478 11.8312 1.62891 11.4678C1.27823 11.0992 1 10.6014 1 10V4C1 3.96172 1.00167 3.92388 1.00586 3.88672C1.03821 3.33598 1.30052 2.87737 1.62891 2.53223C1.97478 2.16879 2.42856 1.88679 2.91211 1.67188C3.8817 1.241 5.15104 1 6.5 1ZM10 9.36328C9.04207 9.77048 7.80907 10 6.5 10C5.19093 10 3.95793 9.77048 3 9.36328V9.98438C3.00628 9.99887 3.02548 10.0335 3.07812 10.0889C3.18768 10.204 3.39382 10.353 3.72461 10.5C4.38367 10.7929 5.36392 11 6.5 11C7.63609 11 8.61634 10.7929 9.27539 10.5C9.60618 10.353 9.81232 10.204 9.92188 10.0889C9.97452 10.0335 9.99372 9.99887 10 9.98438V9.36328ZM19 2C20.6568 2 22 3.34314 22 5V8C22 8.55228 21.5523 9 21 9C20.4477 9 20 8.55228 20 8V5C20 4.44772 19.5523 4 19 4H16C15.4477 4 15 3.55228 15 3C15 2.44772 15.4477 2 16 2H19ZM10 6.36328C9.04207 6.77048 7.80907 7 6.5 7C5.19093 7 3.95793 6.77048 3 6.36328V6.98438C3.00634 6.99886 3.02552 7.03358 3.07812 7.08887C3.18768 7.20398 3.39382 7.35298 3.72461 7.5C4.38367 7.79286 5.36392 8 6.5 8C7.63609 8 8.61634 7.79286 9.27539 7.5C9.60618 7.35298 9.81232 7.20398 9.92188 7.08887C9.97448 7.03358 9.99366 6.99885 10 6.98438V6.36328ZM6.5 3C5.36391 3 4.38367 3.20714 3.72461 3.5C3.39382 3.64702 3.18768 3.79602 3.07812 3.91113C3.03957 3.95165 3.01959 3.98145 3.00879 4C3.01959 4.01855 3.03957 4.04835 3.07812 4.08887C3.18768 4.20398 3.39382 4.35298 3.72461 4.5C4.38367 4.79286 5.36392 5 6.5 5C7.63609 5 8.61634 4.79286 9.27539 4.5C9.60618 4.35298 9.81232 4.20398 9.92188 4.08887C9.96013 4.04866 9.97937 4.01857 9.99023 4C9.97937 3.98143 9.96013 3.95134 9.92188 3.91113C9.81232 3.79602 9.60618 3.64702 9.27539 3.5C8.61634 3.20714 7.63609 3 6.5 3Z" fill="#9E9E9E"/>
</g>
</svg>
