<svg width="24" height="24" viewBox="0 0 24 24" fill="none" xmlns="http://www.w3.org/2000/svg">
<g id="icons/Datas/database-network-point">
<path id="Union" d="M12 1C16.1421 1 19.5 4.35787 19.5 8.5C19.5 12.303 16.6692 15.4426 13 15.9316V17.1738C13.8516 17.4752 14.5248 18.1484 14.8262 19H21C21.5523 19 22 19.4477 22 20C22 20.5523 21.5523 21 21 21H14.8262C14.4141 22.1647 13.3058 23 12 23C10.6942 23 9.58595 22.1647 9.17383 21H3C2.44772 21 2 20.5523 2 20C2 19.4477 2.44772 19 3 19H9.17383C9.47517 18.1484 10.1484 17.4752 11 17.1738V15.9316C7.33079 15.4426 4.5 12.303 4.5 8.5C4.5 4.35787 7.85787 1 12 1ZM12 19C11.4477 19 11 19.4477 11 20C11 20.5523 11.4477 21 12 21C12.5523 21 13 20.5523 13 20C13 19.4477 12.5523 19 12 19ZM10.5342 9.5C10.6158 10.7873 10.8479 11.9101 11.166 12.7373C11.3663 13.258 11.5799 13.6111 11.7666 13.8164C11.9531 14.0215 12.0335 14 12 14C11.9665 14 12.0469 14.0215 12.2334 13.8164C12.4201 13.6111 12.6337 13.258 12.834 12.7373C13.1521 11.9101 13.3842 10.7873 13.4658 9.5H10.5342ZM6.5918 9.5C6.88528 11.0974 7.86871 12.4532 9.22168 13.2471C8.84938 12.2003 8.60993 10.9054 8.53125 9.5H6.5918ZM15.4688 9.5C15.3901 10.9055 15.1497 12.2002 14.7773 13.2471C16.1307 12.4532 17.1147 11.0977 17.4082 9.5H15.4688ZM9.22168 3.75195C7.86849 4.54581 6.88531 5.90239 6.5918 7.5H8.53125C8.60995 6.09422 8.84921 4.79892 9.22168 3.75195ZM12 3C12.0335 3 11.9531 2.97852 11.7666 3.18359C11.5799 3.38894 11.3663 3.74197 11.166 4.2627C10.8479 5.08987 10.6158 6.21269 10.5342 7.5H13.4658C13.3842 6.21269 13.1521 5.08987 12.834 4.2627C12.6337 3.74197 12.4201 3.38894 12.2334 3.18359C12.0469 2.97852 11.9665 3 12 3ZM14.7773 3.75195C15.1499 4.79897 15.39 6.09408 15.4688 7.5H17.4082C17.1146 5.90211 16.1309 4.54575 14.7773 3.75195Z" fill="#9E9E9E"/>
</g>
</svg>
