<svg width="24" height="24" viewBox="0 0 24 24" fill="none" xmlns="http://www.w3.org/2000/svg">
<g id="icons/Datas/database-download">
<path id="Union" d="M9.5 2.5C11.6484 2.5 13.635 2.78858 15.1191 3.2832C15.8558 3.52877 16.5246 3.84352 17.0293 4.24121C17.5228 4.63013 18 5.21709 18 6V9.58398C20.8376 10.0601 23 12.5271 23 15.5C23 18.8137 20.3137 21.5 17 21.5C16.0802 21.5 15.2076 21.2904 14.4268 20.9189C13.0443 21.2862 11.3331 21.5 9.5 21.5C7.35157 21.5 5.36496 21.2114 3.88086 20.7168C3.14416 20.4712 2.47543 20.1565 1.9707 19.7588C1.47721 19.3699 1 18.7829 1 18V6C1 5.21709 1.47721 4.63013 1.9707 4.24121C2.47543 3.84352 3.14416 3.52877 3.88086 3.2832C5.36496 2.78858 7.35157 2.5 9.5 2.5ZM3 17.9707C3.01327 17.997 3.06026 18.071 3.20801 18.1875C3.46226 18.3879 3.89238 18.6126 4.5127 18.8193C5.743 19.2294 7.5065 19.5 9.5 19.5C10.527 19.5 11.4935 19.425 12.3584 19.2988C12.0418 18.9126 11.7719 18.4866 11.5586 18.0283C11.5482 18.006 11.5385 17.9834 11.5283 17.9609C11.4899 17.8757 11.4534 17.7895 11.4189 17.7021C11.4059 17.6691 11.3934 17.6359 11.3809 17.6025C11.359 17.5443 11.3374 17.4859 11.3174 17.4268C10.7324 17.4731 10.1241 17.5 9.5 17.5C7.35157 17.5 5.36496 17.2114 3.88086 16.7168C3.57267 16.6141 3.27737 16.4971 3 16.3691V17.9707ZM17 11.5C15.8181 11.5 14.7571 12.0114 14.0234 12.8281C13.3865 13.5371 13 14.4723 13 15.5C13 15.7327 13.0199 15.9601 13.0576 16.1807C13.2629 17.3801 14.0044 18.4006 15.0303 18.9824C15.6108 19.3117 16.282 19.5 17 19.5C19.2091 19.5 21 17.7091 21 15.5C21 13.2909 19.2091 11.5 17 11.5ZM17 12C17.5523 12 18 12.4477 18 13V15.5859L18.293 15.293C18.6835 14.9024 19.3165 14.9024 19.707 15.293C20.0976 15.6835 20.0976 16.3165 19.707 16.707L17.707 18.707C17.3165 19.0976 16.6835 19.0976 16.293 18.707L14.293 16.707C13.9024 16.3165 13.9024 15.6835 14.293 15.293C14.6835 14.9024 15.3165 14.9024 15.707 15.293L16 15.5859V13C16 12.4477 16.4477 12 17 12ZM3 13.9697C3.01268 13.9954 3.05875 14.0698 3.20801 14.1875C3.46226 14.3879 3.89238 14.6126 4.5127 14.8193C5.743 15.2294 7.5065 15.5 9.5 15.5C10.0161 15.5 10.5182 15.4787 11.001 15.4443C11.0074 14.7349 11.1375 14.0546 11.3701 13.4238C10.7684 13.4729 10.1422 13.5 9.5 13.5C7.35157 13.5 5.36496 13.2114 3.88086 12.7168C3.57267 12.6141 3.27737 12.4971 3 12.3691V13.9697ZM16 8.36914C15.7226 8.49709 15.4273 8.61407 15.1191 8.7168C13.635 9.21142 11.6484 9.5 9.5 9.5C7.35157 9.5 5.36496 9.21142 3.88086 8.7168C3.57267 8.61407 3.27737 8.49709 3 8.36914V9.96973C3.01268 9.99537 3.05875 10.0698 3.20801 10.1875C3.46226 10.3879 3.89238 10.6126 4.5127 10.8193C5.743 11.2294 7.5065 11.5 9.5 11.5C10.6928 11.5 11.8088 11.4024 12.7803 11.2344C12.7863 11.2284 12.7927 11.2228 12.7988 11.2168C12.836 11.1804 12.873 11.1439 12.9111 11.1084C12.9499 11.0723 12.9896 11.0371 13.0293 11.002C13.0606 10.9743 13.0921 10.9469 13.124 10.9199C13.1628 10.8871 13.2016 10.8541 13.2412 10.8223C13.2967 10.7776 13.354 10.7351 13.4111 10.6924C13.4262 10.6811 13.4409 10.6693 13.4561 10.6582C13.5303 10.6038 13.6058 10.551 13.6826 10.5C13.7158 10.478 13.7496 10.4569 13.7832 10.4355C13.8262 10.4082 13.8693 10.3808 13.9131 10.3545C13.9455 10.335 13.978 10.3157 14.0107 10.2969C14.0665 10.2648 14.1228 10.2335 14.1797 10.2031C14.2099 10.187 14.24 10.1709 14.2705 10.1553C14.4355 10.0709 14.6049 9.99395 14.7783 9.9248C14.8132 9.91089 14.8486 9.89804 14.8838 9.88477C14.9408 9.86329 14.9979 9.84204 15.0557 9.82227C15.09 9.81051 15.1246 9.79924 15.1592 9.78809C15.218 9.76914 15.2773 9.75154 15.3369 9.73438C15.3716 9.72438 15.4064 9.71446 15.4414 9.70508C15.5112 9.68635 15.5816 9.66957 15.6523 9.65332C15.6765 9.64778 15.7004 9.64099 15.7246 9.63574C15.8156 9.61602 15.9075 9.59854 16 9.58301V8.36914ZM9.5 4.5C7.5065 4.5 5.743 4.77056 4.5127 5.18066C3.89238 5.38745 3.46226 5.61212 3.20801 5.8125C3.09875 5.89864 3.0459 5.96254 3.01953 6C3.0459 6.03746 3.09875 6.10136 3.20801 6.1875C3.46226 6.38788 3.89238 6.61255 4.5127 6.81934C5.743 7.22944 7.5065 7.5 9.5 7.5C11.4935 7.5 13.257 7.22944 14.4873 6.81934C15.1076 6.61255 15.5377 6.38788 15.792 6.1875C15.9008 6.10171 15.953 6.03752 15.9795 6C15.953 5.96248 15.9008 5.89829 15.792 5.8125C15.5377 5.61212 15.1076 5.38745 14.4873 5.18066C13.257 4.77056 11.4935 4.5 9.5 4.5Z" fill="#9E9E9E"/>
</g>
</svg>
