<svg width="24" height="24" viewBox="0 0 24 24" fill="none" xmlns="http://www.w3.org/2000/svg">
<g id="icons/Brand/adobe-indesign">
<path id="Union" d="M19.5 2C20.8807 2 22 3.1193 22 4.5V19.5C22 20.8807 20.8807 22 19.5 22H4.5C3.1193 22 2 20.8807 2 19.5V4.5C2 3.11929 3.11929 2 4.5 2H19.5ZM4.5 4C4.22386 4 4 4.22386 4 4.5V19.5C4 19.7762 4.22385 20 4.5 20H19.5C19.7762 20 20 19.7762 20 19.5V4.5C20 4.22385 19.7762 4 19.5 4H4.5ZM8 6.5C8.55228 6.5 9 6.94772 9 7.5V16.5C9 17.0523 8.55228 17.5 8 17.5C7.44772 17.5 7 17.0523 7 16.5V7.5C7 6.94772 7.44772 6.5 8 6.5ZM16 7.5C16.5523 7.5 17 7.94772 17 8.5V16.5C17 17.0523 16.5523 17.5 16 17.5H14C13.1566 17.5 12.3815 17.2247 11.8174 16.6504C11.2564 16.079 11 15.3093 11 14.5C11 13.6907 11.2564 12.921 11.8174 12.3496C12.3815 11.7753 13.1566 11.5 14 11.5H15V8.5C15 7.94772 15.4477 7.5 16 7.5ZM14 13.5C13.5935 13.5 13.3685 13.6254 13.2451 13.751C13.1189 13.8795 13 14.1094 13 14.5C13 14.8906 13.1189 15.1205 13.2451 15.249C13.3685 15.3746 13.5935 15.5 14 15.5H15V13.5H14Z" fill="#9E9E9E"/>
</g>
</svg>
