<svg width="24" height="24" viewBox="0 0 24 24" fill="none" xmlns="http://www.w3.org/2000/svg">
<g id="icons/Brand/adobe-illustrate">
<path id="Union" d="M19.5 2C20.8807 2 22 3.1193 22 4.5V19.5C22 20.8807 20.8807 22 19.5 22H4.5C3.1193 22 2 20.8807 2 19.5V4.5C2 3.11929 3.11929 2 4.5 2H19.5ZM4.5 4C4.22386 4 4 4.22386 4 4.5V19.5C4 19.7762 4.22385 20 4.5 20H19.5C19.7762 20 20 19.7762 20 19.5V4.5C20 4.22385 19.7762 4 19.5 4H4.5ZM10.0518 6.50195C10.0655 6.50267 10.0791 6.50361 10.0928 6.50488C10.113 6.50678 10.1331 6.50953 10.1533 6.5127C10.1664 6.51474 10.1794 6.51698 10.1924 6.51953C10.2097 6.52294 10.2269 6.52689 10.2441 6.53125C10.259 6.535 10.2735 6.53953 10.2881 6.54395C10.2974 6.54676 10.3071 6.54865 10.3164 6.55176C10.3246 6.5545 10.3327 6.55761 10.3408 6.56055C10.3547 6.56559 10.3682 6.5715 10.3818 6.57715C10.3973 6.58352 10.4128 6.58961 10.4277 6.59668C10.4342 6.59973 10.4409 6.60228 10.4473 6.60547L10.501 6.63477C10.505 6.63711 10.5087 6.64018 10.5127 6.64258C10.5291 6.65235 10.5447 6.66313 10.5605 6.67383C10.5716 6.68135 10.583 6.68836 10.5938 6.69629C10.6057 6.7051 10.6173 6.71428 10.6289 6.72363C10.6453 6.73691 10.6613 6.75044 10.6768 6.76465C10.6786 6.76637 10.6808 6.7678 10.6826 6.76953L10.7305 6.81738C10.7319 6.8189 10.733 6.82074 10.7344 6.82227C10.7486 6.83767 10.7621 6.85375 10.7754 6.87012C10.7848 6.88167 10.7939 6.89334 10.8027 6.90527C10.8107 6.916 10.8177 6.92739 10.8252 6.93848C10.8359 6.95427 10.8466 6.96997 10.8564 6.98633C10.863 6.99733 10.8698 7.00822 10.876 7.01953C10.8853 7.03652 10.894 7.05379 10.9023 7.07129C10.9094 7.08626 10.9155 7.10173 10.9219 7.11719C10.9275 7.13082 10.9334 7.14433 10.9385 7.1582C10.9416 7.1667 10.9454 7.17497 10.9482 7.18359L12.9463 13.1787C12.9498 13.1891 12.9538 13.1994 12.957 13.21L13.9482 16.1836C14.1229 16.7074 13.8402 17.2735 13.3164 17.4482C12.7926 17.6229 12.2265 17.3402 12.0518 16.8164L11.2793 14.5H8.7207L7.94824 16.8164C7.77348 17.3402 7.20744 17.6229 6.68359 17.4482C6.15984 17.2735 5.87714 16.7074 6.05176 16.1836L7.04199 13.21C7.04518 13.1994 7.04921 13.1891 7.05273 13.1787L9.05176 7.18359C9.0546 7.17507 9.0575 7.1666 9.06055 7.1582C9.0656 7.14434 9.07149 7.13081 9.07715 7.11719C9.08354 7.10174 9.0896 7.08625 9.09668 7.07129C9.10498 7.0538 9.11375 7.03651 9.12305 7.01953C9.12922 7.00823 9.13601 6.99732 9.14258 6.98633C9.15236 6.96998 9.16312 6.95426 9.17383 6.93848C9.18135 6.92739 9.18836 6.916 9.19629 6.90527C9.2051 6.89334 9.21428 6.88167 9.22363 6.87012C9.23691 6.85375 9.25044 6.83767 9.26465 6.82227C9.27383 6.81228 9.28336 6.80259 9.29297 6.79297C9.30259 6.78336 9.31228 6.77383 9.32227 6.76465C9.33767 6.75044 9.35375 6.73691 9.37012 6.72363C9.38167 6.71428 9.39334 6.7051 9.40527 6.69629C9.416 6.68836 9.42739 6.68135 9.43848 6.67383C9.45426 6.66312 9.46998 6.65236 9.48633 6.64258C9.49732 6.63601 9.50823 6.62922 9.51953 6.62305C9.53651 6.61375 9.5538 6.60498 9.57129 6.59668C9.58625 6.5896 9.60174 6.58354 9.61719 6.57715C9.63081 6.57149 9.64434 6.5656 9.6582 6.56055C9.6666 6.5575 9.67507 6.5546 9.68359 6.55176C9.69262 6.54875 9.70189 6.54668 9.71094 6.54395C9.72553 6.53952 9.74008 6.53501 9.75488 6.53125C9.76402 6.52893 9.77308 6.52646 9.78223 6.52441L9.82617 6.51562C9.83265 6.51448 9.83919 6.51372 9.8457 6.5127C9.86591 6.50951 9.88607 6.5068 9.90625 6.50488C9.91988 6.50359 9.93355 6.50268 9.94727 6.50195C9.95803 6.50138 9.96876 6.50022 9.97949 6.5H10.0205C10.0309 6.50022 10.0413 6.50141 10.0518 6.50195ZM16 11.5C16.5523 11.5 17 11.9477 17 12.5V16.5C17 17.0523 16.5523 17.5 16 17.5C15.4477 17.5 15 17.0523 15 16.5V12.5C15 11.9477 15.4477 11.5 16 11.5ZM9.38672 12.5H10.6133L10 10.6611L9.38672 12.5ZM16 8.5C16.5523 8.5 17 8.94772 17 9.5V10C17 10.5523 16.5523 11 16 11C15.4477 11 15 10.5523 15 10V9.5C15 8.94772 15.4477 8.5 16 8.5Z" fill="#9E9E9E"/>
</g>
</svg>
