<svg width="24" height="24" viewBox="0 0 24 24" fill="none" xmlns="http://www.w3.org/2000/svg">
<g id="icons/Brand/adobe-lightroom">
<path id="Union" d="M19.5 2C20.8807 2 22 3.1193 22 4.5V19.5C22 20.8807 20.8807 22 19.5 22H4.5C3.1193 22 2 20.8807 2 19.5V4.5C2 3.11929 3.11929 2 4.5 2H19.5ZM4.5 4C4.22386 4 4 4.22386 4 4.5V19.5C4 19.7762 4.22385 20 4.5 20H19.5C19.7762 20 20 19.7762 20 19.5V4.5C20 4.22385 19.7762 4 19.5 4H4.5ZM7 6.5C7.55228 6.5 8 6.94772 8 7.5V15.5H11C11.5523 15.5 12 15.9477 12 16.5C12 17.0523 11.5523 17.5 11 17.5H7C6.44772 17.5 6 17.0523 6 16.5V7.5C6 6.94772 6.44772 6.5 7 6.5ZM14 9.5C14.5431 9.5 14.9835 9.93303 14.998 10.4727C15.0766 10.4277 15.155 10.3855 15.2344 10.3477C15.9775 9.99298 16.646 10 17 10C17.5523 10 18 10.4477 18 11C18 11.5523 17.5523 12 17 12C16.6684 12 16.3997 12.0073 16.0957 12.1523C15.8256 12.2813 15.4361 12.5691 15 13.2754V16.5C15 17.0523 14.5523 17.5 14 17.5C13.4477 17.5 13 17.0523 13 16.5V10.5C13 9.94772 13.4477 9.5 14 9.5Z" fill="#9E9E9E"/>
</g>
</svg>
