<svg width="24" height="24" viewBox="0 0 24 24" fill="none" xmlns="http://www.w3.org/2000/svg">
<g id="icons/Brand/adobe-photoshop">
<path id="Union" d="M19.5 2C20.8807 2 22 3.1193 22 4.5V19.5C22 20.8807 20.8807 22 19.5 22H4.5C3.1193 22 2 20.8807 2 19.5V4.5C2 3.11929 3.11929 2 4.5 2H19.5ZM4.5 4C4.22386 4 4 4.22386 4 4.5V19.5C4 19.7762 4.22385 20 4.5 20H19.5C19.7762 20 20 19.7762 20 19.5V4.5C20 4.22385 19.7762 4 19.5 4H4.5ZM8 6.5C8.80649 6.5 9.87686 6.60229 10.7793 7.07812C11.245 7.32373 11.6867 7.68031 12.0088 8.18848C12.3333 8.70067 12.5 9.30984 12.5 10C12.5 10.6902 12.3333 11.2993 12.0088 11.8115C11.6867 12.3197 11.245 12.6763 10.7793 12.9219C9.87686 13.3977 8.80649 13.5 8 13.5V16.5C8 17.0523 7.55228 17.5 7 17.5C6.44772 17.5 6 17.0523 6 16.5V7.5C6 6.94772 6.44772 6.5 7 6.5H8ZM15.0918 9.62988C15.9236 9.44164 16.8659 9.5127 17 9.5127C17.5523 9.5127 18 9.96041 18 10.5127C17.9998 11.0648 17.5522 11.5127 17 11.5127C16.6341 11.5127 16.0763 11.4581 15.5332 11.5811C15.2764 11.6392 15.1375 11.7175 15.0742 11.7754C15.0451 11.8021 15.0001 11.8424 15 12.0059C15 12.0881 15.0079 12.114 15.0947 12.1836C15.2433 12.3026 15.4737 12.4064 15.8828 12.5762C16.2231 12.7174 16.7433 12.9248 17.1572 13.2568C17.6329 13.6385 18 14.205 18 14.9941C17.9999 15.7681 17.6457 16.3576 17.1504 16.748C16.6955 17.1067 16.1482 17.2807 15.7031 17.373C15.2443 17.4683 14.8007 17.4946 14.4824 17.499C14.3209 17.5013 14.1853 17.4982 14.0879 17.4941C14.039 17.4921 13.9985 17.4901 13.9697 17.4883C13.9557 17.4874 13.9443 17.486 13.9355 17.4854C13.9311 17.485 13.9268 17.4846 13.9238 17.4844H13.917C13.3668 17.4386 12.9584 16.9555 13.0039 16.4053C13.0496 15.8549 13.5326 15.4455 14.083 15.4912H14.082C14.0845 15.4914 14.0901 15.4917 14.0977 15.4922C14.1128 15.4931 14.1373 15.4947 14.1699 15.4961C14.2365 15.4989 14.3356 15.5007 14.4551 15.499C14.6993 15.4956 15.0058 15.4754 15.2969 15.415C15.6018 15.3518 15.8046 15.2616 15.9121 15.1768C15.979 15.124 16 15.0911 16 14.9941C16 14.9119 15.9921 14.886 15.9053 14.8164C15.7567 14.6974 15.5263 14.5936 15.1172 14.4238C14.7769 14.2826 14.2567 14.0752 13.8428 13.7432C13.3671 13.3615 13 12.795 13 12.0059C13.0001 11.2983 13.2676 10.7165 13.7227 10.2998C14.1438 9.9142 14.6612 9.72734 15.0918 9.62988ZM8 11.5C8.69329 11.5 9.37316 11.4023 9.8457 11.1533C10.0674 11.0364 10.2196 10.8985 10.3193 10.7412C10.4165 10.5878 10.5 10.3597 10.5 10C10.5 9.6403 10.4165 9.41216 10.3193 9.25879C10.2196 9.10148 10.0674 8.96356 9.8457 8.84668C9.37316 8.59769 8.69329 8.5 8 8.5V11.5Z" fill="#9E9E9E"/>
</g>
</svg>
