<svg width="24" height="24" viewBox="0 0 24 24" fill="none" xmlns="http://www.w3.org/2000/svg">
<g id="icons/Brand/alipay" clip-path="url(#clip0_56_3840)">
<path id="Union" d="M12 0C18.6274 0 24 5.3726 24 12C24 18.6274 18.6274 24 12 24C5.3726 24 0 18.6274 0 12C0 5.3726 5.3726 0 12 0ZM12 2.18164C6.57755 2.18164 2.18164 6.57755 2.18164 12C2.18164 17.4225 6.57755 21.8184 12 21.8184C15.3689 21.8184 18.342 20.1217 20.1104 17.5361C19.3937 17.3239 18.2484 16.9556 16.7686 16.334C16.1502 16.0742 15.2265 15.6651 13.998 15.1055C12.5279 16.587 10.3843 18 8.08691 18C6.49254 17.9921 3.81836 17.1863 3.81836 14.6729C3.81839 12.1596 6.29567 11.5616 7.90332 11.5615C8.87624 11.5615 10.5986 12.098 13.0693 13.1719L13.1074 13.1875C13.7706 12.3762 14.2254 11.4334 14.4727 10.3604L14.5225 10.1289H10.1973C9.54212 10.1289 8.83846 10.128 8.08691 10.1279V8.96875H11.0156V7.51855H6.91504V6.64844H11.0156L11.0166 4.90918H13.3604L13.3594 6.64844H18.0469V7.51855H13.3594V8.96875H17.1025C17.0475 9.3306 16.9857 9.65945 16.917 9.95508L16.875 10.1279C16.7027 10.7507 16.3154 11.6584 15.7129 12.8496C15.5529 13.1658 15.322 13.5315 15.0303 13.9189C15.9522 14.2607 16.8854 14.5925 17.8301 14.9141C19.0532 15.3304 20.1112 15.6674 21.0029 15.9248C21.5276 14.723 21.8184 13.3953 21.8184 12C21.8184 6.57755 17.4225 2.18164 12 2.18164ZM7.90332 12.4102C7.04398 12.3306 5.15747 12.673 5.15723 14.2715C5.15723 15.8705 8.50204 16.508 11.2119 14.8252C11.5169 14.6357 11.8024 14.4335 12.0674 14.2188L12.0586 14.2139L11.8447 14.083C10.1539 13.0543 8.83976 12.4971 7.90332 12.4102Z" fill="#9E9E9E"/>
</g>
<defs>
<clipPath id="clip0_56_3840">
<rect width="24" height="24" fill="white"/>
</clipPath>
</defs>
</svg>
