<svg width="24" height="24" viewBox="0 0 24 24" fill="none" xmlns="http://www.w3.org/2000/svg">
<g id="icons/Brand/android">
<path id="Union" d="M17.6318 6.00391C17.9059 5.52446 18.5166 5.35787 18.9961 5.63184C19.4756 5.90583 19.6421 6.51659 19.3682 6.99609L17.8369 9.6748C20.6452 11.4365 22.6008 14.4319 22.9453 17.9014C22.9731 18.1822 22.8807 18.4617 22.6914 18.6709C22.5019 18.8802 22.2325 19 21.9502 19H2.04883C1.76642 19 1.49719 18.8802 1.30762 18.6709C1.11824 18.4616 1.02587 18.1822 1.05371 17.9014C1.38316 14.5835 3.18607 11.6995 5.79883 9.91309L4.13184 6.99609C3.85788 6.51659 4.02441 5.90583 4.50391 5.63184C4.98339 5.35788 5.59414 5.52446 5.86816 6.00391L7.5459 8.93945C8.90727 8.33591 10.4139 8.00006 11.999 8C13.4296 8 14.7961 8.27368 16.0498 8.77051L17.6318 6.00391ZM11.999 10C7.71647 10.0002 4.13391 12.9928 3.22461 17H20.7744C19.8651 12.9927 16.2818 10 11.999 10ZM7.5 13.5C8.05225 13.5 8.49995 13.9478 8.5 14.5C8.5 15.0523 8.05228 15.5 7.5 15.5C6.94772 15.5 6.5 15.0523 6.5 14.5C6.50005 13.9478 6.94775 13.5 7.5 13.5ZM16.5 13.5C17.0522 13.5 17.4999 13.9478 17.5 14.5C17.5 15.0523 17.0523 15.5 16.5 15.5C15.9477 15.5 15.5 15.0523 15.5 14.5C15.5001 13.9478 15.9477 13.5 16.5 13.5Z" fill="#9E9E9E"/>
</g>
</svg>
