<svg width="24" height="24" viewBox="0 0 24 24" fill="none" xmlns="http://www.w3.org/2000/svg">
<g id="icons/Brand/app-store">
<path id="Union" d="M19.5 2C20.8807 2 22 3.1193 22 4.5V19.5C22 20.8807 20.8807 22 19.5 22H4.5C3.1193 22 2 20.8807 2 19.5V4.5C2 3.11929 3.11929 2 4.5 2H19.5ZM4.5 4C4.22386 4 4 4.22386 4 4.5V19.5C4 19.7762 4.22385 20 4.5 20H19.5C19.7762 20 20 19.7762 20 19.5V4.5C20 4.22385 19.7762 4 19.5 4H4.5ZM7.04492 16.3037C7.32586 15.8283 7.93958 15.6703 8.41504 15.9512C8.89047 16.2321 9.04843 16.8458 8.76758 17.3213L8.36133 18.0088C8.08039 18.4842 7.46667 18.6422 6.99121 18.3613C6.51578 18.0804 6.35782 17.4667 6.63867 16.9912L7.04492 16.3037ZM12.9004 11.8438C13.3663 11.5473 13.9847 11.6846 14.2812 12.1504L15.1396 13.5H18C18.5523 13.5 19 13.9477 19 14.5C19 15.0523 18.5523 15.5 18 15.5H16.4131L17.3438 16.9629C17.6402 17.4288 17.5029 18.0472 17.0371 18.3438C16.5712 18.6402 15.9528 18.5029 15.6562 18.0371L12.5938 13.2246C12.2973 12.7587 12.4346 12.1403 12.9004 11.8438ZM13.1387 5.99121C13.4196 5.51578 14.0333 5.35782 14.5088 5.63867C14.9842 5.91961 15.1422 6.53333 14.8613 7.00879L11.0254 13.5H11.5C12.0523 13.5 12.5 13.9477 12.5 14.5C12.5 15.0523 12.0523 15.5 11.5 15.5H6C5.44772 15.5 5 15.0523 5 14.5C5 13.9477 5.44772 13.5 6 13.5H8.70117L10.6592 10.1855L8.65625 7.03711C8.35977 6.57121 8.49705 5.95279 8.96289 5.65625C9.42879 5.35977 10.0472 5.49705 10.3438 5.96289L11.8008 8.25293L13.1387 5.99121Z" fill="#9E9E9E"/>
</g>
</svg>
