<svg width="24" height="24" viewBox="0 0 24 24" fill="none" xmlns="http://www.w3.org/2000/svg">
<g id="icons/Brand/apple">
<path id="Union" d="M16.5 5C17.9931 5.00007 19.2353 5.75671 20.2129 7.02832C20.5305 7.44154 20.4772 8.02918 20.0908 8.37891C19.0244 9.34406 18.501 10.5275 18.501 12C18.501 14.0394 19.938 14.9397 20.6299 15.3516C21.0391 15.5952 21.2196 16.0937 21.0615 16.543C20.8122 17.2513 20.3542 18.1404 19.8926 18.918C19.4381 19.6835 18.9144 20.4528 18.502 20.8789C18.1951 21.196 17.8429 21.5629 17.4121 21.8242C16.9336 22.1144 16.4101 22.25 15.7744 22.25C15.401 22.25 15.0276 22.1685 14.7061 22.0801C14.3808 21.9906 14.0375 21.873 13.7334 21.7705C13.066 21.5455 12.5656 21.3955 12.1748 21.3955C11.8011 21.3956 11.3845 21.5344 10.7783 21.7598C10.2561 21.9539 9.50947 22.25 8.75488 22.25C7.13743 22.25 6.14419 20.9041 5.92676 20.6504C5.60017 20.2695 2.7041 17.0333 2.7041 12C2.7041 9.44121 3.54325 7.67153 4.69824 6.54102C5.82448 5.43869 7.19739 5.00007 8.19043 5C9.20941 5 10.0503 5.46263 10.6396 5.77148C11.2997 6.11741 11.7159 6.31437 12.1748 6.31445C12.6485 6.31445 13.1011 6.10836 13.8408 5.75488C14.5112 5.43453 15.4132 5 16.5 5ZM16.5 7C15.9256 7 15.4081 7.22268 14.7031 7.55957C14.0674 7.86336 13.1874 8.31445 12.1748 8.31445C11.1476 8.31436 10.3047 7.85419 9.71094 7.54297C9.04623 7.1946 8.63757 7 8.19043 7C7.71734 7.00007 6.84699 7.23535 6.09668 7.96973C5.37499 8.67613 4.7041 9.90652 4.7041 12C4.7041 16.2699 7.17033 19.0288 7.44531 19.3496C7.62039 19.5539 7.79652 19.7742 8.04395 19.9668C8.28049 20.1509 8.51188 20.25 8.75488 20.25C9.07514 20.25 9.45413 20.1179 10.0811 19.8848C10.6239 19.6829 11.3802 19.3956 12.1748 19.3955C12.9524 19.3955 13.7719 19.6727 14.3721 19.875C14.7016 19.9861 14.9794 20.0816 15.2363 20.1523C15.497 20.2241 15.6678 20.25 15.7744 20.25C16.0988 20.25 16.2526 20.1885 16.375 20.1143C16.5451 20.0111 16.7178 19.8454 17.0645 19.4873C17.3055 19.2382 17.732 18.6399 18.1729 17.8975C18.4368 17.4529 18.6778 16.9953 18.8711 16.5879C17.8885 15.8654 16.501 14.4597 16.501 12C16.501 10.3189 17.0214 8.84698 18.0488 7.62305C17.5379 7.17757 17.0239 7.00004 16.5 7ZM15.7744 1.125V1.33691C15.7744 1.81759 15.6578 2.36933 15.4277 2.97559C15.1865 3.56266 14.8092 4.11559 14.3086 4.61426C13.8405 5.0535 13.4072 5.34407 13.0244 5.47559C12.8981 5.51331 12.7247 5.55055 12.5156 5.58398C12.3295 5.61298 12.1423 5.63838 11.9551 5.65918C11.9961 4.54364 12.3094 3.56331 12.8877 2.74414C13.4692 1.92072 14.4312 1.33535 15.7471 1.00391C15.7558 1.04432 15.765 1.08472 15.7744 1.125Z" fill="#9E9E9E"/>
</g>
</svg>
