<svg width="24" height="24" viewBox="0 0 24 24" fill="none" xmlns="http://www.w3.org/2000/svg">
<g id="icons/Brand/behance">
<path id="Union" d="M6 4C7.43183 4 8.6895 4.40244 9.60254 5.21582C10.5273 6.03969 11 7.19896 11 8.5C11 9.77925 10.5418 10.9201 9.64746 11.7412C9.93664 11.9041 10.2061 12.0949 10.4531 12.3135C11.4742 13.217 12 14.5058 12 16C12 17.4942 11.4742 18.783 10.4531 19.6865C9.44707 20.5767 8.06642 21 6.51562 21H2C1.44772 21 1 20.5523 1 20V5C1 4.44772 1.44772 4 2 4H6ZM18 10C19.8236 10 21.1261 10.7817 21.9385 11.9189C22.7179 13.0101 23 14.3572 23 15.5C23 16.0523 22.5523 16.5 22 16.5H15.1055C15.2374 17.1169 15.488 17.6423 15.8262 18.042C16.3209 18.6265 17.0401 19 18 19C19.0364 19 19.7205 18.6928 20.1328 18.418C20.3431 18.2778 20.4898 18.1414 20.5781 18.0479C20.6221 18.0013 20.6511 17.9653 20.666 17.9463L20.6699 17.9414L20.6689 17.9434C20.9757 17.4853 21.5958 17.362 22.0547 17.668C22.5142 17.9743 22.6384 18.5952 22.332 19.0547L21.5 18.5C22.2798 19.0199 22.3283 19.0532 22.3311 19.0557V19.0566L22.3291 19.0586C22.3281 19.06 22.3273 19.0619 22.3262 19.0635C22.324 19.0667 22.3211 19.0703 22.3184 19.0742C22.3129 19.0821 22.3065 19.0919 22.2988 19.1025C22.2833 19.124 22.263 19.1512 22.2383 19.1826C22.1888 19.2456 22.1199 19.3271 22.0312 19.4209C21.854 19.6086 21.5943 19.8473 21.2422 20.082C20.5295 20.5572 19.4636 21 18 21C16.4601 21 15.179 20.3733 14.2988 19.333C13.4329 18.3094 13 16.943 13 15.5C13 14.057 13.4329 12.6906 14.2988 11.667C15.179 10.6267 16.4601 10 18 10ZM3 19H6.51562C7.71761 19 8.57999 18.6733 9.12793 18.1885C9.66056 17.717 10 17.0055 10 16C10 14.9945 9.66056 14.283 9.12793 13.8115C8.57999 13.3267 7.71761 13 6.51562 13H3V19ZM18 12C17.0401 12 16.3209 12.3735 15.8262 12.958C15.488 13.3577 15.2374 13.8831 15.1055 14.5H20.8984C20.7917 13.98 20.5998 13.4846 20.3115 13.0811C19.8739 12.4683 19.1764 12 18 12ZM3 11H6C7.06812 11 7.81051 10.7026 8.27246 10.291C8.72271 9.88988 9 9.29895 9 8.5C9 7.70105 8.72271 7.11012 8.27246 6.70898C7.81051 6.29743 7.06812 6 6 6H3V11ZM21 6.5C21.5523 6.5 22 6.94772 22 7.5C22 8.05228 21.5523 8.5 21 8.5H15C14.4477 8.5 14 8.05228 14 7.5C14 6.94772 14.4477 6.5 15 6.5H21Z" fill="#9E9E9E"/>
</g>
</svg>
