<svg width="24" height="24" viewBox="0 0 24 24" fill="none" xmlns="http://www.w3.org/2000/svg">
<g id="icons/Brand/browser-chrome">
<path id="Union" d="M12 1C16.2693 1 19.9669 3.43398 21.79 6.98828C21.8153 7.03053 21.8385 7.07413 21.8574 7.12012C22.587 8.59096 23 10.2469 23 12C23 18.0751 18.0751 23 12 23C10.6578 23 9.37182 22.7594 8.18262 22.3193C8.16132 22.3122 8.14097 22.3025 8.12012 22.2939C3.95988 20.7251 1 16.7091 1 12C1 10.2904 1.39002 8.67183 2.08594 7.22852C2.10043 7.19591 2.1167 7.16391 2.13477 7.13281C3.93073 3.49953 7.67272 1 12 1ZM16.2422 8.5C17.0277 9.45098 17.5 10.6702 17.5 12C17.5 13.735 16.6955 15.281 15.4404 16.2891L10.5039 20.874C10.9906 20.9555 11.4902 21 12 21C16.9706 21 21 16.9706 21 12C21 10.7586 20.7485 9.5759 20.2939 8.5H16.2422ZM3.30176 9.68359C3.10543 10.4227 3 11.199 3 12C3 15.6474 5.17086 18.7856 8.29004 20.1992L11.2539 17.4482C9.8687 17.2603 8.64782 16.5577 7.79004 15.5381C7.7363 15.4923 7.68611 15.4403 7.6416 15.3818L3.30176 9.68359ZM12 8.5C10.067 8.5 8.5 10.067 8.5 12C8.5 13.933 10.067 15.5 12 15.5C12.8081 15.5 13.5511 15.2246 14.1436 14.7646C14.1778 14.7331 14.2138 14.7046 14.251 14.6787C15.0142 14.0367 15.5 13.0754 15.5 12C15.5 10.067 13.933 8.5 12 8.5ZM12 3C8.65299 3 5.73423 4.82791 4.18359 7.53906L6.63965 10.7646C7.20029 8.32196 9.38719 6.5 12 6.5H19.1211C17.475 4.3719 14.8986 3 12 3Z" fill="#9E9E9E"/>
</g>
</svg>
