<svg width="24" height="24" viewBox="0 0 24 24" fill="none" xmlns="http://www.w3.org/2000/svg">
<g id="icons/Brand/browser-safari">
<path id="Union" d="M12 1C18.0751 1 23 5.92487 23 12C23 18.0751 18.0751 23 12 23C5.92487 23 1 18.0751 1 12C1 5.92487 5.92487 1 12 1ZM12 3C7.02943 3 3 7.02943 3 12C3 16.9706 7.02943 21 12 21C16.9706 21 21 16.9706 21 12C21 7.02943 16.9706 3 12 3ZM16.1836 6.55176C16.5429 6.43198 16.9392 6.52514 17.207 6.79297C17.4749 7.0608 17.568 7.45707 17.4482 7.81641L15.1982 14.5664C15.0987 14.8648 14.8648 15.0987 14.5664 15.1982L7.81641 17.4482C7.45707 17.568 7.0608 17.4749 6.79297 17.207C6.52514 16.9392 6.43198 16.5429 6.55176 16.1836L8.80176 9.43359L8.84473 9.3252C8.96027 9.07892 9.17236 8.88892 9.43359 8.80176L16.1836 6.55176Z" fill="#9E9E9E"/>
</g>
</svg>
