<svg width="24" height="24" viewBox="0 0 24 24" fill="none" xmlns="http://www.w3.org/2000/svg">
<g id="icons/Brand/bydesign">
<path id="Union" d="M17.9824 8.14062C18.2809 8.06692 18.5968 8.13467 18.8389 8.32422C19.0808 8.51377 19.2217 8.80401 19.2217 9.11133V20.5732C19.2216 21.0331 18.9083 21.4336 18.4619 21.5439L12.6846 22.9707C12.3861 23.0444 12.0702 22.9766 11.8281 22.7871C11.5861 22.5976 11.4444 22.3074 11.4443 22V10.5381L11.459 10.3691C11.5251 9.98292 11.8136 9.66403 12.2041 9.56738L17.9824 8.14062ZM13.4443 11.3203V20.7227L17.2217 19.79V10.3877L13.4443 11.3203ZM9.50488 10.2344C9.8064 10.1488 10.1308 10.2095 10.3809 10.3984C10.6309 10.5874 10.7773 10.8829 10.7773 11.1963V17.5557C10.7771 18.0025 10.4807 18.3955 10.0508 18.5176L4.27344 20.1582C3.97194 20.2438 3.64758 20.183 3.39746 19.9941C3.14734 19.8052 3.00003 19.5098 3 19.1963V12.8369C3.00017 12.3901 3.29671 11.9972 3.72656 11.875L9.50488 10.2344ZM5 13.5918V17.8721L8.77734 16.7998V12.5195L5 13.5918ZM9.50488 1.03809C9.8064 0.95254 10.1308 1.01321 10.3809 1.20215C10.6309 1.39115 10.7773 1.68657 10.7773 2V8.35938C10.7771 8.80622 10.4807 9.19919 10.0508 9.32129L4.27344 10.9619C3.97194 11.0475 3.64758 10.9867 3.39746 10.7979C3.14734 10.6089 3.00003 10.3135 3 10V3.64062C3.00018 3.19378 3.29672 2.80086 3.72656 2.67871L9.50488 1.03809ZM5 4.39551V8.67578L8.77734 7.60352V3.32324L5 4.39551Z" fill="#9E9E9E"/>
</g>
</svg>
