<svg width="24" height="24" viewBox="0 0 24 24" fill="none" xmlns="http://www.w3.org/2000/svg">
<g id="icons/Brand/bytedance">
<path id="Union" d="M1.93945 2.67188C2.2141 2.48599 2.56313 2.44824 2.87109 2.57129L5.37109 3.57129C5.75073 3.72314 5.99997 4.09112 6 4.5V18.5C6 18.9089 5.75074 19.2768 5.37109 19.4287L2.87109 20.4287C2.56312 20.5518 2.21411 20.514 1.93945 20.3281C1.6647 20.1421 1.5 19.8318 1.5 19.5V3.5C1.50002 3.1682 1.6647 2.85789 1.93945 2.67188ZM7.43945 10.6719C7.7141 10.486 8.06313 10.4482 8.37109 10.5713L10.8711 11.5713C11.2507 11.7231 11.5 12.0911 11.5 12.5V18.5C11.5 18.9089 11.2507 19.2768 10.8711 19.4287L8.37109 20.4287C8.06312 20.5518 7.71411 20.514 7.43945 20.3281C7.1647 20.1421 7 19.8318 7 19.5V11.5C7.00002 11.1682 7.1647 10.8579 7.43945 10.6719ZM18.4395 3.67188C18.7141 3.48599 19.0631 3.44824 19.3711 3.57129L21.8711 4.57129C22.2507 4.72314 22.5 5.09112 22.5 5.5V18.5C22.5 18.9089 22.2507 19.2768 21.8711 19.4287L19.3711 20.4287C19.0631 20.5518 18.7141 20.514 18.4395 20.3281C18.1647 20.1421 18 19.8318 18 19.5V4.5C18 4.1682 18.1647 3.85789 18.4395 3.67188ZM15.6289 8.57129C15.9369 8.44824 16.2859 8.48599 16.5605 8.67188C16.8353 8.85789 17 9.1682 17 9.5V17.5C17 17.8318 16.8353 18.1421 16.5605 18.3281C16.2859 18.514 15.9369 18.5518 15.6289 18.4287L13.1289 17.4287C12.7493 17.2768 12.5 16.9089 12.5 16.5V10.5C12.5 10.0911 12.7493 9.72314 13.1289 9.57129L15.6289 8.57129ZM3.5 18.0225L4 17.8223V5.17676L3.5 4.97656V18.0225ZM9 18.0225L9.5 17.8223V13.1768L9 12.9766V18.0225ZM20 18.0225L20.5 17.8223V6.17676L20 5.97656V18.0225ZM14.5 11.1768V15.8223L15 16.0225V10.9766L14.5 11.1768Z" fill="#9E9E9E"/>
</g>
</svg>
