<svg width="24" height="24" viewBox="0 0 24 24" fill="none" xmlns="http://www.w3.org/2000/svg">
<g id="icons/Brand/cc">
<path id="Union" d="M3.49707 6.49316C5.73557 5.87808 7.78232 5.73839 9.63867 6.07031C10.5901 6.24041 11.4933 6.48177 12.3467 6.79492C10.9417 6.80367 9.53984 7.38937 8.52734 8.55176L8.42773 8.66895C7.00818 10.403 6.9128 12.8894 8.1416 14.7246L8.11133 14.6689C9.37493 16.9903 11.5256 19.0275 13.749 19.6826C15.5394 20.21 17.2152 20.3494 18.7588 20.0996L18.7725 20.0908C16.9097 21.5462 14.6631 22.2769 12.415 22.2832H12.3574L12.1416 22.2803C9.48379 22.218 6.8445 21.1432 4.85449 19.0576L4.68945 18.8809C2.90456 16.9202 2.00792 14.4225 2 11.9229V11.8564L2.00293 11.6289C2.04714 9.84259 2.54486 8.06532 3.49707 6.49316ZM14.9082 16.3164C15.6812 15.9485 16.6132 16.1271 17.2246 16.7383L19.7305 19.2432L19.5605 19.4092C19.5469 19.4223 19.5332 19.4353 19.5195 19.4482C17.8242 19.9046 15.9459 19.8317 13.8848 19.2246C12.395 18.7858 11.1167 17.7088 9.97559 16.3848L9.95117 16.3711C11.4633 17.1901 13.3021 17.1885 14.8125 16.3652L14.9082 16.3164ZM21.1924 8.55273C21.3389 8.55273 21.5109 8.59275 21.6846 8.7207C21.9818 8.93985 22.0078 9.25698 22.0088 9.34961V13.9307C22.0097 13.9469 22.031 14.4074 21.5908 14.6455C21.1949 14.8596 20.8759 14.6926 20.8682 14.6885L16.7529 12.3145C16.7529 12.3145 16.4546 12.1381 16.4219 11.7197C16.3846 11.2412 16.7227 11.0146 16.7227 11.0146L16.8301 10.9404L20.7754 8.66309C20.7826 8.65862 20.9543 8.55302 21.1924 8.55273ZM12.5986 1.50195C15.1826 1.55719 17.7507 2.57101 19.7227 4.54297L17.2246 7.04199L17.1465 7.11523C16.5092 7.69013 15.5715 7.82769 14.8125 7.41406L14.6816 7.3457C14.6569 7.33315 14.6322 7.3207 14.6074 7.30859C13.1459 6.49078 11.5173 5.9214 9.72363 5.60059C7.93853 5.28139 5.99229 5.38099 3.8877 5.89844C4.17581 5.48834 4.49896 5.09535 4.85449 4.72266L5.01758 4.55469C7.04784 2.5183 9.71095 1.5 12.375 1.5H12.377L12.5986 1.50195Z" fill="#9E9E9E"/>
</g>
</svg>
