<svg width="24" height="24" viewBox="0 0 24 24" fill="none" xmlns="http://www.w3.org/2000/svg">
<g id="icons/Brand/customer">
<path id="Union" d="M12.042 1.49805C17.7759 1.49805 22.4248 6.06419 22.4248 11.6963C22.4247 15.6785 20.0993 19.1259 16.7109 20.8047C14.6378 21.8855 12.2724 22.498 9.76172 22.498C6.6856 22.498 3.82782 21.5789 1.45801 20.0049C1.45801 20.0049 3.04757 19.8314 4.30371 18.4941V18.4932C2.66026 16.6891 1.66026 14.3076 1.66016 11.6963C1.66016 6.06429 6.30829 1.49822 12.042 1.49805ZM12.7012 3.0332C10.9555 3.43635 9.29769 4.31763 7.9375 5.67773C6.82475 6.79043 6.0329 8.10292 5.56055 9.49902C5.62967 9.31599 5.70601 9.13486 5.79102 8.95703C5.69316 9.20657 5.60536 9.46177 5.52539 9.72266C4.73877 12.1106 5.29333 14.8441 7.19238 16.7432C9.87828 19.4291 14.233 19.4288 16.9189 16.7432C19.6049 14.0573 19.6049 9.70255 16.9189 7.0166C15.6735 5.77126 14.0697 5.10309 12.4395 5.0127C12.3904 3.78964 13.0486 2.96301 13.0518 2.95898L12.7012 3.0332ZM9.59375 10.1436C10.1617 10.1436 10.6229 10.604 10.623 11.1719V12.5957C10.623 13.1638 10.1618 13.624 9.59375 13.624C9.02575 13.6238 8.56543 13.1637 8.56543 12.5957V11.1719C8.56561 10.6041 9.02586 10.1437 9.59375 10.1436ZM14.6846 10.1436C15.2526 10.1436 15.7137 10.604 15.7139 11.1719V12.5957C15.7139 13.1638 15.2527 13.624 14.6846 13.624C14.1166 13.6239 13.6562 13.1637 13.6562 12.5957V11.1719C13.6564 10.6041 14.1168 10.1437 14.6846 10.1436Z" fill="#9E9E9E"/>
</g>
</svg>
