<svg width="24" height="24" viewBox="0 0 24 24" fill="none" xmlns="http://www.w3.org/2000/svg">
<g id="icons/Brand/dianziqian">
<path id="Union" d="M6.98535 3.14258C7.29175 2.95873 7.67297 2.95251 7.98535 3.12598L12 5.35547L16.0146 3.12598L16.1338 3.06934C16.4179 2.95751 16.7406 2.98123 17.0078 3.13867L22.0078 6.08496C22.3128 6.26472 22.4999 6.59231 22.5 6.94629V17.5537C22.4999 17.8909 22.33 18.2059 22.0479 18.3906L17.5479 21.3369C17.2271 21.5469 16.8141 21.5547 16.4854 21.3574L12.0273 18.6826L8.05469 21.332C7.73315 21.5464 7.31672 21.5562 6.98535 21.3574L1.98535 18.3574C1.68423 18.1767 1.50001 17.8512 1.5 17.5V7C1.50001 6.64891 1.68439 6.32334 1.98535 6.14258L6.98535 3.14258ZM13.998 6.53223L17.5146 8.64258C17.8158 8.82332 18 9.1488 18 9.5V14.6074C17.9999 14.9622 17.8118 15.2903 17.5059 15.4697C17.1995 15.6492 16.8204 15.6531 16.5107 15.4795L8 10.707V13.9336L16.9766 19.3193L20.5 17.0127V7.51758L16.4844 5.15137L13.998 6.53223ZM3.5 7.56543V16.9336L7.47168 19.3164L10.1299 17.5439L6.48535 15.3574C6.18424 15.1767 6.00001 14.8512 6 14.5V9L6.00879 8.86816C6.04905 8.56515 6.22624 8.29371 6.49414 8.13672C6.80048 7.95728 7.17959 7.9543 7.48926 8.12793L16 12.8994V10.0654L11.4922 7.36133L7.51855 5.1543L3.5 7.56543Z" fill="#9E9E9E"/>
</g>
</svg>
