<svg width="24" height="24" viewBox="0 0 24 24" fill="none" xmlns="http://www.w3.org/2000/svg">
<g id="icons/Brand/dongchedi">
<path id="Union" d="M12 3.5C17.8074 3.5 22.5 8.30981 22.5 14.2246C22.5 16.4414 21.838 18.5616 20.623 20.3447L18.1445 18.6553C18.54 18.0749 18.8541 17.4447 19.0801 16.7803C16.9217 16.02 14.6045 15.6221 12.2207 15.6221C9.69116 15.6221 7.23722 16.0702 4.96973 16.9229C5.16917 17.4738 5.42997 18.0002 5.74805 18.4932L3.22754 20.1201C2.10661 18.3831 1.50003 16.3477 1.5 14.2246C1.5 8.30981 6.19265 3.5 12 3.5ZM12 6.5C8.41418 6.5 5.4054 9.09603 4.6709 12.5742C4.55284 13.239 4.73312 13.8179 5.22656 13.666C7.45332 12.9794 9.8096 12.6221 12.2207 12.6221C14.5491 12.6221 16.8272 12.9548 18.9873 13.5967C19.414 13.7232 19.4775 13.1885 19.3076 12.4844C19.3039 12.4689 19.3015 12.4547 19.2998 12.4424C18.5179 9.03078 15.5403 6.5 12 6.5Z" fill="#9E9E9E"/>
</g>
</svg>
