<svg width="24" height="24" viewBox="0 0 24 24" fill="none" xmlns="http://www.w3.org/2000/svg">
<g id="icons/Brand/dribble">
<path id="Union" d="M12 1C13.5496 1 15.0239 1.32284 16.3613 1.90137C16.3742 1.90639 16.3876 1.91042 16.4004 1.91602C16.4557 1.94017 16.5096 1.96715 16.5645 1.99219C16.6528 2.03254 16.7411 2.07263 16.8281 2.11523C16.889 2.14501 16.9486 2.17715 17.0088 2.20801C17.1008 2.25515 17.1928 2.30193 17.2832 2.35156C17.3755 2.40219 17.466 2.45562 17.5566 2.50879C17.6072 2.53847 17.6589 2.56622 17.709 2.59668C17.8217 2.66523 17.932 2.73714 18.042 2.80957C18.0783 2.83352 18.1153 2.85649 18.1514 2.88086C18.2337 2.93648 18.3139 2.99497 18.3945 3.05273C18.4594 3.09919 18.525 3.14456 18.5889 3.19238C18.6464 3.23551 18.7021 3.28098 18.7588 3.3252C18.8369 3.38611 18.9158 3.44584 18.9922 3.50879C19.2409 3.71382 19.4794 3.93056 19.709 4.15625C19.7205 4.16755 19.7327 4.17811 19.7441 4.18945C19.7606 4.20472 19.7764 4.22075 19.792 4.2373C19.9059 4.35164 20.0181 4.46767 20.127 4.58691C21.9107 6.54148 23 9.14439 23 12C23 12.1797 22.9939 12.3584 22.9854 12.5361C22.9829 12.5877 22.9788 12.6391 22.9756 12.6904C22.9673 12.8239 22.9583 12.9567 22.9453 13.0889C22.9412 13.131 22.9363 13.1729 22.9316 13.2148C22.9169 13.3487 22.9003 13.4819 22.8809 13.6143C22.8732 13.6665 22.8639 13.7185 22.8555 13.7705C22.8361 13.8903 22.8152 14.0094 22.792 14.1279C22.7792 14.1933 22.765 14.2583 22.751 14.3232C22.7285 14.4277 22.7041 14.5314 22.6787 14.6348C22.6626 14.7003 22.6472 14.766 22.6299 14.8311C22.6014 14.9382 22.5707 15.0445 22.5391 15.1504C22.5221 15.2071 22.5061 15.264 22.4883 15.3203C22.4319 15.4986 22.3727 15.6754 22.3076 15.8496C22.3006 15.8684 22.2912 15.8861 22.2832 15.9043C21.7256 17.3717 20.8655 18.6894 19.7764 19.7783C19.771 19.784 19.7663 19.7904 19.7607 19.7959C18.9671 20.586 18.0514 21.2527 17.0469 21.7725C17.0084 21.7957 16.9679 21.8159 16.9258 21.834C16.7107 21.9419 16.4934 22.0467 16.2705 22.1406C14.9575 22.6944 13.5142 23 12 23C10.1144 23 8.34018 22.5245 6.78906 21.6885C6.7843 21.686 6.77916 21.6842 6.77441 21.6816C6.62066 21.5985 6.46955 21.511 6.32031 21.4209C6.27685 21.3946 6.23447 21.3667 6.19141 21.3398C6.09353 21.2789 5.99618 21.2173 5.90039 21.1533C5.85013 21.1198 5.80065 21.0851 5.75098 21.0508C5.65857 20.9869 5.56689 20.9221 5.47656 20.8555C5.42756 20.8193 5.37943 20.7821 5.33105 20.7451C5.25193 20.6847 5.17312 20.624 5.0957 20.5615C5.03955 20.5162 4.98395 20.4702 4.92871 20.4238C4.85253 20.3598 4.77753 20.2945 4.70312 20.2285C4.65155 20.1827 4.59953 20.1375 4.54883 20.0908C4.47329 20.0212 4.39973 19.9496 4.32617 19.8779C4.30391 19.8562 4.28087 19.8354 4.25879 19.8135C4.25212 19.8074 4.24573 19.8011 4.23926 19.7949C4.21821 19.774 4.19763 19.7526 4.17676 19.7314C4.11039 19.6643 4.04608 19.5952 3.98145 19.5264C3.91363 19.4541 3.84614 19.3817 3.78027 19.3076C3.57476 19.0766 3.3781 18.8377 3.19238 18.5898C3.18008 18.5734 3.16846 18.5565 3.15625 18.54C3.06764 18.4204 2.98127 18.2991 2.89746 18.1758C2.86417 18.1268 2.83232 18.0769 2.7998 18.0273C2.74359 17.9417 2.68766 17.8558 2.63379 17.7686C2.60228 17.7175 2.57171 17.6659 2.54102 17.6143C2.48217 17.5153 2.42494 17.4154 2.36914 17.3145C2.34476 17.2704 2.32067 17.2261 2.29688 17.1816C2.23704 17.0698 2.17909 16.9569 2.12305 16.8428C2.10386 16.8037 2.08417 16.7649 2.06543 16.7256C2.01279 16.6151 1.9631 16.5031 1.91406 16.3906C1.8916 16.3391 1.8674 16.2883 1.8457 16.2363C1.8389 16.22 1.83192 16.2038 1.8252 16.1875C1.81749 16.1688 1.81118 16.1497 1.80469 16.1309C1.2873 14.8552 1 13.4613 1 12C1 11.6329 1.01757 11.27 1.05273 10.9121C1.0598 10.8402 1.06968 10.7688 1.07812 10.6973C1.07825 10.695 1.07896 10.6927 1.0791 10.6904C1.08158 10.6492 1.08747 10.6089 1.09473 10.5693C1.10294 10.5061 1.10888 10.4427 1.11816 10.3799C1.45673 8.08812 2.50289 6.02593 4.02539 4.42383C5.02684 3.37002 6.23595 2.51438 7.58691 1.92188C7.65689 1.89118 7.7281 1.86325 7.79883 1.83398C7.84624 1.81005 7.8953 1.79036 7.94531 1.77441C7.99685 1.75395 8.04769 1.73161 8.09961 1.71191C9.31191 1.25194 10.6267 1 12 1ZM14.1045 13.6387C13.8402 13.7303 13.5767 13.8325 13.3154 13.9473C10.0971 15.3606 7.65236 17.4429 6.30664 18.9688C6.31683 18.9771 6.32668 18.9858 6.33691 18.9941C7.8836 20.248 9.85377 21 12 21C13.2054 21 14.354 20.7608 15.4043 20.3311C15.3658 20.0998 15.325 19.8456 15.2822 19.5771C15.1773 18.918 15.0527 18.133 14.8984 17.2754C14.6922 16.1288 14.4334 14.8697 14.1045 13.6387ZM20.9463 12.9639C19.6745 12.9048 17.9052 12.8254 16.043 13.1475C16.3903 14.4507 16.6584 15.7597 16.8672 16.9209C17.0256 17.8015 17.1524 18.6068 17.2568 19.2627C17.2587 19.2744 17.2599 19.2862 17.2617 19.2979C17.6477 19.019 18.0128 18.7132 18.3496 18.3779C19.7652 16.9685 20.7109 15.0931 20.9424 13.001C20.9437 12.9886 20.945 12.9762 20.9463 12.9639ZM12.5596 10.5195C10.8056 11.2686 8.62278 11.594 6.69922 11.7275C5.30012 11.8246 3.99122 11.8215 3.00488 11.791C3.0033 11.8605 3 11.9301 3 12C3 14.0885 3.71359 16.009 4.90723 17.5361C6.45752 15.8111 9.09479 13.6168 12.5117 12.1162C12.8443 11.9702 13.1808 11.8416 13.5186 11.7275C13.3539 11.2696 13.1527 10.8099 12.9238 10.3535C12.8025 10.409 12.6823 10.4671 12.5596 10.5195ZM18.9736 6.31348C18.0284 7.1173 16.5027 8.36079 14.6953 9.42578C14.9854 10.0008 15.2404 10.5847 15.4443 11.1709C15.4504 11.1883 15.4549 11.2062 15.4609 11.2236C17.613 10.8185 19.6427 10.8914 20.9375 10.9561C20.7375 9.22397 20.0468 7.64321 19.0059 6.35352C18.9951 6.34018 18.9845 6.32675 18.9736 6.31348ZM8.04492 3.91406C7.8885 3.99073 7.73418 4.07092 7.58301 4.15625C6.80011 4.59815 6.08996 5.15422 5.47461 5.80176C4.61144 6.71015 3.93623 7.79761 3.51074 9.00293C3.41931 9.26203 3.33924 9.52652 3.27148 9.7959C4.17716 9.81872 5.3343 9.81752 6.56055 9.73242C8.40931 9.60411 10.3275 9.29815 11.7734 8.68066C11.8225 8.65973 11.8701 8.63576 11.9189 8.61426C10.6703 6.69187 9.1208 4.97181 8.04492 3.91406ZM12 3C11.5185 3 11.0459 3.03759 10.585 3.11035C10.4349 3.13403 10.2861 3.16138 10.1387 3.19238C11.2258 4.33503 12.5746 5.92204 13.7021 7.69141C15.2641 6.76892 16.6151 5.68675 17.5381 4.9082C16.0103 3.71313 14.0897 3 12 3Z" fill="#9E9E9E"/>
</g>
</svg>
