<svg width="24" height="24" viewBox="0 0 24 24" fill="none" xmlns="http://www.w3.org/2000/svg">
<g id="icons/Brand/dropbox">
<path id="Union" d="M14.4248 1.18164C14.7512 0.952037 15.191 0.936066 15.5371 1.15625L21.0371 4.65625C21.2686 4.80359 21.4291 5.04024 21.4814 5.30957C21.5337 5.5789 21.4729 5.85778 21.3135 6.08105L19.4561 8.68066L21.9961 10.1318C22.2883 10.2988 22.4769 10.6017 22.498 10.9375C22.519 11.2735 22.3689 11.5978 22.0996 11.7998L19 14.124V18.5C19 18.8556 18.8111 19.185 18.5039 19.3643L12.5039 22.8643C12.1926 23.0457 11.8074 23.0457 11.4961 22.8643L5.49609 19.3643C5.18892 19.185 5 18.8556 5 18.5V14.124L1.90039 11.7998C1.63107 11.5978 1.48103 11.2735 1.50195 10.9375C1.52305 10.6017 1.71171 10.2988 2.00391 10.1318L4.54297 8.68066L2.68652 6.08105C2.52709 5.85777 2.4663 5.5789 2.51855 5.30957C2.57094 5.04024 2.73143 4.80359 2.96289 4.65625L8.46289 1.15625L8.61621 1.07617C8.98461 0.922954 9.41701 1.00302 9.70703 1.29297L12 3.58594L14.293 1.29297L14.4248 1.18164ZM9.08105 16.3135C8.72644 16.5668 8.24906 16.5612 7.90039 16.2998L7 15.624V17.9248L12 20.8418L17 17.9248V15.624L16.0996 16.2998C15.7509 16.5612 15.2736 16.5668 14.9189 16.3135L12 14.2285L9.08105 16.3135ZM4.31641 11.1133L8.51367 14.2607L10.2393 13.0283L5.95898 10.1748L4.31641 11.1133ZM13.8281 12.9834L13.7598 13.0283L15.4854 14.2607L19.6826 11.1133L18.04 10.1748L13.8281 12.9834ZM8.50977 8.52832L7.80273 9L10.0098 10.4717L12 11.7979L16.1973 9L15.4902 8.52832L12 6.20117L8.50977 8.52832ZM4.92676 5.77734L6.25 7.63086L10.4297 4.84375L8.86035 3.27441L4.92676 5.77734ZM13.5693 4.84375L17.749 7.63086L19.0723 5.77734L15.1396 3.27441L13.5693 4.84375Z" fill="#9E9E9E"/>
</g>
</svg>
