<svg width="24" height="24" viewBox="0 0 24 24" fill="none" xmlns="http://www.w3.org/2000/svg">
<g id="icons/Brand/facebook">
<path id="Union" d="M18 1.5C18.5523 1.5 19 1.94772 19 2.5V6.2998C19 6.85209 18.5523 7.2998 18 7.2998H15.0098V9.7334H18C18.2918 9.7334 18.5688 9.86157 18.7588 10.083C18.9487 10.3044 19.0326 10.5974 18.9883 10.8857L18.4043 14.6846C18.3291 15.1721 17.9093 15.532 17.416 15.5322H15.0098V21.5C15.0098 22.0523 14.5621 22.5 14.0098 22.5H9.62207C9.07001 22.4997 8.62207 22.0521 8.62207 21.5V15.5322H6C5.44774 15.5322 5.00004 15.0845 5 14.5322V10.7334C5.00016 10.1813 5.44782 9.7334 6 9.7334H8.58887L8.62305 7.13867L8.61621 6.4834C8.58882 3.759 10.7747 1.52884 13.499 1.50098V1.5H18ZM13.5195 3.5C11.8995 3.51653 10.5998 4.84375 10.6162 6.46387L10.6221 7.11816C10.6221 7.12582 10.6222 7.13395 10.6221 7.1416L10.5752 10.7471C10.5679 11.2939 10.1231 11.7332 9.57617 11.7334H7V13.5322H9.62207C10.1744 13.5322 10.6221 13.9799 10.6221 14.5322V20.5H13.0098V14.5322C13.0098 13.9801 13.4577 13.5324 14.0098 13.5322H16.5576L16.835 11.7334H14.0098C13.4577 11.7332 13.0098 11.2856 13.0098 10.7334V7.2832C13.0098 6.18797 13.898 5.30001 14.9932 5.2998H17V3.5H13.5195Z" fill="#9E9E9E"/>
</g>
</svg>
