<svg width="24" height="24" viewBox="0 0 24 24" fill="none" xmlns="http://www.w3.org/2000/svg">
<g id="icons/Brand/facebook-one" clip-path="url(#clip0_56_3914)">
<path id="Union" d="M21.9443 0C23.0847 0 24 0.928241 24 2.06152V21.9385C24 23.0717 23.0847 24 21.9443 24H2.05566C0.91525 24 0 23.0717 0 21.9385V2.06152C0 0.928243 0.915244 0 2.05566 0H21.9443ZM2.05566 2C2.03015 2 2 2.02244 2 2.06152V21.9385C2 21.9775 2.03015 22 2.05566 22H11.6543V16.2764H8.33398V12.6113H11.6113L11.6543 9.13184L11.6416 7.88477C11.6249 6.12405 13.0391 4.68293 14.7998 4.66602H19.3311V8.94336H16.8975C16.2224 8.94336 15.6748 9.49104 15.6748 10.166V12.6113H19.3311L18.7959 16.2764H15.6748V22H21.9443C21.9698 22 22 21.9775 22 21.9385V2.06152C22 2.02245 21.9698 2 21.9443 2H2.05566Z" fill="#9E9E9E"/>
</g>
<defs>
<clipPath id="clip0_56_3914">
<rect width="24" height="24" fill="white"/>
</clipPath>
</defs>
</svg>
