<svg width="24" height="24" viewBox="0 0 24 24" fill="none" xmlns="http://www.w3.org/2000/svg">
<g id="icons/Brand/facetime">
<path id="Union" d="M19.5 2C20.8807 2 22 3.1193 22 4.5V19.5C22 20.8807 20.8807 22 19.5 22H4.5C3.1193 22 2 20.8807 2 19.5V4.5C2 3.11929 3.11929 2 4.5 2H19.5ZM4.5 4C4.22386 4 4 4.22386 4 4.5V19.5C4 19.7762 4.22385 20 4.5 20H19.5C19.7762 20 20 19.7762 20 19.5V4.5C20 4.22385 19.7762 4 19.5 4H4.5ZM16.875 8.21875C17.1752 7.97861 17.5871 7.93211 17.9336 8.09863C18.2799 8.26521 18.5 8.61571 18.5 9V15C18.5 15.3843 18.2799 15.7348 17.9336 15.9014C17.5871 16.0679 17.1752 16.0214 16.875 15.7812L14.375 13.7812C14.1378 13.5915 14 13.3038 14 13V11C14 10.6962 14.1378 10.4085 14.375 10.2188L16.875 8.21875ZM12 8.5C12.5523 8.5 13 8.94772 13 9.5V14.5C13 15.0523 12.5523 15.5 12 15.5H6C5.44772 15.5 5 15.0523 5 14.5V9.5C5 8.94772 5.44772 8.5 6 8.5H12ZM7 13.5H11V10.5H7V13.5ZM16 11.4805V12.5186L16.5 12.918V11.0811L16 11.4805Z" fill="#9E9E9E"/>
</g>
</svg>
