<svg width="24" height="24" viewBox="0 0 24 24" fill="none" xmlns="http://www.w3.org/2000/svg">
<g id="icons/Brand/faceu">
<path id="Union" d="M19.5 2C20.8807 2 22 3.1193 22 4.5V19.5C22 20.8807 20.8807 22 19.5 22H4.5C3.1193 22 2 20.8807 2 19.5V4.5C2 3.11929 3.11929 2 4.5 2H19.5ZM4.5 4C4.22386 4 4 4.22386 4 4.5V19.5C4 19.7762 4.22385 20 4.5 20H19.5C19.7762 20 20 19.7762 20 19.5V4.5C20 4.22385 19.7762 4 19.5 4H4.5ZM13.2861 5.02344C13.5818 4.95876 13.8911 5.03099 14.127 5.2207C14.3628 5.41053 14.5 5.69726 14.5 6V7.28125C15.1867 7.53192 16.0726 7.92618 16.8721 8.56055C18.025 9.47554 19 10.8927 19 13C19 15.0794 18.0891 16.6276 16.7109 17.623C15.3711 18.5907 13.6479 19 12 19C10.3521 19 8.62887 18.5907 7.28906 17.623C5.9109 16.6276 5 15.0794 5 13C5 10.56 6.47785 8.69561 8.14355 7.42383C9.81437 6.14823 11.8272 5.34263 13.2861 5.02344ZM12.5 7.33496C11.4881 7.6977 10.3425 8.26079 9.35645 9.01367C7.93898 10.096 7 11.4401 7 13C7 14.4204 7.5893 15.3724 8.46094 16.002C9.3711 16.6591 10.6481 17 12 17C13.3519 17 14.6289 16.6591 15.5391 16.002C16.4107 15.3724 17 14.4204 17 13C17 11.6077 16.3923 10.7328 15.6289 10.127C14.8269 9.49057 13.8578 9.159 13.2021 8.9541C12.7847 8.82365 12.5 8.43739 12.5 8V7.33496ZM9.5 11C10.3284 11 11 11.8954 11 13C11 14.1046 10.3284 15 9.5 15C8.67157 15 8 14.1046 8 13C8 11.8954 8.67157 11 9.5 11ZM14.5 11C15.3284 11 16 11.8954 16 13C16 14.1046 15.3284 15 14.5 15C13.6716 15 13 14.1046 13 13C13 11.8954 13.6716 11 14.5 11Z" fill="#9E9E9E"/>
</g>
</svg>
