<svg width="24" height="24" viewBox="0 0 24 24" fill="none" xmlns="http://www.w3.org/2000/svg">
<g id="icons/Brand/fanqiexiaoshuo">
<path id="Union" d="M17.7822 2.00098C20.1149 2.03705 22.0002 3.92737 21.9834 6.26855V17.7139C21.9834 20.0778 20.0778 21.9834 17.7139 21.9834H6.26855C3.90468 21.9833 2 20.0778 2 17.7139V6.26855C2.00008 3.90473 3.90473 2.00008 6.26855 2H17.7822V2.00098ZM7.28906 17.5605C6.54089 17.5606 6.20127 17.85 6.20117 18.207C6.20117 18.5641 6.55766 18.8368 7.30566 18.8369C8.04559 18.8369 8.91902 18.2046 8.93848 18.1904C8.92763 18.1829 8.03281 17.5605 7.28906 17.5605ZM16.6943 17.5439C15.929 17.5439 15.0439 18.1729 15.0439 18.1729C15.0439 18.1729 15.9285 18.8369 16.6768 18.8369C17.4249 18.8369 17.7821 18.5644 17.7822 18.1904C17.7992 17.8503 17.4423 17.5441 16.6943 17.5439ZM8.81934 14.7041C8.27511 14.1599 7.83322 14.1258 7.57812 14.3809C7.3232 14.636 7.3739 15.0784 7.91797 15.6055C8.44522 16.1327 9.53418 16.3027 9.53418 16.3027C9.53418 16.3027 9.36354 15.2313 8.81934 14.7041ZM16.4219 14.3633C16.1668 14.1254 15.7247 14.1597 15.1807 14.6865C14.6365 15.2137 14.4658 16.2686 14.4658 16.2686C14.4658 16.2686 15.5378 16.1151 16.082 15.5879C16.6259 15.0608 16.6769 14.6183 16.4219 14.3633ZM11.9834 12.4932C11.6262 12.4932 11.3535 12.8503 11.3535 13.5986C11.3707 14.3639 12.0166 15.2314 12.0166 15.2314C12.0166 15.2314 12.6459 14.3464 12.6289 13.5811C12.6288 12.8332 12.3403 12.4934 11.9834 12.4932ZM6.26855 2.44238C4.15983 2.44246 2.44246 4.15983 2.44238 6.26855V13.1797C4.73492 10.7129 8.17374 9.14269 12.0166 9.14258C15.8436 9.14258 19.2522 10.6827 21.541 13.1318V6.26855C21.5409 4.18248 19.8599 2.47977 17.7822 2.44336V6.20117L16.166 5.28223L14.5508 6.20117V2.44238H6.26855Z" fill="#9E9E9E"/>
</g>
</svg>
