<svg width="24" height="24" viewBox="0 0 24 24" fill="none" xmlns="http://www.w3.org/2000/svg">
<g id="icons/Brand/feelgood-one">
<path id="Union" d="M22 2C22.5523 2 23 2.44772 23 3V18C23 18.5523 22.5523 19 22 19H18.5V20.5C18.5 20.8466 18.3202 21.1684 18.0254 21.3506C17.7306 21.5327 17.3626 21.5495 17.0527 21.3945L12.2637 19H2C1.44772 19 1 18.5523 1 18V3C1 2.44772 1.44772 2 2 2H22ZM3 17H12.5C12.6552 17 12.8084 17.036 12.9473 17.1055L16.5 18.8818V18C16.5 17.4477 16.9477 17 17.5 17H21V4H3V17ZM16.7949 10.791C17.1856 10.4024 17.8172 10.4031 18.207 10.793C18.5976 11.1835 18.5976 11.8165 18.207 12.207L17.5 11.5L18.2061 12.208L18.2041 12.21C18.2031 12.211 18.2024 12.2126 18.2012 12.2139C18.1985 12.2165 18.195 12.2191 18.1914 12.2227C18.1841 12.2297 18.1744 12.2383 18.1631 12.249C18.1405 12.2704 18.1099 12.2987 18.0713 12.333C17.9941 12.4016 17.8854 12.4949 17.7451 12.6035C17.465 12.8204 17.0585 13.1027 16.5332 13.3828C15.4816 13.9436 13.9457 14.5 12 14.5C10.0543 14.5 8.51837 13.9436 7.4668 13.3828C6.94154 13.1027 6.53501 12.8204 6.25488 12.6035C6.11464 12.4949 6.00589 12.4016 5.92871 12.333C5.89013 12.2987 5.85952 12.2704 5.83691 12.249C5.82561 12.2383 5.81587 12.2297 5.80859 12.2227C5.80496 12.2191 5.80145 12.2165 5.79883 12.2139C5.79757 12.2126 5.79692 12.211 5.7959 12.21L5.79395 12.208C5.79363 12.2077 5.79289 12.2071 6.5 11.5L5.79297 12.207C5.40244 11.8165 5.40244 11.1835 5.79297 10.793C6.18284 10.4031 6.8144 10.4024 7.20508 10.791C7.20626 10.7921 7.20785 10.7939 7.20996 10.7959C7.21838 10.8038 7.23398 10.8186 7.25684 10.8389C7.30269 10.8796 7.37758 10.9426 7.47949 11.0215C7.68372 11.1796 7.99605 11.3974 8.4082 11.6172C9.23162 12.0563 10.4458 12.5 12 12.5C13.5542 12.5 14.7684 12.0563 15.5918 11.6172C16.004 11.3974 16.3163 11.1796 16.5205 11.0215C16.6224 10.9426 16.6973 10.8796 16.7432 10.8389C16.766 10.8186 16.7816 10.8038 16.79 10.7959C16.7921 10.7939 16.7937 10.7921 16.7949 10.791Z" fill="#9E9E9E"/>
</g>
</svg>
