<svg width="24" height="24" viewBox="0 0 24 24" fill="none" xmlns="http://www.w3.org/2000/svg">
<g id="icons/Brand/feelgood">
<path id="Union" d="M7.9563 1.50098C8.77492 1.5231 9.49431 1.94913 10.0784 2.6416C10.5245 3.17061 11.3133 4.07112 11.9973 4.8457C12.1751 5.04703 12.3458 5.23889 12.5002 5.41309C12.6547 5.23891 12.8254 5.04701 13.0032 4.8457C13.6872 4.07105 14.476 3.17057 14.9221 2.6416C15.5062 1.9491 16.2255 1.52303 17.0442 1.50098C17.8365 1.47972 18.5173 1.84404 19.0364 2.29199C19.6505 2.82219 19.9958 3.54362 20.0002 4.33887C20.0045 5.11474 19.6863 5.86685 19.1604 6.5166C18.7308 7.04733 17.9433 7.96347 17.2737 8.73535C16.9366 9.12383 16.6252 9.48035 16.3987 9.73926C16.3678 9.77456 16.3375 9.80731 16.3098 9.83887L19.3489 12.8779C20.5203 14.0495 20.5203 15.9496 19.3489 17.1211L14.3997 22.0703C13.2281 23.2418 11.3281 23.2417 10.1565 22.0703L5.20728 17.1211C4.0357 15.9495 4.0357 14.0495 5.20728 12.8779L8.48169 9.60254C8.27069 9.36116 8.00781 9.05925 7.72681 8.73535C7.0572 7.96353 6.2697 7.04737 5.84009 6.5166C5.31418 5.86684 4.99601 5.11476 5.00024 4.33887C5.00465 3.54355 5.34988 2.8222 5.96411 2.29199C6.48321 1.84403 7.16391 1.47965 7.9563 1.50098ZM6.62134 14.293C6.23095 14.6835 6.23086 15.3166 6.62134 15.707L11.5706 20.6562C11.9611 21.0466 12.5951 21.0467 12.9856 20.6562L17.9348 15.707C18.3252 15.3166 18.3251 14.6835 17.9348 14.293L12.2786 8.63574L6.62134 14.293ZM17.0979 3.5C16.999 3.50269 16.7764 3.54634 16.4514 3.93164C15.9883 4.48074 15.184 5.39686 14.5022 6.16895C14.1636 6.55238 13.8518 6.90303 13.6243 7.15918C13.6469 7.17985 13.6707 7.19978 13.6926 7.22168L14.8928 8.42188H14.8938C15.119 8.16441 15.4283 7.81058 15.7629 7.4248C16.4369 6.64801 17.2014 5.75738 17.6057 5.25781C17.9135 4.87739 18.0014 4.56001 18.0002 4.34961C17.9991 4.15892 17.9273 3.97629 17.7297 3.80566C17.4367 3.55275 17.2232 3.4967 17.0979 3.5ZM7.90259 3.5C7.77735 3.49663 7.56394 3.55267 7.27075 3.80566C7.07302 3.97634 7.00138 4.15886 7.00024 4.34961C6.99911 4.56002 7.08692 4.87736 7.39478 5.25781C7.79917 5.75742 8.56369 6.64808 9.23755 7.4248C9.47871 7.70277 9.70686 7.9639 9.89966 8.18457L10.8635 7.22168C10.966 7.11918 11.0766 7.02969 11.1936 6.9541C10.9936 6.72861 10.7536 6.45808 10.4983 6.16895C9.81658 5.39693 9.01217 4.48077 8.54907 3.93164C8.22433 3.54657 8.00165 3.50275 7.90259 3.5Z" fill="#9E9E9E"/>
</g>
</svg>
