<svg width="24" height="24" viewBox="0 0 24 24" fill="none" xmlns="http://www.w3.org/2000/svg">
<g id="icons/Brand/feiyu">
<path id="Union" d="M1 6.49414C2.18448 8.09994 3.62296 9.50373 5.25586 10.6445C7.96676 8.09933 11.6014 6.54144 15.5967 6.54004C18.2164 6.54048 20.5452 7.77462 22.0479 9.69629C22.1325 9.79724 22.2109 9.90291 22.2832 10.0127C22.619 10.518 22.834 11.1116 22.8867 11.752C22.2661 11.478 21.6291 11.2382 20.9775 11.0352C19.4304 10.5524 17.7951 10.2726 16.1016 10.2266C15.9232 10.2215 15.763 10.2197 15.6025 10.2197C13.7279 10.2197 11.9223 10.5051 10.2227 11.0352C9.42475 11.2839 8.65013 11.5869 7.90332 11.9395C7.81935 11.9788 7.73581 12.0188 7.65234 12.0596C7.73633 12.1004 7.82132 12.1417 7.90625 12.1816C8.65188 12.533 9.42579 12.8358 10.2227 13.084C11.9227 13.6139 13.7293 13.8994 15.6016 13.8994C15.7625 13.8994 15.923 13.8981 16.083 13.8936C17.7954 13.847 19.4312 13.5668 20.9785 13.085C21.6299 12.8815 22.2657 12.643 22.8838 12.3701C22.8341 13.0075 22.6186 13.6007 22.2842 14.1045C22.2092 14.2179 22.1275 14.3266 22.041 14.4307C20.5393 16.3492 18.2131 17.5804 15.6016 17.5811C11.6007 17.5795 7.96493 16.0214 5.25391 13.4756C3.62207 14.6158 2.18481 16.0197 1.00098 17.625C1.58956 15.5578 2.5975 13.6692 3.92676 12.0605C2.59695 10.4512 1.58821 8.56204 1 6.49414ZM16.3096 10.3467C16.3115 10.3467 16.3227 10.3462 16.3281 10.3467C17.9905 10.3979 19.5705 10.7151 21.1143 11.2109C21.7536 11.4366 22.2797 11.6017 22.8857 11.9043V12.1025C22.8857 12.2186 22.8859 12.1565 22.8721 12.2734C22.2106 12.5501 21.7536 12.7103 21.1143 12.9365C19.5775 13.3687 17.9908 13.7009 16.3291 13.752C16.3227 13.7527 16.3155 13.752 16.3096 13.752C16.1524 13.757 15.9949 13.7598 15.8369 13.7598C15.9905 13.7598 16.1396 13.7376 16.2822 13.6963C16.2872 13.6947 16.2925 13.6922 16.2979 13.6904C17.0627 13.4582 17.627 13.0688 17.627 12.1211C17.6268 11.1731 17.063 10.6399 16.2979 10.4072C16.2925 10.4057 16.2871 10.4041 16.2822 10.4023C16.1401 10.3608 15.991 10.3389 15.8379 10.3389C15.9954 10.3389 16.1529 10.3416 16.3096 10.3467Z" fill="#9E9E9E"/>
</g>
</svg>
