<svg width="24" height="24" viewBox="0 0 24 24" fill="none" xmlns="http://www.w3.org/2000/svg">
<g id="icons/Brand/figma">
<path id="Union" d="M19.5 2C20.8807 2 22 3.11929 22 4.5V19.5C22 20.8807 20.8807 22 19.5 22H4.5C3.11929 22 2 20.8807 2 19.5V4.5C2 3.11929 3.11929 2 4.5 2H19.5ZM4.5 4C4.22386 4 4 4.22386 4 4.5V19.5C4 19.7761 4.22386 20 4.5 20H19.5C19.7761 20 20 19.7761 20 19.5V4.5C20 4.22386 19.7761 4 19.5 4H4.5ZM13.5 6.5C14.8807 6.5 16 7.61927 16 9C16 9.56369 15.8108 10.0818 15.4961 10.5C15.8108 10.9182 16 11.4363 16 12C16 13.3807 14.8807 14.5 13.5 14.5C13.3287 14.5 13.1616 14.482 13 14.4492V15C13 16.3807 11.8807 17.5 10.5 17.5C9.11927 17.5 8 16.3807 8 15C8 14.4365 8.18841 13.9181 8.50293 13.5C8.18841 13.0819 8 12.5635 8 12C8 11.4365 8.18841 10.9181 8.50293 10.5C8.18841 10.0819 8 9.56348 8 9C8 7.61927 9.11927 6.5 10.5 6.5H13.5ZM10.5 14.5C10.2238 14.5 10 14.7238 10 15C10 15.2762 10.2238 15.5 10.5 15.5C10.7762 15.5 11 15.2762 11 15V14.5H10.5ZM10.5 11.5C10.2238 11.5 10 11.7238 10 12C10 12.2762 10.2238 12.5 10.5 12.5H11V11.5H10.5ZM13.5 11.5C13.2238 11.5 13 11.7238 13 12C13 12.2762 13.2238 12.5 13.5 12.5C13.7762 12.5 14 12.2762 14 12C14 11.7238 13.7762 11.5 13.5 11.5ZM10.5 8.5C10.2238 8.5 10 8.72383 10 9C10 9.27617 10.2238 9.5 10.5 9.5H11V8.5H10.5ZM13 9.5H13.5C13.7762 9.5 14 9.27617 14 9C14 8.72383 13.7762 8.5 13.5 8.5H13V9.5Z" fill="#9E9E9E"/>
</g>
</svg>
