<svg width="24" height="24" viewBox="0 0 24 24" fill="none" xmlns="http://www.w3.org/2000/svg">
<g id="icons/Brand/foursquare">
<path id="Union" d="M19 1C19.3116 1 19.6057 1.14499 19.7949 1.39258C19.984 1.64015 20.0467 1.96212 19.9648 2.2627L16.9648 13.2627C16.8462 13.6978 16.451 14 16 14H12.5879L7.87402 22.4854C7.65273 22.8837 7.19013 23.0821 6.74902 22.9678C6.30802 22.8534 6 22.4556 6 22V2C6 1.44772 6.44772 1 7 1H19ZM8 18.1406L11.126 12.5146L11.1992 12.4014C11.3864 12.1509 11.6822 12 12 12H15.2363L16.1904 8.5H12.5C11.9477 8.5 11.5 8.05228 11.5 7.5C11.5 6.94772 11.9477 6.5 12.5 6.5H16.7363L17.6904 3H8V18.1406Z" fill="#9E9E9E"/>
</g>
</svg>
