<svg width="24" height="24" viewBox="0 0 24 24" fill="none" xmlns="http://www.w3.org/2000/svg">
<g id="icons/Brand/friends-circle">
<path id="Union" d="M12 1C18.0751 1 23 5.92487 23 12C23 18.0751 18.0751 23 12 23C5.92487 23 1 18.0751 1 12C1 5.92487 5.92487 1 12 1ZM9.5 20.6455C10.2939 20.8747 11.1323 21 12 21C12.7914 21 13.5588 20.8969 14.29 20.7051L9.5 15.915V20.6455ZM16.3135 19.9004C17.7622 19.1078 18.967 17.9274 19.793 16.5H12.9131L16.3135 19.9004ZM4.09961 16.3145C4.89224 17.7628 6.07286 18.9671 7.5 19.793V12.9141L4.09961 16.3145ZM12 9.5C10.6193 9.5 9.5 10.6193 9.5 12C9.5 13.3807 10.6193 14.5 12 14.5C13.3807 14.5 14.5 13.3807 14.5 12C14.5 10.6193 13.3807 9.5 12 9.5ZM16.415 14.5H20.6455C20.8747 13.7061 21 12.8677 21 12C21 11.353 20.9295 10.7225 20.7998 10.1143L16.415 14.5ZM3.35742 9.48828C3.12609 10.2856 3 11.128 3 12C3 12.7918 3.10292 13.5595 3.29492 14.291L8.08691 9.5H3.5C3.45151 9.5 3.40406 9.49495 3.35742 9.48828ZM16.5 11.5869L20.0703 8.01562C19.2813 6.42061 18.0342 5.09376 16.5 4.20605V11.5869ZM12 3C11.2079 3 10.4398 3.10276 9.70801 3.29492L14.5 8.08691V3.5C14.5 3.45156 14.5041 3.40402 14.5107 3.35742C13.7136 3.12626 12.8716 3 12 3ZM7.68457 4.09961C6.23655 4.89224 5.03276 6.07311 4.20703 7.5H11.085L7.68457 4.09961Z" fill="#9E9E9E"/>
</g>
</svg>
