<svg width="24" height="24" viewBox="0 0 24 24" fill="none" xmlns="http://www.w3.org/2000/svg">
<g id="icons/Brand/github" clip-path="url(#clip0_56_3970)">
<path id="Union" d="M12 0C18.6274 0 24 5.3726 24 12C24 18.6274 18.6274 24 12 24C5.3726 24 0 18.6274 0 12C0 5.3726 5.3726 0 12 0ZM12 2C6.47715 2 2 6.47715 2 12C2 16.6672 5.19764 20.5868 9.52148 21.6895C9.52459 21.14 9.54677 20.3767 9.5918 19.3994C8.55585 19.4352 7.90098 19.3631 7.62793 19.1836C7.21833 18.9141 6.80819 18.0834 6.44434 17.498C6.08051 16.913 5.2735 16.8202 4.94727 16.6895C4.62115 16.5586 4.5391 16.0253 5.8457 16.4287C7.15198 16.8321 7.21588 17.9304 7.62793 18.1875C8.04008 18.4444 9.02601 18.3318 9.47266 18.126C9.91905 17.92 9.88619 17.1541 9.96582 16.8506C10.0658 16.5691 9.71646 16.5051 9.7041 16.502C9.268 16.502 6.97686 16.0035 6.34766 13.7852C5.71861 11.5671 6.52954 10.1174 6.96191 9.49414C7.25013 9.07854 7.22403 8.19254 6.88477 6.83691C8.1164 6.67953 9.06699 7.06737 9.73633 8C9.73698 8.00535 10.6142 7.47855 12 7.47852C13.3855 7.47852 13.8774 7.90749 14.2568 8C14.6363 8.09235 14.94 6.36727 17.2832 6.83691C16.794 7.79851 16.3846 9.00044 16.6973 9.49414C17.0102 9.98799 18.237 11.5576 17.4834 13.7852C16.9808 15.2704 15.9928 16.1762 14.5195 16.502C14.3507 16.5558 14.2658 16.6428 14.2656 16.7627C14.2656 16.9427 14.4943 16.9626 14.8232 17.8057C15.0116 18.2883 15.0481 19.5401 14.9365 21.5605C19.0262 20.3059 22 16.5008 22 12C22 6.47715 17.5229 2 12 2Z" fill="#9E9E9E"/>
</g>
<defs>
<clipPath id="clip0_56_3970">
<rect width="24" height="24" fill="white"/>
</clipPath>
</defs>
</svg>
