<svg width="24" height="24" viewBox="0 0 24 24" fill="none" xmlns="http://www.w3.org/2000/svg">
<g id="icons/Brand/github-one">
<path id="Union" d="M18.2123 1.55664C18.5255 1.4428 19.0008 1.38323 19.4349 1.71973C19.827 2.02386 19.9189 2.47054 19.9496 2.66895C20.0199 3.12387 19.9576 3.70916 19.9008 4.16309C19.8342 4.69459 19.762 5.1347 19.724 5.54102C19.7106 5.68394 19.7067 5.79237 19.7064 5.87012C20.5132 6.90883 21.0004 8.15021 21.0004 9.5C21.0002 11.4472 20.1306 13.4312 18.4125 14.7197C17.7621 15.2075 17.0075 15.5778 16.2015 15.8535C16.3872 16.2855 16.4955 16.7286 16.4955 17.1787V21.5049C16.4954 22.057 16.0476 22.5047 15.4955 22.5049C14.9433 22.5049 14.4956 22.0571 14.4955 21.5049V17.1787C14.4955 16.9189 14.364 16.4849 13.8763 15.8447C13.6981 15.6107 13.6389 15.323 13.6888 15.0547C13.69 15.0485 13.6905 15.0423 13.6918 15.0361C13.7286 14.8571 13.8151 14.6881 13.9467 14.5498C13.9531 14.543 13.9595 14.536 13.9662 14.5293C13.9787 14.5168 13.9919 14.505 14.0052 14.4932C14.0197 14.4802 14.0349 14.4682 14.0502 14.4561C14.0555 14.4518 14.0603 14.4465 14.0658 14.4424C14.0729 14.437 14.0801 14.4319 14.0873 14.4268C14.1012 14.4167 14.1158 14.4078 14.1302 14.3984C14.1454 14.3886 14.1606 14.379 14.1761 14.3701C14.1844 14.3654 14.1922 14.3599 14.2006 14.3555C14.2217 14.3441 14.2433 14.3339 14.265 14.3242C14.2686 14.3226 14.2721 14.3209 14.2758 14.3193L14.3295 14.2979C14.3365 14.2953 14.3438 14.2934 14.351 14.291C14.3636 14.2867 14.3762 14.2821 14.389 14.2783C14.4133 14.2712 14.4377 14.265 14.4623 14.2598C14.4644 14.2593 14.467 14.2592 14.4691 14.2588C15.5723 14.0295 16.5142 13.6427 17.2123 13.1191C18.3892 12.2364 19.0002 10.8661 19.0004 9.5C19.0004 8.60209 18.6625 7.73663 18.0277 6.97168C17.8721 6.78419 17.8024 6.58391 17.7679 6.45117C17.7315 6.31069 17.716 6.17347 17.7094 6.05859C17.6961 5.83048 17.7115 5.58173 17.7328 5.35449C17.7724 4.93145 17.856 4.37669 17.9095 3.95801C17.6416 4.10429 17.3524 4.26156 17.0668 4.40137C16.7209 4.57059 16.3396 4.73615 15.9633 4.83984C15.6044 4.93867 15.1283 5.01666 14.6527 4.87598C13.8373 4.63453 12.9422 4.50003 12.0004 4.5C11.1824 4.5 10.3993 4.60124 9.67322 4.78613C8.70584 5.03239 7.84166 4.66961 7.22693 4.34277C6.91448 4.17662 6.5954 3.97913 6.33533 3.82422C6.32143 3.81594 6.30701 3.8079 6.29333 3.7998C6.28642 3.90408 6.28149 4.02008 6.27771 4.14746C6.26265 4.65555 6.27533 5.06319 6.26697 5.56348C6.26333 5.7809 6.25455 6.00945 6.23083 6.20898C6.219 6.30853 6.20069 6.42602 6.16833 6.54395C6.14086 6.64394 6.07911 6.84072 5.93005 7.02539C5.32339 7.7771 5.00037 8.62237 5.00037 9.5C5.00053 10.8061 5.71784 12.1998 6.94373 13.1191C7.75073 13.7243 8.79969 14.1372 10.0355 14.3447C10.0437 14.3461 10.0518 14.348 10.0599 14.3496C10.0795 14.3534 10.0991 14.3573 10.1185 14.3623C10.1381 14.3673 10.1571 14.3738 10.1761 14.3799C10.1889 14.384 10.2016 14.388 10.2142 14.3926C10.2277 14.3975 10.2411 14.4027 10.2543 14.4082C10.2666 14.4134 10.2792 14.4182 10.2914 14.4238L10.3207 14.4385C10.3625 14.4596 10.4018 14.4843 10.4398 14.5107C10.4498 14.5177 10.4603 14.5239 10.4701 14.5312C10.4886 14.5452 10.5063 14.5601 10.5238 14.5752C10.5298 14.5804 10.5364 14.5855 10.5424 14.5908C10.5447 14.593 10.5468 14.5955 10.5492 14.5977C10.7877 14.8188 10.9146 15.1515 10.8568 15.4961C10.8552 15.5057 10.8518 15.5149 10.85 15.5244C10.8462 15.5438 10.8413 15.5629 10.8363 15.582C10.833 15.5949 10.8294 15.6075 10.8256 15.6201C10.8199 15.639 10.8148 15.6581 10.808 15.6768C10.8021 15.6927 10.7951 15.7081 10.7885 15.7236C10.783 15.7364 10.7778 15.7492 10.7719 15.7617C10.7635 15.7791 10.7538 15.7957 10.7445 15.8125C10.7364 15.8273 10.7281 15.842 10.7191 15.8564C10.7135 15.8655 10.7084 15.8749 10.7025 15.8838C10.6903 15.9021 10.677 15.9198 10.6635 15.9375C10.6593 15.9429 10.656 15.9488 10.6517 15.9541C10.6384 15.9708 10.6253 15.9879 10.6107 16.0039C10.1169 16.5474 10.0013 16.9223 10.0013 17.1475V21.5059C10.001 22.0578 9.55327 22.5057 9.00134 22.5059C8.44926 22.5059 8.00167 22.0579 8.00134 21.5059V19.7588H6.91248C5.76942 19.7586 4.86547 18.9627 4.32361 18.3682C3.73686 17.7243 3.30928 17.0172 3.1449 16.7461C3.10083 16.6734 3.05206 16.6208 2.87927 16.5996C2.33118 16.5326 1.94134 16.0344 2.00818 15.4863C2.0752 14.9382 2.57334 14.5483 3.12146 14.6152C3.84693 14.704 4.46556 15.0652 4.85583 15.709L5.00916 15.958C5.19409 16.2503 5.46933 16.6563 5.80212 17.0215C6.29065 17.5574 6.68048 17.7585 6.91248 17.7588H8.00134V17.1475C8.00134 16.7382 8.09231 16.3456 8.25232 15.9717C7.42271 15.7124 6.64647 15.3522 5.95642 14.873L5.74353 14.7197C4.07424 13.4678 3.00053 11.5073 3.00037 9.5C3.00037 8.17595 3.46852 6.95547 4.24841 5.92871C4.25704 5.83555 4.26405 5.70451 4.26697 5.53027C4.27269 5.18787 4.26472 4.55908 4.27869 4.08789C4.29304 3.60422 4.331 3.00154 4.49255 2.53223C4.57067 2.30532 4.73219 1.94115 5.09119 1.69727C5.52991 1.39931 6.01928 1.43436 6.3949 1.5957C6.74198 1.74487 7.07249 1.93496 7.35876 2.10547C7.66327 2.28684 7.91055 2.44112 8.16638 2.57715C8.68852 2.85471 8.97377 2.90019 9.18005 2.84766C10.0691 2.62129 11.0178 2.5 12.0004 2.5C13.1244 2.50003 14.2044 2.65891 15.2015 2.95215C15.2084 2.95167 15.276 2.95504 15.432 2.91211C15.6324 2.85687 15.8849 2.75273 16.1879 2.60449C16.4879 2.45768 16.7992 2.28677 17.1254 2.1084C17.44 1.93636 17.7777 1.7521 18.0883 1.60742L18.2123 1.55664Z" fill="#9E9E9E"/>
</g>
</svg>
