<svg width="24" height="24" viewBox="0 0 24 24" fill="none" xmlns="http://www.w3.org/2000/svg">
<g id="icons/Brand/gitlab">
<path id="Union" d="M18.6006 2.00488C19.0247 2.04867 19.3745 2.35731 19.4717 2.77246L21.9736 13.4805C22.0607 13.8538 21.9269 14.2443 21.6289 14.4854L12.6104 21.7773C12.243 22.0744 11.7173 22.0741 11.3506 21.7764L2.37012 14.4844C2.07291 14.243 1.93906 13.8523 2.02637 13.4795L4.53418 2.77246L4.58008 2.625C4.71354 2.29501 5.01634 2.05645 5.37695 2.00879C5.78896 1.95454 6.19193 2.16129 6.38867 2.52734L9.59473 8.49707H14.8447L17.5908 2.5791L17.668 2.44141C17.8717 2.13875 18.2293 1.96671 18.6006 2.00488ZM4.11621 13.3262L11.9824 19.7129L19.8828 13.3232L18.1836 6.05176L16.3906 9.91797C16.2268 10.271 15.8725 10.4969 15.4834 10.4971H8.99707C8.62879 10.4971 8.28948 10.2942 8.11523 9.96973L5.87793 5.80273L4.11621 13.3262Z" fill="#9E9E9E"/>
</g>
</svg>
