<svg width="24" height="24" viewBox="0 0 24 24" fill="none" xmlns="http://www.w3.org/2000/svg">
<g id="icons/Brand/google">
<path id="Union" d="M5.5 11.75C5.5 8.41805 8.4779 5.5 12 5.5C12.9558 5.5 13.7806 5.73534 14.3936 5.98047L15.8438 3.80469C15.7545 3.76274 15.6567 3.71933 15.5498 3.67578C14.7543 3.35161 13.4451 3 11.5 3C9.7086 3 7.56647 3.8243 5.87012 5.36523C4.19176 6.88992 3 9.0695 3 11.75C3.00003 17.4003 7.50336 21 12 21C14.3349 21 17.0947 20.0445 18.96 17.6377C20.1123 16.1508 21.0403 14.3973 21.0322 11.5H13V13H16.75C17.3022 13 17.7499 13.4478 17.75 14C17.75 15.1515 17.0359 16.2845 16.0596 17.0859C15.051 17.9139 13.6413 18.5 12 18.5C7.80862 18.5 5.50002 14.902 5.5 11.75ZM7.5 11.75C7.50002 14.098 9.19142 16.5 12 16.5C13.1585 16.5 14.1236 16.087 14.79 15.54C15.0072 15.3617 15.1805 15.1774 15.3184 15H12C11.4477 15 11 14.5522 11 14V10.5C11 10.2348 11.1054 9.98044 11.293 9.79297C11.4805 9.60545 11.7348 9.5 12 9.5H22L22.0977 9.50488C22.5795 9.55171 22.9652 9.94117 22.998 10.4336C23.2669 14.4672 22.0586 16.9029 20.54 18.8623C18.2296 21.8436 14.8362 23 12 23C6.49666 23 1.00003 18.6003 1 11.75C1 8.43087 2.48853 5.73507 4.52539 3.88477C6.54447 2.05071 9.15325 1 11.5 1C13.6929 1 15.2588 1.39843 16.3037 1.82422C16.8248 2.03656 17.2124 2.25367 17.4795 2.42773C17.6129 2.51469 17.7163 2.59065 17.791 2.64941C17.8283 2.67873 17.8586 2.70366 17.8818 2.72363C17.8934 2.73353 17.903 2.74268 17.9111 2.75C17.9153 2.75367 17.9196 2.75678 17.9229 2.75977L17.9297 2.7666H17.9307C17.9312 2.76704 17.9312 2.76795 17.25 3.5L17.9316 2.76758C18.2905 3.10155 18.354 3.6468 18.082 4.05469L15.582 7.80469C15.297 8.23224 14.734 8.37401 14.2803 8.13281C13.8223 7.8893 12.9999 7.5 12 7.5C9.5221 7.5 7.5 9.582 7.5 11.75Z" fill="#9E9E9E"/>
</g>
</svg>
