<svg width="24" height="24" viewBox="0 0 24 24" fill="none" xmlns="http://www.w3.org/2000/svg">
<g id="icons/Brand/google-ads">
<path id="Union" fill-rule="evenodd" clip-rule="evenodd" d="M10.3518 2.03067C12.3539 1.0974 14.7337 1.96425 15.6672 3.96621L21.5842 16.6547C22.5171 18.6567 21.6505 21.0366 19.6487 21.9701C17.6469 22.9033 15.267 22.0372 14.3333 20.0355L11.9993 15.0307L9.66725 20.0346L9.57545 20.2191C9.51155 20.3398 9.44273 20.4563 9.36842 20.5678C9.14547 20.9022 8.87705 21.1941 8.57643 21.4398C8.47644 21.5216 8.37268 21.598 8.26588 21.6693C7.94462 21.8838 7.59469 22.0504 7.22779 22.1645C6.92237 22.2594 6.60521 22.3175 6.28346 22.3373C6.15481 22.3452 6.02546 22.3469 5.89576 22.3422C5.70095 22.3352 5.50548 22.314 5.3108 22.2777C5.11612 22.2414 4.92227 22.1902 4.73072 22.1234C4.60331 22.0791 4.47673 22.0283 4.35182 21.9701C2.34975 21.0365 1.4828 18.6558 2.41627 16.6537L8.2815 4.07754C8.34127 3.94948 8.42425 3.83943 8.52369 3.75137C8.91791 3.0215 9.54236 2.40812 10.3518 2.03067ZM13.8547 4.81094C13.3879 3.80995 12.1975 3.3774 11.1965 3.84414C10.1957 4.31106 9.76301 5.50045 10.2297 6.50137L16.1458 19.1898C16.6127 20.1907 17.803 20.6243 18.804 20.1576C19.8049 19.6908 20.2381 18.5004 19.7717 17.4994L13.8547 4.81094ZM6.88697 16.5316C5.88592 16.0649 4.69654 16.4984 4.22975 17.4994L4.1526 17.6889C4.0415 18.0079 4.01635 18.3397 4.06666 18.6566C4.11712 18.9738 4.24291 19.2762 4.43482 19.5355C4.47308 19.5873 4.51446 19.6368 4.55787 19.685C4.64498 19.7815 4.74205 19.8704 4.84889 19.9496C4.90223 19.9892 4.95786 20.0264 5.01588 20.0609C5.07385 20.0955 5.13407 20.1275 5.19654 20.1566C5.55194 20.3224 5.93102 20.3728 6.29322 20.3266C6.88751 20.2505 7.43658 19.9115 7.75904 19.3705L7.85475 19.1898C8.32156 18.1888 7.88805 16.9985 6.88697 16.5316ZM5.69264 14.3598C6.37002 14.2997 7.07202 14.4111 7.73268 14.7191C8.39289 15.0271 8.9283 15.4931 9.31764 16.0502L10.8128 12.8461C10.8394 12.7889 10.8711 12.7355 10.9065 12.6859L8.68971 7.93301L5.69264 14.3598Z" fill="#9E9E9E"/>
</g>
</svg>
