<svg width="24" height="24" viewBox="0 0 24 24" fill="none" xmlns="http://www.w3.org/2000/svg">
<g id="icons/Brand/health">
<path id="Union" d="M19.5 2C20.8807 2 22 3.1193 22 4.5V19.5C22 20.8807 20.8807 22 19.5 22H4.5C3.1193 22 2 20.8807 2 19.5V4.5C2 3.11929 3.11929 2 4.5 2H19.5ZM4.5 4C4.22386 4 4 4.22386 4 4.5V19.5C4 19.7762 4.22385 20 4.5 20H19.5C19.7762 20 20 19.7762 20 19.5V4.5C20 4.22385 19.7762 4 19.5 4H4.5ZM16.3496 5C17.7853 5 19 6.13787 19 7.60254C18.9999 8.79883 18.2894 9.80702 17.5938 10.4893C16.8852 11.184 16.0049 11.7268 15.3066 11.9521C15.1073 12.0163 14.8927 12.0163 14.6934 11.9521C13.9951 11.7268 13.1148 11.184 12.4062 10.4893C11.7106 9.80702 11.0001 8.79883 11 7.60254C11 6.13787 12.2147 5 13.6504 5C14.1412 5.00007 14.6032 5.13222 15 5.36328C15.3968 5.13222 15.8588 5.00007 16.3496 5ZM16.3496 7C16.1183 7.00012 15.9236 7.11042 15.8096 7.26758C15.6215 7.52699 15.3204 7.68066 15 7.68066C14.6796 7.68066 14.3785 7.52699 14.1904 7.26758C14.0764 7.11042 13.8817 7.00012 13.6504 7C13.2635 7 13 7.29741 13 7.60254C13.0001 8.00836 13.2651 8.52941 13.8066 9.06055C14.2034 9.44966 14.6514 9.74687 14.999 9.91895H15.001C15.3486 9.74687 15.7966 9.44966 16.1934 9.06055C16.7349 8.52941 16.9999 8.00836 17 7.60254C17 7.29741 16.7365 7 16.3496 7Z" fill="#9E9E9E"/>
</g>
</svg>
