<svg width="24" height="24" viewBox="0 0 24 24" fill="none" xmlns="http://www.w3.org/2000/svg">
<g id="icons/Brand/html-five">
<path id="Union" d="M18.9012 1.5C20.0795 1.5 21.0024 2.51338 20.8925 3.68652L19.5487 18.0205C19.482 18.7302 19.0425 19.3508 18.3954 19.6494L12.8378 22.2148C12.306 22.4602 11.6927 22.4602 11.161 22.2148L5.60339 19.6494C4.95631 19.3508 4.51675 18.7302 4.45007 18.0205L3.10632 3.68652C2.99645 2.51349 3.91937 1.50012 5.09753 1.5H18.9012ZM6.44128 17.833L11.9999 20.3984L17.5575 17.833L18.9012 3.5H5.09753L6.44128 17.833ZM15.9999 5C16.5522 5 16.9999 5.44772 16.9999 6C16.9999 6.55228 16.5522 7 15.9999 7H9.11707L9.39539 9.5H15.4999C15.7807 9.5 16.0487 9.61796 16.2382 9.8252C16.4276 10.0327 16.5214 10.311 16.496 10.5908L15.996 16.0908C15.9645 16.4356 15.7568 16.7397 15.4471 16.8945L12.4471 18.3945C12.1656 18.5353 11.8341 18.5353 11.5526 18.3945L8.55261 16.8945C8.2458 16.7411 8.03893 16.441 8.00476 16.0996L7.75476 13.5996C7.69982 13.0501 8.10083 12.5599 8.65027 12.5049C9.19978 12.4499 9.68999 12.8509 9.745 13.4004L9.93933 15.3516L11.9999 16.3818L14.0536 15.3545L14.4042 11.5H8.49988C7.99037 11.5 7.562 11.1168 7.50574 10.6104L7.00574 6.11035C6.97437 5.82771 7.06512 5.54492 7.25476 5.33301C7.44444 5.12111 7.71549 5.00003 7.99988 5H15.9999Z" fill="#9E9E9E"/>
</g>
</svg>
