<svg width="24" height="24" viewBox="0 0 24 24" fill="none" xmlns="http://www.w3.org/2000/svg">
<g id="icons/Brand/huoshanzhibo">
<path id="Union" d="M16.9756 2C19.7364 2.00026 21.9997 4.23871 22 7.02441V16.9756C21.9997 19.7364 19.7364 21.9997 16.9756 22H7.02441C4.23871 21.9997 2.00026 19.7364 2 16.9756V7.02441C2.00026 4.23871 4.23871 2.00026 7.02441 2H16.9756ZM7.0498 2.22363C4.38811 2.22363 2.22363 4.38811 2.22363 7.0498V16.9258C2.22374 18.1981 2.71936 19.3559 3.52637 20.2188C4.1453 19.3433 4.8716 18.5131 5.70703 17.7705C5.75671 17.7209 5.80677 17.6962 5.85645 17.6465C5.85645 17.6962 5.88135 17.7461 5.90625 17.7959C6.20469 18.343 6.55281 18.8404 6.97559 19.2881C7.14954 19.139 7.34848 18.9899 7.52246 18.8408C8.29349 19.3383 9.21416 19.6366 10.209 19.6367H10.2588C12.5473 19.6118 14.4381 18.0196 14.9854 15.9053C15.2839 16.1789 15.5579 16.453 15.8066 16.7764C16.1796 17.2488 16.5278 17.7958 16.8262 18.3428C16.9754 18.6413 17.1002 18.9154 17.2246 19.2139C17.2991 19.3629 17.3487 19.5121 17.3984 19.6611C17.4233 19.7358 17.5727 20.0347 17.5479 20.1094C17.8463 19.4129 18.0454 18.6417 18.0703 17.8457C18.0703 17.796 18.0949 17.7709 18.1445 17.7461C18.1563 17.7343 18.1795 17.734 18.2031 17.7393L18.0693 17.6465C18.0696 17.624 18.0905 17.6222 18.0938 17.6221C18.1187 17.6221 18.3926 17.8711 18.3926 17.8711L18.3359 17.832C19.1464 18.5621 19.8532 19.3733 20.457 20.209C21.2589 19.3471 21.7509 18.1935 21.751 16.9258V7.0498C21.751 4.38826 19.5873 2.22387 16.9258 2.22363H7.0498ZM14.8857 4.5625C14.9106 6.22916 16.0545 7.67226 17.6963 8.02051C17.945 8.07024 18.1938 8.09472 18.4922 8.09473V10.6572C17.1988 10.6572 15.9802 10.2588 14.9355 9.5127V14.7119C14.9355 17.274 12.8702 19.3882 10.2832 19.4131C7.69627 19.4378 5.58211 17.3984 5.53223 14.8115C5.48248 12.2245 7.52233 10.1098 10.1094 10.0352H10.209C10.4079 10.0352 10.6321 10.0347 10.8311 10.0596V12.6719C10.6321 12.5973 10.4328 12.5723 10.209 12.5723C9.03995 12.5723 8.09441 13.5175 8.06934 14.6865C8.06934 15.6222 8.65944 16.4293 9.49414 16.7275C9.50007 16.7189 9.50682 16.7108 9.5127 16.7021C9.7117 16.7767 9.91096 16.8262 10.1348 16.8262H10.1846C11.3287 16.826 12.2734 15.9058 12.3232 14.7617V14.0898C12.3312 14.0938 12.3397 14.0976 12.3477 14.1016V4.5625H14.8857ZM10.5088 13.4678C10.5585 13.4678 10.6085 13.4673 10.6582 13.4922C11.1557 13.6165 11.628 13.7913 12.1006 13.9902V14.7861C12.0508 15.806 11.2299 16.6025 10.21 16.6025C10.1852 16.6025 10.1602 16.6019 10.1602 16.5771C9.98624 16.5771 9.81219 16.5526 9.66309 16.5029C10.1855 15.6572 10.5088 14.7365 10.5088 13.6172V13.4678Z" fill="#9E9E9E"/>
</g>
</svg>
