<svg width="24" height="24" viewBox="0 0 24 24" fill="none" xmlns="http://www.w3.org/2000/svg">
<g id="icons/Brand/instagram-one">
<path id="Union" d="M6.5 8C7.05228 8 7.5 8.44772 7.5 9V21.5C7.5 22.0523 7.05228 22.5 6.5 22.5H2.5C1.94772 22.5 1.5 22.0523 1.5 21.5V9C1.5 8.44772 1.94772 8 2.5 8H6.5ZM16 8C18.1938 8 19.8277 8.96022 20.8975 10.1406C21.9306 11.2806 22.5 12.6982 22.5 13.75V21.5C22.5 22.0523 22.0523 22.5 21.5 22.5H18C17.4477 22.5 17 22.0523 17 21.5V14.5C17 14.2275 16.8898 13.882 16.6826 13.6182C16.4879 13.3703 16.2579 13.25 16 13.25C15.6652 13.25 15.4459 13.3735 15.2949 13.5518C15.1298 13.7469 15 14.0681 15 14.5V21.5C15 22.0523 14.5523 22.5 14 22.5H10.5C9.94771 22.5 9.5 22.0523 9.5 21.5V13.75C9.5 12.6982 10.0694 11.2806 11.1025 10.1406C12.1723 8.96022 13.8062 8 16 8ZM3.5 20.5H5.5V10H3.5V20.5ZM16 10C14.4439 10 13.3277 10.6648 12.585 11.4844C11.8056 12.3444 11.5 13.3018 11.5 13.75V20.5H13V14.5C13 13.682 13.2454 12.8781 13.7676 12.2607C14.304 11.6267 15.0851 11.25 16 11.25C16.9919 11.25 17.7621 11.7548 18.2549 12.3818C18.735 12.9929 19 13.7726 19 14.5V20.5H20.5V13.75C20.5 13.3018 20.1944 12.3444 19.415 11.4844C18.6723 10.6648 17.5561 10 16 10ZM4.5 1C6.15685 1 7.5 2.34315 7.5 4C7.5 5.65685 6.15685 7 4.5 7C2.84315 7 1.5 5.65685 1.5 4C1.5 2.34315 2.84315 1 4.5 1ZM4.5 3C3.94772 3 3.5 3.44772 3.5 4C3.5 4.55228 3.94772 5 4.5 5C5.05228 5 5.5 4.55228 5.5 4C5.5 3.44772 5.05228 3 4.5 3Z" fill="#9E9E9E"/>
</g>
</svg>
