<svg width="24" height="24" viewBox="0 0 24 24" fill="none" xmlns="http://www.w3.org/2000/svg">
<g id="icons/Brand/instagram">
<path id="Union" d="M17 2C19.7614 2 22 4.23858 22 7V17C22 19.7614 19.7614 22 17 22H7C4.23858 22 2 19.7614 2 17V7C2 4.23858 4.23858 2 7 2H17ZM7 4C5.34314 4 4 5.34314 4 7V17C4 18.6569 5.34314 20 7 20H17C18.6569 20 20 18.6569 20 17V7C20 5.34314 18.6569 4 17 4H7ZM12 7C14.7614 7 17 9.23856 17 12C17 14.7614 14.7614 17 12 17C9.23856 17 7 14.7614 7 12C7 9.23856 9.23856 7 12 7ZM12 9C10.3431 9 9 10.3431 9 12C9 13.6569 10.3431 15 12 15C13.6569 15 15 13.6569 15 12C15 10.3431 13.6569 9 12 9ZM17.5 5.5C18.0523 5.5 18.5 5.9477 18.5 6.5C18.5 7.0523 18.0523 7.5 17.5 7.5C16.9477 7.5 16.5 7.0523 16.5 6.5C16.5 5.9477 16.9477 5.5 17.5 5.5Z" fill="#9E9E9E"/>
</g>
</svg>
