<svg width="24" height="24" viewBox="0 0 24 24" fill="none" xmlns="http://www.w3.org/2000/svg">
<g id="icons/Brand/jinritoutiao">
<path id="Union" d="M18.4414 2C20.3406 2 21.8979 3.49799 21.9932 5.37402L21.998 5.55664H22V17.3975H21.998V18.4414C22.0002 20.4039 20.4039 22 18.4414 22H5.55664C3.59629 22 2 20.4039 2 18.4414V5.55664C2 3.59629 3.59629 2 5.55664 2H18.4414ZM2.15137 18.4355V18.4414C2.15137 20.3208 3.67919 21.8486 5.55859 21.8486H18.4434C20.3228 21.8486 21.8506 20.3208 21.8506 18.4414V17.4053L2.15137 18.4355ZM8.35547 8.02441C8.32377 10.4491 8.29055 11.8229 7.86035 12.8076L4.00098 13.0098V14.0928L7.11523 13.9307C6.55897 14.5643 5.73788 15.2757 4.54395 16.3105L4.50684 16.3428C4.43975 16.4008 4.3707 16.4604 4.29883 16.5215L6.23535 16.4199C7.42276 15.3728 8.18212 14.634 8.66992 13.8496L11.7227 13.6904V12.6055L9.17578 12.7393C9.51183 11.6545 9.55484 10.2705 9.58594 7.95996L8.35547 8.02441ZM9.04492 14.3721L10.2383 16.2129L11.7236 16.1357L10.5303 14.2949L9.04492 14.3721ZM13.4639 14.1416L12.2705 16.1064L13.7559 16.0293L14.9492 14.0625L13.4639 14.1416ZM15.4912 11.791V12.4082L12.2666 12.5781V13.6621L15.4912 13.4932V15.9375L16.751 15.8721V13.4277L19.9912 13.2578V12.1729L16.751 12.3428V11.7275L15.4912 11.791ZM17.3232 13.9395L18.5166 15.7803L20 15.7031L18.8066 13.8623L17.3232 13.9395ZM12.4814 9.27734C12.4914 9.28455 12.9466 9.61432 12.999 9.64941C13.3321 9.87871 13.7733 10.1825 14.458 10.4971C13.8282 10.6899 13.103 10.8804 12.2666 11.0645V12.2217C13.862 11.8788 15.1123 11.4904 16.0996 11.0967C17.075 11.3786 18.3358 11.6359 19.9902 11.8193V10.6621C19.1333 10.5628 18.3942 10.4433 17.7539 10.3115C18.6783 9.78616 19.2092 9.30276 19.5605 8.96973V8.79297H19.5625V7.70898H19.5605L19.2979 7.72266L14.8105 7.95703L13.6494 7.47656L12.4814 9.27734ZM4.71484 11.7422L7.45117 11.9922V10.7812L4.71484 10.5322V11.7422ZM4.71484 9.69434L7.45117 9.94434V8.7334L4.71484 8.48633V9.69434ZM17.9932 8.875C17.5832 9.17435 17.0029 9.52708 16.1348 9.89453C15.2698 9.61824 14.6835 9.32708 14.2549 9.07129L17.9932 8.875ZM5.55664 2.15137C3.67939 2.15137 2.15137 3.67939 2.15137 5.55664V6.59375L21.8506 5.56445V5.55664C21.8506 3.67726 20.3228 2.14941 18.4434 2.14941H5.55664V2.15137Z" fill="#9E9E9E"/>
</g>
</svg>
