<svg width="24" height="24" viewBox="0 0 24 24" fill="none" xmlns="http://www.w3.org/2000/svg">
<g id="icons/Brand/lark">
<path id="Union" d="M15.7891 22.2451L11.1416 17.707L11.0684 13.5L15.7559 8.74121C16.0098 8.92298 16.2872 9.00506 16.5879 8.98828C17.0391 8.96303 17.331 8.69082 17.4678 8.53027C17.6044 8.36981 17.7643 8.1027 17.751 7.70605C17.7421 7.44145 17.6551 7.19708 17.4902 6.97363L21.0508 3.36426L15.7891 22.2451ZM16.9443 6.49512C16.3611 6.22787 15.8619 6.28553 15.4473 6.66699C15.2053 6.88976 15.0489 7.20384 15.0488 7.60059C15.0488 7.77754 15.1132 7.99757 15.2412 8.25977L10.4004 12.9795L6.19238 12.9062L1.65527 8.25977L20.5361 2.99707L16.9443 6.49512Z" fill="#9E9E9E"/>
</g>
</svg>
