<svg width="24" height="24" viewBox="0 0 24 24" fill="none" xmlns="http://www.w3.org/2000/svg">
<g id="icons/Brand/lincoln">
<path id="Union" d="M15.0947 1C16.1221 1 16.9826 1.77843 17.085 2.80078L17.9854 11.8008C17.987 11.8173 17.9861 11.834 17.9873 11.8506C17.9946 11.8994 18 11.9491 18 12C18 12.0489 17.9941 12.0966 17.9873 12.1436C17.986 12.1621 17.9872 12.1808 17.9854 12.1992L17.085 21.1992C16.9826 22.2216 16.1221 23 15.0947 23H8.90527C7.87796 22.9999 7.01737 22.2215 6.91504 21.1992L6.01465 12.1992C6.01297 12.1824 6.01297 12.1654 6.01172 12.1484C6.0045 12.1 6 12.0505 6 12C6 11.9492 6.00441 11.8994 6.01172 11.8506C6.01296 11.834 6.013 11.8173 6.01465 11.8008L6.91504 2.80078C7.01737 1.77847 7.87797 1.00006 8.90527 1H15.0947ZM8.90527 21H11V13H8.10449L8.90527 21ZM13 21H15.0947L15.8955 13H13V21ZM8.10449 11H11V3H8.90527L8.10449 11ZM13 11H15.8955L15.5049 7.09961C15.5047 7.09797 15.5041 7.09637 15.5039 7.09473L15.0947 3H13V11Z" fill="#9E9E9E"/>
</g>
</svg>
