<svg width="24" height="24" viewBox="0 0 24 24" fill="none" xmlns="http://www.w3.org/2000/svg">
<g id="icons/Brand/maill-one">
<path id="Union" d="M19.5 2C20.8807 2 22 3.1193 22 4.5V19.5C22 20.8807 20.8807 22 19.5 22H4.5C3.1193 22 2 20.8807 2 19.5V4.5C2 3.11929 3.11929 2 4.5 2H19.5ZM4.5 4C4.22386 4 4 4.22386 4 4.5V19.5C4 19.7762 4.22385 20 4.5 20H19.5C19.7762 20 20 19.7762 20 19.5V4.5C20 4.22385 19.7762 4 19.5 4H4.5ZM18.0049 7C18.0317 7.00015 18.0584 7.00162 18.085 7.00391C18.104 7.00551 18.1229 7.00808 18.1416 7.01074C18.1605 7.01346 18.1795 7.01574 18.1982 7.01953C18.2817 7.03632 18.361 7.06442 18.4355 7.10059C18.4765 7.12038 18.5165 7.14251 18.5547 7.16797C18.5628 7.1734 18.5702 7.17989 18.5781 7.18555C18.6616 7.24475 18.7368 7.31732 18.8008 7.40332C18.8101 7.41578 18.8204 7.42753 18.8291 7.44043L18.8848 7.5332C18.8902 7.5434 18.8944 7.55414 18.8994 7.56445C18.9218 7.61051 18.9409 7.65833 18.9561 7.70801C18.9711 7.75722 18.9811 7.80722 18.9883 7.85742C18.995 7.90406 19 7.95151 19 8V16C19 16.5523 18.5523 17 18 17H6C5.44772 17 5 16.5523 5 16V8C5 7.95156 5.00409 7.90402 5.01074 7.85742C5.01794 7.80726 5.02795 7.75717 5.04297 7.70801C5.05809 7.65837 5.0773 7.61048 5.09961 7.56445C5.10468 7.55401 5.10977 7.54353 5.11523 7.5332L5.1709 7.44043C5.17951 7.42769 5.18906 7.41563 5.19824 7.40332C5.26212 7.31734 5.33757 7.24477 5.4209 7.18555C5.42884 7.17989 5.43622 7.1734 5.44434 7.16797C5.48251 7.14249 5.52255 7.1204 5.56348 7.10059C5.63797 7.06437 5.71736 7.03639 5.80078 7.01953C5.8195 7.01573 5.83851 7.01347 5.85742 7.01074C5.87616 7.00807 5.895 7.00553 5.91406 7.00391C5.94099 7.00157 5.96802 7.00016 5.99512 7H18.0049ZM12.5547 12.832C12.2188 13.056 11.7812 13.056 11.4453 12.832L7 9.86816V15H17V9.86816L12.5547 12.832ZM12 10.7979L14.6973 9H9.30273L12 10.7979Z" fill="#9E9E9E"/>
</g>
</svg>
