<svg width="24" height="24" viewBox="0 0 24 24" fill="none" xmlns="http://www.w3.org/2000/svg">
<g id="icons/Brand/market">
<path id="Union" d="M12.1748 1.50098C17.863 1.59429 22.5 6.23418 22.5 12.0371L22.499 12.2119C22.4048 17.9183 17.7094 22.5 12 22.5L11.8252 22.499C6.13702 22.4057 1.50011 17.7658 1.5 12.0371C1.5 6.17486 6.23225 1.5 12 1.5L12.1748 1.50098ZM10.5332 14.8613C10.4515 14.8818 10.3696 14.8916 10.2891 14.8916L10.1943 14.8877C9.97683 14.867 9.77336 14.7749 9.61426 14.6309L8.77051 17.5703L8.75879 17.6357C8.65405 18.3939 9.53863 19.0136 10.458 18.5449L18.4502 13.998L18.5459 13.9414C19.1013 13.5912 19.3143 13.1292 19.1895 12.6934L10.5332 14.8613ZM8.99023 6.38867C8.38548 5.92492 7.41102 6.38176 7.35742 7.41016L7.29883 16.6045C7.29441 17.325 7.59508 17.7811 8.05957 17.8965L10.5098 9.31641L10.5371 9.23438C10.6485 8.9413 10.8865 8.72718 11.1689 8.63672L9.0459 6.43555L8.99023 6.38867ZM10.5312 5.63965C9.9501 5.33377 9.44371 5.37988 9.12891 5.70605L15.334 12.1182C15.5763 12.3684 15.662 12.7125 15.5938 13.0293L18.5615 12.291L18.6299 12.2656C19.3335 11.9737 19.4249 10.9021 18.5615 10.3418L10.6279 5.69434L10.5312 5.63965Z" fill="#9E9E9E"/>
</g>
</svg>
