<svg width="24" height="24" viewBox="0 0 24 24" fill="none" xmlns="http://www.w3.org/2000/svg">
<g id="icons/Brand/mediaeditor">
<path id="Union" d="M16 4.5C17.2385 4.5 18.2632 5.40105 18.4619 6.58301L21.5684 5.09766C22.0666 4.85934 22.664 5.07015 22.9023 5.56836C23.1407 6.06657 22.9298 6.66402 22.4316 6.90234L11.7734 11.999L22.4316 17.0977C22.9298 17.336 23.1407 17.9334 22.9023 18.4316C22.664 18.9298 22.0666 19.1407 21.5684 18.9023L18.4619 17.416C18.2636 18.5984 17.2388 19.5 16 19.5H3.5C2.1193 19.5 1 18.3807 1 17V15.5664C1.00009 15.1814 1.22105 14.8302 1.56836 14.6641L7.1377 12L1.56836 9.33594C1.22105 9.16981 1.00009 8.81858 1 8.43359V7C1 5.61925 2.1193 4.5 3.5 4.5H16ZM3 16.1963V17C3 17.2762 3.22385 17.5 3.5 17.5H16C16.2762 17.5 16.5 17.2762 16.5 17V16.4775L9.45508 13.1084L3 16.1963ZM3.5 6.5C3.22385 6.5 3 6.72385 3 7V7.80273L9.45605 10.8906L16.5 7.52148V7C16.5 6.72383 16.2762 6.5 16 6.5H3.5Z" fill="#9E9E9E"/>
</g>
</svg>
