<svg width="24" height="24" viewBox="0 0 24 24" fill="none" xmlns="http://www.w3.org/2000/svg">
<g id="icons/Brand/messages">
<path id="Union" d="M19.5 2C20.8807 2 22 3.1193 22 4.5V19.5C22 20.8807 20.8807 22 19.5 22H4.5C3.1193 22 2 20.8807 2 19.5V4.5C2 3.11929 3.11929 2 4.5 2H19.5ZM4.5 4C4.22386 4 4 4.22386 4 4.5V19.5C4 19.7762 4.22385 20 4.5 20H19.5C19.7762 20 20 19.7762 20 19.5V4.5C20 4.22385 19.7762 4 19.5 4H4.5ZM12.5 5.5C15.8137 5.5 18.5 8.18626 18.5 11.5C18.5 14.8137 15.8137 17.5 12.5 17.5H7.5C6.94772 17.5 6.5 17.0523 6.5 16.5V11.5C6.5 8.18626 9.18626 5.5 12.5 5.5ZM12.5 7.5C10.2908 7.5 8.5 9.29083 8.5 11.5V15.5H12.5C14.7092 15.5 16.5 13.7092 16.5 11.5C16.5 9.29083 14.7092 7.5 12.5 7.5ZM12 12.5C12.5523 12.5 13 12.9477 13 13.5C13 14.0523 12.5523 14.5 12 14.5H11C10.4477 14.5 10 14.0523 10 13.5C10 12.9477 10.4477 12.5 11 12.5H12ZM14 9.5C14.5523 9.5 15 9.94772 15 10.5C15 11.0523 14.5523 11.5 14 11.5H11C10.4477 11.5 10 11.0523 10 10.5C10 9.94772 10.4477 9.5 11 9.5H14Z" fill="#9E9E9E"/>
</g>
</svg>
