<svg width="24" height="24" viewBox="0 0 24 24" fill="none" xmlns="http://www.w3.org/2000/svg">
<g id="icons/Brand/messages-one">
<path id="Union" d="M19.5 2C20.8807 2 22 3.1193 22 4.5V19.5C22 20.8807 20.8807 22 19.5 22H4.5C3.1193 22 2 20.8807 2 19.5V4.5C2 3.11929 3.11929 2 4.5 2H19.5ZM4.5 4C4.22386 4 4 4.22386 4 4.5V19.5C4 19.7762 4.22385 20 4.5 20H19.5C19.7762 20 20 19.7762 20 19.5V4.5C20 4.22385 19.7762 4 19.5 4H4.5ZM12 6C15.212 6 18 8.36591 18 11.5C18 13.9279 16.3062 15.9114 14.0684 16.6641C13.4214 16.8816 12.7243 17 12 17C11.1397 17 10.1204 17.2202 9.27441 17.4619C8.8606 17.5802 8.50555 17.6986 8.25488 17.7871C8.12976 17.8313 8.03078 17.8676 7.96484 17.8926C7.9321 17.905 7.90743 17.9147 7.8916 17.9209C7.88414 17.9238 7.87843 17.9254 7.875 17.9268C7.8733 17.9274 7.87162 17.9285 7.87109 17.9287C7.49088 18.0806 7.05624 17.9855 6.77441 17.6885C6.49253 17.3912 6.4207 16.9518 6.59277 16.5801L7.1582 15.3574C7.23671 15.1878 7.22874 14.8669 6.96484 14.4941C6.35872 13.6384 6 12.6094 6 11.5C6 8.36591 8.78803 6 12 6ZM12 8C9.68917 8 8 9.66349 8 11.5C8 12.1686 8.21411 12.7978 8.59668 13.3379C8.97982 13.8789 9.27219 14.6296 9.18945 15.4131C10.0265 15.1974 11.0452 15 12 15C12.5069 15 12.9894 14.9173 13.4316 14.7686C14.9903 14.2442 16 12.9344 16 11.5C16 9.66349 14.3108 8 12 8Z" fill="#9E9E9E"/>
</g>
</svg>
