<svg width="24" height="24" viewBox="0 0 24 24" fill="none" xmlns="http://www.w3.org/2000/svg">
<g id="icons/Brand/mitsubishi">
<path id="Union" d="M12 3C12.3418 3 12.6602 3.17452 12.8438 3.46289L16.3438 8.96289C16.5522 9.29046 16.5522 9.70954 16.3438 10.0371L13.8223 14H18.667L18.791 14.0078C19.0772 14.0437 19.3368 14.202 19.499 14.4453L22.832 19.4453C23.0366 19.7521 23.0557 20.1466 22.8818 20.4717C22.7078 20.7968 22.3688 21 22 21H15.333C14.9988 20.9999 14.6864 20.8328 14.501 20.5547L12 16.8027L9.49902 20.5547C9.31362 20.8328 9.00121 20.9999 8.66699 21H2C1.63121 21 1.29218 20.7968 1.11816 20.4717C0.94427 20.1466 0.96345 19.7521 1.16797 19.4453L4.50098 14.4453C4.68638 14.1672 4.99879 14.0001 5.33301 14H10.1777L7.65625 10.0371C7.44781 9.70955 7.44781 9.29045 7.65625 8.96289L11.1562 3.46289L11.2314 3.36035C11.42 3.13376 11.7009 3.00001 12 3ZM3.86816 19H8.13184L10.1318 16H5.86816L3.86816 19ZM15.8682 19H20.1318L18.1318 16H13.8682L15.8682 19ZM9.68555 9.5L12 13.1367L14.3145 9.5L12 5.8623L9.68555 9.5Z" fill="#9E9E9E"/>
</g>
</svg>
