<svg width="24" height="24" viewBox="0 0 24 24" fill="none" xmlns="http://www.w3.org/2000/svg">
<g id="icons/Brand/new-lark">
<path id="Union" d="M13.8887 2.50391C14.1028 2.52363 14.3059 2.61271 14.4668 2.75781C16.0751 4.20846 17.0868 6.38398 17.5742 7.69824C18.0295 7.5302 18.4705 7.42564 18.8975 7.37402C20.5509 7.17426 21.7917 7.80457 22.417 8.0918C22.7607 8.24968 22.986 8.58783 22.999 8.96582C23.012 9.34389 22.8106 9.69678 22.4785 9.87793C21.517 10.4024 21.1772 11.3979 20.5723 13.1875C20.0027 14.8724 19.2452 16.9792 17.1475 18.7627C14.6171 20.9138 11.9243 21.5075 9.49707 21.5C5.95352 21.489 2.90637 19.7457 1.36426 18.4756C1.13362 18.2856 1 18.0019 1 17.7031V8.5C1.00002 8.44953 1.00448 8.40003 1.01172 8.35156C1.01393 8.3369 1.0157 8.32217 1.01855 8.30762C1.02806 8.25892 1.0423 8.21191 1.05859 8.16602C1.06402 8.15068 1.06902 8.1352 1.0752 8.12012C1.0812 8.10553 1.08806 8.09138 1.09473 8.07715C1.10143 8.06277 1.10784 8.04826 1.11523 8.03418C1.12103 8.0232 1.1276 8.01269 1.13379 8.00195C1.16026 7.95585 1.18957 7.91101 1.22363 7.86914C1.23047 7.86073 1.23801 7.85291 1.24512 7.84473C1.25882 7.82896 1.2723 7.81285 1.28711 7.79785C1.29858 7.7862 1.31121 7.77573 1.32324 7.76465C1.33289 7.75579 1.34248 7.74681 1.35254 7.73828L1.36426 7.72852C1.3739 7.72056 1.38361 7.71268 1.39355 7.70508C1.40657 7.69517 1.41997 7.68515 1.43359 7.67578C1.47021 7.65062 1.50834 7.62904 1.54688 7.60938C1.67153 7.54579 1.81094 7.50794 1.95898 7.50195C1.96974 7.50152 1.98046 7.50008 1.99121 7.5H2C2.0177 7.5 2.03526 7.50104 2.05273 7.50195C2.06479 7.5026 2.07686 7.50283 2.08887 7.50391C2.10861 7.50565 2.12806 7.50885 2.14746 7.51172C2.15884 7.51342 2.17032 7.51451 2.18164 7.5166L2.20117 7.52051C2.21803 7.52395 2.23444 7.52892 2.25098 7.5332C2.26038 7.53564 2.26997 7.53733 2.2793 7.54004C2.30314 7.54697 2.32654 7.55486 2.34961 7.56348C2.35635 7.56599 2.36343 7.56766 2.37012 7.57031C2.39319 7.57951 2.41531 7.59073 2.4375 7.60156C2.44601 7.6057 2.45449 7.60988 2.46289 7.61426C2.47454 7.62036 2.4857 7.62725 2.49707 7.63379C2.53887 7.65773 2.57979 7.68368 2.61816 7.71387L2.63574 7.72852C2.63947 7.7316 2.6428 7.73515 2.64648 7.73828C2.66225 7.75168 2.67834 7.76482 2.69336 7.7793L2.70703 7.79297C2.71567 7.80161 2.72313 7.81136 2.73145 7.82031C2.74301 7.83278 2.75462 7.84523 2.76562 7.8584C2.77203 7.86604 2.778 7.874 2.78418 7.88184C2.79755 7.89883 2.81179 7.91552 2.82422 7.93359C3.92873 9.54013 5.9614 11.7373 8.27734 13.5254C8.34898 13.5091 8.42343 13.5 8.5 13.5C9.8059 13.5 11.1641 12.9616 12.3428 11.9531C11.428 10.3121 10.1695 8.89697 8.88379 7.65918C8.17852 6.98021 7.47674 6.36501 6.82422 5.79297C6.18252 5.23042 5.56885 4.69309 5.08496 4.20215C4.80207 3.91512 4.71861 3.48606 4.87402 3.11426C5.02965 2.74237 5.39373 2.5 5.79688 2.5H13.7969L13.8887 2.50391ZM3 17.2139C4.40256 18.2566 6.81837 19.4916 9.50293 19.5C10.949 19.5045 12.4566 19.2621 13.9473 18.5098C13.7059 18.4716 13.4645 18.4246 13.2246 18.3662C11.6087 17.973 9.9673 17.1336 8.44336 16.1123C6.40182 14.744 4.48059 12.9866 3 11.3438V17.2139ZM20.0918 9.38184C19.7995 9.33246 19.4832 9.31749 19.1367 9.35938C18.1296 9.48124 16.6616 10.1177 14.7617 12.3516C13.6325 13.6793 12.2174 14.6628 10.6846 15.1523C11.7186 15.7461 12.7389 16.1896 13.6973 16.4229C14.9287 16.7225 15.986 16.6602 16.8564 16.2109C17.7898 15.0603 18.2528 13.804 18.6777 12.5469C19.0221 11.5282 19.3746 10.3474 20.0918 9.38184ZM8.38086 4.5C8.96871 5.01613 9.61763 5.58926 10.2715 6.21875C11.4936 7.39533 12.7687 8.79406 13.7803 10.4482C14.475 9.7002 15.1446 9.11013 15.791 8.65527C15.4219 7.58723 14.6115 5.74213 13.3955 4.5H8.38086Z" fill="#9E9E9E"/>
</g>
</svg>
