<svg width="24" height="24" viewBox="0 0 24 24" fill="none" xmlns="http://www.w3.org/2000/svg">
<g id="icons/Brand/new-dianziqian">
<path id="Union" d="M6 14.2764L7.5 13.4189V10.666L6 9.76562V14.2764ZM16.5 10.5801V13.333L18 14.2334V9.72266L16.5 10.5801ZM23 17.5C23 17.8343 22.8328 18.1466 22.5547 18.332L19.5547 20.332C19.2395 20.5421 18.8328 20.5561 18.5039 20.3682L11.999 16.6504L5.49609 20.3682C5.16719 20.5561 4.76047 20.5421 4.44531 20.332L1.44531 18.332C1.16716 18.1466 1 17.8343 1 17.5V6.5C1.00005 6.16571 1.16716 5.85339 1.44531 5.66797L4.44531 3.66797L4.56738 3.59863C4.86087 3.45773 5.20829 3.46743 5.49609 3.63184L12 7.34766L18.5039 3.63184L18.6309 3.57129C18.9333 3.45104 19.279 3.4842 19.5547 3.66797L22.5547 5.66797C22.8328 5.85339 22.9999 6.16571 23 6.5V17.5Z" fill="#9E9E9E"/>
</g>
</svg>
