<svg width="24" height="24" viewBox="0 0 24 24" fill="none" xmlns="http://www.w3.org/2000/svg">
<g id="icons/Brand/orange-station">
<path id="Union" d="M7.32617 11.3457C7.03905 12.1428 6.95372 13.0368 7.1084 13.959C7.49644 16.2711 9.40802 17.9471 11.6426 18.1299L12.4082 18.4023C12.7085 18.4994 13.1021 18.5949 13.5635 18.6621C14.2465 18.7616 14.9473 18.777 15.6406 18.6787C17.3236 18.4399 18.7421 17.5729 19.7295 15.9277L19.9521 15.5391C19.3463 18.8773 16.9684 21.9478 13.1689 22.6592C10.5248 23.1542 8.02527 22.4721 6.15723 20.9863C4.94156 18.6069 4.72523 16.461 5.28711 14.5459C5.55771 13.6237 6.02673 12.7986 6.64062 12.0674C6.85614 11.8108 7.08157 11.5753 7.31348 11.3584L7.32617 11.3457ZM6.15723 20.9863C6.16424 21.0001 6.17065 21.0146 6.17773 21.0283L6.15527 20.9854L6.15723 20.9863ZM8.69434 7.16797C9.94893 6.96999 11.9964 6.981 13.1455 8.26367C13.1619 8.28187 13.1461 8.31154 13.1221 8.30664C12.5085 8.18145 11.676 8.17884 11.0371 8.28613C9.69026 8.51214 8.60549 9.23027 7.90625 10.2275L7.66016 10.4131C7.54755 10.4999 7.4276 10.5947 7.3457 10.6631C6.96734 10.9795 6.60125 11.3371 6.25781 11.7461C5.60186 12.5274 5.09899 13.4123 4.80762 14.4053C4.29966 16.1366 4.38739 18.0407 5.20508 20.1016C4.49092 19.3242 3.91618 18.4031 3.52246 17.3721C2.60447 14.9675 2.88376 11.8382 4.46094 9.81836C5.58602 8.37767 7.24369 7.39697 8.69434 7.16797ZM15.8398 3.51953C18.1405 0.439289 20.8997 2.68919 21.2637 3.00879C21.2903 3.0323 21.3069 3.06436 21.3105 3.09961C21.3597 3.57685 21.4889 7.02162 14.8604 6.90527C16.6645 7.34748 18.5773 8.85128 19.3779 10.502C19.6461 11.0552 19.8533 11.6315 19.9629 12.2363C20.0694 12.8241 20.1156 13.4257 20.1035 14.0283C20.0771 14.1676 19.9862 14.3964 19.8447 14.6816L19.7871 14.7949L19.668 15.0215L19.3916 15.5146C18.4812 17.1269 17.1619 17.9578 15.5703 18.1836C14.9277 18.2747 14.2734 18.261 13.6348 18.168C13.4109 18.1353 13.2046 18.0948 13.0195 18.0518C14.4165 17.7787 15.5689 16.9462 16.2832 15.8281C16.4481 15.6081 16.5884 15.3658 16.6982 15.0957C17.2012 13.8578 17.2678 12.6244 16.8779 11.2412C16.2538 9.02744 14.5826 7.40722 12.4736 6.68066C12.4553 6.67431 12.455 6.64895 12.4736 6.64355C12.7511 6.563 13.9204 6.0892 15.8398 3.51953ZM6.86621 2.01465C7.59515 1.64 11.0192 0.057422 12.1377 6.52051C12.1273 6.50192 11.5299 5.43681 8.53027 4.80762C6.56257 4.39501 6.63585 2.75608 6.7002 2.24902C6.71307 2.14784 6.77559 2.06139 6.86621 2.01465Z" fill="#9E9E9E"/>
</g>
</svg>
