<svg width="24" height="24" viewBox="0 0 24 24" fill="none" xmlns="http://www.w3.org/2000/svg">
<g id="icons/Brand/pangle">
<path id="Union" d="M16.5968 10.0039L19.2257 11.5078C19.2823 11.5457 19.3203 11.6026 19.3204 11.6719V15.4121C19.3204 15.4816 19.2504 15.5199 19.1935 15.4883L16.5656 13.9844C16.5087 13.9465 16.4708 13.8898 16.4708 13.8203V10.0801C16.4708 10.0107 16.54 9.97257 16.5968 10.0039ZM11.9347 7.50977C11.9915 7.47818 12.0616 7.52283 12.0616 7.58594V13.8027C12.0616 13.872 12.0235 13.9351 11.9669 13.9668L9.33801 15.4707C9.28128 15.5022 9.2123 15.4647 9.21204 15.3955V9.17773C9.21219 9.1084 9.25003 9.04521 9.30676 9.01367L11.9347 7.50977ZM20.1857 12.0645L23.1671 13.7705C23.2429 13.8084 23.2117 13.9287 23.1232 13.9287H20.1407C20.0904 13.9285 20.0529 13.8903 20.0529 13.8398V12.1338C20.0531 12.0708 20.1226 12.0266 20.1857 12.0645ZM12.9269 7.93359L15.5558 9.4375C15.6124 9.46911 15.65 9.53228 15.6564 9.60156V13.8281C15.6564 13.8785 15.6188 13.9168 15.5685 13.917H12.8888C12.8384 13.9168 12.8009 13.8785 12.8009 13.8281V8.00977C12.8009 7.94037 12.8701 7.90226 12.9269 7.93359ZM8.34583 9.56348C8.40268 9.53193 8.47229 9.57015 8.47864 9.63965V13.8223C8.47857 13.8726 8.44112 13.91 8.39075 13.9102H1.08704C0.998586 13.9102 0.967276 13.7971 1.04309 13.7529L8.34583 9.56348Z" fill="#9E9E9E"/>
</g>
</svg>
