<svg width="24" height="24" viewBox="0 0 24 24" fill="none" xmlns="http://www.w3.org/2000/svg">
<g id="icons/Brand/paypal">
<path id="Union" d="M13.3163 1.50391C14.8102 1.54369 16.1854 1.88589 17.2274 2.66895C18.0848 3.3134 18.6433 4.20284 18.8759 5.29004C19.5622 5.47834 20.1893 5.76455 20.7274 6.16895C21.8844 7.03859 22.4999 8.35376 22.4999 10C22.4999 11.6462 21.8844 12.9614 20.7274 13.8311C19.6158 14.6664 18.125 15 16.5155 15H14.8749L13.9911 21.6318C13.9248 22.1286 13.5011 22.5 12.9999 22.5H8.49988C8.20687 22.5 7.92814 22.3715 7.73816 22.1484C7.5483 21.9254 7.46595 21.63 7.51257 21.3408L7.8905 19H4.99988C4.70687 19 4.42814 18.8715 4.23816 18.6484C4.0483 18.4254 3.96595 18.13 4.01257 17.8408L6.51257 2.34082C6.59072 1.85629 7.00909 1.50004 7.49988 1.5H13.0155L13.3163 1.50391ZM18.9286 7.42578C18.7374 8.64284 18.1584 9.63129 17.2274 10.3311C16.1158 11.1664 14.625 11.5 13.0155 11.5H11.1259L9.67371 20.5H12.1249L13.0087 13.8682L13.0253 13.7764C13.1282 13.3262 13.53 13 13.9999 13H16.5155C17.8901 13 18.8918 12.7083 19.5262 12.2314C20.1152 11.7886 20.4999 11.1035 20.4999 10C20.4999 8.89648 20.1152 8.21142 19.5262 7.76855C19.3543 7.63933 19.1546 7.52567 18.9286 7.42578ZM6.17371 17H8.21277L10.0126 5.84082C10.0907 5.35629 10.5091 5.00004 10.9999 5H16.5155L16.6649 5.00098C16.5007 4.7011 16.2831 4.46169 16.0262 4.26855C15.4711 3.85128 14.6347 3.57593 13.5135 3.51367L13.0155 3.5H8.35144L6.17371 17ZM11.4481 9.5H13.0155C14.3901 9.5 15.3918 9.20834 16.0262 8.73145C16.5182 8.36152 16.8659 7.82236 16.9677 7.01172L16.5155 7H11.8514L11.4481 9.5Z" fill="#9E9E9E"/>
</g>
</svg>
