<svg width="24" height="24" viewBox="0 0 24 24" fill="none" xmlns="http://www.w3.org/2000/svg">
<g id="icons/Brand/phone-two">
<path id="Union" d="M19.5 2C20.8807 2 22 3.1193 22 4.5V19.5C22 20.8807 20.8807 22 19.5 22H4.5C3.1193 22 2 20.8807 2 19.5V4.5C2 3.11929 3.11929 2 4.5 2H19.5ZM4.5 4C4.22386 4 4 4.22386 4 4.5V19.5C4 19.7762 4.22385 20 4.5 20H19.5C19.7762 20 20 19.7762 20 19.5V4.5C20 4.22385 19.7762 4 19.5 4H4.5ZM9.9375 6.01465C10.3652 6.07282 10.7523 6.30078 11.0107 6.64648L11.1289 6.8291L11.877 8.17676C12.1225 8.61902 12.1425 9.14832 11.9395 9.6084L11.9414 9.60938L11.54 10.5967C11.558 10.6644 11.5815 10.7447 11.6133 10.833C11.7204 11.1305 11.9033 11.4893 12.207 11.793C12.5108 12.0967 12.8695 12.2796 13.167 12.3867C13.2544 12.4182 13.3341 12.4411 13.4014 12.459L14.3838 12.0566V12.0576C14.7846 11.8796 15.2382 11.8709 15.6416 12.0342L15.8203 12.1201L17.1719 12.8711C17.6829 13.1554 17.9999 13.6943 18 14.2793V15.8311C18 17.2463 16.649 18.3766 15.1973 17.8867C13.6387 17.3608 11.0601 16.314 9.37305 14.627C7.68606 12.94 6.63924 10.3613 6.11328 8.80273C5.62346 7.35102 6.75368 6 8.16895 6H9.71973L9.9375 6.01465ZM8.16895 8C8.09174 8 8.04425 8.03311 8.02051 8.06445C8.00861 8.08022 8.00304 8.09481 8.00098 8.10645C7.99928 8.11619 7.998 8.13401 8.00781 8.16309C8.51962 9.67982 9.44869 11.8745 10.7871 13.2129C12.1256 14.5514 14.3202 15.4804 15.8369 15.9922C15.866 16.002 15.8838 16.0007 15.8936 15.999C15.9052 15.997 15.9198 15.9914 15.9355 15.9795C15.9669 15.9558 16 15.9083 16 15.8311V14.5078L15.0127 13.959L13.8799 14.4248C13.7636 14.4726 13.6396 14.4982 13.5146 14.5L13.3887 14.4941H13.3877L13.3857 14.4932C13.3848 14.4931 13.3838 14.4933 13.3828 14.4932C13.3805 14.4929 13.3779 14.4925 13.375 14.4922L13.293 14.4805C13.2444 14.4728 13.1796 14.461 13.1016 14.4443C12.9457 14.411 12.7335 14.3565 12.4893 14.2686C12.0053 14.0942 11.3634 13.7775 10.793 13.207C10.2225 12.6366 9.90576 11.9947 9.73145 11.5107C9.6435 11.2665 9.58896 11.0543 9.55566 10.8984C9.539 10.8204 9.52724 10.7556 9.51953 10.707L9.50781 10.625C9.50746 10.6221 9.50711 10.6195 9.50684 10.6172V10.6123L9.50586 10.6113C9.48734 10.4457 9.51045 10.2775 9.57324 10.123L10.0371 8.98242L9.49219 8H8.16895Z" fill="#9E9E9E"/>
</g>
</svg>
