<svg width="24" height="24" viewBox="0 0 24 24" fill="none" xmlns="http://www.w3.org/2000/svg">
<g id="icons/Brand/qingniao-clue">
<path id="Union" d="M2.69922 8.87305C2.70023 8.88704 2.70107 8.90104 2.70215 8.91504C2.73091 9.28922 2.7845 9.66576 2.86328 10.043C3.3982 12.6049 5.00288 14.6724 7.11621 15.8799C7.63756 16.1778 8.18985 16.4236 8.76465 16.6113C9.56237 16.8717 10.4035 17.0211 11.2656 17.0439C11.4574 17.049 11.6502 17.0476 11.8438 17.04C12.3274 17.0212 12.8161 16.9626 13.3057 16.8613C13.4762 16.826 13.6445 16.7857 13.8105 16.7412C13.8709 16.725 13.9296 16.7039 13.9893 16.6865L13.7295 16.2344C14.2571 15.9853 14.7233 15.751 15.1309 15.5371C15.7979 14.7108 16.3139 13.7408 16.624 12.6572C16.9831 11.4021 17.027 10.1313 16.8027 8.92969C16.5281 7.45931 15.8517 6.0917 14.8594 4.98047C16.1431 5.99208 17.1112 7.33685 17.6699 8.8457C18.1992 10.2752 18.3594 11.8518 18.0732 13.4326C18.1589 13.3373 18.2429 13.2402 18.3242 13.1377L18.7344 13.4619C18.6263 13.5921 18.5212 13.7104 18.4209 13.8213C18.4437 13.8018 18.4674 13.7825 18.4912 13.7627C19.0551 13.2938 19.8974 12.7307 20.8037 12.6104C20.9094 12.5963 21.0094 12.5861 21.1035 12.5791C21.2917 12.565 21.4579 12.5641 21.6064 12.5723C21.9775 12.5927 22.2388 12.6716 22.4609 12.75C22.6222 12.8067 22.7631 12.8627 22.9102 12.8975C23.0569 12.9321 23.21 12.9455 23.3965 12.9141L23.1816 13.0361C22.673 13.3465 22.105 13.8382 21.1318 14.6113C19.1706 16.1696 16.786 19.1863 11.9668 20.2969C11.9513 20.3005 11.9355 20.3031 11.9199 20.3066C10.3555 20.7766 8.64236 20.8226 6.9541 20.3438C5.19853 19.8459 3.7195 18.8528 2.625 17.5605C2.60457 17.5368 2.58269 17.5142 2.5625 17.4902C1.6584 16.4154 1.00002 15.1093 0.693359 13.6406C0.086673 10.7355 0.996865 7.86744 2.88574 5.85059C2.94659 5.78562 3.00843 5.72137 3.07129 5.6582L2.99512 5.91797C2.87441 6.35238 2.78669 6.79815 2.73438 7.25195C2.73269 7.26659 2.73111 7.28124 2.72949 7.2959C2.69 7.78025 2.67695 8.25134 2.69238 8.70801L2.7002 8.88379C2.69994 8.88026 2.69947 8.87657 2.69922 8.87305ZM9.34863 3.05859C10.523 3.05865 11.6631 3.29299 12.7119 3.72559C8.37652 4.94926 5.63684 9.26387 6.43555 13.7207C6.43609 13.7228 6.43637 13.7255 6.43652 13.7275C6.44872 13.7948 6.46184 13.8626 6.47559 13.9297C6.47643 13.934 6.47754 13.9383 6.47852 13.9424C6.48047 13.9516 6.4815 13.9615 6.4834 13.9707C6.49542 14.0281 6.50846 14.0849 6.52148 14.1416C6.52408 14.1526 6.52665 14.1637 6.5293 14.1748C6.5347 14.1984 6.54008 14.222 6.54688 14.2471C6.63552 14.6109 6.74715 14.9661 6.87988 15.3105C5.40473 14.2601 4.44093 12.9768 3.82031 11.6406C2.99515 9.86398 2.87542 7.81618 3.5166 5.24023C4.62539 4.27003 5.99338 3.56444 7.54102 3.24414C7.66302 3.2187 7.78528 3.19662 7.90723 3.17676C8.39072 3.09732 8.87264 3.05859 9.34863 3.05859ZM2.67969 8.02734C2.67927 8.04394 2.67903 8.06054 2.67871 8.07715C2.67691 8.1697 2.67657 8.26248 2.67773 8.35547C2.678 8.37694 2.67828 8.39843 2.67871 8.41992C2.67609 8.28863 2.6764 8.15775 2.67969 8.02734ZM2.69141 7.74219C2.68589 7.83696 2.68209 7.93203 2.67969 8.02734C2.68209 7.93203 2.6859 7.83696 2.69141 7.74219Z" fill="#9E9E9E"/>
</g>
</svg>
