<svg width="24" height="24" viewBox="0 0 24 24" fill="none" xmlns="http://www.w3.org/2000/svg">
<g id="icons/Brand/qiyehao">
<path id="Union" d="M19.5215 8.00098C19.529 8.00114 19.5365 8.00162 19.5439 8.00195C19.5689 8.00303 19.5937 8.00396 19.6182 8.00684C19.6283 8.00804 19.6383 8.0102 19.6484 8.01172C19.6705 8.015 19.6923 8.01874 19.7139 8.02344C19.7194 8.02465 19.7249 8.02604 19.7305 8.02734C19.8044 8.04479 19.8748 8.07068 19.9414 8.10352C19.9744 8.11971 20.0068 8.13727 20.0381 8.15723C20.0452 8.1618 20.0525 8.16615 20.0596 8.1709L20.0713 8.17871C20.1119 8.20699 20.1498 8.23962 20.1865 8.27441C20.1932 8.28075 20.2005 8.28645 20.207 8.29297L20.2227 8.30859C20.233 8.3194 20.242 8.33141 20.252 8.34277C20.2605 8.35251 20.2692 8.36201 20.2773 8.37207C20.2811 8.37672 20.2854 8.381 20.2891 8.38574C20.2947 8.39296 20.2993 8.40088 20.3047 8.4082C20.3169 8.42478 20.3287 8.44164 20.3398 8.45898C20.3467 8.46959 20.353 8.48043 20.3594 8.49121C20.37 8.50913 20.3801 8.52728 20.3896 8.5459C20.3938 8.55396 20.3975 8.56217 20.4014 8.57031C20.4118 8.59223 20.4228 8.61396 20.4316 8.63672C20.4355 8.64672 20.4388 8.65691 20.4424 8.66699C20.4493 8.68656 20.4552 8.70646 20.4609 8.72656C20.4645 8.73921 20.4676 8.75191 20.4707 8.76465C20.4751 8.78272 20.4791 8.80089 20.4824 8.81934C20.485 8.83364 20.4873 8.84794 20.4893 8.8623C20.4916 8.87945 20.4936 8.89665 20.4951 8.91406C20.4966 8.93132 20.4975 8.94854 20.498 8.96582C20.4984 8.97717 20.5 8.98856 20.5 9V16.1875C20.4999 17.191 20.0246 18.0332 19.3223 18.5684C19.2658 18.65 19.1967 18.7249 19.1143 18.7891L14.6143 22.2891C14.3103 22.5255 13.8972 22.5667 13.5527 22.3945L5.55273 18.3945C5.24276 18.2395 5.03505 17.935 5.00391 17.5898C4.97278 17.2447 5.12314 16.9081 5.40039 16.7002L9.40039 13.7002C9.40676 13.6954 9.41348 13.6911 9.41992 13.6865C9.43445 13.6762 9.44886 13.6658 9.46387 13.6562C9.47673 13.6481 9.48982 13.6404 9.50293 13.6328C9.52117 13.6224 9.53978 13.6128 9.55859 13.6035C9.56894 13.5984 9.57938 13.5936 9.58984 13.5889C9.60475 13.5822 9.61956 13.5753 9.63477 13.5693C9.65285 13.5622 9.67111 13.5558 9.68945 13.5498C9.70179 13.5458 9.71408 13.5416 9.72656 13.5381C9.74308 13.5334 9.7597 13.5292 9.77637 13.5254C9.79384 13.5214 9.81142 13.5177 9.8291 13.5146C9.84337 13.5122 9.85775 13.5106 9.87207 13.5088C9.887 13.5068 9.90196 13.5052 9.91699 13.5039C9.93521 13.5024 9.95344 13.5015 9.97168 13.501C9.98534 13.5006 9.999 13.5008 10.0127 13.501C10.031 13.5012 10.0492 13.5017 10.0674 13.5029C10.085 13.5041 10.1025 13.5057 10.1201 13.5078C10.1306 13.5091 10.1409 13.5111 10.1514 13.5127C10.1735 13.5161 10.1957 13.5195 10.2178 13.5244C10.2236 13.5257 10.2295 13.5269 10.2354 13.5283L10.2783 13.5391C10.2899 13.5424 10.301 13.547 10.3125 13.5508C10.3227 13.5541 10.3327 13.5579 10.3428 13.5615C10.3627 13.5688 10.3827 13.5763 10.4023 13.585C10.4137 13.5899 10.4244 13.5962 10.4355 13.6016C10.4455 13.6064 10.456 13.6101 10.4658 13.6152L14 15.4746V12.5C14 12.1916 14.1424 11.9004 14.3857 11.7109L18.8857 8.21094C18.8931 8.20521 18.9007 8.19983 18.9082 8.19434C18.9248 8.18214 18.9417 8.17036 18.959 8.15918C18.9696 8.15235 18.9804 8.14603 18.9912 8.13965C19.0091 8.12904 19.0273 8.11888 19.0459 8.10938C19.054 8.10526 19.0622 8.10154 19.0703 8.09766C19.0922 8.08721 19.114 8.07625 19.1367 8.06738C19.1467 8.06349 19.1569 8.0602 19.167 8.05664C19.1865 8.04974 19.2065 8.04378 19.2266 8.03809C19.2392 8.0345 19.2519 8.03139 19.2646 8.02832C19.2827 8.02396 19.3009 8.01997 19.3193 8.0166C19.3336 8.01399 19.348 8.01175 19.3623 8.00977C19.3794 8.00741 19.3967 8.00539 19.4141 8.00391C19.4199 8.00341 19.4258 8.00235 19.4316 8.00195L19.5 8C19.5072 8 19.5143 8.00083 19.5215 8.00098ZM7.89355 17.3281L13.8828 20.3232L15.915 18.7422L10.0928 15.6787L7.89355 17.3281ZM16 12.9883V16.5273L17.0342 17.0723C17.7 17.4227 18.4998 16.9399 18.5 16.1875V11.0439L16 12.9883ZM9.38574 1.71094C9.68972 1.47451 10.1028 1.43325 10.4473 1.60547L18.4473 5.60547C18.7572 5.76046 18.965 6.06499 18.9961 6.41016C19.0272 6.75532 18.8769 7.09186 18.5996 7.2998L14.5996 10.2998C14.5879 10.3086 14.5754 10.316 14.5635 10.3242C14.5586 10.3275 14.5537 10.3308 14.5488 10.334C14.5274 10.3481 14.5055 10.3608 14.4834 10.373C14.4737 10.3784 14.464 10.3836 14.4541 10.3887C14.4379 10.397 14.4217 10.4048 14.4053 10.4121C14.393 10.4176 14.3807 10.4228 14.3682 10.4277C14.3157 10.4486 14.2623 10.465 14.208 10.4766C14.2025 10.4777 14.1969 10.4784 14.1914 10.4795C14.1699 10.4837 14.1486 10.4875 14.127 10.4902C14.1052 10.4931 14.0834 10.4947 14.0615 10.4961C14.055 10.4965 14.0485 10.4978 14.042 10.498C14.0215 10.4989 14.001 10.4984 13.9805 10.498C13.9642 10.4977 13.9479 10.4972 13.9316 10.4961C13.914 10.4949 13.8965 10.4933 13.8789 10.4912C13.8684 10.4899 13.8581 10.4879 13.8477 10.4863C13.8255 10.4829 13.8033 10.4796 13.7812 10.4746C13.7715 10.4724 13.7617 10.4703 13.752 10.4678C13.73 10.4621 13.7083 10.4555 13.6865 10.4482C13.6763 10.4449 13.6663 10.4412 13.6562 10.4375C13.6363 10.4302 13.6163 10.4228 13.5967 10.4141C13.5854 10.4091 13.5746 10.4029 13.5635 10.3975C13.5539 10.3928 13.5436 10.3897 13.5342 10.3848L10 8.52441V11.5C9.99999 11.8084 9.85763 12.0996 9.61426 12.2891L5.11426 15.7891C5.10424 15.7969 5.09323 15.8032 5.08301 15.8105C5.07047 15.8196 5.05788 15.8285 5.04492 15.8369C5.03137 15.8457 5.01774 15.8542 5.00391 15.8623C4.98895 15.8711 4.97345 15.8787 4.95801 15.8867C4.94149 15.8953 4.92504 15.9036 4.9082 15.9111C4.8981 15.9157 4.8882 15.9206 4.87793 15.9248C4.85858 15.9327 4.83901 15.9397 4.81934 15.9463C4.80482 15.9512 4.7902 15.9557 4.77539 15.96C4.76084 15.9641 4.74611 15.9672 4.73145 15.9707C4.71427 15.9748 4.69719 15.9792 4.67969 15.9824C4.66734 15.9847 4.65498 15.9865 4.64258 15.9883C4.61966 15.9916 4.59663 15.9944 4.57324 15.9961C4.56738 15.9965 4.56153 15.9967 4.55566 15.9971C4.53721 15.9981 4.5187 16 4.5 16C4.49215 16 4.48437 15.9982 4.47656 15.998C4.46971 15.9979 4.4629 15.9974 4.45605 15.9971C4.43073 15.996 4.40566 15.9951 4.38086 15.9922C4.3707 15.991 4.3607 15.9888 4.35059 15.9873C4.32884 15.984 4.3074 15.9802 4.28613 15.9756C4.27864 15.9739 4.27113 15.9725 4.26367 15.9707C4.23919 15.9648 4.21515 15.9579 4.19141 15.9502C4.05251 15.9053 3.92289 15.8296 3.8125 15.7246C3.80615 15.7186 3.79916 15.7132 3.79297 15.707L3.77734 15.6914C3.76671 15.6803 3.75727 15.668 3.74707 15.6562C3.73857 15.6465 3.7298 15.637 3.72168 15.627C3.71821 15.6226 3.71435 15.6186 3.71094 15.6143C3.70303 15.6041 3.69593 15.5934 3.68848 15.583C3.67946 15.5705 3.67055 15.5579 3.66211 15.5449C3.65338 15.5315 3.64571 15.5176 3.6377 15.5039C3.62886 15.4888 3.62036 15.4736 3.6123 15.458C3.60377 15.4415 3.59543 15.425 3.58789 15.4082C3.58336 15.3981 3.57842 15.3882 3.57422 15.3779C3.56632 15.3586 3.55936 15.339 3.55273 15.3193C3.54784 15.3048 3.5433 15.2902 3.53906 15.2754C3.5349 15.2609 3.5318 15.2461 3.52832 15.2314C3.52424 15.2143 3.51978 15.1972 3.5166 15.1797C3.51565 15.1745 3.51454 15.1693 3.51367 15.1641L3.50488 15.1025C3.50429 15.0967 3.5044 15.0908 3.50391 15.085C3.50245 15.0677 3.50154 15.0505 3.50098 15.0332C3.50061 15.0222 3.50001 15.0111 3.5 15V7.8125C3.5 6.80835 3.97475 5.96407 4.67773 5.42871C4.73392 5.34785 4.80396 5.2746 4.88574 5.21094L9.38574 1.71094ZM6.96582 6.92773C6.29992 6.57726 5.5 7.05997 5.5 7.8125V12.9551L8 11.0107V7.47168L6.96582 6.92773ZM8.08496 5.25586L13.9062 8.31934L16.1055 6.6709L10.1162 3.67578L8.08496 5.25586Z" fill="#9E9E9E"/>
</g>
</svg>
