<svg width="24" height="24" viewBox="0 0 24 24" fill="none" xmlns="http://www.w3.org/2000/svg">
<g id="icons/Brand/renault">
<path id="Union" d="M15.1406 1.00977C15.4628 1.05546 15.7464 1.25641 15.8945 1.55273L20.8945 11.5527C20.8975 11.5587 20.8995 11.5652 20.9023 11.5713C20.912 11.5917 20.9195 11.6129 20.9277 11.6338C20.9348 11.6517 20.9422 11.6693 20.9482 11.6875C20.9551 11.7084 20.9603 11.7297 20.9658 11.751C20.9712 11.7718 20.9765 11.7924 20.9805 11.8135C20.9839 11.8313 20.9868 11.8492 20.9893 11.8672C20.9925 11.8913 20.9956 11.9153 20.9971 11.9395C20.9983 11.9596 20.998 11.9798 20.998 12C20.998 12.0199 20.9983 12.0397 20.9971 12.0596C20.9956 12.0838 20.9925 12.1077 20.9893 12.1318C20.9869 12.1498 20.9839 12.1677 20.9805 12.1855C20.9765 12.2066 20.9712 12.2272 20.9658 12.248C20.9603 12.2693 20.9551 12.2906 20.9482 12.3115C20.9423 12.3297 20.9348 12.3473 20.9277 12.3652C20.9195 12.3861 20.912 12.4073 20.9023 12.4277C20.8993 12.434 20.8977 12.441 20.8945 12.4473L15.8945 22.4473C15.7251 22.786 15.3788 23 15 23H9C8.62123 23 8.27486 22.786 8.10547 22.4473L3.10547 12.4473C3.10227 12.4409 3.09973 12.4342 3.09668 12.4277C3.08701 12.4073 3.07951 12.3861 3.07129 12.3652C3.06424 12.3473 3.05675 12.3297 3.05078 12.3115C3.0439 12.2906 3.03866 12.2693 3.0332 12.248C3.02787 12.2272 3.02252 12.2066 3.01855 12.1855C3.01517 12.1677 3.01217 12.1498 3.00977 12.1318C3.00657 12.1078 3.00338 12.0838 3.00195 12.0596C3.00166 12.0547 3.0012 12.0498 3.00098 12.0449V11.9551C3.00121 11.9499 3.00163 11.9447 3.00195 11.9395C3.00341 11.9153 3.00655 11.8913 3.00977 11.8672C3.01219 11.8492 3.01515 11.8313 3.01855 11.8135C3.02254 11.7925 3.02785 11.7718 3.0332 11.751C3.03868 11.7297 3.04389 11.7084 3.05078 11.6875C3.05676 11.6693 3.06423 11.6517 3.07129 11.6338C3.07953 11.6129 3.08699 11.5917 3.09668 11.5713C3.09961 11.5651 3.1024 11.5589 3.10547 11.5527L8.10547 1.55273L8.17676 1.43164C8.36169 1.16367 8.66854 1 9 1H15L15.1406 1.00977ZM9.61816 21H14.3818L18.3818 13H16.1182L13.8945 17.4473C13.7251 17.786 13.3788 18 13 18H11C10.6212 18 10.2749 17.786 10.1055 17.4473L7.88184 13H5.61816L9.61816 21ZM9.61816 12L11.6182 16H12.3818L14.3818 12L12.3818 8H11.6182L9.61816 12ZM5.61816 11H7.88184L10.1055 6.55273C10.2749 6.21395 10.6212 6 11 6H13C13.3788 6 13.7251 6.21395 13.8945 6.55273L16.1182 11H18.3818L14.3818 3H9.61816L5.61816 11Z" fill="#9E9E9E"/>
</g>
</svg>
