<svg width="24" height="24" viewBox="0 0 24 24" fill="none" xmlns="http://www.w3.org/2000/svg">
<g id="icons/Brand/sketch">
<path id="Union" d="M19.5 2C20.8807 2 22 3.11929 22 4.5V19.5C22 20.8807 20.8807 22 19.5 22H4.5C3.11929 22 2 20.8807 2 19.5V4.5C2 3.11929 3.11929 2 4.5 2H19.5ZM4.5 4C4.22386 4 4 4.22386 4 4.5V19.5C4 19.7761 4.22386 20 4.5 20H19.5C19.7761 20 20 19.7761 20 19.5V4.5C20 4.22386 19.7761 4 19.5 4H4.5ZM14.8154 7.00684C15.083 7.03791 15.3285 7.17607 15.4941 7.39258L17.2939 9.74512C17.5728 10.1096 17.5682 10.6177 17.2822 10.9766L12.7822 16.623C12.5925 16.8611 12.3045 17 12 17C11.6955 17 11.4075 16.8611 11.2178 16.623L6.71777 10.9766C6.43179 10.6177 6.42724 10.1096 6.70605 9.74512L8.50586 7.39258L8.58105 7.30469C8.76825 7.11111 9.02727 7.00005 9.2998 7H14.7002L14.8154 7.00684ZM8.76855 10.3398L12 14.3945L15.2305 10.3398L14.2061 9H9.79395L8.76855 10.3398Z" fill="#9E9E9E"/>
</g>
</svg>
