<svg width="24" height="24" viewBox="0 0 24 24" fill="none" xmlns="http://www.w3.org/2000/svg">
<g id="icons/Brand/star-one">
<path id="Union" d="M9.42993 1.43555C9.5173 0.990984 10.014 0.845928 10.2561 1.19434L14.3401 7.08008C14.4625 7.25658 14.4713 7.50758 14.3616 7.70312C13.2457 9.69062 11.3844 10.988 11.3713 10.9971C14.2925 10.4006 19.0189 7.26967 21.1819 5.75488C21.5672 5.48503 22.0188 5.91711 21.8508 6.39551C18.1892 16.8239 10.9651 21.5693 8.65845 22.8613C8.3327 23.0439 7.96857 22.7613 7.99927 22.3516L8.43579 16.5215L2.29907 14.04C1.95381 13.9002 1.8935 13.3723 2.19263 13.1113L8.15942 7.90332L9.42993 1.43555ZM18.9866 14.2246C19.1064 14.0575 19.3656 14.0421 19.5159 14.1875C20.8613 15.4914 21.3937 17.9756 21.5784 19.167C21.6185 19.4271 21.2959 19.6049 21.0569 19.4551L17.0862 16.9619C16.9138 16.8537 16.893 16.6315 17.0432 16.499C17.7947 15.8362 18.6087 14.7519 18.9866 14.2246Z" fill="#9E9E9E"/>
</g>
</svg>
