<svg width="24" height="24" viewBox="0 0 24 24" fill="none" xmlns="http://www.w3.org/2000/svg">
<g id="icons/Brand/taobao" clip-path="url(#clip0_56_4108)">
<path id="Union" d="M12 0C18.6274 0 24 5.3726 24 12C24 18.6274 18.6274 24 12 24C5.3726 24 0 18.6274 0 12C0 5.3726 5.3726 0 12 0ZM12 2.18164C6.57755 2.18164 2.18164 6.57755 2.18164 12C2.18164 17.4225 6.57755 21.8184 12 21.8184C17.4225 21.8184 21.8184 17.4225 21.8184 12C21.8184 6.57755 17.4225 2.18164 12 2.18164ZM11.3809 6.18164C11.3312 6.53132 11.2138 6.92724 11.0273 7.36914C11.6217 7.15502 12.1908 6.997 12.7334 6.89551C13.9267 6.67242 14.8541 6.54591 15.7734 6.5459C16.6928 6.5459 17.4006 6.55465 18.2979 7.2627C18.8561 7.70337 19.1994 8.28342 19.3281 9.00195L19.3525 9.1582V15.4951C19.3525 15.918 19.24 16.3545 19.0146 16.8047C18.8032 17.2269 18.3961 17.4663 17.7939 17.5215L17.6709 17.5293H13.9014C13.6604 16.825 13.6603 16.4096 13.9014 16.2822C14.2629 16.0912 15.6521 16.6032 16.2627 16.2822C16.6425 16.0823 16.836 15.7094 16.8428 15.165L16.8418 15.0459V9.06641C16.8418 8.13997 16.2749 7.49964 14.5293 7.59473C13.5817 7.64642 12.475 7.88183 11.21 8.30078L11.6201 8.42578L12.1162 8.59473V8.75684C12.1162 9.03279 12.3217 9.26195 12.5889 9.29785L12.6514 9.30273L16.2998 9.37305V10.377H13.5723V11.627H16.2998V12.4033H13.543L13.5723 14.8398C13.8294 14.8594 14.0831 14.8068 14.333 14.6826C14.5006 14.5994 14.632 14.4785 14.7266 14.3203L14.5449 13.9609L14.5439 13.96C14.4182 13.7102 14.5025 13.41 14.7305 13.2598L14.7861 13.2275L15.4121 12.9121C15.437 12.8996 15.4628 12.8884 15.4893 12.8799C15.7554 12.7936 16.0397 12.9235 16.1533 13.1719L16.1768 13.2314L16.5479 14.3779C16.6215 14.6051 16.5383 14.8512 16.3486 14.9883L16.2949 15.0225L15.8447 15.2734C15.8385 15.2769 15.8316 15.28 15.8252 15.2832C15.5757 15.4094 15.2747 15.3264 15.124 15.0986L15.0928 15.043L15.0859 15.0312C14.81 15.3306 14.5484 15.5601 14.3018 15.7197C13.8935 15.9838 13.4531 16.1993 12.9453 16.2334L12.8047 16.2383H10.1777C9.96468 16.2383 9.57834 16.0995 9.18164 15.7197C8.93929 15.4876 8.79175 15.1256 8.73926 14.6338L8.72754 14.4971V13.126H10.8057C10.8224 13.7187 10.8774 14.176 10.9717 14.4971C11.0597 14.7964 11.2929 14.9158 11.6709 14.8555L11.7549 14.8398V12.4033H8.72754V11.627H11.7549V10.377H11.1758L10.2578 11.5244L9.25879 10.8926C9.87308 10.2001 10.2486 9.7513 10.3857 9.54688C10.5057 9.36793 10.5217 9.07609 10.4316 8.6709L10.4092 8.58203L10.3887 8.58984C10.0348 9.12474 9.56587 9.64351 8.98242 10.1455L8.79102 10.3066L7.53809 9.06836C8.10858 8.62535 8.52616 8.21305 8.79102 7.83203C9.05587 7.45098 9.31348 6.77639 9.56348 5.80859L11.3809 6.18164ZM7.50391 10.5752C8.1524 11.1847 8.36354 12.1236 8.04688 12.9473L8.00195 13.0547L6.14746 17.208L4.10352 15.7881L6.7041 13.0342C6.73879 12.9974 6.77152 12.9582 6.80078 12.917C7.13219 12.4504 7.04483 11.812 6.61426 11.4502L6.54297 11.3955L4.68555 10.0762L5.71582 8.89355L7.50391 10.5752ZM6.81836 5.4541C7.57139 5.45419 8.18164 6.06526 8.18164 6.81836C8.18155 7.57133 7.57133 8.18155 6.81836 8.18164C6.06526 8.18164 5.45419 7.57139 5.4541 6.81836C5.4541 6.06521 6.06521 5.4541 6.81836 5.4541Z" fill="#9E9E9E"/>
</g>
<defs>
<clipPath id="clip0_56_4108">
<rect width="24" height="24" fill="white"/>
</clipPath>
</defs>
</svg>
