<svg width="24" height="24" viewBox="0 0 24 24" fill="none" xmlns="http://www.w3.org/2000/svg">
<g id="icons/Brand/telegram">
<path id="Union" d="M20.7101 3.6543C20.7432 3.6415 22.6506 2.9131 22.4904 4.73633C22.4364 5.4938 21.9511 8.14518 21.5734 11.0127L20.2784 19.5078C20.2784 19.5078 20.1697 20.7523 19.1984 20.9688C18.227 21.1849 16.7699 20.2115 16.5001 19.9951C16.282 19.8314 12.4533 17.397 11.1046 16.207C10.7269 15.8824 10.295 15.2331 11.1583 14.4756L16.8243 9.06543C17.4719 8.41613 18.1192 6.90058 15.421 8.74023L7.86633 13.8809C7.85203 13.8897 6.98923 14.4175 5.38391 13.9346L1.87708 12.8525C1.87708 12.8525 0.581614 12.0411 2.79407 11.2295C8.19034 8.68644 14.8282 6.0891 20.7101 3.6543Z" fill="#9E9E9E"/>
</g>
</svg>
