<svg width="24" height="24" viewBox="0 0 24 24" fill="none" xmlns="http://www.w3.org/2000/svg">
<g id="icons/Brand/tencent-qq">
<path id="Union" d="M11.8958 1.5C16.5777 1.50014 18.4817 5.55289 18.4817 9.58594C18.4817 9.82421 18.4698 10.2847 18.469 10.3164L19.4143 12.6748L19.7922 13.6924C19.9119 14.0276 20.0219 14.3541 20.1155 14.6553C21.0084 17.5288 20.7194 18.7184 20.4993 18.7451C20.0294 18.8015 18.6763 16.6095 18.6594 16.582C18.6593 17.8683 17.9954 19.5452 16.5618 20.7568C17.0979 20.922 17.7571 21.1751 18.1799 21.4873C18.5588 21.767 18.512 22.0526 18.4436 22.168C18.1436 22.6744 13.2954 22.4916 11.8958 22.334C10.4961 22.4916 5.64892 22.6744 5.34888 22.168C5.28058 22.0528 5.23307 21.7672 5.61255 21.4873C6.03486 21.1754 6.69276 20.922 7.22876 20.7568C5.79574 19.5453 5.13317 17.8681 5.13306 16.582C5.12165 16.6005 3.7642 18.8012 3.29321 18.7451C3.07298 18.7186 2.783 17.529 3.67603 14.6553C3.76965 14.354 3.88059 14.0278 4.00024 13.6924L4.37817 12.6748L5.32251 10.3164C5.32154 10.286 5.31081 9.82487 5.31079 9.58594C5.31079 5.5533 7.21413 1.50036 11.8958 1.5ZM16.8782 13.2988C15.3181 13.608 13.7101 13.7995 12.3303 13.8193H11.4612C11.2002 13.8156 10.931 13.8046 10.6555 13.7891V16.6113C9.2125 16.8125 7.77202 16.5255 7.7522 16.5215V13.4531C7.47205 13.4058 7.19197 13.3541 6.91333 13.2988C6.78565 14.1158 6.71401 15.1199 6.78442 16.3008C6.97647 19.5178 8.8872 21.54 11.8362 21.5693H11.9563C14.9054 21.54 16.8157 19.5178 17.0081 16.3008C17.0785 15.1196 17.006 14.1159 16.8782 13.2988ZM11.885 7.96191C9.76905 7.96191 8.059 8.38092 7.88892 8.75684C7.88095 8.77351 7.87738 8.79208 7.8772 8.81055C7.8775 8.83641 7.88577 8.86163 7.90063 8.88281C8.04368 9.09111 9.94176 10.1221 11.885 10.1221H11.9075C13.8506 10.1221 15.7488 9.09141 15.8918 8.88281C15.9067 8.86165 15.9151 8.83644 15.9153 8.81055C15.9151 8.7921 15.9106 8.77349 15.9026 8.75684C15.7326 8.38108 14.0232 7.96192 11.9075 7.96191H11.885ZM10.1057 4.125C9.47076 4.15407 8.98436 4.92378 9.0188 5.84375C9.05307 6.76345 9.59567 7.4867 10.2307 7.45801C10.8654 7.42971 11.3523 6.66047 11.3176 5.74023C11.2832 4.82003 10.7402 4.09654 10.1057 4.125ZM13.6877 4.125C13.0532 4.09669 12.5103 4.82003 12.4758 5.74023C12.4411 6.66038 12.9279 7.42956 13.5627 7.45801C14.1978 7.4867 14.7405 6.76331 14.7747 5.84375C14.8093 4.92377 14.3227 4.15406 13.6877 4.125ZM10.4602 5.2627C10.7355 5.2271 10.9822 5.49402 11.011 5.85742C11.0399 6.22055 10.8407 6.54277 10.5667 6.57812C10.2919 6.61347 10.046 6.34777 10.0168 5.98438C9.98815 5.62086 10.1866 5.29795 10.4602 5.2627ZM12.7561 5.97852C12.8125 5.87758 13.1945 5.34961 13.9856 5.54199C14.1936 5.59264 14.2895 5.66709 14.3098 5.69629C14.3397 5.73949 14.3481 5.80091 14.3176 5.88379C14.2575 6.04789 14.1334 6.04384 14.0647 6.01172C14.0202 5.99102 13.4691 5.62358 12.9612 6.17188C12.9262 6.20917 12.8638 6.22191 12.8049 6.17773C12.7455 6.13278 12.7211 6.04157 12.7561 5.97852Z" fill="#9E9E9E"/>
</g>
</svg>
