<svg width="24" height="24" viewBox="0 0 24 24" fill="none" xmlns="http://www.w3.org/2000/svg">
<g id="icons/Brand/tiktok">
<path id="Union" d="M16.1533 1.42188C16.6572 1.47289 17.0511 1.89868 17.0518 2.41602V3.66602L17.0625 3.83105C17.1123 4.21438 17.3346 4.5967 17.71 4.96973C18.1357 5.39278 18.6663 5.70744 19.0205 5.87207C19.474 6.0828 20.0429 6.23969 20.7441 6.32422C21.2464 6.38479 21.624 6.81146 21.624 7.31738V10.5557C21.6239 11.0773 21.2232 11.5117 20.7031 11.5527C20.4739 11.5708 20.1897 11.5432 19.9199 11.5078C19.626 11.4692 19.2609 11.4082 18.8301 11.3271C18.2325 11.2147 17.5895 10.9801 16.9043 10.6465V15.4463C16.9043 15.7946 16.8607 17.5206 15.9902 19.1943C15.5473 20.046 14.8794 20.9051 13.8799 21.5479C12.8757 22.1936 11.5946 22.5839 9.98926 22.584C6.73986 22.584 4.58946 20.9959 3.55957 18.8438C2.56217 16.7592 2.64836 14.2151 3.64844 12.2637C4.30881 10.9753 5.25122 9.99093 6.47852 9.36133C7.6955 8.73711 9.12786 8.49418 10.7266 8.57129C11.0403 8.58642 11.3138 8.74572 11.4863 8.98242C11.4875 7.16694 11.4888 4.97791 11.4922 2.41602C11.4929 1.86431 11.9405 1.41709 12.4922 1.41699H16.0518L16.1533 1.42188ZM13.4912 3.41699C13.4819 10.6979 13.4822 14.6973 13.4922 15.4326C13.5033 16.2535 13.1997 17.182 12.5977 17.917C11.9742 18.6781 11.0155 19.246 9.76758 19.2461C8.52097 19.2461 7.56671 18.6807 6.94434 17.9443C6.3454 17.2357 6.02642 16.3389 6.02637 15.5625C6.02637 14.7013 6.32614 13.4268 7.55859 12.4951C8.14707 12.0503 8.85138 11.8453 9.67871 11.7646V10.5703C8.77065 10.6218 8.01503 10.8209 7.3916 11.1406C6.57246 11.5608 5.91719 12.2228 5.42871 13.1758C4.70573 14.5864 4.64248 16.4738 5.36328 17.9805C6.05202 19.4197 7.48939 20.584 9.98926 20.584C11.2583 20.5839 12.154 20.2793 12.7979 19.8652C13.4464 19.4482 13.8986 18.8814 14.2158 18.2715C14.8652 17.0229 14.9043 15.6811 14.9043 15.4463V8.9375C14.9044 8.57297 15.1035 8.23729 15.4229 8.06152C15.7422 7.88599 16.1316 7.89785 16.4395 8.09277C17.6261 8.84437 18.538 9.23668 19.2002 9.36133C19.3534 9.39016 19.4948 9.41421 19.624 9.43652V8.16211C19.105 8.04869 18.6211 7.89253 18.1777 7.68652C17.6778 7.4542 16.9343 7.01907 16.2998 6.38867C15.6687 5.76152 15.0518 4.842 15.0518 3.66602C15.0518 3.63541 15.0529 3.60513 15.0557 3.5752L15.0527 3.6084C15.0521 3.61987 15.0519 3.62874 15.0518 3.63184V3.41699H13.4912ZM11.4873 13.3047C11.3056 13.5554 11.012 13.7197 10.6787 13.7197C9.5104 13.7197 9.03666 13.8852 8.76465 14.0908C8.16824 14.5418 8.02637 15.1356 8.02637 15.5625C8.02643 15.8381 8.15918 16.2835 8.47168 16.6533C8.7609 16.9955 9.17857 17.2461 9.76758 17.2461C10.355 17.246 10.7667 16.9962 11.0508 16.6494C11.356 16.2766 11.4968 15.8059 11.4922 15.46C11.4884 15.1828 11.4884 14.4639 11.4873 13.3047ZM16.9863 3.31348C16.9852 3.31022 16.9845 3.30667 16.9834 3.30371C16.9822 3.30088 16.98 3.29819 16.9785 3.29492C16.981 3.30115 16.984 3.30718 16.9863 3.31348ZM16.8018 3.00586C16.8 3.00364 16.7986 3.00118 16.7969 2.99902C16.7948 2.99722 16.7922 2.99594 16.79 2.99414C16.7938 2.99822 16.7981 3.00172 16.8018 3.00586Z" fill="#9E9E9E"/>
</g>
</svg>
