<svg width="24" height="24" viewBox="0 0 24 24" fill="none" xmlns="http://www.w3.org/2000/svg">
<g id="icons/Brand/topbuzz">
<path id="Union" d="M6.39734 1.61621L6.55066 1.64062L21.1913 4.75293C22.0103 4.927 22.5333 5.73181 22.3593 6.55078L21.3934 11.0947C21.2192 11.9137 20.4143 12.4366 19.5956 12.2627L16.0292 11.5039C15.5935 13.5538 14.9841 16.4253 14.1991 20.1182C14.025 20.9372 13.2194 21.4604 12.4003 21.2861V21.2852L7.8573 20.3203C7.03867 20.1461 6.5154 19.3415 6.68933 18.5225L8.51941 9.9082L4.95496 9.15039C4.13634 8.97622 3.61314 8.1715 3.78699 7.35254L4.75281 2.80859L4.79285 2.6582C5.01213 1.97569 5.68455 1.53904 6.39734 1.61621ZM5.84265 7.29395L9.66003 8.10547C9.89314 8.155 10.2362 8.28894 10.4657 8.63867C10.6964 8.99032 10.681 9.35989 10.6307 9.59668V9.59766C10.2065 11.5936 9.5781 14.5489 8.74597 18.4639L12.3427 19.2295C13.1747 15.315 13.8032 12.3598 14.2274 10.3643C14.2852 10.0924 14.4483 9.73827 14.8309 9.52441C15.096 9.37642 15.3627 9.35566 15.5712 9.37402L15.7577 9.40234L19.538 10.2051L20.3016 6.60742L6.60828 3.69629L5.84265 7.29395Z" fill="#9E9E9E"/>
</g>
</svg>
