<svg width="24" height="24" viewBox="0 0 24 24" fill="none" xmlns="http://www.w3.org/2000/svg">
<g id="icons/Brand/tuchong">
<path id="Union" d="M11.5 3.5C12.0523 3.5 12.5 3.94772 12.5 4.5V7.5C12.5 8.05228 12.0523 8.5 11.5 8.5H6.5V15.5H17.5V14C17.5 13.4477 17.9477 13 18.5 13H21.5C22.0523 13 22.5 13.4477 22.5 14V19.5C22.5 20.0523 22.0523 20.5 21.5 20.5H2.5C1.94772 20.5 1.5 20.0523 1.5 19.5V4.5C1.5 3.94772 1.94772 3.5 2.5 3.5H11.5ZM3.5 18.5H20.5V15H19.5V16.5C19.5 17.0523 19.0523 17.5 18.5 17.5H5.5C4.94772 17.5 4.5 17.0523 4.5 16.5V7.5L4.50488 7.39746C4.55621 6.89333 4.98232 6.5 5.5 6.5H10.5V5.5H3.5V18.5ZM17.5 3.5C18.0523 3.5 18.5 3.94772 18.5 4.5C18.5 5.34586 18.7107 5.92165 19.082 6.29297C19.4534 6.66429 20.1541 7 21.5 7C22.0523 7 22.5 7.44772 22.5 8V11C22.5 11.5523 22.0523 12 21.5 12C19.2945 12 17.2934 11.3093 15.8311 9.99316C14.3578 8.66722 13.5 6.76611 13.5 4.5C13.5 3.94772 13.9477 3.5 14.5 3.5H17.5ZM15.5771 5.5C15.7754 6.75962 16.349 7.76884 17.1689 8.50684C18.0073 9.26133 19.1469 9.77038 20.5 9.93848V8.94238C19.3159 8.80258 18.361 8.40009 17.668 7.70703C17.0438 7.08283 16.7179 6.30936 16.5811 5.5H15.5771Z" fill="#9E9E9E"/>
</g>
</svg>
