<svg width="24" height="24" viewBox="0 0 24 24" fill="none" xmlns="http://www.w3.org/2000/svg">
<g id="icons/Brand/tumblr">
<path id="Union" d="M19.5 2C20.8807 2 22 3.1193 22 4.5V19.5C22 20.8807 20.8807 22 19.5 22H4.5C3.1193 22 2 20.8807 2 19.5V4.5C2 3.11929 3.11929 2 4.5 2H19.5ZM4.5 4C4.22386 4 4 4.22386 4 4.5V19.5C4 19.7762 4.22385 20 4.5 20H19.5C19.7762 20 20 19.7762 20 19.5V4.5C20 4.22385 19.7762 4 19.5 4H4.5ZM13 8.5H15.5V11H13V14.5C13 14.5 13 15.25 14 15.5C15 15.75 16.5 15 16.5 15L15.5 18H13C11.25 18 10 16.25 10 15V11H7.5V8.5H10V7L13 6V8.5Z" fill="#9E9E9E"/>
</g>
</svg>
