<svg width="24" height="24" viewBox="0 0 24 24" fill="none" xmlns="http://www.w3.org/2000/svg">
<g id="icons/Brand/twitter">
<path id="Union" d="M14.8896 2.5293C15.8377 2.43406 16.7355 2.56588 17.5479 2.96387C18.2338 3.30006 18.8136 3.80639 19.2979 4.44434C19.7138 4.47309 20.2047 4.30685 20.8213 3.7373C21.1131 3.46789 21.5375 3.3965 21.9014 3.55566C22.2649 3.71493 22.4998 4.07476 22.5 4.47168C22.5 5.88491 22.2337 6.80723 21.8535 7.52734C21.673 7.86923 21.4753 8.14617 21.3271 8.35742C21.2316 8.49367 21.159 8.59992 21.1006 8.69531C21.1158 11.1965 21.2498 16.8675 15.9395 20.1855C13.1036 21.9571 9.77571 21.649 7.18945 20.9365C4.57739 20.2169 2.49929 19.0227 2.0166 18.7559C1.58664 18.5181 1.39262 18.0031 1.55957 17.541C1.72672 17.0792 2.205 16.8065 2.6875 16.8984C3.63959 17.0798 4.88828 16.905 6.47559 16.2529C4.82661 15.1997 3.64948 13.9314 3.06348 12.4092C1.97249 9.57482 2.52769 7.02676 3.0293 5.09961C3.13044 4.71195 3.45332 4.42137 3.84961 4.3623C4.24604 4.30329 4.63993 4.48754 4.84961 4.8291C5.55521 5.97917 6.54635 7.23259 7.7207 7.98242C8.6896 8.60096 9.75707 8.86817 10.9678 8.45605C10.9301 7.12394 11.1114 5.86362 11.6123 4.83594C12.2324 3.56399 13.3288 2.68612 14.8896 2.5293ZM16.668 4.75977C16.238 4.54913 15.7233 4.45593 15.0898 4.51953C14.2779 4.6011 13.7536 5.00754 13.4102 5.71191C13.0386 6.47414 12.8802 7.60552 13 9.01855C13.0345 9.42484 12.8189 9.81204 12.4551 9.99609C10.2514 11.1104 8.24166 10.6876 6.64453 9.66797C5.83223 9.14932 5.11981 8.47529 4.51465 7.76953C4.35416 9.0085 4.39979 10.3112 4.93066 11.6904C5.44736 13.0326 6.74168 14.3019 9.08887 15.4082C9.42977 15.5689 9.65139 15.9075 9.66211 16.2842C9.6727 16.6608 9.4708 17.0117 9.13965 17.1914C8.10133 17.7542 7.10381 18.1939 6.15625 18.4961C6.64443 18.6794 7.1697 18.856 7.7207 19.0078C10.107 19.6653 12.7517 19.8188 14.8799 18.4893C19.3104 15.721 19.1006 10.9897 19.1006 8.44336C19.1006 8.29449 19.1341 8.14706 19.1982 8.0127C19.3517 7.69134 19.5426 7.41939 19.6895 7.20996C19.8459 6.98688 19.9719 6.80792 20.085 6.59375C20.1236 6.52054 20.1599 6.439 20.1973 6.34961C19.6313 6.49245 19.0403 6.49137 18.4316 6.30957C18.2058 6.24208 18.0101 6.09749 17.8809 5.90039C17.5089 5.33332 17.1 4.97153 16.668 4.75977Z" fill="#9E9E9E"/>
</g>
</svg>
