<svg width="24" height="24" viewBox="0 0 24 24" fill="none" xmlns="http://www.w3.org/2000/svg">
<g id="icons/Brand/ulikecam">
<path id="Union" d="M11 3C16.5228 3 21 7.47717 21 13C21 18.5228 16.5228 23 11 23C5.47717 23 1 18.5228 1 13C1 7.47717 5.47717 3 11 3ZM11 5C6.58173 5 3 8.58173 3 13C3 17.4183 6.58173 21 11 21C15.4183 21 19 17.4183 19 13C19 8.58173 15.4183 5 11 5ZM20.5 1C21.8807 1 23 2.1193 23 3.5C23 4.8807 21.8807 6 20.5 6C19.1193 6 18 4.8807 18 3.5C18 2.1193 19.1193 1 20.5 1ZM20.5 3C20.2238 3 20 3.22385 20 3.5C20 3.77615 20.2238 4 20.5 4C20.7762 4 21 3.77615 21 3.5C21 3.22385 20.7762 3 20.5 3Z" fill="#9E9E9E"/>
</g>
</svg>
