<svg width="24" height="24" viewBox="0 0 24 24" fill="none" xmlns="http://www.w3.org/2000/svg">
<g id="icons/Brand/vigo">
<path id="Union" d="M11.6113 0.951172C12.0617 1.01063 12.5097 1.26433 12.8623 1.50879C13.6238 2.03682 14.5149 2.93235 15.1934 4.00098C15.6566 4.73086 15.8618 5.53813 15.9492 6.27246C15.9641 6.23848 15.9805 6.20557 15.9941 6.17285C16.1393 5.82419 16.1504 5.6947 16.1504 5.7334C16.1504 5.40259 16.3145 5.09249 16.5879 4.90625C16.8613 4.72029 17.2089 4.68165 17.5166 4.80273C17.7965 4.91303 18.032 5.09696 18.1992 5.24512C18.379 5.40452 18.5511 5.58719 18.7031 5.76172C19.0067 6.11017 19.2883 6.49297 19.459 6.72266C19.8307 7.22288 20.1933 7.76707 20.4697 8.43066C20.6701 8.91161 20.8709 9.30082 21.082 9.95508C21.4546 11.11 21.625 12.3124 21.625 13.5576C21.6247 18.82 17.3023 23.0625 12 23.0625C6.69769 23.0625 2.37526 18.82 2.375 13.5576C2.375 10.8967 3.55556 8.8267 4.79785 6.9082C4.99492 6.60389 5.27391 6.21896 5.57031 5.86426C5.84916 5.53061 6.21169 5.13917 6.57617 4.89844H6.57715C6.79633 4.75389 7.21294 4.58525 7.67871 4.79199C8.05753 4.96037 8.22218 5.28082 8.27734 5.39844C8.29559 5.43743 8.30872 5.47833 8.32324 5.5166C8.67034 5.26674 9.01816 4.96188 9.26172 4.64355C9.45474 4.39121 9.68615 3.94818 9.87109 3.44336C10.0587 2.93096 10.1522 2.4783 10.1523 2.21484C10.1523 1.92707 10.24 1.50274 10.6211 1.20215C10.9777 0.92112 11.3791 0.920595 11.6113 0.951172ZM11.9893 3.35547C11.9222 3.62057 11.8404 3.88408 11.75 4.13086C11.5241 4.74753 11.2069 5.39127 10.8496 5.8584C10.1795 6.73429 9.14507 7.4437 8.41406 7.78516C8.17001 7.89911 7.82665 7.97353 7.45898 7.84277C7.18388 7.74485 7.00251 7.56762 6.8877 7.41699C6.728 7.62413 6.58385 7.82944 6.47656 7.99512C5.25769 9.87745 4.375 11.5217 4.375 13.5576C4.37526 17.689 7.77573 21.0625 12 21.0625C16.2243 21.0625 19.6247 17.689 19.625 13.5576C19.625 12.4971 19.4803 11.5043 19.1787 10.5693C19.0006 10.0173 18.8852 9.8285 18.623 9.19922C18.4369 8.75237 18.1836 8.35791 17.8545 7.91504C17.7697 7.80098 17.6719 7.67 17.5674 7.53418C17.4623 7.74496 17.3482 7.95792 17.2305 8.16309C17.0011 8.56268 16.743 8.9612 16.4912 9.28027C16.3664 9.4384 16.2261 9.59819 16.0781 9.73242C15.9583 9.84116 15.7177 10.0427 15.3896 10.1191C15.1657 10.1712 14.8592 10.1705 14.5645 9.99512C14.293 9.83338 14.1605 9.59925 14.0986 9.45312C13.9886 9.193 13.979 8.91346 13.9756 8.77441C13.9685 8.48289 14.0007 7.95704 14.0078 7.5918C14.0254 6.69002 13.9456 5.76786 13.5049 5.07324C13.049 4.35521 12.4754 3.74968 11.9893 3.35547ZM9.04883 10.6865C9.60641 9.95788 10.6049 9.72091 11.4307 10.1211L11.6045 10.2158L15.7969 12.7998C15.9921 12.9202 16.157 13.085 16.2773 13.2803L16.3496 13.4121C16.674 14.0823 16.4446 14.9027 15.7969 15.3018L11.6045 17.8857C11.2988 18.074 10.9462 18.1748 10.5869 18.1748C9.51636 18.1746 8.64869 17.3058 8.64844 16.2354V11.8672C8.64844 11.508 8.74833 11.1552 8.93652 10.8496L9.04883 10.6865Z" fill="#9E9E9E"/>
</g>
</svg>
