<svg width="24" height="24" viewBox="0 0 24 24" fill="none" xmlns="http://www.w3.org/2000/svg">
<g id="icons/Brand/volkswagen">
<path id="Union" d="M12 1C12.1876 1 12.3742 1.00438 12.5596 1.01367C12.5824 1.01482 12.6051 1.01727 12.6279 1.01855C12.7795 1.02709 12.9302 1.03812 13.0801 1.05273C13.1559 1.06012 13.2313 1.07018 13.3066 1.0791C13.4073 1.09103 13.5076 1.10354 13.6074 1.11816C13.6862 1.1297 13.7645 1.14305 13.8428 1.15625C13.9386 1.17242 14.034 1.18938 14.1289 1.20801C14.2028 1.2225 14.2763 1.23795 14.3496 1.25391C14.4543 1.2767 14.5585 1.30042 14.6621 1.32617C14.7301 1.34307 14.7978 1.36075 14.8652 1.37891C14.9571 1.40364 15.0487 1.42901 15.1396 1.45605C15.2228 1.48077 15.3054 1.50659 15.3877 1.5332C15.4689 1.55947 15.5495 1.58714 15.6299 1.61523C15.7133 1.64439 15.7964 1.67398 15.8789 1.70508C15.9622 1.73646 16.0447 1.76941 16.127 1.80273C16.1979 1.83148 16.2687 1.86045 16.3389 1.89062C16.443 1.93538 16.546 1.98242 16.6484 2.03027C16.6995 2.05414 16.7511 2.07694 16.8018 2.10156C16.9164 2.15725 17.0293 2.21589 17.1416 2.27539C17.181 2.29626 17.2207 2.31656 17.2598 2.33789C17.56 2.50165 17.8523 2.67809 18.1348 2.86816C18.1745 2.8949 18.2126 2.92393 18.252 2.95117C18.3568 3.02376 18.4613 3.09676 18.5635 3.17285C18.5925 3.19448 18.6206 3.21735 18.6494 3.23926C18.7529 3.31788 18.8555 3.39734 18.9561 3.47949C19.0042 3.51883 19.0512 3.55948 19.0986 3.59961C19.1579 3.64974 19.2182 3.69865 19.2764 3.75C19.2945 3.76599 19.3111 3.78369 19.3291 3.7998C19.4121 3.874 19.4936 3.94972 19.5742 4.02637C19.6271 4.07665 19.6805 4.12641 19.7324 4.17773C19.8105 4.25495 19.8861 4.33456 19.9619 4.41406C20.0137 4.46841 20.0665 4.52175 20.1172 4.57715C20.1905 4.65731 20.2611 4.73995 20.332 4.82227C20.3815 4.8796 20.4322 4.93578 20.4805 4.99414C20.5314 5.05576 20.5793 5.11988 20.6289 5.18262C20.7289 5.30907 20.8264 5.43748 20.9209 5.56836C20.9932 5.66849 21.0658 5.76848 21.1348 5.87109C21.1721 5.92661 21.2068 5.98381 21.2432 6.04004C21.3074 6.13952 21.3715 6.23917 21.4326 6.34082C21.5111 6.4713 21.587 6.60337 21.6602 6.7373C21.6678 6.75124 21.6751 6.76533 21.6826 6.7793C21.7578 6.9185 21.8301 7.05942 21.8994 7.20215C21.9098 7.22362 21.9204 7.24505 21.9307 7.2666C21.998 7.4076 22.0626 7.5501 22.124 7.69434C22.1343 7.71836 22.1442 7.74249 22.1543 7.7666C22.2077 7.89465 22.2589 8.02385 22.3076 8.1543C22.3245 8.19943 22.3412 8.24463 22.3574 8.29004C22.404 8.42014 22.4484 8.55128 22.4902 8.68359C22.4967 8.70411 22.5034 8.72455 22.5098 8.74512C22.5569 8.89762 22.6 9.05177 22.6406 9.20703C22.6464 9.22918 22.6525 9.25124 22.6582 9.27344C22.6985 9.43129 22.7352 9.59048 22.7686 9.75098C22.7721 9.76822 22.7758 9.78546 22.7793 9.80273C22.8115 9.96136 22.84 10.1212 22.8652 10.2822C22.8698 10.3115 22.8736 10.3408 22.8779 10.3701C22.9011 10.5264 22.9219 10.6835 22.9385 10.8418C22.9411 10.8672 22.9438 10.8925 22.9463 10.918C22.9811 11.274 23 11.6349 23 12C23 18.0751 18.0751 23 12 23C5.92487 23 1 18.0751 1 12C1 11.6349 1.01796 11.274 1.05273 10.918C1.05522 10.8925 1.05789 10.8672 1.06055 10.8418C1.07712 10.6835 1.09788 10.5263 1.12109 10.3701C1.12545 10.3408 1.12921 10.3115 1.13379 10.2822C1.15905 10.1212 1.18756 9.96134 1.21973 9.80273C1.22324 9.78539 1.22785 9.76829 1.23145 9.75098C1.26479 9.59056 1.30058 9.43121 1.34082 9.27344C1.34648 9.25124 1.3526 9.22917 1.3584 9.20703C1.39904 9.05178 1.44208 8.89761 1.48926 8.74512C1.49562 8.72456 1.50231 8.7041 1.50879 8.68359C1.55058 8.55129 1.595 8.42013 1.6416 8.29004C1.65787 8.24463 1.67456 8.19942 1.69141 8.1543C1.74009 8.02385 1.79129 7.89464 1.84473 7.7666C1.85479 7.74249 1.86477 7.71836 1.875 7.69434C1.93641 7.55011 2.00105 7.40759 2.06836 7.2666C2.07865 7.24505 2.08918 7.22362 2.09961 7.20215C2.16889 7.05942 2.24122 6.91849 2.31641 6.7793C2.32395 6.76533 2.33126 6.75124 2.33887 6.7373C2.41196 6.60338 2.48798 6.4713 2.56641 6.34082C2.62751 6.23917 2.69159 6.13951 2.75586 6.04004C2.79218 5.98381 2.82695 5.92661 2.86426 5.87109C2.93334 5.76832 3.00668 5.66863 3.0791 5.56836C3.17348 5.43764 3.27023 5.30892 3.37012 5.18262C3.41987 5.11972 3.46844 5.05591 3.51953 4.99414C3.56765 4.93595 3.61771 4.87944 3.66699 4.82227C3.73796 4.73995 3.8085 4.65731 3.88184 4.57715C3.93251 4.52175 3.98533 4.4684 4.03711 4.41406C4.11287 4.33456 4.18851 4.25495 4.2666 4.17773C4.31851 4.12641 4.3719 4.07665 4.4248 4.02637C4.50546 3.94972 4.58697 3.87401 4.66992 3.7998C4.68812 3.78353 4.70533 3.76615 4.72363 3.75C4.78181 3.69865 4.8421 3.64974 4.90137 3.59961C4.94862 3.55964 4.99504 3.51868 5.04297 3.47949C5.14368 3.39718 5.24694 3.31803 5.35059 3.23926C5.3792 3.21751 5.40672 3.19433 5.43555 3.17285C5.53772 3.09676 5.6422 3.02376 5.74707 2.95117C5.78642 2.92393 5.82454 2.8949 5.86426 2.86816C6.14669 2.67808 6.43901 2.50167 6.73926 2.33789C6.77836 2.31655 6.81803 2.29626 6.85742 2.27539C6.96975 2.21588 7.08267 2.15725 7.19727 2.10156C7.24793 2.07693 7.29949 2.05414 7.35059 2.03027C7.45305 1.98242 7.556 1.93539 7.66016 1.89062C7.73036 1.86045 7.80112 1.83148 7.87207 1.80273C7.95435 1.7694 8.03686 1.73647 8.12012 1.70508C8.2026 1.67398 8.28572 1.6444 8.36914 1.61523C8.44951 1.58714 8.53012 1.55948 8.61133 1.5332C8.69361 1.50658 8.77625 1.48078 8.85938 1.45605C8.95032 1.429 9.04188 1.40365 9.13379 1.37891C9.20126 1.36074 9.26893 1.34308 9.33691 1.32617C9.44048 1.30041 9.54471 1.27671 9.64941 1.25391C9.72274 1.23794 9.79625 1.2225 9.87012 1.20801C9.96505 1.18937 10.0605 1.17243 10.1562 1.15625C10.2345 1.14304 10.3128 1.12971 10.3916 1.11816C10.4914 1.10353 10.5917 1.09103 10.6924 1.0791C10.7677 1.07017 10.8431 1.06013 10.9189 1.05273C11.0688 1.03811 11.2196 1.0271 11.3711 1.01855C11.3939 1.01727 11.4166 1.01482 11.4395 1.01367C11.6251 1.00434 11.812 1 12 1ZM16.9316 18.8643C16.79 19.2261 16.4513 19.4734 16.0635 19.498C15.6756 19.5226 15.3082 19.3197 15.1221 18.9785L12.4062 14H11.5938L8.87793 18.9785C8.6918 19.3197 8.32444 19.5226 7.93652 19.498C7.54875 19.4734 7.20996 19.2261 7.06836 18.8643L3.375 9.42676C3.37015 9.44304 3.36511 9.45926 3.36035 9.47559C3.12669 10.2766 3 11.1235 3 12C3 16.9706 7.02943 21 12 21C16.9706 21 21 16.9706 21 12C21 11.1052 20.8672 10.2416 20.624 9.42578L16.9316 18.8643ZM13.9082 9.91895C13.7447 10.2731 13.3901 10.5 13 10.5H11C10.6099 10.5 10.2553 10.2731 10.0918 9.91895L7.46387 4.22656C7.25147 4.3508 7.04462 4.48332 6.84375 4.62402C6.30263 5.003 5.80423 5.43881 5.35938 5.9248C5.1577 6.14509 4.96724 6.37572 4.78809 6.61523C4.7751 6.6326 4.76286 6.65051 4.75 6.66797C4.68257 6.75948 4.61673 6.85219 4.55273 6.94629L8.14941 16.1367L10.1221 12.5215L10.1953 12.4062C10.3822 12.1529 10.6799 12 11 12H13C13.3659 12 13.7027 12.2002 13.8779 12.5215L15.8496 16.1367L19.4453 6.94531C19.3921 6.86706 19.3369 6.79033 19.2812 6.71387C19.2576 6.68136 19.236 6.64741 19.2119 6.61523C19.0326 6.37555 18.8415 6.14524 18.6396 5.9248C18.1947 5.43881 17.6965 5.00298 17.1553 4.62402C16.9544 4.48333 16.7476 4.35079 16.5352 4.22656L13.9082 9.91895ZM12 3C11.1075 3 10.2456 3.13108 9.43164 3.37305C9.3852 3.38685 9.33909 3.40149 9.29297 3.41602L11.6396 8.5H12.3604L14.7051 3.41602C14.6592 3.40159 14.6135 3.38676 14.5674 3.37305C13.7537 3.13125 12.8922 3 12 3Z" fill="#9E9E9E"/>
</g>
</svg>
