<svg width="24" height="24" viewBox="0 0 24 24" fill="none" xmlns="http://www.w3.org/2000/svg">
<g id="icons/Brand/wechat">
<path id="Union" d="M10.5 2C15.2684 2 19.1698 5.7082 19.4795 10.3984C21.2897 11.4932 22.5 13.4801 22.5 15.75C22.5 16.5855 22.3342 17.3845 22.0352 18.1152L22.4863 20.8369C22.5473 21.206 22.3976 21.5782 22.0977 21.8018C21.7975 22.0253 21.3968 22.0627 21.0605 21.8984L19.4551 21.1143C18.5174 21.6756 17.4209 22 16.25 22C14.4125 22 12.7607 21.2067 11.6172 19.9443C10.3231 20.0977 8.98567 19.9584 7.61523 19.5488L4.39941 20.9316C4.06364 21.0757 3.67629 21.0251 3.38867 20.7998C3.10092 20.5742 2.9586 20.2093 3.01855 19.8486L3.54102 16.7051C2.26696 15.1526 1.5 13.1652 1.5 11C1.5 6.02942 5.52942 2 10.5 2ZM20.0029 19.1553L20.1963 19.25L20.1514 18.9805L20.0029 19.1553Z" fill="#9E9E9E"/>
</g>
</svg>
