<svg width="24" height="24" viewBox="0 0 24 24" fill="none" xmlns="http://www.w3.org/2000/svg">
<g id="icons/Brand/weibo">
<path id="Union" d="M8.36169 5.46484C9.25936 5.04728 10.3715 4.79981 11.3431 5.34766C11.6614 5.5273 11.9077 5.79388 12.0482 6.13086C12.1802 6.44775 12.1913 6.76107 12.1693 7.00879C12.1284 7.46929 11.9429 7.95151 11.8256 8.26367C11.7813 8.38131 11.7446 8.4849 11.7123 8.5752C11.93 8.47146 12.1848 8.33175 12.4984 8.1582C12.9025 7.93456 13.4123 7.65495 13.9222 7.49219C14.4292 7.33049 15.1332 7.22009 15.8051 7.58887C16.4492 7.94279 16.7406 8.51726 16.8246 9.08203C16.8992 9.58525 16.815 10.1034 16.7396 10.4873C16.6499 10.9443 16.5742 11.2193 16.5345 11.5234C16.5234 11.6092 16.5197 11.6717 16.5189 11.7148C16.5214 11.7156 16.5241 11.7171 16.5267 11.7178C16.6713 11.7574 16.8787 11.777 17.1986 11.791C17.4733 11.8031 17.8722 11.8116 18.224 11.8662C18.5262 11.9132 18.9479 12.0134 19.3109 12.2969L19.4633 12.4297L19.5677 12.54C20.0791 13.1111 20.3783 13.9761 20.0648 15.0322C19.7557 16.0732 18.8814 17.1999 17.2982 18.4453C15.5873 19.7911 12.7845 20.7641 10.0961 20.9775C7.4499 21.1875 4.50572 20.6841 2.88806 18.5732C1.27092 16.4623 1.63137 13.9932 2.45935 12.0332C3.29023 10.0665 4.67989 8.36736 5.58435 7.48828C6.46683 6.63069 7.42782 5.89929 8.36169 5.46484ZM10.1332 7.03418C9.94378 7.02431 9.64668 7.07217 9.20544 7.27734C8.54615 7.58405 7.76841 8.15465 6.97888 8.92188C6.21127 9.66785 5.00185 11.1529 4.30115 12.8115C3.59762 14.477 3.4939 16.0757 4.47595 17.3574C5.45814 18.6387 7.49493 19.1782 9.93787 18.9844C12.3385 18.7938 14.7346 17.9172 16.0619 16.873C17.5167 15.7286 18.0118 14.9207 18.1478 14.4629C18.2485 14.1236 18.1582 13.9667 18.0775 13.8779C18.0528 13.8696 18.003 13.8551 17.9174 13.8418C17.7069 13.8091 17.4668 13.8046 17.1117 13.7891C16.8018 13.7755 16.3851 13.7528 15.9974 13.6465C15.5951 13.5361 15.1019 13.3025 14.7855 12.7822C14.4605 12.2474 14.5035 11.6379 14.5521 11.2646C14.6018 10.8834 14.7191 10.3953 14.7767 10.1016C14.8487 9.73485 14.8662 9.51193 14.8461 9.37598C14.8439 9.36142 14.8413 9.34997 14.8392 9.3418C14.809 9.3376 14.7199 9.33712 14.5306 9.39746C14.2383 9.49071 13.8961 9.67025 13.4662 9.9082C13.0817 10.121 12.5909 10.4024 12.1332 10.5693C11.7063 10.725 10.9704 10.9099 10.3011 10.4688C9.5995 10.0059 9.53131 9.27286 9.59412 8.7832C9.65121 8.33877 9.83859 7.8652 9.95349 7.55957C10.04 7.32938 10.0971 7.1607 10.1332 7.03418ZM9.50037 13C11.1571 13.0001 12.5004 13.8955 12.5004 15C12.5001 16.1043 11.1569 16.9999 9.50037 17C7.84369 17 6.50065 16.1044 6.50037 15C6.50037 13.8954 7.84352 13 9.50037 13ZM15.6429 4.35254C16.6926 4.47531 17.6378 4.94186 18.347 5.6377C19.0742 6.3513 19.5582 7.31178 19.6429 8.38672C19.6861 8.937 19.2752 9.41833 18.725 9.46191C18.1746 9.50528 17.6934 9.09428 17.6498 8.54395C17.6053 7.97968 17.3508 7.4622 16.9467 7.06543C16.5513 6.67757 16.0157 6.40966 15.4105 6.33887C14.8622 6.2747 14.4697 5.77787 14.5336 5.22949C14.5977 4.68102 15.0944 4.28845 15.6429 4.35254ZM16.1283 1.30859C17.8696 1.52192 19.4266 2.33084 20.5863 3.52344C21.7745 4.74556 22.5511 6.37497 22.6869 8.18262C22.728 8.73296 22.3153 9.21316 21.765 9.25488C21.2144 9.29624 20.7343 8.88258 20.6927 8.33203C20.5933 7.00912 20.0249 5.81609 19.1517 4.91797C18.2992 4.04132 17.1592 3.44905 15.8861 3.29297C15.3382 3.22587 14.9483 2.7276 15.015 2.17969C15.0821 1.63163 15.5803 1.2417 16.1283 1.30859Z" fill="#9E9E9E"/>
</g>
</svg>
