<svg width="24" height="24" viewBox="0 0 24 24" fill="none" xmlns="http://www.w3.org/2000/svg">
<g id="icons/Brand/windows">
<path id="Union" d="M20.6475 12.917C21.1903 12.9297 21.6238 13.373 21.624 13.916V20.625C21.6239 20.9183 21.495 21.1968 21.2715 21.3867C21.0479 21.5766 20.7524 21.6587 20.4629 21.6113L12.2695 20.2695C11.7862 20.1904 11.4308 19.773 11.4307 19.2832V13.7246C11.4307 13.4556 11.5392 13.1978 11.7314 13.0098C11.9241 12.8217 12.185 12.7183 12.4541 12.7246L20.6475 12.917ZM9.86816 12.4502C10.4105 12.4634 10.8434 12.9067 10.8438 13.4492V18.9004C10.8437 19.1945 10.7138 19.4741 10.4893 19.6641C10.2646 19.8539 9.96774 19.9355 9.67773 19.8867L3.20898 18.7959C2.72778 18.7148 2.37522 18.2985 2.375 17.8105V13.2939C2.37506 13.0246 2.48404 12.7663 2.67676 12.5781C2.86948 12.3902 3.13028 12.2875 3.39941 12.2939L9.86816 12.4502ZM13.4307 18.4326L19.624 19.4473V14.8926L13.4307 14.748V18.4326ZM4.375 16.9639L8.84375 17.7168V14.4258L4.375 14.3184V16.9639ZM9.71191 3.67773C9.99749 3.63976 10.2861 3.72725 10.5029 3.91699C10.7195 4.10682 10.8437 4.38097 10.8438 4.66895V10.7061C10.8438 11.2583 10.396 11.7061 9.84375 11.7061H3.375C2.82272 11.7061 2.375 11.2583 2.375 10.7061V5.53125C2.37519 5.03022 2.74649 4.60626 3.24316 4.54004L9.71191 3.67773ZM20.498 2.38281C20.7828 2.34656 21.0697 2.43447 21.2852 2.62402C21.5008 2.81382 21.624 3.08776 21.624 3.375V10.7061C21.624 11.2583 21.1763 11.7061 20.624 11.7061H12.4307C11.8784 11.7061 11.4307 11.2583 11.4307 10.7061V4.42188C11.431 3.91896 11.8048 3.49453 12.3037 3.43066L20.498 2.38281ZM4.375 6.40625V9.70605H8.84375V5.81055L4.375 6.40625ZM13.4307 5.30176V9.70605H19.624V4.51074L13.4307 5.30176Z" fill="#9E9E9E"/>
</g>
</svg>
