<svg width="24" height="24" viewBox="0 0 24 24" fill="none" xmlns="http://www.w3.org/2000/svg">
<g id="icons/Brand/xiaodu">
<path id="Union" d="M12 4C13.4884 4 15.0941 4.13344 16.5293 4.30078C18.6215 4.54474 20.1049 4.67745 21.3867 5.98828C22.6591 7.28978 22.7508 8.60211 22.9238 10.4473C22.971 10.9509 23 11.4733 23 12C23 12.5267 22.971 13.0491 22.9238 13.5527C22.7508 15.3979 22.6591 16.7102 21.3867 18.0117C20.1049 19.3225 18.6215 19.4553 16.5293 19.6992C15.0941 19.8666 13.4884 20 12 20C10.5116 20 8.90592 19.8666 7.4707 19.6992C5.37853 19.4553 3.89503 19.3226 2.61328 18.0117C1.34087 16.7102 1.24917 15.3979 1.07617 13.5527C1.02895 13.049 1 12.5267 1 12C1 11.4733 1.02895 10.951 1.07617 10.4473C1.24917 8.60211 1.34087 7.28978 2.61328 5.98828C3.89503 4.67744 5.37853 4.54474 7.4707 4.30078C8.90592 4.13344 10.5116 4 12 4ZM12 6C10.6189 6 9.09723 6.12445 7.70215 6.28711C5.4367 6.55128 4.74132 6.67241 4.04297 7.38672C3.33521 8.11069 3.24941 8.69241 3.06738 10.6338C3.02503 11.0855 3 11.5449 3 12C3 12.4551 3.02503 12.9145 3.06738 13.3662C3.24941 15.3076 3.33521 15.8893 4.04297 16.6133C4.74132 17.3276 5.4367 17.4487 7.70215 17.7129C9.09723 17.8756 10.6189 18 12 18C13.3811 18 14.9028 17.8756 16.2979 17.7129C18.5633 17.4487 19.2587 17.3276 19.957 16.6133C20.6648 15.8893 20.7506 15.3076 20.9326 13.3662C20.975 12.9145 21 12.455 21 12C21 11.545 20.975 11.0855 20.9326 10.6338C20.7506 8.69241 20.6648 8.11069 19.957 7.38672C19.2587 6.6724 18.5633 6.55128 16.2979 6.28711C14.9028 6.12445 13.3811 6 12 6ZM8 8.5C8.55228 8.5 9 8.94772 9 9.5V14.5C9 15.0523 8.55228 15.5 8 15.5C7.44772 15.5 7 15.0523 7 14.5V9.5C7 8.94772 7.44772 8.5 8 8.5ZM15.793 8.79297C16.1835 8.40244 16.8165 8.40244 17.207 8.79297C17.5976 9.18349 17.5976 9.81651 17.207 10.207L15.4141 12L17.207 13.793C17.5976 14.1835 17.5976 14.8165 17.207 15.207C16.8165 15.5976 16.1835 15.5976 15.793 15.207L13.293 12.707C12.9024 12.3165 12.9024 11.6835 13.293 11.293L15.793 8.79297Z" fill="#9E9E9E"/>
</g>
</svg>
