<svg width="24" height="24" viewBox="0 0 24 24" fill="none" xmlns="http://www.w3.org/2000/svg">
<g id="icons/Brand/xigua">
<path id="Union" d="M12 1.83301C17.6147 1.83319 22.166 6.38522 22.166 12C22.1658 17.6146 17.6146 22.1658 12 22.166C11.1178 22.166 10.3489 21.8286 9.77246 21.3721C9.20692 20.9242 8.76579 20.314 8.5791 19.6748C8.50437 19.4187 8.44419 19.1036 8.39062 18.8408C8.33236 18.555 8.27126 18.2707 8.1875 17.9883C8.01877 17.4195 7.78129 16.9383 7.39844 16.5947C7.00938 16.2457 6.49558 16.0554 5.84473 15.8896C5.57958 15.8221 5.14172 15.724 4.85156 15.6455C4.52324 15.5567 4.14434 15.4358 3.80176 15.2354C3.29671 14.9397 2.7834 14.5675 2.40723 14.0205C2.01753 13.4536 1.83306 12.7858 1.83301 12C1.83301 6.38512 6.38511 1.83301 12 1.83301ZM12 3.83301C7.48969 3.83301 3.83301 7.48968 3.83301 12C3.83305 12.4564 3.93367 12.7105 4.05469 12.8867C4.18939 13.0827 4.41342 13.2757 4.81152 13.5088C4.92057 13.5726 5.09356 13.639 5.37402 13.7148C5.69249 13.801 5.92114 13.845 6.33789 13.9512C7.05172 14.133 7.96633 14.4183 8.7334 15.1064C9.50646 15.8001 9.88633 16.681 10.1055 17.4199C10.2156 17.7914 10.2908 18.1479 10.3506 18.4414C10.415 18.7575 10.4542 18.9605 10.499 19.1143C10.5518 19.2948 10.72 19.571 11.0137 19.8037C11.2967 20.0279 11.6394 20.166 12 20.166C16.5101 20.1658 20.1658 16.51 20.166 12C20.166 7.4898 16.5102 3.83319 12 3.83301ZM8.83887 8.88965C9.27537 7.82969 10.3704 7.19567 11.5068 7.3457C12.365 7.45897 13.2049 7.78565 14.0225 8.28613C14.7583 8.73666 15.462 9.24372 16.1328 9.80762L16.2217 9.88672H16.2227C17.2475 10.8346 17.31 12.4341 16.3623 13.459C15.7664 14.1033 15.1147 14.6462 14.4062 15.0801H14.4053C13.646 15.5448 12.7744 15.909 11.8027 16.1816H11.8018C11.7538 16.195 11.7047 16.207 11.6553 16.2178C10.291 16.5134 8.94515 15.6474 8.64941 14.2832C8.45597 13.3906 8.35938 12.4875 8.35938 11.5762C8.35941 10.5939 8.50932 9.69032 8.83887 8.88965ZM11.2451 9.3291C11.0079 9.29777 10.7786 9.43 10.6875 9.65137C10.4788 10.1586 10.3594 10.7925 10.3594 11.5762C10.3594 12.3448 10.4411 13.1056 10.6045 13.8594C10.6662 14.1441 10.9468 14.3251 11.2314 14.2637C11.2415 14.2615 11.252 14.2588 11.2627 14.2559L11.5664 14.166C12.2622 13.9487 12.8577 13.6823 13.3613 13.374C13.9007 13.0438 14.4118 12.6215 14.8936 12.1006C15.0912 11.8866 15.0782 11.5533 14.8643 11.3555V11.3545L14.8457 11.3389C14.2499 10.838 13.6276 10.3887 12.9785 9.99121C12.35 9.60642 11.7735 9.39885 11.2451 9.3291Z" fill="#9E9E9E"/>
</g>
</svg>
