<svg width="24" height="24" viewBox="0 0 24 24" fill="none" xmlns="http://www.w3.org/2000/svg">
<g id="icons/Brand/xingfuli">
<path id="Union" d="M19.5 2C20.8807 2 22 3.1193 22 4.5V19.5C22 20.8807 20.8807 22 19.5 22H4.5C3.1193 22 2 20.8807 2 19.5V4.5C2 3.11929 3.11929 2 4.5 2H19.5ZM4.5 4C4.22386 4 4 4.22386 4 4.5V19.5C4 19.7762 4.22385 20 4.5 20H19.5C19.7762 20 20 19.7762 20 19.5V4.5C20 4.22385 19.7762 4 19.5 4H4.5ZM9.41504 5.68848C9.67581 5.50053 10.0115 5.45011 10.3164 5.55176L16.3164 7.55176C16.7246 7.68796 17 8.06967 17 8.5C17 8.93033 16.7246 9.31204 16.3164 9.44824L14 10.2197V17.5C14 17.8466 13.8202 18.1684 13.5254 18.3506C13.2306 18.5327 12.8626 18.5495 12.5527 18.3945L9.55273 16.8945C9.21395 16.7251 9 16.3788 9 16V6.5L9.00684 6.38086C9.0399 6.10506 9.18679 5.853 9.41504 5.68848ZM11 15.3818L12 15.8818V9.5C12 9.06967 12.2754 8.68796 12.6836 8.55176L12.8389 8.5L11 7.88672V15.3818Z" fill="#9E9E9E"/>
</g>
</svg>
