<svg width="24" height="24" viewBox="0 0 24 24" fill="none" xmlns="http://www.w3.org/2000/svg">
<g id="icons/Brand/xingtu">
<path id="Union" d="M4.34399 5.21973C4.37651 5.22519 4.40718 5.23908 4.43286 5.25977L21.2375 19.0947C21.2798 19.1336 21.3058 19.187 21.3118 19.2441C21.3177 19.3016 21.3025 19.3594 21.2688 19.4062C21.2542 19.4349 21.2319 19.459 21.2043 19.4756C21.1769 19.4921 21.1455 19.5005 21.1135 19.5H7.77856L4.08911 5.50879C4.07326 5.45089 4.08133 5.38933 4.1106 5.33691C4.13996 5.28441 4.18858 5.24532 4.24634 5.22852C4.27745 5.2172 4.31133 5.21433 4.34399 5.21973ZM6.52954 19.499H1.21899C1.18254 19.5 1.1461 19.492 1.11353 19.4756C1.08105 19.4592 1.05339 19.435 1.03247 19.4053C1.00345 19.3547 0.992862 19.2955 1.00415 19.2383C1.01552 19.181 1.04779 19.1294 1.09399 19.0938L5.62329 15.9707L6.52954 19.499ZM22.3342 4.50977C22.3916 4.52681 22.4399 4.56584 22.469 4.61816C22.4981 4.67056 22.5054 4.73226 22.4895 4.79004L19.5852 16.126L13.0881 10.7861L22.1458 4.54102C22.1724 4.5214 22.2039 4.5083 22.2366 4.50293C22.2692 4.49757 22.3027 4.49974 22.3342 4.50977Z" fill="#9E9E9E"/>
</g>
</svg>
