<svg width="24" height="24" viewBox="0 0 24 24" fill="none" xmlns="http://www.w3.org/2000/svg">
<g id="icons/Brand/youtube">
<path id="Union" d="M11.999 4C13.5638 4 15.7399 4.06957 18.5186 4.20801C20.5198 4.30786 22.1387 5.87339 22.3057 7.87012C22.4341 9.40669 22.499 10.7718 22.499 11.9619C22.499 13.1666 22.4324 14.5506 22.3008 16.1104C22.1343 18.0822 20.5508 19.6363 18.5762 19.7656C16.188 19.9218 13.995 20 11.999 20C10.0034 20 7.81161 19.9217 5.4248 19.7656C3.45071 19.6365 1.86754 18.0834 1.7002 16.1123C1.56695 14.5415 1.49902 13.1566 1.49902 11.9619C1.49902 10.7816 1.56523 9.41564 1.69531 7.86816C1.86323 5.87222 3.48189 4.30774 5.48242 4.20801C8.25958 4.06958 10.4345 4 11.999 4ZM11.999 6C10.484 6 8.34771 6.0682 5.58203 6.20605C4.5817 6.25592 3.77237 7.03811 3.68848 8.03613C3.56163 9.5452 3.49902 10.8526 3.49902 11.9619C3.49902 13.0848 3.56241 14.411 3.69238 15.9434C3.77613 16.9287 4.56794 17.7047 5.55469 17.7695C7.90661 17.9233 10.0547 18 11.999 18C13.9437 18 16.0921 17.9234 18.4453 17.7695C19.4326 17.7049 20.2243 16.9282 20.3076 15.9424C20.4359 14.422 20.499 13.096 20.499 11.9619C20.499 10.8417 20.4377 9.53444 20.3125 8.03711C20.229 7.03876 19.4196 6.25603 18.4189 6.20605C15.6517 6.06819 13.5143 6 11.999 6ZM9.74316 9.00781C10.1559 8.39425 10.9618 8.20238 11.6006 8.54395L11.7256 8.61914L15.0244 10.8369V10.8379C15.1415 10.9167 15.247 11.0117 15.3359 11.1211L15.4189 11.2354L15.4932 11.3613C15.8292 12.0025 15.6318 12.807 15.0146 13.2148L11.7158 15.3945C11.4822 15.5488 11.2087 15.6318 10.9287 15.6318C10.1399 15.6318 9.50007 14.9921 9.5 14.2031V9.80469C9.5 9.52063 9.585 9.24322 9.74316 9.00781ZM11.5 13.1396L13.1963 12.0186L11.5 10.877V13.1396Z" fill="#9E9E9E"/>
</g>
</svg>
