<svg width="24" height="24" viewBox="0 0 24 24" fill="none" xmlns="http://www.w3.org/2000/svg">
<g id="icons/Brand/youtobe">
<path id="Union" d="M12 4C15.7139 4 19.3994 4.79707 21.166 5.24023C22.2728 5.51803 23 6.51589 23 7.61621V16.3838C23 17.4841 22.2728 18.482 21.166 18.7598C19.3994 19.2029 15.7139 20 12 20C8.28608 20 4.60062 19.2029 2.83398 18.7598C1.72719 18.482 1 17.4841 1 16.3838V7.61621C1 6.51591 1.72719 5.51803 2.83398 5.24023C4.60063 4.79707 8.28608 4 12 4ZM12 6C8.52994 6 5.03099 6.75083 3.32129 7.17969C3.1432 7.22437 3 7.39179 3 7.61621V16.3838C3 16.6082 3.1432 16.7756 3.32129 16.8203C5.03098 17.2492 8.52994 18 12 18C15.4701 18 18.9691 17.2492 20.6787 16.8203C20.8568 16.7756 21 16.6082 21 16.3838V7.61621C21 7.39181 20.8568 7.22437 20.6787 7.17969C18.9691 6.75083 15.4701 6 12 6ZM9.5 9.45996C9.5 8.28432 10.7817 7.5804 11.7656 8.16992L11.8604 8.23145L15.4883 10.7705C16.3413 11.3677 16.3413 12.6314 15.4883 13.2285L11.8604 15.7676V15.7686C10.8663 16.4642 9.5 15.7527 9.5 14.5391V9.45996ZM11.5 13.5781L13.7559 11.999L11.5 10.4199V13.5781Z" fill="#9E9E9E"/>
</g>
</svg>
