<svg width="24" height="24" viewBox="0 0 24 24" fill="none" xmlns="http://www.w3.org/2000/svg">
<g id="icons/Brand/zijinyunying">
<path id="Union" d="M16.9998 2C17.3482 2 17.6717 2.18131 17.8533 2.47852L23.3533 11.4785C23.5489 11.7986 23.5489 12.2014 23.3533 12.5215L17.8533 21.5215C17.6717 21.8187 17.3482 22 16.9998 22H6.99982C6.65152 21.9999 6.32792 21.8187 6.1463 21.5215L0.646301 12.5215C0.450809 12.2015 0.450809 11.7985 0.646301 11.4785L6.1463 2.47852L6.2215 2.37305C6.40979 2.13923 6.69505 2.00006 6.99982 2H16.9998ZM2.67169 12L7.56134 20H16.4383L21.327 12L16.4383 4H7.56134L2.67169 12ZM11.9998 6.5C12.3399 6.5 12.6566 6.67302 12.8406 6.95898L17.3406 13.959C17.5385 14.2667 17.553 14.6584 17.3777 14.9795C17.2024 15.3004 16.8655 15.5 16.4998 15.5H7.49982C7.13414 15.4999 6.79717 15.3004 6.62189 14.9795C6.44666 14.6585 6.46125 14.2667 6.659 13.959L11.159 6.95898L11.2332 6.85742C11.4218 6.63244 11.702 6.50005 11.9998 6.5ZM9.33087 13.5H14.6688L11.9998 9.34863L9.33087 13.5Z" fill="#9E9E9E"/>
</g>
</svg>
