<svg width="24" height="24" viewBox="0 0 24 24" fill="none" xmlns="http://www.w3.org/2000/svg">
<g id="icons/Industry/electric-drill">
<path id="Union" d="M20.0107 3.50391C21.6758 3.59214 22.9634 5.03393 22.8408 6.71777L22.5488 10.7178C22.4512 12.0556 21.4861 13.1326 20.2285 13.4209L18.3955 18.4639C17.951 19.6862 16.7889 20.4999 15.4883 20.5C13.3419 20.4998 11.8485 18.3669 12.582 16.3496L13.6182 13.5H10C9.44771 13.5 9 13.0523 9 12.5V12H7C6.44772 12 6 11.5523 6 11V9.5H2C1.44772 9.5 1 9.05228 1 8.5C1 7.94772 1.44772 7.5 2 7.5H6V6C6 5.44772 6.44772 5 7 5H9V4.5C9 3.94772 9.44771 3.5 10 3.5H19.8486L20.0107 3.50391ZM14.4609 17.0332C14.2018 17.746 14.7298 18.4998 15.4883 18.5C15.9479 18.4999 16.3585 18.2122 16.5156 17.7803L18.0723 13.5H15.7461L14.4609 17.0332ZM11 11.5H19.5576C20.0815 11.4998 20.5166 11.0948 20.5547 10.5723L20.8467 6.57227C20.886 6.02923 20.4849 5.56208 19.9561 5.50586L19.8486 5.5H11V11.5ZM8 10H9V7H8V10Z" fill="#9E9E9E"/>
</g>
</svg>
