<svg width="24" height="24" viewBox="0 0 24 24" fill="none" xmlns="http://www.w3.org/2000/svg">
<g id="icons/Industry/engineering-brand">
<path id="Union" d="M20.5 2C21.6046 2 22.5 2.89543 22.5 4V12C22.5 13.1046 21.6046 14 20.5 14H19V20H20C20.5523 20 21 20.4477 21 21C21 21.5523 20.5523 22 20 22H16C15.4477 22 15 21.5523 15 21C15 20.4477 15.4477 20 16 20H17V17.5H7V20H8C8.55228 20 9 20.4477 9 21C9 21.5523 8.55228 22 8 22H4C3.44772 22 3 21.5523 3 21C3 20.4477 3.44772 20 4 20H5V14H3.5C2.39543 14 1.5 13.1046 1.5 12V4C1.5 2.89543 2.39543 2 3.5 2H20.5ZM7 14V15.5H17V14H7ZM3.5 12H20.5V4H3.5V12Z" fill="#9E9E9E"/>
</g>
</svg>
