<svg width="24" height="24" viewBox="0 0 24 24" fill="none" xmlns="http://www.w3.org/2000/svg">
<g id="icons/Industry/engineering-vehicle">
<path id="Union" d="M19.3948 5.01074C19.7268 5.05926 20.0169 5.27217 20.1594 5.58301L22.9094 11.583C22.9693 11.7137 23.0002 11.8562 23.0002 12V18C23.0002 18.5522 22.5524 18.9999 22.0002 19H21.5002L21.4963 19.1543C21.416 20.7394 20.1052 21.9999 18.5002 22C16.8951 22 15.5845 20.7394 15.5042 19.1543L15.5002 19H10.0002L9.99634 19.1543C9.91604 20.7394 8.60523 21.9999 7.00024 22C5.39514 22 4.08447 20.7394 4.00415 19.1543L4.00024 19H3.00024C2.44796 19 2.00024 18.5523 2.00024 18V14C2.00024 13.4477 2.44796 13 3.00024 13H15.0002V6C15.0002 5.44772 15.448 5 16.0002 5H19.2502L19.3948 5.01074ZM7.00024 18C6.44796 18 6.00024 18.4477 6.00024 19C6.00024 19.5523 6.44796 20 7.00024 20C7.55241 19.9999 8.00024 19.5522 8.00024 19C8.00024 18.4478 7.55241 18.0001 7.00024 18ZM18.5002 18C17.948 18 17.5002 18.4477 17.5002 19C17.5002 19.5523 17.948 20 18.5002 20C19.0524 19.9999 19.5002 19.5522 19.5002 19C19.5002 18.4478 19.0524 18.0001 18.5002 18ZM4.00024 17H4.76782C5.31709 16.3874 6.11269 16 7.00024 16C7.88758 16.0001 8.68249 16.3876 9.23169 17H15.0002V15H4.00024V17ZM17.0002 16.4043C17.4417 16.1487 17.9534 16 18.5002 16C19.3876 16.0001 20.1825 16.3876 20.7317 17H21.0002V12.2188L18.6086 7H17.0002V16.4043ZM13.0002 3C13.5524 3.00014 14.0002 3.4478 14.0002 4V11C14.0002 11.5522 13.5524 11.9999 13.0002 12H3.50024C3.02888 12 2.6217 11.6708 2.52271 11.21L1.02271 4.20996C0.959429 3.91467 1.03304 3.60594 1.2229 3.37109C1.41276 3.1365 1.69843 3 2.00024 3H13.0002ZM4.30884 10H12.0002V5H3.23755L4.30884 10ZM19.0002 2C19.5524 2.00014 20.0002 2.4478 20.0002 3C20.0002 3.5522 19.5524 3.99986 19.0002 4H16.0002C15.448 4 15.0002 3.55228 15.0002 3C15.0002 2.44772 15.448 2 16.0002 2H19.0002Z" fill="#9E9E9E"/>
</g>
</svg>
