<svg width="24" height="24" viewBox="0 0 24 24" fill="none" xmlns="http://www.w3.org/2000/svg">
<g id="icons/Industry/fire-extinguisher-one">
<path id="Union" d="M18.8894 1.00586C19.172 0.974494 19.4549 1.06535 19.6667 1.25488C19.8786 1.44453 19.9997 1.71566 19.9998 2V5C19.9998 5.28442 19.8787 5.55542 19.6667 5.74512C19.4548 5.93479 19.1721 6.02552 18.8894 5.99414L15.7019 5.63965C16.5083 6.5274 16.9997 7.70622 16.9998 9V21C16.9998 22.1046 16.1043 23 14.9998 23H8.99976C7.89527 22.9999 6.99976 22.1045 6.99976 21V9C6.99983 7.32117 7.82808 5.83642 9.09741 4.92969C9.03535 4.79949 8.99976 4.65384 8.99976 4.5V4.4834C8.50426 4.47406 8.01166 4.47334 7.50854 4.52539C6.69093 4.61003 6.09183 4.822 5.70679 5.20703C5.28022 5.63362 5.11196 6.04681 5.03784 6.58887C4.95124 7.22283 4.99975 7.90551 4.99976 9C4.9997 9.55224 4.55201 10 3.99976 10C3.44761 9.99987 2.99981 9.55216 2.99976 9C2.99975 8.09491 2.94419 7.13112 3.05542 6.31738C3.17926 5.41179 3.51123 4.57449 4.29272 3.79297C5.15755 2.92816 6.3089 2.63904 7.30347 2.53613C7.87048 2.4775 8.46913 2.47534 8.99976 2.4834C9.00874 1.93895 9.45319 1.50011 9.99976 1.5H14.4421L18.8894 1.00586ZM11.9998 6C10.3431 6.00011 8.99988 7.34331 8.99976 9V21H14.9998V9C14.9996 7.34324 13.6565 6 11.9998 6ZM11.9998 11C12.552 11 12.9996 11.4478 12.9998 12V17C12.9998 17.5523 12.552 18 11.9998 18C11.4476 17.9999 10.9998 17.5522 10.9998 17V12C10.9999 11.4479 11.4476 11.0001 11.9998 11ZM15.4998 3.39453V3.60449L17.9998 3.88184V3.11719L15.4998 3.39453Z" fill="#9E9E9E"/>
</g>
</svg>
