<svg width="24" height="24" viewBox="0 0 24 24" fill="none" xmlns="http://www.w3.org/2000/svg">
<g id="icons/Industry/hammer-and-anvil">
<path id="Union" d="M21 14C21.5523 14 22 14.4477 22 15H21C22 15 22 15.0006 22 15.001V15.0234C21.9999 15.0352 21.9995 15.0512 21.999 15.0703C21.9981 15.1084 21.9966 15.161 21.9932 15.2256C21.9862 15.3549 21.9721 15.5349 21.9453 15.749C21.8924 16.1724 21.7852 16.7551 21.5615 17.3516C21.3394 17.9438 20.9819 18.6034 20.3984 19.1221C19.7942 19.6592 18.9959 20 18 20H15.8867L16.4482 21.6836C16.5499 21.9885 16.4995 22.3242 16.3115 22.585C16.1236 22.8457 15.8214 23 15.5 23H6.5C6.17857 23 5.87643 22.8457 5.68848 22.585C5.50053 22.3242 5.45011 21.9885 5.55176 21.6836L6.11328 20H3C2.44772 20 2 19.5523 2 19V15C2 14.4477 2.44772 14 3 14H21ZM4 18H7.5C7.82143 18 8.12357 18.1543 8.31152 18.415C8.49947 18.6758 8.54989 19.0115 8.44824 19.3164L7.88672 21H14.1133L13.5518 19.3164C13.4501 19.0115 13.5005 18.6758 13.6885 18.415C13.8764 18.1543 14.1786 18 14.5 18H18C18.5041 18 18.8308 17.8408 19.0703 17.6279C19.3305 17.3967 19.5356 17.0561 19.6885 16.6484C19.77 16.431 19.8299 16.2092 19.875 16H4V18ZM7 2V1C7.55228 1 8 1.44772 8 2V4H21C21.5523 4 22 4.44772 22 5V8C22 8.55228 21.5523 9 21 9H8V12C8 12.5523 7.55228 13 7 13H3C2.44772 13 2 12.5523 2 12V7C2 4.18042 3.15693 2.598 4.46973 1.77734C5.09466 1.38676 5.71316 1.19499 6.1709 1.09961C6.4014 1.05159 6.59672 1.0264 6.73926 1.01367C6.81048 1.00731 6.86911 1.00379 6.91309 1.00195C6.93512 1.00104 6.95425 1.00029 6.96875 1H6.99902C6.99964 1.0017 7 1.0422 7 2ZM6 3.23633C5.84734 3.2986 5.68767 3.37431 5.53027 3.47266C4.84322 3.90207 4 4.81983 4 7V11H6V3.23633ZM8 7H20V6H8V7Z" fill="#9E9E9E"/>
</g>
</svg>
