<svg width="24" height="24" viewBox="0 0 24 24" fill="none" xmlns="http://www.w3.org/2000/svg">
<g id="icons/Industry/heater-resistor">
<path id="Union" d="M19.7794 2.80762C20.1699 2.41715 20.8029 2.41727 21.1935 2.80762C21.5838 3.19815 21.5839 3.83121 21.1935 4.22168L18.3644 7.0498L19.0714 7.75684C19.8525 8.53788 19.8525 9.80391 19.0714 10.585L18.3761 11.2793C18.3719 11.2836 18.3686 11.2887 18.3644 11.293L14.8361 14.8203C14.8335 14.8229 14.8318 14.8265 14.8292 14.8291C14.8266 14.8317 14.8231 14.8334 14.8204 14.8359L11.2931 18.3643C11.2888 18.3685 11.2837 18.3718 11.2794 18.376L10.5861 19.0703C9.80501 19.8513 8.53896 19.8513 7.75793 19.0703L7.0509 18.3633L4.2218 21.1924C3.83133 21.5829 3.19828 21.5827 2.80774 21.1924C2.41741 20.8018 2.41728 20.1688 2.80774 19.7783L5.63684 16.9492L4.92981 16.2422C4.14878 15.4612 4.14883 14.1951 4.92981 13.4141L13.4152 4.92871C14.1962 4.14767 15.4622 4.14766 16.2433 4.92871L16.9503 5.63574L19.7794 2.80762ZM7.04993 14.1221C7.04797 14.124 7.04506 14.125 7.04309 14.127L6.34387 14.8281L9.172 17.6562L10.2316 16.5957L7.40344 13.7676L7.04993 14.1221ZM8.8175 12.3535L11.6456 15.1816L12.7062 14.1211L9.87805 11.293L8.8175 12.3535ZM11.2931 9.87793L14.1212 12.7061L15.1808 11.6455L12.3536 8.81738L11.2931 9.87793ZM14.1261 7.04395C14.1242 7.04591 14.1232 7.04882 14.1212 7.05078L13.7677 7.40332L16.5958 10.2305L17.6573 9.1709L14.8292 6.34277L14.1261 7.04395Z" fill="#9E9E9E"/>
</g>
</svg>
