<svg width="24" height="24" viewBox="0 0 24 24" fill="none" xmlns="http://www.w3.org/2000/svg">
<g id="icons/Industry/helmet-one">
<path id="Union" d="M13.5 2C14.0523 2 14.5 2.44772 14.5 3V4.8418C18.5466 5.96799 21.5 9.75924 21.5 14.2275V16.5H22C22.5523 16.5 23 16.9477 23 17.5V20.5C23 21.0523 22.5523 21.5 22 21.5H2C1.44772 21.5 1 21.0523 1 20.5V17.5C1 16.9477 1.44772 16.5 2 16.5H2.5V14.2275C2.5 9.75924 5.45337 5.96799 9.5 4.8418V3C9.5 2.44772 9.94771 2 10.5 2H13.5ZM3 19.5H21V18.5H3V19.5ZM14.5 12C14.5 12.5523 14.0523 13 13.5 13H10.5C9.94771 13 9.5 12.5523 9.5 12V6.94141C6.59782 7.99948 4.5 10.8472 4.5 14.2275V16.5H19.5V14.2275C19.5 10.8472 17.4022 7.99948 14.5 6.94141V12ZM12 6.5C11.832 6.5 11.6654 6.50729 11.5 6.51855V11H12.5V6.51855C12.3346 6.50729 12.168 6.5 12 6.5ZM11.5 4.5127C11.6655 4.50393 11.8323 4.5 12 4.5C12.1677 4.5 12.3345 4.50393 12.5 4.5127V4H11.5V4.5127Z" fill="#9E9E9E"/>
</g>
</svg>
