<svg width="24" height="24" viewBox="0 0 24 24" fill="none" xmlns="http://www.w3.org/2000/svg">
<g id="icons/Industry/industrial-scales">
<path id="Union" d="M15.5 1C16.0523 1.00001 16.5 1.44772 16.5 2V6C16.5 6.55228 16.0523 6.99999 15.5 7H13V15H19L19.1406 15.0098C19.4628 15.0555 19.7464 15.2564 19.8945 15.5527L21.8945 19.5527C22.0495 19.8626 22.0327 20.2306 21.8506 20.5254C21.6684 20.8202 21.3466 21 21 21H17V22C17 22.5523 16.5523 23 16 23C15.4477 23 15 22.5523 15 22V21H9V22C9 22.5523 8.55227 23 8 23C7.44772 23 7 22.5523 7 22V21H3C2.65343 21 2.33162 20.8202 2.14941 20.5254C1.96733 20.2306 1.95051 19.8626 2.10547 19.5527L4.10547 15.5527L4.17676 15.4316C4.36169 15.1637 4.66855 15 5 15H11V7H8.5C7.94772 7 7.5 6.55228 7.5 6V2C7.5 1.44772 7.94772 1 8.5 1H15.5ZM4.61816 19H19.3818L18.3818 17H5.61816L4.61816 19ZM9.5 5H14.5V3H9.5V5Z" fill="#9E9E9E"/>
</g>
</svg>
