<svg width="24" height="24" viewBox="0 0 24 24" fill="none" xmlns="http://www.w3.org/2000/svg">
<g id="icons/Industry/ladder-one">
<path id="Union" d="M18.4318 1.51465C19.6232 1.65752 20.4448 2.83602 20.1173 4.0293L18.6036 9.54004L20.4865 20.8359C20.577 21.3805 20.2088 21.8955 19.6642 21.9863C19.1195 22.0769 18.6046 21.7087 18.5138 21.1641L17.3419 14.1348L15.2472 21.7646C15.101 22.2972 14.5502 22.61 14.0177 22.4639C13.4854 22.3175 13.1723 21.7678 13.3185 21.2354L14.0695 18.5H11.0968L11.4865 20.8359C11.577 21.3805 11.2088 21.8955 10.6642 21.9863C10.1195 22.0769 9.60458 21.7087 9.51379 21.1641L9.06946 18.5H6.47278L5.4552 21.7949C5.29221 22.3225 4.73281 22.6179 4.2052 22.4551C3.67756 22.2921 3.38211 21.7327 3.54504 21.2051L7.50793 8.37305C7.52288 8.2551 7.55814 8.14343 7.61047 8.04199L9.19641 2.91016V2.90918C9.45549 2.07141 10.2305 1.5 11.1075 1.5H18.1886L18.4318 1.51465ZM7.09094 16.5H8.73645L8.31946 14H7.8634L7.09094 16.5ZM10.7638 16.5H14.6193L15.3058 14H10.3468L10.7638 16.5ZM10.0138 12H15.8546L16.5411 9.5H9.5968L10.0138 12ZM9.87219 7.5H17.09L18.1886 3.5H11.1075L9.87219 7.5Z" fill="#9E9E9E"/>
</g>
</svg>
