<svg width="24" height="24" viewBox="0 0 24 24" fill="none" xmlns="http://www.w3.org/2000/svg">
<g id="icons/Industry/ladder">
<path id="Union" d="M20 2.02344V1.5C20.5523 1.5 21 1.94772 21 2.5C21 3.05228 20.5523 3.49902 20 3.49902L20.001 3.5H20C19.9898 3.50034 19.9699 3.50097 19.9424 3.50293C19.8869 3.50689 19.8008 3.51562 19.6953 3.5332C19.4796 3.56918 19.2074 3.63945 18.9473 3.76953C18.6909 3.89772 18.4649 4.07417 18.3008 4.32031C18.1409 4.56019 18 4.92498 18 5.5V21.5C18 22.0523 17.5523 22.5 17 22.5C16.4477 22.5 16 22.0523 16 21.5V5.5C16 4.57502 16.2341 3.81481 16.6367 3.21094C17.0351 2.61333 17.5591 2.22728 18.0527 1.98047C18.5424 1.73561 19.0204 1.61834 19.3672 1.56055C19.5428 1.5313 19.6913 1.51654 19.7998 1.50879C19.8541 1.50491 19.8989 1.5021 19.9326 1.50098C19.9495 1.50041 19.9644 1.50018 19.9756 1.5H19.999C19.9994 1.5003 19.9999 1.51275 20 2.02344ZM8 1.52344V1C8.55228 1 9 1.44772 9 2C9 2.55228 8.55228 2.99902 8 2.99902L8.00098 3H8C7.98983 3.00034 7.9699 3.00097 7.94238 3.00293C7.88694 3.00689 7.80082 3.01562 7.69531 3.0332C7.4796 3.06918 7.20742 3.13945 6.94727 3.26953C6.6909 3.39772 6.46487 3.57417 6.30078 3.82031C6.14086 4.06019 6 4.42498 6 5V6H14C14.5523 6 15 6.44772 15 7C15 7.55228 14.5523 8 14 8H6V10H14C14.5523 10 15 10.4477 15 11C15 11.5523 14.5523 12 14 12H6V14H14C14.5523 14 15 14.4477 15 15C15 15.5523 14.5523 16 14 16H6V18H14C14.5523 18 15 18.4477 15 19C15 19.5523 14.5523 20 14 20H6V21C6 21.5523 5.55228 22 5 22C4.44772 22 4 21.5523 4 21V5C4 4.07502 4.23414 3.31481 4.63672 2.71094C5.03513 2.11333 5.5591 1.72728 6.05273 1.48047C6.54245 1.23561 7.02045 1.11834 7.36719 1.06055C7.54275 1.0313 7.69126 1.01654 7.7998 1.00879C7.85409 1.00491 7.89889 1.00211 7.93262 1.00098C7.94952 1.00041 7.96437 1.00018 7.97559 1H7.99902C7.99943 1.0003 7.99986 1.01275 8 1.52344Z" fill="#9E9E9E"/>
</g>
</svg>
