<svg width="24" height="24" viewBox="0 0 24 24" fill="none" xmlns="http://www.w3.org/2000/svg">
<g id="icons/Industry/land-surveying">
<path id="Union" d="M12.0547 12.002C12.0677 12.0027 12.0808 12.0027 12.0938 12.0039C12.1099 12.0054 12.1257 12.0085 12.1416 12.0107C12.1474 12.0116 12.1534 12.0118 12.1592 12.0127C12.1709 12.0146 12.1827 12.0162 12.1943 12.0186C12.1957 12.0188 12.1969 12.0193 12.1982 12.0195C12.2058 12.0211 12.2132 12.0237 12.2207 12.0254C12.2442 12.0307 12.2678 12.0359 12.291 12.043C12.3411 12.0582 12.3891 12.0781 12.4355 12.1006C12.4765 12.1204 12.5165 12.1425 12.5547 12.168C12.5628 12.1734 12.5702 12.1799 12.5781 12.1855C12.6219 12.2166 12.6642 12.2505 12.7031 12.2891L12.7109 12.2969C12.7475 12.3338 12.7797 12.3737 12.8096 12.415C12.8169 12.4252 12.825 12.4349 12.832 12.4453L18.832 21.4453C19.1384 21.9048 19.0142 22.5257 18.5547 22.832C18.0952 23.1384 17.4743 23.0142 17.168 22.5547L13 16.3027V22C13 22.5523 12.5523 23 12 23C11.4477 23 11 22.5523 11 22V16.3027L6.83203 22.5547C6.52568 23.0142 5.90484 23.1384 5.44531 22.832C4.98578 22.5257 4.86162 21.9048 5.16797 21.4453L11.165 12.4492C11.1661 12.4476 11.1669 12.4459 11.168 12.4443C11.1734 12.4362 11.1799 12.4288 11.1855 12.4209C11.2174 12.376 11.2523 12.3327 11.292 12.293C11.364 12.2207 11.4457 12.1613 11.5332 12.1152C11.5435 12.1098 11.554 12.1047 11.5645 12.0996C11.6105 12.0773 11.6584 12.0581 11.708 12.043C11.7312 12.0359 11.7548 12.0307 11.7783 12.0254C11.7865 12.0235 11.7945 12.0212 11.8027 12.0195C11.8209 12.0159 11.8392 12.0134 11.8574 12.0107C11.873 12.0085 11.8885 12.0054 11.9043 12.0039C11.9264 12.0018 11.9486 12.0016 11.9707 12.001C11.9756 12.0008 11.9805 12.0001 11.9854 12H12.0049C12.0215 12.0001 12.0381 12.001 12.0547 12.002ZM18 2C18.5523 2 19 2.44772 19 3V4C19 3.44772 19.4477 3 20 3C20.5523 3 21 3.44772 21 4V6C21 6.55228 20.5523 7 20 7C19.4477 7 19 6.55228 19 6V7C19 7.55228 18.5523 8 18 8H13V9H14.5C15.0523 9 15.5 9.44772 15.5 10C15.5 10.5523 15.0523 11 14.5 11H9.5C8.94772 11 8.5 10.5523 8.5 10C8.5 9.44772 8.94772 9 9.5 9H11V8H5C4.44772 8 4 7.55228 4 7V3C4 2.44772 4.44772 2 5 2H18ZM6 6H17V4H6V6Z" fill="#9E9E9E"/>
</g>
</svg>
