<svg width="24" height="24" viewBox="0 0 24 24" fill="none" xmlns="http://www.w3.org/2000/svg">
<g id="icons/Industry/led-diode">
<path id="Union" d="M12 1C16.4183 1 20 4.58172 20 9V10C21.1046 10 22 10.8954 22 12V15C22 15.5523 21.5523 16 21 16H15.5V22C15.5 22.5523 15.0523 23 14.5 23C13.9477 23 13.5 22.5523 13.5 22V16H10.5V22C10.5 22.5523 10.0523 23 9.5 23C8.94772 23 8.5 22.5523 8.5 22V16H3C2.44772 16 2 15.5523 2 15V12C2 10.8954 2.89544 10 4 10V9C4 4.58172 7.58172 1 12 1ZM4 14H20V12H4V14ZM12 3C8.68629 3 6 5.68629 6 9V10H18V9C18 5.68629 15.3137 3 12 3ZM12 4C13.3807 4 14.5 5.11929 14.5 6.5C14.5 7.88071 13.3807 9 12 9C10.6193 9 9.5 7.88071 9.5 6.5C9.5 5.11929 10.6193 4 12 4ZM12 6C11.7239 6 11.5 6.22386 11.5 6.5C11.5 6.77614 11.7239 7 12 7C12.2761 7 12.5 6.77614 12.5 6.5C12.5 6.22386 12.2761 6 12 6Z" fill="#9E9E9E"/>
</g>
</svg>
