<svg width="24" height="24" viewBox="0 0 24 24" fill="none" xmlns="http://www.w3.org/2000/svg">
<g id="icons/Industry/oil-industry">
<path id="Union" d="M21 2C21.5523 2 22 2.44772 22 3C22 3.55228 21.5523 4 21 4H20V11H21C21.5523 11 22 11.4477 22 12C22 12.5523 21.5523 13 21 13H20V20H21C21.5523 20 22 20.4477 22 21C22 21.5523 21.5523 22 21 22H3C2.44772 22 2 21.5523 2 21C2 20.4477 2.44772 20 3 20H4V13H3C2.44772 13 2 12.5523 2 12C2 11.4477 2.44772 11 3 11H4V4H3C2.44772 4 2 3.55228 2 3C2 2.44772 2.44772 2 3 2H21ZM6 20H18V4H6V20ZM11.7686 8.00684C12.1251 7.96439 12.4768 8.11672 12.6904 8.40527C12.9743 8.7888 13.4052 9.43439 13.8096 10.1006C14.2052 10.7524 14.62 11.4965 14.834 12.0586C15.2122 13.0523 14.9017 14.0626 14.3516 14.7646C13.7997 15.469 12.9092 16 11.8867 16C10.7449 15.9999 9.84078 15.2258 9.38672 14.3906C8.9245 13.5404 8.77091 12.3304 9.52539 11.3389C10.1522 10.5154 10.6594 9.33504 10.9658 8.61035L11.0264 8.49121C11.1836 8.22521 11.4568 8.04402 11.7686 8.00684ZM12.043 11.0469C11.779 11.5556 11.4689 12.0877 11.1172 12.5498C10.9774 12.7335 10.9359 13.0518 11.1445 13.4355C11.3613 13.8339 11.6869 13.9998 11.8867 14C12.2062 14 12.5465 13.8259 12.7773 13.5312C13.0099 13.2345 13.0338 12.952 12.9648 12.7705C12.821 12.3925 12.4904 11.7816 12.0996 11.1377C12.0811 11.1071 12.0616 11.0772 12.043 11.0469Z" fill="#9E9E9E"/>
</g>
</svg>
