<svg width="24" height="24" viewBox="0 0 24 24" fill="none" xmlns="http://www.w3.org/2000/svg">
<g id="icons/Industry/oscillator">
<path id="Union" d="M17.5 1C19.3729 1 20.9447 2.28736 21.3799 4.02539C21.4562 4.16665 21.5 4.32815 21.5 4.5V12C21.5 14.2091 19.7091 16 17.5 16H15.5V22C15.5 22.5523 15.0523 23 14.5 23C13.9477 23 13.5 22.5523 13.5 22V16H10.5V22C10.5 22.5523 10.0523 23 9.5 23C8.94772 23 8.5 22.5523 8.5 22V16H6.5C4.29086 16 2.5 14.2091 2.5 12V4.5C2.5 4.32832 2.54292 4.16656 2.61914 4.02539C3.05425 2.28724 4.62699 1 6.5 1H17.5ZM19.5 8.46289C18.9115 8.80354 18.2289 9 17.5 9H6.5C5.77107 9 5.08854 8.80354 4.5 8.46289V12C4.5 13.1046 5.39543 14 6.5 14H17.5C18.6046 14 19.5 13.1046 19.5 12V8.46289ZM6.5 3C5.39543 3 4.5 3.89543 4.5 5C4.5 6.10457 5.39543 7 6.5 7H17.5C18.6046 7 19.5 6.10457 19.5 5C19.5 3.89543 18.6046 3 17.5 3H6.5ZM7.5 4C8.05228 4 8.5 4.44772 8.5 5C8.5 5.55228 8.05228 6 7.5 6C6.94772 6 6.5 5.55228 6.5 5C6.5 4.44772 6.94772 4 7.5 4ZM10.5 4C11.0523 4 11.5 4.44772 11.5 5C11.5 5.55228 11.0523 6 10.5 6C9.94772 6 9.5 5.55228 9.5 5C9.5 4.44772 9.94772 4 10.5 4ZM13.5 4C14.0523 4 14.5 4.44772 14.5 5C14.5 5.55228 14.0523 6 13.5 6C12.9477 6 12.5 5.55228 12.5 5C12.5 4.44772 12.9477 4 13.5 4ZM16.5 4C17.0523 4 17.5 4.44772 17.5 5C17.5 5.55228 17.0523 6 16.5 6C15.9477 6 15.5 5.55228 15.5 5C15.5 4.44772 15.9477 4 16.5 4Z" fill="#9E9E9E"/>
</g>
</svg>
