<svg width="24" height="24" viewBox="0 0 24 24" fill="none" xmlns="http://www.w3.org/2000/svg">
<g id="icons/Industry/petrol">
<path id="Union" d="M21.0001 2C21.5524 2.00004 22.0001 2.44774 22.0001 3V21C22.0001 21.5523 21.5524 22 21.0001 22H3.00012C2.44784 22 2.00012 21.5523 2.00012 21V11L2.005 10.9014C2.0277 10.6724 2.12895 10.4571 2.29309 10.293L10.2931 2.29297L10.3663 2.22656C10.5443 2.08075 10.768 2 11.0001 2H21.0001ZM15.7433 8.66895C15.5537 8.87961 15.2836 8.99998 15.0001 9H6.41418L4.00012 11.4141V20H20.0001V4H19.9454L15.7433 8.66895ZM11.7687 10.5068C12.1251 10.4644 12.477 10.6167 12.6906 10.9053C12.9744 11.2888 13.4054 11.9344 13.8097 12.6006C14.2053 13.2524 14.6201 13.9965 14.8341 14.5586C15.2123 15.5523 14.9018 16.5626 14.3517 17.2646C13.7998 17.969 12.9093 18.5 11.8868 18.5C10.745 18.4999 9.84091 17.7258 9.38684 16.8906C8.92462 16.0404 8.77103 14.8304 9.52551 13.8389C10.1523 13.0154 10.6595 11.835 10.9659 11.1104L11.0265 10.9912C11.1837 10.7252 11.4569 10.544 11.7687 10.5068ZM12.0431 13.5469C11.7792 14.0556 11.469 14.5877 11.1173 15.0498C10.9775 15.2335 10.936 15.5518 11.1447 15.9355C11.3614 16.3338 11.687 16.4998 11.8868 16.5C12.2063 16.5 12.5466 16.3258 12.7775 16.0312C13.01 15.7345 13.0339 15.452 12.965 15.2705C12.8211 14.8925 12.4905 14.2816 12.0997 13.6377C12.0812 13.6071 12.0617 13.5772 12.0431 13.5469ZM4.79309 3.29297C5.18362 2.90248 5.81664 2.90246 6.20715 3.29297C6.59763 3.68348 6.59763 4.31652 6.20715 4.70703L2.70715 8.20703C2.31664 8.59754 1.68362 8.59752 1.29309 8.20703C0.902567 7.81651 0.902567 7.18349 1.29309 6.79297L4.79309 3.29297ZM8.41418 7H14.5548L17.255 4H11.4142L8.41418 7Z" fill="#9E9E9E"/>
</g>
</svg>
