<svg width="24" height="24" viewBox="0 0 24 24" fill="none" xmlns="http://www.w3.org/2000/svg">
<g id="icons/Industry/potentiometer">
<path id="Union" d="M12 16C12.5523 16 13 16.4477 13 17V22C13 22.5523 12.5523 23 12 23C11.4477 23 11 22.5523 11 22V17C11 16.4477 11.4477 16 12 16ZM8 16C8.55228 16 9 16.4477 9 17V21C9 21.5523 8.55228 22 8 22C7.44772 22 7 21.5523 7 21V17C7 16.4477 7.44772 16 8 16ZM16 16C16.5523 16 17 16.4477 17 17V21C17 21.5523 16.5523 22 16 22C15.4477 22 15 21.5523 15 21V17C15 16.4477 15.4477 16 16 16ZM12 1C12.5523 1 13 1.44772 13 2V5.01953C15.4671 5.11375 17.7182 5.55349 19.4424 6.24316C20.4169 6.63298 21.2729 7.12243 21.9014 7.7168C22.5319 8.31313 23 9.08426 23 10V16.1816C23 16.2905 22.9819 16.3983 22.9473 16.501L22.9072 16.6025L22.9062 16.6035V16.6055C22.9058 16.6065 22.9048 16.6073 22.9043 16.6084C22.9031 16.6109 22.9019 16.6141 22.9004 16.6172L22.8574 16.7031C22.8305 16.7541 22.7925 16.8216 22.7432 16.9033C22.6443 17.0672 22.4978 17.2883 22.2939 17.5449C21.8857 18.0588 21.2477 18.7154 20.3057 19.3457C19.8467 19.6525 19.226 19.5292 18.9189 19.0703C18.6119 18.6113 18.7354 17.9907 19.1943 17.6836C19.9471 17.1798 20.4345 16.6696 20.7275 16.3008C20.8522 16.1439 20.9402 16.0111 21 15.916V12.9727C20.5348 13.2679 20.0092 13.5301 19.4424 13.7568C17.4877 14.5387 14.8561 15 12 15C9.14394 15 6.51226 14.5387 4.55762 13.7568C3.99077 13.5301 3.46518 13.2679 3 12.9727V15.916C3.05979 16.0111 3.14781 16.1439 3.27246 16.3008C3.56546 16.6696 4.05287 17.1798 4.80566 17.6836C5.26463 17.9907 5.38809 18.6113 5.08105 19.0703C4.77401 19.5292 4.1533 19.6525 3.69434 19.3457C2.75231 18.7154 2.1143 18.0588 1.70605 17.5449C1.50222 17.2883 1.35574 17.0672 1.25684 16.9033C1.2075 16.8216 1.16953 16.7541 1.14258 16.7031L1.09961 16.6172C1.09814 16.6141 1.09688 16.6109 1.0957 16.6084C1.09518 16.6073 1.09421 16.6065 1.09375 16.6055V16.6035L1.09277 16.6025C1.03177 16.4708 1 16.3268 1 16.1816V10C1 9.08426 1.46815 8.31313 2.09863 7.7168C2.72712 7.12243 3.58307 6.63298 4.55762 6.24316C6.28182 5.55349 8.53287 5.11375 11 5.01953V2C11 1.44772 11.4477 1 12 1ZM13 9.5C13 10.0523 12.5523 10.5 12 10.5C11.4477 10.5 11 10.0523 11 9.5V7.01953C8.74374 7.11284 6.75414 7.51836 5.30078 8.09961C4.46568 8.43365 3.85623 8.80718 3.47266 9.16992C3.09148 9.53052 3 9.81134 3 10C3 10.1887 3.09148 10.4695 3.47266 10.8301C3.85623 11.1928 4.46568 11.5664 5.30078 11.9004C6.9654 12.5661 9.33352 13 12 13C14.6665 13 17.0346 12.5661 18.6992 11.9004C19.5343 11.5664 20.1438 11.1928 20.5273 10.8301C20.9085 10.4695 21 10.1887 21 10C21 9.81134 20.9085 9.53052 20.5273 9.16992C20.1438 8.80718 19.5343 8.43365 18.6992 8.09961C17.2459 7.51836 15.2563 7.11284 13 7.01953V9.5Z" fill="#9E9E9E"/>
</g>
</svg>
