<svg width="24" height="24" viewBox="0 0 24 24" fill="none" xmlns="http://www.w3.org/2000/svg">
<g id="icons/Industry/resistor">
<path id="Union" d="M19.7784 2.80762C20.1689 2.41715 20.802 2.41727 21.1925 2.80762C21.5829 3.19815 21.583 3.83121 21.1925 4.22168L18.7169 6.69629L19.7784 7.75684C20.5593 8.53789 20.5585 9.80397 19.7775 10.585L19.7784 10.5859L18.3029 12.0605C17.9278 12.4354 17.4191 12.6465 16.8888 12.6465H15.5958L12.6466 15.5957V16.8887C12.6466 17.4189 12.4356 17.9277 12.0607 18.3027L10.5861 19.7783C9.80505 20.5592 8.53802 20.5591 7.75696 19.7783L6.69543 18.7168L4.2218 21.1914C3.83133 21.5819 3.19827 21.5818 2.80774 21.1914C2.41737 20.8009 2.41727 20.1678 2.80774 19.7773L5.28137 17.3027L4.2218 16.2422C3.44081 15.4611 3.44085 14.1951 4.2218 13.4141L5.69641 11.9395C6.07144 11.5644 6.58014 11.3536 7.11047 11.3535H8.40344L11.3536 8.40332V7.11035C11.3537 6.58006 11.5646 6.0713 11.9396 5.69629L13.4142 4.22168C14.1953 3.44066 15.4612 3.44066 16.2423 4.22168L17.3029 5.28223L19.7784 2.80762ZM13.3536 7.11035V8.40332C13.3536 8.93345 13.1427 9.44233 12.7677 9.81738L9.8175 12.7676C9.44244 13.1425 8.93373 13.3535 8.40344 13.3535H7.11047L5.63586 14.8281L9.17102 18.3633L10.6466 16.8887V15.5957C10.6467 15.0654 10.8576 14.5567 11.2325 14.1816L14.1818 11.2324C14.5568 10.8574 15.0655 10.6465 15.5958 10.6465H16.8888L18.3634 9.1709L14.8282 5.63574L13.3536 7.11035Z" fill="#9E9E9E"/>
</g>
</svg>
