<svg width="24" height="24" viewBox="0 0 24 24" fill="none" xmlns="http://www.w3.org/2000/svg">
<g id="icons/Industry/robot-two">
<path id="Union" d="M21 2C21.5523 2 22 2.44772 22 3C22 3.55228 21.5523 4 21 4H17.4141L15.4141 6L17.4141 8H21C21.5523 8 22 8.44772 22 9C22 9.55228 21.5523 10 21 10H17C16.7348 10 16.4805 9.89457 16.293 9.70703L13.5859 7H6.82617C6.68013 7.41273 6.44758 7.78349 6.14844 8.09082L9.63477 15.5H20.5C21.6046 15.5 22.5 16.3954 22.5 17.5V21C22.5 21.5523 22.0523 22 21.5 22H2.5C1.94772 22 1.5 21.5523 1.5 21V17.5C1.5 16.3954 2.39544 15.5 3.5 15.5H7.42383L4.35449 8.97754C4.23817 8.99124 4.12001 9 4 9C2.34315 9 1 7.65685 1 6C1 4.34315 2.34315 3 4 3C5.30585 3 6.41406 3.83532 6.82617 5H13.5859L16.293 2.29297L16.3662 2.22656C16.5442 2.08073 16.7679 2 17 2H21ZM3.5 20H20.5V17.5H3.5V20ZM4 5C3.44772 5 3 5.44772 3 6C3 6.55228 3.44772 7 4 7C4.55228 7 5 6.55228 5 6C5 5.44772 4.55228 5 4 5Z" fill="#9E9E9E"/>
</g>
</svg>
