<svg width="24" height="24" viewBox="0 0 24 24" fill="none" xmlns="http://www.w3.org/2000/svg">
<g id="icons/Industry/scale-one">
<path id="Union" d="M15.0918 1.00391C15.0931 1.00403 15.0944 1.00378 15.0957 1.00391C15.1372 1.00785 15.1779 1.01554 15.2178 1.02441C15.2259 1.02624 15.2341 1.02825 15.2422 1.03027C15.2774 1.03905 15.3121 1.04912 15.3457 1.06152C15.3502 1.06319 15.3549 1.06467 15.3594 1.06641L21.8594 3.56641C22.2454 3.71501 22.5 4.08632 22.5 4.5V7C22.5 7.55228 22.0523 8 21.5 8H16V22C16 22.5523 15.5523 23 15 23H9C8.44772 23 8 22.5523 8 22V8H2.5C1.94772 8 1.5 7.55228 1.5 7V4.5L1.51172 4.34766C1.56563 3.99731 1.8027 3.69649 2.14062 3.56641L8.64062 1.06641L8.65918 1.05957C8.68097 1.05167 8.70312 1.04448 8.72559 1.03809H8.72852L8.79883 1.02051C8.81654 1.01689 8.8345 1.01439 8.85254 1.01172C8.85809 1.01087 8.86357 1.00954 8.86914 1.00879C8.91198 1.00319 8.95563 1 9 1H15L15.0918 1.00391ZM10 5H11C11.5523 5 12 5.44772 12 6C12 6.55228 11.5523 7 11 7H10V8H11.5C12.0523 8 12.5 8.44772 12.5 9C12.5 9.55229 12.0523 10 11.5 10H10V11H11C11.5523 11 12 11.4477 12 12C12 12.5523 11.5523 13 11 13H10V14H11.5C12.0523 14 12.5 14.4477 12.5 15C12.5 15.5523 12.0523 16 11.5 16H10V17H11C11.5523 17 12 17.4477 12 18C12 18.5523 11.5523 19 11 19H10V21H14V3H10V5ZM3.5 5.18652V6H8V3.45605L3.5 5.18652ZM16 6H20.5V5.18652L16 3.45605V6Z" fill="#9E9E9E"/>
</g>
</svg>
