<svg width="24" height="24" viewBox="0 0 24 24" fill="none" xmlns="http://www.w3.org/2000/svg">
<g id="icons/Industry/screwdriver">
<path id="Union" d="M13.5 1C13.9303 1 14.312 1.27541 14.4482 1.68359L15.4482 4.68359C15.5458 4.97635 15.5032 5.29792 15.332 5.55469L14.5 6.80273V11C15.0523 11 15.5 11.4477 15.5 12V14.1113C15.6848 14.3226 15.8662 14.5464 16.0283 14.7471C16.292 15.0735 16.5142 15.347 16.7129 15.5488C16.8968 15.7359 17 15.9876 17 16.25V22C17 22.5523 16.5523 23 16 23H8C7.44772 23 7 22.5523 7 22V16.25C7 16.0113 7.08586 15.7809 7.24121 15.5996L8.5 14.1309V12L8.50488 11.8975C8.55621 11.3933 8.98232 11 9.5 11V6.80273L8.66797 5.55469C8.49679 5.29792 8.45417 4.97635 8.55176 4.68359L9.55176 1.68359L9.61328 1.53711C9.78349 1.2108 10.1234 1 10.5 1H13.5ZM10.5 14.5C10.5 14.7387 10.4141 14.9691 10.2588 15.1504L9 16.6182V21H15V16.6377C14.8153 16.4266 14.6337 16.2034 14.4717 16.0029C14.208 15.6765 13.9858 15.403 13.7871 15.2012C13.6032 15.0141 13.5 14.7624 13.5 14.5V13H10.5V14.5ZM10.6025 4.85156L11.332 5.94531C11.4415 6.10958 11.5 6.30258 11.5 6.5V11H12.5V6.5C12.5 6.30258 12.5585 6.10958 12.668 5.94531L13.3965 4.85156L12.7793 3H11.2207L10.6025 4.85156Z" fill="#9E9E9E"/>
</g>
</svg>
