<svg width="24" height="24" viewBox="0 0 24 24" fill="none" xmlns="http://www.w3.org/2000/svg">
<g id="icons/Industry/solar-energy-one">
<path id="Union" d="M16 1C16.5523 1 17 1.44772 17 2V4.62598C17.3668 4.72038 17.7131 4.86578 18.0312 5.05371L19.8535 3.23242C20.244 2.84202 20.8771 2.84203 21.2676 3.23242C21.658 3.62292 21.658 4.25598 21.2676 4.64648L19.4453 6.46777C19.6336 6.78624 19.7795 7.13276 19.874 7.5H22C22.5523 7.5 23 7.94772 23 8.5C23 9.05229 22.5523 9.5 22 9.5H19.874C19.811 9.74478 19.724 9.97981 19.6182 10.2041L21.2676 11.8535C21.658 12.244 21.658 12.8771 21.2676 13.2676C20.8771 13.6581 20.244 13.658 19.8535 13.2676L18.333 11.7471C17.9365 12.0325 17.4868 12.2487 17 12.374V17C17 18.1046 16.1046 19 15 19H11.874C11.43 20.7252 9.86384 22 8 22H6C6 22.5523 5.55228 23 5 23C4.44772 23 4 22.5523 4 22V20H2C1.44772 20 1 19.5523 1 19C1 18.4477 1.44772 18 2 18H4V17H2C1.44772 17 1 16.5523 1 16C1 15.4477 1.44772 15 2 15H4V14C4 13.4477 4.44772 13 5 13C5.55228 13 6 13.4477 6 14H8C9.86384 14 11.43 15.2748 11.874 17H15V12.374C14.513 12.2487 14.0627 12.0327 13.666 11.7471L12.1465 13.2676C11.756 13.6581 11.1229 13.6581 10.7324 13.2676C10.342 12.877 10.3419 12.244 10.7324 11.8535L12.3809 10.2041C12.2751 9.97993 12.1889 9.74464 12.126 9.5H10C9.44771 9.5 9 9.05229 9 8.5C9 7.94772 9.44771 7.5 10 7.5H12.126C12.2205 7.13292 12.3656 6.78613 12.5537 6.46777L10.7324 4.64648C10.3419 4.25596 10.3419 3.62295 10.7324 3.23242C11.1229 2.8419 11.756 2.8419 12.1465 3.23242L13.9678 5.05371C14.2861 4.86558 14.6329 4.72046 15 4.62598V2C15 1.44772 15.4477 1 16 1ZM6 20H8C9.10457 20 10 19.1046 10 18C10 16.8954 9.10457 16 8 16H6V20ZM16 6.5C14.8954 6.5 14 7.39543 14 8.5C14 9.60457 14.8954 10.5 16 10.5C17.1046 10.5 18 9.60457 18 8.5C18 7.39543 17.1046 6.5 16 6.5Z" fill="#9E9E9E"/>
</g>
</svg>
