<svg width="24" height="24" viewBox="0 0 24 24" fill="none" xmlns="http://www.w3.org/2000/svg">
<g id="icons/Industry/spanner">
<path id="Union" d="M15.2205 1.5C16.3559 1.5 17.4338 1.75957 18.3943 2.22266C18.6866 2.36364 18.8923 2.63791 18.946 2.95801C18.9996 3.27801 18.8951 3.6044 18.6648 3.83301L17.0632 5.42285C16.534 5.94843 16.534 6.79767 17.0632 7.32324C17.5966 7.85268 18.4645 7.85264 18.9978 7.32324L20.4236 5.90723L20.5193 5.82324C20.7524 5.64428 21.0554 5.57567 21.3464 5.64062C21.6793 5.71509 21.9515 5.95484 22.0681 6.27539C22.3477 7.04423 22.4998 7.8728 22.4998 8.73438C22.4997 12.7365 19.2338 15.9688 15.2205 15.9688C14.4975 15.9687 13.7976 15.863 13.1365 15.667L7.23901 21.5225C5.92596 22.8257 3.79994 22.8259 2.48706 21.5225C1.17044 20.215 1.17052 18.0917 2.48706 16.7842L8.30737 11.0039C8.06996 10.2893 7.94118 9.52597 7.94116 8.73438C7.94116 4.73237 11.2072 1.50022 15.2205 1.5ZM15.2205 3.5C12.2983 3.50022 9.94116 5.85045 9.94116 8.73438C9.94118 9.48823 10.1018 10.2025 10.3894 10.8477C10.5586 11.2272 10.4753 11.6721 10.1804 11.9648L3.89624 18.2031C3.3674 18.7284 3.36771 19.5772 3.89624 20.1025C4.42931 20.6318 5.29664 20.6317 5.82983 20.1025L12.1697 13.8086L12.282 13.7129C12.5575 13.5103 12.922 13.4603 13.2458 13.5898C13.8544 13.8334 14.5203 13.9687 15.2205 13.9688C18.1428 13.9688 20.4997 11.6184 20.4998 8.73438C20.4998 8.70701 20.4982 8.6796 20.4978 8.65234L20.407 8.74316C19.0939 10.0468 16.9673 10.0466 15.6541 8.74316C14.337 7.4354 14.337 5.31168 15.6541 4.00391L16.0886 3.57129C15.8065 3.5251 15.5164 3.5 15.2205 3.5Z" fill="#9E9E9E"/>
</g>
</svg>
