<svg width="24" height="24" viewBox="0 0 24 24" fill="none" xmlns="http://www.w3.org/2000/svg">
<g id="icons/Industry/stack-light">
<path id="Union" d="M15.5 1C16.0523 1 16.5 1.44772 16.5 2V17C16.5 17.5523 16.0523 18 15.5 18H15V22C15 22.5523 14.5523 23 14 23H10C9.44771 23 9 22.5523 9 22V18H8.5C7.94772 18 7.5 17.5523 7.5 17V2C7.5 1.44772 7.94772 1 8.5 1H15.5ZM11 21H13V18H11V21ZM4.85352 13.7324C5.24401 13.3419 5.87705 13.342 6.26758 13.7324C6.6581 14.1229 6.6581 14.756 6.26758 15.1465L4.14648 17.2676C3.75596 17.6581 3.12295 17.6581 2.73242 17.2676C2.342 16.877 2.34193 16.244 2.73242 15.8535L4.85352 13.7324ZM17.7324 13.7324C18.123 13.342 18.756 13.3419 19.1465 13.7324L21.2676 15.8535C21.6579 16.244 21.6579 16.8771 21.2676 17.2676C20.8771 17.6581 20.244 17.658 19.8535 17.2676L17.7324 15.1465C17.3419 14.756 17.3419 14.1229 17.7324 13.7324ZM9.5 16H14.5V13H9.5V16ZM5 9.5C5.55228 9.5 6 9.94771 6 10.5C6 11.0523 5.55228 11.5 5 11.5H2C1.44772 11.5 1 11.0523 1 10.5C1 9.94771 1.44772 9.5 2 9.5H5ZM22 9.5C22.5523 9.5 23 9.94771 23 10.5C23 11.0523 22.5523 11.5 22 11.5H19C18.4477 11.5 18 11.0523 18 10.5C18 9.94771 18.4477 9.5 19 9.5H22ZM9.5 11H14.5V8H9.5V11ZM2.73242 3.23242C3.12295 2.8419 3.75596 2.8419 4.14648 3.23242L6.26758 5.35352C6.6581 5.74404 6.6581 6.37705 6.26758 6.76758C5.87705 7.1581 5.24404 7.1581 4.85352 6.76758L2.73242 4.64648C2.3419 4.25596 2.3419 3.62295 2.73242 3.23242ZM19.8535 3.23242C20.244 2.84205 20.8771 2.84204 21.2676 3.23242C21.6579 3.62292 21.6579 4.25599 21.2676 4.64648L19.1465 6.76758C18.756 7.15806 18.123 7.15798 17.7324 6.76758C17.342 6.37705 17.3419 5.74401 17.7324 5.35352L19.8535 3.23242ZM9.5 6H14.5V3H9.5V6Z" fill="#9E9E9E"/>
</g>
</svg>
