<svg width="24" height="24" viewBox="0 0 24 24" fill="none" xmlns="http://www.w3.org/2000/svg">
<g id="icons/Industry/tape-measure">
<path id="Union" d="M5 3.5C6.38073 3.5 7.5 4.61927 7.5 6V6.51953C7.6652 6.50787 7.83184 6.5 8 6.5C11.5264 6.5 14.4424 9.10781 14.9277 12.5H22C22.5523 12.5 23 12.9477 23 13.5V19.5C23 20.0523 22.5523 20.5 22 20.5H2C1.44772 20.5 1 20.0523 1 19.5V13.5C1 11.8657 1.56129 10.3631 2.5 9.17188V6C2.5 4.61925 3.6193 3.5 5 3.5ZM8 8.5C5.23858 8.5 3 10.7386 3 13.5V18.5H13V13.5C13 10.7386 10.7614 8.5 8 8.5ZM15 18.5H21V14.5H20.5V15.5C20.5 16.0523 20.0523 16.5 19.5 16.5C18.9477 16.5 18.5 16.0523 18.5 15.5V14.5H17.5V15.5C17.5 16.0523 17.0523 16.5 16.5 16.5C15.9477 16.5 15.5 16.0523 15.5 15.5V14.5H15V18.5ZM8 10.5C9.65685 10.5 11 11.8431 11 13.5C11 15.1569 9.65685 16.5 8 16.5C6.34315 16.5 5 15.1569 5 13.5C5 11.8431 6.34315 10.5 8 10.5ZM8 12.5C7.44772 12.5 7 12.9477 7 13.5C7 14.0523 7.44772 14.5 8 14.5C8.55228 14.5 9 14.0523 9 13.5C9 12.9477 8.55228 12.5 8 12.5ZM5 5.5C4.72385 5.5 4.5 5.72385 4.5 6V7.43848C4.81846 7.2542 5.15236 7.09393 5.5 6.96094V6C5.5 5.72383 5.27617 5.5 5 5.5Z" fill="#9E9E9E"/>
</g>
</svg>
