<svg width="24" height="24" viewBox="0 0 24 24" fill="none" xmlns="http://www.w3.org/2000/svg">
<g id="icons/Industry/wind-turbine">
<path id="Union" d="M12 1C12.2967 1.00001 12.5786 1.13145 12.7686 1.35938L12 2C12.7268 1.39433 12.7661 1.36171 12.7686 1.36035L12.7715 1.36328C12.7726 1.36468 12.774 1.36642 12.7754 1.36816C12.7784 1.3718 12.782 1.37669 12.7861 1.38184C12.7944 1.39211 12.8047 1.4056 12.8174 1.42188C12.8428 1.45459 12.8767 1.49949 12.918 1.55664C13.0005 1.67094 13.1124 1.83424 13.2432 2.04785C13.505 2.47552 13.844 3.10452 14.1787 3.94141C14.8065 5.51091 15.4159 7.80313 15.4912 10.8643C18.098 12.1571 20.0155 13.856 21.3008 15.2637C21.9909 16.0195 22.5029 16.6956 22.8447 17.1875C23.0155 17.4333 23.1446 17.6334 23.2324 17.7754C23.2763 17.8464 23.3104 17.9031 23.334 17.9434C23.3458 17.9635 23.3546 17.9803 23.3613 17.9922C23.3646 17.9979 23.368 18.0022 23.3701 18.0059C23.3711 18.0075 23.3714 18.0095 23.3721 18.0107L23.373 18.0127L23.374 18.0137C23.3741 18.0141 23.3629 18.0206 22.5 18.5C22.5 19.4816 22.4994 19.4997 22.499 19.5H22.4717C22.4567 19.4998 22.4361 19.4996 22.4102 19.499C22.3577 19.4979 22.2829 19.4955 22.1885 19.4912C21.9994 19.4827 21.7291 19.4658 21.3936 19.4326C20.7233 19.3664 19.7861 19.2344 18.7021 18.9717C17.0241 18.5649 14.9664 17.8328 13 16.5225V22C13 22.5523 12.5523 23 12 23C11.4477 23 11 22.5523 11 22V16.5225C9.03357 17.8328 6.97587 18.5649 5.29785 18.9717C4.21389 19.2344 3.27669 19.3664 2.60645 19.4326C2.27091 19.4658 2.00058 19.4827 1.81152 19.4912C1.71709 19.4955 1.64235 19.4979 1.58984 19.499C1.56393 19.4996 1.54333 19.4998 1.52832 19.5H1.50098C1.5006 19.5 1.5 19.5 1.5 18.5C0.605573 18.0528 0.605292 18.0521 0.605469 18.0518H0.606445L0.618164 18.0283C0.624817 18.0154 0.633856 17.9976 0.645508 17.9756C0.668953 17.9313 0.703217 17.869 0.74707 17.791C0.834731 17.6352 0.963572 17.4157 1.13477 17.1484C1.47693 16.6143 1.99024 15.8854 2.68457 15.0918C3.96612 13.6272 5.8886 11.9147 8.50977 10.8154C8.59029 7.77873 9.19687 5.50256 9.82129 3.94141C10.156 3.10452 10.495 2.47552 10.7568 2.04785C10.8876 1.83424 10.9995 1.67094 11.082 1.55664C11.1233 1.49949 11.1572 1.45459 11.1826 1.42188C11.1953 1.4056 11.2056 1.39211 11.2139 1.38184C11.218 1.37669 11.2216 1.3718 11.2246 1.36816C11.226 1.36642 11.2274 1.36467 11.2285 1.36328L11.2314 1.36035C11.2341 1.36187 11.2751 1.39589 12 2L11.2314 1.35938C11.4214 1.13145 11.7033 1 12 1ZM1.5 18.5V19.5C1.15343 19.5 0.831622 19.3202 0.649414 19.0254C0.467334 18.7306 0.450513 18.3626 0.605469 18.0527L1.5 18.5ZM23.374 18.0146C23.5459 18.3242 23.5417 18.7016 23.3623 19.0068C23.1826 19.3122 22.8543 19.5 22.5 19.5V18.5L23.374 18.0146ZM12 3.95508C11.8967 4.17103 11.7869 4.41307 11.6787 4.68359C11.0992 6.13226 10.5 8.38175 10.5 11.5C10.5 11.9204 10.2369 12.2957 9.8418 12.4395C7.29754 13.3646 5.43034 14.9912 4.19043 16.4082C3.91648 16.7213 3.6753 17.0237 3.46484 17.3027C3.87493 17.236 4.33418 17.1478 4.82715 17.0283C6.79188 16.552 9.24824 15.6087 11.3359 13.7529L11.4092 13.6934C11.7855 13.4173 12.3089 13.4373 12.6641 13.7529C14.7518 15.6087 17.2081 16.552 19.1729 17.0283C19.6124 17.1349 20.0255 17.2144 20.4004 17.2783C20.2267 17.068 20.0359 16.8432 19.8242 16.6113C18.5777 15.2461 16.6828 13.5905 14.0859 12.4102C13.7291 12.2478 13.5 11.892 13.5 11.5C13.5 8.38176 12.9008 6.13226 12.3213 4.68359C12.2131 4.41307 12.1033 4.17103 12 3.95508ZM12 11C12.5523 11 13 11.4477 13 12C13 12.5523 12.5523 13 12 13C11.4477 13 11 12.5523 11 12C11 11.4477 11.4477 11 12 11Z" fill="#9E9E9E"/>
</g>
</svg>
