<svg width="24" height="24" viewBox="0 0 24 24" fill="none" xmlns="http://www.w3.org/2000/svg">
<g id="icons/Industry/worker">
<path id="Union" d="M12 1C12.5523 1 13 1.44772 13 2V3.09961C14.9591 3.49726 16.5017 5.04089 16.8994 7H18C18.5523 7 19 7.44772 19 8C19 8.55228 18.5523 9 18 9H16.8994C16.5577 10.6833 15.3701 12.0577 13.7998 12.6641C18.1487 13.4573 21.5 17.0682 21.5 21.5C21.5 22.0523 21.0523 22.5 20.5 22.5H3.5C2.94772 22.5 2.5 22.0523 2.5 21.5C2.5 17.0686 5.85079 13.4577 10.1992 12.6641C8.62935 12.0575 7.44226 10.683 7.10059 9H6C5.44772 9 5 8.55228 5 8C5 7.44772 5.44772 7 6 7H7.10059C7.49831 5.04089 9.04086 3.49726 11 3.09961V2C11 1.44772 11.4477 1 12 1ZM12 14.5C8.17354 14.5 5.09571 17.1481 4.57812 20.5H19.4219C18.9043 17.1481 15.8265 14.5 12 14.5ZM9 16C9.55228 16 10 16.4477 10 17V19C10 19.5523 9.55228 20 9 20C8.44772 20 8 19.5523 8 19V17C8 16.4477 8.44772 16 9 16ZM15 16C15.5523 16 16 16.4477 16 17V19C16 19.5523 15.5523 20 15 20C14.4477 20 14 19.5523 14 19V17C14 16.4477 14.4477 16 15 16ZM9.17383 9C9.58594 10.1647 10.6941 11 12 11C13.3059 11 14.4141 10.1647 14.8262 9H9.17383ZM12 5C10.6941 5 9.58594 5.83532 9.17383 7H14.8262C14.4141 5.83532 13.3059 5 12 5Z" fill="#9E9E9E"/>
</g>
</svg>
