<svg width="24" height="24" viewBox="0 0 24 24" fill="none" xmlns="http://www.w3.org/2000/svg">
<g id="icons/Clothes/a-cane">
<path id="Union" d="M10.4512 1.71094C11.799 0.883987 13.5804 0.62252 15.6641 1.73047C17.7751 2.85292 18.5035 4.55213 18.5518 6.13672C18.5975 7.63779 18.039 8.97885 17.7032 9.61035C17.409 10.1635 15.6496 13.4743 13.963 16.6465C13.1194 18.2329 12.2941 19.7851 11.6797 20.9404C11.3728 21.5178 11.1181 21.996 10.9405 22.3301C10.8517 22.4971 10.7819 22.6286 10.7344 22.7178C10.7107 22.7623 10.692 22.7963 10.6797 22.8193C10.6737 22.8308 10.6692 22.8399 10.6661 22.8457L10.6622 22.8535C10.4029 23.3411 9.79626 23.5268 9.30865 23.2676C8.82135 23.0082 8.63641 22.4025 8.89557 21.915L8.89655 21.9131C8.89732 21.9116 8.89891 21.9091 8.90045 21.9062C8.90352 21.9005 8.9082 21.892 8.91412 21.8809C8.92635 21.8579 8.94414 21.8229 8.96783 21.7783C9.01523 21.6892 9.08516 21.5585 9.17389 21.3916C9.35153 21.0575 9.606 20.5786 9.91315 20.001C10.5275 18.8456 11.3528 17.2935 12.1964 15.707C13.8834 12.5341 15.644 9.22294 15.9376 8.6709C16.1886 8.19869 16.5837 7.21433 16.5528 6.19727C16.5243 5.26379 16.1459 4.25141 14.7256 3.49609C13.2777 2.7262 12.2507 2.95362 11.4971 3.41602C10.6665 3.92578 10.073 4.79024 9.7569 5.38477C9.49759 5.87229 8.89194 6.05706 8.40436 5.79785C7.91711 5.53853 7.73235 4.93374 7.99127 4.44629C8.37937 3.71642 9.18064 2.49061 10.4512 1.71094Z" fill="#9E9E9E"/>
</g>
</svg>
