<svg width="24" height="24" viewBox="0 0 24 24" fill="none" xmlns="http://www.w3.org/2000/svg">
<g id="icons/Clothes/bachelor-cap-one">
<path id="Union" d="M11.5342 2.11523C11.8257 1.96179 12.1743 1.96179 12.4658 2.11523L21.958 7.11133C21.9984 7.13221 22.0372 7.15564 22.0742 7.18164C22.0822 7.18726 22.0898 7.19338 22.0977 7.19922C22.1246 7.21934 22.1501 7.241 22.1748 7.26367C22.1806 7.26898 22.1867 7.27387 22.1924 7.2793C22.2221 7.3079 22.2503 7.33805 22.2764 7.37012C22.2799 7.37446 22.2827 7.37938 22.2861 7.38379C22.307 7.41044 22.3266 7.43807 22.3447 7.4668C22.352 7.47829 22.3585 7.49018 22.3652 7.50195C22.4047 7.57035 22.4365 7.64332 22.459 7.7207C22.4614 7.72912 22.4636 7.7376 22.4658 7.74609C22.4746 7.77969 22.482 7.81376 22.4873 7.84863C22.4883 7.85546 22.4893 7.86228 22.4902 7.86914C22.4958 7.91197 22.5 7.95564 22.5 8V16C22.4999 16.5522 22.0522 17 21.5 17C20.9478 17 20.5001 16.5522 20.5 16V9.65527L19.5 10.1816V17.2324C19.4997 18.4581 18.6265 19.4559 17.5186 19.7471C16.4607 20.0252 14.8553 20.5401 13.3027 21.3916C12.4926 21.8358 11.5074 21.8358 10.6973 21.3916C9.14468 20.5401 7.53928 20.0252 6.48145 19.7471C5.44263 19.474 4.60978 18.5798 4.50977 17.459L4.5 17.2324V10.1816L2.03418 8.88477C1.70574 8.71185 1.50006 8.37117 1.5 8C1.5 7.62879 1.70573 7.28819 2.03418 7.11523L11.5342 2.11523ZM12.4658 13.8848C12.1743 14.0382 11.8257 14.0382 11.5342 13.8848L6.5 11.2344V17.2324L6.50879 17.3223C6.54797 17.5329 6.72099 17.7417 6.99023 17.8125C8.13711 18.114 9.91229 18.6796 11.6592 19.6377C11.8702 19.7533 12.1298 19.7533 12.3408 19.6377C14.0877 18.6796 15.8629 18.114 17.0098 17.8125C17.3174 17.7316 17.4997 17.4705 17.5 17.2324V11.2344L12.4658 13.8848ZM4.64648 8L12 11.8691L19.3525 8L12 4.12988L4.64648 8Z" fill="#9E9E9E"/>
</g>
</svg>
