<svg width="24" height="24" viewBox="0 0 24 24" fill="none" xmlns="http://www.w3.org/2000/svg">
<g id="icons/Clothes/bachelor-cap">
<path id="Union" d="M11.8779 3.00781C11.9994 2.99287 12.1228 3.00045 12.2422 3.03027L22.2422 5.53027C22.6873 5.6416 23 6.04116 23 6.5C22.9998 6.95871 22.6872 7.35846 22.2422 7.46973L18.5 8.40527V12.9854C18.4999 13.3349 18.3175 13.6596 18.0186 13.8408L17.5 12.9854L18.0176 13.8408L18.0156 13.8418L18.0039 13.8496C17.9967 13.8539 17.9866 13.8592 17.9746 13.8662C17.9504 13.8803 17.9166 13.9001 17.874 13.9238C17.7888 13.9714 17.6672 14.0368 17.5137 14.1143C17.2064 14.2694 16.7674 14.474 16.2295 14.6777C15.1606 15.0825 13.6606 15.5 12 15.5C10.3394 15.5 8.83939 15.0825 7.77051 14.6777C7.23265 14.474 6.79355 14.2694 6.48633 14.1143C6.33285 14.0368 6.21121 13.9714 6.12598 13.9238C6.08338 13.9001 6.04956 13.8803 6.02539 13.8662C6.01343 13.8592 6.00335 13.8539 5.99609 13.8496L5.98438 13.8418L5.98242 13.8408C5.9831 13.8392 6.00414 13.8038 6.5 12.9854L5.98145 13.8408C5.68255 13.6596 5.50015 13.3349 5.5 12.9854V8.40527L4.5 8.15527V16H5C5.55228 16 6 16.4477 6 17V20C5.9998 20.5521 5.55216 21 5 21H2C1.44784 21 1.0002 20.5521 1 20V17C1 16.4477 1.44772 16 2 16H2.5V7.65527L1.75781 7.46973C1.31276 7.35846 1.00017 6.95871 1 6.5C1 6.04116 1.31269 5.6416 1.75781 5.53027L11.7578 3.03027L11.8779 3.00781ZM4 18.8643C3.85276 18.9496 3.68243 19 3.5 19H4V18.8643ZM3 19H3.5C3.31757 19 3.14724 18.9496 3 18.8643V19ZM12.2422 9.96973C12.0831 10.0094 11.9169 10.0094 11.7578 9.96973L7.5 8.90527V12.3818C7.74787 12.5031 8.08048 12.6565 8.47949 12.8076C9.41055 13.1601 10.6609 13.5 12 13.5C13.3391 13.5 14.5894 13.1601 15.5205 12.8076C15.9195 12.6565 16.2521 12.5031 16.5 12.3818V8.90527L12.2422 9.96973ZM6.12109 6.5L12 7.96973L17.8789 6.5L12 5.03027L6.12109 6.5Z" fill="#9E9E9E"/>
</g>
</svg>
