<svg width="24" height="24" viewBox="0 0 24 24" fill="none" xmlns="http://www.w3.org/2000/svg">
<g id="icons/Clothes/bachelor-cap-two">
<path id="Union" d="M11.5342 2.61523C11.8257 2.46179 12.1743 2.46179 12.4658 2.61523L21.9658 7.61523C22.2943 7.78819 22.5 8.12879 22.5 8.5C22.4999 8.87117 22.2943 9.21185 21.9658 9.38477L19.5 10.6816V18.0195C19.4999 18.6189 19.2249 19.243 18.6484 19.6143C17.7007 20.2245 15.3266 21.5 12 21.5C8.67343 21.5 6.29925 20.2245 5.35156 19.6143C4.7751 19.243 4.50009 18.6189 4.5 18.0195V10.6816L2.03418 9.38477C1.70574 9.21185 1.50006 8.87117 1.5 8.5C1.5 8.12879 1.70573 7.78819 2.03418 7.61523L11.5342 2.61523ZM12.4658 14.3848C12.1743 14.5382 11.8257 14.5382 11.5342 14.3848L6.5 11.7344V17.9736C7.29933 18.4763 9.26398 19.5 12 19.5C14.736 19.5 16.7007 18.4763 17.5 17.9736V11.7344L12.4658 14.3848ZM21.5 11C22.0523 11 22.5 11.4477 22.5 12V16C22.4999 16.5522 22.0522 17 21.5 17C20.9478 17 20.5001 16.5522 20.5 16V12C20.5 11.4477 20.9477 11 21.5 11ZM4.64648 8.5L12 12.3691L19.3525 8.5L12 4.62988L4.64648 8.5Z" fill="#9E9E9E"/>
</g>
</svg>
