<svg width="24" height="24" viewBox="0 0 24 24" fill="none" xmlns="http://www.w3.org/2000/svg">
<g id="icons/Clothes/backpack">
<path id="Union" d="M9.5 1C10.0523 1 10.5 1.44772 10.5 2V4H13.5V2C13.5 1.44772 13.9477 1 14.5 1H17.5C18.0523 1 18.5 1.44772 18.5 2V6.68262C19.1317 7.63287 19.5 8.77339 19.5 10V13.5H21.5C22.0523 13.5 22.5 13.9477 22.5 14.5V19.5C22.5 20.0523 22.0523 20.5 21.5 20.5H19.458C19.2199 21.9188 17.9865 23 16.5 23H7.5C6.01355 23 4.78007 21.9188 4.54199 20.5H2.5C1.94772 20.5 1.5 20.0523 1.5 19.5V14.5C1.5 13.9477 1.94772 13.5 2.5 13.5H4.5V10C4.5 8.77339 4.86826 7.63287 5.5 6.68262V2C5.5 1.44772 5.94772 1 6.5 1H9.5ZM10.5 6C8.29088 6 6.5 7.79088 6.5 10V20C6.5 20.5523 6.94773 21 7.5 21H16.5C17.0523 21 17.5 20.5523 17.5 20V10C17.5 7.79088 15.7091 6 13.5 6H10.5ZM3.5 18.5H4.5V15.5H3.5V18.5ZM19.5 18.5H20.5V15.5H19.5V18.5ZM15.5 10.5C16.0523 10.5 16.5 10.9477 16.5 11.5C16.5 12.0523 16.0523 12.5 15.5 12.5H15V13.5C15 14.0523 14.5523 14.5 14 14.5C13.4477 14.5 13 14.0523 13 13.5V12.5H8.5C7.94772 12.5 7.5 12.0523 7.5 11.5C7.5 10.9477 7.94772 10.5 8.5 10.5H15.5ZM7.5 4.80371C7.81631 4.6207 8.15057 4.46531 8.5 4.3418V3H7.5V4.80371ZM15.5 4.3418C15.8494 4.46531 16.1837 4.6207 16.5 4.80371V3H15.5V4.3418Z" fill="#9E9E9E"/>
</g>
</svg>
