<svg width="24" height="24" viewBox="0 0 24 24" fill="none" xmlns="http://www.w3.org/2000/svg">
<g id="icons/Clothes/baseball-cap">
<path id="Union" d="M14 2C15.6569 2 17 3.34315 17 5C17 5.50511 16.8728 5.97983 16.6523 6.39746C20.3283 7.5295 23 10.9526 23 15V18C23 18.5523 22.5523 19 22 19H17.9502C17.983 19.1615 18 19.3288 18 19.5C18 20.8807 16.8807 22 15.5 22H3.5C2.11929 22 1 20.8807 1 19.5C1 18.1193 2.11929 17 3.5 17H5V15C5 10.9529 7.67118 7.52978 11.3467 6.39746C11.1263 5.97993 11 5.50495 11 5C11 3.34315 12.3431 2 14 2ZM3.5 19C3.22386 19 3 19.2239 3 19.5C3 19.7761 3.22386 20 3.5 20H15.5C15.7761 20 16 19.7761 16 19.5C16 19.2239 15.7761 19 15.5 19H3.5ZM10.7295 8.80957C8.51131 9.9839 7 12.3154 7 15V17H9.83496C9.7959 16.5623 9.77186 16.0703 9.76465 15.5566C9.74844 14.4002 9.81303 13.0253 10.0098 11.6973C10.1567 10.7058 10.383 9.69499 10.7295 8.80957ZM13.999 8C13.655 8.00013 13.2678 8.20211 12.8633 8.94922C12.4603 9.69363 12.1689 10.7708 11.9883 11.9902C11.81 13.1933 11.7496 14.4593 11.7646 15.5293C11.7729 16.1167 11.8048 16.616 11.8447 17H16.0801C16.1537 15.7541 16.1703 13.7421 15.915 11.8857C15.7489 10.6779 15.4796 9.62703 15.0967 8.90625C14.7175 8.19264 14.3482 8 13.999 8ZM17.2295 8.79004C17.5555 9.65752 17.7632 10.645 17.8965 11.6143C18.1631 13.5539 18.1589 15.6271 18.084 17H21V15C21 12.2992 19.4696 9.95738 17.2295 8.79004ZM14 4C13.4477 4 13 4.44772 13 5C13 5.55228 13.4477 6 14 6C14.5523 6 15 5.55228 15 5C15 4.44772 14.5523 4 14 4Z" fill="#9E9E9E"/>
</g>
</svg>
