<svg width="24" height="24" viewBox="0 0 24 24" fill="none" xmlns="http://www.w3.org/2000/svg">
<g id="icons/Clothes/basketball-clothes">
<path id="Union" d="M9 1C9.55228 1 10 1.44772 10 2C10 3.10457 10.8954 4 12 4C13.1046 4 14 3.10457 14 2C14 1.44772 14.4477 1 15 1H16.5C17.6071 1 18.4867 1.89187 18.5156 2.97266C18.5325 3.60554 18.5672 4.45216 18.6387 5.25977C18.7126 6.09453 18.8183 6.79346 18.9482 7.18359C19.0688 7.54519 19.4256 8.05925 19.9336 8.62207C20.4168 9.15746 20.9467 9.63961 21.2881 9.93555C21.7255 10.3147 21.9999 10.8722 22 11.4805V21C22 22.1046 21.1046 23 20 23H4C2.89544 23 2 22.1046 2 21V11.4805C2.00005 10.8722 2.2746 10.3147 2.71191 9.93555C3.05325 9.63961 3.58321 9.15746 4.06641 8.62207C4.57435 8.05925 4.93122 7.54519 5.05176 7.18359C5.18173 6.79346 5.28742 6.09453 5.36133 5.25977C5.43282 4.45216 5.46749 3.60554 5.48438 2.97266C5.51325 1.89187 6.39291 1 7.5 1H9ZM7.49316 3.00391C7.49031 3.00672 7.48786 3.01034 7.48633 3.01367C7.48509 3.01649 7.48359 3.02026 7.4834 3.02539C7.46598 3.67842 7.43008 4.57051 7.35352 5.43555C7.27935 6.27328 7.15966 7.18211 6.94824 7.81641C6.68819 8.59629 6.08576 9.36915 5.55078 9.96191C4.99109 10.5821 4.39387 11.1244 4.02148 11.4473C4.01148 11.456 4.0059 11.4653 4.00293 11.4717C4.00052 11.4769 4.00002 11.4797 4 11.4805V21H20V11.4805C20 11.4797 19.9995 11.4769 19.9971 11.4717C19.9941 11.4653 19.9885 11.456 19.9785 11.4473C19.6061 11.1244 19.0089 10.5821 18.4492 9.96191C17.9142 9.36915 17.3118 8.59629 17.0518 7.81641C16.8403 7.18211 16.7206 6.27328 16.6465 5.43555C16.5699 4.57051 16.534 3.67842 16.5166 3.02539C16.5164 3.02026 16.5149 3.01649 16.5137 3.01367C16.5121 3.01034 16.5097 3.00672 16.5068 3.00391C16.5045 3.00165 16.5027 3.0004 16.502 3H15.874C15.43 4.72523 13.8638 6 12 6C10.1362 6 8.57002 4.72523 8.12598 3H7.49805C7.49726 3.0004 7.49549 3.00165 7.49316 3.00391ZM10.5 11C11.0523 11 11.5 11.4477 11.5 12V18C11.5 18.5523 11.0523 19 10.5 19H7.5C6.94772 19 6.5 18.5523 6.5 18C6.5 17.4477 6.94772 17 7.5 17H9.5V16H7.5C6.94772 16 6.5 15.5523 6.5 15C6.5 14.4477 6.94772 14 7.5 14H9.5V13H7.5C6.94772 13 6.5 12.5523 6.5 12C6.5 11.4477 6.94772 11 7.5 11H10.5ZM16.5 11C17.0523 11 17.5 11.4477 17.5 12V18C17.5 18.5523 17.0523 19 16.5 19H13.5C12.9477 19 12.5 18.5523 12.5 18V12C12.5 11.4477 12.9477 11 13.5 11H16.5ZM14.5 17H15.5V13H14.5V17Z" fill="#9E9E9E"/>
</g>
</svg>
