<svg width="24" height="24" viewBox="0 0 24 24" fill="none" xmlns="http://www.w3.org/2000/svg">
<g id="icons/Clothes/belt">
<path id="Union" d="M17.7325 1.3252C18.1253 1.00452 18.7052 1.02732 19.0714 1.39355L22.6066 4.92871C22.997 5.31919 22.9969 5.95227 22.6066 6.34277L17.6622 11.2852C17.66 11.2875 17.6587 11.2907 17.6564 11.293C17.6541 11.2953 17.6509 11.2966 17.6486 11.2988L15.8419 13.1064C16.2952 13.8736 16.1953 14.877 15.5363 15.5361L11.2941 19.7783C10.635 20.4373 9.63153 20.5372 8.86438 20.084L6.3429 22.6064C6.15542 22.7937 5.90088 22.8994 5.63586 22.8994C5.37082 22.8993 5.11628 22.7938 4.92883 22.6064L1.39368 19.0703C1.00331 18.6798 1.0032 18.0467 1.39368 17.6562L3.91418 15.1348C3.46267 14.3679 3.56437 13.3654 4.22278 12.707L8.46497 8.46484C9.12348 7.80638 10.1258 7.70538 10.8927 8.15723L17.6573 1.39355L17.7325 1.3252ZM3.51379 18.3633L5.63586 20.4844L7.40344 18.7168L5.28137 16.5947L3.51379 18.3633ZM5.63684 14.1211L9.87903 18.3643L12.0001 16.2422L10.5861 14.8281L9.87903 15.5352C9.48853 15.9257 8.8555 15.9256 8.46497 15.5352C8.07461 15.1446 8.0745 14.5116 8.46497 14.1211L9.172 13.4141L7.75793 12L5.63684 14.1211ZM12.0001 13.4141L13.4142 14.8281L14.1222 14.1211L12.7072 12.707L12.0001 13.4141ZM9.172 10.5859L10.5861 12L11.2931 11.293L9.87903 9.87891L9.172 10.5859ZM12.3536 9.52441L14.4747 11.6455L15.5343 10.585L13.4132 8.46387L12.3536 9.52441ZM14.8273 7.0498L16.9484 9.1709L18.0099 8.10938L15.8888 5.98828L14.8273 7.0498ZM17.3029 4.57422L19.424 6.69531L20.4855 5.63574L18.3644 3.51465L17.3029 4.57422Z" fill="#9E9E9E"/>
</g>
</svg>
