<svg width="24" height="24" viewBox="0 0 24 24" fill="none" xmlns="http://www.w3.org/2000/svg">
<g id="icons/Clothes/boots">
<path id="Union" d="M17.5 1C17.7868 1 18.0602 1.12287 18.25 1.33789C18.4398 1.55292 18.5278 1.83941 18.4922 2.12402L16.5791 17.4229C17.7565 18.0183 18.4999 19.2246 18.5 20.5449V22C18.5 22.5523 18.0523 23 17.5 23H5C4.44772 23 4 22.5523 4 22V21L4.01074 20.8555C4.05907 20.5242 4.27126 20.2348 4.58105 20.0918L10.417 17.3975L8.50781 2.12402C8.47224 1.83941 8.56017 1.55292 8.75 1.33789C8.93983 1.12287 9.21317 1 9.5 1H17.5ZM11.1328 7L12.4922 17.876C12.5462 18.3081 12.3143 18.7257 11.9189 18.9082L7.38672 21H16.5V20.5449C16.4999 19.9768 16.179 19.4572 15.6709 19.2031L15.0527 18.8945C14.6735 18.7049 14.4552 18.2967 14.5078 17.876L15.8672 7H11.1328ZM10.8828 5H16.1172L16.3672 3H10.6328L10.8828 5Z" fill="#9E9E9E"/>
</g>
</svg>
