<svg width="24" height="24" viewBox="0 0 24 24" fill="none" xmlns="http://www.w3.org/2000/svg">
<g id="icons/Clothes/bow">
<path id="Union" d="M20.6698 6.12793C22.0726 5.94682 23.0238 7.3445 22.5194 8.58887C22.2033 9.36822 21.7449 10.2819 21.4725 10.9023C21.1566 11.6221 21 12.1302 20.9999 12.5C20.9999 12.9296 21.1149 13.542 21.3417 14.291C21.5641 15.0255 21.8759 15.8336 22.2274 16.6338L22.2753 16.752C22.7227 17.9883 21.8712 19.5866 20.2762 19.4111C18.837 19.2525 17.0178 18.8174 15.5448 17.6143C14.8658 17.0596 14.2867 16.362 13.8524 15.5H10.1473C9.71306 16.362 9.1339 17.0596 8.45496 17.6143C6.98197 18.8174 5.16284 19.2525 3.72351 19.4111C2.07696 19.5925 1.2232 17.8837 1.77234 16.6338C2.12393 15.8336 2.43564 15.0256 2.65808 14.291C2.88488 13.542 2.99988 12.9297 2.99988 12.5C2.99978 12.1302 2.84309 11.622 2.52722 10.9023C2.25488 10.282 1.79546 9.36816 1.47937 8.58887C0.975275 7.34475 1.92663 5.94735 3.32898 6.12793L3.46667 6.15039L3.72058 6.20508C5.81253 6.68636 7.9345 7.97234 9.59949 9.58398C9.72211 9.53032 9.85747 9.50001 9.99988 9.5H13.9999C14.1415 9.5 14.2762 9.52992 14.3983 9.58301C16.131 7.90588 18.3596 6.58264 20.5331 6.15039L20.6698 6.12793ZM3.49207 8.20801C3.76798 8.84179 4.05243 9.40099 4.35828 10.0977C4.67868 10.8275 4.99979 11.6743 4.99988 12.5C4.99988 13.2198 4.82006 14.0513 4.57214 14.8701C4.32283 15.6935 3.98379 16.5679 3.61609 17.4072C4.8528 17.2584 6.17716 16.8921 7.18933 16.0654C8.1356 15.2925 8.91494 14.0317 8.99109 11.8535C7.516 10.1245 5.43145 8.71973 3.49207 8.20801ZM20.5067 8.20801C18.5675 8.71982 16.4826 10.1238 15.0077 11.8525C15.0836 14.0311 15.8632 15.2923 16.8094 16.0654C17.8215 16.8921 19.1461 17.2584 20.3827 17.4072C20.015 16.568 19.6759 15.6934 19.4266 14.8701C19.1787 14.0513 18.9999 13.2197 18.9999 12.5C19 11.6743 19.3201 10.8275 19.6405 10.0977C19.9464 9.40096 20.2308 8.84178 20.5067 8.20801ZM10.9999 13.5H12.9999V11.5H10.9999V13.5Z" fill="#9E9E9E"/>
</g>
</svg>
