<svg width="24" height="24" viewBox="0 0 24 24" fill="none" xmlns="http://www.w3.org/2000/svg">
<g id="icons/Clothes/briefcase">
<path id="Union" d="M11.9998 1C13.5792 1 14.8478 2.04946 15.6677 3.31836C16.3374 4.35477 16.7907 5.64915 16.9431 7H19.4998C20.0198 7 20.4526 7.39871 20.4958 7.91699L20.9919 13.874L21.99 20.8584C22.031 21.1453 21.9455 21.4363 21.7556 21.6553C21.5657 21.8742 21.2896 22 20.9998 22H2.99976C2.70997 21.9999 2.43377 21.8742 2.2439 21.6553C2.05415 21.4363 1.96856 21.1452 2.00952 20.8584L3.00659 13.874L3.50366 7.91699C3.54685 7.3988 3.9798 7.00015 4.49976 7H7.05737C7.20983 5.64923 7.66219 4.35474 8.33179 3.31836C9.15167 2.04948 10.4204 1.00013 11.9998 1ZM4.86694 15L4.15308 20H19.8464L19.1326 15H14.4998V15.5C14.4998 16.0523 14.052 16.5 13.4998 16.5H10.4998C9.9476 16.4998 9.49976 16.0522 9.49976 15.5V15H4.86694ZM11.4998 14.5H12.4998V13.5H11.4998V14.5ZM5.08569 13H9.49976V12.5C9.49976 11.9478 9.9476 11.5002 10.4998 11.5H13.4998C14.052 11.5 14.4998 11.9477 14.4998 12.5V13H18.9138L18.5798 9H5.41968L5.08569 13ZM11.9998 3C11.3703 3.00013 10.6391 3.43207 10.0115 4.40332C9.55225 5.1141 9.21431 6.02625 9.073 7H14.9275C14.7862 6.02617 14.4473 5.11413 13.988 4.40332C13.3603 3.43202 12.6293 3 11.9998 3Z" fill="#9E9E9E"/>
</g>
</svg>
