<svg width="24" height="24" viewBox="0 0 24 24" fill="none" xmlns="http://www.w3.org/2000/svg">
<g id="icons/Clothes/chef-hat">
<path id="Union" d="M12 1C13.53 1 14.7633 1.61471 15.6104 2.38477C16.0319 2.768 16.3679 3.19871 16.6035 3.62891C16.6745 3.75848 16.7387 3.89503 16.7949 4.03516C17.8773 4.12529 18.9178 4.40939 19.7568 4.99023C20.8538 5.74967 21.5 6.94013 21.5 8.5C21.5 10.096 20.7029 11.3264 19.9902 12.1104C19.6289 12.5078 19.2696 12.8128 19 13.0195V21C19 21.5523 18.5523 22 18 22H6C5.44772 22 5 21.5523 5 21V13.0195C4.73043 12.8128 4.37108 12.5078 4.00977 12.1104C3.29707 11.3264 2.5 10.096 2.5 8.5C2.5 6.85405 3.34831 5.68581 4.45898 4.97168C5.28868 4.4383 6.26929 4.15067 7.19922 4.04688C7.25651 3.90246 7.32348 3.76222 7.39648 3.62891C7.6321 3.19871 7.96809 2.768 8.38965 2.38477C9.23673 1.61471 10.47 1 12 1ZM7 20H17V18H7V20ZM12 3C11.03 3 10.2633 3.38531 9.73535 3.86523C9.46949 4.10693 9.27414 4.36387 9.15039 4.58984C9.01852 4.8307 9 4.97516 9 5C9 5.55228 8.55228 6 8 6C7.14259 6 6.21769 6.21844 5.54102 6.65332C4.90186 7.06421 4.5 7.64612 4.5 8.5C4.5 9.40393 4.95294 10.1736 5.49023 10.7646C5.75342 11.0542 6.01872 11.28 6.21777 11.4326C6.31659 11.5084 6.39727 11.565 6.4502 11.6006C6.47642 11.6182 6.49567 11.6306 6.50684 11.6377L6.51465 11.6426C6.81577 11.8233 7 12.1488 7 12.5V16H10V13C10 12.4477 10.4477 12 11 12C11.5523 12 12 12.4477 12 13V16H13.5V10C13.5 9.44771 13.9477 9 14.5 9C15.0523 9 15.5 9.44771 15.5 10V16H17V12.5C17 12.15 17.1831 11.8256 17.4824 11.6445C17.4837 11.6437 17.4876 11.6412 17.4932 11.6377C17.5043 11.6306 17.5236 11.6182 17.5498 11.6006C17.6027 11.565 17.6834 11.5084 17.7822 11.4326C17.9813 11.28 18.2466 11.0542 18.5098 10.7646C19.0471 10.1736 19.5 9.40393 19.5 8.5C19.5 7.5599 19.1462 7.00033 18.6182 6.63477C18.0363 6.23194 17.1404 6 16 6C15.4477 6 15 5.55228 15 5C15 4.97516 14.9815 4.8307 14.8496 4.58984C14.7259 4.36387 14.5305 4.10693 14.2646 3.86523C13.7367 3.38531 12.97 3 12 3Z" fill="#9E9E9E"/>
</g>
</svg>
