<svg width="24" height="24" viewBox="0 0 24 24" fill="none" xmlns="http://www.w3.org/2000/svg">
<g id="icons/Clothes/children-cap">
<path id="Union" d="M17 3C17.8442 3 18.5388 3.591 19.0283 4.18359C19.561 4.82846 20.0621 5.72707 20.4932 6.82129C21.3028 8.87678 21.9155 11.7463 21.9912 15.2637C22.5936 15.6083 23 16.2563 23 17V19C23 20.1046 22.1046 21 21 21H3C1.89543 21 1 20.1046 1 19V17C1 16.2566 1.40585 15.6084 2.00781 15.2637C2.08355 11.7462 2.69716 8.87679 3.50684 6.82129C3.93789 5.72707 4.43897 4.82846 4.97168 4.18359C5.46125 3.591 6.15581 3 7 3C7.70303 3 8.29708 3.34391 8.72656 3.6875C9.16995 4.04221 9.55538 4.49115 9.8623 4.90039C10.1642 5.30296 10.414 5.70023 10.5898 6H13.4102C13.586 5.70023 13.8358 5.30296 14.1377 4.90039C14.4446 4.49115 14.83 4.04221 15.2734 3.6875C15.7029 3.34391 16.297 3 17 3ZM3 19H21V17H3V19ZM16.9785 5.00195C16.9141 5.0104 16.7644 5.05725 16.5234 5.25C16.2637 5.45776 15.9928 5.75891 15.7373 6.09961C15.4861 6.4345 15.2736 6.77543 15.1221 7.03516C15.0469 7.16399 14.9882 7.2709 14.9492 7.34375C14.9298 7.38003 14.9145 7.40798 14.9053 7.42578C14.9008 7.43443 14.8974 7.4407 14.8955 7.44434C14.8946 7.44611 14.8948 7.44777 14.8945 7.44824V7.44727C14.7251 7.78605 14.3788 8 14 8H10C9.66854 8 9.36169 7.83633 9.17676 7.56836L9.10547 7.44727C9.10516 7.44666 9.10511 7.44554 9.10449 7.44434C9.10264 7.4407 9.09919 7.43443 9.09473 7.42578C9.08553 7.40798 9.07021 7.38003 9.05078 7.34375C9.01176 7.2709 8.95308 7.16399 8.87793 7.03516C8.72642 6.77543 8.51387 6.4345 8.2627 6.09961C8.00716 5.75891 7.73626 5.45776 7.47656 5.25C7.23442 5.05628 7.08443 5.01005 7.02051 5.00195C6.99343 5.01573 6.81641 5.08938 6.5127 5.45703C6.15485 5.89025 5.74953 6.58572 5.36816 7.55371C4.67957 9.30169 4.11598 11.8268 4.0166 15H19.9834C19.884 11.8268 19.3204 9.30169 18.6318 7.55371C18.2505 6.58572 17.8451 5.89025 17.4873 5.45703C17.1805 5.08564 17.0028 5.01468 16.9785 5.00195Z" fill="#9E9E9E"/>
</g>
</svg>
