<svg width="24" height="24" viewBox="0 0 24 24" fill="none" xmlns="http://www.w3.org/2000/svg">
<g id="icons/Clothes/clothes-sweater">
<path id="Union" d="M16.0859 1.00391L16.1016 1.00488C16.1039 1.00512 16.1061 1.00561 16.1084 1.00586C16.2026 1.01611 16.2963 1.04057 16.3877 1.0791C16.3896 1.0799 16.3917 1.08025 16.3936 1.08105L19.8945 2.58105C19.916 2.59027 19.9371 2.60055 19.958 2.61133L19.9795 2.62207C19.9805 2.62263 19.9814 2.62346 19.9824 2.62402C20.0212 2.64535 20.0586 2.66949 20.0947 2.69629C20.0973 2.69823 20.0999 2.70018 20.1025 2.70215C20.1366 2.72793 20.169 2.75642 20.2002 2.78711C20.2023 2.78921 20.2049 2.79085 20.207 2.79297L22.707 5.29297C22.8946 5.4805 23 5.73478 23 6V18.5C23 19.0523 22.5523 19.5 22 19.5H19.5V22C19.5 22.5523 19.0523 23 18.5 23H5.5C4.94772 23 4.5 22.5523 4.5 22V19.5H2C1.44772 19.5 1 19.0523 1 18.5V6L1.00488 5.90137C1.02757 5.67237 1.12883 5.45711 1.29297 5.29297L3.80371 2.78223C3.82154 2.76491 3.83962 2.74815 3.8584 2.73242L3.86328 2.72852C3.8656 2.72661 3.86779 2.72454 3.87012 2.72266C3.94258 2.66381 4.02158 2.61666 4.10449 2.58105L7.60645 1.08105L7.61523 1.07715C7.64209 1.06593 7.66902 1.0556 7.69629 1.04688L7.70117 1.0459C7.70284 1.04538 7.70438 1.04446 7.70605 1.04395C7.78987 1.01808 7.87511 1.00333 7.95996 1H16.04C16.0554 1.0006 16.0706 1.00259 16.0859 1.00391ZM3 6.41406V17.5H4.5V9.5C4.5 8.94772 4.94772 8.5 5.5 8.5C6.05228 8.5 6.5 8.94772 6.5 9.5V21H11V10.9346L4.52344 4.88965L3 6.41406ZM13 10.9346V21H17.5V9.5C17.5 8.94772 17.9477 8.5 18.5 8.5C19.0523 8.5 19.5 8.94772 19.5 9.5V17.5H21V6.41406L19.4756 4.88965L13 10.9346ZM11.999 8.15039L14.4238 3H9.57617L11.999 8.15039ZM15.1191 6.21973L17.6963 3.81445L16.4941 3.29883L15.1191 6.21973ZM6.30273 3.81445L8.87988 6.21973L7.50488 3.29883L6.30273 3.81445Z" fill="#9E9E9E"/>
</g>
</svg>
