<svg width="24" height="24" viewBox="0 0 24 24" fill="none" xmlns="http://www.w3.org/2000/svg">
<g id="icons/Clothes/clothes-hoodie">
<path id="Union" d="M19.5 1C19.8952 1 20.2536 1.23262 20.4141 1.59375L21.4141 3.84375C21.529 4.10232 21.529 4.39768 21.4141 4.65625L20.707 6.24609C22.0533 7.57481 23 9.33066 23 11V18.5C23 19.0523 22.5523 19.5 22 19.5H19.5V22C19.5 22.5523 19.0523 23 18.5 23H5.5C4.94772 23 4.5 22.5523 4.5 22V19.5H2C1.44772 19.5 1 19.0523 1 18.5V11C1 9.33086 1.94601 7.57475 3.29199 6.24609L2.58594 4.65625C2.47102 4.39768 2.47102 4.10232 2.58594 3.84375L3.58594 1.59375L3.65527 1.46484C3.83673 1.17828 4.15415 1 4.5 1H19.5ZM13 9.41406V13.5C13 14.0523 12.5523 14.5 12 14.5C11.4477 14.5 11 14.0523 11 13.5V9.41406L7.66895 6.08301C7.51239 6.11979 7.32331 6.16817 7.11523 6.23438C6.4975 6.43097 5.75552 6.75617 5.14062 7.26855C3.7804 8.40208 3 9.89512 3 11V17.5H4.5V11C4.5 10.4477 4.94772 10 5.5 10C6.05228 10 6.5 10.4477 6.5 11V21H17.5V11C17.5 10.4477 17.9477 10 18.5 10C19.0523 10 19.5 10.4477 19.5 11V17.5H21V11C21 9.89512 20.2196 8.40208 18.8594 7.26855C18.2445 6.75617 17.5025 6.43097 16.8848 6.23438C16.6763 6.16804 16.4868 6.11982 16.3301 6.08301L13 9.41406ZM4.59375 4.25L4.92969 5.00391C4.95127 4.99192 4.97357 4.98143 4.99512 4.96973C5.10433 4.91045 5.2126 4.85399 5.32031 4.80176C5.34837 4.78814 5.3764 4.77488 5.4043 4.76172C5.50587 4.71387 5.60624 4.66894 5.70508 4.62695C5.73784 4.61302 5.77035 4.59925 5.80273 4.58594C5.90489 4.54399 6.00493 4.50482 6.10254 4.46875C6.12522 4.46036 6.14752 4.45145 6.16992 4.44336C6.28762 4.4009 6.40128 4.36264 6.50977 4.32812C6.89309 4.20618 7.22548 4.12786 7.46484 4.0791C7.58458 4.05471 7.68194 4.03764 7.75195 4.02637C7.78684 4.02075 7.81514 4.01566 7.83594 4.0127C7.84635 4.01121 7.85567 4.01065 7.8623 4.00977C7.86531 4.00936 7.86793 4.00907 7.87012 4.00879C7.87129 4.00864 7.8731 4.00793 7.87402 4.00781H7.87598C8.18218 3.96954 8.48882 4.07476 8.70703 4.29297L12 7.58594L15.293 4.29297L15.3789 4.2168C15.588 4.05097 15.8561 3.97432 16.124 4.00781L16 5L16.125 4.00781H16.126C16.1269 4.00793 16.1287 4.00864 16.1299 4.00879C16.1321 4.00907 16.1347 4.00936 16.1377 4.00977C16.1443 4.01065 16.1536 4.01121 16.1641 4.0127C16.1849 4.01566 16.2132 4.02075 16.248 4.02637C16.3181 4.03764 16.4154 4.05471 16.5352 4.0791C16.7745 4.12786 17.1069 4.20618 17.4902 4.32812C17.5985 4.36256 17.7117 4.40103 17.8291 4.44336C17.8515 4.45145 17.8738 4.46035 17.8965 4.46875C17.9941 4.50481 18.0941 4.544 18.1963 4.58594C18.2287 4.59926 18.2612 4.61301 18.2939 4.62695C18.3928 4.66893 18.4931 4.71388 18.5947 4.76172C18.6222 4.7747 18.6501 4.78735 18.6777 4.80078C18.795 4.85762 18.9132 4.91915 19.0322 4.98438C19.0445 4.99108 19.0571 4.99711 19.0693 5.00391L19.4053 4.25L18.8496 3H5.15039L4.59375 4.25Z" fill="#9E9E9E"/>
</g>
</svg>
