<svg width="24" height="24" viewBox="0 0 24 24" fill="none" xmlns="http://www.w3.org/2000/svg">
<g id="icons/Clothes/clothes-turtleneck">
<path id="Union" d="M15 1C15.5523 1 16 1.44772 16 2V4.24707C16.2898 4.33624 16.6459 4.45113 17.0322 4.59277C17.9889 4.9436 19.2515 5.49051 20.1406 6.23145C21.7803 7.59792 23 9.60491 23 11.5V18.5C23 19.0523 22.5523 19.5 22 19.5H19.5V22C19.5 22.5523 19.0523 23 18.5 23H5.5C4.94772 23 4.5 22.5523 4.5 22V19.5H2C1.44772 19.5 1 19.0523 1 18.5V11.5C1 9.60491 2.21965 7.59792 3.85938 6.23145C4.7485 5.49051 6.01106 4.9436 6.96777 4.59277C7.35407 4.45113 7.71018 4.33624 8 4.24707V2C8 1.44772 8.44772 1 9 1H15ZM8.79102 6.0957C8.50187 6.18096 8.10094 6.30705 7.65723 6.46973C6.73905 6.80639 5.75134 7.25966 5.14062 7.76855C3.7804 8.90208 3 10.3951 3 11.5V17.5H4.5V11.5C4.5 10.9477 4.94772 10.5 5.5 10.5C6.05228 10.5 6.5 10.9477 6.5 11.5V21H17.5V11.5C17.5 10.9477 17.9477 10.5 18.5 10.5C19.0523 10.5 19.5 10.9477 19.5 11.5V17.5H21V11.5C21 10.3951 20.2196 8.90208 18.8594 7.76855C18.2487 7.25966 17.2609 6.80639 16.3428 6.46973C15.8991 6.30705 15.4981 6.18096 15.209 6.0957L14.8711 6H9.12891C9.05062 6.02115 8.93511 6.05322 8.79102 6.0957ZM10 4H14V3H10V4Z" fill="#9E9E9E"/>
</g>
</svg>
