<svg width="24" height="24" viewBox="0 0 24 24" fill="none" xmlns="http://www.w3.org/2000/svg">
<g id="icons/Clothes/clothes-pants-sweat">
<path id="Union" d="M12.0234 1H19L19.0938 1.00391C19.5587 1.04728 19.9375 1.41072 19.9932 1.88281L21.9932 18.8828C22.0265 19.1664 21.9367 19.4507 21.7471 19.6641C21.6753 19.7448 21.5916 19.8122 21.5 19.8652V22C21.5 22.5523 21.0523 23 20.5 23H17.5C17.0112 23 16.594 22.6462 16.5137 22.1641L16.1406 19.9307C15.9058 19.8398 15.7084 19.6636 15.5967 19.4277L12 11.834L8.40332 19.4277C8.29147 19.6639 8.09364 19.8399 7.8584 19.9307L7.48633 22.1641C7.40596 22.6462 6.98884 23 6.5 23H3.5C2.94772 23 2.5 22.5523 2.5 22V19.8652C2.40843 19.8122 2.32472 19.7448 2.25293 19.6641C2.06326 19.4507 1.97348 19.1664 2.00684 18.8828L4.00684 1.88281L4.02246 1.79004C4.12012 1.33351 4.52469 1 5 1H11.9766C11.9821 0.999864 11.9876 0.999068 11.9932 0.999023H12.0068C12.0124 0.999068 12.0179 0.999864 12.0234 1ZM4.5 21H5.65332L5.81934 20H4.5V21ZM18.3467 21H19.5V20H18.1807L18.3467 21ZM4.125 18H6.86816L11.0967 9.07227L11.167 8.94727C11.3504 8.67066 11.6618 8.5 12 8.5C12.3864 8.5 12.7379 8.72302 12.9033 9.07227L17.1318 18H19.875L18.1104 3H13.667L14.8828 5.2793C15.1426 5.76659 14.958 6.37293 14.4707 6.63281C13.9834 6.89263 13.3771 6.70798 13.1172 6.2207L11.999 4.12598L10.8828 6.2207C10.6229 6.70798 10.0166 6.89263 9.5293 6.63281C9.04202 6.37293 8.85737 5.76659 9.11719 5.2793L10.333 3H5.88965L4.125 18Z" fill="#9E9E9E"/>
</g>
</svg>
