<svg width="24" height="24" viewBox="0 0 24 24" fill="none" xmlns="http://www.w3.org/2000/svg">
<g id="icons/Clothes/clothes-pants-short">
<path id="Union" d="M20.0005 5C20.5203 5.00022 20.9533 5.39891 20.9966 5.91699L21.9966 17.917C22.0198 18.1954 21.9257 18.471 21.7368 18.6768C21.5476 18.8824 21.28 18.9999 21.0005 19H13.4214C12.9655 18.9999 12.5677 18.6914 12.4536 18.25L12.0005 16.4951L11.5474 18.25C11.4334 18.6913 11.0353 18.9997 10.5796 19H3.00049C2.72089 19 2.45351 18.8825 2.26416 18.6768C2.07506 18.471 1.98119 18.1955 2.00439 17.917L3.00439 5.91699L3.01611 5.82129C3.10125 5.35049 3.51295 5 4.00049 5H20.0005ZM4.08643 17H9.80518L11.0327 12.25L11.0884 12.0908C11.2474 11.7363 11.6017 11.5 12.0005 11.5C12.4562 11.5002 12.8542 11.8087 12.9683 12.25L14.1958 17H19.9146L19.0806 7H13.5171L14.4194 9.10645C14.6367 9.61388 14.4013 10.2013 13.894 10.4189C13.3865 10.6363 12.7991 10.4011 12.5815 9.89355L11.9019 8.30859L10.8833 10.2207C10.6235 10.7079 10.017 10.8924 9.52979 10.6328C9.04251 10.3729 8.85786 9.76659 9.11768 9.2793L10.3335 7H4.92041L4.08643 17Z" fill="#9E9E9E"/>
</g>
</svg>
