<svg width="24" height="24" viewBox="0 0 24 24" fill="none" xmlns="http://www.w3.org/2000/svg">
<g id="icons/Clothes/clothes-cardigan">
<path id="Union" d="M16.0225 1.00098C16.0404 1.00136 16.0583 1.00158 16.0762 1.00293C16.0961 1.00444 16.1159 1.00707 16.1357 1.00977C16.1422 1.01065 16.1488 1.01071 16.1553 1.01172C16.1803 1.01561 16.2049 1.02157 16.2295 1.02734C16.2379 1.02934 16.2465 1.03098 16.2549 1.0332C16.2875 1.04177 16.3199 1.0516 16.3516 1.06348L16.3525 1.06445L16.3545 1.06543C16.3562 1.06607 16.3587 1.06638 16.3613 1.06738C16.3667 1.06941 16.3738 1.07269 16.3828 1.07617C16.401 1.08318 16.4268 1.09265 16.459 1.10547C16.5233 1.13108 16.6144 1.16859 16.7275 1.2168C16.9537 1.31314 17.2698 1.45422 17.6348 1.63672C18.3567 1.99768 19.3077 2.53731 20.1406 3.23145C21.7803 4.59792 23 6.60491 23 8.5V18.5C23 19.0523 22.5523 19.5 22 19.5H19.5V22C19.5 22.5523 19.0523 23 18.5 23H5.5C4.94772 23 4.5 22.5523 4.5 22V19.5H2C1.44772 19.5 1 19.0523 1 18.5V8.5C1 6.60491 2.21965 4.59792 3.85938 3.23145C4.69234 2.53731 5.64332 1.99768 6.36523 1.63672C6.73023 1.45422 7.04626 1.31314 7.27246 1.2168C7.38564 1.16859 7.47671 1.13108 7.54102 1.10547C7.5732 1.09265 7.59903 1.08318 7.61719 1.07617C7.62621 1.07269 7.63335 1.06941 7.63867 1.06738C7.6413 1.06638 7.64382 1.06607 7.64551 1.06543L7.64746 1.06445L7.64844 1.06348L7.73438 1.03613C7.73605 1.03567 7.73758 1.03463 7.73926 1.03418C7.77768 1.0238 7.81655 1.0164 7.85547 1.01074C7.86586 1.00921 7.87629 1.00804 7.88672 1.00684C7.91959 1.00311 7.95247 1.00142 7.98535 1.00098C7.99024 1.0009 7.99511 1 8 1H16C16.0075 1 16.015 1.00081 16.0225 1.00098ZM7.25977 3.42578C6.60671 3.75231 5.80764 4.21273 5.14062 4.76855C3.7804 5.90208 3 7.39512 3 8.5V17.5H4.5V8.5C4.5 7.94772 4.94772 7.5 5.5 7.5C6.05228 7.5 6.5 7.94772 6.5 8.5V21H11V8.7832L7.60156 3.26074C7.49527 3.31061 7.38054 3.3654 7.25977 3.42578ZM13 8.7832V21H17.5V8.5C17.5 7.94772 17.9477 7.5 18.5 7.5C19.0523 7.5 19.5 7.94772 19.5 8.5V17.5H21V8.5C21 7.39512 20.2196 5.90208 18.8594 4.76855C18.1924 4.21273 17.3933 3.75231 16.7402 3.42578C16.6192 3.36524 16.504 3.31071 16.3975 3.26074L13 8.7832ZM12 6.59082L14.21 3H9.79004L12 6.59082Z" fill="#9E9E9E"/>
</g>
</svg>
