<svg width="24" height="24" viewBox="0 0 24 24" fill="none" xmlns="http://www.w3.org/2000/svg">
<g id="icons/Clothes/clothes-windbreaker">
<path id="Union" d="M19.75 1C20.1536 1 20.5175 1.24271 20.6729 1.61523L21.9229 4.61523C22.1009 5.04258 21.9623 5.53629 21.5879 5.80859L20.5742 6.54492L22.6328 8.22559C22.8652 8.4155 23 8.69984 23 9V18.5C23 19.0523 22.5523 19.5 22 19.5H19.5V22C19.5 22.5523 19.0523 23 18.5 23H5.5C4.94772 23 4.5 22.5523 4.5 22V19.5H2C1.44772 19.5 1 19.0523 1 18.5V9C1 8.69984 1.13477 8.4155 1.36719 8.22559L3.4248 6.54492L2.41211 5.80859C2.01677 5.52107 1.88685 4.98997 2.10547 4.55273L3.60547 1.55273L3.67676 1.43164C3.86169 1.16367 4.16854 1 4.5 1H19.75ZM9.25293 9.6582C8.91222 10.0476 8.33058 10.1128 7.91211 9.80859L5.09766 7.76172L3 9.47461V17.5H4.5V12.5C4.5 11.9477 4.94772 11.5 5.5 11.5C6.05228 11.5 6.5 11.9477 6.5 12.5V21H17.5V12.5C17.5 11.9477 17.9477 11.5 18.5 11.5C19.0523 11.5 19.5 11.9477 19.5 12.5V17.5H21V9.47461L18.9014 7.76172L16.0879 9.80859C15.6694 10.1128 15.0878 10.0476 14.7471 9.6582L12 6.51855L9.25293 9.6582Z" fill="#9E9E9E"/>
</g>
</svg>
