<svg width="24" height="24" viewBox="0 0 24 24" fill="none" xmlns="http://www.w3.org/2000/svg">
<g id="icons/Clothes/clothes-diapers">
<path id="Union" d="M20.9999 4.5C21.5522 4.5 21.9999 4.94772 21.9999 5.5V9.4834C22.0001 9.49547 22.0001 9.5075 21.9999 9.51953C21.9998 9.52984 21.9992 9.54389 21.9989 9.56152C21.9983 9.59698 21.9972 9.64713 21.995 9.70996C21.9907 9.83579 21.9825 10.0148 21.9657 10.2334C21.9322 10.6693 21.865 11.273 21.7303 11.9463C21.4686 13.255 20.9194 14.9946 19.7069 16.207C18.5964 17.3175 17.2165 18.1247 16.1503 18.6475C15.611 18.9118 15.1373 19.1111 14.7968 19.2441C14.6265 19.3107 14.4885 19.3611 14.3915 19.3955C14.3429 19.4127 14.3045 19.4263 14.2772 19.4355C14.2638 19.4401 14.2519 19.4437 14.244 19.4463C14.1934 19.4636 14.1407 19.4754 14.0868 19.4844C14.0806 19.4854 14.0744 19.4864 14.0682 19.4873C14.0248 19.4937 13.9805 19.4993 13.9354 19.5C13.9318 19.5 13.9283 19.499 13.9247 19.499C13.9234 19.499 13.922 19.5 13.9208 19.5H10.079C10.0773 19.5 10.0757 19.499 10.0741 19.499C10.0709 19.499 10.0675 19.5 10.0643 19.5C10.0192 19.4993 9.97502 19.4937 9.93152 19.4873C9.92468 19.4863 9.91783 19.4855 9.91101 19.4844C9.85877 19.4755 9.80778 19.4639 9.75867 19.4473C9.75749 19.4469 9.75604 19.4467 9.75476 19.4463C9.74687 19.4437 9.73597 19.4401 9.72253 19.4355C9.69528 19.4263 9.65679 19.4127 9.60828 19.3955C9.51121 19.3611 9.37326 19.3107 9.203 19.2441C8.86241 19.111 8.3887 18.9118 7.84949 18.6475C6.78327 18.1247 5.40329 17.3175 4.29285 16.207C3.08042 14.9945 2.53116 13.2549 2.26941 11.9463C2.13476 11.273 2.0676 10.6693 2.03406 10.2334C2.01724 10.0148 2.0091 9.83579 2.00476 9.70996C2.0026 9.64713 2.00144 9.59698 2.00085 9.56152C2.00057 9.5439 1.99996 9.52984 1.99988 9.51953V5.5C1.99988 4.94777 2.44767 4.50008 2.99988 4.5H20.9999ZM3.99988 8.85156C4.02186 8.86173 4.04433 8.87213 4.06726 8.88281C4.47774 9.07405 5.04283 9.34925 5.65808 9.68457C6.84856 10.3334 8.37574 11.2844 9.26941 12.3613C10.2538 13.5477 10.6852 15.1348 10.8856 16.3193C10.96 16.7587 11.0059 17.1627 11.0341 17.5H12.9667C12.9949 17.1627 13.0398 16.7586 13.1141 16.3193C13.3146 15.1349 13.746 13.5477 14.7303 12.3613C15.624 11.2844 17.1512 10.3335 18.3417 9.68457C18.9569 9.34925 19.522 9.07406 19.9325 8.88281C19.9554 8.87215 19.9779 8.86171 19.9999 8.85156V6.5H3.99988V8.85156ZM19.8417 11.1533C19.668 11.2426 19.4862 11.3388 19.2997 11.4404C18.1208 12.0829 16.8976 12.8816 16.2694 13.6387C15.6253 14.415 15.2677 15.5786 15.0858 16.6533C15.068 16.7586 15.0522 16.8617 15.038 16.9619C15.1134 16.9265 15.1915 16.8912 15.2704 16.8525C16.2436 16.3754 17.4033 15.6824 18.2928 14.793C19.0803 14.0055 19.5311 12.745 19.7694 11.5537C19.7968 11.4168 19.8204 11.2828 19.8417 11.1533ZM4.23035 11.5537C4.4686 12.745 4.9195 14.0055 5.70691 14.793C6.59638 15.6824 7.75616 16.3753 8.72937 16.8525C8.80791 16.8911 8.88569 16.9266 8.96082 16.9619C8.94663 16.8618 8.93175 16.7586 8.91394 16.6533C8.73207 15.5786 8.37448 14.415 7.73035 13.6387C7.10219 12.8817 5.87975 12.0829 4.70105 11.4404C4.51395 11.3385 4.3313 11.2428 4.1571 11.1533C4.1784 11.2829 4.20295 11.4167 4.23035 11.5537Z" fill="#9E9E9E"/>
</g>
</svg>
