<svg width="24" height="24" viewBox="0 0 24 24" fill="none" xmlns="http://www.w3.org/2000/svg">
<g id="icons/Clothes/clothes-short-sleeve">
<path id="Union" d="M22 1C22.5523 1 23 1.44772 23 2V6C23 6.55228 22.5523 7 22 7H20V22C20 22.5523 19.5523 23 19 23H5C4.44772 23 4 22.5523 4 22V7H2C1.44772 7 1 6.55228 1 6V2C1 1.44772 1.44772 1 2 1H22ZM6 21H18V17H6V21ZM6 15H18V13H6V15ZM3 5H5C5.55228 5 6 5.44772 6 6V11H18V6C18 5.44772 18.4477 5 19 5H21V3H15.874C15.43 4.72523 13.8638 6 12 6C10.1362 6 8.57002 4.72523 8.12598 3H3V5ZM10.2695 3C10.6155 3.59733 11.2601 4 12 4C12.7399 4 13.3845 3.59733 13.7305 3H10.2695Z" fill="#9E9E9E"/>
</g>
</svg>
