<svg width="24" height="24" viewBox="0 0 24 24" fill="none" xmlns="http://www.w3.org/2000/svg">
<g id="icons/Clothes/clothes-gloves-two">
<path id="Union" d="M11.5 1C12.6494 1 13.5952 0.998734 14.3516 1.08398C15.1279 1.17151 15.8276 1.36065 16.4346 1.82617C16.712 2.03901 16.9611 2.28814 17.1738 2.56543C17.6394 3.17237 17.8285 3.87209 17.916 4.64844C17.9781 5.19942 17.9939 5.85089 17.998 6.6084C18.3348 6.67371 18.7352 6.78105 19.1436 6.95605C19.6862 7.18861 20.2811 7.55875 20.7422 8.15137C21.2143 8.75841 21.5 9.54015 21.5 10.5V13C21.5 13.9599 21.2143 14.7416 20.7422 15.3486C20.2811 15.9412 19.6862 16.3114 19.1436 16.5439C18.736 16.7186 18.3363 16.8253 18 16.8906V18.0498C19.1412 18.2814 20 19.2905 20 20.5C20 21.8807 18.8807 23 17.5 23H4.5C3.1193 23 2 21.8807 2 20.5C2 19.2905 2.85887 18.2814 4 18.0498V8C4 6.61416 3.99829 5.47422 4.11914 4.5752C4.24389 3.64737 4.51577 2.82798 5.17188 2.17188C5.82797 1.51576 6.64737 1.24388 7.5752 1.11914C8.47422 0.998293 9.61415 1 11 1H11.5ZM4.5 20C4.22385 20 4 20.2238 4 20.5C4 20.7762 4.22385 21 4.5 21H17.5C17.7762 21 18 20.7762 18 20.5C18 20.2238 17.7762 20 17.5 20H4.5ZM11 3C9.55777 3 8.57657 3.00185 7.8418 3.10059C7.13575 3.19551 6.80849 3.36338 6.58594 3.58594C6.36336 3.80851 6.19551 4.13576 6.10059 4.8418C6.00184 5.57657 6 6.55777 6 8V18H16V16C16 15.448 16.4472 15.0005 16.999 15H17.0107C17.0262 14.9996 17.0528 14.9983 17.0889 14.9961C17.1617 14.9916 17.2717 14.982 17.4053 14.9629C17.6778 14.924 18.0243 14.8484 18.3564 14.7061C18.6886 14.5637 18.9689 14.371 19.1641 14.1201C19.348 13.8834 19.5 13.5399 19.5 13V10.5C19.5 9.96011 19.348 9.61658 19.1641 9.37988C18.9689 9.12901 18.6886 8.93634 18.3564 8.79395C18.2384 8.74334 18.1176 8.70312 18 8.66797V11C18 11.5523 17.5523 12 17 12C16.4477 12 16 11.5523 16 11V7.5C16 6.30394 15.9984 5.49042 15.9287 4.87207C15.8613 4.27401 15.741 3.98307 15.5869 3.78223C15.4805 3.64356 15.3564 3.51943 15.2178 3.41309C15.0169 3.25896 14.726 3.13873 14.1279 3.07129C13.5096 3.00158 12.6961 3 11.5 3H11Z" fill="#9E9E9E"/>
</g>
</svg>
