<svg width="24" height="24" viewBox="0 0 24 24" fill="none" xmlns="http://www.w3.org/2000/svg">
<g id="icons/Clothes/clothes-gloves">
<path id="Union" d="M15 1C15.0812 1 15.1598 1.01104 15.2354 1.0293C15.4462 1.04137 15.6441 1.05729 15.8281 1.08203C16.4835 1.17018 17.1115 1.36931 17.6211 1.87891C18.1307 2.38849 18.3298 3.01647 18.418 3.67188C18.5022 4.29863 18.5 5.08546 18.5 6V7.6084C18.8364 7.67375 19.2359 7.78138 19.6436 7.95605C20.1862 8.18861 20.7811 8.55875 21.2422 9.15137C21.7143 9.75841 22 10.5401 22 11.5V15.5C22 16.4599 21.7143 17.2416 21.2422 17.8486C20.7811 18.4412 20.1862 18.8114 19.6436 19.0439C19.236 19.2186 18.8363 19.3253 18.5 19.3906V22C18.5 22.5523 18.0523 23 17.5 23H3.5C2.94772 23 2.5 22.5523 2.5 22V6C2.5 5.08546 2.49777 4.29862 2.58203 3.67188C2.67018 3.01647 2.86933 2.38849 3.37891 1.87891C3.88849 1.36933 4.51648 1.17018 5.17188 1.08203C5.35563 1.05733 5.55322 1.04137 5.76367 1.0293C5.83953 1.01089 5.91849 1 6 1H15Z" fill="#9E9E9E"/>
</g>
</svg>
