<svg width="24" height="24" viewBox="0 0 24 24" fill="none" xmlns="http://www.w3.org/2000/svg">
<g id="icons/Clothes/clothes-suit">
<path id="Union" d="M15.0254 1.00098C15.0332 1.00118 15.041 1.00156 15.0488 1.00195C15.0667 1.00283 15.0847 1.00303 15.1025 1.00488L15.1299 1.00879C15.14 1.01012 15.1501 1.01203 15.1602 1.01367C15.1735 1.01585 15.1869 1.01777 15.2002 1.02051L15.2246 1.02539C15.2411 1.02918 15.2572 1.03444 15.2734 1.03906C15.2835 1.04194 15.2937 1.04464 15.3037 1.04785C15.3213 1.05345 15.3382 1.06082 15.3555 1.06738C15.368 1.07218 15.3811 1.07572 15.3936 1.08105L22.3936 4.08105C22.7612 4.23863 23 4.59997 23 5V18.5C23 19.0523 22.5523 19.5 22 19.5H19.5V22C19.5 22.5523 19.0523 23 18.5 23H5.5C4.94772 23 4.5 22.5523 4.5 22V19.5H2C1.44772 19.5 1 19.0523 1 18.5V5L1.01074 4.85254C1.06127 4.51301 1.28458 4.219 1.60645 4.08105L8.60645 1.08105L8.61621 1.07715C8.64354 1.0658 8.67101 1.05479 8.69922 1.0459C8.70217 1.04498 8.70701 1.04386 8.70996 1.04297C8.71806 1.0405 8.72625 1.03838 8.73438 1.03613C8.7531 1.03097 8.77201 1.02654 8.79102 1.02246C8.80304 1.01988 8.8151 1.01775 8.82715 1.01562C8.83105 1.01494 8.83496 1.01431 8.83887 1.01367C8.84282 1.01302 8.84662 1.01135 8.85059 1.01074C8.86259 1.00892 8.87464 1.00725 8.88672 1.00586C8.89842 1.00452 8.91018 1.00385 8.92188 1.00293C8.93682 1.00174 8.95178 1.00051 8.9668 1H15.0049C15.0117 1.00003 15.0185 1.0008 15.0254 1.00098ZM3 5.6582V17.5H4.5V10.5C4.5 9.94771 4.94772 9.5 5.5 9.5C6.05228 9.5 6.5 9.94771 6.5 10.5V21H11V18.7646L7.13184 11.9961C6.986 11.7409 6.9601 11.4344 7.06055 11.1582L7.87793 8.90723L6.19141 6.58789C5.97181 6.28586 5.93846 5.88674 6.10547 5.55273L6.88477 3.99219L3 5.6582ZM18.3477 5.46973C18.585 5.84955 18.5415 6.34141 18.2402 6.67285L16.1455 8.97559L16.9395 11.1582C17.0399 11.4344 17.014 11.7409 16.8682 11.9961L13 18.7646V21H17.5V10.5C17.5 9.94771 17.9477 9.5 18.5 9.5C19.0523 9.5 19.5 9.94771 19.5 10.5V17.5H21V5.6582L17.5381 4.17383L18.3477 5.46973ZM8.16602 5.90332L9.80859 8.16211C10.0041 8.431 10.0531 8.77936 9.93945 9.0918L9.09766 11.4053L11 14.7344V9.2041L8.92969 4.37402L8.16602 5.90332ZM13.1318 8.89746L13 9.2041V14.7334L14.9014 11.4053L14.0605 9.0918C13.9336 8.7428 14.01 8.35194 14.2598 8.07715L16.25 5.88672L15.1641 4.15039L13.1318 8.89746ZM12 6.46191L13.4834 3H10.5166L12 6.46191Z" fill="#9E9E9E"/>
</g>
</svg>
