<svg width="24" height="24" viewBox="0 0 24 24" fill="none" xmlns="http://www.w3.org/2000/svg">
<g id="icons/Clothes/clothes-crew-neck">
<path id="Union" d="M15 1C15.0406 1 15.0807 1.00212 15.1201 1.00684C15.1224 1.00712 15.1246 1.00848 15.127 1.00879C15.1628 1.01333 15.1979 1.02009 15.2324 1.02832C15.2356 1.02909 15.239 1.02947 15.2422 1.03027H15.2432C15.2439 1.03045 15.246 1.03098 15.2471 1.03125C15.2492 1.03179 15.2524 1.03233 15.2559 1.0332C15.263 1.03502 15.2727 1.0378 15.2852 1.04102C15.3105 1.0476 15.3468 1.05696 15.3926 1.06934C15.4841 1.09407 15.615 1.13043 15.7754 1.17773C16.0955 1.27212 16.5389 1.41187 17.0322 1.59277C17.9889 1.9436 19.2515 2.49051 20.1406 3.23145C21.7803 4.59792 23 6.60491 23 8.5V18.5C23 19.0523 22.5523 19.5 22 19.5H19.5V22C19.5 22.5523 19.0523 23 18.5 23H5.5C4.94772 23 4.5 22.5523 4.5 22V19.5H2C1.44772 19.5 1 19.0523 1 18.5V8.5C1 6.60491 2.21965 4.59792 3.85938 3.23145C4.7485 2.49051 6.01106 1.9436 6.96777 1.59277C7.46114 1.41187 7.90453 1.27212 8.22461 1.17773C8.38502 1.13043 8.51586 1.09407 8.60742 1.06934C8.65322 1.05696 8.68948 1.0476 8.71484 1.04102C8.72725 1.0378 8.73702 1.03502 8.74414 1.0332C8.74756 1.03233 8.75081 1.03179 8.75293 1.03125C8.754 1.03098 8.75515 1.03045 8.75586 1.03027H8.75781C8.76072 1.02955 8.76368 1.02902 8.7666 1.02832C8.80114 1.02005 8.83625 1.01337 8.87207 1.00879C8.87439 1.00848 8.87658 1.00713 8.87891 1.00684C8.91859 1.00205 8.95903 1 9 1H15ZM15.7891 3.27832C15.2556 4.86021 13.7618 6 12 6C10.238 6 8.74336 4.86037 8.20996 3.27832C8.03788 3.33516 7.85151 3.3985 7.65723 3.46973C6.73905 3.80639 5.75134 4.25966 5.14062 4.76855C3.7804 5.90208 3 7.39512 3 8.5V17.5H4.5V8.5C4.5 7.94772 4.94772 7.5 5.5 7.5C6.05228 7.5 6.5 7.94772 6.5 8.5V21H17.5V8.5C17.5 7.94772 17.9477 7.5 18.5 7.5C19.0523 7.5 19.5 7.94772 19.5 8.5V17.5H21V8.5C21 7.39512 20.2196 5.90208 18.8594 4.76855C18.2487 4.25966 17.2609 3.80639 16.3428 3.46973C16.1482 3.39838 15.9614 3.33523 15.7891 3.27832ZM10.2695 3C10.6155 3.59733 11.2601 4 12 4C12.7399 4 13.3845 3.59733 13.7305 3H10.2695Z" fill="#9E9E9E"/>
</g>
</svg>
