<svg width="24" height="24" viewBox="0 0 24 24" fill="none" xmlns="http://www.w3.org/2000/svg">
<g id="icons/Clothes/clothes-pants">
<path id="Union" d="M18.9999 1C19.5137 1 19.9439 1.38924 19.9951 1.90039L21.9951 21.9004C22.0232 22.1815 21.9307 22.4614 21.7411 22.6709C21.5516 22.8803 21.2824 23 20.9999 23H16.4999C16.0784 23 15.7024 22.7354 15.5595 22.3389L11.9999 12.4512L8.44037 22.3389C8.29745 22.7355 7.92152 23 7.49994 23H2.99994C2.71746 23 2.44829 22.8803 2.25873 22.6709C2.06917 22.4614 1.97671 22.1815 2.00482 21.9004L4.00482 1.90039L4.01849 1.80566C4.1099 1.3419 4.51846 1.00003 4.99994 1H18.9999ZM9.45013 3C9.43046 3.23258 9.4042 3.49344 9.36517 3.7666C9.29788 4.23759 9.19364 4.77047 9.02728 5.26953C8.86665 5.75142 8.61716 6.29684 8.20697 6.70703C7.55579 7.35814 6.63275 7.79372 5.96478 8.05566C5.75236 8.13896 5.55246 8.20758 5.37787 8.26562L4.10541 21H6.79779L11.0595 9.16113L11.123 9.01855C11.2965 8.70227 11.6311 8.50003 11.9999 8.5C12.4215 8.5 12.7975 8.76454 12.9404 9.16113L17.2021 21H19.8945L18.621 8.26562C18.4467 8.20764 18.2471 8.13881 18.0351 8.05566C17.3671 7.7937 16.4441 7.3582 15.7929 6.70703C15.3828 6.2969 15.1342 5.75135 14.9736 5.26953C14.8072 4.77046 14.702 4.23759 14.6347 3.7666C14.5957 3.49344 14.5694 3.23258 14.5497 3H12.9999V4.75C12.9999 5.30228 12.5522 5.75 11.9999 5.75C11.4477 5.74996 10.9999 5.30226 10.9999 4.75V3H9.45013ZM16.6152 3.4834C16.6729 3.88725 16.7552 4.29216 16.8701 4.63672C16.9907 4.99851 17.1172 5.20316 17.207 5.29297C17.4848 5.5708 17.9247 5.82408 18.3984 6.03711L18.0947 3H16.5595C16.5745 3.15315 16.5913 3.31623 16.6152 3.4834ZM5.60052 6.03711C6.07454 5.82401 6.51485 5.57097 6.79291 5.29297C6.88269 5.20318 7.00921 4.99855 7.12982 4.63672C7.24466 4.29215 7.32701 3.88727 7.3847 3.4834C7.40858 3.31625 7.42514 3.15313 7.44037 3H5.90521L5.60052 6.03711Z" fill="#9E9E9E"/>
</g>
</svg>
