<svg width="24" height="24" viewBox="0 0 24 24" fill="none" xmlns="http://www.w3.org/2000/svg">
<g id="icons/Clothes/clothes-skates">
<path id="Union" d="M9 1C9.44313 1 9.87604 0.998247 10.2305 1.0459C10.6137 1.09742 11.0509 1.22274 11.4141 1.58594C11.7773 1.94915 11.9026 2.38633 11.9541 2.76953C12.0018 3.12397 12 3.55687 12 4V4.2627C12 5.53678 12.0023 6.39826 12.085 7.05078C12.1641 7.67509 12.3038 7.9792 12.4932 8.19629C12.6827 8.41337 12.9652 8.59308 13.5732 8.75586C14.2086 8.92594 15.0619 9.04465 16.3242 9.2168L16.9453 9.30176H16.9463C18.1566 9.46682 19.1583 9.60112 19.9443 9.81152C20.7575 10.0293 21.4634 10.3578 22.0137 10.9883C22.564 11.6188 22.7936 12.363 22.8994 13.1982C23.0017 14.0055 23 15.0157 23 16.2373V20C23 20.4431 23.0018 20.876 22.9541 21.2305C22.9026 21.6137 22.7773 22.0508 22.4141 22.4141C22.0508 22.7773 21.6137 22.9026 21.2305 22.9541C20.876 23.0018 20.4431 23 20 23H10C9.73479 23 9.4805 22.8946 9.29297 22.707L8 21.4141L6.70703 22.707C6.5195 22.8946 6.26522 23 6 23H4C3.55687 23 3.12397 23.0018 2.76953 22.9541C2.38633 22.9026 1.94915 22.7773 1.58594 22.4141C1.22274 22.0509 1.09742 21.6137 1.0459 21.2305C0.998247 20.876 1 20.4431 1 20V4C1 3.55687 0.998246 3.12396 1.0459 2.76953C1.09742 2.38633 1.22272 1.94915 1.58594 1.58594C1.94915 1.22272 2.38633 1.09742 2.76953 1.0459C3.12396 0.998246 3.55687 1 4 1H9ZM3 20C3 20.4995 3.0018 20.7737 3.02734 20.9639C3.02765 20.9661 3.02802 20.9685 3.02832 20.9707C3.03084 20.9711 3.0335 20.9723 3.03613 20.9727C3.22631 20.9982 3.5005 21 4 21H5.58594L7.29297 19.293L7.36914 19.2246C7.76191 18.9043 8.34091 18.9269 8.70703 19.293L10.4141 21H20C20.4995 21 20.7737 20.9982 20.9639 20.9727C20.9662 20.9723 20.9685 20.971 20.9707 20.9707C20.971 20.9685 20.9723 20.9662 20.9727 20.9639C20.9982 20.7737 21 20.4995 21 20V18H3V20ZM3 16H20.999C20.9985 14.8549 20.9925 14.0604 20.915 13.4492C20.8359 12.8249 20.6962 12.5208 20.5068 12.3037C20.3173 12.0866 20.0348 11.9069 19.4268 11.7441C18.7914 11.5741 17.9381 11.4553 16.6758 11.2832L16.0547 11.1982H16.0537C14.8434 11.0332 13.8417 10.8989 13.0557 10.6885C12.2425 10.4707 11.5366 10.1422 10.9863 9.51172C10.436 8.8812 10.2064 8.13703 10.1006 7.30176C10.0785 7.12736 10.0623 6.94343 10.0488 6.75H3V16ZM7.5 9C8.88071 9 10 10.1193 10 11.5C10 12.8807 8.88071 14 7.5 14C6.11929 14 5 12.8807 5 11.5C5 10.1193 6.11929 9 7.5 9ZM7.5 11C7.22386 11 7 11.2239 7 11.5C7 11.7761 7.22386 12 7.5 12C7.77614 12 8 11.7761 8 11.5C8 11.2239 7.77614 11 7.5 11ZM4 3C3.50051 3 3.22632 3.0018 3.03613 3.02734C3.03355 3.02769 3.0308 3.02797 3.02832 3.02832C3.02797 3.0308 3.02769 3.03355 3.02734 3.03613C3.0018 3.22632 3 3.50051 3 4V4.75H10.001C10.0008 4.59147 10 4.42904 10 4.2627V4C10 3.5005 9.9982 3.22631 9.97266 3.03613C9.9723 3.0335 9.97106 3.03084 9.9707 3.02832C9.96853 3.02802 9.96612 3.02765 9.96387 3.02734C9.77368 3.0018 9.4995 3 9 3H4Z" fill="#9E9E9E"/>
</g>
</svg>
