<svg width="24" height="24" viewBox="0 0 24 24" fill="none" xmlns="http://www.w3.org/2000/svg">
<g id="icons/Clothes/clothes-briefs">
<path id="Union" d="M21 6C21.5523 6 22 6.44772 22 7V9.5C22 9.89851 21.7644 10.253 21.4102 10.4121L21.252 10.4678H21.251C21.2497 10.4681 21.2474 10.4689 21.2441 10.4697C21.2372 10.4716 21.2258 10.4745 21.2109 10.4785C21.1812 10.4866 21.1359 10.499 21.0771 10.5156C20.9591 10.549 20.7858 10.5999 20.5732 10.666C20.147 10.7986 19.5651 10.9929 18.9404 11.2412C18.313 11.4907 17.6586 11.7885 17.0811 12.123C16.4926 12.464 16.0419 12.8105 15.7695 13.1387C15.1062 13.9381 14.629 15.2515 14.3193 16.4805C14.1696 17.0747 14.0682 17.6129 14.0039 18.002C13.9718 18.1958 13.9489 18.3514 13.9346 18.457C13.9274 18.5098 13.9222 18.55 13.9189 18.5762C13.9174 18.5891 13.9167 18.5986 13.916 18.6045C13.9157 18.6072 13.9152 18.6093 13.915 18.6104C13.8586 19.1166 13.4303 19.5 12.9209 19.5H11.0791C10.6015 19.5 10.1949 19.1634 10.0996 18.7041L10.085 18.6113V18.6104C10.0848 18.6093 10.0843 18.6072 10.084 18.6045C10.0833 18.5986 10.0826 18.5891 10.0811 18.5762C10.0778 18.55 10.0726 18.5098 10.0654 18.457C10.0511 18.3514 10.0282 18.1958 9.99609 18.002C9.93176 17.6129 9.8304 17.0747 9.68066 16.4805C9.37097 15.2515 8.89379 13.9381 8.23047 13.1387C7.95813 12.8105 7.50738 12.464 6.91895 12.123C6.34145 11.7885 5.68704 11.4907 5.05957 11.2412C4.43488 10.9929 3.85297 10.7986 3.42676 10.666C3.21415 10.5999 3.04093 10.549 2.92285 10.5156C2.8641 10.499 2.8188 10.4866 2.78906 10.4785C2.77423 10.4745 2.76276 10.4716 2.75586 10.4697C2.75264 10.4689 2.75034 10.4681 2.74902 10.4678H2.74805C2.30748 10.3531 2 9.95525 2 9.5V7C2 6.44772 2.44772 6 3 6H21ZM4 8.74902C4.00682 8.75114 4.01361 8.75371 4.02051 8.75586C4.48139 8.89918 5.11406 9.11057 5.79883 9.38281C6.48109 9.65406 7.23171 9.99272 7.92188 10.3926C8.60098 10.7861 9.28095 11.2725 9.76953 11.8613C10.7347 13.0245 11.2975 14.711 11.6201 15.9912C11.7649 16.5656 11.8662 17.0907 11.9375 17.5H12.0625C12.1338 17.0907 12.2351 16.5656 12.3799 15.9912C12.7025 14.711 13.2653 13.0245 14.2305 11.8613C14.719 11.2725 15.399 10.7861 16.0781 10.3926C16.7683 9.99272 17.5189 9.65406 18.2012 9.38281C18.8859 9.11057 19.5186 8.89918 19.9795 8.75586C19.9864 8.75371 19.9932 8.75114 20 8.74902V8H4V8.74902Z" fill="#9E9E9E"/>
</g>
</svg>
