<svg width="24" height="24" viewBox="0 0 24 24" fill="none" xmlns="http://www.w3.org/2000/svg">
<g id="icons/Clothes/coat-hanger">
<path id="Union" d="M12 3C13.933 3 15.5 4.56702 15.5 6.5C15.5 8.08534 14.4455 9.4231 13 9.85352V10.0322C19.7536 10.4431 23 14.9814 23 18C23 18.5523 22.5523 19 22 19H2C1.44772 19 1 18.5523 1 18C1 14.9814 4.24641 10.4431 11 10.0322V9L11.0049 8.89746C11.0562 8.39333 11.4823 8 12 8C12.8284 8 13.5 7.32842 13.5 6.5C13.5 5.67158 12.8284 5 12 5C11.1716 5 10.5 5.67158 10.5 6.5C10.5 7.05228 10.0523 7.5 9.5 7.5C8.94772 7.5 8.5 7.05228 8.5 6.5C8.5 4.56702 10.067 3 12 3ZM12 12C6.45374 12 3.85596 14.9706 3.18262 17H20.8174C20.144 14.9706 17.5463 12 12 12Z" fill="#9E9E9E"/>
</g>
</svg>
