<svg width="24" height="24" viewBox="0 0 24 24" fill="none" xmlns="http://www.w3.org/2000/svg">
<g id="icons/Clothes/commuter-bag">
<path id="Union" d="M12 1C13.5982 1 14.8855 2.01952 15.7188 3.64453C16.499 5.16614 16.949 7.31843 16.9951 10.0645C17.8599 10.285 18.5 11.0666 18.5 12V21C18.5 22.1046 17.6046 23 16.5 23H7.5C6.39543 23 5.5 22.1046 5.5 21V12C5.5 11.0669 6.13961 10.2853 7.00391 10.0645C7.04998 7.31842 7.50104 5.16614 8.28125 3.64453C9.11449 2.01952 10.4018 1 12 1ZM7.5 21H16.5V12H7.5V21ZM12 3C11.389 3 10.676 3.35925 10.0615 4.55762C9.47873 5.69433 9.0581 7.47865 9.00586 10H14.9941C14.9419 7.47865 14.5213 5.69433 13.9385 4.55762C13.324 3.35925 12.611 3 12 3Z" fill="#9E9E9E"/>
</g>
</svg>
