<svg width="24" height="24" viewBox="0 0 24 24" fill="none" xmlns="http://www.w3.org/2000/svg">
<g id="icons/Clothes/crown-three">
<path id="Union" d="M12 2C13.3807 2 14.5 3.11929 14.5 4.5C14.5 5.36065 14.0644 6.11863 13.4023 6.56836L15.9473 11.6582L18.4375 10.4121C18.1618 10.0102 18 9.52414 18 9C18 7.61929 19.1193 6.5 20.5 6.5C21.8807 6.5 23 7.61929 23 9C23 10.1039 22.2836 11.0379 21.291 11.3691L18.4619 21.2744C18.3393 21.7037 17.9465 22 17.5 22H6.5C6.05352 22 5.66074 21.7037 5.53809 21.2744L2.70801 11.3691C1.71592 11.0376 1 10.1036 1 9C1 7.61929 2.11929 6.5 3.5 6.5C4.88071 6.5 6 7.61929 6 9C6 9.52434 5.83738 10.0102 5.56152 10.4121L8.05273 11.6582L10.5967 6.56836C9.93503 6.11858 9.5 5.36036 9.5 4.5C9.5 3.11929 10.6193 2 12 2ZM9.39453 13.4473C9.14754 13.9412 8.54671 14.1415 8.05273 13.8945L5.08594 12.4111L7.25488 20H16.7451L18.9131 12.4111L15.9473 13.8945C15.4533 14.1415 14.8525 13.9412 14.6055 13.4473L12 8.23633L9.39453 13.4473ZM3.5 8.5C3.22386 8.5 3 8.72386 3 9C3 9.27614 3.22386 9.5 3.5 9.5C3.77614 9.5 4 9.27614 4 9C4 8.72386 3.77614 8.5 3.5 8.5ZM20.5 8.5C20.2239 8.5 20 8.72386 20 9C20 9.27614 20.2239 9.5 20.5 9.5C20.7761 9.5 21 9.27614 21 9C21 8.72386 20.7761 8.5 20.5 8.5ZM12 4C11.7239 4 11.5 4.22386 11.5 4.5C11.5 4.77614 11.7239 5 12 5C12.2761 5 12.5 4.77614 12.5 4.5C12.5 4.22386 12.2761 4 12 4Z" fill="#9E9E9E"/>
</g>
</svg>
