<svg width="24" height="24" viewBox="0 0 24 24" fill="none" xmlns="http://www.w3.org/2000/svg">
<g id="icons/Clothes/diamond-necklace">
<path id="Union" d="M20.0005 1C20.5526 1.00024 21.0005 1.44786 21.0005 2C21.0005 4.37363 20.203 7.65966 18.7573 10.3682C17.8133 12.1366 16.4954 13.8248 14.8101 14.7559L15.938 15.3057C16.2816 15.4732 16.5003 15.8219 16.5005 16.2041V19.9541C16.5005 20.3093 16.312 20.639 16.0054 20.8184L12.5054 22.8633C12.1938 23.0454 11.8073 23.0453 11.4956 22.8633L7.99561 20.8184C7.68881 20.639 7.50049 20.3095 7.50049 19.9541V16.2041L7.51025 16.0625C7.55686 15.7373 7.7622 15.4522 8.06299 15.3057L9.21338 14.7451C7.53269 13.7902 6.24447 12.0539 5.32275 10.2715C3.91034 7.53996 3.12371 4.27709 3.00244 2.05469C2.97237 1.5033 3.39446 1.03216 3.9458 1.00195C4.49699 0.972125 4.96834 1.39411 4.99854 1.94531C5.10459 3.88952 5.81846 6.87685 7.09912 9.35352C8.41437 11.8969 10.1042 13.5 12.0005 13.5C13.9171 13.4998 15.6608 11.9228 16.9937 9.42578C18.2977 6.9824 19.0005 4.01806 19.0005 2C19.0005 1.44772 19.4482 1 20.0005 1ZM9.50049 16.8291V19.3799L12.0005 20.8408L14.5005 19.3799V16.8291L12.0005 15.6123L9.50049 16.8291Z" fill="#9E9E9E"/>
</g>
</svg>
