<svg width="24" height="24" viewBox="0 0 24 24" fill="none" xmlns="http://www.w3.org/2000/svg">
<g id="icons/Clothes/diamonds">
<path id="Union" d="M18 3C18.3038 3 18.5915 3.13778 18.7812 3.375L22.7812 8.375C22.8189 8.42203 22.851 8.47197 22.8789 8.52344C22.9033 8.56833 22.924 8.61535 22.9414 8.66406C22.9441 8.67154 22.9467 8.67899 22.9492 8.68652C22.9631 8.72861 22.9732 8.77205 22.9814 8.81641C22.9847 8.83361 22.987 8.85084 22.9893 8.86816C22.995 8.91139 23 8.95521 23 9C23 9.05091 22.9937 9.10055 22.9863 9.14941C22.9844 9.16208 22.9838 9.1749 22.9814 9.1875C22.9725 9.23445 22.9596 9.27984 22.9443 9.32422C22.9407 9.33475 22.9366 9.34503 22.9326 9.35547C22.9159 9.39939 22.8965 9.44172 22.874 9.48242C22.8437 9.53729 22.8099 9.59102 22.7686 9.64062L12.7686 21.6406C12.7647 21.6452 12.7598 21.6488 12.7559 21.6533C12.7504 21.6596 12.7448 21.6657 12.7393 21.6719C12.7368 21.6746 12.734 21.677 12.7314 21.6797C12.7291 21.6822 12.727 21.685 12.7246 21.6875C12.7081 21.7049 12.6915 21.7222 12.6738 21.7383C12.6653 21.7461 12.6563 21.7532 12.6475 21.7607C12.627 21.7781 12.6056 21.794 12.584 21.8096C12.583 21.8103 12.582 21.8108 12.5811 21.8115C12.555 21.8302 12.5287 21.8482 12.501 21.8643C12.4993 21.8652 12.4977 21.8662 12.4961 21.8672C12.4862 21.8728 12.4759 21.8775 12.4658 21.8828C12.458 21.887 12.4504 21.8916 12.4424 21.8955C12.4323 21.9005 12.4223 21.9055 12.4121 21.9102C12.4108 21.9108 12.4095 21.9115 12.4082 21.9121C12.396 21.9175 12.3835 21.9218 12.3711 21.9268C12.365 21.9292 12.3587 21.9313 12.3525 21.9336C12.3291 21.9424 12.3053 21.95 12.2812 21.957C12.2724 21.9596 12.2638 21.9625 12.2549 21.9648C12.2332 21.9706 12.2116 21.9762 12.1895 21.9805C12.1768 21.9829 12.1641 21.9844 12.1514 21.9863C12.1484 21.9868 12.1455 21.9879 12.1426 21.9883C12.1337 21.9896 12.1251 21.9921 12.1162 21.9932C12.1062 21.9943 12.096 21.9942 12.0859 21.9951C12.083 21.9954 12.0801 21.9968 12.0771 21.9971H12.04C12.0306 21.9975 12.0212 21.9989 12.0117 21.999C12.0078 21.9991 12.0039 22 12 22C11.9958 22 11.9915 21.9991 11.9873 21.999C11.9723 21.9988 11.9574 21.9979 11.9424 21.9971C11.9332 21.9965 11.9241 21.9959 11.915 21.9951C11.9046 21.9942 11.8941 21.9944 11.8838 21.9932C11.8707 21.9916 11.8578 21.9884 11.8447 21.9863C11.8421 21.9859 11.8396 21.9848 11.8369 21.9844C11.8301 21.9832 11.8232 21.9827 11.8164 21.9814C11.7927 21.977 11.7693 21.9719 11.7461 21.9658C11.7346 21.9628 11.7233 21.9595 11.7119 21.9561C11.6902 21.9495 11.6687 21.9426 11.6475 21.9346C11.6383 21.9311 11.6292 21.9276 11.6201 21.9238C11.6146 21.9216 11.609 21.9194 11.6035 21.917C11.5977 21.9145 11.5916 21.9127 11.5859 21.9102C11.5763 21.9058 11.5672 21.9002 11.5576 21.8955C11.552 21.8927 11.5466 21.8896 11.541 21.8867C11.5296 21.8808 11.518 21.8755 11.5068 21.8691C11.5026 21.8668 11.4983 21.8647 11.4941 21.8623C11.4696 21.8479 11.4461 21.8319 11.4229 21.8154C11.419 21.8127 11.4149 21.8104 11.4111 21.8076C11.3926 21.7941 11.375 21.7794 11.3574 21.7646C11.3468 21.7557 11.3354 21.7476 11.3252 21.7383C11.3092 21.7237 11.2943 21.708 11.2793 21.6924C11.274 21.6869 11.2688 21.6814 11.2637 21.6758C11.2559 21.6673 11.2477 21.6592 11.2402 21.6504C11.2374 21.6471 11.2343 21.644 11.2314 21.6406L1.23145 9.64062C1.19067 9.5917 1.156 9.53941 1.12598 9.48535C1.10184 9.44199 1.08104 9.39663 1.06348 9.34961C1.06117 9.34342 1.05882 9.33728 1.05664 9.33105C1.04035 9.28462 1.02693 9.23678 1.01758 9.1875C1.0158 9.17813 1.01518 9.16859 1.01367 9.15918C1.00536 9.10729 1 9.05423 1 9C1 8.9536 1.00365 8.908 1.00977 8.86328C1.01178 8.84859 1.01393 8.83394 1.0166 8.81934C1.02488 8.77397 1.03563 8.72953 1.0498 8.68652C1.05228 8.679 1.05496 8.67154 1.05762 8.66406C1.07502 8.61524 1.09665 8.56842 1.12109 8.52344C1.14902 8.47197 1.18112 8.42203 1.21875 8.375L5.21875 3.375L5.29492 3.29102C5.48119 3.10575 5.73425 3 6 3H18ZM11.999 17.8389L14.6133 10H9.38672L11.999 17.8389ZM9.375 16.2871L7.2793 10H4.13574L9.375 16.2871ZM14.625 16.2842L19.8633 10H16.7207L14.625 16.2842ZM4.78711 7.11523C4.78479 7.1182 4.78361 7.12205 4.78125 7.125L4.08105 8H19.9189L19.2188 7.125L19.2178 7.12305L17.5186 5H6.48145L4.78711 7.11523Z" fill="#9E9E9E"/>
</g>
</svg>
