<svg width="24" height="24" viewBox="0 0 24 24" fill="none" xmlns="http://www.w3.org/2000/svg">
<g id="icons/Clothes/diamond-ring">
<path id="Union" d="M14.5264 1C14.8442 1 15.1436 1.15135 15.332 1.40723L16.8047 3.40723C17.1153 3.82888 17.048 4.41797 16.6504 4.75879L14.8232 6.32422C18.388 7.3352 21 10.6113 21 14.5C21 19.1944 17.1944 23 12.5 23C7.80558 23 4 19.1944 4 14.5C4 10.6117 6.61152 7.3355 10.1758 6.32422L8.34961 4.75879C7.94952 4.41585 7.88412 3.822 8.2002 3.40039L9.7002 1.40039L9.77539 1.31055C9.96295 1.11339 10.2245 1 10.5 1H14.5264ZM12.5 8C8.91015 8 6 10.9101 6 14.5C6 18.0899 8.91015 21 12.5 21C16.0899 21 19 18.0899 19 14.5C19 10.9101 16.0899 8 12.5 8ZM10.3613 3.85059L12.5 5.68359L14.6445 3.84473L14.0215 3H10.999L10.3613 3.85059Z" fill="#9E9E9E"/>
</g>
</svg>
