<svg width="24" height="24" viewBox="0 0 24 24" fill="none" xmlns="http://www.w3.org/2000/svg">
<g id="icons/Clothes/diapers-one">
<path id="Union" d="M21 2C21.5523 2 22 2.44772 22 3V12C22 13.1351 21.6593 15.643 20.2559 17.9023C18.8126 20.2257 16.2578 22.25 12 22.25C7.75743 22.25 5.19914 20.3025 3.74805 18.002C2.33787 15.7662 2 13.2527 2 12V3C2 2.44772 2.44772 2 3 2H21ZM4.07715 13.0439C4.22311 14.1348 4.60345 15.6102 5.43945 16.9355C6.37805 18.4235 7.90884 19.7622 10.4746 20.1426C10.3362 17.5086 9.55589 15.8135 8.43652 14.75C7.38722 13.7532 5.92076 13.1956 4.07715 13.0439ZM19.9102 13.0449C18.0725 13.1981 16.6104 13.7554 15.5635 14.75C14.4448 15.8128 13.6635 17.5065 13.5244 20.1377C16.0789 19.7448 17.612 18.3681 18.5566 16.8477C19.3759 15.5288 19.7565 14.0839 19.9102 13.0449ZM4 6H8C8.55228 6 9 6.44772 9 7C9 7.55228 8.55228 8 8 8H4V11.0312C6.24963 11.178 8.28344 11.8464 9.81348 13.2998C10.824 14.2598 11.557 15.5093 12 17.0537C12.443 15.5093 13.176 14.2598 14.1865 13.2998C15.7166 11.8464 17.7504 11.178 20 11.0312V8H16C15.4477 8 15 7.55228 15 7C15 6.44772 15.4477 6 16 6H20V4H4V6Z" fill="#9E9E9E"/>
</g>
</svg>
