<svg width="24" height="24" viewBox="0 0 24 24" fill="none" xmlns="http://www.w3.org/2000/svg">
<g id="icons/Clothes/full-dress-longuette">
<path id="Union" d="M14.0004 1C14.5525 1.00022 15.0004 1.44785 15.0004 2V4H17.0004C17.3468 4.00014 17.6688 4.17991 17.851 4.47461C18.0329 4.76931 18.0497 5.13745 17.8949 5.44727L16.0004 9.23633V11.752L21.1361 21.5352C21.2986 21.845 21.2868 22.2181 21.1058 22.5176C20.9248 22.8169 20.6002 22.9999 20.2504 23H3.50037C3.1469 23 2.81999 22.813 2.64001 22.5088C2.46012 22.2045 2.45415 21.8283 2.62439 21.5186L8.00037 11.7432V9.23633L6.10583 5.44727C5.95088 5.13735 5.9677 4.76939 6.14978 4.47461C6.33201 4.1799 6.65386 4 7.00037 4H9.00037V2C9.00037 1.44772 9.44808 1 10.0004 1C10.5525 1.00022 11.0004 1.44785 11.0004 2V4H13.0004V2C13.0004 1.44772 13.4481 1 14.0004 1ZM10.0004 12C10.0004 12.1683 9.95739 12.3339 9.87634 12.4814L5.1908 21H18.5951L14.1146 12.4648C14.0394 12.3215 14.0004 12.1619 14.0004 12V11.5H10.0004V12ZM9.8949 8.55273C9.96427 8.69155 10.0004 8.84482 10.0004 9V9.5H14.0004V9L14.0072 8.88379C14.0207 8.76887 14.0538 8.65675 14.1058 8.55273L15.3822 6H8.61853L9.8949 8.55273Z" fill="#9E9E9E"/>
</g>
</svg>
