<svg width="24" height="24" viewBox="0 0 24 24" fill="none" xmlns="http://www.w3.org/2000/svg">
<g id="icons/Clothes/glasses-one">
<path id="Union" d="M12 7.5C12.8572 7.5 13.5445 7.93208 14.0186 8.44922C14.1157 8.55522 14.2048 8.66847 14.2891 8.78516C14.9836 8.29099 15.8327 8 16.75 8C18.6621 8 20.2787 9.26293 20.8125 11H22C22.5523 11 23 11.4477 23 12C23 12.5523 22.5523 13 22 13H20.9326C20.5783 14.9894 18.8412 16.5 16.75 16.5C14.4028 16.5 12.5 14.5972 12.5 12.25C12.5 11.5899 12.6495 10.9646 12.918 10.4072C12.8212 10.1741 12.6917 9.96195 12.5439 9.80078C12.3305 9.56795 12.1428 9.5 12 9.5C11.8572 9.5 11.6695 9.56795 11.4561 9.80078C11.3082 9.96203 11.1778 10.174 11.0811 10.4072C11.3497 10.9647 11.5 11.5898 11.5 12.25C11.5 14.5972 9.59721 16.5 7.25 16.5C5.15879 16.5 3.42172 14.9894 3.06738 13H2C1.44772 13 1 12.5523 1 12C1 11.4477 1.44772 11 2 11H3.1875C3.72135 9.26293 5.33789 8 7.25 8C8.16701 8 9.01558 8.29127 9.70996 8.78516C9.79431 8.66831 9.88415 8.55537 9.98145 8.44922C10.4555 7.93208 11.1428 7.5 12 7.5ZM7.25 10C6.00736 10 5 11.0074 5 12.25C5 13.4926 6.00736 14.5 7.25 14.5C8.49264 14.5 9.5 13.4926 9.5 12.25C9.5 11.0074 8.49264 10 7.25 10ZM16.75 10C15.5074 10 14.5 11.0074 14.5 12.25C14.5 13.4926 15.5074 14.5 16.75 14.5C17.9926 14.5 19 13.4926 19 12.25C19 11.0074 17.9926 10 16.75 10Z" fill="#9E9E9E"/>
</g>
</svg>
