<svg width="24" height="24" viewBox="0 0 24 24" fill="none" xmlns="http://www.w3.org/2000/svg">
<g id="icons/Clothes/glasses">
<path id="Union" d="M17.5518 2.68359C17.7265 2.15984 18.2926 1.87714 18.8164 2.05176L20.4482 2.5957C20.7564 2.69842 21.0681 2.80062 21.3203 2.91797C21.5614 3.03015 21.8182 3.18571 22.0332 3.4375L22.1221 3.55176L22.2021 3.67188C22.3731 3.95552 22.4396 4.2484 22.4697 4.5127C22.5013 4.78907 22.5 5.11667 22.5 5.44141V17C22.5 17.0546 22.4938 17.1079 22.4854 17.1602C22.4937 17.2723 22.5 17.3857 22.5 17.5C22.4999 19.9852 20.4852 22 18 22C15.5148 22 13.5001 19.9852 13.5 17.5C13.5 17.3857 13.5053 17.2723 13.5137 17.1602C13.5053 17.108 13.5 17.0546 13.5 17C13.5 16.1716 12.8284 15.5 12 15.5C11.1716 15.5 10.5 16.1716 10.5 17C10.5 17.0546 10.4938 17.1079 10.4854 17.1602C10.4937 17.2723 10.5 17.3857 10.5 17.5C10.4999 19.9852 8.48524 22 6 22C3.51477 22 1.50007 19.9852 1.5 17.5C1.5 17.3857 1.5053 17.2723 1.51367 17.1602C1.50526 17.108 1.50001 17.0546 1.5 17V5.44141C1.5 5.11667 1.49873 4.78907 1.53027 4.5127C1.56474 4.21077 1.64719 3.87196 1.87793 3.55176L1.9668 3.4375C2.18179 3.18572 2.43855 3.03016 2.67969 2.91797C2.93194 2.80062 3.24362 2.69842 3.55176 2.5957L5.18359 2.05176C5.70744 1.87714 6.27348 2.15984 6.44824 2.68359C6.62277 3.20741 6.34012 3.77349 5.81641 3.94824L4.18359 4.49316C3.83197 4.61038 3.64833 4.67335 3.52344 4.73145C3.52156 4.7323 3.51935 4.73256 3.51758 4.7334C3.51739 4.73524 3.5178 4.73733 3.51758 4.73926C3.50196 4.87614 3.5 5.0707 3.5 5.44141V13.7578C4.21506 13.2791 5.07489 13 6 13C7.38367 13 8.62081 13.6249 9.44629 14.6074C10.0849 13.9261 10.9925 13.5 12 13.5C13.0073 13.5 13.9142 13.9263 14.5527 14.6074C15.3782 13.6246 16.6161 13 18 13C18.9251 13 19.7849 13.2791 20.5 13.7578V5.44141C20.5 5.0707 20.498 4.87614 20.4824 4.73926C20.4822 4.73729 20.4817 4.73527 20.4814 4.7334C20.4799 4.73268 20.4782 4.73218 20.4766 4.73145C20.3517 4.67334 20.168 4.61038 19.8164 4.49316L18.1836 3.94824C17.6599 3.77349 17.3772 3.2074 17.5518 2.68359ZM6 15C4.61929 15 3.5 16.1193 3.5 17.5C3.50007 18.8806 4.61934 20 6 20C7.38067 20 8.49993 18.8806 8.5 17.5C8.5 16.1193 7.38071 15 6 15ZM18 15C16.6193 15 15.5 16.1193 15.5 17.5C15.5001 18.8806 16.6193 20 18 20C19.3807 20 20.4999 18.8806 20.5 17.5C20.5 16.1193 19.3807 15 18 15Z" fill="#9E9E9E"/>
</g>
</svg>
