<svg width="24" height="24" viewBox="0 0 24 24" fill="none" xmlns="http://www.w3.org/2000/svg">
<g id="icons/Clothes/handbag">
<path id="Union" d="M14.5 3C16.7091 3 18.5 4.79087 18.5 7H21C22.1046 7 23 7.89542 23 9V19C23 20.1046 22.1046 21 21 21H3C1.89544 21 1 20.1046 1 19V9C1 7.89541 1.89544 7 3 7H6C6 4.79087 7.79087 3 10 3H14.5ZM12.4854 15.9092C12.1667 15.9889 11.8333 15.9889 11.5146 15.9092L3 13.7803V19H21V13.7803L12.4854 15.9092ZM3 11.7188L12 13.9688L21 11.7188V9H3V11.7188ZM12 10.25C12.6903 10.25 13.25 10.8096 13.25 11.5C13.25 12.1903 12.6903 12.75 12 12.75C11.3097 12.75 10.75 12.1903 10.75 11.5C10.75 10.8096 11.3097 10.25 12 10.25ZM10 5C8.89543 5 8 5.89543 8 7H16.5C16.5 5.89543 15.6046 5 14.5 5H10Z" fill="#9E9E9E"/>
</g>
</svg>
