<svg width="24" height="24" viewBox="0 0 24 24" fill="none" xmlns="http://www.w3.org/2000/svg">
<g id="icons/Clothes/hanfu-chinese-style">
<path id="Union" d="M15.0228 1C15.0563 1.00073 15.0899 1.00269 15.1234 1.00684L15.1273 1.00781C15.1502 1.01076 15.173 1.01498 15.1956 1.01953C15.2024 1.02089 15.2093 1.02193 15.2161 1.02344C15.2791 1.03747 15.3405 1.05801 15.3997 1.08398C15.4133 1.08992 15.4264 1.09693 15.4398 1.10352C15.4549 1.11098 15.4708 1.11774 15.4857 1.12598L19.9857 3.62598L20.0735 3.68066C20.27 3.81815 20.4113 4.02298 20.47 4.25781L22.47 12.2578C22.5835 12.7123 22.3665 13.1849 21.9476 13.3945L18.5003 15.1182V22C18.5003 22.5522 18.0524 22.9998 17.5003 23H6.50031C5.94802 23 5.50031 22.5523 5.50031 22V15.1182L2.05304 13.3945C1.63389 13.185 1.41703 12.7124 1.53058 12.2578L3.53058 4.25781L3.55988 4.15918C3.64168 3.9335 3.80311 3.74367 4.01495 3.62598L8.51495 1.12598L8.59503 1.08594C8.6009 1.08333 8.60671 1.08061 8.61261 1.07812L8.62921 1.07129C8.64204 1.06617 8.65526 1.06219 8.66827 1.05762C8.6784 1.05404 8.68836 1.05011 8.69855 1.04688C8.74709 1.03154 8.79663 1.01949 8.84698 1.01172C8.86455 1.009 8.88212 1.00665 8.89972 1.00488C8.90133 1.00472 8.90299 1.00504 8.9046 1.00488L8.97784 1H15.0228ZM12.8685 7.74609C12.8661 7.75026 12.8621 7.75368 12.8597 7.75781C12.8447 7.78315 12.829 7.80798 12.8118 7.83203C12.8066 7.8393 12.8026 7.84738 12.7972 7.85449L7.50031 14.8359V21H16.5003V14.5C16.5003 14.1212 16.7143 13.7749 17.053 13.6055L20.3353 11.9639L18.6351 5.16309L15.3782 3.35352L12.8685 7.74609ZM5.36456 5.16309L3.66437 11.9639L6.20441 13.2334L10.803 7.1709L8.6214 3.35352L5.36456 5.16309ZM11.9993 5.23438L13.2767 3H10.723L11.9993 5.23438Z" fill="#9E9E9E"/>
</g>
</svg>
