<svg width="24" height="24" viewBox="0 0 24 24" fill="none" xmlns="http://www.w3.org/2000/svg">
<g id="icons/Clothes/hanger-one">
<path id="Union" d="M12.0002 1C12.5524 1.00015 13.0002 1.44781 13.0002 2V3L15.4006 1.2002C15.8424 0.869122 16.4688 0.958675 16.8 1.40039C17.1311 1.84214 17.0414 2.46847 16.5999 2.7998L13.0002 5.49902V8.5L15.4006 6.7002C15.8424 6.36912 16.4688 6.45867 16.8 6.90039C17.1311 7.34214 17.0414 7.96847 16.5999 8.2998L13.0002 10.999V21H15.0002C15.5524 21.0002 16.0002 21.4478 16.0002 22C16.0002 22.5522 15.5524 22.9998 15.0002 23H9.00024C8.44796 23 8.00024 22.5523 8.00024 22C8.00024 21.4477 8.44796 21 9.00024 21H11.0002V13.499L7.40063 10.7998C6.95886 10.4685 6.86921 9.84221 7.20044 9.40039C7.5318 8.95873 8.15808 8.869 8.59985 9.2002L11.0002 11V7.99902L7.40063 5.2998C6.95886 4.96847 6.86921 4.34221 7.20044 3.90039C7.5318 3.45873 8.15808 3.369 8.59985 3.7002L11.0002 5.5V2C11.0002 1.44772 11.448 1 12.0002 1Z" fill="#9E9E9E"/>
</g>
</svg>
