<svg width="24" height="24" viewBox="0 0 24 24" fill="none" xmlns="http://www.w3.org/2000/svg">
<g id="icons/Clothes/hat">
<path id="Union" d="M15.5 3C18.2614 3 20.5 5.23857 20.5 8V15H21C22.1046 15 23 15.8954 23 17V19C23 20.1046 22.1046 21 21 21H3C1.89543 21 1 20.1046 1 19V17C1 15.8954 1.89543 15 3 15H3.5V8C3.5 5.23857 5.73856 3 8.5 3H15.5ZM3 19H21V17H3V19ZM8.5 5C6.84313 5 5.5 6.34313 5.5 8V10H8.5C9.05229 10 9.5 10.4477 9.5 11C9.5 11.5523 9.05229 12 8.5 12H5.5V15H18.5V12H15.5C14.9477 12 14.5 11.5523 14.5 11C14.5 10.4477 14.9477 10 15.5 10H18.5V8C18.5 6.34313 17.1569 5 15.5 5H8.5Z" fill="#9E9E9E"/>
</g>
</svg>
