<svg width="24" height="24" viewBox="0 0 24 24" fill="none" xmlns="http://www.w3.org/2000/svg">
<g id="icons/Clothes/headwear">
<path id="Union" d="M20.8138 1.77344C21.1367 1.46863 21.622 1.41256 22.0052 1.63672C22.3883 1.86109 22.5777 2.31145 22.4701 2.74219L20.9701 8.74219C20.8764 9.11692 20.5753 9.40452 20.1967 9.48047L18.9115 9.7373C20.2147 11.2986 21.0004 13.3073 21.0004 15.5C21.0003 18.1746 19.8339 20.532 18.5756 22.1211C18.2327 22.5536 17.6041 22.6266 17.1713 22.2842C16.7383 21.9413 16.6653 21.3119 17.0082 20.8789C18.0714 19.5362 19.0003 17.6039 19.0004 15.5C19.0004 11.6341 15.8662 8.5002 12.0004 8.5C8.13435 8.5 5.00037 11.634 5.00037 15.5C5.0004 17.604 5.92934 19.5362 6.99255 20.8789C7.33516 21.3118 7.2622 21.9413 6.82947 22.2842C6.39671 22.6268 5.76811 22.5535 5.42517 22.1211C4.16679 20.532 3.0004 18.1746 3.00037 15.5C3.00037 13.3073 3.78413 11.2976 5.08728 9.73633L3.80408 9.48047C3.42528 9.40464 3.1244 9.11694 3.03064 8.74219L1.53064 2.74219C1.42303 2.31133 1.61219 1.86103 1.99548 1.63672C2.37878 1.41269 2.86409 1.46857 3.18689 1.77344L7.68689 6.02344C7.9425 6.26512 8.05317 6.62336 7.97693 6.9668L7.85583 7.51074C9.0964 6.86592 10.5056 6.5 12.0004 6.5C13.4954 6.50006 14.9042 6.86664 16.1449 7.51172L16.0238 6.9668C15.9475 6.62325 16.0581 6.26512 16.3138 6.02344L20.8138 1.77344ZM4.8158 7.64258L5.73572 7.82715L5.90076 7.08594L4.29822 5.57324L4.8158 7.64258ZM18.099 7.08594L18.264 7.82715L19.184 7.64258L19.7015 5.57324L18.099 7.08594Z" fill="#9E9E9E"/>
</g>
</svg>
