<svg width="24" height="24" viewBox="0 0 24 24" fill="none" xmlns="http://www.w3.org/2000/svg">
<g id="icons/Clothes/high-heeled-shoes">
<path id="Union" d="M18.9209 3.18457C19.2408 2.95722 19.6715 2.93542 20.0166 3.14355C20.4359 3.39676 22.9999 4.64213 23 7.5C23 8.58562 22.8068 9.57579 22.4932 10.3857C22.4974 10.4233 22.5 10.4613 22.5 10.5V20C22.5 20.5523 22.0523 21 21.5 21C20.9477 21 20.5 20.5523 20.5 20V12.7197L18.0801 14.415C16.8725 15.2603 15.8561 16.3503 15.0977 17.6143L13.3574 20.5146C13.1767 20.8158 12.8512 21 12.5 21H2C1.44772 21 1 20.5523 1 20V18L1.00879 17.8652C1.05112 17.5539 1.2385 17.2768 1.51855 17.123C2.70177 16.4735 6.37173 14.2238 7.94238 13.1699L8.06543 13.0996C8.35928 12.9577 8.70762 12.967 8.99609 13.1318C9.70785 13.5386 10.2339 13.5897 10.626 13.5166C11.0331 13.4406 11.4315 13.2044 11.8281 12.7998C12.6537 11.9575 13.2379 10.6391 13.6699 9.6123C14.2554 8.22088 15.2396 6.95456 16.1992 5.89941C17.1466 4.85778 18.1793 3.91056 18.791 3.29492L18.9209 3.18457ZM19.6377 5.2627C19.0408 5.84169 18.3645 6.49103 17.6787 7.24512C16.7755 8.23819 15.9688 9.3061 15.5137 10.3877C15.1042 11.3608 14.3916 13.0425 13.2568 14.2002C12.6733 14.7955 11.9248 15.3094 10.9932 15.4834C10.2187 15.6279 9.40513 15.5208 8.56641 15.1523C7.01292 16.1655 4.39197 17.7772 3 18.582V19H11.9336L13.3828 16.5859C14.2857 15.0812 15.4949 13.7828 16.9326 12.7764L19.9268 10.6807L20.001 10.6328C20.107 10.5718 20.3703 10.3123 20.6113 9.71094C20.8384 9.14448 21 8.38319 21 7.5C20.9999 6.37599 20.2879 5.70456 19.6377 5.2627Z" fill="#9E9E9E"/>
</g>
</svg>
