<svg width="24" height="24" viewBox="0 0 24 24" fill="none" xmlns="http://www.w3.org/2000/svg">
<g id="icons/Clothes/holy-sword">
<path id="Union" d="M11.9998 1C12.3081 1 12.5994 1.14244 12.7888 1.38574L16.2888 5.88574C16.4656 6.11299 16.5364 6.40576 16.4822 6.68848L14.2107 18.5H15.4998C16.052 18.5 16.4998 18.9477 16.4998 19.5C16.4998 20.0523 16.052 20.5 15.4998 20.5H12.9998V22.5C12.9998 23.0523 12.552 23.5 11.9998 23.5C11.4476 23.4999 10.9998 23.0522 10.9998 22.5V20.5H8.49976C7.94759 20.4999 7.49976 20.0522 7.49976 19.5C7.49976 18.9478 7.94759 18.5001 8.49976 18.5H9.78882L7.51733 6.68848C7.46312 6.40583 7.53403 6.11296 7.71069 5.88574L11.2107 1.38574L11.2859 1.2998C11.4727 1.10927 11.7297 1.00007 11.9998 1ZM9.56714 6.75488L11.8259 18.5H12.1736L14.4314 6.75488L11.9998 3.62793L9.56714 6.75488Z" fill="#9E9E9E"/>
</g>
</svg>
