<svg width="24" height="24" viewBox="0 0 24 24" fill="none" xmlns="http://www.w3.org/2000/svg">
<g id="icons/Clothes/magic-hat">
<path id="Union" d="M12 1.5C14.0165 1.5 15.8857 1.78989 17.2861 2.29004C17.9819 2.53853 18.6157 2.85825 19.0947 3.2627C19.5692 3.66333 20 4.24631 20 5C20 5.19746 19.9692 5.38282 19.917 5.55664C19.8103 6.14645 19.7049 6.63069 19.6035 7.1123C19.4808 7.69504 19.3609 8.29672 19.2402 9.1416C19.1232 9.96078 19.0613 11.0411 19.0303 11.9404C19.018 12.2972 19.0122 12.6199 19.0078 12.8779C19.0088 12.8785 19.0097 12.8793 19.0107 12.8799C19.3655 13.0657 19.8452 13.3395 20.3311 13.6865C20.8114 14.0296 21.3328 14.4688 21.7422 14.9951C22.1503 15.5199 22.5 16.2004 22.5 17C22.5 18.4521 21.5925 19.8646 19.8789 20.8643C18.1724 21.8597 15.6024 22.5 12 22.5C8.39758 22.5 5.8276 21.8597 4.12109 20.8643C2.40745 19.8646 1.5 18.4521 1.5 17C1.5 15.5468 2.38914 14.5375 3.23828 13.8916C3.82271 13.4471 4.47741 13.1093 4.99219 12.8652C4.97406 11.8133 4.91316 10.2154 4.75977 9.1416C4.63907 8.29672 4.51916 7.69504 4.39648 7.1123C4.29508 6.63065 4.18875 6.14653 4.08203 5.55664C4.0299 5.3829 4 5.19736 4 5C4 4.24631 4.43081 3.66333 4.90527 3.2627C5.38435 2.85825 6.0181 2.53853 6.71387 2.29004C8.11434 1.78989 9.98346 1.5 12 1.5ZM17.2861 7.70996C15.8857 8.21011 14.0165 8.5 12 8.5C9.98346 8.5 8.11434 8.21011 6.71387 7.70996C6.65561 7.68915 6.59835 7.66635 6.54102 7.64453C6.60698 8.00121 6.67421 8.39626 6.74023 8.8584C6.95095 10.3334 7 12.5773 7 13.5C7 13.8901 6.7731 14.2447 6.41895 14.4082C5.83997 14.6754 5.08198 15.0022 4.44922 15.4834C3.81922 15.9625 3.5 16.4533 3.5 17C3.5 17.5479 3.8427 18.3854 5.12891 19.1357C6.4224 19.8903 8.60255 20.5 12 20.5C15.3975 20.5 17.5776 19.8903 18.8711 19.1357C20.1573 18.3854 20.5 17.5479 20.5 17C20.5 16.7997 20.412 16.5425 20.1641 16.2236C19.9173 15.9063 19.5635 15.5953 19.1689 15.3135C19.0568 15.2334 18.9438 15.158 18.833 15.0869C18.6666 15.7509 18.3397 16.4243 17.6953 16.9971C16.5662 18.0007 14.6852 18.5 11.75 18.5C11.1977 18.5 10.75 18.0523 10.75 17.5C10.75 16.9477 11.1977 16.5 11.75 16.5C14.5648 16.5 15.8088 15.9993 16.3672 15.5029C16.8701 15.0559 17 14.4469 17 13.5V13.4658C17.0001 13.4442 17.0007 13.4125 17.001 13.3721C17.0015 13.2912 17.0019 13.1745 17.0039 13.0293C17.0079 12.7389 17.0163 12.3335 17.0322 11.8721C17.0637 10.959 17.1268 9.78913 17.2598 8.8584C17.3258 8.39634 17.3921 8.00116 17.458 7.64453C17.401 7.66623 17.3441 7.68926 17.2861 7.70996ZM12 3.5C10.1507 3.5 8.51973 3.76921 7.38672 4.17383C6.81586 4.37771 6.42465 4.59737 6.19531 4.79102C6.08328 4.88561 6.03479 4.95261 6.01367 4.98926C6.01519 4.99804 6.01606 5.0069 6.01758 5.01562C6.0403 5.05322 6.08853 5.11882 6.19531 5.20898C6.42465 5.40263 6.81586 5.62229 7.38672 5.82617C8.51973 6.23079 10.1507 6.5 12 6.5C13.8493 6.5 15.4803 6.23079 16.6133 5.82617C17.1841 5.62229 17.5754 5.40263 17.8047 5.20898C17.9118 5.11855 17.959 5.05228 17.9814 5.01465C17.9829 5.00655 17.9839 4.99838 17.9854 4.99023C17.9645 4.9536 17.9171 4.88592 17.8047 4.79102C17.5754 4.59737 17.1841 4.37771 16.6133 4.17383C15.4803 3.76921 13.8493 3.5 12 3.5Z" fill="#9E9E9E"/>
</g>
</svg>
