<svg width="24" height="24" viewBox="0 0 24 24" fill="none" xmlns="http://www.w3.org/2000/svg">
<g id="icons/Clothes/men-jacket">
<path id="Union" d="M14.9998 1C15.0383 1 15.0766 1.00162 15.114 1.00586L15.116 1.00684H15.1189C15.2268 1.01961 15.329 1.05042 15.4236 1.09473C15.4314 1.09837 15.4393 1.10162 15.447 1.10547L21.447 4.10547C21.8117 4.2878 22.0293 4.67368 21.9968 5.08008L20.9968 17.5801C20.9551 18.0996 20.521 18.5 19.9998 18.5H17.9998V22C17.9998 22.5523 17.552 23 16.9998 23H6.99976C6.44759 22.9999 5.99976 22.5522 5.99976 22V18.5H3.99976C3.47862 18.4999 3.0444 18.0995 3.00269 17.5801L2.00269 5.08008C1.97019 4.67377 2.18797 4.28784 2.55249 4.10547L8.55249 1.10547L8.57495 1.0957C8.59652 1.08555 8.618 1.07503 8.64038 1.06641L8.65894 1.05957C8.66796 1.0563 8.67717 1.05281 8.68628 1.0498C8.69526 1.04684 8.70453 1.04471 8.71362 1.04199C8.76503 1.02666 8.81759 1.01567 8.87085 1.00879C8.8835 1.00716 8.89614 1.00506 8.90894 1.00391C8.93906 1.00118 8.96938 1.00001 8.99976 1H14.9998ZM4.05054 5.5918L4.92358 16.5H5.99976V10C5.99976 9.4478 6.44759 9.00014 6.99976 9C7.55204 9 7.99976 9.44771 7.99976 10V21H15.9998V10C15.9998 9.4478 16.4476 9.00014 16.9998 9C17.552 9 17.9998 9.44771 17.9998 10V16.5H19.0759L19.948 5.5918L15.7166 3.47656C15.1289 4.9545 13.6871 6 11.9998 6C10.312 5.99989 8.86929 4.95416 8.28198 3.47559L4.05054 5.5918ZM10.2693 3C10.6152 3.59726 11.2599 3.9999 11.9998 4C12.7396 4 13.3843 3.59727 13.7302 3H10.2693Z" fill="#9E9E9E"/>
</g>
</svg>
