<svg width="24" height="24" viewBox="0 0 24 24" fill="none" xmlns="http://www.w3.org/2000/svg">
<g id="icons/Clothes/necktie">
<path id="Union" d="M13.5 1C13.6974 1 13.8904 1.05846 14.0547 1.16797L15.5547 2.16797C15.9557 2.43532 16.1087 2.95053 15.9189 3.39355L14.5537 6.57812L17.4678 17.748C17.5624 18.1117 17.4449 18.4974 17.1641 18.7471L12.6641 22.7471C12.2852 23.0838 11.7148 23.0839 11.3359 22.7471L6.83594 18.7471C6.55507 18.4974 6.43756 18.1117 6.53223 17.748L9.44531 6.57812L8.08105 3.39355C7.89132 2.95053 8.0443 2.43532 8.44531 2.16797L9.94531 1.16797L10.0732 1.0957C10.2062 1.03298 10.3518 1 10.5 1H13.5ZM8.62207 17.6592L12 20.6621L15.377 17.6592L12.7275 7.5H11.2725L8.62207 17.6592ZM10.2461 3.37012L11.1592 5.5H12.8408L13.7529 3.37012L13.1973 3H10.8027L10.2461 3.37012Z" fill="#9E9E9E"/>
</g>
</svg>
