<svg width="24" height="24" viewBox="0 0 24 24" fill="none" xmlns="http://www.w3.org/2000/svg">
<g id="icons/Clothes/panties">
<path id="Union" d="M18.9277 2.18066C19.1862 2.00017 19.5141 1.95192 19.8135 2.05078C20.1131 2.14982 20.3484 2.3843 20.4482 2.68359C20.4486 2.68432 20.4496 2.68585 20.4502 2.6875C20.4516 2.69175 20.4538 2.69968 20.457 2.70898C20.4636 2.72809 20.4746 2.75748 20.4883 2.7959C20.516 2.87379 20.5581 2.98929 20.6133 3.13281C20.7242 3.42117 20.887 3.82163 21.0938 4.26465C21.5171 5.17176 22.0786 6.1586 22.6963 6.78125C22.8576 6.93744 22.9674 7.14914 22.9941 7.38965C22.9944 7.3919 22.9939 7.39423 22.9941 7.39648C22.9977 7.43061 23 7.46537 23 7.5C22.9999 9.22286 22.3942 10.9804 21.5605 12.5986C20.7218 14.2266 19.6151 15.7852 18.5273 17.1289C17.437 18.4757 16.3491 19.6275 15.5352 20.4414C15.1276 20.8489 14.7867 21.1738 14.5469 21.3975C14.4272 21.5091 14.3322 21.5959 14.2666 21.6553C14.2339 21.6849 14.2081 21.7078 14.1904 21.7236C14.1866 21.727 14.1827 21.7296 14.1797 21.7324C14.1736 21.7381 14.1674 21.7435 14.1611 21.749H14.1621V21.75C14.1548 21.7565 14.1462 21.7614 14.1387 21.7676C14.0789 21.8173 14.0137 21.8606 13.9434 21.8955C13.9296 21.9023 13.9154 21.9079 13.9014 21.9141C13.8874 21.9202 13.8737 21.9271 13.8594 21.9326C13.8443 21.9384 13.8288 21.9432 13.8135 21.9482C13.7999 21.9527 13.7863 21.957 13.7725 21.9609C13.728 21.9735 13.6827 21.9819 13.6367 21.9883C13.623 21.9902 13.6096 21.9938 13.5957 21.9951L13.5 22H10.5L10.4043 21.9951C10.3901 21.9938 10.3763 21.9902 10.3623 21.9883C10.3164 21.9819 10.271 21.9735 10.2266 21.9609C10.2127 21.957 10.1991 21.9527 10.1855 21.9482C10.1702 21.9432 10.1547 21.9384 10.1396 21.9326C10.1253 21.9271 10.1116 21.9202 10.0977 21.9141C10.0863 21.9091 10.0746 21.9048 10.0635 21.8994L10.0498 21.8926C9.98172 21.8582 9.91841 21.816 9.86035 21.7676C9.85299 21.7615 9.84509 21.7554 9.83789 21.749C9.83167 21.7435 9.82542 21.7381 9.81934 21.7324C9.81642 21.7298 9.81315 21.7268 9.80957 21.7236C9.79191 21.7078 9.76611 21.6849 9.7334 21.6553C9.66784 21.5959 9.57283 21.5091 9.45312 21.3975C9.21332 21.1738 8.87235 20.8489 8.46484 20.4414C7.65091 19.6275 6.56296 18.4757 5.47266 17.1289C4.3849 15.7852 3.27817 14.2266 2.43945 12.5986C1.60583 10.9804 1.00011 9.22285 1 7.5C1 7.46541 1.00135 7.43058 1.00488 7.39648C1.00512 7.3942 1.00561 7.39194 1.00586 7.38965C1.03261 7.1489 1.14211 6.93651 1.30371 6.78027C2.18165 5.89851 2.74131 4.89904 3.08105 4.10645C3.25059 3.71087 3.36293 3.37322 3.43164 3.13965C3.46583 3.02341 3.48881 2.93301 3.50293 2.875C3.50991 2.84629 3.51489 2.82467 3.51758 2.8125L3.51953 2.80176V2.80273C3.58603 2.47222 3.815 2.19782 4.12793 2.07227C4.44099 1.94674 4.79578 1.98755 5.07227 2.18066C5.07369 2.18155 5.07608 2.18225 5.07812 2.18359C5.0892 2.19086 5.10989 2.20443 5.13965 2.22266C5.19971 2.25943 5.29793 2.31647 5.43359 2.3877C5.70553 2.53045 6.1295 2.72919 6.70508 2.93066C7.85526 3.33321 9.61911 3.75 12 3.75C14.3809 3.75 16.1447 3.33321 17.2949 2.93066C17.8705 2.72919 18.2945 2.53045 18.5664 2.3877C18.7021 2.31647 18.8003 2.25943 18.8604 2.22266C18.8901 2.20443 18.9108 2.19086 18.9219 2.18359C18.9239 2.18225 18.9263 2.18155 18.9277 2.18066ZM18.9717 4.41113C18.6874 4.5397 18.349 4.68147 17.9551 4.81934C16.6053 5.29171 14.6187 5.75 12 5.75C9.3813 5.75 7.39473 5.29171 6.04492 4.81934C5.68328 4.69276 5.36787 4.56385 5.09863 4.44434C5.04519 4.58552 4.9863 4.73638 4.91895 4.89355C4.66748 5.48025 4.30711 6.1744 3.80957 6.88281C4.13822 6.98224 4.49976 7.10661 4.87891 7.26172C6.36618 7.87022 8.21583 8.98742 9.36816 11.0039C10.4687 12.9299 10.9882 15.4662 11.2422 17.4346C11.3712 18.4344 11.4355 19.3205 11.4678 19.957C11.4685 19.9715 11.469 19.9858 11.4697 20H12.5303C12.531 19.9858 12.5315 19.9715 12.5322 19.957C12.5645 19.3205 12.6288 18.4344 12.7578 17.4346C13.0118 15.4662 13.5313 12.9299 14.6318 11.0039C15.7842 8.98742 17.6338 7.87022 19.1211 7.26172C19.5195 7.09875 19.8985 6.96999 20.2402 6.86816C19.8533 6.26807 19.5304 5.64433 19.2812 5.11035C19.1651 4.86154 19.0616 4.62516 18.9717 4.41113ZM20.8613 8.76953C20.5635 8.85691 20.2299 8.96969 19.8789 9.11328C18.6163 9.62982 17.2158 10.5128 16.3682 11.9961C15.4688 13.57 14.9882 15.7841 14.7422 17.6904C14.7067 17.9655 14.6763 18.2316 14.6504 18.4854C15.341 17.7698 16.1585 16.8768 16.9727 15.8711C18.0097 14.5901 19.0283 13.148 19.7832 11.6826C20.2999 10.6797 20.6737 9.69682 20.8613 8.76953ZM3.13574 8.76953C3.32376 9.69692 3.70007 10.6795 4.2168 11.6826C4.97175 13.148 5.99034 14.5901 7.02734 15.8711C7.84132 16.8766 8.65808 17.7699 9.34863 18.4854C9.32277 18.2316 9.2933 17.9655 9.25781 17.6904C9.01182 15.7841 8.53118 13.57 7.63184 11.9961C6.78419 10.5128 5.38365 9.62982 4.12109 9.11328C3.76904 8.96926 3.43428 8.85702 3.13574 8.76953ZM5.07129 2.17871L5.07227 2.17969V2.18066C5.07029 2.17935 5.06893 2.17818 5.06836 2.17773H5.06934L5.07129 2.17871ZM18.9277 2.18066V2.17969L18.9287 2.17871L18.9307 2.17773H18.9316C18.9311 2.17818 18.9297 2.17935 18.9277 2.18066Z" fill="#9E9E9E"/>
</g>
</svg>
