<svg width="24" height="24" viewBox="0 0 24 24" fill="none" xmlns="http://www.w3.org/2000/svg">
<g id="icons/Clothes/perfume">
<path id="Union" d="M15 9C18.866 9 22 12.134 22 16C22 19.866 18.866 23 15 23H9C5.40652 23 2.44646 20.2921 2.04688 16.8057C2.00189 16.6649 1.99037 16.5151 2.00977 16.3682C2.00345 16.2462 2 16.1235 2 16C2 12.134 5.13401 9 9 9H15ZM6.9502 16.1494C5.59462 16.1561 4.62367 16.4192 4.07129 16.8418C4.47155 19.2023 6.5255 21 9 21H15C16.9987 21 18.7221 19.8267 19.5225 18.1318C18.6287 18.3951 17.6724 18.4108 16.7607 18.3057C15.0072 18.1033 13.1381 17.4331 11.6836 16.9482C10.2679 16.4764 8.50726 16.1418 6.9502 16.1494ZM9 11C6.74293 11 4.83546 12.4956 4.21387 14.5498C5.07424 14.2592 6.03253 14.1539 6.94043 14.1494C8.75301 14.1405 10.7321 14.5227 12.3164 15.0508C13.8617 15.5659 15.493 16.1456 16.9893 16.3184C18.3134 16.4711 19.3011 16.2786 19.9844 15.6279C19.794 13.0403 17.6362 11 15 11H9ZM14.5 1C15.8807 1 17 2.11929 17 3.5V5.5C17 6.88071 15.8807 8 14.5 8H9.5C8.11929 8 7 6.88071 7 5.5V3.5C7 2.11929 8.11929 1 9.5 1H14.5ZM9.5 3C9.22386 3 9 3.22386 9 3.5V5.5C9 5.77614 9.22386 6 9.5 6H14.5C14.7761 6 15 5.77614 15 5.5V3.5C15 3.22386 14.7761 3 14.5 3H9.5ZM12 4C12.2761 4 12.5 4.22386 12.5 4.5C12.5 4.77614 12.2761 5 12 5C11.7239 5 11.5 4.77614 11.5 4.5C11.5 4.22386 11.7239 4 12 4Z" fill="#9E9E9E"/>
</g>
</svg>
