<svg width="24" height="24" viewBox="0 0 24 24" fill="none" xmlns="http://www.w3.org/2000/svg">
<g id="icons/Clothes/retro-bag">
<path id="Union" d="M12 1C15.1461 1 17.8898 3.10243 18.4102 6H19.5C20.6046 6 21.5 6.89542 21.5 8V14C21.5 14.9316 20.8622 15.7113 20 15.9336V22C20 22.5523 19.5523 23 19 23H5C4.44772 23 4 22.5523 4 22V15.9336C3.13781 15.7113 2.5 14.9316 2.5 14V8C2.5 6.89541 3.39544 6 4.5 6H5.58984C6.11024 3.10243 8.85386 1 12 1ZM6 16V21H18V16H15C15 16.5523 14.5523 17 14 17H10C9.44772 17 9 16.5523 9 16H6ZM11 15H13V14H11V15ZM4.5 14H9V13C9 12.4477 9.44772 12 10 12H14C14.5523 12 15 12.4477 15 13V14H19.5V8H4.5V14ZM12 3C9.83825 3 8.13681 4.32173 7.64453 6H16.3555C15.8632 4.32173 14.1617 3 12 3Z" fill="#9E9E9E"/>
</g>
</svg>
