<svg width="24" height="24" viewBox="0 0 24 24" fill="none" xmlns="http://www.w3.org/2000/svg">
<g id="icons/Clothes/shorts">
<path id="Union" d="M18.4998 2C19.052 2 19.4998 2.44772 19.4998 3V7.80176L22.9246 16.1191C23.1129 16.5765 22.9385 17.1029 22.5144 17.3574L15.0144 21.8574C14.5918 22.1109 14.0467 22.0192 13.7312 21.6406L11.9998 19.5625L10.2683 21.6406C9.95271 22.0191 9.40772 22.111 8.98511 21.8574L1.48511 17.3574C1.06121 17.1029 0.886717 16.5764 1.07495 16.1191L4.49976 7.80176V3C4.49976 2.44779 4.94758 2.00013 5.49976 2H18.4998ZM3.25171 16.085L9.27905 19.7012L11.2312 17.3594C11.4211 17.1315 11.7031 17.0001 11.9998 17C12.2964 17 12.5783 17.1315 12.7683 17.3594L14.7195 19.7012L20.7468 16.085L17.8298 9H6.16968L3.25171 16.085ZM6.49976 7H17.4998V4H6.49976V7Z" fill="#9E9E9E"/>
</g>
</svg>
