<svg width="24" height="24" viewBox="0 0 24 24" fill="none" xmlns="http://www.w3.org/2000/svg">
<g id="icons/Clothes/short-skirt">
<path id="Union" d="M15.5981 1.00488C15.827 1.02756 16.0424 1.12896 16.2065 1.29297L18.7065 3.79297L18.7925 3.8916C18.8719 3.99509 18.9312 4.11347 18.9653 4.24023L22.4653 17.2402C22.5163 17.4297 22.5098 17.6302 22.4478 17.8164L21.4995 17.5C22.3706 17.7904 22.4422 17.8148 22.4478 17.8174L22.4468 17.8193C22.4464 17.8204 22.4462 17.822 22.4458 17.8232C22.445 17.8256 22.4438 17.8282 22.4429 17.8311C22.4407 17.8372 22.4381 17.8452 22.4351 17.8535C22.429 17.8702 22.4214 17.8912 22.4116 17.916C22.392 17.9659 22.3642 18.0318 22.3276 18.1113C22.2543 18.2705 22.1447 18.4856 21.9868 18.7363C21.6706 19.2385 21.1628 19.8859 20.3823 20.5244C18.8061 21.8137 16.1989 23 11.9995 23C7.80017 22.9999 5.19281 21.8138 3.6167 20.5244C2.83628 19.8858 2.32836 19.2384 2.01221 18.7363C1.85437 18.4856 1.74466 18.2705 1.67139 18.1113C1.63479 18.0318 1.60699 17.9659 1.5874 17.916C1.57767 17.8912 1.56999 17.8702 1.56396 17.8535C1.56096 17.8452 1.55829 17.8372 1.55615 17.8311C1.55517 17.8282 1.55402 17.8256 1.55322 17.8232C1.55282 17.822 1.55261 17.8204 1.55225 17.8193L1.55127 17.8174C1.55344 17.8158 1.60041 17.7997 2.49951 17.5L1.55127 17.8164C1.53639 17.7718 1.52546 17.7266 1.51709 17.6816C1.51606 17.6761 1.51509 17.6706 1.51416 17.665C1.5074 17.6249 1.50328 17.5848 1.50146 17.5449C1.50077 17.53 1.50149 17.515 1.50146 17.5C1.50146 17.4682 1.50237 17.4366 1.50537 17.4053C1.50688 17.3893 1.50895 17.3734 1.51123 17.3574C1.51552 17.3278 1.52094 17.2985 1.52783 17.2695C1.53012 17.2599 1.53111 17.2499 1.53369 17.2402L5.03369 4.24023L5.07568 4.11621C5.12573 3.99575 5.19968 3.88583 5.29248 3.79297L7.79248 1.29297L7.86572 1.22656C8.04356 1.08082 8.26758 1.00011 8.49951 1H15.4995L15.5981 1.00488ZM6.89502 5.01758L3.55713 17.4131C3.55882 17.4163 3.56028 17.4196 3.56201 17.4229C3.59945 17.4933 3.64679 17.5766 3.70557 17.6699C3.92056 18.0114 4.28837 18.4895 4.88232 18.9756C5.10249 19.1557 5.357 19.3398 5.6499 19.5195C5.70323 19.5523 5.75902 19.5828 5.81494 19.6152L7.52979 12.7578C7.66368 12.2222 8.20612 11.8968 8.7417 12.0303C9.27742 12.1642 9.60304 12.7065 9.46924 13.2422L7.67529 20.415C7.75142 20.4386 7.8279 20.4648 7.90674 20.4873C8.9924 20.7967 10.3376 21 11.9995 21C15.7991 21 17.9427 19.936 19.1167 18.9756C19.7107 18.4895 20.0784 18.0114 20.2935 17.6699C20.3544 17.5732 20.4029 17.4871 20.4409 17.415L17.103 5.01758L15.0854 3H8.91357L6.89502 5.01758Z" fill="#9E9E9E"/>
</g>
</svg>
