<svg width="24" height="24" viewBox="0 0 24 24" fill="none" xmlns="http://www.w3.org/2000/svg">
<g id="icons/Clothes/skates">
<path id="Union" d="M15.5 1.5C16.0523 1.5 16.5 1.94772 16.5 2.5V6.5C16.5 7.05228 16.0523 7.5 15.5 7.5H14.5V10.5342C17.615 10.734 19.4598 11.8776 20.4688 13.4629C21.2288 14.6572 21.426 15.9874 21.4785 17H21.5C22.0523 17 22.5 17.4477 22.5 18V21C22.5 21.5523 22.0523 22 21.5 22H3.5C2.94772 22 2.5 21.5523 2.5 21V18C2.5 17.4477 2.94772 17 3.5 17V7.5H2.5C1.94772 7.5 1.5 7.05228 1.5 6.5V2.5C1.5 1.94772 1.94772 1.5 2.5 1.5H15.5ZM4.5 20H20.5V19H4.5V20ZM5.5 17H19.4746C19.4242 16.1866 19.2687 15.3033 18.7812 14.5371C18.1437 13.5353 16.7724 12.5 13.5 12.5C12.9477 12.5 12.5 12.0523 12.5 11.5V7.5H5.5V17ZM3.5 5.5H14.5V3.5H3.5V5.5Z" fill="#9E9E9E"/>
</g>
</svg>
