<svg width="24" height="24" viewBox="0 0 24 24" fill="none" xmlns="http://www.w3.org/2000/svg">
<g id="icons/Clothes/slippers-one">
<path id="Union" d="M7.97949 6.97656C9.82211 6.44293 11.6069 6.36196 12.6416 6.50977C15.0314 6.85123 16 8.91718 16 10.5V13.5H22C22.5523 13.5 23 13.9477 23 14.5V17.5C23 18.0523 22.5523 18.5 22 18.5H2C1.44772 18.5 1 18.0523 1 17.5V14.4795C1.00013 14.4713 1.00062 14.4613 1.00098 14.4502C1.00169 14.4279 1.00269 14.3998 1.00488 14.3662C1.00928 14.2988 1.01722 14.2086 1.03223 14.0986C1.06227 13.8785 1.11993 13.5771 1.22949 13.2119C1.44936 12.4793 1.87654 11.4975 2.7002 10.3994C4.0937 8.54179 6.12932 7.51244 7.97949 6.97656ZM3 16.5H21V15.5H3V16.5ZM12.3584 8.48926C11.6429 8.38712 10.1462 8.43116 8.53613 8.89746C6.93352 9.3616 5.34408 10.2075 4.2998 11.5996C3.73937 12.3468 3.42302 13.003 3.24219 13.5H14V10.5C14 9.58285 13.4685 8.64785 12.3584 8.48926Z" fill="#9E9E9E"/>
</g>
</svg>
