<svg width="24" height="24" viewBox="0 0 24 24" fill="none" xmlns="http://www.w3.org/2000/svg">
<g id="icons/Clothes/slippers">
<path id="Union" d="M11.0117 5.8418C11.3008 5.51144 11.7721 5.40777 12.1729 5.58691C13.2943 6.08857 15.3602 7.02766 17.1426 7.83984C18.0344 8.24622 18.8561 8.622 19.4551 8.89551C19.7544 9.03219 19.9981 9.14353 20.167 9.2207C20.2514 9.25928 20.3177 9.28917 20.3623 9.30957L20.4258 9.33887C20.4272 9.33952 20.4289 9.33952 20.4297 9.33984L20.4307 9.34082C20.7864 9.50359 21.0146 9.85879 21.0146 10.25V13.5H22C22.5523 13.5 23 13.9478 23 14.5V17.5C23 18.0523 22.5523 18.5 22 18.5H2C1.44772 18.5 1 18.0523 1 17.5V14.5C1.00005 13.9478 1.44775 13.5 2 13.5H9.02246C9.03597 12.5916 9.08063 11.4767 9.24414 10.3555C9.47042 8.80413 9.94164 7.06497 11.0117 5.8418ZM3 16.5H21V15.5H3V16.5ZM12.1016 7.75C11.6669 8.50944 11.3866 9.52051 11.2227 10.6445C11.0774 11.6406 11.0357 12.6433 11.0225 13.5H19.0146V10.8916C18.899 10.8388 18.7683 10.7793 18.625 10.7139C18.0264 10.4405 17.2046 10.0662 16.3135 9.66016C14.8758 9.00503 13.258 8.27151 12.1016 7.75Z" fill="#9E9E9E"/>
</g>
</svg>
