<svg width="24" height="24" viewBox="0 0 24 24" fill="none" xmlns="http://www.w3.org/2000/svg">
<g id="icons/Clothes/socks">
<path id="Union" d="M19.0002 1C20.1047 1.00017 21.0002 1.89555 21.0002 3V12.1436C21.0002 14.1711 20.055 16.0851 18.4368 17.3115C16.6208 18.6876 14.1395 20.5576 13.0813 21.3135C12.1152 22.0035 10.7077 22.7178 9.14771 22.8994C7.54648 23.0856 5.78993 22.7037 4.29321 21.207C1.34223 18.2557 2.08338 14.3215 4.32446 12.2637C5.27747 11.3886 6.29031 10.5217 7.06177 9.87598C7.44474 9.55541 7.7695 9.28701 8.00024 9.09863V3C8.00024 1.89551 8.89574 1.00011 10.0002 1H19.0002ZM10.0002 6V9.57617C10.0002 9.87942 9.86276 10.1667 9.62622 10.3564H9.62524L9.62427 10.3574C9.62343 10.3581 9.62193 10.3591 9.62036 10.3604C9.61658 10.3634 9.61043 10.3688 9.60278 10.375C9.58734 10.3874 9.56441 10.4064 9.53442 10.4307C9.47389 10.4796 9.38447 10.5515 9.27173 10.6436C9.04596 10.8278 8.72487 11.092 8.34595 11.4092C7.5864 12.045 6.59868 12.8901 5.677 13.7363C4.16839 15.1215 3.65895 17.7443 5.70728 19.793C6.71034 20.796 7.83014 21.0394 8.91626 20.9131C10.0432 20.782 11.1355 20.2463 11.9192 19.6865C12.5698 19.2218 13.7869 18.3094 15.0569 17.3535C13.945 15.8648 13.074 13.6228 14.0715 11.1289C14.6981 9.56263 15.8277 8.75393 16.9963 8.36426C17.6843 8.13498 18.3895 8.05002 19.0002 8.01855V6H10.0002ZM19.0002 10.0225C18.5359 10.0505 18.0692 10.1141 17.6292 10.2607C16.9232 10.4961 16.3024 10.9379 15.929 11.8711C15.278 13.4982 15.8163 15.0373 16.6516 16.1514C16.8486 16.0023 17.0426 15.8578 17.2288 15.7168C18.3456 14.8703 19.0002 13.5479 19.0002 12.1436V10.0225ZM10.0002 4H19.0002V3H10.0002V4Z" fill="#9E9E9E"/>
</g>
</svg>
