<svg width="24" height="24" viewBox="0 0 24 24" fill="none" xmlns="http://www.w3.org/2000/svg">
<g id="icons/Clothes/sorcerer-hat">
<path id="Union" d="M6.74414 3.34473C7.00914 3.03917 7.4327 2.92386 7.81641 3.05176L13.8164 5.05176L13.9189 5.0918C14.153 5.19976 14.3383 5.39482 14.4326 5.6377L18.2188 15.3848C19.4144 15.5586 20.4195 15.7899 21.1738 16.0762C21.6075 16.2407 22.0183 16.4459 22.3379 16.7119C22.6534 16.9748 23 17.4037 23 18C22.9999 18.5015 22.7416 18.8782 22.4961 19.1182C22.2522 19.3565 21.9456 19.5389 21.6416 19.6826C21.0284 19.9725 20.2049 20.207 19.2676 20.3945C17.3759 20.7729 14.8067 21 12 21C9.1933 21 6.62407 20.7729 4.73242 20.3945C3.7951 20.207 2.97157 19.9725 2.3584 19.6826C2.05436 19.5389 1.74782 19.3565 1.50391 19.1182C1.2584 18.8782 1.0001 18.5015 1 18C1 17.4037 1.34657 16.9748 1.66211 16.7119C1.9817 16.4459 2.39247 16.2407 2.82617 16.0762C3.56464 15.796 4.54349 15.569 5.70605 15.3965L7.93457 7.10645L6.60547 4.44727C6.42465 4.08564 6.47939 3.65026 6.74414 3.34473ZM9.89453 6.55273C10.0039 6.77164 10.0294 7.02345 9.96582 7.25977L7.46582 16.5566C7.36007 16.9494 7.02674 17.24 6.62305 17.29C5.23201 17.462 4.19688 17.6956 3.53613 17.9463C3.50911 17.9565 3.48305 17.9675 3.45801 17.9775C3.85583 18.1329 4.41319 18.2912 5.125 18.4336C6.85263 18.7791 9.28391 19 12 19C14.7161 19 17.1474 18.7791 18.875 18.4336C19.5863 18.2913 20.1433 18.1328 20.541 17.9775C20.5162 17.9676 20.4906 17.9564 20.4639 17.9463C19.8031 17.6956 18.768 17.462 17.377 17.29C17.0119 17.2448 16.7007 17.002 16.5674 16.6592L12.7363 6.79883L9.47363 5.71094L9.89453 6.55273Z" fill="#9E9E9E"/>
</g>
</svg>
