<svg width="24" height="24" viewBox="0 0 24 24" fill="none" xmlns="http://www.w3.org/2000/svg">
<g id="icons/Clothes/straw-hat">
<path id="Union" d="M12 5C15.2125 5 17.835 7.52476 17.9922 10.6982C19.2185 10.9992 20.2976 11.3979 21.1299 11.8896C22.0828 12.4527 22.9998 13.3165 23 14.5166C23 15.4165 22.4739 16.1304 21.8496 16.6445C21.2186 17.1642 20.3659 17.5875 19.4004 17.9238C17.4595 18.5998 14.8428 19 12 19C9.15723 19 6.54051 18.5998 4.59961 17.9238C3.63407 17.5875 2.78142 17.1642 2.15039 16.6445C1.52605 16.1304 1 15.4165 1 14.5166C1.0002 13.3165 1.91718 12.4527 2.87012 11.8896C3.70217 11.398 4.78091 10.9992 6.00684 10.6982C6.16401 7.52474 8.7875 5 12 5ZM7.19727 12.4805C5.76362 12.7693 4.63248 13.1722 3.8877 13.6123C3.08949 14.084 3.00026 14.4271 3 14.5166C3 14.5785 3.03416 14.7813 3.42188 15.1006C3.80278 15.4142 4.41409 15.7413 5.25781 16.0352C6.9362 16.6197 9.31992 17 12 17C14.6801 17 17.0638 16.6197 18.7422 16.0352C19.5859 15.7413 20.1972 15.4142 20.5781 15.1006C20.9658 14.7813 21 14.5785 21 14.5166C20.9997 14.4271 20.9105 14.084 20.1123 13.6123C19.3709 13.1742 18.2467 12.773 16.8223 12.4844C15.8951 13.1802 14.3407 14 12 14C9.65938 14 8.09621 13.1326 7.19336 12.4619L7.19727 12.4805ZM12 7C9.93905 7 8.2418 8.55867 8.02344 10.5615C8.25581 10.7589 8.55487 10.9936 8.93555 11.2158L9.57129 9.62891C9.77636 9.11623 10.3584 8.86642 10.8711 9.07129C11.3838 9.27636 11.6336 9.85839 11.4287 10.3711L10.8174 11.8965C11.1764 11.9597 11.5692 12 12 12C14.1411 12 15.3697 11.1344 15.9785 10.5889C15.7726 8.57293 14.0703 7 12 7Z" fill="#9E9E9E"/>
</g>
</svg>
