<svg width="24" height="24" viewBox="0 0 24 24" fill="none" xmlns="http://www.w3.org/2000/svg">
<g id="icons/Clothes/sun-hat">
<path id="Union" d="M17 3C18.1046 3 19 3.89544 19 5V9.82617C19.4806 11.1992 20.3975 12.9281 21.2393 14.3711C21.6691 15.108 22.0683 15.7538 22.3604 16.2148C22.5063 16.4452 22.6251 16.6292 22.707 16.7549C22.748 16.8177 22.7795 16.8662 22.8008 16.8984C22.8114 16.9145 22.82 16.9267 22.8252 16.9346C22.8266 16.9367 22.8273 16.9388 22.8281 16.9404C22.8736 17.0077 22.9091 17.0797 22.9365 17.1543C22.9409 17.166 22.9453 17.1776 22.9492 17.1895C22.9778 17.2772 22.9934 17.3681 22.9971 17.46C22.9975 17.4707 22.9989 17.4814 22.999 17.4922C22.9994 17.5369 22.9959 17.5815 22.9902 17.626C22.9889 17.6364 22.988 17.6468 22.9863 17.6572C22.9716 17.7504 22.9429 17.8414 22.9014 17.9287C22.8981 17.9356 22.895 17.9424 22.8916 17.9492C22.8699 17.9922 22.8448 18.0338 22.8164 18.0742C22.8125 18.0798 22.8087 18.0853 22.8047 18.0908C22.7928 18.107 22.7816 18.124 22.7686 18.1396C22.6738 18.2538 22.5949 18.3934 22.3701 18.7285C22.1768 19.0168 21.9201 19.3739 21.5713 19.7148C20.8402 20.4294 19.7811 21 18.2002 21C17.3457 21 16.4043 20.7423 15.4678 20.4521C14.5452 20.1663 13.5831 19.8361 12.4697 19.5303C12.3432 19.5673 12.2169 19.6047 12.0908 19.6416C11.3127 19.8695 10.5436 20.0948 9.81836 20.293C8.40268 20.6798 7.02846 21 6 21C4.36639 21 3.27053 20.4416 2.50684 19.7324C2.14149 19.3931 1.87081 19.0378 1.66699 18.749C1.43015 18.4135 1.34742 18.2729 1.24707 18.1582C0.949847 17.8182 0.917447 17.3211 1.16797 16.9453L1.16992 16.9434C1.1711 16.9416 1.1723 16.9383 1.1748 16.9346C1.18004 16.9267 1.18863 16.9145 1.19922 16.8984C1.22047 16.8662 1.25203 16.8177 1.29297 16.7549C1.37486 16.6292 1.49374 16.4452 1.63965 16.2148C1.93167 15.7538 2.33086 15.108 2.76074 14.3711C3.6025 12.9281 4.51939 11.1992 5 9.82617V5C5 3.89545 5.89541 3.00001 7 3H17ZM6.69824 11C6.12654 12.4526 5.2463 14.0811 4.48926 15.3789C4.04422 16.1418 3.6308 16.8088 3.3291 17.2852C3.28853 17.3492 3.24831 17.4088 3.21191 17.4658C3.24428 17.513 3.27477 17.5565 3.30176 17.5947C3.47287 17.8371 3.65039 18.0654 3.86816 18.2676C4.27113 18.6417 4.88391 19 6 19C6.72152 19 7.84736 18.7577 9.29102 18.3633C9.99538 18.1708 10.746 17.9508 11.5283 17.7217C12.3074 17.4935 13.1165 17.2575 13.9229 17.0361C15.5265 16.5959 17.1705 16.2013 18.624 16.0518C19.0392 16.0091 19.4605 15.9845 19.875 15.9883C19.7582 15.7934 19.6342 15.5906 19.5107 15.3789C18.7537 14.0811 17.8735 12.4526 17.3018 11H6.69824ZM20.4111 18.0195C19.9887 17.9737 19.4644 17.9767 18.8291 18.042C17.9936 18.1279 17.0594 18.3087 16.0713 18.5449C17.0185 18.838 17.6881 19 18.2002 19C19.2314 19 19.7957 18.6538 20.1729 18.2852C20.2585 18.2014 20.336 18.1117 20.4111 18.0195ZM7 9H17V5H7V9Z" fill="#9E9E9E"/>
</g>
</svg>
