<svg width="24" height="24" viewBox="0 0 24 24" fill="none" xmlns="http://www.w3.org/2000/svg">
<g id="icons/Clothes/sweater">
<path id="Union" d="M14.627 1.00781C14.7525 1.02387 14.874 1.06417 14.9854 1.12598L19.4854 3.62598L19.5713 3.67969C19.7643 3.8141 19.9046 4.01286 19.9658 4.24219L21.9658 11.7422C21.9882 11.8262 22 11.913 22 12V18.5C22 19.0523 21.5523 19.5 21 19.5H18V22C18 22.5523 17.5523 23 17 23H7C6.44772 23 6 22.5523 6 22V19.5H3C2.44772 19.5 2 19.0523 2 18.5V12L2.0127 11.8398C2.02128 11.7869 2.03476 11.7346 2.05176 11.6836L4.55176 4.18359L4.62012 4.02539C4.70195 3.87369 4.82195 3.74479 4.96973 3.65234L8.96973 1.15234C9.12866 1.05301 9.31258 1 9.5 1H14.5L14.627 1.00781ZM6.33398 5.15723L4 12.1611V17.5H6V14C6 13.4477 6.44772 13 7 13C7.55228 13 8 13.4477 8 14V21H16V14C16 13.4477 16.4477 13 17 13C17.5523 13 18 13.4477 18 14V17.5H20V12.1289L18.1426 5.16699L14.2412 3H9.78613L6.33398 5.15723Z" fill="#9E9E9E"/>
</g>
</svg>
