<svg width="24" height="24" viewBox="0 0 24 24" fill="none" xmlns="http://www.w3.org/2000/svg">
<g id="icons/Clothes/swimsuit">
<path id="Union" d="M18 14.5C18.5523 14.5 19 14.9477 19 15.5V18C19 18.5523 18.5523 19 18 19C17.488 19 16.4239 19.2919 15.4805 19.9023C14.5305 20.5171 14 21.2533 14 22C14 22.5523 13.5523 23 13 23H10.5C9.94772 23 9.5 22.5523 9.5 22C9.5 21.1851 9.01265 20.4499 8.2207 19.8691C7.41472 19.2781 6.49247 19 6 19C5.44772 19 5 18.5523 5 18V15.5C5 14.9477 5.44772 14.5 6 14.5H18ZM7 17.1289C7.79696 17.3192 8.66303 17.7123 9.4043 18.2559C10.2611 18.8842 11.0718 19.8077 11.374 21H12.1406C12.4922 19.7583 13.4566 18.8295 14.3945 18.2227C15.2187 17.6895 16.1667 17.3057 17 17.1221V16.5H7V17.1289ZM17 1C17.5523 1 18 1.44772 18 2V4.6123C20.0039 5.0671 21.5 6.85847 21.5 9C21.5 11.4853 19.4853 13.5 17 13.5C14.8585 13.5 13.0682 12.0038 12.6133 10H11.3867C10.9318 12.0038 9.14145 13.5 7 13.5C4.51472 13.5 2.5 11.4853 2.5 9C2.5 6.85847 3.9961 5.0671 6 4.6123V2C6 1.44772 6.44772 1 7 1C7.55228 1 8 1.44772 8 2V4.6123C9.68217 4.99408 11.0049 6.31786 11.3867 8H12.6133C12.9951 6.31786 14.3178 4.99408 16 4.6123V2C16 1.44772 16.4477 1 17 1ZM7 6.5C5.61929 6.5 4.5 7.61929 4.5 9C4.5 10.3807 5.61929 11.5 7 11.5C8.38071 11.5 9.5 10.3807 9.5 9C9.5 7.61929 8.38071 6.5 7 6.5ZM17 6.5C15.6193 6.5 14.5 7.61929 14.5 9C14.5 10.3807 15.6193 11.5 17 11.5C18.3807 11.5 19.5 10.3807 19.5 9C19.5 7.61929 18.3807 6.5 17 6.5Z" fill="#9E9E9E"/>
</g>
</svg>
