<svg width="24" height="24" viewBox="0 0 24 24" fill="none" xmlns="http://www.w3.org/2000/svg">
<g id="icons/Clothes/t-shirt">
<path id="Union" d="M15.1273 1.00781C15.2527 1.0239 15.3745 1.06423 15.4857 1.12598L19.9857 3.62598L20.0717 3.67969C20.2645 3.8141 20.405 4.01295 20.4662 4.24219L22.4662 11.7422C22.5713 12.1363 22.4262 12.555 22.1 12.7998L18.5004 15.499V22C18.5004 22.5522 18.0525 22.9998 17.5004 23H6.50037C5.94808 23 5.50037 22.5523 5.50037 22V15.499L1.90076 12.7998C1.57433 12.555 1.42941 12.1364 1.53455 11.7422L3.53455 4.24219L3.56482 4.14551C3.64815 3.92565 3.80759 3.74121 4.01501 3.62598L8.51501 1.12598L8.62927 1.07129C8.74685 1.02435 8.873 1 9.00037 1H15.0004L15.1273 1.00781ZM5.35681 5.16699L3.64001 11.6045L5.50037 13V12C5.50037 11.4477 5.94808 11 6.50037 11C7.05248 11.0002 7.50037 11.4478 7.50037 12V21H16.5004V12C16.5004 11.4477 16.9481 11 17.5004 11C18.0525 11.0002 18.5004 11.4478 18.5004 12V12.999L20.3597 11.6045L18.6429 5.16699L14.7416 3H9.25916L5.35681 5.16699Z" fill="#9E9E9E"/>
</g>
</svg>
