<svg width="24" height="24" viewBox="0 0 24 24" fill="none" xmlns="http://www.w3.org/2000/svg">
<g id="icons/Clothes/the-single-shoulder-bag">
<path id="Union" d="M12 1C12.6408 1 13.0625 1.41235 13.2891 1.71875C13.5269 2.04042 13.7048 2.44513 13.8447 2.85156C14.1287 3.67637 14.3458 4.77522 14.5117 5.95703C14.798 7.99667 14.952 10.435 14.9902 12.5H16.5C16.5417 12.5 16.5827 12.5029 16.623 12.5078L16.6328 12.5088C16.6423 12.5101 16.6517 12.5121 16.6611 12.5137C16.6812 12.5169 16.701 12.521 16.7207 12.5254C16.7364 12.529 16.7521 12.5328 16.7676 12.5371C16.8274 12.5537 16.8847 12.5757 16.9395 12.6025C16.9493 12.6073 16.9591 12.6121 16.9688 12.6172C17.0282 12.6488 17.0842 12.686 17.1357 12.7285L17.1475 12.7383C17.1532 12.7432 17.1584 12.7489 17.1641 12.7539C17.1833 12.7711 17.2018 12.789 17.2197 12.8076C17.2288 12.8171 17.2373 12.8271 17.2461 12.8369C17.2608 12.8535 17.2754 12.8701 17.2891 12.8877C17.2972 12.8981 17.3058 12.9082 17.3135 12.9189C17.3286 12.94 17.342 12.9621 17.3555 12.9844C17.3595 12.991 17.3643 12.9972 17.3682 13.0039C17.3696 13.0064 17.3707 13.0092 17.3721 13.0117C17.4109 13.081 17.4413 13.1552 17.4629 13.2334C17.4658 13.2438 17.4682 13.2542 17.4707 13.2646C17.489 13.3402 17.5 13.4188 17.5 13.5V22C17.5 22.5523 17.0523 23 16.5 23H7.5C6.94772 23 6.5 22.5523 6.5 22V13.5C6.5 13.4536 6.50365 13.408 6.50977 13.3633C6.51153 13.3506 6.51337 13.3379 6.51562 13.3252C6.53656 13.2065 6.57884 13.0954 6.6377 12.9951C6.63975 12.9916 6.64145 12.9879 6.64355 12.9844C6.64575 12.9807 6.64816 12.9772 6.65039 12.9736C6.66749 12.9461 6.68547 12.9192 6.70508 12.8936C6.71128 12.8854 6.7172 12.8771 6.72363 12.8691C6.77214 12.8095 6.82785 12.7561 6.88867 12.709C6.8964 12.703 6.90422 12.6972 6.91211 12.6914C6.93909 12.6718 6.96717 12.6536 6.99609 12.6367C7.00164 12.6335 7.00709 12.6301 7.0127 12.627C7.08079 12.5889 7.15373 12.5585 7.23047 12.5371C7.2411 12.5341 7.25194 12.5319 7.2627 12.5293C7.29377 12.5217 7.32528 12.5153 7.35742 12.5107C7.36298 12.5099 7.36845 12.5085 7.37402 12.5078C7.41528 12.5026 7.45733 12.5 7.5 12.5H9.00586C9.02608 10.4517 9.11326 8.01616 9.36426 5.97461C9.50974 4.79136 9.71777 3.67655 10.0254 2.83398C10.1778 2.4165 10.3781 1.99721 10.6592 1.66602C10.9497 1.32377 11.3973 1 12 1ZM14.7148 18.5068C14.5352 18.8123 14.2069 19 13.8525 19H9.88281C9.51244 19 9.17235 18.7951 8.99902 18.4678L8.5 17.5244V21H15.5V17.1719L14.7148 18.5068ZM10.4844 17H13.2812L14.752 14.5H9.16113L10.4844 17ZM11.9033 3.51953C11.6752 4.14426 11.4898 5.07817 11.3496 6.21875C11.1123 8.14938 11.0262 10.4911 11.0059 12.5H12.9893C12.9511 10.5075 12.8025 8.16799 12.5312 6.23535C12.371 5.09393 12.1743 4.14524 11.9531 3.50293C11.9464 3.48348 11.9382 3.46474 11.9316 3.44629C11.9225 3.46986 11.9126 3.49409 11.9033 3.51953Z" fill="#9E9E9E"/>
</g>
</svg>
