<svg width="24" height="24" viewBox="0 0 24 24" fill="none" xmlns="http://www.w3.org/2000/svg">
<g id="icons/Clothes/theme">
<path id="Union" d="M9.00012 2C9.55234 2.00008 10.0001 2.44776 10.0001 3C10.0001 4.10457 10.8956 5 12.0001 5C13.1046 4.99992 14.0001 4.10452 14.0001 3C14.0001 2.44772 14.4478 2 15.0001 2H17.7277L17.8517 2.00781C18.1378 2.04368 18.3975 2.20198 18.5597 2.44531L21.8322 7.35449C22.1126 7.77526 22.0344 8.33886 21.6505 8.66797L19.1368 10.8232V21C19.1368 21.5521 18.6889 21.9997 18.1368 22H5.8634C5.31129 21.9998 4.8634 21.5522 4.8634 21V10.8232L2.34973 8.66797C1.96576 8.33885 1.8876 7.77529 2.16809 7.35449L5.44055 2.44531C5.62597 2.16723 5.93837 2.0001 6.27258 2H9.00012ZM4.32336 7.72559L6.51477 9.60449C6.73617 9.79439 6.8633 10.0716 6.8634 10.3633V20H17.1368V10.3633C17.1369 10.0716 17.264 9.79439 17.4855 9.60449L19.6759 7.72559L17.1925 4H15.8741C15.4301 5.72519 13.8639 6.99994 12.0001 7C10.1363 7 8.57015 5.72522 8.1261 4H6.80774L4.32336 7.72559Z" fill="#9E9E9E"/>
</g>
</svg>
