<svg width="24" height="24" viewBox="0 0 24 24" fill="none" xmlns="http://www.w3.org/2000/svg">
<g id="icons/Clothes/three-d-glasses">
<path id="Union" d="M15.6394 3.04297C15.8917 2.55202 16.4949 2.35848 16.9861 2.61035L19.4812 3.8916L19.5564 3.93457C19.7277 4.04217 19.8637 4.19963 19.9441 4.38672L23.7859 13.3408C23.8881 13.5553 23.947 13.7945 23.947 14.0479C23.947 14.092 23.9452 14.1346 23.9421 14.1748V14.1777L23.4783 20.0332C23.4106 20.8898 22.6958 21.5507 21.8367 21.5508H15.1052C14.2463 21.5504 13.5314 20.8895 13.4636 20.0332L13.322 18.25H10.6785L10.5369 20.0332C10.469 20.8896 9.75442 21.5507 8.89526 21.5508H2.16382C1.30489 21.5504 0.590019 20.8895 0.522217 20.0332L0.0583496 14.1777C0.0340354 13.8701 0.097562 13.5762 0.225342 13.3184C0.227698 13.3126 0.229705 13.3065 0.232178 13.3008L4.05933 4.38672L4.09741 4.30762C4.19301 4.12964 4.34129 3.9845 4.52222 3.8916L7.01733 2.61035C7.50848 2.35827 8.11164 2.55206 8.36401 3.04297C8.61614 3.53419 8.42247 4.13735 7.9314 4.38965L5.75464 5.50586L2.79565 12.4004H9.35913C10.2685 12.4006 11.0055 13.1384 11.0056 14.0479C11.0056 14.0901 11.0042 14.1336 11.0007 14.1777L10.8367 16.25H13.1638L12.9998 14.1777C12.9281 13.2712 13.6053 12.4775 14.5115 12.4053H14.5144C14.5549 12.4022 14.5981 12.4004 14.6423 12.4004H21.2058L18.2478 5.50684L16.072 4.38965C15.5812 4.13727 15.3873 3.5341 15.6394 3.04297ZM2.49097 19.5508H8.56909L8.97632 14.4004H2.08276L2.49097 19.5508ZM15.4324 19.5508H21.5095L21.9177 14.4004H15.0242L15.4324 19.5508Z" fill="#9E9E9E"/>
</g>
</svg>
