<svg width="24" height="24" viewBox="0 0 24 24" fill="none" xmlns="http://www.w3.org/2000/svg">
<g id="icons/Clothes/trousers-bell-bottoms">
<path id="Union" d="M14.9995 1C15.4583 1 15.8579 1.3127 15.9692 1.75781L16.9692 5.75781C16.989 5.83706 16.9995 5.91832 16.9995 6V11.8818L18.9731 20.2705C19.0159 20.4522 19.0052 20.6337 18.9526 20.7998C18.9475 20.8162 18.942 20.8325 18.936 20.8486C18.9204 20.8903 18.9022 20.9306 18.8813 20.9697C18.8424 21.0427 18.7945 21.1104 18.7388 21.1719C18.7066 21.2073 18.6715 21.2399 18.6343 21.2705C18.5731 21.321 18.5065 21.3662 18.4331 21.4014C18.3731 21.4301 18.3087 21.453 18.2417 21.4697L12.2417 22.9697C12.2382 22.9706 12.2345 22.9708 12.231 22.9717C12.1986 22.9793 12.1658 22.9848 12.1323 22.9893C12.1274 22.9899 12.1226 22.9916 12.1177 22.9922C12.079 22.9967 12.0394 23 11.9995 23C11.9588 23 11.9188 22.9969 11.8794 22.9922C11.8764 22.9918 11.8736 22.9906 11.8706 22.9902C11.8381 22.986 11.8063 22.9799 11.7749 22.9727C11.7693 22.9714 11.7629 22.9711 11.7573 22.9697L5.75732 21.4697C5.69048 21.453 5.62675 21.4301 5.56689 21.4014C5.49345 21.3662 5.42694 21.321 5.36572 21.2705C5.32834 21.2397 5.29256 21.2075 5.26025 21.1719C5.20466 21.1106 5.15747 21.0425 5.11865 20.9697C5.09771 20.9305 5.0786 20.8904 5.06299 20.8486C5.05699 20.8325 5.05156 20.8162 5.04639 20.7998C4.99387 20.6338 4.98318 20.4521 5.02588 20.2705L6.99951 11.8818V6L7.00732 5.87793C7.0123 5.83752 7.01991 5.79739 7.02979 5.75781L8.02979 1.75781L8.08447 1.59668C8.2419 1.23907 8.59837 1.00019 8.99951 1H14.9995ZM8.99951 6.12109V12C8.99951 12.0771 8.99081 12.1544 8.97314 12.2295L7.19873 19.7695L10.9995 20.7197V8C10.9995 7.44787 11.4474 7.00026 11.9995 7C12.5518 7 12.9995 7.44772 12.9995 8V20.7188L16.7993 19.7695L15.0259 12.2295C15.0082 12.1545 14.9995 12.0771 14.9995 12V6.12109L14.2192 3H9.77979L8.99951 6.12109Z" fill="#9E9E9E"/>
</g>
</svg>
