<svg width="24" height="24" viewBox="0 0 24 24" fill="none" xmlns="http://www.w3.org/2000/svg">
<g id="icons/Clothes/trunk">
<path id="Union" d="M16 1C16.5523 1 17 1.44772 17 2C17 2.55228 16.5523 3 16 3H15V5H16C17.6569 5 19 6.34315 19 8V18C19 19.6569 17.6569 21 16 21V22C16 22.5523 15.5523 23 15 23C14.4477 23 14 22.5523 14 22V21H10V22C10 22.5523 9.55228 23 9 23C8.44772 23 8 22.5523 8 22V21C6.34315 21 5 19.6569 5 18V8C5 6.34315 6.34315 5 8 5H9V3H8C7.44772 3 7 2.55228 7 2C7 1.44772 7.44772 1 8 1H16ZM8 7C7.44772 7 7 7.44772 7 8V18C7 18.5523 7.44772 19 8 19H16C16.5523 19 17 18.5523 17 18V8C17 7.44772 16.5523 7 16 7H8ZM14 11.5C14.5523 11.5 15 11.9477 15 12.5C15 13.0523 14.5523 13.5 14 13.5H10C9.44772 13.5 9 13.0523 9 12.5C9 11.9477 9.44772 11.5 10 11.5H14ZM11 5H13V3H11V5Z" fill="#9E9E9E"/>
</g>
</svg>
