<svg width="24" height="24" viewBox="0 0 24 24" fill="none" xmlns="http://www.w3.org/2000/svg">
<g id="icons/Clothes/vest">
<path id="Union" d="M8.5 1C8.92494 1 9.30396 1.26884 9.44434 1.66992L12 8.97168L14.5557 1.66992C14.696 1.26884 15.0751 1 15.5 1H18C18.5523 1 19 1.44772 19 2V6.19727L20.832 8.94531C20.9415 9.10958 21 9.30258 21 9.5V22C21 22.5523 20.5523 23 20 23H4C3.44772 23 3 22.5523 3 22V9.5C3 9.30258 3.05846 9.10958 3.16797 8.94531L5 6.19727V2L5.00488 1.89746C5.05621 1.39333 5.48232 1 6 1H8.5ZM7 6.5C7 6.69742 6.94154 6.89042 6.83203 7.05469L5 9.80273V21H11V12.1709L7.79004 3H7V6.5ZM13 12.1709V21H19V9.80273L17.168 7.05469C17.0585 6.89042 17 6.69742 17 6.5V3H16.21L13 12.1709Z" fill="#9E9E9E"/>
</g>
</svg>
