<svg width="24" height="24" viewBox="0 0 24 24" fill="none" xmlns="http://www.w3.org/2000/svg">
<g id="icons/Clothes/women-coat">
<path id="Union" d="M14.5172 1.00098C14.55 1.00155 14.5829 1.00296 14.6158 1.00684C14.6223 1.00759 14.6289 1.00791 14.6354 1.00879C14.6702 1.01359 14.7051 1.02066 14.7399 1.0293C14.7647 1.03544 14.7889 1.04376 14.8131 1.05176C14.8205 1.05421 14.8282 1.05596 14.8356 1.05859C14.8398 1.06009 14.8441 1.06193 14.8483 1.06348C14.8701 1.07158 14.8916 1.08026 14.9127 1.08984C14.9318 1.09848 14.9501 1.10847 14.9684 1.11816C14.9818 1.12527 14.9954 1.13194 15.0084 1.13965C15.0413 1.15902 15.0732 1.1795 15.1031 1.20215C15.112 1.20883 15.1199 1.21666 15.1285 1.22363C15.1494 1.24055 15.1698 1.25795 15.1891 1.27637C15.2014 1.2881 15.2135 1.30011 15.2252 1.3125C15.2403 1.32847 15.2542 1.34544 15.2682 1.3623C15.2787 1.37493 15.2895 1.38721 15.2994 1.40039C15.3213 1.42959 15.3415 1.4599 15.36 1.49121C15.3618 1.49424 15.3641 1.49695 15.3658 1.5L15.3649 1.49902L15.3658 1.50098C15.3673 1.50347 15.3706 1.50798 15.3746 1.51465C15.383 1.52866 15.3968 1.55192 15.4156 1.58203C15.4537 1.64292 15.5128 1.73412 15.5895 1.8457C15.7439 2.07034 15.9682 2.37274 16.2457 2.68359C16.7954 3.29919 17.4381 3.81631 18.0699 3.98926L18.1959 4.01953L18.3297 4.05566C18.6337 4.16186 18.8715 4.41052 18.9615 4.72559L21.9615 15.2256C22.0476 15.5272 21.9873 15.8521 21.7985 16.1025C21.6095 16.353 21.3134 16.5 20.9996 16.5H17.9996V22C17.9996 22.5523 17.5519 23 16.9996 23H6.99963C6.4475 22.9998 5.99963 22.5522 5.99963 22V16.5H2.99963C2.68597 16.4999 2.3897 16.353 2.20081 16.1025C2.01204 15.8522 1.95173 15.5271 2.03772 15.2256L5.03772 4.72559L5.08264 4.60059C5.20552 4.31836 5.45408 4.10622 5.75745 4.03027C6.46569 3.85313 7.17477 3.2827 7.7594 2.63965C8.03855 2.33258 8.26393 2.03724 8.41858 1.81934C8.49535 1.71115 8.55434 1.6232 8.59241 1.56445C8.61117 1.53548 8.62498 1.51355 8.63342 1.5C8.63744 1.49354 8.64067 1.48884 8.64221 1.48633L8.69495 1.40723C8.69922 1.40141 8.70324 1.39538 8.70764 1.38965C8.71401 1.38139 8.72057 1.37327 8.72717 1.36523C8.74859 1.33911 8.77239 1.31497 8.79651 1.29102C8.80092 1.28664 8.80472 1.28164 8.8092 1.27734C8.86492 1.22404 8.92726 1.17661 8.99573 1.13672C9.00842 1.12929 9.02178 1.12308 9.03479 1.11621C9.05428 1.10598 9.07398 1.09594 9.09436 1.08691C9.11115 1.07944 9.12794 1.07198 9.14514 1.06543C9.15129 1.0631 9.15748 1.06082 9.1637 1.05859C9.1746 1.0547 9.18596 1.05134 9.1969 1.04785C9.21787 1.04115 9.23893 1.03461 9.26038 1.0293C9.29611 1.02043 9.33198 1.01361 9.3678 1.00879C9.37104 1.00836 9.37432 1.00821 9.37756 1.00781C9.41214 1.00351 9.44669 1.00163 9.48108 1.00098C9.48726 1.00086 9.49344 1 9.49963 1H14.4996C14.5054 1 14.5115 1.00088 14.5172 1.00098ZM12.9996 9.1709V21H15.9996V15.5C15.9996 14.9478 16.4475 14.5002 16.9996 14.5H19.6735L17.1881 5.80273C16.1853 5.4276 15.3728 4.69462 14.816 4.08301L12.9996 9.1709ZM9.17249 4.05664C8.61078 4.66227 7.8029 5.38137 6.81604 5.78027L4.32581 14.5H6.99963C7.55192 14.5 7.99963 14.9477 7.99963 15.5V21H10.9996V9.17188L9.17249 4.05664ZM11.9996 6.02734L13.0807 3H10.9186L11.9996 6.02734Z" fill="#9E9E9E"/>
</g>
</svg>
