<svg width="24" height="24" viewBox="0 0 24 24" fill="none" xmlns="http://www.w3.org/2000/svg">
<g id="icons/Clothes/woolen-hat">
<path id="Union" d="M12 1C13.6569 1 15 2.34315 15 4C15 4.4749 14.8859 4.92218 14.6895 5.32129C15.54 5.54217 16.2929 5.87169 16.9551 6.29785C18.2436 7.12717 19.1217 8.2741 19.7158 9.52344C20.7062 11.6061 20.939 14.0464 20.9873 16H21C22.1046 16 23 16.8954 23 18V21C23 22.1046 22.1046 23 21 23H3C1.89543 23 1 22.1046 1 21V18C1 16.8954 1.89543 16 3 16H3.0127C3.06103 14.0464 3.29384 11.6061 4.28418 9.52344C4.87829 8.2741 5.75639 7.12717 7.04492 6.29785C7.70685 5.87184 8.45937 5.54217 9.30957 5.32129C9.11324 4.92227 9 4.47474 9 4C9 2.34315 10.3431 1 12 1ZM3 21H21V18H3V21ZM12 7C10.2821 7 9.04015 7.39175 8.12695 7.97949C7.21245 8.56811 6.55919 9.39785 6.09082 10.3828C5.28393 12.0797 5.06433 14.1562 5.01465 16H6.5V13C6.5 12.4477 6.94772 12 7.5 12C8.05228 12 8.5 12.4477 8.5 13V16H11V13C11 12.4477 11.4477 12 12 12C12.5523 12 13 12.4477 13 13V16H15.5V13C15.5 12.4477 15.9477 12 16.5 12C17.0523 12 17.5 12.4477 17.5 13V16H18.9854C18.9357 14.1562 18.7161 12.0797 17.9092 10.3828C17.4408 9.39785 16.7875 8.56811 15.873 7.97949C14.9599 7.39175 13.7179 7 12 7ZM12 3C11.4477 3 11 3.44772 11 4C11 4.55228 11.4477 5 12 5C12.5523 5 13 4.55228 13 4C13 3.44772 12.5523 3 12 3Z" fill="#9E9E9E"/>
</g>
</svg>
