<svg width="24" height="24" viewBox="0 0 24 24" fill="none" xmlns="http://www.w3.org/2000/svg">
<g id="icons/Travels/acceleration">
<path id="Union" d="M15.4999 20C16.0522 20 16.4999 20.4477 16.4999 21C16.4999 21.5523 16.0522 22 15.4999 22H13.4999C12.9477 22 12.4999 21.5523 12.4999 21C12.4999 20.4477 12.9477 20 13.4999 20H15.4999ZM9.48334 6.01172C9.63509 6.03523 9.78057 6.09331 9.90717 6.18262L15.3173 10H18.9999C19.2339 10 19.4609 10.0817 19.6406 10.2314L22.6406 12.7314C22.9639 13.001 23.0837 13.445 22.9404 13.8408C22.797 14.2365 22.4208 14.5 21.9999 14.5H15.3954L9.28412 20.2295C9.09877 20.4032 8.8536 20.5 8.59955 20.5H6.99994C6.675 20.5 6.36992 20.3416 6.18256 20.0762C5.9955 19.8108 5.94881 19.471 6.05756 19.165L7.71674 14.5H5.99994C5.53555 14.5 5.14734 14.2822 4.89349 14.1045C4.61696 13.9109 4.3518 13.6593 4.11029 13.3984C3.62488 12.874 3.131 12.199 2.69916 11.5586C2.26305 10.9118 1.86969 10.269 1.58685 9.79004C1.44502 9.54984 1.3299 9.34915 1.24994 9.20801C1.20996 9.13745 1.17866 9.08156 1.15717 9.04297C1.14644 9.02371 1.13849 9.00844 1.13275 8.99805C1.12998 8.99303 1.12748 8.98916 1.12592 8.98633C1.12513 8.9849 1.12442 8.98325 1.12396 8.98242V8.98145H1.12299C0.953036 8.67164 0.959586 8.29431 1.13959 7.99023C1.31964 7.68636 1.64671 7.50001 1.99994 7.5H3.99994C4.23387 7.5 4.46085 7.58169 4.64056 7.73145L7.36322 10H8.05658L7.06342 7.35156C6.94831 7.0446 6.99107 6.70018 7.17767 6.43066C7.36448 6.1611 7.67197 6.00001 7.99994 6H9.33002L9.48334 6.01172ZM20.9999 16.5C21.5522 16.5 21.9999 16.9477 21.9999 17.5C21.9999 18.0523 21.5522 18.5 20.9999 18.5H16.9999C16.4477 18.5 15.9999 18.0523 15.9999 17.5C15.9999 16.9477 16.4477 16.5 16.9999 16.5H20.9999ZM8.5224 18.2012L12.4716 14.5H9.83881L8.5224 18.2012ZM4.35736 10.4414C4.7682 11.0507 5.1958 11.626 5.57806 12.0391C5.77044 12.2469 5.92691 12.386 6.04095 12.4658C6.06409 12.482 6.08367 12.4918 6.0976 12.5H19.2372L18.6367 12H6.99994C6.76602 12 6.53902 11.9183 6.35931 11.7686L3.87396 9.69727C4.02612 9.9384 4.18827 10.1906 4.35736 10.4414ZM10.1933 10H11.8476L9.5976 8.41211L10.1933 10ZM19.5107 1.5C20.6808 1.5 21.5581 2.16319 22.037 2.98145C22.5017 3.7757 22.6485 4.80429 22.3085 5.70898C21.9493 6.66463 21.1692 7.10667 20.6005 7.30273C20.3122 7.40209 20.0482 7.45059 19.8574 7.47461C19.7606 7.48678 19.6787 7.49273 19.6181 7.49609L19.5165 7.5H19.5009C19.5005 7.49955 19.4999 7.47851 19.4999 6.5V7.5H14.4999C14.0095 7.49998 13.5912 7.14427 13.5126 6.66016C13.4341 6.17617 13.7185 5.70696 14.1835 5.55176L14.1913 5.54883C14.199 5.54619 14.2119 5.54205 14.2285 5.53613C14.262 5.52415 14.3117 5.50587 14.372 5.48242C14.4951 5.43454 14.6519 5.36834 14.8027 5.29297C14.88 5.25428 14.945 5.21761 14.998 5.18555C14.9986 4.98056 15.0074 4.72017 15.0536 4.48047C15.142 4.02268 15.3921 3.43554 16.0536 3.10547L16.2656 3.01465C16.6157 2.88818 16.9739 2.86412 17.2617 2.87402C17.273 2.84973 17.2835 2.8243 17.2958 2.7998C17.4503 2.4932 17.6977 2.15726 18.0859 1.90039C18.4799 1.63969 18.9597 1.50006 19.5107 1.5ZM19.5107 3.5C19.3067 3.50005 19.2202 3.54798 19.1894 3.56836C19.1527 3.59264 19.1164 3.63191 19.082 3.7002C19.0456 3.77251 19.0222 3.85711 19.0097 3.93164L18.9999 4.00684L18.9931 4.11816C18.9607 4.39046 18.8171 4.63976 18.5937 4.80469C18.3384 4.99307 18.0083 5.04949 17.705 4.95605V4.95508C17.7025 4.95437 17.6985 4.95428 17.6943 4.95312C17.6788 4.94889 17.6529 4.94146 17.6191 4.93359C17.5497 4.91745 17.4534 4.8982 17.3476 4.88574C17.2395 4.87303 17.1388 4.86933 17.0556 4.87598C17.0397 4.87725 17.0258 4.88018 17.0136 4.88184C17.005 4.93606 16.9985 5.00955 16.997 5.11035C16.9962 5.16656 16.9971 5.22513 16.998 5.29102C16.9988 5.35251 16.9999 5.42908 16.9999 5.5H19.4902C19.4918 5.49996 19.498 5.49956 19.5078 5.49902C19.5277 5.49791 19.5624 5.49589 19.6074 5.49023C19.7004 5.47854 19.8235 5.4554 19.9492 5.41211C20.2092 5.32246 20.3661 5.19207 20.4365 5.00488C20.5388 4.73182 20.51 4.33173 20.3115 3.99219C20.1268 3.67657 19.8514 3.5 19.5107 3.5Z" fill="#9E9E9E"/>
</g>
</svg>
