<svg width="24" height="24" viewBox="0 0 24 24" fill="none" xmlns="http://www.w3.org/2000/svg">
<g id="icons/Travels/airplane-window">
<path id="Union" d="M12 1C16.142 1 19.5491 4.14777 19.959 8.18164C19.9608 8.19981 19.9612 8.21813 19.9629 8.23633C19.9859 8.32048 20 8.40856 20 8.5C20 8.54441 19.9958 8.58798 19.9902 8.63086C19.9958 8.75323 20 8.87626 20 9V15.5C20 15.6238 19.9962 15.7468 19.9902 15.8691C20.0083 16.0073 19.9976 16.1468 19.959 16.2793C19.5691 20.0552 16.3789 23 12.5 23C12.4549 23 12.4107 22.996 12.3672 22.9902C12.2455 22.9957 12.1231 23 12 23C11.8766 23 11.7539 22.9958 11.6318 22.9902C11.5886 22.9959 11.5447 23 11.5 23C7.35787 23 4 19.6421 4 15.5V9C4 8.8766 4.00326 8.75387 4.00879 8.63184C4.00311 8.58869 4 8.5447 4 8.5C4 8.40724 4.01347 8.31766 4.03711 8.23242C4.03872 8.21551 4.0393 8.19852 4.04102 8.18164C4.45087 4.14777 7.85799 1 12 1ZM6 11.9463C6.15279 11.9447 6.31513 11.9458 6.48242 11.9512C6.90354 11.9648 7.38753 12.0057 7.84082 12.1104C8.26676 12.2087 8.80758 12.3936 9.20703 12.793C9.67201 13.258 9.89726 13.7639 9.99316 14.2129C10.4833 14.2482 10.997 14.3288 11.4502 14.5195C11.8725 14.6974 12.2842 14.9838 12.5801 15.4375C12.8739 15.8883 12.9999 16.4216 13 17C12.9997 18.2172 12.046 18.9901 11.1895 19.3057C10.6988 19.4864 10.1264 19.5682 9.55371 19.502C9.47702 19.7107 9.37449 19.9177 9.22656 20.1074C9.18654 20.1587 9.14296 20.2058 9.09961 20.252C9.95942 20.7278 10.9477 21 12 21C14.5166 21 16.6696 19.4499 17.5605 17.2529C17.5067 17.2424 17.4524 17.2312 17.3984 17.2168C16.816 17.0615 16.322 16.7009 15.9609 16.165C15.4088 16.234 14.8531 16.1683 14.3584 15.9375C13.5372 15.5543 13.0002 14.7627 13 13.75C13.0002 12.3547 13.9973 11.4516 15.082 11.3223C15.209 10.9253 15.4601 10.4915 15.9453 10.168L16.1201 10.0664C16.533 9.85684 16.971 9.84302 17.2939 9.87109C17.5382 9.89236 17.7786 9.94416 18 10.0059V9.5H6V11.9463ZM6 15C6 16.5129 6.56138 17.8938 7.48535 18.9492C7.51396 18.9418 7.53858 18.9361 7.55859 18.9287C7.63067 18.9019 7.64646 18.8799 7.64844 18.877C7.6752 18.8425 7.74995 18.6945 7.75 18.1846C7.75007 17.8178 7.9511 17.4805 8.27344 17.3057C8.59618 17.1309 8.9895 17.1471 9.29688 17.3477C9.60427 17.5478 10.0741 17.5849 10.498 17.4287C10.9516 17.2616 10.9995 17.0342 11 17C10.9999 16.7114 10.9384 16.5827 10.9043 16.5303C10.8722 16.481 10.8143 16.4221 10.6748 16.3633C10.3301 16.2181 9.7888 16.1846 9 16.1846C8.67788 16.1846 8.37534 16.0292 8.1875 15.7676C8.02331 15.5385 7.96447 15.2518 8.02148 14.9795L8.04883 14.8779C8.04761 14.8816 8.04565 14.8853 8.04492 14.8877C8.04358 14.8923 8.04304 14.8952 8.04297 14.8955C8.04297 14.8955 8.04545 14.8866 8.04785 14.8721C8.05298 14.8406 8.05778 14.7866 8.05273 14.7207C8.04352 14.6024 8.00066 14.4159 7.79297 14.208C7.78683 14.2033 7.76164 14.1845 7.70605 14.1592C7.63228 14.1257 7.52787 14.0912 7.39062 14.0596C7.11281 13.9955 6.7717 13.9616 6.41797 13.9502C6.27406 13.9456 6.13316 13.9458 6 13.9473V15ZM17.0205 11.8643C16.9957 11.8941 16.9733 11.9426 16.9639 12.0371C16.9572 12.1043 16.96 12.1713 16.9658 12.2217C16.9686 12.2454 16.9722 12.2631 16.9736 12.2705V12.2725C16.9734 12.2715 16.9731 12.2695 16.9727 12.2676L16.9961 12.4092C17.0281 12.7611 16.8712 13.1093 16.5762 13.3174C16.2386 13.5552 15.789 13.561 15.4453 13.332C15.415 13.3119 15.3143 13.284 15.1924 13.3496C15.1408 13.3775 15.0966 13.4182 15.0645 13.4717C15.0339 13.5228 15.0001 13.6094 15 13.75C15.0001 13.891 15.0337 13.9678 15.0586 14.0068C15.0842 14.0469 15.1272 14.0891 15.2041 14.125C15.3707 14.2027 15.7021 14.2429 16.1289 14.0723L16.2256 14.0391C16.4552 13.9735 16.7022 13.9913 16.9209 14.0928C17.1707 14.2087 17.3612 14.4234 17.4482 14.6846C17.6119 15.1749 17.8271 15.261 17.9141 15.2842C17.9382 15.2906 17.9646 15.2917 17.9922 15.2939C17.9969 15.1965 18 15.0986 18 15V12.123C17.9054 12.0826 17.8031 12.0429 17.6982 12.0059C17.4731 11.9264 17.2725 11.8775 17.1201 11.8643C17.0734 11.8602 17.0412 11.8632 17.0205 11.8643ZM12 3C9.20419 3 6.85449 4.91209 6.18848 7.5H17.8115C17.7869 7.4043 17.7596 7.30961 17.7305 7.21582C16.9708 4.77336 14.6924 3 12 3ZM13 4.5C13.5523 4.5 14 4.94772 14 5.5C14 6.05228 13.5523 6.5 13 6.5H11C10.4477 6.5 10 6.05228 10 5.5C10 4.94772 10.4477 4.5 11 4.5H13Z" fill="#9E9E9E"/>
</g>
</svg>
