<svg width="24" height="24" viewBox="0 0 24 24" fill="none" xmlns="http://www.w3.org/2000/svg">
<g id="icons/Travels/airplane-window-one">
<path id="Union" d="M14.5 21C15.0523 21 15.5 21.4477 15.5 22C15.5 22.5523 15.0523 23 14.5 23H10.5C9.94772 23 9.5 22.5523 9.5 22C9.5 21.4477 9.94772 21 10.5 21H14.5ZM17.4619 3.60059C17.8193 2.2669 19.1908 1.47566 20.5244 1.83301C21.7744 2.16828 22.5485 3.3938 22.3457 4.64453L22.292 4.89453L19.2461 16.2588C19.2007 16.4279 19.1135 16.5745 19 16.6924V19C19 19.5523 18.5523 20 18 20H6.5C5.11927 20 4 18.8807 4 17.5C4 16.1193 5.11927 15 6.5 15H14.4072L17.4619 3.60059ZM6.5 17C6.22383 17 6 17.2238 6 17.5C6 17.7762 6.22383 18 6.5 18H17V17H6.5ZM20.0059 3.76465C19.7392 3.69344 19.465 3.85158 19.3936 4.11816L16.4775 15H17.5127L20.3604 4.37695C20.4318 4.11032 20.2726 3.83618 20.0059 3.76465ZM5.5 1C7.433 1 9 2.567 9 4.5V9.5C9 11.433 7.433 13 5.5 13C3.567 13 2 11.433 2 9.5V4.5C2 2.567 3.567 1 5.5 1ZM4 9.5C4 10.3284 4.67157 11 5.5 11C6.32843 11 7 10.3284 7 9.5V8H4V9.5ZM5.5 3C4.67157 3 4 3.67157 4 4.5V6H7V4.5C7 3.67157 6.32843 3 5.5 3Z" fill="#9E9E9E"/>
</g>
</svg>
