<svg width="24" height="24" viewBox="0 0 24 24" fill="none" xmlns="http://www.w3.org/2000/svg">
<g id="icons/Travels/airplane">
<path id="Union" d="M11.7002 1.0459C11.9277 0.974398 12.1744 0.986779 12.3955 1.08203C13.3205 1.48073 14.75 2.83131 14.75 5.26855V8.57031L22.1406 14.7314C22.3685 14.9214 22.5 15.2033 22.5 15.5V17.5C22.5 17.8465 22.3202 18.1684 22.0254 18.3506C21.7306 18.5326 21.3626 18.5495 21.0527 18.3945L14.5 15.1182V17.7129L16.8477 21.4697C17.0747 21.8331 17.0455 22.3011 16.7744 22.6328C16.5031 22.9645 16.0497 23.087 15.6484 22.9365L12 21.5684L8.35156 22.9365C7.95028 23.087 7.49691 22.9645 7.22559 22.6328C6.9545 22.3011 6.9253 21.8331 7.15234 21.4697L9.5 17.7129V15.1182L2.94727 18.3945C2.63738 18.5495 2.26937 18.5326 1.97461 18.3506C1.67982 18.1684 1.50004 17.8465 1.5 17.5V15.5C1.5 15.2033 1.63147 14.9214 1.85938 14.7314L9.25 8.57031V5.26855C9.25002 2.83131 10.6795 1.48073 11.6045 1.08203L11.7002 1.0459ZM12 3.21289C11.6587 3.55467 11.25 4.20257 11.25 5.26855V9.04004C11.25 9.33673 11.1185 9.61862 10.8906 9.80859L3.76074 15.751L10.0527 12.6055C10.3626 12.4505 10.7306 12.4673 11.0254 12.6494C11.3202 12.8316 11.5 13.1534 11.5 13.5V18C11.5 18.1874 11.447 18.3714 11.3477 18.5303L10.4121 20.0264L11.6484 19.5635C11.8748 19.4786 12.1252 19.4786 12.3516 19.5635L13.5869 20.0264L12.6523 18.5303C12.553 18.3714 12.5 18.1874 12.5 18V13.5C12.5 13.1534 12.6798 12.8316 12.9746 12.6494C13.2694 12.4673 13.6374 12.4505 13.9473 12.6055L20.2383 15.751L13.1094 9.80859C12.8815 9.61862 12.75 9.33673 12.75 9.04004V5.26855C12.75 4.20257 12.3413 3.55467 12 3.21289Z" fill="#9E9E9E"/>
</g>
</svg>
