<svg width="24" height="24" viewBox="0 0 24 24" fill="none" xmlns="http://www.w3.org/2000/svg">
<g id="icons/Travels/anchor-two">
<path id="Union" d="M12 1C13.933 1 15.5 2.567 15.5 4.5C15.5 6.08534 14.4455 7.4231 13 7.85352V20.9424C17.1712 20.4811 20.4821 17.1714 20.9434 13H19C18.4477 13 18 12.5523 18 12C18 11.4477 18.4477 11 19 11H22C22.5523 11 23 11.4477 23 12C23 18.0751 18.0751 23 12 23C5.92487 23 1 18.0751 1 12C1 11.4477 1.44772 11 2 11H5C5.55228 11 6 11.4477 6 12C6 12.5523 5.55228 13 5 13H3.05664C3.51786 17.1714 6.82881 20.4811 11 20.9424V7.85352C9.55448 7.4231 8.5 6.08534 8.5 4.5C8.5 2.567 10.067 1 12 1ZM12 3C11.1716 3 10.5 3.67158 10.5 4.5C10.5 5.32842 11.1716 6 12 6C12.8284 6 13.5 5.32842 13.5 4.5C13.5 3.67158 12.8284 3 12 3Z" fill="#9E9E9E"/>
</g>
</svg>
