<svg width="24" height="24" viewBox="0 0 24 24" fill="none" xmlns="http://www.w3.org/2000/svg">
<g id="icons/Travels/aviation">
<path id="Union" d="M9.50012 13C10.6928 13 11.8174 13.1795 12.6798 13.5029C13.1072 13.6632 13.5223 13.8786 13.8488 14.168C14.1741 14.4565 14.5001 14.9043 14.5001 15.5C14.5001 16.0957 14.1741 16.5435 13.8488 16.832C13.5223 17.1214 13.1072 17.3368 12.6798 17.4971C11.8174 17.8205 10.6928 18 9.50012 18C8.94784 18 8.50012 17.5523 8.50012 17V14C8.50012 13.4477 8.94784 13 9.50012 13ZM20.1173 5.00684C20.3887 5.03887 20.6377 5.18136 20.8029 5.40332C20.9912 5.65679 21.0488 5.98459 20.9581 6.28711L19.8439 10H22.0001C22.4045 10 22.7692 10.2436 22.924 10.6172C23.0787 10.9908 22.9931 11.421 22.7072 11.707L18.7072 15.707C18.5196 15.8945 18.2653 16 18.0001 16H16.2501C15.6978 16 15.2501 15.5523 15.2501 15C15.2501 14.4477 15.6978 14 16.2501 14H17.5861L19.5861 12H5.50012C5.39206 12 5.28676 12.0349 5.20032 12.0996L3.88684 13.084L5.58997 13.9463C5.65981 13.9816 5.73718 14 5.81555 14H6.50012C7.05235 14.0001 7.50012 14.4478 7.50012 15C7.50012 15.5522 7.05235 15.9999 6.50012 16H5.81555C5.42347 16 5.03659 15.9076 4.68665 15.7305L1.54895 14.1426C1.2405 13.9865 1.03424 13.6813 1.00403 13.3369C0.973992 12.9927 1.12407 12.6575 1.40051 12.4502L4.00012 10.5C4.43289 10.1754 4.95928 10 5.50012 10H10.7872L14.9249 8.16016L17.7931 5.29297L17.8663 5.22656C18.0443 5.08076 18.2681 5 18.5001 5H20.0001L20.1173 5.00684ZM10.5001 15.9463C11.0886 15.8828 11.5953 15.7674 11.9777 15.624C12.0892 15.5822 12.1822 15.5391 12.2599 15.5C12.1822 15.4609 12.0892 15.4178 11.9777 15.376C11.5953 15.2326 11.0886 15.1162 10.5001 15.0527V15.9463ZM16.2072 9.70703C16.1204 9.79379 16.0185 9.86422 15.9064 9.91406L15.713 10H17.756L18.545 7.36816L16.2072 9.70703Z" fill="#9E9E9E"/>
</g>
</svg>
