<svg width="24" height="24" viewBox="0 0 24 24" fill="none" xmlns="http://www.w3.org/2000/svg">
<g id="icons/Travels/baggage-delay">
<path id="Union" d="M13 1C14.1046 1 15 1.89544 15 3V5H17C18.1046 5 19 5.89542 19 7V12.208C21.3084 12.861 23 14.9825 23 17.5C23 20.5376 20.5376 23 17.5 23C15.7922 23 14.2666 22.2213 13.2578 21H7.5V22C7.5 22.5523 7.05228 23 6.5 23C5.94772 23 5.5 22.5523 5.5 22V21H5C3.89544 21 3 20.1046 3 19V7C3 5.89541 3.89544 5 5 5H7V3C7 1.89544 7.89541 1 9 1H13ZM17.5 14C15.567 14 14 15.567 14 17.5C14 19.433 15.567 21 17.5 21C19.433 21 21 19.433 21 17.5C21 15.567 19.433 14 17.5 14ZM5 19H7V7H5V19ZM9 19H12.208C12.0731 18.5231 12 18.0201 12 17.5C12 16.3232 12.3705 15.2333 13 14.3389V7H9V19ZM17 15C17.5523 15 18 15.4477 18 16V17H19C19.5523 17 20 17.4477 20 18C20 18.5523 19.5523 19 19 19H17C16.4477 19 16 18.5523 16 18V16C16 15.4477 16.4477 15 17 15ZM15 12.6006C15.6097 12.2889 16.285 12.0879 17 12.0234V7H15V12.6006ZM9 5H13V3H9V5Z" fill="#9E9E9E"/>
</g>
</svg>
