<svg width="24" height="24" viewBox="0 0 24 24" fill="none" xmlns="http://www.w3.org/2000/svg">
<g id="icons/Travels/brake-pads">
<path id="Union" d="M12 1C13.4445 1 14.8754 1.28411 16.21 1.83691C17.5444 2.38971 18.757 3.20028 19.7783 4.22168C20.7997 5.24305 21.6103 6.45556 22.1631 7.79004C22.7159 9.12462 23 10.5555 23 12C23 12.5523 22.5523 13 22 13H20.9434C20.4458 17.4999 16.6325 21 12 21C7.02942 21 3 16.9706 3 12C3 7.36749 6.50012 3.55417 11 3.05664V2L11.0049 1.89746C11.0562 1.39333 11.4823 1 12 1ZM11 5.07227C7.60778 5.55757 5 8.47357 5 12C5 15.866 8.13398 19 12 19C15.5264 19 18.4424 16.3922 18.9277 13H18.0029C17.4508 12.9999 17.0029 12.5522 17.0029 12C17.0029 11.3429 16.8735 10.692 16.6221 10.085C16.3706 9.47815 16.0026 8.92639 15.5381 8.46191C15.0736 7.99744 14.5219 7.62937 13.915 7.37793C13.308 7.1265 12.6571 6.99707 12 6.99707C11.4478 6.99707 11.0001 6.54923 11 5.99707V5.07227ZM12 9C13.6568 9 15 10.3432 15 12C15 13.6568 13.6568 15 12 15C10.3432 15 9 13.6568 9 12C9 10.3432 10.3432 9 12 9ZM12 11C11.4477 11 11 11.4477 11 12C11 12.5523 11.4477 13 12 13C12.5523 13 13 12.5523 13 12C13 11.4477 12.5523 11 12 11ZM19.2754 6.7041C19.2563 6.67788 19.2381 6.65102 19.2188 6.625C19.2381 6.65099 19.2563 6.67789 19.2754 6.7041ZM19.0361 6.39062C19.0083 6.35564 18.9815 6.31973 18.9531 6.28516C18.9815 6.3197 19.0082 6.35565 19.0361 6.39062ZM17.7139 5.0459C17.6721 5.01159 17.6283 4.97982 17.5859 4.94629C17.6283 4.97988 17.6721 5.01157 17.7139 5.0459ZM17.374 4.78027C17.3379 4.75337 17.3002 4.7285 17.2637 4.70215C17.3002 4.72855 17.3379 4.75334 17.374 4.78027ZM13.6533 3.15332C13.6306 3.14908 13.6077 3.14567 13.585 3.1416C13.6077 3.14565 13.6306 3.1491 13.6533 3.15332Z" fill="#9E9E9E"/>
</g>
</svg>
