<svg width="24" height="24" viewBox="0 0 24 24" fill="none" xmlns="http://www.w3.org/2000/svg">
<g id="icons/Travels/bus-one">
<path id="Union" d="M18.5 1.5C19.8807 1.5 21 2.61929 21 4V18C21 19.3807 19.8807 20.5 18.5 20.5H18V21.5C18 22.0523 17.5523 22.5 17 22.5C16.4477 22.5 16 22.0523 16 21.5V20.5H8V21.5C8 22.0523 7.55228 22.5 7 22.5C6.44772 22.5 6 22.0523 6 21.5V20.5H5.5C4.11929 20.5 3 19.3807 3 18V4C3 2.61929 4.11929 1.5 5.5 1.5H18.5ZM5 18C5 18.2761 5.22386 18.5 5.5 18.5H18.5C18.7761 18.5 19 18.2761 19 18V12.5H5V18ZM7 15.5C7.55228 15.5 8 15.9477 8 16.5C8 17.0523 7.55228 17.5 7 17.5C6.44772 17.5 6 17.0523 6 16.5C6 15.9477 6.44772 15.5 7 15.5ZM17 15.5C17.5523 15.5 18 15.9477 18 16.5C18 17.0523 17.5523 17.5 17 17.5C16.4477 17.5 16 17.0523 16 16.5C16 15.9477 16.4477 15.5 17 15.5ZM5.5 3.5C5.22386 3.5 5 3.72386 5 4V10.5H19V4C19 3.72386 18.7761 3.5 18.5 3.5H5.5ZM15 5.5C15.5523 5.5 16 5.94772 16 6.5C16 7.05228 15.5523 7.5 15 7.5H9C8.44772 7.5 8 7.05228 8 6.5C8 5.94772 8.44772 5.5 9 5.5H15Z" fill="#9E9E9E"/>
</g>
</svg>
