<svg width="24" height="24" viewBox="0 0 24 24" fill="none" xmlns="http://www.w3.org/2000/svg">
<g id="icons/Travels/bus-two">
<path id="Union" d="M21 1C22.0685 1 22.9382 1.83804 22.9941 2.89258C22.9979 2.92787 23 2.9637 23 3V19C23 20.1046 22.1046 21 21 21V22L20.9951 22.1025C20.9438 22.6067 20.5177 23 20 23H16C15.4477 23 15 22.5523 15 22V21H9V22L8.99512 22.1025C8.94379 22.6067 8.51768 23 8 23H4C3.44772 23 3 22.5523 3 22V21C1.89544 21 1 20.1046 1 19V3C1 2.96374 1.00112 2.92784 1.00488 2.89258C1.06075 1.83801 1.9315 1 3 1H21ZM3 19H21V13.5H3V19ZM6 16C6.55228 16 7 16.4477 7 17C7 17.5523 6.55228 18 6 18H5C4.44772 18 4 17.5523 4 17C4 16.4477 4.44772 16 5 16H6ZM14.5 16C15.0523 16 15.5 16.4477 15.5 17C15.5 17.5523 15.0523 18 14.5 18H9.5C8.94772 18 8.5 17.5523 8.5 17C8.5 16.4477 8.94772 16 9.5 16H14.5ZM19 16C19.5523 16 20 16.4477 20 17C20 17.5523 19.5523 18 19 18H18C17.4477 18 17 17.5523 17 17C17 16.4477 17.4477 16 18 16H19ZM3 11.5H21V6H3V11.5ZM13.5 7C14.0523 7 14.5 7.44772 14.5 8C14.5 8.55228 14.0523 9 13.5 9H10.5C9.94771 9 9.5 8.55228 9.5 8C9.5 7.44772 9.94771 7 10.5 7H13.5ZM3 4H21V3H3V4Z" fill="#9E9E9E"/>
</g>
</svg>
