<svg width="24" height="24" viewBox="0 0 24 24" fill="none" xmlns="http://www.w3.org/2000/svg">
<g id="icons/Travels/cable-car">
<path id="Union" d="M18.653 1.06104C19.171 0.87015 19.747 1.13588 19.9381 1.65381C20.1289 2.17193 19.8634 2.747 19.3453 2.93799L18.9996 1.99951L19.3444 2.93799H19.3434C19.3426 2.93834 19.3417 2.93948 19.3405 2.93994C19.3377 2.94093 19.3336 2.94208 19.3287 2.94385C19.3187 2.94752 19.3036 2.95268 19.2848 2.95947C19.2471 2.97309 19.1923 2.99308 19.1217 3.01807C18.9798 3.06831 18.773 3.13982 18.5143 3.22705C17.997 3.40146 17.2665 3.63905 16.4098 3.89014C15.6857 4.10235 14.8637 4.32486 13.9996 4.53076V6.99951H17.36C18.14 6.99952 18.8484 7.45365 19.1754 8.16162H19.1764L21.7145 13.6616C21.9597 14.1932 21.9596 14.8058 21.7145 15.3374L19.1764 20.8374H19.1754C18.8485 21.5456 18.1401 21.9995 17.36 21.9995H6.63928C5.85933 21.9993 5.15073 21.5454 4.82385 20.8374L2.28479 15.3374C2.03974 14.8059 2.03963 14.1931 2.28479 13.6616L4.82385 8.16162C5.15079 7.45376 5.85943 6.99969 6.63928 6.99951H10.0856L8.03577 5.40576C7.09536 5.47199 6.30192 5.50346 5.67151 5.51514C5.12001 5.52534 4.69233 5.52196 4.40002 5.51514C4.2542 5.51173 4.1415 5.50675 4.06409 5.50342C4.02569 5.50176 3.99525 5.50062 3.97424 5.49951C3.96385 5.49897 3.95485 5.49888 3.94885 5.49854C3.94625 5.49834 3.94376 5.49766 3.94202 5.49756H3.93713C3.38629 5.46288 2.96732 4.98797 3.00159 4.43701C3.03627 3.8863 3.51133 3.46739 4.06213 3.50146H4.06409C4.06702 3.50163 4.07274 3.50207 4.07971 3.50244C4.09444 3.50322 4.11824 3.504 4.15002 3.50537C4.21455 3.50815 4.31437 3.51204 4.4469 3.51514C4.71239 3.52133 5.11198 3.52578 5.6344 3.51611C6.67997 3.49675 8.21922 3.42231 10.1696 3.20264C12.0688 2.9887 14.1845 2.4585 15.8473 1.97119C16.6736 1.72903 17.3784 1.50018 17.8756 1.33252C18.1239 1.2488 18.3204 1.18049 18.4537 1.1333C18.5203 1.10974 18.5713 1.09082 18.6051 1.07861C18.6216 1.07265 18.6341 1.06792 18.6422 1.06494C18.6462 1.0635 18.6501 1.06267 18.652 1.06201L18.653 1.06104ZM5.9469 10.4995H8.99963C9.55179 10.4995 9.99942 10.9474 9.99963 11.4995V16.4995C9.99963 17.0518 9.55192 17.4995 8.99963 17.4995H5.48596L6.63928 19.9995H17.36L18.5875 17.3384C18.5887 17.3358 18.5902 17.3331 18.5914 17.3306L18.7438 16.9995H12.4996C11.9475 16.9993 11.4996 16.5517 11.4996 15.9995V11.4995C11.4998 10.9475 11.9476 10.4997 12.4996 10.4995H18.0524L17.36 8.99951H6.63928L5.9469 10.4995ZM4.1012 14.4995L4.56311 15.4995H7.99963V12.4995H5.02405L4.1012 14.4995ZM13.4996 14.9995H19.6676L19.8981 14.4995L18.9752 12.4995H13.4996V14.9995ZM11.9996 4.95264C11.6414 5.01669 11.2826 5.07186 10.9274 5.12061L11.9996 5.95459V4.95264Z" fill="#9E9E9E"/>
</g>
</svg>
