<svg width="24" height="24" viewBox="0 0 24 24" fill="none" xmlns="http://www.w3.org/2000/svg">
<g id="icons/Travels/camp">
<path id="Union" d="M12 14.5C13.1596 14.5 14.0585 15.2493 14.6162 16.1416C15.1826 17.048 15.5 18.2381 15.5 19.5H22C22.5523 19.5 23 19.9477 23 20.5C23 21.0523 22.5523 21.5 22 21.5H2C1.44772 21.5 1 21.0523 1 20.5C1 19.9477 1.44772 19.5 2 19.5H8.5C8.5 18.2381 8.81736 17.048 9.38379 16.1416C9.9415 15.2493 10.8404 14.5 12 14.5ZM12 16.5C11.7789 16.5 11.4271 16.646 11.0801 17.2012C10.7418 17.7425 10.5 18.5529 10.5 19.5H13.5C13.5 18.5529 13.2582 17.7425 12.9199 17.2012C12.5729 16.646 12.2211 16.5 12 16.5ZM12 2.25C12.3616 2.25 12.6951 2.44546 12.8721 2.76074L20.585 16.5H22C22.5523 16.5 23 16.9477 23 17.5C23 18.0523 22.5523 18.5 22 18.5H20C19.6384 18.5 19.3049 18.3045 19.1279 17.9893L15.9551 12.3379C15.9278 12.3201 15.901 12.301 15.875 12.2803L15.873 12.2793C15.8699 12.2768 15.8641 12.2726 15.8564 12.2666C15.8412 12.2547 15.8172 12.2362 15.7852 12.2119C15.7207 12.1631 15.6238 12.0916 15.501 12.0049C15.2543 11.8308 14.9071 11.5986 14.5039 11.3682C13.6554 10.8833 12.7237 10.5 12 10.5C11.2763 10.5 10.3446 10.8833 9.49609 11.3682C9.09289 11.5986 8.74565 11.8308 8.49902 12.0049C8.37619 12.0916 8.27928 12.1631 8.21484 12.2119C8.1828 12.2362 8.15881 12.2547 8.14355 12.2666C8.13592 12.2726 8.13007 12.2768 8.12695 12.2793L8.12402 12.2803C8.09856 12.3006 8.07167 12.3184 8.04492 12.3359L4.87207 17.9893C4.69507 18.3045 4.36157 18.5 4 18.5H2C1.44772 18.5 1 18.0523 1 17.5C1 16.9477 1.44772 16.5 2 16.5H3.41504L11.1279 2.76074C11.3049 2.44546 11.6384 2.25 12 2.25ZM3.55469 7.50098C3.5635 7.50145 3.57223 7.50319 3.58105 7.50391C3.60295 7.50571 3.62481 7.50751 3.64648 7.51074C3.66507 7.5135 3.68363 7.51667 3.70215 7.52051C3.71228 7.52261 3.72236 7.52493 3.73242 7.52734C3.7504 7.53166 3.76827 7.53664 3.78613 7.54199C3.8039 7.5473 3.82143 7.55329 3.83887 7.55957C3.85162 7.56418 3.8643 7.56905 3.87695 7.57422C3.89276 7.58065 3.90836 7.5875 3.92383 7.59473C3.93159 7.59836 3.93956 7.60161 3.94727 7.60547C3.95432 7.609 3.96084 7.61352 3.96777 7.61719C3.98506 7.62633 4.0018 7.63633 4.01855 7.64648C4.02911 7.65288 4.03956 7.65928 4.0498 7.66602C4.06738 7.67757 4.08469 7.68945 4.10156 7.70215C4.11013 7.70859 4.11864 7.715 4.12695 7.72168C4.1433 7.73483 4.15924 7.74846 4.1748 7.7627C4.18077 7.76815 4.18754 7.77273 4.19336 7.77832L4.22168 7.80664C4.22695 7.81213 4.23117 7.8186 4.23633 7.82422C4.25059 7.83976 4.26417 7.85574 4.27734 7.87207C4.28404 7.88037 4.29042 7.88891 4.29688 7.89746C4.3096 7.91432 4.32142 7.93166 4.33301 7.94922C4.33976 7.95946 4.34612 7.96992 4.35254 7.98047C4.36295 7.99759 4.37347 8.01455 4.38281 8.03223C4.38648 8.03916 4.391 8.04568 4.39453 8.05273L4.89453 9.05273C5.0353 9.33426 5.0353 9.66574 4.89453 9.94727L4.39453 10.9473C4.391 10.9543 4.38648 10.9608 4.38281 10.9678C4.3736 10.9852 4.36279 11.0017 4.35254 11.0186C4.34613 11.0291 4.33975 11.0396 4.33301 11.0498C4.32143 11.0674 4.30959 11.0847 4.29688 11.1016C4.29042 11.1101 4.28404 11.1186 4.27734 11.127C4.26418 11.1433 4.25058 11.1592 4.23633 11.1748C4.22649 11.1855 4.21728 11.1968 4.20703 11.207C4.19678 11.2173 4.18555 11.2265 4.1748 11.2363C4.15924 11.2506 4.1433 11.2642 4.12695 11.2773C4.11864 11.284 4.11013 11.2904 4.10156 11.2969C4.08469 11.3096 4.06738 11.3214 4.0498 11.333C4.03956 11.3398 4.02912 11.3461 4.01855 11.3525C4.00166 11.3628 3.9852 11.3736 3.96777 11.3828C3.96084 11.3865 3.95432 11.391 3.94727 11.3945C3.93968 11.3983 3.93146 11.4007 3.92383 11.4043C3.90835 11.4115 3.89277 11.4184 3.87695 11.4248C3.86429 11.43 3.85163 11.4348 3.83887 11.4395C3.82141 11.4457 3.80391 11.4517 3.78613 11.457C3.76826 11.4624 3.75042 11.4674 3.73242 11.4717C3.72235 11.4741 3.71229 11.4764 3.70215 11.4785C3.68361 11.4824 3.66508 11.4855 3.64648 11.4883C3.62479 11.4915 3.60297 11.4933 3.58105 11.4951C3.57223 11.4958 3.56351 11.4976 3.55469 11.498C3.53649 11.4991 3.51828 11.499 3.5 11.499C3.48139 11.499 3.46285 11.4991 3.44434 11.498C3.43551 11.4976 3.4268 11.4958 3.41797 11.4951C3.39605 11.4933 3.37423 11.4915 3.35254 11.4883C3.33395 11.4855 3.3154 11.4824 3.29688 11.4785C3.28674 11.4764 3.27666 11.4741 3.2666 11.4717C3.24861 11.4673 3.23076 11.4624 3.21289 11.457C3.19512 11.4517 3.1776 11.4458 3.16016 11.4395C3.1474 11.4348 3.13472 11.43 3.12207 11.4248C3.10654 11.4185 3.09138 11.4114 3.07617 11.4043C3.06854 11.4007 3.06032 11.3983 3.05273 11.3945C3.04568 11.391 3.03916 11.3865 3.03223 11.3828C3.01455 11.3735 2.99759 11.363 2.98047 11.3525C2.96992 11.3461 2.95946 11.3398 2.94922 11.333C2.93166 11.3214 2.91432 11.3096 2.89746 11.2969C2.88891 11.2904 2.88037 11.284 2.87207 11.2773C2.85574 11.2642 2.83976 11.2506 2.82422 11.2363C2.8186 11.2312 2.81213 11.2269 2.80664 11.2217L2.77832 11.1934C2.77273 11.1875 2.76815 11.1808 2.7627 11.1748C2.74846 11.1592 2.73483 11.1433 2.72168 11.127C2.715 11.1186 2.70859 11.1101 2.70215 11.1016C2.68945 11.0847 2.67757 11.0674 2.66602 11.0498C2.65928 11.0396 2.65288 11.0291 2.64648 11.0186C2.63633 11.0018 2.62633 10.9851 2.61719 10.9678C2.61352 10.9608 2.609 10.9543 2.60547 10.9473L2.10547 9.94727C1.9647 9.66574 1.9647 9.33426 2.10547 9.05273L2.60547 8.05273C2.609 8.04568 2.61352 8.03916 2.61719 8.03223C2.62646 8.0147 2.63617 7.99745 2.64648 7.98047C2.65289 7.96992 2.65928 7.95945 2.66602 7.94922C2.67758 7.93167 2.68945 7.91431 2.70215 7.89746C2.70859 7.88891 2.715 7.88037 2.72168 7.87207C2.73483 7.85575 2.74846 7.83976 2.7627 7.82422C2.77252 7.81349 2.78176 7.80223 2.79199 7.79199C2.80223 7.78176 2.81349 7.77252 2.82422 7.7627C2.83976 7.74846 2.85575 7.73483 2.87207 7.72168C2.88037 7.715 2.88891 7.70859 2.89746 7.70215C2.91431 7.68945 2.93167 7.67758 2.94922 7.66602C2.95945 7.65928 2.96992 7.65289 2.98047 7.64648C2.99745 7.63617 3.0147 7.62646 3.03223 7.61719C3.03916 7.61352 3.04568 7.609 3.05273 7.60547C3.06044 7.60161 3.06841 7.59836 3.07617 7.59473C3.09137 7.58763 3.10655 7.58055 3.12207 7.57422C3.13471 7.56904 3.14741 7.56419 3.16016 7.55957C3.168 7.55674 3.17568 7.55342 3.18359 7.55078L3.24219 7.5332C3.25029 7.53103 3.25848 7.5293 3.2666 7.52734C3.27666 7.52493 3.28675 7.52262 3.29688 7.52051C3.31539 7.51666 3.33396 7.51351 3.35254 7.51074C3.37421 7.50749 3.39607 7.50573 3.41797 7.50391C3.42679 7.50318 3.43552 7.50146 3.44434 7.50098C3.45181 7.50055 3.4593 7.50026 3.4668 7.5H3.5332C3.54037 7.50024 3.54754 7.50058 3.55469 7.50098ZM9.95508 8.93359C10.6002 8.68435 11.306 8.5 12 8.5C12.6937 8.5 13.399 8.68452 14.0439 8.93359L12 5.29199L9.95508 8.93359ZM20.0459 2.00195C20.0955 2.00419 20.1452 2.00884 20.1943 2.01855C20.1977 2.01921 20.2008 2.02079 20.2041 2.02148C20.2639 2.03394 20.3232 2.05136 20.3809 2.0752C20.5007 2.12443 20.6112 2.19803 20.7061 2.29297C20.7359 2.32273 20.7636 2.35397 20.7891 2.38672C20.8038 2.40572 20.8185 2.42499 20.832 2.44531L21.832 3.94531C22.056 4.28121 22.056 4.71879 21.832 5.05469L20.8369 6.5459C20.7996 6.60322 20.7557 6.65655 20.7061 6.70605C20.6342 6.7781 20.5541 6.83878 20.4668 6.88477C20.3826 6.92932 20.2939 6.95883 20.2041 6.97754C20.2008 6.97823 20.1977 6.97981 20.1943 6.98047C20.1772 6.98387 20.1598 6.9858 20.1426 6.98828C20.1266 6.99059 20.1108 6.99358 20.0947 6.99512C20.0785 6.99665 20.0622 6.99634 20.0459 6.99707C20.0306 6.99779 20.0153 6.99901 20 6.99902C19.9843 6.99901 19.9688 6.99782 19.9531 6.99707C19.9369 6.99632 19.9205 6.99667 19.9043 6.99512C19.8882 6.99356 19.8724 6.9906 19.8564 6.98828C19.8392 6.98579 19.8219 6.98388 19.8047 6.98047C19.8014 6.97981 19.7982 6.97823 19.7949 6.97754C19.7055 6.95881 19.6171 6.92916 19.5332 6.88477C19.4457 6.83868 19.365 6.77832 19.293 6.70605C19.2434 6.65656 19.1994 6.6032 19.1621 6.5459L18.168 5.05469C17.944 4.71879 17.944 4.28121 18.168 3.94531L19.168 2.44531C19.1815 2.42499 19.1962 2.40572 19.2109 2.38672C19.2351 2.35558 19.2609 2.32532 19.2891 2.29688L19.2969 2.28906C19.3908 2.19601 19.5001 2.12383 19.6182 2.0752C19.6758 2.05131 19.7352 2.03399 19.7949 2.02148C19.7982 2.02079 19.8014 2.01922 19.8047 2.01855C19.8218 2.01515 19.8392 2.01323 19.8564 2.01074C19.8724 2.00842 19.8883 2.00546 19.9043 2.00391C19.9205 2.00236 19.9369 2.0027 19.9531 2.00195C19.9671 2.00128 19.9811 2.00008 19.9951 2H20.0049C20.0186 2.00008 20.0322 2.00131 20.0459 2.00195Z" fill="#9E9E9E"/>
</g>
</svg>
