<svg width="24" height="24" viewBox="0 0 24 24" fill="none" xmlns="http://www.w3.org/2000/svg">
<g id="icons/Travels/car-battery">
<path id="Union" d="M5.5 2C6.05228 2 6.5 2.44772 6.5 3V5H16.5V3C16.5 2.44772 16.9477 2 17.5 2H21.5C22.0523 2 22.5 2.44772 22.5 3V21C22.5 21.5523 22.0523 22 21.5 22H1.5C0.947715 22 0.5 21.5523 0.5 21V3C0.5 2.44772 0.947715 2 1.5 2H5.5ZM2.5 20H20.5V7H2.5V20ZM6 8C6.55228 8 7 8.44772 7 9V9.5H7.5C8.05228 9.5 8.5 9.94772 8.5 10.5C8.5 11.0523 8.05228 11.5 7.5 11.5H7V12C7 12.5523 6.55228 13 6 13C5.44772 13 5 12.5523 5 12V11.5H4.5C3.94772 11.5 3.5 11.0523 3.5 10.5C3.5 9.94772 3.94772 9.5 4.5 9.5H5V9C5 8.44772 5.44772 8 6 8ZM18.5 9.5C19.0523 9.5 19.5 9.94772 19.5 10.5C19.5 11.0523 19.0523 11.5 18.5 11.5H15.5C14.9477 11.5 14.5 11.0523 14.5 10.5C14.5 9.94772 14.9477 9.5 15.5 9.5H18.5ZM2.5 5H4.5V4H2.5V5ZM18.5 5H20.5V4H18.5V5Z" fill="#9E9E9E"/>
</g>
</svg>
