<svg width="24" height="24" viewBox="0 0 24 24" fill="none" xmlns="http://www.w3.org/2000/svg">
<g id="icons/Travels/check-in">
<path id="Union" d="M10.1494 3.09229C10.6182 2.02212 11.9009 1.57941 12.9297 2.1333L18.252 4.99951H21C21.5522 4.99951 21.9998 5.44739 22 5.99951V20.4995C22 21.0518 21.5523 21.4995 21 21.4995H13C12.4477 21.4995 12 21.0518 12 20.4995V19.6353C10.7903 19.8581 9.45867 19.9785 8.30859 20.145C8.32273 20.1428 8.2548 20.1419 7.9873 20.3989C7.78185 20.5964 7.36877 21.0462 6.93262 21.4126C5.93538 22.2503 4.4873 22.9995 2 22.9995C1.44772 22.9995 1 22.5518 1 21.9995C1.00019 21.4474 1.44783 20.9995 2 20.9995C4.01258 20.9995 5.00631 20.4191 5.64648 19.8813C6.02885 19.5601 6.23423 19.3106 6.60156 18.9575C6.90488 18.666 7.36623 18.2615 8.02148 18.1665C9.63738 17.9325 11.0381 17.8385 12.3154 17.5278C13.899 17.1427 15.1864 16.6478 15.75 16.4165C15.8004 16.3161 15.8561 16.2006 15.9014 16.0815C15.9045 16.0731 15.9061 16.0634 15.9092 16.0552C15.7585 16.0717 15.5652 16.0993 15.3242 16.144C14.7963 16.2421 14.1831 16.388 13.5 16.5425C12.833 16.6933 12.1125 16.8491 11.4297 16.9497C10.759 17.0485 10.0518 17.1061 9.42969 17.022C8.84974 16.9436 8.32363 16.7702 7.92578 16.439C7.49114 16.077 7.28762 15.5888 7.29297 15.0923C7.29795 14.6397 7.4728 14.2466 7.65918 13.9624C7.84801 13.6747 8.10171 13.4164 8.38086 13.2368C9.41244 12.573 10.5091 12.405 11.3115 12.3911C11.3759 12.39 11.4388 12.3904 11.5 12.3911V10.3315C10.8003 10.5506 9.87147 10.8642 8.87207 11.2651C6.7132 12.1312 4.42734 13.3257 3.26855 14.7173C2.91522 15.1417 2.28479 15.1995 1.86035 14.8462C1.4361 14.4928 1.37823 13.8624 1.73145 13.438C3.035 11.8724 5.23964 10.6551 7.21777 9.79053L10.1494 3.09229ZM14 14.3784C14.3342 14.3039 14.6595 14.2339 14.959 14.1782C15.4989 14.0779 16.1223 13.987 16.6191 14.0669C17.0936 14.1432 17.5324 14.3895 17.7891 14.8442C18.0163 15.2471 18.0181 15.6727 17.9844 15.9644C17.9174 16.5424 17.645 17.1141 17.4961 17.3999C17.2866 17.802 16.9448 18.0877 16.5635 18.2456C16.1139 18.4317 15.1891 18.793 14 19.144V19.4995H20V11.4995H16C15.4477 11.4995 15 11.0518 15 10.4995C15.0002 9.94739 15.4478 9.49951 16 9.49951H20V6.99951H18.0215C18.0085 6.99982 17.9955 6.99971 17.9824 6.99951H14V14.3784ZM11.3467 14.3901C10.7723 14.4001 10.0795 14.5217 9.46289 14.9185C9.45536 14.9233 9.43416 14.9391 9.40625 14.9673C9.40325 14.9703 9.40042 14.9739 9.39746 14.9771C9.47309 14.9985 9.571 15.0225 9.69727 15.0396C10.0384 15.0857 10.5243 15.0616 11.1377 14.9712C11.415 14.9303 11.7039 14.8778 12 14.8188V14.4272C11.8363 14.406 11.6101 14.3856 11.3467 14.3901ZM9.84668 8.771C10.2821 8.62085 10.6779 8.49211 11.0166 8.38721C11.3907 8.27133 11.6966 8.18325 11.9102 8.12354C11.9422 8.11457 11.9721 8.10585 12 8.09814V5.99951C12.0002 5.44739 12.4478 4.99951 13 4.99951H14.0332L11.9814 3.89404L9.84668 8.771Z" fill="#9E9E9E"/>
</g>
</svg>
