<svg width="24" height="24" viewBox="0 0 24 24" fill="none" xmlns="http://www.w3.org/2000/svg">
<g id="icons/Travels/cocktail">
<path id="Union" fill-rule="evenodd" clip-rule="evenodd" d="M9.78613 4.38509C11.6321 1.10333 15.7886 -0.0605063 19.0703 1.78548C22.3518 3.63156 23.5158 7.78804 21.6699 11.0697C19.9123 14.1943 16.0607 15.3967 12.8633 13.9115L11.5 16.2669V20.9993H13C13.5522 20.9993 13.9998 21.4472 14 21.9993C14 22.5516 13.5523 22.9993 13 22.9993H8C7.44772 22.9993 7 22.5516 7 21.9993C7.00017 21.4472 7.44782 20.9993 8 20.9993H9.5V16.2718L4.32812 7.49935H3C2.44772 7.49935 2 7.05163 2 6.49935C2.00017 5.94721 2.44782 5.49935 3 5.49935H4.90039L5.03125 5.50814C5.33352 5.54812 5.60438 5.72479 5.76172 5.99154L6.15234 6.65462C6.16531 6.64706 6.17817 6.63875 6.19141 6.63118C6.72997 6.32345 7.5263 5.99935 8.5 5.99935C9.5717 5.99935 10.4323 6.54253 11.0146 6.89193C11.6822 7.29247 12.0718 7.49935 12.5 7.49935C13.1398 7.49935 13.6716 7.39214 14.0381 7.28743C14.2205 7.23529 14.3604 7.1843 14.4492 7.14876C14.4583 7.14514 14.4666 7.14127 14.4746 7.13802L15.1348 5.99837L15.208 5.88802C15.3958 5.6448 15.6878 5.49935 16 5.49935H17.9004C18.4524 5.49956 18.9002 5.94734 18.9004 6.49935C18.9004 7.0515 18.4525 7.49914 17.9004 7.49935H16.5762L13.8711 12.1712C16.096 13.104 18.7153 12.2428 19.9268 10.0892C21.2311 7.77029 20.4086 4.83322 18.0898 3.52864C15.7708 2.22418 12.8328 3.04653 11.5283 5.36556C11.2575 5.8465 10.6482 6.01696 10.167 5.74642C9.68572 5.47565 9.51546 4.86641 9.78613 4.38509ZM8.5 7.99935C7.97385 7.99935 7.52001 8.1753 7.18359 8.36751C7.17828 8.37055 7.17321 8.37424 7.16797 8.37728L10.4922 14.0169L13.1221 9.47396C12.9244 9.48985 12.7167 9.49935 12.5 9.49935C11.4282 9.49935 10.5677 8.95617 9.98535 8.60677C9.31785 8.20628 8.92816 7.99935 8.5 7.99935Z" fill="#9E9E9E"/>
</g>
</svg>
