<svg width="24" height="24" viewBox="0 0 24 24" fill="none" xmlns="http://www.w3.org/2000/svg">
<g id="icons/Travels/coconut-tree">
<path id="Union" d="M6.849 1.10742C7.92686 1.01102 9.19698 1.15304 10.3353 1.55762C11.1123 1.83389 11.6409 2.3127 11.9847 2.87109C12.3031 2.54903 12.6881 2.24772 13.1293 2.07129C13.9682 1.73595 15.0027 1.68902 15.9213 1.88672C16.8271 2.08182 17.826 2.56392 18.3666 3.5C18.5069 3.74334 18.5385 4.03497 18.4535 4.30273C18.3685 4.57031 18.1751 4.7904 17.9203 4.9082L15.4242 6.05957C15.9385 6.24298 16.4693 6.49759 16.9994 6.84961C19.081 8.23232 19.5453 10.016 19.5746 11.1631C19.605 12.3592 18.5066 13.0785 17.4867 12.8662C17.2066 12.8078 16.7685 12.6972 16.4242 12.4688C15.8668 12.0986 15.7085 11.4924 15.6517 11.3145C15.6474 11.3007 15.6421 11.2874 15.6381 11.2754C15.6255 11.2764 15.6114 11.2771 15.597 11.2783C15.4117 11.2949 14.7906 11.3849 14.2328 11.0146C13.6867 10.652 13.524 10.0622 13.4642 9.87109C13.3546 9.8957 13.1742 9.93698 12.9974 9.95605C12.8075 9.97653 12.5562 9.98183 12.2836 9.90723L12.1654 9.87012C11.9407 9.79019 11.7656 9.65849 11.6556 9.56543C11.5349 9.46315 11.4235 9.34716 11.3265 9.2373C11.2802 9.18486 11.2335 9.13023 11.1879 9.07422C11.1841 9.08385 11.1809 9.09381 11.1771 9.10352C10.7728 10.1471 10.2932 11.5886 9.98279 13.1904C9.67355 14.7861 9.54951 16.7213 9.50623 18.2852C9.48475 19.0612 9.48384 19.7352 9.48767 20.2139C9.48813 20.2711 9.48905 20.3255 9.48962 20.377C10.2645 20.4536 11.1104 20.5 12.0004 20.5C14.0101 20.5 15.7949 20.2819 17.0463 19.9482C17.666 19.7829 18.1004 19.6017 18.3607 19.4414C18.1968 19.3227 17.9201 19.1759 17.4926 19.0361C16.5233 18.7194 15.0141 18.5 13.0004 18.5C12.4482 18.5 12.0005 18.0522 12.0004 17.5C12.0004 16.9477 12.4481 16.5 13.0004 16.5C15.1282 16.5 16.8695 16.7287 18.1146 17.1357C18.7331 17.338 19.2892 17.6033 19.7094 17.9551C20.1349 18.3116 20.5004 18.831 20.5004 19.5C20.5003 20.316 19.8953 20.8398 19.4447 21.124C18.9441 21.4396 18.285 21.6877 17.5609 21.8809C16.098 22.2709 14.1322 22.5 12.0004 22.5C9.86857 22.5 7.90278 22.2709 6.43982 21.8809C5.71579 21.6878 5.05667 21.4396 4.55603 21.124C4.10546 20.8399 3.50048 20.3161 3.50037 19.5C3.50037 18.7017 4.08047 18.1838 4.5199 17.8994C4.98353 17.5994 5.60265 17.7317 5.90271 18.1953C6.17516 18.6168 6.08897 19.1655 5.72302 19.4873C5.98885 19.6349 6.39584 19.7993 6.95447 19.9482C7.12273 19.9931 7.30088 20.0348 7.48767 20.0752C7.48516 19.5923 7.48715 18.9541 7.5072 18.2295C7.55143 16.6318 7.67829 14.5671 8.01892 12.8096C8.2561 11.5858 8.5823 10.456 8.90466 9.50488C8.83979 9.49208 8.77936 9.48124 8.72498 9.46875C8.60614 9.44146 8.52851 9.42406 8.46619 9.40918C8.40871 9.4982 8.30356 9.66249 8.16638 9.80957C8.00476 9.98283 7.76174 10.1769 7.41638 10.2695C7.07134 10.362 6.76405 10.3152 6.53748 10.2461C6.35816 10.1913 6.19474 10.1095 6.09705 10.0596C6.08733 10.0724 6.07751 10.087 6.0658 10.1025C6.03154 10.148 5.98828 10.2046 5.9408 10.2637C5.8441 10.384 5.71723 10.5289 5.55115 10.6699C5.26306 10.9145 4.93406 11.0031 4.69373 11.0371C4.44717 11.0719 4.20931 11.061 4.02087 11.04C3.05797 10.9327 2.39246 10.0497 2.55701 9.09375L2.599 8.88477C2.71209 8.3774 2.94777 7.74275 3.43396 7.13281C3.99731 6.42624 4.85252 5.80818 6.10193 5.44531C6.30064 5.38761 6.49458 5.34022 6.68298 5.29883L4.44177 3.79004C4.01981 3.50589 3.87881 2.9503 4.11365 2.49902C4.38751 1.97306 4.87212 1.6546 5.31775 1.46387C5.77749 1.26716 6.30976 1.15572 6.849 1.10742ZM12.6263 7.66699C12.6964 7.75991 12.764 7.84334 12.8256 7.91309C12.8381 7.92729 12.8518 7.93938 12.8627 7.95117C12.9117 7.9417 12.9767 7.93069 13.0795 7.9082C13.2902 7.86206 13.9739 7.6837 14.5931 8.09473C15.1511 8.46543 15.309 9.07304 15.3656 9.25C15.3699 9.26343 15.3744 9.2763 15.3783 9.28809C15.3911 9.2871 15.4057 9.28743 15.4203 9.28613C15.5946 9.2705 16.1509 9.19023 16.6791 9.48535L16.7845 9.5498L16.8842 9.62207C17.1236 9.80922 17.2776 10.0402 17.3793 10.2441C17.1686 9.70145 16.7425 9.07995 15.8929 8.51562C14.6887 7.71592 13.4961 7.59778 12.6263 7.66699ZM9.72205 7.38477C9.16035 7.15041 8.15874 6.93128 6.66052 7.36621H6.65955C5.87894 7.59297 5.40376 7.93008 5.10583 8.25391C5.24572 8.1629 5.41201 8.08203 5.60876 8.0293L5.73572 8.00098C6.02904 7.94893 6.28938 7.99313 6.48767 8.05371C6.63211 8.09789 6.76605 8.15989 6.86365 8.20801C6.92418 8.11741 7.00939 7.99647 7.11267 7.88574C7.27431 7.71254 7.51744 7.5183 7.86267 7.42578L7.98181 7.39844C8.2576 7.34786 8.50688 7.37893 8.67029 7.40723C8.84325 7.43722 9.06752 7.49547 9.17224 7.51953C9.42388 7.5773 9.55123 7.5806 9.64587 7.55859C9.67171 7.49806 9.69781 7.44038 9.72205 7.38477ZM9.66541 3.44238C8.80417 3.1363 7.82351 3.02831 7.02673 3.09961C7.01866 3.10033 7.01032 3.10176 7.00232 3.10254L10.389 5.38184C10.4298 5.28186 10.4747 5.18146 10.5209 5.08008C10.5279 4.94102 10.5273 4.80146 10.514 4.66504C10.4532 4.04048 10.195 3.63081 9.66541 3.44238ZM15.4681 3.83594C14.8818 3.71614 14.2754 3.76725 13.8715 3.92871C13.7549 3.97537 13.562 4.10524 13.3197 4.37012C13.1403 4.56623 12.9619 4.80631 12.7943 5.07031L15.4681 3.83594Z" fill="#9E9E9E"/>
</g>
</svg>
