<svg width="24" height="24" viewBox="0 0 24 24" fill="none" xmlns="http://www.w3.org/2000/svg">
<g id="icons/Travels/compass-one">
<path id="Union" d="M12 4C12.1654 4 12.3298 4.00434 12.4932 4.0127C12.5572 4.01598 12.6209 4.0228 12.6846 4.02734C12.7961 4.03529 12.9072 4.04293 13.0176 4.05469C13.0492 4.05807 13.0807 4.06272 13.1123 4.06641C13.2394 4.08123 13.3657 4.0974 13.4912 4.11719C13.5678 4.12928 13.6437 4.14429 13.7197 4.1582C13.8014 4.17313 13.883 4.1871 13.9639 4.2041C14.0346 4.21898 14.1046 4.23648 14.1748 4.25293C14.2743 4.27624 14.3734 4.29977 14.4717 4.32617C14.5142 4.33761 14.5563 4.3503 14.5986 4.3623C14.7105 4.39404 14.8215 4.4272 14.9316 4.46289C14.9826 4.47942 15.0334 4.49631 15.084 4.51367C15.1883 4.54947 15.2919 4.58669 15.3945 4.62598C15.4391 4.64302 15.4831 4.66102 15.5273 4.67871C15.6305 4.71998 15.7327 4.76287 15.834 4.80762C15.8585 4.81846 15.8838 4.82782 15.9082 4.83887C15.9213 4.84478 15.9336 4.85201 15.9463 4.8584C18.1217 5.85343 19.8563 7.64382 20.7764 9.85938C20.7775 9.86205 20.7792 9.8645 20.7803 9.86719C20.7882 9.88622 20.795 9.90571 20.8027 9.9248C20.8501 10.0413 20.8957 10.1586 20.9385 10.2773C20.9537 10.3196 20.9668 10.3627 20.9814 10.4053C21.0159 10.5054 21.0508 10.6055 21.082 10.707C21.0913 10.7371 21.0994 10.7676 21.1084 10.7979C21.1435 10.9165 21.1774 11.0357 21.208 11.1562C21.2175 11.1938 21.2253 11.2318 21.2344 11.2695C21.2605 11.378 21.2862 11.4868 21.3086 11.5967C21.327 11.6869 21.3416 11.778 21.3574 11.8691C21.3956 12.0898 21.4285 12.3125 21.4512 12.5381C21.4831 12.8546 21.5 13.1754 21.5 13.5C21.5 13.8242 21.483 14.1448 21.4512 14.4609C21.4285 14.6865 21.3956 14.9093 21.3574 15.1299C21.3416 15.221 21.327 15.3121 21.3086 15.4023C21.2941 15.4738 21.2759 15.5443 21.2598 15.6152C21.2425 15.6912 21.2271 15.7675 21.208 15.8428C21.1879 15.9222 21.1647 16.0005 21.1426 16.0791C21.1225 16.1502 21.1037 16.2215 21.082 16.292C21.0542 16.3826 21.0236 16.4721 20.9932 16.5615C20.975 16.615 20.9576 16.6686 20.9385 16.7217C20.9109 16.7982 20.881 16.8737 20.8516 16.9492C20.8277 17.0104 20.8054 17.0722 20.7803 17.1328C20.7793 17.1352 20.7774 17.1373 20.7764 17.1396C19.8135 19.4589 17.9589 21.3135 15.6396 22.2764C15.6373 22.2774 15.6352 22.2793 15.6328 22.2803C15.6058 22.2915 15.5779 22.3006 15.5508 22.3115C15.4419 22.3554 15.3325 22.3985 15.2217 22.4385C15.1794 22.4537 15.1363 22.4668 15.0938 22.4814C14.9937 22.5159 14.8936 22.5508 14.792 22.582C14.7335 22.6 14.6742 22.615 14.6152 22.6318C14.5247 22.6577 14.4344 22.6848 14.3428 22.708C14.2675 22.7271 14.1912 22.7425 14.1152 22.7598C14.0443 22.7759 13.9738 22.7941 13.9023 22.8086C13.8121 22.827 13.721 22.8416 13.6299 22.8574C13.5626 22.8691 13.4955 22.8824 13.4277 22.8926C13.3571 22.9032 13.286 22.9108 13.2148 22.9199C13.1304 22.9307 13.046 22.9426 12.9609 22.9512C12.6448 22.983 12.3242 23 12 23C11.6754 23 11.3546 22.9831 11.0381 22.9512C10.953 22.9426 10.8686 22.9307 10.7842 22.9199C10.7131 22.9108 10.6419 22.9032 10.5713 22.8926C10.5035 22.8824 10.4364 22.8691 10.3691 22.8574C10.278 22.8416 10.1869 22.827 10.0967 22.8086C10.0252 22.7941 9.95467 22.7759 9.88379 22.7598C9.80781 22.7425 9.73153 22.7271 9.65625 22.708C9.56465 22.6848 9.47431 22.6577 9.38379 22.6318C9.32486 22.615 9.26549 22.6 9.20703 22.582C9.10546 22.5508 9.00536 22.5159 8.90527 22.4814C8.86271 22.4668 8.81963 22.4537 8.77734 22.4385C8.66651 22.3985 8.55712 22.3554 8.44824 22.3115C8.42138 22.3007 8.39393 22.2913 8.36719 22.2803C8.3645 22.2792 8.36205 22.2775 8.35938 22.2764C6.04042 21.3133 4.1854 19.4588 3.22266 17.1396C3.22169 17.1374 3.22068 17.1351 3.21973 17.1328C3.19463 17.0722 3.17231 17.0104 3.14844 16.9492C3.11893 16.8735 3.08816 16.7983 3.06055 16.7217C3.04147 16.6688 3.02499 16.6149 3.00684 16.5615C2.97637 16.472 2.94484 16.3827 2.91699 16.292C2.89062 16.2061 2.86773 16.1191 2.84375 16.0322C2.82633 15.9691 2.80715 15.9064 2.79102 15.8428C2.77191 15.7675 2.75655 15.6912 2.73926 15.6152C2.72314 15.5444 2.70496 15.4738 2.69043 15.4023C2.67208 15.3121 2.65738 15.221 2.6416 15.1299C2.60345 14.9093 2.57051 14.6865 2.54785 14.4609C2.51604 14.1448 2.5 13.8242 2.5 13.5C2.5 13.1788 2.51565 12.8611 2.54688 12.5479L2.54883 12.5283C2.5714 12.3061 2.60398 12.0866 2.6416 11.8691C2.65739 11.778 2.67207 11.6869 2.69043 11.5967C2.71279 11.4867 2.7395 11.3781 2.76562 11.2695C2.77469 11.2319 2.7815 11.1937 2.79102 11.1562C2.81426 11.0647 2.84131 10.9743 2.86719 10.8838C2.88404 10.8249 2.89904 10.7655 2.91699 10.707C2.94818 10.6055 2.98311 10.5053 3.01758 10.4053C3.03224 10.3627 3.0453 10.3196 3.06055 10.2773C3.10339 10.1585 3.14988 10.0414 3.19727 9.9248C3.20503 9.90571 3.21184 9.88623 3.21973 9.86719C3.22079 9.86462 3.22157 9.86193 3.22266 9.85938C4.14261 7.64393 5.87763 5.85355 8.05273 4.8584C8.06567 4.85186 8.07846 4.8449 8.0918 4.83887C8.11598 4.82794 8.14075 4.81834 8.16504 4.80762C8.26633 4.76286 8.36856 4.71999 8.47168 4.67871C8.51588 4.66102 8.55997 4.64302 8.60449 4.62598C8.70714 4.58668 8.81072 4.54948 8.91504 4.51367C8.96563 4.49631 9.01641 4.47942 9.06738 4.46289C9.17748 4.42719 9.28857 4.39405 9.40039 4.3623C9.44269 4.35029 9.48481 4.33761 9.52734 4.32617C9.62559 4.29976 9.72474 4.27625 9.82422 4.25293C9.89438 4.23648 9.96441 4.21899 10.0352 4.2041C10.116 4.18709 10.1977 4.17314 10.2793 4.1582C10.3553 4.14428 10.4312 4.12929 10.5078 4.11719C10.6333 4.09739 10.7597 4.08124 10.8867 4.06641C10.9183 4.06271 10.9498 4.05807 10.9814 4.05469C11.0918 4.04292 11.203 4.0353 11.3145 4.02734C11.3782 4.02279 11.4418 4.01598 11.5059 4.0127C11.6695 4.00431 11.8343 4 12 4ZM13 7C13 7.55228 12.5523 8 12 8C11.4477 8 11 7.55228 11 7V6.06836C10.9347 6.07705 10.8694 6.08437 10.8047 6.09473C7.55521 6.61517 5.00507 9.22331 4.56836 12.5H5.5C6.05228 12.5 6.5 12.9477 6.5 13.5C6.5 14.0523 6.05228 14.5 5.5 14.5H4.56836C5.01377 17.842 7.65803 20.4862 11 20.9316V20C11 19.4477 11.4477 19 12 19C12.5523 19 13 19.4477 13 20V20.9316C16.342 20.4862 18.9862 17.842 19.4316 14.5H18.5C17.9477 14.5 17.5 14.0523 17.5 13.5C17.5 12.9477 17.9477 12.5 18.5 12.5H19.4316C18.9949 9.22299 16.4443 6.61481 13.1943 6.09473C13.1299 6.08443 13.065 6.07701 13 6.06836V7ZM12 9C12.3589 9 12.6901 9.19233 12.8682 9.50391L14.8682 13.0039C15.0438 13.3113 15.0438 13.6887 14.8682 13.9961L12.8682 17.4961C12.6901 17.8077 12.3589 18 12 18C11.6411 18 11.3099 17.8077 11.1318 17.4961L9.13184 13.9961C8.95616 13.6887 8.95616 13.3113 9.13184 13.0039L11.1318 9.50391L11.2051 9.39258C11.3927 9.147 11.686 9 12 9ZM11.1514 13.5L12 14.9844L12.8477 13.5L12 12.0146L11.1514 13.5ZM14.5 1C15.0523 1 15.5 1.44772 15.5 2C15.5 2.55228 15.0523 3 14.5 3H9.5C8.94772 3 8.5 2.55228 8.5 2C8.5 1.44772 8.94772 1 9.5 1H14.5Z" fill="#9E9E9E"/>
</g>
</svg>
