<svg width="24" height="24" viewBox="0 0 24 24" fill="none" xmlns="http://www.w3.org/2000/svg">
<g id="icons/Travels/consignment">
<path id="Union" d="M22 18C22.5523 18 23 18.4477 23 19C23 19.5523 22.5523 20 22 20C22 20.5523 21.5523 21 21 21C20.4477 21 20 20.5523 20 20H19C19 20.5523 18.5523 21 18 21C17.4477 21 17 20.5523 17 20H16C16 20.5523 15.5523 21 15 21C14.4477 21 14 20.5523 14 20H13C13 20.5523 12.5523 21 12 21C11.4477 21 11 20.5523 11 20H10C10 20.5523 9.55229 21 9 21C8.44772 21 8 20.5523 8 20H7C7 20.5523 6.55228 21 6 21C5.44772 21 5 20.5523 5 20H4C4 20.5523 3.55228 21 3 21C2.44772 21 2 20.5523 2 20C1.44772 20 1 19.5523 1 19C1 18.4477 1.44772 18 2 18H22ZM15 2C15.5523 2 16 2.44772 16 3V5H19C20.1046 5 21 5.89542 21 7V15C21 16.1046 20.1046 17 19 17H5C3.89544 17 3 16.1046 3 15V7C3 5.89541 3.89544 5 5 5H8V3C8 2.44772 8.44772 2 9 2H15ZM5 15H7V7H5V15ZM9 15H15V7H9V15ZM17 15H19V7H17V15ZM10 5H14V4H10V5Z" fill="#9E9E9E"/>
</g>
</svg>
