<svg width="24" height="24" viewBox="0 0 24 24" fill="none" xmlns="http://www.w3.org/2000/svg">
<g id="icons/Travels/cruise">
<path id="Union" d="M13.5 1C14.6046 1 15.5 1.89544 15.5 3V6H17.5C18.6046 6 19.5 6.89542 19.5 8V13.6318L20.6504 14.207C21.5588 14.6614 21.982 15.725 21.6348 16.6797L20.2588 20.4619C20.3675 20.522 20.4669 20.5794 20.5586 20.6318C20.895 20.8241 21.2238 21 22 21C22.5523 21 23 21.4477 23 22C23 22.5523 22.5523 23 22 23C20.7762 23 20.105 22.6759 19.5664 22.3682C19.1217 22.114 18.9561 22 18.5 22C18.0506 22 17.8799 22.1152 17.5547 22.332C17.1299 22.6152 16.5506 23 15.5 23C14.477 23 13.843 22.6335 13.373 22.3828C12.9605 22.1628 12.6335 22 12 22C11.3665 22 11.0395 22.1628 10.627 22.3828C10.157 22.6335 9.52298 23 8.5 23C7.44942 23 6.87012 22.6152 6.44531 22.332C6.12012 22.1152 5.94942 22 5.5 22C5.04388 22 4.87834 22.114 4.43359 22.3682C3.89503 22.6759 3.22378 23 2 23C1.44772 23 1 22.5523 1 22C1 21.4477 1.44772 21 2 21C2.77622 21 3.10497 20.8241 3.44141 20.6318C3.5329 20.5796 3.63186 20.5218 3.74023 20.4619L2.36426 16.6797C2.01709 15.725 2.44116 14.6614 3.34961 14.207L4.5 13.6318V8C4.5 6.89542 5.39542 6 6.5 6H8.5V3C8.5 1.89544 9.39541 1 10.5 1H13.5ZM4.24414 15.9961L5.70117 20.0039C6.62611 20.0492 7.1578 20.4034 7.55469 20.668C7.87988 20.8848 8.05058 21 8.5 21C8.97694 21 9.21803 20.8665 9.68555 20.6172C10.0323 20.4323 10.4439 20.2237 11.0049 20.1025C11.0015 20.0688 11 20.0346 11 20V16C11 15.4477 11.4477 15 12 15C12.5523 15 13 15.4477 13 16V20C13 20.0346 12.9976 20.0688 12.9941 20.1025C13.5556 20.2237 13.9675 20.4322 14.3145 20.6172C14.782 20.8665 15.0231 21 15.5 21C15.9494 21 16.1201 20.8848 16.4453 20.668C16.8421 20.4035 17.3735 20.0494 18.2979 20.0039L19.7559 15.9961L12 12.1182L4.24414 15.9961ZM6.5 12.4365L11.1621 10.2852C11.6937 10.0399 12.3063 10.0399 12.8379 10.2852L17.5 12.4365V8H6.5V12.4365ZM10.5 6H13.5V3H10.5V6Z" fill="#9E9E9E"/>
</g>
</svg>
