<svg width="24" height="24" viewBox="0 0 24 24" fill="none" xmlns="http://www.w3.org/2000/svg">
<g id="icons/Travels/diving">
<path id="Union" d="M21 2C21.5523 2 22 2.44772 22 3V19C22 20.2714 21.513 21.298 20.7266 21.9971C19.9585 22.6798 18.9631 23 18 23C17.0369 23 16.0415 22.6798 15.2734 21.9971C14.487 21.298 14 20.2714 14 19V18C14 17.4477 14.4477 17 15 17C15.5523 17 16 17.4477 16 18V19C16 19.7286 16.263 20.202 16.6016 20.5029C16.9585 20.8202 17.4631 21 18 21C18.5369 21 19.0415 20.8202 19.3984 20.5029C19.737 20.202 20 19.7286 20 19V3C20 2.44772 20.4477 2 21 2ZM13 11C13.5523 11 14 11.4477 14 12C14 12.5566 13.7931 13.483 13.3125 14.291C12.816 15.1257 11.9146 16 10.5 16C9.08536 16 8.184 15.1257 7.6875 14.291C7.20692 13.483 7 12.5566 7 12C7 11.4477 7.44772 11 8 11C8.55228 11 9 11.4477 9 12C9 12.189 9.10558 12.763 9.40625 13.2686C9.69103 13.7474 10.0398 14 10.5 14C10.9602 14 11.309 13.7474 11.5938 13.2686C11.8944 12.763 12 12.189 12 12C12 11.4477 12.4477 11 13 11ZM16.0557 2.00391C17.6539 2.08175 19 3.35101 19 5V9C19 9.55228 18.5523 10 18 10H12.5C11.9477 10 11.5 9.55228 11.5 9C11.5 8.4686 11.1176 8 10.5 8C9.88241 8 9.5 8.4686 9.5 9C9.5 9.55228 9.05228 10 8.5 10H3C2.44772 10 2 9.55228 2 9V5C2 3.29786 3.43423 2.0002 5.09961 2H15.9004L16.0557 2.00391ZM5.09961 4C4.44577 4.0002 4 4.49323 4 5V8H7.6748C8.05552 6.91057 9.04924 6 10.5 6C11.9508 6 12.9445 6.91057 13.3252 8H17V5C17 4.52491 16.6082 4.06206 16.0205 4.00586L15.9004 4H5.09961Z" fill="#9E9E9E"/>
</g>
</svg>
