<svg width="24" height="24" viewBox="0 0 24 24" fill="none" xmlns="http://www.w3.org/2000/svg">
<g id="icons/Travels/earth">
<path id="Union" d="M12 1C18.0751 1 23 5.92487 23 12C23 18.0751 18.0751 23 12 23C5.92487 23 1 18.0751 1 12C1 5.92487 5.92487 1 12 1ZM12 17C11.1844 17 10.3947 17.1103 9.64355 17.3135C9.77863 17.8158 9.93187 18.2798 10.0996 18.6992C10.4336 19.5343 10.8072 20.1438 11.1699 20.5273C11.5305 20.9085 11.8113 21 12 21C12.1887 21 12.4695 20.9085 12.8301 20.5273C13.1928 20.1438 13.5664 19.5343 13.9004 18.6992C14.0681 18.2799 14.2204 17.8157 14.3555 17.3135C13.6046 17.1104 12.8153 17 12 17ZM7.77441 18.0527C7.26705 18.323 6.78851 18.6401 6.34473 18.999C7.03861 19.5604 7.81741 20.0196 8.65918 20.3564C8.51012 20.0668 8.37071 19.7612 8.24316 19.4424C8.07048 19.0107 7.91431 18.5456 7.77441 18.0527ZM16.2246 18.0527C16.0847 18.5455 15.9295 19.0107 15.7568 19.4424C15.6292 19.7614 15.489 20.0667 15.3398 20.3564C16.1815 20.0198 16.9604 19.5612 17.6543 19C17.2104 18.6409 16.7321 18.3232 16.2246 18.0527ZM3.05664 13C3.2463 14.7153 3.91827 16.2841 4.93359 17.5703C5.65711 16.9633 6.46049 16.4486 7.3252 16.042C7.16402 15.0846 7.0601 14.0623 7.01953 13H3.05664ZM16.9805 13C16.9399 14.0624 16.835 15.0846 16.6738 16.042C17.5386 16.4485 18.3418 16.9633 19.0654 17.5703C20.081 16.284 20.7537 14.7156 20.9434 13H16.9805ZM9.02051 13C9.05453 13.8227 9.12998 14.6099 9.24023 15.3486C10.1222 15.1207 11.0471 15 12 15C12.9526 15 13.8771 15.1209 14.7588 15.3486C14.8691 14.6099 14.9455 13.8227 14.9795 13H9.02051ZM4.93359 6.42871C3.918 7.71508 3.24633 9.28439 3.05664 11H7.01953C7.06012 9.93734 7.16393 8.91468 7.3252 7.95703C6.46045 7.55039 5.65713 7.03583 4.93359 6.42871ZM14.7588 8.65039C13.877 8.87819 12.9526 8.99998 12 9C11.047 9 10.1222 8.87833 9.24023 8.65039C9.1299 9.38938 9.05455 10.177 9.02051 11H14.9795C14.9455 10.1769 14.8691 9.38942 14.7588 8.65039ZM19.0654 6.42871C18.3418 7.03579 17.5387 7.55045 16.6738 7.95703C16.8351 8.91472 16.9399 9.93728 16.9805 11H20.9434C20.7536 9.28418 20.0812 7.71517 19.0654 6.42871ZM12 3C11.8113 3 11.5305 3.09148 11.1699 3.47266C10.8072 3.85623 10.4336 4.46569 10.0996 5.30078C9.93197 5.71996 9.77857 6.18362 9.64355 6.68555C10.3948 6.88874 11.1843 7 12 7C12.8154 6.99998 13.6045 6.88866 14.3555 6.68555C14.2205 6.18371 14.068 5.71989 13.9004 5.30078C13.5664 4.46569 13.1928 3.85623 12.8301 3.47266C12.4695 3.09148 12.1887 3 12 3ZM8.65918 3.64258C7.81748 3.97935 7.03859 4.43873 6.34473 5C6.78852 5.35903 7.26702 5.67593 7.77441 5.94629C7.91425 5.45371 8.07058 4.98908 8.24316 4.55762C8.37082 4.23847 8.50997 3.93246 8.65918 3.64258ZM15.3398 3.64258C15.4891 3.93258 15.6291 4.23833 15.7568 4.55762C15.9294 4.98901 16.0848 5.45381 16.2246 5.94629C16.7322 5.67581 17.2104 5.35823 17.6543 4.99902C16.9605 4.43796 16.1814 3.9792 15.3398 3.64258Z" fill="#9E9E9E"/>
</g>
</svg>
