<svg width="24" height="24" viewBox="0 0 24 24" fill="none" xmlns="http://www.w3.org/2000/svg">
<g id="icons/Travels/enquire">
<path id="Union" d="M6.5 8C7.55618 8 8.46278 8.45611 9.08594 9.21582C9.69653 9.96026 10 10.9477 10 12V13.5303L12.6406 15.7314C13.0648 16.085 13.1221 16.7164 12.7686 17.1406C12.415 17.5648 11.7836 17.6221 11.3594 17.2686L8.35938 14.7686C8.13144 14.5786 8 14.2967 8 14V12C8 11.3193 7.80342 10.8067 7.53906 10.4844C7.28723 10.1774 6.94377 10 6.5 10C6.05623 10 5.71277 10.1774 5.46094 10.4844C5.19658 10.8067 5 11.3193 5 12V21C5 21.5523 4.55228 22 4 22C3.44772 22 3 21.5523 3 21V12C3 10.9477 3.30347 9.96026 3.91406 9.21582C4.53722 8.45611 5.44382 8 6.5 8ZM18.5 10C19.5562 10 20.4628 10.4561 21.0859 11.2158C21.6965 11.9603 22 12.9477 22 14V21C22 21.5523 21.5523 22 21 22C20.4477 22 20 21.5523 20 21V14C20 13.3193 19.8034 12.8067 19.5391 12.4844C19.2872 12.1774 18.9438 12 18.5 12C18.0562 12 17.7128 12.1774 17.4609 12.4844C17.1966 12.8067 17 13.3193 17 14V17C17 17.2967 16.8686 17.5786 16.6406 17.7686L13.6406 20.2686C13.2164 20.6221 12.585 20.5648 12.2314 20.1406C11.8779 19.7164 11.9352 19.085 12.3594 18.7314L15 16.5303V14C15 12.9477 15.3035 11.9603 15.9141 11.2158C16.5372 10.4561 17.4438 10 18.5 10ZM18.5 2C20.433 2 22 3.567 22 5.5C22 7.43298 20.433 9 18.5 9C16.567 9 15 7.43298 15 5.5C15 3.567 16.567 2 18.5 2ZM6 1C7.65683 1 9 2.34314 9 4C9 5.65683 7.65683 7 6 7C4.34314 7 3 5.65683 3 4C3 2.34315 4.34315 1 6 1ZM18.5 4C17.6716 4 17 4.67158 17 5.5C17 6.32842 17.6716 7 18.5 7C19.3284 7 20 6.32842 20 5.5C20 4.67158 19.3284 4 18.5 4ZM6 3C5.44771 3 5 3.44771 5 4C5 4.55227 5.44772 5 6 5C6.55227 5 7 4.55227 7 4C7 3.44772 6.55227 3 6 3Z" fill="#9E9E9E"/>
</g>
</svg>
