<svg width="24" height="24" viewBox="0 0 24 24" fill="none" xmlns="http://www.w3.org/2000/svg">
<g id="icons/Travels/fishing">
<path id="Union" d="M17.75 19.5C18.2861 19.5 18.7167 19.5771 19.0928 19.7285C19.4571 19.8752 19.7214 20.0766 19.877 20.1885C20.0367 20.3033 20.1244 20.3591 20.2471 20.4033C20.3732 20.4487 20.5933 20.5 21 20.5C21.5523 20.5 22 20.9477 22 21.5C22 22.0523 21.5523 22.5 21 22.5C20.4229 22.5 19.9628 22.4263 19.5684 22.2842C19.1709 22.1409 18.8966 21.9465 18.709 21.8115C18.5171 21.6735 18.4471 21.6248 18.3457 21.584C18.2559 21.5479 18.0888 21.5 17.75 21.5C17.4018 21.5 17.2839 21.5504 17.2666 21.5586C17.2656 21.558 17.2571 21.558 17.1768 21.6514C17.0944 21.7472 16.8791 22.0225 16.5244 22.2188C16.1592 22.4208 15.7377 22.5 15.25 22.5C14.751 22.5 14.3428 22.4175 13.9834 22.2617C13.6437 22.1145 13.3871 21.9144 13.2393 21.8057C13.0804 21.6888 12.9939 21.6326 12.8828 21.5898C12.7745 21.5482 12.5892 21.5 12.25 21.5C11.9098 21.5 11.7491 21.5482 11.6719 21.5801C11.591 21.6135 11.5334 21.6545 11.375 21.7812C11.221 21.9044 10.9658 22.1135 10.5938 22.2676C10.2177 22.4232 9.78414 22.5 9.25 22.5C8.71808 22.5 8.28163 22.4239 7.90527 22.2637C7.52488 22.1017 7.27712 21.882 7.12305 21.7432C6.96089 21.597 6.93478 21.5762 6.89258 21.5557C6.86721 21.5433 6.77047 21.5 6.5 21.5C6.23236 21.5 6.13151 21.542 6.09668 21.5586C6.03393 21.5885 6.00432 21.6164 5.80566 21.7773C5.61787 21.9295 5.34811 22.1329 4.94141 22.2822C4.54611 22.4273 4.08114 22.5 3.5 22.5C2.94772 22.5 2.5 22.0523 2.5 21.5C2.5 20.9477 2.94772 20.5 3.5 20.5C3.91874 20.5 4.13754 20.4476 4.25293 20.4053C4.3568 20.3671 4.42524 20.3204 4.5459 20.2227C4.65574 20.1337 4.90564 19.9115 5.23633 19.7539C5.59526 19.5829 6.0026 19.5 6.5 19.5C6.99509 19.5 7.40626 19.5817 7.7666 19.7568C8.11006 19.9238 8.3479 20.1532 8.46289 20.2568C8.5861 20.3679 8.62964 20.3984 8.68945 20.4238C8.75376 20.4511 8.90762 20.5 9.25 20.5C9.59018 20.5 9.75092 20.4518 9.82812 20.4199C9.90896 20.3865 9.96656 20.3455 10.125 20.2188C10.279 20.0956 10.5342 19.8865 10.9062 19.7324C11.2823 19.5768 11.7159 19.5 12.25 19.5C12.7857 19.5 13.2216 19.5769 13.6006 19.7227C13.9767 19.8674 14.244 20.0613 14.4248 20.1943C14.6167 20.3355 14.6864 20.3855 14.7793 20.4258C14.8525 20.4575 14.9835 20.5 15.25 20.5C15.5272 20.5 15.5826 20.4545 15.5566 20.4688C15.5409 20.4775 15.5271 20.5024 15.6592 20.3486C15.7863 20.2008 16.013 19.9413 16.4062 19.7539C16.7833 19.5743 17.2247 19.5 17.75 19.5ZM16.2744 7.54102V7C16.5867 7 16.8812 7.14601 17.0703 7.39453L17.0723 7.39648L17.084 7.41211C17.092 7.42275 17.1036 7.43849 17.1182 7.45801C17.1475 7.49721 17.1897 7.55369 17.2412 7.62402C17.3444 7.76478 17.4873 7.96296 17.6465 8.19238C17.9586 8.64234 18.358 9.24834 18.6387 9.79102C18.9674 10.4269 19.3125 11.6483 19.3125 12.9248C19.3125 13.1112 19.3041 13.3037 19.2871 13.5H19.5C20.8807 13.5 22 14.6193 22 16C22 17.3807 20.8807 18.5 19.5 18.5H11.2822C10.8181 18.5 10.3627 18.371 9.96777 18.127L5.47461 15.3506C5.09427 15.1156 4.91595 14.6566 5.03809 14.2266C5.1603 13.7966 5.55301 13.5 6 13.5H17.2744C17.2977 13.3158 17.3125 13.1239 17.3125 12.9248C17.3125 11.9435 17.0325 11.04 16.8613 10.709C16.642 10.285 16.3034 9.76521 16.0029 9.33203C15.9792 9.29776 15.9545 9.26509 15.9316 9.23242C15.6365 9.52979 15.3587 9.85006 15.0752 10.1826C14.7928 10.5139 14.4909 10.874 14.1924 11.1895C13.6312 11.7824 12.8315 12.5 11.75 12.5C10.9133 12.5 10.0074 12.1803 9.39355 11.9219C9.06885 11.7852 8.78763 11.6489 8.58789 11.5469C8.48774 11.4957 8.40662 11.4529 8.34961 11.4219C8.32112 11.4064 8.29839 11.3938 8.28223 11.3848C8.27451 11.3805 8.26839 11.3767 8.26367 11.374C8.26127 11.3727 8.25839 11.371 8.25684 11.3701L8.25488 11.3691V11.3682H8.25391C7.77439 11.0942 7.60783 10.4834 7.88184 10.0039C8.15585 9.52439 8.76658 9.35783 9.24609 9.63184L9.24512 9.63086C9.24525 9.63093 9.24615 9.63132 9.24707 9.63184C9.24896 9.6329 9.25279 9.63489 9.25781 9.6377C9.26788 9.64332 9.28408 9.65233 9.30566 9.66406C9.3492 9.68773 9.4148 9.72312 9.49805 9.76562C9.66539 9.85107 9.90019 9.96495 10.1689 10.0781C10.7426 10.3197 11.3368 10.5 11.75 10.5C11.9185 10.5 12.1987 10.3867 12.7402 9.81445C12.9929 9.54741 13.2487 9.24141 13.5527 8.88477C13.8476 8.53881 14.1779 8.15803 14.543 7.79297C14.9209 7.41505 15.321 7.21414 15.6426 7.11035C15.8019 7.05895 15.9411 7.03137 16.0488 7.0166C16.1028 7.0092 16.1496 7.00534 16.1875 7.00293C16.2065 7.00172 16.2237 7.00142 16.2383 7.00098C16.2453 7.00076 16.2518 7.00009 16.2578 7H16.2734C16.2738 7 16.2743 7 16.2744 7.54102ZM11.0195 16.4258C11.0984 16.4744 11.1895 16.5 11.2822 16.5H16.1348C15.9525 16.1856 15.9588 15.8033 16.1338 15.5H9.52051L11.0195 16.4258ZM18.7178 15.5C18.5239 15.8577 18.2723 16.1959 17.9512 16.5H19.5C19.7762 16.5 20 16.2762 20 16C20 15.7238 19.7762 15.5 19.5 15.5H18.7178ZM4.06641 3.0332L4.62402 3.08301C5.89218 3.22449 6.94232 3.5563 7.89844 4.13867C8.97204 4.7927 9.85786 5.72179 10.7812 6.87598C11.1257 7.30721 11.056 7.93639 10.625 8.28125C10.1939 8.62593 9.56476 8.55577 9.21973 8.125C8.34489 7.0315 7.63315 6.31869 6.8584 5.84668C6.11575 5.3943 5.24807 5.12404 4 5.03418V14C3.99974 14.5521 3.55212 15 3 15C2.44788 15 2.00026 14.5521 2 14V5C2.00017 3.98392 2.78473 3.07676 3.84961 3.03125L4.06641 3.0332ZM15 2.5C16.1046 2.5 17 3.39544 17 4.5C17 5.60458 16.1046 6.5 15 6.5C13.8954 6.5 13 5.60458 13 4.5C13 3.39544 13.8954 2.5 15 2.5Z" fill="#9E9E9E"/>
</g>
</svg>
