<svg width="24" height="24" viewBox="0 0 24 24" fill="none" xmlns="http://www.w3.org/2000/svg">
<g id="icons/Travels/flag">
<path id="Union" d="M6 1C6.55228 1 7 1.44772 7 2H20C20.3466 2 20.6684 2.17979 20.8506 2.47461C21.0327 2.76939 21.0495 3.13735 20.8945 3.44727L19.1182 7L20.8945 10.5527C21.0495 10.8626 21.0327 11.2306 20.8506 11.5254C20.6684 11.8202 20.3466 12 20 12H7V21H8C8.55228 21 9 21.4477 9 22C9 22.5523 8.55228 23 8 23H4C3.44772 23 3 22.5523 3 22C3 21.4477 3.44772 21 4 21H5V2C5 1.44772 5.44772 1 6 1ZM7 10H18.3818L17.1055 7.44727C16.9647 7.16574 16.9647 6.83426 17.1055 6.55273L18.3818 4H7V10Z" fill="#9E9E9E"/>
</g>
</svg>
