<svg width="24" height="24" viewBox="0 0 24 24" fill="none" xmlns="http://www.w3.org/2000/svg">
<g id="icons/Travels/flight-airflow">
<path id="Union" d="M9.00012 11.5C9.24883 11.5 9.48893 11.5925 9.67297 11.7598L14.8956 16.5078L18.0001 16.5107C18.2156 16.5109 18.4262 16.581 18.5988 16.71L22.5988 19.6992C22.9435 19.9571 23.0841 20.4069 22.9484 20.8154C22.8125 21.224 22.4306 21.4998 22.0001 21.5H4.00012C2.92436 21.5 1.99187 21.0402 1.45227 20.2344C0.914588 19.4312 0.852289 18.4096 1.26086 17.4707C1.61602 16.6548 2.28346 15.8364 2.79602 15.2705C3.06302 14.9757 3.3107 14.7255 3.49133 14.5488C3.58182 14.4603 3.65642 14.3892 3.70911 14.3398C3.73521 14.3154 3.75584 14.2958 3.77063 14.2822C3.778 14.2754 3.78393 14.2695 3.78821 14.2656C3.79034 14.2637 3.79275 14.2619 3.79407 14.2607L3.79602 14.2588C4.0612 14.0188 4.43521 13.9388 4.77551 14.0488C5.11558 14.159 5.371 14.4423 5.44543 14.792L5.80872 16.5L7.2804 16.501L6.51965 12.6963C6.46091 12.4026 6.53685 12.0979 6.72668 11.8662C6.91662 11.6346 7.20055 11.5 7.50012 11.5H9.00012ZM3.88489 17.0693C3.54774 17.4815 3.2527 17.906 3.09485 18.2686C2.93109 18.6448 2.99171 18.9389 3.11438 19.1221C3.2354 19.3026 3.50192 19.5 4.00012 19.5H18.9913L17.6671 18.5098L4.99915 18.5C4.52743 18.4996 4.11984 18.1694 4.02161 17.708L3.88489 17.0693ZM9.31946 16.5029L11.9181 16.5049L8.74329 13.6182L9.31946 16.5029ZM12.2501 2.5C17.885 2.50005 22.5001 6.95155 22.5001 12.5C22.5001 13.0523 22.0524 13.4999 21.5001 13.5C20.9478 13.5 20.5001 13.0523 20.5001 12.5C20.5001 8.10742 16.8324 4.50005 12.2501 4.5C7.66775 4.5 4.00012 8.10738 4.00012 12.5C4.00012 13.0523 3.55236 13.4999 3.00012 13.5C2.44784 13.5 2.00012 13.0523 2.00012 12.5C2.00012 6.95152 6.61519 2.5 12.2501 2.5Z" fill="#9E9E9E"/>
</g>
</svg>
