<svg width="24" height="24" viewBox="0 0 24 24" fill="none" xmlns="http://www.w3.org/2000/svg">
<g id="icons/Travels/flight-safety">
<path id="Union" d="M12.2386 1.53613C12.441 1.48055 12.6569 1.48926 12.8549 1.56348L19.8519 4.19141C20.2418 4.33801 20.5004 4.71142 20.5004 5.12793V8.6416L22.2172 9.02344C22.6292 9.11529 22.94 9.45703 22.9926 9.87598C23.0448 10.2948 22.8281 10.7019 22.4515 10.8926H22.4506L22.4486 10.8936C22.4468 10.8945 22.4435 10.8966 22.4398 10.8984C22.4324 10.9022 22.421 10.9077 22.4066 10.915C22.3771 10.93 22.3329 10.9525 22.2758 10.9814C22.161 11.0395 21.9917 11.1247 21.7767 11.2334C21.4449 11.4012 21.0015 11.6244 20.475 11.8906C20.3378 14.576 19.5637 16.7338 18.2582 18.459C16.9021 20.2508 15.0304 21.5041 12.8949 22.4189C12.6436 22.5266 12.3591 22.5264 12.1078 22.4189C10.0744 21.5481 8.28074 20.3701 6.94373 18.7148C6.14596 19.1147 5.57711 19.3996 5.34705 19.5107C4.35715 19.9889 3.29299 19.983 2.43494 19.4951C1.57525 19.006 1.04347 18.099 1.00134 17.04C0.965206 16.1273 1.21661 15.0705 1.43884 14.3145C1.55444 13.9212 1.67173 13.5781 1.76013 13.333C1.80445 13.2102 1.84179 13.1105 1.86853 13.041C1.88185 13.0064 1.89314 12.9792 1.90076 12.96C1.90448 12.9505 1.90735 12.943 1.90955 12.9375C1.91063 12.9348 1.9118 12.9323 1.91248 12.9307V12.9287L1.91345 12.9277V12.9268L1.95251 12.8428C2.1635 12.4347 2.63005 12.2193 3.08337 12.333C3.35479 12.4013 3.54717 12.5591 3.62244 12.623C3.72359 12.7091 3.81661 12.8064 3.89392 12.8926C4.04891 13.0653 4.22109 13.2833 4.37927 13.4854C4.51776 13.6623 4.65247 13.8317 4.77966 13.9883C4.59551 13.0694 4.5004 12.0801 4.50037 11.0146V5.12793C4.50037 4.71122 4.7587 4.33787 5.1488 4.19141L12.1527 1.56348L12.2386 1.53613ZM14.4554 14.9326C12.4697 15.935 10.435 16.9596 8.78455 17.79C9.74994 18.8661 11.0027 19.7177 12.5013 20.4053C14.2426 19.6061 15.6528 18.5873 16.6635 17.252C17.5161 16.1253 18.1155 14.7277 18.3666 12.9561C17.1768 13.5572 15.8266 14.2404 14.4554 14.9326ZM5.07458 16.2139C4.70532 16.3951 4.26194 16.3313 3.95837 16.0537C3.71669 15.8325 3.47244 15.5491 3.24939 15.2764C3.09252 15.8806 2.98108 16.4953 2.99939 16.96C3.0161 17.3809 3.20869 17.6332 3.42419 17.7559C3.64134 17.8792 4.00375 17.9385 4.47693 17.71C5.19943 17.3608 9.4587 15.2148 13.5541 13.1475C15.5835 12.123 17.5681 11.1193 19.0521 10.3691L17.6244 10.0518L5.07458 16.2139ZM6.50037 5.82031V11.0146C6.50039 11.8047 6.55884 12.5318 6.66833 13.2021L8.72693 12.1904L7.60583 9.94727C7.35885 9.45329 7.55913 8.85246 8.0531 8.60547L9.0531 8.10547L9.14392 8.06543C9.35867 7.98361 9.59684 7.97845 9.81677 8.05176L14.1908 9.50977L17.059 8.10254C17.2628 8.00255 17.4955 7.97418 17.7172 8.02344L18.5004 8.19727V5.81934L12.5023 3.56836L6.50037 5.82031ZM10.5228 11.3096L11.6342 10.7646L9.974 10.2109L10.5228 11.3096Z" fill="#9E9E9E"/>
</g>
</svg>
