<svg width="24" height="24" viewBox="0 0 24 24" fill="none" xmlns="http://www.w3.org/2000/svg">
<g id="icons/Travels/frigate">
<path id="Union" d="M12.9999 1C14.3806 1 15.4999 2.1193 15.4999 3.5V5H18.4999C19.0522 5 19.4999 5.44772 19.4999 6V11.3438L21.3622 12.0684C21.8591 12.2616 22.1167 12.8106 21.9481 13.3164L19.4569 20.7891C19.7502 20.718 20.0445 20.6352 20.3241 20.5469C20.6965 20.4292 21.0213 20.311 21.2518 20.2227C21.3666 20.1787 21.4574 20.1421 21.5184 20.1172C21.5488 20.1048 21.572 20.0951 21.5868 20.0889C21.5939 20.0859 21.5992 20.0834 21.6024 20.082C21.6035 20.0816 21.6047 20.0813 21.6053 20.0811C22.1128 19.8634 22.701 20.0982 22.9188 20.6055C23.1365 21.1129 22.9017 21.7011 22.3944 21.9189H22.3934L22.3925 21.9199L22.3905 21.9209C22.3888 21.9216 22.3864 21.9227 22.3837 21.9238C22.3779 21.9263 22.3693 21.9294 22.3593 21.9336C22.3391 21.942 22.3105 21.954 22.2743 21.9688C22.2014 21.9985 22.0971 22.0403 21.9677 22.0898C21.7089 22.189 21.3455 22.3208 20.9266 22.4531C20.1142 22.7097 18.9935 23 17.9999 23C17.9963 23 17.9927 22.999 17.9891 22.999C17.9823 22.9989 17.9755 22.9992 17.9686 22.999C16.5855 22.9948 15.6032 22.7127 14.7255 22.4619C13.86 22.2146 13.0999 22 11.9999 22C10.8999 22 10.1397 22.2146 9.27429 22.4619C8.39649 22.7127 7.41438 22.9948 6.03113 22.999C6.02428 22.9992 6.01745 22.9989 6.01062 22.999C6.0071 22.999 6.0034 23 5.99988 23C5.00617 23 3.88553 22.7097 3.07312 22.4531C2.65425 22.3208 2.2908 22.189 2.0321 22.0898C1.90268 22.0402 1.79833 21.9985 1.72546 21.9688C1.68929 21.954 1.66064 21.942 1.6405 21.9336C1.63047 21.9294 1.62182 21.9263 1.61609 21.9238C1.61334 21.9227 1.61096 21.9216 1.60925 21.9209L1.6073 21.9199L1.60632 21.9189H1.60535C1.09814 21.7011 0.863366 21.1129 1.08093 20.6055C1.29872 20.0982 1.88699 19.8635 2.39441 20.0811L2.39343 20.082C2.39393 20.0822 2.39585 20.0815 2.39734 20.082C2.40051 20.0834 2.40586 20.0859 2.41296 20.0889C2.42771 20.095 2.45096 20.1048 2.48132 20.1172C2.54235 20.1421 2.63318 20.1787 2.74792 20.2227C2.97848 20.311 3.30323 20.4292 3.67566 20.5469C3.95494 20.6351 4.24891 20.7181 4.54187 20.7891L2.05164 13.3164C1.88308 12.8106 2.14076 12.2617 2.63757 12.0684L4.49988 11.3438V6C4.49988 5.44777 4.94767 5.0001 5.49988 5H8.49988V3.5C8.49988 2.11936 9.61921 1.0001 10.9999 1H12.9999ZM4.2489 13.5859L6.70886 20.9668C7.45427 20.8983 8.05863 20.7286 8.72546 20.5381C9.38332 20.3501 10.0999 20.144 10.9999 20.0508V10.9609L4.2489 13.5859ZM12.9999 20.0508C13.8999 20.144 14.6164 20.3501 15.2743 20.5381C15.9408 20.7285 16.5451 20.8982 17.2899 20.9668L19.7499 13.5859L12.9999 10.9609V20.0508ZM6.49988 10.543L11.6405 8.56641C11.6534 8.56146 11.6666 8.55713 11.6796 8.55273C11.69 8.54921 11.7003 8.54518 11.7108 8.54199C11.7327 8.53539 11.755 8.53046 11.7772 8.52539C11.787 8.52317 11.7967 8.52049 11.8065 8.51855C11.8295 8.51403 11.8527 8.51071 11.8759 8.50781C11.8801 8.50729 11.8843 8.50633 11.8885 8.50586C11.8905 8.50564 11.8924 8.50509 11.8944 8.50488C11.8964 8.50468 11.8983 8.5041 11.9003 8.50391C11.9444 8.4995 11.9888 8.49952 12.0331 8.50098C12.0409 8.50125 12.0487 8.5015 12.0565 8.50195C12.0699 8.50271 12.0833 8.50262 12.0966 8.50391C12.1087 8.50507 12.1207 8.5072 12.1327 8.50879C12.1536 8.51158 12.1745 8.51445 12.1952 8.51855C12.2038 8.52026 12.2121 8.52347 12.2206 8.52539C12.2421 8.53025 12.2638 8.53471 12.285 8.54102C12.3009 8.54571 12.3164 8.55119 12.3319 8.55664C12.341 8.55985 12.3502 8.56293 12.3593 8.56641L17.4999 10.543V7H6.49988V10.543ZM10.9999 3C10.7238 3.0001 10.4999 3.22391 10.4999 3.5V5H13.4999V3.5C13.4999 3.22385 13.276 3 12.9999 3H10.9999Z" fill="#9E9E9E"/>
</g>
</svg>
