<svg width="24" height="24" viewBox="0 0 24 24" fill="none" xmlns="http://www.w3.org/2000/svg">
<g id="icons/Travels/gate-machine">
<path id="Union" d="M4.5 2C5.05228 2 5.5 2.44772 5.5 3V6.5H9C9.55228 6.5 10 6.94772 10 7.5C10 8.05228 9.55228 8.5 9 8.5H5.5V9.5H10C10.4227 9.5 10.7993 9.76599 10.9414 10.1641C11.0834 10.5621 10.9599 11.0068 10.6328 11.2744L5.5 15.4736V16H6C6.55228 16 7 16.4477 7 17V21C7 21.5523 6.55228 22 6 22H3C2.44772 22 2 21.5523 2 21V17C2 16.4477 2.44772 16 3 16H3.5V3C3.5 2.44772 3.94772 2 4.5 2ZM12 18C12.5523 18 13 18.4477 13 19V21C13 21.5523 12.5523 22 12 22C11.4477 22 11 21.5523 11 21V19C11 18.4477 11.4477 18 12 18ZM19.5 2C20.0523 2 20.5 2.44772 20.5 3V16H21C21.5523 16 22 16.4477 22 17V21C22 21.5523 21.5523 22 21 22H18C17.4477 22 17 21.5523 17 21V17C17 16.4477 17.4477 16 18 16H18.5V15.4736L13.3672 11.2744C13.0401 11.0068 12.9166 10.5621 13.0586 10.1641C13.2007 9.76599 13.5773 9.5 14 9.5H18.5V8.5H15C14.4477 8.5 14 8.05228 14 7.5C14 6.94772 14.4477 6.5 15 6.5H18.5V3C18.5 2.44772 18.9477 2 19.5 2ZM4 20H5V18H4V20ZM19 20H20V18H19V20ZM12 12C12.5523 12 13 12.4477 13 13V15C13 15.5523 12.5523 16 12 16C11.4477 16 11 15.5523 11 15V13C11 12.4477 11.4477 12 12 12ZM5.5 12.8896L7.19824 11.5H5.5V12.8896ZM18.5 12.8896V11.5H16.8018L18.5 12.8896ZM12 6C12.5523 6 13 6.44772 13 7V8.5C13 9.05228 12.5523 9.5 12 9.5C11.4477 9.5 11 9.05228 11 8.5V7C11 6.44772 11.4477 6 12 6ZM12 2C12.5523 2 13 2.44772 13 3V4C13 4.55228 12.5523 5 12 5C11.4477 5 11 4.55228 11 4V3C11 2.44772 11.4477 2 12 2Z" fill="#9E9E9E"/>
</g>
</svg>
