<svg width="24" height="24" viewBox="0 0 24 24" fill="none" xmlns="http://www.w3.org/2000/svg">
<g id="icons/Travels/globe">
<path id="Union" d="M18.1854 1.31348C18.5645 0.91199 19.1979 0.893632 19.5995 1.27246C21.692 3.2479 22.9998 6.05155 22.9999 9.1582C22.9997 14.8626 18.5941 19.534 12.9999 19.9639V21H14.9999C15.5521 21 15.9998 21.4478 15.9999 22C15.9999 22.5523 15.5522 23 14.9999 23H8.99988C8.44766 22.9999 7.99988 22.5522 7.99988 22C7.99996 21.4478 8.44771 21.0001 8.99988 21H10.9999V19.9375C8.35853 19.6568 5.99899 18.4285 4.27234 16.5996C3.89351 16.198 3.91187 15.5646 4.31335 15.1855C4.7149 14.8066 5.34832 14.8252 5.72742 15.2266C7.34078 16.9354 9.62445 18 12.1581 18C17.0412 17.9998 20.9997 14.0413 20.9999 9.1582C20.9998 6.62457 19.9353 4.34088 18.2264 2.72754C17.825 2.34844 17.8065 1.71503 18.1854 1.31348ZM11.9999 1C16.4181 1 19.9998 4.58179 19.9999 9C19.9999 13.4183 16.4182 17 11.9999 17C7.58166 16.9999 3.99988 13.4182 3.99988 9C3.99996 4.58184 7.58171 1.00008 11.9999 1ZM11.9999 3C8.68628 3.00008 5.99996 5.68641 5.99988 9C5.99988 12.3137 8.68623 14.9999 11.9999 15C15.3136 15 17.9999 12.3137 17.9999 9C17.9998 5.68636 15.3135 3 11.9999 3Z" fill="#9E9E9E"/>
</g>
</svg>
