<svg width="24" height="24" viewBox="0 0 24 24" fill="none" xmlns="http://www.w3.org/2000/svg">
<g id="icons/Travels/gps">
<path id="Union" d="M12 1C18.0751 1 23 5.92487 23 12C23 18.0751 18.0751 23 12 23C5.92487 23 1 18.0751 1 12C1 5.92487 5.92487 1 12 1ZM12 3C7.02943 3 3 7.02943 3 12C3 16.9706 7.02943 21 12 21C16.9706 21 21 16.9706 21 12C21 7.02943 16.9706 3 12 3ZM12 5.5C12.4303 5.5 12.812 5.77541 12.9482 6.18359L16.4482 16.6836C16.5852 17.0945 16.4422 17.5474 16.0938 17.8047C15.7454 18.0617 15.2713 18.0651 14.9189 17.8135L12 15.7285L9.08105 17.8135C8.72872 18.0651 8.25463 18.0617 7.90625 17.8047C7.55784 17.5474 7.41479 17.0945 7.55176 16.6836L11.0518 6.18359L11.1133 6.03711C11.2835 5.7108 11.6234 5.5 12 5.5ZM10.4199 14.3994L11.4189 13.6865L11.5547 13.6045C11.8817 13.4418 12.277 13.4693 12.5811 13.6865L13.5791 14.3994L12 9.66113L10.4199 14.3994Z" fill="#9E9E9E"/>
</g>
</svg>
