<svg width="24" height="24" viewBox="0 0 24 24" fill="none" xmlns="http://www.w3.org/2000/svg">
<g id="icons/Travels/guide-board">
<path id="Union" d="M11.9998 1C12.552 1 12.9998 1.44772 12.9998 2V3H19.7722C20.1198 3 20.4428 3.18046 20.6248 3.47656L21.8523 5.47656C22.0492 5.79744 22.0492 6.20256 21.8523 6.52344L20.6248 8.52344C20.4428 8.81954 20.1198 9 19.7722 9H12.9998V20H15.9998C16.552 20 16.9998 20.4477 16.9998 21C16.9998 21.5523 16.552 22 15.9998 22H7.99976C7.44757 21.9999 6.99976 21.5522 6.99976 21C6.99976 20.4478 7.44757 20.0001 7.99976 20H10.9998V16H4.22729C3.87979 15.9999 3.55661 15.8195 3.37476 15.5234L2.14722 13.5234C1.95039 13.2026 1.95039 12.7974 2.14722 12.4766L3.37476 10.4766L3.44897 10.3711C3.63729 10.1381 3.92314 10.0001 4.22729 10H10.9998V2C10.9998 1.44779 11.4476 1.00012 11.9998 1ZM4.17261 13L4.78687 14H10.9998V12H4.78687L4.17261 13ZM12.9998 7H19.2126L19.8259 6L19.2126 5H12.9998V7Z" fill="#9E9E9E"/>
</g>
</svg>
