<svg width="24" height="24" viewBox="0 0 24 24" fill="none" xmlns="http://www.w3.org/2000/svg">
<g id="icons/Travels/high-speed-rail">
<path id="Union" d="M14 21C14.5523 21 15 21.4477 15 22C15 22.5523 14.5523 23 14 23H10C9.44772 23 9 22.5523 9 22C9 21.4477 9.44772 21 10 21H14ZM12 1C14.5971 1 16.7137 2.29751 18.1504 3.75879C18.8722 4.49299 19.4452 5.29081 19.8428 6.03516C20.2247 6.75024 20.5 7.51926 20.5 8.18066V15C20.5 16.8504 19.494 18.4645 18 19.3291V21C18 21.5523 17.5523 22 17 22C16.4477 22 16 21.5523 16 21V19.9746C15.8355 19.9909 15.6688 20 15.5 20H8.5C8.33123 20 8.16448 19.9909 8 19.9746V21C8 21.5523 7.55228 22 7 22C6.44772 22 6 21.5523 6 21V19.3291C4.50597 18.4645 3.5 16.8504 3.5 15V8.18066C3.5 7.51926 3.77531 6.75024 4.15723 6.03516C4.55481 5.29081 5.12782 4.49299 5.84961 3.75879C7.28629 2.29751 9.40287 1 12 1ZM5.5 15C5.5 16.6569 6.84313 18 8.5 18H15.5C17.1569 18 18.5 16.6569 18.5 15V11H5.5V15ZM9.5 15C10.0523 15 10.5 15.4477 10.5 16C10.5 16.5523 10.0523 17 9.5 17C8.94773 17 8.5 16.5523 8.5 16C8.5 15.4477 8.94773 15 9.5 15ZM14.5 15C15.0523 15 15.5 15.4477 15.5 16C15.5 16.5523 15.0523 17 14.5 17C13.9477 17 13.5 16.5523 13.5 16C13.5 15.4477 13.9477 15 14.5 15ZM12 3C10.0973 3 8.46371 3.95239 7.27539 5.16113C6.68481 5.76189 6.22642 6.40462 5.9209 6.97656C5.59977 7.57777 5.5 8.00193 5.5 8.18066V9H18.5V8.18066C18.5 8.00193 18.4002 7.57777 18.0791 6.97656C17.7736 6.40462 17.3152 5.76189 16.7246 5.16113C15.5363 3.95239 13.9027 3 12 3ZM13 4.5C13.5523 4.5 14 4.94772 14 5.5C14 6.05228 13.5523 6.5 13 6.5H11C10.4477 6.5 10 6.05228 10 5.5C10 4.94772 10.4477 4.5 11 4.5H13Z" fill="#9E9E9E"/>
</g>
</svg>
