<svg width="24" height="24" viewBox="0 0 24 24" fill="none" xmlns="http://www.w3.org/2000/svg">
<g id="icons/Travels/homestay">
<path id="Union" d="M4.08496 12.0039C4.76219 12.0614 6.10436 12.3333 7.29395 12.791C7.88815 13.0196 8.50949 13.3189 9 13.7041C9.47028 14.0735 10.0001 14.6685 10 15.5C9.99992 16.1363 9.7639 16.6955 9.28027 17.0752C8.85173 17.4116 8.33917 17.5174 7.94727 17.5557C7.54097 17.5953 7.12317 17.5735 6.79102 17.5498C6.41534 17.523 6.18744 17.4989 6.00586 17.5C5.97586 17.5002 5.94591 17.4986 5.91602 17.4961C5.58057 17.4676 4.97021 17.4738 4.48828 17.6191C4.25156 17.6905 4.1205 17.7739 4.05957 17.834C4.02572 17.8675 4.00154 17.8988 4 17.9902C3.9968 17.9639 3.98685 18.0548 4.23438 18.2568C4.49846 18.4723 4.93303 18.7077 5.54395 18.9404C6.75626 19.4022 8.42287 19.7642 10.1416 20.0098C11.8358 20.2518 14.0411 20.3762 15.8467 20.4385C16.7445 20.4694 17.5345 20.4845 18.0996 20.4922C18.3818 20.496 18.6077 20.4981 18.7627 20.499C18.8402 20.4995 18.9003 20.4999 18.9404 20.5H19C19.5523 20.5 20 20.9477 20 21.5C20 22.0177 19.6067 22.4438 19.1025 22.4951L19 22.5H18.9346C18.8924 22.4999 18.8306 22.4995 18.751 22.499C18.5915 22.498 18.3602 22.4961 18.0723 22.4922C17.4967 22.4843 16.6929 22.4681 15.7783 22.4365C13.959 22.3738 11.6641 22.2482 9.8584 21.9902C8.07749 21.7358 6.24457 21.3476 4.83203 20.8096C4.13077 20.5424 3.47131 20.2151 2.96973 19.8057C2.47333 19.4005 2.00009 18.801 2 18C1.99997 17.3491 2.25097 16.8099 2.65332 16.4121C3.0299 16.0398 3.49851 15.8295 3.91113 15.7051C4.68879 15.4706 5.53162 15.4661 6.0127 15.5C6.29501 15.5 6.66527 15.5355 6.93359 15.5547C7.2512 15.5773 7.52582 15.5876 7.75293 15.5654C7.87752 15.5533 7.95438 15.5338 7.99805 15.5195C7.98354 15.4906 7.93177 15.4086 7.76465 15.2773C7.49886 15.0686 7.08691 14.8547 6.57617 14.6582C5.55585 14.2656 4.39811 14.0371 3.91602 13.9961C3.36571 13.9494 2.95716 13.4653 3.00391 12.915C3.05081 12.3649 3.53477 11.9572 4.08496 12.0039ZM16 12C16.5523 12 17 12.4477 17 13V17C17 17.5523 16.5523 18 16 18C15.4477 18 15 17.5523 15 17V13C15 12.4477 15.4477 12 16 12ZM13 12C13.5523 12 14 12.4477 14 13V15C14 15.5523 13.5523 16 13 16C12.4477 16 12 15.5523 12 15V13C12 12.4477 12.4477 12 13 12ZM21 7C21.5523 7 22 7.44772 22 8V11C22 11.5523 21.5523 12 21 12C20.4477 12 20 11.5523 20 11V8C20 7.44772 20.4477 7 21 7ZM15.0986 6.00488C15.3276 6.02757 15.5429 6.12883 15.707 6.29297L18.707 9.29297C18.993 9.57897 19.0786 10.0091 18.9238 10.3828C18.769 10.7564 18.4044 11 18 11H10C9.73478 11 9.4805 10.8946 9.29297 10.707L7 8.41406L4.70703 10.707C4.31651 11.0976 3.68349 11.0976 3.29297 10.707C2.90244 10.3165 2.90244 9.68349 3.29297 9.29297L6.29297 6.29297C6.30065 6.28529 6.30854 6.27789 6.31641 6.27051C6.32567 6.26183 6.33515 6.25343 6.34473 6.24512C6.3736 6.22 6.40367 6.19703 6.43457 6.17578C6.43859 6.17302 6.44223 6.16969 6.44629 6.16699C6.48218 6.14308 6.51958 6.12229 6.55762 6.10352C6.56767 6.09855 6.57767 6.09349 6.58789 6.08887C6.66577 6.05365 6.74717 6.02888 6.83008 6.01465C6.84525 6.01204 6.86062 6.01071 6.87598 6.00879C6.91719 6.00366 6.95853 6 7 6H15L15.0986 6.00488ZM10.4141 9H15.5859L14.5859 8H9.41406L10.4141 9ZM19.0986 2.00488C19.3276 2.02757 19.5429 2.12883 19.707 2.29297L21.707 4.29297C22.0976 4.68349 22.0976 5.31651 21.707 5.70703C21.3165 6.09756 20.6835 6.09756 20.293 5.70703L18.5859 4H14C13.4477 4 13 3.55228 13 3C13 2.44772 13.4477 2 14 2H19L19.0986 2.00488Z" fill="#9E9E9E"/>
</g>
</svg>
