<svg width="24" height="24" viewBox="0 0 24 24" fill="none" xmlns="http://www.w3.org/2000/svg">
<g id="icons/Travels/hot-air-balloon">
<path id="Union" d="M12.375 1.0083C12.4964 0.99308 12.62 0.999597 12.7393 1.02881C16.1997 1.2833 18.7744 3.3157 19.8896 6.0415C19.9231 6.10619 19.9476 6.17353 19.9658 6.2417C20.3132 7.15961 20.5 8.15024 20.5 9.17529C20.5 11.83 19.3855 14.2661 17.8086 16.0347C17.2629 16.6466 16.6464 17.1903 15.9873 17.6421C15.9848 17.6592 15.9839 17.6767 15.9805 17.6938L15.9775 17.7065L15.9785 17.7075L15.2812 21.2407C15.2312 21.4942 15.0848 21.7186 14.873 21.8667H14.8721V21.8677L14.8701 21.8687C14.8688 21.8696 14.8663 21.8712 14.8643 21.8726C14.8603 21.8753 14.855 21.879 14.8486 21.8833C14.8354 21.8923 14.8168 21.9052 14.7939 21.9204C14.7481 21.9509 14.6832 21.9935 14.6035 22.0435C14.4448 22.143 14.2212 22.2763 13.9629 22.4106C13.4947 22.6541 12.7313 22.9995 12 22.9995C11.2687 22.9995 10.5053 22.6541 10.0371 22.4106C9.77875 22.2763 9.55518 22.143 9.39648 22.0435C9.31682 21.9935 9.25189 21.9509 9.20605 21.9204C9.18316 21.9052 9.16461 21.8923 9.15137 21.8833C9.14503 21.879 9.13971 21.8753 9.13574 21.8726C9.13374 21.8712 9.13122 21.8696 9.12988 21.8687L9.12793 21.8677V21.8667C8.91616 21.7186 8.76877 21.4942 8.71875 21.2407L8.01855 17.6929C8.01524 17.676 8.01317 17.659 8.01074 17.6421C7.35211 17.1905 6.7367 16.6462 6.19141 16.0347C4.85886 14.5402 3.85871 12.569 3.58008 10.3921C3.50104 10.2064 3.47868 9.99782 3.52148 9.79443C3.50815 9.58961 3.5 9.38301 3.5 9.17529C3.50015 4.99521 6.56465 1.37457 11.2598 1.02881C11.3811 0.998958 11.5067 0.992245 11.6299 1.0083C11.7522 1.00387 11.8756 0.999512 12 0.999512C12.1261 0.999512 12.251 1.00375 12.375 1.0083ZM11.9092 3.00146C10.1002 4.84292 9.00008 7.28539 9 9.99951C9 10.2423 9.01282 10.4837 9.03125 10.7231C9.10242 10.7425 9.17253 10.7624 9.24219 10.7798C10.1357 11.0032 11.0483 11.062 11.75 11.062C12.0973 11.062 12.3862 11.0479 12.585 11.0337C12.6839 11.0266 12.7607 11.0191 12.8105 11.0142C12.835 11.0117 12.8532 11.0095 12.8643 11.0083C12.8696 11.0077 12.874 11.0075 12.876 11.0073C13.4237 10.9391 13.9235 11.3278 13.9922 11.8755C14.0606 12.4233 13.6718 12.923 13.124 12.9917L13 11.9995L13.123 12.9917H13.1221L13.1191 12.9927C13.1173 12.9929 13.1149 12.9933 13.1123 12.9937C13.1065 12.9943 13.0983 12.9945 13.0889 12.9956C13.0697 12.9978 13.0423 13.001 13.0088 13.0044C12.9416 13.0111 12.8464 13.0193 12.7275 13.0278C12.489 13.0449 12.152 13.062 11.75 13.062C11.1182 13.062 10.3047 13.0192 9.44434 12.8647C9.92687 14.406 10.7791 15.8102 11.8848 16.9673L12.001 16.9868L12.0791 16.9731C13.6445 15.1737 15 12.4178 15 9.99951C15 9.71368 14.9814 9.42437 14.9473 9.1333C14.0503 9.26226 13.1476 9.24793 12.4404 9.19678C11.9712 9.16283 11.5678 9.11146 11.2803 9.06885C11.1362 9.04749 11.0198 9.02854 10.9385 9.01416C10.8979 9.00698 10.8656 9.0009 10.8428 8.99658C10.8314 8.99444 10.8221 8.993 10.8154 8.9917C10.8123 8.99108 10.8097 8.99015 10.8076 8.98975C10.8066 8.98952 10.8054 8.98892 10.8047 8.98877H10.8027C10.2615 8.87983 9.91078 8.35238 10.0195 7.81104C10.1285 7.27017 10.6553 6.91956 11.1963 7.02783C11.1967 7.02791 11.1979 7.02854 11.1992 7.02881C11.2023 7.02941 11.2076 7.03036 11.2148 7.03174C11.2301 7.03462 11.2547 7.03871 11.2871 7.04443C11.3519 7.05589 11.4494 7.07197 11.5732 7.09033C11.8221 7.12722 12.1752 7.17201 12.585 7.20166C13.1791 7.24463 13.8536 7.25116 14.4912 7.17627C13.9591 5.6121 13.0632 4.12125 12.0635 3.00049C12.0424 3.00033 12.0212 2.99951 12 2.99951C11.9696 2.99951 11.9394 3.00113 11.9092 3.00146ZM18.3877 7.97998C17.9775 8.1827 17.4705 8.41157 16.8965 8.61963C16.9632 9.07937 17 9.54058 17 9.99951C17 11.882 16.3709 13.8295 15.4668 15.5298C15.7595 15.2826 16.0453 15.0077 16.3164 14.7036C17.6142 13.248 18.5 11.2718 18.5 9.17529C18.5 8.76883 18.4617 8.36891 18.3877 7.97998ZM5.94141 11.7446C6.32492 12.8528 6.93559 13.8646 7.68359 14.7036C7.87833 14.922 8.08149 15.1247 8.28809 15.314C7.80196 14.3535 7.4364 13.3232 7.22168 12.2437C6.7716 12.0826 6.33599 11.9087 5.94141 11.7446ZM8.80566 3.7251C6.71639 4.7827 5.50011 6.87468 5.5 9.17529C5.5 9.24011 5.5032 9.30506 5.50488 9.36963C5.74497 9.48119 6.04907 9.62042 6.39355 9.76807C6.58633 9.85069 6.79033 9.93451 7 10.019C6.99999 10.0126 7 10.0059 7 9.99951C7.00006 7.69073 7.66367 5.55274 8.80566 3.7251ZM15.0117 3.63525C15.5838 4.56262 16.0779 5.58821 16.4297 6.65771C16.8495 6.49604 17.2274 6.32528 17.542 6.16846C17.594 6.14252 17.6432 6.11515 17.6914 6.09033C17.094 5.04528 16.183 4.18116 15.0117 3.63525Z" fill="#9E9E9E"/>
</g>
</svg>
