<svg width="24" height="24" viewBox="0 0 24 24" fill="none" xmlns="http://www.w3.org/2000/svg">
<g id="icons/Travels/in-flight">
<path id="Union" d="M12.0002 12.4995C15.9399 12.4997 19.0001 15.9345 19.0002 19.9995C19.0002 20.5517 18.5524 20.9994 18.0002 20.9995C17.448 20.9995 17.0002 20.5518 17.0002 19.9995C17.0002 19.4856 16.9359 18.9917 16.8186 18.5249C16.8134 18.563 16.8102 18.6024 16.803 18.6421C16.7377 18.9979 16.5969 19.3665 16.3577 19.7651C15.816 20.6676 14.9264 21.1873 14.0315 21.3579C13.1476 21.5263 12.1622 21.3712 11.4006 20.8003C10.6497 20.2371 10.3156 19.39 10.1174 18.9194C10.09 18.8544 10.0637 18.7967 10.0413 18.7446C9.95793 18.8672 9.85978 19.0155 9.78052 19.1206C9.61238 19.3435 9.37753 19.6174 9.05493 19.8325C8.3732 20.2869 7.57057 20.2591 6.99438 20.0981C6.94494 20.6041 6.51918 20.9994 6.00024 20.9995C5.44796 20.9995 5.00024 20.5518 5.00024 19.9995C5.00038 15.9344 8.06049 12.4995 12.0002 12.4995ZM2.65649 17.5083C3.20552 17.5662 3.60369 18.0579 3.54614 18.6069L3.44165 19.6011C3.38393 20.1502 2.89214 20.5492 2.34302 20.4917C1.79376 20.434 1.39564 19.9413 1.45337 19.3921L1.55786 18.3979C1.61573 17.8489 2.10735 17.4506 2.65649 17.5083ZM20.843 17.5083C21.3921 17.4508 21.8838 17.8489 21.9417 18.3979L22.0461 19.3921C22.1039 19.9412 21.7056 20.4338 21.1565 20.4917C20.6073 20.5494 20.1156 20.1503 20.0579 19.6011L19.9534 18.6069C19.8958 18.0578 20.2938 17.566 20.843 17.5083ZM12.0002 14.4995C9.93482 14.4995 8.09186 15.9092 7.34888 17.9751C7.38041 18.0261 7.40879 18.0797 7.43091 18.1362C7.45472 18.1467 7.48174 18.1598 7.51294 18.1694C7.61085 18.1995 7.71407 18.2116 7.80103 18.2056C7.88662 18.1995 7.93013 18.1787 7.94556 18.1685C7.9979 18.1335 8.07397 18.0622 8.18384 17.9165C8.32481 17.7296 8.36964 17.6412 8.552 17.3843C8.6831 17.1996 8.89614 16.9155 9.20044 16.7114C9.51669 16.4994 9.90701 16.3899 10.3342 16.4595L10.5198 16.5005L10.7063 16.5649C11.1205 16.737 11.3837 17.0483 11.5481 17.3032C11.727 17.5808 11.8623 17.9105 11.9602 18.1431C12.1945 18.6994 12.351 19.014 12.5999 19.2007C12.8381 19.3792 13.2285 19.4745 13.6565 19.3931C14.0736 19.3136 14.4346 19.0828 14.6428 18.7358C14.7785 18.5097 14.8207 18.3661 14.8362 18.2817C14.8517 18.1972 14.8503 18.1203 14.8372 17.981C14.8267 17.8707 14.7869 17.5792 14.8186 17.2856C14.8558 16.9415 14.9796 16.609 15.2131 16.2769C15.2829 16.1777 15.3578 16.0887 15.4358 16.0083C14.5286 15.0674 13.3096 14.4996 12.0002 14.4995ZM3.66333 13.5669C3.93945 13.0886 4.55126 12.9246 5.02954 13.2007C5.50757 13.4769 5.67177 14.0887 5.39575 14.5669L4.89575 15.4331C4.61968 15.9112 4.00774 16.0751 3.52954 15.7993C3.05132 15.5232 2.88738 14.9114 3.16333 14.4331L3.66333 13.5669ZM19.0295 13.2007C19.5078 12.9247 20.1197 13.0887 20.3958 13.5669L20.8958 14.4331C21.1715 14.9113 21.0076 15.5232 20.5295 15.7993C20.0514 16.0753 19.4395 15.9111 19.1633 15.4331L18.6633 14.5669C18.3872 14.0886 18.5513 13.4768 19.0295 13.2007ZM7.39478 10.3872C7.86302 10.0949 8.48005 10.2365 8.77271 10.7046C9.06529 11.1728 8.92234 11.7897 8.45435 12.0825L7.60669 12.6128C7.13833 12.9055 6.52144 12.7628 6.22876 12.2944C5.9362 11.8261 6.07792 11.2092 6.54614 10.9165L7.39478 10.3872ZM15.2288 10.7046C15.5216 10.2368 16.1386 10.0947 16.6067 10.3872L17.4543 10.9165C17.9224 11.2091 18.0649 11.8262 17.7727 12.2944C17.4801 12.7627 16.8631 12.9053 16.3948 12.6128L15.5461 12.0825C15.0781 11.7897 14.9362 11.1728 15.2288 10.7046ZM12.5002 9.49951C13.0523 9.49967 13.5001 9.94745 13.5002 10.4995C13.5002 11.0517 13.0524 11.4994 12.5002 11.4995H11.5002C10.948 11.4995 10.5002 11.0518 10.5002 10.4995C10.5004 9.94735 10.948 9.49951 11.5002 9.49951H12.5002ZM7.65649 2.56006C7.90323 2.46986 8.17789 2.48 8.41919 2.59131L14.7112 5.49463L20.7649 4.02783C21.3014 3.89798 21.8418 4.22766 21.9719 4.76416C22.1019 5.30073 21.7721 5.84094 21.2356 5.97119L4.74829 9.96729C4.71366 9.97616 4.67891 9.98369 4.6438 9.98877C4.6213 9.99207 4.59881 9.99386 4.57642 9.99561C4.56598 9.9964 4.55561 9.99807 4.54517 9.99854C4.52523 9.99946 4.50538 9.99881 4.4856 9.99854C4.47223 9.99833 4.45889 9.99829 4.44556 9.99756C4.42851 9.99664 4.41166 9.99446 4.39478 9.99268C4.37979 9.99108 4.36475 9.99006 4.34985 9.98779C4.32812 9.98448 4.30675 9.97981 4.2854 9.9751C4.27629 9.9731 4.26711 9.97149 4.25806 9.96924C4.2336 9.96311 4.20962 9.95568 4.18579 9.94775C4.17865 9.94539 4.17139 9.94344 4.16431 9.94092C4.15039 9.93594 4.13695 9.92989 4.12329 9.92432C4.04716 9.89337 3.97396 9.85402 3.90649 9.8042C3.89364 9.79473 3.88178 9.78401 3.86938 9.77393C3.85634 9.76328 3.8429 9.75307 3.83032 9.7417C3.81835 9.73092 3.8076 9.71889 3.79614 9.70752C3.7838 9.69522 3.77082 9.68347 3.75903 9.67041C3.73407 9.64288 3.71062 9.6139 3.68872 9.5835L2.20044 7.59912C1.86923 7.1573 1.95887 6.53103 2.40063 6.19971C2.84243 5.86876 3.46879 5.95825 3.80005 6.3999L4.90454 7.87256L6.84497 7.40186L5.18677 5.08057C5.0168 4.84259 4.95905 4.54212 5.02954 4.2583C5.10012 3.97465 5.29152 3.73571 5.55298 3.60498L7.55298 2.60498L7.65649 2.56006ZM7.49341 4.87061L8.91821 6.86475L11.5042 6.21826L8.01685 4.60889L7.49341 4.87061Z" fill="#9E9E9E"/>
</g>
</svg>
