<svg width="24" height="24" viewBox="0 0 24 24" fill="none" xmlns="http://www.w3.org/2000/svg">
<g id="icons/Travels/international">
<path id="Union" d="M12 1C18.0751 1 23 5.92486 23 12C23 13.7289 22.5994 15.3638 21.8887 16.8193C21.8676 16.872 21.841 16.9225 21.8105 16.9717C19.9947 20.5478 16.2853 23 12 23C5.92487 23 1.00001 18.0751 1 12C1 5.92486 5.92487 1 12 1ZM15.4639 3.92676C15.5057 4.15885 15.5726 4.23659 15.6064 4.27148C15.6758 4.34303 15.7463 4.38205 15.9951 4.53223C16.1983 4.65489 16.5855 4.88985 16.8359 5.34082C17.0951 5.80777 17.1254 6.34004 17.0381 6.89844C16.9446 7.49586 16.7081 8.03034 16.2266 8.38867C15.7861 8.71631 15.283 8.78029 14.9736 8.80957C14.2254 8.88034 13.9655 8.85448 13.6699 9.11133C13.6564 9.123 13.5987 9.1665 13.5869 9.4248C13.5735 9.72133 13.6258 10.0532 13.6865 10.5615C13.7393 11.0033 13.8004 11.6023 13.6768 12.1777C13.5388 12.8188 13.1751 13.4207 12.4629 13.8184C11.7369 14.2235 11.0047 14.1977 10.3828 14.0137C9.79774 13.8405 9.2599 13.513 8.84473 13.248C8.37685 12.9494 8.07059 12.7373 7.78613 12.6094C7.70686 12.5737 7.65222 12.5568 7.61816 12.5479C7.59351 12.5764 7.5587 12.6295 7.52246 12.7344C7.45177 12.9392 7.41171 13.218 7.375 13.6104C7.34271 13.9557 7.31053 14.4346 7.22559 14.8506C7.14078 15.2655 6.96853 15.8194 6.51562 16.2324C5.92917 16.767 5.20446 16.9328 4.4375 16.8779C6.04028 19.3577 8.82768 21 12 21C12.257 21 12.5112 20.986 12.7627 20.9648C12.4116 20.2534 12.293 19.4902 12.5449 18.6982C12.8054 17.8803 13.18 17.4496 13.5186 17.1318C13.8357 16.8342 13.8461 16.8362 13.8867 16.7266C13.8887 16.7153 13.8974 16.6567 13.8916 16.4814C13.8861 16.3144 13.8603 15.9671 13.9004 15.6279C13.9451 15.2504 14.0698 14.8306 14.3691 14.4209C14.6611 14.0216 15.0779 13.6891 15.6172 13.4062C16.5619 12.9109 17.6 13.0125 18.5928 13.4512C19.2317 13.7335 19.8921 14.171 20.5742 14.7393C20.85 13.8754 21 12.9553 21 12C21 8.24075 18.6945 5.02141 15.4209 3.6748C15.4336 3.7536 15.4479 3.83786 15.4639 3.92676ZM17.7852 15.2803C17.1516 15.0003 16.7841 15.0528 16.5459 15.1777C16.1995 15.3595 16.0503 15.5116 15.9844 15.6016C15.9263 15.6812 15.8993 15.7573 15.8867 15.8633C15.8698 16.0074 15.8803 16.1347 15.8896 16.415C15.8962 16.6136 15.9049 16.9356 15.8096 17.2754L15.7617 17.4219C15.5194 18.0754 15.0627 18.4247 14.8867 18.5898C14.7317 18.7354 14.5841 18.8875 14.4512 19.3047C14.373 19.5507 14.3835 19.9406 14.8428 20.5391C16.8926 19.857 18.615 18.4596 19.7119 16.6406C18.9558 15.9536 18.3148 15.5144 17.7852 15.2803ZM12 3C7.02943 3 3 7.02944 3 12C3 12.8915 3.13067 13.7523 3.37207 14.5654C4.62733 15.0688 5.04959 14.8623 5.16797 14.7549C5.1504 14.7711 5.20927 14.7257 5.26562 14.4502C5.32226 14.1729 5.34197 13.8604 5.38281 13.4238C5.41927 13.0342 5.47416 12.5376 5.63184 12.0811C5.79688 11.6034 6.10531 11.082 6.69824 10.7588L6.83301 10.6924C7.50878 10.392 8.17011 10.5895 8.60547 10.7852C9.06411 10.9914 9.55764 11.3297 9.9209 11.5615C10.3369 11.827 10.6634 12.0118 10.9502 12.0967C11.1999 12.1705 11.3491 12.1499 11.4883 12.0723C11.6411 11.987 11.6903 11.9028 11.7217 11.7568C11.7671 11.545 11.7543 11.252 11.7002 10.7988C11.654 10.4123 11.5657 9.84316 11.5889 9.33301C11.6138 8.78584 11.7701 8.11341 12.3574 7.60254C13.263 6.81507 14.3853 6.85627 14.7861 6.81836C14.9084 6.80678 14.9771 6.79198 15.0127 6.7832C15.0257 6.74985 15.0468 6.69015 15.0625 6.58984C15.0843 6.45017 15.0825 6.36601 15.0791 6.32227C15.057 6.30646 15.0209 6.27979 14.9619 6.24414C14.8213 6.15924 14.4654 5.96801 14.1699 5.66309C13.8389 5.32136 13.6018 4.87372 13.4951 4.28125C13.4149 3.83528 13.3608 3.43525 13.3408 3.09961C12.9034 3.03426 12.4557 3 12 3Z" fill="#9E9E9E"/>
</g>
</svg>
