<svg width="24" height="24" viewBox="0 0 24 24" fill="none" xmlns="http://www.w3.org/2000/svg">
<g id="icons/Travels/journey">
<path id="Union" fill-rule="evenodd" clip-rule="evenodd" d="M20.8572 1.83801C21.2123 1.74336 21.5906 1.85077 21.8425 2.11828C22.0944 2.38599 22.1792 2.7705 22.0632 3.11926L21.115 2.80383L22.0632 3.12024V3.12121L22.0623 3.12317L22.0544 3.1466C22.0493 3.16167 22.0414 3.18351 22.032 3.21008C22.013 3.26367 21.9855 3.34061 21.949 3.43762C21.8756 3.63261 21.7662 3.9119 21.6179 4.25793C21.3213 4.95024 20.8677 5.91528 20.238 7.01867C19.9942 7.4459 19.7213 7.89408 19.4216 8.35754C20.1074 9.58343 20.4997 10.9956 20.4998 12.5001C20.4998 16.6827 17.4787 20.1568 13.4998 20.8654C13.3246 20.9665 13.1177 21.0169 12.9011 20.9952C12.8473 20.9898 12.7955 20.9783 12.7449 20.965C12.4994 20.9863 12.2508 21.0001 11.9998 21.0001C9.87606 21 7.93585 20.2194 6.44605 18.9318C5.38335 19.3127 4.35698 19.5202 3.45288 19.4308C2.48927 19.3354 1.6287 18.8919 1.12574 17.9864C0.361602 16.6107 0.938348 15.0926 1.6062 14.0411C2.12303 13.2276 2.82232 12.4801 3.50366 11.923C3.50838 11.8615 3.51847 11.8001 3.53491 11.7394C3.91977 7.40156 7.56194 4.00028 11.9998 4.00012C14.4172 4.00012 16.5976 5.01097 18.1453 6.63098C18.2698 6.42562 18.3892 6.22457 18.5017 6.02746C18.8662 5.38885 19.1639 4.79956 19.4041 4.29407L18.7576 4.46692C18.2242 4.60865 17.6762 4.29119 17.5339 3.75793C17.3919 3.22449 17.7096 2.67667 18.2429 2.5343L20.8572 1.83801ZM18.0925 10.2355C17.1436 11.4609 16.004 12.7106 14.6501 13.8527L14.1199 14.2853C12.1539 15.8385 10.2511 17.1083 8.53784 18.0001C9.54039 18.6326 10.7268 19.0001 11.9998 19.0001C12.0585 19.0001 12.1172 18.9968 12.1755 18.9952C12.2313 18.77 12.3034 18.5122 12.3992 18.2355C12.7118 17.3321 13.2896 16.15 14.3494 15.2413C15.3824 14.3558 16.5455 13.9257 17.4236 13.715C17.8107 13.6221 18.152 13.57 18.4158 13.5402C18.4702 13.2015 18.4998 12.8542 18.4998 12.5001C18.4997 11.7034 18.3548 10.9408 18.0925 10.2355ZM17.6423 15.7247C17.01 15.9037 16.2832 16.2171 15.6511 16.7589C15.0747 17.2531 14.6866 17.9063 14.4285 18.5284C15.7891 17.9798 16.9203 16.9855 17.6423 15.7247ZM3.73902 14.503C3.57871 14.6987 3.42785 14.9038 3.29468 15.1134C2.72158 16.0157 2.67299 16.6513 2.87476 17.0148C2.99657 17.234 3.19948 17.3959 3.64917 17.4405C3.98705 17.474 4.42998 17.431 4.97925 17.2921C4.40841 16.4573 3.98361 15.5155 3.73902 14.503ZM12.1345 6.00305C12.4809 6.481 12.7284 7.08505 12.6765 7.79602C12.6237 8.51698 12.2645 8.96163 12.0212 9.23059C11.9131 9.35017 11.8521 9.41831 11.8191 9.4552C11.8411 9.54758 11.9162 9.82774 11.9275 10.1075C11.9412 10.4493 11.8725 10.8279 11.6404 11.2091C11.4216 11.5682 11.0916 11.8744 10.6775 12.1505C10.12 12.5221 9.09522 13.0093 7.93042 13.2648C7.21773 13.421 6.39158 13.5026 5.56031 13.38C5.72222 14.5765 6.20953 15.6689 6.93042 16.5665C8.63183 15.7689 10.6751 14.4585 12.8806 12.7159C14.5737 11.3783 15.9351 9.83362 17.0046 8.35266C15.839 6.94771 14.0932 6.0428 12.1345 6.00305ZM9.63355 6.44543C7.55777 7.25736 6.00255 9.1052 5.6023 11.3536C6.17586 11.4884 6.83105 11.4587 7.50171 11.3116C8.42453 11.1093 9.21835 10.7196 9.56812 10.4864C9.81774 10.32 9.90242 10.2103 9.92652 10.1739C9.92305 10.1327 9.91295 10.0908 9.86792 9.89465C9.83168 9.73678 9.75081 9.38604 9.84741 8.99524C9.92589 8.67822 10.0749 8.43714 10.2107 8.26086C10.3254 8.11195 10.4848 7.9474 10.5378 7.88879C10.6757 7.73638 10.6773 7.70546 10.6814 7.64953C10.6922 7.49937 10.6434 7.31946 10.4431 7.0841C10.2559 6.86425 9.97453 6.64764 9.63355 6.44543Z" fill="#9E9E9E"/>
</g>
</svg>
