<svg width="24" height="24" viewBox="0 0 24 24" fill="none" xmlns="http://www.w3.org/2000/svg">
<g id="icons/Travels/landscape">
<path id="Union" d="M6.99976 13C7.85104 13 9.50891 13.203 10.9705 13.6348C11.6993 13.8501 12.4521 14.1427 13.0437 14.542C13.6111 14.925 14.2498 15.5623 14.2498 16.5C14.2498 17.2199 13.9687 17.8139 13.4675 18.2266C13.0155 18.5985 12.461 18.7597 11.9988 18.8418C11.5244 18.926 11.0268 18.9459 10.615 18.9561C10.1652 18.9671 9.85195 18.9675 9.60815 18.9941C9.57224 18.998 9.53588 19 9.49976 19C8.9617 19 8.2109 19.0049 7.60522 19.1572C7.31206 19.231 7.14106 19.3194 7.05737 19.3877C7.22595 19.5021 7.51506 19.6419 7.94897 19.7852C8.8528 20.0835 10.1253 20.3236 11.5154 20.5088C14.2823 20.8773 17.3002 21 18.2498 21C18.802 21 19.2498 21.4477 19.2498 22C19.2498 22.5523 18.802 23 18.2498 23C17.2211 23 14.1139 22.8726 11.2507 22.4912C9.82579 22.3014 8.40585 22.0414 7.32202 21.6836C6.78652 21.5068 6.26565 21.2852 5.86011 20.9932C5.46953 20.7118 4.99976 20.2238 4.99976 19.5C4.99976 18.8063 5.30262 18.2554 5.75171 17.8721C6.16494 17.5194 6.67354 17.3293 7.11694 17.2178C7.97991 17.0007 8.95188 16.9999 9.46167 17C9.8046 16.9682 10.2247 16.9654 10.5662 16.957C10.9694 16.9471 11.3358 16.9287 11.6492 16.873C11.9742 16.8153 12.133 16.7352 12.197 16.6826C12.2116 16.6707 12.2471 16.6555 12.2488 16.5107C12.239 16.4838 12.1846 16.3757 11.9246 16.2002C11.5787 15.9668 11.0499 15.7436 10.4041 15.5527C9.11575 15.1721 7.64836 15 6.99976 15C6.44759 14.9999 5.99976 14.5522 5.99976 14C5.99976 13.4478 6.44759 13.0001 6.99976 13ZM10.4021 1C12.2813 1 13.8145 2.06528 14.8367 3.31836C15.8498 4.56044 16.4998 6.15132 16.4998 7.5C16.4998 7.51047 16.4981 7.52085 16.4978 7.53125C17.6359 7.67882 18.5104 8.32418 19.1316 9.10352C19.8271 9.97612 20.2524 11.0651 20.4744 12.0244C20.6903 12.9578 20.8201 14.0757 20.8962 14.9346C20.9348 15.3693 20.9602 15.7487 20.9763 16.0195C20.9844 16.1551 20.9902 16.2643 20.9939 16.3398C20.9957 16.3775 20.9969 16.4074 20.9978 16.4277C20.9982 16.4377 20.9986 16.4457 20.9988 16.4512V16.46C21.0207 17.0117 20.5914 17.4769 20.0398 17.499C19.4882 17.5208 19.0228 17.0916 19.0007 16.54V16.5342C19.0006 16.5301 19.0001 16.5239 18.9998 16.5156C18.999 16.4982 18.9975 16.4711 18.9958 16.4365C18.9925 16.3675 18.9868 16.2661 18.9792 16.1387C18.9641 15.8828 18.9405 15.5229 18.9041 15.1113C18.8302 14.2775 18.7091 13.2708 18.5251 12.4756C18.3471 11.7061 18.0226 10.9197 17.5681 10.3496C17.1271 9.79633 16.6157 9.5 15.9998 9.5C15.2419 9.50008 14.7866 9.84313 14.4783 10.3223C14.1404 10.8473 13.9998 11.5246 13.9998 12C13.9998 12.5523 13.552 13 12.9998 13C12.4476 12.9999 11.9998 12.5522 11.9998 12C11.9998 11.2255 12.2096 10.1526 12.7966 9.24023C13.1934 8.62359 13.7681 8.08073 14.5378 7.77148C14.5135 7.68512 14.4998 7.59415 14.4998 7.5C14.4998 6.71541 14.0818 5.55658 13.2869 4.58203C12.5009 3.61863 11.4851 3 10.4021 3C9.39965 3.00019 8.3517 3.68485 7.37476 5.04883C6.41742 6.38553 5.66978 8.19149 5.24487 9.96582C4.81865 11.7458 4.63098 13.7431 4.55249 15.3164C4.51348 16.0984 4.5017 16.7662 4.49976 17.2373C4.49879 17.4724 4.50101 17.6583 4.50269 17.7842C4.50352 17.8469 4.50397 17.8951 4.50464 17.9268C4.50497 17.9424 4.50543 17.9544 4.50562 17.9619V17.9717C4.52117 18.5237 4.086 18.9844 3.53394 19C2.98217 19.0152 2.52223 18.5801 2.50659 18.0283V18.0234C2.50652 18.0207 2.50574 18.0166 2.50562 18.0117C2.50537 18.0018 2.50502 17.987 2.50464 17.9688C2.50387 17.9322 2.50359 17.8794 2.50269 17.8115C2.50087 17.675 2.49873 17.4773 2.49976 17.2295C2.5018 16.7339 2.51462 16.0347 2.55542 15.2168C2.63657 13.5902 2.83187 11.4532 3.29956 9.5C3.76859 7.54141 4.60551 5.48114 5.74878 3.88477C6.8725 2.3158 8.44261 1.00019 10.4021 1Z" fill="#9E9E9E"/>
</g>
</svg>
