<svg width="24" height="24" viewBox="0 0 24 24" fill="none" xmlns="http://www.w3.org/2000/svg">
<g id="icons/Travels/landing">
<path id="Union" d="M21.5 20.5C22.0523 20.5 22.5 20.9477 22.5 21.5C22.5 22.0523 22.0523 22.5 21.5 22.5H2.5C1.94772 22.5 1.50001 22.0523 1.5 21.5C1.5 20.9477 1.94772 20.5 2.5 20.5H21.5ZM9.97461 1.64941C10.2694 1.46733 10.6374 1.45051 10.9473 1.60547L12.9473 2.60547L13.0361 2.65625C13.236 2.78326 13.3858 2.97756 13.4561 3.20605L16.1992 12.1377L20.2148 13.0234C20.2239 13.0254 20.2332 13.028 20.2422 13.0303C21.4453 13.3311 22.1897 13.9002 22.6016 14.5693C23 15.2168 23 15.822 23 16C23 16.5848 22.8237 17.0899 22.5049 17.4902C22.1979 17.8757 21.8069 18.1044 21.4648 18.2412C20.8035 18.5057 20.1341 18.5 20 18.5C19.6251 18.5 19.0518 18.3958 18.4395 18.2627C17.7903 18.1216 16.9854 17.9215 16.0889 17.6855C14.2939 17.2132 12.0958 16.5849 9.96777 15.959C7.83814 15.3326 5.77161 14.7067 4.23828 14.2373C3.47159 14.0026 2.83776 13.8069 2.39551 13.6699C2.17439 13.6014 2.00087 13.5475 1.88281 13.5107C1.82391 13.4924 1.77852 13.4783 1.74805 13.4688C1.73303 13.4641 1.72161 13.4604 1.71387 13.458C1.71009 13.4568 1.70706 13.4557 1.70508 13.4551C1.70409 13.4548 1.70266 13.4552 1.70215 13.4551V13.4541C1.28468 13.3236 1.00001 12.9374 1 12.5V7.49512C1 6.94283 1.44772 6.49512 2 6.49512C2.32765 6.49512 2.60052 6.62372 2.75586 6.70801C2.93506 6.80525 3.10877 6.92863 3.26562 7.05371C3.58127 7.30541 3.91861 7.63275 4.23438 7.96777C4.72899 8.49256 5.23006 9.10011 5.58594 9.58984L9.5 10.3018V2.5C9.5 2.15343 9.6798 1.83162 9.97461 1.64941ZM11.5 11.5C11.5 11.7965 11.3683 12.0776 11.1406 12.2676C10.913 12.4575 10.613 12.5364 10.3213 12.4834L4.82129 11.4834C4.54928 11.4339 4.31007 11.2743 4.16016 11.042C3.94013 10.701 3.48885 10.1279 3 9.58496V11.7637C3.43991 11.8999 4.06714 12.0934 4.82422 12.3252C6.35333 12.7933 8.41205 13.4174 10.5322 14.041C12.654 14.6651 14.8312 15.2868 16.5986 15.752C17.483 15.9847 18.2567 16.1753 18.8652 16.3076C19.5104 16.4479 19.8749 16.5 20 16.5C20.1159 16.5 20.4467 16.4942 20.7227 16.3838C20.849 16.3332 20.9115 16.2804 20.9404 16.2441C20.9576 16.2226 21 16.1648 21 16C21 15.9283 20.9999 15.7832 20.8984 15.6182C20.8108 15.4757 20.5568 15.1719 19.7695 14.9727L15.2002 13.9658C14.8485 13.8883 14.5659 13.6274 14.46 13.2832L11.6689 4.20215L11.5 4.11816V11.5Z" fill="#9E9E9E"/>
</g>
</svg>
