<svg width="24" height="24" viewBox="0 0 24 24" fill="none" xmlns="http://www.w3.org/2000/svg">
<g id="icons/Travels/local-two">
<path id="Union" d="M12 1C16.6944 1 20.5 4.80557 20.5 9.5C20.5 13.1044 18.44 16.4573 16.5264 18.8174C15.5543 20.0162 14.5847 21.0016 13.8584 21.6875C13.4947 22.031 13.1908 22.3018 12.9756 22.4873C12.868 22.5801 12.7823 22.6518 12.7227 22.7012C12.6928 22.7259 12.6688 22.7444 12.6523 22.7578C12.6444 22.7642 12.6384 22.7697 12.6338 22.7734C12.6316 22.7752 12.6294 22.7772 12.6279 22.7783L12.626 22.7803H12.625C12.6223 22.7774 12.5843 22.7304 12 22L12.625 22.7812C12.2598 23.0734 11.7402 23.0734 11.375 22.7812L12 22C11.4157 22.7304 11.3777 22.7774 11.375 22.7803H11.374L11.3721 22.7783C11.3706 22.7772 11.3684 22.7752 11.3662 22.7734C11.3616 22.7697 11.3556 22.7642 11.3477 22.7578C11.3312 22.7444 11.3072 22.7259 11.2773 22.7012C11.2177 22.6518 11.132 22.5801 11.0244 22.4873C10.8092 22.3018 10.5053 22.031 10.1416 21.6875C9.41533 21.0016 8.44566 20.0162 7.47363 18.8174C5.56001 16.4573 3.5 13.1044 3.5 9.5C3.5 4.80557 7.30557 1 12 1ZM12 3C8.41013 3 5.5 5.91013 5.5 9.5C5.5 12.3955 7.19006 15.2928 9.02637 17.5576C9.9292 18.6711 10.8347 19.5922 11.5146 20.2344C11.6938 20.4036 11.8573 20.5526 12 20.6807C12.1427 20.5526 12.3062 20.4036 12.4854 20.2344C13.1653 19.5922 14.0708 18.6711 14.9736 17.5576C16.8099 15.2928 18.5 12.3955 18.5 9.5C18.5 5.91013 15.5899 3 12 3ZM12 5.5C14.2091 5.5 16 7.29087 16 9.5C16 11.7091 14.2091 13.5 12 13.5C9.79087 13.5 8 11.7091 8 9.5C8 7.29087 9.79087 5.5 12 5.5ZM12 7.5C10.8954 7.5 10 8.39543 10 9.5C10 10.6046 10.8954 11.5 12 11.5C13.1046 11.5 14 10.6046 14 9.5C14 8.39543 13.1046 7.5 12 7.5Z" fill="#9E9E9E"/>
</g>
</svg>
