<svg width="24" height="24" viewBox="0 0 24 24" fill="none" xmlns="http://www.w3.org/2000/svg">
<g id="icons/Travels/local-pin">
<path id="Union" d="M8 15C8.55228 15 9 15.4477 9 16C9 16.5523 8.55228 17 8 17H6.53516L3.86816 21H20.1318L17.4648 17H16C15.4477 17 15 16.5523 15 16C15 15.4477 15.4477 15 16 15H18C18.3343 15 18.6466 15.1671 18.832 15.4453L22.832 21.4453C23.0366 21.7521 23.0557 22.1466 22.8818 22.4717C22.7078 22.7968 22.3688 23 22 23H2C1.63121 23 1.29218 22.7968 1.11816 22.4717C0.94427 22.1466 0.963449 21.7521 1.16797 21.4453L5.16797 15.4453L5.24316 15.3467C5.43175 15.1282 5.70733 15 6 15H8ZM12 1C14.7614 1 17 3.23858 17 6C17 8.41894 15.2822 10.4361 13 10.8994V19C13 19.5523 12.5523 20 12 20C11.4477 20 11 19.5523 11 19V10.8994C8.71782 10.4361 7 8.41892 7 6C7 3.23858 9.23857 1.00001 12 1ZM12 3C10.3431 3.00001 9 4.34315 9 6C9 7.65686 10.3431 8.99999 12 9C13.6569 9 15 7.65687 15 6C15 4.34314 13.6569 3 12 3Z" fill="#9E9E9E"/>
</g>
</svg>
