<svg width="24" height="24" viewBox="0 0 24 24" fill="none" xmlns="http://www.w3.org/2000/svg">
<g id="icons/Travels/local">
<path id="Union" d="M18.1133 16.0918C18.272 15.5628 18.8294 15.2622 19.3584 15.4209C20.3152 15.7079 21.1627 16.0696 21.793 16.5166C22.3972 16.9452 22.9999 17.6011 23 18.5C23 19.3989 22.3972 20.0548 21.793 20.4834C21.1627 20.9304 20.3152 21.2921 19.3584 21.5791C17.432 22.157 14.8307 22.5 12 22.5C9.16929 22.5 6.56798 22.157 4.6416 21.5791C3.6848 21.2921 2.8373 20.9304 2.20703 20.4834C1.60282 20.0548 1 19.3989 1 18.5C1.00009 17.6011 1.60281 16.9452 2.20703 16.5166C2.83731 16.0696 3.68478 15.7079 4.6416 15.4209C5.17057 15.2622 5.72803 15.5628 5.88672 16.0918C6.04527 16.6207 5.74474 17.1782 5.21582 17.3369C4.36324 17.5927 3.74596 17.8777 3.36426 18.1484C3.10369 18.3333 3.02891 18.4551 3.00781 18.5C3.02868 18.5446 3.10283 18.6671 3.36426 18.8525C3.74599 19.1233 4.36319 19.4082 5.21582 19.6641C6.90873 20.1719 9.30786 20.5 12 20.5C14.6921 20.5 17.0913 20.1719 18.7842 19.6641C19.6368 19.4082 20.254 19.1233 20.6357 18.8525C20.8964 18.6676 20.9701 18.545 20.9912 18.5C20.9699 18.4548 20.8956 18.3328 20.6357 18.1484C20.254 17.8777 19.6368 17.5927 18.7842 17.3369C18.2553 17.1782 17.9547 16.6207 18.1133 16.0918ZM12 1C16.1186 1 19.5 4.26338 19.5 8.34082C19.5 11.2081 17.6292 13.7445 15.9678 15.458C15.1149 16.3376 14.2657 17.053 13.6309 17.5479C13.3126 17.7959 13.0452 17.9905 12.8564 18.124C12.7622 18.1907 12.6874 18.2426 12.6348 18.2783C12.6085 18.2961 12.5879 18.3105 12.5732 18.3203C12.5659 18.3252 12.56 18.3292 12.5557 18.332L12.5479 18.3359V18.3369C12.5476 18.3371 12.5471 18.3371 12 17.5L12.5469 18.3369C12.2145 18.5541 11.7855 18.5541 11.4531 18.3369L12 17.5C11.4529 18.3371 11.4524 18.3371 11.4521 18.3369V18.3359L11.4443 18.332C11.44 18.3292 11.4341 18.3252 11.4268 18.3203C11.4121 18.3105 11.3915 18.2961 11.3652 18.2783C11.3126 18.2426 11.2378 18.1907 11.1436 18.124C10.9548 17.9905 10.6874 17.7959 10.3691 17.5479C9.73425 17.053 8.8851 16.3376 8.03223 15.458C6.37076 13.7445 4.5 11.2081 4.5 8.34082C4.50004 4.26338 7.8814 1 12 1ZM12 3C8.93896 3 6.50004 5.41438 6.5 8.34082C6.5 10.3846 7.87925 12.4281 9.46777 14.0664C10.2396 14.8624 11.0158 15.5157 11.5996 15.9707C11.747 16.0856 11.8814 16.1876 12 16.2754C12.1186 16.1876 12.253 16.0856 12.4004 15.9707C12.9842 15.5157 13.7604 14.8624 14.5322 14.0664C16.1207 12.4281 17.5 10.3846 17.5 8.34082C17.5 5.41438 15.061 3 12 3ZM12 5C13.933 5 15.5 6.56702 15.5 8.5C15.5 10.433 13.933 12 12 12C10.067 12 8.5 10.433 8.5 8.5C8.5 6.56702 10.067 5 12 5ZM12 7C11.1716 7 10.5 7.67158 10.5 8.5C10.5 9.32841 11.1716 10 12 10C12.8284 10 13.5 9.32841 13.5 8.5C13.5 7.67158 12.8284 7 12 7Z" fill="#9E9E9E"/>
</g>
</svg>
