<svg width="24" height="24" viewBox="0 0 24 24" fill="none" xmlns="http://www.w3.org/2000/svg">
<g id="icons/Travels/luggage">
<path id="Union" d="M14.5 1C15.0523 1 15.5 1.44772 15.5 2C15.5 2.55228 15.0523 3 14.5 3H13V6H19C20.1046 6 21 6.89543 21 8V19C21 20.1046 20.1046 21 19 21H17.5V22C17.5 22.5523 17.0523 23 16.5 23C15.9477 23 15.5 22.5523 15.5 22V21H8.5V22C8.5 22.5523 8.05228 23 7.5 23C6.94772 23 6.5 22.5523 6.5 22V21H5C3.89543 21 3 20.1046 3 19V8C3 6.89543 3.89543 6 5 6H11V3H9.5C8.94772 3 8.5 2.55228 8.5 2C8.5 1.44772 8.94772 1 9.5 1H14.5ZM5 19H19V8H5V19ZM10 10.5C10.5523 10.5 11 10.9477 11 11.5V15.5C11 16.0523 10.5523 16.5 10 16.5C9.44772 16.5 9 16.0523 9 15.5V11.5C9 10.9477 9.44772 10.5 10 10.5ZM14 10.5C14.5523 10.5 15 10.9477 15 11.5V15.5C15 16.0523 14.5523 16.5 14 16.5C13.4477 16.5 13 16.0523 13 15.5V11.5C13 10.9477 13.4477 10.5 14 10.5Z" fill="#9E9E9E"/>
</g>
</svg>
