<svg width="24" height="24" viewBox="0 0 24 24" fill="none" xmlns="http://www.w3.org/2000/svg">
<g id="icons/Travels/manual-gear">
<path id="Union" d="M20 1C21.6568 1 23 2.34314 23 4C23 5.30572 22.1645 6.41299 21 6.8252V12C21 12.5523 20.5523 13 20 13H13V17.1738C14.1647 17.5859 15 18.6942 15 20C15 21.6568 13.6568 23 12 23C10.3432 23 9 21.6568 9 20C9 18.6942 9.83533 17.5859 11 17.1738V13H5V17.1738C6.16467 17.5859 7 18.6942 7 20C7 21.6568 5.65683 23 4 23C2.34314 23 1 21.6568 1 20C1 18.6942 1.83532 17.5859 3 17.1738V6.8252C1.83548 6.41299 1 5.30572 1 4C1 2.34315 2.34315 1 4 1C5.65683 1 7 2.34314 7 4C7 5.30572 6.16451 6.41299 5 6.8252V11H11V6.8252C9.83549 6.41299 9 5.30572 9 4C9 2.34314 10.3432 1 12 1C13.6568 1 15 2.34314 15 4C15 5.30572 14.1645 6.41299 13 6.8252V11H19V6.8252C17.8355 6.41299 17 5.30572 17 4C17 2.34314 18.3432 1 20 1ZM20 17C21.6568 17 23 18.3432 23 20C23 21.6568 21.6568 23 20 23C18.3432 23 17 21.6568 17 20C17 18.3432 18.3432 17 20 17ZM4 19C3.44772 19 3 19.4477 3 20C3 20.5523 3.44772 21 4 21C4.55227 21 5 20.5523 5 20C5 19.4477 4.55227 19 4 19ZM12 19C11.4477 19 11 19.4477 11 20C11 20.5523 11.4477 21 12 21C12.5523 21 13 20.5523 13 20C13 19.4477 12.5523 19 12 19ZM20 19C19.4477 19 19 19.4477 19 20C19 20.5523 19.4477 21 20 21C20.5523 21 21 20.5523 21 20C21 19.4477 20.5523 19 20 19ZM4 3C3.44771 3 3 3.44771 3 4C3 4.55227 3.44772 5 4 5C4.55227 5 5 4.55227 5 4C5 3.44772 4.55227 3 4 3ZM12 3C11.4477 3 11 3.44772 11 4C11 4.55227 11.4477 5 12 5C12.5523 5 13 4.55227 13 4C13 3.44772 12.5523 3 12 3ZM20 3C19.4477 3 19 3.44772 19 4C19 4.55227 19.4477 5 20 5C20.5523 5 21 4.55227 21 4C21 3.44772 20.5523 3 20 3Z" fill="#9E9E9E"/>
</g>
</svg>
