<svg width="24" height="24" viewBox="0 0 24 24" fill="none" xmlns="http://www.w3.org/2000/svg">
<g id="icons/Travels/map-two">
<path id="Union" d="M22 4C22.5523 4 23 4.44772 23 5V20C23 20.5523 22.5523 21 22 21H2C1.44772 21 1 20.5523 1 20V5C1 4.44772 1.44772 4 2 4H22ZM3 19H21V6H3V19ZM4.15918 7.45898C4.45792 6.99469 5.07656 6.8606 5.54102 7.15918L9.4375 9.66406L11.2109 7.38574C11.5501 6.95009 12.1784 6.87196 12.6143 7.21094C13.0499 7.55007 13.128 8.17842 12.7891 8.61426L11.127 10.75L14.251 12.7588L18.1953 7.40723C18.5229 6.96264 19.1482 6.86779 19.5928 7.19531C20.0374 7.5229 20.1322 8.14816 19.8047 8.59277L15.9365 13.8418L19.541 16.1592C20.0053 16.4579 20.1394 17.0766 19.8408 17.541C19.5421 18.0053 18.9234 18.1394 18.459 17.8408L14.748 15.4551L12.8047 18.0928C12.4771 18.5374 11.8518 18.6322 11.4072 18.3047C10.9626 17.9771 10.8678 17.3518 11.1953 16.9072L13.0625 14.3721L9.89453 12.335L5.78906 17.6143C5.44993 18.0499 4.82158 18.128 4.38574 17.7891C3.95009 17.4499 3.87196 16.8216 4.21094 16.3857L8.20508 11.249L4.45898 8.84082C3.99469 8.54208 3.8606 7.92344 4.15918 7.45898Z" fill="#9E9E9E"/>
</g>
</svg>
