<svg width="24" height="24" viewBox="0 0 24 24" fill="none" xmlns="http://www.w3.org/2000/svg">
<g id="icons/Travels/map-road-two">
<path id="Union" d="M21 1C22.1046 1 23 1.89544 23 3V21C23 22.1046 22.1046 23 21 23H3C1.89544 23 1 22.1046 1 21V3C1 1.89543 1.89543 1 3 1H21ZM3 21H21V3H3V21ZM18.6641 12.0586C19.1841 11.873 19.7557 12.144 19.9414 12.6641C20.127 13.1841 19.856 13.7557 19.3359 13.9414L18.1982 14.3467L19.4365 17.6484C19.6304 18.1655 19.3685 18.7425 18.8516 18.9365C18.3345 19.1304 17.7575 18.8685 17.5635 18.3516L16.3135 15.0205L5.33594 18.9414C4.81589 19.127 4.24432 18.856 4.05859 18.3359C3.87301 17.8159 4.14404 17.2443 4.66406 17.0586L18.6641 12.0586ZM5.10156 13.4023C5.62161 13.2168 6.19318 13.4878 6.37891 14.0078C6.56449 14.5279 6.29346 15.0994 5.77344 15.2852L5.33594 15.4414C4.81589 15.627 4.24432 15.356 4.05859 14.8359C3.87301 14.3159 4.14404 13.7443 4.66406 13.5586L5.10156 13.4023ZM8.60156 12.1523C9.12161 11.9668 9.69318 12.2378 9.87891 12.7578C10.0645 13.2779 9.79346 13.8494 9.27344 14.0352L8.39844 14.3477C7.87839 14.5332 7.30682 14.2622 7.12109 13.7422C6.93551 13.2221 7.20654 12.6506 7.72656 12.4648L8.60156 12.1523ZM12.1016 10.9023C12.6216 10.7168 13.1932 10.9878 13.3789 11.5078C13.5645 12.0279 13.2935 12.5994 12.7734 12.7852L11.8984 13.0977C11.3784 13.2832 10.8068 13.0122 10.6211 12.4922C10.4355 11.9721 10.7065 11.4006 11.2266 11.2148L12.1016 10.9023ZM6.14844 4.56348C6.66545 4.3696 7.24249 4.63153 7.43652 5.14844L8.73242 8.60449L18.6641 5.05859C19.1841 4.87301 19.7557 5.14404 19.9414 5.66406C20.127 6.18411 19.856 6.75568 19.3359 6.94141L5.33594 11.9414C4.81589 12.127 4.24432 11.856 4.05859 11.3359C3.87301 10.8159 4.14404 10.2443 4.66406 10.0586L6.84766 9.27832L5.56348 5.85156C5.3696 5.33455 5.63153 4.75751 6.14844 4.56348ZM15.6016 9.65234C16.1216 9.46677 16.6932 9.73779 16.8789 10.2578C17.0645 10.7779 16.7935 11.3494 16.2734 11.5352L15.3984 11.8477C14.8784 12.0332 14.3068 11.7622 14.1211 11.2422C13.9355 10.7221 14.2065 10.1506 14.7266 9.96484L15.6016 9.65234ZM18.6641 8.55859C19.1841 8.37301 19.7557 8.64404 19.9414 9.16406C20.127 9.68411 19.856 10.2557 19.3359 10.4414L18.8984 10.5977C18.3784 10.7832 17.8068 10.5122 17.6211 9.99219C17.4355 9.47214 17.7065 8.90057 18.2266 8.71484L18.6641 8.55859Z" fill="#9E9E9E"/>
</g>
</svg>
