<svg width="24" height="24" viewBox="0 0 24 24" fill="none" xmlns="http://www.w3.org/2000/svg">
<g id="icons/Travels/map-draw">
<path id="Union" d="M15.4746 2C15.5144 1.99902 15.5541 2.00113 15.5938 2.00488C15.6019 2.00564 15.61 2.00686 15.6182 2.00781C15.6309 2.00933 15.6436 2.01069 15.6562 2.0127L15.7012 2.02051C15.7078 2.02185 15.7142 2.02392 15.7207 2.02539C15.7364 2.02895 15.752 2.03278 15.7676 2.03711C15.7873 2.04258 15.807 2.04806 15.8262 2.05469C15.8335 2.05721 15.8404 2.06078 15.8477 2.06348C15.8658 2.07021 15.8837 2.07722 15.9014 2.08496C15.9071 2.08748 15.9132 2.08916 15.9189 2.0918L22.4189 5.0918C22.773 5.25522 22.9999 5.61004 23 6V21C23 21.341 22.8263 21.659 22.5391 21.8428C22.2519 22.0265 21.8906 22.051 21.5811 21.9082L15.4834 19.0938L8.90234 21.9141C8.86824 21.9291 8.83383 21.9439 8.79785 21.9551C8.79687 21.9554 8.7959 21.9558 8.79492 21.9561C8.76146 21.9664 8.72749 21.9747 8.69336 21.9814C8.67563 21.985 8.6575 21.9857 8.63965 21.9883C8.62533 21.9903 8.61118 21.9937 8.59668 21.9951C8.57362 21.9974 8.55048 21.9974 8.52734 21.998C8.51824 21.9983 8.50916 22 8.5 22L8.49707 21.999C8.47488 21.999 8.45281 21.9976 8.43066 21.9961C8.41659 21.9951 8.40258 21.9947 8.38867 21.9932C8.37622 21.9918 8.36397 21.9892 8.35156 21.9873C8.33185 21.9844 8.31229 21.9816 8.29297 21.9775C8.27489 21.9737 8.25715 21.9687 8.23926 21.9639C8.22216 21.9593 8.20519 21.9547 8.18848 21.9492C8.17429 21.9446 8.1605 21.9389 8.14648 21.9336C8.12616 21.9259 8.1056 21.9191 8.08594 21.9102C8.08437 21.9094 8.08261 21.9089 8.08105 21.9082L1.58105 18.9082C1.22696 18.7447 1 18.39 1 18V3L1.00781 2.87305C1.04515 2.58153 1.20976 2.31794 1.46094 2.15723C1.74807 1.97362 2.10945 1.94907 2.41895 2.0918L8.51562 4.90527L15.1064 2.08105H15.1055C15.1373 2.06737 15.1697 2.05431 15.2031 2.04395H15.2051C15.2344 2.03491 15.2641 2.02775 15.2939 2.02148L15.2959 2.02051C15.3007 2.01951 15.3057 2.01948 15.3105 2.01855C15.3349 2.01387 15.3592 2.00969 15.3838 2.00684C15.414 2.00332 15.4443 2.00075 15.4746 2ZM9.5 6.6582V19.4834L14.5 17.3408V4.51465L9.5 6.6582ZM16.5 17.3594L21 19.4365V6.63965L18.3389 5.41113C18.3364 5.41001 18.3335 5.40935 18.3311 5.4082L16.5 4.5625V17.3594ZM3 17.3594L7.5 19.4355V6.63965L4.83105 5.4082C4.82642 5.40606 4.82197 5.40357 4.81738 5.40137L3 4.5625V17.3594Z" fill="#9E9E9E"/>
</g>
</svg>
