<svg width="24" height="24" viewBox="0 0 24 24" fill="none" xmlns="http://www.w3.org/2000/svg">
<g id="icons/Travels/map-distance">
<path id="Union" d="M19.8906 2.01172C21.0754 2.13219 21.9998 3.13314 22 4.34961V19.6504C21.9998 20.948 20.948 21.9998 19.6504 22H4.34961C3.13314 21.9998 2.13219 21.0754 2.01172 19.8906L2 19.6504V4.34961C2.00021 3.05205 3.05205 2.00021 4.34961 2H19.6504L19.8906 2.01172ZM4.34961 4C4.15662 4.00021 4.00021 4.15662 4 4.34961V19.6504L4.00684 19.7207C4.03949 19.88 4.18068 19.9998 4.34961 20H19.6504C19.8434 19.9998 19.9998 19.8434 20 19.6504V4.34961C19.9998 4.18068 19.88 4.03949 19.7207 4.00684L19.6504 4H4.34961ZM10.1064 15.5811C10.614 15.3637 11.2014 15.5989 11.4189 16.1064C11.6363 16.614 11.4011 17.2014 10.8936 17.4189L7.39355 18.9189C6.88598 19.1363 6.29858 18.9011 6.08105 18.3936C5.86367 17.886 6.09889 17.2986 6.60645 17.0811L10.1064 15.5811ZM17.6064 12.5811C18.114 12.3637 18.7014 12.5989 18.9189 13.1064C19.1363 13.614 18.9011 14.2014 18.3936 14.4189L14.8936 15.9189C14.386 16.1363 13.7986 15.9011 13.5811 15.3936C13.3637 14.886 13.5989 14.2986 14.1064 14.0811L17.6064 12.5811ZM8 9C9.38073 9 10.5 10.1193 10.5 11.5C10.5 12.0221 10.2818 12.5867 10.0195 13.1113C9.7402 13.67 9.33659 14.3252 8.82324 15.0684C8.63653 15.3387 8.32852 15.5 8 15.5C7.67148 15.5 7.36347 15.3387 7.17676 15.0684C6.66341 14.3252 6.2598 13.67 5.98047 13.1113C5.71816 12.5867 5.5 12.0221 5.5 11.5C5.5 10.1193 6.61927 9 8 9ZM8 11C7.72383 11 7.5 11.2238 7.5 11.5C7.5 11.4971 7.50163 11.5539 7.5459 11.6914C7.58834 11.8232 7.65956 11.9968 7.76953 12.2168C7.83481 12.3474 7.91237 12.4885 8 12.6416C8.08763 12.4885 8.16519 12.3474 8.23047 12.2168C8.34044 11.9968 8.41166 11.8232 8.4541 11.6914C8.49837 11.5539 8.5 11.4971 8.5 11.5C8.5 11.2238 8.27617 11 8 11ZM16 5.5C17.3807 5.5 18.5 6.61927 18.5 8C18.5 8.52208 18.2818 9.08668 18.0195 9.61133C17.7402 10.17 17.3366 10.8252 16.8232 11.5684C16.6365 11.8387 16.3285 12 16 12C15.6715 12 15.3635 11.8387 15.1768 11.5684C14.6634 10.8252 14.2598 10.17 13.9805 9.61133C13.7182 9.08668 13.5 8.52208 13.5 8C13.5 6.61927 14.6193 5.5 16 5.5ZM16 7.5C15.7238 7.5 15.5 7.72383 15.5 8C15.5 7.99715 15.5016 8.05395 15.5459 8.19141C15.5883 8.32317 15.6596 8.49684 15.7695 8.7168C15.8348 8.84735 15.9124 8.9885 16 9.1416C16.0876 8.9885 16.1652 8.84735 16.2305 8.7168C16.3404 8.49684 16.4117 8.32317 16.4541 8.19141C16.4984 8.05395 16.5 7.99715 16.5 8C16.5 7.72383 16.2762 7.5 16 7.5Z" fill="#9E9E9E"/>
</g>
</svg>
