<svg width="24" height="24" viewBox="0 0 24 24" fill="none" xmlns="http://www.w3.org/2000/svg">
<g id="icons/Travels/map-road">
<path id="Union" d="M20.5 1C21.8807 1 23 2.1193 23 3.5V20.5C23 21.8807 21.8807 23 20.5 23H3.5C2.1193 23 1 21.8807 1 20.5V3.5C1 2.11929 2.11929 1 3.5 1H20.5ZM3.5 3C3.22386 3 3 3.22386 3 3.5V20.5C3 20.7762 3.22385 21 3.5 21H20.5C20.7762 21 21 20.7762 21 20.5V3.5C21 3.22385 20.7762 3 20.5 3H3.5ZM12 15C12.5523 15 13 15.4477 13 16V18C13 18.5523 12.5523 19 12 19C11.4477 19 11 18.5523 11 18V16C11 15.4477 11.4477 15 12 15ZM7.01367 5.83594C7.10445 5.29127 7.61941 4.92307 8.16406 5.01367C8.70873 5.10445 9.07693 5.61941 8.98633 6.16406L6.98633 18.1641C6.89555 18.7087 6.38059 19.0769 5.83594 18.9863C5.29127 18.8955 4.92307 18.3806 5.01367 17.8359L7.01367 5.83594ZM16.3359 5.01367C16.8806 4.92307 17.3955 5.29127 17.4863 5.83594L19.4863 17.8359C19.5769 18.3806 19.2087 18.8955 18.6641 18.9863C18.1194 19.0769 17.6045 18.7087 17.5137 18.1641L15.5137 6.16406C15.4231 5.61941 15.7913 5.10445 16.3359 5.01367ZM12 10C12.5523 10 13 10.4477 13 11V13C13 13.5523 12.5523 14 12 14C11.4477 14 11 13.5523 11 13V11C11 10.4477 11.4477 10 12 10ZM12 5C12.5523 5 13 5.44772 13 6V8C13 8.55228 12.5523 9 12 9C11.4477 9 11 8.55228 11 8V6C11 5.44772 11.4477 5 12 5Z" fill="#9E9E9E"/>
</g>
</svg>
