<svg width="24" height="24" viewBox="0 0 24 24" fill="none" xmlns="http://www.w3.org/2000/svg">
<g id="icons/Travels/mark">
<path id="Union" d="M5.5 2C6.05228 2 6.5 2.44772 6.5 3V3.5H12.5L12.6016 3.50488C12.702 3.51514 12.8004 3.54115 12.8936 3.58105L16.2041 5H19.5C20.6046 5 21.5 5.89542 21.5 7V15.5C21.5 16.6046 20.6046 17.5 19.5 17.5H16C15.8647 17.5 15.7309 17.4722 15.6064 17.4189L12.2959 16H6.5V20H7.5C8.05228 20 8.5 20.4477 8.5 21C8.5 21.5523 8.05228 22 7.5 22H3.5C2.94772 22 2.5 21.5523 2.5 21C2.5 20.4477 2.94772 20 3.5 20H4.5V3C4.5 2.44772 4.94772 2 5.5 2ZM6.5 14H12.5C12.6353 14 12.7691 14.0278 12.8936 14.0811L16.2041 15.5H19.5V7H16C15.8647 7 15.7309 6.97223 15.6064 6.91895L12.2959 5.5H6.5V14Z" fill="#9E9E9E"/>
</g>
</svg>
