<svg width="24" height="24" viewBox="0 0 24 24" fill="none" xmlns="http://www.w3.org/2000/svg">
<g id="icons/Travels/mounted">
<path id="Union" d="M13.5 7C16.2614 7 18.5 9.23857 18.5 12V16.5C18.5 17.8807 17.3807 19 16 19H15.3105C15.1359 19.351 14.851 19.6359 14.5 19.8105V20.5C14.5 21.8807 13.3807 23 12 23C10.6193 23 9.5 21.8807 9.5 20.5V19.8105C9.14904 19.6359 8.86412 19.351 8.68945 19H8C6.61927 19 5.5 17.8807 5.5 16.5V12C5.5 9.23857 7.73856 7 10.5 7H13.5ZM11.5 20V20.5C11.5 20.7762 11.7238 21 12 21C12.2762 21 12.5 20.7762 12.5 20.5V20H11.5ZM12 16C11.1716 16 10.5 16.6716 10.5 17.5V18H13.5V17.5C13.5 16.6716 12.8284 16 12 16ZM10.5 9C8.84313 9 7.5 10.3431 7.5 12V16.5C7.5 16.7762 7.72383 17 8 17H8.53613C8.77879 15.3039 10.2368 14 12 14C13.7632 14 15.2212 15.3039 15.4639 17H16C16.2762 17 16.5 16.7762 16.5 16.5V12C16.5 10.3431 15.1569 9 13.5 9H10.5ZM12 1C13.0249 1 13.9041 1.61743 14.29 2.5H19.5C20.0523 2.5 20.5 2.94772 20.5 3.5C20.5 4.05228 20.0523 4.5 19.5 4.5H14.29C13.9041 5.38257 13.0249 6 12 6C10.9751 6 10.0959 5.38257 9.70996 4.5H4.5C3.94772 4.5 3.5 4.05228 3.5 3.5C3.5 2.94772 3.94772 2.5 4.5 2.5H9.70996C10.0959 1.61743 10.9751 1 12 1ZM12 3C11.7239 3 11.5 3.22386 11.5 3.5C11.5 3.77614 11.7239 4 12 4C12.2761 4 12.5 3.77614 12.5 3.5C12.5 3.22386 12.2761 3 12 3Z" fill="#9E9E9E"/>
</g>
</svg>
