<svg width="24" height="24" viewBox="0 0 24 24" fill="none" xmlns="http://www.w3.org/2000/svg">
<g id="icons/Travels/mountain">
<path id="Union" d="M9 4C9.37876 4.00001 9.72514 4.21396 9.89453 4.55273L14.0439 12.8516L16.0449 10.3721L16.126 10.2842C16.3244 10.0908 16.5957 9.98632 16.876 10.001C17.1962 10.0178 17.4889 10.1878 17.6631 10.457L22.8398 18.457C23.0386 18.7644 23.0536 19.1559 22.8789 19.4775C22.7038 19.7993 22.3663 20 22 20H2C1.65343 20 1.33162 19.8202 1.14941 19.5254C0.967334 19.2306 0.950513 18.8626 1.10547 18.5527L8.10547 4.55273L8.17676 4.43164C8.36169 4.16368 8.66855 4 9 4ZM6.61816 12L3.61816 18H14.3818L11.3818 12H6.61816ZM15.0273 14.8184L16.6182 18H20.1621L16.7344 12.7021L15.0273 14.8184ZM7.61816 10H10.3818L9 7.23633L7.61816 10Z" fill="#9E9E9E"/>
</g>
</svg>
