<svg width="24" height="24" viewBox="0 0 24 24" fill="none" xmlns="http://www.w3.org/2000/svg">
<g id="icons/Travels/navigation">
<path id="Union" d="M12.2498 1C12.6626 1 13.0332 1.25375 13.1824 1.63867L20.9324 21.6387C21.086 22.0353 20.9721 22.486 20.6482 22.7617C20.3242 23.0373 19.8608 23.0775 19.4939 22.8623L12.2498 18.6133L5.00562 22.8623C4.63867 23.0774 4.17528 23.0374 3.85132 22.7617C3.52757 22.486 3.41354 22.0352 3.56714 21.6387L11.3171 1.63867L11.3835 1.50098C11.56 1.19453 11.8886 1.00008 12.2498 1ZM6.46851 19.6855L11.7439 16.5918L11.864 16.5322C12.1516 16.4119 12.4822 16.4316 12.7556 16.5918L18.03 19.6855L12.2498 4.76758L6.46851 19.6855Z" fill="#9E9E9E"/>
</g>
</svg>
