<svg width="24" height="24" viewBox="0 0 24 24" fill="none" xmlns="http://www.w3.org/2000/svg">
<g id="icons/Travels/parachute">
<path id="Union" d="M12 1C18.0751 1 23 5.92487 23 12C23 12.0428 22.9957 12.0854 22.9902 12.1279C22.989 12.1374 22.9878 12.1468 22.9863 12.1562C22.9729 12.2415 22.9486 12.3251 22.9131 12.4053C22.91 12.4122 22.9066 12.4189 22.9033 12.4258C22.8675 12.5018 22.8217 12.5738 22.7656 12.6406C22.7576 12.6502 22.7496 12.6597 22.7412 12.6689C22.7298 12.6815 22.7192 12.6949 22.707 12.707L12.707 22.707C12.7025 22.7116 12.6961 22.7143 12.6914 22.7188C12.6676 22.7416 12.6415 22.7616 12.6152 22.7822C12.5957 22.7976 12.577 22.8134 12.5566 22.8271C12.5496 22.8319 12.5443 22.8392 12.5371 22.8438C12.5178 22.856 12.4964 22.8642 12.4766 22.875C12.4539 22.8873 12.4316 22.8997 12.4082 22.9102C12.3777 22.9238 12.3467 22.9349 12.3154 22.9453C12.2946 22.9522 12.2741 22.9593 12.2529 22.9648C12.2225 22.9728 12.192 22.9784 12.1611 22.9834C12.1341 22.9878 12.1073 22.9919 12.0801 22.9941C12.0533 22.9963 12.0268 22.9961 12 22.9961C11.9729 22.9961 11.946 22.9963 11.9189 22.9941C11.8917 22.9919 11.8649 22.9879 11.8379 22.9834C11.8071 22.9783 11.7765 22.9728 11.7461 22.9648C11.7249 22.9593 11.7044 22.9523 11.6836 22.9453C11.6523 22.9348 11.6213 22.9239 11.5908 22.9102C11.5675 22.8997 11.5451 22.8874 11.5225 22.875C11.5029 22.8643 11.4819 22.8559 11.4629 22.8438C11.4555 22.839 11.4496 22.832 11.4424 22.8271C11.422 22.8134 11.4033 22.7976 11.3838 22.7822C11.3575 22.7616 11.3313 22.7416 11.3076 22.7188C11.3031 22.7144 11.2974 22.7114 11.293 22.707L1.29297 12.707C1.28083 12.6949 1.27017 12.6815 1.25879 12.6689C1.25028 12.6595 1.24153 12.6504 1.2334 12.6406C1.17744 12.5738 1.13147 12.5017 1.0957 12.4258C1.09253 12.4191 1.08994 12.4121 1.08691 12.4053C1.05135 12.3251 1.02711 12.2415 1.01367 12.1562C1.01218 12.1468 1.01002 12.1375 1.00879 12.1279C1.00334 12.0855 1 12.0428 1 12C1 5.92487 5.92487 1 12 1ZM12 11.1816C11.267 11.1816 10.4456 11.4932 9.5293 12.2803L11.999 19.0742L14.4697 12.2803C13.5537 11.4936 12.7328 11.1816 12 11.1816ZM5.18164 11.1816C5.08654 11.1817 4.82733 11.2336 4.35254 11.5049C4.10054 11.6489 3.81508 11.8399 3.49414 12.0801L9.51953 18.1055L7.51562 12.5957C6.92109 12.099 6.42225 11.7395 6.01172 11.5049C5.53659 11.2334 5.27666 11.1816 5.18164 11.1816ZM18.8184 11.1816C18.7233 11.1816 18.4634 11.2334 17.9883 11.5049C17.5776 11.7396 17.0782 12.0988 16.4834 12.5957L14.4795 18.1055L20.5049 12.0801C20.1842 11.8401 19.8993 11.6488 19.6475 11.5049C19.1727 11.2336 18.9135 11.1817 18.8184 11.1816ZM12 3C7.77975 3 4.23874 5.90495 3.26562 9.82422C3.29742 9.80544 3.32891 9.78652 3.36035 9.76855C3.94573 9.43406 4.56968 9.18168 5.18164 9.18164C5.79373 9.18164 6.41842 9.43399 7.00391 9.76855C7.41546 10.0038 7.85611 10.311 8.32715 10.6797C9.46441 9.7316 10.6904 9.18164 12 9.18164C13.3094 9.18164 14.5348 9.73189 15.6719 10.6797C16.1431 10.3108 16.5844 10.0039 16.9961 9.76855C17.5816 9.43399 18.2063 9.18164 18.8184 9.18164C19.4303 9.18168 20.0543 9.43406 20.6396 9.76855C20.6709 9.78639 20.7018 9.80558 20.7334 9.82422C19.7602 5.90507 16.2202 3 12 3Z" fill="#9E9E9E"/>
</g>
</svg>
