<svg width="24" height="24" viewBox="0 0 24 24" fill="none" xmlns="http://www.w3.org/2000/svg">
<g id="icons/Travels/parking">
<path id="Union" d="M12 1C16.9088 1 21 4.74575 21 9.5C21 13.1267 18.7925 16.488 16.7568 18.8418C15.7205 20.04 14.6867 21.025 13.9131 21.71C13.5259 22.0528 13.2017 22.3218 12.9727 22.5068C12.8581 22.5994 12.7664 22.6715 12.7031 22.7207C12.6717 22.7451 12.6472 22.7641 12.6299 22.7773C12.6213 22.7839 12.6143 22.7892 12.6094 22.793C12.607 22.7948 12.605 22.7967 12.6035 22.7979L12.6016 22.7988L12.6006 22.7998C12.6003 22.8 12.5957 22.7943 12 22L12.5996 22.7998C12.2441 23.0663 11.7559 23.0663 11.4004 22.7998L12 22C11.4043 22.7943 11.3997 22.8 11.3994 22.7998L11.3984 22.7988L11.3965 22.7979C11.395 22.7967 11.393 22.7948 11.3906 22.793C11.3857 22.7892 11.3787 22.7839 11.3701 22.7773C11.3528 22.7641 11.3283 22.7451 11.2969 22.7207C11.2336 22.6715 11.1419 22.5994 11.0273 22.5068C10.7983 22.3218 10.4741 22.0528 10.0869 21.71C9.31326 21.025 8.27948 20.04 7.24316 18.8418C5.20747 16.488 3 13.1267 3 9.5C3 4.74575 7.09119 1 12 1ZM12 3C8.07221 3 5 5.96995 5 9.5C5 12.3733 6.79256 15.262 8.75684 17.5332C9.72044 18.6474 10.6868 19.5688 11.4131 20.2119C11.6336 20.4072 11.832 20.5755 12 20.7158C12.168 20.5755 12.3664 20.4072 12.5869 20.2119C13.3132 19.5688 14.2796 18.6474 15.2432 17.5332C17.2074 15.262 19 12.3733 19 9.5C19 5.96995 15.9278 3 12 3ZM13.5 6C15.1568 6 16.5 7.34317 16.5 9C16.5 10.6568 15.1568 12 13.5 12H11.5V15C11.5 15.5523 11.0523 16 10.5 16C9.94772 16 9.5 15.5523 9.5 15V7C9.5 6.44772 9.94772 6 10.5 6H13.5ZM11.5 10H13.5C14.0523 10 14.5 9.55227 14.5 9C14.5 8.44773 14.0523 8 13.5 8H11.5V10Z" fill="#9E9E9E"/>
</g>
</svg>
