<svg width="24" height="24" viewBox="0 0 24 24" fill="none" xmlns="http://www.w3.org/2000/svg">
<g id="icons/Travels/passport-one">
<path id="Union" d="M14.5 1C15.6046 1 16.5 1.89544 16.5 3V4H19.5C20.6046 4 21.5 4.89543 21.5 6V21C21.5 22.1046 20.6046 23 19.5 23H7.5C6.39543 23 5.5 22.1046 5.5 21H4.5C3.39544 21 2.5 20.1046 2.5 19V3C2.5 1.89543 3.39543 1 4.5 1H14.5ZM7.5 21H19.5V6H7.5V21ZM4.5 19H5.5V6C5.5 4.89543 6.39543 4 7.5 4H14.5V3H4.5V19ZM13.5 8.5C14.3057 8.5 15.0662 8.69178 15.7402 9.03027C15.9237 9.07557 16.087 9.17086 16.2148 9.30176C17.5898 10.1927 18.5 11.7397 18.5 13.5C18.5 13.6159 18.4941 13.7308 18.4863 13.8447C18.5025 13.9479 18.5034 14.0553 18.4854 14.1641C18.4722 14.2428 18.4486 14.3172 18.4189 14.3877C18.0518 16.4356 16.4398 18.0499 14.3926 18.4189C14.216 18.4947 14.026 18.5153 13.8438 18.4863C13.7301 18.494 13.6156 18.5 13.5 18.5C11.7397 18.5 10.1927 17.5898 9.30176 16.2148C9.17086 16.087 9.07557 15.9237 9.03027 15.7402C8.69178 15.0662 8.5 14.3057 8.5 13.5C8.5 10.7386 10.7386 8.5 13.5 8.5ZM13.5 10.5C11.8431 10.5 10.5 11.8431 10.5 13.5C10.5 13.754 10.5343 13.9998 10.5938 14.2354C10.6184 14.214 10.6437 14.1922 10.668 14.168C10.9026 13.9333 11 13.6748 11 13.5C11 12.9477 11.4477 12.5 12 12.5C12.5523 12.5 13 12.9477 13 13.5C13 14.3252 12.5974 15.0667 12.082 15.582C11.9684 15.6957 11.8421 15.8018 11.708 15.9014C12.0623 16.1662 12.475 16.3569 12.9258 16.4443C12.9526 16.2491 12.9934 16.0494 13.0469 15.8516C13.24 15.1378 13.6519 14.2608 14.3994 13.7002C15.0802 13.1898 15.8733 13.0277 16.4541 12.9795C16.3823 12.5691 16.2263 12.1884 16.0059 11.8535C15.8851 12.0544 15.7317 12.2564 15.5312 12.4346C15.138 12.7842 14.6209 13 14 13C13.4477 13 13 12.5523 13 12C13 11.4477 13.4477 11 14 11C14.1291 11 14.1745 10.9658 14.2031 10.9404C14.2524 10.8967 14.3169 10.8061 14.376 10.6484C14.378 10.6431 14.3789 10.6373 14.3809 10.6318C14.1023 10.5464 13.8066 10.5 13.5 10.5ZM16.0459 15.0801C15.8784 15.1332 15.726 15.2051 15.5996 15.2998C15.4078 15.4436 15.2237 15.7079 15.0889 16.04C15.4768 15.7969 15.804 15.4689 16.0459 15.0801Z" fill="#9E9E9E"/>
</g>
</svg>
