<svg width="24" height="24" viewBox="0 0 24 24" fill="none" xmlns="http://www.w3.org/2000/svg">
<g id="icons/Travels/photograph">
<path id="Union" d="M16 1C17.1046 1 18 1.89544 18 3V6.40234C18.3056 6.73257 18.5931 7.08796 18.832 7.44629C18.9413 7.61046 19 7.80374 19 8.00098C19.0001 13.1404 19.741 17.7236 21.8711 21.5107C22.1414 21.992 21.9714 22.6014 21.4902 22.8721C21.0091 23.1426 20.3988 22.9721 20.1279 22.4912C17.8065 18.364 17.0334 13.5036 17.0029 8.32227C16.7594 7.99566 16.4688 7.67406 16.1777 7.39941C16.1951 7.49257 16.2119 7.58691 16.2305 7.67969C16.2905 7.97977 16.3512 8.25113 16.3965 8.44727C16.419 8.54486 16.4382 8.62407 16.4512 8.67773C16.4576 8.70438 16.4625 8.72575 16.4658 8.73926C16.4674 8.74564 16.469 8.75081 16.4697 8.75391L16.4707 8.75781C16.4978 8.86638 16.5062 8.97938 16.4961 9.09082L15.9961 14.5908C15.9748 14.8236 15.8723 15.0427 15.707 15.208L14.707 16.208C14.478 16.4367 14.1521 16.5405 13.833 16.4863C13.5138 16.432 13.2403 16.2262 13.0996 15.9346L13.0957 15.9268C13.0931 15.9215 13.0892 15.913 13.084 15.9023C13.0731 15.88 13.0564 15.8458 13.0352 15.8027C12.9924 15.7162 12.9297 15.5906 12.8516 15.4375C12.6948 15.1302 12.4762 14.7135 12.2305 14.2764C11.9835 13.8371 11.7154 13.3882 11.458 13.0107C11.2705 12.7357 11.113 12.5387 10.9971 12.4121C10.9955 12.4183 10.9936 12.4251 10.9922 12.4316C10.9642 12.5567 10.9604 12.6953 10.9834 12.8203C11.1279 13.6063 11.4517 14.1177 12.1602 14.7588C12.4741 15.043 12.5851 15.4013 12.6309 15.6494C12.6762 15.8956 12.678 16.1521 12.6748 16.3535C12.6674 16.8106 12.6357 17.1833 12.6807 17.6299C12.7226 18.0451 12.8307 18.4576 13.0781 18.8584C13.3251 19.2581 13.7463 19.7028 14.4971 20.1318C14.9764 20.4059 15.1431 21.0176 14.8691 21.4971C14.5951 21.976 13.9841 22.1425 13.5049 21.8691C12.5062 21.2985 11.8224 20.632 11.376 19.9092C11.1879 19.6045 11.05 19.2983 10.9463 19H4C2.89544 19 2 18.1046 2 17V3C2 1.89543 2.89543 1 4 1H16ZM4 11.2539V17H10.6582C10.6604 16.7251 10.6721 16.4868 10.6748 16.3213C10.6764 16.2238 10.6753 16.1533 10.6729 16.1035C10.1515 15.6112 9.73923 15.1028 9.44336 14.5H6.5C6.15342 14.5 5.83162 14.3202 5.64941 14.0254C5.46733 13.7306 5.45051 13.3626 5.60547 13.0527L7.4834 9.2959L6.11328 7.37891L4 11.2539ZM4 7.07812L5.12207 5.02148C5.28695 4.71921 5.59577 4.5228 5.93945 4.50195C6.28319 4.48115 6.61332 4.63873 6.81348 4.91895L8.49512 7.27246L9.60547 5.05273L9.67383 4.93652C9.84909 4.67948 10.1363 4.5161 10.4521 4.50098C10.8133 4.48382 11.1559 4.6632 11.3477 4.96973L13.3477 8.16992C13.6403 8.63817 13.4984 9.25507 13.0303 9.54785C12.5621 9.84046 11.9452 9.69841 11.6523 9.23047L10.5967 7.54199L8.11816 12.5H8.97656C9.005 11.9305 9.19039 11.3626 9.54102 10.9346C9.79991 10.6186 10.1943 10.329 10.7158 10.2705C11.2444 10.2114 11.7263 10.4092 12.1143 10.7197C12.4775 11.0105 12.8241 11.464 13.1104 11.8838C13.413 12.3276 13.7122 12.8319 13.9736 13.2969C14.0126 13.3662 14.0495 13.4361 14.0869 13.5039L14.4893 9.07422C14.4775 9.02472 14.4638 8.96491 14.4482 8.89746C14.3998 8.68761 14.3344 8.39561 14.2695 8.07129C14.1455 7.45118 14.0001 6.61186 14 6.00098C14 5.73241 14.067 5.3173 14.4141 5C14.7664 4.67807 15.1868 4.65692 15.4434 4.68652C15.6334 4.70848 15.8214 4.76631 16 4.84277V3H4V7.07812Z" fill="#9E9E9E"/>
</g>
</svg>
