<svg width="24" height="24" viewBox="0 0 24 24" fill="none" xmlns="http://www.w3.org/2000/svg">
<g id="icons/Travels/planet">
<path id="Union" d="M12.0001 3C15.0374 3.00003 17.7209 4.50615 19.3507 6.81055C20.2829 6.92659 21.1294 7.13881 21.8214 7.47168C22.627 7.85926 23.3452 8.47378 23.5919 9.39453C23.8385 10.3153 23.5236 11.2059 23.0197 11.9443C22.5132 12.6863 21.7425 13.3921 20.8195 14.0381C20.7984 14.0528 20.7763 14.0663 20.755 14.0811C19.8156 18.0479 16.2541 21 12.0001 21C9.4684 21 7.18232 19.9531 5.547 18.2705C5.40675 18.2623 5.26866 18.253 5.13293 18.2412C4.01043 18.1433 2.98946 17.9177 2.17981 17.5283C1.37405 17.1407 0.656052 16.5263 0.409302 15.6055C0.150848 14.6403 0.507668 13.7097 1.05676 12.9473C1.53457 12.2839 2.22449 11.6482 3.04895 11.0566C3.5205 6.52944 7.34813 3 12.0001 3ZM17.9738 15.6484C16.5816 16.2969 14.9961 16.8743 13.295 17.3301C11.7099 17.7548 10.1588 18.037 8.71692 18.1826C9.69619 18.7037 10.8134 19 12.0001 19C14.5291 19 16.7437 17.6582 17.9738 15.6484ZM12.0001 5C8.13411 5 5.00012 8.13398 5.00012 12C5.00012 13.6211 5.55266 15.1122 6.47766 16.2988C8.27138 16.3053 10.4588 16.0188 12.7775 15.3975C15.2286 14.7406 17.3646 13.8325 18.9435 12.8721C18.979 12.5863 19.0001 12.2954 19.0001 12C19.0001 8.13402 15.8661 5.00005 12.0001 5ZM3.14075 13.582C2.95704 13.7673 2.80278 13.9455 2.67981 14.1162C2.3116 14.6275 2.30013 14.935 2.34094 15.0879C2.38008 15.2339 2.52981 15.4768 3.047 15.7256C3.29385 15.8443 3.5977 15.9489 3.95618 16.0361C3.57278 15.2735 3.29462 14.4496 3.14075 13.582ZM20.5197 9.09863C20.7581 9.799 20.9112 10.5377 20.9698 11.3037C21.1287 11.1344 21.2624 10.9726 21.3683 10.8174C21.6915 10.3438 21.6993 10.0583 21.6603 9.91211C21.6212 9.76609 21.4712 9.52315 20.9542 9.27441C20.8248 9.21218 20.68 9.15293 20.5197 9.09863Z" fill="#9E9E9E"/>
</g>
</svg>
