<svg width="24" height="24" viewBox="0 0 24 24" fill="none" xmlns="http://www.w3.org/2000/svg">
<g id="icons/Travels/pyramid-one">
<path id="Union" d="M9.88086 0.95166C13.5302 0.024718 17.2399 2.23205 18.167 5.88135C19.0212 9.24494 17.2123 12.6571 14.0664 13.897L15.1699 16.104L16.6289 13.5103L16.7002 13.3999C16.884 13.155 17.1724 13.0057 17.4834 13.0005C17.8387 12.9946 18.1701 13.1782 18.3545 13.4819L22.6045 20.4819C22.7916 20.7906 22.7981 21.1761 22.6211 21.4907C22.4439 21.8053 22.1111 22.0005 21.75 22.0005H2.5C2.15356 22.0005 1.83166 21.8205 1.64941 21.5259C1.46741 21.2312 1.45071 20.8631 1.60547 20.5532L6.0752 11.6118C5.56385 10.9202 5.1753 10.1206 4.95117 9.23877C4.02404 5.58941 6.23148 1.87881 9.88086 0.95166ZM4.11816 20.0005H6.89844L11.0039 12.2446L9.5 9.23682L4.11816 20.0005ZM9.16113 20.0005H14.8818L12.1025 14.4429L9.16113 20.0005ZM16.249 18.2622L17.1182 20.0005H19.9736L17.5322 15.98L16.249 18.2622ZM16.2285 6.37354C15.5733 3.79476 12.9518 2.23501 10.373 2.89014C7.79439 3.54528 6.23482 6.16698 6.88965 8.74561C6.95462 9.00122 7.04028 9.24596 7.1416 9.47998L8.60547 6.55322L8.67676 6.43213C8.86169 6.16416 9.16854 6.00049 9.5 6.00049C9.87876 6.0005 10.2251 6.21445 10.3945 6.55322L12.1416 10.0483C12.1424 10.0499 12.1438 10.0517 12.1445 10.0532L13.167 12.0981C15.4904 11.278 16.8467 8.80803 16.2285 6.37354Z" fill="#9E9E9E"/>
</g>
</svg>
