<svg width="24" height="24" viewBox="0 0 24 24" fill="none" xmlns="http://www.w3.org/2000/svg">
<g id="icons/Travels/railway">
<path id="Union" d="M16.9996 1C18.1042 1 18.9996 1.89544 18.9996 3V15C18.9996 16.0663 18.1654 16.934 17.1139 16.9932L19.3942 21.5527C19.6412 22.0467 19.4409 22.6475 18.9469 22.8945C18.453 23.1413 17.852 22.9412 17.6051 22.4473L14.8815 17H9.1178L6.39417 22.4473C6.14714 22.9412 5.5463 23.1415 5.05237 22.8945C4.55861 22.6475 4.35825 22.0466 4.6051 21.5527L6.8844 16.9932C5.83368 16.9332 4.99963 16.0657 4.99963 15V3C4.99963 1.89554 5.89518 1.00017 6.99963 1H16.9996ZM14.9996 21C15.5519 21 15.9996 21.4477 15.9996 22C15.9996 22.5523 15.5519 23 14.9996 23H8.99963C8.44749 22.9998 7.99963 22.5522 7.99963 22C7.99963 21.4478 8.44749 21.0002 8.99963 21H14.9996ZM13.4996 18C14.0519 18 14.4996 18.4477 14.4996 19C14.4996 19.5523 14.0519 20 13.4996 20H10.4996C9.94749 19.9998 9.49963 19.5522 9.49963 19C9.49963 18.4478 9.94749 18.0002 10.4996 18H13.4996ZM6.99963 15H16.9996V11H6.99963V15ZM8.99963 12C9.55192 12 9.99963 12.4477 9.99963 13C9.99963 13.5523 9.55192 14 8.99963 14C8.44749 13.9998 7.99963 13.5522 7.99963 13C7.99963 12.4478 8.44749 12.0002 8.99963 12ZM14.9996 12C15.5519 12 15.9996 12.4477 15.9996 13C15.9996 13.5523 15.5519 14 14.9996 14C14.4475 13.9998 13.9996 13.5522 13.9996 13C13.9996 12.4478 14.4475 12.0002 14.9996 12ZM6.99963 9H16.9996V3H6.99963V9Z" fill="#9E9E9E"/>
</g>
</svg>
