<svg width="24" height="24" viewBox="0 0 24 24" fill="none" xmlns="http://www.w3.org/2000/svg">
<g id="icons/Travels/repositioning">
<path id="Union" d="M3 10.9995C3.12531 10.9995 3.24493 11.0238 3.35547 11.0659C3.65386 11.1795 3.88316 11.4314 3.96582 11.7437C3.97061 11.7618 3.97571 11.7798 3.97949 11.7983C3.9911 11.855 3.99745 11.9134 3.99902 11.9731C3.99923 11.9809 3.99997 11.9887 4 11.9966V12.0044C4.00012 12.0123 4.00036 12.0268 4.00098 12.0464C4.00226 12.0868 4.00504 12.1514 4.01074 12.2358C4.02224 12.4057 4.04592 12.6582 4.09375 12.9683C4.18991 13.5914 4.38205 14.4364 4.7627 15.3247C5.51549 17.0811 6.99432 19.0022 10.001 19.7817C13.0472 20.5715 15.1821 19.7276 16.5693 18.7212C17.2756 18.2087 17.7974 17.6451 18.1416 17.2104C18.3128 16.9942 18.4385 16.8125 18.5186 16.689C18.5584 16.6275 18.5873 16.5803 18.6045 16.5513C18.613 16.5369 18.6191 16.5261 18.6221 16.521C18.6233 16.5188 18.624 16.5172 18.624 16.5171C18.8895 16.0354 19.4951 15.8582 19.9785 16.1216C20.4632 16.3859 20.6419 16.9933 20.3779 17.478L19.5 16.9995C20.2974 17.4345 20.3705 17.4749 20.377 17.479V17.481L20.375 17.4829C20.374 17.4847 20.3725 17.4873 20.3711 17.4897C20.3683 17.4948 20.3646 17.5017 20.3604 17.5093C20.3516 17.5247 20.34 17.5457 20.3252 17.5708C20.2953 17.6213 20.2523 17.6909 20.1973 17.7759C20.087 17.9462 19.9251 18.181 19.71 18.4526C19.2809 18.9944 18.6303 19.6967 17.7432 20.3403C15.9429 21.6463 13.2025 22.6775 9.49902 21.7173C6.83752 21.0272 5.11233 19.5856 4 18.0269V19.9995C4 20.5518 3.55228 20.9995 3 20.9995C2.44772 20.9995 2 20.5518 2 19.9995V11.9995C2.00025 11.4474 2.44787 10.9995 3 10.9995ZM12 5.49951C13.4586 5.49951 14.8572 6.07957 15.8887 7.11084C16.92 8.14221 17.4999 9.54101 17.5 10.9995C17.5 13.1513 16.1403 15.02 14.9756 16.2495C14.3729 16.8857 13.7737 17.4019 13.3262 17.7583C13.1019 17.9369 12.9135 18.0774 12.7793 18.1743C12.7125 18.2226 12.6582 18.2603 12.6201 18.2866C12.6014 18.2996 12.5861 18.3105 12.5752 18.3179C12.5699 18.3215 12.5649 18.3244 12.5615 18.3267C12.5601 18.3276 12.5586 18.3289 12.5576 18.3296L12.5557 18.3306V18.3315C12.5528 18.3277 12.5152 18.2722 12 17.4995L12.5547 18.3315C12.2188 18.5555 11.7812 18.5555 11.4453 18.3315L12 17.4995C11.4848 18.2722 11.4472 18.3277 11.4443 18.3315V18.3306L11.4424 18.3296C11.4414 18.3289 11.4399 18.3276 11.4385 18.3267C11.4351 18.3244 11.4301 18.3215 11.4248 18.3179C11.4139 18.3105 11.3986 18.2996 11.3799 18.2866C11.3418 18.2603 11.2875 18.2226 11.2207 18.1743C11.0865 18.0774 10.8981 17.9369 10.6738 17.7583C10.2263 17.4019 9.62709 16.8857 9.02441 16.2495C7.85968 15.02 6.5 13.1513 6.5 10.9995C6.50012 9.54101 7.08002 8.14221 8.11133 7.11084C9.14278 6.07957 10.5414 5.49951 12 5.49951ZM12 7.49951C11.0719 7.49951 10.1818 7.86868 9.52539 8.5249C8.86913 9.18121 8.50012 10.0715 8.5 10.9995C8.5 12.3475 9.3905 13.7291 10.4756 14.8745C10.9976 15.4256 11.5238 15.8784 11.9199 16.1938C11.9467 16.2152 11.9745 16.2344 12 16.2544C12.0255 16.2344 12.0533 16.2152 12.0801 16.1938C12.4762 15.8784 13.0024 15.4256 13.5244 14.8745C14.6095 13.7291 15.5 12.3475 15.5 10.9995C15.4999 10.0715 15.1309 9.18121 14.4746 8.5249C13.8182 7.86868 12.9281 7.49951 12 7.49951ZM12 8.49951C13.3806 8.49951 14.4997 9.61899 14.5 10.9995C14.5 12.3802 13.3807 13.4995 12 13.4995C10.6193 13.4995 9.5 12.3802 9.5 10.9995C9.50025 9.61899 10.6194 8.49951 12 8.49951ZM6.63672 3.5708C8.58276 2.28524 11.4684 1.30506 15.0771 2.5542C17.4127 3.36266 18.9677 4.68404 20 6.09229V3.99951C20.0003 3.44744 20.4479 2.99951 21 2.99951C21.5521 2.99951 21.9997 3.44744 22 3.99951V11.9995C22 12.0092 21.9983 12.0192 21.998 12.0288C21.9993 12.0897 22.0012 12.1409 22.001 12.1812C22.0008 12.2105 22.0004 12.2347 22 12.2524C21.9998 12.2611 22.0001 12.2691 22 12.2749C21.9999 12.2776 21.9992 12.2807 21.999 12.2827V12.2866L21.958 12.2847L21.957 12.2856L21.999 12.2876C21.9778 12.8394 21.5136 13.2696 20.9619 13.2485C20.41 13.2273 19.9798 12.7623 20.001 12.2104V12.1704C20.0012 12.1339 20.0015 12.0751 19.999 11.9976C19.994 11.8414 19.9794 11.6082 19.9443 11.3188C19.8738 10.7373 19.7186 9.94054 19.3818 9.08447C18.7162 7.39293 17.3433 5.45479 14.4229 4.44385C11.5324 3.44339 9.29215 4.21314 7.73828 5.23975C6.9516 5.75957 6.34252 6.34621 5.93066 6.8042C5.72578 7.03205 5.57275 7.22615 5.47266 7.35889C5.42285 7.42494 5.38588 7.47598 5.36328 7.5083C5.35225 7.52409 5.34418 7.53605 5.33984 7.54248C5.33922 7.54341 5.33758 7.54386 5.33691 7.54443L5.33789 7.54541C5.03621 8.00799 4.41669 8.13806 3.9541 7.83643C3.49168 7.53468 3.36046 6.91517 3.66211 6.45264L4.37598 6.91846C3.66257 6.45314 3.66281 6.45208 3.66309 6.45166L3.66406 6.45068L3.66504 6.44873C3.66613 6.44698 3.66741 6.4442 3.66895 6.44189C3.67217 6.43705 3.67667 6.43071 3.68164 6.42334C3.6919 6.40812 3.70599 6.38706 3.72363 6.36182C3.7591 6.31109 3.81005 6.24093 3.875 6.15479C4.00538 5.98188 4.19639 5.74302 4.44434 5.46729C4.93866 4.91762 5.67397 4.2069 6.63672 3.5708ZM12 10.4995C11.724 10.4995 11.5003 10.7236 11.5 10.9995C11.5 11.2757 11.7238 11.4995 12 11.4995C12.2762 11.4995 12.5 11.2757 12.5 10.9995C12.4997 10.7236 12.276 10.4995 12 10.4995Z" fill="#9E9E9E"/>
</g>
</svg>
