<svg width="24" height="24" viewBox="0 0 24 24" fill="none" xmlns="http://www.w3.org/2000/svg">
<g id="icons/Travels/riding-one">
<path id="Union" d="M7.51172 4.2124C7.75332 4.02306 8.06905 3.95475 8.36719 4.02783L8.12891 4.99951C8.34839 4.10451 8.36576 4.03425 8.36719 4.02881H8.37012C8.37191 4.02925 8.37481 4.02999 8.37793 4.03076C8.38416 4.03231 8.39304 4.03477 8.4043 4.0376C8.42716 4.04334 8.4605 4.05133 8.50195 4.06201C8.58514 4.08345 8.70395 4.11471 8.84668 4.15381C9.13098 4.23169 9.51772 4.34309 9.9209 4.4751C10.3196 4.60565 10.758 4.76456 11.1348 4.93896C11.3226 5.02592 11.5156 5.12627 11.6885 5.23975C11.845 5.34251 12.0643 5.5065 12.2256 5.74463C12.4631 6.09589 12.5403 6.49089 12.5664 6.78662C12.5937 7.09647 12.5741 7.40388 12.5439 7.65674C12.5409 7.68192 12.5355 7.7073 12.5322 7.73193C13.4441 8.21233 14.2789 8.91426 14.9287 9.69189C15.7115 10.6288 16.3307 11.8047 16.3867 12.981C16.592 12.8622 16.7786 12.7481 16.9336 12.6421C17.07 12.5484 17.0853 12.5267 17.125 12.0532C17.1411 11.8614 17.1693 11.427 17.4062 11.0337C17.6421 10.6427 18.0012 10.407 18.4111 10.2769L19.1719 9.70166L19.2559 9.64502C19.4567 9.52313 19.6954 9.47448 19.9297 9.51123C20.1976 9.55334 20.4369 9.7034 20.5928 9.92529H20.5938V9.92627C20.5942 9.92698 20.5958 9.92805 20.5967 9.9292C20.5984 9.93165 20.6005 9.93561 20.6035 9.93994C20.6097 9.94877 20.6188 9.96194 20.6299 9.97803C20.6522 10.0104 20.6841 10.0573 20.7236 10.1157C20.803 10.2329 20.9142 10.399 21.041 10.5962C21.2923 10.987 21.618 11.5173 21.8887 12.0405H21.8877C22.2404 12.7226 22.4481 13.8889 22.4873 15.0278C22.5272 16.1898 22.4015 17.5587 21.9141 18.6558C21.7536 19.0169 21.3951 19.2495 21 19.2495H19.3643C19.5858 19.632 19.5342 20.1291 19.207 20.4565C18.8165 20.8471 18.1835 20.8471 17.793 20.4565L16.293 18.9565C16.0071 18.6705 15.9214 18.2403 16.0762 17.8667C16.2311 17.4933 16.5957 17.2495 17 17.2495H20.2891C20.4519 16.6198 20.5144 15.8571 20.4883 15.0962C20.4524 14.0523 20.2585 13.2431 20.1113 12.9585C19.9339 12.6155 19.7188 12.2579 19.5225 11.9429L19.4648 11.9868C19.3635 12.0633 19.2481 12.1184 19.126 12.1519C19.1239 12.1718 19.1203 12.1946 19.1182 12.2202C19.0845 12.622 19.0654 13.6042 18.0664 14.2905L18.0645 14.2915C17.564 14.634 16.8573 15.0349 16.1084 15.3608C16.0443 15.6431 15.9764 15.9095 15.9092 16.1499C15.7914 16.5713 15.6736 16.9329 15.585 17.1899C15.5406 17.3185 15.5032 17.4224 15.4766 17.4946C15.4634 17.5304 15.4519 17.5586 15.4443 17.5786C15.4406 17.5884 15.4377 17.5973 15.4355 17.603C15.4346 17.6055 15.4333 17.6082 15.4326 17.6099L15.4316 17.6118V17.6128C15.3002 17.9494 14.9993 18.185 14.6494 18.2378C14.6036 18.3085 14.5442 18.4364 14.5029 18.6187C14.4568 18.8229 14.4477 19.0299 14.4678 19.188C14.478 19.2683 14.4925 19.3123 14.499 19.3296C14.8522 19.7197 14.8436 20.3221 14.4697 20.7017C14.082 21.0948 13.4489 21.0991 13.0557 20.7114C12.6738 20.3348 12.5338 19.8284 12.4844 19.4419C12.4316 19.028 12.4607 18.5844 12.5527 18.1772C12.6434 17.7765 12.8107 17.3399 13.0908 16.98C13.2468 16.7796 13.4598 16.5825 13.7256 16.4429C13.7695 16.3128 13.8182 16.1585 13.8711 15.9868C13.7342 15.9975 13.5989 16.0031 13.4658 15.9985C12.9139 15.9796 12.4821 15.5172 12.501 14.9653C12.5202 14.4136 12.9824 13.9816 13.5342 14.0005C13.7464 14.0078 14.0225 13.9637 14.3438 13.8755C14.3739 13.6262 14.3926 13.3821 14.3926 13.1519C14.3922 12.5726 14.0587 11.7701 13.3936 10.9741C12.7419 10.1943 11.883 9.55762 11.0576 9.25928C10.562 9.07999 10.2908 8.54676 10.4375 8.04053C10.4377 8.0396 10.4381 8.03794 10.4385 8.03662C10.4402 8.03031 10.4434 8.01901 10.4473 8.00439C10.4551 7.97419 10.4664 7.92761 10.4795 7.86963C10.5062 7.75097 10.5373 7.59063 10.5576 7.42041C10.5785 7.24562 10.5852 7.0864 10.5742 6.9624C10.5718 6.93496 10.5654 6.91276 10.5625 6.89502C10.5009 6.85715 10.4131 6.80811 10.2949 6.75342C10.0206 6.62645 9.66608 6.49673 9.29883 6.37646C9.24203 6.35787 9.18496 6.34048 9.12891 6.32275V8.72217C9.12873 9.12239 8.88952 9.48383 8.52148 9.64111L3 11.9995V13.0601L6.02539 12.7769C6.12679 12.332 6.52443 11.9995 7 11.9995C7.55215 11.9995 7.99977 12.4474 8 12.9995C8 13.4618 8.14199 13.6719 8.25684 13.7759C8.38876 13.8951 8.62556 13.9995 9 13.9995C9.37444 13.9995 9.61124 13.8951 9.74316 13.7759C9.85801 13.6719 10 13.4618 10 12.9995C10.0002 12.4474 10.4479 11.9995 11 11.9995C11.5521 11.9995 11.9998 12.4474 12 12.9995C12 13.9175 11.6938 14.7084 11.085 15.2593C10.7534 15.5592 10.367 15.7521 9.96387 15.8667C10.0097 16.3324 10.0232 16.9272 9.92578 17.439L9.87402 17.6636C9.74352 18.1402 9.58063 18.6008 9.11426 19.1333C8.70068 19.6054 8.06531 20.1145 7.0791 20.8149C6.62882 21.1347 6.00436 21.0289 5.68457 20.5786C5.36503 20.1284 5.47072 19.5038 5.9209 19.1841C6.90532 18.4849 7.36586 18.0938 7.60938 17.8159C7.79956 17.5988 7.85587 17.4584 7.94434 17.1353C8.00417 16.9161 8.01967 16.4643 7.96973 16.0083C7.96313 15.9481 7.95427 15.8924 7.94629 15.8413C7.57574 15.7239 7.22202 15.5369 6.91504 15.2593C6.74356 15.1041 6.59699 14.9295 6.47363 14.7388C6.44409 14.7443 6.41428 14.7496 6.38379 14.7524L2.09375 15.1548C1.81367 15.1811 1.53523 15.0882 1.32715 14.8989C1.11926 14.7095 1.00013 14.4409 1 14.1597V11.3394L1.01074 11.1919C1.06158 10.8523 1.28527 10.558 1.60742 10.4204L7.12891 8.06104V4.99951C7.12903 4.69252 7.27016 4.40188 7.51172 4.2124ZM18.5 4.99951C19.6044 4.99951 20.4998 5.89512 20.5 6.99951C20.5 8.1041 19.6046 8.99951 18.5 8.99951C17.3954 8.99951 16.5 8.1041 16.5 6.99951C16.5002 5.89512 17.3956 4.99951 18.5 4.99951Z" fill="#9E9E9E"/>
</g>
</svg>
