<svg width="24" height="24" viewBox="0 0 24 24" fill="none" xmlns="http://www.w3.org/2000/svg">
<g id="icons/Travels/road-sign">
<path id="Union" d="M11.5 1C12.0523 1 12.5 1.44772 12.5 2V4H19L19.0986 4.00488C19.3276 4.02757 19.5429 4.12883 19.707 4.29297L22.707 7.29297C23.0976 7.68349 23.0976 8.31651 22.707 8.70703L19.707 11.707C19.5195 11.8946 19.2652 12 19 12H12.5V21H14C14.5523 21 15 21.4477 15 22C15 22.5523 14.5523 23 14 23H9C8.44772 23 8 22.5523 8 22C8 21.4477 8.44772 21 9 21H10.5V12H3C2.44772 12 2 11.5523 2 11V5C2 4.44772 2.44772 4 3 4H10.5V2C10.5 1.44772 10.9477 1 11.5 1ZM4 10H18.5859L20.5859 8L18.5859 6H4V10Z" fill="#9E9E9E"/>
</g>
</svg>
