<svg width="24" height="24" viewBox="0 0 24 24" fill="none" xmlns="http://www.w3.org/2000/svg">
<g id="icons/Travels/road-sign-both">
<path id="Union" d="M12.0001 1C12.5524 1.00004 13.0001 1.44774 13.0001 2V3H19.0001L19.0988 3.00488C19.3277 3.02759 19.543 3.12884 19.7072 3.29297L21.7072 5.29297C22.0976 5.68348 22.0976 6.31652 21.7072 6.70703L19.7072 8.70703C19.5196 8.89455 19.2653 8.99998 19.0001 9H13.0001V10.5H19.0001C19.5524 10.5 20.0001 10.9477 20.0001 11.5V15.5C20.0001 16.0523 19.5524 16.5 19.0001 16.5H13.0001V21H14.5001C15.0524 21 15.5001 21.4477 15.5001 22C15.5001 22.5523 15.0524 23 14.5001 23H9.50012C8.94784 23 8.50012 22.5523 8.50012 22C8.50012 21.4477 8.94784 21 9.50012 21H11.0001V16.5H5.00012C4.73492 16.5 4.48062 16.3945 4.29309 16.207L2.29309 14.207C1.90257 13.8165 1.90257 13.1835 2.29309 12.793L4.29309 10.793L4.36633 10.7266C4.54428 10.5808 4.76805 10.5 5.00012 10.5H11.0001V9H5.00012C4.44784 9 4.00012 8.55228 4.00012 8V4C4.00012 3.44772 4.44784 3 5.00012 3H11.0001V2C11.0001 1.44772 11.4478 1 12.0001 1ZM4.41418 13.5L5.41418 14.5H18.0001V12.5H5.41418L4.41418 13.5ZM6.00012 7H18.5861L19.5861 6L18.5861 5H6.00012V7Z" fill="#9E9E9E"/>
</g>
</svg>
