<svg width="24" height="24" viewBox="0 0 24 24" fill="none" xmlns="http://www.w3.org/2000/svg">
<g id="icons/Travels/road">
<path id="Union" d="M12.0001 16.5C12.5523 16.5001 13.0001 16.9478 13.0001 17.5V21C13.0001 21.5522 12.5523 21.9999 12.0001 22C11.4478 22 11.0001 21.5523 11.0001 21V17.5C11.0001 16.9477 11.4478 16.5 12.0001 16.5ZM5.63782 2.00977C6.18469 2.08588 6.56631 2.59076 6.49036 3.1377L3.99036 21.1377C3.91431 21.6846 3.40936 22.0661 2.86243 21.9902C2.31548 21.9142 1.93392 21.4093 2.00989 20.8623L4.50989 2.8623C4.58595 2.31537 5.09084 1.9338 5.63782 2.00977ZM18.3634 2.00977C18.9104 1.93431 19.4148 2.31623 19.4904 2.86328L21.9728 20.8408C22.0483 21.3878 21.6662 21.8921 21.1193 21.9678C20.5722 22.0433 20.0669 21.6613 19.9913 21.1143L17.5099 3.13672C17.4344 2.58963 17.8163 2.0853 18.3634 2.00977ZM12.0001 9C12.5523 9.00007 13.0001 9.44776 13.0001 10V13.5C13.0001 14.0522 12.5523 14.4999 12.0001 14.5C11.4478 14.5 11.0001 14.0523 11.0001 13.5V10C11.0001 9.44772 11.4478 9 12.0001 9ZM12.0001 2C12.5523 2.00007 13.0001 2.44776 13.0001 3V6C13.0001 6.55224 12.5523 6.99993 12.0001 7C11.4478 7 11.0001 6.55228 11.0001 6V3C11.0001 2.44772 11.4478 2 12.0001 2Z" fill="#9E9E9E"/>
</g>
</svg>
