<svg width="24" height="24" viewBox="0 0 24 24" fill="none" xmlns="http://www.w3.org/2000/svg">
<g id="icons/Travels/road-cone">
<path id="Union" d="M13.5 2C13.9492 2 14.3436 2.2996 14.4639 2.73242L15.0889 4.98242L15.1006 5.02637L16.9639 11.7324L18.7139 18.0322L19.2607 20H21C21.5523 20 22 20.4477 22 21C22 21.5523 21.5523 22 21 22H3C2.44772 22 2 21.5523 2 21C2 20.4477 2.44772 20 3 20H4.73926L5.16113 18.4824L9.53613 2.73242C9.65636 2.2996 10.0508 2 10.5 2H13.5ZM7.08887 19.0176L6.81641 20H17.1836L16.7861 18.5674L16.4893 17.5H7.51074L7.08887 19.0176ZM8.06641 15.5H15.9336L15.2393 13H8.76074L8.06641 15.5ZM9.31641 11H14.6836L13.9893 8.5H10.0107L9.31641 11ZM10.8389 5.51758L10.5664 6.5H13.4336L13.1611 5.51758L12.7393 4H11.2607L10.8389 5.51758Z" fill="#9E9E9E"/>
</g>
</svg>
