<svg width="24" height="24" viewBox="0 0 24 24" fill="none" xmlns="http://www.w3.org/2000/svg">
<g id="icons/Travels/rocket">
<path id="Union" d="M11.5449 1.10938C11.8778 0.93917 12.2843 0.967496 12.5928 1.19434L15.2402 3.1416C16.8293 4.31042 17.9103 6.01219 18.3174 7.90332L21.207 10.793C21.3945 10.9805 21.5 11.2348 21.5 11.5V15.5C21.5 15.8466 21.3202 16.1684 21.0254 16.3506C20.7306 16.5327 20.3626 16.5495 20.0527 16.3945L18.5 15.6182V18.5C18.5 19.0523 18.0523 19.5 17.5 19.5H16V21C16 21.5523 15.5523 22 15 22C14.4477 22 14 21.5523 14 21V19.5H13V22C13 22.5523 12.5523 23 12 23C11.4477 23 11 22.5523 11 22V19.5H10V21C10 21.5523 9.55228 22 9 22C8.44772 22 8 21.5523 8 21V19.5H6.5C5.94772 19.5 5.5 19.0523 5.5 18.5V15.6182L3.94727 16.3945C3.63735 16.5495 3.26939 16.5327 2.97461 16.3506C2.67982 16.1684 2.5 15.8466 2.5 15.5V11.5L2.50488 11.4014C2.52759 11.1724 2.62885 10.9571 2.79297 10.793L5.68164 7.90332C6.08873 6.01211 7.17065 4.31046 8.75977 3.1416L11.4072 1.19434L11.5449 1.10938ZM9.94531 4.75293C8.40817 5.88352 7.50013 7.67779 7.5 9.58594V17.5H16.5V9.58594C16.4999 7.67779 15.5918 5.88352 14.0547 4.75293L12 3.24121L9.94531 4.75293ZM4.5 11.9141V13.8818L5.5 13.3818V10.9141L4.5 11.9141ZM18.5 13.3818L19.5 13.8818V11.9141L18.5 10.9141V13.3818Z" fill="#9E9E9E"/>
</g>
</svg>
