<svg width="24" height="24" viewBox="0 0 24 24" fill="none" xmlns="http://www.w3.org/2000/svg">
<g id="icons/Travels/round-trip">
<path id="Union" d="M20.9999 16.4995C21.5521 16.4995 21.9997 16.9474 21.9999 17.4995V19.4995L21.995 19.6021C21.9437 20.1062 21.5176 20.4995 20.9999 20.4995H14.5809L15.2811 21.3745C15.6261 21.8058 15.5561 22.4357 15.1249 22.7808C14.6936 23.1258 14.0636 23.0558 13.7186 22.6245L11.7186 20.1245C11.4787 19.8244 11.432 19.4123 11.5985 19.0659C11.7651 18.7198 12.1157 18.4996 12.4999 18.4995H19.9999V17.4995C20 16.9474 20.4478 16.4996 20.9999 16.4995ZM15.3749 13.2183C15.8061 12.8733 16.4361 12.9435 16.7811 13.3745L18.7811 15.8745C19.0212 16.1746 19.0677 16.5867 18.9012 16.9331C18.7347 17.2794 18.3842 17.4995 17.9999 17.4995H10.4999V18.4995C10.4999 19.0518 10.0522 19.4995 9.49988 19.4995C8.94767 19.4994 8.49988 19.0517 8.49988 18.4995V16.4995C8.50002 15.9474 8.94776 15.4996 9.49988 15.4995H15.9188L15.2186 14.6245C14.8738 14.1933 14.9437 13.5632 15.3749 13.2183ZM16.9755 3.14795C17.1968 3.01174 17.463 2.96666 17.7167 3.02295L22.2167 4.02295C22.6133 4.11108 22.9169 4.43111 22.9852 4.83154C23.0534 5.23223 22.8725 5.63466 22.5272 5.84912H22.5262L22.5243 5.85107C22.5225 5.85221 22.5199 5.85386 22.5165 5.85596C22.509 5.86063 22.4971 5.86728 22.4823 5.87646C22.4527 5.89487 22.4089 5.92282 22.3514 5.9585C22.2366 6.02984 22.0675 6.13451 21.8524 6.26807C21.4221 6.53522 20.806 6.91799 20.0624 7.37939C18.575 8.30236 16.5771 9.54073 14.537 10.8042C10.4703 13.3228 6.19995 15.9615 5.49988 16.3657C4.47006 16.9603 3.35737 16.8464 2.50769 16.3267C1.68222 15.8214 1.08419 14.927 0.967651 13.9019C0.867818 13.0222 1.03257 11.942 1.18933 11.1626C1.27106 10.7563 1.35828 10.3979 1.42468 10.1411C1.4579 10.0127 1.48639 9.90828 1.50671 9.83545C1.51687 9.79908 1.52534 9.76963 1.53113 9.74951C1.53397 9.73966 1.53632 9.73169 1.53796 9.72607C1.53876 9.72335 1.53942 9.72091 1.53992 9.71924V9.71729L1.54089 9.71631V9.71533C1.64111 9.37752 1.91226 9.11757 2.25378 9.03076C2.59535 8.9441 2.95765 9.04339 3.20691 9.29248L4.64832 10.7339L5.99207 9.90576L3.29285 7.20654C3.07319 6.98673 2.96811 6.67676 3.00867 6.36865C3.04942 6.06071 3.23085 5.78863 3.49988 5.6333L4.89929 4.82568L5.04089 4.7583C5.18773 4.70201 5.34692 4.68101 5.50476 4.69775L13.1053 5.50537C13.1155 5.50645 13.1256 5.50888 13.1356 5.51025L16.9755 3.14795ZM5.02429 12.8511C4.62995 13.0937 4.12028 13.0339 3.79285 12.7065L3.07214 11.9858C2.96609 12.6103 2.90474 13.2317 2.95496 13.6753C3.00032 14.0747 3.24013 14.4299 3.55164 14.6206C3.83955 14.7967 4.16637 14.8258 4.49988 14.6333C5.16513 14.2492 9.39296 11.6378 13.4843 9.104C15.5236 7.84101 17.5206 6.60294 19.0077 5.68018C19.1383 5.59911 19.2651 5.51984 19.3876 5.44385L17.6776 5.06299L5.02429 12.8511ZM7.74304 8.82861L10.3524 7.22314L5.6366 6.72217L7.74304 8.82861Z" fill="#9E9E9E"/>
</g>
</svg>
