<svg width="24" height="24" viewBox="0 0 24 24" fill="none" xmlns="http://www.w3.org/2000/svg">
<g id="icons/Travels/sailing">
<path id="Union" d="M9.50024 1C12.4279 1.0001 15.1884 2.88306 17.1663 5.4541C18.0832 6.64614 18.8584 8.0227 19.4319 9.5H20.5002C21.0524 9.50013 21.5002 9.9478 21.5002 10.5C21.5002 11.0522 21.0524 11.4999 20.5002 11.5H20.0637C20.3438 12.6418 20.5002 13.8187 20.5002 15C20.5002 15.5522 20.0524 15.9999 19.5002 16H10.5002V17H21.0002L21.1663 17.0137C21.5446 17.0773 21.8596 17.355 21.9641 17.7344C22.0836 18.1679 21.8989 18.6278 21.5129 18.8584L16.8381 21.6475C16.4511 21.8783 16.0084 21.9999 15.5579 22H4.00024C3.56994 22 3.18822 21.7245 3.052 21.3164L2.052 18.3164C1.95035 18.0115 2.00077 17.6758 2.18872 17.415C2.37668 17.1544 2.67886 17 3.00024 17H8.50024V16H5.50024C5.10648 16 4.74947 15.7684 4.58813 15.4092C4.42701 15.05 4.49164 14.6302 4.75317 14.3359L8.50024 10.1201V2C8.50024 1.44772 8.94796 1 9.50024 1ZM4.72095 20H15.5579C15.6479 19.9999 15.7365 19.9757 15.8137 19.9297L17.3723 19H4.38696L4.72095 20ZM7.72681 14H8.50024V13.1289L7.72681 14ZM10.5002 14H18.4553C18.3848 13.1567 18.2274 12.3175 17.9963 11.5H14.5002C13.948 11.5 13.5002 11.0523 13.5002 10.5C13.5002 9.94771 13.948 9.5 14.5002 9.5H17.2649C16.8053 8.48043 16.2354 7.52423 15.5813 6.67383C14.0914 4.73691 12.2711 3.46439 10.5002 3.10645V14Z" fill="#9E9E9E"/>
</g>
</svg>
