<svg width="24" height="24" viewBox="0 0 24 24" fill="none" xmlns="http://www.w3.org/2000/svg">
<g id="icons/Travels/sailboat-one">
<path id="Union" d="M21.6437 17.5107C21.9734 17.5586 22.2614 17.7688 22.4054 18.0762C22.5699 18.4275 22.517 18.8426 22.2687 19.1406L19.7687 22.1406C19.5787 22.3685 19.2968 22.5 19.0001 22.5H5.00012C4.7034 22.5 4.42156 22.3685 4.23157 22.1406L1.73157 19.1406C1.4832 18.8426 1.43035 18.4275 1.59485 18.0762C1.75945 17.7248 2.11214 17.5 2.50012 17.5H21.5001L21.6437 17.5107ZM5.46887 20.5H18.5314L19.3644 19.5H4.63586L5.46887 20.5ZM10.7443 1.53027C11.1884 1.64231 11.5001 2.04193 11.5001 2.5V15.5C11.5001 16.0522 11.0523 16.4999 10.5001 16.5H3.50012C3.14816 16.5 2.82221 16.3149 2.64172 16.0127C2.46135 15.7107 2.45269 15.3362 2.61926 15.0264L9.61926 2.02637C9.83643 1.62316 10.3002 1.41847 10.7443 1.53027ZM13.1759 5.55371C13.5797 5.41542 14.027 5.54893 14.2892 5.88574L21.2892 14.8857C21.5236 15.1872 21.5663 15.5964 21.3986 15.9395C21.2308 16.2825 20.882 16.4999 20.5001 16.5H13.5001C12.9478 16.5 12.5001 16.0523 12.5001 15.5V6.5L12.5128 6.34277C12.5702 5.98183 12.8222 5.67505 13.1759 5.55371ZM5.17493 14.5H9.50012V6.46582L5.17493 14.5ZM14.5001 14.5H18.4552L14.5001 9.41406V14.5Z" fill="#9E9E9E"/>
</g>
</svg>
