<svg width="24" height="24" viewBox="0 0 24 24" fill="none" xmlns="http://www.w3.org/2000/svg">
<g id="icons/Travels/sandals">
<path id="Union" d="M5.29907 2.47363C8.11985 1.58085 11.0492 3.61376 11.0852 6.6123C11.1088 8.59246 11.096 10.8295 10.9661 12.3359C10.8623 13.5381 11.0948 15.3197 11.4358 17.0713C11.9913 19.9267 9.76734 22.7847 6.73657 22.5742C4.63808 22.4283 2.83928 20.7403 2.97192 18.4834C3.05229 17.118 3.15992 15.9528 3.02856 14.7363C3.00921 14.6568 2.99825 14.5741 2.99927 14.4893C2.9662 14.2441 2.92447 13.9958 2.86841 13.7432C2.46062 11.9057 2.16906 9.88058 1.81274 7.87012C1.4113 5.60438 2.69465 3.29843 4.94458 2.58594L5.29907 2.47363ZM17.4963 1.83594C20.3286 1.48036 22.8313 3.857 22.4465 6.77441C22.1566 8.97316 21.7713 11.5061 21.3577 13.0576C21.072 14.1291 21.0041 15.676 21.05 17.2461C21.1343 20.1334 18.4847 22.6423 15.5208 21.9053C13.5121 21.4053 12.0819 19.4766 12.511 17.3311C12.8052 15.8603 13.073 14.6789 13.0012 13.0439C12.9153 11.0863 13.0368 8.77403 13.0579 6.56348C13.0788 4.3624 14.606 2.36945 16.8362 1.95117L17.2209 1.87891L17.4963 1.83594ZM6.89185 9.26758C6.78375 9.4315 6.66886 9.61333 6.55298 9.81348C5.93472 10.8814 5.25865 12.452 5.01196 14.4707C5.17705 15.9518 5.04354 17.3175 4.96802 18.6006C4.90866 19.6096 5.71007 20.4981 6.87524 20.5791L7.02368 20.585C8.54886 20.5933 9.79195 19.0931 9.4729 17.4531C9.30941 16.6132 9.16042 15.7148 9.06177 14.8418C9.05869 14.8333 9.05487 14.825 9.052 14.8164C8.55679 13.3308 8.01907 11.8554 7.50903 10.6357C7.28866 10.1088 7.08065 9.65028 6.89185 9.26758ZM17.2913 8.61328C16.9299 8.95136 16.5551 9.31238 16.2102 9.72461C15.5266 10.5418 15.0003 11.5099 15.0002 12.75C15.0002 12.7782 14.9977 12.8063 14.9954 12.834C14.997 12.875 14.9975 12.9162 14.9993 12.957C15.0834 14.8746 14.7579 16.2941 14.4719 17.7236C14.2754 18.7075 14.915 19.6929 16.0032 19.9639C17.5234 20.342 19.1015 19.0364 19.051 17.3047C19.0323 16.6648 19.0307 15.9952 19.0579 15.335C19.0139 15.2113 18.9935 15.0768 19.0022 14.9375C19.1128 13.1664 18.5563 11.3365 17.928 9.90039C17.7114 9.40535 17.4889 8.9687 17.2942 8.60938C17.2931 8.61038 17.2923 8.6122 17.2913 8.61328ZM9.08521 6.63672C9.06581 5.02021 7.48202 3.88089 5.90259 4.38086L5.5481 4.49316C4.31061 4.88522 3.54571 6.18516 3.78247 7.52148C3.9354 8.3844 4.0702 9.21332 4.20435 10.0137C4.40686 9.56812 4.61693 9.16661 4.82251 8.81152C5.19363 8.17053 5.55 7.67682 5.8186 7.33887C5.95274 7.17013 6.06583 7.03936 6.14771 6.94824C6.1886 6.90274 6.22281 6.86662 6.24731 6.84082C6.25928 6.82822 6.26897 6.81741 6.27661 6.80957L6.29224 6.79395C6.29357 6.79469 6.31756 6.81739 6.83911 7.33887L6.29321 6.79297C6.49297 6.59333 6.76798 6.48691 7.05005 6.50098C7.33214 6.5151 7.59579 6.64859 7.77466 6.86719C8.20052 7.38787 8.64926 8.25443 9.08618 9.24219C9.0959 8.39259 9.09547 7.49883 9.08521 6.63672ZM20.4641 6.5127C20.6777 4.893 19.2375 3.53582 17.5891 3.84473L17.2053 3.91699C15.9799 4.14676 15.0694 5.2674 15.0569 6.58203C15.0522 7.0772 15.041 7.56295 15.0305 8.03906C15.3442 7.70041 15.6555 7.40454 15.925 7.15234C16.3258 6.77733 16.5758 6.55047 16.7258 6.36719C16.925 6.12397 17.2272 5.98799 17.5413 6.00098C17.8555 6.01416 18.1463 6.17445 18.3245 6.43359V6.43457L18.3254 6.43555C18.3261 6.43655 18.3274 6.43799 18.3284 6.43945C18.3304 6.4425 18.3328 6.44717 18.3362 6.45215C18.3429 6.46211 18.3529 6.47572 18.3645 6.49316C18.3878 6.52823 18.4205 6.57881 18.4612 6.64258C18.5426 6.77029 18.6559 6.95406 18.7903 7.18555C19.0589 7.64846 19.4137 8.30806 19.76 9.09961C19.8406 9.28393 19.9198 9.47746 19.9993 9.67773C20.1663 8.66406 20.3252 7.56604 20.4641 6.5127Z" fill="#9E9E9E"/>
</g>
</svg>
