<svg width="24" height="24" viewBox="0 0 24 24" fill="none" xmlns="http://www.w3.org/2000/svg">
<g id="icons/Travels/selfie">
<path id="Union" fill-rule="evenodd" clip-rule="evenodd" d="M12.012 1.02327C12.9685 0.471022 14.1921 0.798289 14.7445 1.75471L15.0472 2.27913C16.0364 1.99218 17.2848 1.83984 18.5169 2.12776C20.2099 2.52344 21.7413 3.72462 22.471 6.14729C22.9631 7.7814 22.625 9.27363 21.9505 10.4246C22.2417 10.9829 22.4388 11.627 22.4154 12.3006C22.3593 13.9025 21.4647 14.8359 20.6195 15.324C20.2116 15.5595 19.8148 15.6945 19.5247 15.7713C19.3781 15.8101 19.253 15.8354 19.1614 15.8514C19.1156 15.8594 19.0771 15.865 19.0482 15.869C19.034 15.8709 19.0217 15.8727 19.012 15.8739C19.0074 15.8744 19.0029 15.8754 18.9993 15.8758C18.9976 15.876 18.995 15.8757 18.9935 15.8758L18.9915 15.8768H18.9905C18.9901 15.8767 18.9881 15.8644 18.8841 14.8817L18.9896 15.8768C18.4404 15.9348 17.9481 15.5363 17.89 14.9871C17.8322 14.4398 18.2275 13.9493 18.7738 13.8885H18.7708C18.7714 13.8883 18.7733 13.8879 18.7757 13.8875C18.7828 13.8866 18.7979 13.8853 18.8187 13.8817C18.8613 13.8742 18.9285 13.8598 19.012 13.8377C19.1836 13.7923 19.4052 13.7153 19.6195 13.5916C20.0187 13.3609 20.3899 12.9856 20.4163 12.2313C20.4175 12.1978 20.4162 12.1631 20.4144 12.1278C19.7449 12.6063 18.8754 12.97 18.0374 12.7918C17.549 12.6878 17.1124 12.4025 16.8294 11.9354C16.5623 11.4944 16.4785 10.9718 16.5013 10.4422C16.5433 9.46816 16.8867 8.54243 17.7747 8.14534C18.5892 7.7815 19.4477 8.06355 20.0394 8.40315C20.2077 8.49976 20.3725 8.61197 20.5325 8.73518C20.7296 8.13382 20.7737 7.44743 20.556 6.72444C20.0267 4.96701 19.0382 4.30324 18.0618 4.07502C17.4111 3.92297 16.7144 3.95602 16.0872 4.08186L16.7445 5.21955C17.2965 6.17609 16.9685 7.39878 16.012 7.951L12.1155 10.2L12.6155 11.0662L13.0482 10.8172C13.5264 10.5413 14.1383 10.7053 14.4144 11.1834C14.6903 11.6616 14.5262 12.2734 14.0482 12.5496L13.6155 12.7987L14.971 15.1453C15.928 15.0387 16.9021 15.4924 17.4144 16.3797L18.4144 18.1112C19.1047 19.3068 18.6949 20.8358 17.4993 21.5262C17.4688 21.5438 17.4371 21.56 17.4056 21.574C16.2245 22.1924 14.7571 21.7764 14.0843 20.6112L13.0843 18.8797C12.5716 17.9918 12.6656 16.92 13.2376 16.1444L11.8831 13.7987L11.4505 14.0496C10.9723 14.3257 10.3605 14.1616 10.0843 13.6834C9.80822 13.2051 9.97225 12.5933 10.4505 12.3172L10.8831 12.0662L10.3831 11.2L6.48567 13.451C5.52925 14.003 4.30657 13.6757 3.75422 12.7196L1.75422 9.25471C1.20214 8.2983 1.52948 7.07565 2.48567 6.52327L5.20051 4.95491C5.05329 4.87005 4.92535 4.74737 4.8343 4.58967C4.55839 4.11142 4.72232 3.49955 5.20051 3.22346L7.79817 1.72346C8.27629 1.44776 8.88825 1.61177 9.16438 2.08967C9.25537 2.24728 9.29728 2.41986 9.29719 2.58967L12.012 1.02327ZM15.682 17.3797C15.5445 17.1417 15.2409 17.0587 15.0023 17.1942L15.0003 17.1961C14.9994 17.1967 14.9974 17.1965 14.9964 17.1971C14.7591 17.3358 14.6781 17.6414 14.8157 17.8797L15.8157 19.6112C15.9538 19.8503 16.2602 19.9328 16.4993 19.7948C16.7385 19.6567 16.82 19.3503 16.682 19.1112L15.682 17.3797ZM3.48567 8.25471L5.48567 11.7196L15.012 6.21955L13.012 2.75471L3.48567 8.25471ZM18.6077 9.97737C18.5726 10.0385 18.5139 10.1911 18.4993 10.5281C18.4928 10.6803 18.5061 10.7772 18.5189 10.8338C18.6447 10.8218 18.9291 10.7518 19.3206 10.4539C19.3473 10.4336 19.3723 10.41 19.3988 10.3885C19.2803 10.2898 19.1609 10.2045 19.0443 10.1375C18.8037 9.99943 18.6637 9.97986 18.6077 9.97737Z" fill="#9E9E9E"/>
</g>
</svg>
