<svg width="24" height="24" viewBox="0 0 24 24" fill="none" xmlns="http://www.w3.org/2000/svg">
<g id="icons/Travels/set-off">
<path id="Union" d="M7.45374 7.30078L9.06409 7.58594H9.06604C11.4648 8.01635 13.7711 8.86192 15.8785 10.0967L17.5006 11.0439C17.5055 11.0465 17.5151 11.0485 17.528 11.0488L20.985 11C21.5371 10.992 21.9915 11.4333 21.9996 11.9854C22.0076 12.5375 21.5664 12.9919 21.0143 13L17.5436 13.0498C17.5391 13.0499 17.5344 13.0498 17.5299 13.0498C17.1845 13.0498 16.8341 12.9643 16.5192 12.7871C16.5145 12.7845 16.5101 12.781 16.5055 12.7783L14.8707 11.8232H14.8688C14.1102 11.3787 13.3225 10.9907 12.5123 10.6592L11.1315 13.2344L14.276 15.7266H14.275C14.5978 15.9793 14.8095 16.3103 14.9283 16.6484C14.9302 16.6536 14.9325 16.6589 14.9342 16.6641L16.6041 21.6846C16.7783 22.2085 16.4943 22.7749 15.9703 22.9492C15.4465 23.123 14.8809 22.8392 14.7067 22.3154L13.0387 17.3057C13.0366 17.3004 13.0352 17.2964 13.0338 17.2939L10.0758 14.9512L8.08167 17.8828L8.08069 17.8848L7.25452 17.3203L8.07971 17.8848C7.66443 18.4922 7.13278 19.1351 6.66956 19.6904C6.18108 20.2761 5.79369 20.7366 5.58167 21.0547C5.27528 21.5141 4.65443 21.6384 4.19495 21.332C3.73564 21.0257 3.61142 20.4048 3.9176 19.9453C4.20548 19.5135 4.68666 18.9458 5.13342 18.4102C5.60532 17.8444 6.07635 17.2722 6.42932 16.7559L9.00159 12.9756L10.5992 9.99512C9.97974 9.81686 9.35041 9.66899 8.7135 9.55469V9.55371L7.79456 9.3916L7.35803 10.1475L8.01233 10.5254C8.49041 10.8016 8.65463 11.4134 8.37854 11.8916L6.12854 15.7881C5.85245 16.2663 5.24057 16.4302 4.76233 16.1543L1.57581 14.3145C1.09768 14.0383 0.934469 13.4265 1.21057 12.9482L3.46057 9.05176C3.73669 8.5735 4.34753 8.40948 4.82581 8.68555L5.62561 9.14746L6.4137 7.78516C6.62401 7.42121 7.03982 7.2277 7.45374 7.30078ZM3.44202 13.082L4.89709 13.9219L6.14709 11.7568L4.69202 10.917L3.44202 13.082ZM14.4996 1C16.4326 1 17.9996 2.567 17.9996 4.5C17.9996 6.43298 16.4326 8 14.4996 8C12.5668 7.99984 10.9996 6.43288 10.9996 4.5C10.9996 2.5671 12.5668 1.00016 14.4996 1ZM14.4996 3C13.6714 3.00016 12.9996 3.67168 12.9996 4.5C12.9996 5.32831 13.6714 5.99984 14.4996 6C15.328 6 15.9996 5.32842 15.9996 4.5C15.9996 3.67158 15.3281 3 14.4996 3Z" fill="#9E9E9E"/>
</g>
</svg>
