<svg width="24" height="24" viewBox="0 0 24 24" fill="none" xmlns="http://www.w3.org/2000/svg">
<g id="icons/Travels/shade">
<path id="Union" d="M12 1C12.5523 1 13 1.44772 13 2V2.0498C13.0179 2.05158 13.0358 2.05379 13.0537 2.05566C13.357 2.08736 13.6564 2.13228 13.9512 2.19043C13.9877 2.19763 14.0242 2.20432 14.0605 2.21191C14.195 2.24001 14.3285 2.27126 14.4609 2.30469C14.491 2.31227 14.5209 2.32027 14.5508 2.32812C14.8329 2.40211 15.11 2.48856 15.3818 2.58594C15.4104 2.59619 15.4393 2.60571 15.4678 2.61621C15.6 2.66493 15.7308 2.71644 15.8604 2.77051C15.8826 2.77979 15.9046 2.78939 15.9268 2.79883C16.1531 2.89524 16.3754 2.99909 16.5928 3.11133C16.6105 3.12049 16.6276 3.13057 16.6445 3.14062C19.8272 4.80863 22 8.13584 22 11.9727V13C22 13.5523 21.5523 14 21 14C20.4477 14 20 13.5523 20 13C20 12.6412 19.8483 12.2446 19.585 11.9404C19.3235 11.6385 19.0198 11.5 18.75 11.5C18.4802 11.5 18.1765 11.6385 17.915 11.9404C17.689 12.2015 17.545 12.5308 17.5088 12.8457C17.5067 12.8896 17.508 12.9285 17.5059 12.9619C17.5031 13.0037 17.5012 13.0376 17.499 13.0625C17.4979 13.0747 17.4969 13.0848 17.4961 13.0928C17.4957 13.0964 17.4954 13.0998 17.4951 13.1025C17.4949 13.1049 17.4934 13.1071 17.4932 13.1094L17.4941 13.1104C17.478 13.2558 17.4294 13.3895 17.3594 13.5078C17.3481 13.5268 17.3377 13.5463 17.3252 13.5645C17.263 13.6551 17.1858 13.7334 17.0986 13.7988C17.057 13.8301 17.0131 13.8583 16.9668 13.8828C16.9609 13.886 16.9552 13.8896 16.9492 13.8926C16.9256 13.9045 16.9016 13.9157 16.877 13.9258C16.8734 13.9272 16.8698 13.9283 16.8662 13.9297C16.8409 13.9397 16.8153 13.9491 16.7891 13.957C16.745 13.9704 16.6995 13.9792 16.6533 13.9863C16.6339 13.9893 16.6145 13.9933 16.5947 13.9951C16.5814 13.9964 16.5681 13.9963 16.5547 13.9971C16.5366 13.998 16.5184 14 16.5 14C16.4977 14 16.4954 13.999 16.4932 13.999C16.4883 13.999 16.4834 13.9982 16.4785 13.998C16.4492 13.9974 16.4202 13.9972 16.3916 13.9941H16.3896C16.3304 13.9875 16.2731 13.9752 16.2178 13.959C16.1596 13.9419 16.104 13.9194 16.0508 13.8926C16.015 13.8745 15.9803 13.855 15.9473 13.833C15.9325 13.8232 15.9185 13.8123 15.9043 13.8018C15.8925 13.793 15.8805 13.7846 15.8691 13.7754C15.8632 13.7706 15.8574 13.7657 15.8516 13.7607C15.8333 13.7451 15.8159 13.7287 15.7988 13.7119C15.7898 13.703 15.7811 13.6938 15.7725 13.6846C15.7605 13.6718 15.7486 13.6589 15.7373 13.6455C15.7286 13.6353 15.7202 13.6249 15.7119 13.6143C15.7022 13.6018 15.6927 13.5891 15.6836 13.5762C15.6734 13.5618 15.6637 13.5471 15.6543 13.5322C15.6452 13.5178 15.6363 13.5032 15.6279 13.4883C15.6213 13.4765 15.6155 13.4642 15.6094 13.4521C15.6046 13.4427 15.5992 13.4335 15.5947 13.4238C15.5851 13.4033 15.5756 13.3826 15.5674 13.3613C15.5623 13.3482 15.5583 13.3347 15.5537 13.3213C15.5492 13.308 15.544 13.2948 15.54 13.2812C15.5333 13.2582 15.5285 13.2346 15.5234 13.2109C15.5222 13.2053 15.5197 13.2 15.5186 13.1943C15.5136 13.1693 15.5108 13.1438 15.5078 13.1182C15.5032 13.0794 15.5 13.04 15.5 13C15.5 12.6412 15.3483 12.2446 15.085 11.9404C14.8235 11.6385 14.5198 11.5 14.25 11.5C13.9802 11.5 13.6765 11.6385 13.415 11.9404C13.1517 12.2446 13 12.6412 13 13V19.75C13 21.5449 11.5449 23 9.75 23C7.95507 23 6.5 21.5449 6.5 19.75V19.0908C6.50004 18.5386 6.94774 18.0908 7.5 18.0908C8.05226 18.0908 8.49996 18.5386 8.5 19.0908V19.75C8.5 20.4404 9.05963 21 9.75 21C10.4404 21 11 20.4404 11 19.75V13C11 12.6412 10.8483 12.2446 10.585 11.9404C10.3235 11.6385 10.0198 11.5 9.75 11.5C9.48018 11.5 9.1765 11.6385 8.91504 11.9404C8.65169 12.2446 8.5 12.6412 8.5 13C8.5 13.0052 8.4991 13.0104 8.49902 13.0156C8.49872 13.0359 8.49762 13.0561 8.49609 13.0762C8.49503 13.0903 8.49383 13.1042 8.49219 13.1182C8.4907 13.1306 8.48828 13.1429 8.48633 13.1553C8.48346 13.1736 8.48139 13.192 8.47754 13.21C8.47499 13.2218 8.47172 13.2334 8.46875 13.2451C8.46267 13.2692 8.45604 13.293 8.44824 13.3164C8.44517 13.3256 8.44181 13.3347 8.43848 13.3438C8.43081 13.3647 8.42208 13.385 8.41309 13.4053C8.41036 13.4114 8.40812 13.4177 8.40527 13.4238C8.39491 13.4459 8.38299 13.4671 8.37109 13.4883C8.36746 13.4948 8.36413 13.5014 8.36035 13.5078C8.34785 13.5289 8.33428 13.5492 8.32031 13.5693C8.29234 13.6097 8.26128 13.6476 8.22754 13.6836C8.21727 13.6945 8.20703 13.7054 8.19629 13.7158C8.1631 13.7482 8.12763 13.778 8.08984 13.8057C8.07571 13.816 8.06156 13.8263 8.04688 13.8359C8.00965 13.8603 7.9706 13.8819 7.92969 13.9014C7.90815 13.9117 7.88661 13.9219 7.86426 13.9307C7.86071 13.932 7.85709 13.9332 7.85352 13.9346C7.8276 13.9444 7.8013 13.9533 7.77441 13.9609C7.77076 13.962 7.76734 13.9638 7.76367 13.9648C7.75795 13.9664 7.75182 13.9663 7.74609 13.9678C7.7229 13.9737 7.69959 13.9792 7.67578 13.9834C7.66764 13.9849 7.6595 13.9861 7.65137 13.9873C7.62718 13.991 7.60284 13.9942 7.57812 13.9961C7.56573 13.9971 7.55337 13.9975 7.54102 13.998C7.5274 13.9986 7.51375 14 7.5 14C7.49445 14 7.48893 13.9991 7.4834 13.999C7.46571 13.9987 7.4482 13.9973 7.43066 13.9961C7.41293 13.9949 7.39539 13.9933 7.37793 13.9912C7.36781 13.99 7.35771 13.9889 7.34766 13.9873C7.32523 13.9839 7.30316 13.9795 7.28125 13.9746C7.26782 13.9716 7.25448 13.9684 7.24121 13.9648C7.22181 13.9597 7.20251 13.9546 7.18359 13.9482C7.18096 13.9474 7.17841 13.9462 7.17578 13.9453C7.14714 13.9355 7.11919 13.9244 7.0918 13.9121C7.08555 13.9093 7.07943 13.9063 7.07324 13.9033C7.05132 13.8929 7.0298 13.882 7.00879 13.8701C7.00218 13.8664 6.99578 13.8623 6.98926 13.8584C6.96912 13.8464 6.94888 13.8346 6.92969 13.8213C6.91424 13.8106 6.8996 13.7987 6.88477 13.7871C6.87454 13.7791 6.86439 13.7711 6.85449 13.7627C6.83937 13.7499 6.82492 13.7364 6.81055 13.7227C6.80071 13.7133 6.7907 13.7041 6.78125 13.6943C6.7758 13.6887 6.77094 13.6825 6.76562 13.6768C6.7054 13.6114 6.65355 13.5386 6.6123 13.459C6.60911 13.4528 6.60561 13.4467 6.60254 13.4404C6.57462 13.3837 6.55199 13.3239 6.53516 13.2617V13.2598C6.53485 13.2586 6.53456 13.2573 6.53418 13.2559C6.53339 13.2529 6.53235 13.2493 6.53125 13.2451C6.52894 13.2363 6.52597 13.2241 6.52246 13.21C6.51546 13.1819 6.50587 13.1436 6.49512 13.0957C6.47349 12.9993 6.44555 12.8634 6.41699 12.6943C6.40233 12.6075 6.38737 12.5115 6.37305 12.4072C6.30304 12.2406 6.20627 12.0805 6.08496 11.9404C5.8235 11.6385 5.51982 11.5 5.25 11.5C4.98019 11.5 4.6765 11.6385 4.41504 11.9404C4.15169 12.2446 4 12.6412 4 13C4 13.5523 3.55228 14 3 14C2.44772 14 2 13.5523 2 13V11.9727C2 8.13304 4.17581 4.80351 7.3623 3.13672C7.37732 3.12795 7.39258 3.1194 7.4082 3.11133C7.62004 3.00196 7.83633 2.90002 8.05664 2.80566C8.08814 2.79217 8.1197 2.7788 8.15137 2.76562C8.27355 2.71478 8.39692 2.66621 8.52148 2.62012C8.55874 2.60633 8.59633 2.59343 8.63379 2.58008C8.89686 2.48631 9.16486 2.40294 9.4375 2.33105C9.47359 2.32154 9.50965 2.31186 9.5459 2.30273C9.67414 2.27046 9.80346 2.24115 9.93359 2.21387C9.97292 2.20562 10.0123 2.19723 10.0518 2.18945C10.3383 2.133 10.6292 2.09007 10.9238 2.05859C10.9492 2.05588 10.9745 2.05233 11 2.0498V2C11 1.44772 11.4477 1 12 1ZM15.0732 4.6123C15.5619 5.29398 16.0445 6.12917 16.4336 7.14062C16.83 8.1712 17.0836 9.11084 17.2461 9.92383C17.6823 9.66345 18.1907 9.5 18.75 9.5C19.0688 9.5 19.3712 9.55294 19.6533 9.64648C18.9718 7.41664 17.336 5.60042 15.2188 4.67188C15.1708 4.65084 15.1217 4.63242 15.0732 4.6123ZM11 5.09375C10.2468 5.81469 9.42603 6.78156 8.91113 7.91406C8.61099 8.57424 8.44415 9.23996 8.35742 9.86035C8.76795 9.63713 9.23761 9.5 9.75 9.5C10.152 9.5 10.5277 9.58431 10.8691 9.72852C10.9133 9.74716 10.957 9.76652 11 9.78711V5.09375ZM13 9.78711C13.043 9.76652 13.0867 9.74716 13.1309 9.72852C13.4723 9.58431 13.848 9.5 14.25 9.5C14.561 9.5 14.856 9.55096 15.1318 9.64062C14.9949 9.0973 14.8127 8.49961 14.5664 7.85938C14.1209 6.7013 13.5376 5.8303 13 5.20117V9.78711ZM8.37109 4.86719C6.45346 5.84175 4.98249 7.56287 4.3457 9.64648C4.62805 9.55276 4.93091 9.5 5.25 9.5C5.6474 9.5 6.01911 9.58242 6.35742 9.72363C6.45991 8.9026 6.67562 7.99702 7.08984 7.08594C7.48962 6.20664 8.02197 5.43027 8.57031 4.77051C8.50353 4.80216 8.43684 4.83376 8.37109 4.86719Z" fill="#9E9E9E"/>
</g>
</svg>
