<svg width="24" height="24" viewBox="0 0 24 24" fill="none" xmlns="http://www.w3.org/2000/svg">
<g id="icons/Travels/ship">
<path id="Union" d="M15.5 19C15.7884 19 16.063 19.1248 16.2529 19.3418L17.25 20.4805L18.2471 19.3418C18.6106 18.9263 19.2426 18.8837 19.6582 19.2471C20.0737 19.6107 20.1163 20.2426 19.7529 20.6582L18.0029 22.6582C17.813 22.8752 17.5384 23 17.25 23C16.9616 23 16.687 22.8752 16.4971 22.6582L15.5 21.5186L14.5029 22.6582C14.313 22.8752 14.0384 23 13.75 23C13.4616 23 13.187 22.8752 12.9971 22.6582L12 21.5186L11.0029 22.6582C10.813 22.8752 10.5384 23 10.25 23C9.96164 23 9.68696 22.8752 9.49707 22.6582L8.5 21.5186L7.50293 22.6582C7.31304 22.8752 7.03836 23 6.75 23C6.46164 23 6.18696 22.8752 5.99707 22.6582L4.24707 20.6582C3.88372 20.2426 3.92628 19.6107 4.3418 19.2471C4.75744 18.8837 5.38935 18.9263 5.75293 19.3418L6.75 20.4805L7.74707 19.3418C7.93696 19.1248 8.21164 19 8.5 19C8.78836 19 9.06304 19.1248 9.25293 19.3418L10.25 20.4805L11.2471 19.3418C11.437 19.1248 11.7116 19 12 19C12.2884 19 12.563 19.1248 12.7529 19.3418L13.75 20.4805L14.7471 19.3418C14.937 19.1248 15.2116 19 15.5 19ZM12 1C12.5523 1 13 1.44772 13 2V3H17.5C17.7652 3 18.0195 3.10544 18.207 3.29297C18.3945 3.4805 18.5 3.73483 18.5 4L18.499 8.24121L21.334 9.24609C21.5891 9.33652 21.7966 9.52634 21.9092 9.77246C22.0217 10.0187 22.0303 10.3006 21.9316 10.5527L19.2646 17.3643C19.1146 17.7475 18.7446 18 18.333 18H5.66699C5.25541 18 4.88539 17.7475 4.73535 17.3643L2.06836 10.5527C1.96975 10.3006 1.9783 10.0187 2.09082 9.77246C2.20342 9.52634 2.4109 9.33652 2.66602 9.24609L5.5 8.24121V4C5.5 3.44772 5.94772 3.00001 6.5 3H11V2C11 1.44772 11.4477 1.00001 12 1ZM9.49414 8.94824L6.83398 9.89062C6.83243 9.89117 6.83065 9.89106 6.8291 9.8916L4.30762 10.7852L6.34863 16H17.6514L19.6914 10.7852L17.1709 9.8916C17.1691 9.89096 17.1669 9.89128 17.165 9.89062L13 8.41504V12C13 12.5523 12.5523 13 12 13C11.4477 13 11 12.5523 11 12V8.41406L9.49414 8.94824ZM7.5 7.53223L11.666 6.05762L11.8311 6.01465C11.8808 6.00611 11.9311 6.00192 11.9814 6.00098C11.9977 6.00067 12.014 6.00146 12.0303 6.00195C12.0675 6.00308 12.1046 6.00643 12.1416 6.01172C12.1553 6.01368 12.169 6.01505 12.1826 6.01758C12.2338 6.02707 12.2844 6.04007 12.334 6.05762L16.499 7.5332L16.5 5H7.5V7.53223Z" fill="#9E9E9E"/>
</g>
</svg>
