<svg width="24" height="24" viewBox="0 0 24 24" fill="none" xmlns="http://www.w3.org/2000/svg">
<g id="icons/Travels/steering-wheel">
<path id="Union" d="M12 1C18.0751 1 23 5.92487 23 12C23 18.0751 18.0751 23 12 23C5.92487 23 1 18.0751 1 12C1 5.92487 5.92487 1 12 1ZM3.05664 13C3.51786 17.1714 6.82858 20.4811 11 20.9424V16.8994C9.04095 16.5017 7.49829 14.959 7.10059 13H3.05664ZM16.8994 13C16.5017 14.959 14.959 16.5017 13 16.8994V20.9424C17.1714 20.4811 20.4821 17.1714 20.9434 13H16.8994ZM12 3C7.36751 3 3.55417 6.50014 3.05664 11H7.10059C7.5639 8.71781 9.58107 7 12 7C14.4189 7 16.4361 8.71781 16.8994 11H20.9434C20.4458 6.50014 16.6325 3 12 3Z" fill="#9E9E9E"/>
</g>
</svg>
