<svg width="24" height="24" viewBox="0 0 24 24" fill="none" xmlns="http://www.w3.org/2000/svg">
<g id="icons/Travels/sunbath">
<path id="Union" d="M21.1338 4.5C21.4099 4.02192 22.0217 3.85794 22.5 4.13379C22.9782 4.4098 23.142 5.02171 22.8662 5.5L20.6016 9.42383L22.874 13.5146C23.1421 13.9974 22.968 14.6058 22.4854 14.874C22.0026 15.1421 21.3942 14.9681 21.126 14.4854L19.4365 11.4443L16.2314 17H20C20.5522 17 20.9999 17.4478 21 18C21 18.5523 20.5523 19 20 19H18.5V20C18.5 20.5523 18.0523 21 17.5 21C16.9477 21 16.5 20.5523 16.5 20V19H6.5V20C6.5 20.5523 6.05228 21 5.5 21C4.94772 21 4.5 20.5523 4.5 20V19H3C2.44772 19 2 18.5523 2 18C2.00011 17.4478 2.44778 17 3 17H13.9219L21.1338 4.5ZM12 14C12.5522 14 12.9999 14.4478 13 15C13 15.5523 12.5523 16 12 16H4C3.44772 16 3 15.5523 3 15C3.00011 14.4478 3.44778 14 4 14H12ZM17.6426 4.98535C17.9268 4.51203 18.5412 4.35856 19.0146 4.64258C19.4881 4.92673 19.6414 5.54114 19.3574 6.01465L17.8574 8.51465C17.5732 8.98812 16.9589 9.14154 16.4854 8.85742C16.012 8.57321 15.8585 7.95885 16.1426 7.48535L17.6426 4.98535Z" fill="#9E9E9E"/>
</g>
</svg>
