<svg width="24" height="24" viewBox="0 0 24 24" fill="none" xmlns="http://www.w3.org/2000/svg">
<g id="icons/Travels/sunrise">
<path id="Union" d="M11.75 13C12.3023 13 12.75 13.4477 12.75 14C12.75 14.5523 12.3023 15 11.75 15C11.0049 15 9.90372 15.0271 9.00879 15.2061C8.55357 15.2971 8.23957 15.4108 8.06348 15.5215C8.04882 15.5307 8.03791 15.5414 8.02734 15.5488C8.09816 15.6071 8.25654 15.6918 8.55078 15.7676C9.16963 15.927 9.89595 15.9435 10.5869 16.0039C11.2423 16.0611 12.0844 16.323 12.7578 16.7617C13.395 17.1769 14.2198 17.9998 13.9805 19.1963C13.7447 20.3744 12.68 20.9818 11.7666 21.3086C10.791 21.6577 9.57814 21.8385 8.39355 21.9346C6.0282 22.1264 3.42502 22 2.5 22C1.94772 22 1.5 21.5523 1.5 21C1.5 20.4477 1.94772 20 2.5 20C3.57489 20 5.97185 20.1236 8.23145 19.9404C9.35926 19.849 10.3653 19.686 11.0928 19.4258C11.8824 19.1432 12.0052 18.8755 12.0195 18.8037C12.0208 18.7977 12.0283 18.7888 11.9971 18.7383C11.9535 18.6681 11.8532 18.5595 11.666 18.4375C11.2816 18.1871 10.7578 18.0262 10.4131 17.9961C9.90717 17.9519 8.88352 17.9184 8.05176 17.7041C7.62552 17.5943 7.13355 17.4121 6.7334 17.0742C6.29501 16.704 6 16.1711 6 15.5C6 14.6849 6.49987 14.1419 6.99902 13.8281C7.47914 13.5263 8.07157 13.3531 8.61621 13.2441C9.72124 13.0231 10.9951 13 11.75 13ZM17.4736 17.4746C17.8642 17.0841 18.4972 17.0841 18.8877 17.4746L19.6982 18.2842C20.0885 18.6747 20.0887 19.3088 19.6982 19.6992C19.3078 20.0894 18.6737 20.0894 18.2832 19.6992L17.4736 18.8887C17.0832 18.4982 17.0834 17.8652 17.4736 17.4746ZM12 6C15.3135 6 18 8.68652 18 12C18 14.0212 16.9997 15.809 15.4717 16.8945C15.0215 17.2142 14.397 17.1083 14.0771 16.6582C13.7573 16.208 13.8632 15.5835 14.3135 15.2637C15.3361 14.5372 16 13.3461 16 12C16 9.79109 14.2089 8 12 8C9.79109 8 8 9.79109 8 12C8 12.5523 7.55228 13 7 13C6.44772 13 6 12.5523 6 12C6 8.68652 8.68652 6 12 6ZM3.5 11C4.05228 11 4.5 11.4477 4.5 12C4.5 12.5523 4.05228 13 3.5 13H2C1.44772 13 1 12.5523 1 12C1 11.4477 1.44772 11 2 11H3.5ZM22 11C22.5523 11 23 11.4477 23 12C23 12.5523 22.5523 13 22 13H20.5C19.9477 13 19.5 12.5523 19.5 12C19.5 11.4477 19.9477 11 20.5 11H22ZM4.29297 4.29297C4.68349 3.90244 5.31651 3.90244 5.70703 4.29297L6.70703 5.29297C7.09756 5.68349 7.09756 6.31651 6.70703 6.70703C6.31651 7.09756 5.68349 7.09756 5.29297 6.70703L4.29297 5.70703C3.90244 5.31651 3.90244 4.68349 4.29297 4.29297ZM18.293 4.29297C18.6835 3.90244 19.3165 3.90244 19.707 4.29297C20.0976 4.68349 20.0976 5.31651 19.707 5.70703L18.707 6.70703C18.3165 7.09756 17.6835 7.09756 17.293 6.70703C16.9024 6.31651 16.9024 5.68349 17.293 5.29297L18.293 4.29297ZM12 1C12.5523 1 13 1.44772 13 2V3.5C13 4.05228 12.5523 4.5 12 4.5C11.4477 4.5 11 4.05228 11 3.5V2C11 1.44772 11.4477 1 12 1Z" fill="#9E9E9E"/>
</g>
</svg>
