<svg width="24" height="24" viewBox="0 0 24 24" fill="none" xmlns="http://www.w3.org/2000/svg">
<g id="icons/Travels/sunshade">
<path id="Union" d="M15.019 1.75195C15.2721 1.26121 15.8749 1.06836 16.3657 1.32129C16.8563 1.57441 17.0492 2.17722 16.7964 2.66797C16.6982 2.85847 16.5783 3.03159 16.4487 3.19043C18.5399 4.30973 19.8579 5.80985 20.5874 7.43555C21.4921 9.45189 21.4493 11.557 21.0181 13.167C21.0084 13.2029 20.9965 13.2388 20.9829 13.2734C20.8287 13.6662 20.5406 13.9402 20.269 14.125C19.9936 14.3123 19.6721 14.4517 19.3433 14.5576C18.6847 14.7696 17.8568 14.8924 16.9468 14.9355C15.2509 15.0159 13.121 14.8266 10.939 14.2949C10.5429 15.9954 10.3125 17.4612 10.1802 18.5859C10.1209 19.0895 10.0838 19.5244 10.0571 19.8809C10.7271 19.8276 11.4146 19.7876 12.0864 19.7666C12.1809 19.3619 12.3594 18.9426 12.6528 18.5703C13.1615 17.9252 13.9551 17.5 15.0005 17.5C16.0458 17.5001 16.8396 17.9252 17.3481 18.5703C17.6727 18.9821 17.854 19.452 17.939 19.8955C18.3925 19.921 18.7691 19.9435 19.0464 19.9629C19.2166 19.9748 19.3509 19.9852 19.4419 19.9922C19.487 19.9957 19.5227 19.9981 19.5464 20C19.5579 20.0009 19.5676 20.0024 19.5737 20.0029H19.5825L19.5835 20.0039L19.6851 20.0176C20.183 20.1107 20.5396 20.5672 20.4966 21.083C20.4507 21.6332 19.9677 22.0417 19.4175 21.9961H19.4106C19.4055 21.9957 19.3968 21.995 19.3862 21.9941C19.3645 21.9924 19.3307 21.9896 19.2876 21.9863C19.2011 21.9797 19.0725 21.9705 18.9077 21.959C18.5768 21.9359 18.0974 21.9049 17.5103 21.874C16.3346 21.8122 14.7278 21.75 13.0005 21.75C11.8143 21.75 10.4982 21.8403 9.28369 21.958C9.19362 21.9846 9.0982 22 8.99951 22C8.9702 22 8.94127 21.9976 8.9126 21.9951C8.52856 22.0347 8.15746 22.0761 7.80713 22.1182C7.03682 22.2106 6.37331 22.3028 5.90381 22.3721C5.66986 22.4066 5.48369 22.4351 5.35693 22.4551L5.17627 22.4844C5.17276 22.485 5.16937 22.4859 5.16748 22.4863H5.16455C4.61993 22.5769 4.10498 22.2087 4.01416 21.6641C3.92356 21.1194 4.29176 20.6045 4.83643 20.5137H4.8374C4.83806 20.5134 4.83931 20.5129 4.84033 20.5127C4.84281 20.5123 4.84671 20.5115 4.85107 20.5107C4.86027 20.5093 4.87405 20.5077 4.89111 20.5049C4.92626 20.4992 4.97843 20.4909 5.04443 20.4805C5.17734 20.4595 5.37117 20.4292 5.61279 20.3936C6.09633 20.3222 6.77742 20.2268 7.56885 20.1318C7.72087 20.1136 7.87747 20.0972 8.0376 20.0791C8.06492 19.6414 8.11079 19.0576 8.19385 18.3516C8.3364 17.1399 8.58466 15.5641 9.01416 13.7393C7.28471 13.1592 5.83044 12.4404 4.75732 11.6934C4.08489 11.2252 3.52032 10.7168 3.14014 10.1885C2.77621 9.68261 2.46705 8.99017 2.66553 8.24902C3.11708 6.56481 4.49064 4.54428 6.53467 3.2207C8.57065 1.90259 11.2914 1.26501 14.4302 2.31836C14.4411 2.31191 14.4533 2.30659 14.4644 2.2998C14.7239 2.13991 14.9228 1.93867 15.019 1.75195ZM15.0005 19.5C14.5958 19.5 14.387 19.6276 14.2642 19.7598C14.7883 19.7681 15.2928 19.7822 15.7681 19.7979C15.6502 19.6534 15.4432 19.5001 15.0005 19.5ZM14.1138 5.3877C13.992 5.63019 13.8586 5.90317 13.7173 6.20508C13.0483 7.63424 12.1943 9.7093 11.4614 12.2744C11.4534 12.3024 11.4459 12.3305 11.438 12.3584C13.4366 12.8428 15.3653 13.008 16.8521 12.9375C17.6611 12.8991 18.2983 12.7923 18.73 12.6533C18.9304 12.5887 19.0562 12.524 19.1274 12.4785C19.4203 11.2521 19.4142 9.70822 18.7622 8.25488C18.3237 7.27776 17.5728 6.29932 16.3511 5.46484C16.9179 6.93456 17.237 8.95158 16.4487 11.3164C16.274 11.8401 15.7079 12.1227 15.1841 11.9482C14.6602 11.7736 14.3766 11.2075 14.5513 10.6836C15.2086 8.7115 14.8807 7.09168 14.394 5.95605C14.3056 5.74962 14.2081 5.56098 14.1138 5.3877ZM10.2827 3.87305C9.27873 4.02986 8.3876 4.4035 7.62158 4.89941C5.9846 5.95942 4.9344 7.55617 4.60693 8.73047C4.61445 8.76289 4.64535 8.85537 4.76416 9.02051C4.96556 9.30033 5.33433 9.65801 5.8999 10.0518C6.76655 10.6551 7.99765 11.2767 9.51709 11.7979C9.52392 11.7738 9.53071 11.7497 9.5376 11.7256C10.3045 9.04123 11.1998 6.86566 11.9058 5.35742C11.9223 5.32219 11.9393 5.28743 11.9556 5.25293C11.8811 5.28853 11.8046 5.32275 11.729 5.36133C10.394 6.04267 9.02687 7.13096 8.44678 8.82422C8.26783 9.34653 7.69862 9.62496 7.17627 9.44629C6.65383 9.26729 6.37522 8.69824 6.5542 8.17578C7.27955 6.05853 8.84492 4.70855 10.2827 3.87305Z" fill="#9E9E9E"/>
</g>
</svg>
