<svg width="24" height="24" viewBox="0 0 24 24" fill="none" xmlns="http://www.w3.org/2000/svg">
<g id="icons/Travels/sunset">
<path id="Union" d="M19 19.5C19.5523 19.5 20 19.9477 20 20.5C20 21.0523 19.5523 21.5 19 21.5H5C4.44772 21.5 4 21.0523 4 20.5C4 19.9477 4.44772 19.5 5 19.5H19ZM9.5 3C9.86788 3 10.2064 3.20246 10.3809 3.52637L14.585 11.334L16.2314 9.35938L16.3125 9.27344C16.5124 9.08426 16.7833 8.98481 17.0615 9.00195C17.3792 9.02158 17.6686 9.19132 17.8408 9.45898L22.3408 16.459C22.5386 16.7667 22.5532 17.1584 22.3779 17.4795C22.2026 17.8005 21.8658 18 21.5 18H2.5C2.14803 18 1.82209 17.8149 1.6416 17.5127C1.46123 17.2107 1.45256 16.8362 1.61914 16.5264L8.61914 3.52637C8.79355 3.20246 9.13212 3 9.5 3ZM4.1748 16H14.8252L9.5 6.10938L4.1748 16ZM15.6074 13.2324L17.0977 16H19.6689L16.8955 11.6865L15.6074 13.2324ZM19 2.5C20.3807 2.5 21.5 3.61929 21.5 5C21.5 6.38071 20.3807 7.5 19 7.5C17.6193 7.5 16.5 6.38071 16.5 5C16.5 3.61929 17.6193 2.5 19 2.5ZM19 4.5C18.7239 4.5 18.5 4.72386 18.5 5C18.5 5.27614 18.7239 5.5 19 5.5C19.2761 5.5 19.5 5.27614 19.5 5C19.5 4.72386 19.2761 4.5 19 4.5Z" fill="#9E9E9E"/>
</g>
</svg>
