<svg width="24" height="24" viewBox="0 0 24 24" fill="none" xmlns="http://www.w3.org/2000/svg">
<g id="icons/Travels/take-off-one">
<path id="Union" d="M21.4988 19.4941C22.0511 19.4941 22.4988 19.9419 22.4988 20.4941C22.4988 21.0464 22.0511 21.4941 21.4988 21.4941H2.49878C1.94651 21.4941 1.49878 21.0464 1.49878 20.4941C1.49878 19.9419 1.94651 19.4942 2.49878 19.4941H21.4988ZM8.53589 2.61035C8.77258 2.62027 8.99938 2.71424 9.17456 2.87695L15.448 8.70996L19.0173 7.58105L19.0447 7.57324C20.1594 7.25439 21.0376 7.36491 21.696 7.7207C22.3318 8.06434 22.6196 8.56299 22.7039 8.70898L22.7996 8.89062C23.0029 9.31549 23.0683 9.75326 23.0046 10.1777C22.9346 10.6441 22.7202 11.019 22.5046 11.293C22.0885 11.8215 21.54 12.1322 21.4324 12.1943C21.1246 12.3719 20.6109 12.555 20.0623 12.7305C19.4776 12.9175 18.7415 13.1295 17.9167 13.3545C16.2653 13.8049 14.2203 14.3167 12.2332 14.7979C10.2445 15.2793 8.30629 15.7315 6.86597 16.0635C6.14572 16.2295 5.54877 16.3655 5.13257 16.46C4.92459 16.5072 4.76131 16.5443 4.65015 16.5693C4.59475 16.5818 4.55191 16.5912 4.52319 16.5977C4.50922 16.6008 4.49826 16.6038 4.49097 16.6055C4.4874 16.6063 4.48401 16.607 4.48218 16.6074H4.47925C4.05255 16.703 3.61294 16.5105 3.39429 16.1318L1.08765 12.1377C0.811663 11.6595 0.975861 11.0477 1.45386 10.7715C1.73216 10.6108 2.02505 10.5865 2.19214 10.582C2.38613 10.5769 2.587 10.5961 2.77222 10.624C3.14517 10.6802 3.56928 10.7878 3.97729 10.9102C4.6043 11.0982 5.27464 11.347 5.78491 11.5723L9.1189 10.3789L5.57104 4.23242C5.39793 3.93236 5.39229 3.56388 5.5564 3.25879C5.72061 2.95386 6.03101 2.75523 6.37671 2.73438L8.43433 2.61133L8.53589 2.61035ZM8.11108 4.63379L11.45 10.417C11.5982 10.6738 11.6254 10.9833 11.5232 11.2617C11.421 11.5398 11.2006 11.7585 10.9216 11.8584L6.07007 13.5947C5.80999 13.6877 5.52287 13.669 5.2771 13.543C4.98218 13.3917 4.45145 13.1744 3.88452 12.9814L4.75757 14.4941C5.16784 14.4009 5.73719 14.2719 6.41675 14.1152C7.85278 13.7842 9.78322 13.3327 11.7625 12.8535C13.7432 12.3739 15.7665 11.8677 17.3904 11.4248C18.203 11.2032 18.9077 10.9995 19.4529 10.8252C20.0335 10.6395 20.3407 10.5148 20.4324 10.4619C20.5242 10.4089 20.774 10.2581 20.9333 10.0557C21.0051 9.96437 21.0233 9.90595 21.0271 9.88086C21.0278 9.87613 21.0341 9.84784 21.0085 9.78418L20.9714 9.70898C20.9405 9.65545 20.8824 9.55482 20.7449 9.48047C20.6296 9.41822 20.3058 9.2926 19.5945 9.49609L19.5935 9.49512L15.4958 10.793C15.1524 10.9015 14.7772 10.8175 14.5134 10.5723L8.12573 4.63281L8.11108 4.63379Z" fill="#9E9E9E"/>
</g>
</svg>
