<svg width="24" height="24" viewBox="0 0 24 24" fill="none" xmlns="http://www.w3.org/2000/svg">
<g id="icons/Travels/take-off">
<path id="Union" d="M22.0002 6.5C22.3467 6.50008 22.6687 6.67986 22.8508 6.97461C23.0328 7.26934 23.0497 7.63741 22.8948 7.94727L22.1184 9.5C21.8765 9.98377 21.484 10.3762 21.0002 10.6182L16.7336 12.751L12.384 20.9678C12.2088 21.2988 11.863 21.5043 11.4885 21.5C11.114 21.4956 10.7732 21.2823 10.6057 20.9473L8.552 16.8408L7.33521 17.4502C6.43792 17.8987 5.3594 17.7677 4.59595 17.1172L1.35181 14.3516C1.08326 14.1227 0.955205 13.7687 1.01489 13.4209C1.0747 13.0733 1.31345 12.7825 1.64282 12.6562L3.4231 11.9736C3.95332 11.7705 4.53752 11.7541 5.07837 11.9268L6.71802 12.4502C6.84321 12.4901 6.97985 12.4794 7.09692 12.4199L7.26392 12.334L5.12622 8.48535C4.93284 8.13711 4.96483 7.70767 5.20728 7.3916C5.44973 7.07568 5.85607 6.93378 6.24243 7.03027L13.929 8.95117L18.2278 6.77051C18.5781 6.59276 18.9657 6.50007 19.3586 6.5H22.0002ZM19.3586 8.5C19.2804 8.50007 19.2029 8.51838 19.1331 8.55371L8.0022 14.2031C7.4161 14.5006 6.73572 14.5554 6.10962 14.3555L4.46997 13.832C4.36188 13.7976 4.2448 13.8013 4.13892 13.8418L3.92993 13.9209L5.89282 15.5947C6.04549 15.7248 6.26134 15.7507 6.44067 15.6611H6.44165L10.553 13.6055C11.0469 13.3586 11.6478 13.5588 11.8948 14.0527C11.9873 14.2379 12.0165 14.438 11.9915 14.6289C11.9831 14.6928 11.9688 14.7555 11.9485 14.8164C11.8675 15.0591 11.6943 15.2711 11.4475 15.3945L10.342 15.9473L11.5256 18.3145L15.1165 11.5322C15.1182 11.5289 15.1205 11.5258 15.1223 11.5225C15.1646 11.4445 15.217 11.3717 15.2795 11.3066C15.2863 11.2997 15.2922 11.2919 15.2991 11.2852C15.3302 11.2547 15.3642 11.2268 15.3997 11.2002C15.4191 11.1856 15.4388 11.1713 15.4592 11.1582C15.466 11.1539 15.4729 11.1497 15.4797 11.1455C15.4994 11.1335 15.5199 11.1229 15.5403 11.1123C15.5445 11.1101 15.5487 11.1076 15.553 11.1055L20.1057 8.8291C20.2024 8.78071 20.281 8.70218 20.3293 8.60547L20.3821 8.5H19.3586ZM9.0481 11.4287L11.2092 10.332L7.99243 9.52832L9.0481 11.4287Z" fill="#9E9E9E"/>
</g>
</svg>
