<svg width="24" height="24" viewBox="0 0 24 24" fill="none" xmlns="http://www.w3.org/2000/svg">
<g id="icons/Travels/taxi">
<path id="Union" d="M14.0713 1.50684C14.7692 1.57338 15.281 2.09235 15.4531 2.69531L15.4854 2.82617L15.8203 4.5H16.9473L17.208 4.51172C18.4827 4.62226 19.5557 5.5356 19.8604 6.79395H19.8623L20.8457 10.3066C22.1675 10.9943 23 12.3609 23 13.8545V17.5C23 18.8807 21.8807 20 20.5 20H20.459C20.2209 21.4186 18.9882 22.4998 17.502 22.5C16.0145 22.5 14.7801 21.4191 14.542 20H9.45801C9.22 21.4188 7.98645 22.5 6.5 22.5C5.01368 22.4999 3.78102 21.4187 3.54297 20H3.5C2.1193 20 1 18.8807 1 17.5V13.8545C1.00013 12.3584 1.83536 10.9901 3.16113 10.3037L4.19531 6.76562H4.19629C4.53188 5.43624 5.72671 4.50021 7.10254 4.5H8.17969L8.51465 2.82617L8.54688 2.69531C8.73127 2.04929 9.30575 1.50012 10.0811 1.5H13.9189L14.0713 1.50684ZM7.10254 6.5C6.63793 6.50021 6.2344 6.8209 6.12891 7.27344C6.12477 7.29112 6.12032 7.30874 6.11523 7.32617L4.95996 11.2812C4.88189 11.5484 4.69623 11.7711 4.44727 11.8955L4.10645 12.0654C3.42868 12.404 3.00013 13.0968 3 13.8545V17.5C3 17.7762 3.22385 18 3.5 18H4.5C5.05228 18 5.5 18.4477 5.5 19V19.5C5.5 20.0521 5.94783 20.4999 6.5 20.5C7.05222 20.5 7.5 20.0522 7.5 19.5V19C7.5 18.4477 7.94772 18 8.5 18H15.5C16.0523 18 16.5 18.4477 16.5 19V19.5C16.5 20.0518 16.9476 20.5 17.502 20.5C18.0541 20.4998 18.502 20.0521 18.502 19.5V19C18.502 18.4477 18.9497 18 19.502 18H20.5C20.7762 18 21 17.7762 21 17.5V13.8545C21 13.1443 20.6239 12.4908 20.0186 12.1328L19.8945 12.0654L19.5547 11.8955C19.3024 11.7694 19.1152 11.5421 19.0391 11.2705L17.9365 7.33398C17.9317 7.3169 17.9267 7.29954 17.9229 7.28223C17.8335 6.88227 17.512 6.58302 17.1191 6.51465L16.9473 6.5H7.10254ZM6.75 14C7.44035 14 8 14.5597 8 15.25C8 15.9403 7.44035 16.5 6.75 16.5C6.05965 16.5 5.5 15.9403 5.5 15.25C5.5 14.5597 6.05965 14 6.75 14ZM17.25 14C17.9403 14 18.5 14.5597 18.5 15.25C18.5 15.9403 17.9403 16.5 17.25 16.5C16.5597 16.5 16 15.9403 16 15.25C16 14.5597 16.5597 14 17.25 14ZM16.5 10.5C17.0523 10.5 17.5 10.9477 17.5 11.5C17.5 12.0523 17.0523 12.5 16.5 12.5H7.5C6.94772 12.5 6.5 12.0523 6.5 11.5C6.5 10.9477 6.94772 10.5 7.5 10.5H16.5ZM10.2197 4.5H13.7803L13.5801 3.5H10.4199L10.2197 4.5Z" fill="#9E9E9E"/>
</g>
</svg>
