<svg width="24" height="24" viewBox="0 0 24 24" fill="none" xmlns="http://www.w3.org/2000/svg">
<g id="icons/Travels/tent">
<path id="Union" d="M19.0179 5.00098C19.1168 5.00268 19.2132 5.01929 19.3051 5.04883C19.3162 5.05239 19.3273 5.05563 19.3383 5.05957C19.3799 5.0746 19.4202 5.09295 19.4594 5.11328C19.4705 5.11906 19.4817 5.12467 19.4926 5.13086C19.5308 5.15257 19.5678 5.17656 19.6029 5.20312C19.613 5.21081 19.6224 5.21948 19.6322 5.22754C19.6634 5.25305 19.693 5.28033 19.7211 5.30957C19.7262 5.31489 19.7317 5.31976 19.7367 5.3252C19.7692 5.36064 19.7982 5.3992 19.8256 5.43945C19.8302 5.44626 19.8348 5.45303 19.8392 5.45996C19.8657 5.5011 19.8891 5.54434 19.9095 5.58984C19.9125 5.59636 19.9155 5.60278 19.9183 5.60938C19.9376 5.65487 19.9555 5.70168 19.9681 5.75098C19.9687 5.75324 19.9695 5.75555 19.9701 5.75781L22.9701 17.7578C23.0446 18.0564 22.9777 18.3726 22.7885 18.6152C22.599 18.8578 22.3081 18.9999 22.0004 19H2.00037C1.69251 19 1.40179 18.8578 1.21228 18.6152C1.02285 18.3726 0.956052 18.0565 1.03064 17.7578L4.03064 5.75781C4.03293 5.74869 4.03494 5.73951 4.03748 5.73047C4.04354 5.70876 4.05045 5.6873 4.05798 5.66602C4.06338 5.65084 4.06945 5.63596 4.07556 5.62109C4.08395 5.60061 4.09314 5.58049 4.10291 5.56055C4.1297 5.50591 4.16042 5.4532 4.19666 5.4043C4.20066 5.39891 4.20525 5.39397 4.20935 5.38867C4.21029 5.38745 4.21133 5.38598 4.21228 5.38477C4.21742 5.37818 4.22262 5.37167 4.22791 5.36523C4.23422 5.35756 4.24091 5.35024 4.24744 5.34277C4.25653 5.33235 4.26525 5.32158 4.27478 5.31152C4.28542 5.30031 4.29688 5.28996 4.30798 5.2793C4.30947 5.27787 4.31039 5.27583 4.31189 5.27441C4.31824 5.26839 4.32491 5.2627 4.33142 5.25684C4.33881 5.2502 4.34631 5.24371 4.35388 5.2373C4.36484 5.22802 4.37577 5.21874 4.38708 5.20996C4.40295 5.19767 4.41936 5.18611 4.43591 5.1748C4.44695 5.16726 4.4578 5.15943 4.46912 5.15234C4.48648 5.14148 4.50469 5.13191 4.52283 5.12207C4.53102 5.11762 4.53893 5.11262 4.54724 5.1084C4.55282 5.10556 4.55821 5.10234 4.56384 5.09961C4.56476 5.09916 4.56585 5.09908 4.56677 5.09863C4.57792 5.09329 4.58955 5.08893 4.60095 5.08398C4.61967 5.07582 4.63838 5.06757 4.65759 5.06055C4.67326 5.05483 4.68949 5.05083 4.70544 5.0459C4.72039 5.04127 4.73518 5.03616 4.75037 5.03223L4.7738 5.02637C4.78089 5.02472 4.78816 5.02396 4.79529 5.02246C4.82079 5.0171 4.84642 5.01214 4.87244 5.00879C4.88412 5.00728 4.89583 5.00598 4.90759 5.00488C4.92896 5.0029 4.95043 5.00157 4.97205 5.00098C4.98134 5.00072 4.99104 5 5.00037 5H19.0004C19.0062 5 19.0121 5.00087 19.0179 5.00098ZM3.28064 17H6.72009L5.00037 10.1211L3.28064 17ZM8.78064 17H20.7201L18.9701 10H7.03064L8.78064 17ZM6.53064 8H18.4701L18.2201 7H6.28064L6.53064 8Z" fill="#9E9E9E"/>
</g>
</svg>
