<svg width="24" height="24" viewBox="0 0 24 24" fill="none" xmlns="http://www.w3.org/2000/svg">
<g id="icons/Travels/tent-banner">
<path id="Union" d="M17.5 1C17.8788 1 18.2251 1.21395 18.3945 1.55273C18.5639 1.89146 18.527 2.29661 18.2998 2.59961L17.249 4L18.2998 5.40039C18.527 5.70339 18.5639 6.10854 18.3945 6.44727C18.2251 6.78605 17.8788 7 17.5 7H12.5V8.2168L20.3516 20.9756C20.5414 21.2841 20.5498 21.672 20.373 21.9883C20.1963 22.3043 19.8622 22.5 19.5 22.5H3.5C3.13784 22.5 2.80372 22.3043 2.62695 21.9883C2.45023 21.672 2.45857 21.2841 2.64844 20.9756L10.5 8.2168V2C10.5 1.44772 10.9477 1 11.5 1H17.5ZM12.0195 14.8535C11.7 15.0482 11.299 15.0482 10.9795 14.8535L9.36816 13.8711L5.29004 20.5H17.71L13.6309 13.8711L12.0195 14.8535ZM10.416 12.1689L11.499 12.8291L12.583 12.168L11.5 10.4082L10.416 12.1689ZM12.5 5H15.501L15.2002 4.59961C14.9337 4.24412 14.9337 3.75588 15.2002 3.40039L15.501 3H12.5V5Z" fill="#9E9E9E"/>
</g>
</svg>
