<svg width="24" height="24" viewBox="0 0 24 24" fill="none" xmlns="http://www.w3.org/2000/svg">
<g id="icons/Travels/theater">
<path id="Union" d="M21 20C21.5523 20 22 20.4477 22 21C22 21.5523 21.5523 22 21 22H3C2.44772 22 2 21.5523 2 21C2 20.4477 2.44772 20 3 20H21ZM20 2C21.1046 2 22 2.89544 22 4V18C22 18.4345 21.7194 18.8193 21.3057 18.9521C20.8917 19.0848 20.4392 18.9347 20.1865 18.5811L15.6982 12.2998C14.4919 12.8845 13.2571 13.1914 12 13.1914C10.7427 13.1914 9.50742 12.8848 8.30078 12.2998L3.81348 18.5811C3.56076 18.9347 3.10827 19.0848 2.69434 18.9521C2.28062 18.8193 2 18.4345 2 18V4C2 2.89543 2.89543 2 4 2H20ZM4 14.8799L7.18652 10.4209L7.24609 10.3457C7.55984 9.98499 8.09193 9.89387 8.51074 10.1426C9.71509 10.8583 10.8741 11.1914 12 11.1914C13.1259 11.1914 14.2849 10.8583 15.4893 10.1426L15.5742 10.0977C16.0066 9.89376 16.5302 10.0247 16.8135 10.4209L20 14.8799V4H4V14.8799Z" fill="#9E9E9E"/>
</g>
</svg>
