<svg width="24" height="24" viewBox="0 0 24 24" fill="none" xmlns="http://www.w3.org/2000/svg">
<g id="icons/Travels/tickets-checked">
<path id="Union" d="M21 1C21.5523 1 22 1.44772 22 2V4L21.9951 4.10254C21.9438 4.60667 21.5177 5 21 5C20.4877 5 20.0194 5.36756 20.0127 6.01074C20.0066 6.61817 20.4663 7 21 7C21.5523 7 22 7.44772 22 8V10C22 10.5523 21.5523 11 21 11H15.0264V11.5098C15.1836 11.4786 15.3463 11.4629 15.5127 11.4629C16.2419 11.4629 16.8957 11.7784 17.3506 12.2783C17.6933 12.1011 18.0817 12 18.4941 12C19.8704 12 20.9863 13.115 20.9883 14.4912L20.9951 18.5908C20.9987 21.0245 19.0265 22.9998 16.5928 23H12.8232C10.3 23 7.92592 21.8038 6.42383 19.7764L4.29102 16.8984C3.69024 16.0875 3.63719 14.9945 4.15625 14.1289V14.1279C4.76635 13.1113 5.95575 12.7116 7 13.0166V11H3C2.44772 11 2 10.5523 2 10V8C2 7.44772 2.44772 7 3 7C3.53365 7 3.99343 6.61817 3.9873 6.01074C3.98062 5.36752 3.51226 5 3 5C2.44772 5 2 4.55228 2 4V2C2 1.44772 2.44772 1 3 1H21ZM9.5 7.5C9.22383 7.5 9 7.72383 9 8V15C9 15.4043 8.75628 15.769 8.38281 15.9238C8.0092 16.0786 7.57897 15.9929 7.29297 15.707L6.64746 15.0615C6.41926 14.8335 6.03703 14.8807 5.87109 15.1572C5.76791 15.3293 5.77905 15.5469 5.89844 15.708L8.03125 18.5859C9.15613 20.1042 10.9336 21 12.8232 21H16.5928C17.9207 20.9998 18.9971 19.9218 18.9951 18.5938L18.9883 14.4941C18.9879 14.2213 18.767 14 18.4941 14C18.2212 14 18.0002 14.2212 18 14.4941V15L17.9941 15.1025C17.9428 15.6065 17.5175 15.9999 17 16C16.4477 16 16 15.5523 16 15V13.9492C15.9999 13.6804 15.7815 13.4629 15.5127 13.4629C15.244 13.463 15.0264 13.6805 15.0264 13.9492V14.5L15.0205 14.6025C14.9692 15.1065 14.5439 15.4998 14.0264 15.5C13.4741 15.5 13.0264 15.0523 13.0264 14.5V10.5127C13.0261 10.2295 12.796 10 12.5127 10C12.2295 10.0001 12.0002 10.2295 12 10.5127V13.9375L11.9941 14.04C11.9428 14.544 11.5175 14.9374 11 14.9375C10.4477 14.9375 10 14.4898 10 13.9375V8C10 7.72393 9.77604 7.50015 9.5 7.5ZM4 3.1748C5.08663 3.5576 5.97228 4.55675 5.9873 5.98926C6.00245 7.44759 5.0899 8.4439 4 8.8252V9H7V8C7 6.61927 8.11927 5.5 9.5 5.5C10.8806 5.50015 12 6.61936 12 8V8.05176C12.1655 8.01745 12.337 8.00001 12.5127 8C13.3319 8 14.0576 8.39344 14.5166 9H20V8.8252C18.9101 8.4439 17.9975 7.4476 18.0127 5.98926C18.0277 4.55673 18.9134 3.55759 20 3.1748V3H17V6C17 6.55228 16.5523 7 16 7C15.4477 7 15 6.55228 15 6V3H4V3.1748Z" fill="#9E9E9E"/>
</g>
</svg>
