<svg width="24" height="24" viewBox="0 0 24 24" fill="none" xmlns="http://www.w3.org/2000/svg">
<g id="icons/Travels/tickets-one">
<path id="Union" d="M15.6611 1.56006C15.8802 1.4811 16.121 1.48069 16.3418 1.56104C16.594 1.65287 16.799 1.84208 16.9102 2.08643L19.1436 7.00049H20.5C21.6046 7.00049 22.5 7.89592 22.5 9.00049V20.0005C22.4998 21.1049 21.6045 22.0005 20.5 22.0005H3.5C2.39554 22.0005 1.50017 21.1049 1.5 20.0005V9.00049C1.5 7.89592 2.39543 7.00049 3.5 7.00049H4.27246L15.5684 1.59814L15.6611 1.56006ZM3.5 20.0005H20.5V9.00049H3.5V20.0005ZM6.5 16.5005C7.05228 16.5005 7.5 16.9482 7.5 17.5005C7.49983 18.0526 7.05218 18.5005 6.5 18.5005C5.94782 18.5005 5.50017 18.0526 5.5 17.5005C5.5 16.9482 5.94772 16.5005 6.5 16.5005ZM17.2627 10.8247C17.6359 10.4176 18.2687 10.39 18.6758 10.7632C19.0827 11.1364 19.1104 11.7692 18.7373 12.1763L13.2373 18.1763C13.0479 18.3828 12.7802 18.5005 12.5 18.5005H10.5C9.94782 18.5005 9.50017 18.0526 9.5 17.5005C9.5 16.9482 9.94771 16.5005 10.5 16.5005H12.0596L12.9766 15.5005H12C11.4478 15.5005 11.0002 15.0526 11 14.5005C11 13.9482 11.4477 13.5005 12 13.5005H14.8096L17.2627 10.8247ZM6.5 13.5005C7.05228 13.5005 7.5 13.9482 7.5 14.5005C7.49983 15.0526 7.05218 15.5005 6.5 15.5005C5.94782 15.5005 5.50017 15.0526 5.5 14.5005C5.5 13.9482 5.94772 13.5005 6.5 13.5005ZM6.5 10.5005C7.05228 10.5005 7.5 10.9482 7.5 11.5005C7.49983 12.0526 7.05218 12.5005 6.5 12.5005C5.94782 12.5005 5.50017 12.0526 5.5 11.5005C5.5 10.9482 5.94772 10.5005 6.5 10.5005ZM8.90918 7.00049H16.9473L15.5117 3.84229L8.90918 7.00049Z" fill="#9E9E9E"/>
</g>
</svg>
