<svg width="24" height="24" viewBox="0 0 24 24" fill="none" xmlns="http://www.w3.org/2000/svg">
<g id="icons/Travels/tickets-two">
<path id="Union" d="M12.5 1C13.0523 1 13.5 1.44772 13.5 2C13.5 2.30865 13.9021 3 15 3C16.0979 3 16.5 2.30865 16.5 2C16.5 1.44772 16.9477 1 17.5 1H20.5C21.0523 1 21.5 1.44772 21.5 2V17C21.5 17.5523 21.0523 18 20.5 18H17.5C16.9477 18 16.5 17.5523 16.5 17C16.5 16.7872 16.3593 16.4659 16 16.2451V22C16 22.5523 15.5523 23 15 23H12C11.4477 23 11 22.5523 11 22C11 21.6489 10.618 21 9.5 21C8.382 21 8 21.6489 8 22C8 22.5523 7.55228 23 7 23H4C3.44772 23 3 22.5523 3 22V7C3 6.44772 3.44772 6 4 6H7C7.55228 6 8 6.44772 8 7C8 7.18543 8.14606 7.50754 8.5 7.73633V2C8.5 1.44772 8.94772 1 9.5 1H12.5ZM5 21H6.18848C6.66619 19.7849 7.99837 19 9.5 19C11.0016 19 12.3338 19.7849 12.8115 21H14V8H12.8018C12.3186 9.18007 11.0052 10 9.5 10C7.99485 10 6.68141 9.18007 6.19824 8H5V21ZM10.5 7.73633C10.8539 7.50754 11 7.18543 11 7C11 6.44772 11.4477 6 12 6H15C15.5523 6 16 6.44772 16 7V14.1211C17.0686 14.3845 17.9436 15.0642 18.3115 16H19.5V3H18.3018C17.8186 4.18007 16.5052 5 15 5C13.4948 5 12.1814 4.18007 11.6982 3H10.5V7.73633ZM7 11C7.55228 11 8 11.4477 8 12C8 12.5523 7.55228 13 7 13C6.44772 13 6 12.5523 6 12C6 11.4477 6.44772 11 7 11ZM9.5 11C10.0523 11 10.5 11.4477 10.5 12C10.5 12.5523 10.0523 13 9.5 13C8.94772 13 8.5 12.5523 8.5 12C8.5 11.4477 8.94772 11 9.5 11ZM12 11C12.5523 11 13 11.4477 13 12C13 12.5523 12.5523 13 12 13C11.4477 13 11 12.5523 11 12C11 11.4477 11.4477 11 12 11Z" fill="#9E9E9E"/>
</g>
</svg>
