<svg width="24" height="24" viewBox="0 0 24 24" fill="none" xmlns="http://www.w3.org/2000/svg">
<g id="icons/Travels/tour-bus">
<path id="Union" d="M18.5 2C19.6046 2 20.5 2.89544 20.5 4V5.13477C20.6472 5.04953 20.8177 5 21 5C21.5523 5 22 5.44772 22 6V8C22 8.55228 21.5523 9 21 9C20.8175 9 20.6473 8.94965 20.5 8.86426V17C20.5 17.9316 19.8622 18.7113 19 18.9336V19.5C19 20.8807 17.8807 22 16.5 22C15.1193 22 14 20.8807 14 19.5V19H10V19.5C10 20.8807 8.88073 22 7.5 22C6.11927 22 5 20.8807 5 19.5V18.9336C4.13781 18.7113 3.5 17.9316 3.5 17V8.86426C3.35272 8.94965 3.18249 9 3 9C2.44772 9 2 8.55228 2 8V6C2 5.44772 2.44772 5 3 5C3.18232 5 3.35282 5.04953 3.5 5.13477V4C3.5 2.89543 4.39543 2 5.5 2H18.5ZM7 19.5C7 19.7762 7.22383 20 7.5 20C7.77617 20 8 19.7762 8 19.5V19H7V19.5ZM16 19.5C16 19.7762 16.2238 20 16.5 20C16.7762 20 17 19.7762 17 19.5V19H16V19.5ZM5.5 17H18.5V12.5H5.5V17ZM7.5 14C8.05228 14 8.5 14.4477 8.5 15C8.5 15.5523 8.05228 16 7.5 16C6.94772 16 6.5 15.5523 6.5 15C6.5 14.4477 6.94772 14 7.5 14ZM16.5 14C17.0523 14 17.5 14.4477 17.5 15C17.5 15.5523 17.0523 16 16.5 16C15.9477 16 15.5 15.5523 15.5 15C15.5 14.4477 15.9477 14 16.5 14ZM5.5 10.5H18.5V5.66211L17.2686 7.14062C16.915 7.56481 16.2836 7.62209 15.8594 7.26855C15.4352 6.91498 15.3779 6.28362 15.7314 5.85938L17.2812 4H15.9453L11.7432 8.66895C11.3737 9.0794 10.7415 9.11261 10.3311 8.74316C9.9206 8.3737 9.88739 7.74155 10.2568 7.33105L13.2549 4H5.5V10.5Z" fill="#9E9E9E"/>
</g>
</svg>
