<svg width="24" height="24" viewBox="0 0 24 24" fill="none" xmlns="http://www.w3.org/2000/svg">
<g id="icons/Travels/train">
<path id="Union" d="M14 21C14.5523 21 15 21.4477 15 22C15 22.5523 14.5523 23 14 23H10C9.44772 23 9 22.5523 9 22C9 21.4477 9.44772 21 10 21H14ZM12 1C15.8464 1 18.1833 1.84786 19.3125 2.41406C20.1328 2.82549 20.5 3.65505 20.5 4.41992V18C20.5 19.1046 19.6046 20 18.5 20H18V21C18 21.5523 17.5523 22 17 22C16.4477 22 16 21.5523 16 21V20H8V21C8 21.5523 7.55228 22 7 22C6.44772 22 6 21.5523 6 21V20H5.5C4.39544 20 3.5 19.1046 3.5 18V4.41992C3.5 3.65506 3.86717 2.82549 4.6875 2.41406C5.81669 1.84786 8.15359 1 12 1ZM5.5 18H18.5V14H5.5V18ZM9.5 15C10.0523 15 10.5 15.4477 10.5 16C10.5 16.5523 10.0523 17 9.5 17C8.94773 17 8.5 16.5523 8.5 16C8.5 15.4477 8.94773 15 9.5 15ZM14.5 15C15.0523 15 15.5 15.4477 15.5 16C15.5 16.5523 15.0523 17 14.5 17C13.9477 17 13.5 16.5523 13.5 16C13.5 15.4477 13.9477 15 14.5 15ZM5.5 12H11V7H5.5V12ZM13 12H18.5V7H13V12ZM12 3C8.45886 3 6.42956 3.7772 5.58398 4.20117C5.56899 4.20869 5.55332 4.22069 5.53711 4.25C5.51871 4.28334 5.5 4.34112 5.5 4.41992V5H18.5V4.41992C18.5 4.34112 18.4813 4.28334 18.4629 4.25C18.4467 4.22069 18.431 4.20869 18.416 4.20117C17.5704 3.7772 15.5411 3 12 3Z" fill="#9E9E9E"/>
</g>
</svg>
