<svg width="24" height="24" viewBox="0 0 24 24" fill="none" xmlns="http://www.w3.org/2000/svg">
<g id="icons/Travels/transport">
<path id="Union" d="M4 3.5C5.10457 3.5 6 4.39543 6 5.5V17H22C22.5523 17 23 17.4477 23 18C23 18.5523 22.5523 19 22 19H21V19.5C21 20.8807 19.8807 22 18.5 22C17.1193 22 16 20.8807 16 19.5V19H12V19.5C12 20.8807 10.8807 22 9.5 22C8.11927 22 7 20.8807 7 19.5V19H6C4.89542 19 4 18.1046 4 17V5.5H2C1.44772 5.5 1 5.05228 1 4.5C1 3.94772 1.44772 3.5 2 3.5H4ZM9 19.5C9 19.7762 9.22383 20 9.5 20C9.77617 20 10 19.7762 10 19.5V19H9V19.5ZM18 19.5C18 19.7762 18.2238 20 18.5 20C18.7762 20 19 19.7762 19 19.5V19H18V19.5ZM18 2C18.5523 2 19 2.44772 19 3V5H20.5C21.8807 5 23 6.11929 23 7.5V13.5C23 14.8807 21.8807 16 20.5 16H9.5C8.11929 16 7 14.8807 7 13.5V7.5C7 6.11929 8.11929 5 9.5 5H11V3C11 2.44772 11.4477 2 12 2H18ZM9.5 7C9.22386 7 9 7.22386 9 7.5V13.5C9 13.7761 9.22386 14 9.5 14H20.5C20.7761 14 21 13.7761 21 13.5V7.5C21 7.22386 20.7761 7 20.5 7H9.5ZM12 8C12.5523 8 13 8.44772 13 9V12C13 12.5523 12.5523 13 12 13C11.4477 13 11 12.5523 11 12V9C11 8.44772 11.4477 8 12 8ZM18 8C18.5523 8 19 8.44772 19 9V12C19 12.5523 18.5523 13 18 13C17.4477 13 17 12.5523 17 12V9C17 8.44772 17.4477 8 18 8ZM13 5H17V4H13V5Z" fill="#9E9E9E"/>
</g>
</svg>
