<svg width="24" height="24" viewBox="0 0 24 24" fill="none" xmlns="http://www.w3.org/2000/svg">
<g id="icons/Travels/transfer">
<path id="Union" d="M8.75195 2C11.186 2.00027 13.0028 4.13714 13.0029 6.57129V6.57227L12.9971 17.7041C12.9975 18.985 14.018 19.9998 15.248 20C16.4785 20 17.5 18.9846 17.5 17.7031V14.9141L16.207 16.207C15.8165 16.5976 15.1835 16.5976 14.793 16.207C14.4024 15.8165 14.4024 15.1835 14.793 14.793L17.793 11.793L17.8691 11.7246C18.2619 11.4043 18.8409 11.4269 19.207 11.793L22.207 14.793C22.5976 15.1835 22.5976 15.8165 22.207 16.207C21.8165 16.5976 21.1835 16.5976 20.793 16.207L19.5 14.9141V17.7031C19.5 20.063 17.6091 22 15.248 22C12.8872 21.9998 10.9971 20.0629 10.9971 17.7031L11.0029 6.57129C11.0029 5.06101 9.90902 4.00028 8.75195 4C7.59478 4 6.50008 5.0608 6.5 6.57129V13.623C7.17571 13.7915 7.80269 14.1296 8.31152 14.6152C9.06641 15.3358 9.4999 16.3233 9.5 17.3633C9.5 18.8966 8.49558 20.1801 7.70996 20.9717C7.2938 21.391 6.88124 21.7295 6.57422 21.9629C6.41985 22.0802 6.28947 22.1731 6.19629 22.2373C6.14979 22.2694 6.11197 22.2946 6.08496 22.3125C6.07156 22.3214 6.06078 22.3288 6.05273 22.334C6.04891 22.3365 6.04552 22.3382 6.04297 22.3398C6.0417 22.3407 6.03999 22.3412 6.03906 22.3418L6.03711 22.3438C5.75049 22.5261 5.39389 22.5489 5.08984 22.4121L4.96289 22.3438L4.96094 22.3418C4.96001 22.3412 4.9583 22.3407 4.95703 22.3398C4.95448 22.3382 4.95109 22.3365 4.94727 22.334C4.93921 22.3288 4.92844 22.3214 4.91504 22.3125C4.88803 22.2946 4.85021 22.2694 4.80371 22.2373C4.71053 22.1731 4.58015 22.0802 4.42578 21.9629C4.11876 21.7295 3.7062 21.391 3.29004 20.9717C2.50442 20.1801 1.5 18.8966 1.5 17.3633C1.5001 16.3233 1.93366 15.3358 2.68848 14.6152C3.19731 14.1296 3.82429 13.7915 4.5 13.623V6.57129C4.50008 4.137 6.31772 2 8.75195 2ZM5.5 15.5C4.95494 15.5 4.44122 15.7075 4.06934 16.0625C3.69918 16.4159 3.5001 16.8846 3.5 17.3633C3.5 18.0572 3.99558 18.8427 4.70996 19.5625C4.98689 19.8415 5.26692 20.0795 5.5 20.2637C5.73308 20.0795 6.01311 19.8415 6.29004 19.5625C7.00442 18.8427 7.5 18.0572 7.5 17.3633C7.4999 16.8846 7.30083 16.4159 6.93066 16.0625C6.5588 15.7075 6.04506 15.5 5.5 15.5ZM5.5 16.5C6.05228 16.5 6.5 16.9477 6.5 17.5C6.5 18.0523 6.05228 18.5 5.5 18.5C4.94772 18.5 4.5 18.0523 4.5 17.5C4.5 16.9477 4.94772 16.5 5.5 16.5ZM18.5 1.5C19.5462 1.5 20.5582 1.89627 21.3115 2.61523C22.0664 3.33577 22.4999 4.32331 22.5 5.36328C22.5 6.89659 21.4956 8.18011 20.71 8.97168C20.2938 9.39099 19.8812 9.72951 19.5742 9.96289C19.4199 10.0802 19.2895 10.1731 19.1963 10.2373C19.1498 10.2694 19.112 10.2946 19.085 10.3125C19.0716 10.3214 19.0608 10.3288 19.0527 10.334C19.0489 10.3365 19.0455 10.3382 19.043 10.3398C19.0417 10.3407 19.04 10.3412 19.0391 10.3418L19.0371 10.3438C18.7505 10.5261 18.3939 10.5489 18.0898 10.4121L17.9629 10.3438L17.9609 10.3418C17.96 10.3412 17.9583 10.3407 17.957 10.3398C17.9545 10.3382 17.9511 10.3365 17.9473 10.334C17.9392 10.3288 17.9284 10.3214 17.915 10.3125C17.888 10.2946 17.8502 10.2694 17.8037 10.2373C17.7105 10.1731 17.5801 10.0802 17.4258 9.96289C17.1188 9.72951 16.7062 9.39099 16.29 8.97168C15.5044 8.18011 14.5 6.89659 14.5 5.36328C14.5001 4.32331 14.9336 3.33577 15.6885 2.61523C16.4418 1.89627 17.4538 1.5 18.5 1.5ZM18.5 3.5C17.9549 3.5 17.4412 3.70752 17.0693 4.0625C16.6992 4.41585 16.5001 4.88456 16.5 5.36328C16.5 6.05722 16.9956 6.84271 17.71 7.5625C17.9869 7.84152 18.2669 8.07954 18.5 8.26367C18.7331 8.07954 19.0131 7.84152 19.29 7.5625C20.0044 6.84271 20.5 6.05722 20.5 5.36328C20.4999 4.88456 20.3008 4.41585 19.9307 4.0625C19.5588 3.70752 19.0451 3.5 18.5 3.5ZM18.5 4.5C19.0523 4.5 19.5 4.94772 19.5 5.5C19.5 6.05228 19.0523 6.5 18.5 6.5C17.9477 6.5 17.5 6.05228 17.5 5.5C17.5 4.94772 17.9477 4.5 18.5 4.5Z" fill="#9E9E9E"/>
</g>
</svg>
