<svg width="24" height="24" viewBox="0 0 24 24" fill="none" xmlns="http://www.w3.org/2000/svg">
<g id="icons/Travels/universal">
<path id="Union" d="M12 21C12.5523 21 13 21.4477 13 22C13 22.5523 12.5523 23 12 23C11.4477 23 11 22.5523 11 22C11 21.4477 11.4477 21 12 21ZM5 18C5.55228 18 6 18.4477 6 19C6 19.5523 5.55228 20 5 20C4.44772 20 4 19.5523 4 19C4 18.4477 4.44772 18 5 18ZM12 4C12.2736 4 12.544 4.01318 12.8105 4.04004C13.0489 4.06402 13.2839 4.10009 13.5156 4.14453C13.5423 4.14965 13.5691 4.1538 13.5957 4.15918C13.8322 4.20705 14.0645 4.26672 14.293 4.33496C14.3127 4.34087 14.3328 4.34551 14.3525 4.35156C14.5688 4.41799 14.7803 4.49527 14.9883 4.5791C15.0211 4.59233 15.0543 4.60451 15.0869 4.61816C15.1705 4.65317 15.2528 4.69078 15.335 4.72852C15.369 4.74416 15.4037 4.75831 15.4375 4.77441C15.5021 4.8052 15.5653 4.83864 15.6289 4.87109C15.6837 4.89903 15.7389 4.92592 15.793 4.95508C15.8546 4.98833 15.9149 5.02378 15.9756 5.05859C16.0219 5.08518 16.0685 5.11119 16.1143 5.13867C16.1955 5.18747 16.2752 5.23847 16.3545 5.29004C16.3804 5.30688 16.4069 5.32271 16.4326 5.33984C16.5153 5.395 16.5963 5.45262 16.6768 5.51074C16.6989 5.52672 16.7212 5.5424 16.7432 5.55859C16.8163 5.61251 16.8878 5.6683 16.959 5.72461C16.9895 5.74878 17.0206 5.77227 17.0508 5.79688C17.1007 5.83761 17.1493 5.87997 17.1982 5.92188C17.2479 5.96436 17.2981 6.00614 17.3467 6.0498C17.4104 6.1071 17.4723 6.16629 17.5342 6.22559C17.5555 6.24598 17.5776 6.2655 17.5986 6.28613C17.6009 6.28839 17.6032 6.29069 17.6055 6.29297C19.0831 7.7445 20 9.76503 20 12C20 16.4183 16.4183 20 12 20C9.76503 20 7.7445 19.0831 6.29297 17.6055C6.29069 17.6032 6.28839 17.6009 6.28613 17.5986C6.2655 17.5776 6.24598 17.5555 6.22559 17.5342C6.16629 17.4723 6.1071 17.4104 6.0498 17.3467C6.00474 17.2966 5.96177 17.2446 5.91797 17.1934C5.87746 17.146 5.83629 17.0991 5.79688 17.0508C5.77227 17.0206 5.74878 16.9895 5.72461 16.959C5.6683 16.8878 5.61251 16.8163 5.55859 16.7432C5.5424 16.7212 5.52672 16.6989 5.51074 16.6768C5.45151 16.5947 5.39307 16.5121 5.33691 16.4277C5.3113 16.3893 5.28766 16.3495 5.2627 16.3105C5.22094 16.2454 5.17857 16.1807 5.13867 16.1143C5.08847 16.0307 5.04037 15.9458 4.99316 15.8604C4.97894 15.8346 4.96414 15.8091 4.9502 15.7832C4.92284 15.7323 4.89738 15.6804 4.87109 15.6289C4.83752 15.5631 4.80328 15.4975 4.77148 15.4307C4.74179 15.3682 4.71464 15.3045 4.68652 15.2412C4.66372 15.1898 4.63991 15.1389 4.61816 15.0869C4.60451 15.0543 4.59233 15.0211 4.5791 14.9883C4.29856 14.2923 4.11146 13.5485 4.03711 12.7715C4.01278 12.5176 4 12.2602 4 12C4 7.58172 7.58172 4 12 4ZM19 18C19.5523 18 20 18.4477 20 19C20 19.5523 19.5523 20 19 20C18.4477 20 18 19.5523 18 19C18 18.4477 18.4477 18 19 18ZM14.333 6.60352C14.1801 6.82488 14.0568 7.11225 14.0791 7.46387C14.0862 7.57641 14.0896 7.59292 14.3066 7.83398C14.4146 7.95386 14.6052 8.16312 14.752 8.44434C14.91 8.74731 15 9.09413 15 9.5C15 10.2354 14.6885 11.1668 14.21 11.9355C13.7347 12.6989 12.9429 13.5408 11.8223 13.7422C10.7091 13.9421 9.92874 13.4522 9.47852 13.1484C9.45887 13.5359 9.41597 14.3017 8.88867 14.917C8.44068 15.4395 7.85242 15.6622 7.30957 15.7393C8.40896 17.1165 10.1008 18 12 18C12.07 18 12.1396 17.9965 12.209 17.9941C12.1036 17.7654 12.0327 17.5114 12.0088 17.2256L12 17C12.0001 16.7124 12.0461 16.3828 12.2314 16.0781C12.425 15.76 12.6921 15.5983 12.8652 15.5117C13.2458 15.3214 13.1959 15.3901 13.293 15.293C13.2822 15.3038 13.2978 15.2953 13.3398 15.1064L13.4502 14.5547C13.4776 14.4384 13.5142 14.3106 13.5635 14.1875C13.6707 13.9195 13.881 13.5663 14.3027 13.3555L14.4521 13.291C14.804 13.1623 15.1697 13.1787 15.4258 13.2109C15.757 13.2526 16.1118 13.3503 16.4609 13.4795C16.8396 13.6196 17.2423 13.8108 17.6416 14.0439C17.6727 13.9581 17.7032 13.8718 17.7305 13.7842C17.9058 13.2206 18 12.6213 18 12C18 9.56233 16.5458 7.46536 14.458 6.52637C14.4414 6.5189 14.4249 6.51123 14.4082 6.50391C14.3837 6.53448 14.3579 6.56744 14.333 6.60352ZM15.3545 15.2295C15.3268 15.3829 15.2846 15.625 15.208 15.8604C15.1247 16.1162 14.9817 16.4323 14.707 16.707C14.488 16.926 14.2674 17.0626 14.0801 17.1562C14.065 17.1638 14.0488 17.1688 14.0342 17.1758C14.0425 17.1904 14.0543 17.2083 14.0723 17.2305C14.1104 17.2774 14.1695 17.3371 14.2695 17.4238C14.3054 17.4549 14.3397 17.4823 14.374 17.5107C14.4505 17.4777 14.5267 17.4443 14.6016 17.4082C15.3884 17.029 16.0797 16.4831 16.6299 15.8164C16.6387 15.8057 16.6465 15.794 16.6553 15.7832C16.3507 15.6035 16.0451 15.4576 15.7666 15.3545C15.6086 15.296 15.4698 15.2562 15.3545 15.2295ZM12 6C8.68629 6 6 8.68629 6 12C6 12.5878 6.0856 13.1556 6.24316 13.6924C6.44251 13.7436 6.65384 13.7777 6.84961 13.7754C7.1749 13.7715 7.31276 13.6821 7.37012 13.6152C7.42598 13.5501 7.45775 13.4516 7.48828 12.9375C7.4999 12.7419 7.51765 12.4137 7.61621 12.1016C7.72902 11.7444 7.95965 11.3624 8.4043 11.1123L8.5957 11.0195C9.0414 10.8379 9.47095 10.8937 9.81543 11.0312C10.1253 11.1551 10.4298 11.3775 10.5791 11.4785C10.9578 11.7348 11.1638 11.8282 11.4688 11.7734C11.7834 11.7168 12.1687 11.4298 12.5117 10.8789C12.8515 10.3332 13 9.76455 13 9.5C13 9.40608 12.983 9.37771 12.9785 9.36914C12.9626 9.33874 12.9341 9.29918 12.8203 9.17285C12.5936 8.92101 12.1377 8.45081 12.083 7.59082C12.0436 6.96962 12.1827 6.43816 12.377 6.0127C12.2523 6.00498 12.1266 6 12 6ZM2 11C2.55228 11 3 11.4477 3 12C3 12.5523 2.55228 13 2 13C1.44772 13 1 12.5523 1 12C1 11.4477 1.44772 11 2 11ZM22 11C22.5523 11 23 11.4477 23 12C23 12.5523 22.5523 13 22 13C21.4477 13 21 12.5523 21 12C21 11.4477 21.4477 11 22 11ZM5 4C5.55228 4 6 4.44772 6 5C6 5.55228 5.55228 6 5 6C4.44772 6 4 5.55228 4 5C4 4.44772 4.44772 4 5 4ZM19 4C19.5523 4 20 4.44772 20 5C20 5.55228 19.5523 6 19 6C18.4477 6 18 5.55228 18 5C18 4.44772 18.4477 4 19 4ZM12 1C12.5523 1 13 1.44772 13 2C13 2.55228 12.5523 3 12 3C11.4477 3 11 2.55228 11 2C11 1.44772 11.4477 1 12 1Z" fill="#9E9E9E"/>
</g>
</svg>
