<svg width="24" height="24" viewBox="0 0 24 24" fill="none" xmlns="http://www.w3.org/2000/svg">
<g id="icons/Travels/vacation">
<path id="Union" d="M16 2C17.3313 1.9999 18.7345 2.3608 19.9297 3.30762C21.1298 4.25846 22.0313 5.72971 22.4775 7.78809C22.5476 8.11191 22.4522 8.44957 22.2236 8.68945C21.995 8.92917 21.6627 9.04068 21.3359 8.98633L19.832 8.73535C19.8745 8.96328 19.9119 9.20251 19.9355 9.44629C20.024 10.3608 19.9522 11.4484 19.373 12.4873C19.225 12.7523 18.9645 12.9362 18.665 12.9863C18.3653 13.0364 18.0583 12.9469 17.832 12.7441C17.153 12.1353 15.9847 11.3373 14.7295 10.5146C14.0614 10.0768 13.3697 9.62975 12.7471 9.21875C12.4901 11.298 12.3266 14.3881 12.8154 17.0293C13.8053 17.0999 14.654 17.312 15.502 17.7539C16.5299 18.2897 17.4956 19.132 18.6914 20.2773C18.9863 20.5598 19.0799 20.9931 18.9277 21.3721C18.7755 21.751 18.4084 22 18 22H6C5.62453 22 5.28033 21.7894 5.10938 21.4551C4.93852 21.1207 4.9696 20.7184 5.18945 20.4141C5.77097 19.6096 6.7741 18.7696 7.93652 18.1318C8.78247 17.6677 9.76467 17.2828 10.7979 17.1055C10.3664 14.5301 10.4713 11.6899 10.6924 9.58594C10.2283 9.88885 9.74369 10.2045 9.27051 10.5146C8.01538 11.3372 6.84693 12.1353 6.16797 12.7441C5.94169 12.9469 5.63466 13.0364 5.33496 12.9863C5.03552 12.9362 4.77502 12.7523 4.62695 12.4873C4.04776 11.4484 3.97598 10.3608 4.06445 9.44629C4.08806 9.20259 4.12451 8.96322 4.16699 8.73535L2.66406 8.98633C2.33733 9.04062 2.00492 8.92919 1.77637 8.68945C1.54782 8.44958 1.45243 8.1119 1.52246 7.78809C1.96845 5.73103 2.8655 4.25958 4.06445 3.30859C5.25868 2.36153 6.66267 2.00216 7.99805 2C9.49371 1.99767 10.9321 2.44342 12 2.90332C13.0683 2.44362 14.5045 2.00015 16 2ZM11.999 19C10.9645 18.999 9.86733 19.3533 8.89844 19.8848C8.83065 19.922 8.76475 19.9617 8.69922 20H15.3281C15.0655 19.8103 14.8204 19.6547 14.5781 19.5283C13.873 19.1608 13.1416 19.0011 11.999 19ZM16 4C14.7066 4.00015 13.384 4.4492 12.4297 4.90332C12.1579 5.03253 11.842 5.03258 11.5703 4.90332C10.6147 4.44858 9.2917 3.99809 8.00195 4C7.01961 4.00154 6.0801 4.26337 5.30762 4.87598C4.79206 5.28491 4.30933 5.88275 3.93652 6.74609L5.33594 6.51367C5.67096 6.45794 6.01174 6.57587 6.24023 6.82715C6.46847 7.07839 6.55395 7.42878 6.4668 7.75684C6.31466 8.32857 6.12245 8.94943 6.05566 9.63867C6.03397 9.86282 6.0278 10.0837 6.04004 10.2988C6.69916 9.81886 7.44834 9.31727 8.17383 8.8418C9.44556 8.00832 10.6547 7.24569 11.4092 6.69336L11.417 6.6875C11.4555 6.65989 11.496 6.63522 11.5381 6.61328L11.5469 6.6084C11.5554 6.60407 11.5646 6.60074 11.5732 6.59668C11.596 6.5859 11.619 6.57547 11.6426 6.56641C11.6575 6.56068 11.6724 6.55478 11.6875 6.5498C11.7235 6.53792 11.7604 6.52825 11.7979 6.52051C11.8089 6.51824 11.82 6.51654 11.8311 6.51465C11.8594 6.50979 11.8881 6.5063 11.917 6.50391C11.9333 6.50256 11.9495 6.50153 11.9658 6.50098C11.9956 6.49999 12.0255 6.50023 12.0557 6.50195C12.0648 6.50246 12.0739 6.50217 12.083 6.50293C12.1187 6.50594 12.1545 6.51158 12.1904 6.51855C12.1923 6.51893 12.1944 6.51915 12.1963 6.51953C12.214 6.52308 12.2315 6.52771 12.249 6.53223C12.2712 6.53792 12.293 6.54466 12.3145 6.55176C12.3328 6.55785 12.3511 6.56411 12.3691 6.57129C12.3908 6.57987 12.4118 6.58963 12.4326 6.59961C12.453 6.60943 12.4733 6.61958 12.4932 6.63086C12.5231 6.64784 12.5523 6.66575 12.5801 6.68555C12.5836 6.68807 12.5873 6.69078 12.5908 6.69336C13.3453 7.2457 14.5544 8.00828 15.8262 8.8418C16.5515 9.31715 17.3 9.81898 17.959 10.2988C17.9712 10.0837 17.966 9.86285 17.9443 9.63867C17.8776 8.94941 17.6853 8.32858 17.5332 7.75684C17.4461 7.42882 17.5316 7.07838 17.7598 6.82715C17.9883 6.57587 18.329 6.45795 18.6641 6.51367L20.0615 6.74609C19.688 5.88322 19.2052 5.28442 18.6885 4.875C17.9138 4.26129 16.9743 3.99992 16 4Z" fill="#9E9E9E"/>
</g>
</svg>
