<svg width="24" height="24" viewBox="0 0 24 24" fill="none" xmlns="http://www.w3.org/2000/svg">
<g id="icons/Travels/wheelchair">
<path id="Union" d="M6.08301 9.63477C6.5849 9.40457 7.17884 9.62509 7.40918 10.127C7.63937 10.6288 7.41886 11.2228 6.91699 11.4531C5.19362 12.2442 4 13.9837 4 16C4.00003 18.7614 6.23859 21 9 21C11.3284 21 13.2876 19.4076 13.8428 17.251C13.9804 16.7161 14.5257 16.3936 15.0605 16.5312C15.5952 16.669 15.9168 17.2143 15.7793 17.749C15.0023 20.7679 12.2631 23 9 23C5.13404 23 2.00003 19.866 2 16C2 13.1734 3.67545 10.7397 6.08301 9.63477ZM9 1C10.6568 1 12 2.34314 12 4C12 5.27046 11.2091 6.35358 10.0938 6.79102L10.8877 13.9375L17.4336 13.502L17.5215 13.5C17.9607 13.5092 18.3474 13.8068 18.4648 14.2373L19.7637 19H20.5C21.0523 19 21.5 19.4477 21.5 20C21.5 20.5523 21.0523 21 20.5 21H19C18.549 21 18.1538 20.6978 18.0352 20.2627L16.75 15.5518L10.0664 15.998C9.5325 16.0336 9.06495 15.6422 9.00586 15.1104L8.08887 6.8584C6.87761 6.47263 6 5.3391 6 4C6 2.34314 7.34317 1 9 1ZM16.5 9C17.0523 9 17.5 9.44771 17.5 10C17.5 10.5523 17.0523 11 16.5 11H12.5C11.9477 11 11.5 10.5523 11.5 10C11.5 9.44771 11.9477 9 12.5 9H16.5ZM9 3C8.44773 3 8 3.44772 8 4C8 4.55227 8.44773 5 9 5C9.55227 5 10 4.55227 10 4C10 3.44772 9.55227 3 9 3Z" fill="#9E9E9E"/>
</g>
</svg>
