<svg width="24" height="24" viewBox="0 0 24 24" fill="none" xmlns="http://www.w3.org/2000/svg">
<g id="icons/Travels/world">
<path id="Union" d="M12 1C14.4764 1 16.7611 1.81918 18.5996 3.2002C18.6041 3.20355 18.6089 3.20652 18.6133 3.20996C21.2773 5.21744 23 8.40733 23 12C23 18.0751 18.0751 23 12 23C5.92487 23 1 18.0751 1 12C1 5.92487 5.92487 1 12 1ZM11.8096 3.00391C12.1811 3.18516 12.5167 3.42723 12.7754 3.75488C13.1766 4.2631 13.3115 4.86905 13.2471 5.48535C13.1637 6.28195 12.8639 6.91007 12.3047 7.32812C11.8143 7.69473 11.23 7.80473 10.8809 7.87305C10.4539 7.95658 10.2302 8.00076 10.0449 8.09961C9.92383 8.16422 9.79004 8.26716 9.68066 8.57812C9.51544 9.04801 9.71389 9.26211 10.3096 10.0273C10.5187 10.296 10.9818 10.8803 10.9111 11.6289C10.8351 12.4338 10.2158 12.9797 9.54883 13.3857C8.81044 13.8352 8.05741 14.052 7.32031 13.8652C6.59724 13.682 6.13729 13.17 5.84473 12.7451C5.56448 12.338 5.31505 11.8162 5.14941 11.5078C4.93949 11.117 4.82276 10.9782 4.76562 10.9375C4.56318 10.7936 4.07823 10.6762 3.04883 11.0605C3.0168 11.3693 3 11.6827 3 12C3 13.1103 3.20167 14.1733 3.56934 15.1553C3.61801 15.1351 3.66301 15.1156 3.70508 15.0986C5.65426 14.3112 7.42957 13.9726 8.76465 14.5615C9.3192 14.8062 9.7358 15.1401 10.0312 15.5469C10.3218 15.9469 10.4542 16.3621 10.5273 16.7051C10.5635 16.8744 10.5867 17.0346 10.6045 17.165C10.6239 17.3078 10.635 17.3983 10.6504 17.4873C10.654 17.5082 10.6589 17.5258 10.6621 17.541C10.6857 17.5526 10.7174 17.5686 10.7607 17.5859C10.8332 17.6149 10.913 17.6427 11.0186 17.6797C11.116 17.7138 11.2389 17.757 11.3613 17.8066C11.5957 17.9018 11.9364 18.0623 12.2158 18.3623C12.5277 18.6972 12.6933 19.1285 12.6934 19.6221C12.6934 20.0694 12.6192 20.525 12.4834 20.9863C13.1122 20.953 13.7234 20.8541 14.3115 20.6982C14.781 19.887 15.1302 19.1938 15.3633 18.6113C15.6284 17.9487 15.7206 17.4944 15.7207 17.2109C15.7207 17.2077 15.7326 17.1514 15.5732 16.9756C15.3824 16.765 15.1449 16.5859 14.748 16.2432C14.0212 15.6154 13.0676 14.6731 12.9248 13.0186C12.8414 12.0525 13.2148 11.2891 13.8643 10.7812C14.4488 10.3242 15.1917 10.1226 15.8311 10.0244C16.8166 9.87313 17.9648 9.92803 18.5234 9.95801C18.5261 9.93377 18.5287 9.9074 18.5283 9.87891C18.5266 9.75806 18.4926 9.67043 18.457 9.62109C18.4333 9.58825 18.382 9.53049 18.2256 9.49902C17.7111 9.39564 17.4159 9.50574 16.874 9.65527C16.6071 9.72892 16.2412 9.81987 15.8184 9.80078C15.3751 9.78072 14.9381 9.64536 14.4902 9.37598C14.2509 9.23203 14.0298 9.02372 13.8818 8.73828C13.7343 8.45353 13.6924 8.15415 13.7109 7.87793C13.7456 7.36405 13.9936 6.87219 14.2744 6.44824C14.7119 5.78794 15.4206 5.01146 16.3643 4.12793C15.0715 3.40971 13.5837 3 12 3C11.9364 3 11.8729 3.00259 11.8096 3.00391ZM7.95801 16.3916C7.46425 16.1737 6.48465 16.1846 4.80078 16.8184L4.47949 16.9424C5.81083 18.9641 7.93439 20.4149 10.4092 20.8564C10.5934 20.4012 10.6781 20.0176 10.6895 19.6973C10.6684 19.6873 10.6426 19.6737 10.6094 19.6602C10.5388 19.6315 10.4602 19.6037 10.3564 19.5674C10.2608 19.5339 10.1382 19.4916 10.0176 19.4434C9.78723 19.3512 9.44716 19.1949 9.16699 18.9014C8.81771 18.5352 8.72315 18.0794 8.67969 17.8281C8.65619 17.6923 8.63766 17.5419 8.62305 17.4346C8.60675 17.3149 8.59215 17.2153 8.57227 17.1221C8.53342 16.94 8.48296 16.8179 8.41309 16.7217C8.34806 16.6322 8.22609 16.51 7.95801 16.3916ZM18.0264 5.31641C16.9743 6.27679 16.2964 7.01841 15.9424 7.55273C15.8815 7.64468 15.8364 7.72204 15.8027 7.78516C15.8462 7.79601 15.8803 7.80146 15.9082 7.80273C16.0006 7.80692 16.1131 7.79065 16.3418 7.72754C16.791 7.60359 17.5582 7.32458 18.6201 7.53809L18.8506 7.59473C19.3736 7.7489 19.7905 8.0512 20.0791 8.45117C20.3969 8.89165 20.5219 9.39762 20.5283 9.85059C20.5346 10.2972 20.4272 10.7641 20.1934 11.1514C19.9651 11.5291 19.5131 11.9726 18.8291 11.9727C18.2454 11.9727 17.1893 11.8391 16.1348 12.001C15.6238 12.0794 15.2815 12.2112 15.0957 12.3564C14.9748 12.451 14.8922 12.5595 14.917 12.8467C14.9905 13.6984 15.4367 14.195 16.0557 14.7295C16.3317 14.9679 16.7544 15.3007 17.0547 15.6318C17.3862 15.9976 17.7207 16.514 17.7207 17.2109C17.7206 17.8513 17.5318 18.5661 17.2334 19.3193C19.513 17.6865 21 15.0179 21 12C21 9.34749 19.852 6.96357 18.0264 5.31641ZM10.6484 4.6875C9.9439 4.46227 8.75223 4.38216 6.98145 4.52734C5.43297 5.56933 4.22656 7.08046 3.56445 8.85645C4.42398 8.71841 5.23706 8.81949 5.92383 9.30762C6.40854 9.65216 6.7151 10.1947 6.91211 10.5615C7.15362 11.0112 7.29513 11.3251 7.49219 11.6113C7.67711 11.8799 7.7821 11.9193 7.81152 11.9268C7.82737 11.9308 8.01577 11.9778 8.50879 11.6777C8.68475 11.5706 8.79062 11.4849 8.85547 11.4277C8.82677 11.3851 8.78757 11.328 8.73145 11.2559C8.37432 10.7971 7.19511 9.61828 7.79395 7.91504C8.06657 7.1397 8.53283 6.63944 9.10352 6.33496C9.60994 6.06482 10.1707 5.9738 10.4961 5.91016C10.8992 5.83129 11.0349 5.78074 11.1074 5.72656C11.1111 5.72378 11.2177 5.67068 11.2588 5.27734C11.2773 5.10019 11.2369 5.03446 11.2051 4.99414C11.1539 4.92947 11.0103 4.80326 10.6484 4.6875Z" fill="#9E9E9E"/>
</g>
</svg>
