<svg width="24" height="24" viewBox="0 0 24 24" fill="none" xmlns="http://www.w3.org/2000/svg">
<g id="icons/Safe/alarm">
<path id="Union" d="M12.0002 6.5C15.3138 6.50014 18.0002 9.1864 18.0002 12.5V19.5H21.5002C22.0524 19.5001 22.5002 19.9478 22.5002 20.5C22.5002 21.0522 22.0524 21.4999 21.5002 21.5H3.00024C2.44796 21.5 2.00024 21.0523 2.00024 20.5C2.00024 19.9477 2.44796 19.5 3.00024 19.5H6.00024V12.5C6.00024 9.18632 8.68656 6.5 12.0002 6.5ZM12.0002 8.5C9.79113 8.5 8.00024 10.2909 8.00024 12.5V19.5H16.0002V12.5C16.0002 10.291 14.2092 8.50014 12.0002 8.5ZM1.90649 9.96973C2.00254 9.42601 2.52091 9.0633 3.0647 9.15918L4.54126 9.41895C5.08497 9.51498 5.44863 10.0344 5.35278 10.5781C5.25669 11.1216 4.73816 11.4843 4.19458 11.3887L2.71704 11.1279C2.17329 11.0319 1.81061 10.5135 1.90649 9.96973ZM20.9358 9.15918C21.4795 9.06346 21.998 9.42603 22.094 9.96973C22.1898 10.5133 21.8269 11.0317 21.2834 11.1279L19.8059 11.3887C19.2622 11.4846 18.7439 11.1217 18.6477 10.5781C18.5518 10.0343 18.9144 9.51491 19.4583 9.41895L20.9358 9.15918ZM5.41235 3.89844C5.8354 3.5436 6.46558 3.59854 6.82056 4.02148L7.7854 5.16992C8.14016 5.59285 8.08497 6.22407 7.66235 6.5791C7.23936 6.93404 6.60821 6.87891 6.25317 6.45605L5.28931 5.30664C4.93433 4.88359 4.98936 4.25345 5.41235 3.89844ZM17.1799 4.02148C17.535 3.59853 18.1661 3.54347 18.5891 3.89844C19.0115 4.25343 19.0667 4.88377 18.7122 5.30664L17.7473 6.45605C17.3923 6.8788 16.7621 6.93381 16.3391 6.5791C15.916 6.2241 15.8611 5.593 16.2161 5.16992L17.1799 4.02148ZM12.0002 1.5C12.5524 1.50014 13.0002 1.9478 13.0002 2.5V4C13.0002 4.5522 12.5524 4.99986 12.0002 5C11.448 5 11.0002 4.55228 11.0002 4V2.5C11.0002 1.94772 11.448 1.5 12.0002 1.5Z" fill="#9E9E9E"/>
</g>
</svg>
