<svg width="24" height="24" viewBox="0 0 24 24" fill="none" xmlns="http://www.w3.org/2000/svg">
<g id="icons/Safe/balance-two">
<path id="Union" d="M12 2C12.5523 2 13 2.44772 13 3V5H19C19.0423 5 19.084 5.00271 19.125 5.00781C19.1306 5.00851 19.136 5.00995 19.1416 5.01074C19.1727 5.01516 19.2033 5.02111 19.2334 5.02832C19.2465 5.03146 19.2596 5.03443 19.2725 5.03809C19.3478 5.05939 19.4193 5.08955 19.4863 5.12695C19.4926 5.13043 19.4987 5.13408 19.5049 5.1377C19.5311 5.1531 19.5564 5.16984 19.5811 5.1875C19.5936 5.19644 19.6061 5.20532 19.6182 5.21484C19.6401 5.23217 19.6612 5.25046 19.6816 5.26953C19.6864 5.27393 19.6917 5.27773 19.6963 5.28223L19.707 5.29297C19.7308 5.31678 19.7531 5.34206 19.7744 5.36816C19.7823 5.37789 19.7893 5.38838 19.7969 5.39844C19.8144 5.42157 19.8312 5.44509 19.8467 5.46973C19.85 5.47507 19.8542 5.47993 19.8574 5.48535L22.8574 10.4854C22.8613 10.4917 22.8645 10.4984 22.8682 10.5049C22.8774 10.5211 22.8852 10.538 22.8936 10.5547C22.8985 10.5645 22.9037 10.5741 22.9082 10.584C22.9311 10.634 22.9493 10.6862 22.9639 10.7402C22.9676 10.7539 22.9715 10.7675 22.9746 10.7812C22.9779 10.7961 22.9807 10.8111 22.9834 10.8262C22.9863 10.8428 22.9891 10.8593 22.9912 10.876C22.9934 10.8938 22.9948 10.9116 22.9961 10.9297C22.9973 10.9463 22.9987 10.9629 22.999 10.9795C22.9992 10.9863 23 10.9931 23 11C23 13.2091 21.2091 15 19 15C16.7909 15 15 13.2091 15 11C15 10.9931 15.0008 10.9863 15.001 10.9795C15.0013 10.9629 15.0018 10.9463 15.0029 10.9297C15.0042 10.9117 15.0056 10.8937 15.0078 10.876C15.0099 10.8593 15.0127 10.8428 15.0156 10.8262C15.0172 10.817 15.0187 10.8079 15.0205 10.7988L15.0283 10.7637C15.0302 10.7558 15.033 10.7481 15.0352 10.7402C15.0497 10.6862 15.0679 10.634 15.0908 10.584C15.0954 10.5741 15.1006 10.5645 15.1055 10.5547C15.1138 10.538 15.1216 10.521 15.1309 10.5049L17.2334 7H13V20H19C19.5523 20 20 20.4477 20 21C20 21.5523 19.5523 22 19 22H5C4.44772 22 4 21.5523 4 21C4 20.4477 4.44772 20 5 20H11V7H6.7666L8.85742 10.4854C8.86125 10.4917 8.86449 10.4984 8.86816 10.5049C8.87741 10.5211 8.8852 10.538 8.89355 10.5547C8.89846 10.5645 8.90365 10.5741 8.9082 10.584C8.93115 10.634 8.94934 10.6862 8.96387 10.7402C8.96757 10.7539 8.97152 10.7675 8.97461 10.7812C8.97793 10.7961 8.98075 10.8111 8.9834 10.8262C8.98633 10.8428 8.98914 10.8593 8.99121 10.876C8.99341 10.8938 8.99484 10.9116 8.99609 10.9297C8.99725 10.9463 8.9987 10.9629 8.99902 10.9795C8.99916 10.9863 9 10.9931 9 11C9 13.2091 7.20913 15 5 15C2.79086 15 1 13.2091 1 11C1 10.9931 1.00084 10.9863 1.00098 10.9795C1.0013 10.9629 1.00177 10.9463 1.00293 10.9297C1.00418 10.9117 1.00562 10.8937 1.00781 10.876C1.00988 10.8593 1.0127 10.8428 1.01562 10.8262C1.01723 10.817 1.01866 10.8079 1.02051 10.7988L1.02832 10.7637C1.03024 10.7558 1.03303 10.7481 1.03516 10.7402C1.04966 10.6862 1.06792 10.634 1.09082 10.584C1.09536 10.5741 1.10058 10.5645 1.10547 10.5547C1.1138 10.538 1.12163 10.521 1.13086 10.5049L4.14258 5.48535L4.15234 5.46973C4.16778 5.4451 4.18469 5.42156 4.20215 5.39844L4.2168 5.37793C4.21968 5.3743 4.22266 5.37077 4.22559 5.36719C4.26692 5.31667 4.31297 5.27009 4.36328 5.22852C4.37817 5.21624 4.39364 5.20473 4.40918 5.19336C4.42351 5.18284 4.43822 5.17284 4.45312 5.16309C4.46843 5.1531 4.48418 5.1439 4.5 5.13477C4.51236 5.12761 4.52443 5.11992 4.53711 5.11328C4.55259 5.10521 4.56809 5.0971 4.58398 5.08984C4.60475 5.08034 4.62596 5.07157 4.64746 5.06348C4.65843 5.05935 4.66954 5.0555 4.68066 5.05176C4.70022 5.04518 4.72016 5.03956 4.74023 5.03418C4.75158 5.03113 4.76294 5.02804 4.77441 5.02539L4.79883 5.02051C4.86383 5.00723 4.93107 5 5 5H11V3C11 2.44772 11.4477 2 12 2ZM3.26953 12C3.61546 12.5973 4.26007 13 5 13C5.73993 13 6.38454 12.5973 6.73047 12H3.26953ZM17.2695 12C17.6155 12.5973 18.2601 13 19 13C19.7399 13 20.3845 12.5973 20.7305 12H17.2695ZM3.7666 10H6.2334L5 7.94336L3.7666 10ZM17.7666 10H20.2334L19 7.94336L17.7666 10Z" fill="#9E9E9E"/>
</g>
</svg>
