<svg width="24" height="24" viewBox="0 0 24 24" fill="none" xmlns="http://www.w3.org/2000/svg">
<g id="icons/Safe/bug">
<path id="Union" d="M12 1C14.7439 1 16.9111 3.25999 16.9961 6H18.5859L21.293 3.29297C21.6835 2.90244 22.3165 2.90244 22.707 3.29297C23.0976 3.68349 23.0976 4.31651 22.707 4.70703L20 7.41406V12.5H22C22.5523 12.5 23 12.9477 23 13.5C23 14.0523 22.5523 14.5 22 14.5H19.9785C19.8994 15.5759 19.5595 17.2088 18.6006 18.6865L21.207 21.293C21.5976 21.6835 21.5976 22.3165 21.207 22.707C20.8165 23.0976 20.1835 23.0976 19.793 22.707L17.2881 20.2021C17.2558 20.2302 17.2244 20.2595 17.1914 20.2871C17.1011 20.3627 17.0074 20.4352 16.9121 20.5068C16.8791 20.5317 16.8462 20.5567 16.8125 20.5811C16.7321 20.6392 16.6493 20.6947 16.5654 20.75C16.4523 20.8245 16.3367 20.8976 16.2168 20.9668C16.2028 20.9749 16.1889 20.9832 16.1748 20.9912C16.0067 21.0866 15.8321 21.1769 15.6504 21.2607C15.6233 21.2732 15.5957 21.2847 15.5684 21.2969C15.4974 21.3286 15.4256 21.3598 15.3525 21.3896C15.3295 21.3991 15.3065 21.4087 15.2832 21.418C15.1929 21.4538 15.1013 21.4886 15.0078 21.5215C14.9859 21.5292 14.9635 21.5354 14.9414 21.543C14.8598 21.5708 14.7774 21.5985 14.6934 21.624C14.674 21.6299 14.6543 21.6349 14.6348 21.6406C14.5477 21.6663 14.4597 21.6917 14.3701 21.7148C14.3481 21.7205 14.3259 21.7259 14.3037 21.7314C14.1993 21.7575 14.0933 21.7822 13.9854 21.8047C13.9572 21.8106 13.9288 21.8157 13.9004 21.8213C13.8238 21.8364 13.7463 21.85 13.668 21.8633C13.6275 21.8702 13.5869 21.8774 13.5459 21.8838C13.3238 21.9183 13.0947 21.9456 12.8584 21.9648C12.8182 21.9681 12.7779 21.9708 12.7373 21.9736C12.658 21.9791 12.578 21.9836 12.4971 21.9873C12.4585 21.9891 12.4198 21.9908 12.3809 21.9922C12.2558 21.9965 12.1289 22 12 22C11.8698 22 11.7416 21.9966 11.6152 21.9922C11.5832 21.9911 11.5513 21.9897 11.5195 21.9883C11.433 21.9844 11.3474 21.9786 11.2627 21.9727C11.2192 21.9696 11.1759 21.9674 11.1328 21.9639C11.0269 21.9551 10.9224 21.9445 10.8193 21.9326C10.7913 21.9294 10.7632 21.9263 10.7354 21.9229C10.639 21.9108 10.544 21.8975 10.4502 21.8828C10.4234 21.8786 10.3968 21.8736 10.3701 21.8691C10.2651 21.8517 10.1615 21.8333 10.0596 21.8125C10.054 21.8114 10.0485 21.8097 10.043 21.8086C9.82001 21.7627 9.60459 21.7093 9.39648 21.6484C9.36933 21.6405 9.34235 21.6322 9.31543 21.624C9.22752 21.5973 9.14094 21.5693 9.05566 21.54C9.04231 21.5354 9.02892 21.531 9.01562 21.5264C8.81633 21.4567 8.62452 21.3797 8.43945 21.2969C8.42053 21.2884 8.4016 21.2801 8.38281 21.2715C8.20042 21.188 8.02524 21.098 7.85645 21.0029C7.83329 20.9899 7.81003 20.9771 7.78711 20.9639C7.72225 20.9263 7.65856 20.8878 7.5957 20.8486C7.57881 20.8381 7.56168 20.828 7.54492 20.8174C7.50414 20.7915 7.46474 20.7639 7.4248 20.7373C7.34719 20.6857 7.27093 20.6332 7.19629 20.5791C7.16149 20.5539 7.12689 20.5287 7.09277 20.5029C6.99931 20.4325 6.90706 20.3613 6.81836 20.2871C6.81535 20.2846 6.81254 20.2818 6.80957 20.2793C6.77769 20.2525 6.74705 20.2245 6.71582 20.1973L4.20703 22.707C3.81651 23.0976 3.18349 23.0976 2.79297 22.707C2.40244 22.3165 2.40244 21.6835 2.79297 21.293L5.4043 18.6807C4.44374 17.2006 4.10289 15.5667 4.02246 14.5H2C1.44772 14.5 1 14.0523 1 13.5C1 12.9477 1.44772 12.5 2 12.5H4V7.41406L1.29297 4.70703C0.902444 4.31651 0.902444 3.68349 1.29297 3.29297C1.68349 2.90244 2.31651 2.90244 2.70703 3.29297L5.41406 6H7.00391C7.08891 3.25999 9.25605 1 12 1ZM6 14C6 14.7276 6.22201 16.2719 7.08789 17.6006C7.802 18.6963 8.97935 19.6918 11 19.9395V8H6V14ZM13 19.9395C15.0232 19.6937 16.2003 18.7052 16.9131 17.6152C17.7776 16.2933 18 14.7498 18 14V8H13V19.9395ZM12 3C10.4319 3 9.08658 4.29392 9.00391 6H14.9961C14.9134 4.29392 13.5681 3 12 3Z" fill="#9E9E9E"/>
</g>
</svg>
