<svg width="24" height="24" viewBox="0 0 24 24" fill="none" xmlns="http://www.w3.org/2000/svg">
<g id="icons/Safe/caution">
<path id="Union" d="M12.0002 1.5C12.357 1.50008 12.6867 1.6903 12.8655 1.99902L23.8655 20.999C24.0445 21.3082 24.0448 21.6894 23.8665 21.999C23.6879 22.3086 23.3576 22.4999 23.0002 22.5H1.00024C0.642804 22.5 0.312601 22.3087 0.134033 21.999C-0.044351 21.6894 -0.0440436 21.3083 0.13501 20.999L11.135 1.99902L11.2083 1.88867C11.396 1.6454 11.688 1.5 12.0002 1.5ZM2.73462 20.5H21.2659L12.0002 4.49512L2.73462 20.5ZM12.0002 16.5C12.5524 16.5001 13.0002 16.9478 13.0002 17.5V18C13.0002 18.5522 12.5524 18.9999 12.0002 19C11.448 19 11.0002 18.5523 11.0002 18V17.5C11.0002 16.9477 11.448 16.5 12.0002 16.5ZM11.9993 8.5C12.5514 8.49967 12.9997 8.94689 13.0002 9.49902L13.0042 14.499C13.0046 15.0512 12.5573 15.4994 12.0051 15.5C11.453 15.5004 11.0048 15.053 11.0042 14.501L11.0002 9.50098C10.9998 8.94874 11.4471 8.50054 11.9993 8.5Z" fill="#9E9E9E"/>
</g>
</svg>
