<svg width="24" height="24" viewBox="0 0 24 24" fill="none" xmlns="http://www.w3.org/2000/svg">
<g id="icons/Safe/fire-extinguisher">
<path id="Union" d="M7 1C8.30585 1 9.41406 1.83532 9.82617 3H10C11.8574 3 13.3511 2.99779 14.5225 3.15527C15.7226 3.31663 16.7326 3.66234 17.5352 4.46484C18.3377 5.26739 18.6834 6.27744 18.8447 7.47754C19.0022 8.64892 19 10.1426 19 12V12.8389L21.9482 21.6836C22.0499 21.9885 21.9995 22.3242 21.8115 22.585C21.6236 22.8457 21.3214 23 21 23H15C14.6786 23 14.3764 22.8457 14.1885 22.585C14.0005 22.3242 13.9501 21.9885 14.0518 21.6836L17 12.8389V12C17 10.0861 16.9977 8.75128 16.8623 7.74414C16.7308 6.76581 16.4901 6.24793 16.1211 5.87891C15.7521 5.5099 15.2342 5.26923 14.2559 5.1377C13.2487 5.00229 11.9139 5 10 5H9.82617C9.74227 5.23711 9.63074 5.46054 9.49316 5.66602C10.9912 6.52962 12 8.14665 12 10V22C12 22.5523 11.5523 23 11 23H3C2.44772 23 2 22.5523 2 22V10C2 8.14713 3.00848 6.53077 4.50586 5.66699C4.36821 5.46146 4.25776 5.23719 4.17383 5H3C2.44772 5 2 4.55228 2 4C2 3.44772 2.44772 3 3 3H4.17383C4.58594 1.83532 5.69415 1 7 1ZM7 7C5.34314 7 4 8.34314 4 10V21H10V10C10 8.34313 8.65687 7 7 7ZM7 3C6.44772 3 6 3.44772 6 4C6 4.55228 6.44772 5 7 5C7.55228 5 8 4.55228 8 4C8 3.44772 7.55228 3 7 3Z" fill="#9E9E9E"/>
</g>
</svg>
