<svg width="24" height="24" viewBox="0 0 24 24" fill="none" xmlns="http://www.w3.org/2000/svg">
<g id="icons/Safe/harm">
<path id="Union" d="M11.8633 1.00977C12.0037 0.989769 12.1479 0.999964 12.2852 1.04004L21.2803 3.66797C21.7067 3.79253 21.9999 4.18372 22 4.62793V10.0166C22 16.1113 18.0995 21.5226 12.3174 23.4492C12.1123 23.5175 11.8906 23.5174 11.6855 23.4492C5.90198 21.5227 2.00013 16.1107 2 10.0146V4.62793C2.00008 4.18367 2.29327 3.79249 2.71973 3.66797L11.7246 1.04004L11.8633 1.00977ZM4 5.37695V10.0146C4.00012 15.1374 7.20941 19.695 12.001 21.4385C16.7915 19.6951 20 15.1383 20 10.0166V5.37695L12.0029 3.04102L4 5.37695ZM14.043 8.49707C14.4335 8.10686 15.0666 8.10673 15.457 8.49707C15.8473 8.88752 15.8472 9.52065 15.457 9.91113L13.335 12.0322L15.457 14.1543C15.8471 14.5448 15.8473 15.178 15.457 15.5684C15.0666 15.9588 14.4335 15.9585 14.043 15.5684L11.9209 13.4463L9.7998 15.5684C9.40933 15.9586 8.77622 15.9586 8.38574 15.5684C7.99537 15.1779 7.99544 14.5448 8.38574 14.1543L10.5068 12.0322L8.38574 9.91113C7.99531 9.5206 7.99525 8.88756 8.38574 8.49707C8.77624 8.10667 9.4093 8.10667 9.7998 8.49707L11.9209 10.6182L14.043 8.49707Z" fill="#9E9E9E"/>
</g>
</svg>
