<svg width="24" height="24" viewBox="0 0 24 24" fill="none" xmlns="http://www.w3.org/2000/svg">
<g id="icons/Safe/imbalance">
<path id="Union" d="M12 1C12.5523 1 13 1.44772 13 2V8.21973L17.7578 7.03027C17.763 7.02897 17.7682 7.02758 17.7734 7.02637V7.02539C17.7848 7.02275 17.7962 7.02079 17.8076 7.01855C17.8218 7.01576 17.8362 7.0139 17.8506 7.01172C17.8522 7.01147 17.8538 7.01098 17.8555 7.01074C17.8711 7.00846 17.8867 7.00641 17.9023 7.00488C17.916 7.00353 17.9297 7.00274 17.9434 7.00195C17.9502 7.00156 17.957 7.00123 17.9639 7.00098C17.9684 7.00081 17.973 7.0001 17.9775 7H18.0225C18.0312 7.00019 18.04 7.00055 18.0488 7.00098C18.056 7.00132 18.0632 7.00145 18.0703 7.00195C18.0729 7.00214 18.0755 7.00272 18.0781 7.00293C18.098 7.00448 18.1178 7.00701 18.1377 7.00977C18.1518 7.01173 18.1658 7.01405 18.1797 7.0166C18.2006 7.02043 18.2214 7.02507 18.2422 7.03027C18.2441 7.03075 18.2461 7.03076 18.248 7.03125C18.2589 7.03404 18.2695 7.03787 18.2803 7.04102C18.295 7.04532 18.3096 7.04967 18.3242 7.05469C18.3453 7.0619 18.3662 7.06952 18.3867 7.07812L18.4043 7.08594L18.4297 7.09766L18.4316 7.09863C18.4449 7.10497 18.4577 7.11221 18.4707 7.11914C18.479 7.12359 18.4879 7.12713 18.4961 7.13184C18.4988 7.13336 18.5013 7.13517 18.5039 7.13672C18.5095 7.13996 18.515 7.14314 18.5205 7.14648C18.5365 7.15624 18.5519 7.16705 18.5674 7.17773C18.5749 7.18292 18.5825 7.18799 18.5898 7.19336C18.6044 7.20402 18.6188 7.21506 18.6328 7.22656C18.6458 7.23713 18.6586 7.24768 18.6709 7.25879C18.683 7.26974 18.6945 7.28137 18.7061 7.29297C18.7177 7.30455 18.7293 7.31605 18.7402 7.32812C18.7514 7.34041 18.7619 7.35328 18.7725 7.36621C18.7815 7.37717 18.7903 7.38812 18.7988 7.39941C18.8007 7.40186 18.8019 7.40476 18.8037 7.40723C18.8119 7.41833 18.8194 7.42989 18.8271 7.44141C18.8388 7.45873 18.8507 7.47598 18.8613 7.49414C18.8633 7.49755 18.8662 7.50046 18.8682 7.50391L22.8682 14.5039C22.87 14.5071 22.8713 14.5105 22.873 14.5137C22.9141 14.5872 22.9453 14.6665 22.9668 14.75C22.9786 14.7957 22.988 14.8415 22.9932 14.8877C22.9948 14.9019 22.9951 14.9163 22.9961 14.9307C22.9975 14.9509 22.9989 14.971 22.999 14.9912C22.999 14.9941 23 14.9971 23 15C23 17.7614 20.7614 20 18 20C15.2386 20 13 17.7614 13 15V14.9775C13.0003 14.9619 13.0019 14.9463 13.0029 14.9307C13.0039 14.9163 13.0043 14.9019 13.0059 14.8877C13.0111 14.8415 13.0204 14.7956 13.0322 14.75C13.0538 14.6664 13.0859 14.5873 13.127 14.5137C13.1287 14.5105 13.13 14.5071 13.1318 14.5039L15.9688 9.53711L7.52246 11.6494L10.8682 17.5039C10.87 17.5071 10.8713 17.5105 10.873 17.5137C10.9141 17.5872 10.9453 17.6665 10.9668 17.75C10.9786 17.7957 10.988 17.8415 10.9932 17.8877C10.9948 17.9019 10.9951 17.9163 10.9961 17.9307C10.9975 17.9509 10.9989 17.971 10.999 17.9912C10.999 17.9941 11 17.9971 11 18C11 20.7614 8.76144 23 6 23C3.23858 23 1 20.7614 1 18V17.9775C1.00034 17.9619 1.00185 17.9463 1.00293 17.9307C1.00392 17.9163 1.00427 17.9019 1.00586 17.8877C1.01105 17.8415 1.02041 17.7956 1.03223 17.75C1.05376 17.6664 1.08586 17.5873 1.12695 17.5137C1.12872 17.5105 1.13003 17.5071 1.13184 17.5039L5.13184 10.5039C5.1335 10.501 5.13503 10.498 5.13672 10.4951C5.13996 10.4896 5.14314 10.484 5.14648 10.4785C5.15587 10.4631 5.16651 10.4485 5.17676 10.4336C5.18234 10.4255 5.18757 10.4171 5.19336 10.4092C5.20403 10.3946 5.21506 10.3803 5.22656 10.3662C5.23713 10.3533 5.24767 10.3404 5.25879 10.3281C5.26173 10.3249 5.26459 10.3216 5.26758 10.3184L5.31836 10.2676C5.32157 10.2646 5.32488 10.2617 5.32812 10.2588C5.34587 10.2427 5.36472 10.2278 5.38379 10.2129C5.39147 10.2069 5.39935 10.2011 5.40723 10.1953C5.41832 10.1872 5.42989 10.1796 5.44141 10.1719C5.44388 10.1702 5.44576 10.1677 5.44824 10.166C5.45729 10.16 5.46636 10.1541 5.47559 10.1484C5.48166 10.1447 5.48797 10.1413 5.49414 10.1377C5.49741 10.1358 5.50061 10.1337 5.50391 10.1318C5.51228 10.1271 5.52084 10.1227 5.5293 10.1182C5.54683 10.1088 5.56479 10.1001 5.58301 10.0918C5.59123 10.088 5.59915 10.0836 5.60742 10.0801C5.62545 10.0724 5.64368 10.0652 5.66211 10.0586H5.66309C5.68315 10.0514 5.70334 10.0449 5.72363 10.0391C5.72956 10.0374 5.73525 10.0348 5.74121 10.0332C5.74243 10.0329 5.7439 10.0335 5.74512 10.0332C5.74931 10.0321 5.75359 10.0313 5.75781 10.0303L5.77441 10.0254C5.77865 10.0244 5.78287 10.0234 5.78711 10.0225L11 8.71973V2C11 1.44772 11.4477 1 12 1ZM3.17383 19C3.58594 20.1647 4.69414 21 6 21C7.30586 21 8.41406 20.1647 8.82617 19H3.17383ZM15.1738 16C15.5859 17.1647 16.6941 18 18 18C19.3059 18 20.4141 17.1647 20.8262 16H15.1738ZM3.72266 17H8.27734L6 13.0146L3.72266 17ZM15.7227 14H20.2773L18 10.0146L15.7227 14Z" fill="#9E9E9E"/>
</g>
</svg>
