<svg width="24" height="24" viewBox="0 0 24 24" fill="none" xmlns="http://www.w3.org/2000/svg">
<g id="icons/Safe/key">
<path id="Union" d="M19.2932 2.79297C19.6837 2.40251 20.3168 2.40247 20.7073 2.79297C21.0976 3.18348 21.0977 3.81655 20.7073 4.20703L19.675 5.23828L21.7385 7.29102C21.9271 7.47869 22.0334 7.73393 22.0334 8C22.0334 8.26601 21.9271 8.52137 21.7385 8.70898L18.5725 11.8584C18.1825 12.2464 17.5515 12.2463 17.1614 11.8584L15.1018 9.81055L12.7561 12.1572C13.8144 13.5944 14.1838 15.4453 13.7151 17.2012C13.1637 19.2666 11.5427 20.8767 9.47192 21.4238C7.40142 21.9708 5.19344 21.3724 3.68677 19.8535L3.67993 19.8467V19.8457C1.4128 17.5106 1.44494 13.7974 3.7522 11.502C5.80529 9.45978 8.98372 9.21238 11.3108 10.7744L19.2932 2.79297ZM10.7405 12.8711C9.17978 11.3719 6.69742 11.394 5.16333 12.9199C3.63329 14.4419 3.6101 16.8997 5.1106 18.4492C6.11228 19.4564 7.5816 19.8547 8.96118 19.4902C10.342 19.1254 11.4172 18.0535 11.7825 16.6855C12.1463 15.3228 11.7511 13.8698 10.7444 12.874C10.7433 12.873 10.7416 12.8721 10.7405 12.8711ZM16.5706 8.44922L17.8665 9.73828L19.6155 7.99902L18.3186 6.70996L16.5706 8.44922Z" fill="#9E9E9E"/>
</g>
</svg>
