<svg width="24" height="24" viewBox="0 0 24 24" fill="none" xmlns="http://www.w3.org/2000/svg">
<g id="icons/Safe/keyhole">
<path id="Union" d="M12 1C18.0751 1 23 5.92487 23 12C23 18.0751 18.0751 23 12 23C5.92487 23 1 18.0751 1 12C1 5.92487 5.92487 1 12 1ZM12 3C7.02943 3 3 7.02943 3 12C3 16.9706 7.02943 21 12 21C16.9706 21 21 16.9706 21 12C21 7.02943 16.9706 3 12 3ZM12 6.5C13.933 6.5 15.5 8.06702 15.5 10C15.5 10.9244 15.1397 11.7639 14.5557 12.3887L14.9922 15.876C15.0277 16.1606 14.9398 16.4471 14.75 16.6621C14.5602 16.8771 14.2868 17 14 17H10C9.71317 17 9.43983 16.8771 9.25 16.6621C9.06018 16.4471 8.97224 16.1606 9.00781 15.876L9.44434 12.3896C8.86006 11.7648 8.5 10.9246 8.5 10C8.5 8.06702 10.067 6.5 12 6.5ZM12 8.5C11.1716 8.5 10.5 9.17159 10.5 10C10.5 10.49 10.7341 10.9248 11.1006 11.2002C11.3872 11.4155 11.5366 11.7683 11.4922 12.124L11.1328 15H12.8672L12.5078 12.124C12.4634 11.7682 12.6128 11.4156 12.8994 11.2002C13.2659 10.9249 13.5 10.49 13.5 10C13.5 9.17159 12.8284 8.5 12 8.5Z" fill="#9E9E9E"/>
</g>
</svg>
