<svg width="24" height="24" viewBox="0 0 24 24" fill="none" xmlns="http://www.w3.org/2000/svg">
<g id="icons/Safe/protection">
<path id="Union" d="M12 1C12.5523 1 13 1.44772 13 2V2.54688C18.0099 3.02184 22 7.02701 22 12C22 12.5523 21.5523 13 21 13H13V19.2725C13 21.3415 11.2988 23 9.25 23C7.20122 23 5.5 21.3415 5.5 19.2725C5.5 18.7202 5.94772 18.2725 6.5 18.2725C7.05228 18.2725 7.5 18.7202 7.5 19.2725C7.5 20.2159 8.28458 21 9.25 21C10.2154 21 11 20.2159 11 19.2725V13H3C2.44772 13 2 12.5523 2 12C2 7.02701 5.99014 3.02184 11 2.54688V2C11 1.44772 11.4477 1 12 1ZM12 4.5C7.8975 4.5 4.59278 7.36976 4.07324 11H19.9268C19.4072 7.36976 16.1025 4.5 12 4.5Z" fill="#9E9E9E"/>
</g>
</svg>
