<svg width="24" height="24" viewBox="0 0 24 24" fill="none" xmlns="http://www.w3.org/2000/svg">
<g id="icons/Safe/protect">
<path id="Union" d="M11.8633 1.00977C12.0037 0.989769 12.1479 0.999964 12.2852 1.04004L21.2803 3.66797C21.7067 3.79253 21.9999 4.18372 22 4.62793V10.0166C22 16.1113 18.0995 21.5226 12.3174 23.4492C12.1123 23.5175 11.8906 23.5174 11.6855 23.4492C5.90198 21.5227 2.00013 16.1107 2 10.0146V4.62793C2.00008 4.18367 2.29327 3.79249 2.71973 3.66797L11.7246 1.04004L11.8633 1.00977ZM4 5.37695V10.0146C4.00012 15.1374 7.20941 19.695 12.001 21.4385C16.7915 19.6951 20 15.1383 20 10.0166V5.37695L12.0029 3.04102L4 5.37695ZM16.293 8.29297C16.6835 7.90257 17.3165 7.90257 17.707 8.29297C18.0975 8.68346 18.0975 9.3165 17.707 9.70703L11.707 15.707C11.3165 16.0976 10.6835 16.0976 10.293 15.707L6.79297 12.207C6.40254 11.8165 6.40248 11.1835 6.79297 10.793C7.18347 10.4026 7.81653 10.4026 8.20703 10.793L11 13.5859L16.293 8.29297Z" fill="#9E9E9E"/>
</g>
</svg>
