<svg width="24" height="24" viewBox="0 0 24 24" fill="none" xmlns="http://www.w3.org/2000/svg">
<g id="icons/Safe/radiation">
<path id="Union" d="M13.9268 14.9043C14.1482 14.7575 14.4194 14.7047 14.6797 14.7578C14.9401 14.811 15.1693 14.9665 15.3154 15.1885L18.3457 19.791C18.6486 20.2511 18.5224 20.8702 18.0635 21.1748C16.3248 22.3283 14.2392 23 12 23C9.76081 23 7.67518 22.3283 5.93652 21.1748C5.47755 20.8702 5.35138 20.2511 5.6543 19.791L8.68457 15.1885L8.74316 15.1084C8.88841 14.9292 9.0923 14.8044 9.32031 14.7578C9.58063 14.7047 9.85182 14.7575 10.0732 14.9043C10.6257 15.2708 11.2865 15.4844 12 15.4844C12.7135 15.4844 13.3743 15.2708 13.9268 14.9043ZM14.1426 17.0449C13.4831 17.325 12.7599 17.4844 12 17.4844C11.2398 17.4844 10.5161 17.3252 9.85645 17.0449L7.90332 20.0117C9.13173 20.643 10.5232 21 12 21C13.4765 21 14.8675 20.6428 16.0957 20.0117L14.1426 17.0449ZM7.16895 2.06641C7.38401 1.98396 7.6223 1.97743 7.84277 2.05078C8.09483 2.13469 8.30328 2.316 8.42188 2.55371L10.8818 7.48828C11.1277 7.98145 10.9279 8.5807 10.4355 8.82812C9.28684 9.40543 8.50008 10.5967 8.5 11.9717C8.5 12.0428 8.50176 12.1133 8.50586 12.1826C8.5385 12.7335 8.11912 13.2069 7.56836 13.2402L2.07812 13.5703C1.81317 13.5863 1.55203 13.4965 1.35352 13.3203C1.15519 13.1441 1.03514 12.8957 1.01953 12.6309C1.00669 12.4127 1 12.1928 1 11.9717C1.00008 7.65428 3.47527 3.9165 7.07812 2.10645L7.16895 2.06641ZM16.1572 2.05078C16.4092 1.96693 16.6845 1.98726 16.9219 2.10645C20.5248 3.9165 22.9999 7.65428 23 11.9717C23 12.1929 22.9933 12.4128 22.9805 12.6309C22.9649 12.8957 22.8448 13.1441 22.6465 13.3203C22.448 13.4965 22.1868 13.5863 21.9219 13.5703L16.4316 13.2402C15.8809 13.2069 15.4615 12.7335 15.4941 12.1826C15.4982 12.1133 15.5 12.0428 15.5 11.9717C15.4999 10.5967 14.7132 9.40543 13.5645 8.82812C13.0721 8.5807 12.8723 7.98145 13.1182 7.48828L15.5781 2.55371L15.627 2.46777C15.7497 2.27266 15.9366 2.12423 16.1572 2.05078ZM12.002 10.5C12.8303 10.5 13.5018 11.1716 13.502 12C13.502 12.8285 12.8304 13.5 12.002 13.5C11.1736 13.5 10.502 12.8285 10.502 12C10.5021 11.1716 11.1736 10.5 12.002 10.5ZM7.10449 4.39453C4.75367 5.92622 3.16226 8.52788 3.0127 11.5107L6.54297 11.2979C6.72793 9.77805 7.52896 8.45046 8.68848 7.57227L7.10449 4.39453ZM15.3105 7.57227C16.4704 8.45043 17.271 9.77783 17.4561 11.2979L20.9863 11.5107C20.8367 8.5276 19.2457 5.92615 16.8945 4.39453L15.3105 7.57227Z" fill="#9E9E9E"/>
</g>
</svg>
