<svg width="24" height="24" viewBox="0 0 24 24" fill="none" xmlns="http://www.w3.org/2000/svg">
<g id="icons/Safe/report">
<path id="Union" d="M20.0001 20C20.5523 20.0001 21.0001 20.4478 21.0001 21C21 21.5522 20.5523 21.9999 20.0001 22H4.00012C3.44788 22 3.0002 21.5522 3.00012 21C3.00012 20.4477 3.44784 20 4.00012 20H20.0001ZM12.0001 3.5C15.866 3.50007 19.0001 6.63406 19.0001 10.5V17.5C19 18.0522 18.5523 18.4999 18.0001 18.5H6.00012C5.44788 18.5 5.0002 18.0522 5.00012 17.5V10.5C5.00012 6.63402 8.13414 3.5 12.0001 3.5ZM12.0001 5.5C9.23871 5.5 7.00012 7.73858 7.00012 10.5V16.5H17.0001V10.5C17.0001 7.73863 14.7615 5.50007 12.0001 5.5ZM1.05188 6.18359C1.22664 5.65984 1.79268 5.37714 2.31653 5.55176L3.81653 6.05176C4.34018 6.22658 4.62296 6.79261 4.44836 7.31641C4.27359 7.84006 3.70749 8.12274 3.18372 7.94824L1.68372 7.44824C1.15999 7.27349 0.877321 6.70742 1.05188 6.18359ZM2.79309 2.79297C3.18361 2.40244 3.81663 2.40245 4.20715 2.79297L5.70715 4.29297C6.09754 4.6835 6.09763 5.31655 5.70715 5.70703C5.31667 6.09751 4.68363 6.09742 4.29309 5.70703L2.79309 4.20703C2.40257 3.81651 2.40257 3.18349 2.79309 2.79297ZM6.18372 1.05176C6.70754 0.877199 7.27361 1.15987 7.44836 1.68359L7.94836 3.18359C8.12286 3.70737 7.84018 4.27347 7.31653 4.44824C6.79274 4.62284 6.2267 4.34006 6.05188 3.81641L5.55188 2.31641C5.37726 1.79256 5.65996 1.22652 6.18372 1.05176Z" fill="#9E9E9E"/>
</g>
</svg>
