<svg width="24" height="24" viewBox="0 0 24 24" fill="none" xmlns="http://www.w3.org/2000/svg">
<g id="icons/Safe/shield-add">
<path id="Union" d="M11.8633 0.509766C12.0037 0.489769 12.1479 0.499964 12.2852 0.540039L21.2803 3.16797C21.7067 3.29253 21.9999 3.68372 22 4.12793V9.5166C22 15.6113 18.0995 21.0226 12.3174 22.9492C12.1123 23.0175 11.8906 23.0174 11.6855 22.9492C5.90198 21.0227 2.00013 15.6107 2 9.51465V4.12793C2.00008 3.68367 2.29327 3.29249 2.71973 3.16797L11.7246 0.540039L11.8633 0.509766ZM4 4.87695V9.51465C4.00012 14.6374 7.20941 19.195 12.001 20.9385C16.7915 19.1951 20 14.6383 20 9.5166V4.87695L12.0029 2.54102L4 4.87695ZM11.9746 6.47461C12.5268 6.47461 12.9745 6.92241 12.9746 7.47461V10.4746H15.9746C16.5268 10.4746 16.9745 10.9224 16.9746 11.4746C16.9746 12.0269 16.5269 12.4746 15.9746 12.4746H12.9746V15.4746C12.9746 16.0269 12.5269 16.4746 11.9746 16.4746C11.4224 16.4745 10.9746 16.0268 10.9746 15.4746V12.4746H7.97461C7.42244 12.4745 6.97461 12.0268 6.97461 11.4746C6.97471 10.9225 7.4225 10.4747 7.97461 10.4746H10.9746V7.47461C10.9747 6.92249 11.4225 6.47474 11.9746 6.47461Z" fill="#9E9E9E"/>
</g>
</svg>
