<svg width="24" height="24" viewBox="0 0 24 24" fill="none" xmlns="http://www.w3.org/2000/svg">
<g id="icons/Safe/shield">
<path id="Union" d="M11.8633 0.509766C12.0037 0.489769 12.1479 0.499964 12.2852 0.540039L21.2803 3.16797C21.7067 3.29253 21.9999 3.68372 22 4.12793V9.5166C22 15.6113 18.0995 21.0226 12.3174 22.9492C12.1123 23.0175 11.8906 23.0174 11.6855 22.9492C5.90198 21.0227 2.00013 15.6107 2 9.51465V4.12793C2.00008 3.68367 2.29327 3.29249 2.71973 3.16797L11.7246 0.540039L11.8633 0.509766ZM4 4.87695V9.51465C4.00012 14.6374 7.20941 19.195 12.001 20.9385C16.7915 19.1951 20 14.6383 20 9.5166V4.87695L12.0029 2.54102L4 4.87695Z" fill="#9E9E9E"/>
</g>
</svg>
