<svg width="24" height="24" viewBox="0 0 24 24" fill="none" xmlns="http://www.w3.org/2000/svg">
<g id="icons/Safe/umbrella">
<path id="Union" d="M12 0.5C12.5523 0.5 13 0.947715 13 1.5V2.54688C18.6064 3.05219 23 7.76202 23 13.5C23 13.8905 22.7726 14.245 22.418 14.4082C22.0632 14.5714 21.6461 14.5129 21.3496 14.2588C20.6684 13.6749 20.1023 13.2648 19.6475 13.0049C19.1727 12.7336 18.9135 12.6817 18.8184 12.6816C18.7233 12.6816 18.4634 12.7334 17.9883 13.0049C17.5335 13.2648 16.9681 13.6751 16.2871 14.2588C15.8904 14.5988 15.2992 14.5763 14.9297 14.207C14.2359 13.5132 13.5935 13.0886 13 12.8691V19.2764C13 20.2211 13.7851 21.0059 14.75 21.0059C15.7149 21.0059 16.5 20.2211 16.5 19.2764C16.5002 18.7243 16.9479 18.2764 17.5 18.2764C18.0521 18.2764 18.4998 18.7243 18.5 19.2764C18.5 21.3458 16.7993 23.0059 14.75 23.0059C12.7007 23.0059 11 21.3458 11 19.2764V12.8691C10.4065 13.0886 9.7641 13.5132 9.07031 14.207C8.70081 14.5763 8.10956 14.5988 7.71289 14.2588C7.0319 13.6751 6.46647 13.2648 6.01172 13.0049C5.53659 12.7334 5.27666 12.6816 5.18164 12.6816C5.08654 12.6817 4.82733 12.7336 4.35254 13.0049C3.89769 13.2648 3.33164 13.6749 2.65039 14.2588C2.35388 14.5129 1.93683 14.5714 1.58203 14.4082C1.22735 14.245 1 13.8905 1 13.5C1 7.76202 5.39358 3.05219 11 2.54688V1.5C11 0.947715 11.4477 0.5 12 0.5ZM12 4.5C7.77975 4.5 4.23874 7.40495 3.26562 11.3242C3.29742 11.3054 3.32891 11.2865 3.36035 11.2686C3.94573 10.9341 4.56968 10.6817 5.18164 10.6816C5.79373 10.6816 6.41842 10.934 7.00391 11.2686C7.41546 11.5038 7.85611 11.811 8.32715 12.1797C9.46441 11.2316 10.6904 10.6816 12 10.6816C13.3094 10.6816 14.5348 11.2319 15.6719 12.1797C16.1431 11.8108 16.5844 11.5039 16.9961 11.2686C17.5816 10.934 18.2063 10.6816 18.8184 10.6816C19.4303 10.6817 20.0543 10.9341 20.6396 11.2686C20.6709 11.2864 20.7018 11.3056 20.7334 11.3242C19.7602 7.40507 16.2202 4.5 12 4.5Z" fill="#9E9E9E"/>
</g>
</svg>
