<svg width="24" height="24" viewBox="0 0 24 24" fill="none" xmlns="http://www.w3.org/2000/svg">
<g id="icons/Safe/umbrella-one">
<path id="Union" d="M12 1C18.0751 1 23 5.92487 23 12C23 12.5523 22.5523 13 22 13H13V19.2764C13 20.2211 13.7851 21.0059 14.75 21.0059C15.7149 21.0059 16.5 20.2211 16.5 19.2764C16.5002 18.7243 16.9479 18.2764 17.5 18.2764C18.0521 18.2764 18.4998 18.7243 18.5 19.2764C18.5 21.3458 16.7993 23.0059 14.75 23.0059C12.7007 23.0059 11 21.3458 11 19.2764V13H2C1.44772 13 1 12.5523 1 12C1 5.92487 5.92487 1 12 1ZM12 3C7.36751 3 3.55417 6.50014 3.05664 11H20.9434C20.4458 6.50014 16.6325 3 12 3Z" fill="#9E9E9E"/>
</g>
</svg>
