<svg width="24" height="24" viewBox="0 0 24 24" fill="none" xmlns="http://www.w3.org/2000/svg">
<g id="icons/Safe/umbrella-two">
<path id="Union" d="M11.9995 1C15.9842 1 18.6875 2.85385 20.4028 5.15234C22.0892 7.41239 22.826 10.0977 22.9956 11.9062C23.0219 12.1864 22.9282 12.4648 22.7388 12.6729C22.5493 12.8808 22.2809 13 21.9995 13H14.4995V18.5625C14.4995 19.067 14.4547 20.0679 14.1206 20.9775C13.9515 21.4379 13.6848 21.9391 13.2534 22.333C12.8003 22.7466 12.2089 23 11.4995 23C10.0988 22.9998 9.32047 22.0616 8.94678 21.2441C8.58392 20.4503 8.49951 19.5942 8.49951 19.1875C8.49951 18.6354 8.94743 18.1877 9.49951 18.1875C10.0518 18.1875 10.4995 18.6352 10.4995 19.1875C10.4995 19.4057 10.5577 19.9561 10.7661 20.4121C10.9637 20.8444 11.1865 20.9999 11.4995 21C11.6991 21 11.8125 20.9405 11.9048 20.8564C12.0188 20.7523 12.1392 20.5697 12.2427 20.2881C12.4538 19.7134 12.4995 18.9955 12.4995 18.5625V13H1.99951C1.71822 12.9999 1.44966 12.8808 1.26025 12.6729C1.07101 12.4648 0.977177 12.1863 1.00342 11.9062C1.17303 10.0977 1.90989 7.41236 3.59619 5.15234C5.31145 2.85384 8.01491 1.00014 11.9995 1ZM11.9995 3C8.73484 3.00013 6.5937 4.47986 5.19971 6.34766C4.08633 7.83969 3.45375 9.5824 3.1626 11H20.8364C20.5452 9.58235 19.9128 7.83971 18.7993 6.34766C17.4053 4.47988 15.2643 3 11.9995 3ZM13.7407 4.84961C14.1001 4.43037 14.7306 4.38202 15.1499 4.74121C15.5692 5.10063 15.6177 5.73106 15.2583 6.15039L12.2583 9.65039C12.077 9.86175 11.8158 9.98834 11.5376 9.99902C11.2595 10.0095 10.9893 9.90382 10.7925 9.70703L8.79248 7.70703C8.40225 7.31656 8.40225 6.68344 8.79248 6.29297C9.18293 5.90252 9.816 5.90266 10.2065 6.29297L11.4429 7.5293L13.7407 4.84961Z" fill="#9E9E9E"/>
</g>
</svg>
