<svg width="24" height="24" viewBox="0 0 24 24" fill="none" xmlns="http://www.w3.org/2000/svg">
<g id="icons/Base/aiming">
<path id="Union" d="M12 1C18.0751 1 23 5.92487 23 12C23 18.0751 18.0751 23 12 23C5.92487 23 1 18.0751 1 12C1 5.92487 5.92487 1 12 1ZM13 5.5C13 6.05228 12.5523 6.5 12 6.5C11.4477 6.5 11 6.05228 11 5.5V3.05664C6.82853 3.51786 3.51786 6.82853 3.05664 11H5.5C6.05228 11 6.5 11.4477 6.5 12C6.5 12.5523 6.05228 13 5.5 13H3.05664C3.51786 17.1714 6.82858 20.4811 11 20.9424V18.5C11 17.9477 11.4477 17.5 12 17.5C12.5523 17.5 13 17.9477 13 18.5V20.9424C17.1714 20.4811 20.4821 17.1714 20.9434 13H18C17.4477 13 17 12.5523 17 12C17 11.4477 17.4477 11 18 11H20.9434C20.4821 6.82853 17.1715 3.51786 13 3.05664V5.5Z" fill="#9E9E9E"/>
</g>
</svg>
