<svg width="24" height="24" viewBox="0 0 24 24" fill="none" xmlns="http://www.w3.org/2000/svg">
<g id="icons/Base/bill">
<path id="Union" d="M18 1C19.1046 1 20 1.89544 20 3V22C20 22.3745 19.791 22.7182 19.458 22.8896C19.1249 23.0611 18.7238 23.0312 18.4189 22.8135L15.5 20.7285L12.5811 22.8135C12.2334 23.0618 11.7666 23.0618 11.4189 22.8135L8.5 20.7285L5.58105 22.8135C5.27624 23.0312 4.87506 23.0611 4.54199 22.8896C4.209 22.7182 4 22.3745 4 22V3C4 1.89544 4.89541 1 6 1H18ZM6 20.0566L7.91895 18.6865L8.05469 18.6045C8.38169 18.4418 8.77696 18.4693 9.08105 18.6865L12 20.7715L14.9189 18.6865L15.0547 18.6045C15.3817 18.4418 15.777 18.4693 16.0811 18.6865L18 20.0566V3H6V20.0566ZM15 14C15.5523 14 16 14.4477 16 15C16 15.5523 15.5523 16 15 16H9C8.44772 16 8 15.5523 8 15C8 14.4477 8.44772 14 9 14H15ZM15 10C15.5523 10 16 10.4477 16 11C16 11.5523 15.5523 12 15 12H9C8.44772 12 8 11.5523 8 11C8 10.4477 8.44772 10 9 10H15ZM15 6C15.5523 6 16 6.44772 16 7C16 7.55228 15.5523 8 15 8H9C8.44772 8 8 7.55228 8 7C8 6.44772 8.44772 6 9 6H15Z" fill="#9E9E9E"/>
</g>
</svg>
