<svg width="24" height="24" viewBox="0 0 24 24" fill="none" xmlns="http://www.w3.org/2000/svg">
<g id="icons/Base/bookmark-one">
<path id="Union" d="M17 1C17.5523 1 18 1.44772 18 2V4H20C20.5523 4 21 4.44772 21 5V22C21 22.3441 20.8227 22.6637 20.5312 22.8467C20.2399 23.0295 19.8752 23.0499 19.5654 22.9004L13.5 19.9736L7.43457 22.9004C7.12476 23.0499 6.76012 23.0295 6.46875 22.8467C6.17735 22.6637 6 22.3441 6 22V19.1182L4.44727 19.8945C4.13735 20.0495 3.76939 20.0327 3.47461 19.8506C3.17979 19.6684 3 19.3466 3 19V2C3 1.44772 3.44772 1 4 1H17ZM8 20.4072L13.0654 17.9629L13.1699 17.9199C13.419 17.8328 13.6942 17.8469 13.9346 17.9629L19 20.4072V6H8V20.4072ZM5 17.3818L6 16.8818V5C6 4.44772 6.44772 4 7 4H16V3H5V17.3818Z" fill="#9E9E9E"/>
</g>
</svg>
