<svg width="24" height="24" viewBox="0 0 24 24" fill="none" xmlns="http://www.w3.org/2000/svg">
<g id="icons/Base/bookmark">
<path id="Union" d="M19 1C19.0359 1 19.0715 1.00119 19.1064 1.00488C20.1615 1.06027 21 1.93118 21 3V21C21 22.1046 20.1046 23 19 23H5C3.89544 23 3 22.1046 3 21V3C3 1.9315 3.83801 1.06075 4.89258 1.00488C4.92784 1.00112 4.96374 1 5 1H19ZM5 21H19V3H17.5V11C17.5 11.4085 17.2512 11.7756 16.8721 11.9277C16.493 12.0798 16.0597 11.9865 15.7773 11.6914L13.5 9.30957L11.2227 11.6914C10.9403 11.9865 10.507 12.0798 10.1279 11.9277C9.7488 11.7756 9.5 11.4085 9.5 11V3H5V21ZM11.5 8.50781L12.7773 7.17285L12.8516 7.10254C13.0316 6.94912 13.2612 6.86328 13.5 6.86328C13.7729 6.86328 14.034 6.97563 14.2227 7.17285L15.5 8.50781V3H11.5V8.50781Z" fill="#9E9E9E"/>
</g>
</svg>
