<svg width="24" height="24" viewBox="0 0 24 24" fill="none" xmlns="http://www.w3.org/2000/svg">
<g id="icons/Base/camera">
<path id="Union" d="M15.1406 2.00977C15.4628 2.05546 15.7464 2.25641 15.8945 2.55273L17.1182 5H20.5C21.8807 5 23 6.11929 23 7.5V19.5C23 20.8807 21.8807 22 20.5 22H3.5C2.11929 22 1 20.8807 1 19.5V7.5C1 6.11929 2.11929 5 3.5 5H6.88184L8.10547 2.55273L8.17676 2.43164C8.36169 2.16367 8.66854 2 9 2H15L15.1406 2.00977ZM3.5 7C3.22386 7 3 7.22386 3 7.5V19.5C3 19.7761 3.22386 20 3.5 20H20.5C20.7761 20 21 19.7761 21 19.5V7.5C21 7.22386 20.7761 7 20.5 7H3.5ZM12 8.5C14.7614 8.5 17 10.7386 17 13.5C17 16.2614 14.7614 18.5 12 18.5C9.23857 18.5 7 16.2614 7 13.5C7 10.7386 9.23857 8.5 12 8.5ZM12 10.5C10.3431 10.5 9 11.8431 9 13.5C9 15.1569 10.3431 16.5 12 16.5C13.6569 16.5 15 15.1569 15 13.5C15 11.8431 13.6569 10.5 12 10.5ZM9.11816 5H14.8818L14.3818 4H9.61816L9.11816 5Z" fill="#9E9E9E"/>
</g>
</svg>
