<svg width="24" height="24" viewBox="0 0 24 24" fill="none" xmlns="http://www.w3.org/2000/svg">
<g id="icons/Base/config">
<path id="Union" d="M11.3693 1.22461C11.762 0.904259 12.341 0.926853 12.7072 1.29297L15.4142 4H19.0001L19.1027 4.00488C19.6067 4.05626 20.0001 4.48236 20.0001 5V8.58594L22.7072 11.293C23.0975 11.6835 23.0976 12.3166 22.7072 12.707L20.0001 15.4141V19C20 19.5522 19.5523 20 19.0001 20H15.4142L12.7072 22.707C12.3167 23.0974 11.6836 23.0974 11.2931 22.707L8.58606 20H5.00012C4.44792 20 4.00025 19.5522 4.00012 19V15.4141L1.29309 12.707C0.902593 12.3165 0.902646 11.6835 1.29309 11.293L4.00012 8.58594V5L4.005 4.89746C4.05634 4.39333 4.48245 4 5.00012 4H8.58606L11.2931 1.29297L11.3693 1.22461ZM9.70715 5.70703C9.51964 5.8945 9.26527 5.99998 9.00012 6H6.00012V9C6.00006 9.26513 5.89463 9.51955 5.70715 9.70703L3.41418 12L5.70715 14.293C5.89459 14.4805 6.00012 14.7349 6.00012 15V18H9.00012C9.26531 18 9.51964 18.1054 9.70715 18.293L12.0001 20.5859L14.2931 18.293L14.3663 18.2266C14.5443 18.0807 14.768 18 15.0001 18H18.0001V15C18.0001 14.7348 18.1056 14.4805 18.2931 14.293L20.5861 12L18.2931 9.70703C18.1056 9.51955 18.0002 9.26513 18.0001 9V6H15.0001C14.735 6 14.4806 5.89447 14.2931 5.70703L12.0001 3.41406L9.70715 5.70703ZM12.0001 8C14.2092 8.00004 16.0001 9.79089 16.0001 12C16 14.209 14.2091 16 12.0001 16C9.79107 16 8.00025 14.209 8.00012 12C8.00012 9.79086 9.79099 8 12.0001 8ZM12.0001 10C10.8956 10 10.0001 10.8954 10.0001 12C10.0002 13.1045 10.8956 14 12.0001 14C13.1046 14 14 13.1044 14.0001 12C14.0001 10.8955 13.1047 10 12.0001 10Z" fill="#9E9E9E"/>
</g>
</svg>
