<svg width="24" height="24" viewBox="0 0 24 24" fill="none" xmlns="http://www.w3.org/2000/svg">
<g id="icons/Base/delete-two">
<path id="Union" d="M22 4.5C22.5523 4.5 23 4.94772 23 5.5V18.5C23 19.0523 22.5523 19.5 22 19.5H7C6.68955 19.5 6.39632 19.3554 6.20703 19.1094L1.20703 12.6094C0.930944 12.2501 0.930944 11.7499 1.20703 11.3906L6.20703 4.89062C6.39632 4.64455 6.68955 4.50002 7 4.5H22ZM3.26172 12L7.49219 17.5H21V6.5H7.49219L3.26172 12ZM14.793 8.79297C15.1835 8.40245 15.8165 8.40247 16.207 8.79297C16.5976 9.18349 16.5976 9.81651 16.207 10.207L14.4141 12L16.207 13.793C16.5976 14.1835 16.5976 14.8165 16.207 15.207C15.8165 15.5975 15.1835 15.5975 14.793 15.207L13 13.4141L11.207 15.207C10.8165 15.5975 10.1835 15.5975 9.79297 15.207C9.40248 14.8165 9.40248 14.1835 9.79297 13.793L11.5859 12L9.79297 10.207C9.40248 9.81651 9.40248 9.18349 9.79297 8.79297C10.1835 8.40245 10.8165 8.40247 11.207 8.79297L13 10.5859L14.793 8.79297Z" fill="#9E9E9E"/>
</g>
</svg>
