<svg width="24" height="24" viewBox="0 0 24 24" fill="none" xmlns="http://www.w3.org/2000/svg">
<g id="icons/Base/dislike">
<path id="Union" d="M16.5 3C20.0898 3 23 5.91017 23 9.5C23 12.6342 21.1641 15.5 19.0195 17.6445C16.8691 19.795 14.2266 21.4041 12.2744 21.9619C12.0951 22.0131 11.9049 22.0131 11.7256 21.9619C9.77335 21.4041 7.13093 19.795 4.98047 17.6445C2.83592 15.5 1 12.6342 1 9.5C1 5.91017 3.91015 3 7.5 3C8.562 3 9.56743 3.25525 10.4551 3.70898C10.8449 3.90824 11.0597 4.33815 10.9854 4.76953L10.6055 6.9707L14.4854 9.12598C14.7715 9.28494 14.9622 9.57375 14.9951 9.89941C15.028 10.2251 14.8989 10.5458 14.6504 10.7588L11.791 13.209L12.8574 14.9854C13.1415 15.4589 12.9881 16.0732 12.5146 16.3574C12.0411 16.6415 11.4268 16.4881 11.1426 16.0146L9.64258 13.5146C9.39167 13.0965 9.47933 12.5586 9.84961 12.2412L12.2578 10.1758L9.01465 8.37402C8.64309 8.1676 8.44244 7.74895 8.51465 7.33008L8.87891 5.21582C8.44499 5.0763 7.98205 5 7.5 5C5.01472 5 3 7.01473 3 9.5C3 11.8658 4.41408 14.25 6.39453 16.2305C8.25536 18.0913 10.4572 19.4325 12 19.9512C13.5428 19.4325 15.7446 18.0913 17.6055 16.2305C19.5859 14.25 21 11.8658 21 9.5C21 7.01473 18.9853 5 16.5 5C15.7617 5 15.0675 5.17717 14.4551 5.49023C13.9633 5.74152 13.3607 5.5464 13.1094 5.05469C12.8582 4.56298 13.0533 3.96033 13.5449 3.70898C14.4326 3.25525 15.438 3 16.5 3Z" fill="#9E9E9E"/>
</g>
</svg>
