<svg width="24" height="24" viewBox="0 0 24 24" fill="none" xmlns="http://www.w3.org/2000/svg">
<g id="icons/Base/dislike-two">
<path id="Union" d="M16.5 3C20.0898 3 23 5.91017 23 9.5C23 12.6339 21.1642 15.4991 19.0234 17.6611C16.8727 19.8331 14.2422 21.472 12.3154 22.1123C12.1107 22.1803 11.8893 22.1803 11.6846 22.1123C9.75781 21.472 7.12725 19.8331 4.97656 17.6611C2.83576 15.4991 1 12.6339 1 9.5C1 5.91017 3.91015 3 7.5 3C9.24772 3 10.8327 3.69184 12 4.8125C13.1673 3.69184 14.7523 3 16.5 3ZM16.5 5C14.9789 5 13.6335 5.75421 12.8174 6.91309C12.6301 7.17884 12.3252 7.33691 12 7.33691C11.6748 7.33691 11.3699 7.17884 11.1826 6.91309C10.3665 5.75421 9.02112 5 7.5 5C5.01472 5 3 7.01473 3 9.5C3 11.8659 4.4144 14.2503 6.39844 16.2539C8.24482 18.1185 10.4368 19.5016 12 20.1006C13.5632 19.5016 15.7552 18.1185 17.6016 16.2539C19.5856 14.2503 21 11.8659 21 9.5C21 7.01473 18.9853 5 16.5 5ZM13.293 9.29297C13.6835 8.90244 14.3165 8.90244 14.707 9.29297C15.0976 9.68349 15.0976 10.3165 14.707 10.707L13.4141 12L14.707 13.293C15.0975 13.6835 15.0975 14.3165 14.707 14.707C14.3165 15.0975 13.6835 15.0975 13.293 14.707L12 13.4141L10.707 14.707C10.3165 15.0976 9.68349 15.0976 9.29297 14.707C8.90244 14.3165 8.90244 13.6835 9.29297 13.293L10.5859 12L9.29297 10.707C8.90245 10.3165 8.90245 9.68349 9.29297 9.29297C9.68349 8.90245 10.3165 8.90245 10.707 9.29297L12 10.5859L13.293 9.29297Z" fill="#9E9E9E"/>
</g>
</svg>
