<svg width="24" height="24" viewBox="0 0 24 24" fill="none" xmlns="http://www.w3.org/2000/svg">
<g id="icons/Base/equalizer">
<path id="Union" d="M5.5 2C7.43298 2 9 3.567 9 5.5C9 7.08534 7.94552 8.4231 6.5 8.85352V21C6.5 21.5523 6.05228 22 5.5 22C4.94772 22 4.5 21.5523 4.5 21V8.85352C3.05447 8.4231 2 7.08534 2 5.5C2 3.56701 3.56701 2 5.5 2ZM12 2C12.5523 2 13 2.44772 13 3V8.64551C14.4457 9.07584 15.5 10.4146 15.5 12C15.5 13.5853 14.4455 14.9231 13 15.3535V21C13 21.5523 12.5523 22 12 22C11.4477 22 11 21.5523 11 21V15.3535C9.55448 14.9231 8.5 13.5853 8.5 12C8.5 10.4146 9.55434 9.07584 11 8.64551V3C11 2.44772 11.4477 2 12 2ZM18.5 2C19.0523 2 19.5 2.44772 19.5 3V15.1455C20.9457 15.5758 22 16.9146 22 18.5C22 20.433 20.433 22 18.5 22C16.567 22 15 20.433 15 18.5C15 16.9146 16.0543 15.5758 17.5 15.1455V3C17.5 2.44772 17.9477 2 18.5 2ZM18.5 17C17.6716 17 17 17.6716 17 18.5C17 19.3284 17.6716 20 18.5 20C19.3284 20 20 19.3284 20 18.5C20 17.6716 19.3284 17 18.5 17ZM12 10.5C11.1716 10.5 10.5 11.1716 10.5 12C10.5 12.8284 11.1716 13.5 12 13.5C12.8284 13.5 13.5 12.8284 13.5 12C13.5 11.1716 12.8284 10.5 12 10.5ZM5.5 4C4.67157 4 4 4.67157 4 5.5C4 6.32842 4.67158 7 5.5 7C6.32842 7 7 6.32842 7 5.5C7 4.67158 6.32842 4 5.5 4Z" fill="#9E9E9E"/>
</g>
</svg>
