<svg width="24" height="24" viewBox="0 0 24 24" fill="none" xmlns="http://www.w3.org/2000/svg">
<g id="icons/Base/female">
<path id="Union" d="M8.58228 4.21777C11.7064 1.0938 16.7726 1.09378 19.8967 4.21777C23.0208 7.34193 23.0207 12.408 19.8967 15.5322C16.9922 18.4368 12.4103 18.6397 9.26978 16.1436L7.81763 17.5957L10.2932 20.0713C10.6832 20.4618 10.6835 21.095 10.2932 21.4854C9.90285 21.8757 9.26971 21.8754 8.87915 21.4854L6.40356 19.0098L3.57544 21.8389C3.18503 22.2291 2.55188 22.229 2.16138 21.8389C1.7709 21.4484 1.77101 20.8153 2.16138 20.4248L4.9895 17.5957L2.51489 15.1211C2.12437 14.7306 2.12437 14.0976 2.51489 13.707C2.90542 13.3166 3.53845 13.3165 3.92896 13.707L6.40356 16.1816L7.87036 14.7148C6.78422 13.2886 6.2395 11.581 6.2395 9.875C6.23958 7.82928 7.02043 5.7796 8.58228 4.21777ZM18.4817 5.63281C16.1386 3.28987 12.3404 3.28989 9.99731 5.63281C8.82561 6.8045 8.23958 8.33802 8.2395 9.875C8.2395 11.412 8.82563 12.9454 9.99731 14.1172C12.3404 16.4603 16.1386 16.4603 18.4817 14.1172C20.8246 11.7741 20.8248 7.97593 18.4817 5.63281Z" fill="#9E9E9E"/>
</g>
</svg>
