<svg width="24" height="24" viewBox="0 0 24 24" fill="none" xmlns="http://www.w3.org/2000/svg">
<g id="icons/Base/hamburger-button">
<path id="Union" d="M19.9746 16.9746C20.5269 16.9746 20.9746 17.4223 20.9746 17.9746C20.9746 18.5269 20.5269 18.9746 19.9746 18.9746H3.97461C3.42232 18.9746 2.97461 18.5269 2.97461 17.9746C2.97461 17.4223 3.42232 16.9746 3.97461 16.9746H19.9746ZM19.9746 10.9746C20.5269 10.9746 20.9746 11.4223 20.9746 11.9746C20.9746 12.5269 20.5269 12.9746 19.9746 12.9746H3.97461C3.42232 12.9746 2.97461 12.5269 2.97461 11.9746C2.97461 11.4223 3.42232 10.9746 3.97461 10.9746H19.9746ZM19.9746 4.97461C20.5269 4.97461 20.9746 5.42233 20.9746 5.97461C20.9746 6.52689 20.5269 6.97461 19.9746 6.97461H3.97461C3.42232 6.97461 2.97461 6.52689 2.97461 5.97461C2.97461 5.42232 3.42232 4.97461 3.97461 4.97461H19.9746Z" fill="#9E9E9E"/>
</g>
</svg>
