<svg width="24" height="24" viewBox="0 0 24 24" fill="none" xmlns="http://www.w3.org/2000/svg">
<g id="icons/Base/home">
<path id="Union" d="M11.5186 2.12256C11.8675 1.93084 12.3054 1.96272 12.625 2.21826L20.125 8.21826C20.3621 8.40797 20.4999 8.69585 20.5 8.99951V20.9995C20.5 21.5518 20.0523 21.9995 19.5 21.9995H4.5C3.94772 21.9995 3.5 21.5518 3.5 20.9995V8.99951C3.5001 8.69585 3.63787 8.40797 3.875 8.21826L11.375 2.21826L11.5186 2.12256ZM5.5 9.47998V19.9995H8.5V14.4995C8.50018 13.9474 8.94783 13.4995 9.5 13.4995H14.5C15.0522 13.4995 15.4998 13.9474 15.5 14.4995V19.9995H18.5V9.47998L12 4.28076L5.5 9.47998ZM10.5 19.9995H13.5V15.4995H10.5V19.9995Z" fill="#9E9E9E"/>
</g>
</svg>
