<svg width="24" height="24" viewBox="0 0 24 24" fill="none" xmlns="http://www.w3.org/2000/svg">
<g id="icons/Base/hourglass-full">
<path id="Union" d="M20.5 1C21.0523 1 21.5 1.44772 21.5 2C21.5 2.55228 21.0523 3 20.5 3H19.3115C18.6554 6.00032 17.8029 8.37127 16.7139 10.0469C16.1933 10.8478 15.6028 11.5083 14.9434 12.001C15.603 12.4941 16.1931 13.1558 16.7139 13.957C17.8028 15.6324 18.6544 18.0021 19.3105 21H20.5C21.0523 21 21.5 21.4477 21.5 22C21.5 22.5523 21.0523 23 20.5 23H3.5C2.94772 23 2.5 22.5523 2.5 22C2.5 21.4477 2.94772 21 3.5 21H4.68848C5.34459 17.9997 6.19709 15.6287 7.28613 13.9531C7.80667 13.1523 8.3963 12.4907 9.05566 11.998C8.39649 11.505 7.80665 10.8438 7.28613 10.043C6.19718 8.3676 5.34558 5.99785 4.68945 3H3.5C2.94772 3 2.5 2.55228 2.5 2C2.5 1.44772 2.94772 1 3.5 1H20.5ZM11.999 13C10.9448 12.999 9.92955 13.5574 8.96387 15.043C8.10542 16.3637 7.35207 18.3306 6.7373 21H17.2627C16.648 18.3333 15.8945 16.3675 15.0361 15.0469C14.0703 13.5611 13.0542 13.001 11.999 13ZM14.5 18C15.0523 18 15.5 18.4477 15.5 19C15.5 19.5523 15.0523 20 14.5 20H9.5C8.94772 20 8.5 19.5523 8.5 19C8.5 18.4477 8.94772 18 9.5 18H14.5ZM6.7373 3C7.352 5.66671 8.10547 7.63251 8.96387 8.95312C9.9297 10.4389 10.9458 10.999 12.001 11C13.0552 11.001 14.0705 10.4426 15.0361 8.95703C15.8946 7.63634 16.6479 5.66945 17.2627 3H6.7373ZM13.5 6.5C14.0523 6.5 14.5 6.94772 14.5 7.5C14.5 8.05228 14.0523 8.5 13.5 8.5H10.5C9.94772 8.5 9.5 8.05228 9.5 7.5C9.5 6.94772 9.94772 6.5 10.5 6.5H13.5Z" fill="#9E9E9E"/>
</g>
</svg>
