<svg width="24" height="24" viewBox="0 0 24 24" fill="none" xmlns="http://www.w3.org/2000/svg">
<g id="icons/Base/lightning">
<path id="Union" d="M18.5001 1C18.8828 1.00005 19.2322 1.21839 19.3995 1.5625C19.5668 1.90678 19.5227 2.31716 19.2863 2.61816L15.0577 8H20.5001C20.8972 8.00005 21.2568 8.23497 21.4161 8.59863C21.5754 8.96245 21.5038 9.38686 21.2345 9.67871L9.2345 22.6787C8.92305 23.0157 8.42213 23.0974 8.01965 22.877C7.61696 22.6562 7.41646 22.1892 7.53333 21.7451L9.70325 13.5H4.00012C3.65021 13.5 3.32582 13.3169 3.14465 13.0176C2.96353 12.7182 2.95205 12.3461 3.11438 12.0361L8.61438 1.53613L8.68665 1.41797C8.8727 1.15788 9.17477 1 9.50012 1H18.5001ZM5.65247 11.5H11.0001C11.3102 11.5 11.6028 11.6441 11.7921 11.8896C11.9813 12.1352 12.0458 12.4551 11.9669 12.7549L10.4884 18.3711L18.2159 10H13.0001C12.6174 10 12.2681 9.78162 12.1007 9.4375C11.9334 9.09319 11.9775 8.68286 12.214 8.38184L16.4425 3H10.1046L5.65247 11.5Z" fill="#9E9E9E"/>
</g>
</svg>
