<svg width="24" height="24" viewBox="0 0 24 24" fill="none" xmlns="http://www.w3.org/2000/svg">
<g id="icons/Base/loading">
<path id="Union" d="M12 1C18.0751 1 23 5.92487 23 12C23 18.0751 18.0751 23 12 23C5.92487 23 1 18.0751 1 12C1 11.4477 1.44772 11 2 11C2.55228 11 3 11.4477 3 12C3 16.9706 7.02943 21 12 21C16.9706 21 21 16.9706 21 12C21 7.02943 16.9706 3 12 3C11.4477 3 11 2.55228 11 2C11 1.44772 11.4477 1 12 1ZM12 5C15.866 5 19 8.13402 19 12C19 12.5523 18.5523 13 18 13C17.4477 13 17 12.5523 17 12C17 9.23858 14.7614 7 12 7C9.23858 7 7 9.23858 7 12C7 14.7614 9.23858 17 12 17C12.5523 17 13 17.4477 13 18C13 18.5523 12.5523 19 12 19C8.13402 19 5 15.866 5 12C5 8.13402 8.13402 5 12 5Z" fill="#9E9E9E"/>
</g>
</svg>
