<svg width="24" height="24" viewBox="0 0 24 24" fill="none" xmlns="http://www.w3.org/2000/svg">
<g id="icons/Base/male">
<path id="Union" d="M20.9753 2.02441C21.5276 2.02441 21.9753 2.47213 21.9753 3.02441V7.52441C21.9753 8.07669 21.5276 8.52441 20.9753 8.52441C20.4232 8.52428 19.9754 8.07661 19.9753 7.52441V5.43848L16.3845 9.02832C17.5657 10.4899 18.157 12.2717 18.157 14.0508C18.157 16.0965 17.376 18.1462 15.8142 19.708C12.6901 22.8321 7.62395 22.832 4.49976 19.708C1.37555 16.5838 1.37557 11.5178 4.49976 8.39355C7.3484 5.54515 11.8098 5.29552 14.9431 7.6416L18.5613 4.02441H16.4753C15.9232 4.02428 15.4753 3.57662 15.4753 3.02441C15.4753 2.47221 15.9232 2.02455 16.4753 2.02441H20.9753ZM14.3992 9.80859C12.0561 7.46554 8.25794 7.46571 5.91479 9.80859C3.57165 12.1518 3.57166 15.9499 5.91479 18.293C8.25793 20.6359 12.0561 20.6361 14.3992 18.293C15.5708 17.1213 16.157 15.5878 16.157 14.0508C16.157 12.5138 15.5708 10.9803 14.3992 9.80859Z" fill="#9E9E9E"/>
</g>
</svg>
