<svg width="24" height="24" viewBox="0 0 24 24" fill="none" xmlns="http://www.w3.org/2000/svg">
<g id="icons/Base/more-two">
<path id="Union" d="M12 1C18.0751 1 23 5.92487 23 12C23 18.0751 18.0751 23 12 23C5.92487 23 1 18.0751 1 12C1 5.92487 5.92487 1 12 1ZM12 3C7.02943 3 3 7.02943 3 12C3 16.9706 7.02943 21 12 21C16.9706 21 21 16.9706 21 12C21 7.02943 16.9706 3 12 3ZM7 10.5C7.82843 10.5 8.5 11.1716 8.5 12C8.5 12.8284 7.82843 13.5 7 13.5C6.17157 13.5 5.5 12.8284 5.5 12C5.5 11.1716 6.17157 10.5 7 10.5ZM12 10.5C12.8284 10.5 13.5 11.1716 13.5 12C13.5 12.8284 12.8284 13.5 12 13.5C11.1716 13.5 10.5 12.8284 10.5 12C10.5 11.1716 11.1716 10.5 12 10.5ZM17 10.5C17.8284 10.5 18.5 11.1716 18.5 12C18.5 12.8284 17.8284 13.5 17 13.5C16.1716 13.5 15.5 12.8284 15.5 12C15.5 11.1716 16.1716 10.5 17 10.5Z" fill="#9E9E9E"/>
</g>
</svg>
