<svg width="24" height="24" viewBox="0 0 24 24" fill="none" xmlns="http://www.w3.org/2000/svg">
<g id="icons/Base/more-one">
<path id="Union" d="M12 16C12.8284 16 13.5 16.6716 13.5 17.5C13.5 18.3284 12.8284 19 12 19C11.1716 19 10.5 18.3284 10.5 17.5C10.5 16.6716 11.1716 16 12 16ZM12 10.5C12.8284 10.5 13.5 11.1716 13.5 12C13.5 12.8284 12.8284 13.5 12 13.5C11.1716 13.5 10.5 12.8284 10.5 12C10.5 11.1716 11.1716 10.5 12 10.5ZM12 4.5C12.8284 4.5 13.5 5.17157 13.5 6C13.5 6.82843 12.8284 7.5 12 7.5C11.1716 7.5 10.5 6.82843 10.5 6C10.5 5.17157 11.1716 4.5 12 4.5Z" fill="#9E9E9E"/>
</g>
</svg>
