<svg width="24" height="24" viewBox="0 0 24 24" fill="none" xmlns="http://www.w3.org/2000/svg">
<g id="icons/Base/pic">
<path id="Union" d="M20.5 3C21.6046 3 22.5 3.89544 22.5 5V19C22.5 20.1046 21.6046 21 20.5 21H3.5C2.39544 21 1.5 20.1046 1.5 19V5C1.5 3.89543 2.39543 3 3.5 3H20.5ZM10.7588 14.6504C10.4079 15.0597 9.79596 15.118 9.375 14.7812L7.57324 13.3398L3.5 17.4141V19H20.5V17.4932L13.1426 11.8682L10.7588 14.6504ZM3.5 14.5859L6.79297 11.293L6.86328 11.2295C7.22464 10.9304 7.75201 10.9204 8.125 11.2188L9.87012 12.6152L12.2412 9.84961L12.3086 9.77734C12.6606 9.43988 13.2124 9.40395 13.6074 9.70605L20.5 14.9766V5H3.5V14.5859ZM7.25 6.5C8.21648 6.5 9 7.28352 9 8.25C9 9.21648 8.21648 10 7.25 10C6.28352 10 5.5 9.21648 5.5 8.25C5.5 7.28352 6.28352 6.5 7.25 6.5ZM7.25 8C7.11192 8 7 8.11192 7 8.25C7 8.38808 7.11192 8.5 7.25 8.5C7.38808 8.5 7.5 8.38808 7.5 8.25C7.5 8.11192 7.38808 8 7.25 8Z" fill="#9E9E9E"/>
</g>
</svg>
