<svg width="24" height="24" viewBox="0 0 24 24" fill="none" xmlns="http://www.w3.org/2000/svg">
<g id="icons/Base/power">
<path id="Union" d="M15.8818 3.50391C16.1558 3.02451 16.7666 2.85803 17.2461 3.13184C17.6103 3.33981 17.961 3.56909 18.2959 3.81738C18.8689 4.24228 19.3963 4.7241 19.8701 5.25391C21.5047 7.08202 22.5 9.48807 22.5 12.123C22.4998 17.8663 17.7866 22.5 12 22.5C6.21342 22.5 1.50016 17.8663 1.5 12.123C1.5 9.48808 2.49525 7.08202 4.12988 5.25391C4.60366 4.7241 5.13106 4.24228 5.7041 3.81738C6.03896 3.56909 6.38971 3.33981 6.75391 3.13184C7.23342 2.85803 7.84423 3.02451 8.11816 3.50391C8.39197 3.98342 8.22549 4.59423 7.74609 4.86816C7.45099 5.03667 7.16676 5.2227 6.89551 5.42383C6.43128 5.76802 6.00358 6.1581 5.62012 6.58691C4.29871 8.06486 3.5 10.0018 3.5 12.123C3.50016 16.7373 7.29339 20.5 12 20.5C16.7066 20.5 20.4998 16.7373 20.5 12.123C20.5 10.0018 19.7013 8.06486 18.3799 6.58691C17.9964 6.1581 17.5687 5.76802 17.1045 5.42383C16.8332 5.2227 16.549 5.03667 16.2539 4.86816C15.7745 4.59423 15.608 3.98342 15.8818 3.50391ZM12 1C12.5523 1 13 1.44772 13 2V12C13 12.5523 12.5523 13 12 13C11.4477 13 11 12.5523 11 12V2C11 1.44772 11.4477 1 12 1Z" fill="#9E9E9E"/>
</g>
</svg>
