<svg width="24" height="24" viewBox="0 0 24 24" fill="none" xmlns="http://www.w3.org/2000/svg">
<g id="icons/Base/preview-open">
<path id="Union" d="M12 5C15.1096 5 17.8349 6.67709 19.709 8.23047C20.6602 9.0189 21.4281 9.80456 21.958 10.3936C22.2235 10.6886 22.4306 10.9367 22.5732 11.1123C22.6445 11.2 22.7 11.2701 22.7383 11.3193C22.7573 11.3439 22.7726 11.3631 22.7832 11.377C22.7883 11.3836 22.7918 11.3895 22.7949 11.3936C22.7965 11.3956 22.7978 11.3981 22.7988 11.3994L22.8008 11.4004V11.4014L22 12L22.8008 12.5986V12.5996L22.7988 12.6006C22.7978 12.6019 22.7965 12.6044 22.7949 12.6064C22.7918 12.6105 22.7883 12.6164 22.7832 12.623C22.7726 12.6369 22.7573 12.6561 22.7383 12.6807C22.7 12.7299 22.6445 12.8 22.5732 12.8877C22.4306 13.0633 22.2235 13.3114 21.958 13.6064C21.4281 14.1954 20.6602 14.9811 19.709 15.7695C17.8349 17.3229 15.1096 19 12 19C8.89044 19 6.16505 17.3229 4.29102 15.7695C3.33983 14.9811 2.57185 14.1954 2.04199 13.6064C1.77653 13.3114 1.56937 13.0633 1.42676 12.8877C1.35553 12.8 1.29998 12.7299 1.26172 12.6807C1.24265 12.6561 1.22736 12.6369 1.2168 12.623C1.2117 12.6164 1.20816 12.6105 1.20508 12.6064C1.20352 12.6044 1.20218 12.6019 1.20117 12.6006L1.19922 12.5996V12.5986L2 12L1.19922 11.4014V11.4004L1.20117 11.3994C1.20218 11.3981 1.20352 11.3956 1.20508 11.3936C1.20816 11.3895 1.2117 11.3836 1.2168 11.377C1.22736 11.3631 1.24265 11.3439 1.26172 11.3193C1.29998 11.2701 1.35553 11.2 1.42676 11.1123C1.56937 10.9367 1.77653 10.6886 2.04199 10.3936C2.57185 9.80456 3.33983 9.0189 4.29102 8.23047C6.16505 6.67709 8.89044 5 12 5ZM12 7C9.58687 7 7.31259 8.32302 5.56738 9.76953C4.70894 10.4811 4.01148 11.1954 3.5293 11.7314C3.44342 11.8269 3.36549 11.9173 3.29395 12C3.36549 12.0827 3.44342 12.1731 3.5293 12.2686C4.01148 12.8046 4.70894 13.5189 5.56738 14.2305C7.31259 15.677 9.58687 17 12 17C14.4131 17 16.6874 15.677 18.4326 14.2305C19.2911 13.5189 19.9885 12.8046 20.4707 12.2686C20.5564 12.1733 20.6336 12.0826 20.7051 12C20.6336 11.9174 20.5564 11.8267 20.4707 11.7314C19.9885 11.1954 19.2911 10.4811 18.4326 9.76953C16.6874 8.32302 14.4131 7 12 7ZM12 8.5C13.933 8.5 15.5 10.067 15.5 12C15.5 13.933 13.933 15.5 12 15.5C10.067 15.5 8.5 13.933 8.5 12C8.5 10.067 10.067 8.5 12 8.5ZM12 10.5C11.1716 10.5 10.5 11.1716 10.5 12C10.5 12.8284 11.1716 13.5 12 13.5C12.8284 13.5 13.5 12.8284 13.5 12C13.5 11.1716 12.8284 10.5 12 10.5ZM2 12L1.19824 12.5977C0.933916 12.2431 0.933916 11.7569 1.19824 11.4023L2 12ZM22.8018 11.4023C23.0661 11.7569 23.0661 12.2431 22.8018 12.5977L22 12L22.8018 11.4023Z" fill="#9E9E9E"/>
</g>
</svg>
