<svg width="24" height="24" viewBox="0 0 24 24" fill="none" xmlns="http://www.w3.org/2000/svg">
<g id="icons/Base/preview-close-one">
<path id="Union" d="M2.29297 2.29297C2.68349 1.90244 3.31651 1.90244 3.70703 2.29297L21.707 20.293C22.0975 20.6835 22.0975 21.3165 21.707 21.707C21.3165 22.0975 20.6835 22.0975 20.293 21.707L13.6641 15.0781C13.169 15.3463 12.6021 15.5 12 15.5C10.0671 15.5 8.5001 13.9329 8.5 12C8.5 11.398 8.65381 10.8311 8.92188 10.3359L2.29297 3.70703C1.90246 3.31652 1.90248 2.6835 2.29297 2.29297ZM4.29102 8.23047C4.71622 7.87802 5.34677 7.9371 5.69922 8.3623C6.0511 8.78738 5.9921 9.41717 5.56738 9.76953C4.70896 10.4811 4.01148 11.1955 3.5293 11.7314C3.44344 11.8269 3.36548 11.9173 3.29395 12C3.36548 12.0827 3.44344 12.1731 3.5293 12.2686C4.01148 12.8045 4.70896 13.5189 5.56738 14.2305C7.31258 15.677 9.58689 17 12 17C12.5945 17 13.1816 16.9202 13.7568 16.7764C14.2924 16.6424 14.8355 16.9675 14.9697 17.5029C15.1037 18.0385 14.7786 18.5816 14.2432 18.7158C13.5262 18.8952 12.7752 19 12 19C8.89046 19 6.16505 17.3229 4.29102 15.7695C3.33985 14.9811 2.57185 14.1954 2.04199 13.6064C1.77656 13.3114 1.56937 13.0633 1.42676 12.8877C1.35555 12.8 1.29998 12.7299 1.26172 12.6807C1.24267 12.6561 1.22736 12.6369 1.2168 12.623C1.21172 12.6164 1.20815 12.6105 1.20508 12.6064C1.20353 12.6044 1.20218 12.6019 1.20117 12.6006L1.19922 12.5996V12.5986L2 12L1.19922 11.4014V11.4004L1.20117 11.3994C1.20218 11.3981 1.20353 11.3956 1.20508 11.3936C1.20815 11.3895 1.21172 11.3836 1.2168 11.377C1.22735 11.3631 1.24267 11.3439 1.26172 11.3193C1.29997 11.2701 1.35554 11.2 1.42676 11.1123C1.56936 10.9367 1.77655 10.6886 2.04199 10.3936C2.57185 9.80457 3.33985 9.01889 4.29102 8.23047ZM12 5C15.1096 5 17.8349 6.67709 19.709 8.23047C20.6602 9.01889 21.4282 9.80457 21.958 10.3936C22.2234 10.6886 22.4306 10.9367 22.5732 11.1123C22.6445 11.2 22.7 11.2701 22.7383 11.3193C22.7573 11.3439 22.7726 11.3631 22.7832 11.377C22.7883 11.3836 22.7919 11.3895 22.7949 11.3936C22.7965 11.3956 22.7978 11.3981 22.7988 11.3994L22.8008 11.4004V11.4014L22 12L22.8008 12.5986V12.5996L22.7988 12.6006C22.7978 12.6019 22.7965 12.6044 22.7949 12.6064C22.7919 12.6105 22.7883 12.6164 22.7832 12.623C22.7726 12.6369 22.7573 12.6561 22.7383 12.6807C22.7 12.7299 22.6444 12.8 22.5732 12.8877C22.4306 13.0633 22.2234 13.3114 21.958 13.6064C21.4281 14.1954 20.6601 14.9811 19.709 15.7695C19.2838 16.1219 18.6532 16.0628 18.3008 15.6377C17.9489 15.2126 18.0079 14.5829 18.4326 14.2305C19.291 13.5189 19.9885 12.8045 20.4707 12.2686C20.5564 12.1733 20.6337 12.0825 20.7051 12C20.6337 11.9174 20.5564 11.8267 20.4707 11.7314C19.9885 11.1955 19.291 10.4811 18.4326 9.76953C16.6874 8.32302 14.4131 7 12 7C11.4102 7 10.8278 7.07896 10.2568 7.2207C9.72091 7.35371 9.17808 7.02707 9.04492 6.49121C8.91186 5.9552 9.23939 5.41237 9.77539 5.2793C10.4869 5.10271 11.2313 5 12 5ZM10.5 12C10.5001 12.8283 11.1716 13.5 12 13.5C12.0272 13.5 12.0542 13.4965 12.0811 13.4951L10.5029 11.917C10.5014 11.9445 10.5 11.9722 10.5 12ZM2 12L1.19824 12.5977C0.933927 12.2431 0.933952 11.7569 1.19824 11.4023L2 12ZM22.8018 11.4023C23.066 11.7569 23.0661 12.2431 22.8018 12.5977L22 12L22.8018 11.4023Z" fill="#9E9E9E"/>
</g>
</svg>
