<svg width="24" height="24" viewBox="0 0 24 24" fill="none" xmlns="http://www.w3.org/2000/svg">
<g id="icons/Base/preview-close">
<path id="Union" d="M20.1135 7.53809C20.3686 7.04842 20.9724 6.85832 21.4622 7.11328C21.9517 7.36841 22.1419 7.97217 21.887 8.46191C21.496 9.21282 20.92 9.87986 20.2229 10.4512C20.1576 10.5047 20.0885 10.5543 20.0208 10.6064L22.2122 12.7979C22.6026 13.1884 22.6026 13.8214 22.2122 14.2119C21.8217 14.6024 21.1886 14.6023 20.7981 14.2119L18.262 11.6758C17.4751 12.0516 16.606 12.3552 15.678 12.5762L16.4895 15.6045C16.6324 16.1379 16.3158 16.6871 15.7825 16.8301C15.2491 16.9729 14.7008 16.6554 14.5579 16.1221L13.6975 12.9111C13.1431 12.9684 12.5761 13 12.0002 13C11.4201 13 10.8486 12.9683 10.2903 12.9102L9.42993 16.123C9.28682 16.6561 8.73854 16.9728 8.20532 16.8301C7.67185 16.6871 7.35535 16.138 7.49829 15.6045L8.30981 12.5732C7.38765 12.3528 6.52402 12.0503 5.74146 11.6768L3.20728 14.2119C2.81679 14.6024 2.18375 14.6023 1.79321 14.2119C1.40285 13.8214 1.40275 13.1883 1.79321 12.7979L3.98169 10.6084C3.9132 10.5557 3.84364 10.5053 3.77759 10.4512C3.08049 9.87985 2.50447 9.21279 2.11353 8.46191C1.85856 7.97211 2.04863 7.36837 2.53833 7.11328C3.02811 6.85839 3.63189 7.04843 3.88696 7.53809C4.13069 8.00625 4.51624 8.47079 5.04517 8.9043C6.54398 10.1326 9.06081 11 12.0002 11C14.9397 11 17.4566 10.1327 18.9553 8.9043C19.4843 8.47077 19.8698 8.00623 20.1135 7.53809Z" fill="#9E9E9E"/>
</g>
</svg>
