<svg width="24" height="24" viewBox="0 0 24 24" fill="none" xmlns="http://www.w3.org/2000/svg">
<g id="icons/Base/radar">
<path id="Union" d="M12 1C18.0751 1 23 5.92487 23 12C23 18.0751 18.0751 23 12 23C5.92487 23 1 18.0751 1 12C1 5.92487 5.92487 1 12 1ZM3.05762 13.0039C3.52049 17.1735 6.8299 20.4813 11 20.9424V17.915C8.48904 17.4936 6.50794 15.5143 6.08496 13.0039H3.05762ZM17.915 13.0039C17.4921 15.5143 15.511 17.4936 13 17.915V20.9424C17.1701 20.4813 20.4795 17.1735 20.9424 13.0039H17.915ZM8.12598 13.0039C8.48874 14.4078 9.59562 15.5126 11 15.874V13.0039H8.12598ZM13 13.0039V15.874C14.4043 15.5126 15.5102 14.4077 15.873 13.0039H13ZM11 8.12598C9.5934 8.48801 8.48598 9.59591 8.125 11.0029L9.00098 11.0039H11V8.12598ZM13 11.0039H15.875C15.5143 9.59645 14.4069 8.48809 13 8.12598V11.0039ZM13 6.08398C15.5136 6.50577 17.4958 8.48975 17.916 11.0039H20.9434C20.4838 6.83062 17.1728 3.518 13 3.05664V6.08398ZM11 3.05664C6.82853 3.51786 3.51786 6.82853 3.05664 11L6.08398 11.002C6.50488 8.4887 8.48701 6.50566 11 6.08398V3.05664Z" fill="#9E9E9E"/>
</g>
</svg>
