<svg width="24" height="24" viewBox="0 0 24 24" fill="none" xmlns="http://www.w3.org/2000/svg">
<g id="icons/Base/refresh">
<path id="Union" d="M3 11C3.55228 11 4 11.4477 4 12C4 16.4183 7.58173 20 12 20C14.1584 20 16.1157 19.1468 17.5557 17.7568C17.953 17.3733 18.5862 17.3839 18.9697 17.7812C19.3533 18.1786 19.3417 18.8118 18.9443 19.1953C17.1465 20.9307 14.6971 22 12 22C8.72853 22 5.82443 20.4287 4 18V20C4 20.5523 3.55228 21 3 21C2.44772 21 2 20.5523 2 20V12C2 11.4477 2.44772 11 3 11ZM12 2C15.2712 2 18.1755 3.57069 20 5.99902V4C20 3.44772 20.4477 3 21 3C21.5523 3 22 3.44772 22 4V12C22 12.5523 21.5523 13 21 13C20.4477 13 20 12.5523 20 12C20 7.58173 16.4183 4 12 4C9.73962 4 7.69927 4.93594 6.24316 6.44434C5.85958 6.84161 5.22643 6.85328 4.8291 6.46973C4.43185 6.08616 4.42119 5.45299 4.80469 5.05566C6.62208 3.17302 9.17488 2 12 2Z" fill="#9E9E9E"/>
</g>
</svg>
