<svg width="24" height="24" viewBox="0 0 24 24" fill="none" xmlns="http://www.w3.org/2000/svg">
<g id="icons/Base/rss">
<path id="Union" d="M19 1C20.1046 1 21 1.89544 21 3V22C21 22.349 20.8176 22.673 20.5195 22.8545C20.2216 23.0356 19.8508 23.0487 19.541 22.8887L12 18.9893L4.45898 22.8887C4.14922 23.0487 3.77837 23.0356 3.48047 22.8545C3.18237 22.673 3 22.349 3 22V3C3 1.89543 3.89543 1 5 1H19ZM5 20.3564L11.541 16.9756L11.6514 16.9268C11.9137 16.8291 12.207 16.8454 12.459 16.9756L19 20.3564V3H5V20.3564ZM11.9746 5.97461C12.5269 5.97461 12.9746 6.42232 12.9746 6.97461V8.97461H14.9746C15.5269 8.97461 15.9746 9.42232 15.9746 9.97461C15.9746 10.5269 15.5269 10.9746 14.9746 10.9746H12.9746V12.9746C12.9746 13.5269 12.5269 13.9746 11.9746 13.9746C11.4224 13.9745 10.9746 13.5268 10.9746 12.9746V10.9746H8.97461C8.42244 10.9745 7.97461 10.5268 7.97461 9.97461C7.97461 9.42241 8.42244 8.97474 8.97461 8.97461H10.9746V6.97461C10.9746 6.42241 11.4224 5.97474 11.9746 5.97461Z" fill="#9E9E9E"/>
</g>
</svg>
