<svg width="24" height="24" viewBox="0 0 24 24" fill="none" xmlns="http://www.w3.org/2000/svg">
<g id="icons/Base/save-one">
<path id="Union" d="M19.8906 2.01172C21.0754 2.13219 21.9998 3.13314 22 4.34961V19.6504C21.9998 20.948 20.948 21.9998 19.6504 22H4.34961C3.13314 21.9998 2.13219 21.0754 2.01172 19.8906L2 19.6504V4.34961C2.00021 3.05205 3.05205 2.00021 4.34961 2H19.6504L19.8906 2.01172ZM4.34961 4C4.15662 4.00021 4.00021 4.15662 4 4.34961V19.6504L4.00684 19.7207C4.03949 19.88 4.18068 19.9998 4.34961 20H19.6504C19.8434 19.9998 19.9998 19.8434 20 19.6504V4.34961C19.9998 4.18068 19.88 4.03949 19.7207 4.00684L19.6504 4H17V12C17 12.5523 16.5523 13 16 13H7.5C6.94772 13 6.5 12.5523 6.5 12V4H4.34961ZM8.5 11H15V4H8.5V11ZM13 5.5C13.5523 5.5 14 5.94772 14 6.5V8.5C14 9.05228 13.5523 9.5 13 9.5C12.4477 9.5 12 9.05228 12 8.5V6.5C12 5.94772 12.4477 5.5 13 5.5Z" fill="#9E9E9E"/>
</g>
</svg>
