<svg width="24" height="24" viewBox="0 0 24 24" fill="none" xmlns="http://www.w3.org/2000/svg">
<g id="icons/Base/save">
<path id="Union" d="M17.1406 2C17.1921 2 17.2426 2.00518 17.292 2.0127C17.3067 2.01495 17.3214 2.01663 17.3359 2.01953C17.4215 2.03647 17.5029 2.06432 17.5791 2.10156C17.586 2.10495 17.5928 2.10876 17.5996 2.1123C17.6169 2.12125 17.6337 2.13073 17.6504 2.14062C17.6608 2.1468 17.6714 2.15262 17.6816 2.15918C17.6978 2.16957 17.713 2.1811 17.7285 2.19238C17.7406 2.20115 17.753 2.20943 17.7646 2.21875C17.7758 2.22769 17.7861 2.23767 17.7969 2.24707C17.8056 2.25464 17.8148 2.26164 17.8232 2.26953L21.6826 5.87207C21.8852 6.06119 22 6.32639 22 6.60352V19.5C22 20.8807 20.8807 22 19.5 22H4.5C3.1193 22 2 20.8807 2 19.5V4.5C2 3.15433 3.06331 2.05972 4.39551 2.00488C4.42984 2.00132 4.46473 2 4.5 2H17.1406ZM4.5 4C4.22386 4 4 4.22386 4 4.5V19.5C4 19.7762 4.22385 20 4.5 20H19.5C19.7762 20 20 19.7762 20 19.5V7.03711L16.7471 4H13.0029L13 6.69336C12.9995 7.25437 12.6338 7.60423 12.3779 7.76172C12.1058 7.92921 11.7927 8 11.5 8H7.5C7.20734 8 6.89424 7.92921 6.62207 7.76172C6.36606 7.60414 6.00004 7.25396 6 6.69238V4H4.5ZM12.1064 16.0049C12.6107 16.0561 13.0039 16.4822 13.0039 17C13.0039 17.5178 12.6107 17.9439 12.1064 17.9951L12.0039 18H7C6.44772 18 6 17.5523 6 17C6 16.4477 6.44772 16 7 16H12.0039L12.1064 16.0049ZM17 12C17.5523 12 18 12.4477 18 13C18 13.5523 17.5523 14 17 14H7C6.44772 14 6 13.5523 6 13C6 12.4477 6.44772 12 7 12H17ZM11.001 5.9541L11.0029 4H8.35449L11.001 5.9541Z" fill="#9E9E9E"/>
</g>
</svg>
