<svg width="24" height="24" viewBox="0 0 24 24" fill="none" xmlns="http://www.w3.org/2000/svg">
<g id="icons/Base/search">
<path id="Union" d="M10.5 1C15.7467 1 20 5.25332 20 10.5C20 12.7634 19.2071 14.8407 17.8857 16.4727L21.5605 20.1465C21.9508 20.537 21.951 21.1711 21.5605 21.5615C21.1701 21.9517 20.536 21.9517 20.1455 21.5615L16.4707 17.8867C14.839 19.2073 12.7626 20 10.5 20C5.25332 20 1 15.7467 1 10.5C1 5.25332 5.25332 1 10.5 1ZM10.5 3C6.35788 3 3 6.35788 3 10.5C3 14.6421 6.35788 18 10.5 18C14.6421 18 18 14.6421 18 10.5C18 6.35788 14.6421 3 10.5 3ZM10.5 5C11.8804 5.00007 13.1325 5.56117 14.0361 6.46484C14.4261 6.85536 14.4264 7.48853 14.0361 7.87891C13.6458 8.26927 13.0126 8.26896 12.6221 7.87891C12.0782 7.33499 11.3287 7.00007 10.5 7C9.67148 7.00007 8.92281 7.33506 8.37891 7.87891C7.98846 8.26917 7.35534 8.26909 6.96484 7.87891C6.57437 7.48844 6.57448 6.85538 6.96484 6.46484C7.8685 5.56125 9.11976 5.00007 10.5 5Z" fill="#9E9E9E"/>
</g>
</svg>
