<svg width="24" height="24" viewBox="0 0 24 24" fill="none" xmlns="http://www.w3.org/2000/svg">
<g id="icons/Base/setting-two">
<path id="Union" d="M9.14551 1.37793C9.57663 1.29852 10.0144 1.5106 10.2168 1.90723C10.5489 2.55789 11.2238 3 12 3C12.7762 3 13.4511 2.55789 13.7832 1.90723L13.8271 1.83008C14.0599 1.45873 14.5114 1.27886 14.9404 1.39746C16.6643 1.87465 18.2171 2.76051 19.4883 3.94238C19.8118 4.24317 19.9003 4.72098 19.7051 5.11719C19.5744 5.3823 19.5 5.68116 19.5 6C19.5001 7.10448 20.3955 8 21.5 8H21.5273L21.6904 8.01074C22.0639 8.06663 22.3801 8.33102 22.4961 8.7002C22.8236 9.74305 23 10.852 23 12C23 12.7577 22.9228 13.4986 22.7764 14.2148C22.6737 14.7165 22.2089 15.0598 21.6992 15.0098C21.6337 15.0033 21.5673 15 21.5 15C20.3955 15 19.5001 15.8955 19.5 17C19.5 17.4918 19.6767 17.9396 19.9707 18.2881C20.301 18.6795 20.2819 19.2579 19.9268 19.627C18.6288 20.9757 16.9882 21.9947 15.1436 22.5439C14.6217 22.6993 14.0711 22.4083 13.9053 21.8896C13.647 21.0825 12.8903 20.5 12 20.5C11.1097 20.5 10.353 21.0825 10.0947 21.8896C9.92894 22.4083 9.37828 22.6993 8.85645 22.5439C7.01178 21.9947 5.37123 20.9757 4.07324 19.627C3.71813 19.2579 3.69901 18.6795 4.0293 18.2881C4.32326 17.9396 4.49995 17.4918 4.5 17C4.49994 15.8955 3.60453 15 2.5 15C2.43273 15 2.36628 15.0033 2.30078 15.0098C1.79113 15.0598 1.32633 14.7165 1.22363 14.2148C1.07715 13.4986 1.00001 12.7577 1 12C1.00001 10.852 1.17636 9.74307 1.50391 8.7002L1.56543 8.54883C1.73555 8.21171 2.08575 7.99448 2.47266 8C2.4817 8.00013 2.49082 8 2.5 8C3.60451 8 4.4999 7.10448 4.5 6C4.49998 5.68116 4.42563 5.38231 4.29492 5.11719C4.09966 4.72098 4.18823 4.24317 4.51172 3.94238C5.78287 2.76051 7.33574 1.87465 9.05957 1.39746L9.14551 1.37793ZM15.085 3.54297C14.3521 4.43097 13.2436 5 12 5C10.7562 5 9.64693 4.43124 8.91406 3.54297C7.98424 3.88237 7.12558 4.371 6.36719 4.98047C6.45296 5.30652 6.49999 5.64833 6.5 6C6.49991 7.95674 5.09456 9.58418 3.23828 9.93066C3.08226 10.5942 3.00001 11.2871 3 12C3.00001 12.3518 3.0224 12.6984 3.06152 13.0391C5.00476 13.3121 6.49994 14.9815 6.5 17C6.49997 17.6384 6.34661 18.2413 6.08008 18.7773C6.83119 19.434 7.69117 19.9683 8.62988 20.3477C9.34021 19.2375 10.5826 18.5 12 18.5C13.4172 18.5 14.6588 19.2378 15.3691 20.3477C16.3079 19.9683 17.1677 19.434 17.9189 18.7773C17.6525 18.2414 17.5 17.6382 17.5 17C17.5001 14.9818 18.9947 13.3125 20.9375 13.0391C20.9766 12.6984 21 12.3518 21 12C21 11.287 20.9168 10.5942 20.7607 9.93066C18.9049 9.58381 17.5001 7.95641 17.5 6C17.5 5.64842 17.5461 5.30645 17.6318 4.98047C16.8734 4.37104 16.0149 3.88229 15.085 3.54297ZM12 7.5C14.4852 7.5 16.4999 9.51477 16.5 12C16.5 14.4853 14.4853 16.5 12 16.5C9.51472 16.5 7.5 14.4853 7.5 12C7.50006 9.51477 9.51475 7.5 12 7.5ZM12 9.5C10.6193 9.5 9.50006 10.6193 9.5 12C9.5 13.3807 10.6193 14.5 12 14.5C13.3807 14.5 14.5 13.3807 14.5 12C14.4999 10.6193 13.3807 9.5 12 9.5Z" fill="#9E9E9E"/>
</g>
</svg>
