<svg width="24" height="24" viewBox="0 0 24 24" fill="none" xmlns="http://www.w3.org/2000/svg">
<g id="icons/Base/setting-three">
<path id="Union" d="M12 1C12.5523 1 13 1.44772 13 2V3.55957C14.4217 3.72621 15.7352 4.24399 16.8535 5.02344L18.0098 3.86816C18.4003 3.47767 19.0333 3.47773 19.4238 3.86816C19.8144 4.25869 19.8144 4.8917 19.4238 5.28223L18.3516 6.35352C19.3719 7.50038 20.0847 8.92484 20.3652 10.5H22C22.5523 10.5 23 10.9477 23 11.5C23 12.0523 22.5523 12.5 22 12.5H20.4844C20.3803 14.2931 19.7198 15.9357 18.6738 17.2607L19.7773 18.3643C20.1676 18.7548 20.1678 19.3879 19.7773 19.7783C19.3869 20.1685 18.7537 20.1685 18.3633 19.7783L17.2588 18.6738C16.0582 19.6212 14.5978 20.2522 13 20.4395V22C13 22.5523 12.5523 23 12 23C11.4477 23 11 22.5523 11 22V20.4395C9.22673 20.2316 7.62151 19.4785 6.35449 18.3516L5.28223 19.4248C4.89177 19.815 4.25863 19.815 3.86816 19.4248C3.47784 19.0344 3.47793 18.4013 3.86816 18.0107L5.02441 16.8535C4.15416 15.6051 3.60924 14.1137 3.51562 12.5H2C1.44772 12.5 1 12.0523 1 11.5C1 10.9477 1.44772 10.5 2 10.5H3.63477C3.88466 9.09697 4.4773 7.81358 5.3252 6.73926L4.22168 5.63574C3.83116 5.24522 3.83116 4.6122 4.22168 4.22168C4.6122 3.83116 5.24522 3.83116 5.63574 4.22168L6.73926 5.3252C7.94006 4.37748 9.40184 3.74689 11 3.55957V2C11 1.44772 11.4477 1 12 1ZM12 5.5C8.41015 5.5 5.5 8.41015 5.5 12C5.5 15.5899 8.41015 18.5 12 18.5C15.5899 18.5 18.5 15.5899 18.5 12C18.5 8.41015 15.5899 5.5 12 5.5Z" fill="#9E9E9E"/>
</g>
</svg>
