<svg width="24" height="24" viewBox="0 0 24 24" fill="none" xmlns="http://www.w3.org/2000/svg">
<g id="icons/Base/setting">
<path id="Union" d="M13.4658 1.00488C13.9701 1.05605 14.3633 1.4822 14.3633 2V3.59863C15.0347 3.78715 15.6725 4.05436 16.2676 4.38867L17.3994 3.25781L17.4756 3.18848C17.8683 2.8683 18.4474 2.89187 18.8135 3.25781L20.7422 5.18652C21.1326 5.57705 21.1327 6.2101 20.7422 6.60059L19.6104 7.73145C19.945 8.3269 20.2127 8.96488 20.4014 9.63672H22C22.5523 9.63672 23 10.0844 23 10.6367V13.3633C23 13.9156 22.5523 14.3633 22 14.3633H20.4014C20.2128 15.0348 19.9448 15.6723 19.6104 16.2676L20.7422 17.3994C21.1327 17.7899 21.1326 18.4229 20.7422 18.8135L18.8135 20.7422C18.4229 21.1326 17.7899 21.1327 17.3994 20.7422L16.2676 19.6104C15.6724 19.9447 15.0348 20.2118 14.3633 20.4004V22C14.3633 22.5523 13.9156 23 13.3633 23H10.6367C10.0844 23 9.63672 22.5523 9.63672 22V20.4004C8.96497 20.2117 8.32682 19.9449 7.73145 19.6104L6.60059 20.7422C6.2101 21.1327 5.57705 21.1326 5.18652 20.7422L3.25781 18.8135C2.86742 18.4229 2.86734 17.7899 3.25781 17.3994L4.38867 16.2676C4.05436 15.6725 3.78715 15.0347 3.59863 14.3633H2C1.44772 14.3633 1 13.9156 1 13.3633V10.6367L1.00488 10.5342C1.05605 10.0299 1.4822 9.63672 2 9.63672H3.59863C3.78723 8.96503 4.05417 8.32678 4.38867 7.73145L3.25781 6.60059C2.86734 6.2101 2.86742 5.57705 3.25781 5.18652L5.18652 3.25781L5.26172 3.18848C5.65449 2.86818 6.23449 2.89172 6.60059 3.25781L7.73145 4.38867C8.32678 4.05417 8.96503 3.78723 9.63672 3.59863V2C9.63672 1.44772 10.0844 1 10.6367 1H13.3633L13.4658 1.00488ZM11.6367 4.39258C11.6367 4.87724 11.2887 5.29199 10.8115 5.37695C9.83881 5.55016 8.938 5.93313 8.15723 6.47754C7.75979 6.75446 7.22048 6.7068 6.87793 6.36426L5.89258 5.37891L5.37891 5.89258L6.36426 6.87793C6.7068 7.22048 6.75446 7.75979 6.47754 8.15723C5.93313 8.938 5.55016 9.83881 5.37695 10.8115C5.29199 11.2887 4.87724 11.6367 4.39258 11.6367H3V12.3633H4.39258C4.87724 12.3633 5.29199 12.7113 5.37695 13.1885C5.55016 14.1612 5.93313 15.062 6.47754 15.8428C6.75446 16.2402 6.7068 16.7795 6.36426 17.1221L5.37891 18.1064L5.89258 18.6201L6.87793 17.6357C7.22048 17.2932 7.75979 17.2455 8.15723 17.5225C8.938 18.0669 9.83882 18.4498 10.8115 18.623C11.2887 18.708 11.6367 19.1228 11.6367 19.6074V21H12.3633V19.6074C12.3633 19.1228 12.7113 18.708 13.1885 18.623C14.1612 18.4498 15.062 18.0669 15.8428 17.5225L15.9189 17.4746C16.3069 17.2529 16.8009 17.3146 17.1221 17.6357L18.1064 18.6201L18.6201 18.1064L17.6357 17.1221C17.2932 16.7795 17.2455 16.2402 17.5225 15.8428C18.0669 15.062 18.4498 14.1612 18.623 13.1885L18.6426 13.1006C18.7599 12.6692 19.153 12.3633 19.6074 12.3633H21V11.6367H19.6074C19.1228 11.6367 18.708 11.2887 18.623 10.8115C18.4498 9.83882 18.0669 8.938 17.5225 8.15723C17.2455 7.75979 17.2932 7.22048 17.6357 6.87793L18.6201 5.89258L18.1064 5.37891L17.1221 6.36426C16.7795 6.7068 16.2402 6.75446 15.8428 6.47754C15.062 5.93313 14.1612 5.55016 13.1885 5.37695C12.7113 5.29199 12.3633 4.87724 12.3633 4.39258V3H11.6367V4.39258ZM12 8.5C13.933 8.5 15.5 10.067 15.5 12C15.5 13.933 13.933 15.5 12 15.5C10.067 15.5 8.5 13.933 8.5 12C8.5 10.067 10.067 8.5 12 8.5ZM12 10.5C11.1716 10.5 10.5 11.1716 10.5 12C10.5 12.8284 11.1716 13.5 12 13.5C12.8284 13.5 13.5 12.8284 13.5 12C13.5 11.1716 12.8284 10.5 12 10.5Z" fill="#9E9E9E"/>
</g>
</svg>
