<svg width="24" height="24" viewBox="0 0 24 24" fill="none" xmlns="http://www.w3.org/2000/svg">
<g id="icons/Base/setting-one">
<path id="Union" d="M17.1316 2.50879C17.4341 2.54893 17.7049 2.72603 17.8621 2.99316L22.8621 11.4932C23.0459 11.806 23.0459 12.194 22.8621 12.5068L17.8621 21.0068C17.6824 21.3122 17.3541 21.5 16.9998 21.5H6.99976C6.64551 21.4999 6.31707 21.3122 6.13745 21.0068L1.13745 12.5068C0.953664 12.1941 0.953664 11.8059 1.13745 11.4932L6.13745 2.99316C6.31707 2.68781 6.64551 2.5001 6.99976 2.5H16.9998L17.1316 2.50879ZM3.15991 12L7.57202 19.5H16.4285L20.8386 12L16.4285 4.5H7.57202L3.15991 12ZM11.9998 8.5C13.9327 8.5 15.4998 10.067 15.4998 12C15.4998 13.933 13.9327 15.5 11.9998 15.5C10.0669 15.4999 8.49976 13.9329 8.49976 12C8.49976 10.0671 10.0669 8.5001 11.9998 8.5ZM11.9998 10.5C11.1714 10.5001 10.4998 11.1716 10.4998 12C10.4998 12.8284 11.1714 13.4999 11.9998 13.5C12.8282 13.5 13.4998 12.8284 13.4998 12C13.4998 11.1716 12.8282 10.5 11.9998 10.5Z" fill="#9E9E9E"/>
</g>
</svg>
