<svg width="24" height="24" viewBox="0 0 24 24" fill="none" xmlns="http://www.w3.org/2000/svg">
<g id="icons/Base/share-three">
<path id="Union" d="M21 18C21.5523 18 22 18.4477 22 19V21L21.9951 21.1025C21.9438 21.6066 21.5177 22 21 22H3C2.44774 22 2.00004 21.5522 2 21V19C2 18.4477 2.44772 18 3 18C3.55228 18 4 18.4477 4 19V20H20V19C20 18.4477 20.4477 18 21 18ZM14.293 2.29297C14.6835 1.90244 15.3165 1.90244 15.707 2.29297L20.707 7.29297C20.7532 7.33913 20.7946 7.38991 20.8311 7.44434C20.8563 7.48204 20.8779 7.52144 20.8975 7.56152C20.9203 7.60827 20.9406 7.65654 20.9561 7.70703C20.9623 7.72732 20.9668 7.74798 20.9717 7.76855C20.9893 7.84291 21 7.92025 21 8C21 8.083 20.9878 8.16313 20.9688 8.24023C20.9646 8.25717 20.9611 8.27428 20.9561 8.29102C20.9412 8.34001 20.9223 8.38712 20.9004 8.43262C20.8804 8.47428 20.8572 8.51458 20.8311 8.55371C20.8185 8.57256 20.8048 8.59048 20.791 8.6084C20.7649 8.6422 20.738 8.67604 20.707 8.70703L15.707 13.707C15.3165 14.0975 14.6835 14.0975 14.293 13.707C13.9025 13.3165 13.9025 12.6835 14.293 12.293L17.5508 9.03418C13.6676 9.14926 10.4531 9.56799 8.11816 10.4922C6.72982 11.0417 5.7128 11.7474 5.04199 12.6182C4.38118 13.476 4 14.5666 4 16C3.99996 16.5522 3.55226 17 3 17C2.44774 17 2.00004 16.5522 2 16C2 14.1835 2.49393 12.6489 3.45801 11.3975C4.41215 10.159 5.77032 9.27073 7.38184 8.63281C10.0563 7.57416 13.5927 7.144 17.6182 7.03223L14.293 3.70703C13.9025 3.31652 13.9025 2.6835 14.293 2.29297Z" fill="#9E9E9E"/>
</g>
</svg>
