<svg width="24" height="24" viewBox="0 0 24 24" fill="none" xmlns="http://www.w3.org/2000/svg">
<g id="icons/Base/share">
<path id="Union" d="M9 2C9.55228 2 10 2.44772 10 3C10 3.55228 9.55228 4 9 4H4.5C4.22386 4 4 4.22386 4 4.5V19.5C4 19.7762 4.22385 20 4.5 20H19.5C19.7762 20 20 19.7762 20 19.5V14.7373C20 14.185 20.4477 13.7373 21 13.7373C21.5523 13.7373 22 14.185 22 14.7373V19.5C22 20.8807 20.8807 22 19.5 22H4.5C3.1193 22 2 20.8807 2 19.5V4.5C2 3.11929 3.11929 2 4.5 2H9ZM21 2C21.5523 2 22 2.44772 22 3V10C22 10.5523 21.5523 11 21 11C20.4477 11 20 10.5523 20 10V5.41406L13.6064 11.8076C13.216 12.1979 12.5829 12.1979 12.1924 11.8076C11.8019 11.4172 11.8021 10.7841 12.1924 10.3936L18.5859 4H14C13.4477 4 13 3.55228 13 3C13 2.44772 13.4477 2 14 2H21Z" fill="#9E9E9E"/>
</g>
</svg>
