<svg width="24" height="24" viewBox="0 0 24 24" fill="none" xmlns="http://www.w3.org/2000/svg">
<g id="icons/Base/sleep">
<path id="Union" d="M8.03613 2.81738C8.3965 2.66165 8.81489 2.73114 9.10547 2.99512C9.39572 3.25901 9.50505 3.6686 9.38477 4.04199C9.13541 4.81516 9 5.64184 9 6.50098C9.00037 10.9189 12.582 14.501 17 14.501C18.1283 14.501 19.2001 14.2682 20.1709 13.8486C20.5312 13.693 20.9487 13.7625 21.2393 14.0264C21.5296 14.2903 21.639 14.6997 21.5186 15.0732C20.2222 19.0915 16.4522 22.001 12 22.001C6.47739 22.001 2.00037 17.5235 2 12.001C2 7.88476 4.487 4.35124 8.03613 2.81738ZM7.0293 5.7334C5.18339 7.19954 4 9.46257 4 12.001C4.00037 16.4189 7.58196 20.001 12 20.001C14.8125 20.001 17.2862 18.5478 18.7129 16.3516C18.1559 16.4478 17.5838 16.501 17 16.501C11.4774 16.501 7.00037 12.0235 7 6.50098C7 6.24305 7.01007 5.98662 7.0293 5.7334ZM20.5 4C20.9246 4 21.3027 4.26829 21.4434 4.66895C21.5839 5.06968 21.4566 5.51595 21.125 5.78125L18.3516 8H20.5C21.0523 8 21.5 8.44774 21.5 9C21.5 9.55228 21.0523 10 20.5 10H15.5C15.0754 10 14.6973 9.73173 14.5566 9.33105C14.4161 8.93032 14.5434 8.48404 14.875 8.21875L17.6484 6H15.8301C15.2779 5.99991 14.8301 5.55223 14.8301 5C14.8301 4.44779 15.2779 4.00009 15.8301 4H20.5Z" fill="#9E9E9E"/>
</g>
</svg>
