<svg width="24" height="24" viewBox="0 0 24 24" fill="none" xmlns="http://www.w3.org/2000/svg">
<g id="icons/Base/system">
<path id="Union" d="M9 13C10.1046 13 11 13.8954 11 15V20C11 21.1046 10.1046 22 9 22H4C2.89544 22 2 21.1046 2 20V15C2 13.8954 2.89544 13 4 13H9ZM20 13C21.1046 13 22 13.8954 22 15V20C22 21.1046 21.1046 22 20 22H15C13.8954 22 13 21.1046 13 20V15C13 13.8954 13.8954 13 15 13H20ZM4 20H9V15H4V20ZM15 20H20V15H15V20ZM9 2C10.1046 2 11 2.89544 11 4V9C11 10.1046 10.1046 11 9 11H4C2.89544 11 2 10.1046 2 9V4C2 2.89543 2.89543 2 4 2H9ZM17.5 2C19.9853 2 22 4.01472 22 6.5C22 8.98528 19.9853 11 17.5 11C15.0147 11 13 8.98528 13 6.5C13 4.01472 15.0147 2 17.5 2ZM4 9H9V4H4V9ZM17.5 4C16.1193 4 15 5.11929 15 6.5C15 7.88072 16.1193 9 17.5 9C18.8807 9 20 7.88072 20 6.5C20 5.11929 18.8807 4 17.5 4Z" fill="#9E9E9E"/>
</g>
</svg>
