<svg width="24" height="24" viewBox="0 0 24 24" fill="none" xmlns="http://www.w3.org/2000/svg">
<g id="icons/Base/tag">
<path id="Union" d="M19 1C20.1046 1 21 1.89544 21 3V22C21 22.349 20.8176 22.673 20.5195 22.8545C20.2216 23.0356 19.8508 23.0487 19.541 22.8887L12 18.9893L4.45898 22.8887C4.14922 23.0487 3.77837 23.0356 3.48047 22.8545C3.18237 22.673 3 22.349 3 22V3C3 1.89543 3.89543 1 5 1H19ZM5 20.3564L11.541 16.9756L11.6514 16.9268C11.9137 16.8291 12.207 16.8454 12.459 16.9756L19 20.3564V3H5V20.3564ZM16 8C16.5523 8 17 8.44772 17 9C17 9.55229 16.5523 10 16 10H8C7.44772 10 7 9.55229 7 9C7 8.44772 7.44772 8 8 8H16Z" fill="#9E9E9E"/>
</g>
</svg>
