<svg width="24" height="24" viewBox="0 0 24 24" fill="none" xmlns="http://www.w3.org/2000/svg">
<g id="icons/Base/tips">
<path id="Union" d="M12 1C16.9706 1 21 5.02942 21 10C21 13.6046 18.8804 16.7105 15.8232 18.1475L15.5342 21.625C15.4692 22.4022 14.8198 22.9999 14.04 23H9.95996C9.18028 22.9999 8.52978 22.4024 8.46484 21.625L8.1748 18.1475C5.1185 16.7101 3 13.604 3 10C3 5.02942 7.02942 1 12 1ZM10.4199 21H13.5801L13.791 18.4668H10.209L10.4199 21ZM12 3C8.13398 3 5 6.13398 5 10C5 12.914 6.78127 15.4135 9.31738 16.4668H14.6826C17.2187 15.4135 19 12.914 19 10C19 6.13398 15.866 3 12 3ZM15 7.5C15.5523 7.5 16 7.94772 16 8.5V11.5C16 11.8466 15.8202 12.1684 15.5254 12.3506C15.2306 12.5327 14.8626 12.5495 14.5527 12.3945L12 11.1182L9.44727 12.3945C9.13735 12.5495 8.76939 12.5327 8.47461 12.3506C8.17979 12.1684 8 11.8466 8 11.5V8.5C8 7.94772 8.44772 7.5 9 7.5C9.55228 7.5 10 7.94772 10 8.5V9.88184L11.5527 9.10547C11.8343 8.9647 12.1657 8.9647 12.4473 9.10547L14 9.88184V8.5C14 7.94772 14.4477 7.5 15 7.5Z" fill="#9E9E9E"/>
</g>
</svg>
