<svg width="24" height="24" viewBox="0 0 24 24" fill="none" xmlns="http://www.w3.org/2000/svg">
<g id="icons/Base/tool">
<path id="Union" d="M16 1C17.1805 1.00001 18.2956 1.2934 19.2734 1.81152C19.5536 1.96004 19.7467 2.23239 19.7939 2.5459C19.8411 2.85964 19.737 3.17799 19.5127 3.40234L16.4141 6.5L17.499 7.58496L20.5977 4.4873C20.822 4.26297 21.1404 4.15893 21.4541 4.20605C21.7676 4.25329 22.04 4.44644 22.1885 4.72656C22.7066 5.70441 23 6.81951 23 8C23 11.866 19.8659 15 16 15C15.0865 15 14.213 14.8224 13.4111 14.5029L5.20703 22.707C4.81652 23.0975 4.1835 23.0975 3.79297 22.707L1.29297 20.207C0.902444 19.8165 0.902444 19.1835 1.29297 18.793L9.49609 10.5879C9.17692 9.78634 9 8.91308 9 8C9 4.134 12.134 1 16 1ZM16 3C13.2386 3 11 5.23858 11 8C11 8.84611 11.2092 9.64052 11.5781 10.3369C11.7837 10.7249 11.7128 11.2022 11.4023 11.5127L3.41406 19.5L4.49902 20.585L12.4873 12.5977C12.7978 12.2872 13.2751 12.2163 13.6631 12.4219C14.3595 12.7908 15.1539 13 16 13C18.7614 13 21 10.7614 21 8C21 7.66148 20.9642 7.33168 20.9004 7.0127L18.207 9.70703C17.8165 10.0975 17.1835 10.0975 16.793 9.70703L14.293 7.20703C13.9024 6.81651 13.9024 6.18349 14.293 5.79297L16.9863 3.09863C16.6677 3.03494 16.3381 3.00001 16 3Z" fill="#9E9E9E"/>
</g>
</svg>
