<svg width="24" height="24" viewBox="0 0 24 24" fill="none" xmlns="http://www.w3.org/2000/svg">
<g id="icons/Base/translate">
<path id="Union" d="M7.68329 2.05176C8.20713 1.87714 8.77318 2.15984 8.94794 2.68359L9.44794 4.18359C9.48292 4.28857 9.49872 4.39513 9.49872 4.5H11.987C12 4.49984 12.013 4.49965 12.0261 4.5H13.9997C14.552 4.5 14.9997 4.94772 14.9997 5.5C14.9996 6.05222 14.5519 6.5 13.9997 6.5H12.7731C12.6479 6.9388 12.4614 7.53318 12.2067 8.19727C11.6861 9.55494 10.8435 11.3041 9.5827 12.5908C9.56661 12.6072 9.54911 12.6223 9.5329 12.6387C10.4244 13.2243 11.4432 13.7597 12.3337 14.1836C12.9104 14.4581 13.4206 14.6801 13.7849 14.833C13.9665 14.9093 14.1118 14.9683 14.2106 15.0078C14.2599 15.0275 14.298 15.043 14.3229 15.0527C14.3351 15.0575 14.3445 15.0612 14.3503 15.0635C14.3527 15.0644 14.3549 15.065 14.3561 15.0654L14.3571 15.0664C14.4159 15.0889 14.4713 15.1167 14.5231 15.1484L16.0847 11.5977L16.153 11.4678C16.3341 11.1796 16.6527 11.0001 16.9997 11C17.3963 11 17.7551 11.2346 17.9147 11.5977L20.7663 18.084L21.9089 20.584C22.1384 21.0862 21.9178 21.6795 21.4157 21.9092C20.9136 22.1385 20.3202 21.918 20.0905 21.416L19.2145 19.5H14.7849L13.9089 21.416C13.6791 21.9179 13.0858 22.1387 12.5837 21.9092C12.0818 21.6794 11.8611 21.0861 12.0905 20.584L13.2331 18.084L13.7263 16.96C13.6984 16.952 13.6699 16.9442 13.6423 16.9336H13.6403C13.6396 16.9333 13.6384 16.933 13.6374 16.9326C13.6352 16.9317 13.6322 16.9301 13.6286 16.9287C13.6206 16.9256 13.6089 16.9207 13.5944 16.915C13.5651 16.9036 13.5225 16.8868 13.4684 16.8652C13.36 16.8219 13.2037 16.7588 13.0104 16.6777C12.6239 16.5154 12.0849 16.2808 11.4743 15.9902C10.4176 15.4873 9.10254 14.7964 7.98309 14.0039C7.17352 14.6396 6.34168 15.2015 5.62469 15.6494C5.01263 16.0318 4.4726 16.3409 4.08466 16.5547C3.89059 16.6616 3.7338 16.7455 3.62469 16.8027C3.57042 16.8312 3.52736 16.853 3.49774 16.8682C3.48302 16.8757 3.4707 16.8826 3.46259 16.8867C3.45899 16.8886 3.45597 16.8905 3.4538 16.8916C3.45285 16.892 3.45149 16.8923 3.45087 16.8926L3.44989 16.8936C2.95653 17.1414 2.3542 16.9425 2.10614 16.4492C1.85815 15.9559 2.0573 15.3546 2.55048 15.1064H2.55145C2.55254 15.1059 2.5547 15.1048 2.55731 15.1035C2.56298 15.1006 2.5725 15.0951 2.58466 15.0889C2.60921 15.0763 2.64729 15.0568 2.69598 15.0312C2.7941 14.9798 2.93903 14.9023 3.11981 14.8027C3.48254 14.6029 3.99017 14.3123 4.56512 13.9531C5.16158 13.5805 5.81705 13.1401 6.45477 12.6582C5.73608 11.8531 5.20526 10.9707 4.83368 10.2324C4.56229 9.6932 4.36603 9.21237 4.237 8.86426C4.1724 8.68994 4.1242 8.54724 4.09149 8.44629C4.07513 8.3958 4.06219 8.35508 4.05341 8.32617C4.04908 8.31194 4.04519 8.30057 4.04266 8.29199C4.04142 8.28778 4.04054 8.28404 4.03973 8.28125C4.03933 8.27986 4.03905 8.27837 4.03876 8.27734V8.27539L4.03778 8.27441C3.88636 7.74364 4.19461 7.18994 4.72528 7.03809C5.25593 6.8867 5.80862 7.19417 5.96063 7.72461L5.96161 7.72656C5.9626 7.72993 5.96483 7.73645 5.96747 7.74512C5.97289 7.76295 5.98149 7.79197 5.99384 7.83008C6.0188 7.9071 6.05792 8.02301 6.112 8.16895C6.22063 8.46207 6.38808 8.87258 6.61981 9.33301C6.95398 9.99698 7.40689 10.7259 7.98016 11.3594C8.03816 11.3027 8.09797 11.2486 8.15399 11.1914C9.1297 10.1957 9.85266 8.74853 10.3386 7.48145C10.4744 7.12723 10.5879 6.79417 10.6823 6.5H2.99969C2.44759 6.49984 1.99977 6.05212 1.99969 5.5C1.99969 4.94781 2.44755 4.50016 2.99969 4.5H7.44598L7.05145 3.31641C6.87687 2.79266 7.15973 2.22664 7.68329 2.05176ZM15.6745 17.5H18.3249L16.9997 14.4844L15.6745 17.5Z" fill="#9E9E9E"/>
</g>
</svg>
