<svg width="24" height="24" viewBox="0 0 24 24" fill="none" xmlns="http://www.w3.org/2000/svg">
<g id="icons/Base/unlike">
<path id="Union" d="M16.5 3C20.0898 3 23 5.91017 23 9.5C23 10.0523 22.5523 10.5 22 10.5C21.4477 10.5 21 10.0523 21 9.5C21 7.01473 18.9853 5 16.5 5C14.9789 5 13.6335 5.75421 12.8174 6.91309C12.6301 7.17884 12.3252 7.33691 12 7.33691C11.6748 7.33691 11.3699 7.17884 11.1826 6.91309C10.3665 5.75421 9.02112 5 7.5 5C5.01472 5 3 7.01473 3 9.5C3 11.8659 4.4144 14.2503 6.39844 16.2539C8.24356 18.1173 10.4341 19.4989 11.9971 20.0986C12.45 19.9251 12.965 19.6854 13.5166 19.377C13.9986 19.1074 14.6084 19.2798 14.8779 19.7617C15.1475 20.2438 14.9752 20.8535 14.4932 21.123C13.7282 21.5507 12.9858 21.8895 12.3154 22.1123C12.1107 22.1803 11.8893 22.1803 11.6846 22.1123C9.75781 21.472 7.12725 19.8331 4.97656 17.6611C2.83576 15.4991 1 12.6339 1 9.5C1 5.91017 3.91015 3 7.5 3C9.24772 3 10.8327 3.69184 12 4.8125C13.1673 3.69184 14.7523 3 16.5 3ZM20.1416 12.8711C20.489 12.4418 21.1185 12.3752 21.5479 12.7227C21.9771 13.07 22.0435 13.6996 21.6963 14.1289L20.4854 15.625L21.6963 17.1211C22.0435 17.5504 21.9771 18.18 21.5479 18.5273C21.1185 18.8748 20.489 18.8082 20.1416 18.3789L19.1992 17.2139L18.2568 18.3789C17.9094 18.8082 17.2799 18.8747 16.8506 18.5273C16.4213 18.1799 16.3548 17.5504 16.7021 17.1211L17.9121 15.625L16.7021 14.1289C16.3548 13.6996 16.4213 13.0701 16.8506 12.7227C17.2799 12.3753 17.9094 12.4418 18.2568 12.8711L19.1992 14.0352L20.1416 12.8711Z" fill="#9E9E9E"/>
</g>
</svg>
