<svg width="24" height="24" viewBox="0 0 24 24" fill="none" xmlns="http://www.w3.org/2000/svg">
<g id="icons/Base/waterfalls-v">
<path id="Union" d="M8.5 13C9.05228 13 9.5 13.4477 9.5 14V21C9.5 21.5523 9.05228 22 8.5 22H3C2.44772 22 2 21.5523 2 21V14C2 13.4477 2.44772 13 3 13H8.5ZM21 13C21.5523 13 22 13.4477 22 14V21C22 21.5523 21.5523 22 21 22H12.5C11.9477 22 11.5 21.5523 11.5 21V14C11.5 13.4477 11.9477 13 12.5 13H21ZM4 20H7.5V15H4V20ZM13.5 20H20V15H13.5V20ZM11.5 2C12.0523 2 12.5 2.44772 12.5 3V10C12.5 10.5523 12.0523 11 11.5 11H3C2.44772 11 2 10.5523 2 10V3C2 2.44772 2.44772 2 3 2H11.5ZM21 2C21.5523 2 22 2.44772 22 3V10C22 10.5523 21.5523 11 21 11H15.5C14.9477 11 14.5 10.5523 14.5 10V3C14.5 2.44772 14.9477 2 15.5 2H21ZM4 9H10.5V4H4V9ZM16.5 9H20V4H16.5V9Z" fill="#9E9E9E"/>
</g>
</svg>
