<svg width="24" height="24" viewBox="0 0 24 24" fill="none" xmlns="http://www.w3.org/2000/svg">
<g id="icons/Base/waterfalls-h">
<path id="Union" d="M10 11.5C10.5523 11.5 11 11.9477 11 12.5V21C11 21.5523 10.5523 22 10 22H3C2.44772 22 2 21.5523 2 21V12.5C2 11.9477 2.44772 11.5 3 11.5H10ZM21 14.5C21.5523 14.5 22 14.9477 22 15.5V21C22 21.5523 21.5523 22 21 22H14C13.4477 22 13 21.5523 13 21V15.5C13 14.9477 13.4477 14.5 14 14.5H21ZM4 20H9V13.5H4V20ZM15 20H20V16.5H15V20ZM21 2C21.5523 2 22 2.44772 22 3V11.5C22 12.0523 21.5523 12.5 21 12.5H14C13.4477 12.5 13 12.0523 13 11.5V3C13 2.44772 13.4477 2 14 2H21ZM15 10.5H20V4H15V10.5ZM10 2C10.5523 2 11 2.44772 11 3V8.5C11 9.05228 10.5523 9.5 10 9.5H3C2.44772 9.5 2 9.05228 2 8.5V3C2 2.44772 2.44772 2 3 2H10ZM4 7.5H9V4H4V7.5Z" fill="#9E9E9E"/>
</g>
</svg>
