<svg width="24" height="24" viewBox="0 0 24 24" fill="none" xmlns="http://www.w3.org/2000/svg">
<g id="icons/Base/zoom-out">
<path id="Union" d="M10.5 1C15.7467 1 20 5.25332 20 10.5C20 12.7634 19.2071 14.8407 17.8857 16.4727L21.5605 20.1465C21.9508 20.537 21.951 21.1711 21.5605 21.5615C21.1701 21.9517 20.536 21.9517 20.1455 21.5615L16.4707 17.8867C14.839 19.2073 12.7626 20 10.5 20C5.25332 20 1 15.7467 1 10.5C1 5.25332 5.25332 1 10.5 1ZM10.5 3C6.35788 3 3 6.35788 3 10.5C3 14.6421 6.35788 18 10.5 18C14.6421 18 18 14.6421 18 10.5C18 6.35788 14.6421 3 10.5 3ZM13.5 9.5C14.0523 9.5 14.5 9.94771 14.5 10.5C14.5 11.0523 14.0523 11.5 13.5 11.5H7.5C6.94772 11.5 6.5 11.0523 6.5 10.5C6.5 9.94771 6.94772 9.5 7.5 9.5H13.5Z" fill="#9E9E9E"/>
</g>
</svg>
