<svg width="24" height="24" viewBox="0 0 24 24" fill="none" xmlns="http://www.w3.org/2000/svg">
<g id="icons/Sports/air-bike">
<path id="Union" d="M19.1289 1.0708C19.6415 0.866044 20.2236 1.11596 20.4287 1.62842C20.6336 2.14108 20.3837 2.72312 19.8711 2.92822L18.3486 3.53662L20.9082 9.08057C21.03 9.3445 21.0304 9.64893 20.9102 9.91357L18.8887 14.3589C19.198 14.4841 19.5084 14.6468 19.8027 14.856C20.7696 15.543 21.4999 16.6845 21.5 18.3599V20.9995H22C22.5522 20.9995 22.9998 21.4474 23 21.9995C23 22.5518 22.5523 22.9995 22 22.9995H2C1.44772 22.9995 1 22.5518 1 21.9995C1.00017 21.4474 1.44782 20.9995 2 20.9995H19.5V18.3599C19.4999 17.3476 19.0952 16.8077 18.6436 16.4868C18.1405 16.1295 17.5057 15.9996 17.0957 15.9995H14.8994C14.8989 16.0021 14.899 16.0048 14.8984 16.0073C14.4323 18.2858 12.4163 19.9995 10 19.9995C7.23858 19.9995 5 17.7609 5 14.9995C5.00014 12.7209 6.52479 10.7993 8.60938 10.1968L6.51074 7.49951H5C4.44772 7.49951 4 7.0518 4 6.49951C4.00017 5.94737 4.44782 5.49951 5 5.49951H9C9.55218 5.49951 9.99983 5.94737 10 6.49951C10 7.03737 9.57527 7.47403 9.04297 7.49658L11.0811 10.1177C11.2187 10.148 11.3542 10.1837 11.4873 10.2251C11.8003 10.3225 12.1005 10.4491 12.3838 10.603C12.5255 10.68 12.6629 10.7641 12.7959 10.854C13.8596 11.5728 14.632 12.6901 14.8984 13.9917C14.899 13.9943 14.8989 13.9969 14.8994 13.9995H16.8564L18.8994 9.50244L16.4893 4.28076L14.8711 4.92822C14.3584 5.13309 13.7764 4.88328 13.5713 4.37061C13.3666 3.85797 13.6163 3.27583 14.1289 3.0708L19.1289 1.0708ZM10 11.9995C8.34325 11.9995 7.00017 13.3428 7 14.9995C7 16.6564 8.34315 17.9995 10 17.9995C11.2427 17.9995 12.3093 17.2443 12.7646 16.1675C12.7878 16.1127 12.8062 16.0559 12.8262 15.9995H10C9.44771 15.9995 9 15.5518 9 14.9995C9.00017 14.4474 9.44782 13.9995 10 13.9995H12.8252C12.8054 13.9435 12.7877 13.8869 12.7646 13.8325C12.3093 12.7555 11.2428 11.9995 10 11.9995Z" fill="#9E9E9E"/>
</g>
</svg>
