<svg width="24" height="24" viewBox="0 0 24 24" fill="none" xmlns="http://www.w3.org/2000/svg">
<g id="icons/Sports/archery">
<path id="Union" d="M6.5 2C11.6853 2 15.9484 5.94671 16.4502 11H18.5859L18.293 10.707C17.9024 10.3165 17.9024 9.68349 18.293 9.29297C18.6835 8.90244 19.3165 8.90244 19.707 9.29297L21.707 11.293C21.7711 11.357 21.8253 11.4303 21.8701 11.5098C21.8807 11.5285 21.8911 11.5472 21.9004 11.5664C21.9222 11.6116 21.9412 11.6584 21.9561 11.707C21.9574 11.7116 21.9586 11.7162 21.96 11.7207C21.9857 11.8094 22 11.903 22 12C22 12.0563 21.9933 12.1112 21.9844 12.165C21.9772 12.2078 21.9688 12.2503 21.9561 12.292C21.9431 12.3343 21.9274 12.3753 21.9092 12.415C21.9 12.4353 21.8896 12.4549 21.8789 12.4746C21.851 12.5262 21.8184 12.5745 21.7822 12.6201C21.7586 12.6498 21.7345 12.6796 21.707 12.707L19.707 14.707C19.3165 15.0976 18.6835 15.0976 18.293 14.707C17.9024 14.3165 17.9024 13.6835 18.293 13.293L18.5859 13H16.4502C15.9484 18.0533 11.6853 22 6.5 22C5.94772 22 5.5 21.5523 5.5 21C5.5 20.4477 5.94772 20 6.5 20C10.5795 20 13.9433 16.9461 14.4355 13H6.79004C6.4041 13.8826 5.52488 14.5 4.5 14.5C3.11929 14.5 2 13.3807 2 12C2 10.6193 3.11929 9.5 4.5 9.5C5.52488 9.5 6.4041 10.1174 6.79004 11H14.4355C13.9433 7.05385 10.5795 4 6.5 4C5.94772 4 5.5 3.55228 5.5 3C5.5 2.44772 5.94772 2 6.5 2ZM4.5 11.5C4.22386 11.5 4 11.7239 4 12C4 12.2761 4.22386 12.5 4.5 12.5C4.77614 12.5 5 12.2761 5 12C5 11.7239 4.77614 11.5 4.5 11.5Z" fill="#9E9E9E"/>
</g>
</svg>
