<svg width="24" height="24" viewBox="0 0 24 24" fill="none" xmlns="http://www.w3.org/2000/svg">
<g id="icons/Sports/arena">
<path id="Union" d="M12 1C12.5523 1 13 1.44772 13 2V2.88184L21.0059 6.88477C21.063 6.38672 21.4867 6 22 6C22.5523 6 23 6.44772 23 7V17C23 17.3788 22.786 17.7251 22.4473 17.8945L12.4473 22.8945C12.1657 23.0353 11.8343 23.0353 11.5527 22.8945L1.55273 17.8945C1.21395 17.7251 1 17.3788 1 17V7C1 6.44772 1.44772 6 2 6C2.5133 6 2.93601 6.38677 2.99316 6.88477L11 2.88086V2C11 1.44772 11.4477 1 12 1ZM12.4473 18.8945C12.4417 18.8973 12.4353 18.8987 12.4297 18.9014C12.4029 18.9142 12.3757 18.9261 12.3477 18.9365C12.3421 18.9386 12.3366 18.9404 12.3311 18.9424C12.3048 18.9516 12.2782 18.9598 12.251 18.9668C12.239 18.9699 12.227 18.9729 12.2148 18.9756C12.1456 18.9908 12.0738 19 12 19C11.9258 19 11.8538 18.9909 11.7842 18.9756C11.7721 18.9729 11.7601 18.9699 11.748 18.9668C11.7209 18.9597 11.6942 18.9516 11.668 18.9424C11.6624 18.9404 11.6569 18.9386 11.6514 18.9365C11.6233 18.9261 11.5961 18.9142 11.5693 18.9014C11.5639 18.8988 11.5581 18.8972 11.5527 18.8945L3 14.6182V16.3818L12 20.8818L21 16.3818V14.6182L12.4473 18.8945ZM4.23633 13L11 16.3818V14.1182L6.5 11.8682L4.23633 13ZM13 14.1182V16.3818L19.7637 13L17.5 11.8682L13 14.1182ZM8.73633 10.75L11.0059 11.8848C11.063 11.3867 11.4867 11 12 11C12.5133 11 12.936 11.3868 12.9932 11.8848L15.2637 10.75L12 9.11816L8.73633 10.75ZM3 11.3818L4.26367 10.75L3 10.1182V11.3818ZM19.7363 10.75L21 11.3818V10.1182L19.7363 10.75ZM4.23633 8.5L6.5 9.63184L11 7.38184V5.11816L4.23633 8.5ZM13 7.38184L17.5 9.63184L19.7637 8.5L13 5.11816V7.38184Z" fill="#9E9E9E"/>
</g>
</svg>
