<svg width="24" height="24" viewBox="0 0 24 24" fill="none" xmlns="http://www.w3.org/2000/svg">
<g id="icons/Sports/badminton">
<path id="Union" d="M16.1411 8.50977C16.4649 8.55584 16.7496 8.75898 16.897 9.05762L21.5571 18.5078L21.5806 18.5586C22.3634 20.3997 21.2808 22.7251 19.1265 22.9775L19.1274 22.9785C19.003 22.9932 18.8785 23 18.7505 23C17.8754 23 17.0833 22.6537 16.4995 22.0928C15.9159 22.6533 15.1252 22.9999 14.2505 23C13.3754 23 12.5833 22.6537 11.9995 22.0928C11.4159 22.6533 10.6252 22.9999 9.75049 23C8.87538 23 8.08332 22.6537 7.49951 22.0928C6.91586 22.6533 6.12515 22.9999 5.25049 23C5.12256 23 4.99795 22.9931 4.87354 22.9785C2.71944 22.7258 1.63746 20.3996 2.42041 18.5586L2.44385 18.5078L7.104 9.05762L7.17529 8.93555C7.35987 8.6657 7.66758 8.50007 8.00049 8.5H16.0005L16.1411 8.50977ZM4.25635 19.3535C3.93971 20.1186 4.44606 20.9147 5.10791 20.9922C5.15289 20.9974 5.19905 21 5.25049 21C5.94298 20.9997 6.50049 20.4426 6.50049 19.75C6.50049 19.7114 6.50208 19.6732 6.50635 19.6357C6.50713 19.6289 6.50836 19.6221 6.50928 19.6152C6.51356 19.5835 6.51966 19.5522 6.52686 19.5215C6.52753 19.5186 6.52811 19.5156 6.52881 19.5127L8.72705 10.5H8.62256L4.25635 19.3535ZM8.50537 19.8486C8.55537 20.4948 9.09102 21 9.75049 21C10.443 20.9997 11.0005 20.4426 11.0005 19.75V10.5H10.7866L8.50537 19.8486ZM13.0005 19.75C13.0005 20.4427 13.5578 21 14.2505 21C14.9097 20.9998 15.4446 20.4946 15.4946 19.8486L13.2144 10.5H13.0005V19.75ZM17.4722 19.5127C17.4736 19.5188 17.4737 19.5252 17.4751 19.5312C17.4809 19.5572 17.485 19.5836 17.4888 19.6104C17.49 19.6188 17.4917 19.6272 17.4927 19.6357C17.4969 19.6733 17.5005 19.7113 17.5005 19.75C17.5005 20.4427 18.0578 21 18.7505 21C18.8021 21 18.8488 20.9975 18.894 20.9922L19.0171 20.9688C19.6146 20.8144 20.0386 20.0744 19.7466 19.3594L15.3794 10.5H15.2739L17.4722 19.5127ZM12.0005 1C14.7626 1.00026 17.0005 3.23788 17.0005 6C17.0005 6.20981 16.9882 6.41497 16.9634 6.62012C16.9025 7.12203 16.4757 7.49976 15.9702 7.5H8.03076C7.52504 7.5 7.09848 7.12216 7.0376 6.62012C7.01274 6.41496 7.00049 6.20983 7.00049 6C7.00049 3.23772 9.2382 1 12.0005 1ZM12.0005 3C10.5132 3 9.28037 4.08064 9.04248 5.5H14.9585C14.7207 4.08076 13.4876 3.00023 12.0005 3Z" fill="#9E9E9E"/>
</g>
</svg>
