<svg width="24" height="24" viewBox="0 0 24 24" fill="none" xmlns="http://www.w3.org/2000/svg">
<g id="icons/Sports/baokemeng">
<path id="Union" d="M12 1C18.0773 1 23 5.92272 23 12C23 18.0773 18.0773 23 12 23C5.92272 23 1 18.0773 1 12C1 5.92272 5.92272 1 12 1ZM3.05664 13C3.55375 17.5015 7.36538 21 12 21C16.6346 21 20.4462 17.5015 20.9434 13H15.874C15.43 14.7252 13.8638 16 12 16C10.1362 16 8.57002 14.7252 8.12598 13H3.05664ZM12 10C11.1731 10 10.4614 10.5043 10.1572 11.2217C10.1067 11.3412 10.0676 11.4666 10.041 11.5967C10.0142 11.727 10 11.8619 10 12C10 13.1046 10.8954 14 12 14C13.1046 14 14 13.1046 14 12C14 11.8619 13.9858 11.727 13.959 11.5967C13.9324 11.4666 13.8933 11.3412 13.8428 11.2217C13.5386 10.5043 12.8269 10 12 10ZM12 3C7.36538 3 3.55375 6.49847 3.05664 11H8.12598C8.15188 10.8994 8.18244 10.8005 8.21582 10.7031C8.21997 10.691 8.22426 10.679 8.22852 10.667C8.26118 10.5746 8.29682 10.4837 8.33594 10.3945C8.34374 10.3768 8.3523 10.3594 8.36035 10.3418C8.44384 10.1588 8.54041 9.98333 8.64941 9.81641C8.65381 9.80968 8.65767 9.8026 8.66211 9.7959C8.89784 9.43962 9.18902 9.12345 9.52344 8.85938C9.52834 8.8555 9.53316 8.85151 9.53809 8.84766C9.61958 8.78392 9.70365 8.72339 9.79004 8.66602C9.7947 8.66292 9.79904 8.65933 9.80371 8.65625C9.97783 8.54165 10.1619 8.44119 10.3535 8.35449C10.3613 8.35095 10.3691 8.34725 10.377 8.34375C10.4699 8.30244 10.5646 8.26474 10.6611 8.23047C10.67 8.22733 10.6786 8.22378 10.6875 8.2207C10.8866 8.15158 11.0927 8.0977 11.3047 8.06055C11.3115 8.05934 11.3183 8.05781 11.3252 8.05664C11.4274 8.03927 11.531 8.02606 11.6357 8.0166C11.651 8.01522 11.6663 8.01391 11.6816 8.0127C11.7867 8.00442 11.8928 8 12 8C12.1068 8 12.2127 8.00447 12.3174 8.0127C12.3327 8.0139 12.348 8.01522 12.3633 8.0166C12.468 8.02603 12.5716 8.0393 12.6738 8.05664C12.6807 8.05781 12.6875 8.05935 12.6943 8.06055C12.9063 8.09765 13.1124 8.15162 13.3115 8.2207C13.3204 8.22378 13.3291 8.22733 13.3379 8.23047C13.4344 8.26472 13.5291 8.30246 13.6221 8.34375C13.6299 8.34724 13.6377 8.35095 13.6455 8.35449C13.8372 8.44116 14.0212 8.54167 14.1953 8.65625C14.2 8.65933 14.2043 8.66292 14.209 8.66602C14.2954 8.72338 14.3794 8.78393 14.4609 8.84766C14.4659 8.85151 14.4707 8.8555 14.4756 8.85938C14.8101 9.12343 15.1011 9.43959 15.3369 9.7959C15.3414 9.8026 15.3452 9.80968 15.3496 9.81641C15.4587 9.98346 15.5561 10.1587 15.6396 10.3418C15.6476 10.3593 15.6553 10.3769 15.6631 10.3945C15.7022 10.4837 15.7378 10.5746 15.7705 10.667C15.7748 10.679 15.7791 10.691 15.7832 10.7031C15.8166 10.8006 15.8481 10.8993 15.874 11H20.9434C20.4462 6.49847 16.6346 3 12 3Z" fill="#9E9E9E"/>
</g>
</svg>
