<svg width="24" height="24" viewBox="0 0 24 24" fill="none" xmlns="http://www.w3.org/2000/svg">
<g id="icons/Sports/baseball">
<path id="Union" d="M12 1C15.362 1 18.37 2.50986 20.3877 4.88672C20.4222 4.9172 20.4555 4.95037 20.4863 4.98633C20.5249 5.03142 20.5577 5.07953 20.5869 5.12891C22.0955 7.01177 23 9.39964 23 12C23 14.6001 22.0952 16.9873 20.5869 18.8701C20.5575 18.9199 20.5252 18.9693 20.4863 19.0146C20.4557 19.0503 20.4219 19.082 20.3877 19.1123C18.37 21.4895 15.3623 23 12 23C8.63597 23 5.62614 21.4887 3.6084 19.1094C3.57568 19.0801 3.54401 19.0489 3.51465 19.0146C3.47583 18.9694 3.44243 18.9207 3.41309 18.8711C1.90449 16.9882 1 14.6004 1 12C1 9.39936 1.90421 7.01089 3.41309 5.12793C3.44228 5.07868 3.47611 5.03132 3.51465 4.98633C3.54422 4.95182 3.57542 4.91911 3.6084 4.88965C5.62613 2.51069 8.63624 1 12 1ZM12 3C9.5398 3 7.31016 3.98713 5.68555 5.58691C7.49742 7.416 8.45498 9.56025 8.45508 12C8.45495 14.4395 7.49709 16.5831 5.68555 18.4121C7.31021 20.0122 9.53956 21 12 21C14.4602 21 16.6889 20.0119 18.3135 18.4121C16.5022 16.5832 15.545 14.4393 15.5449 12C15.545 9.56051 16.5019 7.41589 18.3135 5.58691C16.6889 3.98742 14.4599 3 12 3ZM4.41797 7.15234C3.52139 8.55174 3 10.2147 3 12C3 13.785 3.52166 15.4474 4.41797 16.8467C5.8047 15.3832 6.45496 13.7751 6.45508 12C6.45499 10.2247 5.80487 8.616 4.41797 7.15234ZM19.5811 7.15234C18.1945 8.61575 17.545 10.2251 17.5449 12C17.545 13.7748 18.1956 15.3824 19.582 16.8457C20.4781 15.4466 21 13.7847 21 12C21 10.2145 20.4778 8.55183 19.5811 7.15234Z" fill="#9E9E9E"/>
</g>
</svg>
