<svg width="24" height="24" viewBox="0 0 24 24" fill="none" xmlns="http://www.w3.org/2000/svg">
<g id="icons/Sports/baseball-bat">
<path id="Union" d="M5.10449 1.87012C5.86513 1.90242 6.56026 2.19709 7.10547 2.5127C7.65925 2.83329 8.12857 3.21677 8.45312 3.51074C8.6173 3.65946 8.75011 3.78973 8.84277 3.88477C8.88903 3.93222 8.92593 3.97174 8.95215 4C8.96508 4.01394 8.97567 4.02565 8.9834 4.03418C8.98716 4.03833 8.99068 4.04216 8.99316 4.04492C8.99427 4.04615 8.99529 4.04784 8.99609 4.04883L8.99805 4.05078C9.00999 4.06423 9.022 4.0787 9.0332 4.09277L9.03418 4.09375C9.0348 4.09454 9.03594 4.09616 9.03711 4.09766C9.0396 4.1008 9.044 4.10528 9.04883 4.11133C9.05863 4.12368 9.07272 4.14289 9.0918 4.16699C9.13016 4.21542 9.18769 4.28697 9.26172 4.38086C9.41002 4.56894 9.62808 4.84589 9.90625 5.20215C10.4628 5.91496 11.2614 6.94659 12.2324 8.21973C14.085 10.6487 16.5653 13.9633 19.1846 17.6377C19.4403 17.5494 19.7143 17.5 20 17.5C21.3807 17.5 22.5 18.6193 22.5 20C22.5 21.3807 21.3807 22.5 20 22.5C18.6193 22.5 17.5 21.3807 17.5 20C17.5 19.7124 17.5503 19.4368 17.6396 19.1797C13.8504 16.4476 10.5308 13.9653 8.12793 12.1396C6.87106 11.1847 5.86378 10.4098 5.1709 9.87305C4.82466 9.60484 4.55659 9.39574 4.375 9.25391C4.28428 9.18305 4.21456 9.12833 4.16797 9.0918C4.14493 9.07373 4.12706 9.06007 4.11523 9.05078C4.10938 9.04618 4.10458 9.04241 4.10156 9.04004L4.09766 9.03711L4.09668 9.03613L4.05078 8.99805L4.04883 8.99609C4.04782 8.99526 4.04622 8.99433 4.04492 8.99316C4.04214 8.99066 4.03837 8.9872 4.03418 8.9834C4.02564 8.97565 4.01398 8.96512 4 8.95215C3.97171 8.9259 3.93229 8.88812 3.88477 8.8418C3.78975 8.74915 3.65926 8.61706 3.51074 8.45312C3.21674 8.12859 2.83333 7.65922 2.5127 7.10547C2.19708 6.5603 1.90245 5.86506 1.87012 5.10449C1.83618 4.3016 2.09996 3.48595 2.79297 2.79297C3.48604 2.10006 4.30157 1.83611 5.10449 1.87012ZM20 19.5C19.7239 19.5 19.5 19.7239 19.5 20C19.5 20.2761 19.7239 20.5 20 20.5C20.2761 20.5 20.5 20.2761 20.5 20C20.5 19.7239 20.2761 19.5 20 19.5ZM5.01953 3.86816C4.74977 3.8568 4.48587 3.92833 4.20703 4.20703C3.92823 4.48582 3.85686 4.74987 3.86816 5.01953C3.88144 5.33182 4.01199 5.7042 4.24316 6.10352C4.46937 6.49417 4.75546 6.84796 4.99316 7.11035C5.11001 7.23931 5.21113 7.34179 5.28125 7.41016C5.31541 7.44345 5.34228 7.46851 5.35938 7.48438C5.3702 7.49288 5.38472 7.50473 5.40234 7.51855C5.44795 7.55431 5.51604 7.60788 5.60547 7.67773C5.78506 7.81801 6.05135 8.02539 6.39551 8.29199C7.08399 8.82532 8.08644 9.59702 9.33789 10.5479C10.699 11.582 12.3562 12.827 14.2256 14.21C12.8932 12.4048 11.6713 10.7814 10.6426 9.43262C9.67662 8.16616 8.88161 7.1412 8.3291 6.43359C8.05302 6.08002 7.83785 5.80487 7.69141 5.61914C7.61825 5.52637 7.56189 5.45552 7.52441 5.4082C7.51255 5.39322 7.50227 5.38037 7.49414 5.37012C7.49168 5.36743 7.48869 5.36395 7.48535 5.36035C7.46954 5.3433 7.4441 5.31607 7.41016 5.28125C7.34178 5.21113 7.23932 5.11 7.11035 4.99316C6.84795 4.75549 6.49421 4.46934 6.10352 4.24316C5.70418 4.01202 5.33187 3.88143 5.01953 3.86816Z" fill="#9E9E9E"/>
</g>
</svg>
