<svg width="24" height="24" viewBox="0 0 24 24" fill="none" xmlns="http://www.w3.org/2000/svg">
<g id="icons/Sports/basketball-one">
<path id="Union" d="M6 1C6.55228 1 7 1.44772 7 2V11H8.07227C8.558 7.6091 11.4754 5 15 5C18.5246 5 21.442 7.6091 21.9277 11H22C22.5523 11 23 11.4477 23 12C23 12.5523 22.5523 13 22 13H21.1504L20.4229 14.6348C19.5288 16.8797 19.5628 19.3163 20.4365 21.6494C20.6301 22.1666 20.3677 22.7428 19.8506 22.9365C19.3334 23.1302 18.7572 22.8678 18.5635 22.3506C18.3967 21.9051 18.2579 21.4539 18.1426 21H11.3564C11.2417 21.4534 11.1032 21.9039 10.9375 22.3486C10.7448 22.866 10.1688 23.1299 9.65137 22.9375C9.13402 22.7448 8.87009 22.1688 9.0625 21.6514C9.93257 19.3159 9.9698 16.8787 9.07617 14.6348L8.34961 13H7V18C7 18.5523 6.55228 19 6 19H2C1.44772 19 1 18.5523 1 18V2C1 1.44772 1.44772 1 2 1H6ZM15.75 19H17.8076C17.7534 18.3335 17.7549 17.6653 17.8174 17H15.75V19ZM11.6816 17C11.7437 17.6654 11.7448 18.3336 11.6904 19H13.75V17H11.6816ZM3 17H5V3H3V17ZM15.75 15H18.1914C18.298 14.6234 18.4233 14.249 18.5713 13.8789L18.5859 13.8438L18.9609 13H15.75V15ZM10.9141 13.8438L10.9287 13.8789C11.0768 14.2491 11.2022 14.6234 11.3086 15H13.75V13H10.5391L10.9141 13.8438Z" fill="#9E9E9E"/>
</g>
</svg>
