<svg width="24" height="24" viewBox="0 0 24 24" fill="none" xmlns="http://www.w3.org/2000/svg">
<g id="icons/Sports/basketball">
<path id="Union" d="M12 1C15.362 1 18.37 2.50986 20.3877 4.88672C20.4222 4.9172 20.4555 4.95037 20.4863 4.98633C20.5249 5.03142 20.5577 5.07953 20.5869 5.12891C22.0955 7.01177 23 9.39964 23 12C23 14.6001 22.0952 16.9873 20.5869 18.8701C20.5575 18.9199 20.5252 18.9693 20.4863 19.0146C20.4557 19.0503 20.4219 19.082 20.3877 19.1123C18.37 21.4895 15.3623 23 12 23C8.63597 23 5.62614 21.4887 3.6084 19.1094C3.57568 19.0801 3.54401 19.0489 3.51465 19.0146C3.47583 18.9694 3.44243 18.9207 3.41309 18.8711C1.90449 16.9882 1 14.6004 1 12C1 9.39936 1.90421 7.01089 3.41309 5.12793C3.44228 5.07868 3.47611 5.03132 3.51465 4.98633C3.54422 4.95182 3.57542 4.91911 3.6084 4.88965C5.62613 2.51069 8.63624 1 12 1ZM8.39941 13C8.17213 15.0296 7.2453 16.8373 5.68555 18.4121C7.08695 19.7923 8.93844 20.7144 11 20.9424V13H8.39941ZM13 20.9424C15.0613 20.7144 16.9121 19.792 18.3135 18.4121C16.754 16.8374 15.8278 15.0294 15.6006 13H13V20.9424ZM3.05664 13C3.21204 14.4055 3.69142 15.7124 4.41797 16.8467C5.53952 15.663 6.17761 14.3851 6.38086 13H3.05664ZM17.6191 13C17.8225 14.3848 18.4608 15.6623 19.582 16.8457C20.3083 15.7116 20.788 14.4053 20.9434 13H17.6191ZM4.41797 7.15234C3.69117 8.28675 3.21208 9.59417 3.05664 11H6.38086C6.17775 9.61452 5.53981 8.33627 4.41797 7.15234ZM13 11H15.6006C15.8278 8.97029 16.7536 7.16181 18.3135 5.58691C16.9122 4.20724 15.0611 3.28453 13 3.05664V11ZM19.5811 7.15234C18.4596 8.33601 17.8224 9.61488 17.6191 11H20.9434C20.7879 9.59399 20.308 8.28685 19.5811 7.15234ZM11 3.05664C8.93863 3.28456 7.08691 4.20697 5.68555 5.58691C7.24574 7.16193 8.17221 8.97006 8.39941 11H11V3.05664Z" fill="#9E9E9E"/>
</g>
</svg>
