<svg width="24" height="24" viewBox="0 0 24 24" fill="none" xmlns="http://www.w3.org/2000/svg">
<g id="icons/Sports/basketball-stand">
<path id="Union" d="M21 1.5C22.1046 1.5 23 2.39543 23 3.5V15.5C23 16.6046 22.1046 17.5 21 17.5H16.3467L16.0195 19.46L16.4697 21.2578C16.6035 21.7935 16.2779 22.3358 15.7422 22.4697C15.2065 22.6035 14.6642 22.2779 14.5303 21.7422L14.2197 20.5H13V21.5C13 22.0523 12.5523 22.5 12 22.5C11.4477 22.5 11 22.0523 11 21.5V20.5H9.78027L9.46973 21.7422C9.3358 22.2779 8.79353 22.6035 8.25781 22.4697C7.72209 22.3358 7.39648 21.7935 7.53027 21.2578L7.98047 19.46L7.65332 17.5H3C1.89543 17.5 1 16.6046 1 15.5V3.5C1 2.39543 1.89543 1.5 3 1.5H21ZM9.84668 18.5H11V17.5H9.68066L9.84668 18.5ZM13 18.5H14.1533L14.3193 17.5H13V18.5ZM3 15.5H7.32031L7.15332 14.5H7C6.44772 14.5 6 14.0523 6 13.5C6 12.9477 6.44772 12.5 7 12.5H17C17.5523 12.5 18 12.9477 18 13.5C18 14.0523 17.5523 14.5 17 14.5H16.8467L16.6797 15.5H21V3.5H3V15.5ZM9.17969 14.5L9.34668 15.5H11V14.5H9.17969ZM13 14.5V15.5H14.6533L14.8203 14.5H13ZM15.5 6.5C16.0523 6.5 16.5 6.94772 16.5 7.5V11C16.5 11.5523 16.0523 12 15.5 12C14.9477 12 14.5 11.5523 14.5 11V8.5H9.5V11C9.5 11.5523 9.05229 12 8.5 12C7.94772 12 7.5 11.5523 7.5 11V7.5C7.5 6.94772 7.94772 6.5 8.5 6.5H15.5Z" fill="#9E9E9E"/>
</g>
</svg>
