<svg width="24" height="24" viewBox="0 0 24 24" fill="none" xmlns="http://www.w3.org/2000/svg">
<g id="icons/Sports/black-eight">
<path id="Union" d="M12 1C18.0751 1 23 5.92487 23 12C23 18.0751 18.0751 23 12 23C5.92487 23 1 18.0751 1 12C1 5.92487 5.92487 1 12 1ZM12 3C7.02943 3 3 7.02943 3 12C3 16.9706 7.02943 21 12 21C16.9706 21 21 16.9706 21 12C21 7.02943 16.9706 3 12 3ZM12 5.5C13.933 5.5 15.5 7.06702 15.5 9C15.5 9.93369 15.133 10.7806 14.5371 11.4082C15.4301 12.1418 16 13.2542 16 14.5C16 16.7091 14.2091 18.5 12 18.5C9.79086 18.5 8 16.7091 8 14.5C8 13.2544 8.5693 12.1418 9.46191 11.4082C8.86632 10.7807 8.5 9.93345 8.5 9C8.5 7.06702 10.067 5.5 12 5.5ZM12 12.5C10.8954 12.5 10 13.3954 10 14.5C10 15.6046 10.8954 16.5 12 16.5C13.1046 16.5 14 15.6046 14 14.5C14 13.3954 13.1046 12.5 12 12.5ZM12 7.5C11.1716 7.5 10.5 8.17158 10.5 9C10.5 9.82841 11.1716 10.5 12 10.5C12.8284 10.5 13.5 9.82841 13.5 9C13.5 8.17158 12.8284 7.5 12 7.5Z" fill="#9E9E9E"/>
</g>
</svg>
