<svg width="24" height="24" viewBox="0 0 24 24" fill="none" xmlns="http://www.w3.org/2000/svg">
<g id="icons/Sports/bottom-bar-one">
<path id="Union" d="M16.5439 1.22461C17.275 1.22467 18.1377 1.48765 18.8252 2.14062C19.5328 2.81281 19.9726 3.81875 19.9727 5.14258C19.9727 6.44377 19.4986 7.8184 19.0762 8.80176C18.9137 9.17997 18.7488 9.51532 18.6094 9.78906C18.6703 9.85969 18.7397 9.93627 18.8115 10.0225C19.1502 10.4289 19.6021 11.0078 20.0557 11.6973C20.9382 13.0388 21.9316 14.9551 21.9316 16.8984C21.9316 18.8576 21.0523 20.306 20.21 21.2383C19.7889 21.7043 19.3683 22.0511 19.0518 22.2832C18.893 22.3996 18.7585 22.4891 18.6602 22.5508C18.6109 22.5816 18.5699 22.6056 18.54 22.623C18.5254 22.6316 18.5134 22.6392 18.5039 22.6445C18.4992 22.6472 18.4946 22.6495 18.4912 22.6514C18.4895 22.6523 18.4876 22.6526 18.4863 22.6533L18.4844 22.6553L18.0137 21.7959L18.4834 22.6553C18.3394 22.7339 18.1777 22.7753 18.0137 22.7754H15.0742C14.9101 22.7753 14.7485 22.734 14.6045 22.6553L15.0742 21.7959L14.6035 22.6553L14.6016 22.6533C14.6003 22.6526 14.5983 22.6523 14.5967 22.6514C14.5933 22.6495 14.5887 22.6472 14.584 22.6445C14.5745 22.6392 14.5625 22.6316 14.5479 22.623C14.518 22.6056 14.4769 22.5816 14.4277 22.5508C14.3294 22.4891 14.1949 22.3996 14.0361 22.2832C13.7196 22.0511 13.299 21.7043 12.8779 21.2383C12.6251 20.9585 12.3704 20.6314 12.1357 20.2588C11.9011 20.6314 11.6463 20.9585 11.3936 21.2383C10.9725 21.7043 10.5519 22.0511 10.2354 22.2832C10.0766 22.3996 9.94209 22.4891 9.84375 22.5508C9.79454 22.5816 9.7535 22.6056 9.72363 22.623C9.70878 22.6317 9.69606 22.6391 9.68652 22.6445C9.68196 22.6471 9.67806 22.6496 9.6748 22.6514C9.67314 22.6523 9.67123 22.6526 9.66992 22.6533L9.66797 22.6553L9.19727 21.7959L9.66699 22.6553C9.52304 22.7339 9.36131 22.7753 9.19727 22.7754H6.25781C6.09374 22.7753 5.93206 22.734 5.78809 22.6553L6.25781 21.7959L5.78711 22.6553L5.78516 22.6533C5.78385 22.6526 5.78189 22.6523 5.78027 22.6514C5.7769 22.6495 5.77232 22.6472 5.76758 22.6445C5.75809 22.6392 5.74613 22.6316 5.73145 22.623C5.70157 22.6056 5.66052 22.5816 5.61133 22.5508C5.51298 22.4891 5.3785 22.3996 5.21973 22.2832C4.9032 22.0511 4.48264 21.7043 4.06152 21.2383C3.21918 20.306 2.33993 18.8576 2.33984 16.8984C2.33984 14.9553 3.33236 13.0387 4.21484 11.6973C4.66843 11.0078 5.12127 10.4289 5.45996 10.0225C5.5316 9.9365 5.60028 9.85955 5.66113 9.78906C5.52151 9.51542 5.3568 9.17995 5.19434 8.80176C4.77192 7.8184 4.29883 6.44377 4.29883 5.14258C4.29889 3.81888 4.7378 2.8128 5.44531 2.14062C6.13284 1.48755 6.99645 1.22461 7.72754 1.22461C8.45857 1.22467 9.32134 1.48765 10.0088 2.14062C10.7164 2.81281 11.1562 3.81875 11.1562 5.14258C11.1562 6.44377 10.6822 7.8184 10.2598 8.80176C10.0973 9.17997 9.93237 9.51532 9.79297 9.78906C9.85394 9.85969 9.92329 9.93627 9.99512 10.0225C10.3338 10.4289 10.7857 11.0078 11.2393 11.6973C11.5399 12.1542 11.8521 12.6784 12.1348 13.2471C12.4174 12.6782 12.7306 12.1543 13.0312 11.6973C13.4848 11.0078 13.9377 10.4289 14.2764 10.0225C14.348 9.9365 14.4167 9.85955 14.4775 9.78906C14.3379 9.51542 14.1732 9.17995 14.0107 8.80176C13.5883 7.8184 13.1152 6.44377 13.1152 5.14258C13.1153 3.81888 13.5542 2.8128 14.2617 2.14062C14.9492 1.48755 15.8129 1.22461 16.5439 1.22461ZM6.96484 11.2764C6.66069 11.6414 6.25507 12.1601 5.85156 12.7734C5.01987 14.0376 4.29883 15.5504 4.29883 16.8984C4.29891 18.2302 4.88875 19.231 5.51562 19.9248C5.82904 20.2716 6.1435 20.5322 6.37793 20.7041C6.43874 20.7487 6.49551 20.7844 6.54297 20.8164H8.91211C8.95955 20.7844 9.01636 20.7487 9.07715 20.7041C9.31158 20.5322 9.62604 20.2716 9.93945 19.9248C10.5664 19.231 11.1562 18.2303 11.1562 16.8984C11.1562 15.5504 10.4343 14.0376 9.60254 12.7734C9.19911 12.1603 8.79432 11.6413 8.49023 11.2764C8.40884 11.1787 8.33281 11.0942 8.26855 11.0205H7.18652C7.12226 11.0942 7.04623 11.1787 6.96484 11.2764ZM15.7812 11.2764C15.4771 11.6414 15.0715 12.1601 14.668 12.7734C13.8363 14.0376 13.1152 15.5504 13.1152 16.8984C13.1153 18.2302 13.7052 19.231 14.332 19.9248C14.6454 20.2716 14.9599 20.5322 15.1943 20.7041C15.2551 20.7487 15.3119 20.7844 15.3594 20.8164H17.7285C17.776 20.7844 17.8328 20.7487 17.8936 20.7041C18.128 20.5322 18.4424 20.2716 18.7559 19.9248C19.3828 19.231 19.9726 18.2303 19.9727 16.8984C19.9727 15.5504 19.2507 14.0376 18.4189 12.7734C18.0155 12.1603 17.6107 11.6413 17.3066 11.2764C17.2253 11.1787 17.1492 11.0942 17.085 11.0205H16.0029C15.9387 11.0942 15.8626 11.1787 15.7812 11.2764ZM7.72754 3.18359C7.43831 3.18359 7.07675 3.29296 6.79492 3.56055C6.53325 3.8091 6.25788 4.27247 6.25781 5.14258C6.25781 6.03567 6.60119 7.11127 6.99512 8.02832C7.17183 8.43968 7.34921 8.79687 7.48828 9.06152H7.96582C8.10493 8.79682 8.28318 8.43986 8.45996 8.02832C8.85388 7.11127 9.19629 6.03567 9.19629 5.14258C9.19623 4.27249 8.92181 3.80911 8.66016 3.56055C8.37838 3.29289 8.01684 3.18365 7.72754 3.18359ZM16.5439 3.18359C16.2547 3.18359 15.8932 3.29296 15.6113 3.56055C15.3497 3.8091 15.0743 4.27247 15.0742 5.14258C15.0742 6.03567 15.4176 7.11127 15.8115 8.02832C15.9882 8.43968 16.1656 8.79687 16.3047 9.06152H16.7822C16.9213 8.79682 17.0996 8.43986 17.2764 8.02832C17.6703 7.11127 18.0127 6.03567 18.0127 5.14258C18.0126 4.27249 17.7382 3.80911 17.4766 3.56055C17.1948 3.29289 16.8332 3.18365 16.5439 3.18359Z" fill="#9E9E9E"/>
</g>
</svg>
