<svg width="24" height="24" viewBox="0 0 24 24" fill="none" xmlns="http://www.w3.org/2000/svg">
<g id="icons/Sports/bowling">
<path id="Union" d="M12.1357 1.22461C18.089 1.22461 22.9111 6.04675 22.9111 12C22.9111 17.9533 18.089 22.7754 12.1357 22.7754C6.18254 22.7753 1.36035 17.9532 1.36035 12C1.36036 6.04679 6.18254 1.22468 12.1357 1.22461ZM12.1357 3.18359C7.26458 3.18366 3.31935 7.12882 3.31934 12C3.31934 16.8712 7.26457 20.8163 12.1357 20.8164C17.007 20.8164 20.9521 16.8712 20.9521 12C20.9521 7.12878 17.007 3.18359 12.1357 3.18359ZM12.1357 10.041C12.9486 10.0412 13.6045 10.6978 13.6045 11.5107C13.6043 12.3235 12.9485 12.9793 12.1357 12.9795C11.3228 12.9795 10.6662 12.3236 10.666 11.5107C10.666 10.6977 11.3227 10.041 12.1357 10.041ZM8.70801 6.12305C9.52086 6.12323 10.1767 6.77892 10.1768 7.5918C10.1768 8.40475 9.52091 9.06134 8.70801 9.06152C7.89495 9.06152 7.23828 8.40486 7.23828 7.5918C7.23836 6.7788 7.895 6.12305 8.70801 6.12305ZM15.5645 6.12305C16.3773 6.12323 17.0331 6.77892 17.0332 7.5918C17.0332 8.40475 16.3774 9.06134 15.5645 9.06152C14.7514 9.06152 14.0947 8.40486 14.0947 7.5918C14.0948 6.7788 14.7514 6.12305 15.5645 6.12305Z" fill="#9E9E9E"/>
</g>
</svg>
