<svg width="24" height="24" viewBox="0 0 24 24" fill="none" xmlns="http://www.w3.org/2000/svg">
<g id="icons/Sports/boxing-one">
<path id="Union" d="M18 1C20.7623 1 23 3.23772 23 6V8C23 9.30864 22.3696 10.4712 21.3965 11.2012C21.7736 11.7027 22 12.3242 22 13V15C22 16.8638 20.7252 18.43 19 18.874V21C19 22.1023 18.1023 23 17 23H7C5.88946 23 5 22.099 5 21V18.874C3.27477 18.43 2 16.8638 2 15V10.6025C1.98306 10.5878 1.96584 10.5742 1.9502 10.5596C1.72074 10.3454 1.54696 10.0803 1.41797 9.82227C1.15946 9.30525 1 8.65167 1 8V6C1 3.23772 3.23772 1 6 1H18ZM7 21H17V19H7V21ZM5.5 9C4.67228 9 4 9.67229 4 10.5V15C4 16.1046 4.89543 17 6 17H18C19.1046 17 20 16.1046 20 15V13C20 12.4477 19.5523 12 19 12H10.6621C10.1001 13.1821 8.89544 14 7.5 14H6.5C5.94772 14 5.5 13.5523 5.5 13C5.5 12.4477 5.94772 12 6.5 12H7.5C8.32772 12 9 11.3277 9 10.5C9 9.67229 8.32772 9 7.5 9H5.5ZM6 3C4.34228 3 3 4.34228 3 6V8C3 8.01661 3.00057 8.03321 3.00098 8.0498C3.63627 7.40194 4.52145 7 5.5 7H7.5C9.2625 7 10.721 8.30441 10.9639 10H19C20.1027 10 21 9.10272 21 8V6C21 4.34228 19.6577 3 18 3H6Z" fill="#9E9E9E"/>
</g>
</svg>
