<svg width="24" height="24" viewBox="0 0 24 24" fill="none" xmlns="http://www.w3.org/2000/svg">
<g id="icons/Sports/boxing">
<path id="Union" d="M19 1C21.2091 1 23 2.79086 23 5V15C23 16.8638 21.7266 18.4308 20 18.874V21C20 22.099 19.1105 23 18 23H8.5C7.40097 23 6.5 22.1105 6.5 21V18.9043C4.81716 18.5906 3.51321 17.5134 2.62402 16.2686C1.57501 14.7999 1 12.9744 1 11.5V7.5C1 6.94772 1.44772 6.5 2 6.5H4.5V5C4.5 2.79086 6.29087 1 8.5 1H19ZM8.5 21H18V19H8.5V21ZM8.5 3C7.39543 3 6.5 3.89543 6.5 5V11C6.5 11.5523 6.05228 12 5.5 12C4.94772 12 4.5 11.5523 4.5 11V8.5H3V11.5C3 12.5256 3.42499 13.9501 4.25098 15.1064C5.06773 16.2499 6.17312 17 7.5 17H19.0029C20.1062 17 21 16.1059 21 15V5C21 3.89543 20.1046 3 19 3H8.5Z" fill="#9E9E9E"/>
</g>
</svg>
