<svg width="24" height="24" viewBox="0 0 24 24" fill="none" xmlns="http://www.w3.org/2000/svg">
<g id="icons/Sports/checkerboard">
<path id="Union" d="M20.5 1C21.8807 1 23 2.1193 23 3.5V20.5C23 21.8807 21.8807 23 20.5 23H3.5C2.1193 23 1 21.8807 1 20.5V3.5C1 2.11929 2.11929 1 3.5 1H20.5ZM3 20.5C3 20.7762 3.22385 21 3.5 21H7.5V16.5H3V20.5ZM12.668 16.4844C12.6133 16.4936 12.5573 16.5 12.5 16.5H9.5V21H14.5V18.3252C13.6433 18.0219 12.9665 17.3433 12.668 16.4844ZM18.3262 16.5C18.0249 17.3515 17.3515 18.0238 16.5 18.3252V21H20.5C20.7762 21 21 20.7762 21 20.5V16.5H18.3262ZM15.5 14.5C14.9477 14.5 14.5 14.9477 14.5 15.5C14.5 16.0523 14.9477 16.5 15.5 16.5C16.0523 16.5 16.5 16.0523 16.5 15.5C16.5 14.9477 16.0523 14.5 15.5 14.5ZM11.3311 9.48438C11.0325 10.3432 10.3566 11.022 9.5 11.3252V14.5H12.5C12.5573 14.5 12.6133 14.5054 12.668 14.5146C12.9667 13.656 13.6434 12.9769 14.5 12.6738V9.5H11.5C11.4423 9.5 11.386 9.49375 11.3311 9.48438ZM3 9.5V14.5H7.5V11.3252C6.64853 11.0238 5.97514 10.3515 5.67383 9.5H3ZM16.5 12.6738C17.3516 12.9752 18.0248 13.6484 18.3262 14.5H21V9.5H16.5V12.6738ZM8.5 7.5C7.94773 7.5 7.5 7.94773 7.5 8.5C7.5 9.05227 7.94773 9.5 8.5 9.5C9.05227 9.5 9.5 9.05227 9.5 8.5C9.5 7.94773 9.05227 7.5 8.5 7.5ZM9.5 5.67383C10.3565 5.97689 11.0323 6.65616 11.3311 7.51465C11.386 7.5053 11.4424 7.5 11.5 7.5H14.5V3H9.5V5.67383ZM3.5 3C3.22386 3 3 3.22386 3 3.5V7.5H5.67383C5.97517 6.64839 6.64839 5.97517 7.5 5.67383V3H3.5ZM16.5 7.5H21V3.5C21 3.22385 20.7762 3 20.5 3H16.5V7.5Z" fill="#9E9E9E"/>
</g>
</svg>
