<svg width="24" height="24" viewBox="0 0 24 24" fill="none" xmlns="http://www.w3.org/2000/svg">
<g id="icons/Sports/chess-one">
<path id="Union" d="M12 1C14.7614 1 17 3.23858 17 6C17 6.91157 16.754 7.76465 16.3281 8.5H17C17.5523 8.5 18 8.94772 18 9.5C18 10.0523 17.5523 10.5 17 10.5H15.2041L17.2598 17.5361C17.3241 17.5534 17.3873 17.5755 17.4473 17.6055L20.4473 19.1055C20.786 19.2749 21 19.6212 21 20V22C21 22.5523 20.5523 23 20 23H4C3.44772 23 3 22.5523 3 22V20L3.00977 19.8594C3.05546 19.5372 3.25641 19.2536 3.55273 19.1055L6.55273 17.6055L6.65918 17.5596C6.68591 17.5499 6.71281 17.5405 6.74023 17.5332L8.7959 10.5H7C6.44772 10.5 6 10.0523 6 9.5C6 8.94772 6.44772 8.5 7 8.5H7.67188C7.24601 7.76465 7 6.91157 7 6C7 3.23858 9.23856 1 12 1ZM5 20.6182V21H19V20.6182L16.7637 19.5H7.23633L5 20.6182ZM10.8672 10.541L14.7256 15.9932L13.1201 10.5H10.8799L10.8672 10.541ZM12 3C10.3431 3 9 4.34314 9 6C9 7.04234 9.53154 7.96138 10.3418 8.5H13.6582C14.4685 7.96138 15 7.04234 15 6C15 4.34314 13.6569 3 12 3Z" fill="#9E9E9E"/>
</g>
</svg>
