<svg width="24" height="24" viewBox="0 0 24 24" fill="none" xmlns="http://www.w3.org/2000/svg">
<g id="icons/Sports/chess">
<path id="Union" d="M17 1C17.5523 1 18 1.44772 18 2V7C18 7.55228 17.5523 8 17 8H14.7939L15.4492 10.5098H18C18.5523 10.5098 19 10.9575 19 11.5098C19 12.0621 18.5523 12.5098 18 12.5098H15.9707L17.2832 17.541C17.3395 17.5576 17.3944 17.5791 17.4473 17.6055L20.4473 19.1055C20.786 19.2749 21 19.6212 21 20V22C21 22.5523 20.5523 23 20 23H4C3.44772 23 3 22.5523 3 22V20L3.00977 19.8594C3.05546 19.5372 3.25641 19.2536 3.55273 19.1055L6.55273 17.6055L6.65918 17.5596C6.67787 17.5528 6.69677 17.5466 6.71582 17.541L8.0293 12.5098H6C5.44772 12.5098 5 12.0621 5 11.5098C5 10.9575 5.44772 10.5098 6 10.5098H8.55078L9.20605 8H7C6.44772 8 6 7.55228 6 7V2C6 1.44772 6.44772 1 7 1H17ZM5 20.6182V21H19V20.6182L16.7637 19.5H7.23633L5 20.6182ZM8.79395 17.5H15.2061L13.9043 12.5098H10.0957L8.79395 17.5ZM10.6172 10.5098H13.3828L12.7275 8H11.2725L10.6172 10.5098ZM8 6H16V3H14.75V4C14.75 4.55228 14.3023 5 13.75 5C13.1977 5 12.75 4.55228 12.75 4V3H11.25V4C11.25 4.55228 10.8023 5 10.25 5C9.69772 5 9.25 4.55228 9.25 4V3H8V6Z" fill="#9E9E9E"/>
</g>
</svg>
