<svg width="24" height="24" viewBox="0 0 24 24" fill="none" xmlns="http://www.w3.org/2000/svg">
<g id="icons/Sports/court">
<path id="Union" d="M22 5C22.5523 5 23 5.44772 23 6V18C23 18.5523 22.5523 19 22 19H2C1.44772 19 1 18.5523 1 18V6C1 5.44772 1.44772 5 2 5H22ZM3 9H3.5C5.15686 9 6.5 10.3432 6.5 12C6.5 13.6568 5.15686 15 3.5 15H3V17H11V14.8252C9.83548 14.413 9 13.3057 9 12C9 10.6941 9.83532 9.58594 11 9.17383V7H3V9ZM13 9.17383C14.1647 9.58594 15 10.6941 15 12C15 13.3057 14.1645 14.413 13 14.8252V17H21V15H20.5C18.8432 15 17.5 13.6568 17.5 12C17.5 10.3432 18.8432 9 20.5 9H21V7H13V9.17383ZM3 13H3.5C4.05228 13 4.5 12.5523 4.5 12C4.5 11.4477 4.05228 11 3.5 11H3V13ZM12 11C11.4477 11 11 11.4477 11 12C11 12.5523 11.4477 13 12 13C12.5523 13 13 12.5523 13 12C13 11.4477 12.5523 11 12 11ZM20.5 11C19.9477 11 19.5 11.4477 19.5 12C19.5 12.5523 19.9477 13 20.5 13H21V11H20.5Z" fill="#9E9E9E"/>
</g>
</svg>
