<svg width="24" height="24" viewBox="0 0 24 24" fill="none" xmlns="http://www.w3.org/2000/svg">
<g id="icons/Sports/curling">
<path id="Union" d="M17.75 2C19.2673 2 20.5 3.23272 20.5 4.75C20.5 6.26728 19.2673 7.5 17.75 7.5H12V10H19C21.2062 10 23 11.7866 23 14V18C23 20.2123 21.2123 22 19 22H5C2.7938 22 1 20.2134 1 18V14C1 12.0248 2.43208 10.3804 4.32031 10.0576L7.31934 3.20898C7.63416 2.46767 8.36175 2 9.15527 2H17.75ZM3 18C3 19.1066 3.8962 20 5 20H19C20.1077 20 21 19.1077 21 18V17H3V18ZM5 12C3.89337 12 3 12.8962 3 14V15H21V14C21 12.8934 20.1038 12 19 12H5ZM9.15625 4.00098L6.5293 10H10V6.5C10 5.94772 10.4477 5.5 11 5.5H17.75C18.1627 5.5 18.5 5.16272 18.5 4.75C18.5 4.33728 18.1627 4 17.75 4H9.15625V4.00098Z" fill="#9E9E9E"/>
</g>
</svg>
