<svg width="24" height="24" viewBox="0 0 24 24" fill="none" xmlns="http://www.w3.org/2000/svg">
<g id="icons/Sports/diving-suit">
<path id="Union" d="M12.9551 1C15.9421 1.00004 18.4335 3.15764 18.9141 6H22C22.5523 6 23 6.44772 23 7V16C23 18.7623 20.7623 21 18 21H14V22C14 22.5523 13.5523 23 13 23H7C6.44772 23 6 22.5523 6 22V18C6 17.4477 6.44772 17 7 17H13C13.5523 17 14 17.4477 14 18V19H18C19.6577 19 21 17.6577 21 16V8H18.9141C18.4335 10.8424 15.9421 13 12.9551 13H12.6836L12.7617 13.4648L12.7627 13.4717C12.9746 14.7912 11.954 16 10.6104 16H9.39062C8.04622 16 7.01649 14.7934 7.23926 13.4648L7.31738 13H7.04492C3.71614 13 1 10.3208 1 7C1 3.67915 3.71614 1.00004 7.04492 1C7.28125 1 7.50994 1.08378 7.69043 1.23633L10 3.18945L12.3096 1.23633L12.3789 1.18262C12.5469 1.0642 12.7481 1 12.9551 1ZM8 21H12V19H8V21ZM10 10C9.90778 10.0002 9.8357 10.0629 9.82129 10.1494V10.1504L9.49512 12.1006C9.49127 12.1391 9.48369 12.1767 9.47559 12.2139L9.21191 13.7949V13.7959C9.19513 13.8971 9.27526 14 9.39062 14H10.6104C10.7165 14 10.8056 13.8992 10.7881 13.7891H10.7871L10.5234 12.2139C10.5153 12.1765 10.5077 12.1385 10.5039 12.0996L10.1787 10.1504V10.1494C10.1647 10.0654 10.09 10 10 10ZM10.6455 5.26367C10.2728 5.57871 9.7272 5.57871 9.35449 5.26367L6.69629 3.01465C4.61963 3.1899 3 4.91587 3 7C3 9.19941 4.80378 11 7.04492 11H7.65137L7.84863 9.82031L7.89062 9.62695C8.13885 8.67465 8.99916 8.00016 10 8C11.0599 8 11.9752 8.76453 12.1514 9.82031L12.3486 11H12.9551C15.1962 11 17 9.19941 17 7C17 4.91555 15.3799 3.18945 13.3027 3.01465L10.6455 5.26367Z" fill="#9E9E9E"/>
</g>
</svg>
