<svg width="24" height="24" viewBox="0 0 24 24" fill="none" xmlns="http://www.w3.org/2000/svg">
<g id="icons/Sports/diving-bottle">
<path id="Union" d="M21.524 19.1201C22.0098 18.8575 22.6169 19.0387 22.8795 19.5244C23.1421 20.0103 22.9611 20.6173 22.4752 20.8799L21.2252 21.5557C20.1286 22.1483 18.8707 22.1484 17.774 21.5557C17.2709 21.2838 16.7284 21.2837 16.2252 21.5557C15.1286 22.1483 13.8707 22.1484 12.774 21.5557C12.2709 21.2838 11.7284 21.2837 11.2252 21.5557C10.1286 22.1483 8.87066 22.1484 7.77405 21.5557C7.27085 21.2838 6.7284 21.2837 6.22522 21.5557C5.12859 22.1483 3.87066 22.1484 2.77405 21.5557L1.52405 20.8799C1.03845 20.6172 0.857305 20.0101 1.11975 19.5244C1.38233 19.0387 1.98942 18.8577 2.47522 19.1201L3.72522 19.7959C4.2284 20.0679 4.77086 20.0678 5.27405 19.7959C6.37069 19.2031 7.62855 19.2032 8.72522 19.7959C9.2284 20.0679 9.77085 20.0678 10.274 19.7959C11.3707 19.2031 12.6285 19.2032 13.7252 19.7959C14.2284 20.0679 14.7709 20.0678 15.274 19.7959C16.3707 19.2031 17.6285 19.2032 18.7252 19.7959C19.2284 20.0679 19.7709 20.0678 20.274 19.7959L21.524 19.1201ZM10.4996 1C11.0519 1 11.4996 1.44772 11.4996 2V4C11.4996 4.55228 11.0519 5 10.4996 5C9.9475 4.99982 9.49963 4.55217 9.49963 4H7.99963V4.67383C8.05603 4.69378 8.11281 4.71218 8.1676 4.73535C9.24447 5.19072 9.99963 6.25727 9.99963 7.5V15.5C9.99963 17.1569 8.65649 18.5 6.99963 18.5C5.34293 18.4998 3.99963 17.1567 3.99963 15.5V7.5C3.99963 6.25717 4.75563 5.19066 5.83264 4.73535C5.88716 4.7123 5.94353 4.69369 5.99963 4.67383V4C5.4475 3.99982 4.99963 3.55217 4.99963 3C4.99963 2.44783 5.4475 2.00018 5.99963 2C5.99963 1.44783 6.4475 1.00018 6.99963 1C7.55192 1 7.99963 1.44772 7.99963 2H9.49963C9.49963 1.44783 9.9475 1.00018 10.4996 1ZM18.9996 1C19.5519 1 19.9996 1.44772 19.9996 2V4C19.9996 4.55228 19.5519 5 18.9996 5C18.4475 4.99982 17.9996 4.55217 17.9996 4H16.4996V4.67383C17.6645 5.08586 18.4996 6.19404 18.4996 7.5V15.5C18.4996 17.1569 17.1565 18.5 15.4996 18.5C13.8429 18.4998 12.4996 17.1567 12.4996 15.5V7.5C12.4996 6.19426 13.3351 5.08603 14.4996 4.67383V4C13.9475 3.99982 13.4996 3.55217 13.4996 3C13.4996 2.44783 13.9475 2.00018 14.4996 2C14.4996 1.44783 14.9475 1.00018 15.4996 1C16.0519 1 16.4996 1.44772 16.4996 2H17.9996C17.9996 1.44783 18.4475 1.00018 18.9996 1ZM5.99963 10.5V15.5C5.99963 16.0522 6.4475 16.4998 6.99963 16.5C7.55192 16.5 7.99963 16.0523 7.99963 15.5V10.5H5.99963ZM14.4996 15.5C14.4996 16.0522 14.9475 16.4998 15.4996 16.5C16.0519 16.5 16.4996 16.0523 16.4996 15.5V10.5H14.4996V15.5ZM6.99963 6.5C6.4475 6.50018 5.99963 6.94783 5.99963 7.5V8.5H7.99963V7.5C7.99963 6.94772 7.55192 6.5 6.99963 6.5ZM15.4996 6.5C14.9475 6.50018 14.4996 6.94783 14.4996 7.5V8.5H16.4996V7.5C16.4996 6.94772 16.0519 6.5 15.4996 6.5Z" fill="#9E9E9E"/>
</g>
</svg>
