<svg width="24" height="24" viewBox="0 0 24 24" fill="none" xmlns="http://www.w3.org/2000/svg">
<g id="icons/Sports/dumbbel-line">
<path id="Union" d="M17.5 4C18.0523 4 18.5 4.44772 18.5 5V11H19.5V7C19.5 6.44772 19.9477 6 20.5 6C21.0523 6 21.5 6.44772 21.5 7V11H22C22.5523 11 23 11.4477 23 12C23 12.5523 22.5523 13 22 13H21.5V17C21.5 17.5523 21.0523 18 20.5 18C19.9477 18 19.5 17.5523 19.5 17V13H18.5V19C18.5 19.5523 18.0523 20 17.5 20C16.9477 20 16.5 19.5523 16.5 19V13H7.5V19C7.5 19.5523 7.05228 20 6.5 20C5.94772 20 5.5 19.5523 5.5 19V13H4.5V17C4.5 17.5523 4.05228 18 3.5 18C2.94772 18 2.5 17.5523 2.5 17V13H2C1.44772 13 1 12.5523 1 12C1 11.4477 1.44772 11 2 11H2.5V7C2.5 6.44772 2.94772 6 3.5 6C4.05228 6 4.5 6.44772 4.5 7V11H5.5V5C5.5 4.44772 5.94772 4 6.5 4C7.05228 4 7.5 4.44772 7.5 5V11H16.5V5C16.5 4.44772 16.9477 4 17.5 4Z" fill="#9E9E9E"/>
</g>
</svg>
