<svg width="24" height="24" viewBox="0 0 24 24" fill="none" xmlns="http://www.w3.org/2000/svg">
<g id="icons/Sports/fitness">
<path id="Union" d="M8 2C12.1321 2 14.1885 3.48041 14.4873 5.3418C14.538 5.65848 14.4338 5.98024 14.207 6.20703L11.707 8.70703C11.5163 8.89778 11.2561 9.00357 10.9863 9C10.7168 8.99632 10.46 8.884 10.2744 8.68848C9.64632 8.0262 9.19242 7.64884 8.88574 7.43945C8.68933 9.16503 8.67129 10.9456 8.76758 12.2646C9.88303 11.6601 10.9108 11.4915 11.8447 11.5986C12.707 11.6976 13.4304 12.0357 13.9424 12.3164C15.8832 11.0137 17.5386 10.7325 18.9414 10.9473C19.6821 11.0607 20.3028 11.3054 20.7988 11.5391C21.0437 11.6544 21.2686 11.7718 21.4492 11.8652C21.6417 11.9649 21.7734 12.0315 21.8799 12.0752C22.3907 12.2851 22.6347 12.869 22.4248 13.3799C22.2149 13.8907 21.631 14.1346 21.1201 13.9248C20.9199 13.8426 20.7125 13.7359 20.5303 13.6416C20.3363 13.5412 20.1504 13.4443 19.9473 13.3486C19.5472 13.1601 19.1194 12.9984 18.6387 12.9248C17.7269 12.7852 16.4234 12.932 14.5996 14.2998C14.2832 14.5369 13.8568 14.566 13.5117 14.373C12.9088 14.0359 12.3636 13.6707 11.6172 13.585C10.9447 13.5078 9.97219 13.659 8.64062 14.7686C8.37569 14.9893 8.0151 15.0579 7.6875 14.9502C7.35994 14.8425 7.11155 14.5731 7.0293 14.2383C6.63621 12.637 6.5798 9.24412 7.01074 6.35254L7.03711 6.23145C7.04816 6.19182 7.06128 6.1523 7.07715 6.11426C7.19932 5.82174 7.44326 5.49692 7.86133 5.32227C8.27171 5.15087 8.7029 5.18611 9.08496 5.30957C9.63213 5.48648 10.2566 5.90085 10.9971 6.58789L12.3262 5.25879C11.9532 4.74713 10.8922 4 8 4C7.14432 4 6.03466 4.76053 5.46191 6.77344C5.45669 6.79182 5.45061 6.81008 5.44434 6.82812C5.06931 7.9066 4.57952 9.73622 4.18359 11.6758C3.78595 13.6239 3.5 15.6028 3.5 17C3.50038 17.0743 3.94807 19 8.5 19C9.48667 19 12.2237 19.1059 15.5889 17.5879L15.7217 17.5391C16.0377 17.4474 16.3832 17.5169 16.6406 17.7314L19.6406 20.2314C20.0646 20.5849 20.1217 21.2154 19.7686 21.6396C19.415 22.0639 18.7837 22.1221 18.3594 21.7686L15.8301 19.6602C12.3101 21.1054 9.46102 21 8.5 21C3.55396 21 1.50007 18.775 1.5 17C1.5 15.3973 1.81946 13.2602 2.22461 11.2754C2.63151 9.28206 3.14213 7.36117 3.55566 6.17188C4.2535 3.77801 5.87193 2 8 2Z" fill="#9E9E9E"/>
</g>
</svg>
