<svg width="24" height="24" viewBox="0 0 24 24" fill="none" xmlns="http://www.w3.org/2000/svg">
<g id="icons/Sports/football">
<path id="Union" d="M12 1C18.0751 1 23 5.92487 23 12C23 18.0751 18.0751 23 12 23C5.92487 23 1 18.0751 1 12C1 5.92487 5.92487 1 12 1ZM9.16309 17.5283V20.25L9.1582 20.3525C9.15209 20.4126 9.14029 20.4709 9.12402 20.5273C10.0274 20.8319 10.9939 21 12 21C13.0303 21 14.0195 20.8246 14.9414 20.5059C14.9198 20.4241 14.9072 20.3385 14.9072 20.25V17.5283L14.1123 16.4551H9.95801L9.16309 17.5283ZM5.47852 18.1992C5.9807 18.7273 6.54619 19.1938 7.16309 19.5879V18.1992H5.47852ZM16.9072 18.1992V19.543C17.4969 19.1586 18.0384 18.7073 18.5215 18.1992H16.9072ZM3.39844 12.0137C3.26919 12.0698 3.13441 12.0945 3.00195 12.0947C3.01735 13.5877 3.3956 14.9931 4.05371 16.2275C4.12981 16.209 4.20921 16.1992 4.29102 16.1992H7.65918L8.3623 15.248L7.32617 11.4004L6.02441 10.873L3.39844 12.0137ZM16.7422 11.4004L15.707 15.248L16.4111 16.1992H19.7793C19.8383 16.1992 19.896 16.2041 19.9521 16.2139C20.5619 15.0656 20.9299 13.7706 20.9893 12.3945L18.0117 10.8857L16.7422 11.4004ZM9.2998 11.0361L10.2197 14.4551H13.8496L14.7695 11.0371L12.0342 8.88184L9.2998 11.0361ZM19.3037 9.29883L20.7852 10.0498C20.6002 9.21268 20.3006 8.41916 19.9004 7.6875L19.3037 9.29883ZM4.14062 7.61426C3.74472 8.32221 3.4427 9.08901 3.24902 9.89844L4.74512 9.24805L4.14062 7.61426ZM8.21191 3.83496C7.20747 4.30175 6.30401 4.94825 5.54199 5.7334C5.58842 5.80067 5.62851 5.87393 5.6582 5.9541L6.79492 9.02637L8 9.51465L11.0342 7.12402V5.93945L8.43652 4.06055C8.34754 3.99615 8.2728 3.91946 8.21191 3.83496ZM15.8389 3.8584C15.7812 3.93355 15.7125 4.00218 15.6318 4.06055L13.0342 5.93945V7.12305L16.0684 9.51465L17.2725 9.02637L18.4102 5.9541C18.4337 5.89061 18.4629 5.83089 18.4971 5.77539C17.7395 4.98492 16.8405 4.33153 15.8389 3.8584ZM12 3C11.5053 3 11.0199 3.04039 10.5469 3.11719L12.0342 4.19434L13.5078 3.12793C13.0174 3.04519 12.5139 3 12 3Z" fill="#9E9E9E"/>
</g>
</svg>
