<svg width="24" height="24" viewBox="0 0 24 24" fill="none" xmlns="http://www.w3.org/2000/svg">
<g id="icons/Sports/foot">
<path id="Union" d="M15.7206 1.04004C16.2508 0.885771 16.8055 1.1905 16.9598 1.7207C17.2889 2.85133 18.1652 4.14603 19.2596 5.69629C20.2398 7.08464 21.3692 8.64676 22.1161 10.2646L22.2606 10.5898L22.3134 10.749C22.7607 12.6156 22.3679 14.0233 21.4882 14.9668C20.6722 15.8418 19.5682 16.1727 18.7889 16.2305L18.7899 16.2314C18.0699 16.3022 17.3569 16.6501 16.7294 17.1152C16.1224 17.5651 15.6631 18.075 15.4335 18.3896C14.638 19.8384 13.8092 20.9157 13.0106 21.6465C12.2288 22.3619 11.3566 22.8545 10.5057 22.8545H6.73132C4.52381 23.2306 3.26321 22.8311 2.54968 22.0615C1.60715 21.0448 1.25311 19.9021 1.67175 18.8984C2.06401 17.9581 3.03417 17.4516 3.953 17.5518C4.75389 17.6391 5.31215 17.6162 5.67175 17.5664C6.05613 17.5132 6.16055 17.4372 6.10632 17.4727C6.15083 17.4435 6.19741 17.4172 6.24597 17.3955C7.0274 17.0468 7.64255 16.3754 8.1073 15.3994C8.57535 14.4164 8.86246 13.1788 9.00183 11.8203C9.28072 9.10127 8.94751 6.10726 8.52429 4.21875C8.40358 3.67994 8.74238 3.1453 9.28113 3.02441C9.81998 2.90365 10.3546 3.24244 10.4755 3.78125C10.935 5.83195 11.2975 9.04673 10.9921 12.0244C10.8392 13.5144 10.5138 14.9981 9.91296 16.2598C9.31788 17.5094 8.42464 18.5909 7.12 19.1934C6.8289 19.3605 6.42662 19.4813 5.94617 19.5479C5.39489 19.6241 4.66855 19.6417 3.73621 19.54C3.65191 19.5309 3.55048 19.5892 3.51746 19.668C3.51082 19.6839 3.37904 20.0145 4.01648 20.7021C4.07031 20.7602 4.51159 21.2209 6.47742 20.8701C6.53524 20.8598 6.59446 20.8545 6.6532 20.8545H10.5057C10.6179 20.8545 11.0224 20.7563 11.661 20.1719C12.2688 19.6156 12.9879 18.708 13.7206 17.3594L13.785 17.2559C14.1245 16.7798 14.7395 16.1013 15.5389 15.5088C16.3358 14.9182 17.3886 14.3596 18.5946 14.2412L18.6268 14.2383C19.0498 14.2106 19.6364 14.0202 20.0253 13.6035C20.3548 13.2501 20.6765 12.5898 20.3846 11.2939C19.7428 9.82552 18.6938 8.36231 17.6259 6.84961C16.5871 5.3782 15.4813 3.79587 15.0399 2.2793C14.8857 1.74912 15.1904 1.19442 15.7206 1.04004Z" fill="#9E9E9E"/>
</g>
</svg>
