<svg width="24" height="24" viewBox="0 0 24 24" fill="none" xmlns="http://www.w3.org/2000/svg">
<g id="icons/Sports/gold-medal">
<path id="Union" d="M8.65259 1.01172C9.00178 1.06552 9.30217 1.30128 9.43286 1.6377L11.1428 6.04199C11.425 6.01374 11.7112 6 12.0002 6C12.289 6.00001 12.5748 6.01378 12.8567 6.04199L14.5676 1.6377L14.634 1.5C14.8106 1.19395 15.1393 1 15.5002 1H22.0002C22.3278 1.00007 22.6347 1.16063 22.8215 1.42969C23.0083 1.699 23.0515 2.04359 22.9368 2.35059L19.7219 10.9473C20.2205 12.0294 20.5002 13.2333 20.5002 14.5C20.5002 19.1944 16.6946 22.9999 12.0002 23C7.30581 23 3.50024 19.1944 3.50024 14.5C3.50024 13.233 3.77886 12.0286 4.27759 10.9463L1.06372 2.35059C0.948917 2.04354 0.992107 1.69903 1.17896 1.42969C1.36584 1.16063 1.67263 1 2.00024 1H8.50024L8.65259 1.01172ZM12.0002 8C11.5539 8 11.1188 8.04477 10.6995 8.12988C8.76905 8.52173 7.14547 9.77243 6.24927 11.4678C5.77136 12.372 5.50024 13.4028 5.50024 14.5C5.50024 18.0899 8.41038 21 12.0002 21C15.59 20.9999 18.5002 18.0898 18.5002 14.5C18.5002 13.4029 18.2291 12.372 17.7512 11.4678C16.8551 9.77244 15.2314 8.52178 13.301 8.12988C12.8817 8.04475 12.4466 8.00001 12.0002 8ZM11.6838 10.0518C11.9887 9.95019 12.3245 10.0006 12.5852 10.1885C12.8459 10.3764 13.0002 10.6786 13.0002 11V16.5H14.0002C14.5524 16.5001 15.0002 16.9478 15.0002 17.5C15.0002 18.0522 14.5524 18.4999 14.0002 18.5H10.0002C9.44796 18.5 9.00024 18.0523 9.00024 17.5C9.00024 16.9477 9.44796 16.5 10.0002 16.5H11.0002V12.3867L10.8167 12.4482C10.2928 12.6229 9.72679 12.3401 9.552 11.8164C9.37739 11.2926 9.66008 10.7265 10.1838 10.5518L11.6838 10.0518ZM5.63599 8.86914C5.6528 8.85015 5.66979 8.83133 5.68677 8.8125C5.77577 8.71375 5.86672 8.61693 5.96021 8.52246C5.98903 8.49334 6.01788 8.46425 6.04712 8.43555C6.14656 8.3379 6.24864 8.24309 6.35278 8.15039C6.3707 8.13445 6.38845 8.11833 6.40649 8.10254C6.72612 7.82282 7.0667 7.56684 7.42603 7.33691C7.45006 7.32155 7.47409 7.30615 7.49829 7.29102C8.01967 6.96474 8.57875 6.69363 9.16821 6.48535L7.81567 3H3.44165L5.63599 8.86914ZM14.8303 6.48535C16.0191 6.90514 17.0844 7.58133 17.9631 8.44727C17.9828 8.46665 18.0022 8.48628 18.0217 8.50586C18.1391 8.62375 18.2532 8.74457 18.3635 8.86914L20.5588 3H16.1848L14.8303 6.48535Z" fill="#9E9E9E"/>
</g>
</svg>
