<svg width="24" height="24" viewBox="0 0 24 24" fill="none" xmlns="http://www.w3.org/2000/svg">
<g id="icons/Sports/gold-medal-two">
<path id="Union" d="M20 1C20.5523 1 21 1.44772 21 2V7C21 7.31476 20.8514 7.61095 20.5996 7.7998L17 10.499V11.1035C17.5306 11.6454 17.9733 12.2733 18.3066 12.9648C18.3147 12.9815 18.3231 12.9979 18.3311 13.0146C18.3669 13.0906 18.4004 13.1677 18.4336 13.2451C18.4492 13.2815 18.4654 13.3177 18.4805 13.3545C18.5033 13.4105 18.5254 13.4668 18.5469 13.5234C18.568 13.5791 18.5887 13.635 18.6084 13.6914C18.6269 13.7445 18.6448 13.7979 18.6621 13.8516C18.6824 13.9143 18.7012 13.9775 18.7197 14.041C18.7355 14.0952 18.7511 14.1494 18.7656 14.2041C18.7806 14.2604 18.7941 14.3172 18.8076 14.374C18.8221 14.435 18.8367 14.496 18.8496 14.5576C18.8613 14.6133 18.8715 14.6694 18.8818 14.7256C18.8931 14.7869 18.9044 14.8483 18.9141 14.9102C18.9254 14.9827 18.9342 15.0557 18.9434 15.1289C18.9485 15.1699 18.9546 15.2108 18.959 15.252C18.9852 15.4978 19 15.7472 19 16C19 19.866 15.866 23 12 23C8.13402 23 5 19.866 5 16C5 15.7473 5.01386 15.4977 5.04004 15.252C5.04442 15.2108 5.05057 15.1699 5.05566 15.1289C5.06478 15.0557 5.0736 14.9827 5.08496 14.9102C5.09464 14.8483 5.1059 14.7869 5.11719 14.7256C5.12755 14.6694 5.13772 14.6133 5.14941 14.5576C5.16232 14.496 5.1769 14.435 5.19141 14.374C5.20496 14.3172 5.21846 14.2604 5.2334 14.2041C5.24788 14.1494 5.26354 14.0952 5.2793 14.041C5.29781 13.9775 5.31667 13.9143 5.33691 13.8516C5.35424 13.7978 5.37302 13.7446 5.3916 13.6914C5.41129 13.6351 5.43108 13.579 5.45215 13.5234C5.47359 13.4668 5.49569 13.4105 5.51855 13.3545C5.53359 13.3178 5.54979 13.2815 5.56543 13.2451C5.59861 13.1677 5.63211 13.0906 5.66797 13.0146C5.67587 12.9979 5.68435 12.9815 5.69238 12.9648C6.02574 12.2731 6.46932 11.6455 7 11.1035V10.499L3.40039 7.7998C3.14858 7.61095 3 7.31476 3 7V2C3 1.44772 3.44772 1 4 1H20ZM5 6.5L7 8V3H5V6.5ZM17 8L19 6.5V3H17V8Z" fill="#9E9E9E"/>
</g>
</svg>
