<svg width="24" height="24" viewBox="0 0 24 24" fill="none" xmlns="http://www.w3.org/2000/svg">
<g id="icons/Sports/golf-course">
<path id="Union" d="M5.95898 1.15918C6.2448 0.975274 6.60464 0.949198 6.91406 1.08984L12.4141 3.58984C12.7709 3.75219 13 4.10799 13 4.5C12.9999 4.89197 12.7708 5.24785 12.4141 5.41016L7.5 7.64355V11.5049C8.87984 11.1786 10.4057 11 12 11C14.883 11 17.5428 11.5824 19.5186 12.5703C21.4343 13.5283 23 15.0366 23 17C22.9999 18.9633 21.4343 20.4717 19.5186 21.4297C17.5428 22.4175 14.883 23 12 23C9.11703 23 6.4572 22.4175 4.48145 21.4297C2.5657 20.4717 1.00009 18.9633 1 17C1 15.0366 2.56568 13.5283 4.48145 12.5703C4.80327 12.4094 5.14387 12.2607 5.5 12.1221V2C5.5 1.66003 5.67317 1.34326 5.95898 1.15918ZM12 13C10.3509 13 8.81857 13.2096 7.5 13.5674V17C7.4999 17.5522 7.05223 18 6.5 18C5.94777 18 5.5001 17.5522 5.5 17V14.2998C5.45842 14.3198 5.4167 14.339 5.37598 14.3594C3.67293 15.211 3 16.2022 3 17C3.0001 17.7978 3.67301 18.7891 5.37598 19.6406C7.0195 20.4624 9.3602 21 12 21C14.6398 21 16.9805 20.4624 18.624 19.6406C20.327 18.7891 20.9999 17.7978 21 17C21 16.2022 20.3271 15.211 18.624 14.3594C16.9805 13.5376 14.6398 13 12 13ZM16 15C17.1046 15 18 15.8954 18 17C17.9999 18.1045 17.1045 19 16 19C14.8955 19 14.0001 18.1045 14 17C14 15.8954 14.8954 15 16 15Z" fill="#9E9E9E"/>
</g>
</svg>
