<svg width="24" height="24" viewBox="0 0 24 24" fill="none" xmlns="http://www.w3.org/2000/svg">
<g id="icons/Sports/gongfu">
<path id="Union" d="M9 8C9.55228 8 10 8.44772 10 9V14.5C10 15.0523 9.55228 15.5 9 15.5H6.5V21.5C6.5 22.0523 6.05228 22.5 5.5 22.5C4.94772 22.5 4.5 22.0523 4.5 21.5V14.5L4.50488 14.3975C4.55621 13.8933 4.98232 13.5 5.5 13.5H8V10H4C3.44772 10 3 9.55229 3 9C3 8.44772 3.44772 8 4 8H9ZM18.0908 8C18.6431 8 19.0908 8.44772 19.0908 9C19.0908 9.55229 18.6431 10 18.0908 10H14V14.0176L20.7109 20.7969C21.0991 21.1894 21.0955 21.8225 20.7031 22.2109C20.3106 22.5991 19.6775 22.5955 19.2891 22.2031L12.2891 15.1338C12.1037 14.9465 12 14.6932 12 14.4297V9C12 8.44772 12.4477 8 13 8H18.0908ZM11 1C12.6569 1 14 2.34315 14 4C14 5.65685 12.6569 7 11 7C9.34315 7 8 5.65685 8 4C8 2.34315 9.34315 1 11 1ZM11 3C10.4477 3 10 3.44772 10 4C10 4.55228 10.4477 5 11 5C11.5523 5 12 4.55228 12 4C12 3.44772 11.5523 3 11 3Z" fill="#9E9E9E"/>
</g>
</svg>
