<svg width="24" height="24" viewBox="0 0 24 24" fill="none" xmlns="http://www.w3.org/2000/svg">
<g id="icons/Sports/gymnastics-one">
<path id="Union" d="M6.38916 4.50586C6.93801 4.44493 7.43264 4.8408 7.49365 5.38965L7.95459 9.54102L12.1899 13.7764C12.2754 13.858 12.3442 13.9544 12.396 14.0596C12.3992 14.0661 12.4027 14.0725 12.4058 14.0791C12.427 14.1248 12.4443 14.1721 12.4585 14.2207C12.4605 14.2275 12.4625 14.2343 12.4644 14.2412C12.4772 14.2888 12.487 14.3372 12.4927 14.3867C12.4935 14.3935 12.494 14.4004 12.4946 14.4072C12.4991 14.4543 12.5 14.5018 12.4976 14.5498C12.4973 14.5544 12.4978 14.5589 12.4976 14.5635C12.4944 14.6129 12.4869 14.6623 12.4761 14.7119C12.4741 14.7208 12.4714 14.7294 12.4692 14.7383C12.4663 14.7502 12.4648 14.7626 12.4614 14.7744L11.5317 18.0273L12.2153 21H17.5044C18.0567 21 18.5044 21.4477 18.5044 22C18.5044 22.5523 18.0567 23 17.5044 23H12.2144C11.2929 22.9997 10.4938 22.3689 10.2739 21.4795C10.2727 21.4744 10.2712 21.469 10.27 21.4639L9.6499 18.7705L6.60596 17.7559L4.93896 22.3418C4.75011 22.8606 4.17665 23.1282 3.65771 22.9395C3.1391 22.7505 2.87149 22.177 3.06006 21.6582L5.06006 16.1582L5.09912 16.0654C5.31478 15.6173 5.83432 15.3915 6.31592 15.5518L9.82373 16.7207L10.2837 15.1123L3.14795 12.4365C2.63136 12.2424 2.36926 11.6653 2.56299 11.1484C2.75698 10.6317 3.33416 10.3699 3.85107 10.5635L7.52686 11.9414L6.29248 10.707C6.13205 10.5465 6.03044 10.3359 6.00537 10.1104L5.50537 5.61035C5.44449 5.06166 5.84054 4.56706 6.38916 4.50586ZM8.49951 1C11.4871 1 15.163 1.16235 18.0737 3.20312C21.0656 5.30103 22.9995 9.18144 22.9995 16C22.9995 16.5523 22.5518 17 21.9995 17C21.4474 16.9998 20.9995 16.5521 20.9995 16C20.9995 9.54363 19.1834 6.42419 16.9253 4.84082C14.5861 3.20075 11.5117 3 8.49951 3H5.99951C5.44744 2.99975 4.99951 2.55213 4.99951 2C4.99951 1.44787 5.44744 1.00025 5.99951 1H8.49951ZM13.4995 6C15.4325 6 16.9995 7.56702 16.9995 9.5C16.9995 11.433 15.4325 13 13.4995 13C11.5667 12.9998 9.99951 11.4328 9.99951 9.5C9.99951 7.56717 11.5667 6.00025 13.4995 6ZM13.4995 8C12.6713 8.00025 11.9995 8.67174 11.9995 9.5C11.9995 10.3283 12.6713 10.9998 13.4995 11C14.3279 11 14.9995 10.3284 14.9995 9.5C14.9995 8.67158 14.3279 8 13.4995 8Z" fill="#9E9E9E"/>
</g>
</svg>
