<svg width="24" height="24" viewBox="0 0 24 24" fill="none" xmlns="http://www.w3.org/2000/svg">
<g id="icons/Sports/gymnastics">
<path id="Union" d="M19.8844 10.2427C20.3107 9.89213 20.9407 9.95355 21.2916 10.3794C21.6425 10.8059 21.5814 11.4367 21.1549 11.7876L18.1354 14.272C17.9999 14.3834 17.8367 14.458 17.6637 14.4868L12.2867 15.3823L11.5338 18.019L12.2799 21.0005H16.9996C17.5519 21.0005 17.9996 21.4482 17.9996 22.0005C17.9995 22.5527 17.5518 23.0005 16.9996 23.0005H11.4996C11.041 23.0003 10.6412 22.6877 10.5299 22.2427L9.67932 18.8423L6.54456 18.146L4.39417 22.4478C4.14708 22.9415 3.54624 23.142 3.05237 22.895C2.55861 22.648 2.35839 22.0471 2.6051 21.5532L5.1051 16.5532C5.31025 16.1429 5.76863 15.9246 6.21643 16.0239L9.79651 16.8188L10.2838 15.1118L3.14807 12.436C2.63153 12.2418 2.3693 11.6658 2.56311 11.1489C2.75703 10.632 3.33421 10.3703 3.8512 10.564L11.6002 13.4692L17.0699 12.5581L19.8844 10.2427ZM11.9996 5.00049C13.9326 5.00049 15.4996 6.5675 15.4996 8.50049C15.4995 10.4334 13.9325 12.0005 11.9996 12.0005C10.0669 12.0003 8.49977 10.4333 8.49963 8.50049C8.49963 6.56761 10.0668 5.00066 11.9996 5.00049ZM11.9996 7.00049C11.1714 7.00066 10.4996 7.67218 10.4996 8.50049C10.4998 9.32869 11.1714 10.0003 11.9996 10.0005C12.828 10.0005 13.4995 9.32879 13.4996 8.50049C13.4996 7.67207 12.828 7.00049 11.9996 7.00049ZM5.85803 1.01025C9.48521 0.492086 12.6539 0.743396 15.4606 1.74561C18.2694 2.74875 20.655 4.48248 22.7467 6.83545C23.1136 7.24823 23.0765 7.88064 22.6637 8.24756C22.251 8.61405 21.6194 8.57691 21.2526 8.16455C19.3445 6.01808 17.2294 4.50116 14.7887 3.62939C12.3456 2.75695 9.5135 2.50802 6.14124 2.98975C5.59461 3.06769 5.08749 2.68776 5.0094 2.14111C4.93165 1.59475 5.31174 1.08856 5.85803 1.01025Z" fill="#9E9E9E"/>
</g>
</svg>
