<svg width="24" height="24" viewBox="0 0 24 24" fill="none" xmlns="http://www.w3.org/2000/svg">
<g id="icons/Sports/heartbeat">
<path id="Union" d="M16.5 3C20.0898 3 23 5.91017 23 9.5C23 10.0523 22.5523 10.5 22 10.5C21.4477 10.5 21 10.0523 21 9.5C21 7.01473 18.9853 5 16.5 5C14.9789 5 13.6335 5.75421 12.8174 6.91309C12.6301 7.17884 12.3252 7.33691 12 7.33691C11.6748 7.33691 11.3699 7.17884 11.1826 6.91309C10.3665 5.75421 9.02112 5 7.5 5C5.01472 5 3 7.01473 3 9.5C3 11.3271 3.8455 13.1638 5.14355 14.8291L8.21094 10.8857L8.29004 10.7959C8.48534 10.5989 8.75535 10.4908 9.03613 10.501C9.35736 10.5127 9.65373 10.6779 9.83203 10.9453L12 14.1973L14.168 10.9453L14.2441 10.8447C14.436 10.6234 14.7175 10.4956 15.0146 10.5C15.354 10.505 15.6677 10.682 15.8477 10.9697L18.0537 14.5H22C22.5523 14.5 23 14.9477 23 15.5C23 16.0523 22.5523 16.5 22 16.5H17.5C17.1553 16.5 16.8351 16.3224 16.6523 16.0303L14.9727 13.3428L12.832 16.5547C12.6466 16.8329 12.3344 17 12 17C11.6656 17 11.3534 16.8329 11.168 16.5547L8.9375 13.209L6.49512 16.3486C8.31988 18.1635 10.461 19.5093 11.9971 20.0986C12.45 19.9251 12.965 19.6854 13.5166 19.377C13.9986 19.1074 14.6084 19.2798 14.8779 19.7617C15.1475 20.2438 14.9752 20.8535 14.4932 21.123C13.7282 21.5507 12.9858 21.8895 12.3154 22.1123C12.1107 22.1803 11.8893 22.1803 11.6846 22.1123C9.75781 21.472 7.12725 19.8331 4.97656 17.6611C2.83576 15.4991 1 12.6339 1 9.5C1 5.91017 3.91015 3 7.5 3C9.24772 3 10.8327 3.69184 12 4.8125C13.1673 3.69184 14.7523 3 16.5 3Z" fill="#9E9E9E"/>
</g>
</svg>
