<svg width="24" height="24" viewBox="0 0 24 24" fill="none" xmlns="http://www.w3.org/2000/svg">
<g id="icons/Sports/helmet">
<path id="Union" d="M12 1C18.0773 1 23 5.92272 23 12C23 13.5594 22.6754 15.0506 22.0859 16.4004C21.9268 16.7645 21.5673 17 21.1699 17H19.8926C19.4384 19.005 17.6483 20.5 15.5049 20.5C14.5492 20.5 13.6639 20.2024 12.9355 19.6953L7.50391 22.8643C7.22267 23.0282 6.87891 23.0449 6.58301 22.9092C4.51948 21.9617 3.26223 20.1113 2.18164 18.5752C1.98951 18.3018 1.94669 17.9503 2.06738 17.6387C2.18814 17.327 2.45691 17.0959 2.7832 17.0234L11.0029 15.1963L11.001 13H2C1.44772 13 1 12.5523 1 12C1 5.92272 5.92272 1 12 1ZM4.69922 18.6465C5.39686 19.5708 6.09516 20.339 6.97363 20.8564L11.5654 18.1777C11.3977 17.8746 11.2646 17.5499 11.1699 17.209L4.69922 18.6465ZM12 3C7.36538 3 3.55375 6.49847 3.05664 11H12C12.5518 11 12.9993 11.4472 13 11.999L13.0049 15.999V16L13.0176 16.2559C13.1453 17.5179 14.2086 18.4999 15.5049 18.5C16.8876 18.5 18.0049 17.3827 18.0049 16C18.0049 15.4478 18.4527 15.0001 19.0049 15H20.4873C20.8181 14.0625 21 13.0525 21 12C21 7.02728 16.9727 3 12 3ZM15.5 15C16.05 15 16.5 15.45 16.5 16C16.5 16.55 16.05 17 15.5 17C14.95 17 14.5 16.55 14.5 16C14.5 15.45 14.95 15 15.5 15Z" fill="#9E9E9E"/>
</g>
</svg>
