<svg width="24" height="24" viewBox="0 0 24 24" fill="none" xmlns="http://www.w3.org/2000/svg">
<g id="icons/Sports/hockey">
<path id="Union" d="M21 1C21.3014 1 21.5865 1.13608 21.7764 1.37012C21.9662 1.60414 22.0406 1.91117 21.9785 2.20605L18.4434 18.9863C18.0765 20.7321 16.5971 22.0254 14.8164 22.1523L6.28613 22.7617C3.96749 22.928 2.00022 21.0956 2 18.7754V18C2 16.6177 3.11772 15.5 4.5 15.5H14.1357C14.136 15.4995 14.137 15.4981 14.1377 15.4951L17.0215 1.79395L17.043 1.70898C17.1697 1.29117 17.5566 1 18 1H21ZM16.0938 15.9111L16.0928 15.915C15.8947 16.8362 15.0856 17.5 14.1348 17.5H4.5C4.22228 17.5 4 17.7223 4 18V18.7754C4.00022 19.9347 4.98266 20.851 6.14355 20.7676L14.6738 20.1572L14.8389 20.1387C15.6531 20.0124 16.3144 19.3932 16.4863 18.5742L19.7676 3H18.8115L16.0938 15.9111ZM7.5 4C8.69274 4 9.81724 4.17951 10.6797 4.50293C11.1071 4.66322 11.5222 4.87857 11.8486 5.16797C12.1506 5.4357 12.4493 5.84092 12.4912 6.37402C12.4964 6.41532 12.5 6.45729 12.5 6.5V9.5C12.5 10.0955 12.1754 10.544 11.8496 10.833C11.523 11.1227 11.1072 11.3378 10.6797 11.498C9.81723 11.8213 8.69278 12 7.5 12C6.30722 12 5.18277 11.8213 4.32031 11.498C3.89281 11.3378 3.477 11.1227 3.15039 10.833C2.82465 10.544 2.5 10.0955 2.5 9.5V6.5C2.5 6.45733 2.50263 6.41528 2.50781 6.37402C2.54975 5.84088 2.84938 5.43571 3.15137 5.16797C3.47785 4.87857 3.8929 4.66322 4.32031 4.50293C5.18276 4.17951 6.30726 4 7.5 4ZM10.5 8.55762C9.66368 8.84084 8.61202 9 7.5 9C6.38798 9 5.33632 8.84084 4.5 8.55762V9.35352C4.58578 9.42271 4.7508 9.52319 5.02246 9.625C5.60748 9.8442 6.48301 10 7.5 10C8.51699 10 9.39252 9.8442 9.97754 9.625C10.2492 9.52319 10.4142 9.42271 10.5 9.35352V8.55762ZM7.5 6C6.48359 6 5.60773 6.1565 5.02246 6.37598C4.91045 6.41799 4.81708 6.46077 4.73926 6.5C4.81708 6.53923 4.91045 6.58201 5.02246 6.62402C5.60773 6.8435 6.48359 7 7.5 7C8.51641 7 9.39227 6.8435 9.97754 6.62402C10.0892 6.58215 10.1821 6.53912 10.2598 6.5C10.1821 6.46088 10.0892 6.41785 9.97754 6.37598C9.39227 6.1565 8.51641 6 7.5 6Z" fill="#9E9E9E"/>
</g>
</svg>
