<svg width="24" height="24" viewBox="0 0 24 24" fill="none" xmlns="http://www.w3.org/2000/svg">
<g id="icons/Sports/jump">
<path id="Union" d="M3.24066 4.35059C3.59949 3.931 4.23007 3.88154 4.64984 4.24023L10.6498 9.36719C10.872 9.55716 11.0004 9.83465 11.0004 10.127V14.9844C11.0004 15.1781 10.944 15.368 10.8383 15.5303L6.26703 22.5459C5.96562 23.0085 5.34592 23.139 4.88324 22.8379C4.42052 22.5364 4.28974 21.9168 4.59125 21.4541L9.00043 14.6865V10.5879L3.35101 5.75977C2.93124 5.40097 2.88191 4.77042 3.24066 4.35059ZM19.351 4.24023C19.7708 3.8817 20.4015 3.93089 20.7602 4.35059C21.1187 4.77035 21.0693 5.40099 20.6498 5.75977L15.0004 10.5879V14.6865L19.4096 21.4541C19.7109 21.9167 19.58 22.5364 19.1176 22.8379C18.655 23.1392 18.0353 23.0084 17.7338 22.5459L13.1625 15.5303C13.0568 15.3679 13.0005 15.1781 13.0004 14.9844V10.127C13.0004 9.83455 13.1287 9.55717 13.351 9.36719L19.351 4.24023ZM12.0004 1C13.6571 1.00022 15.0004 2.34328 15.0004 4C15.0004 5.65672 13.6571 6.99978 12.0004 7C10.3436 7 9.00043 5.65685 9.00043 4C9.00043 2.34315 10.3436 1 12.0004 1ZM12.0004 3C11.4481 3 11.0004 3.44772 11.0004 4C11.0004 4.55228 11.4481 5 12.0004 5C12.5525 4.99978 13.0004 4.55215 13.0004 4C13.0004 3.44785 12.5525 3.00022 12.0004 3Z" fill="#9E9E9E"/>
</g>
</svg>
