<svg width="24" height="24" viewBox="0 0 24 24" fill="none" xmlns="http://www.w3.org/2000/svg">
<g id="icons/Sports/kungfu">
<path id="Union" d="M12.6807 3.42676C12.919 3.08622 13.3432 2.9289 13.7461 3.03125C14.1488 3.13357 14.4461 3.47388 14.4932 3.88672L14.9932 8.28711C15.0555 8.83574 14.6618 9.33101 14.1133 9.39355C13.5645 9.45591 13.0692 9.06145 13.0068 8.5127L12.8047 6.73633L11.373 8.78027L13.9746 10.7314L21.3691 4.72363C21.7978 4.37538 22.4281 4.44054 22.7764 4.86914C23.1246 5.29776 23.0595 5.92809 22.6309 6.27637L14.9238 12.5381L13.4863 21.1641C13.3956 21.7087 12.8806 22.0769 12.3359 21.9863C11.7913 21.8955 11.4231 21.3806 11.5137 20.8359L12.9131 12.4346L10.4033 10.5518L8.91406 13.9062C8.81986 14.1182 8.65472 14.2908 8.44727 14.3945L5.44727 15.8945C4.95329 16.1415 4.35246 15.9412 4.10547 15.4473C3.85848 14.9533 4.05876 14.3525 4.55273 14.1055L7.23145 12.7656L9.08594 8.59375C9.10193 8.55777 9.12045 8.52303 9.14062 8.48926C9.14487 8.48213 9.14888 8.47483 9.15332 8.46777C9.16209 8.45388 9.17124 8.44023 9.18066 8.42676L12.6807 3.42676ZM5.5 2.5C7.43298 2.5 9 4.067 9 6C9 7.93298 7.43298 9.5 5.5 9.5C3.567 9.5 2 7.93298 2 6C2 4.06701 3.56701 2.5 5.5 2.5ZM5.5 4.5C4.67157 4.5 4 5.17157 4 6C4 6.82842 4.67158 7.5 5.5 7.5C6.32842 7.5 7 6.82842 7 6C7 5.17158 6.32842 4.5 5.5 4.5Z" fill="#9E9E9E"/>
</g>
</svg>
