<svg width="24" height="24" viewBox="0 0 24 24" fill="none" xmlns="http://www.w3.org/2000/svg">
<g id="icons/Sports/muscle">
<path id="Union" d="M10.9999 1C11.3587 1 11.69 1.19235 11.868 1.50391L13.868 5.00391C14.1225 5.44924 13.999 6.01504 13.5819 6.31348L9.86511 8.9707L11.4344 14.7793C12.8171 13.3826 14.8039 12.5854 16.9706 12.8154C20.1396 13.1517 22.667 15.7404 22.9716 18.8838L22.994 19.1895V19.1924C23.0348 20.0482 22.9172 20.8737 22.6649 21.6436L22.6659 21.6445C22.392 22.4868 21.5952 22.9998 20.7704 23H5.87878C2.72378 22.9998 0.357726 20.1133 0.97644 17.0195L4.01941 1.80371L4.04089 1.71777C4.1648 1.29577 4.55308 1.00004 4.99988 1H10.9999Z" fill="#9E9E9E"/>
</g>
</svg>
