<svg width="24" height="24" viewBox="0 0 24 24" fill="none" xmlns="http://www.w3.org/2000/svg">
<g id="icons/Sports/play-basketball">
<path id="Union" d="M5.02429 3.12012C5.5099 2.85763 6.11695 3.03891 6.37976 3.52441L8.60925 7.64355C8.61701 7.65789 8.62466 7.6728 8.63171 7.6875V7.68848H8.63269L13.8016 9.54492L18.7216 10.9326L18.7352 10.9365C19.1886 11.0716 19.5979 11.3646 19.8641 11.7842L19.869 11.791L21.8485 14.9717C22.1404 15.4405 21.997 16.0567 21.5282 16.3486C21.0594 16.6405 20.4431 16.4971 20.1512 16.0283L18.1776 12.8594C18.175 12.8576 18.1701 12.8553 18.1639 12.8535V12.8525L14.0243 11.6865L12.746 14.2432L16.411 17.3467L16.4266 17.3604C17.3209 18.1502 16.9798 19.6444 15.7997 19.9385L15.8007 19.9395L11.746 20.9688C11.2107 21.1047 10.6671 20.7813 10.5311 20.2461C10.3952 19.7108 10.7186 19.1673 11.2538 19.0312L14.37 18.2393L11.6405 15.9297L8.79871 19.5166C8.79288 19.5239 8.78618 19.5309 8.78015 19.5381C8.58348 19.7722 8.323 19.9795 8.00085 20.1084C7.98891 20.1132 7.97684 20.1178 7.96472 20.1221L2.83386 21.9424C2.31346 22.1268 1.74211 21.8544 1.5575 21.334C1.37308 20.8136 1.64555 20.2423 2.16589 20.0576L7.245 18.2549L7.24597 18.2539L10.6503 13.9619L12.1014 11.0596L7.95691 9.57129H7.95593C7.47494 9.39809 7.08274 9.05141 6.85046 8.59473V8.5957L4.62 4.47559C4.35754 3.98999 4.53882 3.38293 5.02429 3.12012ZM15.9999 2C17.9329 2 19.4999 3.567 19.4999 5.5C19.4999 7.43298 17.9329 9 15.9999 9C14.0669 8.99996 12.4999 7.43296 12.4999 5.5C12.4999 3.56703 14.0669 2.00004 15.9999 2ZM15.9999 4C15.1715 4.00004 14.4999 4.6716 14.4999 5.5C14.4999 6.32839 15.1715 6.99996 15.9999 7C16.8283 7 17.4999 6.32842 17.4999 5.5C17.4999 4.67158 16.8283 4 15.9999 4ZM8.99988 1C9.82833 1 10.4999 1.67158 10.4999 2.5C10.4999 3.32842 9.82833 4 8.99988 4C8.17146 3.99996 7.49988 3.3284 7.49988 2.5C7.49988 1.6716 8.17146 1.00004 8.99988 1Z" fill="#9E9E9E"/>
</g>
</svg>
