<svg width="24" height="24" viewBox="0 0 24 24" fill="none" xmlns="http://www.w3.org/2000/svg">
<g id="icons/Sports/play-volleyball">
<path id="Union" d="M9.93945 8.85742C10.5981 8.26377 11.5699 8.16944 12.3262 8.63184L12.4746 8.73145L12.4883 8.74219L19.6084 14.207C20.0462 14.5433 20.129 15.1714 19.793 15.6094C19.4567 16.0471 18.8286 16.1298 18.3906 15.7939L11.2842 10.3398L11.2832 10.3408C11.2825 10.3412 11.2812 10.342 11.2793 10.3438L11.2783 10.3428L9.31348 12.1416L13.5898 15.2686L13.5918 15.2705C14.3049 15.7956 14.5994 16.7389 14.2803 17.585L14.2812 17.5859L12.4961 22.3516C12.3023 22.8682 11.7258 23.1307 11.209 22.9375C10.6919 22.7438 10.4296 22.1665 10.623 21.6494L12.4082 16.8848V16.8838C12.4077 16.8826 12.4068 16.8814 12.4062 16.8809V16.8799L8.59766 14.0947L7.8457 17.8271L7.84375 17.8262C7.61546 19.0982 6.26487 19.8114 5.08984 19.3066V19.3086L1.62988 17.9287C1.11699 17.7241 0.866875 17.1428 1.07129 16.6299C1.27586 16.117 1.85719 15.8669 2.37012 16.0713L5.83008 17.4512L5.87695 17.4707H5.87793C5.87998 17.458 5.88222 17.4453 5.88477 17.4326L7.01953 11.8027C7.06859 11.5594 7.2024 11.3548 7.38379 11.2129C7.42378 11.1661 7.46688 11.121 7.51367 11.0781L9.93457 8.86328L9.93945 8.85742ZM20.5 9C21.3284 9 22 9.67155 22 10.5C22 11.3285 21.3284 12 20.5 12C19.6716 12 19 11.3284 19 10.5C19 9.67155 19.6716 9.00001 20.5 9ZM14.5 1C16.433 1 18 2.567 18 4.5C18 6.43298 16.433 8 14.5 8C12.567 7.99999 11 6.43298 11 4.5C11 2.56701 12.567 1.00001 14.5 1ZM14.5 3C13.6716 3.00001 13 3.67158 13 4.5C13 5.32841 13.6716 5.99999 14.5 6C15.3284 6 16 5.32842 16 4.5C16 3.67158 15.3284 3 14.5 3Z" fill="#9E9E9E"/>
</g>
</svg>
