<svg width="24" height="24" viewBox="0 0 24 24" fill="none" xmlns="http://www.w3.org/2000/svg">
<g id="icons/Sports/riding">
<path id="Union" d="M5.75 13.5C8.37335 13.5 10.5 15.6266 10.5 18.25C10.5 20.8734 8.37335 23 5.75 23C3.12665 23 1 20.8734 1 18.25C1 15.6266 3.12665 13.5 5.75 13.5ZM18.25 13.5C20.8734 13.5 23 15.6266 23 18.25C23 20.8734 20.8734 23 18.25 23C15.6266 23 13.5 20.8734 13.5 18.25C13.5 15.6266 15.6266 13.5 18.25 13.5ZM5.75 15.5C4.23122 15.5 3 16.7312 3 18.25C3 19.7688 4.23122 21 5.75 21C7.26878 21 8.5 19.7688 8.5 18.25C8.5 16.7312 7.26878 15.5 5.75 15.5ZM18.25 15.5C16.7312 15.5 15.5 16.7312 15.5 18.25C15.5 19.7688 16.7312 21 18.25 21C19.7688 21 21 19.7688 21 18.25C21 16.7312 19.7688 15.5 18.25 15.5ZM10.9893 7.25098C11.8064 6.75271 12.8619 6.90177 13.5098 7.60645L16.1787 10.4951L16.1846 10.499C16.1873 10.5002 16.1878 10.5001 16.1855 10.5H20C20.5523 10.5 21 10.9477 21 11.5C21 12.0522 20.5523 12.5 20 12.5H16.1855C15.6223 12.5 15.0879 12.2601 14.7119 11.8545L14.7109 11.8535L12.041 8.96387L12.0371 8.95996C12.0348 8.95768 12.0318 8.95804 12.0303 8.95898L9.00391 10.8193L12.0352 12.6758C12.6252 13.0358 12.9947 13.683 12.9951 14.3838L13 18.999C13.0005 19.5512 12.5532 19.9994 12.001 20C11.4488 20.0005 11.0006 19.5532 11 19.001L10.9951 14.3857V14.3848C10.9951 14.3865 10.9952 14.3866 10.9941 14.3848V14.3838L10.9932 14.3828L7.2627 12.0977L7.25879 12.0947C6.31244 11.5087 6.31239 10.1309 7.25879 9.54492L7.26172 9.54297L10.9863 7.25293L10.9893 7.25098ZM16.5 1C18.433 1 20 2.567 20 4.5C20 6.43298 18.433 8 16.5 8C14.567 8 13 6.43298 13 4.5C13 2.567 14.567 1 16.5 1ZM16.5 3C15.6716 3 15 3.67158 15 4.5C15 5.32842 15.6716 6 16.5 6C17.3284 6 18 5.32842 18 4.5C18 3.67158 17.3284 3 16.5 3Z" fill="#9E9E9E"/>
</g>
</svg>
