<svg width="24" height="24" viewBox="0 0 24 24" fill="none" xmlns="http://www.w3.org/2000/svg">
<g id="icons/Sports/rings">
<path id="Union" d="M21 1.5C21.5523 1.5 22 1.94772 22 2.5C22 3.05228 21.5523 3.5 21 3.5H18.5V8.5H19.5C20.0523 8.5 20.5 8.94772 20.5 9.5C20.5 10.0523 20.0523 10.5 19.5 10.5H18.5V12.5996C20.7828 13.0626 22.5 15.0802 22.5 17.5C22.5 20.2623 20.2623 22.5 17.5 22.5C14.7377 22.5 12.5 20.2623 12.5 17.5C12.5 15.0802 14.2172 13.0626 16.5 12.5996V10.5H15.5C14.9477 10.5 14.5 10.0523 14.5 9.5C14.5 8.94772 14.9477 8.5 15.5 8.5H16.5V3.5H7.5V8.5H8.5C9.05228 8.5 9.5 8.94772 9.5 9.5C9.5 10.0523 9.05228 10.5 8.5 10.5H7.5V12.5996C9.78281 13.0626 11.5 15.0802 11.5 17.5C11.5 20.2623 9.26228 22.5 6.5 22.5C3.73772 22.5 1.5 20.2623 1.5 17.5C1.5 15.0802 3.21719 13.0626 5.5 12.5996V10.5H4.5C3.94772 10.5 3.5 10.0523 3.5 9.5C3.5 8.94772 3.94772 8.5 4.5 8.5H5.5V3.5H3C2.44772 3.5 2 3.05228 2 2.5C2 1.94772 2.44772 1.5 3 1.5H21ZM6.5 14.5C4.84228 14.5 3.5 15.8423 3.5 17.5C3.5 19.1577 4.84228 20.5 6.5 20.5C8.15772 20.5 9.5 19.1577 9.5 17.5C9.5 15.8423 8.15772 14.5 6.5 14.5ZM17.5 14.5C15.8423 14.5 14.5 15.8423 14.5 17.5C14.5 19.1577 15.8423 20.5 17.5 20.5C19.1577 20.5 20.5 19.1577 20.5 17.5C20.5 15.8423 19.1577 14.5 17.5 14.5Z" fill="#9E9E9E"/>
</g>
</svg>
