<svg width="24" height="24" viewBox="0 0 24 24" fill="none" xmlns="http://www.w3.org/2000/svg">
<g id="icons/Sports/rollerskates">
<path id="Union" d="M22 1C22.5523 1 23 1.44772 23 2V17C23 17.5124 22.8064 17.9768 22.4912 18.3301C22.8119 18.8076 23 19.3816 23 20C23 21.6568 21.6568 23 20 23C18.8987 23 17.9388 22.405 17.417 21.5205C16.8952 22.4048 15.9361 23 14.835 23C13.7321 23 12.7713 22.4032 12.25 21.5166C11.7287 22.4032 10.7679 23 9.66504 23C8.56375 23 7.60381 22.405 7.08203 21.5205C6.56018 22.4048 5.60108 23 4.5 23C2.84314 23 1.5 21.6568 1.5 20C1.5 19.3574 1.70286 18.7626 2.04688 18.2744C1.40681 17.7243 1 16.9105 1 16V13C1 10.2377 3.23772 8 6 8H13V2C13 1.44772 13.4477 1 14 1H22ZM4.5 19C3.94772 19 3.5 19.4477 3.5 20C3.5 20.5523 3.94772 21 4.5 21C5.05227 21 5.5 20.5523 5.5 20C5.5 19.4477 5.05227 19 4.5 19ZM9.66504 19C9.11274 19 8.66504 19.4477 8.66504 20C8.66504 20.5523 9.11274 21 9.66504 21C10.2173 21 10.665 20.5523 10.665 20C10.665 19.4477 10.2173 19 9.66504 19ZM14.835 19C14.2827 19 13.835 19.4477 13.835 20C13.835 20.5523 14.2827 21 14.835 21C15.3873 21 15.835 20.5523 15.835 20C15.835 19.4477 15.3873 19 14.835 19ZM20 19C19.4477 19 19 19.4477 19 20C19 20.5523 19.4477 21 20 21C20.5523 21 21 20.5523 21 20C21 19.4477 20.5523 19 20 19ZM15 9C15 9.55229 14.5523 10 14 10H11.5V12C11.5 12.5523 11.0523 13 10.5 13C9.94771 13 9.5 12.5523 9.5 12V10H8V12C8 12.5523 7.55228 13 7 13C6.44772 13 6 12.5523 6 12V10C4.34228 10 3 11.3423 3 13V16C3 16.5527 3.44728 17 4 17H21V7H15V9ZM15 5H21V3H15V5Z" fill="#9E9E9E"/>
</g>
</svg>
