<svg width="24" height="24" viewBox="0 0 24 24" fill="none" xmlns="http://www.w3.org/2000/svg">
<g id="icons/Sports/rope-skipping">
<path id="Union" d="M20.5 1C21.0523 1 21.5 1.44772 21.5 2V7H22C22.5523 7 23 7.44772 23 8C23 8.55228 22.5523 9 22 9H20V18.5C20 20.9853 17.9853 23 15.5 23C13.0147 23 11 20.9853 11 18.5V5.5C11 4.11929 9.88071 3 8.5 3C7.11929 3 6 4.11929 6 5.5V15H8C8.55228 15 9 15.4477 9 16C9 16.5523 8.55228 17 8 17H7.5V22C7.5 22.5523 7.05228 23 6.5 23H3.5C2.94772 23 2.5 22.5523 2.5 22V17H2C1.44772 17 1 16.5523 1 16C1 15.4477 1.44772 15 2 15H4V5.5C4 3.01472 6.01471 1 8.5 1C10.9853 1 13 3.01472 13 5.5V18.5C13 19.8807 14.1193 21 15.5 21C16.8807 21 18 19.8807 18 18.5V9H16C15.4477 9 15 8.55228 15 8C15 7.44772 15.4477 7 16 7H16.5V2L16.5049 1.89746C16.5562 1.39333 16.9823 1 17.5 1H20.5Z" fill="#9E9E9E"/>
</g>
</svg>
