<svg width="24" height="24" viewBox="0 0 24 24" fill="none" xmlns="http://www.w3.org/2000/svg">
<g id="icons/Sports/rope-skipping-one">
<path id="Union" d="M12 2.22168C13.4308 1.25867 15.1663 0.840957 16.8936 1.58105C18.0219 2.06466 18.8486 2.9643 19.4512 3.93359C20.0555 4.90584 20.4768 6.01573 20.7725 7.03418C21.0697 8.05809 21.2505 9.0261 21.3564 9.73535C21.4096 10.0912 21.444 10.3851 21.4658 10.5918C21.4767 10.695 21.4843 10.7768 21.4893 10.834C21.4918 10.8626 21.4939 10.8854 21.4951 10.9014C21.4957 10.9091 21.4967 10.9153 21.4971 10.9199V10.9287L21.5 11V14.5H22C22.5523 14.5 23 14.9477 23 15.5C23 16.0523 22.5523 16.5 22 16.5H21.5V20C21.5 20.5523 21.0523 21 20.5 21C19.9477 21 19.5 20.5523 19.5 20V16.5H19C18.4477 16.5 18 16.0523 18 15.5C18 14.9477 18.4477 14.5 19 14.5H19.5V11.0391C19.4993 11.0306 19.4981 11.0204 19.4971 11.0088C19.493 10.9628 19.4871 10.8925 19.4775 10.8018C19.4583 10.6199 19.4263 10.3549 19.3779 10.0312C19.2808 9.38123 19.1177 8.50522 18.8525 7.5918C18.5858 6.67289 18.2256 5.75128 17.752 4.98926C17.2764 4.22428 16.728 3.68536 16.1064 3.41895C15.3204 3.08205 14.4359 3.15458 13.5605 3.61133C15.0134 5.27397 15.9999 7.62229 16 10C16 11.363 15.7304 12.69 15.1016 13.7119C14.4475 14.7747 13.3974 15.5 12 15.5C10.6026 15.5 9.55248 14.7747 8.89844 13.7119C8.26958 12.69 8.00001 11.363 8 10C8.00008 7.62252 8.98582 5.27394 10.4385 3.61133C9.5634 3.15494 8.67941 3.08215 7.89355 3.41895C7.27204 3.68536 6.72359 4.22428 6.24805 4.98926C5.77436 5.75128 5.41424 6.67289 5.14746 7.5918C4.88229 8.50522 4.7192 9.38123 4.62207 10.0312C4.57371 10.3549 4.54165 10.6199 4.52246 10.8018C4.51289 10.8925 4.50695 10.9628 4.50293 11.0088C4.50191 11.0204 4.50071 11.0306 4.5 11.0391V14.5H5C5.55228 14.5 6 14.9477 6 15.5C5.99998 16.0523 5.55227 16.5 5 16.5H4.5V20C4.49998 20.5523 4.05227 21 3.5 21C2.94773 21 2.50002 20.5523 2.5 20V16.5H2C1.44773 16.5 1.00002 16.0523 1 15.5C1 14.9477 1.44772 14.5 2 14.5H2.5V11C2.50001 10.9763 2.50124 10.9523 2.50293 10.9287V10.9199C2.50328 10.9153 2.50427 10.9091 2.50488 10.9014C2.50614 10.8854 2.50824 10.8626 2.51074 10.834C2.51574 10.7768 2.52329 10.695 2.53418 10.5918C2.556 10.3851 2.59039 10.0912 2.64355 9.73535C2.74953 9.0261 2.93028 8.05809 3.22754 7.03418C3.52322 6.01573 3.94453 4.90584 4.54883 3.93359C5.15136 2.9643 5.97805 2.06466 7.10645 1.58105C8.83369 0.840959 10.5692 1.25867 12 2.22168ZM12 4.86719C10.8148 6.192 10.0001 8.11029 10 10C10 11.137 10.2304 12.061 10.6016 12.6641C10.9475 13.2261 11.3976 13.5 12 13.5C12.6024 13.5 13.0525 13.2261 13.3984 12.6641C13.7696 12.061 14 11.137 14 10C13.9999 8.11029 13.1852 6.192 12 4.86719Z" fill="#9E9E9E"/>
</g>
</svg>
