<svg width="24" height="24" viewBox="0 0 24 24" fill="none" xmlns="http://www.w3.org/2000/svg">
<g id="icons/Sports/rowing">
<path id="Union" d="M10.7129 9.02246L22.2129 11.5225C22.7524 11.6399 23.0948 12.1733 22.9775 12.7129C22.8601 13.2524 22.3267 13.5948 21.7871 13.4775L10.9873 11.1299L7.57422 16.8193L12.457 13.6602L12.5469 13.6084C12.7616 13.4992 13.0103 13.4705 13.2461 13.5303C13.5155 13.5987 13.7446 13.7765 13.8779 14.0205L16.5986 19H17.9795L20.1191 15.0264C20.3809 14.5403 20.9874 14.3577 21.4736 14.6191C21.9597 14.8809 22.1423 15.4875 21.8809 15.9736L20.251 19H22C22.5523 19 23 19.4477 23 20C23 20.5523 22.5523 21 22 21H19.1748L18.3809 22.4736C18.1191 22.9597 17.5126 23.1423 17.0264 22.8809C16.5403 22.6191 16.3577 22.0126 16.6191 21.5264L16.9023 21H2C1.44772 21 1 20.5523 1 20C1 19.4477 1.44772 19 2 19H3.93359L9.64258 9.48535L9.73438 9.35645C9.97025 9.07565 10.3462 8.94275 10.7129 9.02246ZM7.88574 19H14.3184L12.6377 15.9248L7.88574 19ZM15.0098 2C16.9428 2 18.5098 3.56702 18.5098 5.5C18.5098 7.43297 16.9428 9 15.0098 9C13.0768 9 11.5098 7.43298 11.5098 5.5C11.5098 3.567 13.0768 2 15.0098 2ZM15.0098 4C14.1813 4 13.5098 4.67158 13.5098 5.5C13.5098 6.32842 14.1814 7 15.0098 7C15.8382 7 16.5098 6.32843 16.5098 5.5C16.5098 4.67156 15.8382 4 15.0098 4Z" fill="#9E9E9E"/>
</g>
</svg>
