<svg width="24" height="24" viewBox="0 0 24 24" fill="none" xmlns="http://www.w3.org/2000/svg">
<g id="icons/Sports/rugby-one">
<path id="Union" d="M12 3.5C17.2563 3.5 21.7021 6.98163 22.9668 11.7432C22.9689 11.7512 22.9698 11.7595 22.9717 11.7676C22.9773 11.7913 22.9814 11.8155 22.9854 11.8398C22.9877 11.8545 22.9905 11.8691 22.9922 11.8838C22.9966 11.922 23 11.9606 23 12C23 12.039 22.9965 12.0774 22.9922 12.1152C22.9905 12.13 22.9877 12.1445 22.9854 12.1592C22.9814 12.1836 22.9773 12.2077 22.9717 12.2314C22.9697 12.2398 22.969 12.2485 22.9668 12.2568C21.7021 17.0184 17.2563 20.5 12 20.5C6.74373 20.5 2.29793 17.0184 1.0332 12.2568C1.03097 12.2484 1.02935 12.2399 1.02734 12.2314C1.02171 12.2077 1.01757 12.1835 1.01367 12.1592C1.01131 12.1445 1.00854 12.13 1.00684 12.1152C1.0025 12.0774 1 12.039 1 12C1 11.9607 1.00242 11.9219 1.00684 11.8838C1.00856 11.8691 1.01129 11.8545 1.01367 11.8398C1.0176 11.8155 1.02169 11.7913 1.02734 11.7676C1.02929 11.7594 1.03105 11.7513 1.0332 11.7432C2.29793 6.98163 6.74373 3.5 12 3.5ZM12 5.5C8.12116 5.5 4.81829 7.77954 3.4082 11H4C4.55228 11 5 11.4477 5 12C5 12.5523 4.55228 13 4 13H3.4082C4.81829 16.2205 8.12116 18.5 12 18.5C15.8787 18.5 19.1808 16.2204 20.5908 13H20C19.4477 13 19 12.5523 19 12C19 11.4477 19.4477 11 20 11H20.5908C19.1808 7.77963 15.8787 5.5 12 5.5ZM15.5 9C16.0523 9 16.5 9.44772 16.5 10V11H17C17.5523 11 18 11.4477 18 12C18 12.5523 17.5523 13 17 13H16.5V14C16.5 14.5523 16.0523 15 15.5 15C14.9477 15 14.5 14.5523 14.5 14V13H13V14C13 14.5523 12.5523 15 12 15C11.4477 15 11 14.5523 11 14V13H9.5V14C9.5 14.5523 9.05229 15 8.5 15C7.94772 15 7.5 14.5523 7.5 14V13H7C6.44772 13 6 12.5523 6 12C6 11.4477 6.44772 11 7 11H7.5V10C7.5 9.44772 7.94772 9 8.5 9C9.05229 9 9.5 9.44772 9.5 10V11H11V10C11 9.44772 11.4477 9 12 9C12.5523 9 13 9.44772 13 10V11H14.5V10C14.5 9.44772 14.9477 9 15.5 9Z" fill="#9E9E9E"/>
</g>
</svg>
