<svg width="24" height="24" viewBox="0 0 24 24" fill="none" xmlns="http://www.w3.org/2000/svg">
<g id="icons/Sports/sailboat">
<path id="Union" d="M21.524 19.1201C22.0098 18.8575 22.6169 19.0387 22.8795 19.5244C23.1421 20.0103 22.9611 20.6173 22.4752 20.8799L21.2252 21.5557C20.1286 22.1483 18.8707 22.1484 17.774 21.5557C17.2709 21.2838 16.7284 21.2837 16.2252 21.5557C15.1286 22.1483 13.8707 22.1484 12.774 21.5557C12.2709 21.2838 11.7284 21.2837 11.2252 21.5557C10.1286 22.1483 8.87066 22.1484 7.77405 21.5557C7.27085 21.2838 6.7284 21.2837 6.22522 21.5557C5.12859 22.1483 3.87066 22.1484 2.77405 21.5557L1.52405 20.8799C1.03845 20.6172 0.857299 20.0101 1.11975 19.5244C1.38233 19.0387 1.98942 18.8577 2.47522 19.1201L3.72522 19.7959C4.2284 20.0679 4.77085 20.0678 5.27405 19.7959C6.37069 19.2031 7.62855 19.2032 8.72522 19.7959C9.2284 20.0679 9.77085 20.0678 10.274 19.7959C11.3707 19.2031 12.6286 19.2032 13.7252 19.7959C14.2284 20.0679 14.7709 20.0678 15.274 19.7959C16.3707 19.2031 17.6285 19.2032 18.7252 19.7959C19.2284 20.0679 19.7709 20.0678 20.274 19.7959L21.524 19.1201ZM21.524 16.1201C22.0098 15.8575 22.6169 16.0387 22.8795 16.5244C23.1421 17.0103 22.9611 17.6173 22.4752 17.8799L21.2252 18.5557C20.1286 19.1483 18.8707 19.1484 17.774 18.5557C17.2709 18.2838 16.7284 18.2837 16.2252 18.5557C15.1286 19.1483 13.8707 19.1484 12.774 18.5557C12.2709 18.2838 11.7284 18.2837 11.2252 18.5557C10.1286 19.1483 8.87066 19.1484 7.77405 18.5557C7.27085 18.2838 6.7284 18.2837 6.22522 18.5557C5.12859 19.1483 3.87066 19.1484 2.77405 18.5557L1.52405 17.8799C1.03845 17.6172 0.857299 17.0101 1.11975 16.5244C1.38233 16.0387 1.98942 15.8577 2.47522 16.1201L3.72522 16.7959C4.2284 17.0679 4.77085 17.0678 5.27405 16.7959C6.37069 16.2031 7.62855 16.2032 8.72522 16.7959C9.2284 17.0679 9.77085 17.0678 10.274 16.7959C11.3707 16.2031 12.6286 16.2032 13.7252 16.7959C14.2284 17.0679 14.7709 17.0678 15.274 16.7959C16.3707 16.2031 17.6285 16.2032 18.7252 16.7959C19.2284 17.0679 19.7709 17.0678 20.274 16.7959L21.524 16.1201ZM13.2565 1.33105C13.5334 1.02339 13.9715 0.918237 14.358 1.06641C14.7445 1.21477 14.9996 1.58598 14.9996 2V5.15918L19.4918 11H20.9996C21.3461 11 21.668 11.1799 21.8502 11.4746C22.0323 11.7694 22.0491 12.1374 21.8942 12.4473L20.8942 14.4473C20.6471 14.9412 20.0463 15.1415 19.5524 14.8945C19.0586 14.6475 18.8583 14.0466 19.1051 13.5527L19.3815 13H4.6178L4.89417 13.5527C5.14115 14.0467 4.94088 14.6475 4.4469 14.8945C3.95297 15.1413 3.35205 14.9412 3.1051 14.4473L2.1051 12.4473C1.95025 12.1374 1.96708 11.7693 2.14905 11.4746C2.3312 11.1799 2.65318 11.0001 2.99963 11H4.55432L13.2565 1.33105ZM7.24475 11H12.9996V4.60547L7.24475 11ZM14.9996 11H16.9684L14.9996 8.43945V11Z" fill="#9E9E9E"/>
</g>
</svg>
