<svg width="24" height="24" viewBox="0 0 24 24" fill="none" xmlns="http://www.w3.org/2000/svg">
<g id="icons/Sports/scoreboard">
<path id="Union" d="M17 2C17.5523 2 18 2.44772 18 3V5H20.5C21.8807 5 23 6.11929 23 7.5V18.5C23 19.8807 21.8807 21 20.5 21H3.5C2.11929 21 1 19.8807 1 18.5V7.5C1 6.11929 2.11929 5 3.5 5H6V3C6 2.44772 6.44772 2 7 2C7.55228 2 8 2.44772 8 3V5H16V3C16 2.44772 16.4477 2 17 2ZM3.5 7C3.22386 7 3 7.22386 3 7.5V18.5C3 18.7761 3.22386 19 3.5 19H11V7H3.5ZM13 19H20.5C20.7761 19 21 18.7761 21 18.5V7.5C21 7.22386 20.7761 7 20.5 7H13V19ZM6.77832 8.81738C7.06082 8.52249 7.49411 8.42883 7.87305 8.58105C8.25185 8.73334 8.5 9.10051 8.5 9.50879V16.501C8.49947 17.0528 8.05196 17.501 7.5 17.501C6.94817 17.5008 6.50053 17.0527 6.5 16.501V11.998L5.83496 12.6924C5.453 13.0905 4.82054 13.1041 4.42188 12.7227C4.02315 12.3407 4.0098 11.7074 4.3916 11.3086L6.77832 8.81738ZM17 8.5C17.5453 8.5 17.9809 8.76226 18.2861 9.06348C18.5869 9.36034 18.812 9.74021 18.9795 10.1309C19.316 10.916 19.5 11.9313 19.5 13C19.5 14.0687 19.316 15.084 18.9795 15.8691C18.812 16.2598 18.5869 16.6397 18.2861 16.9365C17.9809 17.2377 17.5453 17.5 17 17.5C16.4547 17.5 16.0191 17.2377 15.7139 16.9365C15.4131 16.6397 15.188 16.2598 15.0205 15.8691C14.684 15.084 14.5 14.0687 14.5 13C14.5 11.9313 14.684 10.916 15.0205 10.1309C15.188 9.74021 15.4131 9.36034 15.7139 9.06348C16.0191 8.76226 16.4547 8.5 17 8.5ZM17 10.6436C16.9568 10.7129 16.908 10.8032 16.8584 10.9189C16.652 11.4005 16.5 12.1357 16.5 13C16.5 13.8643 16.652 14.5995 16.8584 15.0811C16.9078 15.1964 16.9569 15.2862 17 15.3555C17.0431 15.2862 17.0922 15.1964 17.1416 15.0811C17.348 14.5995 17.5 13.8643 17.5 13C17.5 12.1357 17.348 11.4005 17.1416 10.9189C17.092 10.8032 17.0432 10.7129 17 10.6436Z" fill="#9E9E9E"/>
</g>
</svg>
