<svg width="24" height="24" viewBox="0 0 24 24" fill="none" xmlns="http://www.w3.org/2000/svg">
<g id="icons/Sports/skating">
<path id="Union" d="M22 1C22.5523 1 23 1.44772 23 2V17C23 18.1073 22.1073 19 21 19H19V21H22C22.5521 21 22.9998 21.4479 23 22C22.9997 22.5521 22.5521 23 22 23H3C1.95909 23 1.11282 22.2084 1.01074 21.2041L1 21V20.3154C1 19.7631 1.44772 19.3154 2 19.3154C2.55228 19.3154 3 19.7631 3 20.3154V21H6V19H4C2.34272 19 1 17.6573 1 16V13C1 10.2377 3.23772 8 6 8H13V2C13 1.44772 13.4477 1 14 1H22ZM8 21H17V19H8V21ZM15 9C15 9.55229 14.5523 10 14 10H11.5V12C11.5 12.5523 11.0523 13 10.5 13C9.94771 13 9.5 12.5523 9.5 12V10H8V12C8 12.5523 7.55228 13 7 13C6.44772 13 6 12.5523 6 12V10C4.34228 10 3 11.3423 3 13V16C3 16.5527 3.44728 17 4 17H21V7H15V9ZM15 5H21V3H15V5Z" fill="#9E9E9E"/>
</g>
</svg>
