<svg width="24" height="24" viewBox="0 0 24 24" fill="none" xmlns="http://www.w3.org/2000/svg">
<g id="icons/Sports/skate">
<path id="Union" d="M21.9998 9.91016C22.552 9.91016 22.9998 10.3579 22.9998 10.9102V19.9102C22.9996 20.4623 22.5519 20.9102 21.9998 20.9102H1.99976C1.544 20.91 1.14608 20.6014 1.03198 20.1602C0.918059 19.7188 1.11677 19.256 1.51538 19.0352L17.7859 10.0352L17.9001 9.98145C18.0172 9.93485 18.1425 9.91025 18.2693 9.91016H21.9998ZM5.87378 18.9102H20.9998V11.9102H18.5281L5.87378 18.9102ZM12.3855 2.60254C12.9364 2.63827 13.3545 3.11408 13.3191 3.66504L13.2029 5.46387C13.1814 5.79751 12.9944 6.09844 12.7048 6.26562L12.241 6.53223C12.8153 6.74252 13.2253 7.29321 13.2253 7.94043C13.2252 8.76868 12.5536 9.44043 11.7253 9.44043C10.8971 9.44028 10.2255 8.76858 10.2253 7.94043C10.2253 7.85263 10.2333 7.76628 10.2478 7.68262L6.8855 9.625C7.3499 9.87994 7.66479 10.3732 7.66479 10.9404C7.66461 11.7687 6.99308 12.4404 6.16479 12.4404C5.33659 12.4403 4.66498 11.7686 4.66479 10.9404C4.66479 10.9291 4.66552 10.9175 4.66577 10.9062L4.04468 11.2656C3.75515 11.4327 3.40098 11.4441 3.10132 11.2959L1.48511 10.4971C0.990313 10.2522 0.787269 9.65217 1.03198 9.15723C1.27675 8.66233 1.87684 8.45957 2.37183 8.7041L3.50757 9.26562L11.241 4.80078L11.323 3.53613C11.3587 2.98522 11.8346 2.56717 12.3855 2.60254Z" fill="#9E9E9E"/>
</g>
</svg>
