<svg width="24" height="24" viewBox="0 0 24 24" fill="none" xmlns="http://www.w3.org/2000/svg">
<g id="icons/Sports/skiing-nordic">
<path id="Union" d="M10.7119 8.54199C11.0335 8.44529 11.3827 8.51647 11.6406 8.73145L14.3633 11H17C17.5523 11 18 11.4477 18 12V21H18.9854L21.1865 17.9189C21.5075 17.4695 22.1316 17.3655 22.5811 17.6865C23.0305 18.0075 23.1345 18.6316 22.8135 19.0811L20.3135 22.5811C20.1258 22.8439 19.823 23 19.5 23H2.5C1.94772 23 1.5 22.5523 1.5 22C1.5 21.4477 1.94772 21 2.5 21H4.13672L6.66504 18.8926L7.57129 16.6289C7.77636 16.1162 8.35839 15.8664 8.87109 16.0713C9.38377 16.2764 9.63358 16.8584 9.42871 17.3711L8.42871 19.8711C8.36706 20.0252 8.26813 20.1623 8.14062 20.2686L7.2627 21H12.2529L11.5859 18L8.79297 15.207C8.5329 14.947 8.43641 14.5652 8.54199 14.2129L10.042 9.21289C10.1385 8.8912 10.3903 8.63877 10.7119 8.54199ZM10.6289 14.2148L13.207 16.793L13.2998 16.9004C13.3847 17.0136 13.4456 17.144 13.4766 17.2832L14.3027 21H16V13H14C13.7661 13 13.5391 12.9183 13.3594 12.7686L11.5225 11.2373L10.6289 14.2148ZM12 1C13.933 1 15.5 2.567 15.5 4.5C15.5 6.43298 13.933 8 12 8C10.067 8 8.5 6.43298 8.5 4.5C8.5 2.567 10.067 1 12 1ZM12 3C11.1716 3 10.5 3.67158 10.5 4.5C10.5 5.32842 11.1716 6 12 6C12.8284 6 13.5 5.32842 13.5 4.5C13.5 3.67158 12.8284 3 12 3Z" fill="#9E9E9E"/>
</g>
</svg>
