<svg width="24" height="24" viewBox="0 0 24 24" fill="none" xmlns="http://www.w3.org/2000/svg">
<g id="icons/Sports/soccer">
<path id="Union" d="M11.9866 1C11.9911 0.99994 11.9957 1 12.0002 1C12.0074 1 12.0146 1.00082 12.0217 1.00098C16.6488 1.01018 20.9518 3.95727 22.4583 8.60059C23.9413 13.1685 22.2741 18.0077 18.6506 20.7588L18.5696 20.8213C18.5608 20.8274 18.5512 20.8321 18.5422 20.8379C17.7567 21.4192 16.8837 21.906 15.9309 22.2695L15.3967 22.458C11.8978 23.5943 8.24161 22.878 5.48462 20.8545C5.43811 20.8263 5.3925 20.7953 5.34985 20.7588C5.34339 20.7532 5.33759 20.7469 5.3313 20.7412C3.61123 19.4324 2.25715 17.6069 1.53931 15.3965C-0.335645 9.62304 2.81948 3.41371 8.59985 1.53809V1.53906C9.72397 1.174 10.8646 1.00138 11.9866 1ZM7.49829 19.7871C9.63023 21.0173 12.2549 21.3752 14.7786 20.5557H14.7795C15.3915 20.3571 15.9664 20.097 16.5022 19.7881L14.5413 17.5H9.45923L7.49829 19.7871ZM3.16724 10.2754C2.88244 11.7285 2.95108 13.2717 3.44067 14.7793C3.9328 16.2945 4.79092 17.5886 5.88403 18.5986L7.87231 16.2793L6.20923 11.29L3.16724 10.2754ZM17.7903 11.29L16.1272 16.2793L18.1145 18.5977C20.3497 16.5231 21.4372 13.3879 20.8274 10.2773L17.7903 11.29ZM8.16919 10.8457L9.72095 15.5H14.2795L15.8303 10.8457L12.0002 7.78125L8.16919 10.8457ZM11.0002 3.05371C10.4057 3.12059 9.80912 3.2485 9.21802 3.44043L9.21704 3.44141C6.68149 4.26426 4.76331 6.10733 3.76587 8.36816L6.79907 9.37891L11.0002 6.01855V3.05371ZM13.0002 6.01855L17.2004 9.37891L20.2307 8.36914C18.9171 5.37648 16.1138 3.40752 13.0002 3.05664V6.01855Z" fill="#9E9E9E"/>
</g>
</svg>
