<svg width="24" height="24" viewBox="0 0 24 24" fill="none" xmlns="http://www.w3.org/2000/svg">
<g id="icons/Sports/soccer-one">
<path id="Union" d="M9.5 20C10.3284 20 11 20.6716 11 21.5C11 22.3284 10.3284 23 9.5 23C8.67155 23 8 22.3284 8 21.5C8 20.6716 8.67155 20 9.5 20ZM6.16211 7.50781C6.5539 7.29909 7.01045 7.22174 7.45508 7.30078L9.06445 7.58594H9.06641C10.2149 7.79203 11.342 8.09374 12.4365 8.4873C12.4941 8.50204 12.5508 8.52224 12.6064 8.54785C13.7383 8.96604 14.8341 9.48422 15.8809 10.0977H15.8799L17.4707 10.9941L17.5 11.001H21C21.5523 11.001 22 11.4487 22 12.001C21.9996 12.5529 21.552 13.001 21 13.001H17.5C17.1546 13.001 16.8042 12.9144 16.4893 12.7373V12.7363L14.8838 11.832C14.879 11.8293 14.8739 11.826 14.8691 11.8232C14.152 11.403 13.4092 11.0314 12.6455 10.7119L11.2705 13.251L14.291 15.7383H14.29C14.5643 15.9574 14.7566 16.2335 14.8789 16.5215L14.9287 16.6484L14.9424 16.6914L16.457 21.7109C16.6166 22.2396 16.3176 22.7974 15.7891 22.957C15.2604 23.1166 14.7026 22.8177 14.543 22.2891L13.0361 17.2998C13.0348 17.2969 13.0341 17.2945 13.0332 17.293C13.0287 17.2894 13.024 17.2859 13.0195 17.2822L10.1885 14.9512L8.06738 17.9033L8.06641 17.9023C7.5257 18.6746 6.52082 18.967 5.65039 18.6025L1.61523 16.9229C1.10569 16.7104 0.864928 16.1249 1.07715 15.6152C1.28959 15.1057 1.87506 14.8649 2.38477 15.0771L6.41895 16.7568L6.42285 16.7578C6.42475 16.7585 6.42776 16.7587 6.42969 16.7559L6.44336 16.7363L9.15527 12.959L10.7383 10.0332C10.0748 9.83671 9.39955 9.67746 8.71582 9.55469V9.55566L7.10547 9.27051L7.10352 9.27148H7.10156C7.09356 9.27589 7.08527 9.28098 7.07715 9.28516L3.95703 10.8896C3.46612 11.1419 2.86304 10.9487 2.61035 10.458C2.35794 9.967 2.55207 9.36398 3.04297 9.11133L6.16211 7.50684V7.50781ZM14.5 1C16.433 1.00001 18 2.56701 18 4.5C18 6.43298 16.433 7.99999 14.5 8C12.567 8 11 6.43298 11 4.5C11 2.567 12.567 1 14.5 1ZM14.5 3C13.6716 3 13 3.67158 13 4.5C13 5.32842 13.6716 6 14.5 6C15.3284 5.99999 16 5.32841 16 4.5C16 3.67159 15.3284 3.00001 14.5 3Z" fill="#9E9E9E"/>
</g>
</svg>
