<svg width="24" height="24" viewBox="0 0 24 24" fill="none" xmlns="http://www.w3.org/2000/svg">
<g id="icons/Sports/softball">
<path id="Union" d="M12 1C18.0773 1 23 5.92272 23 12C23 18.0773 18.0773 23 12 23C5.92272 23 1 18.0773 1 12C1 5.92272 5.92272 1 12 1ZM12 3C9.85991 3 7.89578 3.74699 6.35156 4.99316C6.78404 5.50006 7.17367 6.04552 7.51465 6.62402L8.55273 6.10547C9.04671 5.85848 9.64754 6.05876 9.89453 6.55273C10.1415 7.04671 9.94124 7.64754 9.44727 7.89453L8.36914 8.43262C8.66395 9.24457 8.86639 10.1025 8.95215 11H10C10.5523 11 11 11.4477 11 12C11 12.5523 10.5523 13 10 13H8.95215C8.86938 13.9032 8.67356 14.762 8.38281 15.5732L9.44727 16.1055C9.94124 16.3525 10.1415 16.9533 9.89453 17.4473C9.64754 17.9412 9.04671 18.1415 8.55273 17.8945L7.53125 17.3838C7.1902 17.96 6.7979 18.5035 6.3584 19.0107C7.9017 20.254 9.8627 21 12 21C14.137 21 16.0974 20.2537 17.6406 19.0107C17.2012 18.5035 16.8088 17.96 16.4678 17.3838L15.4473 17.8945C14.9533 18.1415 14.3525 17.9412 14.1055 17.4473C13.8585 16.9533 14.0588 16.3525 14.5527 16.1055L15.6162 15.5732C15.3255 14.7621 15.1306 13.9031 15.0479 13H14C13.4477 13 13 12.5523 13 12C13 11.4477 13.4477 11 14 11H15.0479C15.1336 10.1026 15.3351 9.24447 15.6299 8.43262L14.5527 7.89453C14.0588 7.64754 13.8585 7.04671 14.1055 6.55273C14.3525 6.05876 14.9533 5.85848 15.4473 6.10547L16.4844 6.62402C16.8253 6.04555 17.215 5.50005 17.6475 4.99316C16.1033 3.74727 14.1398 3 12 3ZM4.93945 6.41992C3.72593 7.95365 3 9.89116 3 12C3 14.1118 3.72871 16.0512 4.94531 17.5859C5.23778 17.2376 5.50273 16.8711 5.73828 16.4873L5.55273 16.3945C5.05876 16.1475 4.85848 15.5467 5.10547 15.0527C5.35246 14.5588 5.95329 14.3585 6.44727 14.6055L6.58105 14.6719C6.75513 14.1379 6.87677 13.5801 6.94238 13H6C5.44772 13 5 12.5523 5 12C5 11.4477 5.44772 11 6 11H6.93945C6.87115 10.4252 6.74513 9.86881 6.56738 9.33398L6.44727 9.39453C5.95329 9.64152 5.35246 9.44124 5.10547 8.94727C4.85848 8.45329 5.05876 7.85246 5.55273 7.60547L5.72168 7.52051C5.48748 7.1363 5.22664 6.76829 4.93945 6.41992ZM19.0596 6.41992C18.7724 6.76828 18.5115 7.13632 18.2773 7.52051L18.4473 7.60547C18.9412 7.85246 19.1415 8.45329 18.8945 8.94727C18.6475 9.44124 18.0467 9.64152 17.5527 9.39453L17.4316 9.33398C17.2539 9.86872 17.1288 10.4253 17.0605 11H18C18.5523 11 19 11.4477 19 12C19 12.5523 18.5523 13 18 13H17.0576C17.1232 13.58 17.2439 14.138 17.418 14.6719L17.5527 14.6055C18.0467 14.3585 18.6475 14.5588 18.8945 15.0527C19.1415 15.5467 18.9412 16.1475 18.4473 16.3945L18.2607 16.4873C18.4962 16.8711 18.7613 17.2376 19.0537 17.5859C20.2705 16.0511 21 14.112 21 12C21 9.89094 20.2733 7.95372 19.0596 6.41992Z" fill="#9E9E9E"/>
</g>
</svg>
