<svg width="24" height="24" viewBox="0 0 24 24" fill="none" xmlns="http://www.w3.org/2000/svg">
<g id="icons/Sports/spikedshoes">
<path id="Union" d="M22 2C22.5523 2 23 2.44772 23 3V18C23 18.9343 22.3638 19.7132 21.5 19.9346V21C21.5 21.5523 21.0523 22 20.5 22C19.9477 22 19.5 21.5523 19.5 21V20H18V21C18 21.5523 17.5523 22 17 22C16.4477 22 16 21.5523 16 21V20H12V21C12 21.5523 11.5523 22 11 22C10.4477 22 10 21.5523 10 21V20H8.5V21C8.5 21.5523 8.05228 22 7.5 22C6.94772 22 6.5 21.5523 6.5 21V20H5V21C5 21.5523 4.55228 22 4 22C3.44772 22 3 21.5523 3 21V19.8252C1.83531 19.4131 1 18.3061 1 17V14C1 11.2377 3.23772 9 6 9H13V3C13 2.44772 13.4477 2 14 2H22ZM15 10C15 10.5523 14.5523 11 14 11H11.5V13C11.5 13.5523 11.0523 14 10.5 14C9.94771 14 9.5 13.5523 9.5 13V11H8V13C8 13.5523 7.55228 14 7 14C6.44772 14 6 13.5523 6 13V11C4.34228 11 3 12.3423 3 14V17C3 17.5527 3.44728 18 4 18H21V8H15V10ZM15 6H21V4H15V6Z" fill="#9E9E9E"/>
</g>
</svg>
