<svg width="24" height="24" viewBox="0 0 24 24" fill="none" xmlns="http://www.w3.org/2000/svg">
<g id="icons/Sports/spinning-top">
<path id="Union" d="M12 1C12.5523 1 13 1.44772 13 2V5H22C22.5523 5 23 5.44772 23 6V10C23 10.0085 22.9983 10.0169 22.998 10.0254C22.9979 10.0322 22.9974 10.0391 22.9971 10.0459C22.9953 10.084 22.9912 10.1213 22.9854 10.1582C22.9838 10.1676 22.9832 10.1772 22.9814 10.1865C22.9652 10.2725 22.9371 10.354 22.9004 10.4307C22.8949 10.4421 22.8897 10.4536 22.8838 10.4648C22.8651 10.5003 22.8449 10.5346 22.8223 10.5674C22.8165 10.5758 22.8098 10.5835 22.8037 10.5918C22.7839 10.6187 22.7626 10.6442 22.7402 10.6689C22.7345 10.6753 22.7305 10.6832 22.7246 10.6895L13 20.8994V22C13 22.5523 12.5523 23 12 23C11.4477 23 11 22.5523 11 22V20.8994L1.27539 10.6895C1.26932 10.6831 1.26466 10.6755 1.25879 10.6689C1.23645 10.6442 1.21512 10.6187 1.19531 10.5918C1.18924 10.5835 1.18255 10.5758 1.17676 10.5674C1.15414 10.5346 1.13388 10.5003 1.11523 10.4648C1.10934 10.4536 1.10408 10.4421 1.09863 10.4307C1.06403 10.3584 1.03698 10.2818 1.02051 10.2012L1.01562 10.1768C1.01453 10.1706 1.01465 10.1643 1.01367 10.1582C1.00781 10.1214 1.00367 10.084 1.00195 10.0459C1.00164 10.0391 1.00115 10.0322 1.00098 10.0254C1.00077 10.0169 1 10.0085 1 10V6C1 5.44772 1.44772 5 2 5H11V2C11 1.44772 11.4477 1 12 1ZM12 19.0488L19.666 11H4.33398L12 19.0488ZM3 9H21V7H3V9Z" fill="#9E9E9E"/>
</g>
</svg>
