<svg width="24" height="24" viewBox="0 0 24 24" fill="none" xmlns="http://www.w3.org/2000/svg">
<g id="icons/Sports/sport">
<path id="Union" d="M9.76843 6.02637C9.99016 5.97325 10.225 5.99764 10.4325 6.09668L15.9305 8.7207C16.2466 8.87155 16.4607 9.17689 16.495 9.52539C16.5291 9.87403 16.3784 10.2154 16.0975 10.4248L11.7421 13.6709L16.0497 16.5068C16.28 16.6585 16.4379 16.8983 16.4852 17.1699C16.5326 17.4418 16.4653 17.7217 16.2997 17.9424L12.8036 22.5996C12.4721 23.0409 11.8458 23.13 11.4042 22.7988C10.9625 22.4673 10.8725 21.8401 11.204 21.3984L14.0614 17.5918L9.45203 14.5576C9.1797 14.3783 9.01135 14.0769 9.00183 13.751C8.99243 13.4252 9.14287 13.1147 9.40417 12.9199L13.5731 9.81152L9.94128 8.07812L6.32703 9.3291C5.80517 9.50975 5.23527 9.23376 5.05457 8.71191C4.87389 8.19006 5.1509 7.62018 5.67273 7.43945L9.67468 6.05371L9.76843 6.02637ZM7.62781 15.168C7.96171 14.7281 8.5893 14.6418 9.02917 14.9756C9.46906 15.3095 9.55453 15.9371 9.22058 16.377L7.73621 18.333C7.65323 18.4423 7.54827 18.5335 7.42859 18.6006L2.49109 21.3701C2.00946 21.6402 1.39997 21.4689 1.12976 20.9873C0.859644 20.5057 1.03104 19.8962 1.51257 19.626L6.26941 16.957L7.62781 15.168ZM21.3153 8.00488C21.7178 7.62674 22.3502 7.64644 22.7284 8.04883C23.1064 8.45133 23.0869 9.0838 22.6844 9.46191L19.6854 12.2803C19.3709 12.5754 18.9023 12.6357 18.5233 12.4297L17.1825 11.7012C16.6976 11.4375 16.5179 10.8298 16.7811 10.3447C17.0449 9.85965 17.6524 9.67975 18.1376 9.94336L18.8427 10.3271L21.3153 8.00488ZM17.9999 1.5C19.9329 1.5 21.4999 3.067 21.4999 5C21.4999 6.93298 19.9329 8.5 17.9999 8.5C16.0669 8.49995 14.4999 6.93296 14.4999 5C14.4999 3.06703 16.0669 1.50005 17.9999 1.5ZM17.9999 3.5C17.1715 3.50005 16.4999 4.17161 16.4999 5C16.4999 5.82839 17.1715 6.49995 17.9999 6.5C18.8283 6.5 19.4999 5.82842 19.4999 5C19.4999 4.17158 18.8283 3.5 17.9999 3.5Z" fill="#9E9E9E"/>
</g>
</svg>
