<svg width="24" height="24" viewBox="0 0 24 24" fill="none" xmlns="http://www.w3.org/2000/svg">
<g id="icons/Sports/sporting">
<path id="Union" d="M20.5 8C21.0523 8 21.5 8.44772 21.5 9C21.5 9.55229 21.0523 10 20.5 10H15.5V22C15.5 22.5523 15.0523 23 14.5 23C13.9477 23 13.5 22.5523 13.5 22V9C13.5 8.44772 13.9477 8 14.5 8H20.5ZM9.5 8C10.0523 8 10.5 8.44772 10.5 9V17C10.5 17.5523 10.0523 18 9.5 18C8.94772 18 8.5 17.5523 8.5 17V10H3.5C2.94772 10 2.5 9.55229 2.5 9C2.5 8.44772 2.94772 8 3.5 8H9.5ZM12 1C13.6569 1 15 2.34315 15 4C15 5.65685 13.6569 7 12 7C10.3431 7 9 5.65685 9 4C9 2.34315 10.3431 1 12 1ZM12 3C11.4477 3 11 3.44772 11 4C11 4.55228 11.4477 5 12 5C12.5523 5 13 4.55228 13 4C13 3.44772 12.5523 3 12 3Z" fill="#9E9E9E"/>
</g>
</svg>
