<svg width="24" height="24" viewBox="0 0 24 24" fill="none" xmlns="http://www.w3.org/2000/svg">
<g id="icons/Sports/stretching-one">
<path id="Union" d="M19.8756 3.21875C20.307 2.87421 20.9361 2.94481 21.2809 3.37598C21.6255 3.80739 21.555 4.4365 21.1237 4.78125L15.4996 9.27539V22C15.4996 22.5523 15.0519 23 14.4996 23C13.9475 22.9998 13.4996 22.5521 13.4996 22V8.7959C13.4996 8.49206 13.6383 8.20441 13.8756 8.01465L19.8756 3.21875ZM8.99084 8.13867C9.29988 7.95615 9.68397 7.95404 9.99573 8.13184C10.3073 8.30987 10.4996 8.64113 10.4996 9V14.458C10.4996 14.7219 10.3955 14.9758 10.2096 15.1631L4.20959 21.2051C3.82041 21.5967 3.18636 21.5991 2.79456 21.21C2.40297 20.8208 2.40078 20.1867 2.78967 19.7949L8.49963 14.0459V10.752L5.56409 12.4863C5.08863 12.7669 4.4748 12.6091 4.19397 12.1338C3.91331 11.6584 4.07127 11.0446 4.54651 10.7637L8.99084 8.13867ZM11.9996 1C13.6565 1 14.9996 2.34315 14.9996 4C14.9996 5.65685 13.6565 7 11.9996 7C10.343 6.99978 8.99963 5.65672 8.99963 4C8.99963 2.34328 10.343 1.00022 11.9996 1ZM11.9996 3C11.4475 3.00022 10.9996 3.44785 10.9996 4C10.9996 4.55215 11.4475 4.99978 11.9996 5C12.5519 5 12.9996 4.55228 12.9996 4C12.9996 3.44772 12.5519 3 11.9996 3Z" fill="#9E9E9E"/>
</g>
</svg>
