<svg width="24" height="24" viewBox="0 0 24 24" fill="none" xmlns="http://www.w3.org/2000/svg">
<g id="icons/Sports/swimming-ring">
<path id="Union" d="M14 1C14.3344 1 14.6466 1.16711 14.832 1.44531L15.665 2.69434C18.2433 3.71048 20.296 5.76515 21.3096 8.34473C21.4644 8.45072 21.6138 8.54829 21.7803 8.65234C22.019 8.80153 22.2903 8.97009 22.5957 9.19629C22.8502 9.3849 23 9.68324 23 10V14C23 14.3168 22.8502 14.6151 22.5957 14.8037C22.2903 15.0299 22.019 15.1985 21.7803 15.3477C21.614 15.4516 21.4642 15.5484 21.3096 15.6543C20.296 18.2345 18.2429 20.2895 15.6641 21.3057L14.832 22.5547C14.6466 22.8329 14.3344 23 14 23H10C9.66565 23 9.35343 22.8329 9.16797 22.5547L8.33496 21.3057C5.75944 20.2907 3.70814 18.2397 2.69336 15.6641L1.44531 14.832C1.16711 14.6466 1 14.3344 1 14V10L1.00781 9.87598C1.04357 9.58965 1.20186 9.33027 1.44531 9.16797L2.69336 8.33496C3.70829 5.75972 5.75969 3.70919 8.33496 2.69434L9.16797 1.44531L9.24316 1.34668C9.43175 1.12817 9.70733 1 10 1H14ZM10.0928 20.3359L10.5352 21H13.4648L13.9062 20.3359L12.7559 16.5H11.2441L10.0928 20.3359ZM4.87109 15.6318C5.63801 17.1334 6.86555 18.36 8.36719 19.127L8.95508 17.1689C8.0792 16.6521 7.34678 15.92 6.83008 15.0439L4.87109 15.6318ZM17.1689 15.0439C16.6521 15.92 15.92 16.6521 15.0439 17.1689L15.6318 19.127C17.1334 18.36 18.36 17.1334 19.127 15.6318L17.1689 15.0439ZM14.4404 8.83105C14.3002 9.22948 13.9258 9.5 13.5 9.5H10.5C10.0741 9.5 9.69875 9.22965 9.55859 8.83105C9.2861 9.0414 9.0414 9.2861 8.83105 9.55859C9.22965 9.69875 9.5 10.0741 9.5 10.5V13.5C9.5 13.9258 9.22948 14.3002 8.83105 14.4404C9.04139 14.713 9.28609 14.9575 9.55859 15.168C9.69899 14.7699 10.0744 14.5 10.5 14.5H13.5C13.9255 14.5 14.2999 14.77 14.4404 15.168C14.713 14.9576 14.9576 14.713 15.168 14.4404C14.77 14.2999 14.5 13.9255 14.5 13.5V10.5C14.5 10.0744 14.7699 9.69899 15.168 9.55859C14.9575 9.28609 14.713 9.04139 14.4404 8.83105ZM3 10.5352V13.4648L3.66309 13.9062L7.5 12.7559V11.2441L3.66309 10.0928L3 10.5352ZM16.5 11.2441V12.7559L20.3252 13.9033C20.4654 13.811 20.5969 13.7291 20.7197 13.6523C20.8173 13.5914 20.9092 13.5323 21 13.4736V10.5254C20.9093 10.4668 20.8171 10.4085 20.7197 10.3477C20.5967 10.2708 20.4656 10.1882 20.3252 10.0957L16.5 11.2441ZM8.36719 4.87207C6.86594 5.63895 5.63907 6.86601 4.87207 8.36719L6.83008 8.95508C7.34685 8.07926 8.07926 7.34685 8.95508 6.83008L8.36719 4.87207ZM15.0439 6.83008C15.92 7.34678 16.6521 8.0792 17.1689 8.95508L19.127 8.36719C18.36 6.8658 17.1332 5.63893 15.6318 4.87207L15.0439 6.83008ZM10.0928 3.66309L11.2441 7.5H12.7559L13.9062 3.66309L13.4648 3H10.5352L10.0928 3.66309Z" fill="#9E9E9E"/>
</g>
</svg>
