<svg width="24" height="24" viewBox="0 0 24 24" fill="none" xmlns="http://www.w3.org/2000/svg">
<g id="icons/Sports/swimming-pool">
<path id="Union" d="M21.524 19.1201C22.0098 18.8575 22.6169 19.0387 22.8795 19.5244C23.1421 20.0103 22.9611 20.6173 22.4752 20.8799L21.2252 21.5557C20.1286 22.1483 18.8707 22.1484 17.774 21.5557C17.2709 21.2838 16.7284 21.2837 16.2252 21.5557C15.1286 22.1483 13.8707 22.1484 12.774 21.5557C12.2709 21.2838 11.7284 21.2837 11.2252 21.5557C10.1286 22.1483 8.87066 22.1484 7.77405 21.5557C7.27085 21.2838 6.7284 21.2837 6.22522 21.5557C5.12859 22.1483 3.87066 22.1484 2.77405 21.5557L1.52405 20.8799C1.03845 20.6172 0.857305 20.0101 1.11975 19.5244C1.38233 19.0387 1.98942 18.8577 2.47522 19.1201L3.72522 19.7959C4.2284 20.0679 4.77086 20.0678 5.27405 19.7959C6.37069 19.2031 7.62855 19.2032 8.72522 19.7959C9.2284 20.0679 9.77085 20.0678 10.274 19.7959C11.3707 19.2031 12.6285 19.2032 13.7252 19.7959C14.2284 20.0679 14.7709 20.0678 15.274 19.7959C16.3707 19.2031 17.6285 19.2032 18.7252 19.7959C19.2284 20.0679 19.7709 20.0678 20.274 19.7959L21.524 19.1201ZM21.524 16.1201C22.0098 15.8575 22.6169 16.0387 22.8795 16.5244C23.1421 17.0103 22.9611 17.6173 22.4752 17.8799L21.2252 18.5557C20.1286 19.1483 18.8707 19.1484 17.774 18.5557C17.2709 18.2838 16.7284 18.2837 16.2252 18.5557C15.1286 19.1483 13.8707 19.1484 12.774 18.5557C12.2709 18.2838 11.7284 18.2837 11.2252 18.5557C10.1286 19.1483 8.87066 19.1484 7.77405 18.5557C7.27085 18.2838 6.7284 18.2837 6.22522 18.5557C5.12859 19.1483 3.87066 19.1484 2.77405 18.5557L1.52405 17.8799C1.03845 17.6172 0.857305 17.0101 1.11975 16.5244C1.38233 16.0387 1.98942 15.8577 2.47522 16.1201L3.72522 16.7959C4.2284 17.0679 4.77086 17.0678 5.27405 16.7959C6.37069 16.2031 7.62855 16.2032 8.72522 16.7959C9.2284 17.0679 9.77085 17.0678 10.274 16.7959C11.3707 16.2031 12.6285 16.2032 13.7252 16.7959C14.2284 17.0679 14.7709 17.0678 15.274 16.7959C16.3707 16.2031 17.6285 16.2032 18.7252 16.7959C19.2284 17.0679 19.7709 17.0678 20.274 16.7959L21.524 16.1201ZM8.99963 1C9.55192 1 9.99963 1.44772 9.99963 2C9.99963 2.55228 9.55192 3 8.99963 3H6.99963C6.44707 3.00018 5.99963 3.4474 5.99963 4V5H16.9996V4C16.9996 2.34283 18.3425 1.00018 19.9996 1H21.9996C22.5519 1 22.9996 1.44772 22.9996 2C22.9996 2.55228 22.5519 3 21.9996 3H19.9996C19.4471 3.00018 18.9996 3.4474 18.9996 4V13.5C18.9996 14.0523 18.5519 14.5 17.9996 14.5C17.4475 14.4998 16.9996 14.0522 16.9996 13.5V11H5.99963V13.5C5.99963 14.0523 5.55192 14.5 4.99963 14.5C4.4475 14.4998 3.99963 14.0522 3.99963 13.5V4C3.99963 2.34283 5.3425 1.00018 6.99963 1H8.99963ZM5.99963 9H16.9996V7H5.99963V9Z" fill="#9E9E9E"/>
</g>
</svg>
