<svg width="24" height="24" viewBox="0 0 24 24" fill="none" xmlns="http://www.w3.org/2000/svg">
<g id="icons/Sports/tabletennis">
<path id="Union" d="M22 19.5156C22.5523 19.5156 23 19.9633 23 20.5156C22.9997 21.0677 22.5521 21.5156 22 21.5156H2C1.44788 21.5156 1.00026 21.0677 1 20.5156C1 19.9633 1.44772 19.5156 2 19.5156H22ZM4.5 10C5.68006 10 6.66616 10.8183 6.92871 11.918L11.3945 12.9492L16.5859 10.5898C16.5902 10.5879 16.5944 10.5859 16.5986 10.584C16.627 10.5716 16.6562 10.5615 16.6855 10.5518C16.695 10.5486 16.7044 10.5458 16.7139 10.543C16.7355 10.5365 16.7572 10.5304 16.7793 10.5254C16.7936 10.5222 16.8079 10.5192 16.8223 10.5166C16.8498 10.5116 16.8774 10.5076 16.9053 10.5049C16.9099 10.5044 16.9144 10.5033 16.9189 10.5029C17.0275 10.494 17.1381 10.5028 17.2461 10.5303C17.2541 10.5323 17.2616 10.5359 17.2695 10.5381C17.2964 10.5456 17.3232 10.5536 17.3496 10.5635C17.3589 10.5669 17.3678 10.5714 17.377 10.5752C17.401 10.585 17.4247 10.5956 17.4482 10.6074C17.4533 10.61 17.4588 10.6116 17.4639 10.6143C17.4709 10.6179 17.4775 10.6222 17.4844 10.626C17.4944 10.6315 17.5047 10.6366 17.5146 10.6426L22.5146 13.6426C22.8494 13.8435 23.0367 14.2212 22.9941 14.6094C22.9515 14.9974 22.6867 15.3247 22.3164 15.4482L18.9385 16.5742L18.9834 16.8213C19.0821 17.3646 18.7221 17.8846 18.1787 17.9834C17.6466 18.0801 17.138 17.7365 17.0244 17.2119L14.8164 17.9482C14.2926 18.1229 13.7265 17.8402 13.5518 17.3164C13.3771 16.7926 13.6598 16.2265 14.1836 16.0518L16.6611 15.2246L16.2461 12.9404L11.9141 14.9102C11.7141 15.0011 11.4894 15.0239 11.2754 14.9746L6.57715 13.8896C6.12854 14.5589 5.36618 15 4.5 15C3.11929 15 2 13.8807 2 12.5C2 11.1193 3.11929 10 4.5 10ZM18.5762 14.5859L19.6211 14.2383L18.3779 13.4922L18.5762 14.5859ZM3 7.5C3.55228 7.5 4 7.94772 4 8.5C4 9.05228 3.55228 9.5 3 9.5C2.44772 9.5 2 9.05228 2 8.5C2 7.94772 2.44772 7.5 3 7.5ZM15.7256 2.47949C17.6586 2.47949 19.2256 4.04747 19.2256 5.98047C19.2253 7.91323 17.6584 9.48047 15.7256 9.48047C13.7928 9.48047 12.2259 7.91323 12.2256 5.98047C12.2256 4.04747 13.7926 2.47949 15.7256 2.47949ZM15.7256 4.48047C14.8972 4.48047 14.2256 5.15203 14.2256 5.98047C14.2259 6.80866 14.8973 7.48047 15.7256 7.48047C16.5538 7.48047 17.2253 6.80866 17.2256 5.98047C17.2256 5.15203 16.554 4.48047 15.7256 4.48047Z" fill="#9E9E9E"/>
</g>
</svg>
