<svg width="24" height="24" viewBox="0 0 24 24" fill="none" xmlns="http://www.w3.org/2000/svg">
<g id="icons/Sports/target-two">
<path id="Union" d="M12 1C12.5523 1 13 1.44772 13 2V2.55176C17.4485 3.01697 20.982 6.55154 21.4473 11H22C22.5523 11 23 11.4477 23 12C23 12.5523 22.5523 13 22 13H21.4473C20.982 17.4484 17.4484 20.982 13 21.4473V22C13 22.5523 12.5523 23 12 23C11.4477 23 11 22.5523 11 22V21.4473C6.55157 20.982 3.01798 17.4484 2.55273 13H2C1.44772 13 1 12.5523 1 12C1 11.4477 1.44772 11 2 11H2.55273C3.01799 6.55154 6.55153 3.01697 11 2.55176V2C11 1.44772 11.4477 1 12 1ZM4.56836 13C5.01366 16.3424 7.65759 18.9863 11 19.4316V16.8994C9.04042 16.5019 7.49811 14.9596 7.10059 13H4.56836ZM16.8994 13C16.5019 14.9596 14.9596 16.5019 13 16.8994V19.4316C16.3424 18.9863 18.9863 16.3424 19.4316 13H16.8994ZM9.17383 13C9.47497 13.8519 10.1482 14.524 11 14.8252V13H9.17383ZM13 14.8252C13.8518 14.524 14.525 13.8519 14.8262 13H13V14.8252ZM11 4.56738C7.65753 5.01263 5.01366 7.65755 4.56836 11H7.10059C7.49812 9.04035 9.04033 7.49707 11 7.09961V4.56738ZM13 11H14.8262C14.525 10.148 13.852 9.47501 13 9.17383V11ZM13 7.09961C14.9597 7.49707 16.5019 9.04035 16.8994 11H19.4316C18.9863 7.65755 16.3425 5.01263 13 4.56738V7.09961ZM11 9.17383C10.148 9.47501 9.47501 10.148 9.17383 11H11V9.17383Z" fill="#9E9E9E"/>
</g>
</svg>
