<svg width="24" height="24" viewBox="0 0 24 24" fill="none" xmlns="http://www.w3.org/2000/svg">
<g id="icons/Sports/target-one">
<path id="Union" d="M11.9443 0.944336C12.4966 0.944336 12.9443 1.39205 12.9443 1.94434V3.00098C17.4455 3.49818 20.9443 7.31015 20.9443 11.9443C20.9443 14.524 19.8577 16.8467 18.1201 18.4873L19.8125 21.4482C20.0865 21.9278 19.9199 22.5385 19.4404 22.8125C18.9609 23.0865 18.3502 22.9199 18.0762 22.4404L16.5098 19.7002C15.1712 20.4895 13.6115 20.9443 11.9443 20.9443C10.2769 20.9443 8.71664 20.4898 7.37793 19.7002L5.8125 22.4404C5.53849 22.9199 4.92776 23.0865 4.44824 22.8125C3.96873 22.5385 3.80216 21.9278 4.07617 21.4482L5.76758 18.4873C4.03025 16.8467 2.94434 14.5237 2.94434 11.9443C2.94434 7.31015 6.44315 3.49818 10.9443 3.00098V1.94434C10.9443 1.39205 11.3921 0.944336 11.9443 0.944336ZM11.9443 4.94434C8.07663 4.94434 4.94434 8.07663 4.94434 11.9443C4.94434 15.812 8.07663 18.9443 11.9443 18.9443C15.8121 18.9443 18.9443 15.8121 18.9443 11.9443C18.9443 8.07663 15.812 4.94434 11.9443 4.94434ZM11.9443 6.94434C14.7066 6.94434 16.9443 9.18205 16.9443 11.9443C16.9443 14.7066 14.7066 16.9443 11.9443 16.9443C9.18205 16.9443 6.94434 14.7066 6.94434 11.9443C6.94434 9.18205 9.18205 6.94434 11.9443 6.94434ZM11.9443 8.94434C10.2866 8.94434 8.94434 10.2866 8.94434 11.9443C8.94434 13.6021 10.2866 14.9443 11.9443 14.9443C13.6021 14.9443 14.9443 13.6021 14.9443 11.9443C14.9443 10.2866 13.6021 8.94434 11.9443 8.94434ZM11.9443 10.9443C12.4943 10.9443 12.9443 11.3943 12.9443 11.9443C12.9443 12.4943 12.4943 12.9443 11.9443 12.9443C11.3943 12.9443 10.9443 12.4943 10.9443 11.9443C10.9443 11.3943 11.3943 10.9443 11.9443 10.9443Z" fill="#9E9E9E"/>
</g>
</svg>
