<svg width="24" height="24" viewBox="0 0 24 24" fill="none" xmlns="http://www.w3.org/2000/svg">
<g id="icons/Sports/tennis">
<path id="Union" d="M12 1C18.0751 1 23 5.92487 23 12C23 18.068 18.0867 22.9874 12.0215 22.999C12.0189 22.9991 12.0163 23 12.0137 23C12.0117 23 12.0098 22.999 12.0078 22.999C12.0052 22.999 12.0026 23 12 23C5.92487 23 1 18.0751 1 12C1 5.92487 5.92487 1 12 1ZM12.9561 3.05078C12.761 6.04487 11.9075 8.46911 10.2686 10.1914C8.60219 11.9424 6.13937 12.8161 3.05371 12.9746C3.505 17.1649 6.83093 20.4918 11.0205 20.9453C11.156 17.9543 12.0463 15.5412 13.835 13.8613C15.6143 12.1903 18.0422 11.4376 20.9824 11.4639C20.7237 7.06121 17.302 3.5097 12.9561 3.05078ZM20.8799 13.4629C18.3338 13.4539 16.4854 14.116 15.2041 15.3193C13.9264 16.5193 13.1548 18.3431 13.0215 20.9395C17.0273 20.4868 20.235 17.4073 20.8799 13.4629ZM10.9512 3.0625C6.81183 3.54303 3.53035 6.83035 3.05957 10.9727C5.78024 10.8163 7.64442 10.047 8.81934 8.8125C10.0114 7.5599 10.7591 5.68487 10.9512 3.0625Z" fill="#9E9E9E"/>
</g>
</svg>
