<svg width="24" height="24" viewBox="0 0 24 24" fill="none" xmlns="http://www.w3.org/2000/svg">
<g id="icons/Sports/thin">
<path id="Union" d="M16.9259 1.00293C17.2856 0.976224 17.6321 1.14516 17.8322 1.44531L20.8322 5.94531L20.8409 5.95801C22.2593 8.15837 21.9024 11.3431 19.5363 12.8447H19.5353C19.3258 12.9775 19.0945 13.0792 18.8595 13.1611L17.7072 17.5439C17.3601 18.8987 17.7346 20.3125 18.7101 21.2959C19.0987 21.688 19.0961 22.3211 18.7042 22.71C18.3122 23.0989 17.6791 23.0961 17.2902 22.7041C15.8068 21.2087 15.2508 19.0648 15.7716 17.041L15.7726 17.0352L16.7032 13.4961C16.6337 13.4976 16.5659 13.5 16.5001 13.5H7.50012C7.434 13.5 7.36582 13.4966 7.29602 13.4951L8.22668 17.0195L8.22864 17.0254C8.74908 19.0474 8.19461 21.2074 6.71008 22.7041C6.32119 23.0962 5.68813 23.0988 5.29602 22.71C4.90394 22.321 4.90129 21.688 5.29016 21.2959C6.26408 20.314 6.63994 18.8863 6.29309 17.5303L5.13977 13.1602C4.90649 13.079 4.67764 12.9777 4.46985 12.8477L4.46497 12.8447C2.09135 11.3422 1.74205 8.15659 3.1593 5.95801L3.16809 5.94531L6.16809 1.44531C6.36855 1.14465 6.71597 0.975534 7.07629 1.00293C7.43634 1.03045 7.75368 1.24992 7.90637 1.57715C9.51047 5.01786 14.4731 5.02258 16.0948 1.57422L16.1603 1.45703C16.3288 1.19627 16.6112 1.02635 16.9259 1.00293ZM12.0001 19C12.5524 19.0001 13.0001 19.4477 13.0001 20V21C13.0001 21.5522 12.5523 21.9999 12.0001 22C11.4479 22 11.0001 21.5523 11.0001 21V20C11.0001 19.4477 11.4478 19 12.0001 19ZM17.0177 3.8291C14.4574 6.92994 9.53361 6.93899 6.97961 3.83301L4.83997 7.04102C3.91793 8.47135 4.25845 10.3449 5.53235 11.1533C5.67768 11.2437 5.95373 11.341 6.35168 11.4092C6.73231 11.4744 7.14539 11.5 7.50012 11.5H16.5001C16.857 11.5 17.2706 11.4747 17.6505 11.4102C18.0489 11.3424 18.3217 11.2454 18.464 11.1553C19.7377 10.3469 20.0808 8.47157 19.1593 7.04199V7.04102L17.0177 3.8291Z" fill="#9E9E9E"/>
</g>
</svg>
