<svg width="24" height="24" viewBox="0 0 24 24" fill="none" xmlns="http://www.w3.org/2000/svg">
<g id="icons/Sports/torch">
<path id="Union" d="M13.5653 1.00195C13.9044 1.02452 14.2092 1.21836 14.3739 1.51562L14.3749 1.5166V1.51758C14.3753 1.5183 14.3762 1.51937 14.3768 1.52051C14.3785 1.52355 14.3815 1.5285 14.3846 1.53418C14.391 1.54572 14.4001 1.56319 14.412 1.58496C14.436 1.62882 14.4713 1.69279 14.5155 1.77441C14.6041 1.93825 14.7305 2.174 14.8817 2.46191C15.1837 3.03718 15.5873 3.82656 15.9921 4.67676C16.3954 5.52404 16.8074 6.44756 17.12 7.28809C17.4166 8.0857 17.6795 8.94843 17.6796 9.61523C17.6795 10.4806 17.4485 11.3054 17.0321 12.002C17.3479 12.0121 17.6414 12.17 17.8221 12.4307C18.0087 12.7001 18.0514 13.0446 17.9364 13.3516L16.4364 17.3516C16.29 17.7417 15.9166 18 15.4999 18H14.4999V22C14.4999 22.5523 14.0522 23 13.4999 23H10.4999C9.94767 22.9999 9.49988 22.5522 9.49988 22V18H8.49988C8.08322 17.9999 7.70978 17.7416 7.56335 17.3516L6.06335 13.3516C5.94836 13.0447 5.99105 12.7001 6.17761 12.4307C6.28846 12.2707 6.44221 12.1497 6.61707 12.0771C6.42322 11.6226 6.31926 11.1212 6.31921 10.6104C6.31927 10.0916 6.51384 9.42923 6.7157 8.84863C6.93253 8.22501 7.21658 7.5372 7.49402 6.90723C7.77268 6.27449 8.05098 5.68552 8.25867 5.25586C8.36264 5.04076 8.44862 4.86394 8.50964 4.74121C8.53993 4.6803 8.56435 4.63257 8.58093 4.59961C8.5891 4.58338 8.59605 4.57026 8.60046 4.56152C8.60265 4.55718 8.60416 4.55312 8.60535 4.55078L8.6073 4.54785C8.77983 4.20844 9.13088 3.99539 9.5116 4C9.89229 4.00471 10.2371 4.22584 10.4012 4.56934H10.4022L10.4032 4.57129C10.404 4.57292 10.4046 4.5759 10.4061 4.5791C10.4096 4.5863 10.4149 4.5981 10.4218 4.6123C10.4355 4.64091 10.4563 4.6835 10.4823 4.7373C10.489 4.75114 10.4963 4.76592 10.5038 4.78125C10.8514 4.16843 11.2134 3.58731 11.536 3.09082C11.8565 2.59765 12.1448 2.17835 12.3534 1.88184C12.4578 1.73347 12.5424 1.61475 12.6014 1.5332C12.6307 1.49275 12.6538 1.46123 12.6698 1.43945C12.6777 1.4287 12.684 1.41995 12.6884 1.41406C12.6905 1.41114 12.693 1.40888 12.6942 1.40723L12.6952 1.40527L12.6962 1.4043C12.8987 1.13142 13.2262 0.979562 13.5653 1.00195ZM11.4999 21H12.4999V18H11.4999V21ZM9.19324 16H14.8065L15.5565 14H8.44324L9.19324 16ZM13.2128 4.18066C12.5977 5.12724 11.8836 6.32269 11.4169 7.39844C11.2635 7.75179 10.92 7.98511 10.535 7.99902C10.1501 8.01276 9.79157 7.80427 9.61316 7.46289C9.58145 7.4022 9.55071 7.34076 9.51941 7.28027C9.45544 7.42132 9.38893 7.56568 9.3241 7.71289C9.05663 8.32022 8.79625 8.95305 8.60437 9.50488C8.39766 10.0994 8.3193 10.469 8.31921 10.6104C8.31935 11.5031 8.84916 11.9998 9.4989 12H13.4989C14.7361 12 15.6795 11.0169 15.6796 9.61523C15.6795 9.34712 15.5444 8.78942 15.245 7.98438C14.9615 7.22212 14.5778 6.35841 14.1864 5.53613C13.9083 4.95203 13.6273 4.39692 13.3837 3.92285C13.3285 4.00628 13.2705 4.09189 13.2128 4.18066Z" fill="#9E9E9E"/>
</g>
</svg>
