<svg width="24" height="24" viewBox="0 0 24 24" fill="none" xmlns="http://www.w3.org/2000/svg">
<g id="icons/Sports/towel">
<path id="Union" d="M20 1C21.6568 1 23 2.34314 23 4V20C23 21.6573 21.6573 23 20 23H8C6.34272 23 5 21.6573 5 20V19H4C2.34314 19 1 17.6568 1 16V4C1 2.34315 2.34315 1 4 1H20ZM4 3C3.44771 3 3 3.44771 3 4V8H17V6C17 5.44772 17.4477 5 18 5C18.5523 5 19 5.44772 19 6V16C19 17.6568 17.6568 19 16 19H7V20C7 20.5527 7.44728 21 8 21H20C20.5527 21 21 20.5527 21 20V4C21 3.44772 20.5523 3 20 3H4ZM3 14V16C3 16.5523 3.44772 17 4 17H16C16.5523 17 17 16.5523 17 16V14H3ZM3 12H17V10H3V12Z" fill="#9E9E9E"/>
</g>
</svg>
