<svg width="24" height="24" viewBox="0 0 24 24" fill="none" xmlns="http://www.w3.org/2000/svg">
<g id="icons/Sports/treadmill-two">
<path id="Union" d="M20.793 1.29297C21.1835 0.902444 21.8165 0.902444 22.207 1.29297C22.5975 1.6835 22.5975 2.31652 22.207 2.70703L20.2861 4.62695L21.832 6.94531C22.0104 7.21291 22.0494 7.55044 21.9365 7.85156L19.4434 14.5H20C21.6569 14.5 23 15.8431 23 17.5C23 18.8057 22.1645 19.913 21 20.3252V22C21 22.5522 20.5523 23 20 23C19.4477 23 19 22.5522 19 22V20.5H5V22C4.99996 22.5522 4.55226 23 4 23C3.44774 23 3.00004 22.5522 3 22V20.3252C1.83549 19.913 1.00003 18.8057 1 17.5C1 15.8431 2.34315 14.5 4 14.5H17.3066L19.8828 7.62793L18.8438 6.06934L17.207 7.70703C16.8165 8.09751 16.1835 8.09751 15.793 7.70703C15.4025 7.31652 15.4025 6.6835 15.793 6.29297L20.793 1.29297ZM4 16.5C3.44772 16.5 3 16.9477 3 17.5C3.00004 18.0522 3.44774 18.5 4 18.5H20C20.5523 18.5 21 18.0522 21 17.5C21 16.9477 20.5523 16.5 20 16.5H4Z" fill="#9E9E9E"/>
</g>
</svg>
