<svg width="24" height="24" viewBox="0 0 24 24" fill="none" xmlns="http://www.w3.org/2000/svg">
<g id="icons/Sports/treadmill">
<path id="Union" d="M5.31738 1.00488C5.82159 1.05614 6.21484 1.48227 6.21484 2C6.21484 2.51773 5.82159 2.94386 5.31738 2.99512L5.21484 3H3.5166L5.0166 6.5H12.5C13.0523 6.5 13.5 6.94772 13.5 7.5C13.5 8.05228 13.0523 8.5 12.5 8.5H5.87305L8.80566 15.3428L20.2588 16.7734H20.2607C21.8227 16.9715 23 18.2997 23 19.876C22.9996 21.6029 21.6021 23.001 19.875 23.001H4.65527C2.63815 23.001 1.00026 21.3628 1 19.3457V16.6357C1.00001 15.7653 1.55123 15.0399 2.30566 14.7588L4.89844 11.3018L1.08105 2.39355C0.948759 2.08465 0.980042 1.72977 1.16504 1.44922C1.3501 1.16868 1.66392 1 2 1H5.21484L5.31738 1.00488ZM3 16.6348V19.3457C3.00026 20.2582 3.74272 21.001 4.65527 21.001H19.875C20.4975 21.001 20.9996 20.4984 21 19.876C21 19.3123 20.5767 18.8298 20.0088 18.7578V18.7568L3.00098 16.6328L3 16.6348ZM4.74707 14.8359L6.50781 15.0557L5.80762 13.4219L4.74707 14.8359Z" fill="#9E9E9E"/>
</g>
</svg>
