<svg width="24" height="24" viewBox="0 0 24 24" fill="none" xmlns="http://www.w3.org/2000/svg">
<g id="icons/Sports/treadmill-one">
<path id="Union" d="M21.0859 17.0938C21.3102 16.5891 21.9016 16.3616 22.4062 16.5859C22.9109 16.8102 23.1384 17.4016 22.9141 17.9062L20.9141 22.4062C20.7536 22.7674 20.3952 23 20 23H3C2.44772 23 2 22.5523 2 22C2 21.4477 2.44772 21 3 21H19.3496L21.0859 17.0938ZM7.96777 7.15332C8.22986 6.98852 8.55697 6.95301 8.85156 7.06348L12.8516 8.56348C12.9199 8.58915 12.9847 8.62195 13.0449 8.66113L16.6299 10.9023L19.1836 10.0518C19.7074 9.87714 20.2735 10.1598 20.4482 10.6836C20.6229 11.2074 20.3402 11.7735 19.8164 11.9482L16.8164 12.9482C16.5334 13.0426 16.2227 13.0057 15.9697 12.8477L12.9023 10.9307L12.2432 12.249L15.1504 14.7412L15.2549 14.8438C15.3505 14.9538 15.4215 15.0843 15.4619 15.2256L16.4619 18.7256C16.6134 19.2565 16.3053 19.8102 15.7744 19.9619C15.2435 20.1134 14.6898 19.8053 14.5381 19.2744L13.6201 16.0615L11.2314 14.0146L9.34766 17.0303C9.14123 17.3602 8.76222 17.5405 8.37598 17.4922L4.37598 16.9922C3.82796 16.9237 3.43931 16.424 3.50781 15.876C3.57632 15.328 4.076 14.9393 4.62402 15.0078L7.99023 15.4277L10.125 12.0117L11.1084 10.0459L8.69336 9.14062L6.14062 11.2686C5.71638 11.6221 5.08502 11.5648 4.73145 11.1406C4.37791 10.7164 4.43519 10.085 4.85938 9.73145L7.85938 7.23145L7.96777 7.15332ZM15 1C16.933 1 18.5 2.567 18.5 4.5C18.5 6.43298 16.933 8 15 8C13.067 8 11.5 6.43298 11.5 4.5C11.5 2.567 13.067 1 15 1ZM15 3C14.1716 3 13.5 3.67158 13.5 4.5C13.5 5.32842 14.1716 6 15 6C15.8284 6 16.5 5.32842 16.5 4.5C16.5 3.67158 15.8284 3 15 3Z" fill="#9E9E9E"/>
</g>
</svg>
