<svg width="24" height="24" viewBox="0 0 24 24" fill="none" xmlns="http://www.w3.org/2000/svg">
<g id="icons/Sports/volleyball">
<path id="Union" d="M7.70483 1.87646C13.2933 -0.499561 19.7546 2.11862 22.1248 7.70459C22.7738 9.23442 23.0484 10.8297 22.9919 12.3882C23.0045 12.5003 22.9989 12.6141 22.9734 12.7251C22.7164 16.5537 20.4595 20.1156 16.8113 21.8882L16.2957 22.1226C12.5953 23.6956 8.51695 23.0779 5.49292 20.8608C5.42643 20.8217 5.36452 20.775 5.30835 20.7212C3.84854 19.603 2.64692 18.1057 1.87671 16.2944C-0.499243 10.7057 2.11988 4.2511 7.70483 1.87646ZM16.032 11.7202C14.9117 11.8075 13.8437 12.1113 12.9617 12.5903C12.6693 15.7569 10.8599 18.5648 8.1521 20.1284C9.22637 20.6372 10.3976 20.9336 11.5974 20.9888C14.0782 19.2954 15.1886 16.9068 15.6765 14.8628C15.9293 13.8037 16.0111 12.8505 16.0291 12.1646C16.0334 11.9997 16.0335 11.8508 16.032 11.7202ZM18.0281 12.2173C18.0073 13.0082 17.9139 14.104 17.6218 15.3276C17.2404 16.9251 16.5131 18.7657 15.1521 20.4253C15.2729 20.3799 15.3936 20.3327 15.5134 20.2817C18.6297 18.9581 20.6103 16.0866 20.946 12.9458C20.1103 12.352 19.1023 11.9702 18.031 11.7993C18.0314 11.9272 18.032 12.067 18.0281 12.2173ZM3.13745 10.4595C2.84811 12.1091 3.01393 13.8573 3.71753 15.5122C4.28808 16.8539 5.14808 17.9846 6.19116 18.8657C7.21734 18.4521 8.12142 17.8286 8.86108 17.0532C8.75615 16.9965 8.64113 16.9345 8.52026 16.8638C7.88376 16.4914 7.03384 15.9178 6.17358 15.106C5.01914 14.0164 3.84102 12.4915 3.13745 10.4595ZM6.82495 4.64209C5.89285 5.29711 5.11127 6.11127 4.50269 7.03076C4.6558 10.1746 6.1104 12.2953 7.54663 13.6509C8.27391 14.3372 8.99499 14.8246 9.53101 15.1382C9.73624 15.2582 9.91417 15.3512 10.0525 15.4204C10.5373 14.533 10.8524 13.5454 10.9617 12.5054C8.42565 10.6894 6.81944 7.74839 6.82495 4.64209ZM19.9861 7.85986C17.1904 6.42112 14.4937 6.63881 12.45 7.2417C11.4209 7.5453 10.5694 7.94437 9.97729 8.26611C9.92657 8.29368 9.87851 8.32188 9.83179 8.34814C10.3764 9.29844 11.1252 10.1459 12.0369 10.8169C13.5095 10.0245 15.2897 9.64408 17.0408 9.69971C18.3505 9.74138 19.6834 10.0297 20.8894 10.604C20.7771 9.89119 20.5775 9.18001 20.283 8.48584C20.192 8.27139 20.0914 8.06344 19.9861 7.85986ZM17.6013 4.9585C15.2156 3.06507 11.9375 2.43898 8.91382 3.54834C8.75452 4.53764 8.81642 5.53459 9.06616 6.48486C9.74986 6.11647 10.7164 5.66833 11.8845 5.32373C13.4708 4.8558 15.452 4.57481 17.6013 4.9585Z" fill="#9E9E9E"/>
</g>
</svg>
