<svg width="24" height="24" viewBox="0 0 24 24" fill="none" xmlns="http://www.w3.org/2000/svg">
<g id="icons/Sports/waterpolo-one">
<path id="Union" d="M21.5241 19.6201C22.0099 19.3575 22.6169 19.5387 22.8796 20.0244C23.1422 20.5103 22.9611 21.1173 22.4753 21.3799L21.2253 22.0557C20.1286 22.6483 18.8707 22.6484 17.7741 22.0557C17.2709 21.7838 16.7285 21.7837 16.2253 22.0557C15.1286 22.6483 13.8707 22.6484 12.7741 22.0557C12.2709 21.7838 11.7285 21.7837 11.2253 22.0557C10.1286 22.6483 8.87072 22.6484 7.77411 22.0557C7.27091 21.7838 6.72846 21.7837 6.22528 22.0557C5.12865 22.6483 3.87072 22.6484 2.77411 22.0557L1.52411 21.3799C1.03852 21.1172 0.857366 20.5101 1.11981 20.0244C1.38239 19.5387 1.98948 19.3577 2.47528 19.6201L3.72528 20.2959C4.22846 20.5679 4.77092 20.5678 5.27411 20.2959C6.37075 19.7031 7.62861 19.7032 8.72528 20.2959C9.22846 20.5679 9.77092 20.5678 10.2741 20.2959C11.3708 19.7031 12.6286 19.7032 13.7253 20.2959C14.2285 20.5679 14.7709 20.5678 15.2741 20.2959C16.3708 19.7031 17.6286 19.7032 18.7253 20.2959C19.2285 20.5679 19.7709 20.5678 20.2741 20.2959L21.5241 19.6201ZM21.5241 16.6201C22.0099 16.3575 22.6169 16.5387 22.8796 17.0244C23.1422 17.5103 22.9611 18.1173 22.4753 18.3799L21.2253 19.0557C20.1286 19.6483 18.8707 19.6484 17.7741 19.0557C17.2709 18.7838 16.7285 18.7837 16.2253 19.0557C15.1286 19.6483 13.8707 19.6484 12.7741 19.0557C12.2709 18.7838 11.7285 18.7837 11.2253 19.0557C10.1286 19.6483 8.87072 19.6484 7.77411 19.0557C7.27091 18.7838 6.72846 18.7837 6.22528 19.0557C5.12865 19.6483 3.87072 19.6484 2.77411 19.0557L1.52411 18.3799C1.03852 18.1172 0.857366 17.5101 1.11981 17.0244C1.38239 16.5387 1.98948 16.3577 2.47528 16.6201L3.72528 17.2959C4.22846 17.5679 4.77092 17.5678 5.27411 17.2959C6.37075 16.7031 7.62861 16.7032 8.72528 17.2959C9.22846 17.5679 9.77092 17.5678 10.2741 17.2959C11.3708 16.7031 12.6286 16.7032 13.7253 17.2959C14.2285 17.5679 14.7709 17.5678 15.2741 17.2959C16.3708 16.7031 17.6286 16.7032 18.7253 17.2959C19.2285 17.5679 19.7709 17.5678 20.2741 17.2959L21.5241 16.6201ZM1.46259 4.65625C1.92843 4.3598 2.54687 4.49717 2.84344 4.96289L6.12177 10.1143L12.111 11.4648H20.9997C21.5519 11.4648 21.9996 11.9126 21.9997 12.4648C21.9997 13.0171 21.552 13.4648 20.9997 13.4648H13.2712L13.4694 14.2578C13.6032 14.7935 13.2776 15.3358 12.7419 15.4697C12.2063 15.6033 11.6639 15.2778 11.53 14.7422L11.1696 13.3027L5.27997 11.9756C5.02244 11.9175 4.79772 11.7598 4.65594 11.5371L1.15594 6.03711C0.859639 5.57131 0.996986 4.95282 1.46259 4.65625ZM12.4997 3C14.4327 3 15.9997 4.56702 15.9997 6.5C15.9997 8.43298 14.4327 10 12.4997 10C10.5669 9.99982 8.99969 8.43287 8.99969 6.5C8.99969 4.56713 10.5669 3.00018 12.4997 3ZM12.4997 5C11.6714 5.00018 10.9997 5.6717 10.9997 6.5C10.9997 7.3283 11.6714 7.99982 12.4997 8C13.3281 8 13.9997 7.32842 13.9997 6.5C13.9997 5.67158 13.3281 5 12.4997 5ZM5.49969 2C6.32815 2 6.99969 2.67158 6.99969 3.5C6.99969 4.32842 6.32815 5 5.49969 5C4.67142 4.99982 3.99969 4.32831 3.99969 3.5C3.99969 2.67169 4.67142 2.00018 5.49969 2Z" fill="#9E9E9E"/>
</g>
</svg>
