<svg width="24" height="24" viewBox="0 0 24 24" fill="none" xmlns="http://www.w3.org/2000/svg">
<g id="icons/Sports/waterpolo">
<path id="Union" d="M21.5242 19.1201C22.0099 18.8575 22.617 19.0387 22.8796 19.5244C23.1422 20.0103 22.9612 20.6173 22.4753 20.8799L21.2253 21.5557C20.1287 22.1483 18.8708 22.1484 17.7742 21.5557C17.271 21.2837 16.7285 21.2837 16.2253 21.5557C15.1287 22.1483 13.8708 22.1484 12.7742 21.5557C12.271 21.2837 11.7285 21.2837 11.2253 21.5557C10.1287 22.1483 8.87082 22.1484 7.77417 21.5557C7.27097 21.2837 6.72853 21.2837 6.22534 21.5557C5.12868 22.1483 3.87082 22.1484 2.77417 21.5557L1.52417 20.8799C1.03851 20.6172 0.857323 20.0102 1.11987 19.5244C1.38245 19.0387 1.98954 18.8577 2.47534 19.1201L3.72534 19.7959C4.22856 20.0679 4.77094 20.0678 5.27417 19.7959C6.37083 19.2031 7.62866 19.2032 8.72534 19.7959C9.22856 20.0679 9.77094 20.0678 10.2742 19.7959C11.3708 19.2031 12.6287 19.2032 13.7253 19.7959C14.2286 20.0679 14.7709 20.0678 15.2742 19.7959C16.3708 19.2031 17.6287 19.2032 18.7253 19.7959C19.2286 20.0679 19.7709 20.0678 20.2742 19.7959L21.5242 19.1201ZM21.5242 16.1201C22.0099 15.8575 22.617 16.0387 22.8796 16.5244C23.1422 17.0103 22.9612 17.6173 22.4753 17.8799L21.2253 18.5557C20.1287 19.1483 18.8708 19.1484 17.7742 18.5557C17.271 18.2837 16.7285 18.2837 16.2253 18.5557C15.1287 19.1483 13.8708 19.1484 12.7742 18.5557C12.271 18.2837 11.7285 18.2837 11.2253 18.5557C10.1287 19.1483 8.87082 19.1484 7.77417 18.5557C7.27097 18.2837 6.72853 18.2837 6.22534 18.5557C5.12868 19.1483 3.87082 19.1484 2.77417 18.5557L1.52417 17.8799C1.03851 17.6172 0.857323 17.0102 1.11987 16.5244C1.38245 16.0387 1.98954 15.8577 2.47534 16.1201L3.72534 16.7959C4.22856 17.0679 4.77094 17.0678 5.27417 16.7959C6.37083 16.2031 7.62866 16.2032 8.72534 16.7959C9.22856 17.0679 9.77094 17.0678 10.2742 16.7959C11.3708 16.2031 12.6287 16.2032 13.7253 16.7959C14.2286 17.0679 14.7709 17.0678 15.2742 16.7959C16.3708 16.2031 17.6287 16.2032 18.7253 16.7959C19.2286 17.0679 19.7709 17.0678 20.2742 16.7959L21.5242 16.1201ZM7.7019 1.87793C13.2886 -0.497611 19.7482 2.11364 22.1189 7.7041C22.8216 9.35232 23.0867 11.0815 22.9695 12.7568C23.0249 12.9788 23.0032 13.2164 22.9031 13.4277C22.8687 13.6878 22.826 13.9462 22.7732 14.2021C22.6616 14.7428 22.1332 15.0908 21.5925 14.9795C21.0518 14.8678 20.7036 14.3387 20.8152 13.7979C20.8439 13.6588 20.8673 13.5185 20.8894 13.3779C20.0743 12.7568 19.1446 12.3324 18.1638 12.1025C18.1456 12.6521 18.0924 13.3721 17.95 14.1914C17.8553 14.7353 17.3376 15.0993 16.7937 15.0049C16.2497 14.9101 15.8847 14.3926 15.9792 13.8486C16.1156 13.0646 16.16 12.3863 16.1707 11.9014C15.0835 11.93 13.9868 12.1786 12.9568 12.6445C12.9019 13.1963 12.8013 13.7369 12.6589 14.2617C12.5143 14.7947 11.9654 15.1094 11.4324 14.9648C10.8995 14.8201 10.5847 14.2712 10.7292 13.7383C10.8383 13.3365 10.9141 12.9242 10.9587 12.5049C8.36541 10.6637 6.78259 7.78306 6.81519 4.64648C5.88712 5.29949 5.10917 6.11083 4.50269 7.02637C4.63671 9.83169 5.85971 11.8177 7.23804 13.3252C7.61059 13.7328 7.5821 14.3656 7.17456 14.7383C6.76697 15.1108 6.13409 15.0823 5.76147 14.6748C4.74335 13.5613 3.76073 12.1702 3.14233 10.418C2.94572 11.5107 2.94834 12.6475 3.17554 13.7725C3.28457 14.3136 2.93438 14.8408 2.39331 14.9502C1.85203 15.0594 1.32392 14.7093 1.2146 14.168C0.202911 9.15833 2.80813 3.95686 7.7019 1.87793ZM19.9802 7.85742C17.183 6.4192 14.6149 6.64459 12.7156 7.23828C11.7547 7.53865 10.9696 7.93208 10.4275 8.25C10.2224 8.3703 10.0539 8.48001 9.92456 8.56738C10.4663 9.43708 11.1933 10.2131 12.0779 10.8477C14.9065 9.55034 18.2304 9.55869 20.9451 11.0381C20.852 10.1813 20.6345 9.32303 20.2791 8.48926L20.2781 8.48633C20.1868 8.27087 20.086 8.06189 19.9802 7.85742ZM17.5867 4.94824C15.2035 3.06205 11.9327 2.44099 8.91479 3.54688C8.73432 4.63604 8.80672 5.71104 9.09839 6.71973C9.19547 6.65877 9.30086 6.59278 9.41577 6.52539C10.0579 6.14884 10.9825 5.68434 12.1189 5.3291C13.6216 4.85938 15.5051 4.5788 17.5867 4.94824Z" fill="#9E9E9E"/>
</g>
</svg>
