<svg width="24" height="24" viewBox="0 0 24 24" fill="none" xmlns="http://www.w3.org/2000/svg">
<g id="icons/Sports/weightlifting">
<path id="Union" d="M22 1C22.5523 1 23 1.44772 23 2V7C23 7.55228 22.5523 8 22 8C21.4477 8 21 7.55228 21 7V5.5H19.5V13C19.5 13.3472 19.32 13.6695 19.0244 13.8516L13 17.5586V22C13 22.5523 12.5523 23 12 23C11.4477 23 11 22.5523 11 22V17.5625L4.98047 13.9043C4.68217 13.7229 4.5 13.399 4.5 13.0498V5.5H3V7C3 7.55228 2.55228 8 2 8C1.44772 8 1 7.55228 1 7V2C1 1.44772 1.44772 1 2 1C2.55228 1 3 1.44772 3 2V3.5H21V2C21 1.44772 21.4477 1 22 1ZM6.5 12.4863L11.9961 15.8271L17.5 12.4404V5.5H6.5V12.4863ZM12 7.5C13.933 7.5 15.5 9.06702 15.5 11C15.5 12.933 13.933 14.5 12 14.5C10.067 14.5 8.5 12.933 8.5 11C8.5 9.06702 10.067 7.5 12 7.5ZM12 9.5C11.1716 9.5 10.5 10.1716 10.5 11C10.5 11.8284 11.1716 12.5 12 12.5C12.8284 12.5 13.5 11.8284 13.5 11C13.5 10.1716 12.8284 9.5 12 9.5Z" fill="#9E9E9E"/>
</g>
</svg>
