<svg width="24" height="24" viewBox="0 0 24 24" fill="none" xmlns="http://www.w3.org/2000/svg">
<g id="icons/Sports/whistling">
<path id="Union" d="M13.5 4.5C17.318 4.5 20.447 7.3196 20.9326 11H22C22.5523 11 23 11.4477 23 12C23 12.5523 22.5523 13 22 13H20.9326C20.4463 16.6808 17.313 19.5 13.5 19.5C9.34272 19.5 6 16.1573 6 12C6 11.4829 6.05107 10.983 6.14941 10.5H2C1.44772 10.5 1 10.0523 1 9.5V5.5C1 4.94772 1.44772 4.5 2 4.5H13.5ZM3 8.5H7.5C7.83476 8.5 8.14764 8.66754 8.33301 8.94629C8.51828 9.22501 8.55131 9.57807 8.42188 9.88672C8.14749 10.5411 8 11.2398 8 12C8 15.0527 10.4473 17.5 13.5 17.5C16.5482 17.5 19 15.0522 19 12C19 9.28915 17.0699 7.05706 14.5 6.59082V8.5C14.5 9.05228 14.0523 9.5 13.5 9.5C12.9477 9.5 12.5 9.05228 12.5 8.5V6.5H3V8.5Z" fill="#9E9E9E"/>
</g>
</svg>
