<svg width="24" height="24" viewBox="0 0 24 24" fill="none" xmlns="http://www.w3.org/2000/svg">
<g id="icons/Sports/wingsuit-flying">
<path id="Union" d="M12 9C16.9062 9 21.0055 13.0918 21 18.001C20.9994 18.5528 20.5518 19 20 19H17.5V22C17.5 22.5523 17.0523 23 16.5 23H7.5C6.94772 23 6.5 22.5523 6.5 22V19H4C3.44772 19 3 18.5523 3 18C3 13.0873 7.09312 9 12 9ZM13 21H15.5V11.9678C14.7412 11.5191 13.8957 11.208 13 11.0742V21ZM11 11.0742C10.1042 11.2079 9.25865 11.5183 8.5 11.9668V21H11V11.0742ZM6.5 13.7217C5.76337 14.6601 5.25664 15.7836 5.0752 17H6.5V13.7217ZM17.5 17H18.9258C18.7451 15.7839 18.238 14.6598 17.5 13.7207V17ZM12 1C13.933 1 15.5 2.567 15.5 4.5C15.5 6.43298 13.933 8 12 8C10.067 8 8.5 6.43298 8.5 4.5C8.5 2.567 10.067 1 12 1ZM12 3C11.1716 3 10.5 3.67158 10.5 4.5C10.5 5.32842 11.1716 6 12 6C12.8284 6 13.5 5.32842 13.5 4.5C13.5 3.67158 12.8284 3 12 3Z" fill="#9E9E9E"/>
</g>
</svg>
