<svg width="100%" height="100%" overflow="visible" style="display: block;" viewBox="0 0 21 19.2188" fill="none" xmlns="http://www.w3.org/2000/svg">
<path id="Union" d="M4.56641 10.1748C7.0887 10.1748 9.13356 12.1989 9.13379 14.6963C9.13379 17.1937 7.08884 19.2188 4.56641 19.2188C2.04419 19.2186 0 17.1937 0 14.6963C0.00022947 12.199 2.04433 10.1749 4.56641 10.1748ZM16.4326 10.1748C18.9548 10.1749 20.9998 12.199 21 14.6963C21 17.1937 18.9549 19.2187 16.4326 19.2188C13.9102 19.2188 11.8652 17.1937 11.8652 14.6963C11.8655 12.1989 13.9104 10.1748 16.4326 10.1748ZM10.5 0C13.0219 0.000222722 15.0662 2.0247 15.0664 4.52148C15.0664 7.01896 13.0221 9.04372 10.5 9.04395C7.97753 9.04395 5.93262 7.0191 5.93262 4.52148C5.93285 2.02456 7.97768 0 10.5 0Z" fill="#9E9E9E"/>
</svg>
