<svg width="100%" height="100%" overflow="visible" style="display: block;" viewBox="0 0 19 22" fill="none" xmlns="http://www.w3.org/2000/svg">
<path id="Vector" d="M0 0.264352C0 0.411215 0.366497 4.71918 0.819797 9.83979C1.26345 14.9506 1.64924 19.2879 1.65888 19.474L1.68782 19.8069L5.59391 20.9034L9.49036 22L10.2716 21.7846C10.6959 21.6671 12.4416 21.1776 14.1584 20.6978C16.8203 19.9537 17.2736 19.7971 17.3122 19.6306C17.3604 19.3956 19 0.528705 19 0.215398V0H0V0.264352ZM15.499 4.42546C15.4604 4.66044 15.2096 7.44103 14.9396 10.6231C14.6599 13.7953 14.4284 16.4192 14.4091 16.4388C14.3706 16.4878 9.63503 17.8193 9.5 17.8193C9.40355 17.8193 6.81878 17.1046 5.05381 16.5955L4.56193 16.4486L4.44619 15.1562C4.38832 14.4415 4.31117 13.5799 4.27259 13.2372L4.21472 12.6302H5.4203C6.7802 12.6302 6.74162 12.6106 6.75127 13.4624C6.75127 13.6778 6.7802 14.0107 6.80914 14.2065L6.867 14.559L8.18833 14.9114L9.5 15.2639L10.802 14.9114C11.5157 14.7156 12.1137 14.5492 12.1137 14.5492C12.1234 14.5394 12.1812 13.9617 12.2391 13.2666C12.297 12.5616 12.3645 11.8763 12.3934 11.7196L12.4416 11.4553H4.1665L4.11827 11.2301C4.08934 11.1126 4.03147 10.5447 3.99289 9.95728L3.92538 8.90966H12.6152L12.6731 8.24388C12.7117 7.88162 12.7695 7.32354 12.7985 7.01024C12.8371 6.60881 12.8274 6.45216 12.7503 6.50111C12.6924 6.53049 10.6381 6.53049 8.16904 6.49132L3.68426 6.43258L3.6264 5.73743C3.58782 5.35559 3.53959 4.8073 3.51066 4.52336L3.45279 4.01424H15.5472L15.499 4.42546Z" fill="#9E9E9E"/>
</svg>
