<svg width="100%" height="100%" overflow="visible" style="display: block;" viewBox="0 0 22.0002 14.9336" fill="none" xmlns="http://www.w3.org/2000/svg">
<path id="Union" d="M17.6145 3.27148C17.9845 3.51524 18.3003 3.82946 18.5432 4.19531C18.7861 4.5611 18.9514 4.97088 19.0285 5.40039C19.9084 5.25947 21.0478 5.37249 21.5383 5.68262L22.0002 5.99316L21.928 6.13379L21.7112 6.55664C20.8889 8.07962 19.3024 8.09418 18.5666 8.08008C16.6912 12.508 12.6952 14.9336 7.28538 14.9336C4.7754 14.9336 2.87127 14.1861 1.60179 12.7197C-0.0860665 10.7737 -0.0864208 8.24911 0.05784 7.44531L0.0871369 7.27637H15.0324C15.608 7.29086 16.1785 7.16431 16.6916 6.90918C16.3887 6.47205 16.3015 5.96463 16.2727 5.68262C16.2009 4.89242 16.3939 4.10101 16.8215 3.42676L17.1389 2.96094L17.6145 3.27148ZM3.98167 4.85059V6.86719H1.70237V4.85059H3.98167ZM6.66526 4.85059V6.86719H4.40061V4.85059H6.66526ZM9.34788 4.85059V6.86719H7.08323V4.85059H9.34788ZM12.0315 4.85059V6.86719H9.76682V4.85059H12.0315ZM14.7151 4.85059V6.86719H12.4504V4.85059H14.7151ZM6.66526 2.4248V4.44141H4.40061V2.4248H6.66526ZM9.34788 2.4248V4.44141H7.08323V2.4248H9.34788ZM12.0315 2.4248V4.44141H9.76682V2.4248H12.0315ZM12.0315 0V2.0166H9.76682V0H12.0315Z" fill="#9E9E9E"/>
</svg>
