<svg width="100%" height="100%" overflow="visible" style="display: block;" viewBox="0 0 15 22" fill="none" xmlns="http://www.w3.org/2000/svg">
<path id="Vector" d="M10.9634 8.23258H6.83878V0H10.9634C13.1894 0 15 1.84617 15 4.11583C15 6.3855 13.1894 8.23258 10.9634 8.23258ZM8.16122 6.88417H10.9634C12.4603 6.88417 13.6776 5.64208 13.6776 4.11675C13.6776 2.59142 12.4594 1.34933 10.9634 1.34933H8.16122V6.88417ZM8.16122 8.23258H4.03746C1.81151 8.23258 0.000898946 6.38642 0.000898946 4.11675C0.000898946 1.84708 1.81151 0 4.03746 0H8.16212V8.23258H8.16122ZM4.03746 1.34842C2.54061 1.34842 1.32334 2.5905 1.32334 4.11583C1.32334 5.64117 2.54061 6.88417 4.03746 6.88417H6.83968V1.34842H4.03746ZM8.16122 15.1158H4.03746C1.81151 15.1158 0.000898946 13.2697 0.000898946 11C0.000898946 8.73033 1.81151 6.88417 4.03746 6.88417H8.16212V15.1158H8.16122ZM4.03746 8.23258C2.54061 8.23258 1.32334 9.47467 1.32334 11C1.32334 12.5253 2.5415 13.7674 4.03746 13.7674H6.83968V8.23258H4.03746ZM4.05904 22C1.8214 22 0 20.1538 0 17.8842C0 15.6145 1.81061 13.7683 4.03656 13.7683H8.16122V17.8393C8.16122 20.1337 6.32095 22 4.05904 22ZM4.03746 15.1158C3.31792 15.1168 2.62813 15.4087 2.11934 15.9275C1.61055 16.4462 1.3243 17.1496 1.32334 17.8833C1.32334 19.4095 2.55049 20.6507 4.05993 20.6507C5.59275 20.6507 6.84058 19.3893 6.84058 17.8383V15.1158H4.03746ZM10.9634 15.1158H10.8753C8.64939 15.1158 6.83878 13.2697 6.83878 11C6.83878 8.73033 8.64939 6.88417 10.8753 6.88417H10.9634C13.1894 6.88417 15 8.73033 15 11C15 13.2697 13.1894 15.1158 10.9634 15.1158ZM10.8762 8.23258C9.37938 8.23258 8.16212 9.47467 8.16212 11C8.16212 12.5253 9.38028 13.7674 10.8762 13.7674H10.9643C12.4612 13.7674 13.6785 12.5253 13.6785 11C13.6785 9.47467 12.4594 8.23258 10.9634 8.23258H10.8762Z" fill="#9E9E9E"/>
</svg>
