<svg width="100%" height="100%" overflow="visible" style="display: block;" viewBox="0 0 19.8701 19.0417" fill="none" xmlns="http://www.w3.org/2000/svg">
<path id="Subtract" d="M9.93457 0C15.4208 0 19.8699 4.37027 19.8701 9.76172C19.8701 14.0733 17.0268 17.7312 13.0811 19.0234C12.5776 19.1191 12.3985 18.8156 12.3984 18.5557C12.3984 18.2343 12.4102 17.1829 12.4102 15.877C12.4102 14.9661 12.0926 14.3715 11.7363 14.0684C13.9485 13.8267 16.2724 13.0016 16.2725 9.25195C16.2725 8.18633 15.887 7.31544 15.25 6.63184C15.3533 6.386 15.6929 5.3932 15.1523 4.04883C15.1334 4.04311 14.298 3.80072 12.4238 5.04883C11.6299 4.8326 10.7789 4.72459 9.93457 4.7207C9.09026 4.72458 8.23999 4.8326 7.44727 5.04883C5.54941 3.78605 4.71484 4.04883 4.71484 4.04883C4.17551 5.39302 4.51604 6.38569 4.61914 6.63184C3.98375 7.31526 3.59576 8.18644 3.5957 9.25195C3.5957 12.9925 5.91541 13.8297 8.12207 14.0762C7.83792 14.3198 7.58046 14.751 7.49121 15.3818C6.92421 15.6313 5.48591 16.0627 4.59961 14.5703C4.59537 14.5628 4.07053 13.6334 3.07715 13.5645C3.07715 13.5645 2.10722 13.5523 3.00879 14.1582C3.01472 14.161 3.66228 14.463 4.1123 15.5859C4.1123 15.5859 4.69523 17.3288 7.45898 16.7383C7.46346 17.5539 7.47266 18.3229 7.47266 18.5557C7.47257 18.8133 7.29026 19.1157 6.79395 19.0254C2.8468 17.7346 0 14.0747 0 9.76172C0.000148543 4.37037 4.44831 4.33529e-05 9.93457 0Z" fill="#9E9E9E"/>
</svg>
