<svg width="100%" height="100%" overflow="visible" style="display: block;" viewBox="0 0 20 21.7723" fill="none" xmlns="http://www.w3.org/2000/svg">
<path id="Union" d="M2.74219 16.3787C4.25669 16.3787 5.48438 17.5866 5.48438 19.076C5.48412 20.5651 4.25654 21.7723 2.74219 21.7723C1.22787 21.7722 0.00025218 20.565 0 19.076C0 17.5867 1.22771 16.3787 2.74219 16.3787ZM16.9287 0.0183458C17.7113 -0.0717297 18.4957 0.172722 19.083 0.689244C19.6702 1.20568 20.0038 1.94484 20 2.71952V19.0476C20.0041 19.8234 19.6695 20.5642 19.0811 21.0808C18.4927 21.5973 17.707 21.8403 16.9238 21.7488C15.5143 21.5436 14.4813 20.3371 14.5156 18.9363V2.83085C14.4816 1.42848 15.5172 0.221359 16.9287 0.0183458ZM9.95801 8.20585C10.6958 8.19475 11.4073 8.47553 11.9326 8.98514C12.4578 9.49471 12.7532 10.1903 12.752 10.9158V19.0428C12.7543 19.8546 12.3845 20.6247 11.7461 21.1394C11.1078 21.654 10.268 21.8593 9.45898 21.698C8.17035 21.4436 7.29113 20.2504 7.29102 18.2849V11.0408C7.25586 9.54271 8.43642 8.28786 9.95801 8.20585Z" fill="#9E9E9E"/>
</svg>
