<svg width="100%" height="100%" overflow="visible" style="display: block;" viewBox="0 0 19 22" fill="none" xmlns="http://www.w3.org/2000/svg">
<path id="Vector" d="M0.0020656 0.728287L1.41256 18.995C1.43373 19.2693 1.61715 19.5032 1.87625 19.5863L9.29829 21.9684C9.42954 22.0105 9.57045 22.0105 9.70171 21.9684L17.1237 19.5863C17.3828 19.5032 17.5663 19.2693 17.5874 18.995L18.9979 0.728287C19.0283 0.335564 18.7217 0 18.3326 0H0.66749C0.278387 0 -0.0282197 0.335564 0.0020656 0.728287ZM15.3808 6.39583H6.18837L6.46579 8.98552H15.1809L14.6108 16.3684L9.50002 18.0086L4.38927 16.3684L4.09143 12.5113H6.77395V14.4032L9.5717 15.1633L12.3527 14.4032L12.5685 11.388H4.00467L3.43611 4.02448H15.5639L15.3808 6.39583Z" fill="#9E9E9E"/>
</svg>
