<svg width="100%" height="100%" overflow="visible" style="display: block;" viewBox="0 0 20 19.166" fill="none" xmlns="http://www.w3.org/2000/svg">
<path id="Subtract" d="M16.458 0C18.4163 0 20 1.55663 20 3.48145V15.6855C19.9998 17.6102 18.4162 19.166 16.458 19.166H3.54199C1.58377 19.166 0.000180905 17.6102 0 15.6855V3.48145C0 1.55663 1.58366 0 3.54199 0H16.458ZM13.3428 6.99512C13.2679 6.99512 13.2345 7.02783 13.2344 7.10938V13.417C13.2345 13.4987 13.2761 13.5479 13.3594 13.5479H14.9922C15.0671 13.5479 15.1005 13.5069 15.1006 13.417V7.10938C15.1004 7.03597 15.067 6.99512 14.9922 6.99512H13.3428ZM7.00098 4.87402C6.95931 4.88221 6.92624 4.92291 6.93457 4.96387C6.93457 5.14402 6.91711 5.32412 6.88379 5.49609C6.85046 5.59438 6.82578 5.68469 6.80078 5.7666L4.11719 13.3594C4.09224 13.4575 4.11751 13.5068 4.20898 13.5068H5.77539C5.85028 13.515 5.91778 13.4661 5.93457 13.3926L6.56738 11.4678H9.66797L10.3506 13.417C10.3673 13.4742 10.4261 13.515 10.4844 13.5068H12.2256C12.3088 13.5068 12.3344 13.4659 12.3096 13.376L9.26758 4.93945C9.25924 4.8985 9.22585 4.87402 9.15918 4.87402H7.00098ZM8.10059 6.38867C8.15892 6.58525 8.21751 6.79898 8.28418 7.02832C8.35081 7.26568 8.42552 7.50312 8.50879 7.75684C8.59212 8.01075 8.66764 8.25683 8.75098 8.51074C8.82594 8.75632 8.90063 8.99381 8.97559 9.21484C9.05059 9.4278 9.11797 9.63268 9.16797 9.80469H7.05078C7.17577 9.46072 7.30131 9.07587 7.41797 8.6582C7.5513 8.24867 7.67578 7.83847 7.80078 7.44531C7.9174 7.09322 8.00901 6.74077 8.08398 6.38867H8.10059ZM14.1846 4.25098C13.9096 4.25098 13.6424 4.3497 13.4424 4.53809C13.2425 4.72639 13.1343 4.9883 13.1426 5.2666C13.1342 5.54507 13.2341 5.81574 13.4258 6.02051C13.6258 6.20889 13.893 6.31581 14.168 6.30762C14.4511 6.32385 14.7342 6.21695 14.9258 6.02051C15.1258 5.81574 15.2261 5.54509 15.2178 5.2666C15.226 4.99643 15.1256 4.73458 14.9424 4.53809C14.7591 4.34978 14.5094 4.25106 14.1846 4.25098Z" fill="#9E9E9E"/>
</svg>
