<svg width="100%" height="100%" overflow="visible" style="display: block;" viewBox="0 0 22 22" fill="none" xmlns="http://www.w3.org/2000/svg">
<path id="Subtract" d="M16.8438 0C19.6915 0 22 2.30853 22 5.15625V16.8438C22 19.6915 19.6915 22 16.8438 22H5.15625C2.30853 22 0 19.6915 0 16.8438V5.15625C0 2.30853 2.30853 0 5.15625 0H16.8438ZM9.90527 17.1299C9.90527 18.1634 9.47698 18.4296 8.79785 18.4297C8.08918 18.4297 7.79352 17.942 7.46875 17.3662L5.78516 18.3848C6.27244 19.4184 7.23212 20.2753 8.88574 20.2754C10.7171 20.2754 11.9727 19.3005 11.9727 17.1592V10.1006H9.90527V17.1299ZM16.7432 9.98145C14.8972 9.98145 13.7149 11.1633 13.7148 12.7139C13.7148 14.3974 14.7047 15.1952 16.1963 15.8301L16.7129 16.0518C17.658 16.4651 18.2197 16.716 18.2197 17.4248C18.2197 18.0155 17.6731 18.4434 16.8164 18.4434C15.7976 18.4433 15.2215 17.9121 14.7783 17.1885L13.0947 18.1631C13.7002 19.3593 14.9416 20.2754 16.8613 20.2754C18.8251 20.2752 20.287 19.2561 20.2871 17.3955C20.2871 15.6677 19.2974 14.8997 17.54 14.1465L17.0234 13.9248C16.1376 13.5408 15.7531 13.2899 15.7529 12.6699C15.7529 12.1679 16.1376 11.7832 16.7432 11.7832C17.3337 11.7833 17.7178 12.0351 18.0723 12.6699L19.6816 11.6357C19.0025 10.4397 18.0573 9.98153 16.7432 9.98145Z" fill="#9E9E9E"/>
</svg>
