<svg width="100%" height="100%" overflow="visible" style="display: block;" viewBox="0 0 22 22" fill="none" xmlns="http://www.w3.org/2000/svg">
<path id="Vector" d="M11 0C8.08262 0 5.28473 1.15893 3.22183 3.22183C1.15893 5.28473 0 8.08262 0 11C0 13.9174 1.15893 16.7153 3.22183 18.7782C5.28473 20.8411 8.08262 22 11 22C13.1737 21.9957 15.2974 21.3475 17.1029 20.1372L8.08053 8.48031V15.3962H6.6V6.6H8.45075L18.2691 19.2473C19.4405 18.2159 20.3789 16.9471 21.0222 15.5252C21.6655 14.1032 21.9988 12.5607 22 11C22 8.08262 20.8411 5.28473 18.7782 3.22183C16.7153 1.15893 13.9174 0 11 0ZM14.0554 6.6H15.5222V14.9834L14.0554 13.0573V6.6ZM18.2114 19.305L18.1923 19.3215C18.1986 19.316 18.205 19.3105 18.2114 19.305Z" fill="#9E9E9E"/>
</svg>
