<svg width="100%" height="100%" overflow="visible" style="display: block;" viewBox="0 0 20 19.5" fill="none" xmlns="http://www.w3.org/2000/svg">
<path id="Subtract" d="M16.458 0C18.4163 0 20 1.58366 20 3.54199V15.958C20 17.9163 18.4163 19.5 16.458 19.5H3.54199C1.58366 19.5 0 17.9163 0 15.958V3.54199C0 1.58366 1.58366 0 3.54199 0H16.458ZM14.3418 7.02539C13.7504 7.0254 13.2588 7.11656 12.8672 7.31641C12.509 7.48299 12.2005 7.7499 11.9922 8.08301C11.8089 8.39134 11.709 8.73347 11.709 9.0918C11.7007 9.38337 11.7671 9.67481 11.9004 9.94141C12.0587 10.2247 12.2749 10.4671 12.5332 10.6504C12.8998 10.9004 13.2918 11.1 13.7168 11.25C14.1248 11.4082 14.3998 11.5333 14.5332 11.6416C14.6665 11.7499 14.7334 11.8589 14.7334 11.9756C14.7332 12.1253 14.6419 12.2669 14.5088 12.3252C14.3588 12.4002 14.1331 12.4414 13.8164 12.4414C13.4833 12.4414 13.1504 12.3996 12.834 12.3164C12.4673 12.2331 12.1248 12.0999 11.7998 11.9082C11.775 11.8917 11.7504 11.884 11.7256 11.9004C11.7006 11.9171 11.6914 11.9506 11.6914 11.9756V13.4248C11.6831 13.4913 11.7251 13.5496 11.7832 13.583C12.0499 13.708 12.3421 13.8006 12.6338 13.8506C13.0086 13.9255 13.3835 13.958 13.7666 13.958C14.3666 13.958 14.8671 13.8664 15.2754 13.6914C15.6503 13.5414 15.9757 13.2834 16.209 12.9502C16.4256 12.6252 16.5415 12.2334 16.5332 11.8418C16.5415 11.5418 16.4751 11.2501 16.3418 10.9834C16.1835 10.7001 15.9585 10.467 15.6836 10.292C15.2837 10.042 14.8503 9.83359 14.4004 9.68359C14.2004 9.60026 14.0003 9.5082 13.8086 9.4082C13.7003 9.34991 13.6004 9.27517 13.5254 9.18359C13.4754 9.11693 13.4414 9.0418 13.4414 8.9668C13.4414 8.89186 13.4672 8.80883 13.5088 8.74219C13.5671 8.65892 13.6584 8.60023 13.7666 8.5752C13.9249 8.53355 14.1 8.50831 14.2666 8.5166C14.5833 8.5166 14.8919 8.55834 15.2002 8.625C15.4834 8.68331 15.7501 8.77494 16 8.9082C16.0333 8.92487 16.0754 8.92487 16.1504 8.9082C16.1752 8.89149 16.1914 8.85839 16.1914 8.8252V7.4668C16.1914 7.43356 16.1831 7.40043 16.1748 7.36719C16.1581 7.33385 16.1251 7.30033 16.0918 7.29199C15.8668 7.20033 15.625 7.13392 15.375 7.10059C15.0334 7.0506 14.6834 7.02539 14.3418 7.02539ZM6.4082 4.9668C6.15002 4.97512 5.90848 4.97507 5.68359 4.9834C5.45859 4.99173 5.2498 4.99167 5.0498 5C4.85855 5.00831 4.72539 5.00879 4.58398 5.00879C4.52565 5.00879 4.5 5.04225 4.5 5.10059V13.6748C4.5 13.7498 4.53392 13.7832 4.60059 13.7832H6.2168C6.27507 13.7749 6.31682 13.7253 6.30859 13.667V10.9922C6.46692 10.9922 6.58366 10.9917 6.66699 11C6.75033 11.0083 6.88404 11.0088 7.08398 11.0088C7.76716 11.0088 8.39243 10.9339 8.95898 10.7256C9.50056 10.5256 9.96652 10.1746 10.2998 9.70801C10.6331 9.24138 10.7998 8.65015 10.7998 7.93359C10.7998 7.55871 10.7333 7.20048 10.6084 6.85059C10.4751 6.49225 10.2667 6.16706 10 5.90039C9.68338 5.59211 9.30038 5.35847 8.88379 5.2168C8.41714 5.0418 7.85029 4.95899 7.16699 4.95898C6.91699 4.95898 6.66654 4.95846 6.4082 4.9668ZM7.22559 6.60059C7.56713 6.59229 7.90075 6.64164 8.20898 6.7666C8.45052 6.85829 8.65038 7.02561 8.79199 7.24219C8.92519 7.46709 8.99171 7.72521 8.9834 7.9834C8.9834 8.34995 8.90048 8.63348 8.72559 8.8418C8.54229 9.05009 8.30859 9.20819 8.04199 9.2832C7.73379 9.38316 7.40885 9.43355 7.08398 9.43359H6.6416C6.54183 9.43358 6.43375 9.42531 6.31738 9.41699V6.61719C6.37581 6.60888 6.49213 6.60012 6.6582 6.6084C6.81654 6.60007 7.00892 6.60059 7.22559 6.60059Z" fill="#9E9E9E"/>
</svg>
