<svg width="100%" height="100%" overflow="visible" style="display: block;" viewBox="0 0 22.082 19.3845" fill="none" xmlns="http://www.w3.org/2000/svg">
<path id="Union" d="M14.3887 0.176566C15.1526 -0.0664858 15.9188 -0.083397 16.5645 0.283011C17.21 0.649694 17.5782 1.31063 17.7461 2.08282C17.9139 2.85471 17.8967 3.79176 17.7295 4.81817C17.6659 5.20836 17.5792 5.61538 17.4717 6.03594C17.8952 6.15455 18.2961 6.28483 18.6709 6.42559C19.6573 6.79603 20.4906 7.24959 21.0859 7.77813C21.6805 8.30616 22.082 8.95188 22.082 9.69219C22.0819 10.4327 21.6808 11.0791 21.0859 11.6072C20.4905 12.1358 19.6574 12.5893 18.6709 12.9598C18.2964 13.1004 17.8958 13.23 17.4727 13.3484C17.58 13.7686 17.666 14.1754 17.7295 14.5652C17.8967 15.5918 17.914 16.5296 17.7461 17.3016C17.5781 18.0737 17.2109 18.7347 16.5654 19.1014C15.9198 19.468 15.1537 19.4509 14.3896 19.2078C13.6258 18.9648 12.8088 18.4799 11.9883 17.824C11.6753 17.5739 11.3588 17.2961 11.041 16.993C10.7232 17.2962 10.4068 17.5748 10.0938 17.825C9.27327 18.4808 8.45618 18.9648 7.69238 19.2078C6.92851 19.4508 6.16317 19.4677 5.51758 19.1014C4.87185 18.7347 4.50391 18.0739 4.33594 17.3016C4.16802 16.5295 4.18624 15.592 4.35352 14.5652C4.41708 14.1751 4.50195 13.768 4.60938 13.3475C4.18668 13.2291 3.78632 13.1003 3.41211 12.9598C2.42556 12.5893 1.59154 12.1358 0.996094 11.6072C0.401277 11.0791 8.57154e-05 10.4327 0 9.69219C6.53289e-05 8.95187 0.401486 8.30617 0.996094 7.77813C1.59154 7.2495 2.42551 6.79606 3.41211 6.42559C3.78672 6.28493 4.18715 6.15448 4.61035 6.03594C4.5029 5.61534 4.41709 5.20836 4.35352 4.81817C4.18635 3.79175 4.16814 2.85471 4.33594 2.08282C4.50389 1.31058 4.872 0.649681 5.51758 0.283011C6.16315 -0.0833815 6.92852 -0.0664121 7.69238 0.176566C8.45615 0.419572 9.2733 0.902656 10.0938 1.5584C10.4067 1.80852 10.7233 2.08637 11.041 2.38946C11.3588 2.08634 11.6763 1.80855 11.9893 1.5584C12.8093 0.903067 13.6253 0.419573 14.3887 0.176566ZM5.58301 13.5897C5.4833 13.9805 5.40513 14.357 5.34668 14.7156C5.19097 15.6714 5.18771 16.4757 5.32031 17.0857C5.45292 17.6954 5.70675 18.0592 6.02344 18.2391C6.3402 18.4188 6.78754 18.4534 7.39062 18.2615C7.99405 18.0694 8.70012 17.664 9.46387 17.0535C9.75177 16.8234 10.0451 16.5668 10.3408 16.285C9.71774 15.6206 9.09737 14.8653 8.49902 14.035C7.46333 13.9406 6.48338 13.7891 5.58301 13.5897ZM16.498 13.5906C15.5977 13.79 14.6176 13.9407 13.582 14.035C12.9837 14.8654 12.3632 15.6205 11.7402 16.285C12.0361 16.567 12.3301 16.8242 12.6182 17.0545C13.382 17.6649 14.089 18.0695 14.6924 18.2615C15.2952 18.4532 15.7419 18.4187 16.0586 18.2391C16.3752 18.0591 16.6301 17.6953 16.7627 17.0857C16.8952 16.4758 16.891 15.6713 16.7354 14.7156C16.6769 14.3572 16.5977 13.9812 16.498 13.5906ZM9.81055 14.1229C10.2168 14.6475 10.6292 15.1323 11.04 15.573C11.451 15.1323 11.8632 14.6475 12.2695 14.1229C11.8659 14.1401 11.456 14.1502 11.041 14.1502C10.6253 14.1502 10.2148 14.1402 9.81055 14.1229ZM11.041 6.23418C10.357 6.23418 9.68959 6.2592 9.04492 6.30645C8.68353 6.82864 8.32998 7.38107 7.99023 7.95977C7.64916 8.54077 7.33858 9.12012 7.05859 9.69121C7.33869 10.2626 7.64901 10.8424 7.99023 11.4236C8.3299 12.0022 8.68262 12.5549 9.04395 13.077C9.68892 13.1242 10.3566 13.1502 11.041 13.1502C11.7248 13.1502 12.3918 13.1242 13.0361 13.077C13.3977 12.5546 13.7519 12.0026 14.0918 11.4236C14.4329 10.8425 14.7424 10.2624 15.0225 9.69121C14.7425 9.12026 14.4328 8.54063 14.0918 7.95977C13.752 7.3809 13.3976 6.82877 13.0361 6.30645C12.3918 6.25925 11.7247 6.23418 11.041 6.23418ZM15.5547 10.8523C15.3672 11.2065 15.1695 11.5625 14.9609 11.9178C14.7538 12.2706 14.5408 12.6144 14.3242 12.949C14.9902 12.8654 15.6242 12.7573 16.2188 12.6277C16.0356 12.0564 15.8142 11.4618 15.5547 10.8523ZM6.52637 10.8523C6.26684 11.4618 6.04546 12.0564 5.8623 12.6277C6.45708 12.7573 7.09144 12.8654 7.75781 12.949C7.54109 12.6144 7.32734 12.2708 7.12012 11.9178C6.9115 11.5624 6.71383 11.2066 6.52637 10.8523ZM4.88672 6.9959C4.48749 7.10747 4.11189 7.23001 3.7627 7.36114C2.84198 7.7069 2.13146 8.10681 1.66016 8.5252C1.18841 8.94404 1.00006 9.33982 1 9.69219C1.00008 10.0445 1.18843 10.4404 1.66016 10.8592C2.13145 11.2775 2.84204 11.6775 3.7627 12.0232C4.11156 12.1542 4.48694 12.276 4.88574 12.3875C5.15972 11.5238 5.51552 10.6168 5.94824 9.69121C5.51573 8.76596 5.16062 7.85927 4.88672 6.9959ZM17.1953 6.9959C16.9212 7.85934 16.5656 8.76587 16.1328 9.69121C16.5657 10.6168 16.9212 11.5238 17.1953 12.3875C17.5945 12.276 17.9702 12.1543 18.3193 12.0232C19.24 11.6775 19.9506 11.2776 20.4219 10.8592C20.8936 10.4403 21.0819 10.0446 21.082 9.69219C21.082 9.33983 20.8936 8.94403 20.4219 8.5252C19.9506 8.10682 19.24 7.70689 18.3193 7.36114C17.9702 7.23002 17.5945 7.10747 17.1953 6.9959ZM11.041 7.76055C12.1257 7.7608 13.0047 8.62546 13.0049 9.69219C13.0049 10.759 12.1257 11.6246 11.041 11.6248C9.95607 11.6248 9.07617 10.7592 9.07617 9.69219C9.07631 8.62531 9.95616 7.76055 11.041 7.76055ZM7.75684 6.43438C7.09083 6.51798 6.45678 6.62613 5.8623 6.75567C6.04539 7.32674 6.26697 7.92094 6.52637 8.53008C6.71371 8.17605 6.91165 7.82074 7.12012 7.46563C7.32722 7.11286 7.54024 6.76887 7.75684 6.43438ZM14.3242 6.43438C14.5408 6.76896 14.7538 7.11277 14.9609 7.46563C15.1693 7.82054 15.3664 8.17626 15.5537 8.53008C15.8132 7.9208 16.0356 7.32687 16.2188 6.75567C15.6243 6.62616 14.9902 6.51795 14.3242 6.43438ZM7.39062 1.12188C6.78768 0.930048 6.34116 0.965732 6.02441 1.14532C5.70773 1.32513 5.45298 1.68816 5.32031 2.29766C5.18772 2.90761 5.19003 3.71207 5.3457 4.66778C5.40414 5.02646 5.48329 5.40287 5.58301 5.79375C6.48305 5.59423 7.46278 5.44294 8.49805 5.34844C9.09649 4.51796 9.71764 3.76291 10.3408 3.09844C10.0451 2.81653 9.75184 2.55909 9.46387 2.32891C8.70016 1.71855 7.994 1.31388 7.39062 1.12188ZM16.0586 1.14532C15.742 0.965584 15.2952 0.930228 14.6924 1.12188C14.089 1.31386 13.3819 1.7185 12.6182 2.32891C12.3304 2.55895 12.0368 2.81575 11.7412 3.09746C12.3643 3.76204 12.9846 4.51781 13.583 5.34844C14.6183 5.44287 15.598 5.59432 16.498 5.79375C16.5978 5.40285 16.6769 5.02648 16.7354 4.66778C16.891 3.71196 16.8953 2.90763 16.7627 2.29766C16.6301 1.68807 16.3752 1.32525 16.0586 1.14532ZM11.04 3.8084C10.6288 4.24946 10.2172 4.73549 9.81055 5.26055C10.2147 5.24321 10.6253 5.23418 11.041 5.23418C11.4564 5.23418 11.8666 5.24324 12.2705 5.26055C11.8637 4.73529 11.4514 4.24958 11.04 3.8084Z" fill="#9E9E9E"/>
</svg>
