<svg width="100%" height="100%" overflow="visible" style="display: block;" viewBox="0 0 22 22" fill="none" xmlns="http://www.w3.org/2000/svg">
<path id="Subtract" d="M16.8438 0C19.6915 0 22 2.30853 22 5.15625V16.8438C22 19.6915 19.6915 22 16.8438 22H5.15625C2.30853 22 0 19.6915 0 16.8438V5.15625C0 2.30853 2.30853 0 5.15625 0H16.8438ZM17.752 10.1494C17.3713 10.0551 16.4697 10.0273 16.082 10.1006C14.8879 10.3277 14.0601 11.0931 13.8262 12.1895C13.7599 12.5038 13.7815 13.282 13.8652 13.5928C13.9665 13.9664 14.2103 14.4141 14.4688 14.6934C14.9157 15.1753 15.4051 15.4789 16.54 15.9678C17.5316 16.3972 17.8806 16.6033 18.0518 16.8477C18.1844 17.0397 18.2158 17.1514 18.2158 17.4062C18.2158 17.6891 18.1322 17.8813 17.9297 18.0664C17.4548 18.4924 16.4909 18.545 15.7891 18.1748C15.5446 18.0456 15.1392 17.6578 14.9541 17.375L14.8223 17.1797L14.1895 17.5459C13.8403 17.7484 13.4699 17.9617 13.3721 18.0176C13.2712 18.0768 13.1806 18.1324 13.1699 18.1465C13.1454 18.1884 13.5406 18.7716 13.7432 18.9951C14.26 19.5678 15.098 20.0049 15.9814 20.1621C16.3866 20.2354 17.2802 20.245 17.6572 20.1787C18.876 19.9726 19.7426 19.3514 20.0918 18.4365C20.4095 17.595 20.3038 16.4637 19.8359 15.7549C19.4169 15.1195 18.7434 14.6725 17.1689 13.9951C16.3134 13.625 16.0402 13.4425 15.8936 13.1387C15.8239 12.9993 15.7998 12.8982 15.7998 12.7275C15.7963 12.1444 16.2256 11.7944 16.8926 11.8398C17.3466 11.8712 17.643 12.0499 17.9258 12.4619C18.02 12.6015 18.104 12.6917 18.125 12.6777C18.7023 12.3196 19.6543 11.6813 19.6553 11.6484C19.6308 11.5542 19.3305 11.159 19.1279 10.9424C18.7369 10.5374 18.3106 10.2892 17.752 10.1494ZM4.87598 10.1758L4.86523 11.0732L4.8584 11.9746H7.72168V20.1104H9.74707V11.9746H12.6104V11.0908C12.6104 10.6019 12.5999 10.1931 12.5859 10.1826C12.5594 10.1688 10.8234 10.1615 8.7207 10.165L4.87598 10.1758Z" fill="#9E9E9E"/>
</svg>
