<svg width="100%" height="100%" overflow="visible" style="display: block;" viewBox="0 0 20 21" fill="none" xmlns="http://www.w3.org/2000/svg">
<path id="Vector" d="M19.3959 2.3902L13.9484 3.42718L14.895 0L7.33555 1.54703L7.2178 3.62408L0.594777 2.38768C0.138597 2.35997 -0.127181 2.70206 0.0611983 3.17707L9.64568 20.7311C9.85196 21.0827 10.3269 21.0965 10.5352 20.7311L19.9333 3.17538C20.1454 2.77851 19.8204 2.3133 19.3959 2.3902ZM10.0885 20.2498L0.701736 3.05794L7.18132 4.26756L6.87586 9.65558L9.53186 9.0154L8.79127 12.803L10.8088 12.1628L9.8076 17.224C9.75769 17.5549 10.1705 17.731 10.3747 17.2573L16.2741 4.96113L13.3627 5.54799L13.7587 4.11398L19.2925 3.06056L10.0885 20.2498Z" fill="#9E9E9E"/>
</svg>
