<svg width="100%" height="100%" overflow="visible" style="display: block;" viewBox="0 0 22.04 21.948" fill="none" xmlns="http://www.w3.org/2000/svg">
<path id="Vector" d="M21.2836 2.34367L16.7449 0.143108C16.1948 -0.131962 15.5759 0.0055727 15.1632 0.418178L6.49853 8.39521L2.71632 5.50698C2.37248 5.23191 1.89111 5.23191 1.54727 5.57575L0.309454 6.67603C-0.103151 7.01986 -0.103151 7.63877 0.309454 8.05138L3.6103 11.0084L0.309454 13.9654C-0.103151 14.3092 -0.103151 14.9281 0.309454 15.3407L1.54727 16.441C1.89111 16.7161 2.37248 16.7849 2.71632 16.5098L6.49853 13.6215L15.1632 21.5298C15.5759 21.9424 16.1948 22.08 16.7449 21.8049L21.2836 19.6043C21.7649 19.398 22.04 18.9167 22.04 18.3665V3.58149C22.04 3.10011 21.7649 2.61874 21.2836 2.34367ZM16.5386 16.0284L9.93691 11.0084L16.5386 5.98835V16.0284Z" fill="#9E9E9E"/>
</svg>
