<svg width="100%" height="100%" overflow="visible" style="display: block;" viewBox="0 0 20 22" fill="none" xmlns="http://www.w3.org/2000/svg">
<path id="Vector" d="M19.385 16.9564L10.3946 22V18.0717L15.9961 15.0157L19.385 16.9564ZM20 16.404V5.85605L16.71 7.73923V14.5188L20 16.404ZM0.614981 16.9564L9.60541 22V18.0717L4.00386 15.0157L0.614981 16.9564ZM0 16.404V5.85605L3.28987 7.73923V14.5188L0 16.404ZM0.384927 5.1736L9.60541 0V3.79807L3.69835 7.02039L3.65335 7.04605L0.384927 5.1736ZM19.6152 5.1736L10.3946 0V3.79807L16.3016 7.02048L16.3466 7.04615L19.6152 5.1736ZM9.6055 17.1781L4.07905 14.1648V8.19352L9.60532 11.3583L9.6055 17.1781ZM10.3946 17.1781L15.9208 14.1648V8.19352L10.3946 11.3583V17.1781ZM4.4533 7.50246L10.001 4.47612L15.5489 7.50246L10.0011 10.68L4.4533 7.50246Z" fill="#9E9E9E"/>
</svg>
