<svg width="24" height="24" viewBox="0 0 24 24" fill="none" xmlns="http://www.w3.org/2000/svg">
<g id="icons/Abstract/ad-product">
<path id="Union" d="M11.6602 1.05957C11.9161 0.967049 12.2008 0.982244 12.4473 1.10547L22.4473 6.10547C22.4526 6.10814 22.4576 6.1115 22.4629 6.11426C22.4921 6.12951 22.5201 6.1469 22.5479 6.16504C22.5558 6.17025 22.5645 6.17427 22.5723 6.17969C22.6075 6.20421 22.6408 6.23158 22.6729 6.26074C22.6756 6.26322 22.678 6.26605 22.6807 6.26855C22.7079 6.29386 22.7333 6.32104 22.7578 6.34961C22.7641 6.35696 22.7713 6.36357 22.7773 6.37109C22.8022 6.40189 22.8253 6.43451 22.8467 6.46875C22.8505 6.47481 22.8538 6.48117 22.8574 6.4873C22.8702 6.50868 22.8832 6.53011 22.8945 6.55273C22.8992 6.56202 22.9029 6.5717 22.9072 6.58105C22.9115 6.59033 22.9149 6.59996 22.9189 6.60938C22.9527 6.68863 22.976 6.76965 22.9883 6.85156C22.9895 6.85966 22.9902 6.86783 22.9912 6.87598C22.9958 6.91282 22.9985 6.94955 22.999 6.98633C22.9991 6.99088 23 6.99543 23 7V17C23 17.3788 22.786 17.7251 22.4473 17.8945L12.4473 22.8945C12.4417 22.8973 12.4353 22.8987 12.4297 22.9014C12.4029 22.9142 12.3757 22.9261 12.3477 22.9365C12.3421 22.9386 12.3366 22.9404 12.3311 22.9424C12.3048 22.9516 12.2782 22.9598 12.251 22.9668C12.239 22.9699 12.227 22.9729 12.2148 22.9756C12.1456 22.9908 12.0738 23 12 23C11.9258 23 11.8538 22.9909 11.7842 22.9756C11.7721 22.9729 11.7601 22.9699 11.748 22.9668C11.7209 22.9597 11.6942 22.9516 11.668 22.9424C11.6624 22.9404 11.6569 22.9386 11.6514 22.9365C11.6233 22.9261 11.5961 22.9142 11.5693 22.9014C11.564 22.8988 11.5581 22.8972 11.5527 22.8945L1.55273 17.8945C1.21395 17.7251 1 17.3788 1 17V6.98633C1.00047 6.94959 1.00321 6.91279 1.00781 6.87598L1.00977 6.85938C1.01013 6.85678 1.01035 6.85416 1.01074 6.85156C1.02176 6.7782 1.04115 6.70518 1.06934 6.63379C1.07457 6.62049 1.08112 6.60777 1.08691 6.59473C1.0931 6.58081 1.09859 6.56649 1.10547 6.55273C1.10808 6.54752 1.11059 6.54226 1.11328 6.53711C1.1222 6.52002 1.13269 6.50384 1.14258 6.4873C1.15184 6.47177 1.16091 6.45627 1.1709 6.44141C1.1764 6.43324 1.18176 6.42499 1.1875 6.41699L1.21387 6.38184C1.22633 6.36595 1.23964 6.35091 1.25293 6.33594C1.25738 6.33093 1.26107 6.32523 1.26562 6.32031C1.31693 6.26484 1.37434 6.21658 1.43555 6.1748C1.44738 6.16672 1.45945 6.15897 1.47168 6.15137C1.49179 6.13888 1.51232 6.12722 1.5332 6.11621C1.53976 6.11275 1.54608 6.1088 1.55273 6.10547L11.5527 1.10547L11.6602 1.05957ZM3 16.3818L11 20.3818V12.6182L3 8.61816V16.3818ZM13 12.6182V20.3818L21 16.3818V8.61816L13 12.6182ZM9.23633 9.5L12 10.8818L19.7637 7L17 5.61816L9.23633 9.5ZM4.23633 7L7 8.38184L14.7637 4.5L12 3.11816L4.23633 7Z" fill="#9E9E9E"/>
</g>
</svg>
