<svg width="24" height="24" viewBox="0 0 24 24" fill="none" xmlns="http://www.w3.org/2000/svg">
<g id="icons/Abstract/api-app">
<path id="Union" d="M15 11.002C15.5523 11.002 16 11.4497 16 12.002V19C16 21.2091 14.2091 23 12 23C9.79086 23 8 21.2091 8 19V17.9854C8 17.4331 8.44772 16.9854 9 16.9854C9.55229 16.9854 10 17.4331 10 17.9854V19C10 20.1046 10.8954 21 12 21C13.1046 21 14 20.1046 14 19V12.002C14 11.4497 14.4477 11.002 15 11.002ZM5.99414 8C6.54643 8 6.99414 8.44772 6.99414 9C6.99414 9.55229 6.54643 10 5.99414 10H4.99219C3.89449 10 3 10.8929 3 12C3 13.1071 3.89449 14 4.99219 14H12C12.5523 14 13 14.4477 13 15C13 15.5523 12.5523 16 12 16H4.99219C2.78493 16 1 14.2066 1 12C1 9.79336 2.78493 8 4.99219 8H5.99414ZM18.9941 8C21.2046 8 23 9.78911 23 12C23 14.2109 21.2046 16 18.9941 16H18.0332C17.4809 16 17.0332 15.5523 17.0332 15C17.0332 14.4477 17.4809 14 18.0332 14H18.9941C20.1036 14 21 13.1028 21 12C21 10.8972 20.1036 10 18.9941 10H12C11.4477 10 11 9.55229 11 9C11 8.44772 11.4477 8 12 8H18.9941ZM12 1C14.2091 1 16 2.79086 16 5V6.00293C16 6.55518 15.5523 7.00293 15 7.00293C14.4477 7.00293 14 6.55518 14 6.00293V5C14 3.89543 13.1046 3 12 3C10.8954 3 10 3.89543 10 5V11.9688C9.99992 12.521 9.55223 12.9688 9 12.9688C8.44777 12.9688 8.00008 12.521 8 11.9688V5C8 2.79086 9.79087 1 12 1Z" fill="#9E9E9E"/>
</g>
</svg>
