<svg width="24" height="24" viewBox="0 0 24 24" fill="none" xmlns="http://www.w3.org/2000/svg">
<g id="icons/Abstract/application-one">
<path id="Union" d="M11.6133 1.07812C11.9015 0.957171 12.2329 0.976704 12.5068 1.1377L21.0068 6.1377C21.3123 6.31737 21.5 6.64565 21.5 7V17C21.4999 17.3543 21.3122 17.6827 21.0068 17.8623L12.5068 22.8623C12.1941 23.0461 11.8059 23.0461 11.4932 22.8623L2.99316 17.8623C2.68779 17.6827 2.50007 17.3543 2.5 17V7C2.5 6.64565 2.68774 6.31737 2.99316 6.1377L11.4932 1.1377L11.6133 1.07812ZM4.5 7.57031V16.4277L12 20.8389L19.5 16.4277V7.57031L12 3.16016L4.5 7.57031ZM15.4678 8.65137C15.9361 8.3587 16.553 8.5005 16.8457 8.96875C17.1384 9.43704 16.9956 10.0539 16.5273 10.3467L13 12.5518V16.5C12.9999 17.0522 12.5523 17.5 12 17.5C11.4477 17.5 11.0001 17.0522 11 16.5V12.5557L7.46973 10.3467C7.00165 10.0537 6.85955 9.43688 7.15234 8.96875C7.44531 8.50065 8.06214 8.35851 8.53027 8.65137L11.9971 10.8203L15.4678 8.65137Z" fill="#9E9E9E"/>
</g>
</svg>
