<svg width="24" height="24" viewBox="0 0 24 24" fill="none" xmlns="http://www.w3.org/2000/svg">
<g id="icons/Abstract/association">
<path id="Union" d="M12.6494 1.97461C12.9396 1.50474 13.5555 1.3592 14.0254 1.64941C14.4952 1.93965 14.6408 2.55552 14.3506 3.02539L13.1748 4.92773L20.0137 16H22C22.5523 16 23 16.4477 23 17C23 17.5523 22.5523 18 22 18H21.249L21.8506 18.9746C22.1408 19.4445 21.9952 20.0604 21.5254 20.3506C21.0555 20.6408 20.4396 20.4952 20.1494 20.0254L18.8984 18H5.10156L3.85059 20.0254C3.56035 20.4952 2.94447 20.6408 2.47461 20.3506C2.00475 20.0604 1.85923 19.4445 2.14941 18.9746L2.75098 18H2C1.44773 18 1.00003 17.5523 1 17C1 16.4477 1.44772 16 2 16H3.98633L10.8242 4.92773L9.64941 3.02539C9.3592 2.55552 9.50476 1.93965 9.97461 1.64941C10.4445 1.3592 11.0604 1.50474 11.3506 1.97461L12 3.02539L12.6494 1.97461ZM6.33691 16H17.6631L11.999 6.83105L6.33691 16Z" fill="#9E9E9E"/>
</g>
</svg>
