<svg width="24" height="24" viewBox="0 0 24 24" fill="none" xmlns="http://www.w3.org/2000/svg">
<g id="icons/Abstract/asterisk">
<path id="Union" d="M12 1C18.0751 1 23 5.92487 23 12C23 18.0751 18.0751 23 12 23C5.92487 23 1 18.0751 1 12C1 5.92487 5.92487 1 12 1ZM12 3C7.02943 3 3 7.02943 3 12C3 16.9706 7.02943 21 12 21C16.9706 21 21 16.9706 21 12C21 7.02943 16.9706 3 12 3ZM13.3838 7.60254C13.6599 7.12427 14.2717 6.96025 14.75 7.23633C15.2283 7.51246 15.3923 8.12426 15.1162 8.60254L13.7324 11H16.5C17.0523 11 17.5 11.4477 17.5 12C17.5 12.5523 17.0523 13 16.5 13H13.7324L15.1162 15.3965C15.3923 15.8748 15.2283 16.4865 14.75 16.7627C14.2717 17.0388 13.6599 16.8748 13.3838 16.3965L12 13.999L10.6162 16.3965C10.3401 16.8748 9.72829 17.0388 9.25 16.7627C8.77173 16.4865 8.60765 15.8748 8.88379 15.3965L10.2676 13H7.5C6.94772 13 6.5 12.5523 6.5 12C6.5 11.4477 6.94772 11 7.5 11H10.2676L8.88379 8.60254C8.60771 8.12426 8.77174 7.51246 9.25 7.23633C9.72828 6.96025 10.3401 7.12427 10.6162 7.60254L12 9.99902L13.3838 7.60254Z" fill="#9E9E9E"/>
</g>
</svg>
