<svg width="24" height="24" viewBox="0 0 24 24" fill="none" xmlns="http://www.w3.org/2000/svg">
<g id="icons/Abstract/benz">
<path id="Union" d="M11.999 1C12.1771 1 12.3542 1.00528 12.5303 1.01367C12.5635 1.01525 12.5967 1.01668 12.6299 1.01855C12.7627 1.02608 12.8948 1.03662 13.0264 1.04883C13.0834 1.05411 13.1404 1.05928 13.1973 1.06543C13.3502 1.08203 13.5023 1.10121 13.6533 1.12402C13.6611 1.1252 13.669 1.12576 13.6768 1.12695C13.8421 1.15228 14.0061 1.18223 14.1689 1.21484C14.2186 1.22477 14.268 1.2355 14.3174 1.24609C14.4255 1.2693 14.5327 1.29493 14.6396 1.32129C14.7059 1.33761 14.7721 1.35358 14.8379 1.37109C14.9224 1.3936 15.0062 1.41793 15.0898 1.44238C19.6605 2.77783 23 6.99785 23 12C23 12.9826 22.8686 13.9344 22.627 14.8408C22.5999 14.9424 22.5709 15.0432 22.541 15.1436C22.5141 15.2338 22.4871 15.3238 22.458 15.4131C22.4406 15.4665 22.4215 15.5192 22.4033 15.5723C22.3596 15.6997 22.3139 15.8259 22.2656 15.9512C22.2313 16.0405 22.1968 16.1296 22.1602 16.2178C22.1366 16.2744 22.1123 16.3306 22.0879 16.3867C22.043 16.4899 21.9961 16.5919 21.9482 16.6934C21.9324 16.7268 21.9175 16.7607 21.9014 16.7939C21.8308 16.9396 21.7574 17.0836 21.6807 17.2256C21.6709 17.2437 21.6603 17.2613 21.6504 17.2793C21.6098 17.3535 21.5696 17.4279 21.5273 17.501C21.4998 17.5486 21.4707 17.5954 21.4424 17.6426C21.4216 17.6773 21.4001 17.7116 21.3789 17.7461C21.3 17.8746 21.2197 18.002 21.1357 18.127C21.1174 18.1543 21.0977 18.1808 21.0791 18.208C21.005 18.3161 20.9294 18.423 20.8516 18.5283C20.8329 18.5536 20.8148 18.5794 20.7959 18.6045C20.7091 18.7198 20.6204 18.8336 20.5293 18.9453C20.4919 18.9912 20.4531 19.0358 20.415 19.0811C20.3484 19.1602 20.2807 19.2383 20.2119 19.3154C20.1788 19.3526 20.1459 19.39 20.1123 19.4268C20.0277 19.5192 19.9422 19.6107 19.8545 19.7002L19.8535 19.6992C17.8571 21.7353 15.0768 23 12 23C8.92244 23 6.14101 21.7352 4.14453 19.6982L4.14355 19.7002C3.93348 19.4859 3.73312 19.2622 3.54102 19.0312C3.52563 19.0128 3.51038 18.9942 3.49512 18.9756C3.17039 18.58 2.8724 18.1617 2.60449 17.7227C2.59385 17.7052 2.58379 17.6874 2.57324 17.6699C2.53934 17.6137 2.5046 17.5579 2.47168 17.501C2.2523 17.1217 2.05564 16.7277 1.88184 16.3213C1.86962 16.2927 1.85768 16.264 1.8457 16.2354C1.7859 16.0922 1.72769 15.948 1.67383 15.8018C1.66053 15.7657 1.64965 15.7287 1.63672 15.6924C1.59558 15.577 1.55591 15.4609 1.51855 15.3438C1.50415 15.2986 1.48942 15.2534 1.47559 15.208C1.42938 15.0563 1.38545 14.9034 1.3457 14.749C1.11966 13.8704 1 12.9492 1 12C1 7.01345 4.31848 2.80331 8.86719 1.4541C8.96978 1.42367 9.07296 1.39468 9.17676 1.36719C9.23258 1.35241 9.28856 1.33814 9.34473 1.32422C9.46054 1.2955 9.57714 1.26916 9.69434 1.24414C9.73764 1.2349 9.78073 1.22455 9.82422 1.21582C10.1473 1.15095 10.4753 1.10034 10.8076 1.06445C10.8602 1.05878 10.913 1.05376 10.9658 1.04883C11.1012 1.03618 11.2373 1.02624 11.374 1.01855C11.4046 1.01684 11.4352 1.01514 11.4658 1.01367C11.6425 1.00521 11.8203 1.00001 11.999 1ZM4.75391 17.3369C4.76926 17.3577 4.78428 17.3787 4.7998 17.3994C6.44177 19.5855 9.05546 21 12 21C14.9351 21 17.5407 19.594 19.1836 17.4199C19.2042 17.3926 19.2238 17.3645 19.2441 17.3369L12 13.1543L4.75391 17.3369ZM11 3.05664C6.50014 3.55417 3 7.36751 3 12C3 13.2823 3.26958 14.5014 3.75293 15.6055L11 11.4219V3.05664ZM13 11.4219L20.2461 15.6055C20.3148 15.4487 20.3806 15.2902 20.4404 15.1289C20.4591 15.0786 20.4754 15.0273 20.4932 14.9766C20.8198 14.0446 21 13.0435 21 12C21 7.97019 18.3515 4.55901 14.7002 3.41211C14.664 3.40073 14.6273 3.39082 14.5908 3.37988C14.0782 3.22604 13.5466 3.11707 13 3.05664V11.4219Z" fill="#9E9E9E"/>
</g>
</svg>
