<svg width="24" height="24" viewBox="0 0 24 24" fill="none" xmlns="http://www.w3.org/2000/svg">
<g id="icons/Abstract/category-management">
<path id="Union" d="M19 13C20.6569 13 22 14.3431 22 16V19C22 20.6569 20.6569 22 19 22H5C3.34315 22 2 20.6569 2 19V16C2 14.3431 3.34315 13 5 13H19ZM5 15C4.44772 15 4 15.4477 4 16V19C4 19.5523 4.44772 20 5 20H19C19.5523 20 20 19.5523 20 19V16C20 15.4477 19.5523 15 19 15H5ZM17 2C19.7614 2 22 4.23858 22 7C22 9.76142 19.7614 12 17 12C14.2386 12 12 9.76142 12 7C12 4.23858 14.2386 2 17 2ZM10 2.5C10.5523 2.5 11 2.94772 11 3.5C11 4.05228 10.5523 4.5 10 4.5H5C4.44771 4.5 4 4.94771 4 5.5V8.5C4 9.05227 4.44772 9.5 5 9.5H10C10.5523 9.5 11 9.94772 11 10.5C11 11.0523 10.5523 11.5 10 11.5H5C3.34314 11.5 2 10.1568 2 8.5V5.5C2 3.84315 3.34315 2.5 5 2.5H10ZM17 4C15.3431 4 14 5.34315 14 7C14 8.65685 15.3431 10 17 10C18.6569 10 20 8.65685 20 7C20 5.34315 18.6569 4 17 4ZM17 5.5C17.8284 5.5 18.5 6.17157 18.5 7C18.5 7.82843 17.8284 8.5 17 8.5C16.1716 8.5 15.5 7.82843 15.5 7C15.5 6.17157 16.1716 5.5 17 5.5Z" fill="#9E9E9E"/>
</g>
</svg>
