<svg width="24" height="24" viewBox="0 0 24 24" fill="none" xmlns="http://www.w3.org/2000/svg">
<g id="icons/Abstract/circles-and-triangles">
<path id="Union" d="M12 1C18.0751 1 23 5.92487 23 12C23 13.9945 22.4652 15.8626 21.5371 17.4756C21.5329 17.4834 21.5308 17.4923 21.5264 17.5C21.5224 17.5069 21.5168 17.5128 21.5127 17.5195C19.6077 20.7956 16.0627 23 12 23C7.93712 23 4.39125 20.7959 2.48633 17.5195C2.4823 17.5129 2.47752 17.5067 2.47363 17.5C2.46912 17.4922 2.4662 17.4835 2.46191 17.4756C1.53401 15.8627 1 13.9943 1 12C1 5.92487 5.92487 1 12 1ZM5.29297 18C6.94091 19.8409 9.33481 21 12 21C14.6652 21 17.0591 19.8409 18.707 18H5.29297ZM5.07227 16H18.9277L12 4L5.07227 16ZM10.1582 3.18848C6.071 4.03843 3 7.66064 3 12C3 12.9813 3.15887 13.9254 3.44922 14.8096L10.1582 3.18848ZM20.5498 14.8096C20.8402 13.9253 21 12.9814 21 12C21 7.66031 17.9285 4.03807 13.8408 3.18848L20.5498 14.8096Z" fill="#9E9E9E"/>
</g>
</svg>
