<svg width="24" height="24" viewBox="0 0 24 24" fill="none" xmlns="http://www.w3.org/2000/svg">
<g id="icons/Abstract/circle-five-line">
<path id="Union" d="M4 17C5.65683 17 7 18.3432 7 20C7 21.6568 5.65683 23 4 23C2.34314 23 1 21.6568 1 20C1 18.3432 2.34314 17 4 17ZM20 17C21.6568 17 23 18.3432 23 20C23 21.6568 21.6568 23 20 23C18.3432 23 17 21.6568 17 20C17 18.3432 18.3432 17 20 17ZM4 19C3.44772 19 3 19.4477 3 20C3 20.5523 3.44772 21 4 21C4.55227 21 5 20.5523 5 20C5 19.4477 4.55227 19 4 19ZM14 19C14.5523 19 15 19.4477 15 20C15 20.5523 14.5523 21 14 21H10C9.44771 21 9 20.5523 9 20C9 19.4477 9.44771 19 10 19H14ZM20 19C19.4477 19 19 19.4477 19 20C19 20.5523 19.4477 21 20 21C20.5523 21 21 20.5523 21 20C21 19.4477 20.5523 19 20 19ZM4 9C4.55228 9 5 9.44771 5 10V14C5 14.5523 4.55228 15 4 15C3.44772 15 3 14.5523 3 14V10C3 9.44771 3.44772 9 4 9ZM12 9C13.6568 9 15 10.3432 15 12C15 13.6568 13.6568 15 12 15C10.3432 15 9 13.6568 9 12C9 10.3432 10.3432 9 12 9ZM20 9C20.5523 9 21 9.44771 21 10V14C21 14.5523 20.5523 15 20 15C19.4477 15 19 14.5523 19 14V10C19 9.44771 19.4477 9 20 9ZM12 11C11.4477 11 11 11.4477 11 12C11 12.5523 11.4477 13 12 13C12.5523 13 13 12.5523 13 12C13 11.4477 12.5523 11 12 11ZM4 1C5.65683 1 7 2.34314 7 4C7 5.65683 5.65683 7 4 7C2.34314 7 1 5.65683 1 4C1 2.34315 2.34315 1 4 1ZM20 1C21.6568 1 23 2.34314 23 4C23 5.65683 21.6568 7 20 7C18.3432 7 17 5.65683 17 4C17 2.34314 18.3432 1 20 1ZM4 3C3.44771 3 3 3.44771 3 4C3 4.55227 3.44772 5 4 5C4.55227 5 5 4.55227 5 4C5 3.44772 4.55227 3 4 3ZM14 3C14.5523 3 15 3.44772 15 4C15 4.55228 14.5523 5 14 5H10C9.44771 5 9 4.55228 9 4C9 3.44772 9.44771 3 10 3H14ZM20 3C19.4477 3 19 3.44772 19 4C19 4.55227 19.4477 5 20 5C20.5523 5 21 4.55227 21 4C21 3.44772 20.5523 3 20 3Z" fill="#9E9E9E"/>
</g>
</svg>
