<svg width="24" height="24" viewBox="0 0 24 24" fill="none" xmlns="http://www.w3.org/2000/svg">
<g id="icons/Abstract/circle-two-line">
<path id="Union" d="M4 17C5.65683 17 7 18.3432 7 20C7 21.6568 5.65683 23 4 23C2.34314 23 1 21.6568 1 20C1 18.3432 2.34314 17 4 17ZM4 19C3.44772 19 3 19.4477 3 20C3 20.5523 3.44772 21 4 21C4.55227 21 5 20.5523 5 20C5 19.4477 4.55227 19 4 19ZM20 9C20.5523 9 21 9.44771 21 10V20C21 20.5523 20.5523 21 20 21H10C9.44771 21 9 20.5523 9 20C9 19.4477 9.44771 19 10 19H19V10C19 9.44771 19.4477 9 20 9ZM14 3C14.5523 3 15 3.44772 15 4C15 4.55228 14.5523 5 14 5H5V14C5 14.5523 4.55228 15 4 15C3.44772 15 3 14.5523 3 14V4C3 3.44772 3.44772 3 4 3H14ZM20 1C21.6568 1 23 2.34314 23 4C23 5.65683 21.6568 7 20 7C18.3432 7 17 5.65683 17 4C17 2.34314 18.3432 1 20 1ZM20 3C19.4477 3 19 3.44772 19 4C19 4.55227 19.4477 5 20 5C20.5523 5 21 4.55227 21 4C21 3.44772 20.5523 3 20 3Z" fill="#9E9E9E"/>
</g>
</svg>
