<svg width="24" height="24" viewBox="0 0 24 24" fill="none" xmlns="http://www.w3.org/2000/svg">
<g id="icons/Abstract/circular-connection">
<path id="Union" d="M12 1C13.8176 1 15.3106 2.38566 15.4824 4.1582C19.0054 5.54704 21.4998 8.98058 21.5 12.999C21.5 13.7888 21.4022 14.5574 21.2197 15.293C22.0016 15.9349 22.5 16.9094 22.5 18C22.5 18.9387 22.1293 19.7933 21.5283 20.4209C20.8924 21.0849 19.9937 21.5 19 21.5C18.3245 21.5 17.694 21.308 17.1592 20.9766C15.6732 21.9394 13.9013 22.5 12 22.5C10.0987 22.5 8.32679 21.9394 6.84082 20.9766C6.30601 21.3077 5.67516 21.5 5 21.5C3.067 21.5 1.5 19.933 1.5 18C1.5 16.9091 2.00003 15.9371 2.78027 15.2959C2.59738 14.5595 2.5 13.7898 2.5 12.999C2.50018 8.98058 4.99461 5.54704 8.51758 4.1582C8.63984 2.89736 9.43007 1.8337 10.5273 1.32422C10.9762 1.1158 11.476 1 12 1ZM15.0801 6.16016C14.9299 6.43846 14.7448 6.69481 14.5283 6.9209C13.8924 7.5849 12.9937 8 12 8C10.6679 8 9.51036 7.25544 8.91895 6.16016C6.31308 7.33592 4.50017 9.95648 4.5 12.999C4.5 13.5199 4.55353 14.0277 4.6543 14.5176C4.76816 14.5064 4.88345 14.5 5 14.5C6.93298 14.5 8.5 16.067 8.5 18C8.5 18.5194 8.38486 19.0123 8.18164 19.4561C9.29993 20.1191 10.6045 20.5 12 20.5C13.3952 20.5 14.6993 20.1188 15.8174 19.4561C15.6142 19.0126 15.5 18.5197 15.5 18C15.5 16.5914 16.3322 15.3792 17.5273 14.8242C17.9762 14.6158 18.476 14.5 19 14.5C19.1163 14.5 19.2313 14.5065 19.3447 14.5176C19.4455 14.0276 19.5 13.52 19.5 12.999C19.4998 9.95616 17.6864 7.33574 15.0801 6.16016ZM5 16.5C4.77275 16.5 4.55956 16.5502 4.36914 16.6387C3.85393 16.8781 3.5 17.3987 3.5 18C3.5 18.8284 4.17158 19.5 5 19.5C5.42611 19.5 5.80969 19.3235 6.08398 19.0371C6.34273 18.7668 6.5 18.4028 6.5 18C6.5 17.1716 5.82842 16.5 5 16.5ZM19 16.5C18.7728 16.5 18.5595 16.5503 18.3691 16.6387C17.8539 16.8781 17.5 17.3987 17.5 18C17.5 18.8284 18.1716 19.5 19 19.5C19.4261 19.5 19.8097 19.3235 20.084 19.0371C20.3427 18.7668 20.5 18.4028 20.5 18C20.5 17.1716 19.8284 16.5 19 16.5ZM12 3C11.7728 3 11.5595 3.05027 11.3691 3.13867C10.8539 3.37809 10.5 3.89865 10.5 4.5C10.5 5.32842 11.1716 6 12 6C12.4261 6 12.8097 5.82355 13.084 5.53711C13.3427 5.26677 13.5 4.90275 13.5 4.5C13.5 3.67158 12.8284 3 12 3Z" fill="#9E9E9E"/>
</g>
</svg>
