<svg width="24" height="24" viewBox="0 0 24 24" fill="none" xmlns="http://www.w3.org/2000/svg">
<g id="icons/Abstract/circle-four">
<path id="Union" d="M12 18C13.3807 18 14.5 19.1193 14.5 20.5C14.5 21.8807 13.3807 23 12 23C10.6193 23 9.5 21.8807 9.5 20.5C9.5 19.1193 10.6193 18 12 18ZM12 20C11.7238 20 11.5 20.2238 11.5 20.5C11.5 20.7762 11.7238 21 12 21C12.2762 21 12.5 20.7762 12.5 20.5C12.5 20.2238 12.2762 20 12 20ZM14.9912 5.34277C15.2894 4.90603 15.8762 4.77657 16.3301 5.04785C17.4008 5.68848 18.3134 6.56606 18.9961 7.60742C19.1445 7.83391 19.1952 8.11083 19.1357 8.375C19.0762 8.63918 18.9119 8.86777 18.6807 9.00879C17.6706 9.62486 17 10.7347 17 12C17.0001 13.2986 17.7071 14.433 18.7617 15.0381C18.9966 15.1729 19.1669 15.3976 19.2334 15.6602C19.2999 15.9227 19.2567 16.2012 19.1143 16.4316C18.4752 17.4656 17.614 18.3471 16.5967 19.0098C16.3632 19.1618 16.0768 19.2096 15.8066 19.1416C15.5365 19.0735 15.3064 18.8958 15.1729 18.6514C14.5778 17.5613 13.4235 16.8244 12.0986 16.8242C10.7778 16.8242 9.62607 17.5561 9.0293 18.6406C8.89501 18.8847 8.66482 19.0616 8.39453 19.1289C8.12406 19.1961 7.83751 19.147 7.60449 18.9941C6.56434 18.3117 5.68794 17.3999 5.04785 16.3301C4.77654 15.8762 4.90602 15.2895 5.34277 14.9912C6.26785 14.3594 6.87193 13.2992 6.87207 12.0986C6.87207 10.9017 6.27159 9.84455 5.35156 9.21191C4.91563 8.91222 4.78849 8.3242 5.06152 7.87109C5.75465 6.7209 6.72099 5.75463 7.87109 5.06152C8.3242 4.78847 8.91221 4.91562 9.21191 5.35156C9.84455 6.27159 10.9017 6.87207 12.0986 6.87207C13.2993 6.87193 14.3594 6.26783 14.9912 5.34277ZM15.9971 7.24902C15.0019 8.24955 13.6233 8.87195 12.0986 8.87207C10.5797 8.87207 9.20534 8.25452 8.21094 7.26074C7.86107 7.54249 7.54249 7.86107 7.26074 8.21094C8.25452 9.20534 8.87207 10.5797 8.87207 12.0986C8.87195 13.6233 8.24956 15.0019 7.24902 15.9971C7.45882 16.2593 7.68868 16.5044 7.9375 16.7295C8.9452 15.5644 10.4349 14.8242 12.0986 14.8242C13.7686 14.8243 15.2627 15.5703 16.2705 16.7432C16.4833 16.552 16.6824 16.3464 16.8672 16.1279C15.7238 15.1209 15.0001 13.6457 15 12C15 10.4071 15.6786 8.97422 16.7588 7.9707C16.5256 7.70926 16.2708 7.46805 15.9971 7.24902ZM3.5 9.5C4.8807 9.5 6 10.6193 6 12C6 13.3807 4.8807 14.5 3.5 14.5C2.1193 14.5 1 13.3807 1 12C1 10.6193 2.1193 9.5 3.5 9.5ZM20.5 9.5C21.8807 9.5 23 10.6193 23 12C23 13.3807 21.8807 14.5 20.5 14.5C19.1193 14.5 18 13.3807 18 12C18 10.6193 19.1193 9.5 20.5 9.5ZM3.5 11.5C3.22385 11.5 3 11.7238 3 12C3 12.2762 3.22385 12.5 3.5 12.5C3.77615 12.5 4 12.2762 4 12C4 11.7238 3.77615 11.5 3.5 11.5ZM20.5 11.5C20.2238 11.5 20 11.7238 20 12C20 12.2762 20.2238 12.5 20.5 12.5C20.7762 12.5 21 12.2762 21 12C21 11.7238 20.7762 11.5 20.5 11.5ZM12 1C13.3807 1 14.5 2.1193 14.5 3.5C14.5 4.8807 13.3807 6 12 6C10.6193 6 9.5 4.8807 9.5 3.5C9.5 2.1193 10.6193 1 12 1ZM12 3C11.7238 3 11.5 3.22385 11.5 3.5C11.5 3.77615 11.7238 4 12 4C12.2762 4 12.5 3.77615 12.5 3.5C12.5 3.22385 12.2762 3 12 3Z" fill="#9E9E9E"/>
</g>
</svg>
