<svg width="24" height="24" viewBox="0 0 24 24" fill="none" xmlns="http://www.w3.org/2000/svg">
<g id="icons/Abstract/circle-three">
<path id="Union" d="M4.5 16.5C6.15683 16.5 7.5 17.8432 7.5 19.5C7.5 21.1568 6.15683 22.5 4.5 22.5C2.84314 22.5 1.5 21.1568 1.5 19.5C1.5 17.8432 2.84314 16.5 4.5 16.5ZM19.5 16.5C21.1568 16.5 22.5 17.8432 22.5 19.5C22.5 21.1568 21.1568 22.5 19.5 22.5C17.8432 22.5 16.5 21.1568 16.5 19.5C16.5 17.8432 17.8432 16.5 19.5 16.5ZM16.2236 5.99023C16.5092 5.92329 16.8099 5.98497 17.0459 6.15918C19.139 7.70549 20.4999 10.1941 20.5 13C20.5 13.4622 20.463 13.9169 20.3916 14.3604C20.3088 14.8749 19.8447 15.2395 19.3252 15.1982C19.2181 15.1897 19.1094 15.1855 19 15.1855C16.7908 15.1855 15 16.9764 15 19.1855C15 19.4654 15.029 19.7373 15.083 19.999C15.1884 20.5095 14.8832 21.0152 14.3828 21.1611C13.6256 21.3819 12.8257 21.5 12 21.5C11.1743 21.5 10.3744 21.3819 9.61719 21.1611C9.11683 21.0152 8.81165 20.5095 8.91699 19.999C8.97103 19.7371 8.99999 19.4652 9 19.1855C9 16.9764 7.20913 15.1856 5 15.1855C4.8906 15.1855 4.78182 15.1897 4.6748 15.1982C4.15532 15.2395 3.69123 14.8749 3.6084 14.3604C3.53701 13.9169 3.5 13.4623 3.5 13C3.5001 10.1941 4.8609 7.7055 6.9541 6.15918L7.04492 6.09961C7.26458 5.9717 7.52624 5.93161 7.77637 5.99023C8.06209 6.05724 8.30358 6.24668 8.4375 6.50781C9.1017 7.80293 10.4488 8.68555 12 8.68555C13.5511 8.68555 14.8983 7.80292 15.5625 6.50781L15.6172 6.41309C15.7571 6.20103 15.9736 6.04886 16.2236 5.99023ZM4.5 18.5C3.94772 18.5 3.5 18.9477 3.5 19.5C3.5 20.0523 3.94772 20.5 4.5 20.5C5.05227 20.5 5.5 20.0523 5.5 19.5C5.5 18.9477 5.05227 18.5 4.5 18.5ZM19.5 18.5C18.9477 18.5 18.5 18.9477 18.5 19.5C18.5 20.0523 18.9477 20.5 19.5 20.5C20.0523 20.5 20.5 20.0523 20.5 19.5C20.5 18.9477 20.0523 18.5 19.5 18.5ZM16.6562 8.4668C15.5569 9.81879 13.8807 10.6855 12 10.6855C10.119 10.6855 8.44209 9.81906 7.34277 8.4668C6.20173 9.63859 5.50008 11.2371 5.5 13C5.5 13.0695 5.50077 13.1391 5.50293 13.208C8.58121 13.4636 11 16.0413 11 19.1855C11 19.2647 10.9962 19.3434 10.9932 19.4219C11.3209 19.4728 11.6571 19.5 12 19.5C12.3426 19.5 12.6784 19.4727 13.0059 19.4219C13.0028 19.3434 13 19.2647 13 19.1855C13 16.0416 15.4182 13.464 18.4961 13.208C18.4983 13.1391 18.5 13.0695 18.5 13C18.4999 11.2369 17.7976 9.63864 16.6562 8.4668ZM12 1.5C13.6568 1.5 15 2.84314 15 4.5C15 6.15683 13.6568 7.5 12 7.5C10.3432 7.5 9 6.15683 9 4.5C9 2.84314 10.3432 1.5 12 1.5ZM12 3.5C11.4477 3.5 11 3.94772 11 4.5C11 5.05227 11.4477 5.5 12 5.5C12.5523 5.5 13 5.05227 13 4.5C13 3.94772 12.5523 3.5 12 3.5Z" fill="#9E9E9E"/>
</g>
</svg>
