<svg width="24" height="24" viewBox="0 0 24 24" fill="none" xmlns="http://www.w3.org/2000/svg">
<g id="icons/Abstract/circles-seven">
<path id="Union" d="M12 17C13.6568 17 15 18.3432 15 20C15 21.6568 13.6568 23 12 23C10.3432 23 9 21.6568 9 20C9 18.3432 10.3432 17 12 17ZM12 19C11.4478 19 11 19.4478 11 20C11 20.5522 11.4478 21 12 21C12.5523 21 13 20.5523 13 20C13 19.4477 12.5523 19 12 19ZM3.57129 13.4023C5.00609 12.5739 6.84141 13.0653 7.66992 14.5C8.49837 15.9349 8.00617 17.7702 6.57129 18.5986C5.13647 19.4266 3.30195 18.9347 2.47363 17.5C1.64558 16.0653 2.13693 14.2309 3.57129 13.4023ZM16.3301 14.5C17.1585 13.0655 18.993 12.5743 20.4277 13.4023C21.8625 14.2307 22.3545 16.0651 21.5264 17.5C20.6979 18.9348 18.8626 19.4271 17.4277 18.5986C15.9932 17.7701 15.5018 15.9348 16.3301 14.5ZM5.9375 15.5C5.66121 15.022 5.04941 14.8587 4.57129 15.1348C4.09357 15.4111 3.9302 16.022 4.20605 16.5C4.48213 16.9782 5.09305 17.142 5.57129 16.8662C6.04961 16.59 6.21365 15.9783 5.9375 15.5ZM19.4277 15.1348C18.9496 14.8589 18.3387 15.0221 18.0625 15.5C17.7866 15.9781 17.9499 16.5899 18.4277 16.8662C18.906 17.1423 19.5177 16.9782 19.7939 16.5C20.0699 16.0217 19.906 15.4109 19.4277 15.1348ZM12 9C13.6568 9 15 10.3432 15 12C15 13.6568 13.6568 15 12 15C10.3432 15 9 13.6568 9 12C9 10.3432 10.3432 9.00003 12 9ZM12 11C11.4478 11 11 11.4478 11 12C11 12.5522 11.4478 13 12 13C12.5523 13 13 12.5523 13 12C13 11.4477 12.5523 11 12 11ZM2.47363 6.5C3.30206 5.06548 5.13655 4.5743 6.57129 5.40234C8.00605 6.23071 8.49808 8.06515 7.66992 9.5C6.84145 10.9348 5.00614 11.4271 3.57129 10.5986C2.13676 9.77012 1.64538 7.93475 2.47363 6.5ZM17.4277 5.40234C18.8625 4.57395 20.6978 5.06534 21.5264 6.5C22.3548 7.9349 21.8626 9.77019 20.4277 10.5986C18.9929 11.4266 17.1584 10.9347 16.3301 9.5C15.502 8.06532 15.9934 6.23085 17.4277 5.40234ZM5.57129 7.13477C5.09318 6.85891 4.48227 7.02213 4.20605 7.5C3.93012 7.9781 4.09345 8.58992 4.57129 8.86621C5.04952 9.14233 5.6613 8.97823 5.9375 8.5C6.21349 8.02173 6.04954 7.41089 5.57129 7.13477ZM19.7939 7.5C19.5177 7.02203 18.9059 6.85871 18.4277 7.13477C17.95 7.41108 17.7866 8.02196 18.0625 8.5C18.3386 8.97818 18.9495 9.14203 19.4277 8.86621C19.9061 8.59005 20.0701 7.9783 19.7939 7.5ZM12 1C13.6568 1 15 2.34314 15 4C15 5.65683 13.6568 7 12 7C10.3432 6.99997 9 5.65682 9 4C9 2.34316 10.3432 1.00003 12 1ZM12 3C11.4478 3.00003 11 3.44774 11 4C11 4.55225 11.4478 4.99997 12 5C12.5523 5 13 4.55227 13 4C13 3.44772 12.5523 3 12 3Z" fill="#9E9E9E"/>
</g>
</svg>
