<svg width="24" height="24" viewBox="0 0 24 24" fill="none" xmlns="http://www.w3.org/2000/svg">
<g id="icons/Abstract/cone">
<path id="Union" d="M12 1C12.3747 1.00002 12.7183 1.20978 12.8896 1.54297L21.3027 17.9033C21.6978 18.3189 22 18.8511 22 19.5C22 19.5033 21.999 19.5065 21.999 19.5098C21.9989 19.5222 21.9986 19.5345 21.998 19.5469C21.9794 20.3758 21.4709 21.0127 20.9121 21.4531C20.3315 21.9107 19.5531 22.2795 18.6807 22.5703C16.9251 23.1555 14.5629 23.5 12 23.5C9.43715 23.5 7.07494 23.1555 5.31934 22.5703C4.4469 22.2795 3.66849 21.9107 3.08789 21.4531C2.52908 21.0127 2.01958 20.3758 2.00098 19.5469C2.00058 19.5387 2.00019 19.5306 2 19.5225V19.5C2 18.8513 2.30144 18.3189 2.69629 17.9033L11.1104 1.54297C11.2817 1.20977 11.6253 1 12 1ZM5.47852 20.5C5.62576 20.5584 5.78344 20.6166 5.95215 20.6729C7.45391 21.1734 9.59229 21.5 12 21.5C14.4077 21.5 16.5461 21.1734 18.0479 20.6729C18.2166 20.6166 18.3742 20.5584 18.5215 20.5H5.47852ZM12 17.5C9.59229 17.5 7.45391 17.8266 5.95215 18.3271C5.78344 18.3834 5.62576 18.4416 5.47852 18.5H18.5215C18.3742 18.4416 18.2166 18.3834 18.0479 18.3271C16.5461 17.8266 14.4077 17.5 12 17.5ZM5.77637 16.2871C7.47494 15.7891 9.65332 15.5 12 15.5C14.3463 15.5 16.5242 15.7893 18.2227 16.2871L12 4.18652L5.77637 16.2871Z" fill="#9E9E9E"/>
</g>
</svg>
