<svg width="24" height="24" viewBox="0 0 24 24" fill="none" xmlns="http://www.w3.org/2000/svg">
<g id="icons/Abstract/cones">
<path id="Union" d="M12 3C12.3446 3.00003 12.6649 3.17758 12.8477 3.46973L22.8477 19.4697C23.0402 19.7778 23.0509 20.1665 22.875 20.4844C22.6988 20.8023 22.3635 21 22 21H2C1.63649 21 1.30123 20.8023 1.125 20.4844C0.949035 20.1665 0.959767 19.7778 1.15234 19.4697L11.1523 3.46973L11.2266 3.36621C11.415 3.13618 11.6982 3 12 3ZM3.80371 19H20.1963L12 5.88574L3.80371 19ZM12 10C12.5522 10.0001 13 10.4477 13 11V13.4648L15.5547 15.168C16.0141 15.4743 16.1383 16.0952 15.832 16.5547C15.5257 17.0142 14.9048 17.1383 14.4453 16.832L12 15.2012L9.55469 16.832C9.09517 17.1384 8.47433 17.0142 8.16797 16.5547C7.86162 16.0952 7.98578 15.4743 8.44531 15.168L11 13.4648V11C11 10.4477 11.4477 10 12 10Z" fill="#9E9E9E"/>
</g>
</svg>
