<svg width="24" height="24" viewBox="0 0 24 24" fill="none" xmlns="http://www.w3.org/2000/svg">
<g id="icons/Abstract/converging-gateway" clip-path="url(#clip0_56_5752)">
<path id="Union" d="M10.6925 1.39355C11.4735 0.612499 12.7396 0.612504 13.5206 1.39355L22.713 10.5859C23.4939 11.367 23.494 12.6331 22.713 13.4141L13.5206 22.6064C12.7397 23.3874 11.4735 23.3873 10.6925 22.6064L1.50012 13.4141C0.71906 12.633 0.719079 11.367 1.50012 10.5859L10.6925 1.39355ZM2.91418 12L12.1066 21.1924L21.299 12L12.1066 2.80762L2.91418 12ZM12.0216 6.76758C12.5738 6.76769 13.0216 7.21536 13.0216 7.76758V9.58887L14.3097 8.30078C14.7002 7.91029 15.3332 7.91036 15.7238 8.30078C16.1141 8.69132 16.1142 9.32437 15.7238 9.71484L14.4357 11.0029H16.2579C16.8102 11.003 17.2579 11.4507 17.2579 12.0029C17.2579 12.5551 16.8101 13.0028 16.2579 13.0029H14.4357L15.7238 14.291C16.1141 14.6816 16.1142 15.3146 15.7238 15.7051C15.3333 16.0955 14.7002 16.0954 14.3097 15.7051L13.0216 14.417V16.2393C13.0215 16.7914 12.5737 17.2391 12.0216 17.2393C11.4694 17.2393 11.0217 16.7915 11.0216 16.2393V14.417L9.73352 15.7051C9.34305 16.0956 8.71 16.0955 8.31946 15.7051C7.92907 15.3145 7.92898 14.6815 8.31946 14.291L9.60754 13.0029H7.78625C7.23402 13.0029 6.78633 12.5551 6.78625 12.0029C6.78625 11.4506 7.23397 11.0029 7.78625 11.0029H9.60754L8.31946 9.71484C7.92894 9.32432 7.92894 8.69131 8.31946 8.30078C8.70998 7.91026 9.343 7.91026 9.73352 8.30078L11.0216 9.58887V7.76758C11.0216 7.21529 11.4693 6.76758 12.0216 6.76758Z" fill="#9E9E9E"/>
</g>
<defs>
<clipPath id="clip0_56_5752">
<rect width="24" height="24" fill="white"/>
</clipPath>
</defs>
</svg>
