<svg width="24" height="24" viewBox="0 0 24 24" fill="none" xmlns="http://www.w3.org/2000/svg">
<g id="icons/Abstract/coordinate-system">
<path id="Union" d="M11.9997 2C12.552 2 12.9997 2.44772 12.9997 3V5.41895L19.4958 9.13184C19.4998 9.13412 19.5036 9.13731 19.5075 9.13965C19.5736 9.17858 19.6356 9.22505 19.6921 9.2793C19.7017 9.28856 19.7111 9.298 19.7204 9.30762C19.739 9.32703 19.7559 9.34802 19.7731 9.36914C19.7815 9.37936 19.7906 9.38888 19.7985 9.39941C19.8139 9.41995 19.8275 9.44187 19.8415 9.46387C19.8498 9.47698 19.8591 9.48945 19.8669 9.50293L19.8679 9.50391C19.8872 9.53768 19.9037 9.57251 19.9186 9.60742C19.9227 9.61699 19.9256 9.62702 19.9294 9.63672C19.9396 9.66263 19.9489 9.68851 19.9567 9.71484C19.9611 9.72945 19.9657 9.74395 19.9694 9.75879C19.9885 9.83508 19.998 9.91224 19.9987 9.98926C19.9988 9.99252 19.9997 9.99576 19.9997 9.99902V17.3818L22.447 18.6055C22.9409 18.8525 23.1412 19.4533 22.8942 19.9473C22.6472 20.4412 22.0464 20.6415 21.5524 20.3945L19.0309 19.1338L12.4958 22.8682C12.4921 22.8703 12.4877 22.871 12.4841 22.873C12.4176 22.91 12.3468 22.9388 12.2722 22.96C12.2598 22.9635 12.2475 22.9667 12.235 22.9697C12.2074 22.9764 12.1795 22.982 12.1511 22.9863C12.1416 22.9878 12.1323 22.99 12.1227 22.9912C12.0825 22.9961 12.0413 23 11.9997 23C11.9573 23 11.9157 22.9963 11.8747 22.9912C11.8668 22.9902 11.8591 22.9875 11.8513 22.9863C11.8208 22.9818 11.7909 22.9769 11.7614 22.9697C11.751 22.9672 11.7405 22.9648 11.7302 22.9619C11.6541 22.9406 11.5819 22.9107 11.5143 22.873C11.511 22.8712 11.5069 22.8701 11.5036 22.8682L4.96844 19.1338L2.44696 20.3945C1.95303 20.6413 1.35211 20.4412 1.10516 19.9473C0.858312 19.4534 1.05867 18.8525 1.55243 18.6055L3.99969 17.3818V9.97754C4.00133 9.9018 4.0126 9.82588 4.03192 9.75098C4.03437 9.74148 4.03702 9.73206 4.03973 9.72266C4.04734 9.69639 4.05622 9.6704 4.0661 9.64453C4.07172 9.62977 4.07737 9.61505 4.08368 9.60059C4.09794 9.56798 4.11348 9.53551 4.13153 9.50391C4.15254 9.46715 4.17611 9.43244 4.20087 9.39941C4.2067 9.39165 4.21336 9.38455 4.21942 9.37695C4.29556 9.28131 4.38596 9.20187 4.487 9.1416C4.4925 9.13831 4.49802 9.13503 4.5036 9.13184L10.9997 5.41895V3C10.9997 2.44782 11.4476 2.00017 11.9997 2ZM5.99969 17.4189L10.9997 20.2754V14.5801L5.99969 11.7227V17.4189ZM12.9997 14.5801V20.2754L17.9997 17.4189V11.7227L12.9997 14.5801ZM8.99481 8.86719L8.99579 8.86816L7.01532 9.99902L11.9997 12.8477L16.9831 9.99902L15.0036 8.86816V8.86719L11.9997 7.15137L8.99481 8.86719Z" fill="#9E9E9E"/>
</g>
</svg>
