<svg width="24" height="24" viewBox="0 0 24 24" fill="none" xmlns="http://www.w3.org/2000/svg">
<g id="icons/Abstract/cross-ring-two">
<path id="Union" d="M17.9092 6C20.1069 6.00004 23 7.62293 23 11C23 14.3771 20.1069 16 17.9092 16C14.6284 16 12.9704 13.7653 11.2256 11.6328C9.33424 9.32121 8.26452 8 6.09082 8C4.65223 8.00004 3 9.04384 3 11C3 12.9562 4.65223 14 6.09082 14C7.47811 14 8.13298 13.3823 9.02832 12.5068C9.42322 12.121 10.0564 12.1287 10.4424 12.5234C10.8282 12.9183 10.8215 13.5515 10.4268 13.9375C9.50399 14.8398 8.33994 16 6.09082 16C3.89309 16 1 14.3771 1 11C1 7.62293 3.89309 6.00004 6.09082 6C9.37157 6 11.0296 8.23469 12.7744 10.3672C14.6658 12.6788 15.7355 14 17.9092 14C19.3477 14 21 12.9562 21 11C21 9.04385 19.3477 8.00004 17.9092 8C16.5446 8 15.4492 9.02623 14.9717 9.49316C14.5768 9.87899 13.9436 9.87132 13.5576 9.47656C13.1718 9.08168 13.1785 8.44854 13.5732 8.0625C14.0048 7.64053 15.6374 6 17.9092 6Z" fill="#9E9E9E"/>
</g>
</svg>
