<svg width="24" height="24" viewBox="0 0 24 24" fill="none" xmlns="http://www.w3.org/2000/svg">
<g id="icons/Abstract/cross-ring">
<path id="Union" d="M12 1C13.6568 1 15 2.34314 15 4C15 5.30572 14.1645 6.41299 13 6.8252V11H17.1738C17.5859 9.83533 18.6942 9 20 9C21.6568 9 23 10.3432 23 12C23 13.6568 21.6568 15 20 15C18.6942 15 17.5859 14.1647 17.1738 13H13V17.1738C14.1647 17.5859 15 18.6942 15 20C15 21.6568 13.6568 23 12 23C10.3432 23 9 21.6568 9 20C9 18.6942 9.83533 17.5859 11 17.1738V13H6.82617C6.41405 14.1647 5.30583 15 4 15C2.34314 15 1 13.6568 1 12C1 10.3432 2.34314 9 4 9C5.30583 9 6.41405 9.83533 6.82617 11H11V6.8252C9.83549 6.41299 9 5.30572 9 4C9 2.34314 10.3432 1 12 1ZM12 19C11.4477 19 11 19.4477 11 20C11 20.5523 11.4477 21 12 21C12.5523 21 13 20.5523 13 20C13 19.4477 12.5523 19 12 19ZM4.71289 15.6719C5.11045 15.3455 5.69095 15.3745 6.05469 15.7383L8.2627 17.9453C8.6265 18.3091 8.65469 18.8905 8.32812 19.2881C8.00151 19.6854 7.42644 19.7695 6.99902 19.4834C6.63118 19.2371 6.28276 18.9643 5.95605 18.668L5.63672 18.3643C5.2209 17.9484 4.84508 17.4916 4.5166 17.001C4.23063 16.5735 4.31542 15.9984 4.71289 15.6719ZM17.9453 15.7383C18.3091 15.3745 18.8905 15.3453 19.2881 15.6719C19.6856 15.9984 19.7696 16.5735 19.4834 17.001C19.1549 17.4916 18.7801 17.9484 18.3643 18.3643C17.9484 18.7801 17.4916 19.1549 17.001 19.4834C16.5735 19.7696 15.9984 19.6856 15.6719 19.2881C15.3453 18.8905 15.3745 18.3091 15.7383 17.9453L17.9453 15.7383ZM4 11C3.44772 11 3 11.4477 3 12C3 12.5523 3.44772 13 4 13C4.55227 13 5 12.5523 5 12C5 11.4477 4.55227 11 4 11ZM20 11C19.4477 11 19 11.4477 19 12C19 12.5523 19.4477 13 20 13C20.5523 13 21 12.5523 21 12C21 11.4477 20.5523 11 20 11ZM15.6143 4.79102C15.9215 4.33244 16.5422 4.20969 17.001 4.5166C17.4916 4.84508 17.9484 5.2209 18.3643 5.63672L18.668 5.95605C18.9643 6.28276 19.2371 6.63118 19.4834 6.99902C19.7906 7.45796 19.6679 8.07948 19.209 8.38672C18.7501 8.69373 18.1294 8.57018 17.8223 8.11133C17.5667 7.72957 17.274 7.37457 16.9502 7.05078C16.6262 6.7268 16.2705 6.43433 15.8887 6.17871C15.4298 5.87147 15.307 5.24995 15.6143 4.79102ZM6.99902 4.5166C7.42653 4.23041 8.00155 4.31539 8.32812 4.71289C8.65467 5.11043 8.62642 5.69088 8.2627 6.05469L6.05469 8.2627C5.69088 8.62642 5.11043 8.65467 4.71289 8.32812C4.31539 8.00155 4.23041 7.42653 4.5166 6.99902C4.84505 6.50841 5.22091 6.05248 5.63672 5.63672C6.05248 5.22091 6.50841 4.84505 6.99902 4.5166ZM12 3C11.4477 3 11 3.44772 11 4C11 4.55227 11.4477 5 12 5C12.5523 5 13 4.55227 13 4C13 3.44772 12.5523 3 12 3Z" fill="#9E9E9E"/>
</g>
</svg>
