<svg width="24" height="24" viewBox="0 0 24 24" fill="none" xmlns="http://www.w3.org/2000/svg">
<g id="icons/Abstract/crown-two">
<path id="Union" d="M12 1C18.0751 1 23 5.92487 23 12C23 18.0751 18.0751 23 12 23C5.92487 23 1 18.0751 1 12C1 5.92487 5.92487 1 12 1ZM12 3C7.02943 3 3 7.02943 3 12C3 16.9706 7.02943 21 12 21C16.9706 21 21 16.9706 21 12C21 7.02943 16.9706 3 12 3ZM12 6.5C12.323 6.5 12.6258 6.65615 12.8135 6.91895L14.8164 9.72266L17.0527 8.60547C17.3626 8.45051 17.7306 8.46733 18.0254 8.64941C18.3202 8.83162 18.5 9.15342 18.5 9.5V14.5C18.5 15.0523 18.0523 15.5 17.5 15.5H6.5C5.94772 15.5 5.5 15.0523 5.5 14.5V9.5C5.5 9.15342 5.67979 8.83162 5.97461 8.64941C6.26939 8.46733 6.63735 8.45051 6.94727 8.60547L9.18262 9.72266L11.1865 6.91895L11.2617 6.8252C11.4499 6.61928 11.7174 6.5 12 6.5ZM10.3135 11.5811C10.0275 11.9815 9.49286 12.1146 9.05273 11.8945L7.5 11.1182V13.5H16.5V11.1182L14.9473 11.8945C14.5071 12.1146 13.9725 11.9815 13.6865 11.5811L12 9.21973L10.3135 11.5811Z" fill="#9E9E9E"/>
</g>
</svg>
