<svg width="24" height="24" viewBox="0 0 24 24" fill="none" xmlns="http://www.w3.org/2000/svg">
<g id="icons/Abstract/cube-four">
<path id="Union" d="M11.6191 1.0752C11.9035 0.958021 12.2293 0.977608 12.5 1.13379L21.1602 6.13379C21.4695 6.3124 21.6601 6.64279 21.6602 7V17C21.6602 17.3572 21.4695 17.6876 21.1602 17.8662L12.5 22.8662C12.1906 23.0448 11.8093 23.0448 11.5 22.8662L2.83984 17.8662C2.53048 17.6876 2.33984 17.3572 2.33984 17V7C2.33989 6.64279 2.53048 6.3124 2.83984 6.13379L11.5 1.13379L11.6191 1.0752ZM8.16992 5.36621L4.33984 7.57715V16.4219L8.16992 18.6338L12 20.8447L15.8301 18.6338L19.6602 16.4219V7.57715L15.8301 5.36621L12 3.1543L8.16992 5.36621ZM12.9072 16.8213C13.3855 16.5452 13.9973 16.7093 14.2734 17.1875C14.5496 17.6658 14.3855 18.2776 13.9072 18.5537L12.5 19.3662C12.1906 19.5448 11.8094 19.5448 11.5 19.3662L10.0928 18.5537C9.61455 18.2776 9.4505 17.6658 9.72656 17.1875C10.0027 16.7093 10.6145 16.5453 11.0928 16.8213L12 17.3457L12.9072 16.8213ZM12 4.5C12.5522 4.50007 12.9999 4.94782 13 5.5V11.4219L17.6963 14.1338C18.1744 14.4099 18.3385 15.0218 18.0625 15.5C17.7864 15.9782 17.1745 16.1421 16.6963 15.8662L12 13.1543L7.30371 15.8662C6.82545 16.1422 6.2136 15.9782 5.9375 15.5C5.66161 15.0218 5.82561 14.4099 6.30371 14.1338L11 11.4219V5.5C11.0001 4.94786 11.4479 4.50013 12 4.5ZM7.27832 7.07129C7.75657 6.79536 8.36844 6.9593 8.64453 7.4375C8.92059 7.91571 8.75641 8.52751 8.27832 8.80371L7.37109 9.32715V10.375C7.37109 10.9272 6.92327 11.3749 6.37109 11.375C5.81881 11.375 5.37109 10.9273 5.37109 10.375V8.75L5.37988 8.61719C5.42073 8.31242 5.60052 8.04 5.87109 7.88379L7.27832 7.07129ZM15.3555 7.4375C15.6315 6.95931 16.2434 6.79541 16.7217 7.07129L18.1289 7.88379C18.4383 8.0624 18.6289 8.39279 18.6289 8.75V10.375C18.6289 10.9273 18.1812 11.375 17.6289 11.375C17.0768 11.3748 16.6289 10.9272 16.6289 10.375V9.32715L15.7217 8.80371C15.2436 8.52752 15.0794 7.9157 15.3555 7.4375Z" fill="#9E9E9E"/>
</g>
</svg>
