<svg width="24" height="24" viewBox="0 0 24 24" fill="none" xmlns="http://www.w3.org/2000/svg">
<g id="icons/Abstract/cube">
<path id="Union" d="M11.6133 1.07812C11.9015 0.957171 12.2329 0.976704 12.5068 1.1377L21.0068 6.1377C21.0081 6.13843 21.0095 6.13891 21.0107 6.13965C21.0766 6.17867 21.1371 6.22697 21.1934 6.28125C21.2056 6.29312 21.2179 6.30494 21.2295 6.31738C21.2458 6.33486 21.2612 6.35325 21.2764 6.37207C21.2841 6.38161 21.2925 6.39058 21.2998 6.40039C21.3219 6.42992 21.3432 6.46064 21.3623 6.49316C21.363 6.49442 21.3635 6.49582 21.3643 6.49707C21.3707 6.50815 21.3758 6.51993 21.3818 6.53125C21.3945 6.55513 21.4064 6.57908 21.417 6.60352C21.4215 6.61384 21.4256 6.62428 21.4297 6.63477C21.4754 6.75077 21.4981 6.87119 21.499 6.99121C21.499 6.99411 21.5 6.9971 21.5 7V17C21.5 17.3543 21.3122 17.6827 21.0068 17.8623L12.5068 22.8623C12.5016 22.8654 12.4955 22.8671 12.4902 22.8701C12.4649 22.8844 12.4388 22.8971 12.4121 22.9092C12.3943 22.9172 12.3765 22.9247 12.3584 22.9316C12.3312 22.9421 12.3037 22.9519 12.2754 22.96C12.2625 22.9637 12.2494 22.9665 12.2363 22.9697C12.2068 22.9769 12.177 22.9828 12.1465 22.9873C12.139 22.9884 12.1316 22.9903 12.124 22.9912C12.0833 22.9962 12.042 23 12 23L11.8975 22.9951C11.8899 22.9943 11.8825 22.9921 11.875 22.9912C11.8675 22.9903 11.8601 22.9884 11.8525 22.9873C11.8221 22.9828 11.7922 22.9769 11.7627 22.9697C11.7497 22.9665 11.7366 22.9637 11.7236 22.96C11.6953 22.9518 11.6678 22.9421 11.6406 22.9316C11.6225 22.9247 11.6047 22.9172 11.5869 22.9092C11.5603 22.8971 11.5341 22.8844 11.5088 22.8701C11.5037 22.8673 11.4982 22.8653 11.4932 22.8623L2.99316 17.8623C2.68775 17.6827 2.50004 17.3543 2.5 17V6.96484C2.50376 6.85362 2.52707 6.74218 2.56934 6.63477C2.57345 6.62429 2.57758 6.61384 2.58203 6.60352C2.59261 6.5791 2.6045 6.55511 2.61719 6.53125C2.62319 6.51994 2.62833 6.50814 2.63477 6.49707C2.63558 6.49567 2.63688 6.49456 2.6377 6.49316C2.65673 6.46081 2.67725 6.42978 2.69922 6.40039C2.70655 6.39058 2.71496 6.38161 2.72266 6.37207C2.73783 6.35325 2.75322 6.33486 2.76953 6.31738C2.78114 6.30494 2.79339 6.29312 2.80566 6.28125C2.86183 6.22696 2.92247 6.1787 2.98828 6.13965C2.98977 6.13876 2.99167 6.13857 2.99316 6.1377L11.4932 1.1377L11.6133 1.07812ZM9 19.0742L11 20.25V17.5713L9 16.3945V19.0742ZM13 17.5713V20.25L15 19.0742V16.3955L13 17.5713ZM4.5 16.4277L7 17.8975V15.2178L4.5 13.748V16.4277ZM17 15.2188V17.8975L19.5 16.4277V13.748L17 15.2188ZM9 14.0742L11 15.251V12.5713L9 11.3945V14.0742ZM13 12.5713V15.251L15 14.0742V11.3945L13 12.5713ZM4.5 11.4277L7 12.8975V10.2178L4.5 8.74805V11.4277ZM17 10.2178V12.8975L19.5 11.4277V8.74805L17 10.2178ZM9.80664 9.54883L11.999 10.8389L14.1904 9.54785L11.998 8.17773L9.80664 9.54883ZM5.47168 6.99902L7.86328 8.40625L10.1123 6.99902L7.8623 5.59277L5.47168 6.99902ZM13.8848 6.99902L16.1348 8.40527L18.5273 6.99902L16.1357 5.59277L13.8848 6.99902ZM9.80664 4.4502L11.999 5.82031L14.1924 4.4502L12 3.16016L9.80664 4.4502Z" fill="#9E9E9E"/>
</g>
</svg>
