<svg width="24" height="24" viewBox="0 0 24 24" fill="none" xmlns="http://www.w3.org/2000/svg">
<g id="icons/Abstract/cube-two">
<path id="Union" d="M12.0352 1.00098C12.0498 1.00148 12.0645 1.00178 12.0791 1.00293C12.1071 1.00512 12.1348 1.00921 12.1621 1.01367C12.1699 1.01495 12.1778 1.01611 12.1855 1.01758C12.2941 1.03796 12.3961 1.07647 12.4893 1.12891C12.495 1.13211 12.5012 1.13437 12.5068 1.1377L21.0068 6.1377C21.0081 6.13843 21.0095 6.13891 21.0107 6.13965C21.0792 6.18016 21.1422 6.23017 21.2002 6.28711C21.2079 6.29471 21.2152 6.30271 21.2227 6.31055C21.2747 6.36512 21.3224 6.42539 21.3623 6.49316C21.363 6.49442 21.3635 6.49582 21.3643 6.49707C21.3707 6.50815 21.3758 6.51993 21.3818 6.53125C21.3945 6.55513 21.4064 6.57908 21.417 6.60352C21.4215 6.61384 21.4256 6.62428 21.4297 6.63477C21.4754 6.75076 21.4981 6.8712 21.499 6.99121C21.499 6.99414 21.5 6.99707 21.5 7V17C21.5 17.0026 21.499 17.0052 21.499 17.0078C21.4982 17.1279 21.4753 17.2482 21.4297 17.3643C21.4256 17.3747 21.4214 17.3852 21.417 17.3955C21.4064 17.42 21.3945 17.4439 21.3818 17.4678C21.3758 17.4791 21.3707 17.4909 21.3643 17.502C21.3634 17.5035 21.3632 17.5053 21.3623 17.5068C21.3226 17.5744 21.2745 17.634 21.2227 17.6885C21.2152 17.6963 21.2079 17.7043 21.2002 17.7119C21.1422 17.7689 21.0792 17.8188 21.0107 17.8594C21.0094 17.8602 21.0082 17.8615 21.0068 17.8623L12.5068 22.8623C12.5016 22.8654 12.4955 22.8671 12.4902 22.8701C12.423 22.9081 12.3512 22.9383 12.2754 22.96C12.2624 22.9637 12.2494 22.9665 12.2363 22.9697C12.2068 22.9769 12.177 22.9828 12.1465 22.9873C12.139 22.9884 12.1316 22.9903 12.124 22.9912C12.0833 22.9963 12.042 23 12 23C11.9576 23 11.916 22.9963 11.875 22.9912C11.8675 22.9903 11.8601 22.9884 11.8525 22.9873C11.8221 22.9828 11.7922 22.9769 11.7627 22.9697C11.7497 22.9665 11.7366 22.9637 11.7236 22.96C11.6479 22.9382 11.576 22.9081 11.5088 22.8701C11.5037 22.8673 11.4982 22.8653 11.4932 22.8623L2.99316 17.8623L2.9834 17.8564C2.91687 17.8164 2.85533 17.7676 2.79883 17.7119C2.79111 17.7043 2.78382 17.6963 2.77637 17.6885C2.72473 17.6341 2.67732 17.5742 2.6377 17.5068L2.63184 17.4971C2.62642 17.4876 2.6223 17.4774 2.61719 17.4678C2.60451 17.4439 2.59259 17.4199 2.58203 17.3955C2.57758 17.3852 2.57344 17.3747 2.56934 17.3643C2.52727 17.2571 2.50377 17.1461 2.5 17.0352V6.96484C2.50378 6.85362 2.52706 6.74217 2.56934 6.63477C2.57345 6.62429 2.57757 6.61383 2.58203 6.60352C2.59261 6.5791 2.6045 6.55511 2.61719 6.53125C2.62319 6.51994 2.62833 6.50814 2.63477 6.49707C2.63558 6.49567 2.63688 6.49456 2.6377 6.49316C2.67744 6.42559 2.72453 6.365 2.77637 6.31055C2.78382 6.30271 2.79111 6.29471 2.79883 6.28711C2.8567 6.23016 2.91995 6.18019 2.98828 6.13965C2.98977 6.13876 2.99167 6.13857 2.99316 6.1377L11.4932 1.1377L11.5078 1.12988C11.5739 1.09242 11.6444 1.06179 11.7188 1.04004C11.7255 1.03806 11.7325 1.03699 11.7393 1.03516C11.7662 1.02789 11.7935 1.02162 11.8213 1.0166C11.8327 1.01453 11.844 1.01242 11.8555 1.01074C11.8793 1.00729 11.9034 1.00467 11.9277 1.00293C11.9433 1.00179 11.959 1.00139 11.9746 1.00098C11.9831 1.00077 11.9915 1 12 1C12.0118 1 12.0235 1.00057 12.0352 1.00098ZM5.47266 16.999L8.25684 18.6377L11 20.25V13.7471L5.47266 16.999ZM13 20.25L15.7432 18.6377L18.5264 16.999L13 13.748V20.25ZM13.9717 11.999L19.5 15.251V8.74805L13.9717 11.999ZM4.5 15.251L10.0264 11.999L4.5 8.74805V15.251ZM8.25684 5.3623L5.47168 6.99902L11 10.251V3.74805L8.25684 5.3623ZM13 10.25L18.5273 6.99902L15.7432 5.3623L13 3.74805V10.25Z" fill="#9E9E9E"/>
</g>
</svg>
