<svg width="24" height="24" viewBox="0 0 24 24" fill="none" xmlns="http://www.w3.org/2000/svg">
<g id="icons/Abstract/cube-five">
<path id="Union" d="M12.0352 1.00098C12.0498 1.00149 12.0645 1.00177 12.0791 1.00293C12.1018 1.00471 12.1242 1.00844 12.1465 1.01172C12.1615 1.01394 12.1765 1.01565 12.1914 1.01855C12.2125 1.02265 12.2333 1.0278 12.2539 1.0332C12.2666 1.03653 12.2794 1.03914 12.292 1.04297C12.3603 1.06379 12.4251 1.09275 12.4863 1.12695C12.4908 1.12943 12.4956 1.13124 12.5 1.13379L21.1602 6.13379C21.4696 6.31242 21.6602 6.64273 21.6602 7V17C21.6602 17.3573 21.4696 17.6876 21.1602 17.8662L12.5244 22.8516C12.4838 22.8766 12.4404 22.8977 12.3955 22.917C12.3851 22.9215 12.3747 22.9256 12.3643 22.9297C12.3537 22.9338 12.3438 22.9396 12.333 22.9434C12.3192 22.9482 12.3048 22.9509 12.291 22.9551C12.2748 22.96 12.2587 22.9656 12.2422 22.9697C12.2299 22.9728 12.2174 22.9749 12.2051 22.9775C12.1847 22.9818 12.1642 22.9853 12.1436 22.9883C12.1422 22.9885 12.141 22.9891 12.1396 22.9893C12.137 22.9896 12.1345 22.9909 12.1318 22.9912C12.1237 22.9923 12.1155 22.9923 12.1074 22.9932C12.087 22.9954 12.0666 22.9981 12.0459 22.999C12.0342 22.9996 12.0224 22.9989 12.0107 22.999C12.0032 22.9991 11.9958 22.9991 11.9883 22.999C11.9766 22.9989 11.9649 22.9996 11.9531 22.999C11.9318 22.998 11.9107 22.9955 11.8896 22.9932C11.8822 22.9923 11.8746 22.9922 11.8672 22.9912C11.8636 22.9907 11.86 22.9898 11.8564 22.9893C11.8354 22.9862 11.8147 22.9819 11.7939 22.9775C11.7816 22.9749 11.7691 22.9728 11.7568 22.9697C11.7403 22.9656 11.7243 22.9601 11.708 22.9551C11.6945 22.9509 11.6805 22.9481 11.667 22.9434C11.6559 22.9395 11.6456 22.9339 11.6348 22.9297C11.6243 22.9256 11.6139 22.9215 11.6035 22.917C11.5586 22.8976 11.5152 22.8766 11.4746 22.8516L2.83984 17.8662C2.53044 17.6876 2.33984 17.3573 2.33984 17V7L2.34863 6.86719C2.38943 6.56236 2.56922 6.29003 2.83984 6.13379L11.5 1.13379L11.5117 1.12695C11.5777 1.08995 11.6485 1.06043 11.7227 1.03906C11.7298 1.037 11.737 1.0351 11.7441 1.0332C11.7682 1.02685 11.7926 1.02117 11.8174 1.0166C11.8332 1.01366 11.8493 1.01193 11.8652 1.00977C11.8856 1.00702 11.906 1.00443 11.9268 1.00293C11.9427 1.00176 11.9586 1.00138 11.9746 1.00098C11.9831 1.00077 11.9915 1 12 1C12.0118 1 12.0235 1.00057 12.0352 1.00098ZM5.35156 17.0059L10.1553 19.7793L8.47461 15.0186L5.35156 17.0059ZM13.8438 19.7793L18.6475 17.0059L15.5244 15.0186L13.8438 19.7793ZM12 18.9941L13.5859 14.5H10.4141L12 18.9941ZM4.33984 15.2793L7.49609 13.2705L4.33984 9.54004V15.2793ZM16.5029 13.2705L19.6602 15.2793V9.54004L16.5029 13.2705ZM10.7666 12.5H13.2334L11.999 10.4434L10.7666 12.5ZM8.86035 11.7871L10.3945 9.23047L6.04883 8.46387L8.86035 11.7871ZM13.6045 9.23145L15.1387 11.7871L17.9502 8.46484L13.6045 9.23145ZM6.25488 6.4707L11 7.30762V3.73145L6.25488 6.4707ZM13 7.30762L17.7441 6.4707L13 3.73145V7.30762Z" fill="#9E9E9E"/>
</g>
</svg>
