<svg width="24" height="24" viewBox="0 0 24 24" fill="none" xmlns="http://www.w3.org/2000/svg">
<g id="icons/Abstract/cube-three">
<path id="Union" d="M12.0352 1.00098C12.0498 1.00148 12.0645 1.00178 12.0791 1.00293C12.1071 1.00512 12.1348 1.00921 12.1621 1.01367C12.1699 1.01495 12.1778 1.01611 12.1855 1.01758C12.2941 1.03796 12.3961 1.07647 12.4893 1.12891C12.495 1.13211 12.5012 1.13437 12.5068 1.1377L21.0068 6.1377C21.016 6.14306 21.0243 6.14964 21.0332 6.15527C21.0565 6.16997 21.0794 6.18544 21.1016 6.20215C21.1088 6.20761 21.116 6.21311 21.123 6.21875C21.2092 6.28744 21.2859 6.371 21.3477 6.46973C21.3506 6.47442 21.3526 6.47965 21.3555 6.48438C21.3653 6.50062 21.374 6.5174 21.3828 6.53418C21.3929 6.55325 21.4024 6.57235 21.4111 6.5918C21.4171 6.60511 21.4233 6.61826 21.4287 6.63184C21.4404 6.66116 21.4503 6.69081 21.459 6.7207C21.4615 6.7292 21.4645 6.73752 21.4668 6.74609C21.4764 6.7826 21.4829 6.81949 21.4883 6.85645C21.4898 6.86715 21.491 6.87788 21.4922 6.88867C21.4955 6.91799 21.4974 6.94723 21.498 6.97656C21.4982 6.98437 21.5 6.99216 21.5 7V17C21.5 17.0026 21.499 17.0052 21.499 17.0078C21.4982 17.1279 21.4753 17.2482 21.4297 17.3643C21.4256 17.3747 21.4214 17.3852 21.417 17.3955C21.4064 17.42 21.3945 17.4439 21.3818 17.4678C21.3758 17.4791 21.3707 17.4909 21.3643 17.502C21.3634 17.5035 21.3632 17.5053 21.3623 17.5068C21.3226 17.5744 21.2745 17.634 21.2227 17.6885C21.2152 17.6963 21.2079 17.7043 21.2002 17.7119C21.1422 17.7689 21.0792 17.8188 21.0107 17.8594C21.0094 17.8602 21.0082 17.8615 21.0068 17.8623L12.5068 22.8623C12.5016 22.8654 12.4955 22.8671 12.4902 22.8701C12.423 22.9081 12.3512 22.9383 12.2754 22.96C12.2624 22.9637 12.2494 22.9665 12.2363 22.9697C12.2068 22.9769 12.177 22.9828 12.1465 22.9873C12.139 22.9884 12.1316 22.9903 12.124 22.9912C12.0833 22.9963 12.042 23 12 23C11.9576 23 11.916 22.9963 11.875 22.9912C11.8675 22.9903 11.8601 22.9884 11.8525 22.9873C11.8221 22.9828 11.7922 22.9769 11.7627 22.9697C11.7497 22.9665 11.7366 22.9637 11.7236 22.96C11.6479 22.9382 11.576 22.9081 11.5088 22.8701C11.5037 22.8673 11.4982 22.8653 11.4932 22.8623L2.99316 17.8623L2.9834 17.8564C2.91687 17.8164 2.85533 17.7676 2.79883 17.7119C2.79111 17.7043 2.78382 17.6963 2.77637 17.6885C2.72473 17.6341 2.67732 17.5742 2.6377 17.5068L2.63184 17.4971C2.62642 17.4876 2.6223 17.4774 2.61719 17.4678C2.60451 17.4439 2.59259 17.4199 2.58203 17.3955C2.57758 17.3852 2.57344 17.3747 2.56934 17.3643C2.52727 17.2571 2.50377 17.1461 2.5 17.0352V7C2.5 6.99217 2.50079 6.98437 2.50098 6.97656C2.50164 6.94725 2.50358 6.91796 2.50684 6.88867C2.50804 6.8779 2.50919 6.86714 2.51074 6.85645C2.51609 6.81945 2.5236 6.78265 2.5332 6.74609C2.53543 6.73761 2.53759 6.72912 2.54004 6.7207C2.54874 6.69083 2.55868 6.66114 2.57031 6.63184C2.57569 6.61827 2.58194 6.6051 2.58789 6.5918C2.59661 6.57237 2.60615 6.55324 2.61621 6.53418C2.62505 6.51741 2.63378 6.50062 2.64355 6.48438C2.64649 6.47951 2.64932 6.47457 2.65234 6.46973C2.71396 6.37123 2.79006 6.28735 2.87598 6.21875C2.88304 6.2131 2.89023 6.20761 2.89746 6.20215C2.91961 6.18543 2.94251 6.16998 2.96582 6.15527C2.97496 6.14949 2.9838 6.1432 2.99316 6.1377L11.4932 1.1377L11.5078 1.12988C11.5739 1.09242 11.6444 1.06179 11.7188 1.04004C11.7255 1.03806 11.7325 1.03699 11.7393 1.03516C11.7662 1.02789 11.7935 1.02162 11.8213 1.0166C11.8327 1.01453 11.844 1.01242 11.8555 1.01074C11.8793 1.00729 11.9034 1.00467 11.9277 1.00293C11.9433 1.00179 11.959 1.00139 11.9746 1.00098C11.9831 1.00077 11.9915 1 12 1C12.0118 1 12.0235 1.00057 12.0352 1.00098ZM5.47266 16.999L8.25684 18.6377L11 20.25V17C11 16.4477 11.4477 16 12 16C12.5523 16 13 16.4477 13 17V20.25L15.7432 18.6377L18.5264 16.999L12 13.1602L5.47266 16.999ZM8.25684 5.3623L5.42773 7.02539L8.03027 8.65234C8.49833 8.94514 8.64029 9.56205 8.34766 10.0303C8.05486 10.4983 7.43795 10.6403 6.96973 10.3477L4.5 8.80371V15.251L11 11.4277V3.74805L8.25684 5.3623ZM13 11.4277L19.5 15.251V8.80371L17.0303 10.3477C16.5621 10.6403 15.9451 10.4983 15.6523 10.0303C15.3597 9.56205 15.5017 8.94514 15.9697 8.65234L18.5713 7.02539L15.7432 5.3623L13 3.74805V11.4277Z" fill="#9E9E9E"/>
</g>
</svg>
