<svg width="24" height="24" viewBox="0 0 24 24" fill="none" xmlns="http://www.w3.org/2000/svg">
<g id="icons/Abstract/cycle-one">
<path id="Union" d="M10 13C10.5523 13 11 13.4477 11 14V16C11 19.3137 8.31368 22 5 22H3C2.44772 22 2 21.5523 2 21V14C2 13.4477 2.44772 13 3 13H10ZM20 14C20.5523 14 21 14.4477 21 15C21 17.1541 20.4607 18.9534 19.207 20.207C17.9534 21.4607 16.1541 22 14 22C13.4477 22 13 21.5523 13 21C13 20.4477 13.4477 20 14 20C15.8459 20 17.0466 19.5393 17.793 18.793C18.5393 18.0466 19 16.8459 19 15C19 14.4477 19.4477 14 20 14ZM4 20H5C7.20912 20 9 18.2091 9 16V15H4V20ZM21 3C21.5523 3 22 3.44772 22 4V11C22 11.5523 21.5523 12 21 12H14C13.4477 12 13 11.5523 13 11V9C13 5.68632 15.6863 3 19 3H21ZM9 3C9.55228 3 10 3.44772 10 4C10 4.55228 9.55228 5 9 5C7.15414 5 5.95335 5.46071 5.20703 6.20703C4.46071 6.95335 4 8.15414 4 10C4 10.5523 3.55228 11 3 11C2.44772 11 2 10.5523 2 10C2 7.84586 2.53929 6.04665 3.79297 4.79297C5.04665 3.53929 6.84586 3 9 3ZM19 5C16.7909 5 15 6.79088 15 9V10H20V5H19Z" fill="#9E9E9E"/>
</g>
</svg>
