<svg width="24" height="24" viewBox="0 0 24 24" fill="none" xmlns="http://www.w3.org/2000/svg">
<g id="icons/Abstract/cycle-arrow">
<path id="Union" d="M5.79297 5.29297C6.18349 4.90244 6.81651 4.90244 7.20703 5.29297L9.20703 7.29297C9.25484 7.34078 9.29758 7.39354 9.33496 7.4502C9.3597 7.48768 9.38123 7.52661 9.40039 7.56641C9.42219 7.61159 9.44117 7.65838 9.45605 7.70703C9.46225 7.72732 9.4668 7.74798 9.47168 7.76855C9.48932 7.84291 9.5 7.92025 9.5 8C9.49999 8.083 9.48781 8.16312 9.46875 8.24023C9.46457 8.25717 9.46114 8.27428 9.45605 8.29102C9.44159 8.3386 9.42343 8.38442 9.40234 8.42871C9.38188 8.47176 9.35802 8.51335 9.33105 8.55371C9.31847 8.57256 9.30482 8.59048 9.29102 8.6084C9.26494 8.6422 9.23802 8.67604 9.20703 8.70703L7.20703 10.707C6.81652 11.0975 6.18348 11.0975 5.79297 10.707C5.40246 10.3165 5.40248 9.6835 5.79297 9.29297L6.05664 9.02832C4.333 9.24624 3 10.7172 3 12.5C3.00004 14.433 4.56703 16 6.5 16C7.46305 16 8.3339 15.6125 8.96777 14.9824C9.30127 14.6509 9.83299 13.9302 10.3203 13.2227C10.5543 12.883 10.7639 12.5668 10.915 12.3359C10.9904 12.2208 11.0512 12.1271 11.0928 12.0625C11.1135 12.0303 11.129 12.005 11.1396 11.9883C11.1449 11.98 11.1497 11.9738 11.1523 11.9697C11.1535 11.9679 11.1547 11.9667 11.1553 11.9658V11.9639H11.1562V11.9629L11.1572 11.9619C11.1581 11.9606 11.1596 11.9584 11.1611 11.9561C11.1643 11.9512 11.1689 11.9437 11.1748 11.9346C11.1866 11.9162 11.2037 11.8895 11.2256 11.8555C11.2695 11.7873 11.3328 11.689 11.4111 11.5693C11.5676 11.3304 11.7853 11.0028 12.0293 10.6484C12.4988 9.96662 13.1271 9.0952 13.6084 8.61328C14.6028 7.61761 15.9803 7 17.5 7C20.5376 7 23 9.46242 23 12.5C23 15.4038 20.7494 17.7797 17.8975 17.9834L18.207 18.293C18.5975 18.6835 18.5975 19.3165 18.207 19.707C17.8165 20.0975 17.1835 20.0975 16.793 19.707L14.793 17.707C14.7494 17.6635 14.7116 17.6163 14.6777 17.5674C14.6745 17.5628 14.6711 17.5584 14.668 17.5537C14.642 17.5147 14.6196 17.4741 14.5996 17.4326C14.5777 17.387 14.5579 17.3401 14.543 17.291C14.5379 17.2743 14.5345 17.2572 14.5303 17.2402C14.5112 17.1632 14.5 17.0829 14.5 17C14.5 16.9115 14.5126 16.8259 14.5342 16.7441C14.5374 16.7319 14.5393 16.7192 14.543 16.707C14.5579 16.6583 14.5778 16.6117 14.5996 16.5664C14.6188 16.5266 14.6403 16.4877 14.665 16.4502C14.7024 16.3935 14.7452 16.3408 14.793 16.293L16.793 14.293C17.1835 13.9024 17.8165 13.9024 18.207 14.293C18.5975 14.6835 18.5975 15.3165 18.207 15.707L17.9424 15.9707C19.6664 15.7532 21 14.2831 21 12.5C21 10.567 19.433 9 17.5 9C16.5325 9 15.658 9.39102 15.0234 10.0264C14.6916 10.3586 14.1619 11.0777 13.6768 11.7822C13.4436 12.1208 13.2346 12.436 13.084 12.666C13.0089 12.7807 12.9486 12.8742 12.9072 12.9385C12.8866 12.9706 12.87 12.9951 12.8594 13.0117C12.8542 13.0199 12.8503 13.0262 12.8477 13.0303C12.8464 13.0323 12.8453 13.0342 12.8447 13.0352H12.8438V13.0361L12.8428 13.0381C12.8419 13.0394 12.8404 13.0416 12.8389 13.0439C12.8357 13.0489 12.831 13.0564 12.8252 13.0654C12.8134 13.0839 12.7963 13.1106 12.7744 13.1445C12.7303 13.213 12.6665 13.3115 12.5879 13.4316C12.4308 13.6717 12.213 14.0014 11.9678 14.3574C11.4964 15.0417 10.8642 15.9169 10.3779 16.4004C9.38462 17.3879 8.01268 18 6.5 18C3.46246 18 1.00004 15.5376 1 12.5C1 9.59644 3.25005 7.21982 6.10156 7.01562L5.79297 6.70703C5.40246 6.31652 5.40248 5.6835 5.79297 5.29297Z" fill="#9E9E9E"/>
</g>
</svg>
