<svg width="24" height="24" viewBox="0 0 24 24" fill="none" xmlns="http://www.w3.org/2000/svg">
<g id="icons/Abstract/cylinder">
<path id="Union" d="M12 1C14.8307 1 17.432 1.34299 19.3584 1.9209C20.3152 2.20794 21.1627 2.56956 21.793 3.0166C22.3972 3.44523 23 4.10107 23 5V19C23 19.8989 22.3972 20.5548 21.793 20.9834C21.1627 21.4304 20.3152 21.7921 19.3584 22.0791C17.432 22.657 14.8307 23 12 23C9.1693 23 6.56798 22.657 4.6416 22.0791C3.68478 21.7921 2.83731 21.4304 2.20703 20.9834C1.60279 20.5548 1 19.8989 1 19V5C1 4.10107 1.60279 3.44523 2.20703 3.0166C2.83731 2.56956 3.68478 2.20794 4.6416 1.9209C6.56798 1.34299 9.1693 1 12 1ZM12 17C9.30786 17 6.90873 17.329 5.21582 17.8369C4.36338 18.0927 3.74596 18.3768 3.36426 18.6475C3.10316 18.8327 3.0288 18.9552 3.00781 19C3.0288 19.0448 3.10316 19.1673 3.36426 19.3525C3.74596 19.6232 4.36338 19.9073 5.21582 20.1631C6.90873 20.671 9.30786 21 12 21C14.6921 21 17.0913 20.671 18.7842 20.1631C19.6366 19.9073 20.254 19.6232 20.6357 19.3525C20.8961 19.1679 20.97 19.0451 20.9912 19C20.97 18.9549 20.8961 18.8321 20.6357 18.6475C20.254 18.3768 19.6366 18.0927 18.7842 17.8369C17.0913 17.329 14.6921 17 12 17ZM21 7.44922C20.5132 7.69001 19.9573 7.89942 19.3584 8.0791C17.432 8.65701 14.8307 9 12 9C9.1693 9 6.56798 8.65701 4.6416 8.0791C4.04265 7.89942 3.4868 7.69001 3 7.44922V16.5498C3.48671 16.3091 4.04281 16.1005 4.6416 15.9209C6.56798 15.343 9.1693 15 12 15C14.8307 15 17.432 15.343 19.3584 15.9209C19.9572 16.1005 20.5133 16.3091 21 16.5498V7.44922ZM12 3C9.30786 3 6.90873 3.32904 5.21582 3.83691C4.36337 4.09269 3.74596 4.37676 3.36426 4.64746C3.10316 4.83265 3.02879 4.95522 3.00781 5C3.0288 5.04478 3.10316 5.16735 3.36426 5.35254C3.74596 5.62324 4.36338 5.90731 5.21582 6.16309C6.90873 6.67096 9.30786 7 12 7C14.6921 7 17.0913 6.67096 18.7842 6.16309C19.6366 5.90731 20.254 5.62324 20.6357 5.35254C20.8961 5.16787 20.97 5.04509 20.9912 5C20.97 4.95491 20.8961 4.83213 20.6357 4.64746C20.254 4.37676 19.6366 4.09269 18.7842 3.83691C17.0913 3.32904 14.6921 3 12 3Z" fill="#9E9E9E"/>
</g>
</svg>
