<svg width="24" height="24" viewBox="0 0 24 24" fill="none" xmlns="http://www.w3.org/2000/svg">
<g id="icons/Abstract/display">
<path id="Union" d="M20 2C21.1046 2 22 2.89543 22 4V12C22 13.1046 21.1046 14 20 14H13V18H17.333C17.6186 18 17.8913 18.1224 18.0811 18.3359L20.7471 21.3359C21.114 21.7487 21.0768 22.3802 20.6641 22.7471C20.2513 23.114 19.6198 23.0768 19.2529 22.6641L16.8848 20H13V22C13 22.5523 12.5523 23 12 23C11.4477 23 11 22.5523 11 22V20H6.91992L4.77539 22.6318C4.42652 23.06 3.79631 23.1242 3.36816 22.7754C2.94003 22.4265 2.87575 21.7963 3.22461 21.3682L5.66895 18.3682L5.74512 18.2852C5.93087 18.1034 6.18151 18 6.44434 18H11V14H4C2.89543 14 2 13.1046 2 12V4C2 2.89543 2.89543 2 4 2H20ZM4 12H20V4H4V12ZM17 8.5C17.5523 8.5 18 8.94772 18 9.5C18 10.0523 17.5523 10.5 17 10.5H7C6.44772 10.5 6 10.0523 6 9.5C6 8.94772 6.44772 8.5 7 8.5H17ZM11 5.5C11.5523 5.5 12 5.94772 12 6.5C12 7.05228 11.5523 7.5 11 7.5H7C6.44772 7.5 6 7.05228 6 6.5C6 5.94772 6.44772 5.5 7 5.5H11Z" fill="#9E9E9E"/>
</g>
</svg>
