<svg width="24" height="24" viewBox="0 0 24 24" fill="none" xmlns="http://www.w3.org/2000/svg">
<g id="icons/Abstract/endless">
<path id="Union" d="M6.06543 2.59961C6.3531 2.46071 6.69316 2.46653 6.97852 2.62207L12.4785 5.62207C12.7997 5.79731 13 6.13408 13 6.5V16.4336L17 18.833L21 16.4336V12.5352L17.5332 10.2236L16.0996 11.2998C15.6578 11.6309 15.0315 11.5413 14.7002 11.0996C14.369 10.6578 14.4587 10.0315 14.9004 9.7002L16.9004 8.2002L17.0322 8.11621C17.3529 7.94635 17.7459 7.96211 18.0547 8.16797L22.5547 11.168C22.8328 11.3534 23 11.6657 23 12V17C22.9999 17.3511 22.8157 17.6767 22.5146 17.8574L17.5146 20.8574C17.198 21.0474 16.802 21.0474 16.4854 20.8574L11.4854 17.8574C11.1843 17.6767 11.0001 17.3511 11 17V7.09277L6.55176 4.66699L3 7.03516V11.4648L6.46582 13.7754L7.90039 12.7002C8.34221 12.369 8.96847 12.4586 9.2998 12.9004C9.63094 13.3422 9.54135 13.9685 9.09961 14.2998L7.09961 15.7998C6.76047 16.054 6.298 16.0671 5.94531 15.832L1.44531 12.832C1.16716 12.6466 1.00006 12.3343 1 12V6.5C1 6.16568 1.16716 5.85344 1.44531 5.66797L5.94531 2.66797L6.06543 2.59961Z" fill="#9E9E9E"/>
</g>
</svg>
