<svg width="24" height="24" viewBox="0 0 24 24" fill="none" xmlns="http://www.w3.org/2000/svg">
<g id="icons/Abstract/error-prompt">
<path id="Union" d="M16.2462 3.34277C16.6092 2.92665 17.2411 2.88325 17.6573 3.24609C20.3236 5.57126 22.0001 8.61435 22.0001 12C22.0001 15.3857 20.3236 18.4287 17.6573 20.7539C17.2411 21.1168 16.6092 21.0734 16.2462 20.6572C15.8834 20.241 15.9267 19.609 16.3429 19.2461C18.6772 17.2104 20.0001 14.6831 20.0001 12C20.0001 9.31686 18.6772 6.78959 16.3429 4.75391C15.9267 4.39096 15.8833 3.75902 16.2462 3.34277ZM12.6915 6.41211C13.0163 5.96556 13.6413 5.86679 14.088 6.19141C16.1206 7.66858 17.5001 9.67587 17.5001 12C17.5001 14.3241 16.1205 16.3314 14.088 17.8086C13.6413 18.1332 13.0162 18.0345 12.6915 17.5879C12.3669 17.1412 12.4656 16.5161 12.9122 16.1914C14.63 14.943 15.5001 13.4688 15.5001 12C15.5001 10.5312 14.63 9.05697 12.9122 7.80859C12.4656 7.48388 12.3669 6.85882 12.6915 6.41211ZM9.29309 8.29297C9.68362 7.90252 10.3167 7.90247 10.7072 8.29297C11.0977 8.68347 11.0976 9.3165 10.7072 9.70703L8.41418 12L10.7072 14.293C11.0977 14.6835 11.0976 15.3165 10.7072 15.707C10.3166 16.0976 9.68362 16.0976 9.29309 15.707L7.00012 13.4141L4.70715 15.707C4.31663 16.0976 3.68362 16.0976 3.29309 15.707C2.90257 15.3165 2.90257 14.6835 3.29309 14.293L5.58606 12L3.29309 9.70703C2.90257 9.31651 2.90257 8.68349 3.29309 8.29297C3.68362 7.90252 4.31665 7.90247 4.70715 8.29297L7.00012 10.5859L9.29309 8.29297Z" fill="#9E9E9E"/>
</g>
</svg>
