<svg width="24" height="24" viewBox="0 0 24 24" fill="none" xmlns="http://www.w3.org/2000/svg">
<g id="icons/Abstract/exclusive-gateway" clip-path="url(#clip0_56_5850)">
<path id="Union" d="M10.6925 1.39355C11.4735 0.612499 12.7396 0.612504 13.5206 1.39355L22.713 10.5859C23.4939 11.367 23.494 12.6331 22.713 13.4141L13.5206 22.6064C12.7397 23.3874 11.4735 23.3873 10.6925 22.6064L1.50012 13.4141C0.71906 12.633 0.719079 11.367 1.50012 10.5859L10.6925 1.39355ZM2.91418 12L12.1066 21.1924L21.299 12L12.1066 2.80762L2.91418 12ZM8.31946 8.30078C8.70998 7.91026 9.343 7.91026 9.73352 8.30078L12.0226 10.5898L14.3156 8.30469C14.7067 7.91479 15.3397 7.91556 15.7296 8.30664C16.1193 8.69772 16.1185 9.33082 15.7277 9.7207L13.4366 12.0039L15.7238 14.291C16.1141 14.6816 16.1142 15.3146 15.7238 15.7051C15.3333 16.0955 14.7002 16.0954 14.3097 15.7051L12.0206 13.416L9.72766 15.7021C9.33667 16.0919 8.70353 16.0909 8.3136 15.7002C7.92369 15.3091 7.92442 14.6751 8.31555 14.2852L10.6056 12.001L8.31946 9.71484C7.92894 9.32432 7.92894 8.69131 8.31946 8.30078Z" fill="#9E9E9E"/>
</g>
<defs>
<clipPath id="clip0_56_5850">
<rect width="24" height="24" fill="white"/>
</clipPath>
</defs>
</svg>
