<svg width="24" height="24" viewBox="0 0 24 24" fill="none" xmlns="http://www.w3.org/2000/svg">
<g id="icons/Abstract/export">
<path id="Union" d="M21 12.5C21.5523 12.5 22 12.9477 22 13.5C21.9999 15.193 21.442 17.4345 19.8887 19.2705C18.3053 21.1417 15.7644 22.5 12 22.5C8.2356 22.5 5.6947 21.1417 4.11133 19.2705C2.55801 17.4345 2.00005 15.193 2 13.5C2 12.9477 2.44772 12.5 3 12.5C3.55228 12.5 4 12.9477 4 13.5C4.00005 14.8068 4.44238 16.5657 5.63867 17.9795C6.80536 19.358 8.7649 20.5 12 20.5C15.2351 20.5 17.1946 19.358 18.3613 17.9795C19.5576 16.5657 19.9999 14.8068 20 13.5C20 12.9477 20.4477 12.5 21 12.5ZM11.3691 1.72461C11.7619 1.40426 12.3409 1.42685 12.707 1.79297L18.707 7.79297C19.0974 8.1835 19.0975 8.81655 18.707 9.20703C18.3165 9.5974 17.6835 9.5974 17.293 9.20703L13.0039 4.91797V16.501C13.0035 17.053 12.556 17.501 12.0039 17.501C11.4518 17.501 11.0043 17.053 11.0039 16.501V4.91016L6.70703 9.20703C6.31654 9.5974 5.68346 9.5974 5.29297 9.20703C4.90248 8.81655 4.90256 8.1835 5.29297 7.79297L11.293 1.79297L11.3691 1.72461Z" fill="#9E9E9E"/>
</g>
</svg>
