<svg width="24" height="24" viewBox="0 0 24 24" fill="none" xmlns="http://www.w3.org/2000/svg">
<g id="icons/Abstract/external-transmission">
<path id="Union" d="M19.5 2C20.8807 2 22 3.1193 22 4.5V7C22 7.55228 21.5523 8 21 8C20.4477 8 20 7.55228 20 7V4.5C20 4.22385 19.7762 4 19.5 4H11.5V13C11.5 14.9816 10.6014 16.8908 9.37695 18.4297C8.92683 18.9953 8.42166 19.5234 7.88281 20H19.5C19.7762 20 20 19.7762 20 19.5V17.75C20 17.1977 20.4477 16.75 21 16.75C21.5523 16.75 22 17.1977 22 17.75V19.5C22 20.8807 20.8807 22 19.5 22H4.5L4.49707 21.999C4.46333 21.9989 4.4298 21.9976 4.39648 21.9941C3.06386 21.9398 2 20.846 2 19.5V4.5C2 3.11929 3.11929 2 4.5 2H19.5ZM4.5 4C4.22386 4 4 4.22386 4 4.5V19.5C4 19.7231 4.14694 19.9092 4.34863 19.9736C5.56446 19.4129 6.83186 18.4157 7.81152 17.1846C8.8575 15.8701 9.5 14.3878 9.5 13V4H4.5ZM17.293 8.79297C17.6835 8.40244 18.3165 8.40244 18.707 8.79297L21.707 11.793C21.7548 11.8408 21.7976 11.8935 21.835 11.9502C21.8597 11.9877 21.8812 12.0266 21.9004 12.0664C21.9222 12.1116 21.9412 12.1584 21.9561 12.207C21.9623 12.2273 21.9668 12.248 21.9717 12.2686C21.9893 12.3429 22 12.4202 22 12.5C22 12.5563 21.9933 12.6112 21.9844 12.665C21.9772 12.7078 21.9688 12.7503 21.9561 12.792C21.9412 12.8407 21.9222 12.8874 21.9004 12.9326C21.8936 12.9468 21.8864 12.9607 21.8789 12.9746C21.851 13.0262 21.8184 13.0745 21.7822 13.1201C21.7586 13.1498 21.7345 13.1796 21.707 13.207L18.707 16.207C18.3165 16.5976 17.6835 16.5976 17.293 16.207C16.9024 15.8165 16.9024 15.1835 17.293 14.793L18.5859 13.5H15C14.4477 13.5 14 13.0523 14 12.5C14 11.9477 14.4477 11.5 15 11.5H18.5859L17.293 10.207C16.9024 9.81651 16.9024 9.18349 17.293 8.79297Z" fill="#9E9E9E"/>
</g>
</svg>
