<svg width="24" height="24" viewBox="0 0 24 24" fill="none" xmlns="http://www.w3.org/2000/svg">
<g id="icons/Abstract/figma-component">
<path id="Union" d="M11.3691 13.7246C11.7619 13.4043 12.3409 13.4269 12.707 13.793L16.207 17.293C16.5974 17.6835 16.5975 18.3166 16.207 18.707L12.707 22.207C12.3166 22.5974 11.6835 22.5974 11.293 22.207L7.79297 18.707C7.40247 18.3165 7.40252 17.6835 7.79297 17.293L11.293 13.793L11.3691 13.7246ZM9.91406 18L12 20.0859L14.0859 18L12 15.9141L9.91406 18ZM5.36914 7.72461C5.76191 7.40426 6.34092 7.42685 6.70703 7.79297L10.207 11.293C10.5974 11.6835 10.5975 12.3166 10.207 12.707L6.70703 16.207C6.31655 16.5974 5.68348 16.5974 5.29297 16.207L1.79297 12.707C1.40247 12.3165 1.40252 11.6835 1.79297 11.293L5.29297 7.79297L5.36914 7.72461ZM17.3691 7.72461C17.7619 7.40426 18.3409 7.42685 18.707 7.79297L22.207 11.293C22.5974 11.6835 22.5975 12.3166 22.207 12.707L18.707 16.207C18.3166 16.5974 17.6835 16.5974 17.293 16.207L13.793 12.707C13.4025 12.3165 13.4025 11.6835 13.793 11.293L17.293 7.79297L17.3691 7.72461ZM3.91406 12L6 14.0859L8.08594 12L6 9.91406L3.91406 12ZM15.9141 12L18 14.0859L20.0859 12L18 9.91406L15.9141 12ZM11.3691 1.72461C11.7619 1.40426 12.3409 1.42685 12.707 1.79297L16.207 5.29297C16.5974 5.68351 16.5975 6.31656 16.207 6.70703L12.707 10.207C12.3166 10.5974 11.6835 10.5974 11.293 10.207L7.79297 6.70703C7.40247 6.31653 7.40252 5.6835 7.79297 5.29297L11.293 1.79297L11.3691 1.72461ZM9.91406 6L12 8.08594L14.0859 6L12 3.91406L9.91406 6Z" fill="#9E9E9E"/>
</g>
</svg>
