<svg width="24" height="24" viewBox="0 0 24 24" fill="none" xmlns="http://www.w3.org/2000/svg">
<g id="icons/Abstract/figma-reset-instance">
<path id="Union" d="M11.3692 1.22461C11.762 0.904259 12.341 0.926853 12.7071 1.29297L22.7071 11.293C23.0975 11.6835 23.0976 12.3166 22.7071 12.707C22.3166 13.0974 21.6835 13.0974 21.293 12.707L12.0001 3.41406L3.41412 12L12.0001 20.5859L16.793 15.793C17.1836 15.4024 17.8166 15.4024 18.2071 15.793C18.5975 16.1835 18.5976 16.8166 18.2071 17.207L12.7071 22.707C12.3166 23.0974 11.6835 23.0974 11.293 22.707L1.29303 12.707C0.902532 12.3165 0.902585 11.6835 1.29303 11.293L11.293 1.29297L11.3692 1.22461ZM12.293 9.29297C12.6836 8.90244 13.3166 8.90244 13.7071 9.29297C14.0975 9.68351 14.0976 10.3166 13.7071 10.707L13.3448 11.0684C13.7277 11.0984 14.1404 11.1391 14.5694 11.1963C15.5482 11.3268 16.6357 11.5425 17.6583 11.9004C18.6729 12.2555 19.6863 12.7722 20.4571 13.543C22.1039 15.19 21.9233 17.6136 21.5372 19.2871C21.3338 20.1684 21.0478 20.9572 20.8155 21.5215C20.6988 21.8049 20.5933 22.0354 20.5167 22.1973C20.4783 22.2782 20.4474 22.3427 20.4249 22.3877C20.4137 22.41 20.4041 22.4277 20.3975 22.4404C20.3943 22.4467 20.3917 22.4522 20.3897 22.4561C20.3888 22.4578 20.3884 22.4597 20.3878 22.4609L20.3868 22.4629L20.3858 22.4639C20.1295 22.9529 19.5253 23.1418 19.0362 22.8857C18.5474 22.6297 18.3581 22.0261 18.6133 21.5371L18.6143 21.5361C18.615 21.5349 18.6165 21.5326 18.6182 21.5293C18.6219 21.5221 18.6276 21.5096 18.6358 21.4932C18.6523 21.4601 18.6782 21.4091 18.71 21.3418C18.774 21.2068 18.864 21.0073 18.9659 20.7598C19.171 20.2617 19.4164 19.5813 19.588 18.8379C19.9517 17.2616 19.8957 15.8099 19.043 14.957C18.5639 14.478 17.8581 14.0891 16.9981 13.7881C16.1458 13.4898 15.2017 13.2982 14.3057 13.1787C14.0304 13.142 13.7615 13.1137 13.504 13.0898L13.7071 13.293C14.0975 13.6835 14.0976 14.3166 13.7071 14.707C13.3166 15.0974 12.6835 15.0974 12.293 14.707L10.293 12.707C10.2854 12.6994 10.2789 12.6904 10.2715 12.6826C10.2613 12.6717 10.251 12.6608 10.2413 12.6494C10.2303 12.6367 10.2202 12.6235 10.21 12.6104C10.1986 12.5956 10.1874 12.5808 10.1768 12.5654C10.168 12.5526 10.1596 12.5395 10.1514 12.5264C10.1443 12.5149 10.1366 12.5039 10.1299 12.4922C10.121 12.4764 10.1126 12.4605 10.1046 12.4443C10.0968 12.4287 10.09 12.4126 10.0831 12.3965C10.0801 12.3895 10.0761 12.383 10.0733 12.376L10.0577 12.335C10.0548 12.3269 10.0525 12.3187 10.0499 12.3105C10.0444 12.2938 10.0398 12.2768 10.0352 12.2598C10.0298 12.2395 10.0248 12.219 10.0206 12.1982C10.0189 12.1901 10.0171 12.182 10.0157 12.1738C10.0121 12.1532 10.0092 12.1324 10.0069 12.1113C10.0053 12.0973 10.004 12.0834 10.003 12.0693C10.0023 12.0596 10.0014 12.0499 10.001 12.04C10.0008 12.0339 10.0012 12.0276 10.001 12.0215C10.0006 12.0032 10.0004 11.985 10.001 11.9668C10.0016 11.9494 10.0025 11.9322 10.004 11.915C10.0048 11.9049 10.0057 11.8948 10.0069 11.8848C10.0095 11.8618 10.0125 11.8389 10.0167 11.8164C10.0195 11.801 10.0238 11.7858 10.0274 11.7705C10.0303 11.7581 10.0328 11.7456 10.0362 11.7334C10.0414 11.7147 10.0475 11.6962 10.0538 11.6777C10.0588 11.663 10.0637 11.6482 10.0694 11.6338C10.0756 11.6179 10.0828 11.6025 10.0899 11.5869C10.0955 11.5746 10.1004 11.5619 10.1065 11.5498C10.1162 11.5305 10.1277 11.512 10.1387 11.4932C10.1448 11.483 10.1509 11.4729 10.1573 11.4629C10.1656 11.4498 10.1737 11.4366 10.1827 11.4238C10.1942 11.4075 10.2063 11.3916 10.2188 11.376C10.2243 11.3691 10.2297 11.3622 10.2354 11.3555C10.2503 11.3378 10.2663 11.3212 10.2823 11.3047C10.286 11.3009 10.2893 11.2967 10.293 11.293L12.293 9.29297Z" fill="#9E9E9E"/>
</g>
</svg>
