<svg width="24" height="24" viewBox="0 0 24 24" fill="none" xmlns="http://www.w3.org/2000/svg">
<g id="icons/Abstract/five-ellipses">
<path id="Union" d="M12 1C12.8989 1 13.5548 1.60279 13.9834 2.20703C14.4304 2.83731 14.7921 3.68478 15.0791 4.6416C15.0815 4.64969 15.0835 4.65791 15.0859 4.66602C15.1713 4.46927 15.2622 4.28613 15.3604 4.12012C15.6302 3.66353 16.152 3 17 3C17.848 3 18.3698 3.66353 18.6396 4.12012C18.949 4.64361 19.1933 5.33453 19.3848 6.10059C19.5069 6.58904 19.6099 7.13151 19.6982 7.71582C19.9252 7.58723 20.1928 7.5 20.5 7.5C21.0958 7.5 21.5436 7.82599 21.832 8.15137C22.1214 8.47785 22.3368 8.8929 22.4971 9.32031C22.8205 10.1828 23 11.3073 23 12.5C23 13.6927 22.8205 14.8172 22.4971 15.6797C22.3368 16.1071 22.1214 16.5222 21.832 16.8486C21.5436 17.174 21.0958 17.5 20.5 17.5C20.1193 17.5 19.7999 17.3656 19.543 17.1846C19.4933 17.4336 19.4415 17.6724 19.3848 17.8994C19.1933 18.6655 18.949 19.3564 18.6396 19.8799C18.3698 20.3365 17.848 21 17 21C16.152 21 15.6302 20.3365 15.3604 19.8799C15.2621 19.7136 15.1714 19.5301 15.0859 19.333C15.0834 19.3414 15.0816 19.35 15.0791 19.3584C14.7921 20.3152 14.4304 21.1627 13.9834 21.793C13.5548 22.3972 12.8989 23 12 23C11.1011 23 10.4452 22.3972 10.0166 21.793C9.56956 21.1627 9.20794 20.3152 8.9209 19.3584C8.91836 19.3499 8.91562 19.3415 8.91309 19.333C8.82762 19.5299 8.73783 19.7137 8.63965 19.8799C8.36977 20.3365 7.84797 21 7 21C6.15203 21 5.63023 20.3365 5.36035 19.8799C5.051 19.3564 4.80675 18.6655 4.61523 17.8994C4.55847 17.6724 4.50577 17.4336 4.45605 17.1846C4.19927 17.3654 3.88041 17.5 3.5 17.5C2.90422 17.5 2.45644 17.174 2.16797 16.8486C1.87857 16.5222 1.66322 16.1071 1.50293 15.6797C1.17951 14.8172 1 13.6927 1 12.5C1 11.3073 1.17951 10.1828 1.50293 9.32031C1.66322 8.8929 1.87857 8.47785 2.16797 8.15137C2.45644 7.826 2.90422 7.5 3.5 7.5C3.8069 7.5 4.07397 7.58746 4.30078 7.71582C4.38911 7.13146 4.49311 6.58908 4.61523 6.10059C4.80675 5.33453 5.051 4.64361 5.36035 4.12012C5.63023 3.66353 6.15203 3 7 3C7.84797 3 8.36977 3.66353 8.63965 4.12012C8.73769 4.28603 8.82773 4.4694 8.91309 4.66602C8.91553 4.65782 8.91845 4.64977 8.9209 4.6416C9.20794 3.68478 9.56956 2.83731 10.0166 2.20703C10.4452 1.60279 11.1011 1 12 1ZM12 3.00781C11.9552 3.0288 11.8327 3.10316 11.6475 3.36426C11.3768 3.74596 11.0927 4.36338 10.8369 5.21582C10.329 6.90873 10 9.30786 10 12C10 14.6921 10.329 17.0913 10.8369 18.7842C11.0927 19.6366 11.3768 20.254 11.6475 20.6357C11.8321 20.8961 11.9549 20.97 12 20.9912C12.0451 20.97 12.1679 20.8961 12.3525 20.6357C12.6232 20.254 12.9073 19.6366 13.1631 18.7842C13.671 17.0913 14 14.6921 14 12C14 9.30786 13.671 6.90873 13.1631 5.21582C12.9073 4.36338 12.6232 3.74596 12.3525 3.36426C12.1673 3.10316 12.0448 3.0288 12 3.00781ZM7 5.29688C6.85472 5.58949 6.69786 6.01716 6.55566 6.58594C6.2188 7.93353 6 9.84815 6 12C6 14.1518 6.2188 16.0665 6.55566 17.4141C6.69773 17.9823 6.85483 18.4095 7 18.7021C7.14517 18.4095 7.30227 17.9823 7.44434 17.4141C7.7812 16.0665 8 14.1518 8 12C8 9.84815 7.7812 7.93353 7.44434 6.58594C7.30214 6.01716 7.14528 5.58949 7 5.29688ZM17 5.29688C16.8547 5.58949 16.6979 6.01716 16.5557 6.58594C16.2188 7.93353 16 9.84815 16 12C16 14.1518 16.2188 16.0665 16.5557 17.4141C16.6977 17.9823 16.8548 18.4095 17 18.7021C17.1452 18.4095 17.3023 17.9823 17.4443 17.4141C17.7812 16.0665 18 14.1518 18 12C18 9.84815 17.7812 7.93353 17.4443 6.58594C17.3021 6.01716 17.1453 5.58949 17 5.29688ZM3.5 9.73926C3.46077 9.81708 3.41799 9.91046 3.37598 10.0225C3.1565 10.6077 3 11.4836 3 12.5C3 13.5164 3.1565 14.3923 3.37598 14.9775C3.41785 15.0892 3.46088 15.1821 3.5 15.2598C3.53912 15.1821 3.58215 15.0892 3.62402 14.9775C3.8435 14.3923 4 13.5164 4 12.5C4 11.4836 3.8435 10.6077 3.62402 10.0225C3.58201 9.91046 3.53923 9.81708 3.5 9.73926ZM20.5 9.73926C20.4608 9.81708 20.418 9.91045 20.376 10.0225C20.1565 10.6077 20 11.4836 20 12.5C20 13.5164 20.1565 14.3923 20.376 14.9775C20.4179 15.0892 20.4609 15.1821 20.5 15.2598C20.5391 15.1821 20.5821 15.0892 20.624 14.9775C20.8435 14.3923 21 13.5164 21 12.5C21 11.4836 20.8435 10.6077 20.624 10.0225C20.582 9.91045 20.5392 9.81708 20.5 9.73926Z" fill="#9E9E9E"/>
</g>
</svg>
