<svg width="24" height="24" viewBox="0 0 24 24" fill="none" xmlns="http://www.w3.org/2000/svg">
<g id="icons/Abstract/four-round-point-connection">
<path id="Union" d="M2.00098 13.0195C2.54216 12.9097 3.07071 13.2596 3.18066 13.8008C3.28201 14.3001 3.42517 14.7843 3.60547 15.25C4.0397 15.0885 4.50951 15 5 15C7.20913 15 9 16.7909 9 19C9 19.4906 8.91064 19.9602 8.74902 20.3945C9.2151 20.575 9.69951 20.7189 10.1992 20.8203C10.7403 20.9303 11.0902 21.4579 10.9805 21.999C10.8706 22.5403 10.342 22.8901 9.80078 22.7803C9.02219 22.6222 8.27368 22.3815 7.56445 22.0684C6.87003 22.6494 5.97624 23 5 23C2.79086 23 1 21.2091 1 19C1 18.0237 1.34962 17.129 1.93066 16.4346C1.61782 15.7257 1.37769 14.9774 1.21973 14.1992C1.10987 13.658 1.45984 13.1295 2.00098 13.0195ZM20.8203 13.8008C20.9303 13.2598 21.4579 12.9098 21.999 13.0195C22.5403 13.1294 22.8901 13.658 22.7803 14.1992C22.6223 14.9775 22.3813 15.7256 22.0684 16.4346C22.6496 17.1291 23 18.0235 23 19C23 21.2091 21.2091 23 19 23C18.0235 23 17.1291 22.6496 16.4346 22.0684C15.7256 22.3813 14.9775 22.6223 14.1992 22.7803C13.658 22.8901 13.1294 22.5403 13.0195 21.999C12.9098 21.4579 13.2598 20.9303 13.8008 20.8203C14.3002 20.719 14.7842 20.5749 15.25 20.3945C15.0885 19.9603 15 19.4905 15 19C15 16.7909 16.7909 15 19 15C19.4905 15 19.9603 15.0885 20.3945 15.25C20.5749 14.7842 20.719 14.3002 20.8203 13.8008ZM5 17C3.89543 17 3 17.8954 3 19C3 20.1046 3.89543 21 5 21C6.10457 21 7 20.1046 7 19C7 17.8954 6.10457 17 5 17ZM19 17C17.8954 17 17 17.8954 17 19C17 20.1046 17.8954 21 19 21C20.1046 21 21 20.1046 21 19C21 17.8954 20.1046 17 19 17ZM12 8C12.5523 8 13 8.44772 13 9V11H15C15.5523 11 16 11.4477 16 12C16 12.5523 15.5523 13 15 13H13V15C13 15.5523 12.5523 16 12 16C11.4477 16 11 15.5523 11 15V13H9C8.44772 13 8 12.5523 8 12C8 11.4477 8.44772 11 9 11H11V9C11 8.44772 11.4477 8 12 8ZM5 1C5.97601 1 6.8701 1.3499 7.56445 1.93066C8.27358 1.61764 9.02235 1.37776 9.80078 1.21973C10.342 1.10987 10.8705 1.45985 10.9805 2.00098C11.0903 2.5422 10.7404 3.07076 10.1992 3.18066C9.69962 3.28208 9.215 3.42502 8.74902 3.60547C8.91064 4.03979 9 4.50939 9 5C9 7.20913 7.20913 9 5 9C4.50939 9 4.03979 8.91064 3.60547 8.74902C3.42502 9.21499 3.28207 9.69963 3.18066 10.1992C3.07074 10.7404 2.54218 11.0903 2.00098 10.9805C1.45984 10.8705 1.10987 10.342 1.21973 9.80078C1.37776 9.02235 1.61764 8.27357 1.93066 7.56445C1.3499 6.8701 1 5.97601 1 5C1 2.79086 2.79086 1 5 1ZM19 1C21.2091 1 23 2.79086 23 5C23 5.97624 22.6494 6.87003 22.0684 7.56445C22.3815 8.27367 22.6222 9.02219 22.7803 9.80078C22.8901 10.342 22.5403 10.8706 21.999 10.9805C21.4579 11.0902 20.9303 10.7403 20.8203 10.1992C20.7189 9.69952 20.575 9.2151 20.3945 8.74902C19.9602 8.91064 19.4906 9 19 9C16.7909 9 15 7.20913 15 5C15 4.50951 15.0885 4.0397 15.25 3.60547C14.7843 3.42517 14.3001 3.28201 13.8008 3.18066C13.2596 3.07071 12.9097 2.54216 13.0195 2.00098C13.1295 1.45984 13.658 1.10987 14.1992 1.21973C14.9774 1.37769 15.7257 1.61782 16.4346 1.93066C17.129 1.34962 18.0237 1 19 1ZM5 3C3.89543 3 3 3.89543 3 5C3 6.10457 3.89543 7 5 7C6.10457 7 7 6.10457 7 5C7 3.89543 6.10457 3 5 3ZM19 3C17.8954 3 17 3.89543 17 5C17 6.10457 17.8954 7 19 7C20.1046 7 21 6.10457 21 5C21 3.89543 20.1046 3 19 3Z" fill="#9E9E9E"/>
</g>
</svg>
