<svg width="24" height="24" viewBox="0 0 24 24" fill="none" xmlns="http://www.w3.org/2000/svg">
<g id="icons/Abstract/four-leaves">
<path id="Union" d="M9.42468 13.293C9.81518 12.9025 10.4482 12.9025 10.8387 13.293C11.2293 13.6835 11.2293 14.3165 10.8387 14.707L9.90125 15.6436C10.0447 15.9098 10.2001 16.2399 10.329 16.6172C10.675 17.6305 10.8662 19.0984 9.9823 20.5264C8.82448 22.3967 6.64875 22.9387 5.04871 23.083C4.2157 23.1581 3.4506 23.1346 2.89734 23.0928C2.61955 23.0718 2.39148 23.0453 2.23035 23.0244C2.14971 23.0139 2.08535 23.005 2.03992 22.998C2.01735 22.9946 1.99933 22.9914 1.98621 22.9893C1.97966 22.9882 1.97368 22.988 1.9696 22.9873C1.96771 22.987 1.96605 22.9866 1.96472 22.9863L1.96277 22.9854H1.96179C1.59733 22.9223 1.30192 22.6647 1.18542 22.3223L1.14636 22.1699V22.1689L1.14539 22.167C1.14519 22.1657 1.14569 22.1639 1.14539 22.1621C1.1447 22.158 1.14352 22.1521 1.14246 22.1455C1.14032 22.1324 1.1371 22.1143 1.13367 22.0918C1.12674 22.0464 1.11776 21.982 1.1073 21.9014C1.08638 21.7402 1.05995 21.5121 1.03894 21.2344C0.997103 20.6811 0.973597 19.916 1.04871 19.083C1.19303 17.483 1.7351 15.3072 3.60535 14.1494C5.03329 13.2655 6.50116 13.4567 7.51453 13.8027C7.89145 13.9315 8.22207 14.0852 8.48816 14.2285L9.42468 13.293ZM13.2928 13.293C13.6834 12.9025 14.3164 12.9025 14.7069 13.293L15.6434 14.2295C15.9096 14.0861 16.2399 13.9315 16.6171 13.8027C17.6304 13.4567 19.0983 13.2656 20.5262 14.1494C22.3965 15.3072 22.9386 17.483 23.0829 19.083C23.158 19.916 23.1345 20.6811 23.0927 21.2344C23.0716 21.5122 23.0452 21.7402 23.0243 21.9014C23.0138 21.982 23.0049 22.0464 22.9979 22.0918C22.9945 22.1143 22.9913 22.1324 22.9891 22.1455C22.9881 22.1521 22.9879 22.158 22.9872 22.1621C22.9869 22.164 22.9864 22.1657 22.9862 22.167L22.9852 22.1689V22.1699C22.9222 22.5345 22.6647 22.8308 22.3221 22.9473L22.1698 22.9854H22.1688L22.1669 22.9863C22.1655 22.9866 22.1639 22.987 22.162 22.9873C22.1579 22.988 22.1519 22.9882 22.1454 22.9893C22.1323 22.9914 22.1142 22.9946 22.0917 22.998C22.0462 23.005 21.9819 23.0139 21.9012 23.0244C21.7401 23.0453 21.512 23.0718 21.2343 23.0928C20.681 23.1346 19.9159 23.1581 19.0829 23.083C17.4829 22.9387 15.3071 22.3966 14.1493 20.5264C13.2654 19.0984 13.4566 17.6305 13.8026 16.6172C13.9314 16.2401 14.086 15.9097 14.2294 15.6436L13.2928 14.707C12.9024 14.3165 12.9023 13.6835 13.2928 13.293ZM4.42566 21.1191C4.57043 21.1126 4.71885 21.1053 4.86902 21.0918C6.3201 20.9609 7.64404 20.5026 8.28113 19.4736C8.73321 18.7433 8.6744 17.9607 8.4364 17.2637C8.42331 17.2253 8.40732 17.1884 8.39343 17.1514L4.42566 21.1191ZM15.6952 17.2637C15.4572 17.9607 15.3984 18.7434 15.8505 19.4736C16.4875 20.5026 17.8115 20.9609 19.2626 21.0918C19.4124 21.1053 19.5605 21.1126 19.705 21.1191L15.7372 17.1514C15.7233 17.1884 15.7082 17.2254 15.6952 17.2637ZM6.86804 15.6953C6.17102 15.4573 5.38837 15.3985 4.65808 15.8506C3.62917 16.4877 3.17079 17.8117 3.03992 19.2627C3.02641 19.4125 3.0181 19.5606 3.0116 19.7051L6.97937 15.7373C6.94268 15.7236 6.90597 15.7083 6.86804 15.6953ZM19.4735 15.8506C18.7432 15.3985 17.9606 15.4573 17.2635 15.6953C17.2253 15.7084 17.1882 15.7235 17.1512 15.7373L21.119 19.7051C21.1125 19.5606 21.1052 19.4125 21.0917 19.2627C20.9608 17.8117 20.5025 16.4877 19.4735 15.8506ZM2.89734 0.907227C3.4506 0.865388 4.2157 0.841887 5.04871 0.916992C6.64873 1.0613 8.82447 1.6034 9.9823 3.47363C10.8662 4.9016 10.675 6.36944 10.329 7.38281C10.2002 7.75995 10.0456 8.09028 9.90222 8.35645L10.8387 9.29297C11.2293 9.68349 11.2293 10.3165 10.8387 10.707C10.4482 11.0975 9.8152 11.0976 9.42468 10.707L8.48816 9.77051C8.22199 9.91391 7.89167 10.0685 7.51453 10.1973C6.50116 10.5433 5.03332 10.7345 3.60535 9.85059C1.73511 8.69276 1.19302 6.51702 1.04871 4.91699C0.973601 4.08399 0.997101 3.31889 1.03894 2.76562C1.05996 2.48783 1.08638 2.25977 1.1073 2.09863C1.11777 2.01799 1.12674 1.95363 1.13367 1.9082C1.13711 1.88563 1.14032 1.86762 1.14246 1.85449C1.14353 1.84793 1.1447 1.84197 1.14539 1.83789C1.14568 1.83606 1.14516 1.83431 1.14539 1.83301L1.14636 1.83105V1.83008C1.21839 1.41339 1.54511 1.08668 1.96179 1.01465H1.96277L1.96472 1.01367C1.96602 1.01345 1.96777 1.01397 1.9696 1.01367C1.97368 1.01299 1.97965 1.01181 1.98621 1.01074C1.99933 1.0086 2.01735 1.0054 2.03992 1.00195C2.08535 0.995026 2.1497 0.986055 2.23035 0.975586C2.39148 0.954669 2.61955 0.928241 2.89734 0.907227ZM19.0829 0.916992C19.9159 0.841882 20.681 0.86539 21.2343 0.907227C21.512 0.928238 21.7401 0.954669 21.9012 0.975586C21.9819 0.986051 22.0462 0.995026 22.0917 1.00195C22.1142 1.00539 22.1323 1.0086 22.1454 1.01074C22.1519 1.01181 22.1579 1.01298 22.162 1.01367C22.1638 1.01398 22.1656 1.01348 22.1669 1.01367L22.1688 1.01465H22.1698C22.5865 1.08666 22.9132 1.41339 22.9852 1.83008V1.83105L22.9862 1.83301C22.9864 1.83434 22.9869 1.836 22.9872 1.83789C22.9879 1.84197 22.9881 1.84794 22.9891 1.85449C22.9913 1.86761 22.9945 1.88564 22.9979 1.9082C23.0049 1.95363 23.0138 2.018 23.0243 2.09863C23.0452 2.25977 23.0716 2.48784 23.0927 2.76562C23.1345 3.31889 23.158 4.08398 23.0829 4.91699C22.9386 6.51704 22.3965 8.69277 20.5262 9.85059C19.0983 10.7345 17.6304 10.5433 16.6171 10.1973C16.2398 10.0684 15.9097 9.91299 15.6434 9.76953L14.7069 10.707C14.3164 11.0976 13.6834 11.0976 13.2928 10.707C12.9024 10.3165 12.9024 9.68346 13.2928 9.29297L14.2284 8.35645C14.0851 8.09036 13.9313 7.75973 13.8026 7.38281C13.4566 6.36945 13.2654 4.90158 14.1493 3.47363C15.3071 1.60339 17.4829 1.06132 19.0829 0.916992ZM3.03992 4.7373C3.17077 6.18834 3.6292 7.5123 4.65808 8.14941C5.38838 8.6015 6.17101 8.54268 6.86804 8.30469C6.9061 8.29169 6.94256 8.2755 6.97937 8.26172L3.0116 4.29395C3.0181 4.43873 3.02638 4.58713 3.03992 4.7373ZM17.1512 8.26172C17.1883 8.27561 17.2252 8.29159 17.2635 8.30469C17.9606 8.54269 18.7432 8.60149 19.4735 8.14941C20.5025 7.51233 20.9608 6.18838 21.0917 4.7373C21.1052 4.58714 21.1125 4.43872 21.119 4.29395L17.1512 8.26172ZM8.39343 6.84766C8.40722 6.81084 8.42341 6.77438 8.4364 6.73633C8.67439 6.0393 8.73321 5.25666 8.28113 4.52637C7.64402 3.49749 6.32005 3.03906 4.86902 2.9082C4.71884 2.89466 4.57044 2.88638 4.42566 2.87988L8.39343 6.84766ZM19.2626 2.9082C17.8115 3.03907 16.4875 3.49745 15.8505 4.52637C15.3984 5.25665 15.4572 6.03931 15.6952 6.73633C15.7081 6.77426 15.7234 6.81096 15.7372 6.84766L19.705 2.87988C19.5605 2.88638 19.4124 2.89469 19.2626 2.9082Z" fill="#9E9E9E"/>
</g>
</svg>
