<svg width="24" height="24" viewBox="0 0 24 24" fill="none" xmlns="http://www.w3.org/2000/svg">
<g id="icons/Abstract/four-arrows">
<path id="Union" d="M10 1C11.6568 1 13 2.34314 13 4V9.58594L13.793 8.79297C14.1835 8.40244 14.8165 8.40244 15.207 8.79297C15.5976 9.18349 15.5976 9.81651 15.207 10.207L14.4141 11H17.1738C17.0631 10.6869 17 10.351 17 10C17 8.34317 18.3432 7 20 7C21.6568 7 23 8.34317 23 10C23 11.6568 21.6568 13 20 13H14.4141L15.207 13.793C15.5976 14.1835 15.5976 14.8165 15.207 15.207C14.8165 15.5976 14.1835 15.5976 13.793 15.207L13 14.4141V17.1738C13.3131 17.0631 13.649 17 14 17C15.6568 17 17 18.3432 17 20C17 21.6568 15.6568 23 14 23C12.3432 23 11 21.6568 11 20V14.4141L10.207 15.207C9.81651 15.5976 9.18349 15.5976 8.79297 15.207C8.40244 14.8165 8.40244 14.1835 8.79297 13.793L9.58594 13H6.82617C6.93695 13.3131 7 13.649 7 14C7 15.6568 5.65683 17 4 17C2.34314 17 1 15.6568 1 14C1 12.3432 2.34314 11 4 11H9.58594L8.79297 10.207C8.40244 9.81651 8.40244 9.18349 8.79297 8.79297C9.18349 8.40244 9.81651 8.40244 10.207 8.79297L11 9.58594V6.8252C10.6869 6.93604 10.3511 7 10 7C8.34317 7 7 5.65683 7 4C7 2.34314 8.34317 1 10 1ZM14 19C13.4477 19 13 19.4477 13 20C13 20.5523 13.4477 21 14 21C14.5523 21 15 20.5523 15 20C15 19.4477 14.5523 19 14 19ZM4 13C3.44772 13 3 13.4477 3 14C3 14.5523 3.44772 15 4 15C4.55227 15 5 14.5523 5 14C5 13.4477 4.55227 13 4 13ZM20 9C19.4477 9 19 9.44773 19 10C19 10.5523 19.4477 11 20 11C20.5523 11 21 10.5523 21 10C21 9.44773 20.5523 9 20 9ZM10 3C9.44773 3 9 3.44772 9 4C9 4.55227 9.44773 5 10 5C10.5523 5 11 4.55227 11 4C11 3.44772 10.5523 3 10 3Z" fill="#9E9E9E"/>
</g>
</svg>
