<svg width="24" height="24" viewBox="0 0 24 24" fill="none" xmlns="http://www.w3.org/2000/svg">
<g id="icons/Abstract/four-point-connection">
<path id="Union" d="M14 1C14.5523 1 15 1.44772 15 2V3H20C20.5523 3 21 3.44772 21 4V9H22C22.5523 9 23 9.44771 23 10V14C23 14.5523 22.5523 15 22 15H21V20C21 20.5523 20.5523 21 20 21H15V22C15 22.5523 14.5523 23 14 23H10C9.44771 23 9 22.5523 9 22V21H4C3.44772 21 3 20.5523 3 20V15H2C1.44772 15 1 14.5523 1 14V10C1 9.44771 1.44772 9 2 9H3V4C3 3.44772 3.44772 3 4 3H9V2C9 1.44772 9.44771 1 10 1H14ZM11 21H13V19H11V21ZM5 19H7.58594L5 16.4141V19ZM16.7734 19H19V16.5703L16.7734 19ZM14.9355 6.34961C14.7936 6.7292 14.4291 7 14 7H10C9.57078 7 9.2053 6.72937 9.06348 6.34961L6.34961 9.06348C6.72937 9.2053 7 9.57078 7 10V14C7 14.4291 6.7292 14.7936 6.34961 14.9355L9.06348 17.6494C9.20553 17.2701 9.57111 17 10 17H14C14.5441 17 14.9851 17.4346 14.998 17.9756L17.7549 14.9678C17.3213 14.8583 17 14.4675 17 14V10C17 9.57111 17.2701 9.20553 17.6494 9.06348L14.9355 6.34961ZM12 8C12.5523 8 13 8.44772 13 9V11H15C15.5523 11 16 11.4477 16 12C16 12.5523 15.5523 13 15 13H13V15C13 15.5523 12.5523 16 12 16C11.4477 16 11 15.5523 11 15V13H9C8.44772 13 8 12.5523 8 12C8 11.4477 8.44772 11 9 11H11V9C11 8.44772 11.4477 8 12 8ZM3 13H5V11H3V13ZM19 13H21V11H19V13ZM5 7.58594L7.58594 5H5V7.58594ZM19 7.58594V5H16.4141L19 7.58594ZM11 5H13V3H11V5Z" fill="#9E9E9E"/>
</g>
</svg>
