<svg width="24" height="24" viewBox="0 0 24 24" fill="none" xmlns="http://www.w3.org/2000/svg">
<g id="icons/Abstract/game-emoji">
<path id="Union" d="M19 14C21.2091 14 23 15.7909 23 18C22.9999 20.209 21.2091 22 19 22H5C2.79094 22 1.00013 20.209 1 18C1 15.7909 2.79086 14 5 14H19ZM5 16C3.89543 16 3 16.8954 3 18C3.00013 19.1045 3.89551 20 5 20H19C20.1045 20 20.9999 19.1045 21 18C21 16.8954 20.1046 16 19 16H5ZM5.86914 1.72461C6.26191 1.40426 6.84092 1.42685 7.20703 1.79297L11.707 6.29297C12.0974 6.6835 12.0975 7.31655 11.707 7.70703L7.20703 12.207C6.81654 12.5974 6.18346 12.5974 5.79297 12.207L1.29297 7.70703C0.902484 7.31655 0.902562 6.6835 1.29297 6.29297L5.79297 1.79297L5.86914 1.72461ZM18 2C20.7614 2 23 4.23858 23 7C22.9999 9.76133 20.7614 12 18 12C15.2386 12 13.0001 9.76133 13 7C13 4.23858 15.2386 2 18 2ZM3.41406 7L6.5 10.0859L9.58594 7L6.5 3.91406L3.41406 7ZM18 4C16.3431 4 15 5.34314 15 7C15.0001 8.65676 16.3432 10 18 10C19.6568 10 20.9999 8.65676 21 7C21 5.34314 19.6569 4 18 4Z" fill="#9E9E9E"/>
</g>
</svg>
