<svg width="24" height="24" viewBox="0 0 24 24" fill="none" xmlns="http://www.w3.org/2000/svg">
<g id="icons/Abstract/geometric-flowers">
<path id="Union" d="M16.6854 1.52148C18.3801 1.04709 20.1996 1.1348 21.412 2.34668C22.6244 3.55908 22.7117 5.37927 22.2372 7.07422C21.7999 8.63588 20.8445 10.2903 19.4872 11.7734C20.8445 13.2565 21.7999 14.911 22.2372 16.4727C22.7117 18.1676 22.6243 19.9868 21.412 21.1992C20.1996 22.4116 18.3804 22.499 16.6854 22.0244C15.1289 21.5886 13.4802 20.6375 12.0009 19.2871C10.5211 20.6382 8.87133 21.5894 7.31433 22.0254C5.6195 22.4998 3.79909 22.4115 2.58679 21.1992C1.37508 19.9869 1.28721 18.1672 1.7616 16.4727C2.19881 14.9112 3.15437 13.2564 4.5116 11.7734C3.15443 10.2905 2.19879 8.63565 1.7616 7.07422C1.28718 5.37942 1.37458 3.55901 2.58679 2.34668C3.79908 1.13439 5.61952 1.04709 7.31433 1.52148C8.87092 1.95733 10.5205 2.90831 11.9999 4.25879C13.4793 2.90821 15.1288 1.95735 16.6854 1.52148ZM5.95789 13.1543C4.79323 14.4354 4.02505 15.8092 3.68835 17.0117C3.30313 18.3875 3.5274 19.3105 4.00183 19.7852C4.47643 20.2597 5.39944 20.4838 6.77527 20.0986C7.9729 19.7633 9.33956 18.9988 10.6161 17.8418C9.84061 16.9108 9.2206 15.9268 8.78406 14.9502C7.82939 14.5172 6.86816 13.9106 5.95789 13.1543ZM18.0399 13.1543C17.1293 13.9107 16.1687 14.5183 15.2137 14.9512C14.7772 15.9275 14.1579 16.9111 13.3827 17.8418C14.6594 18.9991 16.0266 19.7632 17.2245 20.0986C18.6005 20.4839 19.5233 20.2598 19.9979 19.7852C20.4725 19.3105 20.6967 18.3877 20.3114 17.0117C19.9746 15.8091 19.2051 14.4356 18.0399 13.1543ZM12.5018 15.6953C12.3675 15.706 12.2336 15.7112 12.1005 15.7129C12.067 15.7137 12.0335 15.7137 11.9999 15.7139C11.966 15.7137 11.9321 15.7137 11.8983 15.7129C11.7652 15.7112 11.6313 15.706 11.4969 15.6953C11.6527 15.922 11.8199 16.1491 11.9999 16.374C12.1797 16.1492 12.3461 15.9219 12.5018 15.6953ZM11.952 9.83008C11.3123 9.8463 10.8458 10.0447 10.5516 10.3389C10.2588 10.6317 10.0617 11.0953 10.0438 11.7305C10.0455 12.4101 10.2458 12.9021 10.5516 13.208C10.8458 13.5022 11.3122 13.6996 11.952 13.7158C12.6413 13.7178 13.1394 13.5167 13.4481 13.208C13.7511 12.905 13.9505 12.4195 13.9559 11.75C13.9416 11.1048 13.7439 10.6347 13.4481 10.3389C13.1394 10.0303 12.6412 9.82805 11.952 9.83008ZM8.0614 11.3037C7.85033 11.4497 7.63909 11.6056 7.42957 11.7725C7.639 11.9393 7.84944 12.0962 8.06042 12.2422C8.05092 12.1107 8.04654 11.9798 8.04578 11.8496C8.04522 11.8239 8.04597 11.7982 8.04578 11.7725C8.04598 11.747 8.04523 11.7216 8.04578 11.6963C8.04655 11.5661 8.05188 11.4352 8.0614 11.3037ZM15.9374 11.3037C15.9463 11.4266 15.9517 11.549 15.953 11.6709C15.958 11.8594 15.9521 12.0497 15.9384 12.2412C16.1492 12.0953 16.3599 11.9392 16.5692 11.7725C16.3597 11.6056 16.1484 11.4497 15.9374 11.3037ZM19.9979 3.76172C19.5233 3.28716 18.6005 3.06298 17.2245 3.44824C16.0268 3.78359 14.6594 4.54723 13.3827 5.7041C14.1577 6.63467 14.7764 7.61848 15.2128 8.59473C16.1679 9.02755 17.1291 9.63511 18.0399 10.3916C19.205 9.11054 19.9747 7.73778 20.3114 6.53516C20.6966 5.15923 20.4725 4.23634 19.9979 3.76172ZM6.77527 3.44824C5.39942 3.0631 4.4764 3.28715 4.00183 3.76172C3.52732 4.23634 3.30318 5.15933 3.68835 6.53516C4.02505 7.73757 4.79421 9.11065 5.95886 10.3916C6.86894 9.63562 7.82965 9.02857 8.78406 8.5957C9.22059 7.6191 9.84071 6.63504 10.6161 5.7041C9.33967 4.54752 7.97272 3.78355 6.77527 3.44824ZM11.9989 7.17188C11.8187 7.39724 11.6509 7.62443 11.495 7.85156C11.63 7.84072 11.7645 7.83471 11.8983 7.83301C11.9133 7.83265 11.9282 7.83226 11.9432 7.83203H12.0565C12.0712 7.83226 12.0858 7.83266 12.1005 7.83301C12.2339 7.83469 12.3681 7.84078 12.5028 7.85156C12.3468 7.62445 12.1791 7.39722 11.9989 7.17188Z" fill="#9E9E9E"/>
</g>
</svg>
