<svg width="24" height="24" viewBox="0 0 24 24" fill="none" xmlns="http://www.w3.org/2000/svg">
<g id="icons/Abstract/graphic-stitching-three">
<path id="Union" d="M12 1C13.5854 1 14.9242 2.05433 15.3545 3.5H20C20.5523 3.5 21 3.94772 21 4.5V8.5H22C22.5523 8.5 23 8.94772 23 9.5V14.5C23 15.0523 22.5523 15.5 22 15.5H20.5V19.5C20.5 20.0523 20.0523 20.5 19.5 20.5H15.3545C14.9242 21.9457 13.5854 23 12 23C10.4146 23 9.07584 21.9457 8.64551 20.5H4.5C3.94772 20.5 3.5 20.0523 3.5 19.5V15.5H2C1.44772 15.5 1 15.0523 1 14.5V9.5C1 8.94772 1.44772 8.5 2 8.5H3.5V4.5C3.5 3.94772 3.94772 3.5 4.5 3.5H8.64551C9.07584 2.05433 10.4146 1 12 1ZM12 18C11.1716 18 10.5 18.6716 10.5 19.5C10.5 20.3284 11.1716 21 12 21C12.8284 21 13.5 20.3284 13.5 19.5C13.5 18.6716 12.8284 18 12 18ZM5.5 8.5H7C7.55228 8.5 8 8.94772 8 9.5V14.5C8 15.0523 7.55228 15.5 7 15.5H5.5V18.5H8.64551C9.07584 17.0543 10.4146 16 12 16C13.5854 16 14.9242 17.0543 15.3545 18.5H18.5V15.5H17C16.4477 15.5 16 15.0523 16 14.5V9.5C16 8.94772 16.4477 8.5 17 8.5H19V5.5H15.3545C14.9242 6.94566 13.5854 8 12 8C10.4146 8 9.07584 6.94566 8.64551 5.5H5.5V8.5ZM3 13.5H6V10.5H3V13.5ZM18 13.5H21V10.5H18V13.5ZM12 3C11.1716 3 10.5 3.67158 10.5 4.5C10.5 5.32842 11.1716 6 12 6C12.8284 6 13.5 5.32842 13.5 4.5C13.5 3.67158 12.8284 3 12 3Z" fill="#9E9E9E"/>
</g>
</svg>
