<svg width="24" height="24" viewBox="0 0 24 24" fill="none" xmlns="http://www.w3.org/2000/svg">
<g id="icons/Abstract/graphic-design">
<path id="Union" d="M9.5 1C13.5795 1 16.9433 4.05384 17.4355 8H22C22.5523 8 23 8.44772 23 9V22C23 22.5523 22.5523 23 22 23H9C8.44772 23 8 22.5523 8 22V16.8574C4.2989 16.1552 1.5 12.9054 1.5 9C1.5 4.58172 5.08172 1 9.5 1ZM10 21H21V10H10V21ZM9.5 3C6.18629 3 3.5 5.68629 3.5 9C3.5 11.7957 5.41221 14.1444 8 14.8105V9C8 8.44772 8.44772 8 9 8H15.415C14.9388 5.16244 12.4729 3 9.5 3Z" fill="#9E9E9E"/>
</g>
</svg>
