<svg width="24" height="24" viewBox="0 0 24 24" fill="none" xmlns="http://www.w3.org/2000/svg">
<g id="icons/Abstract/graphic-stitching-four">
<path id="Union" d="M7 1C7.55228 1 8 1.44772 8 2V3.5H16.1455C16.5758 2.05433 17.9146 1 19.5 1C21.433 1 23 2.567 23 4.5C23 6.08534 21.9455 7.4231 20.5 7.85352V16H22C22.5523 16 23 16.4477 23 17V22C23 22.5523 22.5523 23 22 23H17C16.4477 23 16 22.5523 16 22V20.5H7.85449C7.42416 21.9457 6.08544 23 4.5 23C2.567 23 1 21.433 1 19.5C1 17.9146 2.05433 16.5758 3.5 16.1455V8H2C1.44772 8 1 7.55228 1 7V2C1 1.44772 1.44772 1 2 1H7ZM4.5 18C3.67158 18 3 18.6716 3 19.5C3 20.3284 3.67158 21 4.5 21C5.32842 21 6 20.3284 6 19.5C6 18.6716 5.32842 18 4.5 18ZM18 21H21V18H18V21ZM8 7C8 7.55228 7.55228 8 7 8H5.5V16.1455C6.62876 16.4815 7.5185 17.3712 7.85449 18.5H16V17C16 16.4477 16.4477 16 17 16H18.5V7.85352C17.3714 7.51746 16.4815 6.62867 16.1455 5.5H8V7ZM3 6H6V3H3V6ZM19.5 3C18.6716 3 18 3.67158 18 4.5C18 5.32842 18.6716 6 19.5 6C20.3284 6 21 5.32842 21 4.5C21 3.67158 20.3284 3 19.5 3Z" fill="#9E9E9E"/>
</g>
</svg>
