<svg width="24" height="24" viewBox="0 0 24 24" fill="none" xmlns="http://www.w3.org/2000/svg">
<g id="icons/Abstract/graphic-design-two">
<path id="Union" d="M11.9996 0.5C16.4179 0.5 19.9996 4.08172 19.9996 8.5C19.9996 10.7745 19.0492 12.8268 17.527 14.2822L22.8033 21.4043C23.0282 21.7078 23.0631 22.1129 22.8932 22.4502C22.7232 22.7874 22.3773 23 21.9996 23H1.99963C1.6221 22.9999 1.27596 22.7874 1.10608 22.4502C0.936273 22.113 0.971247 21.7077 1.19592 21.4043L6.47229 14.2803C4.95088 12.8248 3.99963 10.7739 3.99963 8.5C3.99963 4.08184 7.58151 0.500189 11.9996 0.5ZM3.98499 21H20.0143L11.9996 10.1807L3.98499 21ZM11.9996 2.5C8.68608 2.50019 5.99963 5.18641 5.99963 8.5C5.99963 10.1134 6.63696 11.5771 7.67444 12.6562L11.1959 7.9043L11.2721 7.81445C11.4597 7.61527 11.7226 7.5001 11.9996 7.5C12.3163 7.5 12.6147 7.64993 12.8033 7.9043L16.3239 12.6562C17.3617 11.5769 17.9996 10.1138 17.9996 8.5C17.9996 5.18629 15.3133 2.5 11.9996 2.5Z" fill="#9E9E9E"/>
</g>
</svg>
