<svg width="24" height="24" viewBox="0 0 24 24" fill="none" xmlns="http://www.w3.org/2000/svg">
<g id="icons/Abstract/graphic-stitching">
<path id="Union" d="M12 1C14.9978 1 17.4813 3.19864 17.9277 6.07129C20.8009 6.51726 23 9.00184 23 12C23 14.9981 20.8008 17.4817 17.9277 17.9277C17.4817 20.8008 14.9981 23 12 23C9.00184 23 6.51726 20.8009 6.07129 17.9277C3.19864 17.4813 1 14.9978 1 12C1 9.00217 3.19857 6.51766 6.07129 6.07129C6.51766 3.19857 9.00217 1 12 1ZM8.01855 17.3945C8.21668 19.4185 9.92399 21 12 21C14.076 21 15.7823 19.4184 15.9805 17.3945L12 13.4141L8.01855 17.3945ZM6.60449 8.01855C4.58098 8.21713 3 9.92432 3 12C3 14.0756 4.58102 15.7818 6.60449 15.9805L10.5859 12L6.60449 8.01855ZM17.3945 8.01855L13.4141 12L17.3945 15.9805C19.4184 15.7823 21 14.076 21 12C21 9.92399 19.4185 8.21668 17.3945 8.01855ZM12 3C9.92432 3 8.21713 4.58098 8.01855 6.60449L12 10.5859L15.9805 6.60449C15.7818 4.58102 14.0756 3 12 3Z" fill="#9E9E9E"/>
</g>
</svg>
