<svg width="24" height="24" viewBox="0 0 24 24" fill="none" xmlns="http://www.w3.org/2000/svg">
<g id="icons/Abstract/halo">
<path id="Union" d="M7.80469 21.1348C7.9843 20.6127 8.55301 20.3352 9.0752 20.5146C9.37333 20.6171 9.67869 20.7044 9.99023 20.7754C10.3161 20.8497 10.6495 20.9055 10.9883 20.9434C11.5369 21.0049 11.9314 21.5001 11.8701 22.0488C11.8087 22.5976 11.3144 22.993 10.7656 22.9316C10.3519 22.8854 9.94493 22.8156 9.5459 22.7246C9.16449 22.6377 8.79014 22.5308 8.4248 22.4053C7.90273 22.2257 7.62527 21.657 7.80469 21.1348ZM14.9248 20.5146C15.447 20.3352 16.0157 20.6127 16.1953 21.1348C16.3747 21.657 16.0973 22.2257 15.5752 22.4053C15.2099 22.5308 14.8355 22.6377 14.4541 22.7246C14.0551 22.8156 13.6481 22.8854 13.2344 22.9316C12.6856 22.993 12.1913 22.5976 12.1299 22.0488C12.0686 21.5001 12.4631 21.0049 13.0117 20.9434C13.3505 20.9055 13.6839 20.8497 14.0098 20.7754C14.3213 20.7044 14.6267 20.6171 14.9248 20.5146ZM3.99609 18.0781C4.40044 17.7019 5.03298 17.7246 5.40918 18.1289C5.61141 18.3463 5.82429 18.5535 6.04688 18.75C6.24613 18.9259 6.45347 19.0939 6.66797 19.252C7.11256 19.5795 7.2074 20.2048 6.87988 20.6494C6.55233 21.094 5.92706 21.1888 5.48242 20.8613C5.22067 20.6685 4.96704 20.4649 4.72363 20.25C4.45176 20.0101 4.19218 19.7565 3.94531 19.4912C3.56913 19.0869 3.59179 18.4543 3.99609 18.0781ZM18.5908 18.1289C18.967 17.7246 19.5996 17.7019 20.0039 18.0781C20.4082 18.4543 20.4309 19.0869 20.0547 19.4912C19.8078 19.7565 19.5482 20.0101 19.2764 20.25C19.033 20.4648 18.7795 20.6684 18.5176 20.8613C18.0729 21.1888 17.4476 21.0941 17.1201 20.6494C16.7926 20.2047 16.8874 19.5785 17.332 19.251C17.5463 19.0931 17.7539 18.9258 17.9531 18.75C18.1757 18.5535 18.3886 18.3462 18.5908 18.1289ZM12.9844 16.9043C13.526 16.7963 14.0532 17.1478 14.1611 17.6895C14.2689 18.2309 13.9173 18.7571 13.376 18.8652C12.9305 18.954 12.4699 19.001 12 19.001C11.5302 19.001 11.0704 18.954 10.625 18.8652C10.0834 18.7573 9.73196 18.231 9.83984 17.6895C9.94781 17.1479 10.474 16.7964 11.0156 16.9043C11.333 16.9676 11.6622 17.001 12 17.001C12.3377 17.001 12.667 16.9675 12.9844 16.9043ZM6.41309 14.4102C6.87706 14.1107 7.4954 14.2441 7.79492 14.708C7.98653 15.0048 8.20942 15.2799 8.45801 15.5293C8.69472 15.7669 8.9552 15.9807 9.23535 16.167C9.69526 16.4728 9.82039 17.0938 9.51465 17.5537C9.20888 18.0136 8.58785 18.1388 8.12793 17.833C7.73598 17.5724 7.37183 17.2734 7.04102 16.9414C6.69374 16.593 6.3834 16.2074 6.11523 15.792C5.81581 15.328 5.94915 14.7097 6.41309 14.4102ZM16.2041 14.708C16.5036 14.2441 17.122 14.1108 17.5859 14.4102C18.0499 14.7097 18.1832 15.328 17.8838 15.792C17.6156 16.2074 17.3052 16.593 16.958 16.9414C16.6272 17.2734 16.263 17.5724 15.8711 17.833C15.4112 18.1387 14.7901 18.0136 14.4844 17.5537C14.1787 17.0938 14.3038 16.4727 14.7637 16.167C15.0438 15.9807 15.3042 15.7669 15.541 15.5293C15.7896 15.2799 16.0125 15.0048 16.2041 14.708ZM2.14258 13.9678C2.67062 13.8067 3.22925 14.1039 3.39062 14.6318C3.46769 14.8843 3.55613 15.1325 3.6543 15.375C3.76125 15.6392 3.88008 15.8974 4.01074 16.1484C4.26568 16.6383 4.07485 17.2421 3.58496 17.4971C3.09512 17.7518 2.49125 17.5611 2.23633 17.0713C2.07652 16.7642 1.93068 16.4483 1.7998 16.125C1.67972 15.8283 1.57188 15.5248 1.47754 15.2158C1.31654 14.6877 1.61449 14.129 2.14258 13.9678ZM20.6094 14.6318C20.7707 14.1039 21.3294 13.8067 21.8574 13.9678C22.3855 14.129 22.6835 14.6877 22.5225 15.2158C22.4281 15.5249 22.3203 15.8283 22.2002 16.125C22.0693 16.4484 21.9234 16.7643 21.7637 17.0713C21.5088 17.5611 20.9049 17.7518 20.415 17.4971C19.9251 17.2421 19.7343 16.6383 19.9893 16.1484C20.12 15.8973 20.2388 15.6391 20.3457 15.375C20.4439 15.1324 20.5323 14.8842 20.6094 14.6318ZM12 9C13.6568 9 15 10.3432 15 12C15 13.6568 13.6568 15 12 15C10.3432 15 9 13.6568 9 12C9 10.3432 10.3432 9 12 9ZM5.11523 10.7295C5.215 10.1864 5.73615 9.8271 6.2793 9.92676C6.82245 10.0265 7.18169 10.5476 7.08203 11.0908C7.02808 11.3849 7.00001 11.6888 7 12C7 12.3112 7.0281 12.615 7.08203 12.9092C7.18167 13.4523 6.82241 13.9735 6.2793 14.0732C5.73608 14.1729 5.21489 13.8137 5.11523 13.2705C5.03953 12.8578 5 12.4331 5 12C5.00001 11.567 5.03952 11.1421 5.11523 10.7295ZM17.7207 9.92676C18.2639 9.82702 18.785 10.1863 18.8848 10.7295C18.9606 11.1422 19 11.567 19 12C19 12.4331 18.9605 12.8578 18.8848 13.2705C18.785 13.8137 18.2639 14.173 17.7207 14.0732C17.1776 13.9734 16.8182 13.4523 16.918 12.9092C16.9719 12.6151 17 12.3113 17 12C17 11.6887 16.972 11.3849 16.918 11.0908C16.8182 10.5476 17.1776 10.0265 17.7207 9.92676ZM1.21973 9.80078C1.32969 9.25966 1.85824 8.90968 2.39941 9.01953C2.94047 9.12955 3.28953 9.65809 3.17969 10.1992C3.11989 10.4939 3.07517 10.794 3.04492 11.0986C3.01552 11.3948 3 11.6955 3 12C3 12.5523 2.55228 13 2 13C1.44772 13 1 12.5523 1 12C1 11.6295 1.01879 11.263 1.05469 10.9014C1.09165 10.529 1.14649 10.1615 1.21973 9.80078ZM12 11C11.4477 11 11 11.4477 11 12C11 12.5523 11.4477 13 12 13C12.5523 13 13 12.5523 13 12C13 11.4477 12.5523 11 12 11ZM21.6006 9.01953C22.1418 8.90966 22.6703 9.25964 22.7803 9.80078C22.8535 10.1616 22.9084 10.529 22.9453 10.9014C22.9813 11.2631 23 11.6296 23 12C23 12.5523 22.5523 13 22 13C21.4477 13 21 12.5523 21 12C21 11.6955 20.9845 11.3946 20.9551 11.0986C20.9248 10.794 20.8801 10.4939 20.8203 10.1992C20.7104 9.65807 21.0595 9.12955 21.6006 9.01953ZM8.12793 6.16699C8.58785 5.86123 9.20888 5.98637 9.51465 6.44629C9.82039 6.9062 9.69526 7.52725 9.23535 7.83301C8.9552 8.01928 8.69472 8.23312 8.45801 8.4707C8.20942 8.72012 7.98653 8.99522 7.79492 9.29199C7.4954 9.75593 6.87706 9.88927 6.41309 9.58984C5.94915 9.29032 5.81581 8.67198 6.11523 8.20801C6.3834 7.79263 6.69374 7.40703 7.04102 7.05859C7.37183 6.72657 7.73598 6.42757 8.12793 6.16699ZM14.4844 6.44629C14.7901 5.98639 15.4112 5.86128 15.8711 6.16699C16.263 6.42757 16.6272 6.72662 16.958 7.05859C17.3052 7.407 17.6156 7.79263 17.8838 8.20801C18.1832 8.67198 18.0499 9.29031 17.5859 9.58984C17.122 9.88922 16.5036 9.75591 16.2041 9.29199C16.0125 8.99524 15.7896 8.72015 15.541 8.4707C15.3042 8.23309 15.0438 8.01926 14.7637 7.83301C14.3038 7.52726 14.1787 6.9062 14.4844 6.44629ZM3.28613 5.28613C3.62354 4.8492 4.25132 4.76824 4.68848 5.10547C5.12562 5.4428 5.20636 6.07057 4.86914 6.50781C4.78387 6.61836 4.70125 6.73118 4.62109 6.8457L4.38867 7.19434C4.25379 7.40749 4.12764 7.62694 4.01074 7.85156C3.75582 8.34142 3.15199 8.53217 2.66211 8.27734C2.17234 8.02247 1.98171 7.41855 2.23633 6.92871C2.37932 6.65395 2.53344 6.38543 2.69824 6.125C2.88112 5.83603 3.07793 5.55603 3.28613 5.28613ZM19.3115 5.10547C19.7488 4.7682 20.3776 4.84884 20.7148 5.28613C20.9229 5.55596 21.1189 5.83605 21.3018 6.125C21.4666 6.38547 21.6207 6.65399 21.7637 6.92871C22.0183 7.41854 21.8277 8.02246 21.3379 8.27734C20.848 8.53216 20.2442 8.34141 19.9893 7.85156C19.8723 7.6269 19.7462 7.40745 19.6113 7.19434C19.4617 6.9579 19.3013 6.72879 19.1309 6.50781C18.7936 6.07056 18.8744 5.44279 19.3115 5.10547ZM12 5C12.4699 5 12.9304 5.04686 13.376 5.13574C13.9174 5.24389 14.2691 5.77005 14.1611 6.31152C14.0531 6.85314 13.526 7.20472 12.9844 7.09668C12.667 7.03338 12.3378 7 12 7C11.6622 7.00001 11.333 7.03338 11.0156 7.09668C10.4741 7.20453 9.94786 6.85304 9.83984 6.31152C9.73184 5.76993 10.0834 5.24378 10.625 5.13574C11.0704 5.0469 11.5303 5.00001 12 5ZM7.44141 1.98633C7.94386 1.75729 8.53647 1.97906 8.76562 2.48145C8.99472 2.9839 8.77388 3.57746 8.27148 3.80664C7.97668 3.94105 7.68992 4.09053 7.41309 4.25488C7.15638 4.40728 6.90751 4.57256 6.66797 4.74902C6.22333 5.07625 5.597 4.98067 5.26953 4.53613C4.94237 4.0915 5.03791 3.46612 5.48242 3.13867C5.77484 2.92326 6.07796 2.72137 6.3916 2.53516C6.73005 2.33423 7.08073 2.15078 7.44141 1.98633ZM15.2344 2.48145C15.4635 1.97906 16.0561 1.75729 16.5586 1.98633C16.9193 2.15078 17.27 2.33423 17.6084 2.53516C17.922 2.72137 18.2252 2.92326 18.5176 3.13867C18.9621 3.46612 19.0576 4.0915 18.7305 4.53613C18.403 4.98067 17.7767 5.07625 17.332 4.74902C17.0925 4.57256 16.8436 4.40728 16.5869 4.25488C16.3101 4.09053 16.0233 3.94105 15.7285 3.80664C15.2261 3.57746 15.0053 2.9839 15.2344 2.48145ZM12 1C12.4169 1 12.8288 1.02302 13.2344 1.06836C13.7832 1.12972 14.1785 1.62496 14.1172 2.17383C14.0557 2.72253 13.5605 3.11799 13.0117 3.05664C12.68 3.01957 12.3424 3 12 3C11.6576 3 11.32 3.01957 10.9883 3.05664C10.4395 3.11799 9.94433 2.72253 9.88281 2.17383C9.82145 1.62496 10.2168 1.12972 10.7656 1.06836C11.1712 1.02302 11.5831 1 12 1Z" fill="#9E9E9E"/>
</g>
</svg>
