<svg width="24" height="24" viewBox="0 0 24 24" fill="none" xmlns="http://www.w3.org/2000/svg">
<g id="icons/Abstract/hexagonal">
<path id="Union" d="M12.0439 1.00098C12.0531 1.00137 12.0622 1.00131 12.0713 1.00195C12.0804 1.00262 12.0895 1.00397 12.0986 1.00488C12.1117 1.00617 12.1247 1.00796 12.1377 1.00977C12.1567 1.01242 12.1755 1.0158 12.1943 1.01953C12.2002 1.02068 12.2061 1.0212 12.2119 1.02246L12.2666 1.03613C12.2706 1.03723 12.2744 1.03889 12.2783 1.04004C12.3273 1.05427 12.3755 1.07254 12.4229 1.09473C12.44 1.10272 12.4569 1.11114 12.4736 1.12012C12.48 1.12356 12.4868 1.12629 12.4932 1.12988C12.4967 1.1319 12.5004 1.13369 12.5039 1.13574C12.5049 1.13633 12.5058 1.1371 12.5068 1.1377L21.0068 6.1377C21.0129 6.14127 21.0184 6.14572 21.0244 6.14941L21.0254 6.15039C21.0402 6.15959 21.055 6.16877 21.0693 6.17871C21.0807 6.18656 21.0916 6.19487 21.1025 6.20312C21.1094 6.20832 21.1163 6.21339 21.123 6.21875C21.1296 6.22396 21.1362 6.22901 21.1426 6.23438C21.1564 6.24598 21.1695 6.25827 21.1826 6.27051C21.1907 6.27807 21.1992 6.28515 21.207 6.29297L21.2129 6.29883C21.2143 6.30031 21.2154 6.30222 21.2168 6.30371C21.2316 6.31898 21.246 6.33451 21.2598 6.35059C21.2659 6.35781 21.2714 6.36564 21.2773 6.37305C21.2896 6.38826 21.3022 6.40311 21.3135 6.41895C21.3208 6.42922 21.328 6.43963 21.335 6.4502C21.3441 6.46404 21.353 6.47795 21.3613 6.49219C21.3658 6.49984 21.3697 6.50785 21.374 6.51562C21.3774 6.52174 21.3805 6.52799 21.3838 6.53418C21.3906 6.54709 21.3971 6.56007 21.4033 6.57324C21.4259 6.62087 21.4451 6.67028 21.46 6.72168C21.4647 6.73815 21.4687 6.75479 21.4727 6.77148C21.4755 6.78346 21.4781 6.79548 21.4805 6.80762C21.4833 6.82186 21.4851 6.83622 21.4873 6.85059C21.4888 6.86033 21.49 6.87007 21.4912 6.87988C21.4925 6.89061 21.4942 6.90128 21.4951 6.91211C21.4967 6.92998 21.4974 6.94785 21.498 6.96582C21.4984 6.97718 21.5 6.98855 21.5 7V17C21.5 17.0111 21.4984 17.0222 21.498 17.0332C21.4974 17.0512 21.4967 17.069 21.4951 17.0869C21.4942 17.0974 21.4924 17.1078 21.4912 17.1182C21.49 17.1286 21.4889 17.139 21.4873 17.1494C21.4852 17.1635 21.4832 17.1775 21.4805 17.1914C21.4781 17.2036 21.4754 17.2156 21.4727 17.2275C21.4687 17.2442 21.4647 17.2609 21.46 17.2773C21.4451 17.3288 21.4258 17.3781 21.4033 17.4258C21.3971 17.439 21.3906 17.4519 21.3838 17.4648C21.3812 17.4697 21.3786 17.4746 21.376 17.4795C21.37 17.4904 21.3638 17.5011 21.3574 17.5117C21.35 17.5241 21.3429 17.5367 21.335 17.5488C21.3282 17.559 21.3215 17.5692 21.3145 17.5791C21.3029 17.5953 21.2899 17.6104 21.2773 17.626C21.2714 17.6334 21.2659 17.6412 21.2598 17.6484C21.2469 17.6635 21.2335 17.678 21.2197 17.6924C21.2157 17.6965 21.2121 17.701 21.208 17.7051C21.2022 17.711 21.1955 17.7159 21.1895 17.7217C21.1742 17.7363 21.1589 17.7509 21.1426 17.7646C21.1371 17.7693 21.1316 17.7738 21.126 17.7783C21.1169 17.7856 21.107 17.7918 21.0977 17.7988C21.0882 17.8059 21.0791 17.8135 21.0693 17.8203C21.0555 17.83 21.0417 17.8397 21.0273 17.8486C21.0251 17.85 21.0228 17.8512 21.0205 17.8525C21.0157 17.8554 21.0117 17.8595 21.0068 17.8623L12.5068 22.8623C12.5041 22.8639 12.5008 22.8646 12.498 22.8662C12.4963 22.8672 12.495 22.8691 12.4932 22.8701C12.4868 22.8737 12.48 22.8764 12.4736 22.8799C12.4581 22.8882 12.4417 22.8948 12.4258 22.9023C12.4218 22.9042 12.418 22.9064 12.4141 22.9082C12.4081 22.9109 12.4025 22.9144 12.3965 22.917C12.3855 22.9218 12.3744 22.9263 12.3633 22.9307C12.3571 22.9331 12.3509 22.9352 12.3447 22.9375C12.325 22.9448 12.3051 22.9511 12.2852 22.957C12.269 22.9618 12.2527 22.9657 12.2363 22.9697C12.2223 22.9732 12.2084 22.9767 12.1943 22.9795C12.1778 22.9828 12.1612 22.9858 12.1445 22.9883C12.1377 22.9893 12.1309 22.9904 12.124 22.9912C12.1155 22.9923 12.1071 22.9933 12.0986 22.9941C12.0814 22.9959 12.0642 22.9962 12.0469 22.9971C12.0338 22.9977 12.0209 22.9989 12.0078 22.999C12.0023 22.9991 11.9968 22.9991 11.9912 22.999C11.9782 22.9989 11.9652 22.9977 11.9521 22.9971C11.9348 22.9962 11.9176 22.9959 11.9004 22.9941C11.8919 22.9933 11.8835 22.9923 11.875 22.9912C11.8681 22.9903 11.8613 22.9893 11.8545 22.9883C11.8378 22.9858 11.8212 22.9828 11.8047 22.9795C11.7897 22.9765 11.7747 22.9734 11.7598 22.9697C11.7447 22.966 11.7298 22.9615 11.7148 22.957C11.6946 22.951 11.6743 22.9449 11.6543 22.9375C11.6474 22.935 11.6406 22.9324 11.6338 22.9297C11.6233 22.9256 11.6129 22.9215 11.6025 22.917C11.5936 22.9131 11.585 22.9085 11.5762 22.9043C11.5594 22.8965 11.5427 22.8887 11.5264 22.8799C11.52 22.8764 11.5132 22.8737 11.5068 22.8701C11.5038 22.8684 11.5011 22.866 11.498 22.8643C11.4965 22.8634 11.4947 22.8632 11.4932 22.8623L2.99316 17.8623L2.97266 17.8486C2.95806 17.8395 2.94377 17.8301 2.92969 17.8203C2.91834 17.8124 2.90741 17.8042 2.89648 17.7959C2.88962 17.7907 2.88269 17.7856 2.87598 17.7803C2.86946 17.7751 2.86282 17.77 2.85645 17.7646C2.84011 17.7509 2.82485 17.7363 2.80957 17.7217C2.80424 17.7166 2.79818 17.7122 2.79297 17.707L2.78711 17.7012C2.78533 17.6994 2.78399 17.6971 2.78223 17.6953C2.7674 17.68 2.75297 17.6645 2.73926 17.6484C2.73309 17.6412 2.72765 17.6334 2.72168 17.626C2.70927 17.6105 2.69696 17.5952 2.68555 17.5791C2.67837 17.569 2.67087 17.5592 2.66406 17.5488C2.65523 17.5354 2.64682 17.5217 2.63867 17.5078C2.63357 17.4991 2.62887 17.4903 2.62402 17.4814C2.621 17.476 2.61815 17.4704 2.61523 17.4648C2.60847 17.4519 2.60189 17.439 2.5957 17.4258C2.57324 17.3781 2.55387 17.3287 2.53906 17.2773C2.53431 17.2609 2.53027 17.2442 2.52637 17.2275C2.52358 17.2156 2.52091 17.2035 2.51855 17.1914C2.51533 17.1749 2.51314 17.1583 2.51074 17.1416C2.5099 17.1357 2.50855 17.1299 2.50781 17.124C2.50629 17.1117 2.50498 17.0994 2.50391 17.0869C2.50233 17.0691 2.50159 17.0512 2.50098 17.0332C2.50062 17.0222 2.5 17.0111 2.5 17V7C2.5 6.98856 2.5006 6.97717 2.50098 6.96582C2.50161 6.94787 2.50231 6.92996 2.50391 6.91211C2.50502 6.89935 2.50623 6.88664 2.50781 6.87402C2.50843 6.86913 2.50907 6.86425 2.50977 6.85938C2.51224 6.84204 2.51518 6.82478 2.51855 6.80762C2.52092 6.79549 2.52357 6.78345 2.52637 6.77148C2.53029 6.75481 2.5343 6.73813 2.53906 6.72168C2.55006 6.68365 2.56288 6.64637 2.57812 6.61035L2.60449 6.55469C2.60792 6.54778 2.61164 6.54102 2.61523 6.53418C2.6185 6.52799 2.62161 6.52173 2.625 6.51562C2.6293 6.50786 2.63319 6.49984 2.6377 6.49219C2.64605 6.47796 2.65498 6.46403 2.66406 6.4502C2.67102 6.43964 2.6782 6.42922 2.68555 6.41895C2.69682 6.40312 2.70944 6.38826 2.72168 6.37305C2.72765 6.36565 2.73308 6.35781 2.73926 6.35059C2.74941 6.33869 2.75975 6.32689 2.77051 6.31543L2.79297 6.29297C2.80079 6.28515 2.80931 6.27807 2.81738 6.27051C2.8303 6.25844 2.84279 6.24583 2.85645 6.23438C2.86282 6.22901 2.86946 6.22396 2.87598 6.21875C2.88268 6.21339 2.88962 6.20832 2.89648 6.20312C2.90741 6.19487 2.91835 6.18657 2.92969 6.17871C2.94421 6.16861 2.95954 6.15973 2.97461 6.15039V6.14941C2.98082 6.14557 2.98685 6.14141 2.99316 6.1377L11.4697 1.15137C11.4778 1.14634 11.486 1.1415 11.4941 1.13672C11.4983 1.1343 11.5027 1.13226 11.5068 1.12988C11.5132 1.12629 11.52 1.12356 11.5264 1.12012C11.5428 1.11128 11.5593 1.10261 11.5762 1.09473C11.5937 1.0865 11.6111 1.07841 11.6289 1.07129C11.6373 1.06793 11.6458 1.06465 11.6543 1.06152C11.6763 1.05341 11.6985 1.04652 11.7207 1.04004C11.7324 1.03664 11.7441 1.03325 11.7559 1.03027C11.7721 1.02618 11.7884 1.02278 11.8047 1.01953C11.8238 1.01572 11.843 1.01247 11.8623 1.00977C11.875 1.008 11.8877 1.00615 11.9004 1.00488C11.9079 1.00413 11.9154 1.00352 11.9229 1.00293L11.9502 1.00098C11.9551 1.00073 11.96 1.00115 11.9648 1.00098C11.9704 1.00079 11.9759 1.0001 11.9814 1H12.0186C12.027 1.00015 12.0355 1.00061 12.0439 1.00098ZM12 19.9707L13.1172 18H10.8828L12 19.9707ZM8.25684 18.6377L9.28906 19.2441L8.58398 18H7.17285L8.25684 18.6377ZM15.416 18L14.71 19.2441L15.7432 18.6377L16.8271 18H15.416ZM5.2168 16H7.4502L6.33301 14.0283L5.2168 16ZM7.48242 12L9.75 16H14.25L16.5166 12L14.25 8H9.75L7.48242 12ZM16.5498 16H18.7832L17.666 14.0283L16.5498 16ZM18.8154 11.999L19.5 13.2061V10.791L18.8154 11.999ZM4.5 13.2051L5.18359 11.999L4.5 10.792V13.2051ZM6.33301 9.9707L7.4502 8H5.21582L6.33301 9.9707ZM17.666 9.9707L18.7842 8H16.5498L17.666 9.9707ZM15.416 6H16.8281L15.7432 5.3623L14.71 4.75391L15.416 6ZM8.25684 5.3623L7.17188 6H8.58398L9.28906 4.75391L8.25684 5.3623ZM10.8828 6H13.1172L11.999 4.02832L10.8828 6Z" fill="#9E9E9E"/>
</g>
</svg>
