<svg width="24" height="24" viewBox="0 0 24 24" fill="none" xmlns="http://www.w3.org/2000/svg">
<g id="icons/Abstract/hexagon-strip">
<path id="Union" d="M14.4998 1C15.052 1 15.4998 1.44772 15.4998 2V5.9375L18.9099 3.96875C19.1395 3.83621 19.4126 3.80065 19.6687 3.86914C19.9248 3.93777 20.1435 4.10534 20.2761 4.33496L22.7761 8.66504C23.0523 9.14333 22.8882 9.75511 22.4099 10.0312L18.9998 12L22.4099 13.9688C22.6396 14.1013 22.8071 14.32 22.8757 14.5762C22.9444 14.8323 22.9087 15.1053 22.7761 15.335L20.2761 19.665C20.1435 19.8947 19.9248 20.0622 19.6687 20.1309C19.4126 20.1993 19.1395 20.1638 18.9099 20.0312L15.4998 18.0615V22C15.4998 22.5523 15.052 23 14.4998 23H9.49976C8.94764 22.9998 8.49976 22.5522 8.49976 22V18.0615L5.0896 20.0312C4.85997 20.1637 4.58689 20.1995 4.33081 20.1309C4.07474 20.0622 3.85595 19.8946 3.72339 19.665L1.22339 15.335C1.09087 15.1053 1.0552 14.8323 1.12378 14.5762C1.1924 14.3201 1.36002 14.1014 1.5896 13.9688L4.99878 12L1.5896 10.0312C1.11153 9.75509 0.94744 9.14323 1.22339 8.66504L3.72339 4.33496L3.7771 4.25195C3.9112 4.06504 4.10669 3.92926 4.33081 3.86914C4.58689 3.80052 4.85997 3.83627 5.0896 3.96875L8.49976 5.9375V2C8.49976 1.44784 8.94764 1.0002 9.49976 1H14.4998ZM10.4998 7.66992C10.4997 8.02716 10.3091 8.35751 9.99976 8.53613C9.69044 8.71453 9.30902 8.71467 8.99976 8.53613L4.95483 6.20117L3.45581 8.79883L7.49976 11.1338C7.80916 11.3124 7.99976 11.6427 7.99976 12C7.99975 12.3573 7.80916 12.6876 7.49976 12.8662L3.45581 15.2002L4.95483 17.7979L8.99976 15.4639C9.30903 15.2853 9.69043 15.2854 9.99976 15.4639C10.3092 15.6425 10.4997 15.9728 10.4998 16.3301V21H13.4998V16.3301C13.4998 15.9729 13.6905 15.6425 13.9998 15.4639C14.309 15.2853 14.6904 15.2854 14.9998 15.4639L19.0437 17.7979L20.5427 15.2002L16.4998 12.8662C16.1905 12.6876 15.9998 12.3572 15.9998 12C15.9998 11.6428 16.1905 11.3124 16.4998 11.1338L20.5427 8.79883L19.0437 6.20117L14.9998 8.53613C14.6904 8.71453 14.309 8.71467 13.9998 8.53613C13.6905 8.35748 13.4998 8.02708 13.4998 7.66992V3H10.4998V7.66992Z" fill="#9E9E9E"/>
</g>
</svg>
