<svg width="24" height="24" viewBox="0 0 24 24" fill="none" xmlns="http://www.w3.org/2000/svg">
<g id="icons/Abstract/inclusive-gateway" clip-path="url(#clip0_56_5979)">
<path id="Union" d="M10.6925 1.39355C11.4735 0.612499 12.7396 0.612504 13.5206 1.39355L22.713 10.5859C23.4939 11.367 23.494 12.6331 22.713 13.4141L13.5206 22.6064C12.7397 23.3874 11.4735 23.3873 10.6925 22.6064L1.50012 13.4141C0.71906 12.633 0.719079 11.367 1.50012 10.5859L10.6925 1.39355ZM2.91418 12L12.1066 21.1924L21.299 12L12.1066 2.80762L2.91418 12ZM12.0001 7C14.7615 7.00008 17.0001 9.23862 17.0001 12C17 14.7613 14.7614 16.9999 12.0001 17C9.23874 17 7.0002 14.7614 7.00012 12C7.00012 9.23857 9.23869 7 12.0001 7ZM12.0001 9C10.3433 9 9.00012 10.3431 9.00012 12C9.0002 13.6568 10.3433 15 12.0001 15C13.6569 14.9999 15 13.6567 15.0001 12C15.0001 10.3432 13.6569 9.00008 12.0001 9Z" fill="#9E9E9E"/>
</g>
<defs>
<clipPath id="clip0_56_5979">
<rect width="24" height="24" fill="white"/>
</clipPath>
</defs>
</svg>
