<svg width="24" height="24" viewBox="0 0 24 24" fill="none" xmlns="http://www.w3.org/2000/svg">
<g id="icons/Abstract/internal-data">
<path id="Union" d="M21 14C21.5523 14 22 14.4477 22 15V19.5C22 20.8807 20.8807 22 19.5 22H4.5C3.1193 22 2 20.8807 2 19.5V15C2 14.4477 2.44772 14 3 14C3.55228 14 4 14.4477 4 15V19.5C4 19.7762 4.22385 20 4.5 20H19.5C19.7762 20 20 19.7762 20 19.5V15C20 14.4477 20.4477 14 21 14ZM8 8.5C8.55228 8.5 9 8.94772 9 9.5V15.5C9 16.0523 8.55228 16.5 8 16.5C7.44772 16.5 7 16.0523 7 15.5V9.5C7 8.94772 7.44772 8.5 8 8.5ZM12 6.5C12.5523 6.5 13 6.94772 13 7.5V15.5C13 16.0523 12.5523 16.5 12 16.5C11.4477 16.5 11 16.0523 11 15.5V7.5C11 6.94772 11.4477 6.5 12 6.5ZM16 11C16.5523 11 17 11.4477 17 12V15.5C17 16.0523 16.5523 16.5 16 16.5C15.4477 16.5 15 16.0523 15 15.5V12C15 11.4477 15.4477 11 16 11ZM19.5 2C20.8807 2 22 3.1193 22 4.5V9C22 9.55228 21.5523 10 21 10C20.4477 10 20 9.55228 20 9V4.5C20 4.22385 19.7762 4 19.5 4H4.5C4.22386 4 4 4.22386 4 4.5V9C4 9.55228 3.55228 10 3 10C2.44772 10 2 9.55228 2 9V4.5C2 3.11929 3.11929 2 4.5 2H19.5Z" fill="#9E9E9E"/>
</g>
</svg>
