<svg width="24" height="24" viewBox="0 0 24 24" fill="none" xmlns="http://www.w3.org/2000/svg">
<g id="icons/Abstract/internal-transmission">
<path id="Union" d="M19.5 2C20.8807 2 22 3.1193 22 4.5V7C22 7.55228 21.5523 8 21 8C20.4477 8 20 7.55228 20 7V4.5C20 4.22385 19.7762 4 19.5 4H11.5V13C11.5 14.9816 10.6014 16.8908 9.37695 18.4297C8.92683 18.9953 8.42166 19.5234 7.88281 20H19.5C19.7762 20 20 19.7762 20 19.5V17.75C20 17.1977 20.4477 16.75 21 16.75C21.5523 16.75 22 17.1977 22 17.75V19.5C22 20.8807 20.8807 22 19.5 22H4.5L4.49707 21.999C4.46333 21.9989 4.4298 21.9976 4.39648 21.9941C3.06386 21.9398 2 20.846 2 19.5V4.5C2 3.11929 3.11929 2 4.5 2H19.5ZM4.5 4C4.22386 4 4 4.22386 4 4.5V19.5C4 19.7231 4.14694 19.9092 4.34863 19.9736C5.56446 19.4129 6.83186 18.4157 7.81152 17.1846C8.8575 15.8701 9.5 14.3878 9.5 13V4H4.5ZM17.293 8.79297C17.6835 8.40244 18.3165 8.40244 18.707 8.79297C19.0976 9.18349 19.0976 9.81651 18.707 10.207L17.4141 11.5H21C21.5523 11.5 22 11.9477 22 12.5C22 13.0523 21.5523 13.5 21 13.5H17.4141L18.707 14.793C19.0976 15.1835 19.0976 15.8165 18.707 16.207C18.3165 16.5976 17.6835 16.5976 17.293 16.207L14.293 13.207C14.2654 13.1794 14.2405 13.15 14.2168 13.1201C14.1807 13.0745 14.148 13.0261 14.1201 12.9746C14.1127 12.9609 14.1063 12.9466 14.0996 12.9326C14.0778 12.8873 14.0578 12.8408 14.043 12.792C14.0303 12.7503 14.0218 12.7077 14.0146 12.665C14.0057 12.6113 14 12.5563 14 12.5C14 12.4203 14.0097 12.3429 14.0273 12.2686C14.0322 12.248 14.0368 12.2273 14.043 12.207C14.0579 12.1583 14.0778 12.1117 14.0996 12.0664C14.1188 12.0266 14.1403 11.9877 14.165 11.9502C14.2024 11.8935 14.2452 11.8408 14.293 11.793L17.293 8.79297Z" fill="#9E9E9E"/>
</g>
</svg>
