<svg width="24" height="24" viewBox="0 0 24 24" fill="none" xmlns="http://www.w3.org/2000/svg">
<g id="icons/Abstract/keyline">
<path id="Union" d="M21.293 1.29297C21.6835 0.902444 22.3165 0.902444 22.707 1.29297C23.0975 1.6835 23.0975 2.31653 22.707 2.70703L22 3.41406V20.5859L22.707 21.293C23.0975 21.6835 23.0975 22.3165 22.707 22.707C22.3165 23.0975 21.6835 23.0975 21.293 22.707L20.5859 22H3.41406L2.70703 22.707C2.31653 23.0975 1.6835 23.0975 1.29297 22.707C0.902444 22.3165 0.902444 21.6835 1.29297 21.293L2 20.5859V3.41406L1.29297 2.70703C0.902444 2.31651 0.902444 1.68349 1.29297 1.29297C1.68349 0.902444 2.31651 0.902444 2.70703 1.29297L3.41406 2H20.5859L21.293 1.29297ZM16.1914 17.6055C15.0229 18.4806 13.5723 19 12 19C10.4274 19 8.97628 18.4809 7.80762 17.6055L5.41406 20H18.5859L16.1914 17.6055ZM17.6055 7.80762C18.4809 8.97628 19 10.4274 19 12C19 13.5723 18.4806 15.0229 17.6055 16.1914L20 18.5859V5.41406L17.6055 7.80762ZM4 18.5859L6.39355 16.1914C5.51855 15.0229 5.00002 13.5721 5 12C5 10.4276 5.5183 8.97621 6.39355 7.80762L4 5.41406V18.5859ZM9.24219 16.1709C10.0327 16.6946 10.9807 17 12 17C13.019 17 13.9664 16.6944 14.7568 16.1709L12 13.4141L9.24219 16.1709ZM7.82812 9.24219C7.30454 10.0327 7 10.9809 7 12C7.00002 13.0189 7.30479 13.9665 7.82812 14.7568L10.5859 12L7.82812 9.24219ZM13.4141 12L16.1709 14.7568C16.6944 13.9664 17 13.019 17 12C17 10.9807 16.6946 10.0327 16.1709 9.24219L13.4141 12ZM12 7C10.9809 7 10.0327 7.30454 9.24219 7.82812L12 10.5859L14.7568 7.82812C13.9665 7.30479 13.0189 7.00002 12 7ZM7.80762 6.39355C8.97621 5.5183 10.4276 5 12 5C13.5721 5.00002 15.0229 5.51855 16.1914 6.39355L18.5859 4H5.41406L7.80762 6.39355Z" fill="#9E9E9E"/>
</g>
</svg>
