<svg width="24" height="24" viewBox="0 0 24 24" fill="none" xmlns="http://www.w3.org/2000/svg">
<g id="icons/Abstract/misaligned-semicircle">
<path id="Union" d="M14 8C17.866 8 21 11.134 21 15C21 18.866 17.866 22 14 22C13.4477 22 13 21.5523 13 21C13 20.4477 13.4477 20 14 20C16.7614 20 19 17.7614 19 15C19 12.2386 16.7614 10 14 10C13.4477 10 13 9.55228 13 9C13 8.44772 13.4477 8 14 8ZM14 12C15.6568 12 17 13.3432 17 15C17 16.6568 15.6568 18 14 18C13.4477 18 13 17.5523 13 17C13 16.4823 13.3933 16.0562 13.8975 16.0049L14.1025 15.9951C14.6067 15.9438 15 15.5177 15 15C15 14.4823 14.6067 14.0562 14.1025 14.0049L13.8975 13.9951C13.3933 13.9438 13 13.5177 13 13C13 12.4477 13.4477 12 14 12ZM10 2C10.5523 2 11 2.44772 11 3C11 3.55228 10.5523 4 10 4C7.23858 4 5 6.23858 5 9C5 11.7614 7.23858 14 10 14C10.5523 14 11 14.4477 11 15C11 15.5523 10.5523 16 10 16C6.13402 16 3 12.866 3 9C3 5.13402 6.13402 2 10 2ZM10 6C10.5523 6 11 6.44772 11 7C11 7.51768 10.6067 7.94379 10.1025 7.99512L9.89746 8.00488C9.39335 8.05622 9 8.48234 9 9C9 9.51766 9.39335 9.94378 9.89746 9.99512L10.1025 10.0049C10.6067 10.0562 11 10.4823 11 11C11 11.5523 10.5523 12 10 12C8.34317 12 7 10.6568 7 9C7 7.34317 8.34317 6 10 6Z" fill="#9E9E9E"/>
</g>
</svg>
