<svg width="24" height="24" viewBox="0 0 24 24" fill="none" xmlns="http://www.w3.org/2000/svg">
<g id="icons/Abstract/multi-circular">
<path id="Union" d="M12 1C18.0751 1 23 5.92487 23 12C23 18.0751 18.0751 23 12 23C5.92487 23 1 18.0751 1 12C1 5.92487 5.92487 1 12 1ZM12 15C10.3431 15 9 16.3431 9 18C9 19.6569 10.3431 21 12 21C13.6569 21 15 19.6569 15 18C15 16.3431 13.6569 15 12 15ZM12 9C8.68629 9 6 11.6863 6 15C6 16.2345 6.37254 17.3821 7.01172 18.3359C7.00435 18.2249 7 18.1129 7 18C7 15.2386 9.23857 13 12 13C14.7614 13 17 15.2386 17 18C17 18.1129 16.9947 18.2249 16.9873 18.3359C17.6267 17.382 18 16.2347 18 15C18 11.6863 15.3137 9 12 9ZM12 3C7.02943 3 3 7.02943 3 12C3 13.5725 3.40354 15.0506 4.1123 16.3369C4.03915 15.9021 4 15.4556 4 15C4 10.5817 7.58172 7 12 7C16.4183 7 20 10.5817 20 15C20 15.4557 19.9599 15.9021 19.8867 16.3369C20.5956 15.0505 21 13.5726 21 12C21 7.02943 16.9706 3 12 3Z" fill="#9E9E9E"/>
</g>
</svg>
