<svg width="24" height="24" viewBox="0 0 24 24" fill="none" xmlns="http://www.w3.org/2000/svg">
<g id="icons/Abstract/multi-triangular-three">
<path id="Union" d="M11.9996 2C12.0408 2 12.0818 2.00297 12.1217 2.00781C12.1325 2.00914 12.1432 2.01102 12.1539 2.0127C12.185 2.01751 12.2156 2.02364 12.2457 2.03125C12.2542 2.03341 12.2627 2.03571 12.2711 2.03809C12.3485 2.05986 12.4222 2.09017 12.4908 2.12891C12.5001 2.13414 12.5091 2.13998 12.5182 2.14551C12.5459 2.16235 12.5724 2.18082 12.5983 2.2002C12.6041 2.20453 12.6101 2.20843 12.6158 2.21289C12.6795 2.26278 12.7368 2.32015 12.7867 2.38379C12.7916 2.38999 12.7967 2.39602 12.8014 2.40234C12.8314 2.4425 12.8587 2.4848 12.8824 2.5293L22.8678 20.0039C22.8695 20.0069 22.87 20.0107 22.8717 20.0137C22.8866 20.0405 22.9004 20.0677 22.9127 20.0957C22.9178 20.1072 22.9237 20.1183 22.9283 20.1299C22.9414 20.1627 22.952 20.1964 22.9615 20.2305C22.9655 20.2447 22.9689 20.2591 22.9723 20.2734C22.9782 20.2986 22.983 20.324 22.9869 20.3496C22.9889 20.3623 22.9904 20.375 22.9918 20.3877C23.0003 20.4622 23.0014 20.5377 22.9928 20.6133C22.9909 20.63 22.9877 20.6465 22.985 20.6631C22.9814 20.6846 22.9773 20.7061 22.9723 20.7275C22.9682 20.7452 22.9637 20.7628 22.9586 20.7803C22.953 20.7993 22.9468 20.8181 22.9401 20.8369C22.9286 20.8688 22.9148 20.8998 22.9 20.9307C22.892 20.9475 22.8847 20.9649 22.8756 20.9814C22.8748 20.9829 22.8735 20.9839 22.8727 20.9854C22.8697 20.9906 22.8679 20.9967 22.8649 21.002C22.8578 21.0142 22.849 21.0253 22.8414 21.0371C22.8321 21.0518 22.8222 21.066 22.8121 21.0801C22.7994 21.098 22.7869 21.1159 22.7731 21.1328C22.7591 21.1499 22.744 21.1657 22.7291 21.1816C22.7179 21.1936 22.7067 21.2054 22.6949 21.2168C22.6706 21.2404 22.6461 21.2634 22.6198 21.2842C22.6054 21.2955 22.5898 21.3049 22.5748 21.3154C22.5565 21.3283 22.5382 21.341 22.5192 21.3525C22.5054 21.3609 22.4913 21.3683 22.4772 21.376C22.4572 21.3869 22.4373 21.3978 22.4166 21.4072C22.4014 21.4142 22.3863 21.4215 22.3707 21.4277C22.339 21.4404 22.3068 21.4516 22.274 21.4609C22.2589 21.4652 22.2435 21.4681 22.2281 21.4717C22.2046 21.4772 22.1808 21.4815 22.1569 21.4854C22.1403 21.488 22.1238 21.4904 22.1071 21.4922C22.0775 21.4954 22.048 21.4975 22.0182 21.498C22.0121 21.4982 22.0057 21.5 21.9996 21.5H1.99963C1.9931 21.5 1.98662 21.4982 1.9801 21.498C1.95063 21.4974 1.9214 21.4954 1.89221 21.4922C1.87547 21.4904 1.85895 21.488 1.84241 21.4854C1.81846 21.4815 1.7947 21.4772 1.77112 21.4717C1.75579 21.4681 1.74032 21.4653 1.72522 21.4609C1.69245 21.4516 1.66022 21.4404 1.62854 21.4277C1.61296 21.4215 1.59787 21.4142 1.58264 21.4072C1.56199 21.3977 1.5421 21.3869 1.52209 21.376C1.50799 21.3683 1.49382 21.3609 1.4801 21.3525C1.46106 21.3409 1.44273 21.3283 1.42444 21.3154C1.40974 21.3051 1.39463 21.2953 1.38049 21.2842C1.35505 21.2641 1.32985 21.2434 1.30627 21.2207L1.29553 21.21C1.28997 21.2044 1.28534 21.198 1.27991 21.1924C1.26148 21.1732 1.24321 21.1537 1.2262 21.1328C1.21373 21.1176 1.20167 21.102 1.19006 21.0859C1.17871 21.0702 1.16837 21.0537 1.15784 21.0371C1.15032 21.0253 1.14145 21.0141 1.1344 21.002C1.13148 20.9969 1.12941 20.9914 1.12659 20.9863C1.1257 20.9847 1.12454 20.9831 1.12366 20.9814C1.11456 20.9649 1.10731 20.9475 1.09924 20.9307C1.08448 20.8998 1.07062 20.8688 1.0592 20.8369C1.05245 20.8181 1.04622 20.7993 1.04065 20.7803C1.03555 20.7628 1.0311 20.7452 1.02698 20.7275C1.02195 20.7061 1.01785 20.6846 1.01428 20.6631C1.01155 20.6465 1.00836 20.63 1.00647 20.6133C1.00407 20.5922 1.0036 20.5709 1.00256 20.5498C1.00089 20.5159 1.00079 20.4821 1.00256 20.4482C1.00343 20.4319 1.00384 20.4156 1.00549 20.3994C1.00768 20.3778 1.01069 20.3564 1.01428 20.335C1.01776 20.3143 1.02222 20.2938 1.02698 20.2734C1.0297 20.2618 1.03164 20.2499 1.03479 20.2383C1.055 20.1638 1.08385 20.0916 1.12073 20.0234C1.12426 20.0169 1.12778 20.0104 1.13147 20.0039L11.1315 2.50391L11.1422 2.48633C11.1575 2.46088 11.1736 2.43602 11.191 2.41211L11.2047 2.39258C11.2096 2.38621 11.2153 2.38026 11.2203 2.37402C11.2306 2.36124 11.2417 2.34917 11.2526 2.33691C11.2641 2.32395 11.2746 2.31015 11.2867 2.29785C11.2992 2.28522 11.3127 2.27368 11.3258 2.26172C11.3529 2.237 11.3812 2.21389 11.4108 2.19238C11.4224 2.18386 11.4339 2.17502 11.4459 2.16699C11.4588 2.15843 11.4727 2.1515 11.486 2.14355C11.5049 2.13214 11.5238 2.12052 11.5436 2.11035C11.552 2.10604 11.5604 2.10173 11.569 2.09766C11.5941 2.08561 11.6198 2.0744 11.6461 2.06445C11.6555 2.06093 11.665 2.05794 11.6744 2.05469C11.6959 2.0473 11.7178 2.0411 11.7399 2.03516C11.7551 2.03106 11.7703 2.02682 11.7858 2.02344C11.8105 2.01803 11.8356 2.0133 11.861 2.00977C11.8694 2.00858 11.8778 2.00683 11.8864 2.00586C11.9235 2.00166 11.9614 2.00002 11.9996 2ZM5.89221 19.5H18.1071L11.9987 16.1396L5.89221 19.5ZM12.9996 14.4092L19.3698 17.9121L12.9996 6.76465V14.4092ZM4.62854 17.9121L10.9996 14.4092V6.76465L4.62854 17.9121Z" fill="#9E9E9E"/>
</g>
</svg>
