<svg width="24" height="24" viewBox="0 0 24 24" fill="none" xmlns="http://www.w3.org/2000/svg">
<g id="icons/Abstract/multi-triangular-four">
<path id="Union" d="M12 2C12.0417 2 12.0827 2.00287 12.123 2.00781C12.1326 2.00899 12.1419 2.01125 12.1514 2.0127C12.1842 2.01768 12.2164 2.02413 12.248 2.03223C12.2549 2.03397 12.2618 2.03522 12.2686 2.03711C12.3453 2.05848 12.4182 2.08891 12.4863 2.12695C12.4986 2.13378 12.5105 2.1411 12.5225 2.14844C12.5469 2.16347 12.5707 2.17927 12.5938 2.19629C12.6027 2.20291 12.6114 2.20988 12.6201 2.2168C12.6793 2.26374 12.733 2.317 12.7803 2.37598C12.7897 2.38776 12.7987 2.39986 12.8076 2.41211C12.8251 2.43604 12.8411 2.46086 12.8564 2.48633C12.8601 2.49235 12.8647 2.49779 12.8682 2.50391L22.8682 20.0039C22.8699 20.0069 22.8704 20.0106 22.8721 20.0137C22.8894 20.0448 22.9051 20.0767 22.9189 20.1094C22.9219 20.1162 22.925 20.123 22.9277 20.1299C22.942 20.1657 22.9548 20.202 22.9648 20.2393C22.9674 20.2486 22.9694 20.2581 22.9717 20.2676C22.9788 20.2972 22.9839 20.3272 22.9883 20.3574C22.9899 20.3688 22.9919 20.3802 22.9932 20.3916C23.006 20.5086 22.9975 20.6279 22.9678 20.7451C22.9655 20.7542 22.9635 20.7634 22.9609 20.7725C22.9519 20.8044 22.9411 20.8359 22.9287 20.8672C22.9259 20.8744 22.9229 20.8815 22.9199 20.8887C22.905 20.9238 22.8894 20.9591 22.8701 20.9932C22.8695 20.9943 22.8678 20.9949 22.8672 20.9961C22.8662 20.9978 22.8662 21.0002 22.8652 21.002C22.8612 21.0088 22.8557 21.0147 22.8516 21.0215C22.8356 21.0476 22.8187 21.0726 22.8008 21.0967C22.7917 21.1088 22.782 21.1202 22.7725 21.1318C22.757 21.1508 22.7412 21.169 22.7246 21.1865C22.7144 21.1972 22.7049 21.2085 22.6943 21.2188C22.6076 21.3026 22.5074 21.368 22.3994 21.415C22.3894 21.4194 22.3793 21.4237 22.3691 21.4277C22.3651 21.4293 22.3615 21.432 22.3574 21.4336L22.2607 21.4658C22.2544 21.4675 22.2476 21.4672 22.2412 21.4688C22.2086 21.4769 22.1758 21.4835 22.1426 21.4883C22.1338 21.4895 22.1251 21.4912 22.1162 21.4922C22.0828 21.4961 22.0493 21.4975 22.0156 21.498C22.0104 21.4981 22.0052 21.5 22 21.5H2C1.99445 21.5 1.98894 21.4981 1.9834 21.498C1.94968 21.4974 1.91617 21.4962 1.88281 21.4922C1.87397 21.4911 1.86524 21.4896 1.85645 21.4883C1.82319 21.4834 1.79037 21.4769 1.75781 21.4688C1.75176 21.4672 1.74527 21.4674 1.73926 21.4658L1.64258 21.4336C1.63851 21.432 1.63491 21.4293 1.63086 21.4277C1.61932 21.4231 1.60803 21.4181 1.59668 21.4131C1.56617 21.3996 1.53596 21.3856 1.50684 21.3691C1.50353 21.3673 1.50035 21.3652 1.49707 21.3633C1.4281 21.3232 1.36317 21.2754 1.30469 21.2188C1.2941 21.2085 1.28457 21.1972 1.27441 21.1865C1.25784 21.169 1.24198 21.1507 1.22656 21.1318C1.21705 21.1202 1.20726 21.1088 1.19824 21.0967C1.18035 21.0726 1.16339 21.0476 1.14746 21.0215C1.14342 21.0149 1.13866 21.0087 1.13477 21.002C1.13367 21.0001 1.13292 20.998 1.13184 20.9961C1.13126 20.9951 1.13046 20.9942 1.12988 20.9932C1.11054 20.959 1.09404 20.924 1.0791 20.8887C1.07609 20.8815 1.07315 20.8744 1.07031 20.8672C1.05791 20.8359 1.04714 20.8043 1.03809 20.7725C1.03553 20.7634 1.03355 20.7542 1.03125 20.7451C1.02311 20.713 1.01657 20.6808 1.01172 20.6484C1.01055 20.6406 1.0088 20.6329 1.00781 20.625C0.998028 20.547 0.997385 20.4687 1.00586 20.3916C1.00711 20.3802 1.0091 20.3688 1.01074 20.3574C1.01511 20.3272 1.02026 20.2972 1.02734 20.2676C1.0296 20.2581 1.03164 20.2486 1.03418 20.2393C1.04422 20.2021 1.05704 20.1657 1.07129 20.1299C1.07404 20.123 1.07717 20.1162 1.08008 20.1094C1.09393 20.0767 1.10964 20.0448 1.12695 20.0137C1.12872 20.0105 1.13003 20.0071 1.13184 20.0039L11.1318 2.50391L11.1426 2.48633C11.1579 2.46087 11.174 2.43603 11.1914 2.41211L11.2051 2.39258C11.21 2.38615 11.2157 2.38031 11.2207 2.37402C11.231 2.36124 11.242 2.34917 11.2529 2.33691C11.2644 2.32395 11.275 2.31015 11.2871 2.29785C11.2996 2.28522 11.3131 2.27368 11.3262 2.26172C11.3797 2.21289 11.4385 2.17075 11.501 2.13477C11.5133 2.12762 11.5254 2.11991 11.5381 2.11328C11.5491 2.10757 11.5601 2.10198 11.5713 2.09668C11.5968 2.08456 11.6228 2.07345 11.6494 2.06348C11.6572 2.06056 11.665 2.05741 11.6729 2.05469C11.6933 2.0476 11.7143 2.0419 11.7354 2.03613C11.7528 2.03134 11.7703 2.02631 11.7881 2.02246C11.8138 2.01692 11.8398 2.01232 11.8662 2.00879C11.8727 2.00791 11.8792 2.00661 11.8857 2.00586C11.9232 2.0016 11.9614 2 12 2ZM5.79297 19.5H11V16.5488L5.79297 19.5ZM13 19.5H18.207L13 16.5488V19.5ZM4.67285 17.835L9.9707 14.833L7.26465 13.2998L4.67285 17.835ZM14.0283 14.833L19.3252 17.835L16.7334 13.2998L14.0283 14.833ZM13 13.1162L15.7412 11.5625L13 6.76465V13.1162ZM8.25781 11.5625L11 13.1162V6.76465L8.25781 11.5625Z" fill="#9E9E9E"/>
</g>
</svg>
