<svg width="24" height="24" viewBox="0 0 24 24" fill="none" xmlns="http://www.w3.org/2000/svg">
<g id="icons/Abstract/multi-rectangle">
<path id="Union" d="M22 2.5C22.5523 2.5 23 2.94772 23 3.5V19.5C23 20.0523 22.5523 20.5 22 20.5H2C1.44772 20.5 1 20.0523 1 19.5V11.5C1 10.9477 1.44772 10.5 2 10.5H3V7.5C3 6.94772 3.44772 6.5 4 6.5H5V3.5C5 2.94772 5.44772 2.5 6 2.5H22ZM5 10.5H10C10.5523 10.5 11 10.9477 11 11.5V18.5H15V8.5H5V10.5ZM3 18.5H9V12.5H3V18.5ZM7 6.5H16C16.5523 6.5 17 6.94772 17 7.5V18.5H21V4.5H7V6.5Z" fill="#9E9E9E"/>
</g>
</svg>
