<svg width="24" height="24" viewBox="0 0 24 24" fill="none" xmlns="http://www.w3.org/2000/svg">
<g id="icons/Abstract/multi-triangular">
<path id="Union" d="M11.9999 2C12.3587 2 12.69 2.19235 12.868 2.50391L22.868 20.0039C23.0449 20.3134 23.044 20.6937 22.8651 21.002C22.6862 21.3102 22.3563 21.5 21.9999 21.5H1.99988C1.64344 21.5 1.31355 21.3102 1.13464 21.002C0.95582 20.6937 0.954907 20.3133 1.13171 20.0039L11.1317 2.50391L11.205 2.39258C11.3925 2.14702 11.6859 2.00003 11.9999 2ZM3.72253 19.5H6.4198L13.3475 7.37402L11.9999 5.01465L3.72253 19.5ZM13.7225 19.5H16.4198L18.3475 16.124L16.9999 13.7646L13.7225 19.5ZM18.7225 19.5H20.2772L19.4999 18.1396L18.7225 19.5ZM8.72253 19.5H11.4198L15.8475 11.749L14.4999 9.38965L8.72253 19.5Z" fill="#9E9E9E"/>
</g>
</svg>
