<svg width="24" height="24" viewBox="0 0 24 24" fill="none" xmlns="http://www.w3.org/2000/svg">
<g id="icons/Abstract/multilayer-sphere">
<path id="Union" d="M12 1C14.4662 1 16.7426 1.81194 18.5771 3.18262C18.5919 3.19302 18.6059 3.20455 18.6201 3.21582C19.4129 3.81422 20.1206 4.51823 20.7256 5.30566C20.7857 5.36777 20.8368 5.43575 20.8779 5.50879C21.3384 6.13753 21.7325 6.81687 22.0527 7.53711C22.0696 7.56931 22.0854 7.60195 22.0986 7.63574C22.3954 8.32157 22.6246 9.04323 22.7773 9.79297C22.7795 9.80302 22.7814 9.8131 22.7832 9.82324C22.9245 10.527 23 11.2547 23 12C23 18.0751 18.0751 23 12 23C5.92487 23 1 18.0751 1 12C1 11.2548 1.07457 10.5269 1.21582 9.82324C1.21765 9.81311 1.21954 9.80301 1.22168 9.79297C1.3744 9.04316 1.60455 8.32163 1.90137 7.63574C1.91454 7.60208 1.92955 7.56919 1.94629 7.53711C2.28027 6.78586 2.69357 6.078 3.17969 5.42676C3.20123 5.39596 3.22374 5.36546 3.24902 5.33691C3.85922 4.53674 4.57568 3.82221 5.37891 3.21582C5.39315 3.20455 5.40713 3.19303 5.42188 3.18262C7.25655 1.81166 9.53352 1 12 1ZM20.4883 14.9922C18.4709 17.4386 15.4191 19 12 19C8.5807 19 5.52815 17.4388 3.51074 14.9922C4.74417 18.4916 8.07859 21 12 21C15.9213 21 19.2548 18.4915 20.4883 14.9922ZM20.4902 10.9902C18.4734 13.4372 15.4206 15 12 15C8.58014 15 5.52759 13.4382 3.51074 10.9922C4.74398 14.4916 8.07942 16.9999 12 17C15.9213 17 19.2573 14.4906 20.4902 10.9902ZM4.11133 7.66406C4.0505 7.7745 3.99279 7.88679 3.93652 8C5.41029 10.9647 8.46807 13 12 13C15.5317 13 18.5887 10.9645 20.0625 8C20.0067 7.88769 19.949 7.77657 19.8887 7.66699C17.8873 9.72021 15.0939 10.9999 12 11C8.9049 11 6.10923 9.71976 4.11133 7.66406ZM17.9512 5.25098C16.2352 6.35684 14.1918 7 12 7C9.80789 7 7.76395 6.35711 6.04785 5.25098C5.78236 5.4853 5.53018 5.73428 5.29395 5.99805C6.94309 7.84061 9.33517 9 12 9C14.6623 8.99993 17.0525 7.84199 18.707 6.00098C18.4701 5.73625 18.2176 5.48607 17.9512 5.25098ZM12 3C10.5137 3 9.11239 3.36199 7.87695 4C9.11203 4.63801 10.5128 5 12 5C13.4869 5 14.8872 4.63776 16.1221 4C14.8868 3.36224 13.486 3 12 3Z" fill="#9E9E9E"/>
</g>
</svg>
