<svg width="24" height="24" viewBox="0 0 24 24" fill="none" xmlns="http://www.w3.org/2000/svg">
<g id="icons/Abstract/multi-ring">
<path id="Union" d="M12 1C13.5933 1 14.9681 1.93205 15.6113 3.28027C17.0196 2.78161 18.6516 3.09594 19.7783 4.22266C20.9046 5.34913 21.2179 6.97985 20.7197 8.3877C22.0682 9.0308 23 10.4065 23 12C23 13.5933 22.0679 14.9681 20.7197 15.6113C21.2186 17.0197 20.9052 18.6515 19.7783 19.7783C18.6515 20.9052 17.0197 21.2186 15.6113 20.7197C14.9681 22.0679 13.5933 23 12 23C10.4065 23 9.0308 22.0682 8.3877 20.7197C6.97985 21.2179 5.34912 20.9046 4.22266 19.7783C3.09592 18.6516 2.7816 17.0196 3.28027 15.6113C1.93205 14.9681 1 13.5933 1 12C1 10.4065 1.93184 9.0308 3.28027 8.3877C2.78213 6.97991 3.09621 5.34911 4.22266 4.22266C5.34911 3.09621 6.97991 2.78213 8.3877 3.28027C9.0308 1.93184 10.4065 1 12 1ZM10.084 19.5723C10.3302 20.3978 11.0944 21 12 21C12.9055 21 13.6687 20.3977 13.915 19.5723L12 17.6562L10.084 19.5723ZM5.29102 16C4.88184 16.7579 4.99658 17.7241 5.63672 18.3643C6.2769 19.0043 7.24229 19.1182 8 18.709V16H5.29102ZM16 18.71C16.7579 19.1192 17.7241 19.0044 18.3643 18.3643C19.0044 17.7241 19.1192 16.7579 18.71 16H16V18.71ZM10 16.8291L10.5859 16.2422L10.3438 16H10V16.8291ZM13.4141 16.2432L14 16.8291V16H13.6572L13.4141 16.2432ZM7.17188 14H8V13.6562L7.75684 13.4141L7.17188 14ZM12 10C11.8865 10 11.7733 10.0111 11.6611 10.0303C11.3821 10.0779 11.1223 10.1815 10.8955 10.332C10.7861 10.4047 10.6824 10.4895 10.5859 10.5859C10.4187 10.7531 10.289 10.9434 10.1934 11.1455C10.1627 11.2102 10.135 11.2764 10.1113 11.3447C10.0811 11.432 10.0559 11.5205 10.0381 11.6104C10.032 11.6409 10.029 11.6721 10.0244 11.7031C10.0199 11.7334 10.0149 11.7635 10.0117 11.7939C9.99805 11.9264 9.99707 12.0598 10.0098 12.1924C10.0128 12.2245 10.0188 12.2562 10.0234 12.2881C10.1633 13.256 10.9934 14 12 14C12.0689 14 12.137 13.9961 12.2041 13.9893C12.5404 13.9552 12.8521 13.838 13.1182 13.6582C13.3309 13.5145 13.5145 13.3309 13.6582 13.1182C13.8019 12.9054 13.9057 12.6636 13.959 12.4033C13.9857 12.273 14 12.1382 14 12V11.999C13.9997 11.4471 13.7758 10.9477 13.4141 10.5859C13.3189 10.4908 13.2162 10.4079 13.1084 10.3359C12.8647 10.1733 12.5835 10.064 12.2803 10.0215C12.1873 10.0084 12.0938 10 12 10ZM16 13.6562V14H16.8291L16.2422 13.4141L16 13.6562ZM4.42773 10.084C3.60215 10.3302 3 11.0944 3 12C3 12.9055 3.60229 13.6687 4.42773 13.915L6.34277 11.999L4.42773 10.084ZM17.6562 11.999L19.5723 13.915C20.3977 13.6687 21 12.9055 21 12C21 11.0944 20.3978 10.3302 19.5723 10.084L17.6562 11.999ZM16 10.3428L16.2422 10.5859L16.8291 10H16V10.3428ZM7.75684 10.5859L8 10.3438V10H7.17188L7.75684 10.5859ZM8 5.29004C7.24237 4.88116 6.27673 4.99671 5.63672 5.63672C4.9966 6.27684 4.88188 7.24231 5.29102 8H8V5.29004ZM10 8H10.3438L10.5859 7.75684L10 7.1709V8ZM13.4141 7.75684L13.6572 8H14V7.17188L13.4141 7.75684ZM18.3643 5.63672C17.7242 4.99667 16.7578 4.88113 16 5.29004V8H18.709C19.1182 7.24229 19.0042 6.27691 18.3643 5.63672ZM12 3C11.0944 3 10.3302 3.60215 10.084 4.42773L11.999 6.34277L13.915 4.42773C13.6687 3.60229 12.9055 3 12 3Z" fill="#9E9E9E"/>
</g>
</svg>
