<svg width="24" height="24" viewBox="0 0 24 24" fill="none" xmlns="http://www.w3.org/2000/svg">
<g id="icons/Abstract/nine-points-connected">
<path id="Union" d="M20 1C21.6568 1 23 2.34314 23 4C23 5.65683 21.6568 7 20 7C19.5371 7 19.1005 6.89135 18.709 6.7041L14.7041 10.708C14.8916 11.0997 15 11.5368 15 12C15 13.6568 13.6568 15 12 15C11.5368 15 11.0997 14.8916 10.708 14.7041L6.7041 18.709C6.89135 19.1005 7 19.5371 7 20C7 21.6568 5.65683 23 4 23C2.34314 23 1 21.6568 1 20C1 18.3432 2.34314 17 4 17C4.46245 17 4.89885 17.108 5.29004 17.2949L9.29492 13.29C9.10803 12.8988 9 12.4625 9 12C9 10.3432 10.3432 9 12 9C12.4625 9 12.8988 9.10803 13.29 9.29492L17.2949 5.29004C17.108 4.89885 17 4.46245 17 4C17 2.34314 18.3432 1 20 1ZM20 9C21.6568 9 23 10.3432 23 12C23 13.6568 21.6568 15 20 15C19.5371 15 19.1005 14.8913 18.709 14.7041L14.7041 18.708C14.8916 19.0997 15 19.5368 15 20C15 21.6568 13.6568 23 12 23C10.3432 23 9 21.6568 9 20C9 18.3432 10.3432 17 12 17C12.4625 17 12.8988 17.108 13.29 17.2949L17.2949 13.29C17.108 12.8988 17 12.4625 17 12C17 10.3432 18.3432 9 20 9ZM20 17C21.6568 17 23 18.3432 23 20C23 21.6568 21.6568 23 20 23C18.3432 23 17 21.6568 17 20C17 18.3432 18.3432 17 20 17ZM4 19C3.44772 19 3 19.4477 3 20C3 20.5523 3.44772 21 4 21C4.55227 21 5 20.5523 5 20C5 19.4477 4.55227 19 4 19ZM12 19C11.4477 19 11 19.4477 11 20C11 20.5523 11.4477 21 12 21C12.5523 21 13 20.5523 13 20C13 19.4477 12.5523 19 12 19ZM20 19C19.4477 19 19 19.4477 19 20C19 20.5523 19.4477 21 20 21C20.5523 21 21 20.5523 21 20C21 19.4477 20.5523 19 20 19ZM12 1C13.6568 1 15 2.34314 15 4C15 5.65683 13.6568 7 12 7C11.5371 7 11.1005 6.89135 10.709 6.7041L6.7041 10.708C6.89159 11.0997 7 11.5368 7 12C7 13.6568 5.65683 15 4 15C2.34314 15 1 13.6568 1 12C1 10.3432 2.34314 9 4 9C4.46245 9 4.89885 9.10803 5.29004 9.29492L9.29492 5.29004C9.10803 4.89885 9 4.46245 9 4C9 2.34314 10.3432 1 12 1ZM4 11C3.44772 11 3 11.4477 3 12C3 12.5523 3.44772 13 4 13C4.55227 13 5 12.5523 5 12C5 11.4477 4.55227 11 4 11ZM12 11C11.4477 11 11 11.4477 11 12C11 12.5523 11.4477 13 12 13C12.5523 13 13 12.5523 13 12C13 11.4477 12.5523 11 12 11ZM20 11C19.4477 11 19 11.4477 19 12C19 12.5523 19.4477 13 20 13C20.5523 13 21 12.5523 21 12C21 11.4477 20.5523 11 20 11ZM4 1C5.65683 1 7 2.34314 7 4C7 5.65683 5.65683 7 4 7C2.34314 7 1 5.65683 1 4C1 2.34315 2.34315 1 4 1ZM4 3C3.44771 3 3 3.44771 3 4C3 4.55227 3.44772 5 4 5C4.55227 5 5 4.55227 5 4C5 3.44772 4.55227 3 4 3ZM12 3C11.4477 3 11 3.44772 11 4C11 4.55227 11.4477 5 12 5C12.5523 5 13 4.55227 13 4C13 3.44772 12.5523 3 12 3ZM20 3C19.4477 3 19 3.44772 19 4C19 4.55227 19.4477 5 20 5C20.5523 5 21 4.55227 21 4C21 3.44772 20.5523 3 20 3Z" fill="#9E9E9E"/>
</g>
</svg>
