<svg width="24" height="24" viewBox="0 0 24 24" fill="none" xmlns="http://www.w3.org/2000/svg">
<g id="icons/Abstract/one-third-rotation">
<path id="Union" d="M7.5 16C8.05228 16 8.5 16.4477 8.5 17C8.5 17.5523 8.05228 18 7.5 18H5.29297C6.94172 19.8419 9.3357 21 12 21C14.0274 21 15.8963 20.3305 17.4014 19.2061C17.8438 18.8756 18.4702 18.9668 18.8008 19.4092C19.1313 19.8516 19.041 20.478 18.5986 20.8086C16.7611 22.1814 14.475 23 12 23C7.92737 23 4.37311 20.7861 2.47266 17.501C2.29369 17.1916 2.2931 16.8096 2.47168 16.5C2.6503 16.1906 2.98058 16 3.33789 16H7.5ZM15.084 2.43164C15.3052 1.92565 15.8943 1.69492 16.4004 1.91602C20.2832 3.61256 23 7.48778 23 12C23 14.0019 22.4639 15.882 21.5273 17.501C21.3485 17.8098 21.0189 18 20.6621 18C20.305 17.9999 19.9745 17.8092 19.7959 17.5L17.7754 14C17.4992 13.5218 17.6625 12.91 18.1406 12.6338C18.6189 12.3576 19.2306 12.5217 19.5068 13L20.5518 14.8086C20.8416 13.9253 21 12.9818 21 12C21 8.31097 18.7803 5.13776 15.5996 3.74805C15.0936 3.52688 14.8629 2.93768 15.084 2.43164ZM12 8C14.2091 8 16 9.79086 16 12C16 14.2091 14.2091 16 12 16C9.79086 16 8 14.2091 8 12C8 9.79086 9.79086 8 12 8ZM12.1328 1.00879C12.4377 1.04959 12.71 1.22936 12.8662 1.5C13.0448 1.80936 13.0448 2.19064 12.8662 2.5L10.8447 6C10.5685 6.47827 9.95678 6.6424 9.47852 6.36621C9.00032 6.09 8.83711 5.47824 9.11328 5L10.1582 3.18848C6.071 4.03843 3 7.66064 3 12C3 12.3045 3.01552 12.6052 3.04492 12.9014C3.09936 13.4508 2.69782 13.9404 2.14844 13.9951C1.59885 14.0497 1.10925 13.6482 1.05469 13.0986C1.01879 12.737 1 12.3705 1 12C1 5.92487 5.92487 1 12 1L12.1328 1.00879ZM12 10C10.8954 10 10 10.8954 10 12C10 13.1046 10.8954 14 12 14C13.1046 14 14 13.1046 14 12C14 10.8954 13.1046 10 12 10Z" fill="#9E9E9E"/>
</g>
</svg>
