<svg width="24" height="24" viewBox="0 0 24 24" fill="none" xmlns="http://www.w3.org/2000/svg">
<g id="icons/Abstract/open-one">
<path id="Union" d="M21 14C21.5523 14 22 14.4477 22 15V19.5C22 20.8807 20.8807 22 19.5 22H4.5C3.1193 22 2 20.8807 2 19.5V15C2 14.4477 2.44772 14 3 14C3.55228 14 4 14.4477 4 15V19.5C4 19.7762 4.22385 20 4.5 20H19.5C19.7762 20 20 19.7762 20 19.5V15C20 14.4477 20.4477 14 21 14ZM15.7656 5.82129C16.1403 5.4159 16.773 5.39116 17.1787 5.76562C17.5841 6.14028 17.6088 6.77304 17.2344 7.17871L16.6855 7.77148L18.207 9.29297C18.5976 9.68349 18.5976 10.3165 18.207 10.707C17.8165 11.0976 17.1835 11.0976 16.793 10.707L15.3281 9.24219L14.2861 10.3721L15.707 11.793C16.0976 12.1835 16.0976 12.8165 15.707 13.207C15.3165 13.5976 14.6835 13.5976 14.293 13.207L12.9287 11.8428L11.8662 12.9932C12.2649 13.5615 12.5 14.253 12.5 15C12.5 16.933 10.933 18.5 9 18.5C7.067 18.5 5.5 16.933 5.5 15C5.5 13.067 7.067 11.5 9 11.5C9.45721 11.5 9.89358 11.5886 10.2939 11.748L15.7656 5.82129ZM9 13.5C8.17157 13.5 7.5 14.1716 7.5 15C7.5 15.8284 8.17157 16.5 9 16.5C9.82843 16.5 10.5 15.8284 10.5 15C10.5 14.1716 9.82843 13.5 9 13.5ZM19.5 2C20.8807 2 22 3.1193 22 4.5V9C22 9.55228 21.5523 10 21 10C20.4477 10 20 9.55228 20 9V4.5C20 4.22385 19.7762 4 19.5 4H4.5C4.22386 4 4 4.22386 4 4.5V9C4 9.55228 3.55228 10 3 10C2.44772 10 2 9.55228 2 9V4.5C2 3.11929 3.11929 2 4.5 2H19.5Z" fill="#9E9E9E"/>
</g>
</svg>
