<svg width="24" height="24" viewBox="0 0 24 24" fill="none" xmlns="http://www.w3.org/2000/svg">
<g id="icons/Abstract/outbound">
<path id="Union" d="M12 1C14.9977 1 17.7171 2.20047 19.7002 4.14453C20.2571 4.69048 20.7561 5.29544 21.1875 5.94922C21.4917 6.4102 21.3643 7.03079 20.9033 7.33496C20.4424 7.63874 19.8227 7.51151 19.5186 7.05078C19.1654 6.51554 18.7561 6.01963 18.2998 5.57227C16.6754 3.98 14.4531 3 12 3C7.02943 3 3 7.02943 3 12C3 16.9706 7.02943 21 12 21C14.4531 21 16.6754 20.02 18.2998 18.4277C18.7561 17.9804 19.1654 17.4845 19.5186 16.9492C19.8227 16.4885 20.4424 16.3613 20.9033 16.665C21.3643 16.9692 21.4917 17.5898 21.1875 18.0508C20.7561 18.7046 20.2571 19.3095 19.7002 19.8555C17.7171 21.7995 14.9976 23 12 23C5.92487 23 1 18.0751 1 12C1 5.92487 5.92487 1 12 1ZM16.293 8.29297C16.6835 7.90244 17.3165 7.90244 17.707 8.29297L20.707 11.293C20.7548 11.3408 20.7976 11.3935 20.835 11.4502C20.8597 11.4877 20.8812 11.5266 20.9004 11.5664C20.9222 11.6116 20.9412 11.6584 20.9561 11.707C20.9623 11.7273 20.9668 11.748 20.9717 11.7686C20.9893 11.8429 21 11.9202 21 12C21 12.0563 20.9933 12.1112 20.9844 12.165C20.9772 12.2078 20.9688 12.2503 20.9561 12.292C20.9412 12.3407 20.9222 12.3874 20.9004 12.4326C20.8936 12.4468 20.8864 12.4607 20.8789 12.4746C20.851 12.5262 20.8184 12.5745 20.7822 12.6201C20.7586 12.6498 20.7345 12.6796 20.707 12.707L17.707 15.707C17.3165 16.0976 16.6835 16.0976 16.293 15.707C15.9024 15.3165 15.9024 14.6835 16.293 14.293L17.5859 13H12.8262C12.4141 14.1647 11.3059 15 10 15C8.34315 15 7 13.6569 7 12C7 10.3431 8.34315 9 10 9C11.3059 9 12.4141 9.83532 12.8262 11H17.5859L16.293 9.70703C15.9024 9.31651 15.9024 8.68349 16.293 8.29297ZM10 11C9.44771 11 9 11.4477 9 12C9 12.5523 9.44771 13 10 13C10.5523 13 11 12.5523 11 12C11 11.4477 10.5523 11 10 11Z" fill="#9E9E9E"/>
</g>
</svg>
