<svg width="24" height="24" viewBox="0 0 24 24" fill="none" xmlns="http://www.w3.org/2000/svg">
<g id="icons/Abstract/oval-love">
<path id="Union" d="M13.8604 2.6875C15.9699 1.61381 18.3144 1.35207 20.2588 2.47461C22.203 3.59722 23.1485 5.75835 23.2734 8.12207C23.3989 10.4972 22.717 13.2168 21.2539 15.751C19.7908 18.285 17.7768 20.2346 15.6572 21.3135C14.4563 21.9247 13.1793 22.2716 11.9434 22.251C10.7077 22.2714 9.43107 21.9246 8.23047 21.3135C6.11087 20.2346 4.09691 18.285 2.63379 15.751C1.17069 13.2168 0.488787 10.4972 0.614258 8.12207C0.739188 5.75828 1.68457 3.59719 3.62891 2.47461C5.57332 1.35205 7.91774 1.61373 10.0273 2.6875C10.6804 3.01993 11.3234 3.43536 11.9434 3.9248C12.5635 3.43516 13.207 3.02003 13.8604 2.6875ZM11.9434 6.62891C11.233 7.37575 10.5701 8.25505 9.99512 9.25098C8.69711 11.4994 8.13903 13.8382 8.24121 15.7734C8.34405 17.7201 9.09439 19.1226 10.2588 19.7949C10.7513 20.0792 11.3198 20.2319 11.9434 20.249C12.4407 20.2355 12.9017 20.1337 13.3184 19.9492C13.4241 19.9022 13.5284 19.852 13.6289 19.7939C14.7932 19.1216 15.5427 17.719 15.6455 15.7725C15.6779 15.1583 15.6431 14.5038 15.54 13.8242C15.5382 13.8122 15.5361 13.8002 15.5342 13.7881C15.4803 13.4408 15.4076 13.0875 15.3174 12.7295C15.2867 12.6079 15.2546 12.4858 15.2197 12.3633C15.1783 12.2179 15.1333 12.0722 15.0859 11.9258C14.7991 11.0407 14.4039 10.1384 13.8916 9.25098C13.3165 8.25496 12.6536 7.37579 11.9434 6.62891ZM9.12012 4.46973C7.38296 3.58554 5.7933 3.53395 4.62891 4.20605C3.46452 4.8783 2.71422 6.28095 2.61133 8.22754C2.50909 10.1629 3.06702 12.5023 4.36523 14.751C4.98492 15.8243 5.70824 16.7606 6.48145 17.543C6.35324 17.0079 6.27427 16.4493 6.24414 15.8789C6.11872 13.5038 6.80067 10.7851 8.26367 8.25098C8.90006 7.14874 9.64011 6.15648 10.4482 5.29883C10.0095 4.97341 9.56427 4.6958 9.12012 4.46973ZM19.2588 4.20605C18.0944 3.53386 16.5048 3.58559 14.7676 4.46973C14.3232 4.69589 13.8774 4.97324 13.4385 5.29883C13.5525 5.41985 13.6651 5.54363 13.7764 5.66992C13.8052 5.70262 13.8327 5.73648 13.8613 5.76953C13.9554 5.87816 14.0488 5.98825 14.1406 6.10059C14.1947 6.16676 14.2475 6.2343 14.3008 6.30176C14.37 6.38937 14.439 6.47767 14.5068 6.56738C14.5512 6.62609 14.5949 6.68551 14.6387 6.74512C14.7094 6.84139 14.7796 6.93856 14.8486 7.03711C14.8974 7.10667 14.9463 7.17637 14.9941 7.24707C15.0537 7.33493 15.1118 7.42411 15.1699 7.51367C15.2212 7.59267 15.273 7.67162 15.3232 7.75195C15.3955 7.86755 15.4653 7.98527 15.5352 8.10352C15.5642 8.1526 15.5954 8.20046 15.624 8.25C16.8603 10.3913 17.5366 12.6647 17.6416 14.751C17.6609 15.1339 17.663 15.5105 17.6436 15.8789C17.6329 16.0798 17.6134 16.2791 17.5908 16.4766C17.5494 16.8388 17.489 17.1943 17.4062 17.54C18.1786 16.758 18.9023 15.8234 19.5215 14.751C20.8197 12.5023 21.3786 10.1629 21.2764 8.22754C21.1735 6.28094 20.4232 4.8783 19.2588 4.20605Z" fill="#9E9E9E"/>
</g>
</svg>
