<svg width="24" height="24" viewBox="0 0 24 24" fill="none" xmlns="http://www.w3.org/2000/svg">
<g id="icons/Abstract/oval-love-two">
<path id="Union" d="M3.62891 2.47461C6.17188 1.00659 9.3532 1.88613 11.9434 3.92578C12.5636 3.43602 13.2069 3.02009 13.8604 2.6875C15.9698 1.61388 18.3145 1.35217 20.2588 2.47461C22.2029 3.59718 23.1484 5.75845 23.2734 8.12207C23.3989 10.4972 22.7169 13.2168 21.2539 15.751C19.7908 18.285 17.7768 20.2345 15.6572 21.3135C14.0281 22.1427 12.2594 22.4868 10.6426 22.084C10.5235 22.1013 10.3996 22.0989 10.2754 22.0703C7.42976 21.4158 4.54785 19.066 2.63379 15.751C1.17077 13.2168 0.488791 10.4972 0.614258 8.12207C0.739247 5.75839 1.68464 3.59715 3.62891 2.47461ZM19.2588 4.20605C18.0945 3.53395 16.5047 3.58568 14.7676 4.46973C13.0404 5.34886 11.2934 7.00249 9.99512 9.25098C8.69717 11.4993 8.1391 13.8382 8.24121 15.7734C8.34404 17.7201 9.09446 19.1226 10.2588 19.7949C11.4232 20.4671 13.0127 20.4155 14.75 19.5312C16.4771 18.6521 18.2233 16.9993 19.5215 14.751C20.8196 12.5024 21.3786 10.1629 21.2764 8.22754C21.1734 6.28109 20.4231 4.87827 19.2588 4.20605ZM10.4482 5.29883C8.2727 3.67998 6.09302 3.36105 4.62891 4.20605C3.46458 4.87827 2.71428 6.28109 2.61133 8.22754C2.50909 10.1629 3.0671 12.5024 4.36523 14.751C4.98732 15.8284 5.71092 16.7633 6.48145 17.543C6.35328 17.008 6.27427 16.4493 6.24414 15.8789C6.11879 13.5039 6.80073 10.785 8.26367 8.25098C8.90007 7.14876 9.64011 6.15646 10.4482 5.29883Z" fill="#9E9E9E"/>
</g>
</svg>
