<svg width="24" height="24" viewBox="0 0 24 24" fill="none" xmlns="http://www.w3.org/2000/svg">
<g id="icons/Abstract/parallel-gateway" clip-path="url(#clip0_56_6087)">
<path id="Union" d="M10.6925 1.39355C11.4735 0.612499 12.7396 0.612504 13.5206 1.39355L22.713 10.5859C23.4939 11.367 23.494 12.6331 22.713 13.4141L13.5206 22.6064C12.7397 23.3874 11.4735 23.3873 10.6925 22.6064L1.50012 13.4141C0.71906 12.633 0.719079 11.367 1.50012 10.5859L10.6925 1.39355ZM2.91418 12L12.1066 21.1924L21.299 12L12.1066 2.80762L2.91418 12ZM12.0216 6.76758C12.5738 6.76766 13.0216 7.21534 13.0216 7.76758V11.0029H16.2579C16.8102 11.003 17.2579 11.4507 17.2579 12.0029C17.2579 12.5551 16.8101 13.0028 16.2579 13.0029H13.0216V16.2393C13.0215 16.7914 12.5738 17.2392 12.0216 17.2393C11.4694 17.2393 11.0217 16.7915 11.0216 16.2393V13.0029H7.78625C7.23402 13.0029 6.78633 12.5551 6.78625 12.0029C6.78625 11.4506 7.23397 11.0029 7.78625 11.0029H11.0216V7.76758C11.0216 7.21529 11.4693 6.76758 12.0216 6.76758Z" fill="#9E9E9E"/>
</g>
<defs>
<clipPath id="clip0_56_6087">
<rect width="24" height="24" fill="white"/>
</clipPath>
</defs>
</svg>
