<svg width="24" height="24" viewBox="0 0 24 24" fill="none" xmlns="http://www.w3.org/2000/svg">
<g id="icons/Abstract/process-line">
<path id="Union" d="M7 19C7.55228 19 8 19.4477 8 20C8 20.5523 7.55228 21 7 21H2C1.44772 21 1 20.5523 1 20C1 19.4477 1.44772 19 2 19H7ZM13.5 19C14.0523 19 14.5 19.4477 14.5 20C14.5 20.5523 14.0523 21 13.5 21H11C10.4477 21 10 20.5523 10 20C10 19.4477 10.4477 19 11 19H13.5ZM22 19C22.5523 19 23 19.4477 23 20C23 20.5523 22.5523 21 22 21H18.5C17.9477 21 17.5 20.5523 17.5 20C17.5 19.4477 17.9477 19 18.5 19H22ZM12 15C12.5523 15 13 15.4477 13 16C13 16.5523 12.5523 17 12 17H2C1.44772 17 1 16.5523 1 16C1 15.4477 1.44772 15 2 15H12ZM22 15C22.5523 15 23 15.4477 23 16C23 16.5523 22.5523 17 22 17H17.5C16.9477 17 16.5 16.5523 16.5 16C16.5 15.4477 16.9477 15 17.5 15H22ZM3 11C3.55228 11 4 11.4477 4 12C4 12.5523 3.55228 13 3 13H2C1.44772 13 1 12.5523 1 12C1 11.4477 1.44772 11 2 11H3ZM11 11C11.5523 11 12 11.4477 12 12C12 12.5523 11.5523 13 11 13H8C7.44772 13 7 12.5523 7 12C7 11.4477 7.44772 11 8 11H11ZM22 11C22.5523 11 23 11.4477 23 12C23 12.5523 22.5523 13 22 13H16C15.4477 13 15 12.5523 15 12C15 11.4477 15.4477 11 16 11H22ZM4 7C4.55228 7 5 7.44772 5 8C5 8.55228 4.55228 9 4 9H2C1.44772 9 1 8.55228 1 8C1 7.44772 1.44772 7 2 7H4ZM5.59863 3.00488C5.82763 3.02757 6.04289 3.12883 6.20703 3.29297L9.91406 7H22C22.5523 7 23 7.44772 23 8C23 8.55228 22.5523 9 22 9H9.5C9.23478 9 8.9805 8.89457 8.79297 8.70703L5.08594 5H2C1.44772 5 1 4.55228 1 4C1 3.44772 1.44772 3 2 3H5.5L5.59863 3.00488ZM22 3C22.5523 3 23 3.44772 23 4C23 4.55228 22.5523 5 22 5H11C10.4477 5 10 4.55228 10 4C10 3.44772 10.4477 3 11 3H22Z" fill="#9E9E9E"/>
</g>
</svg>
