<svg width="24" height="24" viewBox="0 0 24 24" fill="none" xmlns="http://www.w3.org/2000/svg">
<g id="icons/Abstract/quadrangular-pyramid">
<path id="Union" d="M12.0273 1.00098C12.0417 1.00136 12.056 1.00193 12.0703 1.00293C12.0801 1.00362 12.0898 1.0039 12.0996 1.00488C12.1071 1.00564 12.1146 1.00689 12.1221 1.00781C12.1338 1.00924 12.1455 1.01085 12.1572 1.0127C12.1689 1.01457 12.1807 1.01625 12.1924 1.01855C12.22 1.02401 12.2474 1.03036 12.2744 1.03809C12.2787 1.0393 12.2829 1.04072 12.2871 1.04199H12.2891C12.3106 1.04851 12.3316 1.05653 12.3525 1.06445C12.3962 1.08087 12.4385 1.09934 12.4785 1.12109C12.4969 1.13113 12.5143 1.14302 12.5322 1.1543C12.5674 1.17641 12.6015 1.20018 12.6338 1.22656C12.6553 1.24418 12.6755 1.263 12.6953 1.28223C12.6991 1.28591 12.7033 1.28922 12.707 1.29297L22.707 11.293C22.7548 11.3408 22.7976 11.3935 22.835 11.4502C22.8597 11.4877 22.8812 11.5266 22.9004 11.5664C22.9222 11.6116 22.9412 11.6584 22.9561 11.707C22.9623 11.7273 22.9668 11.748 22.9717 11.7686C22.9893 11.8429 23 11.9202 23 12C23 12.0563 22.9933 12.1112 22.9844 12.165C22.9772 12.2078 22.9688 12.2503 22.9561 12.292C22.9412 12.3407 22.9222 12.3874 22.9004 12.4326C22.8936 12.4468 22.8864 12.4607 22.8789 12.4746C22.851 12.5262 22.8184 12.5745 22.7822 12.6201C22.7586 12.6498 22.7345 12.6796 22.707 12.707L12.709 22.7051C12.6853 22.7289 12.6599 22.751 12.6338 22.7725C12.5915 22.8071 12.5462 22.8371 12.499 22.8643C12.4882 22.8705 12.4779 22.8779 12.4668 22.8838C12.4605 22.8871 12.4536 22.8894 12.4473 22.8926C12.4362 22.8981 12.4253 22.904 12.4141 22.9092C12.4018 22.9148 12.3896 22.9207 12.377 22.9258C12.3641 22.931 12.3509 22.9348 12.3379 22.9395C12.3223 22.9451 12.3069 22.9512 12.291 22.9561C12.2797 22.9595 12.2682 22.9618 12.2568 22.9648C12.2352 22.9706 12.2135 22.9761 12.1914 22.9805C12.1842 22.9819 12.1771 22.9831 12.1699 22.9844C12.1457 22.9886 12.1213 22.9917 12.0967 22.9941C12.0957 22.9942 12.0947 22.995 12.0938 22.9951C12.0804 22.9964 12.067 22.9963 12.0537 22.9971C12.0371 22.998 12.0206 22.999 12.0039 22.999C12.0016 22.999 11.9994 22.999 11.9971 22.999C11.9958 22.999 11.9945 22.999 11.9932 22.999C11.9798 22.9989 11.9665 22.9977 11.9531 22.9971C11.9372 22.9963 11.9212 22.9967 11.9053 22.9951L11.9033 22.9941H11.8916C11.8732 22.9921 11.8551 22.9884 11.8369 22.9854C11.8272 22.9837 11.8174 22.9824 11.8076 22.9805C11.7859 22.9762 11.7644 22.9715 11.7432 22.9658C11.7324 22.963 11.7216 22.9602 11.7109 22.957C11.7093 22.9565 11.7077 22.9556 11.7061 22.9551C11.6938 22.9513 11.682 22.9466 11.6699 22.9424C11.6263 22.9271 11.5841 22.9102 11.5439 22.8896C11.5401 22.8877 11.5361 22.8858 11.5322 22.8838C11.512 22.8731 11.4929 22.8606 11.4736 22.8486C11.4662 22.844 11.4585 22.8398 11.4512 22.835C11.4216 22.8155 11.3927 22.795 11.3652 22.7725C11.3393 22.7511 11.3145 22.7287 11.291 22.7051L1.29297 12.707C1.26536 12.6794 1.2405 12.65 1.2168 12.6201C1.18065 12.5745 1.14798 12.5261 1.12012 12.4746C1.11269 12.4609 1.10634 12.4466 1.09961 12.4326C1.0778 12.3873 1.05783 12.3408 1.04297 12.292C1.0303 12.2503 1.02176 12.2077 1.01465 12.165C1.00571 12.1113 1 12.0563 1 12C1 11.9203 1.00973 11.8429 1.02734 11.7686C1.03221 11.748 1.03678 11.7273 1.04297 11.707C1.05787 11.6583 1.07777 11.6117 1.09961 11.5664C1.11877 11.5266 1.1403 11.4877 1.16504 11.4502C1.20242 11.3935 1.24516 11.3408 1.29297 11.293L11.293 1.29297L11.3047 1.28223C11.3349 1.25288 11.3673 1.22571 11.4014 1.2002C11.4325 1.17695 11.4645 1.1552 11.498 1.13574C11.5063 1.13096 11.5141 1.12562 11.5225 1.12109C11.5292 1.11742 11.5361 1.11388 11.543 1.11035C11.5491 1.10722 11.5554 1.10456 11.5615 1.10156C11.5777 1.09364 11.5937 1.08517 11.6104 1.07812C11.6224 1.07303 11.6351 1.06911 11.6475 1.06445C11.6838 1.05071 11.7209 1.03875 11.7588 1.0293C11.7672 1.02721 11.7757 1.02531 11.7842 1.02344C11.7923 1.02162 11.8004 1.01919 11.8086 1.01758C11.8141 1.01651 11.8197 1.0166 11.8252 1.01562C11.8297 1.01482 11.8343 1.01442 11.8389 1.01367C11.8519 1.01155 11.8649 1.00942 11.8779 1.00781C11.8887 1.00648 11.8994 1.00489 11.9102 1.00391C11.9112 1.00382 11.9121 1.00302 11.9131 1.00293C11.9166 1.00262 11.9203 1.0032 11.9238 1.00293C11.9401 1.00169 11.9564 1.00143 11.9727 1.00098C11.9782 1.00082 11.9837 1.00006 11.9893 1H12.0107C12.0163 1.00006 12.0218 1.00082 12.0273 1.00098ZM11.999 18.5186L13.6553 13H10.3438L11.999 18.5186ZM9.90234 18.4883L8.25586 13H4.41406L9.90234 18.4883ZM14.0977 18.4863L19.5859 13H15.7441L14.0977 18.4863ZM4.41406 11H8.25586L9.90234 5.51172L4.41406 11ZM15.7441 11H19.5859L14.0977 5.51172L15.7441 11ZM10.3438 11H13.6553L11.999 5.47949L10.3438 11Z" fill="#9E9E9E"/>
</g>
</svg>
