<svg width="24" height="24" viewBox="0 0 24 24" fill="none" xmlns="http://www.w3.org/2000/svg">
<g id="icons/Abstract/rectangular-circular-connection">
<path id="Union" d="M8.5 14.5C9.05228 14.5 9.5 14.9477 9.5 15.5V20.5C9.5 21.0523 9.05228 21.5 8.5 21.5H3.5C2.94772 21.5 2.5 21.0523 2.5 20.5V15.5C2.5 14.9477 2.94772 14.5 3.5 14.5H8.5ZM4.5 19.5H7.5V16.5H4.5V19.5ZM21 5.5C21.5523 5.5 22 5.94772 22 6.5V18C22 18.5523 21.5523 19 21 19H12.5C11.9477 19 11.5 18.5523 11.5 18C11.5 17.4477 11.9477 17 12.5 17H20V7.5H12.8398C12.2876 7.49992 11.8398 7.05223 11.8398 6.5C11.8398 5.94777 12.2876 5.50008 12.8398 5.5H21ZM6 2.5C8.20913 2.5 10 4.29086 10 6.5C10 8.70913 8.20913 10.5 6 10.5C3.79086 10.5 2 8.70913 2 6.5C2 4.29086 3.79086 2.5 6 2.5ZM6 4.5C4.89543 4.5 4 5.39543 4 6.5C4 7.60457 4.89543 8.5 6 8.5C7.10457 8.5 8 7.60457 8 6.5C8 5.39543 7.10457 4.5 6 4.5Z" fill="#9E9E9E"/>
</g>
</svg>
