<svg width="24" height="24" viewBox="0 0 24 24" fill="none" xmlns="http://www.w3.org/2000/svg">
<g id="icons/Abstract/rectangle-x">
<path id="Union" d="M21.293 1.29297C21.6836 0.902444 22.3166 0.902444 22.7071 1.29297C23.0975 1.6835 23.0976 2.31653 22.7071 2.70703L18.4141 7L22.7071 11.293C23.0975 11.6835 23.0976 12.3165 22.7071 12.707L18.4141 17L22.7071 21.293C23.0975 21.6835 23.0976 22.3165 22.7071 22.707C22.3166 23.0975 21.6836 23.0975 21.293 22.707L17.0001 18.4141L12.7071 22.707C12.3166 23.0975 11.6836 23.0975 11.293 22.707L7.00006 18.4141L2.70709 22.707C2.31659 23.0975 1.68356 23.0975 1.29303 22.707C0.902505 22.3165 0.902505 21.6835 1.29303 21.293L5.586 17L1.29303 12.707C0.902505 12.3165 0.902505 11.6835 1.29303 11.293L5.586 7L1.29303 2.70703C0.902505 2.31651 0.902505 1.68349 1.29303 1.29297C1.68355 0.902444 2.31657 0.902444 2.70709 1.29297L7.00006 5.58594L11.293 1.29297L11.3692 1.22461C11.762 0.904266 12.341 0.926855 12.7071 1.29297L17.0001 5.58594L21.293 1.29297ZM8.41412 17L12.0001 20.5859L15.586 17L12.0001 13.4141L8.41412 17ZM3.41412 12L7.00006 15.5859L10.586 12L7.00006 8.41406L3.41412 12ZM13.4141 12L17.0001 15.5859L20.586 12L17.0001 8.41406L13.4141 12ZM8.41412 7L12.0001 10.5859L15.586 7L12.0001 3.41406L8.41412 7Z" fill="#9E9E9E"/>
</g>
</svg>
