<svg width="24" height="24" viewBox="0 0 24 24" fill="none" xmlns="http://www.w3.org/2000/svg">
<g id="icons/Abstract/rectangular-circular-separation">
<path id="Union" d="M21 14.5C21.5523 14.5 22 14.9477 22 15.5V20.5C22 21.0523 21.5523 21.5 21 21.5H16C15.4477 21.5 15 21.0523 15 20.5V15.5C15 14.9477 15.4477 14.5 16 14.5H21ZM17 19.5H20V16.5H17V19.5ZM22 11.5C22.5523 11.5 23 11.9477 23 12.5C23 13.0523 22.5523 13.5 22 13.5H2C1.44772 13.5 1 13.0523 1 12.5C1 11.9477 1.44772 11.5 2 11.5H22ZM6 2.5C8.20913 2.5 10 4.29086 10 6.5C10 8.70913 8.20913 10.5 6 10.5C3.79086 10.5 2 8.70913 2 6.5C2 4.29086 3.79086 2.5 6 2.5ZM6 4.5C4.89543 4.5 4 5.39543 4 6.5C4 7.60457 4.89543 8.5 6 8.5C7.10457 8.5 8 7.60457 8 6.5C8 5.39543 7.10457 4.5 6 4.5Z" fill="#9E9E9E"/>
</g>
</svg>
