<svg width="24" height="24" viewBox="0 0 24 24" fill="none" xmlns="http://www.w3.org/2000/svg">
<g id="icons/Abstract/rectangle-tear">
<path id="Union" d="M20 2C21.1046 2 22 2.89544 22 4V20C22 21.1046 21.1046 22 20 22H4C2.89544 22 2 21.1046 2 20V4C2 2.89543 2.89543 2 4 2H20ZM4 20H11.0859L9.79297 18.707C9.40244 18.3165 9.40244 17.6835 9.79297 17.293L12.0859 15L9.79297 12.707C9.40244 12.3165 9.40244 11.6835 9.79297 11.293L12.0859 9L9.79297 6.70703C9.40244 6.31651 9.40244 5.68349 9.79297 5.29297L11.0859 4H4V20ZM11.9141 6L14.207 8.29297C14.5976 8.68349 14.5976 9.31651 14.207 9.70703L11.9141 12L14.207 14.293C14.5976 14.6835 14.5976 15.3165 14.207 15.707L11.9141 18L13.9141 20H20V4H13.9141L11.9141 6Z" fill="#9E9E9E"/>
</g>
</svg>
