<svg width="24" height="24" viewBox="0 0 24 24" fill="none" xmlns="http://www.w3.org/2000/svg">
<g id="icons/Abstract/rectangular-vertebra">
<path id="Union" d="M11.6152 1.07715C11.8614 0.974584 12.1386 0.974584 12.3848 1.07715L18.375 3.57324C18.4104 3.58756 18.445 3.60381 18.4785 3.62207L18.4873 3.62695C18.4964 3.63202 18.5048 3.63822 18.5137 3.64355C18.5297 3.65316 18.546 3.66234 18.5615 3.67285C18.5712 3.67941 18.5804 3.68648 18.5898 3.69336C18.6082 3.70675 18.6261 3.72069 18.6436 3.73535C18.6506 3.7413 18.6572 3.74777 18.6641 3.75391C18.6797 3.76782 18.6952 3.78193 18.71 3.79688C18.7207 3.80769 18.731 3.81879 18.7412 3.83008C18.7534 3.84357 18.7658 3.85687 18.7773 3.87109C18.7866 3.88248 18.795 3.89446 18.8037 3.90625C18.8143 3.92067 18.825 3.9351 18.835 3.9502C18.8423 3.96129 18.8486 3.97298 18.8555 3.98438C18.8655 4.00106 18.8756 4.01773 18.8848 4.03516C18.8921 4.0492 18.8986 4.0637 18.9053 4.07812C18.911 4.09043 18.9176 4.1026 18.9229 4.11523C18.9239 4.1178 18.9247 4.12047 18.9258 4.12305C18.9338 4.14284 18.9405 4.1632 18.9473 4.18359C18.9514 4.19596 18.9554 4.20828 18.959 4.2207C18.9603 4.22527 18.9626 4.22978 18.9639 4.23438L22.9541 18.7002C22.9753 18.7674 22.9885 18.8371 22.9951 18.9082C22.997 18.9288 22.9974 18.9493 22.998 18.9697C22.9984 18.9805 22.9991 18.9912 22.999 19.002C22.999 19.0183 22.9989 19.0346 22.998 19.0508C22.9971 19.0687 22.9951 19.0865 22.9932 19.1045C22.9915 19.1202 22.9897 19.1358 22.9873 19.1514C22.9845 19.1696 22.9814 19.1878 22.9775 19.2061C22.9748 19.2189 22.971 19.2314 22.9678 19.2441C22.9642 19.2582 22.9622 19.273 22.958 19.2871C22.9471 19.3235 22.9335 19.3584 22.9189 19.3926C22.9137 19.4048 22.908 19.4167 22.9023 19.4287C22.8937 19.447 22.8847 19.4649 22.875 19.4824C22.7776 19.6591 22.6269 19.8054 22.4375 19.8975C22.3896 19.9208 22.3403 19.9415 22.2891 19.957L22.2871 19.958L12.3018 22.9531C12.2982 22.9542 12.2946 22.955 12.291 22.9561L12.2871 22.958C12.2849 22.9587 12.2825 22.9583 12.2803 22.959C12.2421 22.9701 12.203 22.9778 12.1631 22.9844C12.1507 22.9864 12.1384 22.9887 12.126 22.9902C12.0847 22.9954 12.0427 23 12 23L11.8975 22.9941C11.8892 22.9933 11.8812 22.9913 11.873 22.9902C11.8606 22.9886 11.8483 22.9864 11.8359 22.9844C11.7981 22.9781 11.7609 22.9704 11.7246 22.96C11.7208 22.9589 11.7167 22.9591 11.7129 22.958L1.71289 19.958C1.19237 19.8019 0.891882 19.2583 1.03613 18.7344L5.03613 4.23438L5.04004 4.22266C5.0482 4.1945 5.05757 4.1665 5.06836 4.13867L5.07227 4.12598C5.08586 4.09226 5.10111 4.05914 5.11816 4.02734C5.12312 4.01806 5.12857 4.00907 5.13379 4C5.17773 3.92393 5.23102 3.85378 5.29297 3.79199C5.30638 3.77861 5.32088 3.76645 5.33496 3.75391C5.34495 3.74501 5.35488 3.73604 5.36523 3.72754C5.38002 3.71541 5.39573 3.70459 5.41113 3.69336C5.47404 3.64748 5.54194 3.60772 5.61523 3.57715H5.6123C5.61609 3.57556 5.62022 3.57479 5.62402 3.57324L11.6152 1.07715ZM5.65527 19.0508L11 20.6543V17.3633L5.65527 19.0508ZM13 20.6543L18.5176 18.999L13 17.3438V20.6543ZM3.4043 17.666L11 15.2676V7.66602L6.66113 5.8584L3.4043 17.666ZM13 7.66602V15.2559L20.5547 17.5215L17.3369 5.8584L13 7.66602ZM8.59863 4.49902L11.999 5.91602L15.4004 4.49902L12 3.08301L8.59863 4.49902Z" fill="#9E9E9E"/>
</g>
</svg>
