<svg width="24" height="24" viewBox="0 0 24 24" fill="none" xmlns="http://www.w3.org/2000/svg">
<g id="icons/Abstract/refraction">
<path id="Union" d="M12.0005 3.5C12.3575 3.50027 12.6882 3.69082 12.8667 4L14.5308 6.88281L21.8159 5.51758C22.3585 5.41611 22.881 5.77296 22.9829 6.31543C23.0846 6.85795 22.7274 7.38028 22.1851 7.48242L15.5903 8.71875L15.645 8.81348L22.1069 9.50586C22.6558 9.56492 23.0534 10.0575 22.9946 10.6064C22.9358 11.1554 22.443 11.5527 21.894 11.4941L16.8823 10.957L17.0249 11.2051L22.4058 13.5859C22.9102 13.8095 23.1386 14.3995 22.9155 14.9043C22.6921 15.4092 22.1012 15.6372 21.5962 15.4141L18.7212 14.1416L21.0933 18.25C21.2717 18.5593 21.2717 18.9407 21.0933 19.25C20.9147 19.5592 20.5841 19.7498 20.2271 19.75H3.77295C3.41576 19.75 3.0854 19.5593 2.90674 19.25C2.72817 18.9406 2.72817 18.5594 2.90674 18.25L7.51221 10.2725L2.30713 11.9521C1.78169 12.1214 1.2179 11.832 1.04834 11.3066C0.879101 10.7812 1.16839 10.2174 1.69385 10.0479L9.00342 7.68945L11.1343 4L11.2085 3.88965C11.3963 3.64618 11.6881 3.5 12.0005 3.5ZM10.728 8.70312C10.6843 8.91213 10.575 9.10295 10.4146 9.24609L5.50537 17.75H18.4956L14.27 10.4316C14.1654 10.3195 14.086 10.1844 14.0415 10.0352L13.2417 8.65039C13.1626 8.55834 13.0999 8.45113 13.0581 8.33203L12.0005 6.5L10.728 8.70312Z" fill="#9E9E9E"/>
</g>
</svg>
