<svg width="24" height="24" viewBox="0 0 24 24" fill="none" xmlns="http://www.w3.org/2000/svg">
<g id="icons/Abstract/reverse-operation-in">
<path id="Union" d="M12 1.5C12.5523 1.5 13 1.94772 13 2.5V4.5H21C21.5523 4.5 22 4.94772 22 5.5V21.5C22 22.0523 21.5523 22.5 21 22.5H12C11.4477 22.5 11 22.0523 11 21.5V19.5H3C2.44772 19.5 2 19.0523 2 18.5V2.5C2 1.94772 2.44772 1.5 3 1.5H12ZM13 20.5H20V6.5H13V20.5ZM4 17.5H11V3.5H4V17.5ZM16.8125 10.7744C17.2134 10.3946 17.8457 10.4116 18.2256 10.8125C18.6054 11.2134 18.5884 11.8457 18.1875 12.2256L16.8828 13.4609L18.0879 14.8438C18.4501 15.2602 18.4064 15.8913 17.9902 16.2539C17.5737 16.6166 16.9418 16.5727 16.5791 16.1562L14.7461 14.0518C14.3941 13.6476 14.4234 13.0376 14.8125 12.6689L16.8125 10.7744ZM5.77441 7.8125C6.15425 7.41162 6.78659 7.3946 7.1875 7.77441L9.1875 9.66895C9.5766 10.0376 9.60591 10.6476 9.25391 11.0518L7.4209 13.1562C7.0582 13.5727 6.42626 13.6166 6.00977 13.2539C5.59362 12.8913 5.54991 12.2602 5.91211 11.8438L7.11621 10.4609L5.8125 9.22559C5.41162 8.84575 5.3946 8.21341 5.77441 7.8125Z" fill="#9E9E9E"/>
</g>
</svg>
