<svg width="24" height="24" viewBox="0 0 24 24" fill="none" xmlns="http://www.w3.org/2000/svg">
<g id="icons/Abstract/reverse-operation-out">
<path id="Union" d="M12 1.5C12.5523 1.5 13 1.94772 13 2.5V4.5H21C21.5523 4.5 22 4.94772 22 5.5V21.5C22 22.0523 21.5523 22.5 21 22.5H12C11.4477 22.5 11 22.0523 11 21.5V19.5H3C2.44772 19.5 2 19.0523 2 18.5V2.5C2 1.94772 2.44772 1.5 3 1.5H12ZM13 20.5H20V6.5H13V20.5ZM4 17.5H11V3.5H4V17.5ZM14.7744 10.8125C15.1543 10.4116 15.7866 10.3946 16.1875 10.7744L18.1875 12.6689C18.5766 13.0376 18.6059 13.6476 18.2539 14.0518L16.4209 16.1562C16.0582 16.5727 15.4263 16.6166 15.0098 16.2539C14.5936 15.8913 14.5499 15.2602 14.9121 14.8438L16.1162 13.4609L14.8125 12.2256C14.4116 11.8457 14.3946 11.2134 14.7744 10.8125ZM7.8125 7.77441C8.21341 7.3946 8.84575 7.41162 9.22559 7.8125C9.6054 8.21341 9.58838 8.84575 9.1875 9.22559L7.88281 10.4609L9.08789 11.8438C9.45009 12.2602 9.40638 12.8913 8.99023 13.2539C8.57374 13.6166 7.9418 13.5727 7.5791 13.1562L5.74609 11.0518C5.39409 10.6476 5.4234 10.0376 5.8125 9.66895L7.8125 7.77441Z" fill="#9E9E9E"/>
</g>
</svg>
