<svg width="24" height="24" viewBox="0 0 24 24" fill="none" xmlns="http://www.w3.org/2000/svg">
<g id="icons/Abstract/right-run">
<path id="Union" d="M12 1.5C12.5523 1.5 13 1.94772 13 2.5V4.5H21C21.5523 4.5 22 4.94772 22 5.5V21.5C22 22.0523 21.5523 22.5 21 22.5H12C11.4477 22.5 11 22.0523 11 21.5V19.5H3C2.44772 19.5 2 19.0523 2 18.5V2.5C2 1.94772 2.44772 1.5 3 1.5H12ZM13 20.5H20V6.5H13V20.5ZM4 17.5H11V3.5H4V17.5ZM14.7744 10.8125C15.1543 10.4116 15.7866 10.3946 16.1875 10.7744L18.1875 12.6689C18.5766 13.0376 18.6059 13.6476 18.2539 14.0518L16.4209 16.1562C16.0582 16.5727 15.4263 16.6166 15.0098 16.2539C14.5936 15.8913 14.5499 15.2602 14.9121 14.8438L16.1162 13.4609L14.8125 12.2256C14.4116 11.8457 14.3946 11.2134 14.7744 10.8125ZM5.77441 7.8125C6.15425 7.41162 6.78659 7.3946 7.1875 7.77441L9.1875 9.66895C9.5766 10.0376 9.60591 10.6476 9.25391 11.0518L7.4209 13.1562C7.0582 13.5727 6.42626 13.6166 6.00977 13.2539C5.59362 12.8913 5.54991 12.2602 5.91211 11.8438L7.11621 10.4609L5.8125 9.22559C5.41162 8.84575 5.3946 8.21341 5.77441 7.8125Z" fill="#9E9E9E"/>
</g>
</svg>
