<svg width="24" height="24" viewBox="0 0 24 24" fill="none" xmlns="http://www.w3.org/2000/svg">
<g id="icons/Abstract/round-caliper">
<path id="Union" d="M12.0488 1C12.2053 1.00069 12.3616 1.00535 12.5176 1.0127C12.5544 1.0144 12.5912 1.01649 12.6279 1.01855C12.7816 1.02734 12.935 1.03852 13.0879 1.05371C13.1339 1.05823 13.1797 1.06425 13.2256 1.06934C13.3394 1.0821 13.4531 1.09601 13.5664 1.1123C13.6274 1.12101 13.6883 1.12995 13.749 1.13965C13.8754 1.16 14.0014 1.1823 14.127 1.20703C14.2055 1.22242 14.2834 1.23979 14.3613 1.25684C14.4308 1.27211 14.5002 1.28807 14.5693 1.30469C15.0718 1.42494 15.5602 1.58004 16.0332 1.7666C16.0612 1.77764 16.0893 1.78854 16.1172 1.7998C16.2135 1.83873 16.3093 1.87837 16.4043 1.91992C16.4278 1.93019 16.4512 1.94074 16.4746 1.95117C16.6219 2.01684 16.7674 2.08537 16.9111 2.15723C16.9848 2.19399 17.0579 2.23205 17.1309 2.27051C17.1926 2.30312 17.2544 2.33539 17.3154 2.36914C17.3242 2.374 17.333 2.37891 17.3418 2.38379C17.3475 2.38698 17.3527 2.39124 17.3584 2.39453C20.7234 4.27572 23 7.87088 23 12C23 12.1696 22.9941 12.3389 22.9863 12.5078C22.9849 12.5394 22.9841 12.571 22.9824 12.6025C22.9738 12.7598 22.9616 12.9167 22.9463 13.0732C22.9412 13.1258 22.9355 13.1782 22.9297 13.2305C22.9179 13.3355 22.9045 13.4403 22.8896 13.5449C22.8813 13.6046 22.8736 13.6643 22.8643 13.7236C22.8444 13.8491 22.8211 13.974 22.7969 14.0986C22.781 14.1807 22.7638 14.2623 22.7461 14.3438C22.7316 14.41 22.7159 14.476 22.7002 14.542C22.5008 15.3845 22.206 16.1892 21.8252 16.9443C21.8086 16.9772 21.7923 17.0102 21.7754 17.043C21.6348 17.315 21.4824 17.5797 21.3203 17.8379C21.2889 17.888 21.2568 17.9377 21.2246 17.9873C21.1463 18.1077 21.0662 18.2267 20.9834 18.3438C20.9489 18.3926 20.9141 18.441 20.8789 18.4893C20.8324 18.5528 20.7861 18.6163 20.7383 18.6787C20.6866 18.7463 20.6333 18.8125 20.5801 18.8789C20.5229 18.9502 20.4652 19.021 20.4062 19.0908C20.3379 19.1718 20.2688 19.2521 20.1982 19.3311C20.1587 19.3752 20.1193 19.4194 20.0791 19.4629C20.0058 19.5422 19.931 19.6201 19.8555 19.6973C19.8078 19.7459 19.7595 19.794 19.7109 19.8418C19.631 19.9204 19.5501 19.998 19.4678 20.0742C19.4226 20.116 19.3769 20.1572 19.3311 20.1982C19.2233 20.2947 19.1146 20.3902 19.0029 20.4824C18.9908 20.4925 18.978 20.5017 18.9658 20.5117C18.8606 20.5979 18.7531 20.6813 18.6445 20.7637C18.6068 20.7923 18.5694 20.8214 18.5312 20.8496C18.4168 20.9341 18.3015 21.0175 18.1836 21.0977C18.1377 21.1289 18.0903 21.1579 18.0439 21.1885C17.9937 21.2215 17.9444 21.2558 17.8936 21.2881C17.8832 21.2946 17.8719 21.2995 17.8613 21.3057C16.1641 22.377 14.1554 23 12 23C9.86503 23 7.87355 22.3896 6.18652 21.3369C6.18531 21.3362 6.18383 21.3357 6.18262 21.335C6.13523 21.3054 6.08888 21.2744 6.04199 21.2441C5.93639 21.1759 5.83159 21.1068 5.72852 21.0352C5.65195 20.982 5.57608 20.928 5.50098 20.873C5.45518 20.8394 5.40951 20.8058 5.36426 20.7715C5.26025 20.6928 5.15766 20.6125 5.05664 20.5303C5.00199 20.4857 4.9483 20.4401 4.89453 20.3945C4.82933 20.3394 4.76504 20.2832 4.70117 20.2266C4.64927 20.1805 4.59692 20.1349 4.5459 20.0879C4.44732 19.9971 4.35004 19.9049 4.25488 19.8105C4.21614 19.7721 4.17879 19.7323 4.14062 19.6934C4.07795 19.6294 4.01617 19.5645 3.95508 19.499C3.90888 19.4495 3.86267 19.4 3.81738 19.3496C3.72548 19.2473 3.63492 19.1438 3.54688 19.0381C3.51442 18.9992 3.48309 18.9593 3.45117 18.9199C3.38467 18.8378 3.31903 18.755 3.25488 18.6709C3.22161 18.6273 3.18791 18.5841 3.15527 18.54C3.0784 18.4361 3.00391 18.3303 2.93066 18.2236C2.8872 18.1604 2.84491 18.0964 2.80273 18.0322C2.76812 17.9795 2.73392 17.9264 2.7002 17.873C2.62185 17.7492 2.54711 17.6232 2.47363 17.4961C2.45083 17.4566 2.42662 17.4178 2.4043 17.3779C2.39596 17.3631 2.38815 17.3479 2.37988 17.333C2.33718 17.2561 2.29578 17.1786 2.25488 17.1006C2.23097 17.0549 2.20782 17.0089 2.18457 16.9629C1.95346 16.5067 1.75259 16.033 1.58594 15.543C1.57234 15.503 1.55903 15.463 1.5459 15.4229C1.45148 15.1343 1.36947 14.8405 1.29883 14.542C1.28501 14.4838 1.27166 14.4256 1.25879 14.3672C1.24134 14.2877 1.22372 14.2081 1.20801 14.1279C1.18491 14.0108 1.16382 13.8933 1.14453 13.7754C1.13211 13.6988 1.12119 13.622 1.11035 13.5449C1.09256 13.4196 1.07597 13.294 1.0625 13.168C1.05794 13.1248 1.05386 13.0815 1.0498 13.0381C1.03606 12.8933 1.02557 12.7481 1.01758 12.6025C1.01588 12.571 1.01413 12.5394 1.0127 12.5078C1.00626 12.3687 1.00115 12.2294 1 12.0898C0.999902 12.0774 1.00062 12.0651 1.00098 12.0527C1.00089 12.0352 1 12.0176 1 12C1.00003 7.74867 3.41336 4.06359 6.94336 2.23242C6.99316 2.20664 7.04263 2.18027 7.09277 2.15527C7.68547 1.85926 8.30838 1.61586 8.95605 1.42969C8.97367 1.42461 8.99115 1.41905 9.00879 1.41406C9.21031 1.35723 9.41408 1.3062 9.62012 1.26074C9.63053 1.25844 9.64095 1.25618 9.65137 1.25391C9.74758 1.23298 9.84427 1.21371 9.94141 1.19531C10.0145 1.18138 10.0877 1.16772 10.1611 1.15527C10.2506 1.14021 10.3404 1.12617 10.4307 1.11328C10.5411 1.09736 10.6517 1.08288 10.7627 1.07031C10.8283 1.06297 10.894 1.05599 10.96 1.0498C11.1113 1.03543 11.263 1.02373 11.415 1.01562C11.4332 1.01467 11.4515 1.01454 11.4697 1.01367C11.6623 1.00437 11.8554 0.999152 12.0488 1ZM6.84766 4.62207C4.76028 6.08248 3.31989 8.40447 3.04688 11.0732L5.99121 11.0488L6.09082 11.0527C6.31978 11.0736 6.53581 11.1733 6.70117 11.3359C6.8902 11.5219 6.99779 11.7759 7 12.041C7.00703 12.883 7.22603 13.7099 7.6377 14.4443C8.04952 15.179 8.6407 15.7978 9.35547 16.2432C9.58043 16.3834 9.74075 16.607 9.80078 16.8652C9.86073 17.1234 9.8158 17.3951 9.67578 17.6201L8.11621 20.1201C9.29213 20.6836 10.609 21 12 21C13.4166 21 14.756 20.671 15.9482 20.0879L14.3701 17.6016C14.2282 17.3777 14.1814 17.1063 14.2393 16.8477C14.2971 16.589 14.455 16.3637 14.6787 16.2217C15.3897 15.7705 15.9761 15.1471 16.3818 14.4092C16.7875 13.6712 17 12.8422 17 12C17 11.4478 17.4478 11 18 11H20.9434C20.6547 8.38964 19.2502 6.11731 17.2168 4.66797L15.7881 7.24023C15.6594 7.47198 15.4443 7.64387 15.1895 7.7168C14.9344 7.78967 14.6606 7.7577 14.4287 7.62891C13.6925 7.21993 12.8646 7.00371 12.0225 7C11.1805 6.99631 10.351 7.20509 9.61133 7.60742C9.37836 7.73418 9.10397 7.76359 8.84961 7.68848C8.59544 7.6133 8.38156 7.43987 8.25488 7.20703L6.84766 4.62207ZM3.06543 13.0723C3.06872 13.1 3.07263 13.1276 3.07617 13.1553C3.22344 14.2922 3.58559 15.3945 4.14941 16.4004C4.28719 16.6461 4.43624 16.8847 4.5957 17.1152C4.86226 17.5004 5.15859 17.8629 5.48047 18.2012C5.77319 18.5085 6.08704 18.7958 6.4209 19.0596L7.4873 17.3477C6.95915 16.9021 6.49738 16.3818 6.12109 15.7998L5.89355 15.4219C5.48119 14.6862 5.20854 13.8841 5.08203 13.0557L3.06543 13.0723ZM18.9248 13C18.8051 13.8292 18.54 14.6332 18.1338 15.3721C17.7276 16.1109 17.1905 16.7652 16.5547 17.3105L17.6357 19.0146C17.967 18.7485 18.2784 18.4595 18.5684 18.1504C18.5825 18.1353 18.5963 18.1197 18.6104 18.1045C18.7906 17.9096 18.9615 17.7064 19.124 17.4961C19.2294 17.3597 19.3312 17.2206 19.4287 17.0781C19.5926 16.8387 19.7462 16.5915 19.8867 16.3359L20.001 16.1182C20.0101 16.1006 20.0194 16.0831 20.0283 16.0654C20.5148 15.1047 20.8241 14.0665 20.9434 13H18.9248ZM12 9C13.6568 9 15 10.3432 15 12C15 13.6568 13.6568 15 12 15C10.3432 15 9 13.6568 9 12C9.00005 10.3432 10.3432 9 12 9ZM12 11C11.4478 11 11 11.4478 11 12C11 12.5523 11.4477 13 12 13C12.5523 13 13 12.5523 13 12C13 11.4478 12.5522 11 12 11ZM11.8535 3.00293C11.4672 3.0091 11.0869 3.03939 10.7139 3.09277C9.99051 3.19748 9.28212 3.38988 8.60449 3.66602L9.56934 5.43848C10.3549 5.1474 11.1881 4.9963 12.0312 5C12.8744 5.00371 13.7063 5.16203 14.4893 5.45996L15.4688 3.69531C14.6741 3.36347 13.8357 3.1475 12.9795 3.05371C12.6634 3.0195 12.3426 3.00062 12.0176 3C11.9628 2.9999 11.9082 3.00203 11.8535 3.00293Z" fill="#9E9E9E"/>
</g>
</svg>
