<svg width="24" height="24" viewBox="0 0 24 24" fill="none" xmlns="http://www.w3.org/2000/svg">
<g id="icons/Abstract/round-distortion">
<path id="Union" d="M12 1C12.1045 1 12.2084 1.00254 12.3115 1.00781C18.2426 1.17279 23 6.02909 23 12C23 18.0751 18.0751 23 12 23C11.8952 23 11.791 22.9965 11.6875 22.9912C5.75693 22.8257 1 17.9706 1 12C1 5.92487 5.92487 1 12 1ZM11.1025 13.1016C9.32559 13.509 8 15.0995 8 17C8 19.1377 9.67697 20.8835 11.7871 20.9941C11.8579 20.9958 11.9288 21 12 21C14.8266 21 17.3471 19.6954 18.9971 17.6572C18.3721 17.8778 17.7005 18 17 18C14.0627 18 11.6199 15.889 11.1025 13.1016ZM7 8C4.86227 8 3.11552 9.67695 3.00488 11.7871C3.00324 11.8579 3 11.9288 3 12C3 14.8264 4.30392 17.3471 6.3418 18.9971C6.12125 18.3722 6 17.7003 6 17C6 14.063 8.11051 11.6203 10.8975 11.1025C10.49 9.3257 8.90044 8 7 8ZM17.6572 5.00195C17.878 5.62714 18 6.29922 18 7C18 9.93724 15.8889 12.379 13.1016 12.8965C13.5086 14.6739 15.0992 16 17 16C19.1748 16 20.9436 14.2643 20.998 12.1025C20.9984 12.0684 21 12.0342 21 12C21 9.17315 19.6957 6.65192 17.6572 5.00195ZM12 3C9.17342 3 6.65193 4.30365 5.00195 6.3418C5.62705 6.12106 6.29933 6 7 6C9.93691 6 12.3786 8.11059 12.8965 10.8975C14.6738 10.4903 16 8.90077 16 7C16 4.86194 14.3225 3.11504 12.2119 3.00488C12.1415 3.00325 12.0709 3 12 3Z" fill="#9E9E9E"/>
</g>
</svg>
