<svg width="24" height="24" viewBox="0 0 24 24" fill="none" xmlns="http://www.w3.org/2000/svg">
<g id="icons/Abstract/round-mask">
<path id="Union" d="M12 1C18.0751 1 23 5.92481 23 12C23 13.1497 22.8233 14.2581 22.4961 15.2998L22.3564 15.7148C22.3548 15.7195 22.3523 15.7239 22.3506 15.7285C22.3296 15.7868 22.3071 15.8445 22.2852 15.9023C22.2491 15.9974 22.2115 16.0917 22.1729 16.1855C22.1426 16.259 22.1109 16.3317 22.0791 16.4043C22.0418 16.4896 22.0033 16.5741 21.9639 16.6582C21.9374 16.7147 21.9112 16.7712 21.8838 16.8271C21.8331 16.9307 21.7804 17.033 21.7266 17.1348C21.7018 17.1816 21.6778 17.2289 21.6523 17.2754C21.58 17.4074 21.5062 17.5383 21.4287 17.667C21.3947 17.7234 21.3582 17.7782 21.3232 17.834C21.269 17.9205 21.2148 18.0069 21.1582 18.0918C21.1225 18.1454 21.0855 18.198 21.0488 18.251C20.9922 18.3328 20.9347 18.4139 20.876 18.4941C20.8373 18.5469 20.7984 18.5993 20.7588 18.6514C20.7033 18.7243 20.6461 18.7957 20.5889 18.8672C20.5411 18.9269 20.4943 18.9873 20.4453 19.0459C20.3985 19.1019 20.3506 19.1569 20.3027 19.2119C20.2292 19.2965 20.1552 19.3806 20.0791 19.4629C19.9927 19.5564 19.905 19.6488 19.8154 19.7393C19.7725 19.7826 19.7282 19.8246 19.6846 19.8672C19.6159 19.9343 19.547 20.0011 19.4766 20.0664C19.4284 20.1111 19.38 20.1554 19.3311 20.1992C19.2504 20.2714 19.1677 20.3413 19.085 20.4111C19.0417 20.4476 18.9989 20.4847 18.9551 20.5205C18.7049 20.725 18.4455 20.9184 18.1777 21.1006C18.1416 21.1252 18.1048 21.1487 18.0684 21.1729C17.9682 21.2392 17.867 21.304 17.7646 21.3672C17.716 21.3972 17.6673 21.4268 17.6182 21.4561C17.5231 21.5127 17.4269 21.5673 17.3301 21.6211C17.2859 21.6456 17.2418 21.6704 17.1973 21.6943C17.0819 21.7563 16.9654 21.8161 16.8477 21.874C16.8141 21.8905 16.7808 21.9076 16.7471 21.9238C16.6047 21.992 16.4611 22.0579 16.3154 22.1201C16.2583 22.1445 16.2002 22.167 16.1426 22.1904C16.0501 22.2281 15.957 22.2646 15.8633 22.2998C15.7904 22.3272 15.7172 22.354 15.6436 22.3799C15.5629 22.4082 15.4819 22.4354 15.4004 22.4619C15.3309 22.4845 15.2615 22.5071 15.1914 22.5283C15.0686 22.5655 14.9448 22.5999 14.8203 22.6328C14.7897 22.6409 14.7592 22.6494 14.7285 22.6572C14.562 22.6997 14.3941 22.7386 14.2246 22.7734C14.2074 22.777 14.1901 22.7798 14.1729 22.7832C14.0222 22.8134 13.8706 22.8413 13.7178 22.8652C13.6694 22.8728 13.6208 22.8788 13.5723 22.8857C13.4585 22.902 13.3443 22.9169 13.2295 22.9297C13.1662 22.9367 13.1027 22.9433 13.0391 22.9492C12.9166 22.9607 12.7935 22.9691 12.6699 22.9766C12.6198 22.9796 12.5698 22.984 12.5195 22.9863C12.3473 22.9943 12.1742 23 12 23L11.54 22.9902C11.5192 22.9894 11.4984 22.9873 11.4775 22.9863C11.4293 22.9841 11.3811 22.9804 11.333 22.9775C11.2068 22.97 11.0811 22.961 10.9561 22.9492C10.895 22.9435 10.8342 22.9364 10.7734 22.9297C10.6544 22.9165 10.5359 22.9017 10.418 22.8848C10.3736 22.8784 10.3293 22.8722 10.2852 22.8652C10.1301 22.841 9.97609 22.8139 9.82324 22.7832C9.80702 22.7799 9.7906 22.7777 9.77441 22.7744C9.60263 22.7391 9.43243 22.6995 9.26367 22.6562C9.24339 22.6511 9.22336 22.645 9.20312 22.6396C9.068 22.6042 8.93382 22.5667 8.80078 22.5264C8.7343 22.5062 8.66848 22.4843 8.60254 22.4629C8.5181 22.4355 8.43411 22.4073 8.35059 22.3779C8.28135 22.3536 8.21215 22.3294 8.14355 22.3037C8.03553 22.2633 7.92864 22.2205 7.82227 22.1768C7.77902 22.159 7.73535 22.1423 7.69238 22.124C7.5401 22.0591 7.38987 21.9904 7.24121 21.9189C7.22454 21.9109 7.20803 21.9026 7.19141 21.8945C7.05663 21.8289 6.92361 21.7603 6.79199 21.6895C6.7549 21.6695 6.71848 21.6483 6.68164 21.6279C6.5805 21.5719 6.48002 21.5151 6.38086 21.4561C6.33176 21.4268 6.28297 21.3972 6.23438 21.3672C6.12436 21.2993 6.0156 21.2298 5.9082 21.1582C5.88258 21.1411 5.85653 21.1247 5.83105 21.1074C5.55669 20.9212 5.29103 20.7233 5.03516 20.5137C4.99191 20.4782 4.94992 20.4413 4.90723 20.4053C4.83297 20.3425 4.75907 20.2795 4.68652 20.2148C4.63609 20.1699 4.58573 20.1249 4.53613 20.0791C4.45496 20.0041 4.37575 19.927 4.29688 19.8496C4.26007 19.8135 4.22282 19.7778 4.18652 19.7412C3.96074 19.5133 3.74435 19.2761 3.53906 19.0293C3.50678 18.9905 3.47609 18.9504 3.44434 18.9111C3.36839 18.8172 3.29358 18.7224 3.2207 18.626C3.19519 18.5922 3.16967 18.5585 3.14453 18.5244C3.07301 18.4275 3.00392 18.3288 2.93555 18.2295C2.90488 18.185 2.87378 18.1407 2.84375 18.0957C2.77579 17.9938 2.71012 17.8904 2.64551 17.7861C2.62501 17.7531 2.60317 17.7208 2.58301 17.6875C2.4974 17.5461 2.41526 17.4023 2.33594 17.2568C2.32256 17.2323 2.31007 17.2073 2.29688 17.1826C2.23325 17.0637 2.17164 16.9437 2.1123 16.8223C2.09013 16.7769 2.06844 16.7313 2.04688 16.6855C1.99907 16.5842 1.95297 16.4819 1.9082 16.3789C1.88114 16.3166 1.85407 16.2543 1.82812 16.1914C1.7887 16.0958 1.75163 15.9992 1.71484 15.9023C1.69285 15.8444 1.66948 15.7869 1.64844 15.7285C1.6468 15.724 1.64519 15.7194 1.64355 15.7148L1.50391 15.2998C1.17673 14.2581 1 13.1497 1 12C1 5.92481 5.92487 1 12 1ZM3.9375 16C4.30252 16.7343 4.76381 17.412 5.30664 18.0156C5.33746 18.0499 5.36906 18.0834 5.40039 18.1172C7.04412 19.8897 9.39198 21 12 21C14.5976 21 16.9363 19.8978 18.5791 18.1377C18.617 18.0971 18.6552 18.0569 18.6924 18.0156C19.2354 17.4119 19.6974 16.7345 20.0625 16H3.9375ZM12 3C7.02943 3 3 7.02939 3 12C3 12.6876 3.07955 13.3566 3.22559 14H20.7744C20.9205 13.3566 21 12.6876 21 12C21 7.02939 16.9706 3 12 3Z" fill="#9E9E9E"/>
</g>
</svg>
