<svg width="24" height="24" viewBox="0 0 24 24" fill="none" xmlns="http://www.w3.org/2000/svg">
<g id="icons/Abstract/sales-report">
<path id="Union" d="M11.6133 1.07812C11.9015 0.957171 12.2329 0.976704 12.5068 1.1377L21.0068 6.1377C21.3123 6.31737 21.5 6.64565 21.5 7V17C21.4999 17.3543 21.3122 17.6827 21.0068 17.8623L12.5068 22.8623C12.1941 23.0461 11.8059 23.0461 11.4932 22.8623L2.99316 17.8623C2.68779 17.6827 2.50007 17.3543 2.5 17V7C2.5 6.64565 2.68774 6.31737 2.99316 6.1377L11.4932 1.1377L11.6133 1.07812ZM4.5 7.57031V16.4277L12 20.8389L19.5 16.4277V7.57031L12 3.16016L4.5 7.57031ZM8 12C8.55228 12 9 12.4477 9 13V15C8.99995 15.5522 8.55225 16 8 16C7.44775 16 7.00005 15.5522 7 15V13C7 12.4477 7.44772 12 8 12ZM12 10C12.5523 10 13 10.4477 13 11V15C12.9999 15.5522 12.5523 16 12 16C11.4477 16 11.0001 15.5522 11 15V11C11 10.4477 11.4477 10 12 10ZM16 8C16.5523 8 17 8.44772 17 9V15C16.9999 15.5522 16.5523 16 16 16C15.4477 16 15.0001 15.5522 15 15V9C15 8.44772 15.4477 8 16 8Z" fill="#9E9E9E"/>
</g>
</svg>
