<svg width="24" height="24" viewBox="0 0 24 24" fill="none" xmlns="http://www.w3.org/2000/svg">
<g id="icons/Abstract/seo">
<path id="Union" d="M21.1836 3C22.1867 3 23 3.81328 23 4.81641V19.1836C23 20.1867 22.1867 21 21.1836 21H2.81641C1.81328 21 1 20.1867 1 19.1836V4.81641C1 3.81328 1.81328 3 2.81641 3H21.1836ZM3 19H21V5H3V19ZM13 8C13.5523 8 14 8.44772 14 9C14 9.55228 13.5523 10 13 10H12V11.5H13C13.5523 11.5 14 11.9477 14 12.5C14 13.0523 13.5523 13.5 13 13.5H12V14.5H13C13.5523 14.5 14 14.9477 14 15.5C14 16.0523 13.5523 16.5 13 16.5H11C10.4477 16.5 10 16.0523 10 15.5V9C10 8.44772 10.4477 8 11 8H13ZM17.5 8C18.8807 8 20 9.11929 20 10.5V14C20 15.3807 18.8807 16.5 17.5 16.5C16.1193 16.5 15 15.3807 15 14V10.5C15 9.11929 16.1193 8 17.5 8ZM5.85352 7.94727C6.3318 7.73108 6.89094 7.67158 7.44336 7.84082C7.99745 8.0106 8.47025 8.38706 8.82715 8.91309C9.13717 9.37006 9.01842 9.99166 8.56152 10.3018C8.10461 10.6117 7.483 10.4929 7.17285 10.0361C7.03 9.82556 6.90903 9.76977 6.85742 9.75391C6.80433 9.73764 6.74547 9.73846 6.67676 9.76953C6.52736 9.83726 6.34213 10.0528 6.37109 10.4023C6.3906 10.6375 6.49664 10.7704 7.08008 11.1865C7.55908 11.5281 8.51542 12.1532 8.62109 13.4336C8.71716 14.5989 8.09104 15.6264 7.14648 16.0537C6.66819 16.2701 6.10914 16.3285 5.55664 16.1592C5.00263 15.9894 4.52968 15.6138 4.17285 15.0879C3.86284 14.6309 3.98162 14.0093 4.43848 13.6992C4.89541 13.3892 5.51702 13.5081 5.82715 13.9648C5.97017 14.1757 6.09117 14.2313 6.14258 14.2471C6.19548 14.2633 6.25374 14.2624 6.32227 14.2314C6.47133 14.164 6.65663 13.9487 6.62793 13.5986C6.60856 13.3636 6.50252 13.2306 5.91895 12.8145C5.43989 12.4728 4.48397 11.8475 4.37793 10.5674C4.28136 9.4016 4.9088 8.37448 5.85352 7.94727ZM17.5 10C17.2239 10 17 10.2239 17 10.5V14C17 14.2761 17.2239 14.5 17.5 14.5C17.7761 14.5 18 14.2761 18 14V10.5C18 10.2239 17.7761 10 17.5 10Z" fill="#9E9E9E"/>
</g>
</svg>
