<svg width="24" height="24" viewBox="0 0 24 24" fill="none" xmlns="http://www.w3.org/2000/svg">
<g id="icons/Abstract/six-circular-connection">
<path id="Union" d="M12 1C13.6568 1 15 2.34314 15 4C15 4.18684 14.9819 4.36949 14.9492 4.54688L15.9648 5.13379L17.0244 5.74609C17.5524 5.28293 18.2425 5 19 5C20.6568 5 22 6.34317 22 8C22 9.33281 21.1302 10.4606 19.9277 10.8516V13.1475C21.1303 13.5383 22 14.6671 22 16C22 17.6568 20.6568 19 19 19C18.2422 19 17.5525 18.7163 17.0244 18.2529L15.9648 18.8662L14.9492 19.4521C14.982 19.6298 15 19.8128 15 20C15 21.6568 13.6568 23 12 23C10.3432 23 9 21.6568 9 20C9 19.8126 9.01691 19.6291 9.0498 19.4512L8.03613 18.8662L6.97461 18.2529C6.44663 18.7161 5.75749 19 5 19C3.34314 19 2 17.6568 2 16C2 14.6671 2.86967 13.5383 4.07227 13.1475V10.8516C2.86982 10.4606 2 9.33281 2 8C2 6.34317 3.34314 5 5 5C5.75726 5 6.44669 5.28322 6.97461 5.74609L8.03613 5.13379L9.0498 4.54785C9.01703 4.37023 9 4.18711 9 4C9 2.34314 10.3432 1 12 1ZM12 19C11.4477 19 11 19.4477 11 20C11 20.5523 11.4477 21 12 21C12.5523 21 13 20.5523 13 20C13 19.4477 12.5523 19 12 19ZM13.9473 6.27832C13.423 6.72686 12.7441 7 12 7C11.2559 7 10.577 6.72686 10.0527 6.27832L9.03613 6.86621L7.95605 7.48926C7.98454 7.65528 8 7.82585 8 8C8 9.27855 7.19887 10.3669 6.07227 10.7988V13.2002C7.19904 13.632 8 14.7213 8 16C8 16.1738 7.98443 16.344 7.95605 16.5098L9.03613 17.1338L10.0527 17.7207C10.577 17.2724 11.2562 17 12 17C12.7438 17 13.423 17.2724 13.9473 17.7207L14.9648 17.1338L16.043 16.5098C16.0146 16.3441 16 16.1738 16 16C16 14.7213 16.801 13.632 17.9277 13.2002V10.7988C16.8011 10.3669 16 9.27855 16 8C16 7.82591 16.0145 7.65523 16.043 7.48926L14.9648 6.86621L13.9473 6.27832ZM5 15C4.44772 15 4 15.4477 4 16C4 16.5523 4.44772 17 5 17C5.55227 17 6 16.5523 6 16C6 15.4477 5.55227 15 5 15ZM19 15C18.4477 15 18 15.4477 18 16C18 16.5523 18.4477 17 19 17C19.5523 17 20 16.5523 20 16C20 15.4477 19.5523 15 19 15ZM12 9C13.6568 9 15 10.3432 15 12C15 13.6568 13.6568 15 12 15C10.3432 15 9 13.6568 9 12C9 10.3432 10.3432 9 12 9ZM12 11C11.4477 11 11 11.4477 11 12C11 12.5523 11.4477 13 12 13C12.5523 13 13 12.5523 13 12C13 11.4477 12.5523 11 12 11ZM5 7C4.44772 7 4 7.44773 4 8C4 8.55227 4.44772 9 5 9C5.55227 9 6 8.55227 6 8C6 7.44773 5.55227 7 5 7ZM19 7C18.4477 7 18 7.44773 18 8C18 8.55227 18.4477 9 19 9C19.5523 9 20 8.55227 20 8C20 7.44773 19.5523 7 19 7ZM12 3C11.4477 3 11 3.44772 11 4C11 4.55227 11.4477 5 12 5C12.5523 5 13 4.55227 13 4C13 3.44772 12.5523 3 12 3Z" fill="#9E9E9E"/>
</g>
</svg>
