<svg width="24" height="24" viewBox="0 0 24 24" fill="none" xmlns="http://www.w3.org/2000/svg">
<g id="icons/Abstract/smart-optimization">
<path id="Union" d="M11.9995 0.5C13.2625 0.5 14.6434 1.31454 15.6567 3.1084C15.8755 3.49571 16.0784 3.93248 16.2642 4.42188C16.9264 4.28528 17.5327 4.21227 18.0864 4.19531C20.1856 4.13123 21.6654 4.86879 22.3149 6.00293C22.9527 7.11707 22.9011 8.74514 21.8052 10.5508C21.5201 11.0204 21.1602 11.508 20.7173 12.0137C21.1358 12.4968 21.4796 12.9648 21.7563 13.416C22.8578 15.2118 22.9632 16.8651 22.3159 17.9961C21.6763 19.1131 20.2454 19.8863 18.1401 19.832C17.5709 19.8173 16.9444 19.7408 16.2563 19.5957C16.0725 20.0778 15.8728 20.509 15.6567 20.8916C14.6434 22.6855 13.2625 23.5 11.9995 23.5C10.7172 23.4996 9.34306 22.6282 8.34131 20.835C8.13458 20.4648 7.94272 20.0507 7.76514 19.5908C7.06867 19.7389 6.43505 19.8172 5.85986 19.832C3.75442 19.8864 2.32368 19.1131 1.68408 17.9961C1.03673 16.8651 1.14219 15.2118 2.24365 13.416C2.52032 12.965 2.86349 12.4966 3.28174 12.0137C2.83903 11.5082 2.47982 11.0203 2.19482 10.5508C1.09873 8.74493 1.04714 7.11711 1.68506 6.00293C2.33459 4.8687 3.81415 4.13113 5.91357 4.19531C6.4736 4.21246 7.08733 4.28711 7.7583 4.42676C7.93772 3.95981 8.13195 3.53987 8.34131 3.16504C9.34306 1.37183 10.7172 0.500362 11.9995 0.5ZM11.9995 18.0938C11.1788 18.4806 10.4129 18.794 9.69873 19.043C9.82373 19.3481 9.95348 19.6196 10.0874 19.8594C10.864 21.2497 11.6713 21.4996 11.9995 21.5C12.3467 21.5 13.1487 21.2639 13.9146 19.9082C14.0552 19.6592 14.1919 19.3743 14.3228 19.0508C13.6022 18.8005 12.8288 18.4847 11.9995 18.0938ZM4.70361 13.4307C4.39514 13.7964 4.14585 14.1406 3.94873 14.4619C3.07428 15.8876 3.26196 16.7277 3.41943 17.0029C3.58503 17.292 4.19046 17.8747 5.80811 17.833C6.21114 17.8226 6.67034 17.7721 7.18896 17.6699C7.01198 16.8924 6.87136 16.0239 6.77686 15.0557C5.98758 14.5006 5.30002 13.9583 4.70361 13.4307ZM19.2954 13.4307C18.7004 13.957 18.0149 14.4982 17.228 15.0518C17.1359 16.0238 16.9982 16.8939 16.8247 17.6719C17.3374 17.7722 17.7916 17.8227 18.1909 17.833C19.8089 17.8748 20.4151 17.292 20.5806 17.0029C20.738 16.7276 20.9257 15.8876 20.0513 14.4619C19.8541 14.1404 19.6041 13.7966 19.2954 13.4307ZM14.6841 16.6748C14.5493 16.7533 14.4141 16.8272 14.2817 16.9023C14.4922 16.985 14.6964 17.0617 14.895 17.1318C14.9405 16.9209 14.9849 16.7009 15.0249 16.4707C14.9124 16.5377 14.7996 16.6076 14.6841 16.6748ZM8.98584 16.4785C9.02612 16.704 9.07099 16.9198 9.1167 17.127C9.31116 17.0581 9.51141 16.9841 9.71729 16.9033C9.58499 16.8283 9.45059 16.7532 9.31592 16.6748C9.20425 16.6098 9.0947 16.5432 8.98584 16.4785ZM11.9995 8.1377C11.4684 8.4086 10.9083 8.7117 10.3208 9.05371C9.73346 9.39564 9.19301 9.73225 8.69482 10.0605C8.65792 10.6618 8.63623 11.3073 8.63623 12C8.63623 12.6931 8.65788 13.3389 8.69482 13.9404C9.19315 14.2676 9.73395 14.6041 10.3218 14.9463C10.9097 15.2886 11.4693 15.5917 11.9995 15.8633C12.5299 15.5916 13.09 15.2887 13.6782 14.9463C14.2669 14.6036 14.8082 14.2661 15.3071 13.9385C15.3428 13.338 15.3638 12.6929 15.3638 12C15.3638 11.3074 15.3428 10.6627 15.3071 10.0625C14.8083 9.73373 14.2674 9.39616 13.6792 9.05371C13.0914 8.71151 12.5309 8.40871 11.9995 8.1377ZM17.3638 12C17.3638 12.1516 17.3606 12.3013 17.3589 12.4492C17.5438 12.2992 17.7198 12.1522 17.8862 12.0068C17.7198 11.8601 17.5437 11.7118 17.3589 11.5605C17.3605 11.7053 17.3638 11.8518 17.3638 12ZM6.64111 11.5596C6.45606 11.7109 6.27942 11.8589 6.11279 12.0059C6.27958 12.1515 6.45582 12.2989 6.64111 12.4492C6.63933 12.3013 6.63623 12.1516 6.63623 12C6.63623 11.8514 6.63939 11.7047 6.64111 11.5596ZM5.85205 6.19434C4.19689 6.14381 3.57646 6.72408 3.42041 6.99609C3.25325 7.28803 3.05635 8.11591 3.90479 9.51367C4.10726 9.84716 4.36716 10.2068 4.69482 10.5908C5.29353 10.0558 5.98374 9.5058 6.77686 8.94531C6.87053 7.9852 7.00925 7.12311 7.18408 6.35059C6.68761 6.25531 6.2446 6.20635 5.85205 6.19434ZM18.147 6.19434C17.758 6.20626 17.3195 6.25409 16.8286 6.34766C17.0003 7.12141 17.1366 7.98606 17.228 8.95117C18.0184 9.50996 18.7071 10.0573 19.3042 10.5908C19.6321 10.2066 19.8927 9.84731 20.0952 9.51367C20.9436 8.11591 20.7458 7.28802 20.5786 6.99609C20.4223 6.72396 19.8018 6.14375 18.147 6.19434ZM14.8979 6.87793C14.7017 6.94626 14.5001 7.02114 14.2925 7.10156C14.4219 7.17495 14.5535 7.24858 14.6851 7.3252C14.8001 7.39219 14.9128 7.4606 15.0249 7.52734C14.9856 7.30147 14.9426 7.08527 14.8979 6.87793ZM9.11475 6.88281C9.06996 7.08646 9.02539 7.29829 8.98584 7.51953C9.09402 7.45517 9.20303 7.38978 9.31396 7.3252C9.44554 7.2486 9.57718 7.17493 9.70654 7.10156C9.50376 7.02303 9.30671 6.9498 9.11475 6.88281ZM11.9995 2.5C11.6713 2.5004 10.864 2.75031 10.0874 4.14062C9.95218 4.38273 9.82092 4.6571 9.69482 4.96582C10.4114 5.21243 11.1789 5.52372 11.9995 5.9082C12.8288 5.51968 13.6036 5.20486 14.3267 4.95703C14.1948 4.63021 14.0564 4.34289 13.9146 4.0918C13.1487 2.73609 12.3467 2.5 11.9995 2.5Z" fill="#9E9E9E"/>
</g>
</svg>
