<svg width="24" height="24" viewBox="0 0 24 24" fill="none" xmlns="http://www.w3.org/2000/svg">
<g id="icons/Abstract/sphere">
<path id="Union" d="M12 1C18.0751 1 23 5.92487 23 12C23 18.0751 18.0751 23 12 23C5.92487 23 1 18.0751 1 12C1 5.92487 5.92487 1 12 1ZM14.4648 16.8809C13.6707 16.958 12.8452 17 12 17C11.1544 17 10.3287 16.9581 9.53418 16.8809C9.69397 17.5512 9.8847 18.1619 10.0996 18.6992C10.4336 19.5343 10.8072 20.1438 11.1699 20.5273C11.5305 20.9085 11.8113 21 12 21C12.1887 21 12.4695 20.9085 12.8301 20.5273C13.1928 20.1438 13.5664 19.5343 13.9004 18.6992C14.1153 18.1619 14.3051 17.5511 14.4648 16.8809ZM3.64258 15.3398C4.55581 17.623 6.37618 19.4429 8.65918 20.3564C8.51012 20.0668 8.37071 19.7612 8.24316 19.4424C7.90643 18.6005 7.62943 17.633 7.42285 16.5762C6.36642 16.3696 5.39917 16.0935 4.55762 15.7568C4.23833 15.6291 3.93258 15.4891 3.64258 15.3398ZM20.3564 15.3398C20.0667 15.489 19.7614 15.6292 19.4424 15.7568C18.6006 16.0936 17.633 16.3696 16.5762 16.5762C16.3696 17.633 16.0936 18.6006 15.7568 19.4424C15.6292 19.7614 15.489 20.0667 15.3398 20.3564C17.6231 19.4431 19.4431 17.6231 20.3564 15.3398ZM12 9C11.0084 9 10.0581 9.06031 9.16992 9.16992C9.06031 10.0581 9 11.0084 9 12C9 12.9912 9.06039 13.9412 9.16992 14.8291C10.0582 14.9387 11.0084 15 12 15C12.9913 15 13.9411 14.9386 14.8291 14.8291C14.9386 13.9411 15 12.9913 15 12C15 11.0084 14.9387 10.0582 14.8291 9.16992C13.9412 9.06039 12.9912 9 12 9ZM7.11816 9.53418C6.44818 9.69392 5.83789 9.8848 5.30078 10.0996C4.46569 10.4336 3.85623 10.8072 3.47266 11.1699C3.09148 11.5305 3 11.8113 3 12C3 12.1887 3.09148 12.4695 3.47266 12.8301C3.85623 13.1928 4.46569 13.5664 5.30078 13.9004C5.83783 14.1152 6.44827 14.3051 7.11816 14.4648C7.04101 13.6707 7 12.8452 7 12C7 11.1545 7.04095 10.3286 7.11816 9.53418ZM16.8809 9.53418C16.9581 10.3287 17 11.1544 17 12C17 12.8452 16.958 13.6707 16.8809 14.4648C17.5511 14.3051 18.1619 14.1153 18.6992 13.9004C19.5343 13.5664 20.1438 13.1928 20.5273 12.8301C20.9085 12.4695 21 12.1887 21 12C21 11.8113 20.9085 11.5305 20.5273 11.1699C20.1438 10.8072 19.5343 10.4336 18.6992 10.0996C18.1619 9.8847 17.5512 9.69397 16.8809 9.53418ZM8.65918 3.64258C6.37631 4.55596 4.55596 6.37631 3.64258 8.65918C3.93246 8.50997 4.23847 8.37082 4.55762 8.24316C5.39922 7.90653 6.36635 7.62941 7.42285 7.42285C7.62941 6.36635 7.90653 5.39922 8.24316 4.55762C8.37082 4.23847 8.50997 3.93246 8.65918 3.64258ZM15.3398 3.64258C15.4891 3.93258 15.6291 4.23833 15.7568 4.55762C16.0935 5.39917 16.3696 6.36642 16.5762 7.42285C17.633 7.62943 18.6005 7.90643 19.4424 8.24316C19.7612 8.37071 20.0668 8.51012 20.3564 8.65918C19.4429 6.37618 17.623 4.55581 15.3398 3.64258ZM12 3C11.8113 3 11.5305 3.09148 11.1699 3.47266C10.8072 3.85623 10.4336 4.46569 10.0996 5.30078C9.8848 5.83789 9.69392 6.44818 9.53418 7.11816C10.3286 7.04095 11.1545 7 12 7C12.8452 7 13.6707 7.04101 14.4648 7.11816C14.3051 6.44827 14.1152 5.83783 13.9004 5.30078C13.5664 4.46569 13.1928 3.85623 12.8301 3.47266C12.4695 3.09148 12.1887 3 12 3Z" fill="#9E9E9E"/>
</g>
</svg>
