<svg width="24" height="24" viewBox="0 0 24 24" fill="none" xmlns="http://www.w3.org/2000/svg">
<g id="icons/Abstract/split-branch">
<path id="Union" d="M8 1C8.55228 1 9 1.44772 9 2V10.0859L13.207 14.293C13.3946 14.4805 13.5 14.7348 13.5 15V22C13.5 22.5523 13.0523 23 12.5 23H2C1.44772 23 1 22.5523 1 22V2C1 1.44772 1.44772 1 2 1H8ZM22 1C22.5523 1 23 1.44772 23 2V22C23 22.5523 22.5523 23 22 23H16.5C15.9477 23 15.5 22.5523 15.5 22V13.4141L11.293 9.20703C11.1054 9.0195 11 8.76522 11 8.5V2C11 1.44772 11.4477 1 12 1H22Z" fill="#9E9E9E"/>
</g>
</svg>
