<svg width="24" height="24" viewBox="0 0 24 24" fill="none" xmlns="http://www.w3.org/2000/svg">
<g id="icons/Abstract/stereo-perspective">
<path id="Union" d="M22 1C22.0563 1 22.1113 1.00571 22.165 1.01465C22.1738 1.01611 22.1827 1.01686 22.1914 1.01855L22.2012 1.02051C22.211 1.02252 22.2207 1.02504 22.2305 1.02734C22.251 1.0322 22.2717 1.0368 22.292 1.04297C22.3408 1.05783 22.3873 1.0778 22.4326 1.09961C22.4466 1.10634 22.4609 1.11269 22.4746 1.12012C22.6203 1.19887 22.7441 1.31255 22.835 1.4502C22.8597 1.48768 22.8812 1.52662 22.9004 1.56641C22.9222 1.61159 22.9412 1.65838 22.9561 1.70703C22.9623 1.72732 22.9668 1.74799 22.9717 1.76855C22.9893 1.84294 23 1.92022 23 2V17C23 17.2268 22.9231 17.4348 22.7959 17.6025C22.7684 17.6389 22.7396 17.6744 22.707 17.707L17.707 22.707C17.6744 22.7396 17.6389 22.7684 17.6025 22.7959C17.5102 22.8659 17.4064 22.9213 17.293 22.9561C17.2776 22.9608 17.2617 22.9638 17.2461 22.9678C17.2302 22.9718 17.2144 22.9762 17.1982 22.9795C17.1895 22.9813 17.1806 22.9819 17.1719 22.9834C17.1159 22.9931 17.0587 23 17 23H2C1.94333 23 1.88808 22.9934 1.83398 22.9844C1.82358 22.9826 1.81309 22.9816 1.80273 22.9795C1.78562 22.9761 1.76874 22.9721 1.75195 22.9678C1.73697 22.9639 1.72186 22.9606 1.70703 22.9561C1.65838 22.9412 1.61159 22.9222 1.56641 22.9004C1.52662 22.8812 1.48768 22.8597 1.4502 22.835C1.31255 22.7441 1.19887 22.6203 1.12012 22.4746C1.11269 22.4609 1.10634 22.4466 1.09961 22.4326C1.0778 22.3873 1.05783 22.3408 1.04297 22.292C1.0303 22.2503 1.02176 22.2077 1.01465 22.165C1.00571 22.1113 1 22.0563 1 22V7L1.00488 6.90137C1.00828 6.86662 1.01364 6.83244 1.02051 6.79883L1.03613 6.73242C1.03704 6.72915 1.03812 6.72592 1.03906 6.72266C1.05334 6.67311 1.07137 6.62517 1.09277 6.5791C1.09522 6.57382 1.09804 6.56871 1.10059 6.56348C1.1231 6.51717 1.14862 6.47263 1.17773 6.43066C1.18211 6.42435 1.18689 6.41833 1.19141 6.41211C1.22221 6.36981 1.25605 6.32989 1.29297 6.29297L6.29297 1.29297L6.36621 1.22656C6.36818 1.22495 6.37009 1.22328 6.37207 1.22168C6.41226 1.18921 6.45503 1.1598 6.5 1.13379C6.50378 1.13161 6.50791 1.13006 6.51172 1.12793C6.55841 1.10173 6.60726 1.07908 6.6582 1.06055C6.66121 1.05945 6.66398 1.05771 6.66699 1.05664C6.71515 1.03964 6.76518 1.02709 6.81641 1.01758C6.82582 1.01582 6.83525 1.01419 6.84473 1.0127C6.89536 1.0048 6.94715 1 7 1H22ZM7.41406 18L4.41406 21H16V18H7.41406ZM3 19.5859L6 16.5859V8H3V19.5859ZM18 18V19.5859L19.5859 18H18ZM8 16H16V8H8V16ZM18 7.41406V16H21V4.41406L18 7.41406ZM4.41406 6H6V4.41406L4.41406 6ZM8 6H16.5859L19.5859 3H8V6Z" fill="#9E9E9E"/>
</g>
</svg>
