<svg width="24" height="24" viewBox="0 0 24 24" fill="none" xmlns="http://www.w3.org/2000/svg">
<g id="icons/Abstract/stereo-nesting">
<path id="Union" d="M8.13965 4.06738C8.40992 3.96294 8.71483 3.98001 8.97363 4.11914L15.4736 7.61914C15.7975 7.79353 15.9999 8.13218 16 8.5V14.5C16 15.0523 15.5523 15.5 15 15.5C14.4477 15.5 14 15.0523 14 14.5V9.09668L8.5 6.13574L3 9.09668V15.9023L8.97363 19.1191C9.45969 19.3809 9.64218 19.9875 9.38086 20.4736C9.11911 20.9597 8.51255 21.1423 8.02637 20.8809L1.52637 17.3809C1.2025 17.2064 1 16.8679 1 16.5V8.5L1.00977 8.36328C1.05303 8.04998 1.24314 7.77165 1.52637 7.61914L8.02637 4.11914L8.13965 4.06738ZM14.1191 3.52637C14.3809 3.04039 14.9875 2.85779 15.4736 3.11914L21.9736 6.61914C22.2975 6.79353 22.4999 7.13218 22.5 7.5V15.5C22.5 15.8679 22.2975 16.2064 21.9736 16.3809L15.4736 19.8809C15.1779 20.0399 14.8221 20.0399 14.5264 19.8809L8.02637 16.3809C7.7025 16.2064 7.5 15.8679 7.5 15.5V9.5C7.50009 8.94779 7.94777 8.5 8.5 8.5C9.05223 8.5 9.49991 8.94779 9.5 9.5V14.9023L15 17.8633L20.5 14.9023V8.09668L14.5264 4.88086C14.0403 4.61909 13.8577 4.01253 14.1191 3.52637Z" fill="#9E9E9E"/>
</g>
</svg>
