<svg width="24" height="24" viewBox="0 0 24 24" fill="none" xmlns="http://www.w3.org/2000/svg">
<g id="icons/Abstract/switch-contrast">
<path id="Union" d="M12 2C12.5523 2 13 2.44772 13 3V21C13 21.5523 12.5523 22 12 22C11.4477 22 11 21.5523 11 21V3C11 2.44772 11.4477 2 12 2ZM9 4C9.55229 4 10 4.44772 10 5C10 5.55228 9.55229 6 9 6H4C3.5005 6 3.22631 6.0018 3.03613 6.02734C3.03355 6.02769 3.0308 6.02797 3.02832 6.02832C3.02797 6.0308 3.02769 6.03354 3.02734 6.03613C3.0018 6.22632 3 6.5005 3 7V17C3 17.4995 3.0018 17.7737 3.02734 17.9639C3.02765 17.9661 3.02802 17.9685 3.02832 17.9707C3.03084 17.9711 3.0335 17.9723 3.03613 17.9727C3.22631 17.9982 3.5005 18 4 18H9C9.55229 18 10 18.4477 10 19C10 19.5523 9.55229 20 9 20H4C3.55687 20 3.12397 20.0018 2.76953 19.9541C2.38633 19.9026 1.94915 19.7773 1.58594 19.4141C1.22273 19.0508 1.09742 18.6137 1.0459 18.2305C0.998245 17.876 1 17.4431 1 17V7C1 6.55687 0.998245 6.12397 1.0459 5.76953C1.09742 5.38633 1.22273 4.94915 1.58594 4.58594C1.94915 4.22272 2.38633 4.09742 2.76953 4.0459C3.12397 3.99825 3.55687 4 4 4H9ZM20 4C20.4431 4 20.876 3.99825 21.2305 4.0459C21.6137 4.09742 22.0508 4.22273 22.4141 4.58594C22.7773 4.94915 22.9026 5.38632 22.9541 5.76953C23.0018 6.12397 23 6.55687 23 7V17C23 17.4431 23.0018 17.876 22.9541 18.2305C22.9026 18.6137 22.7773 19.0508 22.4141 19.4141C22.0508 19.7773 21.6137 19.9026 21.2305 19.9541C20.876 20.0018 20.4431 20 20 20H15C14.4477 20 14 19.5523 14 19C14 18.4477 14.4477 18 15 18H20C20.4995 18 20.7737 17.9982 20.9639 17.9727C20.9662 17.9723 20.9685 17.971 20.9707 17.9707C20.971 17.9685 20.9723 17.9662 20.9727 17.9639C20.9982 17.7737 21 17.4995 21 17V7C21 6.50049 20.9982 6.22631 20.9727 6.03613C20.9723 6.03349 20.9711 6.03084 20.9707 6.02832C20.9685 6.02802 20.9661 6.02765 20.9639 6.02734C20.7737 6.0018 20.4995 6 20 6H15C14.4477 6 14 5.55228 14 5C14 4.44772 14.4477 4 15 4H20Z" fill="#9E9E9E"/>
</g>
</svg>
