<svg width="24" height="24" viewBox="0 0 24 24" fill="none" xmlns="http://www.w3.org/2000/svg">
<g id="icons/Abstract/symbol-double-x">
<path id="Union" d="M11.3693 14.2246C11.762 13.9043 12.341 13.9269 12.7072 14.293L19.7072 21.293C20.0976 21.6835 20.0977 22.3165 19.7072 22.707C19.3167 23.0975 18.6836 23.0975 18.2931 22.707L12.0001 16.4141L5.70715 22.707C5.31665 23.0975 4.68362 23.0975 4.29309 22.707C3.90257 22.3165 3.90257 21.6835 4.29309 21.293L11.2931 14.293L11.3693 14.2246ZM1.29309 4.29297C1.68362 3.90244 2.31663 3.90244 2.70715 4.29297L9.70715 11.293C10.0976 11.6835 10.0977 12.3165 9.70715 12.707L2.70715 19.707C2.31665 20.0975 1.68362 20.0975 1.29309 19.707C0.902567 19.3165 0.902567 18.6835 1.29309 18.293L7.58606 12L1.29309 5.70703C0.902567 5.31651 0.902567 4.68349 1.29309 4.29297ZM20.7931 4.29297C21.1836 3.90244 21.8166 3.90244 22.2072 4.29297C22.5976 4.6835 22.5977 5.31653 22.2072 5.70703L15.9142 12L22.2072 18.293C22.5976 18.6835 22.5977 19.3165 22.2072 19.707C21.8167 20.0975 21.1836 20.0975 20.7931 19.707L13.7931 12.707C13.4026 12.3165 13.4026 11.6835 13.7931 11.293L20.7931 4.29297ZM18.2931 1.29297C18.6836 0.902444 19.3166 0.902444 19.7072 1.29297C20.0976 1.6835 20.0977 2.31653 19.7072 2.70703L12.7072 9.70703C12.3167 10.0975 11.6836 10.0975 11.2931 9.70703L4.29309 2.70703C3.90257 2.31651 3.90257 1.68349 4.29309 1.29297C4.68362 0.902444 5.31663 0.902444 5.70715 1.29297L12.0001 7.58594L18.2931 1.29297Z" fill="#9E9E9E"/>
</g>
</svg>
