<svg width="24" height="24" viewBox="0 0 24 24" fill="none" xmlns="http://www.w3.org/2000/svg">
<g id="icons/Abstract/symmetry">
<path id="Union" d="M12 1C12.5523 1 13 1.44772 13 2V3.75488L22.2871 6.54199C22.7101 6.66889 23 7.05839 23 7.5V16.5C23 16.9416 22.7101 17.3311 22.2871 17.458L13 20.2432V22C13 22.5523 12.5523 23 12 23C11.4477 23 11 22.5523 11 22V20.2432L1.71289 17.458C1.28991 17.3311 1 16.9416 1 16.5V7.5C1 7.05839 1.28991 6.66889 1.71289 6.54199L11 3.75488V2C11 1.44772 11.4477 1 12 1ZM3 8.24414V15.7559L11 18.1553V5.84375L3 8.24414ZM13 18.1553L21 15.7559V8.24414L13 5.84375V18.1553Z" fill="#9E9E9E"/>
</g>
</svg>
