<svg width="24" height="24" viewBox="0 0 24 24" fill="none" xmlns="http://www.w3.org/2000/svg">
<g id="icons/Abstract/sync">
<path id="Union" d="M22 8C22.5523 8 23 8.44772 23 9V15.7891C23 16.3413 22.5523 16.7891 22 16.7891H16.5V20.9893C16.5 21.5408 16.0535 21.9882 15.502 21.9893L10.002 22C9.44968 22.0011 9.00108 21.5542 9 21.002C8.99894 20.4497 9.44578 20.0011 9.99805 20L14.5 19.9902V15.7891C14.5002 15.237 14.9478 14.7891 15.5 14.7891H21V10H15.1729C14.6206 10 14.1729 9.55228 14.1729 9C14.1729 8.44772 14.6206 8 15.1729 8H22ZM14.998 2.98926C15.5503 2.9882 15.9989 3.43504 16 3.9873C16.0011 4.53958 15.5542 4.98818 15.002 4.98926L10.5 4.99805V9C10.4999 9.5522 10.0522 10 9.5 10H3V15H10.5C11.0522 15.0001 11.5 15.4478 11.5 16C11.4999 16.5521 11.0521 16.9999 10.5 17H2C1.4478 17 1.00013 16.5522 1 16V9C1 8.44772 1.44772 8 2 8H8.5V4C8.5 3.44848 8.94653 3.00108 9.49805 3L14.998 2.98926Z" fill="#9E9E9E"/>
</g>
</svg>
