<svg width="24" height="24" viewBox="0 0 24 24" fill="none" xmlns="http://www.w3.org/2000/svg">
<g id="icons/Abstract/texture-two">
<path id="Union" d="M20 1C21.6568 1 23 2.34314 23 4V20C23 21.6568 21.6568 23 20 23H4C2.34314 23 1 21.6568 1 20V4C1 2.34315 2.34315 1 4 1H20ZM4 3C3.44771 3 3 3.44771 3 4V20C3 20.5523 3.44772 21 4 21H20C20.5523 21 21 20.5523 21 20V4C21 3.44772 20.5523 3 20 3H4ZM10 17C10.5523 17 11 17.4477 11 18C11 18.5523 10.5523 19 10 19H6C5.44772 19 5 18.5523 5 18C5 17.4477 5.44772 17 6 17H10ZM14 13C14.5523 13 15 13.4477 15 14V18C15 18.5523 14.5523 19 14 19C13.4477 19 13 18.5523 13 18V14C13 13.4477 13.4477 13 14 13ZM18 13C18.5523 13 19 13.4477 19 14V18C19 18.5523 18.5523 19 18 19C17.4477 19 17 18.5523 17 18V14C17 13.4477 17.4477 13 18 13ZM10 13C10.5523 13 11 13.4477 11 14C11 14.5523 10.5523 15 10 15H6C5.44772 15 5 14.5523 5 14C5 13.4477 5.44772 13 6 13H10ZM6 5C6.55228 5 7 5.44772 7 6V10C7 10.5523 6.55228 11 6 11C5.44772 11 5 10.5523 5 10V6C5 5.44772 5.44772 5 6 5ZM10 5C10.5523 5 11 5.44772 11 6V10C11 10.5523 10.5523 11 10 11C9.44771 11 9 10.5523 9 10V6C9 5.44772 9.44771 5 10 5ZM18 9C18.5523 9 19 9.44771 19 10C19 10.5523 18.5523 11 18 11H14C13.4477 11 13 10.5523 13 10C13 9.44771 13.4477 9 14 9H18ZM18 5C18.5523 5 19 5.44772 19 6C19 6.55228 18.5523 7 18 7H14C13.4477 7 13 6.55228 13 6C13 5.44772 13.4477 5 14 5H18Z" fill="#9E9E9E"/>
</g>
</svg>
