<svg width="24" height="24" viewBox="0 0 24 24" fill="none" xmlns="http://www.w3.org/2000/svg">
<g id="icons/Abstract/texture">
<path id="Union" d="M20.2931 2.29297C20.6836 1.90244 21.3166 1.90244 21.7072 2.29297C22.0976 2.6835 22.0977 3.31653 21.7072 3.70703L3.70715 21.707C3.31665 22.0975 2.68362 22.0975 2.29309 21.707C1.90257 21.3165 1.90257 20.6835 2.29309 20.293L20.2931 2.29297ZM20.2931 7.29297C20.6836 6.90244 21.3166 6.90244 21.7072 7.29297C22.0976 7.6835 22.0977 8.31653 21.7072 8.70703L8.70715 21.707C8.31665 22.0975 7.68362 22.0975 7.29309 21.707C6.90257 21.3165 6.90257 20.6835 7.29309 20.293L20.2931 7.29297ZM20.2931 12.293C20.6836 11.9024 21.3166 11.9024 21.7072 12.293C22.0976 12.6835 22.0977 13.3165 21.7072 13.707L13.7072 21.707C13.3167 22.0975 12.6836 22.0975 12.2931 21.707C11.9026 21.3165 11.9026 20.6835 12.2931 20.293L20.2931 12.293ZM20.2931 17.293C20.6836 16.9024 21.3166 16.9024 21.7072 17.293C22.0976 17.6835 22.0977 18.3165 21.7072 18.707L18.7072 21.707C18.3167 22.0975 17.6836 22.0975 17.2931 21.707C16.9026 21.3165 16.9026 20.6835 17.2931 20.293L20.2931 17.293ZM15.2931 2.29297C15.6836 1.90244 16.3166 1.90244 16.7072 2.29297C17.0976 2.6835 17.0977 3.31653 16.7072 3.70703L3.70715 16.707C3.31665 17.0975 2.68362 17.0975 2.29309 16.707C1.90257 16.3165 1.90257 15.6835 2.29309 15.293L15.2931 2.29297ZM10.2931 2.29297C10.6836 1.90244 11.3166 1.90244 11.7072 2.29297C12.0976 2.6835 12.0977 3.31653 11.7072 3.70703L3.70715 11.707C3.31665 12.0975 2.68362 12.0975 2.29309 11.707C1.90257 11.3165 1.90257 10.6835 2.29309 10.293L10.2931 2.29297ZM5.29309 2.29297C5.68362 1.90244 6.31663 1.90244 6.70715 2.29297C7.0976 2.6835 7.09765 3.31653 6.70715 3.70703L3.70715 6.70703C3.31665 7.09753 2.68362 7.09748 2.29309 6.70703C1.90257 6.31651 1.90257 5.68349 2.29309 5.29297L5.29309 2.29297Z" fill="#9E9E9E"/>
</g>
</svg>
