<svg width="24" height="24" viewBox="0 0 24 24" fill="none" xmlns="http://www.w3.org/2000/svg">
<g id="icons/Abstract/three-triangles">
<path id="Union" d="M15.4999 2.5C15.8571 2.5 16.1874 2.69063 16.3661 3L22.8612 14.25C23.0398 14.5594 23.0398 14.9406 22.8612 15.25C22.6826 15.5594 22.3522 15.75 21.995 15.75H16.7362L19.3593 20.2461C19.5396 20.5554 19.5405 20.9376 19.3622 21.248C19.1838 21.5585 18.853 21.75 18.495 21.75H5.50476C5.14675 21.7499 4.81589 21.5585 4.63757 21.248C4.4593 20.9376 4.46111 20.5553 4.64148 20.2461L7.26453 15.75H2.00476C1.64755 15.75 1.31716 15.5594 1.13855 15.25C0.960025 14.9407 0.960025 14.5593 1.13855 14.25L7.63367 3L7.70789 2.88965C7.89559 2.64599 8.18738 2.50006 8.49988 2.5C8.85712 2.5 9.18745 2.69063 9.36609 3L11.9999 7.56152L14.6337 3L14.7079 2.88965C14.8956 2.64599 15.1874 2.50006 15.4999 2.5Z" fill="#9E9E9E"/>
</g>
</svg>
