<svg width="24" height="24" viewBox="0 0 24 24" fill="none" xmlns="http://www.w3.org/2000/svg">
<g id="icons/Abstract/three-hexagons">
<path id="Union" d="M11.4854 0.642578C11.802 0.452569 12.198 0.452569 12.5146 0.642578L17.5146 3.64258C17.8158 3.82332 18 4.14881 18 4.5V9.93359L22.5146 12.6426C22.8158 12.8233 23 13.1488 23 13.5V19.5C23 19.8512 22.8157 20.1767 22.5146 20.3574L17.5146 23.3574C17.198 23.5474 16.802 23.5474 16.4854 23.3574L12 20.666L7.51465 23.3574C7.19798 23.5474 6.80202 23.5474 6.48535 23.3574L1.48535 20.3574C1.18425 20.1767 1.00003 19.8512 1 19.5V13.5C1 13.1488 1.18425 12.8233 1.48535 12.6426L6 9.93359V4.5C6 4.14881 6.18425 3.82332 6.48535 3.64258L11.4854 0.642578ZM3 14.0654V18.9336L7 21.333L11 18.9336V14.0654L7 11.666L3 14.0654ZM13 14.0654V18.9336L17 21.333L21 18.9336V14.0654L17 11.666L13 14.0654ZM8 5.06543V9.93359L12 12.333L16 9.93359V5.06543L12 2.66602L8 5.06543Z" fill="#9E9E9E"/>
</g>
</svg>
