<svg width="24" height="24" viewBox="0 0 24 24" fill="none" xmlns="http://www.w3.org/2000/svg">
<g id="icons/Abstract/three-slashes">
<path id="Union" d="M20.8359 15.0137C21.1258 14.9655 21.4223 15.0474 21.6465 15.2373C21.8706 15.4273 22 15.7062 22 16V19.5C21.9999 19.9888 21.6462 20.406 21.1641 20.4863L3.16406 23.4863C2.87424 23.5345 2.57771 23.4526 2.35352 23.2627C2.12939 23.0727 2.00004 22.7938 2 22.5V19C2 18.5112 2.35376 18.094 2.83594 18.0137L20.8359 15.0137ZM4 19.8467V21.3193L20 18.6523V17.1797L4 19.8467ZM20.8359 8.01367C21.1258 7.96546 21.4223 8.04737 21.6465 8.2373C21.8706 8.4273 22 8.70617 22 9V12.5C21.9999 12.9888 21.6462 13.406 21.1641 13.4863L3.16406 16.4863C2.87424 16.5345 2.57771 16.4526 2.35352 16.2627C2.12939 16.0727 2.00004 15.7938 2 15.5V12C2 11.5112 2.35376 11.094 2.83594 11.0137L20.8359 8.01367ZM4 12.8467V14.3193L20 11.6523V10.1797L4 12.8467ZM20.8359 1.01367C21.1258 0.965459 21.4223 1.04737 21.6465 1.2373C21.8706 1.4273 22 1.70617 22 2V5.5C21.9999 5.98878 21.6462 6.40597 21.1641 6.48633L3.16406 9.48633C2.87424 9.53453 2.57771 9.45259 2.35352 9.2627C2.12939 9.07272 2.00004 8.79381 2 8.5V5C2 4.51117 2.35376 4.09405 2.83594 4.01367L20.8359 1.01367ZM4 5.84668V7.31934L20 4.65234V3.17969L4 5.84668Z" fill="#9E9E9E"/>
</g>
</svg>
