<svg width="24" height="24" viewBox="0 0 24 24" fill="none" xmlns="http://www.w3.org/2000/svg">
<g id="icons/Abstract/treasure-chest">
<path id="Union" d="M21 1C22.1046 1 23 1.89544 23 3V21C23 22.1046 22.1046 23 21 23H3C1.89544 23 1 22.1046 1 21V3C1 1.89543 1.89543 1 3 1H21ZM3 13V21H21V13H16.3867C15.9318 15.0038 14.1415 16.5 12 16.5C9.85855 16.5 8.06815 15.0038 7.61328 13H3ZM12 9.5C10.6193 9.5 9.5 10.6193 9.5 12C9.5 13.3807 10.6193 14.5 12 14.5C13.3807 14.5 14.5 13.3807 14.5 12C14.5 10.6193 13.3807 9.5 12 9.5ZM3 11H7.61328C8.06815 8.9962 9.85855 7.5 12 7.5C14.1415 7.5 15.9318 8.9962 16.3867 11H21V3H3V11Z" fill="#9E9E9E"/>
</g>
</svg>
