<svg width="24" height="24" viewBox="0 0 24 24" fill="none" xmlns="http://www.w3.org/2000/svg">
<g id="icons/Abstract/triangle-round-rectangle">
<path id="Union" d="M18 13C20.7614 13 23 15.2386 23 18C23 20.7614 20.7614 23 18 23C15.2386 23 13 20.7614 13 18C13 15.2386 15.2386 13 18 13ZM10 13.5C10.5523 13.5 11 13.9477 11 14.5V21.5C11 22.0523 10.5523 22.5 10 22.5H3C2.44772 22.5 2 22.0523 2 21.5V14.5C2 13.9477 2.44772 13.5 3 13.5H10ZM18 15C16.3431 15 15 16.3431 15 18C15 19.6569 16.3431 21 18 21C19.6569 21 21 19.6569 21 18C21 16.3431 19.6569 15 18 15ZM4 20.5H9V15.5H4V20.5ZM12 1C12.3544 1 12.6826 1.18773 12.8623 1.49316L17.8623 9.99316C18.0439 10.3022 18.046 10.6849 17.8682 10.9961C17.6901 11.3075 17.3587 11.5 17 11.5H7C6.64128 11.5 6.30993 11.3075 6.13184 10.9961C5.95399 10.6849 5.95606 10.3022 6.1377 9.99316L11.1377 1.49316C11.3174 1.18773 11.6456 1 12 1ZM8.74902 9.5H15.251L12 3.97266L8.74902 9.5Z" fill="#9E9E9E"/>
</g>
</svg>
