<svg width="24" height="24" viewBox="0 0 24 24" fill="none" xmlns="http://www.w3.org/2000/svg">
<g id="icons/Abstract/triangular-pyramid">
<path id="Union" d="M12 1L12.1025 1.00488C12.1094 1.00558 12.1162 1.00697 12.123 1.00781C12.1322 1.00895 12.1413 1.01034 12.1504 1.01172C12.1788 1.01601 12.2068 1.02169 12.2344 1.02832C12.2488 1.03181 12.2631 1.03592 12.2773 1.04004C12.3523 1.06166 12.4236 1.09134 12.4902 1.12891C12.4989 1.13378 12.5071 1.1394 12.5156 1.14453C12.5402 1.15938 12.5638 1.17553 12.5869 1.19238C12.5977 1.20019 12.6087 1.20758 12.6191 1.21582C12.6393 1.23175 12.6589 1.24823 12.6777 1.26562C12.696 1.28246 12.7134 1.30013 12.7305 1.31836C12.7469 1.33593 12.7622 1.35433 12.7773 1.37305C12.7868 1.3848 12.7957 1.39696 12.8047 1.40918C12.8206 1.43086 12.8364 1.45262 12.8506 1.47559C12.8553 1.48317 12.8607 1.49031 12.8652 1.49805L21.8652 16.998C22.0036 17.2366 22.0369 17.5219 21.958 17.7861C21.8789 18.0506 21.6942 18.2711 21.4473 18.3945L12.4473 22.8945C12.4417 22.8973 12.4353 22.8987 12.4297 22.9014C12.4035 22.9139 12.377 22.9253 12.3496 22.9355C12.3422 22.9383 12.3346 22.9408 12.3271 22.9434C12.3031 22.9517 12.2788 22.9593 12.2539 22.9658C12.2409 22.9692 12.228 22.9727 12.2148 22.9756C12.1456 22.9908 12.0738 23 12 23L11.8975 22.9951C11.8589 22.9912 11.8213 22.9838 11.7842 22.9756C11.7721 22.9729 11.7601 22.9699 11.748 22.9668C11.7209 22.9597 11.6942 22.9516 11.668 22.9424C11.6624 22.9404 11.6569 22.9386 11.6514 22.9365C11.6233 22.9261 11.5961 22.9142 11.5693 22.9014C11.5639 22.8988 11.5581 22.8972 11.5527 22.8945L2.55273 18.3945C2.30583 18.2711 2.12107 18.0506 2.04199 17.7861C1.96306 17.5219 1.99636 17.2366 2.13477 16.998L11.1348 1.49805C11.1392 1.49045 11.1438 1.48304 11.1484 1.47559C11.1626 1.45263 11.1784 1.43085 11.1943 1.40918C11.2033 1.39696 11.2122 1.38479 11.2217 1.37305C11.2369 1.35416 11.253 1.33608 11.2695 1.31836C11.2864 1.30031 11.3032 1.28231 11.3213 1.26562C11.3404 1.24791 11.3604 1.23103 11.3809 1.21484C11.3895 1.20807 11.3984 1.20179 11.4072 1.19531C11.4333 1.17608 11.4604 1.15828 11.4883 1.1416C11.4948 1.13771 11.5012 1.13362 11.5078 1.12988C11.5753 1.09163 11.6475 1.06091 11.7236 1.03906C11.7368 1.03527 11.7503 1.03255 11.7637 1.0293C11.7916 1.02252 11.8198 1.01609 11.8486 1.01172C11.8577 1.01033 11.8668 1.00896 11.876 1.00781C11.9166 1.00279 11.958 1 12 1ZM4.39941 17.0811L11 20.3809V5.71289L4.39941 17.0811ZM13 20.3809L19.5996 17.0811L13 5.71289V20.3809Z" fill="#9E9E9E"/>
</g>
</svg>
