<svg width="24" height="24" viewBox="0 0 24 24" fill="none" xmlns="http://www.w3.org/2000/svg">
<g id="icons/Abstract/two-triangles">
<path id="Union" d="M11.9999 1C12.3571 1 12.6874 1.19063 12.8661 1.5L15.4647 6H20.66L20.7928 6.00879C21.0977 6.04954 21.37 6.22936 21.5262 6.5C21.7049 6.8094 21.7049 7.1906 21.5262 7.5L18.9276 11.999L21.5262 16.5C21.7049 16.8094 21.7049 17.1906 21.5262 17.5C21.3476 17.8094 21.0173 18 20.66 18H15.4637L12.8661 22.5C12.6874 22.8094 12.3571 23 11.9999 23C11.6427 22.9999 11.3123 22.8093 11.1337 22.5L8.53601 18H3.33972C2.98251 18 2.65212 17.8094 2.47351 17.5C2.29499 17.1907 2.29499 16.8093 2.47351 16.5L5.07019 11.999L2.47351 7.5C2.29499 7.19067 2.29499 6.80933 2.47351 6.5C2.65212 6.19064 2.98251 6.00005 3.33972 6H8.53503L11.1337 1.5C11.3123 1.19067 11.6427 1.00008 11.9999 1Z" fill="#9E9E9E"/>
</g>
</svg>
