<svg width="24" height="24" viewBox="0 0 24 24" fill="none" xmlns="http://www.w3.org/2000/svg">
<g id="icons/Abstract/two-semicircles">
<path id="Union" d="M17 15C17.5523 15 18 15.4477 18 16C18 19.3137 15.3137 22 12 22C8.68632 22 6 19.3137 6 16C6 15.4477 6.44772 15 7 15H17ZM8.12598 17C8.57002 18.7252 10.1362 20 12 20C13.8638 20 15.43 18.7252 15.874 17H8.12598ZM12 1.5C18.0751 1.5 23 6.42487 23 12.5C23 13.0523 22.5523 13.5 22 13.5H2C1.44772 13.5 1 13.0523 1 12.5C1 6.42487 5.92487 1.5 12 1.5ZM12 3.5C7.36751 3.5 3.55417 7.00014 3.05664 11.5H20.9434C20.4458 7.00014 16.6325 3.5 12 3.5Z" fill="#9E9E9E"/>
</g>
</svg>
