<svg width="24" height="24" viewBox="0 0 24 24" fill="none" xmlns="http://www.w3.org/2000/svg">
<g id="icons/Abstract/two-triangles-two">
<path id="Union" d="M21.5527 1.10547C21.8626 0.950513 22.2306 0.967334 22.5254 1.14941C22.8202 1.33162 23 1.65343 23 2V22C23 22.3466 22.8202 22.6684 22.5254 22.8506C22.2306 23.0327 21.8626 23.0495 21.5527 22.8945L12 18.1182L2.44727 22.8945C2.13736 23.0495 1.76938 23.0327 1.47461 22.8506C1.1798 22.6684 1.00001 22.3466 1 22V2C1 1.65343 1.1798 1.33162 1.47461 1.14941C1.76939 0.967334 2.13735 0.950513 2.44727 1.10547L12 5.88184L21.5527 1.10547ZM3 20.3818L9.76367 17L3 13.6182V20.3818ZM14.2363 17L21 20.3818V13.6182L14.2363 17ZM4.23633 12L12 15.8818L19.7637 12L12 8.11816L4.23633 12ZM3 10.3818L9.76367 7L3 3.61816V10.3818ZM14.2363 7L21 10.3818V3.61816L14.2363 7Z" fill="#9E9E9E"/>
</g>
</svg>
