<svg width="24" height="24" viewBox="0 0 24 24" fill="none" xmlns="http://www.w3.org/2000/svg">
<g id="icons/Abstract/two-ellipses">
<path id="Union" d="M18.2953 2.00098C19.2969 1.9858 20.2766 2.24598 20.9974 2.9668C21.7181 3.68768 21.9785 4.66739 21.9633 5.66895C21.948 6.66638 21.6618 7.77223 21.1888 8.90332C20.7841 9.87123 20.2261 10.8923 19.5375 11.9297C20.258 13.0026 20.839 14.0605 21.2572 15.0605C21.7302 16.1916 22.0164 17.2975 22.0316 18.2949C22.0468 19.2965 21.7866 20.2762 21.0658 20.9971C20.345 21.7179 19.3652 21.9781 18.3636 21.9629C17.3662 21.9477 16.2603 21.6614 15.1293 21.1885C14.1348 20.7726 13.0827 20.1964 12.016 19.4814C10.9494 20.1963 9.89807 20.7726 8.90369 21.1885C7.7726 21.6615 6.66675 21.9476 5.66931 21.9629C4.66776 21.9781 3.68805 21.7177 2.96716 20.9971C2.24635 20.2762 1.98616 19.2965 2.00134 18.2949C2.01656 17.2974 2.30275 16.1917 2.77576 15.0605C3.19397 14.0605 3.774 13.0025 4.49451 11.9297C3.80601 10.8924 3.24887 9.87111 2.84412 8.90332C2.37112 7.77224 2.08498 6.66638 2.0697 5.66895C2.05444 4.66722 2.3146 3.68771 3.03552 2.9668C3.75644 2.24588 4.73594 1.98572 5.73767 2.00098C6.73511 2.01625 7.84096 2.30239 8.97205 2.77539C9.94517 3.18238 10.9728 3.74277 12.016 4.43652C13.0594 3.74261 14.0876 3.18242 15.0609 2.77539C16.1921 2.30238 17.2978 2.01619 18.2953 2.00098ZM5.7572 13.6602C5.28848 14.4158 4.90702 15.1468 4.62048 15.832C4.20699 16.8209 4.01042 17.6665 4.00037 18.3252C3.99045 18.9795 4.16202 19.3618 4.3822 19.582C4.60248 19.8021 4.98489 19.9738 5.63904 19.9639C6.29773 19.9537 7.14349 19.7572 8.1322 19.3438C8.81413 19.0586 9.53973 18.6768 10.2914 18.2109C9.49634 17.5737 8.70449 16.8672 7.93494 16.0977C7.13942 15.3021 6.41106 14.4823 5.7572 13.6602ZM18.2738 13.6602C17.6201 14.4821 16.8933 15.3023 16.098 16.0977C15.3281 16.8676 14.535 17.5734 13.7396 18.2109C14.4917 18.677 15.2186 19.0585 15.9008 19.3438C16.8895 19.7572 17.7353 19.9538 18.3939 19.9639C19.0482 19.9738 19.4306 19.8022 19.6508 19.582C19.8709 19.3618 20.0425 18.9795 20.0326 18.3252C20.0225 17.6665 19.8259 16.8208 19.4125 15.832C19.1259 15.1467 18.7428 14.416 18.2738 13.6602ZM12.016 6.88965C11.1058 7.57809 10.1825 8.37837 9.28064 9.28027C8.40498 10.1559 7.62433 11.0512 6.94958 11.9355C7.64 12.8493 8.44339 13.777 9.349 14.6826C10.228 15.5616 11.1283 16.3429 12.016 17.0195C12.9035 16.3428 13.804 15.5616 14.683 14.6826C15.5884 13.7772 16.39 12.849 17.0804 11.9355C16.4057 11.0515 15.6266 10.1556 14.7513 9.28027C13.8496 8.37853 12.9259 7.57808 12.016 6.88965ZM5.7074 4C5.05288 3.99002 4.67078 4.16162 4.45056 4.38184C4.23035 4.60204 4.05874 4.98415 4.06873 5.63867C4.07886 6.29736 4.27539 7.14314 4.68884 8.13184C4.96301 8.78738 5.32473 9.48429 5.76599 10.2051C6.39974 9.41572 7.10248 8.63031 7.86658 7.86621C8.65589 7.0769 9.4679 6.35304 10.2836 5.70312C9.55933 5.25915 8.85905 4.89552 8.20056 4.62012C7.21186 4.20666 6.36609 4.01013 5.7074 4ZM18.3256 4C17.6668 4.01005 16.8212 4.20662 15.8324 4.62012C15.1735 4.89565 14.4722 5.25889 13.7474 5.70312C14.5634 6.3532 15.3768 7.07666 16.1664 7.86621C16.9301 8.63001 17.6315 9.41604 18.265 10.2051C18.7066 9.48406 19.0699 8.78763 19.3441 8.13184C19.7576 7.14313 19.9541 6.29736 19.9642 5.63867C19.9742 4.98452 19.8024 4.6021 19.5824 4.38184C19.3622 4.16165 18.9799 3.99008 18.3256 4Z" fill="#9E9E9E"/>
</g>
</svg>
