<svg width="24" height="24" viewBox="0 0 24 24" fill="none" xmlns="http://www.w3.org/2000/svg">
<g id="icons/Abstract/update-rotation">
<path id="Union" d="M12 1C18.0751 1 23 5.92487 23 12C23 18.0751 18.0751 23 12 23C5.92487 23 1 18.0751 1 12C1 5.92487 5.92487 1 12 1ZM12 3C7.02943 3 3 7.02943 3 12C3 16.9706 7.02943 21 12 21C16.9706 21 21 16.9706 21 12C21 7.02943 16.9706 3 12 3ZM15.8164 13.2002C15.9819 12.6734 16.5434 12.3805 17.0703 12.5459C17.5972 12.7114 17.8901 13.2729 17.7246 13.7998C16.9603 16.2329 14.6878 17.9998 12 18C10.5643 18 9.24703 17.4956 8.21484 16.6553C8.14013 17.1337 7.7279 17.5 7.22852 17.5C6.67623 17.5 6.22852 17.0523 6.22852 16.5V13.5L6.23242 13.4082C6.27385 12.955 6.61965 12.5819 7.07715 12.5117C7.56509 12.437 8.03464 12.7293 8.18262 13.2002C8.69262 14.824 10.2105 16 12 16C13.7894 15.9998 15.3064 14.8238 15.8164 13.2002ZM12 6C13.435 6.00009 14.7513 6.50403 15.7832 7.34375C15.8582 6.86578 16.2715 6.5001 16.7705 6.5C17.3228 6.5 17.7705 6.94772 17.7705 7.5V10.5C17.7705 10.9938 17.4099 11.4134 16.9219 11.4883C16.434 11.5629 15.9643 11.2707 15.8164 10.7998C15.3064 9.17617 13.7894 8.00017 12 8C10.2105 8 8.69262 9.17605 8.18262 10.7998C8.01707 11.3266 7.45558 11.6196 6.92871 11.4541C6.40188 11.2886 6.10893 10.7271 6.27441 10.2002C7.03874 7.76691 9.31196 6 12 6Z" fill="#9E9E9E"/>
</g>
</svg>
