<svg width="24" height="24" viewBox="0 0 24 24" fill="none" xmlns="http://www.w3.org/2000/svg">
<g id="icons/Abstract/warehousing">
<path id="Union" d="M12 1C14.9977 1 17.7171 2.20047 19.7002 4.14453C20.2571 4.69048 20.7561 5.29544 21.1875 5.94922C21.4917 6.4102 21.3643 7.03079 20.9033 7.33496C20.4424 7.63874 19.8227 7.51151 19.5186 7.05078C19.1654 6.51554 18.7561 6.01963 18.2998 5.57227C16.6754 3.98 14.4531 3 12 3C7.02943 3 3 7.02943 3 12C3 16.9706 7.02943 21 12 21C14.4531 21 16.6754 20.02 18.2998 18.4277C18.7561 17.9804 19.1654 17.4845 19.5186 16.9492C19.8227 16.4885 20.4424 16.3613 20.9033 16.665C21.3643 16.9692 21.4917 17.5898 21.1875 18.0508C20.7561 18.7046 20.2571 19.3095 19.7002 19.8555C17.7171 21.7995 14.9976 23 12 23C5.92487 23 1 18.0751 1 12C1 5.92487 5.92487 1 12 1ZM11.293 8.29297C11.6835 7.90244 12.3165 7.90244 12.707 8.29297C13.0976 8.68349 13.0976 9.31651 12.707 9.70703L11.4141 11H16.1738C16.5859 9.83532 17.6941 9 19 9C20.6569 9 22 10.3431 22 12C22 13.6569 20.6569 15 19 15C17.6941 15 16.5859 14.1647 16.1738 13H11.4141L12.707 14.293C13.0976 14.6835 13.0976 15.3165 12.707 15.707C12.3165 16.0976 11.6835 16.0976 11.293 15.707L8.29297 12.707C8.26536 12.6794 8.2405 12.65 8.2168 12.6201C8.18065 12.5745 8.14798 12.5261 8.12012 12.4746C8.11269 12.4609 8.10635 12.4466 8.09961 12.4326C8.0778 12.3873 8.05783 12.3408 8.04297 12.292C8.0303 12.2503 8.02176 12.2077 8.01465 12.165C8.00571 12.1113 8 12.0563 8 12C8 11.9203 8.00973 11.8429 8.02734 11.7686C8.03221 11.748 8.03678 11.7273 8.04297 11.707C8.05787 11.6583 8.07777 11.6117 8.09961 11.5664C8.11877 11.5266 8.1403 11.4877 8.16504 11.4502C8.20242 11.3935 8.24516 11.3408 8.29297 11.293L11.293 8.29297ZM19 11C18.4477 11 18 11.4477 18 12C18 12.5523 18.4477 13 19 13C19.5523 13 20 12.5523 20 12C20 11.4477 19.5523 11 19 11Z" fill="#9E9E9E"/>
</g>
</svg>
