<svg width="24" height="24" viewBox="0 0 24 24" fill="none" xmlns="http://www.w3.org/2000/svg">
<g id="icons/Abstract/whirlwind">
<path id="Union" d="M11.75 1C15.7541 1 19 4.24594 19 8.25C19 11.9733 16.1931 15.0392 12.5801 15.4512C12.4154 15.4787 12.2469 15.4935 12.0752 15.4971C13.0222 16.426 14.3186 17 15.75 17C18.6495 17 21 14.6495 21 11.75C21 11.1977 21.4477 10.75 22 10.75C22.5523 10.75 23 11.1977 23 11.75C23 15.7541 19.7541 19 15.75 19C12.0267 19 8.95973 16.1932 8.54785 12.5801C8.51638 12.3914 8.5 12.1976 8.5 12C8.5 11.9588 8.50152 11.9178 8.50293 11.877C8.5022 11.8347 8.5 11.7924 8.5 11.75C8.5 11.706 8.50327 11.6626 8.50879 11.6201C7.28575 12.5813 6.5 14.0738 6.5 15.75C6.5 18.6495 8.85048 21 11.75 21C12.3023 21 12.75 21.4477 12.75 22C12.75 22.5523 12.3023 23 11.75 23C7.74591 23 4.5 19.7541 4.5 15.75C4.5 11.7459 7.74591 8.5 11.75 8.5C11.7806 8.5 11.8109 8.50121 11.8408 8.50391C11.8936 8.50154 11.9466 8.5 12 8.5C12.1314 8.5 12.2611 8.50738 12.3887 8.52148C11.4278 7.29151 9.93176 6.5 8.25 6.5C5.3505 6.5 3 8.85049 3 11.75C3 12.3023 2.55228 12.75 2 12.75C1.44772 12.75 1 12.3023 1 11.75C1 7.74591 4.24594 4.5 8.25 4.5C12.2541 4.5 15.5 7.74591 15.5 11.75C15.5 11.7813 15.4979 11.8122 15.4951 11.8428C15.4963 11.8697 15.4965 11.8967 15.4971 11.9238C16.4257 10.9768 17 9.68112 17 8.25C17 5.3505 14.6495 3 11.75 3C11.1977 3 10.75 2.55228 10.75 2C10.75 1.44772 11.1977 1 11.75 1ZM12 10.5C11.1995 10.5 10.547 11.1272 10.5039 11.917C10.5077 12.0385 10.5144 12.159 10.5264 12.2783C10.6519 12.9472 11.2211 13.4571 11.917 13.4951C12.0385 13.4913 12.159 13.4846 12.2783 13.4727C12.9736 13.3421 13.5 12.7332 13.5 12C13.5 11.1716 12.8284 10.5 12 10.5Z" fill="#9E9E9E"/>
</g>
</svg>
