<svg width="24" height="24" viewBox="0 0 24 24" fill="none" xmlns="http://www.w3.org/2000/svg">
<g id="icons/Build/application">
<path id="Union" d="M19.7692 2.01172C20.1191 2.06559 20.4192 2.30233 20.5495 2.63965L22.0505 6.52539C22.6826 8.16174 22.1673 9.86849 21.0153 10.9326C21.0168 10.9549 21.0192 10.9773 21.0192 11V21C21.0192 21.5523 20.5715 22 20.0192 22H4.01923C3.46707 21.9998 3.01923 21.5522 3.01923 21V11C3.01923 10.978 3.02076 10.9562 3.02216 10.9346C1.87054 9.87104 1.35655 8.1639 1.98798 6.52832L3.48993 2.63965L3.55536 2.50195C3.73164 2.19482 4.0608 2.00001 4.42255 2H19.6169L19.7692 2.01172ZM15.2741 10.6416C14.5411 11.4737 13.4691 11.9999 12.2731 12H11.7634C10.5671 11.9999 9.49435 11.474 8.76141 10.6416C8.02529 11.4743 6.94938 12 5.75458 12C5.50204 12 5.25658 11.9759 5.01923 11.9326V20H19.0192V11.9326C18.7816 11.976 18.5358 12 18.2829 12C17.0878 12 16.0104 11.4748 15.2741 10.6416ZM3.85419 7.24805C3.34493 8.56691 4.32692 9.99997 5.75458 10C6.8631 9.99997 7.76337 9.10056 7.76337 8C7.76337 7.44784 8.21126 7.00021 8.76337 7C9.31565 7 9.76337 7.44772 9.76337 8C9.76337 9.10444 10.659 9.99979 11.7634 10H12.2731C13.3776 9.99988 14.2731 9.10449 14.2731 8C14.2731 7.44773 14.7209 7.00002 15.2731 7C15.8253 7.00012 16.2731 7.44779 16.2731 8C16.2731 9.10033 17.1741 9.99998 18.2829 10C19.7119 9.99985 20.6949 8.56542 20.1852 7.24609L18.9313 4H5.10809L3.85419 7.24805Z" fill="#9E9E9E"/>
</g>
</svg>
