<svg width="24" height="24" viewBox="0 0 24 24" fill="none" xmlns="http://www.w3.org/2000/svg">
<g id="icons/Build/arc-de-triomphe">
<path id="Union" d="M21.5 1C22.0523 1 22.5 1.44772 22.5 2C22.5 2.55228 22.0523 3 21.5 3H21V4H21.5C22.0523 4 22.5 4.44772 22.5 5V6.5C22.5 7.5249 21.8826 8.40411 21 8.79004V22C21 22.5523 20.5523 23 20 23H15C14.4477 23 14 22.5523 14 22V14.5C14 13.3954 13.1046 12.5 12 12.5C10.8954 12.5 10 13.3954 10 14.5V22C10 22.5523 9.55229 23 9 23H4C3.44772 23 3 22.5523 3 22V8.79004C2.11743 8.4041 1.5 7.52491 1.5 6.5V5C1.5 4.44772 1.94772 4 2.5 4H3V3H2.5C1.94772 3 1.5 2.55228 1.5 2C1.5 1.44772 1.94772 1 2.5 1H21.5ZM5 21H8V15H5V21ZM16 15V21H19V15H16ZM5 13H8.29199C8.88549 11.5343 10.3215 10.5 12 10.5C13.6785 10.5 15.1145 11.5343 15.708 13H19V9H5V13ZM3.5 6.5C3.5 6.77615 3.72385 7 4 7H20C20.2762 7 20.5 6.77617 20.5 6.5V6H3.5V6.5ZM5 4H19V3H5V4Z" fill="#9E9E9E"/>
</g>
</svg>
