<svg width="24" height="24" viewBox="0 0 24 24" fill="none" xmlns="http://www.w3.org/2000/svg">
<g id="icons/Build/booth">
<path id="Union" d="M22 1.5C22.5523 1.5 23 1.94772 23 2.5V6.5C23 6.85121 22.8158 7.17668 22.5146 7.35742L21.8154 7.77734C21.4013 8.0258 20.9567 8.19964 20.5 8.30371V11.5H21C21.5523 11.5 22 11.9477 22 12.5V21.5C22 22.0523 21.5523 22.5 21 22.5H3C2.44772 22.5 2 22.0523 2 21.5V12.5C2 11.9477 2.44772 11.5 3 11.5H3.5V8.30371C3.04331 8.19964 2.59865 8.0258 2.18457 7.77734L1.48535 7.35742C1.18423 7.17668 1 6.85121 1 6.5V2.5C1 1.94772 1.44772 1.5 2 1.5H22ZM4 20.5H20V13.5H4V20.5ZM16.8154 7.77734C15.3903 8.6324 13.6097 8.63241 12.1846 7.77734L12 7.66602L11.8154 7.77734C10.3903 8.63241 8.60965 8.63241 7.18457 7.77734L7 7.66602L6.81543 7.77734C6.40135 8.0258 5.95669 8.19964 5.5 8.30371V11.5H18.5V8.30371C18.0433 8.19964 17.5987 8.0258 17.1846 7.77734L17 7.66602L16.8154 7.77734ZM3 5.93359L3.21387 6.0625C4.00543 6.53732 4.99455 6.53732 5.78613 6.0625L6.48535 5.64258L6.60742 5.58008C6.89967 5.45531 7.2375 5.47629 7.51465 5.64258L8.21387 6.0625C9.00544 6.53731 9.99456 6.53731 10.7861 6.0625L11.4854 5.64258L11.6074 5.58008C11.8997 5.45531 12.2375 5.47629 12.5146 5.64258L13.2139 6.0625C14.0054 6.53731 14.9946 6.53731 15.7861 6.0625L16.4854 5.64258L16.6074 5.58008C16.8997 5.45531 17.2375 5.47629 17.5146 5.64258L18.2139 6.0625C19.0054 6.53731 19.9946 6.53731 20.7861 6.0625L21 5.93359V3.5H3V5.93359Z" fill="#9E9E9E"/>
</g>
</svg>
