<svg width="24" height="24" viewBox="0 0 24 24" fill="none" xmlns="http://www.w3.org/2000/svg">
<g id="icons/Build/brdige-three">
<path id="Union" d="M20 5C20.5523 5 21 5.44772 21 6V8.5H22C22.5523 8.5 23 8.94772 23 9.5C23 10.0523 22.5523 10.5 22 10.5H21V12.5H22C22.5523 12.5 23 12.9477 23 13.5C23 14.0523 22.5523 14.5 22 14.5H21V19C21 19.5523 20.5523 20 20 20C19.6677 20 19.3742 19.8373 19.1924 19.5879L19.1914 19.5889C19.1913 19.5887 19.191 19.5877 19.1904 19.5869C19.1892 19.5853 19.1875 19.5821 19.1846 19.5781C19.1784 19.5698 19.1677 19.5569 19.1543 19.5391C19.1273 19.5032 19.086 19.4482 19.0312 19.3779C18.9216 19.2372 18.7583 19.0338 18.5498 18.7881C18.1311 18.2946 17.5353 17.6391 16.8242 16.9873C15.3464 15.6327 13.5936 14.5 12 14.5C10.4064 14.5 8.65356 15.6327 7.17578 16.9873C6.46469 17.6391 5.86887 18.2946 5.4502 18.7881C5.24174 19.0338 5.07842 19.2372 4.96875 19.3779C4.91401 19.4482 4.87268 19.5032 4.8457 19.5391C4.83227 19.5569 4.82157 19.5698 4.81543 19.5781C4.81252 19.5821 4.81079 19.5853 4.80957 19.5869C4.80898 19.5877 4.80871 19.5887 4.80859 19.5889L4.80664 19.5879C4.62477 19.837 4.33206 20 4 20C3.44772 20 3 19.5523 3 19V14.5H2C1.44772 14.5 1 14.0523 1 13.5C1 12.9477 1.44772 12.5 2 12.5H3V10.5H2C1.44772 10.5 1 10.0523 1 9.5C1 8.94772 1.44772 8.5 2 8.5H3V6C3 5.44772 3.44772 5 4 5C4.55228 5 5 5.44772 5 6V8.5H11V7.5C11 6.94772 11.4477 6.5 12 6.5C12.5523 6.5 13 6.94772 13 7.5V8.5H19V6C19 5.44772 19.4477 5 20 5ZM5 16.3164C5.25436 16.0559 5.52879 15.7835 5.82422 15.5127C6.18795 15.1793 6.59343 14.8337 7.03223 14.5H5V16.3164ZM16.9678 14.5C17.4066 14.8337 17.8121 15.1793 18.1758 15.5127C18.4712 15.7835 18.7456 16.0559 19 16.3164V14.5H16.9678ZM5 12.5H7V10.5H5V12.5ZM9 12.5H11V10.5H9V12.5ZM17 12.5H19V10.5H17V12.5ZM13 12.5H15V10.5H13V12.5Z" fill="#9E9E9E"/>
</g>
</svg>
