<svg width="24" height="24" viewBox="0 0 24 24" fill="none" xmlns="http://www.w3.org/2000/svg">
<g id="icons/Build/bridge-two">
<path id="Union" d="M19.9996 4C20.5519 4 20.9996 4.44772 20.9996 5V6.14844L22.7809 8.375C23.1259 8.80626 23.0559 9.43624 22.6246 9.78125C22.1934 10.126 21.5633 10.0562 21.2184 9.625L20.9996 9.35156V14.4277C21.0184 14.429 21.037 14.4304 21.0553 14.4316C21.372 14.4532 21.6263 14.4709 21.8014 14.4834C21.8885 14.4896 21.9566 14.4947 22.0026 14.498C22.0253 14.4997 22.0434 14.5011 22.0553 14.502C22.061 14.5024 22.0659 14.5027 22.069 14.5029H22.0739C22.6244 14.5439 23.0374 15.0236 22.9967 15.5742C22.9559 16.125 22.4762 16.5389 21.9254 16.498H21.9244C21.9238 16.4978 21.9225 16.4971 21.9215 16.4971C21.9187 16.4969 21.9142 16.4965 21.9088 16.4961C21.8975 16.4953 21.8801 16.4948 21.858 16.4932C21.8129 16.4899 21.7452 16.4847 21.6588 16.4785C21.5007 16.4672 21.2767 16.4506 20.9996 16.4316V19C20.9996 19.5523 20.5519 20 19.9996 20C19.4475 19.9998 18.9996 19.5522 18.9996 19V16.3037C18.8078 16.2919 18.6097 16.2786 18.4069 16.2666C16.3985 16.1479 13.9173 16.0241 11.9869 16C10.0584 15.976 7.57758 16.038 5.56897 16.1064C5.37427 16.1131 5.18421 16.1212 4.99963 16.1279V19C4.99963 19.5523 4.55192 20 3.99963 20C3.44753 19.9998 2.99963 19.5522 2.99963 19V16.2061C2.71106 16.2185 2.47777 16.2288 2.31506 16.2363C2.22883 16.2403 2.16184 16.2439 2.11682 16.2461C2.09476 16.2471 2.07741 16.2475 2.06604 16.248C2.06048 16.2483 2.05514 16.2489 2.05237 16.249H1.94592C1.44019 16.2222 1.02612 15.8166 1.00061 15.2998C0.973589 14.7483 1.39938 14.2792 1.95081 14.252H1.95178C1.95251 14.2519 1.95429 14.2512 1.95569 14.251C1.95866 14.2508 1.96378 14.2512 1.96936 14.251C1.98111 14.2504 1.99869 14.2491 2.02112 14.248C2.06708 14.2459 2.13584 14.2433 2.22327 14.2393C2.39833 14.2311 2.65263 14.2187 2.96936 14.2051C2.97927 14.2047 2.9896 14.2036 2.99963 14.2031V9.35156L2.78088 9.625C2.43584 10.0561 1.80583 10.1262 1.37463 9.78125C0.943646 9.43625 0.873609 8.80618 1.21838 8.375L2.99963 6.14844V5C2.99963 4.44784 3.44753 4.00021 3.99963 4C4.55192 4 4.99963 4.44772 4.99963 5V6.20117C5.0805 6.31982 5.19413 6.48198 5.34045 6.67285C5.67272 7.10623 6.16434 7.68414 6.79749 8.25977C8.07593 9.42199 9.84588 10.4999 11.9996 10.5C14.1534 10.5 15.9233 9.42198 17.2018 8.25977C17.8349 7.68416 18.3265 7.10626 18.6588 6.67285C18.8048 6.48245 18.9188 6.32074 18.9996 6.20215V5C18.9996 4.44784 19.4475 4.00021 19.9996 4ZM18.9996 9.30859C18.8567 9.45105 18.7062 9.59597 18.5475 9.74023C18.1004 10.1466 17.5827 10.5597 16.9996 10.9395V14.1846C17.5276 14.2125 18.0409 14.2419 18.525 14.2705C18.6864 14.28 18.845 14.2904 18.9996 14.2998V9.30859ZM4.99963 14.126C5.16272 14.1201 5.3299 14.1132 5.50061 14.1074C5.97657 14.0912 6.4811 14.075 6.99963 14.0605V10.9385C6.41685 10.5589 5.89862 10.1464 5.45178 9.74023C5.29285 9.59574 5.14277 9.4503 4.99963 9.30762V14.126ZM14.9996 11.9531C14.3786 12.183 13.7116 12.3559 12.9996 12.4404V14.0234C13.6419 14.0398 14.3182 14.0621 14.9996 14.0908V11.9531ZM8.99963 14.0156C9.68084 14.0039 10.3571 13.9986 10.9996 13.998V12.4404C10.2877 12.3558 9.62063 12.1831 8.99963 11.9531V14.0156Z" fill="#9E9E9E"/>
</g>
</svg>
