<svg width="24" height="24" viewBox="0 0 24 24" fill="none" xmlns="http://www.w3.org/2000/svg">
<g id="icons/Build/bridge-one">
<path id="Union" d="M12 6.5C14.1204 6.5 16.7196 7.0269 18.7354 7.53027C19.7546 7.78481 20.6468 8.03869 21.2842 8.22949C21.6031 8.32497 21.8591 8.40476 22.0361 8.46094C22.1243 8.48893 22.1931 8.51103 22.2402 8.52637C22.2637 8.534 22.2824 8.53983 22.2949 8.54395C22.3012 8.54599 22.3062 8.5477 22.3096 8.54883C22.3113 8.54939 22.3125 8.55046 22.3135 8.55078H22.3154C22.7242 8.68664 23 9.06925 23 9.5V16.5C23 17.0523 22.5523 17.5 22 17.5H18C17.4477 17.5 17 17.0523 17 16.5C17 13.7386 14.7614 11.5 12 11.5C9.23858 11.5 7 13.7386 7 16.5C7 17.0523 6.55228 17.5 6 17.5H2C1.44772 17.5 1 17.0523 1 16.5V9.5L1.0127 9.34082C1.07117 8.97734 1.327 8.66963 1.68457 8.55078H1.68652C1.6875 8.55046 1.68873 8.54939 1.69043 8.54883C1.69383 8.5477 1.69885 8.54599 1.70508 8.54395C1.7176 8.53983 1.73629 8.534 1.75977 8.52637C1.80694 8.51103 1.87565 8.48893 1.96387 8.46094C2.14087 8.40476 2.39688 8.32497 2.71582 8.22949C3.35322 8.03869 4.2454 7.78481 5.26465 7.53027C7.28037 7.0269 9.87955 6.5 12 6.5ZM12 8.5C10.138 8.5 7.73755 8.97315 5.74902 9.46973C4.76617 9.71517 3.90437 9.96132 3.28906 10.1455C3.1853 10.1766 3.08901 10.2072 3 10.2344V15.5H5.07227C5.55758 12.1078 8.4736 9.5 12 9.5C15.5264 9.5 18.4424 12.1078 18.9277 15.5H21V10.2344C20.911 10.2072 20.8147 10.1766 20.7109 10.1455C20.0956 9.96132 19.2338 9.71517 18.251 9.46973C16.2624 8.97315 13.862 8.5 12 8.5Z" fill="#9E9E9E"/>
</g>
</svg>
