<svg width="24" height="24" viewBox="0 0 24 24" fill="none" xmlns="http://www.w3.org/2000/svg">
<g id="icons/Build/building-four">
<path id="Union" d="M8.5957 6.00586C8.60286 6.00654 8.61004 6.00697 8.61719 6.00781C8.68957 6.01638 8.76097 6.03254 8.83008 6.05664C8.8359 6.05867 8.84186 6.06035 8.84766 6.0625L22.3477 11.0625C22.7397 11.2079 22.9999 11.5819 23 12V22C23 22.5523 22.5523 23 22 23H2C1.44772 23 1 22.5523 1 22V12C1.00007 11.6896 1.1446 11.3963 1.39062 11.207L7.89062 6.20703C7.89918 6.20046 7.9083 6.19473 7.91699 6.18848C7.92092 6.18566 7.92474 6.18245 7.92871 6.17969C7.93353 6.17633 7.93849 6.17318 7.94336 6.16992C7.96858 6.15298 7.99431 6.1374 8.02051 6.12305C8.02678 6.11962 8.03273 6.11559 8.03906 6.1123C8.14402 6.05769 8.25587 6.02359 8.36914 6.00879C8.3727 6.00832 8.37632 6.00825 8.37988 6.00781C8.45176 5.9992 8.52406 5.99893 8.5957 6.00586ZM3 12.4922V21H7.5V9.03027L3 12.4922ZM9.5 21H12V14.5L12.0068 14.3809C12.04 14.1051 12.1869 13.853 12.415 13.6885C12.6758 13.5006 13.0115 13.4502 13.3164 13.5518L17.8164 15.0518C18.2245 15.1879 18.4999 15.5698 18.5 16V21H21V12.6953L9.5 8.43652V21ZM14 21H16.5V16.7197L14 15.8867V21Z" fill="#9E9E9E"/>
</g>
</svg>
