<svg width="24" height="24" viewBox="0 0 24 24" fill="none" xmlns="http://www.w3.org/2000/svg">
<g id="icons/Build/building-three">
<path id="Union" d="M11.583 3.09082C11.8912 2.9494 12.2549 2.97281 12.5449 3.16113L22.5449 9.66113C22.8287 9.84556 22.9999 10.1616 23 10.5V22C23 22.5523 22.5523 23 22 23H2C1.44772 23 1 22.5523 1 22V10.5L1.00781 10.374C1.0446 10.0846 1.20691 9.82244 1.45508 9.66113L11.4551 3.16113L11.583 3.09082ZM3 11.043V21H5V14C5.00008 13.6554 5.17762 13.3351 5.46973 13.1523L9.46973 10.6523C9.7778 10.4598 10.1666 10.4491 10.4844 10.625C10.8023 10.8012 10.9999 11.1366 11 11.5V21H13V11.5L13.0088 11.3652C13.051 11.0553 13.2375 10.7792 13.5156 10.625C13.8334 10.4491 14.2222 10.4598 14.5303 10.6523L18.5303 13.1523C18.8224 13.3351 18.9999 13.6554 19 14V21H21V11.043L12 5.19238L3 11.043ZM7 14.5537V21H9V13.3037L7 14.5537ZM15 21H17V14.5537L15 13.3037V21Z" fill="#9E9E9E"/>
</g>
</svg>
