<svg width="24" height="24" viewBox="0 0 24 24" fill="none" xmlns="http://www.w3.org/2000/svg">
<g id="icons/Build/building-two">
<path id="Union" d="M10.0381 1.11328C10.3687 0.94112 10.7678 0.96696 11.0732 1.18066L16.0732 4.68066C16.3405 4.8678 16.5 5.17372 16.5 5.5V11.4854L19.5811 13.6865C19.8438 13.8742 20 14.1771 20 14.5V21H22C22.5523 21 23 21.4477 23 22C22.9999 22.5522 22.5522 23 22 23H2C1.44777 23 1.00009 22.5522 1 22C1 21.4477 1.44772 21 2 21H4.5V10C4.5 9.67372 4.65948 9.3678 4.92676 9.18066L9.5 5.97852V2L9.50977 1.8623C9.55388 1.54465 9.74872 1.26405 10.0381 1.11328ZM6.5 10.5205V21H9.5V8.41992L6.5 10.5205ZM11.5 21H18V15.0137L14.9189 12.8135C14.6562 12.6258 14.5001 12.3229 14.5 12V6.02051L11.5 3.91992V21Z" fill="#9E9E9E"/>
</g>
</svg>
