<svg width="24" height="24" viewBox="0 0 24 24" fill="none" xmlns="http://www.w3.org/2000/svg">
<g id="icons/Build/building-one">
<path id="Union" d="M11.9189 1.18652C12.2237 0.968874 12.625 0.939008 12.958 1.11035C13.2909 1.28175 13.4999 1.62554 13.5 2V5.98535L20.0811 10.6865C20.3438 10.8742 20.4999 11.1771 20.5 11.5V21H22C22.5522 21 22.9999 21.4478 23 22C23 22.5523 22.5523 23 22 23H2C1.44772 23 1 22.5523 1 22C1.0001 21.4478 1.44778 21 2 21H4.5V7C4.50006 6.67712 4.6562 6.3742 4.91895 6.18652L11.9189 1.18652ZM13.5 21H18.5V12.0137L13.5 8.44238V21ZM6.5 7.51367V21H11.5V3.94238L6.5 7.51367Z" fill="#9E9E9E"/>
</g>
</svg>
