<svg width="24" height="24" viewBox="0 0 24 24" fill="none" xmlns="http://www.w3.org/2000/svg">
<g id="icons/Build/castle">
<path id="Union" d="M4.86914 1.22461C5.26191 0.904259 5.84092 0.926853 6.20703 1.29297L9.70703 4.79297C9.99294 5.07897 10.0786 5.50919 9.92383 5.88281C9.76897 6.2563 9.40434 6.5 9 6.5H8.5V8.5C8.49992 8.86973 8.29842 9.19128 8 9.36426V12H9V10.5L9.00488 10.4014C9.02757 10.1724 9.12889 9.9571 9.29297 9.79297L11.293 7.79297L11.3691 7.72461C11.7619 7.40426 12.3409 7.42685 12.707 7.79297L14.707 9.79297C14.8945 9.98049 15 10.2348 15 10.5V12H16V9.36426C15.7016 9.19128 15.5001 8.86973 15.5 8.5V6.5H15C14.5957 6.5 14.231 6.2563 14.0762 5.88281C13.9214 5.50919 14.0071 5.07897 14.293 4.79297L17.793 1.29297L17.8691 1.22461C18.2619 0.904259 18.8409 0.926853 19.207 1.29297L22.707 4.79297C22.9929 5.07897 23.0786 5.50919 22.9238 5.88281C22.769 6.2563 22.4043 6.5 22 6.5H21.5V8.5C21.4999 8.86973 21.2984 9.19128 21 9.36426V12H22C22.5523 12 23 12.4477 23 13V22C22.9999 22.5522 22.5522 23 22 23H15C14.4478 23 14.0001 22.5522 14 22V20C14 18.8954 13.1046 18 12 18C10.8954 18 10 18.8954 10 20V22C9.99987 22.5522 9.55221 23 9 23H2C1.44779 23 1.00013 22.5522 1 22V13C1 12.4477 1.44772 12 2 12H3V9.36426C2.70158 9.19128 2.50008 8.86973 2.5 8.5V6.5H2C1.59566 6.5 1.23103 6.2563 1.07617 5.88281C0.921412 5.50919 1.00706 5.07897 1.29297 4.79297L4.79297 1.29297L4.86914 1.22461ZM5 13C4.99987 13.5522 4.55221 14 4 14H3V21H8V20C8 17.7909 9.79086 16 12 16C14.2091 16 16 17.7909 16 20V21H21V14H20C19.4478 14 19.0001 13.5522 19 13V9.5H18V13C17.9999 13.5522 17.5522 14 17 14H14C13.4478 14 13.0001 13.5522 13 13V10.9141L12 9.91406L11 10.9141V13C10.9999 13.5522 10.5522 14 10 14H7C6.44779 14 6.00013 13.5522 6 13V9.5H5V13ZM4.5 7.5H6.5V6.5H4.5V7.5ZM17.5 7.5H19.5V6.5H17.5V7.5ZM4.41406 4.5H6.58594L5.5 3.41406L4.41406 4.5ZM17.4141 4.5H19.5859L18.5 3.41406L17.4141 4.5Z" fill="#9E9E9E"/>
</g>
</svg>
