<svg width="24" height="24" viewBox="0 0 24 24" fill="none" xmlns="http://www.w3.org/2000/svg">
<g id="icons/Build/chimney">
<path id="Union" d="M17.5 6C18.0523 6 18.5 6.44772 18.5 7C18.5 7.55225 18.0523 8 17.5 8H17.1426L18.2549 16.3467C18.4068 16.5221 18.5 16.7498 18.5 17C18.5 17.1553 18.4626 17.3015 18.3994 17.4326L18.875 21H22C22.5523 21 23 21.4477 23 22C23 22.5522 22.5523 23 22 23H2C1.44774 23 1.00004 22.5522 1 22C1 21.4477 1.44772 21 2 21H5.125L5.59961 17.4336C5.53627 17.3023 5.50001 17.1555 5.5 17C5.5 16.7495 5.59293 16.5212 5.74512 16.3457L6.85742 8H6.5C5.94774 8 5.50004 7.55225 5.5 7C5.5 6.44772 5.94772 6 6.5 6H17.5ZM7.14258 21H16.8574L16.457 18H7.54297L7.14258 21ZM7.80859 16H16.1914L15.791 13H8.20898L7.80859 16ZM8.47559 11H15.5244L15.125 8H8.875L8.47559 11ZM15.293 1.29297C15.6835 0.90245 16.3165 0.902456 16.707 1.29297C17.0975 1.68349 17.0975 2.31652 16.707 2.70703L16.293 3.12109C15.7304 3.68357 14.9674 3.99991 14.1719 4H13.8281C13.563 4.00009 13.3086 4.10548 13.1211 4.29297L12.707 4.70703C12.3165 5.0975 11.6835 5.09749 11.293 4.70703C10.9025 4.31653 10.9025 3.6835 11.293 3.29297L11.707 2.87891C12.2696 2.31641 13.0326 2.00009 13.8281 2H14.1719C14.437 1.99991 14.6914 1.89449 14.8789 1.70703L15.293 1.29297Z" fill="#9E9E9E"/>
</g>
</svg>
