<svg width="24" height="24" viewBox="0 0 24 24" fill="none" xmlns="http://www.w3.org/2000/svg">
<g id="icons/Build/chinese-pavilion">
<path id="Union" d="M12.0001 1C12.3148 1.00005 12.6111 1.14863 12.7999 1.40039L15.4991 5H16.5001C16.7462 5.00004 16.9838 5.09077 17.1671 5.25488L17.1691 5.25684C17.1714 5.2589 17.1755 5.26292 17.1808 5.26758C17.1915 5.27703 17.2087 5.29152 17.2306 5.31055C17.2749 5.34899 17.3413 5.40575 17.4249 5.47559C17.593 5.61595 17.8306 5.80773 18.1056 6.01367C18.6781 6.44239 19.3333 6.86909 19.8517 7.06348C20.219 7.20116 20.7613 7.31415 21.2579 7.39355C21.4965 7.4317 21.7085 7.46011 21.8605 7.47852C21.936 7.48766 21.9966 7.49467 22.0372 7.49902C22.0574 7.50119 22.0733 7.50193 22.0831 7.50293C22.088 7.50342 22.0918 7.5037 22.0939 7.50391L22.0958 7.50488C22.5619 7.54978 22.9345 7.91222 22.9923 8.37695C23.0499 8.84164 22.777 9.28383 22.3361 9.44141V9.44238H22.3331L22.2941 9.45703C22.2674 9.4665 22.2287 9.48023 22.1808 9.49707C22.0846 9.53087 21.9495 9.57735 21.796 9.62988C21.4926 9.73374 21.1011 9.86499 20.7843 9.95898C20.3907 10.0758 19.8976 10.1985 19.5001 10.2939V18H21.0001C21.5523 18.0001 22.0001 18.4478 22.0001 19V22C22.0001 22.5522 21.5523 22.9999 21.0001 23H3.00012C2.44784 23 2.00012 22.5523 2.00012 22V19C2.00012 18.4477 2.44784 18 3.00012 18H4.50012V10.2939C4.10267 10.1985 3.60966 10.0758 3.21594 9.95898C2.89921 9.865 2.50764 9.73375 2.20422 9.62988C2.0508 9.57736 1.9157 9.53088 1.81946 9.49707C1.77155 9.48024 1.73291 9.46651 1.70618 9.45703L1.66711 9.44238H1.66418V9.44141C1.22315 9.28387 0.950298 8.84169 1.00793 8.37695C1.06574 7.91218 1.43824 7.54972 1.90442 7.50488L1.90637 7.50391C1.9085 7.5037 1.91231 7.50342 1.91711 7.50293C1.92698 7.50194 1.94284 7.50119 1.96301 7.49902C2.00364 7.49466 2.06426 7.48766 2.13977 7.47852C2.29173 7.46011 2.50372 7.4317 2.74231 7.39355C3.23895 7.31414 3.78125 7.20117 4.14856 7.06348C4.66694 6.86905 5.32213 6.44237 5.89465 6.01367C6.16969 5.80772 6.40726 5.61594 6.57532 5.47559C6.65895 5.40573 6.72537 5.34897 6.76965 5.31055C6.7916 5.2915 6.80876 5.27701 6.81946 5.26758C6.82476 5.26289 6.82889 5.25887 6.83118 5.25684C6.83214 5.25597 6.83279 5.25519 6.83313 5.25488L6.90442 5.19727C7.0761 5.06989 7.28474 5 7.50012 5H8.5011L11.2003 1.40039L11.2755 1.31055C11.4631 1.11344 11.7247 1 12.0001 1ZM4.00012 21H20.0001V20H4.00012V21ZM6.50012 18H17.5001V10.5H6.50012V18ZM7.85754 7.01074C7.66918 7.16806 7.40363 7.38329 7.09387 7.61523C6.72231 7.89346 6.25515 8.2204 5.76282 8.5H18.2374C17.7451 8.22041 17.278 7.89347 16.9064 7.61523C16.5966 7.3833 16.3311 7.16807 16.1427 7.01074C16.1385 7.00726 16.1341 7.00343 16.13 7H7.87024C7.86615 7.00342 7.86171 7.00726 7.85754 7.01074ZM10.9991 5H13.0011L12.0001 3.66602L10.9991 5Z" fill="#9E9E9E"/>
</g>
</svg>
