<svg width="24" height="24" viewBox="0 0 24 24" fill="none" xmlns="http://www.w3.org/2000/svg">
<g id="icons/Build/church-one">
<path id="Union" d="M12 1C12.5523 1 13 1.44772 13 2V3H14C14.5523 3 15 3.44772 15 4C15 4.55228 14.5523 5 14 5H13V7.05078L17.1641 10.7529C17.3776 10.9427 17.5 11.2144 17.5 11.5V13H19.5C20.6046 13 21.5 13.8954 21.5 15V21H22C22.5523 21 23 21.4477 23 22C23 22.5523 22.5523 23 22 23H2C1.44772 23 1 22.5523 1 22C1 21.4477 1.44772 21 2 21H2.5V15C2.5 13.8954 3.39544 13 4.5 13H6.5V11.5C6.5 11.2144 6.62245 10.9427 6.83594 10.7529L11 7.05078V5H10C9.44771 5 9 4.55228 9 4C9 3.44772 9.44771 3 10 3H11V2C11 1.44772 11.4477 1 12 1ZM4.5 21H6.5V15H4.5V21ZM12.166 8.98438C12.1119 8.99343 12.0567 9 12 9C11.943 9 11.8874 8.99354 11.833 8.98438L8.5 11.9482V21H11V17C11 16.4477 11.4477 16 12 16C12.5523 16 13 16.4477 13 17V21H15.5V11.9482L12.166 8.98438ZM17.5 21H19.5V15H17.5V21Z" fill="#9E9E9E"/>
</g>
</svg>
