<svg width="24" height="24" viewBox="0 0 24 24" fill="none" xmlns="http://www.w3.org/2000/svg">
<g id="icons/Build/church-two">
<path id="Union" d="M19 1C19.3148 1 19.611 1.14858 19.7998 1.40039L21.2998 3.40039C21.4296 3.57346 21.5 3.78369 21.5 4V22C21.5 22.5523 21.0523 23 20.5 23H3.5C2.94772 23 2.5 22.5523 2.5 22V4C2.5 3.78369 2.57045 3.57346 2.7002 3.40039L4.2002 1.40039L4.27539 1.31055C4.46295 1.11339 4.72451 1 5 1C5.31476 1 5.61095 1.14858 5.7998 1.40039L7.2998 3.40039C7.42955 3.57346 7.5 3.78369 7.5 4V9.73828L11.3271 6.25977L11.4014 6.19922C11.781 5.91488 12.3153 5.93477 12.6729 6.25977L16.5 9.73828V4C16.5 3.78369 16.5704 3.57346 16.7002 3.40039L18.2002 1.40039L18.2754 1.31055C18.463 1.11339 18.7245 1 19 1ZM4.5 4.33203V21H5.5V4.33203L5 3.66602L4.5 4.33203ZM7.5 12.4424V21H16.5V12.4424L12 8.35156L7.5 12.4424ZM18.5 4.33203V21H19.5V4.33203L19 3.66602L18.5 4.33203ZM12 11.5C12.5523 11.5 13 11.9477 13 12.5V13.5H14C14.5523 13.5 15 13.9477 15 14.5C15 15.0523 14.5523 15.5 14 15.5H13V17.5C13 18.0523 12.5523 18.5 12 18.5C11.4477 18.5 11 18.0523 11 17.5V15.5H10C9.44772 15.5 9 15.0523 9 14.5C9 13.9477 9.44772 13.5 10 13.5H11V12.5C11 11.9477 11.4477 11.5 12 11.5Z" fill="#9E9E9E"/>
</g>
</svg>
