<svg width="24" height="24" viewBox="0 0 24 24" fill="none" xmlns="http://www.w3.org/2000/svg">
<g id="icons/Build/circle-house">
<path id="Union" d="M12.2496 1C12.6789 1 13.0598 1.27415 13.1969 1.68066V1.67871L13.2057 1.70312C13.2172 1.73246 13.2395 1.78476 13.2731 1.8584C13.3404 2.00576 13.457 2.24026 13.6422 2.55371C14.0129 3.18105 14.6601 4.12802 15.7428 5.33105C16.7919 6.49675 18.4679 7.81976 19.9293 8.87695C20.6509 9.39894 21.3044 9.84512 21.777 10.1602C22.0129 10.3174 22.2037 10.4417 22.3346 10.5264C22.3998 10.5686 22.4502 10.6015 22.484 10.623C22.5007 10.6337 22.5138 10.6422 22.5221 10.6475C22.5259 10.6499 22.529 10.6521 22.5309 10.6533L22.5328 10.6543C22.9093 10.892 23.0843 11.3506 22.9606 11.7783C22.8367 12.2058 22.4447 12.5 21.9996 12.5H18.4996V14.5H19.9996C20.5519 14.5 20.9996 14.9477 20.9996 15.5V22C20.9996 22.5523 20.5519 23 19.9996 23H3.99963C3.44751 22.9998 2.99963 22.5522 2.99963 22V15.5C2.99963 14.9478 3.44751 14.5002 3.99963 14.5H5.49963V12.5H1.99963C1.54638 12.4998 1.14922 12.1949 1.03284 11.7568C0.916531 11.3187 1.11006 10.8568 1.50354 10.6318L1.50647 10.6299C1.50857 10.6287 1.51207 10.6264 1.51624 10.624C1.52537 10.6188 1.53986 10.6112 1.55823 10.6006C1.59546 10.579 1.65132 10.5462 1.72327 10.5039C1.86733 10.4193 2.07691 10.2948 2.33557 10.1377C2.85407 9.82275 3.56887 9.37701 4.3512 8.85547C5.94081 7.79573 7.72268 6.47965 8.75647 5.33105C9.83918 4.12804 10.4863 3.18108 10.8571 2.55371C11.0423 2.24027 11.1589 2.0058 11.2262 1.8584C11.2598 1.78479 11.282 1.7325 11.2936 1.70312L11.3024 1.67871V1.68066C11.4394 1.27421 11.8205 1.00015 12.2496 1ZM4.99963 21H18.9996V16.5H4.99963V21ZM7.49963 14.5H16.4996V12.5H7.49963V14.5ZM12.2496 4.09863C11.8009 4.78578 11.1571 5.65305 10.2428 6.66895C9.03397 8.012 7.08229 9.4369 5.48987 10.5H18.7604C18.7595 10.4994 18.7583 10.4987 18.7574 10.498C17.2815 9.43033 15.4572 8.00303 14.2565 6.66895C13.3422 5.65304 12.6983 4.78577 12.2496 4.09863Z" fill="#9E9E9E"/>
</g>
</svg>
