<svg width="24" height="24" viewBox="0 0 24 24" fill="none" xmlns="http://www.w3.org/2000/svg">
<g id="icons/Build/circus">
<path id="Union" d="M12.2854 1.00879C13.1585 0.659703 14.2583 0.803558 15.5549 1.66797C16.5078 2.30306 16.9086 2.15952 16.9729 2.13379C17.0338 2.10935 17.0769 2.07293 17.1047 2.04199C17.1181 2.02716 17.1249 2.01566 17.1262 2.01367C17.1259 2.01452 17.1247 2.01727 17.1223 2.02148C17.1206 2.0245 17.1181 2.02918 17.1155 2.03418C17.1142 2.03658 17.1121 2.03908 17.1106 2.04199C17.1099 2.04344 17.1094 2.04532 17.1086 2.04688L17.1077 2.04883C17.3159 1.63646 17.7798 1.42027 18.2297 1.52637C18.6809 1.63304 19.0002 2.03634 19.0002 2.5V5.5C19.0001 5.65501 18.9641 5.80862 18.8948 5.94727L18.0002 5.5L18.8938 5.94824L18.8928 5.9502L18.8918 5.95312C18.8908 5.95504 18.889 5.95687 18.8879 5.95898C18.8856 5.96351 18.8829 5.96934 18.8801 5.97461C18.8745 5.98511 18.8682 5.99742 18.8606 6.01074C18.8452 6.03788 18.8254 6.07106 18.801 6.1084C18.7523 6.18298 18.6828 6.27794 18.5911 6.37988C18.4081 6.58315 18.1224 6.8273 17.7151 6.99023C16.8421 7.33939 15.7421 7.19621 14.4456 6.33203C13.4929 5.69695 13.0923 5.83937 13.0276 5.86523C13.0177 5.86919 13.0092 5.87534 13.0002 5.87988V6.40527C13.164 6.49299 13.3582 6.59821 13.5725 6.70605C14.2083 7.02595 14.9568 7.36698 15.5383 7.54199C16.2985 7.77067 17.6208 7.89493 18.843 7.95312C19.4351 7.9813 19.9745 7.99229 20.3655 7.99707C20.5604 7.99945 20.7182 8.00095 20.8264 8.00098C20.8804 8.00099 20.9226 8.00014 20.9504 8H20.9905C21.2817 7.99732 21.5602 8.12181 21.7522 8.34082C21.9441 8.56012 22.0317 8.85314 21.9905 9.1416L21.4905 12.6416C21.4498 12.9256 21.2889 13.1765 21.053 13.333L20.9475 13.3945L20.9456 13.3955C20.9444 13.3961 20.9427 13.3974 20.9407 13.3984C20.9364 13.4006 20.9299 13.4034 20.9221 13.4072C20.9063 13.4151 20.8827 13.4262 20.8538 13.4404C20.7962 13.4687 20.7139 13.5079 20.6145 13.5557C20.6868 13.9245 20.7991 14.4761 20.9768 15.2861C21.2099 16.3484 21.696 17.9307 22.135 19.2773C22.3523 19.9439 22.5544 20.5423 22.7024 20.9736C22.7762 21.1889 22.8365 21.3629 22.8782 21.4824C22.899 21.542 22.9161 21.5891 22.927 21.6201L22.9417 21.6641L22.9426 21.666C23.0508 21.972 23.004 22.3121 22.8167 22.5771C22.6293 22.8421 22.3248 22.9999 22.0002 23H2.00024C1.67572 23 1.37128 22.842 1.18384 22.5771C0.996465 22.3121 0.949642 21.972 1.05786 21.666L1.05884 21.6641L1.07349 21.6201C1.08442 21.589 1.10148 21.5421 1.12231 21.4824C1.16403 21.3629 1.22422 21.1889 1.2981 20.9736C1.44609 20.5423 1.64815 19.944 1.86548 19.2773C2.3045 17.9307 2.7906 16.3484 3.02368 15.2861C3.20503 14.4595 3.31787 13.902 3.38989 13.5332L3.12915 13.4287C2.79721 13.2959 2.56075 12.9955 2.51001 12.6416L2.01001 9.1416C1.9692 8.85593 2.05419 8.56637 2.24243 8.34766C2.43076 8.12893 2.70478 8.00208 2.99341 8H3.03247C3.05922 7.9997 3.09925 7.99885 3.15063 7.99805C3.25469 7.99642 3.40675 7.99315 3.59399 7.98828C3.96924 7.97852 4.48685 7.96094 5.05493 7.92871C6.22447 7.86234 7.49789 7.7399 8.23267 7.53613C8.86459 7.36084 9.67773 7.01637 10.3645 6.69531C10.6036 6.58355 10.8196 6.4749 11.0002 6.38477V2.5C11.0002 2.42632 11.0086 2.3543 11.0237 2.28516C11.0271 2.26972 11.0313 2.25452 11.0354 2.23926C11.042 2.21476 11.0495 2.19071 11.0579 2.16699C11.0604 2.15991 11.062 2.15254 11.0647 2.14551C11.0824 2.09888 11.1031 2.05374 11.1272 2.01074C11.1308 2.0036 11.1354 1.99623 11.1399 1.98828C11.1553 1.96113 11.1751 1.92796 11.1995 1.89062C11.2482 1.81607 11.3177 1.72204 11.4094 1.62012C11.5924 1.41677 11.8779 1.1718 12.2854 1.00879ZM7.84106 13.5791C7.08983 13.8649 6.22215 14.0805 5.32739 14.041C5.25126 14.4246 5.14143 14.9635 4.97681 15.7139C4.72008 16.884 4.20624 18.5526 3.76782 19.8975C3.63777 20.2964 3.50991 20.67 3.39868 21H7.44653C7.46735 20.9645 7.49137 20.9283 7.51392 20.8887C7.72095 20.5246 7.9953 19.9897 8.2561 19.3232C8.7134 18.1546 9.1155 16.6093 9.05981 14.8779C8.98474 14.8178 8.91624 14.757 8.85669 14.7002C8.64114 14.4944 8.41886 14.2324 8.24146 14.0254C8.08374 13.8414 7.95185 13.6941 7.84106 13.5791ZM11.759 14.0254C11.5816 14.2324 11.3594 14.4944 11.1438 14.7002C11.1176 14.7252 11.0872 14.7482 11.0579 14.7744C11.1322 16.8667 10.6472 18.7028 10.1194 20.0518C9.9832 20.3998 9.84137 20.7165 9.7063 21H14.2932C14.1582 20.7166 14.0172 20.3996 13.8811 20.0518C13.3289 18.6406 12.8233 16.6965 12.9563 14.4834C12.7902 14.3354 12.5825 14.1387 12.4153 13.9844C12.2887 13.8675 12.1703 13.7643 12.0657 13.6768C11.9766 13.7747 11.8749 13.8902 11.759 14.0254ZM16.053 13.5811C15.9205 13.6835 15.762 13.8212 15.5852 13.9844C15.4055 14.1502 15.1795 14.366 15.0081 14.5166C14.9911 14.5315 14.9726 14.5459 14.9543 14.5615C14.8348 16.4209 15.2584 18.0839 15.7434 19.3232C16.0042 19.9897 16.2795 20.5246 16.4866 20.8887C16.5091 20.9283 16.5332 20.9645 16.554 21H20.6018C20.4906 20.6701 20.3627 20.2963 20.2327 19.8975C19.7943 18.5527 19.2804 16.884 19.0237 15.7139C18.8997 15.1486 18.8051 14.7035 18.7336 14.3545C18.6577 14.3792 18.5825 14.4033 18.509 14.4229C18.3856 14.4558 18.1969 14.5 18.0002 14.5C17.6022 14.5 17.2516 14.3215 17.0686 14.2217C16.8502 14.1025 16.623 13.9503 16.4456 13.832C16.2884 13.7272 16.161 13.6452 16.053 13.5811ZM11.2112 8.50684C10.5064 8.83633 9.56874 9.24167 8.76782 9.46387C7.79898 9.7326 6.32238 9.86029 5.16821 9.92578C4.7998 9.94668 4.45216 9.96083 4.14868 9.97168L4.40845 11.7861L4.66235 11.8877C5.38173 12.1752 6.259 12.0615 7.2356 11.6729C7.40759 11.6044 7.69755 11.5 8.00024 11.5C8.33753 11.5001 8.60018 11.6398 8.74146 11.7285C8.8979 11.8269 9.03515 11.9461 9.1438 12.0498C9.35936 12.2556 9.58167 12.5177 9.75903 12.7246C9.84682 12.827 9.92649 12.918 9.99829 12.999H10.0012C10.0731 12.9179 10.1535 12.8272 10.2415 12.7246C10.4189 12.5176 10.641 12.2557 10.8567 12.0498C10.9654 11.946 11.1024 11.8269 11.259 11.7285C11.4004 11.6397 11.6629 11.5 12.0002 11.5C12.2889 11.5001 12.527 11.6007 12.6643 11.6689C12.8177 11.7453 12.9602 11.8405 13.0803 11.9287C13.3203 12.1051 13.5674 12.3261 13.7727 12.5156C13.8556 12.5922 13.9316 12.6613 14.0002 12.7256C14.069 12.6613 14.1447 12.5923 14.2278 12.5156C14.4332 12.326 14.6801 12.1051 14.9202 11.9287C15.0403 11.8404 15.1826 11.7453 15.3362 11.6689C15.4736 11.6007 15.7115 11.5 16.0002 11.5C16.3984 11.5001 16.749 11.6786 16.9319 11.7783C17.1503 11.8975 17.3775 12.0497 17.5549 12.168C17.7521 12.2994 17.9006 12.3976 18.0256 12.4658C18.0315 12.469 18.0379 12.4718 18.0432 12.4746C18.1008 12.4574 18.1738 12.4357 18.26 12.4043C18.4864 12.322 18.7593 12.2069 19.0315 12.0859C19.2308 11.9974 19.422 11.9063 19.5852 11.8291L19.8479 9.9873C19.5225 9.9799 19.1467 9.96921 18.7473 9.9502C17.5415 9.89278 15.9881 9.76663 14.9622 9.45801C14.2055 9.2303 13.3285 8.82146 12.6741 8.49219C12.6022 8.45604 12.5334 8.41758 12.4661 8.38281C12.3268 8.45647 12.1688 8.49995 12.0002 8.5C11.8184 8.5 11.6482 8.45008 11.5012 8.36523C11.4085 8.41013 11.3124 8.4595 11.2112 8.50684ZM14.4456 3.33203C13.4929 2.69694 13.0923 2.83937 13.0276 2.86523C13.0177 2.86918 13.0092 2.87537 13.0002 2.87988V3.8418C13.7346 3.78104 14.5904 4.02497 15.5549 4.66797C16.5078 5.30305 16.9086 5.15952 16.9729 5.13379C16.9829 5.12976 16.9912 5.12274 17.0002 5.11816V4.15723C16.2659 4.21806 15.41 3.97487 14.4456 3.33203Z" fill="#9E9E9E"/>
</g>
</svg>
