<svg width="24" height="24" viewBox="0 0 24 24" fill="none" xmlns="http://www.w3.org/2000/svg">
<g id="icons/Build/city">
<path id="Union" d="M19 1C20.1046 1 21 1.89543 21 3V20H22C22.5523 20 23 20.4477 23 21C23 21.5523 22.5523 22 22 22H2C1.44772 22 1 21.5523 1 21C1 20.4477 1.44772 20 2 20H3V14C3 12.8954 3.89543 12 5 12H7V3C7 1.89543 7.89543 1 9 1H19ZM5 20H7V17.8643C6.85272 17.9496 6.68249 18 6.5 18H6C5.44772 18 5 17.5523 5 17C5 16.4477 5.44772 16 6 16H6.5C6.68232 16 6.85282 16.0495 7 16.1348V14H5V20ZM9 20H19V3H9V20ZM17 15.5V17.5H15V15.5H17ZM17 14H15V12H17V14ZM13 10.5H11V8.5H13V10.5ZM17 10.5H15V8.5H17V10.5ZM13 7H11V5H13V7ZM17 7H15V5H17V7Z" fill="#9E9E9E"/>
</g>
</svg>
