<svg width="24" height="24" viewBox="0 0 24 24" fill="none" xmlns="http://www.w3.org/2000/svg">
<g id="icons/Build/city-gate">
<path id="Union" d="M12.0381 1.00098C12.3164 1.01167 12.5775 1.13812 12.7588 1.34961L15.459 4.5H16C16.1336 4.5 16.2654 4.52668 16.3877 4.57812L16.5088 4.63867C16.5099 4.63934 16.5116 4.64037 16.5137 4.6416C16.5184 4.64438 16.5259 4.64887 16.5352 4.6543C16.5537 4.66519 16.5811 4.68158 16.6162 4.70215C16.6867 4.74348 16.7888 4.80281 16.9141 4.87598C17.165 5.02259 17.5099 5.22368 17.8848 5.44043C18.6409 5.87768 19.4992 6.36812 19.9678 6.61621L20.0654 6.65137C20.1386 6.67453 20.2338 6.69911 20.3477 6.72559C20.5756 6.77856 20.8455 6.8285 21.1123 6.87109C21.3768 6.91332 21.6269 6.9473 21.8115 6.9707C21.9034 6.98235 21.9788 6.99108 22.0303 6.99707C22.0558 7.00004 22.0758 7.00244 22.0889 7.00391C22.0953 7.00463 22.1004 7.00552 22.1035 7.00586H22.1074L22.2764 7.03906C22.6579 7.14859 22.9453 7.47776 22.9932 7.88281C23.0477 8.3456 22.7748 8.78464 22.3359 8.94141V8.94238H22.333L22.2939 8.95703C22.2672 8.96651 22.2286 8.98024 22.1807 8.99707C22.0844 9.03088 21.9493 9.07736 21.7959 9.12988C21.4925 9.23375 21.1009 9.365 20.7842 9.45898C20.3712 9.5815 19.849 9.71148 19.4424 9.80859C19.2368 9.8577 19.0554 9.89917 18.9258 9.92871C18.861 9.94347 18.8086 9.95578 18.7725 9.96387C18.7546 9.96786 18.7401 9.97052 18.7305 9.97266C18.7259 9.97369 18.7222 9.97503 18.7197 9.97559C18.7185 9.97588 18.7175 9.97641 18.7168 9.97656H18.7158C18.6804 9.98437 18.6445 9.99024 18.6084 9.99414L18.5 10V11H21C21.5137 11 21.944 11.3892 21.9951 11.9004L22.9951 21.9004C23.0232 22.1814 22.9307 22.4615 22.7412 22.6709C22.5516 22.8802 22.2824 23 22 23H2C1.71757 23 1.44834 22.8803 1.25879 22.6709C1.06927 22.4615 0.976852 22.1814 1.00488 21.9004L2.00488 11.9004L2.01855 11.8057C2.10996 11.3419 2.51853 11 3 11H5V9.91113C4.87909 9.88349 4.72649 9.84892 4.55762 9.80859C4.15095 9.71147 3.62882 9.58151 3.21582 9.45898C2.89904 9.36499 2.50753 9.23376 2.2041 9.12988C2.0506 9.07733 1.91559 9.03088 1.81934 8.99707C1.77134 8.98021 1.7328 8.96651 1.70605 8.95703L1.66699 8.94238C1.66603 8.94204 1.66459 8.94257 1.66406 8.94238V8.94141C1.2252 8.78464 0.95235 8.34559 1.00684 7.88281C1.06159 7.41989 1.42914 7.05599 1.89258 7.00586C1.89319 7.00579 1.89497 7.00601 1.89648 7.00586C1.89955 7.00552 1.90468 7.00463 1.91113 7.00391C1.92422 7.00244 1.9442 7.00004 1.96973 6.99707C2.02123 6.99108 2.0966 6.98235 2.18848 6.9707C2.37309 6.9473 2.62318 6.91332 2.8877 6.87109C3.15447 6.82851 3.42437 6.77855 3.65234 6.72559C3.76617 6.69913 3.86136 6.67451 3.93457 6.65137C4.01389 6.62627 4.03981 6.6122 4.03223 6.61621C4.45975 6.38987 5.16281 5.92331 5.7959 5.48438C6.10395 5.27079 6.38313 5.07259 6.58496 4.92773C6.68547 4.85559 6.76732 4.79646 6.82324 4.75586C6.85109 4.73564 6.87322 4.71954 6.8877 4.70898C6.89478 4.70381 6.90071 4.69987 6.9043 4.69727C6.90587 4.69612 6.90737 4.69495 6.9082 4.69434L6.90918 4.69336L7.04395 4.61035C7.18442 4.53834 7.34064 4.50001 7.5 4.5H8.08594L11.293 1.29297L11.3701 1.22363C11.5575 1.07159 11.7946 0.991715 12.0381 1.00098ZM3.10547 21H9V19C9 17.3432 10.3432 16 12 16C13.6568 16 15 17.3432 15 19V21H20.8945L20.0947 13H3.90527L3.10547 21ZM12 18C11.4478 18 11 18.4478 11 19V21H13V19C13 18.4477 12.5523 18 12 18ZM7 11H16.5V10H7V11ZM7.75195 6.55176C7.54387 6.7011 7.25505 6.9064 6.93555 7.12793C6.53193 7.40776 6.05393 7.72858 5.61914 8H18.3379C17.8848 7.7459 17.3557 7.44474 16.8838 7.17188C16.5058 6.95329 16.158 6.75114 15.9053 6.60352C15.8397 6.56519 15.7803 6.53031 15.7285 6.5H7.82422C7.80143 6.5164 7.77714 6.53368 7.75195 6.55176ZM10.9141 4.5H12.8262L11.9434 3.46973L10.9141 4.5Z" fill="#9E9E9E"/>
</g>
</svg>
