<svg width="24" height="24" viewBox="0 0 24 24" fill="none" xmlns="http://www.w3.org/2000/svg">
<g id="icons/Build/city-one">
<path id="Union" d="M19 1C20.1046 1 21 1.89543 21 3V20H22C22.5523 20 23 20.4477 23 21C23 21.5523 22.5523 22 22 22H2C1.44772 22 1 21.5523 1 21C1 20.4477 1.44772 20 2 20H3V12C3 10.8954 3.89543 10 5 10H9V3C9 1.89543 9.89543 1 11 1H19ZM5 20H9V12H5V20ZM11 20H19V3H11V20ZM8 15.0039C8.55228 15.0039 9 15.4516 9 16.0039C9 16.5562 8.55228 17.0039 8 17.0039H6C5.44772 17.0039 5 16.5562 5 16.0039C5 15.4516 5.44772 15.0039 6 15.0039H8ZM16 15.0039C16.5523 15.0039 17 15.4516 17 16.0039C17 16.5562 16.5523 17.0039 16 17.0039H14C13.4477 17.0039 13 16.5562 13 16.0039C13 15.4516 13.4477 15.0039 14 15.0039H16ZM16 10.5039C16.5523 10.5039 17 10.9516 17 11.5039C17 12.0562 16.5523 12.5039 16 12.5039H14C13.4477 12.5039 13 12.0562 13 11.5039C13 10.9516 13.4477 10.5039 14 10.5039H16ZM16 6.00391C16.5523 6.00391 17 6.45162 17 7.00391C17 7.55619 16.5523 8.00391 16 8.00391H14C13.4477 8.00391 13 7.55619 13 7.00391C13 6.45162 13.4477 6.00391 14 6.00391H16Z" fill="#9E9E9E"/>
</g>
</svg>
