<svg width="24" height="24" viewBox="0 0 24 24" fill="none" xmlns="http://www.w3.org/2000/svg">
<g id="icons/Build/clock-tower">
<path id="Union" d="M16.5 1C16.7967 1 17.0786 1.13144 17.2686 1.35938L19.7686 4.35938C19.7735 4.36528 19.7775 4.37193 19.7822 4.37793C19.8033 4.40442 19.8225 4.43235 19.8408 4.46094C19.8489 4.47354 19.8568 4.48613 19.8643 4.49902C19.9054 4.5699 19.9381 4.64602 19.9609 4.72656C19.9629 4.73364 19.964 4.74093 19.9658 4.74805C19.9744 4.78105 19.9821 4.81439 19.9873 4.84863C19.989 4.8597 19.9909 4.87071 19.9922 4.88184C19.9968 4.92062 20 4.95998 20 5V7C20.8284 7 21.5 7.67157 21.5 8.5V15.5C21.5 16.1528 21.0822 16.706 20.5 16.9121V21H22C22.5523 21 23 21.4477 23 22C23 22.5523 22.5523 23 22 23H2C1.44772 23 1 22.5523 1 22C1 21.4477 1.44772 21 2 21H3.5V11C3.5 9.89541 4.39544 9 5.5 9H11.5V8.5C11.5 7.67157 12.1716 7 13 7V5C13 4.96002 13.0023 4.92059 13.0068 4.88184C13.0081 4.87073 13.01 4.85969 13.0117 4.84863C13.0169 4.81442 13.0246 4.78102 13.0332 4.74805C13.035 4.74094 13.0361 4.73363 13.0381 4.72656C13.0609 4.64609 13.0937 4.56986 13.1348 4.49902C13.1422 4.48614 13.1501 4.47354 13.1582 4.46094C13.1765 4.43237 13.1957 4.40441 13.2168 4.37793C13.2217 4.37177 13.2264 4.36544 13.2314 4.35938L15.7314 1.35938L15.8076 1.2793C15.9928 1.10135 16.2403 1 16.5 1ZM5.5 21H12.5V16.9121C11.9178 16.706 11.5 16.1528 11.5 15.5V11H5.5V21ZM17.5 21H18.5V17H17.5V21ZM14.5 21H15.5V17H14.5V21ZM9.5 17C10.0523 17 10.5 17.4477 10.5 18C10.5 18.5523 10.0523 19 9.5 19H7.5C6.94772 19 6.5 18.5523 6.5 18C6.5 17.4477 6.94772 17 7.5 17H9.5ZM9.5 13.5C10.0523 13.5 10.5 13.9477 10.5 14.5C10.5 15.0523 10.0523 15.5 9.5 15.5H7.5C6.94772 15.5 6.5 15.0523 6.5 14.5C6.5 13.9477 6.94772 13.5 7.5 13.5H9.5ZM13.5 15H19.5V9H13.5V15ZM16.5 10.5C17.3284 10.5 18 11.1716 18 12C18 12.8284 17.3284 13.5 16.5 13.5C15.6716 13.5 15 12.8284 15 12C15 11.1716 15.6716 10.5 16.5 10.5ZM15 7H18V6H15V7ZM16.1357 4H16.8643L16.5 3.5625L16.1357 4Z" fill="#9E9E9E"/>
</g>
</svg>
