<svg width="24" height="24" viewBox="0 0 24 24" fill="none" xmlns="http://www.w3.org/2000/svg">
<g id="icons/Build/death-star">
<path id="Union" d="M12 1C15.5979 1 18.7919 2.72776 20.7988 5.39844H20.7998C20.9008 5.5329 20.9979 5.67041 21.0928 5.80957C21.1204 5.85014 21.1467 5.89166 21.1738 5.93262C21.2377 6.029 21.3005 6.12612 21.3613 6.22461C21.391 6.27256 21.4203 6.3207 21.4492 6.36914C21.5107 6.47211 21.5698 6.57653 21.6279 6.68164C21.6473 6.71657 21.6676 6.75097 21.6865 6.78613C21.756 6.91504 21.8223 7.0458 21.8867 7.17773C21.8971 7.19905 21.9087 7.21982 21.9189 7.24121C21.987 7.38281 22.0522 7.52601 22.1143 7.6709C22.1407 7.73259 22.1651 7.79516 22.1904 7.85742C22.2246 7.94139 22.2589 8.02537 22.291 8.11035C22.3191 8.18474 22.3455 8.25982 22.3721 8.33496C22.402 8.4198 22.431 8.50504 22.459 8.59082C22.484 8.66768 22.5088 8.74467 22.5322 8.82227C22.5559 8.90091 22.5776 8.9802 22.5996 9.05957C22.6191 9.13012 22.6401 9.20037 22.6582 9.27148C22.6992 9.43222 22.7366 9.59435 22.7705 9.75781C22.7794 9.80091 22.7865 9.84441 22.7949 9.8877C22.8192 10.0127 22.8423 10.1382 22.8623 10.2646C22.8714 10.3221 22.8785 10.3798 22.8867 10.4375C22.9019 10.5441 22.9156 10.6512 22.9277 10.7588C22.9357 10.8299 22.9436 10.9011 22.9502 10.9727C22.9607 11.0855 22.9686 11.1987 22.9756 11.3125C22.979 11.3674 22.9837 11.4224 22.9863 11.4775C22.9944 11.6507 23 11.8249 23 12C23 12.1294 22.9976 12.2584 22.9932 12.3867C22.9974 12.4239 23 12.4617 23 12.5C23 12.5725 22.9902 12.6428 22.9756 12.7109C22.9678 12.8326 22.958 12.9537 22.9463 13.0742C22.944 13.098 22.9429 13.1218 22.9404 13.1455C22.9244 13.3008 22.9043 13.4551 22.8818 13.6084C22.874 13.6616 22.865 13.7146 22.8564 13.7676C22.8367 13.89 22.8148 14.0117 22.791 14.1328C22.7834 14.1716 22.7766 14.2104 22.7686 14.249C22.7033 14.5629 22.6236 14.8714 22.5322 15.1748C22.5163 15.2276 22.501 15.2805 22.4844 15.333C22.4935 15.3874 22.5 15.443 22.5 15.5C22.5 15.8078 22.3603 16.0822 22.1416 16.2656C22.1296 16.2942 22.1158 16.3221 22.1035 16.3506C22.054 16.4653 22.0024 16.5788 21.9492 16.6914C21.931 16.7299 21.9131 16.7684 21.8945 16.8066C21.8275 16.9443 21.7581 17.0805 21.6855 17.2148C21.6677 17.2479 21.649 17.2806 21.6309 17.3135C21.5694 17.4246 21.5066 17.5348 21.4414 17.6436C21.4191 17.6808 21.3968 17.7179 21.374 17.7549C21.3124 17.855 21.2492 17.9538 21.1846 18.0518C21.1612 18.0871 21.139 18.1231 21.1152 18.1582C21.0278 18.2874 20.9365 18.4138 20.8438 18.5391C20.8182 18.5736 20.7916 18.6074 20.7656 18.6416C20.6969 18.7322 20.6271 18.8218 20.5557 18.9102C20.5225 18.9512 20.4898 18.9926 20.4561 19.0332C20.3649 19.1427 20.272 19.2506 20.1768 19.3564C20.1394 19.3979 20.1014 19.4386 20.0635 19.4795C19.9992 19.5487 19.9332 19.6161 19.8672 19.6836C19.8149 19.7371 19.7623 19.7903 19.709 19.8428C19.6413 19.9093 19.5733 19.9753 19.5039 20.04C19.4389 20.1007 19.3731 20.1606 19.3066 20.2197C19.2275 20.2901 19.1476 20.3596 19.0664 20.4277C19.0157 20.4703 18.9645 20.5121 18.9131 20.5537C18.8448 20.609 18.7757 20.6632 18.7061 20.7168C18.6573 20.7543 18.6089 20.7924 18.5596 20.8291C18.4385 20.9192 18.3153 21.0066 18.1904 21.0918C18.1462 21.122 18.1013 21.1511 18.0566 21.1807C17.9715 21.2369 17.8856 21.2918 17.7988 21.3457C17.752 21.3748 17.7055 21.4042 17.6582 21.4326C17.5245 21.513 17.3893 21.5912 17.252 21.666C17.2367 21.6743 17.2213 21.6822 17.2061 21.6904C17.1212 21.7361 17.0363 21.7817 16.9502 21.8252L16.9482 21.8223C15.4604 22.5733 13.7805 23 12 23C6.87412 23 2.56749 19.4938 1.34668 14.749C1.30672 14.5938 1.27058 14.4371 1.2373 14.2793C1.22916 14.2407 1.2216 14.2019 1.21387 14.1631C1.18366 14.0118 1.15576 13.8595 1.13184 13.7061C1.12633 13.6707 1.12236 13.6351 1.11719 13.5996C1.09749 13.4646 1.08017 13.3289 1.06543 13.1924C1.06192 13.1598 1.05694 13.1274 1.05371 13.0947C1.03757 12.9317 1.02651 12.7675 1.01758 12.6025C1.01573 12.5684 1.01423 12.5342 1.0127 12.5C1.00526 12.3342 1 12.1675 1 12C1 11.2479 1.07533 10.5121 1.21973 9.80078C2.23861 4.77945 6.67801 1 12 1ZM3.12695 13.5C3.84124 17.7564 7.54065 21 12 21C13.8395 21 15.5494 20.4472 16.9746 19.5H12.5C11.9477 19.5 11.5 19.0523 11.5 18.5C11.5 17.9477 11.9477 17.5 12.5 17.5H19.1211C19.3665 17.1827 19.591 16.8489 19.793 16.5H15.5C14.9477 16.5 14.5 16.0523 14.5 15.5C14.5 14.9477 14.9477 14.5 15.5 14.5H20.6455C20.7397 14.1738 20.8159 13.8403 20.873 13.5H3.12695ZM12 3C7.19723 3 3.27412 6.76203 3.01465 11.5H20.9844C20.9832 11.4778 20.9818 11.4557 20.9805 11.4336C20.939 10.7666 20.8244 10.1198 20.6455 9.5H17C16.4477 9.5 16 9.05229 16 8.5C16 7.94772 16.4477 7.5 17 7.5H19.793C18.2366 4.81061 15.3307 3 12 3ZM9.5 4.5C11.1569 4.5 12.5 5.84315 12.5 7.5C12.5 9.15685 11.1569 10.5 9.5 10.5C7.84315 10.5 6.5 9.15685 6.5 7.5C6.5 5.84315 7.84315 4.5 9.5 4.5ZM9.5 6.5C8.94772 6.5 8.5 6.94772 8.5 7.5C8.5 8.05228 8.94772 8.5 9.5 8.5C10.0523 8.5 10.5 8.05228 10.5 7.5C10.5 6.94772 10.0523 6.5 9.5 6.5Z" fill="#9E9E9E"/>
</g>
</svg>
