<svg width="24" height="24" viewBox="0 0 24 24" fill="none" xmlns="http://www.w3.org/2000/svg">
<g id="icons/Build/dome">
<path id="Union" d="M12 2C18.0751 2 23 6.92487 23 13C23 16.05 22.0099 18.6171 20.1104 20.5H22C22.5523 20.5 23 20.9477 23 21.5C23 22.0523 22.5523 22.5 22 22.5H2C1.44772 22.5 1 22.0523 1 21.5C1 20.9477 1.44772 20.5 2 20.5H3.89062C1.99072 18.617 1 16.0503 1 13C1 6.92487 5.92487 2 12 2ZM20.4951 16.21C20.0282 16.2932 19.4432 16.3936 18.7666 16.4902C18.0391 16.5942 17.2036 16.6974 16.2949 16.7842C16.1354 18.1666 15.8779 19.4321 15.5166 20.5H16.7539C18.5817 19.522 19.8464 18.0784 20.4951 16.21ZM14.2607 16.9346C13.5287 16.9738 12.7707 17 12 17C11.229 17 10.4706 16.9739 9.73828 16.9346C9.92977 18.3851 10.2312 19.6049 10.6221 20.5H13.3779C13.7688 19.6049 14.0693 18.3851 14.2607 16.9346ZM3.50391 16.21C4.15261 18.0785 5.41821 19.522 7.24609 20.5H8.4834C8.12208 19.432 7.86364 18.1666 7.7041 16.7842C6.79584 16.6974 5.96064 16.5941 5.2334 16.4902C4.55636 16.3935 3.97096 16.2932 3.50391 16.21ZM12 12.5C11.1469 12.5 10.3081 12.5157 9.50391 12.54C9.50141 12.6923 9.5 12.8457 9.5 13C9.5 13.6643 9.51895 14.3065 9.55371 14.9219C10.3428 14.9695 11.1647 15 12 15C12.8349 15 13.6566 14.9695 14.4453 14.9219C14.4801 14.3065 14.5 13.6643 14.5 13C14.5 12.8457 14.4976 12.6923 14.4951 12.54C13.6912 12.5157 12.8527 12.5 12 12.5ZM7.50293 12.624C6.7548 12.6623 6.06177 12.7031 5.44629 12.7471C4.57984 12.809 3.86866 12.8717 3.375 12.918C3.23144 12.9314 3.10622 12.9437 3.00098 12.9541C3.0009 12.9694 3 12.9847 3 13C3 13.3748 3.01852 13.7387 3.05273 14.0918C3.16492 14.1143 3.30329 14.1434 3.46582 14.1738C3.95364 14.2653 4.65809 14.3871 5.5166 14.5098C6.12364 14.5965 6.8061 14.6811 7.54199 14.7568C7.51444 14.1813 7.5 13.5941 7.5 13C7.5 12.8742 7.50137 12.7489 7.50293 12.624ZM16.5 13C16.5 13.5941 16.4846 14.1813 16.457 14.7568C17.1933 14.6811 17.8761 14.5965 18.4834 14.5098C19.3419 14.3871 20.0464 14.2653 20.5342 14.1738C20.6963 14.1434 20.8343 14.1143 20.9463 14.0918C20.9805 13.7387 21 13.3749 21 13C21 12.9847 20.9981 12.9694 20.998 12.9541C20.893 12.9437 20.7681 12.9314 20.625 12.918C20.1313 12.8717 19.4202 12.809 18.5537 12.7471C17.938 12.7031 17.2446 12.6623 16.4961 12.624C16.4977 12.7489 16.5 12.8742 16.5 13ZM7.85742 8.50488C7.2328 8.6447 6.64223 8.80025 6.10547 8.95898C5.2885 9.20059 4.60702 9.4418 4.13184 9.62207C3.89444 9.71213 3.70932 9.78754 3.58496 9.83887C3.57971 9.84103 3.57437 9.84266 3.56934 9.84473C3.4388 10.1933 3.33015 10.5523 3.24316 10.9199C3.74645 10.8732 4.45231 10.8137 5.30371 10.7529C5.98367 10.7044 6.75803 10.6587 7.59766 10.6172C7.65811 9.88334 7.74446 9.17604 7.85742 8.50488ZM16.1416 8.50488C16.2546 9.17606 16.3409 9.88331 16.4014 10.6172C17.2414 10.6587 18.0161 10.7043 18.6963 10.7529C19.5471 10.8137 20.2526 10.8732 20.7559 10.9199C20.6689 10.5523 20.5602 10.1934 20.4297 9.84473C20.4249 9.84276 20.42 9.84091 20.415 9.83887C20.2907 9.78754 20.1056 9.71213 19.8682 9.62207C19.393 9.4418 18.7115 9.20059 17.8945 8.95898C17.3575 8.80017 16.7666 8.64475 16.1416 8.50488ZM12 8C11.3192 8 10.6336 8.04927 9.96191 8.13281C9.81001 8.86949 9.69063 9.67648 9.61133 10.5361C10.3827 10.5141 11.1846 10.5 12 10.5C12.8151 10.5 13.6166 10.5141 14.3877 10.5361C14.3084 9.67644 14.189 8.86952 14.0371 8.13281C13.3657 8.04934 12.6805 8 12 8ZM9.0293 4.50293C7.51091 5.03374 6.17893 5.95995 5.15527 7.1582C5.27987 7.11955 5.40771 7.07986 5.53906 7.04102C6.35584 6.79949 7.30945 6.55663 8.33691 6.36523C8.41359 6.0995 8.49527 5.84373 8.58105 5.59863C8.71604 5.21296 8.8658 4.84566 9.0293 4.50293ZM14.9697 4.50293C15.1333 4.84577 15.2839 5.21281 15.4189 5.59863C15.5047 5.84365 15.5855 6.0996 15.6621 6.36523C16.6899 6.55665 17.6439 6.79941 18.4609 7.04102C18.592 7.07977 18.7194 7.11964 18.8438 7.1582C17.82 5.95996 16.4883 5.03362 14.9697 4.50293ZM12 4C11.9337 4 11.7287 4.03652 11.4082 4.42383C11.1181 4.77442 10.8164 5.32033 10.54 6.0625C11.0224 6.02236 11.5108 6 12 6C12.4889 6 12.9769 6.02241 13.459 6.0625C13.1827 5.32049 12.8818 4.77437 12.5918 4.42383C12.2713 4.03652 12.0663 4 12 4Z" fill="#9E9E9E"/>
</g>
</svg>
