<svg width="24" height="24" viewBox="0 0 24 24" fill="none" xmlns="http://www.w3.org/2000/svg">
<g id="icons/Build/dubai">
<path id="Union" d="M7 1C7.55228 1 8 1.44772 8 2V2.26758C8.00962 2.27287 8.01926 2.27862 8.0293 2.28418C8.22664 2.39359 8.50787 2.55414 8.85059 2.75977C9.53522 3.17055 10.4697 3.76708 11.4707 4.50977C12.2359 5.07751 13.0608 5.74743 13.8496 6.5H16C16.5523 6.5 17 6.94772 17 7.5C17 8.05228 16.5523 8.5 16 8.5H15.6523C16.1526 9.16155 16.5884 9.86102 16.9141 10.5938C18.0111 13.0622 18.126 16.0036 17.998 18.2441C17.9354 19.3406 17.8117 20.3002 17.7012 21H22C22.5523 21 23 21.4477 23 22C23 22.5523 22.5523 23 22 23H2C1.44772 23 1 22.5523 1 22C1 21.4477 1.44772 21 2 21H6V8.5H5C4.44772 8.5 4 8.05228 4 7.5C4 6.94772 4.44772 6.5 5 6.5H6V2C6 1.44772 6.44772 1 7 1ZM8 10H11C11.5523 10 12 10.4477 12 11C12 11.5523 11.5523 12 11 12H8V13.5H13C13.5523 13.5 14 13.9477 14 14.5C14 15.0523 13.5523 15.5 13 15.5H8V17H13.5C14.0523 17 14.5 17.4477 14.5 18C14.5 18.5523 14.0523 19 13.5 19H8V21H15.6719C15.6851 20.923 15.7019 20.8416 15.7158 20.7549C15.8211 20.1009 15.9418 19.1828 16.002 18.1309C16.1239 15.9964 15.9888 13.4377 15.0859 11.4062C14.634 10.3895 13.8933 9.40689 13.0244 8.5H8V10ZM8 6.5H10.7842C10.6155 6.36855 10.4472 6.23984 10.2793 6.11523C9.42718 5.48302 8.6227 4.96349 8 4.58398V6.5Z" fill="#9E9E9E"/>
</g>
</svg>
