<svg width="24" height="24" viewBox="0 0 24 24" fill="none" xmlns="http://www.w3.org/2000/svg">
<g id="icons/Build/eiffel-tower">
<path id="Union" d="M12 1C12.5523 1 13 1.44772 13 2V3H14C14.5523 3 15 3.44772 15 4C15 4.36367 14.8049 4.68046 14.5146 4.85547C14.5628 6.32618 14.7332 7.89354 15.0205 9.5H15.5C16.0523 9.5 16.5 9.94771 16.5 10.5C16.5 11.0523 16.0523 11.5 15.5 11.5H15.4346C15.6302 12.332 15.8563 13.1678 16.1113 14H17C17.5523 14 18 14.4477 18 15C18 15.5523 17.5523 16 17 16H16.7842C17.4221 17.735 18.1878 19.4261 19.0771 21H22C22.5523 21 23 21.4477 23 22C23 22.5523 22.5523 23 22 23H2C1.44772 23 1 22.5523 1 22C1 21.4477 1.44772 21 2 21H4.92285C5.81223 19.4261 6.57792 17.735 7.21582 16H7C6.44772 16 6 15.5523 6 15C6 14.4477 6.44772 14 7 14H7.88867C8.1437 13.1678 8.36983 12.332 8.56543 11.5H8.5C7.94772 11.5 7.5 11.0523 7.5 10.5C7.5 9.94771 7.94772 9.5 8.5 9.5H8.97949C9.2668 7.89355 9.43622 6.32617 9.48438 4.85547C9.19448 4.68036 9 4.36337 9 4C9 3.44772 9.44771 3 10 3H11V2C11 1.44772 11.4477 1 12 1ZM9.33984 16C8.74357 17.7187 8.02782 19.4052 7.19727 21H8.29102C8.31104 20.9486 8.33022 20.8949 8.35254 20.8408C8.53278 20.4042 8.8448 19.7411 9.29297 19.293C9.80347 18.7825 10.5603 18 12 18C13.4397 18 14.1965 18.7825 14.707 19.293C15.1901 19.7761 15.501 20.4307 15.6807 20.8809C15.6967 20.9211 15.7099 20.9614 15.7246 21H16.8027C15.9722 19.4052 15.2564 17.7187 14.6602 16H9.33984ZM12 20C11.4397 20 11.1965 20.2175 10.707 20.707C10.6433 20.7708 10.5731 20.8723 10.498 21H13.5127C13.44 20.8832 13.3678 20.7819 13.293 20.707C12.8035 20.2175 12.5603 20 12 20ZM10.6182 11.5C10.433 12.3311 10.2184 13.1665 9.97656 14H14.0234C13.7816 13.1665 13.567 12.3311 13.3818 11.5H10.6182ZM11.4814 5C11.4306 6.43487 11.2712 7.94966 11.0088 9.5H12.9912C12.7288 7.94966 12.5694 6.43487 12.5186 5H11.4814Z" fill="#9E9E9E"/>
</g>
</svg>
