<svg width="24" height="24" viewBox="0 0 24 24" fill="none" xmlns="http://www.w3.org/2000/svg">
<g id="icons/Build/elevator">
<path id="Union" d="M22 2.5C22.5523 2.5 23 2.94772 23 3.5C23 4.05228 22.5523 4.5 22 4.5V19.5C22.5523 19.5 23 19.9477 23 20.5C23 21.0523 22.5523 21.5 22 21.5H2C1.44772 21.5 1 21.0523 1 20.5C1 19.9477 1.44772 19.5 2 19.5V4.5C1.44772 4.5 1 4.05228 1 3.5C1 2.94772 1.44772 2.5 2 2.5H22ZM4 19.5H11V4.5H4V19.5ZM13 19.5H20V4.5H13V19.5ZM7.5 9C8.05228 9 8.5 9.44772 8.5 10V11.6348C8.88246 11.4134 9.37971 11.4656 9.70703 11.793C10.0976 12.1835 10.0976 12.8165 9.70703 13.207L8.20703 14.707C8.15922 14.7548 8.10646 14.7976 8.0498 14.835C8.01207 14.8599 7.97268 14.8811 7.93262 14.9004C7.8874 14.9222 7.84068 14.9412 7.79199 14.9561C7.77169 14.9622 7.75105 14.9668 7.73047 14.9717C7.71911 14.9744 7.7078 14.9772 7.69629 14.9795C7.68593 14.9816 7.67545 14.9826 7.66504 14.9844C7.61125 14.9933 7.55633 15 7.5 15C7.44333 15 7.38808 14.9934 7.33398 14.9844C7.32358 14.9826 7.31309 14.9816 7.30273 14.9795C7.29123 14.9772 7.27991 14.9744 7.26855 14.9717C7.24799 14.9668 7.22732 14.9623 7.20703 14.9561C7.15838 14.9412 7.11159 14.9222 7.06641 14.9004C7.02662 14.8812 6.98768 14.8597 6.9502 14.835C6.89354 14.7976 6.84078 14.7548 6.79297 14.707L5.29297 13.207C4.90244 12.8165 4.90244 12.1835 5.29297 11.793C5.62029 11.4656 6.11754 11.4134 6.5 11.6348V10C6.5 9.44772 6.94772 9 7.5 9ZM16.5205 9.00098C16.5381 9.00133 16.5557 9.00165 16.5732 9.00293C16.6225 9.0065 16.6707 9.01396 16.7178 9.02441C16.7269 9.02645 16.736 9.02895 16.7451 9.03125C16.8141 9.04866 16.8799 9.07357 16.9424 9.10449C16.9746 9.12042 17.0064 9.13761 17.0371 9.15723C17.0714 9.17913 17.1045 9.20271 17.1357 9.22852C17.1602 9.24873 17.1841 9.27007 17.207 9.29297L18.707 10.793C19.0976 11.1835 19.0976 11.8165 18.707 12.207C18.3796 12.5345 17.8825 12.5859 17.5 12.3643V14C17.5 14.5523 17.0523 15 16.5 15C15.9477 15 15.5 14.5523 15.5 14V12.3643C15.1175 12.5859 14.6204 12.5345 14.293 12.207C13.9024 11.8165 13.9024 11.1835 14.293 10.793L15.793 9.29297C15.8548 9.23117 15.9248 9.17778 16.001 9.13379C16.0154 9.12546 16.0302 9.1179 16.0449 9.11035C16.1073 9.0784 16.1731 9.05257 16.2422 9.03418C16.2588 9.02976 16.2753 9.02503 16.292 9.02148C16.303 9.01916 16.3141 9.01758 16.3252 9.01562C16.3427 9.01252 16.3603 9.00998 16.3779 9.00781C16.3957 9.00565 16.4136 9.00415 16.4316 9.00293C16.4476 9.00184 16.4635 9.00131 16.4795 9.00098C16.4863 9.00084 16.4931 9 16.5 9C16.5069 9 16.5137 9.00084 16.5205 9.00098Z" fill="#9E9E9E"/>
</g>
</svg>
