<svg width="24" height="24" viewBox="0 0 24 24" fill="none" xmlns="http://www.w3.org/2000/svg">
<g id="icons/Build/escalators">
<path id="Union" d="M22 5.5C22.5523 5.5 23 5.94772 23 6.5V11C23 11.5523 22.5523 12 22 12H17.9141L7.20703 22.707C7.0195 22.8946 6.76522 23 6.5 23H2C1.44772 23 1 22.5523 1 22V17.5C1 16.9477 1.44772 16.5 2 16.5H6.08594L16.793 5.79297L16.8662 5.72656C17.0442 5.58073 17.2679 5.5 17.5 5.5H22ZM7.20703 18.207C7.0195 18.3946 6.76522 18.5 6.5 18.5H3V21H6.08594L16.793 10.293L16.8662 10.2266C17.0442 10.0807 17.2679 10 17.5 10H21V7.5H17.9141L7.20703 18.207ZM6.29297 8.29297C6.68349 7.90244 7.31651 7.90244 7.70703 8.29297C8.09756 8.68349 8.09756 9.31651 7.70703 9.70703L4.91406 12.5H5.5C6.05228 12.5 6.5 12.9477 6.5 13.5C6.5 14.0523 6.05228 14.5 5.5 14.5H2.5C2.44333 14.5 2.38808 14.4934 2.33398 14.4844C2.32358 14.4826 2.31309 14.4816 2.30273 14.4795C2.29123 14.4772 2.27991 14.4744 2.26855 14.4717C2.24799 14.4668 2.22732 14.4623 2.20703 14.4561C2.15838 14.4412 2.11159 14.4222 2.06641 14.4004C2.02662 14.3812 1.98768 14.3597 1.9502 14.335C1.81255 14.2441 1.69887 14.1203 1.62012 13.9746C1.61269 13.9609 1.60634 13.9466 1.59961 13.9326C1.5778 13.8873 1.55783 13.8408 1.54297 13.792C1.5303 13.7503 1.52176 13.7077 1.51465 13.665C1.50571 13.6113 1.5 13.5563 1.5 13.5V10.5C1.5 9.94771 1.94772 9.5 2.5 9.5C3.05228 9.5 3.5 9.94771 3.5 10.5V11.0859L6.29297 8.29297ZM14 1C14.0563 1 14.1113 1.00571 14.165 1.01465C14.1738 1.01611 14.1827 1.01686 14.1914 1.01855L14.2012 1.02051C14.211 1.02252 14.2207 1.02504 14.2305 1.02734C14.251 1.0322 14.2717 1.0368 14.292 1.04297C14.3408 1.05783 14.3873 1.0778 14.4326 1.09961C14.4466 1.10634 14.4609 1.11269 14.4746 1.12012C14.6203 1.19887 14.7441 1.31255 14.835 1.4502C14.8597 1.48768 14.8812 1.52662 14.9004 1.56641C14.9222 1.61159 14.9412 1.65838 14.9561 1.70703C14.9623 1.72732 14.9668 1.74799 14.9717 1.76855C14.9893 1.84294 15 1.92022 15 2V5C15 5.55228 14.5523 6 14 6C13.4477 6 13 5.55228 13 5V4.41406L10.207 7.20703C9.81651 7.59756 9.18349 7.59756 8.79297 7.20703C8.40244 6.81651 8.40244 6.18349 8.79297 5.79297L11.5859 3H11C10.4477 3 10 2.55228 10 2C10 1.44772 10.4477 1 11 1H14Z" fill="#9E9E9E"/>
</g>
</svg>
