<svg width="24" height="24" viewBox="0 0 24 24" fill="none" xmlns="http://www.w3.org/2000/svg">
<g id="icons/Build/factory-building">
<path id="Union" d="M6 1C6.55228 1 7 1.44772 7 2V8.38184L13.5527 5.10547C13.8626 4.95051 14.2306 4.96733 14.5254 5.14941C14.8202 5.33162 15 5.65342 15 6V8.38184L21.5527 5.10547C21.8626 4.95051 22.2306 4.96733 22.5254 5.14941C22.8202 5.33162 23 5.65342 23 6V22C23 22.5523 22.5523 23 22 23H2C1.44772 23 1 22.5523 1 22V2C1 1.44772 1.44772 1 2 1H6ZM3 21H21V7.61816L14.4473 10.8945C14.1374 11.0495 13.7694 11.0327 13.4746 10.8506C13.1798 10.6684 13 10.3466 13 10V7.61816L6.44727 10.8945C6.13735 11.0495 5.76939 11.0327 5.47461 10.8506C5.17979 10.6684 5 10.3466 5 10V3H3V21ZM10 13C10.5523 13 11 13.4477 11 14V18C11 18.5523 10.5523 19 10 19H6C5.44772 19 5 18.5523 5 18V14C5 13.4477 5.44772 13 6 13H10ZM18 13C18.5523 13 19 13.4477 19 14V18C19 18.5523 18.5523 19 18 19H14C13.4477 19 13 18.5523 13 18V14C13 13.4477 13.4477 13 14 13H18ZM7 17H9V15H7V17ZM15 17H17V15H15V17Z" fill="#9E9E9E"/>
</g>
</svg>
