<svg width="24" height="24" viewBox="0 0 24 24" fill="none" xmlns="http://www.w3.org/2000/svg">
<g id="icons/Build/fence-two">
<path id="Union" d="M19.5 1C20.0523 1 20.5 1.44772 20.5 2V3.5H21C21.5523 3.5 22 3.94772 22 4.5C22 5.05228 21.5523 5.5 21 5.5H20.5V17.5H21C21.5523 17.5 22 17.9477 22 18.5C22 19.0523 21.5523 19.5 21 19.5H20.5V21H21C21.5523 21 22 21.4477 22 22C22 22.5523 21.5523 23 21 23H3C2.44772 23 2 22.5523 2 22C2 21.4477 2.44772 21 3 21H3.5V19.5H3C2.44772 19.5 2 19.0523 2 18.5C2 17.9477 2.44772 17.5 3 17.5H3.5V5.5H3C2.44772 5.5 2 5.05228 2 4.5C2 3.94772 2.44772 3.5 3 3.5H3.5V2C3.5 1.44772 3.94772 1 4.5 1C5.05228 1 5.5 1.44772 5.5 2V3.5H18.5V2C18.5 1.44772 18.9477 1 19.5 1ZM5.5 21H18.5V19.5H5.5V21ZM5.5 5.5V17.5H7V5.5H5.5ZM9 5.5V17.5H11V5.5H9ZM13 5.5V17.5H15V5.5H13ZM17 5.5V17.5H18.5V5.5H17Z" fill="#9E9E9E"/>
</g>
</svg>
