<svg width="24" height="24" viewBox="0 0 24 24" fill="none" xmlns="http://www.w3.org/2000/svg">
<g id="icons/Build/fence-one">
<path id="Union" d="M20 1C20.5523 1 21 1.44772 21 2V5H22C22.5523 5 23 5.44772 23 6C23 6.55228 22.5523 7 22 7H21V21H22C22.5523 21 23 21.4477 23 22C23 22.5523 22.5523 23 22 23H2C1.44772 23 1 22.5523 1 22C1 21.4477 1.44772 21 2 21H3V7H2C1.44772 7 1 6.55228 1 6C1 5.44772 1.44772 5 2 5H3V2C3 1.44772 3.44772 1 4 1C4.55228 1 5 1.44772 5 2V5H19V2C19 1.44772 19.4477 1 20 1ZM6.41406 21H10.0859L10.5859 20.5L8.75 18.6641L6.41406 21ZM13.4141 20.5L13.9141 21H17.5859L15.25 18.6641L13.4141 20.5ZM5 15.8975V19.5859L7.33594 17.25L5.47852 15.3926L5 15.8975ZM16.6641 17.25L19 19.5859V15.9141L18.5 15.4141L16.6641 17.25ZM10.1641 17.25L12 19.0859L13.8359 17.25L12 15.4141L10.1641 17.25ZM6.85352 13.9395L8.75 15.8359L10.5859 14L8.64062 12.0547L6.85352 13.9395ZM13.4141 14L15.25 15.8359L17.0859 14L15.25 12.1641L13.4141 14ZM10.0166 10.6025L12 12.5859L13.8359 10.75L11.8027 8.7168L10.0166 10.6025ZM16.6641 10.75L18.5 12.5859L19 12.0859V8.41406L16.6641 10.75ZM5 12.0859L5.43945 12.5254L7.22656 10.6406L5 8.41406V12.0859ZM13.1787 7.26465L15.25 9.33594L17.5859 7H13.4297L13.1787 7.26465ZM8.60156 9.1875L10.3887 7.30273L10.0859 7H6.41406L8.60156 9.1875Z" fill="#9E9E9E"/>
</g>
</svg>
