<svg width="24" height="24" viewBox="0 0 24 24" fill="none" xmlns="http://www.w3.org/2000/svg">
<g id="icons/Build/ferris-wheel">
<path id="Union" d="M12 1C13.1547 1 14.1229 1.78379 14.4102 2.84766C15.3815 3.13453 16.2796 3.59012 17.0713 4.17969C17.3586 4.06461 17.6716 4 18 4C19.3807 4 20.5 5.11929 20.5 6.5C20.5 7.08096 20.2992 7.6136 19.9668 8.03809C20.3102 8.96153 20.5 9.95939 20.5 11C20.5 11.1648 20.4937 11.3285 20.4844 11.4912C21.0997 11.9466 21.5 12.6757 21.5 13.5C21.5 14.8807 20.3807 16 19 16C18.9584 16 18.9171 15.9952 18.876 15.9932C18.4982 16.5126 18.0636 16.9878 17.5801 17.4092L20.0283 21H21C21.5523 21 22 21.4477 22 22C22 22.5523 21.5523 23 21 23H17C16.4477 23 16 22.5523 16 22C16 21.4477 16.4477 21 17 21H17.6074L15.9277 18.5361C15.4473 18.787 14.9403 18.9931 14.4111 19.1494C14.1249 20.2148 13.1558 21 12 21C10.8438 21 9.87374 20.2144 9.58789 19.1484C9.05871 18.9921 8.5517 18.7861 8.07129 18.5352L6.3916 21H7C7.55228 21 8 21.4477 8 22C8 22.5523 7.55228 23 7 23H3C2.44772 23 2 22.5523 2 22C2 21.4477 2.44772 21 3 21H3.97168L6.41895 17.4092C5.93555 16.988 5.50172 16.5124 5.12402 15.9932C5.08287 15.9952 5.04165 16 5 16C3.61929 16 2.5 14.8807 2.5 13.5C2.5 12.676 2.89973 11.9467 3.51465 11.4912C3.50528 11.3285 3.50001 11.1648 3.5 11C3.5 9.95953 3.68769 8.96074 4.03125 8.03711C3.69956 7.61287 3.5 7.08025 3.5 6.5C3.5 5.11929 4.61929 4 6 4C6.32761 4 6.64005 4.06414 6.92676 4.17871C7.71844 3.58913 8.61746 3.13457 9.58887 2.84766C9.87604 1.78366 10.8452 1 12 1ZM12 18C11.7239 18 11.5 18.2239 11.5 18.5C11.5 18.7761 11.7239 19 12 19C12.2761 19 12.5 18.7761 12.5 18.5C12.5 18.2239 12.2761 18 12 18ZM9.20801 16.8682C9.43126 16.9746 9.66116 17.0687 9.89746 17.1494C10.3423 16.4584 11.1171 16 12 16C12.8827 16 13.6567 16.4586 14.1016 17.1494C14.3378 17.0687 14.5678 16.9755 14.791 16.8691L12.1475 12.9922C12.0987 12.9957 12.0497 13 12 13C11.9497 13 11.9 12.9949 11.8506 12.9912L9.20801 16.8682ZM14.1016 4.84863C13.6569 5.54018 12.8833 6 12 6C11.1165 6 10.3421 5.54043 9.89746 4.84863C9.34093 5.03848 8.81739 5.30039 8.33984 5.62598C8.44162 5.89832 8.5 6.19215 8.5 6.5C8.5 7.88071 7.38071 9 6 9C5.93818 9 5.8771 8.99465 5.81641 8.99023C5.61128 9.62226 5.5 10.2975 5.5 11C5.5 11.0166 5.50085 11.0332 5.50098 11.0498C6.64165 11.2818 7.5 12.2908 7.5 13.5C7.5 14.0977 7.28844 14.6451 6.93848 15.0752C7.12889 15.3113 7.33566 15.5331 7.55664 15.7402L10.1982 11.8652C10.0722 11.6032 10 11.3102 10 11C10 9.89543 10.8954 9 12 9C13.1046 9 14 9.89543 14 11C14 11.3105 13.9261 11.603 13.7998 11.8652L16.4424 15.7412C16.6634 15.5341 16.8711 15.3132 17.0615 15.0771C16.711 14.6468 16.5 14.0983 16.5 13.5C16.5 12.2912 17.3578 11.2821 18.498 11.0498C18.4982 11.0332 18.5 11.0166 18.5 11C18.5 10.2975 18.3869 9.62259 18.1816 8.99023C18.1216 8.99455 18.0612 9 18 9C16.6193 9 15.5 7.88071 15.5 6.5C15.5 6.19292 15.5579 5.89971 15.6592 5.62793C15.1815 5.30194 14.6584 5.03871 14.1016 4.84863ZM5 13C4.72386 13 4.5 13.2239 4.5 13.5C4.5 13.7761 4.72386 14 5 14C5.27614 14 5.5 13.7761 5.5 13.5C5.5 13.2239 5.27614 13 5 13ZM19 13C18.7239 13 18.5 13.2239 18.5 13.5C18.5 13.7761 18.7239 14 19 14C19.2761 14 19.5 13.7761 19.5 13.5C19.5 13.2239 19.2761 13 19 13ZM6 6C5.72386 6 5.5 6.22386 5.5 6.5C5.5 6.77614 5.72386 7 6 7C6.27614 7 6.5 6.77614 6.5 6.5C6.5 6.22386 6.27614 6 6 6ZM18 6C17.7239 6 17.5 6.22386 17.5 6.5C17.5 6.77614 17.7239 7 18 7C18.2761 7 18.5 6.77614 18.5 6.5C18.5 6.22386 18.2761 6 18 6ZM12 3C11.7239 3 11.5 3.22386 11.5 3.5C11.5 3.77614 11.7239 4 12 4C12.2761 4 12.5 3.77614 12.5 3.5C12.5 3.22386 12.2761 3 12 3Z" fill="#9E9E9E"/>
</g>
</svg>
