<svg width="24" height="24" viewBox="0 0 24 24" fill="none" xmlns="http://www.w3.org/2000/svg">
<g id="icons/Build/future-build-two">
<path id="Union" d="M12.25 1C14.1645 1 15.9285 1.1714 17.2402 1.46289C17.8879 1.60683 18.4799 1.79238 18.9346 2.03125C19.1609 2.15015 19.4025 2.30746 19.5986 2.52051C19.7997 2.73895 20 3.07055 20 3.5C20 3.92945 19.7997 4.26105 19.5986 4.47949C19.4025 4.69254 19.1609 4.84985 18.9346 4.96875C18.4799 5.20762 17.8879 5.39317 17.2402 5.53711C17.0667 5.57568 16.885 5.61126 16.6963 5.64551C16.4993 6.0993 16.2328 6.73434 15.9541 7.46094C15.3865 8.94108 14.7972 10.7265 14.6035 12.1357C14.3519 13.9663 14.4401 16.3761 14.6025 18.377C14.6829 19.3671 14.7797 20.2389 14.8564 20.8623C14.8623 20.9097 14.8684 20.9556 14.874 21H22C22.5523 21 23 21.4477 23 22C23 22.5523 22.5523 23 22 23H2C1.44772 23 1 22.5523 1 22C1 21.4477 1.44772 21 2 21H9.14062C9.1477 20.9504 9.15563 20.899 9.16309 20.8457C9.25018 20.2229 9.36088 19.3524 9.45508 18.3633C9.64556 16.363 9.76033 13.959 9.50977 12.1357C9.31604 10.7265 8.72586 8.94109 8.1582 7.46094C7.87835 6.73123 7.61124 6.09379 7.41406 5.63965C7.40229 5.61253 7.39017 5.58632 7.37891 5.56055C7.33896 5.55206 7.29891 5.54581 7.25977 5.53711C6.61212 5.39317 6.02008 5.20762 5.56543 4.96875C5.33913 4.84985 5.09755 4.69254 4.90137 4.47949C4.70028 4.26105 4.5 3.92945 4.5 3.5C4.5 3.07055 4.70028 2.73895 4.90137 2.52051C5.09755 2.30746 5.33913 2.15015 5.56543 2.03125C6.02008 1.79238 6.61212 1.60683 7.25977 1.46289C8.57149 1.1714 10.3355 1 12.25 1ZM10.0264 6.74512C10.6036 8.25016 11.2636 10.215 11.4902 11.8643C11.7739 13.9291 11.6394 16.5252 11.4463 18.5527C11.3547 19.514 11.2465 20.366 11.1592 21H12.8604C12.7833 20.365 12.688 19.5077 12.6094 18.5391C12.4448 16.5121 12.3394 13.9217 12.6221 11.8643C12.8487 10.215 13.5097 8.25017 14.0869 6.74512C14.1982 6.45492 14.309 6.17953 14.4131 5.92285C13.7272 5.9724 13.0002 6 12.25 6C11.352 6 10.4872 5.96075 9.68652 5.89062C9.79455 6.15645 9.91038 6.44267 10.0264 6.74512ZM12.25 3C10.4368 3 8.8256 3.1637 7.69434 3.41504C7.57061 3.44253 7.45497 3.47179 7.34766 3.5C7.45497 3.52821 7.57061 3.55747 7.69434 3.58496C8.8256 3.8363 10.4368 4 12.25 4C14.0632 4 15.6744 3.8363 16.8057 3.58496C16.929 3.55754 17.0443 3.52813 17.1514 3.5C17.0443 3.47187 16.929 3.44246 16.8057 3.41504C15.6744 3.1637 14.0632 3 12.25 3Z" fill="#9E9E9E"/>
</g>
</svg>
