<svg width="24" height="24" viewBox="0 0 24 24" fill="none" xmlns="http://www.w3.org/2000/svg">
<g id="icons/Build/future-build-three">
<path id="Union" d="M11.3691 1.22461C11.7619 0.904259 12.3409 0.926853 12.707 1.29297L14.707 3.29297C14.8945 3.48049 15 3.73484 15 4V5.58594L18.707 9.29297C18.8945 9.48049 19 9.73484 19 10V13.5234L22.6309 16.4736C22.8645 16.6635 23 16.9489 23 17.25V22C22.9999 22.5522 22.5522 23 22 23H2C1.44779 23 1.00013 22.5522 1 22V17.5C1 17.2117 1.12485 16.937 1.3418 16.7471L5 13.5459V10L5.00488 9.90137C5.02757 9.67242 5.12889 9.4571 5.29297 9.29297L9 5.58594V4L9.00488 3.90137C9.02757 3.67242 9.12889 3.4571 9.29297 3.29297L11.293 1.29297L11.3691 1.22461ZM3 17.9531V21H5V16.2031L3 17.9531ZM7 10.4141V21H9V8.41406L7 10.4141ZM11 4.41406V21H13V4.41406L12 3.41406L11 4.41406ZM15 21H17V10.4141L15 8.41406V21ZM19 21H21V17.7256L19 16.1006V21Z" fill="#9E9E9E"/>
</g>
</svg>
