<svg width="24" height="24" viewBox="0 0 24 24" fill="none" xmlns="http://www.w3.org/2000/svg">
<g id="icons/Build/future-build-one">
<path id="Union" d="M12 1C12.5523 1 13 1.44772 13 2V2.15039C13.1244 2.30943 13.2948 2.53135 13.498 2.80469C13.9302 3.38603 14.5128 4.20585 15.1162 5.16016C15.8923 6.38759 16.738 7.89609 17.3252 9.43555C17.4182 9.5712 17.4786 9.73078 17.4951 9.90332C17.7208 10.5591 17.8954 11.2153 17.9893 11.8545C18.2903 13.9064 17.8768 16.5616 17.4316 18.6064C17.2301 19.532 17.0138 20.3624 16.8369 21H22C22.5523 21 23 21.4477 23 22C23 22.5523 22.5523 23 22 23H2C1.44772 23 1 22.5523 1 22C1 21.4477 1.44772 21 2 21H7.16211C6.98537 20.3624 6.76987 19.532 6.56836 18.6064C6.12316 16.5616 5.70962 13.9064 6.01074 11.8545C6.10455 11.2154 6.27841 10.559 6.50391 9.90332C6.52036 9.7317 6.58073 9.5727 6.67285 9.4375C7.25978 7.89725 8.10631 6.38817 8.88281 5.16016C9.48636 4.20567 10.0697 3.38606 10.502 2.80469C10.7051 2.53137 10.8756 2.30942 11 2.15039V2C11 1.44772 11.4477 1 12 1ZM8.96289 20C9.02965 20.252 9.09245 20.4828 9.15039 20.6875C9.18224 20.8 9.21423 20.9042 9.24219 21H14.7568C14.7848 20.9042 14.8168 20.8 14.8486 20.6875C14.9066 20.4829 14.9692 20.252 15.0361 20H8.96289ZM8.28906 17C8.35058 17.338 8.41579 17.6728 8.48535 18H15.5146C15.5842 17.6728 15.6494 17.338 15.7109 17H8.28906ZM7.92188 14C7.93648 14.3256 7.96132 14.6604 7.99609 15H16.0039C16.0387 14.6604 16.0635 14.3256 16.0781 14H7.92188ZM8.25 11C8.14836 11.3412 8.06954 11.676 8.01465 12H15.9854C15.9304 11.6759 15.8508 11.3413 15.749 11H8.25ZM9.53711 8C9.36014 8.33022 9.19123 8.66481 9.0332 9H14.9668C14.8087 8.66485 14.6399 8.33019 14.4629 8H9.53711ZM11.999 4.14355C11.6396 4.6322 11.1903 5.27062 10.7207 6H13.2773C12.8076 5.27063 12.3584 4.63215 11.999 4.14355Z" fill="#9E9E9E"/>
</g>
</svg>
