<svg width="24" height="24" viewBox="0 0 24 24" fill="none" xmlns="http://www.w3.org/2000/svg">
<g id="icons/Build/garage">
<path id="Union" d="M21 1.5C21.5523 1.5 22 1.94772 22 2.5V21.5C22 22.0523 21.5523 22.5 21 22.5H3C2.44772 22.5 2 22.0523 2 21.5V2.5C2 1.94772 2.44772 1.5 3 1.5H21ZM4 20.5H7V10H6C5.44772 10 5 9.55229 5 9V6C5 5.44772 5.44772 5 6 5H18C18.5523 5 19 5.44772 19 6V9C19 9.55229 18.5523 10 18 10H17V20.5H20V3.5H4V20.5ZM9 19V20.5H15V19H9ZM9 17H15V16H9V17ZM9 14H15V13H9V14ZM9 11H15V10H9V11ZM7 8H17V7H7V8Z" fill="#9E9E9E"/>
</g>
</svg>
