<svg width="24" height="24" viewBox="0 0 24 24" fill="none" xmlns="http://www.w3.org/2000/svg">
<g id="icons/Build/gate">
<path id="Union" d="M21.4103 1.00391C21.7936 0.969394 22.1628 1.15844 22.3595 1.48926C22.5561 1.8201 22.5456 2.23442 22.3322 2.55469L20.3322 5.55469C20.1467 5.83284 19.8344 5.99995 19.5001 6H18.5001V8H20.0001C20.5523 8.00008 21 8.44783 21.0001 9C21.0001 9.55223 20.5523 9.99992 20.0001 10H18.5001V16.5H19.0001C19.5523 16.5001 20 16.9478 20.0001 17.5V22C20.0001 22.5522 19.5523 22.9999 19.0001 23H16.0001C15.4478 23 15.0001 22.5523 15.0001 22V17.5C15.0002 16.9478 15.4479 16.5 16.0001 16.5H16.5001V10H7.50012V16.5H8.00012C8.55229 16.5001 9.00004 16.9478 9.00012 17.5V22C9.00012 22.5522 8.55234 22.9999 8.00012 23H5.00012C4.44784 23 4.00012 22.5523 4.00012 22V17.5C4.0002 16.9478 4.44789 16.5 5.00012 16.5H5.50012V10H4.00012C3.44784 10 3.00012 9.55229 3.00012 9C3.0002 8.44778 3.44789 8 4.00012 8H5.50012V6H4.50012C4.16577 6 3.85356 5.83288 3.66809 5.55469L1.66809 2.55469C1.45458 2.2344 1.44409 1.82015 1.64075 1.48926C1.83752 1.15847 2.20663 0.969331 2.58997 1.00391C2.5907 1.00393 2.59271 1.0038 2.59387 1.00391C2.59631 1.00416 2.59993 1.00544 2.60461 1.00586C2.61487 1.00677 2.63119 1.00797 2.65149 1.00977C2.69225 1.01336 2.75281 1.01866 2.83118 1.02539C2.98862 1.03892 3.2187 1.05779 3.50696 1.08105C4.0842 1.12763 4.8962 1.18983 5.8302 1.25195C7.7033 1.37653 10.0518 1.5 12.0001 1.5C13.9485 1.49999 16.297 1.37653 18.17 1.25195C19.1041 1.18983 19.9161 1.12763 20.4933 1.08105C20.7816 1.05779 21.0116 1.03892 21.1691 1.02539C21.2474 1.01866 21.308 1.01336 21.3488 1.00977C21.3691 1.00797 21.3854 1.00677 21.3956 1.00586C21.4003 1.00542 21.404 1.00412 21.4064 1.00391C21.4076 1.00382 21.4097 1.00396 21.4103 1.00391ZM6.00012 21H7.00012V18.5H6.00012V21ZM17.0001 21H18.0001V18.5H17.0001V21ZM7.50012 8H11.0001V6H7.50012V8ZM13.0001 8H16.5001V6H13.0001V8ZM18.3029 3.24805C16.4173 3.37345 14.016 3.49999 12.0001 3.5C9.98424 3.5 7.58297 3.37345 5.69739 3.24805C5.25991 3.21895 4.84872 3.18867 4.47571 3.16113L5.03528 4H18.965L19.5236 3.16113C19.1508 3.18865 18.7399 3.21898 18.3029 3.24805Z" fill="#9E9E9E"/>
</g>
</svg>
