<svg width="24" height="24" viewBox="0 0 24 24" fill="none" xmlns="http://www.w3.org/2000/svg">
<g id="icons/Build/great-wall">
<path id="Union" d="M6 3.5C6.55228 3.5 7 3.94772 7 4.5V7H9V4.5C9 3.94772 9.44771 3.5 10 3.5H14C14.5523 3.5 15 3.94772 15 4.5V7H17V4.5C17 3.94772 17.4477 3.5 18 3.5H22C22.5523 3.5 23 3.94772 23 4.5V20C23 20.5523 22.5523 21 22 21H2C1.44772 21 1 20.5523 1 20V4.5C1 3.94772 1.44772 3.5 2 3.5H6ZM3 19H7V17H3V19ZM9 19H15V17H9V19ZM17 19H21V17H17V19ZM3 15H11V13H3V15ZM13 15H21V13H13V15ZM3 11H7V9H6C5.44772 9 5 8.55228 5 8V5.5H3V11ZM19 8C19 8.55228 18.5523 9 18 9H17V11H21V5.5H19V8ZM11 8C11 8.55228 10.5523 9 10 9H9V11H15V9H14C13.4477 9 13 8.55228 13 8V5.5H11V8Z" fill="#9E9E9E"/>
</g>
</svg>
