<svg width="24" height="24" viewBox="0 0 24 24" fill="none" xmlns="http://www.w3.org/2000/svg">
<g id="icons/Build/green-house">
<path id="Union" d="M11.4092 1.19336C11.7855 0.917272 12.3089 0.937258 12.6641 1.25293L21.6641 9.25293C21.8775 9.44269 22 9.71441 22 10V22C21.9999 22.5522 21.5522 23 21 23H3C2.44779 23 2.00013 22.5522 2 22V10C2 9.71441 2.12252 9.44269 2.33594 9.25293L11.3359 1.25293L11.4092 1.19336ZM4 21H5.5V13H4V21ZM7.5 21H9V16C9 15.4477 9.44772 15 10 15H14C14.5523 15 15 15.4477 15 16V21H16.5V13H7.5V21ZM18.5 21H20V13H18.5V21ZM11 21H13V17H11V21ZM4 10.4482V11H5.5V9.11426L4 10.4482ZM7.5 7.33691V11H16.5V7.33691L12 3.33691L7.5 7.33691ZM18.5 11H20V10.4482L18.5 9.11426V11Z" fill="#9E9E9E"/>
</g>
</svg>
