<svg width="24" height="24" viewBox="0 0 24 24" fill="none" xmlns="http://www.w3.org/2000/svg">
<g id="icons/Build/home-two">
<path id="Union" d="M11.5186 1.12305C11.8675 0.931333 12.3054 0.963212 12.625 1.21875L22.625 9.21875C22.8621 9.40845 22.9999 9.69634 23 10V22C23 22.5523 22.5523 23 22 23H16C15.4477 23 15 22.5523 15 22V14H9V22C9 22.5523 8.55228 23 8 23H2C1.44772 23 1 22.5523 1 22V10C1.0001 9.69634 1.13787 9.40845 1.375 9.21875L11.375 1.21875L11.5186 1.12305ZM12 16C12.5522 16 12.9998 16.4479 13 17V22C13 22.5523 12.5523 23 12 23C11.4477 23 11 22.5523 11 22V17C11.0002 16.4479 11.4478 16 12 16ZM3 10.4805V21H7V13C7.00018 12.4479 7.44783 12 8 12H16C16.5522 12 16.9998 12.4479 17 13V21H21V10.4805L12 3.28125L3 10.4805Z" fill="#9E9E9E"/>
</g>
</svg>
