<svg width="24" height="24" viewBox="0 0 24 24" fill="none" xmlns="http://www.w3.org/2000/svg">
<g id="icons/Build/hospital-two">
<path id="Union" d="M15.9999 1.5C16.5522 1.5 16.9999 1.94772 16.9999 2.5V4.5H19.9999C20.4088 4.5 20.7768 4.74926 20.9286 5.12891L22.9286 10.1289C23.0517 10.4369 23.014 10.7859 22.8281 11.0605C22.642 11.3353 22.3317 11.5 21.9999 11.5H20.9999V21.5C20.9999 22.0523 20.5522 22.5 19.9999 22.5H3.99994C3.44769 22.5 2.99994 22.0523 2.99994 21.5V11.5H1.99994C1.66814 11.5 1.35783 11.3353 1.17181 11.0605C0.985925 10.7859 0.948183 10.4369 1.07123 10.1289L3.07123 5.12891C3.22308 4.74927 3.59106 4.50003 3.99994 4.5H6.99994V2.5C6.99994 1.94774 7.44769 1.50004 7.99994 1.5H15.9999ZM4.99994 20.5H6.99994V14.5C6.99994 13.9477 7.44769 13.5 7.99994 13.5H15.9999C16.5522 13.5 16.9999 13.9477 16.9999 14.5V20.5H18.9999V11.5H4.99994V20.5ZM8.99994 20.5H10.9999V15.5H8.99994V20.5ZM12.9999 20.5H14.9999V15.5H12.9999V20.5ZM3.47748 9.5H6.99994V6.5H4.6767L3.47748 9.5ZM8.99994 9.5H14.9999V3.5H8.99994V9.5ZM16.9999 9.5H20.5224L19.3232 6.5H16.9999V9.5ZM11.9999 4C12.5522 4 12.9999 4.44772 12.9999 5V5.5H13.4999C14.0522 5.5 14.4999 5.94772 14.4999 6.5C14.4999 7.05228 14.0522 7.5 13.4999 7.5H12.9999V8C12.9999 8.55228 12.5522 9 11.9999 9C11.4477 8.99996 10.9999 8.55226 10.9999 8V7.5H10.4999C9.94769 7.49996 9.49994 7.05226 9.49994 6.5C9.49994 5.94774 9.94769 5.50004 10.4999 5.5H10.9999V5C10.9999 4.44774 11.4477 4.00004 11.9999 4Z" fill="#9E9E9E"/>
</g>
</svg>
