<svg width="24" height="24" viewBox="0 0 24 24" fill="none" xmlns="http://www.w3.org/2000/svg">
<g id="icons/Build/hotel">
<path id="Union" d="M22 1C22.5523 1 23 1.44772 23 2C23 2.55228 22.5523 3 22 3H21V21H22C22.5523 21 23 21.4477 23 22C23 22.5523 22.5523 23 22 23H2C1.44772 23 1 22.5523 1 22C1 21.4477 1.44772 21 2 21H3V3H2C1.44772 3 1 2.55228 1 2C1 1.44772 1.44772 1 2 1H22ZM5 21H9V17C8.23704 16.9999 7.36809 16.3318 7.56641 15.3115C7.95247 13.3287 9.88774 12.0001 12 12C14.1123 12.0001 16.0475 13.3286 16.4336 15.3115V15.3125C16.6316 16.3326 15.7629 16.9999 15 17V21H19V3H5V21ZM11 21H13V17H11V21ZM12 14C11.0208 14.0001 10.2577 14.4361 9.84473 15H14.1553C13.7423 14.4361 12.9792 14 12 14ZM8.5 8C9.05229 8 9.5 8.44772 9.5 9C9.5 9.55229 9.05229 10 8.5 10H7.5C6.94772 10 6.5 9.55229 6.5 9C6.5 8.44772 6.94772 8 7.5 8H8.5ZM12.5 8C13.0523 8 13.5 8.44772 13.5 9C13.5 9.55229 13.0523 10 12.5 10H11.5C10.9477 10 10.5 9.55229 10.5 9C10.5 8.44772 10.9477 8 11.5 8H12.5ZM16.5 8C17.0523 8 17.5 8.44772 17.5 9C17.5 9.55229 17.0523 10 16.5 10H15.5C14.9477 10 14.5 9.55229 14.5 9C14.5 8.44772 14.9477 8 15.5 8H16.5ZM8.5 5C9.05229 5 9.5 5.44772 9.5 6C9.5 6.55228 9.05229 7 8.5 7H7.5C6.94772 7 6.5 6.55228 6.5 6C6.5 5.44772 6.94772 5 7.5 5H8.5ZM12.5 5C13.0523 5 13.5 5.44772 13.5 6C13.5 6.55228 13.0523 7 12.5 7H11.5C10.9477 7 10.5 6.55228 10.5 6C10.5 5.44772 10.9477 5 11.5 5H12.5ZM16.5 5C17.0523 5 17.5 5.44772 17.5 6C17.5 6.55228 17.0523 7 16.5 7H15.5C14.9477 7 14.5 6.55228 14.5 6C14.5 5.44772 14.9477 5 15.5 5H16.5Z" fill="#9E9E9E"/>
</g>
</svg>
