<svg width="24" height="24" viewBox="0 0 24 24" fill="none" xmlns="http://www.w3.org/2000/svg">
<g id="icons/Build/light-house">
<path id="Union" d="M11.3691 1.22461C11.7619 0.904259 12.3409 0.926853 12.707 1.29297L16.707 5.29297C17.0975 5.6835 17.0975 6.31652 16.707 6.70703C16.3165 7.09751 15.6835 7.09751 15.293 6.70703L15.1416 6.55566L14.6973 9H15.5C16.0523 9 16.5 9.44771 16.5 10C16.5 10.5078 16.1211 10.925 15.6309 10.9893L16.8828 21H21C21.5523 21 22 21.4477 22 22C22 22.5522 21.5523 23 21 23H3C2.44774 23 2.00004 22.5522 2 22C2 21.4477 2.44772 21 3 21H7.11719L8.36816 10.9902C7.87828 10.9256 7.50004 10.5075 7.5 10C7.5 9.44771 7.94772 9 8.5 9H9.30273L8.85742 6.55566L8.70703 6.70703C8.31652 7.09751 7.68348 7.09751 7.29297 6.70703C6.90246 6.31652 6.90248 5.6835 7.29297 5.29297L11.293 1.29297L11.3691 1.22461ZM9.13281 21H14.8672L14.6172 19H9.38281L9.13281 21ZM9.63281 17H14.3672L14.1172 15H9.88281L9.63281 17ZM10.1328 13H13.8672L13.6172 11H10.3828L10.1328 13ZM4.79297 8.79297C5.18349 8.40244 5.81651 8.40244 6.20703 8.79297C6.59752 9.1835 6.59754 9.81652 6.20703 10.207L4.70703 11.707C4.31652 12.0975 3.68348 12.0975 3.29297 11.707C2.90246 11.3165 2.90248 10.6835 3.29297 10.293L4.79297 8.79297ZM17.793 8.79297C18.1835 8.40244 18.8165 8.40244 19.207 8.79297L20.707 10.293C21.0975 10.6835 21.0975 11.3165 20.707 11.707C20.3165 12.0975 19.6835 12.0975 19.293 11.707L17.793 10.207C17.4025 9.81652 17.4025 9.1835 17.793 8.79297ZM10.5762 4.83691L11.334 9H12.666L13.4229 4.83691L12 3.41406L10.5762 4.83691ZM5 5.5C5.55228 5.5 6 5.94772 6 6.5C5.99996 7.05225 5.55226 7.5 5 7.5H3C2.44774 7.5 2.00004 7.05225 2 6.5C2 5.94772 2.44772 5.5 3 5.5H5ZM21 5.5C21.5523 5.5 22 5.94772 22 6.5C22 7.05225 21.5523 7.5 21 7.5H19C18.4477 7.5 18 7.05225 18 6.5C18 5.94772 18.4477 5.5 19 5.5H21ZM3.29297 1.29297C3.68349 0.902444 4.31651 0.902444 4.70703 1.29297L6.20703 2.79297C6.59752 3.1835 6.59754 3.81652 6.20703 4.20703C5.81652 4.59751 5.18348 4.59751 4.79297 4.20703L3.29297 2.70703C2.90246 2.31652 2.90248 1.6835 3.29297 1.29297ZM19.293 1.29297C19.6835 0.902444 20.3165 0.902444 20.707 1.29297C21.0975 1.6835 21.0975 2.31652 20.707 2.70703L19.207 4.20703C18.8165 4.59751 18.1835 4.59751 17.793 4.20703C17.4025 3.81652 17.4025 3.1835 17.793 2.79297L19.293 1.29297Z" fill="#9E9E9E"/>
</g>
</svg>
