<svg width="24" height="24" viewBox="0 0 24 24" fill="none" xmlns="http://www.w3.org/2000/svg">
<g id="icons/Build/maya">
<path id="Union" d="M14 2.5C14.5523 2.5 15 2.94772 15 3.5V6.5H17.5C18.0523 6.5 18.5 6.94772 18.5 7.5V9.5H19C19.5523 9.5 20 9.94772 20 10.5V12.5H20.5C21.0523 12.5 21.5 12.9477 21.5 13.5V16H22C22.5523 16 23 16.4477 23 17V21C23 21.5523 22.5523 22 22 22H2C1.44772 22 1 21.5523 1 21V17C1 16.4477 1.44772 16 2 16H2.5V13.5C2.5 12.9477 2.94772 12.5 3.5 12.5H4V10.5C4 9.94772 4.44772 9.5 5 9.5H5.5V7.5C5.5 6.94772 5.94772 6.5 6.5 6.5H9V3.5C9 2.94772 9.44771 2.5 10 2.5H14ZM3 20H6.19727L6.6416 18H3V20ZM17.8027 20H21V18H17.3584L17.8027 20ZM8.24707 20H15.7529L15.3086 18H8.69141L8.24707 20ZM4.5 16H7.08594L7.41992 14.5H4.5V16ZM16.9141 16H19.5V14.5H16.5801L16.9141 16ZM9.13574 16H14.8643L14.5312 14.5H9.46875L9.13574 16ZM6 12.5H7.86426L8.08594 11.5H6V12.5ZM16.1357 12.5H18V11.5H15.9141L16.1357 12.5ZM9.91406 12.5H14.0859L13.8643 11.5H10.1357L9.91406 12.5ZM7.5 9.5H8.53125L8.75293 8.5H7.5V9.5ZM15.4688 9.5H16.5V8.5H15.2471L15.4688 9.5ZM10.5801 9.5H13.4199L13.1973 8.5H10.8027L10.5801 9.5ZM11 6.5H13V4.5H11V6.5Z" fill="#9E9E9E"/>
</g>
</svg>
