<svg width="24" height="24" viewBox="0 0 24 24" fill="none" xmlns="http://www.w3.org/2000/svg">
<g id="icons/Build/monument-two">
<path id="Union" d="M13.6328 1.07031C13.9325 0.952014 14.2712 0.984653 14.542 1.15918C14.8127 1.33372 14.9829 1.62849 14.999 1.9502L15.9512 21H22C22.5523 21 23 21.4477 23 22C22.9999 22.5522 22.5522 23 22 23H2C1.44779 23 1.00012 22.5522 1 22C1 21.4477 1.44772 21 2 21H8.05371L9.00195 3.52441L9.01953 3.38086C9.0859 3.05199 9.31475 2.77402 9.63281 2.64844L13.6328 1.07031ZM10.9629 4.27344L10.0557 21H13.9482L13.0703 3.44141L10.9629 4.27344Z" fill="#9E9E9E"/>
</g>
</svg>
