<svg width="24" height="24" viewBox="0 0 24 24" fill="none" xmlns="http://www.w3.org/2000/svg">
<g id="icons/Build/monument-one">
<path id="Union" d="M12 1C12.3038 1 12.5915 1.13778 12.7812 1.375L14.7812 3.875L14.8662 4.00098C14.9417 4.13204 14.9875 4.27942 14.998 4.43164L15.9336 18H17C17.5523 18 18 18.4477 18 19V21H22C22.5523 21 23 21.4477 23 22C23 22.5523 22.5523 23 22 23H2C1.44772 23 1 22.5523 1 22C1 21.4477 1.44772 21 2 21H6V19C6 18.4477 6.44772 18 7 18H8.06641L9.00195 4.43164L9.02441 4.28125C9.05754 4.13353 9.12336 3.99424 9.21875 3.875L11.2188 1.375L11.2949 1.29102C11.4812 1.10575 11.7343 1 12 1ZM8 21H16V20H8V21ZM10.9756 4.88086L10.0713 18H13.9287L13.0234 4.88086L12 3.60156L10.9756 4.88086Z" fill="#9E9E9E"/>
</g>
</svg>
