<svg width="24" height="24" viewBox="0 0 24 24" fill="none" xmlns="http://www.w3.org/2000/svg">
<g id="icons/Build/museum-one">
<path id="Union" d="M11.8672 1.00879C11.999 0.991127 12.1335 0.999985 12.2627 1.03516L20.2627 3.2168C20.6977 3.33543 20.9999 3.73078 21 4.18164V7C21 7.55228 20.5523 8 20 8V18H20.5C21.0523 18 21.5 18.4477 21.5 19V21H22C22.5523 21 23 21.4477 23 22C23 22.5523 22.5523 23 22 23H2C1.44772 23 1 22.5523 1 22C1.00002 21.4477 1.44773 21 2 21H2.5V19C2.50002 18.4477 2.94773 18 3.5 18H4V8C3.44772 8 3 7.55228 3 7V4.18164C3.0001 3.73078 3.30231 3.33543 3.7373 3.2168L11.7373 1.03516L11.8672 1.00879ZM4.5 21H19.5V20H4.5V21ZM6 18H7.5V8H6V18ZM9.5 18H11V8H9.5V18ZM13 18H14.5V8H13V18ZM16.5 18H18V8H16.5V18ZM5 4.94531V6H19V4.94531L12 3.03613L5 4.94531Z" fill="#9E9E9E"/>
</g>
</svg>
