<svg width="24" height="24" viewBox="0 0 24 24" fill="none" xmlns="http://www.w3.org/2000/svg">
<g id="icons/Build/museum-two">
<path id="Union" d="M12 1C14.3671 1 16.4617 1.4298 17.9609 1.85645C18.7124 2.07029 19.3195 2.28453 19.7422 2.44727C19.9535 2.52864 20.1193 2.59719 20.2344 2.64648C20.2919 2.67114 20.3374 2.69086 20.3691 2.70508C20.3849 2.71214 20.3971 2.71848 20.4062 2.72266C20.4106 2.72464 20.4142 2.72624 20.417 2.72754L20.4229 2.73047C20.4214 2.73407 20.3963 2.78902 20 3.63672L20.4238 2.73047C20.7754 2.89496 21 3.24854 21 3.63672V6.5C21 7.05228 20.5523 7.5 20 7.5V18H20.5C21.0523 18 21.5 18.4477 21.5 19V21H22C22.5523 21 23 21.4477 23 22C23 22.5523 22.5523 23 22 23H2C1.44772 23 1 22.5523 1 22C1 21.4477 1.44772 21 2 21H2.5V19C2.5 18.4477 2.94772 18 3.5 18H4V7.5C3.44772 7.5 3 7.05228 3 6.5V3.63672C3 3.24854 3.22458 2.89496 3.57617 2.73047L4 3.63672L3.57715 2.73047L3.58301 2.72754C3.58582 2.72624 3.58942 2.72464 3.59375 2.72266C3.60287 2.71848 3.61511 2.71214 3.63086 2.70508C3.66257 2.69086 3.70805 2.67114 3.76562 2.64648C3.88074 2.59719 4.04646 2.52864 4.25781 2.44727C4.68047 2.28453 5.28764 2.07029 6.03906 1.85645C7.5383 1.4298 9.63293 1 12 1ZM4.5 21H19.5V20H4.5V21ZM6 18H7.5V7.5H6V18ZM9.5 18H11V7.5H9.5V18ZM13 18H14.5V7.5H13V18ZM16.5 18H18V7.5H16.5V18ZM12 3C9.86719 3 7.96169 3.38876 6.58594 3.78027C5.91428 3.97143 5.3735 4.16159 5 4.30469V5.5H19V4.30469C18.6265 4.16159 18.0857 3.97143 17.4141 3.78027C16.0383 3.38876 14.1328 3 12 3Z" fill="#9E9E9E"/>
</g>
</svg>
