<svg width="24" height="24" viewBox="0 0 24 24" fill="none" xmlns="http://www.w3.org/2000/svg">
<g id="icons/Build/nuclear-plant">
<path id="Union" d="M18 6C18.5523 6 19 6.44772 19 7C19 7.50784 18.6212 7.92607 18.1309 7.99023L18.4307 10.3848C18.4634 10.6461 18.5222 10.9035 18.6055 11.1533L20.2725 16.1553C20.4129 16.5768 20.5066 17.0128 20.5508 17.4551L20.9053 21H22C22.5523 21 23 21.4477 23 22C23 22.5522 22.5523 23 22 23H2C1.44774 23 1.00004 22.5522 1 22C1 21.4477 1.44772 21 2 21H3.09473L3.44922 17.4551C3.49345 17.0129 3.58704 16.5769 3.72754 16.1553L5.39453 11.1533C5.47778 10.9035 5.53665 10.6461 5.56934 10.3848L5.86816 7.99023C5.37828 7.92565 5.00004 7.50751 5 7C5 6.44772 5.44772 6 6 6H18ZM7.55371 10.6328C7.5047 11.0248 7.4169 11.4113 7.29199 11.7861L5.625 16.7871C5.53128 17.0683 5.46895 17.3594 5.43945 17.6543L5.10547 21H18.8945L18.5605 17.6543C18.5311 17.3594 18.4687 17.0683 18.375 16.7871L16.708 11.7861C16.6143 11.5051 16.5414 11.2173 16.4902 10.9258L16.4463 10.6328L16.1172 8H7.88281L7.55371 10.6328ZM15.5 14.5C16.0523 14.5 16.5 14.9477 16.5 15.5C16.5 16.7035 16.0259 17.7989 15.2568 18.6055C14.8361 19.0466 14.3256 19.4034 13.7539 19.6455C13.2455 19.8605 12.6587 19.6226 12.4434 19.1143C12.228 18.6057 12.4661 18.0191 12.9746 17.8037C13.291 17.6697 13.5746 17.471 13.8096 17.2246C14.2382 16.775 14.5 16.1692 14.5 15.5C14.5 14.9478 14.9478 14.5001 15.5 14.5ZM8.5 14.5C9.05229 14.5 9.5 14.9477 9.5 15.5C9.50002 16.1692 9.76182 16.7751 10.1904 17.2246C10.4254 17.471 10.7099 17.6697 11.0264 17.8037C11.5346 18.0193 11.772 18.6059 11.5566 19.1143C11.3412 19.6227 10.7546 19.8599 10.2461 19.6445C9.67452 19.4024 9.16395 19.0467 8.74316 18.6055C7.97397 17.7988 7.50002 16.7035 7.5 15.5C7.5 14.9477 7.94772 14.5 8.5 14.5ZM12 14.5C12.5523 14.5 13 14.9477 13 15.5C13 16.0522 12.5523 16.5 12 16.5C11.4477 16.5 11 16.0522 11 15.5C11 14.9477 11.4477 14.5 12 14.5ZM12 11C13.281 11 14.4386 11.5366 15.2568 12.3945C15.6379 12.7942 15.6232 13.4275 15.2236 13.8086C14.824 14.1897 14.1907 14.175 13.8096 13.7754C13.353 13.2966 12.712 13 12 13C11.2881 13 10.647 13.2966 10.1904 13.7754C9.80927 14.1749 9.17598 14.1896 8.77637 13.8086C8.3769 13.4274 8.36212 12.7941 8.74316 12.3945C9.56142 11.5366 10.7189 11 12 11ZM15.293 1.29297C15.6835 0.90245 16.3165 0.902456 16.707 1.29297C17.0975 1.68349 17.0975 2.31652 16.707 2.70703L16.293 3.12109C15.7304 3.68357 14.9674 3.99991 14.1719 4H13.8281C13.563 4.00009 13.3086 4.10548 13.1211 4.29297L12.707 4.70703C12.3165 5.0975 11.6835 5.09749 11.293 4.70703C10.9025 4.31653 10.9025 3.6835 11.293 3.29297L11.707 2.87891C12.2696 2.31641 13.0326 2.00009 13.8281 2H14.1719C14.437 1.99991 14.6914 1.89449 14.8789 1.70703L15.293 1.29297Z" fill="#9E9E9E"/>
</g>
</svg>
