<svg width="24" height="24" viewBox="0 0 24 24" fill="none" xmlns="http://www.w3.org/2000/svg">
<g id="icons/Build/open-door">
<path id="Union" d="M9.39258 1.20508C9.64015 1.01599 9.96213 0.953324 10.2627 1.03516L21.2627 4.03516C21.6977 4.15381 22 4.54906 22 5V19C22 19.4509 21.6978 19.8462 21.2627 19.9648L10.2627 22.9648C9.96212 23.0467 9.64015 22.984 9.39258 22.7949C9.145 22.6057 9 22.3116 9 22V20H3C2.44772 20 2 19.5523 2 19V5C2.00001 4.44773 2.44772 4 3 4H9V2C9.00001 1.68841 9.145 1.39426 9.39258 1.20508ZM11 20.6904L20 18.2354V5.76367L11 3.30859V20.6904ZM4 18H9V6H4V18ZM14 10C14.5523 10 15 10.4477 15 11V13C15 13.5523 14.5523 14 14 14C13.4477 14 13 13.5523 13 13V11C13 10.4477 13.4477 10 14 10Z" fill="#9E9E9E"/>
</g>
</svg>
