<svg width="24" height="24" viewBox="0 0 24 24" fill="none" xmlns="http://www.w3.org/2000/svg">
<g id="icons/Build/pagoda">
<path id="Union" d="M11.4559 1.16016C11.7865 0.946174 12.2132 0.946267 12.5438 1.16016V1.16113C12.5444 1.16153 12.5463 1.16223 12.5477 1.16309C12.5507 1.16498 12.5555 1.16811 12.5614 1.17188C12.5738 1.17984 12.5928 1.1925 12.6171 1.20801C12.666 1.23927 12.7379 1.28522 12.828 1.3418C13.009 1.45549 13.2636 1.61262 13.5546 1.78711C14.1456 2.14156 14.8577 2.54776 15.4188 2.80664C15.5953 2.88807 15.8325 2.98925 16.0321 3.07324C16.1302 3.11452 16.2171 3.15113 16.2792 3.17676C16.31 3.1895 16.3355 3.2001 16.3524 3.20703C16.3606 3.21037 16.3677 3.2131 16.3719 3.21484C16.3735 3.21548 16.375 3.21637 16.3759 3.2168H16.3778C16.7095 3.35216 16.9434 3.6557 16.9911 4.01074C17.0384 4.3658 16.8917 4.71875 16.6073 4.93652V4.9375L16.6063 4.93848C16.6054 4.93917 16.604 4.94022 16.6024 4.94141C16.5993 4.94382 16.5944 4.9469 16.5887 4.95117C16.5773 4.95983 16.5609 4.97222 16.5409 4.9873C16.5007 5.01757 16.444 5.06032 16.3798 5.10742C16.2568 5.19761 16.0844 5.32094 15.9364 5.41504C15.7141 5.55638 15.4297 5.68901 15.2391 5.77344C15.1363 5.819 15.0446 5.85748 14.9784 5.88477C14.9452 5.89847 14.9176 5.91021 14.8983 5.91797C14.8889 5.92173 14.8813 5.92458 14.8759 5.92676C14.8731 5.92785 14.8707 5.92902 14.869 5.92969L14.8671 5.93066H14.8651C14.7487 5.97634 14.6249 6 14.4999 6V7H14.9999C15.2818 7 15.5506 7.11949 15.7401 7.32812L15.7479 7.33594C15.7548 7.34337 15.7662 7.3562 15.7811 7.37207C15.8113 7.40404 15.8575 7.45172 15.9159 7.51074C16.0338 7.62985 16.2013 7.79289 16.3964 7.96484C16.8147 8.33345 17.2597 8.65325 17.5917 8.77441C17.8017 8.85089 18.1425 8.91288 18.4852 8.95312C18.6453 8.97191 18.7883 8.98374 18.8905 8.99121C18.9413 8.99492 18.982 8.99749 19.0087 8.99902C19.0218 8.99978 19.0319 9.00066 19.038 9.00098H19.0438C19.4813 9.02038 19.8553 9.32266 19.9667 9.74609C20.0779 10.1698 19.9008 10.6168 19.5292 10.8486H19.5282V10.8496L19.5262 10.8506C19.5246 10.8516 19.5221 10.8528 19.5194 10.8545C19.5138 10.8579 19.5059 10.8631 19.496 10.8691C19.4761 10.8813 19.4478 10.8989 19.413 10.9199C19.3433 10.962 19.2457 11.0197 19.1337 11.084C18.9188 11.2073 18.6148 11.3743 18.3446 11.4902C18.0026 11.637 17.5804 11.7595 17.2772 11.8398C17.119 11.8817 16.9791 11.9159 16.8788 11.9395C16.8286 11.9513 16.7874 11.9603 16.7587 11.9668C16.7444 11.97 16.7326 11.9728 16.7245 11.9746C16.7209 11.9754 16.7179 11.9761 16.7157 11.9766C16.7147 11.9768 16.7135 11.9774 16.7128 11.9775H16.7108C16.6415 11.9925 16.5708 12 16.4999 12H15.4999V13L15.5995 13.0049C15.7979 13.0247 15.9862 13.1039 16.1395 13.2314L16.2128 13.2988H16.2137C16.215 13.3001 16.2172 13.3032 16.2206 13.3066C16.2279 13.314 16.2406 13.3261 16.2567 13.3418C16.2894 13.3736 16.3395 13.4215 16.4032 13.4805C16.5316 13.5993 16.7143 13.7624 16.9296 13.9346C17.3844 14.2984 17.8921 14.6305 18.3036 14.7617C18.5713 14.847 18.9848 14.9105 19.3807 14.9512C19.5683 14.9704 19.7356 14.9826 19.8553 14.9902C19.9149 14.994 19.9633 14.9974 19.995 14.999C20.0105 14.9998 20.0227 14.9997 20.0302 15C20.0336 15.0002 20.0365 15.0009 20.038 15.001H20.0389C20.4881 15.0185 20.8706 15.3339 20.9735 15.7715C21.0762 16.2093 20.874 16.6623 20.4794 16.8779L19.9999 16L20.4784 16.8779H20.4774L20.4755 16.8799C20.4737 16.8808 20.4715 16.8822 20.4686 16.8838C20.4625 16.8871 20.4533 16.8915 20.4423 16.8975C20.42 16.9094 20.3879 16.9265 20.3485 16.9473C20.2697 16.9889 20.1589 17.0467 20.0321 17.1104C19.7872 17.2333 19.4482 17.3963 19.1512 17.5078C18.7633 17.6534 18.2471 17.773 17.8719 17.8516C17.6756 17.8927 17.5003 17.9261 17.3739 17.9492C17.3105 17.9608 17.2586 17.9703 17.2225 17.9766C17.2047 17.9797 17.1905 17.9817 17.1805 17.9834C17.1757 17.9842 17.1716 17.9849 17.1688 17.9854C17.1674 17.9856 17.1658 17.9862 17.1649 17.9863H17.1639C17.1099 17.9953 17.0547 18 16.9999 18V22C16.9999 22.5523 16.5522 23 15.9999 23H7.99988C7.44766 22.9999 6.99988 22.5522 6.99988 22V18L6.83582 17.9863H6.83484C6.83394 17.9861 6.83223 17.9856 6.83093 17.9854C6.82813 17.9849 6.82396 17.9842 6.81921 17.9834C6.80927 17.9817 6.79496 17.9796 6.77722 17.9766C6.74112 17.9703 6.68913 17.9608 6.62585 17.9492C6.49947 17.9261 6.32403 17.8927 6.12781 17.8516C5.75268 17.773 5.23638 17.6534 4.84851 17.5078C4.55158 17.3963 4.2125 17.2333 3.96765 17.1104C3.84094 17.0467 3.73001 16.9889 3.65125 16.9473C3.61199 16.9265 3.57973 16.9094 3.5575 16.8975C3.54657 16.8916 3.53725 16.8871 3.53113 16.8838C3.5284 16.8823 3.52596 16.8808 3.52429 16.8799L3.52234 16.8779H3.52039C3.12587 16.6623 2.92355 16.2093 3.02625 15.7715C3.12912 15.3339 3.51165 15.0186 3.96082 15.001H3.96179C3.96322 15.0009 3.96611 15.0002 3.9696 15C3.97701 14.9997 3.98922 14.9998 4.00476 14.999C4.03645 14.9974 4.08478 14.994 4.14441 14.9902C4.26416 14.9826 4.43137 14.9704 4.61902 14.9512C5.015 14.9105 5.42841 14.847 5.69617 14.7617C6.10774 14.6306 6.61522 14.2985 7.07019 13.9346C7.28555 13.7623 7.46816 13.5993 7.59656 13.4805C7.66037 13.4214 7.71036 13.3737 7.74304 13.3418C7.75926 13.326 7.7718 13.314 7.77917 13.3066C7.78265 13.3032 7.78472 13.3001 7.78601 13.2988C7.97396 13.1077 8.23184 13 8.49988 13V12H7.49988C7.46434 12 7.42872 11.9979 7.39343 11.9941L7.28894 11.9775H7.28699L7.28406 11.9766C7.28185 11.9761 7.27876 11.9754 7.27527 11.9746C7.26719 11.9728 7.25525 11.97 7.24109 11.9668C7.21233 11.9603 7.17109 11.9512 7.12097 11.9395C7.02062 11.9159 6.88065 11.8817 6.72253 11.8398C6.41933 11.7595 5.9971 11.6369 5.65515 11.4902C5.38505 11.3743 5.08092 11.2073 4.86609 11.084C4.75415 11.0197 4.65639 10.9619 4.58679 10.9199C4.55202 10.8989 4.52358 10.8813 4.50378 10.8691C4.49399 10.8631 4.48588 10.8579 4.48035 10.8545C4.4777 10.8529 4.47508 10.8516 4.47351 10.8506L4.47156 10.8496V10.8486H4.47058C4.09909 10.6167 3.92189 10.1697 4.03308 9.74609C4.14445 9.32267 4.51851 9.02043 4.95593 9.00098H4.96179C4.96783 9.00067 4.97788 8.99978 4.99109 8.99902C5.01772 8.9975 5.05842 8.99492 5.10925 8.99121C5.21148 8.98374 5.3544 8.97192 5.51453 8.95312C5.85731 8.91288 6.19804 8.85091 6.40808 8.77441C6.74013 8.65332 7.18495 8.33355 7.60339 7.96484C7.79857 7.79284 7.96593 7.62988 8.08386 7.51074C8.14235 7.45165 8.18844 7.40407 8.21863 7.37207C8.23367 7.35613 8.24494 7.3434 8.25183 7.33594C8.25483 7.33271 8.2574 7.33048 8.25867 7.3291L8.25964 7.32715V7.32812C8.44914 7.11943 8.71798 7.00004 8.99988 7H9.49988V6C9.37491 5.99998 9.25098 5.97632 9.13464 5.93066L9.49988 5L9.13367 5.93066H9.13269L9.13074 5.92969C9.12908 5.92901 9.12652 5.9278 9.1239 5.92676C9.11844 5.92459 9.11066 5.92167 9.10144 5.91797C9.08214 5.91021 9.05445 5.89841 9.02136 5.88477C8.95521 5.85749 8.86331 5.81894 8.76062 5.77344C8.5701 5.689 8.28557 5.55631 8.06335 5.41504C7.91541 5.32096 7.74289 5.19757 7.62 5.10742C7.55587 5.06037 7.49902 5.01754 7.45886 4.9873C7.43891 4.97228 7.42237 4.9598 7.41101 4.95117C7.40546 4.94697 7.40047 4.94379 7.39734 4.94141C7.39587 4.94029 7.3943 4.93914 7.39343 4.93848L7.39246 4.9375C7.10817 4.71971 6.96135 4.36572 7.00867 4.01074C7.05631 3.65568 7.29025 3.35216 7.62195 3.2168H7.6239C7.62484 3.21641 7.62608 3.21555 7.62781 3.21484C7.63206 3.21311 7.63903 3.21044 7.64734 3.20703C7.66423 3.2001 7.68958 3.18956 7.72058 3.17676C7.78263 3.15113 7.86941 3.11457 7.96765 3.07324C8.16733 2.98923 8.40434 2.8881 8.58093 2.80664C9.14208 2.54776 9.85403 2.14162 10.4452 1.78711C10.7362 1.61257 10.9907 1.45552 11.1718 1.3418C11.2619 1.28515 11.3337 1.2393 11.3827 1.20801C11.4071 1.19244 11.4259 1.17986 11.4384 1.17188C11.4443 1.16804 11.4491 1.16501 11.452 1.16309C11.4535 1.16215 11.4553 1.16155 11.4559 1.16113V1.16016ZM8.99988 18V21H14.9999V18H8.99988ZM8.89734 15C8.74742 15.1369 8.54984 15.3116 8.31921 15.4961C8.12327 15.6528 7.88926 15.8288 7.63074 16H16.369C16.1106 15.8288 15.8764 15.6528 15.6805 15.4961C15.45 15.3117 15.2523 15.1369 15.1024 15H8.89734ZM10.4999 13H13.4999V12H10.4999V13ZM9.42078 9C9.28797 9.13149 9.11974 9.29479 8.92566 9.46582C8.73981 9.62958 8.51228 9.81705 8.26062 10H15.7391C15.4876 9.8171 15.2599 9.62953 15.0741 9.46582C14.8801 9.29485 14.7117 9.13146 14.579 9H9.42078ZM11.4999 7H12.4999V6H11.4999V7ZM11.4735 3.50293C11.2141 3.65849 10.9196 3.82973 10.6161 4H13.3837C13.0802 3.82977 12.7856 3.65845 12.5262 3.50293C12.3312 3.38594 12.1532 3.27368 11.9999 3.17871C11.8465 3.27372 11.6687 3.38589 11.4735 3.50293Z" fill="#9E9E9E"/>
</g>
</svg>
