<svg width="24" height="24" viewBox="0 0 24 24" fill="none" xmlns="http://www.w3.org/2000/svg">
<g id="icons/Build/palace">
<path id="Union" d="M11.4852 2.14258C11.8019 1.95258 12.1979 1.95261 12.5145 2.14258L22.5145 8.14258C22.8998 8.3738 23.0835 8.83358 22.9637 9.2666C22.8437 9.69972 22.4493 10 21.9999 10H20.4999V20H21.9999C22.5522 20 22.9999 20.4477 22.9999 21C22.9998 21.5523 22.5521 22 21.9999 22H1.99988C1.44768 21.9999 0.999916 21.5522 0.999878 21C0.999878 20.4478 1.44766 20.0001 1.99988 20H3.49988V10H1.99988C1.55046 9.99994 1.15599 9.69971 1.03601 9.2666C0.916252 8.83363 1.10009 8.37383 1.48523 8.14258L11.4852 2.14258ZM15.4999 10V20H18.4999V10H15.4999ZM5.49988 20H8.49988V10H5.49988V20ZM10.4999 20H13.4999V10H10.4999V20ZM5.61023 8H18.3895L11.9999 4.16602L5.61023 8Z" fill="#9E9E9E"/>
</g>
</svg>
