<svg width="24" height="24" viewBox="0 0 24 24" fill="none" xmlns="http://www.w3.org/2000/svg">
<g id="icons/Build/pearl-of-the-orient">
<path id="Union" d="M12 1C12.5523 1.00003 13 1.44773 13 2V4.20898C13.8827 4.59485 14.5 5.475 14.5 6.5C14.5 7.05511 14.3159 7.56562 14.0098 7.98047L14.9863 13.8359C14.9865 13.8372 14.9861 13.8386 14.9863 13.8398C15.6165 14.5468 16 15.4784 16 16.5C16 17.1774 15.8304 17.8149 15.5332 18.374L16.9189 21.6064C17.1363 22.114 16.9011 22.7014 16.3936 22.9189C15.886 23.1363 15.2986 22.9011 15.0811 22.3936L14.0312 19.9443C13.7129 20.1325 13.3671 20.2795 13 20.374V22C13 22.5523 12.5523 23 12 23C11.4477 23 11 22.5523 11 22V20.374C10.6326 20.2795 10.2864 20.1327 9.96777 19.9443L8.91895 22.3936C8.70143 22.9011 8.11401 23.1363 7.60645 22.9189C7.09889 22.7014 6.86367 22.114 7.08105 21.6064L8.46582 18.374C8.16874 17.8149 8 17.1773 8 16.5C8 15.4787 8.38276 14.5467 9.0127 13.8398C9.01291 13.8385 9.01345 13.8373 9.01367 13.8359L9.98926 7.98047C9.68335 7.5657 9.5 7.05492 9.5 6.5C9.5 5.47496 10.1172 4.59483 11 4.20898V2C11 1.44772 11.4477 1 12 1ZM12 14.5C10.8954 14.5 10 15.3954 10 16.5C10 17.6046 10.8954 18.5 12 18.5C13.1045 18.5 14 17.6046 14 16.5C14 15.3954 13.1045 14.5 12 14.5ZM12 9C11.9488 9 11.8981 8.99522 11.8477 8.99219L11.251 12.5703C11.4936 12.5243 11.744 12.5 12 12.5C12.2557 12.5 12.5057 12.5245 12.748 12.5703L12.1514 8.99219C12.1012 8.99519 12.0509 9 12 9ZM12 6C11.7239 6 11.5 6.22386 11.5 6.5C11.5 6.77614 11.7239 7 12 7C12.2761 6.99997 12.5 6.77612 12.5 6.5C12.5 6.22388 12.2761 6.00003 12 6Z" fill="#9E9E9E"/>
</g>
</svg>
