<svg width="24" height="24" viewBox="0 0 24 24" fill="none" xmlns="http://www.w3.org/2000/svg">
<g id="icons/Build/phone-booth">
<path id="Union" d="M17 1C17.5523 1 18 1.44772 18 2V21H22C22.5523 21 23 21.4477 23 22C23 22.5523 22.5523 23 22 23H2C1.44772 23 1 22.5523 1 22C1 21.4477 1.44772 21 2 21H6V2C6 1.44772 6.44772 1 7 1H17ZM8 20.5H16V18H8V20.5ZM8 16H9V14H8V16ZM11 16H16V14H11V16ZM8 12H9V6H8V12ZM11 7C11.5523 7 12 7.44772 12 8V10C12 10.5523 11.5523 11 11 11V12H16V6H11V7ZM8 4H16V3H8V4Z" fill="#9E9E9E"/>
</g>
</svg>
