<svg width="24" height="24" viewBox="0 0 24 24" fill="none" xmlns="http://www.w3.org/2000/svg">
<g id="icons/Build/prison">
<path id="Union" d="M10 1C10.5523 1 11 1.44772 11 2V6C11 6.82843 10.3284 7.5 9.5 7.5H9V10H12.5V6.5C12.5 5.94772 12.9477 5.5 13.5 5.5C14.0523 5.5 14.5 5.94772 14.5 6.5V7H16.5V6.5C16.5 5.94772 16.9477 5.5 17.5 5.5C18.0523 5.5 18.5 5.94772 18.5 6.5V7H20.5V6.5C20.5 5.94772 20.9477 5.5 21.5 5.5C22.0523 5.5 22.5 5.94772 22.5 6.5V22C22.5 22.5523 22.0523 23 21.5 23H3C2.44772 23 2 22.5523 2 22V11C2 10.4477 2.44772 10 3 10H4V7.5H3.5C2.67159 7.5 2 6.82845 2 6V2C2 1.44772 2.44772 1 3 1C3.55228 1 4 1.44772 4 2V2.5H5.5V2C5.5 1.44772 5.94772 1 6.5 1C7.05228 1 7.5 1.44772 7.5 2V2.5H9V2C9 1.44772 9.44772 1 10 1ZM4 21H7V12H4V21ZM9 21H12.5V12H9V21ZM14.5 10.1348C14.7987 10.3077 15 10.63 15 11C15 11.3698 14.7984 11.6912 14.5 11.8643V21H16.5V17C16.5 16.4477 16.9477 16 17.5 16C18.0523 16 18.5 16.4477 18.5 17V21H20.5V9H14.5V10.1348ZM6 10H7V7.5H6V10ZM4 5.5H9V4.5H4V5.5Z" fill="#9E9E9E"/>
</g>
</svg>
