<svg width="24" height="24" viewBox="0 0 24 24" fill="none" xmlns="http://www.w3.org/2000/svg">
<g id="icons/Build/pull-door">
<path id="Union" d="M11.8857 1.02344C12.1815 0.958554 12.4906 1.03099 12.7266 1.2207C12.9626 1.41052 13.0996 1.69712 13.0996 2V3H21.001C21.5531 3.00021 22.001 3.44785 22.001 4V20C22.0009 20.5521 21.553 20.9998 21.001 21H13.0996V22C13.0996 22.3028 12.9626 22.5895 12.7266 22.7793C12.4906 22.969 12.1814 23.0414 11.8857 22.9766L2.78516 20.9766C2.3267 20.8757 2.00008 20.4694 2 20V4C2 3.53051 2.32666 3.12432 2.78516 3.02344L11.8857 1.02344ZM4 4.80371V19.1953L11.0996 20.7559V3.24316L4 4.80371ZM13.0996 19H20.001V5H13.0996V19ZM9 10C9.55228 10 10 10.4477 10 11V13C9.99991 13.5522 9.55223 14 9 14C8.44777 14 8.00009 13.5522 8 13V11C8 10.4477 8.44772 10 9 10Z" fill="#9E9E9E"/>
</g>
</svg>
