<svg width="24" height="24" viewBox="0 0 24 24" fill="none" xmlns="http://www.w3.org/2000/svg">
<g id="icons/Build/push-door">
<path id="Union" d="M21 2C21.5523 2 22 2.44772 22 3V21C22 21.5523 21.5523 22 21 22H3C2.9915 22 2.98306 21.9983 2.97461 21.998C2.96678 21.9979 2.95899 21.9974 2.95117 21.9971C2.92049 21.9956 2.89024 21.9934 2.86035 21.9893C2.85181 21.9881 2.84347 21.9858 2.83496 21.9844C2.80618 21.9796 2.77789 21.974 2.75 21.9668C2.74189 21.9647 2.73364 21.9632 2.72559 21.9609C2.69399 21.9519 2.66305 21.9416 2.63281 21.9297C2.62859 21.928 2.62432 21.9265 2.62012 21.9248C2.59333 21.9138 2.56755 21.9009 2.54199 21.8877C2.52181 21.8773 2.50196 21.8663 2.48242 21.8545C2.46385 21.8432 2.44549 21.8318 2.42773 21.8193C2.42367 21.8165 2.41907 21.8144 2.41504 21.8115C2.4045 21.8039 2.39496 21.7951 2.38477 21.7871C2.37346 21.7783 2.36247 21.7691 2.35156 21.7598C2.34204 21.7516 2.33144 21.7448 2.32227 21.7363L2.29297 21.707C2.28433 21.6984 2.27688 21.6886 2.26855 21.6797C2.25614 21.6663 2.24307 21.6536 2.23145 21.6396C2.18827 21.5878 2.15027 21.5316 2.11816 21.4717C2.11062 21.4576 2.10354 21.4432 2.09668 21.4287C2.08575 21.4057 2.07559 21.3823 2.06641 21.3584C2.06331 21.3503 2.0605 21.3421 2.05762 21.334C2.04867 21.3087 2.04111 21.283 2.03418 21.2568C2.031 21.2449 2.02813 21.2328 2.02539 21.2207C2.01981 21.196 2.01543 21.1709 2.01172 21.1455C2.01009 21.1344 2.00712 21.1235 2.00586 21.1123C2.00174 21.0755 2 21.038 2 21V3C2 2.96172 2.00167 2.92388 2.00586 2.88672L2.00684 2.88086C2.01252 2.83347 2.02194 2.78688 2.03418 2.74121C2.05586 2.6601 2.08776 2.58332 2.12793 2.51172C2.13655 2.49632 2.14487 2.48075 2.1543 2.46582C2.15971 2.45727 2.16524 2.4488 2.1709 2.44043L2.19434 2.40723C2.20147 2.39752 2.20931 2.38836 2.2168 2.37891C2.22357 2.37038 2.23027 2.36181 2.2373 2.35352C2.25203 2.33613 2.26725 2.31914 2.2832 2.30273C2.28962 2.29613 2.29613 2.28962 2.30273 2.2832C2.32086 2.26557 2.33982 2.24874 2.35938 2.23242C2.36453 2.22812 2.36976 2.22393 2.375 2.21973C2.38818 2.20917 2.40126 2.19841 2.41504 2.18848L2.44043 2.1709C2.45397 2.16174 2.46842 2.15401 2.48242 2.14551C2.50209 2.1336 2.52167 2.12178 2.54199 2.11133C2.56754 2.09814 2.59335 2.08521 2.62012 2.07422C2.62431 2.0725 2.6286 2.07099 2.63281 2.06934C2.66302 2.05741 2.69402 2.04707 2.72559 2.03809C2.73364 2.0358 2.7419 2.03431 2.75 2.03223C2.77787 2.02505 2.80621 2.01943 2.83496 2.01465C2.84346 2.01324 2.85182 2.01096 2.86035 2.00977C2.89021 2.00559 2.92052 2.00343 2.95117 2.00195C2.95898 2.00158 2.96679 2.00117 2.97461 2.00098C2.98305 2.00077 2.99151 2 3 2H21ZM12.3164 5.05176C12.7246 5.18796 13 5.56967 13 6V18C13 18.4303 12.7246 18.812 12.3164 18.9482L9.16113 20H20V4H9.16113L12.3164 5.05176ZM4 19.6123L11 17.2793V6.71973L4 4.38672V19.6123ZM9 10C9.55228 10 10 10.4477 10 11V13C10 13.5523 9.55228 14 9 14C8.44772 14 8 13.5523 8 13V11C8 10.4477 8.44772 10 9 10Z" fill="#9E9E9E"/>
</g>
</svg>
