<svg width="24" height="24" viewBox="0 0 24 24" fill="none" xmlns="http://www.w3.org/2000/svg">
<g id="icons/Build/pyramid">
<path id="Union" d="M10.5243 5.00098C10.5499 5.00162 10.5756 5.0032 10.6014 5.00586C10.6165 5.00739 10.6315 5.00855 10.6464 5.01074C10.6825 5.01612 10.7186 5.02369 10.7548 5.0332C10.7646 5.0358 10.7743 5.0391 10.7841 5.04199C10.8155 5.05129 10.846 5.06216 10.8759 5.07422C10.8851 5.07795 10.8941 5.08193 10.9032 5.08594C10.929 5.09727 10.954 5.10975 10.9784 5.12305C10.9929 5.13094 11.0073 5.13886 11.0214 5.14746C11.088 5.18815 11.1487 5.23614 11.203 5.29004C11.2084 5.29539 11.2133 5.30116 11.2186 5.30664C11.24 5.32882 11.26 5.35201 11.2792 5.37598C11.288 5.387 11.2972 5.39774 11.3055 5.40918C11.3268 5.43821 11.3471 5.46791 11.3651 5.49902C11.3666 5.50168 11.3685 5.50416 11.37 5.50684L16.4989 14.5576L17.1425 13.4854L17.2177 13.377C17.4081 13.1378 17.7001 12.9967 18.0106 13C18.3656 13.0038 18.6919 13.1957 18.868 13.5039L22.868 20.5039C23.0449 20.8134 23.044 21.1937 22.8651 21.502C22.6862 21.8102 22.3563 22 21.9999 22H1.99988C1.6442 21.9999 1.31477 21.8112 1.13562 21.5039C0.956525 21.1965 0.954389 20.8164 1.12976 20.5068L9.62976 5.50684L9.64148 5.48828C9.65392 5.46738 9.6677 5.44751 9.68152 5.42773L9.703 5.39551C9.71699 5.37707 9.73279 5.36009 9.74792 5.34277C9.77916 5.30708 9.81182 5.27288 9.84753 5.24219C9.85243 5.23797 9.85721 5.23361 9.86218 5.22949L9.91882 5.18652C9.92625 5.18123 9.93372 5.17599 9.94128 5.1709C9.95051 5.16469 9.96018 5.15922 9.9696 5.15332C9.99002 5.14054 10.0108 5.12847 10.0321 5.11719C10.0447 5.11051 10.0573 5.1038 10.0702 5.09766C10.0869 5.08969 10.1038 5.08223 10.121 5.0752C10.1337 5.07 10.1461 5.06425 10.1591 5.05957L10.1737 5.05469C10.1961 5.04695 10.2191 5.04131 10.2421 5.03516C10.2627 5.02964 10.2835 5.02471 10.3046 5.02051C10.3266 5.0161 10.3486 5.01171 10.371 5.00879C10.3852 5.00694 10.3996 5.00612 10.4139 5.00488C10.4357 5.003 10.4574 5.00142 10.4794 5.00098C10.4862 5.00084 10.493 5 10.4999 5C10.508 5 10.5162 5.00078 10.5243 5.00098ZM7.80066 20H17.2841L10.8348 8.62012L7.80066 20ZM17.6307 16.5566L19.5829 20H20.2772L17.9784 15.9785L17.6307 16.5566ZM3.7157 20H5.7323L7.52332 13.2793L3.7157 20Z" fill="#9E9E9E"/>
</g>
</svg>
