<svg width="24" height="24" viewBox="0 0 24 24" fill="none" xmlns="http://www.w3.org/2000/svg">
<g id="icons/Build/school">
<path id="Union" d="M12.2852 1.50879C13.1583 1.15964 14.258 1.30352 15.5547 2.16797C16.5071 2.80281 16.9079 2.65966 16.9727 2.63379C17.0335 2.60939 17.0766 2.57292 17.1045 2.54199C17.1176 2.52745 17.1245 2.51598 17.126 2.51367C17.1256 2.5146 17.1244 2.51741 17.1221 2.52148C17.1204 2.5245 17.1179 2.52924 17.1152 2.53418C17.1139 2.53654 17.1118 2.53913 17.1104 2.54199C17.1097 2.54342 17.1092 2.54536 17.1084 2.54688L17.1074 2.54883C17.3157 2.13646 17.7795 1.92027 18.2295 2.02637C18.6808 2.13295 19 2.53625 19 3V6C18.9999 6.15501 18.9639 6.30862 18.8945 6.44727L18 6L18.8936 6.44824L18.8926 6.4502L18.8916 6.45312C18.8906 6.45499 18.8888 6.45692 18.8877 6.45898C18.8854 6.46349 18.8827 6.46938 18.8799 6.47461C18.8743 6.48508 18.8679 6.49747 18.8604 6.51074C18.8449 6.53786 18.8252 6.57112 18.8008 6.6084C18.752 6.68296 18.6825 6.778 18.5908 6.87988C18.4078 7.08314 18.1221 7.32734 17.7148 7.49023C16.8418 7.83934 15.7418 7.69629 14.4453 6.83203C13.4921 6.19656 13.0917 6.33949 13.0273 6.36523C13.0174 6.36921 13.009 6.37532 13 6.37988V7.46484L18.5547 11.168C18.8328 11.3534 19 11.6657 19 12V14.5H21C22.1046 14.5 23 15.3954 23 16.5V21C22.9998 22.1044 22.1045 23 21 23H2C1.44783 23 1.00019 22.5521 1 22V16.5C1 15.3954 1.89544 14.5 3 14.5H5V12C5 11.6657 5.16721 11.3534 5.44531 11.168L11 7.46484V3C11 2.92634 11.0083 2.85428 11.0234 2.78516C11.0268 2.76973 11.031 2.75451 11.0352 2.73926C11.0418 2.71476 11.0492 2.69071 11.0576 2.66699C11.0601 2.65991 11.0618 2.65253 11.0645 2.64551C11.0767 2.61305 11.091 2.58153 11.1064 2.55078L11.1074 2.5498L11.1084 2.54688C11.1094 2.54489 11.1111 2.54224 11.1123 2.54004C11.1146 2.53562 11.1174 2.53056 11.1201 2.52539C11.1258 2.5148 11.132 2.5018 11.1396 2.48828C11.1551 2.46116 11.1748 2.42791 11.1992 2.39062C11.2479 2.31611 11.3175 2.22199 11.4092 2.12012C11.5922 1.91679 11.8777 1.6718 12.2852 1.50879ZM7 12.5352V15.5C6.99981 16.0521 6.55217 16.5 6 16.5H3V21H9V15.5C9 14.9477 9.44771 14.5 10 14.5H14C14.5523 14.5 15 14.9477 15 15.5V21H21V16.5H18C17.4478 16.5 17.0002 16.0521 17 15.5V12.5352L12 9.20117L7 12.5352ZM11 21H13V16.5H11V21ZM14.4453 3.83203C13.4921 3.19655 13.0917 3.33949 13.0273 3.36523C13.0175 3.3692 13.0089 3.37539 13 3.37988V4.3418C13.7344 4.28096 14.5901 4.5249 15.5547 5.16797C16.5071 5.8028 16.9079 5.65966 16.9727 5.63379C16.9826 5.62978 16.991 5.62276 17 5.61816V4.65723C16.2656 4.71806 15.4098 4.47496 14.4453 3.83203Z" fill="#9E9E9E"/>
</g>
</svg>
