<svg width="24" height="24" viewBox="0 0 24 24" fill="none" xmlns="http://www.w3.org/2000/svg">
<g id="icons/Build/shop">
<path id="Union" d="M20 1C20.5523 1 21 1.44772 21 2V5H22C22.5523 5 23 5.44772 23 6V10C23 10.3512 22.8158 10.6767 22.5146 10.8574L21.8154 11.2773C21.5542 11.4341 21.2807 11.5609 21 11.6602V22C21 22.5523 20.5523 23 20 23H4C3.44772 23 3 22.5523 3 22V11.6602C2.7193 11.5609 2.44576 11.4341 2.18457 11.2773L1.48535 10.8574C1.18423 10.6767 1 10.3512 1 10V6C1 5.44772 1.44772 5 2 5H3V2C3 1.44772 3.44772 1 4 1H20ZM16.8154 11.2773C15.3903 12.1324 13.6097 12.1324 12.1846 11.2773L12 11.166L11.8154 11.2773C10.3903 12.1324 8.60965 12.1324 7.18457 11.2773L7 11.166L6.81543 11.2773C6.25138 11.6158 5.63137 11.8181 5 11.8887V21H8.5V16C8.5 15.4477 8.94772 15 9.5 15H14.5C15.0523 15 15.5 15.4477 15.5 16V21H19V11.8887C18.3686 11.8181 17.7486 11.6158 17.1846 11.2773L17 11.166L16.8154 11.2773ZM10.5 21H13.5V17H10.5V21ZM3 9.43359L3.21387 9.5625C4.00543 10.0373 4.99455 10.0373 5.78613 9.5625L6.48535 9.14258L6.60742 9.08008C6.89967 8.95531 7.2375 8.97629 7.51465 9.14258L8.21387 9.5625C9.00544 10.0373 9.99456 10.0373 10.7861 9.5625L11.4854 9.14258L11.6074 9.08008C11.8997 8.95531 12.2375 8.97629 12.5146 9.14258L13.2139 9.5625C14.0054 10.0373 14.9946 10.0373 15.7861 9.5625L16.4854 9.14258L16.6074 9.08008C16.8997 8.95531 17.2375 8.97629 17.5146 9.14258L18.2139 9.5625C19.0054 10.0373 19.9946 10.0373 20.7861 9.5625L21 9.43359V7H3V9.43359ZM5 5H19V3H5V5Z" fill="#9E9E9E"/>
</g>
</svg>
