<svg width="24" height="24" viewBox="0 0 24 24" fill="none" xmlns="http://www.w3.org/2000/svg">
<g id="icons/Build/signal-tower-one">
<path id="Union" d="M13.9999 1C14.4765 1 14.8868 1.33639 14.9803 1.80371L15.4198 4H16.4999C17.0522 4 17.4999 4.44772 17.4999 5C17.4999 5.55228 17.0522 6 16.4999 6H15.8641C15.8532 6.01879 15.8422 6.03747 15.83 6.05566L17.0194 12H17.9999C18.5522 12 18.9999 12.4477 18.9999 13C18.9999 13.5523 18.5522 14 17.9999 14H17.4198L18.9803 21.8037C19.0886 22.3452 18.7376 22.8721 18.1962 22.9805C17.6547 23.0887 17.1278 22.7377 17.0194 22.1963L16.6053 20.1299L12.1288 17.4434L7.53406 20.3457C7.46866 20.387 7.39998 20.4188 7.32996 20.4434L6.98035 22.1963C6.87194 22.7377 6.34508 23.0888 5.80359 22.9805C5.26219 22.872 4.91113 22.3452 5.01941 21.8037L6.57996 14H5.99988C5.44763 14 4.99988 13.5523 4.99988 13C4.99988 12.4477 5.44763 12 5.99988 12H6.98035L8.16882 6.05566C8.15673 6.03762 8.14641 6.01863 8.13562 6H7.49988C6.94763 5.99995 6.49988 5.55226 6.49988 5C6.49988 4.44774 6.94763 4.00005 7.49988 4H8.57996L9.01941 1.80371L9.04089 1.71777C9.1648 1.29578 9.55308 1.00004 9.99988 1H13.9999ZM7.86511 17.7695L10.2079 16.29L8.38074 15.1943L7.86511 17.7695ZM14.0223 16.2471L16.0751 17.4785L15.6259 15.2344L14.0223 16.2471ZM12.1014 15.0938L13.8348 14H10.2772L12.1014 15.0938ZM9.91394 12H14.0858L11.9989 9.91309L9.91394 12ZM13.413 8.49902L14.496 9.58203L14.1356 7.77734L13.413 8.49902ZM9.50281 9.58203L10.5848 8.49902L9.86316 7.77734L9.50281 9.58203ZM11.9989 7.08496L13.0858 6H10.9139L11.9989 7.08496ZM10.619 4H13.3807L13.1805 3H10.8192L10.619 4Z" fill="#9E9E9E"/>
</g>
</svg>
