<svg width="24" height="24" viewBox="0 0 24 24" fill="none" xmlns="http://www.w3.org/2000/svg">
<g id="icons/Build/space-colony">
<path id="Union" d="M20 1C21.1046 1 22 1.89544 22 3V21C22.5523 21 23 21.4477 23 22C23 22.5523 22.5523 23 22 23H2C1.44772 23 1 22.5523 1 22C1 21.4477 1.44772 21 2 21V20C2 18.4297 2.36281 16.9444 3.00781 15.6221C3.00294 15.582 3 15.5413 3 15.5V4C3 3.44772 3.44772 3 4 3C4.55228 3 5 3.44772 5 4V12.8604C5.59816 12.2738 6.27012 11.7632 7 11.3408V7C7 6.44772 7.44772 6 8 6C8.55228 6 9 6.44772 9 7V10.458C9.94706 10.1605 10.9548 10 12 10C12.8632 10 13.701 10.1088 14.5 10.3145V3C14.5 1.89544 15.3954 1 16.5 1H20ZM6.57617 18.2471C5.72718 18.3092 4.98082 18.3714 4.44727 18.418C4.33965 18.4274 4.24072 18.4362 4.15137 18.4443C4.05219 18.9476 4 19.4677 4 20V21H7.5V19.5C7.5 19.0533 7.51363 18.6127 7.54004 18.1807C7.20931 18.2025 6.88627 18.2244 6.57617 18.2471ZM12 18C11.2555 18 10.4121 18.0275 9.55273 18.0674C9.51863 18.5302 9.5 19.0089 9.5 19.5V21H14.5V19.5C14.5 19.0089 14.4804 18.5302 14.4463 18.0674C13.5872 18.0275 12.7443 18 12 18ZM16.459 18.1807C16.4854 18.6127 16.5 19.0533 16.5 19.5V21H20V20C20 19.4676 19.9469 18.9476 19.8477 18.4443C19.7586 18.4363 19.66 18.4273 19.5527 18.418C19.0192 18.3714 18.2728 18.3092 17.4238 18.2471C17.1134 18.2244 16.79 18.2025 16.459 18.1807ZM8.70117 12.7119C8.55379 12.8571 8.36185 12.9556 8.14746 12.9873C6.74221 13.761 5.59611 14.9454 4.86719 16.3779C5.31805 16.3404 5.85 16.2953 6.42969 16.2529C6.8529 16.222 7.30302 16.1904 7.7666 16.1611C7.95525 15.0242 8.23839 13.988 8.60059 13.1084C8.66226 12.9586 8.7274 12.8121 8.79492 12.6689C8.76341 12.6827 8.73247 12.6977 8.70117 12.7119ZM15.2041 12.6689C15.2717 12.8123 15.3377 12.9585 15.3994 13.1084C15.7616 13.988 16.0438 15.0242 16.2324 16.1611C16.6964 16.1904 17.1468 16.222 17.5703 16.2529C18.1496 16.2953 18.6812 16.3404 19.1318 16.3779C18.2938 14.731 16.9041 13.413 15.2041 12.6689ZM12 12C11.8695 12 11.6517 12.06 11.3545 12.3652C11.0541 12.6738 10.7374 13.1728 10.4502 13.8701C10.1952 14.4894 9.97892 15.2276 9.81738 16.0547C10.5792 16.0226 11.3253 16 12 16C12.6744 16 13.4202 16.0227 14.1816 16.0547C14.0201 15.2277 13.8048 14.4893 13.5498 13.8701C13.2626 13.1728 12.9459 12.6738 12.6455 12.3652C12.3483 12.06 12.1305 12 12 12ZM16.5 11.0703C17.8805 11.7674 19.0786 12.7726 20 13.999V8H16.5V11.0703ZM16.5 6H20V3H16.5V6Z" fill="#9E9E9E"/>
</g>
</svg>
