<svg width="24" height="24" viewBox="0 0 24 24" fill="none" xmlns="http://www.w3.org/2000/svg">
<g id="icons/Build/taj-mahal">
<path id="Union" d="M12 1C12.5523 1 13 1.44772 13 2V2.57617C13.1143 2.68764 13.2541 2.8248 13.4082 2.97656C13.8126 3.37481 14.3236 3.8853 14.7275 4.31445C14.9048 4.50278 15.0878 4.68018 15.2861 4.87305C15.4784 5.06006 15.6883 5.2643 15.8877 5.48145C16.2941 5.92406 16.6935 6.45698 16.9434 7.16895C17.1926 7.87927 17.0759 8.61565 16.8857 9.20898C16.6905 9.81804 16.3756 10.4071 16.0664 10.9023C16.0456 10.9356 16.0228 10.9673 16.002 11C16.5533 11.0011 17 11.4484 17 12V13H18V12C18 11.4477 18.4477 11 19 11C19.5523 11 20 11.4477 20 12V13C21.1046 13 22 13.8954 22 15V21C22.5523 21 23 21.4477 23 22C23 22.5523 22.5523 23 22 23H2C1.44772 23 1 22.5523 1 22C1 21.4477 1.44772 21 2 21V15C2 13.8954 2.89544 13 4 13V12C4 11.4477 4.44772 11 5 11C5.55228 11 6 11.4477 6 12V13H7V12C7 11.449 7.44561 11.0021 7.99609 11C7.97531 10.9675 7.95329 10.9354 7.93262 10.9023C7.62345 10.4072 7.30946 9.81794 7.11426 9.20898C6.92408 8.61566 6.80645 7.87927 7.05566 7.16895C7.30553 6.45703 7.70498 5.92404 8.11133 5.48145C8.31083 5.26415 8.52145 5.06017 8.71387 4.87305C8.91219 4.68018 9.09424 4.50278 9.27148 4.31445C9.67537 3.88532 10.1864 3.37484 10.5908 2.97656C10.7454 2.82435 10.8855 2.68684 11 2.5752V2C11 1.44772 11.4477 1 12 1ZM4 21H7V15H4V21ZM9 21H11V17C11 16.4477 11.4477 16 12 16C12.5523 16 13 16.4477 13 17V21H15V13H9V21ZM17 21H20V15H17V21ZM12 4.5C11.9661 4.5 11.9325 4.49842 11.8994 4.49512C11.5186 4.87128 11.0753 5.31608 10.7275 5.68555C10.5144 5.91199 10.2992 6.12108 10.1084 6.30664C9.91166 6.49796 9.74057 6.66451 9.58496 6.83398C9.28099 7.16505 9.07088 7.46778 8.94336 7.83105C8.90125 7.95103 8.8884 8.19257 9.01855 8.59863C9.14365 8.98885 9.36542 9.42075 9.62891 9.84277C9.88898 10.2593 10.1693 10.6347 10.3867 10.9072C10.413 10.9402 10.4398 10.9704 10.4639 11H13.5352C13.5593 10.9704 13.586 10.9402 13.6123 10.9072C13.8297 10.6347 14.11 10.2593 14.3701 9.84277C14.6336 9.42074 14.8554 8.98887 14.9805 8.59863C15.1106 8.19258 15.0978 7.95102 15.0557 7.83105C14.9281 7.46783 14.718 7.16501 14.4141 6.83398C14.2585 6.66463 14.0882 6.49782 13.8916 6.30664C13.7007 6.12099 13.4847 5.91212 13.2715 5.68555C12.9236 5.31588 12.4795 4.87139 12.0986 4.49512C12.0662 4.49829 12.0333 4.5 12 4.5Z" fill="#9E9E9E"/>
</g>
</svg>
