<svg width="24" height="24" viewBox="0 0 24 24" fill="none" xmlns="http://www.w3.org/2000/svg">
<g id="icons/Build/tower">
<path id="Union" d="M13.5 1C14.0523 1 14.5 1.44772 14.5 2V7.5C15.0523 7.5 15.5 7.94772 15.5 8.5V14.5C16.0523 14.5 16.5 14.9477 16.5 15.5V21H22C22.5523 21 23 21.4477 23 22C23 22.5523 22.5523 23 22 23H2C1.44772 23 1 22.5523 1 22C1 21.4477 1.44772 21 2 21H7.5V15.5C7.5 14.9477 7.94772 14.5 8.5 14.5V8.5C8.5 7.94772 8.94772 7.5 9.5 7.5V2C9.5 1.44772 9.94771 1 10.5 1H13.5ZM9.5 21H14.5V16.5H9.5V21ZM10.5 14.5H13.5V9.5H10.5V14.5ZM11.5 7.5H12.5V3H11.5V7.5Z" fill="#9E9E9E"/>
</g>
</svg>
