<svg width="24" height="24" viewBox="0 0 24 24" fill="none" xmlns="http://www.w3.org/2000/svg">
<g id="icons/Build/tower-of-babel">
<path id="Union" d="M14 1C14.5523 1 15 1.44772 15 2V5.73828L16.8779 5.50781C17.1622 5.47284 17.4475 5.56131 17.6621 5.75098C17.8767 5.94079 18 6.2135 18 6.5V10.5508L18.3857 10.5068C18.6689 10.4743 18.9522 10.5642 19.165 10.7539C19.3779 10.9436 19.5 11.2148 19.5 11.5V15.0547L19.876 15.0078C20.1606 14.9722 20.4471 15.0602 20.6621 15.25C20.8771 15.4398 21 15.7132 21 16V22C21 22.5523 20.5523 23 20 23H4C3.44772 23 3 22.5523 3 22V18C3 17.4957 3.37555 17.0704 3.87598 17.0078L4.5 16.9297V13C4.5 12.4921 4.88115 12.0651 5.38574 12.0068L6 11.9355V7.73047L6.00391 7.6377C6.04691 7.17434 6.40784 6.79615 6.87793 6.73828L9 6.47656V2C9 1.73478 9.10543 1.48051 9.29297 1.29297C9.4805 1.10543 9.73478 1 10 1H14ZM5 18.8818V21H19V17.1318L5 18.8818ZM6.5 13.8906V16.6797L17.5 15.3047V12.6211L6.5 13.8906ZM8 8.61523V11.7051L16 10.7812V7.62988L8 8.61523ZM11 6.23047L13 5.98438V3H11V6.23047Z" fill="#9E9E9E"/>
</g>
</svg>
