<svg width="24" height="24" viewBox="0 0 24 24" fill="none" xmlns="http://www.w3.org/2000/svg">
<g id="icons/Build/up-and-down">
<path id="Union" d="M22 5C22.5523 5 23 5.44772 23 6V22C23 22.5523 22.5523 23 22 23H6C5.44772 23 5 22.5523 5 22V18C5 17.4477 5.44772 17 6 17H9V14C9 13.4477 9.44771 13 10 13H13V10C13 9.44771 13.4477 9 14 9H17V6C17 5.44772 17.4477 5 18 5H22ZM19 10C19 10.5523 18.5523 11 18 11H15V14C15 14.5523 14.5523 15 14 15H11V18C11 18.5523 10.5523 19 10 19H7V21H21V7H19V10ZM5.79297 8.29297C6.18349 7.90244 6.81651 7.90244 7.20703 8.29297C7.59756 8.68349 7.59756 9.31651 7.20703 9.70703L4.41406 12.5H5C5.55228 12.5 6 12.9477 6 13.5C6 14.0523 5.55228 14.5 5 14.5H2C1.94333 14.5 1.88808 14.4934 1.83398 14.4844C1.82358 14.4826 1.81309 14.4816 1.80273 14.4795C1.79123 14.4772 1.77991 14.4744 1.76855 14.4717C1.74799 14.4668 1.72732 14.4623 1.70703 14.4561C1.65838 14.4412 1.61159 14.4222 1.56641 14.4004C1.52662 14.3812 1.48768 14.3597 1.4502 14.335C1.31255 14.2441 1.19887 14.1203 1.12012 13.9746C1.11269 13.9609 1.10634 13.9466 1.09961 13.9326C1.0778 13.8873 1.05783 13.8408 1.04297 13.792C1.0368 13.7717 1.0322 13.751 1.02734 13.7305C1.00987 13.6564 1 13.5794 1 13.5V10.5C1 9.94771 1.44772 9.5 2 9.5C2.55228 9.5 3 9.94771 3 10.5V11.0859L5.79297 8.29297ZM13.5 1C13.5563 1 13.6113 1.00571 13.665 1.01465C13.6738 1.01611 13.6827 1.01686 13.6914 1.01855L13.7012 1.02051C13.711 1.02252 13.7207 1.02504 13.7305 1.02734C13.751 1.0322 13.7717 1.0368 13.792 1.04297C13.8408 1.05783 13.8873 1.0778 13.9326 1.09961C13.9466 1.10634 13.9609 1.11269 13.9746 1.12012C14.1203 1.19887 14.2441 1.31255 14.335 1.4502C14.3597 1.48768 14.3812 1.52662 14.4004 1.56641C14.4222 1.61159 14.4412 1.65838 14.4561 1.70703C14.4623 1.72732 14.4668 1.74799 14.4717 1.76855C14.4893 1.84294 14.5 1.92022 14.5 2V5C14.5 5.55228 14.0523 6 13.5 6C12.9477 6 12.5 5.55228 12.5 5V4.41406L9.70703 7.20703C9.31651 7.59756 8.68349 7.59756 8.29297 7.20703C7.90244 6.81651 7.90244 6.18349 8.29297 5.79297L11.0859 3H10.5C9.94771 3 9.5 2.55228 9.5 2C9.5 1.44772 9.94771 1 10.5 1H13.5Z" fill="#9E9E9E"/>
</g>
</svg>
