<svg width="24" height="24" viewBox="0 0 24 24" fill="none" xmlns="http://www.w3.org/2000/svg">
<g id="icons/Build/windmill-one">
<path id="Union" d="M5.05286 1.54297C5.64199 1.06251 6.51153 1.09737 7.06067 1.64648L8.8634 3.44922L9.98743 2.8877C11.2543 2.25437 12.746 2.2543 14.0128 2.8877L17.4474 4.60547L17.549 4.66406C17.6233 4.71288 17.6891 4.7722 17.7472 4.83789L18.9396 3.64648L19.0529 3.54297C19.642 3.06252 20.5115 3.09737 21.0607 3.64648L22.3536 4.93945C22.9392 5.52518 22.9392 6.4748 22.3536 7.06055L18.924 10.4893L19.4835 13.5713L20.4884 19.0967C20.9337 19.6844 20.8897 20.5244 20.3536 21.0605L19.0607 22.3535C18.9941 22.4201 18.9217 22.4779 18.8468 22.5293C18.6701 22.8116 18.3577 22.9999 18.0001 23H4.00012C3.70361 23 3.42254 22.8683 3.23254 22.6406C3.04259 22.413 2.96372 22.113 3.01672 21.8213L3.24036 20.584C3.13341 20.5209 3.03144 20.4454 2.93958 20.3535L1.64661 19.0605C1.06088 18.4748 1.06087 17.5252 1.64661 16.9395L4.40442 14.1807L5.69153 7.10547L3.64661 5.06055C3.0609 4.47476 3.06088 3.52522 3.64661 2.93945L4.93958 1.64648L5.05286 1.54297ZM13.2902 14.7041C12.8989 14.8912 12.4627 15 12.0001 15C11.5372 15 11.1006 14.8913 10.7091 14.7041L9.35364 16.0605L5.37219 20.041L5.19836 21H15.5861L12.6466 18.0605C12.0609 17.4748 12.0609 16.5252 12.6466 15.9395L13.5861 15L13.2902 14.7041ZM14.4142 17L18.0001 20.5859L18.5861 20L15.0001 16.4141L14.4142 17ZM6.20618 15.207C6.11006 15.3941 5.95881 15.5434 5.77649 15.6377L3.41418 18L3.94153 18.5273C4.01089 18.4832 4.08555 18.447 4.16418 18.4209L7.58606 15L7.00012 14.4141L6.20618 15.207ZM14.7042 10.709C14.8915 11.1004 15.0001 11.5371 15.0001 12C15.0001 12.4625 14.8912 12.8988 14.7042 13.29L17.9991 16.585L17.5167 13.9287L17.1271 11.7861C16.7021 11.8221 16.2648 11.6787 15.9396 11.3535L15.0001 10.4141L14.7042 10.709ZM6.79407 12.2207C7.2433 12.1591 7.71537 12.3012 8.06067 12.6465L9.00012 13.5859L9.29407 13.291C9.10708 12.8997 9.00012 12.4626 9.00012 12C9.00015 11.5372 9.10787 11.1004 9.29504 10.709L7.41125 8.8252L6.79407 12.2207ZM12.0001 11C11.4479 11 11.0002 11.4478 11.0001 12C11.0001 12.5523 11.4478 13 12.0001 13C12.5523 12.9999 13.0001 12.5522 13.0001 12C13 11.4479 12.5523 11.0001 12.0001 11ZM18.2198 7.19336C18.1275 7.52157 17.8712 7.79007 17.5275 7.88574L16.4142 9L17.0001 9.58594L17.1212 9.46387C17.1355 9.44883 17.15 9.43407 17.1652 9.41992L20.5861 6L20.0001 5.41406L18.2198 7.19336ZM13.1183 4.67676C12.4145 4.32489 11.5857 4.32496 10.882 4.67676L10.3546 4.94043L11.3536 5.93945C11.9392 6.52518 11.9392 7.4748 11.3536 8.06055L10.4142 9L10.7091 9.29492C11.1004 9.10786 11.5374 9 12.0001 9C12.4625 9.00003 12.899 9.10803 13.2902 9.29492L14.7931 7.79297H14.7921L16.1525 6.43262L16.1056 6.1709L13.1183 4.67676ZM5.41418 4L7.16809 5.75391C7.41652 5.85649 7.608 6.05364 7.70813 6.29395L9.00012 7.58594L9.58606 7L6.00012 3.41406L5.41418 4Z" fill="#9E9E9E"/>
</g>
</svg>
