<svg width="24" height="24" viewBox="0 0 24 24" fill="none" xmlns="http://www.w3.org/2000/svg">
<g id="icons/Build/xiaodu-home">
<path id="Union" d="M11.5605 2.10156C11.8836 1.94346 12.272 1.96992 12.5732 2.18066L22.5732 9.18066C22.8406 9.36778 23 9.6737 23 10V21C23 21.5523 22.5523 22 22 22H2C1.44772 22 1 21.5523 1 21V10C1.00002 9.6737 1.15944 9.36778 1.42676 9.18066L11.4268 2.18066L11.5605 2.10156ZM3 10.5205V20H21V10.5205L12 4.21973L3 10.5205ZM12 14C12.6566 14 13.3074 14.1295 13.9141 14.3809C14.5206 14.6321 15.072 15.0008 15.5361 15.4648C15.9263 15.8554 15.9265 16.4885 15.5361 16.8789C15.1457 17.2693 14.5126 17.2691 14.1221 16.8789C13.8435 16.6003 13.5123 16.3792 13.1484 16.2285C12.7845 16.0778 12.394 16 12 16C11.6062 16 11.2163 16.0778 10.8525 16.2285C10.4886 16.3793 10.1574 16.6004 9.87891 16.8789C9.48842 17.2692 8.85533 17.2692 8.46484 16.8789C8.0744 16.4884 8.07449 15.8554 8.46484 15.4648C8.92909 15.0006 9.48033 14.6321 10.0869 14.3809L10.3164 14.292C10.8561 14.0989 11.4257 14 12 14ZM12 10C13.1816 10 14.3517 10.2325 15.4434 10.6846V10.6855C16.5352 11.1378 17.5276 11.8002 18.3633 12.6357C18.7538 13.0262 18.7537 13.6593 18.3633 14.0498C17.9728 14.4403 17.3398 14.4403 16.9492 14.0498C16.2993 13.4001 15.5277 12.8849 14.6787 12.5332C13.8295 12.1815 12.9191 12 12 12C11.0809 12 10.1705 12.1815 9.32129 12.5332C8.47213 12.885 7.69982 13.3999 7.0498 14.0498C6.65927 14.4403 6.02625 14.4403 5.63574 14.0498C5.24542 13.6593 5.24527 13.0262 5.63574 12.6357C6.47143 11.8002 7.46381 11.1378 8.55566 10.6855V10.6846C9.64747 10.2324 10.8182 10 12 10Z" fill="#9E9E9E"/>
</g>
</svg>
