<svg width="24" height="24" viewBox="0 0 24 24" fill="none" xmlns="http://www.w3.org/2000/svg">
<g id="icons/Communicate/comment-one">
<path id="Union" d="M22 2C22.5523 2 23 2.44772 23 3V18C23 18.5523 22.5523 19 22 19H11.7363L6.94727 21.3945C6.63735 21.5495 6.26939 21.5327 5.97461 21.3506C5.67979 21.1684 5.5 20.8466 5.5 20.5V19H2C1.44772 19 1 18.5523 1 18V3C1 2.44772 1.44772 2 2 2H22ZM3 17H6.5C7.05228 17 7.5 17.4477 7.5 18V18.8818L11.0527 17.1055C11.1916 17.036 11.3448 17 11.5 17H21V4H3V17ZM17 9.5C17.5523 9.5 18 9.94772 18 10.5C18 11.0523 17.5523 11.5 17 11.5H7C6.44772 11.5 6 11.0523 6 10.5C6 9.94772 6.44772 9.5 7 9.5H17Z" fill="#9E9E9E"/>
</g>
</svg>
