<svg width="24" height="24" viewBox="0 0 24 24" fill="none" xmlns="http://www.w3.org/2000/svg">
<g id="icons/Communicate/comments">
<path id="Union" d="M18 2C18.5523 2 19 2.44772 19 3V10H22C22.5523 10 23 10.4477 23 11V19C23 19.5523 22.5523 20 22 20H19.9141L18.707 21.207C18.3165 21.5976 17.6835 21.5976 17.293 21.207L16.0859 20H11C10.4477 20 10 19.5523 10 19V16H8.91406L7.20703 17.707C6.81651 18.0976 6.18349 18.0976 5.79297 17.707L4.08594 16H2C1.44772 16 1 15.5523 1 15V3C1 2.44772 1.44772 2 2 2H18ZM19 15C19 15.5523 18.5523 16 18 16H12V18H16.5C16.7652 18 17.0195 18.1054 17.207 18.293L18 19.0859L18.793 18.293L18.8662 18.2266C19.0442 18.0807 19.2679 18 19.5 18H21V12H19V15ZM3 14H4.5C4.76522 14 5.0195 14.1054 5.20703 14.293L6.5 15.5859L7.79297 14.293L7.86621 14.2266C8.04417 14.0807 8.26791 14 8.5 14H17V4H3V14ZM9 10C9.55229 10 10 10.4477 10 11C10 11.5523 9.55229 12 9 12H6C5.44772 12 5 11.5523 5 11C5 10.4477 5.44772 10 6 10H9ZM12 6C12.5523 6 13 6.44772 13 7C13 7.55228 12.5523 8 12 8H6C5.44772 8 5 7.55228 5 7C5 6.44772 5.44772 6 6 6H12Z" fill="#9E9E9E"/>
</g>
</svg>
