<svg width="24" height="24" viewBox="0 0 24 24" fill="none" xmlns="http://www.w3.org/2000/svg">
<g id="icons/Communicate/message-security">
<path id="Union" d="M22 2.5C22.5523 2.5 23 2.94772 23 3.5V9C23 9.55228 22.5523 10 22 10C21.4477 10 21 9.55228 21 9V4.5H3V17.5H5.5C6.05228 17.5 6.5 17.9477 6.5 18.5V19.3818L10.0527 17.6055C10.1916 17.536 10.3448 17.5 10.5 17.5H12.75C13.3023 17.5 13.75 17.9477 13.75 18.5C13.75 19.0523 13.3023 19.5 12.75 19.5H10.7363L5.94727 21.8945C5.63735 22.0495 5.26939 22.0327 4.97461 21.8506C4.67979 21.6684 4.5 21.3466 4.5 21V19.5H2C1.44772 19.5 1 19.0523 1 18.5V3.5C1 2.94772 1.44772 2.5 2 2.5H22ZM17.708 10.043C17.898 9.98505 18.102 9.98505 18.292 10.043V10.0439H18.293L18.2949 10.0449C18.2969 10.0455 18.3001 10.0458 18.3037 10.0469C18.311 10.0491 18.3215 10.0525 18.335 10.0566C18.3621 10.0651 18.4017 10.0772 18.4512 10.0928C18.5504 10.1241 18.6915 10.1698 18.8604 10.2256C19.1967 10.3366 19.65 10.4912 20.1064 10.665C20.5552 10.836 21.0394 11.0372 21.4238 11.2422C21.6113 11.3422 21.8185 11.4657 21.9922 11.6113C22.079 11.6841 22.1884 11.7886 22.2832 11.9258C22.3753 12.0591 22.4999 12.2917 22.5 12.5996C22.5 15.0247 21.5014 16.8419 20.5234 18.0342C20.0351 18.6295 19.5468 19.076 19.1777 19.376C18.9927 19.5264 18.8356 19.6414 18.7217 19.7207C18.6648 19.7603 18.6181 19.7913 18.584 19.8135L18.5293 19.8486C18.5276 19.8497 18.5258 19.8507 18.5244 19.8516L18.5225 19.8525L18.5215 19.8535C18.5211 19.8538 18.5205 19.8539 18 19L18.5205 19.8535C18.2009 20.0483 17.7991 20.0483 17.4795 19.8535L18 19C17.4795 19.8539 17.4789 19.8538 17.4785 19.8535L17.4775 19.8525L17.4756 19.8516C17.4742 19.8507 17.4724 19.8497 17.4707 19.8486L17.416 19.8135C17.3819 19.7913 17.3352 19.7603 17.2783 19.7207C17.1644 19.6414 17.0073 19.5264 16.8223 19.376C16.4532 19.076 15.9649 18.6295 15.4766 18.0342C14.4986 16.8419 13.5 15.0247 13.5 12.5996C13.5001 12.2917 13.6247 12.0591 13.7168 11.9258C13.8116 11.7886 13.921 11.6841 14.0078 11.6113C14.1815 11.4657 14.3887 11.3422 14.5762 11.2422C14.9606 11.0372 15.4448 10.836 15.8936 10.665C16.35 10.4912 16.8033 10.3366 17.1396 10.2256C17.3085 10.1698 17.4496 10.1241 17.5488 10.0928C17.5983 10.0772 17.6379 10.0651 17.665 10.0566C17.6785 10.0525 17.689 10.0491 17.6963 10.0469C17.6999 10.0458 17.7031 10.0455 17.7051 10.0449L17.707 10.0439H17.708V10.043ZM17.7666 12.125C17.4469 12.2306 17.0248 12.3748 16.6064 12.5342C16.1803 12.6965 15.7893 12.8629 15.5176 13.0078C15.5164 13.0084 15.5148 13.0082 15.5137 13.0088C15.6146 14.6475 16.3097 15.8955 17.0234 16.7656C17.373 17.1918 17.7239 17.5201 18 17.752C18.2761 17.5201 18.627 17.1918 18.9766 16.7656C19.6903 15.8955 20.3844 14.6475 20.4854 13.0088C20.4845 13.0083 20.4833 13.0083 20.4824 13.0078C20.2107 12.8629 19.8197 12.6965 19.3936 12.5342C18.9752 12.3748 18.5531 12.2306 18.2334 12.125C18.147 12.0965 18.0684 12.0708 18 12.0488C17.9316 12.0708 17.853 12.0965 17.7666 12.125ZM12 9.5C12.5523 9.5 13 9.94772 13 10.5C13 11.0523 12.5523 11.5 12 11.5H6C5.44772 11.5 5 11.0523 5 10.5C5 9.94772 5.44772 9.5 6 9.5H12ZM9 6.5C9.55229 6.5 10 6.94772 10 7.5C10 8.05228 9.55229 8.5 9 8.5H6C5.44772 8.5 5 8.05228 5 7.5C5 6.94772 5.44772 6.5 6 6.5H9Z" fill="#9E9E9E"/>
</g>
</svg>
