<svg width="24" height="24" viewBox="0 0 24 24" fill="none" xmlns="http://www.w3.org/2000/svg">
<g id="icons/Communicate/message-emoji">
<path id="Union" d="M22 2.5C22.5523 2.5 23 2.94772 23 3.5V18.5C23 19.0523 22.5523 19.5 22 19.5H10.7363L5.94727 21.8945C5.63735 22.0495 5.26939 22.0327 4.97461 21.8506C4.67979 21.6684 4.5 21.3466 4.5 21V19.5H2C1.44772 19.5 1 19.0523 1 18.5V3.5C1 2.94772 1.44772 2.5 2 2.5H22ZM3 17.5H5.5C6.05228 17.5 6.5 17.9477 6.5 18.5V19.3818L10.0527 17.6055C10.1916 17.536 10.3448 17.5 10.5 17.5H21V4.5H3V17.5ZM14.6104 12.0439C14.8601 11.5565 15.4563 11.36 15.9473 11.6055C16.4412 11.8525 16.6415 12.4533 16.3945 12.9473L15.5 12.5C16.3365 12.9183 16.3903 12.9461 16.3936 12.9482V12.9492L16.3926 12.9512C16.3919 12.9526 16.3905 12.9544 16.3896 12.9561C16.388 12.9592 16.3859 12.9627 16.3838 12.9668C16.3793 12.9754 16.3739 12.9867 16.3672 12.999C16.3538 13.0237 16.3359 13.0557 16.3135 13.0938C16.2685 13.17 16.2051 13.272 16.1211 13.3906C15.9536 13.6271 15.7005 13.9369 15.3516 14.2471C14.6453 14.8749 13.5428 15.5 12 15.5C10.4572 15.5 9.35473 14.8749 8.64844 14.2471C8.2995 13.9369 8.04639 13.6271 7.87891 13.3906C7.79488 13.272 7.73146 13.17 7.68652 13.0938C7.66411 13.0557 7.64617 13.0237 7.63281 12.999C7.62612 12.9867 7.6207 12.9754 7.61621 12.9668C7.6141 12.9627 7.61198 12.9592 7.61035 12.9561C7.60951 12.9544 7.60813 12.9526 7.60742 12.9512L7.60645 12.9492V12.9482C7.60974 12.9461 7.66348 12.9183 8.5 12.5L7.60547 12.9473C7.35848 12.4533 7.55876 11.8525 8.05273 11.6055C8.54371 11.36 9.13991 11.5565 9.38965 12.0439L9.3916 12.0459C9.39408 12.0505 9.39953 12.0617 9.40918 12.0781C9.42868 12.1112 9.46303 12.1656 9.51172 12.2344C9.60987 12.3729 9.76306 12.5631 9.97656 12.7529C10.3953 13.1251 11.0428 13.5 12 13.5C12.9572 13.5 13.6047 13.1251 14.0234 12.7529C14.2369 12.5631 14.3901 12.3729 14.4883 12.2344C14.537 12.1656 14.5713 12.1112 14.5908 12.0781C14.6005 12.0617 14.6059 12.0505 14.6084 12.0459C14.6094 12.0441 14.6105 12.0437 14.6104 12.0439ZM8.5 7C9.05229 7 9.5 7.44772 9.5 8V8.5C9.5 9.05228 9.05229 9.5 8.5 9.5C7.94772 9.5 7.5 9.05228 7.5 8.5V8C7.5 7.44772 7.94772 7 8.5 7ZM15.5 7C16.0523 7 16.5 7.44772 16.5 8V8.5C16.5 9.05228 16.0523 9.5 15.5 9.5C14.9477 9.5 14.5 9.05228 14.5 8.5V8C14.5 7.44772 14.9477 7 15.5 7Z" fill="#9E9E9E"/>
</g>
</svg>
