<svg width="24" height="24" viewBox="0 0 24 24" fill="none" xmlns="http://www.w3.org/2000/svg">
<g id="icons/Communicate/message-privacy">
<path id="Union" d="M22 2.5C22.5523 2.5 23 2.94772 23 3.5V9C23 9.55228 22.5523 10 22 10C21.4477 10 21 9.55228 21 9V4.5H3V17.5H5.5C6.05228 17.5 6.5 17.9477 6.5 18.5V19.3818L10.0527 17.6055C10.1916 17.536 10.3448 17.5 10.5 17.5H12.75C13.3023 17.5 13.75 17.9477 13.75 18.5C13.75 19.0523 13.3023 19.5 12.75 19.5H10.7363L5.94727 21.8945C5.63735 22.0495 5.26939 22.0327 4.97461 21.8506C4.67979 21.6684 4.5 21.3466 4.5 21V19.5H2C1.44772 19.5 1 19.0523 1 18.5V3.5C1 2.94772 1.44772 2.5 2 2.5H22ZM18.5 9.5C19.8807 9.5 21 10.6193 21 12V12.5H22C22.5523 12.5 23 12.9477 23 13.5V17.5C23 18.0523 22.5523 18.5 22 18.5H15C14.4477 18.5 14 18.0523 14 17.5V13.5C14 12.9477 14.4477 12.5 15 12.5H16V12C16 10.6193 17.1193 9.5 18.5 9.5ZM16 16.5H21V14.5H16V16.5ZM18.5 11.5C18.2238 11.5 18 11.7238 18 12V12.5H19V12C19 11.7238 18.7762 11.5 18.5 11.5ZM12 9.5C12.5523 9.5 13 9.94772 13 10.5C13 11.0523 12.5523 11.5 12 11.5H6C5.44772 11.5 5 11.0523 5 10.5C5 9.94772 5.44772 9.5 6 9.5H12ZM9 6.5C9.55229 6.5 10 6.94772 10 7.5C10 8.05228 9.55229 8.5 9 8.5H6C5.44772 8.5 5 8.05228 5 7.5C5 6.94772 5.44772 6.5 6 6.5H9Z" fill="#9E9E9E"/>
</g>
</svg>
