<svg width="24" height="24" viewBox="0 0 24 24" fill="none" xmlns="http://www.w3.org/2000/svg">
<g id="icons/Communicate/message-unread">
<path id="Union" d="M17 2C17.5523 2 18 2.44772 18 3C18 3.55228 17.5523 4 17 4H3V17H9.5C9.76522 17 10.0195 17.1054 10.207 17.293L12 19.0859L13.793 17.293L13.8662 17.2266C14.0442 17.0807 14.2679 17 14.5 17H21V8C21 7.44772 21.4477 7 22 7C22.5523 7 23 7.44772 23 8V18C23 18.5523 22.5523 19 22 19H14.9141L12.707 21.207C12.3165 21.5976 11.6835 21.5976 11.293 21.207L9.08594 19H2C1.44772 19 1 18.5523 1 18V3C1 2.44772 1.44772 2 2 2H17ZM7.5 9C8.05228 9 8.5 9.44772 8.5 10C8.5 10.5523 8.05228 11 7.5 11H6.50098C5.94869 11 5.50098 10.5523 5.50098 10C5.50098 9.44772 5.94869 9 6.50098 9H7.5ZM12.501 9C13.0533 9 13.501 9.44772 13.501 10C13.501 10.5523 13.0533 11 12.501 11H11.5C10.9477 11 10.5 10.5523 10.5 10C10.5 9.44772 10.9477 9 11.5 9H12.501ZM17.6025 9.00488C18.1069 9.05602 18.5 9.48218 18.5 10C18.5 10.5178 18.1069 10.944 17.6025 10.9951L17.5 11H16.501C15.9487 11 15.501 10.5523 15.501 10C15.501 9.44772 15.9487 9 16.501 9H17.5L17.6025 9.00488ZM21.5 2C22.3284 2 23 2.67157 23 3.5C23 4.32843 22.3284 5 21.5 5C20.6716 5 20 4.32843 20 3.5C20 2.67157 20.6716 2 21.5 2Z" fill="#9E9E9E"/>
</g>
</svg>
