<svg width="24" height="24" viewBox="0 0 24 24" fill="none" xmlns="http://www.w3.org/2000/svg">
<g id="icons/Communicate/message-success">
<path id="Union" d="M22 2C22.5523 2 23 2.44772 23 3V8.5C23 9.05228 22.5523 9.5 22 9.5C21.4477 9.5 21 9.05228 21 8.5V4H3V17H5.5C6.05228 17 6.5 17.4477 6.5 18V18.8818L10.0527 17.1055C10.1916 17.036 10.3448 17 10.5 17H12.75C13.3023 17 13.75 17.4477 13.75 18C13.75 18.5523 13.3023 19 12.75 19H10.7363L5.94727 21.3945C5.63735 21.5495 5.26939 21.5327 4.97461 21.3506C4.67979 21.1684 4.5 20.8466 4.5 20.5V19H2C1.44772 19 1 18.5523 1 18V3C1 2.44772 1.44772 2 2 2H22ZM21.2256 11.3672C21.5752 10.9399 22.2054 10.8763 22.6328 11.2256C23.0601 11.5752 23.1237 12.2054 22.7744 12.6328L18.2744 18.1328C18.1055 18.3393 17.8603 18.4698 17.5947 18.4951C17.3292 18.5204 17.0643 18.4393 16.8594 18.2686L13.8594 15.7686C13.4352 15.415 13.3779 14.7836 13.7314 14.3594C14.085 13.9352 14.7164 13.8779 15.1406 14.2314L17.3652 16.085L21.2256 11.3672ZM12 9C12.5523 9 13 9.44772 13 10C13 10.5523 12.5523 11 12 11H6C5.44772 11 5 10.5523 5 10C5 9.44772 5.44772 9 6 9H12ZM9 6C9.55229 6 10 6.44772 10 7C10 7.55228 9.55229 8 9 8H6C5.44772 8 5 7.55228 5 7C5 6.44772 5.44772 6 6 6H9Z" fill="#9E9E9E"/>
</g>
</svg>
