<svg width="24" height="24" viewBox="0 0 24 24" fill="none" xmlns="http://www.w3.org/2000/svg">
<g id="icons/Communicate/message-one">
<path id="Union" d="M22 2C22.5523 2 23 2.44772 23 3V18C23 18.5523 22.5523 19 22 19H14.9141L12.707 21.207C12.3165 21.5976 11.6835 21.5976 11.293 21.207L9.08594 19H2C1.44772 19 1 18.5523 1 18V3C1 2.44772 1.44772 2 2 2H22ZM3 17H9.5C9.76522 17 10.0195 17.1054 10.207 17.293L12 19.0859L13.793 17.293L13.8662 17.2266C14.0442 17.0807 14.2679 17 14.5 17H21V4H3V17ZM7.5 9.5C8.05228 9.5 8.5 9.94772 8.5 10.5C8.5 11.0523 8.05228 11.5 7.5 11.5H6.50098C5.94869 11.5 5.50098 11.0523 5.50098 10.5C5.50098 9.94772 5.94869 9.5 6.50098 9.5H7.5ZM12.501 9.5C13.0533 9.5 13.501 9.94772 13.501 10.5C13.501 11.0523 13.0533 11.5 12.501 11.5H11.5C10.9477 11.5 10.5 11.0523 10.5 10.5C10.5 9.94772 10.9477 9.5 11.5 9.5H12.501ZM17.6025 9.50488C18.1069 9.55602 18.5 9.98218 18.5 10.5C18.5 11.0178 18.1069 11.444 17.6025 11.4951L17.5 11.5H16.501C15.9487 11.5 15.501 11.0523 15.501 10.5C15.501 9.94772 15.9487 9.5 16.501 9.5H17.5L17.6025 9.50488Z" fill="#9E9E9E"/>
</g>
</svg>
