<svg width="24" height="24" viewBox="0 0 24 24" fill="none" xmlns="http://www.w3.org/2000/svg">
<g id="icons/Communicate/message-sent">
<path id="Union" d="M12 1C18.0751 1 23 5.92487 23 12C23 18.0751 18.0751 23 12 23H2C1.44772 23 1 22.5523 1 22V12C1 5.92487 5.92487 1 12 1ZM12 3C7.02943 3 3 7.02943 3 12V21H12C16.9706 21 21 16.9706 21 12C21 7.02943 16.9706 3 12 3ZM15.793 8.79297C16.1835 8.40245 16.8165 8.40247 17.207 8.79297C17.5976 9.18349 17.5976 9.81651 17.207 10.207L10.707 16.707C10.3165 17.0975 9.68349 17.0975 9.29297 16.707L6.29297 13.707C5.90245 13.3165 5.90245 12.6835 6.29297 12.293C6.68349 11.9024 7.31651 11.9024 7.70703 12.293L10 14.5859L15.793 8.79297Z" fill="#9E9E9E"/>
</g>
</svg>
