<svg width="24" height="24" viewBox="0 0 24 24" fill="none" xmlns="http://www.w3.org/2000/svg">
<g id="icons/Communicate/message-search">
<path id="Union" d="M22 2.5C22.5523 2.5 23 2.94772 23 3.5V9C23 9.55228 22.5523 10 22 10C21.4477 10 21 9.55228 21 9V4.5H3V17.5H5.5C6.05228 17.5 6.5 17.9477 6.5 18.5V19.3818L10.0527 17.6055C10.1916 17.536 10.3448 17.5 10.5 17.5H12.75C13.3023 17.5 13.75 17.9477 13.75 18.5C13.75 19.0523 13.3023 19.5 12.75 19.5H10.7363L5.94727 21.8945C5.63735 22.0495 5.26939 22.0327 4.97461 21.8506C4.67979 21.6684 4.5 21.3466 4.5 21V19.5H2C1.44772 19.5 1 19.0523 1 18.5V3.5C1 2.94772 1.44772 2.5 2 2.5H22ZM17 10C19.2091 10 21 11.7909 21 14C21 14.5838 20.8732 15.1376 20.6484 15.6377L22.625 17.2188C23.0563 17.5638 23.1263 18.1937 22.7812 18.625C22.4362 19.0563 21.8063 19.1263 21.375 18.7812L19.3984 17.2002C18.7301 17.7019 17.9001 18 17 18C14.7909 18 13 16.2091 13 14C13 11.7909 14.7909 10 17 10ZM17 12C15.8954 12 15 12.8954 15 14C15 15.1046 15.8954 16 17 16C18.1046 16 19 15.1046 19 14C19 12.8954 18.1046 12 17 12ZM12 9.5C12.5523 9.5 13 9.94772 13 10.5C13 11.0523 12.5523 11.5 12 11.5H6C5.44772 11.5 5 11.0523 5 10.5C5 9.94772 5.44772 9.5 6 9.5H12ZM9 6.5C9.55229 6.5 10 6.94772 10 7.5C10 8.05228 9.55229 8.5 9 8.5H6C5.44772 8.5 5 8.05228 5 7.5C5 6.94772 5.44772 6.5 6 6.5H9Z" fill="#9E9E9E"/>
</g>
</svg>
