<svg width="24" height="24" viewBox="0 0 24 24" fill="none" xmlns="http://www.w3.org/2000/svg">
<g id="icons/Communicate/message">
<path id="Union" d="M12 1C18.0751 1 23 5.92487 23 12C23 18.0751 18.0751 23 12 23H2C1.44772 23 1 22.5523 1 22V12C1 5.92487 5.92488 1.00001 12 1ZM12 3C7.02944 3.00001 3 7.02944 3 12V21H12C16.9706 21 21 16.9706 21 12C21 7.02943 16.9706 3 12 3ZM12 16C12.5523 16 13 16.4477 13 17C13 17.5523 12.5523 18 12 18H7C6.44772 18 6 17.5523 6 17C6 16.4477 6.44772 16 7 16H12ZM16 12C16.5523 12 17 12.4477 17 13C17 13.5523 16.5523 14 16 14H7C6.44772 14 6 13.5523 6 13C6 12.4477 6.44772 12 7 12H16ZM16 8C16.5523 8 17 8.44772 17 9C17 9.55229 16.5523 10 16 10H7C6.44772 10 6 9.55229 6 9C6 8.44772 6.44772 8 7 8H16Z" fill="#9E9E9E"/>
</g>
</svg>
