<svg width="24" height="24" viewBox="0 0 24 24" fill="none" xmlns="http://www.w3.org/2000/svg">
<g id="icons/Communicate/online-meeting">
<path id="Union" d="M22 3C22.5523 3 23 3.44772 23 4V19C23 19.5523 22.5523 20 22 20H14.9141L12.707 22.207C12.3165 22.5976 11.6835 22.5976 11.293 22.207L9.08594 20H2C1.44772 20 1 19.5523 1 19V4C1 3.44772 1.44772 3 2 3H22ZM3 18H9.5C9.76522 18 10.0195 18.1054 10.207 18.293L12 20.0859L13.793 18.293L13.8662 18.2266C14.0442 18.0807 14.2679 18 14.5 18H21V5H3V18ZM10 7C10.5523 7 11 7.44772 11 8V15C11 15.5523 10.5523 16 10 16C9.44771 16 9 15.5523 9 15V8C9 7.44772 9.44771 7 10 7ZM6 8.5C6.55228 8.5 7 8.94772 7 9.5V13.5C7 14.0523 6.55228 14.5 6 14.5C5.44772 14.5 5 14.0523 5 13.5V9.5C5 8.94772 5.44772 8.5 6 8.5ZM18 8.5C18.5523 8.5 19 8.94772 19 9.5V13.5C19 14.0523 18.5523 14.5 18 14.5C17.4477 14.5 17 14.0523 17 13.5V9.5C17 8.94772 17.4477 8.5 18 8.5ZM14 9.5C14.5523 9.5 15 9.94772 15 10.5V12.5C15 13.0523 14.5523 13.5 14 13.5C13.4477 13.5 13 13.0523 13 12.5V10.5C13 9.94772 13.4477 9.5 14 9.5Z" fill="#9E9E9E"/>
</g>
</svg>
