<svg width="24" height="24" viewBox="0 0 24 24" fill="none" xmlns="http://www.w3.org/2000/svg">
<g id="icons/Communicate/phone-missed">
<path id="Union" d="M7.9978 3.34277C8.7242 3.34283 9.39316 3.73711 9.74585 4.37207L10.9695 6.5752C11.2897 7.15211 11.3047 7.8501 11.0095 8.44043L10.0007 10.458C10.0464 10.6045 10.1126 10.7956 10.2058 11.0137C10.4353 11.5504 10.8148 12.2281 11.4148 12.8281C12.0146 13.4279 12.6908 13.8054 13.2253 14.0332C13.4421 14.1256 13.6324 14.1902 13.7781 14.2354L15.7957 13.2275C16.3862 12.9322 17.0848 12.9479 17.6619 13.2686L19.8718 14.4971L19.988 14.5664C20.5541 14.9333 20.9001 15.5643 20.9001 16.2451V18.7812C20.9001 20.6982 19.0831 22.1913 17.156 21.541C14.6211 20.6857 10.5272 19.0108 7.87964 16.3633C5.2321 13.7156 3.55724 9.62172 2.7019 7.08691C2.05186 5.16004 3.54498 3.34308 5.46167 3.34277H7.9978ZM5.46167 5.34277C4.79535 5.34306 4.42178 5.92643 4.59741 6.44727C5.43862 8.94022 6.99484 12.6503 9.2937 14.9492C11.5926 17.2481 15.3026 18.8043 17.7957 19.6455C18.3166 19.8213 18.9001 19.448 18.9001 18.7812V16.2451L16.6902 15.0166L14.3337 16.1943C14.1865 16.2678 14.0239 16.304 13.8611 16.2998L13.698 16.2822H13.697L13.6951 16.2812H13.6921C13.6898 16.2808 13.6865 16.2799 13.6833 16.2793C13.6767 16.2779 13.6678 16.2755 13.658 16.2734C13.638 16.2692 13.6111 16.2635 13.5789 16.2559C13.5135 16.2404 13.4229 16.2172 13.3132 16.1855C13.0939 16.1222 12.7914 16.0223 12.4412 15.873C11.7437 15.5758 10.8298 15.0712 10.0007 14.2422C9.17177 13.4131 8.66548 12.4981 8.36694 11.7998C8.21684 11.4487 8.11637 11.1455 8.05249 10.9258C8.02062 10.8161 7.99778 10.7264 7.98218 10.6611C7.97438 10.6285 7.96795 10.6011 7.96362 10.5811C7.96149 10.5711 7.9601 10.5623 7.95874 10.5557C7.95809 10.5525 7.95726 10.5493 7.95679 10.5469C7.95656 10.5458 7.95599 10.5448 7.95581 10.5439V10.542L7.95483 10.541C7.91284 10.3247 7.94426 10.1004 8.04272 9.90332L9.22046 7.5459L7.9978 5.34277H5.46167ZM20.4998 10H13.9998V3.5H20.4998V10Z" fill="#9E9E9E"/>
</g>
</svg>
