<svg width="24" height="24" viewBox="0 0 24 24" fill="none" xmlns="http://www.w3.org/2000/svg">
<g id="icons/Communicate/phone-telephone">
<path id="Union" d="M8.4978 2.84277C9.22422 2.84283 9.89316 3.23709 10.2458 3.87207L11.4695 6.0752C11.7897 6.65211 11.8047 7.3501 11.5095 7.94043L10.5007 9.95801C10.5464 10.1045 10.6126 10.2955 10.7058 10.5137C10.9353 11.0504 11.3148 11.7281 11.9148 12.3281C12.5146 12.9279 13.1908 13.3054 13.7253 13.5332C13.9422 13.6256 14.1324 13.6902 14.2781 13.7354L16.2957 12.7275C16.8863 12.4322 17.5848 12.4479 18.1619 12.7686L20.3718 13.9971L20.488 14.0664C21.0541 14.4333 21.4001 15.0643 21.4001 15.7451V18.2812C21.4001 20.1982 19.5831 21.6913 17.656 21.041C15.1211 20.1857 11.0272 18.5109 8.37964 15.8633C5.73207 13.2156 4.05725 9.12174 3.2019 6.58691C2.55182 4.65999 4.04492 2.84302 5.96167 2.84277H8.4978ZM5.96167 4.84277C5.29527 4.843 4.92175 5.42639 5.09741 5.94727C5.93863 8.44024 7.49482 12.1503 9.7937 14.4492C12.0926 16.7481 15.8026 18.3043 18.2957 19.1455C18.8166 19.3213 19.4001 18.948 19.4001 18.2812V15.7451L17.1902 14.5166L14.8337 15.6943C14.6865 15.7679 14.5239 15.804 14.3611 15.7998L14.198 15.7822H14.197L14.1951 15.7812H14.1921C14.1897 15.7808 14.1865 15.7799 14.1833 15.7793C14.1767 15.7779 14.1678 15.7755 14.158 15.7734C14.138 15.7692 14.1112 15.7635 14.0789 15.7559C14.0135 15.7404 13.923 15.7172 13.8132 15.6855C13.5938 15.6222 13.2915 15.5223 12.9412 15.373C12.2437 15.0758 11.3298 14.5712 10.5007 13.7422C9.67174 12.9131 9.16549 11.9981 8.86694 11.2998C8.71683 10.9487 8.61637 10.6455 8.55249 10.4258C8.52062 10.3161 8.49778 10.2264 8.48218 10.1611C8.47437 10.1284 8.46795 10.1011 8.46362 10.0811C8.46148 10.0711 8.4601 10.0623 8.45874 10.0557C8.45809 10.0525 8.45726 10.0493 8.45679 10.0469C8.45656 10.0458 8.45599 10.0448 8.45581 10.0439V10.042L8.45483 10.041C8.41283 9.82471 8.44424 9.60044 8.54272 9.40332L9.72046 7.0459L8.4978 4.84277H5.96167Z" fill="#9E9E9E"/>
</g>
</svg>
