<svg width="24" height="24" viewBox="0 0 24 24" fill="none" xmlns="http://www.w3.org/2000/svg">
<g id="icons/Communicate/phone-call">
<path id="Union" d="M7.18726 3.39697C7.91356 3.39703 8.58262 3.79131 8.9353 4.42627L10.1589 6.62939C10.4792 7.20642 10.494 7.90446 10.199 8.49463L9.19019 10.5122C9.23587 10.6587 9.30206 10.8498 9.39526 11.0679C9.62472 11.6046 10.0043 12.2823 10.6042 12.8823C11.2041 13.4821 11.8802 13.8596 12.4148 14.0874C12.6316 14.1798 12.8218 14.2444 12.9675 14.2896L14.9851 13.2817C15.5757 12.9864 16.2742 13.0021 16.8513 13.3228L19.0613 14.5513C19.6957 14.9041 20.0895 15.5734 20.0896 16.2993V18.8354C20.0896 20.7524 18.2726 22.2455 16.3455 21.5952C13.8106 20.7399 9.71667 19.0651 7.06909 16.4175C4.42157 13.7698 2.74669 9.67591 1.89136 7.14111C1.24142 5.21423 2.73439 3.39715 4.65112 3.39697H7.18726ZM4.65112 5.39697C3.98475 5.39714 3.61134 5.98061 3.78687 6.50146C4.62808 8.99441 6.18431 12.7045 8.48315 15.0034C10.7821 17.3023 14.4921 18.8585 16.9851 19.6997C17.5061 19.8755 18.0896 19.5022 18.0896 18.8354V16.2993L15.8796 15.0708L13.5232 16.2485C13.3759 16.3221 13.2135 16.3582 13.0505 16.354L12.8875 16.3364H12.8865L12.8845 16.3354H12.8816C12.8792 16.335 12.876 16.3341 12.8728 16.3335C12.8661 16.3321 12.8573 16.3297 12.8474 16.3276C12.8274 16.3234 12.8006 16.3177 12.7683 16.3101C12.703 16.2946 12.6124 16.2714 12.5027 16.2397C12.2833 16.1764 11.9809 16.0765 11.6306 15.9272C10.9331 15.63 10.0193 15.1254 9.19019 14.2964C8.36124 13.4674 7.85493 12.5523 7.5564 11.854C7.40633 11.5029 7.30581 11.1997 7.24194 10.98C7.2101 10.8704 7.18722 10.7806 7.17163 10.7153C7.16385 10.6827 7.1574 10.6553 7.15308 10.6353C7.15096 10.6254 7.14955 10.6165 7.14819 10.6099C7.14754 10.6067 7.14671 10.6034 7.14624 10.6011L7.14526 10.5981V10.5962L7.14429 10.5952C7.10233 10.3789 7.13368 10.1546 7.23218 9.95752L8.40991 7.6001L7.18726 5.39697H4.65112ZM13.3503 1.92139C14.3278 1.77569 15.329 1.82357 16.2917 2.06494C17.5647 2.38415 18.7708 3.0422 19.7644 4.03564C20.7581 5.02931 21.4158 6.23607 21.7351 7.50928C21.9765 8.47203 22.0243 9.47323 21.8787 10.4507C21.797 10.9965 21.2889 11.3727 20.7429 11.2915C20.197 11.2099 19.8199 10.7018 19.9011 10.1558C20.0081 9.43766 19.9727 8.70192 19.7957 7.99561C19.562 7.06392 19.0809 6.18132 18.3503 5.45068C17.6197 4.72016 16.7371 4.23904 15.8054 4.00537C15.0991 3.8283 14.3634 3.79286 13.6453 3.8999C13.0991 3.98118 12.59 3.60428 12.5085 3.05811C12.4274 2.51208 12.8043 2.00291 13.3503 1.92139ZM13.5349 5.50049C14.743 5.32038 16.0231 5.69591 16.9558 6.62842C17.8882 7.56104 18.2627 8.84039 18.0828 10.0483C18.0014 10.5945 17.4931 10.9714 16.947 10.8901C16.4009 10.8086 16.0238 10.2996 16.1052 9.75342C16.1957 9.14536 16.007 8.50793 15.5417 8.04248C15.076 7.57698 14.438 7.38834 13.8298 7.479C13.2838 7.56025 12.7746 7.18323 12.6931 6.63721C12.6119 6.09115 12.9889 5.58203 13.5349 5.50049Z" fill="#9E9E9E"/>
</g>
</svg>
