<svg width="24" height="24" viewBox="0 0 24 24" fill="none" xmlns="http://www.w3.org/2000/svg">
<g id="icons/Communicate/phone-off">
<path id="Union" d="M16.2969 12.7275C16.8874 12.4323 17.5858 12.4476 18.1631 12.7686L20.373 13.9971L20.4893 14.0664C21.0551 14.4333 21.4014 15.0644 21.4014 15.7451V18.2812C21.4014 20.1997 19.5809 21.6899 17.6553 21.04C15.7456 20.3956 13.0052 19.3033 10.6484 17.709C10.191 17.3995 10.0705 16.7777 10.3799 16.3203C10.6893 15.8629 11.3111 15.7434 11.7686 16.0527C13.9098 17.5014 16.4575 18.5254 18.2949 19.1455C18.8172 19.3216 19.4014 18.9462 19.4014 18.2812V15.7451L17.1914 14.5166L14.835 15.6943C14.6385 15.7926 14.4149 15.8236 14.1992 15.7822H14.1982L14.1963 15.7812C14.1954 15.7811 14.1944 15.7814 14.1934 15.7812C14.191 15.7808 14.1877 15.7799 14.1846 15.7793C14.1779 15.778 14.1691 15.7765 14.1592 15.7744C14.1392 15.7702 14.1126 15.7635 14.0801 15.7559C14.0151 15.7405 13.9257 15.718 13.8164 15.6865C13.598 15.6236 13.2965 15.5245 12.9473 15.376C12.4393 15.1597 12.2029 14.5726 12.4189 14.0645C12.6351 13.5562 13.2222 13.319 13.7305 13.5352C13.9458 13.6267 14.1345 13.6905 14.2793 13.7354L16.2969 12.7275ZM19.293 3.29297C19.6835 2.90248 20.3165 2.90246 20.707 3.29297C21.0975 3.68348 21.0975 4.31652 20.707 4.70703L4.70703 20.707C4.31652 21.0975 3.6835 21.0975 3.29297 20.707C2.90244 20.3165 2.90244 19.6835 3.29297 19.293L19.293 3.29297ZM14.5811 13.8193L14.5791 13.8184H14.5762L14.5811 13.8193ZM8.49805 2.84277C9.22456 2.8428 9.89444 3.23682 10.2471 3.87207L11.4707 6.0752C11.791 6.65219 11.8057 7.35028 11.5107 7.94043L10.502 9.95703C10.5379 10.0725 10.5854 10.2163 10.6504 10.3789C10.8554 10.8917 10.6065 11.4736 10.0938 11.6787C9.58094 11.8837 8.99899 11.6339 8.79395 11.1211C8.67238 10.817 8.58983 10.5577 8.53711 10.3701C8.51082 10.2765 8.4916 10.2003 8.47852 10.1445C8.47196 10.1166 8.46659 10.0935 8.46289 10.0762C8.46109 10.0677 8.46016 10.0605 8.45898 10.0547C8.45841 10.0519 8.45746 10.049 8.45703 10.0469V10.0439L8.45605 10.042C8.41399 9.82565 8.44449 9.60048 8.54297 9.40332L9.72168 7.0459L8.49805 4.84277H5.96191C5.2964 4.84296 4.92256 5.4265 5.09863 5.94824C5.69217 7.70707 6.65637 10.1208 8.01172 12.2051C8.31268 12.668 8.18158 13.2868 7.71875 13.5879C7.25576 13.889 6.63605 13.7579 6.33496 13.2949C4.84923 11.0101 3.82104 8.41895 3.20312 6.58789C2.55316 4.66183 4.04411 2.84297 5.96191 2.84277H8.49805Z" fill="#9E9E9E"/>
</g>
</svg>
