<svg width="24" height="24" viewBox="0 0 24 24" fill="none" xmlns="http://www.w3.org/2000/svg">
<g id="icons/Communicate/phone-incoming-one">
<path id="Union" d="M6.68726 3.89746C7.4137 3.89751 8.08267 4.29171 8.4353 4.92676L9.65894 7.12988C9.97926 7.70693 9.99402 8.40493 9.69897 8.99512L8.69019 11.0127C8.73589 11.1592 8.80199 11.3502 8.89526 11.5684C9.12474 12.1051 9.50422 12.7828 10.1042 13.3828C10.7041 13.9826 11.3802 14.3601 11.9148 14.5879C12.1317 14.6803 12.3218 14.7449 12.4675 14.79L14.4851 13.7822C15.0758 13.4869 15.7742 13.5025 16.3513 13.8232L18.5613 15.0518L18.6775 15.1211C19.2435 15.4879 19.5896 16.119 19.5896 16.7998V19.3359C19.5896 21.2529 17.7726 22.746 15.8455 22.0957C13.3106 21.2404 9.21671 19.5656 6.56909 16.918C3.92148 14.2703 2.24671 10.1765 1.39136 7.6416C0.741178 5.71461 2.2343 3.89764 4.15112 3.89746H6.68726ZM4.15112 5.89746C3.48463 5.89762 3.11111 6.48102 3.28687 7.00195C4.12809 9.49496 5.68423 13.205 7.98315 15.5039C10.2821 17.8028 13.9921 19.359 16.4851 20.2002C17.0061 20.376 17.5896 20.0026 17.5896 19.3359V16.7998L15.3796 15.5713L13.0232 16.749C12.876 16.8226 12.7134 16.8587 12.5505 16.8545L12.3875 16.8369H12.3865L12.3845 16.8359H12.3816C12.3792 16.8354 12.376 16.8346 12.3728 16.834C12.3661 16.8326 12.3573 16.8302 12.3474 16.8281C12.3274 16.8239 12.3007 16.8182 12.2683 16.8105C12.203 16.7951 12.1125 16.7719 12.0027 16.7402C11.7833 16.6769 11.481 16.577 11.1306 16.4277C10.4331 16.1305 9.5193 15.626 8.69019 14.7969C7.86114 13.9678 7.35495 13.0528 7.0564 12.3545C6.90626 12.0033 6.80583 11.7002 6.74194 11.4805C6.71006 11.3708 6.68723 11.2811 6.67163 11.2158C6.66382 11.1831 6.65741 11.1558 6.65308 11.1357C6.65093 11.1258 6.64956 11.117 6.64819 11.1104C6.64754 11.1072 6.64672 11.104 6.64624 11.1016C6.64602 11.1005 6.64545 11.0995 6.64526 11.0986V11.0967L6.64429 11.0957C6.60227 10.8794 6.63369 10.6551 6.73218 10.458L7.90991 8.10059L6.68726 5.89746H4.15112ZM16.4128 2.29297C16.8033 1.90248 17.4364 1.90255 17.8269 2.29297C18.2174 2.68349 18.2174 3.31651 17.8269 3.70703L15.53 6.00391H21.1199C21.6722 6.00391 22.1199 6.45162 22.1199 7.00391C22.1198 7.55616 21.6721 8.00391 21.1199 8.00391H15.5378L17.8269 10.293C18.2174 10.6835 18.2174 11.3165 17.8269 11.707C17.4364 12.0974 16.8033 12.0975 16.4128 11.707L12.4529 7.74707C12.2491 7.56402 12.1199 7.29937 12.1199 7.00391C12.1199 6.97828 12.1219 6.95287 12.1238 6.92773C12.1404 6.69652 12.2361 6.46981 12.4128 6.29297L16.4128 2.29297Z" fill="#9E9E9E"/>
</g>
</svg>
