<svg width="24" height="24" viewBox="0 0 24 24" fill="none" xmlns="http://www.w3.org/2000/svg">
<g id="icons/Communicate/phone-video-call">
<path id="Union" d="M7.18726 3.89746C7.91366 3.89751 8.58264 4.29157 8.9353 4.92676L10.1589 7.12988L10.2156 7.23926C10.4802 7.7936 10.4756 8.44183 10.199 8.99512L9.19019 11.0117C9.23589 11.1583 9.30188 11.3499 9.39526 11.5684C9.62477 12.1051 10.0043 12.7828 10.6042 13.3828C11.2041 13.9827 11.8802 14.3601 12.4148 14.5879C12.6317 14.6803 12.8218 14.7449 12.9675 14.79L14.9851 13.7822C15.5758 13.4868 16.2741 13.5024 16.8513 13.8232L19.0613 15.0518L19.1775 15.1211C19.7437 15.488 20.0896 16.1192 20.0896 16.7998V19.3359C20.0893 21.2527 18.2723 22.7459 16.3455 22.0957C13.8106 21.2404 9.71679 19.5655 7.06909 16.918C4.42159 14.2705 2.74676 10.1765 1.89136 7.6416C1.24117 5.71461 2.73428 3.89764 4.65112 3.89746H7.18726ZM4.65112 5.89746C3.98463 5.89762 3.61109 6.48101 3.78687 7.00195C4.62813 9.49499 6.18431 13.2051 8.48315 15.5039C10.7822 17.8028 14.4921 19.359 16.9851 20.2002C17.5059 20.3759 18.0893 20.0023 18.0896 19.3359V16.7998L15.8796 15.5713L13.5232 16.749C13.376 16.8225 13.2134 16.8587 13.0505 16.8545L12.8875 16.8369H12.8865L12.8845 16.8359H12.8816C12.8792 16.8354 12.876 16.8346 12.8728 16.834C12.8661 16.8326 12.8574 16.8302 12.8474 16.8281C12.8274 16.8239 12.8007 16.8182 12.7683 16.8105C12.703 16.7951 12.6125 16.7719 12.5027 16.7402C12.2833 16.6769 11.981 16.5771 11.6306 16.4277C10.9331 16.1305 10.0193 15.626 9.19019 14.7969C8.36119 13.9679 7.85499 13.0528 7.5564 12.3545C7.40634 12.0035 7.30584 11.7002 7.24194 11.4805C7.21008 11.3709 7.18626 11.2811 7.17065 11.2158C7.16289 11.1833 7.1574 11.1558 7.15308 11.1357C7.15097 11.126 7.14953 11.117 7.14819 11.1104C7.14757 11.1073 7.14673 11.1039 7.14624 11.1016L7.14526 11.0986V11.0967L7.14429 11.0957C7.10228 10.8795 7.13382 10.6551 7.23218 10.458L8.40991 8.10059L7.18726 5.89746H4.65112ZM19.4998 1.5C20.052 1.5 20.4998 1.94772 20.4998 2.5V2.52246L21.6287 2.07129C21.9366 1.94826 22.2857 1.98607 22.5603 2.17188C22.8351 2.3579 22.9998 2.66818 22.9998 3V7C22.9998 7.33182 22.8351 7.6421 22.5603 7.82812C22.2857 8.01393 21.9366 8.05174 21.6287 7.92871L20.4998 7.47656V7.5C20.4998 8.05228 20.052 8.5 19.4998 8.5H13.4998C12.9476 8.49985 12.4998 8.05219 12.4998 7.5V2.5C12.4998 1.94781 12.9476 1.50015 13.4998 1.5H19.4998ZM14.4998 6.5H18.4998V6C18.4998 5.66825 18.6646 5.35792 18.9392 5.17188C19.2138 4.98601 19.5629 4.94834 19.8708 5.07129L20.9998 5.52246V4.47656L19.8708 4.92871C19.5629 5.05166 19.2138 5.01399 18.9392 4.82812C18.6646 4.64208 18.4998 4.33175 18.4998 4V3.5H14.4998V6.5Z" fill="#9E9E9E"/>
</g>
</svg>
