<svg width="24" height="24" viewBox="0 0 24 24" fill="none" xmlns="http://www.w3.org/2000/svg">
<g id="icons/Communicate/phone-outgoing-one">
<path id="Union" d="M7.18719 3.89746C7.91364 3.89751 8.58261 4.29171 8.93524 4.92676L10.1589 7.12988C10.4792 7.70693 10.494 8.40493 10.1989 8.99512L9.19012 11.0127C9.23583 11.1592 9.30193 11.3502 9.3952 11.5684C9.62468 12.1051 10.0042 12.7828 10.6042 13.3828C11.204 13.9826 11.8801 14.3601 12.4147 14.5879C12.6316 14.6803 12.8218 14.7449 12.9675 14.79L14.985 13.7822C15.5757 13.4869 16.2741 13.5025 16.8513 13.8232L19.0612 15.0518L19.1774 15.1211C19.7435 15.4879 20.0895 16.119 20.0895 16.7998V19.3359C20.0895 21.2529 18.2725 22.746 16.3454 22.0957C13.8105 21.2404 9.71664 19.5656 7.06903 16.918C4.42141 14.2703 2.74665 10.1765 1.8913 7.6416C1.24112 5.71461 2.73424 3.89764 4.65106 3.89746H7.18719ZM4.65106 5.89746C3.98457 5.89762 3.61105 6.48102 3.7868 7.00195C4.62803 9.49496 6.18416 13.205 8.48309 15.5039C10.782 17.8028 14.492 19.359 16.985 20.2002C17.506 20.376 18.0895 20.0026 18.0895 19.3359V16.7998L15.8796 15.5713L13.5231 16.749C13.3759 16.8226 13.2134 16.8587 13.0505 16.8545L12.8874 16.8369H12.8864L12.8845 16.8359H12.8815C12.8791 16.8354 12.876 16.8346 12.8727 16.834C12.8661 16.8326 12.8573 16.8302 12.8474 16.8281C12.8273 16.8239 12.8006 16.8182 12.7682 16.8105C12.7029 16.7951 12.6124 16.7719 12.5026 16.7402C12.2832 16.6769 11.9809 16.577 11.6306 16.4277C10.933 16.1305 10.0192 15.626 9.19012 14.7969C8.36108 13.9678 7.85489 13.0528 7.55634 12.3545C7.4062 12.0033 7.30577 11.7002 7.24188 11.4805C7.21 11.3708 7.18717 11.2811 7.17157 11.2158C7.16376 11.1831 7.15735 11.1558 7.15302 11.1357C7.15087 11.1258 7.1495 11.117 7.14813 11.1104C7.14748 11.1072 7.14666 11.104 7.14618 11.1016C7.14596 11.1005 7.14539 11.0995 7.1452 11.0986V11.0967L7.14423 11.0957C7.10221 10.8794 7.13363 10.6551 7.23212 10.458L8.40985 8.10059L7.18719 5.89746H4.65106ZM16.7927 2.29297C17.1832 1.90248 17.8162 1.90255 18.2067 2.29297L22.2067 6.29297C22.402 6.48825 22.4997 6.74409 22.4997 7C22.4997 7.00128 22.4997 7.00263 22.4997 7.00391C22.4997 7.30299 22.368 7.57067 22.1599 7.75391L18.2067 11.707C17.8162 12.0974 17.1831 12.0975 16.7927 11.707C16.4023 11.3166 16.4024 10.6835 16.7927 10.293L19.0817 8.00391H13.4997C12.9476 8.00375 12.4997 7.55606 12.4997 7.00391C12.4997 6.45171 12.9475 6.00406 13.4997 6.00391H19.0895L16.7927 3.70703C16.4023 3.31656 16.4024 2.68347 16.7927 2.29297Z" fill="#9E9E9E"/>
</g>
</svg>
