<svg width="24" height="24" viewBox="0 0 24 24" fill="none" xmlns="http://www.w3.org/2000/svg">
<g id="icons/Communicate/phone-incoming">
<path id="Union" d="M7.68726 3.89746C8.41369 3.89751 9.08267 4.29164 9.4353 4.92676L10.6589 7.12988C10.9791 7.70688 10.994 8.40501 10.699 8.99512L9.69019 11.0127C9.73589 11.1592 9.80206 11.3504 9.89526 11.5684C10.1248 12.1051 10.5043 12.7828 11.1042 13.3828C11.7041 13.9827 12.3802 14.3601 12.9148 14.5879C13.1317 14.6803 13.3218 14.7449 13.4675 14.79L15.4851 13.7822C16.0757 13.487 16.7742 13.5024 17.3513 13.8232L19.5613 15.0518C20.1958 15.4046 20.5896 16.0737 20.5896 16.7998V19.3359C20.5893 21.2527 18.7724 22.7459 16.8455 22.0957C14.3106 21.2403 10.2167 19.5655 7.56909 16.918C4.92155 14.2704 3.24676 10.1766 2.39136 7.6416C1.74115 5.71464 3.23429 3.89764 5.15112 3.89746H7.68726ZM5.15112 5.89746C4.4846 5.89763 4.11111 6.48109 4.28687 7.00195C5.12813 9.49503 6.68427 13.205 8.98315 15.5039C11.2821 17.8028 14.9921 19.3589 17.4851 20.2002C18.006 20.3759 18.5893 20.0023 18.5896 19.3359V16.7998L16.3796 15.5713L14.0232 16.749C13.876 16.8225 13.7134 16.8587 13.5505 16.8545L13.3875 16.8369H13.3865L13.3845 16.8359H13.3816C13.3791 16.8354 13.3761 16.8346 13.3728 16.834C13.3661 16.8326 13.3574 16.8302 13.3474 16.8281C13.3274 16.8239 13.3007 16.8182 13.2683 16.8105C13.203 16.7951 13.1125 16.7719 13.0027 16.7402C12.7833 16.6769 12.481 16.5771 12.1306 16.4277C11.4331 16.1305 10.5193 15.626 9.69019 14.7969C8.86121 13.9679 8.35498 13.0528 8.0564 12.3545C7.90634 12.0035 7.80584 11.7002 7.74194 11.4805C7.71012 11.371 7.68723 11.2811 7.67163 11.2158C7.66387 11.1833 7.65741 11.1558 7.65308 11.1357C7.65097 11.126 7.64953 11.117 7.64819 11.1104C7.64757 11.1073 7.64673 11.1039 7.64624 11.1016L7.64526 11.0986V11.0967L7.64429 11.0957C7.60229 10.8795 7.63383 10.6551 7.73218 10.458L8.90991 8.10059L7.68726 5.89746H5.15112ZM14.4998 2.5C15.052 2.5 15.4998 2.94772 15.4998 3.5V7.65039L20.3064 3.0293C20.7044 2.64661 21.3376 2.65887 21.7205 3.05664C22.1032 3.45468 22.091 4.08789 21.6931 4.4707L16.9822 9H20.9998C21.552 9 21.9998 9.44772 21.9998 10C21.9997 10.5523 21.552 11 20.9998 11H14.4998C14.4971 11 14.4945 10.999 14.4919 10.999C14.4743 10.9989 14.4568 10.9981 14.4392 10.9971C14.4215 10.996 14.4039 10.9951 14.3865 10.9932C14.3776 10.9922 14.3689 10.9905 14.3601 10.9893C14.3374 10.9861 14.3149 10.9822 14.2927 10.9775C14.2796 10.9748 14.2667 10.9711 14.2537 10.9678C14.1402 10.939 14.0344 10.892 13.9402 10.8281C13.8985 10.7999 13.859 10.7676 13.821 10.7324C13.8117 10.7238 13.8017 10.716 13.7927 10.707L13.7791 10.6934C13.7697 10.6837 13.7615 10.673 13.7527 10.6631C13.7413 10.6503 13.7302 10.6374 13.7195 10.624C13.712 10.6147 13.7051 10.6052 13.698 10.5957C13.6858 10.5793 13.6731 10.5631 13.6619 10.5459C13.6329 10.5015 13.6088 10.4547 13.5876 10.4072C13.5828 10.3965 13.5774 10.386 13.573 10.375C13.5674 10.3611 13.5623 10.3471 13.5574 10.333C13.5509 10.3146 13.5443 10.2962 13.5388 10.2773C13.5345 10.2621 13.5307 10.2468 13.5271 10.2314C13.5239 10.2179 13.521 10.2042 13.5183 10.1904C13.5085 10.1398 13.5036 10.0885 13.5017 10.0371C13.5013 10.0248 13.4998 10.0124 13.4998 10V3.5C13.4998 2.94781 13.9476 2.50015 14.4998 2.5Z" fill="#9E9E9E"/>
</g>
</svg>
