<svg width="24" height="24" viewBox="0 0 24 24" fill="none" xmlns="http://www.w3.org/2000/svg">
<g id="icons/Communicate/tips-one">
<path id="Union" d="M22 3C22.5523 3 23 3.44772 23 4V19C23 19.5523 22.5523 20 22 20H14.9141L12.707 22.207C12.3165 22.5976 11.6835 22.5976 11.293 22.207L9.08594 20H2C1.44772 20 1 19.5523 1 19V4C1 3.44772 1.44772 3 2 3H22ZM3 18H9.5C9.76522 18 10.0195 18.1054 10.207 18.293L12 20.0859L13.793 18.293L13.8662 18.2266C14.0442 18.0807 14.2679 18 14.5 18H21V5H3V18ZM12 10.5C12.5523 10.5 13 10.9477 13 11.5V16C13 16.5523 12.5523 17 12 17C11.4477 17 11 16.5523 11 16V11.5C11 10.9477 11.4477 10.5 12 10.5ZM12 7C12.5523 7 13 7.44772 13 8V8.5C13 9.05228 12.5523 9.5 12 9.5C11.4477 9.5 11 9.05228 11 8.5V8C11 7.44772 11.4477 7 12 7Z" fill="#9E9E9E"/>
</g>
</svg>
