<svg width="24" height="24" viewBox="0 0 24 24" fill="none" xmlns="http://www.w3.org/2000/svg">
<g id="icons/Communicate/topic-discussion">
<path id="Union" d="M22 3C22.5523 3 23 3.44772 23 4V19C23 19.5523 22.5523 20 22 20H14.9141L12.707 22.207C12.3165 22.5976 11.6835 22.5976 11.293 22.207L9.08594 20H2C1.44772 20 1 19.5523 1 19V4C1 3.44772 1.44772 3 2 3H22ZM3 18H9.5C9.76522 18 10.0195 18.1054 10.207 18.293L12 20.0859L13.793 18.293L13.8662 18.2266C14.0442 18.0807 14.2679 18 14.5 18H21V5H3V18ZM14.0586 6.50195C14.6099 6.53438 15.0304 7.00731 14.998 7.55859L14.9131 9H16.5C17.0523 9 17.5 9.44772 17.5 10C17.5 10.5523 17.0523 11 16.5 11H14.7959L14.708 12.5H16C16.5523 12.5 17 12.9477 17 13.5C17 14.0523 16.5523 14.5 16 14.5H14.5898L14.498 16.0586C14.4656 16.6099 13.9927 17.0304 13.4414 16.998C12.8901 16.9656 12.4696 16.4927 12.502 15.9414L12.5869 14.5H11.0898L10.998 16.0586C10.9656 16.6099 10.4927 17.0304 9.94141 16.998C9.39011 16.9656 8.96959 16.4927 9.00195 15.9414L9.08691 14.5H7.5C6.94772 14.5 6.5 14.0523 6.5 13.5C6.5 12.9477 6.94772 12.5 7.5 12.5H9.20508L9.29297 11H8C7.44772 11 7 10.5523 7 10C7 9.44772 7.44772 9 8 9H9.41016L9.50195 7.44141C9.53438 6.89011 10.0073 6.46959 10.5586 6.50195C11.1099 6.53438 11.5304 7.00731 11.498 7.55859L11.4131 9H12.9102L13.002 7.44141C13.0344 6.89011 13.5073 6.46959 14.0586 6.50195ZM11.208 12.5H12.7051L12.793 11H11.2959L11.208 12.5Z" fill="#9E9E9E"/>
</g>
</svg>
