<svg width="24" height="24" viewBox="0 0 24 24" fill="none" xmlns="http://www.w3.org/2000/svg">
<g id="icons/Communicate/topic">
<path id="Union" d="M12 1C18.0751 1 23 5.92487 23 12C23 18.0751 18.0751 23 12 23C10.5104 23 9.08735 22.7034 7.78906 22.165C7.20656 21.9235 6.65155 21.6302 6.125 21.2969C6.01386 21.3101 5.85517 21.3345 5.6416 21.377C5.1026 21.484 4.31395 21.6779 3.26367 21.9648C2.91735 22.0595 2.54683 21.9609 2.29297 21.707C2.0391 21.4532 1.94053 21.0827 2.03516 20.7363C2.32212 19.686 2.51596 18.8974 2.62305 18.3584C2.66558 18.1443 2.6889 17.9852 2.70215 17.874C2.36905 17.3478 2.07632 16.793 1.83496 16.2109C1.29659 14.9126 1 13.4896 1 12C1 5.92487 5.92487 1 12 1ZM12 3C7.02943 3 3 7.02943 3 12C3 13.222 3.24324 14.3847 3.68262 15.4443C3.90963 15.9918 4.18954 16.5129 4.51562 17C4.67902 17.2443 4.70264 17.4982 4.70996 17.5889C4.72024 17.7162 4.71584 17.8431 4.70703 17.9531C4.68916 18.1763 4.64481 18.4468 4.58496 18.748C4.53572 18.9959 4.47051 19.2821 4.39258 19.6064C4.71725 19.5284 5.00393 19.4643 5.25195 19.415C5.55322 19.3552 5.82374 19.3108 6.04688 19.293C6.15686 19.2842 6.28375 19.2798 6.41113 19.29C6.50166 19.2973 6.75488 19.3214 6.99902 19.4844H7C7.48714 19.8105 8.00825 20.0904 8.55566 20.3174C9.61531 20.7568 10.778 21 12 21C16.9706 21 21 16.9706 21 12C21 7.02943 16.9706 3 12 3ZM13.4385 7.69531C13.5344 7.15148 14.0538 6.78887 14.5977 6.88477C15.1413 6.98086 15.5041 7.49922 15.4082 8.04297L15.2549 8.91016H16.6924C17.2447 8.91016 17.6924 9.35787 17.6924 9.91016C17.6924 10.4624 17.2447 10.9102 16.6924 10.9102H14.9023L14.5342 13H15.6924C16.2447 13 16.6924 13.4477 16.6924 14C16.6924 14.5523 16.2447 15 15.6924 15H14.1816L13.9512 16.3047C13.8553 16.8486 13.3369 17.2121 12.793 17.1162C12.2492 17.0202 11.8867 16.5018 11.9824 15.958L12.1514 15H10.6816L10.4512 16.3047C10.3553 16.8486 9.83686 17.2121 9.29297 17.1162C8.74924 17.0202 8.38667 16.5018 8.48242 15.958L8.65137 15H7.30273C6.75045 15 6.30273 14.5523 6.30273 14C6.30273 13.4477 6.75045 13 7.30273 13H9.00391L9.37207 10.9102H8.30273C7.75045 10.9102 7.30273 10.4624 7.30273 9.91016C7.30273 9.35787 7.75045 8.91016 8.30273 8.91016H9.72461L9.93848 7.69531C10.0344 7.15148 10.5538 6.78887 11.0977 6.88477C11.6413 6.98086 12.0041 7.49922 11.9082 8.04297L11.7549 8.91016H13.2246L13.4385 7.69531ZM11.0342 13H12.5039L12.8721 10.9102H11.4023L11.0342 13Z" fill="#9E9E9E"/>
</g>
</svg>
