<svg width="24" height="24" viewBox="0 0 24 24" fill="none" xmlns="http://www.w3.org/2000/svg">
<g id="icons/Animals/bat">
<path id="Union" d="M8.44275 3.02539C8.93354 2.91275 9.43224 3.18257 9.60583 3.65527C9.77936 4.12808 9.57351 4.65607 9.12634 4.8877C8.90282 5.00335 8.79918 5.12762 8.75232 5.20215C8.72753 5.24169 8.71569 5.27209 8.7113 5.28613L8.70837 5.33887C8.65619 5.82543 8.83622 6.09533 9.10779 6.2998C9.16285 6.34123 9.22248 6.37826 9.28357 6.41309C9.31803 6.25472 9.35544 6.09736 9.39099 5.94824C9.5443 5.30522 9.72663 4.63595 9.849 4.21387C9.97785 3.77046 10.3945 3.47307 10.8558 3.49414C11.3169 3.51558 11.7036 3.8496 11.7914 4.30273L11.8734 4.72461H12.1273L12.2094 4.30273L12.2552 4.13867C12.3944 3.77079 12.7414 3.51275 13.1449 3.49414C13.6061 3.47326 14.023 3.77047 14.1517 4.21387C14.2741 4.63599 14.4564 5.30517 14.6097 5.94824C14.6453 6.09735 14.6817 6.25474 14.7162 6.41309C14.7775 6.37817 14.8377 6.34136 14.8929 6.2998C15.1643 6.09536 15.3445 5.82523 15.2924 5.33887L15.2894 5.28613C15.2851 5.2722 15.2733 5.24188 15.2484 5.20215C15.2017 5.12768 15.0981 5.00347 14.8744 4.8877C14.427 4.65617 14.2213 4.12822 14.3949 3.65527C14.5686 3.18259 15.0671 2.91252 15.558 3.02539C17.9542 3.5766 22.7874 6.2038 22.9994 12.3428C23.012 12.7129 22.8186 13.0598 22.4974 13.2441C22.176 13.4283 21.7793 13.4196 21.4662 13.2217C20.8527 12.8337 20.0691 12.6102 19.5101 12.7754C19.1122 12.8933 18.4086 13.3491 18.2347 15.417C18.1983 15.8506 17.8854 16.2114 17.4613 16.3086C17.037 16.4055 16.5986 16.2165 16.3773 15.8418C16.1879 15.521 15.9369 15.1664 15.6605 14.8643C15.3747 14.5518 15.1142 14.3528 14.9154 14.2656C14.7508 14.1936 14.7132 14.2269 14.6947 14.2383C14.6187 14.2835 14.3891 14.4818 14.141 15.1553C13.9479 15.8384 13.663 16.9404 13.4252 18.0605C13.2082 19.0823 13.0454 20.0515 13.0082 20.7285L13.0004 21L12.9955 21.1025C12.9442 21.6065 12.5178 21.9998 12.0004 22C11.4481 22 11.0004 21.5523 11.0004 21C11.0003 20.3272 10.8234 19.2281 10.5756 18.0605C10.3377 16.9402 10.0519 15.8384 9.85876 15.1553C9.6109 14.4825 9.38221 14.2837 9.30603 14.2383C9.28764 14.2271 9.25065 14.1933 9.08533 14.2656C8.88656 14.3527 8.6261 14.5518 8.34021 14.8643C8.06384 15.1663 7.81287 15.521 7.62341 15.8418C7.40217 16.2165 6.9636 16.4054 6.53943 16.3086C6.11511 16.2116 5.80244 15.8507 5.76599 15.417C5.59221 13.3496 4.88861 12.8934 4.4906 12.7754C3.93168 12.61 3.14814 12.8338 2.53455 13.2217C2.22144 13.4196 1.82472 13.4282 1.5033 13.2441C1.1819 13.0598 0.988731 12.713 1.00134 12.3428C1.21333 6.20352 6.04669 3.57643 8.44275 3.02539ZM17.2738 5.90137C17.162 6.78995 16.6839 7.45472 16.0961 7.89746C15.3998 8.42162 14.5641 8.63815 13.9984 8.69141C13.7184 8.71761 13.4398 8.62482 13.2318 8.43555C13.0237 8.24604 12.9056 7.97681 12.9056 7.69531C12.9055 7.56583 12.8454 7.216 12.7357 6.72461H11.265C11.1553 7.216 11.0953 7.56583 11.0951 7.69531C11.0951 7.97667 10.9769 8.24606 10.7689 8.43555C10.561 8.62481 10.2823 8.7175 10.0023 8.69141C9.43669 8.63822 8.60103 8.42166 7.90466 7.89746C7.31662 7.4547 6.83771 6.79018 6.72595 5.90137C5.26376 6.80807 3.73983 8.37722 3.19958 10.8164C3.78576 10.6906 4.42606 10.6704 5.05798 10.8574C6.07047 11.1572 6.83214 11.9051 7.29333 13.0898C7.58477 12.8308 7.91741 12.5939 8.28357 12.4336C8.87625 12.1743 9.61826 12.0963 10.3295 12.5195C10.9005 12.8594 11.3146 13.4458 11.6234 14.1777L11.7504 14.5L11.7719 14.5674C11.8393 14.8046 11.9165 15.0915 12.0004 15.4121C12.0842 15.0916 12.1615 14.8045 12.2289 14.5674L12.2504 14.5C12.57 13.6181 13.0186 12.9079 13.6713 12.5195C14.3825 12.0965 15.1245 12.1742 15.7172 12.4336C16.0831 12.5938 16.4151 12.831 16.7064 13.0898C17.1677 11.905 17.9301 11.1571 18.9427 10.8574C19.5744 10.6706 20.2143 10.6908 20.8002 10.8164C20.2598 8.37696 18.7361 6.80802 17.2738 5.90137Z" fill="#9E9E9E"/>
</g>
</svg>
