<svg width="24" height="24" viewBox="0 0 24 24" fill="none" xmlns="http://www.w3.org/2000/svg">
<g id="icons/Animals/bear">
<path id="Union" d="M17.5 1.5C20.202 1.5 22.5 3.71124 22.5 6.5C22.5 7.80466 21.9466 8.88767 21.2061 9.71289C21.6384 10.6796 22 11.7846 22 13C22 18.2122 17.4399 22.5 12 22.5C6.56009 22.5 2 18.2122 2 13C2 11.786 2.36029 10.6818 2.79199 9.71582C2.05563 8.90242 1.5 7.83908 1.5 6.53027C1.50001 3.75135 3.7881 1.5 6.5 1.5C8.30752 1.5 9.74705 2.48673 10.5693 3.89551C11.0431 3.83533 11.5267 3.80273 12 3.80273C12.473 3.80273 12.9563 3.83542 13.4297 3.89551C14.2519 2.4865 15.6923 1.5 17.5 1.5ZM17.5 3.5C16.3352 3.5 15.3862 4.21903 14.9297 5.36914C14.7502 5.82126 14.271 6.07827 13.7949 5.97852C13.2379 5.86183 12.6155 5.80273 12 5.80273C11.3845 5.80273 10.7621 5.86183 10.2051 5.97852C9.72895 6.07827 9.24983 5.82126 9.07031 5.36914C8.61376 4.21903 7.66478 3.5 6.5 3.5C4.8911 3.5 3.50001 4.85749 3.5 6.53027C3.5 7.38735 3.9389 8.12493 4.6543 8.74414C5.00011 9.04349 5.09847 9.53933 4.89355 9.94824C4.37502 10.9831 4 11.9757 4 13C4 17.0093 7.56371 20.5 12 20.5C16.4363 20.5 20 17.0093 20 13C20 11.9757 19.625 10.9831 19.1064 9.94824C18.9015 9.53933 18.9999 9.04349 19.3457 8.74414C20.0531 8.13186 20.5 7.36503 20.5 6.5C20.5 4.83701 19.1188 3.5 17.5 3.5ZM12 11.5C12.8284 11.5 13.5 12.1716 13.5 13C13.5 13.4436 13.3061 13.8406 13 14.1152V16.0361C13.102 15.9664 13.2003 15.8857 13.293 15.793C13.6835 15.4024 14.3165 15.4024 14.707 15.793C15.0976 16.1835 15.0976 16.8165 14.707 17.207C13.1784 18.7357 10.8216 18.7357 9.29297 17.207C8.90244 16.8165 8.90244 16.1835 9.29297 15.793C9.68349 15.4024 10.3165 15.4024 10.707 15.793C10.7997 15.8857 10.898 15.9664 11 16.0361V14.1152C10.6939 13.8406 10.5 13.4436 10.5 13C10.5 12.1716 11.1716 11.5 12 11.5ZM10 8.5C10.5523 8.5 11 8.94772 11 9.5C11 10.0523 10.5523 10.5 10 10.5C9.44772 10.5 9 10.0523 9 9.5C9 8.94772 9.44772 8.5 10 8.5ZM14 8.5C14.5523 8.5 15 8.94772 15 9.5C15 10.0523 14.5523 10.5 14 10.5C13.4477 10.5 13 10.0523 13 9.5C13 8.94772 13.4477 8.5 14 8.5Z" fill="#9E9E9E"/>
</g>
</svg>
