<svg width="24" height="24" viewBox="0 0 24 24" fill="none" xmlns="http://www.w3.org/2000/svg">
<g id="icons/Animals/bee">
<path id="Union" d="M17 1C17.5523 1 18 1.44772 18 2C18 2.55228 17.5523 3 17 3C15.8954 3 15 3.89543 15 5C15 5.05838 14.993 5.11526 14.9834 5.1709C15.3105 5.70328 15.5 6.32934 15.5 7V8.20312C16.4359 7.78139 17.5082 7.50003 18.2607 7.5C19.1638 7.5 20.073 7.89077 20.752 8.47266C21.4344 9.05747 22 9.9395 22 11C22 12.0605 21.4344 12.9425 20.752 13.5273C20.073 14.1092 19.1638 14.5 18.2607 14.5C17.6358 14.5 16.7902 14.306 15.9854 13.999C15.994 14.1145 16 14.2307 16 14.3477C16 16.0412 15.643 18.068 15.0625 19.6924C14.7732 20.5018 14.4084 21.2687 13.9629 21.8535C13.541 22.4073 12.8879 23 12 23C11.1121 23 10.459 22.4073 10.0371 21.8535C9.59158 21.2687 9.22678 20.5018 8.9375 19.6924C8.35696 18.068 8 16.0412 8 14.3477C8 14.2307 8.00503 14.1145 8.01367 13.999C7.20904 14.3058 6.36401 14.5 5.73926 14.5C4.83617 14.5 3.92705 14.1092 3.24805 13.5273C2.56564 12.9425 2 12.0605 2 11C2 9.93951 2.56564 9.05747 3.24805 8.47266C3.92705 7.89077 4.83617 7.5 5.73926 7.5C6.49183 7.50003 7.56409 7.78139 8.5 8.20312V7C8.5 6.07473 8.85896 5.23325 9.44531 4.60742C9.22488 3.77397 8.32362 3 7 3C6.44772 3 6 2.55228 6 2C6 1.44772 6.44772 1 7 1C8.83195 1 10.5585 2.0169 11.2178 3.58887C11.4694 3.53141 11.731 3.5 12 3.5C12.426 3.5 12.8344 3.57551 13.2119 3.71484C13.7473 2.13629 15.2405 1 17 1ZM12 12C10.9958 12 10.0001 12.9451 10 14.3477C10 15.8062 10.3151 17.6059 10.8203 19.0195C11.0739 19.7291 11.3556 20.2842 11.6279 20.6416C11.8313 20.9085 11.9593 20.9769 12 20.9941C12.0407 20.9769 12.1687 20.9085 12.3721 20.6416C12.6444 20.2842 12.9261 19.7291 13.1797 19.0195C13.6849 17.6059 14 15.8062 14 14.3477C13.9999 12.9451 13.0042 12 12 12ZM5.73926 9.5C5.38738 9.5 4.92656 9.66843 4.5498 9.99121C4.1764 10.3112 4 10.6798 4 11C4 11.3202 4.1764 11.6888 4.5498 12.0088C4.92656 12.3316 5.38738 12.5 5.73926 12.5C6.16393 12.5 7.07403 12.2817 7.89453 11.873C8.29388 11.6741 8.60765 11.4611 8.80664 11.2637C9.01473 11.0572 9 10.9686 9 11C9 11.0314 9.01473 10.9428 8.80664 10.7363C8.60765 10.5389 8.29388 10.3259 7.89453 10.127C7.07403 9.71829 6.16393 9.50004 5.73926 9.5ZM18.2607 9.5C17.8361 9.50004 16.926 9.71829 16.1055 10.127C15.7061 10.3259 15.3924 10.5389 15.1934 10.7363C14.9853 10.9428 15 11.0314 15 11C15 10.9686 14.9853 11.0572 15.1934 11.2637C15.3924 11.4611 15.7061 11.6741 16.1055 11.873C16.926 12.2817 17.8361 12.5 18.2607 12.5C18.6126 12.5 19.0734 12.3316 19.4502 12.0088C19.8236 11.6888 20 11.3202 20 11C20 10.6798 19.8236 10.3112 19.4502 9.99121C19.0734 9.66843 18.6126 9.5 18.2607 9.5ZM12 5.5C11.1716 5.5 10.5 6.17157 10.5 7V8.5C10.5 9.32843 11.1716 10 12 10C12.8284 10 13.5 9.32843 13.5 8.5V7C13.5 6.17157 12.8284 5.5 12 5.5Z" fill="#9E9E9E"/>
</g>
</svg>
