<svg width="24" height="24" viewBox="0 0 24 24" fill="none" xmlns="http://www.w3.org/2000/svg">
<g id="icons/Animals/bird">
<path id="Union" d="M6.0321 4.83447C7.2294 4.43389 8.73671 4.48397 10.1639 5.75244C10.1786 5.76544 10.1931 5.77962 10.2069 5.79346L11.7069 7.29346C11.9927 7.57918 12.3304 7.82032 12.83 7.88623C13.3463 7.95428 14.1916 7.85486 15.5175 7.12451L15.5936 7.08643L20.0936 5.08643L20.1942 5.04834C20.5748 4.92608 21.2438 4.78243 21.8505 5.1167C22.5884 5.52339 22.7411 6.31907 22.6786 7.00439C22.6156 7.69402 22.3281 8.5722 21.8114 9.67725C21.493 10.3582 21.0735 11.1505 20.538 12.0728L20.8036 12.02L20.8104 12.0181C21.14 11.9545 21.5438 11.9447 21.9266 12.0503C22.2999 12.1533 22.8566 12.4378 23.0399 13.104C23.2089 13.7184 22.9509 14.2967 22.6542 14.73C22.3377 15.1921 21.8353 15.701 21.1317 16.2749C21.1228 16.2822 21.1136 16.2894 21.1044 16.2964C19.5785 17.4552 16.9153 18.8495 13.952 19.3315C10.9639 19.8176 7.56918 19.3844 4.80554 16.7202C3.39944 15.3646 2.46201 13.7558 1.87878 12.5103C1.58527 11.8834 1.37634 11.3379 1.24011 10.9458C1.17196 10.7496 1.12166 10.5909 1.08777 10.479C1.07087 10.4232 1.05767 10.3788 1.04871 10.3472C1.04423 10.3314 1.04052 10.3184 1.03796 10.3091L1.03406 10.2935V10.2925L1.03308 10.2915C0.950429 9.98008 1.02354 9.64763 1.22839 9.39893L3.72839 6.36475L3.75281 6.33545C4.08222 5.96507 4.90888 5.21035 6.0321 4.83447ZM8.81726 7.23193C8.00211 6.51694 7.27362 6.52801 6.66687 6.73096C5.99057 6.95729 5.4464 7.44228 5.25378 7.65576L3.11609 10.2515C3.12035 10.2639 3.12433 10.2767 3.12878 10.2896C3.24638 10.628 3.42986 11.1085 3.68933 11.6626C4.2122 12.7792 5.0251 14.1537 6.19421 15.2808C8.37514 17.383 11.0646 17.7755 13.6317 17.3579C16.2136 16.9378 18.5686 15.7051 19.8788 14.7144C20.1615 14.4832 20.3838 14.281 20.5585 14.1079L18.6962 14.481C18.3037 14.5594 17.9022 14.3959 17.6757 14.0659C17.4494 13.7361 17.4411 13.3033 17.6552 12.9653C18.7751 11.1986 19.5236 9.84913 19.9999 8.83057C20.4012 7.97223 20.5852 7.39322 20.6552 7.0249L16.4344 8.90088C14.8975 9.73893 13.6333 10.0088 12.5692 9.86865C11.4777 9.72476 10.757 9.17167 10.2928 8.70752L8.81726 7.23193ZM6.99988 9.00049C7.55216 9.00049 7.99988 9.4482 7.99988 10.0005C7.99962 10.5526 7.552 11.0005 6.99988 11.0005C6.44781 11.0004 6.00013 10.5525 5.99988 10.0005C5.99988 9.44825 6.44765 9.00056 6.99988 9.00049Z" fill="#9E9E9E"/>
</g>
</svg>
