<svg width="24" height="24" viewBox="0 0 24 24" fill="none" xmlns="http://www.w3.org/2000/svg">
<g id="icons/Animals/butterfly">
<path id="Union" d="M16.5002 2.5C17.0524 2.50014 17.5002 2.9478 17.5002 3.5C17.5002 4.0522 17.0524 4.49986 16.5002 4.5C16.4079 4.50001 16.1042 4.58868 15.6184 5.08691C15.1689 5.54801 14.7006 6.22137 14.2805 7.00781C13.8634 7.78892 13.5148 8.64347 13.2864 9.44141C13.2829 9.4535 13.279 9.46551 13.2756 9.47754C14.2314 8.43672 15.2988 7.37586 16.3518 6.5127C17.2995 5.7359 18.3109 5.05525 19.2668 4.72949C20.2371 4.39893 21.4215 4.36757 22.261 5.35156L22.26 5.35254C23.0243 6.17175 23.1633 7.82265 21.8206 9.57031L21.8215 9.57129C21.6465 9.82328 21.122 10.9121 21.4827 12.8145C21.4942 12.8756 21.5002 12.9387 21.5002 13.001C21.4999 13.6052 21.1876 14.4024 20.2844 14.7598C20.2481 14.7741 20.2104 14.7863 20.1731 14.7988C20.2314 14.8871 20.2894 14.9769 20.343 15.0684C20.9809 16.1579 21.3465 17.6669 20.3079 19.0898C20.3 19.1006 20.2918 19.1116 20.2834 19.1221C19.5379 20.0604 18.1899 21.239 16.5901 21.4082C15.7442 21.4976 14.8657 21.2969 14.0598 20.6904C13.2887 20.1099 12.6387 19.1983 12.1057 17.9473L12.0002 17.7363L11.8948 17.9473C11.3617 19.1985 10.7118 20.1099 9.94067 20.6904C9.13475 21.297 8.25631 21.4975 7.4104 21.4082C5.81086 21.239 4.46265 20.0613 3.71704 19.123C3.70868 19.1125 3.70054 19.1007 3.69263 19.0898C2.65408 17.6669 3.01955 16.1578 3.65747 15.0684C3.71099 14.977 3.76817 14.8871 3.82642 14.7988C3.78969 14.7865 3.7528 14.7739 3.71704 14.7598C2.81341 14.4025 2.50053 13.6054 2.50024 13.001C2.50024 12.9386 2.50624 12.8757 2.51782 12.8145C2.87844 10.9127 2.35419 9.82371 2.17896 9.57129H2.17798C0.835207 7.82326 0.976674 6.1714 1.74146 5.35254L1.7395 5.35156C2.57912 4.36745 3.76426 4.39883 4.73462 4.72949C5.69026 5.05532 6.70128 5.73618 7.64868 6.5127C8.70152 7.37572 9.76828 8.43688 10.7239 9.47754C10.7205 9.46557 10.7176 9.45343 10.7141 9.44141C10.4857 8.64349 10.1371 7.78891 9.71997 7.00781C9.29995 6.22139 8.83157 5.54803 8.38208 5.08691C7.89665 4.58899 7.59292 4.50016 7.50024 4.5C6.94796 4.5 6.50024 4.05228 6.50024 3.5C6.50024 2.94772 6.94796 2.5 7.50024 2.5C8.42924 2.50011 9.22848 3.0902 9.81372 3.69043C10.4353 4.32803 11.0071 5.17406 11.4836 6.06641C11.6681 6.41189 11.8404 6.77081 11.9993 7.13477C12.1582 6.77059 12.3322 6.41209 12.5168 6.06641C12.9934 5.17404 13.5652 4.32802 14.1868 3.69043C14.7721 3.09019 15.5712 2.50001 16.5002 2.5ZM20.7395 6.64941C20.6632 6.56 20.5093 6.41832 19.9114 6.62207C19.2987 6.83089 18.5102 7.32942 17.6194 8.05957C15.8591 9.50245 13.9924 11.6027 12.7825 13.123C12.5928 13.3612 12.3047 13.5009 12.0002 13.501C11.6958 13.5009 11.4077 13.3612 11.218 13.123C10.0082 11.6028 8.14127 9.50241 6.3811 8.05957C5.49052 7.3296 4.70174 6.83092 4.08911 6.62207C3.49112 6.41832 3.33731 6.55998 3.26099 6.64941C3.23938 6.67473 3.21665 6.69962 3.19263 6.72266C3.33665 6.58455 2.83566 7.0182 3.6145 8.14941L3.78833 8.38477L3.82153 8.42969C4.30595 9.12671 4.8865 10.6722 4.52661 12.917C4.70571 12.9478 5.17553 12.9533 6.12915 12.5723C6.6023 12.3832 7.14192 12.58 7.38208 13.0293C7.62168 13.4787 7.48573 14.0372 7.06567 14.3252C6.55047 14.6781 5.81664 15.3405 5.38403 16.0791C4.96783 16.7898 4.9234 17.3688 5.29517 17.8926C5.90639 18.656 6.81144 19.3344 7.62134 19.4199C7.98257 19.4579 8.3514 19.3833 8.73755 19.0928C9.14628 18.7851 9.62512 18.1952 10.0784 17.1143L10.1057 17.0537L11.1057 15.0537L11.177 14.9326C11.3619 14.6645 11.6687 14.501 12.0002 14.501C12.3789 14.5011 12.7254 14.715 12.8948 15.0537L13.8948 17.0537L13.9221 17.1143C14.3754 18.1952 14.8542 18.7851 15.2629 19.0928C15.6493 19.3834 16.0187 19.4581 16.3801 19.4199C17.1898 19.3342 18.0933 18.6557 18.7043 17.8926C19.0765 17.3688 19.0335 16.7899 18.6174 16.0791C18.1849 15.3406 17.45 14.6782 16.9348 14.3252C16.5147 14.0371 16.3786 13.4788 16.6184 13.0293C16.8585 12.5799 17.3981 12.3832 17.8713 12.5723C18.8234 12.9526 19.2932 12.9477 19.4729 12.917C19.113 10.6721 19.6946 9.12665 20.179 8.42969L20.2122 8.38477C21.0945 7.25664 20.7831 6.72671 20.7805 6.69824L20.8079 6.72266C20.7839 6.6997 20.761 6.67464 20.7395 6.64941Z" fill="#9E9E9E"/>
</g>
</svg>
