<svg width="24" height="24" viewBox="0 0 24 24" fill="none" xmlns="http://www.w3.org/2000/svg">
<g id="icons/Animals/cat">
<path id="Union" d="M18.6635 2.75684C19.9507 1.59996 22.0004 2.51323 22.0004 4.24414V13L21.9867 13.4727C21.9672 13.8165 21.9242 14.1541 21.8636 14.4854L22.0834 14.5039C22.6336 14.55 23.0423 15.0328 22.9965 15.583C22.9506 16.1332 22.4676 16.5417 21.9174 16.4961L21.2455 16.4395C20.828 17.3495 20.2503 18.1786 19.5463 18.9043L20.9476 19.6055C21.4413 19.8525 21.6418 20.4534 21.3949 20.9473C21.148 21.4411 20.547 21.6413 20.0531 21.3945L17.8519 20.2939C16.1922 21.3707 14.1624 21.9999 12.0004 22C9.8378 22 7.80681 21.3711 6.14685 20.2939L3.94763 21.3945C3.45372 21.6415 2.85289 21.4411 2.60583 20.9473C2.35885 20.4533 2.55912 19.8525 3.0531 19.6055L4.45349 18.9043C3.74938 18.1785 3.17079 17.3496 2.7533 16.4395L2.08337 16.4961C1.53303 16.542 1.05019 16.1333 1.00427 15.583C0.958408 15.0326 1.36698 14.5498 1.91736 14.5039L2.13513 14.4854C2.07464 14.1542 2.03253 13.8165 2.01306 13.4727L2.00037 13V4.24414C2.00037 2.51314 4.05002 1.59971 5.33728 2.75684L7.69275 4.87402C9.00043 4.31214 10.4625 4 12.0004 4C13.5382 4.00005 14.9994 4.31311 16.307 4.875L18.6635 2.75684ZM17.2924 6.67871C17.0039 7.05499 16.4799 7.18402 16.0433 6.95996C14.8613 6.35221 13.4807 6.00006 12.0004 6C10.52 6 9.13945 6.35225 7.9574 6.95996C7.51945 7.18493 6.99247 7.05475 6.70447 6.67578L4.00037 4.24414V13L4.01013 13.3506C4.02899 13.6782 4.07515 14.0009 4.1449 14.3174L7.91736 14.0039C8.46758 13.9583 8.95061 14.3667 8.99646 14.917C9.04225 15.4672 8.63352 15.95 8.08337 15.9961L4.92517 16.2588C5.30191 16.8838 5.78468 17.455 6.35388 17.9541L9.0531 16.6055C9.54702 16.3587 10.148 16.5589 10.3949 17.0527C10.6417 17.5466 10.4413 18.1475 9.94763 18.3945L8.30994 19.2129C9.40462 19.7126 10.6554 20 12.0004 20C13.3449 19.9999 14.5944 19.7114 15.6888 19.2119L14.0531 18.3945C13.5591 18.1475 13.3588 17.5467 13.6058 17.0527C13.8529 16.5588 14.4537 16.3585 14.9476 16.6055L17.6459 17.9541C18.215 17.4552 18.6969 16.8836 19.0736 16.2588L15.9174 15.9961C15.367 15.9502 14.9584 15.4674 15.0043 14.917C15.0501 14.3666 15.533 13.958 16.0834 14.0039L19.8539 14.3174C19.9237 14.0009 19.9708 13.6783 19.9896 13.3506L20.0004 13V4.24414L17.2924 6.67871ZM12.0004 13C12.5525 13.0002 13.0004 13.4478 13.0004 14C13.0003 14.5521 12.5524 14.9998 12.0004 15C11.4481 15 11.0004 14.5523 11.0004 14C11.0004 13.4477 11.4481 13 12.0004 13ZM9.00037 10C9.55247 10.0002 10.0004 10.4478 10.0004 11C10.0003 11.5521 9.55245 11.9998 9.00037 12C8.4481 12 8.0004 11.5523 8.00037 11C8.00037 10.4477 8.44808 10 9.00037 10ZM15.0004 10C15.5525 10.0002 16.0004 10.4478 16.0004 11C16.0003 11.5521 15.5524 11.9998 15.0004 12C14.4481 12 14.0004 11.5523 14.0004 11C14.0004 10.4477 14.4481 10 15.0004 10Z" fill="#9E9E9E"/>
</g>
</svg>
