<svg width="24" height="24" viewBox="0 0 24 24" fill="none" xmlns="http://www.w3.org/2000/svg">
<g id="icons/Animals/cattle-zodiac">
<path id="Union" d="M14.8584 1.00928C15.4049 0.931233 15.9119 1.31148 15.9902 1.85791C16.0683 2.40458 15.6882 2.91155 15.1416 2.98975L12.0342 3.43311C12.0588 3.45846 12.0853 3.48218 12.1094 3.5083C13.103 4.58476 13.4999 6.13246 13.5 7.99951C13.5 8.5518 13.0523 8.99951 12.5 8.99951C11.9477 8.99951 11.5 8.5518 11.5 7.99951C11.4999 6.36743 11.1466 5.41421 10.6406 4.86572C10.1638 4.34932 9.38897 4.01825 8.10938 4.00049C6.08347 4.46848 4.97471 5.23608 4.35645 6.04443C3.72435 6.87112 3.50005 7.87715 3.5 8.99951V21.9995C3.5 22.5518 3.05228 22.9995 2.5 22.9995C1.94772 22.9995 1.5 22.5518 1.5 21.9995V8.99951C1.50005 7.62223 1.77593 6.12764 2.76855 4.82959C3.76451 3.52745 5.37808 2.55742 7.7832 2.02295L7.8584 2.00928L14.8584 1.00928ZM11 16.9995C13.7613 16.9995 15.9998 19.2383 16 21.9995C16 22.5518 15.5523 22.9995 15 22.9995C14.4477 22.9995 14 22.5518 14 21.9995C13.9998 20.3428 12.6567 18.9995 11 18.9995C9.34327 18.9995 8.00022 20.3428 8 21.9995C8 22.5518 7.55228 22.9995 7 22.9995C6.44772 22.9995 6 22.5518 6 21.9995C6.00022 19.2383 8.2387 16.9995 11 16.9995ZM8.79297 9.29248C9.18344 8.90223 9.81656 8.90223 10.207 9.29248C11.1231 10.2085 11.7717 11.4995 14 11.4995C14.9084 11.4995 16.3412 11.7079 17.585 12.4097C18.4754 12.9122 19.2825 13.6838 19.7002 14.7866C19.7023 14.7887 19.7049 14.7904 19.707 14.7925L22.707 17.7925C23.0975 18.1829 23.0974 18.816 22.707 19.2065C22.3165 19.5971 21.6835 19.5971 21.293 19.2065L20 17.9136V21.9995C20 22.5518 19.5523 22.9995 19 22.9995C18.4477 22.9995 18 22.5518 18 21.9995V16.4995C17.9999 15.3108 17.4116 14.6085 16.6025 14.1519C15.7422 13.6664 14.6747 13.4995 14 13.4995C10.7283 13.4995 9.37692 11.2905 8.79297 10.7065C8.40265 10.316 8.40251 9.68294 8.79297 9.29248Z" fill="#9E9E9E"/>
</g>
</svg>
