<svg width="24" height="24" viewBox="0 0 24 24" fill="none" xmlns="http://www.w3.org/2000/svg">
<g id="icons/Animals/cattle">
<path id="Union" d="M18.5199 1.4248C19.5276 0.987633 21.0794 0.621163 22.2074 1.74902C22.6463 2.18794 22.9391 2.69337 23.0238 3.25098C23.109 3.81257 22.9668 4.32102 22.7279 4.73047C22.2773 5.50235 21.447 6.00054 20.7426 6.17676C19.9519 6.37454 19.3631 6.85732 19.015 7.27148C19.2697 8.15052 19.3644 9.09409 19.2621 10.0664L18.6244 16.1211L18.4945 17.3545L18.4886 17.3535C18.039 20.5788 15.2794 22.9997 12.0004 23C8.72108 23 5.95978 20.579 5.51013 17.3535L5.50623 17.3545L5.48376 17.1455C5.48328 17.141 5.48229 17.1364 5.48181 17.1318L4.73865 10.0664C4.63469 9.07865 4.73252 8.12039 4.99646 7.22949C4.64441 6.82536 4.06988 6.36784 3.30603 6.17676C2.60151 6.00063 1.7714 5.50249 1.32068 4.73047C1.08165 4.32095 0.94046 3.81272 1.02576 3.25098C1.11054 2.69336 1.40227 2.18794 1.84119 1.74902C2.96929 0.62123 4.52104 0.987603 5.52869 1.4248C6.54927 1.86775 7.50802 2.58128 8.11267 3.12012C9.23425 2.41278 10.5649 2 12.0004 2C13.4475 2.00012 14.7872 2.42064 15.9144 3.13867C16.5178 2.5977 17.4875 1.87286 18.5199 1.4248ZM16.3588 16.2666C14.4283 14.6518 12.6484 14.3489 11.1918 14.5596C9.69175 14.7768 8.43752 15.5559 7.66736 16.2451C7.59063 16.3138 7.50532 16.3674 7.41638 16.4082L7.46814 16.8975L7.47107 16.9229C7.71508 19.2406 9.6699 21 12.0004 21C14.3306 20.9997 16.2847 19.2403 16.5287 16.9229L16.5824 16.4072C16.5038 16.371 16.4283 16.3248 16.3588 16.2666ZM10.5004 16C11.0524 16.0002 11.5003 16.4479 11.5004 17C11.5004 17.5522 11.0525 17.9998 10.5004 18C9.94808 18 9.50037 17.5523 9.50037 17C9.50045 16.4478 9.94813 16 10.5004 16ZM13.5004 16C14.0524 16.0002 14.5003 16.4479 14.5004 17C14.5004 17.5522 14.0525 17.9998 13.5004 18C12.9481 18 12.5004 17.5523 12.5004 17C12.5005 16.4478 12.9481 16 13.5004 16ZM12.0004 4C8.85284 4 6.39871 6.72623 6.72791 9.85645L7.17322 14.0908C8.12991 13.4225 9.40798 12.7968 10.9047 12.5801C12.7045 12.3196 14.7473 12.6649 16.8246 14.1104L17.2728 9.85645C17.602 6.7265 15.1476 4.00035 12.0004 4ZM9.50037 8C10.0524 8.0002 10.5003 8.44791 10.5004 9C10.5004 9.55216 10.0525 9.9998 9.50037 10C8.94808 10 8.50037 9.55228 8.50037 9C8.50045 8.44779 8.94813 8 9.50037 8ZM14.5004 8C15.0524 8.0002 15.5003 8.44791 15.5004 9C15.5004 9.55216 15.0525 9.9998 14.5004 10C13.9481 10 13.5004 9.55228 13.5004 9C13.5005 8.44779 13.9481 8 14.5004 8ZM20.7933 3.16309C20.6177 2.98764 20.2108 2.87143 19.3158 3.25977C18.6376 3.55409 17.9498 4.03643 17.4554 4.4502C17.7022 4.72763 17.9278 5.02373 18.1302 5.33594C18.6745 4.87553 19.3858 4.45443 20.2582 4.23633C20.3839 4.2048 20.5431 4.13561 20.6927 4.03223C20.8432 3.92816 20.9459 3.81568 21.0004 3.72266C21.049 3.63917 21.0519 3.5876 21.0463 3.55078C21.0399 3.50921 21.0055 3.37527 20.7933 3.16309ZM4.73279 3.25977C3.83783 2.8714 3.43094 2.98769 3.25525 3.16309C3.04312 3.37521 3.00876 3.50912 3.00232 3.55078C2.99672 3.58764 2.99938 3.63901 3.04822 3.72266C3.10267 3.81576 3.2052 3.92807 3.35583 4.03223C3.50571 4.13579 3.66559 4.20488 3.79138 4.23633C4.64634 4.45019 5.34545 4.85985 5.88513 5.30957C6.08898 4.99808 6.31677 4.70329 6.56482 4.42676C6.07255 4.01846 5.39807 3.54851 4.73279 3.25977Z" fill="#9E9E9E"/>
</g>
</svg>
