<svg width="24" height="24" viewBox="0 0 24 24" fill="none" xmlns="http://www.w3.org/2000/svg">
<g id="icons/Animals/chicken-zodiac">
<path id="Union" d="M4.94568 1.16797C5.40518 0.861851 6.02611 0.985876 6.3324 1.44531L8.05798 4.0332C9.02325 3.9579 9.93702 4.02298 10.6732 4.15234C11.2168 4.24804 11.5809 4.76595 11.4857 5.30957C11.3902 5.85332 10.8713 6.2173 10.3275 6.12207C9.00016 5.8888 7.11205 5.93976 5.68103 6.7207C4.98709 7.09951 4.40426 7.64693 4.01697 8.42871C3.62694 9.21622 3.40151 10.311 3.54236 11.834C3.54518 11.8645 3.54723 11.8952 3.54724 11.9258C3.54724 12.8774 3.80136 14.3835 4.54236 15.7939C5.22764 17.0982 6.30791 18.2879 7.96912 18.9287L8.30994 19.0488L8.40271 19.085C8.6152 19.1785 8.79015 19.3432 8.8949 19.5527L9.8949 21.5527C10.1418 22.0466 9.94136 22.6475 9.44763 22.8945C8.95368 23.1415 8.35284 22.9412 8.10583 22.4473L7.28552 20.8066C5.06491 19.962 3.63837 18.3729 2.77185 16.7236C1.87998 15.026 1.56143 13.2299 1.55017 11.9932C1.38775 10.1988 1.63858 8.72495 2.22498 7.54102C2.81684 6.34624 3.71537 5.51588 4.72302 4.96582C5.112 4.75353 5.51758 4.58286 5.93005 4.44727L4.66833 2.55469C4.36198 2.09516 4.48615 1.47432 4.94568 1.16797ZM20.1488 6.06348C20.6657 5.86983 21.2429 6.13164 21.4369 6.64844C21.6307 7.16534 21.3686 7.74238 20.8519 7.93652C17.1632 9.31978 16.2525 12.4597 16.3715 14.5H17.8383C17.8171 13.9497 17.8735 13.3336 18.0717 12.71C18.4639 11.476 19.3841 10.2884 21.1205 9.5752C21.6313 9.36561 22.2154 9.60938 22.4252 10.1201C22.6349 10.6309 22.3909 11.2149 21.8802 11.4248C20.6951 11.9116 20.1913 12.6412 19.9769 13.3154C19.7495 14.0311 19.8271 14.7647 19.9554 15.2031C19.9674 15.2415 19.9755 15.2811 19.9828 15.3213C19.9842 15.3291 19.9855 15.3369 19.9867 15.3447C19.9908 15.3708 19.9935 15.3971 19.9955 15.4238C19.9966 15.4378 19.9979 15.4518 19.9984 15.4658C19.9988 15.4772 20.0004 15.4885 20.0004 15.5C20.0004 16.5982 19.3287 17.7835 18.3754 18.7305C17.4768 19.6229 16.2244 20.4116 14.6918 20.8516L13.8949 22.4473C13.6479 22.9412 13.047 23.1413 12.5531 22.8945C12.0591 22.6475 11.8588 22.0467 12.1058 21.5527L13.1058 19.5527C13.2391 19.2863 13.4845 19.0926 13.7748 19.0254C15.148 18.7075 16.2334 18.0382 16.9652 17.3115C17.2507 17.0279 17.4672 16.7522 17.6263 16.5H15.5004C12.9451 16.5 11.2554 15.0964 10.2054 13.5244C9.17388 11.9798 8.70228 10.2051 8.51599 9.17871C8.41739 8.63533 8.77829 8.11427 9.32166 8.01562C9.86491 7.91722 10.3861 8.27804 10.4847 8.82129C10.6463 9.71149 11.0497 11.1869 11.8685 12.4131C12.4758 13.3224 13.2766 14.0518 14.3676 14.3516C14.31 11.6331 15.5927 7.77217 20.1488 6.06348Z" fill="#9E9E9E"/>
</g>
</svg>
