<svg width="24" height="24" viewBox="0 0 24 24" fill="none" xmlns="http://www.w3.org/2000/svg">
<g id="icons/Animals/deer">
<path id="Union" d="M18.0002 1C18.5524 1.0001 19.0002 1.44778 19.0002 2C19.0002 4.3162 17.8742 6.36843 16.1409 7.64258C16.35 7.73126 16.5475 7.82985 16.7336 7.93945C16.9378 7.53273 17.2151 7.14642 17.5559 6.80566C18.1712 6.19038 18.9323 5.77643 19.7014 5.64062C20.4669 5.50564 21.3392 5.63973 21.9749 6.27539C22.6105 6.91106 22.7446 7.78339 22.6096 8.54883C22.4738 9.31798 22.0599 10.079 21.4446 10.6943C20.8292 11.3097 20.0683 11.7236 19.2991 11.8594C19.1789 11.8806 19.056 11.8924 18.9319 11.8994C18.9839 12.4199 19.0002 12.9575 19.0002 13.5C19.0002 15.5199 18.26 17.8317 17.0823 19.6475C15.9266 21.4292 14.1628 22.9999 12.0002 23C9.83765 23 8.07395 21.4292 6.91821 19.6475C5.74043 17.8316 5.00024 15.52 5.00024 13.5C5.00024 12.9573 5.01461 12.4192 5.06665 11.8984C4.94303 11.8914 4.82013 11.8805 4.70044 11.8594C3.93135 11.7235 3.1702 11.3096 2.55493 10.6943C1.9397 10.079 1.52668 9.31794 1.39087 8.54883C1.2558 7.78346 1.38921 6.91114 2.02466 6.27539C2.66044 5.63961 3.53355 5.50553 4.29907 5.64062C5.06822 5.77648 5.82927 6.19035 6.44458 6.80566C6.78513 7.14627 7.06081 7.53296 7.26489 7.93945C7.45118 7.82966 7.64929 7.73139 7.85864 7.64258C6.12554 6.3684 5.00024 4.31603 5.00024 2C5.00024 1.44772 5.44796 1 6.00024 1C6.55244 1.0001 7.00024 1.44778 7.00024 2C7.00024 3.24153 7.45331 4.37675 8.20239 5.25098C8.06976 4.69606 8.00024 4.10616 8.00024 3.5C8.00024 2.94772 8.44796 2.5 9.00024 2.5C9.55244 2.5001 10.0002 2.94778 10.0002 3.5C10.0002 4.57269 10.2922 5.49839 10.7112 6.12695C11.1349 6.76244 11.6102 7 12.0002 7C12.3903 6.99993 12.8657 6.76241 13.2893 6.12695C13.7083 5.49839 14.0002 4.57264 14.0002 3.5C14.0002 2.94772 14.448 2.5 15.0002 2.5C15.5524 2.5001 16.0002 2.94778 16.0002 3.5C16.0002 4.10663 15.929 4.69666 15.7961 5.25195C16.5459 4.37754 17.0002 3.24217 17.0002 2C17.0002 1.44772 17.448 1 18.0002 1ZM12.0002 9C9.43206 9 8.31279 9.47672 7.76978 10.0713C7.21121 10.6831 7.00024 11.6882 7.00024 13.5C7.00024 15.0882 7.60318 17.0265 8.59692 18.5586C9.61275 20.1247 10.8492 21 12.0002 21C13.1513 20.9999 14.3878 20.1246 15.4036 18.5586C16.3973 17.0265 17.0002 15.0882 17.0002 13.5C17.0002 11.6883 16.7892 10.6831 16.2307 10.0713C15.6877 9.47669 14.5684 9.00002 12.0002 9ZM12.0002 16C12.5524 16.0001 13.0002 16.4478 13.0002 17C13.0002 17.5522 12.5524 17.9999 12.0002 18C11.448 18 11.0002 17.5523 11.0002 17C11.0002 16.4477 11.448 16 12.0002 16ZM10.0002 12C10.5524 12.0001 11.0002 12.4478 11.0002 13C11.0002 13.5522 10.5524 13.9999 10.0002 14C9.44796 14 9.00024 13.5523 9.00024 13C9.00024 12.4477 9.44796 12 10.0002 12ZM14.0002 12C14.5524 12.0001 15.0002 12.4478 15.0002 13C15.0002 13.5522 14.5524 13.9999 14.0002 14C13.448 14 13.0002 13.5523 13.0002 13C13.0002 12.4477 13.448 12 14.0002 12ZM3.95044 7.60938C3.629 7.55281 3.48741 7.64182 3.4397 7.68945C3.39206 7.73709 3.30283 7.87914 3.35962 8.20117C3.41586 8.51948 3.60921 8.91951 3.96997 9.28027C4.33077 9.64097 4.7308 9.83348 5.04907 9.88965C5.37098 9.94638 5.51317 9.85817 5.56079 9.81055C5.60845 9.76281 5.69664 9.62062 5.63989 9.29883C5.58373 8.98056 5.39121 8.58052 5.03052 8.21973C4.66965 7.85886 4.26879 7.66555 3.95044 7.60938ZM20.5608 7.68945C20.5131 7.64182 20.3711 7.55357 20.0491 7.61035C19.7308 7.66654 19.3308 7.85898 18.97 8.21973C18.6092 8.58051 18.4158 8.98052 18.3596 9.29883C18.3028 9.62081 18.3921 9.76289 18.4397 9.81055C18.4873 9.85818 18.6294 9.94742 18.9514 9.89062C19.2697 9.8344 19.6697 9.64107 20.0305 9.28027C20.3913 8.91946 20.5837 8.51947 20.6399 8.20117C20.6967 7.87914 20.6084 7.73709 20.5608 7.68945Z" fill="#9E9E9E"/>
</g>
</svg>
