<svg width="24" height="24" viewBox="0 0 24 24" fill="none" xmlns="http://www.w3.org/2000/svg">
<g id="icons/Animals/dog-zodiac">
<path id="Union" d="M9.52637 1.11914C9.83616 0.952565 10.2107 0.961225 10.5127 1.1416C10.8149 1.32209 11 1.64803 11 2V5.5H13.5C14.0523 5.5 14.5 5.94772 14.5 6.5V9.5C14.5 10.0523 14.0523 10.5 13.5 10.5C12.9477 10.5 12.5 10.0523 12.5 9.5V7.5H10C9.44772 7.5 9 7.05228 9 6.5V3.7168C5.03564 6.07662 4 7.81534 4 9.5V22C4 22.5523 3.55228 23 3 23C2.44772 23 2 22.5523 2 22V9.5C2 6.37705 4.31682 3.92428 9.52637 1.11914ZM7.08594 12.0947C7.30989 11.59 7.9005 11.3621 8.40527 11.5859C10.0947 12.3355 13.244 13.7517 14.7793 17.375C14.9032 17.5294 14.981 17.7202 14.9961 17.9258C15.2035 18.5083 15.3709 19.1431 15.4863 19.8359C15.5387 20.1486 15.9549 20.732 16.6914 20.9004C17.3208 21.0443 18.4062 20.9072 19.7412 19.3496L19.7695 19.3174C20.1254 18.936 20.204 18.5706 20.1406 18.332C20.0832 18.116 19.8073 17.6306 18.5771 17.2363C18.0512 17.0678 17.7611 16.5045 17.9297 15.9785C18.0983 15.4528 18.6617 15.1635 19.1875 15.332C20.7351 15.828 21.7669 16.6661 22.0732 17.8184C22.3735 18.9481 21.8714 19.9961 21.2305 20.6826L21.2295 20.6816C19.5725 22.5984 17.7954 23.2037 16.2461 22.8496C14.7954 22.518 13.7116 21.3515 13.5137 20.1641C13.4434 19.7427 13.3499 19.3483 13.2373 18.9785C12.5884 19.0067 11.7766 19.1579 11.0742 19.5107C10.1645 19.9678 9.5 20.711 9.5 22C9.49992 22.5522 9.05224 23 8.5 23C7.94776 23 7.50008 22.5522 7.5 22C7.5 19.7892 8.75224 18.4378 10.1758 17.7227C10.8846 17.3666 11.65 17.1573 12.3613 17.0537C11.0451 14.9777 9.01036 14.0422 7.59473 13.4141C7.08999 13.1901 6.86213 12.5995 7.08594 12.0947Z" fill="#9E9E9E"/>
</g>
</svg>
