<svg width="24" height="24" viewBox="0 0 24 24" fill="none" xmlns="http://www.w3.org/2000/svg">
<g id="icons/Animals/dog">
<path id="Union" d="M15.5713 2.12842C15.7746 1.62078 16.3489 1.36968 16.8594 1.56592C17.6851 1.88357 18.686 2.8114 19.417 4.04639C20.1444 5.27547 20.6736 6.92272 20.5156 8.85986C21.4523 10.4992 21.9999 12.3701 22 14.2495C22 16.9814 20.8433 19.0922 18.96 20.4897C17.1111 21.8616 14.6315 22.4995 12 22.4995C9.36854 22.4995 6.88892 21.8616 5.04004 20.4897C3.15667 19.0922 2 16.9814 2 14.2495C2.00008 12.3702 2.54692 10.4991 3.4834 8.85986C3.32541 6.92276 3.85562 5.27545 4.58301 4.04639C5.31397 2.81141 6.31492 1.88359 7.14062 1.56592L7.2373 1.53467C7.72166 1.40228 8.2381 1.65248 8.42871 2.12842L9.16992 3.98096C10.0627 3.67311 11.0114 3.49951 12 3.49951C12.9883 3.49951 13.9365 3.6733 14.8291 3.98096L15.5713 2.12842ZM12 5.49951C9.85659 5.49951 7.86324 6.56087 6.38379 8.22607C4.90159 9.89462 4.00012 12.1015 4 14.2495C4 16.3497 4.85802 17.864 6.23145 18.8833C7.63993 19.9284 9.66091 20.4995 12 20.4995C14.3391 20.4995 16.3601 19.9284 17.7686 18.8833C19.142 17.864 20 16.3497 20 14.2495C19.9999 12.1015 19.0984 9.89462 17.6162 8.22607C16.1368 6.56087 14.1434 5.49951 12 5.49951ZM12 11.2495C12.4722 11.2495 12.9672 11.3333 13.3672 11.6226C13.8214 11.9513 13.9999 12.4317 14 12.8745C14 13.1541 13.9018 13.3753 13.8242 13.5103C13.7437 13.6501 13.6473 13.7634 13.5674 13.8472C13.4082 14.0139 13.2226 14.1567 13.0752 14.2603C13.064 14.2681 13.0521 14.2751 13.041 14.2827C13.0497 14.3336 13.0603 14.3815 13.0723 14.4263C13.1184 14.5987 13.1726 14.6613 13.1953 14.6812C13.2049 14.6895 13.2723 14.7495 13.5127 14.7495C13.7887 14.7493 14.0127 14.5256 14.0127 14.2495C14.0129 13.6975 14.4606 13.2496 15.0127 13.2495C15.5647 13.2497 16.0125 13.6975 16.0127 14.2495C16.0127 15.6301 14.8933 16.7493 13.5127 16.7495C12.9382 16.7495 12.4239 16.5998 12.0059 16.2866C11.588 16.5995 11.0743 16.7495 10.5 16.7495C9.11927 16.7495 8 15.6302 8 14.2495C8.00023 13.6974 8.44786 13.2495 9 13.2495C9.55214 13.2495 9.99977 13.6974 10 14.2495C10 14.5257 10.2238 14.7495 10.5 14.7495C10.7422 14.7495 10.8086 14.6888 10.8174 14.6812C10.8401 14.6614 10.8942 14.5989 10.9404 14.4263C10.9518 14.3835 10.9613 14.3379 10.9697 14.2896C10.9552 14.2796 10.9395 14.2706 10.9248 14.2603C10.7774 14.1567 10.5918 14.0139 10.4326 13.8472C10.3527 13.7634 10.2563 13.6501 10.1758 13.5103C10.0982 13.3753 10 13.1541 10 12.8745C10.0001 12.4317 10.1786 11.9513 10.6328 11.6226C11.0328 11.3333 11.5278 11.2495 12 11.2495ZM10 7.49951C10.5521 7.49951 10.9998 7.94742 11 8.49951C11 9.0518 10.5523 9.49951 10 9.49951C9.44772 9.49951 9 9.0518 9 8.49951C9.00023 7.94742 9.44786 7.49951 10 7.49951ZM14 7.49951C14.5521 7.49951 14.9998 7.94742 15 8.49951C15 9.0518 14.5523 9.49951 14 9.49951C13.4477 9.49951 13 9.0518 13 8.49951C13.0002 7.94742 13.4479 7.49951 14 7.49951ZM7.0498 4.06885C6.80935 4.32285 6.54836 4.65332 6.30469 5.06494C6.15305 5.32116 6.01291 5.60206 5.8916 5.90479C6.34774 5.50659 6.83808 5.14784 7.35645 4.83447L7.0498 4.06885ZM16.6426 4.83447C17.161 5.14782 17.6512 5.5066 18.1074 5.90479C17.9861 5.60219 17.8469 5.32107 17.6953 5.06494C17.4515 4.65305 17.1898 4.32291 16.9492 4.06885L16.6426 4.83447Z" fill="#9E9E9E"/>
</g>
</svg>
