<svg width="24" height="24" viewBox="0 0 24 24" fill="none" xmlns="http://www.w3.org/2000/svg">
<g id="icons/Animals/dolphin">
<path id="Union" d="M6.01062 2.16504C7.51952 1.35573 9.48895 1.16216 11.9344 2.34277C12.7618 1.84292 14.2201 1.23954 15.9481 2.10645C16.2523 2.25914 16.458 2.55612 16.494 2.89453C16.5299 3.2331 16.3913 3.56713 16.1259 3.78027C16.1857 3.73219 16.1604 3.72905 16.08 3.88281C16.0119 4.01303 15.937 4.19169 15.8593 4.40918C15.7828 4.62316 15.7102 4.85366 15.6454 5.08008C17.7237 6.7188 20.2293 10.6317 20.0223 16.5215C20.4887 16.889 21.0731 17.3936 21.5946 17.9795C22.2611 18.7283 22.9998 19.7998 22.9999 21C22.9999 21.3138 22.852 21.6099 22.6014 21.7988C22.351 21.9876 22.0261 22.0481 21.7245 21.9619L18.5985 21.0684L15.9471 22.3945C15.5905 22.5728 15.1616 22.5221 14.8563 22.2656C14.5512 22.0091 14.4278 21.5958 14.5419 21.2139C14.7632 20.4735 15.2876 18.8704 15.8446 17.6104C15.0794 16.5536 14.1166 15.2338 12.9344 13.9658C11.7827 12.7305 10.4621 11.5909 8.98132 10.8223C8.91794 10.9622 8.85272 11.1034 8.79382 11.2422C8.69477 11.4755 8.61233 11.6856 8.55652 11.8516C8.52151 11.9557 8.50728 12.0138 8.50183 12.0352L8.49988 12L8.49597 12.0889C8.45694 12.5297 8.12985 12.8976 7.68835 12.9824C7.21738 13.0728 6.74774 12.8156 6.57019 12.3701C6.43011 12.0187 5.88367 10.7552 5.60437 9.24707C4.7444 8.95227 3.70752 8.62385 3.1825 8.44824C3.17408 8.44543 3.16544 8.44249 3.1571 8.43945C2.8558 8.32949 2.51032 8.16123 2.20691 7.94434C1.93889 7.75266 1.5347 7.40501 1.38074 6.88574C1.29395 6.59267 1.29304 6.26043 1.42566 5.93457C1.55218 5.6241 1.76993 5.39196 1.995 5.22266C2.34739 4.95762 2.82688 4.7644 3.4032 4.61426C3.87263 3.95694 4.71864 2.85817 6.01062 2.16504ZM11.5165 4.37598C9.33253 3.17184 7.90507 3.41925 6.95691 3.92773C5.9137 4.48728 5.26121 5.45227 4.81433 6.08008C4.6696 6.28341 4.45382 6.42502 4.20984 6.47754C4.07838 6.50581 3.96102 6.53612 3.85632 6.56445C4.30071 6.71209 5.22783 7.00628 6.05261 7.28516L6.84265 7.56055L6.9696 7.61719C7.25411 7.76863 7.45134 8.05053 7.49207 8.37598C7.52067 8.60557 7.56075 8.83187 7.60535 9.05176C7.83836 8.587 8.38919 8.3786 8.87195 8.57227C11.0859 9.46095 12.9283 11.0269 14.3973 12.6025C15.8669 14.1789 17.0205 15.8304 17.8075 16.9111C18.0272 17.2128 18.0608 17.6123 17.8944 17.9463C17.6719 18.393 17.4409 18.9523 17.2274 19.5176L18.0526 19.1055L18.1376 19.0674C18.34 18.9888 18.5639 18.978 18.7743 19.0381L20.2196 19.4512C20.1807 19.405 20.1423 19.3566 20.1005 19.3096C19.5338 18.673 18.8473 18.1267 18.41 17.8076C18.1344 17.6064 17.9806 17.2781 18.0018 16.9375C18.386 10.7668 15.4801 7.24447 13.9891 6.36035C13.6094 6.13497 13.4224 5.68633 13.5292 5.25781C13.6326 4.84277 13.7866 4.26378 13.9755 3.73535C13.982 3.71712 13.9893 3.69897 13.996 3.68066C13.4298 3.734 12.9566 4.04396 12.5819 4.3125C12.2686 4.53707 11.8541 4.56211 11.5165 4.37598ZM7.99988 4.5C8.5521 4.5 8.99978 4.9478 8.99988 5.5C8.99988 6.05228 8.55216 6.5 7.99988 6.5C7.44766 6.49993 6.99988 6.05224 6.99988 5.5C6.99998 4.94785 7.44772 4.50007 7.99988 4.5Z" fill="#9E9E9E"/>
</g>
</svg>
