<svg width="24" height="24" viewBox="0 0 24 24" fill="none" xmlns="http://www.w3.org/2000/svg">
<g id="icons/Animals/duck">
<path id="Union" d="M5.16003 3.45459C6.55696 1.08084 9.23055 0.631825 11.2987 1.40771C13.4071 2.19879 15.1036 4.33718 14.4764 7.21338C14.4737 7.22574 14.4708 7.23824 14.4677 7.25049C14.09 8.70886 13.3442 9.39163 12.7255 9.86963C12.2021 10.2739 12.0673 10.3731 12.0116 10.5552C12.0177 10.5657 12.0231 10.5795 12.0321 10.5933C12.1115 10.7143 12.2653 10.8867 12.5077 11.0747C12.9906 11.4491 13.7143 11.8005 14.5546 11.9321C15.3828 12.0618 16.3138 11.9766 17.2518 11.4995C18.1916 11.0214 19.2034 10.1163 20.1327 8.50146L20.2098 8.38721C20.4044 8.13632 20.7093 7.99019 21.0321 8.00049C21.401 8.01238 21.7331 8.22703 21.8964 8.55811C22.8357 10.4628 23.409 13.7717 22.2098 16.7876C20.9662 19.9148 17.9167 22.4941 12.0858 22.9966C10.0175 23.1748 6.89401 22.6131 4.6991 21.0913C3.58173 20.3166 2.636 19.2421 2.26746 17.8228C1.89617 16.3923 2.1543 14.7771 3.1239 13.0171C3.20233 12.8606 3.31273 12.6835 3.41296 12.5308C3.54379 12.3314 3.70618 12.0974 3.87976 11.853C4.22766 11.3632 4.63982 10.8063 4.9823 10.3491C4.98486 10.3457 4.98485 10.3433 4.98523 10.3413C4.98588 10.338 4.98714 10.331 4.98523 10.3218C4.98095 10.3018 4.96913 10.2885 4.95593 10.2808C4.32014 9.90654 3.48099 9.38119 2.75574 8.81982C2.3937 8.53958 2.03856 8.2343 1.74695 7.91943C1.47157 7.62209 1.1743 7.2341 1.04089 6.78369C0.932066 6.41593 1.04334 6.01736 1.32703 5.75928C1.61075 5.5014 2.01719 5.42874 2.37292 5.57178C2.51669 5.62962 2.81027 5.66684 3.30652 5.38135C3.81083 5.09108 4.45189 4.49917 5.16003 3.45459ZM10.5966 3.27979C9.22326 2.76458 7.6647 3.11262 6.86707 4.49854C6.85511 4.51929 6.84141 4.54021 6.828 4.56006C6.01445 5.764 5.16343 6.62099 4.30359 7.11572C4.20899 7.17014 4.11261 7.21902 4.01648 7.26514C4.63711 7.74147 5.3757 8.20699 5.97058 8.55713L6.15613 8.68018C7.03832 9.33712 7.2782 10.62 6.58289 11.5483C6.24407 12.0007 5.84304 12.5418 5.50964 13.0112C5.34274 13.2462 5.19643 13.4574 5.08484 13.6274C5.02908 13.7124 4.98513 13.7824 4.953 13.8364C4.91753 13.8961 4.90962 13.9155 4.91394 13.9058C4.90236 13.9318 4.88963 13.9579 4.87585 13.9829C4.08437 15.4197 3.992 16.5066 4.203 17.3198C4.41694 18.1439 4.98589 18.8564 5.83875 19.4478C7.58471 20.6583 10.2233 21.149 11.9139 21.0034C17.1542 20.5518 19.4434 18.3318 20.3514 16.0483C20.9989 14.42 20.9909 12.6441 20.6884 11.2036C19.8991 12.1507 19.0454 12.8313 18.1581 13.2827C16.8062 13.9703 15.4434 14.0964 14.245 13.9087C13.0589 13.7229 12.0225 13.2289 11.2821 12.6548C10.9132 12.3687 10.5894 12.0403 10.3593 11.689C10.1467 11.3644 9.92413 10.88 10.0135 10.3374L10.0575 10.1206C10.3171 9.07812 11.1075 8.59199 11.5028 8.28662C11.9198 7.96448 12.2995 7.62717 12.5262 6.76709C12.8941 5.03753 11.9377 3.78308 10.5966 3.27979ZM8.91882 14.686C9.36815 14.3652 9.99232 14.4693 10.3134 14.9185C10.7838 15.5771 11.8157 16.3257 13.0712 16.6196C14.284 16.9035 15.637 16.7494 16.8593 15.731C17.2834 15.3776 17.9148 15.4349 18.2684 15.8589C18.6219 16.2831 18.5646 16.9145 18.1405 17.2681C16.3629 18.7494 14.3407 18.9704 12.6161 18.5669C10.9343 18.1733 9.46589 17.1718 8.6864 16.0806C8.3656 15.6312 8.46949 15.007 8.91882 14.686ZM8.49988 4.99951C9.05206 4.99951 9.49971 5.44737 9.49988 5.99951C9.49988 6.5518 9.05216 6.99951 8.49988 6.99951C7.94763 6.99947 7.49988 6.55177 7.49988 5.99951C7.50004 5.44739 7.94773 4.99955 8.49988 4.99951Z" fill="#9E9E9E"/>
</g>
</svg>
