<svg width="24" height="24" viewBox="0 0 24 24" fill="none" xmlns="http://www.w3.org/2000/svg">
<g id="icons/Animals/eagle">
<path id="Union" d="M11.9939 1.84424C13.8178 1.55855 15.4831 1.91878 16.9001 2.64795C19.6838 4.08054 21.5518 6.95572 21.9841 9.31982C22.3734 11.4493 22.5205 13.3576 22.6238 14.9038C22.7312 16.5119 22.7888 17.5855 22.9656 18.2388C23.091 18.7025 22.8685 19.1902 22.4363 19.3999C22.004 19.6094 21.4835 19.4818 21.197 19.0962C19.6388 16.9984 18.4665 16.3338 17.7927 16.1919C17.1946 16.066 16.9556 16.3305 16.8875 16.4614C16.2888 17.6769 15.4355 18.4287 14.4763 18.7183C13.5292 19.0041 12.5786 18.8036 11.9041 18.3032C11.8912 18.2936 11.8784 18.2831 11.866 18.2729C11.6198 18.0711 11.3445 18.0049 10.9763 18.0669C10.5726 18.135 10.0808 18.3586 9.53687 18.7368C8.44998 19.4926 7.41287 20.6805 6.83276 21.5532C6.53548 22.0005 5.93781 22.1335 5.47925 21.854C5.02103 21.5744 4.86544 20.9822 5.12671 20.5132C6.30495 18.3981 6.95714 16.6914 7.28589 15.438C7.45025 14.8112 7.53144 14.3073 7.55933 13.9292C7.58845 13.5335 7.55585 13.3326 7.54077 13.2808C7.53654 13.2663 7.53163 13.2514 7.52808 13.2368C7.30481 12.321 6.99236 11.8317 6.72046 11.5767C6.46636 11.3385 6.18643 11.2451 5.8689 11.2427C5.146 11.2374 4.25601 11.7156 3.66772 12.2437C3.44304 12.4453 3.13965 12.5347 2.84155 12.4868C2.54363 12.4388 2.28273 12.2593 2.13257 11.9976C1.53547 10.9561 1.32654 9.9389 1.47729 8.98193C1.6267 8.03476 2.11126 7.25394 2.70581 6.64307C3.78566 5.53376 5.3418 4.85936 6.53979 4.57568C8.4005 2.9834 10.2377 2.11945 11.9939 1.84424ZM15.9851 4.42627C14.906 3.87103 13.6673 3.60717 12.3035 3.8208C10.9348 4.03529 9.36755 4.74284 7.66187 6.24951C7.52916 6.36664 7.36773 6.44663 7.19409 6.48096C6.23163 6.67088 4.93434 7.22085 4.13843 8.03857C3.75448 8.43316 3.52245 8.8524 3.45288 9.29248C3.42281 9.48319 3.42184 9.69983 3.46362 9.94385C4.16192 9.54648 5.00769 9.23623 5.88354 9.24268C6.646 9.24841 7.42648 9.49805 8.08765 10.1177C8.72293 10.7134 9.17722 11.5855 9.45972 12.7192L9.4978 12.8657C9.57565 13.2175 9.58694 13.6343 9.55444 14.0757C9.51593 14.5984 9.4095 15.225 9.22046 15.9458C9.15611 16.1911 9.07906 16.448 8.9939 16.7173C9.50983 16.4234 10.0671 16.1915 10.6433 16.0942C11.4716 15.9546 12.3408 16.0965 13.0955 16.6968L13.1648 16.7417C13.3387 16.8402 13.6014 16.8936 13.8982 16.8042C14.2195 16.7072 14.6907 16.4044 15.1013 15.562L15.113 15.5386C15.6064 14.59 16.752 13.929 18.2048 14.2349C18.9737 14.3968 19.7953 14.8196 20.6619 15.5522C20.6509 15.3828 20.6402 15.2108 20.6287 15.0376C20.5265 13.5082 20.3844 11.6925 20.0164 9.6792C19.6909 7.90005 18.1941 5.56312 15.9851 4.42627ZM11.4998 6.99951C12.0519 6.99951 12.4996 7.4474 12.4998 7.99951C12.4998 8.5518 12.052 8.99951 11.4998 8.99951C10.9476 8.99936 10.4998 8.5517 10.4998 7.99951C10.5 7.44749 10.9477 6.99966 11.4998 6.99951Z" fill="#9E9E9E"/>
</g>
</svg>
