<svg width="24" height="24" viewBox="0 0 24 24" fill="none" xmlns="http://www.w3.org/2000/svg">
<g id="icons/Animals/elephant">
<path id="Union" d="M14.5566 3.0083C16.4542 2.91265 17.8288 3.65756 18.7383 4.65576C19.621 5.62477 20.0462 6.80523 20.1758 7.62842C20.1838 7.67962 20.1884 7.73186 20.1885 7.78369V14.1001C20.1985 14.0988 20.21 14.0992 20.2217 14.0972C20.3676 14.0716 20.5575 14.0006 20.75 13.8892C20.9448 13.7764 21.0849 13.6559 21.1514 13.5776L21.2529 13.4741C21.5047 13.2528 21.8546 13.1698 22.1836 13.2622C22.5598 13.368 22.8405 13.6839 22.9014 14.0698C23.0829 15.2244 23.0346 16.2454 22.5869 17.0581C22.1126 17.9187 21.3089 18.3397 20.4561 18.5317C19.4424 18.7599 18.5688 18.3564 17.8848 17.9976C17.6455 17.872 17.4363 17.7093 17.2539 17.5347V19.9995C17.2539 20.5517 16.806 20.9993 16.2539 20.9995H13.3193C12.7671 20.9995 12.3193 20.5518 12.3193 19.9995V17.8901H5.93457V19.9995C5.93457 20.5518 5.48685 20.9995 4.93457 20.9995H2C1.44772 20.9995 1 20.5518 1 19.9995V10.8931C1.00009 9.53831 1.31024 8.41766 1.8623 7.51904C2.41421 6.62104 3.17458 5.99904 3.98828 5.58838C5.28976 4.93164 6.7576 4.7971 7.89844 4.91162C7.94734 4.84399 7.99846 4.77771 8.0498 4.71338C8.83524 3.72947 10.0078 3.00494 11.1426 3.00928V3.0083H14.5566ZM14.6328 5.00635C14.6144 5.00737 14.5956 5.00829 14.5771 5.0083H11.1367C10.8062 5.00637 10.1566 5.27954 9.6123 5.96143C9.10249 6.60044 8.7905 7.47959 8.98047 8.48682C9.04125 8.80882 9.18377 9.25499 9.47656 9.62158C9.74537 9.95789 10.174 10.2736 10.9395 10.3413C11.1835 10.3629 11.53 10.3248 11.8848 10.1206C12.2297 9.92187 12.6509 9.52695 12.9961 8.72217C13.2139 8.21494 13.8022 7.98022 14.3096 8.19775C14.8167 8.41552 15.0512 9.00295 14.834 9.51025C14.3411 10.6593 13.6499 11.4122 12.8828 11.854C12.1251 12.2902 11.3581 12.386 10.7637 12.3335C9.42789 12.2155 8.50764 11.6125 7.91406 10.8696C7.34494 10.1572 7.11102 9.36317 7.01562 8.85791C6.88312 8.15557 6.90195 7.4886 7.0293 6.87549C6.33889 6.89088 5.56556 7.03255 4.88965 7.37354C4.3576 7.64204 3.89731 8.02757 3.56641 8.56592C3.236 9.10371 3.00009 9.85006 3 10.8931V18.9995H3.93457V16.8901C3.93482 16.3381 4.38244 15.8901 4.93457 15.8901H13.3193C13.8713 15.8903 14.3191 16.3382 14.3193 16.8901V18.9995H15.2539V14.4468C15.2541 14.1533 15.3826 13.8739 15.6064 13.6841C15.7931 13.526 16.0588 13.4071 16.3711 13.4224C16.6531 13.4362 16.8616 13.5547 16.9795 13.6392C17.1934 13.7926 17.3349 14.0007 17.4043 14.1069C17.5588 14.3436 17.7403 14.7028 17.8838 14.9702C18.0481 15.2764 18.2141 15.5652 18.3916 15.8052C18.5755 16.0537 18.7208 16.1778 18.8145 16.2271C19.4829 16.5777 19.7726 16.6355 20.0166 16.5806C20.5246 16.4662 20.7273 16.2876 20.835 16.0923C20.8509 16.0633 20.866 16.0301 20.8809 15.9937C20.7759 16.0236 20.6705 16.0485 20.5654 16.0669C20.1461 16.1402 19.597 16.1384 19.0977 15.8374C18.5601 15.5132 18.2795 14.9653 18.1973 14.3589C18.1913 14.3147 18.1885 14.2697 18.1885 14.2251V7.87744C18.0955 7.36716 17.8104 6.60807 17.2598 6.00342C16.7182 5.40903 15.9023 4.93568 14.6328 5.00635ZM16.5 8.49951C17.0521 8.49951 17.4997 8.94744 17.5 9.49951C17.5 10.0518 17.0523 10.4995 16.5 10.4995C15.9477 10.4995 15.5 10.0518 15.5 9.49951C15.5003 8.94744 15.9479 8.49951 16.5 8.49951Z" fill="#9E9E9E"/>
</g>
</svg>
