<svg width="24" height="24" viewBox="0 0 24 24" fill="none" xmlns="http://www.w3.org/2000/svg">
<g id="icons/Animals/fish-one">
<path id="Union" d="M10.3896 3.50586C14.1963 3.08406 16.3471 4.70141 17.1885 6.1416C21.1461 7.22708 22.7761 10.397 22.9893 11.8555C23.0085 11.9873 23.0012 12.122 22.9678 12.251C22.5762 13.7615 21.3521 14.994 20.1758 15.8408C19.1957 16.5463 18.0954 17.0901 17.2051 17.3535C16.4357 18.8609 15.1931 19.7211 13.9482 20.1621C12.6058 20.6376 11.2319 20.6431 10.3271 20.4844C9.99461 20.426 9.71408 20.2039 9.58105 19.8936C9.44813 19.5831 9.48074 19.2263 9.66797 18.9453L10.8799 17.127C10.0256 16.8105 9.20085 16.3407 8.49121 15.8701C7.73774 15.3704 7.05524 14.8292 6.52148 14.3691C5.1241 15.5989 3.3607 16.5121 2.375 16.9111C1.9931 17.0656 1.55523 16.9705 1.27246 16.6709C0.989763 16.3711 0.920086 15.9279 1.09668 15.5557C2.75693 12.0604 1.74815 8.9381 1.16406 8.0498C0.962078 7.74268 0.945727 7.34898 1.12012 7.02539C1.29464 6.70187 1.63239 6.5 2 6.5C3.00936 6.5 4.10926 7.04135 4.95898 7.56641C5.52898 7.91863 6.0708 8.31842 6.52148 8.68848C6.71757 8.55007 6.92463 8.41493 7.13477 8.28809C7.6631 7.9692 8.27055 7.65318 8.88184 7.36328C9.53827 7.05198 10.219 6.76195 10.8359 6.52246L9.71875 5.125C9.49108 4.84041 9.43677 4.45391 9.57617 4.11719C9.7157 3.78047 10.0274 3.54609 10.3896 3.50586ZM13.2812 6.375C13.4895 6.63544 13.5535 6.98279 13.4531 7.30078C13.3527 7.61875 13.1004 7.86638 12.7803 7.95996C12.0858 8.16305 10.8896 8.6239 9.73828 9.16992C9.16629 9.44119 8.62206 9.72593 8.16797 10C7.69817 10.2836 7.38361 10.5211 7.22461 10.6885C7.04152 10.8811 6.78913 10.9937 6.52344 11C6.25788 11.0062 6.00055 10.9063 5.80859 10.7227C5.39225 10.3242 4.67697 9.74266 3.9082 9.26758C3.84526 9.22868 3.78205 9.19228 3.7207 9.15625C4.03357 10.4574 4.14868 12.121 3.75 13.9424C4.47533 13.4828 5.20759 12.9294 5.7627 12.3242L5.83496 12.2539C6.00948 12.0983 6.23393 12.0082 6.46973 12.001C6.73908 11.9928 7.00039 12.0932 7.19434 12.2803C7.66711 12.7365 8.563 13.5176 9.59668 14.2031C10.6586 14.9074 11.7357 15.4226 12.5957 15.5049C12.9456 15.5385 13.2524 15.7529 13.4033 16.0703C13.5542 16.3879 13.5271 16.7621 13.332 17.0547L12.3652 18.5029C12.6652 18.4551 12.9754 18.3843 13.2803 18.2764C14.2255 17.9415 15.0949 17.3 15.5742 16.123L15.6299 16.0078C15.7759 15.7495 16.0305 15.5667 16.3271 15.5146C16.8924 15.4155 17.9767 14.9601 19.0078 14.2178C19.9657 13.5282 20.6891 12.7245 20.9678 11.9512C20.7108 10.9904 19.439 8.67596 16.2832 7.97656C15.9595 7.90469 15.6925 7.67646 15.5703 7.36816C15.384 6.8975 14.5689 5.78943 12.585 5.50488L13.2812 6.375ZM18 11C18.5523 11 19 11.4477 19 12C18.9999 12.5522 18.5522 13 18 13C17.4478 13 17.0001 12.5522 17 12C17 11.4477 17.4477 11 18 11Z" fill="#9E9E9E"/>
</g>
</svg>
