<svg width="24" height="24" viewBox="0 0 24 24" fill="none" xmlns="http://www.w3.org/2000/svg">
<g id="icons/Animals/frog">
<path id="Union" d="M13.5718 4.9668C14.8342 2.6636 17.9072 2.50654 20.1675 3.88086C22.4251 5.25381 23.7712 8.06688 22.5396 10.3145C22.3966 10.5753 22.2244 10.8109 22.0308 11.0215C22.3318 11.7328 22.4995 12.4944 22.4995 13.29C22.4995 15.5665 21.1575 17.5185 19.2104 18.8584C17.2591 20.2011 14.6181 21 11.7495 21C8.88094 20.9999 6.23984 20.2012 4.28857 18.8584C2.3417 17.5185 0.999513 15.5664 0.999512 13.29C0.999555 12.3436 1.23724 11.4469 1.65381 10.626C1.58509 10.5261 1.51879 10.4227 1.45947 10.3145C0.228057 8.067 1.57419 5.25384 3.83154 3.88086C6.09183 2.50639 9.16472 2.66366 10.4272 4.9668C10.5424 5.17687 10.6338 5.39445 10.7046 5.61621C11.0484 5.59267 11.3973 5.58009 11.7495 5.58008C12.2689 5.58008 12.7803 5.60952 13.2808 5.66016C13.3532 5.42321 13.4491 5.19077 13.5718 4.9668ZM19.1284 5.58984C17.5127 4.6074 16.0205 4.9676 15.4312 5.7627L15.3257 5.92773C15.1875 6.1799 15.1145 6.46899 15.1118 6.78711C15.1093 7.08033 14.9784 7.35779 14.7534 7.5459C14.5285 7.73387 14.2318 7.81414 13.9429 7.76465C13.2429 7.6448 12.5078 7.58008 11.7495 7.58008C11.1563 7.5801 10.5771 7.61986 10.0181 7.69434C9.73812 7.73153 9.45426 7.64836 9.23877 7.46582C9.02353 7.28321 8.89546 7.0175 8.88623 6.73535C8.87889 6.5123 8.83609 6.30415 8.76025 6.11328L8.67334 5.92773C8.17674 5.02204 6.59422 4.54164 4.87061 5.58984C3.14456 6.6397 2.68654 8.39196 3.21338 9.35352C3.30178 9.51477 3.41318 9.65432 3.54346 9.77246C3.90902 10.1041 3.97782 10.6527 3.70557 11.0645C3.24143 11.7661 2.99957 12.5175 2.99951 13.29C2.99951 14.7191 3.84083 16.1225 5.42236 17.2109C6.99961 18.2964 9.23377 18.9999 11.7495 19C14.2652 19 16.4993 18.2963 18.0767 17.2109C19.6584 16.1224 20.4995 14.7192 20.4995 13.29C20.4995 12.5947 20.3038 11.9186 19.9282 11.2803C19.6575 10.8199 19.7965 10.2276 20.2437 9.93555C20.471 9.78713 20.6543 9.59314 20.7856 9.35352C21.3127 8.39194 20.8548 6.63974 19.1284 5.58984ZM10.0776 13.2881C10.6299 13.2881 11.0776 13.7358 11.0776 14.2881C11.0776 14.8404 10.6299 15.2881 10.0776 15.2881C9.52554 15.2879 9.07764 14.8402 9.07764 14.2881C9.07764 13.7359 9.52553 13.2883 10.0776 13.2881ZM14.0776 13.2881C14.6299 13.2881 15.0776 13.7358 15.0776 14.2881C15.0776 14.8404 14.6299 15.2881 14.0776 15.2881C13.5255 15.2879 13.0776 14.8402 13.0776 14.2881C13.0776 13.7359 13.5255 13.2883 14.0776 13.2881ZM5.99951 7.5C6.5518 7.5 6.99951 7.94772 6.99951 8.5C6.99951 9.05228 6.5518 9.5 5.99951 9.5C5.44741 9.49978 4.99951 9.05215 4.99951 8.5C4.99951 7.94785 5.44741 7.50022 5.99951 7.5ZM17.9995 7.5C18.5518 7.5 18.9995 7.94772 18.9995 8.5C18.9995 9.05228 18.5518 9.5 17.9995 9.5C17.4474 9.49979 16.9995 9.05215 16.9995 8.5C16.9995 7.94785 17.4474 7.50021 17.9995 7.5Z" fill="#9E9E9E"/>
</g>
</svg>
