<svg width="24" height="24" viewBox="0 0 24 24" fill="none" xmlns="http://www.w3.org/2000/svg">
<g id="icons/Animals/hippo">
<path id="Union" d="M15 1.5C16.3807 1.5 17.5 2.6193 17.5 4V6.03613C18.6954 6.72781 19.5 8.01962 19.5 9.5V12.0361C20.6954 12.7278 21.5 14.0196 21.5 15.5V18.5C21.5 20.7091 19.7091 22.5 17.5 22.5H6.5C4.29086 22.5 2.5 20.7091 2.5 18.5V15.5C2.5 14.0196 3.30464 12.7278 4.5 12.0361V9.5C4.5 8.01962 5.30464 6.72781 6.5 6.03613V4C6.5 2.6193 7.61925 1.5 9 1.5C10.3807 1.5 11.5 2.6193 11.5 4V5.5H12.5V4C12.5 2.6193 13.6193 1.5 15 1.5ZM6.5 13.5C5.39543 13.5 4.5 14.3954 4.5 15.5V18.5C4.5 19.6046 5.39543 20.5 6.5 20.5H17.5C18.6046 20.5 19.5 19.6046 19.5 18.5V15.5C19.5 14.3954 18.6046 13.5 17.5 13.5H6.5ZM8.5 14.5C9.88071 14.5 11 15.6193 11 17C11 18.3807 9.88071 19.5 8.5 19.5C7.11929 19.5 6 18.3807 6 17C6 15.6193 7.11929 14.5 8.5 14.5ZM15.5 14.5C16.8807 14.5 18 15.6193 18 17C18 18.3807 16.8807 19.5 15.5 19.5C14.1193 19.5 13 18.3807 13 17C13 15.6193 14.1193 14.5 15.5 14.5ZM8.5 16.5C8.22386 16.5 8 16.7239 8 17C8 17.2761 8.22386 17.5 8.5 17.5C8.77614 17.5 9 17.2761 9 17C9 16.7239 8.77614 16.5 8.5 16.5ZM15.5 16.5C15.2239 16.5 15 16.7239 15 17C15 17.2761 15.2239 17.5 15.5 17.5C15.7761 17.5 16 17.2761 16 17C16 16.7239 15.7761 16.5 15.5 16.5ZM8.5 7.5C7.39543 7.5 6.5 8.39543 6.5 9.5V11.5H17.5V9.5C17.5 8.39543 16.6046 7.5 15.5 7.5H8.5ZM10 8.5C10.5523 8.5 11 8.94772 11 9.5C11 10.0523 10.5523 10.5 10 10.5C9.44772 10.5 9 10.0523 9 9.5C9 8.94772 9.44772 8.5 10 8.5ZM14 8.5C14.5523 8.5 15 8.94772 15 9.5C15 10.0523 14.5523 10.5 14 10.5C13.4477 10.5 13 10.0523 13 9.5C13 8.94772 13.4477 8.5 14 8.5ZM9 3.5C8.72385 3.5 8.5 3.72385 8.5 4V5.5H9.5V4C9.5 3.72385 9.27615 3.5 9 3.5ZM15 3.5C14.7238 3.5 14.5 3.72385 14.5 4V5.5H15.5V4C15.5 3.72385 15.2762 3.5 15 3.5Z" fill="#9E9E9E"/>
</g>
</svg>
