<svg width="24" height="24" viewBox="0 0 24 24" fill="none" xmlns="http://www.w3.org/2000/svg">
<g id="icons/Animals/horse-zodiac">
<path id="Union" d="M6.55273 4.60645C8.42369 3.67087 10.0845 4.14174 10.9736 4.62012C11.4346 4.86818 11.8858 5.25215 12.1875 5.53027C12.3461 5.67651 12.481 5.8094 12.5762 5.90625C12.6237 5.95467 12.6624 5.99491 12.6895 6.02344C12.7028 6.03753 12.714 6.04938 12.7217 6.05762C12.7254 6.06164 12.7282 6.06589 12.7305 6.06836C12.7315 6.06941 12.7327 6.07054 12.7334 6.07129L12.7354 6.07227V6.07324L12.7812 6.12598L13.7812 7.37598C14.1256 7.80715 14.0559 8.43637 13.625 8.78125C13.1939 9.12597 12.5638 9.05591 12.2188 8.625L11.2422 7.40527C11.2409 7.40391 11.2396 7.4019 11.2383 7.40039C11.2185 7.37957 11.188 7.3479 11.1494 7.30859C11.0716 7.22944 10.9614 7.11929 10.832 7C10.5568 6.74629 10.2569 6.50493 10.0264 6.38086C9.53688 6.11748 8.5944 5.83572 7.47949 6.37891C7.09646 6.61592 6.80365 6.76476 6.52832 7.09863C6.27669 7.40397 6 7.93621 6 8.97168V22C5.99974 22.5521 5.55212 23 5 23C4.44788 23 4.00026 22.5521 4 22V8.97168C4 7.53677 4.39945 6.53687 4.98535 5.82617C5.53539 5.15918 6.22858 4.80402 6.46875 4.65332L6.55273 4.60645ZM11 17C12.933 17 14.5 18.567 14.5 20.5V22C14.5 22.5523 14.0523 23 13.5 23C12.9477 23 12.5 22.5523 12.5 22V20.5C12.5 19.6716 11.8284 19 11 19C10.1716 19 9.5 19.6716 9.5 20.5V22C9.5 22.5523 9.05229 23 8.5 23C7.94772 23 7.5 22.5523 7.5 22V20.5C7.5 18.567 9.06702 17 11 17ZM8.69824 10.0488C9.22355 9.87849 9.7876 10.1661 9.95801 10.6914C10.0533 10.9852 10.227 11.3486 10.5195 11.5986C10.7687 11.8116 11.199 12.0273 12.0273 11.8838C12.0442 11.8809 12.0612 11.878 12.0781 11.876C12.8691 11.7806 14.1058 11.8456 15.3564 12.2676C16.6191 12.6937 17.9731 13.5124 18.8574 14.9854L18.9199 15.0762C19.0716 15.2678 19.2662 15.3182 19.4951 15.2441C19.8364 15.1337 20.4852 14.6587 21.0723 13.1973C21.2782 12.6849 21.8606 12.4367 22.373 12.6426C22.8853 12.8486 23.1336 13.431 22.9277 13.9434C22.2384 15.6591 21.2623 16.7738 20.1104 17.1465C19.5393 17.3312 18.9871 17.3124 18.5 17.1416V22C18.5 22.5523 18.0523 23 17.5 23C16.9477 23 16.5 22.5523 16.5 22V15.21C15.9865 14.7164 15.3633 14.3803 14.7168 14.1621C13.7542 13.8373 12.8182 13.8019 12.3174 13.8623C10.9733 14.0822 9.94663 13.7404 9.21973 13.1191C8.52699 12.527 8.20361 11.7648 8.05566 11.3086C7.88532 10.7833 8.17298 10.2192 8.69824 10.0488ZM9 1C9.55229 1 10 1.44772 10 2C10 2.55228 9.55229 3 9 3C7.97271 3 6.44322 3.42543 5.18555 4.42578C3.96435 5.39732 3 6.90692 3 9.14941V12.5C3 13.0523 2.55228 13.5 2 13.5C1.44772 13.5 1 13.0523 1 12.5V9.14941C1 6.2432 2.28585 4.17704 3.93945 2.86133C5.55669 1.57472 7.52742 1 9 1Z" fill="#9E9E9E"/>
</g>
</svg>
