<svg width="24" height="24" viewBox="0 0 24 24" fill="none" xmlns="http://www.w3.org/2000/svg">
<g id="icons/Animals/koala-bear">
<path id="Union" d="M17.774 3.30371C19.0387 2.89608 20.8357 2.72365 22.0396 3.95312L22.0386 3.9541C22.3704 4.26461 22.5848 4.69744 22.7213 5.11914C22.8762 5.5984 22.9719 6.17818 22.9947 6.83496C23.0404 8.15214 22.7976 9.85244 22.0757 11.8408C21.9693 12.1338 21.7326 12.3609 21.4351 12.4541C21.1377 12.5472 20.8137 12.4963 20.5591 12.3164L20.4654 12.25C20.487 12.4972 20.4996 12.7472 20.4996 13C20.4996 17.6944 16.694 21.5 11.9996 21.5C7.30536 21.4998 3.49957 17.6943 3.49957 13C3.49958 12.7469 3.51208 12.4965 3.53375 12.249L3.44 12.3164C3.18543 12.4962 2.86144 12.5473 2.56403 12.4541C2.26674 12.3608 2.02974 12.1337 1.9234 11.8408C1.20161 9.85254 0.958758 8.15208 1.00446 6.83496C1.02728 6.17818 1.12291 5.5984 1.27789 5.11914C1.41432 4.69744 1.62877 4.26466 1.96051 3.9541C3.16424 2.72445 4.96039 2.89615 6.22516 3.30371C6.9009 3.52154 7.54416 3.83891 8.07574 4.19434C8.42775 4.42974 8.77333 4.71206 9.04742 5.02637C9.96694 4.68575 10.9616 4.50005 11.9996 4.5C13.0374 4.5 14.0323 4.68589 14.9517 5.02637C15.2258 4.71196 15.5713 4.42981 15.9234 4.19434C16.455 3.83888 17.0982 3.52159 17.774 3.30371ZM11.9996 6.5C8.40996 6.50025 5.49963 9.41035 5.49957 13C5.49957 16.5897 8.40993 19.4998 11.9996 19.5C15.5894 19.5 18.4996 16.5899 18.4996 13C18.4995 9.41019 15.5894 6.5 11.9996 6.5ZM11.9996 11C12.3698 11 12.71 11.2051 12.8834 11.5322V11.5332L12.8853 11.5352C12.8861 11.5367 12.8869 11.5394 12.8882 11.542C12.8914 11.548 12.8961 11.5573 12.9019 11.5684C12.9136 11.5907 12.9315 11.623 12.9527 11.6641C12.9953 11.7464 13.0553 11.8648 13.1275 12.0088C13.2719 12.2966 13.4663 12.6926 13.6607 13.1211C13.8539 13.547 14.0543 14.0204 14.2086 14.458C14.3491 14.8568 14.4995 15.3559 14.4996 15.7812C14.4996 17.1506 13.5038 18.5 11.9996 18.5C10.4956 18.4997 9.49957 17.1504 9.49957 15.7812C9.4996 15.356 9.65005 14.8568 9.79059 14.458C9.94483 14.0204 10.1452 13.547 10.3384 13.1211C10.5329 12.6925 10.7272 12.2967 10.8716 12.0088C10.9439 11.8647 11.0038 11.7465 11.0464 11.6641C11.0677 11.6229 11.0855 11.5908 11.0972 11.5684C11.1031 11.5572 11.1077 11.5481 11.1109 11.542C11.1123 11.5393 11.113 11.5368 11.1138 11.5352L11.1158 11.5332V11.5322C11.2891 11.2051 11.6294 11.0002 11.9996 11ZM11.9996 14.3164C11.8789 14.5961 11.7656 14.8716 11.6773 15.1221C11.6139 15.3021 11.5663 15.4574 11.5357 15.583C11.5206 15.6452 11.511 15.6944 11.5054 15.7314C11.4996 15.7698 11.4996 15.7848 11.4996 15.7812C11.4996 16.0211 11.5845 16.2155 11.692 16.3389C11.7977 16.46 11.9094 16.4999 11.9996 16.5C12.0898 16.5 12.2013 16.4601 12.3072 16.3389C12.4147 16.2155 12.4996 16.0213 12.4996 15.7812C12.4994 15.778 12.4983 15.7621 12.4937 15.7314C12.4881 15.6945 12.4786 15.6451 12.4634 15.583C12.4328 15.4574 12.3853 15.302 12.3218 15.1221C12.2335 14.8716 12.1202 14.5961 11.9996 14.3164ZM8.5191 10.7471C9.07139 10.7471 9.5191 11.1948 9.5191 11.7471C9.51889 12.2992 9.07126 12.7471 8.5191 12.7471C7.96716 12.7468 7.51931 12.299 7.5191 11.7471C7.5191 11.1949 7.96703 10.7473 8.5191 10.7471ZM15.5191 10.7471C16.0714 10.7471 16.5191 11.1948 16.5191 11.7471C16.5189 12.2992 16.0713 12.7471 15.5191 12.7471C14.9672 12.7468 14.5193 12.299 14.5191 11.7471C14.5191 11.1949 14.967 10.7473 15.5191 10.7471ZM5.6109 5.20703C4.52912 4.85856 3.75774 4.97618 3.38922 5.35254C3.36551 5.37675 3.34006 5.4002 3.31403 5.42188C3.35616 5.3868 3.27595 5.44156 3.18121 5.73438C3.09494 6.00108 3.02132 6.39101 3.00348 6.9043C2.97678 7.67379 3.07566 8.6817 3.40192 9.89355L4.40485 9.18457C5.04769 7.90744 6.00197 6.81482 7.16949 6.00684C7.10722 5.9595 7.03931 5.90816 6.96344 5.85742C6.58412 5.60383 6.10821 5.36732 5.6109 5.20703ZM20.6099 5.35254C20.2413 4.97635 19.47 4.85847 18.3882 5.20703C17.8909 5.36737 17.415 5.60381 17.0357 5.85742C16.9597 5.90826 16.892 5.95942 16.8297 6.00684C17.9983 6.81545 18.9533 7.90896 19.5963 9.1875L20.5953 9.89355C20.9217 8.68138 21.0224 7.67393 20.9957 6.9043C20.9778 6.391 20.9042 6.00107 20.8179 5.73438C20.7462 5.51267 20.6827 5.42711 20.6744 5.41406L20.6851 5.42188C20.6591 5.40022 20.6336 5.37671 20.6099 5.35254Z" fill="#9E9E9E"/>
</g>
</svg>
