<svg width="24" height="24" viewBox="0 0 24 24" fill="none" xmlns="http://www.w3.org/2000/svg">
<g id="icons/Animals/monkey-zodiac">
<path id="Union" d="M18.9395 11.0498C19.6245 10.8261 20.3864 10.8359 21.1143 11.1895C21.8275 11.536 22.4191 12.168 22.8809 13.0264C23.1424 13.5127 22.9599 14.1192 22.4736 14.3809C21.9873 14.6424 21.3808 14.46 21.1191 13.9736C20.7957 13.3725 20.4744 13.1032 20.2402 12.9893C20.0347 12.8894 19.8278 12.8751 19.6064 12.9375C19.2602 13.1017 19.1294 13.2773 19.0752 13.3955C19.0148 13.5276 18.9931 13.7123 19.0586 13.9609C19.2011 14.5016 19.6902 15.0758 20.2119 15.3184C22.8513 16.5449 23.4368 18.8926 22.6406 20.4541C20.8074 24.0493 16.2071 23.6519 15.0742 20.8779C15.07 20.8676 15.0654 20.8572 15.0615 20.8467C14.72 19.9216 14.3412 19.1122 13.9375 18.4023C13.0192 18.2312 11.7728 18.2428 10.7178 18.6865C9.6224 19.1472 8.65917 20.0927 8.49707 22.0811C8.45223 22.6315 7.96934 23.0418 7.41895 22.9971C6.86852 22.9522 6.45814 22.4694 6.50293 21.9189C6.72717 19.167 8.17751 17.585 9.94238 16.8428C10.7611 16.4985 11.629 16.3412 12.4473 16.3066C10.9856 14.6648 9.41056 13.8971 8.15723 13.4395C7.63857 13.25 7.37133 12.6759 7.56055 12.1572C7.74999 11.6386 8.3241 11.3713 8.84277 11.5605C11.3426 12.4733 14.8215 14.4423 16.9287 20.1289C17.3376 21.1056 19.702 21.8156 20.8594 19.5459C21.0609 19.1505 21.1477 17.9583 19.3691 17.1318C18.3311 16.6493 17.4255 15.6108 17.125 14.4707C16.9691 13.8788 16.964 13.205 17.2568 12.5645C17.5536 11.9156 18.1031 11.4151 18.8438 11.0859L18.9395 11.0498ZM4.51172 1.46484C6.22785 0.83168 8.10179 1.20751 9.2666 1.84668C9.49549 1.97234 9.66623 2.18279 9.74219 2.43262C9.97723 3.20567 10.1502 3.73762 10.3154 4.11328C10.3957 4.29577 10.4616 4.41219 10.5137 4.48535C10.5479 4.53337 10.5713 4.5552 10.5811 4.56348C11.8975 5.28503 12.5067 6.3063 12.5 7.4082C12.4936 8.41568 11.9708 9.26626 11.5342 9.74316C11.1614 10.1502 10.5284 10.1781 10.1211 9.80566C9.71385 9.43282 9.68596 8.79994 10.0586 8.39258C10.292 8.13765 10.4976 7.74292 10.5 7.39648C10.5014 7.16402 10.4196 6.73879 9.57422 6.29102C9.54861 6.27745 9.52336 6.26281 9.49902 6.24707C8.99749 5.92244 8.70086 5.41105 8.48438 4.91895C8.3057 4.51267 8.13765 4.01183 7.95898 3.4375C7.19344 3.12874 6.12514 3.00109 5.2041 3.34082C4.2517 3.69225 3.22933 4.63107 3 7.05664V22C2.99982 22.5521 2.55217 23 2 23C1.44783 23 1.00018 22.5521 1 22V7.00098L1.00391 6.91016C1.28106 3.86146 2.68257 2.13976 4.51172 1.46484Z" fill="#9E9E9E"/>
</g>
</svg>
