<svg width="24" height="24" viewBox="0 0 24 24" fill="none" xmlns="http://www.w3.org/2000/svg">
<g id="icons/Animals/monkey">
<path id="Union" d="M12 1.5C14.8622 1.5 17.388 3.13475 18.457 5.52441C20.3162 5.7163 22 7.06195 22 9C22 10.5544 20.9163 11.7267 19.5283 12.2295C20.1437 13.1895 20.5 14.2946 20.5 15.5C20.5 19.5627 16.4747 22.5 12 22.5C7.52534 22.5 3.5 19.5627 3.5 15.5C3.5 14.2947 3.85553 13.1893 4.4707 12.2295C3.08312 11.7265 2 10.5541 2 9C2 7.06229 3.68325 5.71667 5.54199 5.52441C6.61095 3.13455 9.1377 1.5 12 1.5ZM12 10.5C8.19038 10.5 5.5 12.9353 5.5 15.5C5.5 18.0647 8.19038 20.5 12 20.5C15.8096 20.5 18.5 18.0647 18.5 15.5C18.5 12.9353 15.8096 10.5 12 10.5ZM7.79297 16.1152C8.18349 15.7247 8.81651 15.7247 9.20703 16.1152C10.7376 17.6456 13.1303 17.6516 14.5518 16.2305C14.9423 15.84 15.5753 15.84 15.9658 16.2305C16.3561 16.621 16.3562 17.2541 15.9658 17.6445C13.7182 19.8918 10.0587 19.7948 7.79297 17.5293C7.40253 17.1389 7.40269 16.5058 7.79297 16.1152ZM5.01172 7.69531C4.35504 7.98148 4 8.53203 4 9C4 9.56818 4.52317 10.2573 5.47461 10.4473C5.1697 9.71012 5 8.90819 5 8.06934C5 7.94367 5.00441 7.81899 5.01172 7.69531ZM18.9873 7.69531C18.9946 7.81901 19 7.94365 19 8.06934C19 8.90833 18.8294 9.71002 18.5244 10.4473C19.4764 10.2575 20 9.56836 20 9C20 8.53183 19.6445 7.98138 18.9873 7.69531ZM12 3.5C9.1672 3.5 7.00007 5.61456 7 8.06934C7 8.62897 7.11142 9.16412 7.31348 9.66016C8.68294 8.9193 10.3094 8.5 12 8.5C13.6903 8.5 15.3162 8.91955 16.6855 9.66016C16.8877 9.16402 17 8.6291 17 8.06934C16.9999 5.61456 14.8328 3.5 12 3.5ZM10 6C10.5523 6 11 6.44772 11 7C11 7.55228 10.5523 8 10 8C9.44772 8 9 7.55228 9 7C9 6.44772 9.44772 6 10 6ZM14 6C14.5523 6 15 6.44772 15 7C15 7.55228 14.5523 8 14 8C13.4477 8 13 7.55228 13 7C13 6.44772 13.4477 6 14 6Z" fill="#9E9E9E"/>
</g>
</svg>
