<svg width="24" height="24" viewBox="0 0 24 24" fill="none" xmlns="http://www.w3.org/2000/svg">
<g id="icons/Animals/mouse-zodiac">
<path id="Union" d="M8.07715 8.73779C9.84855 7.54841 11.9363 7.11378 13.8594 7.37646C16.2751 7.70656 18.501 9.15413 19.4365 11.6489C19.856 12.7677 19.9996 14.04 20.1426 14.8979C20.2201 15.3631 20.2934 15.697 20.3828 15.9302C20.4249 16.0397 20.4584 16.0941 20.4746 16.1167C20.6121 16.1739 20.754 16.1471 20.8574 16.0444C20.9686 15.9339 21.2321 15.5227 21.0195 14.4653C20.911 13.9241 21.2616 13.3975 21.8027 13.2886C22.3441 13.1797 22.8715 13.5304 22.9805 14.0718C23.2676 15.5004 23.031 16.7049 22.2676 17.4634C21.5028 18.2229 20.407 18.3212 19.5527 17.894C18.9759 17.6055 18.6814 17.0789 18.5156 16.647C18.3474 16.2085 18.2486 15.6988 18.1699 15.2271C18.1296 14.9853 18.0917 14.7459 18.0547 14.5093C16.7128 14.5661 16.0191 14.8931 15.6445 15.2681C15.234 15.6793 15 16.3549 15 17.5005C14.9998 18.0526 14.5522 18.5005 14 18.5005C13.4478 18.5005 13.0002 18.0526 13 17.5005C13 16.1466 13.2664 14.8191 14.2305 13.854C15.0351 13.0488 16.1804 12.6415 17.625 12.5317C17.6047 12.4714 17.5858 12.4105 17.5635 12.3511C16.929 10.659 15.4052 9.60618 13.5889 9.35791C11.9041 9.12777 10.0296 9.60795 8.55469 10.8862L8.97656 12.7837C9.09606 13.3227 8.75577 13.8573 8.2168 13.9771C7.67785 14.0967 7.14335 13.7562 7.02344 13.2173L6.25488 9.76123C6.12407 9.84482 5.98392 9.95128 5.83594 10.0854C5.35937 10.5176 4.87718 11.1652 4.44434 11.9731C3.73172 13.3035 3.21664 14.9488 3.05469 16.5005H9.5C10.0523 16.5005 10.5 16.9482 10.5 17.5005C10.4998 18.0526 10.0522 18.5005 9.5 18.5005H2C1.44781 18.5005 1.00016 18.0526 1 17.5005C1 15.318 1.67428 12.9065 2.68066 11.0278C3.18519 10.0861 3.79707 9.23331 4.49219 8.60303C5.18006 7.97938 6.03469 7.50049 7 7.50049C7.4687 7.50049 7.87489 7.82615 7.97656 8.28369L8.07715 8.73779Z" fill="#9E9E9E"/>
</g>
</svg>
