<svg width="24" height="24" viewBox="0 0 24 24" fill="none" xmlns="http://www.w3.org/2000/svg">
<g id="icons/Animals/owl">
<path id="Union" d="M2.69226 2.50684C3.12993 2.46408 3.52179 2.62223 3.80164 2.86719L3.91394 2.97656L4.00183 3.08594C5.01991 4.55816 6.29307 5.0961 6.95105 5.23047C8.45366 4.54634 10.1765 4.16115 11.9999 4.16113C13.8226 4.16113 15.5445 4.54678 17.0468 5.23047C17.7041 5.0968 18.9788 4.5597 19.9979 3.08594L20.0858 2.97656C20.3676 2.67119 20.8076 2.45806 21.3075 2.50684C21.8331 2.55835 22.2459 2.87863 22.5096 3.29199C22.9882 4.04244 23.1159 5.27866 22.8954 7.06445C22.8938 7.07749 22.8917 7.09056 22.8895 7.10352C22.7547 7.92271 22.4061 9.60305 22.1366 10.6514C22.3534 11.3472 22.4696 12.0781 22.4696 12.8311C22.4694 17.8055 17.5748 21.5 11.9999 21.5C6.42501 21.4999 1.53032 17.8055 1.53015 12.8311C1.53017 12.0781 1.64637 11.3472 1.86316 10.6514C1.59369 9.60305 1.24508 7.92272 1.11023 7.10352C1.1081 7.09057 1.10598 7.07747 1.10437 7.06445C0.883878 5.27868 1.01159 4.04243 1.49011 3.29199C1.75385 2.87861 2.16663 2.5584 2.69226 2.50684ZM20.9784 5.05859C19.5799 6.60314 17.9385 7.18857 16.9637 7.25977C16.7872 7.27262 16.61 7.23795 16.451 7.16016C15.1636 6.53013 13.6405 6.16113 11.9999 6.16113C10.3593 6.16116 8.83623 6.53013 7.54871 7.16016C7.38972 7.23794 7.21253 7.27265 7.03601 7.25977C6.06113 7.18851 4.4189 6.60341 3.02039 5.05859C2.98802 5.43683 2.98817 5.99297 3.08484 6.78906C3.22643 7.64535 3.61743 9.51276 3.86902 10.4189C3.92432 10.6181 3.91635 10.8298 3.84656 11.0244C3.64007 11.5998 3.53017 12.2055 3.53015 12.8311C3.53033 16.3275 7.1149 19.4999 11.9999 19.5C16.8849 19.5 20.4694 16.3276 20.4696 12.8311C20.4696 12.2055 20.3597 11.5998 20.1532 11.0244C20.0834 10.8299 20.0754 10.6181 20.1307 10.4189C20.3823 9.51286 20.7723 7.64548 20.9139 6.78906C21.0106 5.99283 21.0108 5.43686 20.9784 5.05859ZM11.9999 14C13.0249 14 13.4998 14.9473 13.4999 15.625C13.4999 15.8522 13.435 16.1306 13.3934 16.3008C13.3413 16.5142 13.2742 16.7546 13.2098 16.9736C13.145 17.1944 13.0802 17.403 13.0321 17.5557C13.008 17.6322 12.9877 17.6961 12.9735 17.7402C12.9665 17.7619 12.9608 17.7791 12.9569 17.791L12.951 17.8086V17.8105H12.9501C12.8157 18.2217 12.4325 18.5 11.9999 18.5C11.6214 18.4999 11.2805 18.2868 11.1112 17.958L11.0497 17.8105L11.0487 17.8086L11.0428 17.791C11.039 17.7791 11.0332 17.7619 11.0262 17.7402C11.012 17.6961 10.9917 17.6321 10.9677 17.5557C10.9196 17.403 10.8547 17.1943 10.7899 16.9736C10.7256 16.7547 10.6584 16.5142 10.6063 16.3008C10.5648 16.1306 10.4999 15.8521 10.4999 15.625C10.4999 14.9473 10.9749 14.0001 11.9999 14ZM8.49988 8C10.1567 8 11.4998 9.34321 11.4999 11C11.4999 12.6569 10.1567 14 8.49988 14C6.8431 13.9999 5.49988 12.6568 5.49988 11C5.49995 9.34326 6.84314 8.00008 8.49988 8ZM15.4999 8C17.1567 8 18.4998 9.34321 18.4999 11C18.4999 12.6569 17.1567 14 15.4999 14C13.8431 13.9999 12.4999 12.6568 12.4999 11C12.5 9.34326 13.8431 8.00008 15.4999 8ZM8.49988 10C7.94771 10.0001 7.49995 10.4478 7.49988 11C7.49988 11.5522 7.94766 11.9999 8.49988 12C9.05216 12 9.49988 11.5523 9.49988 11C9.4998 10.4478 9.05212 10 8.49988 10ZM15.4999 10C14.9477 10.0001 14.5 10.4478 14.4999 11C14.4999 11.5522 14.9477 11.9999 15.4999 12C16.0522 12 16.4999 11.5523 16.4999 11C16.4998 10.4478 16.0521 10 15.4999 10Z" fill="#9E9E9E"/>
</g>
</svg>
