<svg width="24" height="24" viewBox="0 0 24 24" fill="none" xmlns="http://www.w3.org/2000/svg">
<g id="icons/Animals/panda">
<path id="Union" d="M17.5408 2.74268C18.8953 2.6921 20.3405 3.09705 21.364 4.12061C23.2249 5.98157 23.1315 8.86032 21.5837 10.7837C21.8524 11.6424 21.9997 12.553 21.9998 13.4995C21.9998 18.7993 17.468 22.9995 11.9998 22.9995C6.53163 22.9994 1.99976 18.7992 1.99976 13.4995C1.99978 12.5531 2.14622 11.6423 2.41479 10.7837C0.869437 8.8643 0.756369 5.98529 2.62085 4.12061C3.64502 3.09649 5.0943 2.69234 6.45093 2.74268C7.75346 2.79113 9.10175 3.26323 10.0837 4.17627C10.705 4.06133 11.3455 3.99952 11.9998 3.99951C12.6536 3.99951 13.2939 4.06148 13.9148 4.17627C14.8957 3.26354 16.2404 2.79127 17.5408 2.74268ZM11.9998 5.99951C7.52706 5.99962 3.99991 9.41065 3.99976 13.4995C3.99976 17.5885 7.52696 20.9994 11.9998 20.9995C16.4727 20.9995 19.9998 17.5886 19.9998 13.4995C19.9996 9.41058 16.4726 5.99951 11.9998 5.99951ZM14.0671 17.1392C14.2663 16.6243 14.8451 16.3681 15.3601 16.5669C15.8751 16.766 16.1313 17.3448 15.9324 17.8599C15.7539 18.3217 15.333 19.0073 14.572 19.3306C13.9073 19.6128 13.194 19.5378 12.4998 19.1499C11.8055 19.5378 11.0922 19.6129 10.4275 19.3306C9.66672 19.0073 9.24564 18.3216 9.06714 17.8599C8.86834 17.3449 9.12448 16.766 9.6394 16.5669C10.1544 16.3679 10.7332 16.6243 10.9324 17.1392C10.9599 17.2102 11.0079 17.2976 11.0691 17.3716C11.13 17.4452 11.1814 17.4776 11.2097 17.4897C11.2246 17.4961 11.252 17.5073 11.322 17.4907C11.4064 17.4707 11.582 17.4014 11.8464 17.1733L11.9187 17.1167C12.2903 16.851 12.8012 16.8701 13.1531 17.1733C13.4173 17.4011 13.593 17.4706 13.6775 17.4907C13.7475 17.5073 13.7748 17.4961 13.7898 17.4897C13.8181 17.4777 13.8693 17.4454 13.9304 17.3716C13.9917 17.2976 14.0396 17.2103 14.0671 17.1392ZM7.19116 9.89209C7.73321 9.46685 8.47094 9.21554 9.24292 9.42236C10.0149 9.62921 10.5281 10.2157 10.7849 10.855C11.0415 11.4942 11.0751 12.245 10.8816 12.9673C10.688 13.6894 10.2837 14.3223 9.74194 14.7476C9.19988 15.1728 8.46218 15.4241 7.69019 15.2173C6.91822 15.0104 6.40501 14.424 6.14819 13.7847C5.89161 13.1454 5.85799 12.3946 6.05151 11.6724C6.24508 10.9503 6.64943 10.3173 7.19116 9.89209ZM14.6902 9.42236C15.4622 9.21556 16.1999 9.46684 16.7419 9.89209C17.2837 10.3173 17.688 10.9502 17.8816 11.6724C18.0751 12.3946 18.0415 13.1454 17.7849 13.7847C17.5281 14.4239 17.0149 15.0104 16.2429 15.2173C15.4709 15.4241 14.7332 15.1728 14.1912 14.7476C13.6494 14.3223 13.2451 13.6894 13.0515 12.9673C12.858 12.245 12.8916 11.4942 13.1482 10.855C13.405 10.2157 13.9182 9.62921 14.6902 9.42236ZM8.72534 11.354C8.69734 11.3465 8.59484 11.3325 8.42554 11.4653C8.25562 11.5987 8.07649 11.8462 7.98413 12.1909C7.89188 12.5355 7.92322 12.8391 8.00366 13.0396C8.08388 13.2391 8.17979 13.2781 8.20776 13.2856C8.23565 13.2931 8.33814 13.3072 8.50757 13.1743C8.67744 13.041 8.85757 12.7942 8.94995 12.4497C9.04224 12.1053 9.00978 11.8015 8.92944 11.6011C8.84913 11.4011 8.75324 11.3615 8.72534 11.354ZM15.2078 11.354C15.1799 11.3615 15.084 11.4011 15.0037 11.6011C14.9233 11.8015 14.8909 12.1053 14.9832 12.4497C15.0755 12.7942 15.2557 13.041 15.4255 13.1743C15.5949 13.3072 15.6975 13.2931 15.7253 13.2856C15.7534 13.2781 15.8493 13.239 15.9294 13.0396C16.0099 12.8391 16.0412 12.5355 15.949 12.1909C15.8566 11.8462 15.6775 11.5987 15.5076 11.4653C15.3384 11.3326 15.2358 11.3465 15.2078 11.354ZM6.37671 4.7417C5.42887 4.70654 4.57261 4.99795 4.03491 5.53564C3.24187 6.3292 3.04488 7.5228 3.43628 8.58838C4.42666 7.03439 5.87211 5.778 7.58862 4.9751C7.21058 4.84069 6.7992 4.75742 6.37671 4.7417ZM17.615 4.7417C17.1949 4.75744 16.7855 4.83987 16.4089 4.97412C18.1249 5.77623 19.5695 7.03176 20.5603 8.58447C20.9449 7.52184 20.7442 6.33088 19.949 5.53564C19.4104 4.99712 18.5578 4.7065 17.615 4.7417Z" fill="#9E9E9E"/>
</g>
</svg>
