<svg width="24" height="24" viewBox="0 0 24 24" fill="none" xmlns="http://www.w3.org/2000/svg">
<g id="icons/Animals/pig-zodiac">
<path id="Union" d="M10.9996 17.0005C12.6565 17.0005 13.9996 18.3437 13.9996 20.0005C13.9994 20.5526 13.5518 21.0005 12.9996 21.0005C12.4822 21.0003 12.056 20.6069 12.0045 20.103L11.9948 19.8979C11.9434 19.3938 11.5173 19.0005 10.9996 19.0005C10.4821 19.0007 10.0558 19.3939 10.0045 19.8979L9.99475 20.103C9.94324 20.607 9.51718 21.0005 8.99963 21.0005C8.44762 21.0003 7.99983 20.5525 7.99963 20.0005C7.99963 18.3438 9.34295 17.0007 10.9996 17.0005ZM11.8365 5.6167C13.0635 5.41372 14.9515 5.41737 16.6715 6.12354C18.4512 6.85425 20.04 8.34372 20.4528 10.9897H20.4498C20.478 11.1426 20.4927 11.3215 20.4967 11.5142C20.6157 11.5252 20.7582 11.4962 20.8981 11.353C20.8903 11.3609 20.931 11.3151 20.9752 11.1987C21.0166 11.0897 21.043 10.9632 21.0446 10.8423C21.046 10.7231 21.0237 10.63 20.9899 10.562C20.9597 10.5016 20.9061 10.4305 20.7887 10.3608C20.3141 10.0792 20.1571 9.46557 20.4381 8.99072C20.7199 8.51575 21.3342 8.35844 21.8092 8.64014C22.741 9.19295 23.0542 10.0918 23.0446 10.8677C23.0355 11.5771 22.7597 12.3085 22.3297 12.7495C21.7105 13.3841 20.9261 13.5822 20.2448 13.5005C20.2218 13.5923 20.2001 13.6863 20.1735 13.7798C19.8419 14.9407 19.1764 16.325 17.8971 17.2358C17.8893 17.248 17.8769 17.2679 17.8619 17.2974C17.8114 17.3972 17.7504 17.5564 17.693 17.7778C17.5785 18.2193 17.4996 18.821 17.4996 19.5005C17.4994 20.0526 17.0518 20.5005 16.4996 20.5005C15.9476 20.5003 15.4998 20.0525 15.4996 19.5005C15.4996 18.6805 15.5936 17.9064 15.7574 17.2749C15.8391 16.9603 15.9444 16.6576 16.0778 16.394C16.2016 16.1495 16.3962 15.845 16.7018 15.6343L16.8453 15.5288C17.5494 14.9777 17.9968 14.1195 18.2506 13.231C18.3829 12.7675 18.4536 12.3247 18.483 11.9683C18.4977 11.7906 18.5012 11.6402 18.4987 11.5259C18.4961 11.4158 18.4886 11.3636 18.4879 11.3579C18.4836 11.3381 18.4793 11.3174 18.4762 11.2974C18.1863 9.43954 17.1398 8.47739 15.9117 7.97314C14.6241 7.44462 13.1311 7.42913 12.1627 7.58936C11.6181 7.67922 11.1036 7.31068 11.0133 6.76611C10.9234 6.22147 11.292 5.70701 11.8365 5.6167ZM5.22522 3.03955C5.54584 2.94783 5.89141 3.02152 6.14612 3.23682C6.6567 3.66867 7.05615 4.39699 7.32776 4.98584C7.51917 5.40092 7.68314 5.83456 7.80823 6.21533L10.317 7.05225C10.7248 7.18863 11.0006 7.57039 11.0006 8.00049V11.5005C11.0005 11.7946 10.8707 12.0742 10.6461 12.2642C10.3413 12.5218 9.6742 12.9856 8.97229 13.4106C8.28976 13.8239 7.42709 14.2921 6.75354 14.4683C6.21936 14.6079 5.67269 14.2875 5.53284 13.7534C5.39318 13.2191 5.71334 12.6724 6.24768 12.5327C6.61045 12.4378 7.25148 12.1143 7.93616 11.6997C8.35362 11.4469 8.73053 11.1934 9.00061 11.0015V8.72021L6.6842 7.94873C6.36125 7.84104 6.11478 7.57649 6.03088 7.24658C5.97824 7.03893 5.88544 6.75205 5.76721 6.43994L5.72815 6.56299C5.64114 6.83385 5.44309 7.05562 5.18323 7.17139C4.78763 7.34738 4.08412 7.95145 3.61487 8.89502C3.16899 9.79186 2.97844 10.9082 3.42639 12.1216C3.57147 12.4252 3.73814 12.8528 3.91077 13.313C4.10559 13.8323 4.32229 14.4271 4.57288 15.0786C5.07395 16.3814 5.67604 17.819 6.36389 18.9956C6.64219 19.4722 6.48179 20.085 6.00549 20.3638C5.52893 20.6424 4.91625 20.4816 4.63733 20.0054C3.86389 18.6824 3.21512 17.1193 2.70667 15.7974C2.45274 15.1372 2.22473 14.512 2.0387 14.0161C1.84386 13.4967 1.70314 13.142 1.60608 12.9478C1.59071 12.917 1.57622 12.8852 1.56409 12.853C0.874606 11.0214 1.17289 9.31486 1.82385 8.00537C2.35741 6.93226 3.16201 6.05931 3.94495 5.57178L4.54846 3.69482L4.59338 3.57959C4.71462 3.31826 4.94445 3.12007 5.22522 3.03955Z" fill="#9E9E9E"/>
</g>
</svg>
