<svg width="24" height="24" viewBox="0 0 24 24" fill="none" xmlns="http://www.w3.org/2000/svg">
<g id="icons/Animals/pig">
<path id="Union" d="M1.8252 3.32227C2.67126 2.4781 3.88559 2.39098 4.88672 2.5918C5.91438 2.798 6.96111 3.34356 7.7334 4.11426L7.97754 4.375C7.99548 4.39555 8.01168 4.41766 8.0293 4.43848C9.22152 3.85716 10.5616 3.53126 11.9756 3.53125C13.4033 3.53126 14.7552 3.86414 15.9561 4.45605C16.055 4.33816 16.1576 4.223 16.2666 4.11426L16.415 3.97266C17.1701 3.27695 18.1499 2.78511 19.1133 2.5918C20.1144 2.39097 21.3287 2.4781 22.1748 3.32227C23.0216 4.16731 23.1097 5.38124 22.9082 6.38184C22.7014 7.40855 22.1541 8.45386 21.3818 9.22461C21.1378 9.46812 20.8667 9.68605 20.5811 9.87891C20.8375 10.7136 20.9765 11.5991 20.9766 12.5156C20.9765 17.4794 16.9445 21.5 11.9756 21.5C7.00666 21.5 2.97468 17.4794 2.97461 12.5156C2.97462 11.5897 3.1154 10.6948 3.37695 9.85254C3.10647 9.66651 2.85056 9.45653 2.61816 9.22461C1.84584 8.45387 1.29864 7.40856 1.0918 6.38184C0.890256 5.38126 0.978497 4.16731 1.8252 3.32227ZM20.7617 4.73828C20.5854 4.5625 20.1824 4.41722 19.5068 4.55273C18.8576 4.68299 18.1679 5.0431 17.6797 5.53027C17.4696 5.73993 17.2786 5.99137 17.1191 6.26758C16.983 6.50316 16.7564 6.67319 16.4922 6.73828C16.228 6.80332 15.9487 6.7577 15.7188 6.6123C14.6369 5.92794 13.3541 5.53126 11.9756 5.53125C10.6104 5.53126 9.33884 5.92057 8.26367 6.59277C8.03462 6.73582 7.75736 6.7803 7.49512 6.71582C7.23265 6.65118 7.00757 6.48235 6.87109 6.24902C6.71363 5.97979 6.52577 5.73536 6.32031 5.53027C5.83212 5.04309 5.1424 4.68298 4.49316 4.55273C3.81763 4.41723 3.41459 4.56251 3.23828 4.73828C3.06281 4.91349 2.91722 5.31451 3.05273 5.9873C3.18311 6.63387 3.54324 7.32158 4.03125 7.80859C4.30816 8.08494 4.65621 8.32639 5.03418 8.50684C5.51666 8.73734 5.73193 9.30642 5.52344 9.79883C5.17028 10.6325 4.97463 11.5503 4.97461 12.5156C4.97468 16.3709 8.10736 19.5 11.9756 19.5C15.8438 19.5 18.9765 16.3709 18.9766 12.5156C18.9765 11.5569 18.7832 10.6455 18.4346 9.81641C18.2263 9.32106 18.4467 8.74962 18.9336 8.52246C19.3238 8.34062 19.6838 8.09298 19.9688 7.80859C20.4567 7.32156 20.8169 6.63385 20.9473 5.9873C21.0828 5.31442 20.9372 4.91344 20.7617 4.73828ZM12 10C14.6318 10 17 11.8935 17 14.5C16.9999 17.1065 14.6318 19 12 19C9.36825 19 7.00008 17.1064 7 14.5C7 11.8935 9.36821 10 12 10ZM12 12C10.2136 12 9 13.2406 9 14.5C9.00009 15.7594 10.2136 17 12 17C13.7864 17 14.9999 15.7594 15 14.5C15 13.2405 13.7865 12 12 12ZM10.5 13.5C11.0523 13.5 11.5 13.9477 11.5 14.5C11.4999 15.0522 11.0522 15.5 10.5 15.5C9.94779 15.5 9.50007 15.0522 9.5 14.5C9.5 13.9477 9.94774 13.5 10.5 13.5ZM13.5 13.5C14.0523 13.5 14.5 13.9477 14.5 14.5C14.4999 15.0522 14.0522 15.5 13.5 15.5C12.9478 15.5 12.5001 15.0522 12.5 14.5C12.5 13.9477 12.9477 13.5 13.5 13.5ZM8.5 8C9.05228 8 9.5 8.44772 9.5 9C9.49993 9.55222 9.05224 10 8.5 10C7.94779 9.99997 7.50007 9.5522 7.5 9C7.5 8.44773 7.94774 8.00003 8.5 8ZM15.5 8C16.0523 8 16.5 8.44772 16.5 9C16.4999 9.55222 16.0522 10 15.5 10C14.9478 9.99997 14.5001 9.5522 14.5 9C14.5 8.44773 14.9477 8.00003 15.5 8Z" fill="#9E9E9E"/>
</g>
</svg>
