<svg width="24" height="24" viewBox="0 0 24 24" fill="none" xmlns="http://www.w3.org/2000/svg">
<g id="icons/Animals/pigeon">
<path id="Union" d="M11.4625 1.7832C11.793 1.46149 12.3013 1.40837 12.692 1.65332C13.619 2.23491 14.9367 3.85088 15.361 6.55273C15.8996 5.97104 16.4561 5.17663 16.9039 4.1123C17.0771 3.70081 17.5027 3.45349 17.9459 3.50684C18.3892 3.56037 18.7428 3.90183 18.8131 4.34277C19.0397 5.76496 19.1603 8.0442 18.7946 10.3418C18.4613 12.4353 17.6975 14.693 16.0924 16.2764C16.177 16.3031 16.2763 16.3304 16.3922 16.3574C16.4093 16.3524 16.4324 16.3479 16.4596 16.3379C16.5994 16.2861 16.8261 16.1745 17.1403 15.96C17.7685 15.5309 18.682 14.7316 19.8688 13.3213L19.9323 13.252C19.9544 13.2301 19.9784 13.2091 20.0026 13.1895C20.2682 12.9731 20.7158 12.725 21.2682 12.7949C21.8742 12.8719 22.2915 13.2867 22.5367 13.7598C22.772 14.2138 22.9047 14.8107 22.9635 15.5361C23.0232 16.2732 23.0099 17.2144 22.9059 18.4072L22.9078 18.4082C22.8579 19.0726 22.6522 20.0735 22.152 20.918C21.6397 21.7825 20.7166 22.6114 19.3063 22.4854C18.7387 22.4633 18.2861 22.0822 18.0006 21.6621C17.7768 21.3327 17.5985 20.9066 17.4723 20.374C17.4204 20.3819 17.3618 20.3922 17.2975 20.4053C16.6349 20.5401 15.4965 20.9367 13.6979 21.8867C13.6856 21.8932 13.6733 21.9003 13.6608 21.9062C12.9313 22.253 11.7493 22.5774 10.4625 22.4795C9.14359 22.379 7.69508 21.8283 6.57483 20.4082C6.56332 20.3936 6.55231 20.3785 6.54163 20.3633C6.13414 19.7822 5.41689 19.1471 4.55334 18.6572C3.68833 18.1666 2.7744 17.877 1.99963 17.877C1.70977 17.8769 1.43364 17.7513 1.24377 17.5322C1.05404 17.3132 0.968327 17.0222 1.0094 16.7354C1.16082 15.6797 1.74622 14.1368 2.99084 13.1523C3.6339 12.6438 4.44635 12.2926 5.42151 12.251C5.4938 12.2479 5.56694 12.2467 5.64026 12.2471C5.54855 11.8529 5.49757 11.4081 5.52893 10.9189C5.60155 9.78776 6.09254 8.52675 7.25452 7.21484L7.31799 7.14941C7.93293 6.57089 8.85434 5.69966 10.4918 5.23242C11.1339 4.92049 11.4487 4.59625 11.566 4.32324C11.6629 4.09763 11.7113 3.70629 11.2994 3.00879C11.065 2.61176 11.1323 2.10498 11.4625 1.7832ZM17.0221 7.69629C15.9251 8.95944 14.7562 9.61896 14.0162 9.83008C14.0107 9.83167 14.0042 9.83348 13.9987 9.83496C9.13039 11.1311 9.01927 13.3817 9.1012 13.7451C9.18691 14.1258 9.04379 14.5216 8.73401 14.7588C8.42408 14.9958 8.00387 15.0309 7.65881 14.8486C6.74384 14.3655 6.03653 14.2264 5.50647 14.249C4.9863 14.2713 4.57175 14.4513 4.23108 14.7207C3.80826 15.0552 3.49335 15.539 3.28186 16.0264C4.07595 16.2038 4.85016 16.5254 5.54065 16.917C6.58344 17.5085 7.53035 18.3122 8.14514 19.1699L8.28186 19.334C8.97407 20.1208 9.8086 20.4229 10.6139 20.4844C11.4972 20.5516 12.3255 20.3223 12.7897 20.1045C14.6524 19.1225 15.9747 18.6334 16.899 18.4453C17.3602 18.3515 17.7762 18.3215 18.1344 18.376C18.4515 18.4242 18.958 18.5805 19.2213 19.0811C19.2762 19.1855 19.3123 19.299 19.3278 19.416C19.4087 20.0311 19.545 20.3511 19.6305 20.4961C19.9454 20.4775 20.1949 20.2973 20.4313 19.8984C20.7264 19.4002 20.8775 18.7259 20.9127 18.2578L20.9137 18.2461C21.0128 17.1157 21.0183 16.2891 20.9703 15.6973C20.9536 15.4905 20.928 15.3203 20.903 15.1807C19.8596 16.3537 18.9815 17.1247 18.2692 17.6113C17.8584 17.8919 17.4856 18.0903 17.1549 18.2129C16.8548 18.3241 16.4776 18.4152 16.1071 18.3447C16.1007 18.3435 16.0939 18.3422 16.0875 18.3408C15.13 18.1385 14.289 17.7738 13.9381 17.042C13.5316 16.194 14.0212 15.4743 14.3287 15.1816L14.3785 15.1377C15.739 14.006 16.4877 12.1083 16.819 10.0273C16.945 9.23567 17.0057 8.44294 17.0221 7.69629ZM5.99963 14.7061C6.55192 14.7061 6.99963 15.1538 6.99963 15.7061C6.99954 16.2583 6.55186 16.7061 5.99963 16.7061C5.44756 16.7059 4.99973 16.2581 4.99963 15.7061C4.99963 15.1539 5.44751 14.7062 5.99963 14.7061ZM13.0983 5.65527C12.6508 6.29008 11.981 6.74473 11.2867 7.07129C11.2335 7.09632 11.1776 7.11753 11.1207 7.13281C9.94054 7.45024 9.29664 8.03444 8.72131 8.5752C7.82935 9.59417 7.56432 10.4347 7.52502 11.0469C7.50923 11.2932 7.52983 11.5193 7.57092 11.7227C8.35485 10.2738 10.1518 8.79237 13.4674 7.90625C13.4741 7.90434 13.4808 7.90061 13.4879 7.89844C13.4482 7.01216 13.298 6.26889 13.0983 5.65527Z" fill="#9E9E9E"/>
</g>
</svg>
