<svg width="24" height="24" viewBox="0 0 24 24" fill="none" xmlns="http://www.w3.org/2000/svg">
<g id="icons/Animals/rabbit-zodiac">
<path id="Union" d="M8 11.5C9.4112 11.5 11.4389 11.9138 13.3223 12.8555C15.0921 13.7404 16.8364 15.1448 17.7627 17.2236L17.9365 17.6484L17.959 17.7168C18.2995 18.8721 18.7322 20.8065 18.9697 21.7568C19.1037 22.2926 18.7779 22.8357 18.2422 22.9697C17.7066 23.1034 17.1643 22.7777 17.0303 22.2422C16.7712 21.2058 16.3764 19.4356 16.0527 18.3262C15.9711 18.1118 15.8766 17.9053 15.7715 17.7061C13.313 17.4018 11.933 18.1428 11.1436 19.0215C10.2934 19.9678 10 21.2164 10 22C9.99998 22.5523 9.55227 23 9 23C8.44773 23 8.00002 22.5523 8 22C8 20.8384 8.40658 19.0766 9.65625 17.6855C10.6364 16.5945 12.068 15.8062 14.0332 15.6602C13.5415 15.269 12.999 14.9302 12.4277 14.6445C10.8112 13.8363 9.08871 13.5 8 13.5C7.44772 13.5 7 13.0523 7 12.5C7.00024 11.9479 7.44786 11.5 8 11.5ZM4.50879 0.919922C5.12205 0.727402 5.80636 0.745384 6.5293 0.957031L6.8418 1.05957L6.94727 1.10449C7.57435 1.41811 8.03555 1.80805 8.42578 2.19824C8.61615 2.38862 8.79631 2.58569 8.96094 2.76562C9.13003 2.95045 9.28762 3.12256 9.45703 3.29199L12.7324 6.81934L12.832 6.94434C12.919 7.07481 13.353 7.5976 13.6426 8.29688C13.9512 9.0425 14.1355 10.0196 13.9941 11.333C13.9348 11.8819 13.4415 12.2788 12.8926 12.2197C12.3437 12.1604 11.9467 11.6671 12.0059 11.1182C12.1143 10.1106 11.9654 9.47332 11.7949 9.06152C11.6196 8.6382 11.445 8.45061 11.2246 8.13281L8.04297 4.70703L7.74902 4.40234C7.65619 4.30329 7.56756 4.20714 7.48438 4.11621C7.31335 3.92927 7.16483 3.76642 7.01172 3.61328C6.72746 3.32904 6.44935 3.10229 6.09961 2.91992C5.5975 2.74757 5.28358 2.7732 5.1084 2.82812C4.93464 2.88268 4.80663 2.99238 4.71484 3.15527C4.50027 3.53673 4.55373 4.06727 4.75879 4.34375L6.70703 6.29199C6.91873 6.5037 7.02444 6.79972 6.99512 7.09766C6.96561 7.39566 6.80378 7.66485 6.55469 7.83105C4.55242 9.1659 4.08232 11.3191 4 12.0635V21.999C4 22.5513 3.55228 22.999 3 22.999C2.44772 22.999 2 22.5513 2 21.999V11.999C2.00003 11.9661 2.0016 11.9322 2.00488 11.8994C2.08881 11.0617 2.54211 8.71824 4.49805 6.91113L3.29297 5.70605C3.26924 5.6823 3.24681 5.65687 3.22559 5.63086C2.44546 4.67418 2.38098 3.22495 2.97266 2.17383C3.2871 1.61556 3.80028 1.14246 4.50879 0.919922ZM20.25 19.7256C20.8021 19.7256 21.2498 20.1735 21.25 20.7256C21.25 21.2779 20.8023 21.7256 20.25 21.7256C19.6977 21.7256 19.25 21.2779 19.25 20.7256C19.2502 20.1735 19.6979 19.7256 20.25 19.7256Z" fill="#9E9E9E"/>
</g>
</svg>
