<svg width="24" height="24" viewBox="0 0 24 24" fill="none" xmlns="http://www.w3.org/2000/svg">
<g id="icons/Animals/rabbit">
<path id="Union" d="M16.3018 1.2207C17.1567 0.889715 17.9387 0.946307 18.5732 1.28809C19.1984 1.62496 19.5647 2.1766 19.7256 2.60449C19.7378 2.63712 19.749 2.67037 19.7578 2.7041C20.1513 4.21609 20.0113 6.00395 19.7256 7.54199C19.4703 8.91651 19.0785 10.1896 18.7461 11.0576C20.3826 12.2696 21.5 13.9958 21.5 16C21.5 18.0689 20.3103 19.843 18.5869 21.0596C16.8609 22.2779 14.529 23 12 23C9.47102 23 7.13911 22.2779 5.41309 21.0596C3.68968 19.843 2.5 18.0689 2.5 16C2.50001 13.9875 3.62686 12.2557 5.27441 11.043C4.94286 10.1782 4.54802 8.9133 4.28711 7.54688C3.9936 6.00964 3.84435 4.22 4.23828 2.70508L4.27051 2.60449C4.4313 2.17667 4.79786 1.62596 5.42285 1.28906C6.09971 0.92428 6.94413 0.883042 7.86621 1.29199C8.27069 1.47138 8.88481 1.9615 9.21777 2.79395C9.36284 3.09001 9.41932 3.43268 9.44922 3.69238C9.48615 4.01326 9.49999 4.38332 9.5 4.76758C9.5 5.53875 9.44435 6.45097 9.37305 7.31055C9.31264 8.03866 9.23798 8.74253 9.17383 9.3125C10.0705 9.10894 11.0204 9 12 9C13.006 9 13.9805 9.11576 14.8984 9.33008C14.8932 9.29083 14.8883 9.25039 14.8828 9.20898C14.8084 8.64282 14.7145 7.87474 14.6387 7.07227C14.5632 6.27403 14.5031 5.42199 14.5 4.69434C14.4984 4.33159 14.5113 3.97811 14.5479 3.66797C14.5778 3.41451 14.6348 3.08619 14.7764 2.79688C15.1091 1.96278 15.7239 1.47166 16.1289 1.29199L16.3018 1.2207ZM12 11C9.83468 11 7.91676 11.6211 6.56641 12.5742C5.21343 13.5293 4.50001 14.7552 4.5 16C4.5 17.2448 5.21343 18.4707 6.56641 19.4258C7.91676 20.3789 9.83468 21 12 21C14.1653 21 16.0832 20.3789 17.4336 19.4258C18.7866 18.4707 19.5 17.2448 19.5 16C19.5 14.7552 18.7866 13.5293 17.4336 12.5742C16.0832 11.6211 14.1653 11 12 11ZM12 16.7061C12.5523 16.7061 13 17.1538 13 17.7061C13 18.2583 12.5523 18.7061 12 18.7061C11.4477 18.7061 11 18.2583 11 17.7061C11 17.1538 11.4477 16.7061 12 16.7061ZM9 13.7061C9.55227 13.7061 9.99998 14.1538 10 14.7061C10 15.2583 9.55228 15.7061 9 15.7061C8.44772 15.7061 8 15.2583 8 14.7061C8.00002 14.1538 8.44773 13.7061 9 13.7061ZM15 13.7061C15.5523 13.7061 16 14.1538 16 14.7061C16 15.2583 15.5523 15.7061 15 15.7061C14.4477 15.7061 14 15.2583 14 14.7061C14 14.1538 14.4477 13.7061 15 13.7061ZM6.57617 3C6.48385 3.00114 6.41977 3.02259 6.37109 3.04883C6.26971 3.10352 6.19359 3.20463 6.15723 3.27734C5.89608 4.35385 5.98308 5.76373 6.25195 7.17188C6.46008 8.26184 6.7642 9.27936 7.03125 10.0244C7.04719 10.0173 7.0631 10.01 7.0791 10.0029C7.09935 9.84088 7.12578 9.6309 7.1543 9.38574C7.22396 8.78681 7.31064 7.98017 7.37988 7.14551C7.44946 6.30675 7.5 5.45763 7.5 4.76758C7.49999 4.42139 7.48759 4.13548 7.46289 3.9209C7.44057 3.72709 7.41536 3.66232 7.4209 3.6709L7.43555 3.69727C7.41037 3.65259 7.38815 3.60562 7.37012 3.55762C7.31155 3.40194 7.22747 3.28741 7.15137 3.20898C7.11323 3.1697 7.07929 3.14203 7.05566 3.125C7.04767 3.11924 7.04162 3.11552 7.03809 3.11328C6.81985 3.01885 6.66904 2.99888 6.57617 3ZM17.4189 3C17.3255 2.99895 17.1738 3.01881 16.9541 3.11426C16.9673 3.10775 16.9611 3.10938 16.9395 3.125C16.9158 3.14206 16.8819 3.16974 16.8438 3.20898C16.7675 3.2875 16.6836 3.40272 16.625 3.55859C16.607 3.60635 16.5856 3.65281 16.5605 3.69727C16.5927 3.64017 16.5613 3.6722 16.5342 3.90234C16.5108 4.10044 16.4986 4.36454 16.5 4.68555C16.5028 5.32528 16.5566 6.10888 16.6299 6.88379C16.7028 7.65456 16.7928 8.39786 16.8652 8.94922C16.9013 9.22407 16.9336 9.45025 16.9561 9.60742C16.9673 9.68601 16.9754 9.74778 16.9814 9.78906C16.9845 9.80968 16.9867 9.8256 16.9883 9.83594C16.989 9.84067 16.9899 9.84425 16.9902 9.84668C16.9904 9.84783 16.9911 9.84905 16.9912 9.84961C16.9993 9.90322 17.0014 9.95723 17.001 10.0098C17.2634 9.26842 17.5578 8.25874 17.7588 7.17676C18.0203 5.769 18.1003 4.35688 17.8379 3.27734C17.8014 3.2047 17.7263 3.10343 17.625 3.04883C17.5762 3.02254 17.5115 3.00111 17.4189 3Z" fill="#9E9E9E"/>
</g>
</svg>
