<svg width="24" height="24" viewBox="0 0 24 24" fill="none" xmlns="http://www.w3.org/2000/svg">
<g id="icons/Animals/sheep-zodiac">
<path id="Union" d="M3.92456 1.50293C4.57308 1.45448 5.19241 1.53764 5.84351 1.85449C6.45963 2.15442 7.05189 2.63917 7.70581 3.29297C7.71593 3.30308 7.72641 3.31368 7.73608 3.32422L13.2361 9.32422C13.5612 9.67894 13.5882 10.2156 13.2996 10.6006L11.7996 12.6006C11.4682 13.042 10.8409 13.1319 10.3992 12.8008C9.9575 12.4695 9.86803 11.8422 10.199 11.4004L11.2009 10.0635L9.35425 8.04883C8.4842 8.24654 7.35963 8.68645 6.47339 9.49609C5.52461 10.363 4.78345 11.7072 4.99194 13.8711C5.20995 15.1395 5.78559 16.4105 7.19702 17.7832C7.39058 17.9715 7.49973 18.23 7.49976 18.5V21C7.49976 21.5523 7.05204 22 6.49976 22C5.94756 21.9999 5.49976 21.5522 5.49976 21V18.9121C3.99291 17.3451 3.28262 15.7792 3.01343 14.1641C3.00988 14.1427 3.00679 14.1212 3.00464 14.0996C2.72281 11.2811 3.71192 9.31031 5.12476 8.01953C5.97697 7.24096 6.9579 6.73081 7.85132 6.40918L6.29175 4.70801L5.87866 4.31348C5.49777 3.96978 5.20834 3.76954 4.96753 3.65234C4.69701 3.52079 4.45317 3.47746 4.13062 3.49512C3.73043 3.5864 3.49349 3.74838 3.34448 3.91211C3.18172 4.09114 3.06911 4.33315 3.01636 4.63867C2.91872 5.20565 3.05037 5.85821 3.26147 6.30664L3.40503 6.57617C3.62039 7.03487 3.45733 7.59108 3.01343 7.85742C2.53996 8.14125 1.92548 7.98797 1.64136 7.51465C1.15518 6.70417 0.844114 5.46278 1.04468 4.29883C1.14819 3.6988 1.39552 3.08144 1.86499 2.56543C2.34082 2.0426 2.9936 1.68162 3.80347 1.51953L3.92456 1.50293ZM12.9998 17C14.0849 17 15.1871 17.3198 16.0408 17.9873C16.9171 18.6727 17.4997 19.7062 17.4998 21C17.4998 21.5523 17.052 22 16.4998 22C15.9476 21.9999 15.4998 21.5522 15.4998 21C15.4997 20.3609 15.2319 19.8938 14.8083 19.5625C14.3622 19.2138 13.7144 19 12.9998 19C12.2851 19 11.6373 19.2137 11.1912 19.5625C10.7676 19.8938 10.4998 20.3609 10.4998 21C10.4998 21.5523 10.052 22 9.49976 22C8.94759 21.9999 8.49976 21.5522 8.49976 21C8.49979 19.7063 9.08248 18.6727 9.95874 17.9873C10.8124 17.3197 11.9146 17 12.9998 17ZM14.3982 7.50488C15.559 7.38674 17.3842 7.44291 19.0701 8.06348C20.7748 8.69106 22.4422 9.94772 22.9685 12.2539C23.1723 12.9754 23.1308 14.065 22.7625 15.291C22.4001 16.4969 21.7031 17.9065 20.4998 19.3662V21C20.4998 21.5523 20.052 22 19.4998 22C18.9476 21.9999 18.4998 21.5522 18.4998 21V19C18.4998 18.7595 18.5863 18.5265 18.7439 18.3447C19.9222 16.9857 20.5464 15.7175 20.8474 14.7158C21.1587 13.6796 21.1062 12.999 21.0427 12.7891C21.0357 12.7656 21.0295 12.7417 21.0242 12.7178C20.699 11.2619 19.6789 10.4188 18.3796 9.94043C17.0545 9.45265 15.551 9.39851 14.6013 9.49512C14.0521 9.55089 13.5607 9.15079 13.5046 8.60156C13.4488 8.05234 13.8491 7.56105 14.3982 7.50488Z" fill="#9E9E9E"/>
</g>
</svg>
