<svg width="24" height="24" viewBox="0 0 24 24" fill="none" xmlns="http://www.w3.org/2000/svg">
<g id="icons/Animals/tiger-zodiac">
<path id="Union" d="M4.25 1C4.76291 1 5.56034 1.08905 6.40137 1.34277C7.11766 1.55887 7.92241 1.91345 8.61426 2.48438C9.80536 2.47645 11.4216 2.76918 12.6592 3.43066C13.3628 3.80678 14.0712 4.37093 14.4209 5.19629C14.7943 6.07807 14.6725 7.04685 14.1143 8.00391C14.1042 8.02116 14.0931 8.03807 14.082 8.05469C13.3544 9.14623 12.1093 9.5 10.5 9.5C9.94772 9.5 9.5 9.05229 9.5 8.5C9.5 7.94772 9.94772 7.5 10.5 7.5C11.8476 7.5 12.2302 7.20634 12.4004 6.9668C12.699 6.44173 12.6521 6.14787 12.5791 5.97559C12.4808 5.74384 12.2201 5.46389 11.7158 5.19434C10.6989 4.65089 9.2077 4.42694 8.33008 4.49707C8.03802 4.52043 7.75015 4.41421 7.54297 4.20703C7.25673 3.9208 6.89531 3.69031 6.49902 3.50977C6.49863 3.55037 6.49662 3.59113 6.49121 3.63184C6.4542 3.90918 6.30247 4.15888 6.07324 4.31934C4.34831 5.52689 4 7.06698 4 7.5V22C4 22.5523 3.55228 23 3 23C2.44772 23 2 22.5523 2 22V7.5C2 6.57889 2.48653 4.84419 4.08301 3.3623L3.48145 2.64062C3.23308 2.34258 3.18023 1.92753 3.34473 1.57617C3.50931 1.22479 3.86198 1 4.25 1ZM9.5 11C10.8296 11 12.5635 11.7817 13.9385 13.0879C15.3516 14.4304 16.5 16.4304 16.5 19C16.5 19.3675 16.5972 19.7126 16.7734 19.9219C16.8994 20.0714 17.1827 20.2966 17.9512 20.207C18.9243 20.0936 19.9603 19.4187 20.5498 17.626C20.7223 17.1013 21.2878 16.8158 21.8125 16.9883C22.3369 17.1608 22.6224 17.7255 22.4502 18.25C21.6666 20.6334 20.0751 21.9737 18.1826 22.1943C16.8846 22.3455 15.884 21.971 15.2432 21.21C14.6526 20.5086 14.5 19.6324 14.5 19C14.5 18.8299 14.4913 18.6634 14.4785 18.5H13.5C11.7203 18.5 10.7767 19.0462 10.2588 19.6504C9.7152 20.2846 9.5 21.1464 9.5 22C9.5 22.5523 9.05228 23 8.5 23C7.94772 23 7.5 22.5523 7.5 22C7.5 20.8535 7.78483 19.4654 8.74121 18.3496C9.72333 17.2038 11.2797 16.5 13.5 16.5H13.9678C13.617 15.7253 13.1213 15.0689 12.5615 14.5371C11.4365 13.4683 10.1704 13 9.5 13C8.94772 13 8.5 12.5523 8.5 12C8.5 11.4477 8.94772 11 9.5 11Z" fill="#9E9E9E"/>
</g>
</svg>
