<svg width="24" height="24" viewBox="0 0 24 24" fill="none" xmlns="http://www.w3.org/2000/svg">
<g id="icons/Animals/whale">
<path id="Union" d="M8.03455 5.5C9.8558 5.50012 12.6978 6.34594 15.2328 10.3301C15.5341 10.8035 15.9885 11.1043 16.4154 11.209C16.8429 11.3136 17.1438 11.2103 17.3129 11.042C17.2974 11.0574 17.315 11.0422 17.3353 11.0039C17.3537 10.9692 17.3603 10.9417 17.3617 10.9258C17.3623 10.9186 17.3638 10.9014 17.3451 10.8633C17.3234 10.8193 17.2573 10.7144 17.0687 10.5703C17.063 10.5659 17.0568 10.5611 17.0511 10.5566C15.9714 9.69366 15.7544 8.2221 16.0355 6.74902C16.1127 6.34529 16.4294 6.03005 16.8334 5.9541C17.2373 5.87833 17.6472 6.05707 17.8656 6.40527C17.8663 6.4064 17.8696 6.4115 17.8763 6.41992C17.8844 6.4299 17.8966 6.44358 17.9125 6.45996C17.945 6.49347 17.9905 6.53506 18.0492 6.58008C18.1679 6.67105 18.3217 6.7643 18.4935 6.84277C18.8082 6.98639 19.076 7.03321 19.2416 7.02734C19.619 6.85688 19.9975 6.68659 20.3353 6.49219C20.7379 6.26044 20.9227 6.08266 20.9789 5.98828L21.058 5.875C21.2579 5.62537 21.568 5.48421 21.8929 5.50195C22.2642 5.5224 22.5941 5.74663 22.7484 6.08496C22.9203 6.46191 22.9942 6.9521 23.0004 7.43848C23.0068 7.9488 22.9394 8.54316 22.765 9.16504C22.4413 10.3189 21.7376 11.5902 20.4213 12.585C20.2126 13.3665 19.7168 14.2384 19.014 15.0439C18.1451 16.0398 16.8937 17.015 15.2552 17.6875C15.2483 17.6903 15.2408 17.6936 15.2338 17.6963C13.6458 18.305 11.2445 18.6426 8.82166 18.4414C6.40296 18.2405 3.7949 17.488 1.92419 15.748C1.916 15.7404 1.90771 15.7325 1.89978 15.7246C1.58821 15.414 1.0929 14.924 1.01208 14.1543C0.946079 13.5241 1.17446 12.8775 1.53748 12.1816C1.47356 11.0807 1.68302 9.5801 2.53259 8.26172C3.50879 6.74698 5.2484 5.5989 7.99939 5.50098L8.03455 5.5ZM8.04724 7.5C5.90589 7.58205 4.80254 8.43286 4.21423 9.3457C3.58551 10.3215 3.46143 11.5047 3.55115 12.2803C3.57524 12.4885 3.53304 12.6997 3.43103 12.8828C3.38185 12.971 3.33688 13.0519 3.29822 13.127C3.90917 13.2308 4.62605 13.3282 5.35779 13.3291C6.36378 13.3303 7.26581 13.1494 7.92126 12.6846C8.37155 12.3653 8.9962 12.4709 9.3158 12.9209C9.63507 13.3711 9.52931 13.9958 9.07947 14.3154C7.93531 15.1272 6.54514 15.3305 5.35583 15.3291C5.15289 15.3288 4.95161 15.3205 4.75427 15.3096C5.99075 15.9605 7.46998 16.3222 8.98767 16.4482C11.1617 16.6287 13.2492 16.3126 14.5101 15.8311C15.8436 15.281 16.8375 14.497 17.5072 13.7295C17.7569 13.4433 17.9524 13.168 18.1039 12.918C17.4261 13.2818 16.6413 13.3235 15.9388 13.1514C15.0072 12.9229 14.1208 12.3086 13.5453 11.4043C11.3651 7.9778 9.15172 7.50358 8.04724 7.5ZM6.00037 9C6.55247 9.00021 7.00037 9.44784 7.00037 10C7.00037 10.5522 6.55247 10.9998 6.00037 11C5.44808 11 5.00037 10.5523 5.00037 10C5.00037 9.44772 5.44808 9 6.00037 9ZM20.8763 8.46875C20.534 8.6409 20.1968 8.79162 19.933 8.91113C19.8637 8.94246 19.7907 8.96558 19.7162 8.98047C19.1905 9.08527 18.6481 9.00525 18.1742 8.85645C18.2163 8.91374 18.258 8.96045 18.3002 8.99414H18.2992C19.0051 9.53962 19.3466 10.2003 19.3597 10.876C20.1879 10.1988 20.6287 9.3754 20.8392 8.625C20.8539 8.57276 20.8639 8.52 20.8763 8.46875Z" fill="#9E9E9E"/>
</g>
</svg>
