<svg width="24" height="24" viewBox="0 0 24 24" fill="none" xmlns="http://www.w3.org/2000/svg">
<g id="icons/Energy/battery-charge">
<path id="Union" d="M6.5 6C7.05219 6 7.49985 6.44785 7.5 7C7.5 7.55228 7.05228 8 6.5 8H3V16H6.5C7.05219 16 7.49985 16.4478 7.5 17C7.5 17.5523 7.05228 18 6.5 18H3C1.89544 18 1 17.1046 1 16V8C1.00015 6.89554 1.89553 6 3 6H6.5ZM10.1064 6.55273C10.3535 6.05903 10.9544 5.85864 11.4482 6.10547C11.9421 6.35246 12.1423 6.95337 11.8955 7.44727L10.1182 11.001H13.502C13.8484 11.001 14.1703 11.1801 14.3525 11.4746C14.5347 11.7694 14.5515 12.1383 14.3965 12.4482L11.8945 17.4473C11.6474 17.941 11.0466 18.1414 10.5527 17.8945C10.059 17.6474 9.85857 17.0465 10.1055 16.5527L11.8828 13.001H8.5C8.15344 13.001 7.83163 12.8211 7.64941 12.5264C7.46741 12.2317 7.45068 11.8635 7.60547 11.5537L10.1064 6.55273ZM19 6C20.1045 6 20.9998 6.89555 21 8V10H22C22.5522 10 22.9998 10.4478 23 11V13C23 13.5523 22.5523 14 22 14H21V16C21 17.1046 20.1046 18 19 18H15.5C14.9477 18 14.5 17.5523 14.5 17C14.5002 16.4478 14.9478 16 15.5 16H19V8H15.5C14.9477 8 14.5 7.55228 14.5 7C14.5002 6.44785 14.9478 6 15.5 6H19Z" fill="#9E9E9E"/>
</g>
</svg>
