<svg width="24" height="24" viewBox="0 0 24 24" fill="none" xmlns="http://www.w3.org/2000/svg">
<g id="icons/Energy/battery-working">
<path id="Union" d="M19 6C20.1046 6 21 6.89542 21 8V10H22C22.5523 10 23 10.4477 23 11V13C23 13.5523 22.5523 14 22 14H21V16C21 17.1046 20.1046 18 19 18H3C1.89544 18 1 17.1046 1 16V8C1 6.89541 1.89544 6 3 6H19ZM3 16H19V8H3V16ZM6.5 9.5C7.05228 9.5 7.5 9.94772 7.5 10.5V13.5C7.5 14.0523 7.05228 14.5 6.5 14.5C5.94772 14.5 5.5 14.0523 5.5 13.5V10.5C5.5 9.94772 5.94772 9.5 6.5 9.5ZM9.5 9.5C10.0523 9.5 10.5 9.94772 10.5 10.5V13.5C10.5 14.0523 10.0523 14.5 9.5 14.5C8.94772 14.5 8.5 14.0523 8.5 13.5V10.5C8.5 9.94772 8.94772 9.5 9.5 9.5Z" fill="#9E9E9E"/>
</g>
</svg>
