<svg width="24" height="24" viewBox="0 0 24 24" fill="none" xmlns="http://www.w3.org/2000/svg">
<g id="icons/Energy/bloom">
<path id="Union" d="M11.3688 1.22461C11.7615 0.904278 12.3405 0.926915 12.7067 1.29297L15.8522 4.43848L18.858 4.00977C19.3704 3.93657 19.8544 4.2668 19.9733 4.77051V4.77344C19.9736 4.77471 19.9748 4.77631 19.9752 4.77832C19.9763 4.78307 19.9772 4.79037 19.9791 4.79883C19.9832 4.8163 19.9895 4.84202 19.9967 4.87402C20.0112 4.93817 20.032 5.03029 20.0563 5.14453C20.1049 5.37295 20.1692 5.69229 20.234 6.05664C20.3608 6.76938 20.4996 7.71702 20.4996 8.5C20.4995 13.6892 16.4721 16.4757 12.9996 16.9316V22C12.9995 22.5522 12.5518 23 11.9996 23C11.4476 22.9998 10.9998 22.5521 10.9996 22V16.9316C7.52729 16.4754 3.49976 13.6888 3.49963 8.5C3.49963 7.71707 3.63843 6.76936 3.76526 6.05664C3.83009 5.69237 3.89439 5.37294 3.94299 5.14453C3.96729 5.03039 3.9881 4.93817 4.00256 4.87402C4.00976 4.84212 4.0161 4.81629 4.02014 4.79883C4.02207 4.79047 4.02297 4.78307 4.02405 4.77832C4.02449 4.77641 4.0256 4.77466 4.026 4.77344V4.77051L4.05237 4.67773C4.20529 4.2269 4.66108 3.94133 5.14124 4.00977L8.14612 4.43848L11.2926 1.29297L11.3688 1.22461ZM2.23108 15.3594C2.58463 14.9352 3.21601 14.878 3.64026 15.2314L9.64026 20.2314C10.0644 20.585 10.1217 21.2164 9.76819 21.6406C9.41456 22.0645 8.78315 22.122 8.35901 21.7686L2.35901 16.7686C1.93501 16.415 1.87786 15.7836 2.23108 15.3594ZM20.359 15.2314C20.7832 14.8779 21.4146 14.9352 21.7682 15.3594C22.1217 15.7836 22.0644 16.415 21.6403 16.7686L15.6403 21.7686C15.216 22.1218 14.5846 22.0647 14.2311 21.6406C13.8777 21.2165 13.9351 20.5851 14.359 20.2314L20.359 15.2314ZM9.20667 6.20703C8.98412 6.42939 8.66949 6.53473 8.35803 6.49023L5.78967 6.12305C5.77246 6.21365 5.75157 6.30853 5.73401 6.40723C5.61087 7.09923 5.49963 7.90242 5.49963 8.5C5.49977 12.8022 9.14472 14.9998 11.9996 15C14.8546 15 18.4995 12.8024 18.4996 8.5C18.4996 7.90238 18.3884 7.09926 18.2653 6.40723C18.2477 6.30841 18.2258 6.21375 18.2086 6.12305L15.6412 6.49023C15.3298 6.53461 15.0151 6.42951 14.7926 6.20703L11.9996 3.41406L9.20667 6.20703Z" fill="#9E9E9E"/>
</g>
</svg>
