<svg width="24" height="24" viewBox="0 0 24 24" fill="none" xmlns="http://www.w3.org/2000/svg">
<g id="icons/Energy/blossom">
<path id="Union" d="M11.6913 2.00586C12.8351 2.07267 13.7686 2.42166 14.495 2.99023C15.2159 3.55455 15.6743 4.28875 15.951 5.03516C16.2512 5.84501 16.3512 6.70491 16.3329 7.47656C18.1088 7.13697 19.5142 7.31264 20.5917 7.81055C21.9467 8.43685 22.6689 9.52273 22.8964 10.4258C22.9012 10.445 22.9063 10.4649 22.91 10.4844C23.0816 11.3931 23.0036 12.208 22.7108 12.9141C22.4198 13.6155 21.9432 14.1458 21.4159 14.5352C20.9422 14.8848 20.4124 15.1319 19.8954 15.3018C20.7629 16.7037 21.0711 17.928 20.9423 18.9805C20.7713 20.3752 19.8646 21.2294 19.0428 21.5791C19.0022 21.5964 18.9604 21.6113 18.9178 21.623C16.937 22.1694 15.3134 21.7389 14.1141 20.9395C13.5974 20.595 13.1649 20.1863 12.8143 19.7676C11.0559 22.0351 8.65407 22.2142 7.38269 21.8535L7.37585 21.8516C6.40131 21.5669 5.66609 21.0617 5.20886 20.3506C4.75868 19.6502 4.65111 18.8639 4.70496 18.1455C4.76745 17.3133 5.05366 16.4823 5.39929 15.7676C3.79434 15.3274 2.69283 14.6613 1.98425 13.8789C1.09328 12.895 0.876992 11.7775 1.0614 10.9375H1.06042C1.28373 9.82883 1.76348 8.96768 2.44812 8.35156C3.12592 7.74178 3.93822 7.43126 4.73425 7.30176C5.66009 7.15124 6.61751 7.2362 7.45886 7.41895C7.41005 5.6513 7.82628 4.34813 8.55457 3.44043C9.47744 2.29061 10.7601 1.95153 11.6913 2.00586ZM11.5751 4.00195C11.1806 3.97896 10.5675 4.12738 10.1141 4.69238C9.66419 5.25329 9.23059 6.40313 9.57996 8.6582C9.63512 9.01502 9.49366 9.37447 9.20984 9.59766C8.92593 9.82064 8.54348 9.87323 8.20984 9.73535C7.37277 9.38908 6.11774 9.10368 5.05554 9.27637C4.54191 9.35992 4.11394 9.54297 3.78601 9.83789C3.46502 10.1268 3.17231 10.5828 3.02136 11.332C3.01942 11.3416 3.01673 11.3518 3.01453 11.3613C2.97669 11.5253 2.97669 11.9961 3.46667 12.5371C3.96151 13.0833 5.00821 13.7486 7.11707 14.0977C7.45661 14.1538 7.74396 14.3808 7.87683 14.6982C8.00934 15.0155 7.96949 15.3791 7.77136 15.6602C7.27543 16.3637 6.76569 17.4083 6.6991 18.2949C6.66736 18.7183 6.74147 19.0362 6.89148 19.2695C7.03469 19.4921 7.31993 19.7508 7.93445 19.9307C8.61874 20.1216 10.639 20.1022 11.8993 17.4434L11.9716 17.3154C12.16 17.0336 12.4824 16.8636 12.828 16.8721C13.2229 16.882 13.575 17.1234 13.7264 17.4883C13.9359 17.9932 14.4404 18.7533 15.2235 19.2754C15.9562 19.7637 16.9601 20.065 18.3094 19.7139C18.5715 19.5837 18.8912 19.2812 18.9579 18.7373C19.0321 18.1307 18.8199 17.0032 17.4052 15.2471C17.1696 14.9547 17.1173 14.5538 17.2704 14.2109C17.4236 13.8682 17.7568 13.6408 18.1317 13.6211C18.7488 13.5888 19.6139 13.3794 20.2274 12.9268C20.5205 12.7104 20.7375 12.4526 20.8641 12.1475C20.9863 11.8527 21.0488 11.4505 20.9491 10.8916C20.8554 10.5523 20.5243 9.98259 19.7528 9.62598C18.9716 9.26496 17.6242 9.07221 15.4452 9.76465C15.0939 9.87614 14.7094 9.78526 14.4452 9.52832C14.181 9.27129 14.0798 8.88941 14.1815 8.53516C14.3682 7.88634 14.4404 6.71383 14.076 5.73047C13.9004 5.25664 13.635 4.85711 13.2626 4.56543C12.8954 4.27804 12.3645 4.04812 11.5751 4.00195ZM11.8583 8.50977C12.405 8.43167 12.9119 8.81174 12.9901 9.3584L13.3202 11.6719L15.1835 11.0518C15.7073 10.8771 16.2734 11.1598 16.4481 11.6836C16.6226 12.2074 16.34 12.7735 15.8163 12.9482L14.5594 13.3662L15.6249 14.2188C16.0561 14.5638 16.1261 15.1938 15.7811 15.625C15.4361 16.056 14.806 16.1261 14.3749 15.7812L12.6561 14.4062L11.2811 16.125C10.9361 16.556 10.306 16.6261 9.87488 16.2812C9.44372 15.9363 9.37389 15.3063 9.71863 14.875L10.6532 13.7051L9.33582 13.4863C8.79134 13.3955 8.42319 12.8804 8.51355 12.3359C8.60432 11.7913 9.11933 11.4231 9.66394 11.5137L11.3163 11.7881L11.0096 9.6416C10.9316 9.09499 11.3117 8.58804 11.8583 8.50977Z" fill="#9E9E9E"/>
</g>
</svg>
