<svg width="24" height="24" viewBox="0 0 24 24" fill="none" xmlns="http://www.w3.org/2000/svg">
<g id="icons/Energy/cactus">
<path id="Union" d="M12 1.5C14.7614 1.5 17 3.73858 17 6.5V15.8516C17.4671 15.6998 17.8455 15.4388 18.165 15.1016C18.7146 14.5214 19.1237 13.6758 19.4131 12.6631C19.9941 10.6296 20 8.26525 20 7C20 6.44772 20.4477 6 21 6C21.5523 6 22 6.44772 22 7C22 8.23468 22.0058 10.8705 21.3369 13.2119C21.0013 14.3865 20.4728 15.5724 19.6162 16.4766C18.9339 17.1968 18.0656 17.7101 17 17.9082V20.5H20C20.5523 20.5 21 20.9477 21 21.5C21 22.0523 20.5523 22.5 20 22.5H4C3.44772 22.5 3 22.0523 3 21.5C3 20.9477 3.44772 20.5 4 20.5H7V15.9385C6.10055 15.8243 5.32848 15.5518 4.67676 15.1357C3.79483 14.5727 3.20415 13.7934 2.8125 12.9541C2.05157 11.3235 2 9.36463 2 8C2 7.44772 2.44772 7 3 7C3.55228 7 4 7.44772 4 8C4 9.38535 4.07345 10.9265 4.625 12.1084C4.88959 12.6754 5.25208 13.1304 5.75293 13.4502C6.07302 13.6545 6.47892 13.8206 7 13.915V6.5C7 3.73858 9.23856 1.5 12 1.5ZM12 3.5C10.3431 3.5 9 4.84314 9 6.5V20.5H15V6.5C15 4.84314 13.6569 3.5 12 3.5Z" fill="#9E9E9E"/>
</g>
</svg>
