<svg width="24" height="24" viewBox="0 0 24 24" fill="none" xmlns="http://www.w3.org/2000/svg">
<g id="icons/Energy/christmas-tree">
<path id="Union" d="M11.3689 1.22461C11.7617 0.904259 12.3407 0.926853 12.7068 1.29297L16.7068 5.29297C16.9341 5.52025 17.0385 5.84289 16.9871 6.16016C16.9355 6.47734 16.7345 6.75082 16.447 6.89453L15.6873 7.27344L18.7068 10.293C18.9518 10.538 19.0529 10.8923 18.9734 11.2295C18.8937 11.5666 18.6447 11.8386 18.3162 11.9482L16.7634 12.4648L20.2429 16.3311C20.5071 16.6246 20.5735 17.0465 20.4128 17.4072C20.252 17.7676 19.8944 18 19.4998 18H14.6052L14.905 21H15.4998C16.052 21 16.4998 21.4477 16.4998 22C16.4996 22.5522 16.052 23 15.4998 23H8.49976C7.94763 22.9999 7.49988 22.5521 7.49976 22C7.49976 21.4478 7.94756 21.0001 8.49976 21H9.09448L9.39429 18H4.49976C4.11558 17.9999 3.76496 17.7798 3.59839 17.4336C3.43191 17.0872 3.47853 16.6751 3.71851 16.375L6.87573 12.4277L5.62866 11.9287C5.3167 11.8039 5.08792 11.5303 5.02026 11.2012C4.9527 10.872 5.05518 10.5306 5.29272 10.293L8.31128 7.27344L7.55249 6.89453C7.26507 6.7508 7.06399 6.47734 7.01245 6.16016C6.961 5.84298 7.06559 5.52024 7.29272 5.29297L11.2927 1.29297L11.3689 1.22461ZM11.405 18L11.1052 21H12.8943L12.5945 18H11.405ZM9.68726 5.72559L10.447 6.10547C10.7345 6.24922 10.9356 6.52255 10.9871 6.83984C11.0385 7.15705 10.934 7.4798 10.7068 7.70703L7.77905 10.6338L8.87085 11.0713C9.1648 11.1889 9.38584 11.439 9.46655 11.7451C9.54719 12.0512 9.47874 12.3778 9.28101 12.625L6.58081 16H17.2546L14.2566 12.6689C14.0311 12.4184 13.9471 12.071 14.033 11.7451C14.119 11.4192 14.3637 11.1585 14.6833 11.0518L16.1482 10.5625L13.2927 7.70703C13.0655 7.47981 12.9611 7.15703 13.0125 6.83984C13.0639 6.52264 13.2651 6.24925 13.5525 6.10547L14.3113 5.72559L11.9998 3.41406L9.68726 5.72559Z" fill="#9E9E9E"/>
</g>
</svg>
