<svg width="24" height="24" viewBox="0 0 24 24" fill="none" xmlns="http://www.w3.org/2000/svg">
<g id="icons/Energy/christmas-tree-one">
<path id="Union" d="M12.0001 1C12.2818 1.00004 12.5509 1.11871 12.7404 1.32715L17.7404 6.82715C18.0993 7.2221 18.0845 7.82962 17.7072 8.20703L16.9142 9L20.2072 12.293C20.464 12.5499 20.5611 12.9261 20.4611 13.2754C20.361 13.6246 20.0796 13.8926 19.7257 13.9746L18.882 14.1689L21.7413 17.3291C22.0065 17.6222 22.0743 18.044 21.9142 18.4053C21.7538 18.7666 21.3954 18.9999 21.0001 19H13.0001V22C13.0001 22.5522 12.5523 22.9999 12.0001 23C11.4478 23 11.0001 22.5523 11.0001 22V19H3.00012C2.60476 19 2.24646 18.7666 2.08606 18.4053C1.92586 18.0439 1.99372 17.6222 2.25891 17.3291L5.11731 14.1689L4.27454 13.9746C3.92059 13.8926 3.63929 13.6246 3.53918 13.2754C3.43914 12.926 3.53614 12.5499 3.79309 12.293L7.08606 9L6.29309 8.20703C5.91566 7.8296 5.90087 7.22212 6.25989 6.82715L11.2599 1.32715L11.3351 1.25293C11.5173 1.09078 11.7538 1 12.0001 1ZM8.38098 7.4668L9.20715 8.29297C9.59757 8.68347 9.59757 9.31653 9.20715 9.70703L6.48157 12.4316L7.22571 12.6045C7.57082 12.6845 7.84808 12.9413 7.95422 13.2793C8.06026 13.6175 7.97908 13.9872 7.74133 14.25L5.25305 17H18.7472L16.2589 14.25C16.0211 13.9872 15.94 13.6175 16.046 13.2793C16.1522 12.9413 16.4294 12.6844 16.7745 12.6045L17.5177 12.4316L14.7931 9.70703C14.4026 9.31651 14.4026 8.68349 14.7931 8.29297L15.6183 7.4668L12.0001 3.48633L8.38098 7.4668Z" fill="#9E9E9E"/>
</g>
</svg>
