<svg width="24" height="24" viewBox="0 0 24 24" fill="none" xmlns="http://www.w3.org/2000/svg">
<g id="icons/Energy/coronavirus">
<path id="Union" d="M12.001 1C12.7229 1.00003 13.4297 1.06981 14.1143 1.20312C14.6563 1.30876 15.0099 1.83392 14.9043 2.37598C14.7986 2.91793 14.2735 3.27157 13.7314 3.16602C13.4911 3.11922 13.2471 3.08291 13 3.05566V7.09961C13.6382 7.22915 14.2321 7.4807 14.7568 7.82812L17.6152 4.96973C17.4007 4.79817 17.1791 4.63507 16.9492 4.4834C16.4883 4.17926 16.361 3.55863 16.665 3.09766C16.9692 2.6367 17.5898 2.50939 18.0508 2.81348C18.6431 3.2043 19.1956 3.65081 19.7002 4.14551C20.1783 4.61417 20.6134 5.1267 21 5.67578C21.3179 6.12738 21.2094 6.75141 20.7578 7.06934C20.3063 7.38687 19.6831 7.27842 19.3652 6.82715C19.2584 6.67539 19.1452 6.52847 19.0293 6.38379L16.1709 9.24219C16.5187 9.76711 16.7698 10.3614 16.8994 11H20.9434C20.9108 10.7049 20.866 10.4142 20.8057 10.1289C20.6914 9.58856 21.0368 9.05758 21.5771 8.94336C22.1173 8.82942 22.6474 9.17478 22.7617 9.71484C22.9178 10.453 23 11.2183 23 12.001C23 12.8001 22.9145 13.5805 22.752 14.333C22.6354 14.8728 22.1032 15.2161 21.5635 15.0996C21.0238 14.983 20.6805 14.4508 20.7969 13.9111C20.8613 13.613 20.9102 13.3089 20.9443 13H16.8994C16.7698 13.6383 16.5184 14.2321 16.1709 14.7568L19.0205 17.6064C19.1635 17.4326 19.3029 17.2556 19.4326 17.0713C19.7505 16.6197 20.3736 16.5113 20.8252 16.8291C21.2768 17.147 21.3852 17.7701 21.0674 18.2217C20.6808 18.7708 20.2457 19.2833 19.7676 19.752C19.2629 20.2467 18.7105 20.6932 18.1182 21.084C17.6572 21.3881 17.0366 21.2608 16.7324 20.7998C16.4286 20.3389 16.5559 19.7191 17.0166 19.415C17.213 19.2854 17.4025 19.1462 17.5879 19.002L14.7568 16.1709C14.2321 16.5184 13.6383 16.7698 13 16.8994V20.9414C13.2503 20.9138 13.4977 20.8787 13.7412 20.8311C14.2831 20.7249 14.8088 21.0782 14.915 21.6201C15.0212 22.1621 14.668 22.6878 14.126 22.7939C13.4501 22.9263 12.7526 22.9955 12.04 22.998C12.0267 22.9986 12.0134 23 12 23C11.9862 23 11.9726 22.9986 11.959 22.998C11.2466 22.9955 10.5488 22.9263 9.87305 22.7939C9.33112 22.6877 8.97781 22.1621 9.08398 21.6201C9.19021 21.0782 9.71587 20.7249 10.2578 20.8311C10.5015 20.8788 10.7493 20.9138 11 20.9414V16.8994C10.3614 16.7698 9.76711 16.5187 9.24219 16.1709L6.38281 19.0303C6.59803 19.2025 6.82017 19.3664 7.05078 19.5186C7.51147 19.8227 7.63871 20.4424 7.33496 20.9033C7.03079 21.3643 6.4102 21.4917 5.94922 21.1875C5.35681 20.7966 4.80443 20.3501 4.2998 19.8555C3.82175 19.3868 3.38657 18.8743 3 18.3252C2.68222 17.8736 2.79065 17.2505 3.24219 16.9326C3.69377 16.6148 4.31687 16.7233 4.63477 17.1748C4.74107 17.3258 4.85348 17.4722 4.96875 17.6162L7.82812 14.7568C7.48073 14.2322 7.23013 13.6381 7.10059 13H3.05664C3.08917 13.2954 3.13396 13.5864 3.19434 13.8721C3.30857 14.4124 2.96319 14.9434 2.42285 15.0576C1.88268 15.1716 1.35257 14.8263 1.23828 14.2861C1.08226 13.5481 1.00003 12.7835 1 12.001C1 11.2183 1.08223 10.453 1.23828 9.71484C1.3526 9.17476 1.88271 8.82935 2.42285 8.94336C2.96319 9.05759 3.30857 9.58856 3.19434 10.1289C3.13404 10.4142 3.08916 10.7049 3.05664 11H7.10059C7.23019 10.3616 7.4805 9.767 7.82812 9.24219L4.96973 6.38379C4.85399 6.52831 4.74149 6.67556 4.63477 6.82715C4.31689 7.27843 3.69368 7.38684 3.24219 7.06934C2.79059 6.7514 2.68207 6.12738 3 5.67578C3.38657 5.1267 3.82173 4.61415 4.2998 4.14551C4.80441 3.65085 5.35679 3.20433 5.94922 2.81348C6.41021 2.50941 7.03084 2.63669 7.33496 3.09766C7.63903 3.55864 7.51175 4.17928 7.05078 4.4834C6.82069 4.6352 6.59852 4.79799 6.38379 4.96973L9.24219 7.82812C9.76706 7.48046 10.3615 7.2292 11 7.09961V3.05664C10.7533 3.08388 10.5095 3.1193 10.2695 3.16602C9.72751 3.27157 9.20235 2.91795 9.09668 2.37598C8.99113 1.83396 9.34477 1.30881 9.88672 1.20312C10.5715 1.06978 11.2789 1 12.001 1ZM12 9C10.3431 9 9 10.3431 9 12C9 13.6569 10.3431 15 12 15C13.6569 15 15 13.6569 15 12C15 10.3431 13.6569 9 12 9Z" fill="#9E9E9E"/>
</g>
</svg>
