<svg width="24" height="24" viewBox="0 0 24 24" fill="none" xmlns="http://www.w3.org/2000/svg">
<g id="icons/Energy/fire-two">
<path id="Union" d="M19.2581 17.0303C19.7937 16.8966 20.3361 17.2221 20.47 17.7578C20.6035 18.2934 20.2779 18.8358 19.7424 18.9697L15.6213 20L19.7424 21.0303C20.278 21.1643 20.6037 21.7066 20.47 22.2422C20.3359 22.7776 19.7936 23.1033 19.2581 22.9697L11.5002 21.0303L3.74243 22.9697C3.20684 23.1035 2.66461 22.7777 2.53052 22.2422C2.39672 21.7065 2.72234 21.1642 3.25806 21.0303L7.37915 20L3.25806 18.9697C2.72243 18.8358 2.3969 18.2934 2.53052 17.7578C2.66445 17.2221 3.20671 16.8965 3.74243 17.0303L11.5002 18.9697L19.2581 17.0303ZM8.07446 1.0957C8.3354 0.972864 8.63638 0.96848 8.90063 1.08398C11.2654 2.11869 12.4046 4.17413 12.9504 5.8457C12.9909 5.96973 13.028 6.09313 13.0627 6.21387C13.787 5.42201 14.8271 4.63802 16.2581 4.28027L16.3645 4.25879C16.615 4.22452 16.871 4.28664 17.0793 4.43457C17.3172 4.60365 17.4698 4.86855 17.4963 5.15918C17.6071 6.3767 17.9329 7.19164 18.2581 7.92676C18.5686 8.6287 19.0002 9.47452 19.0002 10.5C19.0001 14.6419 15.6422 17.9999 11.5002 18C7.35823 18 4.00043 14.642 4.00024 10.5C4.00024 8.43317 4.73583 6.9931 5.51978 5.69824C6.31003 4.39299 7.08503 3.31169 7.53833 1.72559C7.6176 1.44816 7.81342 1.21861 8.07446 1.0957ZM9.04224 3.46777C8.49537 4.78512 7.7834 5.8215 7.23071 6.73438C6.51478 7.91691 6.00024 8.97717 6.00024 10.5C6.00043 13.5374 8.4628 16 11.5002 16C14.5376 15.9999 17.0001 13.5373 17.0002 10.5C17.0002 9.99294 16.8067 9.58798 16.4299 8.73633C16.1797 8.17061 15.9021 7.4961 15.7073 6.62891C15.0438 6.99812 14.5451 7.50767 14.179 8.00195C13.912 8.36242 13.7241 8.70353 13.6047 8.95215C13.5454 9.07572 13.5043 9.17497 13.4788 9.23926C13.4662 9.27097 13.4572 9.29429 13.4524 9.30762C13.4509 9.31171 13.4492 9.31528 13.4485 9.31738L13.4475 9.31641C13.2922 9.78109 12.8238 10.0656 12.3401 9.9873C11.8561 9.90876 11.5004 9.4903 11.5002 9C11.5002 8.9993 11.5003 8.99807 11.5002 8.99707C11.5002 8.99131 11.4996 8.98058 11.4993 8.96582C11.4985 8.93582 11.4968 8.88764 11.4934 8.82422C11.4866 8.6968 11.4728 8.50651 11.4446 8.27148C11.3877 7.79888 11.2746 7.15467 11.05 6.4668C10.6928 5.37279 10.0816 4.24714 9.04224 3.46777Z" fill="#9E9E9E"/>
</g>
</svg>
