<svg width="24" height="24" viewBox="0 0 24 24" fill="none" xmlns="http://www.w3.org/2000/svg">
<g id="icons/Energy/fire">
<path id="Union" d="M9.16406 1.09668C9.51304 0.931142 9.92646 0.981226 10.2256 1.22559C11.1506 1.98117 12.9915 3.28485 14.335 5.25293C15.0396 6.28523 15.5982 7.61797 15.9746 8.68652C16.0228 8.82328 16.0645 8.95835 16.1074 9.08789C16.3329 8.70836 16.523 8.22174 16.5977 7.5957L16.6289 7.43848C16.7304 7.08382 17.0225 6.80826 17.3926 6.7334C17.8155 6.64806 18.2453 6.84397 18.459 7.21875C18.7581 7.74383 18.9636 8.10744 19.1631 8.56445C19.3587 9.01266 19.5423 9.5364 19.8262 10.3896C20.4397 12.2338 20.5 13.4499 20.5 14.5488C20.4999 19.3038 16.6548 23 12 23C7.37421 23 3.50007 19.4921 3.5 14.709C3.5 13.6527 3.6115 12.0109 4.41211 10.709C5.11915 9.55943 5.57345 9.18677 6.29004 8.38379C6.71396 7.9088 6.88085 7.74258 7.05371 7.51758C7.20478 7.32088 7.35807 7.07789 7.66016 6.50977C7.90338 6.05209 8.14194 5.29903 8.31934 4.42969C8.49416 3.57285 8.59276 2.68656 8.59277 2C8.59277 1.6138 8.81516 1.26224 9.16406 1.09668ZM10.4307 3.96582C10.3874 4.25497 10.3373 4.54498 10.2793 4.8291C10.0864 5.77466 9.80065 6.74419 9.42578 7.44922C9.10978 8.04352 8.8951 8.40398 8.64062 8.73535C8.40799 9.03823 8.13006 9.32608 7.78223 9.71582C6.9545 10.6433 6.69966 10.8066 6.11523 11.7568C5.62481 12.5547 5.50001 13.7092 5.5 14.709C5.50006 18.3019 8.39117 21 12 21C15.5798 21 18.4999 18.1699 18.5 14.5488C18.5 13.5916 18.4548 12.6028 17.9287 11.0215C17.8388 10.7513 17.758 10.5233 17.6895 10.3252C17.1033 11.2125 16.4244 11.673 16.2148 11.834C15.9129 12.066 15.5047 12.1068 15.1631 11.9385C14.8217 11.7701 14.6055 11.4217 14.6055 11.041C14.6055 11.1343 14.6211 11.1654 14.5908 11.0273C14.5702 10.9333 14.5371 10.7988 14.4912 10.6309C14.3997 10.2958 14.263 9.84779 14.0879 9.35059C13.7318 8.33971 13.2414 7.19954 12.6826 6.38086C12.0103 5.39601 11.1987 4.61693 10.4307 3.96582Z" fill="#9E9E9E"/>
</g>
</svg>
