<svg width="24" height="24" viewBox="0 0 24 24" fill="none" xmlns="http://www.w3.org/2000/svg">
<g id="icons/Energy/fruiter">
<path id="Union" d="M11 1C12.211 1 14.5324 1.15003 16.0264 3.41406C16.0747 3.48734 16.1727 3.5595 16.3027 3.58496C17.3565 3.79085 18.7539 4.38387 19.9014 5.40723C21.0619 6.44241 22.0051 7.96045 21.999 9.97266C22.0161 10.5999 21.9559 11.4436 21.5498 12.2988C21.1346 13.1732 20.3952 13.9809 19.1924 14.5801C19.125 14.6139 19.0019 14.7401 18.958 14.9834C18.8079 15.8171 18.3668 16.7489 17.4824 17.5127C16.7136 18.1765 15.6535 18.6747 14.2539 18.9072C14.5192 20.0071 14.9594 20.8825 15.3438 21.4141C15.5638 21.7185 15.5947 22.1206 15.4238 22.4551C15.2529 22.7895 14.9088 23 14.5332 23H8C7.64676 23 7.3197 22.8137 7.13965 22.5098C6.95972 22.2058 6.95335 21.8293 7.12305 21.5195C8.13813 19.6691 8.64451 18.1764 8.84668 16.9951C7.8355 16.9827 6.40157 16.9032 5.12402 16.3848C4.30635 16.0529 3.50743 15.5269 2.91797 14.6943C2.32531 13.8571 2.00003 12.7885 2 11.4707C2 10.44 2.34398 8.26993 4.39551 6.96289C4.48876 6.90344 4.54761 6.80704 4.56055 6.7168C4.70306 5.71939 5.1316 4.31069 6.12402 3.13086C7.14728 1.91443 8.7247 1 11 1ZM10.165 12.7002C10.4919 13.2367 10.7459 13.8912 10.8711 14.6689C11.1307 16.283 10.8336 18.3671 9.62207 21H12.8496C11.9586 18.9031 11.4421 15.685 13.0732 12.2852L10.165 12.7002ZM11 3C9.32995 3 8.30722 3.64184 7.6543 4.41797C6.97066 5.23071 6.64692 6.25137 6.54004 6.99902C6.44194 7.6861 6.03876 8.28689 5.46973 8.64941C4.24997 9.42658 4 10.7525 4 11.4707C4.00003 12.45 4.23736 13.0964 4.55078 13.5391C4.86756 13.9864 5.31875 14.3061 5.87598 14.5322C6.82661 14.918 7.9503 14.9823 8.89746 14.9941C8.8971 14.9919 8.89685 14.9896 8.89648 14.9873C8.68858 13.6949 8.00556 13.1018 7.58496 12.9102C7.18099 12.7259 6.94656 12.2969 7.00977 11.8574C7.07304 11.418 7.41889 11.0726 7.8584 11.0098L14.8584 10.0098C15.2552 9.95307 15.6478 10.1395 15.8555 10.4824C16.0629 10.8253 16.0456 11.2587 15.8115 11.584C14.4649 13.4554 14.0099 15.3077 14.0137 16.9189C15.0648 16.7316 15.7433 16.3725 16.1758 15.999C16.6872 15.5574 16.9139 15.048 16.9893 14.6299V14.6289C17.1129 13.9432 17.5227 13.1778 18.3008 12.79C19.1297 12.3772 19.5324 11.8842 19.7432 11.4404C19.9628 10.9777 20.0125 10.4852 20 10.0273C19.9997 10.0154 19.9999 10.0032 20 9.99121C20.0115 8.65948 19.4084 7.6469 18.5703 6.89941C17.712 6.13389 16.6492 5.69053 15.9189 5.54785C15.307 5.42816 14.7256 5.07351 14.3574 4.51562C13.4562 3.14978 12.0815 3 11 3Z" fill="#9E9E9E"/>
</g>
</svg>
