<svg width="24" height="24" viewBox="0 0 24 24" fill="none" xmlns="http://www.w3.org/2000/svg">
<g id="icons/Energy/green-new-energy">
<path id="Union" d="M11.2998 6.28613C11.6887 5.90493 12.3113 5.90493 12.7002 6.28613C14.4422 7.99391 15.6158 10.2796 15.9189 12.832C17.6608 11.6748 19.7523 11 22 11C22.5523 11 23 11.4477 23 12C23 18.0751 18.0751 23 12 23C5.92487 23 1 18.0751 1 12C1 11.4477 1.44772 11 2 11C4.24745 11 6.3384 11.6751 8.08008 12.832C8.38316 10.2796 9.55778 7.99394 11.2998 6.28613ZM3.06445 13.0645C3.54994 17.1837 6.8155 20.4486 10.9346 20.9346C10.8605 20.3059 10.7209 19.6974 10.5244 19.1152C10.4268 18.8268 10.3156 18.545 10.1904 18.2705C10.0152 17.8855 9.81264 17.5158 9.58691 17.1621C9.22406 16.5944 8.80171 16.0683 8.32422 15.5967C6.93542 14.2249 5.1047 13.3047 3.06445 13.0645ZM20.9346 13.0645C18.8947 13.3049 17.0644 14.2251 15.6758 15.5967C15.1271 16.1386 14.6493 16.7511 14.2539 17.418C14.0909 17.6931 13.942 17.9775 13.8086 18.2705C13.629 18.6644 13.4775 19.0733 13.3555 19.4951C13.2211 19.9606 13.1226 20.4414 13.0645 20.9346C17.1839 20.449 20.449 17.1839 20.9346 13.0645ZM12 8.48828C10.7498 10.0341 10 11.9991 10 14.1416C10 14.2475 10.0003 14.353 10.0039 14.458C10.0937 14.5533 10.1812 14.6506 10.2676 14.749C10.2842 14.7679 10.3009 14.7867 10.3174 14.8057C10.8872 15.464 11.3799 16.1903 11.7822 16.9717C11.7928 16.9923 11.804 17.0126 11.8145 17.0332C11.8788 17.1601 11.9405 17.2883 12 17.418C12.0594 17.2885 12.1203 17.1599 12.1846 17.0332C12.195 17.0126 12.2062 16.9923 12.2168 16.9717C12.5461 16.332 12.9366 15.7298 13.3799 15.1709C13.3977 15.1484 13.4156 15.1259 13.4336 15.1035C13.5149 15.0027 13.5979 14.9035 13.6826 14.8057C13.6991 14.7867 13.7158 14.7679 13.7324 14.749C13.8182 14.6513 13.904 14.5536 13.9932 14.459C13.9968 14.3537 14 14.2479 14 14.1416C14 11.9991 13.2502 10.0341 12 8.48828ZM12 1C16.5122 1.00002 20.3875 3.71677 22.084 7.59961C22.3051 8.10562 22.0743 8.69482 21.5684 8.91602C21.0623 9.13711 20.4731 8.90635 20.252 8.40039C18.8623 5.21969 15.689 3.00002 12 3C8.31097 3 5.13776 5.21967 3.74805 8.40039C3.52688 8.90638 2.93768 9.13711 2.43164 8.91602C1.92565 8.69485 1.69492 8.10565 1.91602 7.59961C3.61256 3.71678 7.48779 1 12 1Z" fill="#9E9E9E"/>
</g>
</svg>
