<svg width="24" height="24" viewBox="0 0 24 24" fill="none" xmlns="http://www.w3.org/2000/svg">
<g id="icons/Energy/leaf">
<path id="Union" d="M11.665 1.05762C11.9092 0.970816 12.1781 0.982636 12.4141 1.08984L12.418 1.0918C12.4198 1.09265 12.4222 1.09351 12.4248 1.09473C12.4301 1.09718 12.437 1.10055 12.4453 1.10449C12.4621 1.11239 12.4853 1.12278 12.5137 1.13672C12.5706 1.16462 12.6501 1.20521 12.749 1.25781C12.9469 1.36303 13.2232 1.5189 13.5518 1.72754C14.2075 2.14394 15.0809 2.77743 15.9561 3.64941C17.71 5.39712 19.5 8.13754 19.5 12C19.5 15.8625 17.71 18.6029 15.9561 20.3506C15.0809 21.2226 14.2075 21.8561 13.5518 22.2725C13.2232 22.4811 12.9469 22.637 12.749 22.7422C12.6501 22.7948 12.5705 22.8354 12.5137 22.8633C12.4853 22.8772 12.4621 22.8876 12.4453 22.8955C12.437 22.8995 12.4301 22.9028 12.4248 22.9053C12.4222 22.9065 12.4198 22.9074 12.418 22.9082L12.4141 22.9102C12.4097 22.9122 12.4048 22.9131 12.4004 22.915C12.3866 22.9211 12.3725 22.9262 12.3584 22.9316C12.3431 22.9375 12.3281 22.9441 12.3125 22.9492C12.2942 22.9552 12.2756 22.9599 12.2568 22.9648C12.2441 22.9682 12.2315 22.9717 12.2188 22.9746C12.1997 22.9789 12.1805 22.9822 12.1611 22.9854C12.1498 22.9872 12.1384 22.9888 12.127 22.9902C12.1069 22.9928 12.0868 22.9948 12.0664 22.9961C12.0511 22.9971 12.0359 22.9987 12.0205 22.999C12.0137 22.9992 12.0069 23 12 23C11.9931 23 11.9863 22.9992 11.9795 22.999C11.9593 22.9986 11.9391 22.9977 11.9189 22.9961C11.9045 22.9949 11.8902 22.993 11.876 22.9912C11.8557 22.9887 11.8356 22.9852 11.8154 22.9814C11.8056 22.9796 11.7959 22.9777 11.7861 22.9756C11.7665 22.9713 11.747 22.9664 11.7275 22.9609C11.7121 22.9566 11.6968 22.9523 11.6816 22.9473C11.6762 22.9454 11.6705 22.9443 11.665 22.9424V22.9404H11.6641V22.9414H11.6621L11.6602 22.9404C11.6581 22.9397 11.6552 22.9385 11.6523 22.9375C11.6466 22.9354 11.6387 22.933 11.6299 22.9297C11.6123 22.9231 11.5887 22.9139 11.5596 22.9023C11.5007 22.8791 11.4186 22.8453 11.3174 22.8008C11.1153 22.7118 10.8345 22.5779 10.501 22.3936C9.83484 22.0253 8.94914 21.4481 8.0625 20.6084C6.27392 18.9143 4.50001 16.1639 4.5 12C4.5 7.8361 6.27392 5.08566 8.0625 3.3916C8.94914 2.55185 9.83484 1.97475 10.501 1.60645C10.8345 1.42206 11.1153 1.28821 11.3174 1.19922C11.4186 1.15468 11.5007 1.12092 11.5596 1.09766C11.5887 1.08613 11.6123 1.07692 11.6299 1.07031C11.6387 1.067 11.6466 1.0646 11.6523 1.0625C11.6552 1.06145 11.6581 1.06032 11.6602 1.05957L11.6621 1.05859H11.6641C11.6662 1.06326 11.686 1.11862 11.9121 1.75391L11.665 1.05762ZM11.958 3.10645C11.8231 3.17016 11.6564 3.25215 11.4678 3.35645C10.9152 3.66196 10.1757 4.14367 9.4375 4.84277C7.97615 6.22685 6.5 8.47655 6.5 12C6.50001 15.5234 7.97615 17.7732 9.4375 19.1572C9.9827 19.6736 10.5292 20.0704 11 20.3662V14.9141L8.79297 12.707C8.40245 12.3165 8.40246 11.6835 8.79297 11.293C9.18349 10.9024 9.81651 10.9024 10.207 11.293L11 12.0859V7C11 6.44772 11.4477 6 12 6C12.5523 6 13 6.44772 13 7V9.08594L13.793 8.29297C14.1835 7.90244 14.8165 7.90244 15.207 8.29297C15.5975 8.68349 15.5975 9.31651 15.207 9.70703L13 11.9141V15.5859L13.793 14.793C14.1835 14.4024 14.8165 14.4024 15.207 14.793C15.5975 15.1835 15.5975 15.8165 15.207 16.207L13 18.4141V20.2324C13.4688 19.8994 14.0073 19.4692 14.5439 18.9346C16.0399 17.444 17.5 15.1842 17.5 12C17.5 8.81583 16.0399 6.55602 14.5439 5.06543C13.7943 4.31854 13.0424 3.77349 12.4795 3.41602C12.2773 3.28765 12.0999 3.18555 11.958 3.10645Z" fill="#9E9E9E"/>
</g>
</svg>
