<svg width="24" height="24" viewBox="0 0 24 24" fill="none" xmlns="http://www.w3.org/2000/svg">
<g id="icons/Energy/leaves">
<path id="Union" d="M7.60742 5.58008C8.1151 5.36342 8.70286 5.59904 8.91992 6.10645C8.92027 6.10726 8.92075 6.10972 8.92188 6.1123C8.9241 6.11743 8.92833 6.12579 8.93359 6.1377C8.94423 6.16174 8.96038 6.19986 8.9834 6.25C9.0296 6.35065 9.10077 6.50259 9.19727 6.69727C9.39034 7.08675 9.68448 7.6493 10.083 8.32812C10.6058 9.21868 11.3072 10.3043 12.1914 11.4609L12.5029 7.42285C12.5455 6.87242 13.0266 6.46058 13.5771 6.50293C14.1276 6.54551 14.5394 7.02664 14.4971 7.57715L14.0303 13.6396C15.6505 15.3838 17.7102 17.2161 19.4209 18.6494C20.3235 19.4057 21.1212 20.0449 21.6924 20.4951C21.9777 20.72 22.2064 20.8977 22.3633 21.0186C22.4417 21.0789 22.5024 21.1253 22.543 21.1562C22.5632 21.1717 22.5788 21.1837 22.5889 21.1914C22.5938 21.1951 22.5972 21.1984 22.5996 21.2002L22.6025 21.2021C23.0431 21.5351 23.1306 22.1619 22.7979 22.6025C22.4649 23.0431 21.8381 23.1306 21.3975 22.7979H21.3965L21.3926 22.7939C21.3896 22.7917 21.3845 22.7885 21.3789 22.7842C21.3677 22.7757 21.3513 22.7633 21.3301 22.7471C21.2871 22.7143 21.2237 22.666 21.1426 22.6035C20.9804 22.4786 20.7459 22.2964 20.4541 22.0664C19.8707 21.6066 19.0576 20.9542 18.1367 20.1826C16.3935 18.722 14.2392 16.8083 12.5254 14.957L7.90039 14.4951C7.3509 14.4401 6.94993 13.9499 7.00488 13.4004C7.05989 12.8509 7.5501 12.4499 8.09961 12.5049L10.6709 12.7617C9.69673 11.4965 8.92751 10.3102 8.3584 9.34082C7.9333 8.61675 7.61683 8.01176 7.40527 7.58496C7.2996 7.37177 7.22005 7.20268 7.16602 7.08496C7.139 7.0261 7.11878 6.97956 7.10449 6.94727C7.09736 6.93114 7.09187 6.91834 7.08789 6.90918C7.08596 6.90475 7.0842 6.9012 7.08301 6.89844C7.08241 6.89704 7.08146 6.89548 7.08105 6.89453V6.89355L7.08008 6.89258C6.86332 6.38465 7.0995 5.79688 7.60742 5.58008ZM3.9375 0.96875C5.14108 0.96875 6.79098 1.00076 8.57129 1.12793C10.3477 1.25482 12.276 1.47759 14.0293 1.86719C15.7578 2.25131 17.4265 2.82045 18.5996 3.7002C20.965 5.47423 21.7419 8.74341 21.9951 11.2754C22.1259 12.5831 22.1252 13.7872 22.0928 14.6621C22.0765 15.1006 22.0528 15.4597 22.0322 15.7109C22.0219 15.8364 22.0118 15.9352 22.0049 16.0039C22.0014 16.0381 21.9991 16.0651 21.9971 16.084C21.996 16.0933 21.9948 16.101 21.9941 16.1064C21.9938 16.1092 21.9934 16.1116 21.9932 16.1133V16.1162C21.9931 16.1165 21.9932 16.1168 21 16L21.9932 16.1172C21.9285 16.6655 21.4312 17.0577 20.8828 16.9932C20.3345 16.9285 19.9423 16.4312 20.0068 15.8828V15.8809C20.0071 15.8782 20.0081 15.8736 20.0088 15.8672C20.0103 15.8538 20.0128 15.8322 20.0156 15.8037C20.0214 15.7465 20.0289 15.6595 20.0381 15.5469C20.0565 15.3216 20.0797 14.9929 20.0947 14.5879C20.1248 13.7753 20.1241 12.6668 20.0049 11.4746C19.7581 9.00668 19.0349 6.52579 17.4004 5.2998C16.5735 4.67964 15.242 4.18617 13.5957 3.82031C11.9741 3.45995 10.1522 3.24518 8.42871 3.12207C6.70905 2.99924 5.1089 2.96875 3.9375 2.96875C3.59025 2.96875 3.28123 2.97178 3.01855 2.97559C3.02643 3.23746 3.03777 3.54556 3.05371 3.8916C3.10758 5.06132 3.21507 6.65906 3.42969 8.37598C3.64477 10.0966 3.96469 11.9144 4.43652 13.5322C4.91448 15.1709 5.52105 16.5054 6.25293 17.3418C7.78951 19.0977 10.0308 19.9102 11.9912 20.2666C12.9597 20.4427 13.8281 20.5009 14.4531 20.5156C14.7648 20.523 15.0145 20.52 15.1826 20.5146C15.2664 20.512 15.3302 20.5081 15.3711 20.5059C15.3914 20.5047 15.4062 20.5045 15.415 20.5039C15.4187 20.5037 15.4213 20.503 15.4229 20.5029C15.9734 20.4606 16.4545 20.8724 16.4971 21.4229C16.5394 21.9734 16.1276 22.4545 15.5771 22.4971L15.5 21.5C15.5737 22.4582 15.5764 22.4956 15.5762 22.4971H15.5732C15.5716 22.4972 15.5688 22.4979 15.5664 22.498C15.5617 22.4984 15.5554 22.4985 15.5479 22.499C15.5319 22.5001 15.5094 22.5014 15.4814 22.5029C15.4255 22.506 15.3456 22.5095 15.2451 22.5127C15.0442 22.5191 14.7583 22.5239 14.4062 22.5156C13.7032 22.4991 12.7277 22.4323 11.6338 22.2334C9.46934 21.8399 6.71046 20.9021 4.74707 18.6582C3.72916 17.4947 3.02297 15.8288 2.5166 14.0928C2.0041 12.3356 1.66772 10.4033 1.44531 8.62402C1.22243 6.84099 1.11117 5.18867 1.05566 3.9834C1.02789 3.38023 1.01382 2.88733 1.00684 2.54395C1.00334 2.3723 1.00186 2.23774 1.00098 2.14551C1.00053 2.09938 1.00011 2.06349 1 2.03906V2C1 1.46403 1.42255 1.02348 1.95801 1.00098L2 2L1.95898 1.00098H1.96191C1.96361 1.00091 1.96588 1.00011 1.96875 1C1.97523 0.999744 1.98496 0.999477 1.99707 0.999023C2.0213 0.998117 2.05671 0.997605 2.10254 0.996094C2.19442 0.993065 2.3287 0.988359 2.5 0.984375C2.8427 0.976405 3.33507 0.96875 3.9375 0.96875Z" fill="#9E9E9E"/>
</g>
</svg>
