<svg width="24" height="24" viewBox="0 0 24 24" fill="none" xmlns="http://www.w3.org/2000/svg">
<g id="icons/Energy/leaves-two">
<path id="Union" d="M20.3037 1.7832C20.5919 1.50321 21.0195 1.42266 21.3896 1.5791C21.7595 1.73566 22 2.09833 22 2.5C22 6.33338 21.5142 9.36068 20.874 11.6123C20.2413 13.8375 19.4393 15.3691 18.7549 16.1562C16.0676 19.2466 13.1436 20.1757 10.6641 19.9316C8.9805 19.7658 7.50098 19.0471 6.5293 18.1406C4.87452 19.2086 4.13235 20.9595 3.97949 21.7012C3.86803 22.2418 3.33951 22.5905 2.79883 22.4795C2.25817 22.3681 1.90962 21.8395 2.02051 21.2988C2.24587 20.2042 3.20338 17.9273 5.39355 16.4912C4.28992 13.9909 4.54061 11.926 5.66602 10.3633C6.79328 8.79809 8.66087 7.93345 10.2549 7.53027C12.2138 7.03476 14.3245 5.99612 16.1729 4.8584C18.0202 3.72128 19.5352 2.5299 20.3037 1.7832ZM19.9404 4.69824C19.1561 5.29605 18.2289 5.94091 17.2207 6.56152C15.2841 7.75357 12.9783 8.90486 10.7451 9.46973C9.37423 9.81651 8.02736 10.5071 7.28906 11.5322C6.61621 12.4666 6.31111 13.8719 7.39551 16.0557C7.72521 16.7188 8.99989 17.7573 10.8604 17.9404C12.6225 18.1139 14.9326 17.503 17.2451 14.8438C17.6599 14.3667 18.3578 13.1477 18.9502 11.0645C19.4124 9.43875 19.7984 7.32332 19.9404 4.69824Z" fill="#9E9E9E"/>
</g>
</svg>
