<svg width="24" height="24" viewBox="0 0 24 24" fill="none" xmlns="http://www.w3.org/2000/svg">
<g id="icons/Energy/leaves-one">
<path id="Union" d="M12 1C12.0525 1 12.104 1.00489 12.1543 1.0127C12.1696 1.01509 12.1851 1.01644 12.2002 1.01953C12.3554 1.05106 12.4971 1.11949 12.6172 1.21387C12.6502 1.23982 12.6821 1.26761 12.7119 1.29785L12.7334 1.31934C12.7467 1.33291 12.7662 1.3533 12.791 1.37891C12.8407 1.43012 12.9128 1.50486 13.0039 1.60059C13.1861 1.79211 13.4456 2.06784 13.7559 2.40918C14.3757 3.09106 15.2046 4.03925 16.0361 5.09668C16.8646 6.1502 17.7125 7.33405 18.3574 8.48633C18.9828 9.60377 19.5 10.833 19.5 11.9395C19.5 13.9214 18.6438 15.6865 17.2783 16.9561C17.1077 17.1147 16.929 17.2656 16.7432 17.4082C15.6886 18.2175 14.3995 18.7577 13 18.9346V22C13 22.5523 12.5523 23 12 23C11.4477 23 11 22.5523 11 22V18.9346C9.6005 18.7577 8.31141 18.2175 7.25684 17.4082C7.07096 17.2656 6.89232 17.1147 6.72168 16.9561C5.35619 15.6865 4.50002 13.9214 4.5 11.9395C4.5 10.833 5.01718 9.60377 5.64258 8.48633C6.28753 7.33405 7.13542 6.1502 7.96387 5.09668C8.7954 4.03925 9.62425 3.09106 10.2441 2.40918C10.5544 2.06784 10.8139 1.79211 10.9961 1.60059C11.0872 1.50486 11.1593 1.43012 11.209 1.37891C11.2338 1.3533 11.2533 1.33291 11.2666 1.31934L11.2881 1.29785C11.3177 1.26779 11.349 1.23969 11.3818 1.21387C11.5018 1.11944 11.6437 1.05119 11.7988 1.01953C11.814 1.01643 11.8294 1.0151 11.8447 1.0127C11.8954 1.0048 11.9471 1 12 1ZM11 4.57031C10.5453 5.09222 10.0398 5.69245 9.53613 6.33301C8.7397 7.34581 7.96239 8.43789 7.38867 9.46289C6.79546 10.5227 6.5 11.3725 6.5 11.9395C6.50003 14.368 8.3959 16.4781 11 16.915V4.57031ZM13 16.915C15.6041 16.4781 17.5 14.368 17.5 11.9395C17.5 11.3725 17.2045 10.5227 16.6113 9.46289C16.0376 8.43789 15.2603 7.34581 14.4639 6.33301C13.9602 5.69245 13.4547 5.09222 13 4.57031V16.915Z" fill="#9E9E9E"/>
</g>
</svg>
