<svg width="24" height="24" viewBox="0 0 24 24" fill="none" xmlns="http://www.w3.org/2000/svg">
<g id="icons/Energy/lifebuoy">
<path id="Union" d="M4.22144 4.22168C8.51718 -0.0740328 15.4823 -0.0739427 19.7781 4.22168C24.0738 8.51747 24.0738 15.4825 19.7781 19.7783C15.4823 24.0741 8.51723 24.0741 4.22144 19.7783C-0.0741868 15.4825 -0.0742769 8.51743 4.22144 4.22168ZM6.38159 19.0303C9.65757 21.6549 14.3406 21.6552 17.6169 19.0312L16.1921 17.6064C16.1743 17.6198 16.1573 17.6343 16.1394 17.6475C15.006 18.4804 13.6782 18.9281 12.3357 18.9922C12.1119 19.0029 11.8877 19.0029 11.6638 18.9922C10.3213 18.9281 8.99347 18.4804 7.86011 17.6475C7.84181 17.634 7.82459 17.6191 7.8064 17.6055L6.38159 19.0303ZM17.6052 7.80664C17.6189 7.82483 17.6338 7.84206 17.6472 7.86035C19.4519 10.3161 19.4519 13.6839 17.6472 16.1396C17.634 16.1576 17.6196 16.1746 17.6062 16.1924L19.031 17.6172C21.6548 14.341 21.6552 9.65779 19.031 6.38184L17.6052 7.80664ZM4.96753 6.38281C2.34459 9.6583 2.345 14.3405 4.96753 17.6162L6.39233 16.1914C6.37936 16.1741 6.36606 16.1571 6.35327 16.1396C4.54831 13.6837 4.54822 10.3162 6.35327 7.86035C6.36618 7.84279 6.38022 7.82606 6.39331 7.80859L4.96753 6.38281ZM11.7605 7.00586C10.562 7.06297 9.38 7.54944 8.4646 8.46484C6.51202 10.4174 6.51212 13.5825 8.4646 15.5352C9.38 16.4506 10.562 16.937 11.7605 16.9941C11.9202 17.0018 12.0803 17.0018 12.24 16.9941C13.4382 16.9369 14.6197 16.4504 15.5349 15.5352C17.4875 13.5825 17.4875 10.4175 15.5349 8.46484C14.6197 7.54971 13.4382 7.06312 12.24 7.00586C12.0803 6.99823 11.9202 6.99825 11.7605 7.00586ZM17.6169 4.96777C14.3409 2.34448 9.65733 2.34479 6.38159 4.96875L7.8064 6.39355C7.82428 6.38015 7.84213 6.36673 7.86011 6.35352C8.99355 5.52044 10.3212 5.07193 11.6638 5.00781C11.8876 4.99712 12.1119 4.99713 12.3357 5.00781C13.6783 5.07188 15.0059 5.52047 16.1394 6.35352C16.157 6.36642 16.1737 6.38046 16.1912 6.39355L17.6169 4.96777Z" fill="#9E9E9E"/>
</g>
</svg>
