<svg width="24" height="24" viewBox="0 0 24 24" fill="none" xmlns="http://www.w3.org/2000/svg">
<g id="icons/Energy/lotus">
<path id="Union" d="M11.4771 2.14746C11.8973 1.88934 12.451 1.97612 12.7711 2.36426C13.1401 2.81236 13.7425 3.61041 14.2877 4.56836C14.5416 5.01466 14.7919 5.51371 15.0015 6.04102C17.0229 3.67778 19.4209 2.43652 21.2173 2.02539L21.315 2.00781C21.5451 1.97881 21.7797 2.03071 21.9771 2.15625C22.2028 2.30007 22.3615 2.52938 22.4175 2.79102C23.8227 9.35235 22.5266 13.9793 20.1841 17.0762C17.8691 20.1366 14.6196 21.5857 12.2925 21.9854C12.1947 22.0021 12.0961 22.0033 11.9996 21.9912C11.9032 22.0032 11.8043 22.0021 11.7066 21.9854C9.37953 21.5856 6.12992 20.1366 3.815 17.0762C1.47268 13.9793 0.176472 9.35215 1.5816 2.79102C1.63763 2.52943 1.7965 2.30011 2.02203 2.15625C2.24742 2.01278 2.52132 1.96599 2.7818 2.02539C4.55254 2.43053 6.90768 3.64262 8.91071 5.94043C9.30424 4.69401 10.0405 3.23126 11.3951 2.20312L11.4771 2.14746ZM3.32867 4.28906C2.38496 9.78038 3.5929 13.4657 5.41071 15.8691C7.02548 18.0039 9.18458 19.2091 10.9615 19.752C11.4774 9.79922 6.4993 5.54292 3.32867 4.28906ZM20.6695 4.28906C17.4988 5.54352 12.5209 9.80057 13.0367 19.752C14.8138 19.2093 16.9733 18.0043 18.5884 15.8691C20.4064 13.4657 21.6133 9.78068 20.6695 4.28906ZM11.8795 4.50195C10.9099 5.68787 10.5706 7.27263 10.4957 8.09082C10.4944 8.10497 10.4917 8.11886 10.4898 8.13281C11.0751 9.12233 11.5908 10.2444 11.9996 11.5107C12.4082 10.2448 12.9242 9.1231 13.5093 8.13379C13.5086 8.12827 13.5071 8.12274 13.5064 8.11719C13.4114 7.31016 13.0314 6.40362 12.5494 5.55664C12.3296 5.17055 12.0964 4.81328 11.8795 4.50195Z" fill="#9E9E9E"/>
</g>
</svg>
