<svg width="24" height="24" viewBox="0 0 24 24" fill="none" xmlns="http://www.w3.org/2000/svg">
<g id="icons/Energy/outdoor">
<path id="Union" d="M9.00903 4C9.40934 4.00363 9.76904 4.24574 9.9231 4.61523L13.8958 14.1504L15.052 10.6836L15.1067 10.5498C15.2575 10.2505 15.5513 10.0432 15.8909 10.0059C16.2789 9.96336 16.6568 10.1506 16.8577 10.4854L22.8577 20.4854C23.0429 20.7942 23.0478 21.1797 22.8704 21.4932C22.6928 21.8064 22.3603 21.9999 22.0002 22H2.00024C1.66281 22 1.34806 21.8292 1.16333 21.5469C0.97887 21.2646 0.94917 20.9086 1.08423 20.5996L8.08423 4.59961L8.15356 4.46777C8.33627 4.17705 8.65873 3.99692 9.00903 4ZM3.52856 20H20.2336L16.261 13.3779L14.9485 17.3164C14.8166 17.7118 14.4529 17.9837 14.0364 17.999C13.6199 18.0141 13.2378 17.7694 13.0774 17.3848L8.97681 7.54492L3.52856 20ZM18.5002 1C20.4331 1.00013 22.0002 2.56709 22.0002 4.5C22.0002 6.4329 20.4331 7.99987 18.5002 8C16.5673 8 15.0002 6.43298 15.0002 4.5C15.0002 2.567 16.5673 1 18.5002 1ZM18.5002 3C17.6718 3 17.0002 3.67158 17.0002 4.5C17.0002 5.32842 17.6718 6 18.5002 6C19.3285 5.99987 20.0002 5.32833 20.0002 4.5C20.0002 3.67166 19.3285 3.00013 18.5002 3Z" fill="#9E9E9E"/>
</g>
</svg>
