<svg width="24" height="24" viewBox="0 0 24 24" fill="none" xmlns="http://www.w3.org/2000/svg">
<g id="icons/Energy/pinwheel">
<path id="Union" d="M18.6328 12.5088C18.939 12.5498 19.2123 12.7314 19.3682 13.0039C19.546 13.3151 19.5439 13.6978 19.3623 14.0068L14.3623 22.5068C14.1336 22.8956 13.6725 23.0833 13.2373 22.9648C12.8021 22.8463 12.5 22.4511 12.5 22V13.5C12.5 12.9477 12.9477 12.5 13.5 12.5H18.5L18.6328 12.5088ZM10.5 12.5C11.0523 12.5 11.5 12.9477 11.5 13.5V18.5C11.5 18.8587 11.3075 19.1901 10.9961 19.3682C10.6849 19.546 10.3022 19.5439 9.99316 19.3623L1.49316 14.3623C1.10439 14.1336 0.91666 13.6725 1.03516 13.2373C1.15368 12.8021 1.54893 12.5 2 12.5H10.5ZM14.5 18.3271L16.751 14.5H14.5V18.3271ZM9.5 16.751V14.5H5.67285L9.5 16.751ZM9.6377 1.49316C9.8664 1.10438 10.3275 0.916684 10.7627 1.03516C11.1979 1.15367 11.5 1.54892 11.5 2V10.5C11.5 11.0523 11.0523 11.5 10.5 11.5H5.5C5.1413 11.5 4.80992 11.3075 4.63184 10.9961C4.45402 10.6849 4.45607 10.3022 4.6377 9.99316L9.6377 1.49316ZM13.0039 4.63184C13.3151 4.454 13.6978 4.45609 14.0068 4.6377L22.5068 9.6377C22.8956 9.8664 23.0833 10.3275 22.9648 10.7627C22.8463 11.1979 22.4511 11.5 22 11.5H13.5C12.9477 11.5 12.5 11.0523 12.5 10.5V5.5L12.5088 5.36719C12.5498 5.06099 12.7314 4.7877 13.0039 4.63184ZM7.24902 9.5H9.5V5.67188L7.24902 9.5ZM14.5 9.5H18.3271L14.5 7.24805V9.5Z" fill="#9E9E9E"/>
</g>
</svg>
