<svg width="24" height="24" viewBox="0 0 24 24" fill="none" xmlns="http://www.w3.org/2000/svg">
<g id="icons/Energy/ripple">
<path id="Union" d="M6.99988 15.5C9.08392 15.5 10.8715 16.3611 12.4266 17.0957C14.047 17.8611 15.4353 18.5 16.9999 18.5C18.0684 18.5 19.1831 18.1745 20.0663 17.8213C20.5001 17.6477 20.862 17.4739 21.1132 17.3447C21.2382 17.2804 21.3355 17.2281 21.3993 17.1924C21.4308 17.1747 21.454 17.1608 21.4686 17.1523C21.4758 17.1482 21.4815 17.1452 21.4843 17.1436C21.4853 17.1429 21.4859 17.1419 21.4862 17.1416C21.9596 16.8583 22.5733 17.0123 22.8573 17.4854C23.1414 17.9589 22.988 18.5732 22.5145 18.8574H22.5135V18.8584H22.5126C22.5118 18.8589 22.5107 18.8597 22.5096 18.8604C22.5074 18.8617 22.5042 18.8632 22.5009 18.8652C22.494 18.8693 22.485 18.8752 22.4735 18.8818C22.4503 18.8953 22.4171 18.9134 22.3759 18.9365C22.2932 18.9828 22.1753 19.0479 22.0272 19.124C21.7316 19.2761 21.3117 19.4774 20.8085 19.6787C19.8167 20.0754 18.4311 20.5 16.9999 20.5C14.9158 20.5 13.1282 19.6389 11.5731 18.9043C9.95276 18.1389 8.56443 17.5 6.99988 17.5C5.93138 17.5 4.81662 17.8255 3.93347 18.1787C3.49964 18.3523 3.13772 18.5261 2.8866 18.6553C2.76153 18.7196 2.66423 18.7719 2.60046 18.8076C2.56895 18.8253 2.54576 18.8392 2.53113 18.8477C2.52394 18.8518 2.51826 18.8548 2.5155 18.8564C2.51442 18.8571 2.51388 18.8582 2.51355 18.8584V18.8574C2.04011 19.141 1.42651 18.9879 1.14246 18.5146C0.858388 18.0411 1.01184 17.4268 1.48523 17.1426H1.48621V17.1416H1.48718C1.48795 17.1411 1.48906 17.1403 1.49011 17.1396C1.49231 17.1383 1.4955 17.1368 1.4989 17.1348C1.50573 17.1307 1.51475 17.1248 1.52625 17.1182C1.54945 17.1047 1.5826 17.0866 1.6239 17.0635C1.70652 17.0172 1.82447 16.9521 1.97253 16.876C2.26816 16.724 2.68807 16.5226 3.19128 16.3213C4.18306 15.9246 5.56861 15.5 6.99988 15.5ZM6.99988 9.5C9.08392 9.5 10.8715 10.3611 12.4266 11.0957C14.047 11.8611 15.4353 12.5 16.9999 12.5C18.0684 12.5 19.1831 12.1745 20.0663 11.8213C20.5001 11.6477 20.862 11.4739 21.1132 11.3447C21.2382 11.2804 21.3355 11.2281 21.3993 11.1924C21.4308 11.1747 21.454 11.1608 21.4686 11.1523C21.4758 11.1482 21.4815 11.1452 21.4843 11.1436C21.4853 11.1429 21.4859 11.1419 21.4862 11.1416C21.9596 10.8583 22.5733 11.0123 22.8573 11.4854C23.1414 11.9589 22.988 12.5732 22.5145 12.8574H22.5135V12.8584H22.5126C22.5118 12.8589 22.5107 12.8597 22.5096 12.8604C22.5074 12.8617 22.5042 12.8632 22.5009 12.8652C22.494 12.8693 22.485 12.8752 22.4735 12.8818C22.4503 12.8953 22.4171 12.9134 22.3759 12.9365C22.2932 12.9828 22.1753 13.0479 22.0272 13.124C21.7316 13.2761 21.3117 13.4774 20.8085 13.6787C19.8167 14.0754 18.4311 14.5 16.9999 14.5C14.9158 14.5 13.1282 13.6389 11.5731 12.9043C9.95276 12.1389 8.56443 11.5 6.99988 11.5C5.93138 11.5 4.81662 11.8255 3.93347 12.1787C3.49964 12.3523 3.13772 12.5261 2.8866 12.6553C2.76153 12.7196 2.66423 12.7719 2.60046 12.8076C2.56895 12.8253 2.54576 12.8392 2.53113 12.8477C2.52394 12.8518 2.51826 12.8548 2.5155 12.8564C2.51442 12.8571 2.51388 12.8582 2.51355 12.8584V12.8574C2.04011 13.141 1.42651 12.9879 1.14246 12.5146C0.858388 12.0411 1.01184 11.4268 1.48523 11.1426H1.48621V11.1416H1.48718C1.48795 11.1411 1.48906 11.1403 1.49011 11.1396C1.49231 11.1383 1.4955 11.1368 1.4989 11.1348C1.50573 11.1307 1.51475 11.1248 1.52625 11.1182C1.54945 11.1047 1.5826 11.0866 1.6239 11.0635C1.70652 11.0172 1.82447 10.9521 1.97253 10.876C2.26816 10.724 2.68807 10.5226 3.19128 10.3213C4.18306 9.92461 5.56861 9.50002 6.99988 9.5ZM6.99988 3.5C9.08392 3.5 10.8715 4.36114 12.4266 5.0957C14.047 5.86108 15.4353 6.49997 16.9999 6.5C18.0684 6.5 19.1831 6.17455 20.0663 5.82129C20.5001 5.64775 20.862 5.47388 21.1132 5.34473C21.2382 5.28041 21.3355 5.2281 21.3993 5.19238C21.4308 5.17474 21.454 5.16085 21.4686 5.15234C21.4758 5.14819 21.4815 5.1452 21.4843 5.14355C21.4853 5.14293 21.4859 5.14189 21.4862 5.1416C21.9596 4.85831 22.5733 5.01225 22.8573 5.48535C23.1414 5.95888 22.988 6.57324 22.5145 6.85742H22.5135V6.8584H22.5126C22.5118 6.85888 22.5107 6.85973 22.5096 6.86035C22.5074 6.86166 22.5042 6.86323 22.5009 6.86523C22.494 6.86927 22.485 6.87516 22.4735 6.88184C22.4503 6.89532 22.4171 6.9134 22.3759 6.93652C22.2932 6.98279 22.1753 7.04788 22.0272 7.12402C21.7316 7.27605 21.3117 7.47743 20.8085 7.67871C19.8167 8.07539 18.4311 8.5 16.9999 8.5C14.9158 8.49997 13.1282 7.63885 11.5731 6.9043C9.95276 6.13892 8.56443 5.5 6.99988 5.5C5.93138 5.50002 4.81662 5.82545 3.93347 6.17871C3.49964 6.35226 3.13772 6.52612 2.8866 6.65527C2.76153 6.7196 2.66423 6.77191 2.60046 6.80762C2.56895 6.82527 2.54576 6.83916 2.53113 6.84766C2.52394 6.85183 2.51826 6.85482 2.5155 6.85645C2.51442 6.85712 2.51388 6.8582 2.51355 6.8584V6.85742C2.04011 7.14101 1.42651 6.9879 1.14246 6.51465C0.858388 6.04115 1.01184 5.42678 1.48523 5.14258H1.48621V5.1416H1.48718C1.48795 5.14114 1.48906 5.14029 1.49011 5.13965C1.49231 5.13834 1.4955 5.13677 1.4989 5.13477C1.50573 5.13073 1.51475 5.12484 1.52625 5.11816C1.54945 5.10469 1.5826 5.08661 1.6239 5.06348C1.70652 5.01721 1.82447 4.95213 1.97253 4.87598C2.26816 4.72395 2.68807 4.52258 3.19128 4.32129C4.18306 3.92461 5.56861 3.50002 6.99988 3.5Z" fill="#9E9E9E"/>
</g>
</svg>
