<svg width="24" height="24" viewBox="0 0 24 24" fill="none" xmlns="http://www.w3.org/2000/svg">
<g id="icons/Energy/sapling">
<path id="Union" d="M19.863 1.00781C19.9296 1.01079 19.9833 1.01407 20.0212 1.0166C20.0401 1.01786 20.0559 1.01867 20.0671 1.01953C20.0725 1.01994 20.0773 1.02116 20.0808 1.02148H20.0886C20.5742 1.06364 20.9587 1.45075 20.9988 1.93652V1.93945C20.9989 1.94065 20.9996 1.94269 20.9998 1.94434C21 1.94782 21.0004 1.95274 21.0007 1.95801C21.0015 1.96912 21.0025 1.98434 21.0037 2.00293C21.006 2.04067 21.0088 2.09383 21.0115 2.16016C21.0168 2.2931 21.0209 2.48186 21.0183 2.71289C21.0132 3.17364 20.9799 3.81362 20.8669 4.53516C20.6451 5.95263 20.0955 7.81927 18.7068 9.20801C17.3191 10.5957 15.4538 11.1493 14.0369 11.375C13.4542 11.4678 12.9246 11.5076 12.4998 11.5234V14.293C12.5319 14.7359 12.5324 15.1273 12.5232 15.4297C12.518 15.601 12.5081 15.7456 12.4998 15.8564V22C12.4998 22.5523 12.052 23 11.4998 23C10.9476 22.9999 10.4998 22.5522 10.4998 22V17.0273C10.1664 17.024 9.77382 17.0063 9.34937 16.957C8.13279 16.8159 6.49147 16.404 5.2937 15.208C4.09516 14.0111 3.68303 12.3684 3.54272 11.1514C3.47076 10.5267 3.46496 9.97111 3.47729 9.57129C3.48349 9.37084 3.49415 9.20696 3.50366 9.09082C3.50842 9.03277 3.5129 8.98549 3.51636 8.95215C3.51807 8.93567 3.52011 8.92206 3.52124 8.91211C3.52178 8.90724 3.52183 8.90264 3.52222 8.89941C3.52243 8.898 3.52306 8.89658 3.52319 8.89551V8.89355C3.52349 8.89327 3.53976 8.89487 4.51636 9.01562L3.52319 8.89258C3.57959 8.43734 3.93898 8.07834 4.39429 8.02246L4.51636 9.01562L4.39526 8.02246H4.39722C4.39829 8.02233 4.39971 8.02169 4.40112 8.02148C4.40433 8.02111 4.40898 8.02104 4.41382 8.02051C4.42376 8.01939 4.4374 8.01732 4.45386 8.01562C4.48708 8.01221 4.53377 8.00858 4.59155 8.00391C4.70755 7.99453 4.87163 7.98353 5.07202 7.97754C5.47148 7.96561 6.02686 7.97154 6.65112 8.04395C7.79881 8.17712 9.3249 8.55205 10.4998 9.59863V2C10.4999 1.44791 10.9477 1.00012 11.4998 1C12.052 1 12.4996 1.44783 12.4998 2V3.6084C12.5931 3.50125 12.6895 3.39522 12.7917 3.29297C14.1824 1.90237 16.057 1.35795 17.4792 1.1416C18.2036 1.03145 18.8467 1.00109 19.3093 0.998047C19.5409 0.996535 19.7296 1.00186 19.863 1.00781Z" fill="#9E9E9E"/>
</g>
</svg>
