<svg width="24" height="24" viewBox="0 0 24 24" fill="none" xmlns="http://www.w3.org/2000/svg">
<g id="icons/Energy/seedling">
<path id="Union" d="M4.073 2.03906L4.53979 2.08203C8.4294 2.50075 10.8702 4.46808 12.1394 6.24316C14.1858 3.45009 17.55 3.06925 19.9763 3.01172C21.0973 2.98516 22.037 3.9132 21.9685 5.06445C21.7614 8.54223 20.5284 10.9554 18.7898 12.5371C17.0708 14.1009 14.9506 14.7685 13.0945 14.9482H13.0935C13.0621 14.9513 13.0307 14.9496 12.9998 14.9512V21.001C12.9998 21.5533 12.552 22.001 11.9998 22.001C11.4476 22.0009 10.9998 21.5532 10.9998 21.001V13.9268C10.9515 13.9254 10.9024 13.9258 10.8533 13.9209C6.97496 13.5304 4.6865 12.0241 3.41772 9.99023C2.192 8.02524 2.03044 5.73338 2.00464 4.01465C1.98931 2.98034 2.791 2.07371 3.8562 2.03516L4.073 2.03906ZM19.9666 5.0127C17.1575 5.08539 14.2452 5.61642 12.9998 8.82129V12.9453C14.5232 12.7816 16.1536 12.2316 17.4441 11.0576C18.7333 9.88472 19.7744 8.00749 19.9666 5.0127ZM4.00562 4.04102C4.03376 5.70022 4.21066 7.48187 5.11499 8.93164C5.98199 10.3213 7.63043 11.5732 10.9998 11.9238V8.21582C10.3082 6.77885 8.19356 4.37645 4.00562 4.04102Z" fill="#9E9E9E"/>
</g>
</svg>
