<svg width="24" height="24" viewBox="0 0 24 24" fill="none" xmlns="http://www.w3.org/2000/svg">
<g id="icons/Energy/tree">
<path id="Union" d="M12 1C15.0963 1 17.6845 3.16467 18.3389 6.06348C20.9783 6.46739 23 8.74762 23 11.5C23 14.5376 20.5376 17 17.5 17H13V22C13 22.5523 12.5523 23 12 23C11.4477 23 11 22.5523 11 22V17H6.5C3.46244 17 1 14.5376 1 11.5C1 8.74796 3.02121 6.4678 5.66016 6.06348C6.31447 3.16456 8.90367 1 12 1ZM12 3C9.65319 3 7.72517 4.79732 7.51855 7.08984C7.47207 7.6052 7.03991 7.99997 6.52246 8H6.5C4.567 8 3 9.56699 3 11.5C3 13.433 4.567 15 6.5 15H11V12.9141L8.29297 10.207C7.90244 9.81651 7.90244 9.18349 8.29297 8.79297C8.68349 8.40244 9.31651 8.40244 9.70703 8.79297L11 10.0859V9C11 8.44772 11.4477 8 12 8C12.5523 8 13 8.44772 13 9V11.585L13.793 10.793C14.1835 10.4024 14.8165 10.4024 15.207 10.793C15.5976 11.1835 15.5976 11.8165 15.207 12.207L13 14.4141V15H17.5C19.433 15 21 13.433 21 11.5C21 9.56699 19.433 8 17.5 8H17.4775C16.9601 7.99997 16.5279 7.6052 16.4814 7.08984C16.2748 4.79732 14.3468 3 12 3Z" fill="#9E9E9E"/>
</g>
</svg>
