<svg width="24" height="24" viewBox="0 0 24 24" fill="none" xmlns="http://www.w3.org/2000/svg">
<g id="icons/Energy/tree-two">
<path id="Union" d="M12 7C12.5523 7 13 7.44772 13 8V22C13 22.5523 12.5523 23 12 23C11.4477 23 11 22.5523 11 22V8C11 7.44772 11.4477 7 12 7ZM6.05957 5.60254C6.5142 5.37875 7.07315 5.53092 7.34766 5.96973C7.64006 6.43757 7.4984 7.05359 7.03125 7.34668H7.0332C7.03233 7.34723 7.02957 7.34883 7.02539 7.35156C7.01682 7.35717 7.00113 7.36665 6.98047 7.38086C6.93897 7.40939 6.87564 7.45469 6.79785 7.51465C6.64072 7.63578 6.43326 7.81176 6.22852 8.0293C5.7939 8.49107 5.5 9.0037 5.5 9.5C5.5 10.0902 5.75664 10.6389 6.06738 11.0791C6.21852 11.2932 6.37002 11.4646 6.48242 11.5801C6.53813 11.6373 6.58295 11.68 6.61133 11.7061L6.64062 11.7314L6.71582 11.8008C7.07043 12.1629 7.10003 12.7429 6.76855 13.1406C6.45889 13.5121 5.93643 13.6017 5.52637 13.3809C5.25654 13.7508 5 14.286 5 15C5 15.877 5.74082 16.6272 6.94727 17.2305C7.50498 17.5093 8.07215 17.7087 8.50586 17.8389C8.72096 17.9034 8.89951 17.9499 9.02148 17.9795C9.08221 17.9942 9.12922 18.0051 9.15918 18.0117C9.17362 18.0149 9.18412 18.0172 9.19043 18.0186C9.1936 18.0192 9.19638 18.0194 9.19727 18.0195H9.19629L9.29492 18.0449C9.77951 18.1939 10.082 18.6885 9.98047 19.1963C9.87885 19.7039 9.40969 20.0437 8.90527 19.9951L8.80371 19.9805H8.80273L8.80078 19.9795C8.79945 19.9792 8.79782 19.9789 8.7959 19.9785C8.79198 19.9777 8.78656 19.9769 8.78027 19.9756C8.76771 19.973 8.75002 19.9696 8.72852 19.9648C8.68532 19.9553 8.62441 19.9412 8.54883 19.9229C8.39744 19.8861 8.18499 19.8309 7.93164 19.7549C7.42789 19.6038 6.74491 19.3656 6.05273 19.0195C4.75918 18.3728 2.99999 17.123 3 15C3 13.7346 3.47836 12.7796 3.9502 12.1504C4.03063 12.0431 4.11203 11.9457 4.19043 11.8564C3.83078 11.2531 3.5 10.4466 3.5 9.5C3.5 8.24634 4.20611 7.25893 4.77148 6.6582C5.06668 6.34456 5.35931 6.09858 5.57715 5.93066C5.68679 5.84615 5.7798 5.78005 5.84766 5.7334C5.88146 5.71016 5.90901 5.69126 5.92969 5.67773C5.94005 5.67096 5.94937 5.66541 5.95605 5.66113C5.95923 5.6591 5.96157 5.65673 5.96387 5.65527C5.96506 5.65452 5.96683 5.65391 5.96777 5.65332L5.96875 5.65234H5.96973L6.05957 5.60254ZM16.6523 5.96973C16.9451 5.50167 17.5621 5.35971 18.0303 5.65234H18.0312L18.0322 5.65332C18.0332 5.65391 18.0349 5.65452 18.0361 5.65527C18.0384 5.65673 18.0408 5.6591 18.0439 5.66113C18.0506 5.66541 18.06 5.67096 18.0703 5.67773C18.091 5.69126 18.1185 5.71016 18.1523 5.7334C18.2202 5.78005 18.3132 5.84615 18.4229 5.93066C18.6407 6.09858 18.9333 6.34456 19.2285 6.6582C19.7939 7.25893 20.5 8.24634 20.5 9.5C20.5 10.4468 20.1683 11.2531 19.8086 11.8564C19.8871 11.9458 19.9692 12.0429 20.0498 12.1504C20.5216 12.7796 21 13.7346 21 15C21 17.123 19.2408 18.3728 17.9473 19.0195C17.2551 19.3656 16.5721 19.6038 16.0684 19.7549C15.815 19.8309 15.6026 19.8861 15.4512 19.9229C15.3756 19.9412 15.3147 19.9553 15.2715 19.9648C15.25 19.9696 15.2323 19.973 15.2197 19.9756C15.2134 19.9769 15.208 19.9777 15.2041 19.9785C15.2022 19.9789 15.2006 19.9792 15.1992 19.9795L15.1973 19.9805H15.1963C14.6548 20.0888 14.1279 19.7377 14.0195 19.1963C13.9112 18.6548 14.2623 18.1279 14.8037 18.0195H14.8027C14.8036 18.0194 14.8064 18.0192 14.8096 18.0186C14.8159 18.0172 14.8264 18.0149 14.8408 18.0117C14.8708 18.0051 14.9178 17.9942 14.9785 17.9795C15.1005 17.9499 15.279 17.9034 15.4941 17.8389C15.9279 17.7087 16.495 17.5093 17.0527 17.2305C18.2592 16.6272 19 15.877 19 15C19 14.2857 18.7426 13.7508 18.4727 13.3809C18.0627 13.6012 17.5409 13.5119 17.2314 13.1406C16.8779 12.7164 16.9352 12.085 17.3594 11.7314L17.3887 11.7061C17.417 11.68 17.4619 11.6373 17.5176 11.5801C17.63 11.4646 17.7815 11.2932 17.9326 11.0791C18.2434 10.6389 18.5 10.0902 18.5 9.5C18.5 9.0037 18.2061 8.49107 17.7715 8.0293C17.5667 7.81176 17.3593 7.63578 17.2021 7.51465C17.1244 7.45469 17.061 7.40939 17.0195 7.38086C16.9989 7.36665 16.9832 7.35717 16.9746 7.35156C16.9704 7.34883 16.9677 7.34723 16.9668 7.34668H16.9688C16.5016 7.05359 16.3599 6.43757 16.6523 5.96973ZM12 1C14.2091 1 16 2.79086 16 5C16 5.86951 15.7216 6.67701 15.249 7.33398C14.9266 7.78227 14.3018 7.88388 13.8535 7.56152C13.4052 7.23904 13.3026 6.61435 13.625 6.16602C13.861 5.83791 14 5.43666 14 5C14 3.89543 13.1046 3 12 3C10.8954 3 10 3.89543 10 5C10 5.43666 10.139 5.83791 10.375 6.16602C10.6974 6.61435 10.5948 7.23904 10.1465 7.56152C9.69815 7.88388 9.07344 7.78227 8.75098 7.33398C8.27842 6.67701 8 5.86951 8 5C8 2.79086 9.79087 1 12 1Z" fill="#9E9E9E"/>
</g>
</svg>
