<svg width="24" height="24" viewBox="0 0 24 24" fill="none" xmlns="http://www.w3.org/2000/svg">
<g id="icons/Energy/tree-one">
<path id="Union" d="M12 1C16.7542 1 20.5 5.09121 20.5 10C20.5 14.4173 17.4663 18.1702 13.3945 18.8779C13.3737 18.8816 13.3529 18.8862 13.332 18.8896C13.2222 18.9079 13.1113 18.9218 13 18.9355V22C13 22.5523 12.5523 23 12 23C11.4477 23 11 22.5523 11 22V18.9355C10.8883 18.9218 10.7772 18.9079 10.667 18.8896C10.6461 18.8862 10.6254 18.8816 10.6045 18.8779C6.53315 18.1698 3.5 14.417 3.5 10C3.5 5.09121 7.24577 1 12 1ZM12 3C8.46996 3 5.5 6.07223 5.5 10C5.5 13.5503 7.92666 16.4007 11 16.916V14.9141L8.29297 12.207C7.90244 11.8165 7.90244 11.1835 8.29297 10.793C8.68349 10.4024 9.31651 10.4024 9.70703 10.793L11 12.0859V7C11 6.44772 11.4477 6 12 6C12.5523 6 13 6.44772 13 7V8.58594L14.293 7.29297C14.6835 6.90244 15.3165 6.90244 15.707 7.29297C16.0976 7.68349 16.0976 8.31651 15.707 8.70703L13 11.4141V16.916C16.0733 16.4007 18.5 13.5503 18.5 10C18.5 6.07223 15.53 3 12 3Z" fill="#9E9E9E"/>
</g>
</svg>
