<svg width="24" height="24" viewBox="0 0 24 24" fill="none" xmlns="http://www.w3.org/2000/svg">
<g id="icons/Energy/water-no">
<path id="Union" d="M22 11C22.5523 11 23 11.4477 23 12C23 18.0751 18.0751 23 12 23C5.92489 23 1.00004 18.0751 1 12C1 11.4477 1.44772 11 2 11C2.55228 11 3 11.4477 3 12C3.00004 12.8284 3.6716 13.5 4.5 13.5C5.32839 13.5 5.99996 12.8284 6 12C6 11.4477 6.44772 11 7 11C7.55228 11 8 11.4477 8 12C8.00004 12.8284 8.67161 13.5 9.5 13.5C10.3284 13.5 11 12.8284 11 12C11 11.4477 11.4477 11 12 11C12.5523 11 13 11.4477 13 12C13 12.8284 13.6716 13.5 14.5 13.5C15.3284 13.5 16 12.8284 16 12C16 11.4477 16.4477 11 17 11C17.5523 11 18 11.4477 18 12C18 12.8284 18.6716 13.5 19.5 13.5C20.3284 13.5 21 12.8284 21 12C21 11.4477 21.4477 11 22 11ZM17 14.4473C16.3647 15.0962 15.4799 15.5 14.5 15.5C13.5201 15.5 12.6353 15.0962 12 14.4473C11.3647 15.0962 10.4799 15.5 9.5 15.5C8.52011 15.5 7.63534 15.0962 7 14.4473C6.36466 15.0962 5.47989 15.5 4.5 15.5C4.21247 15.5 3.93339 15.4638 3.66602 15.3984C5.00716 18.6839 8.23223 21 12 21C15.7676 21 18.9918 18.6837 20.333 15.3984C20.0659 15.4637 19.7872 15.5 19.5 15.5C18.5201 15.5 17.6353 15.0962 17 14.4473ZM13.793 1.79297C14.1835 1.40244 14.8165 1.40244 15.207 1.79297C15.5975 2.1835 15.5975 2.81652 15.207 3.20703L13.4141 5L15.207 6.79297C15.5975 7.1835 15.5975 7.81652 15.207 8.20703C14.8165 8.59751 14.1835 8.59751 13.793 8.20703L12 6.41406L10.207 8.20703C9.81652 8.59751 9.18348 8.59751 8.79297 8.20703C8.40246 7.81652 8.40248 7.1835 8.79297 6.79297L10.5859 5L8.79297 3.20703C8.40246 2.81652 8.40248 2.1835 8.79297 1.79297C9.18349 1.40244 9.81651 1.40244 10.207 1.79297L12 3.58594L13.793 1.79297Z" fill="#9E9E9E"/>
</g>
</svg>
