<svg width="24" height="24" viewBox="0 0 24 24" fill="none" xmlns="http://www.w3.org/2000/svg">
<g id="icons/Energy/water">
<path id="Union" d="M22 11C22.5523 11 23 11.4477 23 12C23 18.0751 18.0751 23 12 23C5.92487 23 1 18.0751 1 12C1 11.4477 1.44772 11 2 11C2.55228 11 3 11.4477 3 12C3 12.8284 3.67158 13.5 4.5 13.5C5.32842 13.5 6 12.8284 6 12C6 11.4477 6.44772 11 7 11C7.55228 11 8 11.4477 8 12C8 12.8284 8.67158 13.5 9.5 13.5C10.3284 13.5 11 12.8284 11 12C11 11.4477 11.4477 11 12 11C12.5523 11 13 11.4477 13 12C13 12.8284 13.6716 13.5 14.5 13.5C15.3284 13.5 16 12.8284 16 12C16 11.4477 16.4477 11 17 11C17.5523 11 18 11.4477 18 12C18 12.8284 18.6716 13.5 19.5 13.5C20.3284 13.5 21 12.8284 21 12C21 11.4477 21.4477 11 22 11ZM17 14.4473C16.3647 15.0962 15.4799 15.5 14.5 15.5C13.5201 15.5 12.6353 15.0962 12 14.4473C11.3647 15.0962 10.4799 15.5 9.5 15.5C8.52009 15.5 7.63534 15.0962 7 14.4473C6.36466 15.0962 5.47991 15.5 4.5 15.5C4.21247 15.5 3.9334 15.4638 3.66602 15.3984C5.00714 18.6839 8.23221 21 12 21C15.7677 21 18.9918 18.6837 20.333 15.3984C20.0659 15.4637 19.7872 15.5 19.5 15.5C18.5201 15.5 17.6353 15.0962 17 14.4473ZM12 1C12.354 1 12.6815 1.18724 12.8613 1.49219L12.8623 1.49316C12.8626 1.49373 12.8627 1.49513 12.8633 1.49609C12.8644 1.49799 12.8662 1.50053 12.8682 1.50391C12.8723 1.51104 12.879 1.52187 12.8867 1.53516C12.9022 1.56171 12.924 1.60047 12.9521 1.64941C13.0086 1.74755 13.0895 1.88773 13.1855 2.05957C13.3773 2.40274 13.6337 2.87473 13.8916 3.38379C14.148 3.88994 14.4136 4.44869 14.6172 4.96289C14.8026 5.43115 15 6.01191 15 6.5C15 8.15683 13.6568 9.5 12 9.5C10.3432 9.5 9 8.15683 9 6.5C9 6.01191 9.19745 5.43115 9.38281 4.96289C9.58636 4.44869 9.85197 3.88994 10.1084 3.38379C10.3663 2.87473 10.6227 2.40274 10.8145 2.05957C10.9105 1.88773 10.9914 1.74755 11.0479 1.64941C11.076 1.60047 11.0978 1.56171 11.1133 1.53516C11.121 1.52187 11.1277 1.51104 11.1318 1.50391C11.1338 1.50053 11.1356 1.49799 11.1367 1.49609L11.1377 1.49316C11.3174 1.18801 11.6458 1 12 1ZM11.8916 4.28809C11.6481 4.76872 11.4136 5.26626 11.2422 5.69922C11.1565 5.91564 11.0917 6.10267 11.0498 6.25488C11.029 6.33037 11.0156 6.3909 11.0078 6.43652C10.9998 6.48358 11 6.50288 11 6.5C11 7.05227 11.4477 7.5 12 7.5C12.5523 7.5 13 7.05227 13 6.5C13 6.50288 13.0002 6.48358 12.9922 6.43652C12.9844 6.3909 12.971 6.33037 12.9502 6.25488C12.9083 6.10267 12.8435 5.91564 12.7578 5.69922C12.5864 5.26626 12.3519 4.76872 12.1084 4.28809C12.0728 4.21787 12.0354 4.14867 12 4.08008C11.9646 4.14867 11.9272 4.21787 11.8916 4.28809Z" fill="#9E9E9E"/>
</g>
</svg>
