<svg width="24" height="24" viewBox="0 0 24 24" fill="none" xmlns="http://www.w3.org/2000/svg">
<g id="icons/Energy/windmill-two">
<path id="Union" d="M12 1C15.3137 1 18 3.68629 18 7C18 8.53706 17.4212 9.93839 16.4707 11H22C22.5523 11 23 11.4477 23 12C23 15.3137 20.3137 18 17 18C15.4629 18 14.0616 17.4212 13 16.4707V22C13 22.5523 12.5523 23 12 23C8.68632 23 6 20.3137 6 17C6 15.4629 6.57881 14.0616 7.5293 13H2C1.44772 13 1 12.5523 1 12C1 8.68632 3.68629 6 7 6C8.53683 6 9.93845 6.5781 11 7.52832V2C11 1.44772 11.4477 1 12 1ZM11 13.126C9.27478 13.57 8 15.1362 8 17C8 18.8638 9.27478 20.43 11 20.874V13.126ZM13.126 13C13.57 14.7252 15.1362 16 17 16C18.8638 16 20.43 14.7252 20.874 13H13.126ZM7 8C5.13616 8 3.57002 9.27478 3.12598 11H10.874C10.43 9.27478 8.86382 8 7 8ZM13 10.874C14.7252 10.43 16 8.86382 16 7C16 5.13616 14.7252 3.57002 13 3.12598V10.874Z" fill="#9E9E9E"/>
</g>
</svg>
