<svg width="24" height="24" viewBox="0 0 24 24" fill="none" xmlns="http://www.w3.org/2000/svg">
<g id="icons/Energy/windmill">
<path id="Union" d="M11.4457 1.14941C11.7291 0.974305 12.0851 0.950582 12.3929 1.09375C12.7443 1.25749 12.9699 1.60941 12.9711 1.99707L12.9799 5H17.0004C17.2962 5.00011 17.577 5.1316 17.767 5.3584L22.767 11.3291C23.0156 11.6265 23.0701 12.0411 22.9066 12.3926C22.743 12.744 22.3909 12.9694 22.0033 12.9707L19.0004 12.9795V17C19.0003 17.2958 18.8687 17.5767 18.642 17.7666L12.6713 22.7666C12.374 23.0154 11.9594 23.0696 11.6078 22.9062C11.2563 22.7426 11.0309 22.3906 11.0297 22.0029L11.0209 19H7.00037C6.7046 19 6.42376 18.8683 6.23376 18.6416L1.23376 12.6709C0.984872 12.3735 0.930625 11.9591 1.09412 11.6074C1.25777 11.2558 1.60961 11.0304 1.99744 11.0293L5.00037 11.0195V7C5.00037 6.70406 5.13187 6.4234 5.35876 6.2334L11.3295 1.2334L11.4457 1.14941ZM13.0033 13.0029L13.015 16.999L13.0228 19.8633L17.0004 16.5332V13L13.0033 13.0029ZM7.00134 13.0146L4.13611 13.0225L7.46716 17H10.9994L10.9965 13.0029L7.00134 13.0146ZM7.00037 7.46582V10.999L10.9965 10.9961L10.9857 7.00098L10.9769 4.13574L7.00037 7.46582ZM13.0033 10.9961L16.9994 10.9854L19.8636 10.9766L16.5336 7H13.0013L13.0033 10.9961Z" fill="#9E9E9E"/>
</g>
</svg>
