<svg width="24" height="24" viewBox="0 0 24 24" fill="none" xmlns="http://www.w3.org/2000/svg">
<g id="icons/Components/carousel">
<path id="Union" d="M21 3.5C22.1046 3.5 23 4.39544 23 5.5V17.5C23 18.6046 22.1046 19.5 21 19.5H3C1.89544 19.5 1 18.6046 1 17.5V5.5C1 4.39543 1.89543 3.5 3 3.5H21ZM3 7.5H6C6.55228 7.5 7 7.94772 7 8.5V14.5C7 15.0523 6.55228 15.5 6 15.5H3V17.5H21V15.5H18C17.4477 15.5 17 15.0523 17 14.5V8.5C17 7.94772 17.4477 7.5 18 7.5H21V5.5H3V7.5ZM14 7.5C14.5523 7.5 15 7.94772 15 8.5V14.5C15 15.0523 14.5523 15.5 14 15.5H10C9.44771 15.5 9 15.0523 9 14.5V8.5C9 7.94772 9.44771 7.5 10 7.5H14ZM3 13.5H5V9.5H3V13.5ZM11 13.5H13V9.5H11V13.5ZM19 13.5H21V9.5H19V13.5Z" fill="#9E9E9E"/>
</g>
</svg>
