<svg width="24" height="24" viewBox="0 0 24 24" fill="none" xmlns="http://www.w3.org/2000/svg">
<g id="icons/Components/checklist">
<path id="Union" d="M13 14C13.5523 14 14 14.4477 14 15V19C14 19.5523 13.5523 20 13 20H2C1.44772 20 1 19.5523 1 19V15C1 14.4477 1.44772 14 2 14H13ZM21.2471 14.3418C21.6107 13.9263 22.2426 13.8837 22.6582 14.2471C23.0737 14.6107 23.1163 15.2426 22.7529 15.6582L19.2529 19.6582C19.0707 19.8665 18.8098 19.9898 18.5332 19.999C18.2566 20.0082 17.9887 19.9027 17.793 19.707L15.793 17.707C15.4024 17.3165 15.4024 16.6835 15.793 16.293C16.1835 15.9024 16.8165 15.9024 17.207 16.293L18.4512 17.5371L21.2471 14.3418ZM3 18H12V16H3V18ZM13 4C13.5523 4 14 4.44772 14 5V9C14 9.55228 13.5523 10 13 10H2C1.44772 10 1 9.55228 1 9V5C1 4.44772 1.44772 4 2 4H13ZM20.293 4.29297C20.6835 3.90244 21.3165 3.90244 21.707 4.29297C22.0976 4.68349 22.0976 5.31651 21.707 5.70703L20.4141 7L21.707 8.29297C22.0976 8.68349 22.0976 9.31651 21.707 9.70703C21.3165 10.0976 20.6835 10.0976 20.293 9.70703L19 8.41406L17.707 9.70703C17.3165 10.0976 16.6835 10.0976 16.293 9.70703C15.9024 9.31651 15.9024 8.68349 16.293 8.29297L17.5859 7L16.293 5.70703C15.9024 5.31651 15.9024 4.68349 16.293 4.29297C16.6835 3.90244 17.3165 3.90244 17.707 4.29297L19 5.58594L20.293 4.29297ZM3 8H12V6H3V8Z" fill="#9E9E9E"/>
</g>
</svg>
