<svg width="24" height="24" viewBox="0 0 24 24" fill="none" xmlns="http://www.w3.org/2000/svg">
<g id="icons/Components/page-template">
<path id="Union" d="M22 16C22.5523 16 23 16.4477 23 17V21.5C23 22.0523 22.5523 22.5 22 22.5H2C1.44772 22.5 1 22.0523 1 21.5V17C1 16.4477 1.44772 16 2 16H22ZM3 20.5H21V18H3V20.5ZM11.5 1C12.0523 1 12.5 1.44772 12.5 2V13C12.5 13.5523 12.0523 14 11.5 14H2C1.44772 14 1 13.5523 1 13V2C1 1.44772 1.44772 1 2 1H11.5ZM22 8C22.5523 8 23 8.44772 23 9V13C23 13.5523 22.5523 14 22 14H15.5C14.9477 14 14.5 13.5523 14.5 13V9C14.5 8.44772 14.9477 8 15.5 8H22ZM3 12H10.5V3H3V12ZM16.5 12H21V10H16.5V12ZM22 1C22.5523 1 23 1.44772 23 2V6C23 6.55228 22.5523 7 22 7H15.5C14.9477 7 14.5 6.55228 14.5 6V2C14.5 1.44772 14.9477 1 15.5 1H22ZM16.5 5H21V3H16.5V5Z" fill="#9E9E9E"/>
</g>
</svg>
