<svg width="24" height="24" viewBox="0 0 24 24" fill="none" xmlns="http://www.w3.org/2000/svg">
<g id="icons/Components/platte">
<path id="Union" d="M12 1C18.0751 1 23 5.92487 23 12C23 13.0949 22.3695 13.8061 21.627 14.2363C20.9412 14.6336 20.0698 14.8524 19.2979 15.0195C18.4624 15.2004 17.7174 15.3271 17.0322 15.5264C16.3392 15.728 15.9414 15.9448 15.748 16.1631C15.4623 16.4858 15.2796 16.9468 15.1602 17.5752C15.0355 18.2308 15.0077 18.8706 14.9248 19.6338C14.8513 20.3105 14.7289 21.1409 14.3184 21.8027C14.098 22.1579 13.7909 22.4727 13.373 22.6914C12.9608 22.9072 12.4964 23 12 23C5.92487 23 1 18.0751 1 12C1 5.92487 5.92487 1 12 1ZM12 3C7.02943 3 3 7.02943 3 12C3 16.9706 7.02943 21 12 21C12.2481 21 12.379 20.9545 12.4453 20.9199C12.5058 20.8882 12.5608 20.8405 12.6182 20.748C12.7632 20.5143 12.8616 20.1067 12.9365 19.417C13.002 18.8138 13.0514 17.9579 13.1953 17.2012C13.3444 16.4171 13.6218 15.5482 14.252 14.8369C14.8401 14.1732 15.708 13.8292 16.4736 13.6064C17.2475 13.3814 18.1559 13.2201 18.875 13.0645C19.6574 12.895 20.2426 12.7274 20.625 12.5059C20.9504 12.3172 21 12.1765 21 12C21 7.02943 16.9706 3 12 3ZM8.5 13C9.88073 13 11 14.1193 11 15.5C11 16.8807 9.88073 18 8.5 18C7.11927 18 6 16.8807 6 15.5C6 14.1193 7.11927 13 8.5 13ZM8.5 15C8.22383 15 8 15.2238 8 15.5C8 15.7762 8.22383 16 8.5 16C8.77617 16 9 15.7762 9 15.5C9 15.2238 8.77617 15 8.5 15ZM8 6.5C9.38073 6.5 10.5 7.61927 10.5 9C10.5 10.3807 9.38073 11.5 8 11.5C6.61927 11.5 5.5 10.3807 5.5 9C5.5 7.61927 6.61927 6.5 8 6.5ZM8 8.5C7.72383 8.5 7.5 8.72383 7.5 9C7.5 9.27617 7.72383 9.5 8 9.5C8.27617 9.5 8.5 9.27617 8.5 9C8.5 8.72383 8.27617 8.5 8 8.5ZM14 4.5C15.3807 4.5 16.5 5.61927 16.5 7C16.5 8.38073 15.3807 9.5 14 9.5C12.6193 9.5 11.5 8.38073 11.5 7C11.5 5.61927 12.6193 4.5 14 4.5ZM14 6.5C13.7238 6.5 13.5 6.72383 13.5 7C13.5 7.27617 13.7238 7.5 14 7.5C14.2762 7.5 14.5 7.27617 14.5 7C14.5 6.72383 14.2762 6.5 14 6.5Z" fill="#9E9E9E"/>
</g>
</svg>
