<svg width="24" height="24" viewBox="0 0 24 24" fill="none" xmlns="http://www.w3.org/2000/svg">
<g id="icons/Components/switch-button">
<path id="Union" d="M18 13C20.7614 13 23 15.2386 23 18C23 20.7614 20.7614 23 18 23H6C3.23858 23 1 20.7614 1 18C1 15.2386 3.23858 13 6 13H18ZM6 15C4.34314 15 3 16.3431 3 18C3 19.6569 4.34314 21 6 21H18C19.6569 21 21 19.6569 21 18C21 16.3431 19.6569 15 18 15H6ZM6 16C7.10458 16 8 16.8954 8 18C8 19.1046 7.10458 20 6 20C4.89542 20 4 19.1046 4 18C4 16.8954 4.89542 16 6 16ZM18 1C20.7614 1 23 3.23858 23 6C23 8.76144 20.7614 11 18 11H6C3.23858 11 1 8.76144 1 6C1 3.23858 3.23858 1 6 1H18ZM6 3C4.34314 3 3 4.34314 3 6C3 7.65686 4.34314 9 6 9H18C19.6569 9 21 7.65687 21 6C21 4.34314 19.6569 3 18 3H6ZM18 4C19.1046 4 20 4.89542 20 6C20 7.10458 19.1046 8 18 8C16.8954 8 16 7.10458 16 6C16 4.89542 16.8954 4 18 4Z" fill="#9E9E9E"/>
</g>
</svg>
