<svg width="24" height="24" viewBox="0 0 24 24" fill="none" xmlns="http://www.w3.org/2000/svg">
<g id="icons/Components/table-file">
<path id="Union" d="M21 2C22.0685 2 22.9382 2.83804 22.9941 3.89258C22.9979 3.92787 23 3.9637 23 4V20C23 21.1046 22.1046 22 21 22H3C1.89544 22 1 21.1046 1 20V4C1 3.96374 1.00112 3.92784 1.00488 3.89258C1.06075 2.83801 1.9315 2 3 2H21ZM16.25 20H21V16H16.25V20ZM9.75 20H14.25V16H9.75V20ZM3 20H7.75V16H3V20ZM3 14H7.75V10H3V14ZM9.75 14H14.25V10H9.75V14ZM16.25 14H21V10H16.25V14ZM3 8H21V4H3V8Z" fill="#9E9E9E"/>
</g>
</svg>
