<svg width="24" height="24" viewBox="0 0 24 24" fill="none" xmlns="http://www.w3.org/2000/svg">
<g id="icons/Components/tree-list">
<path id="Union" d="M2.5 1C3.05228 1 3.5 1.44772 3.5 2V4H8V3C8 2.44772 8.44772 2 9 2H16C16.5523 2 17 2.44772 17 3V7C17 7.55228 16.5523 8 16 8H9C8.44772 8 8 7.55228 8 7V6H3.5V11H8V10C8 9.44771 8.44772 9 9 9H19C19.5523 9 20 9.44771 20 10V14C20 14.5523 19.5523 15 19 15H9C8.44772 15 8 14.5523 8 14V13H3.5V18H8V17C8 16.4477 8.44772 16 9 16H22C22.5523 16 23 16.4477 23 17V21C23 21.5523 22.5523 22 22 22H9C8.44772 22 8 21.5523 8 21V20H3.5V22C3.5 22.5523 3.05228 23 2.5 23C1.94772 23 1.5 22.5523 1.5 22V2C1.5 1.44772 1.94772 1 2.5 1ZM10 20H21V18H10V20ZM10 13H18V11H10V13ZM10 6H15V4H10V6Z" fill="#9E9E9E"/>
</g>
</svg>
