<svg width="24" height="24" viewBox="0 0 24 24" fill="none" xmlns="http://www.w3.org/2000/svg">
<g id="icons/Emoji/anguished-face">
<path id="Union" d="M12 1C18.0751 1 23 5.92487 23 12C23 18.0751 18.0751 23 12 23C5.92487 23 1 18.0751 1 12C1 5.92487 5.92487 1 12 1ZM12 3C7.02943 3 3 7.02943 3 12C3 16.9706 7.02943 21 12 21C16.9706 21 21 16.9706 21 12C21 7.02943 16.9706 3 12 3ZM13 13C14.6569 13 16 14.3431 16 16C16 17.6569 14.6569 19 13 19H11C9.34315 19 8 17.6569 8 16C8 14.3431 9.34315 13 11 13H13ZM11 15C10.4477 15 10 15.4477 10 16C10 16.5523 10.4477 17 11 17H13C13.5523 17 14 16.5523 14 16C14 15.4477 13.5523 15 13 15H11ZM8.5 8C9.05229 8 9.5 8.44772 9.5 9V9.5C9.5 10.0523 9.05229 10.5 8.5 10.5C7.94772 10.5 7.5 10.0523 7.5 9.5V9C7.5 8.44772 7.94772 8 8.5 8ZM15.5 8C16.0523 8 16.5 8.44772 16.5 9V9.5C16.5 10.0523 16.0523 10.5 15.5 10.5C14.9477 10.5 14.5 10.0523 14.5 9.5V9C14.5 8.44772 14.9477 8 15.5 8Z" fill="#9E9E9E"/>
</g>
</svg>
