<svg width="24" height="24" viewBox="0 0 24 24" fill="none" xmlns="http://www.w3.org/2000/svg">
<g id="icons/Emoji/confounded-face">
<path id="Union" d="M12 1C18.0751 1 23 5.92487 23 12C23 18.0751 18.0751 23 12 23C5.92487 23 1 18.0751 1 12C1 5.92487 5.92487 1 12 1ZM12 3C7.02943 3 3 7.02943 3 12C3 16.9706 7.02943 21 12 21C16.9706 21 21 16.9706 21 12C21 7.02943 16.9706 3 12 3ZM15.793 14.793C16.1835 14.4024 16.8165 14.4024 17.207 14.793C17.5976 15.1835 17.5976 15.8165 17.207 16.207L15.707 17.707C15.3165 18.0976 14.6835 18.0976 14.293 17.707L13.5 16.9141L12.707 17.707C12.3165 18.0976 11.6835 18.0976 11.293 17.707L10.5 16.9141L9.70703 17.707C9.31651 18.0976 8.68349 18.0976 8.29297 17.707L6.79297 16.207C6.40244 15.8165 6.40244 15.1835 6.79297 14.793C7.18349 14.4024 7.81651 14.4024 8.20703 14.793L9 15.5859L9.79297 14.793L9.86914 14.7246C10.2619 14.4043 10.8409 14.4269 11.207 14.793L12 15.5859L12.793 14.793L12.8691 14.7246C13.2619 14.4043 13.8409 14.4269 14.207 14.793L15 15.5859L15.793 14.793ZM7.29297 7.79297C7.68349 7.40244 8.31651 7.40244 8.70703 7.79297L10.207 9.29297C10.5976 9.68349 10.5976 10.3165 10.207 10.707L8.70703 12.207C8.31651 12.5976 7.68349 12.5976 7.29297 12.207C6.90244 11.8165 6.90244 11.1835 7.29297 10.793L8.08594 10L7.29297 9.20703C6.90244 8.81651 6.90244 8.18349 7.29297 7.79297ZM15.293 7.79297C15.6835 7.40244 16.3165 7.40244 16.707 7.79297C17.0976 8.18349 17.0976 8.81651 16.707 9.20703L15.9141 10L16.707 10.793C17.0976 11.1835 17.0976 11.8165 16.707 12.207C16.3165 12.5976 15.6835 12.5976 15.293 12.207L13.793 10.707C13.4024 10.3165 13.4024 9.68349 13.793 9.29297L15.293 7.79297Z" fill="#9E9E9E"/>
</g>
</svg>
