<svg width="24" height="24" viewBox="0 0 24 24" fill="none" xmlns="http://www.w3.org/2000/svg">
<g id="icons/Emoji/confused-face">
<path id="Union" d="M12 1C18.0751 1 23 5.92487 23 12C23 18.0751 18.0751 23 12 23C5.92487 23 1 18.0751 1 12C1 5.92487 5.92487 1 12 1ZM12 3C7.02943 3 3 7.02943 3 12C3 16.9706 7.02943 21 12 21C16.9706 21 21 16.9706 21 12C21 7.02943 16.9706 3 12 3ZM15.3584 14.0098C15.9051 13.9317 16.4121 14.3117 16.4902 14.8584C16.5683 15.4051 16.1883 15.9121 15.6416 15.9902L8.6416 16.9902C8.09491 17.0683 7.58794 16.6883 7.50977 16.1416C7.43167 15.5949 7.81174 15.0879 8.3584 15.0098L15.3584 14.0098ZM8.5 8C9.05229 8 9.5 8.44772 9.5 9V9.5C9.5 10.0523 9.05229 10.5 8.5 10.5C7.94772 10.5 7.5 10.0523 7.5 9.5V9C7.5 8.44772 7.94772 8 8.5 8ZM15.5 8C16.0523 8 16.5 8.44772 16.5 9V9.5C16.5 10.0523 16.0523 10.5 15.5 10.5C14.9477 10.5 14.5 10.0523 14.5 9.5V9C14.5 8.44772 14.9477 8 15.5 8Z" fill="#9E9E9E"/>
</g>
</svg>
