<svg width="24" height="24" viewBox="0 0 24 24" fill="none" xmlns="http://www.w3.org/2000/svg">
<g id="icons/Emoji/disappointed-face">
<path id="Union" d="M12 1C18.0751 1 23 5.92487 23 12C23 18.0751 18.0751 23 12 23C5.92487 23 1 18.0751 1 12C1 5.92487 5.92487 1 12 1ZM12 3C7.02943 3 3 7.02943 3 12C3 16.9706 7.02943 21 12 21C16.9706 21 21 16.9706 21 12C21 7.02943 16.9706 3 12 3ZM12 14.5C13.5428 14.5 14.6453 15.1251 15.3516 15.7529C15.7005 16.0631 15.9536 16.3729 16.1211 16.6094C16.2051 16.728 16.2685 16.83 16.3135 16.9062C16.3359 16.9443 16.3538 16.9763 16.3672 17.001C16.3739 17.0133 16.3793 17.0246 16.3838 17.0332C16.3859 17.0373 16.388 17.0408 16.3896 17.0439C16.3905 17.0456 16.3919 17.0474 16.3926 17.0488L16.3936 17.0508V17.0518C16.3904 17.0538 16.3421 17.0789 15.627 17.4365L16.3945 17.0527C16.6415 17.5467 16.4412 18.1475 15.9473 18.3945C15.4555 18.6404 14.8574 18.4432 14.6084 17.9541C14.6059 17.9495 14.6005 17.9383 14.5908 17.9219C14.5713 17.8888 14.537 17.8344 14.4883 17.7656C14.3901 17.6271 14.2369 17.4369 14.0234 17.2471C13.6047 16.8749 12.9572 16.5 12 16.5C11.0428 16.5 10.3953 16.8749 9.97656 17.2471C9.76306 17.4369 9.60987 17.6271 9.51172 17.7656C9.46303 17.8344 9.42868 17.8888 9.40918 17.9219C9.39953 17.9383 9.39408 17.9495 9.3916 17.9541C9.39064 17.9559 9.38952 17.9563 9.38965 17.9561C9.38991 17.9556 9.39095 17.9544 9.3916 17.9531C9.39196 17.9524 9.39211 17.9511 9.39258 17.9502L9.39355 17.9492V17.9482C9.1462 18.4414 8.54632 18.6413 8.05273 18.3945C7.55876 18.1475 7.35848 17.5467 7.60547 17.0527L8.37305 17.4365C7.65788 17.0789 7.60957 17.0538 7.60645 17.0518V17.0508L7.60742 17.0488C7.60813 17.0474 7.60951 17.0456 7.61035 17.0439C7.61198 17.0408 7.6141 17.0373 7.61621 17.0332C7.6207 17.0246 7.62612 17.0133 7.63281 17.001C7.64617 16.9763 7.66411 16.9443 7.68652 16.9062C7.73146 16.83 7.79488 16.728 7.87891 16.6094C8.04639 16.3729 8.2995 16.0631 8.64844 15.7529C9.35473 15.1251 10.4572 14.5 12 14.5ZM8.55273 10.6055C9.04671 10.3585 9.64754 10.5588 9.89453 11.0527C10.1415 11.5467 9.94124 12.1475 9.44727 12.3945L7.44727 13.3945C6.95329 13.6415 6.35246 13.4412 6.10547 12.9473C5.85848 12.4533 6.05876 11.8525 6.55273 11.6055L8.55273 10.6055ZM13.6055 11.0527C13.8525 10.5588 14.4533 10.3585 14.9473 10.6055L16.9473 11.6055C17.4412 11.8525 17.6415 12.4533 17.3945 12.9473C17.1475 13.4412 16.5467 13.6415 16.0527 13.3945L14.0527 12.3945C13.5588 12.1475 13.3585 11.5467 13.6055 11.0527Z" fill="#9E9E9E"/>
</g>
</svg>
