<svg width="24" height="24" viewBox="0 0 24 24" fill="none" xmlns="http://www.w3.org/2000/svg">
<g id="icons/Emoji/distraught-face">
<path id="Union" d="M12 1C18.0751 1 23 5.92487 23 12C23 18.0751 18.0751 23 12 23C5.92487 23 1 18.0751 1 12C1 5.92487 5.92487 1 12 1ZM12 3C7.02943 3 3 7.02943 3 12C3 16.9706 7.02943 21 12 21C16.9706 21 21 16.9706 21 12C21 7.02943 16.9706 3 12 3ZM12 13.5C13.5428 13.5 14.6453 14.1251 15.3516 14.7529C15.7005 15.0631 15.9536 15.3729 16.1211 15.6094C16.2051 15.728 16.2685 15.83 16.3135 15.9062C16.3359 15.9443 16.3538 15.9763 16.3672 16.001C16.3739 16.0133 16.3793 16.0246 16.3838 16.0332C16.3859 16.0373 16.388 16.0408 16.3896 16.0439C16.3905 16.0456 16.3919 16.0474 16.3926 16.0488L16.3936 16.0508V16.0518C16.3903 16.0539 16.3365 16.0817 15.5 16.5L16.3945 16.0527C16.5495 16.3626 16.5327 16.7306 16.3506 17.0254C16.1684 17.3202 15.8466 17.5 15.5 17.5H8.5C8.15342 17.5 7.83162 17.3202 7.64941 17.0254C7.46733 16.7306 7.45051 16.3626 7.60547 16.0527L8.5 16.5C7.66348 16.0817 7.60974 16.0539 7.60645 16.0518V16.0508L7.60742 16.0488C7.60813 16.0474 7.60951 16.0456 7.61035 16.0439C7.61198 16.0408 7.6141 16.0373 7.61621 16.0332C7.6207 16.0246 7.62612 16.0133 7.63281 16.001C7.64617 15.9763 7.66411 15.9443 7.68652 15.9062C7.73146 15.83 7.79488 15.728 7.87891 15.6094C8.04639 15.3729 8.2995 15.0631 8.64844 14.7529C9.35473 14.1251 10.4572 13.5 12 13.5ZM7.29297 7.79297C7.68349 7.40244 8.31651 7.40244 8.70703 7.79297L10.207 9.29297C10.5976 9.68349 10.5976 10.3165 10.207 10.707L8.70703 12.207C8.31651 12.5976 7.68349 12.5976 7.29297 12.207C6.90244 11.8165 6.90244 11.1835 7.29297 10.793L8.08594 10L7.29297 9.20703C6.90244 8.81651 6.90244 8.18349 7.29297 7.79297ZM15.293 7.79297C15.6835 7.40244 16.3165 7.40244 16.707 7.79297C17.0976 8.18349 17.0976 8.81651 16.707 9.20703L15.9141 10L16.707 10.793C17.0976 11.1835 17.0976 11.8165 16.707 12.207C16.3165 12.5976 15.6835 12.5976 15.293 12.207L13.793 10.707C13.4024 10.3165 13.4024 9.68349 13.793 9.29297L15.293 7.79297Z" fill="#9E9E9E"/>
</g>
</svg>
