<svg width="24" height="24" viewBox="0 0 24 24" fill="none" xmlns="http://www.w3.org/2000/svg">
<g id="icons/Emoji/dizzy-face">
<path id="Union" d="M12 1C18.0751 1 23 5.92487 23 12C23 18.0751 18.0751 23 12 23C5.92487 23 1 18.0751 1 12C1 5.92487 5.92487 1 12 1ZM12 3C7.02943 3 3 7.02943 3 12C3 16.9706 7.02943 21 12 21C16.9706 21 21 16.9706 21 12C21 7.02943 16.9706 3 12 3ZM12 13C13.6569 13 15 14.3431 15 16C15 17.6569 13.6569 19 12 19C10.3431 19 9 17.6569 9 16C9 14.3431 10.3431 13 12 13ZM12 15C11.4477 15 11 15.4477 11 16C11 16.5523 11.4477 17 12 17C12.5523 17 13 16.5523 13 16C13 15.4477 12.5523 15 12 15ZM8.79297 8.29297C9.18349 7.90244 9.81651 7.90244 10.207 8.29297C10.5976 8.68349 10.5976 9.31651 10.207 9.70703L9.91406 10L10.207 10.293C10.5976 10.6835 10.5976 11.3165 10.207 11.707C9.81651 12.0976 9.18349 12.0976 8.79297 11.707L8.5 11.4141L8.20703 11.707C7.81651 12.0976 7.18349 12.0976 6.79297 11.707C6.40244 11.3165 6.40244 10.6835 6.79297 10.293L7.08594 10L6.79297 9.70703C6.40244 9.31651 6.40244 8.68349 6.79297 8.29297C7.18349 7.90244 7.81651 7.90244 8.20703 8.29297L8.5 8.58594L8.79297 8.29297ZM15.793 8.29297C16.1835 7.90244 16.8165 7.90244 17.207 8.29297C17.5976 8.68349 17.5976 9.31651 17.207 9.70703L16.9141 10L17.207 10.293C17.5976 10.6835 17.5976 11.3165 17.207 11.707C16.8165 12.0976 16.1835 12.0976 15.793 11.707L15.5 11.4141L15.207 11.707C14.8165 12.0976 14.1835 12.0976 13.793 11.707C13.4024 11.3165 13.4024 10.6835 13.793 10.293L14.0859 10L13.793 9.70703C13.4024 9.31651 13.4024 8.68349 13.793 8.29297C14.1835 7.90244 14.8165 7.90244 15.207 8.29297L15.5 8.58594L15.793 8.29297Z" fill="#9E9E9E"/>
</g>
</svg>
