<svg width="24" height="24" viewBox="0 0 24 24" fill="none" xmlns="http://www.w3.org/2000/svg">
<g id="icons/Emoji/emotion-unhappy">
<path id="Union" d="M12 1C18.0751 1 23 5.92487 23 12C23 18.0751 18.0751 23 12 23C5.92487 23 1 18.0751 1 12C1 5.92487 5.92487 1 12 1ZM12 3C7.02943 3 3 7.02943 3 12C3 16.9706 7.02943 21 12 21C16.9706 21 21 16.9706 21 12C21 7.02943 16.9706 3 12 3ZM12 12.5C13.5428 12.5 14.6453 13.1251 15.3516 13.7529C15.7005 14.0631 15.9536 14.3729 16.1211 14.6094C16.2051 14.728 16.2685 14.83 16.3135 14.9062C16.3359 14.9443 16.3538 14.9763 16.3672 15.001C16.3739 15.0133 16.3793 15.0246 16.3838 15.0332C16.3859 15.0373 16.388 15.0408 16.3896 15.0439C16.3905 15.0456 16.3919 15.0474 16.3926 15.0488L16.3936 15.0508V15.0518C16.3904 15.0538 16.3421 15.0789 15.627 15.4365L16.3945 15.0527C16.6415 15.5467 16.4412 16.1475 15.9473 16.3945C15.4555 16.6404 14.8574 16.4432 14.6084 15.9541C14.6059 15.9495 14.6005 15.9383 14.5908 15.9219C14.5713 15.8888 14.537 15.8344 14.4883 15.7656C14.3901 15.6271 14.2369 15.4369 14.0234 15.2471C13.6047 14.8749 12.9572 14.5 12 14.5C11.0428 14.5 10.3953 14.8749 9.97656 15.2471C9.76306 15.4369 9.60987 15.6271 9.51172 15.7656C9.46303 15.8344 9.42868 15.8888 9.40918 15.9219C9.39953 15.9383 9.39408 15.9495 9.3916 15.9541C9.39064 15.9559 9.38952 15.9563 9.38965 15.9561C9.38991 15.9556 9.39095 15.9544 9.3916 15.9531C9.39196 15.9524 9.39211 15.9511 9.39258 15.9502L9.39355 15.9492V15.9482C9.1462 16.4414 8.54632 16.6413 8.05273 16.3945C7.55876 16.1475 7.35848 15.5467 7.60547 15.0527L8.37305 15.4365C7.65788 15.0789 7.60957 15.0538 7.60645 15.0518V15.0508L7.60742 15.0488C7.60813 15.0474 7.60951 15.0456 7.61035 15.0439C7.61198 15.0408 7.6141 15.0373 7.61621 15.0332C7.6207 15.0246 7.62612 15.0133 7.63281 15.001C7.64617 14.9763 7.66411 14.9443 7.68652 14.9062C7.73146 14.83 7.79488 14.728 7.87891 14.6094C8.04639 14.3729 8.2995 14.0631 8.64844 13.7529C9.35473 13.1251 10.4572 12.5 12 12.5ZM8.5 8C9.05229 8 9.5 8.44772 9.5 9V9.5C9.5 10.0523 9.05229 10.5 8.5 10.5C7.94772 10.5 7.5 10.0523 7.5 9.5V9C7.5 8.44772 7.94772 8 8.5 8ZM15.5 8C16.0523 8 16.5 8.44772 16.5 9V9.5C16.5 10.0523 16.0523 10.5 15.5 10.5C14.9477 10.5 14.5 10.0523 14.5 9.5V9C14.5 8.44772 14.9477 8 15.5 8Z" fill="#9E9E9E"/>
</g>
</svg>
