<svg width="24" height="24" viewBox="0 0 24 24" fill="none" xmlns="http://www.w3.org/2000/svg">
<g id="icons/Emoji/expressionless-face">
<path id="Union" d="M12 1C18.0751 1 23 5.92487 23 12C23 18.0751 18.0751 23 12 23C5.92487 23 1 18.0751 1 12C1 5.92487 5.92487 1 12 1ZM12 3C7.02943 3 3 7.02943 3 12C3 16.9706 7.02943 21 12 21C16.9706 21 21 16.9706 21 12C21 7.02943 16.9706 3 12 3ZM16 14.5C16.5523 14.5 17 14.9477 17 15.5C17 16.0523 16.5523 16.5 16 16.5H8C7.44772 16.5 7 16.0523 7 15.5C7 14.9477 7.44772 14.5 8 14.5H16ZM10 8.5C10.5523 8.5 11 8.94772 11 9.5C11 10.0523 10.5523 10.5 10 10.5H8C7.44772 10.5 7 10.0523 7 9.5C7 8.94772 7.44772 8.5 8 8.5H10ZM16 8.5C16.5523 8.5 17 8.94772 17 9.5C17 10.0523 16.5523 10.5 16 10.5H14C13.4477 10.5 13 10.0523 13 9.5C13 8.94772 13.4477 8.5 14 8.5H16Z" fill="#9E9E9E"/>
</g>
</svg>
