<svg width="24" height="24" viewBox="0 0 24 24" fill="none" xmlns="http://www.w3.org/2000/svg">
<g id="icons/Emoji/grinning-face-with-tightly-closed-eyes-open-mouth">
<path id="Union" d="M12 1C18.0751 1 23 5.92487 23 12C23 18.0751 18.0751 23 12 23C5.92487 23 1 18.0751 1 12C1 5.92487 5.92487 1 12 1ZM12 3C7.02943 3 3 7.02943 3 12C3 16.9706 7.02943 21 12 21C16.9706 21 21 16.9706 21 12C21 7.02943 16.9706 3 12 3ZM15.5 14.5C15.8466 14.5 16.1684 14.6798 16.3506 14.9746C16.5327 15.2694 16.5495 15.6374 16.3945 15.9473L15.5 15.5C16.3365 15.9183 16.3903 15.9461 16.3936 15.9482V15.9492L16.3926 15.9512C16.3919 15.9526 16.3905 15.9544 16.3896 15.9561C16.388 15.9592 16.3859 15.9627 16.3838 15.9668C16.3793 15.9754 16.3739 15.9867 16.3672 15.999C16.3538 16.0237 16.3359 16.0557 16.3135 16.0938C16.2685 16.17 16.2051 16.272 16.1211 16.3906C15.9536 16.6271 15.7005 16.9369 15.3516 17.2471C14.6453 17.8749 13.5428 18.5 12 18.5C10.4572 18.5 9.35473 17.8749 8.64844 17.2471C8.2995 16.9369 8.04639 16.6271 7.87891 16.3906C7.79488 16.272 7.73146 16.17 7.68652 16.0938C7.66411 16.0557 7.64617 16.0237 7.63281 15.999C7.62612 15.9867 7.6207 15.9754 7.61621 15.9668C7.6141 15.9627 7.61198 15.9592 7.61035 15.9561C7.60951 15.9544 7.60813 15.9526 7.60742 15.9512L7.60645 15.9492V15.9482C7.60974 15.9461 7.66348 15.9183 8.5 15.5L7.60547 15.9473C7.45051 15.6374 7.46733 15.2694 7.64941 14.9746C7.83162 14.6798 8.15342 14.5 8.5 14.5H15.5ZM7.29297 7.79297C7.68349 7.40244 8.31651 7.40244 8.70703 7.79297L10.207 9.29297C10.5976 9.68349 10.5976 10.3165 10.207 10.707L8.70703 12.207C8.31651 12.5976 7.68349 12.5976 7.29297 12.207C6.90244 11.8165 6.90244 11.1835 7.29297 10.793L8.08594 10L7.29297 9.20703C6.90244 8.81651 6.90244 8.18349 7.29297 7.79297ZM15.293 7.79297C15.6835 7.40244 16.3165 7.40244 16.707 7.79297C17.0976 8.18349 17.0976 8.81651 16.707 9.20703L15.9141 10L16.707 10.793C17.0976 11.1835 17.0976 11.8165 16.707 12.207C16.3165 12.5976 15.6835 12.5976 15.293 12.207L13.793 10.707C13.4024 10.3165 13.4024 9.68349 13.793 9.29297L15.293 7.79297Z" fill="#9E9E9E"/>
</g>
</svg>
