<svg width="24" height="24" viewBox="0 0 24 24" fill="none" xmlns="http://www.w3.org/2000/svg">
<g id="icons/Emoji/relieved-face">
<path id="Union" d="M12 1C18.0751 1 23 5.92487 23 12C23 18.0751 18.0751 23 12 23C5.92487 23 1 18.0751 1 12C1 5.92487 5.92487 1 12 1ZM12 3C7.02943 3 3 7.02943 3 12C3 16.9706 7.02943 21 12 21C16.9706 21 21 16.9706 21 12C21 7.02943 16.9706 3 12 3ZM14.6104 15.0439C14.8601 14.5565 15.4563 14.36 15.9473 14.6055C16.4412 14.8525 16.6415 15.4533 16.3945 15.9473L15.5 15.5C16.3365 15.9183 16.3903 15.9461 16.3936 15.9482V15.9492L16.3926 15.9512C16.3919 15.9526 16.3905 15.9544 16.3896 15.9561C16.388 15.9592 16.3859 15.9627 16.3838 15.9668C16.3793 15.9754 16.3739 15.9867 16.3672 15.999C16.3538 16.0237 16.3359 16.0557 16.3135 16.0938C16.2685 16.17 16.2051 16.272 16.1211 16.3906C15.9536 16.6271 15.7005 16.9369 15.3516 17.2471C14.6453 17.8749 13.5428 18.5 12 18.5C10.4572 18.5 9.35473 17.8749 8.64844 17.2471C8.2995 16.9369 8.04639 16.6271 7.87891 16.3906C7.79488 16.272 7.73146 16.17 7.68652 16.0938C7.66411 16.0557 7.64617 16.0237 7.63281 15.999C7.62612 15.9867 7.6207 15.9754 7.61621 15.9668C7.6141 15.9627 7.61198 15.9592 7.61035 15.9561C7.60951 15.9544 7.60813 15.9526 7.60742 15.9512L7.60645 15.9492V15.9482C7.60974 15.9461 7.66348 15.9183 8.5 15.5L7.60547 15.9473C7.35848 15.4533 7.55876 14.8525 8.05273 14.6055C8.54371 14.36 9.13991 14.5565 9.38965 15.0439L9.3916 15.0459C9.39408 15.0505 9.39953 15.0617 9.40918 15.0781C9.42868 15.1112 9.46303 15.1656 9.51172 15.2344C9.60987 15.3729 9.76306 15.5631 9.97656 15.7529C10.3953 16.1251 11.0428 16.5 12 16.5C12.9572 16.5 13.6047 16.1251 14.0234 15.7529C14.2369 15.5631 14.3901 15.3729 14.4883 15.2344C14.537 15.1656 14.5713 15.1112 14.5908 15.0781C14.6005 15.0617 14.6059 15.0505 14.6084 15.0459C14.6094 15.0441 14.6105 15.0437 14.6104 15.0439ZM9.11035 9.04395C9.36009 8.55652 9.95629 8.35998 10.4473 8.60547C10.9412 8.85246 11.1415 9.45329 10.8945 9.94727L10 9.5C10.8944 9.94721 10.8947 9.94788 10.8945 9.94824H10.8936L10.8926 9.9502C10.8921 9.95106 10.8921 9.95217 10.8916 9.95312C10.8904 9.95551 10.8882 9.95902 10.8867 9.96191C10.8838 9.96747 10.8809 9.97413 10.877 9.98145C10.8687 9.99689 10.8576 10.0165 10.8447 10.0391C10.819 10.0841 10.7836 10.1429 10.7383 10.2109C10.6487 10.3453 10.5142 10.5248 10.332 10.707C9.97303 11.066 9.35876 11.5 8.5 11.5C7.64124 11.5 7.02697 11.066 6.66797 10.707C6.48576 10.5248 6.35132 10.3453 6.26172 10.2109C6.21636 10.1429 6.18098 10.0841 6.15527 10.0391C6.14238 10.0165 6.13129 9.99689 6.12305 9.98145C6.11915 9.97413 6.11615 9.96747 6.11328 9.96191C6.11179 9.95902 6.10961 9.95551 6.1084 9.95312C6.10792 9.95217 6.10786 9.95106 6.10742 9.9502L6.10645 9.94824H6.10547C6.10529 9.94788 6.10557 9.94721 7 9.5L6.10547 9.94727C5.85848 9.45329 6.05876 8.85246 6.55273 8.60547C7.04658 8.35854 7.64644 8.55904 7.89355 9.05273V9.0498C7.8996 9.06021 7.91028 9.07832 7.92578 9.10156C7.96118 9.15466 8.01424 9.22518 8.08203 9.29297C8.22303 9.43397 8.35876 9.5 8.5 9.5C8.64124 9.5 8.77697 9.43397 8.91797 9.29297C8.98576 9.22518 9.03882 9.15466 9.07422 9.10156C9.09136 9.07586 9.10286 9.05657 9.1084 9.04688L9.11035 9.04395ZM14.8936 9.0498C14.8996 9.06021 14.9103 9.07832 14.9258 9.10156C14.9612 9.15466 15.0142 9.22518 15.082 9.29297C15.223 9.43397 15.3588 9.5 15.5 9.5C15.6412 9.5 15.777 9.43397 15.918 9.29297C15.9858 9.22518 16.0388 9.15466 16.0742 9.10156C16.0914 9.07586 16.1029 9.05657 16.1084 9.04688L16.1104 9.04395C16.3601 8.55652 16.9563 8.35998 17.4473 8.60547C17.9412 8.85246 18.1415 9.45329 17.8945 9.94727L17 9.5C17.8944 9.94721 17.8947 9.94788 17.8945 9.94824H17.8936L17.8926 9.9502C17.8921 9.95106 17.8921 9.95217 17.8916 9.95312C17.8904 9.95551 17.8882 9.95902 17.8867 9.96191C17.8839 9.96747 17.8808 9.97413 17.877 9.98145C17.8687 9.99689 17.8576 10.0165 17.8447 10.0391C17.819 10.0841 17.7836 10.1429 17.7383 10.2109C17.6487 10.3453 17.5142 10.5248 17.332 10.707C16.973 11.066 16.3588 11.5 15.5 11.5C14.6412 11.5 14.027 11.066 13.668 10.707C13.4858 10.5248 13.3513 10.3453 13.2617 10.2109C13.2164 10.1429 13.181 10.0841 13.1553 10.0391C13.1424 10.0165 13.1313 9.99689 13.123 9.98145C13.1191 9.97413 13.1162 9.96747 13.1133 9.96191C13.1118 9.95902 13.1096 9.95551 13.1084 9.95312C13.1079 9.95217 13.1079 9.95106 13.1074 9.9502L13.1064 9.94824H13.1055C13.1053 9.94788 13.1056 9.94721 14 9.5L13.1055 9.94727C12.8585 9.45329 13.0588 8.85246 13.5527 8.60547C14.0466 8.35854 14.6464 8.55904 14.8936 9.05273V9.0498Z" fill="#9E9E9E"/>
</g>
</svg>
