<svg width="24" height="24" viewBox="0 0 24 24" fill="none" xmlns="http://www.w3.org/2000/svg">
<g id="icons/Emoji/smiling-face-with-squinting-eyes">
<path id="Union" d="M12 1C18.0751 1 23 5.92487 23 12C23 18.0751 18.0751 23 12 23C5.92487 23 1 18.0751 1 12C1 5.92487 5.92487 1 12 1ZM12 3C7.02943 3 3 7.02943 3 12C3 16.9706 7.02943 21 12 21C16.9706 21 21 16.9706 21 12C21 7.02943 16.9706 3 12 3ZM14.6104 15.0439C14.8601 14.5565 15.4563 14.36 15.9473 14.6055C16.4412 14.8525 16.6415 15.4533 16.3945 15.9473L15.5 15.5C16.3365 15.9183 16.3903 15.9461 16.3936 15.9482V15.9492L16.3926 15.9512C16.3919 15.9526 16.3905 15.9544 16.3896 15.9561C16.388 15.9592 16.3859 15.9627 16.3838 15.9668C16.3793 15.9754 16.3739 15.9867 16.3672 15.999C16.3538 16.0237 16.3359 16.0557 16.3135 16.0938C16.2685 16.17 16.2051 16.272 16.1211 16.3906C15.9536 16.6271 15.7005 16.9369 15.3516 17.2471C14.6453 17.8749 13.5428 18.5 12 18.5C10.4572 18.5 9.35473 17.8749 8.64844 17.2471C8.2995 16.9369 8.04639 16.6271 7.87891 16.3906C7.79488 16.272 7.73146 16.17 7.68652 16.0938C7.66411 16.0557 7.64617 16.0237 7.63281 15.999C7.62612 15.9867 7.6207 15.9754 7.61621 15.9668C7.6141 15.9627 7.61198 15.9592 7.61035 15.9561C7.60951 15.9544 7.60813 15.9526 7.60742 15.9512L7.60645 15.9492V15.9482C7.60974 15.9461 7.66348 15.9183 8.5 15.5L7.60547 15.9473C7.35848 15.4533 7.55876 14.8525 8.05273 14.6055C8.54371 14.36 9.13991 14.5565 9.38965 15.0439L9.3916 15.0459C9.39408 15.0505 9.39953 15.0617 9.40918 15.0781C9.42868 15.1112 9.46303 15.1656 9.51172 15.2344C9.60987 15.3729 9.76306 15.5631 9.97656 15.7529C10.3953 16.1251 11.0428 16.5 12 16.5C12.9572 16.5 13.6047 16.1251 14.0234 15.7529C14.2369 15.5631 14.3901 15.3729 14.4883 15.2344C14.537 15.1656 14.5713 15.1112 14.5908 15.0781C14.6005 15.0617 14.6059 15.0505 14.6084 15.0459C14.6094 15.0441 14.6105 15.0437 14.6104 15.0439ZM8.5 7.5C9.76045 7.5 10.5247 8.35312 10.9102 8.96973C11.1116 9.29211 11.2489 9.60661 11.335 9.83594C11.3786 9.95224 11.4107 10.0517 11.4326 10.124C11.4435 10.1598 11.4518 10.1895 11.458 10.2119C11.4611 10.2232 11.4638 10.2337 11.4658 10.2412C11.4668 10.2448 11.4681 10.2483 11.4688 10.251C11.4691 10.2522 11.4695 10.2539 11.4697 10.2549V10.2568C11.4662 10.2581 11.4094 10.2726 10.5 10.5L11.4697 10.2578C11.6035 10.7935 11.2779 11.3358 10.7422 11.4697C10.2065 11.6035 9.6642 11.2779 9.53027 10.7422C9.52831 10.7352 9.52391 10.7217 9.51855 10.7041C9.50731 10.6671 9.48844 10.6098 9.46191 10.5391C9.40733 10.3935 9.32565 10.2076 9.21484 10.0303C8.97524 9.6469 8.73931 9.5 8.5 9.5C8.26069 9.5 8.02476 9.6469 7.78516 10.0303C7.67435 10.2076 7.59267 10.3935 7.53809 10.5391C7.51156 10.6098 7.49269 10.6671 7.48145 10.7041C7.47585 10.7225 7.47157 10.7365 7.46973 10.7432L7.46875 10.7422C7.33482 11.2779 6.79353 11.6035 6.25781 11.4697C5.72209 11.3358 5.39648 10.7935 5.53027 10.2578L6.5 10.5C5.59056 10.2726 5.53375 10.2581 5.53027 10.2568V10.2549C5.53053 10.2539 5.53094 10.2522 5.53125 10.251C5.53194 10.2483 5.53324 10.2448 5.53418 10.2412C5.53616 10.2337 5.53888 10.2232 5.54199 10.2119C5.54817 10.1895 5.55652 10.1598 5.56738 10.124C5.58934 10.0517 5.62143 9.95224 5.66504 9.83594C5.75105 9.60661 5.88836 9.29211 6.08984 8.96973C6.47531 8.35312 7.23955 7.5 8.5 7.5ZM15.5 7.5C16.7604 7.5 17.5247 8.35312 17.9102 8.96973C18.1116 9.29211 18.2489 9.60661 18.335 9.83594C18.3786 9.95224 18.4107 10.0517 18.4326 10.124C18.4435 10.1598 18.4518 10.1895 18.458 10.2119C18.4611 10.2232 18.4638 10.2337 18.4658 10.2412C18.4668 10.2448 18.4681 10.2483 18.4688 10.251C18.4691 10.2522 18.4695 10.2539 18.4697 10.2549V10.2568C18.4662 10.2581 18.4094 10.2726 17.5 10.5L18.4697 10.2578C18.6035 10.7935 18.2779 11.3358 17.7422 11.4697C17.2065 11.6035 16.6642 11.2779 16.5303 10.7422C16.5283 10.7352 16.5239 10.7217 16.5186 10.7041C16.5073 10.6671 16.4884 10.6098 16.4619 10.5391C16.4073 10.3935 16.3257 10.2076 16.2148 10.0303C15.9752 9.6469 15.7393 9.5 15.5 9.5C15.2607 9.5 15.0248 9.6469 14.7852 10.0303C14.6743 10.2076 14.5927 10.3935 14.5381 10.5391C14.5116 10.6098 14.4927 10.6671 14.4814 10.7041C14.4759 10.7225 14.4716 10.7365 14.4697 10.7432L14.4688 10.7422C14.3348 11.2779 13.7935 11.6035 13.2578 11.4697C12.7221 11.3358 12.3965 10.7935 12.5303 10.2578L13.5 10.5C12.5906 10.2726 12.5338 10.2581 12.5303 10.2568V10.2549C12.5305 10.2539 12.5309 10.2522 12.5312 10.251C12.5319 10.2483 12.5332 10.2448 12.5342 10.2412C12.5362 10.2337 12.5389 10.2232 12.542 10.2119C12.5482 10.1895 12.5565 10.1598 12.5674 10.124C12.5893 10.0517 12.6214 9.95224 12.665 9.83594C12.7511 9.60661 12.8884 9.29211 13.0898 8.96973C13.4753 8.35312 14.2396 7.5 15.5 7.5Z" fill="#9E9E9E"/>
</g>
</svg>
