<svg width="24" height="24" viewBox="0 0 24 24" fill="none" xmlns="http://www.w3.org/2000/svg">
<g id="icons/Emoji/smiling-face">
<path id="Union" d="M12 1C18.0751 1 23 5.92487 23 12C23 18.0751 18.0751 23 12 23C5.92487 23 1 18.0751 1 12C1 5.92487 5.92487 1 12 1ZM12 3C7.02943 3 3 7.02943 3 12C3 16.9706 7.02943 21 12 21C16.9706 21 21 16.9706 21 12C21 7.02943 16.9706 3 12 3ZM14.6104 15.0439C14.8601 14.5565 15.4563 14.36 15.9473 14.6055C16.4412 14.8525 16.6415 15.4533 16.3945 15.9473L15.5 15.5C16.3365 15.9183 16.3903 15.9461 16.3936 15.9482V15.9492L16.3926 15.9512C16.3919 15.9526 16.3905 15.9544 16.3896 15.9561C16.388 15.9592 16.3859 15.9627 16.3838 15.9668C16.3793 15.9754 16.3739 15.9867 16.3672 15.999C16.3538 16.0237 16.3359 16.0557 16.3135 16.0938C16.2685 16.17 16.2051 16.272 16.1211 16.3906C15.9536 16.6271 15.7005 16.9369 15.3516 17.2471C14.6453 17.8749 13.5428 18.5 12 18.5C10.4572 18.5 9.35473 17.8749 8.64844 17.2471C8.2995 16.9369 8.04639 16.6271 7.87891 16.3906C7.79488 16.272 7.73146 16.17 7.68652 16.0938C7.66411 16.0557 7.64617 16.0237 7.63281 15.999C7.62612 15.9867 7.6207 15.9754 7.61621 15.9668C7.6141 15.9627 7.61198 15.9592 7.61035 15.9561C7.60951 15.9544 7.60813 15.9526 7.60742 15.9512L7.60645 15.9492V15.9482C7.60974 15.9461 7.66348 15.9183 8.5 15.5L7.60547 15.9473C7.35848 15.4533 7.55876 14.8525 8.05273 14.6055C8.54371 14.36 9.13991 14.5565 9.38965 15.0439L9.3916 15.0459C9.39408 15.0505 9.39953 15.0617 9.40918 15.0781C9.42868 15.1112 9.46303 15.1656 9.51172 15.2344C9.60987 15.3729 9.76306 15.5631 9.97656 15.7529C10.3953 16.1251 11.0428 16.5 12 16.5C12.9572 16.5 13.6047 16.1251 14.0234 15.7529C14.2369 15.5631 14.3901 15.3729 14.4883 15.2344C14.537 15.1656 14.5713 15.1112 14.5908 15.0781C14.6005 15.0617 14.6059 15.0505 14.6084 15.0459C14.6094 15.0441 14.6105 15.0437 14.6104 15.0439ZM8.5 8C9.05229 8 9.5 8.44772 9.5 9V11C9.5 11.5523 9.05229 12 8.5 12C7.94772 12 7.5 11.5523 7.5 11V9C7.5 8.44772 7.94772 8 8.5 8ZM15.5 8C16.0523 8 16.5 8.44772 16.5 9V11C16.5 11.5523 16.0523 12 15.5 12C14.9477 12 14.5 11.5523 14.5 11V9C14.5 8.44772 14.9477 8 15.5 8Z" fill="#9E9E9E"/>
</g>
</svg>
