<svg width="24" height="24" viewBox="0 0 24 24" fill="none" xmlns="http://www.w3.org/2000/svg">
<g id="icons/Emoji/upside-down-face">
<path id="Union" d="M12 1C18.0751 1 23 5.92487 23 12C23 18.0751 18.0751 23 12 23C5.92487 23 1 18.0751 1 12C1 5.92487 5.92487 1 12 1ZM12 3C7.02943 3 3 7.02943 3 12C3 16.9706 7.02943 21 12 21C16.9706 21 21 16.9706 21 12C21 7.02943 16.9706 3 12 3ZM8.5 13.5C9.05229 13.5 9.5 13.9477 9.5 14.5V15C9.5 15.5523 9.05229 16 8.5 16C7.94772 16 7.5 15.5523 7.5 15V14.5C7.5 13.9477 7.94772 13.5 8.5 13.5ZM15.5 13.5C16.0523 13.5 16.5 13.9477 16.5 14.5V15C16.5 15.5523 16.0523 16 15.5 16C14.9477 16 14.5 15.5523 14.5 15V14.5C14.5 13.9477 14.9477 13.5 15.5 13.5ZM12 5.5C13.5428 5.5 14.6453 6.12511 15.3516 6.75293C15.7005 7.0631 15.9536 7.37293 16.1211 7.60938C16.2051 7.728 16.2685 7.83 16.3135 7.90625C16.3359 7.94429 16.3538 7.97632 16.3672 8.00098C16.3739 8.01333 16.3793 8.02458 16.3838 8.0332C16.3859 8.03726 16.388 8.04076 16.3896 8.04395C16.3905 8.0456 16.3919 8.04742 16.3926 8.04883L16.3936 8.05078V8.05176C16.3904 8.05382 16.3421 8.07889 15.627 8.43652L16.3945 8.05273C16.6415 8.54671 16.4412 9.14754 15.9473 9.39453C15.4555 9.64041 14.8574 9.44324 14.6084 8.9541C14.6059 8.94953 14.6005 8.93826 14.5908 8.92188C14.5713 8.88879 14.537 8.83436 14.4883 8.76562C14.3901 8.62708 14.2369 8.43685 14.0234 8.24707C13.6047 7.87489 12.9572 7.5 12 7.5C11.0428 7.5 10.3953 7.87489 9.97656 8.24707C9.76306 8.43685 9.60987 8.62708 9.51172 8.76562C9.46303 8.83436 9.42868 8.88879 9.40918 8.92188C9.39953 8.93826 9.39408 8.94953 9.3916 8.9541C9.39064 8.95588 9.38952 8.9563 9.38965 8.95605C9.38991 8.95556 9.39095 8.95441 9.3916 8.95312C9.39196 8.95242 9.39211 8.95113 9.39258 8.9502L9.39355 8.94922V8.94824C9.1462 9.44137 8.54632 9.64132 8.05273 9.39453C7.55876 9.14754 7.35848 8.54671 7.60547 8.05273L8.37305 8.43652C7.65788 8.07889 7.60957 8.05382 7.60645 8.05176V8.05078L7.60742 8.04883C7.60813 8.04742 7.60951 8.0456 7.61035 8.04395C7.61198 8.04076 7.6141 8.03726 7.61621 8.0332C7.6207 8.02458 7.62612 8.01333 7.63281 8.00098C7.64617 7.97632 7.66411 7.94429 7.68652 7.90625C7.73146 7.83 7.79488 7.728 7.87891 7.60938C8.04639 7.37293 8.2995 7.0631 8.64844 6.75293C9.35473 6.12511 10.4572 5.5 12 5.5Z" fill="#9E9E9E"/>
</g>
</svg>
