<svg width="24" height="24" viewBox="0 0 24 24" fill="none" xmlns="http://www.w3.org/2000/svg">
<g id="icons/Emoji/weary-face">
<path id="Union" d="M12 1C18.0751 1 23 5.92487 23 12C23 18.0751 18.0751 23 12 23C5.92487 23 1 18.0751 1 12C1 5.92487 5.92487 1 12 1ZM12 3C7.02943 3 3 7.02943 3 12C3 16.9706 7.02943 21 12 21C16.9706 21 21 16.9706 21 12C21 7.02943 16.9706 3 12 3ZM12 13.5C13.5428 13.5 14.6453 14.1251 15.3516 14.7529C15.7005 15.0631 15.9536 15.3729 16.1211 15.6094C16.2051 15.728 16.2685 15.83 16.3135 15.9062C16.3359 15.9443 16.3538 15.9763 16.3672 16.001C16.3739 16.0133 16.3793 16.0246 16.3838 16.0332C16.3859 16.0373 16.388 16.0408 16.3896 16.0439C16.3905 16.0456 16.3919 16.0474 16.3926 16.0488L16.3936 16.0508V16.0518C16.3903 16.0539 16.3365 16.0817 15.5 16.5L16.3945 16.0527C16.5495 16.3626 16.5327 16.7306 16.3506 17.0254C16.1684 17.3202 15.8466 17.5 15.5 17.5H8.5C8.15342 17.5 7.83162 17.3202 7.64941 17.0254C7.46733 16.7306 7.45051 16.3626 7.60547 16.0527L8.5 16.5C7.66348 16.0817 7.60974 16.0539 7.60645 16.0518V16.0508L7.60742 16.0488C7.60813 16.0474 7.60951 16.0456 7.61035 16.0439C7.61198 16.0408 7.6141 16.0373 7.61621 16.0332C7.6207 16.0246 7.62612 16.0133 7.63281 16.001C7.64617 15.9763 7.66411 15.9443 7.68652 15.9062C7.73146 15.83 7.79488 15.728 7.87891 15.6094C8.04639 15.3729 8.2995 15.0631 8.64844 14.7529C9.35473 14.1251 10.4572 13.5 12 13.5ZM9.05273 8.10547C9.54671 7.85848 10.1475 8.05876 10.3945 8.55273C10.6415 9.04671 10.4412 9.64754 9.94727 9.89453L7.94727 10.8945C7.45329 11.1415 6.85246 10.9412 6.60547 10.4473C6.35848 9.95329 6.55876 9.35246 7.05273 9.10547L9.05273 8.10547ZM13.6055 8.55273C13.8525 8.05876 14.4533 7.85848 14.9473 8.10547L16.9473 9.10547C17.4412 9.35246 17.6415 9.95329 17.3945 10.4473C17.1475 10.9412 16.5467 11.1415 16.0527 10.8945L14.0527 9.89453C13.5588 9.64754 13.3585 9.04671 13.6055 8.55273Z" fill="#9E9E9E"/>
</g>
</svg>
