<svg width="24" height="24" viewBox="0 0 24 24" fill="none" xmlns="http://www.w3.org/2000/svg">
<g id="icons/Constellation/aquarius">
<path id="Union" d="M14.0797 13.0029C14.392 13.028 14.675 13.1987 14.8434 13.4629L17.6373 17.8545L21.2574 13.8516C21.6277 13.4421 22.2608 13.4103 22.6705 13.7803C23.0798 14.1506 23.1119 14.7828 22.7418 15.1924L18.2418 20.1709C18.0325 20.4025 17.7267 20.5223 17.4156 20.4961C17.1048 20.4698 16.8234 20.3003 16.6559 20.0371L13.8658 15.6533L10.7467 19.1641C10.5408 19.3957 10.2395 19.5195 9.9303 19.498C9.62131 19.4765 9.33942 19.3124 9.1676 19.0547L6.91077 15.6689L2.76819 20.6406C2.41461 21.0648 1.78325 21.1221 1.35901 20.7686C0.935211 20.4149 0.877661 19.7835 1.23108 19.3594L6.23108 13.3594L6.31213 13.2744C6.50994 13.087 6.77784 12.9864 7.05334 13.001C7.36808 13.0179 7.65669 13.1832 7.83167 13.4453L10.1129 16.8672L13.2526 13.3359L13.3346 13.2529C13.537 13.0727 13.8063 12.9811 14.0797 13.0029ZM14.0797 3.00293C14.392 3.02801 14.675 3.19868 14.8434 3.46289L17.6373 7.85449L21.2574 3.85156C21.6277 3.44205 22.2608 3.41034 22.6705 3.78027C23.0798 4.15061 23.1119 4.78279 22.7418 5.19238L18.2418 10.1709C18.0325 10.4025 17.7267 10.5223 17.4156 10.4961C17.1048 10.4698 16.8234 10.3003 16.6559 10.0371L13.8658 5.65332L10.7467 9.16406C10.5408 9.39568 10.2395 9.51951 9.9303 9.49805C9.62131 9.47646 9.33942 9.31242 9.1676 9.05469L6.91077 5.66895L2.76819 10.6406C2.41461 11.0648 1.78325 11.1221 1.35901 10.7686C0.935211 10.4149 0.877661 9.78348 1.23108 9.35938L6.23108 3.35938L6.31213 3.27441C6.50994 3.08698 6.77784 2.98637 7.05334 3.00098C7.36808 3.0179 7.65669 3.18316 7.83167 3.44531L10.1129 6.86719L13.2526 3.33594L13.3346 3.25293C13.537 3.07274 13.8063 2.98113 14.0797 3.00293Z" fill="#9E9E9E"/>
</g>
</svg>
