<svg width="24" height="24" viewBox="0 0 24 24" fill="none" xmlns="http://www.w3.org/2000/svg">
<g id="icons/Constellation/aries">
<path id="Union" d="M15.9631 3.05762C16.8319 2.30515 17.8208 1.91057 18.8293 2.01758C18.8384 2.01854 18.8485 2.01929 18.8576 2.02051C20.0026 2.17434 20.922 2.60498 21.6066 3.25391C22.2869 3.89904 22.6793 4.70694 22.8644 5.52637C23.2254 7.12517 22.8309 8.89307 22.0881 10.0537C21.7904 10.5187 21.1713 10.6539 20.7062 10.3564C20.2414 10.0587 20.106 9.44062 20.4035 8.97559C20.8745 8.23971 21.1509 7.01529 20.9142 5.9668C20.8003 5.4626 20.5748 5.03149 20.2307 4.70508C19.8927 4.38479 19.3832 4.11182 18.6047 4.00488C18.2881 3.97559 17.8347 4.08256 17.2726 4.56934C16.6964 5.0684 16.0557 5.92998 15.4465 7.27344C14.2282 9.96001 13.221 14.3821 12.9992 21.0332C12.9811 21.572 12.5393 21.9999 12.0002 22C11.461 22 11.0193 21.5721 11.0012 21.0332C10.7793 14.3822 9.7721 9.96002 8.55389 7.27344C7.94472 5.93012 7.30391 5.06842 6.72772 4.56934C6.16514 4.08213 5.71132 3.97533 5.39471 4.00488C4.6166 4.11189 4.10759 4.38489 3.76971 4.70508C3.42545 5.03151 3.20004 5.46252 3.08612 5.9668C2.84939 7.0153 3.12589 8.2397 3.59686 8.97559C3.8943 9.4406 3.75893 10.0587 3.29413 10.3564C2.82906 10.6541 2.21009 10.5187 1.91229 10.0537C1.16947 8.89305 0.774912 7.12518 1.13593 5.52637C1.32106 4.70687 1.71331 3.89906 2.39374 3.25391C3.07836 2.60495 3.99769 2.17432 5.14276 2.02051C5.15185 2.01929 5.16197 2.01855 5.17108 2.01758C6.17951 1.91061 7.16847 2.30518 8.03729 3.05762C8.90017 3.80504 9.69103 4.93861 10.3752 6.44727C11.0044 7.8349 11.5595 9.5816 12.0002 11.7227C12.4409 9.58154 12.9959 7.83492 13.6252 6.44727C14.3094 4.9385 15.1001 3.80504 15.9631 3.05762Z" fill="#9E9E9E"/>
</g>
</svg>
