<svg width="24" height="24" viewBox="0 0 24 24" fill="none" xmlns="http://www.w3.org/2000/svg">
<g id="icons/Constellation/cancer">
<path id="Union" d="M5.5 11.5C7.70914 11.5 9.5 13.2909 9.5 15.5C9.5 17.0157 8.65679 18.3341 7.41406 19.0127C7.47617 19.0481 7.53827 19.0865 7.60352 19.1221C8.86814 19.8119 10.7045 20.5 13 20.5C15.2245 20.5 17.0225 19.6111 18.2871 18.6914C18.9174 18.233 19.4045 17.7738 19.7314 17.4326C19.8943 17.2626 20.0167 17.1234 20.0957 17.0293C20.1352 16.9822 20.1631 16.946 20.1807 16.9238C20.1894 16.9128 20.1961 16.9055 20.1992 16.9014C20.2008 16.8994 20.201 16.8977 20.2012 16.8975V16.8984C20.5328 16.458 21.1583 16.3694 21.5996 16.7002C22.0414 17.0315 22.131 17.6578 21.7998 18.0996L21 17.5C21.7827 18.087 21.7997 18.1 21.7998 18.1006L21.7979 18.1035C21.7969 18.1048 21.7953 18.1066 21.7939 18.1084C21.7912 18.112 21.7873 18.1167 21.7832 18.1221C21.7747 18.133 21.7633 18.148 21.749 18.166C21.7202 18.2024 21.6791 18.2523 21.627 18.3145C21.5224 18.439 21.3711 18.6126 21.1748 18.8174C20.783 19.2261 20.2073 19.7672 19.4629 20.3086C17.9775 21.3889 15.7755 22.5 13 22.5C10.2957 22.5 8.13185 21.6881 6.64648 20.8779C5.90364 20.4727 5.3264 20.0656 4.93066 19.7559C4.73288 19.6011 4.57937 19.4703 4.47266 19.375C4.46775 19.3706 4.46273 19.3665 4.45801 19.3623C2.75421 18.9038 1.5 17.3486 1.5 15.5C1.5 13.2909 3.29086 11.5 5.5 11.5ZM5.5 13.5C4.39543 13.5 3.5 14.3954 3.5 15.5C3.5 16.6046 4.39543 17.5 5.5 17.5C6.60457 17.5 7.5 16.6046 7.5 15.5C7.5 14.3954 6.60457 13.5 5.5 13.5ZM11 1.5C13.7043 1.5 15.8682 2.31192 17.3535 3.12207C18.0964 3.52726 18.6736 3.93443 19.0693 4.24414C19.2671 4.39893 19.4206 4.52965 19.5273 4.625C19.5319 4.62907 19.5366 4.63278 19.541 4.63672C21.2454 5.09486 22.5 6.65095 22.5 8.5C22.5 10.7091 20.7091 12.5 18.5 12.5C16.2909 12.5 14.5 10.7091 14.5 8.5C14.5 6.98445 15.3424 5.66498 16.585 4.98633C16.5232 4.95109 16.4613 4.9133 16.3965 4.87793C15.1319 4.18813 13.2955 3.5 11 3.5C8.77553 3.5 6.97745 4.38891 5.71289 5.30859C5.08259 5.76701 4.59552 6.2262 4.26855 6.56738C4.10567 6.73737 3.98329 6.87659 3.9043 6.9707C3.8648 7.01776 3.83688 7.054 3.81934 7.07617C3.81059 7.08722 3.80395 7.09452 3.80078 7.09863C3.79923 7.10064 3.799 7.10231 3.79883 7.10254V7.10059H3.7998C3.79981 7.10055 3.79962 7.10024 3.79883 7.09961C3.46744 7.54111 2.84211 7.63096 2.40039 7.2998C1.95861 6.96847 1.86896 6.34221 2.2002 5.90039L2.72168 6.29102C2.21321 5.90955 2.2003 5.89994 2.2002 5.89941L2.20215 5.89648C2.20314 5.89517 2.20469 5.89339 2.20605 5.8916C2.20877 5.88803 2.21268 5.88328 2.2168 5.87793C2.22525 5.86696 2.23673 5.85198 2.25098 5.83398C2.2798 5.79758 2.32088 5.7477 2.37305 5.68555C2.47759 5.56099 2.6289 5.38745 2.8252 5.18262C3.21695 4.77387 3.79271 4.23279 4.53711 3.69141C6.02255 2.61111 8.22454 1.5 11 1.5ZM18.5 6.5C17.3954 6.5 16.5 7.39543 16.5 8.5C16.5 9.60457 17.3954 10.5 18.5 10.5C19.6046 10.5 20.5 9.60457 20.5 8.5C20.5 7.39543 19.6046 6.5 18.5 6.5Z" fill="#9E9E9E"/>
</g>
</svg>
