<svg width="24" height="24" viewBox="0 0 24 24" fill="none" xmlns="http://www.w3.org/2000/svg">
<g id="icons/Constellation/capricornus">
<path id="Union" d="M12 1.5C14.2091 1.5 16 3.29086 16 5.5V11.5361C16.5884 11.1956 17.2712 11 18 11C20.2091 11 22 12.7909 22 15C22 17.2091 20.2091 19 18 19C17.2506 19 16.5498 18.7932 15.9502 18.4346C15.9415 18.4934 15.933 18.5563 15.9209 18.6221C15.845 19.0346 15.6921 19.5979 15.376 20.1709C15.0568 20.7494 14.5675 21.3434 13.8301 21.7891C13.0905 22.2359 12.156 22.5 11 22.5C10.4477 22.5 10 22.0523 10 21.5C10 20.9477 10.4477 20.5 11 20.5C11.8436 20.5 12.4095 20.3108 12.7949 20.0781C13.1821 19.8442 13.4433 19.5317 13.624 19.2041C13.8078 18.871 13.905 18.5279 13.9541 18.2607C13.9783 18.1293 13.9896 18.022 13.9951 17.9521C13.9979 17.9174 13.9995 17.8924 14 17.8789V5.5C14 4.39543 13.1046 3.5 12 3.5C10.8954 3.5 10 4.39543 10 5.5V14.5C10 15.0523 9.55228 15.5 9 15.5C8.44772 15.5 8 15.0523 8 14.5V5.5C8 4.39543 7.10457 3.5 6 3.5C4.89543 3.5 4 4.39543 4 5.5C4 6.05228 3.55228 6.5 3 6.5C2.44772 6.5 2 6.05228 2 5.5C2 3.29086 3.79086 1.5 6 1.5C7.19504 1.5 8.26704 2.02463 9 2.85547C9.73296 2.02463 10.805 1.5 12 1.5ZM18 13C16.8954 13 16 13.8954 16 15C16 16.1046 16.8954 17 18 17C19.1046 17 20 16.1046 20 15C20 13.8954 19.1046 13 18 13Z" fill="#9E9E9E"/>
</g>
</svg>
