<svg width="24" height="24" viewBox="0 0 24 24" fill="none" xmlns="http://www.w3.org/2000/svg">
<g id="icons/Constellation/leo">
<path id="Union" d="M12 1.5C13.2472 1.5 15.155 1.81556 16.5342 3.20508C17.9733 4.65523 18.5846 7.0071 17.7402 10.5146C17.6467 10.9032 17.4384 11.4045 17.2852 11.7539C17.2033 11.9406 17.1267 12.1075 17.0703 12.2275C17.042 12.2877 17.0184 12.3369 17.002 12.3711C16.9937 12.3882 16.986 12.4017 16.9814 12.4111L16.1885 14.1953C16.1828 14.2081 16.1771 14.2209 16.1709 14.2334C15.81 14.9604 15.3922 16.2794 15.4375 17.5459C15.4811 18.7657 15.9324 19.8138 17.1895 20.3984C17.4313 20.5109 17.9562 20.5671 18.4727 20.3662C18.9324 20.1873 19.358 19.816 19.5244 19.0801C19.6462 18.5414 20.182 18.2034 20.7207 18.3252C21.2593 18.447 21.5974 18.9828 21.4756 19.5215C21.1505 20.9594 20.2244 21.8301 19.1982 22.2295C18.229 22.6067 17.1339 22.5779 16.3467 22.2119C14.21 21.2184 13.5002 19.3434 13.4385 17.6172C13.3792 15.9598 13.8975 14.3311 14.3613 13.3818L15.1631 11.5801C15.168 11.569 15.1734 11.5578 15.1787 11.5469L15.1797 11.5459C15.1805 11.5443 15.1818 11.5408 15.1836 11.5371C15.1871 11.5298 15.1932 11.5184 15.2002 11.5039C15.2144 11.4744 15.2344 11.4309 15.2598 11.377C15.3109 11.2682 15.3809 11.118 15.4541 10.9512C15.6112 10.5931 15.7491 10.2412 15.7959 10.0469C16.5438 6.93994 15.8956 5.40075 15.1152 4.61426C14.2749 3.7675 13.0027 3.5 12 3.5C10.2455 3.5 9.16133 4.47949 8.45996 5.90918C7.88834 7.07447 7.622 8.46727 7.53516 9.63574C9.24245 10.0919 10.5 11.6489 10.5 13.5C10.5 15.7091 8.70914 17.5 6.5 17.5C4.29086 17.5 2.5 15.7091 2.5 13.5C2.5 11.6246 3.79071 10.0509 5.53223 9.61816C5.62208 8.24314 5.92948 6.52771 6.66504 5.02832C7.58868 3.1456 9.2545 1.5 12 1.5ZM6.5 11.5C5.39543 11.5 4.5 12.3954 4.5 13.5C4.5 14.6046 5.39543 15.5 6.5 15.5C7.60457 15.5 8.5 14.6046 8.5 13.5C8.5 12.3954 7.60457 11.5 6.5 11.5Z" fill="#9E9E9E"/>
</g>
</svg>
