<svg width="24" height="24" viewBox="0 0 24 24" fill="none" xmlns="http://www.w3.org/2000/svg">
<g id="icons/Constellation/libra">
<path id="Union" d="M22 18.5C22.5523 18.5 23 18.9477 23 19.5C23 20.0523 22.5523 20.5 22 20.5H2C1.44772 20.5 1 20.0523 1 19.5C1 18.9477 1.44772 18.5 2 18.5H22ZM12 3.5C15.5898 3.5 18.5 6.41017 18.5 10C18.5 10.885 18.3222 11.7298 18.001 12.5H22C22.5523 12.5 23 12.9477 23 13.5C23 14.0523 22.5523 14.5 22 14.5H16.25C16.2484 14.5 16.2467 14.499 16.2451 14.499C16.0201 14.4997 15.7936 14.4259 15.6064 14.2715C15.1805 13.9199 15.1201 13.2892 15.4717 12.8633C15.5269 12.7964 15.5799 12.7277 15.6309 12.6582C15.6798 12.5915 15.7271 12.5236 15.7725 12.4541L15.9365 12.1826C16.2956 11.5368 16.5 10.7934 16.5 10C16.5 7.51473 14.4853 5.5 12 5.5C9.51474 5.5 7.5 7.51473 7.5 10C7.5 10.907 7.76769 11.7488 8.22754 12.4541H8.22656L8.36914 12.6582V12.6592C8.41999 12.7285 8.4732 12.7965 8.52832 12.8633C8.87992 13.2892 8.81946 13.9199 8.39355 14.2715C8.20615 14.4261 7.97923 14.4999 7.75391 14.499C7.7526 14.499 7.7513 14.5 7.75 14.5H2C1.44772 14.5 1 14.0523 1 13.5C1 12.9477 1.44772 12.5 2 12.5H5.99902C5.6778 11.7298 5.5 10.885 5.5 10C5.5 6.41017 8.41017 3.5 12 3.5Z" fill="#9E9E9E"/>
</g>
</svg>
