<svg width="24" height="24" viewBox="0 0 24 24" fill="none" xmlns="http://www.w3.org/2000/svg">
<g id="icons/Constellation/pisces">
<path id="Union" d="M4.47852 2.64648C4.9497 2.3587 5.56554 2.50746 5.85352 2.97852V2.97949L5.85449 2.98047C5.85502 2.98134 5.85564 2.98298 5.85645 2.98438C5.85827 2.98739 5.86111 2.99186 5.86426 2.99707C5.87083 3.00795 5.8807 3.02403 5.89258 3.04395C5.91642 3.08393 5.95118 3.14184 5.99414 3.21582C6.08019 3.36402 6.20144 3.57805 6.34668 3.84473C6.63707 4.37792 7.02507 5.12792 7.41309 5.99512C8.04953 7.4176 8.73133 9.25485 8.93652 11H15.0645C15.2718 9.27859 15.9527 7.4462 16.5859 6.02344C16.9735 5.15265 17.3614 4.39648 17.6514 3.8584C17.7964 3.58926 17.918 3.37335 18.0039 3.22363C18.0468 3.14892 18.0807 3.09017 18.1045 3.0498C18.1162 3.02994 18.1253 3.01386 18.1318 3.00293C18.135 2.99752 18.1378 2.99234 18.1396 2.98926C18.1405 2.98801 18.1421 2.98718 18.1426 2.98633V2.98438H18.1436C18.4285 2.5116 19.0427 2.35891 19.5156 2.64355C19.9885 2.92845 20.1411 3.54261 19.8564 4.01562L19.8555 4.01758C19.8545 4.01925 19.8529 4.02254 19.8506 4.02637C19.8458 4.0344 19.8381 4.04755 19.8281 4.06445C19.808 4.09867 19.7771 4.15098 19.7383 4.21875C19.6602 4.35495 19.5469 4.55561 19.4111 4.80762C19.1387 5.31314 18.7763 6.02306 18.4141 6.83691C17.8255 8.15922 17.282 9.66676 17.082 11H22C22.5522 11 22.9998 11.4479 23 12C23 12.5523 22.5523 13 22 13H17.082C17.282 14.3333 17.8255 15.8406 18.4141 17.1631C18.7763 17.9769 19.1387 18.6868 19.4111 19.1924C19.5469 19.4444 19.6602 19.645 19.7383 19.7812C19.7771 19.849 19.808 19.9013 19.8281 19.9355C19.838 19.9524 19.8458 19.9655 19.8506 19.9736C19.8528 19.9774 19.8544 19.9807 19.8555 19.9824L19.8564 19.9844C20.1412 20.4574 19.9885 21.0715 19.5156 21.3564C19.0426 21.6412 18.4285 21.4886 18.1436 21.0156H18.1426V21.0137C18.1419 21.0129 18.1404 21.012 18.1396 21.0107C18.1378 21.0076 18.135 21.0024 18.1318 20.9971C18.1253 20.9861 18.1162 20.97 18.1045 20.9502C18.0807 20.9098 18.0467 20.8511 18.0039 20.7764C17.918 20.6266 17.7964 20.4107 17.6514 20.1416C17.3614 19.6035 16.9735 18.8473 16.5859 17.9766C15.9526 16.5537 15.2717 14.7215 15.0645 13H8.93652C8.73143 14.7452 8.04958 16.5823 7.41309 18.0049C7.02509 18.8721 6.63708 19.622 6.34668 20.1553C6.20146 20.4219 6.08021 20.6359 5.99414 20.7842C5.9512 20.8581 5.91645 20.916 5.89258 20.9561C5.88072 20.9759 5.87085 20.992 5.86426 21.0029C5.86113 21.0081 5.8583 21.0126 5.85645 21.0156C5.85563 21.017 5.855 21.0186 5.85449 21.0195L5.85352 21.0205V21.0215C5.56557 21.4928 4.9498 21.6415 4.47852 21.3535C4.00734 21.0655 3.85857 20.4498 4.14648 19.9785L4.14746 19.9775C4.14845 19.9758 4.15007 19.9725 4.15234 19.9688C4.15711 19.9609 4.16487 19.9483 4.1748 19.9316C4.19482 19.8981 4.22496 19.8469 4.26367 19.7803C4.34161 19.646 4.45509 19.4475 4.59082 19.1982C4.86286 18.6987 5.22511 17.9961 5.58691 17.1875C6.17673 15.8692 6.72203 14.3556 6.91992 13H2C1.44772 13 1 12.5523 1 12C1.00017 11.4479 1.44782 11 2 11H6.91992C6.72194 9.64447 6.17669 8.13068 5.58691 6.8125C5.22509 6.00383 4.86285 5.30125 4.59082 4.80176C4.45506 4.5525 4.34159 4.35392 4.26367 4.21973C4.22494 4.15302 4.1948 4.10189 4.1748 4.06836C4.16484 4.05165 4.15708 4.0391 4.15234 4.03125C4.15004 4.02742 4.14843 4.02406 4.14746 4.02246L4.14648 4.02148C3.85873 3.55023 4.00731 2.93438 4.47852 2.64648Z" fill="#9E9E9E"/>
</g>
</svg>
