<svg width="24" height="24" viewBox="0 0 24 24" fill="none" xmlns="http://www.w3.org/2000/svg">
<g id="icons/Constellation/sagittarius">
<path id="Union" d="M20.5001 2.5C20.5588 2.5 20.6161 2.50593 20.672 2.51562C20.6791 2.51686 20.6864 2.51716 20.6935 2.51855C20.7093 2.52166 20.7248 2.52642 20.7404 2.53027C20.7573 2.53445 20.7744 2.5379 20.7911 2.54297C20.8402 2.55788 20.8872 2.57767 20.9327 2.59961C20.9742 2.61956 21.0148 2.64195 21.0538 2.66797C21.1654 2.74237 21.2612 2.83825 21.3351 2.9502C21.3802 3.01862 21.415 3.0917 21.4415 3.16699C21.4463 3.18037 21.452 3.1934 21.4562 3.20703C21.4624 3.22732 21.4669 3.24799 21.4718 3.26855C21.4895 3.34293 21.5001 3.42023 21.5001 3.5V13.5C21.5001 14.0523 21.0524 14.5 20.5001 14.5C19.9478 14.5 19.5001 14.0523 19.5001 13.5V5.91406L10.4142 15L14.2072 18.793C14.5976 19.1835 14.5976 19.8165 14.2072 20.207C13.8166 20.5975 13.1836 20.5975 12.7931 20.207L9.00012 16.4141L4.20715 21.207C3.81664 21.5975 3.18362 21.5975 2.79309 21.207C2.40257 20.8165 2.40257 20.1835 2.79309 19.793L7.58606 15L3.79309 11.207C3.40257 10.8165 3.40257 10.1835 3.79309 9.79297C4.18362 9.40248 4.81664 9.40246 5.20715 9.79297L9.00012 13.5859L18.0861 4.5H10.5001C9.94784 4.5 9.50012 4.05228 9.50012 3.5C9.50012 2.94772 9.94784 2.5 10.5001 2.5H20.5001Z" fill="#9E9E9E"/>
</g>
</svg>
