<svg width="24" height="24" viewBox="0 0 24 24" fill="none" xmlns="http://www.w3.org/2000/svg">
<g id="icons/Constellation/scorpio">
<path id="Union" d="M11 2C13.2091 2 15 3.79086 15 6V17C15 18.1046 15.8954 19 17 19C18.1046 19 19 18.1046 19 17V13.9141L18.707 14.207C18.3165 14.5976 17.6835 14.5976 17.293 14.207C16.9024 13.8165 16.9024 13.1835 17.293 12.793L19.293 10.793C19.3548 10.7312 19.4248 10.6778 19.501 10.6338C19.5154 10.6255 19.5302 10.6179 19.5449 10.6104C19.6073 10.5784 19.6731 10.5526 19.7422 10.5342C19.7588 10.5298 19.7753 10.525 19.792 10.5215C19.803 10.5192 19.8141 10.5176 19.8252 10.5156C19.8427 10.5125 19.8603 10.51 19.8779 10.5078C19.8957 10.5056 19.9136 10.5041 19.9316 10.5029C19.9476 10.5018 19.9635 10.5013 19.9795 10.501C19.9863 10.5008 19.9931 10.5 20 10.5C20.0069 10.5 20.0137 10.5008 20.0205 10.501C20.0381 10.5013 20.0557 10.5017 20.0732 10.5029C20.1225 10.5065 20.1707 10.514 20.2178 10.5244C20.2269 10.5264 20.236 10.529 20.2451 10.5312C20.3141 10.5487 20.3799 10.5736 20.4424 10.6045C20.4746 10.6204 20.5064 10.6376 20.5371 10.6572C20.5714 10.6791 20.6045 10.7027 20.6357 10.7285C20.6602 10.7487 20.6841 10.7701 20.707 10.793L22.707 12.793C23.0976 13.1835 23.0976 13.8165 22.707 14.207C22.3165 14.5976 21.6835 14.5976 21.293 14.207L21 13.9141V17C21 19.2091 19.2091 21 17 21C14.7909 21 13 19.2091 13 17V6C13 4.89543 12.1046 4 11 4C9.89543 4 9 4.89543 9 6V15C9 15.5523 8.55228 16 8 16C7.44772 16 7 15.5523 7 15V6C7 4.89543 6.10457 4 5 4C3.89543 4 3 4.89543 3 6V15C3 15.5523 2.55228 16 2 16C1.44772 16 1 15.5523 1 15V6C1 3.79086 2.79086 2 5 2C6.19504 2 7.26704 2.52463 8 3.35547C8.73296 2.52463 9.80496 2 11 2Z" fill="#9E9E9E"/>
</g>
</svg>
