<svg width="24" height="24" viewBox="0 0 24 24" fill="none" xmlns="http://www.w3.org/2000/svg">
<g id="icons/Constellation/taurus">
<path id="Union" d="M22 3C22.5523 3 23 3.44772 23 4C23 6.3488 21.6385 8.37271 19.6445 9.76855C18.5471 10.5368 17.235 11.132 15.7881 11.5146C16.8419 12.5167 17.5 13.931 17.5 15.5C17.5 18.5376 15.0376 21 12 21C8.96243 21 6.5 18.5376 6.5 15.5C6.5 13.9313 7.15739 12.5166 8.21094 11.5146C6.76439 11.132 5.45269 10.5366 4.35547 9.76855C2.36151 8.37271 1 6.3488 1 4C1 3.44772 1.44772 3 2 3C2.55228 3 3 3.44772 3 4C3 5.51708 3.87682 6.99322 5.50195 8.13086C7.12402 9.2663 9.41859 10 12 10C14.5814 10 16.876 9.2663 18.498 8.13086C20.1232 6.99322 21 5.51708 21 4C21 3.44772 21.4477 3 22 3ZM12 12C10.067 12 8.5 13.567 8.5 15.5C8.5 17.433 10.067 19 12 19C13.933 19 15.5 17.433 15.5 15.5C15.5 13.567 13.933 12 12 12Z" fill="#9E9E9E"/>
</g>
</svg>
