<svg width="24" height="24" viewBox="0 0 24 24" fill="none" xmlns="http://www.w3.org/2000/svg">
<g id="icons/Constellation/virgo">
<path id="Union" d="M12 1.5C14.2092 1.5 16 3.29086 16 5.5V7.50879C16.8764 7.53131 17.9341 7.61714 18.9004 7.94824C19.6089 8.19103 20.3164 8.57891 20.8838 9.20605C21.4587 9.84156 21.8384 10.6663 21.9707 11.6914C22.1369 12.98 21.6006 14.3853 20.1943 16.0381C19.6706 16.6536 19.0107 17.3214 18.1914 18.0518C18.8734 18.3234 19.7834 18.5 21 18.5C21.5523 18.5 22 18.9477 22 19.5C22 20.0523 21.5523 20.5 21 20.5C19.1107 20.5 17.6315 20.1282 16.5215 19.4473C15.4152 20.3234 14.106 21.2809 12.5605 22.3281C12.1034 22.6377 11.4816 22.5186 11.1719 22.0615C10.8621 21.6043 10.9823 20.9827 11.4395 20.6729C12.8447 19.7206 14.0335 18.8573 15.0361 18.0742C14.2547 16.9834 14 15.692 14 14.5V5.5C14 4.39543 13.1046 3.5 12 3.5C10.8954 3.5 10 4.39543 10 5.5V14.5C10 15.0523 9.55228 15.5 9 15.5C8.44772 15.5 8 15.0523 8 14.5V5.5C8 4.39543 7.10455 3.5 6 3.5C4.89543 3.5 4 4.39543 4 5.5V14.5C4 15.0523 3.55228 15.5 3 15.5C2.44772 15.5 2 15.0523 2 14.5V5.5C2 3.29086 3.79086 1.5 6 1.5C7.19505 1.5 8.26704 2.02463 9 2.85547C9.73296 2.02463 10.805 1.5 12 1.5ZM16 14.5C16 15.3779 16.176 16.1669 16.5859 16.7988C17.477 16.024 18.159 15.3438 18.6709 14.7422C19.9068 13.2897 20.0503 12.4357 19.9873 11.9473C19.9018 11.2851 19.6756 10.8511 19.4014 10.5479C19.1194 10.2362 18.7338 10.005 18.252 9.83984C17.5583 9.60221 16.7667 9.53126 16 9.50977V14.5Z" fill="#9E9E9E"/>
</g>
</svg>
