<svg width="24" height="24" viewBox="0 0 24 24" fill="none" xmlns="http://www.w3.org/2000/svg">
<g id="icons/Graphics/hexagon-one">
<path id="Union" d="M11.0283 1.396C11.6323 1.0605 12.3677 1.0605 12.9717 1.396L20.9717 5.84033C21.6063 6.19307 21.9999 6.86235 22 7.58838V16.4116C22 17.1377 21.6063 17.8069 20.9717 18.1597L12.9717 22.604C12.3676 22.9396 11.6324 22.9396 11.0283 22.604L3.02832 18.1597C2.39365 17.8068 2 17.1377 2 16.4116V7.58838C2.00011 6.86237 2.39365 6.19308 3.02832 5.84033L11.0283 1.396ZM4 7.58838V16.4116L12 20.856L20 16.4116V7.58838L12 3.14404L4 7.58838Z" fill="#9E9E9E"/>
</g>
</svg>
