<svg width="24" height="24" viewBox="0 0 24 24" fill="none" xmlns="http://www.w3.org/2000/svg">
<g id="icons/Graphics/octagon">
<path id="Union" d="M15.5752 1.5C16.118 1.5 16.6377 1.7207 17.0146 2.11133L21.9395 7.21484C22.2991 7.58762 22.4999 8.08553 22.5 8.60352V15.3965C22.4999 15.9145 22.2991 16.4124 21.9395 16.7852L17.0146 21.8887C16.6377 22.2794 16.118 22.5 15.5752 22.5H8.4248C7.94983 22.5 7.49223 22.3314 7.13281 22.0273L6.98535 21.8887L2.06055 16.7852C1.74578 16.4589 1.55308 16.0365 1.50977 15.5889L1.5 15.3965V8.60352C1.50007 8.08549 1.70099 7.58756 2.06055 7.21484L6.98535 2.11133C7.36226 1.7207 7.88199 1.5 8.4248 1.5H15.5752ZM3.5 8.60352V15.3965L8.4248 20.5H15.5752L20.5 15.3965V8.60352L15.5752 3.5H8.4248L3.5 8.60352Z" fill="#9E9E9E"/>
</g>
</svg>
