<svg width="24" height="24" viewBox="0 0 24 24" fill="none" xmlns="http://www.w3.org/2000/svg">
<g id="icons/Graphics/oval-one">
<path id="Union" d="M12 1C14.3488 1 16.3727 2.36151 17.7686 4.35547C19.1666 6.35269 20 9.05856 20 12C20 14.9414 19.1666 17.6473 17.7686 19.6445C16.3727 21.6385 14.3488 23 12 23C9.65121 23 7.62729 21.6385 6.23145 19.6445C4.83339 17.6473 4 14.9414 4 12C4 9.05856 4.83339 6.35269 6.23145 4.35547C7.62729 2.36151 9.65121 1 12 1ZM12 3C10.4829 3 9.00678 3.87682 7.86914 5.50195C6.7337 7.12402 6 9.41859 6 12C6 14.5814 6.7337 16.876 7.86914 18.498C9.00678 20.1232 10.4829 21 12 21C13.5171 21 14.9932 20.1232 16.1309 18.498C17.2663 16.876 18 14.5814 18 12C18 9.41859 17.2663 7.12402 16.1309 5.50195C14.9932 3.87682 13.5171 3 12 3Z" fill="#9E9E9E"/>
</g>
</svg>
