<svg width="24" height="24" viewBox="0 0 24 24" fill="none" xmlns="http://www.w3.org/2000/svg">
<g id="icons/Graphics/quadrilateral">
<path id="Union" d="M14.0186 3C15.0117 3 15.9115 3.58805 16.3096 4.49805L21.9971 17.498C22.7196 19.1497 21.5088 21 19.7061 21H3.5C2.1193 21 1 19.8807 1 18.5V5.5C1 4.11929 2.11929 3 3.5 3H14.0186ZM3.5 5C3.22386 5 3 5.22386 3 5.5V18.5C3 18.7762 3.22385 19 3.5 19H19.7061C20.0666 19 20.3086 18.6302 20.1641 18.2998L14.4766 5.2998C14.397 5.11784 14.2172 5 14.0186 5H3.5Z" fill="#9E9E9E"/>
</g>
</svg>
