<svg width="24" height="24" viewBox="0 0 24 24" fill="none" xmlns="http://www.w3.org/2000/svg">
<g id="icons/Graphics/trapezoid">
<path id="Union" d="M15.8971 3C16.9902 3.00019 17.9566 3.71063 18.2828 4.75391L22.3453 17.7539C22.8484 19.3637 21.6459 20.9997 19.9596 21H4.03967C2.35339 20.9997 1.15101 19.3635 1.65393 17.7539L5.71643 4.75391C6.04269 3.71064 7.00907 3.00023 8.10217 3H15.8971ZM8.10217 5C7.88373 5.00023 7.68987 5.14209 7.62463 5.35059L3.56213 18.3506C3.46167 18.6723 3.70265 18.9997 4.03967 19H19.9596C20.2967 18.9997 20.5367 18.6724 20.4362 18.3506L16.3737 5.35059C16.3083 5.14223 16.1155 5.00019 15.8971 5H8.10217Z" fill="#9E9E9E"/>
</g>
</svg>
