<svg width="24" height="24" viewBox="0 0 24 24" fill="none" xmlns="http://www.w3.org/2000/svg">
<g id="icons/Connect/anchor-squre">
<path id="Union" d="M14 4C14.5523 4 15 4.44772 15 5V6H18V5.5C18 4.94772 18.4477 4.5 19 4.5H22C22.5523 4.5 23 4.94772 23 5.5V8.5C23 9.05228 22.5523 9.5 22 9.5H19C18.4477 9.5 18 9.05228 18 8.5V8H15V8.55078C16.5958 9.149 18.0026 10.1936 19.1191 11.4814C20.8922 13.5267 22 16.2546 22 19C22 19.5523 21.5523 20 21 20C20.4477 20 20 19.5523 20 19C20 16.7748 19.0927 14.5031 17.6084 12.791C16.1261 11.0812 14.1348 10 12 10C9.86522 10 7.87394 11.0812 6.3916 12.791C4.90731 14.5031 4 16.7748 4 19C4 19.5523 3.55228 20 3 20C2.44772 20 2 19.5523 2 19C2 16.2546 3.10781 13.5267 4.88086 11.4814C5.99736 10.1936 7.40423 9.149 9 8.55078V8H6V8.5C6 9.05228 5.55228 9.5 5 9.5H2C1.44772 9.5 1 9.05228 1 8.5V5.5C1 4.94772 1.44772 4.5 2 4.5H5C5.55228 4.5 6 4.94772 6 5.5V6H9V5C9 4.44772 9.44771 4 10 4H14ZM12 6C11.4477 6 11 6.44772 11 7C11 7.55228 11.4477 8 12 8C12.5523 8 13 7.55228 13 7C13 6.44772 12.5523 6 12 6ZM3 7.5H4V6.5H3V7.5ZM20 7.5H21V6.5H20V7.5Z" fill="#9E9E9E"/>
</g>
</svg>
