<svg width="24" height="24" viewBox="0 0 24 24" fill="none" xmlns="http://www.w3.org/2000/svg">
<g id="icons/Connect/anchor">
<path id="Union" d="M5 1C6.10457 1 7 1.89543 7 3H17C17 1.89543 17.8954 1 19 1H21C22.1046 1 23 1.89543 23 3V5C23 6.10457 22.1046 7 21 7V17C22.1046 17 23 17.8954 23 19V21C23 22.1046 22.1046 23 21 23H19C17.8954 23 17 22.1046 17 21H7C7 22.1046 6.10457 23 5 23H3C1.89543 23 1 22.1046 1 21V19C1 17.8954 1.89543 17 3 17V7C1.89543 7 1 6.10457 1 5V3C1 1.89543 1.89543 1 3 1H5ZM3 21H5V19H3V21ZM19 21H21V19H19V21ZM7 5C7 6.10457 6.10457 7 5 7V17C6.10457 17 7 17.8954 7 19H17C17 17.8954 17.8954 17 19 17V7C17.8954 7 17 6.10457 17 5H7ZM3 5H5V3H3V5ZM19 5H21V3H19V5Z" fill="#9E9E9E"/>
</g>
</svg>
