<svg width="24" height="24" viewBox="0 0 24 24" fill="none" xmlns="http://www.w3.org/2000/svg">
<g id="icons/Connect/anchor-one">
<path id="Union" d="M6 2C6.55228 2 7 2.44772 7 3V4H17V3C17 2.44772 17.4477 2 18 2H22C22.5523 2 23 2.44772 23 3V7C23 7.55228 22.5523 8 22 8H18C17.9613 8 17.9233 7.99743 17.8857 7.99316C18.1104 8.32895 18.3249 8.67545 18.5264 9.03027C19.8471 11.3563 20.7446 14.1581 20.9531 16.5H22C22.5523 16.5 23 16.9477 23 17.5V21.5C23 22.0523 22.5523 22.5 22 22.5H18C17.4477 22.5 17 22.0523 17 21.5V17.5C17 16.9477 17.4477 16.5 18 16.5H18.9424C18.7349 14.5272 17.9598 12.0828 16.7871 10.0176C16.1013 8.80983 15.3083 7.78255 14.4668 7.06836C13.6254 6.35424 12.7943 6 12 6C11.2057 6 10.3746 6.35424 9.5332 7.06836C8.69171 7.78255 7.89868 8.80983 7.21289 10.0176C6.04025 12.0828 5.26509 14.5272 5.05762 16.5H6C6.55228 16.5 7 16.9477 7 17.5V21.5C7 22.0523 6.55228 22.5 6 22.5H2C1.44772 22.5 1 22.0523 1 21.5V17.5C1 16.9477 1.44772 16.5 2 16.5H3.04688C3.25537 14.1581 4.15292 11.3563 5.47363 9.03027C5.67502 8.6756 5.88876 8.32881 6.11328 7.99316C6.07608 7.99736 6.03832 8 6 8H2C1.44772 8 1 7.55228 1 7V3C1 2.44772 1.44772 2 2 2H6ZM3 20.5H5V18.5H3V20.5ZM19 20.5H21V18.5H19V20.5ZM7 6V6.80762C7.23874 6.52219 7.48761 6.25242 7.74512 6H7ZM16.2549 6C16.5124 6.25242 16.7613 6.52219 17 6.80762V6H16.2549ZM3 6H5V4H3V6ZM19 6H21V4H19V6Z" fill="#9E9E9E"/>
</g>
</svg>
