<svg width="24" height="24" viewBox="0 0 24 24" fill="none" xmlns="http://www.w3.org/2000/svg">
<g id="icons/Connect/anchor-round">
<path id="Union" d="M12 4C13.3059 4 14.4141 4.83532 14.8262 6H18.21C18.5959 5.11743 19.4751 4.5 20.5 4.5C21.8807 4.5 23 5.61929 23 7C23 8.38071 21.8807 9.5 20.5 9.5C19.4751 9.5 18.5959 8.88257 18.21 8H14.8262C14.774 8.14745 14.7122 8.28995 14.6387 8.42578C16.3835 8.9957 17.9192 10.0973 19.1191 11.4814C20.8922 13.5267 22 16.2546 22 19C22 19.5523 21.5523 20 21 20C20.4477 20 20 19.5523 20 19C20 16.7748 19.0927 14.5031 17.6084 12.791C16.1261 11.0812 14.1348 10 12 10C9.86522 10 7.87394 11.0812 6.3916 12.791C4.90731 14.5031 4 16.7748 4 19C4 19.5523 3.55228 20 3 20C2.44772 20 2 19.5523 2 19C2 16.2546 3.10781 13.5267 4.88086 11.4814C6.08059 10.0976 7.61593 8.99578 9.36035 8.42578C9.28689 8.29007 9.22595 8.1473 9.17383 8H5.79004C5.4041 8.88257 4.52488 9.5 3.5 9.5C2.11929 9.5 1 8.38071 1 7C1 5.61929 2.11929 4.5 3.5 4.5C4.52488 4.5 5.4041 5.11743 5.79004 6H9.17383C9.58594 4.83532 10.6941 4 12 4ZM12 6C11.4477 6 11 6.44772 11 7C11 7.55228 11.4477 8 12 8C12.5523 8 13 7.55228 13 7C13 6.44772 12.5523 6 12 6ZM3.5 6.5C3.22386 6.5 3 6.72386 3 7C3 7.27614 3.22386 7.5 3.5 7.5C3.77614 7.5 4 7.27614 4 7C4 6.72386 3.77614 6.5 3.5 6.5ZM20.5 6.5C20.2239 6.5 20 6.72386 20 7C20 7.27614 20.2239 7.5 20.5 7.5C20.7761 7.5 21 7.27614 21 7C21 6.72386 20.7761 6.5 20.5 6.5Z" fill="#9E9E9E"/>
</g>
</svg>
