<svg width="24" height="24" viewBox="0 0 24 24" fill="none" xmlns="http://www.w3.org/2000/svg">
<g id="icons/Connect/api">
<path id="Union" d="M9.29309 9.79297C9.68362 9.40244 10.3166 9.40244 10.7072 9.79297C11.0976 10.1835 11.0977 10.8165 10.7072 11.207L9.41418 12.5L11.5001 14.5859L12.7931 13.293C13.1836 12.9024 13.8166 12.9024 14.2072 13.293C14.5976 13.6835 14.5977 14.3165 14.2072 14.707L12.9142 16L13.2072 16.293C13.5976 16.6835 13.5976 17.3165 13.2072 17.707L11.7072 19.207C11.1655 19.7487 10.0875 20.3348 8.86829 20.5195C7.84705 20.6742 6.65897 20.554 5.57141 19.8418L3.70715 21.707C3.31665 22.0975 2.68362 22.0975 2.29309 21.707C1.90257 21.3165 1.90257 20.6835 2.29309 20.293L4.15735 18.4277C3.44559 17.3405 3.32504 16.1527 3.47961 15.1318C3.66435 13.9126 4.25152 12.8346 4.79309 12.293L6.29309 10.793L6.36633 10.7266C6.54427 10.5808 6.76807 10.5 7.00012 10.5C7.26531 10.5 7.51964 10.6055 7.70715 10.793L8.00012 11.0859L9.29309 9.79297ZM6.20715 13.707C5.99875 13.9155 5.58496 14.5877 5.45715 15.4307C5.33736 16.2214 5.47981 17.0656 6.20715 17.793L6.34485 17.9229C7.03971 18.5372 7.82818 18.6553 8.56946 18.543C9.41239 18.4152 10.0847 18.0013 10.2931 17.793L11.0861 17L7.00012 12.9141L6.20715 13.707ZM20.2931 2.29297C20.6836 1.90244 21.3166 1.90244 21.7072 2.29297C22.0976 2.6835 22.0977 3.31653 21.7072 3.70703L19.8419 5.57129C20.554 6.65884 20.6743 7.84695 20.5197 8.86816C20.3465 10.0112 19.821 11.0305 19.3097 11.5996L19.2072 11.707L17.7072 13.207C17.3167 13.5975 16.6836 13.5974 16.2931 13.207L10.7931 7.70703C10.6056 7.51953 10.5002 7.26517 10.5001 7C10.5001 6.7348 10.6056 6.4805 10.7931 6.29297L12.2931 4.79297C12.8347 4.25132 13.9127 3.66423 15.132 3.47949C16.1528 3.32491 17.3406 3.44543 18.4279 4.15723L20.2931 2.29297ZM17.7931 6.20703C17.0657 5.47967 16.2216 5.33723 15.4308 5.45703C14.5877 5.58485 13.9155 5.99867 13.7072 6.20703L12.9142 7L17.0001 11.0859L17.7931 10.293C18.0015 10.0846 18.4153 9.41231 18.5431 8.56934C18.6629 7.77859 18.5204 6.93438 17.7931 6.20703Z" fill="#9E9E9E"/>
</g>
</svg>
