<svg width="24" height="24" viewBox="0 0 24 24" fill="none" xmlns="http://www.w3.org/2000/svg">
<g id="icons/Connect/applet-closed">
<path id="Union" d="M6.79309 15.793C7.18362 15.4024 7.81663 15.4024 8.20715 15.793C8.5976 16.1835 8.59765 16.8165 8.20715 17.207L3.70715 21.707C3.31665 22.0975 2.68362 22.0975 2.29309 21.707C1.90257 21.3165 1.90257 20.6835 2.29309 20.293L6.79309 15.793ZM15.7931 15.793C16.1836 15.4024 16.8166 15.4024 17.2072 15.793L21.7072 20.293C22.0976 20.6835 22.0977 21.3165 21.7072 21.707C21.3167 22.0975 20.6836 22.0975 20.2931 21.707L15.7931 17.207C15.4026 16.8165 15.4026 16.1835 15.7931 15.793ZM12.0001 8.5C13.9331 8.50004 15.5001 10.067 15.5001 12C15.5001 13.9329 13.933 15.5 12.0001 15.5C10.0672 15.5 8.50016 13.933 8.50012 12C8.50012 10.067 10.0671 8.5 12.0001 8.5ZM12.0001 10.5C11.1717 10.5 10.5001 11.1716 10.5001 12C10.5002 12.8284 11.1717 13.5 12.0001 13.5C12.8285 13.5 13.5001 12.8284 13.5001 12C13.5001 11.1716 12.8285 10.5 12.0001 10.5ZM2.29309 2.29297C2.68362 1.90244 3.31663 1.90244 3.70715 2.29297L8.20715 6.79297C8.5976 7.1835 8.59765 7.81653 8.20715 8.20703C7.81665 8.59753 7.18362 8.59748 6.79309 8.20703L2.29309 3.70703C1.90257 3.31651 1.90257 2.68349 2.29309 2.29297ZM20.2931 2.29297C20.6836 1.90244 21.3166 1.90244 21.7072 2.29297C22.0976 2.6835 22.0977 3.31653 21.7072 3.70703L17.2072 8.20703C16.8167 8.59753 16.1836 8.59748 15.7931 8.20703C15.4026 7.81651 15.4026 7.18349 15.7931 6.79297L20.2931 2.29297Z" fill="#9E9E9E"/>
</g>
</svg>
