<svg width="24" height="24" viewBox="0 0 24 24" fill="none" xmlns="http://www.w3.org/2000/svg">
<g id="icons/Connect/assembly-line">
<path id="Union" d="M8 2C9.30585 2 10.4141 2.83532 10.8262 4H17.5C20.0441 4.00007 22.0002 5.89807 22 8.5C21.9997 11.1016 20.0443 12.9999 17.5 13H6.5C5.04431 13.0001 3.99987 14.0188 4 15.5C4.00018 16.9815 5.04451 17.9999 6.5 18H13.1738C13.5859 16.8353 14.6941 16 16 16C17.3059 16 18.4141 16.8353 18.8262 18H21C21.5523 18 22 18.4477 22 19C22 19.5523 21.5523 20 21 20H18.8262C18.4141 21.1647 17.3059 22 16 22C14.6941 22 13.5859 21.1647 13.1738 20H6.5C3.95569 19.9999 2.00024 18.1017 2 15.5C1.99981 12.8981 3.95589 11.0001 6.5 11H17.5C18.9555 10.9999 19.9998 9.9815 20 8.5C20.0001 7.01878 18.9557 6.00007 17.5 6H10.8262C10.4141 7.16468 9.30585 8 8 8C6.69415 8 5.58594 7.16468 5.17383 6H3C2.44772 6 2 5.55228 2 5C2 4.44772 2.44772 4 3 4H5.17383C5.58594 2.83532 6.69415 2 8 2ZM16 18C15.4477 18 15 18.4477 15 19C15 19.5523 15.4477 20 16 20C16.5523 20 17 19.5523 17 19C17 18.4477 16.5523 18 16 18ZM8 4C7.44772 4 7 4.44772 7 5C7 5.55228 7.44772 6 8 6C8.55228 6 9 5.55228 9 5C9 4.44772 8.55228 4 8 4Z" fill="#9E9E9E"/>
</g>
</svg>
