<svg width="24" height="24" viewBox="0 0 24 24" fill="none" xmlns="http://www.w3.org/2000/svg">
<g id="icons/Connect/bezier-curve">
<path id="Union" d="M14 4C14.5523 4 15 4.44772 15 5V6H22C22.5523 6 23 6.44772 23 7C23 7.55228 22.5523 8 22 8H17.6543C19.4504 9.45255 20.6759 11.5809 20.9434 14H22C22.5523 14 23 14.4477 23 15V19C23 19.5523 22.5523 20 22 20H18C17.4477 20 17 19.5523 17 19V15C17 14.4477 17.4477 14 18 14H18.9277C18.5902 11.6413 17.0773 9.66178 15 8.6748V9C15 9.55228 14.5523 10 14 10H10C9.44771 10 9 9.55228 9 9V8.6748C6.92271 9.66178 5.40981 11.6413 5.07227 14H6C6.55228 14 7 14.4477 7 15V19C7 19.5523 6.55228 20 6 20H2C1.44772 20 1 19.5523 1 19V15C1 14.4477 1.44772 14 2 14H3.05664C3.32407 11.5809 4.54962 9.45255 6.3457 8H2C1.44772 8 1 7.55228 1 7C1 6.44772 1.44772 6 2 6H9V5C9 4.44772 9.44771 4 10 4H14ZM3 18H5V16H3V18ZM19 18H21V16H19V18ZM11 8H13V6H11V8Z" fill="#9E9E9E"/>
</g>
</svg>
