<svg width="24" height="24" viewBox="0 0 24 24" fill="none" xmlns="http://www.w3.org/2000/svg">
<g id="icons/Connect/branch">
<path id="Union" d="M4.5 1C6.15683 1 7.5 2.34314 7.5 4C7.5 5.30572 6.66451 6.41299 5.5 6.8252V11.0039H17.1729C17.5839 9.83726 18.6928 9 20 9C21.6568 9 23 10.3432 23 12C23 13.6568 21.6568 15 20 15C18.6957 15 17.5891 14.1664 17.1758 13.0039H5.5V17.1738C6.66467 17.5859 7.5 18.6942 7.5 20C7.5 21.6568 6.15683 23 4.5 23C2.84314 23 1.5 21.6568 1.5 20C1.5 18.6942 2.33532 17.5859 3.5 17.1738V6.8252C2.33548 6.41299 1.5 5.30572 1.5 4C1.5 2.34315 2.84315 1 4.5 1ZM4.5 19C3.94772 19 3.5 19.4477 3.5 20C3.5 20.5523 3.94772 21 4.5 21C5.05227 21 5.5 20.5523 5.5 20C5.5 19.4477 5.05227 19 4.5 19ZM20 11C19.4477 11 19 11.4477 19 12C19 12.5523 19.4477 13 20 13C20.5523 13 21 12.5523 21 12C21 11.4477 20.5523 11 20 11ZM4.5 3C3.94771 3 3.5 3.44771 3.5 4C3.5 4.55227 3.94772 5 4.5 5C5.05227 5 5.5 4.55227 5.5 4C5.5 3.44772 5.05227 3 4.5 3Z" fill="#9E9E9E"/>
</g>
</svg>
