<svg width="24" height="24" viewBox="0 0 24 24" fill="none" xmlns="http://www.w3.org/2000/svg">
<g id="icons/Connect/branch-one">
<path id="Union" d="M19 3.5C19.5523 3.5 20 3.94772 20 4.5V7.5C20 8.05228 19.5523 8.5 19 8.5H13V11.5H16.9873L17.0957 11.5059C17.3463 11.5332 17.5789 11.6546 17.7451 11.8477L20.7578 15.3477C20.7992 15.3957 20.8345 15.447 20.8652 15.5H22C22.5523 15.5 23 15.9477 23 16.5V20.5C23 21.0523 22.5523 21.5 22 21.5H18C17.4477 21.5 17 21.0523 17 20.5V16.5C17 15.9477 17.4477 15.5 18 15.5H18.25L16.5283 13.5H13V15.5H14C14.5523 15.5 15 15.9477 15 16.5V20.5C15 21.0523 14.5523 21.5 14 21.5H10C9.44771 21.5 9 21.0523 9 20.5V16.5C9 15.9477 9.44771 15.5 10 15.5H11V13.5H7.45898L5.74512 15.5H6C6.55228 15.5 7 15.9477 7 16.5V20.5C7 21.0523 6.55228 21.5 6 21.5H2C1.44772 21.5 1 21.0523 1 20.5V16.5C1 15.9477 1.44772 15.5 2 15.5H3.13477C3.16511 15.4477 3.20041 15.3972 3.24121 15.3496L6.24121 11.8496L6.31641 11.7705C6.50072 11.5978 6.74469 11.5 7 11.5H11V8.5H5C4.44772 8.5 4 8.05228 4 7.5V4.5C4 3.94772 4.44772 3.5 5 3.5H19ZM3 19.5H5V17.5H3V19.5ZM11 19.5H13V17.5H11V19.5ZM19 19.5H21V17.5H19V19.5ZM6 6.5H18V5.5H6V6.5Z" fill="#9E9E9E"/>
</g>
</svg>
