<svg width="24" height="24" viewBox="0 0 24 24" fill="none" xmlns="http://www.w3.org/2000/svg">
<g id="icons/Connect/branch-two">
<path id="Union" d="M18 1C19.6568 1 21 2.34314 21 4C21 5.30572 20.1645 6.41299 19 6.8252V8C19 9.52561 17.9367 10.5681 16.8271 11.291C15.6999 12.0254 14.2268 12.6244 12.8789 13.1758C11.4768 13.7494 10.1998 14.2755 9.26465 14.8848C8.31174 15.5056 8 16.0256 8 16.5V17.1738C9.16467 17.5859 10 18.6942 10 20C10 21.6568 8.65683 23 7 23C5.34317 23 4 21.6568 4 20C4 18.6942 4.83533 17.5859 6 17.1738V6.8252C4.83549 6.41299 4 5.30572 4 4C4 2.34314 5.34317 1 7 1C8.65683 1 10 2.34314 10 4C10 5.30572 9.16451 6.41299 8 6.8252V13.3252C8.05749 13.2857 8.11496 13.2467 8.17285 13.209C9.30011 12.4746 10.7732 11.8756 12.1211 11.3242C13.5232 10.7506 14.8002 10.2245 15.7354 9.61523C16.6883 8.9944 17 8.47439 17 8V6.8252C15.8355 6.41299 15 5.30572 15 4C15 2.34314 16.3432 1 18 1ZM7 19C6.44773 19 6 19.4477 6 20C6 20.5523 6.44773 21 7 21C7.55227 21 8 20.5523 8 20C8 19.4477 7.55227 19 7 19ZM7 3C6.44773 3 6 3.44772 6 4C6 4.55227 6.44773 5 7 5C7.55227 5 8 4.55227 8 4C8 3.44772 7.55227 3 7 3ZM18 3C17.4477 3 17 3.44772 17 4C17 4.55227 17.4477 5 18 5C18.5523 5 19 4.55227 19 4C19 3.44772 18.5523 3 18 3Z" fill="#9E9E9E"/>
</g>
</svg>
