<svg width="24" height="24" viewBox="0 0 24 24" fill="none" xmlns="http://www.w3.org/2000/svg">
<g id="icons/Connect/clue">
<path id="Union" d="M18.5 2C20.433 2 22 3.567 22 5.5C22 7.08534 20.9455 8.4231 19.5 8.85352V17.752C19.5 20.098 17.598 22 15.252 22C12.9059 21.9999 11.0039 20.0979 11.0039 17.752V6.25195C11.0038 5.0082 9.99566 4 8.75195 4C7.50826 4.00008 6.50008 5.00826 6.5 6.25195V15.1455C7.94566 15.5758 9 16.9146 9 18.5C9 20.433 7.43298 22 5.5 22C3.567 22 2 20.433 2 18.5C2 16.9146 3.05433 15.5758 4.5 15.1455V6.25195C4.50008 3.90369 6.40368 2.00008 8.75195 2C11.1002 2 13.0038 3.90365 13.0039 6.25195V17.752C13.0039 18.9934 14.0105 19.9999 15.252 20C16.4934 20 17.5 18.9934 17.5 17.752V8.85352C16.0545 8.4231 15 7.08534 15 5.5C15 3.567 16.567 2 18.5 2ZM5.5 17C4.67158 17 4 17.6716 4 18.5C4 19.3284 4.67158 20 5.5 20C6.32842 20 7 19.3284 7 18.5C7 17.6716 6.32842 17 5.5 17ZM18.5 4C17.6716 4 17 4.67158 17 5.5C17 6.32842 17.6716 7 18.5 7C19.3284 7 20 6.32842 20 5.5C20 4.67158 19.3284 4 18.5 4Z" fill="#9E9E9E"/>
</g>
</svg>
