<svg width="24" height="24" viewBox="0 0 24 24" fill="none" xmlns="http://www.w3.org/2000/svg">
<g id="icons/Connect/command">
<path id="Union" d="M19.2725 1C21.3308 1.00013 22.999 2.6691 22.999 4.72754C22.9989 6.78584 21.3308 8.45397 19.2725 8.4541H17.5459V15.5469H19.2725C21.3308 15.547 22.999 17.216 22.999 19.2744C22.9989 21.3327 21.3307 23.0008 19.2725 23.001C17.214 23.001 15.5451 21.3328 15.5449 19.2744V17.5439H8.4541V19.2744C8.45394 21.3327 6.78584 23.0008 4.72754 23.001C2.66911 23.001 1.00016 21.3328 1 19.2744C1 17.2159 2.66902 15.5469 4.72754 15.5469H6.45508V8.4541H4.72754C2.6691 8.4541 1.00014 6.78592 1 4.72754C1 2.66902 2.66902 1 4.72754 1C6.78592 1.00014 8.4541 2.6691 8.4541 4.72754V6.45312H15.5449V4.72754C15.5449 2.66901 17.2139 1 19.2725 1ZM4.72754 17.5469C3.77358 17.5469 3 18.3205 3 19.2744C3.00016 20.2283 3.77369 21.001 4.72754 21.001C5.68125 21.0008 6.45394 20.2282 6.4541 19.2744V17.5469H4.72754ZM17.5449 19.2744C17.5451 20.2282 18.3186 21.001 19.2725 21.001C20.2262 21.0008 20.9989 20.2282 20.999 19.2744C20.999 18.3206 20.2263 17.547 19.2725 17.5469H17.5449V19.2744ZM8.45508 15.5439H15.5459V8.45312H8.45508V15.5439ZM4.72754 3C3.77359 3 3 3.77359 3 4.72754C3.00014 5.68136 3.77368 6.4541 4.72754 6.4541H6.4541V4.72754C6.4541 3.77368 5.68136 3.00014 4.72754 3ZM19.2725 3C18.3185 3 17.5449 3.7736 17.5449 4.72754V6.4541H19.2725C20.2262 6.45397 20.9989 5.68128 20.999 4.72754C20.999 3.77367 20.2263 3.00013 19.2725 3Z" fill="#9E9E9E"/>
</g>
</svg>
