<svg width="24" height="24" viewBox="0 0 24 24" fill="none" xmlns="http://www.w3.org/2000/svg">
<g id="icons/Connect/connection-point-two">
<path id="Union" d="M20 1C21.6568 1 23 2.34314 23 4C23 5.65683 21.6568 7 20 7C18.6942 7 17.5859 6.16467 17.1738 5H6.5C5.92498 5 4.99769 5.20336 4.24219 5.70703C3.52756 6.18345 3 6.89579 3 8C3 9.10421 3.52756 9.81655 4.24219 10.293C4.99769 10.7966 5.92498 11 6.5 11H17.5C18.425 11 19.7477 11.2966 20.8672 12.043C22.0276 12.8165 23 14.1042 23 16C23 17.8958 22.0276 19.1835 20.8672 19.957C19.7477 20.7034 18.425 21 17.5 21H6.82617C6.41405 22.1647 5.30583 23 4 23C2.34314 23 1 21.6568 1 20C1 18.3432 2.34314 17 4 17C5.30583 17 6.41405 17.8353 6.82617 19H17.5C18.075 19 19.0023 18.7966 19.7578 18.293C20.4724 17.8165 21 17.1042 21 16C21 14.8958 20.4724 14.1835 19.7578 13.707C19.0023 13.2034 18.075 13 17.5 13H6.5C5.57502 13 4.25231 12.7034 3.13281 11.957C1.97244 11.1835 1 9.89579 1 8C1 6.10421 1.97244 4.81655 3.13281 4.04297C4.25231 3.29664 5.57502 3 6.5 3H17.1738C17.5859 1.83532 18.6942 1 20 1ZM4 19C3.44772 19 3 19.4477 3 20C3 20.5523 3.44772 21 4 21C4.55227 21 5 20.5523 5 20C5 19.4477 4.55227 19 4 19ZM20 3C19.4477 3 19 3.44772 19 4C19 4.55227 19.4477 5 20 5C20.5523 5 21 4.55227 21 4C21 3.44772 20.5523 3 20 3Z" fill="#9E9E9E"/>
</g>
</svg>
