<svg width="24" height="24" viewBox="0 0 24 24" fill="none" xmlns="http://www.w3.org/2000/svg">
<g id="icons/Connect/connect">
<path id="Union" d="M17 1C18.6568 1 20 2.34314 20 4C20 5.65683 18.6568 7 17 7C16.5368 7 16.0997 6.89159 15.708 6.7041L15.707 6.70703L15.1709 7.24219C15.6947 8.03274 16 8.98065 16 10C16 11.0438 15.6799 12.0127 15.1328 12.8145L17.2168 15.4189C17.7537 15.1511 18.3592 15 19 15C21.2091 15 23 16.7909 23 19C23 21.2091 21.2091 23 19 23C16.7909 23 15 21.2091 15 19C15 18.1579 15.2607 17.3769 15.7051 16.7324L13.6895 14.2139C12.9127 14.7106 11.9904 15 11 15C10.3786 15 9.78427 14.8849 9.23535 14.6777L8.24707 15.666C8.72017 16.323 9 17.1286 9 18C9 20.2091 7.20913 22 5 22C2.79086 22 1 20.2091 1 18C1 15.7909 2.79086 14 5 14C5.60959 14 6.18705 14.137 6.7041 14.3809L7.50781 13.5771C6.57791 12.6692 6 11.4023 6 10C6 9.24328 6.16785 8.5257 6.46875 7.88281L5.29004 6.7041C4.89875 6.89111 4.4626 7 4 7C2.34314 7 1 5.65683 1 4C1 2.34315 2.34315 1 4 1C5.65683 1 7 2.34314 7 4C7 4.4626 6.89111 4.89875 6.7041 5.29004L7.67773 6.26367C8.56102 5.47771 9.72464 5 11 5C12.0189 5 12.9665 5.30481 13.7568 5.82812L14.293 5.29297L14.2949 5.29102C14.1078 4.89962 14 4.46276 14 4C14 2.34314 15.3432 1 17 1ZM19 17C17.8954 17 17 17.8954 17 19C17 20.1046 17.8954 21 19 21C20.1046 21 21 20.1046 21 19C21 17.8954 20.1046 17 19 17ZM5 16C3.89543 16 3 16.8954 3 18C3 19.1046 3.89543 20 5 20C6.10457 20 7 19.1046 7 18C7 16.8954 6.10457 16 5 16ZM11 7C9.34313 7 8 8.34313 8 10C8 11.6569 9.34313 13 11 13C12.6569 13 14 11.6569 14 10C14 8.34313 12.6569 7 11 7ZM4 3C3.44771 3 3 3.44771 3 4C3 4.55227 3.44772 5 4 5C4.55227 5 5 4.55227 5 4C5 3.44772 4.55227 3 4 3ZM17 3C16.4477 3 16 3.44772 16 4C16 4.55227 16.4477 5 17 5C17.5523 5 18 4.55227 18 4C18 3.44772 17.5523 3 17 3Z" fill="#9E9E9E"/>
</g>
</svg>
