<svg width="24" height="24" viewBox="0 0 24 24" fill="none" xmlns="http://www.w3.org/2000/svg">
<g id="icons/Connect/connect-address-one">
<path id="Union" d="M12 2C13.6569 2 15 3.34315 15 5C15 6.30574 14.1645 7.41299 13 7.8252V19.9355C16.9461 19.4433 20 16.0795 20 12C20 11.4477 20.4477 11 21 11C21.5523 11 22 11.4477 22 12C22 17.5228 17.5228 22 12 22C6.47717 22 2 17.5228 2 12C2 11.4477 2.44772 11 3 11C3.55228 11 4 11.4477 4 12C4 16.0795 7.05385 19.4433 11 19.9355V7.8252C9.83548 7.41299 9 6.30574 9 5C9 3.34315 10.3431 2 12 2ZM12 4C11.4477 4 11 4.44772 11 5C11 5.55228 11.4477 6 12 6C12.5523 6 13 5.55228 13 5C13 4.44772 12.5523 4 12 4Z" fill="#9E9E9E"/>
</g>
</svg>
