<svg width="24" height="24" viewBox="0 0 24 24" fill="none" xmlns="http://www.w3.org/2000/svg">
<g id="icons/Connect/connect-address-two">
<path id="Union" d="M12 2C13.6569 2 15 3.34315 15 5C15 6.30574 14.1645 7.41299 13 7.8252V19.9355C16.6185 19.4842 19.4842 16.6185 19.9355 13H18C17.4477 13 17 12.5523 17 12C17 11.4477 17.4477 11 18 11H21C21.5523 11 22 11.4477 22 12C22 17.5228 17.5228 22 12 22C6.47717 22 2 17.5228 2 12C2 11.4477 2.44772 11 3 11H6C6.55228 11 7 11.4477 7 12C7 12.5523 6.55228 13 6 13H4.06445C4.51582 16.6185 7.38155 19.4842 11 19.9355V7.8252C9.83548 7.41299 9 6.30574 9 5C9 3.34315 10.3431 2 12 2ZM12 4C11.4477 4 11 4.44772 11 5C11 5.55228 11.4477 6 12 6C12.5523 6 13 5.55228 13 5C13 4.44772 12.5523 4 12 4Z" fill="#9E9E9E"/>
</g>
</svg>
