<svg width="24" height="24" viewBox="0 0 24 24" fill="none" xmlns="http://www.w3.org/2000/svg">
<g id="icons/Connect/connection-point">
<path id="Union" d="M14 1C15.1046 1 16 1.89544 16 3V7C16 8.10458 15.1046 9 14 9H13V11H21.5C22.0523 11 22.5 11.4477 22.5 12C22.5 12.5523 22.0523 13 21.5 13H19V15H20C21.1046 15 22 15.8954 22 17V21C22 22.1046 21.1046 23 20 23H16C14.8954 23 14 22.1046 14 21V17C14 15.8954 14.8954 15 16 15H17V13H7V15H8C9.10458 15 10 15.8954 10 17V21C10 22.1046 9.10458 23 8 23H4C2.89544 23 2 22.1046 2 21V17C2 15.8954 2.89544 15 4 15H5V13H2.5C1.94772 13 1.5 12.5523 1.5 12C1.5 11.4477 1.94772 11 2.5 11H11V9H10C8.89542 9 8 8.10458 8 7V3C8 1.89544 8.89541 1 10 1H14ZM4 21H8V17H4V21ZM16 21H20V17H16V21ZM10 7H14V3H10V7Z" fill="#9E9E9E"/>
</g>
</svg>
