<svg width="24" height="24" viewBox="0 0 24 24" fill="none" xmlns="http://www.w3.org/2000/svg">
<g id="icons/Connect/connection-box">
<path id="Union" d="M21.5 1C22.4086 1 23 1.77607 23 2.5459V7.4541C23 8.22396 22.4086 9 21.5 9H8V11.0039L17 11.0088C17.5521 11.009 18 11.4567 18 12.0088V15H21.5C22.4086 15 23 15.776 23 16.5459V21.4541C23 22.224 22.4086 23 21.5 23H2.5C1.59147 23 1 22.224 1 21.4541V16.5459C1 15.776 1.59147 15 2.5 15H16V13.0078L7 13.0039C6.44789 13.0037 6 12.556 6 12.0039V9H2.5C1.59147 9 1 8.22397 1 7.4541V2.5459C1 1.77605 1.59145 1 2.5 1H21.5ZM3 21H21V17H3V21ZM15 18C15.5523 18 16 18.4477 16 19C16 19.5523 15.5523 20 15 20H9C8.44772 20 8 19.5523 8 19C8 18.4477 8.44772 18 9 18H15ZM3 7H21V3H3V7ZM15 4C15.5523 4 16 4.44772 16 5C16 5.55228 15.5523 6 15 6H9C8.44772 6 8 5.55228 8 5C8 4.44772 8.44772 4 9 4H15Z" fill="#9E9E9E"/>
</g>
</svg>
