<svg width="24" height="24" viewBox="0 0 24 24" fill="none" xmlns="http://www.w3.org/2000/svg">
<g id="icons/Connect/connection">
<path id="Union" d="M4 1C5.30583 1 6.41405 1.83532 6.82617 3H10C11.6568 3 13 4.34314 13 6V17.5C13 18.0523 13.4477 18.5 14 18.5H19.5859L18.793 17.707C18.4024 17.3165 18.4024 16.6835 18.793 16.293C19.1835 15.9024 19.8165 15.9024 20.207 16.293L22.707 18.793C22.7548 18.8408 22.7976 18.8935 22.835 18.9502C22.8597 18.9877 22.8812 19.0266 22.9004 19.0664C22.9222 19.1116 22.9412 19.1584 22.9561 19.207C22.9623 19.2273 22.9668 19.248 22.9717 19.2686C22.9893 19.3429 23 19.4202 23 19.5C23 19.5563 22.9933 19.6112 22.9844 19.665C22.9772 19.7078 22.9688 19.7503 22.9561 19.792C22.9412 19.8407 22.9222 19.8874 22.9004 19.9326C22.8936 19.9468 22.8864 19.9607 22.8789 19.9746C22.851 20.0262 22.8184 20.0745 22.7822 20.1201C22.7586 20.1498 22.7345 20.1796 22.707 20.207L20.207 22.707C19.8165 23.0976 19.1835 23.0976 18.793 22.707C18.4024 22.3165 18.4024 21.6835 18.793 21.293L19.5859 20.5H14C12.3432 20.5 11 19.1568 11 17.5V6C11 5.44772 10.5523 5 10 5H6.82617C6.41405 6.16467 5.30583 7 4 7C2.34314 7 1 5.65683 1 4C1 2.34315 2.34315 1 4 1ZM4 3C3.44771 3 3 3.44771 3 4C3 4.55227 3.44772 5 4 5C4.55227 5 5 4.55227 5 4C5 3.44772 4.55227 3 4 3Z" fill="#9E9E9E"/>
</g>
</svg>
