<svg width="24" height="24" viewBox="0 0 24 24" fill="none" xmlns="http://www.w3.org/2000/svg">
<g id="icons/Connect/fork">
<path id="Union" d="M18.5 1C20.1568 1 21.5 2.34314 21.5 4C21.5 5.30572 20.6645 6.41299 19.5 6.8252V7.5C19.5 8.71234 18.9294 9.6893 18.2324 10.4756C17.5477 11.2481 16.6529 11.9326 15.8594 12.543C15.028 13.1825 14.2976 13.7482 13.7637 14.3506C13.2419 14.9393 13 15.4623 13 16V17.1738C14.1647 17.5859 15 18.6942 15 20C15 21.6568 13.6568 23 12 23C10.3432 23 9 21.6568 9 20C9 18.6942 9.83533 17.5859 11 17.1738V16C11 15.4623 10.7581 14.9393 10.2363 14.3506C9.70236 13.7482 8.97198 13.1825 8.14062 12.543C7.34715 11.9326 6.45227 11.2481 5.76758 10.4756C5.07064 9.6893 4.5 8.71234 4.5 7.5V6.8252C3.33548 6.41299 2.5 5.30572 2.5 4C2.5 2.34315 3.84315 1 5.5 1C7.15683 1 8.5 2.34314 8.5 4C8.5 5.30572 7.66451 6.41299 6.5 6.8252V7.5C6.5 8.03765 6.74187 8.56071 7.26367 9.14941C7.79764 9.75184 8.52802 10.3175 9.35938 10.957C10.1529 11.5674 11.0477 12.2519 11.7324 13.0244C11.8241 13.1279 11.9137 13.2346 12 13.3447C12.0863 13.2346 12.1759 13.1279 12.2676 13.0244C12.9523 12.2519 13.8471 11.5674 14.6406 10.957C15.472 10.3175 16.2024 9.75184 16.7363 9.14941C17.2581 8.56071 17.5 8.03765 17.5 7.5V6.8252C16.3355 6.41299 15.5 5.30572 15.5 4C15.5 2.34314 16.8432 1 18.5 1ZM12 19C11.4477 19 11 19.4477 11 20C11 20.5523 11.4477 21 12 21C12.5523 21 13 20.5523 13 20C13 19.4477 12.5523 19 12 19ZM5.5 3C4.94771 3 4.5 3.44771 4.5 4C4.5 4.55227 4.94772 5 5.5 5C6.05227 5 6.5 4.55227 6.5 4C6.5 3.44772 6.05227 3 5.5 3ZM18.5 3C17.9477 3 17.5 3.44772 17.5 4C17.5 4.55227 17.9477 5 18.5 5C19.0523 5 19.5 4.55227 19.5 4C19.5 3.44772 19.0523 3 18.5 3Z" fill="#9E9E9E"/>
</g>
</svg>
