<svg width="24" height="24" viewBox="0 0 24 24" fill="none" xmlns="http://www.w3.org/2000/svg">
<g id="icons/Connect/left-and-right-branch">
<path id="Union" d="M3.5 19C4.05226 19 4.49995 19.4478 4.5 20C4.5 20.5523 4.05228 21 3.5 21H2.5C1.94772 21 1.5 20.5523 1.5 20C1.50005 19.4478 1.94774 19 2.5 19H3.5ZM17.5 3C18.0522 3 18.4999 3.44776 18.5 4C18.5 4.55227 18.0523 4.99999 17.5 5C17.1105 5.00001 16.8947 5.01868 16.7021 5.14746C16.5337 5.26013 16.1886 5.59992 15.9756 6.71777C15.8565 7.34287 15.7564 7.95495 15.6582 8.54688C15.5612 9.13163 15.4648 9.70357 15.3555 10.2168C15.3042 10.4574 15.2473 10.6951 15.1836 10.9238C15.1997 10.9489 15.2155 10.9741 15.2305 11H17.5C18.0523 11 18.5 11.4478 18.5 12C18.5 12.5523 18.0523 13 17.5 13H15.2295C15.2147 13.0255 15.1994 13.0505 15.1836 13.0752C15.2474 13.3042 15.3041 13.5423 15.3555 13.7832C15.4648 14.2963 15.5612 14.8675 15.6582 15.4521C15.7564 16.0442 15.8565 16.657 15.9756 17.2822C16.1885 18.4 16.5337 18.7398 16.7021 18.8525C16.8947 18.9813 17.1105 19 17.5 19C18.0523 19 18.5 19.4478 18.5 20C18.5 20.5523 18.0523 21 17.5 21C17.1396 21 16.3428 21.0184 15.5898 20.5146C14.8129 19.9947 14.2799 19.0693 14.0107 17.6562C13.8862 17.0024 13.7813 16.3634 13.6846 15.7803C13.5866 15.1899 13.4979 14.6613 13.3994 14.1992C13.3841 14.1274 13.3669 14.0587 13.3516 13.9922C12.8133 13.9527 12.3359 13.701 12 13.3193C11.6639 13.7012 11.1861 13.9529 10.6475 13.9922C10.6321 14.0587 10.6159 14.1275 10.6006 14.1992C10.5021 14.6613 10.4134 15.1899 10.3154 15.7803C10.2187 16.3634 10.1138 17.0024 9.98926 17.6562C9.7201 19.0693 9.18713 19.9947 8.41016 20.5146C7.65718 21.0184 6.86045 21 6.5 21C5.94773 21 5.50003 20.5523 5.5 20C5.50004 19.4478 5.94774 19 6.5 19C6.88952 19 7.1053 18.9813 7.29785 18.8525C7.46629 18.7398 7.81146 18.4 8.02441 17.2822C8.14351 16.657 8.24355 16.0442 8.3418 15.4521C8.4388 14.8675 8.53523 14.2963 8.64453 13.7832C8.69584 13.5424 8.75164 13.3042 8.81543 13.0752C8.79961 13.0505 8.78428 13.0255 8.76953 13H6.5C5.94772 13 5.5 12.5523 5.5 12C5.50004 11.4478 5.94774 11 6.5 11H8.76953C8.78442 10.9743 8.79945 10.9488 8.81543 10.9238C8.75175 10.6952 8.69576 10.4573 8.64453 10.2168C8.5352 9.70357 8.43882 9.13163 8.3418 8.54688C8.24358 7.95495 8.14348 7.34287 8.02441 6.71777C7.81145 5.59992 7.46628 5.26013 7.29785 5.14746C7.1053 5.01868 6.8895 5.00001 6.5 5C5.94772 4.99999 5.5 4.55227 5.5 4C5.50006 3.44776 5.94776 3 6.5 3C6.86043 3.00001 7.6572 2.98165 8.41016 3.48535C9.18712 4.00524 9.72009 4.93077 9.98926 6.34375C10.1138 6.99761 10.2187 7.6366 10.3154 8.21973C10.4134 8.81009 10.5021 9.33867 10.6006 9.80078C10.6158 9.87212 10.6322 9.94066 10.6475 10.0068C11.1858 10.0461 11.6639 10.2982 12 10.6797C12.3359 10.2984 12.8136 10.0463 13.3516 10.0068C13.3668 9.94059 13.3842 9.87219 13.3994 9.80078C13.4979 9.33867 13.5866 8.81009 13.6846 8.21973C13.7813 7.6366 13.8862 6.99761 14.0107 6.34375C14.2799 4.93077 14.8129 4.00524 15.5898 3.48535C16.3428 2.98165 17.1396 3.00001 17.5 3ZM21.5 19C22.0523 19 22.5 19.4478 22.5 20C22.5 20.5523 22.0523 21 21.5 21H20.5C19.9477 21 19.5 20.5523 19.5 20C19.5 19.4478 19.9477 19 20.5 19H21.5ZM3.5 11C4.05226 11 4.49996 11.4478 4.5 12C4.5 12.5523 4.05228 13 3.5 13H2.5C1.94772 13 1.5 12.5523 1.5 12C1.50004 11.4478 1.94774 11 2.5 11H3.5ZM21.5 11C22.0523 11 22.5 11.4478 22.5 12C22.5 12.5523 22.0523 13 21.5 13H20.5C19.9477 13 19.5 12.5523 19.5 12C19.5 11.4478 19.9477 11 20.5 11H21.5ZM3.5 3C4.05226 3 4.49995 3.44775 4.5 4C4.5 4.55228 4.05228 5 3.5 5H2.5C1.94772 5 1.5 4.55228 1.5 4C1.50004 3.44775 1.94774 3 2.5 3H3.5ZM21.5 3C22.0523 3 22.5 3.44775 22.5 4C22.5 4.55228 22.0523 5 21.5 5H20.5C19.9477 5 19.5 4.55228 19.5 4C19.5 3.44775 19.9477 3 20.5 3H21.5Z" fill="#9E9E9E"/>
</g>
</svg>
