<svg width="24" height="24" viewBox="0 0 24 24" fill="none" xmlns="http://www.w3.org/2000/svg">
<g id="icons/Connect/left-branch">
<path id="Union" d="M9 19C9.55228 19 10 19.4477 10 20C10 20.5523 9.55228 21 9 21H3C2.44772 21 2 20.5523 2 20C2 19.4477 2.44772 19 3 19H9ZM12.9922 3.00098C13.3721 2.998 14.2686 2.98717 15.1562 3.41309C16.1093 3.87052 16.9346 4.76925 17.2637 6.32422C17.4927 7.40619 18.0991 8.49359 18.793 9.40234C18.9891 9.65917 19.1865 9.8923 19.375 10.1006C19.5717 10.0359 19.7816 10 20 10C21.1046 10 22 10.8954 22 12C22 13.1046 21.1046 14 20 14C19.7815 14 19.5718 13.9632 19.375 13.8984C19.1864 14.1069 18.9892 14.3406 18.793 14.5977C18.0991 15.5064 17.4927 16.5948 17.2637 17.6768C16.9344 19.2321 16.1085 20.1296 15.1553 20.5859C14.2688 21.0103 13.3717 21 13 21C12.4477 21 12 20.5523 12 20C12 19.4477 12.4477 19 13 19C13.3782 19 13.8562 18.9902 14.291 18.7822C14.659 18.6061 15.1012 18.2371 15.3076 17.2617C15.6202 15.7854 16.4075 14.4268 17.2031 13.3848C17.3037 13.253 17.406 13.1246 17.5088 13H13C12.4477 13 12 12.5523 12 12C12 11.4477 12.4477 11 13 11H17.5078C17.4053 10.8757 17.3035 10.7476 17.2031 10.6162C16.4074 9.57401 15.6202 8.2149 15.3076 6.73828C15.1011 5.76253 14.6592 5.39254 14.291 5.21582C13.8573 5.0077 13.3779 4.9971 13.0078 5C12.4557 5.00432 12.0046 4.56084 12 4.00879C11.9957 3.45652 12.4399 3.00531 12.9922 3.00098ZM9 11C9.55228 11 10 11.4477 10 12C10 12.5523 9.55228 13 9 13H3C2.44772 13 2 12.5523 2 12C2 11.4477 2.44772 11 3 11H9ZM9 3C9.55228 3 10 3.44772 10 4C10 4.55228 9.55228 5 9 5H3C2.44772 5 2 4.55228 2 4C2 3.44772 2.44772 3 3 3H9Z" fill="#9E9E9E"/>
</g>
</svg>
