<svg width="24" height="24" viewBox="0 0 24 24" fill="none" xmlns="http://www.w3.org/2000/svg">
<g id="icons/Connect/link-three">
<path id="Union" d="M15.889 1.74609C16.6701 0.965045 17.9371 0.965045 18.7181 1.74609L22.2533 5.28125C23.0343 6.06225 23.0342 7.32831 22.2533 8.10938L17.3041 13.0596C16.523 13.8406 15.256 13.8406 14.475 13.0596L13.4154 12L12.0004 13.4141L13.0609 14.4746C13.8419 15.2556 13.8418 16.5217 13.0609 17.3027L8.11169 22.2529C7.33065 23.034 6.06364 23.034 5.28259 22.2529L1.74744 18.7178C0.966388 17.9367 0.966388 16.6697 1.74744 15.8887L6.69666 10.9395C7.4777 10.1584 8.74471 10.1584 9.52576 10.9395L10.5863 12L12.0013 10.5859L10.9398 9.52441C10.1588 8.74337 10.1588 7.47636 10.9398 6.69531L15.889 1.74609ZM3.1615 17.3027L6.69666 20.8389L11.6469 15.8887L10.5863 14.8281L9.17224 16.2432C8.78185 16.6334 8.1487 16.6332 7.75818 16.2432C7.3677 15.8527 7.36778 15.2196 7.75818 14.8291L9.17224 13.4141L8.11169 12.3535L3.1615 17.3027ZM12.3539 8.10938L13.4154 9.1709L14.8295 7.75781C15.22 7.36746 15.8531 7.36734 16.2435 7.75781C16.6336 8.14831 16.6338 8.78147 16.2435 9.17188L14.8295 10.585L15.889 11.6455L20.8392 6.69531L17.3041 3.16016L12.3539 8.10938Z" fill="#9E9E9E"/>
</g>
</svg>
