<svg width="24" height="24" viewBox="0 0 24 24" fill="none" xmlns="http://www.w3.org/2000/svg">
<g id="icons/Connect/link-break">
<path id="Union" d="M12 2C12.5523 2 13 2.44772 13 3V21C13 21.5523 12.5523 22 12 22C11.4477 22 11 21.5523 11 21V3C11 2.44772 11.4477 2 12 2ZM8.5 6.5C9.05229 6.5 9.5 6.94772 9.5 7.5C9.5 8.05228 9.05229 8.5 8.5 8.5H3V15.5H8.5C9.05229 15.5 9.5 15.9477 9.5 16.5C9.5 17.0523 9.05229 17.5 8.5 17.5H3C1.89544 17.5 1 16.6046 1 15.5V8.5C1 7.39541 1.89544 6.5 3 6.5H8.5ZM21 6.5C22.1046 6.5 23 7.39542 23 8.5V15.5C23 16.6046 22.1046 17.5 21 17.5H16C15.4477 17.5 15 17.0523 15 16.5C15 15.9477 15.4477 15.5 16 15.5H21V8.5H16C15.4477 8.5 15 8.05228 15 7.5C15 6.94772 15.4477 6.5 16 6.5H21ZM8 11C8.55228 11 9 11.4477 9 12C9 12.5523 8.55228 13 8 13H6C5.44772 13 5 12.5523 5 12C5 11.4477 5.44772 11 6 11H8ZM18 11C18.5523 11 19 11.4477 19 12C19 12.5523 18.5523 13 18 13H16C15.4477 13 15 12.5523 15 12C15 11.4477 15.4477 11 16 11H18Z" fill="#9E9E9E"/>
</g>
</svg>
