<svg width="24" height="24" viewBox="0 0 24 24" fill="none" xmlns="http://www.w3.org/2000/svg">
<g id="icons/Connect/link-cloud">
<path id="Union" d="M12 3C13.952 3 15.4343 3.5629 16.5098 4.44629C17.3697 5.15271 17.9195 6.02703 18.2549 6.87793C18.3202 6.8935 18.3902 6.9092 18.4629 6.92871C18.9432 7.05771 19.594 7.28209 20.2539 7.66699C21.6049 8.4551 23 9.93442 23 12.5C23 14.3236 22.2183 15.6261 21.0811 16.4385C19.9899 17.2179 18.6428 17.5 17.5 17.5H13.4141L14.207 18.293C14.5976 18.6835 14.5976 19.3165 14.207 19.707C13.8165 20.0976 13.1835 20.0976 12.793 19.707L10.293 17.207C10.2642 17.1782 10.2384 17.1474 10.2139 17.1162C10.1789 17.0717 10.1472 17.0247 10.1201 16.9746C10.1127 16.9609 10.1063 16.9466 10.0996 16.9326C10.0778 16.8873 10.0578 16.8408 10.043 16.792C10.0303 16.7503 10.0218 16.7077 10.0146 16.665C10.0057 16.6113 10 16.5563 10 16.5C10 16.4338 10.0073 16.3693 10.0195 16.3066C10.0261 16.2732 10.033 16.2398 10.043 16.207C10.0579 16.1583 10.0778 16.1117 10.0996 16.0664C10.1188 16.0266 10.1403 15.9877 10.165 15.9502C10.2024 15.8935 10.2452 15.8408 10.293 15.793L12.793 13.293C13.1835 12.9024 13.8165 12.9024 14.207 13.293C14.5976 13.6835 14.5976 14.3165 14.207 14.707L13.4141 15.5H17.5C18.3572 15.5 19.2601 15.2821 19.9189 14.8115C20.5317 14.3739 21 13.6764 21 12.5C21 10.8157 20.145 9.91991 19.2461 9.39551C18.7812 9.12433 18.3067 8.95792 17.9434 8.86035C17.7638 8.81216 17.6164 8.78229 17.5176 8.76465C17.4683 8.75585 17.4313 8.75023 17.4092 8.74707C17.3984 8.74553 17.3912 8.74458 17.3877 8.74414L17.3857 8.74316C16.9841 8.69697 16.6492 8.41338 16.5381 8.02441C16.3314 7.30108 15.9263 6.55474 15.2402 5.99121C14.5657 5.43716 13.5479 5 12 5C10.2629 5 9.2907 5.58238 8.68164 6.26172C8.03217 6.98636 7.70654 7.9183 7.46191 8.77441C7.33926 9.20372 6.94648 9.5 6.5 9.5C6.16069 9.5 5.22498 9.64796 4.40527 10.1602C3.64069 10.638 3 11.407 3 12.75C3 13.8653 3.49519 14.4966 4.14844 14.8975C4.85885 15.3333 5.78411 15.5 6.5 15.5C7.05228 15.5 7.5 15.9477 7.5 16.5C7.5 17.0523 7.05228 17.5 6.5 17.5C5.54929 17.5 4.22445 17.2916 3.10156 16.6025C1.92157 15.8784 1 14.6346 1 12.75C1 10.5932 2.10945 9.23702 3.34473 8.46484C4.16594 7.95159 5.05265 7.68756 5.73828 7.57324C6.00986 6.75685 6.43511 5.77152 7.19336 4.92578C8.2093 3.79286 9.73743 3 12 3Z" fill="#9E9E9E"/>
</g>
</svg>
