<svg width="24" height="24" viewBox="0 0 24 24" fill="none" xmlns="http://www.w3.org/2000/svg">
<g id="icons/Connect/link-cloud-faild">
<path id="Union" d="M13.793 13.293C14.1835 12.9024 14.8165 12.9024 15.207 13.293C15.5976 13.6835 15.5976 14.3165 15.207 14.707L13.4141 16.5L15.207 18.293C15.5976 18.6835 15.5976 19.3165 15.207 19.707C14.8165 20.0976 14.1835 20.0976 13.793 19.707L12 17.9141L10.207 19.707C9.81651 20.0976 9.18349 20.0976 8.79297 19.707C8.40244 19.3165 8.40244 18.6835 8.79297 18.293L10.5859 16.5L8.79297 14.707C8.40244 14.3165 8.40244 13.6835 8.79297 13.293C9.18349 12.9024 9.81651 12.9024 10.207 13.293L12 15.0859L13.793 13.293ZM12 3C13.952 3 15.4343 3.5629 16.5098 4.44629C17.3697 5.15271 17.9195 6.02703 18.2549 6.87793C18.3202 6.8935 18.3902 6.9092 18.4629 6.92871C18.9432 7.05771 19.594 7.28209 20.2539 7.66699C21.6049 8.4551 23 9.93442 23 12.5C23 14.2404 22.4085 15.5452 21.3906 16.3936C20.4047 17.2151 19.1486 17.5 18 17.5C17.4477 17.5 17 17.0523 17 16.5C17 15.9477 17.4477 15.5 18 15.5C18.8514 15.5 19.5953 15.2848 20.1094 14.8564C20.5914 14.4548 21 13.7595 21 12.5C21 10.8157 20.145 9.91991 19.2461 9.39551C18.7812 9.12433 18.3067 8.95792 17.9434 8.86035C17.7638 8.81216 17.6164 8.78229 17.5176 8.76465C17.4683 8.75585 17.4313 8.75023 17.4092 8.74707C17.3984 8.74553 17.3912 8.74458 17.3877 8.74414L17.3857 8.74316C16.9841 8.69697 16.6492 8.41338 16.5381 8.02441C16.3314 7.30108 15.9263 6.55474 15.2402 5.99121C14.5657 5.43716 13.5479 5 12 5C10.2629 5 9.2907 5.58238 8.68164 6.26172C8.03217 6.98636 7.70654 7.9183 7.46191 8.77441C7.33926 9.20372 6.94648 9.5 6.5 9.5C6.16069 9.5 5.22498 9.64796 4.40527 10.1602C3.64069 10.638 3 11.407 3 12.75C3 13.9488 3.44456 14.5725 3.9541 14.9346C4.51849 15.3356 5.28935 15.5 6 15.5C6.55228 15.5 7 15.9477 7 16.5C7 17.0523 6.55228 17.5 6 17.5C5.04404 17.5 3.8148 17.2893 2.7959 16.5654C1.72218 15.8025 1 14.551 1 12.75C1 10.5932 2.10945 9.23702 3.34473 8.46484C4.16594 7.95159 5.05265 7.68756 5.73828 7.57324C6.00986 6.75685 6.43511 5.77152 7.19336 4.92578C8.2093 3.79286 9.73743 3 12 3Z" fill="#9E9E9E"/>
</g>
</svg>
