<svg width="24" height="24" viewBox="0 0 24 24" fill="none" xmlns="http://www.w3.org/2000/svg">
<g id="icons/Connect/link-interrupt">
<path id="Union" d="M6.49316 2.1377C6.96908 1.85805 7.58231 2.01742 7.8623 2.49316L17.8623 19.4932C18.1421 19.9691 17.9827 20.5823 17.5068 20.8623C17.0308 21.1421 16.4177 20.9828 16.1377 20.5068L6.1377 3.50684C5.85807 3.03087 6.01729 2.41762 6.49316 2.1377ZM5.5 6C6.0522 6 6.49986 6.44783 6.5 7C6.5 7.55228 6.05228 8 5.5 8H3V15H10.5C11.0522 15 11.4999 15.4478 11.5 16C11.5 16.5523 11.0523 17 10.5 17H3C1.89544 17 1 16.1046 1 15V8C1.00014 6.89552 1.89553 6 3 6H5.5ZM21 6C22.1045 6 22.9999 6.89553 23 8V15C23 16.1046 22.1046 17 21 17H19C18.4477 17 18 16.5523 18 16C18.0001 15.4478 18.4478 15 19 15H21V8H13.5C12.9477 8 12.5 7.55228 12.5 7C12.5001 6.44783 12.9478 6 13.5 6H21ZM8 10.5C8.5522 10.5 8.99986 10.9478 9 11.5C9 12.0523 8.55228 12.5 8 12.5H6C5.44772 12.5 5 12.0523 5 11.5C5.00014 10.9478 5.4478 10.5 6 10.5H8ZM18 10.5C18.5522 10.5 18.9999 10.9478 19 11.5C19 12.0523 18.5523 12.5 18 12.5H16C15.4477 12.5 15 12.0523 15 11.5C15.0001 10.9478 15.4478 10.5 16 10.5H18Z" fill="#9E9E9E"/>
</g>
</svg>
