<svg width="24" height="24" viewBox="0 0 24 24" fill="none" xmlns="http://www.w3.org/2000/svg">
<g id="icons/Connect/lower-branch">
<path id="Union" d="M5.5 19.5C6.05228 19.5 6.5 19.9477 6.5 20.5C6.5 21.0523 6.05228 21.5 5.5 21.5H2.5C1.94772 21.5 1.5 21.0523 1.5 20.5C1.5 19.9477 1.94772 19.5 2.5 19.5H5.5ZM13.5 19.5C14.0523 19.5 14.5 19.9477 14.5 20.5C14.5 21.0523 14.0523 21.5 13.5 21.5H10.5C9.94771 21.5 9.5 21.0523 9.5 20.5C9.5 19.9477 9.94771 19.5 10.5 19.5H13.5ZM21.5 19.5C22.0523 19.5 22.5 19.9477 22.5 20.5C22.5 21.0523 22.0523 21.5 21.5 21.5H18.5C17.9477 21.5 17.5 21.0523 17.5 20.5C17.5 19.9477 17.9477 19.5 18.5 19.5H21.5ZM5.5 15.5C6.05228 15.5 6.5 15.9477 6.5 16.5C6.5 17.0523 6.05228 17.5 5.5 17.5H2.5C1.94772 17.5 1.5 17.0523 1.5 16.5C1.5 15.9477 1.94772 15.5 2.5 15.5H5.5ZM13.5 15.5C14.0523 15.5 14.5 15.9477 14.5 16.5C14.5 17.0523 14.0523 17.5 13.5 17.5H10.5C9.94771 17.5 9.5 17.0523 9.5 16.5C9.5 15.9477 9.94771 15.5 10.5 15.5H13.5ZM21.5 15.5C22.0523 15.5 22.5 15.9477 22.5 16.5C22.5 17.0523 22.0523 17.5 21.5 17.5H18.5C17.9477 17.5 17.5 17.0523 17.5 16.5C17.5 15.9477 17.9477 15.5 18.5 15.5H21.5ZM12 2.5C13.1046 2.5 14 3.39543 14 4.5C14 4.71815 13.963 4.92747 13.8984 5.12402C14.107 5.31279 14.3404 5.51061 14.5977 5.70703C15.5064 6.4009 16.5948 7.00732 17.6768 7.23633C19.174 7.55333 20.2472 8.31245 20.9453 9.12598C21.6041 9.89375 22.0055 10.8069 22 11.5078C21.9956 12.06 21.5444 12.5043 20.9922 12.5C20.44 12.4956 19.9957 12.0444 20 11.4922C19.9998 11.4941 19.991 11.3746 19.8916 11.1494C19.7988 10.9391 19.6473 10.6847 19.4268 10.4277C18.9909 9.92005 18.2951 9.41109 17.2617 9.19238C15.7854 8.87979 14.4268 8.0925 13.3848 7.29688C13.253 7.19626 13.1246 7.09404 13 6.99121V11.5C13 12.0523 12.5523 12.5 12 12.5C11.4477 12.5 11 12.0523 11 11.5V6.99121C10.8754 7.09404 10.747 7.19626 10.6152 7.29688C9.57305 8.09259 8.21386 8.87986 6.7373 9.19238C5.70427 9.4111 5.01028 9.92009 4.5752 10.4277C4.35504 10.6846 4.20373 10.9392 4.11035 11.1504C4.00962 11.3783 4 11.5008 4 11.5C4 12.0523 3.55228 12.5 3 12.5C2.44772 12.5 2 12.0523 2 11.5C2 10.8056 2.39727 9.89534 3.05664 9.12598C3.75398 8.31234 4.82554 7.55341 6.32324 7.23633C7.40521 7.00732 8.49359 6.4009 9.40234 5.70703C9.65935 5.51078 9.89218 5.31264 10.1006 5.12402C10.0361 4.92756 10 4.71805 10 4.5C10 3.39543 10.8954 2.5 12 2.5Z" fill="#9E9E9E"/>
</g>
</svg>
