<svg width="24" height="24" viewBox="0 0 24 24" fill="none" xmlns="http://www.w3.org/2000/svg">
<g id="icons/Connect/network-tree">
<path id="Union" d="M20 2C20.5523 2 21 2.44772 21 3V9C21 9.55228 20.5523 10 20 10H13V12H20C20.5523 12 21 12.4477 21 13V16H22C22.5523 16 23 16.4477 23 17V21C23 21.5523 22.5523 22 22 22H18C17.4477 22 17 21.5523 17 21V17C17 16.4477 17.4477 16 18 16H19V14H13V16H14C14.5523 16 15 16.4477 15 17V21C15 21.5523 14.5523 22 14 22H10C9.44771 22 9 21.5523 9 21V17C9 16.4477 9.44771 16 10 16H11V14H5V16H6C6.55228 16 7 16.4477 7 17V21C7 21.5523 6.55228 22 6 22H2C1.44772 22 1 21.5523 1 21V17C1 16.4477 1.44772 16 2 16H3V13C3 12.4477 3.44772 12 4 12H11V10H4C3.44772 10 3 9.55228 3 9V3C3 2.44772 3.44772 2 4 2H20ZM3 20H5V18H3V20ZM11 20H13V18H11V20ZM19 20H21V18H19V20ZM5 8H19V4H5V8ZM8 5C8.55228 5 9 5.44772 9 6C9 6.55228 8.55228 7 8 7H7C6.44772 7 6 6.55228 6 6C6 5.44772 6.44772 5 7 5H8Z" fill="#9E9E9E"/>
</g>
</svg>
