<svg width="24" height="24" viewBox="0 0 24 24" fill="none" xmlns="http://www.w3.org/2000/svg">
<g id="icons/Connect/pull-requests">
<path id="Union" d="M5.5 1C7.15683 1 8.5 2.34314 8.5 4C8.5 5.30572 7.66451 6.41299 6.5 6.8252V17.1738C7.66467 17.5859 8.5 18.6942 8.5 20C8.5 21.6568 7.15683 23 5.5 23C3.84314 23 2.5 21.6568 2.5 20C2.5 18.6942 3.33532 17.5859 4.5 17.1738V6.8252C3.33548 6.41299 2.5 5.30572 2.5 4C2.5 2.34315 3.84315 1 5.5 1ZM14.293 1.29297C14.6835 0.902444 15.3165 0.902444 15.707 1.29297C16.0976 1.68349 16.0976 2.31651 15.707 2.70703L14.4141 4H16.5C18.1568 4 19.5 5.34317 19.5 7V17.1738C20.6647 17.5859 21.5 18.6942 21.5 20C21.5 21.6568 20.1568 23 18.5 23C16.8432 23 15.5 21.6568 15.5 20C15.5 18.6942 16.3353 17.5859 17.5 17.1738V7C17.5 6.44773 17.0523 6 16.5 6H14.4141L15.707 7.29297C16.0976 7.68349 16.0976 8.31651 15.707 8.70703C15.3165 9.09756 14.6835 9.09756 14.293 8.70703L11.293 5.70703C11.2654 5.67942 11.2405 5.64998 11.2168 5.62012C11.1807 5.57453 11.148 5.52615 11.1201 5.47461C11.1121 5.45983 11.1048 5.44477 11.0977 5.42969C11.0765 5.38535 11.0575 5.33964 11.043 5.29199C11.0303 5.25034 11.0218 5.20773 11.0146 5.16504C11.0057 5.11129 11 5.05628 11 5C11 4.9203 11.0097 4.84287 11.0273 4.76855C11.0322 4.748 11.0368 4.7273 11.043 4.70703C11.0579 4.65828 11.0778 4.61167 11.0996 4.56641C11.1188 4.52662 11.1403 4.48768 11.165 4.4502C11.2024 4.39354 11.2452 4.34078 11.293 4.29297L14.293 1.29297ZM5.5 19C4.94772 19 4.5 19.4477 4.5 20C4.5 20.5523 4.94772 21 5.5 21C6.05227 21 6.5 20.5523 6.5 20C6.5 19.4477 6.05227 19 5.5 19ZM18.5 19C17.9477 19 17.5 19.4477 17.5 20C17.5 20.5523 17.9477 21 18.5 21C19.0523 21 19.5 20.5523 19.5 20C19.5 19.4477 19.0523 19 18.5 19ZM5.5 3C4.94771 3 4.5 3.44771 4.5 4C4.5 4.55227 4.94772 5 5.5 5C6.05227 5 6.5 4.55227 6.5 4C6.5 3.44772 6.05227 3 5.5 3Z" fill="#9E9E9E"/>
</g>
</svg>
