<svg width="24" height="24" viewBox="0 0 24 24" fill="none" xmlns="http://www.w3.org/2000/svg">
<g id="icons/Connect/relational-graph">
<path id="Union" d="M12 5C17.1466 5 21.1183 9.62999 21.4707 15.1953C22.3693 15.5742 23 16.4635 23 17.5C23 18.8807 21.8807 20 20.5 20C19.4751 20 18.5959 19.3826 18.21 18.5H14.29C13.9041 19.3826 13.0249 20 12 20C10.9751 20 10.0959 19.3826 9.70996 18.5H5.79004C5.4041 19.3826 4.52488 20 3.5 20C2.11929 20 1 18.8807 1 17.5C1 16.4638 1.63017 15.5744 2.52832 15.1953C2.88066 9.62996 6.85335 5 12 5ZM7.75 13C6.19118 13 4.95471 13.9904 4.60156 15.2578C5.1303 15.5181 5.55313 15.9582 5.79004 16.5H9.70996C9.94676 15.9585 10.3691 15.5181 10.8975 15.2578C10.5442 13.9905 9.30871 13 7.75 13ZM12 7C9.30669 7 6.83872 8.75948 5.51465 11.4766C6.19739 11.1701 6.95681 11 7.75 11C10.3089 11 12.5158 12.7699 12.9297 15.1797C13.5386 15.4239 14.0279 15.9005 14.29 16.5H18.21C18.4576 15.9336 18.9081 15.4773 19.4707 15.2227C19.1378 10.4848 15.7913 7 12 7Z" fill="#9E9E9E"/>
</g>
</svg>
