<svg width="24" height="24" viewBox="0 0 24 24" fill="none" xmlns="http://www.w3.org/2000/svg">
<g id="icons/Connect/right-branch">
<path id="Union" d="M11 3.00586C11.5522 3.00586 11.9999 3.45361 12 4.00586C12 4.55811 11.5523 5.0058 11 5.00586C10.6092 5.0059 10.0652 5.0073 9.56445 5.22266C9.13534 5.40726 8.67612 5.77373 8.47852 6.70703C8.17114 8.1594 7.45361 9.51487 6.71289 10.5684C6.60888 10.7163 6.50196 10.8601 6.39453 11H11C11.5523 11 12 11.4477 12 12C12 12.5523 11.5523 13 11 13H6.39453C6.50195 13.1399 6.60889 13.2837 6.71289 13.4316C7.45359 14.4852 8.17111 15.8406 8.47852 17.293C8.67622 18.2271 9.13634 18.5955 9.56641 18.7812C10.0672 18.9975 10.6117 19.0001 11 19C11.5522 19 11.9999 19.4478 12 20C12 20.5522 11.5522 20.9999 11 21C10.6383 21.0001 9.70093 21.0178 8.77344 20.6172C7.77492 20.1859 6.85948 19.3041 6.52148 17.707C6.28734 16.601 5.7188 15.4948 5.07715 14.582C4.90504 14.3372 4.73318 14.1148 4.56836 13.916C4.38804 13.9694 4.19765 14 4 14C2.89543 14 2 13.1046 2 12C2 10.8954 2.89543 10 4 10C4.19755 10 4.38811 10.0296 4.56836 10.083C4.73304 9.8844 4.9052 9.66252 5.07715 9.41797C5.71881 8.50533 6.2874 7.39903 6.52148 6.29297C6.85961 4.69559 7.7751 3.81452 8.77441 3.38477C9.70215 2.9858 10.6408 3.0059 11 3.00586ZM21 19C21.5523 19 22 19.4477 22 20C22 20.5523 21.5523 21 21 21H15C14.4477 21 14 20.5523 14 20C14 19.4477 14.4477 19 15 19H21ZM21 11C21.5523 11 22 11.4477 22 12C22 12.5523 21.5523 13 21 13H15C14.4477 13 14 12.5523 14 12C14 11.4477 14.4477 11 15 11H21ZM21 3C21.5523 3 22 3.44772 22 4C22 4.55228 21.5523 5 21 5H15C14.4477 5 14 4.55228 14 4C14 3.44772 14.4477 3 15 3H21Z" fill="#9E9E9E"/>
</g>
</svg>
