<svg width="24" height="24" viewBox="0 0 24 24" fill="none" xmlns="http://www.w3.org/2000/svg">
<g id="icons/Connect/right-branch-two">
<path id="Union" d="M21.8604 3.00977C22.4071 2.93267 22.9129 3.31365 22.9902 3.86035C23.0673 4.40712 22.6864 4.913 22.1396 4.99023C20.7436 5.18747 18.0927 6.22913 15.3027 8.89648C13.7467 10.3842 11.995 11.4381 10.4072 12.1074C11.8477 12.8235 13.4626 13.9057 15.0791 15.4512L15.3154 15.6719C17.7746 17.9144 20.6526 18.9064 22.0674 19.002C22.6183 19.0392 23.0352 19.5164 22.998 20.0674C22.9608 20.6184 22.4836 21.0352 21.9326 20.998C19.9602 20.8648 16.5105 19.5861 13.6973 16.8965C10.9454 14.2655 8.32851 13.2174 6.91797 13H2C1.44772 13 1 12.5523 1 12C1.00008 11.4478 1.44777 11 2 11H6.95215C8.41982 10.8933 11.4235 9.8388 13.9209 7.45117L14.4893 6.92676C17.3253 4.39806 20.0908 3.2597 21.8604 3.00977Z" fill="#9E9E9E"/>
</g>
</svg>
