<svg width="24" height="24" viewBox="0 0 24 24" fill="none" xmlns="http://www.w3.org/2000/svg">
<g id="icons/Connect/ring">
<path id="Union" d="M15.1152 20.3672C15.6234 20.1509 16.2104 20.3874 16.4268 20.8955C16.6431 21.4037 16.4066 21.9907 15.8984 22.207C14.6992 22.7175 13.3812 23 12 23C10.6188 23 9.30079 22.7175 8.10156 22.207C7.59341 21.9907 7.35693 21.4037 7.57324 20.8955C7.78956 20.3874 8.37661 20.1509 8.88477 20.3672C9.841 20.7743 10.8931 21 12 21C13.1069 21 14.159 20.7742 15.1152 20.3672ZM4.89453 15.2852C6.49822 15.2852 7.78906 16.5912 7.78906 18.1904C7.78881 19.7895 6.49805 21.0947 4.89453 21.0947C3.2911 21.0946 2.00025 19.7894 2 18.1904C2 16.5912 3.29093 15.2853 4.89453 15.2852ZM19.1055 15.2852C20.7092 15.2852 22 16.5912 22 18.1904C21.9997 19.7895 20.709 21.0947 19.1055 21.0947C17.502 21.0946 16.2112 19.7894 16.2109 18.1904C16.2109 16.5912 17.5019 15.2853 19.1055 15.2852ZM4.89453 17.2852C4.40546 17.2853 4 17.6858 4 18.1904C4.00025 18.6948 4.4056 19.0946 4.89453 19.0947C5.38353 19.0947 5.78881 18.6949 5.78906 18.1904C5.78906 17.6857 5.38367 17.2852 4.89453 17.2852ZM19.1055 17.2852C18.6164 17.2853 18.2109 17.6858 18.2109 18.1904C18.2112 18.6948 18.6165 19.0946 19.1055 19.0947C19.5944 19.0947 19.9997 18.6949 20 18.1904C20 17.6857 19.5946 17.2852 19.1055 17.2852ZM6.91797 4.29688C7.39274 4.01489 8.006 4.17083 8.28809 4.64551C8.57006 5.12026 8.41407 5.73352 7.93945 6.01562C5.58118 7.41629 4.00013 9.99766 4 12.9512C4 13.2085 4.01178 13.4632 4.03516 13.7139C4.08644 14.2637 3.68259 14.7513 3.13281 14.8027C2.58291 14.854 2.09523 14.4493 2.04395 13.8994C2.01483 13.5871 2 13.2705 2 12.9512C2.00014 9.26668 3.97515 6.04481 6.91797 4.29688ZM15.7119 4.64551C15.994 4.17085 16.6073 4.01489 17.082 4.29688C20.0248 6.04482 21.9999 9.2667 22 12.9512C22 13.2705 21.9852 13.5871 21.9561 13.8994C21.9048 14.4493 21.4171 14.854 20.8672 14.8027C20.3174 14.7513 19.9136 14.2637 19.9648 13.7139C19.9882 13.4633 20 13.2086 20 12.9512C19.9999 9.99766 18.4188 7.41629 16.0605 6.01562C15.5859 5.73353 15.4299 5.12027 15.7119 4.64551ZM12 1C13.6035 1 14.8943 2.30523 14.8945 3.9043C14.8945 5.50359 13.6037 6.80957 12 6.80957C10.3964 6.80945 9.10547 5.50352 9.10547 3.9043C9.10572 2.3053 10.3966 1.00012 12 1ZM12 3C11.511 3.00012 11.1057 3.39993 11.1055 3.9043C11.1055 4.40887 11.5109 4.80945 12 4.80957C12.4892 4.80957 12.8945 4.40895 12.8945 3.9043C12.8943 3.39985 12.4891 3 12 3Z" fill="#9E9E9E"/>
</g>
</svg>
