<svg width="24" height="24" viewBox="0 0 24 24" fill="none" xmlns="http://www.w3.org/2000/svg">
<g id="icons/Connect/ring-one">
<path id="Union" d="M12 17.3633C13.5564 17.3634 14.8184 18.6253 14.8184 20.1816C14.8183 21.738 13.5563 22.9999 12 23C10.4436 23 9.18173 21.738 9.18164 20.1816C9.18164 18.6252 10.4435 17.3633 12 17.3633ZM12 19.3633C11.5482 19.3633 11.1816 19.7297 11.1816 20.1816C11.1817 20.6334 11.5482 21 12 21C12.4518 20.9999 12.8183 20.6333 12.8184 20.1816C12.8184 19.7298 12.4518 19.3634 12 19.3633ZM4.5459 15.5225C5.01268 15.2273 5.62963 15.3662 5.9248 15.833C6.49615 16.7365 7.26443 17.5038 8.16797 18.0752C8.63461 18.3704 8.77367 18.9884 8.47852 19.4551C8.1833 19.9218 7.56538 20.0608 7.09863 19.7656C5.94449 19.0357 4.9652 18.0555 4.23535 16.9014C3.94018 16.4346 4.07912 15.8176 4.5459 15.5225ZM18.0752 15.833C18.3704 15.3662 18.9883 15.2273 19.4551 15.5225C19.9215 15.8177 20.0605 16.4347 19.7656 16.9014C19.0358 18.0556 18.0555 19.0357 16.9014 19.7656C16.4347 20.0605 15.8177 19.9215 15.5225 19.4551C15.2273 18.9883 15.3662 18.3704 15.833 18.0752C16.7364 17.5038 17.5039 16.7364 18.0752 15.833ZM3.81836 9.18164C5.37474 9.18174 6.63672 10.4436 6.63672 12C6.63663 13.5563 5.37469 14.8183 3.81836 14.8184C2.26196 14.8184 1.00009 13.5563 1 12C1 10.4436 2.26191 9.18164 3.81836 9.18164ZM20.1816 9.18164C21.738 9.18173 23 10.4436 23 12C22.9999 13.5563 21.7379 14.8183 20.1816 14.8184C18.6253 14.8184 17.3634 13.5564 17.3633 12C17.3633 10.4436 18.6252 9.18164 20.1816 9.18164ZM3.81836 11.1816C3.36651 11.1816 3 11.5481 3 12C3.00009 12.4518 3.36656 12.8184 3.81836 12.8184C4.27007 12.8183 4.63663 12.4518 4.63672 12C4.63672 11.5482 4.27012 11.1817 3.81836 11.1816ZM20.1816 11.1816C19.7298 11.1816 19.3633 11.5481 19.3633 12C19.3634 12.4518 19.7298 12.8184 20.1816 12.8184C20.6334 12.8183 20.9999 12.4517 21 12C21 11.5482 20.6334 11.1817 20.1816 11.1816ZM7.09863 4.23535C7.56542 3.94018 8.18334 4.07911 8.47852 4.5459C8.7734 5.01252 8.63435 5.62958 8.16797 5.9248C7.26447 6.49614 6.49616 7.26447 5.9248 8.16797C5.62958 8.63435 5.01252 8.7734 4.5459 8.47852C4.07912 8.18333 3.94017 7.56541 4.23535 7.09863C4.96511 5.94475 5.94466 4.96514 7.09863 4.23535ZM15.5225 4.5459C15.8176 4.07912 16.4346 3.94018 16.9014 4.23535C18.0556 4.96521 19.0358 5.94454 19.7656 7.09863C20.0608 7.56537 19.9217 8.1833 19.4551 8.47852C18.9884 8.77366 18.3704 8.63459 18.0752 8.16797C17.5038 7.26447 16.7365 6.49614 15.833 5.9248C15.3662 5.62963 15.2273 5.01268 15.5225 4.5459ZM12 1C13.5564 1.00011 14.8184 2.262 14.8184 3.81836C14.8183 5.37465 13.5563 6.63661 12 6.63672C10.4436 6.63672 9.18174 5.3747 9.18164 3.81836C9.18164 2.26195 10.4435 1 12 1ZM12 3C11.5482 3 11.1816 3.36647 11.1816 3.81836C11.1817 4.27016 11.5482 4.63672 12 4.63672C12.4518 4.63661 12.8183 4.27007 12.8184 3.81836C12.8184 3.36656 12.4518 3.00011 12 3Z" fill="#9E9E9E"/>
</g>
</svg>
