<svg width="24" height="24" viewBox="0 0 24 24" fill="none" xmlns="http://www.w3.org/2000/svg">
<g id="icons/Connect/s-turn-right">
<path id="Union" d="M18.5879 1.5C20.5209 1.5 22.0879 3.067 22.0879 5C22.0879 6.933 20.5209 8.5 18.5879 8.5C17.0024 8.5 15.6637 7.44566 15.2334 6H6.5C5.05228 6 4 7.05228 4 8.5C4 9.94771 5.05228 11 6.5 11H17.5C20.0523 11 22 12.9477 22 15.5C22 18.0523 20.0523 20 17.5 20H6.41406L7.20703 20.793C7.59756 21.1835 7.59756 21.8165 7.20703 22.207C6.81651 22.5976 6.18349 22.5976 5.79297 22.207L3.29297 19.707C3.26536 19.6794 3.2405 19.65 3.2168 19.6201C3.17975 19.5734 3.14649 19.5237 3.11816 19.4707C3.11149 19.4582 3.10572 19.4453 3.09961 19.4326C3.0778 19.3873 3.05783 19.3408 3.04297 19.292C3.02644 19.2376 3.01586 19.1819 3.00879 19.126C3.00359 19.0847 3 19.0427 3 19C3 18.9203 3.00973 18.8429 3.02734 18.7686C3.03221 18.748 3.03678 18.7273 3.04297 18.707C3.05939 18.6533 3.08165 18.6022 3.10645 18.5527C3.12397 18.5177 3.14315 18.4834 3.16504 18.4502C3.20242 18.3935 3.24516 18.3408 3.29297 18.293L5.79297 15.793C6.18349 15.4024 6.81651 15.4024 7.20703 15.793C7.59756 16.1835 7.59756 16.8165 7.20703 17.207L6.41406 18H17.5C18.9477 18 20 16.9477 20 15.5C20 14.0523 18.9477 13 17.5 13H6.5C3.94772 13 2 11.0523 2 8.5C2 5.94772 3.94772 4 6.5 4H15.2334C15.6637 2.55434 17.0024 1.5 18.5879 1.5ZM18.5879 3.5C17.7595 3.5 17.0879 4.17157 17.0879 5C17.0879 5.82843 17.7595 6.5 18.5879 6.5C19.4163 6.5 20.0879 5.82843 20.0879 5C20.0879 4.17157 19.4163 3.5 18.5879 3.5Z" fill="#9E9E9E"/>
</g>
</svg>
