<svg width="24" height="24" viewBox="0 0 24 24" fill="none" xmlns="http://www.w3.org/2000/svg">
<g id="icons/Connect/s-turn-down">
<path id="Union" d="M15.5001 2C18.0524 2.00004 20.0001 3.94774 20.0001 6.5V15.1455C21.4458 15.5759 22.5001 16.9146 22.5001 18.5C22.5001 20.433 20.9331 22 19.0001 22C17.0671 22 15.5001 20.433 15.5001 18.5C15.5001 16.9145 16.5544 15.5758 18.0001 15.1455V6.5C18.0001 5.05231 16.9478 4.00004 15.5001 4C14.0524 4 13.0001 5.05228 13.0001 6.5V17.5C13.0001 20.0523 11.0524 22 8.50012 22C5.94784 22 4.00012 20.0523 4.00012 17.5V5.41406L3.20715 6.20703C2.81664 6.59754 2.18362 6.59752 1.79309 6.20703C1.40257 5.81651 1.40257 5.18349 1.79309 4.79297L4.29309 2.29297L4.32336 2.26562C4.37281 2.22004 4.42661 2.17949 4.4845 2.14453C4.50444 2.13248 4.52448 2.12088 4.54504 2.11035C4.60738 2.07841 4.67324 2.05256 4.74231 2.03418C4.75888 2.02977 4.77538 2.02503 4.79211 2.02148C4.80308 2.01917 4.81422 2.01758 4.82532 2.01562C4.84283 2.01252 4.86042 2.00998 4.87805 2.00781C4.89582 2.00565 4.91372 2.00415 4.93176 2.00293C4.9477 2.00184 4.96365 2.00131 4.97961 2.00098C4.98641 2.00084 4.99329 2 5.00012 2C5.00698 2 5.01381 2.00084 5.02063 2.00098C5.03822 2.00133 5.05581 2.00165 5.07336 2.00293C5.12233 2.00648 5.17016 2.01407 5.21692 2.02441C5.22802 2.02687 5.2391 2.02939 5.25012 2.03223C5.3174 2.04956 5.38149 2.07429 5.4425 2.10449C5.53779 2.15158 5.6278 2.21362 5.70715 2.29297L8.20715 4.79297C8.59763 5.18348 8.59763 5.81652 8.20715 6.20703C7.81664 6.59754 7.18362 6.59752 6.79309 6.20703L6.00012 5.41406V17.5C6.00012 18.9477 7.05241 20 8.50012 20C9.9478 20 11.0001 18.9477 11.0001 17.5V6.5C11.0001 3.94771 12.9478 2 15.5001 2ZM19.0001 17C18.1717 17 17.5001 17.6716 17.5001 18.5C17.5001 19.3284 18.1717 20 19.0001 20C19.8285 20 20.5001 19.3284 20.5001 18.5C20.5001 17.6716 19.8285 17 19.0001 17Z" fill="#9E9E9E"/>
</g>
</svg>
