<svg width="24" height="24" viewBox="0 0 24 24" fill="none" xmlns="http://www.w3.org/2000/svg">
<g id="icons/Connect/s-turn-left">
<path id="Union" d="M6 1.5C7.58545 1.5 8.92417 2.55434 9.35449 4H17.5C20.0523 4 22 5.94772 22 8.5C22 11.0523 20.0523 13 17.5 13H6.5C5.05228 13 4 14.0523 4 15.5C4 16.9477 5.05228 18 6.5 18H18.5859L17.793 17.207C17.4024 16.8165 17.4024 16.1835 17.793 15.793C18.1835 15.4024 18.8165 15.4024 19.207 15.793L21.707 18.293C21.7548 18.3408 21.7976 18.3935 21.835 18.4502C21.8568 18.4834 21.876 18.5177 21.8936 18.5527C21.9183 18.6021 21.9396 18.6534 21.9561 18.707C21.9623 18.7273 21.9668 18.748 21.9717 18.7686C21.9893 18.8429 22 18.9202 22 19C22 19.0427 21.9964 19.0847 21.9912 19.126C21.9841 19.182 21.9726 19.2376 21.9561 19.292C21.9412 19.3407 21.9222 19.3874 21.9004 19.4326C21.8943 19.4453 21.8885 19.4582 21.8818 19.4707C21.8534 19.5238 21.8194 19.5733 21.7822 19.6201C21.7586 19.6498 21.7345 19.6796 21.707 19.707L19.207 22.207C18.8165 22.5976 18.1835 22.5976 17.793 22.207C17.4024 21.8165 17.4024 21.1835 17.793 20.793L18.5859 20H6.5C3.94771 20 2 18.0523 2 15.5C2 12.9477 3.94771 11 6.5 11H17.5C18.9477 11 20 9.94771 20 8.5C20 7.05228 18.9477 6 17.5 6H9.35449C8.92417 7.44566 7.58545 8.5 6 8.5C4.067 8.5 2.5 6.933 2.5 5C2.5 3.067 4.067 1.5 6 1.5ZM6 3.5C5.17157 3.5 4.5 4.17157 4.5 5C4.5 5.82843 5.17157 6.5 6 6.5C6.82843 6.5 7.5 5.82843 7.5 5C7.5 4.17157 6.82843 3.5 6 3.5Z" fill="#9E9E9E"/>
</g>
</svg>
