<svg width="24" height="24" viewBox="0 0 24 24" fill="none" xmlns="http://www.w3.org/2000/svg">
<g id="icons/Connect/s-turn-up">
<path id="Union" d="M15.5 2C18.0523 2 20 3.94771 20 6.5V18.5859L20.793 17.793C21.1835 17.4024 21.8165 17.4024 22.207 17.793C22.5976 18.1835 22.5976 18.8165 22.207 19.207L19.707 21.707C19.6592 21.7548 19.6065 21.7976 19.5498 21.835C19.5121 21.8599 19.4727 21.8811 19.4326 21.9004C19.3874 21.9222 19.3407 21.9412 19.292 21.9561C19.2717 21.9622 19.251 21.9668 19.2305 21.9717C19.2191 21.9744 19.2078 21.9772 19.1963 21.9795C19.1859 21.9816 19.1754 21.9826 19.165 21.9844C19.1112 21.9933 19.0563 22 19 22C18.9433 22 18.8881 21.9934 18.834 21.9844C18.8236 21.9826 18.8131 21.9816 18.8027 21.9795C18.7912 21.9772 18.7799 21.9744 18.7686 21.9717C18.748 21.9668 18.7273 21.9623 18.707 21.9561C18.6584 21.9412 18.6116 21.9222 18.5664 21.9004C18.5266 21.8812 18.4877 21.8597 18.4502 21.835C18.3935 21.7976 18.3408 21.7548 18.293 21.707L15.793 19.207C15.4024 18.8165 15.4024 18.1835 15.793 17.793C16.1835 17.4024 16.8165 17.4024 17.207 17.793L18 18.5859V6.5C18 5.05228 16.9477 4 15.5 4C14.0523 4 13 5.05228 13 6.5V17.5C13 20.0523 11.0523 22 8.5 22C5.94772 22 4 20.0523 4 17.5V8.85352C2.55447 8.42311 1.5 7.08536 1.5 5.5C1.5 3.567 3.067 2 5 2C6.933 2 8.5 3.567 8.5 5.5C8.5 7.08536 7.44553 8.42311 6 8.85352V17.5C6 18.9477 7.05228 20 8.5 20C9.94771 20 11 18.9477 11 17.5V6.5C11 3.94771 12.9477 2 15.5 2ZM5 4C4.17157 4 3.5 4.67157 3.5 5.5C3.5 6.32843 4.17157 7 5 7C5.82843 7 6.5 6.32843 6.5 5.5C6.5 4.67157 5.82843 4 5 4Z" fill="#9E9E9E"/>
</g>
</svg>
