<svg width="24" height="24" viewBox="0 0 24 24" fill="none" xmlns="http://www.w3.org/2000/svg">
<g id="icons/Connect/share-one">
<path id="Union" d="M17.5 2C19.433 2 21 3.567 21 5.5C21 7.43298 19.433 9 17.5 9C16.5228 9 15.6398 8.59888 15.0049 7.95312L9.87207 11.0625C9.95487 11.3609 10 11.6752 10 12C10 12.2913 9.96356 12.5741 9.89648 12.8447L15.1211 15.9326C15.7455 15.3538 16.5814 15 17.5 15C19.433 15 21 16.567 21 18.5C21 20.433 19.433 22 17.5 22C15.567 22 14 20.433 14 18.5C14 18.2083 14.0363 17.9252 14.1035 17.6543L8.87793 14.5664C8.25354 15.1452 7.41853 15.5 6.5 15.5C4.56702 15.5 3 13.933 3 12C3 10.067 4.56702 8.5 6.5 8.5C7.38422 8.5 8.19152 8.8283 8.80762 9.36914L14.0664 6.18262C14.0228 5.96184 14 5.73358 14 5.5C14 3.567 15.567 2 17.5 2ZM17.5 17C16.6716 17 16 17.6716 16 18.5C16 19.3284 16.6716 20 17.5 20C18.3284 20 19 19.3284 19 18.5C19 17.6716 18.3284 17 17.5 17ZM6.5 10.5C5.67158 10.5 5 11.1716 5 12C5 12.8284 5.67158 13.5 6.5 13.5C7.32842 13.5 8 12.8284 8 12C8 11.1716 7.32842 10.5 6.5 10.5ZM17.5 4C16.6716 4 16 4.67158 16 5.5C16 6.32842 16.6716 7 17.5 7C18.3284 7 19 6.32842 19 5.5C19 4.67158 18.3284 4 17.5 4Z" fill="#9E9E9E"/>
</g>
</svg>
