<svg width="24" height="24" viewBox="0 0 24 24" fill="none" xmlns="http://www.w3.org/2000/svg">
<g id="icons/Connect/split-turn-down-right">
<path id="Union" d="M6.5 0.972656C8.433 0.972656 10 2.53966 10 4.47266C10 6.05801 8.94553 7.39576 7.5 7.82617V10H14.5C17.2614 10 19.5 12.2386 19.5 15V19.5859L20.293 18.793C20.6835 18.4024 21.3165 18.4024 21.707 18.793C22.0976 19.1835 22.0976 19.8165 21.707 20.207L19.207 22.707C19.1592 22.7548 19.1065 22.7976 19.0498 22.835C19.0121 22.8599 18.9727 22.8811 18.9326 22.9004C18.8874 22.9222 18.8407 22.9412 18.792 22.9561C18.7717 22.9622 18.751 22.9668 18.7305 22.9717C18.7191 22.9744 18.7078 22.9772 18.6963 22.9795C18.6859 22.9816 18.6754 22.9826 18.665 22.9844C18.6112 22.9933 18.5563 23 18.5 23C18.4433 23 18.3881 22.9934 18.334 22.9844C18.3236 22.9826 18.3131 22.9816 18.3027 22.9795C18.2912 22.9772 18.2799 22.9744 18.2686 22.9717C18.248 22.9668 18.2273 22.9623 18.207 22.9561C18.1584 22.9412 18.1116 22.9222 18.0664 22.9004C18.0266 22.8812 17.9877 22.8597 17.9502 22.835C17.8935 22.7976 17.8408 22.7548 17.793 22.707L15.293 20.207C14.9024 19.8165 14.9024 19.1835 15.293 18.793C15.6835 18.4024 16.3165 18.4024 16.707 18.793L17.5 19.5859V15C17.5 13.3431 16.1569 12 14.5 12H7.5V19.5859L8.29297 18.793C8.68349 18.4024 9.31651 18.4024 9.70703 18.793C10.0976 19.1835 10.0976 19.8165 9.70703 20.207L7.20703 22.707C6.81651 23.0976 6.18349 23.0976 5.79297 22.707L3.29297 20.207C2.90244 19.8165 2.90244 19.1835 3.29297 18.793C3.68349 18.4024 4.31651 18.4024 4.70703 18.793L5.5 19.5859V7.82617C4.05447 7.39576 3 6.05801 3 4.47266C3 2.53966 4.567 0.972656 6.5 0.972656ZM6.5 2.97266C5.67157 2.97266 5 3.64423 5 4.47266C5 5.30108 5.67157 5.97266 6.5 5.97266C7.32843 5.97266 8 5.30108 8 4.47266C8 3.64423 7.32843 2.97266 6.5 2.97266Z" fill="#9E9E9E"/>
</g>
</svg>
