<svg width="24" height="24" viewBox="0 0 24 24" fill="none" xmlns="http://www.w3.org/2000/svg">
<g id="icons/Connect/split-turn-down-left">
<path id="Union" d="M18.5001 0.972656C20.433 0.972697 22.0001 2.53968 22.0001 4.47266C22.0001 6.05799 20.9456 7.39574 19.5001 7.82617V19.5859L20.293 18.793C20.6836 18.4025 21.3166 18.4025 21.7071 18.793C22.0976 19.1835 22.0976 19.8165 21.7071 20.207L19.2071 22.707C18.8166 23.0975 18.1836 23.0975 17.793 22.707L15.293 20.207C14.9025 19.8165 14.9025 19.1835 15.293 18.793C15.6836 18.4025 16.3166 18.4025 16.7071 18.793L17.5001 19.5859V12H10.5001C8.8432 12 7.50006 13.3432 7.50006 15V19.5859L8.29303 18.793C8.68356 18.4025 9.31658 18.4025 9.70709 18.793C10.0976 19.1835 10.0976 19.8165 9.70709 20.207L7.20709 22.707C7.16056 22.7536 7.1087 22.7944 7.05377 22.8311C7.01464 22.8572 6.97434 22.8804 6.93268 22.9004C6.88719 22.9223 6.84008 22.9412 6.79108 22.9561C6.77434 22.9611 6.75723 22.9646 6.7403 22.9688C6.72469 22.9726 6.7093 22.9774 6.69342 22.9805C6.68632 22.9819 6.67905 22.9822 6.67194 22.9834C6.616 22.9931 6.55878 23 6.50006 23C6.44342 23 6.38812 22.9934 6.33405 22.9844C6.32364 22.9826 6.31315 22.9816 6.3028 22.9795C6.29129 22.9772 6.27997 22.9744 6.26862 22.9717C6.24805 22.9668 6.22738 22.9623 6.20709 22.9561C6.15844 22.9412 6.11165 22.9222 6.06647 22.9004C6.02667 22.8812 5.98775 22.8597 5.95026 22.835C5.8936 22.7976 5.84084 22.7548 5.79303 22.707L3.29303 20.207C2.90251 19.8165 2.90251 19.1835 3.29303 18.793C3.68356 18.4025 4.31658 18.4025 4.70709 18.793L5.50006 19.5859V15C5.50006 12.2386 7.73862 10 10.5001 10H17.5001V7.82617C16.0545 7.39578 15.0001 6.05804 15.0001 4.47266C15.0001 2.53966 16.5671 0.972656 18.5001 0.972656ZM18.5001 2.97266C17.6716 2.97266 17.0001 3.64423 17.0001 4.47266C17.0001 5.30108 17.6716 5.97266 18.5001 5.97266C19.3285 5.97262 20.0001 5.30106 20.0001 4.47266C20.0001 3.64425 19.3285 2.9727 18.5001 2.97266Z" fill="#9E9E9E"/>
</g>
</svg>
