<svg width="24" height="24" viewBox="0 0 24 24" fill="none" xmlns="http://www.w3.org/2000/svg">
<g id="icons/Connect/tree-diagram">
<path id="Union" d="M19 2C20.6569 2 22 3.34315 22 5C22 6.65685 20.6569 8 19 8C17.6941 8 16.5859 7.16468 16.1738 6H12V11H16.1738C16.5859 9.83532 17.6941 9 19 9C20.6569 9 22 10.3431 22 12C22 13.6569 20.6569 15 19 15C17.6941 15 16.5859 14.1647 16.1738 13H12V18H16.1738C16.5859 16.8353 17.6941 16 19 16C20.6569 16 22 17.3431 22 19C22 20.6569 20.6569 22 19 22C17.6941 22 16.5859 21.1647 16.1738 20H11C10.4477 20 10 19.5523 10 19V13H7.82617C7.41406 14.1647 6.30585 15 5 15C3.34315 15 2 13.6569 2 12C2 10.3431 3.34315 9 5 9C6.30585 9 7.41406 9.83532 7.82617 11H10V5C10 4.44772 10.4477 4 11 4H16.1738C16.5859 2.83532 17.6941 2 19 2ZM19 18C18.4477 18 18 18.4477 18 19C18 19.5523 18.4477 20 19 20C19.5523 20 20 19.5523 20 19C20 18.4477 19.5523 18 19 18ZM5 11C4.44772 11 4 11.4477 4 12C4 12.5523 4.44772 13 5 13C5.55228 13 6 12.5523 6 12C6 11.4477 5.55228 11 5 11ZM19 11C18.4477 11 18 11.4477 18 12C18 12.5523 18.4477 13 19 13C19.5523 13 20 12.5523 20 12C20 11.4477 19.5523 11 19 11ZM19 4C18.4477 4 18 4.44772 18 5C18 5.55228 18.4477 6 19 6C19.5523 6 20 5.55228 20 5C20 4.44772 19.5523 4 19 4Z" fill="#9E9E9E"/>
</g>
</svg>
