<svg width="24" height="24" viewBox="0 0 24 24" fill="none" xmlns="http://www.w3.org/2000/svg">
<g id="icons/Connect/u-turn-down">
<path id="Union" d="M12.0001 1C15.5899 1.00004 18.5001 3.91017 18.5001 7.5V16.1455C19.9458 16.5759 21.0001 17.9146 21.0001 19.5C21.0001 21.433 19.4331 23 17.5001 23C15.5671 23 14.0001 21.433 14.0001 19.5C14.0001 17.9145 15.0544 16.5758 16.5001 16.1455V7.5C16.5001 5.01475 14.4854 3.00004 12.0001 3C9.51485 3 7.50012 5.01472 7.50012 7.5V19.5859L8.29309 18.793C8.68362 18.4025 9.31664 18.4025 9.70715 18.793C10.0976 19.1835 10.0976 19.8165 9.70715 20.207L7.20715 22.707C7.16062 22.7536 7.10876 22.7944 7.05383 22.8311C7.0147 22.8572 6.9744 22.8804 6.93274 22.9004C6.88725 22.9223 6.84014 22.9412 6.79114 22.9561C6.7744 22.9611 6.75729 22.9646 6.74036 22.9688C6.72476 22.9726 6.70936 22.9774 6.69348 22.9805C6.68639 22.9819 6.67912 22.9822 6.672 22.9834C6.61606 22.9931 6.55884 23 6.50012 23C6.44348 23 6.38818 22.9934 6.33411 22.9844C6.3237 22.9826 6.31321 22.9816 6.30286 22.9795C6.29135 22.9772 6.28003 22.9744 6.26868 22.9717C6.24811 22.9668 6.22744 22.9623 6.20715 22.9561C6.1585 22.9412 6.11172 22.9222 6.06653 22.9004C6.02674 22.8812 5.98781 22.8597 5.95032 22.835C5.89366 22.7976 5.8409 22.7548 5.79309 22.707L3.29309 20.207C2.90257 19.8165 2.90257 19.1835 3.29309 18.793C3.68362 18.4025 4.31664 18.4025 4.70715 18.793L5.50012 19.5859V7.5C5.50012 3.91015 8.41029 1 12.0001 1ZM17.5001 18C16.6717 18 16.0001 18.6716 16.0001 19.5C16.0001 20.3284 16.6717 21 17.5001 21C18.3285 21 19.0001 20.3284 19.0001 19.5C19.0001 18.6716 18.3285 18 17.5001 18Z" fill="#9E9E9E"/>
</g>
</svg>
