<svg width="24" height="24" viewBox="0 0 24 24" fill="none" xmlns="http://www.w3.org/2000/svg">
<g id="icons/Connect/u-turn-right">
<path id="Union" d="M19.5 3C21.433 3 23 4.567 23 6.5C23 8.433 21.433 10 19.5 10C17.9145 10 16.5758 8.94566 16.1455 7.5H7.5C5.01472 7.5 3 9.51473 3 12C3 14.4853 5.01472 16.5 7.5 16.5H19.5859L18.793 15.707C18.4024 15.3165 18.4024 14.6835 18.793 14.293C19.1835 13.9024 19.8165 13.9024 20.207 14.293L22.707 16.793C22.7548 16.8408 22.7976 16.8935 22.835 16.9502C22.8597 16.9877 22.8812 17.0266 22.9004 17.0664C22.9222 17.1116 22.9412 17.1584 22.9561 17.207C22.9623 17.2273 22.9668 17.248 22.9717 17.2686C22.9893 17.3429 23 17.4202 23 17.5C23 17.5563 22.9933 17.6112 22.9844 17.665C22.9772 17.7078 22.9688 17.7503 22.9561 17.792C22.9412 17.8407 22.9222 17.8874 22.9004 17.9326C22.8936 17.9468 22.8864 17.9607 22.8789 17.9746C22.854 18.0206 22.8255 18.0642 22.7939 18.1055C22.7672 18.1405 22.739 18.175 22.707 18.207L20.207 20.707C19.8165 21.0976 19.1835 21.0976 18.793 20.707C18.4024 20.3165 18.4024 19.6835 18.793 19.293L19.5859 18.5H7.5C3.91015 18.5 1 15.5898 1 12C1 8.41017 3.91015 5.5 7.5 5.5H16.1455C16.5758 4.05434 17.9145 3 19.5 3ZM19.5 5C18.6716 5 18 5.67157 18 6.5C18 7.32843 18.6716 8 19.5 8C20.3284 8 21 7.32843 21 6.5C21 5.67157 20.3284 5 19.5 5Z" fill="#9E9E9E"/>
</g>
</svg>
