<svg width="24" height="24" viewBox="0 0 24 24" fill="none" xmlns="http://www.w3.org/2000/svg">
<g id="icons/Connect/u-turn-left">
<path id="Union" d="M4.5 3C6.08545 3 7.42417 4.05434 7.85449 5.5H16.5C20.0898 5.5 23 8.41017 23 12C23 15.5898 20.0898 18.5 16.5 18.5H4.41406L5.20703 19.293C5.59756 19.6835 5.59756 20.3165 5.20703 20.707C4.81651 21.0976 4.18349 21.0976 3.79297 20.707L1.29297 18.207C1.26097 18.175 1.23281 18.1405 1.20605 18.1055C1.1744 18.064 1.14507 18.0208 1.12012 17.9746C1.11269 17.9609 1.10634 17.9466 1.09961 17.9326C1.0778 17.8873 1.05783 17.8408 1.04297 17.792C1.0303 17.7503 1.02176 17.7077 1.01465 17.665C1.00571 17.6113 1 17.5563 1 17.5C1 17.4203 1.00973 17.3429 1.02734 17.2686C1.03221 17.248 1.03678 17.2273 1.04297 17.207C1.05787 17.1583 1.07777 17.1117 1.09961 17.0664C1.11877 17.0266 1.1403 16.9877 1.16504 16.9502C1.20242 16.8935 1.24516 16.8408 1.29297 16.793L3.79297 14.293C4.18349 13.9024 4.81651 13.9024 5.20703 14.293C5.59756 14.6835 5.59756 15.3165 5.20703 15.707L4.41406 16.5H16.5C18.9853 16.5 21 14.4853 21 12C21 9.51473 18.9853 7.5 16.5 7.5H7.85449C7.42417 8.94566 6.08545 10 4.5 10C2.567 10 1 8.433 1 6.5C1 4.567 2.567 3 4.5 3ZM4.5 5C3.67157 5 3 5.67157 3 6.5C3 7.32843 3.67157 8 4.5 8C5.32843 8 6 7.32843 6 6.5C6 5.67157 5.32843 5 4.5 5Z" fill="#9E9E9E"/>
</g>
</svg>
