<svg width="24" height="24" viewBox="0 0 24 24" fill="none" xmlns="http://www.w3.org/2000/svg">
<g id="icons/Connect/u-turn-up">
<path id="Union" d="M17.5205 1.00098C17.5381 1.00133 17.5557 1.00165 17.5732 1.00293C17.6225 1.0065 17.6707 1.01396 17.7178 1.02441C17.7269 1.02645 17.736 1.02895 17.7451 1.03125C17.8141 1.04866 17.8799 1.07357 17.9424 1.10449C17.9746 1.12042 18.0064 1.13761 18.0371 1.15723C18.0714 1.17913 18.1045 1.20271 18.1357 1.22852C18.1602 1.24873 18.1841 1.27007 18.207 1.29297L20.707 3.79297C21.0976 4.18349 21.0976 4.81651 20.707 5.20703C20.3165 5.59756 19.6835 5.59756 19.293 5.20703L18.5 4.41406V16.5C18.5 20.0898 15.5898 23 12 23C8.41017 23 5.5 20.0898 5.5 16.5V7.85352C4.05447 7.42311 3 6.08536 3 4.5C3 2.567 4.567 1 6.5 1C8.433 1 10 2.567 10 4.5C10 6.08536 8.94553 7.42311 7.5 7.85352V16.5C7.5 18.9853 9.51473 21 12 21C14.4853 21 16.5 18.9853 16.5 16.5V4.41406L15.707 5.20703C15.3165 5.59756 14.6835 5.59756 14.293 5.20703C13.9024 4.81651 13.9024 4.18349 14.293 3.79297L16.793 1.29297C16.8548 1.23117 16.9248 1.17778 17.001 1.13379C17.0154 1.12546 17.0302 1.1179 17.0449 1.11035C17.1073 1.0784 17.1731 1.05257 17.2422 1.03418C17.2588 1.02976 17.2753 1.02503 17.292 1.02148C17.303 1.01916 17.3141 1.01758 17.3252 1.01562C17.3427 1.01252 17.3603 1.00998 17.3779 1.00781C17.3957 1.00565 17.4136 1.00415 17.4316 1.00293C17.4476 1.00184 17.4635 1.00131 17.4795 1.00098C17.4863 1.00084 17.4931 1 17.5 1C17.5069 1 17.5137 1.00084 17.5205 1.00098ZM6.5 3C5.67157 3 5 3.67157 5 4.5C5 5.32843 5.67157 6 6.5 6C7.32843 6 8 5.32843 8 4.5C8 3.67157 7.32843 3 6.5 3Z" fill="#9E9E9E"/>
</g>
</svg>
