<svg width="24" height="24" viewBox="0 0 24 24" fill="none" xmlns="http://www.w3.org/2000/svg">
<g id="icons/Connect/whole-site-accelerator">
<path id="Union" d="M13 1C14.6569 1 16 2.34315 16 4C16 5.65685 14.6569 7 13 7C12.5677 7 12.1575 6.9068 11.7861 6.74219L8.66992 10.6377C8.7296 10.7544 8.78196 10.8751 8.82617 11H15.1738C15.5859 9.83532 16.6941 9 18 9C19.6569 9 21 10.3431 21 12C21 13.6569 19.6569 15 18 15C17.5677 15 17.1575 14.9068 16.7861 14.7422L13.6699 18.6367C13.8794 19.0461 14 19.5086 14 20C14 21.6569 12.6569 23 11 23C9.34315 23 8 21.6569 8 20C8 18.3431 9.34315 17 11 17C11.4316 17 11.8411 17.0928 12.2119 17.2568L15.3291 13.3613C15.2697 13.245 15.2179 13.1245 15.1738 13H8.82617C8.41406 14.1647 7.30585 15 6 15C4.34315 15 3 13.6569 3 12C3 10.3431 4.34315 9 6 9C6.43188 9 6.84187 9.09255 7.21289 9.25684L10.3291 5.36133C10.1203 4.95245 10 4.49062 10 4C10 2.34315 11.3431 1 13 1ZM11 19C10.4477 19 10 19.4477 10 20C10 20.5523 10.4477 21 11 21C11.5523 21 12 20.5523 12 20C12 19.4477 11.5523 19 11 19ZM6 11C5.44772 11 5 11.4477 5 12C5 12.5523 5.44772 13 6 13C6.55228 13 7 12.5523 7 12C7 11.4477 6.55228 11 6 11ZM18 11C17.4477 11 17 11.4477 17 12C17 12.5523 17.4477 13 18 13C18.5523 13 19 12.5523 19 12C19 11.4477 18.5523 11 18 11ZM13 3C12.4477 3 12 3.44772 12 4C12 4.55228 12.4477 5 13 5C13.5523 5 14 4.55228 14 4C14 3.44772 13.5523 3 13 3Z" fill="#9E9E9E"/>
</g>
</svg>
